<?xml version="1.0" encoding="utf-8"?>
<!-- Generator: Adobe Illustrator 25.4.1, SVG Export Plug-In . SVG Version: 6.00 Build 0)  -->
<!DOCTYPE svg PUBLIC "-//W3C//DTD SVG 1.1//EN" "http://www.w3.org/Graphics/SVG/1.1/DTD/svg11.dtd" [
	<!ENTITY ns_extend "http://ns.adobe.com/Extensibility/1.0/">
	<!ENTITY ns_ai "http://ns.adobe.com/AdobeIllustrator/10.0/">
	<!ENTITY ns_graphs "http://ns.adobe.com/Graphs/1.0/">
	<!ENTITY ns_vars "http://ns.adobe.com/Variables/1.0/">
	<!ENTITY ns_imrep "http://ns.adobe.com/ImageReplacement/1.0/">
	<!ENTITY ns_sfw "http://ns.adobe.com/SaveForWeb/1.0/">
	<!ENTITY ns_custom "http://ns.adobe.com/GenericCustomNamespace/1.0/">
	<!ENTITY ns_adobe_xpath "http://ns.adobe.com/XPath/1.0/">
]>
<svg version="1.1" id="Capa_1" xmlns:x="&ns_extend;" xmlns:i="&ns_ai;" xmlns:graph="&ns_graphs;"
	 xmlns="http://www.w3.org/2000/svg" xmlns:xlink="http://www.w3.org/1999/xlink" x="0px" y="0px" viewBox="0 0 398.5 130.9"
	 style="enable-background:new 0 0 398.5 130.9;" xml:space="preserve">
<style type="text/css">
	.st0{fill:#DA522A;}
	.st1{fill:#FFFFFF;}
	.st2{fill:#142F4E;}
	.st3{fill:#395C7E;}
</style>
<metadata>
	<sfw  xmlns="&ns_sfw;">
		<slices></slices>
		<sliceSourceBounds  bottomLeftOrigin="true" height="130.9" width="398.5" x="760.8" y="-605.7"></sliceSourceBounds>
	</sfw>
</metadata>
<g>
	<g>
		<rect x="267.6" class="st0" width="130.9" height="130.8"/>
		<g>
			<path class="st1" d="M288.6,30.9h-2.7v3.5h-1v-8h4.2v0.9h-3.2V30h2.7V30.9z"/>
			<path class="st1" d="M293.1,34.4c-0.1-0.1-0.1-0.3-0.1-0.6c-0.3,0.5-0.8,0.8-1.3,0.8c-0.5,0-1-0.2-1.3-0.5s-0.5-0.7-0.5-1.3
				c0-0.6,0.2-1.1,0.6-1.4c0.4-0.4,1-0.5,1.7-0.5h0.7v-0.6c0-0.4-0.1-0.6-0.2-0.8c-0.2-0.2-0.4-0.2-0.7-0.2c-0.3,0-0.5,0.1-0.7,0.3
				c-0.2,0.2-0.3,0.4-0.3,0.7h-1c0-0.3,0.1-0.6,0.3-0.9c0.2-0.3,0.4-0.5,0.7-0.7c0.3-0.2,0.6-0.2,1-0.2c0.6,0,1.1,0.2,1.4,0.5
				c0.3,0.3,0.5,0.7,0.5,1.3v3c0,0.5,0.1,0.9,0.2,1.2v0.1H293.1z M291.8,33.6c0.2,0,0.5-0.1,0.7-0.2c0.2-0.1,0.4-0.3,0.5-0.5v-1.4
				h-0.5c-0.5,0-0.8,0.1-1.1,0.3c-0.3,0.2-0.4,0.5-0.4,0.8c0,0.3,0.1,0.6,0.2,0.7S291.4,33.6,291.8,33.6z"/>
			<path class="st1" d="M297.5,33.7c0.3,0,0.6-0.1,0.8-0.3c0.2-0.2,0.3-0.5,0.3-0.9h0.9c0,0.6-0.2,1-0.6,1.4
				c-0.4,0.4-0.9,0.6-1.4,0.6c-0.7,0-1.3-0.2-1.7-0.7c-0.4-0.5-0.6-1.2-0.6-2.1v-0.7c0-0.9,0.2-1.6,0.6-2.1s0.9-0.7,1.7-0.7
				c0.6,0,1.1,0.2,1.5,0.6c0.4,0.4,0.5,0.9,0.6,1.6h-0.9c0-0.4-0.1-0.8-0.3-1c-0.2-0.2-0.5-0.3-0.8-0.3c-0.4,0-0.8,0.1-1,0.4
				c-0.2,0.3-0.3,0.8-0.3,1.4v0.8c0,0.7,0.1,1.2,0.3,1.5C296.7,33.5,297,33.7,297.5,33.7z"/>
			<path class="st1" d="M303.6,33.9c-0.3,0.4-0.8,0.6-1.4,0.6c-0.5,0-0.9-0.2-1.2-0.6c-0.3-0.4-0.4-0.9-0.4-1.6v-3.9h1v3.8
				c0,0.9,0.3,1.4,0.8,1.4c0.6,0,1-0.3,1.2-0.8v-4.4h1v6h-0.9L303.6,33.9z"/>
			<path class="st1" d="M307.1,34.4h-1V26h1V34.4z"/>
			<path class="st1" d="M309.9,27v1.4h0.9v0.8h-0.9v3.7c0,0.2,0,0.4,0.1,0.5c0.1,0.1,0.2,0.2,0.4,0.2c0.1,0,0.3,0,0.4-0.1l0,0.8
				c-0.2,0.1-0.4,0.1-0.7,0.1c-0.4,0-0.7-0.1-0.9-0.4s-0.3-0.7-0.3-1.2v-3.7H308v-0.8h0.9V27H309.9z"/>
			<path class="st1" d="M315,34.4c-0.1-0.1-0.1-0.3-0.1-0.6c-0.3,0.5-0.8,0.8-1.3,0.8c-0.5,0-1-0.2-1.3-0.5s-0.5-0.7-0.5-1.3
				c0-0.6,0.2-1.1,0.6-1.4c0.4-0.4,1-0.5,1.7-0.5h0.7v-0.6c0-0.4-0.1-0.6-0.2-0.8c-0.2-0.2-0.4-0.2-0.7-0.2c-0.3,0-0.5,0.1-0.7,0.3
				c-0.2,0.2-0.3,0.4-0.3,0.7h-1c0-0.3,0.1-0.6,0.3-0.9c0.2-0.3,0.4-0.5,0.7-0.7c0.3-0.2,0.6-0.2,1-0.2c0.6,0,1.1,0.2,1.4,0.5
				s0.5,0.7,0.5,1.3v3c0,0.5,0.1,0.9,0.2,1.2v0.1H315z M313.7,33.6c0.2,0,0.5-0.1,0.7-0.2c0.2-0.1,0.4-0.3,0.5-0.5v-1.4h-0.6
				c-0.5,0-0.8,0.1-1.1,0.3c-0.3,0.2-0.4,0.5-0.4,0.8c0,0.3,0.1,0.6,0.2,0.7C313.2,33.6,313.4,33.6,313.7,33.6z"/>
			<path class="st1" d="M317.2,31.2c0-0.9,0.2-1.6,0.5-2.1c0.3-0.5,0.8-0.7,1.5-0.7c0.6,0,1,0.2,1.3,0.7V26h1v8.5h-0.9l0-0.6
				c-0.3,0.5-0.8,0.7-1.4,0.7c-0.6,0-1.1-0.2-1.5-0.7c-0.4-0.5-0.5-1.2-0.5-2V31.2z M318.1,31.7c0,0.7,0.1,1.2,0.3,1.5
				c0.2,0.3,0.5,0.5,1,0.5c0.5,0,0.8-0.2,1.1-0.7v-3c-0.2-0.5-0.6-0.7-1.1-0.7c-0.4,0-0.8,0.2-1,0.5s-0.3,0.8-0.3,1.4V31.7z"/>
		</g>
		<g>
			<path class="st1" d="M285.9,45h3.1v0.9h-4.2v-8h1V45z"/>
			<path class="st1" d="M293.2,45.9c-0.1-0.1-0.1-0.3-0.1-0.6c-0.3,0.5-0.8,0.8-1.3,0.8c-0.5,0-1-0.2-1.3-0.5s-0.5-0.7-0.5-1.3
				c0-0.6,0.2-1.1,0.6-1.4c0.4-0.4,1-0.5,1.7-0.5h0.7v-0.6c0-0.4-0.1-0.6-0.2-0.8c-0.2-0.2-0.4-0.2-0.7-0.2c-0.3,0-0.5,0.1-0.7,0.3
				c-0.2,0.2-0.3,0.4-0.3,0.7h-1c0-0.3,0.1-0.6,0.3-0.9c0.2-0.3,0.4-0.5,0.7-0.7c0.3-0.2,0.6-0.2,1-0.2c0.6,0,1.1,0.2,1.4,0.5
				s0.5,0.7,0.5,1.3v3c0,0.5,0.1,0.9,0.2,1.2v0.1H293.2z M291.9,45.1c0.2,0,0.5-0.1,0.7-0.2c0.2-0.1,0.4-0.3,0.5-0.5V43h-0.6
				c-0.5,0-0.8,0.1-1.1,0.3c-0.3,0.2-0.4,0.5-0.4,0.8c0,0.3,0.1,0.6,0.2,0.7C291.3,45,291.6,45.1,291.9,45.1z"/>
			<path class="st1" d="M296.8,38.5v1.4h0.9v0.8h-0.9v3.7c0,0.2,0,0.4,0.1,0.5c0.1,0.1,0.2,0.2,0.4,0.2c0.1,0,0.3,0,0.4-0.1l0,0.8
				c-0.2,0.1-0.4,0.1-0.7,0.1c-0.4,0-0.7-0.1-0.9-0.4c-0.2-0.3-0.3-0.7-0.3-1.2v-3.7h-0.9v-0.8h0.9v-1.4H296.8z"/>
			<path class="st1" d="M300,38.4c0,0.2,0,0.3-0.1,0.4c-0.1,0.1-0.2,0.2-0.4,0.2c-0.2,0-0.3-0.1-0.4-0.2c-0.1-0.1-0.1-0.2-0.1-0.4
				s0-0.3,0.1-0.4c0.1-0.1,0.2-0.2,0.4-0.2s0.3,0.1,0.4,0.2C299.9,38.1,300,38.2,300,38.4z M299.9,45.9h-1v-6h1V45.9z"/>
			<path class="st1" d="M302.4,39.9l0,0.6c0.4-0.5,0.9-0.8,1.4-0.8c1.1,0,1.6,0.7,1.6,2.1v4h-1V42c0-0.5-0.1-0.8-0.2-1
				s-0.4-0.3-0.7-0.3c-0.2,0-0.5,0.1-0.7,0.2s-0.3,0.4-0.5,0.6v4.3h-1v-6H302.4z"/>
			<path class="st1" d="M306.7,42.6c0-0.9,0.2-1.6,0.6-2.1s1-0.8,1.7-0.8c0.7,0,1.2,0.2,1.7,0.7c0.4,0.5,0.6,1.2,0.6,2v0.6
				c0,0.9-0.2,1.5-0.6,2c-0.4,0.5-1,0.8-1.7,0.8c-0.7,0-1.2-0.2-1.7-0.7s-0.6-1.1-0.6-2V42.6z M307.7,43.2c0,0.6,0.1,1.1,0.4,1.4
				s0.6,0.5,1,0.5c0.9,0,1.3-0.6,1.3-1.9v-0.7c0-0.6-0.1-1.1-0.4-1.4c-0.2-0.4-0.6-0.5-1-0.5c-0.4,0-0.7,0.2-1,0.5
				c-0.2,0.4-0.4,0.8-0.4,1.4V43.2z"/>
			<path class="st1" d="M315.6,45.9c-0.1-0.1-0.1-0.3-0.1-0.6c-0.3,0.5-0.8,0.8-1.3,0.8c-0.5,0-1-0.2-1.3-0.5s-0.5-0.7-0.5-1.3
				c0-0.6,0.2-1.1,0.6-1.4c0.4-0.4,1-0.5,1.7-0.5h0.7v-0.6c0-0.4-0.1-0.6-0.2-0.8c-0.2-0.2-0.4-0.2-0.7-0.2c-0.3,0-0.5,0.1-0.7,0.3
				c-0.2,0.2-0.3,0.4-0.3,0.7h-1c0-0.3,0.1-0.6,0.3-0.9c0.2-0.3,0.4-0.5,0.7-0.7c0.3-0.2,0.6-0.2,1-0.2c0.6,0,1.1,0.2,1.4,0.5
				c0.3,0.3,0.5,0.7,0.5,1.3v3c0,0.5,0.1,0.9,0.2,1.2v0.1H315.6z M314.3,45.1c0.2,0,0.5-0.1,0.7-0.2c0.2-0.1,0.4-0.3,0.5-0.5V43
				h-0.5c-0.5,0-0.8,0.1-1.1,0.3s-0.4,0.5-0.4,0.8c0,0.3,0.1,0.6,0.2,0.7S314,45.1,314.3,45.1z"/>
			<path class="st1" d="M318.9,39.9l0,0.5c0.4-0.4,0.8-0.7,1.4-0.7c0.7,0,1.1,0.3,1.4,0.9c0.4-0.6,0.9-0.9,1.6-0.9
				c1.1,0,1.7,0.7,1.7,2.1v4h-1V42c0-0.4-0.1-0.8-0.2-1s-0.4-0.3-0.8-0.3c-0.3,0-0.5,0.1-0.7,0.3c-0.2,0.2-0.3,0.5-0.3,0.9v4h-1v-4
				c0-0.8-0.3-1.2-1-1.2c-0.5,0-0.8,0.2-1,0.7v4.5h-1v-6H318.9z"/>
			<path class="st1" d="M328.6,46c-0.7,0-1.3-0.2-1.7-0.7c-0.4-0.4-0.6-1.1-0.6-1.9v-0.7c0-0.9,0.2-1.6,0.6-2.1
				c0.4-0.5,0.9-0.8,1.6-0.8c0.7,0,1.2,0.2,1.6,0.7c0.3,0.4,0.5,1.1,0.5,2.1v0.6h-3.3v0.1c0,0.6,0.1,1.1,0.4,1.4s0.6,0.4,1,0.4
				c0.3,0,0.5-0.1,0.8-0.2s0.4-0.3,0.6-0.5l0.5,0.6C330.1,45.7,329.4,46,328.6,46z M328.5,40.7c-0.4,0-0.7,0.1-0.9,0.4
				c-0.2,0.3-0.3,0.7-0.3,1.3h2.3v-0.1c0-0.6-0.1-1-0.3-1.2S328.8,40.7,328.5,40.7z"/>
			<path class="st1" d="M334.2,40.8c-0.1,0-0.3,0-0.4,0c-0.5,0-0.8,0.3-1,0.8v4.3h-1v-6h0.9l0,0.6c0.3-0.5,0.6-0.7,1.1-0.7
				c0.2,0,0.3,0,0.4,0.1L334.2,40.8z"/>
			<path class="st1" d="M336.3,38.4c0,0.2,0,0.3-0.1,0.4c-0.1,0.1-0.2,0.2-0.4,0.2c-0.2,0-0.3-0.1-0.4-0.2c-0.1-0.1-0.1-0.2-0.1-0.4
				s0-0.3,0.1-0.4c0.1-0.1,0.2-0.2,0.4-0.2s0.3,0.1,0.4,0.2C336.2,38.1,336.3,38.2,336.3,38.4z M336.2,45.9h-1v-6h1V45.9z"/>
			<path class="st1" d="M339.8,45.2c0.3,0,0.6-0.1,0.8-0.3c0.2-0.2,0.3-0.5,0.3-0.9h0.9c0,0.6-0.2,1-0.6,1.4
				c-0.4,0.4-0.9,0.6-1.4,0.6c-0.7,0-1.3-0.2-1.7-0.7c-0.4-0.5-0.6-1.2-0.6-2.1v-0.7c0-0.9,0.2-1.6,0.6-2.1c0.4-0.5,0.9-0.7,1.7-0.7
				c0.6,0,1.1,0.2,1.5,0.6c0.4,0.4,0.5,0.9,0.6,1.6h-0.9c0-0.4-0.1-0.8-0.3-1c-0.2-0.2-0.5-0.3-0.8-0.3c-0.4,0-0.8,0.1-1,0.4
				c-0.2,0.3-0.3,0.8-0.3,1.4v0.8c0,0.7,0.1,1.2,0.3,1.5C339,45,339.3,45.2,339.8,45.2z"/>
			<path class="st1" d="M346,45.9c-0.1-0.1-0.1-0.3-0.1-0.6c-0.3,0.5-0.8,0.8-1.3,0.8c-0.5,0-1-0.2-1.3-0.5s-0.5-0.7-0.5-1.3
				c0-0.6,0.2-1.1,0.6-1.4c0.4-0.4,1-0.5,1.7-0.5h0.7v-0.6c0-0.4-0.1-0.6-0.2-0.8c-0.2-0.2-0.4-0.2-0.7-0.2c-0.3,0-0.5,0.1-0.7,0.3
				c-0.2,0.2-0.3,0.4-0.3,0.7h-1c0-0.3,0.1-0.6,0.3-0.9c0.2-0.3,0.4-0.5,0.7-0.7c0.3-0.2,0.6-0.2,1-0.2c0.6,0,1.1,0.2,1.4,0.5
				s0.5,0.7,0.5,1.3v3c0,0.5,0.1,0.9,0.2,1.2v0.1H346z M344.7,45.1c0.2,0,0.5-0.1,0.7-0.2c0.2-0.1,0.4-0.3,0.5-0.5V43h-0.6
				c-0.5,0-0.8,0.1-1.1,0.3c-0.3,0.2-0.4,0.5-0.4,0.8c0,0.3,0.1,0.6,0.2,0.7C344.1,45,344.4,45.1,344.7,45.1z"/>
			<path class="st1" d="M349.2,39.9l0,0.6c0.4-0.5,0.9-0.8,1.4-0.8c1.1,0,1.6,0.7,1.6,2.1v4h-1V42c0-0.5-0.1-0.8-0.2-1
				c-0.2-0.2-0.4-0.3-0.7-0.3c-0.2,0-0.5,0.1-0.7,0.2s-0.3,0.4-0.5,0.6v4.3h-1v-6H349.2z"/>
			<path class="st1" d="M356.9,45.9c-0.1-0.1-0.1-0.3-0.1-0.6c-0.3,0.5-0.8,0.8-1.3,0.8c-0.5,0-1-0.2-1.3-0.5s-0.5-0.7-0.5-1.3
				c0-0.6,0.2-1.1,0.6-1.4c0.4-0.4,1-0.5,1.7-0.5h0.7v-0.6c0-0.4-0.1-0.6-0.2-0.8s-0.4-0.2-0.7-0.2c-0.3,0-0.5,0.1-0.7,0.3
				c-0.2,0.2-0.3,0.4-0.3,0.7h-1c0-0.3,0.1-0.6,0.3-0.9c0.2-0.3,0.4-0.5,0.7-0.7c0.3-0.2,0.6-0.2,1-0.2c0.6,0,1.1,0.2,1.4,0.5
				c0.3,0.3,0.5,0.7,0.5,1.3v3c0,0.5,0.1,0.9,0.2,1.2v0.1H356.9z M355.6,45.1c0.2,0,0.5-0.1,0.7-0.2c0.2-0.1,0.4-0.3,0.5-0.5V43
				h-0.5c-0.5,0-0.8,0.1-1.1,0.3c-0.3,0.2-0.4,0.5-0.4,0.8c0,0.3,0.1,0.6,0.2,0.7S355.2,45.1,355.6,45.1z"/>
			<path class="st1" d="M361.6,42.6c0-0.9,0.2-1.6,0.5-2.1c0.3-0.5,0.8-0.7,1.5-0.7c0.6,0,1,0.2,1.3,0.7v-3.1h1v8.5H365l0-0.6
				c-0.3,0.5-0.8,0.7-1.4,0.7c-0.6,0-1.1-0.2-1.5-0.7c-0.4-0.5-0.5-1.2-0.5-2V42.6z M362.5,43.2c0,0.7,0.1,1.2,0.3,1.5
				c0.2,0.3,0.5,0.5,1,0.5c0.5,0,0.8-0.2,1.1-0.7v-3c-0.2-0.5-0.6-0.7-1.1-0.7c-0.4,0-0.8,0.2-1,0.5s-0.3,0.8-0.3,1.4V43.2z"/>
			<path class="st1" d="M369.5,46c-0.7,0-1.3-0.2-1.7-0.7c-0.4-0.4-0.6-1.1-0.6-1.9v-0.7c0-0.9,0.2-1.6,0.6-2.1
				c0.4-0.5,0.9-0.8,1.6-0.8c0.7,0,1.2,0.2,1.6,0.7c0.3,0.4,0.5,1.1,0.5,2.1v0.6h-3.3v0.1c0,0.6,0.1,1.1,0.4,1.4
				c0.2,0.3,0.6,0.4,1,0.4c0.3,0,0.5-0.1,0.8-0.2c0.2-0.1,0.4-0.3,0.6-0.5l0.5,0.6C371,45.7,370.4,46,369.5,46z M369.4,40.7
				c-0.4,0-0.7,0.1-0.9,0.4c-0.2,0.3-0.3,0.7-0.3,1.3h2.3v-0.1c0-0.6-0.1-1-0.3-1.2S369.7,40.7,369.4,40.7z"/>
		</g>
		<g>
			<path class="st1" d="M289.9,54.8c0,0.9-0.3,1.5-0.7,2c-0.4,0.5-1.1,0.7-1.9,0.7c-0.8,0-1.4-0.3-1.9-0.9c-0.5-0.6-0.7-1.4-0.7-2.5
				v-1.5c0-1,0.2-1.9,0.7-2.5s1.1-0.9,2-0.9c0.8,0,1.4,0.2,1.8,0.7s0.7,1.1,0.7,2h-1c0-0.7-0.2-1.1-0.4-1.4
				c-0.2-0.3-0.6-0.4-1.1-0.4c-0.5,0-1,0.2-1.3,0.6c-0.3,0.4-0.4,1.1-0.4,1.9v1.5c0,0.8,0.1,1.4,0.4,1.9c0.3,0.4,0.7,0.6,1.2,0.6
				c0.5,0,0.9-0.1,1.1-0.4c0.2-0.3,0.4-0.7,0.4-1.4H289.9z"/>
			<path class="st1" d="M292.3,49.8c0,0.2,0,0.3-0.1,0.4c-0.1,0.1-0.2,0.2-0.4,0.2c-0.2,0-0.3-0.1-0.4-0.2c-0.1-0.1-0.1-0.2-0.1-0.4
				s0-0.3,0.1-0.4c0.1-0.1,0.2-0.2,0.4-0.2s0.3,0.1,0.4,0.2C292.2,49.5,292.3,49.7,292.3,49.8z M292.2,57.4h-1v-6h1V57.4z"/>
			<path class="st1" d="M295.9,57.5c-0.7,0-1.3-0.2-1.7-0.7c-0.4-0.4-0.6-1.1-0.6-1.9v-0.7c0-0.9,0.2-1.6,0.6-2.1s0.9-0.8,1.6-0.8
				c0.7,0,1.2,0.2,1.6,0.7s0.5,1.1,0.5,2.1v0.6h-3.3v0.1c0,0.6,0.1,1.1,0.4,1.4s0.6,0.4,1,0.4c0.3,0,0.5-0.1,0.8-0.2
				c0.2-0.1,0.4-0.3,0.6-0.5l0.5,0.6C297.4,57.2,296.7,57.5,295.9,57.5z M295.8,52.1c-0.4,0-0.7,0.1-0.9,0.4
				c-0.2,0.3-0.3,0.7-0.3,1.3h2.3v-0.1c0-0.6-0.1-1-0.3-1.2C296.4,52.3,296.1,52.1,295.8,52.1z"/>
			<path class="st1" d="M299.9,51.4l0,0.6c0.4-0.5,0.9-0.8,1.4-0.8c1.1,0,1.6,0.7,1.6,2.1v4h-1v-3.9c0-0.5-0.1-0.8-0.2-1
				s-0.4-0.3-0.7-0.3c-0.2,0-0.5,0.1-0.7,0.2c-0.2,0.2-0.3,0.4-0.5,0.6v4.3h-1v-6H299.9z"/>
			<path class="st1" d="M306.5,56.6c0.3,0,0.6-0.1,0.8-0.3c0.2-0.2,0.3-0.5,0.3-0.9h0.9c0,0.6-0.2,1-0.6,1.4
				c-0.4,0.4-0.9,0.6-1.4,0.6c-0.7,0-1.3-0.2-1.7-0.7c-0.4-0.5-0.6-1.2-0.6-2.1v-0.7c0-0.9,0.2-1.6,0.6-2.1c0.4-0.5,0.9-0.7,1.7-0.7
				c0.6,0,1.1,0.2,1.5,0.6c0.4,0.4,0.5,0.9,0.6,1.6h-0.9c0-0.4-0.1-0.8-0.3-1c-0.2-0.2-0.5-0.3-0.8-0.3c-0.4,0-0.8,0.1-1,0.4
				c-0.2,0.3-0.3,0.8-0.3,1.4v0.8c0,0.7,0.1,1.2,0.3,1.5S306.1,56.6,306.5,56.6z"/>
			<path class="st1" d="M310.8,49.8c0,0.2,0,0.3-0.1,0.4c-0.1,0.1-0.2,0.2-0.4,0.2c-0.2,0-0.3-0.1-0.4-0.2c-0.1-0.1-0.1-0.2-0.1-0.4
				s0-0.3,0.1-0.4c0.1-0.1,0.2-0.2,0.4-0.2s0.3,0.1,0.4,0.2C310.8,49.5,310.8,49.7,310.8,49.8z M310.7,57.4h-1v-6h1V57.4z"/>
			<path class="st1" d="M315.3,57.4c-0.1-0.1-0.1-0.3-0.1-0.6c-0.3,0.5-0.8,0.8-1.3,0.8c-0.5,0-1-0.2-1.3-0.5s-0.5-0.7-0.5-1.3
				c0-0.6,0.2-1.1,0.6-1.4c0.4-0.4,1-0.5,1.7-0.5h0.7v-0.6c0-0.4-0.1-0.6-0.2-0.8s-0.4-0.2-0.7-0.2c-0.3,0-0.5,0.1-0.7,0.3
				c-0.2,0.2-0.3,0.4-0.3,0.7h-1c0-0.3,0.1-0.6,0.3-0.9c0.2-0.3,0.4-0.5,0.7-0.7c0.3-0.2,0.6-0.2,1-0.2c0.6,0,1.1,0.2,1.4,0.5
				c0.3,0.3,0.5,0.7,0.5,1.3v3c0,0.5,0.1,0.9,0.2,1.2v0.1H315.3z M314,56.6c0.2,0,0.5-0.1,0.7-0.2c0.2-0.1,0.4-0.3,0.5-0.5v-1.4
				h-0.5c-0.5,0-0.8,0.1-1.1,0.3c-0.3,0.2-0.4,0.5-0.4,0.8c0,0.3,0.1,0.6,0.2,0.7S313.7,56.6,314,56.6z"/>
			<path class="st1" d="M320.6,55.8c0-0.2-0.1-0.4-0.2-0.5c-0.2-0.2-0.5-0.3-0.9-0.5c-0.5-0.2-0.9-0.4-1.1-0.6
				c-0.2-0.2-0.4-0.3-0.5-0.5s-0.2-0.4-0.2-0.7c0-0.5,0.2-0.9,0.5-1.2c0.4-0.3,0.8-0.5,1.4-0.5c0.6,0,1,0.2,1.4,0.5
				c0.4,0.3,0.5,0.8,0.5,1.3h-1c0-0.3-0.1-0.5-0.3-0.7c-0.2-0.2-0.4-0.3-0.7-0.3c-0.3,0-0.5,0.1-0.7,0.2c-0.2,0.1-0.2,0.3-0.2,0.6
				c0,0.2,0.1,0.4,0.2,0.5c0.1,0.1,0.4,0.3,0.9,0.5c0.7,0.3,1.2,0.6,1.5,0.8c0.3,0.3,0.4,0.6,0.4,1c0,0.5-0.2,0.9-0.5,1.2
				s-0.8,0.5-1.4,0.5c-0.6,0-1.1-0.2-1.5-0.5s-0.6-0.8-0.6-1.4h1c0,0.3,0.1,0.6,0.3,0.8c0.2,0.2,0.5,0.3,0.8,0.3
				c0.3,0,0.6-0.1,0.7-0.2C320.5,56.3,320.6,56.1,320.6,55.8z"/>
			<path class="st1" d="M329,55.3c0-0.4-0.1-0.7-0.3-0.9c-0.2-0.2-0.6-0.4-1.2-0.6c-0.6-0.2-1-0.4-1.3-0.6c-0.3-0.2-0.5-0.5-0.7-0.8
				s-0.2-0.6-0.2-1c0-0.6,0.2-1.2,0.6-1.6s1-0.6,1.7-0.6c0.5,0,0.9,0.1,1.3,0.3c0.4,0.2,0.6,0.5,0.8,0.9s0.3,0.8,0.3,1.2h-1
				c0-0.5-0.1-0.9-0.4-1.2s-0.6-0.4-1-0.4c-0.4,0-0.7,0.1-0.9,0.3c-0.2,0.2-0.3,0.5-0.3,1c0,0.3,0.1,0.6,0.4,0.8s0.6,0.4,1.1,0.6
				c0.8,0.3,1.4,0.6,1.7,1c0.3,0.4,0.5,0.9,0.5,1.5c0,0.6-0.2,1.2-0.6,1.6c-0.4,0.4-1,0.6-1.7,0.6c-0.5,0-0.9-0.1-1.3-0.3
				c-0.4-0.2-0.7-0.5-0.9-0.9c-0.2-0.4-0.3-0.8-0.3-1.3h1c0,0.5,0.1,0.9,0.4,1.2s0.7,0.4,1.1,0.4c0.4,0,0.8-0.1,1-0.3
				C328.9,56,329,55.7,329,55.3z"/>
			<path class="st1" d="M331,54.1c0-0.9,0.2-1.6,0.6-2.1s1-0.8,1.7-0.8s1.2,0.2,1.7,0.7c0.4,0.5,0.6,1.2,0.6,2v0.6
				c0,0.9-0.2,1.5-0.6,2c-0.4,0.5-1,0.8-1.7,0.8c-0.7,0-1.2-0.2-1.7-0.7c-0.4-0.5-0.6-1.1-0.6-2V54.1z M332,54.7
				c0,0.6,0.1,1.1,0.4,1.4c0.2,0.4,0.6,0.5,1,0.5c0.9,0,1.3-0.6,1.3-1.9v-0.7c0-0.6-0.1-1.1-0.4-1.4c-0.2-0.4-0.6-0.5-1-0.5
				c-0.4,0-0.7,0.2-1,0.5c-0.2,0.4-0.4,0.8-0.4,1.4V54.7z"/>
			<path class="st1" d="M338.9,56.6c0.3,0,0.6-0.1,0.8-0.3c0.2-0.2,0.3-0.5,0.3-0.9h0.9c0,0.6-0.2,1-0.6,1.4
				c-0.4,0.4-0.9,0.6-1.4,0.6c-0.7,0-1.3-0.2-1.7-0.7c-0.4-0.5-0.6-1.2-0.6-2.1v-0.7c0-0.9,0.2-1.6,0.6-2.1s0.9-0.7,1.7-0.7
				c0.6,0,1.1,0.2,1.5,0.6c0.4,0.4,0.5,0.9,0.6,1.6H340c0-0.4-0.1-0.8-0.3-1c-0.2-0.2-0.5-0.3-0.8-0.3c-0.4,0-0.8,0.1-1,0.4
				c-0.2,0.3-0.3,0.8-0.3,1.4v0.8c0,0.7,0.1,1.2,0.3,1.5C338.2,56.5,338.5,56.6,338.9,56.6z"/>
			<path class="st1" d="M343.2,49.8c0,0.2,0,0.3-0.1,0.4c-0.1,0.1-0.2,0.2-0.4,0.2c-0.2,0-0.3-0.1-0.4-0.2c-0.1-0.1-0.1-0.2-0.1-0.4
				s0-0.3,0.1-0.4c0.1-0.1,0.2-0.2,0.4-0.2c0.2,0,0.3,0.1,0.4,0.2C343.2,49.5,343.2,49.7,343.2,49.8z M343.1,57.4h-1v-6h1V57.4z"/>
			<path class="st1" d="M347.7,57.4c-0.1-0.1-0.1-0.3-0.1-0.6c-0.3,0.5-0.8,0.8-1.3,0.8c-0.5,0-1-0.2-1.3-0.5s-0.5-0.7-0.5-1.3
				c0-0.6,0.2-1.1,0.6-1.4c0.4-0.4,1-0.5,1.7-0.5h0.7v-0.6c0-0.4-0.1-0.6-0.2-0.8c-0.2-0.2-0.4-0.2-0.7-0.2c-0.3,0-0.5,0.1-0.7,0.3
				c-0.2,0.2-0.3,0.4-0.3,0.7h-1c0-0.3,0.1-0.6,0.3-0.9c0.2-0.3,0.4-0.5,0.7-0.7c0.3-0.2,0.6-0.2,1-0.2c0.6,0,1.1,0.2,1.4,0.5
				c0.3,0.3,0.5,0.7,0.5,1.3v3c0,0.5,0.1,0.9,0.2,1.2v0.1H347.7z M346.4,56.6c0.2,0,0.5-0.1,0.7-0.2c0.2-0.1,0.4-0.3,0.5-0.5v-1.4
				H347c-0.5,0-0.8,0.1-1.1,0.3s-0.4,0.5-0.4,0.8c0,0.3,0.1,0.6,0.2,0.7S346.1,56.6,346.4,56.6z"/>
			<path class="st1" d="M351.1,57.4h-1v-8.5h1V57.4z"/>
			<path class="st1" d="M354.8,57.5c-0.7,0-1.3-0.2-1.7-0.7c-0.4-0.4-0.6-1.1-0.6-1.9v-0.7c0-0.9,0.2-1.6,0.6-2.1
				c0.4-0.5,0.9-0.8,1.6-0.8c0.7,0,1.2,0.2,1.6,0.7c0.3,0.4,0.5,1.1,0.5,2.1v0.6h-3.3v0.1c0,0.6,0.1,1.1,0.4,1.4s0.6,0.4,1,0.4
				c0.3,0,0.5-0.1,0.8-0.2c0.2-0.1,0.4-0.3,0.6-0.5l0.5,0.6C356.3,57.2,355.6,57.5,354.8,57.5z M354.7,52.1c-0.4,0-0.7,0.1-0.9,0.4
				c-0.2,0.3-0.3,0.7-0.3,1.3h2.3v-0.1c0-0.6-0.1-1-0.3-1.2S355,52.1,354.7,52.1z"/>
			<path class="st1" d="M360.8,55.8c0-0.2-0.1-0.4-0.2-0.5c-0.2-0.2-0.5-0.3-0.9-0.5c-0.5-0.2-0.9-0.4-1.1-0.6
				c-0.2-0.2-0.4-0.3-0.5-0.5s-0.2-0.4-0.2-0.7c0-0.5,0.2-0.9,0.5-1.2c0.4-0.3,0.8-0.5,1.4-0.5c0.6,0,1,0.2,1.4,0.5
				c0.4,0.3,0.5,0.8,0.5,1.3h-1c0-0.3-0.1-0.5-0.3-0.7c-0.2-0.2-0.4-0.3-0.7-0.3c-0.3,0-0.5,0.1-0.7,0.2c-0.2,0.1-0.2,0.3-0.2,0.6
				c0,0.2,0.1,0.4,0.2,0.5c0.1,0.1,0.4,0.3,0.9,0.5c0.7,0.3,1.2,0.6,1.5,0.8c0.3,0.3,0.4,0.6,0.4,1c0,0.5-0.2,0.9-0.5,1.2
				c-0.4,0.3-0.8,0.5-1.4,0.5c-0.6,0-1.1-0.2-1.5-0.5c-0.4-0.4-0.6-0.8-0.6-1.4h1c0,0.3,0.1,0.6,0.3,0.8s0.5,0.3,0.8,0.3
				c0.3,0,0.6-0.1,0.7-0.2C360.7,56.3,360.8,56.1,360.8,55.8z"/>
			<path class="st1" d="M363.1,56.8c0-0.2,0.1-0.3,0.2-0.4c0.1-0.1,0.3-0.2,0.5-0.2c0.2,0,0.4,0.1,0.5,0.2c0.1,0.1,0.2,0.3,0.2,0.4
				c0,0.2-0.1,0.3-0.2,0.4c-0.1,0.1-0.3,0.2-0.5,0.2c-0.2,0-0.4-0.1-0.5-0.2C363.2,57.1,363.1,57,363.1,56.8z"/>
		</g>
		<g>
			<path class="st1" d="M288.4,66.8c0-0.4-0.1-0.7-0.3-0.9c-0.2-0.2-0.6-0.4-1.2-0.6c-0.6-0.2-1-0.4-1.3-0.6
				c-0.3-0.2-0.5-0.5-0.7-0.8s-0.2-0.6-0.2-1c0-0.6,0.2-1.2,0.6-1.6s1-0.6,1.7-0.6c0.5,0,0.9,0.1,1.3,0.3c0.4,0.2,0.6,0.5,0.8,0.9
				s0.3,0.8,0.3,1.2h-1c0-0.5-0.1-0.9-0.4-1.2s-0.6-0.4-1-0.4c-0.4,0-0.7,0.1-0.9,0.3c-0.2,0.2-0.3,0.5-0.3,1c0,0.3,0.1,0.6,0.4,0.8
				s0.6,0.4,1.1,0.6c0.8,0.3,1.4,0.6,1.7,1c0.3,0.4,0.5,0.9,0.5,1.5c0,0.6-0.2,1.2-0.6,1.6c-0.4,0.4-1,0.6-1.7,0.6
				c-0.5,0-0.9-0.1-1.3-0.3c-0.4-0.2-0.7-0.5-0.9-0.9c-0.2-0.4-0.3-0.8-0.3-1.3h1c0,0.5,0.1,0.9,0.4,1.2s0.7,0.4,1.1,0.4
				c0.4,0,0.8-0.1,1-0.3C288.3,67.5,288.4,67.2,288.4,66.8z"/>
			<path class="st1" d="M292.7,69c-0.7,0-1.3-0.2-1.7-0.7c-0.4-0.4-0.6-1.1-0.6-1.9v-0.7c0-0.9,0.2-1.6,0.6-2.1
				c0.4-0.5,0.9-0.8,1.6-0.8c0.7,0,1.2,0.2,1.6,0.7s0.5,1.1,0.5,2.1v0.6h-3.3v0.1c0,0.6,0.1,1.1,0.4,1.4s0.6,0.4,1,0.4
				c0.3,0,0.5-0.1,0.8-0.2s0.4-0.3,0.6-0.5l0.5,0.6C294.2,68.7,293.6,69,292.7,69z M292.6,63.6c-0.4,0-0.7,0.1-0.9,0.4
				c-0.2,0.3-0.3,0.7-0.3,1.3h2.3v-0.1c0-0.6-0.1-1-0.3-1.2C293.3,63.7,293,63.6,292.6,63.6z"/>
			<path class="st1" d="M295.7,65.6c0-0.9,0.2-1.6,0.5-2.1c0.3-0.5,0.8-0.7,1.5-0.7c0.6,0,1,0.2,1.3,0.7v-3.1h1v8.5h-0.9l0-0.6
				c-0.3,0.5-0.8,0.7-1.4,0.7c-0.6,0-1.1-0.2-1.5-0.7c-0.4-0.5-0.5-1.2-0.5-2V65.6z M296.7,66.1c0,0.7,0.1,1.2,0.3,1.5
				c0.2,0.3,0.5,0.5,1,0.5c0.5,0,0.8-0.2,1.1-0.7v-3c-0.2-0.5-0.6-0.7-1.1-0.7c-0.4,0-0.8,0.2-1,0.5s-0.3,0.8-0.3,1.4V66.1z"/>
			<path class="st1" d="M303.6,69c-0.7,0-1.3-0.2-1.7-0.7c-0.4-0.4-0.6-1.1-0.6-1.9v-0.7c0-0.9,0.2-1.6,0.6-2.1
				c0.4-0.5,0.9-0.8,1.6-0.8c0.7,0,1.2,0.2,1.6,0.7c0.3,0.4,0.5,1.1,0.5,2.1v0.6h-3.3v0.1c0,0.6,0.1,1.1,0.4,1.4
				c0.2,0.3,0.6,0.4,1,0.4c0.3,0,0.5-0.1,0.8-0.2c0.2-0.1,0.4-0.3,0.6-0.5l0.5,0.6C305.1,68.7,304.5,69,303.6,69z M303.5,63.6
				c-0.4,0-0.7,0.1-0.9,0.4c-0.2,0.3-0.3,0.7-0.3,1.3h2.3v-0.1c0-0.6-0.1-1-0.3-1.2S303.9,63.6,303.5,63.6z"/>
			<path class="st1" d="M313.2,66.7h-2.7l-0.6,2.1h-1l2.6-8h0.9l2.6,8h-1L313.2,66.7z M310.8,65.9h2.2l-1.1-3.6L310.8,65.9z"/>
			<path class="st1" d="M318.3,63.8c-0.1,0-0.3,0-0.4,0c-0.5,0-0.8,0.3-1,0.8v4.3h-1v-6h0.9l0,0.6c0.3-0.5,0.6-0.7,1.1-0.7
				c0.2,0,0.3,0,0.4,0.1L318.3,63.8z"/>
			<path class="st1" d="M319,65.6c0-0.9,0.2-1.6,0.5-2.1c0.3-0.5,0.8-0.7,1.5-0.7c0.6,0,1.1,0.3,1.4,0.8l0-0.7h0.9v6
				c0,0.7-0.2,1.3-0.6,1.7s-0.9,0.6-1.6,0.6c-0.3,0-0.6-0.1-1-0.2c-0.4-0.1-0.6-0.3-0.8-0.5l0.4-0.7c0.4,0.4,0.8,0.6,1.3,0.6
				c0.8,0,1.2-0.4,1.2-1.3v-0.8c-0.3,0.5-0.8,0.7-1.3,0.7c-0.6,0-1.1-0.2-1.4-0.7c-0.3-0.5-0.5-1.1-0.5-2V65.6z M319.9,66.1
				c0,0.7,0.1,1.2,0.3,1.5c0.2,0.3,0.5,0.5,1,0.5c0.5,0,0.8-0.2,1.1-0.7v-3c-0.3-0.5-0.6-0.7-1.1-0.7c-0.4,0-0.8,0.2-1,0.5
				s-0.3,0.8-0.3,1.4V66.1z"/>
			<path class="st1" d="M326.8,69c-0.7,0-1.3-0.2-1.7-0.7c-0.4-0.4-0.6-1.1-0.6-1.9v-0.7c0-0.9,0.2-1.6,0.6-2.1
				c0.4-0.5,0.9-0.8,1.6-0.8c0.7,0,1.2,0.2,1.6,0.7s0.5,1.1,0.5,2.1v0.6h-3.3v0.1c0,0.6,0.1,1.1,0.4,1.4s0.6,0.4,1,0.4
				c0.3,0,0.5-0.1,0.8-0.2s0.4-0.3,0.6-0.5l0.5,0.6C328.4,68.7,327.7,69,326.8,69z M326.7,63.6c-0.4,0-0.7,0.1-0.9,0.4
				c-0.2,0.3-0.3,0.7-0.3,1.3h2.3v-0.1c0-0.6-0.1-1-0.3-1.2C327.4,63.7,327.1,63.6,326.7,63.6z"/>
			<path class="st1" d="M330.9,62.9l0,0.6c0.4-0.5,0.9-0.8,1.4-0.8c1.1,0,1.6,0.7,1.6,2.1v4h-1v-3.9c0-0.5-0.1-0.8-0.2-1
				s-0.4-0.3-0.7-0.3c-0.2,0-0.5,0.1-0.7,0.2s-0.3,0.4-0.5,0.6v4.3h-1v-6H330.9z"/>
			<path class="st1" d="M336.7,61.4v1.4h0.9v0.8h-0.9v3.7c0,0.2,0,0.4,0.1,0.5c0.1,0.1,0.2,0.2,0.4,0.2c0.1,0,0.3,0,0.4-0.1l0,0.8
				c-0.2,0.1-0.4,0.1-0.7,0.1c-0.4,0-0.7-0.1-0.9-0.4s-0.3-0.7-0.3-1.2v-3.7h-0.9v-0.8h0.9v-1.4H336.7z"/>
			<path class="st1" d="M339.9,61.3c0,0.2,0,0.3-0.1,0.4c-0.1,0.1-0.2,0.2-0.4,0.2c-0.2,0-0.3-0.1-0.4-0.2c-0.1-0.1-0.1-0.2-0.1-0.4
				s0-0.3,0.1-0.4c0.1-0.1,0.2-0.2,0.4-0.2s0.3,0.1,0.4,0.2C339.9,61,339.9,61.1,339.9,61.3z M339.8,68.8h-1v-6h1V68.8z"/>
			<path class="st1" d="M342.3,62.9l0,0.6c0.4-0.5,0.9-0.8,1.4-0.8c1.1,0,1.6,0.7,1.6,2.1v4h-1v-3.9c0-0.5-0.1-0.8-0.2-1
				s-0.4-0.3-0.7-0.3c-0.2,0-0.5,0.1-0.7,0.2c-0.2,0.2-0.3,0.4-0.5,0.6v4.3h-1v-6H342.3z"/>
			<path class="st1" d="M349.9,68.8c-0.1-0.1-0.1-0.3-0.1-0.6c-0.3,0.5-0.8,0.8-1.3,0.8c-0.5,0-1-0.2-1.3-0.5s-0.5-0.7-0.5-1.3
				c0-0.6,0.2-1.1,0.6-1.4c0.4-0.4,1-0.5,1.7-0.5h0.7v-0.6c0-0.4-0.1-0.6-0.2-0.8c-0.2-0.2-0.4-0.2-0.7-0.2c-0.3,0-0.5,0.1-0.7,0.3
				c-0.2,0.2-0.3,0.4-0.3,0.7h-1c0-0.3,0.1-0.6,0.3-0.9c0.2-0.3,0.4-0.5,0.7-0.7c0.3-0.2,0.6-0.2,1-0.2c0.6,0,1.1,0.2,1.4,0.5
				s0.5,0.7,0.5,1.3v3c0,0.5,0.1,0.9,0.2,1.2v0.1H349.9z M348.6,68.1c0.2,0,0.5-0.1,0.7-0.2c0.2-0.1,0.4-0.3,0.5-0.5V66h-0.5
				c-0.5,0-0.8,0.1-1.1,0.3c-0.3,0.2-0.4,0.5-0.4,0.8c0,0.3,0.1,0.6,0.2,0.7S348.3,68.1,348.6,68.1z"/>
			<path class="st1" d="M352.3,68.3c0-0.2,0.1-0.3,0.2-0.4c0.1-0.1,0.3-0.2,0.5-0.2s0.4,0.1,0.5,0.2c0.1,0.1,0.2,0.3,0.2,0.4
				c0,0.2-0.1,0.3-0.2,0.4c-0.1,0.1-0.3,0.2-0.5,0.2s-0.4-0.1-0.5-0.2C352.3,68.6,352.3,68.5,352.3,68.3z"/>
		</g>
		<g>
			<path class="st1" d="M286.3,89.6v2.9h-1.6v-8.1h2.8c0.8,0,1.4,0.2,1.9,0.7c0.5,0.5,0.7,1.1,0.7,1.9c0,0.8-0.2,1.4-0.7,1.9
				c-0.5,0.5-1.1,0.7-2,0.7H286.3z M286.3,88.3h1.1c0.3,0,0.6-0.1,0.7-0.3c0.2-0.2,0.3-0.5,0.3-0.9c0-0.4-0.1-0.7-0.3-1
				s-0.4-0.4-0.7-0.4h-1.1V88.3z"/>
			<path class="st1" d="M294.1,88l-0.5,0c-0.4,0-0.7,0.2-0.9,0.6v4h-1.6v-6h1.5l0,0.7c0.2-0.5,0.6-0.8,1-0.8c0.2,0,0.3,0,0.4,0.1
				L294.1,88z"/>
			<path class="st1" d="M294.7,89.3c0-0.9,0.2-1.6,0.6-2.1c0.4-0.5,1-0.8,1.8-0.8c0.8,0,1.4,0.3,1.8,0.8c0.4,0.5,0.6,1.2,0.6,2.2
				v0.4c0,0.9-0.2,1.6-0.6,2.1c-0.4,0.5-1,0.8-1.8,0.8c-0.8,0-1.4-0.3-1.8-0.8c-0.4-0.5-0.6-1.2-0.6-2.2V89.3z M296.3,89.7
				c0,1.1,0.3,1.6,0.9,1.6c0.5,0,0.8-0.4,0.9-1.3l0-0.7c0-0.5-0.1-1-0.2-1.2s-0.4-0.4-0.6-0.4c-0.3,0-0.5,0.1-0.6,0.4
				s-0.2,0.7-0.2,1.2V89.7z"/>
			<path class="st1" d="M300.4,89.3c0-1,0.2-1.7,0.5-2.2s0.9-0.7,1.5-0.7c0.5,0,1,0.2,1.3,0.6l0.1-0.5h1.4v6c0,0.8-0.2,1.4-0.6,1.8
				c-0.4,0.4-1,0.6-1.9,0.6c-0.3,0-0.7-0.1-1-0.2c-0.4-0.1-0.6-0.3-0.8-0.5l0.5-1.1c0.1,0.2,0.3,0.3,0.6,0.4
				c0.2,0.1,0.5,0.1,0.7,0.1c0.4,0,0.6-0.1,0.8-0.3c0.2-0.2,0.2-0.4,0.2-0.8V92c-0.3,0.4-0.7,0.6-1.2,0.6c-0.6,0-1.1-0.2-1.5-0.7
				s-0.5-1.2-0.5-2.1V89.3z M301.9,89.7c0,0.6,0.1,1,0.2,1.2c0.1,0.3,0.4,0.4,0.7,0.4c0.3,0,0.6-0.1,0.7-0.4v-2.9
				c-0.2-0.3-0.4-0.4-0.7-0.4c-0.3,0-0.5,0.1-0.7,0.4s-0.2,0.7-0.2,1.2V89.7z"/>
			<path class="st1" d="M309.3,88l-0.5,0c-0.4,0-0.7,0.2-0.9,0.6v4h-1.6v-6h1.5l0,0.7c0.2-0.5,0.6-0.8,1-0.8c0.2,0,0.3,0,0.4,0.1
				L309.3,88z"/>
			<path class="st1" d="M312.9,92.5c0-0.1-0.1-0.2-0.1-0.5c-0.3,0.4-0.7,0.6-1.1,0.6c-0.5,0-0.9-0.2-1.3-0.5
				c-0.3-0.3-0.5-0.8-0.5-1.3c0-0.6,0.2-1.1,0.6-1.5c0.4-0.3,1-0.5,1.7-0.5h0.5v-0.5c0-0.3,0-0.5-0.1-0.6s-0.2-0.2-0.4-0.2
				c-0.4,0-0.6,0.2-0.6,0.7H310c0-0.6,0.2-1,0.6-1.4c0.4-0.4,0.9-0.5,1.6-0.5c0.7,0,1.2,0.2,1.5,0.5c0.4,0.3,0.5,0.8,0.5,1.5v2.8
				c0,0.5,0.1,0.9,0.2,1.2v0.1H312.9z M312,91.4c0.2,0,0.3,0,0.4-0.1c0.1-0.1,0.2-0.2,0.3-0.3v-1.3h-0.4c-0.3,0-0.5,0.1-0.6,0.3
				c-0.2,0.2-0.2,0.4-0.2,0.7C311.5,91.1,311.7,91.4,312,91.4z"/>
			<path class="st1" d="M316.9,86.5l0,0.6c0.4-0.4,0.8-0.7,1.4-0.7c0.6,0,1,0.3,1.3,0.8c0.3-0.5,0.8-0.8,1.5-0.8
				c1.1,0,1.6,0.7,1.6,2.2v3.9h-1.6v-3.8c0-0.3,0-0.6-0.1-0.7c-0.1-0.1-0.3-0.2-0.5-0.2c-0.3,0-0.5,0.2-0.7,0.5l0,0.2v4.1h-1.6v-3.8
				c0-0.3,0-0.6-0.1-0.7c-0.1-0.2-0.3-0.2-0.5-0.2c-0.3,0-0.5,0.1-0.6,0.4v4.4h-1.6v-6H316.9z"/>
			<path class="st1" d="M326.8,92.5c0-0.1-0.1-0.2-0.1-0.5c-0.3,0.4-0.7,0.6-1.1,0.6c-0.5,0-0.9-0.2-1.3-0.5s-0.5-0.8-0.5-1.3
				c0-0.6,0.2-1.1,0.6-1.5c0.4-0.3,1-0.5,1.7-0.5h0.5v-0.5c0-0.3,0-0.5-0.1-0.6s-0.2-0.2-0.4-0.2c-0.4,0-0.6,0.2-0.6,0.7h-1.6
				c0-0.6,0.2-1,0.6-1.4c0.4-0.4,0.9-0.5,1.6-0.5c0.7,0,1.2,0.2,1.5,0.5c0.4,0.3,0.5,0.8,0.5,1.5v2.8c0,0.5,0.1,0.9,0.2,1.2v0.1
				H326.8z M325.8,91.4c0.2,0,0.3,0,0.4-0.1c0.1-0.1,0.2-0.2,0.3-0.3v-1.3h-0.4c-0.3,0-0.5,0.1-0.6,0.3c-0.2,0.2-0.2,0.4-0.2,0.7
				C325.3,91.1,325.5,91.4,325.8,91.4z"/>
			<path class="st1" d="M288.9,102.7h-2.5v2.1h3v1.4h-4.7v-8.1h4.6v1.4h-3v1.9h2.5V102.7z"/>
			<path class="st1" d="M290,103c0-1,0.2-1.7,0.5-2.2s0.8-0.7,1.5-0.7c0.5,0,0.9,0.2,1.2,0.6v-3h1.6v8.6h-1.4l-0.1-0.6
				c-0.3,0.5-0.7,0.7-1.2,0.7c-0.6,0-1.1-0.2-1.4-0.7c-0.3-0.5-0.5-1.2-0.5-2.1V103z M291.6,103.4c0,0.6,0.1,1,0.2,1.2
				c0.1,0.2,0.3,0.4,0.6,0.4c0.3,0,0.5-0.1,0.7-0.4v-2.8c-0.2-0.3-0.4-0.4-0.7-0.4c-0.3,0-0.5,0.1-0.6,0.4c-0.1,0.2-0.2,0.6-0.2,1.2
				V103.4z"/>
			<path class="st1" d="M298.8,105.6c-0.3,0.4-0.8,0.7-1.3,0.7c-0.6,0-1-0.2-1.3-0.6c-0.3-0.4-0.4-0.9-0.4-1.7v-3.9h1.6v3.9
				c0,0.6,0.2,0.9,0.6,0.9c0.4,0,0.6-0.2,0.8-0.5v-4.4h1.6v6h-1.5L298.8,105.6z"/>
			<path class="st1" d="M303.6,105c0.5,0,0.7-0.3,0.7-0.9h1.5c0,0.7-0.2,1.2-0.6,1.6c-0.4,0.4-0.9,0.6-1.5,0.6
				c-0.8,0-1.4-0.2-1.8-0.7s-0.6-1.2-0.6-2.1V103c0-0.9,0.2-1.7,0.6-2.2c0.4-0.5,1-0.7,1.8-0.7c0.7,0,1.2,0.2,1.6,0.6
				c0.4,0.4,0.6,1,0.6,1.7h-1.5c0-0.3-0.1-0.6-0.2-0.8s-0.3-0.3-0.5-0.3c-0.3,0-0.5,0.1-0.6,0.3c-0.1,0.2-0.2,0.6-0.2,1.1v0.6
				c0,0.5,0,0.8,0.1,1c0,0.2,0.1,0.3,0.2,0.4C303.3,104.9,303.4,105,303.6,105z"/>
			<path class="st1" d="M309.6,106.2c0-0.1-0.1-0.2-0.1-0.5c-0.3,0.4-0.7,0.6-1.1,0.6c-0.5,0-0.9-0.2-1.3-0.5s-0.5-0.8-0.5-1.3
				c0-0.6,0.2-1.1,0.6-1.5c0.4-0.3,1-0.5,1.7-0.5h0.5V102c0-0.3,0-0.5-0.1-0.6s-0.2-0.2-0.4-0.2c-0.4,0-0.6,0.2-0.6,0.7h-1.6
				c0-0.6,0.2-1,0.6-1.4c0.4-0.4,0.9-0.5,1.6-0.5c0.7,0,1.2,0.2,1.5,0.5c0.4,0.3,0.5,0.8,0.5,1.5v2.8c0,0.5,0.1,0.9,0.2,1.2v0.1
				H309.6z M308.7,105.1c0.2,0,0.3,0,0.4-0.1s0.2-0.2,0.3-0.3v-1.3H309c-0.3,0-0.5,0.1-0.6,0.3c-0.2,0.2-0.2,0.4-0.2,0.7
				C308.1,104.8,308.3,105.1,308.7,105.1z"/>
			<path class="st1" d="M314.3,105c0.5,0,0.7-0.3,0.7-0.9h1.5c0,0.7-0.2,1.2-0.6,1.6c-0.4,0.4-0.9,0.6-1.5,0.6
				c-0.8,0-1.4-0.2-1.8-0.7s-0.6-1.2-0.6-2.1V103c0-0.9,0.2-1.7,0.6-2.2c0.4-0.5,1-0.7,1.8-0.7c0.7,0,1.2,0.2,1.6,0.6
				c0.4,0.4,0.6,1,0.6,1.7H315c0-0.3-0.1-0.6-0.2-0.8c-0.1-0.2-0.3-0.3-0.5-0.3c-0.3,0-0.5,0.1-0.6,0.3c-0.1,0.2-0.2,0.6-0.2,1.1
				v0.6c0,0.5,0,0.8,0.1,1c0,0.2,0.1,0.3,0.2,0.4C313.9,104.9,314.1,105,314.3,105z"/>
			<path class="st1" d="M317.3,98.6c0-0.2,0.1-0.4,0.2-0.6s0.4-0.2,0.6-0.2c0.3,0,0.5,0.1,0.6,0.2c0.2,0.2,0.2,0.4,0.2,0.6
				c0,0.2-0.1,0.4-0.2,0.6c-0.2,0.2-0.4,0.2-0.6,0.2c-0.3,0-0.5-0.1-0.6-0.2C317.4,99,317.3,98.8,317.3,98.6z M319,106.2h-1.6v-6
				h1.6V106.2z"/>
			<path class="st1" d="M320,103c0-0.9,0.2-1.6,0.6-2.1c0.4-0.5,1-0.8,1.8-0.8c0.8,0,1.4,0.3,1.8,0.8c0.4,0.5,0.6,1.2,0.6,2.2v0.4
				c0,0.9-0.2,1.6-0.6,2.1c-0.4,0.5-1,0.8-1.8,0.8c-0.8,0-1.4-0.3-1.8-0.8c-0.4-0.5-0.6-1.2-0.6-2.2V103z M321.6,103.4
				c0,1.1,0.3,1.6,0.9,1.6c0.5,0,0.8-0.4,0.9-1.3l0-0.7c0-0.5-0.1-1-0.2-1.2s-0.4-0.4-0.6-0.4c-0.3,0-0.5,0.1-0.6,0.4
				s-0.2,0.7-0.2,1.2V103.4z M322.8,97.6h1.8l-1.5,1.7h-1.3L322.8,97.6z"/>
			<path class="st1" d="M327.3,100.1l0,0.6c0.4-0.5,0.8-0.7,1.4-0.7c1,0,1.6,0.7,1.6,2.2v4h-1.6v-3.8c0-0.3-0.1-0.6-0.2-0.7
				c-0.1-0.2-0.3-0.2-0.5-0.2c-0.3,0-0.5,0.1-0.7,0.4v4.4h-1.6v-6H327.3z"/>
			<path class="st1" d="M337,106.2c0-0.1-0.1-0.2-0.1-0.5c-0.3,0.4-0.7,0.6-1.1,0.6c-0.5,0-0.9-0.2-1.3-0.5s-0.5-0.8-0.5-1.3
				c0-0.6,0.2-1.1,0.6-1.5c0.4-0.3,1-0.5,1.7-0.5h0.5V102c0-0.3,0-0.5-0.1-0.6c-0.1-0.1-0.2-0.2-0.4-0.2c-0.4,0-0.6,0.2-0.6,0.7
				h-1.6c0-0.6,0.2-1,0.6-1.4c0.4-0.4,0.9-0.5,1.6-0.5c0.7,0,1.2,0.2,1.5,0.5c0.4,0.3,0.5,0.8,0.5,1.5v2.8c0,0.5,0.1,0.9,0.2,1.2
				v0.1H337z M336.1,105.1c0.2,0,0.3,0,0.4-0.1s0.2-0.2,0.3-0.3v-1.3h-0.4c-0.3,0-0.5,0.1-0.6,0.3c-0.2,0.2-0.2,0.4-0.2,0.7
				C335.5,104.8,335.7,105.1,336.1,105.1z"/>
			<path class="st1" d="M342.2,106.2v-8.1h2.1c0.9,0,1.7,0.3,2.3,0.9c0.6,0.6,0.8,1.4,0.9,2.5v1.3c0,1.1-0.3,1.9-0.8,2.5
				c-0.6,0.6-1.3,0.9-2.3,0.9H342.2z M343.8,99.4v5.4h0.5c0.5,0,0.9-0.1,1.2-0.4c0.2-0.3,0.3-0.8,0.4-1.5v-1.4
				c0-0.8-0.1-1.3-0.3-1.6s-0.6-0.5-1.1-0.5H343.8z"/>
			<path class="st1" d="M348.6,98.6c0-0.2,0.1-0.4,0.2-0.6c0.2-0.2,0.4-0.2,0.6-0.2s0.5,0.1,0.6,0.2c0.2,0.2,0.2,0.4,0.2,0.6
				c0,0.2-0.1,0.4-0.2,0.6c-0.2,0.2-0.4,0.2-0.6,0.2s-0.5-0.1-0.6-0.2C348.6,99,348.6,98.8,348.6,98.6z M350.2,106.2h-1.6v-6h1.6
				V106.2z"/>
			<path class="st1" d="M354.1,104.6c0-0.1-0.1-0.3-0.2-0.4c-0.1-0.1-0.4-0.3-0.9-0.5c-0.6-0.3-1.1-0.5-1.3-0.8s-0.4-0.6-0.4-1.1
				c0-0.5,0.2-1,0.6-1.3c0.4-0.3,0.9-0.5,1.5-0.5c0.7,0,1.2,0.2,1.6,0.5s0.6,0.8,0.6,1.4H354c0-0.5-0.2-0.7-0.6-0.7
				c-0.2,0-0.3,0.1-0.4,0.2c-0.1,0.1-0.2,0.2-0.2,0.4c0,0.1,0.1,0.3,0.2,0.4c0.1,0.1,0.4,0.2,0.8,0.4c0.6,0.2,1.1,0.5,1.4,0.8
				c0.3,0.3,0.4,0.7,0.4,1.1c0,0.5-0.2,1-0.6,1.3c-0.4,0.3-0.9,0.5-1.6,0.5c-0.4,0-0.8-0.1-1.2-0.3c-0.3-0.2-0.6-0.4-0.8-0.7
				c-0.2-0.3-0.3-0.6-0.3-1h1.5c0,0.3,0.1,0.5,0.2,0.6c0.1,0.1,0.3,0.2,0.6,0.2C353.9,105.1,354.1,104.9,354.1,104.6z"/>
			<path class="st1" d="M358.4,98.7v1.5h0.8v1.2h-0.8v3c0,0.2,0,0.4,0.1,0.5c0.1,0.1,0.2,0.1,0.4,0.1c0.2,0,0.3,0,0.4,0l0,1.2
				c-0.3,0.1-0.6,0.2-0.9,0.2c-1,0-1.5-0.6-1.5-1.8v-3.2h-0.7v-1.2h0.7v-1.5H358.4z"/>
			<path class="st1" d="M363,106.2c0-0.1-0.1-0.2-0.1-0.5c-0.3,0.4-0.7,0.6-1.1,0.6c-0.5,0-0.9-0.2-1.3-0.5s-0.5-0.8-0.5-1.3
				c0-0.6,0.2-1.1,0.6-1.5c0.4-0.3,1-0.5,1.7-0.5h0.5V102c0-0.3,0-0.5-0.1-0.6s-0.2-0.2-0.4-0.2c-0.4,0-0.6,0.2-0.6,0.7h-1.6
				c0-0.6,0.2-1,0.6-1.4c0.4-0.4,0.9-0.5,1.6-0.5c0.7,0,1.2,0.2,1.5,0.5c0.4,0.3,0.5,0.8,0.5,1.5v2.8c0,0.5,0.1,0.9,0.2,1.2v0.1H363
				z M362,105.1c0.2,0,0.3,0,0.4-0.1c0.1-0.1,0.2-0.2,0.3-0.3v-1.3h-0.4c-0.3,0-0.5,0.1-0.6,0.3c-0.2,0.2-0.2,0.4-0.2,0.7
				C361.5,104.8,361.7,105.1,362,105.1z"/>
			<path class="st1" d="M366.9,100.1l0,0.6c0.4-0.5,0.8-0.7,1.4-0.7c1,0,1.6,0.7,1.6,2.2v4h-1.6v-3.8c0-0.3-0.1-0.6-0.2-0.7
				c-0.1-0.2-0.3-0.2-0.5-0.2c-0.3,0-0.5,0.1-0.7,0.4v4.4h-1.6v-6H366.9z"/>
			<path class="st1" d="M373.3,105c0.5,0,0.7-0.3,0.7-0.9h1.5c0,0.7-0.2,1.2-0.6,1.6c-0.4,0.4-0.9,0.6-1.5,0.6
				c-0.8,0-1.4-0.2-1.8-0.7c-0.4-0.5-0.6-1.2-0.6-2.1V103c0-0.9,0.2-1.7,0.6-2.2c0.4-0.5,1-0.7,1.8-0.7c0.7,0,1.2,0.2,1.6,0.6
				s0.6,1,0.6,1.7H374c0-0.3-0.1-0.6-0.2-0.8s-0.3-0.3-0.5-0.3c-0.3,0-0.5,0.1-0.6,0.3c-0.1,0.2-0.2,0.6-0.2,1.1v0.6
				c0,0.5,0,0.8,0.1,1c0,0.2,0.1,0.3,0.2,0.4C372.9,104.9,373.1,105,373.3,105z"/>
			<path class="st1" d="M376.3,98.6c0-0.2,0.1-0.4,0.2-0.6c0.2-0.2,0.4-0.2,0.6-0.2s0.5,0.1,0.6,0.2s0.2,0.4,0.2,0.6
				c0,0.2-0.1,0.4-0.2,0.6c-0.2,0.2-0.4,0.2-0.6,0.2s-0.5-0.1-0.6-0.2C376.4,99,376.3,98.8,376.3,98.6z M378,106.2h-1.6v-6h1.6
				V106.2z"/>
			<path class="st1" d="M382.1,106.2c0-0.1-0.1-0.2-0.1-0.5c-0.3,0.4-0.7,0.6-1.1,0.6c-0.5,0-0.9-0.2-1.3-0.5s-0.5-0.8-0.5-1.3
				c0-0.6,0.2-1.1,0.6-1.5c0.4-0.3,1-0.5,1.7-0.5h0.5V102c0-0.3,0-0.5-0.1-0.6s-0.2-0.2-0.4-0.2c-0.4,0-0.6,0.2-0.6,0.7h-1.6
				c0-0.6,0.2-1,0.6-1.4c0.4-0.4,0.9-0.5,1.6-0.5c0.7,0,1.2,0.2,1.5,0.5c0.4,0.3,0.5,0.8,0.5,1.5v2.8c0,0.5,0.1,0.9,0.2,1.2v0.1
				H382.1z M381.1,105.1c0.2,0,0.3,0,0.4-0.1c0.1-0.1,0.2-0.2,0.3-0.3v-1.3h-0.4c-0.3,0-0.5,0.1-0.6,0.3c-0.2,0.2-0.2,0.4-0.2,0.7
				C380.6,104.8,380.8,105.1,381.1,105.1z"/>
			<path class="st1" d="M384.7,105.4c0-0.3,0.1-0.5,0.3-0.6c0.2-0.2,0.4-0.2,0.7-0.2c0.3,0,0.5,0.1,0.7,0.2c0.2,0.2,0.3,0.4,0.3,0.6
				c0,0.3-0.1,0.5-0.3,0.6c-0.2,0.2-0.4,0.2-0.7,0.2c-0.3,0-0.5-0.1-0.7-0.2C384.8,105.8,384.7,105.6,384.7,105.4z"/>
		</g>
	</g>
	<g>
		<rect class="st2" width="130.9" height="130.9"/>
		<g>
			<path class="st1" d="M72.5,22.1c-1.4-0.1-2.8-0.2-4.2-0.3c-0.4,0-0.8,0-1.3,0h-1.6c-0.9,0-1.7,0-2.6,0c-1,0-1.9,0.1-2.9,0.2
				c-4.8,0.4-9.6,1.1-14.4,2.4c-0.1,0.1-0.3,0.1-0.5,0.1c0.1,0.2,0.3,0.2,0.5,0.3c0,0,0.1,0,0.1,0.1c0.2,0.1,0.3,0.3,0.6,0.3
				c0.4,0,0.8,0.1,1.1,0c0.8-0.2,0.8-0.3,1.4,0.2c0.3,0.2,0.3,0.2,0.4,0.6c0.1,0.3,0,0.5,0.3,0.7c0.2,0.2,0.5,0.2,0.6-0.1
				c0.3-0.7,1.1,0.2,1.1,0.5c0,0.6,0.1,0.2,0.3,0.5c0.1,0.1,0.1,0.9,0.6,1.1c0.2,0.1,0.4,0,0.4,0.3c0,0.1,0,0.2-0.1,0.3
				c-0.1,0.2-0.2,0.4-0.2,0.5c-0.3,0.6-0.2,1.2,0.1,1.8c0.1,0.2,0.2,0.3,0.3,0.5c0.2,0.7,0.3,0.8,0.7,1.1c0.3,0.1,0.6,0.1,0.9,0.2
				c0.2,0,0.3,0,0.5-0.1c0.2-0.1,0.3-0.1,0.5,0c0.4,0.3,0.3,0,0.5-0.3c0.3-0.5,0.5-0.1,0.5-0.8c0-0.2,0.1-0.3,0.4-0.4
				c0.5,0,0.6-0.2,1.1-0.2c0.2,0,0.6,0,0.4,0.5c-0.3,0.3-0.3,0.3-0.4,0.7c0,0.4-0.1,0.5-0.2,0.7c-0.3,0.4-0.1,0.2-0.2,0.6
				c0,0.2-0.1,0.3-0.2,0.5c-0.1,0.2,0.1,0.4,0.4,0.3c0.2-0.1,0.5-0.1,0.7,0c0.3,0,0.5,0,0.7,0c0.4,0,0.7,0,1,0.3
				c0.3,0.3,0.2,0.4,0.1,1c-0.1,0.2,0.1,0.3,0,0.5c0,0.3-0.2,0.6-0.2,0.8c0,0.2,0,0.3,0.1,0.4c0.1,0.2,0.2,0.4,0.4,0.5
				c0.2,0.2,0.3,0.3,0.6,0.5c0.8,0.5,0.9,0,1.5-0.1c0.3,0,0.6,0,0.8,0.1c0.2,0.1,0.4,0.2,0.6,0.5c0.2,0.2,0.4,0.3,0.5-0.1
				c0-0.2,0.1-0.3,0.2-0.4c0.2,0,0.1-0.1,0.2-0.3c0,0,0-0.1,0.1-0.1v0v-0.1c0.1-0.4,0.6-0.7,1-0.7h0.1c0.2,0,0.6-0.2,0.7-0.4
				c0.2-0.2,0.7-0.5,0.4,0.1c-0.1,0.2-0.1,0.2-0.1,0.3c0,0.1,0,0.1,0,0.1c0.1,0.2-0.1,0.3-0.2,0.5c0,0.2,0.1,0.1,0.2,0.2
				c0.1,0.1,0.1,0.2,0.2,0.3c0.1,0.1,0.3,0,0.3-0.2v0v-0.1c0-0.1-0.1-0.2-0.1-0.3c0-0.2,0-0.3,0.1-0.4c0,0,0.1-0.1,0.2-0.1
				c0.5-0.3,0.8-0.4,1.1-0.2c0.1,0,0.1,0.1,0.2,0.1c0.4,0.4,0.2,0.4,0.8,0.4c0.4,0,0.5-0.1,0.9,0.1c0.2,0.1,0.9,0.3,1.1,0
				c0.2-0.4,0.7-0.4,0.8-0.1c0.1,0.2,0.2,0.2,0.5,0.3c0,0,0,0,0,0c0.2,0,0.2,0,0.4,0.2c0.2,0.2,0,0.2,0,0.5c0,0.2,0,0.1,0.3,0.1
				c0.5,0,1.1,0.2,1.3,0.8c0.1,0.3,0.4,0.1,0.6,0.3c0.3,0.4,0.2,0.4,0.7,0.5c0.1,0,0.2,0,0.3,0c0.5-0.1,0.6-0.1,0.9,0
				c0.2,0.2,0.3,0.4,0.6,0.3c0.5-0.1,0.5,0.3,0.8,0.5c0.4,0.3,0.6,0.3,0.6,0.9c0,0.4,0,0.3,0.3,0.6c0.3,0.4,0.4,0.5-0.1,0.9
				c-0.4,0.3-0.4,0.5,0.2,0.2c0.2-0.1,0.4,0.1,0.7,0.2c0.2,0.2,0.2,0.3,0,0.5c0,0.5-0.1,0.4,0.3,0.1c0.4-0.4,0.7-0.5,1.3-0.1
				c0.2,0.1,0.4,0.3,0.5,0.4c0.5,0.4,1,0.6,1.6,0.6c0.5,0,0.7,0.2,1.1,0.1c0.5-0.1,0.9,0.2,1.2,0.7c0.1,0.2,0.4,0.4,0.6,0.5
				c0.6,0.3,0.8-0.1,1.1,0.7c0.5,1.3-0.5,2.4-1.3,3.3c-0.3,0.4-0.2,0.6-0.5,0.9c-0.3,0.3-0.8,0.1-0.7,0.6c0.1,0.2-0.2,0.4-0.2,0.6
				c0,0.1,0,0.2,0,0.3c0,0.3,0.1,0.6-0.1,0.8c0,0.3-0.1,0.5-0.1,0.8c-0.3,0.6-0.5,1-0.7,1.3c-0.2,0.2-0.2,0.3-0.5,0.5
				c-0.3,0.2-0.1,0.5-0.3,0.7c-0.1,0.1-0.2,0.1-0.3,0.2c-0.4,0.3-0.4,0.4-0.9,0.4c-1,0-2.4,0.7-3.1,1.6c-0.2,0.4-0.2,0.6-0.3,0.9
				c-0.1,0.5-0.3,0.4-0.5,0.7c-0.5,0.5-0.4,1.1-0.9,0.9c-0.2,0-0.2,0.1-0.4,0.4c-0.2,0.2-0.3,0.3-0.4,0.5c0,0.2-0.1,0.3-0.3,0.5
				c-0.2,0.2-0.3,0.3-0.5,0.5c-0.3,0.7-0.9,0.6-1.6,0.5c-0.2,0-0.5-0.2-0.7-0.2c-0.5-0.2-0.4,0.1-0.1,0.3c0.1,0.1,0.2,0.1,0.2,0.2
				c0.1,0.3-0.3,0.4,0.1,0.7c0.1,0.2,0,0.5-0.2,0.7c-0.3,0.5-0.8,0.6-1.3,0.7c-0.3,0-0.6,0-0.9,0c-0.6,0-0.5-0.2-0.5,0.4
				c0,0.1-0.1,0.2-0.2,0.4c0,0.5-0.3,0.6-0.7,0.5c-0.7-0.3-0.4-0.3-0.6,0.1c-0.1,0.2-0.1,0.2,0,0.3c0,0.1,0,0.2,0.1,0.2
				c0.1,0,0.1,0,0.1,0c0.2,0,0-0.2,0.3-0.2c0.1,0,0.1,0,0.1,0.1c-0.1,0.2-0.1,0.2-0.3,0.2c-0.2,0-0.3,0-0.3,0.2
				c0,0.3-0.2,0.2-0.3,0.5c0,0.1-0.1,0.2-0.1,0.3c-0.1,0.3-0.3,0.2-0.6,0.3c-0.2,0.1-0.3,0.2-0.4,0.3c-0.1,0.2-0.1,0.4,0,0.6
				c0,0,0.1,0.1,0.2,0.1c0.1,0.1,0.1,0.2,0.2,0.2c0.3,0.1,0.3-0.1,0.3,0.2c0,0.3-0.1,0.3-0.4,0.5c-0.1,0.1-0.1,0.1-0.2,0.1
				c-0.1,0.1-0.2,0.1-0.3,0.4c0,0.2-0.2,0.4-0.3,0.4c-0.5,0.2-0.5,0.3-0.4,0.8c0.1,0.4-0.1,0.3-0.3,0.4c-0.1,0-0.2,0.1-0.3,0.1
				c-0.1,0.1-0.2,0.3-0.3,0.5c-0.3,0.2,0.1,0-0.6,0.2c-0.3,0.1-0.3-0.1-0.3-0.4c0-0.1-0.1-0.2-0.1-0.3c0,0-0.1-0.1-0.1-0.1
				c-0.1-0.4,0-0.3-0.3-0.6c-0.3-0.2,0-0.4-0.1-0.6c-0.2-0.3-0.1-0.2-0.2-0.5c0-0.1-0.1-0.2-0.1-0.3c-0.1-0.1-0.1-0.2,0.1-0.3
				c0.2-0.1,0.2-0.1,0.3-0.3c0.2-0.6,0.1-0.2-0.2-0.5c-0.1-0.1,0-0.2,0.1-0.4c0.2-0.3,0.3-0.3,0.5-0.3c0,0,0.1,0,0.1,0
				c0.1-0.1,0.1-0.2,0.2-0.5c0-0.4,0.1-0.6,0.2-0.8c0.1-0.2,0.1-0.4,0-0.6c-0.2-0.4-0.6,0-0.5-0.6c0.1-0.5,0.2-0.5,0.3-0.8
				c0.1-0.2,0-0.4,0-0.6C65.6,66,65.7,66,66,65.4c0.1-0.2,0.2-0.4,0.3-0.6c0.1-0.2,0.1-0.4,0.1-0.6c0.2-0.2,0.2-0.2,0.2-0.5
				c0-0.4,0.1-0.4,0.1-0.7c0-0.3-0.1-0.2-0.1-0.5c0-0.1,0-0.2,0-0.3c0.1-0.4,0.3-0.2,0.2-0.7c-0.1-0.2,0.1-0.5,0.2-0.8
				c0-0.1,0.1-0.1,0.1-0.1c0.1-0.4,0.2-0.8,0.3-1.2c0.1-0.3,0.1-0.6,0-0.8c0-0.2,0-0.4,0-0.5c0.1-0.3,0.2-0.2,0.2-0.6
				c0-0.2-0.1-0.5,0-0.6c0.1-0.4,0-0.8,0-1.3c0-0.4-0.1-0.6-0.5-0.9c-0.1,0-0.1-0.1-0.2-0.2c-0.4-0.3-0.8-0.6-1.2-0.8
				c-0.1,0-0.1-0.1-0.2-0.1c-0.4-0.1-0.5,0-0.9-0.5c-0.1-0.2-0.2-0.3-0.4-0.5c-0.1-0.3,0.2-0.3,0-0.6c-0.1-0.1-0.3-0.3-0.4-0.4
				c-0.4-0.5-0.7-1.1-0.9-1.7c-0.4-0.8-0.8-1.5-1.4-2c-0.2,0-0.3-0.1-0.2-0.4c0-0.2-0.1-0.4-0.1-0.5c-0.2-0.5,0.4-0.7,0.7-0.8
				c0.2-0.1,0.2-0.3,0-0.5c-0.1,0-0.2-0.1-0.3-0.1c-0.5-0.2-0.3-0.7-0.1-1c0.2-0.2,0.3-0.4,0.3-0.7c0.1-0.4,0.1-0.4,0.3-0.5
				c0.4-0.1,0.3-0.1,0.5-0.5c0-0.3,0-0.3,0.3-0.4c0,0,0.1,0,0.1,0c0.7-0.6,0.6-0.9,0.5-1.7c0-0.4-0.1-0.5-0.3-0.9
				c-0.1-0.2-0.2-0.2-0.3-0.3c0,0,0-0.1,0-0.1c0-0.4,0.1-0.3-0.2-0.7c-0.2-0.2-0.5-0.2-0.7,0.1c0,0.1,0,0.2-0.1,0.2
				c-0.3,0.2-0.2,0-0.1,0.5c0,0.1,0,0.1,0,0.2c-0.4,0.2-0.3-0.2-0.5-0.3c-0.2-0.1-0.2,0.1-0.5-0.2c-0.1-0.1-0.2-0.1-0.4-0.1H60
				c-0.1,0-0.1-0.1-0.2-0.3c-0.1-0.2,0-0.3-0.3-0.4c-0.1,0-0.1,0-0.2,0c-0.3-0.2-0.1-0.2-0.4-0.2c-0.2,0-0.4-0.1-0.4-0.4
				c0.1-0.6,0-0.5-0.6-1c-0.2-0.2-0.3-0.4-0.4-0.6c-0.1-0.3-0.2-0.2-0.5-0.2c-0.2,0-0.6-0.1-0.8-0.2c-0.5-0.3-0.6-0.2-0.9-0.3
				c-0.4-0.1-0.7-0.5-0.9-0.8c-0.2-0.4-0.6-0.6-1.1-0.5c-0.4,0.1-0.4,0.4-0.9,0.4c-0.3-0.1-0.5-0.4-1.1-0.5
				c-0.5-0.1-0.8-0.3-1.1-0.5c-0.5-0.2-0.5-0.5-0.9-0.6c-0.9-0.2-0.5-0.1-0.8-0.5c-0.1-0.1-0.2-0.1-0.3-0.2
				c-0.2-0.2-0.6-0.5-0.4-0.8c0.2-0.3,0.3-0.5,0.2-0.8c-0.1-0.2-0.1-0.4-0.1-0.5c0-0.2-0.4-0.6-0.5-0.8c-0.2-0.3-0.5-0.6-0.7-1
				c-0.9-0.4,0.1-0.5-0.4-0.9c-0.2,0-0.3-0.1-0.3-0.3c-0.1-0.4,0-0.4-0.3-0.7c-0.1-0.1-0.2-0.1-0.2-0.4c-0.1-0.2-0.2-0.4-0.2-0.7
				c0-0.2,0-0.3,0-0.5c0-0.5,0.1-0.4-0.4-0.6c-0.1,0-0.2-0.1-0.3-0.1c0,0-0.1,0-0.1,0c-0.1,0.1-0.1,0.2-0.1,0.4c0,0.4,0,0.5,0.1,0.8
				c0.1,0.1,0.1,0.3,0.2,0.4c0.2,0.3,0.3,0.3,0.3,0.6c0,0.3,0,0.4,0.1,0.7c0.5,0.6,0.3,0.7,0.5,1.2c0,0.3,0,0.5-0.2,0.5
				c-0.2,0.1-0.4,0-0.5-0.1c-0.2-0.2-0.1-0.3,0.1-0.5c0.2-0.4-0.3-0.7-0.5-0.9c-0.4-0.3-0.6-0.5-0.2-0.9c0.3-0.3,0.1-0.5-0.1-0.7
				c-0.4-0.4-0.5-0.4-0.4-0.7c0-0.3,0-0.4,0-0.5c-2.4,0.7-4.9,1.5-7.3,2.5v42.2c3.1,1.2,6.2,2.2,9.4,3.1c4.8,1.3,9.6,2.1,14.4,2.4
				c1,0.1,1.9,0.1,2.9,0.2c0.9,0,1.7,0,2.6,0h0.8c0.1,0,0.3-0.1,0.5-0.1c0.6,0.1,0.1-0.5,0.4-0.6c0,0,0.1,0,0.2,0
				c0.3-0.1,0.2,0,0.4,0.2c0.1,0.3,0.3,0.4,0.5,0.5h0.3c1.4-0.1,2.8-0.2,4.2-0.3c7.4-0.7,14.9-2.5,22.2-5.3V27.5
				C87.4,24.6,79.9,22.8,72.5,22.1 M60.2,30.9C60.1,30.9,60,31,60,31c-0.1,0.1-0.1,0.1-0.2,0.2c-0.3,0.2-0.4-0.1,0-0.3
				c0.1-0.1,0.2-0.1,0.2-0.1C60.4,30.6,60.7,30.8,60.2,30.9 M64.5,32.5c-0.3,0-0.3,0-0.5,0c-0.4,0.1-0.5,0-0.4-0.3
				c0.1-0.3-0.5-0.1-0.7-0.3c0,0,0-0.1,0-0.1v0c-0.2-0.3-0.1-0.2-0.6-0.2c-0.1,0-0.3,0-0.4-0.1c-0.2-0.2-0.3-0.3-0.7-0.3
				c-0.3,0-0.5-0.5-0.3-0.6c0.5-0.1,0.3,0.2,0.8,0.2c0.3,0,0.4,0.1,0.6,0.2c0.1,0.1,0.2,0.1,0.5,0.1c0.1,0,0.1,0,0.1,0
				c0.1,0,0.2,0.1,0.4,0.2c0.1,0.1,0.2,0.1,0.2,0.2c0.2,0.2,0.3,0.3,0.5,0.3c0.3,0.1,0.3,0,0.5,0.2C64.8,32.3,65.1,32.4,64.5,32.5
				 M65.8,33.5c-0.1,0-0.2,0-0.3,0c-0.2,0-0.3,0-0.3-0.1c0-0.2,0.1-0.1,0.2-0.1h0c0.1,0,0.1,0,0.2,0.1
				C65.7,33.4,65.7,33.4,65.8,33.5C66,33.5,65.9,33.5,65.8,33.5 M67.6,33.3c-0.4,0-0.5-0.1-0.5,0.1c0,0.1-0.1,0.1-0.1,0.2
				c0,0.1-0.1,0.1-0.2,0c-0.3-0.1-0.5-0.2-0.5-0.4c0-0.1,0-0.1-0.1-0.2c-0.4-0.9-0.2-0.2,0.8-0.4c0,0,0.1,0,0.1,0
				c0.3-0.1,0.3-0.1,0.6,0.2c0.1,0.1,0.1,0.1,0.2,0.2C68.5,33.2,67.7,33.4,67.6,33.3 M68.3,33.3c-0.1,0-0.1-0.1-0.1-0.1
				c0-0.1,0.1-0.2,0.1-0.2c0.1,0,0.1,0.1,0.1,0.2C68.4,33.3,68.4,33.3,68.3,33.3 M65.5,68.9L65.5,68.9c0.1-0.1,0.1-0.1,0.1-0.2
				c0-0.1,0.1-0.1,0.1,0.1c0,0.2,0,0.5-0.1,0.6c-0.2,0-0.2,0-0.1-0.2C65.3,69,65.3,69,65.5,68.9 M45.7,30c-0.1,0.1-0.2,0.1-0.2,0
				c0,0,0,0,0-0.1c-0.1-0.3-0.3-0.1-0.2-0.4c0.1-0.2,0.2-0.3,0.3-0.2c0.1,0.1,0.2,0.1,0.2,0.2C45.9,29.8,45.9,29.9,45.7,30
				 M73.2,71.6c-0.2,0.3-0.2,0.2-0.6,0.1h-0.1c-0.2,0-0.2,0.2-0.5,0.1c-0.2-0.1-0.3-0.3-0.2-0.4c0.1-0.1,0.1-0.2,0.2-0.2
				c0.2,0.1,0.3,0,0.5,0c0.1,0,0.2-0.1,0.2-0.1C73.3,71,73.3,71.3,73.2,71.6"/>
			<polygon class="st1" points="43.1,86.6 43.1,88.6 38.7,88.6 38.7,91.2 42.7,91.2 42.7,93.1 38.7,93.1 38.7,97.3 36.2,97.3 
				36.2,86.6 			"/>
			<polygon class="st1" points="45.3,86.6 47.9,86.6 47.9,95.3 51.6,95.3 51.6,97.3 45.3,97.3 			"/>
			<path class="st1" d="M56.7,86.6h2.7l3.8,10.6h-2.7L59.8,95h-3.6l-0.7,2.3h-2.7L56.7,86.6z M56.8,93.1h2.4l-0.4-1.3
				c-0.1-0.4-0.3-0.9-0.4-1.3c-0.1-0.5-0.3-0.9-0.4-1.3h0c-0.1,0.4-0.2,0.8-0.4,1.3c-0.1,0.5-0.3,0.9-0.4,1.4L56.8,93.1z"/>
			<path class="st1" d="M69.7,95.5c0.5,0,0.9,0,1.3-0.1c0.4-0.1,0.6-0.2,0.9-0.4l0.5,1.8c-0.2,0.1-0.6,0.3-1.1,0.4
				c-0.5,0.1-1.1,0.2-1.9,0.2c-0.8,0-1.6-0.1-2.3-0.4c-0.7-0.3-1.3-0.6-1.8-1.1c-0.5-0.5-0.9-1.1-1.2-1.7c-0.3-0.7-0.4-1.4-0.4-2.3
				c0-0.8,0.1-1.6,0.4-2.3c0.3-0.7,0.6-1.3,1.1-1.7c0.5-0.5,1.1-0.8,1.8-1.1c0.7-0.3,1.5-0.4,2.4-0.4c0.7,0,1.3,0.1,1.8,0.2
				c0.5,0.1,0.8,0.3,1.1,0.4l-0.6,1.9c-0.3-0.1-0.6-0.3-0.9-0.4c-0.4-0.1-0.7-0.2-1.2-0.2c-0.5,0-0.9,0.1-1.3,0.2
				c-0.4,0.1-0.7,0.3-1,0.6c-0.3,0.3-0.5,0.6-0.7,1.1c-0.2,0.4-0.3,1-0.3,1.6c0,0.6,0.1,1.1,0.2,1.6c0.2,0.5,0.4,0.8,0.7,1.1
				c0.3,0.3,0.6,0.5,1,0.7C68.8,95.4,69.3,95.5,69.7,95.5"/>
			<path class="st1" d="M78.2,86.4c0.7,0,1.4,0.1,1.9,0.2c0.5,0.2,1,0.3,1.4,0.6L81,89.1c-0.4-0.2-0.9-0.4-1.3-0.5s-0.9-0.2-1.3-0.2
				c-0.5,0-0.9,0.1-1.2,0.3c-0.3,0.2-0.4,0.4-0.4,0.8c0,0.4,0.1,0.6,0.4,0.8s0.7,0.3,1.2,0.5l1,0.3c0.4,0.1,0.8,0.3,1.1,0.5
				c0.3,0.2,0.6,0.4,0.9,0.7c0.2,0.3,0.4,0.6,0.6,0.9c0.1,0.3,0.2,0.7,0.2,1.1c0,0.5-0.1,0.9-0.3,1.3c-0.2,0.4-0.4,0.8-0.8,1.1
				c-0.3,0.3-0.8,0.5-1.3,0.7c-0.5,0.2-1.1,0.3-1.8,0.3c-0.7,0-1.3-0.1-1.9-0.2c-0.6-0.1-1.2-0.3-1.7-0.6l0.6-1.9
				c0.5,0.2,1,0.4,1.4,0.6c0.5,0.1,0.9,0.2,1.5,0.2c0.6,0,1-0.1,1.3-0.3c0.3-0.2,0.4-0.5,0.4-0.8c0-0.1,0-0.2-0.1-0.3
				c0-0.1-0.1-0.2-0.3-0.3c-0.1-0.1-0.3-0.2-0.5-0.3c-0.2-0.1-0.5-0.2-0.9-0.3l-0.8-0.3c-0.4-0.1-0.8-0.3-1.1-0.5
				c-0.3-0.2-0.6-0.4-0.9-0.6s-0.4-0.5-0.6-0.9c-0.1-0.3-0.2-0.7-0.2-1.2c0-0.5,0.1-0.9,0.3-1.3c0.2-0.4,0.4-0.7,0.8-1
				c0.3-0.3,0.8-0.5,1.3-0.7C77,86.5,77.6,86.4,78.2,86.4"/>
			<path class="st1" d="M89.5,86.4c0.8,0,1.5,0.1,2.1,0.4c0.7,0.3,1.2,0.6,1.7,1.1c0.5,0.5,0.8,1.1,1.1,1.7c0.3,0.7,0.4,1.5,0.4,2.3
				c0,0.8-0.1,1.6-0.4,2.3c-0.3,0.7-0.7,1.3-1.1,1.7c-0.5,0.5-1,0.8-1.7,1.1c-0.7,0.3-1.4,0.4-2.1,0.4c-0.8,0-1.5-0.1-2.1-0.4
				c-0.7-0.2-1.2-0.6-1.7-1.1c-0.5-0.5-0.8-1-1.1-1.7c-0.3-0.7-0.4-1.5-0.4-2.3c0-0.8,0.1-1.6,0.4-2.3c0.3-0.7,0.6-1.3,1.1-1.7
				c0.5-0.5,1.1-0.9,1.7-1.1C88,86.5,88.7,86.4,89.5,86.4 M86.8,91.9c0,0.6,0.1,1.1,0.2,1.6c0.1,0.5,0.3,0.8,0.6,1.1
				c0.2,0.3,0.5,0.5,0.9,0.7c0.3,0.1,0.7,0.2,1,0.2c0.4,0,0.7-0.1,1-0.2c0.3-0.1,0.6-0.4,0.8-0.7c0.2-0.3,0.4-0.7,0.6-1.1
				c0.1-0.5,0.2-1,0.2-1.6c0-0.6-0.1-1.2-0.2-1.6c-0.1-0.5-0.3-0.8-0.6-1.1c-0.2-0.3-0.5-0.5-0.9-0.7c-0.3-0.1-0.7-0.2-1-0.2
				c-0.4,0-0.7,0.1-1,0.2c-0.3,0.2-0.6,0.4-0.8,0.7c-0.2,0.3-0.4,0.7-0.6,1.1C86.9,90.8,86.8,91.3,86.8,91.9"/>
			<path class="st1" d="M38.4,103.3H39l2.2,5.8h-0.7l-0.6-1.7h-2.5l-0.6,1.7h-0.7L38.4,103.3z M37.6,106.9h2.1l-0.5-1.2
				c-0.1-0.2-0.2-0.5-0.3-0.7c-0.1-0.3-0.2-0.6-0.3-0.9h0c0,0.2-0.1,0.3-0.1,0.5c-0.1,0.1-0.1,0.3-0.1,0.4c0,0.1-0.1,0.3-0.1,0.4
				c0,0.1-0.1,0.3-0.2,0.4L37.6,106.9z"/>
			<path class="st1" d="M43.9,103.3h1.8c0.3,0,0.6,0,0.8,0.1c0.2,0.1,0.4,0.2,0.6,0.3c0.2,0.1,0.3,0.3,0.3,0.5
				c0.1,0.2,0.1,0.4,0.1,0.7c0,0.2,0,0.4-0.1,0.6c-0.1,0.2-0.2,0.3-0.3,0.5c-0.1,0.1-0.2,0.2-0.4,0.3c-0.1,0.1-0.3,0.2-0.5,0.2
				l1.6,2.5h-0.8l-1.4-2.4h-1.2v2.4h-0.6V103.3z M44.5,106.1h0.9c0.2,0,0.4,0,0.6-0.1c0.2,0,0.3-0.1,0.5-0.2
				c0.1-0.1,0.2-0.2,0.3-0.4c0.1-0.1,0.1-0.3,0.1-0.5c0-0.4-0.1-0.7-0.3-0.9c-0.2-0.2-0.6-0.3-1-0.3h-1V106.1z"/>
			<path class="st1" d="M53.1,103.2c0.3,0,0.6,0,0.9,0.1c0.3,0,0.5,0.1,0.7,0.3l-0.2,0.5c-0.2-0.1-0.4-0.2-0.7-0.2
				c-0.2-0.1-0.5-0.1-0.7-0.1c-0.3,0-0.6,0-0.8,0.1c-0.3,0.1-0.5,0.2-0.7,0.4c-0.2,0.2-0.4,0.4-0.5,0.7c-0.1,0.3-0.2,0.7-0.2,1.1
				c0,0.4,0.1,0.7,0.2,1c0.1,0.3,0.3,0.5,0.4,0.7c0.2,0.2,0.4,0.4,0.7,0.5c0.3,0.1,0.6,0.2,0.9,0.2c0.2,0,0.4,0,0.6,0
				c0.2,0,0.3-0.1,0.4-0.1v-1.8H53V106h1.8v2.7c-0.2,0.1-0.5,0.2-0.7,0.2c-0.3,0.1-0.6,0.1-1,0.1c-0.4,0-0.8-0.1-1.1-0.2
				c-0.3-0.1-0.6-0.3-0.9-0.6c-0.3-0.2-0.5-0.5-0.6-0.9c-0.1-0.4-0.2-0.8-0.2-1.2s0.1-0.9,0.2-1.3c0.1-0.4,0.3-0.7,0.6-0.9
				c0.3-0.2,0.5-0.4,0.9-0.6C52.3,103.3,52.7,103.2,53.1,103.2"/>
			<polygon class="st1" points="57.9,103.3 61.3,103.3 61.3,103.8 58.6,103.8 58.6,105.8 61.1,105.8 61.1,106.3 58.6,106.3 
				58.6,108.5 61.3,108.5 61.3,109 57.9,109 			"/>
			<path class="st1" d="M64.3,103.3h0.6l2.6,3.7c0.1,0.2,0.2,0.3,0.3,0.5c0.1,0.2,0.2,0.3,0.3,0.5h0c0-0.2,0-0.5,0-0.7
				c0-0.2,0-0.5,0-0.7v-3.4h0.6v5.8h-0.6l-2.5-3.6c-0.1-0.2-0.3-0.4-0.4-0.6c-0.1-0.2-0.2-0.4-0.4-0.6h0c0,0.3,0,0.5,0,0.8
				c0,0.3,0,0.5,0,0.8v3.2h-0.6V103.3z"/>
			<polygon class="st1" points="75.9,103.3 75.9,103.8 74,103.8 74,109 73.3,109 73.3,103.8 71.4,103.8 71.4,103.3 			"/>
			<rect x="78.5" y="103.3" class="st1" width="0.7" height="5.8"/>
			<path class="st1" d="M82.5,103.3h0.6l2.6,3.7c0.1,0.2,0.2,0.3,0.3,0.5c0.1,0.2,0.2,0.3,0.3,0.5h0c0-0.2,0-0.5,0-0.7
				c0-0.2,0-0.5,0-0.7v-3.4H87v5.8h-0.6l-2.5-3.6c-0.1-0.2-0.3-0.4-0.4-0.6c-0.1-0.2-0.2-0.4-0.4-0.6h0c0,0.3,0,0.5,0,0.8
				c0,0.3,0,0.5,0,0.8v3.2h-0.6V103.3z"/>
			<path class="st1" d="M91.9,103.3h0.6l2.2,5.8h-0.7l-0.6-1.7h-2.5l-0.6,1.7h-0.7L91.9,103.3z M91.1,106.9h2.1l-0.5-1.2
				c-0.1-0.2-0.2-0.5-0.3-0.7c-0.1-0.3-0.2-0.6-0.3-0.9h0c0,0.2-0.1,0.3-0.1,0.5c0,0.1-0.1,0.3-0.1,0.4c0,0.1-0.1,0.3-0.1,0.4
				c0,0.1-0.1,0.3-0.1,0.4L91.1,106.9z"/>
		</g>
	</g>
	<g>
		<rect x="133.8" y="0" class="st3" width="130.9" height="130.8"/>
		<g>
			<path class="st1" d="M159.4,32.7h-2.7v3.6h-1v-8.1h4.2V29h-3.2v2.8h2.7V32.7z"/>
			<path class="st1" d="M163.9,36.3c-0.1-0.1-0.1-0.3-0.1-0.7c-0.3,0.5-0.8,0.8-1.3,0.8c-0.5,0-1-0.2-1.3-0.5
				c-0.3-0.3-0.5-0.7-0.5-1.3c0-0.6,0.2-1.1,0.6-1.5s1-0.5,1.7-0.6h0.7V32c0-0.4-0.1-0.6-0.2-0.8c-0.2-0.2-0.4-0.2-0.7-0.2
				c-0.3,0-0.5,0.1-0.7,0.3s-0.3,0.4-0.3,0.7h-1c0-0.3,0.1-0.6,0.3-0.9s0.4-0.5,0.7-0.7c0.3-0.2,0.7-0.2,1-0.2
				c0.6,0,1.1,0.2,1.4,0.5c0.3,0.3,0.5,0.8,0.5,1.3v3c0,0.5,0.1,0.9,0.2,1.2v0.1H163.9z M162.6,35.5c0.2,0,0.5-0.1,0.7-0.2
				s0.4-0.3,0.5-0.5v-1.4h-0.6c-0.5,0-0.8,0.1-1.1,0.3c-0.3,0.2-0.4,0.5-0.4,0.8c0,0.3,0.1,0.6,0.2,0.7
				C162.1,35.4,162.3,35.5,162.6,35.5z"/>
			<path class="st1" d="M168.4,35.5c0.3,0,0.6-0.1,0.8-0.3c0.2-0.2,0.3-0.5,0.3-0.9h0.9c0,0.6-0.2,1.1-0.6,1.4
				c-0.4,0.4-0.9,0.6-1.4,0.6c-0.7,0-1.3-0.2-1.7-0.7s-0.6-1.2-0.6-2.1v-0.7c0-0.9,0.2-1.6,0.6-2.1c0.4-0.5,1-0.7,1.7-0.7
				c0.6,0,1.1,0.2,1.5,0.6s0.6,0.9,0.6,1.6h-0.9c0-0.4-0.1-0.8-0.3-1c-0.2-0.2-0.5-0.3-0.8-0.3c-0.4,0-0.8,0.1-1,0.4
				c-0.2,0.3-0.3,0.8-0.3,1.4v0.8c0,0.7,0.1,1.2,0.3,1.5C167.6,35.4,167.9,35.5,168.4,35.5z"/>
			<path class="st1" d="M174.6,35.7c-0.3,0.4-0.8,0.6-1.4,0.6c-0.5,0-1-0.2-1.2-0.6c-0.3-0.4-0.4-0.9-0.4-1.6v-3.9h1v3.9
				c0,0.9,0.3,1.4,0.8,1.4c0.6,0,1-0.3,1.2-0.8v-4.5h1v6h-0.9L174.6,35.7z"/>
			<path class="st1" d="M178.1,36.3h-1v-8.6h1V36.3z"/>
			<path class="st1" d="M181,28.8v1.5h0.9V31H181v3.7c0,0.2,0,0.4,0.1,0.5c0.1,0.1,0.2,0.2,0.4,0.2c0.1,0,0.3,0,0.4-0.1l0,0.8
				c-0.2,0.1-0.5,0.1-0.7,0.1c-0.4,0-0.7-0.1-0.9-0.4s-0.3-0.7-0.3-1.2V31h-0.9v-0.8h0.9v-1.5H181z"/>
			<path class="st1" d="M186.2,36.3c-0.1-0.1-0.1-0.3-0.1-0.7c-0.3,0.5-0.8,0.8-1.3,0.8c-0.5,0-1-0.2-1.3-0.5
				c-0.3-0.3-0.5-0.7-0.5-1.3c0-0.6,0.2-1.1,0.6-1.5c0.4-0.4,1-0.5,1.7-0.6h0.7V32c0-0.4-0.1-0.6-0.2-0.8c-0.2-0.2-0.4-0.2-0.7-0.2
				c-0.3,0-0.5,0.1-0.7,0.3s-0.3,0.4-0.3,0.7h-1c0-0.3,0.1-0.6,0.3-0.9s0.4-0.5,0.7-0.7c0.3-0.2,0.7-0.2,1-0.2
				c0.6,0,1.1,0.2,1.4,0.5c0.3,0.3,0.5,0.8,0.5,1.3v3c0,0.5,0.1,0.9,0.2,1.2v0.1H186.2z M184.8,35.5c0.2,0,0.5-0.1,0.7-0.2
				s0.4-0.3,0.5-0.5v-1.4h-0.6c-0.5,0-0.8,0.1-1.1,0.3c-0.3,0.2-0.4,0.5-0.4,0.8c0,0.3,0.1,0.6,0.2,0.7
				C184.3,35.4,184.5,35.5,184.8,35.5z"/>
			<path class="st1" d="M188.3,33c0-0.9,0.2-1.6,0.5-2.1s0.8-0.7,1.5-0.7c0.6,0,1,0.2,1.3,0.7v-3.1h1v8.6h-0.9l0-0.6
				c-0.3,0.5-0.8,0.8-1.4,0.8c-0.6,0-1.1-0.2-1.5-0.7c-0.4-0.5-0.5-1.2-0.5-2.1V33z M189.3,33.5c0,0.7,0.1,1.2,0.3,1.5
				s0.5,0.5,1,0.5c0.5,0,0.9-0.2,1.1-0.7v-3c-0.3-0.5-0.6-0.7-1.1-0.7c-0.5,0-0.8,0.2-1,0.5c-0.2,0.3-0.3,0.8-0.3,1.5V33.5z"/>
		</g>
		<g>
			<path class="st1" d="M156.7,47h3.2v0.9h-4.2v-8.1h1V47z"/>
			<path class="st1" d="M164,47.9c-0.1-0.1-0.1-0.3-0.1-0.7c-0.3,0.5-0.8,0.8-1.3,0.8c-0.5,0-1-0.2-1.3-0.5
				c-0.3-0.3-0.5-0.7-0.5-1.3c0-0.6,0.2-1.1,0.6-1.5c0.4-0.4,1-0.5,1.7-0.6h0.7v-0.6c0-0.4-0.1-0.6-0.2-0.8
				c-0.2-0.2-0.4-0.2-0.7-0.2c-0.3,0-0.5,0.1-0.7,0.3s-0.3,0.4-0.3,0.7h-1c0-0.3,0.1-0.6,0.3-0.9s0.4-0.5,0.7-0.7
				c0.3-0.2,0.7-0.2,1-0.2c0.6,0,1.1,0.2,1.4,0.5c0.3,0.3,0.5,0.8,0.5,1.3v3c0,0.5,0.1,0.9,0.2,1.2v0.1H164z M162.7,47.1
				c0.2,0,0.5-0.1,0.7-0.2s0.4-0.3,0.5-0.5v-1.4h-0.6c-0.5,0-0.8,0.1-1.1,0.3c-0.3,0.2-0.4,0.5-0.4,0.8c0,0.3,0.1,0.6,0.2,0.7
				C162.2,47,162.4,47.1,162.7,47.1z"/>
			<path class="st1" d="M167.7,40.4v1.5h0.9v0.8h-0.9v3.7c0,0.2,0,0.4,0.1,0.5c0.1,0.1,0.2,0.2,0.4,0.2c0.1,0,0.3,0,0.4-0.1l0,0.8
				c-0.2,0.1-0.5,0.1-0.7,0.1c-0.4,0-0.7-0.1-0.9-0.4s-0.3-0.7-0.3-1.2v-3.7h-0.9v-0.8h0.9v-1.5H167.7z"/>
			<path class="st1" d="M170.9,40.2c0,0.2,0,0.3-0.1,0.4s-0.2,0.2-0.4,0.2c-0.2,0-0.3-0.1-0.4-0.2s-0.1-0.3-0.1-0.4s0-0.3,0.1-0.4
				s0.2-0.2,0.4-0.2s0.3,0.1,0.4,0.2C170.9,39.9,170.9,40.1,170.9,40.2z M170.8,47.9h-1v-6h1V47.9z"/>
			<path class="st1" d="M173.3,41.8l0,0.7c0.4-0.5,0.9-0.8,1.5-0.8c1.1,0,1.6,0.7,1.6,2.1v4h-1v-4c0-0.5-0.1-0.8-0.2-1
				c-0.2-0.2-0.4-0.3-0.7-0.3c-0.2,0-0.5,0.1-0.7,0.2c-0.2,0.2-0.4,0.4-0.5,0.6v4.4h-1v-6H173.3z"/>
			<path class="st1" d="M177.7,44.6c0-0.9,0.2-1.6,0.6-2.1c0.4-0.5,1-0.8,1.7-0.8c0.7,0,1.3,0.2,1.7,0.7c0.4,0.5,0.6,1.2,0.7,2v0.6
				c0,0.9-0.2,1.6-0.6,2.1s-1,0.8-1.7,0.8c-0.7,0-1.3-0.2-1.7-0.7c-0.4-0.5-0.6-1.2-0.7-2V44.6z M178.7,45.1c0,0.6,0.1,1.1,0.4,1.5
				c0.2,0.4,0.6,0.5,1,0.5c0.9,0,1.3-0.6,1.3-1.9v-0.7c0-0.6-0.1-1.1-0.4-1.5c-0.2-0.4-0.6-0.5-1-0.5c-0.4,0-0.7,0.2-1,0.5
				c-0.2,0.4-0.4,0.8-0.4,1.5V45.1z"/>
			<path class="st1" d="M186.7,47.9c-0.1-0.1-0.1-0.3-0.1-0.7c-0.3,0.5-0.8,0.8-1.3,0.8c-0.5,0-1-0.2-1.3-0.5
				c-0.3-0.3-0.5-0.7-0.5-1.3c0-0.6,0.2-1.1,0.6-1.5c0.4-0.4,1-0.5,1.7-0.6h0.7v-0.6c0-0.4-0.1-0.6-0.2-0.8
				c-0.2-0.2-0.4-0.2-0.7-0.2c-0.3,0-0.5,0.1-0.7,0.3s-0.3,0.4-0.3,0.7h-1c0-0.3,0.1-0.6,0.3-0.9c0.2-0.3,0.4-0.5,0.7-0.7
				c0.3-0.2,0.7-0.2,1-0.2c0.6,0,1.1,0.2,1.4,0.5c0.3,0.3,0.5,0.8,0.5,1.3v3c0,0.5,0.1,0.9,0.2,1.2v0.1H186.7z M185.4,47.1
				c0.2,0,0.5-0.1,0.7-0.2c0.2-0.1,0.4-0.3,0.5-0.5v-1.4H186c-0.5,0-0.8,0.1-1.1,0.3c-0.3,0.2-0.4,0.5-0.4,0.8
				c0,0.3,0.1,0.6,0.2,0.7C184.9,47,185.1,47.1,185.4,47.1z"/>
			<path class="st1" d="M190,41.8l0,0.6c0.4-0.4,0.9-0.7,1.5-0.7c0.7,0,1.1,0.3,1.4,0.9c0.4-0.6,0.9-0.9,1.6-0.9
				c1.1,0,1.7,0.7,1.7,2.1v4.1h-1v-4c0-0.4-0.1-0.8-0.2-1c-0.2-0.2-0.4-0.3-0.8-0.3c-0.3,0-0.5,0.1-0.7,0.3
				c-0.2,0.2-0.3,0.5-0.3,0.9v4h-1v-4c0-0.8-0.4-1.3-1-1.3c-0.5,0-0.8,0.2-1.1,0.7v4.5h-1v-6H190z"/>
			<path class="st1" d="M199.8,48c-0.7,0-1.3-0.2-1.7-0.7c-0.4-0.4-0.6-1.1-0.6-2v-0.7c0-0.9,0.2-1.6,0.6-2.1
				c0.4-0.5,0.9-0.8,1.6-0.8c0.7,0,1.2,0.2,1.6,0.7c0.3,0.4,0.5,1.1,0.5,2.1v0.6h-3.4v0.1c0,0.6,0.1,1.1,0.4,1.4
				c0.2,0.3,0.6,0.4,1,0.4c0.3,0,0.5-0.1,0.8-0.2c0.2-0.1,0.4-0.3,0.6-0.5l0.5,0.6C201.3,47.7,200.7,48,199.8,48z M199.7,42.6
				c-0.4,0-0.7,0.1-0.9,0.4c-0.2,0.3-0.3,0.7-0.3,1.3h2.4v-0.1c0-0.6-0.1-1-0.3-1.2C200.4,42.7,200.1,42.6,199.7,42.6z"/>
			<path class="st1" d="M205.5,42.8c-0.1,0-0.3,0-0.4,0c-0.5,0-0.9,0.3-1.1,0.8v4.3h-1v-6h1l0,0.6c0.3-0.5,0.6-0.7,1.1-0.7
				c0.2,0,0.3,0,0.4,0.1L205.5,42.8z"/>
			<path class="st1" d="M207.6,40.2c0,0.2,0,0.3-0.1,0.4c-0.1,0.1-0.2,0.2-0.4,0.2c-0.2,0-0.3-0.1-0.4-0.2c-0.1-0.1-0.1-0.3-0.1-0.4
				s0-0.3,0.1-0.4c0.1-0.1,0.2-0.2,0.4-0.2s0.3,0.1,0.4,0.2C207.6,39.9,207.6,40.1,207.6,40.2z M207.5,47.9h-1v-6h1V47.9z"/>
			<path class="st1" d="M211.2,47.1c0.3,0,0.6-0.1,0.8-0.3c0.2-0.2,0.3-0.5,0.3-0.9h0.9c0,0.6-0.2,1.1-0.6,1.4
				c-0.4,0.4-0.9,0.6-1.4,0.6c-0.7,0-1.3-0.2-1.7-0.7s-0.6-1.2-0.6-2.1v-0.7c0-0.9,0.2-1.6,0.6-2.1c0.4-0.5,1-0.7,1.7-0.7
				c0.6,0,1.1,0.2,1.5,0.6s0.6,0.9,0.6,1.6h-0.9c0-0.4-0.1-0.8-0.3-1s-0.5-0.3-0.8-0.3c-0.4,0-0.8,0.1-1,0.4s-0.3,0.8-0.3,1.4v0.8
				c0,0.7,0.1,1.2,0.3,1.5C210.4,47,210.7,47.1,211.2,47.1z"/>
			<path class="st1" d="M217.5,47.9c-0.1-0.1-0.1-0.3-0.1-0.7c-0.3,0.5-0.8,0.8-1.3,0.8c-0.5,0-1-0.2-1.3-0.5
				c-0.3-0.3-0.5-0.7-0.5-1.3c0-0.6,0.2-1.1,0.6-1.5c0.4-0.4,1-0.5,1.7-0.6h0.7v-0.6c0-0.4-0.1-0.6-0.2-0.8s-0.4-0.2-0.7-0.2
				c-0.3,0-0.5,0.1-0.7,0.3s-0.3,0.4-0.3,0.7h-1c0-0.3,0.1-0.6,0.3-0.9s0.4-0.5,0.7-0.7c0.3-0.2,0.7-0.2,1-0.2
				c0.6,0,1.1,0.2,1.4,0.5c0.3,0.3,0.5,0.8,0.5,1.3v3c0,0.5,0.1,0.9,0.2,1.2v0.1H217.5z M216.1,47.1c0.2,0,0.5-0.1,0.7-0.2
				s0.4-0.3,0.5-0.5v-1.4h-0.6c-0.5,0-0.8,0.1-1.1,0.3c-0.3,0.2-0.4,0.5-0.4,0.8c0,0.3,0.1,0.6,0.2,0.7
				C215.6,47,215.8,47.1,216.1,47.1z"/>
			<path class="st1" d="M220.7,41.8l0,0.7c0.4-0.5,0.9-0.8,1.5-0.8c1.1,0,1.6,0.7,1.6,2.1v4h-1v-4c0-0.5-0.1-0.8-0.2-1
				c-0.2-0.2-0.4-0.3-0.7-0.3c-0.2,0-0.5,0.1-0.7,0.2c-0.2,0.2-0.4,0.4-0.5,0.6v4.4h-1v-6H220.7z"/>
			<path class="st1" d="M228.4,47.9c-0.1-0.1-0.1-0.3-0.1-0.7c-0.3,0.5-0.8,0.8-1.3,0.8c-0.5,0-1-0.2-1.3-0.5
				c-0.3-0.3-0.5-0.7-0.5-1.3c0-0.6,0.2-1.1,0.6-1.5c0.4-0.4,1-0.5,1.7-0.6h0.7v-0.6c0-0.4-0.1-0.6-0.2-0.8
				c-0.2-0.2-0.4-0.2-0.7-0.2c-0.3,0-0.5,0.1-0.7,0.3s-0.3,0.4-0.3,0.7h-1c0-0.3,0.1-0.6,0.3-0.9s0.4-0.5,0.7-0.7
				c0.3-0.2,0.7-0.2,1-0.2c0.6,0,1.1,0.2,1.4,0.5c0.3,0.3,0.5,0.8,0.5,1.3v3c0,0.5,0.1,0.9,0.2,1.2v0.1H228.4z M227.1,47.1
				c0.2,0,0.5-0.1,0.7-0.2s0.4-0.3,0.5-0.5v-1.4h-0.6c-0.5,0-0.8,0.1-1.1,0.3c-0.3,0.2-0.4,0.5-0.4,0.8c0,0.3,0.1,0.6,0.2,0.7
				C226.6,47,226.8,47.1,227.1,47.1z"/>
			<path class="st1" d="M233.2,44.6c0-0.9,0.2-1.6,0.5-2.1c0.3-0.5,0.8-0.7,1.5-0.7c0.6,0,1,0.2,1.3,0.7v-3.1h1v8.6h-0.9l0-0.6
				c-0.3,0.5-0.8,0.8-1.4,0.8c-0.6,0-1.1-0.2-1.5-0.7c-0.4-0.5-0.5-1.2-0.5-2.1V44.6z M234.2,45.1c0,0.7,0.1,1.2,0.3,1.5
				s0.5,0.5,1,0.5c0.5,0,0.9-0.2,1.1-0.7v-3c-0.3-0.5-0.6-0.7-1.1-0.7c-0.5,0-0.8,0.2-1,0.5c-0.2,0.3-0.3,0.8-0.3,1.5V45.1z"/>
			<path class="st1" d="M241.2,48c-0.7,0-1.3-0.2-1.7-0.7s-0.6-1.1-0.6-2v-0.7c0-0.9,0.2-1.6,0.6-2.1c0.4-0.5,0.9-0.8,1.6-0.8
				c0.7,0,1.2,0.2,1.6,0.7c0.3,0.4,0.5,1.1,0.5,2.1v0.6h-3.4v0.1c0,0.6,0.1,1.1,0.4,1.4c0.2,0.3,0.6,0.4,1,0.4
				c0.3,0,0.5-0.1,0.8-0.2s0.4-0.3,0.6-0.5l0.5,0.6C242.7,47.7,242.1,48,241.2,48z M241.1,42.6c-0.4,0-0.7,0.1-0.9,0.4
				s-0.3,0.7-0.3,1.3h2.4v-0.1c0-0.6-0.1-1-0.3-1.2C241.8,42.7,241.5,42.6,241.1,42.6z"/>
		</g>
		<g>
			<path class="st1" d="M160.7,56.9c0,0.9-0.3,1.5-0.7,2c-0.4,0.5-1.1,0.7-1.9,0.7c-0.8,0-1.5-0.3-1.9-0.9s-0.7-1.5-0.7-2.5v-1.5
				c0-1.1,0.2-1.9,0.7-2.5s1.2-0.9,2-0.9c0.8,0,1.4,0.2,1.8,0.7s0.7,1.1,0.7,2h-1c0-0.7-0.2-1.1-0.4-1.4c-0.2-0.3-0.6-0.4-1.1-0.4
				c-0.6,0-1,0.2-1.3,0.6c-0.3,0.4-0.4,1.1-0.4,1.9v1.5c0,0.8,0.1,1.5,0.4,1.9c0.3,0.4,0.7,0.7,1.2,0.7c0.5,0,0.9-0.1,1.1-0.4
				s0.4-0.7,0.4-1.4H160.7z"/>
			<path class="st1" d="M163.1,51.9c0,0.2,0,0.3-0.1,0.4s-0.2,0.2-0.4,0.2c-0.2,0-0.3-0.1-0.4-0.2S162,52,162,51.9s0-0.3,0.1-0.4
				s0.2-0.2,0.4-0.2c0.2,0,0.3,0.1,0.4,0.2C163.1,51.6,163.1,51.7,163.1,51.9z M163,59.5h-1v-6h1V59.5z"/>
			<path class="st1" d="M166.7,59.6c-0.7,0-1.3-0.2-1.7-0.7s-0.6-1.1-0.6-2v-0.7c0-0.9,0.2-1.6,0.6-2.1c0.4-0.5,0.9-0.8,1.6-0.8
				c0.7,0,1.2,0.2,1.6,0.7c0.3,0.4,0.5,1.1,0.5,2.1v0.6h-3.4v0.1c0,0.6,0.1,1.1,0.4,1.4c0.2,0.3,0.6,0.4,1,0.4
				c0.3,0,0.5-0.1,0.8-0.2c0.2-0.1,0.4-0.3,0.6-0.5l0.5,0.6C168.3,59.3,167.6,59.6,166.7,59.6z M166.6,54.2c-0.4,0-0.7,0.1-0.9,0.4
				s-0.3,0.7-0.3,1.3h2.4v-0.1c0-0.6-0.1-1-0.3-1.2C167.3,54.3,167,54.2,166.6,54.2z"/>
			<path class="st1" d="M170.9,53.5l0,0.7c0.4-0.5,0.9-0.8,1.5-0.8c1.1,0,1.6,0.7,1.6,2.1v4h-1v-4c0-0.5-0.1-0.8-0.2-1
				c-0.2-0.2-0.4-0.3-0.7-0.3c-0.2,0-0.5,0.1-0.7,0.2c-0.2,0.2-0.4,0.4-0.5,0.6v4.4h-1v-6H170.9z"/>
			<path class="st1" d="M177.5,58.7c0.3,0,0.6-0.1,0.8-0.3c0.2-0.2,0.3-0.5,0.3-0.9h0.9c0,0.6-0.2,1.1-0.6,1.4
				c-0.4,0.4-0.9,0.6-1.4,0.6c-0.7,0-1.3-0.2-1.7-0.7s-0.6-1.2-0.6-2.1v-0.7c0-0.9,0.2-1.6,0.6-2.1c0.4-0.5,1-0.7,1.7-0.7
				c0.6,0,1.1,0.2,1.5,0.6c0.4,0.4,0.6,0.9,0.6,1.6h-0.9c0-0.4-0.1-0.8-0.3-1c-0.2-0.2-0.5-0.3-0.8-0.3c-0.4,0-0.8,0.1-1,0.4
				c-0.2,0.3-0.3,0.8-0.3,1.4v0.8c0,0.7,0.1,1.2,0.3,1.5C176.8,58.6,177.1,58.7,177.5,58.7z"/>
			<path class="st1" d="M181.9,51.9c0,0.2,0,0.3-0.1,0.4s-0.2,0.2-0.4,0.2c-0.2,0-0.3-0.1-0.4-0.2s-0.1-0.3-0.1-0.4s0-0.3,0.1-0.4
				s0.2-0.2,0.4-0.2c0.2,0,0.3,0.1,0.4,0.2C181.8,51.6,181.9,51.7,181.9,51.9z M181.8,59.5h-1v-6h1V59.5z"/>
			<path class="st1" d="M186.4,59.5c-0.1-0.1-0.1-0.3-0.1-0.7c-0.3,0.5-0.8,0.8-1.3,0.8c-0.5,0-1-0.2-1.3-0.5
				c-0.3-0.3-0.5-0.7-0.5-1.3c0-0.6,0.2-1.1,0.6-1.5c0.4-0.4,1-0.5,1.7-0.6h0.7v-0.6c0-0.4-0.1-0.6-0.2-0.8s-0.4-0.2-0.7-0.2
				c-0.3,0-0.5,0.1-0.7,0.3s-0.3,0.4-0.3,0.7h-1c0-0.3,0.1-0.6,0.3-0.9c0.2-0.3,0.4-0.5,0.7-0.7c0.3-0.2,0.7-0.2,1-0.2
				c0.6,0,1.1,0.2,1.4,0.5c0.3,0.3,0.5,0.8,0.5,1.3v3c0,0.5,0.1,0.9,0.2,1.2v0.1H186.4z M185.1,58.7c0.2,0,0.5-0.1,0.7-0.2
				c0.2-0.1,0.4-0.3,0.5-0.5v-1.4h-0.6c-0.5,0-0.8,0.1-1.1,0.3c-0.3,0.2-0.4,0.5-0.4,0.8c0,0.3,0.1,0.6,0.2,0.7
				C184.6,58.6,184.8,58.7,185.1,58.7z"/>
			<path class="st1" d="M191.7,57.9c0-0.2-0.1-0.4-0.2-0.5c-0.2-0.2-0.5-0.3-0.9-0.5c-0.5-0.2-0.9-0.4-1.1-0.6
				c-0.2-0.2-0.4-0.3-0.5-0.5c-0.1-0.2-0.2-0.4-0.2-0.7c0-0.5,0.2-0.9,0.5-1.2c0.4-0.3,0.8-0.5,1.4-0.5c0.6,0,1.1,0.2,1.4,0.5
				s0.5,0.8,0.5,1.3h-1c0-0.3-0.1-0.5-0.3-0.7s-0.4-0.3-0.7-0.3c-0.3,0-0.5,0.1-0.7,0.2c-0.2,0.2-0.2,0.4-0.2,0.6
				c0,0.2,0.1,0.4,0.2,0.5c0.1,0.1,0.4,0.3,0.9,0.5c0.7,0.3,1.2,0.6,1.5,0.8c0.3,0.3,0.4,0.6,0.4,1c0,0.5-0.2,0.9-0.5,1.3
				c-0.4,0.3-0.8,0.5-1.4,0.5c-0.6,0-1.1-0.2-1.5-0.5s-0.6-0.8-0.6-1.4h1c0,0.3,0.1,0.6,0.3,0.8s0.5,0.3,0.8,0.3
				c0.3,0,0.6-0.1,0.7-0.2C191.6,58.4,191.7,58.2,191.7,57.9z"/>
			<path class="st1" d="M200.3,57.4c0-0.4-0.1-0.7-0.3-0.9c-0.2-0.2-0.6-0.4-1.2-0.6c-0.6-0.2-1-0.4-1.3-0.6s-0.5-0.5-0.7-0.8
				c-0.2-0.3-0.2-0.6-0.2-1c0-0.6,0.2-1.2,0.6-1.6c0.4-0.4,1-0.6,1.7-0.6c0.5,0,0.9,0.1,1.3,0.3s0.7,0.5,0.9,0.9
				c0.2,0.4,0.3,0.8,0.3,1.2h-1c0-0.5-0.1-0.9-0.4-1.2s-0.6-0.4-1-0.4c-0.4,0-0.7,0.1-1,0.3s-0.3,0.6-0.3,1c0,0.3,0.1,0.6,0.4,0.9
				c0.2,0.2,0.6,0.4,1.1,0.6c0.8,0.3,1.4,0.6,1.7,1c0.3,0.4,0.5,0.9,0.5,1.5c0,0.7-0.2,1.2-0.6,1.6s-1,0.6-1.7,0.6
				c-0.5,0-0.9-0.1-1.3-0.3c-0.4-0.2-0.7-0.5-0.9-0.9c-0.2-0.4-0.3-0.8-0.3-1.3h1c0,0.5,0.1,0.9,0.4,1.2s0.7,0.4,1.1,0.4
				c0.4,0,0.8-0.1,1-0.3C200.2,58.1,200.3,57.8,200.3,57.4z"/>
			<path class="st1" d="M202.3,56.2c0-0.9,0.2-1.6,0.6-2.1c0.4-0.5,1-0.8,1.7-0.8s1.3,0.2,1.7,0.7c0.4,0.5,0.6,1.2,0.7,2v0.6
				c0,0.9-0.2,1.6-0.6,2.1c-0.4,0.5-1,0.8-1.7,0.8c-0.7,0-1.3-0.2-1.7-0.7c-0.4-0.5-0.6-1.2-0.7-2V56.2z M203.3,56.8
				c0,0.6,0.1,1.1,0.4,1.5s0.6,0.5,1,0.5c0.9,0,1.3-0.6,1.3-1.9v-0.7c0-0.6-0.1-1.1-0.4-1.5c-0.2-0.4-0.6-0.5-1-0.5
				c-0.4,0-0.7,0.2-1,0.5c-0.2,0.4-0.4,0.8-0.4,1.5V56.8z"/>
			<path class="st1" d="M210.3,58.7c0.3,0,0.6-0.1,0.8-0.3c0.2-0.2,0.3-0.5,0.3-0.9h0.9c0,0.6-0.2,1.1-0.6,1.4
				c-0.4,0.4-0.9,0.6-1.4,0.6c-0.7,0-1.3-0.2-1.7-0.7c-0.4-0.5-0.6-1.2-0.6-2.1v-0.7c0-0.9,0.2-1.6,0.6-2.1c0.4-0.5,1-0.7,1.7-0.7
				c0.6,0,1.1,0.2,1.5,0.6s0.6,0.9,0.6,1.6h-0.9c0-0.4-0.1-0.8-0.3-1s-0.5-0.3-0.8-0.3c-0.4,0-0.8,0.1-1,0.4
				c-0.2,0.3-0.3,0.8-0.3,1.4v0.8c0,0.7,0.1,1.2,0.3,1.5C209.5,58.6,209.9,58.7,210.3,58.7z"/>
			<path class="st1" d="M214.6,51.9c0,0.2,0,0.3-0.1,0.4c-0.1,0.1-0.2,0.2-0.4,0.2c-0.2,0-0.3-0.1-0.4-0.2c-0.1-0.1-0.1-0.3-0.1-0.4
				s0-0.3,0.1-0.4c0.1-0.1,0.2-0.2,0.4-0.2s0.3,0.1,0.4,0.2C214.6,51.6,214.6,51.7,214.6,51.9z M214.6,59.5h-1v-6h1V59.5z"/>
			<path class="st1" d="M219.2,59.5c-0.1-0.1-0.1-0.3-0.1-0.7c-0.3,0.5-0.8,0.8-1.3,0.8c-0.5,0-1-0.2-1.3-0.5
				c-0.3-0.3-0.5-0.7-0.5-1.3c0-0.6,0.2-1.1,0.6-1.5s1-0.5,1.7-0.6h0.7v-0.6c0-0.4-0.1-0.6-0.2-0.8s-0.4-0.2-0.7-0.2
				c-0.3,0-0.5,0.1-0.7,0.3s-0.3,0.4-0.3,0.7h-1c0-0.3,0.1-0.6,0.3-0.9s0.4-0.5,0.7-0.7c0.3-0.2,0.7-0.2,1-0.2
				c0.6,0,1.1,0.2,1.4,0.5c0.3,0.3,0.5,0.8,0.5,1.3v3c0,0.5,0.1,0.9,0.2,1.2v0.1H219.2z M217.9,58.7c0.2,0,0.5-0.1,0.7-0.2
				s0.4-0.3,0.5-0.5v-1.4h-0.6c-0.5,0-0.8,0.1-1.1,0.3c-0.3,0.2-0.4,0.5-0.4,0.8c0,0.3,0.1,0.6,0.2,0.7
				C217.3,58.6,217.6,58.7,217.9,58.7z"/>
			<path class="st1" d="M222.6,59.5h-1v-8.6h1V59.5z"/>
			<path class="st1" d="M226.3,59.6c-0.8,0-1.3-0.2-1.7-0.7c-0.4-0.4-0.6-1.1-0.6-2v-0.7c0-0.9,0.2-1.6,0.6-2.1
				c0.4-0.5,0.9-0.8,1.6-0.8c0.7,0,1.2,0.2,1.6,0.7c0.3,0.4,0.5,1.1,0.5,2.1v0.6H225v0.1c0,0.6,0.1,1.1,0.4,1.4
				c0.2,0.3,0.6,0.4,1,0.4c0.3,0,0.5-0.1,0.8-0.2s0.4-0.3,0.6-0.5l0.5,0.6C227.9,59.3,227.2,59.6,226.3,59.6z M226.2,54.2
				c-0.4,0-0.7,0.1-0.9,0.4c-0.2,0.3-0.3,0.7-0.3,1.3h2.4v-0.1c0-0.6-0.1-1-0.3-1.2C226.9,54.3,226.6,54.2,226.2,54.2z"/>
			<path class="st1" d="M232.5,57.9c0-0.2-0.1-0.4-0.2-0.5c-0.2-0.2-0.5-0.3-0.9-0.5c-0.5-0.2-0.9-0.4-1.1-0.6
				c-0.2-0.2-0.4-0.3-0.5-0.5s-0.2-0.4-0.2-0.7c0-0.5,0.2-0.9,0.5-1.2c0.4-0.3,0.8-0.5,1.4-0.5c0.6,0,1.1,0.2,1.4,0.5
				s0.5,0.8,0.5,1.3h-1c0-0.3-0.1-0.5-0.3-0.7c-0.2-0.2-0.4-0.3-0.7-0.3c-0.3,0-0.5,0.1-0.7,0.2c-0.2,0.2-0.2,0.4-0.2,0.6
				c0,0.2,0.1,0.4,0.2,0.5c0.1,0.1,0.4,0.3,0.9,0.5c0.7,0.3,1.2,0.6,1.5,0.8c0.3,0.3,0.4,0.6,0.4,1c0,0.5-0.2,0.9-0.5,1.3
				c-0.4,0.3-0.8,0.5-1.4,0.5c-0.6,0-1.1-0.2-1.5-0.5s-0.6-0.8-0.6-1.4h1c0,0.3,0.1,0.6,0.3,0.8c0.2,0.2,0.5,0.3,0.8,0.3
				c0.3,0,0.6-0.1,0.7-0.2S232.5,58.2,232.5,57.9z"/>
			<path class="st1" d="M234.8,58.9c0-0.2,0.1-0.3,0.2-0.4c0.1-0.1,0.3-0.2,0.5-0.2c0.2,0,0.4,0.1,0.5,0.2c0.1,0.1,0.2,0.3,0.2,0.4
				c0,0.2-0.1,0.3-0.2,0.4s-0.3,0.2-0.5,0.2c-0.2,0-0.4-0.1-0.5-0.2C234.8,59.3,234.8,59.1,234.8,58.9z"/>
		</g>
		<g>
			<path class="st1" d="M159.2,69c0-0.4-0.1-0.7-0.3-0.9c-0.2-0.2-0.6-0.4-1.2-0.6c-0.6-0.2-1-0.4-1.3-0.6s-0.5-0.5-0.7-0.8
				c-0.2-0.3-0.2-0.6-0.2-1c0-0.6,0.2-1.2,0.6-1.6c0.4-0.4,1-0.6,1.7-0.6c0.5,0,0.9,0.1,1.3,0.3s0.7,0.5,0.9,0.9
				c0.2,0.4,0.3,0.8,0.3,1.2h-1c0-0.5-0.1-0.9-0.4-1.2s-0.6-0.4-1-0.4c-0.4,0-0.7,0.1-1,0.3s-0.3,0.6-0.3,1c0,0.3,0.1,0.6,0.4,0.9
				c0.2,0.2,0.6,0.4,1.1,0.6c0.8,0.3,1.4,0.6,1.7,1c0.3,0.4,0.5,0.9,0.5,1.5c0,0.7-0.2,1.2-0.6,1.6c-0.4,0.4-1,0.6-1.7,0.6
				c-0.5,0-0.9-0.1-1.3-0.3c-0.4-0.2-0.7-0.5-0.9-0.9c-0.2-0.4-0.3-0.8-0.3-1.3h1c0,0.5,0.1,0.9,0.4,1.2s0.7,0.4,1.1,0.4
				c0.4,0,0.8-0.1,1-0.3C159.1,69.8,159.2,69.4,159.2,69z"/>
			<path class="st1" d="M163.6,71.2c-0.8,0-1.3-0.2-1.7-0.7s-0.6-1.1-0.6-2v-0.7c0-0.9,0.2-1.6,0.6-2.1c0.4-0.5,0.9-0.8,1.6-0.8
				c0.7,0,1.2,0.2,1.6,0.7s0.5,1.1,0.5,2.1v0.6h-3.4v0.1c0,0.6,0.1,1.1,0.4,1.4c0.2,0.3,0.6,0.4,1,0.4c0.3,0,0.5-0.1,0.8-0.2
				s0.4-0.3,0.6-0.5l0.5,0.6C165.1,70.9,164.5,71.2,163.6,71.2z M163.5,65.8c-0.4,0-0.7,0.1-0.9,0.4s-0.3,0.7-0.3,1.3h2.4v-0.1
				c0-0.6-0.1-1-0.3-1.2C164.1,65.9,163.8,65.8,163.5,65.8z"/>
			<path class="st1" d="M166.6,67.8c0-0.9,0.2-1.6,0.5-2.1c0.3-0.5,0.8-0.7,1.5-0.7c0.6,0,1,0.2,1.3,0.7v-3.1h1v8.6H170l0-0.6
				c-0.3,0.5-0.8,0.8-1.4,0.8c-0.6,0-1.1-0.2-1.5-0.7c-0.4-0.5-0.5-1.2-0.5-2.1V67.8z M167.5,68.4c0,0.7,0.1,1.2,0.3,1.5
				c0.2,0.3,0.5,0.5,1,0.5c0.5,0,0.9-0.2,1.1-0.7v-3c-0.3-0.5-0.6-0.7-1.1-0.7c-0.5,0-0.8,0.2-1,0.5c-0.2,0.3-0.3,0.8-0.3,1.5V68.4z
				"/>
			<path class="st1" d="M174.6,71.2c-0.7,0-1.3-0.2-1.7-0.7s-0.6-1.1-0.6-2v-0.7c0-0.9,0.2-1.6,0.6-2.1c0.4-0.5,0.9-0.8,1.6-0.8
				c0.7,0,1.2,0.2,1.6,0.7c0.3,0.4,0.5,1.1,0.5,2.1v0.6h-3.4v0.1c0,0.6,0.1,1.1,0.4,1.4c0.2,0.3,0.6,0.4,1,0.4
				c0.3,0,0.5-0.1,0.8-0.2c0.2-0.1,0.4-0.3,0.6-0.5l0.5,0.6C176.1,70.9,175.5,71.2,174.6,71.2z M174.5,65.8c-0.4,0-0.7,0.1-0.9,0.4
				s-0.3,0.7-0.3,1.3h2.4v-0.1c0-0.6-0.1-1-0.3-1.2C175.1,65.9,174.8,65.8,174.5,65.8z"/>
			<path class="st1" d="M184.3,69h-2.7l-0.6,2.1h-1l2.6-8.1h0.9l2.6,8.1h-1L184.3,69z M181.8,68.1h2.2l-1.1-3.7L181.8,68.1z"/>
			<path class="st1" d="M189.4,66c-0.1,0-0.3,0-0.4,0c-0.5,0-0.9,0.3-1.1,0.8v4.3h-1v-6h1l0,0.6c0.3-0.5,0.6-0.7,1.1-0.7
				c0.2,0,0.3,0,0.4,0.1L189.4,66z"/>
			<path class="st1" d="M190.1,67.8c0-0.9,0.2-1.6,0.5-2.1s0.8-0.7,1.5-0.7c0.6,0,1.1,0.3,1.4,0.8l0.1-0.7h0.9v6.1
				c0,0.7-0.2,1.3-0.6,1.7c-0.4,0.4-0.9,0.6-1.6,0.6c-0.3,0-0.6-0.1-1-0.2c-0.4-0.1-0.6-0.3-0.8-0.5l0.4-0.7
				c0.4,0.4,0.9,0.6,1.4,0.6c0.8,0,1.2-0.4,1.3-1.3v-0.8c-0.3,0.5-0.8,0.7-1.4,0.7c-0.6,0-1.1-0.2-1.5-0.7c-0.3-0.5-0.5-1.1-0.5-2
				V67.8z M191.1,68.4c0,0.7,0.1,1.2,0.3,1.5c0.2,0.3,0.5,0.5,1,0.5c0.5,0,0.9-0.2,1.1-0.8v-3c-0.3-0.5-0.6-0.7-1.1-0.7
				c-0.5,0-0.8,0.2-1,0.5c-0.2,0.3-0.3,0.8-0.3,1.5V68.4z"/>
			<path class="st1" d="M198.1,71.2c-0.7,0-1.3-0.2-1.7-0.7c-0.4-0.4-0.6-1.1-0.6-2v-0.7c0-0.9,0.2-1.6,0.6-2.1
				c0.4-0.5,0.9-0.8,1.6-0.8c0.7,0,1.2,0.2,1.6,0.7c0.3,0.4,0.5,1.1,0.5,2.1v0.6h-3.4v0.1c0,0.6,0.1,1.1,0.4,1.4
				c0.2,0.3,0.6,0.4,1,0.4c0.3,0,0.5-0.1,0.8-0.2c0.2-0.1,0.4-0.3,0.6-0.5l0.5,0.6C199.6,70.9,199,71.2,198.1,71.2z M198,65.8
				c-0.4,0-0.7,0.1-0.9,0.4c-0.2,0.3-0.3,0.7-0.3,1.3h2.4v-0.1c0-0.6-0.1-1-0.3-1.2C198.6,65.9,198.4,65.8,198,65.8z"/>
			<path class="st1" d="M202.2,65.1l0,0.7c0.4-0.5,0.9-0.8,1.5-0.8c1.1,0,1.6,0.7,1.6,2.1v4h-1v-4c0-0.5-0.1-0.8-0.2-1
				c-0.2-0.2-0.4-0.3-0.7-0.3c-0.2,0-0.5,0.1-0.7,0.2c-0.2,0.2-0.4,0.4-0.5,0.6v4.4h-1v-6H202.2z"/>
			<path class="st1" d="M208.1,63.6v1.5h0.9v0.8h-0.9v3.7c0,0.2,0,0.4,0.1,0.5c0.1,0.1,0.2,0.2,0.4,0.2c0.1,0,0.3,0,0.4-0.1l0,0.8
				c-0.2,0.1-0.5,0.1-0.7,0.1c-0.4,0-0.7-0.1-0.9-0.4s-0.3-0.7-0.3-1.2v-3.7h-0.9v-0.8h0.9v-1.5H208.1z"/>
			<path class="st1" d="M211.3,63.5c0,0.2,0,0.3-0.1,0.4c-0.1,0.1-0.2,0.2-0.4,0.2c-0.2,0-0.3-0.1-0.4-0.2c-0.1-0.1-0.1-0.3-0.1-0.4
				s0-0.3,0.1-0.4c0.1-0.1,0.2-0.2,0.4-0.2s0.3,0.1,0.4,0.2C211.3,63.2,211.3,63.3,211.3,63.5z M211.2,71.1h-1v-6h1V71.1z"/>
			<path class="st1" d="M213.7,65.1l0,0.7c0.4-0.5,0.9-0.8,1.5-0.8c1.1,0,1.6,0.7,1.6,2.1v4h-1v-4c0-0.5-0.1-0.8-0.2-1
				c-0.2-0.2-0.4-0.3-0.7-0.3c-0.2,0-0.5,0.1-0.7,0.2c-0.2,0.2-0.4,0.4-0.5,0.6v4.4h-1v-6H213.7z"/>
			<path class="st1" d="M221.4,71.1c-0.1-0.1-0.1-0.3-0.1-0.7c-0.3,0.5-0.8,0.8-1.3,0.8c-0.5,0-1-0.2-1.3-0.5
				c-0.3-0.3-0.5-0.7-0.5-1.3c0-0.6,0.2-1.1,0.6-1.5s1-0.5,1.7-0.6h0.7v-0.6c0-0.4-0.1-0.6-0.2-0.8c-0.2-0.2-0.4-0.2-0.7-0.2
				c-0.3,0-0.5,0.1-0.7,0.3s-0.3,0.4-0.3,0.7h-1c0-0.3,0.1-0.6,0.3-0.9c0.2-0.3,0.4-0.5,0.7-0.7c0.3-0.2,0.7-0.2,1-0.2
				c0.6,0,1.1,0.2,1.4,0.5c0.3,0.3,0.5,0.8,0.5,1.3v3c0,0.5,0.1,0.9,0.2,1.2v0.1H221.4z M220.1,70.3c0.2,0,0.5-0.1,0.7-0.2
				c0.2-0.1,0.4-0.3,0.5-0.5v-1.4h-0.6c-0.5,0-0.8,0.1-1.1,0.3c-0.3,0.2-0.4,0.5-0.4,0.8c0,0.3,0.1,0.6,0.2,0.7
				C219.5,70.2,219.8,70.3,220.1,70.3z"/>
			<path class="st1" d="M223.8,70.6c0-0.2,0.1-0.3,0.2-0.4c0.1-0.1,0.3-0.2,0.5-0.2s0.4,0.1,0.5,0.2c0.1,0.1,0.2,0.3,0.2,0.4
				c0,0.2-0.1,0.3-0.2,0.4s-0.3,0.2-0.5,0.2s-0.4-0.1-0.5-0.2C223.9,70.9,223.8,70.7,223.8,70.6z"/>
		</g>
		<g>
			<path class="st1" d="M159.3,89.7h-2.2l-0.4,1.7h-1.7l2.5-8.1h1.5l2.5,8.1h-1.7L159.3,89.7z M158.5,81.1h1.8l-1.5,1.7h-1.3
				L158.5,81.1z M157.4,88.4h1.5l-0.8-2.9L157.4,88.4z"/>
			<path class="st1" d="M165.1,86.9l-0.5,0c-0.4,0-0.7,0.2-0.9,0.6v4h-1.6v-6h1.5l0,0.7c0.2-0.5,0.6-0.8,1-0.8c0.2,0,0.3,0,0.4,0.1
				L165.1,86.9z"/>
			<path class="st1" d="M168.3,91.5c-0.8,0-1.4-0.2-1.9-0.7s-0.7-1.2-0.7-2.1v-0.5c0-1,0.2-1.7,0.6-2.2s1-0.8,1.8-0.8
				c0.8,0,1.3,0.2,1.7,0.7c0.4,0.5,0.6,1.2,0.6,2.1v0.8h-3.1c0,0.4,0.1,0.8,0.3,1c0.2,0.2,0.4,0.3,0.8,0.3c0.5,0,1-0.2,1.3-0.5
				l0.6,1c-0.2,0.3-0.5,0.5-0.8,0.6C169.1,91.4,168.7,91.5,168.3,91.5z M167.3,87.8h1.6v-0.1c0-0.4-0.1-0.6-0.2-0.8
				c-0.1-0.2-0.3-0.3-0.6-0.3s-0.5,0.1-0.6,0.3C167.4,87,167.3,87.4,167.3,87.8z"/>
			<path class="st1" d="M174.2,91.4c0-0.1-0.1-0.2-0.1-0.5c-0.3,0.4-0.7,0.6-1.1,0.6c-0.5,0-0.9-0.2-1.3-0.5s-0.5-0.8-0.5-1.3
				c0-0.6,0.2-1.1,0.6-1.5c0.4-0.3,1-0.5,1.7-0.5h0.5v-0.5c0-0.3,0-0.5-0.1-0.6c-0.1-0.1-0.2-0.2-0.4-0.2c-0.4,0-0.6,0.2-0.6,0.7
				h-1.6c0-0.6,0.2-1,0.6-1.4c0.4-0.4,0.9-0.5,1.6-0.5c0.7,0,1.2,0.2,1.5,0.5c0.4,0.3,0.5,0.8,0.5,1.5v2.8c0,0.5,0.1,0.9,0.2,1.2
				v0.1H174.2z M173.2,90.3c0.2,0,0.3,0,0.4-0.1c0.1-0.1,0.2-0.2,0.3-0.3v-1.3h-0.4c-0.3,0-0.5,0.1-0.6,0.3
				c-0.2,0.2-0.2,0.4-0.2,0.7C172.7,90,172.9,90.3,173.2,90.3z"/>
			<path class="st1" d="M183.6,87.9H181V90h3v1.4h-4.7v-8.1h4.6v1.4h-3v1.9h2.6V87.9z"/>
			<path class="st1" d="M187.6,89.8c0-0.1-0.1-0.3-0.2-0.4s-0.4-0.3-0.9-0.5c-0.6-0.3-1.1-0.5-1.3-0.8s-0.4-0.6-0.4-1.1
				c0-0.5,0.2-1,0.6-1.3c0.4-0.3,0.9-0.5,1.5-0.5c0.7,0,1.2,0.2,1.6,0.5c0.4,0.3,0.6,0.8,0.6,1.4h-1.6c0-0.5-0.2-0.7-0.6-0.7
				c-0.2,0-0.3,0.1-0.4,0.2c-0.1,0.1-0.2,0.2-0.2,0.4c0,0.1,0.1,0.3,0.2,0.4c0.1,0.1,0.4,0.2,0.8,0.4c0.6,0.2,1.1,0.5,1.4,0.8
				c0.3,0.3,0.4,0.7,0.4,1.1c0,0.5-0.2,1-0.6,1.3c-0.4,0.3-0.9,0.5-1.6,0.5c-0.4,0-0.8-0.1-1.2-0.3s-0.6-0.4-0.8-0.7
				c-0.2-0.3-0.3-0.6-0.3-1h1.5c0,0.3,0.1,0.5,0.2,0.6c0.1,0.1,0.3,0.2,0.6,0.2C187.4,90.3,187.6,90.1,187.6,89.8z"/>
			<path class="st1" d="M191.9,83.9v1.5h0.8v1.2h-0.8v3c0,0.2,0,0.4,0.1,0.5c0.1,0.1,0.2,0.1,0.4,0.1c0.2,0,0.3,0,0.4,0l0,1.2
				c-0.3,0.1-0.6,0.2-0.9,0.2c-1,0-1.5-0.6-1.5-1.8v-3.2h-0.7v-1.2h0.7v-1.5H191.9z"/>
			<path class="st1" d="M196.4,91.4c0-0.1-0.1-0.2-0.1-0.5c-0.3,0.4-0.7,0.6-1.1,0.6c-0.5,0-0.9-0.2-1.3-0.5
				c-0.3-0.3-0.5-0.8-0.5-1.3c0-0.6,0.2-1.1,0.6-1.5c0.4-0.3,1-0.5,1.7-0.5h0.5v-0.5c0-0.3,0-0.5-0.1-0.6c-0.1-0.1-0.2-0.2-0.4-0.2
				c-0.4,0-0.6,0.2-0.6,0.7h-1.6c0-0.6,0.2-1,0.6-1.4c0.4-0.4,0.9-0.5,1.6-0.5c0.7,0,1.2,0.2,1.5,0.5c0.4,0.3,0.5,0.8,0.5,1.5v2.8
				c0,0.5,0.1,0.9,0.2,1.2v0.1H196.4z M195.5,90.3c0.2,0,0.3,0,0.4-0.1s0.2-0.2,0.3-0.3v-1.3h-0.4c-0.3,0-0.5,0.1-0.6,0.3
				s-0.2,0.4-0.2,0.7C195,90,195.2,90.3,195.5,90.3z"/>
			<path class="st1" d="M198.7,88.2c0-1,0.2-1.7,0.5-2.2s0.8-0.7,1.5-0.7c0.5,0,0.8,0.2,1.2,0.6v-3h1.6v8.6H202l-0.1-0.6
				c-0.3,0.5-0.7,0.7-1.2,0.7c-0.6,0-1.1-0.2-1.4-0.7c-0.3-0.5-0.5-1.2-0.5-2.1V88.2z M200.3,88.6c0,0.6,0.1,1,0.2,1.2
				c0.1,0.2,0.3,0.4,0.6,0.4c0.3,0,0.5-0.1,0.7-0.4V87c-0.2-0.3-0.4-0.4-0.7-0.4c-0.3,0-0.5,0.1-0.6,0.4c-0.1,0.2-0.2,0.6-0.2,1.2
				V88.6z"/>
			<path class="st1" d="M204.4,88.2c0-0.9,0.2-1.6,0.6-2.1s1-0.8,1.8-0.8c0.8,0,1.4,0.3,1.8,0.8s0.6,1.2,0.6,2.2v0.4
				c0,0.9-0.2,1.6-0.6,2.1c-0.4,0.5-1,0.8-1.8,0.8c-0.8,0-1.4-0.3-1.8-0.8c-0.4-0.5-0.6-1.2-0.6-2.2V88.2z M206,88.6
				c0,1.1,0.3,1.6,0.9,1.6c0.5,0,0.8-0.4,0.9-1.3l0-0.7c0-0.5-0.1-1-0.2-1.2s-0.4-0.4-0.6-0.4c-0.3,0-0.5,0.1-0.6,0.4
				s-0.2,0.7-0.2,1.2V88.6z"/>
			<path class="st1" d="M214.8,88.8l0.8-3.4h1.7l-2,6.9c-0.3,1-0.9,1.5-1.7,1.5c-0.2,0-0.4,0-0.6-0.1v-1.2l0.2,0
				c0.2,0,0.4,0,0.6-0.1s0.2-0.3,0.3-0.5l0.1-0.4l-1.7-6.1h1.7L214.8,88.8z"/>
		</g>
		<g>
			<path class="st1" d="M157.1,100.7v2.9h-1.6v-8.1h2.8c0.8,0,1.4,0.2,1.9,0.7c0.5,0.5,0.7,1.1,0.7,1.9c0,0.8-0.2,1.4-0.7,1.9
				c-0.5,0.5-1.1,0.7-2,0.7H157.1z M157.1,99.3h1.1c0.3,0,0.6-0.1,0.7-0.3s0.3-0.5,0.3-0.9c0-0.4-0.1-0.7-0.3-1
				c-0.2-0.2-0.4-0.4-0.7-0.4h-1.1V99.3z"/>
			<path class="st1" d="M161.6,100.3c0-0.9,0.2-1.6,0.6-2.1s1-0.8,1.8-0.8c0.8,0,1.4,0.3,1.8,0.8s0.6,1.2,0.6,2.2v0.4
				c0,0.9-0.2,1.6-0.6,2.1c-0.4,0.5-1,0.8-1.8,0.8c-0.8,0-1.4-0.3-1.8-0.8c-0.4-0.5-0.6-1.2-0.6-2.2V100.3z M163.2,100.7
				c0,1.1,0.3,1.6,0.9,1.6c0.5,0,0.8-0.4,0.9-1.3l0-0.7c0-0.5-0.1-1-0.2-1.2s-0.4-0.4-0.6-0.4c-0.3,0-0.5,0.1-0.6,0.4
				s-0.2,0.7-0.2,1.2V100.7z"/>
			<path class="st1" d="M169.1,103.5h-1.6V95h1.6V103.5z"/>
			<path class="st1" d="M172,103.5h-1.6v-6h1.6V103.5z M171.6,95.1h1.8l-1.5,1.7h-1.3L171.6,95.1z"/>
			<path class="st1" d="M175.2,96v1.5h0.8v1.2h-0.8v3c0,0.2,0,0.4,0.1,0.5c0.1,0.1,0.2,0.1,0.4,0.1c0.2,0,0.3,0,0.4,0l0,1.2
				c-0.3,0.1-0.6,0.2-0.9,0.2c-1,0-1.5-0.6-1.5-1.8v-3.2h-0.7v-1.2h0.7V96H175.2z"/>
			<path class="st1" d="M176.8,96c0-0.2,0.1-0.4,0.2-0.6c0.2-0.2,0.4-0.2,0.6-0.2s0.5,0.1,0.6,0.2s0.2,0.4,0.2,0.6
				c0,0.2-0.1,0.4-0.2,0.6c-0.2,0.2-0.4,0.2-0.6,0.2s-0.5-0.1-0.6-0.2C176.9,96.4,176.8,96.2,176.8,96z M178.5,103.5h-1.6v-6h1.6
				V103.5z"/>
			<path class="st1" d="M181.9,102.3c0.5,0,0.7-0.3,0.7-0.9h1.5c0,0.7-0.2,1.2-0.6,1.6c-0.4,0.4-0.9,0.6-1.5,0.6
				c-0.8,0-1.4-0.2-1.8-0.7s-0.6-1.2-0.6-2.1v-0.5c0-0.9,0.2-1.7,0.6-2.2c0.4-0.5,1-0.7,1.8-0.7c0.7,0,1.2,0.2,1.6,0.6
				s0.6,1,0.6,1.7h-1.5c0-0.3-0.1-0.6-0.2-0.8s-0.3-0.3-0.5-0.3c-0.3,0-0.5,0.1-0.6,0.3c-0.1,0.2-0.2,0.6-0.2,1.1v0.6
				c0,0.5,0,0.8,0.1,1c0,0.2,0.1,0.3,0.2,0.4C181.5,102.3,181.7,102.3,181.9,102.3z"/>
			<path class="st1" d="M187.8,103.5c0-0.1-0.1-0.2-0.1-0.5c-0.3,0.4-0.7,0.6-1.1,0.6c-0.5,0-0.9-0.2-1.3-0.5s-0.5-0.8-0.5-1.3
				c0-0.6,0.2-1.1,0.6-1.5c0.4-0.3,1-0.5,1.7-0.5h0.5v-0.5c0-0.3,0-0.5-0.1-0.6c-0.1-0.1-0.2-0.2-0.4-0.2c-0.4,0-0.6,0.2-0.6,0.7
				h-1.6c0-0.6,0.2-1,0.6-1.4c0.4-0.4,0.9-0.5,1.6-0.5c0.7,0,1.2,0.2,1.5,0.5c0.4,0.3,0.5,0.8,0.5,1.5v2.8c0,0.5,0.1,0.9,0.2,1.2
				v0.1H187.8z M186.9,102.4c0.2,0,0.3,0,0.4-0.1c0.1-0.1,0.2-0.2,0.3-0.3v-1.3h-0.4c-0.3,0-0.5,0.1-0.6,0.3
				c-0.2,0.2-0.2,0.4-0.2,0.7C186.4,102.2,186.5,102.4,186.9,102.4z"/>
			<path class="st1" d="M193,101.9c0-0.1-0.1-0.3-0.2-0.4c-0.1-0.1-0.4-0.3-0.9-0.5c-0.6-0.3-1.1-0.5-1.3-0.8s-0.4-0.6-0.4-1.1
				c0-0.5,0.2-1,0.6-1.3c0.4-0.3,0.9-0.5,1.5-0.5c0.7,0,1.2,0.2,1.6,0.5c0.4,0.3,0.6,0.8,0.6,1.4h-1.6c0-0.5-0.2-0.7-0.6-0.7
				c-0.2,0-0.3,0.1-0.4,0.2c-0.1,0.1-0.2,0.2-0.2,0.4c0,0.1,0.1,0.3,0.2,0.4c0.1,0.1,0.4,0.2,0.8,0.4c0.6,0.2,1.1,0.5,1.4,0.8
				c0.3,0.3,0.4,0.7,0.4,1.1c0,0.5-0.2,1-0.6,1.3c-0.4,0.3-0.9,0.5-1.6,0.5c-0.4,0-0.8-0.1-1.2-0.3c-0.3-0.2-0.6-0.4-0.8-0.7
				c-0.2-0.3-0.3-0.6-0.3-1h1.5c0,0.3,0.1,0.5,0.2,0.6c0.1,0.1,0.3,0.2,0.6,0.2C192.8,102.5,193,102.3,193,101.9z"/>
			<path class="st1" d="M199.8,100.7v2.9h-1.6v-8.1h2.8c0.8,0,1.4,0.2,1.9,0.7c0.5,0.5,0.7,1.1,0.7,1.9c0,0.8-0.2,1.4-0.7,1.9
				c-0.5,0.5-1.1,0.7-2,0.7H199.8z M199.8,99.3h1.1c0.3,0,0.6-0.1,0.7-0.3s0.3-0.5,0.3-0.9c0-0.4-0.1-0.7-0.3-1
				c-0.2-0.2-0.4-0.4-0.7-0.4h-1.1V99.3z"/>
			<path class="st1" d="M207.6,103c-0.3,0.4-0.8,0.7-1.3,0.7c-0.6,0-1-0.2-1.3-0.6c-0.3-0.4-0.4-0.9-0.4-1.7v-3.9h1.6v3.9
				c0,0.6,0.2,0.9,0.6,0.9c0.4,0,0.6-0.2,0.8-0.5v-4.4h1.6v6h-1.5L207.6,103z M207.1,95h1.8l-1.5,1.7H206L207.1,95z"/>
			<path class="st1" d="M214.9,100.7c0,1-0.2,1.7-0.5,2.2c-0.3,0.5-0.8,0.7-1.5,0.7c-0.5,0-0.9-0.2-1.3-0.7l-0.1,0.6h-1.5V95h1.6v3
				c0.3-0.4,0.7-0.6,1.2-0.6c0.7,0,1.2,0.2,1.5,0.7c0.3,0.5,0.5,1.2,0.5,2.1V100.7z M213.3,100.3c0-0.6-0.1-1.1-0.2-1.3
				c-0.1-0.2-0.3-0.3-0.6-0.3c-0.3,0-0.6,0.2-0.7,0.5v2.7c0.1,0.3,0.4,0.4,0.7,0.4c0.3,0,0.5-0.1,0.6-0.3c0.1-0.2,0.2-0.6,0.2-1.1
				V100.3z"/>
			<path class="st1" d="M217.5,103.5h-1.6V95h1.6V103.5z"/>
			<path class="st1" d="M218.7,96c0-0.2,0.1-0.4,0.2-0.6s0.4-0.2,0.6-0.2s0.5,0.1,0.6,0.2s0.2,0.4,0.2,0.6c0,0.2-0.1,0.4-0.2,0.6
				c-0.2,0.2-0.4,0.2-0.6,0.2s-0.5-0.1-0.6-0.2C218.8,96.4,218.7,96.2,218.7,96z M220.4,103.5h-1.6v-6h1.6V103.5z"/>
			<path class="st1" d="M223.8,102.3c0.5,0,0.7-0.3,0.7-0.9h1.5c0,0.7-0.2,1.2-0.6,1.6c-0.4,0.4-0.9,0.6-1.5,0.6
				c-0.8,0-1.4-0.2-1.8-0.7c-0.4-0.5-0.6-1.2-0.6-2.1v-0.5c0-0.9,0.2-1.7,0.6-2.2c0.4-0.5,1-0.7,1.8-0.7c0.7,0,1.2,0.2,1.6,0.6
				c0.4,0.4,0.6,1,0.6,1.7h-1.5c0-0.3-0.1-0.6-0.2-0.8s-0.3-0.3-0.5-0.3c-0.3,0-0.5,0.1-0.6,0.3c-0.1,0.2-0.2,0.6-0.2,1.1v0.6
				c0,0.5,0,0.8,0.1,1c0,0.2,0.1,0.3,0.2,0.4C223.4,102.3,223.6,102.3,223.8,102.3z"/>
			<path class="st1" d="M229.7,103.5c0-0.1-0.1-0.2-0.1-0.5c-0.3,0.4-0.7,0.6-1.1,0.6c-0.5,0-0.9-0.2-1.3-0.5
				c-0.3-0.3-0.5-0.8-0.5-1.3c0-0.6,0.2-1.1,0.6-1.5c0.4-0.3,1-0.5,1.7-0.5h0.5v-0.5c0-0.3,0-0.5-0.1-0.6c-0.1-0.1-0.2-0.2-0.4-0.2
				c-0.4,0-0.6,0.2-0.6,0.7h-1.6c0-0.6,0.2-1,0.6-1.4c0.4-0.4,0.9-0.5,1.6-0.5c0.7,0,1.2,0.2,1.5,0.5c0.4,0.3,0.5,0.8,0.5,1.5v2.8
				c0,0.5,0.1,0.9,0.2,1.2v0.1H229.7z M228.8,102.4c0.2,0,0.3,0,0.4-0.1c0.1-0.1,0.2-0.2,0.3-0.3v-1.3h-0.4c-0.3,0-0.5,0.1-0.6,0.3
				s-0.2,0.4-0.2,0.7C228.3,102.2,228.4,102.4,228.8,102.4z"/>
			<path class="st1" d="M234.9,101.9c0-0.1-0.1-0.3-0.2-0.4s-0.4-0.3-0.9-0.5c-0.7-0.3-1.1-0.5-1.3-0.8s-0.4-0.6-0.4-1.1
				c0-0.5,0.2-1,0.6-1.3c0.4-0.3,0.9-0.5,1.5-0.5c0.7,0,1.2,0.2,1.6,0.5c0.4,0.3,0.6,0.8,0.6,1.4h-1.6c0-0.5-0.2-0.7-0.6-0.7
				c-0.2,0-0.3,0.1-0.4,0.2c-0.1,0.1-0.2,0.2-0.2,0.4c0,0.1,0.1,0.3,0.2,0.4c0.1,0.1,0.4,0.2,0.8,0.4c0.6,0.2,1.1,0.5,1.4,0.8
				c0.3,0.3,0.4,0.7,0.4,1.1c0,0.5-0.2,1-0.6,1.3c-0.4,0.3-0.9,0.5-1.6,0.5c-0.4,0-0.8-0.1-1.2-0.3s-0.6-0.4-0.8-0.7
				c-0.2-0.3-0.3-0.6-0.3-1h1.5c0,0.3,0.1,0.5,0.2,0.6c0.1,0.1,0.3,0.2,0.6,0.2C234.7,102.5,234.9,102.3,234.9,101.9z"/>
			<path class="st1" d="M237.5,102.7c0-0.3,0.1-0.5,0.3-0.6c0.2-0.2,0.4-0.2,0.7-0.2c0.3,0,0.5,0.1,0.7,0.2c0.2,0.2,0.3,0.4,0.3,0.6
				c0,0.3-0.1,0.5-0.3,0.6c-0.2,0.2-0.4,0.2-0.7,0.2c-0.3,0-0.5-0.1-0.7-0.2C237.6,103.2,237.5,103,237.5,102.7z"/>
		</g>
	</g>
</g>
</svg>
