<?xml version="1.0" encoding="utf-8"?>
<!-- Generator: Adobe Illustrator 25.4.1, SVG Export Plug-In . SVG Version: 6.00 Build 0)  -->
<!DOCTYPE svg PUBLIC "-//W3C//DTD SVG 1.1//EN" "http://www.w3.org/Graphics/SVG/1.1/DTD/svg11.dtd" [
	<!ENTITY ns_extend "http://ns.adobe.com/Extensibility/1.0/">
	<!ENTITY ns_ai "http://ns.adobe.com/AdobeIllustrator/10.0/">
	<!ENTITY ns_graphs "http://ns.adobe.com/Graphs/1.0/">
	<!ENTITY ns_vars "http://ns.adobe.com/Variables/1.0/">
	<!ENTITY ns_imrep "http://ns.adobe.com/ImageReplacement/1.0/">
	<!ENTITY ns_sfw "http://ns.adobe.com/SaveForWeb/1.0/">
	<!ENTITY ns_custom "http://ns.adobe.com/GenericCustomNamespace/1.0/">
	<!ENTITY ns_adobe_xpath "http://ns.adobe.com/XPath/1.0/">
]>
<svg version="1.1" id="Capa_1" xmlns:x="&ns_extend;" xmlns:i="&ns_ai;" xmlns:graph="&ns_graphs;"
	 xmlns="http://www.w3.org/2000/svg" xmlns:xlink="http://www.w3.org/1999/xlink" x="0px" y="0px" viewBox="0 0 63.1 128"
	 style="enable-background:new 0 0 63.1 128;" xml:space="preserve">
<style type="text/css">
	.st0{fill:#FFFFFF;}
	.st1{fill:#0968AE;}
</style>
<metadata>
	<sfw  xmlns="&ns_sfw;">
		<slices></slices>
		<sliceSourceBounds  bottomLeftOrigin="true" height="128" width="63.1" x="928.5" y="-604.5"></sliceSourceBounds>
	</sfw>
</metadata>
<g>
	<rect x="0.6" y="0.6" class="st0" width="61.9" height="61.9"/>
	<rect x="0.4" y="65.4" class="st0" width="29.9" height="29.9"/>
	<rect x="32.7" y="65.4" class="st0" width="29.9" height="29.9"/>
	<rect x="0.4" y="98.1" class="st0" width="29.9" height="29.9"/>
	<rect x="32.7" y="98.1" class="st0" width="29.9" height="29.9"/>
	<path class="st1" d="M38.4,22.7l0,0.1c-0.8,0.8-1.6,1.6-2.4,2.5c0.1,0.1,0.1,0.2,0.2,0.2c0-0.2,0.1-0.4,0.2-0.6
		c0.2-0.3,0.5-0.1,0.8,0c0.4-0.1,0.8,0.1,1.2,0.1c0.3,0.2,0.3,0.5,0.6,0.7c0.1,0.1,0,0.2-0.1,0.3c0.1,0.6,0.4-0.2,0.7,0
		c0.1,0.1,0.3,0,0.4,0.2c0,0.3,0.4,0.2,0.4,0.5c0,0.1-0.2,0.2-0.2,0.2c0.1,0.3-0.3,0.4-0.1,0.7c0.5,0.1,0.5-0.5,0.7-0.7
		c-0.1-0.4-0.2-0.9-0.5-1.3c-0.3-0.1-0.4-0.4-0.7-0.4c-0.5-0.2,0.1-0.5,0-0.9C39.2,23.7,38.8,23.2,38.4,22.7z"/>
	<path class="st1" d="M41.5,31.7c-0.4,1.1-0.8,2.2-1.5,3.2c-0.3,0.4-0.5,0.8-0.9,1l0.8,0.7c0,0,0-0.1,0-0.2c0-0.1,0.1-0.2,0.2-0.2
		c0.4,0,0.4,0.4,0.6,0.6c0,0.3,0.2,0.6,0.1,0.9c2.1-2.2,3.2-5,3.4-8l0.1-0.1c-0.8,0.1-1.6,0-2.3,0l-0.2-0.1c0.1,0.5-0.1,1-0.1,1.5
		l0.3,0.3c0.1,0.1,0.1,0.3-0.1,0.4C41.8,31.8,41.6,31.8,41.5,31.7z"/>
	<path class="st1" d="M38.6,39.7l0.1-0.2c0.5-0.4,1.1-0.8,1.5-1.3h0.1c-0.1,0-0.2,0.1-0.3,0c-0.2-0.1-0.3-0.3-0.3-0.6l-1-1.1
		l-0.1-0.2c-0.1,0.2-0.2,0.3-0.4,0.5c0,0.1,0,0.3,0.1,0.4c0.3,0.1,0.8,0.3,0.8,0.7c-0.1,0.4-0.8,0.7-0.4,1.1
		C38.9,39.4,38.5,39.5,38.6,39.7z"/>
	<path class="st1" d="M32.5,35.2c0.2,0,0.1,0.3,0.2,0.4c0.3-0.1,0.6,0.3,0.9,0c0-0.4,0.4-0.4,0.7-0.5c0.4-0.2,0.8-0.5,0.8-1L35,34.1
		c-0.3,0-0.4,0.2-0.6,0.4c-0.2,0.1-0.4-0.3-0.5-0.2c0,0,0.1,0.1,0.1,0.1c0,0.1,0.1,0.2,0,0.2c-0.3,0.3-0.4-0.1-0.7-0.1v0.1
		c0,0.1,0,0.2-0.1,0.1c-0.2-0.3-0.5-0.2-0.7-0.4c-0.1-0.1-0.2,0-0.3,0.1c-0.1,0.1-0.3,0-0.3,0.2c-0.2,0.1-0.2,0.3-0.4,0.4
		c-0.3,0-0.4,0.3-0.6,0.2c0,0.1,0,0.1,0.1,0.1c0.2,0.1,0.3,0.1,0.5,0.1C31.8,35,32.2,35.4,32.5,35.2z"/>
	<path class="st1" d="M31,42.7l0.1-0.1l-0.3,0.1c-3.3-0.2-6.2-1.4-8.6-3.7l0,0.1l-1.7,1.7c2.6,2.3,5.6,3.7,9,4.2
		c0.5,0.1,1.2,0,1.7,0.2L31,45V42.7z"/>
	<path class="st1" d="M32.5,26c0.2,0.1,0.3-0.1,0.5-0.1c0.2,0,0.4,0.2,0.6,0.4c0.1,0.1,0.3,0,0.4-0.1c0.1-0.7,1-0.6,1.2-1.3L35.1,25
		c-0.1-0.1-0.2-0.1-0.2-0.2c0.1-0.1,0.3-0.3,0.5-0.4c-0.8-0.5-1.5-0.9-2.4-1.1c-0.3-0.1-0.7-0.1-1-0.2c0.2,0.5,0,1.2,0.1,1.7
		l0.6,0.2c0.2-0.3,0.6-0.4,0.7-0.6c0.1-0.1,0.2,0,0.3,0.1c0,0.2,0,0.5-0.1,0.7C33.4,25.6,32.9,25.7,32.5,26z"/>
	<path class="st1" d="M38,34.5c0,0.3-0.3,0.4-0.3,0.7c-0.1,0.1-0.3,0.1-0.5,0.1c-0.7-0.3-1.4-0.4-2.1-0.5C35.1,34.9,35,35,35,35
		c0.3,0.2,0.7,0.2,1,0.3c0.3,0.1,0.5,0.4,0.8,0.3c0.3-0.2,0.8,0.1,1-0.2c0-0.3,0.2-0.5,0.4-0.8l0.1,0c0.2,0.2,0.2,0.4,0.2,0.6
		c0.2-0.3,0.4-0.5,0.6-0.8c0.6-0.8,1-1.7,1.2-2.6c-0.2,0-0.5,0.1-0.7,0.1c-0.2,0-0.5,0.1-0.7,0c-0.1-0.1-0.1,0-0.1,0.1
		c-0.1,0.1-0.2,0.3-0.4,0.2c-0.2-0.1-0.2-0.2-0.2-0.3c0,0.1,0,0.2,0,0.3c-0.2,0.2-0.2,0.4-0.4,0.6c-0.2,0.2-0.5,0.1-0.6,0.3
		c0,0.4-0.5,0.3-0.7,0.4c0,0.1,0,0.1,0.1,0.1c0.1,0,0.3,0,0.4-0.1c0.4,0.1,0.3-0.4,0.5-0.5c0.2,0,0.3-0.2,0.5-0.1
		c0.2,0.2,0.2,0.6,0.2,0.8C38,34,38.1,34.3,38,34.5z"/>
	<path class="st1" d="M34.1,33.7c0.2-0.2,0.6-0.2,0.6-0.5c-0.3,0-0.4,0.1-0.6,0.3C34,33.5,33.9,33.6,34.1,33.7z"/>
	<path class="st1" d="M32,41.8c0.6-0.2,1.3-0.2,2-0.3c-0.1-0.1-0.3-0.1-0.4-0.2c-0.4,0-0.6-0.4-0.7-0.7c-0.1-0.2,0.1-0.4,0.2-0.6
		c-0.2-0.3-0.7-0.1-1-0.2c-0.1-0.1-0.1-0.2-0.3-0.2l0.1,0.2C32,40.4,32.1,41.1,32,41.8z"/>
	<path class="st1" d="M40.9,38.8c-0.2,0.5-0.8,0.8-1.2,1.1c-0.5,0.5-1.4,0.7-1.7,1.5c-0.3,0.3-0.4,0.7-0.8,0.8
		c-0.2,0.4-0.6,0.4-0.8,0.7c-0.7,0.6-1.2-0.4-1.8-0.5l-1.3,0.2c-0.4,0-0.9,0.2-1.3,0c0.1,0.9,0.1,1.8,0,2.6l0.2-0.1
		c4.1-0.2,7.6-1.7,10.6-4.4L40.9,39L40.9,38.8z"/>
	<path class="st1" d="M39.4,29.4l0.3,0.3c0.3,0.2,0.1,0.6,0.4,0.7c0.3,0.2,0.4,0.5,0.6,0.8c0.1-0.1,0.1-0.2,0.1-0.2
		c0.1-0.5,0.1-1,0.2-1.4C40.4,29.6,39.9,29.6,39.4,29.4z"/>
	<path class="st1" d="M34.6,20.3c-0.8-0.3-1.8-0.4-2.7-0.6l0.1,0.2l0,2.3l0.2,0c1.4,0.2,2.7,0.6,3.8,1.5l0.1,0.2
		c0.4-0.5,1-1,1.4-1.5l0.4-0.2l-0.2-0.1C36.7,21.3,35.7,20.7,34.6,20.3z"/>
	<path class="st1" d="M30.6,35c0.1-0.2,0-0.5,0.1-0.7c0.1-0.2,0.3-0.2,0.5-0.1c0.1,0,0.2-0.1,0.1-0.2c-0.2-0.1-0.1-0.3-0.2-0.5
		c0-0.1,0.2-0.1,0.1-0.2c-0.2-0.1,0.1-0.3-0.1-0.4c0,0,0.1-0.1,0.1-0.1c-0.5,0.2-1.1-0.1-1.5-0.3c-0.2-0.1-0.5-0.3-0.6-0.5
		c-0.4,0.6-1.1,1.1-1.6,1.7C28.5,34.4,29.5,34.8,30.6,35z"/>
	<path class="st1" d="M19,29.7l0.2,1.5c0.1,0.6,0.3,1.2,0.3,1.8c0.1-0.1,0-0.4,0.3-0.4c-0.1-0.2,0.2-0.3,0-0.5
		c0.1-0.4,0.1-0.8,0.5-1.1c0.4,0,0.5-0.6,0.9-0.6c0.2,0,0.4,0.3,0.4,0.4c-0.3-0.3-0.3-0.9-0.2-1.2l-0.2,0.1c-0.8,0-1.6,0-2.3-0.1
		L19,29.7z"/>
	<path class="st1" d="M28.7,31.4l-0.3-0.1c0,0.2-0.2,0.4-0.3,0.5l0,0C28.2,31.7,28.4,31.4,28.7,31.4z"/>
	<path class="st1" d="M21.7,38.3c-0.3-0.2-0.5-0.5-0.8-0.8c-0.3-0.1-0.6-0.3-0.7-0.5c-0.1-0.1,0-0.3-0.1-0.3L20,36.8
		c-0.3,0.1-0.4-0.2-0.6-0.3c-0.3-0.1-0.1-0.6-0.5-0.5c-0.1,0-0.2-0.2-0.3-0.2c-0.3,0-0.4-0.3-0.6-0.5c0,0.1,0,0.2-0.1,0.2
		c-0.3,0.1-0.5-0.3-0.7-0.5c-0.1,0-0.1,0.1-0.2,0.1c-0.2-0.2-0.3-0.4-0.3-0.7c-0.3-0.3-0.2-0.8-0.1-1.2c0.1-0.1,0.2-0.2,0.2-0.3
		c0.1-0.2,0.3-0.2,0.4-0.2c0.1,0,0.1,0.1,0.2,0.2c0.1-0.1,0.4,0,0.3-0.2c0.1-0.1,0.4-0.2,0.5-0.2c0.1,0.2,0.2,0.4,0.4,0.5l-0.1-0.2
		c-0.2-0.8-0.4-1.7-0.4-2.6c0-0.1-0.1-0.1,0-0.1l0,0c0-0.2,0-0.3,0-0.5l-0.2,0.1l-2.3,0c0.1,2.7,0.8,5.1,2.1,7.4
		c0.6,1.1,1.5,2.1,2.2,3.1l1.7-1.7L21.7,38.3z"/>
	<path class="st1" d="M30.8,39.4c-2-0.1-3.8-0.8-5.4-2c0.1,0.2,0.3,0.3,0.2,0.6c-0.1,0.2-0.4,0.2-0.7,0.2c-0.5-0.1-0.8,0.3-1.3,0.3
		c-0.4,0.1-0.6-0.4-0.9-0.3c2.3,2,5,3.3,8.1,3.5l0.2,0.2L31,41.6v-2.2L30.8,39.4z"/>
	<path class="st1" d="M24.4,18.7c-0.5,0.4-1,0.8-1.5,1.2c0.6,0.4,1.1,1.1,1.7,1.6l0.1,0.2c1.4-1.4,3.2-2.2,5.1-2.6
		c0.4,0,0.9-0.2,1.3-0.1c0-0.8-0.1-1.6,0-2.4C28.6,16.6,26.4,17.4,24.4,18.7z"/>
	<path class="st1" d="M26.8,31c-0.1,0-0.1,0-0.2,0c0,0-0.1,0-0.1,0c0-0.5-0.5-0.2-0.7-0.4c0.2,0.4,0.4,0.9,0.6,1.4
		c0.2,0.4,0.5,0.7,0.6,1.1c0.2-0.3,0.5-0.5,0.7-0.8c0-0.1,0-0.2-0.1-0.3c-0.1-0.2,0-0.4-0.1-0.6c-0.2,0.1,0.1,0.3,0,0.4
		c-0.1,0.1-0.2,0-0.2-0.1c-0.2,0-0.3-0.2-0.4-0.4C27,31.1,26.8,31.1,26.8,31z"/>
	<path class="st1" d="M22.4,27.5c-0.1,0.4,0,0.9-0.2,1.3c0.3-0.1,0.7-0.1,1.1,0c-0.2-0.1,0-0.3-0.1-0.5c0-0.2-0.1-0.5,0.1-0.6
		c0-0.3,0.3-0.5,0.4-0.8c0.1-0.4,0.5-0.1,0.7-0.3c0.1-0.1,0-0.2,0-0.3c0.2-0.2,0.4-0.2,0.6-0.3c0.1-0.2,0.3-0.5,0.6-0.6
		c0.5,0,0.5-0.7,1-0.7c-0.7-0.5-1.3-1.2-1.9-1.7C23.5,24.2,22.7,25.7,22.4,27.5z"/>
	<path class="st1" d="M22.2,20.5l-0.9,1.2c-1.5,2-2.2,4.4-2.4,7l2.3,0l0.2,0.1c-0.1-0.1-0.1-0.2-0.1-0.2c0.2-2.4,1-4.5,2.7-6.3
		c-0.6-0.6-1.2-1.1-1.8-1.8L22.2,20.5z"/>
	<path class="st1" d="M22.7,30.9c0-0.2-0.2-0.2-0.2-0.3c0.2-0.3,0-0.8,0.4-1c-0.3,0.1-0.6,0.1-0.8-0.1l0.1,0.2
		c0,0.6,0.2,1.1,0.1,1.6C22.5,31.2,22.5,31,22.7,30.9z"/>
	<path class="st1" d="M23.6,29.6L23.5,30c-0.1,0.3-0.4,0.1-0.6,0.2c-0.1,0.2,0,0.3,0.1,0.5c-0.2,0.5,0.5,0.7,0.5,1.2
		c0.2,0.3,0,0.7,0.3,1c0.1,0.5-0.1,1.3,0.4,1.7l0.1,0.5c0.1,0.4-0.4,0.3-0.4,0.6c0.1-0.1,0.1,0.1,0.1,0.1v0c0.6-0.7,1.4-1.5,2.2-2.2
		L26,33.4c-0.6-0.9-1.1-1.8-1.3-2.9l-0.2-0.1c0,0.3-0.1,0.5-0.1,0.7l-0.1,0.1c-0.2,0-0.3-0.2-0.4-0.2c0-0.1-0.1-0.2,0-0.3
		c0.1,0,0.1,0,0.2,0.1c0.1-0.1,0-0.2,0.1-0.3c0-0.2-0.2-0.4,0-0.6c0.2,0,0.3,0.2,0.3,0.3c0.2,0.1,0.3-0.1,0.4-0.1
		c0-0.1,0.2-0.3,0-0.4c0.1-0.3,0-0.7,0-1c-0.1-0.3-0.4-0.2-0.6-0.2c-0.7,0.2,0.1,0.7-0.1,1.2C24,29.7,23.8,29.5,23.6,29.6z"/>
	<path class="st1" d="M29.4,36.3c0.2-0.2,0.4-0.3,0.6-0.4c-0.7,0.2-1.4-0.4-2-0.7c-0.4-0.3-0.8-0.5-1.1-0.9
		c-0.5,0.6-1.1,1.2-1.7,1.7c0.3,0,0.4,0.3,0.6,0.4c1.3,1.1,2.8,1.6,4.3,1.9l-0.4-0.2c-0.3-0.3-0.7-0.7-0.7-1.2
		C29.3,36.8,29.3,36.5,29.4,36.3z"/>
	<path class="st1" d="M41.2,19.8c0.2,0,0.2,0.3,0.3,0.4c0.6,0.3,0.8,1,1.3,1.4c0.3,0.6,1,1.1,1,1.8c0.7,1.6,1.2,3.3,1.3,5.2L45,28.7
		c0.1,0,0.1,0,0.2-0.1l2.4,0c-0.2-0.2-0.1-0.6-0.1-0.9c-0.3-3.7-1.9-7-4.4-9.8c-0.5,0.6-1.1,1.2-1.7,1.8L41.2,19.8z"/>
	<path class="st1" d="M18.1,28.7l-0.1-0.3c0.2-2.7,1-5.1,2.5-7.2c0.4-0.4,0.7-1,1.1-1.3c-0.5-0.5-1.1-1.1-1.7-1.7L20,18
		c-2.4,2.7-3.9,5.7-4.3,9.2c-0.1,0.5,0,1-0.1,1.5C16.4,28.6,17.3,28.6,18.1,28.7z"/>
	<path class="st1" d="M22.4,19.2l0-0.1c2.5-2.2,5.3-3.5,8.6-3.6l-0.1-0.2l0-2l0.1-0.2c-3.4,0.1-6.4,1.3-9.1,3.2
		c-0.5,0.4-1,0.9-1.5,1.2h0.1C21.2,17.9,21.8,18.6,22.4,19.2z"/>
	<path class="st1" d="M31,23.2c-1.4,0.2-2.6,0.6-3.6,1.7h0.2c0.2,0.2,0.5,0.2,0.7,0.4c0.1,0.2-0.1,0.1-0.1,0.3c0,0,0.1,0,0.1,0.1
		c0.2,0.1,0.1-0.1,0.2-0.2c0.2-0.2,0.2,0.2,0.4,0.2c0.1-0.1,0.3-0.1,0.4,0.1c0.1-0.1,0.4,0,0.5-0.2c0.3-0.3,0.1-0.7,0.5-0.9
		c0.1,0.1,0,0.2,0,0.3c0.3,0.1,0.6-0.2,0.8,0C30.9,24.4,31,23.8,31,23.2z"/>
	<path class="st1" d="M0,0v63.1h63.1V0H0z M54.2,32.9c-0.9,1.3-2,2.4-2.8,3.7c0.1-1,0.2-2.3-0.2-3.2c-0.7-2.1-1.3-4.2-1.5-6.4l0-0.9
		c0.5,2.3,2.8,3.9,2.6,6.5c0.1,0.6-0.1,1.2-0.3,1.7l0,0l0.1-0.1c0.3-1.3,0.5-2.6,1-3.8c0.7-1.7,1.7-3.4,1.3-5.5
		C55.7,27.4,55.4,30.6,54.2,32.9z M52.8,19.8c1.5,2,1.8,5.2,0.7,7.5c-0.4,1-0.7,2-0.8,3.1c-0.1-0.2-0.1-0.4-0.2-0.6
		c-0.6-2.3-2.7-3.9-3.6-6c-0.3-0.7-0.5-1.4-0.6-2.2c0.9,1.7,3.3,2.6,3.9,4.6c0.3,0.5,0.2,1.1,0.4,1.6c0,0,0.1,0,0.1-0.1
		c-0.3-2-0.2-4,0.1-6c0-1.1-0.1-2.1-0.7-2.9C52.3,19,52.5,19.5,52.8,19.8z M51.7,19.4c0.4,1.8-0.2,3.5,0.2,5.3l0,0
		c-1-1.9-3-2.8-4.4-4.3c-0.8-0.9-1.2-2-1.4-3.2c0.8,1.9,3,2.4,4.2,4c0.4,0.4,0.6,0.9,0.8,1.3l0,0c-0.7-1.5-1-3.3-1.5-4.9
		c-0.3-0.7-0.7-1.4-1.4-1.9C50,16.1,51.4,17.8,51.7,19.4z M47.3,15.3c1.2,1.1,1.8,2.5,2.2,4l0.2,0.5c-1.8-1.3-3.4-3-4.6-4.8
		l-1.4-1.4C45,14.1,46.3,14.4,47.3,15.3z M23.9,14c2.3-1.2,4.9-1.8,7.7-1.8c6.3,0,12.4,3.7,15.2,9.6c1.8,3.4,2.2,8,1.1,11.8
		c-1.2,4.5-4.9,9.1-9.3,10.9c-5,2.4-12,1.8-16.4-1.3c-6.2-4.2-8.7-11.5-6.8-18.6C16.4,20.2,19.8,15.9,23.9,14z M19.1,13.8
		c-1.2,1.1-2.1,2.5-3,3.7c-0.8,1-1.9,1.7-2.8,2.6c0.5-1,0.5-2.3,1.2-3.2C15.5,15.1,17.4,14.5,19.1,13.8z M12.3,17.6
		c0.6-0.7,1.4-1.3,2.2-1.5c-1.7,1.1-1.6,3.2-2.1,4.9c-0.2,0.6-0.5,1.2-0.6,1.9l0,0c0.3-0.7,0.8-1.4,1.4-2c1.2-1.1,2.9-1.8,3.5-3.4
		c0,2.2-1.9,4-3.7,5.3c-0.7,0.6-1.5,1.4-1.9,2.2c0-0.6,0.1-1.1,0-1.7C11,21.3,10.9,19,12.3,17.6z M8.9,24.3c-0.1-2,0.8-3.6,1.9-5.1
		c0,0,0.1-0.1,0.1,0c-1.3,1.9-0.2,4.4-0.3,6.6L10.5,28c0,0,0,0.1,0.1,0.1c0.1-0.3,0.1-0.5,0.1-0.8c0.3-1.8,1.9-3.1,3.3-4.4
		c0.3-0.3,0.6-0.7,0.7-1.1c-0.1,0.9-0.4,1.8-0.8,2.7c-1.1,2.1-3.1,3.8-3.4,6.2C10.3,28.5,8.8,26.7,8.9,24.3z M7.9,27.1
		c0.1-0.6,0.3-1.3,0.5-1.8c-0.5,2.6,1.3,4.5,1.8,6.8c0.2,0.9,0.3,1.8,0.6,2.6c0,0,0.1,0,0.1,0c-0.9-2.4,0.4-4.7,1.6-6.6
		c0.3-0.5,0.5-1.1,0.6-1.7c0.1,1.1-0.1,2.4-0.3,3.5c-0.3,1.4-0.8,2.8-1.2,4.2c-0.3,0.9-0.2,1.9-0.1,2.8l-0.1-0.1
		c-0.9-1.7-2.7-3-3.3-4.9C7.9,30.4,7.6,28.7,7.9,27.1z M7.9,32.2c0.2,2.8,3.2,4.3,4.6,6.6c0.3,0.5,0.6,1,1.1,1.4
		c-0.1-0.3-0.3-0.5-0.4-0.9c-0.5-1-0.7-2.1-0.5-3.3c0.1-1.4,0.7-2.7,0.5-4.2c1.2,2.6,0.9,5.9,1.5,8.8c0.2,0.6,0.5,1.2,0.8,1.8
		c-2.5-1.7-5.9-3.3-7-6.5C7.8,34.8,7.8,33.5,7.9,32.2z M9.4,38.6c1.4,3.2,4.9,3.4,7.2,5.4c0.4,0.4,0.9,0.7,1.4,0.9l0,0
		c-0.5-0.5-1.2-1-1.5-1.7c-1.4-1.9-0.9-4.6-1.9-6.6c0.9,1.1,1.8,2.3,2.3,3.6c0.8,2.1,1.2,4.4,3.1,6c-2.1-0.7-4.6-0.5-6.4-1.8
		C11.6,43.1,9.7,41,9.4,38.6z M13,44.5c2.2,2.5,5.9,1.7,8.9,2.4c0.4,0.1,0.8,0.2,1.3,0.2c-0.4-0.2-0.8-0.2-1.2-0.4
		c-2.3-0.8-2.7-3.4-4-5.1c1.6,1.1,3,2.5,4.5,3.9c1.1,0.9,2.4,1.4,3.7,1.7c-0.3,0.1-0.8,0.1-1.1,0.2c-2.4,0.6-5.2,1.6-7.8,0.7
		C15.5,47.5,13.8,46.2,13,44.5z M43.4,50.5c-2.5,0.9-5.2,0-7.1-1.5c-0.8-0.5-1.5-1.2-2.5-1.2c-0.4,0-0.7,0-1.1,0.1
		c1.9,0.9,3.7,2.1,5.3,3.7c-0.3,0.3-0.6,0.6-1,0.9c-1.6-1.7-3.3-3.3-5.3-4.3c-0.4,0-0.7,0.3-1.1,0.5c-1.6,1-3.1,2.3-4.3,3.9l-1-0.8
		c1.6-1.6,3.4-2.9,5.4-3.8c-1.9-0.6-3.2,1-4.6,1.8c-1.7,1.2-4.1,1.7-6.2,0.9c-1.1-0.4-2.2-1-3-2c1.6,1.1,4,1.2,5.9,0.5
		c2.5-1.1,5-2.4,8-1.8c0.5,0,0.9,0.5,1.4,0.1c2.2-0.6,4.7-0.2,6.6,0.8l2,0.8c1.8,0.7,4.2,0.5,5.7-0.6C45.6,49.4,44.5,50.1,43.4,50.5
		z M46.1,47.9c-2.8,1.1-5.7-0.2-8.4-0.7l-0.5-0.1v0c1.3-0.3,2.6-0.7,3.6-1.6c1.5-1.5,2.9-3,4.6-4.1c-1.3,1.6-1.4,3.9-3.5,4.9
		c-0.5,0.3-1.2,0.4-1.7,0.6c0.8,0,1.4-0.3,2.2-0.3c2.8-0.4,6,0,7.9-2.4C49.5,45.9,47.7,47.3,46.1,47.9z M47.7,45
		c-1.4,0.4-3,0.5-4.4,1c2.4-2,2.2-5.2,3.8-7.6c0.5-0.7,0.9-1.4,1.5-2c-1,1.9-0.5,4.5-1.7,6.3c-0.4,0.7-1,1.5-1.7,2.1
		c0.2,0,0.4-0.2,0.6-0.3c1.8-1.8,4.2-2.3,6.1-3.8c0.8-0.6,1.5-1.4,1.8-2.3C53.4,41.3,50.5,44.1,47.7,45z M51.2,39.9
		c-1.1,0.7-2.3,1.4-3.3,2.2V42c1.7-2.7,0.8-6.5,1.9-9.5l0.4-1c-0.2,1.9,0.6,3.5,0.5,5.4c-0.1,1.1-0.4,2.1-1,3.1h0.1
		c0.8-1.1,1.4-2.2,2.4-3.2c1.5-1.4,3-2.9,3.1-4.8C55.8,35.2,54,38,51.2,39.9z"/>
	<path class="st1" d="M45.2,29.6L45,29.4l0.1,0.2C45,32.5,44,35,42.4,37.2c-0.3,0.4-0.6,0.8-1,1.1c0.6,0.5,1.3,1.3,1.9,1.8l0.1-0.1
		c2.6-2.9,4-6.3,4.2-10.3l0.1-0.2l-0.1,0.1L45.2,29.6z"/>
	<path class="st1" d="M30.9,19.8c-2.1,0.2-4,1-5.6,2.4c0.6,0.4,1.2,1.2,1.8,1.7c0-0.1,0.1-0.1,0.1-0.2c0.8-0.6,1.6-1.1,2.6-1.3
		c0.4,0,0.8-0.2,1.3-0.1c-0.1-0.8-0.1-1.7,0-2.5L30.9,19.8z"/>
	<path class="st1" d="M31.9,15.3c0-0.1,0-0.1,0.1-0.2c0.1-0.1,0.2,0,0.3,0.1c0,0.1,0.1,0.3,0,0.4c0.1,0,0.2-0.1,0.2-0.1
		c1.9,0.1,3.7,0.7,5.3,1.6v0c0.3-0.2,0.7-0.4,1.1-0.1c0.4-0.2,0.5,0.3,0.8,0.4c0.4,0.2,0.8,0.7,0.9,1.1c0.1,0.2,0.3,0.3,0.3,0.4
		c0.3-0.6,0.8-1,1.3-1.5l0.3-0.1c-2.5-2.4-5.6-3.8-8.9-4.2c-0.5-0.1-1.1,0-1.6-0.2C32,13.6,32,14.5,31.9,15.3z M39.5,16.4
		c0.2,0.1,0.3,0.1,0.4,0.3c0,0.2,0.2,0.4,0,0.5c-0.5,0.1-0.5-0.4-0.8-0.5C39,16.6,39,16.6,39,16.5C39.2,16.3,39.3,16.6,39.5,16.4z
		 M32.3,14.9c0.1-0.1,0.3-0.1,0.4,0l1.2-0.5c0.5,0,1,0.1,1.3,0.5v0.1c-0.3,0.3-0.7,0.5-1.1,0.3c-0.6,0.1-1.3,0.4-1.8-0.1
		C32.3,15,32.2,14.9,32.3,14.9z"/>
	<path class="st1" d="M31.9,18.9c0.3-0.1,0.6,0,1,0c1.6,0.3,3.2,0.8,4.5,1.8c-0.2-0.2-0.4-0.4-0.4-0.6c0,0,0.1,0,0.1,0
		c0-0.3-0.3-0.4-0.3-0.6c0,0,0.1-0.1,0.2-0.1c0.3,0.3,0.5,0.6,0.7,0.9c0.2-0.1,0.3,0,0.5,0.1c0.2,0.1,0.1,0.5,0.3,0.6
		c0,0.5,0.6,0.8,0.6,1.3c0,0.1,0.2,0,0.2,0.1l0.5,0.6c-0.1,0.1,0,0.3,0.1,0.3c0.2,0.1,0.4-0.2,0.6-0.1c0.3,0.2-0.1,0.4,0,0.6
		c0.1,0,0.3-0.1,0.4,0c0,0.2-0.1,0.3-0.2,0.4c0,0.2,0.2,0.1,0.3,0.2c0.2,0,0.2,0.2,0.2,0.3c0.4,0.4-0.1,0.9,0.1,1.4
		c0.1,0.3,0,0.6-0.2,0.8c0,0.4-0.3,0.6-0.5,0.9L40.1,28c-0.2,0.2,0.2,0.5,0,0.6l0.9,0l-0.1-0.1c-0.1-0.4-0.1-0.9,0.1-1.2
		c0.1-0.3,0.2-0.7,0.4-0.9c0.1,0,0.2-0.1,0.2,0c0,0.3,0,0.6-0.1,0.9c0.3,0.4,0.2,0.9,0.3,1.4c0.8-0.1,1.6-0.1,2.5-0.1l-0.1-0.2
		c-0.1-1.6-0.4-3-1.1-4.4c-0.2,0-0.3,0.2-0.5,0.1c-0.1,0-0.1-0.1-0.1-0.2c-0.3-0.3-0.5-0.7-0.9-1c-0.4,0-0.6-0.5-1-0.5
		c-0.3-0.1-0.1-0.7-0.6-0.5c-0.2-0.1-0.5-0.3-0.5-0.6c0-0.4-0.1-0.9-0.5-1.2c-0.3-0.1-0.4,0.3-0.7,0.2c-0.2-0.1-0.1-0.3-0.1-0.4
		c-0.1-0.1-0.2-0.2-0.2-0.4c0.4-0.5-0.5-0.5-0.3-1c0-0.4-0.4-0.5-0.6-0.8c-1.3-0.6-2.6-1-4.1-1.2c-0.4,0-0.7,0-1-0.1l0.1,0.2
		C32,17.3,32,18.2,31.9,18.9z"/>
	<path class="st1" d="M31.1,26.9c-0.3,0.4-0.7,0.5-1.1,0.6c-0.1,0.1-0.1,0.4-0.3,0.4c-0.1,0.2-0.4,0.3-0.3,0.6
		c-0.1,0.3-0.1,0.7-0.1,1c-0.5,0.3-0.4-0.4-0.6-0.6l-0.1,0.1c-0.1,0-0.2,0-0.2-0.1c-0.1,0-0.2-0.1-0.3,0c-0.1,0.2-0.3,0.3-0.2,0.6
		c-0.1,0.2-0.3,0.1-0.3,0.3c0.3,0,0.6-0.1,0.8-0.1c0.2,0.1,0.4-0.1,0.5-0.1c0.1,0,0.1,0.1,0.1,0.2h0.1c0.1-0.1,0.2-0.3,0.1-0.4
		c0-0.2,0.2-0.2,0.3-0.2c0.1,0.1,0,0.2,0.1,0.2c0.4,0.1-0.1,0.4-0.1,0.6c-0.1,0.2,0,0.5-0.3,0.5c-0.1,0-0.1-0.1-0.1-0.1h0
		c0,0.1,0.1,0.3,0.2,0.4c0.2-0.2,0.2-0.5,0.6-0.6c0.2-0.2-0.1-0.5,0.2-0.6c0.4,0,0.9-0.2,1.3,0.2c0,0.2-0.1,0.2,0,0.3
		c-0.1,0.2-0.1,0.4-0.3,0.6c0,0.1,0,0.2-0.1,0.3c-0.1,0.5-0.7,0.3-1.1,0.4c0.5,0.4,1.2,0.6,1.9,0.5c0.4,0,0.2-0.5,0.4-0.7
		c0.1-0.6,0.7-0.2,1-0.3c0.1-0.3,0.3-0.5,0.3-0.8c-0.2-0.1-0.3-0.4-0.2-0.6c-0.1-0.2-0.1-0.5-0.4-0.6c-0.1-0.1,0-0.2,0-0.2
		c0-0.2,0.2-0.2,0.2-0.4c-0.2-0.1-0.1-0.4-0.1-0.6c-0.3,0.1-0.4-0.3-0.6-0.4c-0.1-0.2-0.3-0.2-0.4-0.3c-0.4,0.2-0.5-0.3-0.8-0.4
		c0-0.1-0.1-0.2,0-0.3c0.2-0.1,0.4,0,0.5,0l-0.1-0.1c-0.1-0.2-0.4-0.1-0.6,0C31.1,26.4,31,26.7,31.1,26.9z"/>
	<g>
		<g>
			<path class="st1" d="M14.8,72.2c-1.2,0-2,0.1-2.5,0.2v7.9c0.6,0.2,1.3,0.2,2.2,0.2c3.2,0,5.1-1.6,5.1-4.3
				C19.6,73.5,17.7,72.2,14.8,72.2z"/>
			<path class="st1" d="M0,65.1v30.6h30.6V65.1H0z M20.7,80.3c-1.4,1.5-3.7,2.2-6.2,2.2c-0.8,0-1.5,0-2.1-0.2v8.2H9.7V70.4
				c1.3-0.2,2.9-0.4,5.1-0.4c2.6,0,4.5,0.6,5.7,1.7c1.1,1,1.8,2.5,1.8,4.3C22.3,77.8,21.7,79.2,20.7,80.3z"/>
		</g>
		<g>
			<path class="st1" d="M45.9,104.3c-1.4,0-2.4,0.1-3.1,0.3v16.2c0.7,0.1,1.6,0.1,2.7,0.1c5.6,0,8.7-3.2,8.7-8.7
				C54.2,107.3,51.4,104.3,45.9,104.3z"/>
			<path class="st1" d="M32.5,97.4V128h30.6V97.4H32.5z M54,120c-1.9,1.9-5.1,2.9-9.1,2.9c-1.9,0-3.5-0.1-4.8-0.2v-20.1
				c1.6-0.2,3.5-0.4,5.6-0.4c3.8,0,6.5,0.9,8.3,2.5c1.8,1.7,2.9,4.1,2.9,7.4C56.9,115.4,55.9,118.2,54,120z"/>
		</g>
		<path class="st1" d="M0,97.4V128h30.6V97.4H0z M22.8,114.4c0,6.3-3.3,8.8-7.7,8.8c-4.2,0-7.3-2.4-7.3-8.7v-12h2.7v12.1
			c0,4.5,2,6.5,4.8,6.5c3,0,5-2,5-6.5v-12.1h2.7V114.4z"/>
		<path class="st1" d="M32.5,95.7h30.6V65.1H32.5V95.7z M40.1,70.2H43l6.5,10.3c1.5,2.4,2.7,4.5,3.6,6.6l0.1,0
			C53,84.4,53,81.9,53,78.7v-8.6h2.5v20.4h-2.7l-6.5-10.4c-1.4-2.3-2.8-4.6-3.8-6.8l-0.1,0c0.2,2.6,0.2,5,0.2,8.4v8.7h-2.5V70.2z"/>
	</g>
</g>
</svg>
