<?xml version="1.0" encoding="utf-8"?>
<!-- Generator: Adobe Illustrator 25.4.1, SVG Export Plug-In . SVG Version: 6.00 Build 0)  -->
<!DOCTYPE svg PUBLIC "-//W3C//DTD SVG 1.1//EN" "http://www.w3.org/Graphics/SVG/1.1/DTD/svg11.dtd" [
	<!ENTITY ns_extend "http://ns.adobe.com/Extensibility/1.0/">
	<!ENTITY ns_ai "http://ns.adobe.com/AdobeIllustrator/10.0/">
	<!ENTITY ns_graphs "http://ns.adobe.com/Graphs/1.0/">
	<!ENTITY ns_vars "http://ns.adobe.com/Variables/1.0/">
	<!ENTITY ns_imrep "http://ns.adobe.com/ImageReplacement/1.0/">
	<!ENTITY ns_sfw "http://ns.adobe.com/SaveForWeb/1.0/">
	<!ENTITY ns_custom "http://ns.adobe.com/GenericCustomNamespace/1.0/">
	<!ENTITY ns_adobe_xpath "http://ns.adobe.com/XPath/1.0/">
]>
<svg version="1.1" id="Capa_1" xmlns:x="&ns_extend;" xmlns:i="&ns_ai;" xmlns:graph="&ns_graphs;"
	 xmlns="http://www.w3.org/2000/svg" xmlns:xlink="http://www.w3.org/1999/xlink" x="0px" y="0px" viewBox="0 0 134.1 134"
	 style="enable-background:new 0 0 134.1 134;" xml:space="preserve">
<style type="text/css">
	.st0{fill:#2E6492;}
	.st1{fill:#FBF5E7;}
	.st2{fill:#4986BC;}
</style>
<metadata>
	<sfw  xmlns="&ns_sfw;">
		<slices></slices>
		<sliceSourceBounds  bottomLeftOrigin="true" height="134" width="134.1" x="0" y="0"></sliceSourceBounds>
	</sfw>
</metadata>
<g>
	<path class="st0" d="M2.8,2.8h128.5v128.5H2.8V2.8z M0,134h134.1V0H0V134z"/>
	<rect x="15.4" y="14.9" class="st1" width="104.2" height="104.2"/>
	<path class="st0" d="M99,59.8H86.6l-4,11.5h3.3h3v0.9H77v-0.9h4.4L95,33.1h0.6l14.1,38.2h4.8v0.9h-17v-0.9h5.7L99,59.8z M92.8,42.5
		L92.8,42.5L87,59h11.8L92.8,42.5z"/>
	<path class="st2" d="M64.5,34.9h-4.9V34H89l0.7,9.2h-0.9c0-6.2-4.2-8.4-10-8.4h-8.7v17.5h4.1c5.7,0,6.3-3.4,6.3-6.9h0.9v14.4h-0.9
		c0-4.1-0.6-6.6-6.3-6.6h-4.1v18.1h7.6c8.9,0,13.2-1,13.2-10.3h0.9v11.1H59.6v-0.9h4.9V34.9L64.5,34.9z"/>
	<path class="st0" d="M35.5,34.9h-5.2V34h17.3c14.7,0,18.8,11.9,18.8,19.1c0,11.8-7.4,19-18.8,19H30.3v-0.7h5.2V34.9z M41.1,71.3
		h4.7c5,0,14.2-1.8,14.2-18.2c0-9.3-2.7-18.2-16.2-18.2h-2.7V71.3z"/>
	<polygon class="st2" points="24.2,34.9 19,34.9 19,34 35.4,34 35.4,34.9 30.2,34.9 30.2,71.3 35.4,71.3 35.4,72.1 19,72.1 19,71.3 
		24.2,71.3 	"/>
	<path class="st0" d="M128.9,128.9H5.1V5.1h123.8L128.9,128.9L128.9,128.9z M6.1,128H128V6H6.1V128z"/>
	<rect x="24.2" y="23.9" class="st0" width="1.2" height="5.3"/>
	<polygon class="st0" points="30.2,25.9 32.1,29.2 33.2,29.2 33.2,23.9 32.1,23.9 32.1,27 30.3,23.9 29.7,23.9 29.6,23.9 29.1,23.9 
		29.1,29.2 30.2,29.2 	"/>
	<polygon class="st0" points="37.6,29.2 38.8,29.2 38.8,25 40.2,25 40.2,23.9 36.3,23.9 36.3,25 37.6,25 	"/>
	<polygon class="st0" points="47,28.1 44.6,28.1 44.6,27 46.5,27 46.5,25.9 44.6,25.9 44.6,25 47,25 47,23.9 43.4,23.9 43.4,29.2 
		47,29.2 	"/>
	<path class="st0" d="M53.2,29.2h1.3l-1-2.3c0.5-0.3,0.8-0.8,0.8-1.4c0-0.5-0.2-1-0.6-1.3c-0.4-0.3-0.9-0.4-1.3-0.4h-2.1v5.3h1.2v-2
		h0.8L53.2,29.2z M52.4,25c0.2,0,0.4,0,0.5,0.1s0.2,0.2,0.2,0.4c0,0.2-0.1,0.3-0.2,0.4c-0.1,0.2-0.3,0.2-0.6,0.2h-0.8V25H52.4z"/>
	<polygon class="st0" points="58.9,25.9 60.8,29.2 61.9,29.2 61.9,23.9 60.8,23.9 60.8,27 59,23.9 58.4,23.9 58.3,23.9 57.8,23.9 
		57.8,29.2 58.9,29.2 	"/>
	<path class="st0" d="M66.4,27.9h1.3l0.5,1.4h1.2L67.7,24h-1.1l-1.7,5.3H66L66.4,27.9z M66.8,26.8l0.3-1l0.3,1H66.8z"/>
	<polygon class="st0" points="73.4,29.2 74.5,29.2 74.5,25 75.9,25 75.9,23.9 72,23.9 72,25 73.4,25 	"/>
	<rect x="79.1" y="23.9" class="st0" width="1.2" height="5.3"/>
	<path class="st0" d="M86,29.3c1.5,0,2.2-1.4,2.2-2.8c0-1.3-0.7-2.7-2.2-2.7s-2.2,1.4-2.2,2.8C83.8,28,84.5,29.3,86,29.3 M86.8,25.4
		c0.2,0.3,0.2,0.7,0.2,1.1c0,0.2,0,1.7-1,1.7c-0.8,0-1-1-1-1.6c0-0.4,0.1-1.7,1.1-1.7C86.3,24.9,86.6,25.1,86.8,25.4"/>
	<polygon class="st0" points="92.8,25.9 94.7,29.2 95.8,29.2 95.8,23.9 94.7,23.9 94.7,27 92.9,23.9 92.3,23.9 92.2,23.9 91.7,23.9 
		91.7,29.2 92.8,29.2 	"/>
	<path class="st0" d="M100.5,23.9l-1.7,5.3h1.1l0.4-1.4h1.3l0.5,1.4h1.2l-1.7-5.3C101.6,23.9,100.5,23.9,100.5,23.9z M100.7,26.8
		l0.3-1l0.3,1H100.7z"/>
	<polygon class="st0" points="109.8,28.1 107.6,28.1 107.6,23.9 106.4,23.9 106.4,29.2 109.8,29.2 	"/>
	<rect x="24.2" y="76.8" class="st0" width="1.2" height="5.3"/>
	<polygon class="st0" points="33.5,82.1 33.5,76.8 32.4,76.8 32.4,79.9 30.6,76.8 30,76.8 29.9,76.8 29.4,76.8 29.4,82.1 30.5,82.1 
		30.5,78.8 32.4,82.1 	"/>
	<path class="st0" d="M37.3,78.4c0,0.4,0.2,0.8,0.5,1.1c0.3,0.3,0.7,0.4,1,0.4l0.8,0.2c0.5,0.1,0.6,0.3,0.6,0.5
		c0,0.1-0.1,0.3-0.2,0.4c-0.1,0.1-0.4,0.2-0.7,0.2c-0.4,0-0.9-0.1-1.1-0.8l-0.1-0.3L37,80.4l0.1,0.3c0.4,1,1.1,1.5,2.2,1.5
		c0.6,0,1.1-0.1,1.4-0.4c0.4-0.3,0.6-0.8,0.6-1.3s-0.2-0.9-0.5-1.2c-0.3-0.2-0.6-0.4-1-0.4l-0.7-0.2c-0.5-0.1-0.6-0.2-0.6-0.5
		c0-0.4,0.5-0.5,0.7-0.5c0.4,0,0.8,0.2,0.9,0.6l0.1,0.3l1.1-0.3L41.2,78c-0.3-0.9-1-1.4-2-1.4C38,76.8,37.3,77.4,37.3,78.4"/>
	<polygon class="st0" points="47,82.1 47,77.9 48.4,77.9 48.4,76.8 44.5,76.8 44.5,77.9 45.8,77.9 45.8,82.1 	"/>
	<rect x="51.8" y="76.8" class="st0" width="1.2" height="5.3"/>
	<polygon class="st0" points="60.4,76.8 56.5,76.8 56.5,77.9 57.8,77.9 57.8,82.1 59,82.1 59,77.9 60.4,77.9 	"/>
	<path class="st0" d="M65.8,82.2c0.6,0,1.2-0.2,1.5-0.6c0.4-0.5,0.4-1,0.4-1.5v-3.3h-1.1v3.3c0,0.3,0,0.6-0.2,0.8
		c-0.1,0.2-0.4,0.2-0.6,0.2c-0.3,0-0.6-0.1-0.7-0.2C65,80.7,65,80.3,65,80.1v-3.3h-1.2v3.3c0,0.5,0,1.1,0.4,1.5
		C64.6,82,65.1,82.2,65.8,82.2"/>
	<polygon class="st0" points="73.7,82.1 73.7,77.9 75,77.9 75,76.8 71.1,76.8 71.1,77.9 72.5,77.9 72.5,82.1 	"/>
	<polygon class="st0" points="82.1,81.1 79.7,81.1 79.7,79.9 81.6,79.9 81.6,78.9 79.7,78.9 79.7,77.9 82.1,77.9 82.1,76.8 
		78.5,76.8 78.5,82.1 82.1,82.1 	"/>
	<polygon class="st0" points="92.3,79.9 94.2,79.9 94.2,78.9 92.3,78.9 92.3,77.9 94.6,77.9 94.6,76.8 91.2,76.8 91.2,82.1 
		92.3,82.1 	"/>
	<path class="st0" d="M99.8,82.2c1.5,0,2.2-1.4,2.2-2.8c0-1.3-0.7-2.7-2.2-2.7s-2.2,1.4-2.2,2.8C97.6,80.9,98.3,82.2,99.8,82.2
		 M100.6,78.3c0.2,0.3,0.2,0.7,0.2,1.1c0,0.2,0,1.7-1,1.7c-0.8,0-1-1-1-1.6c0-0.4,0.1-1.7,1.1-1.7C100.2,77.8,100.4,78,100.6,78.3"
		/>
	<path class="st0" d="M107,80.1h0.8l0.9,2h1.3l-1-2.3c0.5-0.3,0.8-0.8,0.8-1.4c0-0.5-0.2-1-0.6-1.3s-0.9-0.4-1.3-0.4h-2.1V82h1.2
		L107,80.1L107,80.1z M107.8,77.9c0.2,0,0.4,0,0.5,0.1s0.2,0.2,0.2,0.4c0,0.2-0.1,0.3-0.2,0.4c-0.1,0.2-0.3,0.2-0.6,0.2H107v-1.1
		H107.8L107.8,77.9z"/>
	<path class="st0" d="M27.9,90.6c0.4-0.5,0.5-1.1,0.5-1.8c0-0.7-0.2-1.4-0.6-1.9c-0.6-0.7-1.2-0.8-1.9-0.8h-1.8v5.3h2
		C26.9,91.5,27.5,91.2,27.9,90.6 M25.9,87.2c0.4,0,0.7,0.1,1,0.4c0.2,0.3,0.4,0.7,0.4,1.2c0,0.4-0.1,0.8-0.3,1.1
		c-0.2,0.3-0.5,0.5-1,0.5h-0.6v-3.1L25.9,87.2L25.9,87.2z"/>
	<polygon class="st0" points="35,90.4 32.5,90.4 32.5,89.2 34.4,89.2 34.4,88.2 32.5,88.2 32.5,87.2 34.9,87.2 34.9,86.2 31.4,86.2 
		31.4,91.5 35,91.5 	"/>
	<polygon class="st0" points="43,91.5 43,86.2 41.6,86.2 40.4,89.4 39.2,86.2 37.8,86.2 37.8,91.5 38.9,91.5 38.9,88.6 40,91.5 
		40.8,91.5 41.8,88.6 41.8,91.5 	"/>
	<path class="st0" d="M48.1,86.1c-1.5,0-2.2,1.4-2.2,2.8c0,1.3,0.7,2.7,2.2,2.7s2.2-1.4,2.2-2.8C50.4,87.5,49.7,86.1,48.1,86.1
		 M48.9,87.6c0.2,0.3,0.2,0.7,0.2,1.1c0,0.2,0,1.7-1,1.7c-0.8,0-1-1-1-1.6c0-0.4,0.1-1.7,1.1-1.7C48.5,87.2,48.7,87.3,48.9,87.6"/>
	<path class="st0" d="M57.3,89.8l0.1-0.3l-1.1-0.2l-0.1,0.3c-0.2,0.9-0.8,0.9-0.9,0.9c-0.5,0-0.7-0.4-0.8-0.6
		c-0.1-0.3-0.2-0.7-0.2-1.1s0.1-1.6,1-1.6c0.5,0,0.7,0.3,0.9,0.9l0.1,0.3l1.1-0.2l-0.1-0.3c-0.2-1.1-1-1.7-2-1.7
		c-1.6,0-2.3,1.3-2.3,2.7c0,1.3,0.7,2.8,2.2,2.8C56.3,91.5,57,90.9,57.3,89.8"/>
	<path class="st0" d="M64.2,87.8c0-0.5-0.2-1-0.6-1.3c-0.4-0.3-0.9-0.4-1.3-0.4h-2.1v5.3h1.2v-2h0.8l0.9,2h1.2l-1-2.3
		C63.9,88.9,64.2,88.4,64.2,87.8 M61.4,87.2h0.9c0.2,0,0.4,0,0.5,0.1s0.2,0.2,0.2,0.4c0,0.2-0.1,0.3-0.2,0.4
		c-0.1,0.2-0.3,0.2-0.6,0.2h-0.8L61.4,87.2L61.4,87.2z"/>
	<path class="st0" d="M66.6,91.5h1.1l0.4-1.4h1.3l0.5,1.4h1.2l-1.7-5.3h-1.1L66.6,91.5z M68.5,89.1l0.3-1l0.3,1H68.5z"/>
	<path class="st0" d="M77.7,89.8l0.1-0.3l-1.1-0.2l-0.1,0.3c-0.2,0.9-0.8,0.9-0.9,0.9c-0.5,0-0.7-0.4-0.8-0.6
		c-0.1-0.3-0.2-0.7-0.2-1.1s0.1-1.6,1-1.6c0.5,0,0.7,0.3,0.9,0.9l0.1,0.3l1.1-0.2l-0.1-0.3c-0.2-1.1-1-1.7-2-1.7
		c-1.6,0-2.3,1.3-2.3,2.7c0,1.3,0.7,2.8,2.2,2.8C76.7,91.5,77.4,90.9,77.7,89.8"/>
	<polygon class="st0" points="82.4,88 81.3,86.2 79.9,86.2 81.7,89.3 81.7,91.5 82.9,91.5 82.9,89.3 84.7,86.2 83.5,86.2 	"/>
	<path class="st0" d="M94.1,86.2H93l-1.7,5.3h1.1l0.4-1.4h1.3l0.5,1.4h1.2L94.1,86.2z M93.1,89.1l0.3-1l0.3,1H93.1z"/>
	<polygon class="st0" points="101.3,89.2 99.6,86.2 99,86.2 98.8,86.2 98.3,86.2 98.3,91.5 99.4,91.5 99.4,88.1 101.4,91.5 
		102.4,91.5 102.4,86.2 101.3,86.2 	"/>
	<path class="st0" d="M107.4,86.2h-1.8v5.3h2c0.8,0,1.3-0.3,1.8-0.9c0.4-0.5,0.5-1.1,0.5-1.8c0-0.7-0.2-1.4-0.6-1.9
		C108.6,86.2,108,86.2,107.4,86.2 M106.7,90.4v-3.1h0.6c0.4,0,0.7,0.1,1,0.4c0.2,0.3,0.4,0.7,0.4,1.2c0,0.4-0.1,0.8-0.3,1.1
		c-0.2,0.3-0.5,0.5-1,0.5L106.7,90.4L106.7,90.4z"/>
	<polygon class="st0" points="27.8,96.6 27.8,95.5 24.2,95.5 24.2,100.8 27.9,100.8 27.9,99.7 25.4,99.7 25.4,98.5 27.3,98.5 
		27.3,97.5 25.4,97.5 25.4,96.6 	"/>
	<polygon class="st0" points="35.6,95.5 34.4,95.5 34.4,100.8 37.8,100.8 37.8,99.7 35.6,99.7 	"/>
	<polygon class="st0" points="45.4,98.5 47.3,98.5 47.3,97.5 45.4,97.5 45.4,96.6 47.8,96.6 47.8,95.5 44.2,95.5 44.2,100.8 
		47.8,100.8 47.8,99.7 45.4,99.7 	"/>
	<path class="st0" d="M57.2,98.8c-0.2,0.8-0.6,0.9-0.9,0.9c-0.5,0-0.7-0.4-0.8-0.6c-0.1-0.3-0.2-0.7-0.2-1.1s0.1-1.6,1-1.6
		c0.5,0,0.7,0.3,0.9,0.9l0.1,0.3l1.1-0.2l-0.1-0.3c-0.2-1.1-1-1.7-2-1.7c-1.6,0-2.3,1.3-2.3,2.7s0.7,2.8,2.2,2.8c1,0,1.8-0.6,2-1.8
		l0.1-0.3l-1.1-0.2V98.8z"/>
	<polygon class="st0" points="64.5,96.6 65.8,96.6 65.8,100.8 67,100.8 67,96.6 68.3,96.6 68.3,95.5 64.5,95.5 	"/>
	<path class="st0" d="M78.9,98.1c0-1.3-0.7-2.7-2.2-2.7s-2.2,1.4-2.2,2.8c0,1.3,0.7,2.7,2.2,2.7C78.1,100.9,78.9,99.5,78.9,98.1
		 M77.5,97c0.2,0.3,0.2,0.7,0.2,1.1c0,0.2,0,1.7-1,1.7c-0.8,0-1-1-1-1.6c0-0.4,0.1-1.7,1.1-1.7C77,96.5,77.3,96.7,77.5,97"/>
	<path class="st0" d="M88.4,100.8h1.3l-1-2.3c0.5-0.3,0.8-0.8,0.8-1.4c0-0.5-0.2-1-0.6-1.3s-0.9-0.4-1.3-0.4h-2.1v5.3h1.2v-2h0.8
		L88.4,100.8z M87.6,96.6c0.2,0,0.4,0,0.5,0.1s0.2,0.2,0.2,0.4c0,0.2-0.1,0.3-0.2,0.4c-0.1,0.2-0.3,0.2-0.6,0.2h-0.8v-1.1H87.6
		L87.6,96.6z"/>
	<path class="st0" d="M97.1,99.4h1.3l0.5,1.4h1.2l-1.7-5.3h-1.1l-1.7,5.3h1.1L97.1,99.4z M97.5,98.4l0.3-1l0.3,1H97.5z"/>
	<polygon class="st0" points="107.5,95.5 106.4,95.5 106.4,100.8 109.7,100.8 109.7,99.7 107.5,99.7 	"/>
	<path class="st0" d="M25.6,104.8l-1.7,5.3H25l0.4-1.4h1.3l0.5,1.4h1.2l-1.7-5.3H25.6z M25.8,107.7l0.3-1l0.3,1H25.8z"/>
	<path class="st0" d="M36,106.9l-0.7-0.2c-0.5-0.1-0.6-0.2-0.6-0.5c0-0.4,0.5-0.5,0.7-0.5c0.4,0,0.8,0.2,0.9,0.6l0.1,0.3l1.1-0.3
		l-0.1-0.3c-0.3-0.9-1-1.4-2-1.4c-1.1,0-1.9,0.6-1.9,1.6c0,0.4,0.2,0.8,0.5,1.1c0.3,0.3,0.7,0.4,1,0.4l0.8,0.2
		c0.5,0.1,0.6,0.3,0.6,0.5c0,0.1-0.1,0.3-0.2,0.4c-0.1,0.1-0.4,0.2-0.7,0.2s-0.9-0.1-1.1-0.8l-0.1-0.3l-1.1,0.2l0.1,0.3
		c0.4,1,1.1,1.5,2.2,1.5c0.6,0,1.1-0.1,1.4-0.4c0.4-0.3,0.6-0.8,0.6-1.3s-0.2-0.9-0.5-1.2C36.7,107.1,36.4,107,36,106.9"/>
	<path class="st0" d="M45.5,106.9l-0.7-0.2c-0.5-0.1-0.6-0.2-0.6-0.5c0-0.4,0.5-0.5,0.7-0.5c0.4,0,0.8,0.2,0.9,0.6l0.1,0.3l1.1-0.3
		l-0.1-0.3c-0.3-0.8-1-1.4-2-1.4c-1.1,0-1.9,0.6-1.9,1.6c0,0.4,0.2,0.8,0.5,1.1c0.3,0.3,0.7,0.4,1,0.4l0.8,0.2
		c0.5,0.1,0.6,0.3,0.6,0.5c0,0.1-0.1,0.3-0.2,0.4c-0.1,0.1-0.4,0.2-0.7,0.2c-0.4,0-0.9-0.1-1.1-0.8l-0.1-0.3l-1.1,0.2l0.1,0.3
		c0.4,1,1.1,1.5,2.2,1.5c0.6,0,1.1-0.1,1.4-0.4c0.4-0.3,0.6-0.8,0.6-1.3s-0.2-0.9-0.5-1.2C46.2,107.1,45.9,107,45.5,106.9"/>
	<rect x="52.6" y="104.8" class="st0" width="1.2" height="5.3"/>
	<path class="st0" d="M62,106.9l-0.7-0.2c-0.5-0.1-0.6-0.2-0.6-0.5c0-0.4,0.5-0.5,0.7-0.5c0.4,0,0.8,0.2,0.9,0.6l0.1,0.3l1.1-0.3
		l-0.1-0.3c-0.3-0.9-1-1.4-2-1.4c-1.1,0-1.9,0.6-1.9,1.6c0,0.4,0.2,0.8,0.5,1.1c0.3,0.3,0.7,0.4,1,0.4l0.8,0.2
		c0.5,0.1,0.6,0.3,0.6,0.5c0,0.1-0.1,0.3-0.2,0.4c-0.1,0.1-0.4,0.2-0.7,0.2c-0.4,0-0.9-0.1-1.1-0.8l-0.1-0.3l-1.1,0.2l0.1,0.3
		c0.4,1,1.1,1.5,2.2,1.5c0.6,0,1.1-0.1,1.4-0.4c0.4-0.3,0.6-0.8,0.6-1.3s-0.2-0.9-0.5-1.2C62.7,107.1,62.4,107,62,106.9"/>
	<polygon class="st0" points="68.6,105.9 69.9,105.9 69.9,110.1 71.1,110.1 71.1,105.9 72.4,105.9 72.4,104.8 68.6,104.8 	"/>
	<path class="st0" d="M78.8,104.8l-1.7,5.3h1.1l0.4-1.4H80l0.5,1.4h1.2l-1.7-5.3H78.8z M79,107.7l0.3-1l0.3,1H79z"/>
	<polygon class="st0" points="89.8,107.9 88,104.8 87.4,104.8 87.3,104.8 86.8,104.8 86.8,110.1 87.9,110.1 87.9,106.8 89.8,110.1 
		90.9,110.1 90.9,104.8 89.8,104.8 	"/>
	<path class="st0" d="M99.4,108.2c-0.2,0.9-0.8,0.9-0.9,0.9c-0.5,0-0.7-0.4-0.8-0.6c-0.1-0.3-0.2-0.7-0.2-1.1s0.1-1.6,1-1.6
		c0.5,0,0.7,0.3,0.9,0.9l0.1,0.3l1.1-0.2l-0.1-0.3c-0.2-1.1-1-1.7-2-1.7c-1.6,0-2.3,1.3-2.3,2.7c0,1.3,0.7,2.8,2.2,2.8
		c1,0,1.8-0.6,2-1.8l0.1-0.3l-1.1-0.2L99.4,108.2z"/>
	<polygon class="st0" points="107.2,107.9 109.2,107.9 109.2,106.8 107.2,106.8 107.2,105.9 109.6,105.9 109.6,104.8 106.1,104.8 
		106.1,110.1 109.7,110.1 109.7,109 107.2,109 	"/>
</g>
</svg>
