<?xml version="1.0" encoding="utf-8"?>
<!-- Generator: Adobe Illustrator 25.4.1, SVG Export Plug-In . SVG Version: 6.00 Build 0)  -->
<!DOCTYPE svg PUBLIC "-//W3C//DTD SVG 1.1//EN" "http://www.w3.org/Graphics/SVG/1.1/DTD/svg11.dtd" [
	<!ENTITY ns_extend "http://ns.adobe.com/Extensibility/1.0/">
	<!ENTITY ns_ai "http://ns.adobe.com/AdobeIllustrator/10.0/">
	<!ENTITY ns_graphs "http://ns.adobe.com/Graphs/1.0/">
	<!ENTITY ns_vars "http://ns.adobe.com/Variables/1.0/">
	<!ENTITY ns_imrep "http://ns.adobe.com/ImageReplacement/1.0/">
	<!ENTITY ns_sfw "http://ns.adobe.com/SaveForWeb/1.0/">
	<!ENTITY ns_custom "http://ns.adobe.com/GenericCustomNamespace/1.0/">
	<!ENTITY ns_adobe_xpath "http://ns.adobe.com/XPath/1.0/">
]>
<svg version="1.1" id="Capa_1" xmlns:x="&ns_extend;" xmlns:i="&ns_ai;" xmlns:graph="&ns_graphs;"
	 xmlns="http://www.w3.org/2000/svg" xmlns:xlink="http://www.w3.org/1999/xlink" x="0px" y="0px" viewBox="0 0 337 108.3"
	 style="enable-background:new 0 0 337 108.3;" xml:space="preserve">
<style type="text/css">
	.st0{fill:#36768D;}
	.st1{fill:#36768E;}
</style>
<metadata>
	<sfw  xmlns="&ns_sfw;">
		<slices></slices>
		<sliceSourceBounds  bottomLeftOrigin="true" height="108.3" width="337" x="791.6" y="-595.1"></sliceSourceBounds>
	</sfw>
</metadata>
<g>
	<ellipse class="st0" cx="35.9" cy="101.6" rx="50.7" ry="0.5"/>
	<path class="st1" d="M334.5,68.5c-0.7-0.8-1.7-0.1-2.4,0.5c-1.5,1.2-3,2.4-4.5,3.6c-5.3,3.9-10.7,7.7-17.2,9.3
		c-6.6,1.6-10.8-2.7-9.2-9.2c0.8-3.4,2.1-6.5,5-8.8c0.5-0.4,1.1-0.8,0.6-1.5c-0.5-0.7-1.2-0.6-1.9-0.2c-0.6,0.4-1.1,0.9-1.6,1.4
		c-4.1,3.8-8.4,7.6-13.1,10.8c-3.5,2.4-7.2,4.6-11.5,5.2c-2,0.3-3.9,0.1-5.3-1.5c-1.4-1.7-0.9-3.6-0.2-5.4
		c2.5-6.2,11.5-12.1,18.3-12.2c2.1,0,3.8,0.6,4.5,2.8c0.3,1,0.9,1.5,2,1.2c2.1-0.6,5.7-4.6,5.2-6.2c-0.5-1.5-1.8-2.2-3.3-2.2
		c-3.1,0-6,0.6-8.9,1.5c-2.3,0.7-4.5,1.5-6.7,2.5c-4.3,2-8.3,4.5-11.7,7.7c-2,1.8-3.9,3.9-5.6,6c-0.5,0.6-0.8,1.4-1.6,1.7
		c-6.6,2.5-13.2,5.1-20.5,4.9c-3-0.1-5.8-1.1-7.7-3.5c-1.1-1.3-1.3-2.4,0.2-3.8c3.8-3.7,7.4-7.5,9.9-12.1c0.8-1.4,1.7-3,0.3-4.5
		c-2.7-3-9.2,1.8-11.3,3.7c-3.1,2.8-5.2,6.6-5.6,10.7c-0.4,3.8-2,5-5,6.1c-6.1,2.2-12,4.8-18.6,4.7c-6.8,0-9.5-4.1-7.1-10.4
		c1-2.4,2.3-4.7,3.4-7.1c0.4-0.9,1.1-1.9,0.2-2.8c-0.9-0.9-2.1-0.7-3.1-0.2c-0.7,0.3-1.4,0.9-2,1.3c-2.5,1.8-5.1,3.6-7.6,5.3
		c-2.5,1.8-5.1,3.6-7.6,5.3s-5.1,3.6-7.6,5.3c-0.6,0.4-1.1,0.8-1.6,1.2c-0.5,0.4-1.1,0.7-1.8,0.4c4.7-4.5,9.1-9.4,13-14.7
		c0.4-0.6,0.8-1.2,1-1.8c2.6-7.1-7,1.1-8.5,2.5c-4,3.9-8.4,7.2-13.1,10.3c-2.5,1.6-5,3.1-7.9,3.6c-4.2,0.8-8.1,0.3-11.2-2.8
		c-0.7-0.7-1.1-1.4-1.1-2.1c0-0.8,0.4-1.6,1.2-2.4c3.6-3.4,6.9-7.1,9.4-11.4c0.9-1.5,2-3.1,0.7-4.8c-1.4-1.8-3.3-1-5-0.4
		c-7.4,2.5-12.8,10.6-12.3,18.3c0.1,1.1,0.2,2.1-0.9,2.9c-2.2,1.5-4.3,3-6.8,4c-4,1.5-5.9,0.2-5.6-4c0.5-5.3,2.3-10.3,5.1-14.8
		c4.9-7.9,10.1-15.6,15.1-23.4l1.3-1.7h1.9c17.8-0.2,35.4,2,52.9,5.2c1.2,0.2,2.5,0.9,3-0.9c0.4-1.5-0.1-2.8-1.7-3.4
		c-0.8-0.3-1.6-0.4-2.3-0.6c-9.2-1.6-18.4-2.2-27.7-3c-7.8-0.6-15.7-0.8-24-0.6c5.6-8.5,11.4-15.9,17.9-22.9
		c2.3-2.5,4.5-4.9,6.3-7.7c0.8-1.3,0.7-2-0.7-2.9c-2.6-1.8-4.1-0.2-5.6,1.6c-7.6,9.5-15.2,20.5-21.7,30.7l-1,1.4l-2.6-0.1
		c-8.4-0.2-16.7,0.6-25.1,1.3c-2.2,0.2-4.4,0.6-6.6,1c-2,0.4-1.6,2.1-1.4,3.5c0.3,1.8,1.5,1.1,2.5,0.8c4.5-1.2,9.1-1.8,13.7-2.3
		c5.7-0.6,11.4-1,17.3-1.4c-8.4,16.6-19.5,30.1-35.5,39.1c-1.8,1-3.6,1.8-5.5,2.5c-5.9,2.2-11.9,2.9-18.1,1.6
		c-6.1-1.4-8.2-5.1-6.2-11c1.3-3.9,3.5-7.2,6.6-10c1.7-1.5,3.4-3.2,5-4.8c0.4-0.4,1-0.9,0.5-1.5c-0.5-0.5-1.1-0.3-1.7-0.1
		c-2,0.9-3.4,2.5-4.8,4c-9.4,10.2-20.6,17.1-34.4,19.4c-7.5,1.2-15.1,2.1-22.5-0.3c-6.6-2.2-9.5-7.5-8-14.2c0.9-4.3,3-8.1,5.7-11.6
		c7.7-9.7,17.9-15.3,29.8-17.8c7.2-1.5,14.3-1,20.9,2.5c3.4,1.8,5.4,4.4,5.9,8.3c0.2,1.4,0.2,2.8-0.1,4.2c-0.1,0.6-0.3,1.3,0.4,1.6
		c0.6,0.3,1.2-0.2,1.6-0.6c2.4-1.9,4.4-4.2,5.7-7c2.4-5,1.1-9-3.8-11.7c-10.2-5.7-24.8-2.5-35.3,1c-11.2,3.7-21.5,10.1-30,18.3
		c-4.4,4.3-7.4,9.6-8.8,15.6c-2.4,10.8,3.6,19.8,14.1,20.9c3.3,0.4,6.7,0.3,10-0.2c8-1.1,15.6-3.7,22.8-7.3c3.3-1.6,6.4-3.3,9.5-5.3
		c1.5-1,3-2,4.5-3.1c0.6-0.4,1.1-0.7,1.8-1c0.1,0,1.2-0.5,1.2-0.5c-0.7,2.3-1.4,4.4-2,6.6c-1.3,5.3,0.6,8.6,5.9,10
		c4.6,1.2,9.2,1.2,13.8,0.4c7.8-1.3,15.1-4.3,21.8-8.4c1.7-1,3.4-2.1,5-3.3c0.9-0.7,1.9-1.3,2.9-2.1c0.8-0.7,1.6-1.8,2.7-2
		c0.1,0,0.8,0,0.8,0c-1.4,2.6-2.9,5-3.6,7.7c-0.7,2.6-1.4,5.2,1,7.3c2.2,2,4.9,1.5,7.4,0.6c3.4-1.2,6.2-3.3,8.9-5.6
		c1.3-1.1,1.9-1.2,2.8,0.4c2.1,3.4,5.1,5.3,9.3,5.3c3.2,0,6.1-1.1,9-2.5c3.2-1.5,6.2-3.4,9.1-5.4c1.4-1,2.8-2,4.2-3
		c0.6-0.4,1.1-0.9,1.7-1.3c0.4-0.3,0.8-0.5,1.1-0.8c0.4-0.3,0.7-0.6,1.1-0.9c0.4-0.3,1-0.9,1.6-0.7c0.4,0.2,0.4,0.9,0.2,1.3
		c-0.1,0.2-0.3,0.3-0.5,0.5c-0.2,0.2-0.4,0.4-0.6,0.6c-0.4,0.4-0.8,0.8-1.2,1.1c-0.7,0.7-1.5,1.3-2.1,2c0,0,0,0,0,0
		c-1.9,2-3.8,4.1-5.6,6.2c-0.7,0.8-1.9,1.7-0.8,2.8c0.9,0.9,2.1,0.4,3.1-0.1c0.9-0.5,1.7-1.1,2.5-1.7c6.2-4.6,12.3-9.2,18.5-13.7
		c1-0.8,2.3-2,3.5-1.2c0.8,0.5,0.5,1.2,0.2,1.9c-0.7,1.5-1.2,3.2-1.4,4.9c-1,5.7,1.9,9.4,7.7,9.9c1.1,0.1,2.2,0.1,3.3,0.1
		c9-0.2,17.2-3,25.1-7.1c0.7-0.4,1.4-1.4,2.4,0.1c4.8,7.1,7.8,8.2,16,6.3c5.8-1.3,11.2-3.7,16.8-6c0.8,6.4,3.5,8.2,9.5,6.2
		c4.5-1.4,8.7-3.7,12.8-6.1c3.4-2.1,6.6-4.5,10.3-7.4c-0.7,2.6-1.3,4.5-1.7,6.4c-1.1,5.4,2.3,9.6,7.7,9.9c2.5,0.1,4.8-0.6,7-1.5
		c6.3-2.7,11.9-6.4,17.3-10.5c2.2-1.6,4.2-3.5,6.2-5.3C334.1,70,335.1,69.3,334.5,68.5z M147,60.8c0.9-0.8,2.2-1.6,3.3-0.8
		c1.2,0.9,0.8,2.4,0.2,3.5c-1.7,3-4.1,5.3-6.9,8C143.1,67,143.9,63.5,147,60.8z M238.7,61.1c1-1,2.4-2,3.7-1c1.3,1,0.7,2.5-0.1,3.8
		c-1.7,2.8-4,5-6.7,7.7C235.2,67.2,236,63.8,238.7,61.1z"/>
	<rect y="100.6" class="st1" width="71.8" height="1.2"/>
	<rect x="265.2" y="100.6" class="st1" width="71.8" height="1.2"/>
	<path class="st1" d="M81.1,95.4h2c1.7,0,2.4,0.9,2.4,2.9v0.8c0,1.9-0.5,3.2-2.5,3.2h-0.8v5.5h-1.2V95.4z M82.3,101.2H83
		c1.3,0,1.4-0.9,1.4-2.2v-0.7c0-1-0.2-1.9-1.3-1.9h-0.8V101.2z M93.6,101v4c0,2.1-0.9,3-2.2,3c-1.4,0-2.2-0.9-2.2-2.9v-4
		c0-1.8,0.9-2.8,2.2-2.8C92.8,98.2,93.6,99.2,93.6,101z M90.3,101v4.1c0,1,0.3,1.7,1,1.7c0.7,0,1-0.5,1-1.7V101c0-0.9-0.3-1.6-1-1.6
		C90.7,99.4,90.3,99.9,90.3,101z M97.5,101.5c0-1.5,0-2.4,0-3.2h1.1c0,0.2,0,0.8,0,1.5c0.3-1.2,1-1.6,1.8-1.6v1.6
		c-1,0-1.8,0.7-1.8,2.4v5.6h-1.2V101.5z M113.2,105.2c0,1.2,0,2.1,0,2.6h-1.1c0-0.2,0-0.7,0-1c-0.3,0.9-0.8,1.1-1.5,1.1
		c-0.7,0-1.6-0.3-1.6-2.4v-7.2h1.2v6.8c0,1.1,0.3,1.6,0.9,1.6c0.6,0,1.1-0.4,1.1-2.2v-6.2h1.2V105.2z M117.4,101.2
		c0-1.9,0-2.4,0-2.9h1.1c0,0.2,0,0.5,0,0.9c0.2-0.7,0.8-1.1,1.6-1.1c0.9,0,1.7,0.6,1.7,2.3v7.3h-1.2v-7c0-0.9-0.3-1.4-0.9-1.4
		c-0.7,0-1.1,0.4-1.1,2.2v6.2h-1.2V101.2z M129.9,106.1c0,0.6,0,1.4,0,1.6h-1.1c0-0.2-0.1-0.6-0.1-0.8c-0.3,0.7-0.8,0.9-1.4,0.9
		c-1.2,0-1.7-1.2-1.7-2.7v-0.2c0-2.1,1.2-2.9,2.7-2.9c0.1,0,0.2,0,0.4,0v-1.5c0-0.9-0.1-1.4-0.8-1.4c-0.7,0-0.8,0.6-0.8,1.3v0.3
		h-1.2v-0.2c0-1.3,0.5-2.4,2-2.4c1.5,0,1.9,1,1.9,2.4V106.1z M128.7,103.2c-0.1,0-0.3,0-0.4,0c-1,0-1.5,0.4-1.5,1.8v0.2
		c0,0.8,0.2,1.5,0.9,1.5c0.8,0,1-0.7,1-2.1V103.2z M143.2,94.8v10.5c0,1.1,0,1.9,0,2.4h-1.1c0-0.2,0-0.7,0-0.9
		c-0.2,0.6-0.6,1.1-1.5,1.1c-1.4,0-1.8-1.3-1.8-3.1V101c0-1.7,0.6-2.8,1.9-2.8c0.7,0,1.1,0.3,1.3,0.7v-4.1H143.2z M139.9,101.1v3.8
		c0,1.2,0.3,1.8,0.9,1.8c0.9,0,1.1-0.9,1.1-2.3v-3.1c0-1-0.1-2-1.1-2C140.2,99.4,139.9,100,139.9,101.1z M148.3,103.3v1.5
		c0,0.9,0.2,1.9,1,1.9c0.8,0,1-0.7,1-1.6v-0.1h1.2v0.1c0,1.1-0.2,2.8-2.1,2.8c-1.8,0-2.2-1.3-2.2-3.2v-3.5c0-1.4,0.4-3,2.2-3
		c1.6,0,2.1,1.4,2.1,3c0,0.5,0,1.6,0,2.1H148.3z M150.3,102.2v-1.2c0-0.9-0.1-1.8-1-1.8c-0.8,0-1,0.7-1,1.8v1.2H150.3z M155.4,101
		c0-1.7,0-2.3,0-2.7h1.1c0,0.3,0,0.6,0,0.9c0.3-0.6,0.7-1,1.4-1c0.7,0,1.1,0.3,1.3,1.1c0.3-0.6,0.7-1.1,1.6-1.1
		c0.8,0,1.6,0.4,1.6,2.2v7.4h-1.2v-7.1c0-0.7-0.1-1.3-0.8-1.3c-0.8,0-1,0.8-1,1.8v6.6h-1.2v-7c0-1-0.2-1.4-0.8-1.4
		c-0.8,0-1,0.8-1,1.9v6.5h-1.2V101z M170.8,101v4c0,2.1-0.9,3-2.2,3c-1.4,0-2.2-0.9-2.2-2.9v-4c0-1.8,0.9-2.8,2.2-2.8
		C170.1,98.2,170.8,99.2,170.8,101z M167.6,101v4.1c0,1,0.3,1.7,1,1.7c0.7,0,1-0.5,1-1.7V101c0-0.9-0.3-1.6-1-1.6
		C167.9,99.4,167.6,99.9,167.6,101z M178.7,104.8v0.1c0,1.6-0.4,3-2.1,3c-1.7,0-2.1-1.3-2.1-3.2v-3.7c0-1.6,0.5-2.9,2.1-2.9
		c1.7,0,2,1.4,2,2.7v0.4h-1.2v-0.3c0-0.9-0.1-1.6-0.9-1.6c-0.7,0-0.9,0.6-0.9,1.7v4.1c0,0.9,0.1,1.8,0.9,1.8c0.7,0,0.9-0.5,0.9-1.7
		v-0.3H178.7z M182.5,101.5c0-1.5,0-2.4,0-3.2h1.1c0,0.2,0,0.8,0,1.5c0.3-1.2,1-1.6,1.8-1.6v1.6c-1,0-1.8,0.7-1.8,2.4v5.6h-1.2
		V101.5z M192.8,106.1c0,0.6,0,1.4,0,1.6h-1.1c0-0.2-0.1-0.6-0.1-0.8c-0.3,0.7-0.8,0.9-1.4,0.9c-1.2,0-1.7-1.2-1.7-2.7v-0.2
		c0-2.1,1.2-2.9,2.7-2.9c0.1,0,0.2,0,0.4,0v-1.5c0-0.9-0.1-1.4-0.8-1.4c-0.7,0-0.8,0.6-0.8,1.3v0.3h-1.2v-0.2c0-1.3,0.5-2.4,2-2.4
		c1.5,0,1.9,1,1.9,2.4V106.1z M191.6,103.2c-0.1,0-0.3,0-0.4,0c-1,0-1.5,0.4-1.5,1.8v0.2c0,0.8,0.2,1.5,0.9,1.5c0.8,0,1-0.7,1-2.1
		V103.2z M201,104.8v0.1c0,1.6-0.4,3-2.1,3c-1.7,0-2.1-1.3-2.1-3.2v-3.7c0-1.6,0.5-2.9,2.1-2.9c1.7,0,2,1.4,2,2.7v0.4h-1.2v-0.3
		c0-0.9-0.1-1.6-0.9-1.6c-0.7,0-0.9,0.6-0.9,1.7v4.1c0,0.9,0.1,1.8,0.9,1.8c0.7,0,0.9-0.5,0.9-1.7v-0.3H201z M204.8,98.3h1.2v9.5
		h-1.2V98.3z M204.8,94.8h1.2v1.9h-1.2V94.8z M214,106.1c0,0.6,0,1.4,0,1.6h-1.1c0-0.2-0.1-0.6-0.1-0.8c-0.3,0.7-0.8,0.9-1.4,0.9
		c-1.2,0-1.7-1.2-1.7-2.7v-0.2c0-2.1,1.2-2.9,2.7-2.9c0.1,0,0.2,0,0.4,0v-1.5c0-0.9-0.1-1.4-0.8-1.4c-0.7,0-0.8,0.6-0.8,1.3v0.3H210
		v-0.2c0-1.3,0.5-2.4,2-2.4c1.5,0,1.9,1,1.9,2.4V106.1z M212.8,103.2c-0.1,0-0.3,0-0.4,0c-1,0-1.5,0.4-1.5,1.8v0.2
		c0,0.8,0.2,1.5,0.9,1.5c0.8,0,1-0.7,1-2.1V103.2z M227.1,96.9h-2.7c-0.1,1-0.2,2.7-0.2,3.6c0.2-0.4,0.7-0.7,1.4-0.7
		c1.4,0,1.9,1.2,1.9,3.2v1.4c0,2-0.4,3.5-2.4,3.5c-1.7,0-2.3-1.3-2.3-2.9v-0.2h1.2v0.3c0,0.8,0.2,1.6,1.1,1.6c1,0,1.1-0.9,1.1-2.2
		V103c0-1.3-0.2-2.1-1.1-2.1c-0.7,0-1,0.4-1.2,1.3l-1.1-0.1c0.2-1.7,0.4-5.2,0.4-6.4h3.9L227.1,96.9z M235.8,98.6v6.2
		c0,2.1-0.7,3.1-2.3,3.1c-1.5,0-2.2-1-2.2-3.1v-6.1c0-2.3,1-3.1,2.3-3.1C234.9,95.5,235.8,96.4,235.8,98.6z M232.4,98.6v6.3
		c0,1.2,0.3,1.8,1.1,1.8c0.7,0,1.1-0.5,1.1-1.8v-6.3c0-1.3-0.4-1.8-1.1-1.8C232.9,96.8,232.4,97.2,232.4,98.6z M239.4,108.3l2.5-13
		h1l-2.5,13H239.4z M250.6,96.9H248c-0.1,1-0.2,2.7-0.2,3.6c0.2-0.4,0.7-0.7,1.4-0.7c1.4,0,1.9,1.2,1.9,3.2v1.4c0,2-0.4,3.5-2.4,3.5
		c-1.7,0-2.3-1.3-2.3-2.9v-0.2h1.2v0.3c0,0.8,0.2,1.6,1.1,1.6c1,0,1.1-0.9,1.1-2.2V103c0-1.3-0.2-2.1-1.1-2.1c-0.7,0-1,0.4-1.2,1.3
		l-1.1-0.1c0.2-1.7,0.4-5.2,0.4-6.4h3.9L250.6,96.9z M259.3,98.6v6.2c0,2.1-0.7,3.1-2.3,3.1c-1.5,0-2.2-1-2.2-3.1v-6.1
		c0-2.3,1-3.1,2.3-3.1C258.4,95.5,259.3,96.4,259.3,98.6z M256,98.6v6.3c0,1.2,0.3,1.8,1.1,1.8c0.7,0,1.1-0.5,1.1-1.8v-6.3
		c0-1.3-0.4-1.8-1.1-1.8C256.4,96.8,256,97.2,256,98.6z"/>
</g>
</svg>
