<?xml version="1.0" encoding="utf-8"?>
<!-- Generator: Adobe Illustrator 25.4.1, SVG Export Plug-In . SVG Version: 6.00 Build 0)  -->
<!DOCTYPE svg PUBLIC "-//W3C//DTD SVG 1.1//EN" "http://www.w3.org/Graphics/SVG/1.1/DTD/svg11.dtd" [
	<!ENTITY ns_extend "http://ns.adobe.com/Extensibility/1.0/">
	<!ENTITY ns_ai "http://ns.adobe.com/AdobeIllustrator/10.0/">
	<!ENTITY ns_graphs "http://ns.adobe.com/Graphs/1.0/">
	<!ENTITY ns_vars "http://ns.adobe.com/Variables/1.0/">
	<!ENTITY ns_imrep "http://ns.adobe.com/ImageReplacement/1.0/">
	<!ENTITY ns_sfw "http://ns.adobe.com/SaveForWeb/1.0/">
	<!ENTITY ns_custom "http://ns.adobe.com/GenericCustomNamespace/1.0/">
	<!ENTITY ns_adobe_xpath "http://ns.adobe.com/XPath/1.0/">
]>
<svg version="1.1" id="Ebene_1" xmlns:x="&ns_extend;" xmlns:i="&ns_ai;" xmlns:graph="&ns_graphs;"
	 xmlns="http://www.w3.org/2000/svg" xmlns:xlink="http://www.w3.org/1999/xlink" x="0px" y="0px" viewBox="0 0 156.2 60.6"
	 style="enable-background:new 0 0 156.2 60.6;" xml:space="preserve">
<style type="text/css">
	.st0{fill:#E30613;}
	.st1{fill:#FFFFFF;}
</style>
<metadata>
	<sfw  xmlns="&ns_sfw;">
		<slices></slices>
		<sliceSourceBounds  bottomLeftOrigin="true" height="77.4" width="229" x="48.2" y="639.7"></sliceSourceBounds>
	</sfw>
</metadata>
<g>
	<g>
		<path d="M29.9,6.5c0.3,0.2,0.7,0.3,1.2,0.3c0.3,0,0.6-0.1,0.8-0.3c0.2-0.2,0.3-0.4,0.3-0.8c0-0.3-0.1-0.5-0.4-0.6
			c-0.1,0-0.1-0.1-0.2-0.1c-0.1,0-0.1-0.1-0.2-0.1c-0.1,0-0.1-0.1-0.2-0.1L31,4.6c-0.1,0-0.1-0.1-0.2-0.1c-0.1,0-0.1-0.1-0.2-0.1
			c-0.1,0-0.1-0.1-0.2-0.1c-0.1,0-0.1-0.1-0.2-0.2c-0.2-0.2-0.4-0.5-0.4-0.8c0-0.4,0.2-0.8,0.5-1C30.6,2,31,1.9,31.4,1.9
			c0.1,0,0.1,0,0.2,0c0.1,0,0.2,0,0.3,0c0.2,0,0.4,0.1,0.5,0.1l-0.1,0.5c-0.3-0.1-0.6-0.2-1-0.2c-0.1,0-0.3,0-0.4,0
			c-0.1,0-0.3,0.1-0.4,0.2c-0.1,0.1-0.2,0.2-0.3,0.3c-0.1,0.1-0.1,0.3-0.1,0.4c0,0.1,0,0.2,0.1,0.3c0.1,0.1,0.2,0.2,0.3,0.3
			c0.1,0.1,0.2,0.2,0.4,0.2c0.1,0,0.1,0.1,0.2,0.1c0.1,0,0.1,0.1,0.2,0.1c0.3,0.2,0.6,0.3,0.8,0.6C32.4,5,32.4,5,32.5,5.1
			c0,0.1,0.1,0.1,0.1,0.2c0.1,0.1,0.1,0.3,0.1,0.5c0,0.5-0.2,0.9-0.6,1.1c-0.4,0.2-0.7,0.3-1.2,0.3c-0.5,0-0.9-0.1-1.2-0.2L29.9,6.5
			z"/>
		<path d="M36.8,3.9c-0.3-0.1-0.5-0.2-0.8-0.2c-0.5,0-0.8,0.2-1.1,0.4c-0.3,0.3-0.4,0.7-0.4,1.2c0,0.4,0.1,0.8,0.4,1.1
			c0.2,0.3,0.6,0.5,1,0.5c0.3,0,0.6-0.1,0.9-0.2l0,0.4c-0.3,0.1-0.6,0.1-1,0.1c-0.6,0-1.1-0.2-1.4-0.6C34.2,6.3,34,5.8,34,5.3
			c0-0.6,0.2-1.1,0.5-1.4c0.3-0.4,0.8-0.5,1.4-0.6c0.2,0,0.4,0,0.6,0.1c0.1,0,0.1,0,0.2,0c0,0,0,0,0.1,0c0,0,0,0,0.1,0L36.8,3.9z"/>
		<path d="M38.2,1.6h0.5V4h0c0.1-0.2,0.3-0.4,0.5-0.5c0.2-0.1,0.4-0.2,0.7-0.2c0.5,0,0.9,0.2,1,0.5c0.2,0.3,0.3,0.7,0.3,1.2v2.3
			h-0.5V4.9c0-0.1,0-0.2,0-0.2c0-0.1,0-0.2,0-0.2c0-0.1,0-0.1,0-0.2c0-0.1,0-0.1-0.1-0.2c-0.1-0.2-0.4-0.4-0.7-0.4
			c-0.4,0-0.7,0.2-0.9,0.5c-0.2,0.3-0.3,0.6-0.3,1v2h-0.5V1.6z"/>
		<path d="M46.9,7.2h-0.6l-1-3.3h0l-1,3.3h-0.6l-1.2-3.8h0.5l1,3.3h0L45,3.4h0.6l1,3.3h0l1.1-3.3h0.5L46.9,7.2z"/>
		<path d="M51.9,7.1c-0.4,0.1-0.7,0.2-1.1,0.2c-0.6,0-1.1-0.2-1.3-0.6c-0.3-0.4-0.4-0.8-0.4-1.4c0-0.6,0.2-1.1,0.5-1.4
			c0.3-0.4,0.7-0.5,1.2-0.6c0.5,0,0.9,0.2,1.2,0.6c0.2,0.4,0.4,0.8,0.4,1.3v0.2h-2.6c0,0.4,0.1,0.8,0.3,1c0.2,0.3,0.5,0.4,0.9,0.4
			c0.2,0,0.4,0,0.6-0.1c0.1,0,0.2-0.1,0.3-0.1c0.1,0,0.2-0.1,0.2-0.1V7.1z M51.7,5c0-0.3-0.1-0.7-0.2-0.9c-0.2-0.3-0.4-0.4-0.8-0.4
			c-0.3,0-0.6,0.1-0.8,0.4c-0.2,0.3-0.3,0.6-0.3,0.9H51.7z"/>
		<path d="M54.2,2.4h-0.5V1.7h0.5V2.4z M53.7,3.4h0.5v3.8h-0.5V3.4z"/>
		<path d="M55.6,6.8l2.3-3h-2.2V3.4h2.8v0.4l-2.3,3h2.3v0.4h-2.9V6.8z"/>
		<path d="M62.5,7.1c-0.4,0.1-0.7,0.2-1.1,0.2c-0.6,0-1.1-0.2-1.3-0.6c-0.3-0.4-0.4-0.8-0.4-1.4c0-0.6,0.2-1.1,0.5-1.4
			c0.3-0.4,0.7-0.5,1.2-0.6c0.5,0,0.9,0.2,1.2,0.6c0.2,0.4,0.4,0.8,0.4,1.3v0.2h-2.6c0,0.4,0.1,0.8,0.3,1c0.2,0.3,0.5,0.4,0.9,0.4
			c0.2,0,0.4,0,0.6-0.1c0.1,0,0.2-0.1,0.3-0.1c0.1,0,0.2-0.1,0.2-0.1V7.1z M62.2,5c0-0.3-0.1-0.7-0.2-0.9c-0.2-0.3-0.4-0.4-0.8-0.4
			c-0.3,0-0.6,0.1-0.8,0.4c-0.2,0.3-0.3,0.6-0.3,0.9H62.2z"/>
		<path d="M64.2,4.2c0-0.2,0-0.3,0-0.5c0-0.1,0-0.3,0-0.4h0.5v0.7h0c0.1-0.2,0.2-0.4,0.4-0.6c0.2-0.2,0.4-0.2,0.6-0.2
			c0.1,0,0.2,0,0.3,0v0.5c-0.1,0-0.2,0-0.3,0c-0.2,0-0.3,0-0.5,0.1C65.1,4,65,4.1,64.9,4.3c-0.1,0.2-0.1,0.3-0.1,0.5
			c0,0.2-0.1,0.4-0.1,0.5v1.9h-0.5V4.2z"/>
		<path d="M67.8,2.4h-0.5V1.7h0.5V2.4z M67.3,3.4h0.5v3.8h-0.5V3.4z"/>
		<path d="M69.3,6.6c0.3,0.1,0.6,0.2,1,0.2c0.2,0,0.4-0.1,0.6-0.2c0.2-0.1,0.2-0.3,0.2-0.5c0-0.2-0.1-0.4-0.3-0.5
			c-0.2-0.1-0.4-0.2-0.6-0.3c-0.1,0-0.1-0.1-0.2-0.1l-0.2-0.1C69.8,5.1,69.7,5,69.6,5c0,0-0.1-0.1-0.1-0.1c0,0-0.1-0.1-0.1-0.2
			c-0.1-0.1-0.1-0.2-0.1-0.4c0-0.4,0.1-0.7,0.4-0.8c0.2-0.2,0.5-0.2,0.9-0.2c0.1,0,0.1,0,0.2,0c0.1,0,0.2,0,0.2,0
			c0.2,0,0.4,0.1,0.5,0.1l0,0.4c-0.3-0.1-0.6-0.2-0.8-0.2c-0.3,0-0.4,0-0.6,0.1c-0.1,0-0.1,0.1-0.2,0.2c0,0.1-0.1,0.2-0.1,0.3
			c0,0.1,0,0.2,0.1,0.2c0.1,0.1,0.1,0.1,0.2,0.2c0,0,0.1,0.1,0.1,0.1c0.1,0,0.1,0.1,0.2,0.1c0.1,0,0.1,0.1,0.2,0.1
			c0.1,0,0.1,0.1,0.2,0.1c0.2,0.1,0.5,0.2,0.7,0.4c0.2,0.2,0.3,0.4,0.3,0.7c0,0.2,0,0.4-0.1,0.5C71.4,6.8,71.3,7,71.2,7
			c-0.3,0.2-0.6,0.2-0.9,0.2c-0.4,0-0.7-0.1-1.1-0.2L69.3,6.6z"/>
		<path d="M75.6,3.9c-0.3-0.1-0.5-0.2-0.8-0.2c-0.5,0-0.8,0.2-1.1,0.4c-0.3,0.3-0.4,0.7-0.4,1.2c0,0.4,0.1,0.8,0.4,1.1
			c0.2,0.3,0.6,0.5,1,0.5c0.3,0,0.6-0.1,0.9-0.2l0,0.4c-0.3,0.1-0.6,0.1-1,0.1c-0.6,0-1.1-0.2-1.4-0.6c-0.3-0.4-0.5-0.8-0.5-1.4
			c0-0.6,0.2-1.1,0.5-1.4c0.3-0.4,0.8-0.5,1.4-0.6c0.2,0,0.4,0,0.6,0.1c0.1,0,0.1,0,0.2,0c0,0,0,0,0.1,0c0,0,0,0,0.1,0L75.6,3.9z"/>
		<path d="M77,1.6h0.5V4h0c0.1-0.2,0.3-0.4,0.5-0.5c0.2-0.1,0.4-0.2,0.7-0.2c0.5,0,0.9,0.2,1,0.5C79.9,4,80,4.4,80,4.9v2.3h-0.5V4.9
			c0-0.1,0-0.2,0-0.2c0-0.1,0-0.2,0-0.2c0-0.1,0-0.1,0-0.2c0-0.1,0-0.1-0.1-0.2c-0.1-0.2-0.4-0.4-0.7-0.4c-0.4,0-0.7,0.2-0.9,0.5
			c-0.2,0.3-0.3,0.6-0.3,1v2H77V1.6z"/>
		<path d="M84.3,7.1c-0.4,0.1-0.7,0.2-1.1,0.2c-0.6,0-1.1-0.2-1.3-0.6c-0.3-0.4-0.4-0.8-0.4-1.4c0-0.6,0.2-1.1,0.5-1.4
			c0.3-0.4,0.7-0.5,1.2-0.6c0.5,0,0.9,0.2,1.2,0.6c0.2,0.4,0.4,0.8,0.4,1.3v0.2H82c0,0.4,0.1,0.8,0.3,1c0.2,0.3,0.5,0.4,0.9,0.4
			c0.2,0,0.4,0,0.6-0.1c0.1,0,0.2-0.1,0.3-0.1c0.1,0,0.2-0.1,0.2-0.1V7.1z M84.1,5c0-0.3-0.1-0.7-0.2-0.9c-0.2-0.3-0.4-0.4-0.8-0.4
			c-0.3,0-0.6,0.1-0.8,0.4C82.1,4.4,82,4.7,82,5H84.1z"/>
		<path d="M88.8,2h2.6v0.4h-2v1.9h1.9v0.4h-1.9v2h2.1v0.4h-2.7V2z"/>
		<path d="M93.6,2.4h-0.5V1.7h0.5V2.4z M93.1,3.4h0.5v3.8h-0.5V3.4z"/>
		<path d="M98.4,7.2h-0.5V6.6h0c-0.3,0.5-0.6,0.7-1.2,0.7c-0.5,0-0.9-0.2-1.2-0.6c-0.3-0.4-0.4-0.9-0.4-1.4c0-0.6,0.1-1.1,0.4-1.4
			c0.2-0.4,0.6-0.6,1.2-0.6c0.2,0,0.3,0,0.5,0.1c0.1,0,0.1,0.1,0.2,0.1c0.1,0,0.1,0.1,0.2,0.1c0.2,0.2,0.3,0.3,0.3,0.4h0l0-2.4h0.5
			V7.2z M95.6,5.3c0,0.2,0,0.4,0.1,0.5c0,0.2,0.1,0.4,0.2,0.5c0.1,0.1,0.2,0.3,0.4,0.4c0.1,0.1,0.3,0.2,0.5,0.2
			c0.2,0,0.4-0.1,0.5-0.2c0.1-0.1,0.3-0.2,0.3-0.4c0.2-0.3,0.3-0.7,0.2-1.1c0-0.1,0-0.2,0-0.3c0-0.1,0-0.2,0-0.3
			c0-0.2-0.1-0.3-0.2-0.5c-0.1-0.2-0.2-0.3-0.3-0.4c-0.1-0.1-0.3-0.1-0.5-0.1c-0.2,0-0.4,0-0.5,0.1c-0.1,0.1-0.3,0.2-0.4,0.4
			c-0.1,0.1-0.1,0.3-0.2,0.5c0,0.1,0,0.2,0,0.3C95.6,5.1,95.6,5.2,95.6,5.3z"/>
		<path d="M103.1,6.9c0,0.5-0.1,1-0.4,1.4c-0.3,0.4-0.7,0.6-1.4,0.6c-0.1,0-0.2,0-0.4,0c-0.1,0-0.2,0-0.3-0.1c-0.1,0-0.2,0-0.3-0.1
			c-0.1,0-0.1,0-0.2-0.1l0-0.5c0.3,0.2,0.7,0.3,1.1,0.3c0.3,0,0.5-0.1,0.7-0.2c0.2-0.1,0.3-0.2,0.4-0.4c0.1-0.2,0.2-0.4,0.2-0.6
			c0-0.1,0-0.2,0-0.4c0-0.1,0-0.3,0-0.4h0c-0.3,0.5-0.7,0.8-1.2,0.8c-0.6,0-1-0.2-1.3-0.6c-0.1-0.1-0.1-0.2-0.2-0.3
			c0-0.1-0.1-0.2-0.1-0.3c-0.1-0.2-0.1-0.4-0.1-0.7c0-0.6,0.1-1.1,0.4-1.4c0.2-0.4,0.6-0.6,1.2-0.6c0.2,0,0.5,0,0.7,0.1
			c0.2,0.1,0.4,0.2,0.5,0.4h0V3.4h0.5V6.9z M100.4,5.3c0,0.4,0.1,0.7,0.3,1c0.2,0.3,0.5,0.5,0.8,0.5c0.4,0,0.7-0.2,0.9-0.5
			c0.2-0.3,0.3-0.6,0.3-1c0-0.5-0.1-0.9-0.2-1.1c-0.2-0.3-0.5-0.4-0.9-0.5c-0.2,0-0.4,0-0.5,0.1c-0.1,0.1-0.3,0.2-0.4,0.4
			c-0.1,0.1-0.1,0.3-0.2,0.5c0,0.1,0,0.2,0,0.3C100.4,5.1,100.4,5.2,100.4,5.3z"/>
		<path d="M107.4,7.1c-0.4,0.1-0.7,0.2-1.1,0.2c-0.6,0-1.1-0.2-1.3-0.6c-0.3-0.4-0.4-0.8-0.4-1.4c0-0.6,0.2-1.1,0.5-1.4
			c0.3-0.4,0.7-0.5,1.2-0.6c0.5,0,0.9,0.2,1.2,0.6c0.2,0.4,0.4,0.8,0.4,1.3v0.2h-2.6c0,0.4,0.1,0.8,0.3,1c0.2,0.3,0.5,0.4,0.9,0.4
			c0.2,0,0.4,0,0.6-0.1c0.1,0,0.2-0.1,0.3-0.1c0.1,0,0.2-0.1,0.2-0.1V7.1z M107.2,5c0-0.3-0.1-0.7-0.2-0.9c-0.2-0.3-0.4-0.4-0.8-0.4
			c-0.3,0-0.6,0.1-0.8,0.4c-0.2,0.3-0.3,0.6-0.3,0.9H107.2z"/>
		<path d="M109.2,4.3c0-0.1,0-0.3,0-0.4c0-0.2,0-0.3,0-0.5h0.5v0.7h0c0-0.1,0.1-0.2,0.2-0.3c0.1-0.1,0.1-0.2,0.2-0.2
			c0.1-0.1,0.2-0.1,0.4-0.2c0.1,0,0.3-0.1,0.5-0.1c0.5,0,0.8,0.2,1,0.4c0.2,0.3,0.3,0.6,0.3,1.1v2.4h-0.5V4.9c0-0.4-0.1-0.7-0.2-0.9
			c-0.1-0.2-0.4-0.3-0.7-0.3c-0.4,0-0.7,0.2-0.9,0.5c-0.1,0.1-0.1,0.3-0.2,0.4c0,0.2-0.1,0.3-0.1,0.5v2.1h-0.5V4.3z"/>
		<path d="M113.6,5.3c0-0.6,0.1-1,0.4-1.4c0.3-0.4,0.7-0.6,1.4-0.6c0.6,0,1.1,0.2,1.4,0.6c0.3,0.4,0.4,0.9,0.4,1.4
			c0,0.5-0.1,1-0.4,1.4c-0.3,0.4-0.8,0.6-1.4,0.6c-0.6,0-1.1-0.2-1.4-0.6C113.8,6.3,113.6,5.8,113.6,5.3z M114.2,5.3
			c0,0.5,0.1,0.8,0.3,1.1c0.2,0.3,0.5,0.5,0.9,0.5c0.4,0,0.7-0.2,1-0.5c0.2-0.3,0.3-0.7,0.3-1.1c0-0.5-0.1-0.8-0.3-1.1
			c-0.2-0.3-0.5-0.4-1-0.5c-0.4,0-0.7,0.2-0.9,0.5C114.3,4.5,114.2,4.8,114.2,5.3z"/>
		<path d="M118.4,6.6c0.3,0.1,0.6,0.2,1,0.2c0.2,0,0.4-0.1,0.6-0.2c0.2-0.1,0.2-0.3,0.2-0.5c0-0.2-0.1-0.4-0.3-0.5
			c-0.2-0.1-0.4-0.2-0.6-0.3c-0.1,0-0.1-0.1-0.2-0.1L119,5.2c-0.1-0.1-0.2-0.1-0.3-0.2c0,0-0.1-0.1-0.1-0.1c0,0-0.1-0.1-0.1-0.2
			c-0.1-0.1-0.1-0.2-0.1-0.4c0-0.4,0.1-0.7,0.4-0.8c0.2-0.2,0.5-0.2,0.9-0.2c0.1,0,0.1,0,0.2,0c0.1,0,0.2,0,0.2,0
			c0.2,0,0.4,0.1,0.5,0.1l0,0.4c-0.3-0.1-0.6-0.2-0.8-0.2c-0.3,0-0.4,0-0.6,0.1C119,3.9,119,3.9,119,4c0,0.1-0.1,0.2-0.1,0.3
			c0,0.1,0,0.2,0.1,0.2c0.1,0.1,0.1,0.1,0.2,0.2c0,0,0.1,0.1,0.1,0.1c0.1,0,0.1,0.1,0.2,0.1c0.1,0,0.1,0.1,0.2,0.1
			c0.1,0,0.1,0.1,0.2,0.1c0.2,0.1,0.5,0.2,0.7,0.4c0.2,0.2,0.3,0.4,0.3,0.7c0,0.2,0,0.4-0.1,0.5c-0.1,0.1-0.2,0.2-0.3,0.3
			c-0.3,0.2-0.6,0.2-0.9,0.2c-0.4,0-0.7-0.1-1.1-0.2L118.4,6.6z"/>
		<path d="M121.9,6.6c0.3,0.1,0.6,0.2,1,0.2c0.2,0,0.4-0.1,0.6-0.2c0.2-0.1,0.2-0.3,0.2-0.5c0-0.2-0.1-0.4-0.3-0.5
			c-0.2-0.1-0.4-0.2-0.6-0.3c-0.1,0-0.1-0.1-0.2-0.1l-0.2-0.1c-0.1-0.1-0.2-0.1-0.3-0.2c0,0-0.1-0.1-0.1-0.1c0,0-0.1-0.1-0.1-0.2
			c-0.1-0.1-0.1-0.2-0.1-0.4c0-0.4,0.1-0.7,0.4-0.8c0.2-0.2,0.5-0.2,0.9-0.2c0.1,0,0.1,0,0.2,0c0.1,0,0.2,0,0.2,0
			c0.2,0,0.4,0.1,0.5,0.1l0,0.4c-0.3-0.1-0.6-0.2-0.8-0.2c-0.3,0-0.4,0-0.6,0.1c-0.1,0-0.1,0.1-0.2,0.2c0,0.1-0.1,0.2-0.1,0.3
			c0,0.1,0,0.2,0.1,0.2c0.1,0.1,0.1,0.1,0.2,0.2c0,0,0.1,0.1,0.1,0.1c0.1,0,0.1,0.1,0.2,0.1c0.1,0,0.1,0.1,0.2,0.1
			c0.1,0,0.1,0.1,0.2,0.1c0.2,0.1,0.5,0.2,0.7,0.4c0.2,0.2,0.3,0.4,0.3,0.7c0,0.2,0,0.4-0.1,0.5C124.1,6.8,124,7,123.8,7
			c-0.3,0.2-0.6,0.2-0.9,0.2c-0.4,0-0.7-0.1-1.1-0.2L121.9,6.6z"/>
		<path d="M128.3,7.1c-0.4,0.1-0.7,0.2-1.1,0.2c-0.6,0-1.1-0.2-1.3-0.6c-0.3-0.4-0.4-0.8-0.4-1.4c0-0.6,0.2-1.1,0.5-1.4
			c0.3-0.4,0.7-0.5,1.2-0.6c0.5,0,0.9,0.2,1.2,0.6c0.2,0.4,0.4,0.8,0.4,1.3v0.2h-2.6c0,0.4,0.1,0.8,0.3,1c0.2,0.3,0.5,0.4,0.9,0.4
			c0.2,0,0.4,0,0.6-0.1c0.1,0,0.2-0.1,0.3-0.1c0.1,0,0.2-0.1,0.2-0.1V7.1z M128,5c0-0.3-0.1-0.7-0.2-0.9c-0.2-0.3-0.4-0.4-0.8-0.4
			c-0.3,0-0.6,0.1-0.8,0.4c-0.2,0.3-0.3,0.6-0.3,0.9H128z"/>
		<path d="M130,4.3c0-0.1,0-0.3,0-0.4c0-0.2,0-0.3,0-0.5h0.5v0.7h0c0-0.1,0.1-0.2,0.2-0.3c0.1-0.1,0.1-0.2,0.2-0.2
			c0.1-0.1,0.2-0.1,0.4-0.2c0.1,0,0.3-0.1,0.5-0.1c0.5,0,0.8,0.2,1,0.4c0.2,0.3,0.3,0.6,0.3,1.1v2.4h-0.5V4.9c0-0.4-0.1-0.7-0.2-0.9
			c-0.1-0.2-0.4-0.3-0.7-0.3c-0.4,0-0.7,0.2-0.9,0.5c-0.1,0.1-0.1,0.3-0.2,0.4c0,0.2-0.1,0.3-0.1,0.5v2.1H130V4.3z"/>
		<path d="M134.5,6.6c0.3,0.1,0.6,0.2,1,0.2c0.2,0,0.4-0.1,0.6-0.2c0.2-0.1,0.2-0.3,0.2-0.5c0-0.2-0.1-0.4-0.3-0.5
			c-0.2-0.1-0.4-0.2-0.6-0.3c-0.1,0-0.1-0.1-0.2-0.1l-0.2-0.1C135,5.1,134.9,5,134.8,5c0,0-0.1-0.1-0.1-0.1c0,0-0.1-0.1-0.1-0.2
			c-0.1-0.1-0.1-0.2-0.1-0.4c0-0.4,0.1-0.7,0.4-0.8c0.2-0.2,0.5-0.2,0.9-0.2c0.1,0,0.1,0,0.2,0c0.1,0,0.2,0,0.2,0
			c0.2,0,0.4,0.1,0.5,0.1l0,0.4c-0.3-0.1-0.6-0.2-0.8-0.2c-0.3,0-0.4,0-0.6,0.1c-0.1,0-0.1,0.1-0.2,0.2c0,0.1-0.1,0.2-0.1,0.3
			c0,0.1,0,0.2,0.1,0.2c0.1,0.1,0.1,0.1,0.2,0.2c0,0,0.1,0.1,0.1,0.1c0.1,0,0.1,0.1,0.2,0.1c0.1,0,0.1,0.1,0.2,0.1
			c0.1,0,0.1,0.1,0.2,0.1c0.2,0.1,0.5,0.2,0.7,0.4c0.2,0.2,0.3,0.4,0.3,0.7c0,0.2,0,0.4-0.1,0.5c-0.1,0.1-0.2,0.2-0.3,0.3
			c-0.3,0.2-0.6,0.2-0.9,0.2c-0.4,0-0.7-0.1-1.1-0.2L134.5,6.6z"/>
		<path d="M140.8,3.9c-0.3-0.1-0.5-0.2-0.8-0.2c-0.5,0-0.8,0.2-1.1,0.4c-0.3,0.3-0.4,0.7-0.4,1.2c0,0.4,0.1,0.8,0.4,1.1
			c0.2,0.3,0.6,0.5,1,0.5c0.3,0,0.6-0.1,0.9-0.2l0,0.4c-0.3,0.1-0.6,0.1-1,0.1c-0.6,0-1.1-0.2-1.4-0.6c-0.3-0.4-0.5-0.8-0.5-1.4
			c0-0.6,0.2-1.1,0.5-1.4c0.3-0.4,0.8-0.5,1.4-0.6c0.2,0,0.4,0,0.6,0.1c0.1,0,0.1,0,0.2,0c0,0,0,0,0.1,0c0,0,0,0,0.1,0L140.8,3.9z"
			/>
		<path d="M142.2,1.6h0.5V4h0c0.1-0.2,0.3-0.4,0.5-0.5c0.2-0.1,0.4-0.2,0.7-0.2c0.5,0,0.9,0.2,1,0.5c0.2,0.3,0.3,0.7,0.3,1.2v2.3
			h-0.5V4.9c0-0.1,0-0.2,0-0.2c0-0.1,0-0.2,0-0.2c0-0.1,0-0.1,0-0.2c0-0.1,0-0.1-0.1-0.2c-0.1-0.2-0.4-0.4-0.7-0.4
			c-0.4,0-0.7,0.2-0.9,0.5c-0.2,0.3-0.3,0.6-0.3,1v2h-0.5V1.6z"/>
		<path d="M149.2,6.6L149.2,6.6c-0.1,0.2-0.3,0.4-0.5,0.5c-0.2,0.1-0.5,0.2-0.7,0.2c-0.3,0-0.5-0.1-0.6-0.1
			c-0.2-0.1-0.3-0.2-0.4-0.3c-0.2-0.2-0.2-0.5-0.2-0.7c0-0.3,0.1-0.6,0.2-0.8c0.1-0.2,0.3-0.3,0.6-0.4c0.1,0,0.2-0.1,0.4-0.1
			c0.1,0,0.3-0.1,0.4-0.1c0.3,0,0.5,0,0.8,0h0.1V4.7c0-0.7-0.3-1-0.9-1c-0.4,0-0.8,0.1-1.1,0.3V3.5c0.4-0.2,0.7-0.3,1.1-0.3
			c0.9,0,1.3,0.5,1.3,1.4v1.7c0,0.1,0,0.3,0,0.4c0,0.1,0,0.3,0,0.4h-0.5V6.6z M149.1,5.3H149c-0.1,0-0.2,0-0.3,0c-0.1,0-0.2,0-0.3,0
			c-0.1,0-0.2,0-0.3,0c-0.1,0-0.2,0-0.3,0.1c-0.2,0.1-0.3,0.2-0.4,0.3c-0.1,0.1-0.2,0.3-0.2,0.5c0,0.2,0.1,0.4,0.2,0.5
			c0.1,0.1,0.3,0.2,0.6,0.2c0.3,0,0.5-0.1,0.7-0.2c0.2-0.1,0.3-0.2,0.3-0.4c0.1-0.2,0.1-0.3,0.1-0.5c0-0.1,0-0.2,0-0.2s0-0.1,0-0.2
			V5.3z"/>
		<path d="M151.6,3.8h-0.8V3.4h0.8V3.1c0-0.1,0-0.2,0-0.3s0-0.2,0-0.3c0-0.2,0-0.4,0.1-0.5c0.1-0.2,0.2-0.3,0.3-0.4
			c0.1-0.1,0.3-0.1,0.6-0.1h0.1c0,0,0.1,0,0.1,0c0.1,0,0.2,0,0.2,0.1l0,0.4c-0.1-0.1-0.2-0.1-0.4-0.1c-0.2,0-0.3,0-0.4,0.1
			c-0.1,0.1-0.1,0.2-0.2,0.3c0,0.1,0,0.2,0,0.4c0,0.1,0,0.1,0,0.2v0.5h0.9v0.4h-0.9v3.4h-0.5V3.8z"/>
		<path d="M156.1,3.8h-0.9v2.5c0,0.2,0,0.3,0.1,0.4c0.1,0.1,0.2,0.2,0.4,0.2c0.2,0,0.3,0,0.4-0.1l0,0.4c0,0-0.1,0-0.2,0.1
			c-0.1,0-0.2,0-0.3,0c-0.2,0-0.4,0-0.5-0.1c-0.1-0.1-0.2-0.2-0.3-0.3c0-0.1-0.1-0.2-0.1-0.4c0-0.1,0-0.3,0-0.5V3.8H154V3.4h0.8V2.5
			l0.5-0.2v1.1h0.9V3.8z"/>
		<path d="M33.6,12.9c-0.2-0.1-0.4-0.1-0.6-0.2c-0.1,0-0.2,0-0.3,0c-0.1,0-0.2,0-0.3,0c-0.7,0-1.2,0.2-1.6,0.6
			c-0.4,0.4-0.6,1-0.6,1.6c0,0.7,0.2,1.2,0.5,1.6c0.4,0.4,0.9,0.6,1.6,0.6c0.1,0,0.2,0,0.3,0c0.1,0,0.2,0,0.3,0
			c0.2,0,0.4-0.1,0.6-0.2l0,0.5c-0.1,0-0.2,0.1-0.3,0.1c-0.1,0-0.2,0.1-0.3,0.1c-0.1,0-0.2,0-0.3,0c-0.1,0-0.2,0-0.3,0
			c-0.8,0-1.5-0.3-1.9-0.8c-0.5-0.5-0.7-1.1-0.7-2c0-0.8,0.2-1.5,0.7-2c0.5-0.5,1.1-0.7,1.9-0.8c0.1,0,0.2,0,0.3,0
			c0.1,0,0.2,0,0.3,0c0.2,0,0.4,0.1,0.6,0.2L33.6,12.9z"/>
		<path d="M35.2,15.6c0-0.6,0.1-1,0.4-1.4c0.3-0.4,0.7-0.6,1.4-0.6c0.6,0,1.1,0.2,1.4,0.6c0.3,0.4,0.4,0.9,0.4,1.4
			c0,0.5-0.1,1-0.4,1.4c-0.3,0.4-0.8,0.6-1.4,0.6c-0.6,0-1.1-0.2-1.4-0.6C35.4,16.6,35.2,16.2,35.2,15.6z M35.8,15.6
			c0,0.5,0.1,0.8,0.3,1.1c0.2,0.3,0.5,0.5,0.9,0.5c0.4,0,0.7-0.2,1-0.5c0.2-0.3,0.3-0.7,0.3-1.1c0-0.5-0.1-0.8-0.3-1.1
			c-0.2-0.3-0.5-0.4-1-0.5c-0.4,0-0.7,0.2-0.9,0.5C35.9,14.8,35.8,15.2,35.8,15.6z"/>
		<path d="M40.3,14.6c0-0.1,0-0.3,0-0.4c0-0.2,0-0.3,0-0.5h0.5v0.7h0c0-0.1,0.1-0.2,0.2-0.3c0.1-0.1,0.1-0.2,0.2-0.2
			c0.1-0.1,0.2-0.1,0.4-0.2c0.1,0,0.3-0.1,0.5-0.1c0.5,0,0.8,0.1,1,0.4c0.2,0.3,0.3,0.6,0.3,1.1v2.4h-0.5v-2.3
			c0-0.4-0.1-0.7-0.2-0.9c-0.1-0.2-0.4-0.3-0.7-0.3c-0.4,0-0.7,0.2-0.9,0.5c-0.1,0.1-0.1,0.3-0.2,0.4c0,0.2-0.1,0.3-0.1,0.5v2.1
			h-0.5V14.6z"/>
		<path d="M45.4,14.1h-0.8v-0.4h0.8v-0.3c0-0.1,0-0.2,0-0.3c0-0.1,0-0.2,0-0.3c0-0.2,0-0.4,0.1-0.5c0.1-0.2,0.2-0.3,0.3-0.4
			c0.1-0.1,0.3-0.1,0.6-0.1h0.1c0,0,0.1,0,0.1,0c0.1,0,0.2,0,0.2,0.1l0,0.4c-0.1-0.1-0.2-0.1-0.4-0.1c-0.2,0-0.3,0-0.4,0.1
			c-0.1,0.1-0.1,0.2-0.2,0.3c0,0.1,0,0.2,0,0.4c0,0.1,0,0.1,0,0.2v0.5h0.9v0.4h-0.9v3.4h-0.5V14.1z"/>
		<path d="M50.7,17.4c-0.4,0.1-0.7,0.2-1.1,0.2c-0.6,0-1.1-0.2-1.3-0.6c-0.3-0.4-0.4-0.8-0.4-1.4c0-0.6,0.2-1.1,0.5-1.4
			c0.3-0.4,0.7-0.5,1.2-0.6c0.5,0,0.9,0.2,1.2,0.6c0.2,0.4,0.4,0.8,0.4,1.3v0.2h-2.6c0,0.4,0.1,0.8,0.3,1c0.2,0.3,0.5,0.4,0.9,0.4
			c0.2,0,0.4,0,0.6-0.1c0.1,0,0.2-0.1,0.3-0.1c0.1,0,0.2-0.1,0.2-0.1V17.4z M50.5,15.4c0-0.3-0.1-0.7-0.2-0.9
			c-0.2-0.3-0.4-0.4-0.8-0.4c-0.3,0-0.6,0.1-0.8,0.4c-0.2,0.3-0.3,0.6-0.3,0.9H50.5z M49.7,12.2h0.6l-0.9,1.1H49L49.7,12.2z"/>
		<path d="M55.5,17.6H55v-0.6h0c-0.2,0.5-0.6,0.7-1.2,0.7c-0.5,0-0.9-0.2-1.2-0.6c-0.3-0.4-0.4-0.9-0.4-1.4c0-0.6,0.1-1.1,0.4-1.4
			c0.2-0.4,0.6-0.6,1.2-0.6c0.2,0,0.3,0,0.5,0.1c0.1,0,0.1,0.1,0.2,0.1c0.1,0,0.1,0.1,0.2,0.1c0.2,0.2,0.3,0.3,0.3,0.4h0v-2.4h0.5
			V17.6z M52.8,15.6c0,0.2,0,0.4,0.1,0.5c0,0.2,0.1,0.4,0.2,0.5c0.1,0.1,0.2,0.3,0.4,0.4c0.1,0.1,0.3,0.2,0.5,0.2
			c0.2,0,0.4-0.1,0.5-0.2c0.1-0.1,0.3-0.2,0.3-0.4C55,16.4,55,16,55,15.6c0-0.1,0-0.2,0-0.3c0-0.1,0-0.2,0-0.3
			c0-0.2-0.1-0.3-0.2-0.5c-0.1-0.2-0.2-0.3-0.3-0.4c-0.1-0.1-0.3-0.1-0.5-0.1c-0.2,0-0.4,0-0.5,0.1c-0.1,0.1-0.3,0.2-0.4,0.4
			c-0.1,0.1-0.1,0.3-0.2,0.5c0,0.1,0,0.2,0,0.3C52.8,15.5,52.8,15.5,52.8,15.6z"/>
		<path d="M59.8,17.4c-0.4,0.1-0.7,0.2-1.1,0.2c-0.6,0-1.1-0.2-1.3-0.6c-0.3-0.4-0.4-0.8-0.4-1.4c0-0.6,0.2-1.1,0.5-1.4
			c0.3-0.4,0.7-0.5,1.2-0.6c0.5,0,0.9,0.2,1.2,0.6c0.2,0.4,0.4,0.8,0.4,1.3v0.2h-2.6c0,0.4,0.1,0.8,0.3,1c0.2,0.3,0.5,0.4,0.9,0.4
			c0.2,0,0.4,0,0.6-0.1c0.1,0,0.2-0.1,0.3-0.1c0.1,0,0.2-0.1,0.2-0.1V17.4z M59.6,15.4c0-0.3-0.1-0.7-0.2-0.9
			c-0.2-0.3-0.4-0.4-0.8-0.4c-0.3,0-0.6,0.1-0.8,0.4c-0.2,0.3-0.3,0.6-0.3,0.9H59.6z M58.8,12.2h0.6l-0.9,1.1h-0.3L58.8,12.2z"/>
		<path d="M61.6,14.6c0-0.2,0-0.3,0-0.5c0-0.1,0-0.3,0-0.4H62v0.7h0c0.1-0.2,0.2-0.4,0.4-0.6c0.2-0.2,0.4-0.2,0.6-0.2
			c0.1,0,0.2,0,0.3,0v0.5c-0.1,0-0.2,0-0.3,0c-0.2,0-0.3,0-0.5,0.1c-0.1,0.1-0.2,0.2-0.3,0.4c-0.1,0.2-0.1,0.3-0.1,0.5
			c0,0.2-0.1,0.4-0.1,0.5v1.9h-0.5V14.6z"/>
		<path d="M66.8,16.9L66.8,16.9c-0.1,0.2-0.3,0.4-0.5,0.5c-0.2,0.1-0.5,0.2-0.7,0.2c-0.3,0-0.5-0.1-0.6-0.1
			c-0.2-0.1-0.3-0.2-0.4-0.3c-0.2-0.2-0.2-0.5-0.2-0.7c0-0.3,0.1-0.6,0.2-0.8c0.1-0.2,0.3-0.3,0.6-0.4c0.1,0,0.2-0.1,0.4-0.1
			c0.1,0,0.3,0,0.4-0.1c0.3,0,0.5,0,0.8,0h0.1V15c0-0.7-0.3-1-0.9-1c-0.4,0-0.8,0.1-1.1,0.3v-0.5c0.4-0.2,0.7-0.3,1.1-0.3
			c0.9,0,1.3,0.5,1.3,1.4v1.7c0,0.1,0,0.3,0,0.4c0,0.1,0,0.3,0,0.4h-0.5V16.9z M66.8,15.6h-0.1c-0.1,0-0.2,0-0.3,0
			c-0.1,0-0.2,0-0.3,0c-0.1,0-0.2,0-0.3,0c-0.1,0-0.2,0-0.3,0.1c-0.2,0.1-0.3,0.2-0.4,0.3c-0.1,0.1-0.2,0.3-0.2,0.5
			c0,0.2,0.1,0.4,0.2,0.5c0.1,0.1,0.3,0.2,0.6,0.2c0.3,0,0.5-0.1,0.7-0.2c0.2-0.1,0.3-0.2,0.3-0.4c0.1-0.2,0.1-0.3,0.1-0.5
			c0-0.1,0-0.2,0-0.2c0-0.1,0-0.1,0-0.2V15.6z"/>
		<path d="M70.6,14.1h-0.9v2.5c0,0.2,0,0.3,0.1,0.4c0.1,0.1,0.2,0.2,0.4,0.2c0.2,0,0.3,0,0.4-0.1l0,0.4c0,0-0.1,0-0.2,0.1
			c-0.1,0-0.2,0-0.3,0c-0.2,0-0.4,0-0.5-0.1c-0.1-0.1-0.2-0.2-0.3-0.3c0-0.1-0.1-0.2-0.1-0.4c0-0.1,0-0.3,0-0.5v-2.2h-0.8v-0.4h0.8
			v-0.9l0.5-0.2v1.1h0.9V14.1z"/>
		<path d="M72.5,12.7h-0.5v-0.6h0.5V12.7z M72.1,13.7h0.5v3.8h-0.5V13.7z"/>
		<path d="M74,15.6c0-0.6,0.1-1,0.4-1.4c0.3-0.4,0.7-0.6,1.4-0.6c0.6,0,1.1,0.2,1.4,0.6c0.3,0.4,0.4,0.9,0.4,1.4
			c0,0.5-0.1,1-0.4,1.4c-0.3,0.4-0.8,0.6-1.4,0.6c-0.6,0-1.1-0.2-1.4-0.6C74.2,16.6,74,16.2,74,15.6z M74.5,15.6
			c0,0.5,0.1,0.8,0.3,1.1c0.2,0.3,0.5,0.5,0.9,0.5c0.4,0,0.7-0.2,1-0.5c0.2-0.3,0.3-0.7,0.3-1.1c0-0.5-0.1-0.8-0.3-1.1
			c-0.2-0.3-0.5-0.4-1-0.5c-0.4,0-0.7,0.2-0.9,0.5C74.7,14.8,74.5,15.2,74.5,15.6z"/>
		<path d="M79.1,14.6c0-0.1,0-0.3,0-0.4c0-0.2,0-0.3,0-0.5h0.5v0.7h0c0-0.1,0.1-0.2,0.2-0.3c0.1-0.1,0.1-0.2,0.2-0.2
			c0.1-0.1,0.2-0.1,0.4-0.2c0.1,0,0.3-0.1,0.5-0.1c0.5,0,0.8,0.1,1,0.4c0.2,0.3,0.3,0.6,0.3,1.1v2.4h-0.5v-2.3
			c0-0.4-0.1-0.7-0.2-0.9c-0.1-0.2-0.4-0.3-0.7-0.3c-0.4,0-0.7,0.2-0.9,0.5c-0.1,0.1-0.1,0.3-0.2,0.4c0,0.2-0.1,0.3-0.1,0.5v2.1
			h-0.5V14.6z"/>
		<path d="M86.2,17c0.3,0.1,0.6,0.2,1,0.2c0.2,0,0.4-0.1,0.6-0.2c0.2-0.1,0.2-0.3,0.2-0.5c0-0.2-0.1-0.4-0.3-0.5
			c-0.2-0.1-0.4-0.2-0.6-0.3c-0.1,0-0.1-0.1-0.2-0.1l-0.2-0.1c-0.1-0.1-0.2-0.1-0.3-0.2c0,0-0.1-0.1-0.1-0.1c0,0-0.1-0.1-0.1-0.2
			c-0.1-0.1-0.1-0.2-0.1-0.4c0-0.4,0.1-0.7,0.4-0.8c0.2-0.2,0.5-0.2,0.9-0.2c0.1,0,0.1,0,0.2,0c0.1,0,0.2,0,0.2,0
			c0.2,0,0.4,0.1,0.5,0.1l0,0.4c-0.3-0.1-0.6-0.2-0.8-0.2c-0.3,0-0.4,0-0.6,0.1c-0.1,0-0.1,0.1-0.2,0.2c0,0.1-0.1,0.2-0.1,0.3
			c0,0.1,0,0.2,0.1,0.2c0.1,0.1,0.1,0.1,0.2,0.2c0,0,0.1,0.1,0.1,0.1c0.1,0,0.1,0.1,0.2,0.1c0.1,0,0.1,0.1,0.2,0.1
			c0.1,0,0.1,0.1,0.2,0.1c0.2,0.1,0.5,0.2,0.7,0.4c0.2,0.2,0.3,0.4,0.3,0.7c0,0.2,0,0.4-0.1,0.5c-0.1,0.1-0.2,0.2-0.3,0.3
			c-0.3,0.2-0.6,0.2-0.9,0.2c-0.4,0-0.7-0.1-1.1-0.2L86.2,17z"/>
		<path d="M93,16.7c0,0.1,0,0.3,0,0.4c0,0.2,0,0.3,0,0.5h-0.5v-0.7h0L92.5,17c0,0,0,0.1-0.1,0.1c-0.1,0.1-0.1,0.2-0.2,0.3
			c-0.1,0.1-0.2,0.1-0.4,0.2c-0.1,0.1-0.3,0.1-0.5,0.1c-0.5,0-0.8-0.1-1-0.4c-0.2-0.3-0.3-0.6-0.3-1.1v-2.4h0.5v2.3
			c0,0.4,0.1,0.7,0.2,0.9c0.1,0.2,0.4,0.3,0.7,0.3c0.2,0,0.4,0,0.5-0.1c0.1-0.1,0.3-0.2,0.3-0.3c0.1-0.1,0.1-0.3,0.2-0.5
			c0-0.1,0-0.2,0-0.2c0-0.1,0-0.2,0-0.2v-2.1H93V16.7z"/>
		<path d="M95.2,12.7h-0.5v-0.6h0.5V12.7z M94.8,13.7h0.5v3.8h-0.5V13.7z"/>
		<path d="M96.7,17c0.3,0.1,0.6,0.2,1,0.2c0.2,0,0.4-0.1,0.6-0.2c0.2-0.1,0.2-0.3,0.2-0.5c0-0.2-0.1-0.4-0.3-0.5
			c-0.2-0.1-0.4-0.2-0.6-0.3c-0.1,0-0.1-0.1-0.2-0.1l-0.2-0.1c-0.1-0.1-0.2-0.1-0.3-0.2c0,0-0.1-0.1-0.1-0.1c0,0-0.1-0.1-0.1-0.2
			c-0.1-0.1-0.1-0.2-0.1-0.4c0-0.4,0.1-0.7,0.4-0.8c0.2-0.2,0.5-0.2,0.9-0.2c0.1,0,0.1,0,0.2,0c0.1,0,0.2,0,0.2,0
			c0.2,0,0.4,0.1,0.5,0.1l0,0.4C98.6,14.1,98.3,14,98,14c-0.3,0-0.4,0-0.6,0.1c-0.1,0-0.1,0.1-0.2,0.2c0,0.1-0.1,0.2-0.1,0.3
			c0,0.1,0,0.2,0.1,0.2c0.1,0.1,0.1,0.1,0.2,0.2c0,0,0.1,0.1,0.1,0.1c0.1,0,0.1,0.1,0.2,0.1c0.1,0,0.1,0.1,0.2,0.1
			c0.1,0,0.1,0.1,0.2,0.1c0.2,0.1,0.5,0.2,0.7,0.4c0.2,0.2,0.3,0.4,0.3,0.7c0,0.2,0,0.4-0.1,0.5c-0.1,0.1-0.2,0.2-0.3,0.3
			c-0.3,0.2-0.6,0.2-0.9,0.2c-0.4,0-0.7-0.1-1.1-0.2L96.7,17z"/>
		<path d="M100.2,17c0.3,0.1,0.6,0.2,1,0.2c0.2,0,0.4-0.1,0.6-0.2c0.2-0.1,0.2-0.3,0.2-0.5c0-0.2-0.1-0.4-0.3-0.5
			c-0.2-0.1-0.4-0.2-0.6-0.3c-0.1,0-0.1-0.1-0.2-0.1l-0.2-0.1c-0.1-0.1-0.2-0.1-0.3-0.2c0,0-0.1-0.1-0.1-0.1c0,0-0.1-0.1-0.1-0.2
			c-0.1-0.1-0.1-0.2-0.1-0.4c0-0.4,0.1-0.7,0.4-0.8c0.2-0.2,0.5-0.2,0.9-0.2c0.1,0,0.1,0,0.2,0c0.1,0,0.2,0,0.2,0
			c0.2,0,0.4,0.1,0.5,0.1l0,0.4c-0.3-0.1-0.6-0.2-0.8-0.2c-0.3,0-0.4,0-0.6,0.1c-0.1,0-0.1,0.1-0.2,0.2c0,0.1-0.1,0.2-0.1,0.3
			c0,0.1,0,0.2,0.1,0.2c0.1,0.1,0.1,0.1,0.2,0.2c0,0,0.1,0.1,0.1,0.1c0.1,0,0.1,0.1,0.2,0.1c0.1,0,0.1,0.1,0.2,0.1
			c0.1,0,0.1,0.1,0.2,0.1c0.2,0.1,0.5,0.2,0.7,0.4c0.2,0.2,0.3,0.4,0.3,0.7c0,0.2,0,0.4-0.1,0.5c-0.1,0.1-0.2,0.2-0.3,0.3
			c-0.3,0.2-0.6,0.2-0.9,0.2c-0.4,0-0.7-0.1-1.1-0.2L100.2,17z"/>
		<path d="M106.6,17.4c-0.4,0.1-0.7,0.2-1.1,0.2c-0.6,0-1.1-0.2-1.3-0.6c-0.3-0.4-0.4-0.8-0.4-1.4c0-0.6,0.2-1.1,0.5-1.4
			c0.3-0.4,0.7-0.5,1.2-0.6c0.5,0,0.9,0.2,1.2,0.6c0.2,0.4,0.4,0.8,0.4,1.3v0.2h-2.6c0,0.4,0.1,0.8,0.3,1c0.2,0.3,0.5,0.4,0.9,0.4
			c0.2,0,0.4,0,0.6-0.1c0.1,0,0.2-0.1,0.3-0.1c0.1,0,0.2-0.1,0.2-0.1V17.4z M106.4,15.4c0-0.3-0.1-0.7-0.2-0.9
			c-0.2-0.3-0.4-0.4-0.8-0.4c-0.3,0-0.6,0.1-0.8,0.4c-0.2,0.3-0.3,0.6-0.3,0.9H106.4z"/>
		<path d="M33.6,23.3c-0.2-0.1-0.4-0.1-0.6-0.2c-0.1,0-0.2,0-0.3,0c-0.1,0-0.2,0-0.3,0c-0.7,0-1.2,0.2-1.6,0.6
			c-0.4,0.4-0.6,1-0.6,1.6c0,0.7,0.2,1.2,0.5,1.6c0.4,0.4,0.9,0.6,1.6,0.6c0.1,0,0.2,0,0.3,0c0.1,0,0.2,0,0.3,0
			c0.2,0,0.4-0.1,0.6-0.2l0,0.5c-0.1,0-0.2,0.1-0.3,0.1c-0.1,0-0.2,0.1-0.3,0.1c-0.1,0-0.2,0-0.3,0c-0.1,0-0.2,0-0.3,0
			c-0.8,0-1.5-0.3-1.9-0.8c-0.5-0.5-0.7-1.1-0.7-2c0-0.8,0.2-1.5,0.7-2c0.5-0.5,1.1-0.7,1.9-0.8c0.1,0,0.2,0,0.3,0
			c0.1,0,0.2,0,0.3,0c0.2,0,0.4,0.1,0.6,0.2L33.6,23.3z"/>
		<path d="M35.2,26c0-0.6,0.1-1,0.4-1.4C36,24.2,36.4,24,37,24c0.6,0,1.1,0.2,1.4,0.6c0.3,0.4,0.4,0.9,0.4,1.4c0,0.5-0.1,1-0.4,1.4
			C38.1,27.8,37.6,28,37,28c-0.6,0-1.1-0.2-1.4-0.6C35.4,27,35.2,26.5,35.2,26z M35.8,26c0,0.5,0.1,0.8,0.3,1.1
			c0.2,0.3,0.5,0.5,0.9,0.5c0.4,0,0.7-0.2,1-0.5c0.2-0.3,0.3-0.7,0.3-1.1c0-0.5-0.1-0.8-0.3-1.1c-0.2-0.3-0.5-0.4-1-0.5
			c-0.4,0-0.7,0.2-0.9,0.5C35.9,25.2,35.8,25.5,35.8,26z"/>
		<path d="M40.3,25c0-0.1,0-0.3,0-0.4c0-0.2,0-0.3,0-0.5h0.5v0.7h0c0-0.1,0.1-0.2,0.2-0.3c0.1-0.1,0.1-0.2,0.2-0.2
			c0.1-0.1,0.2-0.1,0.4-0.2c0.1,0,0.3-0.1,0.5-0.1c0.5,0,0.8,0.2,1,0.4c0.2,0.3,0.3,0.6,0.3,1.1v2.4h-0.5v-2.3
			c0-0.4-0.1-0.7-0.2-0.9c-0.1-0.2-0.4-0.3-0.7-0.3c-0.4,0-0.7,0.2-0.9,0.5c-0.1,0.1-0.1,0.3-0.2,0.4c0,0.2-0.1,0.3-0.1,0.5v2.1
			h-0.5V25z"/>
		<path d="M45.4,24.5h-0.8v-0.4h0.8v-0.3c0-0.1,0-0.2,0-0.3c0-0.1,0-0.2,0-0.3c0-0.2,0-0.4,0.1-0.5c0.1-0.2,0.2-0.3,0.3-0.4
			c0.1-0.1,0.3-0.1,0.6-0.1h0.1c0,0,0.1,0,0.1,0c0.1,0,0.2,0,0.2,0.1l0,0.4c-0.1-0.1-0.2-0.1-0.4-0.1c-0.2,0-0.3,0-0.4,0.1
			c-0.1,0.1-0.1,0.2-0.2,0.3c0,0.1,0,0.2,0,0.4c0,0.1,0,0.1,0,0.2v0.5h0.9v0.4h-0.9v3.4h-0.5V24.5z"/>
		<path d="M50.7,27.8C50.3,27.9,50,28,49.6,28c-0.6,0-1.1-0.2-1.3-0.6C48,27,47.8,26.6,47.8,26c0-0.6,0.2-1.1,0.5-1.4
			c0.3-0.4,0.7-0.5,1.2-0.6c0.5,0,0.9,0.2,1.2,0.6c0.2,0.4,0.4,0.8,0.4,1.3v0.2h-2.6c0,0.4,0.1,0.8,0.3,1c0.2,0.3,0.5,0.4,0.9,0.4
			c0.2,0,0.4,0,0.6-0.1c0.1,0,0.2-0.1,0.3-0.1c0.1,0,0.2-0.1,0.2-0.1V27.8z M50.5,25.7c0-0.3-0.1-0.7-0.2-0.9
			c-0.2-0.3-0.4-0.4-0.8-0.4c-0.3,0-0.6,0.1-0.8,0.4c-0.2,0.3-0.3,0.6-0.3,0.9H50.5z"/>
		<path d="M55.5,27.9H55v-0.6h0c-0.2,0.5-0.6,0.7-1.2,0.7c-0.5,0-0.9-0.2-1.2-0.6c-0.3-0.4-0.4-0.9-0.4-1.4c0-0.6,0.1-1.1,0.4-1.4
			c0.2-0.4,0.6-0.6,1.2-0.6c0.2,0,0.3,0,0.5,0.1c0.1,0,0.1,0.1,0.2,0.1c0.1,0,0.1,0.1,0.2,0.1c0.2,0.2,0.3,0.3,0.3,0.4h0v-2.4h0.5
			V27.9z M52.8,26c0,0.2,0,0.4,0.1,0.5c0,0.2,0.1,0.4,0.2,0.5c0.1,0.1,0.2,0.3,0.4,0.4c0.1,0.1,0.3,0.2,0.5,0.2
			c0.2,0,0.4-0.1,0.5-0.2c0.1-0.1,0.3-0.2,0.3-0.4C55,26.7,55,26.4,55,26c0-0.1,0-0.2,0-0.3c0-0.1,0-0.2,0-0.3
			c0-0.2-0.1-0.3-0.2-0.5c-0.1-0.2-0.2-0.3-0.3-0.4c-0.1-0.1-0.3-0.1-0.5-0.1c-0.2,0-0.4,0-0.5,0.1c-0.1,0.1-0.3,0.2-0.4,0.4
			c-0.1,0.1-0.1,0.3-0.2,0.5c0,0.1,0,0.2,0,0.3C52.8,25.8,52.8,25.9,52.8,26z"/>
		<path d="M59.8,27.8c-0.4,0.1-0.7,0.2-1.1,0.2c-0.6,0-1.1-0.2-1.3-0.6c-0.3-0.4-0.4-0.8-0.4-1.4c0-0.6,0.2-1.1,0.5-1.4
			c0.3-0.4,0.7-0.5,1.2-0.6c0.5,0,0.9,0.2,1.2,0.6c0.2,0.4,0.4,0.8,0.4,1.3v0.2h-2.6c0,0.4,0.1,0.8,0.3,1c0.2,0.3,0.5,0.4,0.9,0.4
			c0.2,0,0.4,0,0.6-0.1c0.1,0,0.2-0.1,0.3-0.1c0.1,0,0.2-0.1,0.2-0.1V27.8z M59.6,25.7c0-0.3-0.1-0.7-0.2-0.9
			c-0.2-0.3-0.4-0.4-0.8-0.4c-0.3,0-0.6,0.1-0.8,0.4c-0.2,0.3-0.3,0.6-0.3,0.9H59.6z"/>
		<path d="M61.6,24.9c0-0.2,0-0.3,0-0.5c0-0.1,0-0.3,0-0.4H62v0.7h0c0.1-0.2,0.2-0.4,0.4-0.6c0.2-0.2,0.4-0.2,0.6-0.2
			c0.1,0,0.2,0,0.3,0v0.5c-0.1,0-0.2,0-0.3,0c-0.2,0-0.3,0-0.5,0.1c-0.1,0.1-0.2,0.2-0.3,0.4c-0.1,0.2-0.1,0.3-0.1,0.5
			c0,0.2-0.1,0.4-0.1,0.5v1.9h-0.5V24.9z"/>
		<path d="M66.8,27.3L66.8,27.3c-0.1,0.2-0.3,0.4-0.5,0.5c-0.2,0.1-0.5,0.2-0.7,0.2c-0.3,0-0.5-0.1-0.6-0.1
			c-0.2-0.1-0.3-0.2-0.4-0.3c-0.2-0.2-0.2-0.5-0.2-0.7c0-0.3,0.1-0.6,0.2-0.8c0.1-0.2,0.3-0.3,0.6-0.4c0.1,0,0.2-0.1,0.4-0.1
			c0.1,0,0.3-0.1,0.4-0.1c0.3,0,0.5,0,0.8,0h0.1v-0.2c0-0.7-0.3-1-0.9-1c-0.4,0-0.8,0.1-1.1,0.3v-0.5c0.4-0.2,0.7-0.3,1.1-0.3
			c0.9,0,1.3,0.5,1.3,1.4v1.7c0,0.1,0,0.3,0,0.4c0,0.1,0,0.3,0,0.4h-0.5V27.3z M66.8,26h-0.1c-0.1,0-0.2,0-0.3,0c-0.1,0-0.2,0-0.3,0
			c-0.1,0-0.2,0-0.3,0c-0.1,0-0.2,0-0.3,0.1c-0.2,0.1-0.3,0.2-0.4,0.3c-0.1,0.1-0.2,0.3-0.2,0.5c0,0.2,0.1,0.4,0.2,0.5
			c0.1,0.1,0.3,0.2,0.6,0.2c0.3,0,0.5-0.1,0.7-0.2c0.2-0.1,0.3-0.2,0.3-0.4c0.1-0.2,0.1-0.3,0.1-0.5c0-0.1,0-0.2,0-0.2
			c0-0.1,0-0.1,0-0.2V26z"/>
		<path d="M68.6,27.5l2.3-3h-2.2v-0.4h2.8v0.4l-2.3,3h2.3v0.4h-2.9V27.5z"/>
		<path d="M73.4,23.1h-0.5v-0.6h0.5V23.1z M72.9,24.1h0.5v3.8h-0.5V24.1z"/>
		<path d="M74.9,26c0-0.6,0.1-1,0.4-1.4c0.3-0.4,0.7-0.6,1.4-0.6c0.6,0,1.1,0.2,1.4,0.6c0.3,0.4,0.4,0.9,0.4,1.4
			c0,0.5-0.1,1-0.4,1.4c-0.3,0.4-0.8,0.6-1.4,0.6c-0.6,0-1.1-0.2-1.4-0.6C75,27,74.9,26.5,74.9,26z M75.4,26c0,0.5,0.1,0.8,0.3,1.1
			c0.2,0.3,0.5,0.5,0.9,0.5c0.4,0,0.7-0.2,1-0.5c0.2-0.3,0.3-0.7,0.3-1.1c0-0.5-0.1-0.8-0.3-1.1c-0.2-0.3-0.5-0.4-1-0.5
			c-0.4,0-0.7,0.2-0.9,0.5C75.5,25.2,75.4,25.5,75.4,26z"/>
		<path d="M79.9,25c0-0.1,0-0.3,0-0.4c0-0.2,0-0.3,0-0.5h0.5v0.7h0c0-0.1,0.1-0.2,0.2-0.3c0.1-0.1,0.1-0.2,0.2-0.2
			c0.1-0.1,0.2-0.1,0.4-0.2c0.1,0,0.3-0.1,0.5-0.1c0.5,0,0.8,0.2,1,0.4c0.2,0.3,0.3,0.6,0.3,1.1v2.4h-0.5v-2.3
			c0-0.4-0.1-0.7-0.2-0.9c-0.1-0.2-0.4-0.3-0.7-0.3c-0.4,0-0.7,0.2-0.9,0.5c-0.1,0.1-0.1,0.3-0.2,0.4c0,0.2-0.1,0.3-0.1,0.5v2.1
			h-0.5V25z"/>
		<path d="M87.2,27.8c-0.4,0.1-0.7,0.2-1.1,0.2c-0.6,0-1.1-0.2-1.3-0.6c-0.3-0.4-0.4-0.8-0.4-1.4c0-0.6,0.2-1.1,0.5-1.4
			c0.3-0.4,0.7-0.5,1.2-0.6c0.5,0,0.9,0.2,1.2,0.6c0.2,0.4,0.4,0.8,0.4,1.3v0.2h-2.6c0,0.4,0.1,0.8,0.3,1c0.2,0.3,0.5,0.4,0.9,0.4
			c0.2,0,0.4,0,0.6-0.1c0.1,0,0.2-0.1,0.3-0.1c0.1,0,0.2-0.1,0.2-0.1V27.8z M87,25.7c0-0.3-0.1-0.7-0.2-0.9
			c-0.2-0.3-0.4-0.4-0.8-0.4c-0.3,0-0.6,0.1-0.8,0.4c-0.2,0.3-0.3,0.6-0.3,0.9H87z"/>
		<path d="M91.6,27.2c0.3,0.2,0.7,0.3,1.2,0.3c0.3,0,0.6-0.1,0.8-0.3c0.2-0.2,0.3-0.4,0.3-0.8c0-0.3-0.1-0.5-0.4-0.6
			c-0.1,0-0.1-0.1-0.2-0.1c-0.1,0-0.1-0.1-0.2-0.1c-0.1,0-0.1-0.1-0.2-0.1l-0.2-0.1c-0.1,0-0.1-0.1-0.2-0.1c-0.1,0-0.1-0.1-0.2-0.1
			c-0.1,0-0.1-0.1-0.2-0.1c-0.1,0-0.1-0.1-0.2-0.2c-0.2-0.2-0.4-0.5-0.4-0.8c0-0.4,0.2-0.8,0.5-1c0.3-0.2,0.7-0.4,1.2-0.4
			c0.1,0,0.1,0,0.2,0c0.1,0,0.2,0,0.3,0c0.2,0,0.4,0.1,0.5,0.1l-0.1,0.5c-0.3-0.1-0.6-0.2-1-0.2c-0.1,0-0.3,0-0.4,0
			c-0.1,0-0.3,0.1-0.4,0.2c-0.1,0.1-0.2,0.2-0.3,0.3c-0.1,0.1-0.1,0.3-0.1,0.4c0,0.1,0,0.2,0.1,0.3c0.1,0.1,0.2,0.2,0.3,0.3
			c0.1,0.1,0.2,0.2,0.4,0.2c0.1,0,0.1,0.1,0.2,0.1c0.1,0,0.1,0.1,0.2,0.1c0.3,0.2,0.6,0.3,0.8,0.6c0.1,0.1,0.1,0.1,0.2,0.2
			c0,0.1,0.1,0.1,0.1,0.2c0.1,0.1,0.1,0.3,0.1,0.5c0,0.5-0.2,0.9-0.6,1.1c-0.4,0.2-0.7,0.3-1.2,0.3c-0.5,0-0.9-0.1-1.2-0.2
			L91.6,27.2z"/>
		<path d="M97.3,27.9h-0.6l-1.3-3.8H96l1.1,3.3h0l1.1-3.3h0.5L97.3,27.9z"/>
		<path d="M100.4,23.1h-0.5v-0.6h0.5V23.1z M99.9,24.1h0.5v3.8h-0.5V24.1z"/>
		<path d="M101.8,27.5l2.3-3h-2.2v-0.4h2.8v0.4l-2.3,3h2.3v0.4h-2.9V27.5z"/>
		<path d="M105.7,27.5l2.3-3h-2.2v-0.4h2.8v0.4l-2.3,3h2.3v0.4h-2.9V27.5z"/>
		<path d="M112.6,27.8c-0.4,0.1-0.7,0.2-1.1,0.2c-0.6,0-1.1-0.2-1.3-0.6c-0.3-0.4-0.4-0.8-0.4-1.4c0-0.6,0.2-1.1,0.5-1.4
			c0.3-0.4,0.7-0.5,1.2-0.6c0.5,0,0.9,0.2,1.2,0.6c0.2,0.4,0.4,0.8,0.4,1.3v0.2h-2.6c0,0.4,0.1,0.8,0.3,1c0.2,0.3,0.5,0.4,0.9,0.4
			c0.2,0,0.4,0,0.6-0.1c0.1,0,0.2-0.1,0.3-0.1c0.1,0,0.2-0.1,0.2-0.1V27.8z M112.4,25.7c0-0.3-0.1-0.7-0.2-0.9
			c-0.2-0.3-0.4-0.4-0.8-0.4c-0.3,0-0.6,0.1-0.8,0.4c-0.2,0.3-0.3,0.6-0.3,0.9H112.4z"/>
		<path d="M114.4,24.9c0-0.2,0-0.3,0-0.5c0-0.1,0-0.3,0-0.4h0.5v0.7h0c0.1-0.2,0.2-0.4,0.4-0.6c0.2-0.2,0.4-0.2,0.6-0.2
			c0.1,0,0.2,0,0.3,0v0.5c-0.1,0-0.2,0-0.3,0c-0.2,0-0.3,0-0.5,0.1c-0.1,0.1-0.2,0.2-0.3,0.4c-0.1,0.2-0.1,0.3-0.1,0.5
			c0,0.2-0.1,0.4-0.1,0.5v1.9h-0.5V24.9z"/>
		<path d="M119.6,27.3L119.6,27.3c-0.1,0.2-0.3,0.4-0.5,0.5c-0.2,0.1-0.5,0.2-0.7,0.2c-0.3,0-0.5-0.1-0.6-0.1
			c-0.2-0.1-0.3-0.2-0.4-0.3c-0.2-0.2-0.2-0.5-0.2-0.7c0-0.3,0.1-0.6,0.2-0.8c0.1-0.2,0.3-0.3,0.6-0.4c0.1,0,0.2-0.1,0.4-0.1
			c0.1,0,0.3-0.1,0.4-0.1c0.3,0,0.5,0,0.8,0h0.1v-0.2c0-0.7-0.3-1-0.9-1c-0.4,0-0.8,0.1-1.1,0.3v-0.5c0.4-0.2,0.7-0.3,1.1-0.3
			c0.9,0,1.3,0.5,1.3,1.4v1.7c0,0.1,0,0.3,0,0.4c0,0.1,0,0.3,0,0.4h-0.5V27.3z M119.6,26h-0.1c-0.1,0-0.2,0-0.3,0
			c-0.1,0-0.2,0-0.3,0c-0.1,0-0.2,0-0.3,0c-0.1,0-0.2,0-0.3,0.1c-0.2,0.1-0.3,0.2-0.4,0.3c-0.1,0.1-0.2,0.3-0.2,0.5
			c0,0.2,0.1,0.4,0.2,0.5c0.1,0.1,0.3,0.2,0.6,0.2c0.3,0,0.5-0.1,0.7-0.2c0.2-0.1,0.3-0.2,0.3-0.4c0.1-0.2,0.1-0.3,0.1-0.5
			c0-0.1,0-0.2,0-0.2c0-0.1,0-0.1,0-0.2V26z"/>
		<path d="M33.6,33.6c-0.2-0.1-0.4-0.1-0.6-0.2c-0.1,0-0.2,0-0.3,0c-0.1,0-0.2,0-0.3,0c-0.7,0-1.2,0.2-1.6,0.6
			c-0.4,0.4-0.6,1-0.6,1.6c0,0.7,0.2,1.2,0.5,1.6c0.4,0.4,0.9,0.6,1.6,0.6c0.1,0,0.2,0,0.3,0c0.1,0,0.2,0,0.3,0
			c0.2,0,0.4-0.1,0.6-0.2l0,0.5c-0.1,0-0.2,0.1-0.3,0.1c-0.1,0-0.2,0.1-0.3,0.1c-0.1,0-0.2,0-0.3,0c-0.1,0-0.2,0-0.3,0
			c-0.8,0-1.5-0.3-1.9-0.8c-0.5-0.5-0.7-1.1-0.7-2c0-0.8,0.2-1.5,0.7-2c0.5-0.5,1.1-0.7,1.9-0.8c0.1,0,0.2,0,0.3,0
			c0.1,0,0.2,0,0.3,0c0.2,0,0.4,0.1,0.6,0.2L33.6,33.6z"/>
		<path d="M35.2,36.3c0-0.6,0.1-1,0.4-1.4c0.3-0.4,0.7-0.6,1.4-0.6c0.6,0,1.1,0.2,1.4,0.6c0.3,0.4,0.4,0.9,0.4,1.4
			c0,0.5-0.1,1-0.4,1.4c-0.3,0.4-0.8,0.6-1.4,0.6c-0.6,0-1.1-0.2-1.4-0.6C35.4,37.3,35.2,36.9,35.2,36.3z M35.8,36.3
			c0,0.5,0.1,0.8,0.3,1.1c0.2,0.3,0.5,0.5,0.9,0.5c0.4,0,0.7-0.2,1-0.5c0.2-0.3,0.3-0.7,0.3-1.1c0-0.5-0.1-0.8-0.3-1.1
			c-0.2-0.3-0.5-0.4-1-0.5c-0.4,0-0.7,0.2-0.9,0.5C35.9,35.5,35.8,35.9,35.8,36.3z"/>
		<path d="M40.3,35.3c0-0.1,0-0.3,0-0.4c0-0.2,0-0.3,0-0.5h0.5v0.7h0c0-0.1,0.1-0.2,0.2-0.3c0.1-0.1,0.1-0.2,0.2-0.2
			c0.1-0.1,0.2-0.1,0.4-0.2c0.1,0,0.3-0.1,0.5-0.1c0.5,0,0.8,0.2,1,0.4c0.2,0.3,0.3,0.6,0.3,1.1v2.4h-0.5v-2.3
			c0-0.4-0.1-0.7-0.2-0.9c-0.1-0.2-0.4-0.3-0.7-0.3c-0.4,0-0.7,0.2-0.9,0.5c-0.1,0.1-0.1,0.3-0.2,0.4c0,0.2-0.1,0.3-0.1,0.5v2.1
			h-0.5V35.3z"/>
		<path d="M45.4,34.8h-0.8v-0.4h0.8v-0.3c0-0.1,0-0.2,0-0.3c0-0.1,0-0.2,0-0.3c0-0.2,0-0.4,0.1-0.5c0.1-0.2,0.2-0.3,0.3-0.4
			c0.1-0.1,0.3-0.1,0.6-0.1h0.1c0,0,0.1,0,0.1,0c0.1,0,0.2,0,0.2,0.1l0,0.4c-0.1-0.1-0.2-0.1-0.4-0.1c-0.2,0-0.3,0-0.4,0.1
			c-0.1,0.1-0.1,0.2-0.2,0.3c0,0.1,0,0.2,0,0.4c0,0.1,0,0.1,0,0.2v0.5h0.9v0.4h-0.9v3.4h-0.5V34.8z"/>
		<path d="M50.7,38.1c-0.4,0.1-0.7,0.2-1.1,0.2c-0.6,0-1.1-0.2-1.3-0.6c-0.3-0.4-0.4-0.8-0.4-1.4c0-0.6,0.2-1.1,0.5-1.4
			c0.3-0.4,0.7-0.5,1.2-0.6c0.5,0,0.9,0.2,1.2,0.6c0.2,0.4,0.4,0.8,0.4,1.3v0.2h-2.6c0,0.4,0.1,0.8,0.3,1c0.2,0.3,0.5,0.4,0.9,0.4
			c0.2,0,0.4,0,0.6-0.1c0.1,0,0.2-0.1,0.3-0.1c0.1,0,0.2-0.1,0.2-0.1V38.1z M50.5,36.1c0-0.3-0.1-0.7-0.2-0.9
			c-0.2-0.3-0.4-0.4-0.8-0.4c-0.3,0-0.6,0.1-0.8,0.4c-0.2,0.3-0.3,0.6-0.3,0.9H50.5z"/>
		<path d="M55.5,38.3H55v-0.6h0c-0.2,0.5-0.6,0.7-1.2,0.7c-0.5,0-0.9-0.2-1.2-0.6c-0.3-0.4-0.4-0.9-0.4-1.4c0-0.6,0.1-1.1,0.4-1.4
			c0.2-0.4,0.6-0.6,1.2-0.6c0.2,0,0.3,0,0.5,0.1c0.1,0,0.1,0.1,0.2,0.1c0.1,0,0.1,0.1,0.2,0.1c0.2,0.2,0.3,0.3,0.3,0.4h0v-2.4h0.5
			V38.3z M52.8,36.3c0,0.2,0,0.4,0.1,0.5c0,0.2,0.1,0.4,0.2,0.5c0.1,0.1,0.2,0.3,0.4,0.4c0.1,0.1,0.3,0.2,0.5,0.2
			c0.2,0,0.4-0.1,0.5-0.2c0.1-0.1,0.3-0.2,0.3-0.4c0.2-0.3,0.3-0.7,0.2-1.1c0-0.1,0-0.2,0-0.3c0-0.1,0-0.2,0-0.3
			c0-0.2-0.1-0.3-0.2-0.5c-0.1-0.2-0.2-0.3-0.3-0.4c-0.1-0.1-0.3-0.1-0.5-0.1c-0.2,0-0.4,0-0.5,0.1c-0.1,0.1-0.3,0.2-0.4,0.4
			c-0.1,0.1-0.1,0.3-0.2,0.5c0,0.1,0,0.2,0,0.3C52.8,36.2,52.8,36.2,52.8,36.3z"/>
		<path d="M59.8,38.1c-0.4,0.1-0.7,0.2-1.1,0.2c-0.6,0-1.1-0.2-1.3-0.6c-0.3-0.4-0.4-0.8-0.4-1.4c0-0.6,0.2-1.1,0.5-1.4
			c0.3-0.4,0.7-0.5,1.2-0.6c0.5,0,0.9,0.2,1.2,0.6c0.2,0.4,0.4,0.8,0.4,1.3v0.2h-2.6c0,0.4,0.1,0.8,0.3,1c0.2,0.3,0.5,0.4,0.9,0.4
			c0.2,0,0.4,0,0.6-0.1c0.1,0,0.2-0.1,0.3-0.1c0.1,0,0.2-0.1,0.2-0.1V38.1z M59.6,36.1c0-0.3-0.1-0.7-0.2-0.9
			c-0.2-0.3-0.4-0.4-0.8-0.4c-0.3,0-0.6,0.1-0.8,0.4c-0.2,0.3-0.3,0.6-0.3,0.9H59.6z"/>
		<path d="M61.6,35.3c0-0.2,0-0.3,0-0.5c0-0.1,0-0.3,0-0.4H62v0.7h0c0.1-0.2,0.2-0.4,0.4-0.6c0.2-0.2,0.4-0.2,0.6-0.2
			c0.1,0,0.2,0,0.3,0v0.5c-0.1,0-0.2,0-0.3,0c-0.2,0-0.3,0-0.5,0.1c-0.1,0.1-0.2,0.2-0.3,0.4c-0.1,0.2-0.1,0.3-0.1,0.5
			c0,0.2-0.1,0.4-0.1,0.5v1.9h-0.5V35.3z"/>
		<path d="M66.8,37.6L66.8,37.6c-0.1,0.2-0.3,0.4-0.5,0.5c-0.2,0.1-0.5,0.2-0.7,0.2c-0.3,0-0.5-0.1-0.6-0.1
			c-0.2-0.1-0.3-0.2-0.4-0.3c-0.2-0.2-0.2-0.5-0.2-0.7c0-0.3,0.1-0.6,0.2-0.8c0.1-0.2,0.3-0.3,0.6-0.4c0.1,0,0.2-0.1,0.4-0.1
			c0.1,0,0.3-0.1,0.4-0.1c0.3,0,0.5,0,0.8,0h0.1v-0.2c0-0.7-0.3-1-0.9-1c-0.4,0-0.8,0.1-1.1,0.3v-0.5c0.4-0.2,0.7-0.3,1.1-0.3
			c0.9,0,1.3,0.5,1.3,1.4v1.7c0,0.1,0,0.3,0,0.4c0,0.1,0,0.3,0,0.4h-0.5V37.6z M66.8,36.3h-0.1c-0.1,0-0.2,0-0.3,0
			c-0.1,0-0.2,0-0.3,0c-0.1,0-0.2,0-0.3,0c-0.1,0-0.2,0-0.3,0.1c-0.2,0.1-0.3,0.2-0.4,0.3c-0.1,0.1-0.2,0.3-0.2,0.5
			c0,0.2,0.1,0.4,0.2,0.5c0.1,0.1,0.3,0.2,0.6,0.2c0.3,0,0.5-0.1,0.7-0.2c0.2-0.1,0.3-0.2,0.3-0.4c0.1-0.2,0.1-0.3,0.1-0.5
			c0-0.1,0-0.2,0-0.2c0-0.1,0-0.1,0-0.2V36.3z"/>
		<path d="M68.6,37.9l2.3-3h-2.2v-0.4h2.8v0.4l-2.3,3h2.3v0.4h-2.9V37.9z"/>
		<path d="M73.4,33.4h-0.5v-0.6h0.5V33.4z M72.9,34.4h0.5v3.8h-0.5V34.4z"/>
		<path d="M78.1,37.4c0,0.1,0,0.3,0,0.4c0,0.2,0,0.3,0,0.5h-0.5v-0.7h0l-0.1,0.1c0,0,0,0.1-0.1,0.1c-0.1,0.1-0.1,0.2-0.2,0.3
			c-0.1,0.1-0.2,0.1-0.4,0.2c-0.1,0.1-0.3,0.1-0.5,0.1c-0.5,0-0.8-0.1-1-0.4c-0.2-0.3-0.3-0.6-0.3-1.1v-2.4h0.5v2.3
			c0,0.4,0.1,0.7,0.2,0.9c0.1,0.2,0.4,0.3,0.7,0.3c0.2,0,0.4,0,0.5-0.1c0.1-0.1,0.3-0.2,0.3-0.3c0.1-0.1,0.1-0.3,0.2-0.5
			c0-0.1,0-0.2,0-0.2c0-0.1,0-0.2,0-0.2v-2.1h0.5V37.4z"/>
		<path d="M79.9,35.3c0-0.1,0-0.3,0-0.4c0-0.2,0-0.3,0-0.5h0.5v0.7h0c0-0.1,0.1-0.2,0.2-0.3c0.1-0.1,0.1-0.2,0.2-0.2
			c0.1-0.1,0.2-0.1,0.4-0.2c0.1,0,0.3-0.1,0.5-0.1c0.5,0,0.8,0.2,1,0.4c0.2,0.3,0.3,0.6,0.3,1.1v2.4h-0.5v-2.3
			c0-0.4-0.1-0.7-0.2-0.9c-0.1-0.2-0.4-0.3-0.7-0.3c-0.4,0-0.7,0.2-0.9,0.5c-0.1,0.1-0.1,0.3-0.2,0.4c0,0.2-0.1,0.3-0.1,0.5v2.1
			h-0.5V35.3z"/>
		<path d="M87,37.7c0.3,0.1,0.6,0.2,1,0.2c0.2,0,0.4-0.1,0.6-0.2c0.2-0.1,0.2-0.3,0.2-0.5c0-0.2-0.1-0.4-0.3-0.5
			c-0.2-0.1-0.4-0.2-0.6-0.3c-0.1,0-0.1-0.1-0.2-0.1l-0.2-0.1c-0.1-0.1-0.2-0.1-0.3-0.2c0,0-0.1-0.1-0.1-0.1c0,0-0.1-0.1-0.1-0.2
			c-0.1-0.1-0.1-0.2-0.1-0.4c0-0.4,0.1-0.7,0.4-0.8c0.2-0.2,0.5-0.2,0.9-0.2c0.1,0,0.1,0,0.2,0c0.1,0,0.2,0,0.2,0
			c0.2,0,0.4,0.1,0.5,0.1l0,0.4c-0.3-0.1-0.6-0.2-0.8-0.2c-0.3,0-0.4,0-0.6,0.1c-0.1,0-0.1,0.1-0.2,0.2c0,0.1-0.1,0.2-0.1,0.3
			c0,0.1,0,0.2,0.1,0.2c0.1,0.1,0.1,0.1,0.2,0.2c0,0,0.1,0.1,0.1,0.1c0.1,0,0.1,0.1,0.2,0.1c0.1,0,0.1,0.1,0.2,0.1
			c0.1,0,0.1,0.1,0.2,0.1c0.2,0.1,0.5,0.2,0.7,0.4c0.2,0.2,0.3,0.4,0.3,0.7c0,0.2,0,0.4-0.1,0.5c-0.1,0.1-0.2,0.2-0.3,0.3
			c-0.3,0.2-0.6,0.2-0.9,0.2c-0.4,0-0.7-0.1-1.1-0.2L87,37.7z"/>
		<path d="M92.2,38.3h-0.6l-1.3-3.8h0.5l1.1,3.3h0l1.1-3.3h0.5L92.2,38.3z"/>
		<path d="M95.2,33.4h-0.5v-0.6h0.5V33.4z M94.8,34.4h0.5v3.8h-0.5V34.4z"/>
		<path d="M96.7,37.9l2.3-3h-2.2v-0.4h2.8v0.4l-2.3,3h2.3v0.4h-2.9V37.9z"/>
		<path d="M100.9,35.3c0-0.2,0-0.3,0-0.5c0-0.1,0-0.3,0-0.4h0.5v0.7h0c0.1-0.2,0.2-0.4,0.4-0.6c0.2-0.2,0.4-0.2,0.6-0.2
			c0.1,0,0.2,0,0.3,0v0.5c-0.1,0-0.2,0-0.3,0c-0.2,0-0.3,0-0.5,0.1c-0.1,0.1-0.2,0.2-0.3,0.4c-0.1,0.2-0.1,0.3-0.1,0.5
			c0,0.2-0.1,0.4-0.1,0.5v1.9h-0.5V35.3z"/>
		<path d="M106.2,37.6L106.2,37.6c-0.1,0.2-0.3,0.4-0.5,0.5c-0.2,0.1-0.5,0.2-0.7,0.2c-0.3,0-0.5-0.1-0.6-0.1
			c-0.2-0.1-0.3-0.2-0.4-0.3c-0.2-0.2-0.2-0.5-0.2-0.7c0-0.3,0.1-0.6,0.2-0.8c0.1-0.2,0.3-0.3,0.6-0.4c0.1,0,0.2-0.1,0.4-0.1
			c0.1,0,0.3-0.1,0.4-0.1c0.3,0,0.5,0,0.8,0h0.1v-0.2c0-0.7-0.3-1-0.9-1c-0.4,0-0.8,0.1-1.1,0.3v-0.5c0.4-0.2,0.7-0.3,1.1-0.3
			c0.9,0,1.3,0.5,1.3,1.4v1.7c0,0.1,0,0.3,0,0.4c0,0.1,0,0.3,0,0.4h-0.5V37.6z M106.2,36.3H106c-0.1,0-0.2,0-0.3,0
			c-0.1,0-0.2,0-0.3,0c-0.1,0-0.2,0-0.3,0c-0.1,0-0.2,0-0.3,0.1c-0.2,0.1-0.3,0.2-0.4,0.3c-0.1,0.1-0.2,0.3-0.2,0.5
			c0,0.2,0.1,0.4,0.2,0.5c0.1,0.1,0.3,0.2,0.6,0.2c0.3,0,0.5-0.1,0.7-0.2c0.2-0.1,0.3-0.2,0.3-0.4c0.1-0.2,0.1-0.3,0.1-0.5
			c0-0.1,0-0.2,0-0.2c0-0.1,0-0.1,0-0.2V36.3z"/>
		<path d="M30,53.7h3.1v0.8h-2v1.3h1.9v0.8H31v1.5h2.1V59H30V53.7z"/>
		<path d="M34.1,55.1h0.9v0.5h0c0.2-0.2,0.3-0.4,0.6-0.5C35.8,55,36,55,36.2,55c0.5,0,0.9,0.2,1.1,0.7c0.1-0.2,0.3-0.4,0.5-0.5
			c0.2-0.1,0.4-0.2,0.7-0.2c0.5,0,0.8,0.1,1,0.4c0.2,0.3,0.3,0.6,0.2,1.1V59h-1v-2.3c0-0.2,0-0.4-0.1-0.6c0-0.1-0.1-0.2-0.2-0.2
			c-0.1-0.1-0.2-0.1-0.3-0.1c-0.2,0-0.3,0-0.4,0.1c-0.1,0.1-0.2,0.2-0.2,0.3c-0.1,0.1-0.1,0.3-0.1,0.4c0,0.1,0,0.2,0,0.2
			c0,0.1,0,0.1,0,0.2V59h-1v-2.3c0-0.2,0-0.4-0.1-0.6c0-0.1-0.1-0.2-0.2-0.2c-0.1-0.1-0.2-0.1-0.3-0.1c-0.2,0-0.3,0-0.4,0.1
			c-0.1,0.1-0.2,0.2-0.2,0.3c-0.1,0.1-0.1,0.3-0.1,0.4c0,0.1,0,0.2,0,0.2c0,0.1,0,0.1,0,0.2V59h-1V55.1z"/>
		<path d="M40.9,53.3h1v2.3h0c0.3-0.4,0.7-0.6,1.2-0.6c0.6,0,1,0.2,1.3,0.6c0.2,0.4,0.4,0.9,0.4,1.4c0,0.5-0.1,1-0.4,1.4
			c-0.3,0.4-0.7,0.6-1.3,0.6c-0.2,0-0.4,0-0.6-0.1c-0.2-0.1-0.4-0.2-0.5-0.4h0l0,0.5h-1V53.3z M42,57c0,0.3,0.1,0.6,0.2,0.8
			c0.1,0.1,0.2,0.2,0.3,0.3c0.1,0.1,0.3,0.1,0.4,0.1c0.2,0,0.3,0,0.4-0.1c0.1-0.1,0.2-0.2,0.3-0.3c0-0.1,0.1-0.1,0.1-0.2
			c0-0.1,0-0.1,0.1-0.2c0-0.1,0-0.1,0-0.2c0-0.1,0-0.1,0-0.2c0-0.3-0.1-0.6-0.2-0.8c-0.1-0.1-0.1-0.2-0.3-0.3
			c-0.1-0.1-0.3-0.1-0.4-0.1c-0.3,0-0.5,0.1-0.7,0.4C42,56.4,42,56.7,42,57z"/>
		<path d="M45.8,55.3c0.4-0.2,0.9-0.3,1.3-0.3c1.1,0,1.7,0.5,1.7,1.6v0.5c0,0.2,0,0.4,0,0.5c0,0.2,0,0.3,0,0.4c0,0.3,0,0.6,0,0.9H48
			c0-0.2,0-0.4,0-0.6h0c-0.1,0.2-0.3,0.4-0.5,0.5C47.2,59,47,59,46.7,59c-0.4,0-0.7-0.1-0.9-0.3c-0.3-0.2-0.4-0.5-0.4-0.8
			c0-0.3,0.1-0.5,0.2-0.7c0.1-0.2,0.3-0.3,0.5-0.4c0.2-0.1,0.4-0.2,0.6-0.2c0.1,0,0.2,0,0.3,0c0.1,0,0.2,0,0.3,0h0.6
			c0-0.3-0.1-0.5-0.2-0.7c-0.1-0.1-0.4-0.2-0.7-0.2c-0.5,0-0.8,0.2-1.2,0.4L45.8,55.3z M46.3,57.8c0,0.2,0.1,0.3,0.2,0.4
			c0.1,0.1,0.3,0.1,0.5,0.1c0.3,0,0.6-0.1,0.7-0.3c0.1-0.2,0.2-0.5,0.2-0.8h-0.6c0,0-0.1,0-0.1,0c0,0-0.1,0-0.1,0
			c-0.1,0-0.3,0-0.4,0.1c-0.1,0.1-0.2,0.1-0.3,0.2C46.4,57.6,46.3,57.7,46.3,57.8z"/>
		<path d="M49.3,59.8c0.3,0,0.4-0.1,0.5-0.2c0.1-0.1,0.1-0.3,0.1-0.6v-4h1v4.1c0,0.1,0,0.1,0,0.2c0,0.1,0,0.1,0,0.2
			c0,0.2-0.1,0.3-0.2,0.5c-0.1,0.1-0.2,0.2-0.3,0.3c-0.2,0.1-0.4,0.1-0.6,0.1c-0.2,0-0.3,0-0.5-0.1L49.3,59.8z M49.9,53.4h1v1h-1
			V53.4z"/>
		<path d="M52.3,55.3c0.4-0.2,0.9-0.3,1.3-0.3c1.1,0,1.7,0.5,1.7,1.6v0.5c0,0.2,0,0.4,0,0.5c0,0.2,0,0.3,0,0.4c0,0.3,0,0.6,0,0.9
			h-0.9c0-0.2,0-0.4,0-0.6h0c-0.1,0.2-0.3,0.4-0.5,0.5C53.7,59,53.5,59,53.2,59c-0.4,0-0.7-0.1-0.9-0.3c-0.3-0.2-0.4-0.5-0.4-0.8
			c0-0.3,0.1-0.5,0.2-0.7c0.1-0.2,0.3-0.3,0.5-0.4c0.2-0.1,0.4-0.2,0.6-0.2c0.1,0,0.2,0,0.3,0c0.1,0,0.2,0,0.3,0h0.6
			c0-0.3-0.1-0.5-0.2-0.7c-0.1-0.1-0.4-0.2-0.7-0.2c-0.5,0-0.8,0.2-1.2,0.4L52.3,55.3z M52.8,57.8c0,0.2,0.1,0.3,0.2,0.4
			c0.1,0.1,0.3,0.1,0.5,0.1c0.3,0,0.6-0.1,0.7-0.3c0.1-0.2,0.2-0.5,0.2-0.8h-0.6c0,0-0.1,0-0.1,0c0,0-0.1,0-0.1,0
			c-0.1,0-0.3,0-0.4,0.1c-0.1,0.1-0.2,0.1-0.3,0.2C52.9,57.6,52.8,57.7,52.8,57.8z"/>
		<path d="M59,58.5L59,58.5c-0.3,0.4-0.7,0.5-1.2,0.5c-0.6,0-1-0.2-1.3-0.6c-0.2-0.4-0.4-0.9-0.4-1.4c0-0.5,0.1-1,0.4-1.4
			c0.3-0.4,0.7-0.6,1.3-0.6c0.5,0,0.9,0.2,1.2,0.5h0v-2.2h1V59h-1V58.5z M57.2,57c0,0.3,0,0.6,0.2,0.8c0.1,0.1,0.2,0.2,0.3,0.3
			c0.1,0.1,0.2,0.1,0.4,0.1c0.2,0,0.3,0,0.4-0.1c0.1-0.1,0.2-0.2,0.3-0.3c0.1-0.1,0.1-0.3,0.1-0.4c0-0.1,0-0.1,0-0.2
			c0-0.1,0-0.1,0-0.2c0-0.3-0.1-0.6-0.2-0.8c-0.1-0.1-0.2-0.2-0.3-0.3c-0.1-0.1-0.3-0.1-0.4-0.1c-0.3,0-0.5,0.1-0.7,0.4
			c-0.1,0.1-0.1,0.3-0.1,0.4C57.2,56.7,57.2,56.9,57.2,57z"/>
		<path d="M61.3,55.3c0.4-0.2,0.9-0.3,1.3-0.3c1.1,0,1.7,0.5,1.7,1.6v0.5c0,0.2,0,0.4,0,0.5c0,0.2,0,0.3,0,0.4c0,0.3,0,0.6,0,0.9
			h-0.9c0-0.2,0-0.4,0-0.6h0c-0.1,0.2-0.3,0.4-0.5,0.5C62.7,59,62.4,59,62.2,59c-0.4,0-0.7-0.1-0.9-0.3c-0.3-0.2-0.4-0.5-0.4-0.8
			c0-0.3,0.1-0.5,0.2-0.7c0.1-0.2,0.3-0.3,0.5-0.4c0.2-0.1,0.4-0.2,0.6-0.2c0.1,0,0.2,0,0.3,0c0.1,0,0.2,0,0.3,0h0.6
			c0-0.3-0.1-0.5-0.2-0.7c-0.1-0.1-0.4-0.2-0.7-0.2c-0.5,0-0.8,0.2-1.2,0.4L61.3,55.3z M61.8,57.8c0,0.2,0.1,0.3,0.2,0.4
			c0.1,0.1,0.3,0.1,0.5,0.1c0.3,0,0.6-0.1,0.7-0.3c0.1-0.2,0.2-0.5,0.2-0.8h-0.6c0,0-0.1,0-0.1,0c0,0-0.1,0-0.1,0
			c-0.1,0-0.3,0-0.4,0.1c-0.1,0.1-0.2,0.1-0.3,0.2C61.9,57.6,61.8,57.7,61.8,57.8z"/>
		<path d="M70.2,58.5L70.2,58.5C69.8,58.9,69.4,59,69,59c-0.6,0-1-0.2-1.3-0.6c-0.2-0.4-0.4-0.9-0.4-1.4c0-0.5,0.1-1,0.4-1.4
			C68,55.2,68.4,55,69,55c0.5,0,0.9,0.2,1.2,0.5h0v-2.2h1V59h-1V58.5z M68.4,57c0,0.3,0,0.6,0.2,0.8c0.1,0.1,0.2,0.2,0.3,0.3
			c0.1,0.1,0.2,0.1,0.4,0.1c0.2,0,0.3,0,0.4-0.1c0.1-0.1,0.2-0.2,0.3-0.3c0.1-0.1,0.1-0.3,0.1-0.4c0-0.1,0-0.1,0-0.2
			c0-0.1,0-0.1,0-0.2c0-0.3-0.1-0.6-0.2-0.8c-0.1-0.1-0.2-0.2-0.3-0.3c-0.1-0.1-0.3-0.1-0.4-0.1c-0.3,0-0.5,0.1-0.7,0.4
			c-0.1,0.1-0.1,0.3-0.1,0.4C68.4,56.7,68.4,56.9,68.4,57z"/>
		<path d="M75.4,58.7C75,58.9,74.6,59,74.1,59c-1.3,0-2-0.7-2-2c0-0.6,0.2-1.1,0.5-1.4c0.3-0.4,0.8-0.6,1.3-0.6
			c0.7,0,1.2,0.2,1.5,0.7c0.3,0.4,0.4,1,0.4,1.7H73c0,0.3,0.1,0.5,0.3,0.7c0.2,0.2,0.5,0.3,0.8,0.3c0.2,0,0.5,0,0.7-0.1
			c0.2-0.1,0.4-0.2,0.6-0.3V58.7z M74.7,56.6c0-0.2-0.1-0.5-0.2-0.6c-0.1-0.2-0.3-0.3-0.6-0.3c-0.3,0-0.5,0.1-0.6,0.3
			c-0.1,0.2-0.2,0.4-0.3,0.7H74.7z"/>
		<path d="M81.7,54.7c-0.3-0.1-0.7-0.2-1.1-0.2c-0.1,0-0.2,0-0.3,0c-0.1,0-0.2,0.1-0.3,0.1c-0.1,0.1-0.2,0.1-0.2,0.2
			c-0.1,0.1-0.1,0.2-0.1,0.4c0,0.1,0,0.2,0.1,0.3c0.1,0.1,0.2,0.1,0.3,0.2c0.1,0,0.1,0.1,0.2,0.1c0.1,0,0.1,0.1,0.2,0.1
			c0.1,0,0.1,0.1,0.2,0.1l0.2,0.1c0.1,0,0.3,0.1,0.4,0.2c0.1,0.1,0.3,0.2,0.4,0.3c0.1,0.1,0.1,0.1,0.1,0.2c0,0.1,0.1,0.1,0.1,0.2
			c0.1,0.2,0.1,0.4,0.1,0.6c0,0.6-0.2,1-0.6,1.2c-0.4,0.2-0.8,0.4-1.4,0.4c-0.1,0-0.3,0-0.4,0c-0.1,0-0.2,0-0.3,0
			c-0.1,0-0.2,0-0.3-0.1c-0.1,0-0.2,0-0.4-0.1l0.1-0.9c0.4,0.2,0.8,0.3,1.2,0.3c0.2,0,0.4-0.1,0.6-0.2c0.2-0.1,0.3-0.3,0.3-0.5
			c0-0.1,0-0.2-0.1-0.3c-0.1-0.1-0.2-0.2-0.3-0.2c-0.1-0.1-0.2-0.1-0.4-0.2c-0.1-0.1-0.3-0.1-0.4-0.2c-0.1,0-0.1-0.1-0.2-0.1
			c-0.1,0-0.1-0.1-0.2-0.1c-0.1-0.1-0.3-0.2-0.4-0.3c-0.1-0.1-0.1-0.1-0.1-0.2c0-0.1-0.1-0.1-0.1-0.2c-0.1-0.2-0.1-0.3-0.1-0.5
			c0-0.6,0.2-1,0.6-1.2c0.4-0.2,0.8-0.4,1.3-0.4c0.5,0,0.9,0.1,1.3,0.2L81.7,54.7z"/>
		<path d="M86.6,59h-1v-0.5h0c-0.3,0.4-0.7,0.6-1.3,0.6c-0.5,0-0.8-0.2-1-0.4C83.2,58.3,83,58,83,57.5v-2.4h1v2.1c0,0,0,0.1,0,0.1
			c0,0,0,0.1,0,0.1v0.1c0,0,0,0.1,0,0.1c0,0.1,0,0.3,0.1,0.4c0,0.1,0.1,0.2,0.2,0.3c0.1,0.1,0.2,0.1,0.4,0.1c0.2,0,0.3,0,0.5-0.1
			c0.1-0.1,0.2-0.2,0.3-0.3c0.1-0.1,0.1-0.3,0.1-0.4c0-0.1,0-0.1,0-0.2c0-0.1,0-0.1,0-0.2v-1.9h1V59z"/>
		<path d="M87.8,53.4h1v1h-1V53.4z M87.8,55.1h1V59h-1V55.1z"/>
		<path d="M89.8,55.1h3.1v0.8l-1.9,2.3h2V59h-3.2v-0.8l2-2.3h-1.9V55.1z"/>
		<path d="M94,55.3c0.4-0.2,0.9-0.3,1.3-0.3c1.1,0,1.7,0.5,1.7,1.6v0.5c0,0.2,0,0.4,0,0.5c0,0.2,0,0.3,0,0.4c0,0.3,0,0.6,0,0.9h-0.9
			c0-0.2,0-0.4,0-0.6h0c-0.1,0.2-0.3,0.4-0.5,0.5C95.4,59,95.2,59,94.9,59c-0.4,0-0.7-0.1-0.9-0.3c-0.3-0.2-0.4-0.5-0.4-0.8
			c0-0.3,0.1-0.5,0.2-0.7c0.1-0.2,0.3-0.3,0.5-0.4c0.2-0.1,0.4-0.2,0.6-0.2c0.1,0,0.2,0,0.3,0c0.1,0,0.2,0,0.3,0h0.6
			c0-0.3-0.1-0.5-0.2-0.7c-0.1-0.1-0.4-0.2-0.7-0.2c-0.5,0-0.8,0.2-1.2,0.4L94,55.3z M94.5,57.8c0,0.2,0.1,0.3,0.2,0.4
			c0.1,0.1,0.3,0.1,0.5,0.1c0.3,0,0.6-0.1,0.7-0.3c0.1-0.2,0.2-0.5,0.2-0.8h-0.6c0,0-0.1,0-0.1,0c0,0-0.1,0-0.1,0
			c-0.1,0-0.3,0-0.4,0.1c-0.1,0.1-0.2,0.1-0.3,0.2C94.6,57.6,94.5,57.7,94.5,57.8z"/>
		<path d="M103.4,58.7c-0.4,0.2-0.8,0.3-1.3,0.3c-1.3,0-2-0.7-2-2c0-0.6,0.2-1.1,0.5-1.4c0.3-0.4,0.8-0.6,1.3-0.6
			c0.7,0,1.2,0.2,1.5,0.7c0.3,0.4,0.4,1,0.4,1.7H101c0,0.3,0.1,0.5,0.3,0.7c0.2,0.2,0.5,0.3,0.8,0.3c0.2,0,0.5,0,0.7-0.1
			c0.2-0.1,0.4-0.2,0.6-0.3V58.7z M102.7,56.6c0-0.2-0.1-0.5-0.2-0.6c-0.1-0.2-0.3-0.3-0.6-0.3c-0.3,0-0.5,0.1-0.6,0.3
			c-0.1,0.2-0.2,0.4-0.3,0.7H102.7z"/>
		<path d="M104.6,55.1h1v0.5h0c0.3-0.4,0.7-0.6,1.3-0.6c0.5,0,0.8,0.1,1,0.4c0.2,0.3,0.3,0.6,0.3,1.1V59h-1v-2.2c0-0.1,0-0.1,0-0.2
			c0-0.1,0-0.3-0.1-0.4c0-0.1-0.1-0.2-0.2-0.3c-0.1-0.1-0.2-0.1-0.4-0.1c-0.2,0-0.3,0-0.4,0.1c-0.1,0.1-0.2,0.2-0.3,0.3
			c-0.1,0.1-0.1,0.3-0.1,0.4c0,0.1,0,0.3,0,0.4V59h-1V55.1z"/>
		<path d="M114.6,58.7c-0.4,0.2-0.8,0.3-1.3,0.3c-1.3,0-2-0.7-2-2c0-0.6,0.2-1.1,0.5-1.4c0.3-0.4,0.8-0.6,1.3-0.6
			c0.7,0,1.2,0.2,1.5,0.7c0.3,0.4,0.4,1,0.4,1.7h-2.7c0,0.3,0.1,0.5,0.3,0.7c0.2,0.2,0.5,0.3,0.8,0.3c0.3,0,0.5,0,0.7-0.1
			c0.2-0.1,0.4-0.2,0.6-0.3V58.7z M113.9,56.6c0-0.2-0.1-0.5-0.2-0.6c-0.1-0.2-0.3-0.3-0.6-0.3c-0.3,0-0.5,0.1-0.6,0.3
			c-0.1,0.2-0.2,0.4-0.3,0.7H113.9z"/>
		<path d="M115.8,53.3h1V59h-1V53.3z"/>
		<path d="M120.2,53.7h3.1v0.8h-2v1.3h1.9v0.8h-1.9v1.5h2.1V59h-3.1V53.7z"/>
		<path d="M126.9,55.9c-0.1,0-0.2-0.1-0.3-0.1c-0.1,0-0.1,0-0.2,0c-0.1,0-0.1,0-0.2,0c-0.3,0-0.6,0.1-0.7,0.3
			c-0.2,0.2-0.3,0.5-0.3,0.9c0,0.4,0.1,0.7,0.3,0.9c0.2,0.2,0.4,0.4,0.8,0.4c0.1,0,0.3,0,0.4-0.1c0.1,0,0.3-0.1,0.3-0.1l0,0.8
			c-0.1,0-0.3,0.1-0.5,0.1c-0.1,0-0.2,0-0.3,0c-0.1,0-0.2,0-0.3,0c-0.6,0-1.1-0.2-1.4-0.6c-0.3-0.4-0.5-0.9-0.5-1.5
			c0-0.6,0.2-1,0.5-1.4c0.3-0.4,0.8-0.6,1.4-0.6c0.4,0,0.7,0,1,0.1L126.9,55.9z"/>
		<path d="M131.4,59h-1v-0.5h0c-0.3,0.4-0.7,0.6-1.3,0.6c-0.5,0-0.8-0.2-1-0.4c-0.2-0.3-0.3-0.6-0.3-1.1v-2.4h1v2.1c0,0,0,0.1,0,0.1
			c0,0,0,0.1,0,0.1v0.1c0,0,0,0.1,0,0.1c0,0.1,0,0.3,0.1,0.4c0,0.1,0.1,0.2,0.2,0.3c0.1,0.1,0.2,0.1,0.4,0.1c0.2,0,0.3,0,0.5-0.1
			c0.1-0.1,0.2-0.2,0.3-0.3c0.1-0.1,0.1-0.3,0.1-0.4c0-0.1,0-0.1,0-0.2c0-0.1,0-0.1,0-0.2v-1.9h1V59z"/>
		<path d="M132.8,55.3c0.4-0.2,0.9-0.3,1.3-0.3c1.1,0,1.7,0.5,1.7,1.6v0.5c0,0.2,0,0.4,0,0.5c0,0.2,0,0.3,0,0.4c0,0.3,0,0.6,0,0.9
			h-0.9c0-0.2,0-0.4,0-0.6h0c-0.1,0.2-0.3,0.4-0.5,0.5c-0.2,0.1-0.5,0.2-0.7,0.2c-0.4,0-0.7-0.1-0.9-0.3c-0.3-0.2-0.4-0.5-0.4-0.8
			c0-0.3,0.1-0.5,0.2-0.7c0.1-0.2,0.3-0.3,0.5-0.4c0.2-0.1,0.4-0.2,0.6-0.2c0.1,0,0.2,0,0.3,0c0.1,0,0.2,0,0.3,0h0.6
			c0-0.3-0.1-0.5-0.2-0.7c-0.1-0.1-0.4-0.2-0.7-0.2c-0.5,0-0.8,0.2-1.2,0.4L132.8,55.3z M133.3,57.8c0,0.2,0.1,0.3,0.2,0.4
			c0.1,0.1,0.3,0.1,0.5,0.1c0.3,0,0.6-0.1,0.7-0.3c0.1-0.2,0.2-0.5,0.2-0.8h-0.6c0,0-0.1,0-0.1,0c0,0-0.1,0-0.1,0
			c-0.1,0-0.3,0-0.4,0.1c-0.1,0.1-0.2,0.1-0.3,0.2C133.3,57.6,133.3,57.7,133.3,57.8z"/>
		<path d="M139.4,58.5L139.4,58.5c-0.3,0.4-0.7,0.5-1.2,0.5c-0.6,0-1-0.2-1.3-0.6c-0.2-0.4-0.4-0.9-0.4-1.4c0-0.5,0.1-1,0.4-1.4
			c0.3-0.4,0.7-0.6,1.3-0.6c0.5,0,0.9,0.2,1.2,0.5h0v-2.2h1V59h-1V58.5z M137.7,57c0,0.3,0,0.6,0.2,0.8c0.1,0.1,0.2,0.2,0.3,0.3
			c0.1,0.1,0.2,0.1,0.4,0.1c0.2,0,0.3,0,0.4-0.1c0.1-0.1,0.2-0.2,0.3-0.3c0.1-0.1,0.1-0.3,0.1-0.4c0-0.1,0-0.1,0-0.2
			c0-0.1,0-0.1,0-0.2c0-0.3-0.1-0.6-0.2-0.8c-0.1-0.1-0.2-0.2-0.3-0.3c-0.1-0.1-0.3-0.1-0.4-0.1c-0.3,0-0.5,0.1-0.7,0.4
			c-0.1,0.1-0.1,0.3-0.1,0.4C137.7,56.7,137.7,56.9,137.7,57z"/>
		<path d="M141.3,57c0-0.6,0.2-1.1,0.6-1.5c0.4-0.4,0.9-0.5,1.4-0.5c0.6,0,1.1,0.2,1.4,0.5c0.4,0.4,0.6,0.9,0.6,1.5
			c0,0.6-0.2,1-0.5,1.4c-0.4,0.4-0.9,0.6-1.5,0.6c-0.6,0-1.1-0.2-1.5-0.6C141.5,58.1,141.3,57.6,141.3,57z M142.4,56.9
			c0,0,0,0.1,0,0.1c0,0,0,0.1,0,0.1l0,0.1c0,0,0,0.1,0,0.1c0,0.2,0.1,0.3,0.2,0.4c0.1,0.1,0.2,0.2,0.3,0.3c0.1,0.1,0.3,0.1,0.5,0.1
			c0.2,0,0.4,0,0.5-0.1c0.1-0.1,0.2-0.2,0.3-0.3c0.1-0.1,0.1-0.3,0.1-0.4c0-0.1,0-0.2,0-0.2c0-0.1,0-0.2,0-0.2
			c0-0.3-0.1-0.6-0.2-0.8c-0.2-0.2-0.4-0.3-0.7-0.3c-0.3,0-0.6,0.1-0.7,0.4C142.4,56.4,142.4,56.6,142.4,56.9z"/>
		<path d="M146.3,55.1h0.9V56h0c0-0.2,0.1-0.4,0.3-0.6c0.2-0.2,0.4-0.3,0.7-0.3c0.1,0,0.2,0,0.3,0v1c-0.1-0.1-0.3-0.1-0.5-0.1
			c-0.2,0-0.4,0.1-0.5,0.2c-0.1,0.1-0.2,0.2-0.2,0.4c0,0.2-0.1,0.3-0.1,0.5c0,0.1,0,0.2,0,0.3c0,0.1,0,0.2,0,0.2V59h-1V55.1z"/>
	</g>
	<g>
		<path class="st0" d="M21.3,1.7c0,0-4-1.7-10.6-1.7h0C4,0,0,1.7,0,1.7s-0.4,7.7,1.2,12c2.7,7.7,9.5,9.8,9.5,9.8h0h0
			c0,0,6.8-2.1,9.5-9.8C21.6,9.4,21.3,1.7,21.3,1.7z"/>
	</g>
	<polygon class="st1" points="17.7,8.4 17.7,12.6 12.8,12.6 12.8,17.6 8.5,17.6 8.5,12.6 3.6,12.6 3.6,8.4 8.5,8.4 8.5,3.4 
		12.8,3.4 12.8,8.4 	"/>
</g>
</svg>
