<?xml version="1.0" encoding="utf-8"?>
<!-- Generator: Adobe Illustrator 25.4.1, SVG Export Plug-In . SVG Version: 6.00 Build 0)  -->
<!DOCTYPE svg PUBLIC "-//W3C//DTD SVG 1.1//EN" "http://www.w3.org/Graphics/SVG/1.1/DTD/svg11.dtd" [
	<!ENTITY ns_extend "http://ns.adobe.com/Extensibility/1.0/">
	<!ENTITY ns_ai "http://ns.adobe.com/AdobeIllustrator/10.0/">
	<!ENTITY ns_graphs "http://ns.adobe.com/Graphs/1.0/">
	<!ENTITY ns_vars "http://ns.adobe.com/Variables/1.0/">
	<!ENTITY ns_imrep "http://ns.adobe.com/ImageReplacement/1.0/">
	<!ENTITY ns_sfw "http://ns.adobe.com/SaveForWeb/1.0/">
	<!ENTITY ns_custom "http://ns.adobe.com/GenericCustomNamespace/1.0/">
	<!ENTITY ns_adobe_xpath "http://ns.adobe.com/XPath/1.0/">
]>
<svg version="1.1" id="Capa_1" xmlns:x="&ns_extend;" xmlns:i="&ns_ai;" xmlns:graph="&ns_graphs;"
	 xmlns="http://www.w3.org/2000/svg" xmlns:xlink="http://www.w3.org/1999/xlink" x="0px" y="0px" viewBox="0 0 420.2 108.5"
	 style="enable-background:new 0 0 420.2 108.5;" xml:space="preserve">
<style type="text/css">
	.st0{fill:#0086C5;}
	.st1{fill:#66A0CF;}
</style>
<metadata>
	<sfw  xmlns="&ns_sfw;">
		<slices></slices>
		<sliceSourceBounds  bottomLeftOrigin="true" height="108.5" width="420.2" x="750" y="-595.1"></sliceSourceBounds>
	</sfw>
</metadata>
<g>
	<path class="st0" d="M188.3,50.6c-15.1,0-25.9-11.2-25.9-25.1v-0.1c0-13.9,11-25.3,26.1-25.3c15.1,0,25.9,11.2,25.9,25.1v0.1
		C214.3,39.2,203.3,50.6,188.3,50.6 M203.1,25.3c0-8.4-6.1-15.4-14.8-15.4c-8.7,0-14.7,6.8-14.7,15.2v0.1c0,8.4,6.1,15.4,14.8,15.4
		c8.7,0,14.7-6.8,14.7-15.2V25.3z"/>
	<polygon class="st0" points="253.3,49.7 229.6,18.6 229.6,49.7 219,49.7 219,0.8 228.9,0.8 251.8,30.9 251.8,0.8 262.4,0.8 
		262.4,49.7 	"/>
	<path class="st0" d="M290.3,50.5c-13.1,0-21.2-7.3-21.2-21.7V0.8h10.8v27.7c0,8,4,12.1,10.5,12.1c6.6,0,10.5-4,10.5-11.7v-28h10.8
		v27.6C311.8,43.2,303.5,50.5,290.3,50.5"/>
	<polygon class="st0" points="38.2,107.7 38.2,75.8 24.4,96.7 24.2,96.7 10.5,76 10.5,107.7 0,107.7 0,58.8 11.6,58.8 24.4,79.5 
		37.3,58.8 48.9,58.8 48.9,107.7 	"/>
	<path class="st0" d="M77.6,108.5c-13.1,0-21.2-7.3-21.2-21.7V58.8h10.8v27.7c0,8,4,12.1,10.5,12.1c6.6,0,10.6-4,10.6-11.7v-28H99
		v27.6C99,101.2,90.7,108.5,77.6,108.5"/>
	<path class="st0" d="M114.9,108.4c-7.6,0-12.6-3.4-16-7.3l6.8-7.5c2.8,3.1,5.5,4.9,8.9,4.9c4.1,0,6.6-2.4,6.6-8.1V58.8h11v32
		C132.2,102.7,125.2,108.4,114.9,108.4"/>
	<polygon class="st0" points="140.4,107.7 140.4,58.8 177.3,58.8 177.3,68.4 151.1,68.4 151.1,78.3 174.2,78.3 174.2,87.9 
		151.1,87.9 151.1,98.1 177.6,98.1 177.6,107.7 	"/>
	<path class="st0" d="M214.9,107.7l-10.5-15.6h-8.5v15.6h-10.8V58.8h22.3c11.5,0,18.4,6.1,18.4,16.1v0.1c0,7.9-4.3,12.9-10.5,15.2
		l11.9,17.5H214.9z M215.1,75.5c0-4.6-3.2-7-8.5-7h-10.7v14h10.9c5.2,0,8.2-2.8,8.2-6.9V75.5z"/>
	<polygon class="st0" points="233,107.7 233,58.8 269.8,58.8 269.8,68.4 243.6,68.4 243.6,78.3 266.7,78.3 266.7,87.9 243.6,87.9 
		243.6,98.1 270.2,98.1 270.2,107.7 	"/>
	<path class="st0" d="M295.8,108.4c-7.4,0-14.9-2.6-20.7-7.8l6.4-7.6c4.4,3.6,9,5.9,14.6,5.9c4.4,0,7.1-1.7,7.1-4.6v-0.1
		c0-2.7-1.7-4.1-9.8-6.2C283.4,85.4,277,82.7,277,73v-0.1c0-8.9,7.1-14.7,17.1-14.7c7.1,0,13.2,2.2,18.2,6.2l-5.6,8.1
		c-4.3-3-8.6-4.8-12.7-4.8c-4.1,0-6.3,1.9-6.3,4.3V72c0,3.2,2.1,4.3,10.5,6.4c9.9,2.6,15.5,6.1,15.5,14.7v0.1
		C313.7,103,306.3,108.4,295.8,108.4"/>
	<path class="st0" d="M144.6,11.3c4,6.6,3.2,16.6-1.6,22.5c-5.3,7-14.1,10.1-22.8,7.7c-7.9-2.1-14.3-9.6-15-17.7
		c-1-8.6,3-16.5,10.3-20.8c5.6-3.5,14.3-3.8,20.1-0.6C139.2,4.2,142.8,7.7,144.6,11.3 M126.6,1.2c0.1,0.8,0.1,1.9,0,2.8
		c0-0.1,0.2-0.1,0.2-0.2c0.3,0.1,0.3,0.4,0.2,0.7H127c1.4-0.1,2.8,0.3,4.1,0.7c1.4,0.2,2.5,1.8,3.9,0.9c0.4,0.4,1,0,1.2,0.7
		c0.5,0.1,0.8,0.6,1.1,0.9c0,0.5,0.4,0.7,0.6,1V8.6c0.4-0.8,1.2-1.5,1.9-1.9c-2.8-2.7-6.2-4.4-10-5.1C128.7,1.4,127.6,1.5,126.6,1.2
		 M112.3,6.8l2.3,2.2c2.9-2.8,6.6-4.4,10.7-4.6c-0.2-1-0.1-2.1,0-3.1C120.4,1.6,116,3.5,112.3,6.8 M141.3,1.9l1.5,1.5
		c1.5,2.4,3.7,4.7,5.8,6.2c-0.5-0.9-0.5-2-1-3C146.7,4,143.7,2.7,141.3,1.9 M110.6,2.2c-1.9,0.7-3.9,1.4-5.3,3.1
		c-1.1,1.4-1.4,3.1-2,4.7l1.6-1.4C107.5,6.9,108.1,4,110.6,2.2 M129,2.9l-1.4,0.6c-0.2,0.1-0.7-0.2-0.6,0.2c0.3,0.2,0.5,0.4,0.9,0.4
		c0.9-0.4,1.9,0.3,2.7-0.6C130.4,3,129.6,3,129,2.9 M147,4.7c2.1,1.4,1.9,3.9,2.7,6c0.2,0.9,0.7,1.7,0.8,2.5
		c-1.1-3.2-4.9-3.6-6.3-6.7l0.4,1.8c1.1,3.5,5.2,4.3,6.8,7.5c-0.5-2.3,0.4-4.7-0.3-6.9C150.6,6.9,149,5.3,147,4.7 M101.5,7.8
		c-1.6,2.3-0.3,5.6-0.8,8.3c0.6-1.1,1.7-2.2,2.6-3c2.2-1.4,4.2-3.7,4.3-6.3c-1.2,3-5.1,3.4-6,6.6h-0.1c1.4-2.7,0.6-6.4,3.4-8.4
		C103.4,5.5,102.2,6.5,101.5,7.8 M126.5,5.5c0.2,1,0.1,2.2,0,3.1c2.5,0,4.8,0.8,6.8,2.3c-0.2-0.1-0.4-0.5-0.4-0.8h0.1
		c0-0.3-0.5-0.5-0.3-0.9c0.5,0,0.8,0.7,1.1,1c1.4,0,0.6,1.6,1.6,2.1c0.2,0.1-0.1,0.6,0.3,0.6c0.3,0.3,0.7,0.5,0.7,0.9
		c0.1,0.7,0.7-0.2,1,0.2c0.3,0.2-0.2,0.3-0.1,0.6c0.2,0.1,0.3-0.2,0.5,0c0.1,0.2-0.1,0.3-0.2,0.5c-0.1,0.4,0.4,0.2,0.5,0.4
		c0.2,0.5,0.4,1.2,0,1.7c0.5,0.5-0.1,1.1-0.2,1.6c-0.4,0.3-0.4,1.1-1.1,0.9c-0.2,0.3,0.1,0.6-0.1,0.8l1.2,0.1
		c-0.7-0.9,0.2-1.8,0.5-2.7c0.1-0.1,0.3-0.4,0.4-0.1c-0.1,0.4-0.1,0.8-0.1,1.1c0.3,0.4,0.2,1.1,0.3,1.6l3-0.1
		c-0.2-2-0.6-3.9-1.5-5.7c-0.2,0.1-0.5,0.2-0.7,0.1c-0.3-0.5-0.6-1-1.1-1.4c-0.4,0-0.7-0.3-1-0.5c-0.7,0-0.4-1-1.1-0.8
		c-0.4-0.2-0.6-0.4-0.7-0.8c0-0.5-0.1-1.1-0.5-1.4c-0.3-0.1-0.5,0-0.7,0.2c-0.4,0.2-0.5-0.2-0.5-0.5c-0.4-0.3,0-0.7-0.2-1
		c-0.6-0.5-0.3-1.4-1.1-1.7c-1.3-0.6-2.7-1-4.1-1.3C128.1,5.7,127.2,5.7,126.5,5.5 M135.5,5.5c-0.2,0-0.1,0.3,0,0.4
		c0.5,0,0.5,0.9,1.1,0.6l-0.1-0.6C136.3,5.4,135.8,5.6,135.5,5.5 M115.3,9.8c0.8,0.5,1.6,1.4,2.2,2.1c2.1-2,4.9-3.3,7.9-3.3
		c-0.1-1-0.1-2,0-3C121.6,5.9,118.2,7.2,115.3,9.8 M140.5,7.4l-2.1,2.2l-0.3,0c0.3,0,0.2,0.3,0.4,0.4c0.9,0.6,1.3,1.5,2,2.1
		c0.3,0.7,1,1.1,1,1.9c1,2,1.5,4.3,1.6,6.6c1-0.1,2.2-0.2,3.2-0.1l-0.1-0.1C145.9,15.4,143.8,11,140.5,7.4 M111.7,7.8l-0.1-0.3
		c-3.4,3.7-5.2,8.3-5.5,13.3l3.2,0c-0.1-1,0.2-2,0.3-3c0.7-3,2-5.8,4.2-8L111.7,7.8z M151.6,8.5c1.5,2.1,0.6,5.1,0.5,7.6
		c0.1,1.2,0.3,2.4,0.2,3.6c-0.2-0.5-0.2-1-0.3-1.5c-0.6-2.7-3.7-4-5-6.3c0.2,0.8,0.3,1.5,0.6,2.3c1.1,3.2,4.4,5.3,4.8,8.8
		c0.3-3.3,2.6-5.9,1.7-9.5C153.7,11.6,152.9,9.9,151.6,8.5 M100.3,8.9c-1.1,1.4-1.9,3-2.3,4.7c-0.8,3.6,1.4,6.4,1.9,9.7
		c0.6-4.1,5-6.8,5.2-11.1c-1.3,2.3-4.4,3.7-4.9,6.5c0,0.4-0.1,0.9-0.2,1.3l-0.1-0.1l0.2-1.8C100.5,15,98.7,11.7,100.3,8.9
		 M125.5,9.6L125.5,9.6c-2.8,0.2-5.1,1.4-7.2,3.1c0.8,0.5,1.4,1.4,2.2,2.1c1.3-1.3,3.1-2,4.9-2.1C125.3,11.8,125.3,10.6,125.5,9.6
		 M126.6,9.7c0.2,0.9,0.1,2,0.1,3c1.8,0.1,3.8,0.9,5.1,2.1c0.7-0.7,1.5-1.7,2.2-2.1C131.8,10.9,129.4,9.9,126.6,9.7 M114.5,10.4v0.2
		c-2.5,2.8-3.9,6.3-4.1,10.1c1,0,2.1,0,3.1,0l-0.1-0.1c0.2-3,1.3-5.8,3.4-8C115.9,12,115.2,11.2,114.5,10.4 M134.6,13.3
		c-0.9,1.1-2.1,2.2-3,3.2c0.1,0.1,0.2,0.3,0.2,0.2c0.2-0.3,0.1-1,0.7-0.9c0.7,0.2,1.2,0.2,1.9,0.2c0.4,0.2,0.5,0.7,0.8,0.9
		c0.2,0.2-0.1,0.3-0.1,0.5c0.1,0.1,0.2,0.2,0.2,0.2c0.2-0.2,0.5-0.4,0.8-0.3c0.4,0,0.5,0.6,0.8,0.6c0.2,0.2-0.1,0.4-0.2,0.5
		c0.1,0.4-0.4,0.5-0.2,0.8c0.2,0,0.4-0.1,0.5-0.2c0.7-0.5,0.2-1.3,0-1.9c-0.3-0.6-0.9-0.7-1.4-1.2c0-0.2,0.1-0.4,0.3-0.5
		C135.9,14.7,135.1,14.1,134.6,13.3 M117.5,13.4c-0.7,0.8-1.3,1.7-1.8,2.7c-0.8,1.4-1,3-1.3,4.7l1.3,0c-0.2-0.3-0.2-0.6-0.2-0.9
		c0.3-0.6,0.4-1.7,1.4-1.7c0.5-0.1,0-0.5,0.3-0.6c0.7-0.1,0.8-0.7,1.4-1c0.5-0.1,0.7-0.8,1.2-0.9C118.9,15,118.3,14.2,117.5,13.4
		 M126.6,13.8l0.1,2.1l0.8,0.3c0.2-0.4,0.7-0.5,0.9-0.9c0.3-0.1,0.3,0.2,0.4,0.3c0.2,1-0.9,1.4-1.5,1.8h0.2c0.6-0.6,1,0.8,1.6,0.1
		c0.1-0.8,1.2-0.7,1.5-1.5c-0.2,0.2-0.3,0-0.5-0.1c0.1-0.3,0.4-0.5,0.6-0.6C129.6,14.6,128.2,14.1,126.6,13.8 M125.4,13.9
		c-1.7,0.2-3.2,0.8-4.4,2.1c0.4,0.1,0.8,0.2,1.1,0.5c0.1,0.2-0.2,0.2-0.2,0.3c0.3,0.4,0.3-0.1,0.5-0.1c0.2,0.2,0.4,0.4,0.8,0.2
		c0.2,0.3,0.5,0,0.7,0c0.1-0.2,0.4-0.4,0.3-0.7c0.1-0.2,0.2-0.6,0.5-0.6c-0.2,0.9,0.7,0,0.9,0.4C125.3,15.5,125.5,14.5,125.4,13.9
		 M154.9,16.1c0.5,3.2-1.4,5.6-2.2,8.3c-0.4,1.1-0.3,2.4-0.9,3.3c0-0.5,0.3-1,0.3-1.6c0.5-3.6-2.6-5.7-3.3-8.7c0,0.8,0,1.6,0.1,2.3
		c0.2,3.7,2.6,6.8,1.9,10.7c0.7-0.9,1.2-1.9,2.1-2.8C155.8,24.8,156.5,19.9,154.9,16.1 M97.3,16.5c-1,2.4-1,5.5-0.2,7.9
		c0.7,2.5,3.1,4.3,4.3,6.5c-0.2-0.9-0.2-2.1,0-3c0.8-3.3,2.1-6.4,1.9-10.1c-0.5,2.6-2.8,4.5-3.1,7.1c-0.2,1.1,0.1,2.2,0.2,3.2
		c-0.3-0.5-0.5-1.1-0.5-1.7C99.6,23,96.7,20.4,97.3,16.5 M125.3,17.8L125.3,17.8c0.1,0.3,0.3,0.8,0.1,1c-0.4,0.5-1.2,0.4-1.3,1
		c-0.9,0.3-0.6,1.4-0.9,2.1c-0.6,0.1-0.4-0.6-0.6-0.8l-0.1,0.2c-0.9-0.7-0.7,0.8-1.3,0.9c0.6,0.1,1.2-0.2,1.8-0.2
		c0,0.1,0.2,0.1,0.1,0.2h0.1c0.1-0.1,0.2-0.3,0.1-0.5c0.1-0.2,0.3-0.3,0.5-0.2c-0.1,0.2,0.1,0.4,0.2,0.4l-0.3,0.5
		c-0.2,0.2,0,0.7-0.4,0.7c-0.1,0-0.2-0.1-0.1-0.2H123l0.2,0.4c0.3,0,0.2-0.5,0.6-0.6c0.3-0.1,0.4-0.5,0.3-0.8
		c0.4-0.4,0.9-0.1,1.4-0.2c0.1,0.1,0.4,0.2,0.3,0.4c0.2,0.4-0.1,0.7-0.3,1c0.1,0.2-0.1,0.4-0.1,0.6c-0.4,0.4-0.8,0.2-1.3,0.3
		c0.6,0.4,1.3,0.7,2.1,0.6c0.8,0.1,0.4-0.9,1-1.3c0.3,0,0.6,0,1-0.1c0.2-0.3,0.2-0.7,0.2-1c-0.3-0.2-0.2-0.5-0.2-0.8
		c-0.2-0.2-0.2-0.7-0.6-0.7c-0.1-0.2,0.2-0.3,0.1-0.5c0.6-0.2-0.3-0.6,0.1-0.9c-0.7-0.1-0.8-1.2-1.7-0.8c-0.2-0.3-0.7-0.4-0.7-0.8
		c0.1-0.3,0.7-0.2,0.6-0.1c0-0.1-0.1-0.1-0.1-0.2C125.8,17.6,125.5,17.6,125.3,17.8 M116.9,20.3c-0.7,0.2,0,0.9,0,1.4
		c-0.1,0.4-0.5,0.1-0.7,0.2c0.1,0.6-0.4,0.7-0.8,0.8c-0.1,0.4,0.3,0.6,0.1,1c0.5,0.5,0.9,1.2,0.8,1.9c0.4,0.5,0.3,1.3,0.4,2
		c0.3,0.3,0.5,0.8,0.5,1.3c0,0.2-0.3,0.3-0.4,0.4c-0.2,0.2,0.1,0.1,0.1,0.3l2.6-2.7c-0.9-1.1-1.6-2.5-1.9-4l-0.3-0.2
		c-0.1,0.4,0,0.9-0.4,1c-0.2-0.2-0.5-0.2-0.5-0.6c0.1-0.2,0.3-0.1,0.4-0.1c0-0.2,0-0.4,0-0.5c0.1-0.2-0.3-0.4,0-0.6
		c0.2,0,0.3,0.3,0.5,0.4l0.5-0.2c-0.1-0.5,0.1-1.2,0-1.6C117.7,20.3,117.2,20.3,116.9,20.3 M136.2,20.7h0.2H136.2z M135.9,21.7
		l0.5,0.6c0,0.7,0.9,0.9,1,1.6c0.2-0.7,0.2-1.4,0.4-2C137.2,21.8,136.4,22,135.9,21.7 M142.9,21.7l0.1,0.2
		c-0.2,4.1-1.9,7.9-4.5,10.7c0.7,0.7,1.6,1.5,2.3,2.3c2.6-3,4.4-6.4,5-10.2c0.2-1,0.2-2,0.4-3c-1,0.3-2.1,0.1-3.2,0.2L142.9,21.7z
		 M138.9,21.8c0.1,0.4-0.1,0.8-0.1,1.2c-0.4,0.7,0.5,0.9,0.3,1.5c-0.2,0.1-0.3,0.1-0.6,0c-0.5,1.9-1.5,3.7-2.8,5.2h-0.1
		c0.4,0.2,0.6,0.7,1,0.8v-0.3c0.1-0.1,0.1-0.2,0.2-0.1c0.8,0.2,0.8,1.3,0.9,1.8c2-2.1,3.2-4.6,3.9-7.3c0.2-0.9,0.1-2,0.5-2.8
		C141,21.9,139.9,21.9,138.9,21.8 M114.4,21.8c0.2,0.7,0.5,1.5,0.3,2.3c0-0.4,0.8-0.7,0.2-1c0.2-0.4,0.1-1.1,0.5-1.1
		C115,22,114.7,22,114.4,21.8 M106.2,21.9c0.2,5,2.1,9.4,5.3,13.1c0.7-0.8,1.5-1.6,2.3-2.3c-0.4-0.3-0.6-0.7-1-1
		c-0.5-0.1-0.8-0.6-1-1c0,0.1,0,0.1-0.1,0.1c-0.4,0.2-0.6-0.3-0.9-0.5c-0.3-0.1-0.1-0.8-0.5-0.5c-0.3-0.5-0.8-0.4-1-0.9l-0.2,0.3
		c-0.4,0-0.6-0.4-0.8-0.7c-0.7,0.2-0.4-0.8-0.8-1.1c-0.2-0.6,0-1.2,0.4-1.7c0.2-0.2,0.6,0,0.7,0.1c0.4,0.1,0.1-0.3,0.3-0.4
		c0.5-0.5,0.8,0.2,1.1,0.5c-0.4-1.3-0.7-2.7-0.6-4.1C108.3,22,107.2,22,106.2,21.9 M110.3,21.9l0.1,0.1c0.1,1.4,0.5,2.8,0.6,4.1
		c0.2-0.1,0.1-0.4,0.3-0.4c0.1-0.7,0.2-1.4,0.6-2c0.6,0,0.7-0.9,1.3-0.8c0.2,0.1,0.4,0.3,0.4,0.5c-0.3-0.4-0.4-1-0.2-1.5
		C112.5,22,111.3,22,110.3,21.9 M118.9,23.1l0.2,0.3c0.2,1,0.8,1.8,1.3,2.7l0.9-0.9c0-0.1,0-0.3,0-0.3c-0.2-0.2-0.1-0.7-0.3-0.8
		c-0.1,0.2,0.2,0.3,0.1,0.5c-0.3-0.1-0.6-0.3-0.8-0.6c0.1-0.5-0.3-0.1-0.5-0.3C119.7,23.1,119.1,23.4,118.9,23.1 M122.2,24
		c-0.1,0.3-0.3,0.5-0.4,0.7c0.3-0.1,0.4-0.5,0.7-0.5L122.2,24z M149.3,24.3c-1.9,4-0.5,9.4-2.8,13.2l0.4-0.3
		c4.4-2.4,9.7-6.5,8.9-12.4c-0.1,0.8-0.3,1.5-0.7,2.2c-1.7,2.7-4.7,4.9-6.1,7.7c0,0.1-0.2,0.2-0.2,0.1l0.3-0.4
		C151,31.4,149.1,27.7,149.3,24.3 M130.6,24.7c-0.4,0.6,0.4,0.6,0.5,1.1c0.1,0,0.2,0,0.3,0c-0.1-0.2,0-0.5-0.2-0.6
		C130.7,25.1,130.7,24.7,130.6,24.7 M103,24.7c0.2,1.3-0.2,2.4-0.4,3.6c-0.7,2.3-0.3,4.9,1,6.8c-0.4-0.2-0.7-0.7-1-1.2
		c-1.6-3.1-5.7-4.9-6.1-8.6c0,1.4,0,2.8,0.4,4c1.1,4.2,5.8,6.4,8.9,8.5C103.6,33.9,104.8,28.7,103,24.7 M135.8,24.9
		c-0.6-0.4-0.5,0.4-0.9,0.3c-0.2,0-0.2-0.3-0.2-0.4c0,0.5-0.4,0.8-0.6,1.1c-0.9-0.3-0.7,1-1.6,0.7c0.1,0.4,0.5-0.1,0.7,0.1
		c0.2-0.1,0.1-0.2,0.2-0.3c0.1-0.4,0.5-0.5,0.9-0.4c0.2,0.3,0.3,0.7,0.2,1.1c-0.2,0.2-0.2,0.4-0.2,0.7c-0.3,0.4-0.2,1.4-1,1.3
		c-0.9-0.3-1.8-0.5-2.8-0.6v0.2c0.6,0.2,1.3,0.2,1.8,0.7c0.6-0.1,1.2,0.1,1.7-0.2c0.1-0.4,0.2-0.7,0.5-1c0.3,0,0.3,0.5,0.4,0.8
		c1-1.3,1.9-2.6,2.3-4.2C136.7,24.7,136.3,25,135.8,24.9 M123.1,24.9l-1.9,2.1c1.1,0.8,2.3,1.5,3.7,1.7c0-0.4,0-0.7,0.2-1
		c0.2-0.1,0.5,0.1,0.7-0.1c0-0.2-0.1-0.2-0.2-0.3c-0.1-0.3,0-0.5,0-0.7c0.1-0.1-0.2-0.5,0.1-0.6c-0.6,0.3-1.2-0.1-1.7-0.3
		C123.8,25.4,123.2,25.3,123.1,24.9 M129.2,27c0.2-0.3,0.7-0.3,0.8-0.6C129.6,26.3,129.2,26.6,129.2,27 M130.4,27.4
		c-0.2,0.1-0.4,0.1-0.5,0.4c-0.3,0.3-0.6,0-0.8-0.1c0.1,0.1,0.2,0.3,0,0.5c-0.3,0.3-0.5-0.1-0.7-0.2c-0.1,0.9-0.5-0.2-0.9,0
		c-0.2-0.5-0.5,0.1-0.8,0c-0.2,0.2-0.3,0.8-0.7,0.7c-0.1,0.3-0.5,0.2-0.5,0.4c0.2,0.3,0.5,0.1,0.7,0.1c0.4-0.3,0.8-0.1,1.3-0.2
		c0,0.7,0.8,0.2,1,0.6c0.3,0,0.3-0.3,0.4-0.5c0.6-0.1,1.2-0.5,1.6-0.9C130.5,27.9,130.6,27.5,130.4,27.4 M120.3,27.8
		c-0.6,0.8-1.4,1.5-2.1,2.1h0.1c1.7,1.5,3.9,2.5,5.9,2.9c-0.7-0.1-1-0.8-1.4-1.4c-0.2-0.5,0.5-0.5,0.4-1c0.3-0.4,0.6-0.7,1.1-0.7
		c-0.2,0-0.5,0.1-0.7,0.1C122.5,29.4,121.2,28.8,120.3,27.8 M147.4,30.3l-1.7,2.2c-2.2,3.1-2,7.2-5,9.9c1.6-0.5,3.3-0.7,5-1.1
		c3.7-0.9,7.6-4.6,8.1-8.4c-0.7,1.6-2.1,2.8-3.5,3.7c-2.4,1.1-4.9,2.4-7,4.2h-0.2l0.1-0.2C146.8,38.2,145.9,33.6,147.4,30.3
		 M134.8,30.5L134.8,30.5c-1.5,1.1,0.7,1.1,0.8,2c-0.2,0.4-1,0.9-0.5,1.4c0.2,0.2-0.1,0.3-0.1,0.5l2-1.7c-0.3,0.2-0.6,0.1-0.7-0.2
		C136.2,31.6,135.2,31.2,134.8,30.5 M104.9,30.6l0.6,1.5c0.5,3.3,0.8,6.9,3.8,8.9l0,0c-1-0.4-1.7-1.2-2.6-1.8
		c-2.8-1.8-6.6-2.6-8.2-6.1c0.4,2.5,2.2,4.8,4.2,6.4c2.5,2.2,6,2,9,2.9c-1.1-0.9-1.8-1.8-2.3-3.1C108.3,36.3,107.3,33.1,104.9,30.6
		 M118.1,31.3l0.2,0.3L118.1,31.3z M118.4,31.6c0,0.3,0.5,0.3,0.3,0.8c-0.7,0.4-1.5,0.1-2.1,0.6c-0.6,0.3-1.1-0.4-1.4-0.3
		c2.9,2.5,6.2,4.1,10.1,4.3l0.2,0.1c-0.2-0.9-0.1-2,0-3C122.8,34.2,120.5,33.1,118.4,31.6 M137.7,33.4c-0.4,0.6-1,1.1-1.7,1.5
		c-2,0.7-2.2,3-4.2,3.7c-0.8,0.3-1.2-0.7-1.9-0.9c-1.1,0.2-2.2,0.5-3.2,0.3v3.3l0.1-0.1c5.1-0.2,9.6-2.2,13.2-5.6
		C139.2,34.9,138.3,34.1,137.7,33.4 M114.5,33.6l-2.2,2.3c3.7,3.3,8.2,5.1,13.2,5.5l-0.1-0.2c0-1-0.1-2,0.1-3l0,0.1
		C121.3,38,117.5,36.5,114.5,33.6 M126.5,34.3l0.2,0.3l0,2.5c0.7-0.3,1.7-0.3,2.4-0.4c-0.4-0.4-1-0.4-1.1-0.9
		c-0.3-0.4,0.1-0.8,0.1-1.1C127.5,34.4,126.8,34.7,126.5,34.3 M143.2,36.6c-2.3,1.5-4.2,4-6.3,5.6c-1.1,0.9-2.5,1.1-3.8,1.5
		c2.9,0.2,5.4,1.6,8.5,1.4c3.3-0.1,6.3-2.1,7.9-5c-2.3,2.7-5.9,2.6-9.3,2.9c-1.1,0.1-2.2,0.5-3.3,0.5c0,0,0.1-0.1,0.1-0.1
		C140.6,43.1,141.7,39.1,143.2,36.6 M109.1,36.9c1.5,1.8,1.6,4.1,3.7,5.6c0.8,0.7,1.9,0.8,2.8,1.2c-1,0.1-1.9-0.3-2.9-0.4
		c-3.4-0.4-7.2,0-9.7-2.7c1.1,2,3.1,3.7,5.2,4.3c3.9,1.5,7.5-0.7,11.2-1C115,43.6,112.6,38.9,109.1,36.9 M137.4,46.1
		c-3.4-1.5-7.2-3.2-11.2-1.8c-2-0.6-4.6-0.6-6.6,0c-3.5,1.6-8.2,3.9-11.8,1.3c0.7,0.8,1.4,1.2,2.2,1.8c2.4,1.5,5.8,1.4,8.2,0.1
		c2.2-0.9,4-3.8,6.8-2.9c-2.4,1.2-4.6,2.7-6.6,4.7l1.2,1c1.8-2.3,4.1-4.3,6.7-5.4c2.5,1.2,4.7,3.3,6.6,5.3l1.2-1
		c-2-1.9-4.2-3.4-6.6-4.6c0.6-0.2,1.4-0.1,2-0.1c2.6,1.1,4.5,3.4,7.4,3.7c3.1,0.5,5.8-0.8,7.7-3l-1.4,0.8
		C141.4,46.8,139.1,46.6,137.4,46.1"/>
	<path class="st0" d="M379.5,15.5c6.5-0.3,12.6-1.2,18.2-2.5V0.3h-18.2V15.5z"/>
	<path class="st0" d="M416.1,14.7c-3.2,1.6-6.8,3-10.6,4.2V33c6-4.4,11-10.1,14.6-16.6v-4C418.9,13.2,417.5,14,416.1,14.7"/>
	<path class="st0" d="M397.7,37.8C397.7,37.8,397.7,37.8,397.7,37.8l0-16.7c-5.7,1.2-11.8,2-18.2,2.3v19.5
		C385.9,42.3,392.1,40.6,397.7,37.8"/>
	<path class="st0" d="M405.5,0.3v10.4c6-2.2,11.1-4.9,14.6-7.9V0.3H405.5z"/>
	<path class="st1" d="M370,0.3h-19v12.5c5.8,1.4,12.2,2.4,19,2.7V0.3z"/>
	<path class="st1" d="M343.1,10.4V0.3h-13.8v2.5c2.1,1.8,4.6,3.4,7.6,4.9C338.8,8.7,340.9,9.6,343.1,10.4"/>
	<path class="st1" d="M370,23.4c-6.7-0.3-13.1-1.1-19-2.5v16.5c5.8,3,12.2,4.9,19,5.5V23.4z"/>
	<path class="st1" d="M343.1,32.4V18.7c-5.2-1.7-9.8-3.8-13.8-6.3v4.1C332.8,22.7,337.5,28.1,343.1,32.4"/>
	<path class="st1" d="M350.9,92.4v-8.9H370v-1.9v-7h-19.1v-8.9H370v-15c-16.2-1.3-30.6-9-40.7-20.6v77.6H370V92.4H350.9z"/>
	<path class="st0" d="M379.5,50.8v15h18.3v8.9h-18.3v7v1.9h18.3v8.9h-18.3v15.4h40.7V30.1C410.1,41.8,395.7,49.5,379.5,50.8"/>
</g>
</svg>
