<?xml version="1.0" encoding="utf-8"?>
<!-- Generator: Adobe Illustrator 25.4.1, SVG Export Plug-In . SVG Version: 6.00 Build 0)  -->
<!DOCTYPE svg PUBLIC "-//W3C//DTD SVG 1.1//EN" "http://www.w3.org/Graphics/SVG/1.1/DTD/svg11.dtd" [
	<!ENTITY ns_extend "http://ns.adobe.com/Extensibility/1.0/">
	<!ENTITY ns_ai "http://ns.adobe.com/AdobeIllustrator/10.0/">
	<!ENTITY ns_graphs "http://ns.adobe.com/Graphs/1.0/">
	<!ENTITY ns_vars "http://ns.adobe.com/Variables/1.0/">
	<!ENTITY ns_imrep "http://ns.adobe.com/ImageReplacement/1.0/">
	<!ENTITY ns_sfw "http://ns.adobe.com/SaveForWeb/1.0/">
	<!ENTITY ns_custom "http://ns.adobe.com/GenericCustomNamespace/1.0/">
	<!ENTITY ns_adobe_xpath "http://ns.adobe.com/XPath/1.0/">
]>
<svg version="1.1" id="Capa_1" xmlns:x="&ns_extend;" xmlns:i="&ns_ai;" xmlns:graph="&ns_graphs;"
	 xmlns="http://www.w3.org/2000/svg" xmlns:xlink="http://www.w3.org/1999/xlink" x="0px" y="0px" viewBox="0 0 289.1 92.9"
	 style="enable-background:new 0 0 289.1 92.9;" xml:space="preserve">
<style type="text/css">
	.st0{fill:#36768D;}
	.st1{fill:#36768E;}
</style>
<metadata>
	<sfw  xmlns="&ns_sfw;">
		<slices></slices>
		<sliceSourceBounds  bottomLeftOrigin="true" height="92.9" width="289.1" x="815.5" y="-587.4"></sliceSourceBounds>
	</sfw>
</metadata>
<g>
	<ellipse class="st0" cx="30.8" cy="87.1" rx="43.5" ry="0.4"/>
	<path class="st1" d="M286.9,58.8c-0.6-0.7-1.4-0.1-2,0.4c-1.3,1-2.5,2.1-3.9,3.1c-4.5,3.3-9.1,6.6-14.7,8c-5.6,1.4-9.3-2.3-7.9-7.9
		c0.7-2.9,1.8-5.6,4.3-7.5c0.4-0.3,0.9-0.7,0.5-1.3c-0.4-0.6-1.1-0.6-1.6-0.2c-0.5,0.4-0.9,0.8-1.4,1.2c-3.6,3.3-7.2,6.5-11.2,9.2
		c-3,2-6.2,3.9-9.9,4.5c-1.7,0.2-3.4,0.1-4.5-1.3c-1.2-1.5-0.8-3.1-0.1-4.7c2.2-5.4,9.9-10.4,15.7-10.4c1.8,0,3.2,0.5,3.8,2.4
		c0.3,0.8,0.8,1.3,1.8,1c1.8-0.5,4.9-4,4.5-5.3c-0.4-1.3-1.5-1.9-2.9-1.9c-2.6,0-5.2,0.5-7.7,1.3c-2,0.6-3.9,1.3-5.7,2.2
		c-3.7,1.7-7.1,3.9-10.1,6.6c-1.8,1.6-3.4,3.3-4.8,5.2c-0.4,0.5-0.7,1.2-1.4,1.5c-5.7,2.2-11.3,4.4-17.5,4.2c-2.6-0.1-4.9-0.9-6.6-3
		c-0.9-1.1-1.1-2,0.2-3.3c3.2-3.1,6.3-6.4,8.5-10.4c0.7-1.2,1.4-2.6,0.3-3.8c-2.3-2.5-7.9,1.5-9.7,3.2c-2.7,2.4-4.4,5.6-4.8,9.2
		c-0.4,3.2-1.7,4.3-4.3,5.3c-5.2,1.9-10.3,4.1-16,4.1c-5.8,0-8.2-3.6-6-8.9c0.8-2.1,2-4,2.9-6.1c0.4-0.8,0.9-1.6,0.2-2.4
		c-0.8-0.8-1.8-0.6-2.7-0.2c-0.6,0.3-1.2,0.7-1.7,1.1c-2.2,1.5-4.4,3.1-6.6,4.6c-2.2,1.5-4.4,3.1-6.6,4.6c-2.2,1.5-4.4,3.1-6.6,4.6
		c-0.5,0.3-0.9,0.7-1.4,1.1c-0.5,0.3-1,0.6-1.6,0.4c4.1-3.9,7.8-8.1,11.2-12.6c0.4-0.5,0.7-1,0.9-1.6c2.2-6.1-6,0.9-7.3,2.1
		c-3.4,3.3-7.2,6.2-11.2,8.8c-2.1,1.4-4.3,2.7-6.8,3.1c-3.6,0.7-6.9,0.3-9.6-2.4c-0.6-0.6-0.9-1.2-1-1.8c0-0.7,0.3-1.4,1-2.1
		c3.1-2.9,5.9-6.1,8.1-9.8c0.7-1.3,1.7-2.7,0.6-4.1c-1.2-1.5-2.8-0.9-4.3-0.4c-6.3,2.1-11,9.1-10.5,15.7c0.1,1,0.2,1.8-0.8,2.5
		c-1.9,1.3-3.7,2.6-5.8,3.4c-3.4,1.3-5.1,0.2-4.8-3.4c0.4-4.6,2-8.8,4.4-12.7c4.2-6.8,8.6-13.4,13-20.1l1.1-1.5h1.6
		c15.3-0.2,30.4,1.7,45.4,4.5c1,0.2,2.1,0.7,2.6-0.7c0.4-1.3,0-2.4-1.4-2.9c-0.6-0.2-1.3-0.4-2-0.5c-7.9-1.3-15.8-1.9-23.7-2.5
		c-6.7-0.5-13.4-0.7-20.6-0.5c4.8-7.3,9.8-13.7,15.3-19.7c1.9-2.1,3.9-4.2,5.4-6.6c0.7-1.1,0.6-1.7-0.6-2.5
		c-2.3-1.5-3.5-0.2-4.8,1.3c-6.5,8.1-13.1,17.5-18.6,26.3l-0.9,1.2l-2.2-0.1c-7.2-0.2-14.4,0.5-21.5,1.1c-1.9,0.2-3.8,0.5-5.6,0.9
		c-1.7,0.4-1.4,1.8-1.2,3c0.2,1.5,1.3,1,2.2,0.7c3.9-1,7.8-1.5,11.8-2c4.9-0.5,9.7-0.8,14.8-1.2c-7.2,14.3-16.7,25.9-30.5,33.5
		c-1.5,0.8-3.1,1.5-4.7,2.1c-5,1.9-10.2,2.5-15.6,1.3c-5.2-1.2-7-4.4-5.3-9.4c1.1-3.3,3-6.2,5.7-8.5c1.5-1.3,2.9-2.7,4.3-4.1
		c0.3-0.3,0.9-0.8,0.4-1.3c-0.4-0.5-1-0.3-1.4-0.1c-1.7,0.7-2.9,2.1-4.2,3.5C62.4,57.7,52.8,63.7,41,65.6
		c-6.4,1.1-12.9,1.8-19.3-0.3c-5.7-1.8-8.1-6.4-6.9-12.2c0.8-3.7,2.6-7,4.9-9.9c6.6-8.3,15.3-13.1,25.5-15.3
		c6.2-1.3,12.2-0.8,17.9,2.2c2.9,1.5,4.6,3.8,5,7.1c0.2,1.2,0.1,2.4,0,3.6c-0.1,0.5-0.2,1.1,0.3,1.4c0.5,0.3,1-0.2,1.4-0.5
		c2.1-1.6,3.7-3.6,4.9-6c2.1-4.3,1-7.7-3.2-10.1c-8.7-4.9-21.3-2.1-30.3,0.9c-9.6,3.2-18.5,8.6-25.8,15.7c-3.8,3.7-6.4,8.2-7.5,13.4
		c-2,9.3,3.1,17,12.1,17.9c2.8,0.3,5.7,0.2,8.6-0.2c6.8-1,13.4-3.2,19.6-6.3c2.8-1.4,5.5-2.9,8.2-4.5c1.3-0.8,2.6-1.7,3.9-2.6
		c0.5-0.4,1-0.6,1.6-0.8c0.1,0,1-0.5,1-0.5c-0.6,2-1.2,3.8-1.7,5.7c-1.1,4.6,0.5,7.4,5,8.6c3.9,1.1,7.9,1,11.9,0.3
		c6.7-1.1,13-3.7,18.7-7.2c1.5-0.9,2.9-1.8,4.3-2.8c0.8-0.6,1.7-1.2,2.4-1.8c0.7-0.6,1.4-1.5,2.3-1.7c0.1,0,0.7,0,0.7,0
		c-1.2,2.2-2.4,4.3-3.1,6.6c-0.6,2.2-1.2,4.5,0.8,6.3c1.9,1.7,4.2,1.3,6.4,0.5c2.9-1,5.4-2.8,7.6-4.8c1.1-1,1.6-1,2.4,0.4
		c1.8,2.9,4.4,4.6,8,4.5c2.8,0,5.3-1,7.7-2.1c2.7-1.3,5.3-2.9,7.8-4.7c1.2-0.9,2.4-1.7,3.6-2.6c0.5-0.4,1-0.7,1.5-1.1
		c0.3-0.2,0.7-0.5,1-0.7c0.3-0.2,0.6-0.5,0.9-0.8c0.3-0.3,0.9-0.8,1.3-0.6c0.4,0.2,0.4,0.8,0.1,1.1c-0.1,0.2-0.3,0.3-0.4,0.4
		c-0.2,0.2-0.3,0.3-0.5,0.5c-0.3,0.3-0.7,0.7-1,1c-0.6,0.6-1.3,1.1-1.8,1.7c0,0,0,0,0,0c-1.6,1.8-3.3,3.5-4.8,5.3
		c-0.6,0.6-1.6,1.5-0.7,2.4c0.7,0.8,1.8,0.4,2.6-0.1c0.7-0.4,1.5-0.9,2.2-1.4c5.3-3.9,10.5-7.9,15.8-11.8c0.9-0.7,2-1.7,3-1.1
		c0.6,0.4,0.4,1.1,0.1,1.6c-0.6,1.3-1,2.8-1.2,4.2c-0.8,4.9,1.6,8.1,6.6,8.5c0.9,0.1,1.9,0.1,2.9,0.1c7.7-0.2,14.8-2.6,21.5-6.1
		c0.6-0.3,1.2-1.2,2.1,0.1c4.1,6.1,6.7,7,13.8,5.4c5-1.1,9.6-3.2,14.4-5.1c0.6,5.5,3,7,8.2,5.3c3.9-1.2,7.5-3.2,11-5.3
		c2.9-1.8,5.7-3.9,8.8-6.4c-0.6,2.2-1.1,3.9-1.5,5.5c-1,4.6,1.9,8.3,6.6,8.5c2.1,0.1,4.1-0.5,6-1.3c5.4-2.3,10.2-5.5,14.8-9
		c1.9-1.4,3.6-3,5.3-4.5C286.6,60,287.5,59.4,286.9,58.8z M126.1,52.1c0.8-0.7,1.9-1.3,2.8-0.6c1,0.8,0.7,2,0.1,3
		c-1.5,2.5-3.5,4.5-5.9,6.8C122.8,57.5,123.5,54.5,126.1,52.1z M204.8,52.4c0.8-0.9,2.1-1.7,3.2-0.9c1.1,0.9,0.6,2.2-0.1,3.3
		c-1.4,2.4-3.4,4.3-5.7,6.6C201.8,57.6,202.5,54.7,204.8,52.4z"/>
	<rect y="86.3" class="st1" width="61.6" height="1.1"/>
	<rect x="227.5" y="86.3" class="st1" width="61.6" height="1.1"/>
	<path class="st1" d="M69.6,81.8h1.7c1.4,0,2.1,0.8,2.1,2.5V85c0,1.6-0.4,2.8-2.2,2.8h-0.7v4.7h-1V81.8z M70.6,86.8h0.6
		c1.1,0,1.2-0.7,1.2-1.8v-0.6c0-0.9-0.2-1.6-1.1-1.6h-0.7V86.8z M80.3,86.6V90c0,1.8-0.7,2.5-1.9,2.5c-1.2,0-1.9-0.8-1.9-2.5v-3.5
		c0-1.6,0.7-2.4,1.9-2.4C79.6,84.2,80.3,85.1,80.3,86.6z M77.5,86.6v3.5c0,0.9,0.3,1.5,0.9,1.5c0.6,0,0.9-0.4,0.9-1.5v-3.5
		c0-0.8-0.2-1.4-0.9-1.4C77.8,85.2,77.5,85.7,77.5,86.6z M83.7,87.1c0-1.3,0-2,0-2.8h1c0,0.2,0,0.7,0,1.3c0.3-1,0.9-1.4,1.5-1.4v1.4
		c-0.9,0-1.5,0.6-1.5,2.1v4.8h-1V87.1z M97.1,90.3c0,1.1,0,1.8,0,2.2h-1c0-0.1,0-0.6,0-0.8c-0.2,0.7-0.7,1-1.3,1
		c-0.6,0-1.4-0.3-1.4-2.1v-6.2h1v5.9c0,1,0.2,1.3,0.8,1.3c0.5,0,0.9-0.3,0.9-1.9v-5.3h1V90.3z M100.7,86.8c0-1.6,0-2.1,0-2.5h1
		c0,0.2,0,0.5,0,0.8c0.2-0.6,0.6-0.9,1.3-0.9c0.8,0,1.4,0.5,1.4,2v6.2h-1v-6c0-0.8-0.2-1.2-0.8-1.2c-0.6,0-1,0.3-1,1.9v5.3h-1V86.8z
		 M111.4,91.1c0,0.6,0,1.2,0,1.4h-0.9c0-0.2-0.1-0.5-0.1-0.7c-0.2,0.6-0.7,0.8-1.2,0.8c-1,0-1.5-1-1.5-2.3v-0.1c0-1.8,1-2.5,2.3-2.5
		c0.1,0,0.2,0,0.3,0v-1.3c0-0.7-0.1-1.2-0.7-1.2c-0.6,0-0.7,0.5-0.7,1.1v0.2h-1v-0.2c0-1.1,0.4-2.1,1.8-2.1c1.3,0,1.7,0.9,1.7,2.1
		V91.1z M110.4,88.6c-0.1,0-0.3,0-0.4,0c-0.8,0-1.3,0.4-1.3,1.6v0.1c0,0.7,0.2,1.3,0.8,1.3c0.7,0,0.9-0.6,0.9-1.8V88.6z M122.8,81.3
		v9c0,1,0,1.6,0,2.1h-1c0-0.2,0-0.6,0-0.8c-0.2,0.5-0.5,0.9-1.3,0.9c-1.2,0-1.5-1.1-1.5-2.6v-3.3c0-1.4,0.5-2.4,1.6-2.4
		c0.6,0,1,0.3,1.1,0.6v-3.5H122.8z M120.1,86.7V90c0,1,0.2,1.6,0.8,1.6c0.8,0,0.9-0.8,0.9-1.9V87c0-0.9-0.1-1.7-0.9-1.7
		C120.3,85.3,120.1,85.8,120.1,86.7z M127.2,88.6V90c0,0.8,0.1,1.6,0.9,1.6c0.7,0,0.8-0.6,0.8-1.4v-0.1h1v0.1c0,0.9-0.2,2.4-1.8,2.4
		c-1.5,0-1.9-1.1-1.9-2.8v-3c0-1.2,0.4-2.6,1.9-2.6c1.4,0,1.8,1.2,1.8,2.6c0,0.4,0,1.4,0,1.8H127.2z M128.9,87.7v-1
		c0-0.8-0.1-1.5-0.8-1.5c-0.7,0-0.9,0.6-0.9,1.5v1H128.9z M133.3,86.7c0-1.5,0-1.9,0-2.3h1c0,0.2,0,0.5,0,0.8
		c0.2-0.5,0.6-0.9,1.2-0.9c0.6,0,1,0.3,1.1,0.9c0.2-0.5,0.6-0.9,1.3-0.9c0.7,0,1.4,0.4,1.4,1.9v6.3h-1v-6.1c0-0.6-0.1-1.1-0.7-1.1
		c-0.7,0-0.8,0.7-0.8,1.6v5.7h-1v-6c0-0.9-0.2-1.2-0.7-1.2c-0.7,0-0.8,0.7-0.8,1.6v5.6h-1V86.7z M146.5,86.6V90
		c0,1.8-0.7,2.5-1.9,2.5c-1.2,0-1.9-0.8-1.9-2.5v-3.5c0-1.6,0.7-2.4,1.9-2.4C145.9,84.2,146.5,85.1,146.5,86.6z M143.8,86.6v3.5
		c0,0.9,0.3,1.5,0.9,1.5c0.6,0,0.9-0.4,0.9-1.5v-3.5c0-0.8-0.2-1.4-0.9-1.4C144,85.2,143.8,85.7,143.8,86.6z M153.3,89.9V90
		c0,1.4-0.3,2.6-1.8,2.6c-1.4,0-1.8-1.1-1.8-2.7v-3.2c0-1.4,0.4-2.5,1.8-2.5c1.5,0,1.7,1.2,1.7,2.3v0.3h-1v-0.3
		c0-0.7-0.1-1.4-0.8-1.4c-0.6,0-0.8,0.5-0.8,1.4v3.5c0,0.7,0.1,1.5,0.8,1.5c0.6,0,0.8-0.4,0.8-1.5v-0.3H153.3z M156.6,87.1
		c0-1.3,0-2,0-2.8h1c0,0.2,0,0.7,0,1.3c0.3-1,0.9-1.4,1.5-1.4v1.4c-0.9,0-1.5,0.6-1.5,2.1v4.8h-1V87.1z M165.4,91.1
		c0,0.6,0,1.2,0,1.4h-0.9c0-0.2-0.1-0.5-0.1-0.7c-0.2,0.6-0.7,0.8-1.2,0.8c-1,0-1.5-1-1.5-2.3v-0.1c0-1.8,1-2.5,2.3-2.5
		c0.1,0,0.2,0,0.3,0v-1.3c0-0.7-0.1-1.2-0.7-1.2c-0.6,0-0.7,0.5-0.7,1.1v0.2h-1v-0.2c0-1.1,0.4-2.1,1.8-2.1c1.3,0,1.7,0.9,1.7,2.1
		V91.1z M164.4,88.6c-0.1,0-0.3,0-0.4,0c-0.8,0-1.3,0.4-1.3,1.6v0.1c0,0.7,0.2,1.3,0.8,1.3c0.7,0,0.9-0.6,0.9-1.8V88.6z M172.4,89.9
		V90c0,1.4-0.3,2.6-1.8,2.6c-1.4,0-1.8-1.1-1.8-2.7v-3.2c0-1.4,0.4-2.5,1.8-2.5c1.5,0,1.7,1.2,1.7,2.3v0.3h-1v-0.3
		c0-0.7-0.1-1.4-0.8-1.4c-0.6,0-0.8,0.5-0.8,1.4v3.5c0,0.7,0.1,1.5,0.8,1.5c0.6,0,0.8-0.4,0.8-1.5v-0.3H172.4z M175.7,84.3h1v8.1h-1
		V84.3z M175.7,81.3h1V83h-1V81.3z M183.6,91.1c0,0.6,0,1.2,0,1.4h-0.9c0-0.2-0.1-0.5-0.1-0.7c-0.2,0.6-0.7,0.8-1.2,0.8
		c-1,0-1.5-1-1.5-2.3v-0.1c0-1.8,1-2.5,2.3-2.5c0.1,0,0.2,0,0.3,0v-1.3c0-0.7-0.1-1.2-0.7-1.2c-0.6,0-0.7,0.5-0.7,1.1v0.2h-1v-0.2
		c0-1.1,0.4-2.1,1.8-2.1c1.3,0,1.7,0.9,1.7,2.1V91.1z M182.6,88.6c-0.1,0-0.3,0-0.4,0c-0.8,0-1.3,0.4-1.3,1.6v0.1
		c0,0.7,0.2,1.3,0.8,1.3c0.7,0,0.9-0.6,0.9-1.8V88.6z M194.9,83.1h-2.3c-0.1,0.9-0.1,2.3-0.2,3.1c0.2-0.3,0.6-0.6,1.2-0.6
		c1.2,0,1.6,1,1.6,2.7v1.2c0,1.7-0.4,3-2,3c-1.5,0-2-1.1-2-2.5v-0.2h1v0.3c0,0.7,0.2,1.4,0.9,1.4c0.8,0,1-0.8,1-1.9v-1.3
		c0-1.1-0.2-1.8-0.9-1.8c-0.6,0-0.8,0.4-1,1.1l-0.9-0.1c0.1-1.4,0.3-4.4,0.4-5.5h3.3L194.9,83.1z M202.3,84.6v5.3
		c0,1.8-0.6,2.7-2,2.7c-1.3,0-1.9-0.9-1.9-2.7v-5.3c0-2,0.8-2.7,2-2.7C201.5,82,202.3,82.7,202.3,84.6z M199.4,84.6V90
		c0,1,0.3,1.5,1,1.5c0.6,0,0.9-0.4,0.9-1.6v-5.4c0-1.1-0.4-1.5-0.9-1.5C199.8,83,199.4,83.4,199.4,84.6z M205.4,92.9l2.1-11.1h0.8
		l-2.1,11.1H205.4z M215,83.1h-2.3c-0.1,0.9-0.1,2.3-0.2,3.1c0.2-0.3,0.6-0.6,1.2-0.6c1.2,0,1.6,1,1.6,2.7v1.2c0,1.7-0.4,3-2,3
		c-1.5,0-2-1.1-2-2.5v-0.2h1v0.3c0,0.7,0.2,1.4,0.9,1.4c0.8,0,1-0.8,1-1.9v-1.3c0-1.1-0.2-1.8-0.9-1.8c-0.6,0-0.8,0.4-1,1.1
		l-0.9-0.1c0.1-1.4,0.3-4.4,0.4-5.5h3.3L215,83.1z M222.5,84.6v5.3c0,1.8-0.6,2.7-2,2.7c-1.3,0-1.9-0.9-1.9-2.7v-5.3
		c0-2,0.8-2.7,2-2.7C221.7,82,222.5,82.7,222.5,84.6z M219.6,84.6V90c0,1,0.3,1.5,1,1.5c0.6,0,0.9-0.4,0.9-1.6v-5.4
		c0-1.1-0.4-1.5-0.9-1.5C220,83,219.6,83.4,219.6,84.6z"/>
</g>
</svg>
