<?xml version="1.0" encoding="utf-8"?>
<!-- Generator: Adobe Illustrator 25.4.1, SVG Export Plug-In . SVG Version: 6.00 Build 0)  -->
<!DOCTYPE svg PUBLIC "-//W3C//DTD SVG 1.1//EN" "http://www.w3.org/Graphics/SVG/1.1/DTD/svg11.dtd" [
	<!ENTITY ns_extend "http://ns.adobe.com/Extensibility/1.0/">
	<!ENTITY ns_ai "http://ns.adobe.com/AdobeIllustrator/10.0/">
	<!ENTITY ns_graphs "http://ns.adobe.com/Graphs/1.0/">
	<!ENTITY ns_vars "http://ns.adobe.com/Variables/1.0/">
	<!ENTITY ns_imrep "http://ns.adobe.com/ImageReplacement/1.0/">
	<!ENTITY ns_sfw "http://ns.adobe.com/SaveForWeb/1.0/">
	<!ENTITY ns_custom "http://ns.adobe.com/GenericCustomNamespace/1.0/">
	<!ENTITY ns_adobe_xpath "http://ns.adobe.com/XPath/1.0/">
]>
<svg version="1.1" id="Capa_1" xmlns:x="&ns_extend;" xmlns:i="&ns_ai;" xmlns:graph="&ns_graphs;"
	 xmlns="http://www.w3.org/2000/svg" xmlns:xlink="http://www.w3.org/1999/xlink" x="0px" y="0px" viewBox="0 0 327.2 77"
	 style="enable-background:new 0 0 327.2 77;" xml:space="preserve">
<style type="text/css">
	.st0{fill:#67B7E6;}
	.st1{fill:#009DDC;}
</style>
<metadata>
	<sfw  xmlns="&ns_sfw;">
		<slices></slices>
		<sliceSourceBounds  bottomLeftOrigin="true" height="77" width="327.2" x="796.5" y="-578.9"></sliceSourceBounds>
	</sfw>
</metadata>
<g>
	<g>
		<path class="st0" d="M291.6,52.9c0,2.2,0,4.4,0,6.7c-1.5,0-3,0-4.5,0c-1.5,0-3,0-4.4,0c-1.5,0-3,0-4.5,0c0,1.9,0,3.7,0,5.6
			c0.3,0,0.6,0,0.8,0c3.9,0,7.8,0,11.7,0c0.3,0,0.6,0,0.9,0.1c0,3.8,0,7.5,0,11.2c-9.9,0-19.7,0-29.7,0c0-0.3,0-0.6,0-0.9
			c0-12.3,0-24.6,0-37c0-5.3,0-10.7,0-16c0-0.2,0-0.3,0-0.5c0-0.2,0-0.5,0.2-0.6c0.2-0.1,0.3,0.2,0.5,0.3c0.2,0.2,0.4,0.5,0.6,0.7
			c0.8,0.9,1.7,1.8,2.6,2.6c1,0.9,2,1.7,3,2.5c0.6,0.5,1.4,0.9,2,1.4c0.5,0.5,1.1,0.7,1.7,1.1c0.6,0.4,1.1,0.7,1.7,1
			c1.3,0.7,2.5,1.3,3.8,1.9c0.6,0.3,1.3,0.5,2,0.7c0.9,0.3,1.8,0.6,2.7,0.9c0.3,0.1,0.5,0.2,0.8,0.2c0.8,0.1,1.6,0.5,2.5,0.5
			c0.5,0.4,1.1,0.1,1.6,0.5c0,0,0.1,0,0.1,0c0.8,0.1,1.6,0.1,2.4,0.2c0.6,0.1,1.1,0.2,1.7,0.3c0,3.6,0,7.2,0,10.8
			c-0.3,0-0.6,0.1-0.9,0.1c-3.9,0-7.8,0-11.7,0c-0.3,0-0.6,0-0.8,0c-0.2,0.5-0.2,4.9,0,5.6c0.3,0,0.5,0,0.8,0c3.9,0,7.8,0,11.8,0
			C291,52.8,291.3,52.8,291.6,52.9z"/>
		<path class="st1" d="M327.1,76.4c-9.9,0-19.8,0-29.6,0c0-0.3,0-0.5,0-0.7c0-3.3,0-6.5,0-9.8c0-0.1,0-0.3,0-0.4
			c0-0.3,0.1-0.4,0.4-0.4c0.2,0,0.4,0,0.6,0c3.9,0,7.7,0,11.6,0c0.3,0,0.5,0,0.7,0c0.2-0.6,0.2-4.9,0-5.6c-0.2,0-0.5,0-0.7,0
			c-3.9,0-7.7,0-11.6,0c-0.1,0-0.2,0-0.3,0c-0.8,0-0.8,0-0.8-0.8c0-1.7,0-3.5,0-5.2c0-0.7,0-0.8,0.8-0.8c3.9,0,7.9,0,11.8,0
			c0.3,0,0.5,0,0.8,0c0.2-0.6,0.2-4.9,0-5.6c-0.2,0-0.5,0-0.7,0c-3.9,0-7.8,0-11.8,0c-0.3,0-0.6,0-0.9-0.1c0-3.6,0-7.2,0-10.7
			c0.6-0.2,1.2-0.4,1.9-0.4c0.7,0,1.5-0.1,2.2-0.2c0.5-0.1,1.1-0.3,1.6-0.5c0.4-0.1,0.9-0.1,1.3-0.2c0.8-0.2,1.5-0.4,2.3-0.6
			c0.3-0.1,0.6-0.1,0.9-0.2c0.8-0.3,1.6-0.6,2.4-0.9c0.7-0.2,1.4-0.5,2-0.7c0.6-0.2,1.1-0.6,1.7-0.9c1.1-0.6,2.3-1.2,3.4-1.9
			c0.9-0.5,1.7-1.1,2.5-1.7c0.6-0.4,1.1-0.8,1.7-1.2c1.7-1.3,3.1-2.8,4.6-4.3c0.3-0.3,0.7-0.7,1.1-1c0.1,0.2,0.1,0.3,0.1,0.4
			c0,0.2,0,0.4,0,0.6c0,17.6,0,35.3,0,52.9C327.1,75.7,327.1,76.1,327.1,76.4z"/>
		<path class="st1" d="M25.9,76c0-6.9,0-13.8-0.1-20.7c0,0-0.1-0.1-0.2-0.1c-0.3,0.3-0.6,0.6-0.8,1c-0.6,1.1-1.4,2.1-2.1,3.2
			c-0.4,0.5-0.8,1-1.1,1.6c-0.6,1.1-1.4,2.1-2,3.2c-0.7,1-1.3,2-1.9,3c-0.3,0.5-0.6,1-1,1.4c-0.2,0.3-0.5,0.3-0.7,0
			c-0.3-0.5-0.6-1.1-1-1.6c-0.4-0.5-0.8-1.1-1.1-1.6c-1-1.5-1.9-2.9-2.8-4.4c-0.4-0.7-0.8-1.4-1.3-2c-0.9-1.1-1.5-2.3-2.3-3.4
			c0,0-0.1,0-0.2,0c0,0.2-0.1,0.4-0.1,0.6c0,0.8,0,1.7,0,2.5c0,5.5,0,11.1,0,16.6c0,0.9,0,0.9-0.8,0.9c-1.9,0-3.7,0-5.6,0
			c-0.3,0-0.5,0-0.8-0.1C0,65,0,54.1,0,43.2c0.2,0,0.4,0,0.6,0c2.2,0,4.5,0,6.7,0c0.4,0,0.7,0.1,0.9,0.5c0.3,0.7,0.8,1.4,1.3,2
			c0.6,0.9,1.1,1.8,1.7,2.7c0.4,0.7,0.9,1.4,1.3,2.1c0.5,0.7,1,1.5,1.4,2.2c0.6,1,1.3,2,1.9,3.1c0.1,0.3,0.3,0.5,0.5,0.7
			c0.1,0.2,0.3,0.2,0.5,0c0.4-0.6,0.8-1.2,1.1-1.8c0.5-0.8,1-1.7,1.6-2.5c0.4-0.6,0.7-1.2,1.1-1.8c0.5-0.8,1-1.6,1.6-2.5
			c0.5-0.9,1-1.8,1.6-2.6c0.3-0.5,0.6-1,0.9-1.4c0,0,0,0,0,0c0.2-0.7,0.7-0.7,1.3-0.7c2.1,0,4.2,0,6.4,0c0.2,0,0.5,0,0.7,0
			c0.2,0.3,0.2,0.6,0.2,0.9c0,6.7,0,13.5,0,20.2c0,3.6,0,7.1,0,10.7c0,0.1,0,0.3,0,0.4c0,0.6-0.1,0.6-0.7,0.6c-2,0-3.9,0-5.9,0
			C26.4,76.1,26.2,76,25.9,76z"/>
		<path class="st1" d="M214.5,36.8c-0.2,0-0.4,0-0.6,0c-1.7,0-3.4,0-5.1,0c-0.4,0-0.7-0.1-1-0.5c-0.6-0.9-1.3-1.7-1.9-2.6
			c-0.6-0.7-1.2-1.5-1.7-2.2c-0.4-0.5-0.8-1-1.2-1.5c-0.1-0.1-0.2-0.3-0.3-0.4c-0.4-0.5-0.8-1-1.2-1.6c-0.4-0.5-0.7-1-1.1-1.5
			c-0.4-0.6-0.9-1.2-1.3-1.8c-0.4-0.5-0.8-0.9-1.2-1.4c-0.3-0.4-0.6-0.8-0.9-1.2c-0.1-0.1-0.1-0.2-0.2-0.3c-0.5-0.6-0.9-1.2-1.4-1.8
			c-0.2-0.3-0.5-0.6-0.7-1c-0.6-0.8-1.3-1.6-1.9-2.4c-0.1-0.1-0.2-0.1-0.4-0.3c0,0.4,0,0.6,0,0.8c0,6.2,0,12.4,0,18.6
			c0,0.3,0,0.6,0,0.9c-2.4,0-4.7,0-7.1,0c-0.1-0.5-0.2-31.6-0.1-33c0.1,0,0.3-0.1,0.5-0.1c1.9,0,3.9,0,5.8,0c0.3,0,0.5,0.1,0.7,0.4
			c0.6,0.8,1.2,1.5,1.8,2.3c0.6,0.8,1.2,1.7,1.8,2.5c0.4,0.5,0.8,0.9,1.1,1.4c0.8,1.1,1.7,2.3,2.5,3.4c0.6,0.8,1.3,1.6,1.9,2.4
			c0.4,0.5,0.7,1,1,1.5c0.4,0.5,0.8,1,1.2,1.5c0.4,0.5,0.7,1,1.1,1.5c0.4,0.5,0.8,1,1.2,1.5c0.4,0.5,0.7,0.9,1.1,1.4
			c0,0.1,0.1,0.1,0.3,0.3c0.1-0.8,0-1.6,0-2.3c0-0.7,0-1.5,0-2.2c0-0.7,0-1.5,0-2.2c0-0.7,0-1.5,0-2.2c0-0.7,0-1.5,0-2.2
			c0-0.7,0-1.5,0-2.2c0-0.7,0-1.5,0-2.2c0-0.7,0-1.5,0-2.2c0-0.7,0-1.4,0-2.2c0.5-0.1,6.5-0.2,7.2,0
			C214.5,14.8,214.5,25.7,214.5,36.8z"/>
		<path class="st1" d="M164.1,37.3c-0.6,0-1.2,0-1.7,0c-0.4,0-0.8,0.1-1.1-0.2c0,0-0.1,0-0.2,0c-0.8,0-1.6-0.3-2.4-0.5
			c-1.3-0.4-2.6-0.9-3.7-1.7c-0.7-0.4-1.4-0.8-2-1.3c-0.7-0.6-1.4-1.1-2-1.9c-0.1-0.1-0.2-0.2-0.3-0.3c-0.7-0.8-1.2-1.6-1.8-2.4
			c-0.6-0.9-1.1-1.9-1.4-2.9c-0.4-1-0.8-2.1-0.8-3.2c0-0.2-0.1-0.5-0.2-0.7c0-0.2-0.1-0.3-0.1-0.5c0-0.9,0-1.8,0-2.8
			c0-0.2,0.1-0.4,0.2-0.7c0-0.1,0.1-0.3,0.1-0.4c0-0.9,0.3-1.8,0.6-2.6c0.3-1,0.8-1.9,1.2-2.9c0.5-1,1.1-1.9,1.8-2.7
			c0.3-0.4,0.6-0.8,0.9-1.1c0.7-0.6,1.5-1.1,2.1-1.8c0.8-0.7,1.7-1.2,2.7-1.7c0.6-0.3,1.3-0.5,1.9-0.8c0.7-0.3,1.5-0.3,2.1-0.6
			c0.1-0.1,0.3,0,0.4,0c0.2-0.1,0.5-0.1,0.7-0.2c0.2,0,0.4-0.1,0.6-0.1c0.7,0,1.4,0.1,2-0.2c0.2-0.1,0.4-0.1,0.5,0
			c0.7,0.2,1.4,0.1,2,0.2c0.2,0,0.4,0.1,0.6,0.2c0.1,0,0.2,0.1,0.3,0.1c0.7,0,1.4,0.2,2,0.4c1.4,0.4,2.7,1,4,1.7
			c0.6,0.3,1.2,0.8,1.7,1.2c1,0.6,1.8,1.5,2.5,2.4c0.9,1,1.6,2.1,2.2,3.3c0.3,0.7,0.7,1.3,0.9,2c0.3,0.9,0.5,1.9,0.7,2.8
			c0.4,1.6,0.1,3.1,0.2,4.7c0,0.3-0.1,0.7-0.2,1c-0.1,0.4-0.2,0.8-0.3,1.2c-0.4,2.2-1.4,4.1-2.6,5.9c-0.9,1.3-2.1,2.5-3.4,3.5
			c-1.3,1-2.7,1.8-4.2,2.5c-0.8,0.3-1.7,0.7-2.6,0.8c-0.5,0.4-1.3,0.1-1.8,0.5c-0.1,0.1-0.3,0-0.5,0
			C165.5,37.3,164.8,37.3,164.1,37.3C164.1,37.3,164.1,37.3,164.1,37.3z M174,20.2c-0.1-0.6,0.1-1.4-0.2-2.2
			c-0.3-0.8-0.5-1.7-0.9-2.4c-0.4-0.8-1-1.6-1.6-2.3c-1.1-1.2-2.4-2.1-4-2.6c-0.9-0.3-1.9-0.5-2.9-0.5c-1,0-2,0.1-3,0.4
			c-0.9,0.2-1.7,0.6-2.4,1.1c-1.1,0.7-2.1,1.6-2.8,2.6c-0.5,0.7-1,1.4-1.3,2.2c-0.2,0.7-0.5,1.4-0.5,2.2c0,0.1-0.1,0.2-0.1,0.3
			c-0.1,0.2-0.2,0.4-0.2,0.7c0,0.8,0,1.5,0.2,2.3c0.2,0.7,0.3,1.4,0.5,2.1c0.4,1.3,1.2,2.4,2.2,3.4c0.6,0.6,1.1,1.2,1.8,1.6
			c0.6,0.3,1.1,0.7,1.8,0.9c0.7,0.2,1.4,0.6,2.2,0.5c0,0,0.1,0,0.1,0c1.1,0.3,2.3,0.1,3.4-0.1c0.7-0.1,1.4-0.5,2.1-0.8
			c0.9-0.4,1.7-1,2.4-1.6c0.6-0.5,1.1-1.2,1.6-1.8c0,0,0-0.1,0.1-0.1c0.4-0.9,0.9-1.7,1.2-2.7c0.2-0.6,0.5-1.3,0.4-2
			C174,21,174,20.6,174,20.2z"/>
		<path class="st1" d="M191.5,76c-0.4,0-0.6,0.1-0.8,0.1c-2.4,0-4.8,0-7.1,0c-0.5,0-0.8-0.2-1.1-0.6c-0.3-0.4-0.5-0.9-0.8-1.2
			c-0.4-0.4-0.7-1-1-1.5c-0.3-0.5-0.7-1.1-1-1.6c-0.3-0.4-0.5-0.9-0.9-1.3c-0.4-0.5-0.7-1-1.1-1.5c-0.5-0.7-1-1.5-1.5-2.2
			c-0.1-0.2-0.3-0.3-0.6-0.3c-1.6,0-3.2,0-4.8,0c-0.1,0-0.2,0-0.3,0.1c0,0.2,0,0.5,0,0.7c0,2.9,0,5.8,0,8.7c0,0.3,0,0.5,0,0.8
			c-0.3,0-0.6,0.1-0.8,0.1c-2,0-3.9,0-5.9,0c-0.7,0-0.8,0-0.8-0.8c0-3.5,0-6.9,0-10.4c0-6.9,0-13.9,0-20.8c0-0.3,0-0.6,0.1-1
			c0.3,0,0.5,0,0.7,0c5.2,0,10.4,0,15.7,0c0.7,0,1.5,0,2.2,0.2c1.5,0.4,3,0.7,4.3,1.6c0.8,0.5,1.6,1.1,2.2,1.9
			c0.6,0.8,1.1,1.7,1.5,2.5c0.3,0.7,0.5,1.5,0.6,2.2c0,0.1,0,0.2,0,0.3c0.4,1.2,0.2,2.5,0.2,3.7c0,0.6-0.3,1.2-0.4,1.8
			c-0.1,1-0.6,1.9-1.1,2.8c-0.5,0.9-1.1,1.6-1.9,2.2c-0.7,0.5-1.3,1-2.1,1.3c-0.3,0.1-0.6,0.2-0.9,0.4c-0.4,0.2-0.4,0.4-0.2,0.7
			c0.5,0.8,1.1,1.6,1.6,2.3c0.9,1.3,1.8,2.7,2.7,4c0.6,0.9,1.2,1.7,1.8,2.6C190.5,74.4,191,75.2,191.5,76z M170.5,49.7
			c0,0.9,0,1.7,0,2.5c0,0.8,0,1.5,0,2.3c0,0.8,0,1.6,0,2.4c0,0.8,0,1.6,0,2.4c0.3,0,0.6,0,0.9,0c2.1,0,4.3,0,6.4,0
			c0.7,0,1.4-0.2,2-0.3c0.9-0.2,1.7-0.7,2.3-1.5c0.2-0.2,0.4-0.5,0.5-0.7c0.4-0.9,0.6-1.8,0.5-2.7c-0.1-0.8-0.3-1.6-0.8-2.2
			c-0.8-1.1-1.9-1.7-3.3-1.8c-0.1,0-0.2,0-0.2-0.1c-0.3-0.2-0.6-0.2-1-0.2c-2.2,0-4.4,0-6.5,0C171.1,49.7,170.8,49.7,170.5,49.7z"/>
		<path class="st1" d="M132.6,75.9c0-10.9,0-21.8,0-32.7c8.4,0,16.7,0,25,0c0.1,0.5,0.2,5.4,0.1,6.4c-0.3,0-0.5,0-0.8,0
			c-5.3,0-10.6,0-15.9,0c-0.3,0-0.5,0-0.8,0c-0.1,0.6-0.2,5.7,0,6.5c0.3,0,0.6,0,0.9,0c4.5,0,8.9,0,13.4,0c0.3,0,0.6,0,0.9,0.1
			c0.1,0.6,0.2,5.8,0,6.5c-5,0-10.1,0-15.1,0c-0.2,0.5-0.2,5.9-0.1,6.8c0.3,0,0.6,0,0.9,0c5.2,0,10.4,0,15.6,0c1.1,0,1.1,0,1.1,1
			c0,1.6,0,3.1,0,4.7c0,0.2,0,0.5,0,0.7C157,76.1,133.2,76.1,132.6,75.9z"/>
		<path class="st1" d="M195.5,43.2c8.4,0,16.7,0,24.9,0c0.2,0.6,0.2,5.8,0,6.5c-5.8,0-11.6,0-17.4,0c-0.2,0.5-0.2,5.6-0.1,6.5
			c0.3,0,0.6,0,0.9,0c4.4,0,8.9,0,13.3,0c0.3,0,0.6,0,0.9,0.1c0.2,0.6,0.2,5.8,0,6.5c-5,0-10.1,0-15.1,0c-0.2,0.6-0.2,5.9,0,6.7
			c0.3,0,0.5,0,0.8,0c5.2,0,10.4,0,15.7,0c1.2,0,1.1,0,1.1,1.2c0,1.5,0,3.1,0,4.6c0,0.7,0,0.8-0.8,0.8c-7.9,0-15.7,0-23.6,0
			c-0.8,0-0.8,0-0.8-0.8c0-4.7,0-9.5,0-14.2c0-5.6,0-11.2,0-16.7C195.4,43.9,195.4,43.6,195.5,43.2z"/>
		<path class="st1" d="M99.3,43.2c2.5,0,4.9,0,7.4,0c0.1,2.2,0,4.3,0,6.5c0,2.1,0,4.3,0,6.4c4.3,0,8.4,0,12.7,0c0-2.2,0-4.3,0-6.5
			c0-2.1,0-4.3,0-6.4c2.5,0,4.8,0,7.1,0c0.1,0.5,0.2,32,0,32.8c-0.2,0-0.4,0.1-0.6,0.1c-1.9,0-3.9,0-5.8,0c-0.7,0-0.7,0-0.7-0.7
			c0-3.9,0-7.8,0-11.7c0-0.3,0-0.5,0-0.9c-4.3,0-8.4,0-12.7,0c0,0.3-0.1,0.5-0.1,0.8c0,3.8,0,7.7,0,11.5c0,1,0,1-0.9,1
			c-1.9,0-3.8,0-5.7,0c-0.3,0-0.5,0-0.8-0.1C99.3,65.1,99.3,54.2,99.3,43.2z"/>
		<path class="st1" d="M219.2,3.8c2.4,0,4.8,0,7.2,0c0,0.3,0.1,0.6,0.1,0.9c0,5.9,0,11.9,0,17.8c0,0.4,0,0.8,0.2,1.2
			c0.1,0.2,0.1,0.4,0.1,0.6c0,0.7,0.2,1.4,0.4,2.1c0.3,1,0.8,1.9,1.6,2.6c0.9,0.9,2.1,1.4,3.4,1.6c0.6,0.1,1.3,0.3,1.9,0.2
			c0.2,0,0.4-0.1,0.6-0.1c0.3,0,0.5-0.1,0.8-0.2c0.8-0.1,1.5-0.4,2.2-0.8c0.4-0.2,0.7-0.5,1-0.8c0.6-0.7,1.1-1.4,1.4-2.3
			c0.2-0.7,0.3-1.4,0.5-2.1c0.3-1.1,0.2-2.2,0.2-3.4c0-5.5,0-11,0-16.4c0-0.3,0-0.6,0-0.9c0.3,0,0.5,0,0.7,0c2,0,4,0,6,0
			c0.7,0,0.8,0,0.8,0.8c0,2.4,0,4.9,0,7.3c0,3.4,0,6.8,0,10.2c0,1.2,0,2.5-0.2,3.7c-0.1,0.9-0.2,1.9-0.7,2.8c-0.3,1.5-1.1,2.8-1.9,4
			c-0.1,0.2-0.3,0.4-0.5,0.6c-0.4,0.5-0.9,0.9-1.4,1.3c-0.8,0.7-1.7,1.4-2.8,1.7c-0.7,0.3-1.4,0.7-2.2,0.8c-0.6,0.1-1.1,0.5-1.8,0.3
			c-1.7,0.4-3.5,0.1-5.2,0.2c-0.4,0-0.7-0.1-1.1-0.2c-0.1,0-0.1,0-0.2,0c-0.8,0-1.5-0.3-2.3-0.5c-0.6-0.2-1.2-0.4-1.8-0.6
			c-0.8-0.4-1.5-0.8-2.2-1.3c-1-0.7-1.7-1.5-2.4-2.4c-0.6-0.8-1.1-1.7-1.4-2.7c-0.2-0.6-0.4-1.1-0.6-1.7c-0.1-0.3-0.2-0.6-0.2-0.9
			c-0.1-0.7-0.3-1.4-0.3-2.2c0-6.8,0-13.7,0-20.5C219.2,4.2,219.2,4.1,219.2,3.8z"/>
		<path class="st1" d="M38.1,43.2c2.4,0,4.7,0,7.2,0c0,0.3,0,0.5,0,0.8c0,5.8,0,11.7,0,17.5c0,0.4-0.1,0.8,0.2,1.1
			c0.1,0.1,0.1,0.3,0.1,0.5c-0.1,1.5,0.4,2.9,1.2,4.2c0.8,1.2,1.9,2,3.3,2.5c0.7,0.2,1.5,0.1,2.2,0.4c0.2,0.1,0.5,0,0.8,0
			c0.2,0,0.4-0.1,0.6-0.1c1,0,1.8-0.4,2.6-0.8c0.6-0.3,1.2-0.8,1.6-1.3c0.5-0.7,1-1.6,1.2-2.5c0.1-0.7,0.3-1.3,0.5-1.9
			c0-0.2,0-0.4,0-0.6c0-6.2,0-12.4,0-18.7c0-0.3,0-0.6,0.1-0.9c2.5,0,4.8,0,7.3,0c0,0.3,0.1,0.5,0.1,0.7c0,6.1,0,12.2,0,18.2
			c0,1,0,2.1-0.2,3.1c-0.2,1.1-0.3,2.2-0.7,3.2c-0.4,1-0.8,1.9-1.3,2.8c-0.5,1-1.3,1.8-2.1,2.5c-0.7,0.7-1.6,1.2-2.5,1.6
			c-0.8,0.4-1.7,0.8-2.6,1c-0.7,0.1-1.4,0.3-2,0.4c-1.6,0.3-3.1,0.1-4.7,0.2c-0.4,0-0.8-0.1-1.1-0.1c-0.2,0-0.5,0-0.7-0.1
			c-0.2,0-0.5-0.1-0.7-0.2c-0.3-0.1-0.6,0-0.9-0.1c-1-0.4-2.1-0.6-3.1-1.2c-0.5-0.3-1.1-0.6-1.6-1.1c-0.4-0.5-1-0.8-1.4-1.2
			c-0.9-1.1-1.8-2.3-2.3-3.8c-0.3-0.8-0.5-1.6-0.7-2.3c-0.3-1-0.4-2-0.4-3.1c0-6.5,0-13.1,0-19.6C38,43.8,38.1,43.5,38.1,43.2z"/>
		<path class="st1" d="M249.3,46.9c-0.8,1.2-1.7,2.5-2.5,3.7c-0.3,0.5-0.7,1-1.1,1.5c-0.2,0.2-0.3,0.3-0.6,0.1
			c-0.6-0.6-1.3-1-2.1-1.3c-1-0.4-1.9-0.8-2.9-1.2c-0.1,0-0.3,0-0.4,0c-1.3-0.4-2.6-0.5-3.9-0.4c-0.1,0-0.2,0-0.3,0
			c-1.2,0-2,0.6-2.6,1.5c-0.5,0.8-0.5,1.8,0,2.7c0.2,0.4,0.6,0.7,1,0.9c0.6,0.3,1.2,0.7,1.9,0.9c0.8,0.2,1.5,0.5,2.3,0.8
			c0.3,0.1,0.6,0.1,0.9,0.2c0.5,0.1,1,0.3,1.5,0.5c0.3,0.1,0.7,0.2,1,0.3c1.3,0.4,2.6,0.8,3.7,1.5c1,0.6,2,1.1,2.8,2
			c0.8,0.9,1.4,1.9,1.8,3.1c0.5,1.5,0.5,3.1,0.4,4.7c-0.1,1-0.4,2.1-0.9,3c-0.1,0.3-0.3,0.5-0.5,0.7c-0.6,0.8-1.2,1.6-2,2.2
			c-1.1,0.9-2.4,1.5-3.7,1.9c-0.8,0.3-1.6,0.5-2.5,0.6c-0.1,0-0.1,0-0.2,0c-0.8,0.4-1.7,0.2-2.5,0.2c-0.6,0-1.2,0-1.7,0
			c-0.4,0-0.7,0.1-1-0.2c-0.1-0.1-0.2,0-0.4,0c-0.7,0-1.4-0.2-2.2-0.4c-0.8-0.2-1.7-0.5-2.4-0.8c-0.9-0.4-1.9-0.8-2.7-1.4
			c-0.5-0.4-1.1-0.7-1.6-1c-0.6-0.4-1.1-0.8-1.7-1.2c-0.2-0.1-0.2-0.3,0-0.5c0.4-0.5,0.9-1,1.3-1.5c0.4-0.5,0.9-1.1,1.3-1.6
			c0.4-0.5,0.8-1,1.2-1.5c0.2-0.2,0.4-0.2,0.6,0c0.6,0.5,1.2,0.9,1.8,1.4c0.3,0.2,0.7,0.4,1.1,0.6c0.8,0.4,1.6,0.7,2.4,1.1
			c0.3,0.1,0.6,0.2,0.9,0.2c0.7,0,1.2,0.4,1.9,0.3c0.6,0,1.2,0.2,1.8,0.1c1.1-0.1,2.1-0.3,3-0.8c0.8-0.5,1.1-1.2,1.2-2.1
			c0.2-1.3-0.5-2.1-1.6-2.7c-0.8-0.5-1.7-0.8-2.6-1c-0.7-0.2-1.4-0.3-2.1-0.5c-0.9-0.3-1.8-0.5-2.7-0.7c-0.8-0.2-1.6-0.4-2.4-0.8
			c-1.5-0.7-3.1-1.3-4.3-2.6c-0.6-0.6-1.1-1.4-1.4-2.1c-0.3-0.6-0.4-1.3-0.6-2c-0.2-0.8-0.2-1.5-0.2-2.3c0-0.5,0-1,0.2-1.4
			c0.2-0.4,0.2-0.8,0.3-1.2c0.3-1.3,0.9-2.4,1.8-3.3c0.5-0.5,0.9-1,1.4-1.4c0.6-0.5,1.3-0.8,2-1.2c0.7-0.3,1.4-0.6,2.1-0.8
			c0.8-0.2,1.6-0.4,2.4-0.4c0.1,0,0.2,0,0.3,0c0.9-0.4,1.9-0.2,2.8-0.2c0.7,0,1.3,0.3,2,0.4c0.7,0.1,1.3,0.3,1.9,0.5
			c0.7,0.2,1.4,0.5,2.1,0.8c0.4,0.2,0.8,0.4,1.2,0.6c0.9,0.3,1.6,0.9,2.4,1.3c0.3,0.1,0.6,0.4,0.8,0.6
			C249.1,46.6,249.2,46.8,249.3,46.9z"/>
		<path class="st1" d="M107.8,17.2c0-0.4,0-0.8,0-1.2c0.1-0.7,0.1-1.5,0.4-2.2c0.1-0.2,0-0.5,0.1-0.7c0.3-1,0.7-1.9,1.2-2.8
			c0.8-1.5,1.9-2.9,3.2-3.9c0.9-0.7,1.8-1.4,2.9-1.9c0.8-0.4,1.7-0.7,2.6-1c0.5-0.2,1.1-0.2,1.6-0.3c0.3-0.1,0.5-0.1,0.8-0.1
			c1-0.1,2-0.2,3,0.1c0.1,0,0.2,0,0.3,0.1c1.6,0.1,3.1,0.6,4.5,1.4c0.7,0.4,1.4,0.7,2,1.2c0.8,0.6,1.5,1.2,2.2,1.9
			c0.6,0.6,1.1,1.3,1.6,2.1c0.5,0.7,0.9,1.5,1.2,2.3c0.3,1,0.8,2,0.7,3.1c0,0.1,0,0.2,0,0.3c0.5,1,0.1,2.1,0.2,3.2
			c-0.4,0.7-0.2,1.6-0.4,2.3c-0.4,1-0.7,2-1.2,3c-0.5,0.9-1.1,1.8-1.7,2.6c-0.5,0.6-1,1.3-1.8,1.7c-0.4,0.2-0.6,0.5-1,0.8
			c-1,0.7-2.1,1.2-3.2,1.6c-0.8,0.3-1.5,0.6-2.3,0.7c-1.2,0.2-2.5,0.3-3.7,0.2c-0.5,0-1-0.1-1.5-0.2c-0.7-0.2-1.4-0.5-2.2-0.6
			c-0.8-0.2-1.5-0.6-2.2-1c-0.6-0.3-1.1-0.7-1.6-1.1c-0.8-0.5-1.4-1.1-2-1.8c-0.9-1-1.7-2.1-2.3-3.4c-0.4-0.8-0.7-1.7-1-2.7
			c-0.1-0.6-0.2-1.2-0.3-1.7C107.7,18.6,107.8,17.9,107.8,17.2C107.8,17.2,107.8,17.2,107.8,17.2z M133.7,17.6
			c-0.4,0.9-0.2,1.8-0.6,2.6c-0.2,0.5-0.2,1-0.5,1.5c-0.4,0.9-0.8,1.7-1.4,2.4c-0.2,0.3-0.7,0.5-0.6,0.9c0.1,0.3,0.5,0.6,0.7,0.9
			c0.1,0.1,0.1,0.2,0.2,0.2c0.1,0,0.4,0.1,0.4,0c0.5-0.6,1-1.1,1.4-1.8c0.5-0.7,0.9-1.5,1.2-2.4c0.3-0.8,0.6-1.7,0.6-2.6
			c0-0.2,0-0.4,0.1-0.6c0.2-0.4,0.1-0.7,0.1-1.2C134.8,17.6,134.3,17.6,133.7,17.6z M121.5,30.7c0-0.6,0-1.2,0-1.7
			c0-0.3-0.3-0.4-0.5-0.4c-0.7,0-1.3,0-1.9-0.3c-0.7-0.3-1.4-0.4-2.1-0.7c-0.9-0.5-1.8-1.1-2.6-1.8c-0.1-0.1-0.2-0.2-0.4-0.2
			c-0.5,0.5-0.9,0.9-1.3,1.4c0.8,0.6,1.5,1.2,2.3,1.7c0.9,0.5,1.8,0.9,2.8,1.3c0.8,0.3,1.7,0.6,2.6,0.5c0.2,0,0.4,0.1,0.6,0.1
			C121.1,30.7,121.3,30.7,121.5,30.7z M135.4,17c0.1-0.6,0.1-0.7,0-1.1c-0.1-0.2-0.1-0.5-0.1-0.7c0-0.8-0.2-1.5-0.5-2.2
			c-0.4-0.9-0.8-1.8-1.3-2.6c-0.3-0.5-0.6-0.8-0.9-1.3c-0.5-0.7-0.7-0.8-1.4,0c-0.5,0.5-0.5,0.7,0,1.2c0.3,0.3,0.6,0.7,0.8,1.1
			c0.4,0.9,0.8,1.7,1.2,2.6c0.2,0.4,0.2,0.8,0.3,1.3c0.1,0.6,0.1,1.1,0.2,1.7C134.3,17,134.8,17,135.4,17z M112.2,8.2
			c-0.4,0.5-0.8,0.9-1.1,1.3c-0.2,0.3-0.5,0.6-0.6,0.9c-0.4,0.8-0.8,1.7-1.1,2.5c-0.1,0.3-0.2,0.7-0.3,1.1c-0.2,0.7-0.3,1.3-0.4,2
			c0,0.3,0,0.6,0,0.9c0.7,0,1.2,0,1.8,0c0.1-0.7,0.2-1.4,0.3-2.1c0-0.1,0-0.2,0.1-0.2c0.2-0.6,0.5-1.1,0.6-1.7
			c0.2-0.7,0.6-1.2,1-1.8c0.3-0.5,0.8-1,1.1-1.5C113,9.1,112.6,8.6,112.2,8.2z M121.5,3.9c-0.2,0-0.3,0-0.4,0
			c-0.3,0.2-0.6,0.2-0.8,0.2c-0.6,0.1-1.2,0.1-1.7,0.2c-1,0.3-1.9,0.7-2.8,1.1c-0.3,0.2-0.7,0.3-1,0.5c-0.6,0.4-1.2,0.9-1.7,1.4
			c-0.2,0.1-0.2,0.3-0.1,0.5c0.3,0.3,0.5,0.6,0.8,0.8c0.2,0.2,0.6,0.2,0.8,0c0.3-0.4,0.7-0.7,1.2-0.9c0.8-0.6,1.8-1,2.7-1.3
			c0.8-0.3,1.6-0.5,2.5-0.5c0.2,0,0.5-0.1,0.5-0.4C121.5,5,121.5,4.5,121.5,3.9z M129.9,25.6c-0.8,0.7-1.6,1.4-2.4,2.1
			c-0.1,0.1-0.2,0.1-0.3,0.2c-0.5,0.4-1.2,0.5-1.8,0.4c-0.3,0-0.7,0-1,0.1c-0.3,0-0.5,0.1-0.8,0.2c-0.3,0-0.5,0-0.8,0
			c-0.3,0-0.5,0.2-0.5,0.4c0,0.5,0,1.1,0,1.7c0.3-0.1,0.5-0.1,0.6-0.1c0.2,0,0.4-0.1,0.6-0.1c0.9,0,1.8-0.3,2.7-0.5
			c0.3-0.1,0.5-0.2,0.8-0.3c1-0.5,1.9-1,2.8-1.6c0.5-0.4,0.8-0.8,1.3-1.2C130.7,26.5,130.3,26,129.9,25.6z M129.2,7
			c0,0.7,0.3,1.3,0.9,1.7c0.4-0.4,0.7-0.7,1.1-1.2c-0.5-0.4-1-0.8-1.5-1.2c-1.1-0.8-2.2-1.4-3.4-1.8c-0.7-0.2-1.5-0.5-2.3-0.5
			c-0.5,0-0.9,0-1.4-0.2c-0.1,0-0.2,0-0.3,0c0,0.5-0.1,0.9,0.1,1.4c0.5-0.2,0.9-0.3,1.3-0.5c0.1,0,0.3,0,0.4,0
			c0.5,0,0.7,0.4,0.6,0.8c-0.1,0.1-0.1,0.3-0.2,0.5c0.3,0.1,0.6,0.1,0.8,0.2c0.7,0.3,1.5,0.6,2.2,1c0.2,0.1,0.4,0.1,0.6-0.1
			C128.4,6.9,128.7,6.9,129.2,7z M114.3,10.2c-0.3,0.3-0.5,0.4-0.7,0.7c-0.7,1-1.3,2-1.7,3.1c-0.2,0.4-0.2,0.8-0.3,1.3
			c-0.1,0.3-0.1,0.7-0.1,1c-0.1,0.3,0,0.5,0.4,0.5c0.4,0,0.8,0,1.2-0.1c0-0.2,0.1-0.2,0.1-0.3c0-0.9,0.2-1.8,0.6-2.7
			c0.2-0.6,0.5-1.1,0.9-1.6c0.2-0.2,0.4-0.5,0.5-0.8c0-0.1,0-0.3-0.1-0.4C114.8,10.7,114.5,10.5,114.3,10.2z M122.4,11
			c1.5,0.2,2.7,0.7,3.8,1.6c0.5-0.4,0.9-0.8,1.5-1.3c-0.6-0.5-1.1-0.9-1.6-1.2c-0.6-0.3-1.1-0.7-1.8-0.7c-0.6-0.1-1.2-0.6-1.8-0.2
			C122.4,9.8,122.4,10.4,122.4,11z M121.5,6.9c-0.1,0-0.2-0.1-0.3-0.1c-0.8,0-1.5,0.2-2.3,0.4c-1.3,0.3-2.4,1.1-3.5,1.8
			c-0.5,0.4-0.6,0.7-0.1,1.1c0.2,0.1,0.3,0.3,0.5,0.4c1.6-1.4,3.5-2.2,5.6-2.4C121.5,7.8,121.5,7.4,121.5,6.9z M130.2,24.1
			c0.3-0.5,0.7-1,1-1.5c0.3-0.5,0.6-1.1,0.8-1.6c0.2-0.5,0.4-1,0.5-1.6c0.1-0.6,0.1-1.2,0-1.8c-0.5,0-0.9,0-1.4,0c0,0.7,0,1.4-0.3,2
			c-0.1,0.4-0.2,0.8-0.3,1.1c-0.2,0.7-0.7,1.3-1.1,1.9c-0.2,0.2-0.2,0.4,0.1,0.5c0.2,0.1,0.3,0.2,0.3,0.4
			C129.6,23.8,129.8,24,130.2,24.1z M117.9,12.7c1.1-1,2.3-1.4,3.6-1.7c0-0.7,0-1.3,0-1.9c-0.3,0-0.5,0-0.7,0
			c-0.2,0-0.3,0.2-0.5,0.2c-0.9,0.1-1.7,0.5-2.4,1c-0.4,0.3-0.9,0.5-1.2,1.1C117,11.8,117.4,12.2,117.9,12.7z M115.1,25.1
			c0.3,0.6,0.9,0.9,1.4,1.2c0.7,0.4,1.4,0.8,2.2,1c0.3,0.1,0.7,0.1,1,0.3c0.6,0.3,1.2,0.2,1.8,0.2c0-0.5,0-0.9,0-1.4
			c-0.2,0-0.4,0-0.6,0c-0.5-0.1-1-0.1-1.4-0.2c-0.9-0.3-1.8-0.7-2.5-1.2c-0.1-0.1-0.3-0.1-0.5-0.1C116,24.8,115.5,25,115.1,25.1z
			 M115.8,11.8c-0.5,0.8-1.1,1.5-1.4,2.3c-0.3,0.8-0.8,1.6-0.5,2.6c0.3,0.2,0.6,0.2,0.9,0c0-0.1,0-0.1,0-0.1c0-0.6,0.3-1.1,1-1.1
			c0.2,0,0.3-0.2,0.4-0.4c0.3-0.5,0.5-1,0.8-1.5c0.1-0.2,0.1-0.4-0.1-0.5C116.6,12.6,116.3,12.3,115.8,11.8z M119.9,23.3
			c-0.5-0.3-1-0.6-1.4-0.8c-0.3-0.1-0.4-0.6-0.8-0.5c-0.3,0.1-0.5,0.4-0.7,0.6c-0.4,0.4-0.4,0.7,0,1.1c0.1,0.1,0.1,0.2,0.2,0.2
			c0.7,0.7,1.6,1,2.6,1.3c0.3,0.1,0.6,0.2,0.9,0.2c0.2,0,0.5,0.1,0.6-0.2c-0.4-0.2-0.7-0.4-1-0.6c-0.1-0.1-0.2-0.3-0.3-0.5
			C119.9,23.8,119.9,23.5,119.9,23.3z M109.7,22.5c0,0.2,0.1,0.4,0.1,0.5c0.2,0.4,0.4,0.8,0.7,1.2c0.4,0.6,0.7,1.1,1.1,1.7
			c0.3,0.4,0.5,0.4,0.8,0.1c0.2-0.2,0.4-0.4,0.6-0.6c0.3-0.4,0.3-0.6,0-1c-0.4-0.7-1.3-0.9-1.8-1.6C111,22.3,110.4,22.3,109.7,22.5z
			 M122.4,7.1c0,0.4,0,0.8,0,1c0.8,0.2,1.6,0.3,2.4,0.5c0.7,0.2,1.5,0.6,2.3,0.9c0-0.2,0-0.3-0.1-0.3c-0.3-0.2-0.4-0.5-0.5-0.9
			c-0.1-0.5-0.4-0.8-0.9-1c-0.5-0.1-1-0.2-1.5-0.4C123.5,6.8,123,6.8,122.4,7.1z M129.6,18.5c0.1,0.8-0.2,1.2-1,1.3
			c-0.3,0-0.6,0.1-0.9,0.2c0,0.2,0,0.3,0,0.4c0.3,0.3,0.2,0.7,0.2,1.1c0,0.3,0.1,0.5,0.4,0.6c0.3,0.1,0.6,0,0.7-0.3
			c0.3-0.5,0.6-1,0.8-1.6c0.2-0.4,0.2-0.8,0.4-1.3c0.2-0.4,0.1-0.9,0-1.3c-0.5,0-0.9,0-1.3,0C128.8,18.2,128.8,18.3,129.6,18.5z
			 M109.1,21.1c0.3,0.1,0.4,0,0.5-0.2c0.1-0.5,0.2-0.6,0.7-0.6c0.1,0,0.2,0,0.4-0.1c0.3-0.9-0.4-1.7-0.2-2.5c-0.7,0-1.2,0-1.8,0
			C108.5,18.9,108.9,19.9,109.1,21.1z M132.5,17c0.2-1.2,0-2.2-0.5-3.2c-0.9-0.1-1-0.2-1.5-0.9c-0.1-0.1-0.2-0.4-0.5-0.2
			c0.7,1.3,1.1,2.8,1.2,4.3C131.6,17,132,17,132.5,17z M121.5,12.1c-0.3,0-0.5,0.1-0.7,0.1c-0.7,0-1.3,0.5-1.9,0.8
			c-0.3,0.2-0.3,0.4-0.1,0.7c0.3,0.4,0.6,0.7,1.1,0.9c0.2,0.1,0.3,0.1,0.5,0c0.3-0.2,0.6-0.3,1-0.5
			C121.5,13.5,121.5,12.8,121.5,12.1z M119.7,19.9c-0.4,0.4-0.8,0.8-1.3,1.3c0.8,0.6,1.6,1.3,2.7,1c0-0.2,0-0.4,0-0.6
			c0-0.2,0-0.3,0.1-0.5c0.1-0.5-0.1-0.9-0.6-1C120.3,20.1,120,20,119.7,19.9z M123.8,14.2c0.6-0.3,1-0.6,1.4-1.1
			c-0.4-0.3-0.7-0.6-1.2-0.8c-0.5-0.2-1.1-0.3-1.7-0.4c0,0.7,0,1.3,0,2.1c0.3,0,0.7,0,0.9-0.1C123.6,13.8,123.7,13.9,123.8,14.2z
			 M122.8,16.6c-0.2-0.1-0.3-0.2-0.5-0.4c-0.5-0.4-1.1-0.3-1.4,0.3c-0.1,0.1-0.1,0.3-0.2,0.4c0.8,0,1.1,0.6,1.3,1.1
			c0,0.5-0.6,0.9-0.2,1.6c0.2-0.7,0.5-1.2,1.3-1.3c0-0.2,0.1-0.5,0-0.6C122.8,17.4,122.9,17,122.8,16.6z M127.8,14.6
			c0.2,0.1,0.3,0.3,0.5,0.3c0.3,0,0.6,0.1,0.8-0.1c0.2-0.2,0.3-0.3,0.6-0.5c-0.3-0.6-0.7-1.2-1.1-1.8c-0.2-0.3-0.5-0.4-0.8-0.2
			c-0.3,0.2-0.6,0.5-0.8,0.9c-0.1,0.1,0,0.3,0,0.4c0.1,0,0.3,0,0.4-0.1c0.2-0.1,0.3-0.3,0.4-0.4c0.2-0.2,0.5-0.2,0.7-0.1
			c0.2,0.2,0.1,0.4,0,0.6C128.3,13.9,128.1,14.2,127.8,14.6z M111.9,20.4c0,0,0.1,0,0.1,0c0-0.2,0.1-0.3,0.1-0.4
			c-0.1-0.5,0.2-0.8,0.4-1.1c0.1-0.1,0.2-0.3,0.3-0.4c0.3-0.4,0.2-0.8-0.3-0.8c-0.4,0-0.7,0-1.2,0C111.5,18.6,111.6,19.5,111.9,20.4
			z M115.9,22.2c0.1,0,0.1,0,0.2,0c0.3-0.3,0.7-0.7,1-1c-0.4-0.7-0.7-1.2-1-1.8c-0.2,0-0.4,0-0.6,0.1c0.1,0.2,0,0.4,0.1,0.5
			c0.3,0.3,0.3,0.6,0.3,0.9C115.9,21.4,115.9,21.8,115.9,22.2z M122.4,27.7c0.5,0.1,1.1,0.1,1.6,0c0.3-0.7-0.4-0.9-0.5-1.4
			c-0.4,0-0.7,0-1.1,0C122.4,26.8,122.4,27.2,122.4,27.7z M116.8,18.7c0.2,0.6,0.5,1.2,0.8,1.7c0,0,0.2,0.1,0.2,0
			c0.2-0.1,0.4-0.2,0.5-0.4c0.1-0.1,0.1-0.3,0.2-0.5c-0.6-0.2-0.6-0.2-1-0.7C117.4,18.6,117.2,18.5,116.8,18.7z M129.1,25.1
			c-0.3-0.3-0.2-0.7-0.7-0.8c0,0.5-0.1,0.9,0.1,1.5C128.7,25.5,128.9,25.3,129.1,25.1z M130.2,16.8c-0.2-0.1-0.5-0.3-0.7,0.1
			C129.7,17,130,17.1,130.2,16.8z M117.9,13.9c-0.1,0.3-0.2,0.5,0.1,0.5c0.1,0,0.1,0,0.3-0.1C118.1,14.2,118,14.1,117.9,13.9z"/>
		<path class="st1" d="M94.6,69.6c0,2.2,0,4.3,0,6.4c-0.2,0-0.5,0.1-0.7,0.1c-7.1,0-14.3,0-21.4,0c-0.2,0-0.4,0-0.6-0.1
			c0-11,0-21.9,0-32.8c2.4,0,4.9,0,7.3,0c0,0.1,0.1,0.3,0.1,0.5c0,0.3,0,0.6,0,0.8c0,8,0,16,0,24c0,0.3,0,0.6,0,1c0.3,0,0.6,0,0.8,0
			c4.5,0,9,0,13.5,0C93.9,69.5,94.2,69.5,94.6,69.6z"/>
		<path class="st0" d="M291.6,16.6c0,4.7,0,9.2,0,13.8c-0.7,0-1.3,0.1-2-0.1c-0.2,0-0.3-0.1-0.5-0.1c-0.4,0-0.7,0-1.1-0.2
			c-0.4-0.2-0.9-0.2-1.4-0.3c-1.1-0.2-2.2-0.4-3.3-0.9c-0.6-0.2-1.2-0.4-1.8-0.6c-0.6-0.2-1.2-0.4-1.7-0.7c-0.4-0.2-0.8-0.4-1.1-0.5
			c-0.4-0.1-0.6-0.4-0.5-0.8c0-2.4,0-4.8,0-7.3c0-1.4,0-2.8,0-4.3c0.2,0,0.4-0.1,0.6,0c0.7,0.3,1.4,0.3,2,0.5
			c0.8,0.2,1.6,0.3,2.4,0.4c0.6,0.1,1.2,0.3,1.9,0.4c0.2,0,0.4,0,0.6,0c0.4,0,0.8,0,1.2,0.2c0.1,0.1,0.3,0,0.5,0.1
			c0.5,0,1-0.1,1.4,0.2c0.2,0.1,0.5,0,0.7,0C290.1,16.6,290.8,16.6,291.6,16.6z"/>
		<path class="st1" d="M310.8,15.1c0,3.9,0,7.9,0,11.9c-0.7,0.3-1.4,0.7-2.1,0.9c-1.1,0.4-2.2,0.8-3.3,1.2c-0.7,0.2-1.3,0.3-2,0.5
			c-0.6,0.1-1.1,0.3-1.7,0.4c-0.7,0.1-1.3,0.1-2,0.3c-0.6,0.2-1.2,0.1-1.8,0.1c-0.1,0-0.3,0-0.5-0.1c0-4.5,0-8.9,0-13.4
			c0.3-0.2,0.7-0.3,1.1-0.3c0.6,0,1.3,0,1.9,0c0.4,0,0.7,0,1-0.2c0.3-0.1,0.7-0.1,1.1-0.1c0.3,0,0.6,0.1,0.9-0.2
			c0.1-0.1,0.2-0.1,0.3-0.1c0.5,0,1.1-0.1,1.6-0.2c0.7,0,1.4-0.2,2.1-0.4c0.5-0.1,1.1,0,1.6-0.4C309.7,15.3,310.2,14.8,310.8,15.1z"
			/>
		<path class="st1" d="M310.8,0c0,3,0,6,0,9c-0.8,0.2-1.6,0.3-2.5,0.5c-0.5,0.1-1.1,0.3-1.6,0.4c-0.6,0.1-1.2,0.2-1.8,0.2
			c-0.2,0-0.4,0.1-0.6,0.1c-0.1,0-0.2,0.1-0.3,0.1c-0.9,0.1-1.8,0.2-2.7,0.2c-0.5,0-1,0.1-1.4,0.2c-0.7,0.1-1.5,0-2.3,0
			c-0.1,0-0.1-0.1-0.2-0.1c0-0.2,0-0.4,0-0.6c0-3.1,0-6.3,0-9.4c0-0.1,0-0.3,0-0.4c0-0.3,0.2-0.4,0.4-0.4c0.1,0,0.2,0,0.3,0
			c4,0,8,0,12.1,0C310.4,0,310.6,0,310.8,0z"/>
		<path class="st0" d="M278.2,8.8c0-2.9,0-5.8,0-8.7c0.4-0.1,12.4-0.2,13.3-0.1c0.1,0.5,0.2,9.6,0.1,10.8c-0.5,0.1-1.1,0.1-1.7,0
			c-0.1,0-0.2-0.1-0.4-0.1c-1.1,0.1-2.1-0.2-3.2-0.2c-0.2,0-0.4-0.1-0.7-0.2c-0.1,0-0.2-0.1-0.2-0.1c-0.6-0.1-1.2-0.1-1.8-0.2
			c-0.6-0.1-1.1-0.2-1.7-0.4c-0.5-0.1-1-0.2-1.5-0.4C279.7,9.2,279,9,278.2,8.8z"/>
		<path class="st0" d="M272.3,23.3c-0.6-0.5-1.1-1-1.6-1.4c-0.7-0.6-1.4-1.1-2-1.8c-0.8-0.8-1.7-1.5-2.3-2.5c-0.3-0.4-0.7-0.8-1-1.2
			c-0.6-0.8-1.2-1.5-1.7-2.3c-0.6-0.9-1.2-1.9-1.7-2.8c-0.1-0.1-0.1-0.3-0.1-0.5c0-0.8,0-1.6,0-2.4c0.2-0.2,0.3-0.2,0.5-0.1
			c0.8,0.4,1.7,0.9,2.5,1.3c0.6,0.3,1.2,0.6,1.9,0.9c0.8,0.4,1.7,0.8,2.5,1.1c0.4,0.2,0.9,0.3,1.3,0.5c0.5,0.2,1.1,0.4,1.6,0.7
			C272.3,16.3,272.3,19.7,272.3,23.3z"/>
		<path class="st1" d="M316.7,23.3c0-3.4,0-6.8,0-10.1c3.5-1.2,7-2.7,10.3-4.5c0,0.2,0.1,0.4,0.1,0.5c0,0.6,0,1.1,0,1.7
			c0,0.6-0.4,1.1-0.7,1.6c-0.3,0.5-0.6,1-0.9,1.4c-0.3,0.4-0.6,0.9-0.9,1.3c-0.2,0.3-0.5,0.6-0.7,1c-0.1,0.2-0.3,0.4-0.4,0.6
			c-1.3,1.7-2.9,3.2-4.5,4.7C318.3,22.1,317.5,22.7,316.7,23.3z"/>
		<path class="st1" d="M316.7,0.1c3.5,0,6.9,0,10.3,0c0.2,0.7,0.1,1.3,0.1,2c0,0.3-0.3,0.4-0.5,0.5c-0.9,0.3-1.6,1-2.5,1.3
			c-0.9,0.3-1.6,0.9-2.5,1.3c-0.6,0.3-1.3,0.5-1.9,0.7c-0.6,0.2-1.2,0.5-1.8,0.8c-0.4,0.2-0.8,0.3-1.2,0.5
			C316.7,4.8,316.7,2.4,316.7,0.1z"/>
		<path class="st0" d="M272.3,6.8c-1-0.4-2-0.8-3-1.2c-1.3-0.6-2.6-1.2-3.8-1.9c-0.8-0.4-1.5-0.9-2.3-1.4c-0.3-0.2-0.6-0.3-0.9-0.5
			c-0.4-0.3-0.5-1.2-0.3-1.6c0-0.1,0.1-0.2,0.2-0.2c0.1,0,0.3,0,0.4,0c3,0,6.1,0,9.1,0c0.2,0,0.4,0,0.6,0
			C272.3,2.3,272.3,4.5,272.3,6.8z"/>
		<path class="st1" d="M127.1,32.7c0.1,0.1,0.1,0.3,0.2,0.3c0.9,0.4,1.8,0.8,2.7,1.1c0.1,0,0.2,0.1,0.3,0.1c0.1,0,0.3,0,0.4,0
			c0.6,0.3,1.3,0,1.9,0c0.4,0,0.7-0.2,1.1-0.4c0.2-0.1,0.5-0.1,0.7-0.2c0,0,0,0.1,0.1,0.1c-0.1,0.1-0.2,0.3-0.3,0.4
			c-0.7,0.6-1.6,1-2.4,1.3c-0.1,0-0.2,0-0.3,0c-0.1,0-0.3,0-0.4,0c-0.7,0.3-1.4,0.1-2.1,0c-0.6-0.1-1.1-0.3-1.7-0.6
			c-0.8-0.4-1.6-1-2.4-1.5c-0.2-0.2-0.4-0.2-0.7-0.3c-0.2,0-0.4-0.1-0.6-0.2c-0.1,0.2-0.2,0.4,0.1,0.5c1,0.6,2,1.1,2.8,2
			c0.2,0.2,0.4,0.3,0.6,0.4c0.3,0.2,0.3,0.4,0,0.7c-0.2,0.2-0.4,0.3-0.6,0.5c-0.5-0.6-1-1.2-1.6-1.7c-0.8-0.7-1.6-1.4-2.6-1.8
			c-0.5-0.2-0.8,0-1.1,0.1c-0.3,0.2-0.5,0.4-0.8,0.6c-1,0.6-1.6,1.5-2.4,2.2c-0.5,0.4-0.5,0.5-1,0.1c-0.3-0.2-0.4-0.5-0.1-0.7
			c0.7-0.6,1.5-1.2,2.3-1.7c0.4-0.3,0.7-0.7,1.3-0.8c0.1,0,0.1-0.3,0.2-0.4c-1,0-1.7,0.4-2.4,0.9c-0.8,0.6-1.8,1.1-2.7,1.4
			c-0.5,0.2-1,0.2-1.6,0.3c-0.1,0-0.3-0.1-0.4-0.1c-0.2,0-0.3-0.1-0.5-0.1c-1.4-0.1-2.5-0.8-3.5-1.8c0,0,0-0.1,0-0.2
			c0.5,0.2,0.9,0.3,1.3,0.5c0.2,0.1,0.5,0.1,0.7,0.2c0.2,0,0.4,0.1,0.6,0.1c0.1,0,0.2,0.1,0.2,0.1c0.7-0.3,1.5-0.2,2.1-0.5
			c0.6-0.3,1.3-0.5,1.9-0.8c0.7-0.3,1.4-0.5,2.2-0.4c0.1,0,0.2-0.1,0.4-0.1c0.4,0,0.8-0.2,1-0.1c0.6,0.3,1.3,0.2,1.9,0.3
			c0.5,0.1,1.1-0.2,1.7-0.3c0.3,0,0.7-0.1,0.9,0c0.3,0.2,0.6,0.2,1,0.2c0.3,0,0.6,0.1,0.9,0.1C126.7,32.8,126.9,32.7,127.1,32.7
			L127.1,32.7z"/>
		<path class="st1" d="M134.6,29.6c0.1-0.1,0.3-0.1,0.4-0.2c0.5-0.5,1.2-0.8,1.9-1.1c0.7-0.3,1.3-0.7,1.9-1.1
			c0.2-0.1,0.4-0.2,0.5-0.3c0.3-0.3,0.6-0.6,0.9-0.9c0.2-0.2,0.3-0.5,0.6-0.6c0,0.6-0.3,1.1-0.6,1.6c-0.4,0.8-0.9,1.5-1.6,2
			c-0.7,0.6-1.3,1.1-2.2,1.4c-0.5,0.2-1,0.4-1.6,0.6c-0.3,0.1-0.7,0.2-1,0.2c-0.5,0.1-0.9,0.1-1.3,0.3c-0.1,0-0.2,0-0.4,0
			c0.1-0.2,0.2-0.3,0.3-0.5c0.9-1.1,1.4-2.4,1.8-3.7c0.3-0.9,0.6-1.8,1.3-2.6c0.2-0.3,0.4-0.6,0.6-0.9c0,0,0.1,0,0.2-0.1
			c-0.1,0.7-0.1,1.4-0.3,2.1c-0.2,0.9-0.3,1.9-0.8,2.8c-0.2,0.3-0.4,0.6-0.6,0.9C134.6,29.5,134.6,29.5,134.6,29.6z"/>
		<path class="st1" d="M103.3,25.2c0.1,0.1,0.2,0.2,0.2,0.3c0.7,1.1,1.8,1.8,2.9,2.4c0.9,0.5,1.9,0.8,2.7,1.5c0,0,0.1,0,0.2,0
			c-0.1-0.2-0.2-0.5-0.3-0.6c-0.4-0.6-0.6-1.2-0.7-1.8c-0.1-0.5-0.1-0.9-0.2-1.4c-0.1-0.5-0.3-1.1-0.4-1.6c0-0.1,0-0.2,0-0.3
			c0.1,0.1,0.3,0.2,0.3,0.3c1,1.5,1.7,3.1,2.2,4.8c0.2,0.7,0.5,1.3,1,1.9c0.2,0.2,0.4,0.6,0.6,0.9c-0.2,0-0.3,0.1-0.4,0
			c-0.7-0.2-1.5-0.3-2.3-0.5c-0.6-0.2-1.2-0.3-1.7-0.5c-0.9-0.4-1.7-0.9-2.4-1.6c-1-1-1.6-2.2-2-3.5
			C103.3,25.2,103.3,25.2,103.3,25.2z"/>
		<path class="st1" d="M127.1,32.7c-0.1-0.1-0.2-0.2-0.3-0.3c0.4-0.1,0.7-0.2,1-0.3c0.7-0.2,1.2-0.6,1.8-1.1c1-0.9,1.9-1.8,2.9-2.7
			c0.2-0.2,0.5-0.3,0.9-0.6c0,0.2,0,0.3,0,0.4c-0.4,0.8-0.8,1.5-1.2,2.2c-0.3,0.7-0.9,1.1-1.6,1.4c-0.1,0-0.1,0.1-0.3,0.2
			c0.2,0,0.4,0.1,0.5,0.1c0.4,0,0.7-0.1,1.1-0.2c0.4,0,0.7,0,1.1-0.2c0.3-0.1,0.6-0.1,0.9-0.1c1.2,0.1,2.1-0.4,3.1-0.9
			c0.2-0.1,0.4-0.3,0.6-0.4c0,0,0.1,0.1,0.1,0.1c-0.1,0.2-0.1,0.4-0.3,0.5c-0.7,0.8-1.4,1.6-2.4,2c-0.7,0.3-1.4,0.6-2.2,0.6
			c-0.4,0-0.8,0-1.2,0c-0.3,0-0.6-0.1-0.9-0.2c-0.1,0-0.2,0-0.3-0.1c-0.6-0.1-1.2,0-1.7-0.3C128.1,32.7,127.6,32.7,127.1,32.7
			C127.1,32.7,127.1,32.7,127.1,32.7z"/>
		<path class="st1" d="M113.7,32c-0.5-0.3-0.8-0.5-1.1-0.7c-0.8-0.5-1-1.4-1.4-2.2c-0.2-0.3-0.3-0.7-0.5-0.9
			c-0.1-0.1-0.1-0.2-0.2-0.4c0.2,0,0.3,0,0.3,0.1c0.8,0.6,1.5,1.2,2.2,2c0.8,0.9,1.7,1.7,2.8,2.2c0.4,0.2,0.9,0.3,1.3,0.5
			c-0.2,0.1-0.4,0.2-0.6,0.2c-0.6,0.1-1.2,0.2-1.8,0.3c-0.3,0.1-0.6,0.1-0.9,0.2c-0.1,0-0.2,0-0.3,0c-0.9,0.4-1.9,0.2-2.8,0.2
			c-0.5,0-1-0.3-1.4-0.4c-1.2-0.5-2-1.5-2.9-2.4c0,0,0-0.1-0.1-0.3c0.2,0.1,0.4,0.1,0.5,0.2c1,0.8,2.1,1.2,3.4,1.2
			c0.4,0,0.8,0.1,1.2,0.2c0.2,0,0.3,0,0.5,0c0.5,0,0.9,0,1.4,0.2C113.4,32.1,113.5,32.1,113.7,32z"/>
		<path class="st1" d="M138.1,25.1c0.8-0.9,1.5-1.8,2.4-2.7c0.7-0.7,1.1-1.5,1.5-2.4c0-0.1,0.1-0.1,0.2-0.3c-0.2,1.1-0.1,2-0.5,3
			c-0.5,1-1,1.9-1.8,2.6c-0.7,0.6-1.5,1.1-2.2,1.6c-0.3,0.2-0.6,0.5-1,0.7c-0.2,0.1-0.4,0.2-0.7,0.4c0-0.2,0-0.4,0.1-0.5
			c0.2-0.7,0.4-1.3,0.6-2c0-0.1,0-0.3,0-0.4c0-0.5,0-1,0.2-1.4c0.1-0.4,0-0.9,0.1-1.3c0-0.3,0.1-0.6,0.2-0.9c0-0.2,0.1-0.5,0.1-0.7
			c0-0.5,0.2-0.8,0.3-1.3c0.1,0.1,0.2,0.1,0.2,0.1c0.1,0.7,0.2,1.3,0.3,2c0,0.1,0,0.2,0,0.3c0.4,0.7,0.2,1.4,0.2,2.1
			c0,0.2-0.1,0.5-0.2,0.7c0,0.1,0,0.3,0,0.4C138,25.2,138.1,25.2,138.1,25.1z"/>
		<path class="st1" d="M108,28.1c-0.4-0.3-0.8-0.5-1.1-0.8c-0.4-0.3-0.9-0.5-1.2-0.8c-0.8-0.6-1.7-1.2-2.3-2
			c-0.6-0.8-1.1-1.7-1.3-2.7c-0.1-0.6-0.1-1.2-0.2-1.9c0.2,0.1,0.3,0.2,0.3,0.3c0.3,0.8,0.8,1.6,1.4,2.3c0.5,0.6,1,1.2,1.5,1.7
			c0.2,0.2,0.4,0.5,0.5,0.7c0.1,0.2,0.3,0.3,0.5,0.4c-0.3-1-0.3-2.1-0.1-3c0.2-0.9,0.2-1.7,0.5-2.7c0.3,0.6,0.5,1.2,0.6,1.8
			c0.1,0.9,0,1.9,0.2,2.7c0.2,0.7,0.1,1.3,0.2,1.9c0.1,0.6,0.4,1.2,0.6,1.8c0,0.1,0.1,0.2,0.1,0.3C108.1,28.1,108,28.1,108,28.1z"/>
		<path class="st1" d="M105.2,23.3c-0.1-0.1-0.2-0.2-0.3-0.3c-0.6-0.8-1.3-1.6-1.8-2.5c-0.4-0.6-0.7-1.3-0.9-2
			c-0.2-0.8-0.2-1.6-0.2-2.4c0-0.3,0.1-0.5,0.2-0.8c0-0.2,0.1-0.5,0.1-0.8c0-0.2,0-0.5,0.2-0.6c0.2,0.2,0.2,0.5,0.1,0.7
			c0,0.8,0.3,1.6,0.6,2.4c0.3,0.7,0.5,1.4,0.7,2.1c0.1,0.3,0.2,0.4,0.5,0.3c0.1-0.4,0.1-0.8,0.2-1.1c0.2-0.5,0.5-1.1,0.9-1.5
			c0.3-0.5,0.6-1,0.8-1.5c0-0.1,0.1-0.1,0.3-0.3c0.2,0.5,0.1,0.8,0,1.2c-0.1,0.2-0.1,0.5-0.1,0.7c-0.1,0.5-0.2,1-0.3,1.5
			c-0.2,0.7-0.5,1.4-0.7,2.1c0,0.1-0.1,0.2-0.1,0.4c0,0.1,0,0.3,0,0.4c-0.2,0.6-0.4,1.2,0,1.8c0,0,0,0.1,0,0.1
			C105.3,23.3,105.3,23.3,105.2,23.3z"/>
		<path class="st1" d="M138.9,23.4c-0.1-0.2-0.1-0.4-0.2-0.5c0-0.2,0-0.4,0-0.6c0-0.7,0-1.4-0.3-2.1c-0.2-0.5-0.4-1.1-0.6-1.6
			c-0.1-0.5-0.1-1.2-0.3-1.7c-0.2-0.6-0.2-1.2-0.2-1.8c0-0.1,0-0.2,0.1-0.2c0.4,1.1,1.2,1.9,1.7,2.9c0.3,0.5,0.5,1,0.5,1.6
			c0,0.2-0.1,0.4,0.2,0.7c0.1-0.3,0.1-0.5,0.2-0.7c0.3-0.8,0.6-1.5,0.9-2.3c0.2-0.4,0.3-0.9,0.4-1.3c0.2-0.5,0.2-1,0.2-1.6
			c0.1,0.2,0.3,0.3,0.3,0.5c0.1,0.8,0.2,1.6,0.2,2.4c0,0.8-0.2,1.5-0.4,2.2c-0.2,0.8-0.6,1.3-1.1,1.9
			C140,21.8,139.5,22.5,138.9,23.4z"/>
		<path class="st1" d="M139.7,17.8c-0.2-0.3-0.3-0.6-0.5-0.9c-0.4-0.7-0.9-1.4-1.4-2.1c-0.7-1-1.5-2-1.8-3.2c0-0.1,0-0.3,0-0.5
			c0.2,0.1,0.3,0.1,0.4,0.2c0.6,0.6,1.3,1.2,1.9,1.9c0.5,0.5,0.9,1,1.1,1.9c0.1-0.2,0.2-0.3,0.2-0.4c0-1.6,0-3.3,0-4.9
			c0-0.1-0.1-0.3-0.1-0.4c0-0.2-0.1-0.4-0.2-0.7c0.2,0.1,0.3,0.1,0.4,0.2c0.6,1,1.2,2,1.2,3.3c0,0.1,0.1,0.2,0.1,0.4
			c0.1,0.3,0.2,0.7,0.1,0.9c-0.2,0.7-0.2,1.5-0.6,2.2c-0.2,0.3-0.2,0.6-0.2,0.9c-0.1,0.4-0.3,0.9-0.4,1.3
			C139.8,17.8,139.8,17.8,139.7,17.8z"/>
		<path class="st1" d="M104.5,14.7c0.5-0.6,1-1.2,1.5-1.8c0.6-0.6,1.2-1.2,1.8-1.8c0,0,0.1,0,0.2,0c-0.1,0.7-0.3,1.4-0.8,2.1
			c-0.5,0.8-1,1.5-1.5,2.3c-0.5,0.7-1,1.5-1.3,2.3c0,0-0.1,0.1-0.2,0.1c-0.1-0.1-0.1-0.1-0.2-0.2c-0.3-0.9-0.6-1.8-0.9-2.8
			c-0.2-1-0.4-2-0.1-3c0.2-0.8,0.4-1.6,0.8-2.3c0.2-0.3,0.3-0.7,0.7-0.9c0,0.2,0,0.3,0,0.3c0,0.2-0.1,0.4-0.1,0.6
			c-0.1,0.2-0.1,0.4-0.2,0.7c0,0.3-0.1,0.6,0,0.9c0.2,0.3,0.2,0.7,0.2,1c0,0.6,0,1.3,0,1.9C104.5,14.2,104.5,14.4,104.5,14.7z"/>
		<path class="st1" d="M134.2,7.4c0.8,0.4,1.2,1.2,1.8,1.6c0.6,0.4,1.2,0.9,1.9,1.4c-0.1-0.3-0.1-0.5-0.2-0.8
			c-0.3-0.9-0.4-2-0.9-2.8c-0.2-0.3-0.4-0.5-0.6-0.8c0.3-0.2,0.5,0.1,0.7,0.2c0.8,0.5,1.5,1.1,1.8,2c0.2,0.7,0.4,1.3,0.4,2
			c-0.1,0.7,0,1.5,0,2.2c0,0.2,0,0.4,0,0.8c-0.2-0.2-0.3-0.3-0.4-0.4c-0.3-0.5-0.8-0.8-1.2-1.1c-0.8-0.7-1.6-1.4-2.3-2.1
			C134.7,9.1,134.3,8.4,134.2,7.4z"/>
		<path class="st1" d="M106.2,10.3c0.1-0.1,0.2-0.1,0.3-0.2c0.4-0.5,1-0.8,1.5-1.1c0.3-0.2,0.5-0.4,0.7-0.6c0.3-0.3,0.6-0.6,0.9-0.9
			c0.2,0.7-0.1,1.2-0.4,1.6c-0.4,0.5-0.9,1.1-1.4,1.5c-0.5,0.4-1.1,0.7-1.5,1.1c-0.4,0.4-0.9,0.6-1.1,1.2c0,0.1-0.2,0.2-0.3,0.3
			c0-1.2,0-2.3,0-3.5c-0.1-1.3,0.5-2.2,1.3-3.1c0.3-0.3,0.7-0.5,1-0.7c0.1-0.1,0.2,0,0.5,0c-1.3,1.2-1.3,2.8-1.7,4.2
			C106.2,10.2,106.2,10.3,106.2,10.3z"/>
		<path class="st1" d="M111.8,4.1c-0.2,0.2-0.4,0.4-0.6,0.6c-0.4,0.5-0.9,1-1.2,1.5c-0.4,0.6-0.9,1.1-1.4,1.6
			c-0.4,0.4-0.9,0.7-1.3,1.1C107.2,9,107,9,106.9,9.1c0-0.2,0-0.3,0-0.4c0.4-1.2,0.9-2.4,1.8-3.3C109.6,4.7,110.6,4.3,111.8,4.1z"/>
		<path class="st1" d="M132.6,4.1c0.4,0.1,0.8,0.2,1.2,0.3c0.8,0.3,1.5,0.8,2,1.5c0.7,0.9,1.2,1.9,1.4,3c-0.1,0-0.2,0.1-0.2,0
			c-0.4-0.4-1-0.6-1.4-1.1c-0.3-0.4-0.7-0.7-1-1c-0.4-0.4-0.7-0.8-1-1.2c-0.3-0.5-0.6-0.8-1-1.2c-0.1-0.1-0.1-0.1-0.1-0.2
			C132.5,4.2,132.5,4.2,132.6,4.1z"/>
		<path class="st1" d="M130.2,16.8c-0.2,0.3-0.4,0.2-0.7,0.1C129.7,16.5,130,16.7,130.2,16.8z"/>
		<path class="st1" d="M117.9,13.9c0.1,0.2,0.3,0.3,0.4,0.4c-0.1,0-0.2,0.1-0.3,0.1C117.7,14.4,117.8,14.2,117.9,13.9z"/>
	</g>
</g>
</svg>
