<?xml version="1.0" encoding="utf-8"?>
<!-- Generator: Adobe Illustrator 25.4.1, SVG Export Plug-In . SVG Version: 6.00 Build 0)  -->
<!DOCTYPE svg PUBLIC "-//W3C//DTD SVG 1.1//EN" "http://www.w3.org/Graphics/SVG/1.1/DTD/svg11.dtd" [
	<!ENTITY ns_extend "http://ns.adobe.com/Extensibility/1.0/">
	<!ENTITY ns_ai "http://ns.adobe.com/AdobeIllustrator/10.0/">
	<!ENTITY ns_graphs "http://ns.adobe.com/Graphs/1.0/">
	<!ENTITY ns_vars "http://ns.adobe.com/Variables/1.0/">
	<!ENTITY ns_imrep "http://ns.adobe.com/ImageReplacement/1.0/">
	<!ENTITY ns_sfw "http://ns.adobe.com/SaveForWeb/1.0/">
	<!ENTITY ns_custom "http://ns.adobe.com/GenericCustomNamespace/1.0/">
	<!ENTITY ns_adobe_xpath "http://ns.adobe.com/XPath/1.0/">
]>
<svg version="1.1" id="Capa_1" xmlns:x="&ns_extend;" xmlns:i="&ns_ai;" xmlns:graph="&ns_graphs;"
	 xmlns="http://www.w3.org/2000/svg" xmlns:xlink="http://www.w3.org/1999/xlink" x="0px" y="0px" viewBox="0 0 393 84.2"
	 style="enable-background:new 0 0 393 84.2;" xml:space="preserve">
<style type="text/css">
	.st0{fill:#652D90;}
	.st1{fill:#AC85BC;}
	.st2{fill:#D1596E;}
	.st3{fill:#F7D6E2;}
	.st4{fill:#FCECF2;}
	.st5{fill:#F9D9E4;}
	.st6{fill:#B2324E;}
	.st7{fill:#3B2314;}
	.st8{fill:#FAE4EC;}
	.st9{fill:#90278E;}
	.st10{fill:#DCB0C1;}
	.st11{fill:#FDEFF3;}
	.st12{opacity:0.44;fill:#3E2460;}
	.st13{fill:url(#SVGID_1_);}
	.st14{fill:none;}
	.st15{fill:#321929;}
	.st16{fill:#AA7190;}
	.st17{fill:#7D3D63;}
	.st18{fill:#1D1018;}
	.st19{fill:#B48CA0;}
	.st20{fill:#F9E2EA;}
	.st21{fill:#F6CEDD;}
	.st22{fill:#5B2D4A;}
	.st23{fill:#D50F84;}
	.st24{fill:#DFC6D0;}
	.st25{opacity:0.44;fill:#8B1F61;}
	.st26{fill:none;stroke:#404041;stroke-width:0.4584;stroke-miterlimit:10;}
	.st27{fill:#BBBABA;}
	.st28{fill:#9E577F;}
	.st29{fill:#B4ADAD;}
	.st30{fill:#231F20;}
</style>
<metadata>
	<sfw  xmlns="&ns_sfw;">
		<slices></slices>
		<sliceSourceBounds  bottomLeftOrigin="true" height="84.2" width="392.3" x="758.7" y="-582.6"></sliceSourceBounds>
	</sfw>
</metadata>
<g>
	<g>
		<g>
			<path class="st0" d="M179.5,47.5h5.7v1.1h-4.3v3.5h4v1.1h-4V58h-1.4V47.5z"/>
			<path class="st0" d="M193.4,54.1c0,2.8-1.9,4-3.8,4c-2,0-3.6-1.5-3.6-3.9c0-2.5,1.7-4,3.8-4C192,50.3,193.4,51.8,193.4,54.1z
				 M187.4,54.2c0,1.7,1,2.9,2.3,2.9c1.3,0,2.3-1.2,2.3-2.9c0-1.3-0.6-2.9-2.3-2.9S187.4,52.8,187.4,54.2z M191.8,47.2l-1.9,2.2h-1
				l1.4-2.2H191.8z"/>
			<path class="st0" d="M195.2,52.8c0-0.9,0-1.7-0.1-2.4h1.2l0,1.5h0.1c0.3-1,1.2-1.7,2.1-1.7c0.2,0,0.3,0,0.4,0v1.3
				c-0.1,0-0.3,0-0.5,0c-1,0-1.7,0.7-1.8,1.8c0,0.2-0.1,0.4-0.1,0.6v4h-1.4V52.8z"/>
			<path class="st0" d="M206.6,55.9c0,0.8,0,1.5,0.1,2.1h-1.2l-0.1-1.2h0c-0.4,0.6-1.2,1.4-2.5,1.4c-1.2,0-2.6-0.7-2.6-3.3v-4.4h1.4
				v4.2c0,1.4,0.4,2.4,1.7,2.4c0.9,0,1.6-0.6,1.8-1.2c0.1-0.2,0.1-0.5,0.1-0.7v-4.6h1.4V55.9z"/>
			<path class="st0" d="M208.9,52.5c0-0.8,0-1.4-0.1-2h1.2l0.1,1.2h0c0.4-0.7,1.1-1.4,2.4-1.4c1,0,1.8,0.6,2.1,1.5h0
				c0.2-0.4,0.5-0.8,0.8-1c0.5-0.3,1-0.5,1.7-0.5c1,0,2.5,0.7,2.5,3.3V58h-1.3v-4.3c0-1.5-0.5-2.3-1.6-2.3c-0.8,0-1.4,0.6-1.6,1.2
				c-0.1,0.2-0.1,0.4-0.1,0.7V58h-1.3v-4.5c0-1.2-0.5-2.1-1.6-2.1c-0.9,0-1.5,0.7-1.7,1.4c-0.1,0.2-0.1,0.4-0.1,0.7V58h-1.3V52.5z"
				/>
			<path class="st0" d="M225.3,58V47.5h1.5l3.4,5.3c0.8,1.2,1.4,2.3,1.9,3.4l0,0c-0.1-1.4-0.2-2.7-0.2-4.3v-4.4h1.3V58h-1.4
				l-3.3-5.3c-0.7-1.2-1.4-2.4-2-3.5l0,0c0.1,1.3,0.1,2.6,0.1,4.3V58H225.3z"/>
			<path class="st0" d="M239.7,58l-0.1-1h0c-0.4,0.6-1.2,1.1-2.3,1.1c-1.5,0-2.3-1.1-2.3-2.2c0-1.8,1.6-2.8,4.5-2.8V53
				c0-0.6-0.2-1.8-1.7-1.8c-0.7,0-1.4,0.2-2,0.6l-0.3-0.9c0.6-0.4,1.5-0.7,2.5-0.7c2.3,0,2.9,1.6,2.9,3.1v2.8c0,0.7,0,1.3,0.1,1.8
				H239.7z M239.5,54.1c-1.5,0-3.2,0.2-3.2,1.7c0,0.9,0.6,1.3,1.3,1.3c1,0,1.6-0.6,1.8-1.3c0-0.1,0.1-0.3,0.1-0.4V54.1z"/>
			<path class="st0" d="M248.4,57.7c-0.4,0.2-1.2,0.4-2.2,0.4c-2.3,0-3.8-1.5-3.8-3.9c0-2.3,1.6-4,4.1-4c0.8,0,1.5,0.2,1.9,0.4
				l-0.3,1.1c-0.3-0.2-0.8-0.4-1.6-0.4c-1.7,0-2.7,1.3-2.7,2.9c0,1.8,1.1,2.8,2.6,2.8c0.8,0,1.3-0.2,1.7-0.4L248.4,57.7z"/>
			<path class="st0" d="M251.6,48.3c0,0.5-0.3,0.8-0.9,0.8c-0.5,0-0.8-0.4-0.8-0.8c0-0.5,0.4-0.9,0.9-0.9
				C251.3,47.4,251.6,47.8,251.6,48.3z M250,58v-7.6h1.4V58H250z"/>
			<path class="st0" d="M260.6,54.1c0,2.8-1.9,4-3.8,4c-2,0-3.6-1.5-3.6-3.9c0-2.5,1.7-4,3.8-4C259.1,50.3,260.6,51.8,260.6,54.1z
				 M254.6,54.2c0,1.7,1,2.9,2.3,2.9c1.3,0,2.3-1.2,2.3-2.9c0-1.3-0.6-2.9-2.3-2.9S254.6,52.8,254.6,54.2z"/>
			<path class="st0" d="M262.3,52.5c0-0.8,0-1.4-0.1-2h1.2l0.1,1.2h0c0.4-0.7,1.2-1.4,2.5-1.4c1,0,2.7,0.6,2.7,3.2V58h-1.4v-4.4
				c0-1.2-0.5-2.2-1.8-2.2c-0.9,0-1.6,0.6-1.8,1.4c-0.1,0.2-0.1,0.4-0.1,0.6V58h-1.4V52.5z"/>
			<path class="st0" d="M275.1,58l-0.1-1h0c-0.4,0.6-1.2,1.1-2.3,1.1c-1.5,0-2.3-1.1-2.3-2.2c0-1.8,1.6-2.8,4.5-2.8V53
				c0-0.6-0.2-1.8-1.7-1.8c-0.7,0-1.4,0.2-2,0.6l-0.3-0.9c0.6-0.4,1.5-0.7,2.5-0.7c2.3,0,2.9,1.6,2.9,3.1v2.8c0,0.7,0,1.3,0.1,1.8
				H275.1z M274.9,54.1c-1.5,0-3.2,0.2-3.2,1.7c0,0.9,0.6,1.3,1.3,1.3c1,0,1.6-0.6,1.8-1.3c0-0.1,0.1-0.3,0.1-0.4V54.1z"/>
			<path class="st0" d="M278.5,46.9h1.4V58h-1.4V46.9z"/>
			<path class="st0" d="M292,46.9V56c0,0.7,0,1.4,0.1,2h-1.2l-0.1-1.3h0c-0.4,0.8-1.3,1.5-2.6,1.5c-1.8,0-3.2-1.5-3.2-3.8
				c0-2.5,1.5-4.1,3.4-4.1c1.2,0,1.9,0.5,2.3,1.2h0v-4.5H292z M290.7,53.5c0-0.2,0-0.4-0.1-0.6c-0.2-0.9-1-1.6-2-1.6
				c-1.4,0-2.3,1.2-2.3,2.9c0,1.5,0.8,2.8,2.2,2.8c0.9,0,1.8-0.6,2-1.6c0-0.2,0.1-0.4,0.1-0.6V53.5z"/>
			<path class="st0" d="M295.1,54.5c0,1.9,1.2,2.6,2.6,2.6c1,0,1.6-0.2,2.1-0.4l0.2,1c-0.5,0.2-1.3,0.5-2.5,0.5
				c-2.3,0-3.7-1.5-3.7-3.8s1.3-4.1,3.5-4.1c2.5,0,3.1,2.2,3.1,3.6c0,0.3,0,0.5,0,0.6H295.1z M299.1,53.5c0-0.9-0.4-2.2-1.9-2.2
				c-1.4,0-2,1.3-2.1,2.2H299.1z"/>
			<path class="st0" d="M306.9,47.5V58h-1.4V47.5H306.9z"/>
			<path class="st0" d="M309.3,52.5c0-0.8,0-1.4-0.1-2h1.2l0.1,1.2h0c0.4-0.7,1.2-1.4,2.5-1.4c1,0,2.7,0.6,2.7,3.2V58h-1.4v-4.4
				c0-1.2-0.5-2.2-1.8-2.2c-0.9,0-1.6,0.6-1.8,1.4c-0.1,0.2-0.1,0.4-0.1,0.6V58h-1.4V52.5z"/>
			<path class="st0" d="M317.8,56.6c0.4,0.3,1.1,0.5,1.8,0.5c1,0,1.5-0.5,1.5-1.1c0-0.7-0.4-1-1.4-1.4c-1.4-0.5-2-1.2-2-2.1
				c0-1.2,1-2.2,2.6-2.2c0.8,0,1.4,0.2,1.9,0.5l-0.3,1c-0.3-0.2-0.8-0.4-1.5-0.4c-0.8,0-1.3,0.5-1.3,1c0,0.6,0.5,0.9,1.4,1.3
				c1.3,0.5,2,1.2,2,2.3c0,1.3-1,2.3-2.8,2.3c-0.8,0-1.6-0.2-2.1-0.5L317.8,56.6z"/>
			<path class="st0" d="M325.9,48.3v2.2h2v1h-2v4.1c0,0.9,0.3,1.5,1,1.5c0.4,0,0.6,0,0.8-0.1l0.1,1c-0.3,0.1-0.7,0.2-1.2,0.2
				c-0.6,0-1.2-0.2-1.5-0.6c-0.4-0.4-0.5-1.1-0.5-2v-4.1h-1.2v-1h1.2v-1.8L325.9,48.3z"/>
			<path class="st0" d="M333.6,58l-0.1-1h0c-0.4,0.6-1.2,1.1-2.3,1.1c-1.5,0-2.3-1.1-2.3-2.2c0-1.8,1.6-2.8,4.5-2.8V53
				c0-0.6-0.2-1.8-1.7-1.8c-0.7,0-1.4,0.2-2,0.6l-0.3-0.9c0.6-0.4,1.5-0.7,2.5-0.7c2.3,0,2.9,1.6,2.9,3.1v2.8c0,0.7,0,1.3,0.1,1.8
				H333.6z M332.4,47.2l1.5,2.2h-1l-0.9-1.5h0l-0.9,1.5h-1l1.5-2.2H332.4z M333.4,54.1c-1.5,0-3.2,0.2-3.2,1.7
				c0,0.9,0.6,1.3,1.3,1.3c1,0,1.6-0.6,1.8-1.3c0-0.1,0.1-0.3,0.1-0.4V54.1z"/>
			<path class="st0" d="M336.9,52.5c0-0.8,0-1.4-0.1-2h1.2l0.1,1.2h0c0.4-0.7,1.2-1.4,2.5-1.4c1,0,2.7,0.6,2.7,3.2V58H342v-4.4
				c0-1.2-0.5-2.2-1.8-2.2c-0.9,0-1.6,0.6-1.8,1.4c-0.1,0.2-0.1,0.4-0.1,0.6V58h-1.4V52.5z"/>
			<path class="st0" d="M351,57.7c-0.4,0.2-1.2,0.4-2.2,0.4c-2.3,0-3.8-1.5-3.8-3.9c0-2.3,1.6-4,4.1-4c0.8,0,1.5,0.2,1.9,0.4
				l-0.3,1.1c-0.3-0.2-0.8-0.4-1.6-0.4c-1.7,0-2.7,1.3-2.7,2.9c0,1.8,1.1,2.8,2.6,2.8c0.8,0,1.3-0.2,1.7-0.4L351,57.7z"/>
			<path class="st0" d="M354.1,48.3c0,0.5-0.3,0.8-0.9,0.8c-0.5,0-0.8-0.4-0.8-0.8c0-0.5,0.4-0.9,0.9-0.9
				C353.8,47.4,354.1,47.8,354.1,48.3z M352.6,58v-7.6h1.4V58H352.6z"/>
			<path class="st0" d="M360.4,58l-0.1-1h0c-0.4,0.6-1.2,1.1-2.3,1.1c-1.5,0-2.3-1.1-2.3-2.2c0-1.8,1.6-2.8,4.5-2.8V53
				c0-0.6-0.2-1.8-1.7-1.8c-0.7,0-1.4,0.2-2,0.6l-0.3-0.9c0.6-0.4,1.5-0.7,2.5-0.7c2.3,0,2.9,1.6,2.9,3.1v2.8c0,0.7,0,1.3,0.1,1.8
				H360.4z M360.2,54.1c-1.5,0-3.2,0.2-3.2,1.7c0,0.9,0.6,1.3,1.3,1.3c1,0,1.6-0.6,1.8-1.3c0-0.1,0.1-0.3,0.1-0.4V54.1z"/>
			<path class="st0" d="M363.6,56.6c0.4,0.3,1.1,0.5,1.8,0.5c1,0,1.5-0.5,1.5-1.1c0-0.7-0.4-1-1.4-1.4c-1.4-0.5-2-1.2-2-2.1
				c0-1.2,1-2.2,2.6-2.2c0.8,0,1.4,0.2,1.9,0.5l-0.3,1c-0.3-0.2-0.8-0.4-1.5-0.4c-0.8,0-1.3,0.5-1.3,1c0,0.6,0.5,0.9,1.4,1.3
				c1.3,0.5,2,1.2,2,2.3c0,1.3-1,2.3-2.8,2.3c-0.8,0-1.6-0.2-2.1-0.5L363.6,56.6z"/>
			<path class="st0" d="M186,65.6v9.1c0,0.7,0,1.4,0.1,2h-1.2l-0.1-1.3h0c-0.4,0.8-1.3,1.5-2.6,1.5c-1.8,0-3.2-1.5-3.2-3.8
				c0-2.5,1.5-4.1,3.4-4.1c1.2,0,1.9,0.5,2.3,1.2h0v-4.5H186z M184.6,72.3c0-0.2,0-0.4-0.1-0.6c-0.2-0.9-1-1.6-2-1.6
				c-1.4,0-2.3,1.2-2.3,2.9c0,1.5,0.8,2.8,2.2,2.8c0.9,0,1.8-0.6,2-1.6c0-0.2,0.1-0.4,0.1-0.6V72.3z"/>
			<path class="st0" d="M189,73.2c0,1.9,1.2,2.6,2.6,2.6c1,0,1.6-0.2,2.1-0.4l0.2,1c-0.5,0.2-1.3,0.5-2.5,0.5
				c-2.3,0-3.7-1.5-3.7-3.8s1.3-4.1,3.5-4.1c2.5,0,3.1,2.2,3.1,3.6c0,0.3,0,0.5,0,0.6H189z M193.1,72.2c0-0.9-0.4-2.2-1.9-2.2
				c-1.4,0-2,1.3-2.1,2.2H193.1z"/>
			<path class="st0" d="M208.3,72.1c-0.1-1.5-0.2-3.2-0.2-4.5h0c-0.4,1.2-0.8,2.5-1.3,4l-1.9,5.1h-1l-1.7-5
				c-0.5-1.5-0.9-2.8-1.2-4.1h0c0,1.3-0.1,3.1-0.2,4.7l-0.3,4.5h-1.3l0.7-10.5h1.7l1.8,5.1c0.4,1.3,0.8,2.5,1.1,3.5h0
				c0.3-1.1,0.6-2.2,1.1-3.5l1.9-5.1h1.7l0.7,10.5h-1.3L208.3,72.1z"/>
			<path class="st0" d="M218.3,74.7c0,0.8,0,1.5,0.1,2.1h-1.2l-0.1-1.2h0c-0.4,0.6-1.2,1.4-2.5,1.4c-1.2,0-2.6-0.7-2.6-3.3v-4.4h1.4
				v4.2c0,1.4,0.4,2.4,1.7,2.4c0.9,0,1.6-0.6,1.8-1.2c0.1-0.2,0.1-0.5,0.1-0.7v-4.6h1.4V74.7z"/>
			<path class="st0" d="M220.6,65.6h1.4v11.1h-1.4V65.6z"/>
			<path class="st0" d="M224.3,65.6h1.4v4.7h0c0.2-0.4,0.6-0.7,1-1c0.4-0.2,0.9-0.4,1.4-0.4c1,0,2.6,0.6,2.6,3.2v4.5h-1.4v-4.3
				c0-1.2-0.5-2.2-1.8-2.2c-0.9,0-1.6,0.6-1.8,1.4c-0.1,0.2-0.1,0.4-0.1,0.7v4.6h-1.4V65.6z"/>
			<path class="st0" d="M233.8,73.2c0,1.9,1.2,2.6,2.6,2.6c1,0,1.6-0.2,2.1-0.4l0.2,1c-0.5,0.2-1.3,0.5-2.5,0.5
				c-2.3,0-3.7-1.5-3.7-3.8s1.3-4.1,3.5-4.1c2.5,0,3.1,2.2,3.1,3.6c0,0.3,0,0.5,0,0.6H233.8z M237.8,72.2c0-0.9-0.4-2.2-1.9-2.2
				c-1.4,0-2,1.3-2.1,2.2H237.8z"/>
			<path class="st0" d="M240.8,71.5c0-0.9,0-1.7-0.1-2.4h1.2l0,1.5h0.1c0.3-1,1.2-1.7,2.1-1.7c0.2,0,0.3,0,0.4,0v1.3
				c-0.1,0-0.3,0-0.5,0c-1,0-1.7,0.7-1.8,1.8c0,0.2-0.1,0.4-0.1,0.6v4h-1.4V71.5z"/>
			<path class="st0" d="M246.5,73.2c0,1.9,1.2,2.6,2.6,2.6c1,0,1.6-0.2,2.1-0.4l0.2,1c-0.5,0.2-1.3,0.5-2.5,0.5
				c-2.3,0-3.7-1.5-3.7-3.8s1.3-4.1,3.5-4.1c2.5,0,3.1,2.2,3.1,3.6c0,0.3,0,0.5,0,0.6H246.5z M250.6,72.2c0-0.9-0.4-2.2-1.9-2.2
				c-1.4,0-2,1.3-2.1,2.2H250.6z"/>
			<path class="st0" d="M253.4,75.3c0.4,0.3,1.1,0.5,1.8,0.5c1,0,1.5-0.5,1.5-1.1c0-0.7-0.4-1-1.4-1.4c-1.4-0.5-2-1.2-2-2.1
				c0-1.2,1-2.2,2.6-2.2c0.8,0,1.4,0.2,1.9,0.5l-0.3,1c-0.3-0.2-0.8-0.4-1.5-0.4c-0.8,0-1.3,0.5-1.3,1c0,0.6,0.5,0.9,1.4,1.3
				c1.3,0.5,2,1.2,2,2.3c0,1.3-1,2.3-2.8,2.3c-0.8,0-1.6-0.2-2.1-0.5L253.4,75.3z"/>
			<path class="st0" d="M269.6,65.6v9.1c0,0.7,0,1.4,0.1,2h-1.2l-0.1-1.3h0c-0.4,0.8-1.3,1.5-2.6,1.5c-1.8,0-3.2-1.5-3.2-3.8
				c0-2.5,1.5-4.1,3.4-4.1c1.2,0,1.9,0.5,2.3,1.2h0v-4.5H269.6z M268.3,72.3c0-0.2,0-0.4-0.1-0.6c-0.2-0.9-1-1.6-2-1.6
				c-1.4,0-2.3,1.2-2.3,2.9c0,1.5,0.8,2.8,2.2,2.8c0.9,0,1.8-0.6,2-1.6c0-0.2,0.1-0.4,0.1-0.6V72.3z"/>
			<path class="st0" d="M272.7,73.2c0,1.9,1.2,2.6,2.6,2.6c1,0,1.6-0.2,2.1-0.4l0.2,1c-0.5,0.2-1.3,0.5-2.5,0.5
				c-2.3,0-3.7-1.5-3.7-3.8s1.3-4.1,3.5-4.1c2.5,0,3.1,2.2,3.1,3.6c0,0.3,0,0.5,0,0.6H272.7z M276.7,72.2c0-0.9-0.4-2.2-1.9-2.2
				c-1.4,0-2,1.3-2.1,2.2H276.7z"/>
			<path class="st0" d="M283.1,66.3c0.7-0.1,1.5-0.2,2.6-0.2c1.3,0,2.3,0.3,3,0.9c0.6,0.5,0.9,1.3,0.9,2.2c0,1-0.3,1.7-0.8,2.2
				c-0.7,0.8-1.9,1.2-3.2,1.2c-0.4,0-0.8,0-1.1-0.1v4.2h-1.4V66.3z M284.5,71.4c0.3,0.1,0.7,0.1,1.1,0.1c1.6,0,2.6-0.8,2.6-2.2
				c0-1.4-1-2.1-2.5-2.1c-0.6,0-1,0-1.3,0.1V71.4z"/>
			<path class="st0" d="M295.2,76.7l-0.1-1h0c-0.4,0.6-1.2,1.1-2.3,1.1c-1.5,0-2.3-1.1-2.3-2.2c0-1.8,1.6-2.8,4.5-2.8v-0.2
				c0-0.6-0.2-1.8-1.7-1.8c-0.7,0-1.4,0.2-2,0.6l-0.3-0.9c0.6-0.4,1.5-0.7,2.5-0.7c2.3,0,2.9,1.6,2.9,3.1v2.8c0,0.7,0,1.3,0.1,1.8
				H295.2z M295,72.9c-1.5,0-3.2,0.2-3.2,1.7c0,0.9,0.6,1.3,1.3,1.3c1,0,1.6-0.6,1.8-1.3c0-0.1,0.1-0.3,0.1-0.4V72.9z"/>
			<path class="st0" d="M298.5,71.5c0-0.9,0-1.7-0.1-2.4h1.2l0,1.5h0.1c0.3-1,1.2-1.7,2.1-1.7c0.2,0,0.3,0,0.4,0v1.3
				c-0.1,0-0.3,0-0.5,0c-1,0-1.7,0.7-1.8,1.8c0,0.2-0.1,0.4-0.1,0.6v4h-1.4V71.5z"/>
			<path class="st0" d="M305.7,67v2.2h2v1h-2v4.1c0,0.9,0.3,1.5,1,1.5c0.4,0,0.6,0,0.8-0.1l0.1,1c-0.3,0.1-0.7,0.2-1.2,0.2
				c-0.6,0-1.2-0.2-1.5-0.6c-0.4-0.4-0.5-1.1-0.5-2v-4.1h-1.2v-1h1.2v-1.8L305.7,67z"/>
			<path class="st0" d="M310.7,67.1c0,0.5-0.3,0.8-0.9,0.8c-0.5,0-0.8-0.4-0.8-0.8c0-0.5,0.4-0.9,0.9-0.9
				C310.4,66.2,310.7,66.6,310.7,67.1z M309.2,76.7v-7.6h1.4v7.6H309.2z"/>
			<path class="st0" d="M319.4,65.6v9.1c0,0.7,0,1.4,0.1,2h-1.2l-0.1-1.3h0c-0.4,0.8-1.3,1.5-2.6,1.5c-1.8,0-3.2-1.5-3.2-3.8
				c0-2.5,1.5-4.1,3.4-4.1c1.2,0,1.9,0.5,2.3,1.2h0v-4.5H319.4z M318,72.3c0-0.2,0-0.4-0.1-0.6c-0.2-0.9-1-1.6-2-1.6
				c-1.4,0-2.3,1.2-2.3,2.9c0,1.5,0.8,2.8,2.2,2.8c0.9,0,1.8-0.6,2-1.6c0-0.2,0.1-0.4,0.1-0.6V72.3z"/>
			<path class="st0" d="M328.5,72.9c0,2.8-1.9,4-3.8,4c-2,0-3.6-1.5-3.6-3.9c0-2.5,1.7-4,3.8-4C327,69,328.5,70.6,328.5,72.9z
				 M322.5,73c0,1.7,1,2.9,2.3,2.9c1.3,0,2.3-1.2,2.3-2.9c0-1.3-0.6-2.9-2.3-2.9S322.5,71.5,322.5,73z"/>
			<path class="st0" d="M330,75.3c0.4,0.3,1.1,0.5,1.8,0.5c1,0,1.5-0.5,1.5-1.1c0-0.7-0.4-1-1.4-1.4c-1.4-0.5-2-1.2-2-2.1
				c0-1.2,1-2.2,2.6-2.2c0.8,0,1.4,0.2,1.9,0.5l-0.3,1c-0.3-0.2-0.8-0.4-1.5-0.4c-0.8,0-1.3,0.5-1.3,1c0,0.6,0.5,0.9,1.4,1.3
				c1.3,0.5,2,1.2,2,2.3c0,1.3-1,2.3-2.8,2.3c-0.8,0-1.6-0.2-2.1-0.5L330,75.3z"/>
			<path class="st0" d="M339.8,66.3c0.7-0.1,1.5-0.2,2.6-0.2c1.3,0,2.3,0.3,3,0.9c0.6,0.5,0.9,1.3,0.9,2.2c0,1-0.3,1.7-0.8,2.2
				c-0.7,0.8-1.9,1.2-3.2,1.2c-0.4,0-0.8,0-1.1-0.1v4.2h-1.4V66.3z M341.1,71.4c0.3,0.1,0.7,0.1,1.1,0.1c1.6,0,2.6-0.8,2.6-2.2
				c0-1.4-1-2.1-2.5-2.1c-0.6,0-1,0-1.3,0.1V71.4z"/>
			<path class="st0" d="M354.5,72.9c0,2.8-1.9,4-3.8,4c-2,0-3.6-1.5-3.6-3.9c0-2.5,1.7-4,3.8-4C353,69,354.5,70.6,354.5,72.9z
				 M348.5,73c0,1.7,1,2.9,2.3,2.9c1.3,0,2.3-1.2,2.3-2.9c0-1.3-0.6-2.9-2.3-2.9S348.5,71.5,348.5,73z"/>
			<path class="st0" d="M356.2,65.6h1.4v11.1h-1.4V65.6z"/>
			<path class="st0" d="M362.7,65.9l-1.9,2.2h-1l1.4-2.2H362.7z M359.9,76.7v-7.6h1.4v7.6H359.9z"/>
			<path class="st0" d="M365.2,67v2.2h2v1h-2v4.1c0,0.9,0.3,1.5,1,1.5c0.4,0,0.6,0,0.8-0.1l0.1,1c-0.3,0.1-0.7,0.2-1.2,0.2
				c-0.6,0-1.2-0.2-1.5-0.6c-0.4-0.4-0.5-1.1-0.5-2v-4.1h-1.2v-1h1.2v-1.8L365.2,67z"/>
			<path class="st0" d="M370.3,67.1c0,0.5-0.3,0.8-0.9,0.8c-0.5,0-0.8-0.4-0.8-0.8c0-0.5,0.4-0.9,0.9-0.9
				C370,66.2,370.3,66.6,370.3,67.1z M368.8,76.7v-7.6h1.4v7.6H368.8z"/>
			<path class="st0" d="M377.8,76.5c-0.4,0.2-1.2,0.4-2.2,0.4c-2.3,0-3.8-1.5-3.8-3.9c0-2.3,1.6-4,4.1-4c0.8,0,1.5,0.2,1.9,0.4
				l-0.3,1.1c-0.3-0.2-0.8-0.4-1.6-0.4c-1.7,0-2.7,1.3-2.7,2.9c0,1.8,1.1,2.8,2.6,2.8c0.8,0,1.3-0.2,1.7-0.4L377.8,76.5z"/>
			<path class="st0" d="M386.2,72.9c0,2.8-1.9,4-3.8,4c-2,0-3.6-1.5-3.6-3.9c0-2.5,1.7-4,3.8-4C384.7,69,386.2,70.6,386.2,72.9z
				 M380.2,73c0,1.7,1,2.9,2.3,2.9c1.3,0,2.3-1.2,2.3-2.9c0-1.3-0.6-2.9-2.3-2.9S380.2,71.5,380.2,73z"/>
			<path class="st0" d="M387.7,75.3c0.4,0.3,1.1,0.5,1.8,0.5c1,0,1.5-0.5,1.5-1.1c0-0.7-0.4-1-1.4-1.4c-1.4-0.5-2-1.2-2-2.1
				c0-1.2,1-2.2,2.6-2.2c0.8,0,1.4,0.2,1.9,0.5l-0.3,1c-0.3-0.2-0.8-0.4-1.5-0.4c-0.8,0-1.3,0.5-1.3,1c0,0.6,0.5,0.9,1.4,1.3
				c1.3,0.5,2,1.2,2,2.3c0,1.3-1,2.3-2.8,2.3c-0.8,0-1.6-0.2-2.1-0.5L387.7,75.3z"/>
		</g>
	</g>
	<g>
		<g>
			<path class="st0" d="M179.6,7.3h14.1v2.8h-10.7v8.7h9.9v2.8h-9.9v11.9h-3.4V7.3z"/>
			<path class="st0" d="M198.5,33.5V7.3h3.7l8.4,13.3c1.9,3.1,3.5,5.8,4.7,8.5l0.1,0c-0.3-3.5-0.4-6.7-0.4-10.8v-11h3.2v26.2h-3.4
				l-8.3-13.3c-1.8-2.9-3.6-5.9-4.9-8.8l-0.1,0c0.2,3.3,0.3,6.5,0.3,10.8v11.2H198.5z"/>
			<path class="st0" d="M227.5,7.3v26.2h-3.4V7.3H227.5z"/>
			<path class="st0" d="M233.7,19.8c0-1.9,0-3.5-0.2-5.1h3l0.2,3.1h0.1c0.9-1.8,3.1-3.5,6.2-3.5c2.6,0,6.7,1.6,6.7,8v11.2h-3.4V22.6
				c0-3-1.1-5.6-4.4-5.6c-2.3,0-4,1.6-4.6,3.5c-0.2,0.4-0.2,1-0.2,1.6v11.3h-3.4V19.8z"/>
			<path class="st0" d="M277.5,22c-0.2-3.7-0.4-8.1-0.4-11.3H277c-0.9,3.1-2,6.3-3.3,10l-4.6,12.7h-2.6l-4.2-12.5
				c-1.2-3.7-2.3-7.1-3-10.2h-0.1c-0.1,3.3-0.3,7.7-0.5,11.6l-0.7,11.2h-3.2l1.8-26.2h4.3l4.5,12.7c1.1,3.2,2,6.1,2.6,8.8h0.1
				c0.7-2.6,1.6-5.5,2.8-8.8l4.7-12.7h4.3l1.6,26.2h-3.3L277.5,22z"/>
			<path class="st0" d="M286.7,7.6c1.6-0.3,3.8-0.5,6.5-0.5c3.3,0,5.8,0.8,7.4,2.2c1.4,1.2,2.3,3.2,2.3,5.5c0,2.4-0.7,4.2-2,5.6
				c-1.8,1.9-4.7,2.9-8,2.9c-1,0-1.9,0-2.7-0.2v10.5h-3.4V7.6z M290.1,20.2c0.7,0.2,1.7,0.3,2.8,0.3c4.1,0,6.6-2,6.6-5.6
				c0-3.5-2.5-5.1-6.2-5.1c-1.5,0-2.6,0.1-3.2,0.3V20.2z"/>
			<path class="st0" d="M307.4,7.6c1.6-0.3,3.8-0.5,6.5-0.5c3.3,0,5.8,0.8,7.4,2.2c1.4,1.2,2.3,3.2,2.3,5.5c0,2.4-0.7,4.2-2,5.6
				c-1.8,1.9-4.7,2.9-8,2.9c-1,0-1.9,0-2.7-0.2v10.5h-3.4V7.6z M310.8,20.2c0.7,0.2,1.7,0.3,2.8,0.3c4.1,0,6.6-2,6.6-5.6
				c0-3.5-2.5-5.1-6.2-5.1c-1.5,0-2.6,0.1-3.2,0.3V20.2z"/>
		</g>
	</g>
	<g>
		<rect class="st1" width="166.7" height="78.2"/>
		<g>
			<path class="st2" d="M42.6,31.7c0.3,0,0.5,0.1,0.7,0.3c0.2,0.3,0.5,0.6,0.7,0.9c0.4,0.4,0.8,0.6,1.3,0.6c0.5,0,1,0.1,1.4,0.4
				c0.4,0.2,0.8,0.4,1.3,0.4c0.2,0,0.5,0,0.7,0c0.2,0,0.2,0,0.2,0.2c0.2,1.2,0.3,2.4-0.1,3.6c-0.3,0.9-0.5,1.9-0.6,2.9
				c0,0.6,0,1.2,0.2,1.8c0.2,0.5,0.1,1-0.1,1.6c-0.3,0.8-0.7,1.5-1,2.3c-0.2,0.6-0.3,1.1-0.4,1.7l0,0c-0.1,0.9,0.2,1.7,0.5,2.5
				c0.1,0.4,0.3,0.9,0.3,1.4c0,0.7-0.2,1.4-0.5,2c-0.3,0.6-0.6,1.3-0.7,2c-0.1,0.6-0.1,1.2,0.3,1.7c0.5,0.6,0.5,1.3,0.4,2
				c-0.1,0.3-0.1,0.6-0.1,0.9c0.1,0.6,0.6,1,1.2,0.9c0.4-0.1,0.7-0.1,1.1-0.3c0.3-0.1,0.6-0.2,0.9-0.2c0.5-0.1,1-0.3,1.5-0.6
				c0.1-0.1,0.3-0.1,0.4,0l0,0c1,0.3,1.9,0.1,2.9-0.2c0.7-0.3,1.4-0.4,2.1-0.4c0.6,0,1.1,0.1,1.7,0.3l0,0c0.2,0,0.5,0.1,0.7,0.1v0
				c1.7,0.3,3.2-0.1,4.5-1c0.5-0.3,1-0.7,1.5-1c0.8-0.5,1.7-0.8,2.7-0.7c0.4,0,0.8,0.1,1.2,0.1c0.6,0,0.9-0.3,1-0.9
				c0.1-1,0-1.9-0.4-2.8c-0.3-0.6-0.7-1.1-1.1-1.7c-0.4-0.5-0.6-1.2-0.6-1.8c0-0.6,0-1.2,0-1.8c0-0.8-0.2-1.6-0.6-2.3
				c-0.3-0.5-0.7-1-1.1-1.5c-0.9-1-1.7-2-2-3.3c-0.3-1-0.4-1.9-0.5-2.9c-0.1-1.2-0.5-2.4-1.3-3.3c-0.3-0.4-0.7-0.7-1.1-1.1
				c-0.1-0.1-0.2-0.2-0.2-0.4c0-0.4-0.1-0.8-0.2-1.2c-0.3-1.3-0.7-2.6-1-3.9c-0.2-0.6-0.5-1.1-0.8-1.7c-0.7-1-1.5-1.9-2.6-2.5
				c-1.4-0.9-2.7-1.8-4.3-2.1c-1.1-0.2-2.3-0.4-3.4-0.5c-1,0-2,0.2-2.9,0.6c-1,0.4-1.7,1.3-2.3,2.1c-0.3,0.5-0.6,1-0.9,1.5
				c-0.3,0.6-0.8,1.1-1.5,1.3c-0.4,0.1-0.7,0.4-1.1,0.5c-0.9,0.5-1.4,1.3-1.5,2.3c0,0.3,0.1,0.5,0.4,0.6c0.1,0,0.2,0.1,0.2,0.1
				c0.4,0.2,0.8,0.5,1.3,0.6h0C41.5,32,42,31.8,42.6,31.7z"/>
			<path class="st3" d="M55,83.5c-0.3-1.3-0.6-2.7-0.9-4c-0.2-0.8-0.2-1.6-0.3-2.4c-0.1-0.7-0.2-1.4-0.3-2.1c-0.1-1-0.3-2-0.5-3
				c-0.1-0.3-0.1-0.5-0.2-0.8c-0.3-0.8-0.5-1.7-0.7-2.5c-0.2-0.8-0.3-1.7-0.4-2.6c-0.1-0.9-0.1-1.9-0.1-2.8c0-0.9,0.2-1.8,0.6-2.6
				c0-0.1,0.1-0.2,0.2-0.2l0,0l0,0c-0.2-0.1-0.3-0.1-0.4,0c-0.5,0.3-1,0.5-1.5,0.6c-0.3,0.1-0.6,0.1-0.9,0.2
				c-0.3,0.2-0.7,0.2-1.1,0.3c-0.6,0.1-1.1-0.2-1.2-0.9c-0.1-0.3,0-0.6,0.1-0.9c0.1-0.7,0.1-1.4-0.4-2c-0.4-0.5-0.5-1.1-0.3-1.7
				c0.1-0.7,0.4-1.3,0.7-2c0.3-0.6,0.6-1.3,0.5-2c0-0.5-0.2-0.9-0.3-1.4c-0.3-0.8-0.5-1.6-0.5-2.5c0,0.1-0.1,0.2-0.2,0.2
				c-0.2,0.1-0.4,0.2-0.6,0.3c-0.1,0.1-0.3,0.2-0.4,0.4c-0.1,0.1-0.2,0.3-0.1,0.4c0.3,0.8,0.4,1.7,0.6,2.5c0.1,0.3,0.1,0.6,0.2,0.9
				c0,0.2,0,0.4-0.2,0.6c-0.7,0.6-1.2,1.3-1.8,2c-0.7,1-1.6,1.9-2.6,2.7c-0.7,0.5-1.3,1.1-1.9,1.7c-0.1,0.1-0.1,0.2-0.3,0.2l0,0
				c-0.3,0.3-0.6,0.6-0.9,0.9c-0.8,0.7-1.5,1.4-2.1,2.2c-0.8,1.1-1.3,2.3-1.6,3.6c-0.2,0.9-0.4,1.8-0.2,2.8c0.2,1,0.5,1.9,1.2,2.6
				c0.1,0.1,0.1,0.2,0,0.3c-0.3,0.9-0.4,1.8-0.7,2.8c-0.3,1.1-0.5,2.3-0.7,3.4c-0.1,0.5,0,1-0.2,1.4c-0.3,1.1-0.6,2.1-0.9,3.2
				c-0.1,0.2-0.1,0.5-0.2,0.7h21.6C55.1,83.9,55,83.7,55,83.5z"/>
			<path class="st4" d="M60,61.5c-0.2-0.3-0.4-0.6-0.6-0.9c-0.1-0.1-0.2-0.3-0.4-0.4l0,0l0,0c-0.6-0.2-1.1-0.3-1.7-0.3
				c-0.7,0-1.4,0.1-2.1,0.4c-0.9,0.4-1.9,0.5-2.9,0.2l0,0c-0.1,0-0.1,0.1-0.2,0.2c-0.4,0.8-0.5,1.7-0.6,2.6c0,0.9,0,1.9,0.1,2.8
				c0.1,0.9,0.2,1.7,0.4,2.6c0.2,0.8,0.4,1.7,0.7,2.5c0.1,0.3,0.1,0.5,0.2,0.8c0.2,1,0.4,2,0.5,3c0.1,0.7,0.2,1.4,0.3,2.1
				c0.1,0.8,0.2,1.6,0.3,2.4c0.3,1.3,0.5,2.7,0.9,4c0,0.2,0.1,0.4,0.1,0.6h9.7c0-0.1,0-0.3,0-0.4c0-0.4-0.1-0.8-0.1-1.2
				c-0.1-0.6-0.1-1.2-0.2-1.8c-0.1-0.4-0.1-0.7-0.2-1.1c-0.2-1-0.3-2.1-0.4-3.1c-0.1-0.7-0.1-1.4-0.2-2.1c0-0.4-0.1-0.7-0.1-1
				c0-0.1,0-0.2,0-0.3l0,0c0,0,0-0.1,0-0.1c-0.2-1.1-0.4-2.1-0.7-3.2c-0.3-1.2-0.8-2.4-1.1-3.7C61.5,64.4,60.9,62.9,60,61.5
				C60.1,61.6,60.1,61.6,60,61.5z"/>
			<path class="st2" d="M39.9,59.9c0.6-0.6,1.2-1.2,1.9-1.7c1-0.8,1.9-1.6,2.6-2.7c0.5-0.7,1.1-1.4,1.8-2c0.2-0.2,0.2-0.4,0.2-0.6
				c-0.1-0.3-0.1-0.6-0.2-0.9c-0.2-0.8-0.3-1.7-0.6-2.5c-0.1-0.2,0-0.3,0.1-0.4c0.1-0.1,0.3-0.2,0.4-0.4l0,0
				c-0.1-0.3-0.2-0.6-0.3-0.9c-0.1-0.4-0.3-0.8-0.5-1.2c-0.2-0.4-0.4-0.8-0.6-1.2c-0.1-0.2-0.2-0.3-0.5-0.2
				c-0.9,0.1-1.8,0.2-2.7,0.1c-0.5,0-1-0.1-1.5-0.2c-0.6-0.2-1-0.5-1.4-1c-0.7-0.9-0.6-1.8-0.3-2.8c0,0,0-0.1,0-0.1
				c-0.2-0.4-0.2-0.6,0.2-0.8c0.2-0.1,0.3-0.2,0.1-0.4c-0.2-0.2-0.1-0.5,0.1-0.6c0.1-0.1,0.2-0.1,0.3-0.1c0.1-0.4,0.2-0.7,0.1-1.1
				c0-0.1,0-0.3-0.1-0.4c0-0.1-0.1-0.2-0.2-0.1l0,0c0,0.1-0.1,0.1-0.1,0.2c-1,1.5-1.5,3.1-1.4,4.9c0,0.4,0,0.8,0,1.2
				c0,1-0.3,2-0.9,2.8c-0.4,0.5-0.8,1.1-1.1,1.6c-0.5,0.8-1.1,1.6-1.4,2.5c-0.4,1-0.5,2,0.1,3c0.2,0.3,0.2,0.6,0.2,1
				c-0.1,0.4-0.1,0.8-0.2,1.1c-0.1,0.6-0.2,1.1-0.2,1.7c0.1,0.7,0.4,1.2,1,1.5c0.5,0.3,1.1,0.3,1.7,0.4c1.1,0.1,2.1,0.3,3.2,0.5l0,0
				C39.8,60.1,39.8,60,39.9,59.9z"/>
			<path class="st4" d="M39.1,37.8c0.1,0.1,0.1,0.2,0.1,0.4c0,0.4-0.1,0.8-0.1,1.1c0.6,0.4,1.3,0.7,1.9,1c0.2,0.1,0.2,0.1,0,0.3
				c-0.5,0.4-1,0.6-1.6,0.7c-0.3,0-0.7,0.2-1,0.1c0,0,0,0-0.1,0v0c-0.4,1-0.4,1.9,0.3,2.8c0.4,0.5,0.8,0.8,1.4,1
				c0.5,0.1,1,0.2,1.5,0.2c0.9,0,1.8,0,2.7-0.1c0.2,0,0.4,0,0.5,0.2c0.2,0.4,0.3,0.8,0.6,1.2c0.2,0.4,0.4,0.8,0.5,1.2
				c0.1,0.3,0.2,0.6,0.3,0.9l0,0c0.2-0.1,0.4-0.2,0.6-0.3c0.1,0,0.2-0.1,0.2-0.2l0,0c0-0.6,0.2-1.2,0.4-1.7c0.3-0.8,0.7-1.5,1-2.3
				c0.2-0.5,0.3-1,0.1-1.6c-0.2-0.6-0.3-1.2-0.2-1.8c0.1-1,0.2-2,0.6-2.9c0.4-1.2,0.4-2.4,0.1-3.6c0-0.1,0-0.2-0.2-0.2
				c-0.2,0-0.5,0-0.7,0c-0.5,0-0.9-0.2-1.3-0.4c-0.4-0.3-0.9-0.4-1.4-0.4c-0.5,0-1-0.2-1.3-0.6c-0.3-0.3-0.5-0.6-0.7-0.9
				c-0.2-0.2-0.4-0.4-0.7-0.3c-0.5,0-1,0.3-1.6,0.2h0c0.1,0.1,0.2,0,0.3,0.1c0,0.1-0.1,0.2-0.2,0.4c-0.3,0.6-0.7,1-1.1,1.5
				c-0.3,0.3-0.5,0.6-0.9,0.8c-0.5,0.2-1,0.5-1.4,0.9c-0.4,0.3-0.5,0.7-0.2,1.1c0.2,0.4,0.6,0.5,1,0.7c0.2,0.1,0.4,0.1,0.4,0.4l0,0
				C39,37.6,39,37.7,39.1,37.8z M41.4,33.7c0.1,0,0.1,0.1,0.1,0.2c0,0.1,0,0.1-0.1,0.1c-0.1,0-0.2,0-0.2-0.1
				C41.3,33.8,41.4,33.7,41.4,33.7z M41.6,35.2c0,0.1-0.1,0.1-0.1,0.1c-0.1,0-0.2-0.1-0.1-0.2c0-0.1,0.1-0.1,0.1-0.1
				C41.6,35.1,41.6,35.1,41.6,35.2z M42.5,33.4c0.2,0,0.4,0.2,0.4,0.4c0,0.2-0.2,0.4-0.4,0.4c-0.2,0-0.4-0.2-0.4-0.4
				C42.1,33.5,42.3,33.4,42.5,33.4z M42.8,36.5c0.1,0,0.2,0.1,0.1,0.2c0,0.1-0.1,0.1-0.1,0.1c-0.1,0-0.2-0.1-0.2-0.2
				C42.6,36.5,42.7,36.5,42.8,36.5z M42.6,34.9c-0.1,0-0.1,0-0.1-0.1c0-0.1,0.1-0.2,0.1-0.2c0.1,0,0.1,0.1,0.1,0.1
				C42.8,34.9,42.7,34.9,42.6,34.9z M43.8,35.8c0.1,0,0.1,0.1,0.1,0.2c0,0.1-0.1,0.1-0.1,0.1c-0.1,0-0.2,0-0.1-0.1
				C43.6,35.8,43.7,35.8,43.8,35.8z M44.1,37.2c0.1,0,0.2,0,0.2,0.2c0,0.1,0,0.1-0.1,0.1c-0.1,0-0.2-0.1-0.2-0.2
				C44,37.2,44,37.2,44.1,37.2z M45.9,36.5c0.1,0,0.2,0,0.1,0.1c0,0.1-0.1,0.1-0.2,0.2c-0.1,0-0.1-0.1-0.1-0.2
				C45.8,36.5,45.9,36.5,45.9,36.5z M40.6,35.8c0,0.1-0.1,0.2-0.2,0.2c-0.1,0-0.1-0.1-0.1-0.1c0-0.1,0-0.2,0.1-0.2
				C40.5,35.6,40.5,35.7,40.6,35.8z M40.3,34.3c0.1,0,0.1,0,0.1,0.1c0,0.1,0,0.1-0.1,0.2c-0.1,0-0.2,0-0.2-0.1
				C40.2,34.3,40.2,34.3,40.3,34.3z"/>
			<path class="st5" d="M59,60.3L59,60.3c0.2,0.1,0.3,0.2,0.4,0.4c0.2,0.3,0.4,0.6,0.6,0.9c0,0.1,0.1,0.1,0.1,0
				c-0.1-0.4-0.3-0.7-0.4-1.1v0C59.5,60.3,59.3,60.3,59,60.3z"/>
			<path class="st6" d="M38.4,41.3c0.4,0.1,0.7-0.1,1-0.1c0.6-0.1,1.1-0.3,1.6-0.7c0.2-0.2,0.2-0.2,0-0.3c-0.7-0.3-1.3-0.6-1.9-1
				c-0.1,0-0.2,0.1-0.3,0.1c-0.2,0.1-0.3,0.4-0.1,0.6c0.2,0.2,0.1,0.3-0.1,0.4C38.1,40.6,38.1,40.9,38.4,41.3
				C38.3,41.3,38.3,41.3,38.4,41.3L38.4,41.3C38.3,41.4,38.3,41.3,38.4,41.3z"/>
			<path class="st7" d="M42.5,34.4c0.4,0,0.7-0.3,0.7-0.7c0-0.4-0.3-0.7-0.7-0.7c-0.4,0-0.7,0.3-0.7,0.7
				C41.8,34.1,42.1,34.4,42.5,34.4z"/>
			<path class="st8" d="M42.8,36.8c0.1,0,0.1,0,0.1-0.1c0-0.1,0-0.2-0.1-0.2c-0.1,0-0.1,0-0.1,0.1C42.6,36.7,42.7,36.8,42.8,36.8z"
				/>
			<path class="st8" d="M41.3,35.2c0,0.1,0,0.2,0.1,0.2c0.1,0,0.1,0,0.1-0.1c0-0.1,0-0.2-0.1-0.2C41.4,35.1,41.3,35.1,41.3,35.2z"/>
			<path class="st8" d="M40.4,34.6c0.1,0,0.1-0.1,0.1-0.2c0-0.1-0.1-0.1-0.1-0.1c-0.1,0-0.2,0.1-0.1,0.2
				C40.2,34.5,40.3,34.6,40.4,34.6z"/>
			<path class="st8" d="M41.5,34c0.1,0,0.1-0.1,0.1-0.1c0-0.1,0-0.2-0.1-0.2c-0.1,0-0.2,0.1-0.2,0.2C41.3,34,41.4,34,41.5,34z"/>
			<path class="st8" d="M43.7,36.1c0.1,0,0.1,0,0.1-0.1c0-0.1,0-0.2-0.1-0.2c-0.1,0-0.2,0.1-0.2,0.2C43.6,36,43.6,36.1,43.7,36.1z"
				/>
			<path class="st8" d="M45.9,36.8c0.1,0,0.2-0.1,0.2-0.2c0-0.1-0.1-0.1-0.1-0.1c-0.1,0-0.1,0-0.1,0.1
				C45.8,36.7,45.8,36.7,45.9,36.8z"/>
			<path class="st8" d="M44.1,37.4c0.1,0,0.1-0.1,0.1-0.1c0-0.1-0.1-0.2-0.2-0.2c-0.1,0-0.1,0-0.1,0.1C44,37.4,44,37.4,44.1,37.4z"
				/>
			<path class="st8" d="M40.3,35.8c0,0.1,0,0.1,0.1,0.1c0.1,0,0.1-0.1,0.2-0.2c0-0.1-0.1-0.1-0.1-0.1C40.3,35.6,40.3,35.7,40.3,35.8
				z"/>
			<path class="st8" d="M42.8,34.8c0-0.1-0.1-0.1-0.1-0.1c-0.1,0-0.1,0.1-0.1,0.2c0,0.1,0.1,0.1,0.1,0.1
				C42.7,34.9,42.8,34.9,42.8,34.8z"/>
			<path class="st5" d="M59,60.3L59,60.3c0.2,0.1,0.3,0.2,0.4,0.4c0.2,0.3,0.4,0.6,0.6,0.9c0,0.1,0.1,0.1,0.1,0
				c-0.1-0.4-0.3-0.7-0.4-1.1v0C59.5,60.3,59.3,60.3,59,60.3z"/>
			<path class="st2" d="M42.8,36.8c0.1,0,0.1,0,0.1-0.1c0-0.1,0-0.2-0.1-0.2c-0.1,0-0.1,0-0.1,0.1C42.6,36.7,42.7,36.8,42.8,36.8z"
				/>
			<path class="st2" d="M41.3,35.2c0,0.1,0,0.2,0.1,0.2c0.1,0,0.1,0,0.1-0.1c0-0.1,0-0.2-0.1-0.2C41.4,35.1,41.3,35.1,41.3,35.2z"/>
			<path class="st2" d="M40.4,34.6c0.1,0,0.1-0.1,0.1-0.2c0-0.1-0.1-0.1-0.1-0.1c-0.1,0-0.2,0.1-0.1,0.2
				C40.2,34.5,40.3,34.6,40.4,34.6z"/>
			<path class="st2" d="M41.5,34c0.1,0,0.1-0.1,0.1-0.1c0-0.1,0-0.2-0.1-0.2c-0.1,0-0.2,0.1-0.2,0.2C41.3,34,41.4,34,41.5,34z"/>
			<path class="st2" d="M43.7,36.1c0.1,0,0.1,0,0.1-0.1c0-0.1,0-0.2-0.1-0.2c-0.1,0-0.2,0.1-0.2,0.2C43.6,36,43.6,36.1,43.7,36.1z"
				/>
			<path class="st2" d="M45.9,36.8c0.1,0,0.2-0.1,0.2-0.2c0-0.1-0.1-0.1-0.1-0.1c-0.1,0-0.1,0-0.1,0.1
				C45.8,36.7,45.8,36.7,45.9,36.8z"/>
			<path class="st2" d="M44.1,37.4c0.1,0,0.1-0.1,0.1-0.1c0-0.1-0.1-0.2-0.2-0.2c-0.1,0-0.1,0-0.1,0.1C44,37.4,44,37.4,44.1,37.4z"
				/>
			<path class="st2" d="M40.3,35.8c0,0.1,0,0.1,0.1,0.1c0.1,0,0.1-0.1,0.2-0.2c0-0.1-0.1-0.1-0.1-0.1C40.3,35.6,40.3,35.7,40.3,35.8
				z"/>
			<path class="st2" d="M42.8,34.8c0-0.1-0.1-0.1-0.1-0.1c-0.1,0-0.1,0.1-0.1,0.2c0,0.1,0.1,0.1,0.1,0.1
				C42.7,34.9,42.8,34.9,42.8,34.8z"/>
		</g>
		<g>
			<path class="st9" d="M90.7,81.9c-0.1-0.5-0.1-1.1-0.2-1.6c-0.1-0.1-0.2,0-0.3,0c-0.6,0-1.2,0-1.9-0.1c-0.5-0.1-0.8-0.3-0.9-0.8
				c-0.3-1.2-0.7-2.4-1-3.6c-0.2-0.8-0.4-1.6-0.5-2.4c0-0.2-0.1-0.4-0.1-0.6c0-1-0.1-2,0-3c0.1-1,0-2.1,0-3.1
				c0.1-1.3,0.1-2.5,0.5-3.7c0.3-0.9,0.7-1.8,1.6-2.3c0.5-0.3,1.1-0.4,1.7-0.2c0.4,0.1,0.7,0.1,1.1,0.2c0.1,0,0.1,0.1,0.2,0v0
				c-0.2-0.4-0.6-0.8-0.9-1.2c-0.4-0.4-0.9-0.7-1.4-1.2c-0.8-0.9-1.6-1.7-2.4-2.7c-0.1-0.1-0.1-0.1-0.2-0.2h0l0,0
				c-0.2,0-0.4,0-0.5,0.1c-1.6,0.7-3.1,1.6-4.7,2.2c-1.4,0.5-2.8,0.9-4.3,1.1c-0.5,0.1-1,0.1-1.5,0.1c-0.2,0-0.3,0.1-0.4,0.1v0
				c-0.4,0.2-0.8,0.4-1.1,0.7c-0.6,0.5-1.1,1.1-1.7,1.7c-0.7,0.8-1.2,1.7-1.8,2.6c-1.2,1.8-2.3,3.7-3.2,5.6
				c-1.1,2.3-2.3,4.5-3.5,6.7c-0.8,1.4-1.4,2.9-2,4.4c-0.4,1.1-0.7,2.2-0.9,3.3h30.7C91,83.4,90.8,82.6,90.7,81.9z"/>
			<path class="st10" d="M72.4,33.5c0.1,0,0.2,0,0.3,0c0.1,0,0.2,0,0.2,0.1c0.1,0.5,0.5,0.8,1,0.9c0.2,0,0.4,0,0.5-0.1
				c0.4-0.1,0.7,0,0.9,0.3c0.3,0.4,0.7,0.7,1.3,0.6c0.1,0,0.2,0,0.3,0.1c0.3,0.4,0.8,0.6,1.3,0.6c0.1,0,0.2,0,0.2,0.1
				c0,0.4,0.1,0.7,0.1,1.1c0,0.2,0,0.4-0.1,0.7c-0.1,0.3,0,0.6,0.1,0.9c0.1,0.4,0.5,0.5,0.8,0.2c0.3-0.2,0.4-0.6,0.7-0.8
				c0.6-0.7,1.3-1,2.2-1c0.1,0,0.2,0.1,0.3,0.1c0.3,0.3,0.6,0.6,0.7,1.1c0.1,0.4,0.1,0.9-0.1,1.3c-0.2,0.3-0.5,0.6-0.7,0.8
				c-0.4,0.3-0.8,0.3-1.3,0.3c-0.2,0-0.5,0.1-0.6,0.3c-0.3,0.4-0.2,0.9-0.2,1.4c0.1,0.6,0.2,1.3,0.3,2c0.1,0.9,0.4,1.6,0.8,2.4
				c0.5,0.8,1.1,1.5,1.6,2.3c0.1,0.1,0.2,0.2,0.2,0.4c0.1,0.4,0.4,0.5,0.7,0.8c0.2,0.2,0.4,0.1,0.6,0.1l0,0c0.2-0.1,0.3-0.3,0.3-0.6
				c0.1-0.4,0.1-0.8,0.2-1.1c0.2-0.4,0.3-0.9,0.5-1.3c0.2-0.6,0.5-1.1,0.9-1.5c0.9-0.9,1.8-1.9,2.8-2.7c0.3-0.3,0.6-0.5,0.9-0.8
				c0,0.2,0,0.3,0,0.4c0,0,0,0,0,0c-0.1-0.5,0.3-0.8,0.6-1.1c0.8-0.8,1.4-1.7,1.9-2.6c0.5-0.9,0.9-1.8,1.1-2.8
				c0.1-0.7,0.2-1.4,0.1-2.1c-0.1-0.7-0.2-1.4-0.3-2c0-0.1-0.1-0.2-0.1-0.3l0,0l0,0c-0.4-1.8-1.1-3.4-2.4-4.8
				c-0.7-0.8-1.6-1.4-2.4-2.1c0,0-0.1-0.1-0.1-0.1l0,0h0c-0.5-0.5-1.1-0.8-1.8-1.1c-0.7-0.3-1.4-0.6-2.1-0.9
				c-1.2-0.4-2.4-0.6-3.7-0.4c-1.5,0.3-2.9,1-4.1,2c-0.1,0.1-0.2,0.3-0.3,0.3c-0.1,0-0.2-0.2-0.4-0.3c0,0-0.1,0-0.1-0.1
				c-0.8-0.4-1.8-0.3-2.5,0.3C73,25.2,72.4,26,72.1,27c-0.2,0.8-0.8,1.4-1.5,1.7c-0.3,0.1-0.5,0.2-0.8,0.4c-0.7,0.3-1.3,0.7-1.7,1.2
				c-0.4,0.5-0.7,1.2-0.8,1.8c-0.1,0.3,0.1,0.6,0.4,0.6c0.3,0,0.5,0.1,0.8,0.1c0.4,0.1,0.8,0,1.2-0.3c0.1-0.1,0.3-0.2,0.4-0.3
				c0.1-0.1,0.2-0.2,0.3-0.2c0.1-0.1,0.2-0.1,0.2,0.2c0,0.6,0.2,1.1,0.7,1.3l0,0C71.7,33.6,72,33.5,72.4,33.5z"/>
			<path class="st11" d="M75,58.9c0.5,0,1-0.1,1.5-0.1c1.5-0.2,2.9-0.6,4.3-1.1c1.6-0.6,3.2-1.5,4.7-2.2c0.2-0.1,0.3-0.1,0.5-0.1
				l0,0c-0.2-0.1-0.2-0.3-0.3-0.5c-0.5-0.8-0.7-1.6-1-2.5c-0.2-0.7-0.2-1.4-0.2-2.1h0c-0.2,0-0.4,0-0.6-0.1
				c-0.2-0.2-0.6-0.4-0.7-0.8c-0.1-0.1-0.2-0.3-0.2-0.4c-0.5-0.8-1.2-1.5-1.6-2.3c-0.4-0.8-0.7-1.5-0.8-2.4c-0.1-0.7-0.2-1.3-0.3-2
				c-0.1-0.5-0.1-0.9,0.2-1.4c0.1-0.2,0.4-0.3,0.6-0.3c0.4,0.1,0.9,0.1,1.3-0.3c0.3-0.2,0.6-0.5,0.7-0.8c0.2-0.4,0.1-0.9,0.1-1.3
				c-0.1-0.5-0.4-0.8-0.7-1.1c-0.1-0.1-0.2-0.1-0.3-0.1c-0.9,0-1.6,0.3-2.2,1c-0.2,0.3-0.4,0.6-0.7,0.8c-0.3,0.3-0.7,0.2-0.8-0.2
				c-0.1-0.3-0.1-0.6-0.1-0.9c0.1-0.2,0.1-0.4,0.1-0.7c0-0.4-0.1-0.7-0.1-1.1c0-0.1-0.1-0.2-0.2-0.1c-0.5,0-1-0.1-1.3-0.6
				c-0.1-0.1-0.2-0.2-0.3-0.1c-0.6,0.1-1-0.1-1.3-0.6c-0.2-0.3-0.5-0.5-0.9-0.3c-0.2,0.1-0.3,0.1-0.5,0.1c-0.5-0.1-0.9-0.3-1-0.9
				c0-0.1-0.1-0.2-0.2-0.1c-0.1,0-0.2,0-0.3,0c-0.4,0-0.7,0.2-1.1,0l0,0c0,0,0,0.1,0,0.1c-0.2,0.8-0.8,1.3-1.4,1.8
				c-0.3,0.3-0.7,0.6-1.1,0.7c-0.8,0.3-1.5,0.6-2.4,0.5c-0.5,0-0.7,0.4-0.5,0.8c0.1,0.2,0.2,0.4,0.3,0.5c0.5,0.7,1,1.3,1.6,1.9
				c0.5,0.5,0.5,1.1,0.4,1.7c0.2-0.1,0.4-0.1,0.6,0.1c0.3,0.3,0.6,0.5,1,0.7c0.1,0,0.1,0,0.1,0.1c0,0.1-0.1,0.1-0.2,0.1
				c-0.3,0.1-0.6,0.3-0.9,0.4c-0.1,0.1-0.2,0.1-0.4,0.2c-0.1,0.1-0.2,0.1-0.4,0.1h0c0,0.4-0.1,0.7-0.2,1.1c-0.1,0.8-0.1,1.7,0.4,2.4
				c0.4,0.5,0.8,0.9,1.5,1c0.8,0.1,1.5,0.1,2.3,0.1c0.3,0,0.6,0,0.9,0.1c0.4,0.1,0.7,0.3,0.8,0.7c0.1,0.5,0.2,1,0.4,1.4
				c0.5,1.4,0.7,2.8,0.7,4.3c0,0.9,0,1.9,0,2.8c0,0.6-0.1,1.2-0.3,1.8v0C74.7,59,74.8,58.9,75,58.9z M72.5,35.7
				c-0.3,0-0.5-0.2-0.5-0.5c0-0.2,0.2-0.4,0.4-0.4c0.3,0,0.5,0.3,0.5,0.5C72.9,35.5,72.8,35.7,72.5,35.7z"/>
			<path class="st10" d="M92.7,25.9c0.5,0.8,0.9,1.6,1.1,2.5c0.2,1,0.3,2.1,0,3.1c0,0.1,0,0.2-0.1,0.2l0,0c0,0.1,0.1,0.2,0.1,0.3
				c0.1,0.7,0.2,1.4,0.3,2c0.1,0.7,0,1.4-0.1,2.1c-0.1,1-0.5,1.9-1.1,2.8c-0.6,0.9-1.1,1.9-1.9,2.6c-0.3,0.3-0.7,0.6-0.6,1.1
				c0,0,0,0,0,0c-0.3,0.8-0.4,2.1-0.2,3.1c0.3,1.9,1.3,4.1,3.3,5.4c1.3,0.8,2.8,1.1,4.3,0.8c2.4-0.6,4-2,4.6-4.5
				c0.1-0.4,0.2-0.8,0.2-1.2c0-0.2-0.1-0.4-0.3-0.5c-0.2-0.1-0.3,0.1-0.5,0.2c-0.1,0.1-0.1,0.1-0.2,0.2c-0.3,0.4-0.6,0.9-1,1.3
				c-0.1,0.1-0.3,0.3-0.5,0.3c-0.4,0.1-0.9,0.2-1.3,0.1c-1.1-0.1-1.8-0.8-1.6-1.9c0.2-0.9,0.9-1.8,1.3-2.8c0.6-1.5,1.4-3,2.1-4.6
				c0.9-2.1,1.4-4.3,1.5-6.6c0-0.9,0-1.7-0.1-2.6c-0.1-1.1-0.4-2.1-0.9-3.1c-0.5-0.9-1.1-1.7-1.8-2.5c-0.7-0.8-1.5-1.5-2.5-1.9
				c-0.9-0.3-1.8-0.6-2.8-0.4c-1.6,0.3-2.9,1.1-3.9,2.5c0.6,0.1,1.2,0.3,1.7,0.8C92.2,25.1,92.5,25.5,92.7,25.9z"/>
			<path class="st12" d="M90.3,60.6c-0.3-0.2-0.7-0.1-1.1-0.2c-0.6-0.2-1.2-0.1-1.7,0.2c-0.8,0.5-1.3,1.4-1.6,2.3
				c-0.4,1.2-0.4,2.5-0.5,3.7c0,1,0,2.1,0,3.1c-0.1,1,0,2,0,3c0,0.2,0,0.4,0.1,0.6c0.1,0.8,0.4,1.6,0.5,2.4c0.3,1.2,0.7,2.4,1,3.6
				c0.1,0.5,0.5,0.7,0.9,0.8c0.6,0.1,1.2,0.1,1.9,0.1c0.1,0,0.2,0,0.3,0c0.2-0.1,0.5-0.1,0.7-0.1c1-0.1,1.9-0.2,2.9-0.3
				c0.5,0,0.9-0.1,1.4-0.1c0.9,0,1.7-0.1,2.6-0.1c0.2,0,0.5,0,0.7,0c0.2,0,0.4-0.1,0.6-0.3l0,0c0.1-0.2,0.2-0.4,0.1-0.6
				c0-0.2,0-0.5,0-0.7c-0.1-1.1-0.2-2.2-0.5-3.3c-0.5-1.6-1.2-3.2-1.8-4.8c-0.5-1.5-1.4-2.8-2.1-4.2c-0.1-0.2-0.2-0.4-0.4-0.5
				c-0.6-1-1.3-1.8-2-2.7c-0.3-0.5-0.7-1-1.2-1.3c-0.2-0.2-0.4-0.3-0.6-0.5l0,0C90.4,60.7,90.4,60.6,90.3,60.6z"/>
			<path class="st9" d="M90.7,60.6c-0.3-0.2-0.7-0.1-1.1-0.2c-0.6-0.2-1.2-0.1-1.7,0.2c-0.8,0.5-1.3,1.4-1.6,2.3
				c-0.4,1.2-0.4,2.5-0.5,3.7c0,1,0,2.1,0,3.1c-0.1,1,0,2,0,3c0,0.2,0,0.4,0.1,0.6c0.1,0.8,0.4,1.6,0.5,2.4c0.3,1.2,0.7,2.4,1,3.6
				c0.1,0.5,0.5,0.7,0.9,0.8c0.6,0.1,1.2,0.1,1.9,0.1c0.1,0,0.2,0,0.3,0c0.2-0.1,0.5-0.1,0.7-0.1c1-0.1,1.9-0.2,2.9-0.3
				c0.5,0,0.9-0.1,1.4-0.1c0.9,0,1.7-0.1,2.6-0.1c0.2,0,0.5,0,0.7,0c0.2,0,0.4-0.1,0.6-0.3l0,0c0.1-0.2,0.2-0.4,0.1-0.6
				c0-0.2,0-0.5,0-0.7c-0.1-1.1-0.2-2.2-0.5-3.3c-0.5-1.6-1.2-3.2-1.8-4.8c-0.5-1.5-1.4-2.8-2.1-4.2c-0.1-0.2-0.2-0.4-0.4-0.5
				c-0.6-1-1.3-1.8-2-2.7c-0.3-0.5-0.7-1-1.2-1.3c-0.2-0.2-0.4-0.3-0.6-0.5l0,0C90.8,60.7,90.8,60.6,90.7,60.6z"/>
			<path class="st11" d="M98.1,79.6c-0.9,0-1.7,0.1-2.6,0.1c-0.5,0-0.9,0-1.4,0.1c-1,0.1-1.9,0.3-2.9,0.3c-0.2,0-0.5,0-0.7,0.1
				c0.1,0.5,0.1,1.1,0.2,1.6c0.1,0.7,0.3,1.5,0.4,2.2h9.2c0-0.1,0-0.2-0.1-0.3c-0.1-0.6-0.3-1.3-0.4-1.9c-0.2-0.9-0.3-1.7-0.6-2.6
				l0,0c-0.2,0.2-0.4,0.3-0.6,0.3C98.5,79.6,98.3,79.6,98.1,79.6z"/>
			<linearGradient id="SVGID_1_" gradientUnits="userSpaceOnUse" x1="88.7369" y1="27.8451" x2="93.982" y2="27.8451">
				<stop  offset="9.021883e-02" style="stop-color:#DF1E32"/>
				<stop  offset="0.1099" style="stop-color:#E33B2E"/>
				<stop  offset="0.1326" style="stop-color:#E6562B"/>
				<stop  offset="0.1558" style="stop-color:#E86928"/>
				<stop  offset="0.1796" style="stop-color:#EA7426"/>
				<stop  offset="0.205" style="stop-color:#EA7826"/>
				<stop  offset="0.331" style="stop-color:#EAE318"/>
				<stop  offset="0.496" style="stop-color:#059748"/>
				<stop  offset="0.6717" style="stop-color:#225EA6"/>
				<stop  offset="0.836" style="stop-color:#66358D"/>
				<stop  offset="0.9585" style="stop-color:#B7358F"/>
			</linearGradient>
			<path class="st13" d="M88.8,24.8c0.8,0.7,1.6,1.4,2.4,2.1c1.3,1.4,2,3,2.4,4.8l0,0c0.2,0,0.1-0.1,0.1-0.2c0.3-1,0.2-2.1,0-3.1
				c-0.2-0.9-0.6-1.7-1.1-2.5c-0.2-0.4-0.5-0.8-0.9-1.1c-0.5-0.4-1.1-0.7-1.7-0.8c-0.1,0-0.3,0-0.4,0C89.2,24.1,88.9,24.2,88.8,24.8
				L88.8,24.8C88.8,24.7,88.8,24.7,88.8,24.8z"/>
			<path class="st6" d="M68.5,43.2c0.1-0.1,0.2-0.1,0.4-0.2c0.3-0.1,0.6-0.3,0.9-0.4c0.1,0,0.1,0,0.2-0.1c0-0.1-0.1-0.1-0.1-0.1
				c-0.3-0.2-0.7-0.4-1-0.7c-0.2-0.2-0.4-0.2-0.6-0.1c-0.2,0.1-0.3,0.3-0.2,0.5c0.1,0.2,0,0.3-0.1,0.5c-0.3,0.3-0.2,0.6,0.2,0.7h0
				C68.3,43.3,68.4,43.3,68.5,43.2z"/>
		</g>
		<g>
			<polygon class="st14" points="137.1,52.9 137.1,52.9 137.1,52.9 			"/>
			<path class="st15" d="M135.9,65.4c0.1-0.3,0.2-0.5,0.2-0.8c0-0.1,1-11.6,1-11.8c0,0,0,0,0,0c0-0.8,0.1-1.5,0-2.3
				c-0.1-0.7,0-1.4-0.3-2.1c0-0.2-0.1-0.2-0.3-0.1c-1.1,0.4-2.2,0.8-3.4,0.7c-1.1,0-1.9-0.5-2.5-1.2c-0.2-0.3-0.3-0.6-0.3-0.9
				c-0.1-0.6-0.1-1.2,0.1-1.8v0c0,0,0,0,0,0c-0.4-0.3-0.5-0.6-0.1-0.9c0.1-0.1,0.2-0.2,0.1-0.4c-0.2-0.3,0-0.5,0.3-0.7
				c0-0.4,0.1-0.9,0-1.3c0-0.2-0.1-0.3-0.2-0.4c-0.1-0.1-0.2-0.1-0.4-0.2c-0.1-0.1-0.1,0-0.2,0c0,0.7-0.2,1.3-0.4,2
				c-0.3,0.9-0.8,1.8-1.1,2.8c-0.5,2-0.6,2.7-0.8,4.1c0,0.3-0.1,1.1-0.1,1.3c0,0.2,0,1.1,0,1.1c0,0.4-0.8,12-0.6,12.5
				c0.1,0.3,0.3,0.4,0.5,0.5c0.3,0.1,0.7,0.8,1.1,0.8c0.7,0,1.5-0.7,2.2-0.6c1.1,0.1,2.1,0.1,3.2,0.1c0.6,0,1.1-0.2,1.7-0.2l0,0
				C135.8,65.6,135.9,65.5,135.9,65.4z"/>
			<path class="st16" d="M152,83.1c-0.3-0.9-0.6-1.8-0.9-2.7c-0.4-1.3-0.9-2.6-1.5-3.8c-0.5-1.2-1.1-2.3-1.6-3.5
				c-0.4-0.9-0.7-1.8-1-2.7c-0.4-1.1-0.8-2.1-1.2-3.1c-0.4-1.2-0.8-2.5-1-3.7c-0.1-1.1,0-2.1,0.4-3.1c0.3-0.9,0.8-1.8,1.4-2.5
				c0.5-0.6,1.2-0.9,2-1c1.2-0.1,2.1,0.4,2.9,1.1c0.6,0.5,1,1.2,1.4,1.8c0.4,0.7,0.7,1.3,1.1,2c0.7,1.1,1.3,2.3,1.8,3.5
				c0.3,0.9,0.6,1.9,0.9,2.8c0.4,1.3,0.8,2.6,1.2,4c0.4,1.4,0.9,2.8,1.3,4.3c0.1,0.2,0.1,0.4,0.2,0.6c0.1,0,0-0.1,0-0.2
				c0,0,0,0.1,0,0.1c0,0,0-0.1,0-0.1c0-0.1,0-0.1,0-0.2c-0.3-1.7-0.4-3.4-0.8-5.2c-0.2-1.3-0.5-2.6-0.8-3.9
				c-0.3-1.1-0.9-2.2-1.3-3.2c-0.7-1.5-1.2-2.9-2-4.3c-0.6-1-1.2-2-2.1-2.9c-0.5-0.5-1-1.1-1.5-1.7c0-0.1-0.1-0.1-0.1-0.2
				c-0.6,0.1-1.1,0.2-1.7,0.4c-1,0.3-1.3,0.2-1.9-0.6c-0.6-1-1.4-1.9-2.2-2.8c-0.1-0.1-0.2-0.2-0.3-0.4h0c-0.5,0.2-1,0.3-1.6,0.4
				c-1.6,0.4-3.3,0.5-5,0.8c-0.4,0.1-0.9,0.1-1.3,0.3c0-0.1,0-0.2,0-0.3c0,0,0,0,0,0c0,0.2-0.1,0.4-0.3,0.5
				c-0.1,0.1-0.2,0.2-0.2,0.4c0,0.3-0.1,0.5-0.2,0.8c0,0.1-0.1,0.2-0.2,0.2l0,0c0.1,0,0.1,0.1,0.1,0.2c-0.2,0.7-0.5,1.4-0.8,2
				c-0.5,1-1.2,1.9-1.8,2.9c-0.6,1-1.4,1.9-2.2,2.7c-0.3,0.3-0.7,0.6-0.9,1c-0.1,0.2-0.2,0.3-0.3,0.5c-0.7,0.8-1.2,1.6-1.6,2.5
				c-0.5,1.3-0.6,2.7-0.3,4.2c0.2,1,0.5,1.9,0.9,2.8c0.3,0.9,0.5,1.9,0.3,2.9c-0.2,1.3-0.5,2.5-1,3.8c-0.2,0.4-0.3,0.8-0.4,1.3
				c-0.2,0.6-0.3,1.3-0.6,1.9c-0.1,0.3-0.2,0.5-0.4,0.8h25.2C152.2,83.7,152.1,83.4,152,83.1z"/>
			<path class="st10" d="M159.5,76.9c-0.1-0.2-0.1-0.4-0.2-0.6c-0.4-1.4-0.9-2.8-1.3-4.3c-0.4-1.3-0.9-2.6-1.2-4
				c-0.3-0.9-0.5-1.9-0.9-2.8c-0.5-1.2-1.1-2.4-1.8-3.5c-0.4-0.7-0.7-1.3-1.1-2c-0.4-0.7-0.8-1.3-1.4-1.8c-0.8-0.7-1.7-1.2-2.9-1.1
				c-0.8,0.1-1.5,0.4-2,1c-0.7,0.7-1.1,1.6-1.4,2.5c-0.4,1-0.5,2.1-0.4,3.1c0.1,1.3,0.5,2.5,1,3.7c0.4,1.1,0.9,2.1,1.2,3.1
				c0.3,0.9,0.6,1.8,1,2.7c0.5,1.2,1.1,2.3,1.6,3.5c0.6,1.2,1.1,2.5,1.5,3.8c0.3,0.9,0.6,1.8,0.9,2.7c0.1,0.3,0.3,0.7,0.4,1h8.6
				c-0.3-1.6-0.6-3.2-0.9-4.8C159.9,78.4,159.7,77.7,159.5,76.9c0.1-0.1,0-0.1,0-0.2C159.5,76.8,159.5,76.9,159.5,76.9z"/>
			<path class="st10" d="M130.2,41.3c0.1,0.1,0.2,0.1,0.4,0.2c0.2,0.1,0.2,0.2,0.2,0.4c0,0.4,0,0.9,0,1.3c0.3,0.1,0.5,0.4,0.7,0.6
				c0.3,0.3,0.6,0.4,1,0.6c-0.2,0.2-0.4,0.2-0.6,0.3c-0.3,0.1-0.6,0.3-0.9,0.5c-0.2,0.1-0.4,0-0.5,0.1c-0.1,0.6-0.2,1.2-0.1,1.8
				c0.1,0.3,0.1,0.6,0.3,0.9c0.6,0.8,1.4,1.2,2.5,1.2c1.2,0,2.3-0.3,3.4-0.7c0.2-0.1,0.2,0,0.3,0.1c0.2,0.7,0.2,1.4,0.3,2.1
				c0.1,0.8,0,1.5,0,2.3c0,0,0,0,0,0c0,0.1,0,0.2,0,0.3c0.4-0.1,0.9-0.2,1.3-0.3c1.7-0.3,3.3-0.4,5-0.8c0.5-0.1,1.1-0.2,1.6-0.4l0,0
				c-0.4-0.6-0.7-1.2-0.9-1.8c-0.5-1.3-0.8-2.5-0.7-3.9c0.1-1.1,0.3-2.2,0.6-3.3c0.1-0.3,0.3-0.6,0.7-0.7c0.3-0.1,0.7-0.2,1-0.3
				c0.5-0.1,0.7-0.4,0.9-0.8c0.2-0.4,0.2-0.8,0.1-1.2c-0.1-0.8-0.9-1.3-1.8-1c-0.7,0.2-1.2,0.6-1.7,1.1c-0.2,0.3-0.6,0.3-0.9,0
				c-0.2-0.2-0.3-0.4-0.4-0.6c-0.2-0.3-0.3-0.6-0.6-0.8c-0.9-0.9-1.8-1.9-2.7-2.9c-1.2-1.3-2.2-2.7-3-4.2c-0.5-1-0.8-2-1.3-3
				c-0.2,0.2-0.3,0.5-0.5,0.8c-0.3,0.4-0.5,0.9-0.7,1.3c-0.2,0.9-0.5,1.8-0.8,2.7c-0.4,1.3-0.9,2.5-1.6,3.6
				c-0.2,0.3-0.5,0.7-0.8,0.9h0c-0.1,0.1-0.1,0.2-0.2,0.2c-0.6,0.4-1.1,0.9-1.7,1.2c-0.3,0.2-0.4,0.6-0.1,0.8
				c0.3,0.3,0.7,0.6,1.1,0.7c0.2,0.1,0.4,0.2,0.5,0.2c0.1,0.1,0.3,0.1,0.3,0.3v0C130,41.3,130.1,41.2,130.2,41.3z M133.9,35.6
				c0.3,0,0.5,0.2,0.5,0.4c0,0.3-0.3,0.5-0.5,0.5c-0.3,0-0.5-0.2-0.5-0.5C133.4,35.8,133.7,35.6,133.9,35.6z"/>
			<polygon class="st17" points="140.1,37.1 130.7,37 131.6,34.4 137.9,34.4 			"/>
			<path class="st15" d="M130.9,36.9c0.8-1.1,1.3-2.4,1.6-3.6c0.3-0.9,0.5-1.8,0.8-2.7c0.1-0.5,0.4-0.9,0.7-1.3
				c0.2-0.3,0.3-0.6,0.5-0.8c0.6,0.9,0.9,2,1.3,3c0.8,1.5,1.8,2.9,3,4.2c0.9,1,1.7,2,2.7,2.9c0.2,0.2,0.4,0.5,0.6,0.8
				c0.1,0.2,0.3,0.4,0.4,0.6c0.3,0.3,0.6,0.3,0.9,0c0.4-0.5,1-0.9,1.7-1.1c0.8-0.3,1.7,0.2,1.8,1c0.1,0.4,0,0.8-0.1,1.2
				c-0.2,0.4-0.5,0.7-0.9,0.8c-0.3,0.1-0.7,0.2-1,0.3c-0.3,0.1-0.6,0.4-0.7,0.7c-0.3,1.1-0.5,2.2-0.6,3.3c-0.1,1.3,0.2,2.6,0.7,3.9
				c0.2,0.6,1,2.2,1,2.3c0.4,1.2,5.7,16.7,6.3,17.7c0.5,0.9,0.9,0.9,1.9,0.6c0.5-0.2,1.1-0.3,1.7-0.4c0.7-0.1,1.4-0.2,2.1-0.3
				c1.6-0.3,3.3-0.5,4.9-0.7c0.6-0.1,1.2-0.2,1.7-0.3c0.6-0.1,0.9-0.4,0.9-1c0-0.1-3.6-15.5-3.6-15.5l-0.8-3.1c0,0-1.8-8.6-2.6-12.8
				c-0.5-2.8-1.8-5.3-3.8-7.4c-0.7-0.8-1.5-1.5-2.4-2.1c-0.5-0.4-1.1-0.7-1.6-1.1c-0.8-0.6-1.6-1.1-2.5-1.5c-1.4-0.6-2.8-1-4.3-1.2
				c-0.4,0-0.7,0-1.1,0c-0.1,0-0.2,0-0.3,0c-1.3,0-2.5,0.2-3.7,0.7c-1.1,0.4-2.2,1-3,1.9c-0.4,0.5-0.9,1-1.3,1.5
				c-2.3,2.7-3.5,5.8-3.5,9.3c0,0.4,0,0.8,0,1.3C130.4,37.5,130.7,37.2,130.9,36.9z"/>
			<path class="st6" d="M130.8,45.1c0.3-0.2,0.6-0.3,0.9-0.5c0.2-0.1,0.4-0.1,0.6-0.3c-0.4-0.1-0.7-0.3-1-0.6
				c-0.2-0.2-0.4-0.4-0.7-0.6c-0.4,0.2-0.5,0.4-0.3,0.7c0.1,0.2,0.1,0.2-0.1,0.4c-0.4,0.3-0.4,0.6,0.1,0.9c0,0,0,0,0,0v0
				C130.5,45.1,130.7,45.2,130.8,45.1z"/>
			<path class="st18" d="M133.9,36.2c0.3,0,0.5-0.3,0.5-0.5c0-0.2-0.2-0.4-0.5-0.4c-0.3,0-0.5,0.2-0.5,0.5
				C133.4,36,133.6,36.2,133.9,36.2z"/>
		</g>
		<g>
			<g>
				<path class="st14" d="M121.4,43.5c-0.9,0.7-1.4,1.5-1.8,2.6c0,0.1,0,0.2-0.1,0.2c1-0.2,1.7-0.7,2.1-1.7c0.2-0.5,0.3-1,0.2-1.5
					C121.8,43.3,121.6,43.4,121.4,43.5z"/>
				<path class="st11" d="M119,83.7c0-0.5,0-1,0-1.5c0-0.3,0-0.7-0.1-1c0-0.1,0-0.2,0-0.2c0.2-0.7,0.2-1.5,0.2-2.3c0-2,0-4,0-6
					c0-1.3-0.1-2.6-0.1-3.9c0-1.6,0.2-3.1,0.6-4.6c0.3-1.2,0.8-2.3,1.7-3.2c0.5-0.5,1-0.7,1.6-0.8c0.1,0,0.2,0,0.2,0
					c0.7-0.2,1.3,0,1.8,0.5c0.9,0.9,1.7,1.8,2.3,3c0.1,0.2,0.2,0.3,0.3,0.4l0,0v0c0.1-0.1,0.1-0.1,0.1-0.2l0,0l0,0
					c-0.2-0.7-0.4-1.4-0.8-2.1c-0.3-0.6-0.7-1.2-1-1.8c-0.5-1.1-1.3-1.9-2.2-2.7c-0.5-0.5-1-0.9-1.4-1.4c-0.5-0.6-0.9-1.3-1.4-2
					c-0.7-1.1-1.1-2.3-0.8-3.7c0.1-0.4,0-0.8-0.6-0.7c-0.2,0-0.2-0.1-0.2-0.2c0,0.1-0.1,0.2-0.3,0.2c-0.1,0-0.2,0-0.3,0
					c-0.7,0-1.4,0-2.1,0c-0.8,0-1.5,0.1-2.2,0.2c-0.8,0.1-1.7,0.2-2.5,0.4c-0.1,0-0.1,0-0.2,0v0l0,0c-0.5,0.2-0.8,0.5-1,1
					c0,0.2-0.1,0.5-0.2,0.7c-0.4,1.3-1.1,2.6-1.8,3.8c-0.4,0.7-0.9,1.4-1.4,2.1c-0.4,0.7-0.8,1.4-1.4,1.9c-1.4,1.4-2.8,2.9-4,4.5
					c-1.1,1.6-1.7,3.3-1.9,5.2c-0.1,1.3,0.2,2.5,0.7,3.7c0.2,0.4,0.4,0.8,0.5,1.2c0.2,0.7,0,1.5-0.1,2.2c-0.1,0.7-0.2,1.4-0.3,2.1
					c-0.1,0.8-0.2,1.5-0.3,2.3c-0.1,0.9-0.3,1.9-0.4,2.8c0,0.3,0.1,0.5,0.2,0.6H119C119.1,84,119,83.8,119,83.7z"/>
				<path class="st19" d="M127.5,64.1L127.5,64.1c-0.1-0.1-0.2-0.3-0.3-0.4c-0.6-1.1-1.4-2.1-2.3-3c-0.5-0.5-1.1-0.7-1.8-0.5
					c-0.1,0-0.2,0-0.2,0c-0.6,0.1-1.2,0.3-1.6,0.8c-0.9,0.9-1.4,2-1.7,3.2c-0.4,1.5-0.6,3-0.6,4.6c0,1.3,0.1,2.6,0.1,3.9
					c0,2,0,4,0,6c0,0.8,0,1.5-0.2,2.3c0,0.1,0,0.2,0,0.2c0,0.3,0.1,0.7,0.1,1c0,0.5,0,1,0,1.5c0,0.1,0,0.3,0,0.4h13.5
					c0.1-0.6,0-1.3-0.2-1.9c-0.1-0.5-0.2-0.9-0.2-1.4c0-1.1-0.1-2.2-0.3-3.2c-0.6-3.2-1.4-6.4-2.4-9.4c-0.5-1.3-1-2.6-1.7-3.9
					c0,0-0.1,0.1-0.1,0.1C127.6,64.3,127.6,64.2,127.5,64.1z"/>
				<path class="st19" d="M111.8,49.8c0.8-0.2,1.7-0.3,2.5-0.4c0.7-0.1,1.5-0.2,2.2-0.2c0.7,0,1.4,0,2.1,0c0.1,0,0.2,0,0.3,0
					c0.2,0.1,0.2,0,0.3-0.2c0-0.6,0-1.2,0.1-1.8l0,0c0-0.1-0.1-0.1-0.2-0.1c-0.7-0.1-1.5-0.2-2.1-0.6c-0.9-0.6-1.4-1.3-1.4-2.4
					c0-0.6,0-1.3,0.3-1.8c0.6-1.2,1.4-2.1,2.8-2.4c0.1,0,0.3,0,0.4,0c0.2,0,0.4,0.1,0.4,0.3c0,0.2-0.1,0.3-0.3,0.4
					c-0.6,0.1-1.1,0.2-1.5,0.6c-0.7,0.6-1.2,1.4-1.2,2.4c0,0.5,0,1,0.3,1.5c0.5,0.7,1.1,1,1.9,1.1c-0.2-0.3-0.1-0.6-0.1-0.9
					c0-0.2,0-0.3-0.1-0.5c-0.1-0.2,0-0.4,0-0.7c0.1-0.8,0.2-1.6,0.6-2.3c0.2-0.4,0.4-0.7,0.8-0.9c0.1-0.1,0.3-0.1,0.4-0.2l0,0v0
					c0,0-0.1-0.1,0-0.1c0.3-0.2,0.6-0.4,0.9-0.5l0,0l0,0c0.1-0.1,0.2-0.2,0.2-0.3c0.4-0.7,0.9-1.4,1.1-2.2c0.1-0.7,0-1.4-0.5-1.9
					c-0.2-0.2-0.3-0.4-0.6-0.5c-0.7-0.4-1.6-0.2-2.1,0.5c-0.2,0.3-0.2,0.6-0.2,0.9c-0.1,0.4-0.1,0.9-0.2,1.3c0,0.1-0.1,0.3-0.2,0.4
					c0,0.1-0.1,0.1-0.2,0.1c-0.1,0-0.2-0.1-0.2-0.2c0-0.2-0.1-0.5-0.1-0.7c0-0.7-0.1-1.3-0.3-1.9c-0.1-0.6-0.4-1.1-0.7-1.6
					c-0.6-0.9-1.1-1.9-1.7-2.8c-0.3-0.4-0.7-0.7-1.1-0.8c-0.7-0.2-1.3-0.4-1.9-0.8c-0.3-0.2-0.6-0.2-0.9-0.2
					c-0.6,0.1-1.2,0.3-1.8,0.5c-0.2,0.1-0.4,0.2-0.5,0.3c-0.1,0.2-0.4,0.3-0.6,0.3c-0.4,0.1-0.9,0.2-1.3,0.5c0,0-0.1,0-0.1,0l0,0
					c-0.1,0.9-0.2,1.8-0.3,2.7c-0.1,0.8-0.3,1.6-1,2.3c-0.5,0.5-1.1,1-1.9,1.1c-0.1,0-0.3,0.1-0.4,0.1c-0.3,0.1-0.6,0.3-0.6,0.7
					c0,0.4,0.2,0.6,0.5,0.8c0.3,0.2,0.5,0.3,0.8,0.5c0.2,0.1,0.4,0.3,0.5,0.5c0.2,0.5,0.4,1,0.5,1.6c0.1,0,0.2,0,0.4,0.1
					c0.5,0.3,1,0.5,1.7,0.5c0.1,0,0.1,0,0.2,0.1c-0.6,0.4-1.1,0.9-1.7,1.3c-0.2,0.1-0.4,0.1-0.6,0h0c0,0.5,0,1.1-0.1,1.6
					c-0.2,1.1,0.4,1.9,1.1,2.6c0.1,0.1,0.1,0.1,0.2,0.2c1,0.6,2,0.7,3.1,0.4c0.7-0.2,1.4-0.5,2.1-0.7c0.1,0,0.2,0,0.2,0.1
					c0,0.2,0,0.5,0,0.7c0,0.6,0,1.1-0.1,1.7v0C111.6,49.9,111.7,49.9,111.8,49.8z M109.3,35.4c-0.2,0-0.5-0.2-0.5-0.5
					c0-0.2,0.2-0.4,0.4-0.4c0.3,0,0.4,0.2,0.4,0.5C109.7,35.2,109.5,35.4,109.3,35.4z"/>
				<path class="st17" d="M108.5,30.7c0.2-0.1,0.4-0.1,0.6-0.3c0.1-0.2,0.3-0.3,0.5-0.3c0.6-0.2,1.2-0.4,1.8-0.5
					c0.3,0,0.7,0,0.9,0.2c0.6,0.4,1.2,0.6,1.9,0.8c0.5,0.1,0.9,0.4,1.1,0.8c0.6,0.9,1.1,1.9,1.7,2.8c0.3,0.5,0.6,1,0.7,1.6
					c0.1,0.6,0.3,1.3,0.3,1.9c0,0.2,0.1,0.5,0.1,0.7c0,0.1,0.1,0.2,0.2,0.2c0.1,0,0.2,0,0.2-0.1c0.1-0.1,0.1-0.3,0.2-0.4
					c0.1-0.4,0.2-0.9,0.2-1.3c0-0.3,0-0.6,0.2-0.9c0.4-0.7,1.4-0.9,2.1-0.5c0.2,0.1,0.4,0.3,0.6,0.5c0.6,0.5,0.7,1.2,0.5,1.9
					c-0.2,0.8-0.6,1.5-1.1,2.2c-0.1,0.1-0.1,0.2-0.2,0.3l0,0c0,0,0.1,0.1,0.1,0.1c0.7,0.4,1,1,1.3,1.7c0,0.1,0,0.2,0.1,0.2
					c0.3-0.4,0.6-0.7,0.9-1.1c0.2-0.3,0.5-0.6,0.7-0.9c0.6-1.2,1.1-2.4,1.4-3.7c0.2-0.9,0.2-1.8-0.1-2.7c-0.3-0.9-0.4-1.8-0.4-2.7
					c0-0.6,0-1.2-0.2-1.7c-0.4-1.3-1-2.3-2.1-3c-0.1-0.1-0.2-0.2-0.3-0.2c-1-1.3-2.4-2-3.9-2.4c-0.1,0-0.2-0.1-0.3-0.1
					c-1-0.8-2.1-1.2-3.4-1.3c-0.8-0.1-1.7-0.2-2.4-0.7c-0.3-0.2-0.5-0.4-0.8-0.5c-1.1-0.6-2.2-0.7-3.3,0c-0.4,0.3-0.9,0.5-1.4,0.6
					c-0.8,0.2-1.5,0.5-2.1,1.2c-0.1,0.1-0.2,0.2-0.4,0.2c-1.3,0.4-2.1,1.4-2.7,2.6c-0.3,0.6-0.3,1.2,0.1,1.7
					c0.2,0.3,0.5,0.7,0.9,0.9c0.2,0.1,0.3,0.2,0.4,0.4c0.3,0.7,0.8,1.1,1.4,1.4c0.4,0.1,0.7,0.3,1.1,0.3c0.1,0,0.2,0.1,0.3,0.2
					c0.3,0.4,0.7,0.6,1.2,0.7h0c0,0,0.1,0,0.1,0C107.6,30.9,108.1,30.8,108.5,30.7z"/>
				<path class="st11" d="M122.5,42.1c-0.3-0.7-0.6-1.3-1.3-1.7c0,0-0.1-0.1-0.1-0.1l0,0c-0.3,0.1-0.6,0.3-0.9,0.5c0,0,0,0.1,0,0.1
					v0c0.3,0,0.6,0.2,0.8,0.4c0.5,0.5,0.8,1.1,0.9,1.8c0,0,0,0,0,0.1c0.1,0.5,0,1-0.2,1.5c-0.4,1-1.1,1.5-2.1,1.7c0,0-0.1,0-0.1,0.1
					c-0.3,0.1-0.6,0-0.9-0.1l0,0c-0.8-0.1-1.5-0.5-1.9-1.1c-0.3-0.5-0.3-1-0.3-1.5c0-1,0.5-1.8,1.2-2.4c0.4-0.4,1-0.6,1.5-0.6
					c0.2,0,0.3-0.2,0.3-0.4c0-0.2-0.1-0.3-0.4-0.3c-0.1,0-0.3,0-0.4,0c-1.4,0.3-2.2,1.1-2.8,2.4c-0.3,0.6-0.3,1.2-0.3,1.8
					c0,1.1,0.6,1.8,1.4,2.4c0.6,0.4,1.3,0.6,2.1,0.6c0.1,0,0.2,0,0.2,0.1l0,0c0-0.1,0.1-0.1,0.2-0.1c0.6,0,1.2-0.3,1.7-0.6
					c1.2-0.8,1.7-1.9,1.7-3.3c0-0.4-0.1-0.7-0.2-1l0,0C122.5,42.2,122.5,42.1,122.5,42.1z"/>
				<path class="st6" d="M105.6,43.4c0.6-0.4,1.1-0.8,1.7-1.3c-0.1,0-0.1-0.1-0.2-0.1c-0.6,0-1.1-0.3-1.7-0.5
					c-0.1-0.1-0.2-0.1-0.4-0.1c-0.3,0.4-0.4,0.6-0.1,0.9c0.2,0.1,0.1,0.2,0,0.4c-0.2,0.3-0.2,0.4,0,0.7l0,0
					C105.2,43.5,105.4,43.5,105.6,43.4z"/>
				<path class="st20" d="M127.5,64.1L127.5,64.1c0,0.1,0.1,0.2,0.1,0.3c0-0.1,0-0.2,0-0.2v0c0-0.1,0-0.2-0.1-0.2l0,0
					C127.6,63.9,127.6,64,127.5,64.1z"/>
				<path class="st21" d="M127.7,64.4C127.7,64.3,127.7,64.3,127.7,64.4c0.1-0.2,0.1-0.2,0-0.2l0,0
					C127.6,64.2,127.7,64.3,127.7,64.4z"/>
				<path class="st17" d="M119.4,46.4C119.5,46.3,119.5,46.3,119.4,46.4c0.2-0.1,0.2-0.2,0.2-0.3c0.3-1,0.9-1.9,1.8-2.6
					c0.2-0.1,0.3-0.2,0.5-0.4c0,0,0,0,0-0.1c-0.1-0.7-0.4-1.3-0.9-1.8c-0.2-0.2-0.5-0.4-0.8-0.4l0,0c-0.1,0.1-0.2,0.2-0.4,0.2
					c-0.4,0.2-0.7,0.5-0.8,0.9c-0.3,0.7-0.4,1.5-0.6,2.3c0,0.2-0.1,0.4,0,0.7c0.1,0.1,0.1,0.3,0.1,0.5c0,0.3-0.1,0.6,0.1,0.9l0,0
					C118.8,46.4,119.1,46.4,119.4,46.4z"/>
				<path class="st22" d="M109.2,34.4c-0.2,0-0.4,0.2-0.4,0.4c0,0.2,0.2,0.5,0.5,0.5c0.2,0,0.4-0.2,0.4-0.5
					C109.7,34.6,109.5,34.4,109.2,34.4z"/>
				<path class="st22" d="M111,35c0.1,0.2,0.3,0.4,0.4,0.6c0,0.1,0.1,0.1,0,0.2c0,0-0.1,0-0.1,0c-0.4-0.4-0.7-0.8-1.1-0.9
					c-0.4-0.1-0.9-0.2-1.4-0.1c-0.1,0-0.6,0.1-0.7,0c-0.2-0.3,1.2-0.6,1.4-0.6c0.4,0,0.8,0.3,1.2,0.6C110.8,34.8,110.9,34.9,111,35z
					"/>
			</g>
		</g>
		<g>
			<path class="st23" d="M31.7,82c-0.1-0.5-0.1-1.1-0.2-1.6c-0.1-0.1-0.2,0-0.3,0c-0.6,0-1.2,0-1.9-0.1c-0.5-0.1-0.8-0.3-0.9-0.8
				c-0.3-1.2-0.7-2.4-1-3.6c-0.2-0.8-0.4-1.6-0.5-2.4c0-0.2-0.1-0.4-0.1-0.6c0-1-0.1-2,0-3c0.1-1,0-2.1,0-3.1
				c0.1-1.3,0.1-2.5,0.5-3.7c0.3-0.9,0.7-1.8,1.6-2.3c0.5-0.3,1.1-0.4,1.7-0.2c0.4,0.1,0.7,0.1,1.1,0.2c0.1,0,0.1,0.1,0.2,0v0
				c-0.2-0.4-0.6-0.8-0.9-1.2c-0.4-0.4-0.9-0.7-1.4-1.2c-0.8-0.9-1.6-1.7-2.4-2.7c-0.1-0.1-0.1-0.1-0.2-0.2h0l0,0
				c-0.2,0-0.4,0-0.5,0.1c-1.6,0.7-3.1,1.6-4.7,2.2c-1.4,0.5-2.8,0.9-4.3,1.1C17,58.9,16.5,59,16,59c-0.2,0-0.3,0.1-0.4,0.1v0
				c-0.4,0.2-0.8,0.4-1.1,0.7c-0.6,0.5-1.1,1.1-1.7,1.7c-0.7,0.8-1.2,1.7-1.8,2.6c-1.2,1.8-2.3,3.7-3.2,5.6
				c-1.1,2.3-2.3,4.5-3.5,6.7c-0.8,1.4-1.4,2.9-2,4.4c-0.4,1.1-0.7,2.2-0.9,3.3h30.7C32,83.5,31.8,82.7,31.7,82z"/>
			<path class="st24" d="M16,59c0.5,0,1-0.1,1.5-0.1c1.5-0.2,2.9-0.6,4.3-1.1c1.6-0.6,3.2-1.5,4.7-2.2c0.2-0.1,0.3-0.1,0.5-0.1l0,0
				c-0.2-0.1-0.2-0.3-0.3-0.5c-0.5-0.8-0.7-1.6-1-2.5c-0.2-0.7-0.2-1.4-0.2-2.1h0c-0.2,0-0.4,0-0.6-0.1c-0.2-0.2-0.6-0.4-0.7-0.8
				c-0.1-0.1-0.2-0.3-0.2-0.4c-0.5-0.8-1.2-1.5-1.6-2.3c-0.4-0.8-0.7-1.5-0.8-2.4c-0.1-0.7-0.2-1.3-0.3-2c-0.1-0.5-0.1-0.9,0.2-1.4
				c0.1-0.2,0.4-0.3,0.6-0.3c0.4,0.1,0.9,0.1,1.3-0.3c0.3-0.2,0.6-0.5,0.7-0.8c0.2-0.4,0.1-0.9,0.1-1.3c-0.1-0.5-0.4-0.8-0.7-1.1
				c-0.1-0.1-0.2-0.1-0.3-0.1c-0.9,0-1.6,0.3-2.2,1c-0.2,0.3-0.4,0.6-0.7,0.8c-0.3,0.3-0.7,0.2-0.8-0.2c-0.1-0.3-0.1-0.6-0.1-0.9
				c0.1-0.2,0.1-0.4,0.1-0.7c0-0.4-0.1-0.7-0.1-1.1c0-0.1-0.1-0.2-0.2-0.1c-0.5,0-1-0.1-1.3-0.6c-0.1-0.1-0.2-0.2-0.3-0.1
				c-0.6,0.1-1-0.1-1.3-0.6c-0.2-0.3-0.5-0.5-0.9-0.3c-0.2,0.1-0.3,0.1-0.5,0.1c-0.5-0.1-0.9-0.3-1-0.9c0-0.1-0.1-0.2-0.2-0.1
				c-0.1,0-0.2,0-0.3,0c-0.4,0-0.7,0.2-1.1,0l0,0c0,0,0,0.1,0,0.1c-0.2,0.8-0.5,1.4-1.1,1.9c-0.3,0.3-0.8,0.8-1.2,1.1
				c-0.5,0.4-0.9,1-1.8,1.4c-0.4,0.2-0.5,0.8-0.5,0.8c0.1,0.2,0.4,0.6,0.5,0.8l0.4,0.4c0.5,0.5,0.8,0.9,0.7,1.5
				c0.2-0.1,0.4-0.1,0.6,0.1c0.3,0.3,0.6,0.5,1,0.7c0.1,0,0.1,0,0.1,0.1c0,0.1-0.1,0.1-0.2,0.1c-0.3,0.1-0.6,0.3-0.9,0.4
				c-0.1,0.1-0.2,0.1-0.4,0.2c-0.1,0.1-0.2,0.1-0.4,0.1h0c0,0.4-0.1,0.7-0.2,1.1c-0.1,0.8-0.1,1.7,0.4,2.4c0.4,0.5,0.8,0.9,1.5,1
				c0.8,0.1,1.5,0.1,2.3,0.1c0.3,0,0.6,0,0.9,0.1c0.4,0.1,0.7,0.3,0.8,0.7c0.1,0.5,0.2,1,0.4,1.4c0.5,1.4,0.7,2.8,0.7,4.3
				c0,0.9,0,1.9,0,2.8c0,0.6-0.1,1.2-0.3,1.8v0C15.7,59.1,15.8,59,16,59z M13.6,35.8c-0.3,0-0.5-0.2-0.5-0.5c0-0.2,0.2-0.4,0.4-0.4
				c0.3,0,0.5,0.3,0.5,0.5C14,35.6,13.8,35.8,13.6,35.8z"/>
			<path class="st25" d="M31.4,60.7c-0.3-0.2-0.7-0.1-1.1-0.2c-0.6-0.2-1.2-0.1-1.7,0.2C27.7,61.2,27.2,62,27,63
				c-0.4,1.2-0.4,2.5-0.5,3.7c0,1,0,2.1,0,3.1c-0.1,1,0,2,0,3c0,0.2,0,0.4,0.1,0.6c0.1,0.8,0.4,1.6,0.5,2.4c0.3,1.2,0.7,2.4,1,3.6
				c0.1,0.5,0.5,0.7,0.9,0.8c0.6,0.1,1.2,0.1,1.9,0.1c0.1,0,0.2,0,0.3,0c0.2-0.1,0.5-0.1,0.7-0.1c1-0.1,1.9-0.2,2.9-0.3
				c0.5,0,0.9-0.1,1.4-0.1c0.9,0,1.7-0.1,2.6-0.1c0.2,0,0.5,0,0.7,0c0.2,0,0.4-0.1,0.6-0.3l0,0c0.1-0.2,0.2-0.4,0.1-0.6
				c0-0.2,0-0.5,0-0.7c-0.1-1.1-0.2-2.2-0.5-3.3c-0.5-1.6-1.2-3.2-1.8-4.8c-0.5-1.5-1.4-2.8-2.1-4.2c-0.1-0.2-0.2-0.4-0.4-0.5
				c-0.6-1-1.3-1.8-2-2.7c-0.3-0.5-0.7-1-1.2-1.3c-0.2-0.2-0.4-0.3-0.6-0.5l0,0C31.5,60.8,31.4,60.7,31.4,60.7z"/>
			<path class="st23" d="M31.8,60.7c-0.3-0.2-0.7-0.1-1.1-0.2c-0.6-0.2-1.2-0.1-1.7,0.2c-0.8,0.5-1.3,1.4-1.6,2.3
				c-0.4,1.2-0.4,2.5-0.5,3.7c0,1,0,2.1,0,3.1c-0.1,1,0,2,0,3c0,0.2,0,0.4,0.1,0.6c0.1,0.8,0.4,1.6,0.5,2.4c0.3,1.2,0.7,2.4,1,3.6
				c0.1,0.5,0.5,0.7,0.9,0.8c0.6,0.1,1.2,0.1,1.9,0.1c0.1,0,0.2,0,0.3,0c0.2-0.1,0.5-0.1,0.7-0.1c1-0.1,1.9-0.2,2.9-0.3
				c0.5,0,0.9-0.1,1.4-0.1c0.9,0,1.7-0.1,2.6-0.1c0.2,0,0.5,0,0.7,0c0.2,0,0.4-0.1,0.6-0.3l0,0c0.1-0.2,0.2-0.4,0.1-0.6
				c0-0.2,0-0.5,0-0.7c-0.1-1.1-0.2-2.2-0.5-3.3c-0.5-1.6-1.2-3.2-1.8-4.8c-0.5-1.5-1.4-2.8-2.1-4.2c-0.1-0.2-0.2-0.4-0.4-0.5
				c-0.6-1-1.3-1.8-2-2.7c-0.3-0.5-0.7-1-1.2-1.3c-0.2-0.2-0.4-0.3-0.6-0.5l0,0C31.9,60.8,31.8,60.7,31.8,60.7z"/>
			<line class="st26" x1="14.9" y1="36.1" x2="20.6" y2="38.1"/>
			<path class="st27" d="M13.4,33.6c0.1,0,0.2,0,0.3,0c0.1,0,0.2,0,0.2,0.1c0.1,0.5,0.5,0.8,1,0.9c0.2,0,0.4,0,0.5-0.1
				c0.4-0.1,0.7,0,0.9,0.3c0.3,0.4,0.7,0.7,1.3,0.6c0.1,0,0.2,0,0.3,0.1c0.3,0.4,0.8,0.6,1.3,0.6c0.1,0,0.2,0,0.2,0.1
				c0,0.4,0.1,0.7,0.1,1.1c0,0.2,0,0.4-0.1,0.7c-0.1,0.3,0,0.6,0.1,0.9c0.1,0.4,0.5,0.5,0.8,0.2c0.3-0.2,0.4-0.6,0.7-0.8
				c0.6-0.7,1.3-1,2.2-1c0.1,0,0.2,0.1,0.3,0.1c0.3,0.3,0.6,0.6,0.7,1.1c0.1,0.4,0.1,0.9-0.1,1.3c-0.2,0.3-0.5,0.6-0.7,0.8
				c-0.4,0.3-0.8,0.3-1.3,0.3c-0.2,0-0.5,0.1-0.6,0.3c-0.3,0.4-0.2,0.9-0.2,1.4c0.1,0.6,0.2,1.3,0.3,2c0.1,0.9,0.4,1.6,0.8,2.4
				c0.5,0.8,1.1,1.5,1.6,2.3c0.1,0.1,0.2,0.2,0.2,0.4c0.1,0.4,0.4,0.5,0.7,0.8c0.2,0.2,0.4,0.1,0.6,0.1l0,0c0.2-0.1,0.3-0.3,0.3-0.6
				c0.1-0.4,0.1-0.8,0.2-1.1c0.2-0.4,0.3-0.9,0.5-1.3c0.2-0.6,0.5-1.1,0.9-1.5c0.9-0.9,1.8-1.9,2.8-2.7c0.3-0.3,0.6-0.5,0.9-0.8
				c0,0.2,0,0.3,0,0.4c0,0,0,0,0,0c-0.1-0.5,0.3-0.8,0.6-1.1c0.8-0.8,1.4-1.7,1.9-2.6c0.5-0.9,0.9-1.8,1.1-2.8
				c0.1-0.7,0.2-1.4,0.1-2.1c-0.1-0.7-0.2-1.4-0.3-2c0-0.1-0.1-0.2-0.1-0.3l0,0l0,0c-0.4-1.8-1.1-3.4-2.4-4.8
				c-0.7-0.8-1.6-1.4-2.4-2.1c0,0-0.1-0.1-0.1-0.1l0,0h0c-0.5-0.5-1.1-0.8-1.8-1.1c-0.7-0.3-1.4-0.6-2.1-0.9
				c-1.2-0.4-2.4-0.6-3.7-0.4c-1.5,0.3-2.9,1-4.1,2c-0.1,0.1-0.2,0.3-0.3,0.3c-0.1,0-0.2-0.2-0.4-0.3c0,0-0.1,0-0.1-0.1
				c-0.8-0.4-1.8-0.3-2.5,0.3c-0.8,0.7-1.4,1.5-1.7,2.5c-0.2,0.8-0.8,1.4-1.5,1.7c-0.3,0.1-0.5,0.2-0.8,0.4
				c-0.7,0.3-1.3,0.7-1.7,1.2c-0.4,0.5-0.7,1.2-0.8,1.8c-0.1,0.3,0.1,0.6,0.4,0.6c0.3,0,0.5,0.1,0.8,0.1c0.4,0.1,0.8,0,1.2-0.3
				c0.1-0.1,0.3-0.2,0.4-0.3c0.1-0.1,0.2-0.2,0.3-0.2c0.1-0.1,0.2-0.1,0.2,0.2c0,0.6,0.2,1.1,0.7,1.3l0,0
				C12.7,33.7,13,33.6,13.4,33.6z"/>
			<path class="st11" d="M39.1,79.7c-0.9,0-1.7,0.1-2.6,0.1c-0.5,0-0.9,0-1.4,0.1c-1,0.1-1.9,0.3-2.9,0.3c-0.2,0-0.5,0-0.7,0.1
				c0.1,0.5,0.1,1.1,0.2,1.6c0.1,0.7,0.3,1.5,0.4,2.2h9.2c0-0.1,0-0.2-0.1-0.3c-0.1-0.6-0.3-1.3-0.4-1.9c-0.2-0.9-0.3-1.7-0.6-2.6
				l0,0c-0.2,0.2-0.4,0.3-0.6,0.3C39.5,79.7,39.3,79.7,39.1,79.7z"/>
			<path class="st6" d="M9.5,43.3c0.1-0.1,0.2-0.1,0.4-0.2c0.3-0.1,0.6-0.3,0.9-0.4c0.1,0,0.1,0,0.2-0.1c0-0.1-0.1-0.1-0.1-0.1
				c-0.3-0.2-0.7-0.4-1-0.7c-0.2-0.2-0.4-0.2-0.6-0.1C9.1,41.8,9,42,9.1,42.2c0.1,0.2,0,0.3-0.1,0.5c-0.3,0.3-0.2,0.6,0.2,0.7h0
				C9.3,43.4,9.4,43.4,9.5,43.3z"/>
			<path class="st28" d="M13.5,34.8c-0.2,0-0.4,0.2-0.4,0.4c0,0.3,0.2,0.5,0.5,0.5c0.2,0,0.4-0.2,0.4-0.4
				C14,35.1,13.7,34.8,13.5,34.8z"/>
		</g>
		<circle class="st26" cx="13.4" cy="35.5" r="1.6"/>
		<line class="st26" x1="11.7" y1="34.5" x2="12" y2="34.7"/>
	</g>
	<ellipse class="st27" cx="31.4" cy="26.7" rx="5.7" ry="6"/>
	<path class="st29" d="M24.9,46.8c0,0,4.2-2.6,6.4-6.1s3.1-8,3.1-8s-2.7,7.9-5.5,10.2S24.9,46.8,24.9,46.8z"/>
	<path class="st29" d="M23.9,46.1c0,0,4.1-2.7,6.2-6.4s3-8.4,3-8.4s-2.5,8.3-5.3,10.8S23.9,46.1,23.9,46.1z"/>
	<path class="st29" d="M23.2,44.5c0,0,4.1-2.7,6.2-6.4s3-8.4,3-8.4S29.8,38,27,40.4S23.2,44.5,23.2,44.5z"/>
	<path class="st30" d="M26.1,23.1c0.9,0.6,1.8,1.1,2.7,1.8c1.5,1.2,2.4,2.7,3.1,4.4l0,0c0.2,0,0.1-0.1,0.1-0.2
		c0.2-1.1-0.1-2.1-0.4-3.1c-0.3-0.9-0.9-1.6-1.4-2.3c-0.3-0.4-0.6-0.7-1-1c-0.5-0.4-1.2-0.5-1.8-0.5c-0.1,0-0.3,0.1-0.4,0.1
		c-0.4,0.1-0.7,0.3-0.8,0.7l0,0C26.1,23,26.1,23,26.1,23.1z"/>
	<path class="st29" d="M27.5,23.9c0,0,1-1.2,2.2-1.7s2.6-0.5,2.6-0.5s-2.6,0.4-3.4,1.2C28,23.7,27.5,23.9,27.5,23.9z"/>
	<path class="st29" d="M28.8,24.6c0,0,1-1.2,2.2-1.7c1.2-0.5,2.6-0.5,2.6-0.5s-2.6,0.4-3.4,1.2C29.3,24.4,28.8,24.6,28.8,24.6z"/>
	<path class="st7" d="M72.5,35.9c0.4,0,0.7-0.3,0.7-0.7c0-0.4-0.3-0.7-0.7-0.7c-0.4,0-0.7,0.3-0.7,0.7
		C71.8,35.6,72.1,35.9,72.5,35.9z"/>
	<path class="st22" d="M109.3,35.8c0.4,0,0.7-0.3,0.7-0.7c0-0.4-0.3-0.7-0.7-0.7c-0.4,0-0.7,0.3-0.7,0.7
		C108.7,35.5,108.9,35.8,109.3,35.8z"/>
	<path class="st7" d="M133.9,36.5c0.4,0,0.7-0.3,0.7-0.7c0-0.4-0.3-0.7-0.7-0.7c-0.4,0-0.7,0.3-0.7,0.7
		C133.3,36.2,133.5,36.5,133.9,36.5z"/>
</g>
</svg>
