<?xml version="1.0" encoding="utf-8"?>
<!-- Generator: Adobe Illustrator 24.3.0, SVG Export Plug-In . SVG Version: 6.00 Build 0)  -->
<svg version="1.1" id="Capa_1" xmlns="http://www.w3.org/2000/svg" xmlns:xlink="http://www.w3.org/1999/xlink" x="0px" y="0px"
	 viewBox="0 0 632.6 412.9" style="enable-background:new 0 0 632.6 412.9;" xml:space="preserve">
<style type="text/css">
	.st0{clip-path:url(#SVGID_2_);}
	.st1{fill:#893A1F;}
	.st2{fill:#F97919;}
	.st3{fill:#59230F;}
	.st4{fill:none;stroke:#774022;stroke-linejoin:round;stroke-miterlimit:10;}
	.st5{fill:#374689;}
	.st6{fill:none;stroke:#000100;stroke-width:0.75;stroke-miterlimit:10;}
	.st7{fill:#000100;}
	.st8{fill:#FFCFDC;}
	.st9{opacity:0.35;clip-path:url(#SVGID_4_);}
	.st10{fill:#FFFFFF;}
	.st11{fill:#FFA1BE;}
	.st12{fill:none;stroke:#AA3C4C;stroke-width:0.75;stroke-miterlimit:10;}
	.st13{fill:#682918;}
	.st14{fill:none;stroke:#000100;stroke-width:0.75;stroke-linecap:round;stroke-linejoin:round;stroke-miterlimit:10;}
	.st15{fill:none;stroke:#374689;stroke-linecap:round;stroke-linejoin:round;stroke-miterlimit:10;}
	.st16{fill:#1DA8DE;}
	.st17{enable-background:new    ;}
	.st18{opacity:0.52;}
	.st19{fill:#8276B5;}
	.st20{fill:#ADB5DC;}
	.st21{fill:#F5A3B4;}
</style>
<g>
	<defs>
		<rect id="SVGID_1_" x="0.5" y="-0.8" width="630.4" height="395.3"/>
	</defs>
	<clipPath id="SVGID_2_">
		<use xlink:href="#SVGID_1_"  style="overflow:visible;"/>
	</clipPath>
	<g class="st0">
		<g>
			<g>
				<path class="st1" d="M261.5,432.2c0,0-0.4,58.5,1.8,132.6c2.4,81.3-2,161.9-2,161.9l-51,1.5c0,0-0.3-142.8,0.1-160.7
					c0.4-17.8-6.2-125.3-6.2-125.3L261.5,432.2z"/>
				<g>
					<path class="st2" d="M265.9,702l1.1,17.8l29.1,19.7c3.6,2.3,7.7,3.8,12,4.2l4.9,0.5c3.8,0.4,6.7,3.8,6.3,7.6l-0.5,5.4h-71.4
						c-3.5,0-6.8-1.7-9-4.5l-4.2-5.5c-1.4-1.8-3.4-2.9-5.7-3.1l-3.4-0.3l-1.3,13.5h-13.3l-1.4-54.5L265.9,702z"/>
					<path class="st3" d="M247.3,757.1c-3.5,0-6.8-1.7-9-4.5l-4.2-5.5c-1.4-1.8-3.4-2.9-5.7-3.2l-3.4-0.3l-1.3,13.5h-13.3l-0.5-18.2
						l20.1,1c2.3,0.1,4.4,1.2,5.8,2.9l5,6c2.1,2.5,5.3,4,8.6,4l69.5,0.3l-0.3,3.9H247.3z"/>
					<polyline class="st4" points="265.8,726.3 270.7,720.4 263.2,720.5 268.1,713.1 261.8,713 266.1,705.2 259.3,706 					"/>
				</g>
			</g>
			<g>
				<path class="st1" d="M157.3,432.2c0,0-0.4,58.5,1.8,132.6c2.4,81.3-2,161.9-2,161.9l-51,1.5c0,0-0.3-142.8,0.1-160.7
					c0.4-17.8-6.2-125.3-6.2-125.3L157.3,432.2z"/>
				<g>
					<path class="st2" d="M161.7,702l1.1,17.8l29.1,19.7c3.6,2.3,7.7,3.8,12,4.2l4.9,0.5c3.8,0.4,6.7,3.8,6.3,7.6l-0.5,5.4h-71.4
						c-3.5,0-6.8-1.7-9-4.5l-4.2-5.5c-1.4-1.8-3.4-2.9-5.7-3.1l-3.4-0.3l-1.3,13.5h-13.3l-1.4-54.5L161.7,702z"/>
					<path class="st3" d="M143.1,757.1c-3.5,0-6.8-1.7-9-4.5l-4.2-5.5c-1.4-1.8-3.4-2.9-5.7-3.2l-3.4-0.3l-1.3,13.5h-13.3l-0.5-18.2
						l20.1,1c2.3,0.1,4.4,1.2,5.8,2.9l5,6c2.1,2.5,5.3,4,8.6,4l69.5,0.3l-0.3,3.9H143.1z"/>
					<polyline class="st4" points="161.5,726.3 166.5,720.4 159,720.5 163.9,713.1 157.6,713 161.9,705.2 155.1,706 					"/>
				</g>
			</g>
			<path class="st5" d="M106.5,281c0,0-21.4,56.2-21.8,107.6c-0.4,51.4,11.8,293,11.8,293l72,1L184,417.3l16.2,264.3h69.2
				c0,0,13.3-238-6-331.3c-8.2-39.7-30.1-77.4-30.1-77.4"/>
			<path class="st6" d="M184,417.3c0,0-0.1-90.7,0-128.9"/>
			<line class="st6" x1="95.7" y1="670.1" x2="169.3" y2="670.1"/>
			<line class="st6" x1="199.5" y1="670.1" x2="269.9" y2="670.1"/>
			<path class="st6" d="M123.3,281.3c0,0-22.4,55.8-23.8,107.1c-1.4,51.4,6.3,293.2,6.3,293.2"/>
			<g>
				<g>
					<path class="st7" d="M171.9,513.7c-2.6,11.5-5.2,23.1-7.7,34.7c-0.7,3.3-1.4,6.6-2.1,9.9c0,0.2,0.3,0.3,0.3,0.1
						c1.4-5.8,2.6-11.6,3.9-17.4c1.3-5.8,2.5-11.5,3.7-17.3c0.7-3.3,1.4-6.6,2.1-9.9C172.2,513.6,172,513.5,171.9,513.7L171.9,513.7
						z"/>
				</g>
			</g>
			<g>
				<g>
					<path class="st7" d="M170,547.9c-0.6,2.7-1.1,5.3-1.6,8c-0.5,2.6-1.2,5.2-1.4,7.8c0,0.2,0.2,0.2,0.3,0c0.7-2.6,1.1-5.3,1.6-7.9
						c0.5-2.6,1-5.3,1.4-7.9C170.2,547.8,170,547.8,170,547.9L170,547.9z"/>
				</g>
			</g>
			<g>
				<g>
					<path class="st7" d="M260.1,516.1c-0.9,12.5-2.3,24.9-4.2,37.3c-0.5,3.5-1.2,6.9-1.7,10.4c0,0.2,0.3,0.3,0.3,0.1
						c0.7-3.1,1.1-6.2,1.6-9.3c0.5-3.1,0.9-6.1,1.4-9.2c0.8-6.2,1.5-12.4,2.1-18.7c0.3-3.5,0.6-7.1,0.8-10.6
						C260.4,515.9,260.2,515.9,260.1,516.1L260.1,516.1z"/>
				</g>
			</g>
			<g>
				<g>
					<path class="st7" d="M262,543c0,3,0,5.9,0,8.9c0,3,0,5.9,0.1,8.9c0,0.1,0.2,0.1,0.2,0c0.2-2.9,0.1-5.9,0.1-8.9c0-3,0-5.9,0-8.9
						C262.4,542.8,262,542.8,262,543L262,543z"/>
				</g>
			</g>
			<path class="st6" d="M209.1,681.5c0,0-15.2-262.1-25.1-291"/>
		</g>
		<g>
			<g>
				<path class="st1" d="M282.2,173.2c6.3-20.6,9-47.4,11.8-49c1.3-0.7,2.5,0.3,3.1,2.1c1.5,4.1,1.3,11.6,3.9,11.5
					c1.5-0.1,5.9-17.6,9.1-25.2c1.1-2.7,3.9-1.3,3.9,0.5c0.1,7.1-3.9,23.2-3.9,23.2c1.1,0,4.9-18.6,8.7-25.4
					c0.8-1.5,3.7-1.3,3.8,0.6c0.1,7.5-3.7,27.2-3.7,27.2s3.7-19.1,7.7-25c0.7-1.1,3.4-0.5,3.4,0.8c0.2,5.8-4.3,28.2-4.3,28.2
					s3.9-16.1,6.3-20.9c0.7-1.3,3.6-0.1,3.7,1.3c1.2,11.2-11.2,58.1-11.2,58.1"/>
			</g>
			<g>
				<g>
					<path class="st7" d="M325,145.2c-5.7,2.7-10.5,7.5-13.5,13c-0.8,1.5-1.7,3.2-2.1,4.9c-0.1,0.2,0.3,0.4,0.4,0.2
						c0.8-1.8,1.6-3.6,2.6-5.4c1-1.8,2.2-3.4,3.5-5c2.6-3.1,5.8-5.6,9.3-7.5C325.3,145.3,325.1,145.1,325,145.2L325,145.2z"/>
				</g>
			</g>
			<g>
				<g>
					<path class="st7" d="M300.5,140.3c0.7,2.4,1.2,4.9,1.3,7.5c0,1.2-0.1,2.4-0.2,3.5c-0.2,1.2-0.6,2.3-1,3.5
						c-0.1,0.2,0.2,0.3,0.3,0.1c1.2-2,1.5-4.7,1.4-7c-0.1-2.6-0.7-5.2-1.4-7.7C300.8,140,300.4,140.1,300.5,140.3L300.5,140.3z"/>
				</g>
			</g>
			<path class="st8" d="M123.6,141.3c0,0,29-4.8,45.5-4.5c16.4,0.3,60.6,7.7,60.6,7.7l17,151.1c-23.1,23.1-129.6,15.1-140.9,0
				L123.6,141.3z"/>
			<g>
				<defs>
					<path id="SVGID_3_" d="M123.6,141.3c0,0,29-4.8,45.5-4.5c16.4,0.3,60.6,7.7,60.6,7.7l17,151.1c-23.1,23.1-129.6,15.1-140.9,0
						L123.6,141.3z"/>
				</defs>
				<clipPath id="SVGID_4_">
					<use xlink:href="#SVGID_3_"  style="overflow:visible;"/>
				</clipPath>
				<g class="st9">
					<g>
						<g>
							<path class="st10" d="M104.8,298.1c12.8,2.6,25.7,4.4,38.7,5.4c13,1,26,1.1,39,0.4c9.4-0.5,18.9-1.4,28.2-2.7
								c9.2-1.2,18.4-2.7,27.4-5.2c4.4-1.2,8.7-2.6,12.8-4.4c3.7-1.6,7.2-3.5,10.3-6c0.7-0.6,1.3-1.2,1.9-2c0.4-0.6-0.1-1.5-0.8-1.1
								c-3.2,2-6.4,4.2-9.8,5.9c-3.9,1.9-7.9,3.4-12.1,4.7c-8.8,2.7-17.9,4.4-27,5.7c-8.7,1.3-17.6,2.2-26.4,2.9
								c-12.9,1-25.8,1.2-38.7,0.6c-12.9-0.6-25.9-2-38.6-4.1c-1.6-0.3-3.2-0.5-4.7-0.8C104.5,297.2,104.3,298,104.8,298.1
								L104.8,298.1z"/>
						</g>
					</g>
					<g>
						<g>
							<path class="st10" d="M104.2,288.1c12.8,2.6,25.7,4.4,38.7,5.4c13,1,26,1.1,39,0.4c9.4-0.5,18.9-1.4,28.2-2.7
								c9.2-1.2,18.4-2.7,27.4-5.2c4.4-1.2,8.7-2.6,12.8-4.4c3.7-1.6,7.2-3.5,10.3-6c0.7-0.6,1.3-1.2,1.9-2c0.4-0.6-0.1-1.5-0.8-1.1
								c-3.2,2-6.4,4.2-9.8,5.9c-3.9,1.9-7.9,3.4-12.1,4.7c-8.8,2.7-17.9,4.4-27,5.7c-8.7,1.3-17.6,2.2-26.4,2.9
								c-12.9,1-25.8,1.2-38.7,0.6c-12.9-0.6-25.9-2-38.6-4.1c-1.6-0.3-3.2-0.5-4.7-0.8C103.9,287.2,103.7,288,104.2,288.1
								L104.2,288.1z"/>
						</g>
					</g>
					<g>
						<g>
							<path class="st10" d="M103.6,278c12.8,2.6,25.7,4.4,38.7,5.4c13,1,26,1.1,39,0.4c9.4-0.5,18.9-1.4,28.2-2.7
								c9.2-1.2,18.4-2.7,27.4-5.2c4.4-1.2,8.7-2.6,12.8-4.4c3.7-1.6,7.2-3.5,10.3-6c0.7-0.6,1.3-1.2,1.9-2c0.4-0.6-0.1-1.5-0.8-1.1
								c-3.2,2-6.4,4.2-9.8,5.9c-3.9,1.9-7.9,3.4-12.1,4.7c-8.8,2.7-17.9,4.4-27,5.7c-8.7,1.3-17.6,2.2-26.4,2.9
								c-12.9,1-25.8,1.2-38.7,0.6c-12.9-0.6-25.9-2-38.6-4.1c-1.6-0.3-3.2-0.5-4.7-0.8C103.3,277.1,103.1,277.9,103.6,278
								L103.6,278z"/>
						</g>
					</g>
					<g>
						<g>
							<path class="st10" d="M103,267.9c12.8,2.6,25.7,4.4,38.7,5.4c13,1,26,1.1,39,0.4c9.4-0.5,18.9-1.4,28.2-2.7
								c9.2-1.2,18.4-2.7,27.4-5.2c4.4-1.2,8.7-2.6,12.8-4.4c3.7-1.6,7.2-3.5,10.3-6c0.7-0.6,1.3-1.2,1.9-2c0.4-0.6-0.1-1.5-0.8-1.1
								c-3.2,2-6.4,4.2-9.8,5.9c-3.9,1.9-7.9,3.4-12.1,4.7c-8.8,2.7-17.9,4.4-27,5.7c-8.7,1.3-17.6,2.2-26.4,2.9
								c-12.9,1-25.8,1.2-38.7,0.6c-12.9-0.6-25.9-2-38.6-4.1c-1.6-0.3-3.2-0.5-4.7-0.8C102.7,267.1,102.5,267.8,103,267.9
								L103,267.9z"/>
						</g>
					</g>
					<g>
						<g>
							<path class="st10" d="M102.4,257.9c12.8,2.6,25.7,4.4,38.7,5.4c13,1,26,1.1,39,0.4c9.4-0.5,18.9-1.4,28.2-2.7
								c9.2-1.2,18.4-2.7,27.4-5.2c4.4-1.2,8.7-2.6,12.8-4.4c3.7-1.6,7.2-3.5,10.3-6c0.7-0.6,1.3-1.2,1.9-2c0.4-0.6-0.1-1.5-0.8-1.1
								c-3.2,2-6.4,4.2-9.8,5.9c-3.9,1.9-7.9,3.4-12.1,4.7c-8.8,2.7-17.9,4.4-27,5.7c-8.7,1.3-17.6,2.2-26.4,2.9
								c-12.9,1-25.8,1.2-38.7,0.6c-12.9-0.6-25.9-2-38.6-4.1c-1.6-0.3-3.2-0.5-4.7-0.8C102.1,257,101.9,257.8,102.4,257.9
								L102.4,257.9z"/>
						</g>
					</g>
					<g>
						<g>
							<path class="st10" d="M101.8,247.8c12.8,2.6,25.7,4.4,38.7,5.4c13,1,26,1.1,39,0.4c9.4-0.5,18.9-1.4,28.2-2.7
								c9.2-1.2,18.4-2.7,27.4-5.2c4.4-1.2,8.7-2.6,12.8-4.4c3.7-1.6,7.2-3.5,10.3-6c0.7-0.6,1.3-1.2,1.9-2c0.4-0.6-0.1-1.5-0.8-1.1
								c-3.2,2-6.4,4.2-9.8,5.9c-3.9,1.9-7.9,3.4-12.1,4.7c-8.8,2.7-17.9,4.4-27,5.7c-8.7,1.3-17.6,2.2-26.4,2.9
								c-12.9,1-25.8,1.2-38.7,0.6c-12.9-0.6-25.9-2-38.6-4.1c-1.6-0.3-3.2-0.5-4.7-0.8C101.6,246.9,101.3,247.7,101.8,247.8
								L101.8,247.8z"/>
						</g>
					</g>
					<g>
						<g>
							<path class="st10" d="M101.3,237.8c12.8,2.6,25.7,4.4,38.7,5.4c13,1,26,1.1,39,0.4c9.4-0.5,18.9-1.4,28.2-2.7
								c9.2-1.2,18.4-2.7,27.4-5.2c4.4-1.2,8.7-2.6,12.8-4.4c3.7-1.6,7.2-3.5,10.3-6c0.7-0.6,1.3-1.2,1.9-2c0.4-0.6-0.1-1.5-0.8-1.1
								c-3.2,2-6.4,4.2-9.8,5.9c-3.9,1.9-7.9,3.4-12.1,4.7c-8.8,2.7-17.9,4.4-27,5.7c-8.7,1.3-17.6,2.2-26.4,2.9
								c-12.9,1-25.8,1.2-38.7,0.6c-12.9-0.6-25.9-2-38.6-4.1c-1.6-0.3-3.2-0.5-4.7-0.8C101,236.9,100.7,237.7,101.3,237.8
								L101.3,237.8z"/>
						</g>
					</g>
					<g>
						<g>
							<path class="st10" d="M100.7,227.7c12.8,2.6,25.7,4.4,38.7,5.4c13,1,26,1.1,39,0.4c9.4-0.5,18.9-1.4,28.2-2.7
								c9.2-1.2,18.4-2.7,27.4-5.2c4.4-1.2,8.7-2.6,12.8-4.4c3.7-1.6,7.2-3.5,10.3-6c0.7-0.6,1.3-1.2,1.9-2c0.4-0.6-0.1-1.5-0.8-1.1
								c-3.2,2-6.4,4.2-9.8,5.9c-3.9,1.9-7.9,3.4-12.1,4.7c-8.8,2.7-17.9,4.4-27,5.7c-8.7,1.3-17.6,2.2-26.4,2.9
								c-12.9,1-25.8,1.2-38.7,0.6c-12.9-0.6-25.9-2-38.6-4.1c-1.6-0.3-3.2-0.5-4.7-0.8C100.4,226.8,100.1,227.6,100.7,227.7
								L100.7,227.7z"/>
						</g>
					</g>
					<g>
						<g>
							<path class="st10" d="M100.1,217.6c12.8,2.6,25.7,4.4,38.7,5.4c13,1,26,1.1,39,0.4c9.4-0.5,18.9-1.4,28.2-2.7
								c9.2-1.2,18.4-2.7,27.4-5.2c4.4-1.2,8.7-2.6,12.8-4.4c3.7-1.6,7.2-3.5,10.3-6c0.7-0.6,1.3-1.2,1.9-2c0.4-0.6-0.1-1.5-0.8-1.1
								c-3.2,2-6.4,4.2-9.8,5.9c-3.9,1.9-7.9,3.4-12.1,4.7c-8.8,2.7-17.9,4.4-27,5.7c-8.7,1.3-17.6,2.2-26.4,2.9
								c-12.9,1-25.8,1.2-38.7,0.6c-12.9-0.6-25.9-2-38.6-4.1c-1.6-0.3-3.2-0.5-4.7-0.8C99.8,216.8,99.5,217.5,100.1,217.6
								L100.1,217.6z"/>
						</g>
					</g>
					<g>
						<g>
							<path class="st10" d="M99.5,207.6c12.8,2.6,25.7,4.4,38.7,5.4c13,1,26,1.1,39,0.4c9.4-0.5,18.9-1.4,28.2-2.7
								c9.2-1.2,18.4-2.7,27.4-5.2c4.4-1.2,8.7-2.6,12.8-4.4c3.7-1.6,7.2-3.5,10.3-6c0.7-0.6,1.3-1.2,1.9-2c0.4-0.6-0.1-1.5-0.8-1.1
								c-3.2,2-6.4,4.2-9.8,5.9c-3.9,1.9-7.9,3.4-12.1,4.7c-8.8,2.7-17.9,4.4-27,5.7c-8.7,1.3-17.6,2.2-26.4,2.9
								c-12.9,1-25.8,1.2-38.7,0.6c-12.9-0.6-25.9-2-38.6-4.1c-1.6-0.3-3.2-0.5-4.7-0.8C99.2,206.7,98.9,207.5,99.5,207.6
								L99.5,207.6z"/>
						</g>
					</g>
					<g>
						<g>
							<path class="st10" d="M98.9,197.5c12.8,2.6,25.7,4.4,38.7,5.4c13,1,26,1.1,39,0.4c9.4-0.5,18.9-1.4,28.2-2.7
								c9.2-1.2,18.4-2.7,27.4-5.2c4.4-1.2,8.7-2.6,12.8-4.4c3.7-1.6,7.2-3.5,10.3-6c0.7-0.6,1.3-1.2,1.9-2c0.4-0.6-0.1-1.5-0.8-1.1
								c-3.2,2-6.4,4.2-9.8,5.9c-3.9,1.9-7.9,3.4-12.1,4.7c-8.8,2.7-17.9,4.4-27,5.7c-8.7,1.3-17.6,2.2-26.4,2.9
								c-12.9,1-25.8,1.2-38.7,0.6c-12.9-0.6-25.9-2-38.6-4.1c-1.6-0.3-3.2-0.5-4.7-0.8C98.6,196.6,98.3,197.4,98.9,197.5
								L98.9,197.5z"/>
						</g>
					</g>
					<g>
						<g>
							<path class="st10" d="M98.3,187.5c12.8,2.6,25.7,4.4,38.7,5.4c13,1,26,1.1,39,0.4c9.4-0.5,18.9-1.4,28.2-2.7
								c9.2-1.2,18.4-2.7,27.4-5.2c4.4-1.2,8.7-2.6,12.8-4.4c3.7-1.6,7.2-3.5,10.3-6c0.7-0.6,1.3-1.2,1.9-2c0.4-0.6-0.1-1.5-0.8-1.1
								c-3.2,2-6.4,4.2-9.8,5.9c-3.9,1.9-7.9,3.4-12.1,4.7c-8.8,2.7-17.9,4.4-27,5.7c-8.7,1.3-17.6,2.2-26.4,2.9
								c-12.9,1-25.8,1.2-38.7,0.6c-12.9-0.6-25.9-2-38.6-4.1c-1.6-0.3-3.2-0.5-4.7-0.8C98,186.6,97.7,187.4,98.3,187.5L98.3,187.5z
								"/>
						</g>
					</g>
					<g>
						<g>
							<path class="st10" d="M97.7,177.4c12.8,2.6,25.7,4.4,38.7,5.4c13,1,26,1.1,39,0.4c9.4-0.5,18.9-1.4,28.2-2.7
								c9.2-1.2,18.4-2.7,27.4-5.2c4.4-1.2,8.7-2.6,12.8-4.4c3.7-1.6,7.2-3.5,10.3-6c0.7-0.6,1.3-1.2,1.9-2c0.4-0.6-0.1-1.5-0.8-1.1
								c-3.2,2-6.4,4.2-9.8,5.9c-3.9,1.9-7.9,3.4-12.1,4.7c-8.8,2.7-17.9,4.4-27,5.7c-8.7,1.3-17.6,2.2-26.4,2.9
								c-12.9,1-25.8,1.2-38.7,0.6c-12.9-0.6-25.9-2-38.6-4.1c-1.6-0.3-3.2-0.5-4.7-0.8C97.4,176.5,97.1,177.3,97.7,177.4
								L97.7,177.4z"/>
						</g>
					</g>
					<g>
						<g>
							<path class="st10" d="M97.1,167.3c12.8,2.6,25.7,4.4,38.7,5.4c13,1,26,1.1,39,0.4c9.4-0.5,18.9-1.4,28.2-2.7
								c9.2-1.2,18.4-2.7,27.4-5.2c4.4-1.2,8.7-2.6,12.8-4.4c3.7-1.6,7.2-3.5,10.3-6c0.7-0.6,1.3-1.2,1.9-2c0.4-0.6-0.1-1.5-0.8-1.1
								c-3.2,2-6.4,4.2-9.8,5.9c-3.9,1.9-7.9,3.4-12.1,4.7c-8.8,2.7-17.9,4.4-27,5.7c-8.7,1.3-17.6,2.2-26.4,2.9
								c-12.9,1-25.8,1.2-38.7,0.6c-12.9-0.6-25.9-2-38.6-4.1c-1.6-0.3-3.2-0.5-4.7-0.8C96.8,166.5,96.5,167.2,97.1,167.3
								L97.1,167.3z"/>
						</g>
					</g>
					<g>
						<g>
							<path class="st10" d="M96.5,157.3c12.8,2.6,25.7,4.4,38.7,5.4c13,1,26,1.1,39,0.4c9.4-0.5,18.9-1.4,28.2-2.7
								c9.2-1.2,18.4-2.7,27.4-5.2c4.4-1.2,8.7-2.6,12.8-4.4c3.7-1.6,7.2-3.5,10.3-6c0.7-0.6,1.3-1.2,1.9-2c0.4-0.6-0.1-1.5-0.8-1.1
								c-3.2,2-6.4,4.2-9.8,5.9c-3.9,1.9-7.9,3.4-12.1,4.7c-8.8,2.7-17.9,4.4-27,5.7c-8.7,1.3-17.6,2.2-26.4,2.9
								c-12.9,1-25.8,1.2-38.7,0.6c-12.9-0.6-25.9-2-38.6-4.1c-1.6-0.3-3.2-0.5-4.7-0.8C96.2,156.4,96,157.2,96.5,157.3L96.5,157.3z
								"/>
						</g>
					</g>
					<g>
						<g>
							<path class="st10" d="M95.9,147.2c12.8,2.6,25.7,4.4,38.7,5.4c13,1,26,1.1,39,0.4c9.4-0.5,18.9-1.4,28.2-2.7
								c9.2-1.2,18.4-2.7,27.4-5.2c4.4-1.2,8.7-2.6,12.8-4.4c3.7-1.6,7.2-3.5,10.3-6c0.7-0.6,1.3-1.2,1.9-2c0.4-0.6-0.1-1.5-0.8-1.1
								c-3.2,2-6.4,4.2-9.8,5.9c-3.9,1.9-7.9,3.4-12.1,4.7c-8.8,2.7-17.9,4.4-27,5.7c-8.7,1.3-17.6,2.2-26.4,2.9
								c-12.9,1-25.8,1.2-38.7,0.6c-12.9-0.6-25.9-2-38.6-4.1c-1.6-0.3-3.2-0.5-4.7-0.8C95.6,146.3,95.4,147.1,95.9,147.2
								L95.9,147.2z"/>
						</g>
					</g>
					<g>
						<g>
							<path class="st10" d="M95.3,137.2c12.8,2.6,25.7,4.4,38.7,5.4c13,1,26,1.1,39,0.4c9.4-0.5,18.9-1.4,28.2-2.7
								c9.2-1.2,18.4-2.7,27.4-5.2c4.4-1.2,8.7-2.6,12.8-4.4c3.7-1.6,7.2-3.5,10.3-6c0.7-0.6,1.3-1.2,1.9-2c0.4-0.6-0.1-1.5-0.8-1.1
								c-3.2,2-6.4,4.2-9.8,5.9c-3.9,1.9-7.9,3.4-12.1,4.7c-8.8,2.7-17.9,4.4-27,5.7c-8.7,1.3-17.6,2.2-26.4,2.9
								c-12.9,1-25.8,1.2-38.7,0.6c-12.9-0.6-25.9-2-38.6-4.1c-1.6-0.3-3.2-0.5-4.7-0.8C95,136.3,94.8,137.1,95.3,137.2L95.3,137.2z
								"/>
						</g>
					</g>
				</g>
			</g>
			<path class="st11" d="M193.8,136.9c0,0,10.6-2.2,20.9-0.9c7.2,0.9,20.5,6.6,30.3,15.8c13.7,13,27.4,42.5,27.4,42.5l13.3-45.7
				l47.2,8.8c0,0-6.6,77.8-14.9,100.4c-2.7,7.4-13.6,23.4-27.7,25.3c-19.6,2.5-36.5-9.1-44.4-19.2c-8-10.1-37-40.3-37-40.3"/>
			<path class="st6" d="M272.4,194.2c0,0-13.1,44.2-14.1,51.9"/>
			<path class="st11" d="M236.6,181.9l25.2,122.2c0,0-34.4-17.9-46.3-36.4c-11.9-18.5-21.7-130.9-21.7-130.9"/>
			<line class="st6" x1="236.6" y1="181.9" x2="255.6" y2="274.2"/>
			<line class="st12" x1="292.2" y1="149.6" x2="290.4" y2="157.9"/>
			<line class="st12" x1="301.2" y1="151.4" x2="299.7" y2="159.7"/>
			<line class="st12" x1="310.3" y1="153.1" x2="309.1" y2="161.1"/>
			<line class="st12" x1="319.3" y1="154.8" x2="318.1" y2="162.7"/>
			<line class="st12" x1="328.1" y1="156.4" x2="326.8" y2="164.3"/>
			<path class="st12" d="M261.8,304.2c0,0-34.4-17.9-46.3-36.4c-11.9-18.5-21.7-130.9-21.7-130.9"/>
			<g>
				<g>
					<path class="st1" d="M153.6,242.8c20.9-5.1,43.9-19.9,46.9-18.4c1.3,0.6,1.2,2.2,0.1,3.8c-2.5,3.6-8.8,7.7-7.2,9.7
						c1,1.2,17.7-6.6,25.8-8.3c2.9-0.6,3.3,2.5,1.8,3.5c-5.7,4.1-21.2,11.5-21.2,11.5c0.6,0.9,18-8.1,25.7-8.8
						c1.7-0.2,3.2,2.3,1.7,3.4c-6.1,4.4-24.3,13.9-24.3,13.9s17.7-9.3,24.9-9.4c1.3,0,2.4,2.5,1.3,3.3c-4.6,3.5-25.5,14.1-25.5,14.1
						s15.3-7.4,20.7-8.2c1.4-0.2,2.2,2.9,1.1,3.8c-8.5,7.4-54,25.5-54,25.5"/>
				</g>
				<g>
					<path class="st11" d="M107,185.4L92,321.2c8.6-3,36.5-22.6,42.9-29.2c3.6-3.7,7.2-7.6,9.5-12.2c4.4-8.8,2.9-19.2,2.5-29.1
						c-1.5-38-7.8-107.4-7.8-107.4"/>
				</g>
				<path class="st12" d="M92,321.2c8.6-3,36.5-22.6,42.9-29.2c3.6-3.7,7.2-7.6,9.5-12.2c4.4-8.8,2.9-19.2,2.5-29.1
					c-1.5-38-7.8-107.4-7.8-107.4"/>
				<g>
					<path class="st11" d="M139.2,141c0,0-7.4,0-19.5,1.7c-22.5,3.2-40.4,16.9-48.6,46.7c-3.1,11.3-14.9,73.8-16.2,85.4
						c-2.3,21.5,10.8,49.3,43.9,46.6c20.4-1.7,88.1-42,88.1-42l-14.9-44.8l-61.9,15.5"/>
				</g>
				<line class="st6" x1="99.3" y1="255.5" x2="172.1" y2="234.6"/>
				<line class="st6" x1="116" y1="207.1" x2="113.2" y2="251.3"/>
				<line class="st12" x1="174.3" y1="241.2" x2="165.8" y2="243.9"/>
				<line class="st12" x1="177" y1="248.7" x2="168.5" y2="251.3"/>
				<line class="st12" x1="179.6" y1="257" x2="171.1" y2="259.6"/>
				<line class="st12" x1="181.8" y1="263.8" x2="173.3" y2="266.4"/>
				<line class="st12" x1="184.4" y1="271.6" x2="176" y2="274.2"/>
			</g>
		</g>
		<g>
			<g>
				<path class="st2" d="M180.8,122.6c1.3,7.3,2.7,14.6,5.3,21.5c2.3,6,5.6,11.8,10.3,16.2c7.3,6.9,23.7,10.4,32.6,5
					c4-2.5,6.3-7.1,7.1-11.8c1.2-6.8-0.3-14.1-4.1-19.9c-3.8-5.8-10-10-16.7-11.5c-1-0.2-2.3-0.6-2.6-1.6c-0.1-0.5,0-1,0.1-1.5
					c0.8-2.9,1.2-5.9,0.5-8.9c-0.7-2.9-2.6-5.6-5.4-6.8c-1.2-0.5-2.6-0.7-3.4-1.6c-0.6-0.7-0.9-1.6-1.1-2.4
					c-2.8-9.6-8.4-18.4-15.9-25"/>
			</g>
			<g>
				<path class="st13" d="M190.4,94.4c0.6-1.3,2.3-2,3.8-1.7c1.5,0.3,2.7,1.4,3.4,2.7c0.7,1.3,1.1,2.8,1.3,4.3
					c0.4,2.8,0.3,5.9-1.4,8.1c-1.3,1.6-3.4,2.4-5.4,2.2c-2-0.2-3.9-1.5-4.8-3.3"/>
			</g>
			<g>
				<path class="st2" d="M148.5,59.2c-3.3-0.3-6.7-1-9.5-2.9c-2.8-1.9-4.8-5.1-4.6-8.4c0.2-3,2.3-5.6,4.8-7.2
					c2.6-1.6,5.6-2.2,8.5-2.5c4-0.4,8.5-0.2,11.2,2.7c3.1,3.3,2.7,8.5,1.4,12.8c-0.8,2.7-2,5.5-4.2,7.3"/>
			</g>
			<path class="st1" d="M172.2,134.6L172.2,134.6c14.2-1.6,24.4-14.5,22.8-28.7L192,80.2L175.1,72l-34.5,14.1l2.9,25.7
				C145.1,126.1,158,136.3,172.2,134.6z"/>
			<path class="st1" d="M167.8,153.4L167.8,153.4c9.9,0,17.9-8,17.9-17.9v-12.1H150v12.1C150,145.4,158,153.4,167.8,153.4z"/>
			<g>
				<path class="st2" d="M121.8,88.7c-0.8,7.3-3.8,14.3-8.6,19.9c-2.6,3-5.6,5.5-8.3,8.4c-2.7,2.9-5,6.2-5.8,10.1
					c-0.8,3.8,0.3,8.3,3.5,10.6c2.5,1.9,5.9,2.2,8.7,3.5c-1.9,1.7-2.3,4.4-2.3,6.9c-0.1,7.8,2.9,15.5,8.3,21.2
					c11.9,12.7,42.1,17.3,43.3-6.7c0.4-7.1-0.6-14.4-2.4-21.3c-2.6-9.7-10.8-17.2-13.7-26.8c-1.1-3.5-1.4-7.2-1.6-10.8
					c-0.1-1.8-0.3-3.4,0.2-5.1c0.5-1.8,1.1-3.6,1.6-5.5"/>
			</g>
			<g>
				<path class="st2" d="M137.9,98.3c4.7,0.2,9.1,0.1,13.5-1.4c4.3-1.4,8.3-3.6,12-6.2c5.3-3.7,9.8-8.4,13.9-13.4
					c6.5,3.4,12.2,8.2,16.5,14c0.8-0.2,1.4-0.9,1.9-1.7c7-11.1-1.1-26.7-11.4-32.7c-8-4.6-17.8-5.7-26.8-4.7
					c-0.5,0.1-1.1,0.1-1.6,0.2c-12.9,1.9-23.8,8.1-30.3,19.4c-4.2,7.4-5.5,18.9-6.7,27.3"/>
			</g>
			<g>
				<path class="st1" d="M146.1,103.6c-2.4-3.3-7.7-3.7-10.9-1.2c-3.2,2.5-4.2,7.3-2.7,11c0.7,1.6,1.7,3.1,2.9,4.4
					c0.9,1.1,1.9,2.2,3.1,3c1.9,1.3,4.3,1.8,6.4,1.2c2.2-0.6,4.1-2.3,4.6-4.5"/>
			</g>
			<path class="st6" d="M157.7,130.3c7.3,4.5,20.3,4.5,28.1-0.8"/>
			<g>
				<g>
					<path class="st7" d="M136.1,107.6c0.5-0.9,1.4-1.6,2.5-1.7c1-0.1,2,0.3,2.8,0.9c0.9,0.6,1.5,1.6,1.9,2.6c0.2,0.5,0.4,1,0.5,1.5
						c0.1,0.5,0.2,1.1,0.5,1.5c0.1,0.2,0.4,0.1,0.4-0.1c0-0.6-0.2-1.3-0.4-1.8c-0.2-0.6-0.4-1.2-0.7-1.8c-0.5-1-1.2-1.9-2.2-2.5
						c-0.9-0.5-2-0.8-3-0.6c-1.1,0.2-1.9,1-2.4,2C135.9,107.6,136.1,107.7,136.1,107.6L136.1,107.6z"/>
				</g>
			</g>
			<path class="st7" d="M161.1,101.2c0.1,1.4-1,2.6-2.5,2.7c-1.4,0.1-2.6-1-2.7-2.5c-0.1-1.4,1-2.6,2.5-2.7
				C159.8,98.7,161,99.8,161.1,101.2z"/>
			<path class="st7" d="M187.2,96.6c0.1,1.4-1,2.6-2.5,2.7c-1.4,0.1-2.6-1-2.7-2.5c-0.1-1.4,1-2.6,2.5-2.7
				C186,94.1,187.2,95.2,187.2,96.6z"/>
			<g>
				<g>
					<path class="st7" d="M176.1,102.3c0.6,1.1,1.1,2.3,1.6,3.5c0.4,0.9,0.8,1.9,1.1,2.9c0.2,0.6,0.5,1.5,0.2,2.1
						c-0.2,0.6-1.1,0.6-1.6,0.7c-0.8,0.1-1.7,0-2.5,0.1c-0.3,0-0.3,0.5,0,0.5c0.8,0.1,1.7,0,2.5,0c0.6-0.1,1.2-0.1,1.7-0.5
						c0.7-0.5,0.6-1.3,0.5-2.1c-0.2-1-0.6-2-1-3c-0.4-1-0.9-1.9-1.5-2.8c-0.3-0.5-0.6-1-0.9-1.5
						C176.2,102.1,176.1,102.2,176.1,102.3L176.1,102.3z"/>
				</g>
			</g>
			<path class="st14" d="M152,97.4c2.1-3.6,7.2-4.7,10.1-2.3"/>
			<path class="st14" d="M180.8,92.2c1.9-2.5,5.7-2.7,7.5-0.6"/>
			<g>
				<path class="st10" d="M169.8,117.1c0,3.1,1.8,6,4.2,7.2c2.4,1.2,7.5,1.4,8.2-6.4L169.8,117.1z"/>
			</g>
			<path class="st15" d="M139.8,57.6c6.8-3.8,14.6-5.8,22.4-5.7"/>
		</g>
	</g>
</g>
<path class="st16" d="M630.6,412.5H0.6v-61c0-11.9,9.7-21.6,21.6-21.6H609c11.9,0,21.6,9.7,21.6,21.6V412.5z"/>
<g>
	<text transform="matrix(1 0 0 1 154.6021 610.506)" class="st10" style="font-family:'Roboto-Medium'; font-size:38px;">Avisos importantes</text>
</g>
<g>
	<text transform="matrix(1 0 0 1 170.0071 492.8767)" class="st10" style="font-family:'Roboto-Medium'; font-size:38px;">Actividades</text>
</g>
<g>
	<g class="st17">
		<path class="st10" d="M234.4,377.9H224l-2.2,6.3h-4.9l10.2-27h4.2l10.2,27h-4.9L234.4,377.9z M225.3,374.1h7.8l-3.9-11.2
			L225.3,374.1z"/>
		<path class="st10" d="M252.4,380.9c1.1,0,2.1-0.3,2.8-1c0.7-0.7,1.1-1.5,1.2-2.4h4.2c0,1.3-0.4,2.4-1.2,3.5
			c-0.7,1.1-1.7,1.9-3,2.6c-1.2,0.6-2.6,0.9-4,0.9c-2.8,0-5-0.9-6.7-2.7c-1.6-1.8-2.5-4.3-2.5-7.5v-0.5c0-3.1,0.8-5.5,2.4-7.3
			c1.6-1.8,3.9-2.8,6.7-2.8c2.4,0,4.3,0.7,5.8,2.1c1.5,1.4,2.3,3.2,2.4,5.5h-4.2c0-1.2-0.4-2.1-1.2-2.8c-0.7-0.7-1.7-1.1-2.8-1.1
			c-1.5,0-2.6,0.5-3.4,1.6c-0.8,1.1-1.2,2.7-1.2,4.8v0.7c0,2.2,0.4,3.8,1.2,4.9C249.8,380.4,250.9,380.9,252.4,380.9z"/>
		<path class="st10" d="M269.7,359.2v4.9h3.5v3.3h-3.5v11.2c0,0.8,0.2,1.3,0.5,1.7c0.3,0.3,0.8,0.5,1.6,0.5c0.5,0,1-0.1,1.6-0.2v3.5
			c-1,0.3-2,0.4-3,0.4c-3.5,0-5.2-1.9-5.2-5.7v-11.4h-3.3v-3.3h3.3v-4.9H269.7z"/>
		<path class="st10" d="M276.7,358.9c0-0.7,0.2-1.3,0.7-1.7c0.4-0.5,1.1-0.7,1.9-0.7s1.4,0.2,1.9,0.7c0.4,0.5,0.7,1,0.7,1.7
			c0,0.7-0.2,1.2-0.7,1.7c-0.4,0.5-1.1,0.7-1.9,0.7s-1.4-0.2-1.9-0.7C276.9,360.1,276.7,359.6,276.7,358.9z M281.5,384.2H277v-20.1
			h4.5V384.2z"/>
		<path class="st10" d="M293.5,378.5l4.2-14.4h4.7l-7,20.1h-3.9l-7-20.1h4.7L293.5,378.5z"/>
		<path class="st10" d="M305.2,358.9c0-0.7,0.2-1.3,0.7-1.7c0.4-0.5,1.1-0.7,1.9-0.7s1.4,0.2,1.9,0.7c0.4,0.5,0.7,1,0.7,1.7
			c0,0.7-0.2,1.2-0.7,1.7c-0.4,0.5-1.1,0.7-1.9,0.7s-1.4-0.2-1.9-0.7C305.4,360.1,305.2,359.6,305.2,358.9z M310,384.2h-4.5v-20.1
			h4.5V384.2z"/>
		<path class="st10" d="M314,374c0-3.1,0.7-5.6,2.2-7.5c1.4-1.9,3.4-2.8,5.8-2.8c2.1,0,3.8,0.7,5.2,2.2v-10.3h4.5v28.5h-4.1
			l-0.2-2.1c-1.3,1.6-3.1,2.4-5.4,2.4c-2.4,0-4.3-0.9-5.7-2.8C314.8,379.8,314,377.2,314,374z M318.6,374.4c0,2,0.4,3.6,1.2,4.8
			c0.8,1.1,1.9,1.7,3.3,1.7c1.8,0,3.2-0.8,4-2.5v-8.6c-0.8-1.6-2.2-2.4-4-2.4c-1.5,0-2.6,0.6-3.4,1.7
			C319,370.3,318.6,372,318.6,374.4z"/>
		<path class="st10" d="M348.3,384.2c-0.2-0.4-0.4-1-0.5-1.9c-1.4,1.5-3.2,2.2-5.3,2.2c-2,0-3.7-0.6-4.9-1.7
			c-1.3-1.2-1.9-2.6-1.9-4.3c0-2.1,0.8-3.8,2.4-4.9c1.6-1.1,3.9-1.7,6.8-1.7h2.8v-1.3c0-1-0.3-1.9-0.9-2.5c-0.6-0.6-1.5-0.9-2.7-0.9
			c-1,0-1.9,0.3-2.5,0.8c-0.7,0.5-1,1.2-1,2h-4.5c0-1.1,0.4-2.1,1.1-3.1c0.7-1,1.7-1.7,3-2.3c1.3-0.5,2.7-0.8,4.2-0.8
			c2.3,0,4.2,0.6,5.6,1.8c1.4,1.2,2.1,2.8,2.2,5v9.1c0,1.8,0.3,3.2,0.8,4.3v0.3H348.3z M343.4,380.9c0.9,0,1.7-0.2,2.5-0.6
			c0.8-0.4,1.4-1,1.8-1.7v-3.8h-2.4c-1.7,0-2.9,0.3-3.8,0.9c-0.8,0.6-1.3,1.4-1.3,2.5c0,0.9,0.3,1.6,0.9,2.1
			C341.6,380.7,342.4,380.9,343.4,380.9z"/>
		<path class="st10" d="M356.1,374c0-3.1,0.7-5.6,2.2-7.5c1.4-1.9,3.4-2.8,5.8-2.8c2.1,0,3.8,0.7,5.2,2.2v-10.3h4.5v28.5h-4.1
			l-0.2-2.1c-1.3,1.6-3.1,2.4-5.4,2.4c-2.4,0-4.3-0.9-5.7-2.8S356.1,377.2,356.1,374z M360.6,374.4c0,2,0.4,3.6,1.2,4.8
			c0.8,1.1,1.9,1.7,3.3,1.7c1.8,0,3.2-0.8,4-2.5v-8.6c-0.8-1.6-2.2-2.4-4-2.4c-1.5,0-2.6,0.6-3.4,1.7
			C361,370.3,360.6,372,360.6,374.4z"/>
		<path class="st10" d="M387.2,384.5c-2.9,0-5.2-0.9-6.9-2.7c-1.8-1.8-2.7-4.2-2.7-7.2v-0.6c0-2,0.4-3.8,1.2-5.4
			c0.8-1.6,1.9-2.8,3.3-3.7c1.4-0.9,3-1.3,4.7-1.3c2.7,0,4.8,0.9,6.3,2.6s2.2,4.2,2.2,7.4v1.8h-13.1c0.1,1.7,0.7,3,1.7,3.9
			s2.2,1.4,3.7,1.4c2.1,0,3.7-0.8,5-2.5l2.4,2.3c-0.8,1.2-1.9,2.1-3.2,2.8C390.4,384.2,388.9,384.5,387.2,384.5z M386.7,367.3
			c-1.2,0-2.2,0.4-3,1.3c-0.8,0.9-1.2,2.1-1.5,3.6h8.6v-0.3c-0.1-1.5-0.5-2.7-1.2-3.4C388.9,367.7,387.9,367.3,386.7,367.3z"/>
		<path class="st10" d="M410,378.7c0-0.8-0.3-1.4-1-1.8c-0.7-0.4-1.8-0.8-3.3-1.1c-1.5-0.3-2.8-0.7-3.8-1.2
			c-2.3-1.1-3.4-2.7-3.4-4.7c0-1.7,0.7-3.2,2.2-4.3c1.5-1.2,3.3-1.7,5.6-1.7c2.4,0,4.3,0.6,5.8,1.8s2.2,2.7,2.2,4.6h-4.5
			c0-0.9-0.3-1.6-1-2.2c-0.6-0.6-1.5-0.9-2.6-0.9c-1,0-1.8,0.2-2.4,0.7c-0.6,0.5-0.9,1.1-0.9,1.8c0,0.7,0.3,1.2,0.9,1.6
			c0.6,0.4,1.8,0.8,3.5,1.2c1.8,0.4,3.2,0.9,4.2,1.4c1,0.5,1.8,1.2,2.2,1.9c0.5,0.8,0.7,1.7,0.7,2.7c0,1.8-0.7,3.3-2.2,4.4
			c-1.5,1.1-3.5,1.7-5.9,1.7c-1.6,0-3.1-0.3-4.4-0.9c-1.3-0.6-2.3-1.4-3-2.4c-0.7-1-1.1-2.2-1.1-3.4h4.4c0.1,1.1,0.5,1.9,1.2,2.5
			c0.7,0.6,1.7,0.9,3,0.9c1.2,0,2.1-0.2,2.7-0.7C409.7,380,410,379.4,410,378.7z"/>
	</g>
</g>
<g class="st18">
	<g>
		<path class="st10" d="M469.5,287.1c0,0.7-0.5,1.2-1.2,1.2h-65c-0.7,0-1.2-0.5-1.2-1.2l0,0c0-0.7,0.5-1.2,1.2-1.2h65
			C468.9,285.9,469.5,286.4,469.5,287.1L469.5,287.1z"/>
	</g>
</g>
<g class="st18">
	<g>
		<path class="st10" d="M469.5,292.4c0,0.7-0.5,1.2-1.2,1.2h-65c-0.7,0-1.2-0.5-1.2-1.2l0,0c0-0.7,0.5-1.2,1.2-1.2h65
			C468.9,291.2,469.5,291.7,469.5,292.4L469.5,292.4z"/>
	</g>
</g>
<g class="st18">
	<g>
		<path class="st10" d="M444.2,294c0,0.8-0.7,1.5-1.5,1.5h-79.2c-0.8,0-1.5-0.7-1.5-1.5l0,0c0-0.8,0.7-1.5,1.5-1.5h79.2
			C443.5,292.6,444.2,293.2,444.2,294L444.2,294z"/>
	</g>
</g>
<g class="st18">
	<g>
		<path class="st10" d="M444.2,300.5c0,0.8-0.7,1.5-1.5,1.5h-79.2c-0.8,0-1.5-0.7-1.5-1.5l0,0c0-0.8,0.7-1.5,1.5-1.5h79.2
			C443.5,299,444.2,299.7,444.2,300.5L444.2,300.5z"/>
	</g>
</g>
<g>
	<path class="st10" d="M380.5,105c25.9-53,106.2-69.5,147.2-16.2c22.1,28.8,23.3,71.9,2.8,101.9c-20.5,30-61.2,44.4-96.1,34.1
		c-34.8-10.3-61.2-44.5-62.1-80.8C371.8,129.6,374.9,116.5,380.5,105z"/>
	<path class="st19" d="M456.6,141c0.8-1.6,3.1-2,4.3-0.5c0.7,0.8,0.7,2.1,0.1,3c-0.6,0.9-1.8,1.3-2.8,1c-1-0.3-1.8-1.3-1.8-2.4
		C456.3,141.7,456.4,141.3,456.6,141z"/>
	<path class="st20" d="M454.9,69.7c1.3-2.7,5.3-3.5,7.4-0.8c1.1,1.4,1.2,3.6,0.1,5.1c-1,1.5-3.1,2.2-4.8,1.7
		c-1.8-0.5-3.1-2.2-3.1-4.1C454.5,71,454.7,70.3,454.9,69.7z"/>
	<path class="st20" d="M454.9,210.6c1.3-2.7,5.3-3.5,7.4-0.8c1.1,1.4,1.2,3.6,0.1,5.1c-1,1.5-3.1,2.2-4.8,1.7
		c-1.8-0.5-3.1-2.2-3.1-4.1C454.5,211.8,454.7,211.2,454.9,210.6z"/>
	<path class="st20" d="M531.2,138.1c2.7,1.3,3.5,5.3,0.8,7.4c-1.4,1.1-3.6,1.2-5.1,0.1c-1.5-1-2.2-3.1-1.7-4.8
		c0.5-1.8,2.2-3.1,4.1-3.1C529.9,137.7,530.6,137.8,531.2,138.1z"/>
	<path class="st20" d="M390.3,138.1c2.7,1.3,3.5,5.3,0.8,7.4c-1.4,1.1-3.6,1.2-5.1,0.1c-1.5-1-2.2-3.1-1.7-4.8
		c0.5-1.8,2.2-3.1,4.1-3.1C389.1,137.7,389.7,137.8,390.3,138.1z"/>
	<path class="st20" d="M512.8,190.4c1,2.8-1.3,6.2-4.7,5.8c-1.8-0.2-3.4-1.7-3.7-3.5c-0.3-1.8,0.6-3.8,2.2-4.6s3.8-0.6,5.1,0.7
		C512.2,189.2,512.6,189.8,512.8,190.4z"/>
	<path class="st20" d="M413.2,90.8c1,2.8-1.3,6.2-4.7,5.8c-1.8-0.2-3.4-1.7-3.7-3.5c-0.3-1.8,0.6-3.8,2.2-4.6
		c1.6-0.9,3.8-0.6,5.1,0.7C412.6,89.6,413,90.2,413.2,90.8z"/>
	<path class="st20" d="M404.9,190.4c-1,2.8,1.3,6.2,4.7,5.8c1.8-0.2,3.4-1.7,3.7-3.5c0.3-1.8-0.6-3.8-2.2-4.6s-3.8-0.6-5.1,0.7
		C405.5,189.2,405.1,189.8,404.9,190.4z"/>
	<path class="st20" d="M504.5,90.8c-1,2.8,1.3,6.2,4.7,5.8c1.8-0.2,3.4-1.7,3.7-3.5c0.3-1.8-0.6-3.8-2.2-4.6
		c-1.6-0.9-3.8-0.6-5.1,0.7C505.1,89.6,504.7,90.2,504.5,90.8z"/>
	<path class="st21" d="M457.8,245.8c-9.5,0-19-1.3-28.2-4c-42.2-12.5-73.7-53.4-74.9-97.4c-0.5-16.8,2.9-32.7,10-47.3l0,0
		c15.8-32.2,48.8-54.6,86.2-58.3c36.1-3.6,69.3,10.6,91.1,39c26.8,34.9,28.2,86.5,3.3,122.8C525.9,229.1,491.9,245.8,457.8,245.8z
		 M383,106.2c-5.6,11.5-8.3,24.2-7.9,37.7c0.9,34.8,26.9,68.5,60.3,78.4c33.4,9.9,73.5-4.4,93.2-33.1c19.7-28.7,18.5-71.2-2.7-98.8
		c-17.4-22.7-44-34-72.8-31.1C422.5,62.2,395.7,80.2,383,106.2L383,106.2z"/>
	<path class="st19" d="M457.2,143.6L432.6,118c-0.3-0.4-0.3-0.9,0-1.3c0.3-0.3,0.9-0.3,1.2,0l0,0l26.2,23.7l0.1,0.1
		c0.9,0.8,1,2.2,0.2,3c-0.8,0.9-2.2,1-3,0.2C457.3,143.7,457.2,143.6,457.2,143.6z"/>
	<path class="st19" d="M460.6,140.5l49.7,2.3c0.4,0,0.7,0.3,0.7,0.7c0,0.4-0.3,0.7-0.7,0.7l-49.8,0.6c-1.2,0-2.2-0.9-2.2-2.1
		c0-1.2,0.9-2.2,2.1-2.2C460.5,140.5,460.5,140.5,460.6,140.5L460.6,140.5z"/>
</g>
</svg>
