<?xml version="1.0" encoding="utf-8"?>
<!-- Generator: Adobe Illustrator 25.2.0, SVG Export Plug-In . SVG Version: 6.00 Build 0)  -->
<!DOCTYPE svg PUBLIC "-//W3C//DTD SVG 1.1//EN" "http://www.w3.org/Graphics/SVG/1.1/DTD/svg11.dtd" [
	<!ENTITY ns_extend "http://ns.adobe.com/Extensibility/1.0/">
	<!ENTITY ns_ai "http://ns.adobe.com/AdobeIllustrator/10.0/">
	<!ENTITY ns_graphs "http://ns.adobe.com/Graphs/1.0/">
	<!ENTITY ns_vars "http://ns.adobe.com/Variables/1.0/">
	<!ENTITY ns_imrep "http://ns.adobe.com/ImageReplacement/1.0/">
	<!ENTITY ns_sfw "http://ns.adobe.com/SaveForWeb/1.0/">
	<!ENTITY ns_custom "http://ns.adobe.com/GenericCustomNamespace/1.0/">
	<!ENTITY ns_adobe_xpath "http://ns.adobe.com/XPath/1.0/">
]>
<svg version="1.1" id="Capa_1" xmlns:x="&ns_extend;" xmlns:i="&ns_ai;" xmlns:graph="&ns_graphs;"
	 xmlns="http://www.w3.org/2000/svg" xmlns:xlink="http://www.w3.org/1999/xlink" x="0px" y="0px" viewBox="0 0 632.6 412.9"
	 style="enable-background:new 0 0 632.6 412.9;" xml:space="preserve">
<style type="text/css">
	.st0{fill:#3664A7;}
	.st1{fill:#F1F9FE;}
	.st2{fill:#B1C6E5;}
	.st3{fill:#80A2D4;}
	.st4{fill:#FFFFFF;}
	.st5{fill:none;stroke:#CEE2E8;stroke-width:4;stroke-miterlimit:10;}
	.st6{fill:#CEE2E8;}
	.st7{fill:#95D328;}
	.st8{fill:none;stroke:#CEE2E8;stroke-width:4;stroke-miterlimit:9.9999;}
	.st9{clip-path:url(#SVGID_2_);}
	.st10{fill:#893A1F;}
	.st11{fill:#F97919;}
	.st12{fill:#59230F;}
	.st13{fill:none;stroke:#774022;stroke-linejoin:round;stroke-miterlimit:10;}
	.st14{fill:#374689;}
	.st15{fill:none;stroke:#000100;stroke-width:0.75;stroke-miterlimit:10;}
	.st16{fill:#000100;}
	.st17{fill:#FFCFDC;}
	.st18{opacity:0.35;clip-path:url(#SVGID_4_);}
	.st19{fill:#FFA1BE;}
	.st20{fill:none;stroke:#AA3C4C;stroke-width:0.75;stroke-miterlimit:10;}
	.st21{fill:#682918;}
	.st22{fill:none;stroke:#000100;stroke-width:0.75;stroke-linecap:round;stroke-linejoin:round;stroke-miterlimit:10;}
	.st23{fill:none;stroke:#374689;stroke-linecap:round;stroke-linejoin:round;stroke-miterlimit:10;}
	.st24{fill:#2CBBED;}
	.st25{enable-background:new    ;}
	.st26{opacity:0.52;}
</style>
<metadata>
	<sfw  xmlns="&ns_sfw;">
		<slices></slices>
		<sliceSourceBounds  bottomLeftOrigin="true" height="758.1" width="630.4" x="0.5" y="-344.4"></sliceSourceBounds>
	</sfw>
</metadata>
<g>
	<g>
		<g>
			<g>
				<g>
					<path class="st0" d="M453.2,64l-11.9,7.6l-14-7.6H297.1c-6.2,0-11.1,5-11.1,11.1v175.2c0,6.2,5,11.1,11.1,11.1h130.2
						c0,0,13.1,19.1,25.9,0h130.2c6.2,0,11.1-5,11.1-11.1V75.1c0-6.2-5-11.1-11.1-11.1H453.2z"/>
				</g>
			</g>
		</g>
		<g>
			<g>
				<g>
					<path class="st1" d="M428.2,255.1h-93c-21.5,0-38.9-17.4-38.9-38.9V109.8c0-21.5,17.4-38.9,38.9-38.9h93V255.1z"/>
				</g>
			</g>
		</g>
		<g>
			<g>
				<g>
					<path class="st1" d="M545.3,255.1h-93V70.9h93c21.5,0,38.9,17.4,38.9,38.9v106.5C584.2,237.7,566.8,255.1,545.3,255.1z"/>
				</g>
			</g>
		</g>
		<g>
			<g>
				<g>
					<path class="st2" d="M428.2,70.9v184.2c0,0,12.3,17.8,24.1,0V70.9L441.2,78L428.2,70.9z"/>
				</g>
			</g>
		</g>
		<g>
			<g>
				<g>
					<rect x="313.8" y="166" class="st3" width="95.1" height="7.4"/>
				</g>
			</g>
		</g>
		<g>
			<g>
				<g>
					<rect x="313.8" y="184.6" class="st3" width="95.1" height="7.4"/>
				</g>
			</g>
		</g>
		<g>
			<g>
				<g>
					<rect x="313.8" y="203.1" class="st3" width="95.1" height="7.4"/>
				</g>
			</g>
		</g>
		<g>
			<g>
				<g>
					<rect x="313.8" y="221.7" class="st3" width="95.1" height="7.4"/>
				</g>
			</g>
		</g>
		<g>
			<rect x="312.2" y="91.8" class="st3" width="96.6" height="63.1"/>
		</g>
		<g>
			<g>
				<path class="st4" d="M360.4,144.9c-11.9,0-21.5-9.6-21.5-21.5s9.6-21.5,21.5-21.5s21.5,9.6,21.5,21.5S372.2,144.9,360.4,144.9z
					 M360.4,104.7c-10.3,0-18.6,8.4-18.6,18.6s8.4,18.6,18.6,18.6c10.3,0,18.6-8.4,18.6-18.6S370.7,104.7,360.4,104.7z"/>
			</g>
			<g>
				<polygon class="st4" points="353.2,132.5 353.2,114.2 371.6,123.4 				"/>
			</g>
		</g>
	</g>
	<g>
		<g>
			<path class="st5" d="M493.5,118c0,5.9-4.8,10.7-10.7,10.7c-5.9,0-10.7-4.8-10.7-10.7c0-5.9,4.8-10.7,10.7-10.7
				C488.8,107.4,493.5,112.1,493.5,118z"/>
			<g>
				<path class="st6" d="M560.8,111.5c0,0.7-0.5,1.2-1.2,1.2h-57.1c-0.7,0-1.2-0.5-1.2-1.2l0,0c0-0.7,0.5-1.2,1.2-1.2h57.1
					C560.3,110.3,560.8,110.9,560.8,111.5L560.8,111.5z"/>
				<path class="st6" d="M550.4,118c0,0.7-0.5,1.2-1.2,1.2h-46.6c-0.7,0-1.2-0.5-1.2-1.2l0,0c0-0.7,0.5-1.2,1.2-1.2h46.6
					C549.8,116.8,550.4,117.4,550.4,118L550.4,118z"/>
				<path class="st6" d="M565.1,124.5c0,0.7-0.5,1.2-1.2,1.2h-61.4c-0.7,0-1.2-0.5-1.2-1.2l0,0c0-0.7,0.5-1.2,1.2-1.2h61.4
					C564.6,123.3,565.1,123.9,565.1,124.5L565.1,124.5z"/>
			</g>
		</g>
		<path class="st7" d="M494.7,107.3c-4.1,2.3-7.9,5.5-10.9,9c-0.4,0.5-0.9,0.9-1.3,1.3c0,0,0-0.1-0.1-0.1c-0.9-1.5-1.4-3.2-2.6-4.5
			c-1-1.1-2.5-1.4-3.7-0.5c-1.6,1.2-3.2,1.6-3,4c0.1,0.9,0.9,1.7,1.8,1.8h0.1c0.5,0,0.9-0.1,1.2-0.2c1.5,3.4,3.7,7.4,7.7,5.6
			c2.4-1.1,10.5-11.5,12.2-14.9C496.4,108,495.5,106.9,494.7,107.3z"/>
	</g>
	<g>
		<g>
			<path class="st5" d="M493.5,150.8c0,5.9-4.8,10.7-10.7,10.7c-5.9,0-10.7-4.8-10.7-10.7s4.8-10.7,10.7-10.7
				C488.8,140.1,493.5,144.9,493.5,150.8z"/>
			<g>
				<path class="st6" d="M543.6,144.3c0,0.7-0.5,1.2-1.2,1.2h-39.9c-0.7,0-1.2-0.5-1.2-1.2l0,0c0-0.7,0.5-1.2,1.2-1.2h39.9
					C543.1,143.1,543.6,143.6,543.6,144.3L543.6,144.3z"/>
				<path class="st6" d="M560.6,150.8c0,0.7-0.5,1.2-1.2,1.2h-56.9c-0.7,0-1.2-0.5-1.2-1.2l0,0c0-0.7,0.5-1.2,1.2-1.2h56.9
					C560.1,149.6,560.6,150.1,560.6,150.8L560.6,150.8z"/>
				<path class="st6" d="M538.8,157.3c0,0.7-0.5,1.2-1.2,1.2h-35.1c-0.7,0-1.2-0.5-1.2-1.2l0,0c0-0.7,0.5-1.2,1.2-1.2h35.1
					C538.3,156.1,538.8,156.6,538.8,157.3L538.8,157.3z"/>
			</g>
		</g>
		<path class="st7" d="M494.7,140.1c-4.1,2.3-7.9,5.5-10.9,9c-0.4,0.5-0.9,0.9-1.3,1.3c0,0,0-0.1-0.1-0.1c-0.9-1.5-1.4-3.2-2.6-4.5
			c-1-1.1-2.5-1.4-3.7-0.5c-1.6,1.2-3.2,1.6-3,4c0.1,0.9,0.9,1.7,1.8,1.8h0.1c0.5,0,0.9-0.1,1.2-0.2c1.5,3.4,3.7,7.4,7.7,5.6
			c2.4-1.1,10.5-11.5,12.2-14.9C496.4,140.7,495.5,139.6,494.7,140.1z"/>
	</g>
	<g>
		<g>
			<path class="st5" d="M493.5,182.9c0,5.9-4.8,10.7-10.7,10.7c-5.9,0-10.7-4.8-10.7-10.7s4.8-10.7,10.7-10.7
				C488.8,172.2,493.5,177,493.5,182.9z"/>
			<g>
				<path class="st6" d="M530.4,176.4c0,0.7-0.5,1.2-1.2,1.2h-26.7c-0.7,0-1.2-0.5-1.2-1.2l0,0c0-0.7,0.5-1.2,1.2-1.2h26.7
					C529.9,175.2,530.4,175.7,530.4,176.4L530.4,176.4z"/>
				<path class="st6" d="M550.4,182.9c0,0.7-0.5,1.2-1.2,1.2h-46.6c-0.7,0-1.2-0.5-1.2-1.2l0,0c0-0.7,0.5-1.2,1.2-1.2h46.6
					C549.8,181.7,550.4,182.2,550.4,182.9L550.4,182.9z"/>
				<path class="st6" d="M542.4,189.4c0,0.7-0.5,1.2-1.2,1.2h-38.7c-0.7,0-1.2-0.5-1.2-1.2l0,0c0-0.7,0.5-1.2,1.2-1.2h38.7
					C541.8,188.2,542.4,188.7,542.4,189.4L542.4,189.4z"/>
			</g>
		</g>
		<path class="st7" d="M494.7,172.2c-4.1,2.3-7.9,5.5-10.9,9c-0.4,0.5-0.9,0.9-1.3,1.3c0,0,0-0.1-0.1-0.1c-0.9-1.5-1.4-3.2-2.6-4.5
			c-1-1.1-2.5-1.4-3.7-0.5c-1.6,1.2-3.2,1.6-3,4c0.1,0.9,0.9,1.7,1.8,1.8h0.1c0.5,0,0.9-0.1,1.2-0.3c1.5,3.4,3.7,7.4,7.7,5.6
			c2.4-1.1,10.5-11.5,12.2-14.9C496.4,172.8,495.5,171.7,494.7,172.2z"/>
	</g>
	<g>
		<g>
			
				<ellipse transform="matrix(0.7071 -0.7071 0.7071 0.7071 -9.0081 403.7874)" class="st8" cx="482.9" cy="212.8" rx="10.7" ry="10.7"/>
			<g>
				<path class="st6" d="M560.8,206.3c0,0.7-0.5,1.2-1.2,1.2h-57.1c-0.7,0-1.2-0.5-1.2-1.2l0,0c0-0.7,0.5-1.2,1.2-1.2h57.1
					C560.3,205.1,560.8,205.6,560.8,206.3L560.8,206.3z"/>
				<path class="st6" d="M550.4,212.8c0,0.7-0.5,1.2-1.2,1.2h-46.6c-0.7,0-1.2-0.5-1.2-1.2l0,0c0-0.7,0.5-1.2,1.2-1.2h46.6
					C549.8,211.6,550.4,212.1,550.4,212.8L550.4,212.8z"/>
				<path class="st6" d="M539.3,219.3c0,0.7-0.5,1.2-1.2,1.2h-35.6c-0.7,0-1.2-0.5-1.2-1.2l0,0c0-0.7,0.5-1.2,1.2-1.2h35.6
					C538.7,218,539.3,218.6,539.3,219.3L539.3,219.3z"/>
			</g>
		</g>
		<path class="st7" d="M494.7,202.1c-4.1,2.3-7.9,5.5-10.9,9c-0.4,0.5-0.9,0.9-1.3,1.3c0,0,0-0.1-0.1-0.1c-0.9-1.5-1.4-3.2-2.6-4.5
			c-1-1.1-2.5-1.4-3.7-0.5c-1.6,1.2-3.2,1.6-3,4c0.1,0.9,0.9,1.7,1.8,1.8h0.1c0.5,0,0.9-0.1,1.2-0.2c1.5,3.4,3.7,7.4,7.7,5.6
			c2.4-1.1,10.5-11.5,12.2-14.9C496.4,202.7,495.5,201.6,494.7,202.1z"/>
	</g>
</g>
<g>
	<g>
		<g>
			<g>
				<defs>
					<rect id="SVGID_1_" x="0.5" y="-0.8" width="630.4" height="395.3"/>
				</defs>
				<clipPath id="SVGID_2_">
					<use xlink:href="#SVGID_1_"  style="overflow:visible;"/>
				</clipPath>
				<g class="st9">
					<g>
						<g>
							<path class="st10" d="M241.5,432.2c0,0-0.4,58.5,1.8,132.6c2.4,81.3-2,161.9-2,161.9l-51,1.5c0,0-0.3-142.8,0.1-160.7
								c0.4-17.8-6.2-125.3-6.2-125.3L241.5,432.2z"/>
							<g>
								<path class="st11" d="M245.9,702l1.1,17.8l29.1,19.7c3.6,2.3,7.7,3.8,12,4.2l4.9,0.5c3.8,0.4,6.7,3.8,6.3,7.6l-0.5,5.4
									h-71.4c-3.5,0-6.8-1.7-9-4.5l-4.2-5.5c-1.4-1.8-3.4-2.9-5.7-3.1l-3.4-0.3l-1.3,13.5h-13.3l-1.4-54.5L245.9,702z"/>
								<path class="st12" d="M227.3,757.1c-3.5,0-6.8-1.7-9-4.5l-4.2-5.5c-1.4-1.8-3.4-2.9-5.7-3.2l-3.4-0.3l-1.3,13.5h-13.3
									l-0.5-18.2l20.1,1c2.3,0.1,4.4,1.2,5.8,2.9l5,6c2.1,2.5,5.3,4,8.6,4l69.5,0.3l-0.3,3.9L227.3,757.1L227.3,757.1z"/>
								<polyline class="st13" points="245.8,726.3 250.7,720.4 243.2,720.5 248.1,713.1 241.8,713 246.1,705.2 239.3,706 								
									"/>
							</g>
						</g>
						<g>
							<path class="st10" d="M137.3,432.2c0,0-0.4,58.5,1.8,132.6c2.4,81.3-2,161.9-2,161.9l-51,1.5c0,0-0.3-142.8,0.1-160.7
								c0.4-17.8-6.2-125.3-6.2-125.3L137.3,432.2z"/>
							<g>
								<path class="st11" d="M141.7,702l1.1,17.8l29.1,19.7c3.6,2.3,7.7,3.8,12,4.2l4.9,0.5c3.8,0.4,6.7,3.8,6.3,7.6l-0.5,5.4
									h-71.4c-3.5,0-6.8-1.7-9-4.5l-4.2-5.5c-1.4-1.8-3.4-2.9-5.7-3.1l-3.4-0.3l-1.3,13.5H86.3l-1.4-54.5L141.7,702z"/>
								<path class="st12" d="M123.1,757.1c-3.5,0-6.8-1.7-9-4.5l-4.2-5.5c-1.4-1.8-3.4-2.9-5.7-3.2l-3.4-0.3l-1.3,13.5H86.2
									l-0.5-18.2l20.1,1c2.3,0.1,4.4,1.2,5.8,2.9l5,6c2.1,2.5,5.3,4,8.6,4l69.5,0.3l-0.3,3.9L123.1,757.1L123.1,757.1z"/>
								<polyline class="st13" points="141.5,726.3 146.5,720.4 139,720.5 143.9,713.1 137.6,713 141.9,705.2 135.1,706 								"/>
							</g>
						</g>
						<path class="st14" d="M86.5,281c0,0-21.4,56.2-21.8,107.6s11.8,293,11.8,293l72,1L164,417.3l16.2,264.3h69.2
							c0,0,13.3-238-6-331.3c-8.2-39.7-30.1-77.4-30.1-77.4"/>
						<path class="st15" d="M164,417.3c0,0-0.1-90.7,0-128.9"/>
						<line class="st15" x1="75.7" y1="670.1" x2="149.3" y2="670.1"/>
						<line class="st15" x1="179.5" y1="670.1" x2="249.9" y2="670.1"/>
						<path class="st15" d="M103.3,281.3c0,0-22.4,55.8-23.8,107.1c-1.4,51.4,6.3,293.2,6.3,293.2"/>
						<g>
							<g>
								<path class="st16" d="M151.9,513.7c-2.6,11.5-5.2,23.1-7.7,34.7c-0.7,3.3-1.4,6.6-2.1,9.9c0,0.2,0.3,0.3,0.3,0.1
									c1.4-5.8,2.6-11.6,3.9-17.4c1.3-5.8,2.5-11.5,3.7-17.3c0.7-3.3,1.4-6.6,2.1-9.9C152.2,513.6,152,513.5,151.9,513.7
									L151.9,513.7z"/>
							</g>
						</g>
						<g>
							<g>
								<path class="st16" d="M150,547.9c-0.6,2.7-1.1,5.3-1.6,8c-0.5,2.6-1.2,5.2-1.4,7.8c0,0.2,0.2,0.2,0.3,0
									c0.7-2.6,1.1-5.3,1.6-7.9c0.5-2.6,1-5.3,1.4-7.9C150.2,547.8,150,547.8,150,547.9L150,547.9z"/>
							</g>
						</g>
						<g>
							<g>
								<path class="st16" d="M240.1,516.1c-0.9,12.5-2.3,24.9-4.2,37.3c-0.5,3.5-1.2,6.9-1.7,10.4c0,0.2,0.3,0.3,0.3,0.1
									c0.7-3.1,1.1-6.2,1.6-9.3s0.9-6.1,1.4-9.2c0.8-6.2,1.5-12.4,2.1-18.7c0.3-3.5,0.6-7.1,0.8-10.6
									C240.4,515.9,240.2,515.9,240.1,516.1L240.1,516.1z"/>
							</g>
						</g>
						<g>
							<g>
								<path class="st16" d="M242,543c0,3,0,5.9,0,8.9s0,5.9,0.1,8.9c0,0.1,0.2,0.1,0.2,0c0.2-2.9,0.1-5.9,0.1-8.9s0-5.9,0-8.9
									C242.4,542.8,242,542.8,242,543L242,543z"/>
							</g>
						</g>
						<path class="st15" d="M189.1,681.5c0,0-15.2-262.1-25.1-291"/>
					</g>
					<g>
						<g>
							<path class="st10" d="M262.2,173.2c6.3-20.6,9-47.4,11.8-49c1.3-0.7,2.5,0.3,3.1,2.1c1.5,4.1,1.3,11.6,3.9,11.5
								c1.5-0.1,5.9-17.6,9.1-25.2c1.1-2.7,3.9-1.3,3.9,0.5c0.1,7.1-3.9,23.2-3.9,23.2c1.1,0,4.9-18.6,8.7-25.4
								c0.8-1.5,3.7-1.3,3.8,0.6c0.1,7.5-3.7,27.2-3.7,27.2s3.7-19.1,7.7-25c0.7-1.1,3.4-0.5,3.4,0.8c0.2,5.8-4.3,28.2-4.3,28.2
								s3.9-16.1,6.3-20.9c0.7-1.3,3.6-0.1,3.7,1.3c1.2,11.2-11.2,58.1-11.2,58.1"/>
						</g>
						<g>
							<g>
								<path class="st16" d="M305,145.2c-5.7,2.7-10.5,7.5-13.5,13c-0.8,1.5-1.7,3.2-2.1,4.9c-0.1,0.2,0.3,0.4,0.4,0.2
									c0.8-1.8,1.6-3.6,2.6-5.4c1-1.8,2.2-3.4,3.5-5c2.6-3.1,5.8-5.6,9.3-7.5C305.3,145.3,305.1,145.1,305,145.2L305,145.2z"/>
							</g>
						</g>
						<g>
							<g>
								<path class="st16" d="M280.5,140.3c0.7,2.4,1.2,4.9,1.3,7.5c0,1.2-0.1,2.4-0.2,3.5c-0.2,1.2-0.6,2.3-1,3.5
									c-0.1,0.2,0.2,0.3,0.3,0.1c1.2-2,1.5-4.7,1.4-7c-0.1-2.6-0.7-5.2-1.4-7.7C280.8,140,280.4,140.1,280.5,140.3L280.5,140.3z"
									/>
							</g>
						</g>
						<path class="st17" d="M103.6,141.3c0,0,29-4.8,45.5-4.5c16.4,0.3,60.6,7.7,60.6,7.7l17,151.1c-23.1,23.1-129.6,15.1-140.9,0
							L103.6,141.3z"/>
						<g>
							<g>
								<g>
									<g>
										<defs>
											<path id="SVGID_3_" d="M103.6,141.3c0,0,29-4.8,45.5-4.5c16.4,0.3,60.6,7.7,60.6,7.7l17,151.1
												c-23.1,23.1-129.6,15.1-140.9,0L103.6,141.3z"/>
										</defs>
										<clipPath id="SVGID_4_">
											<use xlink:href="#SVGID_3_"  style="overflow:visible;"/>
										</clipPath>
										<g class="st18">
											<g>
												<g>
													<path class="st4" d="M84.8,298.1c12.8,2.6,25.7,4.4,38.7,5.4s26,1.1,39,0.4c9.4-0.5,18.9-1.4,28.2-2.7
														c9.2-1.2,18.4-2.7,27.4-5.2c4.4-1.2,8.7-2.6,12.8-4.4c3.7-1.6,7.2-3.5,10.3-6c0.7-0.6,1.3-1.2,1.9-2
														c0.4-0.6-0.1-1.5-0.8-1.1c-3.2,2-6.4,4.2-9.8,5.9c-3.9,1.9-7.9,3.4-12.1,4.7c-8.8,2.7-17.9,4.4-27,5.7
														c-8.7,1.3-17.6,2.2-26.4,2.9c-12.9,1-25.8,1.2-38.7,0.6s-25.9-2-38.6-4.1c-1.6-0.3-3.2-0.5-4.7-0.8
														C84.5,297.2,84.3,298,84.8,298.1L84.8,298.1z"/>
												</g>
											</g>
											<g>
												<g>
													<path class="st4" d="M84.2,288.1c12.8,2.6,25.7,4.4,38.7,5.4s26,1.1,39,0.4c9.4-0.5,18.9-1.4,28.2-2.7
														c9.2-1.2,18.4-2.7,27.4-5.2c4.4-1.2,8.7-2.6,12.8-4.4c3.7-1.6,7.2-3.5,10.3-6c0.7-0.6,1.3-1.2,1.9-2
														c0.4-0.6-0.1-1.5-0.8-1.1c-3.2,2-6.4,4.2-9.8,5.9c-3.9,1.9-7.9,3.4-12.1,4.7c-8.8,2.7-17.9,4.4-27,5.7
														c-8.7,1.3-17.6,2.2-26.4,2.9c-12.9,1-25.8,1.2-38.7,0.6s-25.9-2-38.6-4.1c-1.6-0.3-3.2-0.5-4.7-0.8
														C83.9,287.2,83.7,288,84.2,288.1L84.2,288.1z"/>
												</g>
											</g>
											<g>
												<g>
													<path class="st4" d="M83.6,278c12.8,2.6,25.7,4.4,38.7,5.4s26,1.1,39,0.4c9.4-0.5,18.9-1.4,28.2-2.7
														c9.2-1.2,18.4-2.7,27.4-5.2c4.4-1.2,8.7-2.6,12.8-4.4c3.7-1.6,7.2-3.5,10.3-6c0.7-0.6,1.3-1.2,1.9-2
														c0.4-0.6-0.1-1.5-0.8-1.1c-3.2,2-6.4,4.2-9.8,5.9c-3.9,1.9-7.9,3.4-12.1,4.7c-8.8,2.7-17.9,4.4-27,5.7
														c-8.7,1.3-17.6,2.2-26.4,2.9c-12.9,1-25.8,1.2-38.7,0.6s-25.9-2-38.6-4.1c-1.6-0.3-3.2-0.5-4.7-0.8
														C83.3,277.1,83.1,277.9,83.6,278L83.6,278z"/>
												</g>
											</g>
											<g>
												<g>
													<path class="st4" d="M83,267.9c12.8,2.6,25.7,4.4,38.7,5.4s26,1.1,39,0.4c9.4-0.5,18.9-1.4,28.2-2.7
														c9.2-1.2,18.4-2.7,27.4-5.2c4.4-1.2,8.7-2.6,12.8-4.4c3.7-1.6,7.2-3.5,10.3-6c0.7-0.6,1.3-1.2,1.9-2
														c0.4-0.6-0.1-1.5-0.8-1.1c-3.2,2-6.4,4.2-9.8,5.9c-3.9,1.9-7.9,3.4-12.1,4.7c-8.8,2.7-17.9,4.4-27,5.7
														c-8.7,1.3-17.6,2.2-26.4,2.9c-12.9,1-25.8,1.2-38.7,0.6s-25.9-2-38.6-4.1c-1.6-0.3-3.2-0.5-4.7-0.8
														C82.7,267.1,82.5,267.8,83,267.9L83,267.9z"/>
												</g>
											</g>
											<g>
												<g>
													<path class="st4" d="M82.4,257.9c12.8,2.6,25.7,4.4,38.7,5.4s26,1.1,39,0.4c9.4-0.5,18.9-1.4,28.2-2.7
														c9.2-1.2,18.4-2.7,27.4-5.2c4.4-1.2,8.7-2.6,12.8-4.4c3.7-1.6,7.2-3.5,10.3-6c0.7-0.6,1.3-1.2,1.9-2
														c0.4-0.6-0.1-1.5-0.8-1.1c-3.2,2-6.4,4.2-9.8,5.9c-3.9,1.9-7.9,3.4-12.1,4.7c-8.8,2.7-17.9,4.4-27,5.7
														c-8.7,1.3-17.6,2.2-26.4,2.9c-12.9,1-25.8,1.2-38.7,0.6s-25.9-2-38.6-4.1c-1.6-0.3-3.2-0.5-4.7-0.8
														C82.1,257,81.9,257.8,82.4,257.9L82.4,257.9z"/>
												</g>
											</g>
											<g>
												<g>
													<path class="st4" d="M81.8,247.8c12.8,2.6,25.7,4.4,38.7,5.4s26,1.1,39,0.4c9.4-0.5,18.9-1.4,28.2-2.7
														c9.2-1.2,18.4-2.7,27.4-5.2c4.4-1.2,8.7-2.6,12.8-4.4c3.7-1.6,7.2-3.5,10.3-6c0.7-0.6,1.3-1.2,1.9-2
														c0.4-0.6-0.1-1.5-0.8-1.1c-3.2,2-6.4,4.2-9.8,5.9c-3.9,1.9-7.9,3.4-12.1,4.7c-8.8,2.7-17.9,4.4-27,5.7
														c-8.7,1.3-17.6,2.2-26.4,2.9c-12.9,1-25.8,1.2-38.7,0.6c-12.9-0.6-25.9-2-38.6-4.1c-1.6-0.3-3.2-0.5-4.7-0.8
														C81.6,246.9,81.3,247.7,81.8,247.8L81.8,247.8z"/>
												</g>
											</g>
											<g>
												<g>
													<path class="st4" d="M81.3,237.8c12.8,2.6,25.7,4.4,38.7,5.4s26,1.1,39,0.4c9.4-0.5,18.9-1.4,28.2-2.7
														c9.2-1.2,18.4-2.7,27.4-5.2c4.4-1.2,8.7-2.6,12.8-4.4c3.7-1.6,7.2-3.5,10.3-6c0.7-0.6,1.3-1.2,1.9-2
														c0.4-0.6-0.1-1.5-0.8-1.1c-3.2,2-6.4,4.2-9.8,5.9c-3.9,1.9-7.9,3.4-12.1,4.7c-8.8,2.7-17.9,4.4-27,5.7
														c-8.7,1.3-17.6,2.2-26.4,2.9c-12.9,1-25.8,1.2-38.7,0.6c-12.9-0.6-25.9-2-38.6-4.1c-1.6-0.3-3.2-0.5-4.7-0.8
														C81,236.9,80.7,237.7,81.3,237.8L81.3,237.8z"/>
												</g>
											</g>
											<g>
												<g>
													<path class="st4" d="M80.7,227.7c12.8,2.6,25.7,4.4,38.7,5.4s26,1.1,39,0.4c9.4-0.5,18.9-1.4,28.2-2.7
														c9.2-1.2,18.4-2.7,27.4-5.2c4.4-1.2,8.7-2.6,12.8-4.4c3.7-1.6,7.2-3.5,10.3-6c0.7-0.6,1.3-1.2,1.9-2
														c0.4-0.6-0.1-1.5-0.8-1.1c-3.2,2-6.4,4.2-9.8,5.9c-3.9,1.9-7.9,3.4-12.1,4.7c-8.8,2.7-17.9,4.4-27,5.7
														c-8.7,1.3-17.6,2.2-26.4,2.9c-12.9,1-25.8,1.2-38.7,0.6c-12.9-0.6-25.9-2-38.6-4.1c-1.6-0.3-3.2-0.5-4.7-0.8
														C80.4,226.8,80.1,227.6,80.7,227.7L80.7,227.7z"/>
												</g>
											</g>
											<g>
												<g>
													<path class="st4" d="M80.1,217.6c12.8,2.6,25.7,4.4,38.7,5.4s26,1.1,39,0.4c9.4-0.5,18.9-1.4,28.2-2.7
														c9.2-1.2,18.4-2.7,27.4-5.2c4.4-1.2,8.7-2.6,12.8-4.4c3.7-1.6,7.2-3.5,10.3-6c0.7-0.6,1.3-1.2,1.9-2
														c0.4-0.6-0.1-1.5-0.8-1.1c-3.2,2-6.4,4.2-9.8,5.9c-3.9,1.9-7.9,3.4-12.1,4.7c-8.8,2.7-17.9,4.4-27,5.7
														c-8.7,1.3-17.6,2.2-26.4,2.9c-12.9,1-25.8,1.2-38.7,0.6c-12.9-0.6-25.9-2-38.6-4.1c-1.6-0.3-3.2-0.5-4.7-0.8
														C79.8,216.8,79.5,217.5,80.1,217.6L80.1,217.6z"/>
												</g>
											</g>
											<g>
												<g>
													<path class="st4" d="M79.5,207.6c12.8,2.6,25.7,4.4,38.7,5.4s26,1.1,39,0.4c9.4-0.5,18.9-1.4,28.2-2.7
														c9.2-1.2,18.4-2.7,27.4-5.2c4.4-1.2,8.7-2.6,12.8-4.4c3.7-1.6,7.2-3.5,10.3-6c0.7-0.6,1.3-1.2,1.9-2
														c0.4-0.6-0.1-1.5-0.8-1.1c-3.2,2-6.4,4.2-9.8,5.9c-3.9,1.9-7.9,3.4-12.1,4.7c-8.8,2.7-17.9,4.4-27,5.7
														c-8.7,1.3-17.6,2.2-26.4,2.9c-12.9,1-25.8,1.2-38.7,0.6c-12.9-0.6-25.9-2-38.6-4.1c-1.6-0.3-3.2-0.5-4.7-0.8
														C79.2,206.7,78.9,207.5,79.5,207.6L79.5,207.6z"/>
												</g>
											</g>
											<g>
												<g>
													<path class="st4" d="M78.9,197.5c12.8,2.6,25.7,4.4,38.7,5.4s26,1.1,39,0.4c9.4-0.5,18.9-1.4,28.2-2.7
														c9.2-1.2,18.4-2.7,27.4-5.2c4.4-1.2,8.7-2.6,12.8-4.4c3.7-1.6,7.2-3.5,10.3-6c0.7-0.6,1.3-1.2,1.9-2
														c0.4-0.6-0.1-1.5-0.8-1.1c-3.2,2-6.4,4.2-9.8,5.9c-3.9,1.9-7.9,3.4-12.1,4.7c-8.8,2.7-17.9,4.4-27,5.7
														c-8.7,1.3-17.6,2.2-26.4,2.9c-12.9,1-25.8,1.2-38.7,0.6c-12.9-0.6-25.9-2-38.6-4.1c-1.6-0.3-3.2-0.5-4.7-0.8
														C78.6,196.6,78.3,197.4,78.9,197.5L78.9,197.5z"/>
												</g>
											</g>
											<g>
												<g>
													<path class="st4" d="M78.3,187.5c12.8,2.6,25.7,4.4,38.7,5.4s26,1.1,39,0.4c9.4-0.5,18.9-1.4,28.2-2.7
														c9.2-1.2,18.4-2.7,27.4-5.2c4.4-1.2,8.7-2.6,12.8-4.4c3.7-1.6,7.2-3.5,10.3-6c0.7-0.6,1.3-1.2,1.9-2
														c0.4-0.6-0.1-1.5-0.8-1.1c-3.2,2-6.4,4.2-9.8,5.9c-3.9,1.9-7.9,3.4-12.1,4.7c-8.8,2.7-17.9,4.4-27,5.7
														c-8.7,1.3-17.6,2.2-26.4,2.9c-12.9,1-25.8,1.2-38.7,0.6c-12.9-0.6-25.9-2-38.6-4.1c-1.6-0.3-3.2-0.5-4.7-0.8
														C78,186.6,77.7,187.4,78.3,187.5L78.3,187.5z"/>
												</g>
											</g>
											<g>
												<g>
													<path class="st4" d="M77.7,177.4c12.8,2.6,25.7,4.4,38.7,5.4s26,1.1,39,0.4c9.4-0.5,18.9-1.4,28.2-2.7
														c9.2-1.2,18.4-2.7,27.4-5.2c4.4-1.2,8.7-2.6,12.8-4.4c3.7-1.6,7.2-3.5,10.3-6c0.7-0.6,1.3-1.2,1.9-2
														c0.4-0.6-0.1-1.5-0.8-1.1c-3.2,2-6.4,4.2-9.8,5.9c-3.9,1.9-7.9,3.4-12.1,4.7c-8.8,2.7-17.9,4.4-27,5.7
														c-8.7,1.3-17.6,2.2-26.4,2.9c-12.9,1-25.8,1.2-38.7,0.6c-12.9-0.6-25.9-2-38.6-4.1c-1.6-0.3-3.2-0.5-4.7-0.8
														C77.4,176.5,77.1,177.3,77.7,177.4L77.7,177.4z"/>
												</g>
											</g>
											<g>
												<g>
													<path class="st4" d="M77.1,167.3c12.8,2.6,25.7,4.4,38.7,5.4s26,1.1,39,0.4c9.4-0.5,18.9-1.4,28.2-2.7
														c9.2-1.2,18.4-2.7,27.4-5.2c4.4-1.2,8.7-2.6,12.8-4.4c3.7-1.6,7.2-3.5,10.3-6c0.7-0.6,1.3-1.2,1.9-2
														c0.4-0.6-0.1-1.5-0.8-1.1c-3.2,2-6.4,4.2-9.8,5.9c-3.9,1.9-7.9,3.4-12.1,4.7c-8.8,2.7-17.9,4.4-27,5.7
														c-8.7,1.3-17.6,2.2-26.4,2.9c-12.9,1-25.8,1.2-38.7,0.6c-12.9-0.6-25.9-2-38.6-4.1c-1.6-0.3-3.2-0.5-4.7-0.8
														C76.8,166.5,76.5,167.2,77.1,167.3L77.1,167.3z"/>
												</g>
											</g>
											<g>
												<g>
													<path class="st4" d="M76.5,157.3c12.8,2.6,25.7,4.4,38.7,5.4s26,1.1,39,0.4c9.4-0.5,18.9-1.4,28.2-2.7
														c9.2-1.2,18.4-2.7,27.4-5.2c4.4-1.2,8.7-2.6,12.8-4.4c3.7-1.6,7.2-3.5,10.3-6c0.7-0.6,1.3-1.2,1.9-2
														c0.4-0.6-0.1-1.5-0.8-1.1c-3.2,2-6.4,4.2-9.8,5.9c-3.9,1.9-7.9,3.4-12.1,4.7c-8.8,2.7-17.9,4.4-27,5.7
														c-8.7,1.3-17.6,2.2-26.4,2.9c-12.9,1-25.8,1.2-38.7,0.6c-12.9-0.6-25.9-2-38.6-4.1c-1.6-0.3-3.2-0.5-4.7-0.8
														C76.2,156.4,76,157.2,76.5,157.3L76.5,157.3z"/>
												</g>
											</g>
											<g>
												<g>
													<path class="st4" d="M75.9,147.2c12.8,2.6,25.7,4.4,38.7,5.4s26,1.1,39,0.4c9.4-0.5,18.9-1.4,28.2-2.7
														c9.2-1.2,18.4-2.7,27.4-5.2c4.4-1.2,8.7-2.6,12.8-4.4c3.7-1.6,7.2-3.5,10.3-6c0.7-0.6,1.3-1.2,1.9-2
														c0.4-0.6-0.1-1.5-0.8-1.1c-3.2,2-6.4,4.2-9.8,5.9c-3.9,1.9-7.9,3.4-12.1,4.7c-8.8,2.7-17.9,4.4-27,5.7
														c-8.7,1.3-17.6,2.2-26.4,2.9c-12.9,1-25.8,1.2-38.7,0.6c-12.9-0.6-25.9-2-38.6-4.1c-1.6-0.3-3.2-0.5-4.7-0.8
														C75.6,146.3,75.4,147.1,75.9,147.2L75.9,147.2z"/>
												</g>
											</g>
											<g>
												<g>
													<path class="st4" d="M75.3,137.2c12.8,2.6,25.7,4.4,38.7,5.4s26,1.1,39,0.4c9.4-0.5,18.9-1.4,28.2-2.7
														c9.2-1.2,18.4-2.7,27.4-5.2c4.4-1.2,8.7-2.6,12.8-4.4c3.7-1.6,7.2-3.5,10.3-6c0.7-0.6,1.3-1.2,1.9-2
														c0.4-0.6-0.1-1.5-0.8-1.1c-3.2,2-6.4,4.2-9.8,5.9c-3.9,1.9-7.9,3.4-12.1,4.7c-8.8,2.7-17.9,4.4-27,5.7
														c-8.7,1.3-17.6,2.2-26.4,2.9c-12.9,1-25.8,1.2-38.7,0.6c-12.9-0.6-25.9-2-38.6-4.1c-1.6-0.3-3.2-0.5-4.7-0.8
														C75,136.3,74.8,137.1,75.3,137.2L75.3,137.2z"/>
												</g>
											</g>
										</g>
									</g>
								</g>
							</g>
						</g>
						<path class="st19" d="M173.8,136.9c0,0,10.6-2.2,20.9-0.9c7.2,0.9,20.5,6.6,30.3,15.8c13.7,13,27.4,42.5,27.4,42.5l13.3-45.7
							l47.2,8.8c0,0-6.6,77.8-14.9,100.4c-2.7,7.4-13.6,23.4-27.7,25.3c-19.6,2.5-36.5-9.1-44.4-19.2c-8-10.1-37-40.3-37-40.3"/>
						<path class="st15" d="M252.4,194.2c0,0-13.1,44.2-14.1,51.9"/>
						<path class="st19" d="M216.6,181.9l25.2,122.2c0,0-34.4-17.9-46.3-36.4s-21.7-130.9-21.7-130.9"/>
						<line class="st15" x1="216.6" y1="181.9" x2="235.6" y2="274.2"/>
						<line class="st20" x1="272.2" y1="149.6" x2="270.4" y2="157.9"/>
						<line class="st20" x1="281.2" y1="151.4" x2="279.7" y2="159.7"/>
						<line class="st20" x1="290.3" y1="153.1" x2="289.1" y2="161.1"/>
						<line class="st20" x1="299.3" y1="154.8" x2="298.1" y2="162.7"/>
						<line class="st20" x1="308.1" y1="156.4" x2="306.8" y2="164.3"/>
						<path class="st20" d="M241.8,304.2c0,0-34.4-17.9-46.3-36.4s-21.7-130.9-21.7-130.9"/>
						<g>
							<g>
								<path class="st10" d="M133.6,242.8c20.9-5.1,43.9-19.9,46.9-18.4c1.3,0.6,1.2,2.2,0.1,3.8c-2.5,3.6-8.8,7.7-7.2,9.7
									c1,1.2,17.7-6.6,25.8-8.3c2.9-0.6,3.3,2.5,1.8,3.5c-5.7,4.1-21.2,11.5-21.2,11.5c0.6,0.9,18-8.1,25.7-8.8
									c1.7-0.2,3.2,2.3,1.7,3.4c-6.1,4.4-24.3,13.9-24.3,13.9s17.7-9.3,24.9-9.4c1.3,0,2.4,2.5,1.3,3.3
									c-4.6,3.5-25.5,14.1-25.5,14.1s15.3-7.4,20.7-8.2c1.4-0.2,2.2,2.9,1.1,3.8c-8.5,7.4-54,25.5-54,25.5"/>
							</g>
							<g>
								<path class="st19" d="M87,185.4L72,321.2c8.6-3,36.5-22.6,42.9-29.2c3.6-3.7,7.2-7.6,9.5-12.2c4.4-8.8,2.9-19.2,2.5-29.1
									c-1.5-38-7.8-107.4-7.8-107.4"/>
							</g>
							<path class="st20" d="M72,321.2c8.6-3,36.5-22.6,42.9-29.2c3.6-3.7,7.2-7.6,9.5-12.2c4.4-8.8,2.9-19.2,2.5-29.1
								c-1.5-38-7.8-107.4-7.8-107.4"/>
							<g>
								<path class="st19" d="M119.2,141c0,0-7.4,0-19.5,1.7c-22.5,3.2-40.4,16.9-48.6,46.7c-3.1,11.3-14.9,73.8-16.2,85.4
									c-2.3,21.5,10.8,49.3,43.9,46.6c20.4-1.7,88.1-42,88.1-42L152,234.6l-61.9,15.5"/>
							</g>
							<line class="st15" x1="79.3" y1="255.5" x2="152.1" y2="234.6"/>
							<line class="st15" x1="96" y1="207.1" x2="93.2" y2="251.3"/>
							<line class="st20" x1="154.3" y1="241.2" x2="145.8" y2="243.9"/>
							<line class="st20" x1="157" y1="248.7" x2="148.5" y2="251.3"/>
							<line class="st20" x1="159.6" y1="257" x2="151.1" y2="259.6"/>
							<line class="st20" x1="161.8" y1="263.8" x2="153.3" y2="266.4"/>
							<line class="st20" x1="164.4" y1="271.6" x2="156" y2="274.2"/>
						</g>
					</g>
					<g>
						<g>
							<path class="st11" d="M160.8,122.6c1.3,7.3,2.7,14.6,5.3,21.5c2.3,6,5.6,11.8,10.3,16.2c7.3,6.9,23.7,10.4,32.6,5
								c4-2.5,6.3-7.1,7.1-11.8c1.2-6.8-0.3-14.1-4.1-19.9c-3.8-5.8-10-10-16.7-11.5c-1-0.2-2.3-0.6-2.6-1.6c-0.1-0.5,0-1,0.1-1.5
								c0.8-2.9,1.2-5.9,0.5-8.9c-0.7-2.9-2.6-5.6-5.4-6.8c-1.2-0.5-2.6-0.7-3.4-1.6c-0.6-0.7-0.9-1.6-1.1-2.4
								c-2.8-9.6-8.4-18.4-15.9-25"/>
						</g>
						<g>
							<path class="st21" d="M170.4,94.4c0.6-1.3,2.3-2,3.8-1.7s2.7,1.4,3.4,2.7c0.7,1.3,1.1,2.8,1.3,4.3c0.4,2.8,0.3,5.9-1.4,8.1
								c-1.3,1.6-3.4,2.4-5.4,2.2c-2-0.2-3.9-1.5-4.8-3.3"/>
						</g>
						<g>
							<path class="st11" d="M128.5,59.2c-3.3-0.3-6.7-1-9.5-2.9s-4.8-5.1-4.6-8.4c0.2-3,2.3-5.6,4.8-7.2c2.6-1.6,5.6-2.2,8.5-2.5
								c4-0.4,8.5-0.2,11.2,2.7c3.1,3.3,2.7,8.5,1.4,12.8c-0.8,2.7-2,5.5-4.2,7.3"/>
						</g>
						<path class="st10" d="M152.2,134.6L152.2,134.6c14.2-1.6,24.4-14.5,22.8-28.7l-3-25.7L155.1,72l-34.5,14.1l2.9,25.7
							C125.1,126.1,138,136.3,152.2,134.6z"/>
						<path class="st10" d="M147.8,153.4L147.8,153.4c9.9,0,17.9-8,17.9-17.9v-12.1H130v12.1C130,145.4,138,153.4,147.8,153.4z"/>
						<g>
							<path class="st11" d="M101.8,88.7C101,96,98,103,93.2,108.6c-2.6,3-5.6,5.5-8.3,8.4c-2.7,2.9-5,6.2-5.8,10.1
								c-0.8,3.8,0.3,8.3,3.5,10.6c2.5,1.9,5.9,2.2,8.7,3.5c-1.9,1.7-2.3,4.4-2.3,6.9c-0.1,7.8,2.9,15.5,8.3,21.2
								c11.9,12.7,42.1,17.3,43.3-6.7c0.4-7.1-0.6-14.4-2.4-21.3c-2.6-9.7-10.8-17.2-13.7-26.8c-1.1-3.5-1.4-7.2-1.6-10.8
								c-0.1-1.8-0.3-3.4,0.2-5.1c0.5-1.8,1.1-3.6,1.6-5.5"/>
						</g>
						<g>
							<path class="st11" d="M117.9,98.3c4.7,0.2,9.1,0.1,13.5-1.4c4.3-1.4,8.3-3.6,12-6.2c5.3-3.7,9.8-8.4,13.9-13.4
								c6.5,3.4,12.2,8.2,16.5,14c0.8-0.2,1.4-0.9,1.9-1.7c7-11.1-1.1-26.7-11.4-32.7c-8-4.6-17.8-5.7-26.8-4.7
								c-0.5,0.1-1.1,0.1-1.6,0.2c-12.9,1.9-23.8,8.1-30.3,19.4c-4.2,7.4-5.5,18.9-6.7,27.3"/>
						</g>
						<g>
							<path class="st10" d="M126.1,103.6c-2.4-3.3-7.7-3.7-10.9-1.2s-4.2,7.3-2.7,11c0.7,1.6,1.7,3.1,2.9,4.4
								c0.9,1.1,1.9,2.2,3.1,3c1.9,1.3,4.3,1.8,6.4,1.2c2.2-0.6,4.1-2.3,4.6-4.5"/>
						</g>
						<path class="st15" d="M137.7,130.3c7.3,4.5,20.3,4.5,28.1-0.8"/>
						<g>
							<g>
								<path class="st16" d="M116.1,107.6c0.5-0.9,1.4-1.6,2.5-1.7c1-0.1,2,0.3,2.8,0.9c0.9,0.6,1.5,1.6,1.9,2.6
									c0.2,0.5,0.4,1,0.5,1.5s0.2,1.1,0.5,1.5c0.1,0.2,0.4,0.1,0.4-0.1c0-0.6-0.2-1.3-0.4-1.8c-0.2-0.6-0.4-1.2-0.7-1.8
									c-0.5-1-1.2-1.9-2.2-2.5c-0.9-0.5-2-0.8-3-0.6C117.3,105.8,116.5,106.6,116.1,107.6C115.9,107.6,116.1,107.7,116.1,107.6
									L116.1,107.6z"/>
							</g>
						</g>
						<path class="st16" d="M141.1,101.2c0.1,1.4-1,2.6-2.5,2.7c-1.4,0.1-2.6-1-2.7-2.5c-0.1-1.4,1-2.6,2.5-2.7
							C139.8,98.7,141,99.8,141.1,101.2z"/>
						<path class="st16" d="M167.2,96.6c0.1,1.4-1,2.6-2.5,2.7c-1.4,0.1-2.6-1-2.7-2.5c-0.1-1.4,1-2.6,2.5-2.7
							C166,94.1,167.2,95.2,167.2,96.6z"/>
						<g>
							<g>
								<path class="st16" d="M156.1,102.3c0.6,1.1,1.1,2.3,1.6,3.5c0.4,0.9,0.8,1.9,1.1,2.9c0.2,0.6,0.5,1.5,0.2,2.1
									c-0.2,0.6-1.1,0.6-1.6,0.7c-0.8,0.1-1.7,0-2.5,0.1c-0.3,0-0.3,0.5,0,0.5c0.8,0.1,1.7,0,2.5,0c0.6-0.1,1.2-0.1,1.7-0.5
									c0.7-0.5,0.6-1.3,0.5-2.1c-0.2-1-0.6-2-1-3s-0.9-1.9-1.5-2.8c-0.3-0.5-0.6-1-0.9-1.5C156.2,102.1,156.1,102.2,156.1,102.3
									L156.1,102.3z"/>
							</g>
						</g>
						<path class="st22" d="M132,97.4c2.1-3.6,7.2-4.7,10.1-2.3"/>
						<path class="st22" d="M160.8,92.2c1.9-2.5,5.7-2.7,7.5-0.6"/>
						<g>
							<path class="st4" d="M149.8,117.1c0,3.1,1.8,6,4.2,7.2s7.5,1.4,8.2-6.4L149.8,117.1z"/>
						</g>
						<path class="st23" d="M119.8,57.6c6.8-3.8,14.6-5.8,22.4-5.7"/>
					</g>
				</g>
			</g>
		</g>
	</g>
</g>
<path class="st24" d="M630.6,412.5H0.6v-61c0-11.9,9.7-21.6,21.6-21.6H609c11.9,0,21.6,9.7,21.6,21.6V412.5z"/>
<g>
	<text transform="matrix(1 0 0 1 154.6021 610.506)" class="st4" style="font-family:'Roboto-Medium'; font-size:38px;">Avisos importantes</text>
</g>
<g>
	<text transform="matrix(1 0 0 1 170.0071 492.8767)" style="font-family:'Roboto-Medium'; font-size:38px;">Actividad final</text>
</g>
<g>
	<g class="st25">
		<path d="M212.4,380.6h-10.5l-2.2,6.3h-4.9l10.2-27h4.2l10.2,27h-4.9L212.4,380.6z M203.3,376.8h7.8l-3.9-11.2L203.3,376.8z"/>
		<path d="M230.4,383.6c1.1,0,2.1-0.3,2.8-1c0.7-0.7,1.1-1.5,1.2-2.4h4.2c0,1.3-0.4,2.4-1.2,3.5c-0.7,1.1-1.7,1.9-3,2.6
			c-1.2,0.6-2.6,0.9-4,0.9c-2.8,0-5-0.9-6.7-2.7c-1.6-1.8-2.5-4.3-2.5-7.5v-0.5c0-3.1,0.8-5.5,2.4-7.3c1.6-1.8,3.9-2.8,6.7-2.8
			c2.4,0,4.3,0.7,5.8,2.1c1.5,1.4,2.3,3.2,2.4,5.5h-4.2c0-1.2-0.4-2.1-1.2-2.8c-0.7-0.7-1.7-1.1-2.8-1.1c-1.5,0-2.6,0.5-3.4,1.6
			c-0.8,1.1-1.2,2.7-1.2,4.8v0.7c0,2.2,0.4,3.8,1.2,4.9C227.8,383.1,228.9,383.6,230.4,383.6z"/>
		<path d="M247.7,361.9v4.9h3.5v3.3h-3.5v11.2c0,0.8,0.2,1.3,0.5,1.7c0.3,0.3,0.8,0.5,1.6,0.5c0.5,0,1-0.1,1.6-0.2v3.5
			c-1,0.3-2,0.4-3,0.4c-3.5,0-5.2-1.9-5.2-5.7v-11.4h-3.3v-3.3h3.3v-4.9H247.7z"/>
		<path d="M254.7,361.6c0-0.7,0.2-1.3,0.7-1.7c0.4-0.5,1.1-0.7,1.9-0.7s1.4,0.2,1.9,0.7c0.4,0.5,0.7,1,0.7,1.7
			c0,0.7-0.2,1.2-0.7,1.7c-0.4,0.5-1.1,0.7-1.9,0.7s-1.4-0.2-1.9-0.7C254.9,362.8,254.7,362.3,254.7,361.6z M259.5,386.9H255v-20.1
			h4.5V386.9z"/>
		<path d="M271.5,381.2l4.2-14.4h4.7l-7,20.1h-3.9l-7-20.1h4.7L271.5,381.2z"/>
		<path d="M283.2,361.6c0-0.7,0.2-1.3,0.7-1.7c0.4-0.5,1.1-0.7,1.9-0.7s1.4,0.2,1.9,0.7c0.4,0.5,0.7,1,0.7,1.7
			c0,0.7-0.2,1.2-0.7,1.7c-0.4,0.5-1.1,0.7-1.9,0.7s-1.4-0.2-1.9-0.7C283.4,362.8,283.2,362.3,283.2,361.6z M288,386.9h-4.5v-20.1
			h4.5V386.9z"/>
		<path d="M292,376.7c0-3.1,0.7-5.6,2.2-7.5c1.4-1.9,3.4-2.8,5.8-2.8c2.1,0,3.8,0.7,5.2,2.2v-10.3h4.5v28.5h-4.1l-0.2-2.1
			c-1.3,1.6-3.1,2.4-5.4,2.4c-2.4,0-4.3-0.9-5.7-2.8C292.8,382.5,292,379.9,292,376.7z M296.5,377.1c0,2,0.4,3.6,1.2,4.8
			c0.8,1.1,1.9,1.7,3.3,1.7c1.8,0,3.2-0.8,4-2.5v-8.6c-0.8-1.6-2.2-2.4-4-2.4c-1.5,0-2.6,0.6-3.4,1.7
			C296.9,373,296.5,374.8,296.5,377.1z"/>
		<path d="M326.3,386.9c-0.2-0.4-0.4-1-0.5-1.9c-1.4,1.5-3.2,2.2-5.3,2.2c-2,0-3.7-0.6-4.9-1.7c-1.3-1.2-1.9-2.6-1.9-4.3
			c0-2.1,0.8-3.8,2.4-4.9c1.6-1.1,3.9-1.7,6.8-1.7h2.8v-1.3c0-1-0.3-1.9-0.9-2.5c-0.6-0.6-1.5-0.9-2.7-0.9c-1,0-1.9,0.3-2.5,0.8
			c-0.7,0.5-1,1.2-1,2h-4.5c0-1.1,0.4-2.1,1.1-3.1c0.7-1,1.7-1.7,3-2.3c1.3-0.5,2.7-0.8,4.2-0.8c2.4,0,4.2,0.6,5.6,1.8
			c1.4,1.2,2.1,2.8,2.2,5v9.1c0,1.8,0.3,3.2,0.8,4.3v0.3H326.3z M321.4,383.6c0.9,0,1.7-0.2,2.5-0.6c0.8-0.4,1.4-1,1.8-1.7v-3.8
			h-2.4c-1.7,0-2.9,0.3-3.8,0.9c-0.8,0.6-1.3,1.4-1.3,2.5c0,0.9,0.3,1.6,0.9,2.1C319.6,383.4,320.4,383.6,321.4,383.6z"/>
		<path d="M334,376.7c0-3.1,0.7-5.6,2.2-7.5c1.4-1.9,3.4-2.8,5.8-2.8c2.1,0,3.8,0.7,5.2,2.2v-10.3h4.5v28.5h-4.1l-0.2-2.1
			c-1.3,1.6-3.1,2.4-5.4,2.4c-2.4,0-4.3-0.9-5.7-2.8C334.8,382.5,334,379.9,334,376.7z M338.5,377.1c0,2,0.4,3.6,1.2,4.8
			c0.8,1.1,1.9,1.7,3.3,1.7c1.8,0,3.2-0.8,4-2.5v-8.6c-0.8-1.6-2.2-2.4-4-2.4c-1.5,0-2.6,0.6-3.4,1.7
			C338.9,373,338.5,374.8,338.5,377.1z"/>
		<path d="M367.4,386.9v-16.7h-3.1v-3.3h3.1V365c0-2.2,0.6-3.9,1.9-5.2c1.2-1.2,3-1.8,5.2-1.8c0.8,0,1.6,0.1,2.5,0.3l-0.1,3.5
			c-0.5-0.1-1.1-0.1-1.7-0.1c-2.2,0-3.2,1.1-3.2,3.3v1.8h4.1v3.3h-4.1v16.7H367.4z"/>
		<path d="M379.3,361.6c0-0.7,0.2-1.3,0.7-1.7c0.4-0.5,1.1-0.7,1.9-0.7s1.4,0.2,1.9,0.7c0.4,0.5,0.7,1,0.7,1.7
			c0,0.7-0.2,1.2-0.7,1.7c-0.4,0.5-1.1,0.7-1.9,0.7s-1.4-0.2-1.9-0.7C379.5,362.8,379.3,362.3,379.3,361.6z M384.1,386.9h-4.5v-20.1
			h4.5V386.9z"/>
		<path d="M393.2,366.8l0.1,2.3c1.5-1.8,3.4-2.7,5.8-2.7c4.2,0,6.3,2.4,6.4,7.2v13.3H401v-13c0-1.3-0.3-2.2-0.8-2.8
			c-0.6-0.6-1.5-0.9-2.7-0.9c-1.8,0-3.2,0.8-4.1,2.5v14.3h-4.5v-20.1H393.2z"/>
		<path d="M422.1,386.9c-0.2-0.4-0.4-1-0.5-1.9c-1.4,1.5-3.2,2.2-5.3,2.2c-2,0-3.7-0.6-4.9-1.7s-1.9-2.6-1.9-4.3
			c0-2.1,0.8-3.8,2.4-4.9c1.6-1.1,3.9-1.7,6.8-1.7h2.8v-1.3c0-1-0.3-1.9-0.9-2.5c-0.6-0.6-1.5-0.9-2.7-0.9c-1,0-1.9,0.3-2.5,0.8
			c-0.7,0.5-1,1.2-1,2h-4.5c0-1.1,0.4-2.1,1.1-3.1c0.7-1,1.7-1.7,3-2.3c1.3-0.5,2.7-0.8,4.2-0.8c2.4,0,4.2,0.6,5.6,1.8
			c1.4,1.2,2.1,2.8,2.2,5v9.1c0,1.8,0.3,3.2,0.8,4.3v0.3H422.1z M417.1,383.6c0.9,0,1.7-0.2,2.5-0.6c0.8-0.4,1.4-1,1.8-1.7v-3.8H419
			c-1.7,0-2.9,0.3-3.8,0.9c-0.8,0.6-1.3,1.4-1.3,2.5c0,0.9,0.3,1.6,0.9,2.1C415.4,383.4,416.2,383.6,417.1,383.6z"/>
		<path d="M435.5,386.9h-4.5v-28.5h4.5V386.9z"/>
	</g>
</g>
<g class="st26">
	<g>
		<path class="st4" d="M469.5,287.1c0,0.7-0.5,1.2-1.2,1.2h-65c-0.7,0-1.2-0.5-1.2-1.2l0,0c0-0.7,0.5-1.2,1.2-1.2h65
			C468.9,285.9,469.5,286.4,469.5,287.1L469.5,287.1z"/>
	</g>
</g>
<g class="st26">
	<g>
		<path class="st4" d="M469.5,292.4c0,0.7-0.5,1.2-1.2,1.2h-65c-0.7,0-1.2-0.5-1.2-1.2l0,0c0-0.7,0.5-1.2,1.2-1.2h65
			C468.9,291.2,469.5,291.7,469.5,292.4L469.5,292.4z"/>
	</g>
</g>
<g class="st26">
	<g>
		<path class="st4" d="M444.2,294c0,0.8-0.7,1.5-1.5,1.5h-79.2c-0.8,0-1.5-0.7-1.5-1.5l0,0c0-0.8,0.7-1.5,1.5-1.5h79.2
			C443.5,292.6,444.2,293.2,444.2,294L444.2,294z"/>
	</g>
</g>
<g class="st26">
	<g>
		<path class="st4" d="M444.2,300.5c0,0.8-0.7,1.5-1.5,1.5h-79.2c-0.8,0-1.5-0.7-1.5-1.5l0,0c0-0.8,0.7-1.5,1.5-1.5h79.2
			C443.5,299,444.2,299.7,444.2,300.5L444.2,300.5z"/>
	</g>
</g>
</svg>
