<?xml version="1.0" encoding="iso-8859-1"?>
<!-- Generator: Adobe Illustrator 25.2.0, SVG Export Plug-In . SVG Version: 6.00 Build 0)  -->
<!DOCTYPE svg PUBLIC "-//W3C//DTD SVG 1.1//EN" "http://www.w3.org/Graphics/SVG/1.1/DTD/svg11.dtd" [
	<!ENTITY ns_extend "http://ns.adobe.com/Extensibility/1.0/">
	<!ENTITY ns_ai "http://ns.adobe.com/AdobeIllustrator/10.0/">
	<!ENTITY ns_graphs "http://ns.adobe.com/Graphs/1.0/">
	<!ENTITY ns_vars "http://ns.adobe.com/Variables/1.0/">
	<!ENTITY ns_imrep "http://ns.adobe.com/ImageReplacement/1.0/">
	<!ENTITY ns_sfw "http://ns.adobe.com/SaveForWeb/1.0/">
	<!ENTITY ns_custom "http://ns.adobe.com/GenericCustomNamespace/1.0/">
	<!ENTITY ns_adobe_xpath "http://ns.adobe.com/XPath/1.0/">
]>
<svg version="1.1" id="Capa_1" xmlns:x="&ns_extend;" xmlns:i="&ns_ai;" xmlns:graph="&ns_graphs;"
	 xmlns="http://www.w3.org/2000/svg" xmlns:xlink="http://www.w3.org/1999/xlink" x="0px" y="0px" viewBox="0 0 500 387"
	 style="enable-background:new 0 0 500 387;" xml:space="preserve">
<style type="text/css">
	.st0{fill:#2CBBED;}
	.st1{clip-path:url(#SVGID_2_);fill:#59B5B0;}
	.st2{clip-path:url(#SVGID_2_);}
	.st3{clip-path:url(#SVGID_5_);}
	.st4{clip-path:url(#SVGID_6_);fill:#FFFFFF;}
	.st5{opacity:0.5;fill:#FFFFFF;}
	.st6{fill:#FFFFFF;}
	.st7{fill:none;stroke:#5C5A61;stroke-width:8.7142;stroke-miterlimit:10;}
	.st8{clip-path:url(#SVGID_2_);fill:#FFFFFF;}
	.st9{fill:#5C5A61;}
</style>
<metadata>
	<sfw  xmlns="&ns_sfw;">
		<slices></slices>
		<sliceSourceBounds  bottomLeftOrigin="true" height="907.4" width="1094.1" x="43.9" y="-716.4"></sliceSourceBounds>
	</sfw>
</metadata>
<circle class="st0" cx="-303" cy="-192" r="86"/>
<rect x="-90" y="-194" class="st0" width="186" height="51"/>
<g>
	<path d="M-544,424c-2.3-0.7-3.9-1.5-5-2.4s-1.6-2.1-1.6-3.5c0-1.6,0.6-2.9,1.9-3.9c1.3-1,2.9-1.6,4.9-1.6c1.4,0,2.6,0.3,3.7,0.8
		c1.1,0.5,1.9,1.3,2.5,2.2c0.6,0.9,0.9,2,0.9,3.1h-2.7c0-1.2-0.4-2.2-1.2-2.9c-0.8-0.7-1.9-1-3.3-1c-1.3,0-2.3,0.3-3.1,0.9
		c-0.7,0.6-1.1,1.4-1.1,2.4c0,0.8,0.3,1.5,1,2.1c0.7,0.6,1.9,1.1,3.6,1.6s3,1,3.9,1.6c0.9,0.6,1.6,1.2,2.1,2s0.7,1.6,0.7,2.7
		c0,1.6-0.6,2.9-1.9,3.9c-1.3,1-3,1.5-5.1,1.5c-1.4,0-2.7-0.3-3.9-0.8c-1.2-0.5-2.1-1.3-2.8-2.2c-0.6-0.9-1-2-1-3.1h2.7
		c0,1.2,0.4,2.2,1.3,2.9c0.9,0.7,2.1,1.1,3.6,1.1c1.4,0,2.5-0.3,3.2-0.9c0.7-0.6,1.1-1.3,1.1-2.3s-0.3-1.7-1-2.3
		S-542.2,424.5-544,424z"/>
	<path d="M-534.2,425.3c0-1.5,0.3-2.8,0.9-4c0.6-1.2,1.4-2.1,2.4-2.7s2.2-1,3.5-1c2,0,3.7,0.7,4.9,2.1s1.9,3.3,1.9,5.6v0.2
		c0,1.5-0.3,2.8-0.8,3.9s-1.4,2.1-2.4,2.7c-1,0.6-2.2,1-3.6,1c-2,0-3.7-0.7-4.9-2.1c-1.3-1.4-1.9-3.3-1.9-5.6V425.3z M-531.6,425.6
		c0,1.7,0.4,3,1.2,4s1.8,1.5,3.1,1.5c1.3,0,2.3-0.5,3.1-1.5c0.8-1,1.1-2.4,1.1-4.3c0-1.6-0.4-3-1.2-4c-0.8-1-1.8-1.5-3.1-1.5
		c-1.3,0-2.3,0.5-3.1,1.5S-531.6,423.7-531.6,425.6z"/>
	<path d="M-512.7,429.2l3.5-11.2h2.7l-6,17.3c-0.9,2.5-2.4,3.7-4.4,3.7l-0.5,0l-1-0.2v-2.1l0.7,0.1c0.9,0,1.5-0.2,2-0.5
		c0.5-0.4,0.9-1,1.2-1.9l0.6-1.5l-5.3-14.8h2.8L-512.7,429.2z"/>
	<path d="M-493.7,414.3v3.6h2.8v2h-2.8v9.3c0,0.6,0.1,1,0.4,1.3c0.2,0.3,0.7,0.4,1.3,0.4c0.3,0,0.7-0.1,1.2-0.2v2.1
		c-0.7,0.2-1.3,0.3-2,0.3c-1.1,0-2-0.3-2.6-1s-0.9-1.7-0.9-2.9v-9.3h-2.7v-2h2.7v-3.6H-493.7z"/>
	<path d="M-478.7,431.4c-1,1.2-2.5,1.8-4.4,1.8c-1.6,0-2.8-0.5-3.6-1.4c-0.8-0.9-1.3-2.3-1.3-4.1V418h2.6v9.7c0,2.3,0.9,3.4,2.8,3.4
		c2,0,3.3-0.7,3.9-2.2V418h2.6v15h-2.4L-478.7,431.4z"/>
	<path d="M-461.9,414.3v3.6h2.8v2h-2.8v9.3c0,0.6,0.1,1,0.4,1.3c0.2,0.3,0.7,0.4,1.3,0.4c0.3,0,0.7-0.1,1.2-0.2v2.1
		c-0.7,0.2-1.3,0.3-2,0.3c-1.1,0-2-0.3-2.6-1s-0.9-1.7-0.9-2.9v-9.3h-2.7v-2h2.7v-3.6H-461.9z"/>
	<path d="M-446.9,431.4c-1,1.2-2.5,1.8-4.4,1.8c-1.6,0-2.8-0.5-3.6-1.4c-0.8-0.9-1.3-2.3-1.3-4.1V418h2.6v9.7c0,2.3,0.9,3.4,2.8,3.4
		c2,0,3.3-0.7,3.9-2.2V418h2.6v15h-2.4L-446.9,431.4z"/>
	<path d="M-437,414.3v3.6h2.8v2h-2.8v9.3c0,0.6,0.1,1,0.4,1.3c0.2,0.3,0.7,0.4,1.3,0.4c0.3,0,0.7-0.1,1.2-0.2v2.1
		c-0.7,0.2-1.3,0.3-2,0.3c-1.1,0-2-0.3-2.6-1s-0.9-1.7-0.9-2.9v-9.3h-2.7v-2h2.7v-3.6H-437z"/>
	<path d="M-432.2,425.3c0-1.5,0.3-2.8,0.9-4c0.6-1.2,1.4-2.1,2.4-2.7s2.2-1,3.5-1c2,0,3.7,0.7,4.9,2.1s1.9,3.3,1.9,5.6v0.2
		c0,1.5-0.3,2.8-0.8,3.9s-1.4,2.1-2.4,2.7c-1,0.6-2.2,1-3.6,1c-2,0-3.7-0.7-4.9-2.1c-1.3-1.4-1.9-3.3-1.9-5.6V425.3z M-429.6,425.6
		c0,1.7,0.4,3,1.2,4s1.8,1.5,3.1,1.5c1.3,0,2.3-0.5,3.1-1.5c0.8-1,1.1-2.4,1.1-4.3c0-1.6-0.4-3-1.2-4c-0.8-1-1.8-1.5-3.1-1.5
		c-1.3,0-2.3,0.5-3.1,1.5S-429.6,423.7-429.6,425.6z"/>
	<path d="M-408.2,420.3c-0.4-0.1-0.8-0.1-1.3-0.1c-1.7,0-2.8,0.7-3.4,2.1v10.6h-2.6v-15h2.5l0,1.7c0.8-1.3,2-2,3.6-2
		c0.5,0,0.9,0.1,1.1,0.2V420.3z"/>
	<path d="M-585.9,452.8c0,1-0.1,1.8-0.3,2.3c-0.2,0.6-0.5,1.1-0.9,1.7c-0.4,0.5-1.1,1.3-1.9,2.1s-1.3,1.8-1.4,2.7l0,0.5
		c0,1,0.3,1.8,0.8,2.3c0.5,0.5,1.3,0.8,2.3,0.8c0.9,0,1.7-0.3,2.2-0.8c0.6-0.5,0.9-1.2,0.9-2h2.6c0,1.5-0.5,2.7-1.6,3.6
		c-1,0.9-2.4,1.4-4.1,1.4c-1.8,0-3.2-0.5-4.2-1.4c-1-0.9-1.5-2.2-1.5-3.9c0-1.6,0.7-3.2,2.2-4.8l1.5-1.6c0.6-0.7,0.9-1.8,0.9-3.1
		H-585.9z M-585.8,448.4c0,0.4-0.1,0.8-0.4,1.1s-0.6,0.4-1.1,0.4s-0.9-0.1-1.1-0.4c-0.3-0.3-0.4-0.6-0.4-1.1c0-0.4,0.1-0.8,0.4-1
		c0.3-0.3,0.6-0.4,1.1-0.4s0.9,0.1,1.1,0.4C-585.9,447.6-585.8,448-585.8,448.4z"/>
	<path d="M-562.8,462.2h-2.7l-10.1-15.5v15.5h-2.7V442h2.7l10.2,15.6V442h2.6V462.2z"/>
	<path d="M-552.3,462.4c-2,0-3.7-0.7-4.9-2c-1.3-1.3-1.9-3.1-1.9-5.3v-0.5c0-1.5,0.3-2.8,0.9-4c0.6-1.2,1.4-2.1,2.4-2.7
		c1-0.7,2.1-1,3.3-1c1.9,0,3.5,0.6,4.5,1.9s1.6,3.1,1.6,5.5v1.1h-10.1c0,1.5,0.5,2.7,1.3,3.6c0.8,0.9,1.9,1.4,3.1,1.4
		c0.9,0,1.7-0.2,2.3-0.6c0.6-0.4,1.2-0.9,1.6-1.5l1.6,1.2C-547.9,461.5-549.8,462.4-552.3,462.4z M-552.6,449c-1,0-1.9,0.4-2.6,1.1
		c-0.7,0.8-1.1,1.8-1.3,3.2h7.5v-0.2c-0.1-1.3-0.4-2.3-1.1-3C-550.7,449.4-551.5,449-552.6,449z"/>
	<path d="M-537.5,460.4c0.9,0,1.7-0.3,2.4-0.8c0.7-0.6,1.1-1.2,1.1-2.1h2.4c0,0.9-0.3,1.7-0.9,2.4c-0.5,0.8-1.3,1.4-2.2,1.9
		c-0.9,0.5-1.9,0.7-2.9,0.7c-2,0-3.7-0.7-4.9-2c-1.2-1.4-1.8-3.2-1.8-5.6v-0.4c0-1.5,0.3-2.8,0.8-3.9c0.5-1.1,1.3-2,2.3-2.6
		c1-0.6,2.2-0.9,3.5-0.9c1.7,0,3.1,0.5,4.2,1.5c1.1,1,1.7,2.3,1.8,3.9h-2.4c-0.1-1-0.4-1.8-1.1-2.4c-0.7-0.6-1.5-0.9-2.4-0.9
		c-1.3,0-2.3,0.5-3,1.4c-0.7,0.9-1.1,2.3-1.1,4.1v0.5c0,1.7,0.4,3,1.1,4S-538.8,460.4-537.5,460.4z"/>
	<path d="M-522.5,462.4c-2,0-3.7-0.7-4.9-2c-1.3-1.3-1.9-3.1-1.9-5.3v-0.5c0-1.5,0.3-2.8,0.9-4c0.6-1.2,1.4-2.1,2.4-2.7
		c1-0.7,2.1-1,3.3-1c1.9,0,3.5,0.6,4.5,1.9s1.6,3.1,1.6,5.5v1.1h-10.1c0,1.5,0.5,2.7,1.3,3.6c0.8,0.9,1.9,1.4,3.1,1.4
		c0.9,0,1.7-0.2,2.3-0.6c0.6-0.4,1.2-0.9,1.6-1.5l1.6,1.2C-518.1,461.5-520,462.4-522.5,462.4z M-522.8,449c-1,0-1.9,0.4-2.6,1.1
		c-0.7,0.8-1.1,1.8-1.3,3.2h7.5v-0.2c-0.1-1.3-0.4-2.3-1.1-3C-520.9,449.4-521.7,449-522.8,449z"/>
	<path d="M-505,458.2c0-0.7-0.3-1.2-0.8-1.6s-1.4-0.7-2.7-1c-1.3-0.3-2.3-0.6-3.1-1c-0.8-0.4-1.3-0.8-1.7-1.4
		c-0.4-0.5-0.5-1.2-0.5-1.9c0-1.2,0.5-2.3,1.6-3.1c1-0.8,2.4-1.3,4-1.3c1.7,0,3.1,0.4,4.1,1.3c1.1,0.9,1.6,2,1.6,3.4h-2.6
		c0-0.7-0.3-1.3-0.9-1.8c-0.6-0.5-1.3-0.8-2.2-0.8c-0.9,0-1.7,0.2-2.2,0.6c-0.5,0.4-0.8,0.9-0.8,1.6c0,0.6,0.2,1.1,0.7,1.4
		c0.5,0.3,1.4,0.6,2.6,0.9c1.3,0.3,2.3,0.6,3.1,1c0.8,0.4,1.4,0.9,1.8,1.4c0.4,0.6,0.6,1.2,0.6,2c0,1.3-0.5,2.4-1.6,3.2
		c-1.1,0.8-2.5,1.2-4.2,1.2c-1.2,0-2.3-0.2-3.2-0.6s-1.6-1-2.2-1.8s-0.8-1.6-0.8-2.5h2.6c0,0.9,0.4,1.5,1,2c0.6,0.5,1.5,0.8,2.5,0.8
		c1,0,1.7-0.2,2.3-0.6C-505.3,459.4-505,458.9-505,458.2z"/>
	<path d="M-499.1,443.2c0-0.4,0.1-0.8,0.4-1.1c0.3-0.3,0.6-0.4,1.1-0.4s0.9,0.1,1.1,0.4c0.3,0.3,0.4,0.6,0.4,1.1
		c0,0.4-0.1,0.8-0.4,1c-0.3,0.3-0.6,0.4-1.1,0.4s-0.9-0.1-1.1-0.4C-499,444-499.1,443.7-499.1,443.2z M-496.3,462.2h-2.6v-15h2.6
		V462.2z"/>
	<path d="M-488.8,443.6v3.6h2.8v2h-2.8v9.3c0,0.6,0.1,1,0.4,1.3c0.2,0.3,0.7,0.4,1.3,0.4c0.3,0,0.7-0.1,1.2-0.2v2.1
		c-0.7,0.2-1.3,0.3-2,0.3c-1.1,0-2-0.3-2.6-1s-0.9-1.7-0.9-2.9v-9.3h-2.7v-2h2.7v-3.6H-488.8z"/>
	<path d="M-473.7,462.2c-0.1-0.3-0.3-0.8-0.4-1.6c-1.2,1.2-2.6,1.9-4.3,1.9c-1.5,0-2.7-0.4-3.6-1.3c-0.9-0.8-1.4-1.9-1.4-3.2
		c0-1.6,0.6-2.8,1.8-3.6c1.2-0.9,2.8-1.3,5-1.3h2.5v-1.2c0-0.9-0.3-1.6-0.8-2.1c-0.5-0.5-1.3-0.8-2.4-0.8c-0.9,0-1.7,0.2-2.3,0.7
		c-0.6,0.5-0.9,1-0.9,1.7h-2.6c0-0.7,0.3-1.5,0.8-2.2c0.5-0.7,1.2-1.2,2.2-1.7c0.9-0.4,1.9-0.6,3-0.6c1.7,0,3.1,0.4,4,1.3
		s1.5,2,1.5,3.6v6.9c0,1.4,0.2,2.5,0.5,3.3v0.2H-473.7z M-478,460.2c0.8,0,1.6-0.2,2.3-0.6c0.7-0.4,1.2-1,1.6-1.6v-3.1h-2
		c-3.1,0-4.7,0.9-4.7,2.8c0,0.8,0.3,1.4,0.8,1.9C-479.5,460-478.8,460.2-478,460.2z"/>
	<path d="M-458.9,458.2c0-0.7-0.3-1.2-0.8-1.6s-1.4-0.7-2.7-1c-1.3-0.3-2.3-0.6-3.1-1c-0.8-0.4-1.3-0.8-1.7-1.4
		c-0.4-0.5-0.5-1.2-0.5-1.9c0-1.2,0.5-2.3,1.6-3.1c1-0.8,2.4-1.3,4-1.3c1.7,0,3.1,0.4,4.1,1.3c1.1,0.9,1.6,2,1.6,3.4h-2.6
		c0-0.7-0.3-1.3-0.9-1.8c-0.6-0.5-1.3-0.8-2.2-0.8c-0.9,0-1.7,0.2-2.2,0.6c-0.5,0.4-0.8,0.9-0.8,1.6c0,0.6,0.2,1.1,0.7,1.4
		c0.5,0.3,1.4,0.6,2.6,0.9c1.3,0.3,2.3,0.6,3.1,1c0.8,0.4,1.4,0.9,1.8,1.4c0.4,0.6,0.6,1.2,0.6,2c0,1.3-0.5,2.4-1.6,3.2
		c-1.1,0.8-2.5,1.2-4.2,1.2c-1.2,0-2.3-0.2-3.2-0.6s-1.6-1-2.2-1.8s-0.8-1.6-0.8-2.5h2.6c0,0.9,0.4,1.5,1,2c0.6,0.5,1.5,0.8,2.5,0.8
		c1,0,1.7-0.2,2.3-0.6C-459.2,459.4-458.9,458.9-458.9,458.2z"/>
	<path d="M-436.7,462.2c-0.1-0.3-0.3-0.8-0.4-1.6c-1.2,1.2-2.6,1.9-4.3,1.9c-1.5,0-2.7-0.4-3.6-1.3c-0.9-0.8-1.4-1.9-1.4-3.2
		c0-1.6,0.6-2.8,1.8-3.6c1.2-0.9,2.8-1.3,5-1.3h2.5v-1.2c0-0.9-0.3-1.6-0.8-2.1c-0.5-0.5-1.3-0.8-2.4-0.8c-0.9,0-1.7,0.2-2.3,0.7
		c-0.6,0.5-0.9,1-0.9,1.7h-2.6c0-0.7,0.3-1.5,0.8-2.2c0.5-0.7,1.2-1.2,2.2-1.7c0.9-0.4,1.9-0.6,3-0.6c1.7,0,3.1,0.4,4,1.3
		s1.5,2,1.5,3.6v6.9c0,1.4,0.2,2.5,0.5,3.3v0.2H-436.7z M-441,460.2c0.8,0,1.6-0.2,2.3-0.6c0.7-0.4,1.2-1,1.6-1.6v-3.1h-2
		c-3.1,0-4.7,0.9-4.7,2.8c0,0.8,0.3,1.4,0.8,1.9C-442.5,460-441.8,460.2-441,460.2z"/>
	<path d="M-425.9,458.4l3.5-11.2h2.7l-6,17.3c-0.9,2.5-2.4,3.7-4.4,3.7l-0.5,0l-1-0.2v-2.1l0.7,0.1c0.9,0,1.5-0.2,2-0.5
		c0.5-0.4,0.9-1,1.2-1.9l0.6-1.5l-5.3-14.8h2.8L-425.9,458.4z"/>
	<path d="M-408.2,460.7c-1,1.2-2.5,1.8-4.4,1.8c-1.6,0-2.8-0.5-3.6-1.4c-0.8-0.9-1.3-2.3-1.3-4.1v-9.7h2.6v9.7
		c0,2.3,0.9,3.4,2.8,3.4c2,0,3.3-0.7,3.9-2.2v-10.9h2.6v15h-2.4L-408.2,460.7z"/>
	<path d="M-402.4,454.6c0-2.3,0.5-4.1,1.6-5.5c1.1-1.4,2.5-2.1,4.3-2.1c1.8,0,3.1,0.6,4.2,1.8v-7.8h2.6v21.2h-2.3l-0.1-1.6
		c-1,1.3-2.4,1.9-4.3,1.9c-1.7,0-3.1-0.7-4.2-2.1s-1.6-3.3-1.6-5.6V454.6z M-399.9,454.9c0,1.7,0.4,3,1.1,4c0.7,1,1.7,1.4,2.9,1.4
		c1.6,0,2.8-0.7,3.6-2.2v-6.9c-0.8-1.4-1.9-2.1-3.5-2.1c-1.3,0-2.2,0.5-2.9,1.5C-399.5,451.5-399.9,453-399.9,454.9z"/>
	<path d="M-376.6,462.2c-0.1-0.3-0.3-0.8-0.4-1.6c-1.2,1.2-2.6,1.9-4.3,1.9c-1.5,0-2.7-0.4-3.6-1.3c-0.9-0.8-1.4-1.9-1.4-3.2
		c0-1.6,0.6-2.8,1.8-3.6c1.2-0.9,2.8-1.3,5-1.3h2.5v-1.2c0-0.9-0.3-1.6-0.8-2.1c-0.5-0.5-1.3-0.8-2.4-0.8c-0.9,0-1.7,0.2-2.3,0.7
		c-0.6,0.5-0.9,1-0.9,1.7h-2.6c0-0.7,0.3-1.5,0.8-2.2c0.5-0.7,1.2-1.2,2.2-1.7c0.9-0.4,1.9-0.6,3-0.6c1.7,0,3.1,0.4,4,1.3
		s1.5,2,1.5,3.6v6.9c0,1.4,0.2,2.5,0.5,3.3v0.2H-376.6z M-380.8,460.2c0.8,0,1.6-0.2,2.3-0.6c0.7-0.4,1.2-1,1.6-1.6v-3.1h-2
		c-3.1,0-4.7,0.9-4.7,2.8c0,0.8,0.3,1.4,0.8,1.9C-382.4,460-381.7,460.2-380.8,460.2z"/>
	<path d="M-367.4,456.5c0-1.1,0.1-2,0.4-2.6c0.2-0.6,0.7-1.3,1.4-2.1l1.8-1.9c0.8-0.9,1.2-1.8,1.2-2.8c0-1-0.3-1.7-0.8-2.3
		c-0.5-0.5-1.2-0.8-2.2-0.8c-0.9,0-1.7,0.2-2.3,0.7s-0.9,1.2-0.9,2h-2.6c0-1.5,0.6-2.7,1.6-3.6c1-0.9,2.4-1.4,4.1-1.4
		c1.7,0,3.1,0.5,4.1,1.4c1,0.9,1.5,2.2,1.5,3.8c0,1.6-0.7,3.2-2.2,4.8l-1.5,1.5c-0.7,0.7-1,1.8-1,3.2H-367.4z M-367.5,460.9
		c0-0.4,0.1-0.8,0.4-1.1s0.6-0.4,1.1-0.4s0.9,0.1,1.1,0.4s0.4,0.6,0.4,1.1s-0.1,0.8-0.4,1c-0.3,0.3-0.6,0.4-1.1,0.4
		s-0.9-0.1-1.1-0.4C-367.4,461.6-367.5,461.3-367.5,460.9z"/>
	<path d="M-547.1,491.4h-2.7v-9.3h-10.1v9.3h-2.7v-20.1h2.7v8.7h10.1v-8.7h2.7V491.4z"/>
	<path d="M-533.6,491.4c-0.1-0.3-0.3-0.8-0.4-1.6c-1.2,1.2-2.6,1.9-4.3,1.9c-1.5,0-2.7-0.4-3.6-1.3c-0.9-0.8-1.4-1.9-1.4-3.2
		c0-1.6,0.6-2.8,1.8-3.6c1.2-0.9,2.8-1.3,5-1.3h2.5v-1.2c0-0.9-0.3-1.6-0.8-2.1c-0.5-0.5-1.3-0.8-2.4-0.8c-0.9,0-1.7,0.2-2.3,0.7
		c-0.6,0.5-0.9,1-0.9,1.7h-2.6c0-0.7,0.3-1.5,0.8-2.2c0.5-0.7,1.2-1.2,2.2-1.7c0.9-0.4,1.9-0.6,3-0.6c1.7,0,3.1,0.4,4,1.3
		s1.5,2,1.5,3.6v6.9c0,1.4,0.2,2.5,0.5,3.3v0.2H-533.6z M-537.8,489.5c0.8,0,1.6-0.2,2.3-0.6c0.7-0.4,1.2-1,1.6-1.6v-3.1h-2
		c-3.1,0-4.7,0.9-4.7,2.8c0,0.8,0.3,1.4,0.8,1.9C-539.3,489.2-538.7,489.5-537.8,489.5z"/>
	<path d="M-521.4,489.6c0.9,0,1.7-0.3,2.4-0.8c0.7-0.6,1.1-1.2,1.1-2.1h2.4c0,0.9-0.3,1.7-0.9,2.4c-0.5,0.8-1.3,1.4-2.2,1.9
		c-0.9,0.5-1.9,0.7-2.9,0.7c-2,0-3.7-0.7-4.9-2c-1.2-1.4-1.8-3.2-1.8-5.6v-0.4c0-1.5,0.3-2.8,0.8-3.9c0.5-1.1,1.3-2,2.3-2.6
		c1-0.6,2.2-0.9,3.5-0.9c1.7,0,3.1,0.5,4.2,1.5c1.1,1,1.7,2.3,1.8,3.9h-2.4c-0.1-1-0.4-1.8-1.1-2.4c-0.7-0.6-1.5-0.9-2.4-0.9
		c-1.3,0-2.3,0.5-3,1.4c-0.7,0.9-1.1,2.3-1.1,4.1v0.5c0,1.7,0.4,3,1.1,4S-522.7,489.6-521.4,489.6z"/>
	<path d="M-506.4,491.7c-2,0-3.7-0.7-4.9-2c-1.3-1.3-1.9-3.1-1.9-5.3v-0.5c0-1.5,0.3-2.8,0.9-4c0.6-1.2,1.4-2.1,2.4-2.7
		c1-0.7,2.1-1,3.3-1c1.9,0,3.5,0.6,4.5,1.9s1.6,3.1,1.6,5.5v1.1h-10.1c0,1.5,0.5,2.7,1.3,3.6c0.8,0.9,1.9,1.4,3.1,1.4
		c0.9,0,1.7-0.2,2.3-0.6c0.6-0.4,1.2-0.9,1.6-1.5l1.6,1.2C-502,490.7-503.9,491.7-506.4,491.7z M-506.7,478.3c-1,0-1.9,0.4-2.6,1.1
		c-0.7,0.8-1.1,1.8-1.3,3.2h7.5v-0.2c-0.1-1.3-0.4-2.3-1.1-3C-504.8,478.6-505.6,478.3-506.7,478.3z M-505.5,470.2h3.1l-3.7,4.1
		l-2.1,0L-505.5,470.2z"/>
	<path d="M-484.6,489.6c0.9,0,1.7-0.3,2.4-0.8c0.7-0.6,1.1-1.2,1.1-2.1h2.4c0,0.9-0.3,1.7-0.9,2.4c-0.5,0.8-1.3,1.4-2.2,1.9
		c-0.9,0.5-1.9,0.7-2.9,0.7c-2,0-3.7-0.7-4.9-2c-1.2-1.4-1.8-3.2-1.8-5.6v-0.4c0-1.5,0.3-2.8,0.8-3.9c0.5-1.1,1.3-2,2.3-2.6
		c1-0.6,2.2-0.9,3.5-0.9c1.7,0,3.1,0.5,4.2,1.5c1.1,1,1.7,2.3,1.8,3.9h-2.4c-0.1-1-0.4-1.8-1.1-2.4c-0.7-0.6-1.5-0.9-2.4-0.9
		c-1.3,0-2.3,0.5-3,1.4c-0.7,0.9-1.1,2.3-1.1,4.1v0.5c0,1.7,0.4,3,1.1,4S-485.9,489.6-484.6,489.6z"/>
	<path d="M-473,491.4h-2.6v-21.2h2.6V491.4z"/>
	<path d="M-468.9,472.5c0-0.4,0.1-0.8,0.4-1.1c0.3-0.3,0.6-0.4,1.1-0.4s0.9,0.1,1.1,0.4c0.3,0.3,0.4,0.6,0.4,1.1
		c0,0.4-0.1,0.8-0.4,1c-0.3,0.3-0.6,0.4-1.1,0.4s-0.9-0.1-1.1-0.4C-468.8,473.3-468.9,472.9-468.9,472.5z M-466.1,491.4h-2.6v-15
		h2.6V491.4z"/>
	<path d="M-456,489.6c0.9,0,1.7-0.3,2.4-0.8c0.7-0.6,1.1-1.2,1.1-2.1h2.4c0,0.9-0.3,1.7-0.9,2.4c-0.5,0.8-1.3,1.4-2.2,1.9
		c-0.9,0.5-1.9,0.7-2.9,0.7c-2,0-3.7-0.7-4.9-2c-1.2-1.4-1.8-3.2-1.8-5.6v-0.4c0-1.5,0.3-2.8,0.8-3.9c0.5-1.1,1.3-2,2.3-2.6
		c1-0.6,2.2-0.9,3.5-0.9c1.7,0,3.1,0.5,4.2,1.5c1.1,1,1.7,2.3,1.8,3.9h-2.4c-0.1-1-0.4-1.8-1.1-2.4c-0.7-0.6-1.5-0.9-2.4-0.9
		c-1.3,0-2.3,0.5-3,1.4c-0.7,0.9-1.1,2.3-1.1,4.1v0.5c0,1.7,0.4,3,1.1,4S-457.4,489.6-456,489.6z"/>
	<path d="M-431,491.4c-0.1-0.3-0.3-0.8-0.4-1.6c-1.2,1.2-2.6,1.9-4.3,1.9c-1.5,0-2.7-0.4-3.6-1.3c-0.9-0.8-1.4-1.9-1.4-3.2
		c0-1.6,0.6-2.8,1.8-3.6c1.2-0.9,2.8-1.3,5-1.3h2.5v-1.2c0-0.9-0.3-1.6-0.8-2.1c-0.5-0.5-1.3-0.8-2.4-0.8c-0.9,0-1.7,0.2-2.3,0.7
		c-0.6,0.5-0.9,1-0.9,1.7h-2.6c0-0.7,0.3-1.5,0.8-2.2c0.5-0.7,1.2-1.2,2.2-1.7c0.9-0.4,1.9-0.6,3-0.6c1.7,0,3.1,0.4,4,1.3
		s1.5,2,1.5,3.6v6.9c0,1.4,0.2,2.5,0.5,3.3v0.2H-431z M-435.2,489.5c0.8,0,1.6-0.2,2.3-0.6c0.7-0.4,1.2-1,1.6-1.6v-3.1h-2
		c-3.1,0-4.7,0.9-4.7,2.8c0,0.8,0.3,1.4,0.8,1.9C-436.8,489.2-436.1,489.5-435.2,489.5z"/>
	<path d="M-425.4,483.8c0-2.3,0.5-4.2,1.6-5.6c1.1-1.4,2.5-2.1,4.3-2.1c1.8,0,3.2,0.6,4.2,1.8l0.1-1.5h2.3v20.7h-2.6V490
		c-1,1.1-2.4,1.7-4.1,1.7c-1.8,0-3.2-0.7-4.3-2.1c-1.1-1.4-1.6-3.3-1.6-5.6V483.8z M-422.9,484.1c0,1.7,0.4,3.1,1.1,4
		c0.7,1,1.7,1.5,2.9,1.5c1.5,0,2.7-0.7,3.5-2v-7.3c-0.8-1.3-2-2-3.5-2c-1.2,0-2.2,0.5-2.9,1.5C-422.5,480.7-422.9,482.2-422.9,484.1
		z"/>
	<path d="M-399.5,489.9c-1,1.2-2.5,1.8-4.4,1.8c-1.6,0-2.8-0.5-3.6-1.4c-0.8-0.9-1.3-2.3-1.3-4.1v-9.7h2.6v9.7
		c0,2.3,0.9,3.4,2.8,3.4c2,0,3.3-0.7,3.9-2.2v-10.9h2.6v15h-2.4L-399.5,489.9z"/>
	<path d="M-390.3,470.2h3.1l-3.7,4.1l-2.1,0L-390.3,470.2z M-390.4,491.4h-2.6v-15h2.6V491.4z"/>
</g>
<text transform="matrix(1 0 0 1 71.1411 527.3828)"><tspan x="0" y="0" class="st6" style="font-family:'Roboto-Bold'; font-size:47.8183px;">&#xBF;Necesitas ayuda</tspan><tspan x="23.2" y="49.4" class="st6" style="font-family:'Roboto-Bold'; font-size:47.8183px;">administrativa?</tspan><tspan x="57" y="91.4" class="st6" style="font-family:'Roboto-Regular'; font-size:39px;">Escribinos aqu&#xED;</tspan></text>
<g>
	<defs>
		<polyline id="SVGID_1_" points="0,1 501,1 501,386 0,386 		"/>
	</defs>
	<clipPath id="SVGID_2_">
		<use xlink:href="#SVGID_1_"  style="overflow:visible;"/>
	</clipPath>
	<path class="st1" d="M426.5,363.1h-353c-27.6,0-50-22.4-50-50V152.9c0-27.6,22.4-50,50-50h353c27.6,0,50,22.4,50,50v160.3
		C476.5,340.8,454.1,363.1,426.5,363.1z"/>
	<circle class="st1" cx="242.7" cy="103.7" r="79.9"/>
	<g class="st2">
		<defs>
			<path id="SVGID_3_" d="M242.7,30.1c-40.6,0-73.6,32.9-73.6,73.6c0,40.6,32.9,73.6,73.6,73.6c40.6,0,73.6-32.9,73.6-73.6
				C316.2,63,283.3,30.1,242.7,30.1z"/>
		</defs>
		<clipPath id="SVGID_5_">
			<use xlink:href="#SVGID_3_"  style="overflow:visible;"/>
		</clipPath>
		<g class="st3">
			<g>
				<defs>
					<polygon id="SVGID_4_" points="132.5,37.7 308.8,185.7 218.6,185.7 132.5,113.2 					"/>
				</defs>
				<clipPath id="SVGID_6_">
					<use xlink:href="#SVGID_4_"  style="overflow:visible;"/>
				</clipPath>
				<path class="st4" d="M242.7,30.1c-40.6,0-73.6,32.9-73.6,73.6c0,40.6,32.9,73.6,73.6,73.6c40.6,0,73.6-32.9,73.6-73.6
					C316.2,63,283.3,30.1,242.7,30.1z M242.7,167.8c-35.4,0-64.1-28.7-64.1-64.1c0-35.4,28.7-64.1,64.1-64.1
					c35.4,0,64.1,28.7,64.1,64.1C306.8,139.1,278.1,167.8,242.7,167.8z"/>
			</g>
			<path class="st5" d="M242.7,30.1c-40.6,0-73.6,32.9-73.6,73.6c0,40.6,32.9,73.6,73.6,73.6c40.6,0,73.6-32.9,73.6-73.6
				C316.2,63,283.3,30.1,242.7,30.1z"/>
			<path class="st6" d="M242.7,47.3c-31.1,0-56.4,25.2-56.4,56.4c0,31.1,25.2,56.4,56.4,56.4c31.1,0,56.4-25.2,56.4-56.4
				C299,72.5,273.8,47.3,242.7,47.3z"/>
		</g>
	</g>
	<g class="st2">
		<path class="st7" d="M242.7,65.9c-20.8,0-37.7,16.9-37.7,37.8c0,20.8,16.9,37.8,37.7,37.8c20.9,0,37.8-16.9,37.8-37.8
			C280.4,82.8,263.5,65.9,242.7,65.9z"/>
		<path class="st7" d="M242.7,84.2c-10.7,0-19.4,8.7-19.4,19.4c0,10.7,8.7,19.4,19.4,19.4c10.7,0,19.4-8.7,19.4-19.4
			C262,92.9,253.4,84.2,242.7,84.2z"/>
	</g>
	<path class="st8" d="M242.7,47.3c-31.1,0-56.4,25.2-56.4,56.4c0,31.1,25.2,56.4,56.4,56.4c31.1,0,56.4-25.2,56.4-56.4
		C299,72.5,273.8,47.3,242.7,47.3z"/>
	<g class="st2">
		<path class="st9" d="M224.2,137.2c-0.3,0-0.5,0-0.8,0c-4.5,0-9,0-13.5,0c-1.4,0-2.1-0.6-2.1-2.1c0-21.2,0-42.3,0-63.5
			c0-1.4,0.6-2.1,2.1-2.1c10.2,0,20.4,0,30.6,0c0.7,0,1.3,0.2,1.8,0.8c2,2.1,4.1,4.1,6.1,6.2c0.3,0.3,0.6,0.4,1,0.4
			c8.1,0,16.2,0,24.2,0c1.5,0,2.2,0.6,2.2,2.2c0,21.1,0,42.2,0,63.3c0,1.4-0.6,2.1-2.1,2.1c-15.8,0-31.7,0-47.5,0c-1.4,0-2-0.6-2-2
			C224.2,140.8,224.2,139.1,224.2,137.2z M256,133.8c0-14.8,0-29.6,0-44.5c-0.3,0-0.5,0-0.7,0c-4.3,0-8.6,0-12.9,0
			c-1.6,0-2.2-0.6-2.2-2.2c0-4.4,0-8.8,0-13.2c0-0.2,0-0.5,0-0.7c-9.7,0-19.2,0-28.8,0c0,20.2,0,40.4,0,60.6
			C226.2,133.8,241.1,133.8,256,133.8z M252.3,80.5c0.2,0.2,0.3,0.4,0.5,0.5c2,2,3.9,4,5.9,6c0.6,0.6,0.8,1.2,0.8,1.9
			c0,15.4,0,30.8,0,46.2c0,1.6-0.6,2.1-2.2,2.1c-9.7,0-19.3,0-29,0c-0.2,0-0.4,0-0.7,0c0,1.3,0,2.6,0,3.9c14.9,0,29.8,0,44.7,0
			c0-20.2,0-40.4,0-60.6C265.7,80.5,259,80.5,252.3,80.5z M243.6,76.6c0,3.1,0,6.1,0,9.1c3,0,5.9,0,9,0
			C249.6,82.7,246.6,79.7,243.6,76.6z"/>
		<path class="st9" d="M233.7,115.3c-6,0-11.9,0-17.9,0c-1.1,0-1.4-0.3-1.4-1.5c0-0.4,0-0.9,0-1.3c0-0.8,0.4-1.1,1.1-1.2
			c0.1,0,0.3,0,0.4,0c11.8,0,23.7,0,35.5,0c1.3,0,1.5,0.2,1.5,1.6c0,0.4,0,0.9,0,1.3c0,0.6-0.4,1-1.1,1.1c-0.2,0-0.3,0-0.5,0
			C245.4,115.3,239.6,115.3,233.7,115.3z"/>
		<path class="st9" d="M233.6,125.1c-5.9,0-11.9,0-17.8,0c-1.1,0-1.4-0.3-1.4-1.4c0-0.5,0-1,0-1.4c0-0.6,0.4-1,1.1-1
			c0.1,0,0.3,0,0.4,0c11.9,0,23.7,0,35.6,0c1.2,0,1.5,0.3,1.5,1.4c0,0.4,0,0.9,0,1.3c0,0.8-0.4,1.2-1.2,1.2c-2.6,0-5.1,0-7.7,0
			C240.6,125.1,237.1,125.1,233.6,125.1z"/>
		<path class="st9" d="M233.7,101.6c5.9,0,11.9,0,17.8,0c1.1,0,1.4,0.3,1.4,1.4c0,0.5,0,1,0,1.5c0,0.6-0.4,1-1,1c-0.2,0-0.3,0-0.5,0
			c-11.9,0-23.7,0-35.6,0c-1.2,0-1.5-0.3-1.5-1.5c0-0.4,0-0.8,0-1.2c0-0.9,0.4-1.3,1.3-1.3c2.7,0,5.5,0,8.2,0
			C227.1,101.6,230.4,101.6,233.7,101.6z"/>
		<path class="st9" d="M233.7,91.7c5.9,0,11.8,0,17.7,0c1.4,0,1.6,0.2,1.6,1.6c0,0.4,0,0.9,0,1.3c0,0.6-0.4,1-1,1.1
			c-0.2,0-0.3,0-0.5,0c-11.8,0-23.7,0-35.5,0c-1.2,0-1.5-0.3-1.5-1.5c0-0.4,0-0.7,0-1.1c0-1,0.3-1.3,1.3-1.3c1.8,0,3.6,0,5.4,0
			C225.3,91.7,229.5,91.7,233.7,91.7z"/>
		<path class="st9" d="M230.8,86c-2.1,0-4.3,0-6.4,0c-0.9,0-1.3-0.3-1.3-1.3c0-0.5,0-1,0-1.6c0-0.7,0.4-1.1,1.1-1.1
			c4.4,0,8.8,0,13.3,0c0.7,0,1.1,0.4,1.1,1.1c0,0.5,0,1.1,0,1.6c0,0.9-0.4,1.2-1.2,1.2C235.1,86,232.9,86,230.8,86z"/>
	</g>
</g>
<g>
	<g>
		<path d="M105.2,307.6c-0.2-0.4-0.4-1.1-0.5-2.2c-1.6,1.7-3.6,2.6-5.9,2.6c-2,0-3.7-0.6-5-1.7c-1.3-1.1-2-2.6-2-4.4
			c0-2.1,0.8-3.8,2.4-5c1.6-1.2,3.9-1.8,6.9-1.8h3.4v-1.6c0-1.2-0.4-2.2-1.1-2.9s-1.8-1.1-3.3-1.1c-1.3,0-2.3,0.3-3.2,1
			s-1.3,1.4-1.3,2.3h-3.5c0-1,0.4-2,1.1-3c0.7-1,1.7-1.7,3-2.3c1.3-0.6,2.6-0.8,4.1-0.8c2.4,0,4.2,0.6,5.6,1.8
			c1.3,1.2,2,2.8,2.1,4.9v9.5c0,1.9,0.2,3.4,0.7,4.5v0.3H105.2z M99.4,304.9c1.1,0,2.2-0.3,3.1-0.9s1.7-1.3,2.2-2.2v-4.2h-2.8
			c-4.3,0-6.5,1.3-6.5,3.8c0,1.1,0.4,2,1.1,2.6S98.2,304.9,99.4,304.9z"/>
		<path d="M112.8,297.1c0-3.2,0.7-5.7,2.2-7.6c1.5-1.9,3.5-2.9,5.9-2.9c2.4,0,4.3,0.8,5.7,2.5v-10.7h3.5v29.3H127l-0.2-2.2
			c-1.4,1.7-3.4,2.6-5.9,2.6c-2.4,0-4.3-1-5.8-2.9c-1.5-2-2.3-4.5-2.3-7.7V297.1z M116.4,297.5c0,2.3,0.5,4.2,1.4,5.5s2.3,2,4,2
			c2.2,0,3.9-1,4.9-3v-9.5c-1.1-1.9-2.7-2.9-4.9-2.9c-1.7,0-3.1,0.7-4,2S116.4,294.9,116.4,297.5z"/>
		<path d="M139,287l0.1,2.3c1.5-1.8,3.5-2.7,6.1-2.7c2.9,0,4.8,1.1,5.9,3.3c0.7-1,1.6-1.8,2.7-2.4s2.4-0.9,3.9-0.9
			c4.5,0,6.8,2.4,6.9,7.2v13.8H161V294c0-1.5-0.3-2.6-1-3.3s-1.8-1.1-3.4-1.1c-1.3,0-2.4,0.4-3.3,1.2c-0.9,0.8-1.4,1.8-1.5,3.2v13.7
			h-3.5v-13.5c0-3-1.5-4.5-4.4-4.5c-2.3,0-3.9,1-4.7,3v15h-3.5V287H139z"/>
		<path d="M169.9,281.5c0-0.6,0.2-1.1,0.5-1.4c0.3-0.4,0.9-0.6,1.6-0.6s1.2,0.2,1.6,0.6s0.5,0.9,0.5,1.4s-0.2,1-0.5,1.4
			s-0.9,0.6-1.6,0.6s-1.2-0.2-1.6-0.6C170.1,282.6,169.9,282.1,169.9,281.5z M173.7,307.6h-3.5V287h3.5V307.6z"/>
		<path d="M182.7,287l0.1,2.6c1.6-2,3.6-3,6.2-3c4.4,0,6.6,2.5,6.6,7.4v13.6H192V294c0-1.5-0.4-2.6-1-3.3c-0.7-0.7-1.7-1.1-3.1-1.1
			c-1.1,0-2.1,0.3-3,0.9s-1.5,1.4-2,2.4v14.7h-3.5V287H182.7z"/>
		<path d="M200.9,281.5c0-0.6,0.2-1.1,0.5-1.4c0.3-0.4,0.9-0.6,1.6-0.6s1.2,0.2,1.6,0.6s0.5,0.9,0.5,1.4s-0.2,1-0.5,1.4
			s-0.9,0.6-1.6,0.6s-1.2-0.2-1.6-0.6C201.1,282.6,200.9,282.1,200.9,281.5z M204.7,307.6h-3.5V287h3.5V307.6z"/>
		<path d="M222.3,302.2c0-1-0.4-1.7-1.1-2.2s-2-1-3.8-1.4c-1.8-0.4-3.2-0.8-4.2-1.4c-1-0.5-1.8-1.2-2.3-1.9s-0.8-1.6-0.8-2.6
			c0-1.7,0.7-3.1,2.1-4.3c1.4-1.2,3.3-1.8,5.5-1.8c2.3,0,4.2,0.6,5.7,1.8c1.5,1.2,2.2,2.7,2.2,4.6h-3.5c0-1-0.4-1.8-1.2-2.5
			c-0.8-0.7-1.9-1-3.1-1c-1.3,0-2.3,0.3-3,0.8s-1.1,1.3-1.1,2.2c0,0.9,0.3,1.5,1,1.9s1.9,0.8,3.6,1.2s3.2,0.9,4.3,1.4s1.9,1.2,2.4,2
			s0.8,1.7,0.8,2.8c0,1.8-0.7,3.3-2.2,4.4s-3.4,1.7-5.7,1.7c-1.7,0-3.1-0.3-4.4-0.9s-2.3-1.4-3-2.4c-0.7-1-1.1-2.2-1.1-3.4h3.5
			c0.1,1.2,0.5,2.1,1.4,2.8c0.9,0.7,2,1,3.5,1c1.3,0,2.4-0.3,3.2-0.8C221.9,303.8,222.3,303.1,222.3,302.2z"/>
		<path d="M235.2,282v5h3.8v2.7h-3.8v12.8c0,0.8,0.2,1.4,0.5,1.9s0.9,0.6,1.8,0.6c0.4,0,1-0.1,1.7-0.2v2.8c-0.9,0.3-1.8,0.4-2.7,0.4
			c-1.6,0-2.8-0.5-3.6-1.4s-1.2-2.3-1.2-4.1v-12.8h-3.8V287h3.8v-5H235.2z"/>
		<path d="M253.1,290.2c-0.5-0.1-1.1-0.1-1.7-0.1c-2.3,0-3.9,1-4.7,3v14.6h-3.5V287h3.4l0.1,2.4c1.2-1.8,2.8-2.8,4.9-2.8
			c0.7,0,1.2,0.1,1.6,0.3V290.2z"/>
		<path d="M268.3,307.6c-0.2-0.4-0.4-1.1-0.5-2.2c-1.6,1.7-3.6,2.6-5.9,2.6c-2,0-3.7-0.6-5-1.7c-1.3-1.1-2-2.6-2-4.4
			c0-2.1,0.8-3.8,2.4-5c1.6-1.2,3.9-1.8,6.9-1.8h3.4v-1.6c0-1.2-0.4-2.2-1.1-2.9s-1.8-1.1-3.3-1.1c-1.3,0-2.3,0.3-3.2,1
			s-1.3,1.4-1.3,2.3h-3.5c0-1,0.4-2,1.1-3c0.7-1,1.7-1.7,3-2.3c1.3-0.6,2.6-0.8,4.1-0.8c2.4,0,4.2,0.6,5.6,1.8
			c1.3,1.2,2,2.8,2.1,4.9v9.5c0,1.9,0.2,3.4,0.7,4.5v0.3H268.3z M262.5,304.9c1.1,0,2.2-0.3,3.1-0.9s1.7-1.3,2.2-2.2v-4.2H265
			c-4.3,0-6.5,1.3-6.5,3.8c0,1.1,0.4,2,1.1,2.6S261.3,304.9,262.5,304.9z"/>
		<path d="M285.1,305.1c1.3,0,2.4-0.4,3.3-1.1s1.5-1.7,1.6-2.9h3.3c-0.1,1.2-0.5,2.3-1.2,3.4s-1.7,1.9-3,2.6c-1.3,0.6-2.6,1-4,1
			c-2.8,0-5-0.9-6.7-2.8c-1.7-1.9-2.5-4.4-2.5-7.7v-0.6c0-2,0.4-3.8,1.1-5.4s1.8-2.8,3.2-3.6c1.4-0.9,3-1.3,4.9-1.3
			c2.3,0,4.2,0.7,5.8,2.1s2.3,3.2,2.4,5.4h-3.3c-0.1-1.3-0.6-2.4-1.5-3.3c-0.9-0.9-2-1.3-3.4-1.3c-1.8,0-3.2,0.6-4.2,1.9
			c-1,1.3-1.5,3.2-1.5,5.6v0.7c0,2.4,0.5,4.2,1.5,5.5S283.3,305.1,285.1,305.1z"/>
		<path d="M297.3,281.5c0-0.6,0.2-1.1,0.5-1.4c0.3-0.4,0.9-0.6,1.6-0.6s1.2,0.2,1.6,0.6s0.5,0.9,0.5,1.4s-0.2,1-0.5,1.4
			s-0.9,0.6-1.6,0.6s-1.2-0.2-1.6-0.6C297.4,282.6,297.3,282.1,297.3,281.5z M301.1,307.6h-3.5V287h3.5V307.6z"/>
		<path d="M305.8,297.1c0-2,0.4-3.8,1.2-5.4s1.9-2.9,3.3-3.7s3-1.3,4.8-1.3c2.8,0,5.1,1,6.8,2.9c1.7,1.9,2.6,4.5,2.6,7.8v0.2
			c0,2-0.4,3.8-1.2,5.4s-1.9,2.8-3.3,3.7c-1.4,0.9-3.1,1.3-4.9,1.3c-2.8,0-5.1-1-6.8-2.9c-1.7-1.9-2.6-4.5-2.6-7.7V297.1z
			 M309.3,297.5c0,2.3,0.5,4.1,1.6,5.5c1.1,1.4,2.5,2.1,4.3,2.1c1.8,0,3.2-0.7,4.3-2.1s1.6-3.4,1.6-5.9c0-2.3-0.5-4.1-1.6-5.5
			c-1.1-1.4-2.5-2.1-4.3-2.1c-1.7,0-3.1,0.7-4.2,2.1S309.3,295,309.3,297.5z"/>
		<path d="M332.3,287l0.1,2.6c1.6-2,3.6-3,6.2-3c4.4,0,6.6,2.5,6.6,7.4v13.6h-3.5V294c0-1.5-0.4-2.6-1-3.3s-1.7-1.1-3.1-1.1
			c-1.1,0-2.1,0.3-3,0.9s-1.5,1.4-2,2.4v14.7h-3.5V287H332.3z"/>
		<path d="M353.8,287l0.1,2.3c1.5-1.8,3.5-2.7,6.1-2.7c2.9,0,4.8,1.1,5.9,3.3c0.7-1,1.6-1.8,2.7-2.4c1.1-0.6,2.4-0.9,3.9-0.9
			c4.5,0,6.8,2.4,6.9,7.2v13.8h-3.5V294c0-1.5-0.3-2.6-1-3.3c-0.7-0.7-1.8-1.1-3.4-1.1c-1.3,0-2.4,0.4-3.3,1.2
			c-0.9,0.8-1.4,1.8-1.5,3.2v13.7h-3.5v-13.5c0-3-1.5-4.5-4.4-4.5c-2.3,0-3.9,1-4.7,3v15h-3.5V287H353.8z"/>
		<path d="M384.7,281.5c0-0.6,0.2-1.1,0.5-1.4c0.3-0.4,0.9-0.6,1.6-0.6s1.2,0.2,1.6,0.6s0.5,0.9,0.5,1.4s-0.2,1-0.5,1.4
			s-0.9,0.6-1.6,0.6s-1.2-0.2-1.6-0.6C384.8,282.6,384.7,282.1,384.7,281.5z M388.5,307.6h-3.5V287h3.5V307.6z"/>
		<path d="M398.9,282v5h3.8v2.7h-3.8v12.8c0,0.8,0.2,1.4,0.5,1.9c0.3,0.4,0.9,0.6,1.8,0.6c0.4,0,1-0.1,1.7-0.2v2.8
			c-0.9,0.3-1.8,0.4-2.7,0.4c-1.6,0-2.8-0.5-3.6-1.4s-1.2-2.3-1.2-4.1v-12.8h-3.8V287h3.8v-5H398.9z"/>
		<path d="M153.1,332.1c-0.2,3.1-0.9,5.5-2.3,7.3s-3.2,2.7-5.5,2.7c-2.4,0-3.9-1.1-4.6-3.2c-0.7,1.1-1.5,1.9-2.4,2.4
			c-0.9,0.5-1.8,0.8-2.7,0.8c-1.8,0-3.2-0.7-4.1-2.2s-1.3-3.5-1-6.1c0.2-2.1,0.7-4,1.4-5.6c0.8-1.6,1.8-2.9,3-3.9
			c1.2-0.9,2.5-1.4,3.8-1.4c1,0,1.9,0.1,2.8,0.4s1.7,0.8,2.7,1.6l-1,10.5c-0.2,2.9,0.6,4.4,2.4,4.4c1.4,0,2.6-0.7,3.5-2.1
			s1.4-3.3,1.4-5.6c0.2-4.9-0.7-8.7-2.8-11.3c-2.1-2.6-5.2-3.9-9.5-3.9c-2.6,0-4.8,0.6-6.8,1.9s-3.5,3.1-4.7,5.5s-1.8,5.1-1.9,8.3
			c-0.2,3.1,0.2,5.9,1.1,8.2c0.9,2.3,2.3,4.1,4.2,5.3c1.9,1.2,4.1,1.8,6.8,1.8c1.1,0,2.3-0.1,3.4-0.4s2.1-0.6,2.9-1.1l0.7,2.2
			c-0.8,0.5-1.8,0.9-3.1,1.2c-1.3,0.3-2.6,0.5-4,0.5c-3.2,0-5.9-0.7-8.2-2.1c-2.3-1.4-4-3.5-5.1-6.2c-1.1-2.7-1.6-5.8-1.5-9.4
			c0.2-3.5,0.9-6.6,2.3-9.4c1.4-2.8,3.3-4.9,5.7-6.5s5.1-2.3,8.2-2.3c3.2,0,5.9,0.7,8.1,2.1s3.9,3.5,5,6.2S153.3,328.5,153.1,332.1z
			 M133.6,333.7c-0.2,1.8,0,3.2,0.5,4.2c0.5,1,1.3,1.4,2.4,1.4c0.8,0,1.5-0.3,2.2-1c0.7-0.6,1.3-1.6,1.7-2.8l0-0.2l0.9-9.6
			c-0.7-0.4-1.5-0.6-2.3-0.6c-1.5,0-2.7,0.8-3.7,2.3C134.5,329,133.8,331.1,133.6,333.7z"/>
		<path d="M159.5,341.6v-17.9h-3.3V321h3.3v-2.1c0-2.2,0.6-3.9,1.8-5.1s2.9-1.8,5-1.8c0.8,0,1.6,0.1,2.4,0.3l-0.2,2.8
			c-0.6-0.1-1.2-0.2-1.9-0.2c-1.1,0-2,0.3-2.6,1s-0.9,1.6-0.9,2.9v2.2h4.4v2.7H163v17.9H159.5z"/>
		<path d="M175.1,341.6h-3.5v-29.3h3.5V341.6z"/>
		<path d="M193.5,341.6c-0.2-0.4-0.4-1.1-0.5-2.2c-1.6,1.7-3.6,2.6-5.9,2.6c-2,0-3.7-0.6-5-1.7c-1.3-1.1-2-2.6-2-4.4
			c0-2.1,0.8-3.8,2.4-5c1.6-1.2,3.9-1.8,6.9-1.8h3.4v-1.6c0-1.2-0.4-2.2-1.1-2.9s-1.8-1.1-3.3-1.1c-1.3,0-2.3,0.3-3.2,1
			s-1.3,1.4-1.3,2.3h-3.5c0-1,0.4-2,1.1-3c0.7-1,1.7-1.7,3-2.3c1.3-0.6,2.6-0.8,4.1-0.8c2.4,0,4.2,0.6,5.6,1.8
			c1.3,1.2,2,2.8,2.1,4.9v9.5c0,1.9,0.2,3.4,0.7,4.5v0.3H193.5z M187.6,338.9c1.1,0,2.2-0.3,3.1-0.9s1.7-1.3,2.2-2.2v-4.2h-2.8
			c-4.3,0-6.5,1.3-6.5,3.8c0,1.1,0.4,2,1.1,2.6S186.5,338.9,187.6,338.9z"/>
		<path d="M210.2,339.1c1.3,0,2.4-0.4,3.3-1.1s1.5-1.7,1.6-2.9h3.3c-0.1,1.2-0.5,2.3-1.2,3.4s-1.7,1.9-3,2.6c-1.3,0.6-2.6,1-4,1
			c-2.8,0-5-0.9-6.7-2.8c-1.7-1.9-2.5-4.4-2.5-7.7v-0.6c0-2,0.4-3.8,1.1-5.4s1.8-2.8,3.2-3.6c1.4-0.9,3-1.3,4.9-1.3
			c2.3,0,4.2,0.7,5.8,2.1s2.3,3.2,2.4,5.4h-3.3c-0.1-1.3-0.6-2.4-1.5-3.3c-0.9-0.9-2-1.3-3.4-1.3c-1.8,0-3.2,0.6-4.2,1.9
			c-1,1.3-1.5,3.2-1.5,5.6v0.7c0,2.4,0.5,4.2,1.5,5.5S208.4,339.1,210.2,339.1z"/>
		<path d="M234.4,336.2c0-1-0.4-1.7-1.1-2.2s-2-1-3.8-1.4c-1.8-0.4-3.2-0.8-4.2-1.4c-1-0.5-1.8-1.2-2.3-1.9s-0.8-1.6-0.8-2.6
			c0-1.7,0.7-3.1,2.1-4.3c1.4-1.2,3.3-1.8,5.5-1.8c2.3,0,4.2,0.6,5.7,1.8c1.5,1.2,2.2,2.7,2.2,4.6h-3.5c0-1-0.4-1.8-1.2-2.5
			c-0.8-0.7-1.9-1-3.1-1c-1.3,0-2.3,0.3-3,0.8s-1.1,1.3-1.1,2.2c0,0.9,0.3,1.5,1,1.9s1.9,0.8,3.6,1.2s3.2,0.9,4.3,1.4s1.9,1.2,2.4,2
			s0.8,1.7,0.8,2.8c0,1.8-0.7,3.3-2.2,4.4s-3.4,1.7-5.7,1.7c-1.7,0-3.1-0.3-4.4-0.9s-2.3-1.4-3-2.4c-0.7-1-1.1-2.2-1.1-3.4h3.5
			c0.1,1.2,0.5,2.1,1.4,2.8c0.9,0.7,2,1,3.5,1c1.3,0,2.4-0.3,3.2-0.8C234,337.8,234.4,337.1,234.4,336.2z"/>
		<path d="M241.5,331.1c0-2,0.4-3.8,1.2-5.4s1.9-2.9,3.3-3.7s3-1.3,4.8-1.3c2.8,0,5.1,1,6.8,2.9c1.7,1.9,2.6,4.5,2.6,7.8v0.2
			c0,2-0.4,3.8-1.2,5.4s-1.9,2.8-3.3,3.7c-1.4,0.9-3.1,1.3-4.9,1.3c-2.8,0-5.1-1-6.8-2.9c-1.7-1.9-2.6-4.5-2.6-7.7V331.1z
			 M245.1,331.5c0,2.3,0.5,4.1,1.6,5.5c1.1,1.4,2.5,2.1,4.3,2.1c1.8,0,3.2-0.7,4.3-2.1s1.6-3.4,1.6-5.9c0-2.3-0.5-4.1-1.6-5.5
			c-1.1-1.4-2.5-2.1-4.3-2.1c-1.7,0-3.1,0.7-4.2,2.1S245.1,329,245.1,331.5z"/>
		<path d="M264.8,339.8c0-0.6,0.2-1.1,0.5-1.5c0.4-0.4,0.9-0.6,1.6-0.6s1.3,0.2,1.6,0.6c0.4,0.4,0.6,0.9,0.6,1.5
			c0,0.6-0.2,1.1-0.6,1.5c-0.4,0.4-0.9,0.6-1.6,0.6s-1.3-0.2-1.6-0.6C265,340.8,264.8,340.4,264.8,339.8z"/>
		<path d="M274.1,331.1c0-2,0.4-3.8,1.2-5.4s1.9-2.9,3.3-3.7s3-1.3,4.8-1.3c2.8,0,5.1,1,6.8,2.9c1.7,1.9,2.6,4.5,2.6,7.8v0.2
			c0,2-0.4,3.8-1.2,5.4s-1.9,2.8-3.3,3.7c-1.4,0.9-3.1,1.3-4.9,1.3c-2.8,0-5.1-1-6.8-2.9c-1.7-1.9-2.6-4.5-2.6-7.7V331.1z
			 M277.6,331.5c0,2.3,0.5,4.1,1.6,5.5c1.1,1.4,2.5,2.1,4.3,2.1c1.8,0,3.2-0.7,4.3-2.1s1.6-3.4,1.6-5.9c0-2.3-0.5-4.1-1.6-5.5
			c-1.1-1.4-2.5-2.1-4.3-2.1c-1.7,0-3.1,0.7-4.2,2.1S277.6,329,277.6,331.5z"/>
		<path d="M307.2,324.2c-0.5-0.1-1.1-0.1-1.7-0.1c-2.3,0-3.9,1-4.7,3v14.6h-3.5V321h3.4l0.1,2.4c1.2-1.8,2.8-2.8,4.9-2.8
			c0.7,0,1.2,0.1,1.6,0.3V324.2z"/>
		<path d="M309.2,331.1c0-3.2,0.7-5.8,2.2-7.7c1.5-1.9,3.5-2.8,5.9-2.8c2.5,0,4.5,0.9,5.9,2.7l0.2-2.3h3.2v20.1
			c0,2.7-0.8,4.8-2.4,6.3c-1.6,1.5-3.7,2.3-6.4,2.3c-1.5,0-2.9-0.3-4.4-1s-2.5-1.5-3.3-2.6l1.8-2.1c1.5,1.9,3.4,2.8,5.5,2.8
			c1.7,0,3-0.5,4-1.4c1-1,1.4-2.3,1.4-4.1v-1.8c-1.4,1.6-3.3,2.4-5.8,2.4c-2.4,0-4.4-1-5.9-2.9S309.2,334.5,309.2,331.1z
			 M312.8,331.5c0,2.3,0.5,4.1,1.4,5.5s2.3,2,4,2c2.2,0,3.9-1,4.9-3v-9.4c-1.1-2-2.7-3-4.9-3c-1.7,0-3.1,0.7-4,2
			S312.8,328.9,312.8,331.5z"/>
		<path d="M332,339.8c0-0.6,0.2-1.1,0.5-1.5c0.4-0.4,0.9-0.6,1.6-0.6c0.7,0,1.3,0.2,1.6,0.6c0.4,0.4,0.6,0.9,0.6,1.5
			c0,0.6-0.2,1.1-0.6,1.5c-0.4,0.4-0.9,0.6-1.6,0.6c-0.7,0-1.3-0.2-1.6-0.6C332.2,340.8,332,340.4,332,339.8z"/>
		<path d="M354.9,341.6c-0.2-0.4-0.4-1.1-0.5-2.2c-1.6,1.7-3.6,2.6-5.9,2.6c-2,0-3.7-0.6-5-1.7c-1.3-1.1-2-2.6-2-4.4
			c0-2.1,0.8-3.8,2.4-5c1.6-1.2,3.9-1.8,6.9-1.8h3.4v-1.6c0-1.2-0.4-2.2-1.1-2.9s-1.8-1.1-3.3-1.1c-1.3,0-2.3,0.3-3.2,1
			s-1.3,1.4-1.3,2.3H342c0-1,0.4-2,1.1-3c0.7-1,1.7-1.7,3-2.3c1.3-0.6,2.6-0.8,4.1-0.8c2.4,0,4.2,0.6,5.6,1.8c1.3,1.2,2,2.8,2.1,4.9
			v9.5c0,1.9,0.2,3.4,0.7,4.5v0.3H354.9z M349.1,338.9c1.1,0,2.2-0.3,3.1-0.9s1.7-1.3,2.2-2.2v-4.2h-2.8c-4.3,0-6.5,1.3-6.5,3.8
			c0,1.1,0.4,2,1.1,2.6S347.9,338.9,349.1,338.9z"/>
		<path d="M373.4,324.2c-0.5-0.1-1.1-0.1-1.7-0.1c-2.3,0-3.9,1-4.7,3v14.6h-3.5V321h3.4l0.1,2.4c1.2-1.8,2.8-2.8,4.9-2.8
			c0.7,0,1.2,0.1,1.6,0.3V324.2z"/>
	</g>
</g>
<g>
	<text transform="matrix(1 0 0 1 89.4385 455.6162)"><tspan x="0" y="0" style="font-family:'Roboto-Regular'; font-size:39px;">administracionmit</tspan><tspan x="30.4" y="34" style="font-family:'Roboto-Regular'; font-size:39px;">@flacso.org.ar</tspan></text>
</g>
<g>
	<path d="M86.6,202.2c0,2-0.2,3.5-0.7,4.7c-0.5,1.2-1.3,2.3-2.4,3.4c-1.2,1.1-2,1.9-2.4,2.4c-0.4,0.5-0.7,1.1-0.9,1.6
		c-0.2,0.5-0.3,1.1-0.3,1.8c0,2.3,1.1,3.5,3.4,3.5c1.1,0,2-0.3,2.7-1c0.7-0.7,1-1.6,1-2.8h6.4c0,2.8-0.9,5-2.7,6.6s-4.2,2.4-7.3,2.4
		c-3.1,0-5.5-0.7-7.3-2.2s-2.6-3.6-2.6-6.4c0-2.3,1.1-4.6,3.4-6.9l2.1-2c0.7-0.7,1.2-1.3,1.5-2.1c0.3-0.7,0.4-1.7,0.5-3H86.6z
		 M87.4,195.5c0,1-0.3,1.8-1,2.4c-0.7,0.6-1.5,0.9-2.5,0.9s-1.9-0.3-2.5-0.9c-0.7-0.6-1-1.4-1-2.4c0-1,0.3-1.8,1-2.4
		c0.7-0.6,1.5-0.9,2.6-0.9s1.9,0.3,2.6,0.9C87.1,193.7,87.4,194.5,87.4,195.5z"/>
	<path d="M123.2,216.4h-6.6l-12.8-21v21h-6.6v-32h6.6l12.9,21.1v-21.1h6.6V216.4z"/>
	<path d="M139.5,216.8c-3.5,0-6.3-1.1-8.5-3.2c-2.2-2.1-3.3-5-3.3-8.5v-0.6c0-2.4,0.5-4.5,1.4-6.4s2.2-3.3,3.9-4.4
		c1.7-1,3.6-1.5,5.8-1.5c3.3,0,5.8,1,7.7,3.1c1.9,2.1,2.8,5,2.8,8.7v2.6h-15.1c0.2,1.6,0.8,2.8,1.9,3.7c1,0.9,2.3,1.4,3.9,1.4
		c2.4,0,4.4-0.9,5.7-2.7l3.1,3.5c-1,1.3-2.2,2.4-3.9,3.2C143.3,216.4,141.5,216.8,139.5,216.8z M138.8,197.3c-1.3,0-2.3,0.4-3.1,1.3
		c-0.8,0.9-1.3,2.1-1.5,3.7h8.8v-0.5c0-1.4-0.4-2.5-1.1-3.3S140.1,197.3,138.8,197.3z"/>
	<path d="M162.8,211.7c1.2,0,2.1-0.3,2.9-1s1.1-1.5,1.1-2.6h6c0,1.6-0.5,3.1-1.3,4.4c-0.9,1.3-2,2.4-3.5,3.1c-1.5,0.7-3.2,1.1-5,1.1
		c-3.4,0-6.1-1.1-8-3.2c-2-2.2-2.9-5.1-2.9-9v-0.4c0-3.7,1-6.6,2.9-8.8s4.6-3.3,8-3.3c3,0,5.4,0.8,7.2,2.5c1.8,1.7,2.7,3.9,2.7,6.8
		h-6c0-1.2-0.4-2.2-1.1-3c-0.7-0.8-1.7-1.2-2.9-1.2c-1.5,0-2.6,0.5-3.4,1.6c-0.8,1.1-1.1,2.8-1.1,5.2v0.7c0,2.5,0.4,4.2,1.1,5.3
		C160.1,211.2,161.3,211.7,162.8,211.7z"/>
	<path d="M187.3,216.8c-3.5,0-6.3-1.1-8.5-3.2c-2.2-2.1-3.3-5-3.3-8.5v-0.6c0-2.4,0.5-4.5,1.4-6.4s2.2-3.3,3.9-4.4
		c1.7-1,3.6-1.5,5.8-1.5c3.3,0,5.8,1,7.7,3.1c1.9,2.1,2.8,5,2.8,8.7v2.6h-15.1c0.2,1.6,0.8,2.8,1.9,3.7c1,0.9,2.3,1.4,3.9,1.4
		c2.4,0,4.4-0.9,5.7-2.7l3.1,3.5c-1,1.3-2.2,2.4-3.9,3.2C191.1,216.4,189.3,216.8,187.3,216.8z M186.6,197.3c-1.3,0-2.3,0.4-3.1,1.3
		c-0.8,0.9-1.3,2.1-1.5,3.7h8.8v-0.5c0-1.4-0.4-2.5-1.1-3.3S187.9,197.3,186.6,197.3z"/>
	<path d="M213.6,209.8c0-0.8-0.4-1.4-1.2-1.8c-0.8-0.4-2-0.8-3.7-1.2c-5.7-1.2-8.5-3.6-8.5-7.2c0-2.1,0.9-3.9,2.6-5.3
		c1.8-1.4,4-2.1,6.9-2.1c3,0,5.4,0.7,7.2,2.1c1.8,1.4,2.7,3.3,2.7,5.5h-6.4c0-0.9-0.3-1.7-0.9-2.3c-0.6-0.6-1.5-0.9-2.7-0.9
		c-1.1,0-1.9,0.2-2.5,0.7s-0.9,1.1-0.9,1.8c0,0.7,0.3,1.3,1,1.7c0.7,0.4,1.8,0.8,3.4,1.1s2.9,0.7,4,1.1c3.4,1.2,5,3.4,5,6.4
		c0,2.2-0.9,3.9-2.8,5.3c-1.9,1.3-4.3,2-7.2,2c-2,0-3.8-0.4-5.3-1.1c-1.5-0.7-2.8-1.7-3.6-2.9c-0.9-1.2-1.3-2.6-1.3-4h6
		c0.1,1.1,0.5,2,1.3,2.6s1.8,0.9,3.1,0.9c1.2,0,2.1-0.2,2.8-0.7C213.2,211.2,213.6,210.6,213.6,209.8z"/>
	<path d="M223.8,186.5c0-1,0.3-1.7,1-2.4c0.6-0.6,1.5-0.9,2.6-0.9c1.1,0,1.9,0.3,2.6,0.9s1,1.4,1,2.4c0,1-0.3,1.8-1,2.4
		c-0.7,0.6-1.5,0.9-2.6,0.9s-1.9-0.3-2.6-0.9C224.1,188.2,223.8,187.4,223.8,186.5z M230.5,216.4h-6.4v-23.8h6.4V216.4z"/>
	<path d="M243.4,186.8v5.8h4.1v4.7h-4.1v11.9c0,0.9,0.2,1.5,0.5,1.9s1,0.6,1.9,0.6c0.7,0,1.3-0.1,1.9-0.2v4.8
		c-1.2,0.4-2.5,0.6-3.8,0.6c-4.5,0-6.7-2.2-6.8-6.7v-12.8h-3.5v-4.7h3.5v-5.8H243.4z"/>
	<path d="M264.7,216.4c-0.3-0.6-0.5-1.3-0.6-2.1c-1.5,1.7-3.5,2.6-6,2.6c-2.3,0-4.3-0.7-5.8-2c-1.5-1.3-2.3-3-2.3-5.1
		c0-2.5,0.9-4.5,2.8-5.8c1.9-1.3,4.6-2,8.1-2h2.9v-1.4c0-1.1-0.3-2-0.8-2.6c-0.6-0.7-1.5-1-2.7-1c-1.1,0-1.9,0.3-2.5,0.8
		c-0.6,0.5-0.9,1.2-0.9,2.1h-6.4c0-1.4,0.4-2.7,1.3-3.8s2.1-2.1,3.6-2.8s3.3-1,5.2-1c2.9,0,5.3,0.7,7,2.2c1.7,1.5,2.6,3.5,2.6,6.2
		v10.3c0,2.3,0.3,4,0.9,5.1v0.4H264.7z M259.5,212c0.9,0,1.8-0.2,2.6-0.6c0.8-0.4,1.4-1,1.8-1.7v-4.1h-2.4c-3.2,0-4.9,1.1-5.1,3.3
		l0,0.4c0,0.8,0.3,1.4,0.8,2S258.5,212,259.5,212z"/>
	<path d="M288,209.8c0-0.8-0.4-1.4-1.2-1.8c-0.8-0.4-2-0.8-3.7-1.2c-5.7-1.2-8.5-3.6-8.5-7.2c0-2.1,0.9-3.9,2.6-5.3
		c1.8-1.4,4-2.1,6.9-2.1c3,0,5.4,0.7,7.2,2.1c1.8,1.4,2.7,3.3,2.7,5.5h-6.4c0-0.9-0.3-1.7-0.9-2.3c-0.6-0.6-1.5-0.9-2.7-0.9
		c-1.1,0-1.9,0.2-2.5,0.7s-0.9,1.1-0.9,1.8c0,0.7,0.3,1.3,1,1.7c0.7,0.4,1.8,0.8,3.4,1.1s2.9,0.7,4,1.1c3.4,1.2,5,3.4,5,6.4
		c0,2.2-0.9,3.9-2.8,5.3c-1.9,1.3-4.3,2-7.2,2c-2,0-3.8-0.4-5.3-1.1c-1.5-0.7-2.8-1.7-3.6-2.9c-0.9-1.2-1.3-2.6-1.3-4h6
		c0.1,1.1,0.5,2,1.3,2.6s1.8,0.9,3.1,0.9c1.2,0,2.1-0.2,2.8-0.7C287.6,211.2,288,210.6,288,209.8z"/>
	<path d="M323.2,216.4c-0.3-0.6-0.5-1.3-0.6-2.1c-1.5,1.7-3.5,2.6-6,2.6c-2.3,0-4.3-0.7-5.8-2c-1.5-1.3-2.3-3-2.3-5.1
		c0-2.5,0.9-4.5,2.8-5.8c1.9-1.3,4.6-2,8.1-2h2.9v-1.4c0-1.1-0.3-2-0.8-2.6c-0.6-0.7-1.5-1-2.7-1c-1.1,0-1.9,0.3-2.5,0.8
		c-0.6,0.5-0.9,1.2-0.9,2.1H309c0-1.4,0.4-2.7,1.3-3.8s2.1-2.1,3.6-2.8s3.3-1,5.2-1c2.9,0,5.3,0.7,7,2.2c1.7,1.5,2.6,3.5,2.6,6.2
		v10.3c0,2.3,0.3,4,0.9,5.1v0.4H323.2z M318,212c0.9,0,1.8-0.2,2.6-0.6c0.8-0.4,1.4-1,1.8-1.7v-4.1h-2.4c-3.2,0-4.9,1.1-5.1,3.3
		l0,0.4c0,0.8,0.3,1.4,0.8,2S317,212,318,212z"/>
	<path d="M342.1,207.4l4.4-14.8h6.8l-9.6,27.5l-0.5,1.3c-1.4,3.1-3.8,4.7-7,4.7c-0.9,0-1.9-0.1-2.8-0.4v-4.8l1,0
		c1.2,0,2.1-0.2,2.7-0.5s1.1-1,1.4-1.8l0.7-2l-8.3-23.8h6.8L342.1,207.4z"/>
	<path d="M370,214c-1.6,1.9-3.7,2.9-6.5,2.9c-2.5,0-4.5-0.7-5.8-2.2c-1.3-1.5-2-3.6-2.1-6.4v-15.6h6.3V208c0,2.5,1.1,3.7,3.4,3.7
		c2.2,0,3.6-0.7,4.4-2.2v-16.9h6.4v23.8h-6L370,214z"/>
	<path d="M380,204.3c0-3.7,0.8-6.7,2.5-8.9c1.7-2.2,3.9-3.3,6.8-3.3c2.3,0,4.2,0.9,5.7,2.6v-12.1h6.4v33.8h-5.7l-0.3-2.5
		c-1.6,2-3.6,3-6.1,3c-2.8,0-5-1.1-6.7-3.3C380.8,211.3,380,208.2,380,204.3z M386.4,204.8c0,2.2,0.4,3.9,1.2,5.1
		c0.8,1.2,1.9,1.8,3.4,1.8c2,0,3.3-0.8,4.2-2.5v-9.4c-0.8-1.7-2.2-2.5-4.1-2.5C387.9,197.3,386.4,199.8,386.4,204.8z"/>
	<path d="M420.1,216.4c-0.3-0.6-0.5-1.3-0.6-2.1c-1.5,1.7-3.5,2.6-6,2.6c-2.3,0-4.3-0.7-5.8-2c-1.5-1.3-2.3-3-2.3-5.1
		c0-2.5,0.9-4.5,2.8-5.8c1.9-1.3,4.6-2,8.1-2h2.9v-1.4c0-1.1-0.3-2-0.8-2.6c-0.6-0.7-1.5-1-2.7-1c-1.1,0-1.9,0.3-2.5,0.8
		c-0.6,0.5-0.9,1.2-0.9,2.1h-6.3c0-1.4,0.4-2.7,1.3-3.8s2.1-2.1,3.6-2.8s3.3-1,5.2-1c2.9,0,5.3,0.7,7,2.2c1.7,1.5,2.6,3.5,2.6,6.2
		v10.3c0,2.3,0.3,4,0.9,5.1v0.4H420.1z M414.9,212c0.9,0,1.8-0.2,2.6-0.6c0.8-0.4,1.4-1,1.8-1.7v-4.1h-2.4c-3.2,0-4.9,1.1-5.1,3.3
		l0,0.4c0,0.8,0.3,1.4,0.8,2C413.1,211.7,413.9,212,414.9,212z"/>
	<path d="M110.3,261.4c-0.3-0.6-0.5-1.3-0.6-2.1c-1.5,1.7-3.5,2.6-6,2.6c-2.3,0-4.3-0.7-5.8-2c-1.5-1.3-2.3-3-2.3-5.1
		c0-2.5,0.9-4.5,2.8-5.8c1.9-1.3,4.6-2,8.1-2h2.9v-1.4c0-1.1-0.3-2-0.8-2.6c-0.6-0.7-1.5-1-2.7-1c-1.1,0-1.9,0.3-2.5,0.8
		c-0.6,0.5-0.9,1.2-0.9,2.1h-6.3c0-1.4,0.4-2.7,1.3-3.8s2.1-2.1,3.6-2.8s3.3-1,5.2-1c2.9,0,5.3,0.7,7,2.2c1.7,1.5,2.6,3.5,2.6,6.2
		v10.3c0,2.3,0.3,4,0.9,5.1v0.4H110.3z M105.1,257c0.9,0,1.8-0.2,2.6-0.6c0.8-0.4,1.4-1,1.8-1.7v-4.1H107c-3.2,0-4.9,1.1-5.1,3.3
		l0,0.4c0,0.8,0.3,1.4,0.8,2S104.1,257,105.1,257z"/>
	<path d="M119.7,249.3c0-3.7,0.8-6.7,2.5-8.9c1.7-2.2,3.9-3.3,6.8-3.3c2.3,0,4.2,0.9,5.7,2.6v-12.1h6.4v33.8h-5.7l-0.3-2.5
		c-1.6,2-3.6,3-6.1,3c-2.8,0-5-1.1-6.7-3.3C120.5,256.3,119.7,253.2,119.7,249.3z M126,249.8c0,2.2,0.4,3.9,1.2,5.1
		c0.8,1.2,1.9,1.8,3.4,1.8c2,0,3.3-0.8,4.2-2.5v-9.4c-0.8-1.7-2.2-2.5-4.1-2.5C127.6,242.3,126,244.8,126,249.8z"/>
	<path d="M152,237.6l0.2,2.7c1.7-2.1,4-3.1,6.8-3.1c3.1,0,5.2,1.2,6.3,3.6c1.7-2.4,4.1-3.6,7.1-3.6c2.6,0,4.5,0.8,5.8,2.3
		c1.3,1.5,1.9,3.8,1.9,6.8v15.2h-6.4v-15.2c0-1.3-0.3-2.3-0.8-3s-1.5-0.9-2.8-0.9c-1.9,0-3.2,0.9-4,2.7l0,16.3h-6.4v-15.1
		c0-1.4-0.3-2.4-0.8-3s-1.5-0.9-2.8-0.9c-1.8,0-3.1,0.7-3.9,2.2v16.8H146v-23.8H152z"/>
	<path d="M184.9,231.5c0-1,0.3-1.7,1-2.4c0.6-0.6,1.5-0.9,2.6-0.9c1.1,0,1.9,0.3,2.6,0.9s1,1.4,1,2.4c0,1-0.3,1.8-1,2.4
		c-0.7,0.6-1.5,0.9-2.6,0.9s-1.9-0.3-2.6-0.9C185.3,233.2,184.9,232.4,184.9,231.5z M191.7,261.4h-6.4v-23.8h6.4V261.4z"/>
	<path d="M202.8,237.6l0.2,2.7c1.7-2.1,4-3.2,6.8-3.2c2.5,0,4.4,0.7,5.6,2.2s1.9,3.7,1.9,6.6v15.4H211v-15.2c0-1.3-0.3-2.3-0.9-2.9
		c-0.6-0.6-1.6-0.9-2.9-0.9c-1.8,0-3.1,0.8-4,2.3v16.8h-6.4v-23.8H202.8z"/>
	<path d="M222.1,231.5c0-1,0.3-1.7,1-2.4c0.6-0.6,1.5-0.9,2.6-0.9c1.1,0,1.9,0.3,2.6,0.9s1,1.4,1,2.4c0,1-0.3,1.8-1,2.4
		c-0.7,0.6-1.5,0.9-2.6,0.9s-1.9-0.3-2.6-0.9C222.4,233.2,222.1,232.4,222.1,231.5z M228.8,261.4h-6.4v-23.8h6.4V261.4z"/>
	<path d="M246.9,254.8c0-0.8-0.4-1.4-1.2-1.8c-0.8-0.4-2-0.8-3.7-1.2c-5.7-1.2-8.5-3.6-8.5-7.2c0-2.1,0.9-3.9,2.6-5.3
		c1.8-1.4,4-2.1,6.9-2.1c3,0,5.4,0.7,7.2,2.1c1.8,1.4,2.7,3.3,2.7,5.5h-6.3c0-0.9-0.3-1.7-0.9-2.3c-0.6-0.6-1.5-0.9-2.7-0.9
		c-1.1,0-1.9,0.2-2.5,0.7s-0.9,1.1-0.9,1.8c0,0.7,0.3,1.3,1,1.7c0.7,0.4,1.8,0.8,3.4,1.1s2.9,0.7,4,1.1c3.4,1.2,5,3.4,5,6.4
		c0,2.2-0.9,3.9-2.8,5.3c-1.9,1.3-4.3,2-7.2,2c-2,0-3.8-0.4-5.3-1.1c-1.5-0.7-2.8-1.7-3.6-2.9c-0.9-1.2-1.3-2.6-1.3-4h6
		c0.1,1.1,0.5,2,1.3,2.6s1.8,0.9,3.1,0.9c1.2,0,2.1-0.2,2.8-0.7C246.6,256.2,246.9,255.6,246.9,254.8z"/>
	<path d="M264.8,231.8v5.8h4.1v4.7h-4.1v11.9c0,0.9,0.2,1.5,0.5,1.9s1,0.6,1.9,0.6c0.7,0,1.3-0.1,1.9-0.2v4.8
		c-1.2,0.4-2.5,0.6-3.8,0.6c-4.5,0-6.7-2.2-6.8-6.7v-12.8H255v-4.7h3.5v-5.8H264.8z"/>
	<path d="M285.8,243.6c-0.9-0.1-1.6-0.2-2.3-0.2c-2.4,0-4,0.8-4.7,2.4v15.6h-6.3v-23.8h6l0.2,2.8c1.3-2.2,3-3.3,5.3-3.3
		c0.7,0,1.4,0.1,2,0.3L285.8,243.6z"/>
	<path d="M301.9,261.4c-0.3-0.6-0.5-1.3-0.6-2.1c-1.5,1.7-3.5,2.6-6,2.6c-2.3,0-4.3-0.7-5.8-2c-1.5-1.3-2.3-3-2.3-5.1
		c0-2.5,0.9-4.5,2.8-5.8c1.9-1.3,4.6-2,8.1-2h2.9v-1.4c0-1.1-0.3-2-0.8-2.6c-0.6-0.7-1.5-1-2.7-1c-1.1,0-1.9,0.3-2.5,0.8
		c-0.6,0.5-0.9,1.2-0.9,2.1h-6.3c0-1.4,0.4-2.7,1.3-3.8s2.1-2.1,3.6-2.8s3.3-1,5.2-1c2.9,0,5.3,0.7,7,2.2c1.7,1.5,2.6,3.5,2.6,6.2
		v10.3c0,2.3,0.3,4,0.9,5.1v0.4H301.9z M296.7,257c0.9,0,1.8-0.2,2.6-0.6c0.8-0.4,1.4-1,1.8-1.7v-4.1h-2.4c-3.2,0-4.9,1.1-5.1,3.3
		l0,0.4c0,0.8,0.3,1.4,0.8,2S295.7,257,296.7,257z"/>
	<path d="M319.9,231.8v5.8h4.1v4.7h-4.1v11.9c0,0.9,0.2,1.5,0.5,1.9s1,0.6,1.9,0.6c0.7,0,1.3-0.1,1.9-0.2v4.8
		c-1.2,0.4-2.5,0.6-3.8,0.6c-4.5,0-6.7-2.2-6.8-6.7v-12.8h-3.5v-4.7h3.5v-5.8H319.9z"/>
	<path d="M327.4,231.5c0-1,0.3-1.7,1-2.4c0.6-0.6,1.5-0.9,2.6-0.9c1.1,0,1.9,0.3,2.6,0.9c0.6,0.6,1,1.4,1,2.4c0,1-0.3,1.8-1,2.4
		s-1.5,0.9-2.6,0.9s-1.9-0.3-2.6-0.9C327.8,233.2,327.4,232.4,327.4,231.5z M334.2,261.4h-6.4v-23.8h6.4V261.4z"/>
	<path d="M348.3,253.6l4.4-16h6.6l-8,23.8h-6.1l-8-23.8h6.6L348.3,253.6z"/>
	<path d="M375.6,261.4c-0.3-0.6-0.5-1.3-0.6-2.1c-1.5,1.7-3.5,2.6-6,2.6c-2.3,0-4.3-0.7-5.8-2c-1.5-1.3-2.3-3-2.3-5.1
		c0-2.5,0.9-4.5,2.8-5.8c1.9-1.3,4.6-2,8.1-2h2.9v-1.4c0-1.1-0.3-2-0.8-2.6c-0.6-0.7-1.5-1-2.7-1c-1.1,0-1.9,0.3-2.5,0.8
		c-0.6,0.5-0.9,1.2-0.9,2.1h-6.3c0-1.4,0.4-2.7,1.3-3.8s2.1-2.1,3.6-2.8s3.3-1,5.2-1c2.9,0,5.3,0.7,7,2.2c1.7,1.5,2.6,3.5,2.6,6.2
		v10.3c0,2.3,0.3,4,0.9,5.1v0.4H375.6z M370.3,257c0.9,0,1.8-0.2,2.6-0.6c0.8-0.4,1.4-1,1.8-1.7v-4.1h-2.4c-3.2,0-4.9,1.1-5.1,3.3
		l0,0.4c0,0.8,0.3,1.4,0.8,2C368.6,256.7,369.4,257,370.3,257z"/>
	<path d="M391.1,251.6c0-2.1,0.2-3.7,0.7-4.9c0.5-1.2,1.4-2.4,2.7-3.6c1.3-1.2,2.2-2.1,2.6-2.9c0.4-0.7,0.7-1.5,0.7-2.3
		c0-2.5-1.1-3.7-3.4-3.7c-1.1,0-2,0.3-2.6,1c-0.7,0.7-1,1.6-1,2.8h-6.4c0-2.8,0.9-5,2.7-6.6c1.8-1.6,4.2-2.4,7.3-2.4
		c3.1,0,5.5,0.8,7.2,2.3c1.7,1.5,2.6,3.6,2.6,6.4c0,1.2-0.3,2.4-0.8,3.5s-1.5,2.3-2.9,3.7l-1.8,1.7c-1.1,1.1-1.8,2.3-1.9,3.8
		l-0.1,1.3H391.1z M390.5,258.3c0-1,0.3-1.8,1-2.4c0.7-0.6,1.5-1,2.6-1s1.9,0.3,2.6,1c0.7,0.6,1,1.4,1,2.4c0,1-0.3,1.8-1,2.4
		c-0.7,0.6-1.5,0.9-2.6,0.9s-1.9-0.3-2.6-0.9C390.8,260.1,390.5,259.3,390.5,258.3z"/>
</g>
</svg>
