<?xml version="1.0" encoding="utf-8"?>
<!-- Generator: Adobe Illustrator 25.2.1, SVG Export Plug-In . SVG Version: 6.00 Build 0)  -->
<!DOCTYPE svg PUBLIC "-//W3C//DTD SVG 1.1//EN" "http://www.w3.org/Graphics/SVG/1.1/DTD/svg11.dtd" [
	<!ENTITY ns_extend "http://ns.adobe.com/Extensibility/1.0/">
	<!ENTITY ns_ai "http://ns.adobe.com/AdobeIllustrator/10.0/">
	<!ENTITY ns_graphs "http://ns.adobe.com/Graphs/1.0/">
	<!ENTITY ns_vars "http://ns.adobe.com/Variables/1.0/">
	<!ENTITY ns_imrep "http://ns.adobe.com/ImageReplacement/1.0/">
	<!ENTITY ns_sfw "http://ns.adobe.com/SaveForWeb/1.0/">
	<!ENTITY ns_custom "http://ns.adobe.com/GenericCustomNamespace/1.0/">
	<!ENTITY ns_adobe_xpath "http://ns.adobe.com/XPath/1.0/">
]>
<svg version="1.1" id="Capa_1" xmlns:x="&ns_extend;" xmlns:i="&ns_ai;" xmlns:graph="&ns_graphs;"
	 xmlns="http://www.w3.org/2000/svg" xmlns:xlink="http://www.w3.org/1999/xlink" x="0px" y="0px" viewBox="0 0 924 223.4"
	 style="enable-background:new 0 0 924 223.4;" xml:space="preserve">
<style type="text/css">
	.st0{fill:#FFFFFF;}
	.st1{enable-background:new    ;}
	.st2{fill:url(#SVGID_1_);}
</style>
<metadata>
	<sfw  xmlns="&ns_sfw;">
		<slices></slices>
		<sliceSourceBounds  bottomLeftOrigin="true" height="1158.6" width="1918.6" x="21.5" y="-137.7"></sliceSourceBounds>
	</sfw>
</metadata>
<g>
	<text transform="matrix(1 0 0 1 1187.0381 -691.8856)" style="font-family:'Roboto-Bold'; font-size:49px;">¿Buscás algún concepto clave?</text>
	<text transform="matrix(1 0 0 1 1376.938 -633.0856)" style="font-family:'Roboto-Regular'; font-size:49px;">Hacé clic aquí</text>
</g>
<text transform="matrix(1 0 0 1 1187.0381 -366.3151)" style="font-family:'Roboto-Bold'; font-size:49px;">¿Buscás algún concepto clave?</text>
<text transform="matrix(1 0 0 1 1187.0381 -229.2032)" style="font-family:'Roboto-Bold'; font-size:49px;">Te esperamos en</text>
<text transform="matrix(1 0 0 1 307.3 -417.4531)" style="font-family:'Roboto-Bold'; font-size:49px;">Te esperamos en</text>
<g>
	<path class="st0" d="M855.5,26.7c25.4,0,46,20.6,46,46v81c0,25.4-20.6,46-46,46h-784c-25.4,0-46-20.6-46-46v-81
		c0-25.4,20.6-46,46-46L855.5,26.7 M855.5,22.7h-784c-27.6,0-50,22.4-50,50v81c0,27.6,22.4,50,50,50h784c27.6,0,50-22.4,50-50v-81
		C905.5,45.1,883.2,22.7,855.5,22.7L855.5,22.7z"/>
</g>
<g>
	<path class="st0" d="M855.5-261.3c25.4,0,46,20.6,46,46v81c0,25.4-20.6,46-46,46h-784c-25.4,0-46-20.6-46-46v-81
		c0-25.4,20.6-46,46-46H855.5 M855.5-265.3h-784c-27.6,0-50,22.4-50,50v81c0,27.6,22.4,50,50,50h784c27.6,0,50-22.4,50-50v-81
		C905.5-242.9,883.2-265.3,855.5-265.3L855.5-265.3z"/>
</g>
<g>
	<path class="st0" d="M855.5-519.7c25.4,0,46,20.6,46,46v81c0,25.4-20.6,46-46,46h-784c-25.4,0-46-20.6-46-46v-81
		c0-25.4,20.6-46,46-46H855.5 M855.5-523.7h-784c-27.6,0-50,22.4-50,50v81c0,27.6,22.4,50,50,50h784c27.6,0,50-22.4,50-50v-81
		C905.5-501.3,883.2-523.7,855.5-523.7L855.5-523.7z"/>
</g>
<g>
	<g class="st1">
		<path d="M180.9-728.3c0,2.1-0.2,3.8-0.7,5.1s-1.4,2.6-2.6,3.7c-1.3,1.2-2.1,2.1-2.6,2.6c-0.5,0.6-0.8,1.2-1,1.7
			c-0.2,0.6-0.3,1.2-0.3,1.9c0,2.5,1.2,3.8,3.7,3.8c1.2,0,2.2-0.4,2.9-1.1c0.7-0.7,1.1-1.7,1.1-3h6.9c0,3.1-1,5.5-2.9,7.2
			s-4.6,2.6-7.9,2.6c-3.4,0-6-0.8-7.9-2.4c-1.9-1.6-2.8-3.9-2.8-6.9c0-2.5,1.2-5,3.7-7.5l2.3-2.2c0.8-0.7,1.4-1.5,1.7-2.3
			s0.5-1.9,0.5-3.3h5.9L180.9-728.3L180.9-728.3z M181.8-735.6c0,1.1-0.4,1.9-1.1,2.6c-0.7,0.7-1.7,1-2.8,1s-2-0.3-2.8-1
			c-0.7-0.7-1.1-1.6-1.1-2.6c0-1.1,0.4-1.9,1.1-2.6s1.6-1,2.8-1s2.1,0.3,2.8,1C181.4-737.6,181.8-736.7,181.8-735.6z"/>
		<path d="M192.5-712.9v-34.8h12.2c4.2,0,7.4,0.8,9.6,2.4c2.2,1.6,3.3,4,3.3,7.1c0,1.7-0.4,3.2-1.3,4.5s-2.1,2.3-3.7,2.9
			c1.8,0.4,3.2,1.3,4.2,2.7s1.5,3,1.5,5c0,3.3-1.1,5.9-3.2,7.6c-2.1,1.7-5.2,2.6-9.1,2.6H192.5z M199.6-733.1h5.3
			c3.6-0.1,5.4-1.5,5.4-4.3c0-1.6-0.5-2.7-1.4-3.4s-2.4-1-4.3-1h-5V-733.1z M199.6-728.1v9.4h6.1c1.7,0,3-0.4,4-1.2
			c0.9-0.8,1.4-1.9,1.4-3.3c0-3.2-1.7-4.8-5-4.9H199.6z"/>
		<path d="M238.8-715.5c-1.7,2.1-4.1,3.1-7.1,3.1c-2.8,0-4.9-0.8-6.4-2.4c-1.5-1.6-2.2-3.9-2.2-7v-17h6.9v16.7c0,2.7,1.2,4,3.7,4
			c2.3,0,4-0.8,4.8-2.4v-18.3h6.9v25.9H239L238.8-715.5z"/>
		<path d="M264.7-720.1c0-0.8-0.4-1.5-1.3-2c-0.8-0.5-2.2-0.9-4-1.3c-6.2-1.3-9.2-3.9-9.2-7.8c0-2.3,1-4.2,2.9-5.8
			c1.9-1.5,4.4-2.3,7.5-2.3c3.3,0,5.9,0.8,7.9,2.3s3,3.6,3,6h-6.9c0-1-0.3-1.8-1-2.5c-0.6-0.6-1.6-1-3-1c-1.2,0-2.1,0.3-2.7,0.8
			s-1,1.2-1,2s0.4,1.4,1.1,1.9s1.9,0.9,3.7,1.2s3.2,0.7,4.4,1.2c3.7,1.3,5.5,3.7,5.5,7c0,2.4-1,4.3-3,5.7c-2,1.5-4.6,2.2-7.8,2.2
			c-2.2,0-4.1-0.4-5.8-1.2s-3-1.8-4-3.2c-1-1.3-1.4-2.8-1.4-4.4h6.6c0.1,1.2,0.5,2.2,1.4,2.8s2,1,3.4,1c1.3,0,2.3-0.3,3-0.8
			C264.4-718.6,264.7-719.2,264.7-720.1z"/>
		<path d="M286.6-718c1.3,0,2.3-0.4,3.1-1.1c0.8-0.7,1.2-1.6,1.2-2.8h6.5c0,1.8-0.5,3.4-1.4,4.8c-0.9,1.5-2.2,2.6-3.9,3.4
			c-1.6,0.8-3.4,1.2-5.4,1.2c-3.7,0-6.6-1.2-8.8-3.5c-2.1-2.4-3.2-5.6-3.2-9.8v-0.4c0-4,1.1-7.2,3.2-9.5c2.1-2.4,5-3.6,8.7-3.6
			c3.2,0,5.8,0.9,7.8,2.8c2,1.8,2.9,4.3,3,7.4H291c0-1.3-0.4-2.4-1.2-3.3c-0.8-0.8-1.9-1.3-3.2-1.3c-1.6,0-2.8,0.6-3.6,1.8
			c-0.8,1.2-1.2,3.1-1.2,5.7v0.7c0,2.7,0.4,4.6,1.2,5.8C283.8-718.6,285-718,286.6-718z"/>
		<path d="M316.4-712.9c-0.3-0.6-0.5-1.4-0.7-2.3c-1.7,1.9-3.9,2.8-6.5,2.8c-2.5,0-4.6-0.7-6.3-2.2c-1.7-1.5-2.5-3.3-2.5-5.6
			c0-2.7,1-4.8,3.1-6.3c2-1.5,5-2.2,8.8-2.2h3.2v-1.5c0-1.2-0.3-2.2-0.9-2.9s-1.6-1.1-2.9-1.1c-1.2,0-2.1,0.3-2.7,0.8
			c-0.7,0.6-1,1.3-1,2.3h-7c0-1.5,0.5-2.9,1.4-4.2s2.2-2.3,3.9-3c1.7-0.7,3.6-1.1,5.7-1.1c3.2,0,5.7,0.8,7.6,2.4s2.8,3.9,2.8,6.8
			v11.2c0,2.5,0.4,4.3,1,5.6v0.4L316.4-712.9L316.4-712.9z M310.7-717.7c1,0,2-0.2,2.8-0.7c0.9-0.5,1.5-1.1,1.9-1.8v-4.5h-2.6
			c-3.5,0-5.3,1.2-5.5,3.6v0.4c0,0.9,0.3,1.6,0.9,2.1C308.8-718,309.7-717.7,310.7-717.7z M313.3-749.7h7.5l-6.6,7.4h-5.6
			L313.3-749.7z"/>
		<path d="M341.7-720.1c0-0.8-0.4-1.5-1.3-2c-0.8-0.5-2.2-0.9-4-1.3c-6.2-1.3-9.2-3.9-9.2-7.8c0-2.3,1-4.2,2.9-5.8
			c1.9-1.5,4.4-2.3,7.5-2.3c3.3,0,5.9,0.8,7.9,2.3s3,3.6,3,6h-6.9c0-1-0.3-1.8-1-2.5c-0.6-0.6-1.6-1-3-1c-1.2,0-2.1,0.3-2.7,0.8
			s-1,1.2-1,2s0.4,1.4,1.1,1.9s2,0.9,3.7,1.2s3.2,0.7,4.4,1.2c3.7,1.3,5.5,3.7,5.5,7c0,2.4-1,4.3-3,5.7c-2,1.5-4.6,2.2-7.8,2.2
			c-2.2,0-4.1-0.4-5.8-1.2s-3-1.8-4-3.2c-1-1.3-1.4-2.8-1.4-4.4h6.6c0.1,1.2,0.5,2.2,1.4,2.8c0.8,0.7,2,1,3.4,1c1.3,0,2.3-0.3,3-0.8
			C341.4-718.6,341.7-719.2,341.7-720.1z"/>
		<path d="M380.1-712.9c-0.3-0.6-0.6-1.4-0.7-2.3c-1.7,1.9-3.9,2.8-6.5,2.8c-2.5,0-4.6-0.7-6.3-2.2s-2.5-3.3-2.5-5.6
			c0-2.7,1-4.8,3.1-6.3c2-1.5,5-2.2,8.8-2.2h3.2v-1.5c0-1.2-0.3-2.2-0.9-2.9s-1.6-1.1-2.9-1.1c-1.2,0-2.1,0.3-2.7,0.8
			c-0.7,0.6-1,1.3-1,2.3h-6.9c0-1.5,0.5-2.9,1.4-4.2s2.2-2.3,3.9-3c1.7-0.7,3.6-1.1,5.7-1.1c3.2,0,5.7,0.8,7.6,2.4s2.8,3.9,2.8,6.8
			v11.2c0,2.5,0.4,4.3,1,5.6v0.4L380.1-712.9L380.1-712.9z M374.4-717.7c1,0,2-0.2,2.8-0.7c0.9-0.5,1.5-1.1,1.9-1.8v-4.5h-2.6
			c-3.5,0-5.3,1.2-5.5,3.6v0.4c0,0.9,0.3,1.6,0.9,2.1S373.3-717.7,374.4-717.7z"/>
		<path d="M398.7-712.9h-6.9v-36.8h6.9V-712.9z"/>
		<path d="M403.4-726c0-4,0.9-7.2,2.8-9.6c1.9-2.4,4.4-3.6,7.6-3.6c2.8,0,5,1,6.6,2.9l0.3-2.4h6.3v25c0,2.3-0.5,4.2-1.5,5.9
			s-2.5,3-4.3,3.8c-1.9,0.9-4.1,1.3-6.6,1.3c-1.9,0-3.7-0.4-5.6-1.1c-1.9-0.7-3.2-1.7-4.1-2.9l3.1-4.2c1.7,1.9,3.8,2.9,6.3,2.9
			c1.8,0,3.3-0.5,4.3-1.5s1.5-2.4,1.5-4.2v-1.4c-1.6,1.8-3.7,2.7-6.3,2.7c-3.1,0-5.6-1.2-7.5-3.6s-2.9-5.7-2.9-9.7L403.4-726
			L403.4-726z M410.3-725.5c0,2.3,0.5,4.2,1.4,5.5s2.2,2,3.9,2c2.1,0,3.6-0.8,4.5-2.4v-10.9c-0.9-1.6-2.4-2.4-4.5-2.4
			c-1.7,0-3,0.7-3.9,2C410.7-730.3,410.3-728.2,410.3-725.5z"/>
		<path d="M447.8-715.5c-1.7,2.1-4.1,3.1-7.1,3.1c-2.8,0-4.9-0.8-6.4-2.4c-1.5-1.6-2.2-3.9-2.2-7v-17h6.9v16.7c0,2.7,1.2,4,3.7,4
			c2.3,0,4-0.8,4.8-2.4v-18.3h6.9v25.9H448L447.8-715.5z M444.7-749.7h7.5l-6.6,7.4H440L444.7-749.7z"/>
		<path d="M466.1-738.8l0.2,3c1.8-2.3,4.3-3.5,7.4-3.5c2.7,0,4.8,0.8,6.1,2.4c1.3,1.6,2,4,2.1,7.2v16.7H475v-16.5
			c0-1.5-0.3-2.5-1-3.2c-0.6-0.7-1.7-1-3.2-1c-1.9,0-3.4,0.8-4.4,2.5v18.3h-6.9v-25.9H466.1z"/>
		<path d="M510.2-718c1.3,0,2.3-0.4,3.1-1.1c0.8-0.7,1.2-1.6,1.2-2.8h6.5c0,1.8-0.5,3.4-1.4,4.8c-0.9,1.5-2.2,2.6-3.9,3.4
			c-1.6,0.8-3.4,1.2-5.4,1.2c-3.7,0-6.6-1.2-8.8-3.5c-2.1-2.4-3.2-5.6-3.2-9.8v-0.4c0-4,1.1-7.2,3.2-9.5c2.1-2.4,5-3.6,8.7-3.6
			c3.2,0,5.8,0.9,7.8,2.8c2,1.8,2.9,4.3,3,7.4h-6.5c0-1.3-0.4-2.4-1.2-3.3c-0.8-0.8-1.9-1.3-3.2-1.3c-1.6,0-2.8,0.6-3.6,1.8
			c-0.8,1.2-1.2,3.1-1.2,5.7v0.7c0,2.7,0.4,4.6,1.2,5.8C507.3-718.6,508.5-718,510.2-718z"/>
		<path d="M523.9-726.1c0-2.6,0.5-4.9,1.5-6.9s2.4-3.6,4.3-4.7c1.9-1.1,4-1.7,6.5-1.7c3.5,0,6.3,1.1,8.6,3.2c2.2,2.1,3.4,5,3.7,8.7
			v1.8c0,4-1.1,7.2-3.3,9.6c-2.2,2.4-5.2,3.6-8.9,3.6s-6.7-1.2-8.9-3.6c-2.2-2.4-3.3-5.6-3.3-9.8v-0.2L523.9-726.1L523.9-726.1z
			 M530.8-725.6c0,2.5,0.5,4.3,1.4,5.6s2.2,2,4,2c1.7,0,3-0.6,3.9-1.9s1.4-3.3,1.4-6.2c0-2.4-0.5-4.3-1.4-5.6s-2.3-2-4-2
			s-3,0.7-3.9,2C531.2-730.4,530.8-728.4,530.8-725.6z"/>
		<path d="M559-738.8l0.2,3c1.9-2.3,4.3-3.5,7.4-3.5c2.7,0,4.8,0.8,6.1,2.4c1.3,1.6,2,4,2.1,7.2v16.7h-6.9v-16.5
			c0-1.5-0.3-2.5-1-3.2c-0.6-0.7-1.7-1-3.2-1c-1.9,0-3.4,0.8-4.4,2.5v18.3h-6.9v-25.9H559z"/>
		<path d="M590.9-718c1.3,0,2.3-0.4,3.1-1.1c0.8-0.7,1.2-1.6,1.2-2.8h6.5c0,1.8-0.5,3.4-1.4,4.8c-0.9,1.5-2.2,2.6-3.9,3.4
			c-1.6,0.8-3.4,1.2-5.4,1.2c-3.7,0-6.6-1.2-8.8-3.5c-2.1-2.4-3.2-5.6-3.2-9.8v-0.4c0-4,1.1-7.2,3.2-9.5c2.1-2.4,5-3.6,8.7-3.6
			c3.2,0,5.8,0.9,7.8,2.8c2,1.8,2.9,4.3,3,7.4h-6.5c0-1.3-0.4-2.4-1.2-3.3c-0.8-0.9-1.9-1.3-3.2-1.3c-1.6,0-2.8,0.6-3.6,1.8
			s-1.2,3.1-1.2,5.7v0.7c0,2.7,0.4,4.6,1.2,5.8C588-718.6,589.2-718,590.9-718z"/>
		<path d="M617.6-712.4c-3.8,0-6.9-1.2-9.3-3.5c-2.4-2.3-3.6-5.4-3.6-9.3v-0.7c0-2.6,0.5-4.9,1.5-7s2.4-3.6,4.3-4.7
			c1.8-1.1,3.9-1.7,6.3-1.7c3.5,0,6.3,1.1,8.4,3.3c2,2.2,3.1,5.4,3.1,9.5v2.8h-16.5c0.2,1.7,0.9,3,2,4.1c1.1,1,2.5,1.5,4.3,1.5
			c2.7,0,4.7-1,6.2-2.9l3.4,3.8c-1,1.5-2.4,2.6-4.2,3.4S619.7-712.4,617.6-712.4z M616.8-733.7c-1.4,0-2.5,0.5-3.3,1.4
			s-1.4,2.3-1.6,4h9.6v-0.6c0-1.5-0.4-2.7-1.2-3.6C619.4-733.3,618.2-733.7,616.8-733.7z"/>
		<path d="M655.4-725.6c0,4-0.9,7.2-2.7,9.6c-1.8,2.4-4.3,3.6-7.3,3.6c-2.6,0-4.7-0.9-6.3-2.7v12.2h-6.9v-35.9h6.4l0.2,2.5
			c1.7-2,3.9-3,6.6-3c3.2,0,5.7,1.2,7.4,3.5s2.7,5.6,2.7,9.8v0.4L655.4-725.6L655.4-725.6z M648.5-726.1c0-2.4-0.4-4.3-1.3-5.6
			c-0.9-1.3-2.1-2-3.7-2c-2.2,0-3.7,0.8-4.5,2.5v10.6c0.8,1.7,2.4,2.6,4.5,2.6C646.9-718,648.5-720.7,648.5-726.1z"/>
		<path d="M668-745.2v6.4h4.4v5.1H668v12.9c0,1,0.2,1.6,0.6,2.1c0.4,0.4,1.1,0.6,2.1,0.6c0.8,0,1.4-0.1,2-0.2v5.2
			c-1.4,0.4-2.8,0.6-4.2,0.6c-4.8,0-7.3-2.4-7.4-7.3v-13.9h-3.8v-5.1h3.8v-6.4L668-745.2L668-745.2z"/>
		<path d="M674.5-726.1c0-2.6,0.5-4.9,1.5-6.9s2.4-3.6,4.3-4.7c1.9-1.1,4-1.7,6.5-1.7c3.5,0,6.3,1.1,8.6,3.2s3.4,5,3.7,8.7v1.8
			c0,4-1.1,7.2-3.3,9.6c-2.2,2.4-5.2,3.6-8.9,3.6s-6.7-1.2-8.9-3.6c-2.2-2.4-3.3-5.6-3.3-9.8v-0.2L674.5-726.1L674.5-726.1z
			 M681.4-725.6c0,2.5,0.5,4.3,1.4,5.6s2.2,2,4,2c1.7,0,3-0.6,3.9-1.9s1.4-3.3,1.4-6.2c0-2.4-0.5-4.3-1.4-5.6s-2.3-2-4-2
			s-3,0.7-3.9,2S681.4-728.4,681.4-725.6z"/>
		<path d="M726.2-718c1.3,0,2.3-0.4,3.1-1.1c0.8-0.7,1.2-1.6,1.2-2.8h6.5c0,1.8-0.5,3.4-1.4,4.8c-0.9,1.5-2.2,2.6-3.9,3.4
			c-1.6,0.8-3.4,1.2-5.4,1.2c-3.7,0-6.6-1.2-8.8-3.5c-2.1-2.4-3.2-5.6-3.2-9.8v-0.4c0-4,1.1-7.2,3.2-9.5c2.1-2.4,5-3.6,8.7-3.6
			c3.2,0,5.8,0.9,7.8,2.8c2,1.8,2.9,4.3,3,7.4h-6.5c0-1.3-0.4-2.4-1.2-3.3c-0.8-0.9-1.9-1.3-3.2-1.3c-1.6,0-2.8,0.6-3.6,1.8
			s-1.2,3.1-1.2,5.7v0.7c0,2.7,0.4,4.6,1.2,5.8C723.3-718.6,724.6-718,726.2-718z"/>
		<path d="M748.3-712.9h-6.9v-36.8h6.9V-712.9z"/>
		<path d="M769-712.9c-0.3-0.6-0.5-1.4-0.7-2.3c-1.7,1.9-3.9,2.8-6.5,2.8c-2.5,0-4.6-0.7-6.3-2.2s-2.5-3.3-2.5-5.6
			c0-2.7,1-4.8,3.1-6.3c2-1.5,5-2.2,8.8-2.2h3.2v-1.5c0-1.2-0.3-2.2-0.9-2.9c-0.6-0.7-1.6-1.1-2.9-1.1c-1.2,0-2.1,0.3-2.7,0.8
			c-0.7,0.6-1,1.3-1,2.3h-6.9c0-1.5,0.5-2.9,1.4-4.2s2.2-2.3,3.9-3s3.6-1.1,5.7-1.1c3.2,0,5.7,0.8,7.6,2.4c1.9,1.6,2.8,3.9,2.8,6.8
			v11.2c0,2.5,0.4,4.3,1,5.6v0.4L769-712.9L769-712.9z M763.3-717.7c1,0,2-0.2,2.8-0.7c0.9-0.5,1.5-1.1,1.9-1.8v-4.5h-2.6
			c-3.5,0-5.3,1.2-5.5,3.6v0.4c0,0.9,0.3,1.6,0.9,2.1C761.4-718,762.2-717.7,763.3-717.7z"/>
		<path d="M789.6-721.3l4.8-17.4h7.2l-8.7,25.9h-6.6l-8.7-25.9h7.2L789.6-721.3z"/>
		<path d="M816.3-712.4c-3.8,0-6.9-1.2-9.3-3.5c-2.4-2.3-3.6-5.4-3.6-9.3v-0.7c0-2.6,0.5-4.9,1.5-7s2.4-3.6,4.3-4.7
			c1.8-1.1,3.9-1.7,6.3-1.7c3.5,0,6.3,1.1,8.4,3.3c2,2.2,3.1,5.4,3.1,9.5v2.8h-16.5c0.2,1.7,0.9,3,2,4.1c1.1,1,2.5,1.5,4.3,1.5
			c2.7,0,4.7-1,6.2-2.9l3.4,3.8c-1,1.5-2.4,2.6-4.2,3.4S818.4-712.4,816.3-712.4z M815.5-733.7c-1.4,0-2.5,0.5-3.3,1.4
			s-1.4,2.3-1.6,4h9.6v-0.6c0-1.5-0.4-2.7-1.2-3.6C818.1-733.3,817-733.7,815.5-733.7z"/>
		<path d="M836.5-723.6c0-2.2,0.3-4,0.8-5.3s1.5-2.6,3-3.9c1.4-1.3,2.4-2.3,2.9-3.1s0.7-1.7,0.7-2.6c0-2.7-1.2-4-3.7-4
			c-1.2,0-2.1,0.4-2.8,1.1s-1.1,1.7-1.1,3h-6.9c0-3,1-5.4,3-7.2c1.9-1.7,4.6-2.6,7.9-2.6c3.4,0,6,0.8,7.9,2.5s2.8,3.9,2.8,6.9
			c0,1.4-0.3,2.6-0.9,3.8c-0.6,1.2-1.7,2.5-3.2,4l-1.9,1.8c-1.2,1.2-1.9,2.5-2.1,4.1l-0.1,1.5C842.8-723.6,836.5-723.6,836.5-723.6z
			 M835.8-716.2c0-1.1,0.4-1.9,1.1-2.6c0.7-0.7,1.7-1,2.8-1s2.1,0.3,2.8,1s1.1,1.6,1.1,2.6s-0.4,1.9-1.1,2.6c-0.7,0.7-1.6,1-2.8,1
			s-2.1-0.3-2.8-1C836.2-714.3,835.8-715.2,835.8-716.2z"/>
	</g>
	<g class="st1">
		<path d="M385.7-654.1h-4.6v-16.1h-17.6v16.1h-4.6v-34.8h4.6v15h17.6v-15h4.6V-654.1z"/>
		<path d="M409.1-654.1c-0.3-0.5-0.5-1.4-0.6-2.7c-2.1,2.1-4.5,3.2-7.4,3.2c-2.6,0-4.6-0.7-6.3-2.2c-1.6-1.4-2.5-3.3-2.5-5.5
			c0-2.7,1-4.8,3.1-6.3c2-1.5,4.9-2.2,8.6-2.2h4.3v-2c0-1.5-0.5-2.8-1.4-3.7s-2.3-1.4-4.1-1.4c-1.6,0-2.9,0.4-4,1.2
			s-1.6,1.8-1.6,2.9h-4.5c0-1.3,0.5-2.5,1.4-3.7s2.2-2.2,3.7-2.9c1.6-0.7,3.3-1.1,5.2-1.1c3,0,5.3,0.7,7,2.2s2.6,3.5,2.6,6.2v11.9
			c0,2.4,0.3,4.3,0.9,5.7v0.4L409.1-654.1L409.1-654.1z M401.8-657.5c1.4,0,2.7-0.4,3.9-1.1s2.1-1.7,2.7-2.8v-5.3H405
			c-5.4,0-8.1,1.6-8.1,4.8c0,1.4,0.5,2.5,1.4,3.3C399.1-657.9,400.3-657.5,401.8-657.5z"/>
		<path d="M430.2-657.2c1.6,0,3-0.5,4.1-1.4c1.2-1,1.8-2.2,2-3.6h4.2c-0.1,1.5-0.6,2.9-1.5,4.2s-2.2,2.4-3.8,3.2
			c-1.6,0.8-3.2,1.2-5,1.2c-3.5,0-6.3-1.2-8.4-3.5c-2.1-2.4-3.1-5.6-3.1-9.7v-0.7c0-2.5,0.5-4.8,1.4-6.7c0.9-2,2.3-3.5,4-4.6
			s3.8-1.6,6.1-1.6c2.9,0,5.3,0.9,7.2,2.6c1.9,1.7,2.9,4,3.1,6.8h-4.2c-0.1-1.7-0.8-3.1-1.9-4.1c-1.1-1.1-2.5-1.6-4.2-1.6
			c-2.2,0-4,0.8-5.2,2.4c-1.2,1.6-1.9,4-1.9,7v0.8c0,3,0.6,5.3,1.8,6.9C426.1-658,427.9-657.2,430.2-657.2z"/>
		<path d="M456.2-653.6c-3.5,0-6.4-1.2-8.6-3.5s-3.3-5.4-3.3-9.2v-0.8c0-2.6,0.5-4.9,1.5-6.9s2.4-3.6,4.1-4.7
			c1.8-1.1,3.7-1.7,5.7-1.7c3.4,0,6,1.1,7.8,3.3c1.9,2.2,2.8,5.4,2.8,9.5v1.8h-17.5c0.1,2.6,0.8,4.6,2.2,6.2
			c1.4,1.6,3.2,2.4,5.4,2.4c1.6,0,2.9-0.3,4-1c1.1-0.6,2-1.5,2.8-2.5l2.7,2.1C463.8-655.3,460.5-653.6,456.2-653.6z M455.6-676.8
			c-1.8,0-3.3,0.7-4.5,2s-2,3.1-2.2,5.5h13v-0.3c-0.1-2.2-0.7-4-1.8-5.2C459-676.2,457.5-676.8,455.6-676.8z M457.8-690.9h5.4
			l-6.4,7h-3.6L457.8-690.9z"/>
		<path d="M493.9-657.2c1.6,0,3-0.5,4.1-1.4c1.2-1,1.8-2.2,2-3.6h4.2c-0.1,1.5-0.6,2.9-1.5,4.2s-2.2,2.4-3.8,3.2
			c-1.6,0.8-3.2,1.2-5,1.2c-3.5,0-6.3-1.2-8.4-3.5c-2.1-2.4-3.1-5.6-3.1-9.7v-0.7c0-2.5,0.5-4.8,1.4-6.7c0.9-2,2.3-3.5,4-4.6
			s3.8-1.6,6.1-1.6c2.9,0,5.3,0.9,7.2,2.6c1.9,1.7,2.9,4,3.1,6.8H500c-0.1-1.7-0.8-3.1-1.9-4.1c-1.1-1.1-2.5-1.6-4.2-1.6
			c-2.2,0-4,0.8-5.2,2.4c-1.2,1.6-1.9,4-1.9,7v0.8c0,3,0.6,5.3,1.8,6.9C489.9-658,491.6-657.2,493.9-657.2z"/>
		<path d="M514-654.1h-4.4v-36.8h4.4V-654.1z"/>
		<path d="M521.1-686.9c0-0.7,0.2-1.3,0.7-1.8c0.4-0.5,1.1-0.7,2-0.7s1.5,0.2,2,0.7c0.4,0.5,0.7,1.1,0.7,1.8s-0.2,1.3-0.7,1.8
			c-0.4,0.5-1.1,0.7-2,0.7s-1.5-0.2-2-0.7C521.3-685.5,521.1-686.1,521.1-686.9z M525.9-654.1h-4.4V-680h4.4V-654.1z"/>
		<path d="M543.3-657.2c1.6,0,3-0.5,4.1-1.4c1.2-1,1.8-2.2,2-3.6h4.2c-0.1,1.5-0.6,2.9-1.5,4.2s-2.2,2.4-3.8,3.2s-3.2,1.2-5,1.2
			c-3.5,0-6.3-1.2-8.4-3.5c-2.1-2.4-3.1-5.6-3.1-9.7v-0.7c0-2.5,0.5-4.8,1.4-6.7c0.9-2,2.3-3.5,4-4.6s3.8-1.6,6.1-1.6
			c2.9,0,5.3,0.9,7.2,2.6s2.9,4,3.1,6.8h-4.2c-0.1-1.7-0.8-3.1-1.9-4.1c-1.1-1.1-2.5-1.6-4.2-1.6c-2.2,0-4,0.8-5.2,2.4
			c-1.2,1.6-1.9,4-1.9,7v0.8c0,3,0.6,5.3,1.8,6.9C539.3-658,541.1-657.2,543.3-657.2z"/>
		<path d="M586.7-654.1c-0.3-0.5-0.5-1.4-0.6-2.7c-2.1,2.1-4.5,3.2-7.4,3.2c-2.6,0-4.6-0.7-6.3-2.2c-1.6-1.4-2.5-3.3-2.5-5.5
			c0-2.7,1-4.8,3.1-6.3c2-1.5,4.9-2.2,8.6-2.2h4.3v-2c0-1.5-0.5-2.8-1.4-3.7s-2.3-1.4-4.1-1.4c-1.6,0-2.9,0.4-4,1.2
			s-1.6,1.8-1.6,2.9h-4.5c0-1.3,0.5-2.5,1.4-3.7s2.2-2.2,3.7-2.9s3.3-1.1,5.2-1.1c3,0,5.3,0.7,7,2.2s2.6,3.5,2.6,6.2v11.9
			c0,2.4,0.3,4.3,0.9,5.7v0.4L586.7-654.1L586.7-654.1z M579.4-657.5c1.4,0,2.7-0.4,3.9-1.1s2.1-1.7,2.7-2.8v-5.3h-3.5
			c-5.4,0-8.1,1.6-8.1,4.8c0,1.4,0.5,2.5,1.4,3.3C576.7-657.9,577.9-657.5,579.4-657.5z"/>
		<path d="M596.3-667.3c0-4.1,0.9-7.3,2.8-9.7c1.9-2.4,4.4-3.6,7.5-3.6s5.5,1,7.2,3.1l0.2-2.6h4.1v35.8h-4.4v-12.3
			c-1.8,1.9-4.2,2.9-7.1,2.9c-3.1,0-5.6-1.2-7.5-3.6c-1.9-2.4-2.8-5.7-2.8-9.7V-667.3z M600.7-666.8c0,3,0.6,5.3,1.9,7
			c1.3,1.7,2.9,2.5,5.1,2.5c2.6,0,4.6-1.2,6-3.5v-12.7c-1.4-2.3-3.4-3.4-6-3.4c-2.1,0-3.8,0.8-5.1,2.5
			C601.4-672.6,600.7-670.1,600.7-666.8z"/>
		<path d="M641.2-656.7c-1.7,2-4.3,3-7.6,3c-2.8,0-4.9-0.8-6.3-2.4c-1.4-1.6-2.2-4-2.2-7.1V-680h4.4v16.7c0,3.9,1.6,5.9,4.8,5.9
			c3.4,0,5.6-1.3,6.7-3.8V-680h4.4v25.9h-4.2L641.2-656.7z"/>
		<path d="M657.1-690.8h5.4l-6.4,7h-3.6L657.1-690.8z M657.1-654.1h-4.5V-680h4.5V-654.1z"/>
	</g>
</g>
<g>
	<path d="M165.1-668.9l-28-28c-4.2,6.5-9.7,12-16.2,16.2l28,28c4.5,4.5,11.7,4.5,16.2,0C169.6-657.1,169.6-664.4,165.1-668.9z"/>
	<path d="M137.9-725.7c0-25.3-20.5-45.8-45.8-45.8S46.3-751,46.3-725.7s20.5,45.8,45.8,45.8S137.9-700.4,137.9-725.7z M92.1-691.3
		c-18.9,0-34.4-15.4-34.4-34.4s15.4-34.4,34.4-34.4s34.4,15.4,34.4,34.4C126.4-706.7,111-691.3,92.1-691.3z"/>
	<path d="M65.3-725.7h7.6c0-10.5,8.6-19.1,19.1-19.1v-7.6C77.3-752.4,65.3-740.4,65.3-725.7z"/>
</g>
<g>
	<path class="st0" d="M855.5-793.5c25.4,0,46,20.6,46,46v81c0,25.4-20.6,46-46,46h-784c-25.4,0-46-20.6-46-46v-81
		c0-25.4,20.6-46,46-46H855.5 M855.5-797.5h-784c-27.6,0-50,22.4-50,50v81c0,27.6,22.4,50,50,50h784c27.6,0,50-22.4,50-50v-81
		C905.5-775.1,883.2-797.5,855.5-797.5L855.5-797.5z"/>
</g>
<g>
	<g>
		<path d="M1267.5-46.2h-12.6v34.4h-8.6v-34.4h-12.5v-6.9h33.6L1267.5-46.2L1267.5-46.2z"/>
		<path d="M1283.4-11.2c-4.5,0-8.2-1.4-11-4.2s-4.3-6.5-4.3-11v-0.8c0-3,0.6-5.8,1.8-8.3c1.2-2.5,2.8-4.3,5-5.6s4.7-2,7.5-2
			c4.2,0,7.5,1.3,9.9,4s3.6,6.4,3.6,11.3v3.3h-19.6c0.3,2,1,3.6,2.4,4.8c1.3,1.2,3,1.8,5,1.8c3.1,0,5.6-1.1,7.4-3.4l4,4.6
			c-1.2,1.7-2.9,3.1-5,4.1C1288.3-11.7,1286-11.2,1283.4-11.2z M1282.5-36.4c-1.6,0-2.9,0.6-4,1.6c-1,1.1-1.6,2.7-1.9,4.8h11.4v-0.7
			c0-1.8-0.6-3.2-1.5-4.3C1285.6-35.9,1284.3-36.4,1282.5-36.4z"/>
		<path d="M1329.3-11.2c-4.5,0-8.2-1.4-11-4.2c-2.9-2.8-4.3-6.5-4.3-11v-0.8c0-3,0.6-5.8,1.8-8.3c1.2-2.5,2.8-4.3,5-5.6s4.7-2,7.5-2
			c4.2,0,7.5,1.3,9.9,4s3.6,6.4,3.6,11.3v3.3h-19.6c0.3,2,1,3.6,2.4,4.8c1.3,1.2,3,1.8,5,1.8c3.1,0,5.6-1.1,7.4-3.4l4,4.6
			c-1.2,1.7-2.8,3.1-5,4.1C1334.2-11.7,1331.9-11.2,1329.3-11.2z M1328.4-36.4c-1.6,0-2.9,0.6-4,1.6c-1,1.1-1.6,2.7-1.9,4.8h11.4
			v-0.7c0-1.8-0.6-3.2-1.5-4.3C1331.5-35.9,1330.1-36.4,1328.4-36.4z"/>
		<path d="M1363.2-20.2c0-1-0.5-1.8-1.5-2.4s-2.6-1-4.8-1.5c-7.3-1.5-10.9-4.7-10.9-9.3c0-2.8,1.1-5,3.4-6.8s5.2-2.8,8.8-2.8
			c3.9,0,7,0.9,9.3,2.8c2.4,1.8,3.5,4.2,3.5,7.1h-8.2c0-1.1-0.4-2.2-1.1-2.9s-1.9-1.1-3.5-1.1c-1.4,0-2.5,0.3-3.2,0.9
			c-0.8,0.7-1.1,1.4-1.1,2.4s0.5,1.6,1.3,2.2c0.9,0.6,2.3,1,4.4,1.4s3.8,0.9,5.1,1.3c4.4,1.6,6.5,4.4,6.5,8.3c0,2.8-1.2,5-3.6,6.8
			c-2.4,1.7-5.5,2.6-9.3,2.6c-2.6,0-4.8-0.5-6.8-1.3c-2-0.9-3.6-2.2-4.7-3.8s-1.7-3.3-1.7-5.2h7.8c0.1,1.4,0.6,2.6,1.6,3.3
			s2.4,1.1,4,1.1s2.8-0.3,3.6-0.9C1362.9-18.6,1363.2-19.3,1363.2-20.2z"/>
		<path d="M1404.1-26.8c0,4.8-1,8.6-3.2,11.4s-5,4.3-8.7,4.3c-3.1,0-5.6-1-7.5-3.2V0.1h-8.2v-42.6h7.6l0.3,3c2-2.4,4.6-3.6,7.8-3.6
			c3.8,0,6.7,1.4,8.8,4.2c2.1,2.8,3.1,6.7,3.1,11.6L1404.1-26.8L1404.1-26.8z M1396-27.4c0-2.9-0.5-5-1.5-6.7
			c-1-1.5-2.5-2.3-4.4-2.3c-2.6,0-4.4,1-5.3,2.9V-21c1,2,2.8,3,5.3,3C1394-17.8,1396-21,1396-27.4z"/>
		<path d="M1423.3-11.2c-4.5,0-8.2-1.4-11-4.2c-2.9-2.8-4.3-6.5-4.3-11v-0.8c0-3,0.6-5.8,1.8-8.3c1.2-2.5,2.9-4.3,5-5.6
			c2.2-1.3,4.7-2,7.5-2c4.2,0,7.5,1.3,9.9,4s3.6,6.4,3.6,11.3v3.3h-19.6c0.3,2,1,3.6,2.4,4.8s3,1.8,5,1.8c3.1,0,5.6-1.1,7.4-3.4
			l4,4.6c-1.2,1.7-2.9,3.1-5,4.1C1428.3-11.7,1425.9-11.2,1423.3-11.2z M1422.4-36.4c-1.6,0-2.9,0.6-4,1.6c-1,1.1-1.6,2.7-1.9,4.8
			h11.4v-0.7c0-1.8-0.6-3.2-1.5-4.3C1425.5-35.9,1424.2-36.4,1422.4-36.4z"/>
		<path d="M1457.9-34.8c-1.1-0.2-2.1-0.2-2.9-0.2c-3.1,0-5.1,1-6.1,3.1v20.1h-8.2v-30.7h7.8l0.2,3.7c1.6-2.8,3.9-4.3,6.8-4.3
			c1,0,1.8,0.1,2.6,0.4L1457.9-34.8z"/>
		<path d="M1478.8-11.8c-0.4-0.8-0.7-1.6-0.9-2.8c-2,2.2-4.6,3.3-7.8,3.3c-3,0-5.5-0.9-7.5-2.6s-2.9-3.9-2.9-6.6
			c0-3.2,1.2-5.8,3.6-7.5s5.9-2.7,10.5-2.7h3.8v-1.8c0-1.4-0.4-2.6-1.1-3.4c-0.8-0.9-1.9-1.2-3.4-1.2c-1.4,0-2.5,0.3-3.2,0.9
			c-0.8,0.7-1.1,1.6-1.1,2.8h-8.2c0-1.8,0.6-3.4,1.6-4.9c1.1-1.5,2.7-2.7,4.7-3.6s4.3-1.3,6.7-1.3c3.8,0,6.7,0.9,9,2.8
			c2.2,1.9,3.3,4.6,3.3,8v13.3c0,2.9,0.4,5.1,1.2,6.6v0.5L1478.8-11.8L1478.8-11.8z M1472-17.5c1.2,0,2.3-0.3,3.3-0.9
			s1.8-1.2,2.3-2.2v-5.3h-3c-4.1,0-6.3,1.4-6.6,4.3v0.5c0,1,0.4,1.9,1,2.6C1469.7-17.9,1470.7-17.5,1472-17.5z"/>
		<path d="M1499.8-42.5l0.3,3.4c2.2-2.7,5.1-4,8.8-4c4,0,6.6,1.5,8.2,4.7c2.2-3.1,5.2-4.7,9.2-4.7c3.3,0,5.8,0.9,7.4,2.9
			c1.6,1.9,2.5,4.8,2.5,8.7v19.6h-8.3v-19.6c0-1.7-0.4-3-1-3.8s-1.9-1.2-3.6-1.2c-2.5,0-4.2,1.1-5.1,3.5v21.1h-8.2v-19.6
			c0-1.8-0.4-3-1-3.9c-0.7-0.8-1.9-1.2-3.6-1.2c-2.3,0-4,0.9-5,2.8V-12h-8.2v-30.5H1499.8z"/>
		<path d="M1541.2-27.4c0-3,0.6-5.8,1.8-8.2c1.1-2.4,2.9-4.3,5-5.5c2.2-1.3,4.8-2,7.7-2c4.2,0,7.5,1.2,10.2,3.8s4.1,6,4.4,10.4
			l0.1,2.1c0,4.8-1.3,8.5-4,11.3s-6.2,4.3-10.5,4.3c-4.5,0-8-1.4-10.6-4.3s-4-6.7-4-11.6L1541.2-27.4L1541.2-27.4z M1549.4-26.8
			c0,2.9,0.6,5.1,1.6,6.7c1.1,1.5,2.7,2.3,4.8,2.3c2,0,3.5-0.8,4.7-2.3s1.7-4,1.7-7.3c0-2.9-0.6-5-1.7-6.7s-2.7-2.4-4.8-2.4
			c-2,0-3.5,0.8-4.7,2.4C1550-32.5,1549.4-30.1,1549.4-26.8z"/>
		<path d="M1592-20.2c0-1-0.5-1.8-1.5-2.4s-2.6-1-4.8-1.5c-7.3-1.5-10.9-4.7-10.9-9.3c0-2.8,1.1-5,3.4-6.8s5.2-2.8,8.8-2.8
			c3.9,0,7,0.9,9.3,2.8c2.4,1.8,3.5,4.2,3.5,7.1h-8.2c0-1.1-0.4-2.2-1.1-2.9c-0.8-0.8-1.9-1.1-3.5-1.1c-1.4,0-2.5,0.3-3.2,0.9
			c-0.8,0.7-1.1,1.4-1.1,2.4s0.5,1.6,1.3,2.2c0.9,0.6,2.3,1,4.4,1.4s3.8,0.9,5.1,1.3c4.4,1.6,6.5,4.4,6.5,8.3c0,2.8-1.2,5-3.6,6.8
			c-2.4,1.7-5.5,2.6-9.3,2.6c-2.6,0-4.8-0.5-6.8-1.3c-2-0.9-3.6-2.2-4.7-3.8s-1.7-3.3-1.7-5.2h7.8c0.1,1.4,0.6,2.6,1.6,3.3
			c1,0.8,2.4,1.1,4,1.1s2.8-0.3,3.6-0.9C1591.6-18.5,1592-19.3,1592-20.2z"/>
		<path d="M1633.9-11.2c-4.5,0-8.2-1.4-11-4.2s-4.3-6.5-4.3-11v-0.8c0-3,0.6-5.8,1.8-8.3c1.2-2.5,2.9-4.3,5-5.6c2.2-1.3,4.7-2,7.5-2
			c4.2,0,7.5,1.3,9.9,4s3.6,6.4,3.6,11.3v3.3h-19.6c0.3,2,1,3.6,2.4,4.8s3,1.8,5,1.8c3.1,0,5.6-1.1,7.4-3.4l4,4.6
			c-1.2,1.7-2.9,3.1-5,4.1C1638.7-11.7,1636.4-11.2,1633.9-11.2z M1632.9-36.4c-1.6,0-2.9,0.6-4,1.6c-1,1.1-1.6,2.7-1.9,4.8h11.4
			v-0.7c0-1.8-0.6-3.2-1.5-4.3C1636-35.9,1634.6-36.4,1632.9-36.4z"/>
		<path d="M1658.7-42.5l0.3,3.5c2.2-2.8,5.1-4.1,8.8-4.1c3.2,0,5.7,0.9,7.2,2.8c1.6,1.9,2.4,4.8,2.5,8.5v19.9h-8.2v-19.7
			c0-1.7-0.4-3-1.1-3.8c-0.8-0.8-2-1.1-3.8-1.1c-2.3,0-4.1,1-5.2,2.9v21.7h-8.2v-30.6H1658.7z"/>
	</g>
</g>
<g>
	
		<linearGradient id="SVGID_1_" gradientUnits="userSpaceOnUse" x1="156.3707" y1="-153.9292" x2="74.6293" y2="-235.6708" gradientTransform="matrix(1 0 0 -1 0 -628)">
		<stop  offset="1.104800e-03" style="stop-color:#FFE185"/>
		<stop  offset="0.2094" style="stop-color:#FFBB36"/>
		<stop  offset="0.3765" style="stop-color:#FF5176"/>
		<stop  offset="0.5238" style="stop-color:#F63395"/>
		<stop  offset="0.7394" style="stop-color:#A436D2"/>
		<stop  offset="1" style="stop-color:#5F4EED"/>
	</linearGradient>
	<circle class="st2" cx="115.5" cy="-433.2" r="57.8"/>
	<g>
		<g>
			<path class="st0" d="M133.4-455.1c-2.2,0-4,1.8-4,4s1.8,4,4,4s4-1.8,4-4C137.4-453.3,135.7-455.1,133.4-455.1z"/>
			<path class="st0" d="M115.8-450c-9.2,0-16.7,7.5-16.7,16.7s7.5,16.7,16.7,16.7s16.7-7.5,16.7-16.7
				C132.4-442.5,124.9-450,115.8-450z M115.8-422.7c-5.9,0-10.7-4.8-10.7-10.7s4.8-10.7,10.7-10.7s10.7,4.8,10.7,10.7
				C126.5-427.4,121.7-422.7,115.8-422.7z"/>
			<path class="st0" d="M129-399.4h-27.1c-11.2,0-20.3-9.1-20.3-20.3v-27.1c0-11.2,9.1-20.3,20.3-20.3H129
				c11.2,0,20.3,9.1,20.3,20.3v27.1C149.3-408.6,140.2-399.4,129-399.4z M101.9-460.8c-7.7,0-14,6.3-14,14v27.1c0,7.7,6.3,14,14,14
				H129c7.7,0,14-6.3,14-14v-27c0-7.7-6.3-14-14-14L101.9-460.8L101.9-460.8z"/>
		</g>
	</g>
</g>
<g class="st1">
	<path d="M233.2-196.5c0,2.1-0.2,3.8-0.7,5.1s-1.4,2.6-2.6,3.7c-1.3,1.2-2.1,2.1-2.6,2.6c-0.5,0.6-0.8,1.2-1,1.7
		c-0.2,0.6-0.3,1.2-0.3,1.9c0,2.5,1.2,3.8,3.7,3.8c1.2,0,2.2-0.4,2.9-1.1c0.7-0.7,1.1-1.7,1.1-3h6.9c0,3.1-1,5.5-2.9,7.2
		s-4.6,2.6-7.9,2.6c-3.4,0-6-0.8-7.9-2.4c-1.9-1.6-2.8-3.9-2.8-6.9c0-2.5,1.2-5,3.7-7.5l2.3-2.2c0.8-0.7,1.4-1.5,1.7-2.3
		s0.5-1.9,0.5-3.3L233.2-196.5L233.2-196.5z M234.1-203.8c0,1.1-0.4,1.9-1.1,2.6c-0.7,0.7-1.7,1-2.8,1s-2-0.3-2.8-1
		c-0.7-0.7-1.1-1.6-1.1-2.6c0-1.1,0.4-1.9,1.1-2.6c0.7-0.7,1.6-1,2.8-1s2.1,0.3,2.8,1C233.7-205.8,234.1-204.9,234.1-203.8z"/>
	<path d="M273.1-181.1h-7.2l-14-22.9v22.9h-7.2V-216h7.2l14,23v-23h7.2V-181.1z"/>
	<path d="M290.8-180.7c-3.8,0-6.9-1.2-9.3-3.5s-3.6-5.4-3.6-9.3v-0.7c0-2.6,0.5-4.9,1.5-7s2.4-3.6,4.3-4.7c1.8-1.1,3.9-1.7,6.3-1.7
		c3.5,0,6.3,1.1,8.4,3.3c2,2.2,3.1,5.4,3.1,9.5v2.8H285c0.2,1.7,0.9,3,2,4.1c1.1,1,2.5,1.5,4.3,1.5c2.7,0,4.7-1,6.2-2.9l3.4,3.8
		c-1,1.5-2.4,2.6-4.2,3.4S293-180.7,290.8-180.7z M290-201.9c-1.4,0-2.5,0.5-3.3,1.4c-0.9,0.9-1.4,2.3-1.6,4h9.6v-0.6
		c0-1.5-0.4-2.7-1.2-3.6C292.6-201.5,291.5-201.9,290-201.9z"/>
	<path d="M316.2-186.2c1.3,0,2.3-0.4,3.1-1.1c0.8-0.7,1.2-1.6,1.2-2.8h6.5c0,1.8-0.5,3.4-1.4,4.8c-0.9,1.5-2.2,2.6-3.9,3.4
		c-1.6,0.8-3.4,1.2-5.4,1.2c-3.7,0-6.6-1.2-8.8-3.5c-2.1-2.4-3.2-5.6-3.2-9.8v-0.5c0-4,1.1-7.2,3.2-9.5c2.1-2.4,5-3.6,8.7-3.6
		c3.2,0,5.8,0.9,7.8,2.8c2,1.8,2.9,4.3,3,7.4h-6.5c0-1.3-0.4-2.4-1.2-3.3c-0.8-0.8-1.9-1.3-3.2-1.3c-1.6,0-2.8,0.6-3.6,1.8
		c-0.8,1.2-1.2,3.1-1.2,5.7v0.7c0,2.7,0.4,4.6,1.2,5.8C313.3-186.8,314.5-186.2,316.2-186.2z"/>
	<path d="M342.9-180.7c-3.8,0-6.9-1.2-9.3-3.5s-3.6-5.4-3.6-9.3v-0.7c0-2.6,0.5-4.9,1.5-7s2.4-3.6,4.3-4.7c1.8-1.1,3.9-1.7,6.3-1.7
		c3.5,0,6.3,1.1,8.4,3.3c2,2.2,3.1,5.4,3.1,9.5v2.8H337c0.2,1.7,0.9,3,2,4.1c1.1,1,2.5,1.5,4.3,1.5c2.7,0,4.7-1,6.2-2.9l3.4,3.8
		c-1,1.5-2.4,2.6-4.2,3.4S345-180.7,342.9-180.7z M342.1-201.9c-1.4,0-2.5,0.5-3.3,1.4c-0.9,0.9-1.4,2.3-1.6,4h9.6v-0.6
		c0-1.5-0.4-2.7-1.2-3.6C344.7-201.5,343.5-201.9,342.1-201.9z"/>
	<path d="M371.5-188.3c0-0.8-0.4-1.5-1.3-2c-0.8-0.5-2.2-0.9-4-1.3c-6.2-1.3-9.2-3.9-9.2-7.8c0-2.3,1-4.2,2.9-5.8
		c1.9-1.5,4.4-2.3,7.5-2.3c3.3,0,5.9,0.8,7.9,2.3s3,3.6,3,6h-6.9c0-1-0.3-1.8-1-2.5c-0.6-0.6-1.6-1-3-1c-1.2,0-2.1,0.3-2.7,0.8
		s-1,1.2-1,2s0.4,1.4,1.1,1.9s1.9,0.9,3.7,1.2s3.2,0.7,4.4,1.2c3.7,1.3,5.5,3.7,5.5,7c0,2.4-1,4.3-3,5.7c-2,1.5-4.6,2.2-7.8,2.2
		c-2.2,0-4.1-0.4-5.8-1.2c-1.7-0.8-3-1.8-4-3.2c-1-1.3-1.4-2.8-1.4-4.4h6.6c0.1,1.2,0.5,2.2,1.4,2.8c0.8,0.7,2,1,3.4,1
		c1.3,0,2.3-0.3,3-0.8C371.1-186.8,371.5-187.5,371.5-188.3z"/>
	<path d="M382.6-213.7c0-1,0.3-1.9,1-2.6c0.7-0.7,1.6-1,2.8-1c1.2,0,2.1,0.3,2.8,1c0.7,0.7,1.1,1.5,1.1,2.6s-0.4,1.9-1.1,2.6
		c-0.7,0.7-1.6,1-2.8,1c-1.2,0-2.1-0.3-2.8-1C382.9-211.8,382.6-212.7,382.6-213.7z M389.9-181.1H383V-207h6.9V-181.1z"/>
	<path d="M403.9-213.4v6.4h4.4v5.1h-4.4v12.9c0,1,0.2,1.6,0.6,2.1c0.4,0.4,1.1,0.6,2.1,0.6c0.8,0,1.4-0.1,2-0.2v5.2
		c-1.4,0.4-2.8,0.6-4.2,0.6c-4.8,0-7.3-2.4-7.4-7.3v-13.9h-3.8v-5.1h3.8v-6.4L403.9-213.4L403.9-213.4z"/>
	<path d="M427.2-181.1c-0.3-0.6-0.6-1.4-0.7-2.3c-1.7,1.9-3.9,2.8-6.5,2.8c-2.5,0-4.6-0.7-6.3-2.2c-1.7-1.5-2.5-3.3-2.5-5.6
		c0-2.7,1-4.8,3.1-6.3c2-1.5,5-2.2,8.8-2.2h3.2v-1.5c0-1.2-0.3-2.2-0.9-2.9s-1.6-1.1-2.9-1.1c-1.2,0-2.1,0.3-2.7,0.8
		c-0.7,0.6-1,1.3-1,2.3h-6.9c0-1.5,0.5-2.9,1.4-4.2s2.2-2.3,3.9-3c1.7-0.7,3.6-1.1,5.7-1.1c3.2,0,5.7,0.8,7.6,2.4
		c1.9,1.6,2.8,3.9,2.8,6.8v11.2c0,2.5,0.4,4.3,1,5.6v0.4h-7.1V-181.1z M421.5-185.9c1,0,2-0.2,2.8-0.7c0.9-0.5,1.5-1.1,1.9-1.8v-4.5
		h-2.6c-3.5,0-5.3,1.2-5.5,3.6v0.4c0,0.9,0.3,1.6,0.9,2.1C419.6-186.2,420.4-185.9,421.5-185.9z M424.1-217.9h7.5l-6.6,7.4h-5.6
		L424.1-217.9z"/>
	<path d="M452.5-188.3c0-0.8-0.4-1.5-1.3-2c-0.8-0.5-2.2-0.9-4-1.3c-6.2-1.3-9.2-3.9-9.2-7.8c0-2.3,1-4.2,2.9-5.8
		c1.9-1.5,4.4-2.3,7.5-2.3c3.3,0,5.9,0.8,7.9,2.3s3,3.6,3,6h-6.9c0-1-0.3-1.8-1-2.5c-0.6-0.6-1.6-1-3-1c-1.2,0-2.1,0.3-2.7,0.8
		s-1,1.2-1,2s0.4,1.4,1.1,1.9s1.9,0.9,3.7,1.2s3.2,0.7,4.4,1.2c3.7,1.3,5.5,3.7,5.5,7c0,2.4-1,4.3-3,5.7c-2,1.5-4.6,2.2-7.8,2.2
		c-2.2,0-4.1-0.4-5.8-1.2c-1.7-0.8-3-1.8-4-3.2c-1-1.3-1.4-2.8-1.4-4.4h6.6c0.1,1.2,0.5,2.2,1.4,2.8c0.8,0.7,2,1,3.4,1
		c1.3,0,2.3-0.3,3-0.8C452.1-186.8,452.5-187.5,452.5-188.3z"/>
	<path d="M490.8-181.1c-0.3-0.6-0.6-1.4-0.7-2.3c-1.7,1.9-3.9,2.8-6.5,2.8c-2.5,0-4.6-0.7-6.3-2.2c-1.7-1.5-2.5-3.3-2.5-5.6
		c0-2.7,1-4.8,3.1-6.3c2-1.5,5-2.2,8.8-2.2h3.2v-1.5c0-1.2-0.3-2.2-0.9-2.9s-1.6-1.1-2.9-1.1c-1.2,0-2.1,0.3-2.7,0.8
		c-0.7,0.6-1,1.3-1,2.3h-6.9c0-1.5,0.5-2.9,1.4-4.2s2.2-2.3,3.9-3c1.7-0.7,3.6-1.1,5.7-1.1c3.2,0,5.7,0.8,7.6,2.4
		c1.9,1.6,2.8,3.9,2.8,6.8v11.2c0,2.5,0.4,4.3,1,5.6v0.4h-7.1V-181.1z M485.1-185.9c1,0,2-0.2,2.8-0.7c0.9-0.5,1.5-1.1,1.9-1.8v-4.5
		h-2.6c-3.5,0-5.3,1.2-5.5,3.6v0.4c0,0.9,0.3,1.6,0.9,2.1C483.2-186.2,484.1-185.9,485.1-185.9z"/>
	<path d="M511.4-190.9l4.8-16.1h7.4l-10.4,29.9l-0.6,1.4c-1.5,3.4-4.1,5.1-7.7,5.1c-1,0-2-0.2-3.1-0.5v-5.2h1.1
		c1.3,0,2.3-0.2,2.9-0.6c0.6-0.4,1.2-1.1,1.5-2l0.8-2.1l-9.1-26h7.4L511.4-190.9z"/>
	<path d="M541.9-183.8c-1.7,2.1-4.1,3.1-7.1,3.1c-2.8,0-4.9-0.8-6.4-2.4c-1.5-1.6-2.2-3.9-2.2-7v-17h6.9v16.7c0,2.7,1.2,4,3.7,4
		c2.3,0,4-0.8,4.8-2.4V-207h6.9v25.9H542L541.9-183.8z"/>
	<path d="M552.7-194.3c0-4,0.9-7.3,2.7-9.6c1.8-2.4,4.3-3.6,7.4-3.6c2.5,0,4.6,0.9,6.2,2.8v-13.2h6.9v36.8h-6.2l-0.3-2.8
		c-1.7,2.2-3.9,3.2-6.7,3.2c-3,0-5.5-1.2-7.3-3.6C553.6-186.7,552.7-190,552.7-194.3z M559.6-193.8c0,2.4,0.4,4.3,1.3,5.6
		c0.8,1.3,2.1,1.9,3.7,1.9c2.1,0,3.6-0.9,4.5-2.7v-10.2c-0.9-1.8-2.4-2.7-4.5-2.7C561.3-201.9,559.6-199.2,559.6-193.8z"/>
	<path d="M596.4-181.1c-0.3-0.6-0.6-1.4-0.7-2.3c-1.7,1.9-3.9,2.8-6.5,2.8c-2.5,0-4.6-0.7-6.3-2.2s-2.5-3.3-2.5-5.6
		c0-2.7,1-4.8,3.1-6.3c2-1.5,5-2.2,8.8-2.2h3.2v-1.5c0-1.2-0.3-2.2-0.9-2.9c-0.6-0.7-1.6-1.1-2.9-1.1c-1.2,0-2.1,0.3-2.7,0.8
		c-0.7,0.6-1,1.3-1,2.3h-6.9c0-1.5,0.5-2.9,1.4-4.2s2.2-2.3,3.9-3s3.6-1.1,5.7-1.1c3.2,0,5.7,0.8,7.6,2.4c1.9,1.6,2.8,3.9,2.8,6.8
		v11.2c0,2.5,0.4,4.3,1,5.6v0.4h-7.1V-181.1z M590.7-185.9c1,0,2-0.2,2.8-0.7c0.9-0.5,1.5-1.1,1.9-1.8v-4.5h-2.6
		c-3.5,0-5.3,1.2-5.5,3.6v0.4c0,0.9,0.3,1.6,0.9,2.1C588.8-186.2,589.6-185.9,590.7-185.9z"/>
	<path d="M628.1-213.4v6.4h4.4v5.1h-4.4v12.9c0,1,0.2,1.6,0.6,2.1c0.4,0.4,1.1,0.6,2.1,0.6c0.8,0,1.4-0.1,2-0.2v5.2
		c-1.4,0.4-2.8,0.6-4.2,0.6c-4.8,0-7.3-2.4-7.4-7.3v-13.9h-3.8v-5.1h3.8v-6.4L628.1-213.4L628.1-213.4z"/>
	<path d="M648.3-180.7c-3.8,0-6.9-1.2-9.3-3.5c-2.4-2.3-3.6-5.4-3.6-9.3v-0.7c0-2.6,0.5-4.9,1.5-7s2.4-3.6,4.3-4.7
		c1.8-1.1,3.9-1.7,6.3-1.7c3.5,0,6.3,1.1,8.4,3.3c2,2.2,3.1,5.4,3.1,9.5v2.8h-16.5c0.2,1.7,0.9,3,2,4.1c1.1,1,2.5,1.5,4.3,1.5
		c2.7,0,4.7-1,6.2-2.9l3.4,3.8c-1,1.5-2.4,2.6-4.2,3.4S650.5-180.7,648.3-180.7z M647.5-201.9c-1.4,0-2.5,0.5-3.3,1.4
		s-1.4,2.3-1.6,4h9.6v-0.6c0-1.5-0.4-2.7-1.2-3.6C650.1-201.5,649-201.9,647.5-201.9z M648.2-217.9h7.5l-6.6,7.4h-5.6L648.2-217.9z"
		/>
	<path d="M673.7-186.2c1.3,0,2.3-0.4,3.1-1.1c0.8-0.7,1.2-1.6,1.2-2.8h6.5c0,1.8-0.5,3.4-1.4,4.8c-0.9,1.5-2.2,2.6-3.9,3.4
		c-1.6,0.8-3.4,1.2-5.4,1.2c-3.7,0-6.6-1.2-8.8-3.5c-2.1-2.4-3.2-5.6-3.2-9.8v-0.5c0-4,1.1-7.2,3.2-9.5c2.1-2.4,5-3.6,8.7-3.6
		c3.2,0,5.8,0.9,7.8,2.8c2,1.8,2.9,4.3,3,7.4H678c0-1.3-0.4-2.4-1.2-3.3c-0.8-0.8-1.9-1.3-3.2-1.3c-1.6,0-2.8,0.6-3.6,1.8
		s-1.2,3.1-1.2,5.7v0.7c0,2.7,0.4,4.6,1.2,5.8C670.8-186.8,672-186.2,673.7-186.2z"/>
	<path d="M694.8-207l0.2,3c1.9-2.3,4.3-3.5,7.4-3.5c2.7,0,4.8,0.8,6.1,2.4c1.3,1.6,2,4,2.1,7.2v16.7h-6.9v-16.6c0-1.5-0.3-2.5-1-3.2
		c-0.6-0.7-1.7-1-3.2-1c-1.9,0-3.4,0.8-4.4,2.5v18.3h-6.9V-207H694.8z"/>
	<path d="M715.8-213.7c0-1,0.3-1.9,1-2.6c0.7-0.7,1.6-1,2.8-1s2.1,0.3,2.8,1s1.1,1.5,1.1,2.6s-0.4,1.9-1.1,2.6s-1.6,1-2.8,1
		s-2.1-0.3-2.8-1C716.2-211.8,715.8-212.7,715.8-213.7z M723.2-181.1h-6.9V-207h6.9V-181.1z"/>
	<path d="M739.7-186.2c1.3,0,2.3-0.4,3.1-1.1c0.8-0.7,1.2-1.6,1.2-2.8h6.5c0,1.8-0.5,3.4-1.4,4.8c-0.9,1.5-2.2,2.6-3.9,3.4
		c-1.6,0.8-3.4,1.2-5.4,1.2c-3.7,0-6.6-1.2-8.8-3.5c-2.1-2.4-3.2-5.6-3.2-9.8v-0.5c0-4,1.1-7.2,3.2-9.5c2.1-2.4,5-3.6,8.7-3.6
		c3.2,0,5.8,0.9,7.8,2.8c2,1.8,2.9,4.3,3,7.4H744c0-1.3-0.4-2.4-1.2-3.3c-0.8-0.8-1.9-1.3-3.2-1.3c-1.6,0-2.8,0.6-3.6,1.8
		s-1.2,3.1-1.2,5.7v0.7c0,2.7,0.4,4.6,1.2,5.8C736.8-186.8,738-186.2,739.7-186.2z"/>
	<path d="M769.4-181.1c-0.3-0.6-0.5-1.4-0.7-2.3c-1.7,1.9-3.9,2.8-6.5,2.8c-2.5,0-4.6-0.7-6.3-2.2s-2.5-3.3-2.5-5.6
		c0-2.7,1-4.8,3.1-6.3c2-1.5,5-2.2,8.8-2.2h3.2v-1.5c0-1.2-0.3-2.2-0.9-2.9c-0.6-0.7-1.6-1.1-2.9-1.1c-1.2,0-2.1,0.3-2.7,0.8
		c-0.7,0.6-1,1.3-1,2.3h-7c0-1.5,0.5-2.9,1.4-4.2s2.2-2.3,3.9-3s3.6-1.1,5.7-1.1c3.2,0,5.7,0.8,7.6,2.4c1.9,1.6,2.8,3.9,2.8,6.8
		v11.2c0,2.5,0.4,4.3,1,5.6v0.4h-7V-181.1z M763.7-185.9c1,0,2-0.2,2.8-0.7c0.9-0.5,1.5-1.1,1.9-1.8v-4.5h-2.6
		c-3.5,0-5.3,1.2-5.5,3.6v0.4c0,0.9,0.3,1.6,0.9,2.1C761.8-186.2,762.7-185.9,763.7-185.9z"/>
	<path d="M786.4-191.8c0-2.2,0.3-4,0.8-5.3s1.5-2.6,3-3.9c1.4-1.3,2.4-2.3,2.9-3.1s0.7-1.7,0.7-2.6c0-2.7-1.2-4-3.7-4
		c-1.2,0-2.1,0.4-2.8,1.1s-1.1,1.7-1.1,3h-6.9c0-3,1-5.4,3-7.2c1.9-1.7,4.6-2.6,7.9-2.6c3.4,0,6,0.8,7.9,2.5s2.8,3.9,2.8,6.9
		c0,1.4-0.3,2.6-0.9,3.8c-0.6,1.2-1.7,2.5-3.2,4l-1.9,1.8c-1.2,1.2-1.9,2.5-2.1,4.1l-0.1,1.5H786.4z M785.7-184.5
		c0-1.1,0.4-1.9,1.1-2.6s1.7-1,2.8-1s2.1,0.3,2.8,1s1.1,1.6,1.1,2.6s-0.4,1.9-1.1,2.6s-1.6,1-2.8,1s-2.1-0.3-2.8-1
		C786-182.6,785.7-183.4,785.7-184.5z"/>
</g>
<g class="st1">
	<path d="M386.9-122.3h-4.6v-16.1h-17.6v16.1h-4.6v-34.8h4.6v15h17.6v-15h4.6V-122.3z"/>
	<path d="M410.3-122.3c-0.3-0.5-0.5-1.4-0.6-2.7c-2.1,2.1-4.5,3.2-7.4,3.2c-2.6,0-4.6-0.7-6.3-2.2s-2.5-3.3-2.5-5.5
		c0-2.7,1-4.8,3.1-6.3s4.9-2.2,8.6-2.2h4.3v-2c0-1.5-0.5-2.8-1.4-3.7s-2.3-1.4-4.1-1.4c-1.6,0-2.9,0.4-4,1.2s-1.6,1.8-1.6,2.9h-4.5
		c0-1.3,0.5-2.5,1.4-3.7s2.2-2.2,3.7-2.9c1.6-0.7,3.3-1.1,5.2-1.1c3,0,5.3,0.7,7,2.2s2.6,3.5,2.6,6.2v11.9c0,2.4,0.3,4.3,0.9,5.7
		v0.4C414.7-122.3,410.3-122.3,410.3-122.3z M403-125.7c1.4,0,2.7-0.4,3.9-1.1s2.1-1.7,2.7-2.8v-5.3h-3.5c-5.4,0-8.1,1.6-8.1,4.8
		c0,1.4,0.5,2.5,1.4,3.3S401.5-125.7,403-125.7z"/>
	<path d="M431.4-125.5c1.6,0,3-0.5,4.1-1.4c1.2-1,1.8-2.2,2-3.6h4.2c-0.1,1.5-0.6,2.9-1.5,4.2s-2.2,2.4-3.8,3.2
		c-1.6,0.8-3.2,1.2-5,1.2c-3.5,0-6.3-1.2-8.4-3.5c-2.1-2.4-3.1-5.6-3.1-9.7v-0.7c0-2.5,0.5-4.8,1.4-6.7c0.9-2,2.3-3.5,4-4.6
		s3.8-1.6,6.1-1.6c2.9,0,5.3,0.9,7.2,2.6c1.9,1.7,2.9,4,3.1,6.8h-4.2c-0.1-1.7-0.8-3.1-1.9-4.1c-1.1-1.1-2.5-1.6-4.2-1.6
		c-2.2,0-4,0.8-5.2,2.4c-1.2,1.6-1.9,4-1.9,7v0.8c0,3,0.6,5.3,1.8,6.9C427.3-126.3,429.1-125.5,431.4-125.5z"/>
	<path d="M457.4-121.9c-3.5,0-6.4-1.2-8.6-3.5s-3.3-5.4-3.3-9.2v-0.8c0-2.6,0.5-4.9,1.5-6.9s2.4-3.6,4.1-4.7
		c1.8-1.1,3.7-1.7,5.7-1.7c3.4,0,6,1.1,7.8,3.3c1.9,2.2,2.8,5.4,2.8,9.5v1.8h-17.5c0.1,2.6,0.8,4.6,2.2,6.2c1.4,1.6,3.2,2.4,5.4,2.4
		c1.6,0,2.9-0.3,4-1c1.1-0.6,2-1.5,2.8-2.5l2.7,2.1C465-123.5,461.7-121.9,457.4-121.9z M456.8-145.1c-1.8,0-3.3,0.7-4.5,2
		s-2,3.1-2.2,5.5h13v-0.3c-0.1-2.2-0.7-4-1.8-5.2S458.7-145.1,456.8-145.1z M459-159.1h5.4l-6.4,7h-3.6L459-159.1z"/>
	<path d="M495.1-125.5c1.6,0,3-0.5,4.1-1.4c1.2-1,1.8-2.2,2-3.6h4.2c-0.1,1.5-0.6,2.9-1.5,4.2s-2.2,2.4-3.8,3.2
		c-1.6,0.8-3.2,1.2-5,1.2c-3.5,0-6.3-1.2-8.4-3.5c-2.1-2.4-3.1-5.6-3.1-9.7v-0.7c0-2.5,0.5-4.8,1.4-6.7c0.9-2,2.3-3.5,4-4.6
		s3.8-1.6,6.1-1.6c2.9,0,5.3,0.9,7.2,2.6c1.9,1.7,2.9,4,3.1,6.8h-4.2c-0.1-1.7-0.8-3.1-1.9-4.1c-1.1-1.1-2.5-1.6-4.2-1.6
		c-2.2,0-4,0.8-5.2,2.4c-1.2,1.6-1.9,4-1.9,7v0.8c0,3,0.6,5.3,1.8,6.9C491.1-126.3,492.8-125.5,495.1-125.5z"/>
	<path d="M515.2-122.3h-4.4v-36.8h4.4V-122.3z"/>
	<path d="M522.3-155.1c0-0.7,0.2-1.3,0.7-1.8c0.4-0.5,1.1-0.7,2-0.7s1.5,0.2,2,0.7c0.4,0.5,0.7,1.1,0.7,1.8s-0.2,1.3-0.7,1.8
		c-0.4,0.5-1.1,0.7-2,0.7s-1.5-0.2-2-0.7S522.3-154.4,522.3-155.1z M527.1-122.3h-4.4v-25.9h4.4V-122.3z"/>
	<path d="M544.5-125.5c1.6,0,3-0.5,4.1-1.4c1.2-1,1.8-2.2,2-3.6h4.2c-0.1,1.5-0.6,2.9-1.5,4.2s-2.2,2.4-3.8,3.2
		c-1.6,0.8-3.2,1.2-5,1.2c-3.5,0-6.3-1.2-8.4-3.5c-2.1-2.4-3.1-5.6-3.1-9.7v-0.7c0-2.5,0.5-4.8,1.4-6.7c0.9-2,2.3-3.5,4-4.6
		s3.8-1.6,6.1-1.6c2.9,0,5.3,0.9,7.2,2.6c1.9,1.7,2.9,4,3.1,6.8h-4.2c-0.1-1.7-0.8-3.1-1.9-4.1c-1.1-1.1-2.5-1.6-4.2-1.6
		c-2.2,0-4,0.8-5.2,2.4c-1.2,1.6-1.9,4-1.9,7v0.8c0,3,0.6,5.3,1.8,6.9C540.5-126.3,542.3-125.5,544.5-125.5z"/>
	<path d="M587.9-122.3c-0.3-0.5-0.5-1.4-0.6-2.7c-2.1,2.1-4.5,3.2-7.4,3.2c-2.6,0-4.6-0.7-6.3-2.2c-1.6-1.4-2.5-3.3-2.5-5.5
		c0-2.7,1-4.8,3.1-6.3c2-1.5,4.9-2.2,8.6-2.2h4.3v-2c0-1.5-0.5-2.8-1.4-3.7s-2.3-1.4-4.1-1.4c-1.6,0-2.9,0.4-4,1.2s-1.6,1.8-1.6,2.9
		h-4.5c0-1.3,0.5-2.5,1.4-3.7s2.2-2.2,3.7-2.9s3.3-1.1,5.2-1.1c3,0,5.3,0.7,7,2.2s2.6,3.5,2.6,6.2v11.9c0,2.4,0.3,4.3,0.9,5.7v0.4
		C592.3-122.3,587.9-122.3,587.9-122.3z M580.6-125.7c1.4,0,2.7-0.4,3.9-1.1s2.1-1.7,2.7-2.8v-5.3h-3.5c-5.4,0-8.1,1.6-8.1,4.8
		c0,1.4,0.5,2.5,1.4,3.3C577.9-126.1,579.1-125.7,580.6-125.7z"/>
	<path d="M597.5-135.5c0-4.1,0.9-7.3,2.8-9.7c1.9-2.4,4.4-3.6,7.5-3.6s5.5,1,7.2,3.1l0.2-2.6h4.1v35.8h-4.4v-12.3
		c-1.8,1.9-4.2,2.9-7.1,2.9c-3.1,0-5.6-1.2-7.5-3.6s-2.8-5.7-2.8-9.7V-135.5z M601.9-135c0,3,0.6,5.3,1.9,7c1.3,1.7,2.9,2.5,5.1,2.5
		c2.6,0,4.6-1.2,6-3.5v-12.7c-1.4-2.3-3.4-3.4-6-3.4c-2.1,0-3.8,0.8-5.1,2.5C602.6-140.8,601.9-138.3,601.9-135z"/>
	<path d="M642.4-124.9c-1.7,2-4.3,3-7.6,3c-2.8,0-4.9-0.8-6.3-2.4c-1.4-1.6-2.2-4-2.2-7.1v-16.8h4.4v16.7c0,3.9,1.6,5.9,4.8,5.9
		c3.4,0,5.6-1.3,6.7-3.8v-18.8h4.4v25.9h-4.2L642.4-124.9z"/>
	<path d="M658.3-159.1h5.4l-6.4,7h-3.6L658.3-159.1z M658.3-122.3h-4.5v-25.9h4.5V-122.3z"/>
</g>
<path d="M148.8-165.3h-6c-1.1-5.9-3.5-11.6-7.1-16.5l4.1-4.2c0.4-0.4,0.6-0.9,0.6-1.5s-0.2-1.1-0.6-1.5l-7.2-7.2
	c-0.8-0.8-2.2-0.8-3,0l-4.3,4.3c-4.9-3.3-10.4-5.6-16.2-6.6v-6.1c0-1.2-1-2.2-2.2-2.2H96.7c-1.2,0-2.2,1-2.2,2.2v6.1
	c-5.8,1-11.4,3.3-16.3,6.7L74-196c-0.8-0.9-2.2-0.9-3,0l-7.2,7.2c-0.4,0.4-0.6,1-0.6,1.5c0,0.6,0.2,1.1,0.6,1.5l4.1,4.1
	c-3.5,4.9-5.9,10.5-7,16.4h-5.4c-1.2,0-2.2,1-2.2,2.2v10.2c0,1.2,1,2.2,2.2,2.2h5.3c1,5.9,3.3,11.6,6.7,16.6l-3.8,3.8
	c-0.8,0.8-0.8,2.2,0,3.1l7.2,7.2c0.4,0.4,1,0.6,1.5,0.6c0.6,0,1.1-0.2,1.5-0.6l3.7-3.7c5,3.6,10.8,6.1,16.9,7.1v5.2
	c0,1.2,1,2.2,2.2,2.2H107c1.2,0,2.2-1,2.2-2.2v-5.2c6-1.1,11.8-3.5,16.8-7.1l3.8,3.8c0.8,0.8,2.2,0.8,3,0l7.2-7.2
	c0.8-0.8,0.8-2.2,0-3.1l-3.9-3.9c3.5-5,5.8-10.8,6.8-16.8h5.8c1.2,0,2.2-1,2.2-2.2v-10.2C150.9-164.3,150-165.3,148.8-165.3z
	 M102.1-135.3c-12.6,0-22.7-10.2-22.7-22.7c0-12.6,10.2-22.7,22.7-22.7c12.6,0,22.7,10.2,22.7,22.7
	C124.9-145.5,114.7-135.3,102.1-135.3z M110.8-158c0,4.8-3.9,8.6-8.6,8.6c-4.8,0-8.6-3.9-8.6-8.6c0-4.8,3.9-8.6,8.6-8.6
	C106.9-166.7,110.8-162.8,110.8-158z M181.7-206.4l-2.9-1.2c0.8-3.4,0.8-6.9,0.1-10.3l3.1-1.2c0.6-0.3,0.9-1,0.7-1.6l-2.2-5.4
	c-0.3-0.6-1-0.9-1.6-0.7l-3.2,1.3c-1.9-2.9-4.3-5.4-7.2-7.3l1.3-3.1c0.1-0.3,0.1-0.6,0-0.9c-0.1-0.3-0.4-0.6-0.7-0.7l-5.4-2.3
	c-0.6-0.3-1.4,0-1.6,0.6l-1.4,3.2c-3.3-0.7-6.7-0.8-10-0.1l-1.3-3.2c-0.3-0.6-1-0.9-1.6-0.7l-5.4,2.2c-0.6,0.3-0.9,1-0.7,1.6
	l1.3,3.2c-2.9,1.8-5.3,4.2-7.2,7l-3.1-1.3c-0.6-0.3-1.3,0-1.6,0.6l-2.3,5.4c-0.1,0.3-0.1,0.6,0,0.9c0.1,0.3,0.4,0.5,0.7,0.7l3,1.3
	c-0.8,3.3-0.9,6.8-0.2,10.2l-2.9,1.2c-0.6,0.3-0.9,1-0.7,1.6l2.2,5.4c0.3,0.6,1,0.9,1.6,0.7l2.8-1.1c1.8,2.9,4.2,5.5,7.1,7.4
	l-1.2,2.8c-0.3,0.6,0,1.3,0.6,1.6l5.4,2.3c0.3,0.1,0.6,0.1,0.9,0c0.3-0.1,0.5-0.4,0.7-0.7l1.2-2.7c3.4,0.8,7,0.9,10.5,0.2l1.1,2.7
	c0.3,0.6,1,0.9,1.6,0.7l5.4-2.2c0.6-0.2,0.9-1,0.7-1.6l-1.1-2.7c3-1.8,5.5-4.4,7.5-7.3l2.8,1.2c0.6,0.3,1.4,0,1.6-0.6l2.3-5.4
	C182.6-205.4,182.4-206.1,181.7-206.4z M160.5-201.1c-6.7,2.6-14.2-0.6-16.9-7.3c-2.6-6.7,0.6-14.2,7.3-16.9s14.2,0.6,16.9,7.3
	C170.4-211.3,167.2-203.7,160.5-201.1z M160.3-215c1,2.5-0.2,5.4-2.8,6.4c-2.5,1-5.4-0.2-6.4-2.8c-1-2.5,0.2-5.4,2.8-6.4
	C156.4-218.8,159.3-217.5,160.3-215z"/>
<g>
	<path d="M71,140.6c-0.3,0-0.5,0-0.9,0c-4.9,0-9.7,0-14.6,0c-1.5,0-2.3-0.6-2.3-2.3c0-22.8,0-45.6,0-68.5c0-1.5,0.6-2.3,2.3-2.3
		c11,0,22,0,33,0c0.8,0,1.4,0.2,2,0.9c2.1,2.3,4.4,4.4,6.6,6.7c0.3,0.3,0.6,0.4,1.1,0.4c8.7,0,17.5,0,26.1,0c1.6,0,2.4,0.6,2.4,2.4
		c0,22.8,0,45.5,0,68.3c0,1.5-0.6,2.3-2.3,2.3c-17,0-34.2,0-51.3,0c-1.5,0-2.1-0.6-2.1-2.1C71,144.4,71,142.6,71,140.6z
		 M105.3,136.9c0-15.9,0-31.9,0-48c-0.3,0-0.5,0-0.8,0c-4.6,0-9.3,0-13.9,0c-1.7,0-2.4-0.6-2.4-2.4c0-4.7,0-9.5,0-14.2
		c0-0.2,0-0.5,0-0.8c-10.4,0-20.7,0-31.1,0c0,21.8,0,43.6,0,65.4C73.2,136.9,89.2,136.9,105.3,136.9z M101.3,79.4
		c0.2,0.2,0.3,0.4,0.5,0.5c2.1,2.1,4.2,4.3,6.4,6.4c0.6,0.6,0.9,1.3,0.9,2c0,16.6,0,33.2,0,49.8c0,1.7-0.6,2.3-2.4,2.3
		c-10.4,0-20.8,0-31.3,0c-0.2,0-0.4,0-0.8,0c0,1.4,0,2.8,0,4.2c16.1,0,32.2,0,48.2,0c0-21.8,0-43.6,0-65.4
		C115.8,79.4,108.6,79.4,101.3,79.4z M91.9,75.2c0,3.4,0,6.6,0,9.8c3.2,0,6.4,0,9.7,0C98.4,81.7,95.2,78.5,91.9,75.2z"/>
	<path d="M81.2,116.9c-6.4,0-12.9,0-19.3,0c-1.2,0-1.5-0.3-1.5-1.6c0-0.4,0-0.9,0-1.4c0-0.9,0.4-1.2,1.2-1.3c0.1,0,0.3,0,0.4,0
		c12.7,0,25.6,0,38.3,0c1.4,0,1.6,0.2,1.6,1.7c0,0.4,0,0.9,0,1.4c0,0.6-0.4,1.1-1.2,1.2c-0.2,0-0.3,0-0.5,0
		C93.9,116.9,87.6,116.9,81.2,116.9z"/>
	<path d="M81.2,127.5c-6.4,0-12.9,0-19.2,0c-1.2,0-1.5-0.3-1.5-1.5c0-0.5,0-1.1,0-1.5c0-0.6,0.4-1.1,1.2-1.1c0.1,0,0.3,0,0.4,0
		c12.9,0,25.6,0,38.4,0c1.3,0,1.6,0.3,1.6,1.5c0,0.4,0,0.9,0,1.4c0,0.9-0.4,1.3-1.3,1.3c-2.8,0-5.5,0-8.3,0
		C88.7,127.5,84.9,127.5,81.2,127.5z"/>
	<path d="M81.2,102.1c6.4,0,12.9,0,19.2,0c1.2,0,1.5,0.3,1.5,1.5c0,0.5,0,1.1,0,1.6c0,0.6-0.4,1.1-1.1,1.1c-0.2,0-0.3,0-0.5,0
		c-12.9,0-25.6,0-38.4,0c-1.3,0-1.6-0.3-1.6-1.6c0-0.4,0-0.9,0-1.3c0-0.9,0.4-1.4,1.4-1.4c2.9,0,6,0,8.9,0
		C74.2,102.1,77.7,102.1,81.2,102.1z"/>
	<path d="M81.2,91.4c6.4,0,12.7,0,19.1,0c1.5,0,1.7,0.2,1.7,1.7c0,0.4,0,0.9,0,1.4c0,0.6-0.4,1.1-1.1,1.2c-0.2,0-0.3,0-0.5,0
		c-12.7,0-25.6,0-38.3,0c-1.3,0-1.6-0.3-1.6-1.6c0-0.4,0-0.8,0-1.2c0-1.1,0.3-1.4,1.4-1.4c2,0,3.8,0,5.8,0
		C72.2,91.4,76.8,91.4,81.2,91.4z"/>
	<path d="M78.1,85.3c-2.3,0-4.6,0-6.9,0c-0.9,0-1.4-0.3-1.4-1.4c0-0.5,0-1.1,0-1.7c0-0.8,0.4-1.2,1.2-1.2c4.7,0,9.5,0,14.4,0
		c0.8,0,1.2,0.4,1.2,1.2c0,0.5,0,1.2,0,1.7c0,0.9-0.4,1.3-1.3,1.3C82.8,85.3,80.4,85.3,78.1,85.3z"/>
</g>
<g>
	<g class="st1">
		<path d="M157,92.5c0,2.1-0.2,3.8-0.7,5.1c-0.5,1.3-1.4,2.6-2.6,3.7c-1.3,1.2-2.1,2.1-2.6,2.6c-0.5,0.6-0.8,1.2-1,1.7
			c-0.2,0.6-0.3,1.2-0.3,1.9c0,2.5,1.2,3.8,3.7,3.8c1.2,0,2.2-0.4,2.9-1.1s1.1-1.7,1.1-3h6.9c0,3.1-1,5.5-2.9,7.2s-4.6,2.6-7.9,2.6
			c-3.4,0-6-0.8-7.9-2.4s-2.8-3.9-2.8-6.9c0-2.5,1.2-5,3.7-7.5l2.3-2.2c0.8-0.7,1.4-1.5,1.7-2.3s0.5-1.9,0.5-3.3h5.9V92.5z
			 M157.9,85.2c0,1.1-0.4,1.9-1.1,2.6c-0.7,0.7-1.7,1-2.8,1s-2-0.3-2.8-1c-0.7-0.7-1.1-1.6-1.1-2.6c0-1.1,0.4-1.9,1.1-2.6
			s1.6-1,2.8-1s2.1,0.3,2.8,1C157.5,83.3,157.9,84.2,157.9,85.2z"/>
		<path d="M196.9,107.9h-7.2l-14-22.9v22.9h-7.2V73.1h7.2l14,23v-23h7.2V107.9z"/>
		<path d="M214.6,108.4c-3.8,0-6.9-1.2-9.3-3.5s-3.6-5.4-3.6-9.3V95c0-2.6,0.5-4.9,1.5-7s2.4-3.6,4.3-4.7c1.8-1.1,3.9-1.7,6.3-1.7
			c3.5,0,6.3,1.1,8.4,3.3c2,2.2,3.1,5.4,3.1,9.5v2.8h-16.5c0.2,1.7,0.9,3,2,4.1c1.1,1,2.5,1.5,4.3,1.5c2.7,0,4.7-1,6.2-2.9l3.4,3.8
			c-1,1.5-2.4,2.6-4.2,3.4S216.8,108.4,214.6,108.4z M213.9,87.2c-1.4,0-2.5,0.5-3.3,1.4c-0.9,0.9-1.4,2.3-1.6,4h9.6V92
			c0-1.5-0.4-2.7-1.2-3.6C216.5,87.6,215.3,87.2,213.9,87.2z"/>
		<path d="M240,102.8c1.3,0,2.3-0.4,3.1-1.1s1.2-1.6,1.2-2.8h6.5c0,1.8-0.5,3.4-1.4,4.8c-0.9,1.5-2.2,2.6-3.9,3.4
			c-1.6,0.8-3.4,1.2-5.4,1.2c-3.7,0-6.6-1.2-8.8-3.5c-2.1-2.4-3.2-5.6-3.2-9.8v-0.5c0-4,1.1-7.2,3.2-9.5c2.1-2.4,5-3.6,8.7-3.6
			c3.2,0,5.8,0.9,7.8,2.8c2,1.8,2.9,4.3,3,7.4h-6.5c0-1.3-0.4-2.4-1.2-3.3s-1.9-1.3-3.2-1.3c-1.6,0-2.8,0.6-3.6,1.8S235,92,235,94.6
			v0.7c0,2.7,0.4,4.6,1.2,5.8C237.1,102.3,238.3,102.8,240,102.8z"/>
		<path d="M266.7,108.4c-3.8,0-6.9-1.2-9.3-3.5s-3.6-5.4-3.6-9.3V95c0-2.6,0.5-4.9,1.5-7s2.4-3.6,4.3-4.7c1.8-1.1,3.9-1.7,6.3-1.7
			c3.5,0,6.3,1.1,8.4,3.3c2,2.2,3.1,5.4,3.1,9.5v2.8h-16.5c0.2,1.7,0.9,3,2,4.1c1.1,1,2.5,1.5,4.3,1.5c2.7,0,4.7-1,6.2-2.9l3.4,3.8
			c-1,1.5-2.4,2.6-4.2,3.4S268.8,108.4,266.7,108.4z M265.9,87.2c-1.4,0-2.5,0.5-3.3,1.4s-1.4,2.3-1.6,4h9.6V92
			c0-1.5-0.4-2.7-1.2-3.6C268.5,87.6,267.4,87.2,265.9,87.2z"/>
		<path d="M295.3,100.8c0-0.8-0.4-1.5-1.3-2c-0.8-0.5-2.2-0.9-4-1.3c-6.2-1.3-9.2-3.9-9.2-7.8c0-2.3,1-4.2,2.9-5.8
			c1.9-1.5,4.4-2.3,7.5-2.3c3.3,0,5.9,0.8,7.9,2.3s3,3.6,3,6H295c0-1-0.3-1.8-1-2.5c-0.6-0.6-1.6-1-3-1c-1.2,0-2.1,0.3-2.7,0.8
			s-1,1.2-1,2s0.4,1.4,1.1,1.9s2,0.9,3.7,1.2s3.2,0.7,4.4,1.2c3.7,1.3,5.5,3.7,5.5,7c0,2.4-1,4.3-3,5.7c-2,1.5-4.6,2.2-7.8,2.2
			c-2.2,0-4.1-0.4-5.8-1.2s-3-1.8-4-3.2c-1-1.3-1.4-2.8-1.4-4.4h6.6c0.1,1.2,0.5,2.2,1.4,2.8c0.8,0.7,2,1,3.4,1c1.3,0,2.3-0.3,3-0.8
			C294.9,102.3,295.3,101.6,295.3,100.8z"/>
		<path d="M306.4,75.4c0-1,0.3-1.9,1-2.6s1.6-1,2.8-1c1.2,0,2.1,0.3,2.8,1s1.1,1.5,1.1,2.6s-0.4,1.9-1.1,2.6s-1.6,1-2.8,1
			s-2.1-0.3-2.8-1C306.8,77.3,306.4,76.4,306.4,75.4z M313.7,107.9h-6.9V82.1h6.9V107.9z"/>
		<path d="M327.7,75.7v6.4h4.4v5.1h-4.4V100c0,1,0.2,1.6,0.5,2.1s1.1,0.6,2.1,0.6c0.8,0,1.4-0.1,2-0.2v5.2c-1.4,0.4-2.8,0.6-4.2,0.6
			c-4.8,0-7.3-2.4-7.4-7.3V87.1H317V82h3.8v-6.4L327.7,75.7L327.7,75.7z"/>
		<path d="M351,107.9c-0.3-0.6-0.5-1.4-0.7-2.3c-1.7,1.9-3.9,2.8-6.5,2.8c-2.5,0-4.6-0.7-6.3-2.2c-1.7-1.5-2.5-3.3-2.5-5.6
			c0-2.7,1-4.8,3.1-6.3c2-1.5,5-2.2,8.8-2.2h3.2v-1.5c0-1.2-0.3-2.2-0.9-2.9c-0.6-0.7-1.6-1.1-2.9-1.1c-1.2,0-2.1,0.3-2.7,0.8
			c-0.7,0.6-1,1.3-1,2.3h-6.9c0-1.5,0.5-2.9,1.4-4.2c0.9-1.3,2.2-2.3,3.9-3s3.6-1.1,5.7-1.1c3.2,0,5.7,0.8,7.6,2.4s2.8,3.9,2.8,6.8
			V102c0,2.5,0.4,4.3,1,5.6v0.4L351,107.9L351,107.9z M345.3,103.1c1,0,2-0.2,2.8-0.7c0.9-0.5,1.5-1.1,1.9-1.8v-4.5h-2.6
			c-3.5,0-5.3,1.2-5.5,3.6v0.4c0,0.9,0.3,1.6,0.9,2.1C343.4,102.9,344.2,103.1,345.3,103.1z"/>
		<path d="M376.3,100.8c0-0.8-0.4-1.5-1.3-2c-0.8-0.5-2.2-0.9-4-1.3c-6.2-1.3-9.2-3.9-9.2-7.8c0-2.3,1-4.2,2.9-5.8
			c1.9-1.5,4.4-2.3,7.5-2.3c3.3,0,5.9,0.8,7.9,2.3s3,3.6,3,6H376c0-1-0.3-1.8-1-2.5c-0.6-0.6-1.6-1-3-1c-1.2,0-2.1,0.3-2.7,0.8
			s-1,1.2-1,2s0.4,1.4,1.1,1.9s2,0.9,3.7,1.2s3.2,0.7,4.4,1.2c3.7,1.3,5.5,3.7,5.5,7c0,2.4-1,4.3-3,5.7c-2,1.5-4.6,2.2-7.8,2.2
			c-2.2,0-4.1-0.4-5.8-1.2s-3-1.8-4-3.2c-1-1.3-1.4-2.8-1.4-4.4h6.6c0.1,1.2,0.5,2.2,1.4,2.8c0.8,0.7,2,1,3.4,1c1.3,0,2.3-0.3,3-0.8
			C375.9,102.3,376.3,101.6,376.3,100.8z"/>
		<path d="M414.7,107.9c-0.3-0.6-0.6-1.4-0.7-2.3c-1.7,1.9-3.9,2.8-6.5,2.8c-2.5,0-4.6-0.7-6.3-2.2s-2.5-3.3-2.5-5.6
			c0-2.7,1-4.8,3.1-6.3c2-1.5,5-2.2,8.8-2.2h3.2v-1.5c0-1.2-0.3-2.2-0.9-2.9c-0.6-0.7-1.6-1.1-2.9-1.1c-1.2,0-2.1,0.3-2.7,0.8
			c-0.7,0.6-1,1.3-1,2.3h-6.9c0-1.5,0.5-2.9,1.4-4.2c0.9-1.3,2.2-2.3,3.9-3c1.7-0.7,3.6-1.1,5.7-1.1c3.2,0,5.7,0.8,7.6,2.4
			s2.8,3.9,2.8,6.8V102c0,2.5,0.4,4.3,1,5.6v0.4L414.7,107.9L414.7,107.9z M408.9,103.1c1,0,2-0.2,2.8-0.7c0.9-0.5,1.5-1.1,1.9-1.8
			v-4.5H411c-3.5,0-5.3,1.2-5.5,3.6v0.4c0,0.9,0.3,1.6,0.9,2.1S407.9,103.1,408.9,103.1z"/>
		<path d="M435.2,98.2l4.8-16.1h7.4L437,112l-0.6,1.4c-1.5,3.4-4.1,5.1-7.7,5.1c-1,0-2-0.2-3.1-0.5v-5.2h1.1c1.3,0,2.3-0.2,2.9-0.6
			s1.2-1.1,1.5-2l0.8-2.1l-9.1-26h7.4L435.2,98.2z"/>
		<path d="M465.7,105.3c-1.7,2.1-4.1,3.1-7.1,3.1c-2.8,0-4.9-0.8-6.4-2.4s-2.2-3.9-2.2-7V82h6.9v16.7c0,2.7,1.2,4,3.7,4
			c2.3,0,4-0.8,4.8-2.4V82.1h6.9V108h-6.5L465.7,105.3z"/>
		<path d="M476.5,94.8c0-4,0.9-7.3,2.7-9.6s4.3-3.6,7.4-3.6c2.5,0,4.6,0.9,6.2,2.8V71.2h6.9V108h-6.2l-0.3-2.8
			c-1.7,2.2-3.9,3.2-6.7,3.2c-3,0-5.5-1.2-7.3-3.6C477.4,102.4,476.5,99.1,476.5,94.8z M483.4,95.3c0,2.4,0.4,4.3,1.3,5.6
			s2.1,1.9,3.7,1.9c2.1,0,3.6-0.9,4.5-2.7V89.9c-0.9-1.8-2.4-2.7-4.5-2.7C485.1,87.2,483.4,89.9,483.4,95.3z"/>
		<path d="M520.2,107.9c-0.3-0.6-0.5-1.4-0.7-2.3c-1.7,1.9-3.9,2.8-6.5,2.8c-2.5,0-4.6-0.7-6.3-2.2c-1.7-1.5-2.5-3.3-2.5-5.6
			c0-2.7,1-4.8,3.1-6.3c2-1.5,5-2.2,8.8-2.2h3.2v-1.5c0-1.2-0.3-2.2-0.9-2.9c-0.6-0.7-1.6-1.1-2.9-1.1c-1.2,0-2.1,0.3-2.7,0.8
			c-0.7,0.6-1,1.3-1,2.3h-6.9c0-1.5,0.5-2.9,1.4-4.2c0.9-1.3,2.2-2.3,3.9-3s3.6-1.1,5.7-1.1c3.2,0,5.7,0.8,7.6,2.4
			c1.9,1.6,2.8,3.9,2.8,6.8V102c0,2.5,0.4,4.3,1,5.6v0.4L520.2,107.9L520.2,107.9z M514.5,103.1c1,0,2-0.2,2.8-0.7
			c0.9-0.5,1.5-1.1,1.9-1.8v-4.5h-2.6c-3.5,0-5.3,1.2-5.5,3.6v0.4c0,0.9,0.3,1.6,0.9,2.1C512.6,102.9,513.4,103.1,514.5,103.1z"/>
		<path d="M558.7,107.9c-0.3-0.6-0.5-1.4-0.7-2.3c-1.7,1.9-3.9,2.8-6.5,2.8c-2.5,0-4.6-0.7-6.3-2.2s-2.5-3.3-2.5-5.6
			c0-2.7,1-4.8,3.1-6.3c2-1.5,5-2.2,8.8-2.2h3.2v-1.5c0-1.2-0.3-2.2-0.9-2.9c-0.6-0.7-1.6-1.1-2.9-1.1c-1.2,0-2.1,0.3-2.7,0.8
			c-0.7,0.6-1,1.3-1,2.3h-6.9c0-1.5,0.5-2.9,1.4-4.2c0.9-1.3,2.2-2.3,3.9-3s3.6-1.1,5.7-1.1c3.2,0,5.7,0.8,7.6,2.4
			c1.9,1.6,2.8,3.9,2.8,6.8V102c0,2.5,0.4,4.3,1,5.6v0.4L558.7,107.9L558.7,107.9z M553,103.1c1,0,2-0.2,2.8-0.7
			c0.9-0.5,1.5-1.1,1.9-1.8v-4.5h-2.6c-3.5,0-5.3,1.2-5.5,3.6v0.4c0,0.9,0.3,1.6,0.9,2.1C551.1,102.9,551.9,103.1,553,103.1z"/>
		<path d="M568.9,94.8c0-4,0.9-7.3,2.7-9.6s4.3-3.6,7.4-3.6c2.5,0,4.6,0.9,6.2,2.8V71.2h6.9V108h-6.2l-0.3-2.8
			c-1.7,2.2-3.9,3.2-6.7,3.2c-3,0-5.5-1.2-7.3-3.6C569.8,102.4,568.9,99.1,568.9,94.8z M575.8,95.3c0,2.4,0.4,4.3,1.3,5.6
			s2.1,1.9,3.7,1.9c2.1,0,3.6-0.9,4.5-2.7V89.9c-0.9-1.8-2.4-2.7-4.5-2.7C577.4,87.2,575.8,89.9,575.8,95.3z"/>
		<path d="M604,82.1l0.2,2.9c1.8-2.3,4.3-3.4,7.4-3.4c3.3,0,5.6,1.3,6.9,3.9c1.8-2.6,4.4-3.9,7.8-3.9c2.8,0,4.9,0.8,6.3,2.5
			c1.4,1.6,2.1,4.1,2.1,7.4V108h-6.9V91.4c0-1.5-0.3-2.5-0.9-3.2s-1.6-1-3-1c-2.1,0-3.5,1-4.3,3V108h-6.9V91.5
			c0-1.5-0.3-2.6-0.9-3.3s-1.6-1-3-1c-2,0-3.4,0.8-4.3,2.4v18.3h-6.9V82.1H604z"/>
		<path d="M639.9,75.4c0-1,0.3-1.9,1-2.6s1.6-1,2.8-1s2.1,0.3,2.8,1s1.1,1.5,1.1,2.6s-0.4,1.9-1.1,2.6s-1.6,1-2.8,1s-2.1-0.3-2.8-1
			C640.3,77.3,639.9,76.4,639.9,75.4z M647.3,107.9h-6.9V82.1h6.9V107.9z"/>
		<path d="M659.3,82.1l0.2,3c1.9-2.3,4.3-3.5,7.4-3.5c2.7,0,4.8,0.8,6.1,2.4s2,4,2.1,7.2v16.7h-6.9V91.4c0-1.5-0.3-2.5-1-3.2
			c-0.6-0.7-1.7-1-3.2-1c-1.9,0-3.4,0.8-4.4,2.5V108h-6.9V82.1H659.3z"/>
		<path d="M680.4,75.4c0-1,0.3-1.9,1-2.6s1.6-1,2.8-1s2.1,0.3,2.8,1s1.1,1.5,1.1,2.6s-0.4,1.9-1.1,2.6s-1.6,1-2.8,1s-2.1-0.3-2.8-1
			S680.4,76.4,680.4,75.4z M687.7,107.9h-6.9V82.1h6.9V107.9z"/>
		<path d="M707.4,100.8c0-0.8-0.4-1.5-1.3-2c-0.8-0.5-2.2-0.9-4-1.3c-6.2-1.3-9.2-3.9-9.2-7.8c0-2.3,1-4.2,2.9-5.8
			c1.9-1.5,4.4-2.3,7.5-2.3c3.3,0,5.9,0.8,7.9,2.3s3,3.6,3,6h-6.9c0-1-0.3-1.8-1-2.5c-0.6-0.6-1.6-1-3-1c-1.2,0-2.1,0.3-2.7,0.8
			c-0.6,0.5-1,1.2-1,2s0.4,1.4,1.1,1.9c0.7,0.5,2,0.9,3.7,1.2s3.2,0.7,4.4,1.2c3.7,1.3,5.5,3.7,5.5,7c0,2.4-1,4.3-3,5.7
			c-2,1.5-4.6,2.2-7.8,2.2c-2.2,0-4.1-0.4-5.8-1.2s-3-1.8-4-3.2c-1-1.3-1.4-2.8-1.4-4.4h6.6c0.1,1.2,0.5,2.2,1.4,2.8
			c0.8,0.7,2,1,3.4,1c1.3,0,2.3-0.3,3-0.8C707.1,102.3,707.4,101.6,707.4,100.8z"/>
		<path d="M726.9,75.7v6.4h4.4v5.1h-4.4V100c0,1,0.2,1.6,0.6,2.1c0.4,0.4,1.1,0.6,2.1,0.6c0.8,0,1.4-0.1,2-0.2v5.2
			c-1.4,0.4-2.8,0.6-4.2,0.6c-4.8,0-7.3-2.4-7.4-7.3V87.1h-3.8V82h3.8v-6.4L726.9,75.7L726.9,75.7z"/>
		<path d="M749.7,88.5c-0.9-0.1-1.8-0.2-2.5-0.2c-2.6,0-4.3,0.9-5.1,2.7v16.9h-6.9V82.1h6.5l0.2,3.1c1.4-2.4,3.3-3.6,5.8-3.6
			c0.8,0,1.5,0.1,2.2,0.3L749.7,88.5z"/>
		<path d="M767.3,107.9c-0.3-0.6-0.5-1.4-0.7-2.3c-1.7,1.9-3.9,2.8-6.5,2.8c-2.5,0-4.6-0.7-6.3-2.2s-2.5-3.3-2.5-5.6
			c0-2.7,1-4.8,3.1-6.3c2-1.5,5-2.2,8.8-2.2h3.2v-1.5c0-1.2-0.3-2.2-0.9-2.9c-0.6-0.7-1.6-1.1-2.9-1.1c-1.2,0-2.1,0.3-2.7,0.8
			c-0.7,0.6-1,1.3-1,2.3H752c0-1.5,0.5-2.9,1.4-4.2c0.9-1.3,2.2-2.3,3.9-3s3.6-1.1,5.7-1.1c3.2,0,5.7,0.8,7.6,2.4
			c1.9,1.6,2.8,3.9,2.8,6.8V102c0,2.5,0.4,4.3,1,5.6v0.4L767.3,107.9L767.3,107.9z M761.6,103.1c1,0,2-0.2,2.8-0.7
			c0.9-0.5,1.5-1.1,1.9-1.8v-4.5h-2.6c-3.5,0-5.3,1.2-5.5,3.6v0.4c0,0.9,0.3,1.6,0.9,2.1C759.7,102.9,760.5,103.1,761.6,103.1z"/>
		<path d="M786.8,75.7v6.4h4.4v5.1h-4.4V100c0,1,0.2,1.6,0.5,2.1s1.1,0.6,2.1,0.6c0.8,0,1.4-0.1,2-0.2v5.2c-1.4,0.4-2.8,0.6-4.2,0.6
			c-4.8,0-7.3-2.4-7.4-7.3V87.1H776V82h3.8v-6.4L786.8,75.7L786.8,75.7z"/>
		<path d="M795.1,75.4c0-1,0.3-1.9,1-2.6s1.6-1,2.8-1s2.1,0.3,2.8,1s1.1,1.5,1.1,2.6s-0.4,1.9-1.1,2.6c-0.7,0.7-1.6,1-2.8,1
			s-2.1-0.3-2.8-1S795.1,76.4,795.1,75.4z M802.4,107.9h-6.9V82.1h6.9V107.9z"/>
		<path d="M817.8,99.5l4.8-17.4h7.2l-8.7,25.9h-6.6l-8.7-25.9h7.2L817.8,99.5z"/>
		<path d="M847.5,107.9c-0.3-0.6-0.6-1.4-0.7-2.3c-1.7,1.9-3.9,2.8-6.5,2.8c-2.5,0-4.6-0.7-6.3-2.2s-2.5-3.3-2.5-5.6
			c0-2.7,1-4.8,3.1-6.3c2-1.5,5-2.2,8.8-2.2h3.2v-1.5c0-1.2-0.3-2.2-0.9-2.9c-0.6-0.7-1.6-1.1-2.9-1.1c-1.2,0-2.1,0.3-2.7,0.8
			c-0.7,0.6-1,1.3-1,2.3h-6.9c0-1.5,0.5-2.9,1.4-4.2c0.9-1.3,2.2-2.3,3.9-3s3.6-1.1,5.7-1.1c3.2,0,5.7,0.8,7.6,2.4
			c1.9,1.6,2.8,3.9,2.8,6.8V102c0,2.5,0.4,4.3,1,5.6v0.4L847.5,107.9L847.5,107.9z M841.8,103.1c1,0,2-0.2,2.8-0.7
			c0.9-0.5,1.5-1.1,1.9-1.8v-4.5H844c-3.5,0-5.3,1.2-5.5,3.6v0.4c0,0.9,0.3,1.6,0.9,2.1S840.8,103.1,841.8,103.1z"/>
		<path d="M864.4,97.3c0-2.2,0.3-4,0.8-5.3s1.5-2.6,3-3.9c1.4-1.3,2.4-2.3,2.9-3.1s0.7-1.7,0.7-2.6c0-2.7-1.2-4-3.7-4
			c-1.2,0-2.1,0.4-2.8,1.1s-1.1,1.7-1.1,3h-6.9c0-3,1-5.4,3-7.2c1.9-1.7,4.6-2.6,7.9-2.6c3.4,0,6,0.8,7.9,2.5s2.8,3.9,2.8,6.9
			c0,1.4-0.3,2.6-0.9,3.8c-0.6,1.2-1.7,2.5-3.2,4l-1.9,1.8c-1.2,1.2-1.9,2.5-2.1,4.1l-0.1,1.5C870.7,97.3,864.4,97.3,864.4,97.3z
			 M863.7,104.6c0-1.1,0.4-1.9,1.1-2.6c0.7-0.7,1.7-1,2.8-1s2.1,0.3,2.8,1s1.1,1.6,1.1,2.6s-0.4,1.9-1.1,2.6c-0.7,0.7-1.6,1-2.8,1
			s-2.1-0.3-2.8-1S863.7,105.7,863.7,104.6z"/>
	</g>
	<g>
		<g>
			<path d="M355.3,149.7h-15.1V162h17.5v3.8h-22.1V131h21.9v3.8h-17.3V146h15.1V149.7z"/>
			<path d="M377.9,158.9c0-1.2-0.5-2.1-1.4-2.8s-2.5-1.2-4.7-1.7s-4-1.1-5.3-1.7c-1.3-0.7-2.3-1.5-2.9-2.4s-0.9-2-0.9-3.3
				c0-2.1,0.9-3.9,2.7-5.4c1.8-1.5,4.1-2.2,6.9-2.2c2.9,0,5.3,0.8,7.1,2.3c1.8,1.5,2.7,3.5,2.7,5.8h-4.5c0-1.2-0.5-2.3-1.5-3.1
				c-1-0.9-2.3-1.3-3.9-1.3s-2.9,0.4-3.8,1.1s-1.4,1.6-1.4,2.8c0,1.1,0.4,1.9,1.3,2.4c0.8,0.5,2.4,1.1,4.6,1.6s4,1.1,5.4,1.8
				s2.4,1.5,3.1,2.5s1,2.1,1,3.5c0,2.3-0.9,4.2-2.8,5.6c-1.9,1.4-4.3,2.1-7.2,2.1c-2.1,0-3.9-0.4-5.5-1.1c-1.6-0.7-2.8-1.8-3.7-3.1
				c-0.9-1.3-1.4-2.7-1.4-4.3h4.4c0.1,1.5,0.7,2.7,1.8,3.5c1.1,0.9,2.6,1.3,4.4,1.3c1.7,0,3-0.3,4-1
				C377.3,161,377.9,160.1,377.9,158.9z"/>
			<path d="M398.4,162.7c1.6,0,3-0.5,4.1-1.4s1.8-2.2,2-3.6h4.2c-0.1,1.5-0.6,2.9-1.5,4.2s-2.2,2.4-3.8,3.2s-3.2,1.2-5,1.2
				c-3.5,0-6.3-1.2-8.4-3.5c-2.1-2.4-3.1-5.6-3.1-9.7v-0.7c0-2.5,0.5-4.8,1.4-6.7c0.9-2,2.3-3.5,4-4.6s3.8-1.6,6.1-1.6
				c2.9,0,5.3,0.9,7.2,2.6c1.9,1.7,2.9,4,3.1,6.8h-4.2c-0.1-1.7-0.8-3.1-1.9-4.1c-1.1-1.1-2.5-1.6-4.2-1.6c-2.2,0-4,0.8-5.2,2.4
				s-1.9,4-1.9,7v0.8c0,3,0.6,5.3,1.8,6.9C394.4,161.9,396.2,162.7,398.4,162.7z"/>
			<path d="M426.2,143.9c-0.7-0.1-1.4-0.2-2.2-0.2c-2.9,0-4.9,1.2-5.9,3.7v18.4h-4.4v-25.9h4.3l0.1,3c1.5-2.3,3.5-3.5,6.2-3.5
				c0.9,0,1.5,0.1,2,0.3v4.2H426.2z"/>
			<path d="M430.3,133.1c0-0.7,0.2-1.3,0.7-1.8c0.4-0.5,1.1-0.7,2-0.7s1.5,0.2,2,0.7c0.4,0.5,0.7,1.1,0.7,1.8s-0.2,1.3-0.7,1.8
				s-1.1,0.7-2,0.7s-1.5-0.2-2-0.7C430.5,134.4,430.3,133.8,430.3,133.1z M435.1,165.8h-4.4v-25.9h4.4V165.8z"/>
			<path d="M464.1,153.2c0,4-0.9,7.1-2.7,9.5s-4.3,3.6-7.3,3.6c-3.3,0-5.8-1.2-7.6-3.5l-0.2,3h-4.1V129h4.4v13.7
				c1.8-2.2,4.3-3.3,7.4-3.3s5.6,1.2,7.4,3.6c1.8,2.4,2.7,5.6,2.7,9.8L464.1,153.2L464.1,153.2z M459.7,152.7c0-3-0.6-5.3-1.7-7
				c-1.2-1.6-2.8-2.5-5-2.5c-2.9,0-5,1.4-6.3,4.1v11.2c1.4,2.7,3.5,4.1,6.3,4.1c2.1,0,3.8-0.8,5-2.5S459.7,156,459.7,152.7z"/>
			<path d="M469.7,133.1c0-0.7,0.2-1.3,0.7-1.8c0.4-0.5,1.1-0.7,2-0.7s1.5,0.2,2,0.7c0.4,0.5,0.7,1.1,0.7,1.8s-0.2,1.3-0.7,1.8
				s-1.1,0.7-2,0.7s-1.5-0.2-2-0.7C469.9,134.4,469.7,133.8,469.7,133.1z M474.5,165.8H470v-25.9h4.4v25.9H474.5z"/>
			<path d="M485.7,139.9l0.1,3.3c2-2.5,4.6-3.7,7.8-3.7c5.5,0,8.2,3.1,8.3,9.3v17.1h-4.4v-17.1c0-1.9-0.4-3.2-1.3-4.1
				c-0.8-0.9-2.1-1.3-3.9-1.3c-1.4,0-2.7,0.4-3.8,1.1s-1.9,1.8-2.5,3v18.4h-4.4V140h4.1V139.9z"/>
			<path d="M507.4,152.6c0-2.5,0.5-4.8,1.5-6.8s2.4-3.6,4.2-4.7c1.8-1.1,3.8-1.7,6.1-1.7c3.5,0,6.4,1.2,8.6,3.7
				c2.2,2.4,3.3,5.7,3.3,9.7v0.3c0,2.5-0.5,4.8-1.4,6.8c-1,2-2.3,3.6-4.1,4.7c-1.8,1.1-3.9,1.7-6.2,1.7c-3.5,0-6.4-1.2-8.5-3.7
				c-2.2-2.4-3.3-5.7-3.3-9.7v-0.3H507.4z M511.9,153.2c0,2.9,0.7,5.2,2,6.9s3.1,2.6,5.3,2.6s4-0.9,5.4-2.6c1.3-1.8,2-4.2,2-7.4
				c0-2.8-0.7-5.1-2-6.9c-1.3-1.8-3.1-2.6-5.4-2.6c-2.2,0-3.9,0.9-5.3,2.6C512.5,147.4,511.9,149.9,511.9,153.2z"/>
			<path d="M551.6,158.9c0-1.2-0.5-2.1-1.4-2.8s-2.5-1.2-4.7-1.7s-4-1.1-5.3-1.7c-1.3-0.7-2.3-1.5-2.9-2.4c-0.6-0.9-0.9-2-0.9-3.3
				c0-2.1,0.9-3.9,2.7-5.4s4.1-2.2,6.9-2.2c2.9,0,5.3,0.8,7.1,2.3s2.7,3.5,2.7,5.8h-4.5c0-1.2-0.5-2.3-1.5-3.1
				c-1-0.9-2.3-1.3-3.9-1.3c-1.6,0-2.9,0.4-3.8,1.1s-1.4,1.6-1.4,2.8c0,1.1,0.4,1.9,1.3,2.4c0.8,0.5,2.4,1.1,4.6,1.6
				c2.2,0.5,4,1.1,5.4,1.8s2.4,1.5,3.1,2.5c0.7,1,1,2.1,1,3.5c0,2.3-0.9,4.2-2.8,5.6c-1.9,1.4-4.3,2.1-7.2,2.1
				c-2.1,0-3.9-0.4-5.5-1.1c-1.6-0.7-2.8-1.8-3.7-3.1s-1.4-2.7-1.4-4.3h4.4c0.1,1.5,0.7,2.7,1.8,3.5c1.1,0.9,2.6,1.3,4.4,1.3
				c1.7,0,3-0.3,4-1C551.1,161,551.6,160.1,551.6,158.9z"/>
			<path d="M589.9,165.8c-0.3-0.5-0.5-1.4-0.6-2.7c-2.1,2.1-4.5,3.2-7.4,3.2c-2.6,0-4.6-0.7-6.3-2.2s-2.5-3.3-2.5-5.5
				c0-2.7,1-4.8,3.1-6.3s4.9-2.2,8.6-2.2h4.3v-2c0-1.5-0.5-2.8-1.4-3.7s-2.3-1.4-4.1-1.4c-1.6,0-2.9,0.4-4,1.2s-1.6,1.8-1.6,2.9
				h-4.5c0-1.3,0.5-2.5,1.4-3.7s2.2-2.2,3.7-2.9c1.6-0.7,3.3-1.1,5.2-1.1c3,0,5.3,0.7,7,2.2s2.6,3.5,2.6,6.2v11.9
				c0,2.4,0.3,4.3,0.9,5.7v0.4L589.9,165.8L589.9,165.8z M582.6,162.4c1.4,0,2.7-0.4,3.9-1.1s2.1-1.7,2.7-2.8v-5.3h-3.5
				c-5.4,0-8.1,1.6-8.1,4.8c0,1.4,0.5,2.5,1.4,3.3S581.1,162.4,582.6,162.4z"/>
			<path d="M599.5,152.7c0-4.1,0.9-7.3,2.8-9.7c1.9-2.4,4.4-3.6,7.5-3.6s5.5,1,7.3,3.1l0.2-2.6h4.1v35.8H617v-12.3
				c-1.8,1.9-4.2,2.9-7.1,2.9c-3.1,0-5.6-1.2-7.5-3.6s-2.8-5.7-2.8-9.7L599.5,152.7L599.5,152.7z M603.9,153.2c0,3,0.6,5.3,1.9,7
				c1.3,1.7,2.9,2.5,5.1,2.5c2.6,0,4.6-1.2,6-3.5v-12.7c-1.4-2.3-3.4-3.4-6-3.4c-2.1,0-3.8,0.8-5.1,2.5
				C604.6,147.3,603.9,149.8,603.9,153.2z"/>
			<path d="M644.4,163.3c-1.7,2-4.3,3-7.6,3c-2.8,0-4.9-0.8-6.3-2.4c-1.4-1.6-2.2-4-2.2-7.1V140h4.4v16.7c0,3.9,1.6,5.9,4.8,5.9
				c3.4,0,5.6-1.3,6.7-3.8V140h4.4v25.9h-4.2L644.4,163.3z"/>
			<path d="M660.3,129.1h5.4l-6.4,7h-3.6L660.3,129.1z M660.3,165.8h-4.5v-25.9h4.5V165.8z"/>
		</g>
	</g>
</g>
<g>
	<text transform="matrix(1 0 0 1 1200.6434 289.959)" style="font-family:'Roboto-Bold'; font-size:49px;">¿Necesitas ayuda administrativa?</text>
	<g>
		<text transform="matrix(1 0 0 1 1391.1334 347.8296)" style="font-family:'Roboto-Regular'; font-size:49px;">Escribinos aquí</text>
	</g>
</g>
</svg>
