<?xml version="1.0" encoding="utf-8"?>
<!-- Generator: Adobe Illustrator 25.2.1, SVG Export Plug-In . SVG Version: 6.00 Build 0)  -->
<!DOCTYPE svg PUBLIC "-//W3C//DTD SVG 1.1//EN" "http://www.w3.org/Graphics/SVG/1.1/DTD/svg11.dtd" [
	<!ENTITY ns_extend "http://ns.adobe.com/Extensibility/1.0/">
	<!ENTITY ns_ai "http://ns.adobe.com/AdobeIllustrator/10.0/">
	<!ENTITY ns_graphs "http://ns.adobe.com/Graphs/1.0/">
	<!ENTITY ns_vars "http://ns.adobe.com/Variables/1.0/">
	<!ENTITY ns_imrep "http://ns.adobe.com/ImageReplacement/1.0/">
	<!ENTITY ns_sfw "http://ns.adobe.com/SaveForWeb/1.0/">
	<!ENTITY ns_custom "http://ns.adobe.com/GenericCustomNamespace/1.0/">
	<!ENTITY ns_adobe_xpath "http://ns.adobe.com/XPath/1.0/">
]>
<svg version="1.1" id="Capa_1" xmlns:x="&ns_extend;" xmlns:i="&ns_ai;" xmlns:graph="&ns_graphs;"
	 xmlns="http://www.w3.org/2000/svg" xmlns:xlink="http://www.w3.org/1999/xlink" x="0px" y="0px" viewBox="0 0 940.6 204.9"
	 style="enable-background:new 0 0 940.6 204.9;" xml:space="preserve">
<style type="text/css">
	.st0{fill:#1DA8DE;}
	.st1{fill:#F1F1F2;}
	.st2{fill:#FEC43E;}
	.st3{fill:#2E515A;}
	.st4{fill:#B1B5BA;}
	.st5{fill:#EA45A8;}
	.st6{clip-path:url(#SVGID_1_);}
	.st7{fill:#91452D;}
	.st8{fill:#000100;}
	.st9{fill:#F16E7F;}
	.st10{fill:#FFFFFF;}
	.st11{fill:#1C5191;}
	.st12{fill:none;stroke:#628ECC;stroke-width:0.7769;stroke-miterlimit:10;}
	.st13{fill:none;stroke:#628ECC;stroke-width:0.7769;stroke-linejoin:round;stroke-miterlimit:10;}
	.st14{fill:none;stroke:#9ABCEF;stroke-width:0.7769;stroke-miterlimit:10;}
	.st15{fill:none;stroke:#9ABCEF;stroke-width:0.7769;stroke-linejoin:round;stroke-miterlimit:10;}
	.st16{fill:#3E3D54;}
	.st17{fill:none;stroke:#000100;stroke-width:0.5827;stroke-miterlimit:10;}
	.st18{fill:#B2B2C1;}
	.st19{fill:#4973BB;}
	.st20{clip-path:url(#SVGID_2_);}
	.st21{fill:#3A6AAF;}
	.st22{fill:#4B7DC6;}
	.st23{fill:none;stroke:#FFFFFF;stroke-width:0.3884;stroke-miterlimit:10;}
	.st24{fill:none;stroke:#000100;stroke-width:0.5827;stroke-linecap:round;stroke-linejoin:round;stroke-miterlimit:10;}
	.st25{fill:none;stroke:#000100;stroke-width:0.7769;stroke-miterlimit:10;}
	.st26{enable-background:new    ;}
</style>
<metadata>
	<sfw  xmlns="&ns_sfw;">
		<slices></slices>
		<sliceSourceBounds  bottomLeftOrigin="true" height="851.5" width="1189.4" x="87.6" y="-921.4"></sliceSourceBounds>
	</sfw>
</metadata>
<path class="st0" d="M941.6,205.4h-702v-59.8c0-12.6,10.2-22.8,22.8-22.8h656.4c12.6,0,22.8,10.2,22.8,22.8V205.4z"/>
<g>
	<text transform="matrix(1 0 0 1 462.6021 684.506)" class="st10" style="font-family:'Roboto-Medium'; font-size:38px;">Avisos importantes</text>
</g>
<g>
	<g>
		<path class="st1" d="M20.4,31.7v154.8c0,9.3,7.6,16.9,16.9,16.9h168.8c9.3,0,16.9-7.6,16.9-16.9V31.7c0-9.3-7.6-16.9-16.9-16.9
			H37.3C27.9,14.9,20.4,22.4,20.4,31.7z"/>
		<path class="st2" d="M20.4,31.7v33.8H223V31.7c0-9.3-7.6-16.9-16.9-16.9H37.3C27.9,14.9,20.4,22.4,20.4,31.7z"/>
		<g>
			<path class="st3" d="M59.2,26.1c-4.7,0-8.4,3.8-8.4,8.4c0,4.7,3.8,8.4,8.4,8.4c4.7,0,8.4-3.8,8.4-8.4
				C67.6,29.9,63.9,26.1,59.2,26.1z"/>
			<path class="st4" d="M55,5v25.3c0,2.3,1.9,4.2,4.2,4.2l0,0c2.3,0,4.2-1.9,4.2-4.2V5c0-2.3-1.9-4.2-4.2-4.2l0,0
				C56.9,0.8,55,2.6,55,5z"/>
			<circle class="st3" cx="100.8" cy="34.5" r="8.4"/>
			<path class="st4" d="M96.6,5v25.3c0,2.3,1.9,4.2,4.2,4.2l0,0c2.3,0,4.2-1.9,4.2-4.2V5c0-2.3-1.9-4.2-4.2-4.2l0,0
				C98.5,0.8,96.6,2.6,96.6,5z"/>
			<circle class="st3" cx="142.5" cy="34.5" r="8.4"/>
			<path class="st4" d="M138.3,5v25.3c0,2.3,1.9,4.2,4.2,4.2l0,0c2.3,0,4.2-1.9,4.2-4.2V5c0-2.3-1.9-4.2-4.2-4.2l0,0
				C140.2,0.8,138.3,2.6,138.3,5z"/>
			<circle class="st3" cx="184.1" cy="34.5" r="8.4"/>
			<path class="st4" d="M179.9,5v25.3c0,2.3,1.9,4.2,4.2,4.2l0,0c2.3,0,4.2-1.9,4.2-4.2V5c0-2.3-1.9-4.2-4.2-4.2l0,0
				C181.8,0.8,179.9,2.6,179.9,5z"/>
		</g>
		<g>
			<path class="st4" d="M46.3,84.7v15.8c0,2.8,2.3,5.1,5.1,5.1h15.8c2.8,0,5.1-2.3,5.1-5.1V84.7c0-2.8-2.3-5.1-5.1-5.1H51.3
				C48.5,79.6,46.3,81.9,46.3,84.7z"/>
			<path class="st4" d="M87.9,84.7v15.8c0,2.8,2.3,5.1,5.1,5.1h15.8c2.8,0,5.1-2.3,5.1-5.1V84.7c0-2.8-2.3-5.1-5.1-5.1H93
				C90.2,79.6,87.9,81.9,87.9,84.7z"/>
			<path class="st4" d="M129.5,84.7v15.8c0,2.8,2.3,5.1,5.1,5.1h15.8c2.8,0,5.1-2.3,5.1-5.1V84.7c0-2.8-2.3-5.1-5.1-5.1h-15.8
				C131.8,79.6,129.5,81.9,129.5,84.7z"/>
			<path class="st4" d="M171.2,84.7v15.8c0,2.8,2.3,5.1,5.1,5.1H192c2.8,0,5.1-2.3,5.1-5.1V84.7c0-2.8-2.3-5.1-5.1-5.1h-15.8
				C173.5,79.6,171.2,81.9,171.2,84.7z"/>
		</g>
		<g>
			<path class="st4" d="M46.3,119.6v15.8c0,2.8,2.3,5.1,5.1,5.1h15.8c2.8,0,5.1-2.3,5.1-5.1v-15.8c0-2.8-2.3-5.1-5.1-5.1H51.3
				C48.5,114.5,46.3,116.8,46.3,119.6z"/>
			<path class="st4" d="M87.9,119.6v15.8c0,2.8,2.3,5.1,5.1,5.1h15.8c2.8,0,5.1-2.3,5.1-5.1v-15.8c0-2.8-2.3-5.1-5.1-5.1H93
				C90.2,114.5,87.9,116.8,87.9,119.6z"/>
			<path class="st5" d="M129.5,119.6v15.8c0,2.8,2.3,5.1,5.1,5.1h15.8c2.8,0,5.1-2.3,5.1-5.1v-15.8c0-2.8-2.3-5.1-5.1-5.1h-15.8
				C131.8,114.5,129.5,116.8,129.5,119.6z"/>
			<path class="st4" d="M171.2,119.6v15.8c0,2.8,2.3,5.1,5.1,5.1H192c2.8,0,5.1-2.3,5.1-5.1v-15.8c0-2.8-2.3-5.1-5.1-5.1h-15.8
				C173.5,114.5,171.2,116.8,171.2,119.6z"/>
		</g>
		<g>
			<path class="st4" d="M46.3,154.5v15.8c0,2.8,2.3,5.1,5.1,5.1h15.8c2.8,0,5.1-2.3,5.1-5.1v-15.8c0-2.8-2.3-5.1-5.1-5.1H51.3
				C48.5,149.4,46.3,151.7,46.3,154.5z"/>
			<path class="st4" d="M87.9,154.5v15.8c0,2.8,2.3,5.1,5.1,5.1h15.8c2.8,0,5.1-2.3,5.1-5.1v-15.8c0-2.8-2.3-5.1-5.1-5.1H93
				C90.2,149.4,87.9,151.7,87.9,154.5z"/>
			<path class="st4" d="M129.5,154.5v15.8c0,2.8,2.3,5.1,5.1,5.1h15.8c2.8,0,5.1-2.3,5.1-5.1v-15.8c0-2.8-2.3-5.1-5.1-5.1h-15.8
				C131.8,149.4,129.5,151.7,129.5,154.5z"/>
			<path class="st4" d="M171.2,154.5v15.8c0,2.8,2.3,5.1,5.1,5.1H192c2.8,0,5.1-2.3,5.1-5.1v-15.8c0-2.8-2.3-5.1-5.1-5.1h-15.8
				C173.5,149.4,171.2,151.7,171.2,154.5z"/>
		</g>
		<g>
			<g>
				<path class="st5" d="M78,53.5L78,53.5c0,2,1.6,3.7,3.7,3.7h53.7c2,0,3.7-1.6,3.7-3.7l0,0c0-2-1.6-3.7-3.7-3.7H81.6
					C79.6,49.8,78,51.4,78,53.5z"/>
				<path class="st5" d="M147,53.5L147,53.5c0,2,1.6,3.7,3.7,3.7h11c2,0,3.7-1.6,3.7-3.7l0,0c0-2-1.6-3.7-3.7-3.7h-11
					C148.6,49.8,147,51.4,147,53.5z"/>
			</g>
		</g>
	</g>
</g>
<g>
	<g>
		<g>
			<defs>
				<rect id="SVGID_5_" x="146.6" y="-18.8" width="491" height="313.1"/>
			</defs>
			<clipPath id="SVGID_1_">
				<use xlink:href="#SVGID_5_"  style="overflow:visible;"/>
			</clipPath>
			<g class="st6">
				<g>
					<path class="st7" d="M289.7,89.5c0,0-21.4,19.9-30.2,22.3c-17.5,4.7-55.3,7.9-55.3,7.9l-5.7-22.6c0,0,34.2-6.8,44.6-10.1
						c10.5-3.3,34-23.9,34-23.9"/>
					<g>
						<path class="st7" d="M213.3,118.8c0,0-26.9,4.1-33,3c-0.8-0.1-1.3-1.8-0.5-2.1c2.8-1.1,12.2-1.9,12.2-1.9s-13,0.8-16.2,0.4
							c-0.8-0.1-0.9-1.6-0.3-1.9c3.4-1.9,14.5-2.5,14.5-2.5s-11.4,0.5-15.5,0.2c-1-0.1-1-1.7-0.2-2.1c4-1.9,14.8-2.4,14.8-3
							c0,0-9.5,0.9-13.4,0.5c-0.9-0.1-1.6-1.6-0.1-2.2c4.4-1.4,14.5-2.4,14.7-3.3c0.2-1.4-4-1.6-6.1-2.6c-1-0.5-1.5-1.2-1-1.9
							c1-1.5,16.7-1.6,28.4-4.4"/>
					</g>
					<g>
						<g>
							<path class="st8" d="M194.2,116.5c-0.2,0.2,0.1,0.3,0.2,0.1c1-1.5,2.1-3,3.6-4c0.7-0.5,1.6-0.9,2.4-1.2
								c0.4-0.2,0.9-0.2,1.3-0.3c0.5-0.1,0.9,0,1.3-0.1c0.1-0.1,0.2-0.2,0-0.3c-0.9-0.2-1.9,0-2.7,0.2c-0.9,0.3-1.7,0.8-2.5,1.3
								C196.4,113.3,195.1,114.9,194.2,116.5L194.2,116.5z"/>
						</g>
					</g>
					<g>
						<g>
							<path class="st8" d="M192.7,103.4c-0.2-0.1-0.4,0.2-0.1,0.2c1.4,0.7,2.9,1.2,4.4,1.3c0.8,0.1,1.6,0.2,2.3,0.1
								c0.8,0,1.6-0.1,2.3-0.4c0.2-0.1,0.2-0.3-0.1-0.3c-0.8,0-1.5,0.2-2.3,0.2c-0.7,0.1-1.5,0.1-2.2,0
								C195.7,104.4,194.1,104,192.7,103.4L192.7,103.4z"/>
						</g>
					</g>
				</g>
				<polyline class="st9" points="326.7,259.8 324.6,367.4 359.3,367.4 364.4,259.8 				"/>
				<g>
					<polygon class="st10" points="360.2,362.3 324.2,360.6 324.2,371.2 360,370.8 					"/>
					<path class="st11" d="M360.2,367.4l21.5,11c1.5,0.8,2.4,2.3,2.4,4v4.1h-61.7l1.6-20.3L360.2,367.4z"/>
					<line class="st12" x1="384.1" y1="382.3" x2="322.8" y2="382.3"/>
					<path class="st12" d="M339.7,382.3c-4.7-11.1-16-12-16-12"/>
					<path class="st12" d="M369.9,382.3c0.2-4.2,4.5-7.7,4.5-7.7"/>
					<polyline class="st13" points="368.8,371.3 366.4,374.3 366.4,370.2 362.2,372.5 362.9,368.1 358.6,370.5 					"/>
					<line class="st12" x1="328.3" y1="364" x2="328.5" y2="360.8"/>
					<line class="st12" x1="334.7" y1="364.3" x2="334.8" y2="361.1"/>
					<line class="st12" x1="341.7" y1="364.6" x2="341.9" y2="361.5"/>
					<line class="st12" x1="348.2" y1="364.9" x2="348.3" y2="361.7"/>
					<line class="st12" x1="355.6" y1="365.3" x2="355.7" y2="362.1"/>
				</g>
				<polyline class="st9" points="315.4,259.8 300.2,367.4 265.5,367.4 277.6,259.8 				"/>
				<g>
					<polygon class="st10" points="264.7,362.3 301.4,360.6 300.7,371.2 264.9,370.8 					"/>
					<path class="st11" d="M264.7,367.4l-21.5,11c-1.5,0.8-2.4,2.3-2.4,4v4.1h61.7l-1.4-20.3L264.7,367.4z"/>
					<line class="st14" x1="240.8" y1="382.3" x2="302.1" y2="382.3"/>
					<path class="st14" d="M285.2,382.3c4.6-11.1,16.2-12,16.2-12"/>
					<path class="st14" d="M255,382.3c-0.2-4.2-4.5-7.7-4.5-7.7"/>
					<polyline class="st15" points="256,371.3 258.5,374.3 258.5,370.2 262.6,372.5 262,368.1 266.3,370.5 					"/>
					<line class="st14" x1="296.6" y1="364" x2="296.4" y2="360.8"/>
					<line class="st14" x1="290.1" y1="364.3" x2="290.1" y2="361.1"/>
					<line class="st14" x1="283.2" y1="364.6" x2="283" y2="361.5"/>
					<line class="st14" x1="276.7" y1="364.9" x2="276.6" y2="361.7"/>
					<line class="st14" x1="269.3" y1="365.3" x2="269.2" y2="362.1"/>
				</g>
				<path class="st16" d="M321.4,152.2v204.2h47c0,0,6.1-152.3,3.2-198.9"/>
				<line class="st17" x1="325.7" y1="152.2" x2="325.7" y2="356.3"/>
				<path class="st16" d="M287.7,146.7c0,0-8.9,29.3-10.6,50.7c-1.1,14.6-14.8,159.1-14.8,159.1l0,0h48.9l19.6-196.6"/>
				<path class="st17" d="M293.2,146.6c0,0-8.5,24-10.6,50.7c-1.5,20.1-14.8,159.1-14.8,159.1"/>
				<path class="st17" d="M330.9,159.7c-2.3,27.1-9.6,98.8-9.6,98.8"/>
				<rect x="320.7" y="349.3" class="st18" width="48.2" height="8.2"/>
				<polygon class="st18" points="261.6,357.5 312.1,357.5 312.8,349.3 262.3,349.3 				"/>
				<path class="st17" d="M285.1,178.1c4.4-1.8,8-4.4,10.2-7.7c2.6-3.9,6.4-13.8,6.4-13.8"/>
				<path class="st17" d="M362,157.8c0,0,1.3,11.7,2.9,16.1c1.6,4.4,7.4,8.3,7.4,8.3"/>
				<path class="st17" d="M328.8,182.2c0,0,4.4-1.5,5.2-3.2c1.2-2.6,4.4-18.1,4.4-18.1"/>
				<g>
					<path class="st7" d="M369.3,102.8c0,0,21.4,19.9,30.2,22.3c17.5,4.7,55.3,7.9,55.3,7.9l5.7-22.6c0,0-34.2-6.8-44.6-10.1
						c-10.5-3.3-34-23.9-34-23.9"/>
					<g>
						<path class="st7" d="M445.6,132.2c0,0,26.9,4.1,33,3c0.8-0.1,1.3-1.8,0.5-2.1c-2.8-1.1-12.2-1.9-12.2-1.9s13,0.8,16.2,0.4
							c0.8-0.1,0.9-1.6,0.3-1.9c-3.4-1.9-14.5-2.5-14.5-2.5s11.4,0.5,15.5,0.2c1-0.1,1-1.7,0.2-2.1c-4-1.9-14.8-2.4-14.8-3
							c0,0,9.5,0.9,13.4,0.5c0.9-0.1,1.6-1.6,0.1-2.2c-4.4-1.4-14.5-2.4-14.7-3.3c-0.2-1.4,4-1.6,6.1-2.6c1-0.5,1.5-1.2,1-1.9
							c-1-1.5-16.7-1.6-28.4-4.4"/>
					</g>
					<g>
						<g>
							<path class="st8" d="M464.6,130c0.1,0.1,0.3,0,0.2-0.1c-0.9-1.6-2.1-3.2-3.7-4.4c-0.8-0.5-1.6-1-2.5-1.3
								c-0.8-0.2-1.9-0.5-2.7-0.2c-0.2,0.1-0.2,0.3,0,0.3c0.5,0,0.9,0,1.4,0.1c0.5,0.1,0.9,0.2,1.3,0.3c0.9,0.3,1.6,0.7,2.3,1.2
								C462.5,127.1,463.5,128.5,464.6,130L464.6,130z"/>
						</g>
					</g>
					<g>
						<g>
							<path class="st8" d="M466.4,117c0.2-0.1,0-0.4-0.1-0.2c-1.4,0.6-3,1-4.5,1.2c-0.8,0.1-1.5,0.1-2.3,0c-0.8,0-1.5-0.2-2.2-0.2
								c-0.2,0-0.2,0.2-0.1,0.3c0.7,0.2,1.6,0.3,2.3,0.4c0.8,0.1,1.6,0,2.3-0.1C463.6,118.1,465,117.7,466.4,117L466.4,117z"/>
						</g>
					</g>
				</g>
				<g>
					<path class="st19" d="M289.7,94.8l-6.4,66.4l90.3,1.3l-3.1-55.4l4.6,4.7l18.4-28.5c0,0-12.4-13.2-17.2-19.4
						c-4.9-6.2-11.4-9.7-19-9.2l-13.4-0.2l-28.7,1.2c-9.9-3.1-23.2-4.1-34.2-1.2c-6.4,1.6-11.7,12.5-11.7,12.5l13.7,30.1"/>
				</g>
				<g>
					<g>
						<g>
							<defs>
								<path id="SVGID_7_" d="M289.7,94.8l-6.4,66.4l90.3,1.3l-3.1-55.4l4.6,4.7l18.4-28.5c0,0-12.4-13.2-17.2-19.4
									c-4.9-6.2-11.4-9.7-19-9.2l-13.4-0.2l-28.7,1.2c-9.9-3.1-23.1-3.3-34.2-1.2c-6.1,1.1-11.7,12.5-11.7,12.5l13.7,30.1"/>
							</defs>
							<clipPath id="SVGID_2_">
								<use xlink:href="#SVGID_7_"  style="overflow:visible;"/>
							</clipPath>
							<g class="st20">
								<g>
									<g>
										<g>
											<g>
												<path class="st21" d="M296.8,116.5c1.3,0.7,2.9,0.9,4.4,1.2c4.8,0.6,9.8,0.2,14.5-1.1c0.5-0.2,1.1-0.3,1.4-0.7
													c0.9-1,0-2.6-1.2-3.3c-1.2-0.6-2.6-0.7-3.7-1.4c-1.3-0.9-2.1-2.6-3.5-3.4c-1-0.5-2.3-0.6-3.5-0.6
													c-4.4,0-12.1-0.9-15.5,2.7c-2,2.6,3.3,4.3,4.8,5.3c0.3,0.2,0.6,0.5,0.9,0.6C295.8,116.1,296.3,116.4,296.8,116.5z"/>
											</g>
											<g>
												<path class="st21" d="M345.7,94.8c-1.7,0.2-6.8,1.5-6.8,3.9c0,0.6,0.4,1.2,0.6,1.7c0.2,0.5,0.4,1.3-0.1,1.7
													c-0.3,0.2-0.6,0.3-1,0.4c-2.6,0.5-5.1,1.5-7.5,2.7c-0.2,0.2-0.5,0.3-0.6,0.5c-0.2,0.4,0,0.8,0.2,1.1
													c0.9,1.6,2.6,2.5,4.4,2.9c1.7,0.4,3.6,0.5,5.3,1.2c1.3,0.5,2.5,1.2,3.8,1.7c1.6,0.5,3.4,0.5,5.2,0.5
													c3,0,6.4-0.1,8.6-2.2c0.6-0.6,1.2-1.4,1.9-1.9c1.4-0.9,3.2-1,4.8-1.3c1.6-0.3,3.4-1.3,3.7-3c0.2-1.8-1.6-3.2-3.2-3.9
													c-0.9-0.4-1.9-0.7-2.7-1.3c-0.9-0.7-1.3-1.7-2.2-2.5c-1.4-1.2-3.3-1.6-5.1-1.8c-1.9-0.2-3.7-0.4-5.6-0.5
													C348.2,94.8,346.9,94.8,345.7,94.8z"/>
											</g>
											<g>
												<path class="st21" d="M351.4,134.4c1.5,0.8,3.2,0.9,4.8,0.9c2.7,0,5.8-0.5,7.5-2.6c1-1.3,1.4-3.1,2.8-4
													c0.9-0.5,2.2-0.9,2.1-1.9c-0.1-0.8-1.1-1.2-1.9-1.4c-7-1.6-13.9-1.6-21-1.1c-2.5,0.2-4.7,4.1-2,5.6
													c0.9,0.5,1.8,0.6,2.7,1c1.7,0.8,2.8,2.4,4.4,3.4C351,134.2,351.1,134.3,351.4,134.4z"/>
											</g>
											<g>
												<path class="st21" d="M309.5,87.5c-1.3,0.2-2.8,0.7-3.4,1.9c-0.2,0.5-0.2,0.9-0.5,1.3c-0.5,0.6-1.4,0.8-1.9,1.3
													c-0.8,0.8-0.7,2.2-0.1,3c0.6,0.9,1.7,1.4,2.7,1.8c3.9,1.5,8.2,1.5,12.4,1.4c1.7-0.1,3.4-0.1,4.9-0.9
													c0.2-0.2,0.5-0.3,0.6-0.5c0.2-0.5,0-1.1,0.1-1.6c0.1-0.9,0.9-1.5,1.6-1.9c0.8-0.5,1.6-0.8,2.1-1.5
													c0.9-1.3-0.7-2.8-1.9-3.3c-2.2-0.9-4.7-0.8-7.1-0.9c-1.6-0.1-3-0.2-4.5-0.4C312.9,87.3,311.3,87.3,309.5,87.5z"/>
											</g>
											<g>
												<path class="st21" d="M320.1,125c4,0.9,9,0.5,12.4-2c1.1-0.9,2.1-2,2.1-3.4c-0.1-1.6-1.6-3-3.3-3
													c-1.7-0.1-3.3,0.9-5,1.2c-3,0.5-8.4-1.4-9,3C317,122.5,318.2,124.6,320.1,125z"/>
											</g>
											<g>
												<path class="st21" d="M300.2,143.4c1.1,0.8,1.9,1.9,3.1,2.6c2.2,1.3,4.8,1.1,7.3,0.8c1.6-0.2,3.1-0.5,4.5-1.2
													c1-0.5,1.9-1.3,2.7-2.1c1.3-1.2,2.6-2.5,4-3.7c0.3-0.2,0.6-0.6,0.6-1c0-0.5-0.5-0.9-1-1.1c-1.6-0.7-3.3-0.9-5-1
													c-3.3-0.3-6.8-0.5-10.1-0.5c-2.5-0.1-5.7-0.4-8.2,0.1c-2.8,0.5-3.7,3.5-1.3,5.3c0.8,0.6,1.8,0.9,2.7,1.5
													C299.8,143.1,300,143.2,300.2,143.4z"/>
											</g>
											<g>
												<path class="st21" d="M309.9,124.7c-1.9,0.1-3.4,1.6-3.5,3.5c-0.1,1.8,1.6,3.7,3.5,3.5c1.9-0.2,3.9-0.4,5.8-0.8
													c1.6-0.3,2.4-1.9,2.3-3.4c-0.2-1.4-1.6-2.9-3-2.7C313.2,124.6,311.7,124.6,309.9,124.7z"/>
											</g>
											<g>
												<path class="st21" d="M281.2,125.8c0,0.4-0.1,0.8,0,1.2c-0.4,0.9-0.5,2-0.2,3.1c0.6,2.2,2.3,3.3,4.4,3.3
													c2.3-0.1,4.5,0.5,6.8,0.3c2.4-0.2,4.7-0.9,6.5-2.5c0.4-0.4,0.8-0.8,1-1.3c0.5-1.2-0.2-2.6-1.2-3.5
													c-1-0.9-2.3-1.4-3.3-2.1c-1.6-1.1-2.8-2.6-4.3-3.9c-2.6-2.2-5.3-2.2-8.2-0.6C280.5,121,280.1,123.8,281.2,125.8z"/>
											</g>
											<g>
												<path class="st21" d="M337.6,153.8c1.1,0.2,2.2,0.4,3.3,0.4c3,0,6-1,8.9-2c2.8-1,5.1-2.4,7.5-4.2
													c1.8-1.3,1.2-3.5-0.7-4.2c-2.3-0.9-5.4,0-7.8,0.2c-2.9,0.3-5.7,0.3-8.5-0.1c-2.5-0.3-5-0.9-7.6-0.5
													c-0.5,0.1-1.1,0.2-1.6,0.6c-0.9,0.8-0.9,2.1-0.4,3.1c0.5,0.9,1.4,1.6,2.3,2.3s1.9,1.3,2.4,2.3c0.2,0.5,0.5,1.1,0.9,1.5
													c0.1,0.1,0.2,0.2,0.3,0.2C336.8,153.7,337.2,153.8,337.6,153.8z"/>
											</g>
											<g>
												<path class="st21" d="M365.8,150.8c-0.8,0.9-1.2,2.3-0.5,3.3c0.1,0.1,0.1,0.2,0.2,0.2c0.9,1.2,2.1,1.8,3.7,1.5
													c2.1-0.4,4.2-0.8,6.2-1.2c2.5-0.6,1.8-4.2-0.5-4.3c-1.9-0.1-3.8-0.2-5.7-0.7c-1-0.2-2.4,0-3.1,0.9
													C366,150.5,365.9,150.7,365.8,150.8z"/>
											</g>
											<g>
												<path class="st21" d="M328.8,164.2c1.3,0.7,2.6,1.2,4.2,0.8c0.7-0.2,1.2-0.4,2-0.5c1.8-0.2,3.5-0.5,5.2-0.9
													c3-0.5,3.1-5.7,0-6.1c-1.6-0.2-3.1-0.5-4.7-0.8c-2-0.4-3.7-1.4-5.7-0.6C326.5,157.4,325.2,162.4,328.8,164.2z"/>
											</g>
											<g>
												<path class="st21" d="M284.6,153.5c-0.4,1.2-0.2,2.6,0.7,3.4c0.9,0.9,2.3,1.1,3.7,1.2c3,0.3,6.1,0.5,9.2,0.9
													c3.1,0.3,6.3,0.6,9.4,0c0.8-0.2,1.6-0.5,1.9-1.1c0.7-1.2-0.5-2.6-1.8-3.1c-1.2-0.5-2.8-0.7-3.7-1.7
													c-0.2-0.2-0.3-0.5-0.5-0.7c-0.3-0.3-0.7-0.4-1.1-0.5c-2.4-0.6-4.5-1.1-7-1.1c-2.3-0.1-5.4-1-7.7-0.4
													C286.4,150.8,285.3,151.6,284.6,153.5z"/>
											</g>
											<g>
												<path class="st21" d="M343.1,81.2c-0.5,4.4,4.4,4.4,7.4,4.2c1.9-0.2,3.9-0.7,5.4-1.8c0.9-0.6,1.7-1.6,1.4-2.6
													c-0.3-0.9-1.2-1.3-2.1-1.6c-1.7-0.5-4.7-1.5-7.4-1.5C345.5,77.8,343.5,78.6,343.1,81.2z"/>
											</g>
											<g>
												<path class="st21" d="M338.6,79.1c0.4-0.3,0.7-0.8,0.7-1.3c-0.1-0.6-0.5-1-1.1-1.3c-2.2-1.2-5.1-1.1-6.4-3.1
													c-0.3-0.6-0.5-1.2-0.9-1.8c-1.1-1.5-3.3-1.4-5.1-1.3c-2.1,0.2-4.3,0.1-6.4-0.1c-1.9-0.2-4-0.9-5.8-0.7
													c-2.3,0.2-5.4,3.6-3.2,5.7c1.1,1.1,2.8,0.9,4,1.6s1.7,2.3,2.9,3.2c0.9,0.6,1.9,0.9,3,1c4.4,0.7,9,0.7,13.4,0
													c1.5-0.2,3-0.5,4.3-1.4C338.2,79.4,338.4,79.2,338.6,79.1z"/>
											</g>
											<g>
												<path class="st21" d="M301.2,80.2c-0.2-0.4-0.5-0.5-0.8-0.8c-3-2-5.8-3.8-8.6-6.1c-0.3-0.3-0.7-0.6-1.2-0.8
													c-0.6-0.2-1.3,0-2,0.1c-1.6,0.2-3.3-0.6-4.9-0.6c-0.5,0.1-0.9,0.1-1.2,0.3c-0.9,0.5-1.1,1.6-1.1,2.6c0.1,2,1,4,2.4,5.5
													c1.4,1.5,3.2,2.6,5,3.6c1.2,0.7,2.6,1.3,4,1.5c1.5,0.2,3-0.2,4-1.2c0.5-0.5,0.9-1.1,1.4-1.5c0.5-0.4,1.3-0.5,1.9-0.9
													C300.8,81.6,301.3,80.9,301.2,80.2z"/>
											</g>
											<g>
												<path class="st21" d="M287.5,57.9c-0.2-2.1,0.2-5-1.4-6.7c-0.6-0.7-1.7-0.7-2.6-0.3c-2.3,1.2-2.5,4.9-2.7,7.1
													c-0.2,1.9,1.7,3.4,3.4,3.4S287.8,59.8,287.5,57.9z"/>
											</g>
											<g>
												<path class="st21" d="M263.9,79.8c0.5,2.2,0.9,4.1,2.9,5.4c1.6,1,4.6,0.1,4.9-2c0.1-0.5,0.1-1,0.1-1.5
													c2.6,0.2,5.4-3,3.8-5.8c-0.9-1.8-1.4-3.7-1.6-5.7c-0.1-2.3,0.2-4.4-0.8-6.5c-1-2.3-4.5-2-5.7,0
													c-1.3,2.3-1.1,5.5-0.9,8.2c0.1,0.2,0.1,0.2,0.1,0.4c-1.2,0-2.3,0.7-2.8,1.9C263.4,75.8,263.7,78,263.9,79.8z"/>
											</g>
											<g>
												<path class="st21" d="M353.9,69c1.2-1.5,1.9-3.1,1.8-5c-0.2-1.6-2-2.5-3.3-1.3c-0.2,0.1-0.3,0.2-0.5,0.3
													c0,0-0.2,0.2-0.4,0.2c-0.2,0.1-0.5,0.2-0.7,0.3c0,0-0.3,0.2-0.4,0.2c-0.3,0.1-0.7,0.2-1,0.4c0,0-0.5,0.2-0.6,0.2h-0.1
													c-0.8,0.2-1.3,0.2-1.9,0.6c-1.2,0.7-1.8,2.1-1.6,3.4c0.2,1.4,1.1,2.3,2.4,2.8C349.6,71.8,352.5,70.5,353.9,69z
													 M348.7,64.1C348.5,64.2,348.5,64.2,348.7,64.1L348.7,64.1z"/>
											</g>
											<g>
												<path class="st21" d="M366.4,79c1.3-0.5,2.4-1.3,3.4-2.3c2.2-2.2,3.7-5.1,3.7-8.2c0-0.5,0-1-0.2-1.4
													c-0.2-0.4-0.5-0.6-0.8-1c-1.2-1.6-0.2-3.9-0.5-5.9c-0.1-0.5-0.2-1-0.6-1.3c-0.5-0.5-1.4-0.5-2.1-0.2
													c-0.7,0.3-1.2,0.9-1.6,1.5c-2.3,2.8-3.8,6.1-6,9c-1.2,1.6-3.2,2.6-4.3,4.4c-1.1,1.8-0.8,4.8,1.3,5.7
													c0.9,0.4,1.9,0.3,2.9,0.3c1.1,0,2.3-0.1,3.3-0.2C365.5,79.4,366,79.2,366.4,79z"/>
											</g>
											<g>
												<path class="st21" d="M378.4,89.7c1.3-1.1,2.3-3,3.1-4.4c0.9-1.7,1.7-3.4,1.3-5.4c-0.4-1.6-2.3-2.2-3.6-1.5
													c-1.3,0.7-2,2.1-3,3.1c-1.1,1.2-2.2,1.8-3.2,2.9c-1.4,1.6-1.5,3.9,0,5.4C374.6,91.3,376.8,91,378.4,89.7z"/>
											</g>
										</g>
										<g>
											<g>
												<path class="st22" d="M346.9,113.4c1.4-0.3,3.2-0.8,3.8-2.2c0.5-1.3-0.2-3.1-1.5-3.6c-1.7-0.6-4.3-0.1-6.1-0.2
													c-2.4-0.1-4.9-0.3-7.2-0.9c-1.4-0.3-2.9-0.7-4.3-0.5c-0.6,0.1-1.2,0.3-1.6,0.8c-0.4,0.5-0.5,1.2-0.3,1.7
													c0.2,0.3,0.4,0.6,0.6,0.9c0.3,0.4,0.5,0.9,0.7,1.2c0.2,0.4,0.5,0.8,0.9,1.2C335.4,116,342.5,114.4,346.9,113.4z"/>
											</g>
											<g>
												<path class="st22" d="M328.2,95.1c0.9-0.8,0.7-2.3-0.4-2.9c-1.3-0.7-2.6-0.7-4-0.9c-1.4-0.2-2.9-0.4-4.3-0.3
													c-1.6,0.1-2.8,1.1-3,2.6c-0.2,1.4,0.7,3.2,2.2,3.4C321.6,97.6,326,97.2,328.2,95.1z"/>
											</g>
											<g>
												<path class="st22" d="M339,88.5c0.1-1.2-0.8-2-1.8-2.4c-0.5-0.2-0.9-0.3-1.5-0.3c-0.7,0-1.2,0.3-1.8,0.5
													c-0.8,0.3-1.2,1.2-1.2,2c0,0.9,0.5,1.5,1.2,2c0.4,0.3,0.8,0.5,1.2,0.6c0.6,0.2,1.3,0,1.9-0.1
													C338.2,90.6,338.9,89.5,339,88.5z"/>
											</g>
											<g>
												<path class="st22" d="M325.8,81.5c0.2-0.1,0.5-0.2,0.5-0.4c0.3-0.5-0.2-1-0.7-1.3c-1-0.6-2.1-1-3.3-1.3
													c-0.3-0.2-0.7-0.2-1-0.5c-0.2-0.2-0.3-0.5-0.5-0.9c-0.9-1.8-2.6-2.4-4.5-2.4c-2,0-4-0.5-6-1c-1.4-0.4-6.2,1.3-4.3,3.3
													c0.6,0.6,1.4,0.7,2.1,1.1c1.6,0.8,2.3,2.7,3.7,3.6c0.9,0.5,2.1,0.6,3.2,0.7c1.2,0.1,2.4,0.2,3.7,0.2
													C321.2,82.6,323.6,82.3,325.8,81.5z"/>
											</g>
											<g>
												<path class="st22" d="M346.6,81.9c-0.6,0.2-1.1,0.7-1.6,0.9c-0.5,0.2-1.1,0-1.6,0.2c-0.6,0.3-0.9,1.1-0.8,1.7
													c0.2,0.6,0.6,1.2,1.1,1.6c2.1,1.8,5.3,1.7,8.1,1.2c1.6-0.3,3.1-0.8,4.6-1.4c0.9-0.4,1.7-0.9,2.3-1.6
													c0.5-0.8,0.7-1.9,0.1-2.6c-0.6-0.8-1.9-0.9-3-0.8c-0.6,0-1.2,0-1.7,0C351.5,81.1,349,80.9,346.6,81.9z"/>
											</g>
											<g>
												<path class="st22" d="M299.5,117.7c0.6,0.2,1.2,0.4,1.8,0.8c0.5,0.3,0.8,0.7,1.2,1.1c2.4,2.2,6.3,2.2,8.9,0.5
													c1.6-1.1,2.9-2.7,4.6-3.6c0.5-0.3,1.3-0.6,1.4-1.2c0.2-0.9-1-1.5-1.9-1.6c-2.6-0.4-5.1-0.4-7.8-0.3
													c-4,0.1-8.3-0.5-12.2,0.8c-0.2,0.1-0.5,0.2-0.7,0.4c-0.3,0.3-0.2,0.9,0.1,1.2c0.2,0.3,0.6,0.5,1,0.7
													c0.7,0.4,1.5,0.7,2.2,0.9C298.5,117.4,298.9,117.5,299.5,117.7z"/>
											</g>
											<g>
												<path class="st22" d="M328.7,126.6c2.6-0.3,5.2-0.9,7.7-1.6c1.7-0.5,1.3-3-0.4-3c-2.6,0-5-0.2-7.6-0.4
													c-2.2-0.2-4.4-0.5-6.1,1.1c-0.8,0.8-0.6,1.9,0,2.6C323.9,127.2,326.5,126.8,328.7,126.6z"/>
											</g>
											<g>
												<path class="st22" d="M342.9,123.1c-1,0.6-1.7,1.9-1.3,3c0.4,1.1,1.5,1.6,2.5,2c1.4,0.6,2.8,1.2,4.2,1.8
													s2.9,1.2,4.4,1.2c2.2,0,4.1-1.2,6.2-1.6c1.7-0.5,3.6-0.4,5.2-1.2c3-1.4,3-5.2-0.6-5.7c-2.9,0-5.9-0.6-8.7-0.9
													c-2.7-0.3-5.7,0.4-8.5,0.6c-0.6,0-1.3,0.1-1.9,0.2C343.8,122.6,343.3,122.8,342.9,123.1z"/>
											</g>
											<g>
												<path class="st22" d="M360.8,139c1.9-0.5,3.9-1.1,5.7-1.7c1.9-0.6,1.6-3.3-0.5-3.4c-1.8-0.2-3.6-0.3-5.3-0.5
													c-1.4-0.2-2.6,0.1-3.3,1.3c-0.1,0.1-0.1,0.2-0.2,0.2c-0.6,1-0.3,2.2,0.4,3c0.1,0.1,0.2,0.2,0.2,0.2
													C358.5,139,359.8,139.1,360.8,139z"/>
											</g>
											<g>
												<path class="st22" d="M350.6,151.3c1.2,0.9,2.2,1.5,3.7,1.3c1.1-0.1,2.2-0.2,3.3-0.5c1.8-0.4,2.6-2.3,2.3-3.9
													c-0.4-1.8-2.3-2.6-3.9-2.3c-0.2,0-0.4,0.1-0.6,0.1c-0.1,0-0.1,0-0.2,0c-0.4,0.1-0.7,0.1-1,0.1c-1.2,0-2,0.2-3,0.9
													C349.7,147.8,349,150.1,350.6,151.3z"/>
											</g>
											<g>
												<path class="st22" d="M323.2,147.7c-1.1,0.9-0.8,2.5,0,3.4c1.2,1.4,3,1.2,4.6,1.2c1.3-0.1,2.4-1,2.6-2.3
													c0.2-1.2-0.6-2.6-1.9-2.8c-0.6-0.2-1.2-0.2-1.9-0.4C325.3,146.6,324.3,146.8,323.2,147.7z"/>
											</g>
											<g>
												<path class="st22" d="M304.8,135.6c-0.6-0.1-1.3,0-1.7,0.5c-0.6,0.8,0,1.9,0.7,2.6c3.3,3.4,8.5,5.3,13.2,4.7
													c0.9-0.2,1.6-0.4,2.1-0.9c1.6-0.2,3.3-0.6,4.7-1.3c2.2-1,1.5-4.4-0.6-4.9c-2.9-0.7-5.7-0.6-8.5-0.6c-1.1,0-2.3,0-3.4,0
													C309.1,135.7,307,135.6,304.8,135.6z"/>
											</g>
											<g>
												<path class="st22" d="M294.9,132.3c0.5-0.9,0.5-1.9-0.3-2.7c-0.2-0.3-0.5-0.5-0.8-0.7c-0.5-0.2-0.8-0.2-1.2-0.3
													c-0.2,0-0.3-0.1-0.4-0.1c-0.5-0.1-0.9-0.2-1.3-0.2c-1.2,0-2.3,0.9-2.6,2c-0.4,1.1,0.2,2.6,1.2,3.1
													c0.6,0.3,1.2,0.5,1.9,0.5c0.2,0,0.5-0.1,0.8-0.1c0.9-0.2,1.6-0.2,2.2-0.9C294.5,132.8,294.7,132.5,294.9,132.3z"/>
											</g>
											<g>
												<path class="st22" d="M288.2,148.9c-1,1-1.3,2.1-0.9,3.5c0.3,1.2,1.3,2.3,2.5,2.5c3.9,0.9,7.5,1.1,11.5,0.3
													c2.6-0.5,2.4-4.4,0-5c-3.2-0.8-6.4-1.4-9.6-2.2C290.5,147.7,289.1,148,288.2,148.9z"/>
											</g>
											<g>
												<path class="st22" d="M290.1,85.2c1.5,0.1,3.2,0,3.8-1.3c0.1-0.2,0.2-0.3,0.1-0.5c-0.1-0.2-0.2-0.4-0.5-0.5
													c-3.2-1.9-7.1-2.6-9.5-5.4c-0.9-1-1.5-2.3-2.3-3.3c-0.2-0.2-0.3-0.4-0.5-0.5c-0.8-0.3-1.4,0.7-1.6,1.5
													c-0.1,0.2-0.2,0.5-0.2,0.7C278.4,82,284.9,85,290.1,85.2z"/>
											</g>
											<g>
												<path class="st22" d="M292.6,64.1c0.5-0.5,1-1.6,0.9-2.3c-0.1-0.5-0.1-0.9-0.2-1.3c-0.1-0.4-0.3-0.8-0.5-1.2
													c-0.2-0.4-0.3-0.7-0.5-1.1c-0.5-1-1.8-1.5-2.7-1.3c-1,0.2-2,0.9-2.3,1.9c-0.2,0.9-0.5,1.9-0.5,2.8
													c0.2,1.8,1.3,3.2,3.3,3.3C291.1,64.9,292,64.5,292.6,64.1z"/>
											</g>
											<g>
												<path class="st22" d="M269.3,62.7c-1.4,2.4-1.4,5.7,0,8.2c0.4,0.7,0.9,1.3,1.6,1.6c0.2,0.1,0.5,0.2,0.7,0.3
													c0.3,0.2,0.4,0.5,0.5,0.8c0.5,0.9,1.4,1.5,2.4,1.6c0.2,0.1,0.5,0,0.6-0.2c0.1-0.2,0-0.3,0-0.5c-0.3-1.6-0.6-3.4-0.5-5.1
													c0.2-2.6,1.5-5,1.1-7.5c-0.1-0.7-0.4-1.4-0.9-1.9c-1.2-1.2-2.7-0.5-3.9,0.5C270.2,61.2,269.6,62,269.3,62.7z"/>
											</g>
											<g>
												<path class="st22" d="M369.3,66.5c1-1.6-1-3.3-2.5-2.5c-3.7,2-7.3,4-11,6.1c-3.7,1.9-1.1,8.4,2.9,6.8
													C363.4,75,366.6,70.6,369.3,66.5z"/>
											</g>
											<g>
												<path class="st22" d="M354.9,60.8c-0.1-1-0.5-1.9-1.6-2.3c-0.9-0.4-2-0.2-2.8,0.5c-0.2,0.2-0.4,0.4-0.6,0.5
													c-0.2,0.2-0.3,0.4-0.5,0.5c-0.2,0.4-0.3,0.4-0.1,0.2c0.2-0.2,0.2-0.2,0.1-0.1c-1,1.1-1.5,2.4-1,3.8
													c0.2,0.7,0.7,1.3,1.3,1.7c0.7,0.5,1.5,0.5,2.3,0.3C354.5,65.6,355.2,63,354.9,60.8z"/>
											</g>
											<g>
												<path class="st22" d="M373.8,79.6c-1.2,1-1.2,3-0.2,4.2c1,1.3,2.6,1.6,4.1,0.9c2.1-1,3.1-3.7,2.9-5.9
													c-0.1-1.1-0.7-1.9-1.8-2.3c-0.9-0.3-2.3,0.2-2.7,1.1c-0.1,0.2-0.2,0.3-0.2,0.5c-0.1,0.1-0.1,0.2-0.1,0.2
													c-0.1,0.1-0.2,0.2-0.3,0.2c-0.1,0-0.1,0-0.1,0c-0.2,0.2-0.4,0.3-0.6,0.5c0.1-0.1-0.9,0.6-0.3,0.2
													C375.1,78.7,374.1,79.4,373.8,79.6z"/>
											</g>
										</g>
									</g>
									<polygon class="st22" points="309.9,104.1 306.3,105.1 305.3,101.5 									"/>
									<polygon class="st22" points="294.3,145.6 290.7,146.6 289.7,142.9 									"/>
									<polygon class="st22" points="281.7,86.6 279.4,89.5 276.5,87.3 									"/>
									<polygon class="st22" points="362.1,117.5 358.4,118.5 357.4,115 									"/>
									<polygon class="st22" points="359.7,156.6 358.4,160.1 354.9,158.8 									"/>
									<polygon class="st22" points="357.9,90.8 361.3,89.2 362.9,92.6 									"/>
									<polygon class="st22" points="305.6,63.8 309,62.3 310.6,65.6 									"/>
									<polygon class="st21" points="323.6,105.6 323.2,109.3 319.5,108.9 									"/>
									<polygon class="st21" points="283.6,67.6 279.9,67.7 279.7,64 									"/>
									<polygon class="st21" points="328.4,85.8 327,82.4 330.4,81 									"/>
									<polygon class="st21" points="376.5,103.1 373.9,100.3 376.6,97.8 									"/>
									<polygon class="st21" points="332.3,135.6 334.5,132.5 337.5,134.7 									"/>
									<polygon class="st21" points="365,144.6 368.7,143.9 369.3,147.6 									"/>
									<polygon class="st21" points="313.1,157.4 313.2,153.6 317,153.6 									"/>
								</g>
							</g>
						</g>
					</g>
				</g>
				<path class="st17" d="M293.3,92.6c5-5.9,9.2-19.9,7.8-36.2"/>
				<path class="st17" d="M370.5,107.3c-0.8-11.3-1.2-19.8-3.3-29.8"/>
				<path class="st17" d="M311.2,55.6c0.7,2.6,2.3,4.7,4.4,6.2"/>
				<path class="st17" d="M319.6,63.9c6.1,2.5,13.3,2.8,19.4,0.9c4-1.2,7.7-4.3,9.1-8.6"/>
				<path class="st17" d="M297.3,97.2c-1.5-2.4-7.6-2.4-7.6-2.4"/>
				<g>
					<path class="st7" d="M342.2,34.1c0.4,0.9,1.3,1.6,2.3,1.7c1,0.2,2-0.2,2.6-0.9c0.9-1,1-2.6,0.9-3.9c-0.1-0.8-0.2-1.5-0.5-2.1
						c-0.4-0.6-0.9-1.2-1.6-1.3c-0.7-0.2-1.6,0.2-1.9,0.8"/>
				</g>
				<path class="st23" d="M339.4,29.8l0.9-0.6c0.5-0.4,1.2-0.6,1.9-0.6h4.5"/>
				<g>
					<path class="st7" d="M315.9,29c0.5,3.3,2,6.6,3.3,9.6c1.1,2.8,2.6,5.7,5.2,7.5c4.8,3.4,15.5,2.6,18.7-2.2
						c2.4-3.4,3.1-6.8,2.6-10.9c-0.5-4.1-1.9-9.2-1.9-9.2c-0.5-3-1.2-5.4-1.5-5.8c-0.3-0.4-0.8-0.6-1.2-0.8
						c-7.5-2.8-16.8-3-23.1,2.7c-0.9,0.8-1.6,1.6-2,2.7C315.3,24.6,315.5,27.2,315.9,29z"/>
				</g>
				<path class="st7" d="M341.1,40.4l2.6,14.3c0,0-0.6,6.6-12.4,6.6c-12,0-16.3-5.4-16.3-5.4l1.7-17.5"/>
				<path class="st8" d="M329.2,30c-0.7,0-1.2,0.5-1.2,1.2s0.5,1.2,1.2,1.2c0.7,0,1.2-0.5,1.2-1.2C330.4,30.5,329.8,30,329.2,30z"/>
				<circle class="st8" cx="341.9" cy="29.6" r="1.2"/>
				<g>
					<g>
						<path class="st8" d="M338.1,33.1c0-0.1-0.2,0-0.2,0c0.2,0.2,0.2,0.4,0.3,0.6c0.4,0.9,0.7,1.7,0.9,2.6c0.1,0.3,0.2,0.8,0,0.9
							c-0.2,0.2-0.5,0.2-0.8,0.2c-0.4,0-0.7,0-1.1,0c-0.2,0-0.3,0.4-0.1,0.4c0.5,0.1,0.9,0.1,1.3,0.1c0.3,0,0.7-0.1,0.9-0.3
							c0.2-0.2,0.2-0.7,0.1-1.1c-0.1-0.5-0.2-1-0.5-1.5C338.8,34.3,338.5,33.7,338.1,33.1L338.1,33.1z"/>
					</g>
				</g>
				<g>
					<path class="st10" d="M339.6,40c-0.1,1-0.2,2-0.7,2.8c-1.2,1.6-3.3,1.1-3.9-0.9c-0.2-0.7-0.2-1.5-0.2-2.2L339.6,40z"/>
				</g>
				<path class="st24" d="M331,28.3c-1.3-1.2-3.8-0.8-4.9,0.9"/>
				<path class="st24" d="M343.8,27.2c-0.9-1-2.6-1-3.7,0.2"/>
				<path class="st25" d="M341.8,45.8c-4.6,3-10.5,3-15.2,0"/>
				<g>
					<path class="st8" d="M311,22.8c-0.5,2.6-0.6,6.6,0.8,8.9c1.7,2.9,2.8,4.4,5.4,5.4c2.3-1.9,3-5.7,1.4-8.4
						c3.3,0.2,6.4-1.3,6.8-4.9c0.1-0.3,0.2-2,0-2.1c1.3,1,2.5,1.2,3.9,1.2c1.4,0,2.9-0.9,3-2.3c3.3,1.6,7.3,2,10.9,0.9
						c4.3-1.3,7.1-5.7,6.2-10.3c-0.6-3-3-5.5-5.9-6.4c-3.7-1.2-7.6,0.2-10.7,2.4c-3.2-2.2-7.5-2.5-11-0.7c-3.3,1.8-5.6,5.6-5.5,9.4
						C313.5,16.9,311.4,20.2,311,22.8z"/>
				</g>
				<path class="st23" d="M342.4,23.8c2.5,0,4.4,2.3,4.4,5s-2,5-4.4,5c-2.5,0-4.4-2.3-4.4-5S339.9,23.8,342.4,23.8z"/>
				<path class="st23" d="M328.5,26.3c2.8,0,5,2.3,5,5s-2.3,5-5,5s-5-2.3-5-5C323.4,28.6,325.7,26.3,328.5,26.3z"/>
				<path class="st23" d="M316.1,33.1l0.9-0.6c0.5-0.4,1.2-0.6,1.9-0.6h4.5"/>
				<g>
					<g>
						<path class="st7" d="M321.6,39c-0.7,1.1-2,1.6-3.3,1.5s-2.3-1-3-2.1c-0.6-1.1-0.8-2.4-0.6-3.7c0.5-3,2.9-3.6,5.3-2.3"/>
					</g>
					<g>
						<g>
							<path class="st8" d="M316.3,34.2C316.2,34.2,316.3,34.2,316.3,34.2c0.1,0,0.2,0,0.2,0.1c0.1-0.1,0.1-0.1,0.2-0.2
								c0.1-0.1,0.2-0.2,0.2-0.2c0.2-0.2,0.3-0.2,0.5-0.2c0.7,0,1.3,0.6,1.6,1.2c0.2,0.4,0.2,0.9,0.2,1.4c0,0.6-0.2,1.2-0.4,1.7
								c-0.1,0.2,0.2,0.3,0.3,0.2c0.4-0.7,0.5-1.4,0.5-2.2c-0.1-0.5-0.2-1-0.4-1.4c-0.2-0.3-0.5-0.6-0.9-0.9
								c-0.3-0.2-0.8-0.4-1.2-0.3c-0.2,0-0.4,0.1-0.5,0.2c-0.1,0.1-0.2,0.2-0.2,0.2c0,0.1-0.1,0.1-0.1,0.2
								C316.3,34,316.3,34.1,316.3,34.2L316.3,34.2z"/>
						</g>
					</g>
					<g>
						<g>
							<path class="st8" d="M317.4,40.2c-0.1-0.1-0.2,0.1,0,0.2c0.2,0.2,0.6,0.3,0.9,0.4c0.3,0.1,0.7,0.1,1,0c0.3,0,0.7-0.2,1-0.3
								c0.1-0.1,0.2-0.2,0.4-0.3c0.2-0.1,0.2-0.2,0.3-0.4c0.1-0.2-0.1-0.2-0.2-0.2c-0.5,0.4-1,0.8-1.6,0.9c-0.3,0.1-0.6,0.1-0.9,0
								c-0.2,0-0.3,0-0.5-0.1S317.6,40.2,317.4,40.2L317.4,40.2z"/>
						</g>
					</g>
				</g>
				<path class="st23" d="M333.6,30c2-0.6,4.4-0.4,4.4-0.4"/>
			</g>
		</g>
	</g>
</g>
<path class="st0" d="M382.2,832.7h-630v-61c0-11.9,9.7-21.6,21.6-21.6h586.8c11.9,0,21.6,9.7,21.6,21.6L382.2,832.7L382.2,832.7z"/>
<g>
	<g class="st26">
		<path class="st10" d="M426.2,161.8c0,1.5-0.2,2.8-0.5,3.6c-0.3,0.9-0.9,1.8-1.8,2.8l-1.9,2c-1.1,1.2-1.7,2.5-1.7,3.8
			c0,1.2,0.3,2,0.9,2.6s1.5,0.9,2.6,0.9c1.1,0,2-0.3,2.6-0.9c0.7-0.6,1-1.4,1-2.5h4.5c0,2.2-0.8,3.9-2.3,5.2
			c-1.5,1.3-3.4,1.9-5.8,1.9c-2.5,0-4.5-0.6-5.9-1.9c-1.4-1.2-2.1-3-2.1-5.3c0-2,1-4.1,2.9-6.1l1.7-1.7c1-0.9,1.5-2,1.6-3.5v-1h4.2
			V161.8z M426.6,156.1c0,0.7-0.2,1.3-0.7,1.7c-0.4,0.5-1.1,0.7-1.9,0.7c-0.8,0-1.4-0.2-1.9-0.7s-0.7-1-0.7-1.7s0.2-1.2,0.7-1.7
			s1.1-0.7,1.9-0.7c0.8,0,1.4,0.2,1.9,0.7C426.4,154.8,426.6,155.4,426.6,156.1z"/>
		<path class="st10" d="M456.4,165.3c-0.3,2.9-1.3,5.1-3.2,6.7s-4.3,2.4-7.4,2.4c-2.2,0-4-0.5-5.7-1.5c-1.6-1-2.9-2.5-3.8-4.4
			s-1.4-4.1-1.4-6.5v-2.5c0-2.5,0.5-4.8,1.4-6.7c0.9-1.9,2.2-3.4,3.9-4.5s3.6-1.6,5.9-1.6c3,0,5.4,0.8,7.2,2.4s2.9,3.9,3.2,6.9h-4.7
			c-0.2-1.9-0.8-3.3-1.7-4.2c-0.9-0.9-2.2-1.3-4-1.3c-2,0-3.6,0.7-4.7,2.2s-1.7,3.7-1.7,6.6v2.4c0,2.9,0.5,5.2,1.6,6.7
			c1,1.5,2.6,2.3,4.6,2.3c1.8,0,3.2-0.4,4.2-1.2c0.9-0.8,1.5-2.2,1.8-4.1L456.4,165.3L456.4,165.3z"/>
		<path class="st10" d="M472.3,172.2c-1.3,1.6-3.2,2.3-5.6,2.3c-2.2,0-3.8-0.6-4.9-1.9s-1.7-3.1-1.7-5.5v-13h4.5v13
			c0,2.5,1.1,3.8,3.2,3.8c2.2,0,3.7-0.8,4.4-2.4v-14.4h4.5v20.1h-4.2L472.3,172.2z"/>
		<path class="st10" d="M493.2,174.1c-0.2-0.4-0.4-1-0.5-1.9c-1.4,1.5-3.2,2.2-5.3,2.2c-2,0-3.7-0.6-4.9-1.7
			c-1.3-1.2-1.9-2.6-1.9-4.3c0-2.1,0.8-3.8,2.4-4.9c1.6-1.1,3.9-1.7,6.8-1.7h2.8v-1.3c0-1-0.3-1.9-0.9-2.5s-1.5-0.9-2.7-0.9
			c-1,0-1.9,0.3-2.5,0.8c-0.7,0.5-1,1.2-1,2H481c0-1.1,0.4-2.1,1.1-3.1s1.7-1.7,3-2.3c1.3-0.5,2.7-0.8,4.2-0.8
			c2.4,0,4.2,0.6,5.6,1.8c1.4,1.2,2.1,2.8,2.2,5v9.1c0,1.8,0.3,3.2,0.8,4.3v0.3L493.2,174.1L493.2,174.1z M488.3,170.9
			c0.9,0,1.7-0.2,2.5-0.6c0.8-0.4,1.4-1,1.8-1.7v-3.8h-2.4c-1.7,0-2.9,0.3-3.8,0.9c-0.8,0.6-1.3,1.4-1.3,2.5c0,0.9,0.3,1.6,0.9,2.1
			C486.5,170.6,487.3,170.9,488.3,170.9z M490.8,145.6h5.1l-5.1,5.6h-3.6L490.8,145.6z"/>
		<path class="st10" d="M506.6,174.1h-4.5v-28.5h4.5V174.1z"/>
		<path class="st10" d="M529.8,174.5c-2.9,0-5.2-0.9-6.9-2.7c-1.8-1.8-2.7-4.2-2.7-7.2V164c0-2,0.4-3.8,1.2-5.4s1.9-2.8,3.3-3.7
			c1.4-0.9,3-1.3,4.7-1.3c2.7,0,4.8,0.9,6.3,2.6s2.2,4.2,2.2,7.4v1.8h-13.1c0.1,1.7,0.7,3,1.7,3.9c1,1,2.2,1.4,3.7,1.4
			c2.1,0,3.7-0.8,5-2.5l2.4,2.3c-0.8,1.2-1.9,2.1-3.2,2.8C533,174.2,531.5,174.5,529.8,174.5z M529.3,157.3c-1.2,0-2.2,0.4-3,1.3
			c-0.8,0.9-1.2,2.1-1.5,3.6h8.6v-0.3c-0.1-1.5-0.5-2.7-1.2-3.4C531.5,157.7,530.5,157.3,529.3,157.3z"/>
		<path class="st10" d="M552.6,168.7c0-0.8-0.3-1.4-1-1.8c-0.7-0.4-1.8-0.8-3.3-1.1c-1.5-0.3-2.8-0.7-3.8-1.2
			c-2.3-1.1-3.4-2.7-3.4-4.7c0-1.7,0.7-3.2,2.2-4.3c1.5-1.2,3.3-1.7,5.6-1.7c2.4,0,4.3,0.6,5.8,1.8c1.5,1.2,2.2,2.7,2.2,4.6h-4.5
			c0-0.9-0.3-1.6-1-2.2c-0.6-0.6-1.5-0.9-2.6-0.9c-1,0-1.8,0.2-2.4,0.7c-0.6,0.5-0.9,1.1-0.9,1.8c0,0.7,0.3,1.2,0.9,1.6
			s1.8,0.8,3.5,1.2c1.8,0.4,3.2,0.9,4.2,1.4s1.8,1.2,2.2,1.9c0.5,0.8,0.7,1.7,0.7,2.7c0,1.8-0.7,3.3-2.2,4.4s-3.5,1.7-5.9,1.7
			c-1.6,0-3.1-0.3-4.4-0.9s-2.3-1.4-3-2.4c-0.7-1-1.1-2.2-1.1-3.4h4.4c0.1,1.1,0.5,1.9,1.2,2.5s1.7,0.9,3,0.9c1.2,0,2.1-0.2,2.7-0.7
			C552.3,170,552.6,169.4,552.6,168.7z"/>
		<path class="st10" d="M575.2,174.1h-4.5v-28.5h4.5V174.1z"/>
		<path class="st10" d="M592.1,174.1c-0.2-0.4-0.4-1-0.5-1.9c-1.4,1.5-3.2,2.2-5.3,2.2c-2,0-3.7-0.6-4.9-1.7
			c-1.3-1.2-1.9-2.6-1.9-4.3c0-2.1,0.8-3.8,2.4-4.9s3.9-1.7,6.8-1.7h2.8v-1.3c0-1-0.3-1.9-0.9-2.5c-0.6-0.6-1.5-0.9-2.7-0.9
			c-1,0-1.9,0.3-2.5,0.8c-0.7,0.5-1,1.2-1,2h-4.5c0-1.1,0.4-2.1,1.1-3.1c0.7-1,1.7-1.7,3-2.3c1.3-0.5,2.7-0.8,4.2-0.8
			c2.4,0,4.2,0.6,5.6,1.8c1.4,1.2,2.1,2.8,2.2,5v9.1c0,1.8,0.3,3.2,0.8,4.3v0.3L592.1,174.1L592.1,174.1z M587.2,170.9
			c0.9,0,1.7-0.2,2.5-0.6s1.4-1,1.8-1.7v-3.8H589c-1.7,0-2.9,0.3-3.8,0.9c-0.8,0.6-1.3,1.4-1.3,2.5c0,0.9,0.3,1.6,0.9,2.1
			C585.4,170.6,586.2,170.9,587.2,170.9z"/>
		<path class="st10" d="M622.1,174.1c-0.2-0.4-0.4-1-0.5-1.9c-1.4,1.5-3.2,2.2-5.3,2.2c-2,0-3.7-0.6-4.9-1.7
			c-1.3-1.2-1.9-2.6-1.9-4.3c0-2.1,0.8-3.8,2.4-4.9c1.6-1.1,3.9-1.7,6.8-1.7h2.8v-1.3c0-1-0.3-1.9-0.9-2.5c-0.6-0.6-1.5-0.9-2.7-0.9
			c-1,0-1.9,0.3-2.5,0.8c-0.7,0.5-1,1.2-1,2h-4.5c0-1.1,0.4-2.1,1.1-3.1s1.7-1.7,3-2.3c1.3-0.5,2.7-0.8,4.2-0.8
			c2.4,0,4.2,0.6,5.6,1.8c1.4,1.2,2.1,2.8,2.2,5v9.1c0,1.8,0.3,3.2,0.8,4.3v0.3L622.1,174.1L622.1,174.1z M617.2,170.9
			c0.9,0,1.7-0.2,2.5-0.6s1.4-1,1.8-1.7v-3.8H619c-1.7,0-2.9,0.3-3.8,0.9c-0.8,0.6-1.3,1.4-1.3,2.5c0,0.9,0.3,1.6,0.9,2.1
			C615.5,170.6,616.2,170.9,617.2,170.9z"/>
		<path class="st10" d="M629.9,163.9c0-3.1,0.7-5.6,2.2-7.5s3.4-2.8,5.8-2.8c2.3,0,4.1,0.8,5.4,2.4l0.2-2h4.1v19.5
			c0,2.6-0.8,4.7-2.5,6.2c-1.6,1.5-3.9,2.3-6.6,2.3c-1.5,0-2.9-0.3-4.3-0.9c-1.4-0.6-2.5-1.4-3.2-2.4l2.1-2.7
			c1.4,1.6,3.1,2.5,5.1,2.5c1.5,0,2.7-0.4,3.5-1.2c0.9-0.8,1.3-2,1.3-3.6v-1.4c-1.3,1.4-3,2.2-5.2,2.2c-2.4,0-4.3-0.9-5.8-2.8
			C630.7,169.8,629.9,167.2,629.9,163.9z M634.4,164.3c0,2,0.4,3.6,1.2,4.8c0.8,1.2,2,1.7,3.4,1.7c1.8,0,3.2-0.8,4-2.3v-8.8
			c-0.9-1.5-2.2-2.3-4-2.3c-1.5,0-2.6,0.6-3.5,1.8C634.8,160.3,634.4,162,634.4,164.3z"/>
		<path class="st10" d="M661.1,174.5c-2.9,0-5.2-0.9-6.9-2.7c-1.8-1.8-2.7-4.2-2.7-7.2V164c0-2,0.4-3.8,1.2-5.4s1.9-2.8,3.3-3.7
			c1.4-0.9,3-1.3,4.7-1.3c2.7,0,4.8,0.9,6.3,2.6s2.2,4.2,2.2,7.4v1.8H656c0.1,1.7,0.7,3,1.7,3.9c1,1,2.2,1.4,3.7,1.4
			c2.1,0,3.7-0.8,5-2.5l2.4,2.3c-0.8,1.2-1.9,2.1-3.2,2.8C664.3,174.2,662.8,174.5,661.1,174.5z M660.6,157.3c-1.2,0-2.2,0.4-3,1.3
			s-1.2,2.1-1.5,3.6h8.6v-0.3c-0.1-1.5-0.5-2.7-1.2-3.4C662.8,157.7,661.8,157.3,660.6,157.3z"/>
		<path class="st10" d="M676.8,154l0.1,2.3c1.5-1.8,3.4-2.7,5.8-2.7c4.2,0,6.3,2.4,6.4,7.2v13.3h-4.5v-13c0-1.3-0.3-2.2-0.8-2.8
			c-0.6-0.6-1.5-0.9-2.7-0.9c-1.8,0-3.2,0.8-4.1,2.5v14.3h-4.5v-20.1L676.8,154L676.8,154z"/>
		<path class="st10" d="M692.9,163.9c0-3.1,0.7-5.6,2.2-7.5c1.4-1.9,3.4-2.8,5.8-2.8c2.1,0,3.8,0.7,5.2,2.2v-10.3h4.5V174h-4.1
			l-0.2-2.1c-1.3,1.6-3.1,2.4-5.4,2.4c-2.4,0-4.3-0.9-5.7-2.8S692.9,167.2,692.9,163.9z M697.4,164.3c0,2,0.4,3.6,1.2,4.8
			c0.8,1.1,1.9,1.7,3.3,1.7c1.8,0,3.2-0.8,4-2.5v-8.6c-0.8-1.6-2.2-2.4-4-2.4c-1.5,0-2.6,0.6-3.4,1.7
			C697.8,160.3,697.4,162,697.4,164.3z"/>
		<path class="st10" d="M727.2,174.1c-0.2-0.4-0.4-1-0.5-1.9c-1.4,1.5-3.2,2.2-5.3,2.2c-2,0-3.7-0.6-4.9-1.7
			c-1.3-1.2-1.9-2.6-1.9-4.3c0-2.1,0.8-3.8,2.4-4.9c1.6-1.1,3.9-1.7,6.8-1.7h2.8v-1.3c0-1-0.3-1.9-0.9-2.5c-0.6-0.6-1.5-0.9-2.7-0.9
			c-1,0-1.9,0.3-2.5,0.8c-0.7,0.5-1,1.2-1,2H715c0-1.1,0.4-2.1,1.1-3.1s1.7-1.7,3-2.3c1.3-0.5,2.7-0.8,4.2-0.8
			c2.3,0,4.2,0.6,5.6,1.8c1.4,1.2,2.1,2.8,2.2,5v9.1c0,1.8,0.3,3.2,0.8,4.3v0.3L727.2,174.1L727.2,174.1z M722.3,170.9
			c0.9,0,1.7-0.2,2.5-0.6s1.4-1,1.8-1.7v-3.8h-2.4c-1.7,0-2.9,0.3-3.8,0.9c-0.8,0.6-1.3,1.4-1.3,2.5c0,0.9,0.3,1.6,0.9,2.1
			C720.5,170.6,721.3,170.9,722.3,170.9z"/>
		<path class="st10" d="M744.4,163.9c0-3.1,0.7-5.6,2.2-7.5c1.4-1.9,3.4-2.8,5.8-2.8c2.1,0,3.8,0.7,5.2,2.2v-10.3h4.5V174H758
			l-0.2-2.1c-1.3,1.6-3.1,2.4-5.4,2.4c-2.4,0-4.3-0.9-5.7-2.8S744.4,167.2,744.4,163.9z M748.9,164.3c0,2,0.4,3.6,1.2,4.8
			c0.8,1.1,1.9,1.7,3.3,1.7c1.8,0,3.2-0.8,4-2.5v-8.6c-0.8-1.6-2.2-2.4-4-2.4c-1.5,0-2.6,0.6-3.4,1.7
			C749.3,160.3,748.9,162,748.9,164.3z"/>
		<path class="st10" d="M775.5,174.5c-2.9,0-5.2-0.9-6.9-2.7c-1.8-1.8-2.7-4.2-2.7-7.2V164c0-2,0.4-3.8,1.2-5.4
			c0.8-1.6,1.9-2.8,3.3-3.7c1.4-0.9,3-1.3,4.7-1.3c2.7,0,4.8,0.9,6.3,2.6s2.2,4.2,2.2,7.4v1.8h-13.1c0.1,1.7,0.7,3,1.7,3.9
			s2.2,1.4,3.7,1.4c2.1,0,3.7-0.8,5-2.5l2.4,2.3c-0.8,1.2-1.9,2.1-3.2,2.8C778.7,174.2,777.2,174.5,775.5,174.5z M775,157.3
			c-1.2,0-2.2,0.4-3,1.3s-1.2,2.1-1.5,3.6h8.6v-0.3c-0.1-1.5-0.5-2.7-1.2-3.4C777.2,157.7,776.3,157.3,775,157.3z"/>
		<path class="st10" d="M791.9,174.1h-4.5v-28.5h4.5V174.1z"/>
		<path class="st10" d="M814.5,170.9c1.1,0,2.1-0.3,2.8-1c0.7-0.7,1.1-1.5,1.2-2.4h4.2c0,1.3-0.4,2.4-1.2,3.5
			c-0.7,1.1-1.7,1.9-3,2.6c-1.3,0.6-2.6,0.9-4,0.9c-2.8,0-5-0.9-6.7-2.7c-1.6-1.8-2.5-4.3-2.5-7.5v-0.5c0-3.1,0.8-5.5,2.4-7.3
			c1.6-1.8,3.9-2.8,6.7-2.8c2.4,0,4.3,0.7,5.8,2.1s2.3,3.2,2.4,5.5h-4.2c0-1.2-0.4-2.1-1.2-2.8c-0.8-0.7-1.7-1.1-2.8-1.1
			c-1.5,0-2.6,0.5-3.4,1.6s-1.2,2.7-1.2,4.8v0.7c0,2.2,0.4,3.8,1.2,4.9C811.9,170.4,813,170.9,814.5,170.9z"/>
		<path class="st10" d="M838.3,172.2c-1.3,1.6-3.2,2.3-5.6,2.3c-2.2,0-3.8-0.6-4.9-1.9c-1.1-1.3-1.7-3.1-1.7-5.5v-13h4.5v13
			c0,2.5,1.1,3.8,3.2,3.8c2.2,0,3.7-0.8,4.4-2.4v-14.4h4.5v20.1h-4.2L838.3,172.2z"/>
		<path class="st10" d="M857.8,158.2c-0.6-0.1-1.2-0.1-1.8-0.1c-2.1,0-3.5,0.8-4.2,2.4v13.7h-4.5v-20.1h4.3l0.1,2.2
			c1.1-1.7,2.6-2.6,4.5-2.6c0.6,0,1.2,0.1,1.6,0.3V158.2z"/>
		<path class="st10" d="M871.9,168.7c0-0.8-0.3-1.4-1-1.8s-1.8-0.8-3.3-1.1c-1.5-0.3-2.8-0.7-3.8-1.2c-2.3-1.1-3.4-2.7-3.4-4.7
			c0-1.7,0.7-3.2,2.2-4.3c1.5-1.2,3.3-1.7,5.6-1.7c2.4,0,4.3,0.6,5.8,1.8s2.2,2.7,2.2,4.6h-4.5c0-0.9-0.3-1.6-1-2.2
			c-0.6-0.6-1.5-0.9-2.6-0.9c-1,0-1.8,0.2-2.4,0.7c-0.6,0.5-0.9,1.1-0.9,1.8c0,0.7,0.3,1.2,0.9,1.6c0.6,0.4,1.8,0.8,3.5,1.2
			c1.8,0.4,3.2,0.9,4.2,1.4s1.8,1.2,2.2,1.9c0.5,0.8,0.7,1.7,0.7,2.7c0,1.8-0.7,3.3-2.2,4.4s-3.5,1.7-5.9,1.7
			c-1.6,0-3.1-0.3-4.4-0.9c-1.3-0.6-2.3-1.4-3-2.4s-1.1-2.2-1.1-3.4h4.4c0.1,1.1,0.5,1.9,1.2,2.5s1.7,0.9,3,0.9
			c1.2,0,2.1-0.2,2.7-0.7C871.6,170,871.9,169.4,871.9,168.7z"/>
		<path class="st10" d="M879.4,163.9c0-2,0.4-3.7,1.2-5.3c0.8-1.6,1.9-2.8,3.3-3.6c1.4-0.8,3-1.3,4.9-1.3c2.7,0,4.9,0.9,6.6,2.6
			s2.6,4.1,2.7,6.9v1.1c0,2-0.4,3.7-1.1,5.3s-1.8,2.8-3.3,3.6s-3.1,1.3-4.9,1.3c-2.8,0-5.1-0.9-6.8-2.8s-2.6-4.4-2.6-7.5
			L879.4,163.9L879.4,163.9z M883.9,164.3c0,2.1,0.4,3.7,1.3,4.9c0.9,1.2,2,1.8,3.6,1.8s2.7-0.6,3.6-1.8s1.3-2.9,1.3-5.2
			c0-2-0.4-3.6-1.3-4.8s-2.1-1.8-3.6-1.8s-2.6,0.6-3.5,1.8C884.3,160.2,883.9,162,883.9,164.3z"/>
		<path class="st10" d="M906.1,166.2c0-1.6,0.2-3,0.6-3.9s1.2-2.1,2.4-3.2c1.2-1.2,2-2,2.3-2.5c0.5-0.8,0.7-1.6,0.7-2.4
			c0-1.2-0.3-2-0.9-2.7s-1.4-0.9-2.5-0.9s-1.9,0.3-2.6,0.9s-1,1.4-1,2.4h-4.5c0-2.2,0.8-3.9,2.2-5.2s3.4-1.9,5.8-1.9
			c2.5,0,4.4,0.6,5.8,1.9s2.1,3,2.1,5.3c0,2-0.9,4-2.8,6l-2.3,2.2c-0.8,0.9-1.2,2.3-1.3,4.1L906.1,166.2L906.1,166.2z M905.7,172
			c0-0.7,0.2-1.3,0.7-1.8s1.1-0.7,1.9-0.7c0.8,0,1.4,0.2,1.9,0.7s0.7,1,0.7,1.7s-0.2,1.2-0.7,1.7s-1.1,0.7-1.9,0.7s-1.4-0.2-1.9-0.7
			S905.7,172.6,905.7,172z"/>
	</g>
</g>
</svg>
