<?xml version="1.0" encoding="utf-8"?>
<!-- Generator: Adobe Illustrator 25.2.1, SVG Export Plug-In . SVG Version: 6.00 Build 0)  -->
<!DOCTYPE svg PUBLIC "-//W3C//DTD SVG 1.1//EN" "http://www.w3.org/Graphics/SVG/1.1/DTD/svg11.dtd" [
	<!ENTITY ns_extend "http://ns.adobe.com/Extensibility/1.0/">
	<!ENTITY ns_ai "http://ns.adobe.com/AdobeIllustrator/10.0/">
	<!ENTITY ns_graphs "http://ns.adobe.com/Graphs/1.0/">
	<!ENTITY ns_vars "http://ns.adobe.com/Variables/1.0/">
	<!ENTITY ns_imrep "http://ns.adobe.com/ImageReplacement/1.0/">
	<!ENTITY ns_sfw "http://ns.adobe.com/SaveForWeb/1.0/">
	<!ENTITY ns_custom "http://ns.adobe.com/GenericCustomNamespace/1.0/">
	<!ENTITY ns_adobe_xpath "http://ns.adobe.com/XPath/1.0/">
]>
<svg version="1.1" id="Capa_1" xmlns:x="&ns_extend;" xmlns:i="&ns_ai;" xmlns:graph="&ns_graphs;"
	 xmlns="http://www.w3.org/2000/svg" xmlns:xlink="http://www.w3.org/1999/xlink" x="0px" y="0px" viewBox="0 0 651.6 234.9"
	 style="enable-background:new 0 0 651.6 234.9;" xml:space="preserve">
<style type="text/css">
	.st0{fill:#EA45A8;}
	.st1{fill:#F1F1F2;}
	.st2{fill:#FEC43E;}
	.st3{fill:#2E515A;}
	.st4{fill:#B1B5BA;}
	.st5{fill:#1DA8DE;}
	.st6{enable-background:new    ;}
	.st7{fill:#FFFFFF;}
	.st8{fill:#46D9E8;}
	.st9{opacity:0.1;enable-background:new    ;}
	.st10{fill:#E6E6E6;}
	.st11{fill:#D8D8D6;}
	.st12{fill:#EDEDED;}
</style>
<metadata>
	<sfw  xmlns="&ns_sfw;">
		<slices></slices>
		<sliceSourceBounds  bottomLeftOrigin="true" height="1265.8" width="1980" x="-536.8" y="-321.7"></sliceSourceBounds>
	</sfw>
</metadata>
<path class="st0" d="M617.1,718.9H34.5C15.4,718.9,0,703.5,0,684.4V518.5C0,499.4,15.4,484,34.5,484h582.6
	c19.1,0,34.5,15.4,34.5,34.5v165.9C651.6,703.5,636.2,718.9,617.1,718.9z"/>
<path class="st0" d="M1176.4,834.4H573.6c-13.3,0-24.1-10.8-24.1-24.1v-34.8c0-13.3,10.8-24.1,24.1-24.1h602.8
	c13.3,0,24.1,10.8,24.1,24.1v34.8C1200.5,823.6,1189.7,834.4,1176.4,834.4z"/>
<path class="st0" d="M595.6-142.6h-702v-59.8c0-12.6,10.2-22.8,22.8-22.8h656.4c12.6,0,22.8,10.2,22.8,22.8V-142.6z"/>
<g>
	<text transform="matrix(1 0 0 1 712.6321 883.506)" class="st7" style="font-family:'Roboto-Bold'; font-size:38px;">Avisos importantes</text>
</g>
<g>
	<text transform="matrix(1 0 0 1 770.9723 928.506)" class="st7" style="font-family:'Roboto-Medium'; font-size:34px;">Hacé clic aquí</text>
</g>
<g>
	<g>
		<path class="st1" d="M49.4,551.5v109.8c0,6.5,5.4,11.9,11.9,11.9H181c6.5,0,11.9-5.4,11.9-11.9V551.5c0-6.5-5.4-11.9-11.9-11.9
			H61.4C54.7,539.6,49.4,545,49.4,551.5z"/>
		<path class="st2" d="M49.4,551.5v24h143.7v-24c0-6.5-5.4-11.9-11.9-11.9H61.4C54.7,539.6,49.4,545,49.4,551.5z"/>
		<g>
			<path class="st3" d="M77,547.6c-3.3,0-6,2.7-6,6c0,3.3,2.7,6,6,6s6-2.7,6-6C83,550.3,80.3,547.6,77,547.6z"/>
			<path class="st4" d="M74,532.6v17.9c0,1.6,1.3,3,3,3l0,0c1.6,0,3-1.3,3-3v-17.9c0-1.6-1.3-3-3-3l0,0
				C75.3,529.7,74,530.9,74,532.6z"/>
			<circle class="st3" cx="106.4" cy="553.5" r="6"/>
			<path class="st4" d="M103.4,532.6v17.9c0,1.6,1.3,3,3,3l0,0c1.6,0,3-1.3,3-3v-17.9c0-1.6-1.3-3-3-3l0,0
				C104.8,529.7,103.4,530.9,103.4,532.6z"/>
			<circle class="st3" cx="136.1" cy="553.5" r="6"/>
			<path class="st4" d="M133.1,532.6v17.9c0,1.6,1.3,3,3,3l0,0c1.6,0,3-1.3,3-3v-17.9c0-1.6-1.3-3-3-3l0,0
				C134.4,529.7,133.1,530.9,133.1,532.6z"/>
			<circle class="st3" cx="165.5" cy="553.5" r="6"/>
			<path class="st4" d="M162.6,532.6v17.9c0,1.6,1.3,3,3,3l0,0c1.6,0,3-1.3,3-3v-17.9c0-1.6-1.3-3-3-3l0,0
				C163.9,529.7,162.6,530.9,162.6,532.6z"/>
		</g>
		<g>
			<path class="st4" d="M67.8,589.2v11.2c0,2,1.6,3.6,3.6,3.6h11.2c2,0,3.6-1.6,3.6-3.6v-11.2c0-2-1.6-3.6-3.6-3.6H71.3
				C69.3,585.5,67.8,587.2,67.8,589.2z"/>
			<path class="st4" d="M97.3,589.2v11.2c0,2,1.6,3.6,3.6,3.6h11.2c2,0,3.6-1.6,3.6-3.6v-11.2c0-2-1.6-3.6-3.6-3.6h-11.2
				C98.9,585.5,97.3,587.2,97.3,589.2z"/>
			<path class="st4" d="M126.8,589.2v11.2c0,2,1.6,3.6,3.6,3.6h11.2c2,0,3.6-1.6,3.6-3.6v-11.2c0-2-1.6-3.6-3.6-3.6h-11.2
				C128.4,585.5,126.8,587.2,126.8,589.2z"/>
			<path class="st4" d="M156.4,589.2v11.2c0,2,1.6,3.6,3.6,3.6h11c2,0,3.6-1.6,3.6-3.6v-11.2c0-2-1.6-3.6-3.6-3.6h-11.2
				C158.1,585.5,156.4,587.2,156.4,589.2z"/>
		</g>
		<g>
			<path class="st4" d="M67.8,613.9v11.2c0,2,1.6,3.6,3.6,3.6h11.2c2,0,3.6-1.6,3.6-3.6v-11.2c0-2-1.6-3.6-3.6-3.6H71.3
				C69.3,610.3,67.8,611.9,67.8,613.9z"/>
			<path class="st4" d="M97.3,613.9v11.2c0,2,1.6,3.6,3.6,3.6h11.2c2,0,3.6-1.6,3.6-3.6v-11.2c0-2-1.6-3.6-3.6-3.6h-11.2
				C98.9,610.3,97.3,611.9,97.3,613.9z"/>
			<path class="st0" d="M126.8,613.9v11.2c0,2,1.6,3.6,3.6,3.6h11.2c2,0,3.6-1.6,3.6-3.6v-11.2c0-2-1.6-3.6-3.6-3.6h-11.2
				C128.4,610.3,126.8,611.9,126.8,613.9z"/>
			<path class="st4" d="M156.4,613.9v11.2c0,2,1.6,3.6,3.6,3.6h11c2,0,3.6-1.6,3.6-3.6v-11.2c0-2-1.6-3.6-3.6-3.6h-11.2
				C158.1,610.3,156.4,611.9,156.4,613.9z"/>
		</g>
		<g>
			<path class="st4" d="M67.8,638.6v11.2c0,2,1.6,3.6,3.6,3.6h11.2c2,0,3.6-1.6,3.6-3.6v-11.2c0-2-1.6-3.6-3.6-3.6H71.3
				C69.3,635,67.8,636.6,67.8,638.6z"/>
			<path class="st4" d="M97.3,638.6v11.2c0,2,1.6,3.6,3.6,3.6h11.2c2,0,3.6-1.6,3.6-3.6v-11.2c0-2-1.6-3.6-3.6-3.6h-11.2
				C98.9,635,97.3,636.6,97.3,638.6z"/>
			<path class="st4" d="M126.8,638.6v11.2c0,2,1.6,3.6,3.6,3.6h11.2c2,0,3.6-1.6,3.6-3.6v-11.2c0-2-1.6-3.6-3.6-3.6h-11.2
				C128.4,635,126.8,636.6,126.8,638.6z"/>
			<path class="st4" d="M156.4,638.6v11.2c0,2,1.6,3.6,3.6,3.6h11c2,0,3.6-1.6,3.6-3.6v-11.2c0-2-1.6-3.6-3.6-3.6h-11.2
				C158.1,635,156.4,636.6,156.4,638.6z"/>
		</g>
		<g>
			<g>
				<path class="st0" d="M90.3,567L90.3,567c0,1.4,1.1,2.6,2.6,2.6H131c1.4,0,2.6-1.1,2.6-2.6l0,0c0-1.4-1.1-2.6-2.6-2.6H92.8
					C91.3,564.3,90.3,565.4,90.3,567z"/>
				<path class="st0" d="M139.2,567L139.2,567c0,1.4,1.1,2.6,2.6,2.6h8c1.4,0,2.6-1.1,2.6-2.6l0,0c0-1.4-1.1-2.6-2.6-2.6H142
					C140.3,564.3,139.2,565.4,139.2,567z"/>
			</g>
		</g>
	</g>
</g>
<path class="st5" d="M93.2,862.7h-630v-61c0-11.9,9.7-21.6,21.6-21.6H71.6c11.9,0,21.6,9.7,21.6,21.6V862.7L93.2,862.7z"/>
<g>
	<g class="st6">
		<path class="st7" d="M686.1,790.8c0,1.5-0.2,2.8-0.5,3.6c-0.3,0.9-0.9,1.8-1.8,2.8l-1.9,2c-1.1,1.2-1.7,2.5-1.7,3.8
			c0,1.2,0.3,2,0.9,2.6c0.6,0.6,1.5,0.9,2.6,0.9s2-0.3,2.6-0.9c0.7-0.6,1-1.4,1-2.5h4.5c0,2.2-0.8,3.9-2.3,5.2s-3.4,1.9-5.8,1.9
			c-2.5,0-4.5-0.6-5.9-1.9c-1.4-1.2-2.1-3-2.1-5.3c0-2,1-4.1,2.9-6.1l1.7-1.7c1-0.9,1.5-2,1.6-3.5v-1L686.1,790.8L686.1,790.8z
			 M686.5,785.1c0,0.7-0.2,1.3-0.7,1.7c-0.4,0.5-1.1,0.7-1.9,0.7s-1.4-0.2-1.9-0.7s-0.7-1-0.7-1.7c0-0.7,0.2-1.2,0.7-1.7
			s1.1-0.7,1.9-0.7s1.4,0.2,1.9,0.7C686.3,783.8,686.5,784.4,686.5,785.1z"/>
		<path class="st7" d="M716.3,794.3c-0.3,2.9-1.3,5.1-3.2,6.7s-4.3,2.4-7.4,2.4c-2.2,0-4-0.5-5.7-1.5c-1.6-1-2.9-2.5-3.8-4.4
			c-0.9-1.9-1.4-4.1-1.4-6.5v-2.5c0-2.5,0.5-4.8,1.4-6.7c0.9-1.9,2.2-3.4,3.9-4.5s3.6-1.6,5.9-1.6c3,0,5.4,0.8,7.2,2.4
			s2.9,3.9,3.2,6.9h-4.7c-0.2-1.9-0.8-3.3-1.7-4.2c-0.9-0.9-2.2-1.3-4-1.3c-2,0-3.6,0.7-4.7,2.2c-1.1,1.5-1.7,3.7-1.7,6.6v2.4
			c0,2.9,0.5,5.2,1.6,6.7c1,1.5,2.6,2.3,4.6,2.3c1.8,0,3.2-0.4,4.2-1.2c0.9-0.8,1.5-2.2,1.8-4.1L716.3,794.3L716.3,794.3z"/>
		<path class="st7" d="M732.2,801.2c-1.3,1.6-3.2,2.3-5.6,2.3c-2.2,0-3.8-0.6-4.9-1.9c-1.1-1.3-1.7-3.1-1.7-5.5v-13h4.5v13
			c0,2.5,1.1,3.8,3.2,3.8c2.2,0,3.7-0.8,4.4-2.4v-14.4h4.5v20.1h-4.2L732.2,801.2z"/>
		<path class="st7" d="M753.1,803.1c-0.2-0.4-0.4-1-0.5-1.9c-1.4,1.5-3.2,2.2-5.3,2.2c-2,0-3.7-0.6-4.9-1.7
			c-1.3-1.2-1.9-2.6-1.9-4.3c0-2.1,0.8-3.8,2.4-4.9c1.6-1.1,3.9-1.7,6.8-1.7h2.8v-1.3c0-1-0.3-1.9-0.9-2.5c-0.6-0.6-1.5-0.9-2.7-0.9
			c-1,0-1.9,0.3-2.5,0.8c-0.7,0.5-1,1.2-1,2h-4.5c0-1.1,0.4-2.1,1.1-3.1s1.7-1.7,3-2.3c1.3-0.5,2.7-0.8,4.2-0.8
			c2.4,0,4.2,0.6,5.6,1.8c1.4,1.2,2.1,2.8,2.2,5v9.1c0,1.8,0.3,3.2,0.8,4.3v0.3L753.1,803.1L753.1,803.1z M748.2,799.9
			c0.9,0,1.7-0.2,2.5-0.6s1.4-1,1.8-1.7v-3.8h-2.4c-1.7,0-2.9,0.3-3.8,0.9c-0.8,0.6-1.3,1.4-1.3,2.5c0,0.9,0.3,1.6,0.9,2.1
			C746.4,799.6,747.2,799.9,748.2,799.9z M750.7,774.6h5.1l-5.1,5.6h-3.6L750.7,774.6z"/>
		<path class="st7" d="M766.5,803.1H762v-28.5h4.5V803.1z"/>
		<path class="st7" d="M789.7,803.5c-2.9,0-5.2-0.9-6.9-2.7c-1.8-1.8-2.7-4.2-2.7-7.2V793c0-2,0.4-3.8,1.2-5.4
			c0.8-1.6,1.9-2.8,3.3-3.7c1.4-0.9,3-1.3,4.7-1.3c2.7,0,4.8,0.9,6.3,2.6s2.2,4.2,2.2,7.4v1.8h-13.1c0.1,1.7,0.7,3,1.7,3.9
			c1,1,2.2,1.4,3.7,1.4c2.1,0,3.7-0.8,5-2.5l2.4,2.3c-0.8,1.2-1.9,2.1-3.2,2.8C792.9,803.2,791.4,803.5,789.7,803.5z M789.2,786.3
			c-1.2,0-2.2,0.4-3,1.3s-1.2,2.1-1.5,3.6h8.6v-0.3c-0.1-1.5-0.5-2.7-1.2-3.4C791.4,786.7,790.4,786.3,789.2,786.3z"/>
		<path class="st7" d="M812.5,797.7c0-0.8-0.3-1.4-1-1.8s-1.8-0.8-3.3-1.1c-1.5-0.3-2.8-0.7-3.8-1.2c-2.3-1.1-3.4-2.7-3.4-4.7
			c0-1.7,0.7-3.2,2.2-4.3c1.5-1.2,3.3-1.7,5.6-1.7c2.4,0,4.3,0.6,5.8,1.8c1.5,1.2,2.2,2.7,2.2,4.6h-4.5c0-0.9-0.3-1.6-1-2.2
			c-0.6-0.6-1.5-0.9-2.6-0.9c-1,0-1.8,0.2-2.4,0.7c-0.6,0.5-0.9,1.1-0.9,1.8c0,0.7,0.3,1.2,0.9,1.6s1.8,0.8,3.5,1.2
			c1.8,0.4,3.2,0.9,4.2,1.4s1.8,1.2,2.2,1.9c0.5,0.8,0.7,1.7,0.7,2.7c0,1.8-0.7,3.3-2.2,4.4c-1.5,1.1-3.5,1.7-5.9,1.7
			c-1.6,0-3.1-0.3-4.4-0.9c-1.3-0.6-2.3-1.4-3-2.4s-1.1-2.2-1.1-3.4h4.4c0.1,1.1,0.5,1.9,1.2,2.5s1.7,0.9,3,0.9
			c1.2,0,2.1-0.2,2.7-0.7C812.2,799,812.5,798.4,812.5,797.7z"/>
		<path class="st7" d="M835.1,803.1h-4.5v-28.5h4.5V803.1z"/>
		<path class="st7" d="M852,803.1c-0.2-0.4-0.4-1-0.5-1.9c-1.4,1.5-3.2,2.2-5.3,2.2c-2,0-3.7-0.6-4.9-1.7c-1.3-1.2-1.9-2.6-1.9-4.3
			c0-2.1,0.8-3.8,2.4-4.9c1.6-1.1,3.9-1.7,6.8-1.7h2.8v-1.3c0-1-0.3-1.9-0.9-2.5c-0.6-0.6-1.5-0.9-2.7-0.9c-1,0-1.9,0.3-2.5,0.8
			c-0.7,0.5-1,1.2-1,2h-4.5c0-1.1,0.4-2.1,1.1-3.1s1.7-1.7,3-2.3c1.3-0.5,2.7-0.8,4.2-0.8c2.4,0,4.2,0.6,5.6,1.8
			c1.4,1.2,2.1,2.8,2.2,5v9.1c0,1.8,0.3,3.2,0.8,4.3v0.3L852,803.1L852,803.1z M847.1,799.9c0.9,0,1.7-0.2,2.5-0.6s1.4-1,1.8-1.7
			v-3.8h-2.5c-1.7,0-2.9,0.3-3.8,0.9c-0.8,0.6-1.3,1.4-1.3,2.5c0,0.9,0.3,1.6,0.9,2.1C845.3,799.6,846.1,799.9,847.1,799.9z"/>
		<path class="st7" d="M882,803.1c-0.2-0.4-0.4-1-0.5-1.9c-1.4,1.5-3.2,2.2-5.3,2.2c-2,0-3.7-0.6-4.9-1.7c-1.3-1.2-1.9-2.6-1.9-4.3
			c0-2.1,0.8-3.8,2.4-4.9c1.6-1.1,3.9-1.7,6.8-1.7h2.8v-1.3c0-1-0.3-1.9-0.9-2.5c-0.6-0.6-1.5-0.9-2.7-0.9c-1,0-1.9,0.3-2.5,0.8
			c-0.7,0.5-1,1.2-1,2h-4.5c0-1.1,0.4-2.1,1.1-3.1s1.7-1.7,3-2.3c1.3-0.5,2.7-0.8,4.2-0.8c2.4,0,4.2,0.6,5.6,1.8
			c1.4,1.2,2.1,2.8,2.2,5v9.1c0,1.8,0.3,3.2,0.8,4.3v0.3L882,803.1L882,803.1z M877.1,799.9c0.9,0,1.7-0.2,2.5-0.6s1.4-1,1.8-1.7
			v-3.8h-2.5c-1.7,0-2.9,0.3-3.8,0.9c-0.8,0.6-1.3,1.4-1.3,2.5c0,0.9,0.3,1.6,0.9,2.1C875.4,799.6,876.1,799.9,877.1,799.9z"/>
		<path class="st7" d="M889.8,792.9c0-3.1,0.7-5.6,2.2-7.5c1.5-1.9,3.4-2.8,5.8-2.8c2.3,0,4.1,0.8,5.4,2.4l0.2-2h4.1v19.5
			c0,2.6-0.8,4.7-2.5,6.2c-1.6,1.5-3.9,2.3-6.6,2.3c-1.5,0-2.9-0.3-4.3-0.9c-1.4-0.6-2.5-1.4-3.2-2.4l2.1-2.7
			c1.4,1.6,3.1,2.5,5.1,2.5c1.5,0,2.7-0.4,3.5-1.2c0.9-0.8,1.3-2,1.3-3.6v-1.4c-1.3,1.4-3,2.2-5.2,2.2c-2.4,0-4.3-0.9-5.8-2.8
			C890.6,798.8,889.8,796.2,889.8,792.9z M894.3,793.3c0,2,0.4,3.6,1.2,4.8s2,1.7,3.4,1.7c1.8,0,3.2-0.8,4-2.3v-8.8
			c-0.9-1.5-2.2-2.3-4-2.3c-1.5,0-2.6,0.6-3.5,1.8C894.7,789.3,894.3,791,894.3,793.3z"/>
		<path class="st7" d="M921,803.5c-2.9,0-5.2-0.9-6.9-2.7c-1.8-1.8-2.7-4.2-2.7-7.2V793c0-2,0.4-3.8,1.2-5.4
			c0.8-1.6,1.9-2.8,3.3-3.7c1.4-0.9,3-1.3,4.7-1.3c2.7,0,4.8,0.9,6.3,2.6s2.2,4.2,2.2,7.4v1.8h-13.2c0.1,1.7,0.7,3,1.7,3.9
			c1,1,2.2,1.4,3.7,1.4c2.1,0,3.7-0.8,5-2.5l2.4,2.3c-0.8,1.2-1.9,2.1-3.2,2.8C924.2,803.2,922.7,803.5,921,803.5z M920.5,786.3
			c-1.2,0-2.2,0.4-3,1.3s-1.2,2.1-1.5,3.6h8.6v-0.3c-0.1-1.5-0.5-2.7-1.2-3.4C922.7,786.7,921.7,786.3,920.5,786.3z"/>
		<path class="st7" d="M936.7,783l0.1,2.3c1.5-1.8,3.4-2.7,5.8-2.7c4.2,0,6.3,2.4,6.4,7.2v13.3h-4.5v-13c0-1.3-0.3-2.2-0.8-2.8
			c-0.6-0.6-1.5-0.9-2.7-0.9c-1.8,0-3.2,0.8-4.1,2.5v14.3h-4.5v-20.1L936.7,783L936.7,783z"/>
		<path class="st7" d="M952.8,792.9c0-3.1,0.7-5.6,2.2-7.5c1.4-1.9,3.4-2.8,5.8-2.8c2.1,0,3.8,0.7,5.2,2.2v-10.3h4.5V803h-4.1
			l-0.2-2.1c-1.3,1.6-3.1,2.4-5.4,2.4c-2.4,0-4.3-0.9-5.7-2.8C953.7,798.6,952.8,796.2,952.8,792.9z M957.3,793.3
			c0,2,0.4,3.6,1.2,4.8c0.8,1.1,1.9,1.7,3.3,1.7c1.8,0,3.2-0.8,4-2.5v-8.6c-0.8-1.6-2.2-2.4-4-2.4c-1.5,0-2.6,0.6-3.4,1.7
			C957.7,789.3,957.3,791,957.3,793.3z"/>
		<path class="st7" d="M987.1,803.1c-0.2-0.4-0.4-1-0.5-1.9c-1.4,1.5-3.2,2.2-5.3,2.2c-2,0-3.7-0.6-4.9-1.7
			c-1.3-1.2-1.9-2.6-1.9-4.3c0-2.1,0.8-3.8,2.4-4.9c1.6-1.1,3.9-1.7,6.8-1.7h2.8v-1.3c0-1-0.3-1.9-0.9-2.5c-0.6-0.6-1.5-0.9-2.7-0.9
			c-1,0-1.9,0.3-2.5,0.8c-0.7,0.5-1,1.2-1,2h-4.5c0-1.1,0.4-2.1,1.1-3.1s1.7-1.7,3-2.3c1.3-0.5,2.7-0.8,4.2-0.8
			c2.3,0,4.2,0.6,5.6,1.8c1.4,1.2,2.1,2.8,2.2,5v9.1c0,1.8,0.3,3.2,0.8,4.3v0.3L987.1,803.1L987.1,803.1z M982.2,799.9
			c0.9,0,1.7-0.2,2.5-0.6s1.4-1,1.8-1.7v-3.8h-2.4c-1.7,0-2.9,0.3-3.8,0.9c-0.8,0.6-1.3,1.4-1.3,2.5c0,0.9,0.3,1.6,0.9,2.1
			C980.4,799.6,981.2,799.9,982.2,799.9z"/>
		<path class="st7" d="M1004.3,792.9c0-3.1,0.7-5.6,2.2-7.5c1.4-1.9,3.4-2.8,5.8-2.8c2.1,0,3.8,0.7,5.2,2.2v-10.3h4.5V803h-4.1
			l-0.2-2.1c-1.3,1.6-3.1,2.4-5.4,2.4c-2.4,0-4.3-0.9-5.7-2.8C1005.2,798.6,1004.3,796.2,1004.3,792.9z M1008.8,793.3
			c0,2,0.4,3.6,1.2,4.8c0.8,1.1,1.9,1.7,3.3,1.7c1.8,0,3.2-0.8,4-2.5v-8.6c-0.8-1.6-2.2-2.4-4-2.4c-1.5,0-2.6,0.6-3.4,1.7
			C1009.2,789.3,1008.8,791,1008.8,793.3z"/>
		<path class="st7" d="M1035.4,803.5c-2.9,0-5.2-0.9-6.9-2.7c-1.8-1.8-2.7-4.2-2.7-7.2V793c0-2,0.4-3.8,1.2-5.4
			c0.8-1.6,1.9-2.8,3.3-3.7s3-1.3,4.7-1.3c2.7,0,4.8,0.9,6.3,2.6s2.2,4.2,2.2,7.4v1.8h-13.1c0.1,1.7,0.7,3,1.7,3.9s2.2,1.4,3.7,1.4
			c2.1,0,3.7-0.8,5-2.5l2.4,2.3c-0.8,1.2-1.9,2.1-3.2,2.8C1038.6,803.2,1037.1,803.5,1035.4,803.5z M1034.9,786.3
			c-1.2,0-2.2,0.4-3,1.3s-1.2,2.1-1.5,3.6h8.6v-0.3c-0.1-1.5-0.5-2.7-1.2-3.4C1037.1,786.7,1036.2,786.3,1034.9,786.3z"/>
		<path class="st7" d="M1051.8,803.1h-4.5v-28.5h4.5V803.1z"/>
		<path class="st7" d="M1074.4,799.9c1.1,0,2.1-0.3,2.8-1c0.7-0.7,1.1-1.5,1.2-2.4h4.2c0,1.3-0.4,2.4-1.2,3.5
			c-0.7,1.1-1.7,1.9-3,2.6c-1.3,0.6-2.6,0.9-4,0.9c-2.8,0-5-0.9-6.7-2.7c-1.6-1.8-2.5-4.3-2.5-7.5v-0.5c0-3.1,0.8-5.5,2.4-7.3
			s3.9-2.8,6.7-2.8c2.4,0,4.3,0.7,5.8,2.1c1.5,1.4,2.3,3.2,2.4,5.5h-4.2c0-1.2-0.4-2.1-1.2-2.8c-0.8-0.7-1.7-1.1-2.8-1.1
			c-1.5,0-2.6,0.5-3.4,1.6c-0.8,1.1-1.2,2.7-1.2,4.8v0.7c0,2.2,0.4,3.8,1.2,4.9C1071.8,799.4,1072.9,799.9,1074.4,799.9z"/>
		<path class="st7" d="M1098.2,801.2c-1.3,1.6-3.2,2.3-5.6,2.3c-2.2,0-3.8-0.6-4.9-1.9c-1.1-1.3-1.7-3.1-1.7-5.5v-13h4.5v13
			c0,2.5,1.1,3.8,3.2,3.8c2.2,0,3.7-0.8,4.4-2.4v-14.4h4.5v20.1h-4.2L1098.2,801.2z"/>
		<path class="st7" d="M1117.7,787.2c-0.6-0.1-1.2-0.1-1.8-0.1c-2.1,0-3.5,0.8-4.2,2.4v13.7h-4.5v-20.1h4.3l0.1,2.2
			c1.1-1.7,2.6-2.6,4.5-2.6c0.6,0,1.2,0.1,1.6,0.3V787.2L1117.7,787.2z"/>
		<path class="st7" d="M1131.8,797.7c0-0.8-0.3-1.4-1-1.8s-1.8-0.8-3.3-1.1c-1.5-0.3-2.8-0.7-3.8-1.2c-2.3-1.1-3.4-2.7-3.4-4.7
			c0-1.7,0.7-3.2,2.2-4.3c1.5-1.2,3.3-1.7,5.6-1.7c2.4,0,4.3,0.6,5.8,1.8c1.5,1.2,2.2,2.7,2.2,4.6h-4.5c0-0.9-0.3-1.6-1-2.2
			c-0.6-0.6-1.5-0.9-2.6-0.9c-1,0-1.8,0.2-2.4,0.7s-0.9,1.1-0.9,1.8c0,0.7,0.3,1.2,0.9,1.6s1.8,0.8,3.5,1.2c1.8,0.4,3.2,0.9,4.2,1.4
			s1.8,1.2,2.2,1.9c0.5,0.8,0.7,1.7,0.7,2.7c0,1.8-0.7,3.3-2.2,4.4c-1.5,1.1-3.5,1.7-5.9,1.7c-1.6,0-3.1-0.3-4.4-0.9s-2.3-1.4-3-2.4
			s-1.1-2.2-1.1-3.4h4.4c0.1,1.1,0.5,1.9,1.2,2.5s1.7,0.9,3,0.9c1.2,0,2.1-0.2,2.7-0.7C1131.5,799,1131.8,798.4,1131.8,797.7z"/>
		<path class="st7" d="M1139.3,792.9c0-2,0.4-3.7,1.2-5.3c0.8-1.6,1.9-2.8,3.3-3.6c1.4-0.8,3-1.3,4.9-1.3c2.7,0,4.9,0.9,6.6,2.6
			c1.7,1.7,2.6,4.1,2.7,6.9v1.1c0,2-0.4,3.7-1.1,5.3c-0.7,1.6-1.8,2.8-3.3,3.6s-3.1,1.3-4.9,1.3c-2.8,0-5.1-0.9-6.8-2.8
			c-1.7-1.9-2.6-4.4-2.6-7.5L1139.3,792.9L1139.3,792.9z M1143.8,793.3c0,2.1,0.4,3.7,1.3,4.9c0.9,1.2,2,1.8,3.6,1.8
			s2.7-0.6,3.6-1.8c0.9-1.2,1.3-2.9,1.3-5.2c0-2-0.4-3.6-1.3-4.8c-0.9-1.2-2.1-1.8-3.6-1.8s-2.6,0.6-3.5,1.8
			C1144.2,789.2,1143.8,791,1143.8,793.3z"/>
		<path class="st7" d="M1166,795.2c0-1.6,0.2-3,0.6-3.9c0.4-0.9,1.2-2.1,2.4-3.2c1.2-1.2,2-2,2.3-2.5c0.5-0.8,0.7-1.6,0.7-2.4
			c0-1.2-0.3-2-0.9-2.7s-1.4-0.9-2.5-0.9s-1.9,0.3-2.6,0.9s-1,1.4-1,2.4h-4.5c0-2.2,0.8-3.9,2.2-5.2c1.4-1.3,3.4-1.9,5.8-1.9
			c2.5,0,4.4,0.6,5.8,1.9c1.4,1.3,2.1,3,2.1,5.3c0,2-0.9,4-2.8,6l-2.3,2.2c-0.8,0.9-1.2,2.3-1.3,4.1L1166,795.2L1166,795.2z
			 M1165.6,801c0-0.7,0.2-1.3,0.7-1.8s1.1-0.7,1.9-0.7s1.4,0.2,1.9,0.7s0.7,1,0.7,1.7s-0.2,1.2-0.7,1.7s-1.1,0.7-1.9,0.7
			s-1.4-0.2-1.9-0.7S1165.6,801.6,1165.6,801z"/>
	</g>
</g>
<path class="st0" d="M1419.1,1040.6H816.3c-13.3,0-24.1-10.8-24.1-24.1v-34.8c0-13.3,10.8-24.1,24.1-24.1h602.8
	c13.3,0,24.1,10.8,24.1,24.1v34.8C1443.2,1029.8,1432.4,1040.6,1419.1,1040.6z"/>
<g>
	<text transform="matrix(1 0 0 1 813.6943 133.6624)" class="st7" style="font-family:'Roboto-Bold'; font-size:44.7555px;">Avisos importantes</text>
</g>
<g>
	<text transform="matrix(1 0 0 1 882.4063 186.6624)" class="st7" style="font-family:'Roboto-Medium'; font-size:40.0443px;">Hacé clic aquí</text>
</g>
<g>
	<path class="st0" d="M617.1,234.9H34.5C15.4,234.9,0,219.5,0,200.4V34.5C0,15.4,15.4,0,34.5,0h582.6c19.1,0,34.5,15.4,34.5,34.5
		v165.9C651.6,219.5,636.2,234.9,617.1,234.9z"/>
	<g>
		<g>
			<path class="st8" d="M73.9,136.4c-0.8-1.3-2.3-1.6-3.6-0.9L59.6,142c-1.3,0.8-1.6,2.3-0.9,3.6l4.1,6.9c0.8,1.3,2.3,1.6,3.6,0.9
				l10.7-6.5c1.3-0.8,1.6-2.3,0.9-3.6L73.9,136.4z"/>
			<path class="st9" d="M58.6,143.7c-0.1-0.1-0.2-0.2-0.3-0.1l0,0c-0.1,0.1-0.2,0.2-0.1,0.3l5.8,9.7c0.1,0.1,0.2,0.2,0.3,0.1l0,0
				c0.1-0.1,0.2-0.2,0.1-0.3L58.6,143.7z"/>
			<g>
				<path class="st10" d="M88.3,111.8l-28.2,17c-1.5,0.9-2.4,2.6-2.9,4l4.3-2.6l2.3,3.8l-6.2,3.6c0.1,0.2,0,0.5,0.1,0.6l10.9,18.2
					c1.9,3.1,6.1,4,9.3,2l28.3-16.9c3.1-1.9,4.3-5.9,2.4-9.2l-11.1-18.1C95.9,111.2,91.6,110,88.3,111.8z"/>
				<path class="st7" d="M61.5,130.2l-4.3,2.6c-0.3,1.7-0.2,3.6,0.5,5l6.1-3.7L61.5,130.2z"/>
			</g>
			<path class="st8" d="M116.5,178.9l0.1-0.1l-17-28.4c-1.9-3.1-6.3-4-9.7-1.9l-2.6,1.5c-3.5,2-5,6.4-3,9.6l17,28.4
				c1.9,3.1,6.3,3.7,9.7,1.6l2.3-1.4l0.1-0.1l5.7-3.5c1.6-1,2.2-2.6,1.3-4.1l-0.1-0.2C119.6,178.8,118,178.3,116.5,178.9z"/>
			<path class="st8" d="M164.8,86.4c3.5,5.7,1.6,13.3-4.2,16.8c-5.7,3.5-13.3,1.6-16.8-4.2c-3.5-5.7-1.6-13.3,4.2-16.8
				C153.7,78.7,161.1,80.6,164.8,86.4z"/>
			<path class="st2" d="M184.9,135.4c1.3,2.2,0.6,5-1.5,6.3l-0.1,0.1c-2.2,1.3-5,0.6-6.3-1.5l-54.5-90.7c-1.3-2.2-0.6-5,1.5-6.3
				l0.1-0.1c2.2-1.3,5-0.6,6.3,1.5L184.9,135.4z"/>
			<path class="st2" d="M104.5,143.2c1.9,3.1,0.9,7.2-2.3,9.2L88,160.9c-3.1,1.9-7.2,0.9-9.2-2.3l-18.2-30.3
				c-1.9-3.1-0.9-7.2,2.3-9.2l14.2-8.5c3.1-1.9,7.2-0.9,9.2,2.3L104.5,143.2z"/>
			<path class="st11" d="M122.6,49.7c0,0,9.6,36.6-35.3,63.4l17.7,29.6c0,0,58.6-24.5,71.9-2.3L122.6,49.7z"/>
			<path class="st12" d="M88.1,114.4l2.3,3.8c44.6-26.9,35.1-63.4,35.1-63.4l-2.3-3.8C123.4,51,133,87.6,88.1,114.4z"/>
		</g>
		<path class="st9" d="M60.4,148.3l2.3,4c0.8,1.3,2.4,1.5,3.7,0.8l0.1-0.1l2,3.5c1.9,3.1,6.1,4.1,9.3,2.2l0.8-0.3l0.1,0.1
			c1.4,2.4,4.3,3.5,6.8,3.1l16.1,26.6c1.9,3.1,6.3,3.7,9.7,1.6l2.3-1.4l0.1-0.1l5.7-3.5c1.6-1,2.2-2.6,1.3-4.1l-0.1-0.2
			c-0.8-1.4-2.4-1.9-4-1.3l0.1-0.1l-16-26.3l1.5-0.9c3.1-1.9,4.4-6.1,2.6-9.3l0,0l0,0l0,0c0,0,58.6-24.5,71.9-2.3l0.1,0.2
			c1.3,2.2,4.1,2.9,6.3,1.6s2.8-4.1,1.5-6.3l-21.2-35.4c3.3-4,4-9.6,1.2-14.2c0-0.1-0.1-0.2-0.1-0.2L60.4,148.3z"/>
	</g>
	<g>
		<g class="st6">
			<path class="st7" d="M243.3,100.6h-11.5l-2.2,6.6h-7l11.8-31.8h6.1l11.9,31.8h-7L243.3,100.6z M233.5,95.3h8l-4-11.9L233.5,95.3z
				"/>
			<path class="st7" d="M262.8,99.4l4.4-15.9h6.6l-8,23.6h-6l-8-23.6h6.6L262.8,99.4z"/>
			<path class="st7" d="M276.5,77.4c0-0.9,0.3-1.7,1-2.3s1.5-0.9,2.6-0.9s1.9,0.3,2.6,0.9c0.6,0.6,1,1.4,1,2.3c0,1-0.3,1.7-1,2.4
				c-0.6,0.6-1.5,0.9-2.6,0.9s-1.9-0.3-2.6-0.9C276.8,79.1,276.5,78.4,276.5,77.4z M283.2,107.2h-6.3V83.6h6.3V107.2z"/>
			<path class="st7" d="M301.2,100.6c0-0.8-0.4-1.4-1.1-1.8c-0.8-0.4-2-0.8-3.7-1.2c-5.6-1.2-8.4-3.6-8.4-7.2c0-2.1,0.9-3.8,2.6-5.3
				c1.7-1.4,4-2.1,6.8-2.1c3,0,5.4,0.7,7.2,2.1s2.7,3.2,2.7,5.5H301c0-0.9-0.3-1.6-0.9-2.2s-1.5-0.9-2.7-0.9c-1.1,0-1.9,0.2-2.5,0.7
				S294,89.3,294,90c0,0.7,0.3,1.3,1,1.7s1.8,0.8,3.4,1.1c1.6,0.3,2.9,0.7,4,1.1c3.3,1.2,5,3.3,5,6.4c0,2.2-0.9,3.9-2.8,5.2
				c-1.9,1.3-4.2,2-7.2,2c-2,0-3.7-0.4-5.3-1.1c-1.5-0.7-2.7-1.7-3.6-2.9c-0.9-1.2-1.3-2.6-1.3-4h6c0.1,1.1,0.5,2,1.2,2.6
				c0.8,0.6,1.8,0.9,3.1,0.9c1.2,0,2.1-0.2,2.7-0.7C300.9,102,301.2,101.4,301.2,100.6z"/>
			<path class="st7" d="M310.4,95.1c0-2.3,0.5-4.4,1.4-6.3c0.9-1.8,2.2-3.3,3.9-4.3c1.7-1,3.7-1.5,5.9-1.5c3.2,0,5.8,1,7.8,2.9
				s3.1,4.6,3.4,8v1.6c0,3.6-1,6.5-3,8.7s-4.7,3.3-8.2,3.3c-3.4,0-6.1-1.1-8.2-3.3c-2-2.2-3-5.2-3-8.9L310.4,95.1L310.4,95.1z
				 M316.7,95.6c0,2.2,0.4,4,1.3,5.2c0.8,1.2,2.1,1.8,3.6,1.8s2.7-0.6,3.6-1.8c0.9-1.2,1.3-3.1,1.3-5.6c0-2.2-0.4-3.9-1.3-5.1
				s-2.1-1.8-3.6-1.8s-2.7,0.6-3.6,1.8C317.2,91.2,316.7,93,316.7,95.6z"/>
			<path class="st7" d="M349.5,100.6c0-0.8-0.4-1.4-1.1-1.8c-0.8-0.4-2-0.8-3.7-1.2c-5.6-1.2-8.4-3.6-8.4-7.2c0-2.1,0.9-3.8,2.6-5.3
				c1.7-1.4,4-2.1,6.8-2.1c3,0,5.4,0.7,7.2,2.1s2.7,3.2,2.7,5.5h-6.3c0-0.9-0.3-1.6-0.9-2.2s-1.5-0.9-2.7-0.9
				c-1.1,0-1.9,0.2-2.5,0.7s-0.9,1.1-0.9,1.8c0,0.7,0.3,1.3,1,1.7c0.7,0.4,1.8,0.8,3.4,1.1c1.6,0.3,2.9,0.7,4,1.1
				c3.3,1.2,5,3.3,5,6.4c0,2.2-0.9,3.9-2.8,5.2c-1.8,1.3-4.2,2-7.2,2c-2,0-3.7-0.4-5.3-1.1c-1.5-0.7-2.7-1.7-3.6-2.9
				c-0.9-1.2-1.3-2.6-1.3-4h6c0.1,1.1,0.5,2,1.2,2.6c0.8,0.6,1.8,0.9,3.1,0.9c1.2,0,2.1-0.2,2.7-0.7
				C349.2,102,349.5,101.4,349.5,100.6z"/>
			<path class="st7" d="M370.8,77.4c0-0.9,0.3-1.7,1-2.3s1.5-0.9,2.6-0.9s1.9,0.3,2.6,0.9c0.6,0.6,1,1.4,1,2.3c0,1-0.3,1.7-1,2.4
				c-0.6,0.6-1.5,0.9-2.6,0.9s-1.9-0.3-2.6-0.9S370.8,78.4,370.8,77.4z M377.5,107.2h-6.3V83.6h6.3V107.2z"/>
			<path class="st7" d="M388.6,83.5l0.2,2.6c1.7-2.1,3.9-3.1,6.8-3.1c3,0,5.1,1.2,6.3,3.6c1.7-2.4,4-3.6,7.1-3.6
				c2.6,0,4.5,0.7,5.7,2.2c1.3,1.5,1.9,3.7,1.9,6.7V107h-6.3V91.9c0-1.3-0.3-2.3-0.8-2.9s-1.5-0.9-2.8-0.9c-1.9,0-3.2,0.9-3.9,2.7
				V107h-6.3V91.9c0-1.4-0.3-2.4-0.8-3s-1.5-0.9-2.8-0.9c-1.8,0-3.1,0.7-3.9,2.2v16.7h-6.3V83.3h5.9V83.5z"/>
			<path class="st7" d="M442.8,95.6c0,3.6-0.8,6.6-2.5,8.8c-1.7,2.2-3.9,3.3-6.7,3.3c-2.4,0-4.3-0.8-5.8-2.5v11.1h-6.3V83.6h5.9
				l0.2,2.3c1.5-1.8,3.5-2.8,6-2.8c2.9,0,5.2,1.1,6.8,3.2c1.6,2.2,2.4,5.1,2.4,8.9V95.6z M436.4,95.1c0-2.2-0.4-3.9-1.2-5.1
				c-0.8-1.2-1.9-1.8-3.4-1.8c-2,0-3.3,0.8-4.1,2.3v9.7c0.8,1.6,2.1,2.3,4.1,2.3C434.9,102.5,436.4,100,436.4,95.1z"/>
			<path class="st7" d="M445.7,95.1c0-2.3,0.5-4.4,1.4-6.3c0.9-1.8,2.2-3.3,3.9-4.3c1.7-1,3.7-1.5,5.9-1.5c3.2,0,5.8,1,7.8,2.9
				s3.1,4.6,3.4,8v1.6c0,3.6-1,6.5-3,8.7s-4.7,3.3-8.2,3.3s-6.1-1.1-8.2-3.3c-2-2.2-3-5.2-3-8.9L445.7,95.1L445.7,95.1z M452,95.6
				c0,2.2,0.4,4,1.3,5.2c0.8,1.2,2.1,1.8,3.6,1.8s2.7-0.6,3.6-1.8c0.9-1.2,1.3-3.1,1.3-5.6c0-2.2-0.4-3.9-1.3-5.1s-2.1-1.8-3.6-1.8
				s-2.7,0.6-3.6,1.8C452.4,91.2,452,93,452,95.6z"/>
			<path class="st7" d="M485.3,89.4c-0.9-0.1-1.6-0.2-2.3-0.2c-2.4,0-4,0.8-4.7,2.4v15.5H472V83.5h6l0.2,2.8c1.3-2.2,3-3.3,5.3-3.3
				c0.7,0,1.4,0.1,2,0.3L485.3,89.4z"/>
			<path class="st7" d="M497,77.7v5.8h4v4.6h-4v11.8c0,0.9,0.2,1.5,0.5,1.9s1,0.6,1.9,0.6c0.7,0,1.3-0.1,1.9-0.2v4.8
				c-1.2,0.4-2.5,0.6-3.8,0.6c-4.4,0-6.7-2.2-6.8-6.7V88.2h-3.5v-4.6h3.5v-5.8L497,77.7L497,77.7z"/>
			<path class="st7" d="M518.2,107.2c-0.3-0.6-0.5-1.3-0.6-2.1c-1.5,1.7-3.5,2.6-6,2.6c-2.3,0-4.2-0.7-5.8-2s-2.3-3-2.3-5.1
				c0-2.5,0.9-4.4,2.8-5.8s4.5-2,8.1-2h2.9v-1.4c0-1.1-0.3-2-0.8-2.6c-0.6-0.7-1.4-1-2.7-1c-1.1,0-1.9,0.3-2.5,0.8s-0.9,1.2-0.9,2.1
				h-6.3c0-1.4,0.4-2.6,1.3-3.8c0.8-1.2,2-2.1,3.6-2.7c1.5-0.7,3.3-1,5.2-1c2.9,0,5.2,0.7,6.9,2.2s2.6,3.5,2.6,6.2v10.2
				c0,2.2,0.3,3.9,0.9,5.1v0.4h-6.4V107.2z M513,102.8c0.9,0,1.8-0.2,2.6-0.6s1.4-1,1.7-1.7v-4.1H515c-3.2,0-4.8,1.1-5,3.3v0.4
				c0,0.8,0.3,1.4,0.8,1.9S512,102.8,513,102.8z"/>
			<path class="st7" d="M534.3,83.5l0.2,2.7c1.7-2.1,4-3.2,6.8-3.2c2.5,0,4.4,0.7,5.6,2.2s1.8,3.7,1.9,6.6v15.3h-6.3V92
				c0-1.3-0.3-2.3-0.9-2.9c-0.6-0.6-1.6-0.9-2.9-0.9c-1.8,0-3.1,0.8-4,2.3v16.7h-6.3V83.6h5.9V83.5z"/>
			<path class="st7" d="M561.1,77.7v5.8h4v4.6h-4v11.8c0,0.9,0.2,1.5,0.5,1.9s1,0.6,1.9,0.6c0.7,0,1.3-0.1,1.9-0.2v4.8
				c-1.2,0.4-2.5,0.6-3.8,0.6c-4.4,0-6.7-2.2-6.8-6.7V88.2h-3.5v-4.6h3.5v-5.8L561.1,77.7L561.1,77.7z"/>
			<path class="st7" d="M579.6,107.6c-3.5,0-6.3-1.1-8.5-3.2s-3.3-5-3.3-8.5v-0.6c0-2.4,0.5-4.5,1.4-6.4s2.2-3.3,3.9-4.3
				s3.6-1.5,5.8-1.5c3.2,0,5.8,1,7.6,3.1c1.9,2,2.8,4.9,2.8,8.7v2.6h-15.1c0.2,1.5,0.8,2.8,1.8,3.7c1,0.9,2.3,1.4,3.9,1.4
				c2.4,0,4.3-0.9,5.7-2.6l3.1,3.5c-0.9,1.3-2.2,2.4-3.8,3.1C583.3,107.2,581.5,107.6,579.6,107.6z M578.9,88.2
				c-1.3,0-2.3,0.4-3,1.3c-0.8,0.8-1.3,2.1-1.5,3.6h8.8v-0.5c0-1.4-0.4-2.5-1.1-3.3C581.2,88.6,580.2,88.2,578.9,88.2z"/>
			<path class="st7" d="M605.7,100.6c0-0.8-0.4-1.4-1.1-1.8c-0.8-0.4-2-0.8-3.7-1.2c-5.6-1.2-8.4-3.6-8.4-7.2c0-2.1,0.9-3.8,2.6-5.3
				c1.7-1.4,4-2.1,6.8-2.1c3,0,5.4,0.7,7.2,2.1s2.7,3.2,2.7,5.5h-6.3c0-0.9-0.3-1.6-0.9-2.2c-0.6-0.6-1.5-0.9-2.7-0.9
				c-1.1,0-1.9,0.2-2.5,0.7s-0.9,1.1-0.9,1.8c0,0.7,0.3,1.3,1,1.7s1.8,0.8,3.4,1.1s2.9,0.7,4,1.1c3.3,1.2,5,3.3,5,6.4
				c0,2.2-0.9,3.9-2.8,5.2c-1.8,1.3-4.2,2-7.2,2c-2,0-3.7-0.4-5.3-1.1c-1.5-0.7-2.7-1.7-3.6-2.9c-0.9-1.2-1.3-2.6-1.3-4h6
				c0.1,1.1,0.5,2,1.2,2.6c0.8,0.6,1.8,0.9,3.1,0.9c1.2,0,2.1-0.2,2.7-0.7C605.4,102,605.7,101.4,605.7,100.6z"/>
		</g>
	</g>
	<g>
		<g class="st6">
			<path class="st7" d="M316.7,160.2h-4.9v-12.6H299v12.6h-4.9v-28.5h4.9v11.8h12.7v-11.8h4.9v28.5H316.7z"/>
			<path class="st7" d="M334.7,160.2c-0.2-0.4-0.4-1.1-0.5-2c-1.5,1.6-3.4,2.4-5.6,2.4c-2.1,0-3.9-0.6-5.2-1.8c-1.3-1.2-2-2.7-2-4.5
				c0-2.3,0.8-4,2.5-5.2s4.1-1.8,7.2-1.8h2.9v-1.4c0-1.1-0.3-2-0.9-2.6c-0.6-0.7-1.5-1-2.8-1c-1.1,0-2,0.3-2.7,0.8s-1,1.2-1,2.1
				h-4.8c0-1.2,0.4-2.2,1.2-3.3c0.8-1,1.8-1.8,3.1-2.4c1.3-0.6,2.8-0.9,4.4-0.9c2.5,0,4.5,0.6,5.9,1.9c1.5,1.2,2.2,3,2.3,5.3v9.5
				c0,1.9,0.3,3.4,0.8,4.6v0.3H334.7z M329.5,156.7c0.9,0,1.8-0.2,2.6-0.7c0.8-0.5,1.5-1.1,1.9-1.8v-4h-2.6c-1.8,0-3.1,0.3-4,0.9
				s-1.3,1.5-1.3,2.6c0,0.9,0.3,1.6,0.9,2.2C327.6,156.5,328.5,156.7,329.5,156.7z"/>
			<path class="st7" d="M352.4,156.8c1.2,0,2.2-0.3,3-1s1.2-1.5,1.3-2.6h4.5c-0.1,1.3-0.5,2.5-1.2,3.7c-0.8,1.1-1.8,2-3.1,2.7
				c-1.3,0.7-2.7,1-4.3,1c-3,0-5.3-1-7-2.9s-2.6-4.6-2.6-7.9v-0.5c0-3.2,0.9-5.8,2.6-7.7c1.7-1.9,4.1-2.9,7-2.9
				c2.5,0,4.6,0.7,6.1,2.2s2.4,3.4,2.5,5.8h-4.5c-0.1-1.2-0.5-2.2-1.2-3c-0.8-0.8-1.8-1.2-3-1.2c-1.5,0-2.7,0.6-3.6,1.7
				c-0.8,1.1-1.3,2.8-1.3,5.1v0.8c0,2.3,0.4,4,1.2,5.1C349.6,156.2,350.8,156.8,352.4,156.8z"/>
			<path class="st7" d="M374,160.6c-3,0-5.5-0.9-7.3-2.8c-1.9-1.9-2.8-4.4-2.8-7.6v-0.6c0-2.1,0.4-4,1.2-5.7s2-3,3.4-3.9
				c1.5-0.9,3.1-1.4,4.9-1.4c2.9,0,5.1,0.9,6.7,2.8c1.6,1.8,2.4,4.4,2.4,7.8v1.9h-13.8c0.1,1.7,0.7,3.1,1.8,4.1s2.3,1.5,3.9,1.5
				c2.2,0,3.9-0.9,5.3-2.6l2.6,2.4c-0.8,1.3-2,2.2-3.4,2.9C377.3,160.2,375.8,160.6,374,160.6z M373.4,142.4c-1.3,0-2.4,0.5-3.2,1.4
				c-0.8,0.9-1.3,2.2-1.5,3.8h9.1v-0.4c-0.1-1.6-0.5-2.8-1.3-3.6C375.8,142.8,374.7,142.4,373.4,142.4z M374.5,130.1h5.4l-5.4,5.9
				h-3.8L374.5,130.1z"/>
			<path class="st7" d="M404.8,156.8c1.2,0,2.2-0.3,3-1s1.2-1.5,1.3-2.6h4.5c-0.1,1.3-0.5,2.5-1.2,3.7c-0.8,1.1-1.8,2-3.1,2.7
				c-1.3,0.7-2.7,1-4.3,1c-3,0-5.3-1-7-2.9s-2.6-4.6-2.6-7.9v-0.5c0-3.2,0.9-5.8,2.6-7.7c1.7-1.9,4.1-2.9,7-2.9
				c2.5,0,4.6,0.7,6.1,2.2c1.6,1.5,2.4,3.4,2.5,5.8H409c-0.1-1.2-0.5-2.2-1.2-3c-0.8-0.8-1.8-1.2-3-1.2c-1.5,0-2.7,0.6-3.6,1.7
				c-0.8,1.1-1.3,2.8-1.3,5.1v0.8c0,2.3,0.4,4,1.2,5.1C402.1,156.2,403.3,156.8,404.8,156.8z"/>
			<path class="st7" d="M422.2,160.2h-4.8v-30h4.8V160.2z"/>
			<path class="st7" d="M427.3,133.5c0-0.7,0.2-1.3,0.7-1.8s1.1-0.7,2-0.7s1.5,0.2,2,0.7s0.7,1.1,0.7,1.8c0,0.7-0.2,1.3-0.7,1.8
				s-1.1,0.7-2,0.7s-1.5-0.2-2-0.7C427.6,134.8,427.3,134.2,427.3,133.5z M432.4,160.2h-4.8V139h4.8V160.2z"/>
			<path class="st7" d="M446.2,156.8c1.2,0,2.2-0.3,3-1s1.2-1.5,1.3-2.6h4.5c-0.1,1.3-0.5,2.5-1.2,3.7c-0.8,1.1-1.8,2-3.1,2.7
				c-1.3,0.7-2.7,1-4.3,1c-3,0-5.3-1-7-2.9s-2.6-4.6-2.6-7.9v-0.5c0-3.2,0.9-5.8,2.6-7.7c1.7-1.9,4.1-2.9,7-2.9
				c2.5,0,4.6,0.7,6.1,2.2c1.6,1.5,2.4,3.4,2.5,5.8h-4.5c-0.1-1.2-0.5-2.2-1.2-3c-0.8-0.8-1.8-1.2-3-1.2c-1.5,0-2.7,0.6-3.6,1.7
				c-0.8,1.1-1.3,2.8-1.3,5.1v0.8c0,2.3,0.4,4,1.2,5.1C443.5,156.2,444.7,156.8,446.2,156.8z"/>
			<path class="st7" d="M481.1,160.2c-0.2-0.4-0.4-1.1-0.5-2c-1.5,1.6-3.4,2.4-5.6,2.4c-2.1,0-3.9-0.6-5.2-1.8s-2-2.7-2-4.5
				c0-2.3,0.8-4,2.5-5.2s4.1-1.8,7.2-1.8h2.9v-1.4c0-1.1-0.3-2-0.9-2.6c-0.6-0.7-1.5-1-2.8-1c-1.1,0-2,0.3-2.7,0.8s-1,1.2-1,2.1
				h-4.8c0-1.2,0.4-2.2,1.2-3.3c0.8-1,1.8-1.8,3.1-2.4c1.3-0.6,2.8-0.9,4.4-0.9c2.5,0,4.5,0.6,5.9,1.9c1.5,1.2,2.2,3,2.3,5.3v9.5
				c0,1.9,0.3,3.4,0.8,4.6v0.3H481.1z M475.9,156.7c0.9,0,1.8-0.2,2.6-0.7s1.5-1.1,1.9-1.8v-4h-2.6c-1.8,0-3.1,0.3-4,0.9
				s-1.3,1.5-1.3,2.6c0,0.9,0.3,1.6,0.9,2.2C474.1,156.5,474.9,156.7,475.9,156.7z"/>
			<path class="st7" d="M489.3,149.4c0-3.3,0.8-5.9,2.3-7.9c1.5-1.9,3.6-2.9,6.1-2.9c2.4,0,4.2,0.8,5.6,2.5l0.3-2.1h4.2v29.3H503
				v-9.9c-1.4,1.5-3.2,2.2-5.4,2.2c-2.5,0-4.6-1-6.1-3S489.3,152.9,489.3,149.4z M494,149.8c0,2.2,0.4,3.9,1.3,5.1s2,1.8,3.5,1.8
				c1.9,0,3.3-0.8,4.2-2.4v-9.6c-0.9-1.5-2.3-2.3-4.1-2.3c-1.5,0-2.7,0.6-3.6,1.8C494.4,145.5,494,147.3,494,149.8z"/>
			<path class="st7" d="M525.7,158.1c-1.4,1.6-3.4,2.5-5.9,2.5c-2.3,0-4-0.7-5.2-2s-1.8-3.3-1.8-5.8V139h4.8v13.6c0,2.7,1.1,4,3.3,4
				c2.3,0,3.9-0.8,4.7-2.5V139h4.8v21.2h-4.5L525.7,158.1z"/>
			<path class="st7" d="M540.3,160.2h-4.8V139h4.8V160.2z M539.4,130.3h5.4l-5.4,5.9h-3.8L539.4,130.3z"/>
		</g>
	</g>
</g>
<g>
	<g class="st6">
		<path class="st7" d="M316.7,671.6h-4.9V659H299v12.6h-4.9v-28.5h4.9V655h12.7v-11.8h4.9v28.4H316.7z"/>
		<path class="st7" d="M334.7,671.6c-0.2-0.4-0.4-1.1-0.5-2c-1.5,1.6-3.4,2.4-5.6,2.4c-2.1,0-3.9-0.6-5.2-1.8c-1.3-1.2-2-2.7-2-4.5
			c0-2.3,0.8-4,2.5-5.2s4.1-1.8,7.2-1.8h2.9v-1.4c0-1.1-0.3-2-0.9-2.6c-0.6-0.7-1.5-1-2.8-1c-1.1,0-2,0.3-2.7,0.8s-1,1.2-1,2.1h-4.8
			c0-1.2,0.4-2.2,1.2-3.3c0.8-1,1.8-1.8,3.1-2.4s2.8-0.9,4.4-0.9c2.5,0,4.5,0.6,5.9,1.9c1.5,1.2,2.2,3,2.3,5.3v9.5
			c0,1.9,0.3,3.4,0.8,4.6v0.3L334.7,671.6L334.7,671.6z M329.5,668.2c0.9,0,1.8-0.2,2.6-0.7c0.8-0.5,1.5-1.1,1.9-1.8v-4h-2.6
			c-1.8,0-3.1,0.3-4,0.9c-0.9,0.6-1.3,1.5-1.3,2.6c0,0.9,0.3,1.6,0.9,2.2C327.6,668,328.5,668.2,329.5,668.2z"/>
		<path class="st7" d="M352.4,668.2c1.2,0,2.2-0.3,3-1s1.2-1.5,1.3-2.6h4.5c-0.1,1.3-0.5,2.5-1.2,3.7c-0.8,1.1-1.8,2-3.1,2.7
			c-1.3,0.7-2.7,1-4.3,1c-3,0-5.3-1-7-2.9c-1.7-1.9-2.6-4.6-2.6-7.9v-0.5c0-3.2,0.9-5.8,2.6-7.7s4.1-2.9,7-2.9
			c2.5,0,4.6,0.7,6.1,2.2c1.6,1.5,2.4,3.4,2.5,5.8h-4.5c-0.1-1.2-0.5-2.2-1.2-3c-0.8-0.8-1.8-1.2-3-1.2c-1.5,0-2.7,0.6-3.6,1.7
			c-0.8,1.1-1.3,2.8-1.3,5.1v0.8c0,2.3,0.4,4,1.2,5.1C349.6,667.7,350.8,668.2,352.4,668.2z"/>
		<path class="st7" d="M374,672c-3,0-5.5-0.9-7.3-2.8c-1.9-1.9-2.8-4.4-2.8-7.6V661c0-2.1,0.4-4,1.2-5.7s2-3,3.4-3.9
			c1.5-0.9,3.1-1.4,4.9-1.4c2.9,0,5.1,0.9,6.7,2.8c1.6,1.8,2.4,4.4,2.4,7.8v1.9h-13.8c0.1,1.7,0.7,3.1,1.8,4.1s2.3,1.5,3.9,1.5
			c2.2,0,3.9-0.9,5.3-2.6l2.6,2.4c-0.8,1.3-2,2.2-3.4,2.9C377.3,671.7,375.8,672,374,672z M373.4,653.9c-1.3,0-2.4,0.5-3.2,1.4
			s-1.3,2.2-1.5,3.8h9.1v-0.4c-0.1-1.6-0.5-2.8-1.3-3.6C375.8,654.3,374.7,653.9,373.4,653.9z M374.5,641.6h5.4l-5.4,5.9h-3.8
			L374.5,641.6z"/>
		<path class="st7" d="M404.8,668.2c1.2,0,2.2-0.3,3-1s1.2-1.5,1.3-2.6h4.5c-0.1,1.3-0.5,2.5-1.2,3.7c-0.8,1.1-1.8,2-3.1,2.7
			c-1.3,0.7-2.7,1-4.3,1c-3,0-5.3-1-7-2.9c-1.7-1.9-2.6-4.6-2.6-7.9v-0.5c0-3.2,0.9-5.8,2.6-7.7s4.1-2.9,7-2.9
			c2.5,0,4.6,0.7,6.1,2.2c1.6,1.5,2.4,3.4,2.5,5.8H409c-0.1-1.2-0.5-2.2-1.2-3c-0.8-0.8-1.8-1.2-3-1.2c-1.5,0-2.7,0.6-3.6,1.7
			c-0.8,1.1-1.3,2.8-1.3,5.1v0.8c0,2.3,0.4,4,1.2,5.1C402.1,667.7,403.3,668.2,404.8,668.2z"/>
		<path class="st7" d="M422.2,671.6h-4.8v-30h4.8V671.6z"/>
		<path class="st7" d="M427.3,645c0-0.7,0.2-1.3,0.7-1.8s1.1-0.7,2-0.7s1.5,0.2,2,0.7s0.7,1.1,0.7,1.8s-0.2,1.3-0.7,1.8
			s-1.1,0.7-2,0.7s-1.5-0.2-2-0.7C427.6,646.3,427.3,645.7,427.3,645z M432.4,671.6h-4.8v-21.2h4.8V671.6z"/>
		<path class="st7" d="M446.2,668.2c1.2,0,2.2-0.3,3-1s1.2-1.5,1.3-2.6h4.5c-0.1,1.3-0.5,2.5-1.2,3.7c-0.8,1.1-1.8,2-3.1,2.7
			c-1.3,0.7-2.7,1-4.3,1c-3,0-5.3-1-7-2.9c-1.7-1.9-2.6-4.6-2.6-7.9v-0.5c0-3.2,0.9-5.8,2.6-7.7s4.1-2.9,7-2.9
			c2.5,0,4.6,0.7,6.1,2.2c1.6,1.5,2.4,3.4,2.5,5.8h-4.5c-0.1-1.2-0.5-2.2-1.2-3c-0.8-0.8-1.8-1.2-3-1.2c-1.5,0-2.7,0.6-3.6,1.7
			c-0.8,1.1-1.3,2.8-1.3,5.1v0.8c0,2.3,0.4,4,1.2,5.1C443.5,667.7,444.7,668.2,446.2,668.2z"/>
		<path class="st7" d="M481.1,671.6c-0.2-0.4-0.4-1.1-0.5-2c-1.5,1.6-3.4,2.4-5.6,2.4c-2.1,0-3.9-0.6-5.2-1.8c-1.3-1.2-2-2.7-2-4.5
			c0-2.3,0.8-4,2.5-5.2s4.1-1.8,7.2-1.8h2.9v-1.4c0-1.1-0.3-2-0.9-2.6c-0.6-0.7-1.5-1-2.8-1c-1.1,0-2,0.3-2.7,0.8s-1,1.2-1,2.1h-4.8
			c0-1.2,0.4-2.2,1.2-3.3c0.8-1,1.8-1.8,3.1-2.4s2.8-0.9,4.4-0.9c2.5,0,4.5,0.6,5.9,1.9s2.2,3,2.3,5.3v9.5c0,1.9,0.3,3.4,0.8,4.6
			v0.3L481.1,671.6L481.1,671.6z M475.9,668.2c0.9,0,1.8-0.2,2.6-0.7s1.5-1.1,1.9-1.8v-4h-2.6c-1.8,0-3.1,0.3-4,0.9
			c-0.9,0.6-1.3,1.5-1.3,2.6c0,0.9,0.3,1.6,0.9,2.2C474.1,668,474.9,668.2,475.9,668.2z"/>
		<path class="st7" d="M489.3,660.9c0-3.3,0.8-5.9,2.3-7.9c1.5-1.9,3.6-2.9,6.1-2.9c2.4,0,4.2,0.8,5.6,2.5l0.3-2.1h4.2v29.3H503
			v-9.9c-1.4,1.5-3.2,2.2-5.4,2.2c-2.5,0-4.6-1-6.1-3S489.3,664.4,489.3,660.9z M494,661.3c0,2.2,0.4,3.9,1.3,5.1
			c0.9,1.2,2,1.8,3.5,1.8c1.9,0,3.3-0.8,4.2-2.4v-9.6c-0.9-1.5-2.3-2.3-4.1-2.3c-1.5,0-2.7,0.6-3.6,1.8S494,658.8,494,661.3z"/>
		<path class="st7" d="M525.7,669.6c-1.4,1.6-3.4,2.5-5.9,2.5c-2.3,0-4-0.7-5.2-2c-1.2-1.3-1.8-3.3-1.8-5.8v-13.7h4.8v13.6
			c0,2.7,1.1,4,3.3,4c2.3,0,3.9-0.8,4.7-2.5v-15.2h4.8v21.2h-4.5L525.7,669.6z"/>
		<path class="st7" d="M540.3,671.6h-4.8v-21.2h4.8V671.6z M539.4,641.8h5.4l-5.4,5.9h-3.8L539.4,641.8z"/>
	</g>
</g>
<g>
	<g>
		<path class="st7" d="M318,540.9c0,1.9-0.2,3.5-0.7,4.7c-0.5,1.2-1.3,2.3-2.4,3.4s-1.9,1.9-2.4,2.4c-0.4,0.5-0.7,1.1-0.9,1.6
			s-0.3,1.1-0.3,1.8c0,2.3,1.1,3.4,3.4,3.4c1.1,0,2-0.3,2.7-1s1-1.6,1-2.8h6.3c0,2.8-0.9,5-2.7,6.6c-1.8,1.6-4.2,2.4-7.2,2.4
			c-3.1,0-5.5-0.7-7.2-2.2s-2.6-3.6-2.6-6.3c0-2.3,1.1-4.6,3.3-6.8l2.1-2c0.7-0.7,1.2-1.3,1.5-2.1s0.4-1.7,0.5-3L318,540.9
			L318,540.9z M318.8,534.3c0,1-0.3,1.8-1,2.4c-0.7,0.6-1.5,0.9-2.5,0.9s-1.9-0.3-2.5-0.9c-0.6-0.6-1-1.4-1-2.4s0.3-1.8,1-2.4
			c0.6-0.6,1.5-0.9,2.6-0.9s1.9,0.3,2.6,0.9C318.7,532.5,318.8,533.3,318.8,534.3z"/>
		<path class="st7" d="M353.6,544.4c-0.2,3.4-1.5,6.1-3.8,8.1s-5.3,3-9,3c-4.1,0-7.3-1.4-9.6-4.1c-2.3-2.7-3.5-6.5-3.5-11.3v-1.9
			c0-3.1,0.5-5.8,1.6-8.1c1.1-2.3,2.6-4.1,4.6-5.4c2-1.2,4.3-1.9,7-1.9c3.7,0,6.6,1,8.9,3c2.2,2,3.5,4.7,3.9,8.3h-6.6
			c-0.2-2.1-0.7-3.5-1.7-4.5c-1-0.9-2.5-1.4-4.5-1.4c-2.2,0-3.8,0.8-4.9,2.3c-1.1,1.6-1.6,4-1.7,7.3v2.4c0,3.4,0.5,6,1.6,7.5
			c1,1.6,2.7,2.4,4.9,2.4c2,0,3.5-0.5,4.5-1.4c1-0.9,1.6-2.4,1.7-4.3L353.6,544.4L353.6,544.4z"/>
		<path class="st7" d="M371.6,552.6c-1.6,1.9-3.7,2.8-6.5,2.8c-2.5,0-4.5-0.7-5.8-2.2s-2-3.6-2-6.4v-15.4h6.3v15.3
			c0,2.5,1.1,3.7,3.4,3.7c2.1,0,3.6-0.7,4.4-2.2v-16.8h6.3V555h-5.9L371.6,552.6z"/>
		<path class="st7" d="M396.2,555c-0.3-0.6-0.5-1.3-0.6-2.1c-1.5,1.7-3.5,2.6-6,2.6c-2.3,0-4.2-0.7-5.8-2s-2.3-3-2.3-5.1
			c0-2.5,0.9-4.4,2.8-5.8c1.9-1.3,4.5-2,8.1-2h2.9v-1.4c0-1.1-0.3-2-0.8-2.6c-0.6-0.7-1.4-1-2.7-1c-1.1,0-1.9,0.3-2.5,0.8
			s-0.9,1.2-0.9,2.1h-6.3c0-1.4,0.4-2.6,1.3-3.8c0.8-1.2,2-2.1,3.6-2.7c1.5-0.7,3.3-1,5.2-1c2.9,0,5.2,0.7,6.9,2.2
			c1.7,1.5,2.6,3.5,2.6,6.2v10.3c0,2.2,0.3,3.9,0.9,5.1v0.2H396.2z M391,550.6c0.9,0,1.8-0.2,2.6-0.6s1.4-1,1.7-1.7v-4.1H393
			c-3.2,0-4.8,1.1-5,3.3v0.4c0,0.8,0.3,1.4,0.8,1.9S390,550.6,391,550.6z M393.4,521.4h6.9l-6.1,6.8h-5.1L393.4,521.4z"/>
		<path class="st7" d="M413.2,555h-6.3v-33.6h6.3V555z"/>
		<path class="st7" d="M440.4,555.4c-3.5,0-6.3-1.1-8.5-3.2c-2.2-2.1-3.3-5-3.3-8.5v-0.6c0-2.4,0.5-4.5,1.4-6.4
			c0.9-1.9,2.2-3.3,3.9-4.3c1.7-1,3.6-1.5,5.8-1.5c3.2,0,5.8,1,7.6,3.1c1.9,2,2.8,4.9,2.8,8.7v2.6H435c0.2,1.5,0.8,2.8,1.8,3.7
			s2.3,1.4,3.9,1.4c2.4,0,4.3-0.9,5.7-2.6l3.1,3.5c-0.9,1.3-2.2,2.4-3.8,3.1C444.1,555.1,442.4,555.4,440.4,555.4z M439.7,536
			c-1.3,0-2.3,0.4-3,1.3c-0.8,0.8-1.3,2.1-1.5,3.6h8.8v-0.5c0-1.4-0.4-2.5-1.1-3.3C442.2,536.3,441,536,439.7,536z"/>
		<path class="st7" d="M466.5,548.5c0-0.8-0.4-1.4-1.1-1.8c-0.8-0.4-2-0.8-3.7-1.2c-5.6-1.2-8.4-3.6-8.4-7.2c0-2.1,0.9-3.8,2.6-5.3
			c1.7-1.4,4-2.1,6.8-2.1c3,0,5.4,0.7,7.2,2.1c1.8,1.4,2.7,3.2,2.7,5.5h-6.3c0-0.9-0.3-1.7-0.9-2.2s-1.5-0.9-2.7-0.9
			c-1.1,0-1.9,0.2-2.5,0.7s-0.9,1.1-0.9,1.8c0,0.7,0.3,1.3,1,1.7c0.7,0.4,1.8,0.8,3.4,1.1s2.9,0.7,4,1.1c3.3,1.2,5,3.3,5,6.4
			c0,2.2-0.9,3.9-2.8,5.2c-1.8,1.3-4.2,2-7.2,2c-2,0-3.7-0.4-5.3-1.1c-1.5-0.7-2.7-1.7-3.6-2.9c-0.9-1.2-1.3-2.6-1.3-4h6
			c0.1,1.1,0.5,2,1.2,2.6s1.8,0.9,3.1,0.9c1.2,0,2.1-0.2,2.7-0.7S466.5,549.2,466.5,548.5z"/>
		<path class="st7" d="M494.5,555h-6.3v-33.6h6.3V555z"/>
		<path class="st7" d="M513.4,555c-0.3-0.6-0.5-1.3-0.6-2.1c-1.5,1.7-3.5,2.6-6,2.6c-2.3,0-4.2-0.7-5.8-2s-2.3-3-2.3-5.1
			c0-2.5,0.9-4.4,2.8-5.8c1.9-1.3,4.5-2,8.1-2h2.9v-1.4c0-1.1-0.3-2-0.8-2.6c-0.6-0.7-1.4-1-2.7-1c-1.1,0-1.9,0.3-2.5,0.8
			s-0.9,1.2-0.9,2.1h-6.3c0-1.4,0.4-2.6,1.3-3.8c0.8-1.2,2-2.1,3.6-2.7c1.5-0.7,3.3-1,5.2-1c2.9,0,5.2,0.7,6.9,2.2s2.6,3.5,2.6,6.2
			v10.3c0,2.2,0.3,3.9,0.9,5.1v0.2H513.4z M508.2,550.6c0.9,0,1.8-0.2,2.6-0.6s1.4-1,1.7-1.7v-4.1h-2.4c-3.2,0-4.8,1.1-5,3.3v0.4
			c0,0.8,0.3,1.4,0.8,1.9S507.2,550.6,508.2,550.6z"/>
		<path class="st7" d="M250.7,608.7c-0.3-0.6-0.5-1.3-0.6-2.1c-1.5,1.7-3.5,2.6-6,2.6c-2.3,0-4.2-0.7-5.8-2s-2.3-3-2.3-5.1
			c0-2.5,0.9-4.4,2.8-5.8c1.9-1.3,4.5-2,8.1-2h2.9v-1.4c0-1.1-0.3-2-0.8-2.6c-0.6-0.7-1.4-1-2.7-1c-1.1,0-1.9,0.3-2.5,0.8
			s-0.9,1.2-0.9,2.1h-6.3c0-1.4,0.4-2.6,1.3-3.8c0.8-1.2,2-2.1,3.6-2.7c1.5-0.7,3.3-1,5.2-1c2.9,0,5.2,0.7,6.9,2.2s2.6,3.5,2.6,6.2
			v10.3c0,2.2,0.3,3.9,0.9,5.1v0.4h-6.4V608.7z M245.4,604.3c0.9,0,1.8-0.2,2.6-0.6c0.8-0.4,1.4-1,1.7-1.7v-4h-2.4
			c-3.2,0-4.8,1.1-5,3.3v0.4c0,0.8,0.3,1.4,0.8,1.9S244.5,604.3,245.4,604.3z"/>
		<path class="st7" d="M260,596.7c0-3.6,0.9-6.5,2.6-8.8c1.7-2.2,4.1-3.3,7-3.3c2.6,0,4.6,0.9,6.1,2.7l0.3-2.2h5.7V608
			c0,2.1-0.5,3.9-1.4,5.4s-2.3,2.7-4,3.5c-1.7,0.8-3.7,1.2-6,1.2c-1.7,0-3.4-0.3-5.1-1c-1.6-0.7-2.9-1.6-3.7-2.7l2.8-3.8
			c1.6,1.8,3.5,2.6,5.7,2.6c1.7,0,3-0.4,3.9-1.3c0.9-0.9,1.4-2.2,1.4-3.8v-1.3c-1.5,1.6-3.4,2.5-5.7,2.5c-2.8,0-5.1-1.1-6.9-3.3
			s-2.6-5.2-2.6-8.8L260,596.7L260,596.7z M266.3,597.2c0,2.1,0.4,3.8,1.3,5s2,1.8,3.5,1.8c1.9,0,3.3-0.7,4.1-2.2v-10
			c-0.8-1.4-2.2-2.2-4.1-2.2c-1.5,0-2.7,0.6-3.6,1.9C266.8,592.9,266.3,594.7,266.3,597.2z"/>
		<path class="st7" d="M297.4,609.1c-3.5,0-6.3-1.1-8.5-3.2c-2.2-2.1-3.3-5-3.3-8.5v-0.6c0-2.4,0.5-4.5,1.4-6.4
			c0.9-1.9,2.2-3.3,3.9-4.3c1.7-1,3.6-1.5,5.8-1.5c3.2,0,5.8,1,7.6,3.1c1.9,2,2.8,4.9,2.8,8.7v2.6H292c0.2,1.5,0.8,2.8,1.8,3.7
			c1,0.9,2.3,1.4,3.9,1.4c2.4,0,4.3-0.9,5.7-2.6l3.1,3.5c-0.9,1.3-2.2,2.4-3.8,3.1C301.1,608.8,299.3,609.1,297.4,609.1z
			 M296.7,589.7c-1.3,0-2.3,0.4-3,1.3c-0.8,0.8-1.3,2.1-1.5,3.6h8.8v-0.5c0-1.4-0.4-2.5-1.1-3.3S298,589.7,296.7,589.7z"/>
		<path class="st7" d="M316.5,585.1l0.2,2.7c1.7-2.1,4-3.2,6.8-3.2c2.5,0,4.4,0.7,5.6,2.2s1.8,3.7,1.9,6.6v15.3h-6.3v-15.1
			c0-1.3-0.3-2.3-0.9-2.9c-0.6-0.6-1.6-0.9-2.9-0.9c-1.8,0-3.1,0.8-4,2.3v16.7h-6.3v-23.6h5.9V585.1z"/>
		<path class="st7" d="M334.8,596.7c0-3.7,0.8-6.6,2.5-8.8c1.7-2.2,3.9-3.3,6.8-3.3c2.3,0,4.2,0.9,5.7,2.6v-12.1h6.3v33.6h-5.7
			l-0.3-2.5c-1.6,2-3.6,3-6.1,3c-2.8,0-5-1.1-6.7-3.3C335.6,603.7,334.8,600.6,334.8,596.7z M341.1,597.2c0,2.2,0.4,3.9,1.2,5.1
			c0.8,1.2,1.9,1.8,3.4,1.8c2,0,3.3-0.8,4.1-2.5v-9.3c-0.8-1.6-2.1-2.5-4.1-2.5C342.6,589.8,341.1,592.2,341.1,597.2z"/>
		<path class="st7" d="M374.7,608.7c-0.3-0.6-0.5-1.3-0.6-2.1c-1.5,1.7-3.5,2.6-6,2.6c-2.3,0-4.2-0.7-5.8-2s-2.3-3-2.3-5.1
			c0-2.5,0.9-4.4,2.8-5.8c1.9-1.3,4.5-2,8.1-2h2.9v-1.4c0-1.1-0.3-2-0.8-2.6c-0.6-0.7-1.4-1-2.7-1c-1.1,0-1.9,0.3-2.5,0.8
			s-0.9,1.2-0.9,2.1h-6.3c0-1.4,0.4-2.6,1.3-3.8c0.8-1.2,2-2.1,3.6-2.7c1.5-0.7,3.3-1,5.2-1c2.9,0,5.2,0.7,6.9,2.2
			c1.7,1.5,2.6,3.5,2.6,6.2v10.3c0,2.2,0.3,3.9,0.9,5.1v0.4h-6.4V608.7z M369.5,604.3c0.9,0,1.8-0.2,2.6-0.6c0.8-0.4,1.4-1,1.7-1.7
			v-4h-2.4c-3.2,0-4.8,1.1-5,3.3v0.4c0,0.8,0.3,1.4,0.8,1.9S368.5,604.3,369.5,604.3z"/>
		<path class="st7" d="M395.1,596.7c0-3.7,0.8-6.6,2.5-8.8c1.7-2.2,3.9-3.3,6.8-3.3c2.3,0,4.2,0.9,5.7,2.6v-12.1h6.3v33.6h-5.7
			l-0.3-2.5c-1.6,2-3.6,3-6.1,3c-2.8,0-5-1.1-6.7-3.3C396,603.7,395.1,600.6,395.1,596.7z M401.4,597.2c0,2.2,0.4,3.9,1.2,5.1
			c0.8,1.2,1.9,1.8,3.4,1.8c2,0,3.3-0.8,4.1-2.5v-9.3c-0.8-1.6-2.1-2.5-4.1-2.5C403,589.8,401.4,592.2,401.4,597.2z"/>
		<path class="st7" d="M432.2,609.1c-3.5,0-6.3-1.1-8.5-3.2c-2.2-2.1-3.3-5-3.3-8.5v-0.6c0-2.4,0.5-4.5,1.4-6.4
			c0.9-1.9,2.2-3.3,3.9-4.3c1.7-1,3.6-1.5,5.8-1.5c3.2,0,5.8,1,7.6,3.1c1.9,2,2.8,4.9,2.8,8.7v2.6h-15.1c0.2,1.5,0.8,2.8,1.8,3.7
			c1,0.9,2.3,1.4,3.9,1.4c2.4,0,4.3-0.9,5.7-2.6l3.1,3.5c-0.9,1.3-2.2,2.4-3.8,3.1C435.9,608.8,434.2,609.1,432.2,609.1z
			 M431.5,589.7c-1.3,0-2.3,0.4-3,1.3c-0.8,0.8-1.3,2.1-1.5,3.6h8.8v-0.5c0-1.4-0.4-2.5-1.1-3.3S432.8,589.7,431.5,589.7z"/>
		<path class="st7" d="M452.2,608.7h-6.3v-33.6h6.3V608.7z"/>
		<path class="st7" d="M478.4,604.1c1.2,0,2.1-0.3,2.8-1c0.7-0.6,1.1-1.5,1.1-2.6h5.9c0,1.6-0.5,3.1-1.3,4.4c-0.8,1.3-2,2.4-3.5,3.1
			s-3.1,1.1-4.9,1.1c-3.4,0-6-1.1-8-3.2c-2-2.1-2.9-5.1-2.9-8.9v-0.4c0-3.6,1-6.5,2.9-8.7c1.9-2.2,4.6-3.3,8-3.3
			c3,0,5.3,0.8,7.1,2.5c1.8,1.7,2.7,3.9,2.7,6.7h-5.9c0-1.2-0.4-2.2-1.1-3s-1.7-1.2-2.9-1.2c-1.5,0-2.6,0.5-3.3,1.6
			c-0.8,1.1-1.1,2.8-1.1,5.2v0.7c0,2.4,0.4,4.2,1.1,5.3C475.7,603.5,476.9,604.1,478.4,604.1z"/>
		<path class="st7" d="M506,606.3c-1.6,1.9-3.7,2.8-6.5,2.8c-2.5,0-4.5-0.7-5.8-2.2s-2-3.6-2-6.4V585h6.3v15.3
			c0,2.5,1.1,3.7,3.4,3.7c2.1,0,3.6-0.7,4.4-2.2V585h6.3v23.6h-5.9L506,606.3z"/>
		<path class="st7" d="M530.2,591c-0.9-0.1-1.6-0.2-2.3-0.2c-2.4,0-4,0.8-4.7,2.4v15.5h-6.3v-23.6h6l0.2,2.8c1.3-2.2,3-3.3,5.3-3.3
			c0.7,0,1.4,0.1,2,0.3L530.2,591z"/>
		<path class="st7" d="M546,602.2c0-0.8-0.4-1.4-1.1-1.8c-0.8-0.4-2-0.8-3.7-1.2c-5.6-1.2-8.4-3.6-8.4-7.2c0-2.1,0.9-3.8,2.6-5.3
			c1.7-1.4,4-2.1,6.8-2.1c3,0,5.4,0.7,7.2,2.1c1.8,1.4,2.7,3.2,2.7,5.5h-6.3c0-0.9-0.3-1.7-0.9-2.2s-1.5-0.9-2.7-0.9
			c-1.1,0-1.9,0.2-2.5,0.7s-0.9,1.1-0.9,1.8c0,0.7,0.3,1.3,1,1.7c0.7,0.4,1.8,0.8,3.4,1.1c1.6,0.3,2.9,0.7,4,1.1
			c3.3,1.2,5,3.3,5,6.4c0,2.2-0.9,3.9-2.8,5.2c-1.8,1.3-4.2,2-7.2,2c-2,0-3.7-0.4-5.3-1.1c-1.5-0.7-2.7-1.7-3.6-2.9
			c-0.9-1.2-1.3-2.6-1.3-4h6c0.1,1.1,0.5,2,1.2,2.6c0.7,0.6,1.8,0.9,3.1,0.9c1.2,0,2.1-0.2,2.7-0.7S546,602.9,546,602.2z"/>
		<path class="st7" d="M555.3,596.7c0-2.3,0.5-4.4,1.4-6.3c0.9-1.8,2.2-3.3,3.9-4.3s3.7-1.5,5.9-1.5c3.2,0,5.8,1,7.8,2.9
			c2,2,3.1,4.6,3.4,8v1.6c0,3.6-1,6.5-3,8.7s-4.7,3.3-8.2,3.3s-6.1-1.1-8.2-3.3c-2-2.2-3-5.2-3-8.9L555.3,596.7L555.3,596.7z
			 M561.6,597.1c0,2.2,0.4,4,1.3,5.2s2.1,1.8,3.6,1.8s2.7-0.6,3.6-1.8c0.9-1.2,1.3-3.1,1.3-5.6c0-2.2-0.4-3.9-1.3-5.1
			c-0.9-1.2-2.1-1.8-3.6-1.8s-2.7,0.6-3.6,1.8C562,592.8,561.6,594.6,561.6,597.1z"/>
		<path class="st7" d="M586.7,599c0-2,0.2-3.7,0.7-4.9c0.5-1.2,1.4-2.4,2.7-3.6s2.2-2.1,2.6-2.9c0.4-0.7,0.7-1.5,0.7-2.3
			c0-2.5-1.1-3.7-3.4-3.7c-1.1,0-1.9,0.3-2.6,1c-0.6,0.7-1,1.6-1,2.7h-6.3c0-2.8,0.9-5,2.7-6.5c1.8-1.6,4.2-2.4,7.2-2.4
			c3.1,0,5.5,0.7,7.2,2.2s2.6,3.6,2.6,6.3c0,1.2-0.3,2.4-0.8,3.5c-0.6,1.1-1.5,2.3-2.9,3.7l-1.8,1.7c-1.1,1.1-1.7,2.3-1.9,3.7
			l-0.1,1.3h-5.6V599z M586.1,605.7c0-1,0.3-1.8,1-2.4c0.7-0.6,1.5-0.9,2.5-0.9s1.9,0.3,2.5,0.9c0.7,0.6,1,1.4,1,2.4s-0.3,1.8-1,2.4
			c-0.6,0.6-1.5,0.9-2.6,0.9s-1.9-0.3-2.6-0.9C586.4,607.4,586.1,606.6,586.1,605.7z"/>
	</g>
</g>
<g>
	<text transform="matrix(1 0 0 1 861.2009 514.6499)" class="st7" style="font-family:'Roboto-Medium'; font-size:40.0443px;">Hacé clic aquí</text>
</g>
<g>
	<text transform="matrix(1 0 0 1 873.5212 398)" class="st7" style="font-family:'Roboto-Bold'; font-size:44.7555px;">¿Cuál es la </text>
	<text transform="matrix(1 0 0 1 804.5212 451.7)" class="st7" style="font-family:'Roboto-Bold'; font-size:44.7555px;">agenda del curso?</text>
</g>
</svg>
