<?xml version="1.0" encoding="utf-8"?>
<!-- Generator: Adobe Illustrator 25.0.0, SVG Export Plug-In . SVG Version: 6.00 Build 0)  -->
<svg version="1.1" id="Capa_1" xmlns="http://www.w3.org/2000/svg" xmlns:xlink="http://www.w3.org/1999/xlink" x="0px" y="0px"
	 viewBox="0 0 600 150" style="enable-background:new 0 0 600 150;" xml:space="preserve">
<style type="text/css">
	.st0{fill:#1DA8DE;}
	.st1{clip-path:url(#SVGID_2_);}
	.st2{fill:#F16E7F;}
	.st3{fill:#F16E7F;stroke:#000000;stroke-miterlimit:10;}
	.st4{fill:#E63685;}
	.st5{opacity:0.1;}
	.st6{fill:#E6E6E6;}
	.st7{fill:#FFFFFF;}
	.st8{fill:#EA45A8;}
	.st9{fill:#FEC43E;}
	.st10{fill:#D8D8D6;}
	.st11{fill:#EDEDED;}
	.st12{fill:#000100;}
	.st13{fill:#F9B04E;}
	.st14{fill:none;stroke:#ED8D24;stroke-miterlimit:10;}
	.st15{fill:#F7D061;}
	.st16{fill:#774022;}
	.st17{fill:none;stroke:#774022;stroke-linejoin:round;stroke-miterlimit:10;}
	.st18{fill:#5A6DE0;}
	.st19{opacity:0.35;}
	.st20{clip-path:url(#SVGID_4_);}
	.st21{fill:none;stroke:#8FA4F7;stroke-width:6.5;stroke-miterlimit:10;}
	.st22{fill:#231F20;}
	.st23{fill:none;stroke:#000100;stroke-width:0.75;stroke-miterlimit:10;}
	.st24{fill:none;stroke:#231F20;stroke-miterlimit:10;}
	.st25{fill:#E5576F;}
	.st26{fill:none;stroke:#5A6DE0;stroke-linecap:round;stroke-miterlimit:10;}
	.st27{fill:none;stroke:#000100;stroke-width:0.75;stroke-linecap:round;stroke-linejoin:round;stroke-miterlimit:10;}
	.st28{clip-path:url(#SVGID_6_);}
</style>
<path class="st0" d="M581,111H21c-11,0-20,9-20,20v19h600v-19C601,120,592,111,581,111z"/>
<g>
	<defs>
		<polyline id="SVGID_1_" points="443,-10.4 443,151.4 133,151.4 133,-10.4 		"/>
	</defs>
	<clipPath id="SVGID_2_">
		<use xlink:href="#SVGID_1_"  style="overflow:visible;"/>
	</clipPath>
	<g class="st1">
		<path class="st2" d="M353.8,132.1c-2.1,0.5-4.3,0.4-6.4,0.3c-4.4-0.3-43.5-13.7-48-16.4c-3.4-2.1-6.6-4.7-8.3-8.3
			c-1.9-4-1.2-9.3,2.9-11.4c4.5-2.3,9.4-0.9,13.9,0.7c7.2,2.6,41.5,15.8,42.7,15.5c0.9-0.2,23.9-24.7,34.6-36.6
			c1.2-1.4,2.8-2.9,4.6-2.7c1.5,0.1,2.7,1.3,3.2,2.7c1.2,3,0.1,6.4-1.2,9.2c-1.2,2.6-25.8,36.6-31.1,42.2c-1.8,1.8-3.7,3.7-6.1,4.6
			C354.4,132,354.1,132.1,353.8,132.1z"/>
		<path class="st2" d="M391.1,67.9c-2.1,1.6-4.2,3.3-6.1,5.1c-0.9,0.8-1.7,1.7-2,2.9c0,0.2-0.1,0.3,0,0.5c0.1,0.3,0.4,0.4,0.7,0.4
			c2.3,0.5,4.4-1,6.3-2.4c1.4-1.1,2.8-2.2,4.2-3.3c1.2-0.9,3.3-2.9,1.7-4.5C394.5,65.2,392.2,67,391.1,67.9z"/>
		<path class="st2" d="M392.7,71.4c-2.1,1.6-4.2,3.3-6.1,5.1c-0.9,0.8-1.7,1.7-2,2.9c0,0.2-0.1,0.3,0,0.5c0.1,0.3,0.4,0.4,0.7,0.4
			c2.3,0.5,4.4-1,6.3-2.4c1.4-1.1,2.8-2.2,4.2-3.3c1.2-0.9,3.3-2.9,1.7-4.5C396.1,68.7,393.9,70.6,392.7,71.4z"/>
		<path class="st2" d="M394.8,73.6c-2.1,1.6-4.2,3.3-6.1,5.1c-0.9,0.8-1.7,1.7-2,2.9c0,0.2-0.1,0.3,0,0.5c0.1,0.3,0.4,0.4,0.7,0.4
			c2.3,0.5,4.4-1,6.3-2.4c1.4-1.1,2.8-2.2,4.2-3.3c1.2-0.9,3.3-2.9,1.7-4.5C398.2,70.9,395.9,72.7,394.8,73.6z"/>
		<path class="st2" d="M397,77.3c-1.8,1.3-3.6,2.8-5.3,4.4c-0.7,0.7-1.5,1.5-1.7,2.5c0,0.1-0.1,0.3,0,0.4c0.1,0.2,0.3,0.3,0.6,0.4
			c1.9,0.4,3.8-0.9,5.4-2.1c1.2-0.9,2.4-1.9,3.6-2.8c1-0.8,2.9-2.5,1.5-3.9C399.9,75,398,76.6,397,77.3z"/>
		<path class="st2" d="M378.8,82.7c-0.4-1.7-1-3.3-1.8-4.9c-0.8-1.5-1.8-2.9-1.9-4.5c0.9,0.6,1.5,1.5,2.1,2.4
			c1.3,1.8,2.5,3.6,3.8,5.3c0.1,0.1,0.2,0.3,0.2,0.5c0.1,0.3-0.1,0.6-0.2,0.8c-0.3,0.6-1.2,2.3-2,2.4
			C378.9,84.1,378.9,83.4,378.8,82.7z"/>
		<line class="st3" x1="394.5" y1="70.3" x2="387.6" y2="75.5"/>
		<line class="st3" x1="396.9" y1="72.9" x2="389.9" y2="78.1"/>
		<line class="st3" x1="398" y1="76.6" x2="393.5" y2="80.1"/>
		<g>
			<g>
				<path class="st4" d="M365.8,54c-0.4-0.7-1.3-0.9-2-0.5l-6,3.6c-0.7,0.4-0.9,1.3-0.5,2l2.3,3.8c0.4,0.7,1.3,0.9,2,0.5l6-3.6
					c0.7-0.4,0.9-1.3,0.5-2L365.8,54z"/>
				<path class="st5" d="M357.4,58c-0.1-0.1-0.2-0.1-0.2-0.1l0,0c-0.1,0.1-0.1,0.2-0.1,0.2l3.2,5.4c0.1,0.1,0.2,0.1,0.2,0.1l0,0
					c0.1-0.1,0.1-0.2,0.1-0.2L357.4,58z"/>
				<g>
					<path class="st6" d="M373.9,40.4l-15.7,9.4c-0.8,0.5-1.3,1.4-1.6,2.2l2.4-1.4l1.3,2.1l-3.4,2.1c0.1,0.2,0,0.3,0.1,0.3l6.1,10.1
						c1.1,1.8,3.4,2.2,5.2,1.2l15.7-9.4c1.8-1.1,2.4-3.3,1.4-5.1l-6.1-10.1C378.1,40,375.7,39.3,373.9,40.4z"/>
					<path class="st7" d="M359,50.6l-2.4,1.4c-0.2,1-0.1,2,0.3,2.8l3.4-2.1L359,50.6z"/>
				</g>
				<path class="st8" d="M389.5,77.6C389.5,77.6,389.6,77.6,389.5,77.6l-9.4-15.8c-1.1-1.8-3.5-2.2-5.4-1l-1.4,0.8
					c-1.9,1.1-2.7,3.5-1.7,5.3l9.5,15.7c1.1,1.8,3.5,2.1,5.4,0.9l1.3-0.8l0.1-0.1l3.2-1.9c0.9-0.5,1.2-1.4,0.7-2.3l-0.1-0.2
					C391.2,77.6,390.3,77.3,389.5,77.6z"/>
				<path class="st4" d="M416.3,26.2c1.9,3.2,0.9,7.4-2.3,9.3c-3.2,1.9-7.4,0.9-9.3-2.3c-1.9-3.2-0.9-7.4,2.3-9.3
					C410.2,22,414.3,23,416.3,26.2z"/>
				<path class="st9" d="M427.5,53.5c0.7,1.2,0.3,2.8-0.9,3.5l-0.1,0.1c-1.2,0.7-2.8,0.3-3.5-0.9L392.8,5.7
					c-0.7-1.2-0.3-2.8,0.9-3.5l0.1-0.1c1.2-0.7,2.8-0.3,3.5,0.9L427.5,53.5z"/>
				<path class="st9" d="M382.9,57.8c1.1,1.8,0.5,4-1.3,5.1l-7.9,4.7c-1.8,1.1-4,0.5-5.1-1.3l-10.1-16.8c-1.1-1.8-0.5-4,1.3-5.1
					l7.9-4.7c1.8-1.1,4-0.5,5.1,1.3L382.9,57.8z"/>
				<path class="st10" d="M392.9,5.9c0,0,5.3,20.3-19.5,35.2l9.8,16.4c0,0,32.5-13.6,39.9-1.3L392.9,5.9z"/>
				<path class="st11" d="M373.7,41.8l1.3,2.1C399.9,29,394.6,8.7,394.6,8.7l-1.3-2.1C393.3,6.6,398.6,26.9,373.7,41.8z"/>
			</g>
			<path class="st5" d="M358.3,60.6l1.3,2.2c0.4,0.7,1.3,0.8,2,0.4l0.1,0l1.1,1.9c1.1,1.8,3.4,2.2,5.2,1.2l0.4-0.2l0,0.1
				c0.8,1.3,2.4,1.9,3.8,1.7l8.9,14.8c1.1,1.8,3.5,2.1,5.4,0.9l1.3-0.8l0.1-0.1l3.2-1.9c0.9-0.5,1.2-1.4,0.7-2.3l-0.1-0.2
				c-0.5-0.8-1.3-1.1-2.2-0.7c0,0,0.1-0.1,0.1-0.1L380.8,63l0.8-0.5c1.8-1.1,2.5-3.4,1.4-5.1l0,0l0,0l0,0c0,0,32.5-13.6,39.9-1.3
				l0.1,0.1c0.7,1.2,2.3,1.6,3.5,0.9c1.2-0.7,1.6-2.3,0.8-3.5l-11.8-19.6c1.8-2.2,2.2-5.3,0.6-7.9c0,0-0.1-0.1-0.1-0.1L358.3,60.6z"
				/>
		</g>
		<g>
			<g>
				<g>
					<path class="st2" d="M232,85.4c-15.2,15.8-33.8,27.5-54.3,37.7l1.3,21c26-8.3,49.9-23,69-42.5"/>
				</g>
				<g>
					<path class="st2" d="M180.3,121.8c-9.2,4.7-22.4,7.8-22.9,9.3c-0.2,0.6,0.3,1.1,1.2,1.3c2,0.4,5.6-0.2,5.7,1
						c0.1,0.7-8.3,3.6-11.7,5.6c-1.2,0.7-0.3,1.9,0.5,1.8c3.3-0.5,11.1-3,11.1-3c0.1,0.5-8.9,3.1-11.8,5.4c-0.6,0.5-0.4,1.9,0.6,1.7
						c3.6-0.5,13-3.2,13-3.2s-9.2,2.6-11.7,4.9c-0.5,0.4,0,1.6,0.6,1.6c2.8-0.3,13.5-3.5,13.5-3.5s-7.7,2.5-9.9,4
						c-0.6,0.4,0.2,1.7,0.9,1.7c5.4-0.2,27.1-9,27.1-9"/>
				</g>
				<g>
					<g>
						<path class="st12" d="M170.2,143.5c0.7-1.5,1.3-3,2.4-4.3c0.5-0.6,1.1-1,1.7-1.4c0.3-0.2,0.7-0.4,1.1-0.5
							c0.3-0.1,0.7-0.2,1-0.3c0.1-0.1,0.1-0.3,0-0.3c-0.7-0.1-1.6,0.3-2.2,0.6c-0.7,0.4-1.3,0.9-1.9,1.5c-1.1,1.3-1.9,2.9-2.4,4.6
							C169.8,143.6,170.1,143.7,170.2,143.5L170.2,143.5z"/>
					</g>
				</g>
				<g>
					<g>
						<path class="st12" d="M166,133c1.4,0.3,2.7,0.4,4.1,0.2c0.7-0.1,1.3-0.2,2-0.4c0.6-0.2,1.3-0.4,1.8-0.8c0.2-0.1,0-0.4-0.2-0.4
							c-0.6,0.1-1.2,0.4-1.8,0.6c-0.6,0.2-1.3,0.3-1.9,0.4c-1.3,0.2-2.6,0.2-3.9-0.1C165.8,132.5,165.7,132.9,166,133L166,133z"/>
					</g>
				</g>
			</g>
		</g>
		<g>
			<path class="st2" d="M246.5,172.5c0,0-20.8,89.5-23.5,105.1c-2.6,15.5-9,77.9-9,77.9l27.2,8.1c0,0,11-75.7,13.4-85.4
				s24.8-92.2,24.8-92.2L246.5,172.5z"/>
			<polygon class="st13" points="244.5,346.3 215.2,342.8 215.9,336.4 245.2,340.2 			"/>
			<line class="st14" x1="220.4" y1="337" x2="219.7" y2="343.3"/>
			<line class="st14" x1="226.3" y1="337.8" x2="225.6" y2="344.1"/>
			<line class="st14" x1="232.7" y1="338.6" x2="231.9" y2="345"/>
			<line class="st14" x1="238.6" y1="339.4" x2="237.7" y2="345.8"/>
			<line class="st14" x1="244.1" y1="340.1" x2="243.3" y2="346.3"/>
			<path class="st2" d="M315.1,196.7c0,0,4.9,32.2,12.7,72.8c8.5,44.5,12.8,87.2,12.8,87.2l-27.9,5.3c0,0-12.4-76.5-13.7-86.4
				c-1.4-9.8-14.4-68.4-14.4-68.4L315.1,196.7z"/>
			<g>
				<path class="st15" d="M214.7,340.1c-1.2,9.8-1.7,13.7-1.7,13.7l-18.6,9.7c-2.1,1.1-4.5,1.7-6.9,1.7h-2.7c-2.2,0-3.9,1.7-3.9,3.9
					v2.8l39.6,3.9c2,0.2,3.9-0.5,5.2-2l1.9-2.1c1.3-1.4,3.1-2.2,5-2.2h0.9v7.5l7.4,0.7c0,0,1.7-13.8,4.3-33.7L214.7,340.1z"/>
				<path class="st16" d="M220.5,375.8c2,0.2,3.9-0.5,5.2-2l1.9-2.1c1.3-1.4,3.1-2.2,5-2.2h0.9v7.5l7.3,0.7c0,0,0.5-3.7,1.2-9.8l0,0
					l-10.2-0.6c-1.9-0.1-3.8,0.6-5.2,1.9l-2.4,2.3c-1.3,1.3-3.1,1.9-5,1.8l-38.6-3.5v2L220.5,375.8z"/>
				<polyline class="st17" points="217.4,353.9 212.7,351.1 218.6,350.4 213.8,346.8 218.7,346.2 214.3,342.3 219.7,342.1 				"/>
			</g>
			<g>
				<polygon class="st13" points="339,341.8 309.3,344.3 308.8,337.9 338.5,335.7 				"/>
				<line class="st14" x1="313.3" y1="337.5" x2="313.9" y2="343.9"/>
				<line class="st14" x1="319.3" y1="337.1" x2="319.9" y2="343.5"/>
				<line class="st14" x1="325.8" y1="336.6" x2="326.3" y2="343.1"/>
				<line class="st14" x1="331.8" y1="336.3" x2="332.2" y2="342.7"/>
				<line class="st14" x1="337.3" y1="335.8" x2="337.8" y2="342"/>
				<path class="st15" d="M339.4,340.3l2.5,16.2l17.6,11.4c2,1.3,4.3,2.1,6.7,2.3l2.7,0.3c2.1,0.2,3.7,2.1,3.5,4.2l-0.3,3h-39.8
					c-2,0-3.8-1-5-2.5l-2.3-3.1c-0.8-1-1.9-1.6-3.2-1.8l-1.9-0.2l-0.7,7.5h-7.4l-3.3-36.2L339.4,340.3z"/>
				<path class="st16" d="M332.4,377.8c-2,0-3.8-1-5-2.5l-2.3-3.1c-0.8-1-1.9-1.6-3.2-1.8l-1.9-0.2l-0.7,7.5h-7.4l-0.9-10.1
					l11.9,0.6c1.3,0.1,2.4,0.6,3.2,1.6l2.8,3.3c1.2,1.4,2.9,2.2,4.8,2.2l38.7,0.2l-0.2,2.2H332.4z"/>
				<polyline class="st17" points="338.6,356.4 343,353.2 337.1,353.1 341.6,349.1 336.7,348.8 340.7,344.6 335.3,344.9 				"/>
			</g>
			<path class="st18" d="M244,158.9l-1.6,7.6c-10.3,14.9-36.8,160.4-36.8,160.4l60.9,5.2l9.2-119.1l9.6,119.1c0,0,55-4.6,53.9-5.7
				c-1.1-1.1-16.7-119.2-33.4-160.7l-1.6-7.1L244,158.9z"/>
			<g class="st19">
				<defs>
					<path id="SVGID_3_" class="st19" d="M244,158.9l-1.6,7.6c-10.3,14.9-36.8,160.4-36.8,160.4l60.9,5.2l9.2-119.1l9.6,119.1
						c0,0,55-4.6,53.9-5.7c-1.1-1.1-16.7-119.2-33.4-160.7l-1.6-7.1L244,158.9z"/>
				</defs>
				<clipPath id="SVGID_4_">
					<use xlink:href="#SVGID_3_"  style="overflow:visible;"/>
				</clipPath>
				<g class="st20">
					<path class="st21" d="M245.5,167.5C237.8,185,209.9,332,209.9,332"/>
					<path class="st21" d="M254.5,169.8c-5.4,25.5-30,165.4-30,165.4"/>
					<line class="st21" x1="264.8" y1="171.3" x2="242.3" y2="339"/>
					<line class="st21" x1="274.1" y1="171.7" x2="257.7" y2="339"/>
					<path class="st21" d="M281.5,171.5c0.4,15,13.3,163.7,13.3,163.7"/>
					<line class="st21" x1="291.3" y1="170.4" x2="314.5" y2="333.7"/>
					<path class="st21" d="M301.5,167.8c5.8,23.6,28.2,165.1,28.2,165.1"/>
				</g>
			</g>
			<path class="st7" d="M280,167.5c0,0.8-0.6,1.4-1.4,1.4c-0.8,0-1.4-0.6-1.4-1.4s0.6-1.4,1.4-1.4C279.4,166,280,166.7,280,167.5z"
				/>
			<g>
				<path class="st2" d="M245.6,127.7l-1.5,31.2c0,0,8.7,4.4,32.1,4.4c18.5,0,28.1-4.7,28.1-4.7l-3.3-32.8L245.6,127.7z"/>
				<g>
					<g>
						<path class="st22" d="M279.3,155.9c-0.1,0.4-0.2,0.8-0.2,1.2c0,0.2,0,0.4,0.1,0.6c0,0.2,0.1,0.5,0.3,0.6
							c0.1,0.1,0.3,0,0.3-0.1c0-0.1,0.1-0.1,0.1-0.2c0-0.1,0-0.1,0-0.2c0-0.1,0-0.2-0.1-0.3c0-0.2-0.1-0.3-0.1-0.5
							c-0.1-0.4,0-0.8,0-1.2c0-0.1-0.1-0.2-0.2-0.2C279.4,155.7,279.3,155.8,279.3,155.9L279.3,155.9z"/>
					</g>
				</g>
			</g>
			<path class="st23" d="M242.4,166.4c0,0,17.4,6.9,40,5c18.7-1.6,23.4-5.8,23.4-5.8"/>
			<path class="st23" d="M275.7,212.9c0,0,2.5-7.3,2.7-17.2c0.1-6.4,0.2-24,0.2-24"/>
			<path class="st23" d="M280.6,171.6L280.6,171.6c1-0.1,1.9-0.9,1.9-1.9v-4.2c0-1.1-0.9-1.9-2-1.9h-1.8"/>
			<line class="st23" x1="267.8" y1="163" x2="267.1" y2="171.6"/>
			<line class="st23" x1="249.1" y1="160.5" x2="247.6" y2="168.1"/>
			<line class="st23" x1="288.6" y1="162.5" x2="289.3" y2="170.7"/>
			<line class="st23" x1="301.5" y1="159.6" x2="303.3" y2="167.1"/>
			<path class="st23" d="M278.2,198.7c0,0,3.7-2.3,4.2-3.8c1.4-3.8,1.4-23.5,1.4-23.5"/>
			<line class="st23" x1="208" y1="315.4" x2="267.4" y2="321"/>
			<line class="st23" x1="284.2" y1="321" x2="337" y2="315.4"/>
			<path class="st23" d="M254.5,169.8c0,0-4.2,13.9-4.9,14.2c-1.7,0.6-13.4-0.8-13.4-0.8"/>
			<path class="st23" d="M296.8,169.2c0,0,3.9,12.5,5.5,13c1.8,0.6,8.9-0.3,8.9-0.3"/>
		</g>
		<line class="st24" x1="222.6" y1="43" x2="232" y2="48.3"/>
		<line class="st24" x1="229.8" y1="34.1" x2="236.7" y2="43"/>
		<line class="st24" x1="241.4" y1="30.7" x2="242.5" y2="40.5"/>
		<g>
			<g>
				<path class="st12" d="M282.9,41.8c-6.8-3.7-16.6-3.5-22.9,1.2c-8.9,6.6-11.4,18.7-12.7,29c5.9,3.3,11.2,5,18,5.7
					c5.6,0.6,11.2,0.7,16.7-0.5c5.8-1.3,11.4-3.1,16.2-6.4C295.1,61.3,292.6,47.2,282.9,41.8z"/>
			</g>
			<g>
				<g>
					<path class="st25" d="M284.7,62.3c1.7-1.7,3.8-1.8,4.9,0.6c0.5,1,0.7,2.1,0.4,3.2c-0.2,1.1-0.9,2-1.9,2.5c-1,0.5-2.2,0.4-3-0.4
						L284.7,62.3z"/>
				</g>
				<g>
					<g>
						<path class="st15" d="M287.7,67.7c0.5,0.1,0.9,0.7,1.1,1.2c0.2,0.6,0.3,1.3,0.2,2c0,0.3-0.1,0.6-0.2,0.8
							c-0.2,0.4-0.6,0.7-1,0.9c-1,0.4-1.7-0.4-2-1.3c-0.2-0.5-0.2-1.1,0-1.6c0.1-0.5,0.4-1,0.6-1.6c0-0.2-0.2-0.3-0.3-0.2
							c-0.4,0.4-0.6,1-0.8,1.6c-0.1,0.6-0.2,1.1-0.1,1.7c0.2,1,1,2.1,2.2,2c0.6,0,1.1-0.3,1.5-0.7c0.3-0.3,0.5-0.7,0.5-1.1
							c0.1-0.8,0.1-1.7-0.2-2.4c-0.3-0.8-0.7-1.5-1.6-1.4C287.7,67.6,287.6,67.7,287.7,67.7L287.7,67.7z"/>
					</g>
				</g>
			</g>
			<g>
				<path class="st2" d="M285.1,51.6c-0.7-2.2-2.8-3.8-5-4.5c-2.2-0.7-4.6-0.5-7-0.1c-3.6,0.6-7.5,1.8-9.6,4.8
					c-3.9,5.6-2.1,17.3,3,21.7c4.2,3.6,14.8,3.8,18.3-0.4c2.5-3,2.9-5.9,2.8-9.8c-0.1-3.9-0.9-8.8-0.9-8.8L285.1,51.6z"/>
			</g>
			<g>
				<path class="st12" d="M260.5,62.7c5.5-1.2,7.6-7,6.8-11.2c1.9,2.3,6.6,3.2,8.8,3.5c3.8,0.6,10.7,0.2,12.9-1.3
					c-0.4-3-1.2-6.1-3-8.5c-1.8-2.5-4.8-3.7-7.7-4.3c-3.2-0.7-6.8-1.2-9.9,0.1c-7.1,3-8.6,11.5-8.2,18.3L260.5,62.7z"/>
			</g>
			<path class="st2" d="M263.6,68.6L262.9,80L250,79.7c0,0,6.1,13.1,23.4,13c18.3-0.1,22.3-9.3,22.3-9.3l-12.6-2.7l-0.9-10.6
				L263.6,68.6z"/>
			<path class="st12" d="M275,31.8c0,3.6-2.9,6.4-6.4,6.4c-3.6,0-6.4-2.9-6.4-6.4c0-3.6,2.9-6.4,6.4-6.4
				C272.1,25.3,275,28.2,275,31.8z"/>
			
				<rect x="266.7" y="35.7" transform="matrix(0.9908 -0.1352 0.1352 0.9908 -2.6997 36.8145)" class="st12" width="6" height="5.1"/>
			<path class="st26" d="M266.5,39.9c2-0.9,4.2-1,6.4-0.9"/>
			<path class="st26" d="M266.5,38.1c1.9-0.8,4-1.1,6-0.8"/>
			<path class="st23" d="M269.9,74.2c1.3,0.9,3.6,1.8,6.1,2.1c4.2,0.4,7.1-1.3,7.1-1.3"/>
			<circle class="st12" cx="272.2" cy="60.2" r="1.2"/>
			<path class="st12" d="M285.3,59.1c0,0.6-0.5,1.2-1.2,1.2c-0.6,0-1.2-0.5-1.2-1.2s0.5-1.2,1.2-1.2
				C284.8,57.9,285.3,58.4,285.3,59.1z"/>
			<g>
				<g>
					<path class="st12" d="M280.5,62.4c0.2,0.5,0.4,1.1,0.6,1.7c0.1,0.4,0.3,0.8,0.4,1.3c0,0.2,0.1,0.4,0.1,0.5c0,0.1,0,0.1,0,0.2
						c0,0,0,0,0,0c0,0,0,0.1,0,0.1c0,0-0.1,0.1-0.2,0.1c-0.1,0-0.3,0.1-0.4,0.1c-0.2,0-0.4,0-0.6,0c-0.2,0-0.4,0-0.6,0
						c-0.3,0-0.2,0.4,0,0.5c0.4,0.1,0.8,0.1,1.1,0.1c0.3,0,0.6,0,0.9-0.2c0.4-0.2,0.4-0.7,0.3-1.1c-0.1-0.5-0.3-0.9-0.4-1.4
						c-0.2-0.4-0.4-0.9-0.7-1.3c-0.1-0.2-0.3-0.5-0.4-0.7C280.6,62.3,280.4,62.3,280.5,62.4L280.5,62.4z"/>
				</g>
			</g>
			<g>
				<path class="st7" d="M277.5,68.6c0,0.7,0.1,1.4,0.2,2c0.5,1.8,2.6,2.3,3.6,0.8c0.5-0.7,0.6-1.7,0.7-2.6L277.5,68.6z"/>
			</g>
			<g>
				<g>
					<path class="st2" d="M263.3,62.7c-2.5-0.7-4.6,0.3-4.4,3.1c0.1,1.2,0.5,2.3,1.3,3.2c0.8,0.9,2,1.4,3.1,1.4
						c1.2-0.1,2.3-0.8,2.7-1.9L263.3,62.7z"/>
				</g>
				<g>
					<g>
						<path class="st12" d="M260.2,65.1C260.2,65.1,260.2,65.1,260.2,65.1c0,0,0.1,0,0.1-0.1c0.2-0.3,0.4-0.5,0.8-0.6
							c0.3,0,0.6,0,0.9,0.2c0.3,0.1,0.5,0.3,0.7,0.5c0.1,0.1,0.1,0.1,0.2,0.2c0.1,0.2,0.2,0.5,0.3,0.8c0.2,0.6,0.1,1.3,0,1.9
							c0,0.3,0.3,0.4,0.4,0.1c0.2-0.6,0.2-1.3,0.1-1.9c-0.1-0.5-0.3-1-0.6-1.4c-0.5-0.5-1.3-0.9-2-0.8c-0.5,0.1-0.8,0.4-0.9,0.9
							C260.1,65,260.1,65.1,260.2,65.1C260.1,65.1,260.1,65.1,260.2,65.1C260.1,65.2,260.2,65.2,260.2,65.1L260.2,65.1z"/>
					</g>
				</g>
				<g>
					<g>
						<path class="st15" d="M261.6,69.3c0.4,0.2,0.6,0.9,0.6,1.3c0.1,0.6-0.1,1.2-0.2,1.8c-0.1,0.2-0.2,0.5-0.3,0.7
							c-0.2,0.3-0.7,0.5-1.1,0.5c-0.9,0-1.3-0.8-1.3-1.5c0-0.4,0.1-0.8,0.3-1.2c0.2-0.4,0.6-0.7,0.8-1.1c0.1-0.2-0.1-0.3-0.2-0.2
							c-0.8,0.4-1.4,1.5-1.4,2.4c0,0.9,0.4,2,1.3,2.2c0.5,0.1,1.1,0,1.5-0.2c0.4-0.2,0.6-0.5,0.8-0.9c0.3-0.7,0.4-1.4,0.4-2.2
							c0-0.4-0.1-0.8-0.3-1.1c-0.2-0.3-0.5-0.5-0.8-0.5C261.6,69.2,261.5,69.2,261.6,69.3L261.6,69.3z"/>
					</g>
				</g>
			</g>
			<path class="st27" d="M269.2,58c1.3-1.4,3.6-1.5,4.7-0.2"/>
			<path class="st27" d="M282.5,57c0.9-1.1,2.6-1.1,3.4-0.1"/>
		</g>
		<g>
			<path class="st15" d="M288.9,81.9c5.5-0.3,18.9,3.1,24.8,7.9c7.5,6,14.4,11.6,14.4,11.6l-15.7,26.5l-4.9-3.4l1.5,29.6l-74-0.8
				l4.4-42l-7.6,12.3l-1.2-39.6c0,0,6.9-7.5,16.5-6.6c3.8,0.4,8.2,1.4,10.6,2.6c0,0,3.2,10.4,16.7,10.8
				C286.7,91,288.9,81.9,288.9,81.9z"/>
		</g>
		<g>
			<defs>
				<path id="SVGID_5_" d="M288.9,81.9c5.5-0.3,18.9,3.1,24.8,7.9c7.5,6,14.4,11.6,14.4,11.6l-15.7,26.5l-4.9-3.4l1.5,29.6l-74-0.8
					l4.4-42l-7.6,12.3l-1.2-39.6c0,0,6.9-7.5,16.5-6.6c3.8,0.4,8.2,1.4,10.6,2.6c0,0,3.2,10.4,16.7,10.8
					C286.7,91,288.9,81.9,288.9,81.9z"/>
			</defs>
			<clipPath id="SVGID_6_">
				<use xlink:href="#SVGID_5_"  style="overflow:visible;"/>
			</clipPath>
			<g class="st28">
				<path class="st13" d="M264,129.5c-2.2,2.6-6.1,3-8.7,0.8c-2.6-2.2-3-6.1-0.8-8.7L264,129.5z"/>
				<path class="st13" d="M249.5,79.1c-2.2,2.6-6.1,3-8.7,0.8c-2.6-2.2-3-6.1-0.8-8.7L249.5,79.1z"/>
				<path class="st13" d="M290.5,102.6c-2.2,2.6-6.1,3-8.7,0.8c-2.6-2.2-3-6.1-0.8-8.7L290.5,102.6z"/>
				<path class="st13" d="M292.9,129.8c-2.2,2.6-6.1,3-8.7,0.8c-2.6-2.2-3-6.1-0.8-8.7L292.9,129.8z"/>
				<path class="st13" d="M243.2,98.7c2.2-2.6,6.1-3,8.7-0.8c2.6,2.2,3,6.1,0.8,8.7L243.2,98.7z"/>
				<path class="st13" d="M297.8,90.2c2.2-2.6,6.1-3,8.7-0.8c2.6,2.2,3,6.1,0.8,8.7L297.8,90.2z"/>
				<path class="st13" d="M303.3,129.9c2.2-2.6,6.1-3,8.7-0.8c2.6,2.2,3,6.1,0.8,8.7L303.3,129.9z"/>
				<path class="st13" d="M271.3,106.6c2.7,2,3.3,5.9,1.3,8.6c-2,2.7-5.9,3.3-8.6,1.3L271.3,106.6z"/>
				<path class="st13" d="M319.3,103.5c2.7,2,3.3,5.9,1.3,8.6c-2,2.7-5.9,3.3-8.6,1.3L319.3,103.5z"/>
				<path class="st13" d="M277,137.7c2.7,2,3.3,5.9,1.3,8.6c-2,2.7-5.9,3.3-8.6,1.3L277,137.7z"/>
				<path class="st13" d="M232.1,92.2c2.7,2,3.3,5.9,1.3,8.6c-2,2.7-5.9,3.3-8.6,1.3L232.1,92.2z"/>
				<path class="st13" d="M294.4,119.7c-2.7-2-3.3-5.9-1.3-8.6c2-2.7,5.9-3.3,8.6-1.3L294.4,119.7z"/>
				<path class="st13" d="M258.9,91.6c-2.7-2-3.3-5.9-1.3-8.6c2-2.7,5.9-3.3,8.6-1.3L258.9,91.6z"/>
				<path class="st13" d="M245.7,148.9c-2.7-2-3.3-5.9-1.3-8.6c2-2.7,5.9-3.3,8.6-1.3L245.7,148.9z"/>
				<path class="st13" d="M298.4,150.1c-2.7-2-3.3-5.9-1.3-8.6c2-2.7,5.9-3.3,8.6-1.3L298.4,150.1z"/>
				<path class="st7" d="M239.5,104.5c0,0.6-0.5,1-1,1c-0.6,0-1-0.5-1-1c0-0.6,0.5-1,1-1C239.1,103.5,239.5,103.9,239.5,104.5z"/>
				<path class="st7" d="M266.5,100.8c0,0.6-0.5,1-1,1c-0.6,0-1-0.5-1-1c0-0.6,0.5-1,1-1C266.1,99.8,266.5,100.3,266.5,100.8z"/>
				<path class="st7" d="M298.6,96.6c0,0.6-0.5,1-1,1c-0.6,0-1-0.5-1-1c0-0.6,0.5-1,1-1C298.2,95.6,298.6,96.1,298.6,96.6z"/>
				<path class="st7" d="M301.4,124.4c0,0.6-0.5,1-1,1s-1-0.5-1-1s0.5-1,1-1S301.4,123.9,301.4,124.4z"/>
				<path class="st7" d="M313.9,121.6c0,0.6-0.5,1-1,1c-0.6,0-1-0.5-1-1c0-0.6,0.5-1,1-1C313.5,120.6,313.9,121.1,313.9,121.6z"/>
				<path class="st7" d="M284.1,113.3c0,0.6-0.5,1-1,1c-0.6,0-1-0.5-1-1c0-0.6,0.5-1,1-1C283.7,112.3,284.1,112.7,284.1,113.3z"/>
				<path class="st7" d="M316.8,99.8c0,0.6-0.5,1-1,1c-0.6,0-1-0.5-1-1c0-0.6,0.5-1,1-1C316.4,98.8,316.8,99.3,316.8,99.8z"/>
				<circle class="st7" cx="293.2" cy="84.9" r="1"/>
				<path class="st7" d="M231.7,82.9c0,0.6-0.5,1-1,1c-0.6,0-1-0.5-1-1c0-0.6,0.5-1,1-1C231.2,81.9,231.7,82.3,231.7,82.9z"/>
				<path class="st7" d="M247.4,87.7c0,0.6-0.5,1-1,1c-0.6,0-1-0.5-1-1s0.5-1,1-1C246.9,86.7,247.4,87.1,247.4,87.7z"/>
				<path class="st7" d="M264.1,142.3c0,0.6-0.5,1-1,1c-0.6,0-1-0.5-1-1c0-0.6,0.5-1,1-1C263.7,141.3,264.1,141.8,264.1,142.3z"/>
				<path class="st7" d="M256.2,116.2c0,0.6-0.5,1-1,1c-0.6,0-1-0.5-1-1c0-0.6,0.5-1,1-1C255.7,115.2,256.2,115.7,256.2,116.2z"/>
				<path class="st7" d="M245,126.7c0,0.6-0.5,1-1,1c-0.6,0-1-0.5-1-1s0.5-1,1-1C244.6,125.7,245,126.1,245,126.7z"/>
				<path class="st7" d="M273.9,127.7c0,0.6-0.5,1-1,1s-1-0.5-1-1c0-0.6,0.5-1,1-1S273.9,127.1,273.9,127.7z"/>
				<path class="st7" d="M291.1,148.3c0,0.6-0.5,1-1,1c-0.6,0-1-0.5-1-1c0-0.6,0.5-1,1-1C290.7,147.3,291.1,147.8,291.1,148.3z"/>
			</g>
		</g>
		<line class="st23" x1="239.5" y1="111.1" x2="245.4" y2="113.3"/>
		<path class="st23" d="M307.6,124.4c0,0-0.5-14.4,0.8-18.5"/>
		<path class="st23" d="M264.5,91.9c7.1,4.9,20.9,3.8,25.9-3.9"/>
		<path class="st23" d="M291.3,86.4c0,0,1-1.5,1.3-3.1"/>
	</g>
</g>
<path class="st0" d="M125,818h-630v-61c0-11.9,9.7-21.6,21.6-21.6h586.8c11.9,0,21.6,9.7,21.6,21.6V818z"/>
<g>
	<g>
		<path class="st7" d="M-335.1,782.9h-10.5l-2.2,6.3h-4.9l10.2-27h4.2l10.2,27h-4.9L-335.1,782.9z M-344.3,779.1h7.8l-3.9-11.2
			L-344.3,779.1z"/>
		<path class="st7" d="M-319.6,783.4l4.2-14.4h4.7l-7,20.1h-3.9l-7-20.1h4.7L-319.6,783.4z"/>
		<path class="st7" d="M-308.3,763.9c0-0.7,0.2-1.3,0.7-1.7c0.4-0.5,1.1-0.7,1.9-0.7s1.4,0.2,1.9,0.7c0.4,0.5,0.7,1,0.7,1.7
			c0,0.7-0.2,1.2-0.7,1.7c-0.4,0.5-1.1,0.7-1.9,0.7s-1.4-0.2-1.9-0.7C-308,765.1-308.3,764.5-308.3,763.9z M-303.5,789.1h-4.5v-20.1
			h4.5V789.1z"/>
		<path class="st7" d="M-287.7,783.7c0-0.8-0.3-1.4-1-1.8c-0.7-0.4-1.8-0.8-3.3-1.1c-1.5-0.3-2.8-0.7-3.8-1.2
			c-2.3-1.1-3.4-2.7-3.4-4.7c0-1.7,0.7-3.2,2.2-4.3c1.5-1.2,3.3-1.7,5.6-1.7c2.4,0,4.3,0.6,5.8,1.8c1.5,1.2,2.2,2.7,2.2,4.6h-4.5
			c0-0.9-0.3-1.6-1-2.2c-0.6-0.6-1.5-0.9-2.6-0.9c-1,0-1.8,0.2-2.4,0.7c-0.6,0.5-0.9,1.1-0.9,1.8c0,0.7,0.3,1.2,0.9,1.6
			c0.6,0.4,1.8,0.8,3.5,1.2c1.8,0.4,3.2,0.9,4.2,1.4c1,0.5,1.8,1.2,2.2,1.9c0.5,0.8,0.7,1.7,0.7,2.7c0,1.8-0.7,3.3-2.2,4.4
			c-1.5,1.1-3.5,1.7-5.9,1.7c-1.6,0-3.1-0.3-4.4-0.9c-1.3-0.6-2.3-1.4-3-2.4c-0.7-1-1.1-2.2-1.1-3.4h4.4c0.1,1.1,0.5,1.9,1.2,2.5
			c0.7,0.6,1.7,0.9,3,0.9c1.2,0,2.1-0.2,2.7-0.7C-288,785-287.7,784.4-287.7,783.7z"/>
		<path class="st7" d="M-280.6,778.9c0-2,0.4-3.7,1.2-5.3c0.8-1.6,1.9-2.8,3.3-3.6c1.4-0.8,3-1.3,4.9-1.3c2.7,0,4.9,0.9,6.6,2.6
			c1.7,1.7,2.6,4.1,2.7,6.9l0,1.1c0,2-0.4,3.7-1.1,5.3c-0.8,1.6-1.8,2.8-3.3,3.6c-1.4,0.9-3.1,1.3-4.9,1.3c-2.8,0-5.1-0.9-6.8-2.8
			c-1.7-1.9-2.6-4.4-2.6-7.5V778.9z M-276,779.3c0,2.1,0.4,3.7,1.3,4.9c0.9,1.2,2,1.8,3.6,1.8s2.7-0.6,3.6-1.8
			c0.8-1.2,1.3-2.9,1.3-5.2c0-2-0.4-3.6-1.3-4.8c-0.9-1.2-2.1-1.8-3.6-1.8c-1.5,0-2.6,0.6-3.5,1.8C-275.6,775.2-276,777-276,779.3z"
			/>
		<path class="st7" d="M-247.2,783.7c0-0.8-0.3-1.4-1-1.8c-0.7-0.4-1.8-0.8-3.3-1.1c-1.5-0.3-2.8-0.7-3.8-1.2
			c-2.3-1.1-3.4-2.7-3.4-4.7c0-1.7,0.7-3.2,2.2-4.3c1.5-1.2,3.3-1.7,5.6-1.7c2.4,0,4.3,0.6,5.8,1.8c1.5,1.2,2.2,2.7,2.2,4.6h-4.5
			c0-0.9-0.3-1.6-1-2.2c-0.6-0.6-1.5-0.9-2.6-0.9c-1,0-1.8,0.2-2.4,0.7c-0.6,0.5-0.9,1.1-0.9,1.8c0,0.7,0.3,1.2,0.9,1.6
			c0.6,0.4,1.8,0.8,3.5,1.2c1.8,0.4,3.2,0.9,4.2,1.4c1,0.5,1.8,1.2,2.2,1.9c0.5,0.8,0.7,1.7,0.7,2.7c0,1.8-0.7,3.3-2.2,4.4
			c-1.5,1.1-3.5,1.7-5.9,1.7c-1.6,0-3.1-0.3-4.4-0.9c-1.3-0.6-2.3-1.4-3-2.4c-0.7-1-1.1-2.2-1.1-3.4h4.4c0.1,1.1,0.5,1.9,1.2,2.5
			c0.7,0.6,1.7,0.9,3,0.9c1.2,0,2.1-0.2,2.7-0.7C-247.5,785-247.2,784.4-247.2,783.7z"/>
		<path class="st7" d="M-230.1,763.9c0-0.7,0.2-1.3,0.7-1.7c0.4-0.5,1.1-0.7,1.9-0.7s1.4,0.2,1.9,0.7c0.4,0.5,0.7,1,0.7,1.7
			c0,0.7-0.2,1.2-0.7,1.7c-0.4,0.5-1.1,0.7-1.9,0.7s-1.4-0.2-1.9-0.7C-229.9,765.1-230.1,764.5-230.1,763.9z M-225.3,789.1h-4.5
			v-20.1h4.5V789.1z"/>
		<path class="st7" d="M-216.6,769.1l0.1,2.1c1.4-1.6,3.3-2.5,5.8-2.5c2.7,0,4.5,1,5.5,3.1c1.5-2.1,3.5-3.1,6.2-3.1
			c2.2,0,3.9,0.6,4.9,1.8c1.1,1.2,1.6,3,1.7,5.4v13.2h-4.5v-13.1c0-1.3-0.3-2.2-0.8-2.8s-1.5-0.9-2.8-0.9c-1,0-1.9,0.3-2.5,0.8
			c-0.7,0.6-1.1,1.3-1.4,2.2l0,13.8h-4.5v-13.2c-0.1-2.4-1.3-3.5-3.6-3.5c-1.8,0-3.1,0.7-3.8,2.2v14.5h-4.5v-20.1H-216.6z"/>
		<path class="st7" d="M-170.6,779.3c0,3.1-0.7,5.6-2.1,7.4c-1.4,1.8-3.3,2.8-5.7,2.8c-2.2,0-4-0.7-5.3-2.2v9.5h-4.5v-27.8h4.2
			l0.2,2c1.3-1.6,3.1-2.4,5.4-2.4c2.4,0,4.4,0.9,5.8,2.7c1.4,1.8,2.1,4.4,2.1,7.6V779.3z M-175,778.9c0-2-0.4-3.6-1.2-4.8
			c-0.8-1.2-1.9-1.8-3.4-1.8c-1.8,0-3.2,0.8-4,2.3v8.9c0.8,1.6,2.2,2.3,4,2.3c1.4,0,2.6-0.6,3.4-1.7C-175.4,783-175,781.3-175,778.9
			z"/>
		<path class="st7" d="M-168,778.9c0-2,0.4-3.7,1.2-5.3c0.8-1.6,1.9-2.8,3.3-3.6c1.4-0.8,3-1.3,4.9-1.3c2.7,0,4.9,0.9,6.6,2.6
			c1.7,1.7,2.6,4.1,2.7,6.9l0,1.1c0,2-0.4,3.7-1.1,5.3c-0.8,1.6-1.8,2.8-3.3,3.6c-1.4,0.9-3.1,1.3-4.9,1.3c-2.8,0-5.1-0.9-6.8-2.8
			c-1.7-1.9-2.6-4.4-2.6-7.5V778.9z M-163.5,779.3c0,2.1,0.4,3.7,1.3,4.9c0.9,1.2,2,1.8,3.6,1.8s2.7-0.6,3.6-1.8
			c0.8-1.2,1.3-2.9,1.3-5.2c0-2-0.4-3.6-1.3-4.8c-0.9-1.2-2.1-1.8-3.6-1.8c-1.5,0-2.6,0.6-3.5,1.8C-163,775.2-163.5,777-163.5,779.3
			z"/>
		<path class="st7" d="M-135.4,773.2c-0.6-0.1-1.2-0.1-1.8-0.1c-2.1,0-3.5,0.8-4.2,2.4v13.7h-4.5v-20.1h4.3l0.1,2.2
			c1.1-1.7,2.6-2.6,4.5-2.6c0.6,0,1.2,0.1,1.6,0.3L-135.4,773.2z"/>
		<path class="st7" d="M-126.3,764.2v4.9h3.5v3.3h-3.5v11.2c0,0.8,0.2,1.3,0.5,1.7c0.3,0.3,0.8,0.5,1.6,0.5c0.5,0,1-0.1,1.6-0.2v3.5
			c-1,0.3-2,0.4-3,0.4c-3.5,0-5.2-1.9-5.2-5.7v-11.4h-3.3v-3.3h3.3v-4.9H-126.3z"/>
		<path class="st7" d="M-107.7,789.1c-0.2-0.4-0.4-1-0.5-1.9c-1.4,1.5-3.2,2.2-5.3,2.2c-2,0-3.7-0.6-4.9-1.7
			c-1.3-1.2-1.9-2.6-1.9-4.3c0-2.1,0.8-3.8,2.4-4.9c1.6-1.1,3.9-1.7,6.8-1.7h2.8v-1.3c0-1-0.3-1.9-0.9-2.5c-0.6-0.6-1.5-0.9-2.7-0.9
			c-1,0-1.9,0.3-2.5,0.8c-0.7,0.5-1,1.2-1,2h-4.5c0-1.1,0.4-2.1,1.1-3.1c0.7-1,1.7-1.7,3-2.3c1.3-0.5,2.7-0.8,4.2-0.8
			c2.3,0,4.2,0.6,5.6,1.8c1.4,1.2,2.1,2.8,2.2,5v9.1c0,1.8,0.3,3.2,0.8,4.3v0.3H-107.7z M-112.7,785.9c0.9,0,1.7-0.2,2.5-0.6
			c0.8-0.4,1.4-1,1.8-1.7v-3.8h-2.4c-1.7,0-2.9,0.3-3.8,0.9c-0.8,0.6-1.3,1.4-1.3,2.5c0,0.9,0.3,1.6,0.9,2.1
			C-114.4,785.6-113.6,785.9-112.7,785.9z"/>
		<path class="st7" d="M-95.3,769.1l0.1,2.3c1.5-1.8,3.4-2.7,5.8-2.7c4.2,0,6.3,2.4,6.4,7.2v13.3h-4.5v-13c0-1.3-0.3-2.2-0.8-2.8
			c-0.6-0.6-1.5-0.9-2.7-0.9c-1.8,0-3.2,0.8-4.1,2.5v14.3h-4.5v-20.1H-95.3z"/>
		<path class="st7" d="M-73.1,764.2v4.9h3.5v3.3h-3.5v11.2c0,0.8,0.2,1.3,0.5,1.7c0.3,0.3,0.8,0.5,1.6,0.5c0.5,0,1-0.1,1.6-0.2v3.5
			c-1,0.3-2,0.4-3,0.4c-3.5,0-5.2-1.9-5.2-5.7v-11.4h-3.3v-3.3h3.3v-4.9H-73.1z"/>
		<path class="st7" d="M-57.7,789.5c-2.9,0-5.2-0.9-6.9-2.7c-1.8-1.8-2.7-4.2-2.7-7.2v-0.6c0-2,0.4-3.8,1.2-5.4
			c0.8-1.6,1.9-2.8,3.3-3.7c1.4-0.9,3-1.3,4.7-1.3c2.7,0,4.8,0.9,6.3,2.6c1.5,1.7,2.2,4.2,2.2,7.4v1.8h-13.1c0.1,1.7,0.7,3,1.7,3.9
			c1,1,2.2,1.4,3.7,1.4c2.1,0,3.7-0.8,5-2.5l2.4,2.3c-0.8,1.2-1.9,2.1-3.2,2.8C-54.5,789.2-56,789.5-57.7,789.5z M-58.2,772.3
			c-1.2,0-2.2,0.4-3,1.3c-0.8,0.9-1.2,2.1-1.5,3.6h8.6v-0.3c-0.1-1.5-0.5-2.7-1.2-3.4C-56,772.7-57,772.3-58.2,772.3z"/>
		<path class="st7" d="M-35.2,783.7c0-0.8-0.3-1.4-1-1.8c-0.7-0.4-1.8-0.8-3.3-1.1c-1.5-0.3-2.8-0.7-3.8-1.2
			c-2.3-1.1-3.4-2.7-3.4-4.7c0-1.7,0.7-3.2,2.2-4.3c1.5-1.2,3.3-1.7,5.6-1.7c2.4,0,4.3,0.6,5.8,1.8c1.5,1.2,2.2,2.7,2.2,4.6h-4.5
			c0-0.9-0.3-1.6-1-2.2c-0.6-0.6-1.5-0.9-2.6-0.9c-1,0-1.8,0.2-2.4,0.7c-0.6,0.5-0.9,1.1-0.9,1.8c0,0.7,0.3,1.2,0.9,1.6
			c0.6,0.4,1.8,0.8,3.5,1.2c1.8,0.4,3.2,0.9,4.2,1.4c1,0.5,1.8,1.2,2.2,1.9c0.5,0.8,0.7,1.7,0.7,2.7c0,1.8-0.7,3.3-2.2,4.4
			c-1.5,1.1-3.5,1.7-5.9,1.7c-1.6,0-3.1-0.3-4.4-0.9c-1.3-0.6-2.3-1.4-3-2.4c-0.7-1-1.1-2.2-1.1-3.4h4.4c0.1,1.1,0.5,1.9,1.2,2.5
			c0.7,0.6,1.7,0.9,3,0.9c1.2,0,2.1-0.2,2.7-0.7C-35.6,785-35.2,784.4-35.2,783.7z"/>
	</g>
</g>
<g>
	<text transform="matrix(1 0 0 1 448.0232 1017.1419)" class="st7" style="font-family:'Roboto-Medium'; font-size:38px;">Avisos importantes</text>
</g>
</svg>
