<?xml version="1.0" encoding="utf-8"?>
<!-- Generator: Adobe Illustrator 25.2.1, SVG Export Plug-In . SVG Version: 6.00 Build 0)  -->
<!DOCTYPE svg PUBLIC "-//W3C//DTD SVG 1.1//EN" "http://www.w3.org/Graphics/SVG/1.1/DTD/svg11.dtd" [
	<!ENTITY ns_extend "http://ns.adobe.com/Extensibility/1.0/">
	<!ENTITY ns_ai "http://ns.adobe.com/AdobeIllustrator/10.0/">
	<!ENTITY ns_graphs "http://ns.adobe.com/Graphs/1.0/">
	<!ENTITY ns_vars "http://ns.adobe.com/Variables/1.0/">
	<!ENTITY ns_imrep "http://ns.adobe.com/ImageReplacement/1.0/">
	<!ENTITY ns_sfw "http://ns.adobe.com/SaveForWeb/1.0/">
	<!ENTITY ns_custom "http://ns.adobe.com/GenericCustomNamespace/1.0/">
	<!ENTITY ns_adobe_xpath "http://ns.adobe.com/XPath/1.0/">
]>
<svg version="1.1" id="Capa_1" xmlns:x="&ns_extend;" xmlns:i="&ns_ai;" xmlns:graph="&ns_graphs;"
	 xmlns="http://www.w3.org/2000/svg" xmlns:xlink="http://www.w3.org/1999/xlink" x="0px" y="0px" viewBox="0 0 940.6 204.9"
	 style="enable-background:new 0 0 940.6 204.9;" xml:space="preserve">
<style type="text/css">
	.st0{fill:#1DA8DE;}
	.st1{fill:#F1F1F2;}
	.st2{fill:#FEC43E;}
	.st3{fill:#2E515A;}
	.st4{fill:#B1B5BA;}
	.st5{fill:#EA45A8;}
	.st6{clip-path:url(#SVGID_2_);}
	.st7{fill:#91452D;}
	.st8{fill:#000100;}
	.st9{fill:#F16E7F;}
	.st10{fill:#FFFFFF;}
	.st11{fill:#1C5191;}
	.st12{fill:none;stroke:#628ECC;stroke-width:0.7769;stroke-miterlimit:10;}
	.st13{fill:none;stroke:#628ECC;stroke-width:0.7769;stroke-linejoin:round;stroke-miterlimit:10;}
	.st14{fill:none;stroke:#9ABCEF;stroke-width:0.7769;stroke-miterlimit:10;}
	.st15{fill:none;stroke:#9ABCEF;stroke-width:0.7769;stroke-linejoin:round;stroke-miterlimit:10;}
	.st16{fill:#3E3D54;}
	.st17{fill:none;stroke:#000100;stroke-width:0.5827;stroke-miterlimit:10;}
	.st18{fill:#B2B2C1;}
	.st19{fill:#4973BB;}
	.st20{clip-path:url(#SVGID_3_);}
	.st21{fill:#3A6AAF;}
	.st22{fill:#4B7DC6;}
	.st23{fill:none;stroke:#FFFFFF;stroke-width:0.3884;stroke-miterlimit:10;}
	.st24{fill:none;stroke:#000100;stroke-width:0.5827;stroke-linecap:round;stroke-linejoin:round;stroke-miterlimit:10;}
	.st25{fill:none;stroke:#000100;stroke-width:0.7769;stroke-miterlimit:10;}
	.st26{enable-background:new    ;}
	.st27{clip-path:url(#SVGID_4_);}
	.st28{fill:none;stroke:#000000;stroke-width:0.6964;stroke-miterlimit:10;}
	.st29{fill:#E63685;}
	.st30{opacity:0.1;enable-background:new    ;}
	.st31{fill:#E6E6E6;}
	.st32{fill:#D8D8D6;}
	.st33{fill:#EDEDED;}
	.st34{fill:#F9B04E;}
	.st35{fill:none;stroke:#ED8D24;stroke-width:0.6964;stroke-miterlimit:10;}
	.st36{fill:#F7D061;}
	.st37{fill:#774022;}
	.st38{fill:none;stroke:#774022;stroke-width:0.6964;stroke-linejoin:round;stroke-miterlimit:10;}
	.st39{fill:#5A6DE0;}
	.st40{opacity:0.35;}
	.st41{clip-path:url(#SVGID_6_);}
	.st42{fill:none;stroke:#8FA4F7;stroke-width:4.5263;stroke-miterlimit:10;}
	.st43{fill:#231F20;}
	.st44{fill:none;stroke:#000100;stroke-width:0.5223;stroke-miterlimit:10;}
	.st45{fill:none;stroke:#231F20;stroke-width:0.6964;stroke-miterlimit:10;}
	.st46{fill:#E5576F;}
	.st47{fill:none;stroke:#5A6DE0;stroke-width:0.6964;stroke-linecap:round;stroke-miterlimit:10;}
	.st48{fill:none;stroke:#000100;stroke-width:0.5223;stroke-linecap:round;stroke-linejoin:round;stroke-miterlimit:10;}
	.st49{clip-path:url(#SVGID_8_);}
</style>
<metadata>
	<sfw  xmlns="&ns_sfw;">
		<slices></slices>
		<sliceSourceBounds  bottomLeftOrigin="true" height="846.1" width="1870.3" x="87.6" y="-921.4"></sliceSourceBounds>
	</sfw>
</metadata>
<path class="st0" d="M941.6,205.4h-702v-59.8c0-12.6,10.2-22.8,22.8-22.8h656.4c12.6,0,22.8,10.2,22.8,22.8V205.4z"/>
<g>
	<text transform="matrix(1 0 0 1 462.6021 684.506)" class="st10" style="font-family:'Roboto-Medium'; font-size:38px;">Avisos importantes</text>
</g>
<g>
	<g>
		<path class="st1" d="M726.4,417.7v154.8c0,9.3,7.6,16.9,16.9,16.9h168.8c9.3,0,16.9-7.6,16.9-16.9V417.7c0-9.3-7.6-16.9-16.9-16.9
			H743.3C733.9,400.9,726.4,408.4,726.4,417.7z"/>
		<path class="st2" d="M726.4,417.7v33.8H929v-33.8c0-9.3-7.6-16.9-16.9-16.9H743.3C733.9,400.9,726.4,408.4,726.4,417.7z"/>
		<g>
			<path class="st3" d="M765.2,412.1c-4.7,0-8.4,3.8-8.4,8.4c0,4.7,3.8,8.4,8.4,8.4c4.7,0,8.4-3.8,8.4-8.4S769.9,412.1,765.2,412.1z
				"/>
			<path class="st4" d="M761,391v25.3c0,2.3,1.9,4.2,4.2,4.2l0,0c2.3,0,4.2-1.9,4.2-4.2V391c0-2.3-1.9-4.2-4.2-4.2l0,0
				C762.9,386.8,761,388.6,761,391z"/>
			<circle class="st3" cx="806.8" cy="420.5" r="8.4"/>
			<path class="st4" d="M802.6,391v25.3c0,2.3,1.9,4.2,4.2,4.2l0,0c2.3,0,4.2-1.9,4.2-4.2V391c0-2.3-1.9-4.2-4.2-4.2l0,0
				C804.5,386.8,802.6,388.6,802.6,391z"/>
			<circle class="st3" cx="848.5" cy="420.5" r="8.4"/>
			<path class="st4" d="M844.3,391v25.3c0,2.3,1.9,4.2,4.2,4.2l0,0c2.3,0,4.2-1.9,4.2-4.2V391c0-2.3-1.9-4.2-4.2-4.2l0,0
				C846.2,386.8,844.3,388.6,844.3,391z"/>
			<circle class="st3" cx="890.1" cy="420.5" r="8.4"/>
			<path class="st4" d="M885.9,391v25.3c0,2.3,1.9,4.2,4.2,4.2l0,0c2.3,0,4.2-1.9,4.2-4.2V391c0-2.3-1.9-4.2-4.2-4.2l0,0
				C887.8,386.8,885.9,388.6,885.9,391z"/>
		</g>
		<g>
			<path class="st4" d="M752.3,470.7v15.8c0,2.8,2.3,5.1,5.1,5.1h15.8c2.8,0,5.1-2.3,5.1-5.1v-15.8c0-2.8-2.3-5.1-5.1-5.1h-15.9
				C754.5,465.6,752.3,467.9,752.3,470.7z"/>
			<path class="st4" d="M793.9,470.7v15.8c0,2.8,2.3,5.1,5.1,5.1h15.8c2.8,0,5.1-2.3,5.1-5.1v-15.8c0-2.8-2.3-5.1-5.1-5.1H799
				C796.2,465.6,793.9,467.9,793.9,470.7z"/>
			<path class="st4" d="M835.5,470.7v15.8c0,2.8,2.3,5.1,5.1,5.1h15.8c2.8,0,5.1-2.3,5.1-5.1v-15.8c0-2.8-2.3-5.1-5.1-5.1h-15.8
				C837.8,465.6,835.5,467.9,835.5,470.7z"/>
			<path class="st4" d="M877.2,470.7v15.8c0,2.8,2.3,5.1,5.1,5.1H898c2.8,0,5.1-2.3,5.1-5.1v-15.8c0-2.8-2.3-5.1-5.1-5.1h-15.8
				C879.5,465.6,877.2,467.9,877.2,470.7z"/>
		</g>
		<g>
			<path class="st4" d="M752.3,505.6v15.8c0,2.8,2.3,5.1,5.1,5.1h15.8c2.8,0,5.1-2.3,5.1-5.1v-15.8c0-2.8-2.3-5.1-5.1-5.1h-15.9
				C754.5,500.5,752.3,502.8,752.3,505.6z"/>
			<path class="st4" d="M793.9,505.6v15.8c0,2.8,2.3,5.1,5.1,5.1h15.8c2.8,0,5.1-2.3,5.1-5.1v-15.8c0-2.8-2.3-5.1-5.1-5.1H799
				C796.2,500.5,793.9,502.8,793.9,505.6z"/>
			<path class="st5" d="M835.5,505.6v15.8c0,2.8,2.3,5.1,5.1,5.1h15.8c2.8,0,5.1-2.3,5.1-5.1v-15.8c0-2.8-2.3-5.1-5.1-5.1h-15.8
				C837.8,500.5,835.5,502.8,835.5,505.6z"/>
			<path class="st4" d="M877.2,505.6v15.8c0,2.8,2.3,5.1,5.1,5.1H898c2.8,0,5.1-2.3,5.1-5.1v-15.8c0-2.8-2.3-5.1-5.1-5.1h-15.8
				C879.5,500.5,877.2,502.8,877.2,505.6z"/>
		</g>
		<g>
			<path class="st4" d="M752.3,540.5v15.8c0,2.8,2.3,5.1,5.1,5.1h15.8c2.8,0,5.1-2.3,5.1-5.1v-15.8c0-2.8-2.3-5.1-5.1-5.1h-15.9
				C754.5,535.4,752.3,537.7,752.3,540.5z"/>
			<path class="st4" d="M793.9,540.5v15.8c0,2.8,2.3,5.1,5.1,5.1h15.8c2.8,0,5.1-2.3,5.1-5.1v-15.8c0-2.8-2.3-5.1-5.1-5.1H799
				C796.2,535.4,793.9,537.7,793.9,540.5z"/>
			<path class="st4" d="M835.5,540.5v15.8c0,2.8,2.3,5.1,5.1,5.1h15.8c2.8,0,5.1-2.3,5.1-5.1v-15.8c0-2.8-2.3-5.1-5.1-5.1h-15.8
				C837.8,535.4,835.5,537.7,835.5,540.5z"/>
			<path class="st4" d="M877.2,540.5v15.8c0,2.8,2.3,5.1,5.1,5.1H898c2.8,0,5.1-2.3,5.1-5.1v-15.8c0-2.8-2.3-5.1-5.1-5.1h-15.8
				C879.5,535.4,877.2,537.7,877.2,540.5z"/>
		</g>
		<g>
			<g>
				<path class="st5" d="M784,439.5L784,439.5c0,2,1.6,3.7,3.7,3.7h53.7c2,0,3.7-1.6,3.7-3.7l0,0c0-2-1.6-3.7-3.7-3.7h-53.8
					C785.6,435.8,784,437.4,784,439.5z"/>
				<path class="st5" d="M853,439.5L853,439.5c0,2,1.6,3.7,3.7,3.7h11c2,0,3.7-1.6,3.7-3.7l0,0c0-2-1.6-3.7-3.7-3.7h-11
					C854.6,435.8,853,437.4,853,439.5z"/>
			</g>
		</g>
	</g>
</g>
<g>
	<g>
		<g>
			<defs>
				<rect id="SVGID_5_" x="852.6" y="367.2" width="491" height="313.1"/>
			</defs>
			<clipPath id="SVGID_2_">
				<use xlink:href="#SVGID_5_"  style="overflow:visible;"/>
			</clipPath>
			<g class="st6">
				<g>
					<path class="st7" d="M995.7,475.5c0,0-21.4,19.9-30.2,22.3c-17.5,4.7-55.3,7.9-55.3,7.9l-5.7-22.6c0,0,34.2-6.8,44.6-10.1
						c10.5-3.3,34-23.9,34-23.9"/>
					<g>
						<path class="st7" d="M919.3,504.8c0,0-26.9,4.1-33,3c-0.8-0.1-1.3-1.8-0.5-2.1c2.8-1.1,12.2-1.9,12.2-1.9s-13,0.8-16.2,0.4
							c-0.8-0.1-0.9-1.6-0.3-1.9c3.4-1.9,14.5-2.5,14.5-2.5s-11.4,0.5-15.5,0.2c-1-0.1-1-1.7-0.2-2.1c4-1.9,14.8-2.4,14.8-3
							c0,0-9.5,0.9-13.4,0.5c-0.9-0.1-1.6-1.6-0.1-2.2c4.4-1.4,14.5-2.4,14.7-3.3c0.2-1.4-4-1.6-6.1-2.6c-1-0.5-1.5-1.2-1-1.9
							c1-1.5,16.7-1.6,28.4-4.4"/>
					</g>
					<g>
						<g>
							<path class="st8" d="M900.2,502.5c-0.2,0.2,0.1,0.3,0.2,0.1c1-1.5,2.1-3,3.6-4c0.7-0.5,1.6-0.9,2.4-1.2
								c0.4-0.2,0.9-0.2,1.3-0.3c0.5-0.1,0.9,0,1.3-0.1c0.1-0.1,0.2-0.2,0-0.3c-0.9-0.2-1.9,0-2.7,0.2c-0.9,0.3-1.7,0.8-2.5,1.3
								C902.4,499.3,901.1,500.9,900.2,502.5L900.2,502.5z"/>
						</g>
					</g>
					<g>
						<g>
							<path class="st8" d="M898.7,489.4c-0.2-0.1-0.4,0.2-0.1,0.2c1.4,0.7,2.9,1.2,4.4,1.3c0.8,0.1,1.6,0.2,2.3,0.1
								c0.8,0,1.6-0.1,2.3-0.4c0.2-0.1,0.2-0.3-0.1-0.3c-0.8,0-1.5,0.2-2.3,0.2c-0.7,0.1-1.5,0.1-2.2,0
								C901.7,490.4,900.1,490,898.7,489.4L898.7,489.4z"/>
						</g>
					</g>
				</g>
				<polyline class="st9" points="1032.7,645.8 1030.6,753.4 1065.3,753.4 1070.4,645.8 				"/>
				<g>
					<polygon class="st10" points="1066.2,748.3 1030.2,746.6 1030.2,757.2 1066,756.8 					"/>
					<path class="st11" d="M1066.2,753.4l21.5,11c1.5,0.8,2.4,2.3,2.4,4v4.1h-61.7l1.6-20.3L1066.2,753.4z"/>
					<line class="st12" x1="1090.1" y1="768.3" x2="1028.8" y2="768.3"/>
					<path class="st12" d="M1045.7,768.3c-4.7-11.1-16-12-16-12"/>
					<path class="st12" d="M1075.9,768.3c0.2-4.2,4.5-7.7,4.5-7.7"/>
					<polyline class="st13" points="1074.8,757.3 1072.4,760.3 1072.4,756.2 1068.2,758.5 1068.9,754.1 1064.6,756.5 					"/>
					<line class="st12" x1="1034.3" y1="750" x2="1034.5" y2="746.8"/>
					<line class="st12" x1="1040.7" y1="750.3" x2="1040.8" y2="747.1"/>
					<line class="st12" x1="1047.7" y1="750.6" x2="1047.9" y2="747.5"/>
					<line class="st12" x1="1054.2" y1="750.9" x2="1054.3" y2="747.7"/>
					<line class="st12" x1="1061.6" y1="751.3" x2="1061.7" y2="748.1"/>
				</g>
				<polyline class="st9" points="1021.4,645.8 1006.2,753.4 971.5,753.4 983.6,645.8 				"/>
				<g>
					<polygon class="st10" points="970.7,748.3 1007.4,746.6 1006.7,757.2 970.9,756.8 					"/>
					<path class="st11" d="M970.7,753.4l-21.5,11c-1.5,0.8-2.4,2.3-2.4,4v4.1h61.7l-1.4-20.3L970.7,753.4z"/>
					<line class="st14" x1="946.8" y1="768.3" x2="1008.1" y2="768.3"/>
					<path class="st14" d="M991.2,768.3c4.6-11.1,16.2-12,16.2-12"/>
					<path class="st14" d="M961,768.3c-0.2-4.2-4.5-7.7-4.5-7.7"/>
					<polyline class="st15" points="962,757.3 964.5,760.3 964.5,756.2 968.6,758.5 968,754.1 972.3,756.5 					"/>
					<line class="st14" x1="1002.6" y1="750" x2="1002.4" y2="746.8"/>
					<line class="st14" x1="996.1" y1="750.3" x2="996.1" y2="747.1"/>
					<line class="st14" x1="989.2" y1="750.6" x2="989" y2="747.5"/>
					<line class="st14" x1="982.7" y1="750.9" x2="982.6" y2="747.7"/>
					<line class="st14" x1="975.3" y1="751.3" x2="975.2" y2="748.1"/>
				</g>
				<path class="st16" d="M1027.4,538.2v204.2h47c0,0,6.1-152.3,3.2-198.9"/>
				<line class="st17" x1="1031.7" y1="538.2" x2="1031.7" y2="742.3"/>
				<path class="st16" d="M993.7,532.7c0,0-8.9,29.3-10.6,50.7c-1.1,14.6-14.8,159.1-14.8,159.1l0,0h48.9l19.6-196.6"/>
				<path class="st17" d="M999.2,532.6c0,0-8.5,24-10.6,50.7c-1.5,20.1-14.8,159.1-14.8,159.1"/>
				<path class="st17" d="M1036.9,545.7c-2.3,27.1-9.6,98.8-9.6,98.8"/>
				<rect x="1026.7" y="735.3" class="st18" width="48.2" height="8.2"/>
				<polygon class="st18" points="967.6,743.5 1018.1,743.5 1018.8,735.3 968.3,735.3 				"/>
				<path class="st17" d="M991.1,564.1c4.4-1.8,8-4.4,10.2-7.7c2.6-3.9,6.4-13.8,6.4-13.8"/>
				<path class="st17" d="M1068,543.8c0,0,1.3,11.7,2.9,16.1c1.6,4.4,7.4,8.3,7.4,8.3"/>
				<path class="st17" d="M1034.8,568.2c0,0,4.4-1.5,5.2-3.2c1.2-2.6,4.4-18.1,4.4-18.1"/>
				<g>
					<path class="st7" d="M1075.3,488.8c0,0,21.4,19.9,30.2,22.3c17.5,4.7,55.3,7.9,55.3,7.9l5.7-22.6c0,0-34.2-6.8-44.6-10.1
						c-10.5-3.3-34-23.9-34-23.9"/>
					<g>
						<path class="st7" d="M1151.6,518.2c0,0,26.9,4.1,33,3c0.8-0.1,1.3-1.8,0.5-2.1c-2.8-1.1-12.2-1.9-12.2-1.9s13,0.8,16.2,0.4
							c0.8-0.1,0.9-1.6,0.3-1.9c-3.4-1.9-14.5-2.5-14.5-2.5s11.4,0.5,15.5,0.2c1-0.1,1-1.7,0.2-2.1c-4-1.9-14.8-2.4-14.8-3
							c0,0,9.5,0.9,13.4,0.5c0.9-0.1,1.6-1.6,0.1-2.2c-4.4-1.4-14.5-2.4-14.7-3.3c-0.2-1.4,4-1.6,6.1-2.6c1-0.5,1.5-1.2,1-1.9
							c-1-1.5-16.7-1.6-28.4-4.4"/>
					</g>
					<g>
						<g>
							<path class="st8" d="M1170.6,516c0.1,0.1,0.3,0,0.2-0.1c-0.9-1.6-2.1-3.2-3.7-4.4c-0.8-0.5-1.6-1-2.5-1.3
								c-0.8-0.2-1.9-0.5-2.7-0.2c-0.2,0.1-0.2,0.3,0,0.3c0.5,0,0.9,0,1.4,0.1c0.5,0.1,0.9,0.2,1.3,0.3c0.9,0.3,1.6,0.7,2.3,1.2
								C1168.5,513.1,1169.5,514.5,1170.6,516L1170.6,516z"/>
						</g>
					</g>
					<g>
						<g>
							<path class="st8" d="M1172.4,503c0.2-0.1,0-0.4-0.1-0.2c-1.4,0.6-3,1-4.5,1.2c-0.8,0.1-1.5,0.1-2.3,0c-0.8,0-1.5-0.2-2.2-0.2
								c-0.2,0-0.2,0.2-0.1,0.3c0.7,0.2,1.6,0.3,2.3,0.4c0.8,0.1,1.6,0,2.3-0.1C1169.6,504.1,1171,503.7,1172.4,503L1172.4,503z"/>
						</g>
					</g>
				</g>
				<g>
					<path class="st19" d="M995.7,480.8l-6.4,66.4l90.3,1.3l-3.1-55.4l4.6,4.7l18.4-28.5c0,0-12.4-13.2-17.2-19.4
						c-4.9-6.2-11.4-9.7-19-9.2l-13.4-0.2l-28.7,1.2c-9.9-3.1-23.2-4.1-34.2-1.2c-6.4,1.6-11.7,12.5-11.7,12.5l13.7,30.1"/>
				</g>
				<g>
					<g>
						<g>
							<defs>
								<path id="SVGID_7_" d="M995.7,480.8l-6.4,66.4l90.3,1.3l-3.1-55.4l4.6,4.7l18.4-28.5c0,0-12.4-13.2-17.2-19.4
									c-4.9-6.2-11.4-9.7-19-9.2l-13.4-0.2l-28.7,1.2c-9.9-3.1-23.1-3.3-34.2-1.2c-6.1,1.1-11.7,12.5-11.7,12.5l13.7,30.1"/>
							</defs>
							<clipPath id="SVGID_3_">
								<use xlink:href="#SVGID_7_"  style="overflow:visible;"/>
							</clipPath>
							<g class="st20">
								<g>
									<g>
										<g>
											<g>
												<path class="st21" d="M1002.8,502.5c1.3,0.7,2.9,0.9,4.4,1.2c4.8,0.6,9.8,0.2,14.5-1.1c0.5-0.2,1.1-0.3,1.4-0.7
													c0.9-1,0-2.6-1.2-3.3c-1.2-0.6-2.6-0.7-3.7-1.4c-1.3-0.9-2.1-2.6-3.5-3.4c-1-0.5-2.3-0.6-3.5-0.6
													c-4.4,0-12.1-0.9-15.5,2.7c-2,2.6,3.3,4.3,4.8,5.3c0.3,0.2,0.6,0.5,0.9,0.6C1001.8,502.1,1002.3,502.4,1002.8,502.5z"/>
											</g>
											<g>
												<path class="st21" d="M1051.7,480.8c-1.7,0.2-6.8,1.5-6.8,3.9c0,0.6,0.4,1.2,0.6,1.7c0.2,0.5,0.4,1.3-0.1,1.7
													c-0.3,0.2-0.6,0.3-1,0.4c-2.6,0.5-5.1,1.5-7.5,2.7c-0.2,0.2-0.5,0.3-0.6,0.5c-0.2,0.4,0,0.8,0.2,1.1
													c0.9,1.6,2.6,2.5,4.4,2.9c1.7,0.4,3.6,0.5,5.3,1.2c1.3,0.5,2.5,1.2,3.8,1.7c1.6,0.5,3.4,0.5,5.2,0.5
													c3,0,6.4-0.1,8.6-2.2c0.6-0.6,1.2-1.4,1.9-1.9c1.4-0.9,3.2-1,4.8-1.3c1.6-0.3,3.4-1.3,3.7-3c0.2-1.8-1.6-3.2-3.2-3.9
													c-0.9-0.4-1.9-0.7-2.7-1.3c-0.9-0.7-1.3-1.7-2.2-2.5c-1.4-1.2-3.3-1.6-5.1-1.8c-1.9-0.2-3.7-0.4-5.6-0.5
													C1054.2,480.8,1052.9,480.8,1051.7,480.8z"/>
											</g>
											<g>
												<path class="st21" d="M1057.4,520.4c1.5,0.8,3.2,0.9,4.8,0.9c2.7,0,5.8-0.5,7.5-2.6c1-1.3,1.4-3.1,2.8-4
													c0.9-0.5,2.2-0.9,2.1-1.9c-0.1-0.8-1.1-1.2-1.9-1.4c-7-1.6-13.9-1.6-21-1.1c-2.5,0.2-4.7,4.1-2,5.6
													c0.9,0.5,1.8,0.6,2.7,1c1.7,0.8,2.8,2.4,4.4,3.4C1057,520.2,1057.1,520.3,1057.4,520.4z"/>
											</g>
											<g>
												<path class="st21" d="M1015.5,473.5c-1.3,0.2-2.8,0.7-3.4,1.9c-0.2,0.5-0.2,0.9-0.5,1.3c-0.5,0.6-1.4,0.8-1.9,1.3
													c-0.8,0.8-0.7,2.2-0.1,3c0.6,0.9,1.7,1.4,2.7,1.8c3.9,1.5,8.2,1.5,12.4,1.4c1.7-0.1,3.4-0.1,4.9-0.9
													c0.2-0.2,0.5-0.3,0.6-0.5c0.2-0.5,0-1.1,0.1-1.6c0.1-0.9,0.9-1.5,1.6-1.9c0.8-0.5,1.6-0.8,2.1-1.5
													c0.9-1.3-0.7-2.8-1.9-3.3c-2.2-0.9-4.7-0.8-7.1-0.9c-1.6-0.1-3-0.2-4.5-0.4C1018.9,473.3,1017.3,473.3,1015.5,473.5z"/>
											</g>
											<g>
												<path class="st21" d="M1026.1,511c4,0.9,9,0.5,12.4-2c1.1-0.9,2.1-2,2.1-3.4c-0.1-1.6-1.6-3-3.3-3
													c-1.7-0.1-3.3,0.9-5,1.2c-3,0.5-8.4-1.4-9,3C1023,508.5,1024.2,510.6,1026.1,511z"/>
											</g>
											<g>
												<path class="st21" d="M1006.2,529.4c1.1,0.8,1.9,1.9,3.1,2.6c2.2,1.3,4.8,1.1,7.3,0.8c1.6-0.2,3.1-0.5,4.5-1.2
													c1-0.5,1.9-1.3,2.7-2.1c1.3-1.2,2.6-2.5,4-3.7c0.3-0.2,0.6-0.6,0.6-1c0-0.5-0.5-0.9-1-1.1c-1.6-0.7-3.3-0.9-5-1
													c-3.3-0.3-6.8-0.5-10.1-0.5c-2.5-0.1-5.7-0.4-8.2,0.1c-2.8,0.5-3.7,3.5-1.3,5.3c0.8,0.6,1.8,0.9,2.7,1.5
													C1005.8,529.1,1006,529.2,1006.2,529.4z"/>
											</g>
											<g>
												<path class="st21" d="M1015.9,510.7c-1.9,0.1-3.4,1.6-3.5,3.5c-0.1,1.8,1.6,3.7,3.5,3.5c1.9-0.2,3.9-0.4,5.8-0.8
													c1.6-0.3,2.4-1.9,2.3-3.4c-0.2-1.4-1.6-2.9-3-2.7C1019.2,510.6,1017.7,510.6,1015.9,510.7z"/>
											</g>
											<g>
												<path class="st21" d="M987.2,511.8c0,0.4-0.1,0.8,0,1.2c-0.4,0.9-0.5,2-0.2,3.1c0.6,2.2,2.3,3.3,4.4,3.3
													c2.3-0.1,4.5,0.5,6.8,0.3c2.4-0.2,4.7-0.9,6.5-2.5c0.4-0.4,0.8-0.8,1-1.3c0.5-1.2-0.2-2.6-1.2-3.5
													c-1-0.9-2.3-1.4-3.3-2.1c-1.6-1.1-2.8-2.6-4.3-3.9c-2.6-2.2-5.3-2.2-8.2-0.6C986.5,507,986.1,509.8,987.2,511.8z"/>
											</g>
											<g>
												<path class="st21" d="M1043.6,539.8c1.1,0.2,2.2,0.4,3.3,0.4c3,0,6-1,8.9-2c2.8-1,5.1-2.4,7.5-4.2
													c1.8-1.3,1.2-3.5-0.7-4.2c-2.3-0.9-5.4,0-7.8,0.2c-2.9,0.3-5.7,0.3-8.5-0.1c-2.5-0.3-5-0.9-7.6-0.5
													c-0.5,0.1-1.1,0.2-1.6,0.6c-0.9,0.8-0.9,2.1-0.4,3.1c0.5,0.9,1.4,1.6,2.3,2.3c0.9,0.7,1.9,1.3,2.4,2.3
													c0.2,0.5,0.5,1.1,0.9,1.5c0.1,0.1,0.2,0.2,0.3,0.2C1042.8,539.7,1043.2,539.8,1043.6,539.8z"/>
											</g>
											<g>
												<path class="st21" d="M1071.8,536.8c-0.8,0.9-1.2,2.3-0.5,3.3c0.1,0.1,0.1,0.2,0.2,0.2c0.9,1.2,2.1,1.8,3.7,1.5
													c2.1-0.4,4.2-0.8,6.2-1.2c2.5-0.6,1.8-4.2-0.5-4.3c-1.9-0.1-3.8-0.2-5.7-0.7c-1-0.2-2.4,0-3.1,0.9
													C1072,536.5,1071.9,536.7,1071.8,536.8z"/>
											</g>
											<g>
												<path class="st21" d="M1034.8,550.2c1.3,0.7,2.6,1.2,4.2,0.8c0.7-0.2,1.2-0.4,2-0.5c1.8-0.2,3.5-0.5,5.2-0.9
													c3-0.5,3.1-5.7,0-6.1c-1.6-0.2-3.1-0.5-4.7-0.8c-2-0.4-3.7-1.4-5.7-0.6C1032.5,543.4,1031.2,548.4,1034.8,550.2z"/>
											</g>
											<g>
												<path class="st21" d="M990.6,539.5c-0.4,1.2-0.2,2.6,0.7,3.4c0.9,0.9,2.3,1.1,3.7,1.2c3,0.3,6.1,0.5,9.2,0.9
													c3.1,0.3,6.3,0.6,9.4,0c0.8-0.2,1.6-0.5,1.9-1.1c0.7-1.2-0.5-2.6-1.8-3.1c-1.2-0.5-2.8-0.7-3.7-1.7
													c-0.2-0.2-0.3-0.5-0.5-0.7c-0.3-0.3-0.7-0.4-1.1-0.5c-2.4-0.6-4.5-1.1-7-1.1c-2.3-0.1-5.4-1-7.7-0.4
													C992.4,536.8,991.3,537.6,990.6,539.5z"/>
											</g>
											<g>
												<path class="st21" d="M1049.1,467.2c-0.5,4.4,4.4,4.4,7.4,4.2c1.9-0.2,3.9-0.7,5.4-1.8c0.9-0.6,1.7-1.6,1.4-2.6
													c-0.3-0.9-1.2-1.3-2.1-1.6c-1.7-0.5-4.7-1.5-7.4-1.5C1051.5,463.8,1049.5,464.6,1049.1,467.2z"/>
											</g>
											<g>
												<path class="st21" d="M1044.6,465.1c0.4-0.3,0.7-0.8,0.7-1.3c-0.1-0.6-0.5-1-1.1-1.3c-2.2-1.2-5.1-1.1-6.4-3.1
													c-0.3-0.6-0.5-1.2-0.9-1.8c-1.1-1.5-3.3-1.4-5.1-1.3c-2.1,0.2-4.3,0.1-6.4-0.1c-1.9-0.2-4-0.9-5.8-0.7
													c-2.3,0.2-5.4,3.6-3.2,5.7c1.1,1.1,2.8,0.9,4,1.6s1.7,2.3,2.9,3.2c0.9,0.6,1.9,0.9,3,1c4.4,0.7,9,0.7,13.4,0
													c1.5-0.2,3-0.5,4.3-1.4C1044.2,465.4,1044.4,465.2,1044.6,465.1z"/>
											</g>
											<g>
												<path class="st21" d="M1007.2,466.2c-0.2-0.4-0.5-0.5-0.8-0.8c-3-2-5.8-3.8-8.6-6.1c-0.3-0.3-0.7-0.6-1.2-0.8
													c-0.6-0.2-1.3,0-2,0.1c-1.6,0.2-3.3-0.6-4.9-0.6c-0.5,0.1-0.9,0.1-1.2,0.3c-0.9,0.5-1.1,1.6-1.1,2.6c0.1,2,1,4,2.4,5.5
													c1.4,1.5,3.2,2.6,5,3.6c1.2,0.7,2.6,1.3,4,1.5c1.5,0.2,3-0.2,4-1.2c0.5-0.5,0.9-1.1,1.4-1.5c0.5-0.4,1.3-0.5,1.9-0.9
													C1006.8,467.6,1007.3,466.9,1007.2,466.2z"/>
											</g>
											<g>
												<path class="st21" d="M993.5,443.9c-0.2-2.1,0.2-5-1.4-6.7c-0.6-0.7-1.7-0.7-2.6-0.3c-2.3,1.2-2.5,4.9-2.7,7.1
													c-0.2,1.9,1.7,3.4,3.4,3.4C992,447.3,993.8,445.8,993.5,443.9z"/>
											</g>
											<g>
												<path class="st21" d="M969.9,465.8c0.5,2.2,0.9,4.1,2.9,5.4c1.6,1,4.6,0.1,4.9-2c0.1-0.5,0.1-1,0.1-1.5
													c2.6,0.2,5.4-3,3.8-5.8c-0.9-1.8-1.4-3.7-1.6-5.7c-0.1-2.3,0.2-4.4-0.8-6.5c-1-2.3-4.5-2-5.7,0
													c-1.3,2.3-1.1,5.5-0.9,8.2c0.1,0.2,0.1,0.2,0.1,0.4c-1.2,0-2.3,0.7-2.8,1.9C969.4,461.8,969.7,464,969.9,465.8z"/>
											</g>
											<g>
												<path class="st21" d="M1059.9,455c1.2-1.5,1.9-3.1,1.8-5c-0.2-1.6-2-2.5-3.3-1.3c-0.2,0.1-0.3,0.2-0.5,0.3
													c0,0-0.2,0.2-0.4,0.2s-0.5,0.2-0.7,0.3c0,0-0.3,0.2-0.4,0.2c-0.3,0.1-0.7,0.2-1,0.4c0,0-0.5,0.2-0.6,0.2h-0.1
													c-0.8,0.2-1.3,0.2-1.9,0.6c-1.2,0.7-1.8,2.1-1.6,3.4c0.2,1.4,1.1,2.3,2.4,2.8C1055.6,457.8,1058.5,456.5,1059.9,455z
													 M1054.7,450.1C1054.5,450.2,1054.5,450.2,1054.7,450.1L1054.7,450.1z"/>
											</g>
											<g>
												<path class="st21" d="M1072.4,465c1.3-0.5,2.4-1.3,3.4-2.3c2.2-2.2,3.7-5.1,3.7-8.2c0-0.5,0-1-0.2-1.4
													c-0.2-0.4-0.5-0.6-0.8-1c-1.2-1.6-0.2-3.9-0.5-5.9c-0.1-0.5-0.2-1-0.6-1.3c-0.5-0.5-1.4-0.5-2.1-0.2s-1.2,0.9-1.6,1.5
													c-2.3,2.8-3.8,6.1-6,9c-1.2,1.6-3.2,2.6-4.3,4.4s-0.8,4.8,1.3,5.7c0.9,0.4,1.9,0.3,2.9,0.3c1.1,0,2.3-0.1,3.3-0.2
													C1071.5,465.4,1072,465.2,1072.4,465z"/>
											</g>
											<g>
												<path class="st21" d="M1084.4,475.7c1.3-1.1,2.3-3,3.1-4.4c0.9-1.7,1.7-3.4,1.3-5.4c-0.4-1.6-2.3-2.2-3.6-1.5
													c-1.3,0.7-2,2.1-3,3.1c-1.1,1.2-2.2,1.8-3.2,2.9c-1.4,1.6-1.5,3.9,0,5.4C1080.6,477.3,1082.8,477,1084.4,475.7z"/>
											</g>
										</g>
										<g>
											<g>
												<path class="st22" d="M1052.9,499.4c1.4-0.3,3.2-0.8,3.8-2.2c0.5-1.3-0.2-3.1-1.5-3.6c-1.7-0.6-4.3-0.1-6.1-0.2
													c-2.4-0.1-4.9-0.3-7.2-0.9c-1.4-0.3-2.9-0.7-4.3-0.5c-0.6,0.1-1.2,0.3-1.6,0.8c-0.4,0.5-0.5,1.2-0.3,1.7
													c0.2,0.3,0.4,0.6,0.6,0.9c0.3,0.4,0.5,0.9,0.7,1.2s0.5,0.8,0.9,1.2C1041.4,502,1048.5,500.4,1052.9,499.4z"/>
											</g>
											<g>
												<path class="st22" d="M1034.2,481.1c0.9-0.8,0.7-2.3-0.4-2.9c-1.3-0.7-2.6-0.7-4-0.9c-1.4-0.2-2.9-0.4-4.3-0.3
													c-1.6,0.1-2.8,1.1-3,2.6c-0.2,1.4,0.7,3.2,2.2,3.4C1027.6,483.6,1032,483.2,1034.2,481.1z"/>
											</g>
											<g>
												<path class="st22" d="M1045,474.5c0.1-1.2-0.8-2-1.8-2.4c-0.5-0.2-0.9-0.3-1.5-0.3c-0.7,0-1.2,0.3-1.8,0.5
													c-0.8,0.3-1.2,1.2-1.2,2c0,0.9,0.5,1.5,1.2,2c0.4,0.3,0.8,0.5,1.2,0.6c0.6,0.2,1.3,0,1.9-0.1
													C1044.2,476.6,1044.9,475.5,1045,474.5z"/>
											</g>
											<g>
												<path class="st22" d="M1031.8,467.5c0.2-0.1,0.5-0.2,0.5-0.4c0.3-0.5-0.2-1-0.7-1.3c-1-0.6-2.1-1-3.3-1.3
													c-0.3-0.2-0.7-0.2-1-0.5c-0.2-0.2-0.3-0.5-0.5-0.9c-0.9-1.8-2.6-2.4-4.5-2.4c-2,0-4-0.5-6-1c-1.4-0.4-6.2,1.3-4.3,3.3
													c0.6,0.6,1.4,0.7,2.1,1.1c1.6,0.8,2.3,2.7,3.7,3.6c0.9,0.5,2.1,0.6,3.2,0.7c1.2,0.1,2.4,0.2,3.7,0.2
													C1027.2,468.6,1029.6,468.3,1031.8,467.5z"/>
											</g>
											<g>
												<path class="st22" d="M1052.6,467.9c-0.6,0.2-1.1,0.7-1.6,0.9c-0.5,0.2-1.1,0-1.6,0.2c-0.6,0.3-0.9,1.1-0.8,1.7
													c0.2,0.6,0.6,1.2,1.1,1.6c2.1,1.8,5.3,1.7,8.1,1.2c1.6-0.3,3.1-0.8,4.6-1.4c0.9-0.4,1.7-0.9,2.3-1.6
													c0.5-0.8,0.7-1.9,0.1-2.6c-0.6-0.8-1.9-0.9-3-0.8c-0.6,0-1.2,0-1.7,0C1057.5,467.1,1055,466.9,1052.6,467.9z"/>
											</g>
											<g>
												<path class="st22" d="M1005.5,503.7c0.6,0.2,1.2,0.4,1.8,0.8c0.5,0.3,0.8,0.7,1.2,1.1c2.4,2.2,6.3,2.2,8.9,0.5
													c1.6-1.1,2.9-2.7,4.6-3.6c0.5-0.3,1.3-0.6,1.4-1.2c0.2-0.9-1-1.5-1.9-1.6c-2.6-0.4-5.1-0.4-7.8-0.3
													c-4,0.1-8.3-0.5-12.2,0.8c-0.2,0.1-0.5,0.2-0.7,0.4c-0.3,0.3-0.2,0.9,0.1,1.2c0.2,0.3,0.6,0.5,1,0.7
													c0.7,0.4,1.5,0.7,2.2,0.9C1004.5,503.4,1004.9,503.5,1005.5,503.7z"/>
											</g>
											<g>
												<path class="st22" d="M1034.7,512.6c2.6-0.3,5.2-0.9,7.7-1.6c1.7-0.5,1.3-3-0.4-3c-2.6,0-5-0.2-7.6-0.4
													c-2.2-0.2-4.4-0.5-6.1,1.1c-0.8,0.8-0.6,1.9,0,2.6C1029.9,513.2,1032.5,512.8,1034.7,512.6z"/>
											</g>
											<g>
												<path class="st22" d="M1048.9,509.1c-1,0.6-1.7,1.9-1.3,3c0.4,1.1,1.5,1.6,2.5,2c1.4,0.6,2.8,1.2,4.2,1.8
													c1.4,0.6,2.9,1.2,4.4,1.2c2.2,0,4.1-1.2,6.2-1.6c1.7-0.5,3.6-0.4,5.2-1.2c3-1.4,3-5.2-0.6-5.7c-2.9,0-5.9-0.6-8.7-0.9
													c-2.7-0.3-5.7,0.4-8.5,0.6c-0.6,0-1.3,0.1-1.9,0.2C1049.8,508.6,1049.3,508.8,1048.9,509.1z"/>
											</g>
											<g>
												<path class="st22" d="M1066.8,525c1.9-0.5,3.9-1.1,5.7-1.7s1.6-3.3-0.5-3.4c-1.8-0.2-3.6-0.3-5.3-0.5
													c-1.4-0.2-2.6,0.1-3.3,1.3c-0.1,0.1-0.1,0.2-0.2,0.2c-0.6,1-0.3,2.2,0.4,3c0.1,0.1,0.2,0.2,0.2,0.2
													C1064.5,525,1065.8,525.1,1066.8,525z"/>
											</g>
											<g>
												<path class="st22" d="M1056.6,537.3c1.2,0.9,2.2,1.5,3.7,1.3c1.1-0.1,2.2-0.2,3.3-0.5c1.8-0.4,2.6-2.3,2.3-3.9
													c-0.4-1.8-2.3-2.6-3.9-2.3c-0.2,0-0.4,0.1-0.6,0.1c-0.1,0-0.1,0-0.2,0c-0.4,0.1-0.7,0.1-1,0.1c-1.2,0-2,0.2-3,0.9
													C1055.7,533.8,1055,536.1,1056.6,537.3z"/>
											</g>
											<g>
												<path class="st22" d="M1029.2,533.7c-1.1,0.9-0.8,2.5,0,3.4c1.2,1.4,3,1.2,4.6,1.2c1.3-0.1,2.4-1,2.6-2.3
													c0.2-1.2-0.6-2.6-1.9-2.8c-0.6-0.2-1.2-0.2-1.9-0.4C1031.3,532.6,1030.3,532.8,1029.2,533.7z"/>
											</g>
											<g>
												<path class="st22" d="M1010.8,521.6c-0.6-0.1-1.3,0-1.7,0.5c-0.6,0.8,0,1.9,0.7,2.6c3.3,3.4,8.5,5.3,13.2,4.7
													c0.9-0.2,1.6-0.4,2.1-0.9c1.6-0.2,3.3-0.6,4.7-1.3c2.2-1,1.5-4.4-0.6-4.9c-2.9-0.7-5.7-0.6-8.5-0.6c-1.1,0-2.3,0-3.4,0
													C1015.1,521.7,1013,521.6,1010.8,521.6z"/>
											</g>
											<g>
												<path class="st22" d="M1000.9,518.3c0.5-0.9,0.5-1.9-0.3-2.7c-0.2-0.3-0.5-0.5-0.8-0.7c-0.5-0.2-0.8-0.2-1.2-0.3
													c-0.2,0-0.3-0.1-0.4-0.1c-0.5-0.1-0.9-0.2-1.3-0.2c-1.2,0-2.3,0.9-2.6,2c-0.4,1.1,0.2,2.6,1.2,3.1
													c0.6,0.3,1.2,0.5,1.9,0.5c0.2,0,0.5-0.1,0.8-0.1c0.9-0.2,1.6-0.2,2.2-0.9C1000.5,518.8,1000.7,518.5,1000.9,518.3z"/>
											</g>
											<g>
												<path class="st22" d="M994.2,534.9c-1,1-1.3,2.1-0.9,3.5c0.3,1.2,1.3,2.3,2.5,2.5c3.9,0.9,7.5,1.1,11.5,0.3
													c2.6-0.5,2.4-4.4,0-5c-3.2-0.8-6.4-1.4-9.6-2.2C996.5,533.7,995.1,534,994.2,534.9z"/>
											</g>
											<g>
												<path class="st22" d="M996.1,471.2c1.5,0.1,3.2,0,3.8-1.3c0.1-0.2,0.2-0.3,0.1-0.5c-0.1-0.2-0.2-0.4-0.5-0.5
													c-3.2-1.9-7.1-2.6-9.5-5.4c-0.9-1-1.5-2.3-2.3-3.3c-0.2-0.2-0.3-0.4-0.5-0.5c-0.8-0.3-1.4,0.7-1.6,1.5
													c-0.1,0.2-0.2,0.5-0.2,0.7C984.4,468,990.9,471,996.1,471.2z"/>
											</g>
											<g>
												<path class="st22" d="M998.6,450.1c0.5-0.5,1-1.6,0.9-2.3c-0.1-0.5-0.1-0.9-0.2-1.3c-0.1-0.4-0.3-0.8-0.5-1.2
													s-0.3-0.7-0.5-1.1c-0.5-1-1.8-1.5-2.7-1.3c-1,0.2-2,0.9-2.3,1.9c-0.2,0.9-0.5,1.9-0.5,2.8c0.2,1.8,1.3,3.2,3.3,3.3
													C997.1,450.9,998,450.5,998.6,450.1z"/>
											</g>
											<g>
												<path class="st22" d="M975.3,448.7c-1.4,2.4-1.4,5.7,0,8.2c0.4,0.7,0.9,1.3,1.6,1.6c0.2,0.1,0.5,0.2,0.7,0.3
													c0.3,0.2,0.4,0.5,0.5,0.8c0.5,0.9,1.4,1.5,2.4,1.6c0.2,0.1,0.5,0,0.6-0.2c0.1-0.2,0-0.3,0-0.5c-0.3-1.6-0.6-3.4-0.5-5.1
													c0.2-2.6,1.5-5,1.1-7.5c-0.1-0.7-0.4-1.4-0.9-1.9c-1.2-1.2-2.7-0.5-3.9,0.5C976.2,447.2,975.6,448,975.3,448.7z"/>
											</g>
											<g>
												<path class="st22" d="M1075.3,452.5c1-1.6-1-3.3-2.5-2.5c-3.7,2-7.3,4-11,6.1c-3.7,1.9-1.1,8.4,2.9,6.8
													C1069.4,461,1072.6,456.6,1075.3,452.5z"/>
											</g>
											<g>
												<path class="st22" d="M1060.9,446.8c-0.1-1-0.5-1.9-1.6-2.3c-0.9-0.4-2-0.2-2.8,0.5c-0.2,0.2-0.4,0.4-0.6,0.5
													c-0.2,0.2-0.3,0.4-0.5,0.5c-0.2,0.4-0.3,0.4-0.1,0.2c0.2-0.2,0.2-0.2,0.1-0.1c-1,1.1-1.5,2.4-1,3.8
													c0.2,0.7,0.7,1.3,1.3,1.7c0.7,0.5,1.5,0.5,2.3,0.3C1060.5,451.6,1061.2,449,1060.9,446.8z"/>
											</g>
											<g>
												<path class="st22" d="M1079.8,465.6c-1.2,1-1.2,3-0.2,4.2c1,1.3,2.6,1.6,4.1,0.9c2.1-1,3.1-3.7,2.9-5.9
													c-0.1-1.1-0.7-1.9-1.8-2.3c-0.9-0.3-2.3,0.2-2.7,1.1c-0.1,0.2-0.2,0.3-0.2,0.5c-0.1,0.1-0.1,0.2-0.1,0.2
													c-0.1,0.1-0.2,0.2-0.3,0.2c-0.1,0-0.1,0-0.1,0c-0.2,0.2-0.4,0.3-0.6,0.5c0.1-0.1-0.9,0.6-0.3,0.2
													C1081.1,464.7,1080.1,465.4,1079.8,465.6z"/>
											</g>
										</g>
									</g>
									<polygon class="st22" points="1015.9,490.1 1012.3,491.1 1011.3,487.5 									"/>
									<polygon class="st22" points="1000.3,531.6 996.7,532.6 995.7,528.9 									"/>
									<polygon class="st22" points="987.7,472.6 985.4,475.5 982.5,473.3 									"/>
									<polygon class="st22" points="1068.1,503.5 1064.4,504.5 1063.4,501 									"/>
									<polygon class="st22" points="1065.7,542.6 1064.4,546.1 1060.9,544.8 									"/>
									<polygon class="st22" points="1063.9,476.8 1067.3,475.2 1068.9,478.6 									"/>
									<polygon class="st22" points="1011.6,449.8 1015,448.3 1016.6,451.6 									"/>
									<polygon class="st21" points="1029.6,491.6 1029.2,495.3 1025.5,494.9 									"/>
									<polygon class="st21" points="989.6,453.6 985.9,453.7 985.7,450 									"/>
									<polygon class="st21" points="1034.4,471.8 1033,468.4 1036.4,467 									"/>
									<polygon class="st21" points="1082.5,489.1 1079.9,486.3 1082.6,483.8 									"/>
									<polygon class="st21" points="1038.3,521.6 1040.5,518.5 1043.5,520.7 									"/>
									<polygon class="st21" points="1071,530.6 1074.7,529.9 1075.3,533.6 									"/>
									<polygon class="st21" points="1019.1,543.4 1019.2,539.6 1023,539.6 									"/>
								</g>
							</g>
						</g>
					</g>
				</g>
				<path class="st17" d="M999.3,478.6c5-5.9,9.2-19.9,7.8-36.2"/>
				<path class="st17" d="M1076.5,493.3c-0.8-11.3-1.2-19.8-3.3-29.8"/>
				<path class="st17" d="M1017.2,441.6c0.7,2.6,2.3,4.7,4.4,6.2"/>
				<path class="st17" d="M1025.6,449.9c6.1,2.5,13.3,2.8,19.4,0.9c4-1.2,7.7-4.3,9.1-8.6"/>
				<path class="st17" d="M1003.3,483.2c-1.5-2.4-7.6-2.4-7.6-2.4"/>
				<g>
					<path class="st7" d="M1048.2,420.1c0.4,0.9,1.3,1.6,2.3,1.7c1,0.2,2-0.2,2.6-0.9c0.9-1,1-2.6,0.9-3.9c-0.1-0.8-0.2-1.5-0.5-2.1
						c-0.4-0.6-0.9-1.2-1.6-1.3c-0.7-0.2-1.6,0.2-1.9,0.8"/>
				</g>
				<path class="st23" d="M1045.4,415.8l0.9-0.6c0.5-0.4,1.2-0.6,1.9-0.6h4.5"/>
				<g>
					<path class="st7" d="M1021.9,415c0.5,3.3,2,6.6,3.3,9.6c1.1,2.8,2.6,5.7,5.2,7.5c4.8,3.4,15.5,2.6,18.7-2.2
						c2.4-3.4,3.1-6.8,2.6-10.9c-0.5-4.1-1.9-9.2-1.9-9.2c-0.5-3-1.2-5.4-1.5-5.8c-0.3-0.4-0.8-0.6-1.2-0.8
						c-7.5-2.8-16.8-3-23.1,2.7c-0.9,0.8-1.6,1.6-2,2.7C1021.3,410.6,1021.5,413.2,1021.9,415z"/>
				</g>
				<path class="st7" d="M1047.1,426.4l2.6,14.3c0,0-0.6,6.6-12.4,6.6c-12,0-16.3-5.4-16.3-5.4l1.7-17.5"/>
				<path class="st8" d="M1035.2,416c-0.7,0-1.2,0.5-1.2,1.2s0.5,1.2,1.2,1.2c0.7,0,1.2-0.5,1.2-1.2
					C1036.4,416.5,1035.8,416,1035.2,416z"/>
				<circle class="st8" cx="1047.9" cy="415.6" r="1.2"/>
				<g>
					<g>
						<path class="st8" d="M1044.1,419.1c0-0.1-0.2,0-0.2,0c0.2,0.2,0.2,0.4,0.3,0.6c0.4,0.9,0.7,1.7,0.9,2.6c0.1,0.3,0.2,0.8,0,0.9
							c-0.2,0.2-0.5,0.2-0.8,0.2c-0.4,0-0.7,0-1.1,0c-0.2,0-0.3,0.4-0.1,0.4c0.5,0.1,0.9,0.1,1.3,0.1c0.3,0,0.7-0.1,0.9-0.3
							c0.2-0.2,0.2-0.7,0.1-1.1c-0.1-0.5-0.2-1-0.5-1.5C1044.8,420.3,1044.5,419.7,1044.1,419.1L1044.1,419.1z"/>
					</g>
				</g>
				<g>
					<path class="st10" d="M1045.6,426c-0.1,1-0.2,2-0.7,2.8c-1.2,1.6-3.3,1.1-3.9-0.9c-0.2-0.7-0.2-1.5-0.2-2.2L1045.6,426z"/>
				</g>
				<path class="st24" d="M1037,414.3c-1.3-1.2-3.8-0.8-4.9,0.9"/>
				<path class="st24" d="M1049.8,413.2c-0.9-1-2.6-1-3.7,0.2"/>
				<path class="st25" d="M1047.8,431.8c-4.6,3-10.5,3-15.2,0"/>
				<g>
					<path class="st8" d="M1017,408.8c-0.5,2.6-0.6,6.6,0.8,8.9c1.7,2.9,2.8,4.4,5.4,5.4c2.3-1.9,3-5.7,1.4-8.4
						c3.3,0.2,6.4-1.3,6.8-4.9c0.1-0.3,0.2-2,0-2.1c1.3,1,2.5,1.2,3.9,1.2c1.4,0,2.9-0.9,3-2.3c3.3,1.6,7.3,2,10.9,0.9
						c4.3-1.3,7.1-5.7,6.2-10.3c-0.6-3-3-5.5-5.9-6.4c-3.7-1.2-7.6,0.2-10.7,2.4c-3.2-2.2-7.5-2.5-11-0.7c-3.3,1.8-5.6,5.6-5.5,9.4
						C1019.5,402.9,1017.4,406.2,1017,408.8z"/>
				</g>
				<path class="st23" d="M1048.4,409.8c2.5,0,4.4,2.3,4.4,5s-2,5-4.4,5c-2.5,0-4.4-2.3-4.4-5S1045.9,409.8,1048.4,409.8z"/>
				<path class="st23" d="M1034.5,412.3c2.8,0,5,2.3,5,5c0,2.8-2.3,5-5,5c-2.8,0-5-2.3-5-5C1029.4,414.6,1031.7,412.3,1034.5,412.3z
					"/>
				<path class="st23" d="M1022.1,419.1l0.9-0.6c0.5-0.4,1.2-0.6,1.9-0.6h4.5"/>
				<g>
					<g>
						<path class="st7" d="M1027.6,425c-0.7,1.1-2,1.6-3.3,1.5c-1.2-0.2-2.3-1-3-2.1c-0.6-1.1-0.8-2.4-0.6-3.7
							c0.5-3,2.9-3.6,5.3-2.3"/>
					</g>
					<g>
						<g>
							<path class="st8" d="M1022.3,420.2C1022.2,420.2,1022.3,420.2,1022.3,420.2c0.1,0,0.2,0,0.2,0.1c0.1-0.1,0.1-0.1,0.2-0.2
								s0.2-0.2,0.2-0.2c0.2-0.2,0.3-0.2,0.5-0.2c0.7,0,1.3,0.6,1.6,1.2c0.2,0.4,0.2,0.9,0.2,1.4c0,0.6-0.2,1.2-0.4,1.7
								c-0.1,0.2,0.2,0.3,0.3,0.2c0.4-0.7,0.5-1.4,0.5-2.2c-0.1-0.5-0.2-1-0.4-1.4c-0.2-0.3-0.5-0.6-0.9-0.9
								c-0.3-0.2-0.8-0.4-1.2-0.3c-0.2,0-0.4,0.1-0.5,0.2c-0.1,0.1-0.2,0.2-0.2,0.2c0,0.1-0.1,0.1-0.1,0.2
								C1022.3,420,1022.3,420.1,1022.3,420.2L1022.3,420.2z"/>
						</g>
					</g>
					<g>
						<g>
							<path class="st8" d="M1023.4,426.2c-0.1-0.1-0.2,0.1,0,0.2c0.2,0.2,0.6,0.3,0.9,0.4c0.3,0.1,0.7,0.1,1,0c0.3,0,0.7-0.2,1-0.3
								c0.1-0.1,0.2-0.2,0.4-0.3c0.2-0.1,0.2-0.2,0.3-0.4c0.1-0.2-0.1-0.2-0.2-0.2c-0.5,0.4-1,0.8-1.6,0.9c-0.3,0.1-0.6,0.1-0.9,0
								c-0.2,0-0.3,0-0.5-0.1C1023.7,426.3,1023.6,426.2,1023.4,426.2L1023.4,426.2z"/>
						</g>
					</g>
				</g>
				<path class="st23" d="M1039.6,416c2-0.6,4.4-0.4,4.4-0.4"/>
			</g>
		</g>
	</g>
</g>
<path class="st0" d="M382.2,832.7h-630v-61c0-11.9,9.7-21.6,21.6-21.6h586.8c11.9,0,21.6,9.7,21.6,21.6L382.2,832.7L382.2,832.7z"/>
<g>
	<g class="st26">
		<path class="st10" d="M1132.2,547.8c0,1.5-0.2,2.8-0.5,3.6c-0.3,0.9-0.9,1.8-1.8,2.8l-1.9,2c-1.1,1.2-1.7,2.5-1.7,3.8
			c0,1.2,0.3,2,0.9,2.6c0.6,0.6,1.5,0.9,2.6,0.9c1.1,0,2-0.3,2.6-0.9c0.7-0.6,1-1.4,1-2.5h4.5c0,2.2-0.8,3.9-2.3,5.2
			c-1.5,1.3-3.4,1.9-5.8,1.9c-2.5,0-4.5-0.6-5.9-1.9c-1.4-1.2-2.1-3-2.1-5.3c0-2,1-4.1,2.9-6.1l1.7-1.7c1-0.9,1.5-2,1.6-3.5v-1h4.2
			V547.8z M1132.6,542.1c0,0.7-0.2,1.3-0.7,1.7c-0.4,0.5-1.1,0.7-1.9,0.7s-1.4-0.2-1.9-0.7s-0.7-1-0.7-1.7s0.2-1.2,0.7-1.7
			s1.1-0.7,1.9-0.7s1.4,0.2,1.9,0.7C1132.4,540.8,1132.6,541.4,1132.6,542.1z"/>
		<path class="st10" d="M1162.4,551.3c-0.3,2.9-1.3,5.1-3.2,6.7c-1.9,1.6-4.3,2.4-7.4,2.4c-2.2,0-4-0.5-5.7-1.5
			c-1.6-1-2.9-2.5-3.8-4.4c-0.9-1.9-1.4-4.1-1.4-6.5v-2.5c0-2.5,0.5-4.8,1.4-6.7s2.2-3.4,3.9-4.5c1.7-1.1,3.6-1.6,5.9-1.6
			c3,0,5.4,0.8,7.2,2.4c1.8,1.6,2.9,3.9,3.2,6.9h-4.7c-0.2-1.9-0.8-3.3-1.7-4.2c-0.9-0.9-2.2-1.3-4-1.3c-2,0-3.6,0.7-4.7,2.2
			s-1.7,3.7-1.7,6.6v2.4c0,2.9,0.5,5.2,1.6,6.7c1,1.5,2.6,2.3,4.6,2.3c1.8,0,3.2-0.4,4.2-1.2c0.9-0.8,1.5-2.2,1.8-4.1L1162.4,551.3
			L1162.4,551.3z"/>
		<path class="st10" d="M1178.3,558.2c-1.3,1.6-3.2,2.3-5.6,2.3c-2.2,0-3.8-0.6-4.9-1.9s-1.7-3.1-1.7-5.5v-13h4.5v13
			c0,2.5,1.1,3.8,3.2,3.8c2.2,0,3.7-0.8,4.4-2.4v-14.4h4.5v20.1h-4.2L1178.3,558.2z"/>
		<path class="st10" d="M1199.2,560.1c-0.2-0.4-0.4-1-0.5-1.9c-1.4,1.5-3.2,2.2-5.3,2.2c-2,0-3.7-0.6-4.9-1.7
			c-1.3-1.2-1.9-2.6-1.9-4.3c0-2.1,0.8-3.8,2.4-4.9c1.6-1.1,3.9-1.7,6.8-1.7h2.8v-1.3c0-1-0.3-1.9-0.9-2.5c-0.6-0.6-1.5-0.9-2.7-0.9
			c-1,0-1.9,0.3-2.5,0.8c-0.7,0.5-1,1.2-1,2h-4.5c0-1.1,0.4-2.1,1.1-3.1c0.7-1,1.7-1.7,3-2.3c1.3-0.5,2.7-0.8,4.2-0.8
			c2.4,0,4.2,0.6,5.6,1.8s2.1,2.8,2.2,5v9.1c0,1.8,0.3,3.2,0.8,4.3v0.3L1199.2,560.1L1199.2,560.1z M1194.3,556.9
			c0.9,0,1.7-0.2,2.5-0.6c0.8-0.4,1.4-1,1.8-1.7v-3.8h-2.4c-1.7,0-2.9,0.3-3.8,0.9c-0.8,0.6-1.3,1.4-1.3,2.5c0,0.9,0.3,1.6,0.9,2.1
			C1192.5,556.6,1193.3,556.9,1194.3,556.9z M1196.8,531.6h5.1l-5.1,5.6h-3.6L1196.8,531.6z"/>
		<path class="st10" d="M1212.6,560.1h-4.5v-28.5h4.5V560.1z"/>
		<path class="st10" d="M1235.8,560.5c-2.9,0-5.2-0.9-6.9-2.7c-1.8-1.8-2.7-4.2-2.7-7.2V550c0-2,0.4-3.8,1.2-5.4
			c0.8-1.6,1.9-2.8,3.3-3.7c1.4-0.9,3-1.3,4.7-1.3c2.7,0,4.8,0.9,6.3,2.6s2.2,4.2,2.2,7.4v1.8h-13.1c0.1,1.7,0.7,3,1.7,3.9
			c1,1,2.2,1.4,3.7,1.4c2.1,0,3.7-0.8,5-2.5l2.4,2.3c-0.8,1.2-1.9,2.1-3.2,2.8C1239,560.2,1237.5,560.5,1235.8,560.5z M1235.3,543.3
			c-1.2,0-2.2,0.4-3,1.3c-0.8,0.9-1.2,2.1-1.5,3.6h8.6v-0.3c-0.1-1.5-0.5-2.7-1.2-3.4C1237.5,543.7,1236.5,543.3,1235.3,543.3z"/>
		<path class="st10" d="M1258.6,554.7c0-0.8-0.3-1.4-1-1.8c-0.7-0.4-1.8-0.8-3.3-1.1c-1.5-0.3-2.8-0.7-3.8-1.2
			c-2.3-1.1-3.4-2.7-3.4-4.7c0-1.7,0.7-3.2,2.2-4.3c1.5-1.2,3.3-1.7,5.6-1.7c2.4,0,4.3,0.6,5.8,1.8c1.5,1.2,2.2,2.7,2.2,4.6h-4.5
			c0-0.9-0.3-1.6-1-2.2c-0.6-0.6-1.5-0.9-2.6-0.9c-1,0-1.8,0.2-2.4,0.7s-0.9,1.1-0.9,1.8c0,0.7,0.3,1.2,0.9,1.6
			c0.6,0.4,1.8,0.8,3.5,1.2c1.8,0.4,3.2,0.9,4.2,1.4s1.8,1.2,2.2,1.9c0.5,0.8,0.7,1.7,0.7,2.7c0,1.8-0.7,3.3-2.2,4.4
			c-1.5,1.1-3.5,1.7-5.9,1.7c-1.6,0-3.1-0.3-4.4-0.9c-1.3-0.6-2.3-1.4-3-2.4c-0.7-1-1.1-2.2-1.1-3.4h4.4c0.1,1.1,0.5,1.9,1.2,2.5
			c0.7,0.6,1.7,0.9,3,0.9c1.2,0,2.1-0.2,2.7-0.7C1258.3,556,1258.6,555.4,1258.6,554.7z"/>
		<path class="st10" d="M1281.2,560.1h-4.5v-28.5h4.5V560.1z"/>
		<path class="st10" d="M1298.1,560.1c-0.2-0.4-0.4-1-0.5-1.9c-1.4,1.5-3.2,2.2-5.3,2.2c-2,0-3.7-0.6-4.9-1.7
			c-1.3-1.2-1.9-2.6-1.9-4.3c0-2.1,0.8-3.8,2.4-4.9c1.6-1.1,3.9-1.7,6.8-1.7h2.8v-1.3c0-1-0.3-1.9-0.9-2.5c-0.6-0.6-1.5-0.9-2.7-0.9
			c-1,0-1.9,0.3-2.5,0.8c-0.7,0.5-1,1.2-1,2h-4.5c0-1.1,0.4-2.1,1.1-3.1c0.7-1,1.7-1.7,3-2.3c1.3-0.5,2.7-0.8,4.2-0.8
			c2.4,0,4.2,0.6,5.6,1.8s2.1,2.8,2.2,5v9.1c0,1.8,0.3,3.2,0.8,4.3v0.3L1298.1,560.1L1298.1,560.1z M1293.2,556.9
			c0.9,0,1.7-0.2,2.5-0.6c0.8-0.4,1.4-1,1.8-1.7v-3.8h-2.5c-1.7,0-2.9,0.3-3.8,0.9c-0.8,0.6-1.3,1.4-1.3,2.5c0,0.9,0.3,1.6,0.9,2.1
			C1291.4,556.6,1292.2,556.9,1293.2,556.9z"/>
		<path class="st10" d="M1328.1,560.1c-0.2-0.4-0.4-1-0.5-1.9c-1.4,1.5-3.2,2.2-5.3,2.2c-2,0-3.7-0.6-4.9-1.7
			c-1.3-1.2-1.9-2.6-1.9-4.3c0-2.1,0.8-3.8,2.4-4.9c1.6-1.1,3.9-1.7,6.8-1.7h2.8v-1.3c0-1-0.3-1.9-0.9-2.5c-0.6-0.6-1.5-0.9-2.7-0.9
			c-1,0-1.9,0.3-2.5,0.8c-0.7,0.5-1,1.2-1,2h-4.5c0-1.1,0.4-2.1,1.1-3.1c0.7-1,1.7-1.7,3-2.3c1.3-0.5,2.7-0.8,4.2-0.8
			c2.4,0,4.2,0.6,5.6,1.8s2.1,2.8,2.2,5v9.1c0,1.8,0.3,3.2,0.8,4.3v0.3L1328.1,560.1L1328.1,560.1z M1323.2,556.9
			c0.9,0,1.7-0.2,2.5-0.6c0.8-0.4,1.4-1,1.8-1.7v-3.8h-2.5c-1.7,0-2.9,0.3-3.8,0.9c-0.8,0.6-1.3,1.4-1.3,2.5c0,0.9,0.3,1.6,0.9,2.1
			C1321.5,556.6,1322.2,556.9,1323.2,556.9z"/>
		<path class="st10" d="M1335.9,549.9c0-3.1,0.7-5.6,2.2-7.5c1.5-1.9,3.4-2.8,5.8-2.8c2.3,0,4.1,0.8,5.4,2.4l0.2-2h4.1v19.5
			c0,2.6-0.8,4.7-2.5,6.2c-1.6,1.5-3.9,2.3-6.6,2.3c-1.5,0-2.9-0.3-4.3-0.9c-1.4-0.6-2.5-1.4-3.2-2.4l2.1-2.7
			c1.4,1.6,3.1,2.5,5.1,2.5c1.5,0,2.7-0.4,3.5-1.2c0.9-0.8,1.3-2,1.3-3.6v-1.4c-1.3,1.4-3,2.2-5.2,2.2c-2.4,0-4.3-0.9-5.8-2.8
			C1336.7,555.8,1335.9,553.2,1335.9,549.9z M1340.4,550.3c0,2,0.4,3.6,1.2,4.8c0.8,1.2,2,1.7,3.4,1.7c1.8,0,3.2-0.8,4-2.3v-8.8
			c-0.9-1.5-2.2-2.3-4-2.3c-1.5,0-2.6,0.6-3.5,1.8C1340.8,546.3,1340.4,548,1340.4,550.3z"/>
		<path class="st10" d="M1367.1,560.5c-2.9,0-5.2-0.9-6.9-2.7c-1.8-1.8-2.7-4.2-2.7-7.2V550c0-2,0.4-3.8,1.2-5.4
			c0.8-1.6,1.9-2.8,3.3-3.7s3-1.3,4.7-1.3c2.7,0,4.8,0.9,6.3,2.6s2.2,4.2,2.2,7.4v1.8H1362c0.1,1.7,0.7,3,1.7,3.9
			c1,1,2.2,1.4,3.7,1.4c2.1,0,3.7-0.8,5-2.5l2.4,2.3c-0.8,1.2-1.9,2.1-3.2,2.8C1370.3,560.2,1368.8,560.5,1367.1,560.5z
			 M1366.6,543.3c-1.2,0-2.2,0.4-3,1.3c-0.8,0.9-1.2,2.1-1.5,3.6h8.6v-0.3c-0.1-1.5-0.5-2.7-1.2-3.4
			C1368.8,543.7,1367.8,543.3,1366.6,543.3z"/>
		<path class="st10" d="M1382.8,540l0.1,2.3c1.5-1.8,3.4-2.7,5.8-2.7c4.2,0,6.3,2.4,6.4,7.2v13.3h-4.5v-13c0-1.3-0.3-2.2-0.8-2.8
			c-0.6-0.6-1.5-0.9-2.7-0.9c-1.8,0-3.2,0.8-4.1,2.5v14.3h-4.5v-20.1L1382.8,540L1382.8,540z"/>
		<path class="st10" d="M1398.9,549.9c0-3.1,0.7-5.6,2.2-7.5c1.4-1.9,3.4-2.8,5.8-2.8c2.1,0,3.8,0.7,5.2,2.2v-10.3h4.5V560h-4.1
			l-0.2-2.1c-1.3,1.6-3.1,2.4-5.4,2.4c-2.4,0-4.3-0.9-5.7-2.8C1399.8,555.6,1398.9,553.2,1398.9,549.9z M1403.4,550.3
			c0,2,0.4,3.6,1.2,4.8c0.8,1.1,1.9,1.7,3.3,1.7c1.8,0,3.2-0.8,4-2.5v-8.6c-0.8-1.6-2.2-2.4-4-2.4c-1.5,0-2.6,0.6-3.4,1.7
			C1403.8,546.3,1403.4,548,1403.4,550.3z"/>
		<path class="st10" d="M1433.2,560.1c-0.2-0.4-0.4-1-0.5-1.9c-1.4,1.5-3.2,2.2-5.3,2.2c-2,0-3.7-0.6-4.9-1.7
			c-1.3-1.2-1.9-2.6-1.9-4.3c0-2.1,0.8-3.8,2.4-4.9c1.6-1.1,3.9-1.7,6.8-1.7h2.8v-1.3c0-1-0.3-1.9-0.9-2.5c-0.6-0.6-1.5-0.9-2.7-0.9
			c-1,0-1.9,0.3-2.5,0.8c-0.7,0.5-1,1.2-1,2h-4.5c0-1.1,0.4-2.1,1.1-3.1c0.7-1,1.7-1.7,3-2.3c1.3-0.5,2.7-0.8,4.2-0.8
			c2.3,0,4.2,0.6,5.6,1.8s2.1,2.8,2.2,5v9.1c0,1.8,0.3,3.2,0.8,4.3v0.3L1433.2,560.1L1433.2,560.1z M1428.3,556.9
			c0.9,0,1.7-0.2,2.5-0.6c0.8-0.4,1.4-1,1.8-1.7v-3.8h-2.4c-1.7,0-2.9,0.3-3.8,0.9c-0.8,0.6-1.3,1.4-1.3,2.5c0,0.9,0.3,1.6,0.9,2.1
			C1426.5,556.6,1427.3,556.9,1428.3,556.9z"/>
		<path class="st10" d="M1450.4,549.9c0-3.1,0.7-5.6,2.2-7.5c1.4-1.9,3.4-2.8,5.8-2.8c2.1,0,3.8,0.7,5.2,2.2v-10.3h4.5V560h-4.1
			l-0.2-2.1c-1.3,1.6-3.1,2.4-5.4,2.4c-2.4,0-4.3-0.9-5.7-2.8C1451.3,555.6,1450.4,553.2,1450.4,549.9z M1454.9,550.3
			c0,2,0.4,3.6,1.2,4.8c0.8,1.1,1.9,1.7,3.3,1.7c1.8,0,3.2-0.8,4-2.5v-8.6c-0.8-1.6-2.2-2.4-4-2.4c-1.5,0-2.6,0.6-3.4,1.7
			C1455.3,546.3,1454.9,548,1454.9,550.3z"/>
		<path class="st10" d="M1481.5,560.5c-2.9,0-5.2-0.9-6.9-2.7c-1.8-1.8-2.7-4.2-2.7-7.2V550c0-2,0.4-3.8,1.2-5.4
			c0.8-1.6,1.9-2.8,3.3-3.7s3-1.3,4.7-1.3c2.7,0,4.8,0.9,6.3,2.6s2.2,4.2,2.2,7.4v1.8h-13.1c0.1,1.7,0.7,3,1.7,3.9
			c1,0.9,2.2,1.4,3.7,1.4c2.1,0,3.7-0.8,5-2.5l2.4,2.3c-0.8,1.2-1.9,2.1-3.2,2.8C1484.7,560.2,1483.2,560.5,1481.5,560.5z
			 M1481,543.3c-1.2,0-2.2,0.4-3,1.3c-0.8,0.9-1.2,2.1-1.5,3.6h8.6v-0.3c-0.1-1.5-0.5-2.7-1.2-3.4
			C1483.2,543.7,1482.3,543.3,1481,543.3z"/>
		<path class="st10" d="M1497.9,560.1h-4.5v-28.5h4.5V560.1z"/>
		<path class="st10" d="M1520.5,556.9c1.1,0,2.1-0.3,2.8-1c0.7-0.7,1.1-1.5,1.2-2.4h4.2c0,1.3-0.4,2.4-1.2,3.5
			c-0.7,1.1-1.7,1.9-3,2.6c-1.3,0.6-2.6,0.9-4,0.9c-2.8,0-5-0.9-6.7-2.7c-1.6-1.8-2.5-4.3-2.5-7.5v-0.5c0-3.1,0.8-5.5,2.4-7.3
			c1.6-1.8,3.9-2.8,6.7-2.8c2.4,0,4.3,0.7,5.8,2.1c1.5,1.4,2.3,3.2,2.4,5.5h-4.2c0-1.2-0.4-2.1-1.2-2.8c-0.8-0.7-1.7-1.1-2.8-1.1
			c-1.5,0-2.6,0.5-3.4,1.6c-0.8,1.1-1.2,2.7-1.2,4.8v0.7c0,2.2,0.4,3.8,1.2,4.9C1517.9,556.4,1519,556.9,1520.5,556.9z"/>
		<path class="st10" d="M1544.3,558.2c-1.3,1.6-3.2,2.3-5.6,2.3c-2.2,0-3.8-0.6-4.9-1.9c-1.1-1.3-1.7-3.1-1.7-5.5v-13h4.5v13
			c0,2.5,1.1,3.8,3.2,3.8c2.2,0,3.7-0.8,4.4-2.4v-14.4h4.5v20.1h-4.2L1544.3,558.2z"/>
		<path class="st10" d="M1563.8,544.2c-0.6-0.1-1.2-0.1-1.8-0.1c-2.1,0-3.5,0.8-4.2,2.4v13.7h-4.5v-20.1h4.3l0.1,2.2
			c1.1-1.7,2.6-2.6,4.5-2.6c0.6,0,1.2,0.1,1.6,0.3V544.2z"/>
		<path class="st10" d="M1577.9,554.7c0-0.8-0.3-1.4-1-1.8c-0.7-0.4-1.8-0.8-3.3-1.1c-1.5-0.3-2.8-0.7-3.8-1.2
			c-2.3-1.1-3.4-2.7-3.4-4.7c0-1.7,0.7-3.2,2.2-4.3c1.5-1.2,3.3-1.7,5.6-1.7c2.4,0,4.3,0.6,5.8,1.8c1.5,1.2,2.2,2.7,2.2,4.6h-4.5
			c0-0.9-0.3-1.6-1-2.2c-0.6-0.6-1.5-0.9-2.6-0.9c-1,0-1.8,0.2-2.4,0.7s-0.9,1.1-0.9,1.8c0,0.7,0.3,1.2,0.9,1.6
			c0.6,0.4,1.8,0.8,3.5,1.2c1.8,0.4,3.2,0.9,4.2,1.4s1.8,1.2,2.2,1.9c0.5,0.8,0.7,1.7,0.7,2.7c0,1.8-0.7,3.3-2.2,4.4
			c-1.5,1.1-3.5,1.7-5.9,1.7c-1.6,0-3.1-0.3-4.4-0.9c-1.3-0.6-2.3-1.4-3-2.4c-0.7-1-1.1-2.2-1.1-3.4h4.4c0.1,1.1,0.5,1.9,1.2,2.5
			c0.7,0.6,1.7,0.9,3,0.9c1.2,0,2.1-0.2,2.7-0.7C1577.6,556,1577.9,555.4,1577.9,554.7z"/>
		<path class="st10" d="M1585.4,549.9c0-2,0.4-3.7,1.2-5.3c0.8-1.6,1.9-2.8,3.3-3.6c1.4-0.8,3-1.3,4.9-1.3c2.7,0,4.9,0.9,6.6,2.6
			s2.6,4.1,2.7,6.9v1.1c0,2-0.4,3.7-1.1,5.3s-1.8,2.8-3.3,3.6c-1.5,0.8-3.1,1.3-4.9,1.3c-2.8,0-5.1-0.9-6.8-2.8
			c-1.7-1.9-2.6-4.4-2.6-7.5L1585.4,549.9L1585.4,549.9z M1589.9,550.3c0,2.1,0.4,3.7,1.3,4.9c0.9,1.2,2,1.8,3.6,1.8
			s2.7-0.6,3.6-1.8c0.9-1.2,1.3-2.9,1.3-5.2c0-2-0.4-3.6-1.3-4.8c-0.9-1.2-2.1-1.8-3.6-1.8s-2.6,0.6-3.5,1.8
			C1590.3,546.2,1589.9,548,1589.9,550.3z"/>
		<path class="st10" d="M1612.1,552.2c0-1.6,0.2-3,0.6-3.9c0.4-0.9,1.2-2.1,2.4-3.2c1.2-1.2,2-2,2.3-2.5c0.5-0.8,0.7-1.6,0.7-2.4
			c0-1.2-0.3-2-0.9-2.7c-0.6-0.7-1.4-0.9-2.5-0.9s-1.9,0.3-2.6,0.9c-0.7,0.6-1,1.4-1,2.4h-4.5c0-2.2,0.8-3.9,2.2-5.2
			c1.4-1.3,3.4-1.9,5.8-1.9c2.5,0,4.4,0.6,5.8,1.9c1.4,1.3,2.1,3,2.1,5.3c0,2-0.9,4-2.8,6l-2.3,2.2c-0.8,0.9-1.2,2.3-1.3,4.1
			L1612.1,552.2L1612.1,552.2z M1611.7,558c0-0.7,0.2-1.3,0.7-1.8s1.1-0.7,1.9-0.7s1.4,0.2,1.9,0.7s0.7,1,0.7,1.7s-0.2,1.2-0.7,1.7
			s-1.1,0.7-1.9,0.7s-1.4-0.2-1.9-0.7S1611.7,558.6,1611.7,558z"/>
	</g>
</g>
<g>
	<g>
		<path class="st10" d="M509.1,168.1h-10.5l-2.2,6.3h-4.9l10.2-27h4.2l10.2,27h-4.9L509.1,168.1z M499.9,164.3h7.8l-3.9-11.2
			L499.9,164.3z"/>
		<path class="st10" d="M524.6,168.7l4.2-14.4h4.7l-7,20.1h-3.9l-7-20.1h4.7L524.6,168.7z"/>
		<path class="st10" d="M535.9,149.1c0-0.7,0.2-1.3,0.7-1.7c0.4-0.5,1.1-0.7,1.9-0.7s1.4,0.2,1.9,0.7c0.4,0.5,0.7,1,0.7,1.7
			s-0.2,1.2-0.7,1.7c-0.4,0.5-1.1,0.7-1.9,0.7s-1.4-0.2-1.9-0.7C536.1,150.4,535.9,149.8,535.9,149.1z M540.7,174.4h-4.5v-20.1h4.5
			V174.4z"/>
		<path class="st10" d="M556.5,169c0-0.8-0.3-1.4-1-1.8c-0.7-0.4-1.8-0.8-3.3-1.1s-2.8-0.7-3.8-1.2c-2.3-1.1-3.4-2.7-3.4-4.7
			c0-1.7,0.7-3.2,2.2-4.3c1.5-1.2,3.3-1.7,5.6-1.7c2.4,0,4.3,0.6,5.8,1.8s2.2,2.7,2.2,4.6h-4.5c0-0.9-0.3-1.6-1-2.2
			c-0.6-0.6-1.5-0.9-2.6-0.9c-1,0-1.8,0.2-2.4,0.7c-0.6,0.5-0.9,1.1-0.9,1.8s0.3,1.2,0.9,1.6c0.6,0.4,1.8,0.8,3.5,1.2
			c1.8,0.4,3.2,0.9,4.2,1.4s1.8,1.2,2.2,1.9c0.5,0.8,0.7,1.7,0.7,2.7c0,1.8-0.7,3.3-2.2,4.4c-1.5,1.1-3.5,1.7-5.9,1.7
			c-1.6,0-3.1-0.3-4.4-0.9c-1.3-0.6-2.3-1.4-3-2.4s-1.1-2.2-1.1-3.4h4.4c0.1,1.1,0.5,1.9,1.2,2.5s1.7,0.9,3,0.9
			c1.2,0,2.1-0.2,2.7-0.7C556.2,170.3,556.5,169.7,556.5,169z"/>
		<path class="st10" d="M563.6,164.2c0-2,0.4-3.7,1.2-5.3c0.8-1.6,1.9-2.8,3.3-3.6c1.4-0.8,3-1.3,4.9-1.3c2.7,0,4.9,0.9,6.6,2.6
			c1.7,1.7,2.6,4.1,2.7,6.9v1.1c0,2-0.4,3.7-1.1,5.3c-0.8,1.6-1.8,2.8-3.3,3.6c-1.4,0.9-3.1,1.3-4.9,1.3c-2.8,0-5.1-0.9-6.8-2.8
			c-1.7-1.9-2.6-4.4-2.6-7.5V164.2L563.6,164.2z M568.1,164.6c0,2.1,0.4,3.7,1.3,4.9c0.9,1.2,2,1.8,3.6,1.8c1.6,0,2.7-0.6,3.6-1.8
			c0.8-1.2,1.3-2.9,1.3-5.2c0-2-0.4-3.6-1.3-4.8c-0.9-1.2-2.1-1.8-3.6-1.8s-2.6,0.6-3.5,1.8C568.6,160.5,568.1,162.2,568.1,164.6z"
			/>
		<path class="st10" d="M597,169c0-0.8-0.3-1.4-1-1.8c-0.7-0.4-1.8-0.8-3.3-1.1s-2.8-0.7-3.8-1.2c-2.3-1.1-3.4-2.7-3.4-4.7
			c0-1.7,0.7-3.2,2.2-4.3c1.5-1.2,3.3-1.7,5.6-1.7c2.4,0,4.3,0.6,5.8,1.8s2.2,2.7,2.2,4.6h-4.5c0-0.9-0.3-1.6-1-2.2
			c-0.6-0.6-1.5-0.9-2.6-0.9c-1,0-1.8,0.2-2.4,0.7c-0.6,0.5-0.9,1.1-0.9,1.8s0.3,1.2,0.9,1.6c0.6,0.4,1.8,0.8,3.5,1.2
			c1.8,0.4,3.2,0.9,4.2,1.4s1.8,1.2,2.2,1.9c0.5,0.8,0.7,1.7,0.7,2.7c0,1.8-0.7,3.3-2.2,4.4c-1.5,1.1-3.5,1.7-5.9,1.7
			c-1.6,0-3.1-0.3-4.4-0.9c-1.3-0.6-2.3-1.4-3-2.4s-1.1-2.2-1.1-3.4h4.4c0.1,1.1,0.5,1.9,1.2,2.5s1.7,0.9,3,0.9
			c1.2,0,2.1-0.2,2.7-0.7C596.7,170.3,597,169.7,597,169z"/>
		<path class="st10" d="M614,149.1c0-0.7,0.2-1.3,0.7-1.7c0.4-0.5,1.1-0.7,1.9-0.7s1.4,0.2,1.9,0.7c0.4,0.5,0.7,1,0.7,1.7
			s-0.2,1.2-0.7,1.7c-0.4,0.5-1.1,0.7-1.9,0.7s-1.4-0.2-1.9-0.7C614.3,150.4,614,149.8,614,149.1z M618.8,174.4h-4.5v-20.1h4.5
			V174.4z"/>
		<path class="st10" d="M627.6,154.3l0.1,2.1c1.4-1.6,3.3-2.5,5.8-2.5c2.7,0,4.5,1,5.5,3.1c1.5-2.1,3.5-3.1,6.2-3.1
			c2.2,0,3.9,0.6,4.9,1.8c1.1,1.2,1.6,3,1.7,5.4v13.2h-4.5v-13.1c0-1.3-0.3-2.2-0.8-2.8s-1.5-0.9-2.8-0.9c-1,0-1.9,0.3-2.5,0.8
			c-0.7,0.6-1.1,1.3-1.4,2.2v13.8h-4.5v-13.2c-0.1-2.4-1.3-3.5-3.6-3.5c-1.8,0-3.1,0.7-3.8,2.2v14.5h-4.5v-20.1h4.2V154.3z"/>
		<path class="st10" d="M673.6,164.6c0,3.1-0.7,5.6-2.1,7.4c-1.4,1.8-3.3,2.8-5.7,2.8c-2.2,0-4-0.7-5.3-2.2v9.5H656v-27.8h4.2l0.2,2
			c1.3-1.6,3.1-2.4,5.4-2.4c2.4,0,4.4,0.9,5.8,2.7c1.4,1.8,2.1,4.4,2.1,7.6v0.4H673.6z M669.1,164.2c0-2-0.4-3.6-1.2-4.8
			s-1.9-1.8-3.4-1.8c-1.8,0-3.2,0.8-4,2.3v8.9c0.8,1.6,2.2,2.3,4,2.3c1.4,0,2.6-0.6,3.4-1.7C668.7,168.3,669.1,166.5,669.1,164.2z"
			/>
		<path class="st10" d="M676.2,164.2c0-2,0.4-3.7,1.2-5.3s1.9-2.8,3.3-3.6c1.4-0.8,3-1.3,4.9-1.3c2.7,0,4.9,0.9,6.6,2.6
			c1.7,1.7,2.6,4.1,2.7,6.9v1.1c0,2-0.4,3.7-1.1,5.3c-0.8,1.6-1.8,2.8-3.3,3.6c-1.4,0.9-3.1,1.3-4.9,1.3c-2.8,0-5.1-0.9-6.8-2.8
			c-1.7-1.9-2.6-4.4-2.6-7.5L676.2,164.2L676.2,164.2z M680.7,164.6c0,2.1,0.4,3.7,1.3,4.9c0.9,1.2,2,1.8,3.6,1.8s2.7-0.6,3.6-1.8
			c0.8-1.2,1.3-2.9,1.3-5.2c0-2-0.4-3.6-1.3-4.8c-0.9-1.2-2.1-1.8-3.6-1.8s-2.6,0.6-3.5,1.8C681.2,160.5,680.7,162.2,680.7,164.6z"
			/>
		<path class="st10" d="M708.8,158.4c-0.6-0.1-1.2-0.1-1.8-0.1c-2.1,0-3.5,0.8-4.2,2.4v13.7h-4.5v-20.1h4.3l0.1,2.2
			c1.1-1.7,2.6-2.6,4.5-2.6c0.6,0,1.2,0.1,1.6,0.3L708.8,158.4z"/>
		<path class="st10" d="M717.9,149.5v4.9h3.5v3.3h-3.5v11.2c0,0.8,0.2,1.3,0.5,1.7c0.3,0.3,0.8,0.5,1.6,0.5c0.5,0,1-0.1,1.6-0.2v3.5
			c-1,0.3-2,0.4-3,0.4c-3.5,0-5.2-1.9-5.2-5.7v-11.4h-3.3v-3.3h3.3v-4.9H717.9z"/>
		<path class="st10" d="M736.5,174.4c-0.2-0.4-0.4-1-0.5-1.9c-1.4,1.5-3.2,2.2-5.3,2.2c-2,0-3.7-0.6-4.9-1.7
			c-1.3-1.2-1.9-2.6-1.9-4.3c0-2.1,0.8-3.8,2.4-4.9c1.6-1.1,3.9-1.7,6.8-1.7h2.8v-1.3c0-1-0.3-1.9-0.9-2.5c-0.6-0.6-1.5-0.9-2.7-0.9
			c-1,0-1.9,0.3-2.5,0.8c-0.7,0.5-1,1.2-1,2h-4.5c0-1.1,0.4-2.1,1.1-3.1c0.7-1,1.7-1.7,3-2.3c1.3-0.5,2.7-0.8,4.2-0.8
			c2.3,0,4.2,0.6,5.6,1.8c1.4,1.2,2.1,2.8,2.2,5v9.1c0,1.8,0.3,3.2,0.8,4.3v0.3h-4.7V174.4z M731.5,171.2c0.9,0,1.7-0.2,2.5-0.6
			c0.8-0.4,1.4-1,1.8-1.7v-3.8h-2.4c-1.7,0-2.9,0.3-3.8,0.9c-0.8,0.6-1.3,1.4-1.3,2.5c0,0.9,0.3,1.6,0.9,2.1
			C729.8,170.9,730.6,171.2,731.5,171.2z"/>
		<path class="st10" d="M748.8,154.3l0.1,2.3c1.5-1.8,3.4-2.7,5.8-2.7c4.2,0,6.3,2.4,6.4,7.2v13.3h-4.5v-13c0-1.3-0.3-2.2-0.8-2.8
			c-0.6-0.6-1.5-0.9-2.7-0.9c-1.8,0-3.2,0.8-4.1,2.5v14.3h-4.4v-20.1h4.2V154.3z"/>
		<path class="st10" d="M771.1,149.5v4.9h3.5v3.3h-3.5v11.2c0,0.8,0.2,1.3,0.5,1.7c0.3,0.3,0.8,0.5,1.6,0.5c0.5,0,1-0.1,1.6-0.2v3.5
			c-1,0.3-2,0.4-3,0.4c-3.5,0-5.2-1.9-5.2-5.7v-11.4h-3.3v-3.3h3.3v-4.9H771.1z"/>
		<path class="st10" d="M786.5,174.8c-2.9,0-5.2-0.9-6.9-2.7c-1.8-1.8-2.7-4.2-2.7-7.2v-0.6c0-2,0.4-3.8,1.2-5.4
			c0.8-1.6,1.9-2.8,3.3-3.7c1.4-0.9,3-1.3,4.7-1.3c2.7,0,4.8,0.9,6.3,2.6c1.5,1.7,2.2,4.2,2.2,7.4v1.8h-13.1c0.1,1.7,0.7,3,1.7,3.9
			c1,1,2.2,1.4,3.7,1.4c2.1,0,3.7-0.8,5-2.5l2.4,2.3c-0.8,1.2-1.9,2.1-3.2,2.8C789.7,174.4,788.2,174.8,786.5,174.8z M786,157.6
			c-1.2,0-2.2,0.4-3,1.3c-0.8,0.9-1.2,2.1-1.5,3.6h8.6v-0.3c-0.1-1.5-0.5-2.7-1.2-3.4C788.2,158,787.2,157.6,786,157.6z"/>
		<path class="st10" d="M808.9,169c0-0.8-0.3-1.4-1-1.8c-0.7-0.4-1.8-0.8-3.3-1.1s-2.8-0.7-3.8-1.2c-2.3-1.1-3.4-2.7-3.4-4.7
			c0-1.7,0.7-3.2,2.2-4.3c1.5-1.2,3.3-1.7,5.6-1.7c2.4,0,4.3,0.6,5.8,1.8s2.2,2.7,2.2,4.6h-4.5c0-0.9-0.3-1.6-1-2.2
			c-0.6-0.6-1.5-0.9-2.6-0.9c-1,0-1.8,0.2-2.4,0.7c-0.6,0.5-0.9,1.1-0.9,1.8s0.3,1.2,0.9,1.6c0.6,0.4,1.8,0.8,3.5,1.2
			c1.8,0.4,3.2,0.9,4.2,1.4s1.8,1.2,2.2,1.9c0.5,0.8,0.7,1.7,0.7,2.7c0,1.8-0.7,3.3-2.2,4.4c-1.5,1.1-3.5,1.7-5.9,1.7
			c-1.6,0-3.1-0.3-4.4-0.9c-1.3-0.6-2.3-1.4-3-2.4s-1.1-2.2-1.1-3.4h4.4c0.1,1.1,0.5,1.9,1.2,2.5s1.7,0.9,3,0.9
			c1.2,0,2.1-0.2,2.7-0.7C808.6,170.3,808.9,169.7,808.9,169z"/>
	</g>
</g>
<g>
	<g>
		<defs>
			<rect id="SVGID_1_" x="49.6" y="-13.3" width="438.6" height="228.9"/>
		</defs>
		<clipPath id="SVGID_4_">
			<use xlink:href="#SVGID_1_"  style="overflow:visible;"/>
		</clipPath>
		<g class="st27">
			<path class="st9" d="M362,188.4c-2.9,0.8-6.1,0.6-9.1,0.4c-6.3-0.4-61.6-19.4-67.9-23.2c-4.8-2.9-9.4-6.6-11.8-11.7
				c-2.6-5.7-1.7-13.1,4.2-16.1c6.4-3.3,13.3-1.3,19.7,1c10.2,3.7,58.7,22.3,60.4,22c1.2-0.3,33.9-34.9,48.9-51.8
				c1.7-2,3.9-4,6.5-3.8c2.1,0.2,3.8,1.9,4.6,3.8c1.7,4.3,0.2,9-1.7,13c-1.7,3.7-36.5,51.8-44.1,59.6c-2.5,2.6-5.2,5.2-8.6,6.5
				C362.9,188.2,362.5,188.3,362,188.4z"/>
			<path class="st9" d="M414.7,97.5c-3,2.2-5.9,4.6-8.7,7.2c-1.2,1.1-2.4,2.4-2.8,4c-0.1,0.2-0.1,0.5,0,0.7c0.1,0.4,0.6,0.5,0.9,0.6
				c3.2,0.7,6.2-1.4,8.9-3.4c2-1.5,4-3.1,6-4.6c1.6-1.3,4.7-4.1,2.5-6.3C419.5,93.7,416.4,96.3,414.7,97.5z"/>
			<path class="st9" d="M417,102.5c-3,2.2-5.9,4.6-8.7,7.2c-1.2,1.1-2.4,2.4-2.8,4c-0.1,0.2-0.1,0.5,0,0.7c0.1,0.4,0.6,0.5,0.9,0.6
				c3.2,0.7,6.2-1.4,8.9-3.4c2-1.5,4-3.1,6-4.6c1.6-1.3,4.7-4.1,2.5-6.3C421.8,98.7,418.7,101.3,417,102.5z"/>
			<path class="st9" d="M420,105.6c-3,2.2-5.9,4.6-8.7,7.2c-1.2,1.1-2.4,2.4-2.8,4c-0.1,0.2-0.1,0.5,0,0.7c0.1,0.4,0.6,0.5,0.9,0.6
				c3.2,0.7,6.2-1.4,8.9-3.4c2-1.5,4-3.1,6-4.6c1.6-1.3,4.7-4.1,2.5-6.3C424.8,101.8,421.6,104.4,420,105.6z"/>
			<path class="st9" d="M423.1,110.8c-2.6,1.9-5.1,4-7.5,6.2c-1,1-2.1,2.1-2.4,3.5c0,0.2-0.1,0.4,0,0.6c0.1,0.3,0.5,0.5,0.8,0.5
				c2.7,0.6,5.4-1.2,7.6-3c1.7-1.3,3.4-2.6,5.2-4c1.4-1.1,4-3.6,2.1-5.5C427.2,107.5,424.5,109.8,423.1,110.8z"/>
			<path class="st9" d="M397.3,118.5c-0.5-2.4-1.4-4.7-2.6-6.9c-1.1-2.1-2.6-4.1-2.7-6.4c1.2,0.9,2.1,2.1,3,3.3
				c1.8,2.5,3.6,5,5.3,7.5c0.1,0.2,0.3,0.4,0.3,0.6c0.1,0.4-0.1,0.8-0.3,1.2c-0.5,0.9-1.7,3.3-2.8,3.4
				C397.4,120.4,397.5,119.5,397.3,118.5z"/>
			<line class="st28" x1="419.6" y1="101" x2="409.7" y2="108.3"/>
			<line class="st28" x1="422.9" y1="104.6" x2="413.1" y2="112"/>
			<line class="st28" x1="424.5" y1="109.9" x2="418.1" y2="114.8"/>
			<g>
				<g>
					<path class="st29" d="M379,77.9c-0.6-1-1.8-1.3-2.8-0.7l-8.4,5.1c-1,0.6-1.3,1.8-0.7,2.8l3.2,5.4c0.6,1,1.8,1.3,2.8,0.7
						l8.4-5.1c1-0.6,1.3-1.8,0.7-2.8L379,77.9z"/>
					<path class="st30" d="M367,83.6c-0.1-0.1-0.2-0.2-0.3-0.1l0,0c-0.1,0.1-0.2,0.2-0.1,0.3l4.6,7.6c0.1,0.1,0.2,0.2,0.3,0.1l0,0
						c0.1-0.1,0.2-0.2,0.1-0.3L367,83.6z"/>
					<g>
						<path class="st31" d="M390.4,58.6l-22.2,13.3c-1.2,0.7-1.9,2-2.3,3.1l3.4-2l1.8,3l-4.8,2.9c0.1,0.2,0,0.4,0.1,0.5l8.6,14.3
							c1.5,2.5,4.8,3.1,7.3,1.6L404.5,82c2.5-1.5,3.4-4.7,1.9-7.2l-8.6-14.3C396.3,58.1,392.9,57.1,390.4,58.6z"/>
						<path class="st10" d="M369.3,73l-3.4,2c-0.3,1.4-0.2,2.8,0.4,3.9l4.8-2.9L369.3,73z"/>
					</g>
					<path class="st5" d="M412.5,111.3l0.1-0.1l-13.4-22.3c-1.5-2.5-4.9-3.1-7.6-1.5l-2,1.2c-2.7,1.6-3.9,5-2.4,7.5l13.4,22.3
						c1.5,2.5,4.9,2.9,7.6,1.3l1.8-1.1l0.1-0.1l4.5-2.7c1.3-0.8,1.7-2,1-3.2l-0.1-0.2C414.9,111.2,413.7,110.8,412.5,111.3z"/>
					<path class="st29" d="M450.4,38.6c2.7,4.5,1.3,10.4-3.3,13.2c-4.5,2.7-10.4,1.3-13.2-3.3c-2.7-4.5-1.3-10.4,3.3-13.2
						C441.7,32.6,447.6,34,450.4,38.6z"/>
					<path class="st2" d="M466.2,77.1c1,1.7,0.5,3.9-1.2,4.9l-0.1,0.1c-1.7,1-3.9,0.5-4.9-1.2L417.2,9.6c-1-1.7-0.5-3.9,1.2-4.9
						l0.1-0.1c1.7-1,3.9-0.5,4.9,1.2L466.2,77.1z"/>
					<path class="st2" d="M403.1,83.2c1.5,2.5,0.7,5.7-1.8,7.2l-11.2,6.7c-2.5,1.5-5.7,0.7-7.2-1.8l-14.3-23.8
						c-1.5-2.5-0.7-5.7,1.8-7.2l11.2-6.7c2.5-1.5,5.7-0.7,7.2,1.8L403.1,83.2z"/>
					<path class="st32" d="M417.3,9.8c0,0,7.5,28.7-27.7,49.8l13.9,23.2c0,0,46-19.2,56.5-1.8L417.3,9.8z"/>
					<path class="st33" d="M390.2,60.6l1.8,3c35.1-21.1,27.6-49.8,27.6-49.8l-1.8-3C417.9,10.8,425.4,39.5,390.2,60.6z"/>
				</g>
				<path class="st30" d="M368.4,87.2l1.8,3.1c0.6,1,1.9,1.2,2.9,0.6l0.1-0.1l1.6,2.7c1.5,2.5,4.8,3.2,7.3,1.7l0.6-0.3l0.1,0.1
					c1.1,1.9,3.4,2.7,5.3,2.5l12.6,20.9c1.5,2.5,4.9,2.9,7.6,1.3l1.8-1.1l0.1-0.1l4.5-2.7c1.3-0.8,1.7-2,1-3.2l-0.1-0.2
					c-0.6-1.1-1.9-1.5-3.1-1l0.1-0.1l-12.4-20.6l1.2-0.7c2.5-1.5,3.5-4.8,2-7.3l0,0l0,0l0,0c0,0,46-19.2,56.5-1.8l0.1,0.2
					c1,1.7,3.2,2.3,4.9,1.3c1.7-1,2.2-3.2,1.2-4.9l-16.7-27.8c2.6-3.1,3.1-7.5,0.9-11.2c0-0.1-0.1-0.2-0.1-0.2L368.4,87.2z"/>
			</g>
			<g>
				<g>
					<g>
						<path class="st9" d="M189.7,122.3c-21.5,22.4-47.8,38.9-76.8,53.3l1.8,29.7c36.7-11.8,70.5-32.6,97.6-60.1"/>
					</g>
					<g>
						<path class="st9" d="M116.5,173.8c-13.1,6.7-31.6,11.1-32.4,13.2c-0.3,0.9,0.4,1.6,1.7,1.9c2.9,0.6,7.9-0.3,8.1,1.4
							c0.1,1-11.8,5.1-16.5,7.9c-1.7,1-0.5,2.7,0.7,2.6c4.7-0.6,15.7-4.3,15.7-4.3c0.1,0.7-12.6,4.4-16.7,7.7
							c-0.9,0.7-0.5,2.7,0.8,2.5c5-0.7,18.4-4.5,18.4-4.5s-13,3.7-16.6,7c-0.7,0.6,0,2.3,0.9,2.2c3.9-0.5,19.1-5,19.1-5
							s-11,3.5-14,5.6c-0.8,0.6,0.3,2.4,1.2,2.4c7.6-0.3,38.4-12.7,38.4-12.7"/>
					</g>
					<g>
						<g>
							<path class="st8" d="M102.1,204.4c0.9-2.2,1.8-4.3,3.3-6.1c0.7-0.8,1.5-1.5,2.4-2c0.5-0.3,1-0.5,1.5-0.7s1-0.3,1.5-0.4
								c0.1,0,0.1-0.2,0-0.3c-1,0-2.1,0.5-3,1c-1,0.6-1.8,1.3-2.6,2.1c-1.6,1.8-2.6,4.1-3.3,6.3C101.8,204.5,102,204.5,102.1,204.4
								L102.1,204.4z"/>
						</g>
					</g>
					<g>
						<g>
							<path class="st8" d="M96.3,189.4c1.9,0.4,3.8,0.5,5.7,0.3c1.8-0.2,3.8-0.7,5.3-1.7c0.1-0.1,0.1-0.3-0.1-0.3
								c-0.8,0.3-1.6,0.7-2.5,0.9c-0.9,0.3-1.8,0.5-2.8,0.6c-1.9,0.3-3.8,0.2-5.6-0.2C96.2,189.1,96.1,189.4,96.3,189.4L96.3,189.4z
								"/>
						</g>
					</g>
				</g>
			</g>
			<g>
				<path class="st9" d="M210.2,245.5c0,0-29.5,126.7-33.2,148.6c-3.7,21.9-12.7,110.2-12.7,110.2l38.5,11.4
					c0,0,15.6-107.1,18.9-120.8s35.1-130.4,35.1-130.4L210.2,245.5z"/>
				<polygon class="st34" points="207.3,491.4 165.8,486.5 166.9,477.4 208.3,482.8 				"/>
				<line class="st35" x1="173.2" y1="478.2" x2="172.2" y2="487.2"/>
				<line class="st35" x1="181.5" y1="479.3" x2="180.6" y2="488.3"/>
				<line class="st35" x1="190.7" y1="480.5" x2="189.5" y2="489.6"/>
				<line class="st35" x1="199" y1="481.7" x2="197.7" y2="490.7"/>
				<line class="st35" x1="206.7" y1="482.6" x2="205.6" y2="491.4"/>
				<path class="st9" d="M307.3,279.8c0,0,7,45.6,17.9,102.9c12,63,18.1,123.4,18.1,123.4l-39.5,7.5c0,0-17.5-108.2-19.4-122.2
					c-1.9-13.9-20.4-96.7-20.4-96.7L307.3,279.8z"/>
				<g>
					<path class="st36" d="M165.1,482.6c-1.7,13.8-2.3,19.3-2.3,19.3l-26.4,13.8c-3,1.6-6.3,2.4-9.7,2.4h-3.8c-3,0-5.5,2.5-5.5,5.5
						v4l56,5.5c2.8,0.3,5.5-0.8,7.4-2.8l2.8-3c1.8-2,4.4-3.1,7-3.1h1.3v10.7l10.4,1c0,0,2.4-19.6,6.1-47.6L165.1,482.6z"/>
					<path class="st37" d="M173.4,533.1c2.8,0.3,5.5-0.8,7.4-2.8l2.8-3c1.8-2,4.4-3.1,7-3.1h1.3v10.7l10.4,1c0,0,0.7-5.3,1.7-13.9
						l0,0l-14.4-0.9c-2.7-0.2-5.4,0.8-7.3,2.7l-3.3,3.3c-1.9,1.8-4.4,2.7-7,2.5l-54.6-4.9v2.9L173.4,533.1z"/>
					<polyline class="st38" points="169,502.1 162.4,498.2 170.7,497.2 163.8,492.1 170.8,491.2 164.6,485.8 172.2,485.5 					"/>
				</g>
				<g>
					<polygon class="st34" points="341,485 299.1,488.6 298.3,479.5 340.3,476.4 					"/>
					<line class="st35" x1="304.7" y1="479" x2="305.5" y2="488"/>
					<line class="st35" x1="313.1" y1="478.4" x2="314" y2="487.4"/>
					<line class="st35" x1="322.4" y1="477.7" x2="323.1" y2="486.9"/>
					<line class="st35" x1="330.9" y1="477.2" x2="331.5" y2="486.3"/>
					<line class="st35" x1="338.7" y1="476.6" x2="339.4" y2="485.4"/>
					<path class="st36" d="M341.6,482.9l3.5,22.9l25,16.2c2.8,1.8,6.1,3,9.4,3.3l3.8,0.4c3,0.3,5.3,3,5,6l-0.4,4.3h-56.3
						c-2.8,0-5.4-1.4-7.1-3.6l-3.3-4.3c-1.1-1.4-2.7-2.3-4.5-2.5l-2.7-0.3l-1,10.6h-10.4l-4.6-51.2L341.6,482.9z"/>
					<path class="st37" d="M331.7,535.9c-2.8,0-5.4-1.4-7.1-3.6l-3.3-4.3c-1.1-1.4-2.7-2.3-4.5-2.5l-2.7-0.3l-1,10.6h-10.5
						l-1.3-14.3l16.8,0.8c1.8,0.1,3.4,0.9,4.6,2.3l4,4.7c1.7,2,4.2,3.2,6.8,3.2l54.8,0.3l-0.3,3.1H331.7z"/>
					<polyline class="st38" points="340.5,505.7 346.7,501.2 338.4,501 344.7,495.3 337.8,495 343.5,489 335.8,489.4 					"/>
				</g>
				<path class="st39" d="M206.7,226.2l-2.3,10.7c-14.6,21.1-52.1,226.9-52.1,226.9l86.1,7.4l13-168.5L265,471.2
					c0,0,77.8-6.5,76.3-8s-23.6-168.6-47.2-227.3l-2.2-10L206.7,226.2z"/>
				<g class="st40">
					<g>
						<defs>
							<path id="SVGID_9_" d="M206.7,226.2l-2.3,10.7c-14.6,21.1-52.1,226.9-52.1,226.9l86.1,7.4l13-168.5L265,471.2
								c0,0,77.8-6.5,76.3-8s-23.6-168.6-47.2-227.3l-2.2-10L206.7,226.2z"/>
						</defs>
						<clipPath id="SVGID_6_">
							<use xlink:href="#SVGID_9_"  style="overflow:visible;"/>
						</clipPath>
						<g class="st41">
							<path class="st42" d="M208.8,238.4c-10.9,24.8-50.4,232.8-50.4,232.8"/>
							<path class="st42" d="M221.5,241.7c-7.7,36.1-42.4,234-42.4,234"/>
							<line class="st42" x1="236.1" y1="243.9" x2="204.2" y2="481"/>
							<line class="st42" x1="249.3" y1="244.4" x2="226" y2="481"/>
							<path class="st42" d="M259.6,244.1c0.6,21.2,18.8,231.6,18.8,231.6"/>
							<line class="st42" x1="273.6" y1="242.5" x2="306.3" y2="473.5"/>
							<path class="st42" d="M288,238.9c8.1,33.4,39.9,233.6,39.9,233.6"/>
						</g>
					</g>
				</g>
				<path class="st10" d="M257.6,238.4c0,1.1-0.9,2-2,2s-2-0.9-2-2s0.9-2,2-2S257.6,237.3,257.6,238.4z"/>
				<g>
					<path class="st9" d="M208.9,182.1l-2.2,44.1c0,0,12.3,6.2,45.4,6.2c26.1,0,39.8-6.6,39.8-6.6l-4.7-46.4L208.9,182.1z"/>
					<g>
						<g>
							<path class="st43" d="M256.7,222c-0.2,0.6-0.2,1.1-0.2,1.7c0,0.3,0,0.6,0.1,0.9c0.1,0.3,0.1,0.6,0.3,0.8
								c0.1,0.1,0.3,0,0.3-0.1c0-0.3-0.1-0.5-0.2-0.8s-0.1-0.5-0.1-0.8c0-0.5,0-1.1,0.1-1.6C257,221.9,256.7,221.9,256.7,222
								L256.7,222z"/>
						</g>
					</g>
				</g>
				<path class="st44" d="M204.4,237c0,0,24.7,9.8,56.6,7.1c26.4-2.3,33.1-8.2,33.1-8.2"/>
				<path class="st44" d="M251.4,302.7c0,0,3.6-10.3,3.9-24.3c0.2-9.1,0.3-34,0.3-34"/>
				<path class="st44" d="M258.4,244.2L258.4,244.2c1.5-0.1,2.6-1.3,2.6-2.7v-6c0-1.5-1.3-2.7-2.8-2.7h-2.6"/>
				<line class="st44" x1="240.3" y1="232.1" x2="239.4" y2="244.2"/>
				<line class="st44" x1="213.9" y1="228.6" x2="211.7" y2="239.3"/>
				<line class="st44" x1="269.7" y1="231.3" x2="270.7" y2="242.9"/>
				<line class="st44" x1="288" y1="227.3" x2="290.5" y2="237.9"/>
				<path class="st44" d="M255,282.6c0,0,5.2-3.3,6-5.4c2-5.4,2-33.3,2-33.3"/>
				<line class="st44" x1="155.7" y1="447.7" x2="239.8" y2="455.6"/>
				<line class="st44" x1="263.5" y1="455.6" x2="338.2" y2="447.7"/>
				<path class="st44" d="M221.5,241.7c0,0-5.9,19.6-7,20c-2.4,0.9-18.9-1.1-18.9-1.1"/>
				<path class="st44" d="M281.4,240.9c0,0,5.5,17.6,7.8,18.4c2.5,0.8,12.6-0.4,12.6-0.4"/>
			</g>
			<line class="st45" x1="176.4" y1="62.3" x2="189.7" y2="69.8"/>
			<line class="st45" x1="186.5" y1="49.8" x2="196.3" y2="62.3"/>
			<line class="st45" x1="203" y1="44.8" x2="204.5" y2="58.8"/>
			<g>
				<g>
					<path class="st8" d="M261.6,60.7c-9.6-5.2-23.6-4.9-32.4,1.7c-12.6,9.4-16.1,26.5-18,41c8.4,4.7,15.9,7,25.5,8.1
						c7.9,0.9,15.9,1,23.7-0.7c8.2-1.8,16.1-4.3,23-9C278.9,88.2,275.5,68.2,261.6,60.7z"/>
				</g>
				<g>
					<g>
						<path class="st46" d="M264.2,89.6c2.4-2.3,5.4-2.5,7,0.8c0.7,1.4,0.9,3,0.6,4.5s-1.3,2.9-2.7,3.5c-1.4,0.7-3.2,0.5-4.3-0.5
							L264.2,89.6z"/>
					</g>
					<g>
						<g>
							<path class="st36" d="M268.5,97.2c0.9,0.1,1.4,1,1.7,1.7c0.3,0.9,0.5,1.9,0.4,2.8c0,0.4-0.1,0.8-0.2,1.2
								c-0.2,0.6-0.9,1.1-1.5,1.4c-1.5,0.6-2.6-0.5-3.1-1.8c-0.6-1.6,0.1-3.2,0.8-4.7c0.1-0.1-0.1-0.3-0.2-0.1
								c-0.9,1.2-1.4,3.1-1,4.6c0.3,1.3,1.4,2.7,2.9,2.6c0.8-0.1,1.5-0.5,2-1c0.4-0.4,0.6-0.9,0.7-1.5c0.2-1.1,0.1-2.3-0.3-3.3
								C270.3,98.1,269.6,97.1,268.5,97.2C268.5,97.1,268.4,97.2,268.5,97.2L268.5,97.2z"/>
						</g>
					</g>
				</g>
				<g>
					<path class="st9" d="M264.8,74.5c-1-3.2-3.9-5.4-7.1-6.3s-6.6-0.7-9.8-0.2c-5.2,0.8-10.6,2.6-13.6,6.8
						c-5.6,7.9-3,24.4,4.2,30.6c6,5.1,21,5.4,25.9-0.5c3.5-4.2,4-8.4,4-13.9c-0.1-5.5-1.3-12.5-1.3-12.5L264.8,74.5z"/>
				</g>
				<g>
					<path class="st8" d="M230,90.1c7.8-1.6,10.7-9.9,9.6-15.9c2.7,3.2,9.3,4.5,12.4,4.9c5.4,0.8,15.2,0.2,18.2-1.8
						c-0.5-4.2-1.7-8.6-4.3-12.1c-2.5-3.5-6.8-5.2-10.8-6.1c-4.6-1-9.6-1.7-14,0.2c-10.1,4.2-12.2,16.2-11.5,25.9L230,90.1z"/>
				</g>
				<path class="st9" d="M234.4,98.6l-1,16l-18.2-0.3c0,0,8.6,18.5,33.1,18.4c25.9-0.1,31.6-13.2,31.6-13.2l-17.9-3.9l-1.2-15
					L234.4,98.6z"/>
				<path class="st8" d="M250.5,46.4c0,5-4.1,9.1-9.1,9.1s-9.1-4.1-9.1-9.1s4.1-9.1,9.1-9.1C246.4,37.3,250.5,41.4,250.5,46.4z"/>
				
					<rect x="238.7" y="52" transform="matrix(0.9908 -0.1352 0.1352 0.9908 -5.2888 33.3488)" class="st8" width="8.4" height="7.3"/>
				<path class="st47" d="M238.4,58c2.8-1.3,6-1.5,9-1.3"/>
				<path class="st47" d="M238.5,55.4c2.7-1.1,5.6-1.5,8.5-1.2"/>
				<path class="st44" d="M243.3,106.5c1.8,1.2,5.1,2.6,8.7,2.9c5.9,0.6,10-1.8,10-1.8"/>
				<circle class="st8" cx="246.6" cy="86.7" r="1.6"/>
				<path class="st8" d="M265.1,85c0,0.9-0.7,1.6-1.6,1.6c-0.9,0-1.6-0.7-1.6-1.6s0.7-1.6,1.6-1.6C264.3,83.4,265.1,84.1,265.1,85z"
					/>
				<g>
					<g>
						<path class="st8" d="M258.3,89.8c0.4,0.8,0.7,1.5,1,2.3c0.2,0.6,0.4,1.2,0.6,1.8c0.1,0.4,0.3,1,0.1,1.4
							c-0.2,0.3-0.7,0.3-1,0.4c-0.6,0-1.1,0-1.7,0c-0.2,0-0.2,0.3,0,0.4c0.5,0.1,1.1,0.1,1.6,0c0.4,0,0.8-0.1,1.1-0.3
							c0.4-0.3,0.4-0.9,0.3-1.3c-0.2-1.3-0.8-2.6-1.4-3.7C258.7,90.4,258.6,90,258.3,89.8C258.3,89.7,258.3,89.7,258.3,89.8
							L258.3,89.8z"/>
					</g>
				</g>
				<g>
					<path class="st10" d="M254.1,98.6c0,1,0.1,2,0.3,2.9c0.7,2.6,3.6,3.3,5.1,1.1c0.7-1,0.8-2.4,1-3.7L254.1,98.6z"/>
				</g>
				<g>
					<g>
						<path class="st9" d="M234,90.2c-3.5-1-6.5,0.5-6.2,4.5c0.1,1.7,0.7,3.3,1.8,4.6c1.1,1.2,2.8,2,4.4,1.9
							c1.7-0.1,3.3-1.2,3.8-2.8L234,90.2z"/>
					</g>
					<g>
						<g>
							<path class="st8" d="M229.5,93.6c0.1-0.1,0.2-0.3,0.3-0.4s0.2-0.2,0.3-0.3c0.2-0.2,0.4-0.3,0.6-0.3c0.4-0.1,0.9,0,1.3,0.2
								c0.4,0.2,0.8,0.4,1.1,0.7c0.4,0.4,0.6,1,0.8,1.5c0.2,0.9,0.2,1.9,0,2.8c0,0.2,0.2,0.3,0.3,0.1c0.3-0.9,0.3-1.8,0.1-2.7
								c-0.1-0.6-0.4-1.4-0.8-1.8c-0.7-0.7-1.8-1.3-2.8-1c-0.3,0.1-0.5,0.2-0.7,0.4c-0.1,0.1-0.2,0.2-0.3,0.4c0,0.1-0.1,0.1-0.1,0.2
								C229.5,93.4,229.5,93.5,229.5,93.6C229.4,93.6,229.5,93.7,229.5,93.6L229.5,93.6z"/>
						</g>
					</g>
					<g>
						<g>
							<path class="st36" d="M231.6,99.4c0.7,0.3,1,1.2,1,1.9c0.1,0.9-0.1,1.7-0.3,2.5c-0.1,0.4-0.3,0.7-0.5,1
								c-0.4,0.5-1.1,0.8-1.7,0.8c-1.3,0.1-2.1-1.1-2.1-2.3c0-0.6,0.1-1.3,0.4-1.8c0.3-0.6,0.8-1,1.2-1.6c0.1-0.1,0-0.3-0.1-0.2
								c-1,0.8-1.8,2-1.8,3.3c0,1.2,0.5,2.6,1.7,3c0.7,0.2,1.4,0,2-0.3c0.5-0.3,0.8-0.7,1.1-1.1c0.4-0.9,0.6-2,0.6-3
								C232.9,100.7,232.6,99.6,231.6,99.4C231.5,99.4,231.5,99.4,231.6,99.4L231.6,99.4z"/>
						</g>
					</g>
				</g>
				<path class="st48" d="M242.4,83.6c1.8-2,5.1-2.1,6.6-0.2"/>
				<path class="st48" d="M261.1,82.1c1.3-1.5,3.7-1.6,4.8-0.2"/>
			</g>
			<g>
				<path class="st36" d="M270.2,117.3c7.7-0.4,26.8,4.5,35.1,11.1c10.7,8.6,20.3,16.3,20.3,16.3l-22.2,37.5l-6.9-4.8l2.2,41.8
					L194,218l6.2-59.5l-10.8,17.4l-1.8-56c0,0,9.8-10.6,23.4-9.4c5.4,0.5,11.6,2,15,3.6c0,0,4.5,14.8,23.7,15.3
					C267,130.2,270.2,117.3,270.2,117.3z"/>
			</g>
			<g>
				<g>
					<defs>
						<path id="SVGID_11_" d="M270.2,117.3c7.7-0.4,26.8,4.5,35.1,11.1c10.7,8.6,20.3,16.3,20.3,16.3l-22.2,37.5l-6.9-4.8l2.2,41.8
							L194,218l6.2-59.5l-10.8,17.4l-1.8-56c0,0,9.8-10.6,23.4-9.4c5.4,0.5,11.6,2,15,3.6c0,0,4.5,14.8,23.7,15.3
							C267,130.2,270.2,117.3,270.2,117.3z"/>
					</defs>
					<clipPath id="SVGID_8_">
						<use xlink:href="#SVGID_11_"  style="overflow:visible;"/>
					</clipPath>
					<g class="st49">
						<path class="st34" d="M235,184.6c-3.1,3.7-8.6,4.3-12.3,1.2s-4.3-8.6-1.2-12.3L235,184.6z"/>
						<path class="st34" d="M214.4,113.4c-3.1,3.7-8.6,4.3-12.3,1.2c-3.7-3.1-4.3-8.6-1.2-12.3L214.4,113.4z"/>
						<path class="st34" d="M272.5,146.6c-3.1,3.7-8.6,4.3-12.3,1.2c-3.7-3.1-4.3-8.6-1.2-12.3L272.5,146.6z"/>
						<path class="st34" d="M275.8,185.1c-3.1,3.7-8.6,4.3-12.3,1.2c-3.7-3.1-4.3-8.6-1.2-12.3L275.8,185.1z"/>
						<path class="st34" d="M205.6,141.1c3.1-3.7,8.6-4.3,12.3-1.2s4.3,8.6,1.2,12.3L205.6,141.1z"/>
						<path class="st34" d="M282.8,129c3.1-3.7,8.6-4.3,12.3-1.2c3.7,3.1,4.3,8.6,1.2,12.3L282.8,129z"/>
						<path class="st34" d="M290.5,185.3c3.1-3.7,8.6-4.3,12.3-1.2c3.7,3.1,4.3,8.6,1.2,12.3L290.5,185.3z"/>
						<path class="st34" d="M245.3,152.3c3.9,2.9,4.7,8.4,1.8,12.2c-2.9,3.9-8.4,4.7-12.2,1.8L245.3,152.3z"/>
						<path class="st34" d="M313.2,147.8c3.9,2.9,4.7,8.4,1.8,12.2s-8.4,4.7-12.2,1.8L313.2,147.8z"/>
						<path class="st34" d="M253.3,196.2c3.9,2.9,4.7,8.4,1.8,12.2s-8.4,4.7-12.2,1.8L253.3,196.2z"/>
						<path class="st34" d="M189.8,131.9c3.9,2.9,4.7,8.4,1.8,12.2s-8.4,4.7-12.2,1.8L189.8,131.9z"/>
						<path class="st34" d="M277.9,170.8c-3.9-2.9-4.7-8.4-1.8-12.2c2.9-3.9,8.4-4.7,12.2-1.8L277.9,170.8z"/>
						<path class="st34" d="M227.8,131c-3.9-2.9-4.7-8.4-1.8-12.2s8.4-4.7,12.2-1.8L227.8,131z"/>
						<path class="st34" d="M209.1,212.1c-3.9-2.9-4.7-8.4-1.8-12.2c2.9-3.9,8.4-4.7,12.2-1.8L209.1,212.1z"/>
						<path class="st34" d="M283.7,213.8c-3.9-2.9-4.7-8.4-1.8-12.2c2.9-3.9,8.4-4.7,12.2-1.8L283.7,213.8z"/>
						<path class="st10" d="M200.3,149.3c0,0.8-0.6,1.4-1.4,1.4c-0.8,0-1.4-0.6-1.4-1.4c0-0.8,0.6-1.4,1.4-1.4
							C199.7,147.8,200.3,148.5,200.3,149.3z"/>
						<path class="st10" d="M238.5,144.1c0,0.8-0.6,1.4-1.4,1.4c-0.8,0-1.4-0.6-1.4-1.4c0-0.8,0.6-1.4,1.4-1.4
							C237.9,142.7,238.5,143.3,238.5,144.1z"/>
						<path class="st10" d="M283.9,138.2c0,0.8-0.6,1.4-1.4,1.4c-0.8,0-1.4-0.6-1.4-1.4c0-0.8,0.6-1.4,1.4-1.4
							C283.3,136.7,283.9,137.4,283.9,138.2z"/>
						<path class="st10" d="M287.9,177.5c0,0.8-0.6,1.4-1.4,1.4s-1.4-0.6-1.4-1.4s0.6-1.4,1.4-1.4S287.9,176.7,287.9,177.5z"/>
						<path class="st10" d="M305.5,173.5c0,0.8-0.6,1.4-1.4,1.4s-1.4-0.6-1.4-1.4c0-0.8,0.6-1.4,1.4-1.4
							C304.9,172.1,305.5,172.7,305.5,173.5z"/>
						<path class="st10" d="M263.4,161.7c0,0.8-0.6,1.4-1.4,1.4c-0.8,0-1.4-0.6-1.4-1.4c0-0.8,0.6-1.4,1.4-1.4
							C262.8,160.3,263.4,160.9,263.4,161.7z"/>
						<path class="st10" d="M309.7,142.7c0,0.8-0.6,1.4-1.4,1.4s-1.4-0.6-1.4-1.4c0-0.8,0.6-1.4,1.4-1.4
							C309,141.2,309.7,141.9,309.7,142.7z"/>
						<circle class="st10" cx="276.3" cy="121.6" r="1.4"/>
						<path class="st10" d="M189.2,118.7c0,0.8-0.6,1.4-1.4,1.4s-1.4-0.6-1.4-1.4s0.6-1.4,1.4-1.4S189.2,118,189.2,118.7z"/>
						<path class="st10" d="M211.4,125.5c0,0.8-0.6,1.4-1.4,1.4c-0.8,0-1.4-0.6-1.4-1.4s0.6-1.4,1.4-1.4S211.4,124.7,211.4,125.5z"
							/>
						<path class="st10" d="M235.1,202.8c0,0.8-0.6,1.4-1.4,1.4c-0.8,0-1.4-0.6-1.4-1.4c0-0.8,0.6-1.4,1.4-1.4
							S235.1,202,235.1,202.8z"/>
						<path class="st10" d="M223.9,165.9c0,0.8-0.6,1.4-1.4,1.4c-0.8,0-1.4-0.6-1.4-1.4c0-0.8,0.6-1.4,1.4-1.4
							C223.2,164.5,223.9,165.1,223.9,165.9z"/>
						<path class="st10" d="M208.1,180.7c0,0.8-0.6,1.4-1.4,1.4c-0.8,0-1.4-0.6-1.4-1.4s0.6-1.4,1.4-1.4
							C207.5,179.3,208.1,179.9,208.1,180.7z"/>
						<path class="st10" d="M248.9,182.1c0,0.8-0.6,1.4-1.4,1.4s-1.4-0.6-1.4-1.4c0-0.8,0.6-1.4,1.4-1.4S248.9,181.3,248.9,182.1z"
							/>
						<path class="st10" d="M273.3,211.3c0,0.8-0.6,1.4-1.4,1.4c-0.8,0-1.4-0.6-1.4-1.4c0-0.8,0.6-1.4,1.4-1.4
							S273.3,210.5,273.3,211.3z"/>
					</g>
				</g>
			</g>
			<line class="st44" x1="200.3" y1="158.7" x2="208.6" y2="161.7"/>
			<path class="st44" d="M296.6,177.5c0,0-0.6-20.4,1.1-26.1"/>
			<path class="st44" d="M235.7,131.4c10.1,6.9,29.6,5.3,36.7-5.6"/>
			<path class="st44" d="M273.5,123.6c0,0,1.4-2.1,1.8-4.4"/>
		</g>
	</g>
</g>
</svg>
