<?xml version="1.0" encoding="utf-8"?>
<!-- Generator: Adobe Illustrator 24.3.0, SVG Export Plug-In . SVG Version: 6.00 Build 0)  -->
<svg version="1.1" id="Capa_1" xmlns="http://www.w3.org/2000/svg" xmlns:xlink="http://www.w3.org/1999/xlink" x="0px" y="0px"
	 viewBox="0 0 632.6 412.9" style="enable-background:new 0 0 632.6 412.9;" xml:space="preserve">
<style type="text/css">
	.st0{clip-path:url(#SVGID_2_);}
	.st1{fill:#F16E7F;}
	.st2{fill:#E6EFFF;}
	.st3{fill:#000100;}
	.st4{fill:none;stroke:#FCB209;stroke-linejoin:round;stroke-miterlimit:10;}
	.st5{fill:#73371E;}
	.st6{fill:none;stroke:#000100;stroke-width:0.75;stroke-miterlimit:10;}
	.st7{fill:#FFD150;}
	.st8{fill:#231F20;}
	.st9{fill:#FCB209;}
	.st10{fill:none;stroke:#E25923;stroke-width:0.75;stroke-miterlimit:10;}
	.st11{fill:#E5576F;}
	.st12{fill:none;stroke:#000100;stroke-width:0.75;stroke-linecap:round;stroke-linejoin:round;stroke-miterlimit:10;}
	.st13{fill:#FFFFFF;}
	.st14{fill:none;stroke:#000100;stroke-width:1.5;stroke-miterlimit:10;}
	.st15{fill:#4574F4;}
	.st16{fill:none;stroke:#508DF9;stroke-width:5;stroke-miterlimit:10;}
	.st17{fill:#9B513A;}
	.st18{fill:#E6BFEF;}
	.st19{fill:#441919;}
	.st20{fill:none;stroke:#4574F4;stroke-linejoin:round;stroke-miterlimit:10;}
	.st21{fill:#B3CBFF;}
	.st22{fill:#B7885E;}
	.st23{fill:#B2D1FF;}
	.st24{opacity:0.65;}
	.st25{clip-path:url(#SVGID_4_);}
	.st26{fill:none;stroke:#FFFFFF;stroke-miterlimit:10;}
	.st27{fill:none;stroke:#FFE6C7;stroke-width:0.75;stroke-miterlimit:10;}
	.st28{fill:none;stroke:#000100;stroke-miterlimit:10;}
	.st29{fill:#FFE1C0;}
	.st30{fill:#893A1F;}
	.st31{fill:#F97919;}
	.st32{fill:#59230F;}
	.st33{fill:none;stroke:#774022;stroke-linejoin:round;stroke-miterlimit:10;}
	.st34{fill:#374689;}
	.st35{fill:#FFCFDC;}
	.st36{opacity:0.35;clip-path:url(#SVGID_6_);}
	.st37{fill:#FFA1BE;}
	.st38{fill:none;stroke:#AA3C4C;stroke-width:0.75;stroke-miterlimit:10;}
	.st39{fill:#682918;}
	.st40{fill:none;stroke:#374689;stroke-linecap:round;stroke-linejoin:round;stroke-miterlimit:10;}
	.st41{fill:#1DA8DE;}
</style>
<g>
	<text transform="matrix(1 0 0 1 154.6021 610.506)" class="st13" style="font-family:'Roboto-Medium'; font-size:38px;">Avisos importantes</text>
</g>
<g>
	<defs>
		<rect id="SVGID_1_" x="0.8" y="2.3" width="626.8" height="397.8"/>
	</defs>
	<clipPath id="SVGID_2_">
		<use xlink:href="#SVGID_1_"  style="overflow:visible;"/>
	</clipPath>
	<g class="st0">
		<g>
			<g>
				<path class="st1" d="M387.2,257c-1.5,20.7-0.8,48.7-0.7,72.3c0.1,37.8,3.8,99.7,3.8,99.7l1.5,18.1l-56.7,1.9l19.3-11.4
					c-5.7-56.9-10-114.1-10.2-173.4"/>
				<g>
					<g>
						<polygon class="st2" points="353.2,439.9 392,440.7 391.1,429.3 352.9,430.8 						"/>
						<path class="st3" d="M392,435.3l1.5,21.8h-66.3v-4.5c0-1.8,1-3.5,2.6-4.3l23.1-11.8L392,435.3z"/>
						<line class="st4" x1="393.2" y1="452.6" x2="327.3" y2="452.6"/>
						<path class="st4" d="M392.3,439.7c0,0-12.4,1-17.4,12.9"/>
						<path class="st4" d="M337.7,444.4c0,0,4.6,3.8,4.8,8.2"/>
						<polyline class="st4" points="354.7,439.9 350.1,437.3 350.7,442.1 346.3,439.7 346.3,444 343.7,440.8 						"/>
						<line class="st4" x1="387.1" y1="429.6" x2="387.2" y2="433"/>
						<line class="st4" x1="380.2" y1="429.8" x2="380.4" y2="433.3"/>
						<line class="st4" x1="372.6" y1="430.2" x2="372.8" y2="433.7"/>
						<line class="st4" x1="365.7" y1="430.5" x2="365.9" y2="433.9"/>
						<line class="st4" x1="357.8" y1="430.9" x2="357.9" y2="434.4"/>
					</g>
				</g>
				<path class="st1" d="M388.1,259.7c0,0,12.1,71,22.9,93.3c3.6,7.4,41.6,68,41.6,68l28.5-13.4l-36-76.1L434.4,278"/>
				<path class="st5" d="M394.1,223c-1.7,30.5-2.8,90.7-2.8,90.7h-53.1c0,0,0.4-71.9,1.1-84.5c1.2-20.3,6.8-31.5,6.8-31.5"/>
				<path class="st5" d="M380.1,216.1c6.1,47.3,15.6,97.6,15.6,97.6l52.5-10.3l-10.1-58.9c-1-3.9-1.6-7.9-1.9-11.9
					c-0.7-8.5-2.8-25.1-9.9-33.8"/>
				<path class="st6" d="M443.7,304.2l-10.6-58.6c-1-3.9-1.6-7.9-1.9-11.9c-0.7-8.5-2.8-25.1-9.9-33.8"/>
				<path class="st6" d="M405.7,217.7c6.2,7.8,15.6,12.9,25.4,13.7"/>
				<path class="st6" d="M339.2,236c7.3-3,12.8-10.1,13.8-17.9"/>
				<path class="st6" d="M339.2,232.9c4.6-3.3,8.4-7.8,10.6-13"/>
				<path class="st6" d="M410.6,218.2c5.2,5.4,12.7,9.1,20.1,10.4"/>
				<g>
					<g>
						<polygon class="st2" points="452.9,427.7 484.1,407.7 477.4,399.1 447.8,420.6 						"/>
						<path class="st3" d="M481.3,403.4l12.8,16.5L441.5,455l-2.4-3.5c-1-1.4-1-3.3-0.2-4.8l12.1-21.6L481.3,403.4z"/>
						<line class="st4" x1="491.4" y1="416.5" x2="439.1" y2="451.5"/>
						<path class="st4" d="M483.9,406.8c0,0-9.3,7.3-6.9,19.4"/>
						<path class="st4" d="M443.1,439.4c0,0,5.7,0.5,8.2,4"/>
						<polyline class="st4" points="454.1,426.9 449.1,427.3 452.1,430.7 447.4,431.2 449.6,434.6 445.8,433.4 						"/>
						<line class="st4" x1="474.3" y1="401.5" x2="476.3" y2="404.1"/>
						<line class="st4" x1="469" y1="405.3" x2="471" y2="408"/>
						<line class="st4" x1="463.2" y1="409.7" x2="465.2" y2="412.3"/>
						<line class="st4" x1="457.9" y1="413.5" x2="459.8" y2="416.2"/>
						<line class="st4" x1="451.8" y1="418.1" x2="453.7" y2="420.7"/>
					</g>
				</g>
				<path class="st6" d="M391.3,290.6c0,0-8.6-55.7-11.2-82.3"/>
				<line class="st6" x1="394.1" y1="305.8" x2="446.5" y2="295.2"/>
				<path class="st6" d="M384.2,313.6c0,0,2.3-31,3.7-44.7"/>
				<line class="st6" x1="338.2" y1="305.8" x2="391.3" y2="306.6"/>
			</g>
			<g>
				<g>
					<path class="st7" d="M339.7,213.8c-0.1,2.3-0.2,4.6-0.3,7c4.3,1.9,11.4,3.5,16.1,3.9c27.5,2.1,56.5-1.6,77.4-11.3
						c-2.1-5.9-2.4-12.7-4.4-16.7"/>
				</g>
				<g>
					<g>
						<g>
							<path class="st8" d="M240.3,35.2c-0.8,2.2-1.2,4.5-1.1,6.8c0.1,2.2,0.5,4.6,1.6,6.5c0.2,0.3,0.6,0.1,0.5-0.2
								c-0.3-1-0.6-2-0.8-3.1c-0.2-1.1-0.4-2.2-0.4-3.3c-0.1-2.2,0.1-4.4,0.7-6.6C241,35,240.5,34.9,240.3,35.2L240.3,35.2z"/>
						</g>
					</g>
					<g>
						<g>
							<path class="st8" d="M234,37.9c-0.7,1.9-1.1,3.9-1.2,6c-0.1,1.9,0.1,4.1,1,5.8c0.1,0.2,0.5,0.1,0.5-0.1
								c-0.1-0.9-0.3-1.9-0.5-2.8c-0.1-0.9-0.2-1.9-0.2-2.8c0-2,0.3-3.9,0.9-5.8C234.5,37.8,234.1,37.6,234,37.9L234,37.9z"/>
						</g>
					</g>
					<g>
						<path class="st1" d="M280.9,60.4c-6.9-9.7-11.1-24.3-12.8-24.8c-0.8-0.2-1.3,0.5-1.4,1.6c-0.3,2.4,0.8,6.4-0.6,6.7
							c-0.8,0.2-5-9.2-7.7-12.9c-1-1.3-2.3-0.2-2,0.8c0.9,3.8,4.6,12.5,4.6,12.5c-0.6,0.2-4.6-9.9-7.5-13.1
							c-0.6-0.7-2.2-0.2-1.9,0.8c0.9,4,5.1,14.7,5.1,14.7s-4-10.3-6.9-13c-0.5-0.5-1.9,0.2-1.7,0.9c0.7,3.1,5.5,15.2,5.5,15.2
							s-3.7-8.7-5.6-11c-0.5-0.6-2,0.4-1.8,1.2c0.8,6.2,13.2,30.3,13.2,30.3"/>
					</g>
					<g>
						<path class="st7" d="M257.2,72c-0.8-2.1-1.7-4.1-2.5-6.2c5.8-6,14.3-10.3,23.4-12.7c1.7,2.2,3.2,4.6,4.2,7.2"/>
					</g>
					<g>
						<g>
							<path class="st3" d="M255.2,51.7c1.8,0.6,3.6,1.2,5.2,2.3c0.7,0.5,1.3,1.1,1.8,1.8c0.2,0.3,0.5,0.7,0.7,1.1
								c0.2,0.4,0.3,0.8,0.5,1.2c0.1,0.2,0.3,0.1,0.3-0.1c0-0.8-0.5-1.8-1-2.4c-0.5-0.7-1.1-1.4-1.8-1.9c-1.6-1.2-3.6-2-5.6-2.3
								C255.1,51.3,255,51.6,255.2,51.7L255.2,51.7z"/>
						</g>
					</g>
					<g>
						<g>
							<path class="st3" d="M266.9,45.7c-0.2,1.6-0.2,3.1,0.1,4.7c0.2,0.8,0.4,1.5,0.7,2.3c0.3,0.7,0.6,1.5,1.2,2
								c0.1,0.1,0.4,0,0.4-0.2c-0.2-0.7-0.6-1.3-0.9-2c-0.3-0.7-0.5-1.4-0.7-2.2c-0.3-1.5-0.4-3-0.3-4.6
								C267.4,45.6,267,45.5,266.9,45.7L266.9,45.7z"/>
						</g>
					</g>
				</g>
				<g>
					<g>
						<g>
							<path class="st8" d="M533.9,59c0.9,2.1,1.5,4.2,1.7,6.5c0.1,1,0.1,2.1,0.1,3.2c0,1.1-0.2,2.2-0.4,3.2c0,0.4,0.5,0.4,0.6,0.1
								c0.8-2.1,0.9-4.6,0.6-6.8c-0.3-2.3-1.1-4.4-2.1-6.4C534.2,58.4,533.8,58.7,533.9,59L533.9,59z"/>
						</g>
					</g>
					<g>
						<g>
							<path class="st8" d="M540.7,60.6c0.9,1.7,1.5,3.6,1.8,5.5c0.1,1,0.2,1.9,0.2,2.9c0,0.9-0.1,1.9,0,2.8c0,0.3,0.4,0.3,0.5,0.1
								c0.6-1.8,0.4-4,0.1-5.9c-0.4-2-1.1-3.9-2.1-5.7C541,60.1,540.6,60.4,540.7,60.6L540.7,60.6z"/>
						</g>
					</g>
					<g>
						<path class="st1" d="M485.9,74.7c10.6-5.5,20.9-16.6,22.7-16.2c0.8,0.2,0.9,1,0.5,2c-0.9,2.2-3.7,5.3-2.5,6.2
							c0.7,0.5,8.7-5.9,12.7-7.9c1.5-0.7,2.1,0.9,1.5,1.6c-2.5,3-9.8,9-9.8,9c0.4,0.4,8.6-6.7,12.6-8.2c0.9-0.3,2,0.8,1.4,1.6
							c-2.7,3.2-11.2,10.7-11.2,10.7s8.3-7.4,12.1-8.4c0.7-0.2,1.6,1,1.1,1.6c-2,2.5-11.8,11-11.8,11s7.2-6,10-7.2
							c0.7-0.3,1.6,1.3,1.1,1.9c-3.6,5.1-25.6,21-25.6,21"/>
					</g>
					<g>
						<path class="st7" d="M503.1,95.3c1.6-1.5,3.2-3.1,4.8-4.6c-2.9-7.8-8.9-15.2-16.3-21c-2.5,1.3-4.7,2.9-6.7,4.9"/>
					</g>
					<g>
						<g>
							<path class="st3" d="M512.4,76.7c-1.8-0.4-3.7-0.5-5.5-0.1c-0.7,0.2-1.5,0.5-2.1,0.9c-0.6,0.4-1.3,0.9-1.6,1.6
								c-0.1,0.1,0.1,0.3,0.3,0.2c0.3-0.2,0.5-0.5,0.7-0.7c0.3-0.3,0.6-0.5,0.9-0.7c0.6-0.4,1.3-0.6,2-0.8c1.7-0.4,3.4-0.2,5.2-0.1
								C512.5,77.1,512.6,76.7,512.4,76.7L512.4,76.7z"/>
						</g>
					</g>
					<g>
						<g>
							<path class="st3" d="M504.4,67.2c-0.5,1.4-1.2,2.8-2.1,4c-0.4,0.6-0.9,1.1-1.5,1.7c-0.5,0.5-1.2,1-1.7,1.5
								c-0.1,0.1,0,0.4,0.2,0.4c0.7-0.3,1.3-0.9,1.8-1.4c0.6-0.5,1.1-1.2,1.5-1.8c0.9-1.3,1.6-2.7,2.1-4.3
								C504.8,67.1,504.4,67,504.4,67.2L504.4,67.2z"/>
						</g>
					</g>
				</g>
				<g>
					<path class="st9" d="M386.5,106.3c14.9-8.3,29.6-4.6,45.8-9c19.3-5.3,42.1-28.1,51-28c9,0.2,20.6,19.3,20.6,28.6
						c0,5.8-15.9,17.3-40,27.3c-14.8,6.1-42.9,14.1-42.9,14.1c5.4,52.8,13.5,57.3,9.8,68.3c-2,5.7-34.8,13.5-56,13.5
						c-20.1,0-33-1.9-35.9-6.1c-1.9-2.8-1.5-10.8-1.8-21.3c-0.5-22,0.3-52.7,0.3-52.7s-34.4-6-54.1-24.4
						c-11.4-10.6-30.1-34.2-30.1-41.7c0-7.5,23.1-21.5,29.8-18c4.2,2.2,9.2,15.3,20.2,27.2c6.6,7.2,18,14.7,25.1,16.9
						c13.3,4.1,27.4,0.7,38.9,4.6"/>
				</g>
				<g>
					<path class="st9" d="M377.2,120.7c-12.7,0.7-25.3-13.4-24.6-25.8c0.3-5.6,3.6-10.8,8.1-14.1s10.3-4.7,15.9-4.6
						c5.6,0.1,11.1,1.5,16.3,3.7c4.1,1.7,8.2,3.9,11.4,6.9c3.7,3.5,5,7.3,4,12.4c-2,10.2-10.6,17.2-19.2,21.1"/>
				</g>
				<path class="st6" d="M367,110.6c0,0.6-0.5,1.1-1.1,1.1c-0.6,0-1.1-0.5-1.1-1.1s0.5-1.1,1.1-1.1C366.5,109.6,367,110,367,110.6z"
					/>
				<path class="st6" d="M393.5,113.6c0,0.6-0.5,1.1-1.1,1.1s-1.1-0.5-1.1-1.1c0-0.6,0.5-1.1,1.1-1.1S393.5,113,393.5,113.6z"/>
				<path class="st6" d="M354.6,104.3c3.1,6.9,9.5,11,16.3,13.6"/>
				<path class="st6" d="M388.2,117.7c8.2-1.9,17.1-9.2,19.6-16.7"/>
				<path class="st10" d="M366,110.6c0.1,13.1,1.1,26.2,3,39.1"/>
				<path class="st10" d="M392.4,113.4c2,14.5,4.7,29,8.1,43.3"/>
				<path class="st6" d="M337.7,140.9c0.5-6.5,0.4-12.1-1.4-15.7"/>
				<path class="st6" d="M421.3,139.7c-0.6-4.8-1-9.7-0.9-14.6c0-0.7,0-1.5,0.3-2.2c0.3-0.7,0.9-1.3,1.6-1.4"/>
				<g>
					<g>
						<path class="st7" d="M325.4,125.7c-0.2,0-0.4-0.1-0.5-0.4l-1.3-4.5c-0.1-0.3,0.1-0.6,0.4-0.6c0.3-0.1,0.6,0.1,0.6,0.4l1.3,4.5
							c0.1,0.3-0.1,0.6-0.4,0.6C325.5,125.7,325.5,125.7,325.4,125.7z"/>
					</g>
					<g>
						<path class="st7" d="M344.5,134.9c-0.1,0-0.2,0-0.3-0.1c-0.2-0.2-0.2-0.5,0-0.7l3.1-3.5c0.2-0.2,0.5-0.2,0.7,0
							c0.2,0.2,0.2,0.5,0,0.7l-3.1,3.5C344.8,134.9,344.7,134.9,344.5,134.9z"/>
					</g>
					<g>
						<path class="st7" d="M351.4,186c-0.1,0-0.2,0-0.3-0.1c-0.2-0.2-0.2-0.5,0-0.7l3.1-3.5c0.2-0.2,0.5-0.2,0.7,0
							c0.2,0.2,0.2,0.5,0,0.7l-3.1,3.5C351.7,186,351.6,186,351.4,186z"/>
					</g>
					<g>
						<path class="st7" d="M420.2,183.1c-0.1,0-0.2,0-0.3-0.1c-0.2-0.1-0.3-0.5-0.2-0.7l2.4-4c0.1-0.2,0.5-0.3,0.7-0.2
							c0.2,0.1,0.3,0.5,0.2,0.7l-2.4,4C420.5,183,420.4,183.1,420.2,183.1z"/>
					</g>
					<g>
						<path class="st7" d="M373.3,162.2c-0.1,0-0.2,0-0.3-0.1c-0.2-0.2-0.2-0.5,0-0.7l3.1-3.5c0.2-0.2,0.5-0.2,0.7,0
							c0.2,0.2,0.2,0.5,0,0.7l-3.1,3.5C373.6,162.2,373.5,162.2,373.3,162.2z"/>
					</g>
					<g>
						<path class="st7" d="M411,158.9c-0.1,0-0.2,0-0.3-0.1c-0.2-0.2-0.2-0.5,0-0.7l3.1-3.5c0.2-0.2,0.5-0.2,0.7,0
							c0.2,0.2,0.2,0.5,0,0.7l-3.1,3.5C411.3,158.8,411.1,158.9,411,158.9z"/>
					</g>
					<g>
						<path class="st7" d="M388.2,178.3c-0.2,0-0.4-0.1-0.5-0.4c-0.1-0.3,0.1-0.6,0.3-0.6l4.4-1.5c0.3-0.1,0.6,0.1,0.6,0.3
							c0.1,0.3-0.1,0.6-0.3,0.6l-4.4,1.5C388.3,178.3,388.2,178.3,388.2,178.3z"/>
					</g>
					<g>
						<path class="st7" d="M408.8,209.3c-0.2,0-0.4-0.1-0.5-0.4c-0.1-0.3,0.1-0.6,0.3-0.6l4.4-1.5c0.3-0.1,0.6,0.1,0.6,0.3
							c0.1,0.3-0.1,0.6-0.3,0.6l-4.4,1.5C408.9,209.3,408.8,209.3,408.8,209.3z"/>
					</g>
					<g>
						<path class="st7" d="M361.2,121.5C361.2,121.5,361.2,121.5,361.2,121.5l-4.7-0.7c-0.3,0-0.5-0.3-0.4-0.6
							c0-0.3,0.3-0.5,0.6-0.4l4.6,0.7c0.3,0,0.5,0.3,0.4,0.6C361.7,121.4,361.5,121.5,361.2,121.5z"/>
					</g>
					<g>
						<path class="st7" d="M348.4,164.5C348.4,164.5,348.4,164.5,348.4,164.5l-4.7-0.7c-0.3,0-0.5-0.3-0.4-0.6
							c0-0.3,0.3-0.5,0.6-0.4l4.6,0.7c0.3,0,0.5,0.3,0.4,0.6C348.9,164.3,348.7,164.5,348.4,164.5z"/>
					</g>
					<g>
						<path class="st7" d="M369.9,194.6c-0.1,0-0.2,0-0.3-0.1l-3.6-2.9c-0.2-0.2-0.3-0.5-0.1-0.7c0.2-0.2,0.5-0.3,0.7-0.1l3.6,2.9
							c0.2,0.2,0.3,0.5,0.1,0.7C370.2,194.5,370,194.6,369.9,194.6z"/>
					</g>
					<g>
						<path class="st7" d="M356,154.8c-0.2,0-0.4-0.1-0.5-0.4l-1.3-4.5c-0.1-0.3,0.1-0.6,0.4-0.6c0.3-0.1,0.6,0.1,0.6,0.4l1.3,4.5
							c0.1,0.3-0.1,0.6-0.4,0.6C356.1,154.8,356.1,154.8,356,154.8z"/>
					</g>
					<g>
						<path class="st7" d="M393.2,195.3c-0.2,0-0.4-0.1-0.5-0.4l-1.3-4.5c-0.1-0.3,0.1-0.6,0.4-0.6c0.3-0.1,0.6,0.1,0.6,0.4l1.3,4.5
							c0.1,0.3-0.1,0.6-0.4,0.6C393.3,195.3,393.3,195.3,393.2,195.3z"/>
					</g>
					<g>
						<path class="st7" d="M384,137.8c0,0-0.1,0-0.1,0l-4.6-1c-0.3-0.1-0.5-0.3-0.4-0.6c0.1-0.3,0.3-0.5,0.6-0.4l4.6,1
							c0.3,0.1,0.5,0.3,0.4,0.6C384.5,137.6,384.3,137.8,384,137.8z"/>
					</g>
					<g>
						<path class="st7" d="M431.6,131.1c-0.1,0-0.2,0-0.3-0.1l-4-2.4c-0.2-0.1-0.3-0.5-0.2-0.7c0.1-0.2,0.5-0.3,0.7-0.2l4,2.4
							c0.2,0.1,0.3,0.5,0.2,0.7C431.9,131,431.7,131.1,431.6,131.1z"/>
					</g>
					<g>
						<path class="st7" d="M454.6,125c0,0-0.1,0-0.1,0l-4.5-1.1c-0.3-0.1-0.4-0.3-0.4-0.6c0.1-0.3,0.3-0.4,0.6-0.4l4.5,1.1
							c0.3,0.1,0.4,0.3,0.4,0.6C455,124.9,454.8,125,454.6,125z"/>
					</g>
					<g>
						<path class="st7" d="M411.5,126.6c-0.1,0-0.3-0.1-0.4-0.2c-0.2-0.2-0.2-0.5,0-0.7l3.4-3.3c0.2-0.2,0.5-0.2,0.7,0
							c0.2,0.2,0.2,0.5,0,0.7l-3.4,3.3C411.8,126.5,411.7,126.6,411.5,126.6z"/>
					</g>
					<g>
						<path class="st7" d="M449.1,112.6c-0.1,0-0.2,0-0.3-0.1l-3.6-3c-0.2-0.2-0.2-0.5-0.1-0.7c0.2-0.2,0.5-0.2,0.7-0.1l3.6,3
							c0.2,0.2,0.2,0.5,0.1,0.7C449.4,112.6,449.3,112.6,449.1,112.6z"/>
					</g>
					<g>
						<path class="st7" d="M404.3,129.9c-0.1,0-0.2,0-0.3-0.1l-3.7-2.9c-0.2-0.2-0.3-0.5-0.1-0.7c0.2-0.2,0.5-0.3,0.7-0.1l3.7,2.9
							c0.2,0.2,0.3,0.5,0.1,0.7C404.6,129.8,404.4,129.9,404.3,129.9z"/>
					</g>
					<g>
						<path class="st7" d="M496.9,93.4c-0.1,0-0.2,0-0.3-0.1l-3.7-2.9c-0.2-0.2-0.3-0.5-0.1-0.7c0.2-0.2,0.5-0.3,0.7-0.1l3.7,2.9
							c0.2,0.2,0.3,0.5,0.1,0.7C497.2,93.3,497.1,93.4,496.9,93.4z"/>
					</g>
					<g>
						<path class="st7" d="M468.7,88.7c-0.1,0-0.2,0-0.3-0.1l-3.7-2.9c-0.2-0.2-0.3-0.5-0.1-0.7c0.2-0.2,0.5-0.3,0.7-0.1l3.7,2.9
							c0.2,0.2,0.3,0.5,0.1,0.7C469,88.6,468.8,88.7,468.7,88.7z"/>
					</g>
					<g>
						<path class="st7" d="M467.2,106.1C467.2,106.1,467.1,106.1,467.2,106.1l-4.7-0.8c-0.3-0.1-0.5-0.3-0.4-0.6
							c0.1-0.3,0.3-0.5,0.6-0.4l4.6,0.8c0.3,0.1,0.5,0.3,0.4,0.6C467.7,106,467.4,106.1,467.2,106.1z"/>
					</g>
					<g>
						<path class="st7" d="M426.1,107.2c-0.1,0-0.2,0-0.3-0.1c-0.2-0.2-0.3-0.5-0.1-0.7l2.9-3.7c0.2-0.2,0.5-0.3,0.7-0.1
							c0.2,0.2,0.3,0.5,0.1,0.7l-2.9,3.7C426.4,107.2,426.2,107.2,426.1,107.2z"/>
					</g>
					<g>
						<path class="st7" d="M478,108.9c-0.1,0-0.1,0-0.2,0c-0.3-0.1-0.4-0.4-0.3-0.7l1.7-4.3c0.1-0.3,0.4-0.4,0.7-0.3
							c0.3,0.1,0.4,0.4,0.3,0.7l-1.7,4.3C478.4,108.8,478.3,108.9,478,108.9z"/>
					</g>
					<g>
						<path class="st7" d="M411.1,166.7c0,0-0.1,0-0.1,0l-4.6-1c-0.3-0.1-0.5-0.3-0.4-0.6c0.1-0.3,0.3-0.5,0.6-0.4l4.6,1
							c0.3,0.1,0.5,0.3,0.4,0.6C411.5,166.6,411.3,166.7,411.1,166.7z"/>
					</g>
					<g>
						<path class="st7" d="M405.9,143.8c-0.2,0-0.3-0.1-0.4-0.2c-0.2-0.2-0.1-0.6,0.1-0.7l3.8-2.7c0.2-0.2,0.5-0.1,0.7,0.1
							c0.2,0.2,0.1,0.6-0.1,0.7l-3.8,2.7C406.1,143.8,406,143.8,405.9,143.8z"/>
					</g>
					<g>
						<path class="st7" d="M476.4,90.2c-0.2,0-0.3-0.1-0.4-0.2c-0.2-0.2-0.1-0.6,0.1-0.7l3.8-2.7c0.2-0.2,0.5-0.1,0.7,0.1
							c0.2,0.2,0.1,0.6-0.1,0.7l-3.8,2.7C476.6,90.2,476.5,90.2,476.4,90.2z"/>
					</g>
					<g>
						<path class="st7" d="M342.9,111.5c-0.1,0-0.2,0-0.3-0.1l-3.6-3c-0.2-0.2-0.2-0.5-0.1-0.7c0.2-0.2,0.5-0.2,0.7-0.1l3.6,3
							c0.2,0.2,0.2,0.5,0.1,0.7C343.2,111.4,343.1,111.5,342.9,111.5z"/>
					</g>
					<g>
						<path class="st7" d="M298.2,90.9c-0.2,0-0.3-0.1-0.4-0.3l-2.3-4c-0.1-0.2-0.1-0.6,0.2-0.7c0.2-0.1,0.6-0.1,0.7,0.2l2.3,4
							c0.1,0.2,0.1,0.6-0.2,0.7C298.3,90.9,298.2,90.9,298.2,90.9z"/>
					</g>
					<g>
						<path class="st7" d="M299.8,102.9c-0.2,0-0.3-0.1-0.4-0.2c-0.1-0.2-0.1-0.6,0.2-0.7l4-2.4c0.2-0.1,0.6-0.1,0.7,0.2
							c0.1,0.2,0.1,0.6-0.2,0.7l-4,2.4C300,102.9,299.9,102.9,299.8,102.9z"/>
					</g>
					<g>
						<path class="st7" d="M267.2,85c-0.3,0-0.5-0.2-0.5-0.5c0-0.3,0.2-0.5,0.5-0.6l4.7-0.4c0.3,0,0.5,0.2,0.6,0.5
							c0,0.3-0.2,0.5-0.5,0.6L267.2,85C267.2,85,267.2,85,267.2,85z"/>
					</g>
					<g>
						<path class="st7" d="M280.3,67.9c-0.2,0-0.4-0.1-0.5-0.3l-2.1-4.2c-0.1-0.3,0-0.6,0.2-0.7c0.3-0.1,0.6,0,0.7,0.2l2.1,4.2
							c0.1,0.3,0,0.6-0.2,0.7C280.4,67.8,280.4,67.9,280.3,67.9z"/>
					</g>
					<g>
						<path class="st7" d="M284.6,96.9C284.6,96.9,284.6,96.9,284.6,96.9l-4.7-0.2c-0.3,0-0.5-0.2-0.5-0.5c0-0.3,0.2-0.5,0.5-0.5
							l4.7,0.2c0.3,0,0.5,0.2,0.5,0.5C285.1,96.7,284.9,96.9,284.6,96.9z"/>
					</g>
					<g>
						<path class="st7" d="M330.8,113.3c0,0.8-0.6,1.4-1.4,1.4c-0.8,0-1.4-0.6-1.4-1.4c0-0.8,0.6-1.4,1.4-1.4
							C330.1,111.8,330.8,112.5,330.8,113.3z"/>
					</g>
					<g>
						<path class="st7" d="M286,79c0,0.8-0.6,1.4-1.4,1.4c-0.8,0-1.4-0.6-1.4-1.4c0-0.8,0.6-1.4,1.4-1.4C285.4,77.5,286,78.2,286,79
							z"/>
					</g>
					<g>
						<path class="st7" d="M263.7,73.1c0,0.8-0.6,1.4-1.4,1.4c-0.8,0-1.4-0.6-1.4-1.4c0-0.8,0.6-1.4,1.4-1.4
							C263.1,71.6,263.7,72.3,263.7,73.1z"/>
					</g>
					<g>
						<path class="st7" d="M363,136.8c0,0.8-0.6,1.4-1.4,1.4c-0.8,0-1.4-0.6-1.4-1.4c0-0.8,0.6-1.4,1.4-1.4
							C362.3,135.3,363,136,363,136.8z"/>
					</g>
					<g>
						<path class="st7" d="M345.8,177c0,0.8-0.6,1.4-1.4,1.4c-0.8,0-1.4-0.6-1.4-1.4c0-0.8,0.6-1.4,1.4-1.4
							C345.2,175.6,345.8,176.2,345.8,177z"/>
					</g>
					<g>
						<path class="st7" d="M368.4,174.2c0,0.8-0.6,1.4-1.4,1.4c-0.8,0-1.4-0.6-1.4-1.4c0-0.8,0.6-1.4,1.4-1.4
							C367.7,172.7,368.4,173.4,368.4,174.2z"/>
					</g>
					<g>
						<path class="st7" d="M417.6,110.6c0,0.8-0.6,1.4-1.4,1.4c-0.8,0-1.4-0.6-1.4-1.4c0-0.8,0.6-1.4,1.4-1.4
							C417,109.2,417.6,109.8,417.6,110.6z"/>
					</g>
					<g>
						<path class="st7" d="M493,102.7c0,0.8-0.6,1.4-1.4,1.4c-0.8,0-1.4-0.6-1.4-1.4c0-0.8,0.6-1.4,1.4-1.4
							C492.4,101.2,493,101.9,493,102.7z"/>
					</g>
					<g>
						<path class="st7" d="M451.4,97.1c0,0.8-0.6,1.4-1.4,1.4c-0.8,0-1.4-0.6-1.4-1.4c0-0.8,0.6-1.4,1.4-1.4
							C450.8,95.7,451.4,96.3,451.4,97.1z"/>
					</g>
					<g>
						<path class="st7" d="M481.2,75c0,0.8-0.6,1.4-1.4,1.4c-0.8,0-1.4-0.6-1.4-1.4c0-0.8,0.6-1.4,1.4-1.4
							C480.6,73.5,481.2,74.2,481.2,75z"/>
					</g>
					<g>
						<path class="st7" d="M466.3,115.1c0,0.8-0.6,1.4-1.4,1.4c-0.8,0-1.4-0.6-1.4-1.4c0-0.8,0.6-1.4,1.4-1.4
							C465.7,113.7,466.3,114.3,466.3,115.1z"/>
					</g>
					<g>
						<path class="st7" d="M440.8,121.5c0,0.8-0.6,1.4-1.4,1.4s-1.4-0.6-1.4-1.4c0-0.8,0.6-1.4,1.4-1.4S440.8,120.7,440.8,121.5z"/>
					</g>
					<g>
						<path class="st7" d="M409.2,182c0,0.8-0.6,1.4-1.4,1.4c-0.8,0-1.4-0.6-1.4-1.4c0-0.8,0.6-1.4,1.4-1.4
							C408.6,180.6,409.2,181.2,409.2,182z"/>
					</g>
					<g>
						<path class="st7" d="M356.2,211c0,0.8-0.6,1.4-1.4,1.4c-0.8,0-1.4-0.6-1.4-1.4c0-0.8,0.6-1.4,1.4-1.4
							C355.6,209.5,356.2,210.2,356.2,211z"/>
					</g>
					<g>
						<path class="st7" d="M380.9,124c0,0.8-0.6,1.4-1.4,1.4c-0.8,0-1.4-0.6-1.4-1.4c0-0.8,0.6-1.4,1.4-1.4
							C380.2,122.5,380.9,123.2,380.9,124z"/>
					</g>
					<g>
						<path class="st7" d="M393.8,149.8c0,0.8-0.6,1.4-1.4,1.4c-0.8,0-1.4-0.6-1.4-1.4s0.6-1.4,1.4-1.4
							C393.2,148.3,393.8,149,393.8,149.8z"/>
					</g>
					<g>
						<path class="st7" d="M284.6,105.2c0,0.8-0.6,1.4-1.4,1.4c-0.8,0-1.4-0.6-1.4-1.4c0-0.8,0.6-1.4,1.4-1.4
							C283.9,103.8,284.6,104.4,284.6,105.2z"/>
					</g>
				</g>
			</g>
			<g>
				<g>
					<path class="st11" d="M366.4,80.5c-0.4-0.7-1.3-1.1-2.1-1c-0.8,0.2-1.5,0.8-1.9,1.5c-0.4,0.7-0.6,1.5-0.7,2.4
						c-0.2,1.5-0.2,3.3,0.8,4.5c0.7,0.9,1.9,1.3,3,1.2c1.1-0.1,2.1-0.8,2.7-1.8"/>
				</g>
				<path class="st1" d="M376.4,102.8L376.4,102.8c-7.9-0.9-13.5-8-12.6-15.9l1.6-14.2l9.4-4.6l19.1,7.8l-1.6,14.2
					C391.4,98,384.3,103.7,376.4,102.8z"/>
				<g>
					<path class="st3" d="M400,81.1c0.9,0.8,0.9,2.3,0.4,3.4c-0.5,1.1-1.5,1.9-2.3,2.7c-0.1,0.1-0.3,0.3-0.3,0.5
						c0,0.2,0.1,0.5,0.2,0.7c0.2,0.7-0.6,1.2-1.2,1.5c-0.9,0.5-1.9,1-2.8,1.5c-0.3,0.2-1-3.7-1-4c0-1.4-0.1-2.9-0.1-4.3
						c0-0.2,0-0.4-0.1-0.6c-0.1-0.4-0.5-0.6-0.7-0.9c-0.7-0.7-0.7-2-0.1-2.7c-2.1-0.7-3.7-2.5-4.1-4.6c-1.9,0.3-3.9-0.4-5.4-1.6
						c-0.2-0.1-0.3-0.3-0.5-0.3c-0.2,0-0.3,0-0.5,0c-1.8,0.3-3.7,0.4-5.1-0.8c-0.2-0.2-0.4-0.3-0.6-0.4c-0.2,0-0.4,0.1-0.6,0.2
						c-1.5,0.9-3.4,1.1-5.1,0.5c-0.6,1-1.7,1.8-2.8,2.1c-0.3,0.1-0.6,0.1-0.9,0.3c-0.2,0.1-0.4,0.4-0.5,0.6
						c-0.5,0.8-0.8,1.6-0.9,2.5c-0.8-0.7-1.2-2-0.8-3.1c0.1-0.2,0.1-0.3,0.1-0.5c-0.2-0.7-0.8-1.4-1-2.1c-0.2-0.9-0.1-2,0.4-2.8
						c0.1-0.2,0.3-0.5,0.3-0.7c0-0.2-0.1-0.4-0.1-0.6c-0.6-1.6-0.4-3.5,0.4-5c0.8-1.5,2.4-2.6,4-3c0.3-0.1,0.5-0.1,0.7-0.2
						c0.3-0.2,0.5-0.5,0.7-0.8c2.3-3.2,6.9-4.6,10.6-3.3c0.3,0.1,0.6,0.2,0.9,0.2c0.4,0,0.8-0.2,1.1-0.3c2.1-0.9,4.7-0.7,6.6,0.6
						c1,0.6,1.9,1.6,3.1,1.9c0.6,0.2,1.2,0.2,1.8,0.4c1.3,0.4,2.2,1.4,2.8,2.5c0.6,1.2,0.8,2.5,1,3.8c1.8,0.3,3.3,1.9,3.8,3.6
						c0.5,1.8,0.2,3.7-0.6,5.4c1.4,0.6,1.9,2.4,1.6,3.9C402,78.7,401,80,400,81.1z"/>
				</g>
				<path class="st1" d="M379.4,113c-5.1,0-9.9-4.6-10.5-6.1V96.6h19.8l0.2,12.9C386.9,111.4,382.7,113,379.4,113z"/>
				<g>
					<path class="st1" d="M390.8,85.6c1.3-1.8,4.2-2.1,6-0.7c1.8,1.4,2.3,4,1.5,6.1c-0.4,0.9-1,1.7-1.6,2.5
						c-0.5,0.6-1.1,1.2-1.7,1.7c-1,0.7-2.4,1-3.6,0.7c-1.2-0.3-2.3-1.3-2.5-2.5"/>
				</g>
				<path class="st6" d="M384.4,100.4c-4.1,2.5-11.2,2.5-15.5-0.4"/>
				<g>
					<g>
						<path class="st3" d="M396.5,87.7c-0.3-0.6-0.7-1-1.3-1.2c-0.6-0.1-1.2,0-1.8,0.4c-0.6,0.4-1,0.9-1.3,1.5
							c-0.2,0.3-0.3,0.7-0.4,1c-0.1,0.2-0.1,0.4-0.1,0.5c0,0.2-0.1,0.3,0,0.5c0,0.2,0.2,0.2,0.4,0.1c0.2-0.2,0.2-0.6,0.3-0.8
							c0.1-0.3,0.2-0.5,0.3-0.8c0.2-0.5,0.5-1.1,1-1.4c0.4-0.3,0.9-0.5,1.5-0.5c0.6,0,1.1,0.4,1.4,0.9
							C396.4,88,396.6,87.8,396.5,87.7L396.5,87.7z"/>
					</g>
				</g>
				<path class="st3" d="M382.6,84.3c0,0.8,0.6,1.4,1.4,1.5c0.8,0,1.4-0.6,1.5-1.4c0-0.8-0.6-1.4-1.4-1.5
					C383.3,82.9,382.6,83.5,382.6,84.3z"/>
				<path class="st3" d="M368.1,81.8c0,0.8,0.6,1.4,1.4,1.5c0.8,0,1.4-0.6,1.5-1.4c0-0.8-0.6-1.4-1.4-1.5
					C368.8,80.4,368.1,81,368.1,81.8z"/>
				<g>
					<g>
						<path class="st3" d="M374.1,84.8c-0.4,0.7-0.9,1.4-1.3,2.1c-0.3,0.5-0.5,1.1-0.7,1.7c-0.1,0.4-0.2,0.9,0.1,1.3
							c0.2,0.3,0.7,0.4,1,0.4c0.5,0.1,1,0.1,1.5,0c0.3,0,0.4-0.5,0.1-0.5c-0.4-0.1-0.8-0.1-1.2-0.1c-0.3,0-0.7,0-0.9-0.2
							c-0.2-0.2-0.1-0.7,0-1c0.3-1,0.8-2,1.1-3c0.1-0.3,0.2-0.5,0.3-0.8C374.3,84.8,374.2,84.7,374.1,84.8L374.1,84.8z"/>
					</g>
				</g>
				<path class="st12" d="M387.6,82.2c-1.2-2-4-2.6-5.6-1.3"/>
				<path class="st12" d="M371.6,79.3c-1.1-1.4-3.1-1.5-4.2-0.3"/>
				<g>
					<path class="st13" d="M379,92.6c0,2.1-1.2,4-2.8,4.8c-1.6,0.8-5,0.9-5.4-4.3L379,92.6z"/>
				</g>
				<g>
					<g>
						<path class="st3" d="M362.7,91c-1.2,1.2-1.7,2.6-1.6,4.3c0.1,1.7,0.9,3.4,1.7,4.9c0.9,1.6,2,3.1,3.1,4.5
							c1.2,1.6,2.5,3.1,3.9,4.5c1.6,1.5,3.4,2.9,5.5,3.7c2.3,0.9,4.7,1,7,0.4c4.2-1,8-3.6,10.7-6.9c1.5-1.8,2.6-3.7,3.5-5.8
							c0.9-2.2,1.5-4.6,1.4-6.9c0-0.3-0.5-0.4-0.5-0.1c-0.3,1.9-0.5,3.8-1.2,5.7c-0.6,1.9-1.5,3.6-2.7,5.3c-2.2,3.2-5.4,5.9-9,7.3
							c-2.3,0.9-4.8,1.5-7.3,0.9c-2.1-0.5-4-1.6-5.6-2.9c-1.5-1.3-2.9-2.8-4.2-4.4c-1-1.2-2-2.5-2.9-3.8c-1.9-2.8-4.4-7.4-1.6-10.5
							C362.9,91,362.8,90.9,362.7,91L362.7,91z"/>
					</g>
				</g>
			</g>
		</g>
		<g>
			<g>
				<g>
					<g>
						<path class="st1" d="M556.7,450l12.9-10.6L551,355l34.5-3.3c0,0,13.5,91.9,13.4,101.3c0,2.4-6.1,4.3-8.5,4.4l-8.9-0.3
							l-5.7,2.9"/>
						<g>
							<path class="st3" d="M598.1,441.7c-2.8,0.7-10.4,2.1-12.6,3.9c-1.8,1.5-3.1,3.4-4.8,5c-2,1.9-4.6,3.2-7.3,3.4
								c-2.7,0.2-5.6-0.8-7.4-2.8c-0.5-0.6-1-1.2-1.5-1.8c-1.3-1.4-3.3-2.3-5.2-2.3c-0.1,0-0.3,0-0.4,0.1c-0.2,0.1-0.2,0.3-0.3,0.4
								c-0.4,0.8-1.1,0.9-1.8,1.3c-0.6,0.4-1.2,0.9-1.8,1.3c-1.5,1-3,1.9-4.6,2.7c-2.2,1.1-6.6,2.3-8,4.6c-0.4,0.7-0.6,1.7-0.6,2.6
								v2.3h32.5c1.9,0,3.7-0.5,5.4-1.3l7.4-4.5l-0.4,5.8h12.3C598.9,462.3,599.4,445.5,598.1,441.7z"/>
						</g>
					</g>
					<path class="st14" d="M569,439c6.2,2.6,20.3,3.2,29.1,2.2"/>
				</g>
				<g>
					<g>
						<path class="st1" d="M469.4,450l12.9-10.6l5.3-84.5l34.5-3.3c0,0-10.4,91.9-10.5,101.3c0,2.4-6.1,4.3-8.5,4.4l-8.9-0.3
							l-5.7,2.9"/>
						<g>
							<path class="st3" d="M512.6,441.7c-2.8,0.7-12.1,2.1-14.4,3.9c-1.8,1.5-3.1,3.4-4.8,5c-2,1.9-4.6,3.2-7.3,3.4
								c-2.7,0.2-5.6-0.8-7.4-2.8c-0.5-0.6-1-1.2-1.5-1.8c-1.3-1.4-3.3-2.3-5.2-2.3c-0.1,0-0.3,0-0.4,0.1c-0.2,0.1-0.2,0.3-0.3,0.4
								c-0.4,0.8-1.1,0.9-1.8,1.3c-0.6,0.4-1.2,0.9-1.8,1.3c-1.5,1-3,1.9-4.6,2.7c-2.2,1.1-6.6,2.3-8,4.6c-0.4,0.7-0.6,1.7-0.6,2.6
								v2.3H487c1.9,0,3.7-0.5,5.4-1.3l7.4-4.5l-0.4,5.8h12.3C511.7,462.3,513.9,445.5,512.6,441.7z"/>
						</g>
					</g>
					<path class="st14" d="M481.8,439c6.2,2.6,22.1,3.2,30.8,2.2"/>
				</g>
				<polyline class="st15" points="492.9,215 473.2,424.8 526.8,424.8 536.2,213.3 				"/>
				<line class="st16" x1="483.1" y1="424.8" x2="501.5" y2="214.8"/>
				<line class="st16" x1="499.9" y1="424.8" x2="515" y2="213.3"/>
				<line class="st16" x1="516" y1="424.8" x2="527.8" y2="213.3"/>
				<path class="st15" d="M523.3,219.3L553,425h55.9l-30.8-154.8c-1.1-5.5-1.7-11-1.7-16.6c0-7.9-1.7-22.9-12.4-39.4"/>
				<path class="st6" d="M533.2,287.6c0,0-10-69.5-10.5-73.1"/>
				<line class="st16" x1="530.6" y1="217.7" x2="563.1" y2="424.8"/>
				<line class="st16" x1="545.1" y1="217.7" x2="581.1" y2="424.8"/>
				<line class="st16" x1="559.8" y1="217.7" x2="599" y2="424.8"/>
				<path class="st6" d="M601.7,425l-30.8-154.8c-1.1-5.5-1.7-11-1.7-16.6c0-7.9-0.2-23.8-10.8-40.3"/>
				<path class="st6" d="M549.5,214.6l3.7,17.5c0.3,1.6,1.6,2.7,3.2,2.8c3.1,0.2,8,0.5,11.2,0.7"/>
				<path class="st6" d="M491.1,234.7l10.8-0.7c1.7-0.1,3-1.4,3.3-3l2.3-15.4"/>
				<path class="st6" d="M518.2,216.2c0,0,2.7,20.9,3.7,21.7c0.8,0.5,4.2,1.1,4.2,1.1"/>
			</g>
			<g>
				<path class="st17" d="M493.3,166.1c0,0-23.2,14.2-31.8,13c-6.9-1-11.2-7.4-13-15.8c-1.8-8.4-10.9-62.2-10.9-62.2l24-3.1
					l10.6,47.6l10.9-7"/>
				<path class="st18" d="M520.6,126.3c0,0-10.9-3.4-23.8,2.1c-8.9,3.8-16.7,10.9-16.7,10.9l11.5,27.1l13.5-14.3"/>
				<path class="st18" d="M532.3,126.9c0,0,8-2.9,9.8-3.4c6.5-1.7,11.3-2.4,15.9-1.7c10.7,1.7,27.7,19.2,27.7,19.2
					c-9,5.6-17.5,26.8-17.5,26.8l-22.4-15.6"/>
				<path class="st18" d="M564.7,135.8c0,0,5.2,21.3,6.3,37.9c1,16.6,5,45.5,5,45.5l-88.3-0.1l3.6-69.4
					c-4.1-4.6,13.6-13.2,13.6-13.2l10-9.9l25.7,1.5L564.7,135.8z"/>
				<line class="st6" x1="550.7" y1="153.8" x2="564" y2="163.3"/>
				<path class="st6" d="M472.2,145.6c0,0,3.1,7.6,3.3,11.7"/>
				<g>
					<path class="st17" d="M464.6,113.8c-3-11.7-3.9-26.7-5.5-27.6c-0.7-0.4-1.4,0.1-1.8,1.1c-0.9,2.2-1,6.5-2.4,6.3
						c-0.9-0.1-2.9-10-4.5-14.3c-0.6-1.6-2.1-0.8-2.2,0.2c-0.2,3.9,1.6,13,1.6,13c-0.6,0-2.3-10.5-4.3-14.4
						c-0.4-0.8-2.1-0.8-2.1,0.3c-0.2,4.2,1.5,15.2,1.5,15.2s-1.7-10.8-3.7-14.2c-0.4-0.6-1.9-0.4-1.9,0.4
						c-0.2,3.2,1.7,15.9,1.7,15.9s-1.8-9.1-3-11.8c-0.3-0.7-2-0.2-2.1,0.6c-0.9,6.2,5,32.7,5,32.7"/>
				</g>
				<g>
					<g>
						<path class="st3" d="M441.2,97.3c1.9,1.2,3.6,2.7,5,4.5c0.7,0.9,1.3,1.8,1.8,2.8c0.5,1,0.9,2,1.3,3c0.1,0.2,0.4,0.1,0.4-0.2
							c-0.2-1.1-0.7-2.2-1.2-3.2c-0.5-1-1.2-2-1.9-2.8c-1.4-1.8-3.2-3.3-5.3-4.4C441.2,97,441.1,97.2,441.2,97.3L441.2,97.3z"/>
					</g>
				</g>
				<g>
					<g>
						<path class="st3" d="M454.8,94.9c-0.5,1.4-0.9,2.8-1,4.3c-0.1,1.3,0,2.9,0.7,3.9c0.1,0.2,0.3,0.1,0.3-0.1
							c-0.1-0.7-0.3-1.3-0.4-2c-0.1-0.6-0.1-1.2-0.1-1.9c0.1-1.4,0.4-2.8,0.8-4.1C455.3,94.8,454.9,94.6,454.8,94.9L454.8,94.9z"/>
					</g>
				</g>
				<path class="st6" d="M491.1,161c0,0,0-10.3,1.2-16.1"/>
			</g>
			<g>
				<g>
					<path class="st17" d="M514.6,103.5c-0.4-0.7-1.3-1.1-2.1-1c-0.8,0.2-1.5,0.8-1.9,1.5c-0.4,0.7-0.6,1.5-0.7,2.4
						c-0.2,1.5-0.2,3.3,0.8,4.5c0.7,0.9,1.9,1.3,3,1.2c1.1-0.1,2.1-0.8,2.7-1.8"/>
				</g>
				<path class="st17" d="M524.5,125.5L524.5,125.5c-7.9-0.9-13.5-8-12.6-15.9l1.6-14.2l12-7.6l18.2,12l-3.4,13.1
					C539.5,120.7,532.4,126.4,524.5,125.5z"/>
				<path class="st17" d="M517,119.2v6.7c0,0-0.1,7.2,9.9,7.2c10,0,9.9-7.2,9.9-7.2v-6.7H517z"/>
				<g>
					<path class="st19" d="M536,99.1c-2.2-1.2-5.1-1.4-7-3.1c-1.5-1.3-2.4-3.2-4.6-3c-1.9,0.2-3.1,1.8-5,1.9c-0.8,0.1-1.6-0.1-2.4,0
						c-1.6,0.2-2,1.3-2.8,2.7c-0.8,1.4-1.1,3.1-1.4,4.7c-1.6-2.4-3.4-5.4-3.3-8.2c0.2-3.5,1.9-6.9,4.7-9.1c1.3-1,2.8-1.7,4.3-2.3
						c2.2-0.9,4.5-1.7,6.9-1.8c0.7,0,1.4,0,2.2-0.1c0.8-0.1,1.6-0.3,2.4-0.5c2.2-0.5,4.5-0.6,6.7-0.3c2.2,0.3,3.6,1,5.5,1.9
						c3.5,1.8,6.8,4.5,8.9,7.8c2.2,3.6,4.3,7.4,8.5,9c3.8,1.4,8.2,0.4,11.8,2.2c3.4,1.7,4.6,5.7,7.8,7.5c3.5,1.9,5.3,1.3,8.4,4.2
						c4,3.7,4.1,8.9,3.9,11.8c-7.9,1.8-12.1,9.7-14.3,14.5c-2.2,4.8-4.6,10.6-9.8,11.5c-1.8-3-4.8-5.2-8.2-6c-3.1-0.8-6.7-0.6-8.9-3
						c-1.8-1.9-1.9-4.7-3.1-7c-1.7-3.1-4.1-2.6-6.6-4.2c-2.1-1.3-3.9-4.5-4-6.9c-0.2-3,1.5-5.7,3.1-8.2c0.5-0.8,1.1-1.7,1.3-2.7
						c0.1-0.8,0-1.5-0.1-2.3c-0.2-1.3-0.5-2.7-0.7-4c-0.4-2.2-0.9-4.6-2.5-6.2C537,99.7,536.5,99.4,536,99.1z"/>
				</g>
				<g>
					<path class="st17" d="M538.2,108.4c1.4-1.5,4.1-1.4,5.5,0.1c1.5,1.4,1.6,3.9,0.6,5.7c-0.4,0.8-1.1,1.4-1.7,2
						c-0.5,0.5-1.1,1-1.8,1.3c-1,0.5-2.2,0.6-3.3,0.2c-1.1-0.4-1.9-1.4-2-2.6"/>
				</g>
				<path class="st6" d="M532.7,122.4c-4.1,2.5-11.2,2.9-15.5,0"/>
				<g>
					<g>
						<path class="st3" d="M543.9,111.2c-0.2-0.6-0.6-1.1-1.2-1.4c-0.6-0.2-1.3-0.1-1.8,0.2c-0.6,0.3-1.1,0.8-1.4,1.4
							c-0.2,0.3-0.3,0.6-0.5,0.9c-0.1,0.3-0.3,0.7-0.3,1c0,0.2,0.2,0.2,0.4,0.1c0.2-0.2,0.3-0.5,0.4-0.8c0.1-0.3,0.2-0.5,0.4-0.8
							c0.3-0.5,0.6-1,1.1-1.3c0.4-0.3,1-0.5,1.5-0.4c0.6,0.1,1,0.5,1.3,1.1C543.7,111.4,543.9,111.3,543.9,111.2L543.9,111.2z"/>
					</g>
				</g>
				<path class="st3" d="M529.9,106.8c0,0.8,0.6,1.4,1.4,1.5c0.8,0,1.4-0.6,1.5-1.4c0-0.8-0.6-1.4-1.4-1.5
					C530.6,105.4,530,106.1,529.9,106.8z"/>
				<path class="st3" d="M515.4,104.3c0,0.8,0.6,1.4,1.4,1.5c0.8,0,1.4-0.6,1.5-1.4c0-0.8-0.6-1.4-1.4-1.5S515.5,103.5,515.4,104.3z
					"/>
				<g>
					<g>
						<path class="st3" d="M521.8,106.7c-0.4,0.7-0.9,1.4-1.3,2.1c-0.3,0.5-0.5,1.1-0.7,1.7c-0.1,0.4-0.2,0.9,0.1,1.3
							c0.2,0.3,0.7,0.4,1,0.4c0.5,0.1,1,0.1,1.5,0c0.3,0,0.4-0.5,0.1-0.5c-0.4-0.1-0.8-0.1-1.2-0.1c-0.3,0-0.7,0-0.9-0.2
							c-0.2-0.2-0.1-0.7,0-1c0.3-1,0.8-2,1.1-3c0.1-0.3,0.2-0.5,0.3-0.8C522,106.7,521.8,106.6,521.8,106.7L521.8,106.7z"/>
					</g>
				</g>
				<path class="st12" d="M535,104.8c-1.2-2-4-2.6-5.6-1.3"/>
				<path class="st12" d="M519,101.9c-1.1-1.4-3.1-1.5-4.2-0.3"/>
				<g>
					<path class="st13" d="M524.9,115.5c0,2.5-0.8,3.9-1.9,4.9c-1.2,1-3.6,1.1-3.9-5.3L524.9,115.5z"/>
				</g>
			</g>
		</g>
		<g>
			<g>
				<g>
					<polyline class="st1" points="90.6,344.2 84,444.6 51.7,444.6 55.4,344.2 					"/>
					<g>
						<polygon class="st2" points="84.6,447.4 50.9,448.1 51.7,438.2 84.8,439.5 						"/>
						<path class="st3" d="M50.9,443.5l-1.3,18.9h57.5v-3.9c0-1.6-0.9-3-2.3-3.7l-20.1-10.2L50.9,443.5z"/>
						<line class="st20" x1="49.9" y1="458.5" x2="107.1" y2="458.5"/>
						<path class="st20" d="M50.6,447.3c0,0,10.8,0.8,15.1,11.2"/>
						<path class="st20" d="M98,451.3c0,0-4,3.3-4.2,7.2"/>
						<polyline class="st20" points="83.3,447.5 87.3,445.2 86.7,449.4 90.6,447.3 90.6,451 92.9,448.2 						"/>
						<line class="st20" x1="55.2" y1="438.5" x2="55.1" y2="441.5"/>
						<line class="st20" x1="61.2" y1="438.7" x2="61" y2="441.7"/>
						<line class="st20" x1="67.7" y1="439.1" x2="67.6" y2="442.1"/>
						<line class="st20" x1="73.7" y1="439.3" x2="73.6" y2="442.3"/>
						<line class="st20" x1="80.6" y1="439.6" x2="80.5" y2="442.6"/>
					</g>
				</g>
				<g>
					<polyline class="st1" points="150.8,344.2 173.5,444.6 141.2,444.6 115.6,344.2 					"/>
					<g>
						<polygon class="st2" points="174,446.3 141.3,447.5 139.6,438.2 172.8,439.4 						"/>
						<path class="st3" d="M140.4,443.5l-1.3,18.9h57.5v-3.9c0-1.6-0.9-3-2.3-3.7l-20.1-10.2L140.4,443.5z"/>
						<line class="st20" x1="139.4" y1="458.5" x2="196.6" y2="458.5"/>
						<path class="st20" d="M140.2,447.3c0,0,10.8,0.8,15.1,11.2"/>
						<path class="st20" d="M187.5,451.3c0,0-4,3.3-4.2,7.2"/>
						<polyline class="st20" points="172.8,447.5 176.8,445.2 176.3,449.4 180.1,447.3 180.1,451 182.4,448.2 						"/>
						<line class="st20" x1="144.7" y1="438.5" x2="144.6" y2="441.5"/>
						<line class="st20" x1="150.6" y1="438.6" x2="150.6" y2="441.7"/>
						<line class="st20" x1="157.3" y1="438.9" x2="157.1" y2="442.1"/>
						<line class="st20" x1="163.3" y1="439.3" x2="163.1" y2="442.3"/>
						<line class="st20" x1="170.2" y1="439.3" x2="170" y2="442.6"/>
					</g>
				</g>
				<path class="st15" d="M56.1,214.2c0,0-10,24.4-5.9,56.7c0.4,3.1,0.5,6.2,0.4,9.3l-6.2,143.6H97l7.3-199.4"/>
				<path class="st6" d="M55.5,244.9c7.2-4.1,14.7-8.5,18.7-15.7"/>
				<path class="st6" d="M61.9,214.2c0,0-10,24.4-5.9,56.7c0.4,3.1,0.5,6.2,0.4,9.3l-6.2,143.6"/>
				<path class="st15" d="M139.1,228.2c0,0,0,13.5,0,16.5c0,3,36.2,171.8,36.2,171.8l-55.4,4.1L93.5,270.1c0,0-8.6-17.1-6-41.9"/>
				<polygon class="st21" points="97.3,430.9 43.2,430.9 43.8,420.6 97.9,420.6 				"/>
				<path class="st6" d="M101.1,311.9c0,0,3.5-62.8,4.9-77.5"/>
				<path class="st6" d="M104.4,256.6c0,0,5.1-1.9,5.6-3.9c1.8-7,3.2-17.2,3.7-24.3"/>
				<line class="st6" x1="102" y1="295.6" x2="126" y2="422.3"/>
				<polygon class="st21" points="177.3,422.4 120.9,428.8 118.9,418.6 175.3,412.2 				"/>
				<path class="st6" d="M125.4,232.6c0.5,1.6,1.3,3.1,2.2,4.5c2.9,4.4,6.4,6.6,11.4,8.3"/>
			</g>
			<g>
				<path class="st22" d="M163.3,145.1l14.2,28.6c3.9,7.9,6.6,19.6,2.5,32.6c-4.1,12.9-25.4,45.4-25.4,45.4L141.1,235l13.4-42.9
					l-18.7-30.3"/>
				<g>
					<path class="st22" d="M162.3,238.6c-2.3,5.3-9.8,15.2-11.3,20.8c-2.2,8.4-1.5,9.8-1.6,17.2c0,1.1-0.6,4.2-1.8,4.1
						c-1.2-0.1-1.7-2.5-2-3.6c-1.5-6.7-2.2-11.3-3.8-18c-0.6-2.6-3.3-11.7-3.2-14.3c0.4-6.6,4.5-6.7,7.8-12.7"/>
				</g>
				<g>
					<path class="st22" d="M145.3,225.2c0,0-4.2,10.5-5.8,12.7c-1.5,2-1.2,4.5-0.8,6.9c1,5,2.6,10,4.8,14.7c0.4,0.8,0.8,1.6,1.6,2.2
						c0.8,0.6,2.1,0.8,2.9,0.3c0.8-0.5,1-1.5,1-2.4c0-3.7-0.4-7.4-1.3-11.1"/>
				</g>
				<path class="st6" d="M141.9,255.6c0.3,0.7,2,5.2,2.4,5.9c0.4,0.9,0.9,1.8,1.9,2c1,0.2,1.9-0.5,2.4-1.4c1.2-2.1,0.9-4.7,0.5-7.1
					c-0.4-2.2-0.8-4.3-1.1-6.5"/>
			</g>
			<g>
				<path class="st23" d="M100.7,119.5c0,0-4.9-4.1-6.5-5.5c-3.8-3.4-8.3-4.9-13.4-4.8c-11.9,0.3-35.6,18.6-35.6,18.6l23.1,34
					l22.6-16.3"/>
				<path class="st23" d="M129.5,126c0,0,9.8,0.3,13.2,1c4.5,1,8.7,1.1,14.1,6.2c3.8,3.6,18.3,29.5,18.3,29.5l-30.7,16.7l-12.5-21.6
					"/>
				<path class="st23" d="M72.8,124.9c0,0-9.7,17.9-13.4,46.9c-5,39.2-8.5,60.4-8.5,60.4l88.8,6.5c0,0,5.8-83.7,10.9-88
					s-12.9-16.3-12.9-16.3l-8.2-8.4l-29.3-5.8L72.8,124.9z"/>
				<g class="st24">
					<defs>
						<path id="SVGID_3_" class="st24" d="M175.2,162.7c0,0-14.6-25.9-18.3-29.5c-5.5-5.2-9.6-5.3-14.1-6.2c-3.4-0.7-13.2-1-13.2-1
							l-29-5.8l0.2-0.6c0,0-4.9-4.1-6.5-5.5c-3.8-3.4-8.3-4.9-13.4-4.8c-11.9,0.3-35.6,18.6-35.6,18.6l17.5,25.7
							c-1.3,5.4-2.5,11.5-3.4,18.3c-5,39.2-8.5,60.4-8.5,60.4l88.8,6.5c0,0,2.3-33.8,5.4-59.6L175.2,162.7z"/>
					</defs>
					<clipPath id="SVGID_4_">
						<use xlink:href="#SVGID_3_"  style="overflow:visible;"/>
					</clipPath>
					<g class="st25">
						<g>
							<line class="st26" x1="31.9" y1="115.6" x2="190.9" y2="138.7"/>
							<line class="st26" x1="28.4" y1="140" x2="187.4" y2="163.1"/>
							<line class="st26" x1="24.8" y1="164.4" x2="183.8" y2="187.5"/>
							<line class="st26" x1="21.3" y1="188.8" x2="180.3" y2="211.9"/>
							<line class="st26" x1="17.7" y1="213.2" x2="176.7" y2="236.3"/>
						</g>
						<g>
							<line class="st26" x1="165.3" y1="99.6" x2="142.1" y2="258.6"/>
							<line class="st26" x1="140.9" y1="96" x2="117.7" y2="255"/>
							<line class="st26" x1="116.5" y1="92.5" x2="93.3" y2="251.5"/>
							<line class="st26" x1="92.1" y1="88.9" x2="68.9" y2="247.9"/>
							<line class="st26" x1="67.7" y1="85.4" x2="44.5" y2="244.4"/>
						</g>
					</g>
				</g>
				<line class="st6" x1="71.2" y1="154.8" x2="85.9" y2="146.5"/>
				<path class="st6" d="M145,179.1c0,0,1.9-14.6,2.8-19.2c0.8-3.8,1.7-7.7,2.7-9.2"/>
				<path class="st6" d="M105.8,130.2c2.6,1.6,6.1,3,10.7,3.9c10,2,14-4.5,14-4.5"/>
				<path class="st6" d="M98.3,122.7c0,0,1.2,2.9,5.2,5.9"/>
			</g>
			<g>
				<g>
					<path class="st22" d="M139.5,96.8c0.5-0.6,1.5-0.7,2.3-0.3c0.7,0.4,1.2,1.1,1.4,1.9c0.2,0.8,0.1,1.6,0,2.5
						c-0.2,1.6-0.7,3.2-2,4.1c-0.9,0.6-2.2,0.8-3.2,0.4c-1-0.4-1.8-1.4-2-2.5"/>
				</g>
				<path class="st27" d="M142.7,97.8l-5-1.2c-0.8-0.2-1.6-0.1-2.4,0.1l-1.3,0.5"/>
				<g>
					<path class="st22" d="M109.9,82.9c0.7-1.1,1.8-1.9,3-2.5c8.6-4.7,18.9-1.9,26.5,3.3c0.5,0.3,0.9,0.7,1.2,1.2
						c0.2,0.5,0.3,3.4,0.1,6.9c0,0,0.2,6.1-0.4,10.8c-0.6,4.7-2.3,8.3-5.9,11.5c-5,4.5-17,2.4-21.5-2.7c-2.4-2.7-3.3-6.4-3.8-9.8
						c-0.6-3.7-1.3-7.9-1.1-11.6C108.1,87.7,108.6,84.8,109.9,82.9z"/>
				</g>
				<path class="st22" d="M106.5,100.5l-6.6,19c0,0,3.3,7.8,16.7,10.5c9.2,1.8,12.9-4.1,12.9-4.1l3.7-16.6"/>
				<path class="st3" d="M123.7,96.3c-0.2,0.8-1,1.2-1.7,1c-0.8-0.2-1.2-1-1-1.7c0.2-0.8,1-1.2,1.7-1
					C123.4,94.8,123.9,95.5,123.7,96.3z"/>
				<path class="st3" d="M138.3,97.9c-0.2,0.8-1,1.2-1.7,1c-0.8-0.2-1.2-1-1-1.7c0.2-0.8,1-1.2,1.7-1
					C138,96.4,138.5,97.1,138.3,97.9z"/>
				<g>
					<g>
						<path class="st3" d="M131.5,99.2c0.1,0.7,0.2,1.4,0.3,2.1c0.1,0.6,0.1,1.1,0.1,1.7c0,0.3,0,0.8-0.2,1.1c0,0,0,0-0.1,0.1
							c-0.1,0-0.1,0-0.2,0.1c-0.2,0-0.4,0-0.6,0c-0.5-0.1-1-0.3-1.5-0.3c-0.2,0-0.4,0.4-0.1,0.5c0.4,0.2,0.9,0.3,1.4,0.4
							c0.4,0.1,0.8,0.1,1.1,0c0.5-0.2,0.6-0.7,0.6-1.2c0-0.6,0-1.2-0.1-1.7c-0.1-0.6-0.2-1.2-0.4-1.7c-0.1-0.3-0.2-0.6-0.3-0.9
							C131.6,99.1,131.5,99.1,131.5,99.2L131.5,99.2z"/>
					</g>
				</g>
				<path class="st12" d="M119.4,92.9c1.7-1.6,4.5-1.4,5.7,0.3"/>
				<path class="st12" d="M135.5,94.6c1.4-1,3.4-0.6,4.1,0.8"/>
				<path class="st28" d="M115.5,111.6c4.5,4.7,9.7,6.2,16.1,5"/>
				<g>
					<path class="st29" d="M147.6,82.2c-1.4-10-12.8-16.3-22.3-15.6c-3.5,0.3-8,1.3-11.1,3.5c-1.7,0.7-3,0.9-4.8,1.9
						c-0.5,0.3-1,0.6-1.3,0.9c-3.9,3.4-5.8,8.3-6.9,13.3c-2.3,10.1-1.2,18.4-1.2,18.4s5.2-0.1,5.6-0.3c4.7-4.3,4.3-6.7,5.9-9.9
						c0.9-1.8,2.1-3.3,3-5.1c1-1.9,1.8-3.8,2.4-5.8c0.6,0.6,1.5,0.8,2.4,1c1.5,0.3,3.1,0.6,4.6,0.8c8.3,1,16.9,4.1,22.8,10.3
						c0,0,0.9-2.8,0.9-3.1c0.2-1.1,0.3-2.2,0.3-3.3C147.9,86.8,147.9,84.4,147.6,82.2z"/>
				</g>
				<path class="st27" d="M132.7,95.8c-0.8,3.1,0.8,6.2,3.5,6.9c2.7,0.7,5.5-1.3,6.3-4.5c0.8-3.1-0.8-6.2-3.5-6.9
					C136.3,90.6,133.5,92.6,132.7,95.8z"/>
				<path class="st27" d="M115.8,94.6c-0.8,3.1,1.2,6.3,4.3,7c3.1,0.8,6.3-1.2,7-4.3c0.8-3.1-1.2-6.3-4.3-7
					C119.7,89.5,116.6,91.4,115.8,94.6z"/>
				<path class="st27" d="M115.7,95.1l-5-1.2c-0.8-0.2-1.6-0.1-2.4,0.1l-1.3,0.5"/>
				<g>
					<g>
						<path class="st22" d="M111.8,94.8c-2.4-2.1-5.2-2-6.5,1.2c-0.5,1.3-0.7,2.9-0.3,4.2c0.4,1.4,1.4,2.6,2.8,3.1
							c1.3,0.5,3,0.3,4-0.7"/>
					</g>
					<g>
						<path class="st22" d="M107.1,95.8c1.5-1.5,3.1,0.7,3.2,1.7c0.1,1.2-0.3,2.4-1.1,3.3"/>
						<g>
							<path class="st3" d="M107.1,95.8c0.1,0,0.2,0,0.2-0.1c0.1,0,0.2-0.1,0.2-0.1c0.1-0.1,0.3-0.1,0.4-0.2c0.3,0,0.5,0,0.8,0.1
								c0.5,0.2,0.8,0.7,1.1,1.2c0.3,0.5,0.3,1.1,0.2,1.7c-0.1,0.8-0.5,1.6-1,2.2c-0.1,0.2,0.2,0.4,0.3,0.3c0.5-0.5,0.9-1.2,1.1-1.9
								c0.2-0.6,0.3-1.3,0.1-1.9c-0.2-0.9-1-1.8-1.9-2c-0.3-0.1-0.6,0-0.8,0.1c-0.1,0.1-0.3,0.1-0.4,0.2c-0.1,0-0.1,0.1-0.2,0.2
								C107.1,95.6,107.1,95.7,107.1,95.8C107,95.8,107,95.9,107.1,95.8L107.1,95.8z"/>
						</g>
					</g>
					<g>
						<g>
							<path class="st3" d="M106.6,103c0.2,0.3,0.6,0.6,0.9,0.7c0.4,0.2,0.8,0.3,1.2,0.3c0.4,0,0.8,0,1.2-0.1
								c0.2-0.1,0.4-0.1,0.6-0.2c0.2-0.1,0.3-0.2,0.5-0.4c0.1-0.1,0-0.3-0.2-0.2c-0.6,0.3-1.4,0.5-2.1,0.5c-0.4,0-0.7-0.1-1-0.2
								c-0.2-0.1-0.3-0.1-0.5-0.2c-0.2-0.1-0.3-0.2-0.5-0.3C106.6,102.7,106.5,102.9,106.6,103L106.6,103z"/>
						</g>
					</g>
				</g>
				<g>
					<path class="st29" d="M100,100.5c-7.1,1.1-16.3,4-20.2,10.1c-1.8,2.8-2.3,6.7-0.4,9.5c0.4,0.6,0.9,1.1,1.5,1.5
						c1.1,0.7,2.4,0.8,3.6,0.7c4.5-0.5,7.8-4.2,10.3-7.9c2.5-3.7,4.7-7.9,8.5-10.3"/>
				</g>
				<path class="st27" d="M127.3,96.2c0,0,2.1-1.4,5.4-0.1"/>
				<g>
					<g>
						<path class="st3" d="M125.7,106c-0.6,1.2,0.1,2.9,1.1,3.7c0.6,0.5,1.2,0.7,1.9,0.8c0.3,0,0.7,0,1.1-0.1
							c0.3-0.1,0.7-0.2,0.9-0.5c0.1-0.1,0-0.3-0.1-0.3c-0.3,0-0.6,0.1-0.9,0.2c-0.3,0.1-0.6,0.1-0.9,0.1c-0.6,0-1.2-0.2-1.6-0.6
							c-0.5-0.4-0.8-0.9-1-1.4c-0.2-0.6-0.2-1.2-0.1-1.8C126.1,105.9,125.8,105.8,125.7,106L125.7,106z"/>
					</g>
				</g>
			</g>
		</g>
		<g>
			<g>
				<g>
					<path class="st30" d="M286.1,282.4c0,0-0.2,32.4,1,73.4c1.3,45.1-1.1,89.7-1.1,89.7l-28.2,0.8c0,0-0.2-79.1,0.1-89
						c0.2-9.9-3.4-69.4-3.4-69.4L286.1,282.4z"/>
					<g>
						<path class="st31" d="M288.5,431.9l0.6,9.8l16.1,10.9c2,1.3,4.3,2.1,6.6,2.3l2.7,0.3c2.1,0.2,3.7,2.1,3.5,4.2l-0.3,3h-39.6
							c-2,0-3.8-1-5-2.5l-2.3-3c-0.8-1-1.9-1.6-3.2-1.7l-1.9-0.2l-0.7,7.5h-7.3l-0.8-30.2L288.5,431.9z"/>
						<path class="st32" d="M278.2,462.4c-2,0-3.8-1-5-2.5l-2.3-3c-0.8-1-1.9-1.6-3.2-1.7l-1.9-0.2l-0.7,7.5h-7.3l-0.3-10.1
							l11.1,0.5c1.2,0.1,2.4,0.6,3.2,1.6l2.8,3.3c1.2,1.4,2.9,2.2,4.8,2.2l38.5,0.2l-0.2,2.2H278.2z"/>
						<polyline class="st33" points="288.4,445.3 291.2,442.1 287,442.1 289.8,438 286.3,437.9 288.6,433.7 284.9,434.1 						"/>
					</g>
				</g>
				<g>
					<path class="st30" d="M228.4,282.4c0,0-0.2,32.4,1,73.4c1.3,45.1-1.1,89.7-1.1,89.7l-28.2,0.8c0,0-0.2-79.1,0.1-89
						c0.2-9.9-3.4-69.4-3.4-69.4L228.4,282.4z"/>
					<g>
						<path class="st31" d="M230.8,431.9l0.6,9.8l16.1,10.9c2,1.3,4.3,2.1,6.6,2.3l2.7,0.3c2.1,0.2,3.7,2.1,3.5,4.2l-0.3,3h-39.6
							c-2,0-3.8-1-5-2.5l-2.3-3c-0.8-1-1.9-1.6-3.2-1.7l-1.9-0.2l-0.7,7.5h-7.3l-0.8-30.2L230.8,431.9z"/>
						<path class="st32" d="M220.5,462.4c-2,0-3.8-1-5-2.5l-2.3-3c-0.8-1-1.9-1.6-3.2-1.7l-1.9-0.2l-0.7,7.5h-7.3l-0.3-10.1
							l11.1,0.5c1.2,0.1,2.4,0.6,3.2,1.6l2.8,3.3c1.2,1.4,2.9,2.2,4.8,2.2l38.5,0.2l-0.2,2.2H220.5z"/>
						<polyline class="st33" points="230.7,445.3 233.5,442.1 229.3,442.1 232,438 228.5,437.9 230.9,433.7 227.1,434.1 						"/>
					</g>
				</g>
				<path class="st34" d="M200.2,198.7c0,0-11.8,31.1-12.1,59.6c-0.2,28.5,6.6,162.3,6.6,162.3l39.9,0.6l8.6-146.9l9,146.4h38.3
					c0,0,7.3-131.8-3.3-183.5c-4.5-22-16.7-42.9-16.7-42.9"/>
				<path class="st6" d="M243.1,274.2c0,0,0-50.2,0-71.4"/>
				<line class="st6" x1="194.3" y1="414.2" x2="235" y2="414.2"/>
				<line class="st6" x1="251.7" y1="414.2" x2="290.8" y2="414.2"/>
				<path class="st6" d="M209.5,198.9c0,0-12.4,30.9-13.2,59.3c-0.8,28.4,3.5,162.4,3.5,162.4"/>
				<g>
					<g>
						<path class="st3" d="M236.4,327.6c-0.9,4.1-1.9,8.2-2.8,12.3c-0.9,4.1-1.9,8.2-2.6,12.3c0,0.2,0.3,0.3,0.3,0.1
							c1.1-4.1,1.9-8.2,2.8-12.3c0.9-4.1,1.8-8.2,2.6-12.4C236.7,327.4,236.4,327.4,236.4,327.6L236.4,327.6z"/>
					</g>
				</g>
				<g>
					<g>
						<path class="st3" d="M235.3,346.5c-0.3,1.5-0.6,3-0.9,4.4c-0.2,0.7-0.3,1.5-0.4,2.2c-0.1,0.7-0.3,1.4-0.3,2.1
							c0,0.2,0.2,0.2,0.3,0c0.3-0.7,0.4-1.5,0.5-2.2c0.1-0.7,0.3-1.4,0.4-2.1c0.3-1.5,0.5-2.9,0.7-4.4
							C235.6,346.4,235.4,346.4,235.3,346.5L235.3,346.5z"/>
					</g>
				</g>
				<g>
					<g>
						<path class="st3" d="M285.3,328.9c-0.3,4.4-0.8,8.9-1.4,13.3c-0.3,2.2-0.6,4.5-0.9,6.7c-0.3,2.2-0.8,4.3-1,6.5
							c0,0.2,0.3,0.2,0.3,0c0.5-2.2,0.8-4.5,1.2-6.7c0.3-2.1,0.6-4.2,0.9-6.4c0.5-4.5,0.9-8.9,1.2-13.4
							C285.5,328.7,285.3,328.7,285.3,328.9L285.3,328.9z"/>
					</g>
				</g>
				<g>
					<g>
						<path class="st3" d="M286.3,343.8c0,1.6,0,3.3,0,4.9c0,1.6,0,3.3,0.1,4.9c0,0.1,0.2,0.1,0.2,0c0.2-1.6,0.1-3.3,0.1-4.9
							c0-1.6,0-3.3,0-4.9C286.7,343.6,286.3,343.6,286.3,343.8L286.3,343.8z"/>
					</g>
				</g>
				<path class="st6" d="M257,420.5c0,0-8.4-145.1-13.9-161.2"/>
			</g>
			<g>
				<g>
					<path class="st30" d="M297.6,139c3.5-11.4,5-26.2,6.5-27.1c0.7-0.4,1.4,0.1,1.7,1.2c0.8,2.3,0.7,6.4,2.1,6.3
						c0.9-0.1,3.3-9.7,5-13.9c0.6-1.5,2.2-0.7,2.2,0.3c0.1,3.9-2.2,12.9-2.2,12.9c0.6,0,2.7-10.3,4.8-14.1c0.5-0.8,2.1-0.7,2.1,0.3
						c0.1,4.2-2.1,15-2.1,15s2.1-10.6,4.3-13.9c0.4-0.6,1.9-0.3,1.9,0.4c0.1,3.2-2.4,15.6-2.4,15.6s2.1-8.9,3.5-11.6
						c0.4-0.7,2-0.1,2.1,0.7c0.7,6.2-6.2,32.2-6.2,32.2"/>
				</g>
				<g>
					<g>
						<path class="st3" d="M321.2,123.4c-2.1,0.9-3.9,2.4-5.4,4.1c-0.7,0.8-1.4,1.7-2,2.7c-0.6,0.9-1.2,2.1-1.4,3.1
							c0,0.2,0.3,0.4,0.4,0.2c0.5-1,0.9-2,1.4-2.9c0.6-1,1.2-1.9,1.9-2.7c1.4-1.7,3.2-3.1,5.1-4.2
							C321.5,123.6,321.4,123.4,321.2,123.4L321.2,123.4z"/>
					</g>
				</g>
				<g>
					<g>
						<path class="st3" d="M307.6,120.8c0.4,1.4,0.6,2.7,0.7,4.1c0,0.6,0,1.3-0.1,1.9c-0.1,0.7-0.3,1.3-0.5,1.9
							c0,0.2,0.2,0.3,0.3,0.1c0.8-1,0.9-2.6,0.9-3.9c0-1.5-0.4-2.9-0.8-4.3C307.9,120.4,307.5,120.6,307.6,120.8L307.6,120.8z"/>
					</g>
				</g>
				<path class="st35" d="M209.7,121.3c0,0,16.1-2.7,25.2-2.5c9.1,0.2,33.6,4.3,33.6,4.3l9.4,83.7c-12.8,12.8-71.7,8.4-78,0
					L209.7,121.3z"/>
				<g>
					<defs>
						<path id="SVGID_5_" d="M209.7,121.3c0,0,16.1-2.7,25.2-2.5c9.1,0.2,33.6,4.3,33.6,4.3l9.4,83.7c-12.8,12.8-71.7,8.4-78,0
							L209.7,121.3z"/>
					</defs>
					<clipPath id="SVGID_6_">
						<use xlink:href="#SVGID_5_"  style="overflow:visible;"/>
					</clipPath>
					<g class="st36">
						<g>
							<g>
								<path class="st13" d="M199.3,208.4c14.3,3,28.8,4.2,43.4,3.5c5.2-0.3,10.4-0.8,15.6-1.5c5.1-0.7,10.3-1.5,15.3-2.9
									c2.7-0.8,5.4-1.7,7.9-2.9c2.1-1,4.7-2.2,5.9-4.4c0.4-0.6-0.3-1.2-0.9-0.9c-0.9,0.4-1.7,1-2.6,1.5c-1,0.5-1.9,1.1-2.9,1.6
									c-2.1,1-4.3,1.9-6.6,2.5c-4.8,1.5-9.8,2.4-14.8,3.2c-11.9,1.7-23.9,2.5-35.9,2c-8.1-0.3-16.1-1.2-24-2.6
									C199,207.5,198.7,208.3,199.3,208.4L199.3,208.4z"/>
							</g>
						</g>
						<g>
							<g>
								<path class="st13" d="M198.9,202.8c14.3,3,28.8,4.2,43.4,3.5c5.2-0.3,10.4-0.8,15.6-1.5c5.1-0.7,10.3-1.5,15.3-2.9
									c2.7-0.8,5.4-1.7,7.9-2.9c2.1-1,4.7-2.2,5.9-4.4c0.4-0.6-0.3-1.2-0.9-0.9c-0.9,0.4-1.7,1-2.6,1.5c-1,0.5-1.9,1.1-2.9,1.6
									c-2.1,1-4.3,1.9-6.6,2.5c-4.8,1.5-9.8,2.4-14.8,3.2c-11.9,1.7-23.9,2.5-35.9,2c-8.1-0.3-16.1-1.2-24-2.6
									C198.6,201.9,198.4,202.7,198.9,202.8L198.9,202.8z"/>
							</g>
						</g>
						<g>
							<g>
								<path class="st13" d="M198.6,197.2c14.3,3,28.8,4.2,43.4,3.5c5.2-0.3,10.4-0.8,15.6-1.5c5.1-0.7,10.3-1.5,15.3-2.9
									c2.7-0.8,5.4-1.7,7.9-2.9c2.1-1,4.7-2.2,5.9-4.4c0.4-0.6-0.3-1.2-0.9-0.9c-0.9,0.4-1.7,1-2.6,1.5c-1,0.5-1.9,1.1-2.9,1.6
									c-2.1,1-4.3,1.9-6.6,2.5c-4.8,1.5-9.8,2.4-14.8,3.2c-11.9,1.7-23.9,2.5-35.9,2c-8.1-0.3-16.1-1.2-24-2.6
									C198.3,196.3,198.1,197.1,198.6,197.2L198.6,197.2z"/>
							</g>
						</g>
						<g>
							<g>
								<path class="st13" d="M198.3,191.7c14.3,3,28.8,4.2,43.4,3.5c5.2-0.3,10.4-0.8,15.6-1.5c5.1-0.7,10.3-1.5,15.3-2.9
									c2.7-0.8,5.4-1.7,7.9-2.9c2.1-1,4.7-2.2,5.9-4.4c0.4-0.6-0.3-1.2-0.9-0.9c-0.9,0.4-1.7,1-2.6,1.5c-1,0.5-1.9,1.1-2.9,1.6
									c-2.1,1-4.3,1.9-6.6,2.5c-4.8,1.5-9.8,2.4-14.8,3.2c-11.9,1.7-23.9,2.5-35.9,2c-8.1-0.3-16.1-1.2-24-2.6
									C198,190.8,197.8,191.5,198.3,191.7L198.3,191.7z"/>
							</g>
						</g>
						<g>
							<g>
								<path class="st13" d="M197.9,186.1c14.3,3,28.8,4.2,43.4,3.5c5.2-0.3,10.4-0.8,15.6-1.5c5.1-0.7,10.3-1.5,15.3-2.9
									c2.7-0.8,5.4-1.7,7.9-2.9c2.1-1,4.7-2.2,5.9-4.4c0.4-0.6-0.3-1.2-0.9-0.9c-0.9,0.4-1.7,1-2.6,1.5c-1,0.5-1.9,1.1-2.9,1.6
									c-2.1,1-4.3,1.9-6.6,2.5c-4.8,1.5-9.8,2.4-14.8,3.2c-11.9,1.7-23.9,2.5-35.9,2c-8.1-0.3-16.1-1.2-24-2.6
									C197.7,185.2,197.4,186,197.9,186.1L197.9,186.1z"/>
							</g>
						</g>
						<g>
							<g>
								<path class="st13" d="M197.6,180.5c14.3,3,28.8,4.2,43.4,3.5c5.2-0.3,10.4-0.8,15.6-1.5c5.1-0.7,10.3-1.5,15.3-2.9
									c2.7-0.8,5.4-1.7,7.9-2.9c2.1-1,4.7-2.2,5.9-4.4c0.4-0.6-0.3-1.2-0.9-0.9c-0.9,0.4-1.7,1-2.6,1.5c-1,0.5-1.9,1.1-2.9,1.6
									c-2.1,1-4.3,1.9-6.6,2.5c-4.8,1.5-9.8,2.4-14.8,3.2c-11.9,1.7-23.9,2.5-35.9,2c-8.1-0.3-16.1-1.2-24-2.6
									C197.3,179.6,197.1,180.4,197.6,180.5L197.6,180.5z"/>
							</g>
						</g>
						<g>
							<g>
								<path class="st13" d="M197.3,174.9c14.3,3,28.8,4.2,43.4,3.5c5.2-0.3,10.4-0.8,15.6-1.5c5.1-0.7,10.3-1.5,15.3-2.9
									c2.7-0.8,5.4-1.7,7.9-2.9c2.1-1,4.7-2.2,5.9-4.4c0.4-0.6-0.3-1.2-0.9-0.9c-0.9,0.4-1.7,1-2.6,1.5c-1,0.5-1.9,1.1-2.9,1.6
									c-2.1,1-4.3,1.9-6.6,2.5c-4.8,1.5-9.8,2.4-14.8,3.2c-11.9,1.7-23.9,2.5-35.9,2c-8.1-0.3-16.1-1.2-24-2.6
									C197,174.1,196.8,174.8,197.3,174.9L197.3,174.9z"/>
							</g>
						</g>
						<g>
							<g>
								<path class="st13" d="M197,169.4c14.3,3,28.8,4.2,43.4,3.5c5.2-0.3,10.4-0.8,15.6-1.5c5.1-0.7,10.3-1.5,15.3-2.9
									c2.7-0.8,5.4-1.7,7.9-2.9c2.1-1,4.7-2.2,5.9-4.4c0.4-0.6-0.3-1.2-0.9-0.9c-0.9,0.4-1.7,1-2.6,1.5c-1,0.5-1.9,1.1-2.9,1.6
									c-2.1,1-4.3,1.9-6.6,2.5c-4.8,1.5-9.8,2.4-14.8,3.2c-11.9,1.7-23.9,2.5-35.9,2c-8.1-0.3-16.1-1.2-24-2.6
									C196.7,168.5,196.4,169.3,197,169.4L197,169.4z"/>
							</g>
						</g>
						<g>
							<g>
								<path class="st13" d="M196.6,163.8c14.3,3,28.8,4.2,43.4,3.5c5.2-0.3,10.4-0.8,15.6-1.5c5.1-0.7,10.3-1.5,15.3-2.9
									c2.7-0.8,5.4-1.7,7.9-2.9c2.1-1,4.7-2.2,5.9-4.4c0.4-0.6-0.3-1.2-0.9-0.9c-0.9,0.4-1.7,1-2.6,1.5c-1,0.5-1.9,1.1-2.9,1.6
									c-2.1,1-4.3,1.9-6.6,2.5c-4.8,1.5-9.8,2.4-14.8,3.2c-11.9,1.7-23.9,2.5-35.9,2c-8.1-0.3-16.1-1.2-24-2.6
									C196.3,162.9,196.1,163.7,196.6,163.8L196.6,163.8z"/>
							</g>
						</g>
						<g>
							<g>
								<path class="st13" d="M196.3,158.2c14.3,3,28.8,4.2,43.4,3.5c5.2-0.3,10.4-0.8,15.6-1.5c5.1-0.7,10.3-1.5,15.3-2.9
									c2.7-0.8,5.4-1.7,7.9-2.9c2.1-1,4.7-2.2,5.9-4.4c0.4-0.6-0.3-1.2-0.9-0.9c-0.9,0.4-1.7,1-2.6,1.5c-1,0.5-1.9,1.1-2.9,1.6
									c-2.1,1-4.3,1.9-6.6,2.5c-4.8,1.5-9.8,2.4-14.8,3.2c-11.9,1.7-23.9,2.5-35.9,2c-8.1-0.3-16.1-1.2-24-2.6
									C196,157.3,195.8,158.1,196.3,158.2L196.3,158.2z"/>
							</g>
						</g>
						<g>
							<g>
								<path class="st13" d="M196,152.7c14.3,3,28.8,4.2,43.4,3.5c5.2-0.3,10.4-0.8,15.6-1.5c5.1-0.7,10.3-1.5,15.3-2.9
									c2.7-0.8,5.4-1.7,7.9-2.9c2.1-1,4.7-2.2,5.9-4.4c0.4-0.6-0.3-1.2-0.9-0.9c-0.9,0.4-1.7,1-2.6,1.5c-1,0.5-1.9,1.1-2.9,1.6
									c-2.1,1-4.3,1.9-6.6,2.5c-4.8,1.5-9.8,2.4-14.8,3.2c-11.9,1.7-23.9,2.5-35.9,2c-8.1-0.3-16.1-1.2-24-2.6
									C195.7,151.8,195.4,152.5,196,152.7L196,152.7z"/>
							</g>
						</g>
						<g>
							<g>
								<path class="st13" d="M195.6,147.1c14.3,3,28.8,4.2,43.4,3.5c5.2-0.3,10.4-0.8,15.6-1.5c5.1-0.7,10.3-1.5,15.3-2.9
									c2.7-0.8,5.4-1.7,7.9-2.9c2.1-1,4.7-2.2,5.9-4.4c0.4-0.6-0.3-1.2-0.9-0.9c-0.9,0.4-1.7,1-2.6,1.5c-1,0.5-1.9,1.1-2.9,1.6
									c-2.1,1-4.3,1.9-6.6,2.5c-4.8,1.5-9.8,2.4-14.8,3.2c-11.9,1.7-23.9,2.5-35.9,2c-8.1-0.3-16.1-1.2-24-2.6
									C195.3,146.2,195.1,147,195.6,147.1L195.6,147.1z"/>
							</g>
						</g>
						<g>
							<g>
								<path class="st13" d="M195.3,141.5c14.3,3,28.8,4.2,43.4,3.5c5.2-0.3,10.4-0.8,15.6-1.5c5.1-0.7,10.3-1.5,15.3-2.9
									c2.7-0.8,5.4-1.7,7.9-2.9c2.1-1,4.7-2.2,5.9-4.4c0.4-0.6-0.3-1.2-0.9-0.9c-0.9,0.4-1.7,1-2.6,1.5c-1,0.5-1.9,1.1-2.9,1.6
									c-2.1,1-4.3,1.9-6.6,2.5c-4.8,1.5-9.8,2.4-14.8,3.2c-11.9,1.7-23.9,2.5-35.9,2c-8.1-0.3-16.1-1.2-24-2.6
									C195,140.6,194.8,141.4,195.3,141.5L195.3,141.5z"/>
							</g>
						</g>
						<g>
							<g>
								<path class="st13" d="M195,135.9c14.3,3,28.8,4.2,43.4,3.5c5.2-0.3,10.4-0.8,15.6-1.5c5.1-0.7,10.3-1.5,15.3-2.9
									c2.7-0.8,5.4-1.7,7.9-2.9c2.1-1,4.7-2.2,5.9-4.4c0.4-0.6-0.3-1.2-0.9-0.9c-0.9,0.4-1.7,1-2.6,1.5c-1,0.5-1.9,1.1-2.9,1.6
									c-2.1,1-4.3,1.9-6.6,2.5c-4.8,1.5-9.8,2.4-14.8,3.2c-11.9,1.7-23.9,2.5-35.9,2c-8.1-0.3-16.1-1.2-24-2.6
									C194.7,135.1,194.4,135.8,195,135.9L195,135.9z"/>
							</g>
						</g>
						<g>
							<g>
								<path class="st13" d="M194.6,130.4c14.3,3,28.8,4.2,43.4,3.5c5.2-0.3,10.4-0.8,15.6-1.5c5.1-0.7,10.3-1.5,15.3-2.9
									c2.7-0.8,5.4-1.7,7.9-2.9c2.1-1,4.7-2.2,5.9-4.4c0.4-0.6-0.3-1.2-0.9-0.9c-0.9,0.4-1.7,1-2.6,1.5c-1,0.5-1.9,1.1-2.9,1.6
									c-2.1,1-4.3,1.9-6.6,2.5c-4.8,1.5-9.8,2.4-14.8,3.2c-11.9,1.7-23.9,2.5-35.9,2c-8.1-0.3-16.1-1.2-24-2.6
									C194.3,129.5,194.1,130.3,194.6,130.4L194.6,130.4z"/>
							</g>
						</g>
						<g>
							<g>
								<path class="st13" d="M194.3,124.8c14.3,3,28.8,4.2,43.4,3.5c5.2-0.3,10.4-0.8,15.6-1.5c5.1-0.7,10.3-1.5,15.3-2.9
									c2.7-0.8,5.4-1.7,7.9-2.9c2.1-1,4.7-2.2,5.9-4.4c0.4-0.6-0.3-1.2-0.9-0.9c-0.9,0.4-1.7,1-2.6,1.5c-1,0.5-1.9,1.1-2.9,1.6
									c-2.1,1-4.3,1.9-6.6,2.5c-4.8,1.5-9.8,2.4-14.8,3.2c-11.9,1.7-23.9,2.5-35.9,2c-8.1-0.3-16.1-1.2-24-2.6
									C194,123.9,193.8,124.7,194.3,124.8L194.3,124.8z"/>
							</g>
						</g>
						<g>
							<g>
								<path class="st13" d="M194,119.2c14.3,3,28.8,4.2,43.4,3.5c5.2-0.3,10.4-0.8,15.6-1.5c5.1-0.7,10.3-1.5,15.3-2.9
									c2.7-0.8,5.4-1.7,7.9-2.9c2.1-1,4.7-2.2,5.9-4.4c0.4-0.6-0.3-1.2-0.9-0.9c-0.9,0.4-1.7,1-2.6,1.5c-1,0.5-1.9,1.1-2.9,1.6
									c-2.1,1-4.3,1.9-6.6,2.5c-4.8,1.5-9.8,2.4-14.8,3.2c-11.9,1.7-23.9,2.5-35.9,2c-8.1-0.3-16.1-1.2-24-2.6
									C193.7,118.3,193.5,119.1,194,119.2L194,119.2z"/>
							</g>
						</g>
					</g>
				</g>
				<path class="st37" d="M248.6,118.9c0,0,5.9-1.2,11.6-0.5c4,0.5,11.4,3.6,16.8,8.8c7.6,7.2,15.2,23.5,15.2,23.5l7.4-25.3
					l26.1,4.9c0,0-3.7,43.1-8.2,55.6c-1.5,4.1-7.6,13-15.3,14c-10.8,1.4-20.2-5-24.6-10.6c-4.4-5.6-20.5-22.3-20.5-22.3"/>
				<path class="st6" d="M292.1,150.7c0,0-7.3,24.5-7.8,28.8"/>
				<path class="st37" d="M272.3,143.8l13.9,67.7c0,0-19-9.9-25.6-20.2c-6.6-10.3-12-72.5-12-72.5"/>
				<line class="st6" x1="272.3" y1="143.8" x2="282.8" y2="194.9"/>
				<line class="st38" x1="303.1" y1="126" x2="302.1" y2="130.5"/>
				<line class="st38" x1="308.1" y1="126.9" x2="307.2" y2="131.5"/>
				<line class="st38" x1="313.1" y1="127.9" x2="312.4" y2="132.3"/>
				<line class="st38" x1="318.1" y1="128.8" x2="317.4" y2="133.2"/>
				<line class="st38" x1="323" y1="129.7" x2="322.3" y2="134.1"/>
				<path class="st38" d="M286.2,211.5c0,0-19-9.9-25.6-20.2c-6.6-10.3-12-72.5-12-72.5"/>
				<g>
					<g>
						<path class="st30" d="M226.3,177.6c11.6-2.8,24.3-11,26-10.2c0.7,0.3,0.7,1.2,0,2.1c-1.4,2-4.9,4.3-4,5.4
							c0.5,0.7,9.8-3.6,14.3-4.6c1.6-0.4,1.8,1.4,1,1.9c-3.2,2.3-11.7,6.4-11.7,6.4c0.3,0.5,9.9-4.5,14.2-4.9
							c0.9-0.1,1.8,1.3,0.9,1.9c-3.4,2.4-13.5,7.7-13.5,7.7s9.8-5.1,13.8-5.2c0.7,0,1.3,1.4,0.7,1.8c-2.6,1.9-14.1,7.8-14.1,7.8
							s8.5-4.1,11.5-4.6c0.8-0.1,1.2,1.6,0.6,2.1c-4.7,4.1-29.9,14.1-29.9,14.1"/>
					</g>
					<g>
						<path class="st37" d="M200.5,145.7l-8.3,75.2c4.8-1.7,20.2-12.5,23.8-16.2c2-2.1,4-4.2,5.2-6.7c2.4-4.9,1.6-10.7,1.4-16.1
							c-0.8-21.1-4.3-59.5-4.3-59.5"/>
					</g>
					<path class="st38" d="M192.2,221c4.8-1.7,20.2-12.5,23.8-16.2c2-2.1,4-4.2,5.2-6.7c2.4-4.9,1.6-10.7,1.4-16.1
						c-0.8-21.1-4.3-59.5-4.3-59.5"/>
					<g>
						<path class="st37" d="M218.4,121.2c0,0-4.1,0-10.8,1c-12.4,1.7-22.4,9.4-26.9,25.8c-1.7,6.3-8.3,40.8-9,47.3
							c-1.3,11.9,6,27.3,24.3,25.8c11.3-0.9,48.8-23.2,48.8-23.2l-8.2-24.8l-34.3,8.6"/>
					</g>
					<line class="st6" x1="196.2" y1="184.6" x2="236.5" y2="173"/>
					<line class="st6" x1="205.5" y1="157.8" x2="204" y2="182.3"/>
					<line class="st38" x1="237.8" y1="176.7" x2="233.1" y2="178.1"/>
					<line class="st38" x1="239.3" y1="180.8" x2="234.6" y2="182.3"/>
					<line class="st38" x1="240.7" y1="185.4" x2="236" y2="186.9"/>
					<line class="st38" x1="241.9" y1="189.2" x2="237.2" y2="190.6"/>
					<line class="st38" x1="243.4" y1="193.5" x2="238.7" y2="194.9"/>
				</g>
			</g>
			<g>
				<g>
					<path class="st31" d="M241.4,111c0.7,4,1.5,8.1,2.9,11.9c1.3,3.3,3.1,6.5,5.7,9c4,3.8,13.1,5.8,18.1,2.8c2.2-1.4,3.5-3.9,4-6.5
						c0.7-3.8-0.2-7.8-2.3-11c-2.1-3.2-5.5-5.5-9.3-6.4c-0.6-0.1-1.3-0.3-1.4-0.9c-0.1-0.3,0-0.6,0.1-0.8c0.4-1.6,0.6-3.3,0.3-4.9
						c-0.4-1.6-1.4-3.1-3-3.7c-0.7-0.3-1.4-0.4-1.9-0.9c-0.3-0.4-0.5-0.9-0.6-1.3c-1.5-5.3-4.6-10.2-8.8-13.8"/>
				</g>
				<g>
					<path class="st39" d="M246.7,95.4c0.4-0.7,1.3-1.1,2.1-1c0.8,0.2,1.5,0.8,1.9,1.5c0.4,0.7,0.6,1.5,0.7,2.4
						c0.2,1.5,0.2,3.3-0.8,4.5c-0.7,0.9-1.9,1.3-3,1.2c-1.1-0.1-2.1-0.8-2.7-1.8"/>
				</g>
				<g>
					<path class="st31" d="M223.5,75.9c-1.8-0.2-3.7-0.6-5.3-1.6c-1.5-1-2.7-2.8-2.5-4.6c0.1-1.7,1.3-3.1,2.7-4
						c1.4-0.9,3.1-1.2,4.7-1.4c2.2-0.2,4.7-0.1,6.2,1.5c1.7,1.8,1.5,4.7,0.8,7.1c-0.5,1.5-1.1,3-2.3,4"/>
				</g>
				<path class="st30" d="M236.6,117.6L236.6,117.6c7.9-0.9,13.5-8,12.6-15.9l-1.6-14.2l-9.4-4.6l-19.1,7.8l1.6,14.2
					C221.6,112.9,228.7,118.5,236.6,117.6z"/>
				<path class="st30" d="M234.2,128L234.2,128c5.5,0,9.9-4.4,9.9-9.9v-6.7h-19.8v6.7C224.3,123.6,228.7,128,234.2,128z"/>
				<g>
					<path class="st31" d="M208.7,92.2c-0.4,4-2.1,7.9-4.8,11c-1.4,1.6-3.1,3-4.6,4.6c-1.5,1.6-2.8,3.4-3.2,5.6
						c-0.4,2.1,0.2,4.6,1.9,5.9c1.4,1,3.3,1.2,4.8,2c-1,0.9-1.2,2.4-1.3,3.8c-0.1,4.3,1.6,8.6,4.6,11.8c6.6,7,23.3,9.6,24-3.7
						c0.2-3.9-0.3-8-1.3-11.8c-1.4-5.4-6-9.5-7.6-14.8c-0.6-1.9-0.8-4-0.9-6c0-1-0.1-1.9,0.1-2.8c0.3-1,0.6-2,0.9-3"/>
				</g>
				<g>
					<path class="st31" d="M217.7,97.5c2.6,0.1,5,0,7.5-0.8c2.4-0.8,4.6-2,6.6-3.4c2.9-2.1,5.4-4.7,7.7-7.4c3.6,1.9,6.7,4.5,9.2,7.8
						c0.5-0.1,0.8-0.5,1.1-0.9c3.9-6.1-0.6-14.8-6.3-18.1c-4.4-2.6-9.8-3.2-14.9-2.6c-0.3,0-0.6,0.1-0.9,0.1
						c-7.1,1.1-13.2,4.5-16.8,10.7c-2.3,4.1-3,10.5-3.7,15.1"/>
				</g>
				<g>
					<path class="st30" d="M222.2,100.5c-1.3-1.8-4.2-2.1-6-0.7c-1.8,1.4-2.3,4-1.5,6.1c0.4,0.9,1,1.7,1.6,2.5
						c0.5,0.6,1.1,1.2,1.7,1.7c1,0.7,2.4,1,3.6,0.7s2.3-1.3,2.5-2.5"/>
				</g>
				<path class="st6" d="M228.6,115.2c4.1,2.5,11.2,2.5,15.5-0.4"/>
				<g>
					<g>
						<path class="st3" d="M216.7,102.7c0.3-0.5,0.8-0.8,1.3-0.9c0.5,0,1.1,0.2,1.5,0.5c0.4,0.4,0.8,0.9,1,1.4
							c0.1,0.3,0.2,0.6,0.3,0.9c0.1,0.3,0.1,0.6,0.3,0.8c0.1,0.1,0.3,0.1,0.4-0.1c0.1-0.2,0-0.3,0-0.5c0-0.2-0.1-0.4-0.1-0.5
							c-0.1-0.3-0.2-0.7-0.4-1c-0.3-0.6-0.7-1.1-1.3-1.5c-0.5-0.3-1.2-0.5-1.8-0.4c-0.6,0.1-1.1,0.6-1.3,1.2
							C216.5,102.7,216.6,102.8,216.7,102.7L216.7,102.7z"/>
					</g>
				</g>
				<path class="st3" d="M230.5,99.1c0,0.8-0.6,1.4-1.4,1.5c-0.8,0-1.4-0.6-1.5-1.4c0-0.8,0.6-1.4,1.4-1.5
					C229.8,97.7,230.4,98.3,230.5,99.1z"/>
				<path class="st3" d="M245,96.6c0,0.8-0.6,1.4-1.4,1.5c-0.8,0-1.4-0.6-1.5-1.4c0-0.8,0.6-1.4,1.4-1.5
					C244.3,95.2,244.9,95.8,245,96.6z"/>
				<g>
					<g>
						<path class="st3" d="M238.8,99.7c0.3,0.6,0.6,1.3,0.9,2c0.2,0.5,0.4,1,0.6,1.6c0.1,0.3,0.3,0.9,0.1,1.1
							c-0.1,0.2-0.6,0.2-0.8,0.3c-0.5,0-1,0-1.4,0.1c-0.3,0-0.2,0.5,0.1,0.5c0.5,0.1,0.9,0,1.4,0c0.3,0,0.7-0.1,1-0.3
							c0.4-0.3,0.4-0.8,0.3-1.3c-0.1-0.6-0.4-1.1-0.6-1.7c-0.2-0.5-0.5-1.1-0.8-1.6c-0.2-0.3-0.3-0.5-0.5-0.8
							C238.9,99.6,238.7,99.7,238.8,99.7L238.8,99.7z"/>
					</g>
				</g>
				<path class="st12" d="M225.4,97c1.2-2,4-2.6,5.6-1.3"/>
				<path class="st12" d="M241.4,94.2c1.1-1.4,3.1-1.5,4.2-0.3"/>
				<g>
					<path class="st13" d="M235.3,107.9c0,1.7,1,3.3,2.3,4c1.3,0.6,4.2,0.7,4.5-3.6L235.3,107.9z"/>
				</g>
				<path class="st40" d="M218.7,75c3.8-2.1,8.1-3.2,12.4-3.2"/>
			</g>
		</g>
		<g>
			<g>
				<path class="st17" d="M601.2,158.3c-3.6-4.8-17.1-16.1-17.1-16.1c-8.1,6.2-13.3,20.3-13.3,20.3c-4.3-1.3-31.5-8.7-32.9-8.6
					c-1.4,0-2.9,0.4-4.1,1.2c-1,0.7-1.6,1.7-2.3,2.7c-1.3,2.2-1.9,3.4-3,5.7c-0.6,1.3-1.2,2.5-1.6,3.8c-0.2,0.6-0.4,1.1-0.3,1.7
					c0,1,0.7,1.9,1.5,2.3c0.9,0.4,2,0.3,2.7-0.3c-0.3,0.9,0,2.1,0.8,2.7c0.8,0.6,2,0.6,2.8,0c0.1,0.8,0.7,1.6,1.5,1.9
					c0.8,0.3,1.7,0.2,2.4-0.3c0,1,1,1.6,1.9,1.9c0.8,0.3,1.8,0.3,2.1-0.4c0.1-0.2,0.1-0.3,0.2-0.4c0.1-0.1,0.3,0,0.5,0.1
					c2.5,1.2,4.7,2,7.4,1.9c0.7,0,1.4-0.2,2.1-0.1c1.2,0.3,28.3,11.7,37.1,12.2c11.2,0.6,18.1-4.8,18.8-12.6
					C609.2,171.5,606.6,165.5,601.2,158.3z"/>
			</g>
			<g>
				<g>
					<path class="st8" d="M613,168.5c1,2.5,1.6,5.1,1.8,7.8c0.1,1.3,0,2.6-0.1,3.8c-0.1,0.7-0.2,1.4-0.3,2c-0.1,0.6-0.3,1.3-0.3,2
						c0,0.4,0.6,0.6,0.8,0.2c0.3-0.6,0.4-1.3,0.6-1.9c0.1-0.7,0.3-1.3,0.3-2c0.1-1.4,0.1-2.9,0-4.3c-0.2-2.7-1-5.4-2.2-7.9
						C613.5,167.9,612.9,168.1,613,168.5L613,168.5z"/>
				</g>
			</g>
			<g>
				<g>
					<path class="st8" d="M618.8,169.7c0.7,1.9,1.1,3.8,1.3,5.8c0.1,0.9,0.1,1.8,0,2.6c-0.1,0.8-0.5,1.3-0.9,2
						c-0.2,0.3,0.1,0.6,0.4,0.6c1.8-0.6,1.7-3.3,1.5-4.7c-0.2-2.3-0.8-4.4-1.7-6.5C619.3,169.1,618.6,169.3,618.8,169.7L618.8,169.7
						z"/>
				</g>
			</g>
			<path class="st6" d="M596.9,171.3c-5.2-4.7-26.6-9.1-26.6-9.1"/>
			<g>
				<g>
					<path class="st3" d="M544.3,174.8c-0.1,0-0.1-0.1-0.2-0.1c-0.1,0-0.1,0-0.2,0c-0.1,0-0.2,0-0.3,0.1c-0.2,0.1-0.4,0.2-0.6,0.4
						c-0.2,0.1-0.3,0.3-0.4,0.5c-0.1,0.1-0.1,0.2-0.1,0.3c0,0,0,0.1,0,0.2c0,0,0,0.1,0,0.1c0,0,0,0.1,0.1,0.1c0,0,0,0,0,0
						c0,0.1,0.1,0.1,0.2,0.1c0,0,0,0,0,0c0,0,0,0,0,0c0.1,0,0.1-0.1,0.1-0.1c0,0,0-0.1,0-0.1c0-0.1,0.1-0.2,0.1-0.2
						c0,0,0.1-0.1,0.1-0.1c0,0,0,0,0-0.1c0,0,0,0,0,0c0.1-0.1,0.1-0.1,0.2-0.2c0,0,0,0,0.1,0c0,0,0,0,0,0c0,0,0,0,0,0
						c0,0,0.1-0.1,0.1-0.1c0,0,0.1,0,0.1-0.1c0,0,0,0,0.1,0c0.1,0,0,0,0,0c0.1,0,0.1,0,0.1-0.1c0,0,0.1,0,0.1,0c0.1,0,0.2,0,0.3-0.1
						C544.4,175,544.4,174.8,544.3,174.8L544.3,174.8z"/>
				</g>
			</g>
			<path class="st6" d="M541.7,167.6c-1.2,2.2-2.2,4.6-2.8,7.1"/>
			<path class="st6" d="M536.9,165.9c-1.1,2.4-1.9,4.9-2.3,7.5"/>
			<path class="st6" d="M533.7,163.3c-1.1,2.1-2.5,5-2.9,7.7"/>
		</g>
		<g>
			<g>
				<path class="st22" d="M46.5,129.6c0,0-12,9.8-16.6,14.5c-6.9,7.1-10.6,13.2-10.8,20.1c-0.3,8.5,5.8,18.6,18.1,19.6
					c9.6,0.8,41.3-11.1,42.5-11.2c0.7-0.1,1.5,0.3,2.2,0.4c3,0.5,5.5-0.1,8.3-1c0.2-0.1,0.4-0.1,0.6,0c0.1,0.1,0.1,0.3,0.2,0.5
					c0.2,0.9,1.4,1,2.2,0.8c1-0.2,2.2-0.7,2.4-1.8c0.7,0.6,1.7,0.9,2.6,0.6c0.9-0.2,1.7-1,1.9-1.9c0.8,0.8,2.1,1,3,0.4
					c1-0.5,1.5-1.7,1.2-2.8c0.8,0.7,1.9,1,2.9,0.7c1-0.3,1.8-1.2,2-2.3c0.1-0.6,0-1.3-0.1-1.9c-0.3-1.5-0.8-2.9-1.2-4.4
					c-0.8-2.7-1.3-4-2.5-6.6c-0.5-1.2-1.1-2.4-2.1-3.2c-1.1-1.1-2.7-1.7-4.2-1.9c-1.6-0.2-32.2,3.9-37,4.7"/>
			</g>
			<g>
				<g>
					<path class="st8" d="M28.2,190.4c2.2,2.3,5.1,3.7,8.2,4.1c3,0.4,6.6-0.1,8.9-2.2c0.2-0.2,0-0.6-0.3-0.5
						c-1.3,0.6-2.7,1.1-4.1,1.5c-1.4,0.3-2.9,0.4-4.3,0.3c-3-0.3-5.8-1.5-7.9-3.6C28.4,189.6,27.9,190.1,28.2,190.4L28.2,190.4z"/>
				</g>
			</g>
			<g>
				<g>
					<path class="st8" d="M31.1,199.5c1.6,1.6,3.6,2.7,5.8,3.1c1.1,0.2,2.2,0.3,3.3,0.2c1.1-0.1,2.3-0.3,3.2-1
						c0.4-0.3,0.1-0.8-0.3-0.7c-1,0.2-1.9,0.6-3,0.7c-1,0.1-2,0.1-3.1-0.1c-2-0.4-3.9-1.3-5.4-2.8C31.3,198.5,30.7,199.1,31.1,199.5
						L31.1,199.5z"/>
				</g>
			</g>
			<path class="st6" d="M32.7,158.9c6.3-4.4,30.2-6.1,30.2-6.1"/>
			<g>
				<g>
					<path class="st3" d="M89.3,170.4c0.1,0,0.1,0.1,0.2,0.1c0,0,0.1,0,0.1,0c0.1,0,0.2,0.1,0.3,0.1c0.2,0.1,0.3,0.2,0.4,0.4
						c0.1,0.1,0.2,0.3,0.3,0.5c0,0.1,0,0.1,0,0.1c0,0,0,0.1,0,0.1c0,0,0,0.1,0,0.1c0,0,0,0.1,0,0.1c0,0,0,0.1,0.1,0.1c0,0,0,0,0,0
						c0.1,0.1,0.2,0,0.2,0c0,0,0,0,0,0c0,0,0-0.1,0.1-0.1c0,0,0-0.1,0-0.1c0-0.1,0-0.1,0-0.2c0-0.1-0.1-0.2-0.1-0.3
						c-0.1-0.2-0.2-0.4-0.4-0.6c-0.2-0.2-0.3-0.3-0.6-0.4c-0.1-0.1-0.2-0.1-0.3-0.1c-0.1,0-0.3-0.1-0.4,0
						C89.2,170.2,89.2,170.3,89.3,170.4L89.3,170.4z"/>
				</g>
			</g>
			<path class="st6" d="M93.2,162.7c1,2.6,1.7,5.3,2.1,8.1"/>
			<path class="st6" d="M98.6,161.6c0.9,2.7,1.4,5.6,1.4,8.4"/>
			<path class="st6" d="M102.5,159.2c0.9,2.4,2,5.8,2,8.8"/>
		</g>
	</g>
</g>
<path class="st41" d="M630.6,411.5H0.6v-61c0-11.9,9.7-21.6,21.6-21.6H609c11.9,0,21.6,9.7,21.6,21.6V411.5z"/>
<g>
	<g>
		<path class="st13" d="M134.8,359.4h-8.4v23.2h-4.7v-23.2h-8.3v-3.8h21.4V359.4z"/>
		<path class="st13" d="M144.7,383c-2.9,0-5.2-0.9-6.9-2.7c-1.8-1.8-2.7-4.2-2.7-7.2v-0.6c0-2,0.4-3.8,1.2-5.4
			c0.8-1.6,1.9-2.8,3.3-3.7c1.4-0.9,3-1.3,4.7-1.3c2.7,0,4.8,0.9,6.3,2.6c1.5,1.7,2.2,4.2,2.2,7.4v1.8h-13.1c0.1,1.7,0.7,3,1.7,3.9
			c1,1,2.2,1.4,3.7,1.4c2.1,0,3.7-0.8,5-2.5l2.4,2.3c-0.8,1.2-1.9,2.1-3.2,2.8C147.9,382.7,146.4,383,144.7,383z M144.2,365.8
			c-1.2,0-2.2,0.4-3,1.3c-0.8,0.9-1.2,2.1-1.5,3.6h8.6v-0.3c-0.1-1.5-0.5-2.7-1.2-3.4C146.4,366.2,145.4,365.8,144.2,365.8z"/>
		<path class="st13" d="M164.1,372.4c0-3.1,0.7-5.6,2.2-7.5c1.4-1.9,3.4-2.8,5.8-2.8c2.1,0,3.8,0.7,5.2,2.2v-10.3h4.5v28.5h-4.1
			l-0.2-2.1c-1.3,1.6-3.1,2.4-5.4,2.4c-2.4,0-4.3-0.9-5.7-2.8C164.8,378.3,164.1,375.7,164.1,372.4z M168.6,372.8
			c0,2,0.4,3.6,1.2,4.8c0.8,1.1,1.9,1.7,3.3,1.7c1.8,0,3.2-0.8,4-2.5v-8.6c-0.8-1.6-2.2-2.4-4-2.4c-1.5,0-2.6,0.6-3.4,1.7
			C169,368.8,168.6,370.5,168.6,372.8z"/>
		<path class="st13" d="M198,382.6c-0.2-0.4-0.4-1-0.5-1.9c-1.4,1.5-3.2,2.2-5.3,2.2c-2,0-3.7-0.6-4.9-1.7c-1.3-1.2-1.9-2.6-1.9-4.3
			c0-2.1,0.8-3.8,2.4-4.9c1.6-1.1,3.9-1.7,6.8-1.7h2.8V369c0-1-0.3-1.9-0.9-2.5c-0.6-0.6-1.5-0.9-2.7-0.9c-1,0-1.9,0.3-2.5,0.8
			c-0.7,0.5-1,1.2-1,2h-4.5c0-1.1,0.4-2.1,1.1-3.1c0.7-1,1.7-1.7,3-2.3c1.3-0.5,2.7-0.8,4.2-0.8c2.3,0,4.2,0.6,5.6,1.8
			c1.4,1.2,2.1,2.8,2.2,5v9.1c0,1.8,0.3,3.2,0.8,4.3v0.3H198z M193.1,379.4c0.9,0,1.7-0.2,2.5-0.6c0.8-0.4,1.4-1,1.8-1.7v-3.8h-2.4
			c-1.7,0-2.9,0.3-3.8,0.9c-0.8,0.6-1.3,1.4-1.3,2.5c0,0.9,0.3,1.6,0.9,2.1C191.3,379.1,192.1,379.4,193.1,379.4z"/>
		<path class="st13" d="M210.4,362.5l0.1,2.1c1.4-1.6,3.3-2.5,5.8-2.5c2.7,0,4.5,1,5.5,3.1c1.5-2.1,3.5-3.1,6.2-3.1
			c2.2,0,3.9,0.6,4.9,1.8c1.1,1.2,1.6,3,1.7,5.4v13.2h-4.5v-13.1c0-1.3-0.3-2.2-0.8-2.8s-1.5-0.9-2.8-0.9c-1,0-1.9,0.3-2.5,0.8
			c-0.7,0.6-1.1,1.3-1.4,2.2l0,13.8h-4.5v-13.2c-0.1-2.4-1.3-3.5-3.6-3.5c-1.8,0-3.1,0.7-3.8,2.2v14.5h-4.5v-20.1H210.4z"/>
		<path class="st13" d="M238,372.4c0-2,0.4-3.7,1.2-5.3c0.8-1.6,1.9-2.8,3.3-3.6c1.4-0.8,3-1.3,4.9-1.3c2.7,0,4.9,0.9,6.6,2.6
			c1.7,1.7,2.6,4.1,2.7,6.9l0,1.1c0,2-0.4,3.7-1.1,5.3c-0.8,1.6-1.8,2.8-3.3,3.6c-1.4,0.9-3.1,1.3-4.9,1.3c-2.8,0-5.1-0.9-6.8-2.8
			c-1.7-1.9-2.6-4.4-2.6-7.5V372.4z M242.6,372.8c0,2.1,0.4,3.7,1.3,4.9c0.9,1.2,2,1.8,3.6,1.8s2.7-0.6,3.6-1.8
			c0.8-1.2,1.3-2.9,1.3-5.2c0-2-0.4-3.6-1.3-4.8c-0.9-1.2-2.1-1.8-3.6-1.8c-1.5,0-2.6,0.6-3.5,1.8
			C243,368.7,242.6,370.5,242.6,372.8z"/>
		<path class="st13" d="M271.4,377.2c0-0.8-0.3-1.4-1-1.8c-0.7-0.4-1.8-0.8-3.3-1.1c-1.5-0.3-2.8-0.7-3.8-1.2
			c-2.3-1.1-3.4-2.7-3.4-4.7c0-1.7,0.7-3.2,2.2-4.3c1.5-1.2,3.3-1.7,5.6-1.7c2.4,0,4.3,0.6,5.8,1.8c1.5,1.2,2.2,2.7,2.2,4.6h-4.5
			c0-0.9-0.3-1.6-1-2.2c-0.6-0.6-1.5-0.9-2.6-0.9c-1,0-1.8,0.2-2.4,0.7c-0.6,0.5-0.9,1.1-0.9,1.8c0,0.7,0.3,1.2,0.9,1.6
			c0.6,0.4,1.8,0.8,3.5,1.2c1.8,0.4,3.2,0.9,4.2,1.4c1,0.5,1.8,1.2,2.2,1.9c0.5,0.8,0.7,1.7,0.7,2.7c0,1.8-0.7,3.3-2.2,4.4
			c-1.5,1.1-3.5,1.7-5.9,1.7c-1.6,0-3.1-0.3-4.4-0.9c-1.3-0.6-2.3-1.4-3-2.4c-0.7-1-1.1-2.2-1.1-3.4h4.4c0.1,1.1,0.5,1.9,1.2,2.5
			c0.7,0.6,1.7,0.9,3,0.9c1.2,0,2.1-0.2,2.7-0.7C271.1,378.5,271.4,377.9,271.4,377.2z"/>
		<path class="st13" d="M293.3,382.6h-4.5v-28.5h4.5V382.6z"/>
		<path class="st13" d="M309.8,382.6c-0.2-0.4-0.4-1-0.5-1.9c-1.4,1.5-3.2,2.2-5.3,2.2c-2,0-3.7-0.6-4.9-1.7
			c-1.3-1.2-1.9-2.6-1.9-4.3c0-2.1,0.8-3.8,2.4-4.9c1.6-1.1,3.9-1.7,6.8-1.7h2.8V369c0-1-0.3-1.9-0.9-2.5c-0.6-0.6-1.5-0.9-2.7-0.9
			c-1,0-1.9,0.3-2.5,0.8c-0.7,0.5-1,1.2-1,2h-4.5c0-1.1,0.4-2.1,1.1-3.1c0.7-1,1.7-1.7,3-2.3c1.3-0.5,2.7-0.8,4.2-0.8
			c2.3,0,4.2,0.6,5.6,1.8c1.4,1.2,2.1,2.8,2.2,5v9.1c0,1.8,0.3,3.2,0.8,4.3v0.3H309.8z M304.8,379.4c0.9,0,1.7-0.2,2.5-0.6
			c0.8-0.4,1.4-1,1.8-1.7v-3.8h-2.4c-1.7,0-2.9,0.3-3.8,0.9c-0.8,0.6-1.3,1.4-1.3,2.5c0,0.9,0.3,1.6,0.9,2.1
			C303.1,379.1,303.9,379.4,304.8,379.4z"/>
		<path class="st13" d="M344.7,372.8c0,3.1-0.7,5.6-2.1,7.4c-1.4,1.8-3.3,2.8-5.7,2.8c-2.4,0-4.2-0.8-5.5-2.5l-0.2,2.2H327v-28.5
			h4.5v10.4c1.3-1.5,3-2.3,5.3-2.3c2.4,0,4.4,0.9,5.8,2.7c1.4,1.8,2.1,4.4,2.1,7.6V372.8z M340.2,372.4c0-2.2-0.4-3.8-1.2-4.9
			c-0.8-1.1-1.9-1.6-3.3-1.6c-2,0-3.3,0.9-4.1,2.6v8.3c0.8,1.7,2.2,2.6,4.2,2.6c1.4,0,2.5-0.5,3.3-1.6c0.8-1.1,1.2-2.6,1.2-4.8
			V372.4z"/>
		<path class="st13" d="M348.1,357.3c0-0.7,0.2-1.3,0.7-1.7c0.4-0.5,1.1-0.7,1.9-0.7s1.4,0.2,1.9,0.7c0.4,0.5,0.7,1,0.7,1.7
			c0,0.7-0.2,1.2-0.7,1.7c-0.4,0.5-1.1,0.7-1.9,0.7s-1.4-0.2-1.9-0.7C348.3,358.6,348.1,358,348.1,357.3z M352.9,382.6h-4.5v-20.1
			h4.5V382.6z"/>
		<path class="st13" d="M366.2,383c-2.9,0-5.2-0.9-6.9-2.7c-1.8-1.8-2.7-4.2-2.7-7.2v-0.6c0-2,0.4-3.8,1.2-5.4
			c0.8-1.6,1.9-2.8,3.3-3.7c1.4-0.9,3-1.3,4.7-1.3c2.7,0,4.8,0.9,6.3,2.6c1.5,1.7,2.2,4.2,2.2,7.4v1.8h-13.1c0.1,1.7,0.7,3,1.7,3.9
			c1,1,2.2,1.4,3.7,1.4c2.1,0,3.7-0.8,5-2.5l2.4,2.3c-0.8,1.2-1.9,2.1-3.2,2.8C369.4,382.7,367.9,383,366.2,383z M365.7,365.8
			c-1.2,0-2.2,0.4-3,1.3c-0.8,0.9-1.2,2.1-1.5,3.6h8.6v-0.3c-0.1-1.5-0.5-2.7-1.2-3.4C367.9,366.2,366.9,365.8,365.7,365.8z"/>
		<path class="st13" d="M381.6,362.5l0.1,2.3c1.5-1.8,3.4-2.7,5.8-2.7c4.2,0,6.3,2.4,6.4,7.2v13.3h-4.5v-13c0-1.3-0.3-2.2-0.8-2.8
			c-0.6-0.6-1.5-0.9-2.7-0.9c-1.8,0-3.2,0.8-4.1,2.5v14.3h-4.5v-20.1H381.6z"/>
		<path class="st13" d="M405.2,376.9l4.2-14.4h4.7l-7,20.1h-3.9l-7-20.1h4.7L405.2,376.9z"/>
		<path class="st13" d="M425.2,383c-2.9,0-5.2-0.9-6.9-2.7c-1.8-1.8-2.7-4.2-2.7-7.2v-0.6c0-2,0.4-3.8,1.2-5.4
			c0.8-1.6,1.9-2.8,3.3-3.7c1.4-0.9,3-1.3,4.7-1.3c2.7,0,4.8,0.9,6.3,2.6c1.5,1.7,2.2,4.2,2.2,7.4v1.8h-13.1c0.1,1.7,0.7,3,1.7,3.9
			c1,1,2.2,1.4,3.7,1.4c2.1,0,3.7-0.8,5-2.5l2.4,2.3c-0.8,1.2-1.9,2.1-3.2,2.8C428.3,382.7,426.8,383,425.2,383z M424.6,365.8
			c-1.2,0-2.2,0.4-3,1.3c-0.8,0.9-1.2,2.1-1.5,3.6h8.6v-0.3c-0.1-1.5-0.5-2.7-1.2-3.4C426.9,366.2,425.9,365.8,424.6,365.8z"/>
		<path class="st13" d="M440.5,362.5l0.1,2.3c1.5-1.8,3.4-2.7,5.8-2.7c4.2,0,6.3,2.4,6.4,7.2v13.3h-4.5v-13c0-1.3-0.3-2.2-0.8-2.8
			c-0.6-0.6-1.5-0.9-2.7-0.9c-1.8,0-3.2,0.8-4.1,2.5v14.3h-4.5v-20.1H440.5z"/>
		<path class="st13" d="M457.1,357.3c0-0.7,0.2-1.3,0.7-1.7c0.4-0.5,1.1-0.7,1.9-0.7s1.4,0.2,1.9,0.7c0.4,0.5,0.7,1,0.7,1.7
			c0,0.7-0.2,1.2-0.7,1.7c-0.4,0.5-1.1,0.7-1.9,0.7s-1.4-0.2-1.9-0.7C457.3,358.6,457.1,358,457.1,357.3z M461.9,382.6h-4.5v-20.1
			h4.5V382.6z"/>
		<path class="st13" d="M465.6,372.4c0-3.1,0.7-5.6,2.2-7.5c1.4-1.9,3.4-2.8,5.8-2.8c2.1,0,3.8,0.7,5.2,2.2v-10.3h4.5v28.5h-4.1
			l-0.2-2.1c-1.3,1.6-3.1,2.4-5.4,2.4c-2.4,0-4.3-0.9-5.7-2.8C466.3,378.3,465.6,375.7,465.6,372.4z M470.1,372.8
			c0,2,0.4,3.6,1.2,4.8c0.8,1.1,1.9,1.7,3.3,1.7c1.8,0,3.2-0.8,4-2.5v-8.6c-0.8-1.6-2.2-2.4-4-2.4c-1.5,0-2.6,0.6-3.4,1.7
			C470.5,368.8,470.1,370.5,470.1,372.8z"/>
		<path class="st13" d="M499.5,382.6c-0.2-0.4-0.4-1-0.5-1.9c-1.4,1.5-3.2,2.2-5.3,2.2c-2,0-3.7-0.6-4.9-1.7
			c-1.3-1.2-1.9-2.6-1.9-4.3c0-2.1,0.8-3.8,2.4-4.9c1.6-1.1,3.9-1.7,6.8-1.7h2.8V369c0-1-0.3-1.9-0.9-2.5c-0.6-0.6-1.5-0.9-2.7-0.9
			c-1,0-1.9,0.3-2.5,0.8c-0.7,0.5-1,1.2-1,2h-4.5c0-1.1,0.4-2.1,1.1-3.1c0.7-1,1.7-1.7,3-2.3c1.3-0.5,2.7-0.8,4.2-0.8
			c2.3,0,4.2,0.6,5.6,1.8c1.4,1.2,2.1,2.8,2.2,5v9.1c0,1.8,0.3,3.2,0.8,4.3v0.3H499.5z M494.5,379.4c0.9,0,1.7-0.2,2.5-0.6
			c0.8-0.4,1.4-1,1.8-1.7v-3.8h-2.4c-1.7,0-2.9,0.3-3.8,0.9c-0.8,0.6-1.3,1.4-1.3,2.5c0,0.9,0.3,1.6,0.9,2.1
			C492.8,379.1,493.6,379.4,494.5,379.4z"/>
	</g>
</g>
<g>
	<text transform="matrix(1 0 0 1 112.5213 506.6238)" class="st13" style="font-family:'Roboto-Medium'; font-size:38px;">Te damos la bienvenida</text>
</g>
</svg>
