<?xml version="1.0" encoding="utf-8"?>
<!-- Generator: Adobe Illustrator 24.3.0, SVG Export Plug-In . SVG Version: 6.00 Build 0)  -->
<svg version="1.1" id="Capa_1" xmlns="http://www.w3.org/2000/svg" xmlns:xlink="http://www.w3.org/1999/xlink" x="0px" y="0px"
	 viewBox="0 0 594 350" style="enable-background:new 0 0 594 350;" xml:space="preserve">
<style type="text/css">
	.st0{fill:#A9E3F7;}
	.st1{fill:#2CBBED;}
	.st2{clip-path:url(#SVGID_2_);}
	.st3{fill:#82CEF0;}
	.st4{fill:#FFD100;}
	.st5{fill:#E95D9C;}
	.st6{clip-path:url(#SVGID_4_);}
	.st7{clip-path:url(#SVGID_6_);fill:#FFFFFF;}
	.st8{opacity:0.5;fill:#FFFFFF;}
	.st9{fill:#FFFFFF;}
	.st10{fill:none;stroke:#5C5A61;stroke-width:8.7142;stroke-miterlimit:10;}
	.st11{fill:#5C5A61;}
	.st12{fill:#221E20;}
</style>
<rect x="-0.1" y="83" class="st0" width="594.1" height="266"/>
<rect x="0.6" class="st1" width="594.4" height="83"/>
<g>
	<g>
		<g>
			<defs>
				<polyline id="SVGID_1_" points="86.6,21.1 86.6,180.1 0.8,180.1 0.8,21.1 				"/>
			</defs>
			<clipPath id="SVGID_2_">
				<use xlink:href="#SVGID_1_"  style="overflow:visible;"/>
			</clipPath>
			<g class="st2">
				<path class="st3" d="M40.8,166.6l17.4-20.8c-6.8-1.3-13.5-3.2-19.8-5.8l-16.2,19.4C28.2,162.3,34.4,164.7,40.8,166.6"/>
				<path class="st3" d="M-19.5,147.8c4.5,4.3,5,5.7,10.2,9.3l25.2-30.1c-5.3-3.5-6.2-4.4-10.7-8.8L-19.5,147.8z"/>
				<path class="st4" d="M-34.6,104.5c3.1,5.9,6.6,11.5,10.6,16.8l15.7-18.7c-3.8-5.5-7.1-11.5-9.8-17.7L-34.6,104.5z"/>
				<path class="st4" d="M74.4,7.6C73,7.3,73,7.4,71.1,7.4C51.5,8.2,41.3,23.9,40.4,43.5h-24l58-69.4L74.4,7.6z"/>
				<path class="st5" d="M-43.5,83l18.3-21.9c-1-5.7-1.5-11.6-1.5-17.7h16.3l82-98v-25c-1.3,0.1-2.6,0.1-3.9,0.2L-48.3,59.4
					C-47.4,67.5-45.8,75.4-43.5,83"/>
				<path class="st4" d="M-18.1,84.8l34.5-41.3h-26.8l-14.8,17.7C-23.8,69.4-21.4,77.3-18.1,84.8"/>
				<path class="st3" d="M46.8,36.6l-55.2,65.9c4,5.7,8.5,11.1,13.5,15.9l51.4-61.3c-5.1-5.6-15.5-5.1-16.6-13"/>
				<path class="st3" d="M15.7,127.1c5.8,3.9,11.2,7,17.7,9.6l44.8-53.5l0-12.4c-1.9-0.1-3.4-0.5-4-0.6c-2.9-0.5-4.7-4.4-7.5-5.6
					L15.7,127.1z"/>
			</g>
		</g>
	</g>
	<path class="st1" d="M77.9,1.4c-22.5,0-40.8,18.2-40.8,40.8C37.2,64.7,55.4,83,77.9,83c22.5,0,40.8-18.3,40.8-40.8
		C118.7,19.7,100.5,1.4,77.9,1.4z"/>
	<g>
		<g>
			<defs>
				<path id="SVGID_3_" d="M78.8,8.5c-18.5,0-33.5,15-33.5,33.5c0,18.5,15,33.5,33.5,33.5c18.5,0,33.5-15,33.5-33.5
					C112.2,23.4,97.3,8.5,78.8,8.5z"/>
			</defs>
			<clipPath id="SVGID_4_">
				<use xlink:href="#SVGID_3_"  style="overflow:visible;"/>
			</clipPath>
			<g class="st6">
				<g>
					<defs>
						<polygon id="SVGID_5_" points="28.6,11.9 108.9,79.2 67.8,79.2 28.6,46.3 						"/>
					</defs>
					<clipPath id="SVGID_6_">
						<use xlink:href="#SVGID_5_"  style="overflow:visible;"/>
					</clipPath>
					<path class="st7" d="M78.8,8.5c-18.5,0-33.5,15-33.5,33.5c0,18.5,15,33.5,33.5,33.5c18.5,0,33.5-15,33.5-33.5
						C112.2,23.4,97.3,8.5,78.8,8.5z M78.8,71.1c-16.1,0-29.2-13.1-29.2-29.2c0-16.1,13.1-29.2,29.2-29.2
						c16.1,0,29.2,13.1,29.2,29.2C107.9,58,94.9,71.1,78.8,71.1z"/>
				</g>
				<path class="st8" d="M78.8,8.5c-18.5,0-33.5,15-33.5,33.5c0,18.5,15,33.5,33.5,33.5c18.5,0,33.5-15,33.5-33.5
					C112.2,23.4,97.3,8.5,78.8,8.5z"/>
				<path class="st9" d="M78.8,16.3c-14.2,0-25.6,11.5-25.6,25.6c0,14.2,11.5,25.6,25.6,25.6c14.2,0,25.6-11.5,25.6-25.6
					C104.4,27.8,92.9,16.3,78.8,16.3z"/>
			</g>
		</g>
		<g>
			<path class="st10" d="M78.8,24.7c-9.5,0-17.2,7.7-17.2,17.2c0,9.5,7.7,17.2,17.2,17.2c9.5,0,17.2-7.7,17.2-17.2
				C95.9,32.4,88.3,24.7,78.8,24.7z"/>
			<path class="st10" d="M78.8,33.1c-4.9,0-8.8,3.9-8.8,8.8c0,4.9,3.9,8.8,8.8,8.8c4.9,0,8.8-3.9,8.8-8.8
				C87.6,37,83.6,33.1,78.8,33.1z"/>
		</g>
		<g>
			<path class="st9" d="M78.8,16.3c-14.2,0-25.6,11.5-25.6,25.6c0,14.2,11.5,25.6,25.6,25.6c14.2,0,25.6-11.5,25.6-25.6
				C104.4,27.8,92.9,16.3,78.8,16.3z"/>
			<g>
				<g>
					<path class="st11" d="M88.7,36.6h-5c-0.3,0-0.6,0.3-0.6,0.6c0,0.3,0.3,0.6,0.6,0.6h5c0.3,0,0.6-0.3,0.6-0.6
						C89.3,36.9,89.1,36.6,88.7,36.6z"/>
					<path class="st11" d="M88.7,41.6h-5c-0.3,0-0.6,0.3-0.6,0.6c0,0.3,0.3,0.6,0.6,0.6h5c0.3,0,0.6-0.3,0.6-0.6
						C89.3,41.9,89.1,41.6,88.7,41.6z"/>
					<path class="st11" d="M92.4,29.2h-9.6c-1.7,0.1-3.2,1-4,2.4c-0.8-1.5-2.4-2.4-4-2.4h-9.6c-1,0-1.9,0.8-1.9,1.9v18.6
						c0,2.7,2.2,5,5,5h21.1c2.7,0,5-2.2,5-5V31C94.3,30,93.5,29.2,92.4,29.2z M78.2,53.4h-9.9c-1.8,0-3.4-1.3-3.7-3.1h10.2
						c0.8,0,1.6,0.3,2.2,0.9l1.2,1.2V53.4z M78.2,50.7l-0.3-0.3c-0.8-0.8-1.9-1.3-3.1-1.3H64.5V31c0-0.3,0.3-0.6,0.6-0.6h9.6
						c1.8,0.1,3.3,1.6,3.4,3.4V50.7z M89.3,53.4h-9.9v-1l1.2-1.2c0.6-0.6,1.4-0.9,2.2-0.9H93C92.7,52.1,91.2,53.4,89.3,53.4z
						 M93.1,49.1H82.8c-1.2,0-2.3,0.5-3.1,1.3l-0.3,0.3V33.8c0.1-1.8,1.6-3.3,3.4-3.4h9.6c0.3,0,0.6,0.3,0.6,0.6V49.1z"/>
					<path class="st11" d="M73.8,36.6h-5c-0.3,0-0.6,0.3-0.6,0.6c0,0.3,0.3,0.6,0.6,0.6h5c0.3,0,0.6-0.3,0.6-0.6
						C74.4,36.9,74.1,36.6,73.8,36.6z"/>
					<path class="st11" d="M73.8,41.6h-5c-0.3,0-0.6,0.3-0.6,0.6c0,0.3,0.3,0.6,0.6,0.6h5c0.3,0,0.6-0.3,0.6-0.6
						C74.4,41.9,74.1,41.6,73.8,41.6z"/>
				</g>
			</g>
		</g>
	</g>
	<g>
		<g>
			<g>
				<path class="st9" d="M123,26.1c-1.1-1.1-1.7-2.7-1.7-4.9c0-2.2,0.6-3.8,1.8-4.9c1.2-1.1,2.9-1.6,5.1-1.6c1,0,2,0.1,2.8,0.3v2.9
					c-0.8-0.2-1.6-0.2-2.3-0.2c-0.8,0-1.5,0.1-2.1,0.4c-0.5,0.2-0.9,0.6-1.2,1.1c-0.3,0.5-0.4,1.2-0.4,2c0,1.3,0.3,2.2,0.8,2.7
					c0.5,0.6,1.4,0.8,2.5,0.8c0.4,0,0.8,0,1.2-0.1c0.4-0.1,0.9-0.2,1.4-0.3v2.9c-1,0.3-2,0.5-3.2,0.5
					C125.7,27.7,124.1,27.2,123,26.1z"/>
				<path class="st9" d="M134,26.5c-0.8-0.8-1.2-2-1.2-3.7v-7.8h3.7v7.6c0,0.7,0.1,1.2,0.4,1.5c0.3,0.3,0.7,0.5,1.3,0.5
					c0.4,0,0.8-0.1,1.2-0.3c0.4-0.2,0.8-0.4,1-0.8v-8.6h3.7v12.5h-3l-0.3-1.3h-0.1c-0.5,0.5-1,0.9-1.6,1.1c-0.6,0.2-1.2,0.4-1.9,0.4
					C135.8,27.7,134.7,27.3,134,26.5z"/>
				<path class="st9" d="M146.8,14.9h3l0.3,1.6h0.2c0.3-0.6,0.8-1.1,1.4-1.3s1.2-0.4,1.9-0.4c0.4,0,0.7,0,1,0.1v3.3
					c-0.3-0.1-0.7-0.1-1.2-0.1c-0.6,0-1.1,0.1-1.6,0.3c-0.5,0.2-0.9,0.5-1.2,0.9v8.2h-3.7V14.9z"/>
				<path class="st9" d="M155.7,27.1v-2.7c1.2,0.4,2.6,0.6,4,0.6c0.8,0,1.4-0.1,1.7-0.3c0.4-0.2,0.5-0.5,0.5-0.9
					c0-0.3-0.1-0.6-0.3-0.7c-0.2-0.2-0.5-0.3-0.9-0.4l-2-0.4c-1.2-0.2-2-0.6-2.6-1.2c-0.5-0.6-0.8-1.4-0.8-2.4
					c0-0.8,0.2-1.5,0.7-2.1c0.4-0.6,1.1-1.1,2-1.4c0.9-0.3,2-0.5,3.3-0.5c0.6,0,1.2,0,1.8,0.1c0.6,0.1,1.1,0.2,1.6,0.3v2.7
					c-1-0.3-2.1-0.4-3.3-0.4c-1.7,0-2.6,0.4-2.6,1.3c0,0.3,0.1,0.5,0.3,0.7c0.2,0.2,0.5,0.3,0.9,0.4l2,0.4c1.2,0.2,2,0.6,2.6,1.2
					c0.6,0.6,0.8,1.4,0.8,2.4c0,0.8-0.2,1.6-0.7,2.2c-0.4,0.6-1.1,1.1-1.9,1.4c-0.8,0.3-1.9,0.5-3,0.5
					C158.2,27.7,156.9,27.5,155.7,27.1z"/>
				<path class="st9" d="M169.6,27c-0.9-0.5-1.6-1.2-2.1-2.2c-0.5-1-0.7-2.2-0.7-3.6c0-2.2,0.5-3.8,1.6-4.9c1.1-1.1,2.6-1.6,4.5-1.6
					c1.9,0,3.5,0.5,4.5,1.6s1.6,2.7,1.6,4.8c0,1.4-0.2,2.6-0.7,3.6c-0.5,1-1.2,1.7-2.1,2.2c-0.9,0.5-2,0.7-3.3,0.7
					S170.5,27.5,169.6,27z M174.2,24.6c0.4-0.2,0.6-0.6,0.8-1.2c0.2-0.5,0.3-1.3,0.3-2.2c0-0.9-0.1-1.7-0.3-2.2
					c-0.2-0.6-0.5-0.9-0.8-1.2c-0.4-0.2-0.8-0.3-1.3-0.3c-0.5,0-1,0.1-1.3,0.3c-0.4,0.2-0.6,0.6-0.8,1.2c-0.2,0.5-0.3,1.3-0.3,2.2
					c0,0.9,0.1,1.7,0.3,2.2c0.2,0.5,0.5,0.9,0.8,1.2c0.4,0.2,0.8,0.3,1.3,0.3S173.8,24.8,174.2,24.6z"/>
				<path class="st9" d="M180.8,27.1v-2.7c1.2,0.4,2.6,0.6,4,0.6c0.8,0,1.4-0.1,1.7-0.3c0.4-0.2,0.5-0.5,0.5-0.9
					c0-0.3-0.1-0.6-0.3-0.7s-0.5-0.3-0.9-0.4l-2-0.4c-1.2-0.2-2-0.6-2.6-1.2c-0.5-0.6-0.8-1.4-0.8-2.4c0-0.8,0.2-1.5,0.7-2.1
					c0.4-0.6,1.1-1.1,2-1.4c0.9-0.3,2-0.5,3.3-0.5c0.6,0,1.2,0,1.8,0.1c0.6,0.1,1.1,0.2,1.6,0.3v2.7c-1-0.3-2.1-0.4-3.3-0.4
					c-1.7,0-2.6,0.4-2.6,1.3c0,0.3,0.1,0.5,0.3,0.7c0.2,0.2,0.5,0.3,0.9,0.4l2,0.4c1.2,0.2,2,0.6,2.6,1.2c0.6,0.6,0.8,1.4,0.8,2.4
					c0,0.8-0.2,1.6-0.7,2.2c-0.4,0.6-1.1,1.1-1.9,1.4c-0.8,0.3-1.9,0.5-3,0.5C183.3,27.7,182,27.5,180.8,27.1z"/>
				<path class="st9" d="M122.2,53.4v-2.9c1.4,0.4,2.7,0.6,3.9,0.6c0.8,0,1.5-0.1,2-0.3c0.5-0.2,0.9-0.5,1.1-0.9
					c0.2-0.4,0.4-1,0.4-1.7v-0.8h-0.2c-0.4,0.5-0.8,0.8-1.4,1c-0.6,0.2-1.2,0.4-1.9,0.4c-0.9,0-1.7-0.2-2.4-0.7
					c-0.7-0.4-1.3-1.1-1.8-2c-0.4-0.9-0.7-2-0.7-3.4c0-2.2,0.6-3.9,1.8-5c1.2-1.1,3-1.7,5.3-1.7c0.8,0,1.7,0.1,2.5,0.2
					c0.9,0.1,1.6,0.3,2.3,0.5v10.9c0,1.5-0.3,2.7-0.8,3.7c-0.5,1-1.3,1.7-2.3,2.1c-1,0.4-2.3,0.7-3.9,0.7
					C124.9,53.9,123.4,53.8,122.2,53.4z M128.7,45.6c0.4-0.1,0.7-0.3,0.9-0.6v-6.1c-0.5-0.1-1-0.2-1.5-0.2c-1,0-1.8,0.3-2.3,0.9
					c-0.5,0.6-0.8,1.5-0.8,2.8c0,1.3,0.2,2.1,0.7,2.7c0.4,0.5,1.1,0.8,1.9,0.8C127.9,45.8,128.3,45.7,128.7,45.6z"/>
				<path class="st9" d="M136,36.1h3l0.3,1.6h0.2c0.3-0.6,0.8-1.1,1.4-1.3c0.6-0.3,1.2-0.4,1.9-0.4c0.4,0,0.7,0,1,0.1v3.3
					c-0.3-0.1-0.7-0.1-1.2-0.1c-0.6,0-1.1,0.1-1.6,0.3c-0.5,0.2-0.9,0.5-1.2,0.9v8.2H136V36.1z"/>
				<path class="st9" d="M152.6,36.4c0.8,0.3,1.5,0.9,1.9,1.7c0.4,0.8,0.6,1.8,0.6,3.1v7.5h-3l-0.3-1.2h-0.2
					c-0.4,0.5-0.8,0.9-1.4,1.1c-0.6,0.2-1.2,0.4-1.9,0.4c-0.8,0-1.6-0.2-2.2-0.5c-0.6-0.3-1.1-0.7-1.4-1.3c-0.3-0.5-0.5-1.2-0.5-1.9
					c0-1.2,0.4-2.1,1.3-2.8c0.8-0.7,2.2-1,4-1.2l2-0.2V41c0-0.6-0.1-1-0.3-1.4c-0.2-0.3-0.5-0.6-0.9-0.7c-0.4-0.1-1-0.2-1.7-0.2
					c-0.5,0-1.1,0-1.7,0.1s-1.2,0.2-1.7,0.4v-2.8c0.6-0.2,1.3-0.3,2-0.4c0.7-0.1,1.4-0.1,2.1-0.1C150.6,35.9,151.7,36.1,152.6,36.4z
					 M150.5,46.1c0.3-0.1,0.7-0.3,0.9-0.6v-2.4l-1.7,0.1c-0.7,0.1-1.2,0.2-1.5,0.5c-0.3,0.3-0.5,0.6-0.5,1.1c0,0.5,0.1,0.8,0.4,1.1
					c0.3,0.2,0.7,0.4,1.2,0.4C149.8,46.3,150.2,46.3,150.5,46.1z"/>
				<path class="st9" d="M165.6,45.7v2.9c-0.8,0.2-1.5,0.3-2.3,0.3c-1.5,0-2.7-0.4-3.5-1.1c-0.8-0.8-1.2-1.9-1.2-3.6V39h-2v-2.9h2
					l0.7-4.4h3v4.4h3.3V39h-3.3v4.6c0,0.6,0.1,1,0.2,1.3s0.4,0.6,0.7,0.7c0.3,0.1,0.7,0.2,1.2,0.2C164.6,45.9,165,45.8,165.6,45.7z"
					/>
				<path class="st9" d="M168.4,47.7c-0.8-0.8-1.2-2-1.2-3.7v-7.8h3.7v7.6c0,0.7,0.1,1.2,0.4,1.5c0.3,0.3,0.7,0.5,1.3,0.5
					c0.4,0,0.8-0.1,1.2-0.3c0.4-0.2,0.8-0.4,1-0.8v-8.6h3.7v12.5h-3l-0.3-1.3h-0.1c-0.5,0.5-1,0.9-1.6,1.1c-0.6,0.2-1.2,0.4-1.9,0.4
					C170.2,48.9,169.2,48.5,168.4,47.7z"/>
				<path class="st9" d="M181.4,33.8c-0.4-0.3-0.6-0.8-0.6-1.4c0-0.6,0.2-1.1,0.6-1.4c0.4-0.3,0.9-0.5,1.7-0.5
					c0.8,0,1.3,0.2,1.7,0.5c0.4,0.3,0.6,0.8,0.6,1.4c0,0.6-0.2,1.1-0.6,1.4c-0.4,0.3-0.9,0.5-1.7,0.5S181.7,34.1,181.4,33.8z
					 M181.2,48.7V36.1h3.7v12.5H181.2z"/>
				<path class="st9" d="M195.5,45.7v2.9c-0.8,0.2-1.5,0.3-2.3,0.3c-1.5,0-2.7-0.4-3.5-1.1c-0.8-0.8-1.2-1.9-1.2-3.6V39h-2v-2.9h2
					l0.7-4.4h3v4.4h3.3V39h-3.3v4.6c0,0.6,0.1,1,0.2,1.3s0.4,0.6,0.7,0.7c0.3,0.1,0.7,0.2,1.2,0.2C194.5,45.9,195,45.8,195.5,45.7z"
					/>
				<path class="st9" d="M199.4,48.2c-0.9-0.5-1.6-1.2-2.1-2.2c-0.5-1-0.7-2.2-0.7-3.6c0-2.2,0.5-3.8,1.6-4.9
					c1.1-1.1,2.6-1.6,4.5-1.6c1.9,0,3.5,0.5,4.5,1.6c1.1,1.1,1.6,2.7,1.6,4.8c0,1.4-0.2,2.6-0.7,3.6c-0.5,1-1.2,1.7-2.1,2.2
					c-0.9,0.5-2,0.7-3.3,0.7S200.4,48.7,199.4,48.2z M204.1,45.8c0.4-0.2,0.6-0.6,0.8-1.2c0.2-0.5,0.3-1.3,0.3-2.2
					c0-0.9-0.1-1.7-0.3-2.2c-0.2-0.6-0.5-0.9-0.8-1.2c-0.4-0.2-0.8-0.3-1.3-0.3c-0.5,0-1,0.1-1.3,0.3c-0.4,0.2-0.6,0.6-0.8,1.2
					c-0.2,0.5-0.3,1.3-0.3,2.2c0,0.9,0.1,1.7,0.3,2.2c0.2,0.5,0.5,0.9,0.8,1.2c0.4,0.2,0.8,0.3,1.3,0.3
					C203.3,46.1,203.7,46,204.1,45.8z"/>
				<path class="st9" d="M210.7,48.3v-2.7c1.2,0.4,2.6,0.6,4,0.6c0.8,0,1.4-0.1,1.7-0.3c0.4-0.2,0.5-0.5,0.5-0.9
					c0-0.3-0.1-0.6-0.3-0.7s-0.5-0.3-0.9-0.4l-2-0.4c-1.2-0.2-2-0.6-2.6-1.2c-0.5-0.6-0.8-1.4-0.8-2.4c0-0.8,0.2-1.5,0.7-2.1
					c0.4-0.6,1.1-1.1,2-1.4c0.9-0.3,2-0.5,3.3-0.5c0.6,0,1.2,0,1.8,0.1c0.6,0.1,1.1,0.2,1.6,0.3V39c-1-0.3-2.1-0.4-3.3-0.4
					c-1.7,0-2.6,0.4-2.6,1.3c0,0.3,0.1,0.5,0.3,0.7c0.2,0.2,0.5,0.3,0.9,0.4l2,0.4c1.2,0.2,2,0.6,2.6,1.2c0.6,0.6,0.8,1.4,0.8,2.4
					c0,0.8-0.2,1.6-0.7,2.2c-0.4,0.6-1.1,1.1-1.9,1.4c-0.8,0.3-1.9,0.5-3,0.5C213.2,48.9,211.8,48.7,210.7,48.3z"/>
			</g>
		</g>
		<g>
			<path class="st12" d="M121.4,58.6c0.7-0.1,1.5-0.2,2.2-0.2c1.1,0,1.9,0.2,2.4,0.6c0.5,0.4,0.8,1.1,0.8,2c0,0.9-0.3,1.5-0.8,2
				c-0.5,0.4-1.3,0.7-2.4,0.7c-0.1,0-0.4,0-0.7,0v2.1h-1.6V58.6z M124.9,62.1c0.3-0.2,0.4-0.6,0.4-1.1c0-0.5-0.1-0.9-0.4-1.1
				c-0.3-0.2-0.6-0.3-1.2-0.3c-0.3,0-0.5,0-0.7,0.1v2.7c0.2,0,0.5,0,0.7,0C124.3,62.4,124.7,62.3,124.9,62.1z"/>
			<path class="st12" d="M127.8,65.7v-7.9h1.6v7.9H127.8z"/>
			<path class="st12" d="M133.9,60.5c0.4,0.1,0.6,0.4,0.8,0.7c0.2,0.3,0.3,0.8,0.3,1.3v3.2h-1.3l-0.1-0.5h-0.1
				c-0.2,0.2-0.4,0.4-0.6,0.5c-0.2,0.1-0.5,0.2-0.8,0.2c-0.4,0-0.7-0.1-0.9-0.2c-0.3-0.1-0.5-0.3-0.6-0.5c-0.1-0.2-0.2-0.5-0.2-0.8
				c0-0.5,0.2-0.9,0.5-1.2c0.4-0.3,0.9-0.4,1.7-0.5l0.9-0.1v-0.1c0-0.2,0-0.4-0.1-0.6c-0.1-0.1-0.2-0.2-0.4-0.3
				c-0.2-0.1-0.4-0.1-0.7-0.1c-0.2,0-0.5,0-0.7,0.1c-0.3,0-0.5,0.1-0.7,0.2v-1.2c0.3-0.1,0.5-0.1,0.8-0.2c0.3,0,0.6-0.1,0.9-0.1
				C133,60.3,133.5,60.4,133.9,60.5z M133,64.7c0.1-0.1,0.3-0.1,0.4-0.3v-1l-0.7,0.1c-0.3,0-0.5,0.1-0.6,0.2
				c-0.1,0.1-0.2,0.3-0.2,0.5c0,0.2,0.1,0.4,0.2,0.5c0.1,0.1,0.3,0.2,0.5,0.2C132.7,64.8,132.8,64.7,133,64.7z"/>
			<path class="st12" d="M136,60.4h1.3l0.1,0.5h0.1c0.2-0.2,0.4-0.4,0.7-0.5c0.3-0.1,0.6-0.2,0.9-0.2c0.6,0,1,0.2,1.3,0.5
				c0.3,0.3,0.5,0.9,0.5,1.6v3.3h-1.6v-3.2c0-0.3-0.1-0.5-0.2-0.7c-0.1-0.1-0.3-0.2-0.6-0.2c-0.2,0-0.4,0-0.5,0.1
				c-0.2,0.1-0.3,0.2-0.4,0.3v3.7H136V60.4z"/>
			<path class="st12" d="M149.3,58.5h1.5v7.3h-1.6l-3.2-4.9v4.9h-1.5v-7.3h1.6l3.2,4.9V58.5z"/>
			<path class="st12" d="M155.4,60.5c0.4,0.1,0.6,0.4,0.8,0.7c0.2,0.3,0.3,0.8,0.3,1.3v3.2h-1.3l-0.1-0.5h-0.1
				c-0.2,0.2-0.4,0.4-0.6,0.5c-0.2,0.1-0.5,0.2-0.8,0.2c-0.4,0-0.7-0.1-0.9-0.2c-0.3-0.1-0.5-0.3-0.6-0.5c-0.1-0.2-0.2-0.5-0.2-0.8
				c0-0.5,0.2-0.9,0.5-1.2c0.4-0.3,0.9-0.4,1.7-0.5l0.9-0.1v-0.1c0-0.2,0-0.4-0.1-0.6c-0.1-0.1-0.2-0.2-0.4-0.3
				c-0.2-0.1-0.4-0.1-0.7-0.1c-0.2,0-0.5,0-0.7,0.1c-0.3,0-0.5,0.1-0.7,0.2v-1.2c0.3-0.1,0.5-0.1,0.8-0.2c0.3,0,0.6-0.1,0.9-0.1
				C154.5,60.3,155,60.4,155.4,60.5z M154.5,64.7c0.1-0.1,0.3-0.1,0.4-0.3v-1l-0.7,0.1c-0.3,0-0.5,0.1-0.6,0.2
				c-0.1,0.1-0.2,0.3-0.2,0.5c0,0.2,0.1,0.4,0.2,0.5c0.1,0.1,0.3,0.2,0.5,0.2C154.2,64.8,154.3,64.7,154.5,64.7z"/>
			<path class="st12" d="M158,65.2c-0.5-0.5-0.7-1.2-0.7-2.1c0-0.9,0.3-1.6,0.8-2.1c0.5-0.5,1.2-0.7,2.2-0.7c0.4,0,0.8,0,1.2,0.1
				v1.2c-0.3-0.1-0.7-0.1-1-0.1c-0.4,0-0.7,0.1-0.9,0.2c-0.2,0.1-0.4,0.3-0.5,0.5c-0.1,0.2-0.2,0.5-0.2,0.9c0,0.5,0.1,0.9,0.3,1.2
				c0.2,0.2,0.6,0.4,1.1,0.4c0.2,0,0.3,0,0.5,0c0.2,0,0.4-0.1,0.6-0.1v1.2c-0.4,0.1-0.9,0.2-1.4,0.2C159.2,65.8,158.5,65.6,158,65.2
				z"/>
			<path class="st12" d="M162.4,59.4c-0.2-0.1-0.2-0.3-0.2-0.6c0-0.3,0.1-0.5,0.2-0.6c0.2-0.1,0.4-0.2,0.7-0.2
				c0.3,0,0.6,0.1,0.7,0.2c0.2,0.1,0.2,0.3,0.2,0.6c0,0.3-0.1,0.5-0.2,0.6c-0.2,0.1-0.4,0.2-0.7,0.2
				C162.8,59.6,162.6,59.5,162.4,59.4z M162.4,65.7v-5.4h1.6v5.4H162.4z"/>
			<path class="st12" d="M166.1,65.5c-0.4-0.2-0.7-0.5-0.9-0.9c-0.2-0.4-0.3-0.9-0.3-1.5c0-0.9,0.2-1.6,0.7-2.1
				c0.5-0.5,1.1-0.7,1.9-0.7c0.8,0,1.5,0.2,1.9,0.7c0.5,0.5,0.7,1.2,0.7,2.1c0,0.6-0.1,1.1-0.3,1.5c-0.2,0.4-0.5,0.7-0.9,0.9
				c-0.4,0.2-0.9,0.3-1.4,0.3C166.9,65.8,166.4,65.7,166.1,65.5z M168,64.5c0.2-0.1,0.3-0.3,0.3-0.5c0.1-0.2,0.1-0.5,0.1-0.9
				c0-0.4,0-0.7-0.1-1c-0.1-0.2-0.2-0.4-0.3-0.5c-0.2-0.1-0.3-0.1-0.6-0.1c-0.2,0-0.4,0-0.6,0.1c-0.2,0.1-0.3,0.3-0.3,0.5
				c-0.1,0.2-0.1,0.5-0.1,0.9c0,0.4,0,0.7,0.1,0.9c0.1,0.2,0.2,0.4,0.3,0.5c0.2,0.1,0.3,0.1,0.6,0.1C167.7,64.7,167.9,64.6,168,64.5
				z"/>
			<path class="st12" d="M171,60.4h1.3l0.1,0.5h0.1c0.2-0.2,0.4-0.4,0.7-0.5c0.3-0.1,0.6-0.2,0.9-0.2c0.6,0,1,0.2,1.3,0.5
				c0.3,0.3,0.5,0.9,0.5,1.6v3.3h-1.6v-3.2c0-0.3-0.1-0.5-0.2-0.7c-0.1-0.1-0.3-0.2-0.6-0.2c-0.2,0-0.4,0-0.5,0.1
				c-0.2,0.1-0.3,0.2-0.4,0.3v3.7H171V60.4z"/>
			<path class="st12" d="M180.3,60.5c0.4,0.1,0.6,0.4,0.8,0.7c0.2,0.3,0.3,0.8,0.3,1.3v3.2h-1.3l-0.1-0.5h-0.1
				c-0.2,0.2-0.4,0.4-0.6,0.5c-0.2,0.1-0.5,0.2-0.8,0.2c-0.4,0-0.7-0.1-0.9-0.2c-0.3-0.1-0.5-0.3-0.6-0.5c-0.1-0.2-0.2-0.5-0.2-0.8
				c0-0.5,0.2-0.9,0.5-1.2c0.4-0.3,0.9-0.4,1.7-0.5l0.9-0.1v-0.1c0-0.2,0-0.4-0.1-0.6c-0.1-0.1-0.2-0.2-0.4-0.3
				c-0.2-0.1-0.4-0.1-0.7-0.1c-0.2,0-0.5,0-0.7,0.1c-0.3,0-0.5,0.1-0.7,0.2v-1.2c0.3-0.1,0.5-0.1,0.8-0.2c0.3,0,0.6-0.1,0.9-0.1
				C179.5,60.3,179.9,60.4,180.3,60.5z M179.4,64.7c0.1-0.1,0.3-0.1,0.4-0.3v-1l-0.7,0.1c-0.3,0-0.5,0.1-0.6,0.2
				c-0.1,0.1-0.2,0.3-0.2,0.5c0,0.2,0.1,0.4,0.2,0.5c0.1,0.1,0.3,0.2,0.5,0.2C179.1,64.8,179.3,64.7,179.4,64.7z"/>
			<path class="st12" d="M182.5,65.7v-7.9h1.6v7.9H182.5z"/>
			<path class="st12" d="M122.2,76.1c-0.3-0.2-0.6-0.5-0.8-0.9c-0.2-0.4-0.3-0.9-0.3-1.5c0-0.9,0.2-1.7,0.7-2.1
				c0.5-0.5,1.2-0.7,2.2-0.7c0.2,0,0.4,0,0.6,0v-2.5h1.6v7.9h-1.3l-0.1-0.6h-0.1c-0.2,0.2-0.4,0.4-0.6,0.5c-0.2,0.1-0.5,0.2-0.8,0.2
				C122.9,76.3,122.5,76.2,122.2,76.1z M124.3,75c0.2-0.1,0.3-0.2,0.4-0.3V72c-0.2,0-0.4-0.1-0.6-0.1c-0.5,0-0.8,0.1-1,0.4
				c-0.2,0.2-0.3,0.6-0.3,1.2c0,0.6,0.1,0.9,0.3,1.2c0.2,0.2,0.5,0.3,0.8,0.3C123.9,75.1,124.1,75,124.3,75z"/>
			<path class="st12" d="M132,74h-3.3c0,0.3,0.1,0.5,0.2,0.7c0.1,0.2,0.3,0.3,0.5,0.4c0.2,0.1,0.5,0.1,0.9,0.1
				c0.4,0,0.9-0.1,1.4-0.2v1.2c-0.5,0.1-1,0.2-1.6,0.2c-0.7,0-1.2-0.1-1.7-0.3c-0.4-0.2-0.8-0.5-1-0.9c-0.2-0.4-0.3-0.9-0.3-1.6
				c0-0.6,0.1-1.1,0.3-1.5c0.2-0.4,0.5-0.7,0.9-0.9c0.4-0.2,0.8-0.3,1.4-0.3c0.8,0,1.3,0.2,1.7,0.7c0.4,0.5,0.6,1.2,0.6,2.1V74z
				 M129,72.1c-0.2,0.2-0.2,0.5-0.2,1h1.8c0-0.5-0.1-0.8-0.2-1c-0.1-0.2-0.4-0.3-0.7-0.3C129.3,71.8,129.1,71.9,129,72.1z"/>
			<path class="st12" d="M140.5,70.3H137v1.8h3v1.3h-3v2.9h-1.6V69h5.1V70.3z"/>
			<path class="st12" d="M141.9,76c-0.4-0.2-0.7-0.5-0.9-0.9c-0.2-0.4-0.3-0.9-0.3-1.5c0-0.9,0.2-1.6,0.7-2.1
				c0.5-0.5,1.1-0.7,1.9-0.7c0.8,0,1.5,0.2,1.9,0.7c0.5,0.5,0.7,1.2,0.7,2.1c0,0.6-0.1,1.1-0.3,1.5c-0.2,0.4-0.5,0.7-0.9,0.9
				c-0.4,0.2-0.9,0.3-1.4,0.3C142.7,76.4,142.2,76.2,141.9,76z M143.8,75c0.2-0.1,0.3-0.3,0.3-0.5c0.1-0.2,0.1-0.5,0.1-0.9
				c0-0.4,0-0.7-0.1-1c-0.1-0.2-0.2-0.4-0.3-0.5c-0.2-0.1-0.3-0.1-0.6-0.1c-0.2,0-0.4,0-0.6,0.1c-0.2,0.1-0.3,0.3-0.3,0.5
				c-0.1,0.2-0.1,0.5-0.1,0.9c0,0.4,0,0.7,0.1,0.9c0.1,0.2,0.2,0.4,0.3,0.5c0.2,0.1,0.3,0.1,0.6,0.1C143.5,75.2,143.7,75.1,143.8,75
				z"/>
			<path class="st12" d="M146.8,70.9h1.3l0.1,0.7h0.1c0.1-0.3,0.3-0.5,0.6-0.6c0.2-0.1,0.5-0.2,0.8-0.2c0.2,0,0.3,0,0.4,0v1.4
				c-0.1,0-0.3,0-0.5,0c-0.2,0-0.5,0-0.7,0.1c-0.2,0.1-0.4,0.2-0.5,0.4v3.5h-1.6V70.9z"/>
			<path class="st12" d="M158,71.3c0.3,0.3,0.5,0.9,0.5,1.6v3.3h-1.6V73c0-0.3-0.1-0.5-0.2-0.7c-0.1-0.1-0.3-0.2-0.5-0.2
				c-0.2,0-0.3,0-0.5,0.1c-0.1,0.1-0.3,0.2-0.4,0.3c0,0.1,0,0.2,0,0.3v3.4h-1.5V73c0-0.3-0.1-0.5-0.2-0.7c-0.1-0.1-0.3-0.2-0.5-0.2
				c-0.2,0-0.3,0-0.5,0.1c-0.2,0.1-0.3,0.2-0.4,0.3v3.7h-1.6v-5.4h1.3l0.1,0.5h0.1c0.4-0.4,0.9-0.6,1.5-0.6c0.3,0,0.6,0.1,0.8,0.2
				c0.2,0.1,0.4,0.3,0.6,0.5c0.2-0.2,0.5-0.4,0.8-0.5c0.3-0.1,0.6-0.2,0.9-0.2C157.3,70.8,157.7,71,158,71.3z"/>
			<path class="st12" d="M162.9,71c0.4,0.1,0.6,0.4,0.8,0.7c0.2,0.3,0.3,0.8,0.3,1.3v3.2h-1.3l-0.1-0.5h-0.1
				c-0.2,0.2-0.4,0.4-0.6,0.5c-0.2,0.1-0.5,0.2-0.8,0.2c-0.4,0-0.7-0.1-0.9-0.2c-0.3-0.1-0.5-0.3-0.6-0.5c-0.1-0.2-0.2-0.5-0.2-0.8
				c0-0.5,0.2-0.9,0.5-1.2c0.4-0.3,0.9-0.4,1.7-0.5l0.9-0.1V73c0-0.2,0-0.4-0.1-0.6c-0.1-0.1-0.2-0.2-0.4-0.3
				c-0.2-0.1-0.4-0.1-0.7-0.1c-0.2,0-0.5,0-0.7,0.1c-0.3,0-0.5,0.1-0.7,0.2V71c0.3-0.1,0.5-0.1,0.8-0.2c0.3,0,0.6-0.1,0.9-0.1
				C162.1,70.8,162.6,70.9,162.9,71z M162,75.2c0.1-0.1,0.3-0.1,0.4-0.3v-1l-0.7,0.1c-0.3,0-0.5,0.1-0.6,0.2
				c-0.1,0.1-0.2,0.3-0.2,0.5c0,0.2,0.1,0.4,0.2,0.5c0.1,0.1,0.3,0.2,0.5,0.2C161.8,75.3,161.9,75.2,162,75.2z"/>
			<path class="st12" d="M165.6,75.7c-0.5-0.5-0.7-1.2-0.7-2.1c0-0.9,0.3-1.6,0.8-2.1c0.5-0.5,1.2-0.7,2.2-0.7c0.4,0,0.8,0,1.2,0.1
				v1.2c-0.3-0.1-0.7-0.1-1-0.1c-0.4,0-0.7,0.1-0.9,0.2c-0.2,0.1-0.4,0.3-0.5,0.5c-0.1,0.2-0.2,0.5-0.2,0.9c0,0.5,0.1,0.9,0.3,1.2
				c0.2,0.2,0.6,0.4,1.1,0.4c0.2,0,0.3,0,0.5,0c0.2,0,0.4-0.1,0.6-0.1v1.2c-0.4,0.1-0.9,0.2-1.4,0.2C166.7,76.4,166,76.1,165.6,75.7
				z"/>
			<path class="st12" d="M170,69.9c-0.2-0.1-0.2-0.3-0.2-0.6c0-0.3,0.1-0.5,0.2-0.6c0.2-0.1,0.4-0.2,0.7-0.2c0.3,0,0.6,0.1,0.7,0.2
				c0.2,0.1,0.2,0.3,0.2,0.6c0,0.3-0.1,0.5-0.2,0.6c-0.2,0.1-0.4,0.2-0.7,0.2C170.4,70.1,170.1,70,170,69.9z M169.9,76.2v-5.4h1.6
				v5.4H169.9z"/>
			<path class="st12" d="M173.6,76c-0.4-0.2-0.7-0.5-0.9-0.9c-0.2-0.4-0.3-0.9-0.3-1.5c0-0.9,0.2-1.6,0.7-2.1
				c0.5-0.5,1.1-0.7,1.9-0.7c0.8,0,1.5,0.2,1.9,0.7c0.5,0.5,0.7,1.2,0.7,2.1c0,0.6-0.1,1.1-0.3,1.5c-0.2,0.4-0.5,0.7-0.9,0.9
				c-0.4,0.2-0.9,0.3-1.4,0.3C174.5,76.4,174,76.2,173.6,76z M175.6,75c0.2-0.1,0.3-0.3,0.3-0.5c0.1-0.2,0.1-0.5,0.1-0.9
				c0-0.4,0-0.7-0.1-1c-0.1-0.2-0.2-0.4-0.3-0.5c-0.2-0.1-0.3-0.1-0.6-0.1c-0.2,0-0.4,0-0.6,0.1c-0.2,0.1-0.3,0.3-0.3,0.5
				c-0.1,0.2-0.1,0.5-0.1,0.9c0,0.4,0,0.7,0.1,0.9c0.1,0.2,0.2,0.4,0.3,0.5c0.2,0.1,0.3,0.1,0.6,0.1C175.2,75.2,175.4,75.1,175.6,75
				z M174.3,70.2l1.1-1.9h1.7l-1.3,1.9H174.3z"/>
			<path class="st12" d="M178.6,70.9h1.3l0.1,0.5h0.1c0.2-0.2,0.4-0.4,0.7-0.5c0.3-0.1,0.6-0.2,0.9-0.2c0.6,0,1,0.2,1.3,0.5
				c0.3,0.3,0.5,0.9,0.5,1.6v3.3h-1.6V73c0-0.3-0.1-0.5-0.2-0.7c-0.1-0.1-0.3-0.2-0.6-0.2c-0.2,0-0.4,0-0.5,0.1
				c-0.2,0.1-0.3,0.2-0.4,0.3v3.7h-1.6V70.9z"/>
			<path class="st12" d="M187.8,75.4c-0.6-0.6-1-1.5-1-2.8c0-1.2,0.3-2.2,1-2.8c0.7-0.6,1.6-0.9,2.9-0.9c0.6,0,1.1,0.1,1.6,0.2v1.3
				c-0.5-0.1-1-0.2-1.4-0.2c-0.5,0-1,0.1-1.3,0.2c-0.3,0.2-0.6,0.4-0.8,0.8c-0.2,0.4-0.3,0.8-0.3,1.4c0,0.6,0.1,1,0.3,1.4
				c0.2,0.4,0.4,0.6,0.7,0.8c0.3,0.2,0.8,0.2,1.3,0.2c0.5,0,1-0.1,1.5-0.2v1.3c-0.2,0.1-0.5,0.1-0.8,0.2c-0.3,0-0.6,0.1-0.9,0.1
				C189.4,76.3,188.4,76,187.8,75.4z"/>
			<path class="st12" d="M193.9,76c-0.4-0.2-0.7-0.5-0.9-0.9c-0.2-0.4-0.3-0.9-0.3-1.5c0-0.9,0.2-1.6,0.7-2.1
				c0.5-0.5,1.1-0.7,1.9-0.7c0.8,0,1.5,0.2,1.9,0.7c0.5,0.5,0.7,1.2,0.7,2.1c0,0.6-0.1,1.1-0.3,1.5c-0.2,0.4-0.5,0.7-0.9,0.9
				c-0.4,0.2-0.9,0.3-1.4,0.3C194.7,76.4,194.2,76.2,193.9,76z M195.8,75c0.2-0.1,0.3-0.3,0.3-0.5c0.1-0.2,0.1-0.5,0.1-0.9
				c0-0.4,0-0.7-0.1-1c-0.1-0.2-0.2-0.4-0.3-0.5c-0.2-0.1-0.3-0.1-0.6-0.1c-0.2,0-0.4,0-0.6,0.1c-0.2,0.1-0.3,0.3-0.3,0.5
				c-0.1,0.2-0.1,0.5-0.1,0.9c0,0.4,0,0.7,0.1,0.9c0.1,0.2,0.2,0.4,0.3,0.5c0.2,0.1,0.3,0.1,0.6,0.1C195.5,75.2,195.7,75.1,195.8,75
				z"/>
			<path class="st12" d="M198.8,70.9h1.3l0.1,0.5h0.1c0.2-0.2,0.4-0.4,0.7-0.5c0.3-0.1,0.6-0.2,0.9-0.2c0.6,0,1,0.2,1.3,0.5
				c0.3,0.3,0.5,0.9,0.5,1.6v3.3h-1.6V73c0-0.3-0.1-0.5-0.2-0.7c-0.1-0.1-0.3-0.2-0.6-0.2c-0.2,0-0.4,0-0.5,0.1
				c-0.2,0.1-0.3,0.2-0.4,0.3v3.7h-1.6V70.9z"/>
			<path class="st12" d="M208.2,75v1.2c-0.3,0.1-0.7,0.1-1,0.1c-0.7,0-1.2-0.2-1.5-0.5s-0.5-0.8-0.5-1.5v-2.2h-0.9v-1.2h0.9l0.3-1.9
				h1.3v1.9h1.4v1.2h-1.4v2c0,0.2,0,0.4,0.1,0.6c0.1,0.1,0.2,0.2,0.3,0.3c0.1,0.1,0.3,0.1,0.5,0.1C207.7,75.1,207.9,75,208.2,75z"/>
			<path class="st12" d="M209,69.9c-0.2-0.1-0.2-0.3-0.2-0.6c0-0.3,0.1-0.5,0.2-0.6c0.2-0.1,0.4-0.2,0.7-0.2c0.3,0,0.6,0.1,0.7,0.2
				c0.2,0.1,0.2,0.3,0.2,0.6c0,0.3-0.1,0.5-0.2,0.6c-0.2,0.1-0.4,0.2-0.7,0.2C209.4,70.1,209.2,70,209,69.9z M209,76.2v-5.4h1.6v5.4
				H209z"/>
			<path class="st12" d="M211.7,70.9h1.3l0.1,0.5h0.1c0.2-0.2,0.4-0.4,0.7-0.5c0.3-0.1,0.6-0.2,0.9-0.2c0.6,0,1,0.2,1.3,0.5
				c0.3,0.3,0.5,0.9,0.5,1.6v3.3H215V73c0-0.3-0.1-0.5-0.2-0.7c-0.1-0.1-0.3-0.2-0.6-0.2c-0.2,0-0.4,0-0.5,0.1
				c-0.2,0.1-0.3,0.2-0.4,0.3v3.7h-1.6V70.9z"/>
			<path class="st12" d="M218.2,75.8c-0.3-0.3-0.5-0.9-0.5-1.6v-3.4h1.6v3.3c0,0.3,0.1,0.5,0.2,0.7c0.1,0.1,0.3,0.2,0.5,0.2
				c0.2,0,0.3,0,0.5-0.1c0.2-0.1,0.3-0.2,0.4-0.3v-3.7h1.6v5.4h-1.3l-0.1-0.5H221c-0.2,0.2-0.4,0.4-0.7,0.5
				c-0.3,0.1-0.5,0.2-0.8,0.2C218.9,76.3,218.5,76.2,218.2,75.8z"/>
			<path class="st12" d="M227,71c0.4,0.1,0.6,0.4,0.8,0.7c0.2,0.3,0.3,0.8,0.3,1.3v3.2h-1.3l-0.1-0.5h-0.1c-0.2,0.2-0.4,0.4-0.6,0.5
				c-0.2,0.1-0.5,0.2-0.8,0.2c-0.4,0-0.7-0.1-0.9-0.2c-0.3-0.1-0.5-0.3-0.6-0.5c-0.1-0.2-0.2-0.5-0.2-0.8c0-0.5,0.2-0.9,0.5-1.2
				c0.4-0.3,0.9-0.4,1.7-0.5l0.9-0.1V73c0-0.2,0-0.4-0.1-0.6c-0.1-0.1-0.2-0.2-0.4-0.3c-0.2-0.1-0.4-0.1-0.7-0.1
				c-0.2,0-0.5,0-0.7,0.1c-0.3,0-0.5,0.1-0.7,0.2V71c0.3-0.1,0.5-0.1,0.8-0.2c0.3,0,0.6-0.1,0.9-0.1C226.1,70.8,226.6,70.9,227,71z
				 M226.1,75.2c0.1-0.1,0.3-0.1,0.4-0.3v-1l-0.7,0.1c-0.3,0-0.5,0.1-0.6,0.2c-0.1,0.1-0.2,0.3-0.2,0.5c0,0.2,0.1,0.4,0.2,0.5
				c0.1,0.1,0.3,0.2,0.5,0.2C225.8,75.3,225.9,75.2,226.1,75.2z"/>
		</g>
	</g>
</g>
<g>
	<path class="st9" d="M268.7,73.3l-0.6-1.8c0-0.1-0.1-0.1-0.1-0.1h-2.4c-0.1,0-0.1,0-0.1,0.1l-0.6,1.8c0,0.1-0.1,0.1-0.1,0.1h-0.9
		c-0.1,0-0.2-0.1-0.1-0.2l2.2-6.5c0-0.1,0.1-0.1,0.1-0.1h1.6c0.1,0,0.1,0,0.1,0.1l2.2,6.5c0,0.1,0,0.2-0.1,0.2h-0.9
		C268.8,73.4,268.7,73.4,268.7,73.3 M266,70.5h1.6c0.1,0,0.2-0.1,0.1-0.2l-0.8-2.5c0-0.1-0.2-0.1-0.3,0l-0.8,2.5
		C265.8,70.4,265.9,70.5,266,70.5"/>
	<path class="st9" d="M270.8,68.4h0.7c0.1,0,0.1,0.1,0.1,0.1l0.1,0.5h0.1c0.1-0.2,0.3-0.4,0.6-0.5c0.2-0.1,0.5-0.2,0.8-0.2
		c0.1,0,0.2,0,0.3,0c0.1,0,0.1,0.1,0.1,0.1v0.8c0,0.1-0.1,0.2-0.2,0.1c-0.1,0-0.2,0-0.3,0c-0.2,0-0.5,0-0.7,0.1
		c-0.2,0.1-0.4,0.2-0.5,0.4c0,0,0,0.1,0,0.1v3.2c0,0.1-0.1,0.1-0.1,0.1h-0.9c-0.1,0-0.1-0.1-0.1-0.1v-4.7
		C270.6,68.4,270.7,68.4,270.8,68.4"/>
	<path class="st9" d="M275,75.5c-0.2,0-0.5-0.1-0.7-0.1c-0.1,0-0.1-0.1-0.1-0.1v-0.7c0-0.1,0.1-0.2,0.2-0.1c0.5,0.1,0.9,0.2,1.3,0.2
		c0.3,0,0.6,0,0.8-0.1c0.2-0.1,0.4-0.2,0.5-0.4c0.1-0.2,0.2-0.5,0.2-0.8v-0.4h-0.1c-0.2,0.2-0.3,0.3-0.6,0.4
		c-0.2,0.1-0.5,0.2-0.8,0.2c-0.4,0-0.7-0.1-1-0.3c-0.3-0.2-0.5-0.4-0.7-0.8c-0.2-0.4-0.3-0.8-0.3-1.4c0-0.9,0.2-1.6,0.7-2
		c0.5-0.5,1.1-0.7,2.1-0.7c0.3,0,0.6,0,0.9,0.1c0.3,0,0.5,0.1,0.8,0.2c0.1,0,0.1,0.1,0.1,0.1v4.4c0,0.6-0.1,1.1-0.3,1.4
		c-0.2,0.4-0.5,0.6-0.9,0.8c-0.4,0.2-0.9,0.3-1.4,0.3C275.6,75.5,275.3,75.5,275,75.5 M276.8,72.4c0.2-0.1,0.3-0.1,0.4-0.3
		c0,0,0-0.1,0-0.1v-2.6c0-0.1-0.1-0.1-0.1-0.1c-0.2,0-0.4-0.1-0.6-0.1c-0.5,0-0.8,0.1-1.1,0.4c-0.2,0.3-0.4,0.7-0.4,1.3
		c0,0.6,0.1,1,0.3,1.2c0.2,0.2,0.5,0.4,0.9,0.4C276.5,72.5,276.6,72.4,276.8,72.4"/>
	<path class="st9" d="M283.6,71.3h-2.8c-0.1,0-0.2,0.1-0.1,0.2c0,0.2,0.1,0.5,0.2,0.6c0.1,0.2,0.3,0.3,0.5,0.4
		c0.2,0.1,0.5,0.1,0.9,0.1c0.3,0,0.7,0,1.1-0.1c0.1,0,0.2,0,0.2,0.1v0.6c0,0.1,0,0.1-0.1,0.1c-0.4,0.1-0.9,0.2-1.3,0.2
		c-0.6,0-1.1-0.1-1.5-0.3c-0.4-0.2-0.7-0.5-0.9-0.8c-0.2-0.4-0.3-0.9-0.3-1.5c0-0.6,0.1-1,0.3-1.4c0.2-0.4,0.4-0.7,0.8-0.9
		c0.3-0.2,0.7-0.3,1.2-0.3c0.7,0,1.2,0.2,1.6,0.7c0.4,0.4,0.5,1.1,0.5,2v0.2C283.7,71.2,283.6,71.3,283.6,71.3 M280.9,69.4
		c-0.2,0.2-0.2,0.5-0.3,1c0,0.1,0.1,0.2,0.1,0.2h1.7c0.1,0,0.2-0.1,0.1-0.2c0-0.4-0.1-0.8-0.2-1c-0.2-0.2-0.4-0.3-0.7-0.3
		C281.3,69.1,281,69.2,280.9,69.4"/>
	<path class="st9" d="M284.8,68.4h0.7c0.1,0,0.1,0.1,0.1,0.1l0.1,0.4h0.1c0.2-0.2,0.4-0.3,0.7-0.5c0.3-0.1,0.5-0.2,0.8-0.2
		c0.5,0,0.9,0.2,1.2,0.5c0.3,0.3,0.4,0.8,0.4,1.4v3.1c0,0.1-0.1,0.1-0.1,0.1h-0.9c-0.1,0-0.1-0.1-0.1-0.1v-3c0-0.3-0.1-0.6-0.2-0.7
		c-0.1-0.1-0.3-0.2-0.6-0.2c-0.2,0-0.4,0-0.6,0.1c-0.2,0.1-0.3,0.2-0.5,0.3c0,0,0,0.1,0,0.1v3.4c0,0.1-0.1,0.1-0.1,0.1h-0.9
		c-0.1,0-0.1-0.1-0.1-0.1v-4.7C284.6,68.4,284.7,68.4,284.8,68.4"/>
	<path class="st9" d="M293.1,72.6v0.7c0,0.1,0,0.1-0.1,0.1c-0.3,0.1-0.5,0.1-0.8,0.1c-1.2,0-1.8-0.6-1.8-1.8v-2.2
		c0-0.1-0.1-0.1-0.1-0.1h-0.6c-0.1,0-0.1-0.1-0.1-0.1v-0.7c0-0.1,0.1-0.1,0.1-0.1h0.6c0.1,0,0.1-0.1,0.1-0.1l0.2-1.5
		c0-0.1,0.1-0.1,0.1-0.1h0.7c0.1,0,0.1,0.1,0.1,0.1v1.5c0,0.1,0.1,0.1,0.1,0.1h1.1c0.1,0,0.1,0.1,0.1,0.1v0.7c0,0.1-0.1,0.1-0.1,0.1
		h-1.1c-0.1,0-0.1,0.1-0.1,0.1v2c0,0.2,0,0.4,0.1,0.6c0.1,0.1,0.2,0.3,0.3,0.3c0.1,0.1,0.3,0.1,0.5,0.1c0.1,0,0.2,0,0.4,0
		C293,72.4,293.1,72.5,293.1,72.6"/>
	<path class="st9" d="M294,67.4c-0.1-0.1-0.2-0.3-0.2-0.5c0-0.2,0.1-0.4,0.2-0.5c0.1-0.1,0.3-0.2,0.6-0.2c0.3,0,0.4,0.1,0.6,0.2
		c0.1,0.1,0.2,0.3,0.2,0.5c0,0.2-0.1,0.4-0.2,0.5c-0.1,0.1-0.3,0.2-0.6,0.2C294.3,67.5,294.1,67.5,294,67.4 M293.9,73.3v-4.7
		c0-0.1,0.1-0.1,0.1-0.1h0.9c0.1,0,0.1,0.1,0.1,0.1v4.7c0,0.1-0.1,0.1-0.1,0.1h-0.9C294,73.4,293.9,73.3,293.9,73.3"/>
	<path class="st9" d="M296.3,68.4h0.7c0.1,0,0.1,0.1,0.1,0.1l0.1,0.4h0.1c0.2-0.2,0.4-0.3,0.7-0.5c0.3-0.1,0.5-0.2,0.8-0.2
		c0.5,0,0.9,0.2,1.2,0.5c0.3,0.3,0.5,0.8,0.5,1.4v3.1c0,0.1-0.1,0.1-0.1,0.1h-0.9c-0.1,0-0.1-0.1-0.1-0.1v-3c0-0.3-0.1-0.6-0.2-0.7
		c-0.1-0.1-0.3-0.2-0.6-0.2c-0.2,0-0.4,0-0.6,0.1c-0.2,0.1-0.3,0.2-0.5,0.3c0,0,0,0.1,0,0.1v3.4c0,0.1-0.1,0.1-0.1,0.1h-0.9
		c-0.1,0-0.1-0.1-0.1-0.1v-4.7C296.1,68.4,296.2,68.4,296.3,68.4"/>
	<path class="st9" d="M304.5,68.5c0.3,0.1,0.6,0.3,0.7,0.6c0.2,0.3,0.2,0.7,0.2,1.2v3c0,0.1-0.1,0.1-0.1,0.1h-0.7
		c-0.1,0-0.1-0.1-0.1-0.1l-0.1-0.4h-0.1c-0.1,0.2-0.3,0.4-0.6,0.5c-0.2,0.1-0.5,0.2-0.8,0.2c-0.3,0-0.6-0.1-0.9-0.2
		c-0.2-0.1-0.4-0.3-0.5-0.5c-0.1-0.2-0.2-0.5-0.2-0.8c0-0.5,0.2-0.8,0.5-1.1c0.3-0.3,0.8-0.4,1.5-0.5l0.9-0.1v-0.2
		c0-0.3,0-0.5-0.1-0.6c-0.1-0.1-0.2-0.2-0.4-0.3c-0.2-0.1-0.4-0.1-0.7-0.1c-0.2,0-0.4,0-0.7,0.1c-0.2,0-0.3,0.1-0.5,0.1
		c-0.1,0-0.2,0-0.2-0.1v-0.6c0-0.1,0-0.1,0.1-0.1c0.2-0.1,0.4-0.1,0.7-0.1c0.3,0,0.5-0.1,0.8-0.1C303.8,68.3,304.2,68.4,304.5,68.5
		 M303.8,72.5c0.1-0.1,0.3-0.2,0.4-0.3c0,0,0-0.1,0-0.1v-0.9c0-0.1-0.1-0.2-0.2-0.1l-0.7,0.1c-0.3,0-0.5,0.1-0.7,0.2
		c-0.1,0.1-0.2,0.3-0.2,0.5c0,0.2,0.1,0.4,0.2,0.5c0.1,0.1,0.3,0.2,0.6,0.2C303.5,72.6,303.7,72.6,303.8,72.5"/>
	<polygon class="st9" points="264.1,51.7 265.4,51.7 266.3,54.2 266.7,55.2 266.7,55.2 267,54.2 268,51.7 269.2,51.7 269.2,56.4 
		268.4,56.4 268.4,52.8 268.4,52.8 267.9,54.1 267.1,56.2 266.3,56.2 265.4,54.1 265,52.8 264.9,52.8 264.9,56.4 264.1,56.4 	"/>
	<path class="st9" d="M270.6,52.4c-0.2,0-0.3,0-0.4-0.1c-0.1-0.1-0.1-0.2-0.1-0.4c0-0.2,0-0.3,0.1-0.4c0.1-0.1,0.2-0.1,0.4-0.1
		c0.2,0,0.3,0,0.4,0.1c0.1,0.1,0.1,0.2,0.1,0.4c0,0.2,0,0.3-0.1,0.4C270.9,52.4,270.8,52.4,270.6,52.4 M270.1,53h0.9v3.4h-0.9V53z"
		/>
	<path class="st9" d="M271.8,53h0.7l0,0.4h0c0.3-0.2,0.6-0.3,0.8-0.3c0.2-0.1,0.4-0.1,0.6-0.1c0.3,0,0.5,0.1,0.7,0.2
		c0.2,0.2,0.2,0.4,0.2,0.7v2.5h-0.9v-2.2c0-0.2,0-0.3-0.1-0.4c-0.1-0.1-0.2-0.1-0.3-0.1c-0.1,0-0.3,0-0.5,0.1
		c-0.2,0.1-0.4,0.1-0.5,0.2v2.5h-0.9V53z"/>
	<path class="st9" d="M276.3,52.4c-0.2,0-0.3,0-0.4-0.1c-0.1-0.1-0.1-0.2-0.1-0.4c0-0.2,0-0.3,0.1-0.4c0.1-0.1,0.2-0.1,0.4-0.1
		c0.2,0,0.3,0,0.4,0.1c0.1,0.1,0.1,0.2,0.1,0.4c0,0.2,0,0.3-0.1,0.4C276.6,52.4,276.4,52.4,276.3,52.4 M275.8,53h0.9v3.4h-0.9V53z"
		/>
	<path class="st9" d="M278.6,56.4c-0.2,0-0.4,0-0.6,0c-0.2,0-0.4-0.1-0.7-0.1v-0.6c0.2,0,0.4,0.1,0.6,0.1c0.2,0,0.4,0,0.6,0
		c0.4,0,0.6-0.1,0.6-0.4c0-0.1-0.1-0.2-0.2-0.3c-0.1-0.1-0.3-0.1-0.5-0.1c-0.1,0-0.3,0-0.4-0.1c-0.1,0-0.3-0.1-0.4-0.1
		c-0.1-0.1-0.2-0.2-0.3-0.3c-0.1-0.1-0.1-0.3-0.1-0.5c0-0.3,0.1-0.6,0.4-0.8c0.2-0.2,0.6-0.3,1-0.3c0.1,0,0.2,0,0.2,0
		c0.1,0,0.2,0,0.3,0c0.1,0,0.2,0,0.3,0c0.1,0,0.2,0,0.4,0.1l0,0.7c-0.2,0-0.4-0.1-0.6-0.1c-0.2,0-0.3,0-0.5,0
		c-0.4,0-0.6,0.1-0.6,0.4c0,0.1,0.1,0.2,0.2,0.3c0.1,0.1,0.3,0.1,0.5,0.1c0.2,0,0.3,0.1,0.5,0.1c0.1,0,0.3,0.1,0.4,0.2
		c0.1,0.1,0.2,0.2,0.2,0.3c0.1,0.1,0.1,0.3,0.1,0.4c0,0.3-0.1,0.6-0.4,0.8C279.5,56.4,279.1,56.4,278.6,56.4"/>
	<path class="st9" d="M282.1,56.4c-0.4,0-0.6-0.1-0.8-0.3c-0.2-0.2-0.3-0.4-0.3-0.8v-1.7h-0.6V53h0.7l0.1-0.9l0.7-0.1v1h0.9v0.7
		h-0.9v1.5c0,0.2,0,0.3,0.1,0.4c0.1,0.1,0.2,0.1,0.4,0.1c0.1,0,0.3,0,0.4-0.1v0.7c-0.1,0-0.2,0-0.3,0.1
		C282.4,56.4,282.3,56.4,282.1,56.4"/>
	<path class="st9" d="M284.9,56.4c-1.1,0-1.7-0.6-1.7-1.7c0-0.6,0.1-1,0.4-1.3c0.3-0.3,0.7-0.5,1.2-0.5c0.9,0,1.4,0.5,1.4,1.5
		c0,0.1,0,0.2,0,0.3c0,0.1,0,0.2,0,0.2h-2.2c0,0.2,0,0.3,0.1,0.4c0,0.1,0.1,0.2,0.2,0.3c0.1,0.1,0.2,0.1,0.3,0.1c0.1,0,0.2,0,0.4,0
		c0.2,0,0.4,0,0.6,0c0.2,0,0.4-0.1,0.6-0.1l0,0.6c-0.2,0.1-0.4,0.1-0.6,0.1C285.3,56.4,285.1,56.4,284.9,56.4 M284.9,53.6
		c-0.2,0-0.4,0.1-0.6,0.2c-0.1,0.1-0.2,0.4-0.2,0.7h1.5c0-0.3-0.1-0.5-0.2-0.7C285.3,53.6,285.1,53.6,284.9,53.6"/>
	<path class="st9" d="M287,53h0.7l0.1,0.5h0c0.2-0.1,0.4-0.2,0.6-0.3c0.2-0.1,0.4-0.2,0.5-0.2h0.3v0.8h-0.3c-0.2,0-0.4,0.1-0.5,0.1
		c-0.2,0.1-0.3,0.1-0.5,0.2v2.3H287V53z"/>
	<path class="st9" d="M290.1,52.4c-0.2,0-0.3,0-0.4-0.1c-0.1-0.1-0.1-0.2-0.1-0.4c0-0.2,0-0.3,0.1-0.4c0.1-0.1,0.2-0.1,0.4-0.1
		c0.2,0,0.3,0,0.4,0.1c0.1,0.1,0.1,0.2,0.1,0.4c0,0.2,0,0.3-0.1,0.4C290.4,52.4,290.3,52.4,290.1,52.4 M289.7,53h0.9v3.4h-0.9V53z"
		/>
	<path class="st9" d="M292.9,56.4c-0.6,0-1-0.1-1.3-0.4c-0.3-0.3-0.4-0.7-0.4-1.3c0-0.6,0.1-1,0.4-1.3c0.3-0.3,0.7-0.4,1.3-0.4
		s1,0.1,1.3,0.4c0.3,0.3,0.4,0.7,0.4,1.3c0,0.6-0.1,1-0.4,1.3C293.9,56.3,293.5,56.4,292.9,56.4 M292.9,55.8c0.3,0,0.5-0.1,0.6-0.2
		c0.1-0.2,0.2-0.4,0.2-0.8c0-0.4-0.1-0.7-0.2-0.8c-0.1-0.2-0.3-0.2-0.6-0.2c-0.3,0-0.5,0.1-0.6,0.2c-0.1,0.2-0.2,0.4-0.2,0.8
		c0,0.4,0.1,0.7,0.2,0.8C292.4,55.7,292.6,55.8,292.9,55.8"/>
	<path class="st9" d="M297.9,56.4c-0.5,0-0.8-0.1-1.1-0.4c-0.2-0.3-0.4-0.7-0.4-1.3c0-0.3,0-0.6,0.1-0.8c0.1-0.2,0.2-0.4,0.4-0.6
		c0.2-0.2,0.3-0.3,0.6-0.3c0.2-0.1,0.5-0.1,0.7-0.1c0.1,0,0.2,0,0.3,0c0.1,0,0.2,0,0.3,0v-1.7h0.9v5.1h-0.8L299,56h0
		C298.7,56.3,298.4,56.4,297.9,56.4 M298.2,55.8c0.2,0,0.4-0.1,0.6-0.2c0.1-0.1,0.2-0.3,0.2-0.5v-1.4c-0.1,0-0.2,0-0.3,0
		c-0.1,0-0.2,0-0.4,0c-0.2,0-0.3,0-0.4,0.1c-0.1,0-0.2,0.1-0.3,0.2c-0.1,0.1-0.1,0.2-0.2,0.4c0,0.1,0,0.3,0,0.5c0,0.2,0,0.4,0,0.5
		c0,0.1,0.1,0.3,0.1,0.3c0.1,0.1,0.1,0.2,0.2,0.2C297.9,55.8,298,55.8,298.2,55.8"/>
	<path class="st9" d="M302.2,56.4c-1.1,0-1.7-0.6-1.7-1.7c0-0.6,0.1-1,0.4-1.3c0.3-0.3,0.7-0.5,1.2-0.5c0.9,0,1.4,0.5,1.4,1.5
		c0,0.1,0,0.2,0,0.3c0,0.1,0,0.2,0,0.2h-2.2c0,0.2,0,0.3,0.1,0.4c0,0.1,0.1,0.2,0.2,0.3c0.1,0.1,0.2,0.1,0.3,0.1c0.1,0,0.2,0,0.4,0
		c0.2,0,0.4,0,0.6,0c0.2,0,0.4-0.1,0.6-0.1l0,0.6c-0.2,0.1-0.4,0.1-0.6,0.1C302.6,56.4,302.4,56.4,302.2,56.4 M302.1,53.6
		c-0.2,0-0.4,0.1-0.6,0.2c-0.1,0.1-0.2,0.4-0.2,0.7h1.5c0-0.3-0.1-0.5-0.2-0.7C302.5,53.6,302.4,53.6,302.1,53.6"/>
	<polygon class="st9" points="306.6,52.5 305.2,52.5 305.2,51.7 308.8,51.7 308.8,52.5 307.4,52.5 307.4,56.4 306.6,56.4 	"/>
	<path class="st9" d="M308.8,53h0.7l0,0.5h0c0.2-0.1,0.4-0.2,0.6-0.3c0.2-0.1,0.4-0.2,0.5-0.2h0.3v0.8h-0.3c-0.2,0-0.4,0.1-0.5,0.1
		c-0.2,0.1-0.3,0.1-0.5,0.2v2.3h-0.9V53z"/>
	<path class="st9" d="M312.2,56.4c-0.3,0-0.5-0.1-0.7-0.2c-0.2-0.2-0.2-0.4-0.2-0.7c0-0.3,0.1-0.6,0.3-0.8c0.2-0.2,0.5-0.3,1-0.3
		l0.8-0.1v-0.1c0-0.1,0-0.2,0-0.3c0-0.1-0.1-0.1-0.1-0.2c-0.1-0.1-0.1-0.1-0.2-0.1c-0.1,0-0.2,0-0.4,0c-0.1,0-0.3,0-0.5,0
		c-0.2,0-0.4,0-0.6,0.1l-0.1-0.6c0.5-0.1,0.9-0.1,1.3-0.1c0.5,0,0.9,0.1,1.1,0.3c0.2,0.2,0.4,0.5,0.4,0.9v2.3h-0.7l-0.1-0.4h0
		C313,56.3,312.6,56.4,312.2,56.4 M312.6,55.8c0.1,0,0.3,0,0.4-0.1c0.1-0.1,0.3-0.1,0.4-0.2v-0.7l-0.5,0c-0.2,0-0.4,0.1-0.5,0.1
		c-0.1,0.1-0.1,0.2-0.1,0.4C312.2,55.7,312.3,55.8,312.6,55.8"/>
	<path class="st9" d="M316.5,56.4c-0.1,0-0.2,0-0.3,0c-0.1,0-0.2,0-0.3,0c-0.1,0-0.3,0-0.4-0.1c-0.1,0-0.3-0.1-0.5-0.1v-4.9h0.9v2
		c0.2-0.3,0.6-0.4,1-0.4c0.5,0,0.8,0.1,1.1,0.4c0.2,0.3,0.4,0.7,0.4,1.3c0,0.6-0.2,1-0.5,1.3C317.5,56.3,317.1,56.4,316.5,56.4
		 M316.5,55.8c0.2,0,0.3,0,0.4-0.1c0.1,0,0.2-0.1,0.3-0.2c0.1-0.1,0.1-0.2,0.2-0.4c0-0.1,0.1-0.3,0.1-0.5c0-0.2,0-0.4,0-0.5
		c0-0.1-0.1-0.2-0.1-0.3c-0.1-0.1-0.1-0.1-0.2-0.2c-0.1,0-0.2-0.1-0.4-0.1c-0.2,0-0.4,0.1-0.6,0.2c-0.2,0.1-0.2,0.3-0.2,0.5v1.5
		c0.1,0,0.2,0,0.3,0C316.3,55.8,316.4,55.8,316.5,55.8"/>
	<path class="st9" d="M319.7,56.4c-0.3,0-0.5-0.1-0.7-0.2c-0.2-0.2-0.2-0.4-0.2-0.7c0-0.3,0.1-0.6,0.3-0.8c0.2-0.2,0.5-0.3,1-0.3
		l0.8-0.1v-0.1c0-0.1,0-0.2,0-0.3c0-0.1-0.1-0.1-0.1-0.2c-0.1-0.1-0.1-0.1-0.2-0.1c-0.1,0-0.2,0-0.4,0c-0.1,0-0.3,0-0.5,0
		c-0.2,0-0.4,0-0.6,0.1l-0.1-0.6c0.5-0.1,0.9-0.1,1.3-0.1c0.5,0,0.9,0.1,1.1,0.3c0.2,0.2,0.4,0.5,0.4,0.9v2.3H321l-0.1-0.4h0
		C320.5,56.3,320.1,56.4,319.7,56.4 M320.1,55.8c0.1,0,0.3,0,0.4-0.1c0.1-0.1,0.3-0.1,0.4-0.2v-0.7l-0.5,0c-0.2,0-0.4,0.1-0.5,0.1
		c-0.1,0.1-0.1,0.2-0.1,0.4C319.7,55.7,319.8,55.8,320.1,55.8"/>
	<path class="st9" d="M322.2,57.6c0.1-0.2,0.1-0.3,0.2-0.5c0-0.2,0.1-0.3,0.1-0.5c0-0.2,0-0.3,0.1-0.5c0-0.2,0-0.4,0-0.6v-0.2v-0.4
		v-0.5c0-0.2,0-0.4,0-0.5c0-0.2,0-0.3,0-0.5c0-0.1,0-0.3,0-0.4h0.9v2.9c0,0.3-0.1,0.7-0.2,1c-0.1,0.3-0.2,0.6-0.4,0.9L322.2,57.6z
		 M323,52.4c-0.2,0-0.3,0-0.4-0.1c-0.1-0.1-0.1-0.2-0.1-0.4c0-0.2,0-0.3,0.1-0.4c0.1-0.1,0.2-0.1,0.4-0.1c0.2,0,0.3,0,0.4,0.1
		c0.1,0.1,0.1,0.2,0.1,0.4c0,0.2,0,0.3-0.1,0.4C323.3,52.4,323.1,52.4,323,52.4"/>
	<path class="st9" d="M325.8,56.4c-0.6,0-1-0.1-1.3-0.4c-0.3-0.3-0.4-0.7-0.4-1.3c0-0.6,0.1-1,0.4-1.3c0.3-0.3,0.7-0.4,1.3-0.4
		c0.6,0,1,0.1,1.3,0.4c0.3,0.3,0.4,0.7,0.4,1.3c0,0.6-0.1,1-0.4,1.3C326.8,56.3,326.3,56.4,325.8,56.4 M325.8,55.8
		c0.3,0,0.5-0.1,0.6-0.2c0.1-0.2,0.2-0.4,0.2-0.8c0-0.4-0.1-0.7-0.2-0.8c-0.1-0.2-0.3-0.2-0.6-0.2c-0.3,0-0.5,0.1-0.6,0.2
		c-0.1,0.2-0.2,0.4-0.2,0.8c0,0.4,0.1,0.7,0.2,0.8C325.3,55.7,325.5,55.8,325.8,55.8"/>
	<polygon class="st9" points="327.9,57.3 328.2,55.5 329,55.5 328.5,57.3 	"/>
	<polygon class="st9" points="264.1,58.8 267.3,58.8 267.3,59.5 265,59.5 265,60.7 267.2,60.7 267.2,61.4 265,61.4 265,62.7 
		267.4,62.7 267.4,63.4 264.1,63.4 	"/>
	<path class="st9" d="M268.1,60h0.7l0,0.4h0c0.2-0.1,0.5-0.3,0.7-0.3c0.2-0.1,0.4-0.1,0.6-0.1c0.4,0,0.7,0.2,0.8,0.5h0
		c0.3-0.2,0.5-0.3,0.7-0.3c0.2-0.1,0.4-0.1,0.6-0.1c0.3,0,0.5,0.1,0.7,0.2c0.2,0.2,0.2,0.4,0.2,0.7v2.5h-0.9v-2.2
		c0-0.2,0-0.3-0.1-0.4c-0.1-0.1-0.2-0.1-0.3-0.1c-0.1,0-0.2,0-0.4,0.1c-0.1,0-0.3,0.1-0.4,0.2v2.5h-0.9v-2.2c0-0.2,0-0.3-0.1-0.4
		c-0.1-0.1-0.2-0.1-0.3-0.1c-0.1,0-0.2,0-0.4,0.1c-0.1,0-0.3,0.1-0.4,0.2v2.5h-0.9V60z"/>
	<path class="st9" d="M273.9,60h0.8l0.1,0.4h0c0.2-0.3,0.6-0.5,1-0.5c0.5,0,0.8,0.1,1.1,0.4c0.2,0.3,0.4,0.7,0.4,1.3
		c0,0.3,0,0.6-0.1,0.8c-0.1,0.2-0.2,0.4-0.4,0.6c-0.2,0.2-0.3,0.3-0.6,0.3c-0.2,0.1-0.5,0.1-0.8,0.1c-0.1,0-0.2,0-0.3,0
		c-0.1,0-0.2,0-0.3,0v1.4h-0.9V60z M275.5,62.8c0.2,0,0.3,0,0.4-0.1c0.1,0,0.2-0.1,0.3-0.2c0.1-0.1,0.1-0.2,0.2-0.4
		c0-0.1,0.1-0.3,0.1-0.5c0-0.2,0-0.4,0-0.5c0-0.1-0.1-0.3-0.1-0.3c-0.1-0.1-0.1-0.2-0.2-0.2c-0.1,0-0.2-0.1-0.4-0.1
		c-0.2,0-0.4,0.1-0.6,0.2c-0.1,0.1-0.2,0.3-0.2,0.6v1.4c0.1,0,0.2,0,0.3,0C275.2,62.8,275.4,62.8,275.5,62.8"/>
	<rect x="277.9" y="58.4" class="st9" width="0.9" height="5"/>
	<path class="st9" d="M281.2,63.5c-1.1,0-1.7-0.6-1.7-1.7c0-0.6,0.1-1,0.4-1.3c0.3-0.3,0.7-0.5,1.2-0.5c0.9,0,1.4,0.5,1.4,1.5
		c0,0.1,0,0.2,0,0.3c0,0.1,0,0.2,0,0.2h-2.2c0,0.2,0,0.3,0.1,0.4c0,0.1,0.1,0.2,0.2,0.3c0.1,0.1,0.2,0.1,0.3,0.1c0.1,0,0.2,0,0.4,0
		c0.2,0,0.4,0,0.6,0c0.2,0,0.4-0.1,0.6-0.1l0,0.6c-0.2,0.1-0.4,0.1-0.6,0.1C281.6,63.4,281.4,63.5,281.2,63.5 M281.1,60.6
		c-0.2,0-0.4,0.1-0.6,0.2c-0.1,0.1-0.2,0.4-0.2,0.7h1.5c0-0.3-0.1-0.5-0.2-0.7C281.5,60.7,281.3,60.6,281.1,60.6"/>
	<path class="st9" d="M284.8,63.5c-0.6,0-1-0.2-1.3-0.4c-0.3-0.3-0.4-0.7-0.4-1.3c0-0.6,0.1-1,0.4-1.3c0.3-0.3,0.7-0.4,1.3-0.4
		c0.6,0,1,0.2,1.3,0.4c0.3,0.3,0.4,0.7,0.4,1.3c0,0.6-0.1,1-0.4,1.3C285.7,63.3,285.3,63.5,284.8,63.5 M284.8,62.8
		c0.3,0,0.5-0.1,0.6-0.2c0.1-0.2,0.2-0.4,0.2-0.8c0-0.4-0.1-0.7-0.2-0.8c-0.1-0.2-0.3-0.2-0.6-0.2c-0.3,0-0.5,0.1-0.6,0.2
		c-0.1,0.2-0.2,0.4-0.2,0.8c0,0.4,0.1,0.7,0.2,0.8C284.2,62.7,284.5,62.8,284.8,62.8"/>
	<polygon class="st9" points="288.9,64.7 288.9,64.6 289.4,63.4 288,60.1 288,60 288.9,60 289.6,61.9 289.8,62.5 289.9,62.5 
		290,61.9 290.8,60 291.7,60 291.7,60.1 289.7,64.8 	"/>
	<path class="st9" d="M294.8,63.5c-0.1,0-0.2,0-0.4,0c-0.1,0-0.3,0-0.4,0c-0.1,0-0.3,0-0.4-0.1c-0.1,0-0.3-0.1-0.4-0.1v-0.7
		c0.3,0.1,0.6,0.1,0.8,0.2c0.3,0,0.5,0.1,0.7,0.1c0.6,0,0.9-0.2,0.9-0.6c0-0.1,0-0.2-0.1-0.3c0-0.1-0.1-0.1-0.2-0.2
		c-0.1-0.1-0.2-0.1-0.3-0.1c-0.1,0-0.2-0.1-0.4-0.1c-0.3-0.1-0.5-0.1-0.7-0.2c-0.2-0.1-0.3-0.2-0.5-0.3c-0.1-0.1-0.2-0.2-0.3-0.4
		c-0.1-0.1-0.1-0.3-0.1-0.5c0-0.2,0-0.4,0.1-0.6c0.1-0.2,0.2-0.3,0.3-0.4c0.2-0.1,0.3-0.2,0.5-0.3c0.2-0.1,0.5-0.1,0.7-0.1
		c0.2,0,0.4,0,0.6,0c0.2,0,0.5,0.1,0.7,0.1v0.7c-0.2-0.1-0.4-0.1-0.6-0.1c-0.2,0-0.4,0-0.6,0c-0.3,0-0.5,0.1-0.7,0.2
		c-0.2,0.1-0.2,0.3-0.2,0.4c0,0.1,0,0.2,0.1,0.3c0,0.1,0.1,0.1,0.2,0.2c0.1,0.1,0.2,0.1,0.3,0.2c0.1,0,0.3,0.1,0.4,0.1
		c0.2,0.1,0.4,0.1,0.6,0.2c0.2,0.1,0.3,0.2,0.5,0.3c0.1,0.1,0.2,0.2,0.3,0.4c0.1,0.1,0.1,0.3,0.1,0.5c0,0.4-0.2,0.8-0.5,1
		C295.8,63.4,295.4,63.5,294.8,63.5"/>
	<path class="st9" d="M298.7,63.5c-1.1,0-1.7-0.6-1.7-1.7c0-0.6,0.1-1,0.4-1.3c0.3-0.3,0.7-0.5,1.2-0.5c0.9,0,1.4,0.5,1.4,1.5
		c0,0.1,0,0.2,0,0.3c0,0.1,0,0.2,0,0.2h-2.2c0,0.2,0,0.3,0.1,0.4c0,0.1,0.1,0.2,0.2,0.3c0.1,0.1,0.2,0.1,0.3,0.1c0.1,0,0.2,0,0.4,0
		c0.2,0,0.4,0,0.6,0c0.2,0,0.4-0.1,0.6-0.1l0,0.6c-0.2,0.1-0.4,0.1-0.6,0.1C299.1,63.4,298.9,63.5,298.7,63.5 M298.6,60.6
		c-0.2,0-0.4,0.1-0.6,0.2c-0.1,0.1-0.2,0.4-0.2,0.7h1.5c0-0.3-0.1-0.5-0.2-0.7C299.1,60.7,298.9,60.6,298.6,60.6"/>
	<path class="st9" d="M302.1,64.8c-0.2,0-0.5,0-0.7,0c-0.2,0-0.4-0.1-0.6-0.1l0.1-0.6c0.1,0,0.3,0.1,0.5,0.1c0.2,0,0.4,0,0.6,0
		c0.2,0,0.3,0,0.5,0c0.1,0,0.3-0.1,0.4-0.2c0.1-0.1,0.2-0.2,0.2-0.3c0.1-0.1,0.1-0.3,0.1-0.5v-0.3h0c-0.1,0.2-0.3,0.3-0.4,0.4
		c-0.2,0.1-0.4,0.1-0.6,0.1c-0.5,0-0.8-0.1-1.1-0.4c-0.2-0.3-0.4-0.7-0.4-1.2c0-0.3,0-0.6,0.1-0.8c0.1-0.2,0.2-0.4,0.4-0.6
		c0.2-0.2,0.3-0.3,0.6-0.3c0.2-0.1,0.5-0.1,0.7-0.1c0.1,0,0.2,0,0.3,0c0.1,0,0.2,0,0.3,0c0.1,0,0.3,0,0.4,0.1c0.1,0,0.3,0.1,0.5,0.1
		V63c0,0.3,0,0.6-0.1,0.8c-0.1,0.2-0.2,0.4-0.4,0.5c-0.2,0.1-0.4,0.2-0.6,0.3C302.6,64.7,302.4,64.8,302.1,64.8 M302.3,62.7
		c0.2,0,0.4-0.1,0.6-0.2c0.1-0.1,0.2-0.3,0.2-0.6v-1.3c-0.1,0-0.2,0-0.3,0c-0.1,0-0.2,0-0.4,0c-0.2,0-0.3,0-0.4,0.1
		c-0.1,0-0.2,0.1-0.3,0.2c-0.1,0.1-0.1,0.2-0.2,0.3c0,0.1,0,0.3,0,0.5c0,0.4,0.1,0.6,0.2,0.8C301.8,62.6,302,62.7,302.3,62.7"/>
	<path class="st9" d="M305.6,63.5c-0.3,0-0.5-0.1-0.7-0.2c-0.2-0.2-0.2-0.4-0.2-0.7V60h0.9v2.2c0,0.2,0,0.3,0.1,0.4
		c0.1,0.1,0.2,0.1,0.3,0.1c0.2,0,0.3,0,0.5-0.1c0.2-0.1,0.4-0.1,0.5-0.2V60h0.9v3.4h-0.7l0-0.4h0c-0.2,0.1-0.3,0.2-0.4,0.2
		c-0.1,0.1-0.2,0.1-0.3,0.1c-0.1,0-0.2,0.1-0.3,0.1C305.9,63.5,305.8,63.5,305.6,63.5"/>
	<path class="st9" d="M308.7,60h0.7l0,0.5h0c0.2-0.1,0.4-0.2,0.6-0.3c0.2-0.1,0.4-0.2,0.5-0.2h0.3v0.8h-0.3c-0.2,0-0.4,0.1-0.5,0.1
		c-0.2,0.1-0.3,0.1-0.5,0.2v2.3h-0.9V60z"/>
	<path class="st9" d="M311.8,59.5c-0.2,0-0.3,0-0.4-0.1c-0.1-0.1-0.1-0.2-0.1-0.4c0-0.2,0-0.3,0.1-0.4c0.1-0.1,0.2-0.1,0.4-0.1
		c0.2,0,0.3,0,0.4,0.1c0.1,0.1,0.1,0.2,0.1,0.4c0,0.2,0,0.3-0.1,0.4C312.1,59.4,312,59.5,311.8,59.5 M311.4,60h0.9v3.4h-0.9V60z"/>
	<path class="st9" d="M314.4,63.5c-0.5,0-0.8-0.1-1.1-0.4c-0.2-0.3-0.4-0.7-0.4-1.3c0-0.3,0-0.6,0.1-0.8c0.1-0.2,0.2-0.4,0.4-0.6
		c0.2-0.1,0.3-0.3,0.6-0.3c0.2-0.1,0.5-0.1,0.7-0.1c0.1,0,0.2,0,0.3,0c0.1,0,0.2,0,0.3,0v-1.7h0.9v5h-0.8l-0.1-0.4h0
		C315.2,63.3,314.8,63.5,314.4,63.5 M314.6,62.8c0.2,0,0.4-0.1,0.6-0.2c0.1-0.1,0.2-0.3,0.2-0.5v-1.4c-0.1,0-0.2,0-0.3,0
		c-0.1,0-0.2,0-0.4,0c-0.2,0-0.3,0-0.4,0.1c-0.1,0-0.2,0.1-0.3,0.2c-0.1,0.1-0.1,0.2-0.2,0.4c0,0.1-0.1,0.3-0.1,0.5
		c0,0.2,0,0.4,0,0.5c0,0.1,0.1,0.3,0.1,0.3c0.1,0.1,0.1,0.2,0.2,0.2C314.3,62.8,314.5,62.8,314.6,62.8"/>
	<path class="st9" d="M317.8,63.4c-0.3,0-0.5-0.1-0.7-0.2c-0.2-0.2-0.2-0.4-0.2-0.7c0-0.3,0.1-0.6,0.3-0.8c0.2-0.2,0.5-0.3,1-0.3
		l0.8-0.1v-0.1c0-0.1,0-0.2,0-0.3c0-0.1-0.1-0.1-0.1-0.2c-0.1-0.1-0.1-0.1-0.2-0.1c-0.1,0-0.2,0-0.4,0c-0.1,0-0.3,0-0.5,0
		c-0.2,0-0.4,0-0.6,0.1l-0.1-0.6c0.5-0.1,0.9-0.1,1.3-0.1c0.5,0,0.9,0.1,1.1,0.3c0.2,0.2,0.4,0.5,0.4,0.9v2.3h-0.7L319,63H319
		C318.6,63.3,318.2,63.4,317.8,63.4 M318.2,62.8c0.1,0,0.3,0,0.4-0.1c0.1-0.1,0.3-0.1,0.4-0.2v-0.7l-0.5,0c-0.2,0-0.4,0.1-0.5,0.1
		c-0.1,0.1-0.1,0.2-0.1,0.4C317.8,62.7,317.9,62.8,318.2,62.8"/>
	<path class="st9" d="M321.9,63.5c-0.5,0-0.8-0.1-1.1-0.4c-0.2-0.3-0.4-0.7-0.4-1.3c0-0.3,0-0.6,0.1-0.8c0.1-0.2,0.2-0.4,0.4-0.6
		c0.2-0.1,0.3-0.3,0.6-0.3c0.2-0.1,0.5-0.1,0.7-0.1c0.1,0,0.2,0,0.3,0c0.1,0,0.2,0,0.3,0v-1.7h0.9v5H323L323,63h0
		C322.7,63.3,322.3,63.5,321.9,63.5 M322.1,62.8c0.2,0,0.4-0.1,0.6-0.2c0.1-0.1,0.2-0.3,0.2-0.5v-1.4c-0.1,0-0.2,0-0.3,0
		c-0.1,0-0.2,0-0.4,0c-0.2,0-0.3,0-0.4,0.1c-0.1,0-0.2,0.1-0.3,0.2c-0.1,0.1-0.1,0.2-0.2,0.4c0,0.1,0,0.3,0,0.5c0,0.2,0,0.4,0,0.5
		c0,0.1,0.1,0.3,0.1,0.3c0.1,0.1,0.1,0.2,0.2,0.2C321.9,62.8,322,62.8,322.1,62.8"/>
	<path class="st9" d="M327.4,63.5c-0.1,0-0.2,0-0.4,0c-0.1,0-0.3,0-0.4,0c-0.1,0-0.3,0-0.4-0.1c-0.1,0-0.3-0.1-0.4-0.1v-0.7
		c0.3,0.1,0.6,0.1,0.8,0.2c0.3,0,0.5,0.1,0.7,0.1c0.6,0,0.9-0.2,0.9-0.6c0-0.1,0-0.2-0.1-0.3c0-0.1-0.1-0.1-0.2-0.2
		c-0.1-0.1-0.2-0.1-0.3-0.1c-0.1,0-0.2-0.1-0.4-0.1c-0.3-0.1-0.5-0.1-0.7-0.2c-0.2-0.1-0.3-0.2-0.5-0.3c-0.1-0.1-0.2-0.2-0.3-0.4
		c-0.1-0.1-0.1-0.3-0.1-0.5c0-0.2,0-0.4,0.1-0.6c0.1-0.2,0.2-0.3,0.3-0.4c0.1-0.1,0.3-0.2,0.5-0.3c0.2-0.1,0.5-0.1,0.7-0.1
		c0.2,0,0.4,0,0.6,0c0.2,0,0.5,0.1,0.7,0.1v0.7c-0.2-0.1-0.4-0.1-0.6-0.1c-0.2,0-0.4,0-0.6,0c-0.3,0-0.5,0.1-0.7,0.2
		c-0.2,0.1-0.2,0.3-0.2,0.4c0,0.1,0,0.2,0.1,0.3c0,0.1,0.1,0.1,0.2,0.2c0.1,0.1,0.2,0.1,0.3,0.2c0.1,0,0.3,0.1,0.4,0.1
		c0.2,0.1,0.4,0.1,0.6,0.2c0.2,0.1,0.3,0.2,0.5,0.3c0.1,0.1,0.2,0.2,0.3,0.4c0.1,0.1,0.1,0.3,0.1,0.5c0,0.4-0.2,0.8-0.5,1
		C328.5,63.4,328,63.5,327.4,63.5"/>
	<path class="st9" d="M331.4,63.5c-0.6,0-1-0.2-1.3-0.4c-0.3-0.3-0.4-0.7-0.4-1.3c0-0.6,0.1-1,0.4-1.3c0.3-0.3,0.7-0.4,1.3-0.4
		c0.6,0,1,0.2,1.3,0.4c0.3,0.3,0.4,0.7,0.4,1.3c0,0.6-0.1,1-0.4,1.3C332.4,63.3,331.9,63.5,331.4,63.5 M331.4,62.8
		c0.3,0,0.5-0.1,0.6-0.2c0.1-0.2,0.2-0.4,0.2-0.8c0-0.4-0.1-0.7-0.2-0.8c-0.1-0.2-0.3-0.2-0.6-0.2c-0.3,0-0.5,0.1-0.6,0.2
		c-0.1,0.2-0.2,0.4-0.2,0.8c0,0.4,0.1,0.7,0.2,0.8C330.9,62.7,331.1,62.8,331.4,62.8"/>
	<path class="st9" d="M335.3,63.5c-1.1,0-1.7-0.6-1.7-1.7c0-1.2,0.6-1.7,1.7-1.7c0.2,0,0.3,0,0.5,0c0.2,0,0.3,0,0.5,0.1v0.7
		c-0.2,0-0.3,0-0.4-0.1c-0.1,0-0.3,0-0.4,0c-0.3,0-0.5,0.1-0.7,0.2c-0.1,0.2-0.2,0.4-0.2,0.8c0,0.4,0.1,0.6,0.2,0.8
		c0.1,0.2,0.4,0.2,0.7,0.2c0.2,0,0.3,0,0.5,0c0.1,0,0.3,0,0.4-0.1v0.7c-0.1,0-0.3,0.1-0.4,0.1C335.6,63.4,335.4,63.5,335.3,63.5"/>
	<path class="st9" d="M337.3,59.5c-0.2,0-0.3,0-0.4-0.1c-0.1-0.1-0.1-0.2-0.1-0.4c0-0.2,0-0.3,0.1-0.4c0.1-0.1,0.2-0.1,0.4-0.1
		c0.2,0,0.3,0,0.4,0.1c0.1,0.1,0.1,0.2,0.1,0.4c0,0.2,0,0.3-0.1,0.4C337.6,59.4,337.5,59.5,337.3,59.5 M336.9,60h0.9v3.4h-0.9V60z"
		/>
	<path class="st9" d="M339.3,63.4c-0.3,0-0.5-0.1-0.7-0.2c-0.2-0.2-0.2-0.4-0.2-0.7c0-0.3,0.1-0.6,0.3-0.8c0.2-0.2,0.5-0.3,1-0.3
		l0.8-0.1v-0.1c0-0.1,0-0.2,0-0.3c0-0.1-0.1-0.1-0.1-0.2c-0.1-0.1-0.1-0.1-0.2-0.1c-0.1,0-0.2,0-0.4,0c-0.1,0-0.3,0-0.5,0
		c-0.2,0-0.4,0-0.6,0.1l-0.1-0.6c0.5-0.1,0.9-0.1,1.3-0.1c0.5,0,0.9,0.1,1.1,0.3c0.2,0.2,0.4,0.5,0.4,0.9v2.3h-0.7l-0.1-0.4h0
		C340.1,63.3,339.7,63.4,339.3,63.4 M339.7,62.8c0.1,0,0.3,0,0.4-0.1c0.1-0.1,0.3-0.1,0.4-0.2v-0.7l-0.5,0c-0.2,0-0.4,0.1-0.5,0.1
		c-0.1,0.1-0.1,0.2-0.1,0.4C339.3,62.7,339.4,62.8,339.7,62.8"/>
	<rect x="342.1" y="58.4" class="st9" width="0.9" height="5"/>
	<path class="st9" d="M248,48.8L248,48.8L248,48.8c0.3,0,0.6-0.1,0.8-0.1c0.8,0,0.9,0.3,0.9,0.3c0,0,0,0.1,0.1,0.1c0,0,0,0,0,0
		c0,0,0,0,0,0c0,0,0,0,0-0.1c0,0-0.2-0.5-1-0.6c0,0-0.4-0.1-0.9,0C247.9,48.4,247.9,48.7,248,48.8C247.9,48.7,247.9,48.8,248,48.8
		C247.9,48.8,248,48.8,248,48.8"/>
	<path class="st9" d="M246.7,49.1L246.7,49.1c-0.2-0.1-0.6-0.1-0.6-0.1c-0.7,0-0.9,0.4-0.9,0.4c0,0,0,0.1,0,0.1c0,0,0.1,0,0.1,0
		c0.1,0,0.2-0.1,0.2-0.1c0,0,0-0.1,0.3-0.2c0,0,0,0,0,0c0,0,0,0,0,0c0,0,0,0.1,0,0.1c0,0.2,0.2,0.3,0.3,0.3c0.2,0,0.3-0.2,0.3-0.3
		c0,0,0-0.1,0-0.1c0,0,0,0,0,0c0,0,0,0,0,0c0.1,0,0.2,0.1,0.3,0.2c0,0,0.1,0.1,0.2,0.1c0,0,0.1,0,0.1,0c0,0,0,0,0,0
		C246.9,49.2,246.7,49.1,246.7,49.1"/>
	<path class="st9" d="M248,49.7c0.1,0,0.2,0,0.2-0.1c0.1-0.1,0.1-0.2,0.3-0.2c0,0,0,0,0,0c0,0,0,0,0,0c0,0,0,0.1,0,0.1
		c0,0.2,0.2,0.3,0.3,0.3c0.2,0,0.3-0.2,0.3-0.3c0,0,0-0.1,0-0.1c0,0,0,0,0,0c0,0,0,0,0,0c0.3,0.1,0.3,0.2,0.3,0.2c0,0,0,0.1,0.2,0.1
		c0,0,0,0,0.1,0c0,0,0-0.1,0-0.1c0,0-0.2-0.4-0.9-0.4c0,0-0.4,0-0.6,0.1C248.2,49.1,247.9,49.2,248,49.7
		C247.9,49.6,247.9,49.6,248,49.7C247.9,49.6,247.9,49.7,248,49.7"/>
	<path class="st9" d="M245,49.1L245,49.1C245,49.1,245,49.1,245,49.1C245,49.1,245,49.1,245,49.1c0.1,0,0.1-0.1,0.1-0.1
		c0,0,0.2-0.4,1.7-0.2c0,0,0.1,0,0.1,0c0,0,0,0,0-0.1c0,0,0-0.3-0.2-0.3c-0.2,0-0.3,0-0.5,0c-0.2,0-0.3,0-0.3,0
		c-0.8,0.1-1,0.6-1,0.6C245,49,245,49,245,49.1C245,49.1,245,49.1,245,49.1"/>
	<path class="st9" d="M257.7,65.5c0-0.1,0-0.1-0.1-0.2c0,0-0.1,0-0.1,0c0-0.1,0.1-0.2,0.1-0.2c0.1-0.4,0.2-0.8,0.2-1.2
		c0-0.1,0-0.1-0.1-0.1c0,0-0.1,0-0.1,0c0-0.1,0.1-0.2,0.1-0.2c0.1-0.4,0.1-0.8,0.1-1.2c0-0.1,0-0.1-0.1-0.1c0,0-0.1,0-0.1,0
		c0-0.1,0-0.2,0.1-0.3c0.1-0.4,0-0.8,0-1.2c0-0.1,0-0.1-0.1-0.1c0,0-0.1,0-0.1,0c0-0.1,0-0.1,0-0.2c0-0.4,0-0.8-0.1-1.2
		c0-0.1-0.1-0.1-0.1-0.1c-0.1,0-0.1,0-0.2,0c0,0,0,0,0,0c0-0.1,0-0.2,0-0.3c0-0.4-0.1-0.8-0.3-1.2c0-0.1-0.1-0.1-0.1-0.1
		c-0.1,0-0.1,0-0.1,0c0-0.1,0-0.2,0-0.3c-0.1-0.4-0.2-0.8-0.4-1.2c0-0.1-0.1-0.1-0.1-0.1c-0.1,0-0.1,0-0.1,0c0-0.1,0-0.2-0.1-0.3
		c-0.1-0.4-0.3-0.7-0.5-1.1c0,0-0.1-0.1-0.1-0.1c-0.1,0-0.1,0-0.1,0.1c0,0,0,0,0,0c0-0.1-0.1-0.2-0.1-0.3c-0.2-0.3-0.4-0.7-0.7-1
		c0,0-0.1-0.1-0.2,0c0,0-0.1,0-0.1,0.1c0-0.1-0.1-0.2-0.2-0.3c-0.2-0.3-0.5-0.6-0.8-0.9c0,0-0.1,0-0.2,0c0,0-0.1,0.1-0.1,0.1
		c-0.2-0.3-0.5-0.5-0.9-0.7c0,0,0.1,0,0.1,0c0.5,0,0.8-0.1,0.9-0.1c0.1,0,0.2-0.2,0.2-0.3c0-0.1-0.1-0.2-0.2-0.2
		c-0.5,0-0.7-0.1-1-0.3c0,0-0.1,0-0.1,0l1.2-0.2c0.1,0,0.2-0.1,0.2-0.3c0-0.1-0.1-0.2-0.2-0.3l-1.1-0.2c0.1,0,0.2-0.1,0.4-0.1
		c0.5-0.2,0.8-0.4,0.8-0.4c0.1-0.1,0.1-0.2,0.1-0.3c-0.1-0.1-0.2-0.2-0.3-0.1c-0.5,0.2-0.7,0.2-1,0.1c0,0-0.1,0-0.1,0l1-0.6
		c0.1-0.1,0.2-0.2,0.1-0.3c0-0.1-0.2-0.2-0.3-0.1l-1.1,0.3c0.1-0.1,0.2-0.2,0.3-0.2c0.4-0.3,0.5-0.7,0.5-0.7c0.1-0.1,0-0.2-0.1-0.3
		c-0.1-0.1-0.2-0.1-0.3,0c-0.4,0.4-0.6,0.4-0.9,0.5c0,0,0,0-0.1,0l0.7-1c0.1-0.1,0.1-0.2,0-0.3c-0.1-0.1-0.2-0.1-0.3,0l-0.9,0.7
		c0.1-0.1,0.1-0.2,0.2-0.3c0.2-0.4,0.3-0.8,0.3-0.8c0-0.1-0.1-0.2-0.2-0.3c-0.1,0-0.2,0-0.3,0.1c-0.2,0.5-0.4,0.6-0.6,0.8
		c0,0,0,0-0.1,0l0.3-1.1c0-0.1,0-0.2-0.1-0.3c-0.1,0-0.3,0-0.3,0.1l-0.6,1c0-0.1,0-0.3,0-0.4c0-0.5-0.1-0.8-0.1-0.9
		c0-0.1-0.2-0.2-0.3-0.2c-0.1,0-0.2,0.1-0.2,0.2c0,0.5-0.1,0.7-0.3,1c0,0,0,0,0,0.1l-0.2-1.2c0-0.1-0.1-0.2-0.2-0.2
		c-0.1,0-0.2,0.1-0.3,0.2l-0.2,1.1c0-0.1-0.1-0.2-0.1-0.3c-0.2-0.5-0.4-0.8-0.4-0.8c-0.1-0.1-0.2-0.1-0.3-0.1
		c-0.1,0.1-0.2,0.2-0.1,0.3c0.2,0.5,0.2,0.7,0.1,1c0,0,0,0.1,0,0.1l-0.6-1c-0.1-0.1-0.2-0.2-0.3-0.1c-0.1,0-0.2,0.2-0.1,0.3l0.3,1.1
		c-0.1-0.1-0.2-0.2-0.2-0.3c-0.3-0.4-0.6-0.5-0.7-0.6c-0.1-0.1-0.2,0-0.3,0.1c-0.1,0.1-0.1,0.2,0,0.3c0.4,0.4,0.4,0.6,0.5,0.9
		c0,0,0,0.1,0,0.1l-0.9-0.7c-0.1-0.1-0.2-0.1-0.3,0c-0.1,0.1-0.1,0.2,0,0.3l0.7,0.9c-0.1-0.1-0.2-0.1-0.3-0.2
		c-0.4-0.2-0.8-0.3-0.8-0.3c-0.1,0-0.2,0.1-0.3,0.2c0,0.1,0,0.2,0.1,0.3c0.5,0.2,0.6,0.4,0.8,0.6c0,0,0,0,0,0.1l-1.1-0.3
		c-0.1,0-0.2,0-0.3,0.2c0,0.1,0,0.3,0.1,0.3l1,0.6c-0.1,0-0.3,0-0.4,0c-0.5,0-0.8,0.1-0.9,0.1c-0.1,0-0.2,0.2-0.2,0.3
		c0,0.1,0.1,0.2,0.2,0.2c0.5,0,0.7,0.1,1,0.3c0,0,0,0,0.1,0l-1.2,0.2c-0.1,0-0.2,0.1-0.2,0.3c0,0.1,0.1,0.2,0.2,0.3l1.1,0.2
		c-0.1,0-0.2,0.1-0.4,0.1c-0.5,0.2-0.8,0.4-0.8,0.4c-0.1,0.1-0.1,0.2-0.1,0.3c0.1,0.1,0.2,0.2,0.3,0.1c0.2-0.1,0.4-0.1,0.6-0.1
		c-0.3,0.3-0.5,0.4-0.5,0.5c-0.1,0.1-0.1,0.1-0.1,0.2c0,0-0.1-0.1-0.1-0.1c-0.1,0-0.1,0-0.2,0c-0.4,0.3-0.6,0.6-0.8,0.9
		c-0.1,0.1-0.1,0.2-0.2,0.3c0,0-0.1-0.1-0.1-0.1c-0.1,0-0.1,0-0.2,0.1c-0.3,0.3-0.5,0.7-0.7,1c0,0.1-0.1,0.2-0.1,0.3
		c0,0-0.1-0.1-0.1-0.1c-0.1,0-0.1,0-0.1,0.1c-0.3,0.4-0.5,0.7-0.6,1.1c0,0.1-0.1,0.2-0.1,0.3c0,0,0,0,0,0c0,0-0.1-0.1-0.1-0.1
		c-0.1,0-0.1,0-0.1,0.1c-0.2,0.4-0.3,0.8-0.4,1.2c0,0.1,0,0.2,0,0.3l0,0c0,0-0.1-0.1-0.2,0c-0.1,0-0.1,0.1-0.1,0.1
		c-0.2,0.4-0.2,0.8-0.2,1.2c0,0.1,0,0.2,0,0.3c0,0-0.1,0-0.2,0c-0.1,0-0.1,0.1-0.1,0.1c-0.1,0.4-0.1,0.8-0.1,1.2c0,0.1,0,0.1,0,0.2
		c0,0-0.1,0-0.1,0c-0.1,0-0.1,0.1-0.1,0.1c-0.1,0.4-0.1,0.9,0,1.2c0,0.1,0,0.2,0.1,0.3c0,0-0.1,0-0.1,0c-0.1,0-0.1,0.1-0.1,0.1
		c-0.1,0.4,0,0.9,0,1.2c0,0.1,0,0.2,0.1,0.2c0,0-0.1,0-0.1,0c0,0-0.1,0.1-0.1,0.1c0,0.4,0,0.9,0.2,1.2c0,0.1,0.1,0.2,0.1,0.3
		c0,0,0,0,0,0c-0.1,0-0.1,0-0.2,0c0,0-0.1,0.1-0.1,0.2c0.1,0.4,0.2,0.8,0.4,1.2c0,0.1,0.1,0.1,0.1,0.2c0,0-0.1,0-0.1,0
		c0,0-0.1,0.1,0,0.2c0.1,0.4,0.3,0.8,0.5,1.1c0.1,0.1,0.1,0.2,0.2,0.2c0,0-0.1,0-0.1,0.1c0,0,0,0.1,0,0.2c0.2,0.4,0.4,0.8,0.6,1.1
		c0.1,0.1,0.1,0.1,0.2,0.2c0,0-0.1,0-0.1,0.1c0,0.1,0,0.1,0,0.2c0.2,0.4,0.4,0.7,0.7,1c0.1,0.1,0.1,0.1,0.2,0.2c0,0-0.1,0-0.1,0.1
		c0,0.1,0,0.1,0,0.2c0.2,0.4,0.5,0.7,0.8,0.9c0.1,0.1,0.2,0.1,0.3,0.2c0,0,0,0-0.1,0c-0.1,0-0.1,0.1-0.1,0.1c0,0.1,0,0.1,0,0.2
		c0.3,0.3,0.6,0.6,0.9,0.8c0.3,0.2,0.5,0.2,0.8,0.3c0.2,0,0.4,0,0.6,0c0.6,0.4,1.2,0.7,1.8,1c0.5,0.2,1,0.4,1.5,0.5
		c0.1,0,0.2,0,0.2,0l0.2,0c0.1,0,0.2,0.1,0.3,0.1c0,0.1,0,0.1,0,0.2c0,0.1,0,0.1,0,0.2c-0.2,0.2-0.8,0.8-1.8,0.9l-0.1,0l0,0
		c0,0.1,0.1,0.2,0.3,0.3l0,0l0,0c0.8-0.2,1.4-0.6,1.7-0.9c0,0,0,0,0.1,0.1c-0.1,0.2-0.3,0.8-1.3,1.1l-0.1,0l0.1,0
		c0.2,0.1,0.4,0.1,0.6,0.2l0,0l0,0c0.7-0.3,1-0.8,1.1-1.1c0.1,0,0.2,0,0.3,0c0.1,0.3,0.3,0.8,1,1.1l0,0l0,0c0.2,0,0.4-0.1,0.6-0.2
		l0.1,0l-0.1,0c-0.9-0.3-1.2-0.8-1.3-1c0,0,0.1,0,0.1-0.1c0.3,0.3,0.9,0.7,1.7,0.9l0,0l0,0c0.1-0.1,0.2-0.2,0.3-0.3l0,0l-0.1,0
		c-0.9-0.1-1.5-0.6-1.7-0.9c0-0.1,0-0.1,0-0.2c0-0.1,0-0.1,0-0.2c0.1,0,0.2,0,0.3-0.1l0.2,0c0.2,0,0.5-0.1,0.7-0.2
		c0.5-0.1,1-0.3,1.5-0.6c0.7-0.3,1.2-0.7,1.3-0.8c0.2,0,0.4,0,0.6,0c0.3,0,0.5-0.1,0.8-0.3c0.3-0.2,0.6-0.4,0.9-0.8
		c0,0,0.1-0.1,0-0.2c0-0.1-0.1-0.1-0.1-0.1c0,0,0,0,0,0c0.1-0.1,0.2-0.1,0.3-0.2c0.3-0.2,0.6-0.5,0.8-0.9c0,0,0-0.1,0-0.2
		c0,0-0.1-0.1-0.1-0.1c0.1-0.1,0.1-0.1,0.2-0.2c0.3-0.3,0.5-0.6,0.7-1c0-0.1,0-0.1,0-0.2c0,0-0.1-0.1-0.1-0.1
		c0.1-0.1,0.1-0.1,0.2-0.2c0.2-0.3,0.4-0.7,0.6-1.1c0,0,0-0.1,0-0.2c0,0-0.1-0.1-0.1-0.1c0,0,0,0,0,0l0,0c0.1-0.1,0.1-0.1,0.2-0.2
		c0.2-0.3,0.4-0.7,0.5-1.1c0-0.1,0-0.1,0-0.2c0,0-0.1-0.1-0.2-0.1c0.1-0.1,0.1-0.2,0.1-0.3C257.6,66.3,257.7,65.9,257.7,65.5
		 M257.5,64.1L257.5,64.1C257.6,64.1,257.6,64.1,257.5,64.1c0,0.3-0.1,0.6-0.2,0.9c-0.1,0.3-0.2,0.5-0.4,0.7
		c-0.2,0.2-0.4,0.3-0.4,0.4c0,0,0,0,0,0c0,0,0,0,0,0c-0.2-0.3-0.4-0.7-0.4-1.2c0-0.2,0-0.3,0-0.5c0,0,0,0,0,0c0,0,0,0,0,0
		c0.2,0.3,0.3,0.6,0.3,0.6c0,0,0.1,0.1,0.1,0.1c0,0,0,0,0,0c0,0,0.1,0,0.1-0.1C257.1,64.5,257.3,64.2,257.5,64.1
		C257.5,64.1,257.5,64.1,257.5,64.1 M257.5,62.5C257.5,62.5,257.5,62.5,257.5,62.5C257.5,62.5,257.5,62.5,257.5,62.5
		c0,0.3,0,0.6-0.1,0.9c-0.1,0.3-0.2,0.5-0.3,0.7c-0.2,0.2-0.3,0.4-0.4,0.4c0,0,0,0,0,0c0,0,0,0,0,0c-0.4-0.5-0.5-1.2-0.5-1.6
		c0,0,0,0,0,0c0,0,0,0,0,0c0.2,0.3,0.4,0.6,0.4,0.6c0,0,0.1,0.1,0.1,0.1c0,0,0.1,0,0.1-0.1C257.1,62.9,257.3,62.6,257.5,62.5
		 M257.3,60.9L257.3,60.9C257.3,60.9,257.3,60.9,257.3,60.9C257.4,60.9,257.4,60.9,257.3,60.9c0.1,0.3,0.1,0.6,0,0.9
		c0,0.3-0.1,0.5-0.2,0.7c-0.1,0.3-0.3,0.4-0.4,0.5c0,0,0,0,0,0c0,0,0,0,0,0c-0.4-0.4-0.6-1.1-0.6-1.6c0,0,0,0,0,0c0,0,0,0,0,0
		c0.3,0.2,0.4,0.5,0.4,0.5c0,0,0.1,0.1,0.1,0.1c0,0,0.1,0,0.1-0.1C256.9,61.4,257.2,61,257.3,60.9 M257.1,59.3L257.1,59.3
		C257.1,59.3,257.1,59.3,257.1,59.3C257.1,59.3,257.1,59.3,257.1,59.3c0.1,0.3,0.1,0.6,0.1,0.9c0,0.3-0.1,0.5-0.2,0.7
		c-0.1,0.3-0.3,0.4-0.3,0.5c0,0,0,0,0,0c0,0,0,0,0,0c-0.4-0.3-0.5-0.8-0.6-1.1c0-0.1-0.1-0.3-0.1-0.5c0,0,0,0,0,0c0,0,0,0,0,0
		c0.3,0.2,0.5,0.5,0.5,0.5c0,0,0.1,0.1,0.1,0.1c0,0,0.1,0,0.1-0.1C256.7,59.8,256.9,59.5,257.1,59.3 M248.8,67.7
		c0,0,0.1,0.1,0.1,0.1c0.5,0.3,1,0.8,1.1,1c0,0,0,0,0,0c0,0,0,0.1-0.1,0.1c-0.1,0.1-0.2,0.2-0.4,0.2c0,0,0,0,0,0c0,0,0,0,0,0
		c-0.1-0.1-0.2-0.3-0.3-0.4c-0.2-0.2-0.6-0.5-0.6-0.5c-0.1-0.1-0.2,0-0.3,0c-0.1,0.1,0,0.2,0,0.3c0.1,0.1,0.4,0.3,0.5,0.4
		c0.2,0.2,0.2,0.3,0.2,0.3c0,0,0,0,0,0c0,0-0.1,0.1-0.1,0.2c-0.1,0.1-0.2,0.1-0.3,0.1c0,0,0,0,0,0c-0.1-0.1-0.2-0.4-0.4-0.6
		c-0.1-0.1-0.2-0.1-0.3,0c0,0-0.1,0.1-0.1,0.1c0,0.1,0,0.1,0,0.1c0.2,0.2,0.3,0.4,0.3,0.5c0,0,0,0,0,0c0,0-0.1,0.1-0.1,0.1
		c-0.1,0-0.3,0.1-0.4,0c0,0,0,0,0,0c0,0,0,0,0,0c0.1-0.1,0.1-0.2,0.1-0.3c0-0.1,0-0.3-0.2-0.5c-0.1-0.1-0.3-0.2-0.5-0.1c0,0,0,0,0,0
		c0,0,0,0,0,0c0-0.1-0.1-0.3-0.2-0.4c-0.2-0.2-0.4-0.2-0.7-0.1c0,0,0,0,0,0l0,0c0,0,0,0,0,0c0-0.1-0.1-0.2-0.3-0.3
		c-0.2-0.1-0.4-0.1-0.6,0c0,0,0,0,0,0c-0.2-0.2-0.4-0.2-0.5-0.2c-0.3,0-0.7,0.1-0.9,0.3c0,0,0,0,0,0c-1.3,0.7-2.9,1.4-3.6,1.7l0,0
		c0,0,0,0,0,0c-0.4-0.7-0.6-1.4-0.9-2.1c-0.1-0.2-0.1-0.4-0.2-0.6c0,0,0,0,0,0c0,0,0,0,0,0c1.9-0.2,3.4-0.4,4.4-0.7
		c1.1-0.2,1.9-0.5,2.2-0.7l0,0c0.4-0.3,0.7-0.5,1.2-0.4c0.1,0,0.2,0,0.4,0c0,0,0,0,0,0c0,0,0,0,0,0c-0.1,0-0.2,0.1-0.3,0.2
		c-0.2,0.1-0.3,0.2-0.4,0.3c-0.1,0.1-0.2,0.1-0.3,0.2c-0.1,0.1-0.2,0.1-0.3,0.2c-0.3,0.1-0.4,0.2-0.5,0.4l0,0l0,0
		c-0.1,0.2,0,0.3,0.1,0.5c0.2,0.3,0.5,0.2,0.7,0.2c0.3,0,0.6-0.1,0.9-0.3c0.1-0.1,0.2-0.1,0.2-0.2c0.1-0.1,0.2-0.1,0.3-0.2
		c0,0,0,0,0,0c0.2-0.1,0.5,0,0.8,0.1c0.3,0.1,0.5,0.3,0.8,0.4c0.6,0.4,1,0.9,1.1,1.1c0,0,0,0,0,0c0,0.1,0,0.2-0.1,0.2
		c-0.1,0.1-0.2,0.1-0.3,0.1c0,0,0,0,0,0c-0.2-0.2-0.7-0.8-1.3-1.1c-0.1,0-0.2,0-0.3,0.1C248.8,67.6,248.8,67.7,248.8,67.7
		 M247.3,69.7C247.3,69.7,247.3,69.7,247.3,69.7L247.3,69.7c-0.1,0.1-0.3,0.2-0.5,0.2c0,0,0,0-0.1,0c0,0-0.1,0-0.2-0.1c0,0,0,0,0,0
		c0.1-0.2,0.3-0.4,0.5-0.5c0.3-0.2,0.4-0.1,0.4-0.1c0.1,0.1,0.1,0.1,0.1,0.2C247.5,69.5,247.4,69.6,247.3,69.7L247.3,69.7
		L247.3,69.7z M245.1,68.6c0.3-0.3,0.5-0.3,0.7-0.2c0.1,0,0.1,0.1,0.1,0.1c0,0,0,0,0,0.1c0,0,0,0,0,0c0,0-0.1,0.1-0.1,0.1
		c-0.3,0.2-0.5,0.4-0.5,0.6c0,0,0,0,0,0h0c0,0-0.1,0-0.1,0c-0.2-0.1-0.2-0.2-0.2-0.2C244.9,68.9,245,68.8,245.1,68.6 M244.9,68.3
		c-0.1,0.1-0.3,0.3-0.3,0.5c0,0,0,0,0,0h0c0,0-0.1,0-0.1,0c-0.1,0-0.2-0.1-0.3-0.1c0,0,0-0.1,0-0.2c0.1-0.2,0.5-0.3,0.6-0.3
		c0,0,0,0,0,0c0,0,0.1,0,0.1,0c0,0,0,0,0,0c0,0,0,0,0,0C245,68.2,244.9,68.3,244.9,68.3 M246,69c0.3-0.2,0.5-0.3,0.7-0.2
		c0.1,0,0.1,0.1,0.1,0.1c0,0.1-0.1,0.2-0.2,0.2c-0.2,0.2-0.4,0.3-0.5,0.5c0,0,0,0,0,0c0,0-0.1,0-0.2,0c-0.1,0-0.2,0-0.3-0.1
		c0,0-0.1-0.1-0.1-0.1C245.6,69.3,245.9,69.1,246,69 M249.9,52C249.9,52,249.9,52,249.9,52C249.9,52,249.9,52,249.9,52
		c0.2-0.1,0.3-0.1,0.5-0.1c0.5,0,0.8,0.1,1.1,0.4c0,0,0,0,0,0c0,0,0,0,0,0c-0.1,0-0.2,0.1-0.4,0.1c0,0,0,0-0.1,0
		C250.6,52.4,250.3,52.3,249.9,52 M250.4,52.6h-6c1-0.5,2-0.7,3-0.7C248.5,51.9,249.5,52.1,250.4,52.6 M251.2,51.4
		c-0.1,0.1-0.3,0.1-0.6,0.2c-0.2,0-0.3,0-0.4,0c-0.3,0-0.6-0.1-0.8-0.2c0,0,0,0,0,0c0,0,0,0,0,0c0.1-0.1,0.3-0.1,0.5-0.2
		c0.2-0.1,0.5-0.1,0.7,0C250.8,51.2,251,51.2,251.2,51.4C251.2,51.4,251.2,51.4,251.2,51.4C251.2,51.4,251.2,51.4,251.2,51.4
		 M249.8,50.9c-0.2,0.1-0.4,0.2-0.8,0.2c-0.1,0-0.1,0-0.1,0.1c0,0.1,0,0.1,0,0.1c0,0,0.3,0.2,0.5,0.5c0,0,0,0,0,0c0,0,0,0,0,0
		c-0.4,0-1.1-0.1-1.6-0.7c0,0,0,0,0,0c0.1-0.1,0.2-0.2,0.4-0.3C248.7,50.7,249.2,50.7,249.8,50.9C249.8,50.9,249.8,50.9,249.8,50.9
		C249.8,50.9,249.8,50.9,249.8,50.9 M248.1,50.6c-0.1,0.1-0.4,0.3-0.8,0.4c-0.1,0-0.1,0.1-0.1,0.1c0,0.1,0,0.1,0.1,0.1
		c0,0,0.3,0.1,0.6,0.4c0,0,0,0,0,0c0,0,0,0,0,0c-0.1,0-0.2,0-0.3,0c-0.4,0-0.9-0.1-1.3-0.4c0,0,0,0,0,0c0.1-0.1,0.2-0.2,0.4-0.3
		C247,50.6,247.5,50.5,248.1,50.6C248.1,50.6,248.1,50.6,248.1,50.6C248.1,50.6,248.1,50.6,248.1,50.6 M246.4,50.6
		c-0.1,0.1-0.3,0.3-0.7,0.5c0,0-0.1,0.1-0.1,0.1c0,0.1,0,0.1,0.1,0.1c0,0,0.3,0.1,0.7,0.2c0,0,0,0,0,0c0,0,0,0,0,0
		c-0.1,0.1-0.3,0.1-0.4,0.1c-0.2,0-0.3,0-0.5,0c-0.3,0-0.6-0.1-0.8-0.2c0,0,0,0,0,0c0-0.1,0.1-0.3,0.3-0.4
		C245.3,50.9,245.8,50.7,246.4,50.6C246.4,50.6,246.4,50.6,246.4,50.6C246.4,50.6,246.4,50.6,246.4,50.6 M244.8,50.9L244.8,50.9
		c-0.1,0.2-0.2,0.5-0.6,0.8c0,0-0.1,0.1,0,0.1c0,0,0.1,0.1,0.1,0.1h0c0,0,0.2,0,0.3,0c0.1,0,0.2,0,0.4,0.1c0,0,0,0,0,0c0,0,0,0,0,0
		c-0.1,0.1-0.3,0.1-0.4,0.2c-0.3,0.1-0.5,0.1-0.8,0.1c-0.2,0-0.3,0-0.5-0.1c0,0,0,0,0,0C243.4,52,243.6,51.3,244.8,50.9
		C244.8,50.9,244.8,50.9,244.8,50.9C244.8,50.9,244.8,50.9,244.8,50.9 M251.1,53c0.3,0.2,0.6,0.5,0.9,0.7h-9.3
		c0.3-0.3,0.6-0.5,0.9-0.7H251.1z M252.5,54.2c0.2,0.2,0.4,0.5,0.6,0.7h-4.6c-0.6-0.4-1.3-0.4-1.4-0.4c-0.1,0-0.7,0-1.3,0.4h-4.3
		c0.2-0.3,0.4-0.5,0.6-0.7H252.5z M245.9,59.5c-0.4,0-0.7,0.1-1.1,0.2c0,0,0,0,0,0c0,0,0,0,0,0c0,0,0-0.1,0-0.1
		c0.2-1.1,0.6-1.8,0.9-2.2c0.2-0.3,0.4-0.5,0.6-0.6c0,0,0.1,0,0.1-0.1c0.1-0.1,0.1-0.2,0-0.3c-0.1-0.1-0.2-0.1-0.3,0
		c0,0,0,0-0.1,0.1c-0.2,0.1-0.3,0.2-0.4,0.1c-0.1-0.1-0.1-0.2-0.1-0.3c0-0.2,0.3-0.5,0.4-0.6c0,0,0,0,0,0c0.5-0.6,1.4-0.6,1.4-0.6
		c0,0,0.3,0,0.6,0.1c0.4,0.1,0.8,0.5,1,0.9c0.3,0.7,0.6,1.3,0.8,2c0,0,0,0,0,0c0,0,0,0,0,0c-0.5-0.2-0.9-0.5-0.9-0.5
		c-0.1-0.1-0.2-0.1-0.3,0c-0.1,0.1-0.1,0.2,0,0.3c0,0,0.6,0.5,1.3,0.6c0,0,0,0,0,0c0.1,0.2,0.1,0.5,0.1,0.8c0,0,0,0,0,0c0,0,0,0,0,0
		c-0.2-0.1-0.5-0.2-0.7-0.3c-0.1,0-0.3-0.1-0.4-0.1c-0.5-0.2-0.9-0.5-0.9-0.5c-0.1-0.1-0.2-0.1-0.3,0c-0.1,0.1-0.1,0.2,0,0.3
		c0,0,0.5,0.4,1,0.6c0.1,0.1,0.3,0.1,0.4,0.1c0.6,0.2,0.9,0.3,0.9,0.6v0c0,0.1,0,0.1-0.1,0.1c-0.2,0.2-0.5,0.2-0.7,0.2
		c0,0-0.6,0-0.6,0c-0.1,0-0.7,0-1.2-0.4C246.8,59.7,246.3,59.5,245.9,59.5 M247.1,60.4C247.1,60.4,247.1,60.4,247.1,60.4l-1.8,0
		c-0.2,0-0.3,0-0.4-0.1c0,0,0-0.1-0.1-0.1c0,0,0,0,0,0C245.7,59.8,246,59.7,247.1,60.4C247.1,60.4,247.1,60.4,247.1,60.4 M247.7,62
		h8.2c0,0.3,0,0.5,0,0.8h-8.3V62z M247.7,61.6v-0.7h8.1c0,0.2,0.1,0.5,0.1,0.7H247.7z M250.3,60.5c0.1-0.1,0.1-0.2,0.2-0.3
		c0,0,0,0,0,0c0-0.1,0-0.2,0-0.4h5.1c0.1,0.2,0.1,0.5,0.2,0.7H250.3z M250.4,59.4c0-0.2-0.1-0.5-0.1-0.7h4.9c0,0.1,0,0.1,0.1,0.2
		c0.1,0.2,0.1,0.4,0.2,0.5H250.4z M250.2,58.2c-0.1-0.2-0.1-0.5-0.2-0.7h4.7c0.1,0.2,0.2,0.5,0.3,0.7H250.2z M249.9,57.1
		c-0.1-0.2-0.2-0.5-0.3-0.7h4.6c0.1,0.2,0.3,0.5,0.4,0.7H249.9z M249.5,56c0-0.1-0.1-0.2-0.1-0.3c-0.1-0.2-0.2-0.3-0.3-0.4h4.4
		c0.2,0.2,0.3,0.5,0.5,0.7H249.5z M245.6,55.3c-0.1,0.1-0.4,0.4-0.5,0.7h-4.2c0.2-0.2,0.3-0.5,0.5-0.7H245.6z M245.1,56.4
		c0,0.2,0.1,0.4,0.3,0.5c0,0,0.1,0,0.1,0.1c0,0,0,0,0,0c0,0,0,0,0,0c0,0-0.1,0.1-0.1,0.1h-5.2c0.1-0.2,0.2-0.5,0.4-0.7H245.1z
		 M245.1,57.5c-0.1,0.2-0.2,0.4-0.4,0.7h-5c0.1-0.2,0.2-0.5,0.3-0.7H245.1z M244.6,58.7c-0.1,0.2-0.1,0.5-0.2,0.7h-5
		c0-0.2,0.1-0.4,0.2-0.5c0-0.1,0-0.1,0.1-0.2H244.6z M244.4,59.8c0,0.1,0,0.2,0,0.3c0,0,0,0,0,0c0,0.2,0.1,0.3,0.1,0.4h-5.4
		c0-0.2,0.1-0.5,0.2-0.7H244.4z M247.2,60.9v0.7H239c0-0.2,0.1-0.5,0.1-0.7H247.2z M247.2,62v0.8h-8.3c0-0.3,0-0.5,0-0.8H247.2z
		 M247.2,63.2v1.7c0,0,0,0,0,0c0,0,0,0,0,0c0,0,0,0-0.1,0c-0.5,0-0.8,0.2-1.3,0.5c-0.7,0.4-2.9,0.9-6.6,1.3c0,0,0,0,0,0
		c-0.3-1.1-0.4-2.2-0.4-3.4c0,0,0,0,0-0.1H247.2z M249.8,66.9c-0.4-0.3-1.1-0.8-1.9-0.6c-0.1,0-0.3,0.1-0.4,0.2
		c-0.1,0-0.1,0.1-0.2,0.1c-0.2,0.1-0.5,0.2-0.7,0.2c-0.2,0-0.4,0-0.4-0.1c-0.1-0.1-0.1-0.1,0-0.1l0,0c0,0,0.2-0.1,0.3-0.2
		c0.1-0.1,0.2-0.1,0.3-0.2c0.1-0.1,0.2-0.2,0.3-0.2c0.1-0.1,0.2-0.2,0.4-0.3c0.2-0.2,0.5-0.2,0.8-0.2c0.1,0,0.1,0,0.2,0
		c0,0,0.1,0,0.1,0c0.4,0,0.7,0.1,1.3,0.3c0.2,0.1,0.3,0.1,0.5,0.2c0,0,0,0,0,0c0,0,0.7,0.2,1.7,0.5c0.8,0.2,2.1,0.5,3.3,0.5
		c0,0,0,0,0,0c0,0,0,0,0,0c-0.1,0.2-0.1,0.4-0.2,0.6c-0.2,0.8-0.6,1.5-0.9,2.2c0,0,0,0,0,0h0c-0.6-0.2-2-0.9-3-1.6
		c-0.2-0.1-0.3-0.3-0.4-0.3c0,0,0,0,0,0c0,0,0,0,0,0l0,0c0,0,0,0,0,0C250.8,67.7,250.4,67.3,249.8,66.9 M250.6,65.7
		c-0.2-0.1-0.4-0.1-0.5-0.2c-0.6-0.2-1-0.3-1.4-0.3c0,0-0.1,0-0.1,0c0,0,0,0,0,0c-0.3-0.1-0.5-0.2-0.8-0.3c0,0,0,0,0,0v-1.7h8.3
		c0,0,0,0,0,0.1c0,1.2-0.1,2.3-0.4,3.5c0,0,0,0,0,0l0,0C253.3,66.6,250.7,65.8,250.6,65.7 M256.6,57.8
		C256.6,57.8,256.6,57.8,256.6,57.8C256.6,57.8,256.6,57.8,256.6,57.8c0.1,0.3,0.2,0.6,0.2,0.8c0,0.3,0,0.5-0.1,0.7
		c-0.1,0.3-0.2,0.4-0.3,0.5c0,0,0,0,0,0c0,0,0,0,0,0c-0.3-0.2-0.6-0.5-0.8-1c-0.1-0.1-0.1-0.3-0.1-0.4c0,0,0,0,0,0c0,0,0,0,0,0
		c0.3,0.2,0.5,0.4,0.5,0.4c0,0,0.1,0,0.1,0c0,0,0.1-0.1,0.1-0.1C256.3,58.3,256.5,58,256.6,57.8 M255.7,57.4c0,0,0.1-0.1,0.1-0.1
		c0-0.5,0.1-0.8,0.2-1c0,0,0,0,0,0c0,0,0,0,0,0c0.1,0.3,0.2,0.6,0.2,0.8c0,0.3,0,0.5,0,0.8c-0.1,0.3-0.2,0.5-0.2,0.5c0,0,0,0,0,0
		c0,0,0,0,0,0c-0.4-0.2-0.6-0.5-0.9-0.9c-0.1-0.1-0.1-0.3-0.2-0.4c0,0,0,0,0,0c0,0,0,0,0,0c0.3,0.1,0.6,0.4,0.6,0.4
		C255.6,57.5,255.6,57.5,255.7,57.4L255.7,57.4 M255,56.1c0,0,0.1-0.1,0.1-0.1c-0.1-0.5,0-0.8,0.1-1.1c0,0,0,0,0,0l0,0c0,0,0,0,0,0
		c0.2,0.3,0.3,0.5,0.3,0.8c0.1,0.3,0.1,0.5,0.1,0.7c0,0.3-0.1,0.5-0.2,0.6c0,0,0,0,0,0c0,0,0,0,0,0c-0.4-0.1-0.7-0.4-1-0.8
		c-0.1-0.1-0.2-0.3-0.2-0.4c0,0,0,0,0,0c0,0,0,0,0,0c0.3,0.1,0.6,0.3,0.6,0.3C254.9,56.1,255,56.1,255,56.1 M254,54.8
		c0,0,0.1,0,0.1,0c0,0,0.1-0.1,0-0.1c-0.1-0.4-0.1-0.8-0.1-1.1c0,0,0,0,0,0c0,0,0,0,0,0c0.2,0.2,0.3,0.5,0.4,0.7
		c0.1,0.2,0.2,0.5,0.2,0.7c0,0.3,0,0.5-0.1,0.6c0,0,0,0,0,0l0,0c-0.4-0.1-0.8-0.3-1.1-0.6c-0.1-0.1-0.2-0.2-0.3-0.4c0,0,0,0,0,0
		c0,0,0,0,0,0C253.7,54.6,254,54.8,254,54.8 M253,53.6c0,0,0.1,0,0.1,0c0,0,0-0.1,0-0.1c-0.2-0.4-0.3-0.8-0.2-1c0,0,0,0,0,0
		c0,0,0,0,0,0c0.2,0.2,0.4,0.4,0.6,0.6c0.1,0.2,0.2,0.5,0.3,0.7c0.1,0.3,0,0.5,0,0.6c0,0,0,0,0,0c0,0,0,0,0,0
		c-0.4,0-0.9-0.2-1.1-0.4c-0.1-0.1-0.3-0.2-0.4-0.3c0,0,0,0,0,0c0,0,0,0,0,0C252.7,53.5,253,53.6,253,53.6 M252.6,52.6
		c0.1,0.3,0.1,0.5,0.1,0.7c0,0,0,0,0,0c0,0,0,0-0.1,0c-0.5,0-1.2-0.4-1.5-0.6c0,0,0,0,0,0c0,0,0,0,0,0c0.3-0.1,0.7,0,0.7,0
		c0.1,0,0.1,0,0.1-0.1c0,0,0-0.1,0-0.1c-0.2-0.3-0.3-0.6-0.4-0.8c0,0,0,0,0,0c0,0,0,0,0,0C252.1,51.8,252.5,52.2,252.6,52.6
		 M242.5,51.1C242.5,51.1,242.5,51.1,242.5,51.1C242.5,51.1,242.5,51.1,242.5,51.1c0.1-0.1,0.2-0.1,0.3-0.2c0.3-0.1,0.6-0.2,0.8-0.2
		c0.3-0.1,0.6-0.2,0.6-0.2c0,0,0,0,0,0c0,0,0,0,0,0l-1.8-0.3c0,0,0,0,0,0c0,0,0,0,0,0l1.8-0.3c0,0,0,0,0,0c0,0,0,0,0,0
		c0,0-0.3-0.1-0.7-0.2c-0.1,0-0.2-0.1-0.3-0.1c-0.2-0.1-0.4-0.2-0.7-0.3c0,0,0,0,0,0c0,0,0,0,0,0c0.1,0,0.2,0,0.4,0
		c0.3,0,0.6,0.1,0.8,0.1c0.3,0.1,0.6,0,0.6,0c0,0,0,0,0,0c0,0,0,0,0,0l-1.6-0.9c0,0,0,0,0,0c0,0,0,0,0,0l1.8,0.4c0,0,0,0,0.1,0
		c0,0,0,0,0-0.1c0,0-0.3-0.2-0.6-0.5c-0.1-0.1-0.1-0.2-0.2-0.2c-0.1-0.2-0.3-0.3-0.6-0.5c0,0,0,0,0,0c0,0,0,0,0,0
		c0.1,0,0.2,0.1,0.3,0.1c0.3,0.2,0.6,0.3,0.7,0.4c0.3,0.2,0.6,0.3,0.6,0.3c0,0,0,0,0,0c0,0,0,0,0-0.1l-1.1-1.5c0,0,0,0,0,0
		c0,0,0,0,0,0l1.5,1.1c0,0,0,0,0.1,0c0,0,0,0,0-0.1c0,0-0.2-0.3-0.3-0.7c0-0.1-0.1-0.2-0.1-0.3c-0.1-0.2-0.1-0.4-0.3-0.7
		c0,0,0,0,0,0c0,0,0,0,0,0c0.1,0.1,0.2,0.2,0.3,0.3c0.2,0.3,0.4,0.5,0.5,0.6c0.2,0.3,0.4,0.5,0.4,0.5c0,0,0,0,0.1,0c0,0,0,0,0,0
		l-0.5-1.8c0,0,0,0,0,0c0,0,0,0,0,0l0.9,1.6c0,0,0,0,0.1,0c0,0,0,0,0-0.1c0,0-0.1-0.3-0.1-0.7c0-0.1,0-0.2,0-0.3c0-0.2,0-0.4,0-0.8
		c0,0,0,0,0,0c0,0,0,0,0,0c0.1,0.1,0.1,0.2,0.1,0.3c0.1,0.3,0.2,0.6,0.2,0.8c0.1,0.3,0.2,0.6,0.2,0.6c0,0,0,0,0,0c0,0,0,0,0,0
		l0.3-1.8c0,0,0,0,0,0c0,0,0,0,0,0l0.3,1.8c0,0,0,0,0,0c0,0,0,0,0,0c0,0,0.1-0.4,0.2-0.7c0-0.1,0.1-0.2,0.1-0.3
		c0.1-0.2,0.2-0.4,0.3-0.7c0,0,0,0,0,0c0,0,0,0,0,0c0,0.1,0,0.2,0,0.4c0,0.3-0.1,0.7-0.1,0.8c-0.1,0.4,0,0.6,0,0.6c0,0,0,0,0,0
		c0,0,0,0,0,0l0.9-1.6c0,0,0,0,0,0c0,0,0,0,0,0l-0.4,1.8c0,0,0,0,0,0.1c0,0,0,0,0.1,0c0,0,0.2-0.3,0.5-0.6c0.1-0.1,0.2-0.1,0.2-0.2
		c0.2-0.1,0.3-0.3,0.5-0.6c0,0,0,0,0,0c0,0,0,0,0,0c0,0.1-0.1,0.2-0.1,0.3c-0.1,0.3-0.3,0.6-0.4,0.7c-0.2,0.3-0.3,0.6-0.3,0.6
		c0,0,0,0,0,0c0,0,0,0,0.1,0l1.5-1.1c0,0,0,0,0,0c0,0,0,0,0,0l-1.1,1.5c0,0,0,0,0,0.1c0,0,0,0,0.1,0c0,0,0.3-0.2,0.6-0.3
		c0.1,0,0.2-0.1,0.3-0.1c0.2-0.1,0.4-0.1,0.7-0.3c0,0,0,0,0,0c0,0,0,0,0,0c-0.1,0.1-0.2,0.2-0.3,0.3c-0.3,0.2-0.5,0.4-0.6,0.5
		c-0.3,0.2-0.5,0.4-0.5,0.4c0,0,0,0,0,0.1c0,0,0,0,0,0l1.8-0.5c0,0,0,0,0,0c0,0,0,0,0,0l-1.6,0.9c0,0,0,0,0,0.1c0,0,0,0,0.1,0
		c0,0,0.3-0.1,0.7-0.1c0.1,0,0.2,0,0.3,0c0.2,0,0.4,0,0.8,0c0,0,0,0,0,0c0,0,0,0,0,0c-0.1,0.1-0.2,0.1-0.3,0.1
		c-0.3,0.1-0.6,0.2-0.8,0.2c-0.3,0.1-0.6,0.2-0.6,0.2c0,0,0,0,0,0c0,0,0,0,0,0l1.8,0.3c0,0,0,0,0,0c0,0,0,0,0,0l-1.8,0.3
		c0,0,0,0,0,0c0,0,0,0,0,0c0,0,0.3,0.1,0.7,0.2c0.1,0,0.2,0.1,0.3,0.1c0.2,0.1,0.4,0.2,0.7,0.3c0,0,0,0,0,0c0,0,0,0,0,0
		c-0.1,0-0.1,0-0.2,0c-0.1,0-0.1,0-0.2,0c-0.3,0-0.7-0.1-0.8-0.1c0,0,0,0,0,0c0,0,0,0,0,0c-0.3-0.1-0.6-0.2-0.9-0.2h0c0,0,0,0,0,0
		c0,0,0,0,0,0c0,0,0,0,0,0c0,0,0-0.1-0.1-0.1c-0.3-0.1-0.7-0.2-1-0.2c0,0,0,0,0,0l0,0c0,0,0,0,0,0c0,0,0,0,0,0h0c0,0,0,0,0,0
		c0,0,0,0-0.1,0h0c-0.1,0-0.3,0-0.4,0c0,0,0,0,0,0c0,0,0,0,0,0v0c0,0,0,0,0-0.1c0,0,0,0,0,0c0,0-0.1-0.1-0.1-0.1c0,0-0.1,0-0.1,0
		c0,0,0,0,0,0l0,0c0,0,0,0-0.1,0c0,0,0,0,0,0c0,0,0,0-0.1,0c-0.3,0-0.7,0-0.9,0c-0.1,0-0.2,0-0.2,0.1c0,0,0,0,0,0c0,0,0,0,0,0l0,0
		c0,0,0,0,0,0l0,0c0,0-0.1,0-0.1,0c0,0,0,0,0,0c0,0,0,0,0,0v0l0,0c0,0,0,0,0,0v0c0,0,0-0.1,0-0.1l0,0c0,0,0,0,0,0l0,0
		c0,0-0.1,0-0.1,0c-0.4,0-0.8,0.1-1.2,0.3c-0.1,0-0.2,0.1-0.3,0.2c0,0,0,0,0,0c0,0,0,0,0,0c0,0,0,0,0,0v0v0c0,0,0-0.1,0-0.1l0,0
		c0,0,0,0,0,0h0c0,0,0,0,0,0l0,0c0,0-0.1,0-0.1,0c-0.4,0.1-0.8,0.3-1.1,0.5c0,0,0,0,0,0l0,0c0,0,0,0,0,0c-0.1,0-0.2,0-0.3,0
		c-0.1,0-0.3,0-0.3,0C243,51,242.8,51,242.5,51.1 M243.2,51.5L243.2,51.5C243.2,51.5,243.2,51.5,243.2,51.5
		C243.2,51.5,243.2,51.5,243.2,51.5c0,0.3-0.1,0.6-0.3,1c0,0,0,0.1,0,0.1c0,0,0.1,0.1,0.1,0.1c0,0,0.3-0.1,0.7,0c0,0,0,0,0,0
		c0,0,0,0,0,0c-0.3,0.2-0.9,0.6-1.5,0.6c0,0,0,0-0.1,0c0,0,0,0,0,0C242.1,53,242.2,52.2,243.2,51.5 M241.1,53.8
		c0.1-0.2,0.2-0.5,0.3-0.7c0.1-0.2,0.3-0.4,0.6-0.6c0,0,0,0,0,0c0,0,0,0,0,0c0,0.2,0,0.6-0.2,1c0,0,0,0.1,0,0.1c0,0,0.1,0.1,0.1,0
		c0,0,0.3-0.1,0.7-0.1c0,0,0,0,0,0c0,0,0,0,0,0c-0.1,0.1-0.3,0.2-0.4,0.3c-0.3,0.2-0.7,0.5-1,0.5c0,0,0,0,0,0c0,0,0,0,0,0
		C241,54.3,241,54,241.1,53.8 M240.7,53.6L240.7,53.6C240.7,53.6,240.7,53.6,240.7,53.6C240.7,53.6,240.7,53.6,240.7,53.6
		c0.1,0.2,0.1,0.6,0,1.1c0,0.1,0,0.1,0,0.1c0,0,0.1,0,0.1,0c0,0,0.3-0.2,0.7-0.2c0,0,0,0,0,0c0,0,0,0,0,0c-0.2,0.3-0.7,0.9-1.4,1h0
		c0,0,0,0,0,0C240,55.3,239.9,54.5,240.7,53.6 M239.3,55.6c0.1-0.3,0.2-0.5,0.4-0.8c0,0,0,0,0,0c0,0,0,0,0,0
		c0.1,0.2,0.1,0.6,0.1,1.1c0,0.1,0,0.1,0.1,0.1c0,0,0.1,0,0.1,0c0,0,0.3-0.3,0.6-0.3c0,0,0,0,0,0c0,0,0,0,0,0
		c-0.1,0.1-0.1,0.3-0.3,0.4c-0.3,0.4-0.6,0.6-1,0.8c0,0,0,0,0,0c0,0,0,0,0,0c0-0.1-0.1-0.3-0.1-0.6
		C239.2,56.2,239.3,55.9,239.3,55.6 M238.6,57.1c0-0.3,0.1-0.5,0.2-0.8c0,0,0,0,0,0c0,0,0,0,0,0c0.1,0.2,0.2,0.6,0.2,1.1
		c0,0,0,0.1,0.1,0.1c0,0,0.1,0,0.1,0c0,0,0.3-0.3,0.6-0.4c0,0,0,0,0,0c0,0,0,0,0,0c0,0.1-0.1,0.3-0.1,0.4c-0.2,0.4-0.5,0.7-0.9,0.9
		c0,0,0,0,0,0c0,0,0,0,0,0c-0.1-0.1-0.2-0.3-0.2-0.5C238.6,57.6,238.6,57.3,238.6,57.1 M238.2,57.8
		C238.2,57.8,238.2,57.7,238.2,57.8C238.2,57.7,238.2,57.7,238.2,57.8c0.2,0.2,0.3,0.5,0.4,1c0,0.1,0,0.1,0.1,0.1c0,0,0.1,0,0.1,0
		c0,0,0.2-0.3,0.6-0.5c0,0,0,0,0,0c0,0,0,0,0,0c0,0.1,0,0.3-0.1,0.4c-0.1,0.4-0.4,0.8-0.8,1.1c0,0,0,0,0,0c0,0,0,0,0,0
		c-0.1-0.1-0.2-0.2-0.3-0.5c-0.1-0.2-0.1-0.5-0.1-0.7C238.1,58.3,238.1,58,238.2,57.8 M237.7,59.3L237.7,59.3
		C237.7,59.3,237.7,59.3,237.7,59.3C237.8,59.3,237.8,59.3,237.7,59.3c0.2,0.2,0.4,0.5,0.5,1c0,0,0,0.1,0.1,0.1c0,0,0.1,0,0.1-0.1
		c0,0,0.2-0.3,0.5-0.5c0,0,0,0,0,0c0,0,0,0,0,0c0,0.1,0,0.3-0.1,0.4c-0.1,0.5-0.3,0.8-0.7,1.1c0,0,0,0,0,0c0,0,0,0,0,0
		c-0.1-0.1-0.2-0.2-0.3-0.5c-0.1-0.2-0.2-0.5-0.2-0.7C237.7,59.9,237.7,59.6,237.7,59.3 M237.5,60.9
		C237.5,60.9,237.5,60.9,237.5,60.9C237.5,60.9,237.5,60.9,237.5,60.9c0.2,0.2,0.4,0.5,0.5,0.9c0,0.1,0.1,0.1,0.1,0.1
		c0.1,0,0.1,0,0.1-0.1c0,0,0.2-0.3,0.4-0.5c0,0,0,0,0,0c0,0,0,0,0,0c0,0.2,0,0.3,0,0.5c-0.1,0.5-0.3,0.9-0.6,1.1c0,0,0,0,0,0
		c0,0,0,0,0,0c-0.1,0-0.2-0.2-0.4-0.4c-0.1-0.2-0.2-0.4-0.2-0.7C237.5,61.5,237.5,61.2,237.5,60.9 M237.4,62.5L237.4,62.5
		C237.4,62.5,237.4,62.5,237.4,62.5C237.4,62.5,237.4,62.5,237.4,62.5c0.1,0,0.1,0.1,0.1,0.1c0.1,0.2,0.3,0.4,0.5,0.8
		c0,0.1,0.1,0.1,0.1,0.1c0,0,0,0,0,0c0.1,0,0.1,0,0.1-0.1c0,0,0.1-0.3,0.3-0.6c0,0,0,0,0,0c0,0,0,0,0,0c0,0.2,0.1,0.5,0,0.8
		c-0.1,0.4-0.2,0.7-0.5,0.9c0,0,0,0,0,0c0,0,0,0,0,0C237.9,64.3,237.3,63.8,237.4,62.5 M237.3,64.1
		C237.3,64.1,237.3,64.1,237.3,64.1c0.1,0,0.1,0.1,0.1,0.1c0.2,0.1,0.4,0.4,0.6,0.8c0,0,0.1,0.1,0.1,0.1l0,0v0c0.1,0,0.1,0,0.1-0.1
		c0,0,0.1-0.4,0.4-0.6c0,0,0,0,0,0c0,0,0,0,0,0c0.1,0.3,0.1,1-0.4,1.7c0,0,0,0,0,0c0,0,0,0,0,0C238,65.9,237.4,65.4,237.3,64.1
		C237.3,64.1,237.3,64.1,237.3,64.1 M237.4,65.8L237.4,65.8C237.4,65.8,237.4,65.8,237.4,65.8C237.4,65.8,237.4,65.8,237.4,65.8
		c0.2,0.1,0.6,0.3,0.8,0.7c0,0,0.1,0.1,0.1,0.1c0,0,0.1,0,0.1-0.1v0c0,0,0.1-0.4,0.3-0.7c0,0,0,0,0,0l0,0c0,0,0,0,0,0
		c0.1,0.1,0.1,0.3,0.1,0.4c0.1,0.5,0,0.9-0.2,1.3c0,0,0,0,0,0c0,0,0,0,0,0c-0.1,0-0.3-0.1-0.5-0.3c-0.2-0.2-0.3-0.4-0.5-0.6
		C237.6,66.3,237.5,66.1,237.4,65.8 M237.8,67.3L237.8,67.3C237.8,67.3,237.8,67.3,237.8,67.3C237.8,67.3,237.8,67.3,237.8,67.3
		c0.1,0,0.1,0,0.1,0c0.2,0.1,0.5,0.3,0.7,0.6c0,0,0.1,0.1,0.1,0c0,0,0.1-0.1,0.1-0.1c0,0,0.1-0.4,0.2-0.7c0,0,0,0,0,0c0,0,0,0,0,0
		c0.2,0.3,0.4,1,0.1,1.7c0,0,0,0,0,0c0,0,0,0,0,0C238.8,68.8,238.1,68.5,237.8,67.3 M238.7,69.6c-0.2-0.2-0.3-0.5-0.4-0.7
		c0,0,0,0,0,0c0,0,0,0,0,0c0,0,0.1,0,0.1,0c0.2,0.1,0.5,0.2,0.8,0.5c0,0,0.1,0,0.1,0c0,0,0.1-0.1,0.1-0.1c0,0,0-0.4,0.1-0.7
		c0,0,0,0,0,0c0,0,0,0,0,0c0.1,0.1,0.1,0.3,0.2,0.4c0.2,0.4,0.2,0.9,0.1,1.3c0,0,0,0,0,0h0c-0.1,0-0.3-0.1-0.5-0.2
		C239,70,238.9,69.8,238.7,69.6 M238.9,70.3C238.9,70.3,238.9,70.3,238.9,70.3C238.9,70.3,238.9,70.3,238.9,70.3
		c0.3,0,0.6,0.1,1,0.4c0,0,0.1,0,0.1,0c0,0,0.1-0.1,0.1-0.1c0,0,0-0.3,0-0.7c0,0,0,0,0,0c0,0,0,0,0,0c0.1,0.1,0.2,0.3,0.2,0.4
		c0.1,0.3,0.3,0.8,0.2,1.2c0,0,0,0,0,0c-0.1,0-0.3,0-0.6-0.1c-0.2-0.1-0.4-0.2-0.6-0.4C239.2,70.8,239.1,70.6,238.9,70.3
		 M240.3,72.3c-0.2-0.2-0.4-0.4-0.6-0.6c0,0,0,0,0,0c0,0,0,0,0,0c0.2,0,0.6,0.1,1,0.3c0,0,0.1,0,0.1,0c0,0,0.1-0.1,0-0.1
		c0,0-0.1-0.3,0-0.7c0,0,0,0,0,0c0,0,0,0,0,0c0.3,0.3,0.7,0.9,0.6,1.6c0,0,0,0,0,0c0,0,0,0-0.1,0c-0.1,0-0.3,0-0.5-0.1
		C240.7,72.6,240.5,72.5,240.3,72.3 M242.6,73.8c0,0-0.1,0-0.2,0c-0.1,0-0.2,0-0.3,0c-0.4-0.1-0.9-0.4-1.4-0.8c0,0,0,0,0,0
		c0,0,0,0,0,0c0.2,0,0.6,0,1.1,0.1c0,0,0.1,0,0.1,0c0,0,0-0.1,0-0.1c0,0-0.1-0.3-0.2-0.7c0,0,0,0,0,0c0,0,0,0,0,0
		C242.1,72.6,242.6,73.1,242.6,73.8C242.6,73.8,242.6,73.8,242.6,73.8 M245.6,75.1c-0.4-0.1-0.7-0.2-1-0.4c-0.6-0.2-1.2-0.6-1.7-1
		c0,0,0,0,0,0c0-0.2,0-0.4-0.1-0.6c0,0,0,0,0,0c0,0,0,0,0,0c0.4,0.3,0.8,0.6,1.2,0.8c0.5,0.3,0.9,0.5,1.4,0.6v0l0.1,0
		C245.5,74.9,245.6,75,245.6,75.1L245.6,75.1z M246.4,74.8c-0.1,0.2-0.1,0.4,0,0.5c0,0,0,0,0,0c0,0,0,0,0,0c0,0,0,0,0,0
		c-0.2-0.1-0.4-0.2-0.5-0.3c-0.1-0.1-0.1-0.2-0.1-0.4c0-0.1,0.1-0.2,0.1-0.2c0.1-0.1,0.4-0.1,0.7-0.1c0,0,0,0,0,0c0,0,0,0,0,0
		C246.6,74.5,246.5,74.6,246.4,74.8 M247.4,76.4c-0.2,0-0.4-0.2-0.4-0.4c0-0.2,0.2-0.4,0.4-0.4c0.2,0,0.4,0.2,0.4,0.4
		C247.9,76.2,247.7,76.4,247.4,76.4 M248,75.3C248,75.4,247.9,75.4,248,75.3c-0.2-0.1-0.3-0.2-0.5-0.2c-0.2,0-0.4,0.1-0.5,0.2
		c0,0,0,0,0,0c0,0,0,0,0,0c-0.1-0.1-0.2-0.3-0.2-0.5c0.1-0.4,0.7-0.4,0.7-0.4l0,0c0,0,0.2,0,0.3,0c0.2,0.1,0.3,0.2,0.4,0.3
		C248.2,75,248.1,75.2,248,75.3 M248.9,75c-0.1,0.1-0.3,0.2-0.5,0.3c0,0,0,0,0,0c0,0,0,0,0,0c0,0,0,0,0,0c0.1-0.2,0.1-0.4,0-0.5
		c-0.1-0.2-0.2-0.3-0.3-0.4c0,0,0,0,0,0c0,0,0,0,0,0c0.2,0,0.5,0,0.7,0.1c0.1,0.1,0.1,0.1,0.1,0.2C249,74.8,249,74.9,248.9,75
		 M252,73.8C252,73.8,252,73.8,252,73.8c-0.1,0.1-0.6,0.4-1.3,0.8c-0.5,0.2-1,0.4-1.5,0.6l-0.1,0c0.1-0.1,0.1-0.3,0.1-0.5l0.1,0v0
		c0.5-0.1,1-0.4,1.4-0.6c0.4-0.2,0.8-0.6,1.2-0.9c0,0,0,0,0,0c0,0,0,0,0,0C252,73.4,252,73.6,252,73.8 M250.7,73.8
		c-0.5,0.3-0.9,0.5-1.4,0.6l0,0c0-0.1-0.1-0.2-0.2-0.2c-0.5-0.3-1.4-0.1-1.6,0c0,0,0,0,0,0c-0.3-0.1-1.1-0.3-1.6,0
		c-0.1,0.1-0.2,0.1-0.2,0.2l-0.1,0c-0.5-0.1-0.9-0.3-1.4-0.6c-1-0.6-1.9-1.4-2.7-2.4c-0.3-0.4-0.5-0.7-0.8-1.2c0,0,0,0,0,0
		c0,0,0,0,0,0c0.5-0.2,1.9-0.9,3.1-1.5c0,0,0,0,0,0c0,0,0,0,0,0c0,0.1,0,0.1,0,0.2c0.1,0.2,0.4,0.3,0.6,0.3c0.1,0,0.1,0,0.2,0
		c0,0,0,0,0,0c0.1,0.2,0.2,0.3,0.5,0.4c0.1,0,0.2,0,0.3,0.1c0,0,0,0,0,0c0,0.1,0.1,0.2,0.2,0.3c0.2,0.2,0.6,0.1,0.7,0.1c0,0,0,0,0,0
		c0.1,0.1,0.2,0.2,0.4,0.2c0.2,0,0.3,0,0.5-0.1c0,0,0,0,0,0c0,0,0,0,0,0v2.1c0,0.1,0.1,0.3,0.3,0.3c0.1,0,0.3-0.1,0.3-0.3v-2.2
		c0,0,0,0,0,0c0,0,0,0,0,0c0.3,0.1,0.5,0,0.7-0.1c0.1-0.1,0.2-0.1,0.3-0.2c0,0,0,0,0,0c0.3,0,0.5,0,0.7-0.2c0.1-0.1,0.1-0.1,0.1-0.2
		c0,0,0,0,0,0l0,0c0,0,0,0,0.1,0c0.3,0,0.5-0.1,0.7-0.3c0.1-0.1,0.1-0.1,0.1-0.2c0,0,0,0,0,0c0.2,0,0.4-0.1,0.5-0.2
		c0.1-0.1,0.1-0.1,0.2-0.2c0,0,0,0,0,0c0,0,0,0,0,0c1,0.8,2.5,1.4,3.1,1.7c0,0,0,0,0,0c0,0,0,0,0,0c-0.2,0.4-0.5,0.7-0.7,1.1
		C252.7,72.4,251.8,73.2,250.7,73.8 M254.2,73L254.2,73c-0.6,0.5-1,0.7-1.4,0.8c-0.1,0-0.2,0-0.3,0c-0.1,0-0.2,0-0.2,0c0,0,0,0,0,0
		c0-0.4,0.1-0.8,0.5-1.2c0.1-0.1,0.2-0.2,0.3-0.3c0,0,0,0,0,0c0,0,0,0,0,0c0,0.3-0.2,0.7-0.2,0.7c0,0,0,0.1,0,0.1c0,0,0.1,0,0.1,0
		C253.5,73,253.9,73,254.2,73C254.2,73,254.2,73,254.2,73C254.2,73,254.2,73,254.2,73 M255.2,71.7c-0.2,0.2-0.4,0.5-0.6,0.6
		c-0.2,0.2-0.4,0.3-0.7,0.4c-0.2,0.1-0.4,0.1-0.5,0.1c0,0,0,0-0.1,0c0,0,0,0,0,0c0-0.4,0.1-0.8,0.3-1.2c0.1-0.1,0.2-0.3,0.3-0.4
		c0,0,0,0,0,0c0,0,0,0,0,0c0,0.3,0,0.7,0,0.7c0,0.1,0,0.1,0.1,0.1c0,0,0.1,0,0.1,0C254.5,71.8,254.9,71.7,255.2,71.7
		C255.1,71.7,255.2,71.7,255.2,71.7C255.2,71.7,255.2,71.7,255.2,71.7 M256,70.3c-0.2,0.3-0.3,0.5-0.5,0.7c-0.2,0.2-0.4,0.3-0.6,0.4
		c-0.3,0.1-0.5,0.1-0.6,0.1c0,0,0,0,0,0c-0.1-0.4,0-0.8,0.2-1.2c0.1-0.1,0.1-0.3,0.2-0.4c0,0,0,0,0,0c0,0,0,0,0,0
		c0.1,0.3,0,0.7,0,0.7c0,0.1,0,0.1,0.1,0.1c0,0,0.1,0,0.1,0C255.3,70.4,255.7,70.3,256,70.3C256,70.3,256,70.3,256,70.3
		C256,70.3,256,70.3,256,70.3 M256.6,68.8L256.6,68.8c-0.1,0.3-0.3,0.5-0.4,0.8c-0.2,0.2-0.4,0.4-0.6,0.5c-0.2,0.1-0.4,0.2-0.5,0.2
		h0c0,0,0,0,0,0c-0.1-0.4-0.1-0.8,0.1-1.3c0-0.1,0.1-0.3,0.2-0.4c0,0,0,0,0,0c0,0,0,0,0,0c0.1,0.3,0.1,0.7,0.1,0.7
		c0,0.1,0,0.1,0.1,0.1c0,0,0.1,0,0.1,0l0,0c0.3-0.3,0.6-0.5,0.8-0.5C256.5,68.8,256.6,68.8,256.6,68.8
		C256.6,68.8,256.6,68.8,256.6,68.8C256.6,68.8,256.6,68.8,256.6,68.8 M257.1,67.3L257.1,67.3c-0.1,0.3-0.2,0.6-0.4,0.8
		c-0.1,0.2-0.3,0.4-0.5,0.6c-0.2,0.2-0.4,0.2-0.5,0.3c0,0,0,0,0,0c0,0,0,0,0,0c-0.2-0.5-0.1-0.9-0.1-1.3c0-0.1,0.1-0.3,0.1-0.4
		c0,0,0,0,0,0c0,0,0,0,0,0c0.1,0.3,0.2,0.7,0.2,0.7c0,0,0,0.1,0.1,0.1c0,0,0.1,0,0.1,0C256.5,67.6,256.9,67.4,257.1,67.3
		C257.1,67.3,257.1,67.3,257.1,67.3C257.1,67.3,257.1,67.3,257.1,67.3 M257.2,66.5c-0.1,0.2-0.3,0.4-0.4,0.6
		c-0.2,0.2-0.4,0.3-0.5,0.3c0,0,0,0,0,0c0,0,0,0,0,0c-0.2-0.4-0.3-0.8-0.2-1.3c0-0.1,0.1-0.3,0.1-0.4c0,0,0,0,0,0c0,0,0,0,0,0
		c0.2,0.3,0.3,0.7,0.3,0.7c0,0,0.1,0.1,0.1,0.1c0,0,0.1,0,0.1-0.1c0.2-0.4,0.6-0.6,0.8-0.7c0,0,0,0,0,0c0,0,0,0,0,0
		C257.4,66,257.3,66.3,257.2,66.5"/>
</g>
<text transform="matrix(1 0 0 1 504.8237 -21.2354)" style="font-family:'MyriadPro-Regular'; font-size:12px;">Lorem ipsum</text>
</svg>
