<?xml version="1.0" encoding="utf-8"?>
<!-- Generator: Adobe Illustrator 24.3.0, SVG Export Plug-In . SVG Version: 6.00 Build 0)  -->
<svg version="1.1" id="Capa_1" xmlns="http://www.w3.org/2000/svg" xmlns:xlink="http://www.w3.org/1999/xlink" x="0px" y="0px"
	 viewBox="0 0 632.6 412.9" style="enable-background:new 0 0 632.6 412.9;" xml:space="preserve">
<style type="text/css">
	.st0{fill:#FF6EAE;}
	.st1{fill:#82502E;}
	.st2{fill:#311326;}
	.st3{fill:none;stroke:#311326;stroke-width:0.8934;stroke-linecap:round;stroke-linejoin:round;stroke-miterlimit:10;}
	.st4{clip-path:url(#XMLID_2_);fill:#FF76C5;}
	.st5{clip-path:url(#XMLID_2_);fill:#FFFFFF;}
	.st6{opacity:0.11;fill:#FFFFFF;}
	.st7{fill:none;stroke:#FFFFFF;stroke-width:1.2607;stroke-linecap:round;stroke-linejoin:round;stroke-miterlimit:10;}
	.st8{fill:#BF5180;}
	.st9{fill:#FFB076;}
	.st10{fill:none;stroke:#9B3666;stroke-width:1.7;stroke-linecap:round;stroke-linejoin:round;stroke-miterlimit:10;}
	.st11{fill:#F9FAFC;}
	.st12{fill:#FFA405;}
	.st13{fill:#FF974D;}
	.st14{fill:none;stroke:#EC7600;stroke-width:1.7484;stroke-linecap:round;stroke-linejoin:round;stroke-miterlimit:10;}
	.st15{fill:none;stroke:#FB7928;stroke-width:1.6;stroke-linecap:round;stroke-linejoin:round;stroke-miterlimit:10;}
	.st16{fill:#8A331F;}
	.st17{fill:#7B2616;}
	.st18{fill:#FF8031;}
	.st19{fill:#101010;}
	.st20{fill:none;stroke:#311326;stroke-width:0.9831;stroke-linecap:round;stroke-linejoin:round;stroke-miterlimit:10;}
	.st21{fill:#20120C;}
	.st22{fill:#FFFFFF;}
	.st23{fill:#FF83BB;}
	.st24{fill:#FF6B21;}
	.st25{fill:#FFAC78;}
	.st26{fill:#FFB988;}
	.st27{fill:none;stroke:#311326;stroke-width:0.8729;stroke-linecap:round;stroke-linejoin:round;stroke-miterlimit:10;}
	.st28{fill:none;stroke:#DBDBDB;stroke-width:1.7484;stroke-linecap:round;stroke-linejoin:round;stroke-miterlimit:10;}
	.st29{fill:none;stroke:#FFA46A;stroke-width:1.6;stroke-linecap:round;stroke-linejoin:round;stroke-miterlimit:10;}
	.st30{fill:#9E4C3E;}
	.st31{fill:#AD5E4C;}
	.st32{fill:none;stroke:#311326;stroke-width:1.012;stroke-linecap:round;stroke-linejoin:round;stroke-miterlimit:10;}
	.st33{clip-path:url(#XMLID_3_);fill:#FF76C5;}
	.st34{fill:none;stroke:#FF3D93;stroke-width:1.7;stroke-linecap:round;stroke-linejoin:round;stroke-miterlimit:10;}
	.st35{fill:#DDDDDD;}
	.st36{enable-background:new    ;}
</style>
<g>
	<g>
		<g>
			<path class="st0" d="M242.5,157.2c0,0,2.1,13-1.3,16.4c-6.5,6.5-26.6,9.6-16,37.5h92.3c0,0,4.6-11.1-5.7-17.6
				c0,0-3.6-2.5-1.4-10.1c2.2-7.5-3.3-12.9-10-21L287.1,141L242.5,157.2z"/>
			<ellipse class="st0" cx="273.9" cy="155.2" rx="31.5" ry="30.1"/>
			
				<ellipse transform="matrix(0.8694 -0.4941 0.4941 0.8694 -42.8253 171.0402)" class="st1" cx="302.2" cy="166.5" rx="8.2" ry="8.2"/>
			<polygon class="st1" points="284.8,185.5 284,221.7 257.8,220.2 263.2,167 			"/>
			<path class="st2" d="M284.5,196.6c0,0-11.7-1.2-12.2-14.5l12.4,6.6L284.5,196.6z"/>
			<path class="st1" d="M300.1,137.4c2.1,1.7,3.4,4.2,3.9,6.8c1.6,7.8,4.6,21.6,1.9,29.8c-3.6,10.8-12.3,18.4-26.5,15.7
				c0,0-16.9-1.7-20.4-23.2C253.4,132.4,282.5,122.5,300.1,137.4z"/>
			<g>
				<path class="st2" d="M301,160.8c0.3,1,1.3,1.6,2.3,1.3c1-0.3,1.6-1.3,1.3-2.3c-0.3-1-1.3-1.6-2.3-1.3
					C301.4,158.8,300.8,159.8,301,160.8z"/>
				<path class="st2" d="M285.3,161.1c0.3,1,1.3,1.6,2.3,1.3c1-0.3,1.6-1.3,1.3-2.3c-0.3-1-1.3-1.6-2.3-1.3
					C285.6,159.1,285,160.1,285.3,161.1z"/>
				<path class="st3" d="M297.4,165.3l1.3,3.5c0.1,0.4-0.2,0.9-0.6,1l-2,0.4"/>
				<path class="st2" d="M283.9,146.1c0,0,5.8-1,6.1,1.6c0,0,0.2,1.8-4.9,2.6c-5.1,0.8-7.1,0.7-7.7-1
					C276.7,147.7,281.1,146.4,283.9,146.1z"/>
				<path class="st2" d="M305,146.2c0,0-5-1.1-5.8,1.4c0,0-0.5,1.7,4,2.6c3.2,0.6,4.4,0.1,4.8-1.1
					C308.3,147.8,306.9,146.5,305,146.2z"/>
				<g>
					<defs>
						<path id="XMLID_5_" d="M300.2,173.1l-14.3,0.2c0,0,0.3,6.2,6.9,6.2C299.4,179.4,300.2,173.1,300.2,173.1z"/>
					</defs>
					<use xlink:href="#XMLID_5_"  style="overflow:visible;fill:#20120C;"/>
					<clipPath id="XMLID_2_">
						<use xlink:href="#XMLID_5_"  style="overflow:visible;"/>
					</clipPath>
					<path class="st4" d="M285.4,183.4c1.2,2.5,4.2,3.6,6.7,2.5c2.5-1.2,3.6-4.2,2.5-6.7c-1.2-2.5-4.2-3.6-6.7-2.5
						C285.3,177.9,284.2,180.9,285.4,183.4z"/>
					<polygon class="st5" points="301.2,175 284.9,175 284.9,172.2 301.2,171.7 					"/>
				</g>
				<g>
					<path class="st6" d="M293.9,160.3c-0.1,5.6-4.6,10.1-10,10c-5.5-0.1-9.9-4.6-9.8-10.2c0.1-5.6,4.6-10.1,10-10
						C289.5,150.1,293.9,154.7,293.9,160.3z"/>
					
						<ellipse transform="matrix(1.154093e-02 -0.9999 0.9999 1.154093e-02 143.5938 466.0513)" class="st6" cx="307.5" cy="160.4" rx="9.7" ry="8.5"/>
					<path class="st7" d="M293.9,160.3c-0.1,5.6-4.6,10.1-10,10c-5.5-0.1-9.9-4.6-9.8-10.2c0.1-5.6,4.6-10.1,10-10
						C289.5,150.1,293.9,154.7,293.9,160.3z"/>
					
						<ellipse transform="matrix(1.154093e-02 -0.9999 0.9999 1.154093e-02 143.5938 466.0513)" class="st7" cx="307.5" cy="160.4" rx="9.7" ry="8.5"/>
					<path class="st7" d="M293.9,160.3c0,0,2.2-2.5,5.2,0"/>
					<line class="st7" x1="274" y1="160.1" x2="265.2" y2="163.5"/>
				</g>
			</g>
			<path class="st0" d="M261,161.2c1.3,0.6,26-14.3,13.5-30.5c0,0-18.8,4.4-17.7,30.5L261,161.2z"/>
			<path class="st0" d="M276.6,136.6c0,0,16.6-4.1,26.3,4.2c0,0-4.7-15-27.5-15.7l-8.6,19.1L276.6,136.6z"/>
			
				<ellipse transform="matrix(0.9736 -0.2284 0.2284 0.9736 -21.9799 60.3535)" class="st0" cx="249.8" cy="125.2" rx="12.7" ry="12.7"/>
			<polygon class="st0" points="266.2,152.7 264.6,169.7 258.7,154.1 			"/>
			<g>
				<path class="st1" d="M246.8,171.5c1.6,5.2,7.1,8.2,12.3,6.6c5.2-1.6,8.2-7.1,6.6-12.3c-1.6-5.2-7.1-8.2-12.3-6.6
					C248.2,160.7,245.2,166.2,246.8,171.5z"/>
				<path class="st3" d="M251.8,165.7c0,0,7.3-2.1,9.2,5.9"/>
			</g>
		</g>
		<g>
			<g>
				<path class="st8" d="M308,226.2c0,0,14.1,8.4,14.1,30.2v62.5c0,7.8-5.6,14.4-13.3,15.6l0,0c-9.6,1.6-18.3-5.8-18.3-15.5
					l-0.6-82.3L308,226.2z"/>
				<g>
					<path class="st1" d="M358.7,278.4l6.8,8.8l-52,46.3c-6.6,4.9-16.1,2.3-19.3-5.3l0,0c-2.7-6.3,0-13.6,6.2-16.6L358.7,278.4z"/>
					<g>
						<path class="st9" d="M358.7,278.4l3.7-6.4c1.9-3.4,4.6-6.2,7.9-8.3l5.7-3.7c1.4-0.9,3.2-0.3,3.8,1.1v0
							c0.5,1.3,0.3,2.7-0.7,3.7l-5.1,5.2l27.3-7.8c1.2-0.4,2.4,0.4,2.6,1.6l0.1,0.8c0.2,1-0.4,1.9-1.3,2.2l-16,5.1l19.2-3.4
							c1.2-0.3,2.4,0.5,2.5,1.7l0.1,0.6c0.1,1-0.5,2-1.5,2.2l-19.9,4.1l16.5-0.3c1.3-0.1,2.3,1.1,2.1,2.4l0,0.3
							c-0.2,0.9-0.9,1.5-1.7,1.7l-17.1,2.2l10.5,0c1.5,0,2.5,1.6,1.8,2.9l0,0c-0.3,0.6-0.9,1.1-1.6,1.1l-38.3,3.5L358.7,278.4z"/>
					</g>
				</g>
			</g>
			<g>
				<path class="st8" d="M246.4,217.1c0,0-25.8,5.6-35.7,29.7c-9.9,24.1-3,106.8-3,106.8s49.2,23.1,92.1-2.9l8.3-124.4
					c0,0-9.6-6.9-17.4-11.3L246.4,217.1z"/>
				<path class="st1" d="M266.2,209.4c0,0-7.2,1.6-19.8,7.7c0,0,18.8,14.6,33.6,32.2c0,0,11.6-11.9,10.5-34.3l-14.7-5.5H266.2z"/>
				<line class="st10" x1="306.1" y1="255.4" x2="302.5" y2="308.9"/>
			</g>
		</g>
	</g>
	<g>
		<g>
			<g>
				<path class="st11" d="M258.5,69.8h-40.7c-12.3,0-22.2-10-22.2-22.2V36.2c0-12.3,10-22.2,22.2-22.2h40.7
					c12.3,0,22.2,10,22.2,22.2v11.4C280.7,59.9,270.8,69.8,258.5,69.8z"/>
			</g>
			<path class="st11" d="M245.6,64.7l12.1,15.3c1.3,1.7,4,0.3,3.4-1.7l-4.2-15.9L245.6,64.7z"/>
		</g>
	</g>
</g>
<g>
	<g>
		<g>
			<path class="st11" d="M139,359.3c0,0,32.8,6.6,59.6-6.5l8.9-112.6l-31.9-32.5l-31.6-6.7l-17.4,63.3L139,359.3z"/>
			<g>
				<path class="st12" d="M144.1,201c0,0,4.6,112.4,3.4,168l-24.3-2.9c-12.9-1.5-22.5-12.6-22.1-25.6l2.5-86.5l2.8-37.4
					c0.2-3.2,2.3-6.1,5.3-7.3C118.1,206.8,130.1,202.6,144.1,201z"/>
				<g>
					<path class="st13" d="M60.9,324.5l-8.7,15.2c0,0-17.1,1.1-32.8,8.5c-0.8,0.4-1.3,1.3-1.2,2.3l0,0c0.2,1.3,1.5,2.1,2.7,1.7
						l11.7-3.5c0,0-11.5,4.7-20.4,9.8c-1.2,0.7-1.7,2.2-1.1,3.4l0,0c0.6,1.3,2.1,1.9,3.4,1.4l19-7.4l-17.7,9.8
						c-1.4,0.8-1.9,2.5-1.2,3.9l0,0c0.7,1.4,2.5,2,3.9,1.3l17.1-8.3l-13.4,9.4c-1.7,1.2-1.9,3.7-0.4,5.2h0c1.1,1.1,2.9,1.3,4.2,0.4
						c5.3-3.5,18.5-11.6,27.1-11.3c0,0-2.1,3.3-5.7,6.7c-1.7,1.7-1.6,4.5,0.4,5.9l0,0c1.3,1,3.1,1,4.4,0l10.1-7
						c1.9-1.3,3.3-3.3,3.9-5.5l3.4-12.2l14.6-13.8L60.9,324.5z"/>
					<g>
						<path class="st12" d="M112.9,208.8c0,0-4.7-0.3-20,19.4c-15.8,20.3-43.3,110.7-43.3,110.7l27.6,20.9l46.8-101.9L112.9,208.8z"
							/>
						<line class="st14" x1="102.6" y1="304.6" x2="118.9" y2="269.1"/>
					</g>
				</g>
			</g>
			<g>
				<g>
					<path class="st12" d="M199.5,210.4c0,0,24.2,7.5,33.3,96.7l-19.6,13.9L199.5,210.4z"/>
					<g>
						<g>
							<g>
								<g>
									<path class="st13" d="M281.6,275.6c0,0-8.8-6.8-0.6-18.2l12.3-17.8c1.1-1.6,3.4-1.8,4.8-0.5l0,0c1,0.9,1.3,2.3,0.8,3.5
										l-3.8,10.5l23.4-15.8c1.7-1.3,4.2-0.7,5.1,1.2l0,0c0.8,1.5,0.4,3.3-0.9,4.3l-15,11.7l0.3,0.9l17.3-9.8
										c1.9-0.9,4.1,0.2,4.6,2.3l0,0c0.4,1.5-0.4,3.1-1.8,3.8l-16.7,10.7l0.2,1.2l16.3-7c4-1.9,5.3,0,5.7,1.4l0,0
										c0.4,1.4-2.7,3.3-4,3.7l-16.8,8.5l0.2,1.1l15.6-6c1.5-0.2,2.8,1,2.7,2.6l0,0c-0.1,1.1-0.9,2-2,2.2l-17.8,7.6
										c0,0-16.3,11.1-23.6,4.8L281.6,275.6z"/>
									<path class="st15" d="M295.1,253.2c0,0,5.1,9.2-1.1,17.3"/>
								</g>
							</g>
							<polygon class="st13" points="256.6,277.1 283.4,265.8 295,282 265,298.2 							"/>
						</g>
						<g>
							<g>
								<g>
									<path class="st12" d="M203.3,293.5l67.7-27.4l13.6,29.4l-59.1,39c-9.3,5.6-21.3,3-27.5-5.8h0
										C190.9,318.5,192.4,299.3,203.3,293.5z"/>
								</g>
							</g>
							<line class="st14" x1="229.2" y1="283" x2="221" y2="286.3"/>
						</g>
					</g>
				</g>
				<g>
					<path class="st12" d="M175.7,207.7c0,0,7.8,9.2,11,48.8S191,364,191,364l0,0c13.8-2.8,23.6-15.2,23.2-29.3
						c-0.9-29.4-3-77.2-7.6-97.4l-4.3-22c-0.2-1-1.2-4.2-1.2-4.2s-3.5-3.2-25-8.1L175.7,207.7z"/>
					<path class="st14" d="M214.1,337.4c0,0,0.2-56.3-6.5-97.2"/>
				</g>
			</g>
		</g>
		<g>
			<path class="st16" d="M141.8,162.2c0,0-7.7,12.5,3.6,12.1c0,0,4.7-3.9,3.7-11.2L141.8,162.2z"/>
			<path class="st16" d="M209.1,127.4c-0.2-2.4-1-4.9-2.4-7.4c-16.3-30.2-51.8-6.1-51.8-6.1l6.2,21.1
				C176,126.1,193.6,122.4,209.1,127.4z"/>
			<path class="st17" d="M161.2,135l6.9,27.4c0,0,43.4-12.5,41-35C193.6,122.4,178.2,120.3,161.2,135z"/>
			<path class="st18" d="M181.9,159.2c1.2,4.8,6.1,7.6,10.9,6.4c4.8-1.2,7.6-6.1,6.4-10.9c-1.2-4.8-6.1-7.6-10.9-6.4
				C183.5,149.6,180.6,154.5,181.9,159.2z"/>
			<path class="st13" d="M174.2,178.2l1.6,26.4c-0.7,10.7-13.8,15.4-21.1,7.7L144.1,201l3.2-46.1L174.2,178.2z"/>
			<path class="st2" d="M175,191.2c0,0-17.3-0.7-18.6-18.2l17.8,5.1L175,191.2z"/>
			<path class="st13" d="M192.4,121c0,0,5.7,36.1,1.2,47.4c-4.4,11.4-14.3,18.3-29.5,14.9c0,0-17.8-1.4-21-27.2
				C138.3,117.3,174.9,99.9,192.4,121z"/>
			<g>
				<path class="st19" d="M189.4,150.7c0.2,1.1,1.3,1.8,2.4,1.5c1.1-0.2,1.8-1.3,1.5-2.4c-0.2-1.1-1.3-1.8-2.4-1.5
					C189.9,148.6,189.2,149.6,189.4,150.7z"/>
				<path class="st19" d="M172.2,150.4c0.2,1.1,1.3,1.8,2.4,1.5s1.8-1.3,1.5-2.4c-0.2-1.1-1.3-1.8-2.4-1.5
					C172.7,148.2,172,149.3,172.2,150.4z"/>
				<polyline class="st20" points="185.7,152.2 187.7,159.2 184.4,160.8 				"/>
				<path class="st21" d="M170.9,135.9c0,0,6.3-1.5,6.8,1.9c0,0,0.3,2.3-5.3,3.5c-5.5,1.2-7.8,1.1-8.5-1
					C163.1,138.2,167.9,136.3,170.9,135.9z"/>
				<path class="st21" d="M194.6,135.4c0,0-5.9-1.5-6.5,1.9c0,0-0.4,2.3,4.8,3.4c3.8,0.8,5.1,0.1,5.4-1.5
					C198.5,137.5,196.8,135.8,194.6,135.4z"/>
				<path class="st22" d="M174.6,163.8l11.8,0.9c0,0-0.1,4.6-6.1,4.2C174.3,168.5,174.6,163.8,174.6,163.8z"/>
			</g>
			<path class="st16" d="M152,153.9l1.7-13.1c0,0,10.4-3.3,12.9-23c0,0-4.4-9-17.7-4.9c-13.3,4.1-24.9,13.8-10.3,38L152,153.9z"/>
			<g>
				<path class="st13" d="M131.1,159.3c1.5,5.8,7.4,9.2,13.2,7.7c5.8-1.5,9.2-7.4,7.7-13.2s-7.4-9.2-13.2-7.7
					C133.1,147.6,129.6,153.5,131.1,159.3z"/>
				<path class="st20" d="M136.8,153.2c0,0,8-2,9.8,6.8"/>
			</g>
			<g>
				<path class="st16" d="M166.7,117.8c0,0,13.2-2.1,26.3,6.2l-2.8-11.7l-17.3-2.4l-16.5,6.2l4.1,0.4L166.7,117.8z"/>
				<path class="st16" d="M192.9,124c0,0,19.9,0,20,14.5c0,0.3,0.4,0.3,0.5,0c0.9-5.4-0.1-20.1-22-18.4L192.9,124z"/>
			</g>
		</g>
	</g>
	<g>
		<g>
			<path class="st23" d="M98,124H53.6c-14.2,0-25.8-11.5-25.8-25.8V90c0-14.2,11.5-25.8,25.8-25.8H98c14.2,0,25.8,11.5,25.8,25.8
				v8.3C123.8,112.5,112.2,124,98,124z"/>
			<path class="st23" d="M88.8,118.1l12.1,15.3c1.3,1.7,4,0.3,3.4-1.7l-4.2-15.9L88.8,118.1z"/>
		</g>
	</g>
</g>
<g>
	<g>
		<g>
			<path class="st24" d="M417.8,141.1c0,0,3.8,23.6,12.3,36.8c1.6,2.5,0.7,5.9-1.7,7.5c-9.6,6.2-36.6,18-71.1,4.5
				c-2.3-0.9-3.7-3.3-3.4-5.8c0.7-6.4,6.2-18.9,14.4-30.1L417.8,141.1z"/>
			<path class="st25" d="M370,163c-1.3,4.2-5.7,6.6-9.9,5.3c-4.2-1.3-6.6-5.7-5.3-9.9c1.3-4.2,5.7-6.6,9.9-5.3
				C368.9,154.3,371.3,158.8,370,163z"/>
			<polygon class="st26" points="379.3,179.2 380.1,211.5 405.2,208.5 400.5,161.1 			"/>
			<path class="st2" d="M379.6,191.2c0,0,11.4-0.6,11.9-13.6l-12.1,6.4L379.6,191.2z"/>
			<path class="st26" d="M364.4,132.2c-2,1.7-3.3,4.1-3.8,6.7c-1.5,7.6-4.5,23.5-1.8,31.6c3.5,10.5,12.1,17.2,25.9,14.6
				c0,0,16-0.7,20-24.3C410.2,127.4,381.6,117.7,364.4,132.2z"/>
			<g>
				<circle class="st2" cx="361.7" cy="156.2" r="1.8"/>
				<path class="st2" d="M378.9,157c-0.3,1-1.3,1.6-2.2,1.3c-1-0.3-1.6-1.3-1.3-2.2c0.3-1,1.3-1.6,2.2-1.3
					C378.6,155,379.1,156,378.9,157z"/>
				<polyline class="st27" points="366.6,160.7 364.8,165.1 367.7,165.8 				"/>
				<path class="st24" d="M378.9,145.9c0,0-5.7-1-6,1.6c0,0-0.2,1.8,4.8,2.5c4.9,0.8,6.9,0.6,7.5-1
					C385.9,147.4,381.6,146.1,378.9,145.9z"/>
				<path class="st24" d="M359.6,146c0,0,4.9-1.1,5.6,1.4c0,0,0.4,1.7-3.9,2.5c-3.2,0.6-4.3,0.1-4.6-1.1
					C356.4,147.4,357.8,146.2,359.6,146z"/>
				<path class="st22" d="M366.4,169.2l10.2,0.2c0,0,0,4.1-5.2,4C366.2,173.3,366.4,169.2,366.4,169.2z"/>
			</g>
			<path class="st24" d="M398.5,158.3c0,0-8.4-7.4-6.7-21.8c0,0-14.2,2.5-31.1,1.3c0,0,3.8-22.3,35.8-16.9
				c33.3,5.5,21,44.1,8.6,55.3L398.5,158.3z"/>
			<g>
				
					<ellipse transform="matrix(0.8755 -0.4832 0.4832 0.8755 -27.7933 216.0432)" class="st26" cx="405.4" cy="162" rx="9.7" ry="9.7"/>
				<path class="st27" d="M409.7,159.1c0,0-7.1-2-9,5.8"/>
			</g>
			<path class="st24" d="M384.4,120.1c0,0-27.9,0.5-31.4,22.6l44.2,1l2.6-14.8L384.4,120.1z"/>
		</g>
		<g>
			<g>
				<polygon class="st26" points="348.6,265.7 351.7,307.5 334.4,360.1 353.6,360.1 383.4,331.2 380.2,268.4 				"/>
				<path class="st22" d="M356.2,215.5c0,0-21.8,15.7-15.4,66.3h35.7L356.2,215.5z"/>
			</g>
			<path class="st2" d="M365.1,307l-12,52.8c44.8,12.7,86.4,0,86.4,0s-2.3-20.3-17.9-53.2L365.1,307z"/>
			<g>
				<path class="st22" d="M416.4,206l-43.8,0.7c0,0-9.6,3.2-16.4,8.8l1.4,37l7.5,54.5l56.5-0.4l11.1-84.7L416.4,206z"/>
				<path class="st26" d="M392.5,199.6c0,0,11.2,1.1,23.9,6.4c0,0-3.7,14.2-24.7,14.3c-3.5,0-7-0.5-10.3-1.8
					c-4.4-1.8-9.5-5.2-8.8-11.7L392.5,199.6z"/>
				<line class="st28" x1="360.8" y1="280.9" x2="356.7" y2="251.1"/>
			</g>
			<g>
				<g>
					<path class="st26" d="M447.2,308.9c0.1-1.1-2-52.4-2-52.4H421l-0.4,38.3L447.2,308.9z"/>
					<g>
						<g>
							<path class="st22" d="M416.4,206c0,0,30.1,8.3,33.8,27c3.7,18.7,12.5,49.9,12.5,49.9l-46.3,0.1l3.5-62.8L416.4,206z"/>
						</g>
						<line class="st28" x1="418.1" y1="286.3" x2="414.2" y2="258.6"/>
					</g>
				</g>
				<g>
					<path class="st26" d="M382.9,256.5l-5.8,11.2l49.2,49.4c6.3,5.3,15.9,3.3,19.6-4.1l0,0c3.1-6.1,0.8-13.6-5.2-16.9l-6.9-4.7
						l-12.1-8.3L382.9,256.5z"/>
					<g>
						<path class="st26" d="M386.6,259.3l0-7.4c0-3.9-0.9-7.7-2.7-11.1l-3.1-6.1c-0.7-1.4-2.6-1.9-3.9-0.9l0,0
							c-1.1,0.8-1.6,2.2-1.2,3.5l1.8,7l-17.7-19.2c-0.8-0.9-2.8-0.7-3.6,0.2l0,0c-0.6,0.7-0.8,2.1-0.2,2.8l9.5,11.6l-13-11.5
							c-0.9-0.8-2.6-0.6-3.4,0.4l0,0c-0.6,0.8-0.5,2.4,0.2,3.1l15,13.2l-14.1-8.5c-1.1-0.7-2.6-0.2-3,1l-0.1,0.2
							c-0.3,0.8,0,1.8,0.7,2.3l13.8,10.4l-9.1-5.2c-1.3-0.7-2.9,0.1-3,1.6l0,0c0,0.7,0.3,1.4,0.9,1.8l29.7,21.3L386.6,259.3z"/>
					</g>
					<line class="st29" x1="422.7" y1="283.7" x2="436.7" y2="293.3"/>
				</g>
			</g>
		</g>
	</g>
	<g>
		<g>
			<path class="st23" d="M379.5,95h44.4c14.2,0,25.8-11.5,25.8-25.8v-8.3c0-14.2-11.5-25.8-25.8-25.8h-44.4
				c-14.2,0-25.8,11.5-25.8,25.8v8.3C353.7,83.4,365.3,95,379.5,95z"/>
			<path class="st23" d="M394.8,89l-12.1,15.3c-1.3,1.7-4,0.3-3.4-1.7l4.2-15.9L394.8,89z"/>
		</g>
	</g>
</g>
<g>
	<g>
		<g>
			<path class="st11" d="M527.4,73.9h41.7c14.2,0,25.8-11.5,25.8-25.8v-8.3c0-14.2-11.5-25.8-25.8-25.8h-41.7
				c-14.2,0-25.8,11.5-25.8,25.8v8.3C501.6,62.3,513.2,73.9,527.4,73.9z"/>
			<path class="st11" d="M538.1,67.9L526,83.2c-1.3,1.7-4,0.3-3.4-1.7l4.2-15.9L538.1,67.9z"/>
		</g>
	</g>
	<g>
		<g>
			
				<ellipse transform="matrix(0.8434 -0.5373 0.5373 0.8434 -6.3621 280.9005)" class="st30" cx="478.7" cy="151.4" rx="9.2" ry="9.2"/>
			<polygon class="st31" points="497,173.5 497.8,209.5 530.6,207.2 523.9,148.7 			"/>
			<path class="st21" d="M497.3,188.6c0,0,17.8-1.5,18.7-22.8l-19,8.7L497.3,188.6z"/>
			<path class="st31" d="M490,112c-8.2,3.2-13.8,11-14.7,19.8c-1.1,10.1-2,25.8,1.2,33.5c4.9,11.9,15.2,18.9,30.8,14.6
				c0,0,18.3-2.2,20.9-29.8C531.4,117.5,508.5,104.7,490,112z"/>
			<g>
				<path class="st21" d="M480.7,145.8c-0.2,1.1-1.3,1.9-2.4,1.7c-1.1-0.2-1.9-1.3-1.7-2.4c0.2-1.1,1.3-1.9,2.4-1.7
					C480.2,143.6,481,144.6,480.7,145.8z"/>
				<path class="st21" d="M498.4,144.9c-0.2,1.1-1.3,1.9-2.4,1.7c-1.1-0.2-1.9-1.3-1.7-2.4c0.2-1.1,1.3-1.9,2.4-1.7
					C497.9,142.6,498.6,143.7,498.4,144.9z"/>
				<path class="st32" d="M484.6,147.2l-1.5,6c-0.2,0.6,0.3,1.3,0.9,1.4l2.2,0.4"/>
				<path class="st21" d="M500.3,131.3c0,0-6.6-1.4-6.9,2.2c0,0-0.2,2.4,5.5,3.4c5.7,1,8,0.9,8.7-1.3
					C508.4,133.3,503.4,131.6,500.3,131.3z"/>
				<path class="st21" d="M476,131.6c0,0,6-1.7,6.8,1.7c0,0,0.5,2.3-4.8,3.7c-3.8,1-5.2,0.3-5.6-1.3
					C471.9,133.8,473.7,132,476,131.6z"/>
				<g>
					<defs>
						<path id="XMLID_7_" d="M483.6,159.3l12.8,0.5c0,0-0.3,5.5-6.5,5.5C483.5,165.3,483.6,159.3,483.6,159.3z"/>
					</defs>
					<use xlink:href="#XMLID_7_"  style="overflow:visible;fill:#20120C;"/>
					<clipPath id="XMLID_3_">
						<use xlink:href="#XMLID_7_"  style="overflow:visible;"/>
					</clipPath>
					<path class="st33" d="M496.7,168.8c-1.1,2.4-3.9,3.4-6.3,2.3c-2.4-1.1-3.4-3.9-2.3-6.3c1.1-2.4,3.9-3.4,6.3-2.3
						C496.7,163.6,497.8,166.4,496.7,168.8z"/>
				</g>
			</g>
			<path class="st21" d="M519.8,150.1c0,0-7.4-13.9-4.7-29.1c0,0-22.6,3.8-35.7-0.4c0,0,3.1-18.7,33.5-16.2
				c41.6,3.3,29.5,47.7,9.6,55.3L519.8,150.1z"/>
			<g>
				<path class="st31" d="M540.2,154.7c-1.4,6-7.3,9.7-13.3,8.4c-6-1.4-9.7-7.3-8.4-13.3c1.4-6,7.3-9.7,13.3-8.4
					C537.8,142.7,541.6,148.7,540.2,154.7z"/>
				<path class="st32" d="M534.1,148.6c0,0-8.3-1.7-9.8,7.4"/>
			</g>
		</g>
		<g>
			<g>
				<polygon class="st31" points="452.5,265.7 452.5,319.1 427.5,363 452.1,360.1 481.9,331.2 478.7,268.4 				"/>
				<path class="st0" d="M469.5,213.3c0,0-19.4,11.3-22.5,39.4v39.9l31.7-1.1L469.5,213.3z"/>
			</g>
			<g>
				<path class="st0" d="M493.4,204.2c0,0-15.9,3-23.9,9.1l-2.4,143.1c51.1,30.8,109.5,0.9,109.5,0.9l-15.8-143.3
					c0,0-2.1-8.1-24.3-9.8L493.4,204.2z"/>
				<path class="st31" d="M536.5,204.3c0,0-18.3-4-43.1,0c0,0-2.4,14.7,17.6,15.4C532.6,220.3,536.5,204.3,536.5,204.3z"/>
				<line class="st34" x1="468.2" y1="292.5" x2="468.1" y2="242.3"/>
			</g>
			<g>
				<g>
					<path class="st31" d="M511.9,288.6c0,0-3.5-10.2-16.2-12.8l-8.9-8.7c-1.4-1.4-3.5-1.5-5.1-0.3l0,0c-1.7,1.3-2,3.6-0.8,5.3
						l4.4,6.1l-2.4-1c-3.8-1.6-7-4.5-8.9-8.2l-5.6-10.4c-0.6-1.2-1.9-1.9-3.2-1.9l0,0c-2.6,0-4.4,2.6-3.5,5l5.6,14.6
						c2.2,5.6,6.7,10.1,12.4,12.1l28.4,12.6L511.9,288.6z"/>
					<path class="st31" d="M511.9,288.6l78.9,30.2c6.8,3,10.1,14.6,7.1,21.3v0c-3.4,7.5-12.8,10.2-19.6,5.6L508.1,301L511.9,288.6z"
						/>
				</g>
				<g>
					<polygon class="st31" points="598.9,332.3 590.7,268.6 552.4,265.7 565.8,322.6 					"/>
					<g>
						<path class="st0" d="M551.2,207c0,0,47.8,7.9,53.5,85.5h-58.8l-3.9-50.2L551.2,207z"/>
						<polyline class="st34" points="558.7,292.5 547.6,292.5 540.8,252.5 						"/>
					</g>
				</g>
			</g>
		</g>
	</g>
</g>
<g>
	<text transform="matrix(1 0 0 1 154.6021 610.506)" class="st22" style="font-family:'Roboto-Medium'; font-size:38px;">Avisos importantes</text>
</g>
<path class="st35" d="M630.6,412.5H0.6v-61c0-11.9,9.7-21.6,21.6-21.6H609c11.9,0,21.6,9.7,21.6,21.6V412.5z"/>
<g>
	<text transform="matrix(1 0 0 1 162.5945 492.8767)" class="st22" style="font-family:'Roboto-Medium'; font-size:38px;">El café de la esquina</text>
</g>
<g>
	<g class="st36">
		<path d="M164.5,372h-11.1v8.3h13v3.7h-17.7v-27h17.5v3.8h-12.8v7.5h11.1V372z"/>
		<path d="M174.6,384.1h-4.5v-28.5h4.5V384.1z"/>
		<path d="M197.2,380.9c1.1,0,2.1-0.3,2.8-1c0.7-0.7,1.1-1.5,1.2-2.4h4.2c0,1.3-0.4,2.4-1.2,3.5c-0.7,1.1-1.7,1.9-3,2.6
			c-1.2,0.6-2.6,0.9-4,0.9c-2.8,0-5-0.9-6.7-2.7c-1.6-1.8-2.5-4.3-2.5-7.5v-0.5c0-3.1,0.8-5.5,2.4-7.3c1.6-1.8,3.9-2.8,6.7-2.8
			c2.4,0,4.3,0.7,5.8,2.1c1.5,1.4,2.3,3.2,2.4,5.5h-4.2c0-1.2-0.4-2.1-1.2-2.8c-0.7-0.7-1.7-1.1-2.8-1.1c-1.5,0-2.6,0.5-3.4,1.6
			c-0.8,1.1-1.2,2.7-1.2,4.8v0.7c0,2.2,0.4,3.8,1.2,4.9C194.6,380.3,195.7,380.9,197.2,380.9z"/>
		<path d="M220.8,384.1c-0.2-0.4-0.4-1-0.5-1.9c-1.4,1.5-3.2,2.2-5.3,2.2c-2,0-3.7-0.6-4.9-1.7c-1.3-1.2-1.9-2.6-1.9-4.3
			c0-2.1,0.8-3.8,2.4-4.9c1.6-1.1,3.9-1.7,6.8-1.7h2.8v-1.3c0-1-0.3-1.9-0.9-2.5c-0.6-0.6-1.5-0.9-2.7-0.9c-1,0-1.9,0.3-2.5,0.8
			c-0.7,0.5-1,1.2-1,2h-4.5c0-1.1,0.4-2.1,1.1-3.1c0.7-1,1.7-1.7,3-2.3c1.3-0.5,2.7-0.8,4.2-0.8c2.4,0,4.2,0.6,5.6,1.8
			c1.4,1.2,2.1,2.8,2.2,5v9.1c0,1.8,0.3,3.2,0.8,4.3v0.3H220.8z M215.9,380.8c0.9,0,1.7-0.2,2.5-0.6c0.8-0.4,1.4-1,1.8-1.7v-3.8
			h-2.4c-1.7,0-2.9,0.3-3.8,0.9c-0.8,0.6-1.3,1.4-1.3,2.5c0,0.9,0.3,1.6,0.9,2.1C214.2,380.6,214.9,380.8,215.9,380.8z"/>
		<path d="M231,384.1v-16.7h-3.1V364h3.1v-1.8c0-2.2,0.6-3.9,1.9-5.2c1.2-1.2,3-1.8,5.2-1.8c0.8,0,1.6,0.1,2.5,0.3l-0.1,3.5
			c-0.5-0.1-1.1-0.1-1.7-0.1c-2.2,0-3.2,1.1-3.2,3.3v1.8h4.1v3.3h-4.1v16.7H231z"/>
		<path d="M251.3,384.5c-2.9,0-5.2-0.9-6.9-2.7c-1.8-1.8-2.7-4.2-2.7-7.2V374c0-2,0.4-3.8,1.2-5.4c0.8-1.6,1.9-2.8,3.3-3.7
			c1.4-0.9,3-1.3,4.7-1.3c2.7,0,4.8,0.9,6.3,2.6c1.5,1.7,2.2,4.2,2.2,7.4v1.8h-13.1c0.1,1.7,0.7,3,1.7,3.9c1,1,2.2,1.4,3.7,1.4
			c2.1,0,3.7-0.8,5-2.5l2.4,2.3c-0.8,1.2-1.9,2.1-3.2,2.8C254.5,384.1,252.9,384.5,251.3,384.5z M250.7,367.3c-1.2,0-2.2,0.4-3,1.3
			c-0.8,0.9-1.2,2.1-1.5,3.6h8.6v-0.3c-0.1-1.5-0.5-2.7-1.2-3.4C253,367.7,252,367.3,250.7,367.3z M251.8,355.6h5.1l-5.1,5.6l-3.6,0
			L251.8,355.6z"/>
		<path d="M271.4,373.9c0-3.1,0.7-5.6,2.2-7.5c1.4-1.9,3.4-2.8,5.8-2.8c2.1,0,3.8,0.7,5.2,2.2v-10.3h4.5v28.5H285l-0.2-2.1
			c-1.3,1.6-3.1,2.4-5.4,2.4c-2.4,0-4.3-0.9-5.7-2.8C272.2,379.7,271.4,377.2,271.4,373.9z M276,374.3c0,2,0.4,3.6,1.2,4.8
			c0.8,1.1,1.9,1.7,3.3,1.7c1.8,0,3.2-0.8,4-2.5v-8.6c-0.8-1.6-2.2-2.4-4-2.4c-1.5,0-2.6,0.6-3.4,1.7C276.4,370.2,276,372,276,374.3
			z"/>
		<path d="M302.6,384.5c-2.9,0-5.2-0.9-6.9-2.7c-1.8-1.8-2.7-4.2-2.7-7.2V374c0-2,0.4-3.8,1.2-5.4c0.8-1.6,1.9-2.8,3.3-3.7
			c1.4-0.9,3-1.3,4.7-1.3c2.7,0,4.8,0.9,6.3,2.6c1.5,1.7,2.2,4.2,2.2,7.4v1.8h-13.1c0.1,1.7,0.7,3,1.7,3.9c1,1,2.2,1.4,3.7,1.4
			c2.1,0,3.7-0.8,5-2.5l2.4,2.3c-0.8,1.2-1.9,2.1-3.2,2.8C305.8,384.1,304.3,384.5,302.6,384.5z M302,367.3c-1.2,0-2.2,0.4-3,1.3
			c-0.8,0.9-1.2,2.1-1.5,3.6h8.6v-0.3c-0.1-1.5-0.5-2.7-1.2-3.4C304.3,367.7,303.3,367.3,302,367.3z"/>
		<path d="M328.4,384.1h-4.5v-28.5h4.5V384.1z"/>
		<path d="M345.3,384.1c-0.2-0.4-0.4-1-0.5-1.9c-1.4,1.5-3.2,2.2-5.3,2.2c-2,0-3.7-0.6-4.9-1.7s-1.9-2.6-1.9-4.3
			c0-2.1,0.8-3.8,2.4-4.9c1.6-1.1,3.9-1.7,6.8-1.7h2.8v-1.3c0-1-0.3-1.9-0.9-2.5c-0.6-0.6-1.5-0.9-2.7-0.9c-1,0-1.9,0.3-2.5,0.8
			c-0.7,0.5-1,1.2-1,2h-4.5c0-1.1,0.4-2.1,1.1-3.1c0.7-1,1.7-1.7,3-2.3c1.3-0.5,2.7-0.8,4.2-0.8c2.4,0,4.2,0.6,5.6,1.8
			c1.4,1.2,2.1,2.8,2.2,5v9.1c0,1.8,0.3,3.2,0.8,4.3v0.3H345.3z M340.3,380.8c0.9,0,1.7-0.2,2.5-0.6c0.8-0.4,1.4-1,1.8-1.7v-3.8
			h-2.4c-1.7,0-2.9,0.3-3.8,0.9c-0.8,0.6-1.3,1.4-1.3,2.5c0,0.9,0.3,1.6,0.9,2.1C338.6,380.6,339.4,380.8,340.3,380.8z"/>
		<path d="M372.2,384.5c-2.9,0-5.2-0.9-6.9-2.7c-1.8-1.8-2.7-4.2-2.7-7.2V374c0-2,0.4-3.8,1.2-5.4c0.8-1.6,1.9-2.8,3.3-3.7
			c1.4-0.9,3-1.3,4.7-1.3c2.7,0,4.8,0.9,6.3,2.6c1.5,1.7,2.2,4.2,2.2,7.4v1.8h-13.1c0.1,1.7,0.7,3,1.7,3.9c1,1,2.2,1.4,3.7,1.4
			c2.1,0,3.7-0.8,5-2.5l2.4,2.3c-0.8,1.2-1.9,2.1-3.2,2.8C375.3,384.1,373.8,384.5,372.2,384.5z M371.6,367.3c-1.2,0-2.2,0.4-3,1.3
			c-0.8,0.9-1.2,2.1-1.5,3.6h8.6v-0.3c-0.1-1.5-0.5-2.7-1.2-3.4C373.8,367.7,372.9,367.3,371.6,367.3z"/>
		<path d="M395,378.6c0-0.8-0.3-1.4-1-1.8c-0.7-0.4-1.8-0.8-3.3-1.1c-1.5-0.3-2.8-0.7-3.8-1.2c-2.3-1.1-3.4-2.7-3.4-4.7
			c0-1.7,0.7-3.2,2.2-4.3c1.5-1.2,3.3-1.7,5.6-1.7c2.4,0,4.3,0.6,5.8,1.8c1.5,1.2,2.2,2.7,2.2,4.6h-4.5c0-0.9-0.3-1.6-1-2.2
			c-0.6-0.6-1.5-0.9-2.6-0.9c-1,0-1.8,0.2-2.4,0.7c-0.6,0.5-0.9,1.1-0.9,1.8c0,0.7,0.3,1.2,0.9,1.6c0.6,0.4,1.8,0.8,3.5,1.2
			c1.8,0.4,3.2,0.9,4.2,1.4c1,0.5,1.8,1.2,2.2,1.9c0.5,0.8,0.7,1.7,0.7,2.7c0,1.8-0.7,3.3-2.2,4.4c-1.5,1.1-3.5,1.7-5.9,1.7
			c-1.6,0-3.1-0.3-4.4-0.9s-2.3-1.4-3-2.4s-1.1-2.2-1.1-3.4h4.4c0.1,1.1,0.5,1.9,1.2,2.5c0.7,0.6,1.7,0.9,3,0.9
			c1.2,0,2.1-0.2,2.7-0.7C394.7,380,395,379.4,395,378.6z"/>
		<path d="M402.5,373.9c0-3.1,0.7-5.6,2.2-7.5c1.4-1.8,3.4-2.8,5.8-2.8c2.2,0,4,0.8,5.3,2.4l0.3-2h4v27.8h-4.5v-9.4
			c-1.3,1.4-3,2.1-5.1,2.1c-2.4,0-4.3-0.9-5.8-2.8C403.2,379.8,402.5,377.2,402.5,373.9z M407,374.3c0,2.1,0.4,3.7,1.2,4.8
			c0.8,1.2,1.9,1.8,3.4,1.8c1.8,0,3.1-0.8,4-2.3v-9.1c-0.9-1.5-2.2-2.2-3.9-2.2c-1.4,0-2.6,0.6-3.4,1.7
			C407.4,370.1,407,371.9,407,374.3z"/>
		<path d="M437.1,382.1c-1.3,1.6-3.2,2.3-5.6,2.3c-2.2,0-3.8-0.6-4.9-1.9c-1.1-1.3-1.7-3.1-1.7-5.5v-13h4.5v13
			c0,2.5,1.1,3.8,3.2,3.8c2.2,0,3.7-0.8,4.4-2.4V364h4.5v20.1h-4.2L437.1,382.1z"/>
		<path d="M446,358.8c0-0.7,0.2-1.3,0.7-1.7c0.4-0.5,1.1-0.7,1.9-0.7s1.4,0.2,1.9,0.7c0.4,0.5,0.7,1,0.7,1.7c0,0.7-0.2,1.2-0.7,1.7
			c-0.4,0.5-1.1,0.7-1.9,0.7s-1.4-0.2-1.9-0.7C446.2,360.1,446,359.5,446,358.8z M450.8,384.1h-4.5V364h4.5V384.1z"/>
		<path d="M459.9,364l0.1,2.3c1.5-1.8,3.4-2.7,5.8-2.7c4.2,0,6.3,2.4,6.4,7.2v13.3h-4.5v-13c0-1.3-0.3-2.2-0.8-2.8
			c-0.6-0.6-1.5-0.9-2.7-0.9c-1.8,0-3.2,0.8-4.1,2.5v14.3h-4.5V364H459.9z"/>
		<path d="M488.9,384.1c-0.2-0.4-0.4-1-0.5-1.9c-1.4,1.5-3.2,2.2-5.3,2.2c-2,0-3.7-0.6-4.9-1.7s-1.9-2.6-1.9-4.3
			c0-2.1,0.8-3.8,2.4-4.9c1.6-1.1,3.9-1.7,6.8-1.7h2.8v-1.3c0-1-0.3-1.9-0.9-2.5c-0.6-0.6-1.5-0.9-2.7-0.9c-1,0-1.9,0.3-2.5,0.8
			c-0.7,0.5-1,1.2-1,2h-4.5c0-1.1,0.4-2.1,1.1-3.1c0.7-1,1.7-1.7,3-2.3c1.3-0.5,2.7-0.8,4.2-0.8c2.4,0,4.2,0.6,5.6,1.8
			c1.4,1.2,2.1,2.8,2.2,5v9.1c0,1.8,0.3,3.2,0.8,4.3v0.3H488.9z M483.9,380.8c0.9,0,1.7-0.2,2.5-0.6c0.8-0.4,1.4-1,1.8-1.7v-3.8
			h-2.4c-1.7,0-2.9,0.3-3.8,0.9c-0.8,0.6-1.3,1.4-1.3,2.5c0,0.9,0.3,1.6,0.9,2.1C482.2,380.6,482.9,380.8,483.9,380.8z"/>
	</g>
</g>
</svg>
