<?xml version="1.0" encoding="utf-8"?>
<!-- Generator: Adobe Illustrator 24.3.0, SVG Export Plug-In . SVG Version: 6.00 Build 0)  -->
<svg version="1.1" id="Capa_1" xmlns="http://www.w3.org/2000/svg" xmlns:xlink="http://www.w3.org/1999/xlink" x="0px" y="0px"
	 viewBox="0 0 632.6 412.9" style="enable-background:new 0 0 632.6 412.9;" xml:space="preserve">
<style type="text/css">
	.st0{fill:#AFAEAE;}
	.st1{fill:#919191;}
	.st2{fill:#FFFFFF;}
	.st3{fill:#FF6EAE;}
	.st4{fill:#82502E;}
	.st5{fill:#311326;}
	.st6{fill:none;stroke:#311326;stroke-width:0.8934;stroke-linecap:round;stroke-linejoin:round;stroke-miterlimit:10;}
	.st7{fill:#20120C;}
	.st8{clip-path:url(#SVGID_2_);fill:#FF76C5;}
	.st9{clip-path:url(#SVGID_5_);fill:#FFFFFF;}
	.st10{opacity:0.11;fill:#FFFFFF;enable-background:new    ;}
	.st11{fill:none;stroke:#FFFFFF;stroke-width:1.2607;stroke-linecap:round;stroke-linejoin:round;stroke-miterlimit:10;}
	.st12{fill:none;stroke:#FFFFFF;stroke-width:1.2607;stroke-linecap:round;stroke-linejoin:round;stroke-miterlimit:9.9994;}
	.st13{fill:#BF5180;}
	.st14{fill:#FFB076;}
	.st15{fill:none;stroke:#9B3666;stroke-width:1.7;stroke-linecap:round;stroke-linejoin:round;stroke-miterlimit:10;}
	.st16{fill:#F9FAFC;}
	.st17{fill:#FFA405;}
	.st18{fill:#FF974D;}
	.st19{fill:none;stroke:#EC7600;stroke-width:1.7484;stroke-linecap:round;stroke-linejoin:round;stroke-miterlimit:10;}
	.st20{fill:none;stroke:#FB7928;stroke-width:1.6;stroke-linecap:round;stroke-linejoin:round;stroke-miterlimit:10;}
	.st21{fill:#8A331F;}
	.st22{fill:#7B2616;}
	.st23{fill:#FF8031;}
	.st24{fill:#101010;}
	.st25{fill:none;stroke:#311326;stroke-width:0.9831;stroke-linecap:round;stroke-linejoin:round;stroke-miterlimit:10;}
	.st26{fill:#FF83BB;}
	.st27{fill:#FF6B21;}
	.st28{fill:#FFAC78;}
	.st29{fill:#FFB988;}
	.st30{fill:none;stroke:#311326;stroke-width:0.8729;stroke-linecap:round;stroke-linejoin:round;stroke-miterlimit:10;}
	.st31{fill:none;stroke:#DBDBDB;stroke-width:1.7484;stroke-linecap:round;stroke-linejoin:round;stroke-miterlimit:10;}
	.st32{fill:#9E4C3E;}
	.st33{fill:#AD5E4C;}
	.st34{fill:none;stroke:#311326;stroke-width:1.012;stroke-linecap:round;stroke-linejoin:round;stroke-miterlimit:10;}
	.st35{clip-path:url(#SVGID_7_);fill:#FF76C5;}
	.st36{fill:none;stroke:#FF3D93;stroke-width:1.7;stroke-linecap:round;stroke-linejoin:round;stroke-miterlimit:10;}
	.st37{fill:#DDDDDD;}
	.st38{enable-background:new    ;}
	.st39{fill:#2B79E6;}
	.st40{clip-path:url(#SVGID_9_);}
	.st41{clip-path:url(#SVGID_11_);}
	.st42{fill:none;stroke:#000000;stroke-miterlimit:10;}
	.st43{fill:#E5576F;}
	.st44{fill:#F16E7F;}
	.st45{fill:#000100;}
	.st46{fill:none;stroke:#000100;stroke-width:0.75;stroke-miterlimit:10;}
	.st47{fill:none;stroke:#000100;stroke-width:0.75;stroke-linecap:round;stroke-linejoin:round;stroke-miterlimit:10;}
</style>
<g>
	<polygon class="st0" points="347.7,271.4 314.8,241.7 281.9,271.4 281.9,126.9 347.7,126.9 	"/>
	<g>
		<path class="st1" d="M360.5,183.7L360.5,183.7c-1.9-2.4-5.7-0.1-4.4,2.7l0,0c1.3,3-2.9,5.2-4.6,2.4l0,0c-1.6-2.6-5.6-0.8-4.7,2.1
			l0,0c0.9,3.1-3.6,4.8-4.9,1.8l0,0c-1.2-2.8-5.4-1.5-5,1.5l0,0c0.5,3.2-4.1,4.3-5.1,1.2l0,0c-0.9-2.9-5.2-2.2-5.1,0.8l0,0
			c0.1,3.3-4.7,3.7-5.2,0.5l0,0c-0.5-3-4.9-2.9-5.2,0.2l0,0c-0.3,3.2-5.1,3.1-5.2-0.2l0,0c-0.1-3.1-4.5-3.5-5.1-0.5l0,0
			c-0.7,3.2-5.4,2.4-5.1-0.8l0,0c0.3-3-4-4-5-1.2l0,0c-1.1,3.1-5.7,1.7-5-1.5l0,0c0.7-3-3.4-4.5-4.8-1.8l0,0
			c-1.5,2.9-5.9,0.9-4.8-2.1l0,0c1.1-2.9-2.8-4.9-4.6-2.4l0,0c-1.9,2.7-6,0.2-4.4-2.7l0,0c1.4-2.7-2.2-5.2-4.2-3l0,0
			c-2.2,2.4-5.9-0.6-4.1-3.2l0,0c1.8-2.5-1.5-5.5-3.8-3.5l0,0c-2.5,2.1-5.8-1.3-3.6-3.7l0,0c2.1-2.3-0.8-5.6-3.3-3.9l0,0
			c-2.7,1.8-5.6-2.1-3.1-4.2l0,0c2.3-2-0.1-5.7-2.8-4.3l0,0c-2.9,1.4-5.3-2.8-2.5-4.5l0,0c2.6-1.7,0.7-5.6-2.2-4.7l0,0
			c-3.1,1-4.9-3.4-1.9-4.8l0,0c2.8-1.3,1.4-5.5-1.6-4.9l0,0c-3.2,0.6-4.4-4-1.3-5l0,0c2.9-1,2.1-5.3-1-5.1l0,0
			c-3.3,0.2-3.9-4.5-0.7-5.2l0,0c3-0.6,2.7-5-0.3-5.2l0,0c-3.3-0.2-3.3-5,0-5.2l0,0c3-0.2,3.3-4.6,0.3-5.2l0,0
			c-3.2-0.6-2.6-5.4,0.7-5.2l0,0c3,0.2,3.9-4.1,1-5.1l0,0c-3.1-1-1.9-5.7,1.3-5l0,0c3,0.6,4.4-3.6,1.6-4.9l0,0
			c-2.9-1.4-1.1-5.8,2-4.8l0,0c2.9,1,4.8-3,2.2-4.7l0,0c-2.7-1.8-0.4-5.9,2.6-4.5l0,0c2.8,1.3,5.1-2.3,2.8-4.3l0,0
			c-2.5-2.1,0.4-5.9,3.1-4.2l0,0c2.6,1.7,5.4-1.7,3.4-3.9l0,0c-2.2-2.4,1.1-5.8,3.6-3.7l0,0c2.3,2,5.6-1,3.8-3.5l0,0
			c-1.9-2.7,1.9-5.7,4.1-3.2l0,0c2.1,2.3,5.7-0.2,4.2-3l0,0c-1.5-2.9,2.6-5.4,4.4-2.7l0,0c1.7,2.5,5.6,0.5,4.6-2.4l0,0
			c-1.1-3.1,3.3-5,4.8-2.1l0,0c1.4,2.7,5.5,1.2,4.9-1.8l0,0c-0.7-3.2,3.9-4.5,5-1.5l0,0c1.1,2.9,5.3,1.9,5-1.1l0,0
			c-0.3-3.2,4.4-4,5.1-0.8l0,0c0.7,3,5,2.6,5.1-0.5l0,0c0.1-3.3,4.9-3.4,5.2-0.2l0,0c0.3,3,4.7,3.2,5.2,0.2l0,0
			c0.5-3.2,5.3-2.8,5.2,0.5l0,0c-0.1,3.1,4.2,3.8,5.1,0.8l0,0c0.9-3.1,5.6-2.1,5.1,1.2l0,0c-0.5,3,3.7,4.3,5,1.5l0,0
			c1.3-3,5.8-1.3,4.9,1.8l0,0c-0.9,2.9,3.1,4.7,4.7,2.1l0,0c1.7-2.8,5.9-0.6,4.6,2.4l0,0c-1.2,2.8,2.5,5.1,4.4,2.7l0,0
			c2-2.5,6,0.2,4.3,3l0,0c-1.6,2.6,1.8,5.4,4,3.2l0,0c2.3-2.3,5.9,1,3.8,3.5l0,0c-1.9,2.4,1.1,5.5,3.6,3.7l0,0
			c2.6-1.9,5.7,1.7,3.4,4l0,0c-2.2,2.1,0.4,5.6,3.1,4.1l0,0c2.8-1.6,5.4,2.4,2.8,4.4l0,0c-2.5,1.8-0.3,5.7,2.5,4.5l0,0
			c3-1.2,5.1,3.1,2.3,4.7l0,0c-2.7,1.5-1,5.6,1.9,4.8l0,0c3.2-0.8,4.7,3.7,1.6,4.9l0,0c-2.8,1.1-1.7,5.4,1.3,5l0,0
			c3.2-0.4,4.1,4.3,1,5.1l0,0c-3,0.8-2.4,5.1,0.7,5.1l0,0c3.3,0,3.6,4.8,0.3,5.2l0,0c-3,0.4-3,4.8,0,5.2l0,0
			c3.2,0.4,2.9,5.2-0.3,5.2l0,0c-3.1,0-3.6,4.4-0.7,5.1l0,0c3.2,0.8,2.2,5.5-1,5.1l0,0c-3-0.4-4.1,3.9-1.3,5l0,0
			c3,1.2,1.5,5.8-1.6,4.9l0,0c-3-0.8-4.6,3.3-1.9,4.8l0,0c2.8,1.6,0.8,5.9-2.3,4.7l0,0c-2.8-1.1-5,2.7-2.5,4.5l0,0
			c2.6,2,0,6-2.8,4.4l0,0c-2.7-1.5-5.3,2-3.1,4.1l0,0c2.3,2.3-0.8,5.9-3.4,4l0,0c-2.4-1.8-5.5,1.3-3.6,3.7l0,0
			c2,2.5-1.5,5.8-3.9,3.5l0,0c-2.2-2.1-5.6,0.6-4,3.2l0,0C366.4,183.5,362.5,186.3,360.5,183.7z"/>
	</g>
	<ellipse class="st0" cx="315.9" cy="115.8" rx="75.9" ry="75.9"/>
	<ellipse class="st2" cx="316.8" cy="115.9" rx="54.4" ry="54.4"/>
	<polygon class="st1" points="315.8,83.2 325.5,102.8 347.1,106 331.4,121.2 335.1,142.8 315.8,132.6 296.5,142.8 300.2,121.2 
		284.5,106 306.1,102.8 	"/>
</g>
<g>
	<g>
		<g>
			<path class="st3" d="M-442.5-201.8c0,0,2.1,13-1.3,16.4c-6.5,6.5-26.6,9.6-16,37.5h92.3c0,0,4.6-11.1-5.7-17.6
				c0,0-3.6-2.5-1.4-10.1c2.2-7.5-3.3-12.9-10-21l-13.3-21.4L-442.5-201.8z"/>
			<ellipse class="st3" cx="-411.1" cy="-203.8" rx="31.5" ry="30.1"/>
			
				<ellipse transform="matrix(0.8694 -0.4941 0.4941 0.8694 45.1312 -214.2794)" class="st4" cx="-382.8" cy="-192.5" rx="8.2" ry="8.2"/>
			<polygon class="st4" points="-400.2,-173.5 -401,-137.3 -427.2,-138.8 -421.8,-192 			"/>
			<path class="st5" d="M-400.5-162.4c0,0-11.7-1.2-12.2-14.5l12.4,6.6L-400.5-162.4z"/>
			<path class="st4" d="M-384.9-221.6c2.1,1.7,3.4,4.2,3.9,6.8c1.6,7.8,4.6,21.6,1.9,29.8c-3.6,10.8-12.3,18.4-26.5,15.7
				c0,0-16.9-1.7-20.4-23.2C-431.6-226.6-402.5-236.5-384.9-221.6z"/>
			<g>
				<path class="st5" d="M-384-198.2c0.3,1,1.3,1.6,2.3,1.3s1.6-1.3,1.3-2.3c-0.3-1-1.3-1.6-2.3-1.3
					C-383.6-200.2-384.2-199.2-384-198.2z"/>
				<path class="st5" d="M-399.7-197.9c0.3,1,1.3,1.6,2.3,1.3s1.6-1.3,1.3-2.3c-0.3-1-1.3-1.6-2.3-1.3
					C-399.4-199.9-400-198.9-399.7-197.9z"/>
				<path class="st6" d="M-387.6-193.7l1.3,3.5c0.1,0.4-0.2,0.9-0.6,1l-2,0.4"/>
				<path class="st5" d="M-401.1-212.9c0,0,5.8-1,6.1,1.6c0,0,0.2,1.8-4.9,2.6s-7.1,0.7-7.7-1C-408.3-211.3-403.9-212.6-401.1-212.9
					z"/>
				<path class="st5" d="M-380-212.8c0,0-5-1.1-5.8,1.4c0,0-0.5,1.7,4,2.6c3.2,0.6,4.4,0.1,4.8-1.1
					C-376.7-211.2-378.1-212.5-380-212.8z"/>
				<g>
					<g>
						<path id="XMLID_5_" class="st7" d="M-384.8-185.9l-14.3,0.2c0,0,0.3,6.2,6.9,6.2C-385.6-179.6-384.8-185.9-384.8-185.9z"/>
					</g>
					<g>
						<g>
							<defs>
								<path id="SVGID_1_" d="M-384.8-185.9l-14.3,0.2c0,0,0.3,6.2,6.9,6.2C-385.6-179.6-384.8-185.9-384.8-185.9z"/>
							</defs>
							<clipPath id="SVGID_2_">
								<use xlink:href="#SVGID_1_"  style="overflow:visible;"/>
							</clipPath>
							<path class="st8" d="M-399.6-175.6c1.2,2.5,4.2,3.6,6.7,2.5c2.5-1.2,3.6-4.2,2.5-6.7c-1.2-2.5-4.2-3.6-6.7-2.5
								C-399.7-181.1-400.8-178.1-399.6-175.6z"/>
						</g>
					</g>
					<g>
						<g>
							<defs>
								<path id="SVGID_3_" d="M-384.8-185.9l-14.3,0.2c0,0,0.3,6.2,6.9,6.2C-385.6-179.6-384.8-185.9-384.8-185.9z"/>
							</defs>
							<clipPath id="SVGID_5_">
								<use xlink:href="#SVGID_3_"  style="overflow:visible;"/>
							</clipPath>
							<polygon class="st9" points="-383.8,-184 -400.1,-184 -400.1,-186.8 -383.8,-187.3 							"/>
						</g>
					</g>
				</g>
				<g>
					<path class="st10" d="M-391.1-198.7c-0.1,5.6-4.6,10.1-10,10c-5.5-0.1-9.9-4.6-9.8-10.2c0.1-5.6,4.6-10.1,10-10
						C-395.5-208.9-391.1-204.3-391.1-198.7z"/>
					
						<ellipse transform="matrix(1.154171e-02 -0.9999 0.9999 1.154171e-02 -174.6033 -573.7367)" class="st10" cx="-377.5" cy="-198.6" rx="9.7" ry="8.5"/>
					<path class="st11" d="M-391.1-198.7c-0.1,5.6-4.6,10.1-10,10c-5.5-0.1-9.9-4.6-9.8-10.2c0.1-5.6,4.6-10.1,10-10
						C-395.5-208.9-391.1-204.3-391.1-198.7z"/>
					
						<ellipse transform="matrix(1.154171e-02 -0.9999 0.9999 1.154171e-02 -174.6033 -573.7367)" class="st12" cx="-377.5" cy="-198.6" rx="9.7" ry="8.5"/>
					<path class="st11" d="M-391.1-198.7c0,0,2.2-2.5,5.2,0"/>
					<line class="st11" x1="-411" y1="-198.9" x2="-419.8" y2="-195.5"/>
				</g>
			</g>
			<path class="st3" d="M-424-197.8c1.3,0.6,26-14.3,13.5-30.5c0,0-18.8,4.4-17.7,30.5H-424z"/>
			<path class="st3" d="M-408.4-222.4c0,0,16.6-4.1,26.3,4.2c0,0-4.7-15-27.5-15.7l-8.6,19.1L-408.4-222.4z"/>
			<ellipse class="st3" cx="-435.2" cy="-233.8" rx="12.7" ry="12.7"/>
			<polygon class="st3" points="-418.8,-206.3 -420.4,-189.3 -426.3,-204.9 			"/>
			<g>
				<path class="st4" d="M-438.2-187.5c1.6,5.2,7.1,8.2,12.3,6.6c5.2-1.6,8.2-7.1,6.6-12.3s-7.1-8.2-12.3-6.6
					C-436.8-198.3-439.8-192.8-438.2-187.5z"/>
				<path class="st6" d="M-433.2-193.3c0,0,7.3-2.1,9.2,5.9"/>
			</g>
		</g>
		<g>
			<g>
				<path class="st13" d="M-377-132.8c0,0,14.1,8.4,14.1,30.2v62.5c0,7.8-5.6,14.4-13.3,15.6l0,0c-9.6,1.6-18.3-5.8-18.3-15.5
					l-0.6-82.3L-377-132.8z"/>
				<g>
					<path class="st4" d="M-326.3-80.6l6.8,8.8l-52,46.3c-6.6,4.9-16.1,2.3-19.3-5.3l0,0c-2.7-6.3,0-13.6,6.2-16.6L-326.3-80.6z"/>
					<g>
						<path class="st14" d="M-326.3-80.6l3.7-6.4c1.9-3.4,4.6-6.2,7.9-8.3l5.7-3.7c1.4-0.9,3.2-0.3,3.8,1.1l0,0
							c0.5,1.3,0.3,2.7-0.7,3.7L-311-89l27.3-7.8c1.2-0.4,2.4,0.4,2.6,1.6l0.1,0.8c0.2,1-0.4,1.9-1.3,2.2l-16,5.1l19.2-3.4
							c1.2-0.3,2.4,0.5,2.5,1.7l0.1,0.6c0.1,1-0.5,2-1.5,2.2l-19.9,4.1l16.5-0.3c1.3-0.1,2.3,1.1,2.1,2.4v0.3
							c-0.2,0.9-0.9,1.5-1.7,1.7l-17.1,2.2h10.5c1.5,0,2.5,1.6,1.8,2.9l0,0c-0.3,0.6-0.9,1.1-1.6,1.1l-38.3,3.5L-326.3-80.6z"/>
					</g>
				</g>
			</g>
			<g>
				<path class="st13" d="M-438.6-141.9c0,0-25.8,5.6-35.7,29.7c-9.9,24.1-3,106.8-3,106.8s49.2,23.1,92.1-2.9l8.3-124.4
					c0,0-9.6-6.9-17.4-11.3L-438.6-141.9z"/>
				<path class="st4" d="M-418.8-149.6c0,0-7.2,1.6-19.8,7.7c0,0,18.8,14.6,33.6,32.2c0,0,11.6-11.9,10.5-34.3l-14.7-5.5
					L-418.8-149.6L-418.8-149.6z"/>
				<line class="st15" x1="-378.9" y1="-103.6" x2="-382.5" y2="-50.1"/>
			</g>
		</g>
	</g>
	<g>
		<g>
			<g>
				<path class="st16" d="M-426.5-289.2h-40.7c-12.3,0-22.2-10-22.2-22.2v-11.4c0-12.3,10-22.2,22.2-22.2h40.7
					c12.3,0,22.2,10,22.2,22.2v11.4C-404.3-299.1-414.2-289.2-426.5-289.2z"/>
			</g>
			<path class="st16" d="M-439.4-294.3l12.1,15.3c1.3,1.7,4,0.3,3.4-1.7l-4.2-15.9L-439.4-294.3z"/>
		</g>
	</g>
</g>
<g>
	<g>
		<g>
			<path class="st16" d="M-546,0.3c0,0,32.8,6.6,59.6-6.5l8.9-112.6l-31.9-32.5L-541-158l-17.4,63.3L-546,0.3z"/>
			<g>
				<path class="st17" d="M-540.9-158c0,0,4.6,112.4,3.4,168l-24.3-2.9c-12.9-1.5-22.5-12.6-22.1-25.6l2.5-86.5l2.8-37.4
					c0.2-3.2,2.3-6.1,5.3-7.3C-566.9-152.2-554.9-156.4-540.9-158z"/>
				<g>
					<path class="st18" d="M-624.1-34.5l-8.7,15.2c0,0-17.1,1.1-32.8,8.5c-0.8,0.4-1.3,1.3-1.2,2.3l0,0c0.2,1.3,1.5,2.1,2.7,1.7
						l11.7-3.5c0,0-11.5,4.7-20.4,9.8c-1.2,0.7-1.7,2.2-1.1,3.4l0,0c0.6,1.3,2.1,1.9,3.4,1.4l19-7.4l-17.7,9.8
						c-1.4,0.8-1.9,2.5-1.2,3.9l0,0c0.7,1.4,2.5,2,3.9,1.3l17.1-8.3l-13.4,9.4c-1.7,1.2-1.9,3.7-0.4,5.2l0,0
						c1.1,1.1,2.9,1.3,4.2,0.4c5.3-3.5,18.5-11.6,27.1-11.3c0,0-2.1,3.3-5.7,6.7c-1.7,1.7-1.6,4.5,0.4,5.9l0,0c1.3,1,3.1,1,4.4,0
						l10.1-7c1.9-1.3,3.3-3.3,3.9-5.5l3.4-12.2l14.6-13.8L-624.1-34.5z"/>
					<g>
						<path class="st17" d="M-572.1-150.2c0,0-4.7-0.3-20,19.4c-15.8,20.3-43.3,110.7-43.3,110.7l27.6,20.9l46.8-101.9L-572.1-150.2
							z"/>
						<line class="st19" x1="-582.4" y1="-54.4" x2="-566.1" y2="-89.9"/>
					</g>
				</g>
			</g>
			<g>
				<g>
					<path class="st17" d="M-485.5-148.6c0,0,24.2,7.5,33.3,96.7L-471.8-38L-485.5-148.6z"/>
					<g>
						<g>
							<g>
								<g>
									<path class="st18" d="M-403.4-83.4c0,0-8.8-6.8-0.6-18.2l12.3-17.8c1.1-1.6,3.4-1.8,4.8-0.5l0,0c1,0.9,1.3,2.3,0.8,3.5
										l-3.8,10.5l23.4-15.8c1.7-1.3,4.2-0.7,5.1,1.2l0,0c0.8,1.5,0.4,3.3-0.9,4.3l-15,11.7l0.3,0.9l17.3-9.8
										c1.9-0.9,4.1,0.2,4.6,2.3l0,0c0.4,1.5-0.4,3.1-1.8,3.8l-16.7,10.7l0.2,1.2l16.3-7c4-1.9,5.3,0,5.7,1.4l0,0
										c0.4,1.4-2.7,3.3-4,3.7l-16.8,8.5l0.2,1.1l15.6-6c1.5-0.2,2.8,1,2.7,2.6l0,0c-0.1,1.1-0.9,2-2,2.2l-17.8,7.6
										c0,0-16.3,11.1-23.6,4.8L-403.4-83.4z"/>
									<path class="st20" d="M-389.9-105.8c0,0,5.1,9.2-1.1,17.3"/>
								</g>
							</g>
							<polygon class="st18" points="-428.4,-81.9 -401.6,-93.2 -390,-77 -420,-60.8 							"/>
						</g>
						<g>
							<g>
								<g>
									<path class="st17" d="M-481.7-65.5l67.7-27.4l13.6,29.4l-59.1,39c-9.3,5.6-21.3,3-27.5-5.8l0,0
										C-494.1-40.5-492.6-59.7-481.7-65.5z"/>
								</g>
							</g>
							<line class="st19" x1="-455.8" y1="-76" x2="-464" y2="-72.7"/>
						</g>
					</g>
				</g>
				<g>
					<path class="st17" d="M-509.3-151.3c0,0,7.8,9.2,11,48.8C-495.1-62.9-494,5-494,5l0,0c13.8-2.8,23.6-15.2,23.2-29.3
						c-0.9-29.4-3-77.2-7.6-97.4l-4.3-22c-0.2-1-1.2-4.2-1.2-4.2s-3.5-3.2-25-8.1L-509.3-151.3z"/>
					<path class="st19" d="M-470.9-21.6c0,0,0.2-56.3-6.5-97.2"/>
				</g>
			</g>
		</g>
		<g>
			<path class="st21" d="M-543.2-196.8c0,0-7.7,12.5,3.6,12.1c0,0,4.7-3.9,3.7-11.2L-543.2-196.8z"/>
			<path class="st21" d="M-475.9-231.6c-0.2-2.4-1-4.9-2.4-7.4c-16.3-30.2-51.8-6.1-51.8-6.1l6.2,21.1
				C-509-232.9-491.4-236.6-475.9-231.6z"/>
			<path class="st22" d="M-523.8-224l6.9,27.4c0,0,43.4-12.5,41-35C-491.4-236.6-506.8-238.7-523.8-224z"/>
			<path class="st23" d="M-503.1-199.8c1.2,4.8,6.1,7.6,10.9,6.4c4.8-1.2,7.6-6.1,6.4-10.9c-1.2-4.8-6.1-7.6-10.9-6.4
				C-501.5-209.4-504.4-204.5-503.1-199.8z"/>
			<path class="st18" d="M-510.8-180.8l1.6,26.4c-0.7,10.7-13.8,15.4-21.1,7.7l-10.6-11.3l3.2-46.1L-510.8-180.8z"/>
			<path class="st5" d="M-510-167.8c0,0-17.3-0.7-18.6-18.2l17.8,5.1L-510-167.8z"/>
			<path class="st18" d="M-492.6-238c0,0,5.7,36.1,1.2,47.4c-4.4,11.4-14.3,18.3-29.5,14.9c0,0-17.8-1.4-21-27.2
				C-546.7-241.7-510.1-259.1-492.6-238z"/>
			<g>
				<path class="st24" d="M-495.6-208.3c0.2,1.1,1.3,1.8,2.4,1.5c1.1-0.2,1.8-1.3,1.5-2.4c-0.2-1.1-1.3-1.8-2.4-1.5
					C-495.1-210.4-495.8-209.4-495.6-208.3z"/>
				<path class="st24" d="M-512.8-208.6c0.2,1.1,1.3,1.8,2.4,1.5s1.8-1.3,1.5-2.4c-0.2-1.1-1.3-1.8-2.4-1.5
					C-512.3-210.8-513-209.7-512.8-208.6z"/>
				<polyline class="st25" points="-499.3,-206.8 -497.3,-199.8 -500.6,-198.2 				"/>
				<path class="st7" d="M-514.1-223.1c0,0,6.3-1.5,6.8,1.9c0,0,0.3,2.3-5.3,3.5c-5.5,1.2-7.8,1.1-8.5-1
					C-521.9-220.8-517.1-222.7-514.1-223.1z"/>
				<path class="st7" d="M-490.4-223.6c0,0-5.9-1.5-6.5,1.9c0,0-0.4,2.3,4.8,3.4c3.8,0.8,5.1,0.1,5.4-1.5
					C-486.5-221.5-488.2-223.2-490.4-223.6z"/>
				<path class="st2" d="M-510.4-195.2l11.8,0.9c0,0-0.1,4.6-6.1,4.2C-510.7-190.5-510.4-195.2-510.4-195.2z"/>
			</g>
			<path class="st21" d="M-533-205.1l1.7-13.1c0,0,10.4-3.3,12.9-23c0,0-4.4-9-17.7-4.9s-24.9,13.8-10.3,38L-533-205.1z"/>
			<g>
				<path class="st18" d="M-553.9-199.7c1.5,5.8,7.4,9.2,13.2,7.7s9.2-7.4,7.7-13.2s-7.4-9.2-13.2-7.7
					C-551.9-211.4-555.4-205.5-553.9-199.7z"/>
				<path class="st25" d="M-548.2-205.8c0,0,8-2,9.8,6.8"/>
			</g>
			<g>
				<path class="st21" d="M-518.3-241.2c0,0,13.2-2.1,26.3,6.2l-2.8-11.7l-17.3-2.4l-16.5,6.2l4.1,0.4L-518.3-241.2z"/>
				<path class="st21" d="M-492.1-235c0,0,19.9,0,20,14.5c0,0.3,0.4,0.3,0.5,0c0.9-5.4-0.1-20.1-22-18.4L-492.1-235z"/>
			</g>
		</g>
	</g>
	<g>
		<g>
			<path class="st26" d="M-587-235h-44.4c-14.2,0-25.8-11.5-25.8-25.8v-8.2c0-14.2,11.5-25.8,25.8-25.8h44.4
				c14.2,0,25.8,11.5,25.8,25.8v8.3C-561.2-246.5-572.8-235-587-235z"/>
			<path class="st26" d="M-596.2-240.9l12.1,15.3c1.3,1.7,4,0.3,3.4-1.7l-4.2-15.9L-596.2-240.9z"/>
		</g>
	</g>
</g>
<g>
	<g>
		<path class="st27" d="M525.5,129c0,0,7,43.7,22.8,68.1c3,4.6,1.3,10.9-3.1,13.9c-17.8,11.5-67.8,33.3-131.7,8.3
			c-4.3-1.7-6.9-6.1-6.3-10.7c1.3-11.9,11.5-35,26.7-55.7L525.5,129z"/>
		<path class="st28" d="M437,169.5c-2.4,7.8-10.6,12.2-18.3,9.8c-7.8-2.4-12.2-10.6-9.8-18.3c2.4-7.8,10.6-12.2,18.3-9.8
			C435,153.4,439.4,161.8,437,169.5z"/>
		<polygon class="st29" points="454.3,199.5 455.7,259.4 502.2,253.8 493.5,166 		"/>
		<path class="st5" d="M454.8,221.8c0,0,21.1-1.1,22-25.2l-22.4,11.9L454.8,221.8z"/>
		<path class="st29" d="M426.7,112.5c-3.7,3.1-6.1,7.6-7,12.4c-2.8,14.1-8.3,43.5-3.3,58.5c6.5,19.4,22.4,31.8,48,27
			c0,0,29.6-1.3,37-45C511.5,103.6,458.5,85.7,426.7,112.5z"/>
		<g>
			<circle class="st5" cx="421.7" cy="157" r="3.3"/>
			<path class="st5" d="M453.5,158.4c-0.6,1.9-2.4,3-4.1,2.4c-1.9-0.6-3-2.4-2.4-4.1c0.6-1.9,2.4-3,4.1-2.4
				C453,154.7,453.9,156.6,453.5,158.4z"/>
			<polyline class="st30" points="430.7,165.3 427.4,173.4 432.8,174.7 			"/>
			<path class="st27" d="M453.5,137.9c0,0-10.6-1.9-11.1,3c0,0-0.4,3.3,8.9,4.6c9.1,1.5,12.8,1.1,13.9-1.9
				C466.5,140.7,458.5,138.3,453.5,137.9z"/>
			<path class="st27" d="M417.8,138.1c0,0,9.1-2,10.4,2.6c0,0,0.7,3.1-7.2,4.6c-5.9,1.1-8,0.2-8.5-2
				C411.9,140.7,414.4,138.4,417.8,138.1z"/>
			<path class="st2" d="M430.4,181l18.9,0.4c0,0,0,7.6-9.6,7.4C430,188.6,430.4,181,430.4,181z"/>
		</g>
		<path class="st27" d="M489.8,160.8c0,0-15.6-13.7-12.4-40.4c0,0-26.3,4.6-57.6,2.4c0,0,7-41.3,66.3-31.3
			C547.8,101.8,525,173.3,502,194L489.8,160.8z"/>
		<g>
			
				<ellipse transform="matrix(0.9416 -0.3367 0.3367 0.9416 -27.1186 179.0345)" class="st29" cx="502.6" cy="167.7" rx="18" ry="18"/>
			<path class="st30" d="M510.5,162.3c0,0-13.1-3.7-16.7,10.7"/>
		</g>
		<path class="st27" d="M463.7,90.1c0,0-51.7,0.9-58.1,41.8l81.8,1.9l4.8-27.4L463.7,90.1z"/>
	</g>
	<g>
		<g>
			<polygon class="st29" points="397.4,359.7 403.2,437.1 371.1,534.5 406.7,534.5 461.8,481 455.9,364.7 			"/>
			<path class="st17" d="M411.5,266.8c0,0-40.4,29.1-28.5,122.8h66.1L411.5,266.8z"/>
		</g>
		<path class="st5" d="M428,436.2L405.7,534c83,23.5,160,0,160,0s-4.3-37.6-33.1-98.5L428,436.2z"/>
		<g>
			<path class="st17" d="M523,249.2l-81.1,1.3c0,0-17.8,5.9-30.4,16.3l2.6,68.5L428,436.2l104.6-0.7l20.6-156.8L523,249.2z"/>
			<path class="st29" d="M478.7,237.3c0,0,20.7,2,44.3,11.9c0,0-6.9,26.3-45.7,26.5c-6.5,0-13-0.9-19.1-3.3
				c-8.1-3.3-17.6-9.6-16.3-21.7L478.7,237.3z"/>
			<line class="st31" x1="420" y1="387.9" x2="412.4" y2="332.7"/>
		</g>
		<g>
			<g>
				<path class="st29" d="M580,439.7c0.2-2-3.7-97-3.7-97h-44.8l-0.7,70.9L580,439.7z"/>
				<g>
					<g>
						<path class="st17" d="M523,249.2c0,0,55.7,15.4,62.6,50s23.1,92.4,23.1,92.4l-85.7,0.2l6.5-116.3L523,249.2z"/>
					</g>
					<line class="st31" x1="526.1" y1="397.9" x2="518.9" y2="346.6"/>
				</g>
			</g>
		</g>
	</g>
</g>
<g>
	<g>
		<path class="st26" d="M-305.5-264h44.4c14.2,0,25.8-11.5,25.8-25.8v-8.3c0-14.2-11.5-25.8-25.8-25.8h-44.4
			c-14.2,0-25.8,11.5-25.8,25.8v8.3C-331.3-275.6-319.7-264-305.5-264z"/>
		<path class="st26" d="M-290.2-270l-12.1,15.3c-1.3,1.7-4,0.3-3.4-1.7l4.2-15.9L-290.2-270z"/>
	</g>
</g>
<g>
	<g>
		<g>
			<path class="st16" d="M-153.4-281.9h41.7c14.2,0,25.8-11.5,25.8-25.8v-8.3c0-14.2-11.5-25.8-25.8-25.8h-41.7
				c-14.2,0-25.8,11.5-25.8,25.8v8.3C-179.2-293.5-167.6-281.9-153.4-281.9z"/>
			<path class="st16" d="M-142.7-287.9l-12.1,15.3c-1.3,1.7-4,0.3-3.4-1.7l4.2-15.9L-142.7-287.9z"/>
		</g>
	</g>
	<g>
		<g>
			<ellipse class="st32" cx="-202" cy="-204.4" rx="9.2" ry="9.2"/>
			<polygon class="st33" points="-183.8,-182.3 -183,-146.3 -150.2,-148.6 -156.9,-207.1 			"/>
			<path class="st7" d="M-183.5-167.2c0,0,17.8-1.5,18.7-22.8l-19,8.7L-183.5-167.2z"/>
			<path class="st33" d="M-190.8-243.8c-8.2,3.2-13.8,11-14.7,19.8c-1.1,10.1-2,25.8,1.2,33.5c4.9,11.9,15.2,18.9,30.8,14.6
				c0,0,18.3-2.2,20.9-29.8C-149.4-238.3-172.3-251.1-190.8-243.8z"/>
			<g>
				<path class="st7" d="M-200.1-210c-0.2,1.1-1.3,1.9-2.4,1.7s-1.9-1.3-1.7-2.4c0.2-1.1,1.3-1.9,2.4-1.7
					C-200.6-212.2-199.8-211.2-200.1-210z"/>
				<path class="st7" d="M-182.4-210.9c-0.2,1.1-1.3,1.9-2.4,1.7s-1.9-1.3-1.7-2.4c0.2-1.1,1.3-1.9,2.4-1.7
					C-182.9-213.2-182.2-212.1-182.4-210.9z"/>
				<path class="st34" d="M-196.2-208.6l-1.5,6c-0.2,0.6,0.3,1.3,0.9,1.4l2.2,0.4"/>
				<path class="st7" d="M-180.5-224.5c0,0-6.6-1.4-6.9,2.2c0,0-0.2,2.4,5.5,3.4s8,0.9,8.7-1.3
					C-172.4-222.5-177.4-224.2-180.5-224.5z"/>
				<path class="st7" d="M-204.8-224.2c0,0,6-1.7,6.8,1.7c0,0,0.5,2.3-4.8,3.7c-3.8,1-5.2,0.3-5.6-1.3
					C-208.9-222-207.1-223.8-204.8-224.2z"/>
				<g>
					<g>
						<path id="XMLID_7_" class="st7" d="M-197.2-196.5l12.8,0.5c0,0-0.3,5.5-6.5,5.5C-197.3-190.5-197.2-196.5-197.2-196.5z"/>
					</g>
					<g>
						<g>
							<defs>
								<path id="SVGID_6_" d="M-197.2-196.5l12.8,0.5c0,0-0.3,5.5-6.5,5.5C-197.3-190.5-197.2-196.5-197.2-196.5z"/>
							</defs>
							<clipPath id="SVGID_7_">
								<use xlink:href="#SVGID_6_"  style="overflow:visible;"/>
							</clipPath>
							<path class="st35" d="M-184.1-187c-1.1,2.4-3.9,3.4-6.3,2.3c-2.4-1.1-3.4-3.9-2.3-6.3c1.1-2.4,3.9-3.4,6.3-2.3
								C-184.1-192.2-183-189.4-184.1-187z"/>
						</g>
					</g>
				</g>
			</g>
			<path class="st7" d="M-161-205.7c0,0-7.4-13.9-4.7-29.1c0,0-22.6,3.8-35.7-0.4c0,0,3.1-18.7,33.5-16.2
				c41.6,3.3,29.5,47.7,9.6,55.3L-161-205.7z"/>
			<g>
				<path class="st33" d="M-140.6-201.1c-1.4,6-7.3,9.7-13.3,8.4c-6-1.4-9.7-7.3-8.4-13.3c1.4-6,7.3-9.7,13.3-8.4
					S-139.2-207.1-140.6-201.1z"/>
				<path class="st34" d="M-146.7-207.2c0,0-8.3-1.7-9.8,7.4"/>
			</g>
		</g>
		<g>
			<g>
				<polygon class="st33" points="-228.3,-90.1 -228.3,-36.7 -253.3,7.2 -228.7,4.3 -198.9,-24.6 -202.1,-87.4 				"/>
				<path class="st3" d="M-211.3-142.5c0,0-19.4,11.3-22.5,39.4v39.9l31.7-1.1L-211.3-142.5z"/>
			</g>
			<g>
				<path class="st3" d="M-187.4-151.6c0,0-15.9,3-23.9,9.1l-2.4,143.1c51.1,30.8,109.5,0.9,109.5,0.9L-120-141.8
					c0,0-2.1-8.1-24.3-9.8H-187.4z"/>
				<path class="st33" d="M-144.3-151.5c0,0-18.3-4-43.1,0c0,0-2.4,14.7,17.6,15.4C-148.2-135.5-144.3-151.5-144.3-151.5z"/>
				<line class="st36" x1="-212.6" y1="-63.3" x2="-212.7" y2="-113.5"/>
			</g>
			<g>
				<g>
					<path class="st33" d="M-168.9-67.2c0,0-3.5-10.2-16.2-12.8l-8.9-8.7c-1.4-1.4-3.5-1.5-5.1-0.3l0,0c-1.7,1.3-2,3.6-0.8,5.3
						l4.4,6.1l-2.4-1c-3.8-1.6-7-4.5-8.9-8.2l-5.6-10.4c-0.6-1.2-1.9-1.9-3.2-1.9l0,0c-2.6,0-4.4,2.6-3.5,5l5.6,14.6
						c2.2,5.6,6.7,10.1,12.4,12.1l28.4,12.6L-168.9-67.2z"/>
					<path class="st33" d="M-168.9-67.2L-90-37c6.8,3,10.1,14.6,7.1,21.3l0,0c-3.4,7.5-12.8,10.2-19.6,5.6l-70.2-44.7L-168.9-67.2z"
						/>
				</g>
				<g>
					<polygon class="st33" points="-81.9,-23.5 -90.1,-87.2 -128.4,-90.1 -115,-33.2 					"/>
					<g>
						<path class="st3" d="M-129.6-148.8c0,0,47.8,7.9,53.5,85.5h-58.8l-3.9-50.2L-129.6-148.8z"/>
						<polyline class="st36" points="-122.1,-63.3 -133.2,-63.3 -140,-103.3 						"/>
					</g>
				</g>
			</g>
		</g>
	</g>
</g>
<g>
	<text transform="matrix(1 0 0 1 154.6021 610.506)" class="st2" style="font-family:'Roboto-Medium'; font-size:38px;">Avisos importantes</text>
</g>
<path class="st37" d="M630.6,412.5H0.6v-61c0-11.9,9.7-21.6,21.6-21.6H609c11.9,0,21.6,9.7,21.6,21.6V412.5z"/>
<g>
	<text transform="matrix(1 0 0 1 220.8267 495.0807)" style="font-family:'Roboto-Medium'; font-size:38px;">¿Cómo certifico el curso?</text>
</g>
<g>
	<g class="st38">
		<path d="M111.1,370.4c0,1.5-0.2,2.8-0.5,3.6c-0.3,0.9-0.9,1.8-1.8,2.8l-1.9,2c-1.1,1.2-1.7,2.5-1.7,3.8c0,1.2,0.3,2,0.9,2.6
			c0.6,0.6,1.5,0.9,2.6,0.9c1.1,0,2-0.3,2.6-0.9c0.7-0.6,1-1.4,1-2.5h4.5c0,2.2-0.8,3.9-2.3,5.2c-1.5,1.3-3.4,1.9-5.8,1.9
			c-2.5,0-4.5-0.6-5.9-1.9c-1.4-1.2-2.1-3-2.1-5.3c0-2,1-4.1,2.9-6.1l1.7-1.7c1-0.9,1.5-2,1.6-3.5l0-1H111.1z M111.5,364.7
			c0,0.7-0.2,1.3-0.7,1.7c-0.4,0.5-1.1,0.7-1.9,0.7s-1.4-0.2-1.9-0.7s-0.7-1-0.7-1.7c0-0.7,0.2-1.2,0.7-1.7s1.1-0.7,1.9-0.7
			s1.4,0.2,1.9,0.7C111.2,363.4,111.5,364,111.5,364.7z"/>
		<path d="M141.2,373.9c-0.3,2.9-1.3,5.1-3.2,6.7c-1.9,1.6-4.3,2.4-7.4,2.4c-2.2,0-4-0.5-5.7-1.5c-1.6-1-2.9-2.5-3.8-4.4
			c-0.9-1.9-1.4-4.1-1.4-6.5v-2.5c0-2.5,0.5-4.8,1.4-6.7c0.9-1.9,2.2-3.4,3.9-4.5c1.7-1.1,3.6-1.6,5.9-1.6c3,0,5.4,0.8,7.2,2.4
			c1.8,1.6,2.9,3.9,3.2,6.9h-4.7c-0.2-1.9-0.8-3.3-1.7-4.2c-0.9-0.9-2.2-1.3-4-1.3c-2,0-3.6,0.7-4.7,2.2c-1.1,1.5-1.7,3.7-1.7,6.6
			v2.4c0,2.9,0.5,5.2,1.6,6.7c1,1.5,2.6,2.3,4.6,2.3c1.8,0,3.2-0.4,4.2-1.2c0.9-0.8,1.5-2.2,1.8-4.1H141.2z"/>
		<path d="M144.1,372.5c0-2,0.4-3.7,1.2-5.3c0.8-1.6,1.9-2.8,3.3-3.6c1.4-0.8,3-1.3,4.9-1.3c2.7,0,4.9,0.9,6.6,2.6s2.6,4.1,2.7,6.9
			l0,1.1c0,2-0.4,3.7-1.1,5.3s-1.8,2.8-3.3,3.6c-1.4,0.9-3.1,1.3-4.9,1.3c-2.8,0-5.1-0.9-6.8-2.8c-1.7-1.9-2.6-4.4-2.6-7.5V372.5z
			 M148.7,372.9c0,2.1,0.4,3.7,1.3,4.9c0.9,1.2,2,1.8,3.6,1.8s2.7-0.6,3.6-1.8c0.8-1.2,1.3-2.9,1.3-5.2c0-2-0.4-3.6-1.3-4.8
			s-2.1-1.8-3.6-1.8c-1.5,0-2.6,0.6-3.5,1.8C149.1,368.8,148.7,370.6,148.7,372.9z M154.7,354.2h5.1l-5.1,5.6l-3.6,0L154.7,354.2z"
			/>
		<path d="M170.9,362.7l0.1,2.1c1.4-1.6,3.3-2.5,5.8-2.5c2.7,0,4.5,1,5.5,3.1c1.5-2.1,3.5-3.1,6.2-3.1c2.2,0,3.9,0.6,4.9,1.8
			c1.1,1.2,1.6,3,1.7,5.4v13.2h-4.5v-13.1c0-1.3-0.3-2.2-0.8-2.8s-1.5-0.9-2.8-0.9c-1,0-1.9,0.3-2.5,0.8c-0.6,0.6-1.1,1.3-1.4,2.2
			l0,13.8h-4.5v-13.2c-0.1-2.4-1.3-3.5-3.6-3.5c-1.8,0-3.1,0.7-3.8,2.2v14.5h-4.5v-20.1H170.9z"/>
		<path d="M198.8,372.5c0-2,0.4-3.7,1.2-5.3c0.8-1.6,1.9-2.8,3.3-3.6c1.4-0.8,3-1.3,4.9-1.3c2.7,0,4.9,0.9,6.6,2.6s2.6,4.1,2.7,6.9
			l0,1.1c0,2-0.4,3.7-1.1,5.3s-1.8,2.8-3.3,3.6c-1.4,0.9-3.1,1.3-4.9,1.3c-2.8,0-5.1-0.9-6.8-2.8c-1.7-1.9-2.6-4.4-2.6-7.5V372.5z
			 M203.4,372.9c0,2.1,0.4,3.7,1.3,4.9c0.9,1.2,2,1.8,3.6,1.8s2.7-0.6,3.6-1.8c0.8-1.2,1.3-2.9,1.3-5.2c0-2-0.4-3.6-1.3-4.8
			s-2.1-1.8-3.6-1.8c-1.5,0-2.6,0.6-3.5,1.8C203.8,368.8,203.4,370.6,203.4,372.9z"/>
		<path d="M239,379.5c1.1,0,2.1-0.3,2.8-1c0.7-0.7,1.1-1.5,1.2-2.4h4.2c0,1.3-0.4,2.4-1.2,3.5c-0.7,1.1-1.7,1.9-3,2.6
			c-1.2,0.6-2.6,0.9-4,0.9c-2.8,0-5-0.9-6.7-2.7c-1.6-1.8-2.5-4.3-2.5-7.5v-0.5c0-3.1,0.8-5.5,2.4-7.3c1.6-1.8,3.9-2.8,6.7-2.8
			c2.4,0,4.3,0.7,5.8,2.1c1.5,1.4,2.3,3.2,2.4,5.5H243c0-1.2-0.4-2.1-1.2-2.8c-0.7-0.7-1.7-1.1-2.8-1.1c-1.5,0-2.6,0.5-3.4,1.6
			c-0.8,1.1-1.2,2.7-1.2,4.8v0.7c0,2.2,0.4,3.8,1.2,4.9C236.4,379,237.6,379.5,239,379.5z"/>
		<path d="M259.5,383.1c-2.9,0-5.2-0.9-6.9-2.7c-1.8-1.8-2.7-4.2-2.7-7.2v-0.6c0-2,0.4-3.8,1.2-5.4c0.8-1.6,1.9-2.8,3.3-3.7
			c1.4-0.9,3-1.3,4.7-1.3c2.7,0,4.8,0.9,6.3,2.6c1.5,1.7,2.2,4.2,2.2,7.4v1.8h-13.1c0.1,1.7,0.7,3,1.7,3.9c1,1,2.2,1.4,3.7,1.4
			c2.1,0,3.7-0.8,5-2.5l2.4,2.3c-0.8,1.2-1.9,2.1-3.2,2.8C262.7,382.8,261.2,383.1,259.5,383.1z M259,365.9c-1.2,0-2.2,0.4-3,1.3
			c-0.8,0.9-1.2,2.1-1.5,3.6h8.6v-0.3c-0.1-1.5-0.5-2.7-1.2-3.4C261.2,366.3,260.2,365.9,259,365.9z"/>
		<path d="M281.6,366.8c-0.6-0.1-1.2-0.1-1.8-0.1c-2.1,0-3.5,0.8-4.2,2.4v13.7h-4.5v-20.1h4.3l0.1,2.2c1.1-1.7,2.6-2.6,4.5-2.6
			c0.6,0,1.2,0.1,1.6,0.3L281.6,366.8z"/>
		<path d="M291,357.8v4.9h3.5v3.3H291v11.2c0,0.8,0.2,1.3,0.5,1.7c0.3,0.3,0.8,0.5,1.6,0.5c0.5,0,1-0.1,1.6-0.2v3.5
			c-1,0.3-2,0.4-3,0.4c-3.5,0-5.2-1.9-5.2-5.7V366h-3.3v-3.3h3.3v-4.9H291z"/>
		<path d="M298,357.4c0-0.7,0.2-1.3,0.7-1.7c0.4-0.5,1.1-0.7,1.9-0.7s1.4,0.2,1.9,0.7c0.4,0.5,0.7,1,0.7,1.7c0,0.7-0.2,1.2-0.7,1.7
			c-0.4,0.5-1.1,0.7-1.9,0.7s-1.4-0.2-1.9-0.7C298.2,358.7,298,358.1,298,357.4z M302.8,382.7h-4.5v-20.1h4.5V382.7z"/>
		<path d="M309.3,382.7V366h-3.1v-3.3h3.1v-1.8c0-2.2,0.6-3.9,1.9-5.2c1.2-1.2,3-1.8,5.2-1.8c0.8,0,1.6,0.1,2.5,0.3l-0.1,3.5
			c-0.5-0.1-1.1-0.1-1.7-0.1c-2.2,0-3.2,1.1-3.2,3.3v1.8h4.1v3.3h-4.1v16.7H309.3z"/>
		<path d="M321.2,357.4c0-0.7,0.2-1.3,0.7-1.7c0.4-0.5,1.1-0.7,1.9-0.7s1.4,0.2,1.9,0.7c0.4,0.5,0.7,1,0.7,1.7
			c0,0.7-0.2,1.2-0.7,1.7c-0.4,0.5-1.1,0.7-1.9,0.7s-1.4-0.2-1.9-0.7C321.4,358.7,321.2,358.1,321.2,357.4z M326,382.7h-4.5v-20.1
			h4.5V382.7z"/>
		<path d="M339.1,379.5c1.1,0,2.1-0.3,2.8-1c0.7-0.7,1.1-1.5,1.2-2.4h4.2c0,1.3-0.4,2.4-1.2,3.5c-0.7,1.1-1.7,1.9-3,2.6
			s-2.6,0.9-4,0.9c-2.8,0-5-0.9-6.7-2.7s-2.5-4.3-2.5-7.5v-0.5c0-3.1,0.8-5.5,2.4-7.3c1.6-1.8,3.9-2.8,6.7-2.8
			c2.4,0,4.3,0.7,5.8,2.1c1.5,1.4,2.3,3.2,2.4,5.5h-4.2c0-1.2-0.4-2.1-1.2-2.8c-0.7-0.7-1.7-1.1-2.8-1.1c-1.5,0-2.6,0.5-3.4,1.6
			c-0.8,1.1-1.2,2.7-1.2,4.8v0.7c0,2.2,0.4,3.8,1.2,4.9C336.5,379,337.6,379.5,339.1,379.5z"/>
		<path d="M349.9,372.5c0-2,0.4-3.7,1.2-5.3c0.8-1.6,1.9-2.8,3.3-3.6c1.4-0.8,3-1.3,4.9-1.3c2.7,0,4.9,0.9,6.6,2.6s2.6,4.1,2.7,6.9
			l0,1.1c0,2-0.4,3.7-1.1,5.3s-1.8,2.8-3.3,3.6c-1.4,0.9-3.1,1.3-4.9,1.3c-2.8,0-5.1-0.9-6.8-2.8c-1.7-1.9-2.6-4.4-2.6-7.5V372.5z
			 M354.4,372.9c0,2.1,0.4,3.7,1.3,4.9c0.9,1.2,2,1.8,3.6,1.8s2.7-0.6,3.6-1.8c0.8-1.2,1.3-2.9,1.3-5.2c0-2-0.4-3.6-1.3-4.8
			s-2.1-1.8-3.6-1.8c-1.5,0-2.6,0.6-3.5,1.8C354.9,368.8,354.4,370.6,354.4,372.9z"/>
		<path d="M390.7,383.1c-2.9,0-5.2-0.9-6.9-2.7c-1.8-1.8-2.7-4.2-2.7-7.2v-0.6c0-2,0.4-3.8,1.2-5.4c0.8-1.6,1.9-2.8,3.3-3.7
			c1.4-0.9,3-1.3,4.7-1.3c2.7,0,4.8,0.9,6.3,2.6c1.5,1.7,2.2,4.2,2.2,7.4v1.8h-13.1c0.1,1.7,0.7,3,1.7,3.9c1,1,2.2,1.4,3.7,1.4
			c2.1,0,3.7-0.8,5-2.5l2.4,2.3c-0.8,1.2-1.9,2.1-3.2,2.8C393.9,382.8,392.4,383.1,390.7,383.1z M390.2,365.9c-1.2,0-2.2,0.4-3,1.3
			c-0.8,0.9-1.2,2.1-1.5,3.6h8.6v-0.3c-0.1-1.5-0.5-2.7-1.2-3.4C392.4,366.3,391.4,365.9,390.2,365.9z"/>
		<path d="M407.1,382.7h-4.5v-28.5h4.5V382.7z"/>
		<path d="M429.7,379.5c1.1,0,2.1-0.3,2.8-1c0.7-0.7,1.1-1.5,1.2-2.4h4.2c0,1.3-0.4,2.4-1.2,3.5c-0.7,1.1-1.7,1.9-3,2.6
			s-2.6,0.9-4,0.9c-2.8,0-5-0.9-6.7-2.7s-2.5-4.3-2.5-7.5v-0.5c0-3.1,0.8-5.5,2.4-7.3c1.6-1.8,3.9-2.8,6.7-2.8
			c2.4,0,4.3,0.7,5.8,2.1c1.5,1.4,2.3,3.2,2.4,5.5h-4.2c0-1.2-0.4-2.1-1.2-2.8c-0.7-0.7-1.7-1.1-2.8-1.1c-1.5,0-2.6,0.5-3.4,1.6
			c-0.8,1.1-1.2,2.7-1.2,4.8v0.7c0,2.2,0.4,3.8,1.2,4.9C427,379,428.2,379.5,429.7,379.5z"/>
		<path d="M453.5,380.8c-1.3,1.6-3.2,2.3-5.6,2.3c-2.2,0-3.8-0.6-4.9-1.9c-1.1-1.3-1.7-3.1-1.7-5.5v-13h4.5v13
			c0,2.5,1.1,3.8,3.2,3.8c2.2,0,3.7-0.8,4.4-2.4v-14.4h4.5v20.1h-4.2L453.5,380.8z"/>
		<path d="M472.9,366.8c-0.6-0.1-1.2-0.1-1.8-0.1c-2.1,0-3.5,0.8-4.2,2.4v13.7h-4.5v-20.1h4.3l0.1,2.2c1.1-1.7,2.6-2.6,4.5-2.6
			c0.6,0,1.2,0.1,1.6,0.3L472.9,366.8z"/>
		<path d="M487,377.3c0-0.8-0.3-1.4-1-1.8c-0.7-0.4-1.8-0.8-3.3-1.1c-1.5-0.3-2.8-0.7-3.8-1.2c-2.3-1.1-3.4-2.7-3.4-4.7
			c0-1.7,0.7-3.2,2.2-4.3c1.5-1.2,3.3-1.7,5.6-1.7c2.4,0,4.3,0.6,5.8,1.8c1.5,1.2,2.2,2.7,2.2,4.6h-4.5c0-0.9-0.3-1.6-1-2.2
			c-0.6-0.6-1.5-0.9-2.6-0.9c-1,0-1.8,0.2-2.4,0.7c-0.6,0.5-0.9,1.1-0.9,1.8c0,0.7,0.3,1.2,0.9,1.6c0.6,0.4,1.8,0.8,3.5,1.2
			c1.8,0.4,3.2,0.9,4.2,1.4c1,0.5,1.8,1.2,2.2,1.9c0.5,0.8,0.7,1.7,0.7,2.7c0,1.8-0.7,3.3-2.2,4.4c-1.5,1.1-3.5,1.7-5.9,1.7
			c-1.6,0-3.1-0.3-4.4-0.9s-2.3-1.4-3-2.4s-1.1-2.2-1.1-3.4h4.4c0.1,1.1,0.5,1.9,1.2,2.5c0.7,0.6,1.7,0.9,3,0.9
			c1.2,0,2.1-0.2,2.7-0.7C486.7,378.6,487,378,487,377.3z"/>
		<path d="M494.6,372.5c0-2,0.4-3.7,1.2-5.3c0.8-1.6,1.9-2.8,3.3-3.6c1.4-0.8,3-1.3,4.9-1.3c2.7,0,4.9,0.9,6.6,2.6s2.6,4.1,2.7,6.9
			l0,1.1c0,2-0.4,3.7-1.1,5.3s-1.8,2.8-3.3,3.6c-1.4,0.9-3.1,1.3-4.9,1.3c-2.8,0-5.1-0.9-6.8-2.8c-1.7-1.9-2.6-4.4-2.6-7.5V372.5z
			 M499.1,372.9c0,2.1,0.4,3.7,1.3,4.9c0.9,1.2,2,1.8,3.6,1.8s2.7-0.6,3.6-1.8c0.8-1.2,1.3-2.9,1.3-5.2c0-2-0.4-3.6-1.3-4.8
			s-2.1-1.8-3.6-1.8c-1.5,0-2.6,0.6-3.5,1.8C499.5,368.8,499.1,370.6,499.1,372.9z"/>
		<path d="M521.2,374.8c0-1.6,0.2-3,0.6-3.9s1.2-2.1,2.4-3.2c1.2-1.2,2-2,2.3-2.5c0.5-0.8,0.7-1.6,0.7-2.4c0-1.2-0.3-2-0.9-2.7
			s-1.4-0.9-2.5-0.9c-1.1,0-1.9,0.3-2.6,0.9s-1,1.4-1,2.4h-4.5c0-2.2,0.8-3.9,2.2-5.2s3.4-1.9,5.8-1.9c2.5,0,4.4,0.6,5.8,1.9
			s2.1,3,2.1,5.3c0,2-0.9,4-2.8,6l-2.3,2.2c-0.8,0.9-1.2,2.3-1.3,4.1H521.2z M520.9,380.6c0-0.7,0.2-1.3,0.7-1.8s1.1-0.7,1.9-0.7
			c0.8,0,1.4,0.2,1.9,0.7s0.7,1,0.7,1.7c0,0.7-0.2,1.2-0.7,1.7s-1.1,0.7-1.9,0.7s-1.4-0.2-1.9-0.7
			C521.1,381.8,520.9,381.2,520.9,380.6z"/>
	</g>
</g>
<g>
	<g>
		<g>
			<path id="SVGID_4_" class="st39" d="M315,331.1v-16.4c0-47.1-35.7-85.3-79.8-85.3H105.3c-44,0-79.8,38.2-79.8,85.3v16.4H315z"/>
		</g>
		<g>
			<defs>
				<path id="SVGID_8_" d="M315,331.1v-16.4c0-47.1-35.7-85.3-79.8-85.3H105.3c-44,0-79.8,38.2-79.8,85.3v16.4H315z"/>
			</defs>
			<clipPath id="SVGID_9_">
				<use xlink:href="#SVGID_8_"  style="overflow:visible;"/>
			</clipPath>
			<g class="st40">
				<g>
					<g>
						<path class="st39" d="M58.6,241.5c6,14.7,66.3,37.8,85.3,43.3c18.9,5.5,28.4-35.9,28.4-35.9s-41.3-38.7-77.5-30.4
							S58.6,241.5,58.6,241.5z"/>
					</g>
				</g>
			</g>
		</g>
		<g>
			<defs>
				<path id="SVGID_10_" d="M315,331.1v-16.4c0-47.1-35.7-85.3-79.8-85.3H105.3c-44,0-79.8,38.2-79.8,85.3v16.4H315z"/>
			</defs>
			<clipPath id="SVGID_11_">
				<use xlink:href="#SVGID_10_"  style="overflow:visible;"/>
			</clipPath>
			<g class="st41">
				<g>
					<g>
						<path class="st39" d="M282.1,241.5c-6,14.7-66.3,37.8-85.3,43.3c-18.9,5.5-28.4-35.9-28.4-35.9s41.3-38.7,77.5-30.4
							S282.1,241.5,282.1,241.5z"/>
					</g>
				</g>
			</g>
		</g>
	</g>
	<path class="st42" d="M98.9,295.1c0,0-12.1,22.6-6,36.3"/>
	<path class="st42" d="M257.6,295.1c0,0,12.1,22.6,6,36.3"/>
	<g>
		<path class="st43" d="M206.7,156c1-2.1,3.6-3.1,5.9-2.7c2.3,0.4,4.2,2.1,5.4,4.2c1.2,2,1.7,4.3,2,6.6c0.6,4.4,0.5,9.2-2.3,12.7
			c-2,2.4-5.2,3.8-8.4,3.5c-3.1-0.3-6-2.3-7.5-5.1"/>
	</g>
	<path class="st44" d="M178.3,218.8L178.3,218.8c22.2-2.5,38.1-22.6,35.6-44.8l-4.6-40.2L182.8,121l-53.9,22l4.6,40.2
		C136.1,205.4,156.1,221.3,178.3,218.8z"/>
	<g>
		<path class="st45" d="M111.9,157.7c-2.6,2.3-2.6,6.4-1.2,9.5c1.5,3.1,4.1,5.4,6.6,7.7c0.4,0.4,0.8,0.8,0.9,1.4
			c0.1,0.7-0.4,1.3-0.5,2c-0.4,1.9,1.6,3.4,3.3,4.4c2.6,1.4,5.3,2.8,7.9,4.2c0.9,0.5,2.9-10.4,2.9-11.3c0-4,0.3-8.1,0.3-12.1
			c0-0.6,0-1.2,0.2-1.7c0.4-1,1.4-1.7,2.1-2.5c1.9-2.1,2.1-5.5,0.3-7.7c5.8-1.9,10.4-7.1,11.6-13.1c5.4,0.8,11.1-1,15.1-4.6
			c0.4-0.4,0.9-0.8,1.4-1c0.5-0.1,1,0,1.4,0c4.9,0.8,10.6,1.1,14.3-2.1c0.5-0.4,1-1,1.7-1c0.6,0,1.2,0.3,1.7,0.6
			c4.2,2.5,9.6,3.1,14.3,1.5c1.7,2.9,4.7,5.1,8,5.8c0.9,0.2,1.8,0.3,2.6,0.8c0.6,0.4,1,1,1.4,1.6c1.3,2.2,2.2,4.6,2.7,7.1
			c2.4-2.1,3.3-5.7,2.3-8.7c-0.1-0.4-0.3-0.9-0.2-1.3c0.4-2,2.3-3.8,2.8-6c0.6-2.7,0.3-5.6-1.1-8c-0.4-0.6-0.8-1.3-0.8-2
			c0-0.5,0.2-1.1,0.4-1.6c1.6-4.6,1.2-9.9-1.2-14.2c-2.4-4.3-6.6-7.4-11.4-8.5c-0.7-0.2-1.4-0.3-2.1-0.6c-0.9-0.5-1.5-1.4-2.1-2.2
			c-6.6-9.1-19.4-13-29.9-9.2c-0.8,0.3-1.6,0.6-2.4,0.6c-1.1,0-2.1-0.5-3.1-0.9c-6-2.5-13.1-1.9-18.6,1.6c-2.9,1.8-5.4,4.4-8.7,5.4
			c-1.6,0.5-3.4,0.5-5,1c-3.5,1-6.3,3.8-8,7.1c-1.7,3.3-2.3,6.9-2.7,10.6c-5.1,0.9-9.3,5.2-10.8,10.2s-0.5,10.5,1.8,15.2
			c-3.9,1.7-5.5,6.8-4.5,11S109.1,154.4,111.9,157.7z"/>
	</g>
	<path class="st44" d="M169.9,247.5c14.3,0,27.9-12.9,29.5-17.1v-29.2h-55.8l-0.6,36.2C148.7,243.1,160.6,247.5,169.9,247.5z"/>
	<g>
		<path class="st44" d="M137.6,170.4c-3.8-5.1-12-5.8-17-1.9c-5,3.9-6.6,11.3-4.2,17.2c1,2.6,2.7,4.8,4.5,6.9c1.5,1.7,3,3.4,4.9,4.7
			c2.9,2,6.6,2.8,10,1.9s6.3-3.6,7.1-7"/>
	</g>
	<path class="st46" d="M155.7,212c11.5,7,31.7,7,43.8-1.2"/>
	<g>
		<g>
			<path class="st45" d="M122,176.5c0.8-1.5,2.3-2.6,4.1-2.8c1.6-0.1,3.1,0.5,4.3,1.4c1.3,1,2.3,2.5,2.9,4c0.3,0.8,0.6,1.6,0.8,2.4
				c0.2,0.8,0.4,1.6,0.7,2.4c0.1,0.2,0.4,0.1,0.4-0.1c0-0.9-0.4-1.9-0.7-2.8c-0.3-0.9-0.6-1.8-1-2.7c-0.8-1.6-1.9-3-3.4-3.9
				c-1.3-0.8-3-1.3-4.5-1.1c-1.7,0.3-3.1,1.5-3.8,3C121.7,176.5,121.9,176.6,122,176.5L122,176.5z"/>
		</g>
	</g>
	<path class="st45" d="M161,166.5c0.1,2.2-1.6,4.1-3.8,4.2c-2.2,0.1-4.1-1.6-4.2-3.8c-0.1-2.2,1.6-4.1,3.8-4.2
		S160.9,164.3,161,166.5z"/>
	<path class="st45" d="M201.9,159.4c0.1,2.2-1.6,4.1-3.8,4.2c-2.2,0.1-4.1-1.6-4.2-3.8c-0.1-2.2,1.6-4.1,3.8-4.2
		S201.8,157.2,201.9,159.4z"/>
	<g>
		<g>
			<path class="st45" d="M184.5,168.2c1,1.8,1.8,3.6,2.7,5.5c0.6,1.5,1.3,2.9,1.7,4.5c0.3,1,0.8,2.3,0.4,3.4c-0.3,0.9-1.7,1-2.5,1.1
				c-1.4,0.1-2.7,0.1-4.1,0.2c-0.3,0-0.3,0.5,0,0.5c1.3,0,2.6,0,3.9-0.1c0.9-0.1,1.8-0.2,2.6-0.7c1-0.7,0.8-2.1,0.6-3.1
				c-0.3-1.6-0.9-3.1-1.6-4.5c-0.7-1.5-1.4-3-2.2-4.5c-0.4-0.8-0.9-1.5-1.3-2.3C184.6,168.1,184.5,168.2,184.5,168.2L184.5,168.2z"
				/>
		</g>
	</g>
	<path class="st47" d="M146.7,160.7c3.3-5.6,11.2-7.3,15.7-3.6"/>
	<path class="st47" d="M191.8,152.6c3-3.8,8.9-4.2,11.7-0.9"/>
	<g>
		<path class="st2" d="M171.1,190.1c0.1,5.8,3.3,11.3,7.8,13.5s14.1,2.5,15.4-12.1L171.1,190.1z"/>
	</g>
</g>
</svg>
