<?xml version="1.0" encoding="utf-8"?>
<!-- Generator: Adobe Illustrator 25.2.1, SVG Export Plug-In . SVG Version: 6.00 Build 0)  -->
<!DOCTYPE svg PUBLIC "-//W3C//DTD SVG 1.1//EN" "http://www.w3.org/Graphics/SVG/1.1/DTD/svg11.dtd" [
	<!ENTITY ns_extend "http://ns.adobe.com/Extensibility/1.0/">
	<!ENTITY ns_ai "http://ns.adobe.com/AdobeIllustrator/10.0/">
	<!ENTITY ns_graphs "http://ns.adobe.com/Graphs/1.0/">
	<!ENTITY ns_vars "http://ns.adobe.com/Variables/1.0/">
	<!ENTITY ns_imrep "http://ns.adobe.com/ImageReplacement/1.0/">
	<!ENTITY ns_sfw "http://ns.adobe.com/SaveForWeb/1.0/">
	<!ENTITY ns_custom "http://ns.adobe.com/GenericCustomNamespace/1.0/">
	<!ENTITY ns_adobe_xpath "http://ns.adobe.com/XPath/1.0/">
]>
<svg version="1.1" id="Capa_1" xmlns:x="&ns_extend;" xmlns:i="&ns_ai;" xmlns:graph="&ns_graphs;"
	 xmlns="http://www.w3.org/2000/svg" xmlns:xlink="http://www.w3.org/1999/xlink" x="0px" y="0px" viewBox="0 0 709.6 296.2"
	 style="enable-background:new 0 0 709.6 296.2;" xml:space="preserve">
<style type="text/css">
	.st0{fill:#FBCBBC;}
	.st1{fill:none;stroke:#000000;stroke-width:0.5167;stroke-miterlimit:10;}
	.st2{fill:#020202;}
	.st3{fill:none;stroke:#020202;stroke-width:0.5167;stroke-linecap:round;stroke-linejoin:round;stroke-miterlimit:10;}
	.st4{fill:none;stroke:#020202;stroke-width:0.6889;stroke-miterlimit:10;}
	.st5{fill:#F6EE74;}
	.st6{fill:#F8B1A2;}
	.st7{fill:#F5A3B4;}
	.st8{fill:none;stroke:#231F20;stroke-width:0.6889;stroke-linecap:round;stroke-linejoin:round;stroke-miterlimit:10;}
	.st9{fill:#38405E;}
	.st10{fill:#485072;}
	.st11{fill:#ADB5DC;}
	.st12{fill:#6559A5;}
	.st13{fill:#FFFFFF;}
	.st14{fill:#1DA8DE;}
	.st15{enable-background:new    ;}
	.st16{fill:#EF5B80;stroke:#231F20;stroke-miterlimit:10;}
	.st17{fill:#E2ECF1;}
	.st18{fill:none;stroke:#E2ECF1;stroke-width:2.0904;stroke-linecap:round;stroke-linejoin:round;stroke-miterlimit:10;}
	.st19{fill:#8276B5;stroke:#231F20;stroke-miterlimit:10;}
	.st20{fill:#F5A3B4;stroke:#231F20;stroke-miterlimit:10;}
	.st21{fill:#38405E;stroke:#231F20;stroke-miterlimit:10;}
	.st22{fill:#61657A;stroke:#231F20;stroke-miterlimit:10;}
</style>
<metadata>
	<sfw  xmlns="&ns_sfw;">
		<slices></slices>
		<sliceSourceBounds  bottomLeftOrigin="true" height="504.1" width="793.1" x="-77" y="-207.9"></sliceSourceBounds>
	</sfw>
</metadata>
<g>
	<g>
		<path class="st0" d="M188.3,37.6c0.5-1.1,1.8-1.7,3-1.4c1.2,0.3,2.1,1.1,2.8,2.1c0.6,1,0.9,2.1,1.1,3.4c0.3,2.2,0.3,4.8-1.1,6.5
			c-1,1.2-2.6,2-4.2,1.8c-1.6-0.1-3-1.2-3.9-2.5"/>
	</g>
	<path class="st1" d="M193.1,37.7l-7.4,0.4c-1.2,0.1-2.2,0.5-3.2,1.2l-1.5,1.2"/>
	<g>
		<path class="st0" d="M141.8,31.1c0.6-1.8,1.7-3.4,3-4.8c9.8-10.1,25.1-10.6,37.8-6.7c0.8,0.3,1.6,0.5,2.1,1.2
			c0.5,0.7,1.8,4.5,3,9.4c0,0,2.8,8.3,4.1,15.1c1.2,6.8,0.3,12.3-3.2,18.3c-5,8.3-22.4,10.5-30.7,5.4c-4.4-2.8-7.2-7.4-9.4-11.9
			c-2.3-4.9-5-10.3-6.4-15.6C141.3,38.3,140.9,34.1,141.8,31.1z"/>
	</g>
	<path class="st0" d="M144.5,56.6l-1.1,28.9c0,0,7.8,9.4,27.4,7.4c13.4-1.3,16-11.1,16-11.1l-2-24.5"/>
	<path class="st2" d="M166.4,43.6c0.1,1.2-0.8,2.1-1.9,2.1c-1.2,0.1-2.1-0.8-2.1-1.9c-0.1-1.2,0.8-2.1,1.9-2.1
		C165.3,41.6,166.3,42.5,166.4,43.6z"/>
	<path class="st2" d="M187.1,39.7c0.1,1.2-0.8,2.1-1.9,2.1c-1.2,0.1-2.1-0.8-2.1-1.9c-0.1-1.2,0.8-2.1,1.9-2.1
		C186.1,37.7,187.1,38.5,187.1,39.7z"/>
	<g>
		<g>
			<path class="st2" d="M178.4,44.3c0.5,0.9,0.9,1.8,1.3,2.8c0.3,0.8,0.7,1.5,0.9,2.2c0.1,0.5,0.4,1.2,0.3,1.7
				c-0.1,0.4-0.8,0.5-1.2,0.6c-0.7,0.1-1.3,0.1-2,0.1c-0.3,0-0.3,0.4,0,0.4c0.7,0,1.3,0,2-0.1c0.4-0.1,0.9-0.1,1.3-0.4
				c0.6-0.4,0.5-1.1,0.3-1.7c-0.3-1.6-1.2-3.2-2.1-4.5c-0.3-0.4-0.5-0.8-0.8-1.2C178.4,44.2,178.3,44.2,178.4,44.3L178.4,44.3z"/>
		</g>
	</g>
	<path class="st3" d="M159.1,40.7c1.7-2.9,5.6-3.8,7.9-2"/>
	<path class="st3" d="M182,36.3c1.5-2,4.5-2.2,6-0.6"/>
	<path class="st4" d="M161.5,68.1c8.1,4.5,15.9,4.4,24.2,0"/>
	<g>
		<path class="st5" d="M193.2,14.1C187.1,1,168.7-2.9,156,2.1c-4.6,1.8-10.5,5.2-13.8,9.4c-2.1,1.7-3.7,2.5-5.9,4.8
			c-0.6,0.6-1.1,1.2-1.5,1.8c-4,6.3-4.5,13.9-3.9,21.1c1.1,14.9,6.2,25.8,6.2,25.8s7-2.3,7.5-2.8c4.6-7.9,3.2-11,3.9-16
			c0.5-2.8,1.5-5.4,2-8.3c0.6-3,0.8-6.1,0.9-9c1.2,0.5,2.4,0.4,3.7,0.3c2.2-0.1,4.5-0.5,6.6-0.9c11.8-2.1,24.9-1.5,35.6,4.5
			c-0.1-0.1,0-4.2,0-4.8c-0.1-1.6-0.6-3.2-0.9-4.6C195.6,20.3,194.7,17,193.2,14.1z"/>
	</g>
	<path class="st1" d="M178.5,39.1c0.3,4.6,3.7,8.1,7.8,7.9c4-0.3,7-4.1,6.8-8.7c-0.2-4.6-3.7-8.1-7.8-7.9
		C181.4,30.5,178.3,34.5,178.5,39.1z"/>
	<path class="st1" d="M154.8,44.6c0.3,4.6,4.2,8.1,8.9,7.9c4.6-0.3,8.1-4.2,7.9-8.9c-0.3-4.6-4.2-8.1-8.9-7.9
		C158.1,36,154.6,39.9,154.8,44.6z"/>
	<path class="st1" d="M155,45.3l-7.4,0.4c-1.2,0.1-2.2,0.5-3.2,1.2l-1.5,1.2"/>
	<g>
		<path class="st0" d="M149.4,46.4c-4.1-1.8-8.1-0.6-8.5,4.4c-0.1,2.1,0.3,4.2,1.4,6c1.1,1.8,3,3,5.2,3.2c2.1,0.1,4.2-0.9,5.2-2.8"
			/>
	</g>
	<g>
		<g>
			<path class="st2" d="M143.3,50c0.1-0.1,0.3-0.3,0.4-0.5c0.1-0.1,0.3-0.3,0.4-0.3c0.3-0.1,0.5-0.3,0.8-0.3c0.6,0,1.2,0.1,1.7,0.5
				c0.5,0.3,0.9,0.7,1.2,1.2c0.4,0.6,0.6,1.4,0.7,2.1c0.1,1.2-0.1,2.2-0.5,3.3c-0.1,0.1,0.3,0.3,0.3,0.1c0.5-1,0.7-2.1,0.6-3.2
				c-0.1-0.8-0.1-1.7-0.7-2.5c-0.7-1-2-2-3.3-1.8c-0.3,0-0.7,0.1-1,0.3c-0.1,0.1-0.3,0.3-0.5,0.4C143.5,49.5,143.3,49.7,143.3,50
				C143.3,50,143.3,50,143.3,50L143.3,50z"/>
		</g>
	</g>
	<g>
		<g>
			<path class="st2" d="M145.8,59.9c0.4,0.3,1,0.5,1.6,0.5c0.6,0.1,1.2,0,1.7-0.1c1.2-0.3,2.1-0.8,2.8-1.8c0.1-0.1-0.1-0.3-0.1-0.1
				c-0.8,0.8-1.7,1.3-2.6,1.6c-0.5,0.1-1,0.1-1.6,0.1c-0.6-0.1-1-0.3-1.6-0.3C145.8,59.7,145.7,59.9,145.8,59.9L145.8,59.9z"/>
		</g>
	</g>
	<g>
		<path class="st5" d="M135.6,59.3c-9.3,4.5-20.6,12.3-23.4,22.5c-1.2,4.6-0.3,10.2,3.4,13.2c0.8,0.7,1.7,1.2,2.6,1.4
			c1.7,0.5,3.6,0.1,5.2-0.6c5.9-2.5,9-9,10.7-15.2c1.8-6.2,3-12.8,7.3-17.6"/>
	</g>
	<path class="st1" d="M171.3,42c0,0,2.3-2.9,7.4-2.4"/>
	<g>
		<g>
			<path class="st2" d="M176.4,60.4c0.4,0.3,0.9,0.3,1.4,0.4c0.5,0,1,0,1.5-0.1c0.5-0.1,0.9-0.3,1.3-0.5c0.4-0.3,0.8-0.5,1-1
				c0-0.1-0.1-0.1-0.1-0.1c-0.4,0.1-0.7,0.4-1.1,0.7c-0.4,0.3-0.8,0.4-1.2,0.5c-0.4,0.1-0.8,0.1-1.3,0.1c-0.5,0-0.9-0.1-1.3-0.3
				C176.3,60.2,176.3,60.4,176.4,60.4L176.4,60.4z"/>
		</g>
	</g>
</g>
<path class="st6" d="M213.1,193c2.5,1.2,5.4,2.1,8.5,3c5,1.4,10.5,2.3,15.4,1c6.1-1.5,11.9-4.1,13.2-9.2c0.5-1.8,0.5-3.7,0.5-5.6
	c-0.1-13.5-7.2-27.3-11.6-40.3c-1.1-3.1-2.3-13.7-6.8-14.8c-2.1-0.6-6.5,1.3-8.5,1.8c-3.4,0.8-6.7,1.8-10,2.9
	c-0.3,0.1-0.6,0.2-0.8,0.3c-4.8,1.6-8.9,2.5-11.2,6.5c-1.4,2.5-1.6,5.4-1.6,8.2c-0.1,8.7,0.9,17.4,1.3,26c0.3,4.7,0.9,9.6,3.7,13.8
	C207.1,189.5,209.9,191.5,213.1,193z"/>
<path class="st7" d="M205.3,255.5c-0.8,1.3-1.9,2.3-3.4,2.8c-2.2,0.7-4.5,0.6-6.9,0.6c-34.9-1.5-71.1-5.1-104.8-13
	c-7.8-1.9-15.6-4-22.9-7.1c-2.9-1.2-6.6-2.1-7.1-4.9c-0.1-0.8,0.3-1.9,0.4-2.7c1-5.9,2.2-11.8,3.4-17.6c3.7-18.6,8.3-37.3,11.6-55.9
	c0.7-3.7,1.2-7.3,2-11c1.6-8.1,3.4-16.1,6.1-23.8c2.1-5.8,4.5-11.6,7.6-17.1c3.1-5.5,6.5-11.6,11.2-16.2c4.5-4.3,10-8.3,16-10.9
	c6.2-2.7,11.8-2.3,18.5-2.5c1.7-0.1,4.6-0.1,6.3-0.1c1.9,0,1.7,0.9,2.5,2.3c1.4,2.8,3.3,5.3,5.6,7.4c2.1,1.9,4.8,3.6,7.5,4.6
	s5.2,1,8.1,0.3c5.4-1.2,17.2-5,19.9-9.4c3.7,1-0.3,2.5,3.2,3.7c3.5,1.1,6.5,2.8,9.8,4.3c17.3,11.7,16.9,38.2,16.1,55.6
	c-0.4,8.2-0.8,16.5-1.3,24.7c-1.7,8.8-2.2,17.8-3.2,26.7c-1.2,12.4-2.5,24.8-3.6,37.2C207.6,238,208.7,249.9,205.3,255.5z"/>
<path class="st0" d="M126.6,178.6c-11.4,1-22.8,2-34.2,2.9c-3.7,0.3-7.3,0.6-11,0.2c-1.2-0.1-2.5-0.4-3.2-1.3
	c-0.3-0.6-0.3-1.2-0.3-1.8c0.4-6.7,4.1-11.7,6.5-17.9c2.5-6.4,5-12.7,8.2-19c1.7-3.2,3.2-6.6,5.2-9.6L79.9,104
	c-12.1,13.4-23.8,28.2-29.6,45.1c-2.9,8.5-5.4,17.1-7.3,25.7c-1.7,7.5-4.6,15.6-0.9,22.9l0.1,0.3l0.3,0.5c0.1,0.3,0.4,0.7,0.7,1
	c0.5,0.7,0.8,1.2,1.3,1.7c0.3,0.3,0.4,0.5,0.7,0.7c0.3,0.2,0.4,0.3,0.6,0.6c0.4,0.3,0.8,0.7,1.2,1c12,9.5,30.9,6.2,45.4,4.1
	c14.8-2.1,29.6-4.1,44.4-6.2c3.4-0.5,7.9-0.5,11.1-1.6c3.3-1.2,2.3-2.3,1.7-5.1c-1.5-5.9-2.5-11.8-3.3-17.9
	C139.7,177.5,133.1,178,126.6,178.6z"/>
<path class="st7" d="M85.6,95.8c-6.1,5.3-11.8,13.9-16.5,20c-4.5,5.8-8.6,11.8-12.3,18.1c-1.8,3-3.4,6.3-5.2,9.4
	c-1.4,2.5-4.1,5.6-3.6,8.7c0.4,2.4,11.8,6.5,15,7.9c8.2,3.4,16.7,5.6,25.3,7.4c0.6,0.1,1.2,0.3,1.7-0.1c0.4-0.3,0.6-0.8,0.8-1.2
	c2.2-6.5,4.3-13.1,6.6-19.6c1.8-5.4,5.7-9.9,7.6-15.2c1.9-5.4,0.7-12.7,0.6-18.5c-0.1-5.4-0.1-11,0.8-16.3c1-5.4,8.3-13.8,12.2-17.6
	C107.3,80.6,93.8,88.5,85.6,95.8z"/>
<path class="st7" d="M222.1,112.9c4.8,6.4,9.9,16.5,13.8,23.5c3.6,6.4,6.6,13.1,9.3,19.9c1.3,3.4,2.3,6.8,3.6,10.2
	c1,2.8,3.2,6.1,2.1,9.2c-0.8,2.3-12.7,4.5-16.1,5.3c-8.6,2-17.3,2.9-26.2,3.3c-0.6,0-1.2,0-1.6-0.3c-0.3-0.3-0.4-0.8-0.5-1.2
	c-1.2-6.8-2.1-13.6-3.4-20.4c-1.1-5.7-4.3-10.7-4.8-16.7c-0.3-3.6,2.1-7,3.6-10c1.4-3,2.4-6.3,3.6-9.5c1.6-4.1,2.8-8.5,3.4-12.8
	c0.3-2.1-2.8-16.5-4.2-18.3C211.3,100.2,218,107.3,222.1,112.9z"/>
<path class="st0" d="M196.9,77.4c-3.3,6.9-0.4,9.3,0.8,14.2c2,0.1,3.7-0.3,5.6-0.5c2.1-0.1,4.3,0,6.5-0.1c4.1-0.3,8.2-1.3,11.7-3.6
	c0.3-0.1,0.6-0.4,0.8-0.8c0.3-0.3,0.3-0.8,0.4-1.2c1.3-6.2,0.6-13,0.5-19.2c0-0.3,0-0.5,0-0.8c0-1-0.1-2-0.5-3
	c-0.6-1.4-1.7-2.4-2.8-3.4c-4.8-4.2-9.7-8.3-14.7-12.3c-1.8-1.5-2.5-1.2-4.8-0.7c-3.2,0.8-5.8,1.7-5.9,5.4c0,4.1,0.1,9.9,1.1,13.2
	L196.9,77.4z"/>
<path class="st0" d="M197.8,88.3c5,18.9,10.1,36,13.4,54.4c1.7,9.2,3.2,18.5,4.8,27.6c1.4,7.9,0.4,16.1,7,22.8c7,7,23,7.4,31.5,1.8
	c13.5-8.9,4-27.3-0.8-37.8c-10.7-23.8-20.4-47.8-30.9-71.5c-0.3-0.6-0.5-1-1.1-1.3c-0.5-0.2-1-0.1-1.6-0.1
	c-4.4,0.4-8.7,1.5-13.2,1.2L197.8,88.3z"/>
<path class="st0" d="M167.4,198.8c7.7,0.5,15.2,2.7,21.6,6.3c2.5,1.4,7.4,2.4,7.8-1.5c1,0.5,2.3,0.6,3.3,0.1c1-0.4,1.7-1.4,1.8-2.3
	c0.9,0.5,2.1,0.5,3,0.1c4.8-2.1-1.7-7.2-3.5-9.2c-3.2-3.7-7-7-11.4-9.8c-9.4-7-20.7-7.2-32.4-7c-2.6,0.1-10.1,0.6-12.3,1.7
	c-2,1-1.2,3.3-1.6,5.1c-0.3,1.9-1.1,3.9-1.3,5.7c-0.3,2.1-0.9,4.7-0.3,6.8c0.7,2,0.4,3,1.2,5.7c3.9-0.5,7.9-0.6,11.8-1.2
	C159.3,198.7,163.3,198.5,167.4,198.8z"/>
<path class="st8" d="M195.7,203.2c-4.1-5-10.3-9-17.3-10.7"/>
<path class="st8" d="M201.4,200.8c-1.4-2.9-3.8-5.3-6.4-7.5c-3.2-2.7-6.7-4.9-10.6-6.8"/>
<path class="st8" d="M91.5,163.9c7-18,14.6-35.7,22.5-53.3"/>
<g>
	<path class="st9" d="M274.4,130.8c1-1.3,2.3-2.5,4-3.2c2.2-0.9,4.6-1,6.8-1c9.2-0.1,61.9,0,71.1,0c9.4,0,18.9-0.6,28.2-0.1
		c1.9,0.1,3.9,0.3,5,1.2c1.7,1.2,1.4,3.4,0.8,5.4c-1,3.7-3,7.5-4.5,11.3c-1.5,3.8-3,7.5-4.5,11.3c-5.4,13.2-2.8,6.3-8.3,19.6
		c-1.8,4.3-3.5,8.5-5.3,12.8c-1.7,3.9-2.9,8.2-5.2,12.1c-0.8,1.3-2,2.6-3.7,3.5c-1.4,0.8-2.9,1.2-4.4,1.4c-5.7,1.2-11.9,0.9-17.4,1
		c-8.2,0.2-16.4,0.3-24.6,0.4c-6.8,0.1-57.3,0.1-63.7-0.7c-6.5-0.8-2.4-7.8-1-11.6c1.9-5.2,5.2-12.7,7.3-17.9
		c3.4-8.4,7.5-18.5,10.3-25.3c2-5,4.3-9.9,6.2-14.7C272.3,134.5,273.1,132.5,274.4,130.8z"/>
	<path class="st10" d="M249.6,195.5c1.9-5.2,5.2-12.7,7.3-17.9c3.4-8.4,7.5-18.5,10.3-25.3c2-5,4.3-9.9,6.2-14.7
		c0.6-1.5,1.4-3.5,2.7-5.3c1-1.3,2.3-2.5,4-3.2c2.2-0.9,4.6-1,6.8-1c9.2-0.1,61.9,0,71.1,0c9.4,0,18.9-0.6,28.2-0.1
		c1.5,0.1,3.1,0.2,4.3,0.8c-0.2-0.4-0.5-0.8-0.9-1.1c-1.2-0.9-3.2-1-5-1.2c-9.2-0.6-18.7,0.1-28.2,0.1c-9.2,0-61.9-0.1-71.1,0
		c-2.2,0-4.6,0.1-6.8,1c-1.7,0.8-3,1.9-4,3.2c-1.3,1.7-2.1,3.8-2.7,5.3c-1.9,5-4.1,9.9-6.2,14.7c-2.8,6.8-6.9,16.9-10.3,25.3
		c-2.1,5.2-5.4,12.7-7.3,17.9c-1.3,3.5-4.8,9.5-0.6,11.2C246.1,202.8,248.5,198.3,249.6,195.5z"/>
	<path class="st9" d="M180.5,209.4c1.5-0.1,3-0.2,4.5-0.2c2.1,0,4.1,0.3,6.2,0.3c5.7,0.1,11.4,0.1,17.2,0.1c8.7,0,17.4,0,26.1,0
		c10.8,0,21.6,0,32.4,0c10.9,0,21.8,0,32.7,0c9,0,17.9,0,26.9,0c5,0,10,0,15,0c2.8,0,5.6,0.1,8.4,0c1.1-0.1,2.3-0.1,3.4-0.1
		c1.2,0,2.3,0.1,3.3,0.3c-0.8,1.4-1.9,2.6-3.3,3.9c-1.5,1.2-2.7,1.4-5.8,1.4c-8.8,0.1-20.3-0.1-28.2-0.1
		c-12,0.1-120.3,0.1-130.3-0.1c-1.9,0-4.2,0.1-6.1-0.1c-3.9-0.3-5.2-3.1-6.1-4.5c-0.1-0.1-0.1-0.2-0.1-0.3c0.1-0.1,0.3-0.2,0.6-0.3
		C178.2,209.6,179.3,209.5,180.5,209.4z"/>
	<path class="st10" d="M173.4,210.1c0.1,0.8,0.5,1.4,1.4,1.4c1.2,0,2.4,0.1,3.7,0.1c1.4-0.1,2.8-0.1,4.1-0.1
		c10.2,0.1,128.3,0.1,141.2,0.1c8.6,0,21,0.1,30.6,0.1c3.9-0.1,4.8-0.3,5.2-1.9c0.2-1,0.1-2.3-0.1-3.1c-0.2-0.7-1-1.1-3.2-1.3
		c-3.1-0.2-5.2-0.1-8.3-0.1c-5.4-0.1-10.8-0.1-16.3-0.1c-9.7,0-19.4,0-29.1,0c-6.1,0-12.1,0-18.3,0c-5.7,0-11.4,0-17.2,0
		c-5.2,0-10.5,0-15.8,0c-6.5,0-12.9,0-19.4,0c-9.4,0-18.9,0-28.3,0c-7.1,0-14.2-0.1-21.3-0.1c-2.3,0-4.5,0-6.8,0c-0.5,0-1,0-1.3,0.2
		c-0.9,0.4-0.9,1.4-0.9,2.1C173.5,207.9,173.2,209.2,173.4,210.1z"/>
	<path class="st11" d="M316.1,159.1c5.9-5.6,16.4-3.9,18.5,5.1c1.1,4.8-1,10.5-5.1,13.4c-4.1,2.9-9.7,2.8-13.3-0.3
		c-3.7-3-5-8.8-3.2-13.6C313.8,161.9,314.8,160.4,316.1,159.1z"/>
</g>
<path class="st7" d="M306.4,71.5c-3,0.4-21.6,0.4-30.5,0.4c-2,0-3.6,0-4.3,0c-5.7,0-11.3,0.1-16.9,0c-2.2-0.1-5.3,0.3-7.3-0.8
	c-2.7-1.4-1.7-6.6-1.7-9.1c0-2.3,0-4.6-0.1-6.9c-0.1-7.2-0.1-3.5-0.2-10.6c0-2,0-4.1,0-6.1c0-2-0.3-4.1,0-6.1
	c0.2-1.1,0.5-2.2,1.7-2.9c0.8-0.5,1.9-0.6,3-0.6c5.1-0.3,10.2,0.1,15.3,0c5,0,33.7,0,38.7,0c1.2,0,2.5,0,3.5,0.6
	c0.7,0.4,1.2,1,1.5,1.8c0.3,0.9,0.3,2,0.3,2.9c0,2,0.1,4.2,0.1,6.2c0,0.6,0,1.2,0,1.8c0,3.6,0,9.1,0,13.6c0,2.9,0.1,6.9,0,9.7
	C309.5,67.3,310.1,71,306.4,71.5z"/>
<path class="st7" d="M265.3,69.9c0,0.2,0,0.5-0.1,0.6c-0.3,1-0.9,1.9-1.6,2.8c-0.3,0.4-0.6,0.7-1,1.1c-1.6,1.7-3.4,3.2-5.4,4.3
	c-0.7,0.5-6.5,3.3-6.9,2.1c-0.1-0.2,0-0.4,0.1-0.6c0.6-1.8,1.1-3.6,1.4-5.5c0.2-1.4,0.2-2.9,0.4-4.4c0-0.3,0.1-0.5,0.2-0.7"/>
<path class="st12" d="M280.4,45.8c0.3-0.7,0.6-1.3,1.5-1.8c1-0.5,2.3-0.6,3.5-0.6c5,0,33.7,0,38.7,0c5.1,0,10.2-0.4,15.3,0
	c1,0.1,2.1,0.2,3,0.6c1.1,0.6,1.5,1.9,1.7,2.9c0.3,2,0,4.1,0,6.1c0,2,0,4.1,0,6.1c0,7.1-0.1,3.4-0.2,10.6c0,2.3,0,4.6-0.1,6.9
	c0,2.5,1,7.7-1.7,9.1c-2,1-5.1,0.7-7.3,0.8c-5.7,0.2-11.2,0-16.9,0c-3.7,0-31.1,0.1-34.8-0.4c-3.7-0.5-3.1-4.2-3.2-6.3
	c-0.1-2.9,0-6.9,0-9.7c0-4.5,0-10,0-13.6c0-2.7,0.1-5.3,0.1-8C280.1,47.8,280.1,46.7,280.4,45.8z"/>
<path class="st12" d="M324.3,84.7c0,0.2,0,0.5,0.1,0.6c0.3,1,0.9,1.9,1.6,2.8c0.3,0.4,0.6,0.7,1,1.1c1.6,1.7,3.4,3.2,5.4,4.3
	c0.7,0.5,6.5,3.3,6.9,2.1c0.1-0.2,0-0.4-0.1-0.6c-0.6-1.8-1.1-3.6-1.4-5.5c-0.2-1.4-0.2-2.9-0.4-4.4c0-0.3-0.1-0.5-0.2-0.7
	c-0.2-0.2-0.4-0.3-0.6-0.4"/>
<path class="st13" d="M290.9,61.6c2.4-2.1,6.8-1.3,7.7,2.2c0.6,1.9-0.3,4.1-1.9,5.2c-1.7,1.1-4,1-5.5-0.3c-1.5-1.2-2.1-3.5-1.5-5.4
	C290,62.6,290.4,62,290.9,61.6z"/>
<path class="st13" d="M309.5,61.6c2.4-2.1,6.8-1.3,7.7,2.2c0.6,1.9-0.3,4.1-1.9,5.2c-1.7,1.1-4,1-5.5-0.3c-1.5-1.2-2.1-3.5-1.5-5.4
	C308.6,62.6,309,62,309.5,61.6z"/>
<path class="st13" d="M328.1,61.6c2.4-2.1,6.8-1.3,7.7,2.2c0.6,1.9-0.3,4.1-1.9,5.2c-1.7,1.1-4,1-5.5-0.3c-1.5-1.2-2.1-3.5-1.5-5.4
	C327.2,62.6,327.6,62,328.1,61.6z"/>
<path class="st8" d="M198.3,53.6c5.4,5,9,11.9,10,19.2"/>
<path class="st8" d="M202.2,48.4c3.2,2,5.7,4.8,7.9,7.8c2.6,3.7,4.8,7.6,6.4,11.8"/>
<g>
	<g>
		<path class="st12" d="M427.7,154.5c0.1-6.9,0.9-12.2,2.3-16.1c1.5-4,4.3-8.3,8.8-13.1l11.2-11.6c4.7-5.4,7.2-11.2,7.2-17.4
			c0-6.1-1.6-10.7-4.7-14.1c-3.2-3.4-7.7-5.1-13.8-5.1c-5.8,0-10.5,1.6-14.1,4.7c-3.5,3.1-5.4,7.3-5.4,12.4h-15.8
			c0.1-9.2,3.4-16.7,9.9-22.4s14.9-8.5,25.4-8.5c10.8,0,19.2,2.8,25.3,8.6c6.1,5.8,9,13.8,9,23.9c0,10-4.7,19.8-13.9,29.6l-9.3,9.2
			c-4.2,4.7-6.2,11.2-6.2,19.9H427.7z M427,181.8c0-2.6,0.8-4.7,2.4-6.5s3.9-2.6,6.9-2.6s5.4,0.9,7,2.6c1.6,1.7,2.4,4,2.4,6.5
			c0,2.6-0.8,4.7-2.4,6.5c-1.6,1.8-4,2.5-7,2.5s-5.4-0.8-6.9-2.5C427.8,186.7,427,184.5,427,181.8z"/>
	</g>
</g>
<g>
	<text transform="matrix(1 0 0 1 231.6021 493.7644)" class="st13" style="font-family:'Roboto-Medium'; font-size:38px;">Avisos importantes</text>
</g>
<g>
	<text transform="matrix(1 0 0 1 180.7947 376.1351)" class="st13" style="font-family:'Roboto-Medium'; font-size:38px;">¿Cómo lo hago?</text>
</g>
<path class="st14" d="M709.6,295.8H0v-61c0-11.9,10.9-21.6,24.3-21.6h660.9c13.4,0,24.3,9.7,24.3,21.6V295.8z"/>
<g>
	<g class="st15">
		<path class="st13" d="M533.2,464.9c0,1.5-0.2,2.8-0.5,3.6c-0.3,0.9-0.9,1.8-1.8,2.8l-1.9,2c-1.1,1.2-1.7,2.5-1.7,3.8
			c0,1.2,0.3,2,0.9,2.6c0.6,0.6,1.5,0.9,2.6,0.9c1.1,0,2-0.3,2.6-0.9c0.7-0.6,1-1.4,1-2.5h4.5c0,2.2-0.8,3.9-2.3,5.2
			c-1.5,1.3-3.4,1.9-5.8,1.9c-2.5,0-4.5-0.6-5.9-1.9c-1.4-1.2-2.1-3-2.1-5.3c0-2,1-4.1,2.9-6.1l1.7-1.7c1-0.9,1.5-2,1.6-3.5v-1h4.2
			V464.9z M533.6,459.1c0,0.7-0.2,1.3-0.7,1.7c-0.4,0.5-1.1,0.7-1.9,0.7c-0.8,0-1.4-0.2-1.9-0.7s-0.7-1-0.7-1.7s0.2-1.2,0.7-1.7
			s1.1-0.7,1.9-0.7c0.8,0,1.4,0.2,1.9,0.7C533.3,457.9,533.6,458.5,533.6,459.1z"/>
		<path class="st13" d="M563.3,468.4c-0.3,2.9-1.3,5.1-3.2,6.7c-1.9,1.6-4.3,2.4-7.4,2.4c-2.2,0-4-0.5-5.7-1.5
			c-1.6-1-2.9-2.5-3.8-4.4c-0.9-1.9-1.4-4.1-1.4-6.5v-2.5c0-2.5,0.5-4.8,1.4-6.7c0.9-1.9,2.2-3.4,3.9-4.5s3.6-1.6,5.9-1.6
			c3,0,5.4,0.8,7.2,2.4s2.9,3.9,3.2,6.9h-4.7c-0.2-1.9-0.8-3.3-1.7-4.2c-0.9-0.9-2.2-1.3-4-1.3c-2,0-3.6,0.7-4.7,2.2
			c-1.1,1.5-1.7,3.7-1.7,6.6v2.4c0,2.9,0.5,5.2,1.6,6.7c1,1.5,2.6,2.3,4.6,2.3c1.8,0,3.2-0.4,4.2-1.2c0.9-0.8,1.5-2.2,1.8-4.1
			L563.3,468.4L563.3,468.4z"/>
		<path class="st13" d="M566.3,467c0-2,0.4-3.7,1.2-5.3c0.8-1.6,1.9-2.8,3.3-3.6c1.4-0.8,3-1.3,4.9-1.3c2.7,0,4.9,0.9,6.6,2.6
			c1.7,1.7,2.6,4.1,2.7,6.9v1.1c0,2-0.4,3.7-1.1,5.3s-1.8,2.8-3.3,3.6c-1.4,0.9-3.1,1.3-4.9,1.3c-2.8,0-5.1-0.9-6.8-2.8
			c-1.7-1.9-2.6-4.4-2.6-7.5L566.3,467L566.3,467z M570.8,467.3c0,2.1,0.4,3.7,1.3,4.9c0.9,1.2,2,1.8,3.6,1.8c1.6,0,2.7-0.6,3.6-1.8
			c0.8-1.2,1.3-2.9,1.3-5.2c0-2-0.4-3.6-1.3-4.8s-2.1-1.8-3.6-1.8s-2.6,0.6-3.5,1.8C571.2,463.3,570.8,465,570.8,467.3z
			 M576.8,448.7h5.1l-5.1,5.6h-3.6L576.8,448.7z"/>
		<path class="st13" d="M593,457.1l0.1,2.1c1.4-1.6,3.3-2.5,5.8-2.5c2.7,0,4.5,1,5.5,3.1c1.5-2.1,3.5-3.1,6.2-3.1
			c2.2,0,3.9,0.6,4.9,1.8c1.1,1.2,1.6,3,1.7,5.4v13.2h-4.5V464c0-1.3-0.3-2.2-0.8-2.8s-1.5-0.9-2.8-0.9c-1,0-1.9,0.3-2.5,0.8
			c-0.6,0.6-1.1,1.3-1.4,2.2v13.8h-4.5v-13.2c-0.1-2.4-1.3-3.5-3.6-3.5c-1.8,0-3.1,0.7-3.8,2.2v14.5h-4.5V457h4.2V457.1z"/>
		<path class="st13" d="M621,467c0-2,0.4-3.7,1.2-5.3c0.8-1.6,1.9-2.8,3.3-3.6c1.4-0.8,3-1.3,4.9-1.3c2.7,0,4.9,0.9,6.6,2.6
			c1.7,1.7,2.6,4.1,2.7,6.9v1.1c0,2-0.4,3.7-1.1,5.3s-1.8,2.8-3.3,3.6c-1.4,0.9-3.1,1.3-4.9,1.3c-2.8,0-5.1-0.9-6.8-2.8
			c-1.7-1.9-2.6-4.4-2.6-7.5L621,467L621,467z M625.5,467.3c0,2.1,0.4,3.7,1.3,4.9c0.9,1.2,2,1.8,3.6,1.8s2.7-0.6,3.6-1.8
			c0.8-1.2,1.3-2.9,1.3-5.2c0-2-0.4-3.6-1.3-4.8c-0.9-1.2-2.1-1.8-3.6-1.8s-2.6,0.6-3.5,1.8C625.9,463.3,625.5,465,625.5,467.3z"/>
		<path class="st13" d="M657.7,477.2h-4.5v-28.5h4.5V477.2z"/>
		<path class="st13" d="M661.8,467c0-2,0.4-3.7,1.2-5.3c0.8-1.6,1.9-2.8,3.3-3.6c1.4-0.8,3-1.3,4.9-1.3c2.7,0,4.9,0.9,6.6,2.6
			c1.7,1.7,2.6,4.1,2.7,6.9v1.1c0,2-0.4,3.7-1.1,5.3s-1.8,2.8-3.3,3.6s-3.1,1.3-4.9,1.3c-2.8,0-5.1-0.9-6.8-2.8
			c-1.7-1.9-2.6-4.4-2.6-7.5V467L661.8,467z M666.3,467.3c0,2.1,0.4,3.7,1.3,4.9c0.9,1.2,2,1.8,3.6,1.8s2.7-0.6,3.6-1.8
			c0.9-1.2,1.3-2.9,1.3-5.2c0-2-0.4-3.6-1.3-4.8c-0.9-1.2-2.1-1.8-3.6-1.8s-2.6,0.6-3.5,1.8C666.7,463.3,666.3,465,666.3,467.3z"/>
		<path class="st13" d="M698.1,459.3c1.5-1.7,3.3-2.6,5.6-2.6c4.3,0,6.5,2.4,6.5,7.3v13.1h-4.5v-13c0-1.4-0.3-2.4-0.9-2.9
			c-0.6-0.6-1.5-0.9-2.6-0.9c-1.8,0-3.2,0.8-4,2.4V477h-4.5v-28.5h4.5v10.8H698.1z"/>
		<path class="st13" d="M726.8,477.2c-0.2-0.4-0.4-1-0.5-1.9c-1.4,1.5-3.2,2.2-5.3,2.2c-2,0-3.7-0.6-4.9-1.7
			c-1.3-1.2-1.9-2.6-1.9-4.3c0-2.1,0.8-3.8,2.4-4.9s3.9-1.7,6.8-1.7h2.8v-1.3c0-1-0.3-1.9-0.9-2.5c-0.6-0.6-1.5-0.9-2.7-0.9
			c-1,0-1.9,0.3-2.5,0.8c-0.7,0.5-1,1.2-1,2h-4.5c0-1.1,0.4-2.1,1.1-3.1s1.7-1.7,3-2.3c1.3-0.5,2.7-0.8,4.2-0.8
			c2.3,0,4.2,0.6,5.6,1.8c1.4,1.2,2.1,2.8,2.2,5v9.1c0,1.8,0.3,3.2,0.8,4.3v0.3h-4.7V477.2z M721.8,473.9c0.9,0,1.7-0.2,2.5-0.6
			c0.8-0.4,1.4-1,1.8-1.7v-3.8h-2.4c-1.7,0-2.9,0.3-3.8,0.9c-0.8,0.6-1.3,1.4-1.3,2.5c0,0.9,0.3,1.6,0.9,2.1
			C720.1,473.7,720.9,473.9,721.8,473.9z"/>
		<path class="st13" d="M734.6,467c0-3.1,0.7-5.6,2.2-7.5s3.4-2.8,5.8-2.8c2.3,0,4.1,0.8,5.4,2.4l0.2-2h4.1v19.5
			c0,2.6-0.8,4.7-2.5,6.2c-1.7,1.5-3.8,2.3-6.6,2.3c-1.5,0-2.9-0.3-4.3-0.9s-2.5-1.4-3.2-2.4l2.1-2.7c1.4,1.6,3.1,2.5,5.1,2.5
			c1.5,0,2.7-0.4,3.5-1.2c0.9-0.8,1.3-2,1.3-3.6v-1.4c-1.3,1.4-3,2.2-5.2,2.2c-2.4,0-4.3-0.9-5.8-2.8
			C735.3,472.9,734.6,470.3,734.6,467z M739.1,467.4c0,2,0.4,3.6,1.2,4.8c0.8,1.2,2,1.7,3.4,1.7c1.8,0,3.2-0.8,4-2.3v-8.8
			c-0.9-1.5-2.2-2.3-4-2.3c-1.5,0-2.6,0.6-3.5,1.8C739.5,463.4,739.1,465.1,739.1,467.4z"/>
		<path class="st13" d="M756.1,467c0-2,0.4-3.7,1.2-5.3c0.8-1.6,1.9-2.8,3.3-3.6c1.4-0.8,3-1.3,4.9-1.3c2.7,0,4.9,0.9,6.6,2.6
			c1.7,1.7,2.6,4.1,2.7,6.9v1.1c0,2-0.4,3.7-1.1,5.3s-1.8,2.8-3.3,3.6s-3.1,1.3-4.9,1.3c-2.8,0-5.1-0.9-6.8-2.8
			c-1.7-1.9-2.6-4.4-2.6-7.5L756.1,467L756.1,467z M760.6,467.3c0,2.1,0.4,3.7,1.3,4.9c0.9,1.2,2,1.8,3.6,1.8s2.7-0.6,3.6-1.8
			c0.9-1.2,1.3-2.9,1.3-5.2c0-2-0.4-3.6-1.3-4.8c-0.9-1.2-2.1-1.8-3.6-1.8s-2.6,0.6-3.5,1.8C761,463.3,760.6,465,760.6,467.3z"/>
		<path class="st13" d="M782.7,469.3c0-1.6,0.2-3,0.6-3.9c0.4-0.9,1.2-2.1,2.4-3.2c1.2-1.2,2-2,2.3-2.5c0.5-0.8,0.7-1.6,0.7-2.4
			c0-1.2-0.3-2-0.9-2.7c-0.6-0.7-1.4-0.9-2.5-0.9c-1.1,0-1.9,0.3-2.6,0.9s-1,1.4-1,2.4h-4.5c0-2.2,0.8-3.9,2.2-5.2s3.4-1.9,5.8-1.9
			c2.5,0,4.4,0.6,5.8,1.9s2.1,3,2.1,5.3c0,2-0.9,4-2.8,6l-2.3,2.2c-0.8,0.9-1.2,2.3-1.3,4.1L782.7,469.3L782.7,469.3z M782.4,475
			c0-0.7,0.2-1.3,0.7-1.8s1.1-0.7,1.9-0.7c0.8,0,1.4,0.2,1.9,0.7s0.7,1,0.7,1.7s-0.2,1.2-0.7,1.7s-1.1,0.7-1.9,0.7
			c-0.8,0-1.4-0.2-1.9-0.7S782.4,475.7,782.4,475z"/>
	</g>
</g>
<g>
	<g class="st15">
		<path class="st13" d="M331.6,257c0,1.8-0.2,3.2-0.6,4.3c-0.4,1-1.1,2.1-2.2,3.3l-2.2,2.3c-1.3,1.4-1.9,2.9-1.9,4.4
			c0,1.4,0.4,2.4,1.1,3c0.7,0.7,1.7,1,3,1c1.3,0,2.3-0.4,3-1.1c0.8-0.7,1.1-1.7,1.1-2.9h5.3c0,2.6-0.9,4.6-2.6,6.1
			c-1.7,1.5-4,2.3-6.8,2.3c-3,0-5.3-0.7-6.9-2.2s-2.4-3.5-2.4-6.2c0-2.4,1.1-4.7,3.4-7.1l2-2c1.1-1,1.8-2.4,1.9-4l0-1.1H331.6z
			 M332,250.3c0,0.8-0.3,1.5-0.8,2c-0.5,0.5-1.2,0.8-2.2,0.8s-1.7-0.3-2.2-0.8c-0.5-0.5-0.8-1.2-0.8-2c0-0.8,0.3-1.5,0.8-2
			s1.3-0.8,2.2-0.8s1.7,0.3,2.2,0.8S332,249.5,332,250.3z"/>
		<path class="st13" d="M366.7,261.1c-0.3,3.4-1.6,6-3.7,7.9c-2.2,1.9-5,2.8-8.6,2.8c-2.5,0-4.7-0.6-6.6-1.8s-3.4-2.9-4.4-5.1
			c-1-2.2-1.6-4.7-1.6-7.6v-2.9c0-3,0.5-5.6,1.6-7.9c1.1-2.3,2.6-4,4.5-5.2s4.2-1.8,6.8-1.8c3.5,0,6.3,0.9,8.4,2.8
			c2.1,1.9,3.4,4.5,3.7,8h-5.5c-0.3-2.3-0.9-3.9-2-4.9c-1.1-1-2.6-1.5-4.7-1.5c-2.4,0-4.2,0.9-5.5,2.6c-1.3,1.7-1.9,4.3-2,7.7v2.8
			c0,3.4,0.6,6,1.8,7.8c1.2,1.8,3,2.7,5.4,2.7c2.1,0,3.8-0.5,4.8-1.4c1.1-1,1.8-2.6,2.1-4.8H366.7z"/>
		<path class="st13" d="M370.1,259.4c0-2.3,0.5-4.4,1.4-6.2c0.9-1.8,2.2-3.3,3.8-4.2c1.6-1,3.5-1.5,5.7-1.5c3.2,0,5.7,1,7.7,3
			c2,2,3,4.7,3.2,8.1l0,1.2c0,2.3-0.4,4.4-1.3,6.2c-0.9,1.8-2.2,3.2-3.8,4.2c-1.7,1-3.6,1.5-5.7,1.5c-3.3,0-5.9-1.1-7.9-3.3
			c-2-2.2-3-5.1-3-8.8V259.4z M375.4,259.9c0,2.4,0.5,4.3,1.5,5.7c1,1.4,2.4,2,4.2,2c1.8,0,3.2-0.7,4.1-2.1c1-1.4,1.5-3.4,1.5-6.1
			c0-2.4-0.5-4.2-1.5-5.6c-1-1.4-2.4-2.1-4.1-2.1c-1.7,0-3.1,0.7-4.1,2C375.9,255.1,375.4,257.2,375.4,259.9z M382.4,238.1h6l-6,6.6
			l-4.2,0L382.4,238.1z"/>
		<path class="st13" d="M401.3,248l0.2,2.4c1.6-1.9,3.9-2.9,6.7-2.9c3.1,0,5.3,1.2,6.4,3.6c1.7-2.4,4.1-3.6,7.2-3.6
			c2.6,0,4.5,0.7,5.8,2.1c1.3,1.4,1.9,3.5,1.9,6.3v15.4h-5.3v-15.2c0-1.5-0.3-2.6-1-3.3c-0.6-0.7-1.7-1-3.2-1c-1.2,0-2.2,0.3-2.9,1
			s-1.3,1.5-1.6,2.5l0,16h-5.3V256c-0.1-2.8-1.5-4.1-4.2-4.1c-2.1,0-3.6,0.9-4.5,2.6v17h-5.3V248H401.3z"/>
		<path class="st13" d="M433.9,259.4c0-2.3,0.5-4.4,1.4-6.2c0.9-1.8,2.2-3.3,3.8-4.2c1.6-1,3.5-1.5,5.7-1.5c3.2,0,5.7,1,7.7,3
			c2,2,3,4.7,3.2,8.1l0,1.2c0,2.3-0.4,4.4-1.3,6.2c-0.9,1.8-2.2,3.2-3.8,4.2c-1.7,1-3.6,1.5-5.7,1.5c-3.3,0-5.9-1.1-7.9-3.3
			c-2-2.2-3-5.1-3-8.8V259.4z M439.1,259.9c0,2.4,0.5,4.3,1.5,5.7c1,1.4,2.4,2,4.2,2c1.8,0,3.2-0.7,4.1-2.1c1-1.4,1.5-3.4,1.5-6.1
			c0-2.4-0.5-4.2-1.5-5.6c-1-1.4-2.4-2.1-4.1-2.1c-1.7,0-3.1,0.7-4.1,2C439.6,255.1,439.1,257.2,439.1,259.9z"/>
		<path class="st13" d="M476.7,271.4h-5.3v-33.2h5.3V271.4z"/>
		<path class="st13" d="M481.4,259.4c0-2.3,0.5-4.4,1.4-6.2c0.9-1.8,2.2-3.3,3.8-4.2c1.6-1,3.5-1.5,5.7-1.5c3.2,0,5.7,1,7.7,3
			c2,2,3,4.7,3.2,8.1l0,1.2c0,2.3-0.4,4.4-1.3,6.2c-0.9,1.8-2.2,3.2-3.8,4.2c-1.7,1-3.6,1.5-5.7,1.5c-3.3,0-5.9-1.1-7.9-3.3
			c-2-2.2-3-5.1-3-8.8V259.4z M486.7,259.9c0,2.4,0.5,4.3,1.5,5.7c1,1.4,2.4,2,4.2,2c1.8,0,3.2-0.7,4.1-2.1c1-1.4,1.5-3.4,1.5-6.1
			c0-2.4-0.5-4.2-1.5-5.6c-1-1.4-2.4-2.1-4.1-2.1c-1.7,0-3.1,0.7-4.1,2C487.2,255.1,486.7,257.2,486.7,259.9z"/>
		<path class="st13" d="M523.9,250.5c1.7-2,3.9-3,6.5-3c5,0,7.5,2.8,7.6,8.5v15.3h-5.3v-15.1c0-1.6-0.4-2.8-1-3.4s-1.7-1-3.1-1
			c-2.1,0-3.7,0.9-4.7,2.8v16.7h-5.3v-33.2h5.3V250.5z"/>
		<path class="st13" d="M557.3,271.4c-0.2-0.4-0.4-1.2-0.6-2.2c-1.7,1.7-3.7,2.6-6.1,2.6c-2.4,0-4.3-0.7-5.8-2c-1.5-1.3-2.2-3-2.2-5
			c0-2.5,0.9-4.4,2.8-5.7c1.9-1.3,4.5-2,7.9-2h3.2v-1.5c0-1.2-0.3-2.2-1-2.9c-0.7-0.7-1.7-1.1-3.1-1.1c-1.2,0-2.2,0.3-2.9,0.9
			c-0.8,0.6-1.1,1.4-1.1,2.3H543c0-1.3,0.4-2.5,1.3-3.6c0.9-1.1,2-2,3.5-2.6c1.5-0.6,3.1-1,4.9-1c2.7,0,4.9,0.7,6.6,2.1
			c1.6,1.4,2.5,3.3,2.5,5.8v10.6c0,2.1,0.3,3.8,0.9,5v0.4H557.3z M551.5,267.6c1,0,2-0.3,2.9-0.8c0.9-0.5,1.6-1.2,2.1-2v-4.4h-2.8
			c-1.9,0-3.4,0.3-4.4,1s-1.5,1.6-1.5,2.9c0,1,0.3,1.8,1,2.4C549.5,267.3,550.4,267.6,551.5,267.6z"/>
		<path class="st13" d="M566.3,259.5c0-3.6,0.9-6.5,2.6-8.7c1.7-2.2,4-3.3,6.8-3.3c2.7,0,4.8,0.9,6.3,2.8l0.2-2.4h4.7v22.7
			c0,3.1-1,5.5-2.9,7.3c-1.9,1.8-4.5,2.7-7.7,2.7c-1.7,0-3.4-0.4-5-1.1s-2.9-1.6-3.7-2.8l2.5-3.2c1.6,1.9,3.6,2.9,6,2.9
			c1.7,0,3.1-0.5,4.1-1.4s1.5-2.3,1.5-4.2v-1.6c-1.5,1.7-3.5,2.5-6.1,2.5c-2.7,0-5-1.1-6.7-3.3C567.2,266.3,566.3,263.3,566.3,259.5
			z M571.6,259.9c0,2.4,0.5,4.2,1.4,5.5s2.3,2,4,2c2.1,0,3.7-0.9,4.7-2.7v-10.3c-1-1.8-2.6-2.7-4.7-2.7c-1.7,0-3.1,0.7-4,2.1
			C572,255.3,571.6,257.3,571.6,259.9z"/>
		<path class="st13" d="M591.4,259.4c0-2.3,0.5-4.4,1.4-6.2c0.9-1.8,2.2-3.3,3.8-4.2c1.6-1,3.5-1.5,5.7-1.5c3.2,0,5.7,1,7.7,3
			c2,2,3,4.7,3.2,8.1l0,1.2c0,2.3-0.4,4.4-1.3,6.2c-0.9,1.8-2.2,3.2-3.8,4.2c-1.7,1-3.6,1.5-5.7,1.5c-3.3,0-5.9-1.1-7.9-3.3
			c-2-2.2-3-5.1-3-8.8V259.4z M596.6,259.9c0,2.4,0.5,4.3,1.5,5.7c1,1.4,2.4,2,4.2,2c1.8,0,3.2-0.7,4.1-2.1c1-1.4,1.5-3.4,1.5-6.1
			c0-2.4-0.5-4.2-1.5-5.6c-1-1.4-2.4-2.1-4.1-2.1c-1.7,0-3.1,0.7-4.1,2C597.1,255.1,596.6,257.2,596.6,259.9z"/>
		<path class="st13" d="M622.4,262.1c0-1.9,0.2-3.5,0.7-4.6c0.5-1.1,1.4-2.4,2.8-3.8c1.4-1.4,2.3-2.3,2.7-2.9
			c0.6-0.9,0.9-1.8,0.9-2.9c0-1.4-0.3-2.4-1-3.1c-0.7-0.7-1.7-1.1-3-1.1c-1.2,0-2.2,0.3-3,1c-0.8,0.7-1.1,1.6-1.1,2.8h-5.3
			c0-2.6,0.9-4.6,2.6-6.1c1.7-1.5,4-2.2,6.8-2.2c2.9,0,5.2,0.7,6.8,2.2c1.6,1.5,2.4,3.5,2.4,6.2c0,2.4-1.1,4.7-3.3,6.9l-2.7,2.6
			c-1,1.1-1.4,2.7-1.5,4.7H622.4z M622.1,268.8c0-0.8,0.3-1.5,0.8-2.1c0.5-0.5,1.3-0.8,2.2-0.8c0.9,0,1.7,0.3,2.2,0.8
			c0.5,0.5,0.8,1.2,0.8,2c0,0.8-0.3,1.5-0.8,2c-0.5,0.5-1.3,0.8-2.2,0.8c-1,0-1.7-0.3-2.2-0.8C622.3,270.3,622.1,269.6,622.1,268.8z
			"/>
	</g>
</g>
<g>
	<path class="st13" d="M146.1,253.8c0.4,17.7,23.2,14.2,38.2,14.3c8.5,0.1,39.3-0.2,45.1-0.2c5.4-0.1,11,0.1,16.4-0.2
		c0.7-7,0.6-14.5,0.5-20.3c0-1,0-1.9,0-2.7c0-0.4,0-0.7,0-1c0-1.5-0.1-2.7-0.3-3.7c-0.6-0.1-1.2-0.1-1.9-0.2
		c-14.5-1.2-58.3-1.5-66.6-1C166.8,239.4,145.8,238.6,146.1,253.8z"/>
	<path class="st16" d="M174.6,235.3c2.4-0.1,4.8-0.2,7.2-0.2c3.9,0,7.8,0,11.6,0c4.7,0,9.4,0.1,14.1,0.1c4.8,0.1,9.7,0.2,14.5,0.3
		c4.3,0.1,8.6,0.3,12.9,0.5c4.2,0.2,8.3,0.4,12.4,1c0.4,0.1,0.7,0.1,1.1,0.3c0.8,0.4,0.7,1.2,0.7,2c0,0.3,0,0.5-0.2,0.7
		s-0.5,0.2-0.7,0.1c-2.5-0.1-5-0.2-7.6-0.3c-4.8-0.2-9.7-0.4-14.5-0.6c-3-0.1-6-0.3-9-0.3c-5.3-0.1-10.6-0.1-15.9-0.2
		c-4.5,0-9.1,0-13.6,0c-2.9,0-5.8,0-8.7,0.1c-0.1,0-0.2,0-0.4,0c-11.2,0.5-33-0.2-32.6,15c0.4,17.7,24,14.2,39.5,14.3
		c2.8,0,5.5,0,8.3,0c4.4,0,8.9,0,13.3-0.1c4.6,0,9.1-0.1,13.7-0.1c3.3,0,6.6,0,9.9-0.1c3.3,0,13.3-0.2,15-0.2c0.8,0,1.9,0,2.7,0.1
		s0.6,1.1,0.6,1.7c0.1,0.9,0,1.4-0.8,1.6c-1.6,0.3-8.5,0.3-10.2,0.3c-3.3,0-6.6,0-9.9,0c-6,0.1-12,0-18,0c-8.8,0-17.5-0.1-26.3-0.2
		c-12.1-0.2-41.5,3.6-41.9-17.2C141.8,236.6,163.5,235.9,174.6,235.3z"/>
	<path class="st17" d="M166.7,242.9c0,0.3,0.2,0.5,0.5,0.5l0,0c26.3-0.3,52.9,0.2,79.2,1.3c0-0.4,0-0.7,0-1
		c-26.3-1.1-52.9-1.6-79.2-1.3C166.9,242.4,166.7,242.6,166.7,242.9z"/>
	<path class="st18" d="M234.8,247.2c-27.8-0.3-55.6-0.4-83.5-0.2"/>
	<path class="st18" d="M242.6,254.9c-30.6-0.3-63.3-0.8-94.9-0.3"/>
	<path class="st18" d="M217.8,260.3c-21.5,0-45.9,0-65.9,0"/>
	<path class="st18" d="M244.2,265.3c-6.4,0-47.9,0-64.4,0"/>
	<path class="st19" d="M181.1,250.9c-0.4,5.2-0.3,10.8-0.7,15.6c-1.4-1.5-3.6-3.1-4.9-4.6c-1.9,1.2-3.8,2.6-5.5,4.1
		c-0.1-5-0.3-10-0.4-14.9C173,251.1,181.1,250.9,181.1,250.9z"/>
	<path class="st13" d="M38.1,226.1c0.4,17.7,23.2,14.2,38.2,14.3c8.5,0.1,39.3-0.2,45.1-0.2c5.4-0.1,11,0.1,16.4-0.2
		c0.7-7,0.6-14.5,0.5-20.3c0-1,0-1.9,0-2.7c0-0.4,0-0.7,0-1c0-1.5-0.1-2.7-0.3-3.7c-0.6-0.1-1.2-0.1-1.9-0.2
		c-14.5-1.2-58.3-1.5-66.6-1C58.8,211.6,37.8,210.9,38.1,226.1z"/>
	<path class="st20" d="M66.6,207.5c10.2,0,68.7,0.6,72.8,1.2c0.4,0.1,0.7,0.1,1.1,0.3c0.8,0.4,0.7,1.7,0.7,2.5c0,0.3,0,0.5-0.2,0.7
		s-0.5,0.2-0.7,0.1c-2.5-0.1-5-0.2-7.6-0.3c-4.8-0.2-9.7-0.4-14.5-0.6c-3-0.1-6-0.3-9-0.3c-5.3-0.1-10.6-0.1-15.9-0.2
		c-4.5,0-9.1,0-13.6,0c-2.9,0-5.8,0-8.7,0.1c-0.1,0-0.2,0-0.4,0c-11.2,0.5-33-0.2-32.6,15c0.4,17.7,24,14.2,39.5,14.3
		c2.8,0,5.5,0,8.3,0c4.4,0,8.9,0,13.3-0.1c4.6,0,9.1-0.1,13.7-0.1c3.3,0,6.6,0,9.9-0.1c3.3,0,13.3-0.2,15-0.2c0.8,0,1.9,0,2.7,0.1
		s0.6,1.1,0.6,1.7c0.1,0.9,0,1.4-0.8,1.6c-1.6,0.3-8.5,0.3-10.2,0.3c-3.3,0-6.6,0-9.9,0c-6,0.1-12,0-18,0c-8.8,0-19.5-0.2-28.3-0.5
		c-19-0.5-39.9,2.8-39.9-17C34.1,208.9,49.6,207.6,66.6,207.5z"/>
	<path class="st17" d="M58.7,215.2c0,0.3,0.2,0.5,0.5,0.5l0,0c26.3-0.3,52.9,0.2,79.2,1.3c0-0.4,0-0.7,0-1
		c-26.3-1.1-52.9-1.6-79.2-1.3C58.9,214.7,58.7,214.9,58.7,215.2z"/>
	<path class="st18" d="M126.8,219.5c-27.8-0.3-55.6-0.4-83.5-0.2"/>
	<path class="st18" d="M134.6,227.2c-30.6-0.3-63.3-0.8-94.9-0.3"/>
	<path class="st18" d="M109.8,232.6c-21.5,0-45.9,0-65.9,0"/>
	<path class="st18" d="M136.2,237.5c-6.4,0-47.9,0-64.4,0"/>
	<path class="st16" d="M73,223.1c-0.4,5.2-0.3,10.8-0.7,15.6c-1.4-1.5-3.6-3.1-4.9-4.6c-1.9,1.2-3.8,2.6-5.5,4.1
		c-0.1-5-0.3-10-0.4-14.9C65,223.4,73,223.1,73,223.1z"/>
	<path class="st21" d="M130.8,264.9c0,3.5,0.1,7.2-3.7,7.5c-5.6,0.4-53.8,0.3-69.9,0.2c-0.9,0-1.7,0-2.4,0c-0.6,0-1.1,0-1.5,0
		c-7.1-0.1-18.6-0.4-25.7-0.5c-1.8,0-3.9,0.2-5.7-0.6c-2.4-1-2.7-3.4-2.8-6c-0.2-3.8-0.2-17.9,1.2-20.3c0.7-1.2,1.9-1.9,3.2-2.2
		c3.3-0.8,7.3-0.1,10.7-0.1c3.7,0,7.3,0.1,11,0.1c3.3,0,6.7,0.1,10,0.1c0.7,0,1.5,0,2.2,0c7.8,0.1,15.7,0.2,23.5,0.3
		c6.6,0.1,13.1,0.2,19.7,0.2c4.6,0.1,9.2,0.1,13.8,0.3c2.8,0.1,5.7-0.1,8.5,0.1c2,0.1,5.4-0.3,6.7,1.9c1.2,2,1.1,7.9,1.1,10.8
		C130.6,259.3,130.8,262.5,130.8,264.9z"/>
	<path class="st22" d="M47.5,243.1c-0.8,0-1.5,0-2.3,0c-1.1,0-2.2,0-3.2,0c0,9.8-0.7,19.5-0.8,29.3c2,0,4,0.1,5.9,0.1
		C47.3,262.7,47.4,252.9,47.5,243.1z"/>
	<path class="st22" d="M57.4,243.3c0,9.8-0.1,19.6-0.1,29.3c-0.9,0-1.7,0-2.4,0c0.1-9.8,0.3-19.6,0.3-29.4
		C55.9,243.2,56.6,243.3,57.4,243.3z"/>
	<path class="st22" d="M111.9,262c0,0.4,0,0.8,0.2,1.1c0.3,0.5,1,0.6,1.6,0.6c2.1,0.1,4.3,0.1,6.4,0c0.8,0,1.1-0.3,1.2-1.1
		c0.1-3.1,0.2-6.1,0-9.2c0-0.2,0-0.5-0.1-0.6c-0.2-0.3-0.7-0.4-1.1-0.4c-1.5,0-3,0-4.6-0.1c-1,0-2.6-0.3-3.4,0.5
		c-0.5,0.5-0.4,1.3-0.4,1.9c-0.1,0.8-0.1,1.5-0.1,2.3C111.9,258.6,111.9,260.3,111.9,262z"/>
</g>
</svg>
