<?xml version="1.0" encoding="utf-8"?>
<!-- Generator: Adobe Illustrator 24.3.0, SVG Export Plug-In . SVG Version: 6.00 Build 0)  -->
<svg version="1.1" id="Capa_1" xmlns="http://www.w3.org/2000/svg" xmlns:xlink="http://www.w3.org/1999/xlink" x="0px" y="0px"
	 viewBox="0 0 632.6 412.9" style="enable-background:new 0 0 632.6 412.9;" xml:space="preserve">
<style type="text/css">
	.st0{fill:#FBCBBC;}
	.st1{fill:none;stroke:#000000;stroke-width:0.75;stroke-miterlimit:10;}
	.st2{fill:#020202;}
	.st3{fill:none;stroke:#020202;stroke-width:0.75;stroke-linecap:round;stroke-linejoin:round;stroke-miterlimit:10;}
	.st4{fill:none;stroke:#020202;stroke-miterlimit:10;}
	.st5{fill:#F6EE74;}
	.st6{fill:#F8B1A2;}
	.st7{fill:#F5A3B4;}
	.st8{fill:none;stroke:#231F20;stroke-linecap:round;stroke-linejoin:round;stroke-miterlimit:10;}
	.st9{fill:#38405E;}
	.st10{fill:#485072;}
	.st11{fill:#ADB5DC;}
	.st12{fill:#6559A5;}
	.st13{fill:#FFFFFF;}
	.st14{fill:#DDDDDD;}
	.st15{enable-background:new    ;}
	.st16{fill:#EF5B80;stroke:#231F20;stroke-miterlimit:10;}
	.st17{fill:#E2ECF1;}
	.st18{fill:none;stroke:#E2ECF1;stroke-width:2.0904;stroke-linecap:round;stroke-linejoin:round;stroke-miterlimit:10;}
	.st19{fill:#8276B5;stroke:#231F20;stroke-miterlimit:10;}
	.st20{fill:#F5A3B4;stroke:#231F20;stroke-miterlimit:10;}
	.st21{fill:#38405E;stroke:#231F20;stroke-miterlimit:10;}
	.st22{fill:#61657A;stroke:#231F20;stroke-miterlimit:10;}
</style>
<g>
	<g>
		<g>
			<path class="st0" d="M329,72.4c0.7-1.6,2.6-2.4,4.3-2c1.7,0.4,3.1,1.6,4,3c0.8,1.4,1.3,3.1,1.6,4.9c0.5,3.2,0.5,6.9-1.6,9.4
				c-1.4,1.8-3.8,2.9-6.1,2.6c-2.3-0.2-4.4-1.7-5.7-3.7"/>
		</g>
		<path class="st1" d="M335.9,72.5l-10.8,0.6c-1.7,0.1-3.2,0.7-4.6,1.7l-2.2,1.7"/>
		<g>
			<path class="st0" d="M261.4,62.9c0.8-2.6,2.5-4.9,4.4-6.9c14.2-14.7,36.4-15.4,54.8-9.7c1.1,0.4,2.3,0.7,3,1.7
				c0.7,1,2.6,6.5,4.4,13.7c0,0,4.1,12,5.9,21.9c1.7,9.9,0.5,17.9-4.7,26.5c-7.2,12-32.5,15.3-44.6,7.8c-6.4-4-10.5-10.7-13.6-17.3
				c-3.4-7.1-7.3-14.9-9.3-22.6C260.8,73.4,260.1,67.3,261.4,62.9z"/>
		</g>
		<path class="st0" d="M265.4,100l-1.6,42c0,0,11.3,13.6,39.8,10.7c19.4-1.9,23.2-16.1,23.2-16.1l-2.9-35.5"/>
		<path class="st2" d="M297.2,81.1c0.1,1.7-1.2,3-2.8,3.1c-1.7,0.1-3-1.2-3.1-2.8c-0.1-1.7,1.2-3,2.8-3.1
			C295.6,78.2,297,79.5,297.2,81.1z"/>
		<path class="st2" d="M327.2,75.4c0.1,1.7-1.2,3-2.8,3.1c-1.7,0.1-3-1.2-3.1-2.8c-0.1-1.7,1.2-3,2.8-3.1
			C325.8,72.5,327.2,73.7,327.2,75.4z"/>
		<g>
			<g>
				<path class="st2" d="M314.6,82.1c0.7,1.3,1.3,2.6,1.9,4c0.5,1.1,1,2.2,1.3,3.2c0.2,0.7,0.6,1.7,0.4,2.4
					c-0.2,0.6-1.2,0.7-1.8,0.8c-1,0.1-1.9,0.1-2.9,0.2c-0.4,0-0.4,0.6,0,0.6c1,0,1.9,0,2.9-0.1c0.6-0.1,1.3-0.2,1.9-0.6
					c0.8-0.6,0.7-1.6,0.5-2.4c-0.5-2.3-1.8-4.7-3-6.6c-0.4-0.6-0.7-1.2-1.1-1.7C314.6,81.9,314.5,82,314.6,82.1L314.6,82.1z"/>
			</g>
		</g>
		<path class="st3" d="M286.6,76.9c2.4-4.2,8.2-5.5,11.5-2.9"/>
		<path class="st3" d="M319.8,70.4c2.2-2.9,6.5-3.2,8.7-0.8"/>
		<path class="st4" d="M290.1,116.6c11.8,6.6,23.1,6.4,35.2,0"/>
		<g>
			<path class="st5" d="M336.1,38.2c-8.9-19-35.6-24.6-54-17.4c-6.7,2.6-15.2,7.5-20,13.7c-3,2.5-5.4,3.7-8.5,6.9
				c-0.8,0.8-1.6,1.7-2.2,2.6c-5.8,9.1-6.5,20.2-5.7,30.7c1.6,21.6,9,37.4,9,37.4s10.2-3.4,10.9-4c6.7-11.5,4.6-16,5.7-23.2
				c0.7-4.1,2.2-7.9,2.9-12c0.8-4.3,1.2-8.8,1.3-13.1c1.7,0.7,3.5,0.6,5.3,0.5c3.2-0.2,6.5-0.7,9.6-1.3c17.2-3.1,36.2-2.2,51.7,6.5
				c-0.1-0.1,0-6.1,0-6.9c-0.2-2.3-0.8-4.6-1.3-6.7C339.6,47.2,338.2,42.5,336.1,38.2z"/>
		</g>
		<path class="st1" d="M314.8,74.5c0.4,6.7,5.4,11.8,11.3,11.5c5.8-0.4,10.2-6,9.9-12.7s-5.4-11.8-11.3-11.5
			C318.9,62,314.5,67.8,314.8,74.5z"/>
		<path class="st1" d="M280.4,82.5c0.4,6.7,6.1,11.8,12.9,11.4c6.7-0.4,11.8-6.1,11.4-12.9c-0.4-6.7-6.1-11.8-12.9-11.4
			C285.1,70.1,280,75.7,280.4,82.5z"/>
		<path class="st1" d="M280.6,83.5l-10.8,0.6c-1.7,0.1-3.2,0.7-4.6,1.7l-2.2,1.7"/>
		<g>
			<path class="st0" d="M272.5,85.2c-6-2.6-11.7-0.8-12.3,6.4c-0.2,3,0.4,6.1,2,8.7s4.4,4.3,7.5,4.6c3,0.2,6.1-1.3,7.6-4"/>
		</g>
		<g>
			<g>
				<path class="st2" d="M263.7,90.3c0.1-0.2,0.5-0.5,0.6-0.7c0.1-0.2,0.4-0.4,0.6-0.5c0.4-0.2,0.7-0.4,1.2-0.5
					c0.8,0,1.7,0.2,2.4,0.7c0.7,0.5,1.3,1,1.8,1.7c0.6,0.8,0.8,2,1,3.1c0.1,1.7-0.1,3.2-0.7,4.8c-0.1,0.2,0.4,0.5,0.5,0.2
					c0.7-1.4,1-3,0.8-4.7c-0.1-1.2-0.2-2.5-1-3.6c-1-1.4-2.9-2.9-4.8-2.6c-0.5,0-1,0.2-1.4,0.5c-0.2,0.1-0.5,0.4-0.7,0.6
					C263.9,89.7,263.7,89.9,263.7,90.3C263.6,90.3,263.7,90.4,263.7,90.3L263.7,90.3z"/>
			</g>
		</g>
		<g>
			<g>
				<path class="st2" d="M267.2,104.8c0.6,0.5,1.4,0.7,2.3,0.7c0.8,0.1,1.7,0,2.5-0.1c1.7-0.4,3.1-1.2,4-2.6
					c0.1-0.1-0.1-0.4-0.2-0.2c-1.1,1.1-2.4,1.9-3.8,2.3c-0.7,0.1-1.4,0.2-2.3,0.1c-0.8-0.1-1.4-0.4-2.3-0.5
					C267.2,104.5,267.1,104.7,267.2,104.8L267.2,104.8z"/>
			</g>
		</g>
		<g>
			<path class="st5" d="M252.5,103.9c-13.5,6.5-29.9,17.9-34,32.6c-1.8,6.7-0.5,14.8,4.9,19.1c1.2,1,2.4,1.7,3.8,2
				c2.5,0.7,5.2,0.2,7.6-0.8c8.5-3.6,13-13.1,15.6-22.1c2.6-9,4.4-18.6,10.6-25.6"/>
		</g>
		<path class="st1" d="M304.3,78.7c0,0,3.4-4.2,10.7-3.5"/>
		<g>
			<g>
				<path class="st2" d="M311.7,105.5c0.6,0.4,1.3,0.5,2,0.6c0.7,0,1.4,0,2.2-0.1c0.7-0.1,1.3-0.4,1.9-0.7c0.6-0.4,1.2-0.7,1.4-1.4
					c0-0.1-0.1-0.2-0.2-0.2c-0.6,0.2-1,0.6-1.6,1c-0.6,0.4-1.2,0.6-1.8,0.7c-0.6,0.1-1.2,0.2-1.9,0.2s-1.3-0.2-1.9-0.4
					C311.6,105.1,311.5,105.4,311.7,105.5L311.7,105.5z"/>
			</g>
		</g>
	</g>
	<path class="st6" d="M365,297.9c3.7,1.7,7.9,3,12.3,4.3c7.2,2.1,15.2,3.3,22.4,1.5c8.8-2.2,17.3-6,19.2-13.3
		c0.7-2.6,0.7-5.4,0.7-8.1c-0.2-19.6-10.5-39.7-16.8-58.5c-1.6-4.5-3.4-19.9-9.9-21.5c-3-0.8-9.4,1.9-12.3,2.6
		c-4.9,1.2-9.7,2.6-14.5,4.2c-0.4,0.1-0.8,0.3-1.2,0.4c-6.9,2.3-12.9,3.7-16.2,9.5c-2,3.7-2.3,7.8-2.3,11.9
		c-0.1,12.7,1.3,25.2,1.9,37.8c0.4,6.8,1.3,14,5.3,20.1C356.3,292.9,360.3,295.7,365,297.9z"/>
	<path class="st7" d="M353.6,388.6c-1.2,1.9-2.8,3.4-4.9,4c-3.2,1-6.6,0.9-10,0.8c-50.6-2.2-103.2-7.4-152.2-18.9
		c-11.3-2.7-22.6-5.8-33.2-10.3c-4.2-1.7-9.6-3-10.3-7.1c-0.2-1.1,0.5-2.8,0.6-3.9c1.4-8.5,3.2-17.1,4.9-25.6
		c5.4-27,12.1-54.1,16.8-81.2c1-5.3,1.8-10.6,2.9-15.9c2.3-11.7,4.9-23.3,8.9-34.5c3-8.4,6.6-16.8,11.1-24.8s9.4-16.9,16.2-23.5
		c6.5-6.3,14.5-12.1,23.2-15.8c9-3.9,17.1-3.4,26.9-3.7c2.5-0.1,6.7-0.2,9.1-0.2c2.8,0,2.5,1.3,3.6,3.4c2,4,4.8,7.7,8.2,10.8
		c3.1,2.8,6.9,5.2,10.9,6.7c4,1.5,7.6,1.5,11.8,0.5c7.9-1.7,25-7.2,28.9-13.6c5.3,1.5-0.5,3.7,4.7,5.3c5.1,1.6,9.5,4,14.2,6.3
		c25.1,17,24.6,55.5,23.3,80.7c-0.6,11.9-1.2,23.9-1.9,35.8c-2.5,12.8-3.2,25.9-4.6,38.7c-1.8,18-3.6,36-5.2,54
		C357,363.3,358.6,380.5,353.6,388.6z"/>
	<path class="st0" d="M239.4,277.1c-16.6,1.5-33.1,2.9-49.7,4.2c-5.3,0.4-10.6,0.8-15.9,0.3c-1.8-0.2-3.7-0.6-4.7-1.9
		c-0.5-0.8-0.5-1.7-0.5-2.6c0.6-9.7,6-17,9.5-26c3.6-9.3,7.3-18.5,11.9-27.6c2.4-4.7,4.6-9.6,7.6-14l-26-40.8
		c-17.6,19.5-34.6,41-43,65.4c-4.2,12.3-7.8,24.8-10.6,37.3c-2.4,10.9-6.7,22.6-1.3,33.2l0.2,0.5l0.5,0.7c0.2,0.5,0.6,1,1,1.5
		c0.7,1,1.2,1.7,1.9,2.4c0.4,0.4,0.6,0.7,1,1c0.4,0.3,0.6,0.5,0.8,0.8c0.6,0.5,1.2,1,1.7,1.5c17.4,13.8,44.9,9,65.9,6
		c21.5-3,42.9-5.9,64.4-9c4.9-0.7,11.5-0.7,16.1-2.3c4.8-1.7,3.4-3.4,2.4-7.4c-2.2-8.6-3.7-17.2-4.8-26
		C258.4,275.4,248.9,276.2,239.4,277.1z"/>
	<path class="st7" d="M179.9,156.8c-8.8,7.7-17.2,20.2-24,29.1c-6.5,8.4-12.5,17.2-17.9,26.3c-2.6,4.4-4.9,9.1-7.5,13.7
		c-2,3.7-6,8.1-5.2,12.7c0.6,3.5,17.2,9.5,21.8,11.4c11.9,4.9,24.2,8.2,36.7,10.8c0.8,0.1,1.7,0.4,2.4-0.1c0.6-0.4,0.8-1.1,1.1-1.7
		c3.2-9.5,6.3-19,9.6-28.4c2.6-7.8,8.3-14.3,11.1-22c2.8-7.9,1-18.5,0.8-26.9c-0.1-7.9-0.2-15.9,1.2-23.7s12.1-20,17.7-25.6
		C211.4,134.8,191.8,146.3,179.9,156.8z"/>
	<path class="st7" d="M378.1,181.7c7,9.3,14.4,24,20,34.1c5.2,9.3,9.6,19,13.5,28.9c1.9,4.9,3.4,9.9,5.2,14.8
		c1.4,4,4.6,8.9,3.1,13.3c-1.2,3.4-18.5,6.6-23.3,7.7c-12.5,2.9-25.1,4.2-38,4.8c-0.8,0-1.7,0-2.3-0.5c-0.5-0.5-0.6-1.2-0.7-1.8
		c-1.7-9.9-3.1-19.7-4.9-29.6c-1.6-8.3-6.3-15.6-7-24.3c-0.5-5.2,3-10.1,5.2-14.5c2-4.4,3.5-9.1,5.2-13.8c2.3-6,4-12.3,4.9-18.6
		c0.5-3-4-24-6.1-26.5C362.3,163.3,372.1,173.6,378.1,181.7z"/>
	<path class="st0" d="M341.5,130.1c-4.8,10-0.6,13.5,1.2,20.6c2.9,0.2,5.4-0.5,8.2-0.7c3.1-0.2,6.3,0,9.4-0.2
		c5.9-0.5,11.9-1.9,17-5.2c0.5-0.2,0.8-0.6,1.2-1.1c0.4-0.5,0.5-1.1,0.6-1.7c1.9-9,0.8-18.8,0.7-27.9c0-0.4,0-0.7,0-1.1
		c0-1.4-0.2-2.9-0.7-4.3c-0.8-2-2.5-3.5-4.1-4.9c-6.9-6.1-14.1-12.1-21.3-17.8c-2.6-2.2-3.6-1.7-6.9-1c-4.6,1.2-8.4,2.5-8.5,7.8
		c0,6,0.2,14.3,1.6,19.2L341.5,130.1z"/>
	<path class="st0" d="M342.7,146c7.2,27.4,14.7,52.3,19.5,79c2.4,13.3,4.6,26.8,7,40.1c2,11.5,0.6,23.4,10.2,33.1
		c10.2,10.2,33.4,10.7,45.7,2.6c19.6-12.9,5.8-39.6-1.1-54.8c-15.5-34.5-29.6-69.4-44.9-103.8c-0.4-0.8-0.7-1.5-1.6-1.9
		c-0.7-0.3-1.4-0.2-2.3-0.2c-6.4,0.6-12.7,2.2-19.2,1.8L342.7,146z"/>
	<path class="st0" d="M298.6,306.3c11.2,0.7,22.1,3.9,31.4,9.1c3.7,2.1,10.8,3.5,11.3-2.2c1.4,0.7,3.4,0.8,4.8,0.1
		c1.4-0.6,2.5-2,2.6-3.4c1.3,0.7,3,0.7,4.4,0.1c7-3-2.5-10.4-5.1-13.4c-4.6-5.4-10.1-10.2-16.5-14.2c-13.7-10.1-30.1-10.5-47.1-10.1
		c-3.8,0.1-14.7,0.9-17.8,2.5c-2.9,1.5-1.8,4.8-2.3,7.4c-0.5,2.8-1.6,5.6-1.9,8.3c-0.5,3.1-1.3,6.8-0.4,9.9c1,2.9,0.6,4.4,1.8,8.3
		c5.7-0.7,11.4-0.9,17.1-1.8C286.8,306.2,292.7,305.9,298.6,306.3z"/>
	<path class="st8" d="M339.7,312.7c-5.9-7.3-14.9-13-25.1-15.6"/>
	<path class="st8" d="M348,309.2c-2-4.2-5.5-7.7-9.3-10.9c-4.6-3.9-9.7-7.1-15.4-9.9"/>
	<path class="st8" d="M188.5,255.7c10.2-26.1,21.2-51.8,32.7-77.3"/>
	<g>
		<path class="st9" d="M453.9,207.6c1.4-1.9,3.3-3.6,5.8-4.7c3.2-1.3,6.7-1.4,9.9-1.4c13.3-0.1,89.9,0,103.2,0
			c13.7,0,27.5-0.9,40.9-0.1c2.7,0.2,5.6,0.4,7.3,1.7c2.4,1.7,2,4.9,1.2,7.8c-1.5,5.4-4.4,10.9-6.6,16.4c-2.2,5.5-4.3,10.9-6.6,16.4
			c-7.9,19.2-4,9.2-12,28.4c-2.6,6.2-5.1,12.4-7.7,18.6c-2.4,5.7-4.2,11.9-7.6,17.5c-1.1,1.9-2.9,3.8-5.3,5.1
			c-2,1.1-4.2,1.7-6.4,2.1c-8.3,1.7-17.3,1.3-25.2,1.5c-11.9,0.3-23.8,0.5-35.7,0.6c-9.9,0.1-83.2,0.2-92.4-1
			c-9.4-1.2-3.5-11.3-1.4-16.9c2.8-7.6,7.5-18.4,10.6-26c4.9-12.2,10.9-26.9,15-36.7c2.9-7.2,6.2-14.3,9-21.4
			C450.9,213,452,210.1,453.9,207.6z"/>
		<path class="st10" d="M417.9,301.6c2.8-7.6,7.5-18.4,10.6-26c4.9-12.2,10.9-26.9,15-36.7c2.9-7.2,6.2-14.3,9-21.4
			c0.9-2.2,2-5.1,3.9-7.7c1.4-1.9,3.3-3.6,5.8-4.7c3.2-1.3,6.7-1.4,9.9-1.4c13.3-0.1,89.9,0,103.2,0c13.7,0,27.5-0.9,40.9-0.1
			c2.2,0.1,4.5,0.3,6.2,1.1c-0.3-0.6-0.7-1.2-1.3-1.6c-1.7-1.3-4.6-1.5-7.3-1.7c-13.4-0.8-27.2,0.1-40.9,0.1
			c-13.3,0-89.8-0.1-103.2,0c-3.2,0-6.7,0.1-9.9,1.4c-2.5,1.1-4.4,2.8-5.8,4.7c-1.9,2.5-3,5.5-3.9,7.7c-2.8,7.2-6,14.3-9,21.4
			c-4,9.8-10,24.5-15,36.7c-3.1,7.6-7.8,18.4-10.6,26c-1.9,5.1-6.9,13.8-0.9,16.3C412.9,312.1,416.4,305.7,417.9,301.6z"/>
		<path class="st9" d="M317.6,321.7c2.2-0.2,4.4-0.3,6.5-0.3c3,0,5.9,0.4,9,0.5c8.3,0.1,16.6,0.1,24.9,0.1c12.6,0,25.3,0,37.9,0
			c15.7,0,31.3,0,47,0c15.8,0,31.6,0,47.4,0c13,0,26,0,39,0c7.2,0,14.5,0,21.8,0c4,0,8.2,0.1,12.2,0c1.6-0.1,3.3-0.1,5-0.1
			s3.4,0.1,4.8,0.5c-1.1,2-2.7,3.8-4.8,5.6c-2.2,1.8-3.9,2.1-8.4,2.1c-12.8,0.1-29.4-0.1-41-0.1c-17.4,0.1-174.7,0.1-189.1-0.1
			c-2.8,0-6.1,0.1-8.8-0.2c-5.6-0.5-7.6-4.5-8.9-6.6c-0.1-0.1-0.2-0.3-0.1-0.4c0.1-0.2,0.5-0.3,0.9-0.4
			C314.3,322.1,315.9,321.9,317.6,321.7z"/>
		<path class="st10" d="M307.4,322.8c0.2,1.2,0.7,2.1,2.1,2.1c1.8,0,3.5,0.1,5.3,0.1c2-0.1,4-0.2,6-0.1c14.8,0.2,186.2,0.2,205,0.1
			c12.5,0,30.5,0.2,44.4,0.1c5.6-0.1,7-0.4,7.5-2.8c0.3-1.4,0.2-3.3-0.2-4.5c-0.3-1-1.4-1.6-4.7-1.9c-4.5-0.3-7.5-0.2-12.1-0.2
			c-7.9-0.1-15.7-0.1-23.6-0.1c-14.1,0-28.2,0-42.3,0c-8.8,0-17.6,0-26.5,0c-8.3,0-16.6,0-24.9,0c-7.6,0-15.3,0-22.9,0
			c-9.4,0-18.7,0-28.1,0c-13.7,0-27.4,0-41.1,0c-10.3,0-20.6-0.1-30.9-0.1c-3.3,0-6.6,0-9.8,0c-0.7,0-1.4,0-1.9,0.3
			c-1.3,0.6-1.3,2.1-1.3,3C307.5,319.6,307.1,321.4,307.4,322.8z"/>
		<path class="st11" d="M514.5,248.8c8.6-8.2,23.8-5.6,26.8,7.4c1.6,7-1.5,15.3-7.4,19.5c-5.9,4.2-14.1,4.1-19.3-0.4
			c-5.3-4.4-7.2-12.8-4.6-19.7C511.1,252.8,512.6,250.6,514.5,248.8z"/>
	</g>
	<path class="st7" d="M514.6,105.5c-3.2,0.4-23.3,0.4-32.9,0.4c-2.2,0-3.9,0-4.6,0c-6.1,0-12.2,0.1-18.2,0c-2.4-0.1-5.7,0.3-7.9-0.9
		c-2.9-1.5-1.8-7.1-1.8-9.8c0-2.5,0-5-0.1-7.4C449,80,449,84,448.9,76.4c0-2.2,0-4.4,0-6.6s-0.3-4.4,0-6.6c0.2-1.2,0.5-2.4,1.8-3.1
		c0.9-0.5,2.1-0.6,3.2-0.7c5.5-0.3,11,0.1,16.5,0c5.4,0,36.3,0,41.7,0c1.3,0,2.7,0,3.8,0.6c0.8,0.4,1.3,1.1,1.6,1.9
		c0.3,1,0.3,2.2,0.3,3.1c0,2.2,0.1,4.5,0.1,6.7c0,0.6,0,1.3,0,1.9c0,3.9,0,9.8,0,14.7c0,3.1,0.1,7.4,0,10.4
		C517.9,101,518.6,105,514.6,105.5z"/>
	<path class="st7" d="M470.3,103.8c0,0.2,0,0.5-0.1,0.7c-0.3,1.1-1,2.1-1.7,3c-0.3,0.4-0.7,0.8-1.1,1.2c-1.7,1.8-3.7,3.4-5.8,4.6
		c-0.8,0.5-7,3.6-7.4,2.3c-0.1-0.2,0-0.4,0.1-0.6c0.7-1.9,1.2-3.9,1.5-5.9c0.2-1.5,0.2-3.1,0.4-4.7c0-0.3,0.1-0.5,0.2-0.8"/>
	<path class="st12" d="M486.6,77.8c0.3-0.8,0.7-1.4,1.6-1.9c1.1-0.5,2.5-0.6,3.8-0.6c5.4,0,36.3,0,41.7,0c5.5,0,11-0.4,16.5,0
		c1.1,0.1,2.3,0.2,3.2,0.7c1.2,0.7,1.6,2,1.8,3.1c0.3,2.2,0,4.4,0,6.6s0,4.4,0,6.6c0,7.7-0.1,3.7-0.2,11.4c0,2.5,0,5-0.1,7.4
		c0,2.7,1.1,8.3-1.8,9.8c-2.2,1.1-5.5,0.8-7.9,0.9c-6.1,0.2-12.1,0-18.2,0c-4,0-33.5,0.1-37.5-0.4s-3.3-4.5-3.4-6.8
		c-0.1-3.1,0-7.4,0-10.4c0-4.9,0-10.8,0-14.7c0-2.9,0.1-5.7,0.1-8.6C486.2,80,486.2,78.8,486.6,77.8z"/>
	<path class="st12" d="M533.8,119.7c0,0.2,0,0.5,0.1,0.7c0.3,1.1,1,2.1,1.7,3c0.3,0.4,0.7,0.8,1.1,1.2c1.7,1.8,3.7,3.4,5.8,4.6
		c0.8,0.5,7,3.6,7.4,2.3c0.1-0.2,0-0.4-0.1-0.6c-0.7-1.9-1.2-3.9-1.5-5.9c-0.2-1.5-0.2-3.1-0.4-4.7c0-0.3-0.1-0.5-0.2-0.8
		c-0.2-0.2-0.4-0.3-0.7-0.4"/>
	<path class="st13" d="M497.9,94.8c2.6-2.3,7.3-1.4,8.3,2.4c0.6,2.1-0.3,4.4-2.1,5.6c-1.8,1.2-4.3,1.1-5.9-0.3
		c-1.6-1.3-2.3-3.8-1.6-5.8C496.9,95.9,497.3,95.3,497.9,94.8z"/>
	<path class="st13" d="M517.9,94.8c2.6-2.3,7.3-1.4,8.3,2.4c0.6,2.1-0.3,4.4-2.1,5.6c-1.8,1.2-4.3,1.1-5.9-0.3
		c-1.6-1.3-2.3-3.8-1.6-5.8C516.9,95.9,517.4,95.3,517.9,94.8z"/>
	<path class="st13" d="M538,94.8c2.6-2.3,7.3-1.4,8.3,2.4c0.6,2.1-0.3,4.4-2.1,5.6s-4.3,1.1-5.9-0.3c-1.6-1.3-2.3-3.8-1.6-5.8
		C537,95.9,537.4,95.3,538,94.8z"/>
	<path class="st8" d="M343.5,95.6c7.8,7.3,13,17.3,14.5,27.9"/>
	<path class="st8" d="M349.2,88.1c4.6,2.9,8.3,7,11.4,11.3c3.8,5.3,7,11.1,9.3,17.2"/>
	<g>
		<g>
			<path class="st12" d="M71.1,212.7c0.1-7.8,1-13.9,2.6-18.3c1.7-4.5,4.9-9.5,10-14.9l12.8-13.2c5.4-6.2,8.2-12.8,8.2-19.8
				c0-6.9-1.8-12.2-5.3-16.1c-3.6-3.9-8.8-5.8-15.7-5.8c-6.6,0-11.9,1.8-16.1,5.3c-4,3.5-6.1,8.3-6.1,14.1h-18
				c0.1-10.5,3.9-19,11.3-25.5s17-9.7,28.9-9.7c12.3,0,21.9,3.2,28.8,9.8c6.9,6.6,10.2,15.7,10.2,27.2c0,11.4-5.3,22.5-15.8,33.7
				l-10.6,10.5c-4.8,5.3-7.1,12.8-7.1,22.7H71.1z M70.3,243.8c0-3,0.9-5.4,2.7-7.4s4.4-3,7.9-3s6.2,1,8,3c1.8,1.9,2.7,4.5,2.7,7.4
				c0,3-0.9,5.4-2.7,7.4s-4.5,2.8-8,2.8s-6.2-0.9-7.9-2.8C71.2,249.3,70.3,246.8,70.3,243.8z"/>
		</g>
	</g>
</g>
<g>
	<text transform="matrix(1 0 0 1 154.6021 610.506)" class="st13" style="font-family:'Roboto-Medium'; font-size:38px;">Avisos importantes</text>
</g>
<g>
	<text transform="matrix(1 0 0 1 103.7947 492.8767)" class="st13" style="font-family:'Roboto-Medium'; font-size:38px;">¿Cómo lo hago?</text>
</g>
<path class="st14" d="M630.6,412.5H0.6v-61c0-11.9,9.7-21.6,21.6-21.6H609c11.9,0,21.6,9.7,21.6,21.6V412.5z"/>
<g>
	<g class="st15">
		<path d="M191.4,371.6c0,1.5-0.2,2.8-0.5,3.6c-0.3,0.9-0.9,1.8-1.8,2.8l-1.9,2c-1.1,1.2-1.7,2.5-1.7,3.8c0,1.2,0.3,2,0.9,2.6
			c0.6,0.6,1.5,0.9,2.6,0.9s2-0.3,2.6-0.9c0.7-0.6,1-1.4,1-2.5h4.5c0,2.2-0.8,3.9-2.3,5.2c-1.5,1.3-3.4,1.9-5.8,1.9
			c-2.5,0-4.5-0.6-5.9-1.9c-1.4-1.2-2.1-3-2.1-5.3c0-2,1-4.1,2.9-6.1l1.7-1.7c1-0.9,1.5-2,1.6-3.5v-1h4.2V371.6z M191.8,365.8
			c0,0.7-0.2,1.3-0.7,1.7c-0.4,0.5-1.1,0.7-1.9,0.7s-1.4-0.2-1.9-0.7s-0.7-1-0.7-1.7s0.2-1.2,0.7-1.7s1.1-0.7,1.9-0.7
			s1.4,0.2,1.9,0.7C191.5,364.6,191.8,365.2,191.8,365.8z"/>
		<path d="M221.5,375.1c-0.3,2.9-1.3,5.1-3.2,6.7s-4.3,2.4-7.4,2.4c-2.2,0-4-0.5-5.7-1.5c-1.6-1-2.9-2.5-3.8-4.4
			c-0.9-1.9-1.4-4.1-1.4-6.5v-2.5c0-2.5,0.5-4.8,1.4-6.7c0.9-1.9,2.2-3.4,3.9-4.5s3.6-1.6,5.9-1.6c3,0,5.4,0.8,7.2,2.4
			s2.9,3.9,3.2,6.9h-4.7c-0.2-1.9-0.8-3.3-1.7-4.2c-0.9-0.9-2.2-1.3-4-1.3c-2,0-3.6,0.7-4.7,2.2c-1.1,1.5-1.7,3.7-1.7,6.6v2.4
			c0,2.9,0.5,5.2,1.6,6.7c1,1.5,2.6,2.3,4.6,2.3c1.8,0,3.2-0.4,4.2-1.2c0.9-0.8,1.5-2.2,1.8-4.1L221.5,375.1L221.5,375.1z"/>
		<path d="M224.5,373.7c0-2,0.4-3.7,1.2-5.3c0.8-1.6,1.9-2.8,3.3-3.6c1.4-0.8,3-1.3,4.9-1.3c2.7,0,4.9,0.9,6.6,2.6s2.6,4.1,2.7,6.9
			v1.1c0,2-0.4,3.7-1.1,5.3s-1.8,2.8-3.3,3.6c-1.4,0.9-3.1,1.3-4.9,1.3c-2.8,0-5.1-0.9-6.8-2.8s-2.6-4.4-2.6-7.5L224.5,373.7
			L224.5,373.7z M229,374c0,2.1,0.4,3.7,1.3,4.9c0.9,1.2,2,1.8,3.6,1.8s2.7-0.6,3.6-1.8c0.8-1.2,1.3-2.9,1.3-5.2
			c0-2-0.4-3.6-1.3-4.8s-2.1-1.8-3.6-1.8s-2.6,0.6-3.5,1.8C229.4,370,229,371.7,229,374z M235,355.4h5.1L235,361h-3.6L235,355.4z"/>
		<path d="M251.2,363.8l0.1,2.1c1.4-1.6,3.3-2.5,5.8-2.5c2.7,0,4.5,1,5.5,3.1c1.5-2.1,3.5-3.1,6.2-3.1c2.2,0,3.9,0.6,4.9,1.8
			c1.1,1.2,1.6,3,1.7,5.4v13.2h-4.5v-13.1c0-1.3-0.3-2.2-0.8-2.8s-1.5-0.9-2.8-0.9c-1,0-1.9,0.3-2.5,0.8c-0.6,0.6-1.1,1.3-1.4,2.2
			v13.8h-4.5v-13.2c-0.1-2.4-1.3-3.5-3.6-3.5c-1.8,0-3.1,0.7-3.8,2.2v14.5H247v-20.1h4.2V363.8z"/>
		<path d="M279.2,373.7c0-2,0.4-3.7,1.2-5.3c0.8-1.6,1.9-2.8,3.3-3.6c1.4-0.8,3-1.3,4.9-1.3c2.7,0,4.9,0.9,6.6,2.6s2.6,4.1,2.7,6.9
			v1.1c0,2-0.4,3.7-1.1,5.3s-1.8,2.8-3.3,3.6c-1.4,0.9-3.1,1.3-4.9,1.3c-2.8,0-5.1-0.9-6.8-2.8c-1.7-1.9-2.6-4.4-2.6-7.5
			L279.2,373.7L279.2,373.7z M283.7,374c0,2.1,0.4,3.7,1.3,4.9c0.9,1.2,2,1.8,3.6,1.8s2.7-0.6,3.6-1.8c0.8-1.2,1.3-2.9,1.3-5.2
			c0-2-0.4-3.6-1.3-4.8s-2.1-1.8-3.6-1.8s-2.6,0.6-3.5,1.8C284.1,370,283.7,371.7,283.7,374z"/>
		<path d="M315.9,383.9h-4.5v-28.5h4.5V383.9z"/>
		<path d="M320,373.7c0-2,0.4-3.7,1.2-5.3c0.8-1.6,1.9-2.8,3.3-3.6c1.4-0.8,3-1.3,4.9-1.3c2.7,0,4.9,0.9,6.6,2.6s2.6,4.1,2.7,6.9
			v1.1c0,2-0.4,3.7-1.1,5.3s-1.8,2.8-3.3,3.6s-3.1,1.3-4.9,1.3c-2.8,0-5.1-0.9-6.8-2.8c-1.7-1.9-2.6-4.4-2.6-7.5L320,373.7
			L320,373.7z M324.5,374c0,2.1,0.4,3.7,1.3,4.9c0.9,1.2,2,1.8,3.6,1.8s2.7-0.6,3.6-1.8s1.3-2.9,1.3-5.2c0-2-0.4-3.6-1.3-4.8
			s-2.1-1.8-3.6-1.8s-2.6,0.6-3.5,1.8C324.9,370,324.5,371.7,324.5,374z"/>
		<path d="M356.3,366c1.5-1.7,3.3-2.6,5.6-2.6c4.3,0,6.5,2.4,6.5,7.3v13.1h-4.5v-13c0-1.4-0.3-2.4-0.9-2.9c-0.6-0.6-1.5-0.9-2.6-0.9
			c-1.8,0-3.2,0.8-4,2.4v14.3h-4.5v-28.5h4.5V366H356.3z"/>
		<path d="M385,383.9c-0.2-0.4-0.4-1-0.5-1.9c-1.4,1.5-3.2,2.2-5.3,2.2c-2,0-3.7-0.6-4.9-1.7c-1.3-1.2-1.9-2.6-1.9-4.3
			c0-2.1,0.8-3.8,2.4-4.9s3.9-1.7,6.8-1.7h2.8v-1.3c0-1-0.3-1.9-0.9-2.5s-1.5-0.9-2.7-0.9c-1,0-1.9,0.3-2.5,0.8c-0.7,0.5-1,1.2-1,2
			h-4.5c0-1.1,0.4-2.1,1.1-3.1s1.7-1.7,3-2.3c1.3-0.5,2.7-0.8,4.2-0.8c2.3,0,4.2,0.6,5.6,1.8c1.4,1.2,2.1,2.8,2.2,5v9.1
			c0,1.8,0.3,3.2,0.8,4.3v0.3H385V383.9z M380,380.6c0.9,0,1.7-0.2,2.5-0.6s1.4-1,1.8-1.7v-3.8h-2.4c-1.7,0-2.9,0.3-3.8,0.9
			c-0.8,0.6-1.3,1.4-1.3,2.5c0,0.9,0.3,1.6,0.9,2.1C378.3,380.4,379.1,380.6,380,380.6z"/>
		<path d="M392.8,373.7c0-3.1,0.7-5.6,2.2-7.5s3.4-2.8,5.8-2.8c2.3,0,4.1,0.8,5.4,2.4l0.2-2h4.1v19.5c0,2.6-0.8,4.7-2.5,6.2
			s-3.8,2.3-6.6,2.3c-1.5,0-2.9-0.3-4.3-0.9s-2.5-1.4-3.2-2.4l2.1-2.7c1.4,1.6,3.1,2.5,5.1,2.5c1.5,0,2.7-0.4,3.5-1.2
			c0.9-0.8,1.3-2,1.3-3.6v-1.4c-1.3,1.4-3,2.2-5.2,2.2c-2.4,0-4.3-0.9-5.8-2.8C393.5,379.6,392.8,377,392.8,373.7z M397.3,374.1
			c0,2,0.4,3.6,1.2,4.8c0.8,1.2,2,1.7,3.4,1.7c1.8,0,3.2-0.8,4-2.3v-8.8c-0.9-1.5-2.2-2.3-4-2.3c-1.5,0-2.6,0.6-3.5,1.8
			C397.7,370.1,397.3,371.8,397.3,374.1z"/>
		<path d="M414.3,373.7c0-2,0.4-3.7,1.2-5.3c0.8-1.6,1.9-2.8,3.3-3.6c1.4-0.8,3-1.3,4.9-1.3c2.7,0,4.9,0.9,6.6,2.6s2.6,4.1,2.7,6.9
			v1.1c0,2-0.4,3.7-1.1,5.3s-1.8,2.8-3.3,3.6s-3.1,1.3-4.9,1.3c-2.8,0-5.1-0.9-6.8-2.8c-1.7-1.9-2.6-4.4-2.6-7.5L414.3,373.7
			L414.3,373.7z M418.8,374c0,2.1,0.4,3.7,1.3,4.9c0.9,1.2,2,1.8,3.6,1.8s2.7-0.6,3.6-1.8s1.3-2.9,1.3-5.2c0-2-0.4-3.6-1.3-4.8
			s-2.1-1.8-3.6-1.8s-2.6,0.6-3.5,1.8C419.2,370,418.8,371.7,418.8,374z"/>
		<path d="M440.9,376c0-1.6,0.2-3,0.6-3.9s1.2-2.1,2.4-3.2c1.2-1.2,2-2,2.3-2.5c0.5-0.8,0.7-1.6,0.7-2.4c0-1.2-0.3-2-0.9-2.7
			s-1.4-0.9-2.5-0.9s-1.9,0.3-2.6,0.9s-1,1.4-1,2.4h-4.5c0-2.2,0.8-3.9,2.2-5.2s3.4-1.9,5.8-1.9c2.5,0,4.4,0.6,5.8,1.9
			s2.1,3,2.1,5.3c0,2-0.9,4-2.8,6l-2.3,2.2c-0.8,0.9-1.2,2.3-1.3,4.1L440.9,376L440.9,376z M440.6,381.7c0-0.7,0.2-1.3,0.7-1.8
			s1.1-0.7,1.9-0.7s1.4,0.2,1.9,0.7s0.7,1,0.7,1.7s-0.2,1.2-0.7,1.7s-1.1,0.7-1.9,0.7s-1.4-0.2-1.9-0.7S440.6,382.4,440.6,381.7z"/>
	</g>
</g>
<g>
	<text transform="matrix(1 0 0 1 248.4502 498.6221)" class="st13" style="font-family:'Roboto-Medium'; font-size:50px;">¿Cómo lo hago?</text>
</g>
<g>
	<path class="st13" d="M149.1,321.2c0.4,17.7,23.2,14.2,38.2,14.3c8.5,0.1,39.3-0.2,45.1-0.2c5.4-0.1,11,0.1,16.4-0.2
		c0.7-7,0.6-14.5,0.5-20.3c0-1,0-1.9,0-2.7c0-0.4,0-0.7,0-1c0-1.5-0.1-2.7-0.3-3.7c-0.6-0.1-1.2-0.1-1.9-0.2
		c-14.5-1.2-58.3-1.5-66.6-1C169.8,306.8,148.8,306,149.1,321.2z"/>
	<path class="st16" d="M177.6,302.7c2.4-0.1,4.8-0.2,7.2-0.2c3.9,0,7.8,0,11.6,0c4.7,0,9.4,0.1,14.1,0.1c4.8,0.1,9.7,0.2,14.5,0.3
		c4.3,0.1,8.6,0.3,12.9,0.5c4.2,0.2,8.3,0.4,12.4,1c0.4,0.1,0.7,0.1,1.1,0.3c0.8,0.4,0.7,1.2,0.7,2c0,0.3,0,0.5-0.2,0.7
		s-0.5,0.2-0.7,0.1c-2.5-0.1-5-0.2-7.6-0.3c-4.8-0.2-9.7-0.4-14.5-0.6c-3-0.1-6-0.3-9-0.3c-5.3-0.1-10.6-0.1-15.9-0.2
		c-4.5,0-9.1,0-13.6,0c-2.9,0-5.8,0-8.7,0.1c-0.1,0-0.2,0-0.4,0c-11.2,0.5-33-0.2-32.6,15c0.4,17.7,24,14.2,39.5,14.3
		c2.8,0,5.5,0,8.3,0c4.4,0,8.9,0,13.3-0.1c4.6,0,9.1-0.1,13.7-0.1c3.3,0,6.6,0,9.9-0.1c3.3,0,13.3-0.2,15-0.2c0.8,0,1.9,0,2.7,0.1
		s0.6,1.1,0.6,1.7c0.1,0.9,0,1.4-0.8,1.6c-1.6,0.3-8.5,0.3-10.2,0.3c-3.3,0-6.6,0-9.9,0c-6,0.1-12,0-18,0c-8.8,0-17.5-0.1-26.3-0.2
		c-12.1-0.2-41.5,3.6-41.9-17.2C144.8,304,166.5,303.3,177.6,302.7z"/>
	<path class="st17" d="M169.7,310.3c0,0.3,0.2,0.5,0.5,0.5l0,0c26.3-0.3,52.9,0.2,79.2,1.3c0-0.4,0-0.7,0-1
		c-26.3-1.1-52.9-1.6-79.2-1.3C169.9,309.8,169.7,310,169.7,310.3z"/>
	<path class="st18" d="M237.8,314.6c-27.8-0.3-55.6-0.4-83.5-0.2"/>
	<path class="st18" d="M245.6,322.3c-30.6-0.3-63.3-0.8-94.9-0.3"/>
	<path class="st18" d="M220.8,327.7c-21.5,0-45.9,0-65.9,0"/>
	<path class="st18" d="M247.2,332.7c-6.4,0-47.9,0-64.4,0"/>
	<path class="st19" d="M184.1,318.3c-0.4,5.2-0.3,10.8-0.7,15.6c-1.4-1.5-3.6-3.1-4.9-4.6c-1.9,1.2-3.8,2.6-5.5,4.1
		c-0.1-5-0.3-10-0.4-14.9C176,318.5,184.1,318.3,184.1,318.3z"/>
	<path class="st13" d="M41.1,293.5c0.4,17.7,23.2,14.2,38.2,14.3c8.5,0.1,39.3-0.2,45.1-0.2c5.4-0.1,11,0.1,16.4-0.2
		c0.7-7,0.6-14.5,0.5-20.3c0-1,0-1.9,0-2.7c0-0.4,0-0.7,0-1c0-1.5-0.1-2.7-0.3-3.7c-0.6-0.1-1.2-0.1-1.9-0.2
		c-14.5-1.2-58.3-1.5-66.6-1C61.8,279,40.8,278.3,41.1,293.5z"/>
	<path class="st20" d="M69.6,274.9c10.2,0,68.7,0.6,72.8,1.2c0.4,0.1,0.7,0.1,1.1,0.3c0.8,0.4,0.7,1.7,0.7,2.5c0,0.3,0,0.5-0.2,0.7
		s-0.5,0.2-0.7,0.1c-2.5-0.1-5-0.2-7.6-0.3c-4.8-0.2-9.7-0.4-14.5-0.6c-3-0.1-6-0.3-9-0.3c-5.3-0.1-10.6-0.1-15.9-0.2
		c-4.5,0-9.1,0-13.6,0c-2.9,0-5.8,0-8.7,0.1c-0.1,0-0.2,0-0.4,0c-11.2,0.5-33-0.2-32.6,15c0.4,17.7,24,14.2,39.5,14.3
		c2.8,0,5.5,0,8.3,0c4.4,0,8.9,0,13.3-0.1c4.6,0,9.1-0.1,13.7-0.1c3.3,0,6.6,0,9.9-0.1c3.3,0,13.3-0.2,15-0.2c0.8,0,1.9,0,2.7,0.1
		s0.6,1.1,0.6,1.7c0.1,0.9,0,1.4-0.8,1.6c-1.6,0.3-8.5,0.3-10.2,0.3c-3.3,0-6.6,0-9.9,0c-6,0.1-12,0-18,0c-8.8,0-19.5-0.2-28.3-0.5
		c-19-0.5-39.9,2.8-39.9-17C37.1,276.3,52.6,275,69.6,274.9z"/>
	<path class="st17" d="M61.7,282.6c0,0.3,0.2,0.5,0.5,0.5l0,0c26.3-0.3,52.9,0.2,79.2,1.3c0-0.4,0-0.7,0-1
		c-26.3-1.1-52.9-1.6-79.2-1.3C61.9,282.1,61.7,282.3,61.7,282.6z"/>
	<path class="st18" d="M129.8,286.9c-27.8-0.3-55.6-0.4-83.5-0.2"/>
	<path class="st18" d="M137.6,294.6c-30.6-0.3-63.3-0.8-94.9-0.3"/>
	<path class="st18" d="M112.8,300c-21.5,0-45.9,0-65.9,0"/>
	<path class="st18" d="M139.2,304.9c-6.4,0-47.9,0-64.4,0"/>
	<path class="st16" d="M76,290.5c-0.4,5.2-0.3,10.8-0.7,15.6c-1.4-1.5-3.6-3.1-4.9-4.6c-1.9,1.2-3.8,2.6-5.5,4.1
		c-0.1-5-0.3-10-0.4-14.9C68,290.8,76,290.5,76,290.5z"/>
	<path class="st21" d="M133.8,332.3c0,3.5,0.1,7.2-3.7,7.5c-5.6,0.4-53.8,0.3-69.9,0.2c-0.9,0-1.7,0-2.4,0c-0.6,0-1.1,0-1.5,0
		c-7.1-0.1-18.6-0.4-25.7-0.5c-1.8,0-3.9,0.2-5.7-0.6c-2.4-1-2.7-3.4-2.8-6c-0.2-3.8-0.2-17.9,1.2-20.3c0.7-1.2,1.9-1.9,3.2-2.2
		c3.3-0.8,7.3-0.1,10.7-0.1c3.7,0,7.3,0.1,11,0.1c3.3,0,6.7,0.1,10,0.1c0.7,0,1.5,0,2.2,0c7.8,0.1,15.7,0.2,23.5,0.3
		c6.6,0.1,13.1,0.2,19.7,0.2c4.6,0.1,9.2,0.1,13.8,0.3c2.8,0.1,5.7-0.1,8.5,0.1c2,0.1,5.4-0.3,6.7,1.9c1.2,2,1.1,7.9,1.1,10.8
		C133.6,326.7,133.8,329.9,133.8,332.3z"/>
	<path class="st22" d="M50.5,310.5c-0.8,0-1.5,0-2.3,0c-1.1,0-2.2,0-3.2,0c0,9.8-0.7,19.5-0.8,29.3c2,0,4,0.1,5.9,0.1
		C50.3,330.1,50.4,320.3,50.5,310.5z"/>
	<path class="st22" d="M60.4,310.7c0,9.8-0.1,19.6-0.1,29.3c-0.9,0-1.7,0-2.4,0c0.1-9.8,0.3-19.6,0.3-29.4
		C58.9,310.6,59.6,310.7,60.4,310.7z"/>
	<path class="st22" d="M114.9,329.4c0,0.4,0,0.8,0.2,1.1c0.3,0.5,1,0.6,1.6,0.6c2.1,0.1,4.3,0.1,6.4,0c0.8,0,1.1-0.3,1.2-1.1
		c0.1-3.1,0.2-6.1,0-9.2c0-0.2,0-0.5-0.1-0.6c-0.2-0.3-0.7-0.4-1.1-0.4c-1.5,0-3,0-4.6-0.1c-1,0-2.6-0.3-3.4,0.5
		c-0.5,0.5-0.4,1.3-0.4,1.9c-0.1,0.8-0.1,1.5-0.1,2.3C114.9,326,114.9,327.7,114.9,329.4z"/>
</g>
</svg>
