<?xml version="1.0" encoding="utf-8"?>
<!-- Generator: Adobe Illustrator 25.0.1, SVG Export Plug-In . SVG Version: 6.00 Build 0)  -->
<svg version="1.1" id="Capa_1" xmlns="http://www.w3.org/2000/svg" xmlns:xlink="http://www.w3.org/1999/xlink" x="0px" y="0px"
	 viewBox="0 0 632.6 412.9" style="enable-background:new 0 0 632.6 412.9;" xml:space="preserve">
<style type="text/css">
	.st0{fill:#B3E3EF;}
	.st1{fill:#61B3DB;}
	.st2{fill:#2D80AA;}
	.st3{clip-path:url(#SVGID_2_);}
	.st4{fill:#29266B;}
	.st5{fill:#C9AA7D;}
	.st6{fill:#000100;}
	.st7{fill:#FFFFFF;}
	.st8{fill:none;stroke:#000100;stroke-width:1.0159;stroke-linecap:round;stroke-linejoin:round;stroke-miterlimit:10;}
	.st9{fill:none;stroke:#000100;stroke-width:1.3546;stroke-miterlimit:10;}
	.st10{opacity:0.52;}
	.st11{fill:#833125;}
	.st12{fill:#F2D18F;}
	.st13{fill:#E8C079;}
	.st14{fill:#B7DFEA;}
	.st15{fill:#A2CCDA;}
	.st16{fill:#C6856B;}
	.st17{fill:none;stroke:#000000;stroke-width:1.0663;stroke-miterlimit:10;}
	.st18{fill:#DA3F3A;}
	.st19{fill:#231F20;}
	.st20{fill:#B54812;}
	.st21{fill:#8C2F06;}
	.st22{fill:#BFBAA9;}
	.st23{fill:#A5A297;}
	.st24{fill:#F4A822;}
	.st25{fill:#FFB948;}
	.st26{fill:#A04512;}
	.st27{fill:#7F3008;}
</style>
<g>
	<g>
		<g>
			<g>
				<path class="st0" d="M522.6,317.9H92.4c-15.8,0-28.4-12.3-28.4-27.5V30.9C64,15.8,76.8,3.4,92.4,3.4h430.1
					c15.8,0,28.4,12.3,28.4,27.5v259.5C551,305.6,538.3,317.9,522.6,317.9z"/>
			</g>
		</g>
		<g>
			<g>
				<path class="st1" d="M489.1,298.4H112.3c-14.3,0-25.7-10.8-25.7-24V47.1c0-13.2,11.6-24,25.7-24h376.9c14.3,0,25.7,10.8,25.7,24
					v227.1C515,287.6,503.4,298.4,489.1,298.4z"/>
			</g>
		</g>
		<g>
			<g>
				<path class="st2" d="M537.7,188.7c0,2.6-2.4,4.7-5.3,4.7l0,0c-3,0-5.3-2.2-5.3-4.7v-55c0-2.6,2.4-4.7,5.3-4.7l0,0
					c3,0,5.3,2.2,5.3,4.7V188.7z"/>
			</g>
		</g>
	</g>
	<g>
		<g>
			<g>
				<g>
					<g>
						<defs>
							<path id="SVGID_1_" d="M489.1,298.4H112.3c-14.3,0-25.7-10.8-25.7-24V47.1c0-13.2,11.6-24,25.7-24h376.9
								c14.3,0,25.7,10.8,25.7,24v227.1C515,287.6,503.4,298.4,489.1,298.4z"/>
						</defs>
						<clipPath id="SVGID_2_">
							<use xlink:href="#SVGID_1_"  style="overflow:visible;"/>
						</clipPath>
						<g class="st3">
							<path class="st4" d="M367.4,449.4H247.8c-55.1,0-99.7-44.2-99.7-98.9v-56c0-54.6,44.6-98.9,99.7-98.9h119.6
								c55.1,0,99.7,44.2,99.7,98.9v56C466.9,405.2,422.3,449.4,367.4,449.4z"/>
						</g>
					</g>
				</g>
			</g>
		</g>
	</g>
	<g>
		<g>
			<path class="st5" d="M351.7,116.7c6.8-6.7,15.5-7.3,20.1,2.2c1.9,3.9,2.7,8.5,1.8,12.8c-1,4.3-3.8,8.2-7.8,10.1
				c-3.9,1.9-9.1,1.5-12.4-1.3"/>
		</g>
		<g>
			<path class="st5" d="M345.6,74.7c-13.3-8.2-29.1-12.5-44.9-12c-7.8,0.3-15.6,1.6-22.3,5.7c-9,5.4-14.7,14.8-17.4,25
				c-2.7,10-2.6,20.5-2,30.9c0.5,8.4,1.4,17.1,5.7,24.4c5.6,9.3,16.1,14.3,23.8,21c6.3,5.4,14.3,8,22.6,8.9
				c15.1,1.8,36.3-0.8,45.7-14.4c8.2-12,10.9-23.6,9.1-38c-1.6-14.4-6.7-32.2-6.7-32.2"/>
		</g>
		<path class="st5" d="M261.2,148.2l-0.7,57.2c0,0,9.7,19.7,52.1,20.4c32.5,0.5,43.4-23.1,43.4-23.1l-9.1-47.6"/>
		<g>
			<path class="st6" d="M263.4,78.8c12.5-16.1,33.3-25.1,53.5-23.5c20.1,1.6,37.4,6.7,47.3,24.4c3.7,6.5,7.9,21.2,6.7,28.6
				c-28-7.8-57-12.7-86.1-14.4c-9.8,14.4-17.1,48.6-24.3,64.5c-6-3.4-12.8-17.3-14.8-23.7c-4.9-16.1-5.6-24.1-4.2-35.6"/>
		</g>
		<path class="st6" d="M309.4,119.9c0,2.4-1.9,4.3-4.4,4.3c-2.4,0-4.4-1.9-4.4-4.3c0-2.4,1.9-4.3,4.4-4.3
			C307.5,115.6,309.4,117.5,309.4,119.9z"/>
		<ellipse class="st6" cx="349.7" cy="115.6" rx="4.4" ry="4.3"/>
		<g>
			<g>
				<path class="st6" d="M336.1,127.9c1,2,1.8,4,2.6,6.1c0.5,1.6,1.2,3.1,1.6,4.7c0.3,1.1,0.7,2.6,0.3,3.6c-0.4,0.9-1.9,0.9-2.7,1.1
					c-1.5,0.1-3,0-4.4,0c-0.4,0-0.4,0.7,0,0.7c1.4,0.1,2.9,0.1,4.2,0.1c1,0,2-0.1,2.9-0.7c1.1-0.8,1-2.2,0.8-3.4
					c-0.5-3.4-2.2-6.7-3.7-9.7c-0.4-0.8-1-1.8-1.4-2.6C336.2,127.7,336.1,127.9,336.1,127.9L336.1,127.9z"/>
			</g>
		</g>
		<g>
			<path class="st7" d="M325,151.1c0.1,2.6,0.3,5.1,1,7.6c1.9,6.9,9.7,8.6,13.6,3c1.8-2.6,2.2-6.3,2.6-9.8L325,151.1z"/>
		</g>
		<g>
			<path class="st5" d="M273.1,125.2c-8.6-4.3-17-2.2-18.5,8.2c-0.7,4.3,0,8.9,2.2,12.7c2.2,3.8,6.1,6.7,10.5,7.3
				c4.4,0.5,9.1-1.3,11.4-5.1"/>
		</g>
		<g>
			<g>
				<path class="st6" d="M259.8,131.8c0.8-1.2,2.2-2.2,3.7-2.2c1.4,0,2.6,0.7,3.5,1.3c1,0.7,1.9,1.6,2.4,2.6c0.8,1.3,1,3.1,1.1,4.6
					c0,2.3-0.5,4.7-1.5,6.7c-0.1,0.3,0.3,0.5,0.5,0.3c1.1-2,1.6-4.2,1.6-6.3c0-1.8-0.1-3.8-1.1-5.4c-1.2-2.3-3.9-4.3-6.5-4.3
					c-0.8,0-1.5,0.1-2.2,0.5C260.6,130.2,260,130.8,259.8,131.8C259.6,131.8,259.6,131.8,259.8,131.8L259.8,131.8z"/>
			</g>
		</g>
		<g>
			<g>
				<path class="st6" d="M263.6,153.1c1.8,1.5,4.6,1.6,6.8,1.2c2.4-0.4,4.6-1.5,6.1-3.5c0.1-0.1-0.1-0.4-0.3-0.3
					c-1.6,1.6-3.7,2.7-5.8,3.1c-1.1,0.1-2.3,0.3-3.4,0c-1.1-0.1-2-0.5-3.1-0.9C263.6,152.7,263.4,153,263.6,153.1L263.6,153.1z"/>
			</g>
		</g>
		<path class="st8" d="M293.9,111.7c4.8-5.3,13.5-5.4,17.5-0.7"/>
		<path class="st8" d="M343.4,107.8c3.4-4,9.8-4.2,12.8-0.4"/>
		<path class="st9" d="M291.2,170c17.7,8.9,40.5,11.6,58.6,2.2"/>
	</g>
</g>
<g>
	<text transform="matrix(1 0 0 1 154.6021 610.506)" class="st7" style="font-family:'Roboto-Medium'; font-size:38px;">Avisos importantes</text>
</g>
<g>
	<text transform="matrix(1 0 0 1 103.7947 492.8767)" class="st7" style="font-family:'Roboto-Medium'; font-size:38px;">Desarrollo del tema</text>
</g>
<g>
	<g class="st10">
		<g>
			<path class="st7" d="M442.8,346.2c0,0.8-0.5,1.4-1.4,1.4H365c-0.9,0-1.4-0.5-1.4-1.4l0,0c0-0.8,0.5-1.4,1.4-1.4h76.5
				C442.1,344.8,442.8,345.3,442.8,346.2L442.8,346.2z"/>
		</g>
	</g>
	<g class="st10">
		<g>
			<path class="st7" d="M442.8,352.3c0,0.8-0.5,1.4-1.4,1.4H365c-0.9,0-1.4-0.5-1.4-1.4l0,0c0-0.8,0.5-1.4,1.4-1.4h76.5
				C442.1,351,442.8,351.5,442.8,352.3L442.8,352.3z"/>
		</g>
	</g>
	<g>
		<g>
			<g>
				<rect x="302.2" y="278.3" class="st11" width="117.6" height="111.7"/>
			</g>
		</g>
		<g>
			<g>
				<rect x="419.8" y="278.3" class="st11" width="117.6" height="111.7"/>
			</g>
		</g>
	</g>
	<g>
		<g>
			<g>
				<path class="st11" d="M424.2,387.8c0,2.3-2,4.4-4.4,4.4l0,0c-2.5,0-4.4-1.9-4.4-4.4v-107c0-2.3,2-4.4,4.4-4.4l0,0
					c2.5,0,4.4,1.9,4.4,4.4V387.8z"/>
			</g>
		</g>
	</g>
	<g>
		<g>
			<g>
				<rect x="305.9" y="275.4" class="st12" width="113.8" height="111.3"/>
			</g>
		</g>
		<g>
			<g>
				<rect x="419.8" y="275.4" class="st13" width="113.8" height="111.3"/>
			</g>
		</g>
	</g>
	<g>
		<g>
			<g>
				<rect x="305.9" y="275.4" class="st14" width="113.8" height="111.3"/>
			</g>
		</g>
		<g>
			<g>
				<rect x="419.8" y="275.4" class="st15" width="113.8" height="111.3"/>
			</g>
		</g>
	</g>
	<g class="st10">
		<g>
			<path class="st7" d="M413,288.1c0,1-0.9,1.7-1.7,1.7h-93.2c-1,0-1.7-0.8-1.7-1.7l0,0c0-1,0.9-1.7,1.7-1.7h93.2
				C412.2,286.3,413,287.1,413,288.1L413,288.1z"/>
		</g>
	</g>
	<g class="st10">
		<g>
			<path class="st7" d="M526.6,288.1c0,1-0.9,1.7-1.7,1.7h-93.2c-1,0-1.7-0.8-1.7-1.7l0,0c0-1,0.9-1.7,1.7-1.7h93.2
				C525.7,286.3,526.6,287.1,526.6,288.1L526.6,288.1z"/>
		</g>
	</g>
	<g class="st10">
		<g>
			<path class="st7" d="M526.6,299c0,1-0.9,1.7-1.7,1.7h-93.2c-1,0-1.7-0.8-1.7-1.7l0,0c0-1,0.9-1.7,1.7-1.7h93.2
				C525.7,297.3,526.6,298.1,526.6,299L526.6,299z"/>
		</g>
	</g>
	<g class="st10">
		<g>
			<path class="st7" d="M461.4,315.5c0,1-0.2,1.7-0.5,1.7h-30.5c-0.3,0-0.5-0.8-0.5-1.7l0,0c0-1,0.2-1.7,0.5-1.7h30.5
				C461.2,313.8,461.4,314.5,461.4,315.5L461.4,315.5z"/>
		</g>
	</g>
	<g class="st10">
		<g>
			<path class="st7" d="M413,296.9c0,1-0.9,1.7-1.7,1.7h-93.2c-1,0-1.7-0.8-1.7-1.7l0,0c0-1,0.9-1.7,1.7-1.7h93.2
				C412.2,295.3,413,296.1,413,296.9L413,296.9z"/>
		</g>
	</g>
	<g class="st10">
		<g>
			<path class="st7" d="M413,313.9c0,1-0.9,1.7-1.7,1.7h-93.2c-1,0-1.7-0.8-1.7-1.7l0,0c0-1,0.9-1.7,1.7-1.7h93.2
				C412.2,312.1,413,312.9,413,313.9L413,313.9z"/>
		</g>
	</g>
	<g class="st10">
		<g>
			<path class="st7" d="M413,354.2c0,1-0.9,1.7-1.7,1.7h-93.2c-1,0-1.7-0.8-1.7-1.7l0,0c0-1,0.9-1.7,1.7-1.7h93.2
				C412.2,352.5,413,353.3,413,354.2L413,354.2z"/>
		</g>
	</g>
	<g class="st10">
		<g>
			<path class="st7" d="M413,361.8c0,1-0.9,1.7-1.7,1.7h-93.2c-1,0-1.7-0.8-1.7-1.7l0,0c0-1,0.9-1.7,1.7-1.7h93.2
				C412.2,360.1,413,360.8,413,361.8L413,361.8z"/>
		</g>
	</g>
	<g>
		<g>
			<g>
				<path class="st16" d="M339.4,378.9c-4.7-4.2-25.9,3.1-30.7,0.8c-4.8-2.1-1.9-7.1-1.9-7.1l13.1-17.4c4.1-5.5,2.9-13.2-2.6-17.1
					l-15.1-11c-18.1-13.3-32.3-12.2-45.8,5.7l-24.5,44.9c-1.5,2.7-25.9,33.3-23.3,35.2l59.3-0.4c2.5,0.4,3.4-4.5,10.5-8.1
					c2.8-1.4,5.6-2.7,7.2-3.3c10.3-3.5,28.4-5.4,42.6-7.1C342.2,392.4,344.1,383,339.4,378.9z"/>
			</g>
		</g>
		<g>
			<g>
				<path class="st16" d="M268.4,335.7c-1.9,3.8-5.6,16-8.6,14.5l-0.4-10.2c-3.2-1.5-8.4,3.3-6.4-0.5l26-54.2c1.9-3.8,6-5.8,9.2-4.4
					l0,0c3.2,1.5,4.1,5.8,2.2,9.8L268.4,335.7z"/>
			</g>
		</g>
		<g>
			<g>
				<path class="st16" d="M291.4,330.8c-2.2,3.7-6.4,5.2-9.5,3.5l0,0c-2.9-1.7-3.5-6.3-1.3-9.9l26.1-42.7c2.2-3.7,6.4-5.2,9.5-3.5
					l0,0c2.9,1.7,3.5,6.3,1.3,9.9L291.4,330.8z"/>
			</g>
		</g>
		<g>
			<g>
				<path class="st16" d="M314.5,359.2c-3.3,2.8-7.9,3.1-10.1,0.4l0,0c-2.4-2.5-1.5-7,1.7-9.9l38-32.8c3.3-2.8,7.9-3.1,10.1-0.4l0,0
					c2.4,2.5,1.5,7-1.7,9.9L314.5,359.2z"/>
			</g>
		</g>
		<g>
			<g>
				<path class="st16" d="M310.6,336.4c-2.6,3.5-7.1,4.6-9.9,2.4l0,0c-2.8-2.1-2.9-6.7-0.2-10l30.5-39.8c2.6-3.5,7.1-4.6,9.9-2.4
					l0,0c2.8,2.1,2.9,6.7,0.2,10L310.6,336.4z"/>
			</g>
		</g>
		<g>
			<g>
				<path class="st17" d="M282,285.1c1.2-1.6,3.5-2,5.1-0.8c1.6,1.2,2,3.5,0.9,5.1"/>
			</g>
		</g>
		<g>
			<g>
				<path class="st17" d="M309.4,282.5c1.2-1.6,3.5-2,5.1-0.8s2,3.5,0.9,5.1"/>
			</g>
		</g>
		<g>
			<g>
				<path class="st17" d="M333.4,290.6c1.2-1.6,3.5-2,5.1-0.8c1.6,1.2,2,3.5,0.9,5.1"/>
			</g>
		</g>
		<g>
			<g>
				<path class="st17" d="M345.6,319.2c1.2-1.6,3.5-2,5.1-0.8s2,3.5,0.9,5.1"/>
			</g>
		</g>
	</g>
	<g>
		<g>
			<g>
				<g>
					<path class="st16" d="M501.8,336.1c10.4-16.8,51-44.6,50.8-35.3c-1.1,39.5,80.2,111.6,73.7,111.7c-23.6,0.4-58.1,0.7-66.4,1.1
						C551.6,414,492.5,351.2,501.8,336.1z"/>
				</g>
			</g>
			<g>
				<g>
					<path class="st16" d="M524,363.9c-12.4,0.7-47.5-14.2-50.1-23.5c-4.6-16.6-9.3-31.6-0.3-33c8.9-1.4,14.8,12.8,15.5,20.4
						s22.5,9.8,22.5,9.8L524,363.9z"/>
				</g>
			</g>
			<g>
				<g>
					<path class="st16" d="M506,331.3c3.4-8.8,8.5-21.7,1.9-37.8c-6.6-16-14.8,0.8-23.8,1.5c-8.9,0.7-10.4-15.6,8.2-21.7
						c18.6-6.2,24-4,30.9,5.5s11.8,39.5,11.8,39.5L506,331.3z"/>
				</g>
			</g>
			<g>
				<g>
					<path class="st16" d="M549.1,314.5c-1.4-7.5-7.6-23.6-10.3-37.5c-2.2-12.5-9.5-15.7-33.8-15.1c-18.6,0.4-10.4,12.3-5.6,12.3
						c4.8,0,22.5-1.9,25.5,8.1c2.7,8.6,6,39.5,6,39.5L549.1,314.5z"/>
				</g>
			</g>
			<g>
				<g>
					<path class="st16" d="M548.4,326.5c0-9.6,7.9-34.7,5.1-41.6c-2.7-6.9-13-25-19.2-21.7c-4.9,2.5,4,21.7,4,27.9
						c0,6.2-3.4,28.1-3.4,28.1L548.4,326.5z"/>
				</g>
			</g>
			<g>
				<g>
					<polygon class="st18" points="447.7,313.3 553.6,246.4 559.9,256.1 453.9,323 					"/>
				</g>
			</g>
		</g>
		<g>
			<g>
				<path class="st1" d="M447.8,313.4l6.2,9.7l-8.8,0.1c-1,0-1.5-1-1.2-1.7L447.8,313.4z"/>
			</g>
		</g>
		<g>
			<g>
				<path class="st17" d="M473,320.6c-2.2-1.2-3.1-3.8-1.9-6.1c1.2-2.2,3.9-3.1,6.1-1.9"/>
			</g>
		</g>
		<g>
			<g>
				<path class="st17" d="M483.4,287.6c-1.2,2.2-3.1,3.4-4.4,2.8c-1.2-0.5-1.2-2.9,0-5.1"/>
			</g>
		</g>
		<g>
			<g>
				<path class="st17" d="M499.5,268.6c-2.5,0-4.5-1.1-4.6-2.3c0-1.4,2-2.4,4.5-2.5"/>
			</g>
		</g>
		<g>
			<g>
				<path class="st2" d="M561.7,251.9c0,3.3-2.7,5.9-6,5.9s-6-2.7-6-5.9c0-3.3,2.7-5.9,6-5.9C559,245.9,561.7,248.7,561.7,251.9z"/>
			</g>
		</g>
		<g>
			<g>
				<g>
					<path class="st19" d="M563.5,291.9c1.5-4.2,2.4-8.7,2.2-13.3c-0.1-4.4-1-8.8-2.9-12.8c-0.2-0.3-0.7-0.1-0.5,0.2
						c0.7,2.1,1.3,4,1.7,6.2c0.4,2.1,0.7,4.4,0.9,6.6c0.1,4.5-0.4,8.7-1.7,13C562.7,292.1,563.4,292.2,563.5,291.9L563.5,291.9z"/>
				</g>
			</g>
			<g>
				<g>
					<path class="st19" d="M576.3,286.8c1.4-3.7,2.2-7.8,2.4-11.7c0.1-3.7-0.1-7.9-1.6-11.4c-0.1-0.3-0.5-0.1-0.4,0.2
						c0.3,1.9,0.9,3.7,1.1,5.7c0.2,1.9,0.3,3.7,0.3,5.6c-0.1,3.8-0.9,7.8-2.1,11.4C575.6,286.9,576.1,287.1,576.3,286.8L576.3,286.8
						z"/>
				</g>
			</g>
		</g>
	</g>
</g>
<g>
	<polygon class="st20" points="60.6,296.5 65.2,294.4 89.4,344.8 84.9,346.9 	"/>
	<polygon class="st21" points="65.2,294.4 69.8,292.3 94,342.7 89.5,344.8 	"/>
	<g>
		<polygon class="st22" points="42.3,267.4 60.1,296.9 65.2,294.4 50.4,263.5 		"/>
		<polygon class="st23" points="58.5,259.7 70.3,292 65.2,294.4 50.4,263.5 		"/>
	</g>
	<g>
		<polygon class="st24" points="58.7,297.5 71.8,291.3 79.1,306.5 66,312.6 		"/>
		<polygon class="st25" points="60.2,300.6 73.3,294.5 74.6,297.2 61.5,303.3 		"/>
		<polygon class="st25" points="63.1,306.7 76.2,300.5 77.5,303.2 64.4,309.4 		"/>
	</g>
	<path class="st26" d="M86.4,339.4v74c-21.1,0-41.9-6.4-49.3-25.9c-3-7.9-3.7-17.2,3.6-33.8c2-4.6,4.7-9.6,7.8-14.3H86.4z"/>
	<path class="st27" d="M125.8,400.6c-3.4,3.2-7.8,6.2-13.6,8.4c-6.9,2.7-15.6,4.4-26.8,4.4v-74h37.8c5.1,8,9.1,16.4,11.2,23.1
		C139.5,378.7,135.2,391.7,125.8,400.6z"/>
	<path class="st22" d="M86.4,329.3v10.1H48.6c2.9-4.4,5.7-8,7.9-10.1H86.4z"/>
	<path class="st23" d="M123.1,339.4H85.3v-10.1h29.9C117.5,331.4,120.2,335,123.1,339.4z"/>
</g>
</svg>
