<?xml version="1.0" encoding="utf-8"?>
<!-- Generator: Adobe Illustrator 24.3.0, SVG Export Plug-In . SVG Version: 6.00 Build 0)  -->
<svg version="1.1" id="Capa_1" xmlns="http://www.w3.org/2000/svg" xmlns:xlink="http://www.w3.org/1999/xlink" x="0px" y="0px"
	 viewBox="0 0 632.6 412.9" style="enable-background:new 0 0 632.6 412.9;" xml:space="preserve">
<style type="text/css">
	.st0{fill:#B27702;}
	.st1{fill:#000100;}
	.st2{fill:#FFCFDC;}
	.st3{opacity:0.35;clip-path:url(#SVGID_6_);}
	.st4{fill:#FFFFFF;}
	.st5{fill:#719ACC;}
	.st6{fill:none;stroke:#000100;stroke-width:0.75;stroke-miterlimit:10;}
	.st7{fill:none;stroke:#3D66A8;stroke-width:0.75;stroke-miterlimit:10;}
	.st8{fill:none;stroke:#000100;stroke-width:0.75;stroke-linecap:round;stroke-linejoin:round;stroke-miterlimit:10;}
	.st9{fill:none;stroke:#374689;stroke-linecap:round;stroke-linejoin:round;stroke-miterlimit:10;}
	.st10{fill:#2A2873;}
	.st11{fill:#96BCE2;}
	.st12{fill:none;stroke:#38405E;stroke-width:2.3168;stroke-linecap:round;stroke-linejoin:round;}
	.st13{fill:none;stroke:#38405E;stroke-width:2.3168;stroke-linecap:round;stroke-linejoin:round;stroke-dasharray:6.909,6.909;}
	.st14{fill:#38405E;}
	.st15{fill:#0E97CD;}
	.st16{fill:#D4E4E8;}
	.st17{fill:#0C5A9A;}
	.st18{fill:#ADC3C9;}
	.st19{fill:#DDDDDD;}
	.st20{enable-background:new    ;}
</style>
<g>
	<g>
		<g>
			<g>
				<path class="st0" d="M309.1,211.8c6.1-19.9,8.6-45.6,11.4-47.2c1.2-0.7,2.4,0.3,3,2c1.4,3.9,1.2,11.2,3.7,11
					c1.5-0.1,5.7-16.9,8.8-24.2c1.1-2.6,3.8-1.2,3.8,0.5c0.1,6.8-3.8,22.4-3.8,22.4c1,0,4.7-17.9,8.4-24.5c0.8-1.4,3.6-1.3,3.6,0.6
					c0.1,7.2-3.6,26.2-3.6,26.2s3.6-18.4,7.4-24.1c0.7-1,3.3-0.5,3.3,0.8c0.2,5.6-4.1,27.2-4.1,27.2s3.7-15.5,6.1-20.2
					c0.6-1.3,3.5-0.1,3.6,1.2c1.2,10.8-10.8,56-10.8,56"/>
			</g>
			<g>
				<g>
					<path class="st1" d="M350.3,184.8c-3.5,1.7-6.7,4.2-9.3,7.2c-1.3,1.5-2.4,3-3.4,4.7c-1,1.7-1.9,3.5-2.4,5.4
						c-0.1,0.2,0.3,0.4,0.4,0.2c0.8-1.8,1.5-3.5,2.5-5.2c1-1.7,2.1-3.3,3.4-4.8c2.5-3,5.6-5.4,9-7.3
						C350.6,184.9,350.4,184.7,350.3,184.8L350.3,184.8z"/>
				</g>
			</g>
			<g>
				<g>
					<path class="st1" d="M326.7,180.1c0.6,2.4,1.1,4.8,1.2,7.2c0,1.2-0.1,2.3-0.3,3.5c-0.2,1.1-0.6,2.1-0.9,3.2
						c-0.1,0.2,0.2,0.3,0.3,0.1c1.2-1.9,1.5-4.5,1.4-6.7c-0.1-2.5-0.7-5-1.3-7.4C327,179.8,326.6,179.9,326.7,180.1L326.7,180.1z"/>
				</g>
			</g>
			<path class="st2" d="M156.3,181.1c0,0,28-4.6,43.8-4.3c15.8,0.3,58.4,7.4,58.4,7.4l16.3,145.5c-22.2,22.2-124.8,14.5-135.7,0
				L156.3,181.1z"/>
			<g>
				<defs>
					<path id="SVGID_5_" d="M156.3,181.1c0,0,28-4.6,43.8-4.3c15.8,0.3,58.4,7.4,58.4,7.4l16.3,145.5c-22.2,22.2-124.8,14.5-135.7,0
						L156.3,181.1z"/>
				</defs>
				<clipPath id="SVGID_6_">
					<use xlink:href="#SVGID_5_"  style="overflow:visible;"/>
				</clipPath>
				<g class="st3">
					<g>
						<g>
							<path class="st4" d="M138.2,332.2c12.3,2.5,24.7,4.3,37.3,5.2c12.5,0.9,25.1,1.1,37.6,0.4c9.1-0.5,18.2-1.4,27.2-2.6
								c8.9-1.2,17.7-2.6,26.4-5c4.2-1.2,8.4-2.5,12.4-4.3c3.5-1.5,6.9-3.3,9.9-5.8c0.7-0.6,1.3-1.2,1.8-1.9
								c0.4-0.6-0.1-1.5-0.8-1.1c-3.1,1.9-6.1,4-9.4,5.6c-3.7,1.8-7.6,3.3-11.6,4.5c-8.5,2.6-17.2,4.2-26,5.5
								c-8.4,1.2-16.9,2.1-25.4,2.8c-12.4,0.9-24.9,1.2-37.3,0.6c-12.5-0.6-24.9-1.9-37.2-3.9c-1.5-0.3-3-0.5-4.6-0.8
								C137.9,331.3,137.6,332.1,138.2,332.2L138.2,332.2z"/>
						</g>
					</g>
					<g>
						<g>
							<path class="st4" d="M137.6,322.5c12.3,2.5,24.7,4.3,37.3,5.2c12.5,0.9,25.1,1.1,37.6,0.4c9.1-0.5,18.2-1.4,27.2-2.6
								c8.9-1.2,17.7-2.6,26.4-5c4.2-1.2,8.4-2.5,12.4-4.3c3.5-1.5,6.9-3.3,9.9-5.8c0.7-0.6,1.3-1.2,1.8-1.9
								c0.4-0.6-0.1-1.5-0.8-1.1c-3.1,1.9-6.1,4-9.4,5.6c-3.7,1.8-7.6,3.3-11.6,4.5c-8.5,2.6-17.2,4.2-26,5.5
								c-8.4,1.2-16.9,2.1-25.4,2.8c-12.4,0.9-24.9,1.2-37.3,0.6c-12.5-0.6-24.9-1.9-37.2-3.9c-1.5-0.3-3-0.5-4.6-0.8
								C137.3,321.6,137.1,322.4,137.6,322.5L137.6,322.5z"/>
						</g>
					</g>
					<g>
						<g>
							<path class="st4" d="M137,312.8c12.3,2.5,24.7,4.3,37.3,5.2c12.5,0.9,25.1,1.1,37.6,0.4c9.1-0.5,18.2-1.4,27.2-2.6
								c8.9-1.2,17.7-2.6,26.4-5c4.2-1.2,8.4-2.5,12.4-4.3c3.5-1.5,6.9-3.3,9.9-5.8c0.7-0.6,1.3-1.2,1.8-1.9
								c0.4-0.6-0.1-1.5-0.8-1.1c-3.1,1.9-6.1,4-9.4,5.6c-3.7,1.8-7.6,3.3-11.6,4.5c-8.5,2.6-17.2,4.2-26,5.5
								c-8.4,1.2-16.9,2.1-25.4,2.8c-12.4,0.9-24.9,1.2-37.3,0.6c-12.5-0.6-24.9-1.9-37.2-3.9c-1.5-0.3-3-0.5-4.6-0.8
								C136.7,311.9,136.5,312.7,137,312.8L137,312.8z"/>
						</g>
					</g>
					<g>
						<g>
							<path class="st4" d="M136.4,303.1c12.3,2.5,24.7,4.3,37.3,5.2c12.5,0.9,25.1,1.1,37.6,0.4c9.1-0.5,18.2-1.4,27.2-2.6
								c8.9-1.2,17.7-2.6,26.4-5c4.2-1.2,8.4-2.5,12.4-4.3c3.5-1.5,6.9-3.3,9.9-5.8c0.7-0.6,1.3-1.2,1.8-1.9
								c0.4-0.6-0.1-1.5-0.8-1.1c-3.1,1.9-6.1,4-9.4,5.6c-3.7,1.8-7.6,3.3-11.6,4.5c-8.5,2.6-17.2,4.2-26,5.5
								c-8.4,1.2-16.9,2.1-25.4,2.8c-12.4,0.9-24.9,1.2-37.3,0.6c-12.5-0.6-24.9-1.9-37.2-3.9c-1.5-0.3-3-0.5-4.6-0.8
								C136.1,302.2,135.9,303,136.4,303.1L136.4,303.1z"/>
						</g>
					</g>
					<g>
						<g>
							<path class="st4" d="M135.9,293.4c12.3,2.5,24.7,4.3,37.3,5.2c12.5,0.9,25.1,1.1,37.6,0.4c9.1-0.5,18.2-1.4,27.2-2.6
								c8.9-1.2,17.7-2.6,26.4-5c4.2-1.2,8.4-2.5,12.4-4.3c3.5-1.5,6.9-3.3,9.9-5.8c0.7-0.6,1.3-1.2,1.8-1.9
								c0.4-0.6-0.1-1.5-0.8-1.1c-3.1,1.9-6.1,4-9.4,5.6c-3.7,1.8-7.6,3.3-11.6,4.5c-8.5,2.6-17.2,4.2-26,5.5
								c-8.4,1.2-16.9,2.1-25.4,2.8c-12.4,0.9-24.9,1.2-37.3,0.6c-12.5-0.6-24.9-1.9-37.2-3.9c-1.5-0.3-3-0.5-4.6-0.8
								C135.6,292.5,135.3,293.3,135.9,293.4L135.9,293.4z"/>
						</g>
					</g>
					<g>
						<g>
							<path class="st4" d="M135.3,283.7c12.3,2.5,24.7,4.3,37.3,5.2c12.5,0.9,25.1,1.1,37.6,0.4c9.1-0.5,18.2-1.4,27.2-2.6
								c8.9-1.2,17.7-2.6,26.4-5c4.2-1.2,8.4-2.5,12.4-4.3c3.5-1.5,6.9-3.3,9.9-5.8c0.7-0.6,1.3-1.2,1.8-1.9
								c0.4-0.6-0.1-1.5-0.8-1.1c-3.1,1.9-6.1,4-9.4,5.6c-3.7,1.8-7.6,3.3-11.6,4.5c-8.5,2.6-17.2,4.2-26,5.5
								c-8.4,1.2-16.9,2.1-25.4,2.8c-12.4,0.9-24.9,1.2-37.3,0.6c-12.5-0.6-24.9-1.9-37.2-3.9c-1.5-0.3-3-0.5-4.6-0.8
								C135,282.8,134.8,283.6,135.3,283.7L135.3,283.7z"/>
						</g>
					</g>
					<g>
						<g>
							<path class="st4" d="M134.7,274c12.3,2.5,24.7,4.3,37.3,5.2c12.5,0.9,25.1,1.1,37.6,0.4c9.1-0.5,18.2-1.4,27.2-2.6
								c8.9-1.2,17.7-2.6,26.4-5c4.2-1.2,8.4-2.5,12.4-4.3c3.5-1.5,6.9-3.3,9.9-5.8c0.7-0.6,1.3-1.2,1.8-1.9
								c0.4-0.6-0.1-1.5-0.8-1.1c-3.1,1.9-6.1,4-9.4,5.6c-3.7,1.8-7.6,3.3-11.6,4.5c-8.5,2.6-17.2,4.2-26,5.5
								c-8.4,1.2-16.9,2.1-25.4,2.8c-12.4,0.9-24.9,1.2-37.3,0.6c-12.5-0.6-24.9-1.9-37.2-3.9c-1.5-0.3-3-0.5-4.6-0.8
								C134.4,273.1,134.2,273.9,134.7,274L134.7,274z"/>
						</g>
					</g>
					<g>
						<g>
							<path class="st4" d="M134.1,264.3c12.3,2.5,24.7,4.3,37.3,5.2c12.5,0.9,25.1,1.1,37.6,0.4c9.1-0.5,18.2-1.4,27.2-2.6
								c8.9-1.2,17.7-2.6,26.4-5c4.2-1.2,8.4-2.5,12.4-4.3c3.5-1.5,6.9-3.3,9.9-5.8c0.7-0.6,1.3-1.2,1.8-1.9
								c0.4-0.6-0.1-1.5-0.8-1.1c-3.1,1.9-6.1,4-9.4,5.6c-3.7,1.8-7.6,3.3-11.6,4.5c-8.5,2.6-17.2,4.2-26,5.5
								c-8.4,1.2-16.9,2.1-25.4,2.8c-12.4,0.9-24.9,1.2-37.3,0.6c-12.5-0.6-24.9-1.9-37.2-3.9c-1.5-0.3-3-0.5-4.6-0.8
								C133.8,263.4,133.6,264.2,134.1,264.3L134.1,264.3z"/>
						</g>
					</g>
					<g>
						<g>
							<path class="st4" d="M133.6,254.6c12.3,2.5,24.7,4.3,37.3,5.2c12.5,0.9,25.1,1.1,37.6,0.4c9.1-0.5,18.2-1.4,27.2-2.6
								c8.9-1.2,17.7-2.6,26.4-5c4.2-1.2,8.4-2.5,12.4-4.3c3.5-1.5,6.9-3.3,9.9-5.8c0.7-0.6,1.3-1.2,1.8-1.9
								c0.4-0.6-0.1-1.5-0.8-1.1c-3.1,1.9-6.1,4-9.4,5.6c-3.7,1.8-7.6,3.3-11.6,4.5c-8.5,2.6-17.2,4.2-26,5.5
								c-8.4,1.2-16.9,2.1-25.4,2.8c-12.4,0.9-24.9,1.2-37.3,0.6c-12.5-0.6-24.9-1.9-37.2-3.9c-1.5-0.3-3-0.5-4.6-0.8
								C133.3,253.8,133,254.5,133.6,254.6L133.6,254.6z"/>
						</g>
					</g>
					<g>
						<g>
							<path class="st4" d="M133,244.9c12.3,2.5,24.7,4.3,37.3,5.2c12.5,0.9,25.1,1.1,37.6,0.4c9.1-0.5,18.2-1.4,27.2-2.6
								c8.9-1.2,17.7-2.6,26.4-5c4.2-1.2,8.4-2.5,12.4-4.3c3.5-1.5,6.9-3.3,9.9-5.8c0.7-0.6,1.3-1.2,1.8-1.9
								c0.4-0.6-0.1-1.5-0.8-1.1c-3.1,1.9-6.1,4-9.4,5.6c-3.7,1.8-7.6,3.3-11.6,4.5c-8.5,2.6-17.2,4.2-26,5.5
								c-8.4,1.2-16.9,2.1-25.4,2.8c-12.4,0.9-24.9,1.2-37.3,0.6c-12.5-0.6-24.9-1.9-37.2-3.9c-1.5-0.3-3-0.5-4.6-0.8
								C132.7,244.1,132.5,244.8,133,244.9L133,244.9z"/>
						</g>
					</g>
					<g>
						<g>
							<path class="st4" d="M132.4,235.3c12.3,2.5,24.7,4.3,37.3,5.2c12.5,0.9,25.1,1.1,37.6,0.4c9.1-0.5,18.2-1.4,27.2-2.6
								c8.9-1.2,17.7-2.6,26.4-5c4.2-1.2,8.4-2.5,12.4-4.3c3.5-1.5,6.9-3.3,9.9-5.8c0.7-0.6,1.3-1.2,1.8-1.9
								c0.4-0.6-0.1-1.5-0.8-1.1c-3.1,1.9-6.1,4-9.4,5.6c-3.7,1.8-7.6,3.3-11.6,4.5c-8.5,2.6-17.2,4.2-26,5.5
								c-8.4,1.2-16.9,2.1-25.4,2.8c-12.4,0.9-24.9,1.2-37.3,0.6c-12.5-0.6-24.9-1.9-37.2-3.9c-1.5-0.3-3-0.5-4.6-0.8
								C132.1,234.4,131.9,235.1,132.4,235.3L132.4,235.3z"/>
						</g>
					</g>
					<g>
						<g>
							<path class="st4" d="M131.8,225.6c12.3,2.5,24.7,4.3,37.3,5.2c12.5,0.9,25.1,1.1,37.6,0.4c9.1-0.5,18.2-1.4,27.2-2.6
								c8.9-1.2,17.7-2.6,26.4-5c4.2-1.2,8.4-2.5,12.4-4.3c3.5-1.5,6.9-3.3,9.9-5.8c0.7-0.6,1.3-1.2,1.8-1.9
								c0.4-0.6-0.1-1.5-0.8-1.1c-3.1,1.9-6.1,4-9.4,5.6c-3.7,1.8-7.6,3.3-11.6,4.5c-8.5,2.6-17.2,4.2-26,5.5
								c-8.4,1.2-16.9,2.1-25.4,2.8c-12.4,0.9-24.9,1.2-37.3,0.6c-12.5-0.6-24.9-1.9-37.2-3.9c-1.5-0.3-3-0.5-4.6-0.8
								C131.5,224.7,131.3,225.5,131.8,225.6L131.8,225.6z"/>
						</g>
					</g>
					<g>
						<g>
							<path class="st4" d="M131.3,215.9c12.3,2.5,24.7,4.3,37.3,5.2c12.5,0.9,25.1,1.1,37.6,0.4c9.1-0.5,18.2-1.4,27.2-2.6
								c8.9-1.2,17.7-2.6,26.4-5c4.2-1.2,8.4-2.5,12.4-4.3c3.5-1.5,6.9-3.3,9.9-5.8c0.7-0.6,1.3-1.2,1.8-1.9
								c0.4-0.6-0.1-1.5-0.8-1.1c-3.1,1.9-6.1,4-9.4,5.6c-3.7,1.8-7.6,3.3-11.6,4.5c-8.5,2.6-17.2,4.2-26,5.5
								c-8.4,1.2-16.9,2.1-25.4,2.8c-12.4,0.9-24.9,1.2-37.3,0.6c-12.5-0.6-24.9-1.9-37.2-3.9c-1.5-0.3-3-0.5-4.6-0.8
								C131,215,130.7,215.8,131.3,215.9L131.3,215.9z"/>
						</g>
					</g>
					<g>
						<g>
							<path class="st4" d="M130.7,206.2c12.3,2.5,24.7,4.3,37.3,5.2c12.5,0.9,25.1,1.1,37.6,0.4c9.1-0.5,18.2-1.4,27.2-2.6
								c8.9-1.2,17.7-2.6,26.4-5c4.2-1.2,8.4-2.5,12.4-4.3c3.5-1.5,6.9-3.3,9.9-5.8c0.7-0.6,1.3-1.2,1.8-1.9
								c0.4-0.6-0.1-1.5-0.8-1.1c-3.1,1.9-6.1,4-9.4,5.6c-3.7,1.8-7.6,3.3-11.6,4.5c-8.5,2.6-17.2,4.2-26,5.5
								c-8.4,1.2-16.9,2.1-25.4,2.8c-12.4,0.9-24.9,1.2-37.3,0.6c-12.5-0.6-24.9-1.9-37.2-3.9c-1.5-0.3-3-0.5-4.6-0.8
								C130.4,205.3,130.2,206.1,130.7,206.2L130.7,206.2z"/>
						</g>
					</g>
					<g>
						<g>
							<path class="st4" d="M130.1,196.5c12.3,2.5,24.7,4.3,37.3,5.2c12.5,0.9,25.1,1.1,37.6,0.4c9.1-0.5,18.2-1.4,27.2-2.6
								c8.9-1.2,17.7-2.6,26.4-5c4.2-1.2,8.4-2.5,12.4-4.3c3.5-1.5,6.9-3.3,9.9-5.8c0.7-0.6,1.3-1.2,1.8-1.9
								c0.4-0.6-0.1-1.5-0.8-1.1c-3.1,1.9-6.1,4-9.4,5.6c-3.7,1.8-7.6,3.3-11.6,4.5c-8.5,2.6-17.2,4.2-26,5.5
								c-8.4,1.2-16.9,2.1-25.4,2.8c-12.4,0.9-24.9,1.2-37.3,0.6c-12.5-0.6-24.9-1.9-37.2-3.9c-1.5-0.3-3-0.5-4.6-0.8
								C129.8,195.6,129.6,196.4,130.1,196.5L130.1,196.5z"/>
						</g>
					</g>
					<g>
						<g>
							<path class="st4" d="M129.5,186.8c12.3,2.5,24.7,4.3,37.3,5.2c12.5,0.9,25.1,1.1,37.6,0.4c9.1-0.5,18.2-1.4,27.2-2.6
								c8.9-1.2,17.7-2.6,26.4-5c4.2-1.2,8.4-2.5,12.4-4.3c3.5-1.5,6.9-3.3,9.9-5.8c0.7-0.6,1.3-1.2,1.8-1.9
								c0.4-0.6-0.1-1.5-0.8-1.1c-3.1,1.9-6.1,4-9.4,5.6c-3.7,1.8-7.6,3.3-11.6,4.5c-8.5,2.6-17.2,4.2-26,5.5
								c-8.4,1.2-16.9,2.1-25.4,2.8c-12.4,0.9-24.9,1.2-37.3,0.6c-12.5-0.6-24.9-1.9-37.2-3.9c-1.5-0.3-3-0.5-4.6-0.8
								C129.2,185.9,129,186.7,129.5,186.8L129.5,186.8z"/>
						</g>
					</g>
					<g>
						<g>
							<path class="st4" d="M129,177.1c12.3,2.5,24.7,4.3,37.3,5.2c12.5,0.9,25.1,1.1,37.6,0.4c9.1-0.5,18.2-1.4,27.2-2.6
								c8.9-1.2,17.7-2.6,26.4-5c4.2-1.2,8.4-2.5,12.4-4.3c3.5-1.5,6.9-3.3,9.9-5.8c0.7-0.6,1.3-1.2,1.8-1.9
								c0.4-0.6-0.1-1.5-0.8-1.1c-3.1,1.9-6.1,4-9.4,5.6c-3.7,1.8-7.6,3.3-11.6,4.5c-8.5,2.6-17.2,4.2-26,5.5
								c-8.4,1.2-16.9,2.1-25.4,2.8c-12.4,0.9-24.9,1.2-37.3,0.6c-12.5-0.6-24.9-1.9-37.2-3.9c-1.5-0.3-3-0.5-4.6-0.8
								C128.7,176.2,128.4,177,129,177.1L129,177.1z"/>
						</g>
					</g>
				</g>
			</g>
			<path class="st5" d="M223.9,176.8c0,0,10.2-2.1,20.1-0.9c6.9,0.9,19.8,6.3,29.2,15.3c13.2,12.5,26.4,40.9,26.4,40.9l12.8-44
				l45.5,8.5c0,0-6.4,74.9-14.3,96.7c-2.6,7.2-13.1,22.6-26.6,24.3c-18.9,2.4-35.1-8.7-42.8-18.5c-7.7-9.8-35.7-38.8-35.7-38.8"/>
			<path class="st6" d="M299.6,232.1c0,0-12.7,42.6-13.6,50"/>
			<path class="st5" d="M265.1,220.2L289.4,338c0,0-33.1-17.2-44.6-35.1s-20.9-126.1-20.9-126.1"/>
			<line class="st6" x1="265.1" y1="220.2" x2="283.4" y2="309.1"/>
			<line class="st7" x1="318.7" y1="189.1" x2="317" y2="197.1"/>
			<line class="st7" x1="327.3" y1="190.8" x2="325.9" y2="198.8"/>
			<line class="st7" x1="336.1" y1="192.5" x2="334.9" y2="200.1"/>
			<line class="st7" x1="344.8" y1="194.1" x2="343.6" y2="201.7"/>
			<line class="st7" x1="353.3" y1="195.6" x2="352.1" y2="203.3"/>
			<g>
				<g>
					<path class="st0" d="M185.2,278.9c20.2-4.9,42.3-19.1,45.2-17.8c1.3,0.6,1.2,2.1,0.1,3.6c-2.4,3.4-8.5,7.4-6.9,9.4
						c0.9,1.2,17.1-6.3,24.8-8c2.8-0.6,3.2,2.4,1.8,3.4c-5.5,4-20.4,11.1-20.4,11.1c0.6,0.9,17.3-7.8,24.8-8.5
						c1.6-0.2,3.1,2.2,1.6,3.3c-5.9,4.2-23.4,13.4-23.4,13.4s17.1-8.9,24-9.1c1.3,0,2.3,2.4,1.3,3.2c-4.5,3.4-24.6,13.5-24.6,13.5
						s14.7-7.1,19.9-7.9c1.4-0.2,2.1,2.8,1.1,3.7c-8.2,7.2-52,24.6-52,24.6"/>
				</g>
				<g>
					<path class="st5" d="M140.2,223.5l-14.4,130.9c8.3-2.9,35.2-21.7,41.3-28.1c3.5-3.6,6.9-7.3,9.1-11.7c4.2-8.5,2.8-18.5,2.4-28
						c-1.4-36.6-7.5-103.5-7.5-103.5"/>
				</g>
				<g>
					<path class="st5" d="M171.3,180.8c0,0-7.1,0-18.8,1.7c-21.7,3-38.9,16.3-46.9,45c-3,10.9-14.4,71.1-15.6,82.3
						c-2.2,20.7,10.4,47.5,42.3,44.9c19.6-1.6,84.8-40.4,84.8-40.4L202.9,271l-59.7,14.9"/>
				</g>
				<line class="st6" x1="132.8" y1="291.1" x2="202.9" y2="271"/>
				<line class="st6" x1="148.9" y1="244.5" x2="146.3" y2="287.1"/>
				<line class="st7" x1="205.1" y1="277.4" x2="196.9" y2="279.9"/>
				<line class="st7" x1="207.7" y1="284.5" x2="199.5" y2="287.1"/>
				<line class="st7" x1="210.2" y1="292.5" x2="202" y2="295.1"/>
				<line class="st7" x1="212.3" y1="299.1" x2="204.1" y2="301.6"/>
				<line class="st7" x1="214.9" y1="306.6" x2="206.7" y2="309.1"/>
			</g>
		</g>
		<g>
			<g>
				<path d="M211.4,163c1.3,7,2.6,14,5.1,20.7c2.2,5.8,5.4,11.3,9.9,15.6c7,6.6,22.8,10.1,31.4,4.8c3.9-2.4,6.1-6.9,6.9-11.3
					c1.2-6.6-0.3-13.6-4-19.2c-3.7-5.6-9.6-9.6-16.1-11.1c-1-0.2-2.2-0.6-2.5-1.6c-0.1-0.5,0-1,0.1-1.4c0.8-2.8,1.1-5.7,0.5-8.5
					c-0.7-2.8-2.5-5.4-5.2-6.5c-1.1-0.5-2.5-0.7-3.3-1.6c-0.6-0.6-0.8-1.5-1.1-2.3c-2.7-9.3-8.1-17.7-15.3-24.1"/>
			</g>
			<g>
				<path class="st0" d="M220.6,135.9c0.6-1.3,2.2-1.9,3.6-1.7c1.4,0.3,2.6,1.3,3.3,2.6c0.7,1.2,1,2.7,1.2,4.1
					c0.4,2.7,0.3,5.7-1.4,7.8c-1.2,1.5-3.2,2.3-5.2,2.1c-1.9-0.2-3.7-1.4-4.6-3.1"/>
			</g>
			<path class="st0" d="M203,174.6L203,174.6c13.7-1.6,23.5-13.9,21.9-27.6l-2.8-24.8l-16.3-7.9l-33.3,13.6l2.8,24.8
				C177,166.4,189.4,176.2,203,174.6z"/>
			<path class="st0" d="M198.9,192.7L198.9,192.7c9.5,0,17.2-7.7,17.2-17.2v-11.7h-34.4v11.7C181.7,185,189.4,192.7,198.9,192.7z"/>
			<g>
				<path d="M154.5,130.4c-0.7,7-3.7,13.8-8.3,19.1c-2.5,2.9-5.4,5.3-8,8.1c-2.6,2.8-4.8,6-5.6,9.7c-0.8,3.7,0.3,8,3.4,10.2
					c2.4,1.8,5.7,2.1,8.4,3.4c-1.8,1.6-2.2,4.3-2.2,6.7c-0.1,7.5,2.8,15,8,20.5c11.4,12.3,40.6,16.7,41.8-6.4
					c0.3-6.9-0.6-13.9-2.3-20.5c-2.5-9.4-10.4-16.5-13.2-25.8c-1-3.4-1.4-6.9-1.5-10.4c-0.1-1.7-0.3-3.3,0.2-4.9
					c0.5-1.8,1.1-3.5,1.6-5.3"/>
			</g>
			<g>
				<path d="M170.1,139.7c4.5,0.2,8.8,0.1,13-1.3c4.1-1.4,8-3.4,11.5-5.9c5.1-3.6,9.4-8.1,13.4-12.9c6.2,3.2,11.7,7.9,15.9,13.5
					c0.8-0.2,1.4-0.9,1.8-1.6c6.8-10.7-1.1-25.8-11-31.5c-7.7-4.5-17.1-5.5-25.8-4.5c-0.5,0.1-1,0.1-1.6,0.2
					c-12.4,1.9-23,7.8-29.2,18.7c-4,7.1-5.3,18.2-6.4,26.3"/>
			</g>
			<g>
				<path class="st0" d="M178,144.8c-2.3-3.1-7.4-3.6-10.5-1.2c-3.1,2.4-4.1,7-2.6,10.6c0.6,1.6,1.7,3,2.8,4.3
					c0.9,1.1,1.9,2.1,3,2.9c1.8,1.2,4.1,1.7,6.2,1.2c2.1-0.5,3.9-2.2,4.4-4.3"/>
			</g>
			<path class="st6" d="M189.1,170.5c7.1,4.3,19.5,4.3,27-0.8"/>
			<g>
				<g>
					<path class="st1" d="M168.3,148.6c0.5-0.9,1.4-1.5,2.4-1.6c1-0.1,1.9,0.3,2.7,0.8c0.8,0.6,1.4,1.5,1.8,2.5
						c0.2,0.5,0.4,1,0.5,1.5c0.1,0.5,0.2,1.1,0.5,1.5c0.1,0.2,0.4,0.1,0.4-0.1c0-0.6-0.2-1.2-0.4-1.8c-0.2-0.6-0.4-1.2-0.7-1.7
						c-0.5-1-1.2-1.9-2.2-2.5c-0.9-0.5-1.9-0.8-2.9-0.6c-1,0.2-1.9,1-2.3,1.9C168.1,148.6,168.3,148.7,168.3,148.6L168.3,148.6z"/>
				</g>
			</g>
			<path class="st1" d="M192.4,142.4c0.1,1.4-1,2.5-2.4,2.6c-1.4,0.1-2.5-1-2.6-2.4c-0.1-1.4,1-2.5,2.4-2.6
				C191.2,140,192.3,141,192.4,142.4z"/>
			<path class="st1" d="M217.6,138c0.1,1.4-1,2.5-2.4,2.6c-1.4,0.1-2.5-1-2.6-2.4c-0.1-1.4,1-2.5,2.4-2.6
				C216.4,135.6,217.5,136.7,217.6,138z"/>
			<g>
				<g>
					<path class="st1" d="M206.9,143.5c0.6,1.1,1.1,2.2,1.6,3.4c0.4,0.9,0.8,1.8,1.1,2.8c0.2,0.6,0.5,1.4,0.2,2
						c-0.2,0.5-1.1,0.6-1.5,0.6c-0.8,0.1-1.6,0-2.4,0.1c-0.3,0-0.3,0.5,0,0.5c0.8,0.1,1.6,0,2.4,0c0.5-0.1,1.1-0.1,1.6-0.5
						c0.7-0.5,0.6-1.3,0.4-2c-0.2-1-0.6-1.9-1-2.8c-0.4-0.9-0.9-1.9-1.4-2.7c-0.3-0.5-0.6-1-0.9-1.5
						C206.9,143.3,206.8,143.4,206.9,143.5L206.9,143.5z"/>
				</g>
			</g>
			<path class="st8" d="M183.6,138.8c2.1-3.5,6.9-4.5,9.7-2.2"/>
			<path class="st8" d="M211.4,133.8c1.9-2.4,5.5-2.6,7.2-0.6"/>
			<g>
				<path class="st4" d="M200.7,157.7c0,3,1.7,5.8,4,6.9c2.3,1.1,7.2,1.3,7.9-6.2L200.7,157.7z"/>
			</g>
			<path class="st9" d="M171.8,100.4c6.6-3.7,14.1-5.6,21.6-5.5"/>
		</g>
	</g>
	<g>
		<g>
			<g>
				<path class="st10" d="M134.3,132.1l-4.9-25.9c-1.7-8.9-2.2-16.2,8.1-22.8l0.3,0.4c-10,6.4-9.6,13.3-7.8,22.3l4.9,25.9
					L134.3,132.1z"/>
			</g>
		</g>
		<g>
			<g>
				<polygon class="st5" points="155.7,81.6 227.9,74 219.9,104.6 164.6,109.1 				"/>
			</g>
		</g>
		<g>
			<g>
				<g>
					<polygon class="st11" points="191.4,92.4 242,74.4 186.8,60.6 136.4,83.8 					"/>
				</g>
			</g>
		</g>
		<g>
			<g>
				<polygon class="st10" points="140,138.7 133.9,129.8 131.2,140.3 				"/>
			</g>
		</g>
	</g>
	<g>
		<path class="st2" d="M460.6,65c-5.7-21-26.3-22.2-42.3-11c-2.4-8.9-8.8-16.6-17.1-20.6c-6.6-3.2-14.4-4.1-21.3-1.7
			c-10.3,3.5-17.1,13.3-22.4,22.8c-5.3-4.8-13.3-6-20.2-3.9c-9.6,3-17.2,11.3-19.9,21c-2.4,8.8-0.9,23.7,6.4,30
			c3.5,3,7.6,3.4,12.1,3.6c9.4,0.5,64.2,1,89.6,0.1c6.8-0.2,13.9-0.5,20.1-3.5C458.2,96,464.3,78.4,460.6,65z"/>
		<g>
			<g>
				<g>
					<path class="st12" d="M392,85.8c0,0.9,0,1.8,0,2.8"/>
					<path class="st13" d="M392,94.1c0.1,10.8,0.4,21.5,0.9,32.3c0.1,2.4,0.3,4.9,1.8,6.8c1.8,2.3,5.1,2.9,8,3.2
						c37.5,4.1,75.6-1.9,113.2,1.2c1.3,0.1,2.7,0.3,3.6,1.2c0.7,0.7,0.9,1.7,1.1,2.7c2.3,10.6,2.1,21.5,1.9,32.4l-1,49.9
						c0,2.4-1.9,4.4-4.3,4.5c-11.4,0.6-27,0.9-37.3,1"/>
					<path class="st12" d="M477.3,229.2c-1,0-1.9,0-2.8,0"/>
				</g>
			</g>
		</g>
		<path class="st14" d="M385.3,76.2c-1.3,3.6-0.1,8.1,4.5,9.4c6.5,1.7,11.9-5.9,8.3-10.8c-1.7-2.2-4.9-3.6-7.6-3.1
			C388,72.2,386.1,73.9,385.3,76.2z"/>
	</g>
	<g>
		<g>
			<g>
				<polygon class="st15" points="464.3,259.1 458.2,258.3 452.4,260.7 450.3,244.5 462.1,242.9 				"/>
			</g>
		</g>
		<g>
			<g>
				<path class="st16" d="M485.7,239.8l-77.5,10.3c-3.6,0.5-6.8-2-7.3-5.6l-1.6-12.2c-0.5-3.6,2-6.8,5.6-7.3l77.5-10.3
					c3.6-0.5,6.8,2,7.3,5.6l1.6,12.2C491.8,236,489.3,239.3,485.7,239.8z"/>
			</g>
		</g>
		<g>
			<g>
				
					<rect x="448.6" y="218.5" transform="matrix(0.9912 -0.1323 0.1323 0.9912 -26.596 62.1707)" class="st17" width="11.9" height="25.4"/>
			</g>
		</g>
		<g>
			<g>
				<path class="st18" d="M492.2,233.8c0.4,2.8-1.6,5.4-4.4,5.8l0,0c-2.8,0.4-5.4-1.6-5.8-4.4l-2-15c-0.4-2.8,1.6-5.4,4.4-5.8l0,0
					c2.8-0.4,5.4,1.6,5.8,4.4L492.2,233.8z"/>
			</g>
		</g>
	</g>
</g>
<g>
	<text transform="matrix(1 0 0 1 154.6021 610.506)" class="st4" style="font-family:'Roboto-Medium'; font-size:38px;">Avisos importantes</text>
</g>
<path class="st19" d="M630.6,412.5H0.6v-61c0-11.9,9.7-21.6,21.6-21.6H609c11.9,0,21.6,9.7,21.6,21.6V412.5z"/>
<g>
	<text transform="matrix(1 0 0 1 220.8267 495.0807)" style="font-family:'Roboto-Medium'; font-size:38px;">¿Cómo certifico el curso?</text>
</g>
<g>
	<g>
		<text transform="matrix(1 0 0 1 -330.9878 537.5223)" style="font-family:'Roboto-Medium'; font-size:38px;">Descargar certificado</text>
	</g>
</g>
<g>
	<g>
		<g class="st20">
			<path d="M135.6,382.7v-27h8c2.4,0,4.5,0.5,6.4,1.6c1.8,1.1,3.3,2.6,4.3,4.5c1,2,1.5,4.2,1.5,6.7v1.4c0,2.6-0.5,4.8-1.5,6.8
				c-1,1.9-2.5,3.4-4.4,4.5c-1.9,1.1-4,1.6-6.5,1.6H135.6z M140.3,359.5V379h3.1c2.5,0,4.4-0.8,5.7-2.3c1.3-1.5,2-3.8,2-6.6v-1.5
				c0-2.9-0.6-5.2-1.9-6.7c-1.3-1.5-3.1-2.3-5.5-2.3H140.3z"/>
			<path d="M168.9,383.1c-2.9,0-5.2-0.9-6.9-2.7c-1.8-1.8-2.7-4.2-2.7-7.2v-0.6c0-2,0.4-3.8,1.2-5.4c0.8-1.6,1.9-2.8,3.3-3.7
				c1.4-0.9,3-1.3,4.7-1.3c2.7,0,4.8,0.9,6.3,2.6c1.5,1.7,2.2,4.2,2.2,7.4v1.8h-13.1c0.1,1.7,0.7,3,1.7,3.9c1,1,2.2,1.4,3.7,1.4
				c2.1,0,3.7-0.8,5-2.5l2.4,2.3c-0.8,1.2-1.9,2.1-3.2,2.8C172,382.8,170.5,383.1,168.9,383.1z M168.3,365.9c-1.2,0-2.2,0.4-3,1.3
				c-0.8,0.9-1.2,2.1-1.5,3.6h8.6v-0.3c-0.1-1.5-0.5-2.7-1.2-3.4C170.6,366.3,169.6,365.9,168.3,365.9z"/>
			<path d="M191.7,377.3c0-0.8-0.3-1.4-1-1.8c-0.7-0.4-1.8-0.8-3.3-1.1c-1.5-0.3-2.8-0.7-3.8-1.2c-2.3-1.1-3.4-2.7-3.4-4.7
				c0-1.7,0.7-3.2,2.2-4.3c1.5-1.2,3.3-1.7,5.6-1.7c2.4,0,4.3,0.6,5.8,1.8c1.5,1.2,2.2,2.7,2.2,4.6h-4.5c0-0.9-0.3-1.6-1-2.2
				c-0.6-0.6-1.5-0.9-2.6-0.9c-1,0-1.8,0.2-2.4,0.7c-0.6,0.5-0.9,1.1-0.9,1.8c0,0.7,0.3,1.2,0.9,1.6c0.6,0.4,1.8,0.8,3.5,1.2
				c1.8,0.4,3.2,0.9,4.2,1.4c1,0.5,1.8,1.2,2.2,1.9c0.5,0.8,0.7,1.7,0.7,2.7c0,1.8-0.7,3.3-2.2,4.4c-1.5,1.1-3.5,1.7-5.9,1.7
				c-1.6,0-3.1-0.3-4.4-0.9c-1.3-0.6-2.3-1.4-3-2.4c-0.7-1-1.1-2.2-1.1-3.4h4.4c0.1,1.1,0.5,1.9,1.2,2.5c0.7,0.6,1.7,0.9,3,0.9
				c1.2,0,2.1-0.2,2.7-0.7C191.4,378.6,191.7,378,191.7,377.3z"/>
			<path d="M208.3,379.5c1.1,0,2.1-0.3,2.8-1c0.7-0.7,1.1-1.5,1.2-2.4h4.2c0,1.3-0.4,2.4-1.2,3.5c-0.7,1.1-1.7,1.9-3,2.6
				c-1.2,0.6-2.6,0.9-4,0.9c-2.8,0-5-0.9-6.7-2.7c-1.6-1.8-2.5-4.3-2.5-7.5v-0.5c0-3.1,0.8-5.5,2.4-7.3c1.6-1.8,3.9-2.8,6.7-2.8
				c2.4,0,4.3,0.7,5.8,2.1c1.5,1.4,2.3,3.2,2.4,5.5h-4.2c0-1.2-0.4-2.1-1.2-2.8c-0.7-0.7-1.7-1.1-2.8-1.1c-1.5,0-2.6,0.5-3.4,1.6
				c-0.8,1.1-1.2,2.7-1.2,4.8v0.7c0,2.2,0.4,3.8,1.2,4.9C205.7,379,206.8,379.5,208.3,379.5z"/>
			<path d="M231.9,382.7c-0.2-0.4-0.4-1-0.5-1.9c-1.4,1.5-3.2,2.2-5.3,2.2c-2,0-3.7-0.6-4.9-1.7c-1.3-1.2-1.9-2.6-1.9-4.3
				c0-2.1,0.8-3.8,2.4-4.9c1.6-1.1,3.9-1.7,6.8-1.7h2.8v-1.3c0-1-0.3-1.9-0.9-2.5c-0.6-0.6-1.5-0.9-2.7-0.9c-1,0-1.9,0.3-2.5,0.8
				c-0.7,0.5-1,1.2-1,2h-4.5c0-1.1,0.4-2.1,1.1-3.1c0.7-1,1.7-1.7,3-2.3c1.3-0.5,2.7-0.8,4.2-0.8c2.4,0,4.2,0.6,5.6,1.8
				c1.4,1.2,2.1,2.8,2.2,5v9.1c0,1.8,0.3,3.2,0.8,4.3v0.3H231.9z M227,379.5c0.9,0,1.7-0.2,2.5-0.6c0.8-0.4,1.4-1,1.8-1.7v-3.8h-2.4
				c-1.7,0-2.9,0.3-3.8,0.9c-0.8,0.6-1.3,1.4-1.3,2.5c0,0.9,0.3,1.6,0.9,2.1C225.2,379.2,226,379.5,227,379.5z"/>
			<path d="M251,366.8c-0.6-0.1-1.2-0.1-1.8-0.1c-2.1,0-3.5,0.8-4.2,2.4v13.7h-4.5v-20.1h4.3l0.1,2.2c1.1-1.7,2.6-2.6,4.5-2.6
				c0.6,0,1.2,0.1,1.6,0.3L251,366.8z"/>
			<path d="M252.7,372.5c0-3.1,0.7-5.6,2.2-7.5c1.5-1.9,3.4-2.8,5.8-2.8c2.3,0,4.1,0.8,5.4,2.4l0.2-2h4.1v19.5
				c0,2.6-0.8,4.7-2.5,6.2c-1.6,1.5-3.9,2.3-6.6,2.3c-1.5,0-2.9-0.3-4.3-0.9c-1.4-0.6-2.5-1.4-3.2-2.4l2.1-2.7
				c1.4,1.6,3.1,2.5,5.1,2.5c1.5,0,2.7-0.4,3.5-1.2c0.9-0.8,1.3-2,1.3-3.6v-1.4c-1.3,1.4-3,2.2-5.2,2.2c-2.4,0-4.3-0.9-5.8-2.8
				C253.4,378.4,252.7,375.9,252.7,372.5z M257.2,372.9c0,2,0.4,3.6,1.2,4.8c0.8,1.2,2,1.7,3.4,1.7c1.8,0,3.2-0.8,4-2.3v-8.8
				c-0.9-1.5-2.2-2.3-4-2.3c-1.5,0-2.6,0.6-3.5,1.8C257.6,368.9,257.2,370.7,257.2,372.9z"/>
			<path d="M287,382.7c-0.2-0.4-0.4-1-0.5-1.9c-1.4,1.5-3.2,2.2-5.3,2.2c-2,0-3.7-0.6-4.9-1.7c-1.3-1.2-1.9-2.6-1.9-4.3
				c0-2.1,0.8-3.8,2.4-4.9c1.6-1.1,3.9-1.7,6.8-1.7h2.8v-1.3c0-1-0.3-1.9-0.9-2.5c-0.6-0.6-1.5-0.9-2.7-0.9c-1,0-1.9,0.3-2.5,0.8
				c-0.7,0.5-1,1.2-1,2h-4.5c0-1.1,0.4-2.1,1.1-3.1c0.7-1,1.7-1.7,3-2.3c1.3-0.5,2.7-0.8,4.2-0.8c2.4,0,4.2,0.6,5.6,1.8
				c1.4,1.2,2.1,2.8,2.2,5v9.1c0,1.8,0.3,3.2,0.8,4.3v0.3H287z M282.1,379.5c0.9,0,1.7-0.2,2.5-0.6c0.8-0.4,1.4-1,1.8-1.7v-3.8h-2.4
				c-1.7,0-2.9,0.3-3.8,0.9c-0.8,0.6-1.3,1.4-1.3,2.5c0,0.9,0.3,1.6,0.9,2.1C280.3,379.2,281.1,379.5,282.1,379.5z"/>
			<path d="M306.1,366.8c-0.6-0.1-1.2-0.1-1.8-0.1c-2.1,0-3.5,0.8-4.2,2.4v13.7h-4.5v-20.1h4.3l0.1,2.2c1.1-1.7,2.6-2.6,4.5-2.6
				c0.6,0,1.2,0.1,1.6,0.3L306.1,366.8z"/>
			<path d="M326.7,379.5c1.1,0,2.1-0.3,2.8-1c0.7-0.7,1.1-1.5,1.2-2.4h4.2c0,1.3-0.4,2.4-1.2,3.5c-0.7,1.1-1.7,1.9-3,2.6
				s-2.6,0.9-4,0.9c-2.8,0-5-0.9-6.7-2.7s-2.5-4.3-2.5-7.5v-0.5c0-3.1,0.8-5.5,2.4-7.3c1.6-1.8,3.9-2.8,6.7-2.8
				c2.4,0,4.3,0.7,5.8,2.1c1.5,1.4,2.3,3.2,2.4,5.5h-4.2c0-1.2-0.4-2.1-1.2-2.8c-0.7-0.7-1.7-1.1-2.8-1.1c-1.5,0-2.6,0.5-3.4,1.6
				c-0.8,1.1-1.2,2.7-1.2,4.8v0.7c0,2.2,0.4,3.8,1.2,4.9C324,379,325.2,379.5,326.7,379.5z"/>
			<path d="M347.1,383.1c-2.9,0-5.2-0.9-6.9-2.7c-1.8-1.8-2.7-4.2-2.7-7.2v-0.6c0-2,0.4-3.8,1.2-5.4c0.8-1.6,1.9-2.8,3.3-3.7
				c1.4-0.9,3-1.3,4.7-1.3c2.7,0,4.8,0.9,6.3,2.6c1.5,1.7,2.2,4.2,2.2,7.4v1.8h-13.1c0.1,1.7,0.7,3,1.7,3.9c1,1,2.2,1.4,3.7,1.4
				c2.1,0,3.7-0.8,5-2.5l2.4,2.3c-0.8,1.2-1.9,2.1-3.2,2.8C350.3,382.8,348.8,383.1,347.1,383.1z M346.6,365.9c-1.2,0-2.2,0.4-3,1.3
				c-0.8,0.9-1.2,2.1-1.5,3.6h8.6v-0.3c-0.1-1.5-0.5-2.7-1.2-3.4C348.8,366.3,347.8,365.9,346.6,365.9z"/>
			<path d="M369.2,366.8c-0.6-0.1-1.2-0.1-1.8-0.1c-2.1,0-3.5,0.8-4.2,2.4v13.7h-4.5v-20.1h4.3l0.1,2.2c1.1-1.7,2.6-2.6,4.5-2.6
				c0.6,0,1.2,0.1,1.6,0.3L369.2,366.8z"/>
			<path d="M378.6,357.8v4.9h3.5v3.3h-3.5v11.2c0,0.8,0.2,1.3,0.5,1.7c0.3,0.3,0.8,0.5,1.6,0.5c0.5,0,1-0.1,1.6-0.2v3.5
				c-1,0.3-2,0.4-3,0.4c-3.5,0-5.2-1.9-5.2-5.7V366h-3.3v-3.3h3.3v-4.9H378.6z"/>
			<path d="M385.6,357.4c0-0.7,0.2-1.3,0.7-1.7c0.4-0.5,1.1-0.7,1.9-0.7s1.4,0.2,1.9,0.7c0.4,0.5,0.7,1,0.7,1.7
				c0,0.7-0.2,1.2-0.7,1.7c-0.4,0.5-1.1,0.7-1.9,0.7s-1.4-0.2-1.9-0.7C385.8,358.7,385.6,358.1,385.6,357.4z M390.4,382.7h-4.5
				v-20.1h4.5V382.7z"/>
			<path d="M396.9,382.7V366h-3.1v-3.3h3.1v-1.8c0-2.2,0.6-3.9,1.9-5.2c1.2-1.2,3-1.8,5.2-1.8c0.8,0,1.6,0.1,2.5,0.3l-0.1,3.5
				c-0.5-0.1-1.1-0.1-1.7-0.1c-2.2,0-3.2,1.1-3.2,3.3v1.8h4.1v3.3h-4.1v16.7H396.9z"/>
			<path d="M408.8,357.4c0-0.7,0.2-1.3,0.7-1.7c0.4-0.5,1.1-0.7,1.9-0.7s1.4,0.2,1.9,0.7c0.4,0.5,0.7,1,0.7,1.7
				c0,0.7-0.2,1.2-0.7,1.7c-0.4,0.5-1.1,0.7-1.9,0.7s-1.4-0.2-1.9-0.7C409,358.7,408.8,358.1,408.8,357.4z M413.6,382.7h-4.5v-20.1
				h4.5V382.7z"/>
			<path d="M426.7,379.5c1.1,0,2.1-0.3,2.8-1c0.7-0.7,1.1-1.5,1.2-2.4h4.2c0,1.3-0.4,2.4-1.2,3.5c-0.7,1.1-1.7,1.9-3,2.6
				s-2.6,0.9-4,0.9c-2.8,0-5-0.9-6.7-2.7s-2.5-4.3-2.5-7.5v-0.5c0-3.1,0.8-5.5,2.4-7.3c1.6-1.8,3.9-2.8,6.7-2.8
				c2.4,0,4.3,0.7,5.8,2.1c1.5,1.4,2.3,3.2,2.4,5.5h-4.2c0-1.2-0.4-2.1-1.2-2.8c-0.7-0.7-1.7-1.1-2.8-1.1c-1.5,0-2.6,0.5-3.4,1.6
				c-0.8,1.1-1.2,2.7-1.2,4.8v0.7c0,2.2,0.4,3.8,1.2,4.9C424.1,379,425.3,379.5,426.7,379.5z"/>
			<path d="M450.4,382.7c-0.2-0.4-0.4-1-0.5-1.9c-1.4,1.5-3.2,2.2-5.3,2.2c-2,0-3.7-0.6-4.9-1.7s-1.9-2.6-1.9-4.3
				c0-2.1,0.8-3.8,2.4-4.9c1.6-1.1,3.9-1.7,6.8-1.7h2.8v-1.3c0-1-0.3-1.9-0.9-2.5c-0.6-0.6-1.5-0.9-2.7-0.9c-1,0-1.9,0.3-2.5,0.8
				c-0.7,0.5-1,1.2-1,2h-4.5c0-1.1,0.4-2.1,1.1-3.1c0.7-1,1.7-1.7,3-2.3c1.3-0.5,2.7-0.8,4.2-0.8c2.4,0,4.2,0.6,5.6,1.8
				c1.4,1.2,2.1,2.8,2.2,5v9.1c0,1.8,0.3,3.2,0.8,4.3v0.3H450.4z M445.4,379.5c0.9,0,1.7-0.2,2.5-0.6c0.8-0.4,1.4-1,1.8-1.7v-3.8
				h-2.4c-1.7,0-2.9,0.3-3.8,0.9c-0.8,0.6-1.3,1.4-1.3,2.5c0,0.9,0.3,1.6,0.9,2.1C443.7,379.2,444.5,379.5,445.4,379.5z"/>
			<path d="M458.1,372.5c0-3.1,0.7-5.6,2.2-7.5c1.4-1.9,3.4-2.8,5.8-2.8c2.1,0,3.8,0.7,5.2,2.2v-10.3h4.5v28.5h-4.1l-0.2-2.1
				c-1.3,1.6-3.1,2.4-5.4,2.4c-2.4,0-4.3-0.9-5.7-2.8C458.8,378.4,458.1,375.8,458.1,372.5z M462.6,372.9c0,2,0.4,3.6,1.2,4.8
				c0.8,1.1,1.9,1.7,3.3,1.7c1.8,0,3.2-0.8,4-2.5v-8.6c-0.8-1.6-2.2-2.4-4-2.4c-1.5,0-2.6,0.6-3.4,1.7
				C463,368.9,462.6,370.6,462.6,372.9z"/>
			<path d="M479.5,372.5c0-2,0.4-3.7,1.2-5.3c0.8-1.6,1.9-2.8,3.3-3.6c1.4-0.8,3-1.3,4.9-1.3c2.7,0,4.9,0.9,6.6,2.6s2.6,4.1,2.7,6.9
				l0,1.1c0,2-0.4,3.7-1.1,5.3s-1.8,2.8-3.3,3.6c-1.4,0.9-3.1,1.3-4.9,1.3c-2.8,0-5.1-0.9-6.8-2.8c-1.7-1.9-2.6-4.4-2.6-7.5V372.5z
				 M484.1,372.9c0,2.1,0.4,3.7,1.3,4.9c0.9,1.2,2,1.8,3.6,1.8s2.7-0.6,3.6-1.8c0.8-1.2,1.3-2.9,1.3-5.2c0-2-0.4-3.6-1.3-4.8
				s-2.1-1.8-3.6-1.8c-1.5,0-2.6,0.6-3.5,1.8C484.5,368.8,484.1,370.6,484.1,372.9z"/>
		</g>
	</g>
</g>
</svg>
