<?xml version="1.0" encoding="utf-8"?>
<!-- Generator: Adobe Illustrator 24.3.0, SVG Export Plug-In . SVG Version: 6.00 Build 0)  -->
<svg version="1.1" id="Capa_1" xmlns="http://www.w3.org/2000/svg" xmlns:xlink="http://www.w3.org/1999/xlink" x="0px" y="0px"
	 viewBox="0 0 632.6 412.9" style="enable-background:new 0 0 632.6 412.9;" xml:space="preserve">
<style type="text/css">
	.st0{fill:#F1F1F2;}
	.st1{fill:#FEC43E;}
	.st2{fill:#2E515A;}
	.st3{fill:#B1B5BA;}
	.st4{fill:#EA45A8;}
	.st5{clip-path:url(#SVGID_2_);}
	.st6{fill:#91452D;}
	.st7{fill:#000100;}
	.st8{fill:#F16E7F;}
	.st9{fill:#FFFFFF;}
	.st10{fill:#1C5191;}
	.st11{fill:none;stroke:#628ECC;stroke-miterlimit:10;}
	.st12{fill:none;stroke:#628ECC;stroke-linejoin:round;stroke-miterlimit:10;}
	.st13{fill:none;stroke:#9ABCEF;stroke-miterlimit:10;}
	.st14{fill:none;stroke:#9ABCEF;stroke-linejoin:round;stroke-miterlimit:10;}
	.st15{fill:#3E3D54;}
	.st16{fill:none;stroke:#000100;stroke-width:0.75;stroke-miterlimit:10;}
	.st17{fill:#B2B2C1;}
	.st18{fill:#4973BB;}
	.st19{clip-path:url(#SVGID_4_);}
	.st20{fill:#3A6AAF;}
	.st21{fill:#4B7DC6;}
	.st22{fill:none;stroke:#FFFFFF;stroke-width:0.5;stroke-miterlimit:10;}
	.st23{fill:none;stroke:#000100;stroke-width:0.75;stroke-linecap:round;stroke-linejoin:round;stroke-miterlimit:10;}
	.st24{fill:none;stroke:#000100;stroke-miterlimit:10;}
	.st25{fill:#1DA8DE;}
</style>
<g>
	<g>
		<path class="st0" d="M36.4,119.2V274c0,9.3,7.6,16.9,16.9,16.9h168.8c9.3,0,16.9-7.6,16.9-16.9V119.2c0-9.3-7.6-16.9-16.9-16.9
			H53.3C43.9,102.4,36.4,109.9,36.4,119.2z"/>
		<path class="st1" d="M36.4,119.2V153H239v-33.8c0-9.3-7.6-16.9-16.9-16.9H53.3C43.9,102.4,36.4,109.9,36.4,119.2z"/>
		<g>
			<path class="st2" d="M75.2,113.6c-4.7,0-8.4,3.8-8.4,8.4c0,4.7,3.8,8.4,8.4,8.4c4.7,0,8.4-3.8,8.4-8.4
				C83.6,117.4,79.9,113.6,75.2,113.6z"/>
			<path class="st3" d="M71,92.5v25.3c0,2.3,1.9,4.2,4.2,4.2h0c2.3,0,4.2-1.9,4.2-4.2V92.5c0-2.3-1.9-4.2-4.2-4.2h0
				C72.9,88.3,71,90.1,71,92.5z"/>
			<circle class="st2" cx="116.8" cy="122" r="8.4"/>
			<path class="st3" d="M112.6,92.5v25.3c0,2.3,1.9,4.2,4.2,4.2l0,0c2.3,0,4.2-1.9,4.2-4.2V92.5c0-2.3-1.9-4.2-4.2-4.2l0,0
				C114.5,88.3,112.6,90.1,112.6,92.5z"/>
			<circle class="st2" cx="158.5" cy="122" r="8.4"/>
			<path class="st3" d="M154.3,92.5v25.3c0,2.3,1.9,4.2,4.2,4.2l0,0c2.3,0,4.2-1.9,4.2-4.2V92.5c0-2.3-1.9-4.2-4.2-4.2l0,0
				C156.2,88.3,154.3,90.1,154.3,92.5z"/>
			<circle class="st2" cx="200.1" cy="122" r="8.4"/>
			<path class="st3" d="M195.9,92.5v25.3c0,2.3,1.9,4.2,4.2,4.2l0,0c2.3,0,4.2-1.9,4.2-4.2V92.5c0-2.3-1.9-4.2-4.2-4.2l0,0
				C197.8,88.3,195.9,90.1,195.9,92.5z"/>
		</g>
		<g>
			<path class="st3" d="M62.3,172.2v15.8c0,2.8,2.3,5.1,5.1,5.1h15.8c2.8,0,5.1-2.3,5.1-5.1v-15.8c0-2.8-2.3-5.1-5.1-5.1H67.3
				C64.5,167.1,62.3,169.4,62.3,172.2z"/>
			<path class="st3" d="M103.9,172.2v15.8c0,2.8,2.3,5.1,5.1,5.1h15.8c2.8,0,5.1-2.3,5.1-5.1v-15.8c0-2.8-2.3-5.1-5.1-5.1H109
				C106.2,167.1,103.9,169.4,103.9,172.2z"/>
			<path class="st3" d="M145.5,172.2v15.8c0,2.8,2.3,5.1,5.1,5.1h15.8c2.8,0,5.1-2.3,5.1-5.1v-15.8c0-2.8-2.3-5.1-5.1-5.1h-15.8
				C147.8,167.1,145.5,169.4,145.5,172.2z"/>
			<path class="st3" d="M187.2,172.2v15.8c0,2.8,2.3,5.1,5.1,5.1H208c2.8,0,5.1-2.3,5.1-5.1v-15.8c0-2.8-2.3-5.1-5.1-5.1h-15.8
				C189.5,167.1,187.2,169.4,187.2,172.2z"/>
		</g>
		<g>
			<path class="st3" d="M62.3,207.1v15.8c0,2.8,2.3,5.1,5.1,5.1h15.8c2.8,0,5.1-2.3,5.1-5.1v-15.8c0-2.8-2.3-5.1-5.1-5.1H67.3
				C64.5,202,62.3,204.3,62.3,207.1z"/>
			<path class="st3" d="M103.9,207.1v15.8c0,2.8,2.3,5.1,5.1,5.1h15.8c2.8,0,5.1-2.3,5.1-5.1v-15.8c0-2.8-2.3-5.1-5.1-5.1H109
				C106.2,202,103.9,204.3,103.9,207.1z"/>
			<path class="st4" d="M145.5,207.1v15.8c0,2.8,2.3,5.1,5.1,5.1h15.8c2.8,0,5.1-2.3,5.1-5.1v-15.8c0-2.8-2.3-5.1-5.1-5.1h-15.8
				C147.8,202,145.5,204.3,145.5,207.1z"/>
			<path class="st3" d="M187.2,207.1v15.8c0,2.8,2.3,5.1,5.1,5.1H208c2.8,0,5.1-2.3,5.1-5.1v-15.8c0-2.8-2.3-5.1-5.1-5.1h-15.8
				C189.5,202,187.2,204.3,187.2,207.1z"/>
		</g>
		<g>
			<path class="st3" d="M62.3,242v15.8c0,2.8,2.3,5.1,5.1,5.1h15.8c2.8,0,5.1-2.3,5.1-5.1V242c0-2.8-2.3-5.1-5.1-5.1H67.3
				C64.5,236.9,62.3,239.2,62.3,242z"/>
			<path class="st3" d="M103.9,242v15.8c0,2.8,2.3,5.1,5.1,5.1h15.8c2.8,0,5.1-2.3,5.1-5.1V242c0-2.8-2.3-5.1-5.1-5.1H109
				C106.2,236.9,103.9,239.2,103.9,242z"/>
			<path class="st3" d="M145.5,242v15.8c0,2.8,2.3,5.1,5.1,5.1h15.8c2.8,0,5.1-2.3,5.1-5.1V242c0-2.8-2.3-5.1-5.1-5.1h-15.8
				C147.8,236.9,145.5,239.2,145.5,242z"/>
			<path class="st3" d="M187.2,242v15.8c0,2.8,2.3,5.1,5.1,5.1H208c2.8,0,5.1-2.3,5.1-5.1V242c0-2.8-2.3-5.1-5.1-5.1h-15.8
				C189.5,236.9,187.2,239.2,187.2,242z"/>
		</g>
		<g>
			<g>
				<path class="st4" d="M94,141L94,141c0,2,1.6,3.7,3.7,3.7h53.7c2,0,3.7-1.6,3.7-3.7l0,0c0-2-1.6-3.7-3.7-3.7H97.6
					C95.6,137.3,94,138.9,94,141z"/>
				<path class="st4" d="M163,141L163,141c0,2,1.6,3.7,3.7,3.7h11c2,0,3.7-1.6,3.7-3.7l0,0c0-2-1.6-3.7-3.7-3.7h-11
					C164.6,137.3,163,138.9,163,141z"/>
			</g>
		</g>
	</g>
</g>
<g>
	<defs>
		<rect id="SVGID_1_" x="-0.4" y="0.4" width="632" height="403"/>
	</defs>
	<clipPath id="SVGID_2_">
		<use xlink:href="#SVGID_1_"  style="overflow:visible;"/>
	</clipPath>
	<g class="st5">
		<g>
			<path class="st6" d="M463.7,105.8c0,0,30.2,26.5,43.7,30.7c13.4,4.2,57.4,13,57.4,13l-7.3,29.1c0,0-48.7-4.1-71.2-10.2
				c-11.4-3.1-38.9-28.7-38.9-28.7"/>
			<g>
				<path class="st6" d="M547.9,146.7c15,3.7,35.2,3.8,36.5,5.7c0.6,0.9,0,1.8-1.3,2.4c-2.8,1.3-8.2,1.6-7.9,3.4
					c0.2,1.1,13.3,2.4,18.9,4.2c2,0.7,1.1,2.7-0.1,2.8c-5,0.5-17.2-0.6-17.2-0.6c0,0.8,14,1.5,19.1,3.9c1.1,0.5,1.1,2.6-0.2,2.7
					c-5.3,0.5-20-0.2-20-0.2s14.3,0.7,18.7,3.2c0.8,0.5,0.6,2.4-0.4,2.5c-4.1,0.5-20.8-0.5-20.8-0.5s12.1,1,15.7,2.4
					c1,0.4,0.3,2.6-0.7,2.7c-7.9,1.5-42.5-3.8-42.5-3.8"/>
			</g>
			<g>
				<g>
					<path class="st7" d="M570.3,174.5c-1.2-2.1-2.8-4.1-4.7-5.6c-1-0.7-2.1-1.3-3.2-1.7c-1.1-0.3-2.4-0.6-3.5-0.3
						c-0.2,0.1-0.1,0.3,0,0.4c0.6,0.1,1.1,0,1.7,0.1c0.6,0.1,1.2,0.2,1.7,0.4c1.1,0.4,2.2,0.9,3.1,1.6c1.9,1.4,3.3,3.3,4.6,5.2
						C570.2,174.9,570.5,174.7,570.3,174.5L570.3,174.5z"/>
				</g>
			</g>
			<g>
				<g>
					<path class="st7" d="M572.2,157.6c-1.8,0.8-3.8,1.3-5.8,1.5c-0.9,0.1-1.9,0.1-2.8,0c-1-0.1-1.9-0.3-2.9-0.3
						c-0.3,0-0.3,0.3-0.1,0.4c0.9,0.4,2,0.5,3,0.5c1,0.1,2,0,3-0.1c2-0.2,3.9-0.8,5.7-1.7C572.7,157.8,572.5,157.5,572.2,157.6
						L572.2,157.6z"/>
				</g>
			</g>
		</g>
		<polyline class="st8" points="351.2,358.9 357.8,497.4 402.4,497.4 399.8,358.9 		"/>
		<g>
			<polygon class="st9" points="356.9,501.8 403,502.3 403,488.7 356.6,490.9 			"/>
			<path class="st10" d="M403.1,495.9l2.1,26.1h-79.4v-5.3c0-2.2,1.2-4.1,3.1-5.1l27.7-14.1L403.1,495.9z"/>
			<line class="st11" x1="404.8" y1="516.6" x2="325.9" y2="516.6"/>
			<path class="st11" d="M403.6,501.2c0,0-14.6,1.1-20.6,15.4"/>
			<path class="st11" d="M338.4,506.7c0,0,5.6,4.5,5.8,9.9"/>
			<polyline class="st12" points="358.7,501.4 353.2,498.3 354,504 348.7,501.1 348.7,506.3 345.5,502.4 			"/>
			<line class="st11" x1="397.5" y1="489" x2="397.7" y2="493.1"/>
			<line class="st11" x1="389.3" y1="489.3" x2="389.5" y2="493.4"/>
			<line class="st11" x1="380.2" y1="489.8" x2="380.4" y2="493.9"/>
			<line class="st11" x1="371.9" y1="490.1" x2="372.1" y2="494.2"/>
			<line class="st11" x1="362.4" y1="490.6" x2="362.6" y2="494.7"/>
		</g>
		<polyline class="st8" points="462.9,358.9 478.5,497.4 433.9,497.4 414.3,358.9 		"/>
		<g>
			<polygon class="st9" points="479.3,501.8 433.2,502.3 432.3,488.7 479.6,490.9 			"/>
			<path class="st10" d="M432.7,495.9l-1.8,26.1h79.4v-5.3c0-2.2-1.2-4.1-3.1-5.1l-27.7-14.1L432.7,495.9z"/>
			<line class="st13" x1="431.4" y1="516.6" x2="510.3" y2="516.6"/>
			<path class="st13" d="M432.4,501.2c0,0,14.9,1.1,20.8,15.4"/>
			<path class="st13" d="M497.8,506.7c0,0-5.6,4.5-5.8,9.9"/>
			<polyline class="st14" points="477.5,501.4 483,498.3 482.3,504 487.6,501.1 487.6,506.3 490.7,502.4 			"/>
			<line class="st13" x1="438.7" y1="489" x2="438.5" y2="493.1"/>
			<line class="st13" x1="446.9" y1="489.3" x2="446.8" y2="493.4"/>
			<line class="st13" x1="456" y1="489.8" x2="455.8" y2="493.9"/>
			<line class="st13" x1="464.3" y1="490.1" x2="464.1" y2="494.2"/>
			<line class="st13" x1="473.8" y1="490.6" x2="473.6" y2="494.7"/>
		</g>
		<path class="st15" d="M342,227.2c-3.8,59.9,4.1,256,4.1,256h60.5V220.4"/>
		<line class="st16" x1="401" y1="483.2" x2="401" y2="220.4"/>
		<path class="st15" d="M394.4,230.2l25.2,253.1h63h0c0,0-17.6-186-19-204.8c-2.1-27.5-13.6-65.2-13.6-65.2"/>
		<path class="st16" d="M475.5,483.2c0,0-17.1-178.9-19-204.8c-2.6-34.3-13.6-65.2-13.6-65.2"/>
		<path class="st16" d="M406.7,357.3c0,0-9.4-92.3-12.3-127.2"/>
		<rect x="345.4" y="474.1" class="st17" width="62.1" height="10.6"/>
		<polygon class="st17" points="482.6,474.1 417.6,474.1 418.6,484.7 483.6,484.7 		"/>
		<path class="st16" d="M432,226.1c0,0,4.8,12.8,8.2,17.8c2.8,4.2,7.4,7.6,13.1,9.9"/>
		<path class="st16" d="M341.1,259c0,0,7.4-5.1,9.5-10.7c2-5.7,3.7-20.7,3.7-20.7"/>
		<path class="st16" d="M384.7,231.6c0,0,4.1,20,5.6,23.3c1,2.2,6.7,4.1,6.7,4.1"/>
		<g>
			<path class="st6" d="M328.6,122.9c0,0-30.2,26.5-43.7,30.7c-13.4,4.2-57.4,13-57.4,13l7.3,29.1c0,0,48.7-4.1,71.2-10.2
				c11.4-3.1,38.9-28.7,38.9-28.7"/>
			<g>
				<path class="st6" d="M244.5,163.9c-15,3.7-35.2,3.8-36.5,5.7c-0.6,0.9,0,1.8,1.3,2.4c2.8,1.3,8.2,1.6,7.9,3.4
					c-0.2,1.1-13.3,2.4-18.9,4.2c-2,0.7-1.1,2.7,0.1,2.8c5,0.5,17.2-0.6,17.2-0.6c0,0.8-14,1.5-19.1,3.9c-1.1,0.5-1.1,2.6,0.2,2.7
					c5.3,0.5,20-0.2,20-0.2s-14.3,0.7-18.7,3.2c-0.8,0.5-0.6,2.4,0.4,2.5c4.1,0.5,20.8-0.5,20.8-0.5s-12.1,1-15.7,2.4
					c-1,0.4-0.3,2.6,0.7,2.7c7.9,1.5,42.5-3.8,42.5-3.8"/>
			</g>
			<g>
				<g>
					<path class="st7" d="M222.3,191.9c1.4-1.9,2.7-3.8,4.6-5.2c0.9-0.7,1.9-1.2,3-1.6c0.5-0.2,1.1-0.3,1.7-0.4
						c0.6-0.1,1.2-0.1,1.8-0.1c0.2,0,0.3-0.3,0-0.4c-1.1-0.3-2.5,0-3.5,0.3c-1.2,0.4-2.2,1-3.2,1.7c-2,1.5-3.5,3.5-4.7,5.6
						C221.9,191.9,222.2,192,222.3,191.9L222.3,191.9z"/>
				</g>
			</g>
			<g>
				<g>
					<path class="st7" d="M219.9,175.1c1.8,0.9,3.7,1.5,5.7,1.7c1,0.1,2,0.2,3,0.1c1-0.1,2.1-0.2,3-0.5c0.2-0.1,0.2-0.4-0.1-0.4
						c-0.9,0.1-1.8,0.3-2.8,0.3c-1,0.1-1.9,0.1-2.9,0c-2-0.2-4-0.7-5.8-1.5C219.9,174.6,219.7,175,219.9,175.1L219.9,175.1z"/>
				</g>
			</g>
		</g>
		<g>
			<path class="st18" d="M456.2,149.6l17.6-38.8c0,0-6.9-14-15.1-16.1c-14.1-3.7-31.3-2.4-44,1.6l-36.9-1.5L360.5,95
				c-9.8-0.7-18.2,3.8-24.5,11.8c-6.3,8-22.2,25-22.2,25l23.7,36.7l5.9-6l-4,71.3l116.2-1.7l-8.2-85.5"/>
		</g>
		<g>
			<defs>
				<path id="SVGID_3_" d="M456.2,149.6l17.6-38.8c0,0-7.2-14.7-15.1-16.1c-14.3-2.7-31.3-2.4-44,1.6l-36.9-1.5L360.5,95
					c-9.8-0.7-18.2,3.8-24.5,11.8c-6.3,8-22.2,25-22.2,25l23.7,36.7l5.9-6l-4,71.3l116.2-1.7l-8.2-85.5"/>
			</defs>
			<clipPath id="SVGID_4_">
				<use xlink:href="#SVGID_3_"  style="overflow:visible;"/>
			</clipPath>
			<g class="st19">
				<g>
					<g>
						<g>
							<g>
								<path class="st20" d="M440.1,173.6c0.4-0.2,0.8-0.5,1.2-0.8c2-1.3,8.8-3.5,6.2-6.8c-4.4-4.6-14.3-3.5-20-3.5
									c-1.5,0-3.2,0.1-4.5,0.8c-1.8,1.1-2.8,3.3-4.5,4.4c-1.5,0.9-3.3,1-4.8,1.8c-1.5,0.8-2.7,2.9-1.5,4.2
									c0.4,0.5,1.1,0.7,1.8,0.9c6.1,1.7,12.5,2.2,18.7,1.4c1.9-0.3,3.9-0.6,5.6-1.5C438.9,174.3,439.5,174,440.1,173.6z"/>
							</g>
							<g>
								<path class="st20" d="M370.4,146.6c-2.4,0.1-4.8,0.4-7.2,0.6c-2.3,0.3-4.8,0.7-6.6,2.3c-1.1,1-1.7,2.3-2.8,3.2
									c-1,0.8-2.3,1.2-3.5,1.7c-2.1,0.9-4.4,2.7-4.1,5c0.3,2.1,2.6,3.4,4.7,3.8c2.1,0.4,4.4,0.5,6.2,1.7c1,0.7,1.7,1.7,2.5,2.5
									c2.9,2.7,7.2,2.8,11.1,2.8c2.3,0,4.6,0,6.7-0.7c1.7-0.6,3.2-1.6,4.9-2.2c2.2-0.8,4.6-1,6.8-1.5c2.3-0.5,4.6-1.6,5.7-3.7
									c0.2-0.4,0.4-0.9,0.2-1.4c-0.2-0.3-0.5-0.5-0.8-0.7c-3-1.6-6.3-2.8-9.6-3.5c-0.5-0.1-0.9-0.2-1.3-0.5
									c-0.6-0.5-0.4-1.5-0.1-2.2c0.3-0.7,0.8-1.4,0.8-2.2c0.1-3.1-6.5-4.7-8.7-5C373.7,146.6,372.1,146.5,370.4,146.6z"/>
							</g>
							<g>
								<path class="st20" d="M368.6,197.2c2-1.3,3.4-3.4,5.6-4.4c1.2-0.5,2.4-0.7,3.5-1.3c3.4-1.9,0.6-6.9-2.6-7.2
									c-9.1-0.7-18-0.7-27,1.4c-1,0.2-2.3,0.8-2.4,1.8c-0.1,1.3,1.6,1.8,2.7,2.5c1.8,1.2,2.3,3.5,3.6,5.2c2.2,2.8,6.2,3.4,9.7,3.4
									c2.1,0,4.3-0.1,6.2-1.1C368.3,197.4,368.5,197.3,368.6,197.2z"/>
							</g>
							<g>
								<path class="st20" d="M415.5,137.1c-1.9,0.2-3.8,0.4-5.8,0.5c-3,0.1-6.3,0-9.1,1.1c-1.5,0.6-3.6,2.5-2.4,4.2
									c0.6,0.9,1.7,1.3,2.7,1.9c1,0.5,2,1.3,2.1,2.4c0.1,0.7-0.2,1.5,0.1,2.1c0.2,0.3,0.5,0.5,0.8,0.7c1.9,1,4.1,1,6.3,1.1
									c5.4,0.1,10.9,0.1,15.9-1.8c1.3-0.5,2.7-1.1,3.5-2.3c0.8-1.1,0.9-2.9-0.1-3.9c-0.7-0.7-1.9-0.9-2.5-1.7
									c-0.4-0.5-0.5-1.1-0.7-1.7c-0.8-1.6-2.7-2.2-4.4-2.5C419.6,136.9,417.5,136.9,415.5,137.1z"/>
							</g>
							<g>
								<path class="st20" d="M411.8,179.9c-0.8-5.6-7.8-3.1-11.6-3.8c-2.2-0.4-4.2-1.7-6.4-1.6c-2.1,0.1-4.1,1.8-4.2,3.9
									c0,1.8,1.3,3.3,2.7,4.4c4.4,3.3,10.8,3.7,16,2.6C410.7,184.9,412.2,182.2,411.8,179.9z"/>
							</g>
							<g>
								<path class="st20" d="M434.7,208.6c1.2-0.7,2.5-1.1,3.5-1.9c3.1-2.3,1.9-6.1-1.7-6.8c-3.2-0.6-7.3-0.2-10.5-0.1
									c-4.3,0.1-8.7,0.3-13,0.7c-2.2,0.2-4.4,0.4-6.4,1.3c-0.6,0.3-1.3,0.7-1.3,1.4c0,0.5,0.4,1,0.8,1.3c1.7,1.6,3.4,3.2,5.1,4.8
									c1.1,1,2.2,2,3.5,2.7c1.8,0.9,3.8,1.2,5.8,1.5c3.2,0.4,6.6,0.7,9.4-1c1.5-0.9,2.6-2.4,4-3.4
									C434.1,208.9,434.4,208.7,434.7,208.6z"/>
							</g>
							<g>
								<path class="st20" d="M414.9,185.1c-1.9-0.2-3.7,1.7-3.9,3.5c-0.2,1.9,0.9,4,2.9,4.4c2.5,0.5,5,0.8,7.5,1
									c2.4,0.2,4.6-2.2,4.5-4.5c-0.1-2.5-2-4.4-4.5-4.5C419.1,184.9,417.1,184.9,414.9,185.1z"/>
							</g>
							<g>
								<path class="st20" d="M456.4,178.7c-3.7-2-7.2-2-10.5,0.8c-1.9,1.6-3.4,3.6-5.5,5c-1.4,0.9-3,1.6-4.3,2.7
									c-1.3,1.1-2.2,2.9-1.6,4.5c0.3,0.7,0.8,1.2,1.3,1.7c2.3,2,5.3,3,8.4,3.2c3,0.2,5.9-0.5,8.8-0.4c2.7,0,4.8-1.4,5.6-4.2
									c0.4-1.4,0.2-2.8-0.3-4c0.1-0.5,0-1,0-1.5C459.7,183.9,459.2,180.3,456.4,178.7z"/>
							</g>
							<g>
								<path class="st20" d="M387.1,222.1c0.1-0.1,0.3-0.2,0.4-0.3c0.5-0.5,0.8-1.2,1.1-1.9c0.7-1.3,1.9-2.1,3.1-3
									c1.2-0.9,2.3-1.8,3-3c0.7-1.3,0.6-3-0.5-4c-0.6-0.5-1.3-0.7-2-0.8c-3.3-0.5-6.6,0.3-9.8,0.7c-3.6,0.5-7.3,0.5-11,0.1
									c-3.1-0.3-7-1.4-10-0.3c-2.5,0.9-3.2,3.7-0.9,5.4c3,2.3,6,4.1,9.6,5.4c3.7,1.3,7.5,2.6,11.4,2.6c1.4,0,2.8-0.2,4.2-0.5
									C386.3,222.5,386.7,222.4,387.1,222.1z"/>
							</g>
							<g>
								<path class="st20" d="M349.1,218.2c-0.9-1.1-2.7-1.4-4-1.1c-2.4,0.6-4.8,0.8-7.3,0.9c-3,0.1-3.9,4.7-0.7,5.5
									c2.6,0.6,5.3,1.1,8,1.6c2,0.4,3.5-0.3,4.7-1.9c0.1-0.1,0.1-0.2,0.2-0.3c1-1.4,0.4-3.2-0.6-4.3
									C349.3,218.5,349.2,218.3,349.1,218.2z"/>
							</g>
							<g>
								<path class="st20" d="M395.7,225.5c-2.7-1-4.8,0.3-7.4,0.8c-2,0.4-4,0.7-6,1c-4,0.6-3.8,7.2,0,7.9c2.2,0.4,4.4,0.8,6.7,1.1
									c1,0.1,1.7,0.4,2.6,0.6c2,0.6,3.7-0.1,5.4-1C401.7,233.6,400,227.1,395.7,225.5z"/>
							</g>
							<g>
								<path class="st20" d="M449.9,218.2c-3-0.8-6.9,0.4-9.9,0.5c-3.2,0-5.9,0.6-9,1.4c-0.5,0.1-1,0.2-1.4,0.6
									c-0.3,0.2-0.5,0.6-0.7,0.9c-1.1,1.3-3.1,1.6-4.7,2.2c-1.6,0.6-3.2,2.5-2.3,4c0.5,0.8,1.5,1.2,2.5,1.4c4,0.8,8.1,0.4,12.1,0
									c3.9-0.4,7.9-0.7,11.8-1.1c1.7-0.2,3.5-0.4,4.7-1.6c1.1-1.1,1.4-2.9,0.9-4.4C453,219.7,451.6,218.6,449.9,218.2z"/>
							</g>
							<g>
								<path class="st20" d="M372.5,124.8c-3.4,0-7.3,1.2-9.5,1.9c-1.1,0.3-2.3,0.9-2.7,2c-0.4,1.3,0.7,2.6,1.8,3.4
									c2,1.4,4.5,2.1,7,2.3c3.9,0.3,10.2,0.3,9.5-5.4C378.1,125.7,375.5,124.7,372.5,124.8z"/>
							</g>
							<g>
								<path class="st20" d="M385.2,126.9c1.6,1.1,3.6,1.5,5.5,1.8c5.7,0.9,11.6,0.9,17.3,0c1.4-0.2,2.8-0.5,3.9-1.3
									c1.5-1.2,2.1-3.2,3.7-4.1c1.6-0.9,3.8-0.6,5.2-2c2.8-2.8-1.1-7.1-4.1-7.4c-2.4-0.2-5.1,0.7-7.5,0.9
									c-2.7,0.2-5.5,0.3-8.2,0.1c-2.4-0.1-5.2-0.2-6.6,1.7c-0.5,0.7-0.8,1.5-1.2,2.3c-1.7,2.6-5.5,2.5-8.3,4
									c-0.7,0.4-1.3,0.9-1.4,1.7c0,0.7,0.4,1.3,0.9,1.7C384.7,126.5,384.9,126.7,385.2,126.9z"/>
							</g>
							<g>
								<path class="st20" d="M433.9,130c0.8,0.4,1.8,0.6,2.5,1.1c0.7,0.5,1.2,1.3,1.8,1.9c1.3,1.3,3.3,1.7,5.2,1.5
									c1.9-0.2,3.6-1,5.2-1.9c2.3-1.2,4.6-2.7,6.4-4.6c1.8-1.9,3-4.5,3.1-7.1c0-1.2-0.3-2.7-1.4-3.3c-0.5-0.3-1-0.3-1.6-0.4
									c-2.1,0-4.2,1-6.3,0.8c-0.9-0.1-1.8-0.4-2.6-0.1c-0.6,0.2-1.1,0.6-1.5,1c-3.6,3-7.2,5.3-11.1,7.9c-0.4,0.3-0.8,0.5-1,1
									C432.4,128.7,433.1,129.6,433.9,130z"/>
							</g>
							<g>
								<path class="st20" d="M454.4,103.5c2.2,0,4.6-2,4.4-4.4c-0.3-2.8-0.6-7.6-3.5-9.1c-1.1-0.5-2.5-0.5-3.3,0.4
									c-2,2.1-1.6,5.9-1.8,8.6C449.8,101.5,452.2,103.5,454.4,103.5z"/>
							</g>
							<g>
								<path class="st20" d="M480.5,119.9c-0.6-1.6-2.1-2.5-3.6-2.5c0-0.2,0-0.3,0.1-0.5c0.3-3.4,0.6-7.5-1.1-10.5
									c-1.5-2.6-6-3-7.3,0c-1.3,2.8-0.9,5.4-1,8.4c-0.2,2.6-0.8,5-2,7.3c-2,3.6,1.5,7.8,4.9,7.5c0,0.6,0,1.2,0.1,1.9
									c0.4,2.7,4.2,3.9,6.3,2.6c2.5-1.6,3.1-4.1,3.7-6.9C480.9,124.9,481.2,122.1,480.5,119.9z"/>
							</g>
							<g>
								<path class="st20" d="M372.8,115.9c1.7-0.6,2.9-1.8,3.1-3.6c0.2-1.7-0.5-3.5-2.1-4.4c-0.8-0.5-1.5-0.6-2.5-0.8
									c0,0-0.1,0-0.1,0c-0.1,0-0.8-0.2-0.8-0.2c-0.4-0.2-0.9-0.4-1.3-0.5c-0.1,0-0.5-0.2-0.5-0.2c-0.3-0.1-0.7-0.3-0.9-0.4
									c-0.2-0.1-0.5-0.3-0.5-0.3c-0.2-0.1-0.4-0.3-0.6-0.4c-1.6-1.5-4-0.4-4.2,1.7c-0.2,2.5,0.7,4.6,2.3,6.5
									C366.5,115.3,370.3,116.9,372.8,115.9z M371.4,107.1C371.7,107.2,371.7,107.2,371.4,107.1L371.4,107.1z"/>
							</g>
							<g>
								<path class="st20" d="M350.5,126.8c1.4,0.2,2.9,0.3,4.3,0.3c1.2,0,2.5,0.1,3.7-0.4c2.7-1.1,3.1-5,1.7-7.3
									c-1.4-2.3-3.9-3.6-5.5-5.7c-2.8-3.7-4.8-8-7.7-11.6c-0.6-0.7-1.2-1.5-2.1-1.9c-0.9-0.4-2-0.4-2.7,0.2
									c-0.5,0.4-0.7,1.1-0.8,1.7c-0.4,2.6,0.8,5.5-0.7,7.6c-0.3,0.5-0.8,0.8-1,1.3c-0.3,0.5-0.3,1.2-0.3,1.8
									c0.1,3.9,2,7.7,4.8,10.5c1.3,1.2,2.7,2.3,4.4,2.9C349.2,126.5,349.8,126.7,350.5,126.8z"/>
							</g>
							<g>
								<path class="st20" d="M340.1,140.1c1.9-1.9,1.8-4.9,0-6.9c-1.3-1.4-2.7-2.2-4.1-3.7c-1.3-1.3-2.2-3.1-3.9-4
									c-1.7-0.9-4.1-0.2-4.6,1.9c-0.5,2.5,0.6,4.7,1.7,6.9c1,1.9,2.3,4.3,4,5.7C335.3,141.7,338.1,142,340.1,140.1z"/>
							</g>
						</g>
						<g>
							<g>
								<path class="st21" d="M393.1,168.6c0.4-0.5,0.8-1,1.1-1.5c0.3-0.5,0.5-1.1,0.9-1.6c0.3-0.3,0.6-0.7,0.8-1.1
									c0.3-0.7,0.1-1.6-0.4-2.2s-1.3-0.9-2.1-1c-1.8-0.3-3.7,0.2-5.5,0.6c-3,0.7-6.2,1-9.3,1.1c-2.4,0.1-5.7-0.6-7.9,0.2
									c-1.7,0.6-2.6,2.9-1.9,4.6c0.8,1.8,3.1,2.4,4.9,2.8C379.4,171.8,388.6,173.8,393.1,168.6z"/>
							</g>
							<g>
								<path class="st21" d="M410.1,149.5c1.9-0.3,3.1-2.6,2.8-4.4c-0.3-2-1.9-3.3-3.9-3.4c-1.8-0.1-3.7,0.2-5.5,0.4
									c-1.9,0.2-3.5,0.2-5.2,1.1c-1.4,0.7-1.6,2.7-0.5,3.7C400.7,149.6,406.3,150.1,410.1,149.5z"/>
							</g>
							<g>
								<path class="st21" d="M386.3,141.5c0.8,0.1,1.7,0.3,2.5,0.1c0.6-0.2,1.1-0.4,1.6-0.8c0.9-0.7,1.5-1.4,1.5-2.6
									c0-1-0.5-2.2-1.5-2.6c-0.7-0.3-1.4-0.7-2.3-0.7c-0.7,0-1.3,0.2-1.9,0.4c-1.3,0.5-2.4,1.6-2.3,3.1
									C384,139.7,384.9,141.2,386.3,141.5z"/>
							</g>
							<g>
								<path class="st21" d="M409.9,130.8c1.6,0,3.2-0.1,4.7-0.2c1.4-0.1,2.9-0.2,4.1-0.9c1.9-1.1,2.8-3.6,4.8-4.6
									c0.9-0.5,1.9-0.6,2.7-1.4c2.5-2.5-3.7-4.7-5.5-4.2c-2.5,0.6-5.1,1.3-7.7,1.3c-2.4,0-4.7,0.8-5.8,3.1
									c-0.2,0.4-0.3,0.8-0.6,1.1c-0.4,0.3-0.9,0.4-1.3,0.6c-1.5,0.4-2.9,0.9-4.2,1.7c-0.6,0.4-1.3,1.1-0.9,1.7
									c0.1,0.2,0.4,0.4,0.7,0.5C403.7,130.5,406.8,130.8,409.9,130.8z"/>
							</g>
							<g>
								<path class="st21" d="M364.6,128.9c-0.7,0-1.4,0-2.2,0c-1.4-0.1-3,0-3.8,1c-0.8,0.9-0.6,2.4,0.1,3.4c0.7,1,1.8,1.6,2.9,2.1
									c1.9,0.8,3.9,1.4,5.9,1.8c3.6,0.7,7.7,0.8,10.4-1.5c0.6-0.6,1.2-1.3,1.4-2.1c0.1-0.8-0.2-1.8-1-2.2
									c-0.7-0.3-1.4-0.1-2.1-0.3c-0.7-0.2-1.3-0.8-2.1-1.1C371,128.7,367.8,128.9,364.6,128.9z"/>
							</g>
							<g>
								<path class="st21" d="M436.7,175.4c0.9-0.3,1.9-0.7,2.8-1.2c0.5-0.2,1-0.5,1.3-0.9c0.3-0.4,0.5-1.1,0.1-1.5
									c-0.2-0.3-0.6-0.4-0.9-0.5c-5-1.7-10.6-0.9-15.7-1c-3.4-0.1-6.6-0.1-10,0.4c-1.2,0.2-2.7,0.9-2.5,2.1
									c0.1,0.8,1.1,1.2,1.8,1.6c2.2,1.1,3.8,3.2,5.9,4.6c3.4,2.2,8.4,2.2,11.5-0.6c0.5-0.5,0.9-1,1.5-1.4c0.7-0.5,1.5-0.7,2.3-1
									C435.5,175.8,436.1,175.6,436.7,175.4z"/>
							</g>
							<g>
								<path class="st21" d="M405.4,185.9c0.8-0.9,1-2.4,0-3.4c-2.2-2.1-5-1.6-7.8-1.4c-3.3,0.2-6.5,0.5-9.8,0.5
									c-2.2,0-2.7,3.3-0.5,3.9c3.2,0.8,6.6,1.6,9.9,2C400,187.8,403.3,188.2,405.4,185.9z"/>
							</g>
							<g>
								<path class="st21" d="M377.1,182.3c-0.8-0.2-1.7-0.3-2.5-0.3c-3.6-0.3-7.5-1.2-11-0.8c-3.6,0.4-7.5,1.2-11.2,1.2
									c-4.6,0.6-4.7,5.5-0.8,7.3c2.1,1,4.5,0.9,6.7,1.5c2.7,0.6,5.2,2.1,8,2.1c2,0,3.9-0.8,5.7-1.6c1.8-0.8,3.6-1.5,5.4-2.3
									c1.3-0.5,2.7-1.2,3.2-2.6c0.5-1.4-0.4-3-1.7-3.8C378.4,182.6,377.8,182.4,377.1,182.3z"/>
							</g>
							<g>
								<path class="st21" d="M359.6,202.4c0.1-0.1,0.2-0.2,0.3-0.3c0.9-1.1,1.3-2.6,0.5-3.9c-0.1-0.1-0.1-0.2-0.2-0.3
									c-1-1.6-2.5-2-4.3-1.7c-2.2,0.3-4.5,0.5-6.8,0.7c-2.6,0.2-3,3.6-0.6,4.4c2.4,0.8,4.9,1.6,7.4,2.2
									C357.1,203.6,358.8,203.4,359.6,202.4z"/>
							</g>
							<g>
								<path class="st21" d="M368.3,213.7c-1.3-0.8-2.4-1.1-3.9-1.1c-0.4,0-0.8,0-1.3-0.1c-0.1,0-0.1,0-0.2,0
									c-0.3,0-0.5-0.1-0.8-0.1c-2.1-0.4-4.5,0.6-5,2.9c-0.5,2.1,0.6,4.5,2.9,5c1.4,0.4,2.8,0.6,4.2,0.7c2,0.2,3.3-0.5,4.8-1.7
									C371,217.8,370.1,214.8,368.3,213.7z"/>
							</g>
							<g>
								<path class="st21" d="M399.8,213.5c-0.8,0.2-1.6,0.3-2.4,0.5c-1.6,0.3-2.6,2.1-2.4,3.6c0.2,1.6,1.6,2.8,3.3,2.9
									c2.1,0,4.4,0.3,5.9-1.5c1-1.2,1.4-3.2,0-4.4C402.8,213.5,401.6,213.2,399.8,213.5z"/>
							</g>
							<g>
								<path class="st21" d="M419.7,199.2c-1.5,0-3,0-4.4,0c-3.7,0-7.3-0.1-11,0.8c-2.7,0.7-3.6,5-0.8,6.3c1.8,0.9,3.9,1.4,6,1.7
									c0.7,0.6,1.6,0.9,2.7,1.1c6.1,0.8,12.7-1.6,17-6c0.9-0.9,1.7-2.4,0.9-3.4c-0.5-0.6-1.4-0.7-2.2-0.6
									C425.1,199.1,422.4,199.2,419.7,199.2z"/>
							</g>
							<g>
								<path class="st21" d="M441.5,195.8c0.8,0.8,1.7,0.9,2.8,1.1c0.3,0,0.7,0.1,1,0.1c0.9,0,1.6-0.3,2.4-0.7
									c1.3-0.6,2.1-2.6,1.6-4c-0.5-1.5-1.8-2.6-3.4-2.6c-0.6,0-1.1,0.1-1.7,0.2c-0.1,0-0.3,0.1-0.5,0.1c-0.6,0.1-1,0.1-1.6,0.4
									c-0.4,0.2-0.7,0.5-1,0.9c-1,1-1,2.3-0.4,3.5C440.9,195.1,441.2,195.5,441.5,195.8z"/>
							</g>
							<g>
								<path class="st21" d="M444.8,215c-4.1,1-8.2,1.8-12.3,2.8c-3.1,0.8-3.3,5.9,0,6.5c5.1,1,9.8,0.7,14.8-0.4
									c1.5-0.3,2.8-1.7,3.2-3.2c0.5-1.8,0.1-3.2-1.2-4.5C448.1,215,446.3,214.6,444.8,215z"/>
							</g>
							<g>
								<path class="st21" d="M460.6,122.2c0-0.3-0.1-0.6-0.2-0.9c-0.3-1-1.1-2.3-2.1-1.9c-0.3,0.1-0.5,0.4-0.7,0.6
									c-1.1,1.3-1.9,2.9-3,4.2c-3,3.6-8.1,4.5-12.2,7c-0.3,0.2-0.5,0.4-0.6,0.7c-0.1,0.2,0,0.4,0.1,0.6c0.8,1.7,3,1.8,4.9,1.7
									C453.5,133.9,461.9,130.1,460.6,122.2z"/>
							</g>
							<g>
								<path class="st21" d="M446.7,108c2.5-0.1,4-1.9,4.2-4.2c0.1-1.2-0.4-2.5-0.6-3.6c-0.3-1.3-1.6-2.3-2.9-2.5
									c-1.2-0.2-2.9,0.4-3.5,1.7c-0.2,0.5-0.4,0.9-0.6,1.4c-0.2,0.5-0.5,1-0.6,1.5c-0.2,0.5-0.2,1.1-0.3,1.7c-0.1,1,0.5,2.3,1.2,3
									C444.4,107.5,445.6,108.1,446.7,108z"/>
							</g>
							<g>
								<path class="st21" d="M471.5,102.5c-1.5-1.4-3.4-2.2-5-0.7c-0.7,0.7-1.1,1.6-1.2,2.5c-0.5,3.2,1.1,6.3,1.4,9.6
									c0.2,2.2-0.2,4.5-0.6,6.6c0,0.2-0.1,0.4,0,0.6c0.2,0.2,0.5,0.3,0.8,0.2c1.3-0.2,2.5-1,3.1-2.1c0.2-0.4,0.3-0.8,0.7-1
									c0.3-0.2,0.6-0.3,0.9-0.4c0.9-0.4,1.6-1.2,2.1-2.1c1.8-3.2,1.8-7.4,0-10.5C473.2,104.4,472.5,103.3,471.5,102.5z"/>
							</g>
							<g>
								<path class="st21" d="M358.6,123.5c5.1,2,8.5-6.3,3.7-8.8c-4.8-2.6-9.5-5.2-14.2-7.8c-1.9-1.1-4.5,1.1-3.2,3.2
									C348.4,115.4,352.5,121.1,358.6,123.5z"/>
							</g>
							<g>
								<path class="st21" d="M367.1,109.5c1,0.2,2,0.2,2.9-0.4c0.8-0.5,1.4-1.3,1.7-2.2c0.6-1.8,0-3.5-1.3-4.9
									c-0.1-0.2-0.1-0.1,0.1,0.1c0.3,0.3,0.2,0.3-0.1-0.2c-0.2-0.2-0.3-0.4-0.6-0.7c-0.3-0.2-0.5-0.5-0.8-0.7
									c-1-0.9-2.4-1.2-3.6-0.7c-1.3,0.5-1.9,1.7-2,3C363.1,105.6,364,109,367.1,109.5z"/>
							</g>
							<g>
								<path class="st21" d="M338.3,126.3c0.7,0.5-0.5-0.4-0.4-0.3c-0.3-0.2-0.5-0.4-0.8-0.6c0,0,0,0-0.1,0
									c-0.1-0.1-0.3-0.2-0.4-0.3c0,0,0-0.1-0.1-0.2c-0.1-0.2-0.2-0.4-0.3-0.6c-0.6-1.2-2.3-1.8-3.5-1.4c-1.4,0.5-2.2,1.6-2.3,3
									c-0.3,2.9,1,6.3,3.7,7.6c1.9,0.9,4,0.6,5.3-1.1c1.2-1.5,1.2-4.1-0.3-5.4C338.8,126.7,337.5,125.8,338.3,126.3z"/>
							</g>
						</g>
					</g>
					<polygon class="st21" points="427.3,155.2 426,159.8 421.4,158.5 					"/>
					<polygon class="st21" points="447.4,208.5 446.1,213.2 441.5,211.9 					"/>
					<polygon class="st21" points="464.4,136.9 460.6,139.8 457.7,136 					"/>
					<polygon class="st21" points="360.2,172.5 358.9,177.1 354.2,175.8 					"/>
					<polygon class="st21" points="363.5,229 358.9,230.6 357.3,226.1 					"/>
					<polygon class="st21" points="353.2,143.7 355.2,139.3 359.6,141.4 					"/>
					<polygon class="st21" points="420.5,109 422.6,104.7 426.9,106.7 					"/>
					<polygon class="st20" points="409,164.7 404.2,165.2 403.7,160.5 					"/>
					<polygon class="st20" points="460.2,106.9 460,111.7 455.2,111.5 					"/>
					<polygon class="st20" points="395,128.8 399.4,130.6 397.6,135 					"/>
					<polygon class="st20" points="335.5,150.4 339,153.7 335.7,157.2 					"/>
					<polygon class="st20" points="385.8,197.9 389.7,195.1 392.5,199.1 					"/>
					<polygon class="st20" points="344.9,214.5 345.7,209.8 350.4,210.6 					"/>
					<polygon class="st20" points="412.3,222.3 417.1,222.3 417.2,227.1 					"/>
				</g>
			</g>
		</g>
		<path class="st16" d="M432.8,97.1c-1.8,21,3.6,39,10,46.6"/>
		<path class="st16" d="M347.6,124.3c-2.7,12.8-3.2,23.8-4.2,38.3"/>
		<path class="st16" d="M414.1,104.1c2.6-1.9,4.7-4.7,5.6-8"/>
		<path class="st16" d="M372.2,96.8c1.8,5.6,6.6,9.5,11.7,11.1c7.9,2.5,17.2,2.1,25-1.1"/>
		<path class="st16" d="M447.4,146.5c0,0-7.9,0-9.8,3.1"/>
		<g>
			<path class="st6" d="M377.6,61c-0.4-0.8-1.5-1.2-2.4-1c-0.9,0.2-1.6,0.9-2.1,1.7c-0.4,0.8-0.6,1.7-0.7,2.7
				c-0.2,1.7-0.1,3.7,1.1,5c0.8,0.9,2.1,1.4,3.4,1.2c1.2-0.2,2.4-1,2.9-2.2"/>
		</g>
		<path class="st22" d="M373.9,61.3h5.8c0.9,0,1.8,0.3,2.5,0.8l1.2,0.8"/>
		<g>
			<path class="st6" d="M413.5,53.8c-0.5-1.4-1.5-2.5-2.6-3.5c-8.1-7.4-20-7.1-29.7-3.5c-0.6,0.2-1.2,0.5-1.6,1
				c-0.4,0.5-1.2,3.6-1.9,7.5c0,0-1.8,6.6-2.4,11.9c-0.6,5.3,0.3,9.6,3.4,14c4.2,6.2,17.9,7.2,24.1,2.8c3.3-2.3,5.3-6.1,6.7-9.7
				c1.6-3.9,3.5-8.2,4.2-12.4C414.2,59.5,414.4,56.2,413.5,53.8z"/>
		</g>
		<path class="st6" d="M412.6,73.9l2.2,22.5c0,0-5.6,7-21,7c-15.1,0-15.9-8.5-15.9-8.5l3.3-18.4"/>
		<path class="st7" d="M395,64.7c0,0.9,0.7,1.6,1.6,1.6c0.9,0,1.6-0.7,1.6-1.6c0-0.9-0.7-1.6-1.6-1.6C395.7,63.1,395,63.8,395,64.7z
			"/>
		<circle class="st7" cx="380.2" cy="62.6" r="1.6"/>
		<g>
			<g>
				<path class="st7" d="M385.1,67.1c-0.5,0.8-0.9,1.6-1.3,2.5c-0.3,0.6-0.5,1.2-0.6,1.9c-0.1,0.5-0.2,1.1,0.1,1.4
					c0.3,0.3,0.8,0.4,1.2,0.4c0.6,0,1.1,0,1.7-0.1c0.3,0,0.2-0.5-0.1-0.5c-0.5,0-0.9,0-1.4,0c-0.3,0-0.8,0-1-0.2
					c-0.3-0.2-0.1-0.8,0-1.2c0.3-1.2,0.7-2.3,1.2-3.4c0.1-0.3,0.2-0.6,0.4-0.8C385.3,67.1,385.1,67,385.1,67.1L385.1,67.1z"/>
			</g>
		</g>
		<g>
			<path class="st9" d="M389.3,75.7c0,0.9-0.1,1.9-0.3,2.8c-0.7,2.5-3.5,3.2-5,1.1c-0.7-1-0.8-2.3-0.9-3.6L389.3,75.7z"/>
		</g>
		<path class="st23" d="M400.5,62.1c-1.4-2.2-4.6-2.7-6.3-1.2"/>
		<path class="st23" d="M382.5,59.7c-1.3-1.5-3.6-1.5-4.7-0.2"/>
		<path class="st24" d="M399.9,83.5c-6.1,3.9-13.7,3.9-19.6,0"/>
		<g>
			<path class="st7" d="M413.1,45.2c0.1-4.9-2.8-9.8-7.1-12.1c-4.4-2.3-10-1.9-14.1,0.9c-4-2.8-9.1-4.6-13.8-3.1
				c-3.8,1.2-6.8,4.5-7.6,8.3c-1.2,5.8,2.5,11.5,8,13.2c4.6,1.4,9.7,0.9,14-1.2c0.2,1.8,2.1,2.9,3.9,2.9c1.8,0,3.3-0.3,5-1.6
				c-0.3,0.1-0.1,2.3,0,2.7c0.6,4.6,4.6,6.5,8.8,6.3c-2,3.4-1.2,8.3,1.8,10.8c3.3-1.2,4.7-3.2,6.9-6.9c1.8-3,1.6-8.2,1-11.5
				C419.4,50.6,416.8,46.3,413.1,45.2z"/>
		</g>
		<path class="st22" d="M385.2,61.7c0,3.6-2.5,6.5-5.7,6.5c-3.1,0-5.7-2.9-5.7-6.5c0-3.6,2.5-6.5,5.7-6.5
			C382.7,55.2,385.2,58.1,385.2,61.7z"/>
		<path class="st22" d="M404,64.9c0,3.6-2.9,6.5-6.5,6.5c-3.6,0-6.5-2.9-6.5-6.5c0-3.6,2.9-6.5,6.5-6.5
			C401.1,58.4,404,61.3,404,64.9z"/>
		<path class="st22" d="M403.9,65.5h5.8c0.9,0,1.8,0.3,2.5,0.8l1.2,0.8"/>
		<g>
			<g>
				<path class="st6" d="M408.3,66.2c3.1-1.6,6.2-0.8,6.8,3c0.2,1.6,0,3.3-0.8,4.7c-0.8,1.4-2.2,2.5-3.8,2.7
					c-1.6,0.2-3.3-0.5-4.2-1.9"/>
			</g>
			<g>
				<g>
					<path class="st7" d="M413.2,68.5c0-0.1,0-0.2-0.1-0.2c0-0.1-0.1-0.1-0.1-0.2c-0.1-0.1-0.2-0.2-0.3-0.3
						c-0.2-0.2-0.5-0.3-0.7-0.3c-0.5-0.1-1.1,0.1-1.5,0.4c-0.5,0.3-0.9,0.7-1.2,1.1c-0.3,0.5-0.4,1.2-0.5,1.8
						c-0.1,1,0.1,1.9,0.6,2.8c0.1,0.2,0.5,0.1,0.4-0.2c-0.3-0.7-0.5-1.4-0.5-2.2c0-0.6,0-1.3,0.3-1.8c0.4-0.7,1.2-1.5,2.1-1.5
						c0.3,0,0.5,0,0.7,0.2c0.1,0.1,0.2,0.2,0.3,0.3c0.1,0.1,0.1,0.1,0.2,0.2C413,68.5,413.1,68.5,413.2,68.5
						C413.2,68.6,413.3,68.6,413.2,68.5L413.2,68.5z"/>
				</g>
			</g>
			<g>
				<g>
					<path class="st7" d="M411.7,76.3c-0.2,0-0.4,0.1-0.6,0.2c-0.2,0.1-0.4,0.1-0.6,0.1c-0.4,0.1-0.8,0.1-1.2,0
						c-0.8-0.1-1.5-0.6-2.1-1.1c-0.1-0.1-0.3,0-0.2,0.2c0.1,0.2,0.2,0.4,0.4,0.5c0.2,0.1,0.4,0.3,0.5,0.4c0.4,0.2,0.9,0.4,1.3,0.4
						c0.4,0.1,0.9,0.1,1.3,0c0.4-0.1,1-0.2,1.2-0.5C411.9,76.4,411.8,76.2,411.7,76.3L411.7,76.3z"/>
				</g>
			</g>
		</g>
		<path class="st22" d="M385.2,62.6c0,0,3.1-0.3,5.7,0.5"/>
	</g>
</g>
<g>
	<text transform="matrix(1 0 0 1 154.6021 610.506)" class="st9" style="font-family:'Roboto-Medium'; font-size:38px;">Avisos importantes</text>
</g>
<g>
	<text transform="matrix(1 0 0 1 112.5213 506.6238)" class="st9" style="font-family:'Roboto-Medium'; font-size:38px;">¿Cuánto dura el curso?</text>
</g>
<path class="st25" d="M631.2,413.2H1.2v-61c0-11.9,9.7-21.6,21.6-21.6h586.8c11.9,0,21.6,9.7,21.6,21.6V413.2z"/>
<g>
	<text transform="matrix(1 0 0 1 708.2795 581.3241)" class="st9" style="font-family:'Roboto-Medium'; font-size:38px;">Nos presentamos</text>
</g>
<g>
	<g>
		<path class="st9" d="M138,373.3c0,1.5-0.2,2.8-0.5,3.6c-0.3,0.9-0.9,1.8-1.8,2.8l-1.9,2c-1.1,1.2-1.7,2.5-1.7,3.8
			c0,1.2,0.3,2,0.9,2.6c0.6,0.6,1.5,0.9,2.6,0.9c1.1,0,2-0.3,2.6-0.9c0.7-0.6,1-1.4,1-2.5h4.5c0,2.2-0.8,3.9-2.3,5.2
			c-1.5,1.3-3.4,1.9-5.8,1.9c-2.5,0-4.5-0.6-5.9-1.9c-1.4-1.2-2.1-3-2.1-5.3c0-2,1-4.1,2.9-6.1l1.7-1.7c1-0.9,1.5-2,1.6-3.5l0-1H138
			z M138.4,367.6c0,0.7-0.2,1.3-0.7,1.7c-0.4,0.5-1.1,0.7-1.9,0.7s-1.4-0.2-1.9-0.7s-0.7-1-0.7-1.7c0-0.7,0.2-1.2,0.7-1.7
			s1.1-0.7,1.9-0.7s1.4,0.2,1.9,0.7C138.2,366.3,138.4,366.9,138.4,367.6z"/>
		<path class="st9" d="M167.8,376.8c-0.3,2.9-1.3,5.1-3.2,6.7c-1.9,1.6-4.3,2.4-7.4,2.4c-2.2,0-4-0.5-5.7-1.5
			c-1.6-1-2.9-2.5-3.8-4.4c-0.9-1.9-1.4-4.1-1.4-6.5V371c0-2.5,0.5-4.8,1.4-6.7c0.9-1.9,2.2-3.4,3.9-4.5c1.7-1.1,3.6-1.6,5.9-1.6
			c3,0,5.4,0.8,7.2,2.4c1.8,1.6,2.9,3.9,3.2,6.9h-4.7c-0.2-1.9-0.8-3.3-1.7-4.2c-0.9-0.9-2.2-1.3-4-1.3c-2,0-3.6,0.7-4.7,2.2
			c-1.1,1.5-1.7,3.7-1.7,6.6v2.4c0,2.9,0.5,5.2,1.6,6.7c1,1.5,2.6,2.3,4.6,2.3c1.8,0,3.2-0.4,4.2-1.2c0.9-0.8,1.5-2.2,1.8-4.1H167.8
			z"/>
		<path class="st9" d="M183.3,383.7c-1.3,1.6-3.2,2.3-5.6,2.3c-2.2,0-3.8-0.6-4.9-1.9c-1.1-1.3-1.7-3.1-1.7-5.5v-13h4.5v13
			c0,2.5,1.1,3.8,3.2,3.8c2.2,0,3.7-0.8,4.4-2.4v-14.4h4.5v20.1h-4.2L183.3,383.7z"/>
		<path class="st9" d="M203.9,385.6c-0.2-0.4-0.4-1-0.5-1.9c-1.4,1.5-3.2,2.2-5.3,2.2c-2,0-3.7-0.6-4.9-1.7
			c-1.3-1.2-1.9-2.6-1.9-4.3c0-2.1,0.8-3.8,2.4-4.9c1.6-1.1,3.9-1.7,6.8-1.7h2.8V372c0-1-0.3-1.9-0.9-2.5c-0.6-0.6-1.5-0.9-2.7-0.9
			c-1,0-1.9,0.3-2.5,0.8c-0.7,0.5-1,1.2-1,2h-4.5c0-1.1,0.4-2.1,1.1-3.1c0.7-1,1.7-1.7,3-2.3c1.3-0.5,2.7-0.8,4.2-0.8
			c2.3,0,4.2,0.6,5.6,1.8c1.4,1.2,2.1,2.8,2.2,5v9.1c0,1.8,0.3,3.2,0.8,4.3v0.3H203.9z M198.9,382.4c0.9,0,1.7-0.2,2.5-0.6
			c0.8-0.4,1.4-1,1.8-1.7v-3.8h-2.4c-1.7,0-2.9,0.3-3.8,0.9c-0.8,0.6-1.3,1.4-1.3,2.5c0,0.9,0.3,1.6,0.9,2.1
			C197.2,382.1,198,382.4,198.9,382.4z M201.4,357.1h5.1l-5.1,5.6l-3.6,0L201.4,357.1z"/>
		<path class="st9" d="M216.3,365.5l0.1,2.3c1.5-1.8,3.4-2.7,5.8-2.7c4.2,0,6.3,2.4,6.4,7.2v13.3h-4.5v-13c0-1.3-0.3-2.2-0.8-2.8
			c-0.6-0.6-1.5-0.9-2.7-0.9c-1.8,0-3.2,0.8-4.1,2.5v14.3H212v-20.1H216.3z"/>
		<path class="st9" d="M238.5,360.7v4.9h3.5v3.3h-3.5v11.2c0,0.8,0.2,1.3,0.5,1.7c0.3,0.3,0.8,0.5,1.6,0.5c0.5,0,1-0.1,1.6-0.2v3.5
			c-1,0.3-2,0.4-3,0.4c-3.5,0-5.2-1.9-5.2-5.7v-11.4h-3.3v-3.3h3.3v-4.9H238.5z"/>
		<path class="st9" d="M243.7,375.4c0-2,0.4-3.7,1.2-5.3c0.8-1.6,1.9-2.8,3.3-3.6c1.4-0.8,3-1.3,4.9-1.3c2.7,0,4.9,0.9,6.6,2.6
			c1.7,1.7,2.6,4.1,2.7,6.9l0,1.1c0,2-0.4,3.7-1.1,5.3c-0.8,1.6-1.8,2.8-3.3,3.6c-1.4,0.9-3.1,1.3-4.9,1.3c-2.8,0-5.1-0.9-6.8-2.8
			c-1.7-1.9-2.6-4.4-2.6-7.5V375.4z M248.2,375.8c0,2.1,0.4,3.7,1.3,4.9c0.9,1.2,2,1.8,3.6,1.8s2.7-0.6,3.6-1.8
			c0.8-1.2,1.3-2.9,1.3-5.2c0-2-0.4-3.6-1.3-4.8c-0.9-1.2-2.1-1.8-3.6-1.8c-1.5,0-2.6,0.6-3.5,1.8
			C248.6,371.7,248.2,373.5,248.2,375.8z"/>
		<path class="st9" d="M274,375.4c0-3.1,0.7-5.6,2.2-7.5c1.4-1.9,3.4-2.8,5.8-2.8c2.1,0,3.8,0.7,5.2,2.2v-10.3h4.5v28.5h-4.1
			l-0.2-2.1c-1.3,1.6-3.1,2.4-5.4,2.4c-2.4,0-4.3-0.9-5.7-2.8C274.7,381.3,274,378.7,274,375.4z M278.5,375.8c0,2,0.4,3.6,1.2,4.8
			c0.8,1.1,1.9,1.7,3.3,1.7c1.8,0,3.2-0.8,4-2.5v-8.6c-0.8-1.6-2.2-2.4-4-2.4c-1.5,0-2.6,0.6-3.4,1.7
			C278.9,371.8,278.5,373.5,278.5,375.8z"/>
		<path class="st9" d="M308.1,383.7c-1.3,1.6-3.2,2.3-5.6,2.3c-2.2,0-3.8-0.6-4.9-1.9c-1.1-1.3-1.7-3.1-1.7-5.5v-13h4.5v13
			c0,2.5,1.1,3.8,3.2,3.8c2.2,0,3.7-0.8,4.4-2.4v-14.4h4.5v20.1h-4.2L308.1,383.7z"/>
		<path class="st9" d="M327.2,369.7c-0.6-0.1-1.2-0.1-1.8-0.1c-2.1,0-3.5,0.8-4.2,2.4v13.7h-4.5v-20.1h4.3l0.1,2.2
			c1.1-1.7,2.6-2.6,4.5-2.6c0.6,0,1.2,0.1,1.6,0.3L327.2,369.7z"/>
		<path class="st9" d="M341.1,385.6c-0.2-0.4-0.4-1-0.5-1.9c-1.4,1.5-3.2,2.2-5.3,2.2c-2,0-3.7-0.6-4.9-1.7
			c-1.3-1.2-1.9-2.6-1.9-4.3c0-2.1,0.8-3.8,2.4-4.9c1.6-1.1,3.9-1.7,6.8-1.7h2.8V372c0-1-0.3-1.9-0.9-2.5c-0.6-0.6-1.5-0.9-2.7-0.9
			c-1,0-1.9,0.3-2.5,0.8c-0.7,0.5-1,1.2-1,2h-4.5c0-1.1,0.4-2.1,1.1-3.1c0.7-1,1.7-1.7,3-2.3c1.3-0.5,2.7-0.8,4.2-0.8
			c2.3,0,4.2,0.6,5.6,1.8c1.4,1.2,2.1,2.8,2.2,5v9.1c0,1.8,0.3,3.2,0.8,4.3v0.3H341.1z M336.1,382.4c0.9,0,1.7-0.2,2.5-0.6
			c0.8-0.4,1.4-1,1.8-1.7v-3.8H338c-1.7,0-2.9,0.3-3.8,0.9c-0.8,0.6-1.3,1.4-1.3,2.5c0,0.9,0.3,1.6,0.9,2.1
			C334.4,382.1,335.2,382.4,336.1,382.4z"/>
		<path class="st9" d="M367.2,386c-2.9,0-5.2-0.9-6.9-2.7c-1.8-1.8-2.7-4.2-2.7-7.2v-0.6c0-2,0.4-3.8,1.2-5.4
			c0.8-1.6,1.9-2.8,3.3-3.7c1.4-0.9,3-1.3,4.7-1.3c2.7,0,4.8,0.9,6.3,2.6c1.5,1.7,2.2,4.2,2.2,7.4v1.8h-13.1c0.1,1.7,0.7,3,1.7,3.9
			c1,1,2.2,1.4,3.7,1.4c2.1,0,3.7-0.8,5-2.5l2.4,2.3c-0.8,1.2-1.9,2.1-3.2,2.8C370.4,385.7,368.9,386,367.2,386z M366.7,368.8
			c-1.2,0-2.2,0.4-3,1.3c-0.8,0.9-1.2,2.1-1.5,3.6h8.6v-0.3c-0.1-1.5-0.5-2.7-1.2-3.4C368.9,369.2,367.9,368.8,366.7,368.8z"/>
		<path class="st9" d="M383.2,385.6h-4.5v-28.5h4.5V385.6z"/>
		<path class="st9" d="M405,382.4c1.1,0,2.1-0.3,2.8-1c0.7-0.7,1.1-1.5,1.2-2.4h4.2c0,1.3-0.4,2.4-1.2,3.5c-0.7,1.1-1.7,1.9-3,2.6
			c-1.3,0.6-2.6,0.9-4,0.9c-2.8,0-5-0.9-6.7-2.7c-1.6-1.8-2.5-4.3-2.5-7.5v-0.5c0-3.1,0.8-5.5,2.4-7.3c1.6-1.8,3.9-2.8,6.7-2.8
			c2.4,0,4.3,0.7,5.8,2.1c1.5,1.4,2.3,3.2,2.4,5.5H409c0-1.2-0.4-2.1-1.2-2.8c-0.7-0.7-1.7-1.1-2.8-1.1c-1.5,0-2.6,0.5-3.4,1.6
			c-0.8,1.1-1.2,2.7-1.2,4.8v0.7c0,2.2,0.4,3.8,1.2,4.9C402.4,381.9,403.5,382.4,405,382.4z"/>
		<path class="st9" d="M428.4,383.7c-1.3,1.6-3.2,2.3-5.6,2.3c-2.2,0-3.8-0.6-4.9-1.9c-1.1-1.3-1.7-3.1-1.7-5.5v-13h4.5v13
			c0,2.5,1.1,3.8,3.2,3.8c2.2,0,3.7-0.8,4.4-2.4v-14.4h4.5v20.1h-4.2L428.4,383.7z"/>
		<path class="st9" d="M447.5,369.7c-0.6-0.1-1.2-0.1-1.8-0.1c-2.1,0-3.5,0.8-4.2,2.4v13.7H437v-20.1h4.3l0.1,2.2
			c1.1-1.7,2.6-2.6,4.5-2.6c0.6,0,1.2,0.1,1.6,0.3L447.5,369.7z"/>
		<path class="st9" d="M461.3,380.2c0-0.8-0.3-1.4-1-1.8c-0.7-0.4-1.8-0.8-3.3-1.1c-1.5-0.3-2.8-0.7-3.8-1.2
			c-2.3-1.1-3.4-2.7-3.4-4.7c0-1.7,0.7-3.2,2.2-4.3c1.5-1.2,3.3-1.7,5.6-1.7c2.4,0,4.3,0.6,5.8,1.8c1.5,1.2,2.2,2.7,2.2,4.6H461
			c0-0.9-0.3-1.6-1-2.2c-0.6-0.6-1.5-0.9-2.6-0.9c-1,0-1.8,0.2-2.4,0.7c-0.6,0.5-0.9,1.1-0.9,1.8c0,0.7,0.3,1.2,0.9,1.6
			c0.6,0.4,1.8,0.8,3.5,1.2c1.8,0.4,3.2,0.9,4.2,1.4c1,0.5,1.8,1.2,2.2,1.9c0.5,0.8,0.7,1.7,0.7,2.7c0,1.8-0.7,3.3-2.2,4.4
			c-1.5,1.1-3.5,1.7-5.9,1.7c-1.6,0-3.1-0.3-4.4-0.9c-1.3-0.6-2.3-1.4-3-2.4c-0.7-1-1.1-2.2-1.1-3.4h4.4c0.1,1.1,0.5,1.9,1.2,2.5
			c0.7,0.6,1.7,0.9,3,0.9c1.2,0,2.1-0.2,2.7-0.7C460.9,381.5,461.3,380.9,461.3,380.2z"/>
		<path class="st9" d="M468.4,375.4c0-2,0.4-3.7,1.2-5.3c0.8-1.6,1.9-2.8,3.3-3.6c1.4-0.8,3-1.3,4.9-1.3c2.7,0,4.9,0.9,6.6,2.6
			c1.7,1.7,2.6,4.1,2.7,6.9l0,1.1c0,2-0.4,3.7-1.1,5.3c-0.8,1.6-1.8,2.8-3.3,3.6c-1.4,0.9-3.1,1.3-4.9,1.3c-2.8,0-5.1-0.9-6.8-2.8
			c-1.7-1.9-2.6-4.4-2.6-7.5V375.4z M472.9,375.8c0,2.1,0.4,3.7,1.3,4.9c0.9,1.2,2,1.8,3.6,1.8s2.7-0.6,3.6-1.8
			c0.8-1.2,1.3-2.9,1.3-5.2c0-2-0.4-3.6-1.3-4.8c-0.9-1.2-2.1-1.8-3.6-1.8c-1.5,0-2.6,0.6-3.5,1.8
			C473.3,371.7,472.9,373.5,472.9,375.8z"/>
		<path class="st9" d="M494.7,377.7c0-1.6,0.2-3,0.6-3.9s1.2-2.1,2.4-3.2c1.2-1.2,2-2,2.3-2.5c0.5-0.8,0.7-1.6,0.7-2.4
			c0-1.2-0.3-2-0.9-2.7c-0.6-0.6-1.4-0.9-2.5-0.9c-1.1,0-1.9,0.3-2.6,0.9c-0.6,0.6-1,1.4-1,2.4h-4.5c0-2.2,0.8-3.9,2.2-5.2
			c1.5-1.3,3.4-1.9,5.8-1.9c2.5,0,4.4,0.6,5.8,1.9c1.4,1.3,2.1,3,2.1,5.3c0,2-0.9,4-2.8,6l-2.3,2.2c-0.8,0.9-1.2,2.3-1.3,4.1H494.7z
			 M494.4,383.5c0-0.7,0.2-1.3,0.7-1.8c0.5-0.5,1.1-0.7,1.9-0.7c0.8,0,1.4,0.2,1.9,0.7c0.5,0.5,0.7,1,0.7,1.7c0,0.7-0.2,1.2-0.7,1.7
			s-1.1,0.7-1.9,0.7s-1.4-0.2-1.9-0.7C494.6,384.7,494.4,384.1,494.4,383.5z"/>
	</g>
</g>
</svg>
