<?xml version="1.0" encoding="utf-8"?>
<!-- Generator: Adobe Illustrator 25.0.1, SVG Export Plug-In . SVG Version: 6.00 Build 0)  -->
<svg version="1.1" id="Capa_1" xmlns="http://www.w3.org/2000/svg" xmlns:xlink="http://www.w3.org/1999/xlink" x="0px" y="0px"
	 viewBox="0 0 632.6 412.9" style="enable-background:new 0 0 632.6 412.9;" xml:space="preserve">
<style type="text/css">
	.st0{fill:#DDDDDD;}
	.st1{clip-path:url(#SVGID_2_);}
	.st2{opacity:0.2;fill:#FFFFFF;}
	.st3{fill:#3664A7;}
	.st4{fill:#F1F9FE;}
	.st5{fill:#B1C6E5;}
	.st6{fill:#80A2D4;}
	.st7{fill:none;stroke:#CEE2E8;stroke-width:4;stroke-miterlimit:10;}
	.st8{fill:#CEE2E8;}
	.st9{fill:#95D328;}
	.st10{fill:#B55040;}
	.st11{fill:#CCC6BA;}
	.st12{fill:none;stroke:#6D685C;stroke-linejoin:round;stroke-miterlimit:10;}
	.st13{fill:#1E1E17;}
	.st14{fill:#005C63;}
	.st15{fill:none;stroke:#189393;stroke-miterlimit:10;}
	.st16{fill:none;stroke:#6D685C;stroke-miterlimit:10;}
	.st17{fill:#6D685C;}
	.st18{clip-path:url(#SVGID_4_);fill:#26261E;}
	.st19{clip-path:url(#SVGID_4_);fill:none;stroke:#303029;stroke-width:0.75;stroke-miterlimit:10;}
	.st20{clip-path:url(#SVGID_4_);fill:#303029;}
	.st21{fill:#99382E;}
	.st22{fill:#000100;}
	.st23{fill:#30CACE;}
	.st24{fill:none;stroke:#044A4C;stroke-width:0.75;stroke-miterlimit:10;}
	.st25{fill:none;stroke:#30CACE;stroke-width:2;stroke-miterlimit:10;}
	.st26{fill:#FFFFFF;}
</style>
<g>
	<text transform="matrix(1 0 0 1 154.6021 610.506)" class="st26" style="font-family:'Roboto-Medium'; font-size:38px;">Avisos importantes</text>
</g>
<path class="st0" d="M631.2,413.2H1.2v-61c0-11.9,9.7-21.6,21.6-21.6h586.8c11.9,0,21.6,9.7,21.6,21.6V413.2z"/>
<g>
	<text transform="matrix(1 0 0 1 708.2795 581.3241)" class="st26" style="font-family:'Roboto-Medium'; font-size:38px;">Nos presentamos</text>
</g>
<g>
	<text transform="matrix(1 0 0 1 -145.4992 584.7176)" class="st26" style="font-family:'Roboto-Medium'; font-size:38px;">¿Qué voy a aprender?</text>
</g>
<g>
	<g>
		<path d="M213.1,370H202v8.3h13v3.7h-17.7v-27h17.5v3.8H202v7.5h11.1V370z"/>
		<path d="M222.2,362l0.1,2.3c1.5-1.8,3.4-2.7,5.8-2.7c4.2,0,6.3,2.4,6.4,7.2v13.3H230v-13c0-1.3-0.3-2.2-0.8-2.8
			c-0.6-0.6-1.5-0.9-2.7-0.9c-1.8,0-3.2,0.8-4.1,2.5v14.3h-4.5V362H222.2z"/>
		<path d="M247,378.9c1.1,0,2.1-0.3,2.8-1c0.7-0.7,1.1-1.5,1.2-2.4h4.2c0,1.3-0.4,2.4-1.2,3.5c-0.7,1.1-1.7,1.9-3,2.6
			c-1.3,0.6-2.6,0.9-4,0.9c-2.8,0-5-0.9-6.7-2.7c-1.6-1.8-2.5-4.3-2.5-7.5v-0.5c0-3.1,0.8-5.5,2.4-7.3c1.6-1.8,3.9-2.8,6.7-2.8
			c2.4,0,4.3,0.7,5.8,2.1c1.5,1.4,2.3,3.2,2.4,5.5H251c0-1.2-0.4-2.1-1.2-2.8c-0.7-0.7-1.7-1.1-2.8-1.1c-1.5,0-2.6,0.5-3.4,1.6
			c-0.8,1.1-1.2,2.7-1.2,4.8v0.7c0,2.2,0.4,3.8,1.2,4.9C244.4,378.3,245.5,378.9,247,378.9z"/>
		<path d="M270.4,380.1c-1.3,1.6-3.2,2.3-5.6,2.3c-2.2,0-3.8-0.6-4.9-1.9c-1.1-1.3-1.7-3.1-1.7-5.5v-13h4.5v13
			c0,2.5,1.1,3.8,3.2,3.8c2.2,0,3.7-0.8,4.4-2.4V362h4.5v20.1h-4.2L270.4,380.1z"/>
		<path d="M287.8,382.5c-2.9,0-5.2-0.9-6.9-2.7c-1.8-1.8-2.7-4.2-2.7-7.2V372c0-2,0.4-3.8,1.2-5.4c0.8-1.6,1.9-2.8,3.3-3.7
			c1.4-0.9,3-1.3,4.7-1.3c2.7,0,4.8,0.9,6.3,2.6c1.5,1.7,2.2,4.2,2.2,7.4v1.8h-13.1c0.1,1.7,0.7,3,1.7,3.9c1,1,2.2,1.4,3.7,1.4
			c2.1,0,3.7-0.8,5-2.5l2.4,2.3c-0.8,1.2-1.9,2.1-3.2,2.8C291,382.1,289.5,382.5,287.8,382.5z M287.3,365.3c-1.2,0-2.2,0.4-3,1.3
			c-0.8,0.9-1.2,2.1-1.5,3.6h8.6v-0.3c-0.1-1.5-0.5-2.7-1.2-3.4C289.5,365.6,288.5,365.3,287.3,365.3z"/>
		<path d="M310.2,376.6c0-0.8-0.3-1.4-1-1.8c-0.7-0.4-1.8-0.8-3.3-1.1c-1.5-0.3-2.8-0.7-3.8-1.2c-2.3-1.1-3.4-2.7-3.4-4.7
			c0-1.7,0.7-3.2,2.2-4.3c1.5-1.2,3.3-1.7,5.6-1.7c2.4,0,4.3,0.6,5.8,1.8c1.5,1.2,2.2,2.7,2.2,4.6H310c0-0.9-0.3-1.6-1-2.2
			c-0.6-0.6-1.5-0.9-2.6-0.9c-1,0-1.8,0.2-2.4,0.7c-0.6,0.5-0.9,1.1-0.9,1.8c0,0.7,0.3,1.2,0.9,1.6c0.6,0.4,1.8,0.8,3.5,1.2
			c1.8,0.4,3.2,0.9,4.2,1.4c1,0.5,1.8,1.2,2.2,1.9c0.5,0.8,0.7,1.7,0.7,2.7c0,1.8-0.7,3.3-2.2,4.4c-1.5,1.1-3.5,1.7-5.9,1.7
			c-1.6,0-3.1-0.3-4.4-0.9c-1.3-0.6-2.3-1.4-3-2.4c-0.7-1-1.1-2.2-1.1-3.4h4.4c0.1,1.1,0.5,1.9,1.2,2.5c0.7,0.6,1.7,0.9,3,0.9
			c1.2,0,2.1-0.2,2.7-0.7C309.9,377.9,310.2,377.4,310.2,376.6z"/>
		<path d="M323.9,357.1v4.9h3.5v3.3h-3.5v11.2c0,0.8,0.2,1.3,0.5,1.7c0.3,0.3,0.8,0.5,1.6,0.5c0.5,0,1-0.1,1.6-0.2v3.5
			c-1,0.3-2,0.4-3,0.4c-3.5,0-5.2-1.9-5.2-5.7v-11.4h-3.3V362h3.3v-4.9H323.9z"/>
		<path d="M342.5,382.1c-0.2-0.4-0.4-1-0.5-1.9c-1.4,1.5-3.2,2.2-5.3,2.2c-2,0-3.7-0.6-4.9-1.7c-1.3-1.2-1.9-2.6-1.9-4.3
			c0-2.1,0.8-3.8,2.4-4.9c1.6-1.1,3.9-1.7,6.8-1.7h2.8v-1.3c0-1-0.3-1.9-0.9-2.5c-0.6-0.6-1.5-0.9-2.7-0.9c-1,0-1.9,0.3-2.5,0.8
			c-0.7,0.5-1,1.2-1,2h-4.5c0-1.1,0.4-2.1,1.1-3.1c0.7-1,1.7-1.7,3-2.3c1.3-0.5,2.7-0.8,4.2-0.8c2.3,0,4.2,0.6,5.6,1.8
			c1.4,1.2,2.1,2.8,2.2,5v9.1c0,1.8,0.3,3.2,0.8,4.3v0.3H342.5z M337.5,378.8c0.9,0,1.7-0.2,2.5-0.6c0.8-0.4,1.4-1,1.8-1.7v-3.8
			h-2.4c-1.7,0-2.9,0.3-3.8,0.9c-0.8,0.6-1.3,1.4-1.3,2.5c0,0.9,0.3,1.6,0.9,2.1C335.8,378.6,336.6,378.8,337.5,378.8z"/>
		<path d="M375.7,370.6h-10.9v11.4h-4.7v-27h17.2v3.8h-12.5v8h10.9V370.6z"/>
		<path d="M380.2,356.8c0-0.7,0.2-1.3,0.7-1.7c0.4-0.5,1.1-0.7,1.9-0.7s1.4,0.2,1.9,0.7c0.4,0.5,0.7,1,0.7,1.7
			c0,0.7-0.2,1.2-0.7,1.7c-0.4,0.5-1.1,0.7-1.9,0.7s-1.4-0.2-1.9-0.7C380.5,358,380.2,357.5,380.2,356.8z M385,382.1h-4.5V362h4.5
			V382.1z"/>
		<path d="M393.7,362l0.1,2.3c1.5-1.8,3.4-2.7,5.8-2.7c4.2,0,6.3,2.4,6.4,7.2v13.3h-4.5v-13c0-1.3-0.3-2.2-0.8-2.8
			c-0.6-0.6-1.5-0.9-2.7-0.9c-1.8,0-3.2,0.8-4.1,2.5v14.3h-4.5V362H393.7z"/>
		<path d="M422.3,382.1c-0.2-0.4-0.4-1-0.5-1.9c-1.4,1.5-3.2,2.2-5.3,2.2c-2,0-3.7-0.6-4.9-1.7c-1.3-1.2-1.9-2.6-1.9-4.3
			c0-2.1,0.8-3.8,2.4-4.9c1.6-1.1,3.9-1.7,6.8-1.7h2.8v-1.3c0-1-0.3-1.9-0.9-2.5c-0.6-0.6-1.5-0.9-2.7-0.9c-1,0-1.9,0.3-2.5,0.8
			c-0.7,0.5-1,1.2-1,2h-4.5c0-1.1,0.4-2.1,1.1-3.1c0.7-1,1.7-1.7,3-2.3c1.3-0.5,2.7-0.8,4.2-0.8c2.3,0,4.2,0.6,5.6,1.8
			c1.4,1.2,2.1,2.8,2.2,5v9.1c0,1.8,0.3,3.2,0.8,4.3v0.3H422.3z M417.4,378.8c0.9,0,1.7-0.2,2.5-0.6c0.8-0.4,1.4-1,1.8-1.7v-3.8
			h-2.4c-1.7,0-2.9,0.3-3.8,0.9c-0.8,0.6-1.3,1.4-1.3,2.5c0,0.9,0.3,1.6,0.9,2.1C415.6,378.6,416.4,378.8,417.4,378.8z"/>
		<path d="M435.3,382.1h-4.5v-28.5h4.5V382.1z"/>
	</g>
</g>
<g>
	<defs>
		<rect id="SVGID_1_" x="-1.4" y="1.4" width="636" height="405"/>
	</defs>
	<clipPath id="SVGID_2_">
		<use xlink:href="#SVGID_1_"  style="overflow:visible;"/>
	</clipPath>
	<g class="st1">
		<path class="st2" d="M454,310.6c0.4-2.2-49.6-32.3-61.8-54.2l8-32.7l103.9,86.9L454,310.6z"/>
		<g>
			<g>
				<g>
					<g>
						<path class="st3" d="M325.2,51.1l-16.8,10.7l-19.6-10.7H105.3c-8.7,0-15.7,7-15.7,15.7v246.9c0,8.7,7,15.7,15.7,15.7h183.5
							c0,0,18.5,26.9,36.5,0h183.5c8.7,0,15.7-7,15.7-15.7V66.8c0-8.7-7-15.7-15.7-15.7H325.2z"/>
					</g>
				</g>
			</g>
			<g>
				<g>
					<g>
						<path class="st4" d="M290,320.4H143.1c-21.5,0-38.9-17.4-38.9-38.9V99.7c0-21.5,17.4-38.9,38.9-38.9H290V320.4z"/>
					</g>
				</g>
			</g>
			<g>
				<g>
					<g>
						<path class="st4" d="M470.9,320.4H324V60.9h146.9c21.5,0,38.9,17.4,38.9,38.9v181.8C509.8,303,492.4,320.4,470.9,320.4z"/>
					</g>
				</g>
			</g>
			<g>
				<g>
					<g>
						<path class="st5" d="M290,60.9v259.6c0,0,17.3,25.1,34,0V60.9l-15.7,9.9L290,60.9z"/>
					</g>
				</g>
			</g>
			<g>
				<g>
					<g>
						<rect x="128.8" y="194.8" class="st6" width="134" height="10.5"/>
					</g>
				</g>
			</g>
			<g>
				<g>
					<g>
						<rect x="128.8" y="221" class="st6" width="134" height="10.5"/>
					</g>
				</g>
			</g>
			<g>
				<g>
					<g>
						<rect x="128.8" y="247.2" class="st6" width="134" height="10.5"/>
					</g>
				</g>
			</g>
			<g>
				<g>
					<g>
						<rect x="128.8" y="273.3" class="st6" width="134" height="10.5"/>
					</g>
				</g>
			</g>
			<g>
				<rect x="126.6" y="90.3" class="st6" width="136.1" height="88.9"/>
			</g>
		</g>
		<g>
			<g>
				<path class="st7" d="M382.1,127.2c0,8.3-6.7,15-15,15c-8.3,0-15-6.7-15-15c0-8.3,6.7-15,15-15
					C375.3,112.2,382.1,118.9,382.1,127.2z"/>
				<g>
					<path class="st8" d="M476.9,118.1c0,0.9-0.8,1.7-1.7,1.7h-80.4c-0.9,0-1.7-0.8-1.7-1.7l0,0c0-0.9,0.8-1.7,1.7-1.7h80.4
						C476.1,116.4,476.9,117.1,476.9,118.1L476.9,118.1z"/>
					<path class="st8" d="M462.2,127.2c0,0.9-0.8,1.7-1.7,1.7h-65.7c-0.9,0-1.7-0.8-1.7-1.7l0,0c0-0.9,0.8-1.7,1.7-1.7h65.7
						C461.4,125.5,462.2,126.3,462.2,127.2L462.2,127.2z"/>
					<path class="st8" d="M483,136.4c0,0.9-0.8,1.7-1.7,1.7h-86.5c-0.9,0-1.7-0.8-1.7-1.7l0,0c0-0.9,0.8-1.7,1.7-1.7h86.5
						C482.2,134.7,483,135.4,483,136.4L483,136.4z"/>
				</g>
			</g>
			<path class="st9" d="M383.7,112.2c-5.7,3.3-11.1,7.7-15.4,12.7c-0.6,0.7-1.2,1.3-1.9,1.8c0,0-0.1-0.1-0.1-0.1
				c-1.3-2-2-4.5-3.7-6.3c-1.4-1.5-3.5-2-5.3-0.7c-2.3,1.7-4.6,2.3-4.2,5.6c0.1,1.2,1.3,2.5,2.5,2.5c0.1,0,0.1,0,0.2,0
				c0.7,0,1.2-0.1,1.7-0.4c2.1,4.8,5.2,10.4,10.8,7.8c3.4-1.6,14.7-16.2,17.1-21.1C386.2,113,384.8,111.5,383.7,112.2z"/>
		</g>
		<g>
			<g>
				<path class="st7" d="M382.1,173.4c0,8.3-6.7,15-15,15c-8.3,0-15-6.7-15-15c0-8.3,6.7-15,15-15
					C375.3,158.4,382.1,165.1,382.1,173.4z"/>
				<g>
					<path class="st8" d="M452.6,164.2c0,0.9-0.8,1.7-1.7,1.7h-56.2c-0.9,0-1.7-0.8-1.7-1.7l0,0c0-0.9,0.8-1.7,1.7-1.7h56.2
						C451.9,162.5,452.6,163.3,452.6,164.2L452.6,164.2z"/>
					<path class="st8" d="M476.6,173.4c0,0.9-0.8,1.7-1.7,1.7h-80.1c-0.9,0-1.7-0.8-1.7-1.7l0,0c0-0.9,0.8-1.7,1.7-1.7h80.1
						C475.8,171.7,476.6,172.4,476.6,173.4L476.6,173.4z"/>
					<path class="st8" d="M445.9,182.5c0,0.9-0.8,1.7-1.7,1.7h-49.5c-0.9,0-1.7-0.8-1.7-1.7l0,0c0-0.9,0.8-1.7,1.7-1.7h49.5
						C445.2,180.8,445.9,181.6,445.9,182.5L445.9,182.5z"/>
				</g>
			</g>
			<path class="st9" d="M383.7,158.3c-5.7,3.3-11.1,7.7-15.4,12.7c-0.6,0.7-1.2,1.3-1.9,1.8c0,0-0.1-0.1-0.1-0.1
				c-1.3-2-2-4.5-3.7-6.3c-1.4-1.5-3.5-2-5.3-0.7c-2.3,1.7-4.6,2.3-4.2,5.6c0.1,1.2,1.3,2.5,2.5,2.5c0.1,0,0.1,0,0.2,0
				c0.7,0,1.2-0.1,1.7-0.4c2.1,4.8,5.2,10.4,10.8,7.8c3.4-1.6,14.7-16.2,17.1-21.1C386.2,159.2,384.8,157.7,383.7,158.3z"/>
		</g>
		<g>
			<g>
				<path class="st7" d="M382.1,218.6c0,8.3-6.7,15-15,15c-8.3,0-15-6.7-15-15c0-8.3,6.7-15,15-15
					C375.3,203.6,382.1,210.3,382.1,218.6z"/>
				<g>
					<path class="st8" d="M434,209.5c0,0.9-0.8,1.7-1.7,1.7h-37.6c-0.9,0-1.7-0.8-1.7-1.7l0,0c0-0.9,0.8-1.7,1.7-1.7h37.6
						C433.3,207.7,434,208.5,434,209.5L434,209.5z"/>
					<path class="st8" d="M462.2,218.6c0,0.9-0.8,1.7-1.7,1.7h-65.7c-0.9,0-1.7-0.8-1.7-1.7l0,0c0-0.9,0.8-1.7,1.7-1.7h65.7
						C461.4,216.9,462.2,217.7,462.2,218.6L462.2,218.6z"/>
					<path class="st8" d="M450.9,227.8c0,0.9-0.8,1.7-1.7,1.7h-54.5c-0.9,0-1.7-0.8-1.7-1.7l0,0c0-0.9,0.8-1.7,1.7-1.7h54.5
						C450.2,226.1,450.9,226.8,450.9,227.8L450.9,227.8z"/>
				</g>
			</g>
			<path class="st9" d="M383.7,203.5c-5.7,3.3-11.1,7.7-15.4,12.7c-0.6,0.7-1.2,1.3-1.9,1.8c0,0-0.1-0.1-0.1-0.1
				c-1.3-2-2-4.5-3.7-6.3c-1.4-1.5-3.5-2-5.3-0.7c-2.3,1.7-4.6,2.3-4.2,5.6c0.1,1.2,1.3,2.5,2.5,2.5c0.1,0,0.1,0,0.2,0
				c0.7,0,1.2-0.1,1.7-0.4c2.1,4.8,5.2,10.4,10.8,7.8c3.4-1.6,14.7-16.2,17.1-21.1C386.2,204.4,384.8,202.9,383.7,203.5z"/>
		</g>
		<g>
			<g>
				
					<ellipse transform="matrix(0.7071 -0.7071 0.7071 0.7071 -76.8451 335.9064)" class="st7" cx="367.1" cy="260.7" rx="15" ry="15"/>
				<g>
					<path class="st8" d="M476.9,251.6c0,0.9-0.8,1.7-1.7,1.7h-80.4c-0.9,0-1.7-0.8-1.7-1.7l0,0c0-0.9,0.8-1.7,1.7-1.7h80.4
						C476.1,249.9,476.9,250.6,476.9,251.6L476.9,251.6z"/>
					<path class="st8" d="M462.2,260.7c0,0.9-0.8,1.7-1.7,1.7h-65.7c-0.9,0-1.7-0.8-1.7-1.7l0,0c0-0.9,0.8-1.7,1.7-1.7h65.7
						C461.4,259,462.2,259.8,462.2,260.7L462.2,260.7z"/>
					<path class="st8" d="M446.5,269.9c0,0.9-0.8,1.7-1.7,1.7h-50.1c-0.9,0-1.7-0.8-1.7-1.7l0,0c0-0.9,0.8-1.7,1.7-1.7h50.1
						C445.8,268.2,446.5,268.9,446.5,269.9L446.5,269.9z"/>
				</g>
			</g>
			<path class="st9" d="M383.7,245.6c-5.7,3.3-11.1,7.7-15.4,12.7c-0.6,0.7-1.2,1.3-1.9,1.8c0,0-0.1-0.1-0.1-0.1
				c-1.3-2-2-4.5-3.7-6.3c-1.4-1.5-3.5-2-5.3-0.7c-2.3,1.7-4.6,2.3-4.2,5.6c0.1,1.2,1.3,2.5,2.5,2.5c0.1,0,0.1,0,0.2,0
				c0.7,0,1.2-0.1,1.7-0.4c2.1,4.8,5.2,10.4,10.8,7.8c3.4-1.6,14.7-16.2,17.1-21.1C386.2,246.5,384.8,245,383.7,245.6z"/>
		</g>
		<g>
			<g>
				<path class="st10" d="M394.5,135.4c0,0-12.1-7.7-15-8.1c-0.4-0.1-0.9,0.6-0.6,0.9c1.1,0.9,4.9,3,4.9,3s-5.4-2.6-6.9-3
					c-0.3-0.1-0.7,0.6-0.4,0.8c1.2,1.4,5.8,3.6,5.8,3.6s-4.7-2.3-6.6-2.7c-0.5-0.1-0.7,0.6-0.4,0.9c1.5,1.4,6,3.6,5.9,3.9
					c0,0-3.8-2.1-5.6-2.5c-0.5-0.1-1,0.5-0.4,1c1.7,1.3,5.9,3.6,5.8,4c-0.1,0.7-2,0.1-3.2,0.2c-0.5,0-0.8,0.3-0.7,0.7
					c0.2,0.8,6.8,3.3,11.6,6.3l0,0c1.2,0.4,23.8,9,33,10.6c9.4,1.7,41.3-0.7,41.3-0.7l-6.6-18.5c0,0-27.2,4.6-36.7,4.5
					C410.1,140.1,394.5,135.4,394.5,135.4z"/>
			</g>
			<g>
				<path class="st10" d="M501.7,250.2c0,0,2.6,10.2,2.8,15c0.5,15.4-8.9,51.5-8.9,51.5l20.5,3.5c0,0,11.3-27.8,13.3-53.8
					c1.2-15.7-5.4-34.6-5.4-34.6"/>
				<g>
					<polygon class="st11" points="515,325.2 495.3,317.4 496.6,310.3 516.5,319.9 					"/>
					<line class="st12" x1="514.5" y1="318.9" x2="513.8" y2="321.7"/>
					<line class="st12" x1="511.1" y1="317.3" x2="510.4" y2="320"/>
					<line class="st12" x1="508" y1="315.7" x2="507.3" y2="318.4"/>
					<line class="st12" x1="505.1" y1="314.3" x2="504.4" y2="317.1"/>
					<line class="st12" x1="502.1" y1="312.9" x2="501.5" y2="315.7"/>
					<line class="st12" x1="499.2" y1="311.5" x2="498.5" y2="314.3"/>
					<path class="st13" d="M495.5,314.7l-4.3,10.6l14.6,11.5c0.8,0.6,1.8,1,2.8,1h15.1v-1.1c-0.2-1.4-1-2.1-2.1-2.8l-5.6-2.7
						l-0.7-6.5L495.5,314.7z"/>
					<polyline class="st12" points="513,325.1 515.8,326.2 513.4,327.7 516.1,328.8 514.1,330.4 516.5,330.4 					"/>
					<path class="st12" d="M515.6,326.4c0,0,1.2-1.5,1.9-2.1c0.6-0.5,1.3-0.9,2.1-0.6c0.3,0.1,0.5,0.3,0.6,0.6
						c0,0.4-0.2,0.7-0.5,0.9c-1.1,0.8-2.4,1.3-3.8,1.4"/>
					<path class="st12" d="M515.7,326.5c1,0,1.9,0.3,2.8,0.7c0.5,0.2,1,0.4,1.5,0.7c1.5,1,0.1,3.5-1.5,1.9c-1.1-1.2-2.1-2.5-3-3.9"
						/>
					<path class="st12" d="M492.4,322.3l14.4,11.6c0.8,0.6,1.8,1,2.8,1h13.2"/>
					<path class="st12" d="M494.4,317.4c0,0,4.4,3.5,3.7,9.4"/>
					<path class="st12" d="M516.6,334.9c0.2-0.9,0.9-2.1,1.5-2.9"/>
				</g>
				<path class="st10" d="M489.8,233.6c-0.2,42.1-4.8,94.7-4.8,94.7l-21.9-0.2c0,0,0.4-34.1,0.3-89.8"/>
				<path class="st14" d="M461.2,196.7c-2,6.4,0.2,19.3,0.2,19.3l0.3,37.5h30.1l1.2-23.2l4.9,23.2l31.5-8.1l-15.1-49.5"/>
				<line class="st15" x1="461.7" y1="246.9" x2="492.2" y2="246.9"/>
				<path class="st15" d="M464.8,246.9c0-0.4-0.4-17.1-0.8-30.5c-1.5-10.6-0.4-16.5-0.4-16.5"/>
				<path class="st15" d="M463.6,212.2c0,0,3.9-5.9,6.2-10.6"/>
				<path class="st15" d="M493,231.3c0,0,0.8-7,1.3-9.2c0.5-2.2,0.2-9.9,0-18.4"/>
				<path class="st15" d="M494.7,218.1c0,0,3-1.6,3.4-2.9c0.4-1.4,0.7-15.2,0.7-15.2"/>
				<line class="st15" x1="496.6" y1="247.2" x2="527.6" y2="239.4"/>
				<path class="st15" d="M493.7,226.5c0,0,3.1,9.4,5.4,20.1"/>
				<path class="st15" d="M507.8,199c0,0,4.6,6.4,10.1,8.7"/>
				<g>
					<polygon class="st11" points="485.2,328.1 463,328.3 463,321 485.7,322.1 					"/>
					<path class="st13" d="M462.9,325.2l-1,12.6h38.2v-2.6c0-1-0.6-2-1.5-2.5l-13.3-6.8L462.9,325.2z"/>
					<line class="st16" x1="462.1" y1="335.2" x2="500.1" y2="335.2"/>
					<path class="st16" d="M462.7,327.7c0,0,7,0.6,9.9,7.4"/>
					<path class="st16" d="M494.1,330.4c0,0-2.7,2.2-2.8,4.8"/>
					<polyline class="st12" points="484.3,327.9 487,326.3 486.6,329.1 489.2,327.7 489.2,330.2 490.7,328.3 					"/>
					<path class="st12" d="M487,326.6c0,0-0.5-1.8-0.5-2.7c0-0.8,0.1-1.6,0.8-2c0.2-0.2,0.6-0.2,0.8-0.1c0.3,0.2,0.4,0.6,0.4,0.9
						c0,1.4-0.5,2.7-1.2,3.8"/>
					<g>
						<g>
							<path class="st17" d="M487.3,326.7c0.6-0.8,1.6-1.3,2.4-1.8c0.5-0.3,1-0.5,1.5-0.7c0.6-0.1,0.9,0.2,1.2,0.7
								c0.3,0.5,0.1,1-0.5,1.1c-0.6,0.1-1.2,0.1-1.8,0.1c-1.2,0-2.4,0-3.6-0.1c-0.4,0-0.4,0.6,0,0.6c1.2,0.1,2.4,0.1,3.6,0.1
								c0.5,0,1.1-0.1,1.6-0.1c0.4-0.1,0.9-0.2,1.2-0.6c0.5-0.7-0.1-1.9-0.8-2.2c-0.8-0.5-1.9,0.2-2.6,0.6c-1,0.5-1.9,1.1-2.6,2
								C486.9,326.6,487.1,326.9,487.3,326.7L487.3,326.7z"/>
						</g>
					</g>
					<line class="st12" x1="465.7" y1="321.1" x2="465.6" y2="323.9"/>
					<line class="st12" x1="469.6" y1="321.3" x2="469.5" y2="324"/>
					<line class="st12" x1="474" y1="321.5" x2="473.9" y2="324.3"/>
					<line class="st12" x1="478" y1="321.7" x2="477.9" y2="324.4"/>
					<line class="st12" x1="482.5" y1="321.9" x2="482.5" y2="324.6"/>
				</g>
			</g>
			<g>
				<path class="st10" d="M525.2,149.1c10.5,11.8,23.5,20.7,37.9,28.7l-1.5,15.1c-18.4-6.7-35.2-18-48.3-32.5"/>
			</g>
			<g>
				<path class="st10" d="M561.3,176.8c6.5,3.7,15.8,6.3,16.2,7.4c0.2,0.5-0.2,0.8-0.9,0.9c-1.5,0.2-4-0.3-4.1,0.6
					c-0.1,0.5,5.9,2.8,8.2,4.4c0.9,0.6,0.2,1.4-0.4,1.3c-2.4-0.4-7.9-2.5-7.9-2.5c-0.1,0.4,6.3,2.5,8.3,4.2c0.4,0.4,0.2,1.3-0.5,1.2
					c-2.5-0.4-9.3-2.7-9.3-2.7s6.5,2.2,8.3,3.9c0.3,0.3,0,1.2-0.5,1.1c-2-0.3-9.6-2.9-9.6-2.9s5.5,2,7,3.1c0.4,0.3-0.2,1.2-0.7,1.2
					c-3.9-0.3-19.2-7.2-19.2-7.2"/>
			</g>
			<path class="st13" d="M492.4,135.8c0,0,7.3-2.7,14.4-1.4c4.8,0.9,7.7,2.1,11.4,6.2c1.6,1.8,14.7,12.8,14.7,12.8L518.6,168
				l-8.7-8.7l6.1,41c0,0-11.1,3-29.2,4c-16.1,0.9-27.2-0.8-27.2-0.8l-0.9-46.5l-10.1-0.4l-0.6-20.7c0,0,13.8-1.6,18.7-1.6
				c4.7,0,8.8,1.9,8.8,1.9"/>
			<g>
				<defs>
					<path id="SVGID_3_" d="M492.4,135.8c0,0,7.3-2.7,14.4-1.4c4.8,0.9,7.7,2.1,11.4,6.2c1.6,1.8,14.7,12.8,14.7,12.8L518.6,168
						l-8.7-8.7l6.1,41c0,0-11.1,3-29.2,4c-16.1,0.9-27.2-0.8-27.2-0.8l-0.9-46.5l-10.1-0.4l-0.6-20.7c0,0,13.8-1.6,18.7-1.6
						c4.7,0,8.8,1.9,8.8,1.9"/>
				</defs>
				<clipPath id="SVGID_4_">
					<use xlink:href="#SVGID_3_"  style="overflow:visible;"/>
				</clipPath>
				<path class="st18" d="M440.8,142.9c3.1-0.1,6.2,0.2,9.2,1.1c1.6,0.5,3.2,1.2,4.1,2.6c0.7,1.3,0.7,2.8,0.8,4.3
					c0.1,2.1,0.6,4.3-0.4,6.2c-1.4,2.6-4.3,3.1-6.9,3.3c-1,0.1-2.1,0.1-2.9-0.5c-0.6-0.4-0.9-0.9-1.3-1.5c-2.4-3.7-4.9-7.5-5.2-11.9
					"/>
				<path class="st18" d="M515.7,129.5c-3.7,0.4-7.4,1.1-10.9,2.1c-1.6,0.5-3.3,1.1-4.5,2.3c-1.4,1.3-2,3.3-2.3,5.1
					c-0.5,2.8-0.3,6,1.3,8.4c1.6,2.4,4.9,3.8,7.5,2.6c2-1,3.1-3.1,4.4-4.9c1.1-1.5,3.1-3.7,5.2-3c1.7,0.5,3.6,2.8,5,3.9
					c1.5,1.1,3.2,2,5.1,2.2c1.9,0.2,3.9-0.4,5.1-1.8c1.2-1.4,1.5-3.5,1.1-5.4c-0.4-1.8-1.4-3.5-2.5-5"/>
				<path class="st18" d="M460.6,132.1c0.9,1.5,2,2.9,2.7,4.5c0.5,1.1,0.7,2.3,1.3,3.4c1.2,2.2,3.1,4.3,5.7,4.7
					c1.3,0.2,2.6,0,3.8,0.1c1.3,0.1,2.6,0.5,3.3,1.6c1.3,2.1-0.7,5.1,0.7,7c0.7,1,2,1.4,3.3,1.5c1.4,0.2,2.9,0.1,4-0.8
					c0.6-0.5,1-1.3,1.3-2.1c0.8-2.8,0.1-6-1.9-8.1c-1.1-1.1-2.5-2-3.5-3.2c-1.8-2.2-3.7-8-1.1-10.2"/>
				<path class="st18" d="M475.8,184c1.3-0.1,2.8-0.7,3.3-2.1c0.2-0.7,0.2-1.4,0.4-2.1c0.5-1.8,2.2-2.7,3.8-2.9
					c1.6-0.2,3.2,0,4.8-0.4c1.6-0.4,3.1-1.8,3.2-3.6c0-1.8-1.4-3.2-2.8-4c-2.2-1.1-4.6-1.4-7-0.8c-2.4,0.6-4.6,2.1-6.9,3.1
					c-2.5,1.1-5.9,1.6-8-0.9c-0.9-1-1.1-1.8-2.4-2.5c-1.6-0.8-3.3-1.2-5-1.2c-0.9,0-1.7,0.1-2.5,0.6c-1.3,0.8-1.9,2.8-1.4,4.3
					c0.5,1.6,1.8,2.5,3,3.3c2.9,2,6.5,3.7,9,6.4C469.5,183.5,472.7,184.3,475.8,184z"/>
				<path class="st18" d="M499.8,198c-0.4-1.3-0.4-2.8,0.6-3.6c0.5-0.4,1.2-0.5,1.9-0.6c1.3-0.1,2.7-0.1,4,0.1
					c1.6,0.2,3.4,0.6,4.7-0.4c2.5-1.9,0.5-6.6,3-8.5c0.8-0.6,1.8-0.7,2.8-0.8c1.4-0.1,2.9-0.1,4,0.7c2.3,1.6,2.7,5.4,1.8,7.8
					c-1.2,3.1-3.4,5.7-6.1,7.6c-2.6,1.9-7.1,4.2-10.4,3.9C503.2,203.9,500.5,200.4,499.8,198z"/>
				<path class="st18" d="M447.3,198.7c-0.5-2.3,0.1-3,1.3-4.5c1.2-1.5,0.8-3.2,1.8-4.7c0.4-0.5,1-0.9,1.6-1.2
					c2.1-0.9,4.5-0.7,6.7,0c2.1,0.8,4,2.1,5.8,3.6c1.5,1.3,3,3,4.7,4c2.2,1.3,4.9,1.7,7.4,2.1c3.3,0.6,6.8,1.5,8.7,4.3
					c1.2,1.9,1.4,4.4,0.5,6.4c-1.4,3.1-5.3,4.1-8.4,4.5c-9.2,1.1-18.7-2-25.6-8.1C449.7,203.4,447.9,201.2,447.3,198.7z"/>
				<path class="st19" d="M498.8,202.2c-0.4-1.3-0.4-2.8,0.6-3.6c0.5-0.4,1.2-0.5,1.9-0.6c1.3-0.1,2.7-0.1,4,0.1
					c1.6,0.2,3.4,0.6,4.7-0.4c2.5-1.9,0.5-6.6,3-8.5c0.8-0.6,1.8-0.7,2.8-0.8c1.4-0.1,2.9-0.1,4,0.7c2.3,1.6,2.7,5.4,1.8,7.8
					c-1.2,3.1-3.4,5.7-6.1,7.6c-2.6,1.9-7.1,4.2-10.4,3.9C502.3,208.1,499.6,204.6,498.8,202.2z"/>
				<path class="st19" d="M478.3,187c1.5-0.2,3.1-0.8,3.7-2.4c0.3-0.8,0.3-1.6,0.5-2.4c0.5-2,2.5-3.1,4.3-3.3c1.8-0.3,3.6,0,5.4-0.5
					c1.8-0.5,3.5-2,3.6-4.1c0-2.1-1.6-3.6-3.2-4.5c-2.4-1.3-5.2-1.6-7.8-0.9c-2.7,0.7-5.1,2.4-7.7,3.5c-2.8,1.2-6.7,1.8-9-1
					c-1-1.2-1.3-2.1-2.7-2.8c-1.8-0.9-3.7-1.3-5.7-1.4c-1,0-2,0.1-2.8,0.6c-1.4,0.9-2.2,3.1-1.6,4.9c0.5,1.7,2,2.8,3.4,3.8
					c3.3,2.2,7.3,4.2,10.1,7.2C471.3,186.4,474.8,187.4,478.3,187z"/>
				<path class="st19" d="M511.2,127.9c-3.7,0.4-7.4,1.1-10.9,2.1c-1.6,0.5-3.3,1.1-4.5,2.3c-1.4,1.3-2,3.3-2.3,5.1
					c-0.5,2.8-0.3,6,1.3,8.4c1.6,2.4,4.9,3.8,7.5,2.6c2-1,3.1-3.1,4.4-4.9c1.1-1.5,3.1-3.7,5.2-3c1.7,0.5,3.6,2.8,5,3.9
					c1.5,1.1,3.2,2,5.1,2.2c1.9,0.2,3.9-0.4,5.1-1.8c1.2-1.4,1.5-3.5,1.1-5.4c-0.4-1.8-1.4-3.5-2.5-5"/>
				<path class="st19" d="M460,133.4c0.7,1.5,1.7,3.1,2.3,4.7c0.4,1.2,0.5,2.3,1,3.5c1,2.3,2.7,4.5,5.2,5.2c1.2,0.3,2.5,0.3,3.8,0.5
					c1.3,0.2,2.6,0.8,3.2,1.9c1.1,2.2-1.1,5,0.1,7.1c0.6,1.1,1.9,1.5,3.1,1.8c1.4,0.3,2.9,0.4,4-0.5c0.7-0.5,1.1-1.2,1.4-2
					c1.1-2.7,0.6-5.9-1.2-8.2c-1-1.2-2.3-2.2-3.2-3.5c-1.6-2.3-2.9-8.3-0.2-10.3"/>
				<path class="st19" d="M442.8,146c3.1-0.1,6.2,0.2,9.2,1.1c1.6,0.5,3.2,1.2,4.1,2.6c0.7,1.3,0.7,2.8,0.8,4.3
					c0.1,2.1,0.6,4.3-0.4,6.2c-1.4,2.6-4.3,3.1-6.9,3.3c-1,0.1-2.1,0.1-2.9-0.5c-0.6-0.4-0.9-0.9-1.3-1.5c-2.4-3.7-4.9-7.5-5.2-11.9
					"/>
				<path class="st19" d="M451,201.6c-0.8-2.2-0.3-3,0.8-4.6c1-1.6,0.4-3.3,1.2-4.9c0.3-0.6,0.8-1,1.4-1.3c2-1.1,4.4-1.3,6.6-0.8
					c2.2,0.5,4.3,1.6,6.1,2.9c1.6,1.1,3.4,2.6,5.1,3.4c2.3,1.1,5.1,1.1,7.6,1.2c3.3,0.2,7,0.7,9.1,3.3c1.4,1.7,1.9,4.2,1.3,6.3
					c-1,3.2-4.8,4.7-7.8,5.5c-9,2.2-18.8,0.3-26.4-5.1C453.9,206,451.9,204.1,451,201.6z"/>
				
					<rect x="499.3" y="183.6" transform="matrix(0.8449 0.535 -0.535 0.8449 176.5075 -239.0799)" class="st20" width="2.3" height="2.3"/>
				
					<rect x="502" y="165.5" transform="matrix(0.9039 -0.4278 0.4278 0.9039 -22.9302 231.2756)" class="st20" width="2.3" height="2.3"/>
				
					<rect x="481.7" y="190.8" transform="matrix(0.2116 0.9774 -0.9774 0.2116 568.2852 -320.6497)" class="st20" width="2.3" height="2.3"/>
				
					<rect x="489.4" y="143.7" transform="matrix(0.2116 0.9774 -0.9774 0.2116 528.3016 -365.2098)" class="st20" width="2.3" height="2.3"/>
				
					<rect x="519.5" y="148.8" transform="matrix(0.2116 0.9774 -0.9774 0.2116 556.9918 -390.6669)" class="st20" width="2.3" height="2.3"/>
				
					<rect x="455.4" y="139.8" transform="matrix(0.2116 0.9774 -0.9774 0.2116 497.7516 -335.0636)" class="st20" width="2.3" height="2.3"/>
				
					<rect x="467.4" y="161.1" transform="matrix(-0.535 0.8449 -0.8449 -0.535 856.2877 -146.7247)" class="st20" width="2.3" height="2.3"/>
			</g>
			<path class="st16" d="M458.9,157c0,0,5.5,0.2,6.7,1.1"/>
			<path class="st16" d="M510,159.3c-0.8-4-1.1-9.9-0.7-14"/>
			<path class="st16" d="M493.3,138.9c0.7-0.8,1.1-1.7,1.3-2.5"/>
			<path class="st16" d="M477.3,140.6c0,0,4.6,2.1,9.7,1.4c2-0.3,3.6-0.8,4.7-1.6"/>
			<line class="st16" x1="451.8" y1="135.6" x2="452.2" y2="156.8"/>
			<g>
				<g>
					<path class="st21" d="M491.6,120.5c1.2-1.2,2.7-1.3,3.6,0.4c0.3,0.7,0.5,1.5,0.3,2.3c-0.2,0.8-0.7,1.5-1.4,1.8
						s-1.6,0.3-2.2-0.2"/>
				</g>
				<g>
					<path class="st10" d="M490.6,113.1c-2.4-1.5-5.1-2.2-7.9-2.1c-1.4,0-2.8,0.3-3.9,1c-1.6,1-2.6,2.6-3.1,4.4
						c-0.5,1.8-0.5,3.6-0.4,5.5c0.1,1.5,0.2,3,1,4.3c1,1.7,2.8,2.5,4.2,3.7c1.1,1,2.5,1.4,4,1.6c2.7,0.3,6.4-0.1,8-2.6
						c1.4-2.1,1.9-4.2,1.6-6.7c-0.3-2.6-1.2-5.7-1.2-5.7"/>
				</g>
				<path class="st10" d="M475.7,126.1l-0.1,10.2c0,0,1.7,3.5,9.2,3.6c5.7,0.1,7.6-4.1,7.6-4.1l-1.6-8.5"/>
				<g>
					<path class="st22" d="M476.1,113.8c2.2-2.8,5.9-4.5,9.4-4.2c3.6,0.3,6.6,1.2,8.3,4.3c0.6,1.2,3.6,12.6,3.4,14
						c0.4,3-23.5,5.4-24.9,2.1C471.8,128.7,469.5,116.6,476.1,113.8"/>
				</g>
				<g>
					<path class="st23" d="M481.4,106.3c0,0.9-0.7,1.6-1.6,1.6c-0.9,0-1.6-0.7-1.6-1.6c0-0.9,0.7-1.6,1.6-1.6
						C480.7,104.7,481.4,105.4,481.4,106.3z"/>
					<path class="st14" d="M471.7,118.1c0,0-0.6-4.8,2.4-8.3c4.3-5,12.6-5.6,17.4-0.9c0.4,0.4,0.8,0.9,1.2,1.4
						c0.9,1.2,1.2,1.8,1.5,3.3"/>
					<path class="st24" d="M482.9,115.9c-2-7.8-3.1-9.5-3.1-9.5c-6.1,2.1-3.9,10.8-4,10.8"/>
					<path class="st24" d="M479.8,106.5c3.4-0.8,9-0.5,11.4,7.8"/>
					<line class="st25" x1="471.7" y1="118.1" x2="499.6" y2="112.6"/>
				</g>
			</g>
		</g>
	</g>
</g>
<g>
	<g>
		<path class="st26" d="M669-62.4h-11.1v8.3h13v3.7h-17.7v-27h17.5v3.8h-12.8v7.5H669V-62.4z"/>
		<path class="st26" d="M678.1-70.5l0.1,2.3c1.5-1.8,3.4-2.7,5.8-2.7c4.2,0,6.3,2.4,6.4,7.2v13.3h-4.5v-13c0-1.3-0.3-2.2-0.8-2.8
			c-0.6-0.6-1.5-0.9-2.7-0.9c-1.8,0-3.2,0.8-4.1,2.5v14.3h-4.5v-20.1H678.1z"/>
		<path class="st26" d="M702.9-53.6c1.1,0,2.1-0.3,2.8-1c0.7-0.7,1.1-1.5,1.2-2.4h4.2c0,1.3-0.4,2.4-1.2,3.5c-0.7,1.1-1.7,1.9-3,2.6
			c-1.3,0.6-2.6,0.9-4,0.9c-2.8,0-5-0.9-6.7-2.7c-1.6-1.8-2.5-4.3-2.5-7.5v-0.5c0-3.1,0.8-5.5,2.4-7.3c1.6-1.8,3.9-2.8,6.7-2.8
			c2.4,0,4.3,0.7,5.8,2.1c1.5,1.4,2.3,3.2,2.4,5.5h-4.2c0-1.2-0.4-2.1-1.2-2.8c-0.7-0.7-1.7-1.1-2.8-1.1c-1.5,0-2.6,0.5-3.4,1.6
			c-0.8,1.1-1.2,2.7-1.2,4.8v0.7c0,2.2,0.4,3.8,1.2,4.9C700.3-54.1,701.4-53.6,702.9-53.6z"/>
		<path class="st26" d="M726.3-52.3c-1.3,1.6-3.2,2.3-5.6,2.3c-2.2,0-3.8-0.6-4.9-1.9c-1.1-1.3-1.7-3.1-1.7-5.5v-13h4.5v13
			c0,2.5,1.1,3.8,3.2,3.8c2.2,0,3.7-0.8,4.4-2.4v-14.4h4.5v20.1h-4.2L726.3-52.3z"/>
		<path class="st26" d="M743.7-50c-2.9,0-5.2-0.9-6.9-2.7c-1.8-1.8-2.7-4.2-2.7-7.2v-0.6c0-2,0.4-3.8,1.2-5.4
			c0.8-1.6,1.9-2.8,3.3-3.7c1.4-0.9,3-1.3,4.7-1.3c2.7,0,4.8,0.9,6.3,2.6c1.5,1.7,2.2,4.2,2.2,7.4v1.8h-13.1c0.1,1.7,0.7,3,1.7,3.9
			c1,1,2.2,1.4,3.7,1.4c2.1,0,3.7-0.8,5-2.5l2.4,2.3c-0.8,1.2-1.9,2.1-3.2,2.8C746.9-50.3,745.4-50,743.7-50z M743.2-67.2
			c-1.2,0-2.2,0.4-3,1.3c-0.8,0.9-1.2,2.1-1.5,3.6h8.6v-0.3c-0.1-1.5-0.5-2.7-1.2-3.4C745.4-66.8,744.5-67.2,743.2-67.2z"/>
		<path class="st26" d="M766.2-55.8c0-0.8-0.3-1.4-1-1.8c-0.7-0.4-1.8-0.8-3.3-1.1c-1.5-0.3-2.8-0.7-3.8-1.2
			c-2.3-1.1-3.4-2.7-3.4-4.7c0-1.7,0.7-3.2,2.2-4.3c1.5-1.2,3.3-1.7,5.6-1.7c2.4,0,4.3,0.6,5.8,1.8c1.5,1.2,2.2,2.7,2.2,4.6h-4.5
			c0-0.9-0.3-1.6-1-2.2c-0.6-0.6-1.5-0.9-2.6-0.9c-1,0-1.8,0.2-2.4,0.7c-0.6,0.5-0.9,1.1-0.9,1.8c0,0.7,0.3,1.2,0.9,1.6
			c0.6,0.4,1.8,0.8,3.5,1.2c1.8,0.4,3.2,0.9,4.2,1.4c1,0.5,1.8,1.2,2.2,1.9c0.5,0.8,0.7,1.7,0.7,2.7c0,1.8-0.7,3.3-2.2,4.4
			c-1.5,1.1-3.5,1.7-5.9,1.7c-1.6,0-3.1-0.3-4.4-0.9c-1.3-0.6-2.3-1.4-3-2.4c-0.7-1-1.1-2.2-1.1-3.4h4.4c0.1,1.1,0.5,1.9,1.2,2.5
			c0.7,0.6,1.7,0.9,3,0.9c1.2,0,2.1-0.2,2.7-0.7C765.9-54.5,766.2-55.1,766.2-55.8z"/>
		<path class="st26" d="M779.8-75.3v4.9h3.5v3.3h-3.5v11.2c0,0.8,0.2,1.3,0.5,1.7c0.3,0.3,0.8,0.5,1.6,0.5c0.5,0,1-0.1,1.6-0.2v3.5
			c-1,0.3-2,0.4-3,0.4c-3.5,0-5.2-1.9-5.2-5.7v-11.4H772v-3.3h3.3v-4.9H779.8z"/>
		<path class="st26" d="M798.4-50.4c-0.2-0.4-0.4-1-0.5-1.9c-1.4,1.5-3.2,2.2-5.3,2.2c-2,0-3.7-0.6-4.9-1.7
			c-1.3-1.2-1.9-2.6-1.9-4.3c0-2.1,0.8-3.8,2.4-4.9c1.6-1.1,3.9-1.7,6.8-1.7h2.8V-64c0-1-0.3-1.9-0.9-2.5c-0.6-0.6-1.5-0.9-2.7-0.9
			c-1,0-1.9,0.3-2.5,0.8c-0.7,0.5-1,1.2-1,2h-4.5c0-1.1,0.4-2.1,1.1-3.1c0.7-1,1.7-1.7,3-2.3c1.3-0.5,2.7-0.8,4.2-0.8
			c2.3,0,4.2,0.6,5.6,1.8c1.4,1.2,2.1,2.8,2.2,5v9.1c0,1.8,0.3,3.2,0.8,4.3v0.3H798.4z M793.4-53.6c0.9,0,1.7-0.2,2.5-0.6
			c0.8-0.4,1.4-1,1.8-1.7v-3.8h-2.4c-1.7,0-2.9,0.3-3.8,0.9c-0.8,0.6-1.3,1.4-1.3,2.5c0,0.9,0.3,1.6,0.9,2.1
			C791.7-53.9,792.5-53.6,793.4-53.6z"/>
		<path class="st26" d="M821.1-50.4h-4.7v-27h4.7V-50.4z"/>
		<path class="st26" d="M830.2-70.5l0.1,2.3c1.5-1.8,3.4-2.7,5.8-2.7c4.2,0,6.3,2.4,6.4,7.2v13.3H838v-13c0-1.3-0.3-2.2-0.8-2.8
			c-0.6-0.6-1.5-0.9-2.7-0.9c-1.8,0-3.2,0.8-4.1,2.5v14.3h-4.5v-20.1H830.2z"/>
		<path class="st26" d="M846.8-75.7c0-0.7,0.2-1.3,0.7-1.7c0.4-0.5,1.1-0.7,1.9-0.7s1.4,0.2,1.9,0.7c0.4,0.5,0.7,1,0.7,1.7
			c0,0.7-0.2,1.2-0.7,1.7c-0.4,0.5-1.1,0.7-1.9,0.7s-1.4-0.2-1.9-0.7C847-74.4,846.8-75,846.8-75.7z M851.6-50.4h-4.5v-20.1h4.5
			V-50.4z"/>
		<path class="st26" d="M864.3-53.6c1.1,0,2.1-0.3,2.8-1c0.7-0.7,1.1-1.5,1.2-2.4h4.2c0,1.3-0.4,2.4-1.2,3.5c-0.7,1.1-1.7,1.9-3,2.6
			c-1.3,0.6-2.6,0.9-4,0.9c-2.8,0-5-0.9-6.7-2.7c-1.6-1.8-2.5-4.3-2.5-7.5v-0.5c0-3.1,0.8-5.5,2.4-7.3c1.6-1.8,3.9-2.8,6.7-2.8
			c2.4,0,4.3,0.7,5.8,2.1c1.5,1.4,2.3,3.2,2.4,5.5h-4.2c0-1.2-0.4-2.1-1.2-2.8c-0.7-0.7-1.7-1.1-2.8-1.1c-1.5,0-2.6,0.5-3.4,1.6
			c-0.8,1.1-1.2,2.7-1.2,4.8v0.7c0,2.2,0.4,3.8,1.2,4.9C861.7-54.1,862.9-53.6,864.3-53.6z"/>
		<path class="st26" d="M875.6-75.7c0-0.7,0.2-1.3,0.7-1.7c0.4-0.5,1.1-0.7,1.9-0.7s1.4,0.2,1.9,0.7c0.4,0.5,0.7,1,0.7,1.7
			c0,0.7-0.2,1.2-0.7,1.7c-0.4,0.5-1.1,0.7-1.9,0.7s-1.4-0.2-1.9-0.7C875.8-74.4,875.6-75,875.6-75.7z M880.4-50.4h-4.5v-20.1h4.5
			V-50.4z"/>
		<path class="st26" d="M896.9-50.4c-0.2-0.4-0.4-1-0.5-1.9c-1.4,1.5-3.2,2.2-5.3,2.2c-2,0-3.7-0.6-4.9-1.7
			c-1.3-1.2-1.9-2.6-1.9-4.3c0-2.1,0.8-3.8,2.4-4.9c1.6-1.1,3.9-1.7,6.8-1.7h2.8V-64c0-1-0.3-1.9-0.9-2.5c-0.6-0.6-1.5-0.9-2.7-0.9
			c-1,0-1.9,0.3-2.5,0.8c-0.7,0.5-1,1.2-1,2h-4.5c0-1.1,0.4-2.1,1.1-3.1c0.7-1,1.7-1.7,3-2.3c1.3-0.5,2.7-0.8,4.2-0.8
			c2.3,0,4.2,0.6,5.6,1.8c1.4,1.2,2.1,2.8,2.2,5v9.1c0,1.8,0.3,3.2,0.8,4.3v0.3H896.9z M892-53.6c0.9,0,1.7-0.2,2.5-0.6
			c0.8-0.4,1.4-1,1.8-1.7v-3.8h-2.4c-1.7,0-2.9,0.3-3.8,0.9c-0.8,0.6-1.3,1.4-1.3,2.5c0,0.9,0.3,1.6,0.9,2.1
			C890.2-53.9,891-53.6,892-53.6z"/>
		<path class="st26" d="M909.9-50.4h-4.5v-28.5h4.5V-50.4z"/>
	</g>
</g>
<g>
	<g>
		<path class="st26" d="M304-153.4h-11.1v8.3h13v3.7h-17.7v-27h17.5v3.8h-12.8v7.5H304V-153.4z"/>
		<path class="st26" d="M313.1-161.5l0.1,2.3c1.5-1.8,3.4-2.7,5.8-2.7c4.2,0,6.3,2.4,6.4,7.2v13.3h-4.5v-13c0-1.3-0.3-2.2-0.8-2.8
			c-0.6-0.6-1.5-0.9-2.7-0.9c-1.8,0-3.2,0.8-4.1,2.5v14.3h-4.5v-20.1H313.1z"/>
		<path class="st26" d="M337.9-144.6c1.1,0,2.1-0.3,2.8-1c0.7-0.7,1.1-1.5,1.2-2.4h4.2c0,1.3-0.4,2.4-1.2,3.5
			c-0.7,1.1-1.7,1.9-3,2.6c-1.3,0.6-2.6,0.9-4,0.9c-2.8,0-5-0.9-6.7-2.7c-1.6-1.8-2.5-4.3-2.5-7.5v-0.5c0-3.1,0.8-5.5,2.4-7.3
			c1.6-1.8,3.9-2.8,6.7-2.8c2.4,0,4.3,0.7,5.8,2.1c1.5,1.4,2.3,3.2,2.4,5.5h-4.2c0-1.2-0.4-2.1-1.2-2.8c-0.7-0.7-1.7-1.1-2.8-1.1
			c-1.5,0-2.6,0.5-3.4,1.6c-0.8,1.1-1.2,2.7-1.2,4.8v0.7c0,2.2,0.4,3.8,1.2,4.9C335.3-145.1,336.4-144.6,337.9-144.6z"/>
		<path class="st26" d="M361.3-143.3c-1.3,1.6-3.2,2.3-5.6,2.3c-2.2,0-3.8-0.6-4.9-1.9c-1.1-1.3-1.7-3.1-1.7-5.5v-13h4.5v13
			c0,2.5,1.1,3.8,3.2,3.8c2.2,0,3.7-0.8,4.4-2.4v-14.4h4.5v20.1h-4.2L361.3-143.3z"/>
		<path class="st26" d="M378.7-141c-2.9,0-5.2-0.9-6.9-2.7c-1.8-1.8-2.7-4.2-2.7-7.2v-0.6c0-2,0.4-3.8,1.2-5.4
			c0.8-1.6,1.9-2.8,3.3-3.7c1.4-0.9,3-1.3,4.7-1.3c2.7,0,4.8,0.9,6.3,2.6c1.5,1.7,2.2,4.2,2.2,7.4v1.8h-13.1c0.1,1.7,0.7,3,1.7,3.9
			c1,1,2.2,1.4,3.7,1.4c2.1,0,3.7-0.8,5-2.5l2.4,2.3c-0.8,1.2-1.9,2.1-3.2,2.8C381.9-141.3,380.4-141,378.7-141z M378.2-158.2
			c-1.2,0-2.2,0.4-3,1.3c-0.8,0.9-1.2,2.1-1.5,3.6h8.6v-0.3c-0.1-1.5-0.5-2.7-1.2-3.4C380.4-157.8,379.5-158.2,378.2-158.2z"/>
		<path class="st26" d="M401.2-146.8c0-0.8-0.3-1.4-1-1.8c-0.7-0.4-1.8-0.8-3.3-1.1c-1.5-0.3-2.8-0.7-3.8-1.2
			c-2.3-1.1-3.4-2.7-3.4-4.7c0-1.7,0.7-3.2,2.2-4.3c1.5-1.2,3.3-1.7,5.6-1.7c2.4,0,4.3,0.6,5.8,1.8c1.5,1.2,2.2,2.7,2.2,4.6h-4.5
			c0-0.9-0.3-1.6-1-2.2c-0.6-0.6-1.5-0.9-2.6-0.9c-1,0-1.8,0.2-2.4,0.7c-0.6,0.5-0.9,1.1-0.9,1.8c0,0.7,0.3,1.2,0.9,1.6
			c0.6,0.4,1.8,0.8,3.5,1.2c1.8,0.4,3.2,0.9,4.2,1.4c1,0.5,1.8,1.2,2.2,1.9c0.5,0.8,0.7,1.7,0.7,2.7c0,1.8-0.7,3.3-2.2,4.4
			c-1.5,1.1-3.5,1.7-5.9,1.7c-1.6,0-3.1-0.3-4.4-0.9c-1.3-0.6-2.3-1.4-3-2.4c-0.7-1-1.1-2.2-1.1-3.4h4.4c0.1,1.1,0.5,1.9,1.2,2.5
			c0.7,0.6,1.7,0.9,3,0.9c1.2,0,2.1-0.2,2.7-0.7C400.9-145.5,401.2-146.1,401.2-146.8z"/>
		<path class="st26" d="M414.8-166.3v4.9h3.5v3.3h-3.5v11.2c0,0.8,0.2,1.3,0.5,1.7c0.3,0.3,0.8,0.5,1.6,0.5c0.5,0,1-0.1,1.6-0.2v3.5
			c-1,0.3-2,0.4-3,0.4c-3.5,0-5.2-1.9-5.2-5.7v-11.4H407v-3.3h3.3v-4.9H414.8z"/>
		<path class="st26" d="M433.4-141.4c-0.2-0.4-0.4-1-0.5-1.9c-1.4,1.5-3.2,2.2-5.3,2.2c-2,0-3.7-0.6-4.9-1.7
			c-1.3-1.2-1.9-2.6-1.9-4.3c0-2.1,0.8-3.8,2.4-4.9c1.6-1.1,3.9-1.7,6.8-1.7h2.8v-1.3c0-1-0.3-1.9-0.9-2.5c-0.6-0.6-1.5-0.9-2.7-0.9
			c-1,0-1.9,0.3-2.5,0.8c-0.7,0.5-1,1.2-1,2h-4.5c0-1.1,0.4-2.1,1.1-3.1c0.7-1,1.7-1.7,3-2.3c1.3-0.5,2.7-0.8,4.2-0.8
			c2.3,0,4.2,0.6,5.6,1.8c1.4,1.2,2.1,2.8,2.2,5v9.1c0,1.8,0.3,3.2,0.8,4.3v0.3H433.4z M428.4-144.6c0.9,0,1.7-0.2,2.5-0.6
			c0.8-0.4,1.4-1,1.8-1.7v-3.8h-2.4c-1.7,0-2.9,0.3-3.8,0.9c-0.8,0.6-1.3,1.4-1.3,2.5c0,0.9,0.3,1.6,0.9,2.1
			C426.7-144.9,427.5-144.6,428.4-144.6z"/>
		<path class="st26" d="M456.1-141.4h-4.7v-27h4.7V-141.4z"/>
		<path class="st26" d="M465.2-161.5l0.1,2.3c1.5-1.8,3.4-2.7,5.8-2.7c4.2,0,6.3,2.4,6.4,7.2v13.3H473v-13c0-1.3-0.3-2.2-0.8-2.8
			c-0.6-0.6-1.5-0.9-2.7-0.9c-1.8,0-3.2,0.8-4.1,2.5v14.3h-4.5v-20.1H465.2z"/>
		<path class="st26" d="M481.8-166.7c0-0.7,0.2-1.3,0.7-1.7c0.4-0.5,1.1-0.7,1.9-0.7s1.4,0.2,1.9,0.7c0.4,0.5,0.7,1,0.7,1.7
			c0,0.7-0.2,1.2-0.7,1.7c-0.4,0.5-1.1,0.7-1.9,0.7s-1.4-0.2-1.9-0.7C482-165.4,481.8-166,481.8-166.7z M486.6-141.4h-4.5v-20.1h4.5
			V-141.4z"/>
		<path class="st26" d="M499.3-144.6c1.1,0,2.1-0.3,2.8-1c0.7-0.7,1.1-1.5,1.2-2.4h4.2c0,1.3-0.4,2.4-1.2,3.5
			c-0.7,1.1-1.7,1.9-3,2.6c-1.3,0.6-2.6,0.9-4,0.9c-2.8,0-5-0.9-6.7-2.7c-1.6-1.8-2.5-4.3-2.5-7.5v-0.5c0-3.1,0.8-5.5,2.4-7.3
			c1.6-1.8,3.9-2.8,6.7-2.8c2.4,0,4.3,0.7,5.8,2.1c1.5,1.4,2.3,3.2,2.4,5.5h-4.2c0-1.2-0.4-2.1-1.2-2.8c-0.7-0.7-1.7-1.1-2.8-1.1
			c-1.5,0-2.6,0.5-3.4,1.6c-0.8,1.1-1.2,2.7-1.2,4.8v0.7c0,2.2,0.4,3.8,1.2,4.9C496.7-145.1,497.9-144.6,499.3-144.6z"/>
		<path class="st26" d="M510.6-166.7c0-0.7,0.2-1.3,0.7-1.7c0.4-0.5,1.1-0.7,1.9-0.7s1.4,0.2,1.9,0.7c0.4,0.5,0.7,1,0.7,1.7
			c0,0.7-0.2,1.2-0.7,1.7c-0.4,0.5-1.1,0.7-1.9,0.7s-1.4-0.2-1.9-0.7C510.8-165.4,510.6-166,510.6-166.7z M515.4-141.4h-4.5v-20.1
			h4.5V-141.4z"/>
		<path class="st26" d="M531.9-141.4c-0.2-0.4-0.4-1-0.5-1.9c-1.4,1.5-3.2,2.2-5.3,2.2c-2,0-3.7-0.6-4.9-1.7
			c-1.3-1.2-1.9-2.6-1.9-4.3c0-2.1,0.8-3.8,2.4-4.9c1.6-1.1,3.9-1.7,6.8-1.7h2.8v-1.3c0-1-0.3-1.9-0.9-2.5c-0.6-0.6-1.5-0.9-2.7-0.9
			c-1,0-1.9,0.3-2.5,0.8c-0.7,0.5-1,1.2-1,2h-4.5c0-1.1,0.4-2.1,1.1-3.1c0.7-1,1.7-1.7,3-2.3c1.3-0.5,2.7-0.8,4.2-0.8
			c2.3,0,4.2,0.6,5.6,1.8c1.4,1.2,2.1,2.8,2.2,5v9.1c0,1.8,0.3,3.2,0.8,4.3v0.3H531.9z M527-144.6c0.9,0,1.7-0.2,2.5-0.6
			c0.8-0.4,1.4-1,1.8-1.7v-3.8h-2.4c-1.7,0-2.9,0.3-3.8,0.9c-0.8,0.6-1.3,1.4-1.3,2.5c0,0.9,0.3,1.6,0.9,2.1
			C525.2-144.9,526-144.6,527-144.6z"/>
		<path class="st26" d="M544.9-141.4h-4.5v-28.5h4.5V-141.4z"/>
	</g>
</g>
</svg>
