<?xml version="1.0" encoding="utf-8"?>
<!-- Generator: Adobe Illustrator 23.1.1, SVG Export Plug-In . SVG Version: 6.00 Build 0)  -->
<svg version="1.1" id="Capa_1" xmlns="http://www.w3.org/2000/svg" xmlns:xlink="http://www.w3.org/1999/xlink" x="0px" y="0px"
	 viewBox="0 0 632.6 412.9" style="enable-background:new 0 0 632.6 412.9;" xml:space="preserve">
<style type="text/css">
	.st0{fill:#21329B;}
	.st1{fill:#19297C;}
	.st2{fill:#0E1663;}
	.st3{fill:#FFFFFF;}
	.st4{fill:#FF5A5A;}
	.st5{fill:#FFE6E3;}
	.st6{fill:#F7A59A;}
	.st7{fill:#F9C3BD;}
	.st8{fill:#142F4E;}
	.st9{fill:#CEEBF2;stroke:#0E1663;stroke-miterlimit:10;}
	.st10{fill:#B3E3EF;stroke:#0E1663;stroke-miterlimit:10;}
	.st11{fill:#FFFFFF;stroke:#0E1663;stroke-miterlimit:10;}
	.st12{fill:#833125;stroke:#0E1663;stroke-miterlimit:10;}
	.st13{fill:#F2D18F;}
	.st14{fill:#E8C079;}
	.st15{fill:#B7DFEA;}
	.st16{fill:#A2CCDA;}
	.st17{opacity:0.52;}
	.st18{fill:#F7958D;}
	.st19{fill:none;stroke:#000000;stroke-miterlimit:10;}
	.st20{fill:#FF5A5A;stroke:#0E1663;stroke-linecap:round;stroke-linejoin:round;stroke-miterlimit:10;}
	.st21{fill:#FFFFFF;stroke:#0E1663;stroke-linecap:round;stroke-linejoin:round;stroke-miterlimit:10;}
	.st22{fill:#2CA5FF;}
	.st23{fill:#231F20;}
	.st24{fill:#DDDDDD;}
	.st25{fill:none;stroke:#0E1663;stroke-miterlimit:10;}
	.st26{font-family:'Roboto-Medium';}
	.st27{font-size:36px;}
</style>
<g>
	<rect x="264.9" y="190.7" class="st0" width="60.7" height="26.4"/>
	<polygon class="st1" points="264.9,202.3 264.9,190.7 325.6,194.9 	"/>
	<path class="st2" d="M403,36.1H187.5c-4.7,0-8.7,3.9-8.7,8.7v141.5c0,4.7,3.9,8.7,8.7,8.7H403c4.7,0,8.7-3.9,8.7-8.7V44.8
		C411.6,40,407.7,36.1,403,36.1z"/>
	<g>
		<g>
			<rect id="SVGID_21_" x="188.4" y="44.6" class="st3" width="213.9" height="141.8"/>
		</g>
	</g>
	<path class="st2" d="M347.8,217.1H242.5l0,0c0-4.5,3.7-8.3,8.3-8.3h88.7C344.2,208.8,347.8,212.5,347.8,217.1L347.8,217.1z"/>
</g>
<g>
	<path class="st2" d="M476.7,23.9H369.6c-3.6,0-6.5,2.9-6.5,6.5v105.9c0,3.6,2.9,6.5,6.5,6.5h107.1c3.6,0,6.5-2.9,6.5-6.5v-106
		C483.1,26.8,480.2,23.9,476.7,23.9z"/>
	<rect x="370.2" y="30.3" class="st4" width="105.9" height="106.1"/>
</g>
<g>
	<g>
		<path class="st5" d="M135.5,94.7h32.1l-3.6-3.8v-16c0-3.4-2.8-6.2-6.2-6.2h-22.3c-3.4,0-6.2,2.8-6.2,6.2v13.7
			C129.4,92,132.1,94.7,135.5,94.7z"/>
		<g>
			<path class="st6" d="M151.3,82.8c0,1.1,0.9,2,2,2s2-0.9,2-2s-0.9-2-2-2S151.3,81.7,151.3,82.8z"/>
			<path class="st6" d="M144.2,82.8c0,1.1,0.9,2,2,2s2-0.9,2-2s-0.9-2-2-2C145.1,80.8,144.2,81.7,144.2,82.8z"/>
			<path class="st6" d="M137.2,82.8c0,1.1,0.9,2,2,2s2-0.9,2-2s-0.9-2-2-2C138.1,80.8,137.2,81.7,137.2,82.8z"/>
		</g>
	</g>
	<g>
		<path class="st7" d="M518.2,127.9h-26.9l3,3.2v13.4c0,2.9,2.3,5.2,5.2,5.2h18.7c2.9,0,5.2-2.3,5.2-5.2V133
			C523.4,130.2,521.1,127.9,518.2,127.9z"/>
		<g>
			<path class="st3" d="M505,137.9c0-0.9-0.7-1.6-1.6-1.6s-1.6,0.7-1.6,1.6s0.7,1.6,1.6,1.6S505,138.8,505,137.9z"/>
			<path class="st3" d="M510.9,137.9c0-0.9-0.7-1.6-1.6-1.6s-1.6,0.7-1.6,1.6s0.7,1.6,1.6,1.6C510.2,139.5,510.9,138.8,510.9,137.9z
				"/>
			<path class="st3" d="M516.8,137.9c0-0.9-0.7-1.6-1.6-1.6s-1.6,0.7-1.6,1.6s0.7,1.6,1.6,1.6S516.8,138.8,516.8,137.9z"/>
		</g>
	</g>
</g>
<g>
	<g>
		<rect x="381" y="41.2" class="st8" width="84.3" height="84.3"/>
		<g>
			<path class="st3" d="M427.7,55.5c-0.9-0.1-1.8-0.2-2.7-0.2c-0.3,0-0.5,0-0.8,0h-1c-0.6,0-1.1,0-1.7,0s-1.2,0.1-1.8,0.1
				c-3.1,0.2-6.2,0.7-9.3,1.6c-0.1,0-0.2,0.1-0.3,0.1c0.1,0.1,0.2,0.1,0.3,0.2c0,0,0,0,0.1,0c0.2,0.1,0.2,0.2,0.4,0.2
				c0.3,0,0.5,0.1,0.7,0c0.5-0.1,0.5-0.2,0.9,0.1c0.2,0.1,0.2,0.2,0.2,0.4s0,0.3,0.2,0.4c0.2,0.1,0.3,0.2,0.4,0
				c0.2-0.4,0.7,0.1,0.7,0.3c0,0.4,0.1,0.2,0.2,0.3s0.1,0.6,0.4,0.7c0.1,0,0.3,0,0.3,0.2c0,0.1,0,0.1-0.1,0.2c0,0.1-0.1,0.2-0.2,0.3
				c-0.2,0.4-0.2,0.8,0,1.2c0.1,0.1,0.1,0.2,0.2,0.3c0.2,0.4,0.2,0.5,0.5,0.7c0.2,0.1,0.4,0.1,0.6,0.1s0.2,0,0.3-0.1
				c0.1-0.1,0.2-0.1,0.3,0c0.3,0.2,0.2,0,0.3-0.2c0.2-0.3,0.3,0,0.3-0.5c0-0.1,0.1-0.2,0.2-0.3c0.3,0,0.4-0.2,0.7-0.1
				c0.1,0,0.4,0,0.3,0.3c-0.2,0.2-0.2,0.2-0.2,0.4s0,0.3-0.2,0.5s-0.1,0.2-0.2,0.4c0,0.1-0.1,0.2-0.1,0.3s0,0.2,0.3,0.2
				c0.2,0,0.3,0,0.4,0c0.2,0,0.3,0,0.5,0s0.5,0,0.6,0.2c0.2,0.2,0.2,0.3,0.1,0.7c0,0.1,0,0.2,0,0.3c0,0.2-0.1,0.4-0.1,0.5
				s0,0.2,0,0.3c0.1,0.1,0.2,0.2,0.2,0.3c0.1,0.1,0.2,0.2,0.4,0.3c0.5,0.3,0.6,0,1-0.1c0.2,0,0.4,0,0.5,0c0.1,0.1,0.3,0.2,0.4,0.3
				c0.1,0.1,0.2,0.2,0.3-0.1c0-0.1,0.1-0.2,0.2-0.2s0.1,0,0.1-0.2c0,0,0,0,0-0.1l0,0l0,0c0.1-0.3,0.4-0.4,0.6-0.4h0.1
				c0.2,0,0.4-0.1,0.4-0.2c0.1-0.1,0.4-0.3,0.3,0.1c-0.1,0.1-0.1,0.1-0.1,0.2v0.1c0.1,0.2-0.1,0.2-0.1,0.3c0,0.1,0.1,0.1,0.1,0.1
				s0,0.1,0.1,0.2s0.2,0,0.2-0.1l0,0V66c0-0.1,0-0.1,0-0.2s0-0.2,0-0.2s0.1,0,0.1-0.1c0.3-0.2,0.5-0.3,0.7-0.1l0.1,0.1
				c0.3,0.2,0.1,0.3,0.5,0.3c0.3,0,0.4-0.1,0.6,0.1c0.2,0.1,0.6,0.2,0.7,0s0.4-0.2,0.5,0c0.1,0.1,0.2,0.2,0.3,0.2l0,0
				c0.1,0,0.1,0,0.2,0.1c0.1,0.2,0,0.1,0,0.3c0,0.1,0,0.1,0.2,0.1c0.3,0,0.7,0.1,0.8,0.5c0.1,0.2,0.2,0.1,0.4,0.2
				c0.2,0.2,0.1,0.2,0.5,0.3c0.1,0,0.1,0,0.2,0c0.3-0.1,0.4-0.1,0.6,0s0.2,0.2,0.4,0.2c0.3-0.1,0.4,0.2,0.5,0.3
				c0.2,0.2,0.4,0.2,0.4,0.6c0,0.3,0,0.2,0.2,0.4c0.2,0.3,0.3,0.3,0,0.6c-0.2,0.2-0.2,0.3,0.2,0.1c0.1-0.1,0.2,0,0.5,0.1
				c0.1,0.1,0.1,0.2,0,0.3c0,0.3-0.1,0.3,0.2,0.1c0.3-0.2,0.5-0.3,0.8,0c0.1,0.1,0.2,0.2,0.3,0.3c0.3,0.3,0.6,0.4,1.1,0.4
				c0.3,0,0.4,0.1,0.7,0.1c0.3,0,0.6,0.1,0.8,0.4c0.1,0.1,0.2,0.3,0.4,0.4c0.4,0.2,0.5,0,0.7,0.4c0.3,0.8-0.3,1.5-0.9,2.1
				c-0.2,0.3-0.2,0.4-0.3,0.6c-0.2,0.2-0.5,0-0.5,0.4c0,0.1-0.1,0.2-0.1,0.4c0,0.1,0,0.1,0,0.2c0,0.2,0.1,0.4-0.1,0.5
				c0,0.2,0,0.4-0.1,0.5c-0.2,0.4-0.4,0.6-0.4,0.8c-0.1,0.1-0.2,0.2-0.3,0.3c-0.2,0.1-0.1,0.3-0.2,0.5c0,0.1-0.1,0.1-0.2,0.1
				c-0.3,0.2-0.3,0.2-0.6,0.2c-0.7,0-1.6,0.4-2,1c-0.2,0.2-0.2,0.4-0.2,0.6c0,0.3-0.2,0.3-0.3,0.4c-0.3,0.3-0.3,0.7-0.6,0.6
				c-0.1,0-0.1,0.1-0.3,0.2c-0.1,0.1-0.2,0.2-0.2,0.3c0,0.1,0,0.2-0.2,0.3c-0.1,0.1-0.2,0.2-0.3,0.3c-0.2,0.5-0.6,0.4-1,0.3
				c-0.1,0-0.3-0.1-0.4-0.2c-0.3-0.1-0.3,0.1,0,0.2c0.1,0,0.1,0.1,0.1,0.1c0,0.2-0.2,0.2,0.1,0.4c0.1,0.2,0,0.3-0.2,0.4
				c-0.2,0.3-0.5,0.4-0.8,0.4c-0.2,0-0.4,0-0.6,0c-0.4,0-0.3-0.1-0.3,0.2c0,0.1,0,0.1-0.1,0.2c0,0.3-0.2,0.4-0.4,0.3
				c-0.4-0.2-0.3-0.2-0.4,0.1c0,0.1,0,0.2,0,0.2s0,0.2,0.1,0.2h0.1c0.2,0,0-0.1,0.2-0.1c0.1,0,0.1,0,0.1,0.1c0,0.2-0.1,0.1-0.2,0.1
				c-0.2,0-0.2,0-0.2,0.2s-0.1,0.2-0.2,0.3c0,0.1,0,0.1-0.1,0.2c-0.1,0.2-0.2,0.2-0.4,0.2c-0.1,0.1-0.2,0.1-0.3,0.2
				c-0.1,0.1-0.1,0.3,0,0.4l0.1,0.1l0.1,0.1c0.2,0,0.2-0.1,0.2,0.1s-0.1,0.2-0.3,0.3l-0.1,0.1c-0.1,0.1-0.1,0.1-0.2,0.2
				c0,0.1-0.1,0.2-0.2,0.3c-0.3,0.1-0.3,0.2-0.3,0.5c0.1,0.3,0,0.2-0.2,0.3c-0.1,0-0.1,0-0.2,0.1s-0.1,0.2-0.2,0.3
				c-0.2,0.2,0,0-0.4,0.1c-0.2,0-0.2-0.1-0.2-0.3c0-0.1,0-0.1-0.1-0.2c0,0,0,0,0-0.1c-0.1-0.3,0-0.2-0.2-0.4c-0.2-0.1,0-0.3-0.1-0.4
				c-0.1-0.2-0.1-0.1-0.1-0.3c0-0.1,0-0.1-0.1-0.2c0-0.1,0-0.2,0.1-0.2c0.2-0.1,0.1,0,0.2-0.2c0.1-0.4,0.1-0.1-0.2-0.3
				c-0.1,0,0-0.2,0.1-0.3c0.1-0.2,0.2-0.2,0.3-0.2c0,0,0,0,0.1,0s0.1-0.1,0.1-0.4c0-0.2,0.1-0.4,0.2-0.5s0.1-0.3,0-0.4
				c-0.1-0.2-0.4,0-0.3-0.4c0-0.3,0.1-0.3,0.2-0.5c0-0.1,0-0.2,0-0.4c-0.1-0.4-0.1-0.4,0.1-0.8c0.1-0.1,0.1-0.3,0.2-0.4
				c0-0.1,0-0.2,0.1-0.4c0.1-0.1,0.1-0.2,0.1-0.4c0-0.2,0.1-0.2,0.1-0.4c0-0.2,0-0.2-0.1-0.3c0-0.1,0-0.2,0-0.2
				c0.1-0.2,0.2-0.2,0.1-0.4c-0.1-0.2,0.1-0.3,0.1-0.5v-0.1c0.1-0.3,0.1-0.5,0.2-0.8c0-0.2,0.1-0.4,0-0.5c0-0.1,0-0.2,0-0.3
				c0.1-0.2,0.1-0.2,0.1-0.4c0-0.1,0-0.3,0-0.4c0.1-0.2,0-0.5,0-0.8s-0.1-0.4-0.3-0.6l-0.1-0.1c-0.3-0.2-0.5-0.4-0.8-0.5H423
				c-0.3-0.1-0.3,0-0.6-0.3c-0.1-0.1-0.2-0.2-0.3-0.3c-0.1-0.2,0.1-0.2,0-0.4c-0.1-0.1-0.2-0.2-0.2-0.3c-0.3-0.4-0.4-0.7-0.6-1.1
				c-0.3-0.5-0.5-1-0.9-1.3c-0.2,0-0.2-0.1-0.2-0.3c0-0.1-0.1-0.2-0.1-0.3c-0.2-0.3,0.3-0.4,0.5-0.5c0.1-0.1,0.1-0.2,0-0.3
				c-0.1,0-0.1,0-0.2,0c-0.3-0.1-0.2-0.5,0-0.6c0.1-0.1,0.2-0.3,0.2-0.4c0-0.3,0.1-0.3,0.2-0.3c0.3-0.1,0.2-0.1,0.3-0.3
				c0-0.2,0-0.2,0.2-0.3c0,0,0,0,0.1,0c0.4-0.4,0.4-0.6,0.3-1.1c0-0.3-0.1-0.4-0.2-0.6c-0.1-0.1-0.2-0.2-0.2-0.2s0,0,0-0.1
				c0-0.2,0-0.2-0.1-0.4c-0.2-0.1-0.4-0.1-0.5,0.1c0,0,0,0.1-0.1,0.2c-0.2,0.1-0.1,0-0.1,0.3c0,0.1,0,0.1,0,0.1
				c-0.2,0.2-0.2-0.1-0.3-0.2c-0.2-0.1-0.1,0.1-0.3-0.1c-0.1-0.1-0.1-0.1-0.3-0.1h-0.2c-0.1,0-0.1-0.1-0.2-0.2s0-0.2-0.2-0.3h-0.1
				c-0.2-0.2,0-0.2-0.3-0.1c-0.1,0-0.2-0.1-0.3-0.3c0.1-0.4,0-0.4-0.4-0.6c-0.1-0.1-0.2-0.3-0.3-0.4c-0.1-0.2-0.2-0.1-0.3-0.1
				c-0.1,0-0.4,0-0.5-0.2c-0.3-0.2-0.4-0.2-0.6-0.2c-0.3,0-0.5-0.3-0.6-0.5c-0.2-0.2-0.4-0.4-0.7-0.3c-0.2,0.1-0.3,0.3-0.6,0.2
				c-0.2,0-0.3-0.2-0.7-0.3c-0.3-0.1-0.5-0.2-0.7-0.3c-0.3-0.1-0.3-0.3-0.6-0.4c-0.6-0.1-0.3-0.1-0.5-0.4c-0.1,0-0.1-0.1-0.2-0.1
				c-0.2-0.1-0.4-0.3-0.2-0.5c0.2-0.2,0.2-0.3,0.1-0.5c-0.1-0.1-0.1-0.3-0.1-0.3c0-0.1-0.2-0.4-0.3-0.5c-0.2-0.2-0.3-0.4-0.4-0.6
				c-0.6-0.2,0.1-0.3-0.2-0.6c-0.2,0-0.2-0.1-0.2-0.2c-0.1-0.2,0-0.2-0.2-0.4c-0.1,0-0.1-0.1-0.2-0.2c-0.1-0.1-0.1-0.3-0.1-0.4
				c0-0.1,0-0.2,0-0.3c0-0.3,0-0.3-0.3-0.4c-0.1,0-0.1,0-0.2,0c0,0,0,0-0.1,0s-0.1,0.1-0.1,0.2c0,0.3,0,0.3,0.1,0.5
				c0.1,0.1,0.1,0.2,0.1,0.2c0.2,0.2,0.2,0.2,0.2,0.4s0,0.2,0.1,0.4c0.3,0.4,0.2,0.5,0.3,0.8c0,0.2,0,0.3-0.1,0.3s-0.2,0-0.4-0.1
				c-0.1-0.1,0-0.2,0-0.3c0.2-0.3-0.2-0.5-0.4-0.6c-0.2-0.2-0.4-0.3-0.1-0.6c0.2-0.2,0.1-0.3,0-0.5c-0.3-0.2-0.3-0.3-0.3-0.4
				c0-0.2,0-0.3,0-0.3c-1.6,0.5-3.2,1-4.7,1.6v27.2c2,0.8,4,1.4,6,2c3.1,0.8,6.2,1.3,9.3,1.6c0.6,0,1.2,0.1,1.8,0.1
				c0.6,0,1.1,0,1.7,0h0.5c0.1,0,0.2,0,0.3-0.1c0.4,0.1,0.1-0.3,0.3-0.4h0.1c0.2,0,0.2,0,0.2,0.1c0.1,0.2,0.2,0.3,0.3,0.4h0.2
				c0.9,0,1.8-0.1,2.7-0.2c4.8-0.4,9.6-1.6,14.3-3.4v-27C437.3,57.1,432.5,55.9,427.7,55.5 M419.8,61.1c-0.1,0-0.1,0-0.1,0.1
				l-0.1,0.1c-0.2,0.1-0.3-0.1,0-0.2c0.1,0,0.1-0.1,0.2-0.1C419.9,60.9,420.1,61.1,419.8,61.1 M422.5,62.1c-0.2,0-0.2,0-0.4,0
				c-0.3,0-0.3,0-0.3-0.2s-0.3-0.1-0.4-0.2c0,0,0,0,0-0.1l0,0c-0.1-0.2,0-0.1-0.4-0.1c-0.1,0-0.2,0-0.2-0.1
				c-0.1-0.1-0.2-0.2-0.4-0.2c-0.2,0-0.4-0.3-0.2-0.4c0.3,0,0.2,0.1,0.5,0.1c0.2,0,0.2,0,0.4,0.2c0.1,0.1,0.2,0.1,0.3,0.1h0.1
				c0.1,0,0.2,0.1,0.3,0.1c0.1,0,0.1,0.1,0.2,0.1c0.1,0.1,0.2,0.2,0.4,0.2c0.2,0,0.2,0,0.3,0.1C422.8,62,422.9,62.1,422.5,62.1
				 M423.3,62.8c0,0-0.1,0-0.2,0s-0.2,0-0.2-0.1c0-0.2,0-0.1,0.2-0.1l0,0C423.2,62.6,423.2,62.6,423.3,62.8
				C423.3,62.7,423.3,62.7,423.3,62.8C423.5,62.8,423.4,62.8,423.3,62.8 M424.5,62.7c-0.3,0-0.3,0-0.4,0.1c0,0,0,0.1-0.1,0.1
				c0,0.1,0,0-0.2,0s-0.3-0.2-0.3-0.2c0-0.1,0-0.1,0-0.2c-0.3-0.6-0.1-0.2,0.5-0.3h0.1c0.2,0,0.2-0.1,0.4,0.1l0.1,0.1
				C425.1,62.6,424.6,62.7,424.5,62.7 M425,62.7C425,62.7,424.9,62.7,425,62.7c-0.1-0.1,0-0.2,0-0.2S425.1,62.6,425,62.7
				C425.1,62.7,425,62.7,425,62.7 M423.1,85.6L423.1,85.6c0,0,0-0.1,0.1-0.1C423.2,85.4,423.3,85.4,423.1,85.6c0.1,0,0.1,0.3,0,0.3
				c-0.2,0-0.1,0-0.1-0.1C423.1,85.6,423,85.7,423.1,85.6 M410.4,60.5c-0.1,0-0.1,0-0.1,0l0,0c0-0.2-0.2-0.1-0.2-0.2
				c0-0.1,0.1-0.2,0.2-0.1C410.4,60.2,410.4,60.3,410.4,60.5C410.5,60.4,410.6,60.5,410.4,60.5 M428.1,87.3
				c-0.1,0.2-0.2,0.1-0.4,0.1h-0.1c-0.1,0-0.1,0.2-0.3,0.1c-0.1-0.1-0.2-0.2-0.1-0.3c0-0.1,0.1-0.1,0.1-0.1c0.1,0,0.2,0,0.3,0
				c0.1,0,0.1,0,0.2-0.1C428.2,87,428.2,87.2,428.1,87.3"/>
			<polygon class="st3" points="408.7,97 408.7,98.3 405.9,98.3 405.9,99.9 408.5,99.9 408.5,101.2 405.9,101.2 405.9,103.9 
				404.3,103.9 404.3,97 			"/>
			<polygon class="st3" points="410.2,97 411.8,97 411.8,102.6 414.2,102.6 414.2,103.9 410.2,103.9 			"/>
			<path class="st3" d="M417.5,97h1.8l2.5,6.9H420l-0.5-1.5h-2.3l-0.5,1.5H415L417.5,97z M417.6,101.2h1.6l-0.3-0.8
				c-0.1-0.3-0.2-0.6-0.3-0.9c-0.1-0.3-0.2-0.6-0.2-0.8l0,0c-0.1,0.3-0.2,0.5-0.2,0.8c-0.1,0.3-0.2,0.6-0.3,0.9L417.6,101.2z"/>
			<path class="st3" d="M425.9,102.7c0.3,0,0.6,0,0.8-0.1c0.2-0.1,0.4-0.1,0.6-0.2l0.3,1.2c-0.1,0.1-0.4,0.2-0.7,0.3
				c-0.3,0.1-0.7,0.1-1.2,0.1s-1-0.1-1.5-0.3c-0.4-0.2-0.8-0.4-1.2-0.7c-0.3-0.3-0.6-0.7-0.7-1.1c-0.2-0.4-0.3-0.9-0.3-1.5
				c0-0.5,0.1-1,0.3-1.5c0.2-0.4,0.4-0.8,0.7-1.1c0.3-0.3,0.7-0.5,1.2-0.7s1-0.3,1.5-0.3s0.9,0,1.2,0.1c0.3,0.1,0.5,0.2,0.7,0.3
				l-0.4,1.2c-0.2-0.1-0.4-0.2-0.6-0.3c-0.2-0.1-0.5-0.1-0.8-0.1s-0.6,0-0.8,0.1c-0.3,0.1-0.5,0.2-0.7,0.4c-0.2,0.2-0.3,0.4-0.4,0.7
				c-0.1,0.3-0.2,0.6-0.2,1.1c0,0.4,0.1,0.7,0.2,1s0.3,0.5,0.4,0.7c0.2,0.2,0.4,0.3,0.7,0.4C425.3,102.7,425.6,102.7,425.9,102.7"/>
			<path class="st3" d="M431.4,96.9c0.5,0,0.9,0,1.2,0.1c0.3,0.1,0.6,0.2,0.9,0.4l-0.4,1.2c-0.3-0.1-0.6-0.3-0.9-0.3
				c-0.3-0.1-0.6-0.1-0.8-0.1c-0.3,0-0.6,0.1-0.8,0.2c-0.2,0.1-0.3,0.3-0.3,0.5s0.1,0.4,0.2,0.5c0.2,0.1,0.4,0.2,0.8,0.3l0.6,0.2
				c0.3,0.1,0.5,0.2,0.7,0.3c0.2,0.1,0.4,0.3,0.6,0.4c0.2,0.2,0.3,0.4,0.4,0.6s0.1,0.4,0.1,0.7c0,0.3-0.1,0.6-0.2,0.8
				s-0.3,0.5-0.5,0.7s-0.5,0.4-0.8,0.5s-0.7,0.2-1.2,0.2c-0.4,0-0.8,0-1.2-0.1c-0.4-0.1-0.7-0.2-1.1-0.4l0.4-1.2
				c0.3,0.2,0.6,0.3,0.9,0.4s0.6,0.1,0.9,0.1c0.4,0,0.7-0.1,0.8-0.2c0.2-0.1,0.3-0.3,0.3-0.5c0-0.1,0-0.1,0-0.2s-0.1-0.1-0.2-0.2
				s-0.2-0.1-0.4-0.2c-0.1-0.1-0.3-0.1-0.6-0.2l-0.5-0.2c-0.3-0.1-0.5-0.2-0.7-0.3c-0.2-0.1-0.4-0.3-0.6-0.4
				c-0.2-0.2-0.3-0.3-0.4-0.6c-0.1-0.2-0.1-0.5-0.1-0.8s0.1-0.6,0.2-0.8c0.1-0.3,0.3-0.5,0.5-0.7s0.5-0.3,0.8-0.4
				C430.6,96.9,431,96.9,431.4,96.9"/>
			<path class="st3" d="M438.6,96.9c0.5,0,1,0.1,1.4,0.2c0.4,0.2,0.8,0.4,1.1,0.7c0.3,0.3,0.5,0.7,0.7,1.1s0.3,0.9,0.3,1.5
				c0,0.5-0.1,1-0.3,1.5c-0.2,0.4-0.4,0.8-0.7,1.1c-0.3,0.3-0.7,0.5-1.1,0.7s-0.9,0.2-1.4,0.2s-1-0.1-1.4-0.2
				c-0.4-0.2-0.8-0.4-1.1-0.7c-0.3-0.3-0.5-0.7-0.7-1.1s-0.3-0.9-0.3-1.5c0-0.5,0.1-1,0.3-1.5c0.2-0.4,0.4-0.8,0.7-1.1
				c0.3-0.3,0.7-0.6,1.1-0.7C437.7,97,438.1,96.9,438.6,96.9 M436.9,100.4c0,0.4,0,0.7,0.1,1s0.2,0.5,0.4,0.7
				c0.2,0.2,0.3,0.3,0.5,0.4s0.4,0.1,0.7,0.1c0.2,0,0.5,0,0.7-0.1s0.4-0.2,0.5-0.4c0.2-0.2,0.3-0.4,0.4-0.7c0.1-0.3,0.1-0.6,0.1-1
				s0-0.7-0.1-1s-0.2-0.5-0.4-0.7c-0.2-0.2-0.3-0.3-0.5-0.4s-0.4-0.1-0.7-0.1c-0.2,0-0.5,0-0.7,0.1s-0.4,0.2-0.5,0.4
				c-0.2,0.2-0.3,0.4-0.4,0.7S436.9,100.1,436.9,100.4"/>
			<path class="st3" d="M405.7,107.7h0.4l1.4,3.7h-0.4l-0.4-1.1h-1.6l-0.4,1.1h-0.4L405.7,107.7z M405.2,110h1.4l-0.3-0.8
				c-0.1-0.1-0.1-0.3-0.2-0.5s-0.1-0.4-0.2-0.6l0,0c0,0.1-0.1,0.2-0.1,0.3c0,0.1-0.1,0.2-0.1,0.3c0,0.1-0.1,0.2-0.1,0.2
				c0,0.1-0.1,0.2-0.1,0.3L405.2,110z"/>
			<path class="st3" d="M409.3,107.7h1.1c0.2,0,0.4,0,0.5,0.1s0.3,0.1,0.4,0.2s0.2,0.2,0.2,0.3c0.1,0.1,0.1,0.3,0.1,0.4
				s0,0.3-0.1,0.4c0,0.1-0.1,0.2-0.2,0.3c-0.1,0.1-0.2,0.2-0.3,0.2c-0.1,0.1-0.2,0.1-0.3,0.1l1,1.6h-0.5l-0.9-1.5h-0.8v1.5h-0.4
				v-3.6H409.3z M409.7,109.6h0.6c0.1,0,0.3,0,0.4,0s0.2-0.1,0.3-0.1c0.1-0.1,0.1-0.1,0.2-0.2c0-0.1,0.1-0.2,0.1-0.3
				c0-0.3-0.1-0.4-0.2-0.6c-0.1-0.1-0.4-0.2-0.7-0.2h-0.6L409.7,109.6L409.7,109.6z"/>
			<path class="st3" d="M415.2,107.7c0.2,0,0.4,0,0.6,0s0.3,0.1,0.5,0.2l-0.1,0.3c-0.1-0.1-0.3-0.1-0.4-0.1s-0.3-0.1-0.4-0.1
				c-0.2,0-0.4,0-0.5,0.1c-0.2,0.1-0.3,0.1-0.5,0.3c-0.1,0.1-0.2,0.3-0.3,0.5c-0.1,0.2-0.1,0.4-0.1,0.7c0,0.2,0,0.5,0.1,0.6
				c0.1,0.2,0.2,0.3,0.3,0.5c0.1,0.1,0.3,0.2,0.4,0.3c0.2,0.1,0.4,0.1,0.6,0.1s0.3,0,0.4,0s0.2,0,0.3-0.1v-1.2h-0.7v-0.3h1.2v1.8
				c-0.1,0.1-0.3,0.1-0.5,0.1s-0.4,0.1-0.6,0.1c-0.3,0-0.5,0-0.7-0.1s-0.4-0.2-0.6-0.4c-0.2-0.2-0.3-0.4-0.4-0.6s-0.1-0.5-0.1-0.8
				s0-0.6,0.1-0.8c0.1-0.2,0.2-0.4,0.4-0.6c0.2-0.2,0.4-0.3,0.6-0.4C414.7,107.8,414.9,107.7,415.2,107.7"/>
			<polygon class="st3" points="418.3,107.7 420.5,107.7 420.5,108.1 418.7,108.1 418.7,109.3 420.3,109.3 420.3,109.7 418.7,109.7 
				418.7,111.1 420.5,111.1 420.5,111.5 418.3,111.5 			"/>
			<path class="st3" d="M422.4,107.7h0.4l1.7,2.4c0.1,0.1,0.1,0.2,0.2,0.3c0.1,0.1,0.1,0.2,0.2,0.3l0,0c0-0.1,0-0.3,0-0.4
				s0-0.3,0-0.4v-2.2h0.4v3.7h-0.4l-1.6-2.3c-0.1-0.1-0.2-0.2-0.2-0.4c-0.1-0.1-0.2-0.3-0.2-0.4l0,0c0,0.2,0,0.4,0,0.5
				c0,0.2,0,0.3,0,0.5v2.1h-0.4v-3.7H422.4z"/>
			<polygon class="st3" points="429.8,107.7 429.8,108.1 428.6,108.1 428.6,111.5 428.2,111.5 428.2,108.1 427,108.1 427,107.7 			
				"/>
			<rect x="431.6" y="107.7" class="st3" width="0.4" height="3.7"/>
			<path class="st3" d="M434.1,107.7h0.4l1.7,2.4c0.1,0.1,0.1,0.2,0.2,0.3c0.1,0.1,0.1,0.2,0.2,0.3l0,0c0-0.1,0-0.3,0-0.4
				s0-0.3,0-0.4v-2.2h0.4v3.7h-0.4l-1.6-2.3c-0.1-0.1-0.2-0.2-0.2-0.4c-0.1-0.1-0.2-0.3-0.2-0.4l0,0c0,0.2,0,0.4,0,0.5
				c0,0.2,0,0.3,0,0.5v2.1h-0.4v-3.7H434.1z"/>
			<path class="st3" d="M440.2,107.7h0.4l1.4,3.7h-0.5l-0.4-1.1h-1.6l-0.4,1.1h-0.4L440.2,107.7z M439.7,110h1.3l-0.3-0.8
				c-0.1-0.1-0.1-0.3-0.2-0.5s-0.1-0.4-0.2-0.6l0,0c0,0.1-0.1,0.2-0.1,0.3c0,0.1-0.1,0.2-0.1,0.3c0,0.1-0.1,0.2-0.1,0.2
				c0,0.1-0.1,0.2-0.1,0.3L439.7,110z"/>
		</g>
	</g>
</g>
<g>
	<g>
		<g>
			<path class="st9" d="M232.7,268.8c0,25.4-20.6,46-46,46s-46-20.6-46-46s20.6-46,46-46C212.1,222.8,232.7,243.4,232.7,268.8z"/>
		</g>
	</g>
	<g>
		<g>
			<path class="st10" d="M217.3,268.8c0,16.9-13.7,30.5-30.5,30.5c-16.9,0-30.5-13.7-30.5-30.5c0-16.9,13.7-30.5,30.5-30.5
				C203.6,238.3,217.3,251.9,217.3,268.8z"/>
		</g>
	</g>
	<g>
		<g>
			<path class="st11" d="M213.6,268.8c0,14.9-12,26.9-26.9,26.9s-26.9-12-26.9-26.9s12-26.9,26.9-26.9S213.6,254,213.6,268.8z"/>
		</g>
	</g>
	<g>
		<g>
			<path class="st12" d="M208.1,268.8c0,11.8-9.6,21.4-21.4,21.4c-11.8,0-21.4-9.6-21.4-21.4s9.6-21.4,21.4-21.4
				S208.1,257,208.1,268.8z"/>
		</g>
	</g>
	<g>
		<g>
			<path class="st11" d="M202.6,246.5l4.5-4.5c1.8-1.8,4.7-1.8,6.4,0l0,0c1.8,1.8,1.8,4.7,0,6.4l-4.5,4.5"/>
		</g>
	</g>
	<g>
		<g>
			<g>
				<rect x="252" y="233.1" class="st4" width="81.4" height="88.9"/>
			</g>
		</g>
		<g>
			<g>
				<rect x="333.4" y="233.1" class="st4" width="81.4" height="88.9"/>
			</g>
		</g>
	</g>
	<g>
		<g>
			<g>
				<path class="st4" d="M336.5,320.4c0,1.7-1.4,3-3,3l0,0c-1.7,0-3-1.3-3-3v-85.6c0-1.7,1.4-3,3-3l0,0c1.7,0,3,1.3,3,3V320.4z"/>
			</g>
		</g>
	</g>
	<g>
		<g>
			<g>
				<rect x="254.5" y="231.1" class="st13" width="78.9" height="88.5"/>
			</g>
		</g>
		<g>
			<g>
				<rect x="333.4" y="231.1" class="st14" width="78.9" height="88.5"/>
			</g>
		</g>
	</g>
	<g>
		<g>
			<g>
				<rect x="254.5" y="231.1" class="st15" width="78.9" height="88.5"/>
			</g>
		</g>
		<g>
			<g>
				<rect x="333.4" y="231.1" class="st16" width="78.9" height="88.5"/>
			</g>
		</g>
	</g>
	<g class="st17">
		<g>
			<path class="st3" d="M328.7,240c0,0.7-0.5,1.2-1.2,1.2H263c-0.7,0-1.2-0.5-1.2-1.2l0,0c0-0.7,0.5-1.2,1.2-1.2h64.5
				C328.2,238.8,328.7,239.3,328.7,240L328.7,240z"/>
		</g>
	</g>
	<g class="st17">
		<g>
			<path class="st3" d="M407.3,240c0,0.7-0.5,1.2-1.2,1.2h-64.5c-0.7,0-1.2-0.5-1.2-1.2l0,0c0-0.7,0.5-1.2,1.2-1.2h64.5
				C406.8,238.8,407.3,239.3,407.3,240L407.3,240z"/>
		</g>
	</g>
	<g class="st17">
		<g>
			<path class="st3" d="M407.3,247.6c0,0.7-0.5,1.2-1.2,1.2h-64.5c-0.7,0-1.2-0.5-1.2-1.2l0,0c0-0.7,0.5-1.2,1.2-1.2h64.5
				C406.8,246.4,407.3,247,407.3,247.6L407.3,247.6z"/>
		</g>
	</g>
	<g class="st17">
		<g>
			<path class="st3" d="M362.3,259.1c0,0.7-0.2,1.2-0.4,1.2h-21.1c-0.2,0-0.4-0.5-0.4-1.2l0,0c0-0.7,0.2-1.2,0.4-1.2h21.1
				C362.1,257.9,362.3,258.4,362.3,259.1L362.3,259.1z"/>
		</g>
	</g>
	<g class="st17">
		<g>
			<path class="st3" d="M328.7,246.2c0,0.7-0.5,1.2-1.2,1.2H263c-0.7,0-1.2-0.5-1.2-1.2l0,0c0-0.7,0.5-1.2,1.2-1.2h64.5
				C328.2,245,328.7,245.5,328.7,246.2L328.7,246.2z"/>
		</g>
	</g>
	<g class="st17">
		<g>
			<path class="st3" d="M328.7,258c0,0.7-0.5,1.2-1.2,1.2H263c-0.7,0-1.2-0.5-1.2-1.2l0,0c0-0.7,0.5-1.2,1.2-1.2h64.5
				C328.2,256.8,328.7,257.3,328.7,258L328.7,258z"/>
		</g>
	</g>
	<g class="st17">
		<g>
			<path class="st3" d="M328.7,286.2c0,0.7-0.5,1.2-1.2,1.2H263c-0.7,0-1.2-0.5-1.2-1.2l0,0c0-0.7,0.5-1.2,1.2-1.2h64.5
				C328.2,285,328.7,285.5,328.7,286.2L328.7,286.2z"/>
		</g>
	</g>
	<g class="st17">
		<g>
			<path class="st3" d="M328.7,291.4c0,0.7-0.5,1.2-1.2,1.2H263c-0.7,0-1.2-0.5-1.2-1.2l0,0c0-0.7,0.5-1.2,1.2-1.2h64.5
				C328.2,290.2,328.7,290.8,328.7,291.4L328.7,291.4z"/>
		</g>
	</g>
	<g>
		<g>
			<g>
				<path class="st18" d="M322.4,318.5c-4.4-2.9-20.9,5.6-25.2,4.4c-4.2-1.2-2.4-5.6-2.4-5.6l8.6-16c2.7-5,0.8-11.2-4.2-13.9
					l-13.7-7.4c-16.5-8.9-28.1-6.3-37,10.2l-14.7,40.2c-0.9,2.4,0.1,5.2,2.4,6.4l20.9,11.2c5.8,3.1,12.8,2.7,18.1-1.1
					c2.2-1.5,4.2-2.9,5.5-3.6c8-4.1,22.7-7.9,34.1-11C326.3,329.3,326.8,321.4,322.4,318.5z"/>
			</g>
		</g>
		<g>
			<g>
				<path class="st18" d="M258.9,291.2c-1.1,3.5-2.6,14-5.3,13.1l-1.6-8.4c-2.8-0.9-6.5,3.7-5.4,0.3l14.9-48c1.1-3.5,4.2-5.6,7-4.7
					l0,0c2.8,0.9,4.1,4.4,3,7.8L258.9,291.2z"/>
			</g>
		</g>
		<g>
			<g>
				<path class="st18" d="M277.2,284.4c-1.4,3.3-4.7,5.1-7.4,4l0,0c-2.7-1.1-3.7-4.8-2.3-8.1l16.3-38.5c1.4-3.3,4.7-5.1,7.4-4l0,0
					c2.7,1.1,3.7,4.8,2.3,8.1L277.2,284.4z"/>
			</g>
		</g>
		<g>
			<g>
				<path class="st18" d="M299.6,305.2c-2.4,2.8-6.1,3.5-8.3,1.6l0,0c-2.2-1.9-2.1-5.7,0.3-8.4l27.2-31.8c2.4-2.8,6.1-3.5,8.3-1.6
					l0,0c2.2,1.9,2.1,5.7-0.3,8.4L299.6,305.2z"/>
			</g>
		</g>
		<g>
			<g>
				<path class="st18" d="M293.6,286.7c-1.8,3.2-5.2,4.6-7.8,3.2l0,0c-2.5-1.4-3.2-5.1-1.4-8.3l20.2-36.6c1.8-3.2,5.2-4.6,7.8-3.2
					l0,0c2.5,1.4,3.2,5.1,1.4,8.3L293.6,286.7z"/>
			</g>
		</g>
		<g>
			<g>
				<path class="st19" d="M263.9,247.7c0.8-1.5,2.7-2.1,4.2-1.3s2.1,2.7,1.3,4.2"/>
			</g>
		</g>
		<g>
			<g>
				<path class="st19" d="M286,242.3c0.8-1.5,2.7-2.1,4.2-1.3s2.1,2.7,1.3,4.2"/>
			</g>
		</g>
		<g>
			<g>
				<path class="st19" d="M306.8,246.1c0.8-1.5,2.7-2.1,4.2-1.3s2.1,2.7,1.3,4.2"/>
			</g>
		</g>
		<g>
			<g>
				<path class="st19" d="M320.3,268.3c0.8-1.5,2.7-2.1,4.2-1.3c1.5,0.8,2.1,2.7,1.3,4.2"/>
			</g>
		</g>
	</g>
	<g>
		<g>
			<g>
				<path class="st18" d="M401.7,269.2c7.2-11.8,35.3-31.1,35.1-24.6c-0.7,27.6,18.5,34.1,17.6,38.5s-12.4,23.7-18.2,24
					C430.6,307.4,395.3,279.7,401.7,269.2z"/>
			</g>
		</g>
		<g>
			<g>
				<path class="st18" d="M417,288.6c-8.6,0.5-32.9-9.9-34.7-16.4c-3.2-11.6-6.5-22.1-0.2-23.1c6.2-1,10.3,9,10.8,14.2
					c0.5,5.3,15.5,6.8,15.5,6.8L417,288.6z"/>
			</g>
		</g>
		<g>
			<g>
				<path class="st18" d="M404.6,265.9c2.4-6.2,5.9-15.2,1.3-26.4c-4.5-11.2-10.3,0.6-16.5,1.1s-7.2-10.9,5.7-15.2
					c12.9-4.3,16.6-2.9,21.4,3.8s8.1,27.6,8.1,27.6L404.6,265.9z"/>
			</g>
		</g>
		<g>
			<g>
				<path class="st18" d="M434.5,254.2c-1-5.3-5.3-16.5-7.1-26.2c-1.6-8.7-6.6-11-23.4-10.5c-12.9,0.4-7.2,8.6-3.8,8.6
					c3.3,0,15.5-1.3,17.7,5.6c1.9,6,4.2,27.6,4.2,27.6L434.5,254.2z"/>
			</g>
		</g>
		<g>
			<g>
				<path class="st18" d="M434,262.6c0-6.7,5.5-24.3,3.6-29c-1.9-4.8-9-17.4-13.3-15.2c-3.4,1.8,2.7,15.2,2.7,19.5
					s-2.4,19.6-2.4,19.6L434,262.6z"/>
			</g>
		</g>
		<g>
			<g>
				
					<rect x="359.6" y="229.3" transform="matrix(0.8432 -0.5376 0.5376 0.8432 -62.212 253.2864)" class="st20" width="87" height="8"/>
			</g>
		</g>
	</g>
	<g>
		<g>
			<path class="st21" d="M364.3,253.3l4.3,6.8l-6.1,0.1c-0.6,0-1-0.6-0.8-1.2L364.3,253.3z"/>
		</g>
	</g>
	<g>
		<g>
			<path class="st19" d="M381.8,258.4c-1.5-0.8-2.1-2.7-1.3-4.2c0.8-1.5,2.7-2.1,4.2-1.3"/>
		</g>
	</g>
	<g>
		<g>
			<path class="st19" d="M389,235.4c-0.8,1.5-2.1,2.4-3,1.9c-0.8-0.4-0.8-2,0-3.5"/>
		</g>
	</g>
	<g>
		<g>
			<path class="st19" d="M400.1,222c-1.7,0-3.1-0.7-3.1-1.6c0-0.9,1.4-1.7,3.1-1.8"/>
		</g>
	</g>
	<g>
		<g>
			<path class="st22" d="M443.2,205.6c0,2.3-1.9,4.2-4.2,4.2c-2.3,0-4.2-1.9-4.2-4.2s1.9-4.2,4.2-4.2
				C441.3,201.5,443.2,203.3,443.2,205.6z"/>
		</g>
	</g>
	<g>
		<g>
			<g>
				<path class="st23" d="M444.4,238.3c1.1-3,1.7-6.1,1.6-9.3c-0.1-3-0.7-6.3-2.1-9c-0.2-0.3-0.6-0.1-0.5,0.2
					c0.4,1.5,0.9,2.9,1.2,4.4c0.3,1.5,0.5,3,0.5,4.5c0.1,3.1-0.3,6.1-1.2,9C443.8,238.5,444.3,238.7,444.4,238.3L444.4,238.3z"/>
			</g>
		</g>
		<g>
			<g>
				<path class="st23" d="M453.3,234.7c1-2.6,1.6-5.4,1.7-8.2c0.1-2.6-0.1-5.5-1.2-7.9c-0.1-0.3-0.5-0.1-0.4,0.2
					c0.2,1.3,0.5,2.6,0.7,4c0.2,1.3,0.2,2.6,0.2,3.9c-0.1,2.7-0.6,5.4-1.4,7.9C452.7,234.9,453.2,235,453.3,234.7L453.3,234.7z"/>
			</g>
		</g>
	</g>
</g>
<path class="st24" d="M632.6,413.5h-633v-62c0-11.9,10.7-21.6,22.6-21.6H609c11.9,0,23.6,9.7,23.6,21.6V413.5z"/>
<line class="st25" x1="333.4" y1="231.1" x2="333.4" y2="319.7"/>
<g>
	<circle class="st4" cx="246.6" cy="67.8" r="13.4"/>
	<path class="st4" d="M222.2,125.9V94.6c0-4.7,3.8-8.5,8.5-8.5h6l10.5,9.6l10-9.6c4.7,0,5.7,3.8,5.7,8.5v31.2L222.2,125.9
		L222.2,125.9z"/>
	<path class="st4" d="M257.6,86.1h38c2.5,0,4.6,2,4.6,4.6v4.8c0,2.5-2,4.6-4.6,4.6h-38V86.1z"/>
	<path class="st4" d="M227.3,131L227.3,131c-2.8,0-5.1-2.3-5.1-5.1V98.4c0-2.8,2.3-5.1,5.1-5.1l0,0c2.8,0,5.1,2.3,5.1,5.1V126
		C232.4,128.8,230.1,131,227.3,131z"/>
	<g>
		<path class="st4" d="M239.6,176.6L239.6,176.6c-4.3,0-7.8-3.5-7.8-7.8v-42.4c0-4.3,3.5-7.8,7.8-7.8l0,0c4.3,0,7.8,3.5,7.8,7.8
			v42.4C247.3,173.2,243.8,176.6,239.6,176.6z"/>
		<path class="st4" d="M255.1,176.6L255.1,176.6c-4.3,0-7.8-3.5-7.8-7.8v-42.4c0-4.3,3.5-7.8,7.8-7.8l0,0c4.3,0,7.8,3.5,7.8,7.8
			v42.4C262.8,173.2,259.4,176.6,255.1,176.6z"/>
	</g>
	<g>
		<path class="st4" d="M270.5,71.9h60.9c4.7,0,8.5,3.8,8.5,8.5v54.1c0,4.7-3.8,8.5-8.5,8.5h-60.9v9.2h69c4.7,0,8.5-3.8,8.5-8.5V71.2
			c0-4.7-3.8-8.5-8.5-8.5h-69V71.9z"/>
		<path class="st4" d="M310.4,62.7V60c0-3.1-2.5-5.6-5.6-5.6h-8.4c-3.1,0-5.6,2.5-5.6,5.6v2.7H310.4z"/>
		<polygon class="st4" points="322.1,176.6 304.5,155.7 304.5,155.7 304.5,155.7 296.2,155.7 296.2,155.7 296.2,155.7 278.6,176.6 
			286.9,176.6 300.4,160.6 313.9,176.6 		"/>
	</g>
</g>
<g>
	<text transform="matrix(1 0 0 1 52.8002 382)" class="st26 st27">Encuentro con docentes y tutores</text>
</g>
</svg>
