<?xml version="1.0" encoding="utf-8"?>
<!-- Generator: Adobe Illustrator 25.2.1, SVG Export Plug-In . SVG Version: 6.00 Build 0)  -->
<!DOCTYPE svg PUBLIC "-//W3C//DTD SVG 1.1//EN" "http://www.w3.org/Graphics/SVG/1.1/DTD/svg11.dtd" [
	<!ENTITY ns_extend "http://ns.adobe.com/Extensibility/1.0/">
	<!ENTITY ns_ai "http://ns.adobe.com/AdobeIllustrator/10.0/">
	<!ENTITY ns_graphs "http://ns.adobe.com/Graphs/1.0/">
	<!ENTITY ns_vars "http://ns.adobe.com/Variables/1.0/">
	<!ENTITY ns_imrep "http://ns.adobe.com/ImageReplacement/1.0/">
	<!ENTITY ns_sfw "http://ns.adobe.com/SaveForWeb/1.0/">
	<!ENTITY ns_custom "http://ns.adobe.com/GenericCustomNamespace/1.0/">
	<!ENTITY ns_adobe_xpath "http://ns.adobe.com/XPath/1.0/">
]>
<svg version="1.1" id="Capa_1" xmlns:x="&ns_extend;" xmlns:i="&ns_ai;" xmlns:graph="&ns_graphs;"
	 xmlns="http://www.w3.org/2000/svg" xmlns:xlink="http://www.w3.org/1999/xlink" x="0px" y="0px" viewBox="0 0 632.6 412.9"
	 style="enable-background:new 0 0 632.6 412.9;" xml:space="preserve">
<style type="text/css">
	.st0{fill:#21329B;}
	.st1{fill:#19297C;}
	.st2{fill:#0E1663;}
	.st3{fill:#FFFFFF;}
	.st4{fill:#FFE6E3;}
	.st5{fill:#F7A59A;}
	.st6{fill:#F9C3BD;}
	.st7{fill:#CEEBF2;stroke:#0E1663;stroke-miterlimit:10;}
	.st8{fill:#B3E3EF;stroke:#0E1663;stroke-miterlimit:10;}
	.st9{fill:#FFFFFF;stroke:#0E1663;stroke-miterlimit:10;}
	.st10{fill:#833125;stroke:#0E1663;stroke-miterlimit:10;}
	.st11{fill:#FF5A5A;}
	.st12{fill:#F2D18F;}
	.st13{fill:#E8C079;}
	.st14{fill:#B7DFEA;}
	.st15{fill:#A2CCDA;}
	.st16{opacity:0.52;}
	.st17{fill:#F7958D;}
	.st18{fill:none;stroke:#000000;stroke-miterlimit:10;}
	.st19{fill:#FF5A5A;stroke:#0E1663;stroke-linecap:round;stroke-linejoin:round;stroke-miterlimit:10;}
	.st20{fill:#FFFFFF;stroke:#0E1663;stroke-linecap:round;stroke-linejoin:round;stroke-miterlimit:10;}
	.st21{fill:#2CA5FF;}
	.st22{fill:#231F20;}
	.st23{fill:#DDDDDD;}
	.st24{fill:none;stroke:#0E1663;stroke-miterlimit:10;}
	.st25{enable-background:new    ;}
</style>
<metadata>
	<sfw  xmlns="&ns_sfw;">
		<slices></slices>
		<sliceSourceBounds  bottomLeftOrigin="true" height="526.9" width="633" x="-0.4" y="-150.1"></sliceSourceBounds>
	</sfw>
</metadata>
<g>
	<rect x="264.9" y="190.7" class="st0" width="60.7" height="26.4"/>
	<polygon class="st1" points="264.9,202.3 264.9,190.7 325.6,194.9 	"/>
	<path class="st2" d="M403,36.1H187.5c-4.7,0-8.7,3.9-8.7,8.7v141.5c0,4.7,3.9,8.7,8.7,8.7H403c4.7,0,8.7-3.9,8.7-8.7V44.8
		C411.6,40,407.7,36.1,403,36.1z"/>
	<g>
		<g>
			<rect id="SVGID_21_" x="188.4" y="44.6" class="st3" width="213.9" height="141.8"/>
		</g>
	</g>
	<path class="st2" d="M347.8,217.1H242.5l0,0c0-4.5,3.7-8.3,8.3-8.3h88.7C344.2,208.8,347.8,212.5,347.8,217.1L347.8,217.1z"/>
</g>
<g>
	<g>
		<path class="st4" d="M135.5,94.7h32.1l-3.6-3.8v-16c0-3.4-2.8-6.2-6.2-6.2h-22.3c-3.4,0-6.2,2.8-6.2,6.2v13.7
			C129.4,92,132.1,94.7,135.5,94.7z"/>
		<g>
			<path class="st5" d="M151.3,82.8c0,1.1,0.9,2,2,2s2-0.9,2-2s-0.9-2-2-2S151.3,81.7,151.3,82.8z"/>
			<path class="st5" d="M144.2,82.8c0,1.1,0.9,2,2,2s2-0.9,2-2s-0.9-2-2-2C145.1,80.8,144.2,81.7,144.2,82.8z"/>
			<path class="st5" d="M137.2,82.8c0,1.1,0.9,2,2,2s2-0.9,2-2s-0.9-2-2-2C138.1,80.8,137.2,81.7,137.2,82.8z"/>
		</g>
	</g>
	<g>
		<path class="st6" d="M518.2,127.9h-26.9l3,3.2v13.4c0,2.9,2.3,5.2,5.2,5.2h18.7c2.9,0,5.2-2.3,5.2-5.2V133
			C523.4,130.2,521.1,127.9,518.2,127.9z"/>
		<g>
			<path class="st3" d="M505,137.9c0-0.9-0.7-1.6-1.6-1.6s-1.6,0.7-1.6,1.6s0.7,1.6,1.6,1.6S505,138.8,505,137.9z"/>
			<path class="st3" d="M510.9,137.9c0-0.9-0.7-1.6-1.6-1.6s-1.6,0.7-1.6,1.6s0.7,1.6,1.6,1.6C510.2,139.5,510.9,138.8,510.9,137.9z
				"/>
			<path class="st3" d="M516.8,137.9c0-0.9-0.7-1.6-1.6-1.6s-1.6,0.7-1.6,1.6s0.7,1.6,1.6,1.6S516.8,138.8,516.8,137.9z"/>
		</g>
	</g>
</g>
<g>
	<g>
		<g>
			<path class="st7" d="M232.7,268.8c0,25.4-20.6,46-46,46s-46-20.6-46-46s20.6-46,46-46C212.1,222.8,232.7,243.4,232.7,268.8z"/>
		</g>
	</g>
	<g>
		<g>
			<path class="st8" d="M217.3,268.8c0,16.9-13.7,30.5-30.5,30.5c-16.9,0-30.5-13.7-30.5-30.5c0-16.9,13.7-30.5,30.5-30.5
				C203.6,238.3,217.3,251.9,217.3,268.8z"/>
		</g>
	</g>
	<g>
		<g>
			<path class="st9" d="M213.6,268.8c0,14.9-12,26.9-26.9,26.9s-26.9-12-26.9-26.9s12-26.9,26.9-26.9S213.6,254,213.6,268.8z"/>
		</g>
	</g>
	<g>
		<g>
			<path class="st10" d="M208.1,268.8c0,11.8-9.6,21.4-21.4,21.4c-11.8,0-21.4-9.6-21.4-21.4s9.6-21.4,21.4-21.4
				S208.1,257,208.1,268.8z"/>
		</g>
	</g>
	<g>
		<g>
			<path class="st9" d="M202.6,246.5l4.5-4.5c1.8-1.8,4.7-1.8,6.4,0l0,0c1.8,1.8,1.8,4.7,0,6.4l-4.5,4.5"/>
		</g>
	</g>
	<g>
		<g>
			<g>
				<rect x="252" y="233.1" class="st11" width="81.4" height="88.9"/>
			</g>
		</g>
		<g>
			<g>
				<rect x="333.4" y="233.1" class="st11" width="81.4" height="88.9"/>
			</g>
		</g>
	</g>
	<g>
		<g>
			<g>
				<path class="st11" d="M336.5,320.4c0,1.7-1.4,3-3,3l0,0c-1.7,0-3-1.3-3-3v-85.6c0-1.7,1.4-3,3-3l0,0c1.7,0,3,1.3,3,3V320.4z"/>
			</g>
		</g>
	</g>
	<g>
		<g>
			<g>
				<rect x="254.5" y="231.1" class="st12" width="78.9" height="88.5"/>
			</g>
		</g>
		<g>
			<g>
				<rect x="333.4" y="231.1" class="st13" width="78.9" height="88.5"/>
			</g>
		</g>
	</g>
	<g>
		<g>
			<g>
				<rect x="254.5" y="231.1" class="st14" width="78.9" height="88.5"/>
			</g>
		</g>
		<g>
			<g>
				<rect x="333.4" y="231.1" class="st15" width="78.9" height="88.5"/>
			</g>
		</g>
	</g>
	<g class="st16">
		<g>
			<path class="st3" d="M328.7,240c0,0.7-0.5,1.2-1.2,1.2H263c-0.7,0-1.2-0.5-1.2-1.2l0,0c0-0.7,0.5-1.2,1.2-1.2h64.5
				C328.2,238.8,328.7,239.3,328.7,240L328.7,240z"/>
		</g>
	</g>
	<g class="st16">
		<g>
			<path class="st3" d="M407.3,240c0,0.7-0.5,1.2-1.2,1.2h-64.5c-0.7,0-1.2-0.5-1.2-1.2l0,0c0-0.7,0.5-1.2,1.2-1.2h64.5
				C406.8,238.8,407.3,239.3,407.3,240L407.3,240z"/>
		</g>
	</g>
	<g class="st16">
		<g>
			<path class="st3" d="M407.3,247.6c0,0.7-0.5,1.2-1.2,1.2h-64.5c-0.7,0-1.2-0.5-1.2-1.2l0,0c0-0.7,0.5-1.2,1.2-1.2h64.5
				C406.8,246.4,407.3,247,407.3,247.6L407.3,247.6z"/>
		</g>
	</g>
	<g class="st16">
		<g>
			<path class="st3" d="M362.3,259.1c0,0.7-0.2,1.2-0.4,1.2h-21.1c-0.2,0-0.4-0.5-0.4-1.2l0,0c0-0.7,0.2-1.2,0.4-1.2h21.1
				C362.1,257.9,362.3,258.4,362.3,259.1L362.3,259.1z"/>
		</g>
	</g>
	<g class="st16">
		<g>
			<path class="st3" d="M328.7,246.2c0,0.7-0.5,1.2-1.2,1.2H263c-0.7,0-1.2-0.5-1.2-1.2l0,0c0-0.7,0.5-1.2,1.2-1.2h64.5
				C328.2,245,328.7,245.5,328.7,246.2L328.7,246.2z"/>
		</g>
	</g>
	<g class="st16">
		<g>
			<path class="st3" d="M328.7,258c0,0.7-0.5,1.2-1.2,1.2H263c-0.7,0-1.2-0.5-1.2-1.2l0,0c0-0.7,0.5-1.2,1.2-1.2h64.5
				C328.2,256.8,328.7,257.3,328.7,258L328.7,258z"/>
		</g>
	</g>
	<g class="st16">
		<g>
			<path class="st3" d="M328.7,286.2c0,0.7-0.5,1.2-1.2,1.2H263c-0.7,0-1.2-0.5-1.2-1.2l0,0c0-0.7,0.5-1.2,1.2-1.2h64.5
				C328.2,285,328.7,285.5,328.7,286.2L328.7,286.2z"/>
		</g>
	</g>
	<g class="st16">
		<g>
			<path class="st3" d="M328.7,291.4c0,0.7-0.5,1.2-1.2,1.2H263c-0.7,0-1.2-0.5-1.2-1.2l0,0c0-0.7,0.5-1.2,1.2-1.2h64.5
				C328.2,290.2,328.7,290.8,328.7,291.4L328.7,291.4z"/>
		</g>
	</g>
	<g>
		<g>
			<g>
				<path class="st17" d="M322.4,318.5c-4.4-2.9-20.9,5.6-25.2,4.4c-4.2-1.2-2.4-5.6-2.4-5.6l8.6-16c2.7-5,0.8-11.2-4.2-13.9
					l-13.7-7.4c-16.5-8.9-28.1-6.3-37,10.2l-14.7,40.2c-0.9,2.4,0.1,5.2,2.4,6.4l20.9,11.2c5.8,3.1,12.8,2.7,18.1-1.1
					c2.2-1.5,4.2-2.9,5.5-3.6c8-4.1,22.7-7.9,34.1-11C326.3,329.3,326.8,321.4,322.4,318.5z"/>
			</g>
		</g>
		<g>
			<g>
				<path class="st17" d="M258.9,291.2c-1.1,3.5-2.6,14-5.3,13.1l-1.6-8.4c-2.8-0.9-6.5,3.7-5.4,0.3l14.9-48c1.1-3.5,4.2-5.6,7-4.7
					l0,0c2.8,0.9,4.1,4.4,3,7.8L258.9,291.2z"/>
			</g>
		</g>
		<g>
			<g>
				<path class="st17" d="M277.2,284.4c-1.4,3.3-4.7,5.1-7.4,4l0,0c-2.7-1.1-3.7-4.8-2.3-8.1l16.3-38.5c1.4-3.3,4.7-5.1,7.4-4l0,0
					c2.7,1.1,3.7,4.8,2.3,8.1L277.2,284.4z"/>
			</g>
		</g>
		<g>
			<g>
				<path class="st17" d="M299.6,305.2c-2.4,2.8-6.1,3.5-8.3,1.6l0,0c-2.2-1.9-2.1-5.7,0.3-8.4l27.2-31.8c2.4-2.8,6.1-3.5,8.3-1.6
					l0,0c2.2,1.9,2.1,5.7-0.3,8.4L299.6,305.2z"/>
			</g>
		</g>
		<g>
			<g>
				<path class="st17" d="M293.6,286.7c-1.8,3.2-5.2,4.6-7.8,3.2l0,0c-2.5-1.4-3.2-5.1-1.4-8.3l20.2-36.6c1.8-3.2,5.2-4.6,7.8-3.2
					l0,0c2.5,1.4,3.2,5.1,1.4,8.3L293.6,286.7z"/>
			</g>
		</g>
		<g>
			<g>
				<path class="st18" d="M263.9,247.7c0.8-1.5,2.7-2.1,4.2-1.3s2.1,2.7,1.3,4.2"/>
			</g>
		</g>
		<g>
			<g>
				<path class="st18" d="M286,242.3c0.8-1.5,2.7-2.1,4.2-1.3s2.1,2.7,1.3,4.2"/>
			</g>
		</g>
		<g>
			<g>
				<path class="st18" d="M306.8,246.1c0.8-1.5,2.7-2.1,4.2-1.3s2.1,2.7,1.3,4.2"/>
			</g>
		</g>
		<g>
			<g>
				<path class="st18" d="M320.3,268.3c0.8-1.5,2.7-2.1,4.2-1.3c1.5,0.8,2.1,2.7,1.3,4.2"/>
			</g>
		</g>
	</g>
	<g>
		<g>
			<g>
				<path class="st17" d="M401.7,269.2c7.2-11.8,35.3-31.1,35.1-24.6c-0.7,27.6,18.5,34.1,17.6,38.5s-12.4,23.7-18.2,24
					C430.6,307.4,395.3,279.7,401.7,269.2z"/>
			</g>
		</g>
		<g>
			<g>
				<path class="st17" d="M417,288.6c-8.6,0.5-32.9-9.9-34.7-16.4c-3.2-11.6-6.5-22.1-0.2-23.1c6.2-1,10.3,9,10.8,14.2
					c0.5,5.3,15.5,6.8,15.5,6.8L417,288.6z"/>
			</g>
		</g>
		<g>
			<g>
				<path class="st17" d="M404.6,265.9c2.4-6.2,5.9-15.2,1.3-26.4c-4.5-11.2-10.3,0.6-16.5,1.1s-7.2-10.9,5.7-15.2
					c12.9-4.3,16.6-2.9,21.4,3.8s8.1,27.6,8.1,27.6L404.6,265.9z"/>
			</g>
		</g>
		<g>
			<g>
				<path class="st17" d="M434.5,254.2c-1-5.3-5.3-16.5-7.1-26.2c-1.6-8.7-6.6-11-23.4-10.5c-12.9,0.4-7.2,8.6-3.8,8.6
					c3.3,0,15.5-1.3,17.7,5.6c1.9,6,4.2,27.6,4.2,27.6L434.5,254.2z"/>
			</g>
		</g>
		<g>
			<g>
				<path class="st17" d="M434,262.6c0-6.7,5.5-24.3,3.6-29c-1.9-4.8-9-17.4-13.3-15.2c-3.4,1.8,2.7,15.2,2.7,19.5
					s-2.4,19.6-2.4,19.6L434,262.6z"/>
			</g>
		</g>
		<g>
			<g>
				
					<rect x="359.6" y="229.3" transform="matrix(0.8432 -0.5376 0.5376 0.8432 -62.2145 253.2899)" class="st19" width="87" height="8"/>
			</g>
		</g>
	</g>
	<g>
		<g>
			<path class="st20" d="M364.3,253.3l4.3,6.8l-6.1,0.1c-0.6,0-1-0.6-0.8-1.2L364.3,253.3z"/>
		</g>
	</g>
	<g>
		<g>
			<path class="st18" d="M381.8,258.4c-1.5-0.8-2.1-2.7-1.3-4.2c0.8-1.5,2.7-2.1,4.2-1.3"/>
		</g>
	</g>
	<g>
		<g>
			<path class="st18" d="M389,235.4c-0.8,1.5-2.1,2.4-3,1.9c-0.8-0.4-0.8-2,0-3.5"/>
		</g>
	</g>
	<g>
		<g>
			<path class="st18" d="M400.1,222c-1.7,0-3.1-0.7-3.1-1.6c0-0.9,1.4-1.7,3.1-1.8"/>
		</g>
	</g>
	<g>
		<g>
			<path class="st21" d="M443.2,205.6c0,2.3-1.9,4.2-4.2,4.2c-2.3,0-4.2-1.9-4.2-4.2s1.9-4.2,4.2-4.2
				C441.3,201.5,443.2,203.3,443.2,205.6z"/>
		</g>
	</g>
	<g>
		<g>
			<g>
				<path class="st22" d="M444.4,238.3c1.1-3,1.7-6.1,1.6-9.3c-0.1-3-0.7-6.3-2.1-9c-0.2-0.3-0.6-0.1-0.5,0.2
					c0.4,1.5,0.9,2.9,1.2,4.4c0.3,1.5,0.5,3,0.5,4.5c0.1,3.1-0.3,6.1-1.2,9C443.8,238.5,444.3,238.7,444.4,238.3L444.4,238.3z"/>
			</g>
		</g>
		<g>
			<g>
				<path class="st22" d="M453.3,234.7c1-2.6,1.6-5.4,1.7-8.2c0.1-2.6-0.1-5.5-1.2-7.9c-0.1-0.3-0.5-0.1-0.4,0.2
					c0.2,1.3,0.5,2.6,0.7,4c0.2,1.3,0.2,2.6,0.2,3.9c-0.1,2.7-0.6,5.4-1.4,7.9C452.7,234.9,453.2,235,453.3,234.7L453.3,234.7z"/>
			</g>
		</g>
	</g>
</g>
<path class="st23" d="M632.6,413.5h-633v-62c0-11.9,10.7-21.6,22.6-21.6H609c11.9,0,23.6,9.7,23.6,21.6V413.5z"/>
<line class="st24" x1="333.4" y1="231.1" x2="333.4" y2="319.7"/>
<g>
	<g class="st25">
		<path d="M66.4,377.5c-0.8,1.1-1.9,1.9-3.4,2.4c-1.4,0.5-3.1,0.8-4.9,0.8c-1.9,0-3.6-0.4-5-1.3c-1.5-0.9-2.6-2.1-3.4-3.7
			c-0.8-1.6-1.2-3.5-1.2-5.6v-1.8c0-3.4,0.8-6.1,2.5-8c1.6-1.9,3.9-2.9,6.8-2.9c2.5,0,4.5,0.6,6,1.9c1.5,1.2,2.4,3,2.7,5.4h-3.8
			c-0.4-2.7-2-4.1-4.7-4.1c-1.8,0-3.1,0.6-4,1.9c-0.9,1.3-1.4,3.1-1.4,5.6v1.7c0,2.4,0.5,4.3,1.5,5.7s2.5,2,4.3,2
			c2,0,3.4-0.5,4.3-1.4v-4.4h-4.7v-3h8.6V377.5z"/>
		<path d="M79.2,367c-0.5-0.1-1-0.1-1.5-0.1c-1.7,0-2.9,0.7-3.5,2v11.5h-3.8v-16.8H74l0.1,1.9c0.9-1.5,2.2-2.2,3.8-2.2
			c0.5,0,1,0.1,1.3,0.2L79.2,367z"/>
		<path d="M91.1,380.4c-0.2-0.3-0.3-0.8-0.4-1.6c-1.2,1.3-2.7,1.9-4.4,1.9c-1.7,0-3.1-0.5-4.1-1.4s-1.6-2.2-1.6-3.6
			c0-1.8,0.7-3.2,2-4.1c1.3-1,3.2-1.4,5.7-1.4h2.3V369c0-0.9-0.2-1.6-0.7-2.1s-1.2-0.8-2.2-0.8c-0.9,0-1.6,0.2-2.1,0.6
			c-0.5,0.4-0.8,1-0.8,1.6h-3.8c0-0.9,0.3-1.8,0.9-2.6s1.4-1.4,2.5-1.9c1-0.5,2.2-0.7,3.5-0.7c2,0,3.5,0.5,4.7,1.5
			c1.2,1,1.8,2.4,1.8,4.2v7.6c0,1.5,0.2,2.7,0.6,3.6v0.3H91.1z M87,377.7c0.7,0,1.4-0.2,2.1-0.5c0.7-0.4,1.2-0.8,1.5-1.5v-3.2h-2
			c-1.4,0-2.4,0.2-3.1,0.7c-0.7,0.5-1.1,1.2-1.1,2.1c0,0.7,0.2,1.3,0.7,1.7C85.5,377.5,86.1,377.7,87,377.7z"/>
		<path d="M113,372.2c0,2.6-0.6,4.7-1.7,6.2c-1.2,1.5-2.8,2.3-4.8,2.3c-2,0-3.5-0.7-4.6-2.1l-0.2,1.8h-3.4v-23.8h3.8v8.7
			c1.1-1.3,2.5-1.9,4.4-1.9c2,0,3.7,0.8,4.8,2.3c1.2,1.5,1.8,3.6,1.8,6.4V372.2z M109.2,371.8c0-1.8-0.3-3.2-1-4.1
			c-0.6-0.9-1.6-1.4-2.8-1.4c-1.6,0-2.8,0.7-3.4,2.1v6.9c0.7,1.5,1.8,2.2,3.5,2.2c1.2,0,2.1-0.4,2.7-1.3c0.6-0.9,1-2.2,1-4V371.8z"
			/>
		<path d="M126.2,380.4c-0.2-0.3-0.3-0.8-0.4-1.6c-1.2,1.3-2.7,1.9-4.4,1.9c-1.7,0-3.1-0.5-4.1-1.4s-1.6-2.2-1.6-3.6
			c0-1.8,0.7-3.2,2-4.1c1.3-1,3.2-1.4,5.7-1.4h2.3V369c0-0.9-0.2-1.6-0.7-2.1s-1.2-0.8-2.2-0.8c-0.9,0-1.6,0.2-2.1,0.6
			c-0.5,0.4-0.8,1-0.8,1.6H116c0-0.9,0.3-1.8,0.9-2.6s1.4-1.4,2.5-1.9c1-0.5,2.2-0.7,3.5-0.7c2,0,3.5,0.5,4.7,1.5
			c1.2,1,1.8,2.4,1.8,4.2v7.6c0,1.5,0.2,2.7,0.6,3.6v0.3H126.2z M122,377.7c0.7,0,1.4-0.2,2.1-0.5c0.7-0.4,1.2-0.8,1.5-1.5v-3.2h-2
			c-1.4,0-2.4,0.2-3.1,0.7c-0.7,0.5-1.1,1.2-1.1,2.1c0,0.7,0.2,1.3,0.7,1.7C120.6,377.5,121.2,377.7,122,377.7z"/>
		<path d="M140.2,377.7c0.9,0,1.7-0.3,2.3-0.8c0.6-0.5,1-1.2,1-2h3.6c0,1-0.4,2-1,2.9s-1.4,1.6-2.5,2.1c-1,0.5-2.2,0.8-3.4,0.8
			c-2.3,0-4.2-0.8-5.6-2.3c-1.4-1.5-2.1-3.6-2.1-6.3v-0.4c0-2.6,0.7-4.6,2-6.1c1.4-1.5,3.2-2.3,5.6-2.3c2,0,3.6,0.6,4.9,1.7
			c1.3,1.2,1.9,2.7,2,4.6h-3.6c0-1-0.4-1.8-1-2.4c-0.6-0.6-1.4-0.9-2.4-0.9c-1.2,0-2.2,0.4-2.8,1.3s-1,2.2-1,4v0.6
			c0,1.8,0.3,3.2,1,4.1C138.1,377.2,139,377.7,140.2,377.7z"/>
		<path d="M150,359.2c0-0.6,0.2-1.1,0.6-1.4s0.9-0.6,1.6-0.6s1.2,0.2,1.6,0.6c0.4,0.4,0.6,0.9,0.6,1.4c0,0.6-0.2,1-0.6,1.4
			c-0.4,0.4-0.9,0.6-1.6,0.6s-1.2-0.2-1.6-0.6C150.2,360.3,150,359.8,150,359.2z M154,380.4h-3.8v-16.8h3.8V380.4z"/>
		<path d="M157.4,371.8c0-1.6,0.3-3.1,1-4.4c0.7-1.3,1.6-2.3,2.7-3c1.2-0.7,2.5-1.1,4.1-1.1c2.3,0,4.1,0.7,5.5,2.2
			c1.4,1.5,2.2,3.4,2.3,5.8l0,0.9c0,1.7-0.3,3.1-1,4.4s-1.5,2.3-2.7,3c-1.2,0.7-2.6,1.1-4.1,1.1c-2.4,0-4.3-0.8-5.7-2.4
			c-1.4-1.6-2.1-3.7-2.1-6.3V371.8z M161.2,372.2c0,1.7,0.4,3.1,1.1,4.1s1.7,1.5,3,1.5c1.3,0,2.3-0.5,3-1.5s1.1-2.4,1.1-4.4
			c0-1.7-0.4-3-1.1-4c-0.7-1-1.7-1.5-3-1.5c-1.2,0-2.2,0.5-2.9,1.5S161.2,370.2,161.2,372.2z"/>
		<path d="M179.7,363.6l0.1,1.9c1.2-1.5,2.9-2.3,4.9-2.3c3.5,0,5.3,2,5.3,6v11.1h-3.8v-10.9c0-1.1-0.2-1.9-0.7-2.4
			c-0.5-0.5-1.2-0.8-2.3-0.8c-1.5,0-2.7,0.7-3.4,2.1v11.9h-3.8v-16.8H179.7z"/>
		<path d="M201.3,380.7c-2.4,0-4.3-0.8-5.8-2.3c-1.5-1.5-2.2-3.5-2.2-6V372c0-1.7,0.3-3.2,1-4.5c0.6-1.3,1.6-2.3,2.7-3.1
			c1.2-0.7,2.5-1.1,3.9-1.1c2.3,0,4.1,0.7,5.3,2.2c1.2,1.5,1.9,3.5,1.9,6.2v1.5h-11c0.1,1.4,0.6,2.5,1.4,3.3s1.8,1.2,3.1,1.2
			c1.7,0,3.1-0.7,4.2-2.1l2,1.9c-0.7,1-1.6,1.8-2.7,2.3C203.9,380.4,202.6,380.7,201.3,380.7z M200.8,366.3c-1,0-1.9,0.4-2.5,1.1
			s-1,1.7-1.2,3h7.2v-0.3c-0.1-1.3-0.4-2.2-1-2.9S201.8,366.3,200.8,366.3z"/>
		<path d="M220.3,375.8c0-0.7-0.3-1.2-0.8-1.5c-0.6-0.4-1.5-0.7-2.8-0.9c-1.3-0.3-2.4-0.6-3.2-1c-1.9-0.9-2.8-2.2-2.8-4
			c0-1.4,0.6-2.7,1.8-3.6s2.8-1.5,4.7-1.5c2,0,3.6,0.5,4.9,1.5c1.2,1,1.9,2.3,1.9,3.9h-3.8c0-0.7-0.3-1.3-0.8-1.8
			c-0.5-0.5-1.3-0.7-2.1-0.7c-0.8,0-1.5,0.2-2,0.6c-0.5,0.4-0.8,0.9-0.8,1.5c0,0.6,0.2,1,0.7,1.3c0.5,0.3,1.5,0.6,2.9,1
			c1.5,0.3,2.6,0.7,3.5,1.2s1.5,1,1.9,1.6c0.4,0.6,0.6,1.4,0.6,2.3c0,1.5-0.6,2.7-1.9,3.7c-1.3,0.9-2.9,1.4-4.9,1.4
			c-1.4,0-2.6-0.2-3.7-0.7c-1.1-0.5-1.9-1.2-2.5-2c-0.6-0.9-0.9-1.8-0.9-2.8h3.7c0.1,0.9,0.4,1.6,1,2.1c0.6,0.5,1.4,0.7,2.5,0.7
			c1,0,1.7-0.2,2.3-0.6C220.1,376.9,220.3,376.4,220.3,375.8z"/>
		<path d="M234.5,371.9c0-2.6,0.6-4.7,1.8-6.2c1.2-1.6,2.8-2.4,4.8-2.4c1.8,0,3.2,0.6,4.3,1.9v-8.6h3.8v23.8h-3.4l-0.2-1.7
			c-1.1,1.4-2.6,2-4.5,2c-2,0-3.6-0.8-4.8-2.4C235.1,376.7,234.5,374.6,234.5,371.9z M238.3,372.2c0,1.7,0.3,3,1,4
			c0.7,1,1.6,1.4,2.8,1.4c1.5,0,2.7-0.7,3.4-2.1v-7.2c-0.7-1.3-1.8-2-3.4-2c-1.2,0-2.2,0.5-2.8,1.5
			C238.6,368.8,238.3,370.3,238.3,372.2z"/>
		<path d="M260.6,380.7c-2.4,0-4.3-0.8-5.8-2.3c-1.5-1.5-2.2-3.5-2.2-6V372c0-1.7,0.3-3.2,1-4.5c0.6-1.3,1.6-2.3,2.7-3.1
			c1.2-0.7,2.5-1.1,3.9-1.1c2.3,0,4.1,0.7,5.3,2.2c1.2,1.5,1.9,3.5,1.9,6.2v1.5h-11c0.1,1.4,0.6,2.5,1.4,3.3s1.8,1.2,3.1,1.2
			c1.7,0,3.1-0.7,4.2-2.1l2,1.9c-0.7,1-1.6,1.8-2.7,2.3C263.2,380.4,262,380.7,260.6,380.7z M260.1,366.3c-1,0-1.9,0.4-2.5,1.1
			s-1,1.7-1.2,3h7.2v-0.3c-0.1-1.3-0.4-2.2-1-2.9S261.2,366.3,260.1,366.3z"/>
		<path d="M285.5,380.7c-2.4,0-4.3-0.8-5.8-2.3c-1.5-1.5-2.2-3.5-2.2-6V372c0-1.7,0.3-3.2,1-4.5c0.6-1.3,1.6-2.3,2.7-3.1
			c1.2-0.7,2.5-1.1,3.9-1.1c2.3,0,4.1,0.7,5.3,2.2c1.2,1.5,1.9,3.5,1.9,6.2v1.5h-11c0.1,1.4,0.6,2.5,1.4,3.3s1.8,1.2,3.1,1.2
			c1.7,0,3.1-0.7,4.2-2.1l2,1.9c-0.7,1-1.6,1.8-2.7,2.3C288.2,380.4,286.9,380.7,285.5,380.7z M285.1,366.3c-1,0-1.9,0.4-2.5,1.1
			s-1,1.7-1.2,3h7.2v-0.3c-0.1-1.3-0.4-2.2-1-2.9S286.1,366.3,285.1,366.3z"/>
		<path d="M298.7,363.6l0.1,1.9c1.2-1.5,2.9-2.3,4.9-2.3c3.5,0,5.3,2,5.3,6v11.1h-3.8v-10.9c0-1.1-0.2-1.9-0.7-2.4
			c-0.5-0.5-1.2-0.8-2.3-0.8c-1.5,0-2.7,0.7-3.4,2.1v11.9h-3.8v-16.8H298.7z"/>
		<path d="M319.8,377.7c0.9,0,1.7-0.3,2.3-0.8c0.6-0.5,1-1.2,1-2h3.6c0,1-0.4,2-1,2.9c-0.6,0.9-1.4,1.6-2.5,2.1
			c-1,0.5-2.2,0.8-3.4,0.8c-2.3,0-4.2-0.8-5.6-2.3c-1.4-1.5-2.1-3.6-2.1-6.3v-0.4c0-2.6,0.7-4.6,2-6.1c1.4-1.5,3.2-2.3,5.6-2.3
			c2,0,3.6,0.6,4.9,1.7c1.3,1.2,1.9,2.7,2,4.6h-3.6c0-1-0.4-1.8-1-2.4s-1.4-0.9-2.4-0.9c-1.2,0-2.2,0.4-2.8,1.3s-1,2.2-1,4v0.6
			c0,1.8,0.3,3.2,1,4.1S318.5,377.7,319.8,377.7z"/>
		<path d="M339.7,378.7c-1.1,1.3-2.7,2-4.7,2c-1.8,0-3.2-0.5-4.1-1.6c-0.9-1.1-1.4-2.6-1.4-4.6v-10.9h3.8v10.8
			c0,2.1,0.9,3.2,2.7,3.2c1.8,0,3.1-0.7,3.7-2v-12.1h3.8v16.8h-3.6L339.7,378.7z"/>
		<path d="M354.5,380.7c-2.4,0-4.3-0.8-5.8-2.3s-2.2-3.5-2.2-6V372c0-1.7,0.3-3.2,1-4.5c0.6-1.3,1.6-2.3,2.7-3.1
			c1.2-0.7,2.5-1.1,3.9-1.1c2.3,0,4.1,0.7,5.3,2.2c1.2,1.5,1.9,3.5,1.9,6.2v1.5h-11c0.1,1.4,0.6,2.5,1.4,3.3
			c0.8,0.8,1.8,1.2,3.1,1.2c1.7,0,3.1-0.7,4.2-2.1l2,1.9c-0.7,1-1.6,1.8-2.7,2.3C357.2,380.4,355.9,380.7,354.5,380.7z M354.1,366.3
			c-1,0-1.9,0.4-2.5,1.1c-0.6,0.7-1,1.7-1.2,3h7.2v-0.3c-0.1-1.3-0.4-2.2-1-2.9S355.1,366.3,354.1,366.3z"/>
		<path d="M367.7,363.6l0.1,1.9c1.2-1.5,2.9-2.3,4.9-2.3c3.5,0,5.3,2,5.3,6v11.1h-3.8v-10.9c0-1.1-0.2-1.9-0.7-2.4
			c-0.5-0.5-1.2-0.8-2.3-0.8c-1.5,0-2.7,0.7-3.4,2.1v11.9h-3.8v-16.8H367.7z"/>
		<path d="M386.6,359.5v4.1h3v2.8h-3v9.4c0,0.6,0.1,1.1,0.4,1.4c0.3,0.3,0.7,0.4,1.4,0.4c0.4,0,0.9-0.1,1.3-0.2v2.9
			c-0.9,0.2-1.7,0.4-2.5,0.4c-2.9,0-4.3-1.6-4.3-4.8v-9.5h-2.8v-2.8h2.8v-4.1H386.6z"/>
		<path d="M401.2,367c-0.5-0.1-1-0.1-1.5-0.1c-1.7,0-2.9,0.7-3.5,2v11.5h-3.8v-16.8h3.6l0.1,1.9c0.9-1.5,2.2-2.2,3.8-2.2
			c0.5,0,1,0.1,1.3,0.2L401.2,367z"/>
		<path d="M402.3,371.8c0-1.6,0.3-3.1,1-4.4c0.7-1.3,1.6-2.3,2.7-3c1.2-0.7,2.5-1.1,4.1-1.1c2.3,0,4.1,0.7,5.5,2.2
			c1.4,1.5,2.2,3.4,2.3,5.8l0,0.9c0,1.7-0.3,3.1-1,4.4c-0.6,1.3-1.5,2.3-2.7,3c-1.2,0.7-2.6,1.1-4.1,1.1c-2.4,0-4.3-0.8-5.7-2.4
			c-1.4-1.6-2.1-3.7-2.1-6.3V371.8z M406.1,372.2c0,1.7,0.4,3.1,1.1,4.1s1.7,1.5,3,1.5s2.3-0.5,3-1.5c0.7-1,1.1-2.4,1.1-4.4
			c0-1.7-0.4-3-1.1-4s-1.7-1.5-3-1.5c-1.2,0-2.2,0.5-2.9,1.5C406.5,368.8,406.1,370.2,406.1,372.2z"/>
		<path d="M430.6,375.8c0-0.7-0.3-1.2-0.8-1.5c-0.6-0.4-1.5-0.7-2.8-0.9c-1.3-0.3-2.4-0.6-3.2-1c-1.9-0.9-2.8-2.2-2.8-4
			c0-1.4,0.6-2.7,1.8-3.6c1.2-1,2.8-1.5,4.7-1.5c2,0,3.6,0.5,4.9,1.5c1.2,1,1.9,2.3,1.9,3.9h-3.8c0-0.7-0.3-1.3-0.8-1.8
			c-0.5-0.5-1.3-0.7-2.1-0.7c-0.8,0-1.5,0.2-2,0.6s-0.8,0.9-0.8,1.5c0,0.6,0.2,1,0.7,1.3c0.5,0.3,1.5,0.6,2.9,1
			c1.5,0.3,2.6,0.7,3.5,1.2s1.5,1,1.9,1.6c0.4,0.6,0.6,1.4,0.6,2.3c0,1.5-0.6,2.7-1.9,3.7c-1.3,0.9-2.9,1.4-4.9,1.4
			c-1.4,0-2.6-0.2-3.7-0.7c-1.1-0.5-1.9-1.2-2.5-2s-0.9-1.8-0.9-2.8h3.7c0.1,0.9,0.4,1.6,1,2.1c0.6,0.5,1.4,0.7,2.5,0.7
			c1,0,1.7-0.2,2.3-0.6C430.3,376.9,430.6,376.4,430.6,375.8z"/>
		<path d="M454.3,367c-0.5-0.1-1-0.1-1.5-0.1c-1.7,0-2.9,0.7-3.5,2v11.5h-3.8v-16.8h3.6l0.1,1.9c0.9-1.5,2.2-2.2,3.8-2.2
			c0.5,0,1,0.1,1.3,0.2L454.3,367z"/>
		<path d="M463.7,380.7c-2.4,0-4.3-0.8-5.8-2.3s-2.2-3.5-2.2-6V372c0-1.7,0.3-3.2,1-4.5c0.6-1.3,1.6-2.3,2.7-3.1
			c1.2-0.7,2.5-1.1,3.9-1.1c2.3,0,4.1,0.7,5.3,2.2c1.2,1.5,1.9,3.5,1.9,6.2v1.5h-11c0.1,1.4,0.6,2.5,1.4,3.3
			c0.8,0.8,1.8,1.2,3.1,1.2c1.7,0,3.1-0.7,4.2-2.1l2,1.9c-0.7,1-1.6,1.8-2.7,2.3C466.4,380.4,465.1,380.7,463.7,380.7z M463.3,366.3
			c-1,0-1.9,0.4-2.5,1.1c-0.6,0.7-1,1.7-1.2,3h7.2v-0.3c-0.1-1.3-0.4-2.2-1-2.9S464.3,366.3,463.3,366.3z"/>
		<path d="M483.4,380.4c-0.2-0.3-0.3-0.8-0.4-1.6c-1.2,1.3-2.7,1.9-4.4,1.9c-1.7,0-3.1-0.5-4.1-1.4c-1.1-1-1.6-2.2-1.6-3.6
			c0-1.8,0.7-3.2,2-4.1s3.2-1.4,5.7-1.4h2.3V369c0-0.9-0.2-1.6-0.7-2.1c-0.5-0.5-1.2-0.8-2.2-0.8c-0.9,0-1.6,0.2-2.1,0.6
			c-0.5,0.4-0.8,1-0.8,1.6h-3.8c0-0.9,0.3-1.8,0.9-2.6s1.4-1.4,2.5-1.9c1-0.5,2.2-0.7,3.5-0.7c2,0,3.5,0.5,4.7,1.5
			c1.2,1,1.8,2.4,1.8,4.2v7.6c0,1.5,0.2,2.7,0.6,3.6v0.3H483.4z M479.3,377.7c0.7,0,1.4-0.2,2.1-0.5c0.7-0.4,1.2-0.8,1.5-1.5v-3.2
			h-2c-1.4,0-2.4,0.2-3.1,0.7c-0.7,0.5-1.1,1.2-1.1,2.1c0,0.7,0.2,1.3,0.7,1.7C477.8,377.5,478.5,377.7,479.3,377.7z"/>
		<path d="M494.6,380.4h-3.8v-23.8h3.8V380.4z"/>
		<path d="M498.7,359.2c0-0.6,0.2-1.1,0.6-1.4s0.9-0.6,1.6-0.6s1.2,0.2,1.6,0.6c0.4,0.4,0.6,0.9,0.6,1.4c0,0.6-0.2,1-0.6,1.4
			c-0.4,0.4-0.9,0.6-1.6,0.6s-1.2-0.2-1.6-0.6C498.9,360.3,498.7,359.8,498.7,359.2z M502.7,380.4h-3.8v-16.8h3.8V380.4z"/>
		<path d="M510.8,377.4h8.9v3h-13.6v-2.5l8.5-11.3h-8.4v-3h13.1v2.4L510.8,377.4z"/>
		<path d="M532.8,380.4c-0.2-0.3-0.3-0.8-0.4-1.6c-1.2,1.3-2.7,1.9-4.4,1.9c-1.7,0-3.1-0.5-4.1-1.4c-1.1-1-1.6-2.2-1.6-3.6
			c0-1.8,0.7-3.2,2-4.1s3.2-1.4,5.7-1.4h2.3V369c0-0.9-0.2-1.6-0.7-2.1c-0.5-0.5-1.2-0.8-2.2-0.8c-0.9,0-1.6,0.2-2.1,0.6
			c-0.5,0.4-0.8,1-0.8,1.6h-3.8c0-0.9,0.3-1.8,0.9-2.6s1.4-1.4,2.5-1.9c1-0.5,2.2-0.7,3.5-0.7c2,0,3.5,0.5,4.7,1.5
			c1.2,1,1.8,2.4,1.8,4.2v7.6c0,1.5,0.2,2.7,0.6,3.6v0.3H532.8z M528.7,377.7c0.7,0,1.4-0.2,2.1-0.5c0.7-0.4,1.2-0.8,1.5-1.5v-3.2
			h-2c-1.4,0-2.4,0.2-3.1,0.7c-0.7,0.5-1.1,1.2-1.1,2.1c0,0.7,0.2,1.3,0.7,1.7C527.2,377.5,527.9,377.7,528.7,377.7z"/>
		<path d="M539.3,371.9c0-2.6,0.6-4.7,1.8-6.2c1.2-1.6,2.8-2.4,4.8-2.4c1.8,0,3.2,0.6,4.3,1.9v-8.6h3.8v23.8h-3.4l-0.2-1.7
			c-1.1,1.4-2.6,2-4.5,2c-2,0-3.6-0.8-4.8-2.4C539.9,376.7,539.3,374.6,539.3,371.9z M543.1,372.2c0,1.7,0.3,3,1,4s1.6,1.4,2.8,1.4
			c1.5,0,2.7-0.7,3.4-2.1v-7.2c-0.7-1.3-1.8-2-3.4-2c-1.2,0-2.2,0.5-2.8,1.5C543.4,368.8,543.1,370.3,543.1,372.2z"/>
		<path d="M557.2,371.8c0-1.6,0.3-3.1,1-4.4c0.7-1.3,1.6-2.3,2.7-3c1.2-0.7,2.5-1.1,4.1-1.1c2.3,0,4.1,0.7,5.5,2.2
			c1.4,1.5,2.2,3.4,2.3,5.8l0,0.9c0,1.7-0.3,3.1-1,4.4c-0.6,1.3-1.5,2.3-2.7,3c-1.2,0.7-2.6,1.1-4.1,1.1c-2.4,0-4.3-0.8-5.7-2.4
			c-1.4-1.6-2.1-3.7-2.1-6.3V371.8z M561,372.2c0,1.7,0.4,3.1,1.1,4.1s1.7,1.5,3,1.5s2.3-0.5,3-1.5c0.7-1,1.1-2.4,1.1-4.4
			c0-1.7-0.4-3-1.1-4s-1.7-1.5-3-1.5c-1.2,0-2.2,0.5-2.9,1.5C561.4,368.8,561,370.2,561,372.2z"/>
		<path d="M585.4,375.8c0-0.7-0.3-1.2-0.8-1.5c-0.6-0.4-1.5-0.7-2.8-0.9c-1.3-0.3-2.4-0.6-3.2-1c-1.9-0.9-2.8-2.2-2.8-4
			c0-1.4,0.6-2.7,1.8-3.6c1.2-1,2.8-1.5,4.7-1.5c2,0,3.6,0.5,4.9,1.5c1.2,1,1.9,2.3,1.9,3.9h-3.8c0-0.7-0.3-1.3-0.8-1.8
			c-0.5-0.5-1.3-0.7-2.1-0.7c-0.8,0-1.5,0.2-2,0.6s-0.8,0.9-0.8,1.5c0,0.6,0.2,1,0.7,1.3c0.5,0.3,1.5,0.6,2.9,1
			c1.5,0.3,2.6,0.7,3.5,1.2s1.5,1,1.9,1.6c0.4,0.6,0.6,1.4,0.6,2.3c0,1.5-0.6,2.7-1.9,3.7c-1.3,0.9-2.9,1.4-4.9,1.4
			c-1.4,0-2.6-0.2-3.7-0.7c-1.1-0.5-1.9-1.2-2.5-2s-0.9-1.8-0.9-2.8h3.7c0.1,0.9,0.4,1.6,1,2.1c0.6,0.5,1.4,0.7,2.5,0.7
			c1,0,1.7-0.2,2.3-0.6C585.2,376.9,585.4,376.4,585.4,375.8z"/>
	</g>
</g>
<g>
	<text transform="matrix(1 0 0 1 46.7998 554.3877)" style="font-family:'Roboto-Medium'; font-size:31.7781px;">Grabaciones de encuentros realizados</text>
</g>
<rect x="240.1" y="54" class="st11" width="111.8" height="51.2"/>
<rect x="240.1" y="120.8" class="st11" width="111.8" height="51.2"/>
<g>
	<g>
		<path class="st3" d="M298.4,92.2c3.4-0.2,7.9-0.4,12.4-0.7c2.4-0.2,4.2-1.8,4.5-4.2c0.3-2.3,0.5-4.6,0.6-6.8
			c0.1-3.1,0-6.1-0.6-9.2c-0.4-2.3-1.7-3.6-4-4.1c-1-0.2-2.1-0.3-3.1-0.4c-3.3-0.1-6.5-0.3-9.8-0.3c-4.8,0-9.6,0-14.4,0.5
			c-2.2,0.2-4.3,1.9-4.6,4.1c-0.1,1.2-0.3,2.3-0.4,3.5c-0.2,4.1-0.3,8.2,0.3,12.4c0.3,2.2,1.6,3.7,3.8,4.3c1,0.3,2,0.4,3.1,0.4
			C289.9,91.9,293.6,92,298.4,92.2z"/>
		<path class="st2" d="M298.4,92.2c-4.8-0.2-8.5-0.3-12.2-0.4c-1,0-2.1-0.2-3.1-0.4c-2.1-0.6-3.4-2-3.8-4.3
			c-0.6-4.1-0.5-8.2-0.3-12.4c0.1-1.2,0.3-2.3,0.4-3.5c0.2-2.2,2.4-3.9,4.6-4.1c4.8-0.5,9.6-0.6,14.4-0.5c3.3,0,6.5,0.2,9.8,0.3
			c1,0,2.1,0.2,3.1,0.4c2.3,0.4,3.6,1.8,4,4.1c0.5,3,0.7,6.1,0.6,9.2c-0.1,2.3-0.3,4.6-0.6,6.8c-0.3,2.3-2.1,4-4.5,4.2
			C306.3,91.8,301.8,92,298.4,92.2z M293.8,85c3.1-1.9,6.2-3.8,9.3-5.7c-3.1-1.9-6.2-3.8-9.3-5.7C293.8,77.5,293.8,81.2,293.8,85z"
			/>
		<path class="st3" d="M293.8,85c0-3.8,0-7.5,0-11.4c3.1,1.9,6.2,3.8,9.3,5.7C300,81.2,297,83.1,293.8,85z"/>
	</g>
</g>
<g>
	<g>
		<path class="st3" d="M298.4,159.3c3.4-0.2,7.9-0.4,12.4-0.7c2.4-0.2,4.2-1.8,4.5-4.2c0.3-2.3,0.5-4.6,0.6-6.8
			c0.1-3.1,0-6.1-0.6-9.2c-0.4-2.3-1.7-3.6-4-4.1c-1-0.2-2.1-0.3-3.1-0.4c-3.3-0.1-6.5-0.3-9.8-0.3c-4.8,0-9.6,0-14.4,0.5
			c-2.2,0.2-4.3,1.9-4.6,4.1c-0.1,1.2-0.3,2.3-0.4,3.5c-0.2,4.1-0.3,8.2,0.3,12.4c0.3,2.2,1.6,3.7,3.8,4.3c1,0.3,2,0.4,3.1,0.4
			C289.9,159,293.6,159.1,298.4,159.3z"/>
		<path class="st2" d="M298.4,159.3c-4.8-0.2-8.5-0.3-12.2-0.4c-1,0-2.1-0.2-3.1-0.4c-2.1-0.6-3.4-2-3.8-4.3
			c-0.6-4.1-0.5-8.2-0.3-12.4c0.1-1.2,0.3-2.3,0.4-3.5c0.2-2.2,2.4-3.9,4.6-4.1c4.8-0.5,9.6-0.6,14.4-0.5c3.3,0,6.5,0.2,9.8,0.3
			c1,0,2.1,0.2,3.1,0.4c2.3,0.4,3.6,1.8,4,4.1c0.5,3,0.7,6.1,0.6,9.2c-0.1,2.3-0.3,4.6-0.6,6.8c-0.3,2.3-2.1,4-4.5,4.2
			C306.3,158.9,301.8,159.1,298.4,159.3z M293.8,152.1c3.1-1.9,6.2-3.8,9.3-5.7c-3.1-1.9-6.2-3.8-9.3-5.7
			C293.8,144.5,293.8,148.2,293.8,152.1z"/>
		<path class="st3" d="M293.8,152.1c0-3.8,0-7.5,0-11.4c3.1,1.9,6.2,3.8,9.3,5.7C300,148.3,297,150.1,293.8,152.1z"/>
	</g>
</g>
</svg>
