<?xml version="1.0" encoding="utf-8"?>
<!-- Generator: Adobe Illustrator 25.2.1, SVG Export Plug-In . SVG Version: 6.00 Build 0)  -->
<!DOCTYPE svg PUBLIC "-//W3C//DTD SVG 1.1//EN" "http://www.w3.org/Graphics/SVG/1.1/DTD/svg11.dtd" [
	<!ENTITY ns_extend "http://ns.adobe.com/Extensibility/1.0/">
	<!ENTITY ns_ai "http://ns.adobe.com/AdobeIllustrator/10.0/">
	<!ENTITY ns_graphs "http://ns.adobe.com/Graphs/1.0/">
	<!ENTITY ns_vars "http://ns.adobe.com/Variables/1.0/">
	<!ENTITY ns_imrep "http://ns.adobe.com/ImageReplacement/1.0/">
	<!ENTITY ns_sfw "http://ns.adobe.com/SaveForWeb/1.0/">
	<!ENTITY ns_custom "http://ns.adobe.com/GenericCustomNamespace/1.0/">
	<!ENTITY ns_adobe_xpath "http://ns.adobe.com/XPath/1.0/">
]>
<svg version="1.1" id="Capa_1" xmlns:x="&ns_extend;" xmlns:i="&ns_ai;" xmlns:graph="&ns_graphs;"
	 xmlns="http://www.w3.org/2000/svg" xmlns:xlink="http://www.w3.org/1999/xlink" x="0px" y="0px" viewBox="0 0 632.6 412.9"
	 style="enable-background:new 0 0 632.6 412.9;" xml:space="preserve">
<style type="text/css">
	.st0{fill:#DDDDDD;}
	.st1{fill:#FFFFFF;}
	.st2{enable-background:new    ;}
	.st3{fill:#21329B;}
	.st4{fill:#19297C;}
	.st5{fill:#0E1663;}
	.st6{fill:#FF5A5A;}
</style>
<metadata>
	<sfw  xmlns="&ns_sfw;">
		<slices></slices>
		<sliceSourceBounds  bottomLeftOrigin="true" height="768" width="700.4" x="3.3" y="-199"></sliceSourceBounds>
	</sfw>
</metadata>
<path class="st0" d="M594.6,412.9H38c-19.1,0-34.7-15.5-34.7-34.7V36C3.3,16.9,18.8,1.4,38,1.4h556.7c19.1,0,34.7,15.5,34.7,34.7
	v342.2C629.3,397.4,613.8,412.9,594.6,412.9z"/>
<path class="st1" d="M592.4,294H40.2c-10.8,0-19.5-8.7-19.5-19.5v-236c0-10.8,8.7-19.5,19.5-19.5h552.2c10.8,0,19.5,8.7,19.5,19.5
	v236C611.9,285.3,603.2,294,592.4,294z"/>
<path class="st0" d="M703.7-72.5h-633v-62c0-11.9,10.7-21.6,22.6-21.6h586.8c11.9,0,23.6,9.7,23.6,21.6V-72.5z"/>
<g>
	<g class="st2">
		<path d="M118.5,608.6c-0.8,1.1-1.9,1.9-3.4,2.4c-1.4,0.5-3.1,0.8-4.9,0.8c-1.9,0-3.6-0.4-5-1.3c-1.5-0.9-2.6-2.1-3.4-3.7
			c-0.8-1.6-1.2-3.5-1.2-5.6v-1.8c0-3.4,0.8-6.1,2.5-8c1.6-1.9,3.9-2.9,6.8-2.9c2.5,0,4.5,0.6,6,1.9c1.5,1.2,2.4,3,2.7,5.4h-3.8
			c-0.4-2.7-2-4.1-4.7-4.1c-1.8,0-3.1,0.6-4,1.9s-1.4,3.1-1.4,5.6v1.7c0,2.4,0.5,4.3,1.5,5.7s2.5,2,4.3,2c2,0,3.4-0.5,4.3-1.4v-4.4
			h-4.7v-3h8.6v8.8H118.5z"/>
		<path d="M131.3,598.1c-0.5-0.1-1-0.1-1.5-0.1c-1.7,0-2.9,0.7-3.5,2v11.5h-3.8v-16.8h3.6l0.1,1.9c0.9-1.5,2.2-2.2,3.8-2.2
			c0.5,0,1,0.1,1.3,0.2L131.3,598.1z"/>
		<path d="M143.2,611.5c-0.2-0.3-0.3-0.8-0.4-1.6c-1.2,1.3-2.7,1.9-4.4,1.9s-3.1-0.5-4.1-1.4c-1-0.9-1.6-2.2-1.6-3.6
			c0-1.8,0.7-3.2,2-4.1c1.3-1,3.2-1.4,5.7-1.4h2.3v-1.2c0-0.9-0.2-1.6-0.7-2.1s-1.2-0.8-2.2-0.8c-0.9,0-1.6,0.2-2.1,0.6
			c-0.5,0.4-0.8,1-0.8,1.6h-3.8c0-0.9,0.3-1.8,0.9-2.6c0.6-0.8,1.4-1.4,2.5-1.9c1-0.5,2.2-0.7,3.5-0.7c2,0,3.5,0.5,4.7,1.5
			s1.8,2.4,1.8,4.2v7.6c0,1.5,0.2,2.7,0.6,3.6v0.3L143.2,611.5L143.2,611.5z M139.1,608.8c0.7,0,1.4-0.2,2.1-0.5
			c0.7-0.4,1.2-0.8,1.5-1.5v-3.2h-2c-1.4,0-2.4,0.2-3.1,0.7s-1.1,1.2-1.1,2.1c0,0.7,0.2,1.3,0.7,1.7
			C137.6,608.6,138.2,608.8,139.1,608.8z"/>
		<path d="M165.1,603.3c0,2.6-0.6,4.7-1.7,6.2c-1.2,1.5-2.8,2.3-4.8,2.3s-3.5-0.7-4.6-2.1l-0.2,1.8h-3.4v-23.8h3.8v8.7
			c1.1-1.3,2.5-1.9,4.4-1.9c2,0,3.7,0.8,4.8,2.3c1.2,1.5,1.8,3.6,1.8,6.4v0.1H165.1z M161.3,602.9c0-1.8-0.3-3.2-1-4.1
			c-0.6-0.9-1.6-1.4-2.8-1.4c-1.6,0-2.8,0.7-3.4,2.1v6.9c0.7,1.5,1.8,2.2,3.5,2.2c1.2,0,2.1-0.4,2.7-1.3c0.6-0.9,1-2.2,1-4
			C161.3,603.3,161.3,602.9,161.3,602.9z"/>
		<path d="M178.3,611.5c-0.2-0.3-0.3-0.8-0.4-1.6c-1.2,1.3-2.7,1.9-4.4,1.9c-1.7,0-3.1-0.5-4.1-1.4c-1-0.9-1.6-2.2-1.6-3.6
			c0-1.8,0.7-3.2,2-4.1c1.3-1,3.2-1.4,5.7-1.4h2.3v-1.2c0-0.9-0.2-1.6-0.7-2.1s-1.2-0.8-2.2-0.8c-0.9,0-1.6,0.2-2.1,0.6
			c-0.5,0.4-0.8,1-0.8,1.6h-3.9c0-0.9,0.3-1.8,0.9-2.6c0.6-0.8,1.4-1.4,2.5-1.9c1-0.5,2.2-0.7,3.5-0.7c2,0,3.5,0.5,4.7,1.5
			s1.8,2.4,1.8,4.2v7.6c0,1.5,0.2,2.7,0.6,3.6v0.3L178.3,611.5L178.3,611.5z M174.1,608.8c0.7,0,1.4-0.2,2.1-0.5
			c0.7-0.4,1.2-0.8,1.5-1.5v-3.2h-2c-1.4,0-2.4,0.2-3.1,0.7s-1.1,1.2-1.1,2.1c0,0.7,0.2,1.3,0.7,1.7
			C172.7,608.6,173.3,608.8,174.1,608.8z"/>
		<path d="M192.3,608.8c0.9,0,1.7-0.3,2.3-0.8s1-1.2,1-2h3.6c0,1-0.4,2-1,2.9c-0.6,0.9-1.4,1.6-2.5,2.1c-1,0.5-2.2,0.8-3.4,0.8
			c-2.3,0-4.2-0.8-5.6-2.3c-1.4-1.5-2.1-3.6-2.1-6.3v-0.4c0-2.6,0.7-4.6,2-6.1c1.4-1.5,3.2-2.3,5.6-2.3c2,0,3.6,0.6,4.9,1.7
			c1.3,1.2,1.9,2.7,2,4.6h-3.6c0-1-0.4-1.8-1-2.4c-0.6-0.6-1.4-0.9-2.4-0.9c-1.2,0-2.2,0.4-2.8,1.3c-0.6,0.9-1,2.2-1,4v0.6
			c0,1.8,0.3,3.2,1,4.1C190.2,608.3,191.1,608.8,192.3,608.8z"/>
		<path d="M202.1,590.3c0-0.6,0.2-1.1,0.6-1.4s0.9-0.6,1.6-0.6s1.2,0.2,1.6,0.6c0.4,0.4,0.6,0.9,0.6,1.4c0,0.6-0.2,1-0.6,1.4
			c-0.4,0.4-0.9,0.6-1.6,0.6s-1.2-0.2-1.6-0.6C202.3,591.4,202.1,590.9,202.1,590.3z M206.1,611.5h-3.8v-16.8h3.8V611.5z"/>
		<path d="M209.5,602.9c0-1.6,0.3-3.1,1-4.4s1.6-2.3,2.7-3c1.2-0.7,2.5-1.1,4.1-1.1c2.3,0,4.1,0.7,5.5,2.2s2.2,3.4,2.3,5.8v0.9
			c0,1.7-0.3,3.1-1,4.4s-1.5,2.3-2.7,3s-2.6,1.1-4.1,1.1c-2.4,0-4.3-0.8-5.7-2.4c-1.4-1.6-2.1-3.7-2.1-6.3V602.9z M213.3,603.3
			c0,1.7,0.4,3.1,1.1,4.1s1.7,1.5,3,1.5s2.3-0.5,3-1.5s1.1-2.4,1.1-4.4c0-1.7-0.4-3-1.1-4c-0.7-1-1.7-1.5-3-1.5
			c-1.2,0-2.2,0.5-2.9,1.5S213.3,601.3,213.3,603.3z"/>
		<path d="M231.8,594.7l0.1,1.9c1.2-1.5,2.9-2.3,4.9-2.3c3.5,0,5.3,2,5.3,6v11.1h-3.8v-10.9c0-1.1-0.2-1.9-0.7-2.4s-1.2-0.8-2.3-0.8
			c-1.5,0-2.7,0.7-3.4,2.1v11.9h-3.8v-16.8h3.7V594.7z"/>
		<path d="M253.4,611.8c-2.4,0-4.3-0.8-5.8-2.3s-2.2-3.5-2.2-6v-0.4c0-1.7,0.3-3.2,1-4.5c0.6-1.3,1.6-2.3,2.7-3.1
			c1.2-0.7,2.5-1.1,3.9-1.1c2.3,0,4.1,0.7,5.3,2.2c1.2,1.5,1.9,3.5,1.9,6.2v1.5h-11c0.1,1.4,0.6,2.5,1.4,3.3s1.8,1.2,3.1,1.2
			c1.7,0,3.1-0.7,4.2-2.1l2,1.9c-0.7,1-1.6,1.8-2.7,2.3C256,611.5,254.7,611.8,253.4,611.8z M252.9,597.4c-1,0-1.9,0.4-2.5,1.1
			s-1,1.7-1.2,3h7.2v-0.3c-0.1-1.3-0.4-2.2-1-2.9C254.8,597.6,253.9,597.4,252.9,597.4z"/>
		<path d="M272.4,606.9c0-0.7-0.3-1.2-0.8-1.5c-0.6-0.4-1.5-0.7-2.8-0.9c-1.3-0.3-2.4-0.6-3.2-1c-1.9-0.9-2.8-2.2-2.8-4
			c0-1.4,0.6-2.7,1.8-3.6c1.2-0.9,2.8-1.5,4.7-1.5c2,0,3.6,0.5,4.9,1.5c1.2,1,1.9,2.3,1.9,3.9h-3.8c0-0.7-0.3-1.3-0.8-1.8
			s-1.3-0.7-2.1-0.7c-0.8,0-1.5,0.2-2,0.6c-0.5,0.4-0.8,0.9-0.8,1.5c0,0.6,0.2,1,0.7,1.3s1.5,0.6,2.9,1c1.5,0.3,2.6,0.7,3.5,1.2
			s1.5,1,1.9,1.6c0.4,0.6,0.6,1.4,0.6,2.3c0,1.5-0.6,2.7-1.9,3.7c-1.3,0.9-2.9,1.4-4.9,1.4c-1.4,0-2.6-0.2-3.7-0.7
			c-1.1-0.5-1.9-1.2-2.5-2c-0.6-0.9-0.9-1.8-0.9-2.8h3.7c0.1,0.9,0.4,1.6,1,2.1s1.4,0.7,2.5,0.7c1,0,1.7-0.2,2.3-0.6
			C272.2,608,272.4,607.5,272.4,606.9z"/>
		<path d="M286.6,603c0-2.6,0.6-4.7,1.8-6.2c1.2-1.6,2.8-2.4,4.8-2.4c1.8,0,3.2,0.6,4.3,1.9v-8.6h3.8v23.8h-3.4l-0.2-1.7
			c-1.1,1.4-2.6,2-4.5,2c-2,0-3.6-0.8-4.8-2.4C287.2,607.8,286.6,605.7,286.6,603z M290.4,603.3c0,1.7,0.3,3,1,4
			c0.7,1,1.6,1.4,2.8,1.4c1.5,0,2.7-0.7,3.4-2.1v-7.2c-0.7-1.3-1.8-2-3.4-2c-1.2,0-2.2,0.5-2.8,1.5
			C290.7,599.9,290.4,601.4,290.4,603.3z"/>
		<path d="M312.7,611.8c-2.4,0-4.3-0.8-5.8-2.3c-1.5-1.5-2.2-3.5-2.2-6v-0.4c0-1.7,0.3-3.2,1-4.5c0.6-1.3,1.6-2.3,2.7-3.1
			c1.2-0.7,2.5-1.1,3.9-1.1c2.3,0,4.1,0.7,5.3,2.2c1.2,1.5,1.9,3.5,1.9,6.2v1.5h-11c0.1,1.4,0.6,2.5,1.4,3.3s1.8,1.2,3.1,1.2
			c1.7,0,3.1-0.7,4.2-2.1l2,1.9c-0.7,1-1.6,1.8-2.7,2.3C315.3,611.5,314.1,611.8,312.7,611.8z M312.2,597.4c-1,0-1.9,0.4-2.5,1.1
			s-1,1.7-1.2,3h7.2v-0.3c-0.1-1.3-0.4-2.2-1-2.9C314.1,597.6,313.3,597.4,312.2,597.4z"/>
		<path d="M337.6,611.8c-2.4,0-4.3-0.8-5.8-2.3s-2.2-3.5-2.2-6v-0.4c0-1.7,0.3-3.2,1-4.5c0.6-1.3,1.6-2.3,2.7-3.1
			c1.2-0.7,2.5-1.1,3.9-1.1c2.3,0,4.1,0.7,5.3,2.2c1.2,1.5,1.9,3.5,1.9,6.2v1.5h-11c0.1,1.4,0.6,2.5,1.4,3.3s1.8,1.2,3.1,1.2
			c1.7,0,3.1-0.7,4.2-2.1l2,1.9c-0.7,1-1.6,1.8-2.7,2.3C340.3,611.5,339,611.8,337.6,611.8z M337.2,597.4c-1,0-1.9,0.4-2.5,1.1
			s-1,1.7-1.2,3h7.2v-0.3c-0.1-1.3-0.4-2.2-1-2.9C339.1,597.6,338.2,597.4,337.2,597.4z"/>
		<path d="M350.8,594.7l0.1,1.9c1.2-1.5,2.9-2.3,4.9-2.3c3.5,0,5.3,2,5.3,6v11.1h-3.8v-10.9c0-1.1-0.2-1.9-0.7-2.4s-1.2-0.8-2.3-0.8
			c-1.5,0-2.7,0.7-3.4,2.1v11.9h-3.8v-16.8h3.7V594.7z"/>
		<path d="M371.9,608.8c0.9,0,1.7-0.3,2.3-0.8c0.6-0.5,1-1.2,1-2h3.6c0,1-0.4,2-1,2.9c-0.6,0.9-1.4,1.6-2.5,2.1
			c-1,0.5-2.2,0.8-3.4,0.8c-2.3,0-4.2-0.8-5.6-2.3s-2.1-3.6-2.1-6.3v-0.4c0-2.6,0.7-4.6,2-6.1c1.4-1.5,3.2-2.3,5.6-2.3
			c2,0,3.6,0.6,4.9,1.7c1.3,1.2,1.9,2.7,2,4.6h-3.6c0-1-0.4-1.8-1-2.4c-0.6-0.6-1.4-0.9-2.4-0.9c-1.2,0-2.2,0.4-2.8,1.3
			c-0.6,0.9-1,2.2-1,4v0.6c0,1.8,0.3,3.2,1,4.1C369.6,608.3,370.6,608.8,371.9,608.8z"/>
		<path d="M391.8,609.8c-1.1,1.3-2.7,2-4.7,2c-1.8,0-3.2-0.5-4.1-1.6c-0.9-1.1-1.4-2.6-1.4-4.6v-10.9h3.8v10.8
			c0,2.1,0.9,3.2,2.7,3.2c1.8,0,3.1-0.7,3.7-2v-12.1h3.8v16.8H392L391.8,609.8z"/>
		<path d="M406.6,611.8c-2.4,0-4.3-0.8-5.8-2.3s-2.2-3.5-2.2-6v-0.4c0-1.7,0.3-3.2,1-4.5c0.6-1.3,1.6-2.3,2.7-3.1
			c1.2-0.7,2.5-1.1,3.9-1.1c2.3,0,4.1,0.7,5.3,2.2c1.2,1.5,1.9,3.5,1.9,6.2v1.5h-11c0.1,1.4,0.6,2.5,1.4,3.3s1.8,1.2,3.1,1.2
			c1.7,0,3.1-0.7,4.2-2.1l2,1.9c-0.7,1-1.6,1.8-2.7,2.3C409.3,611.5,408,611.8,406.6,611.8z M406.2,597.4c-1,0-1.9,0.4-2.5,1.1
			s-1,1.7-1.2,3h7.2v-0.3c-0.1-1.3-0.4-2.2-1-2.9C408.1,597.6,407.2,597.4,406.2,597.4z"/>
		<path d="M419.8,594.7l0.1,1.9c1.2-1.5,2.9-2.3,4.9-2.3c3.5,0,5.3,2,5.3,6v11.1h-3.8v-10.9c0-1.1-0.2-1.9-0.7-2.4s-1.2-0.8-2.3-0.8
			c-1.5,0-2.7,0.7-3.4,2.1v11.9h-3.8v-16.8h3.7V594.7z"/>
		<path d="M438.7,590.6v4.1h3v2.8h-3v9.4c0,0.6,0.1,1.1,0.4,1.4s0.7,0.4,1.4,0.4c0.4,0,0.9-0.1,1.3-0.2v2.9
			c-0.9,0.2-1.7,0.4-2.5,0.4c-2.9,0-4.3-1.6-4.3-4.8v-9.5h-2.8v-2.8h2.8v-4.1H438.7L438.7,590.6z"/>
		<path d="M453.3,598.1c-0.5-0.1-1-0.1-1.5-0.1c-1.7,0-2.9,0.7-3.5,2v11.5h-3.8v-16.8h3.6l0.1,1.9c0.9-1.5,2.2-2.2,3.8-2.2
			c0.5,0,1,0.1,1.3,0.2V598.1z"/>
		<path d="M454.4,602.9c0-1.6,0.3-3.1,1-4.4s1.6-2.3,2.7-3c1.2-0.7,2.5-1.1,4.1-1.1c2.3,0,4.1,0.7,5.5,2.2s2.2,3.4,2.3,5.8v0.9
			c0,1.7-0.3,3.1-1,4.4c-0.6,1.3-1.5,2.3-2.7,3s-2.6,1.1-4.1,1.1c-2.4,0-4.3-0.8-5.7-2.4c-1.4-1.6-2.1-3.7-2.1-6.3L454.4,602.9
			L454.4,602.9z M458.2,603.3c0,1.7,0.4,3.1,1.1,4.1s1.7,1.5,3,1.5s2.3-0.5,3-1.5s1.1-2.4,1.1-4.4c0-1.7-0.4-3-1.1-4s-1.7-1.5-3-1.5
			c-1.2,0-2.2,0.5-2.9,1.5C458.6,599.9,458.2,601.3,458.2,603.3z"/>
		<path d="M482.7,606.9c0-0.7-0.3-1.2-0.8-1.5c-0.6-0.4-1.5-0.7-2.8-0.9c-1.3-0.3-2.4-0.6-3.2-1c-1.9-0.9-2.8-2.2-2.8-4
			c0-1.4,0.6-2.7,1.8-3.6c1.2-1,2.8-1.5,4.7-1.5c2,0,3.6,0.5,4.9,1.5c1.2,1,1.9,2.3,1.9,3.9h-3.8c0-0.7-0.3-1.3-0.8-1.8
			s-1.3-0.7-2.1-0.7c-0.8,0-1.5,0.2-2,0.6c-0.5,0.4-0.8,0.9-0.8,1.5c0,0.6,0.2,1,0.7,1.3s1.5,0.6,2.9,1c1.5,0.3,2.6,0.7,3.5,1.2
			s1.5,1,1.9,1.6c0.4,0.6,0.6,1.4,0.6,2.3c0,1.5-0.6,2.7-1.9,3.7c-1.3,0.9-2.9,1.4-4.9,1.4c-1.4,0-2.6-0.2-3.7-0.7s-1.9-1.2-2.5-2
			s-0.9-1.8-0.9-2.8h3.7c0.1,0.9,0.4,1.6,1,2.1s1.4,0.7,2.5,0.7c1,0,1.7-0.2,2.3-0.6C482.4,608,482.7,607.5,482.7,606.9z"/>
		<path d="M506.4,598.1c-0.5-0.1-1-0.1-1.5-0.1c-1.7,0-2.9,0.7-3.5,2v11.5h-3.8v-16.8h3.6l0.1,1.9c0.9-1.5,2.2-2.2,3.8-2.2
			c0.5,0,1,0.1,1.3,0.2V598.1z"/>
		<path d="M515.8,611.8c-2.4,0-4.3-0.8-5.8-2.3s-2.2-3.5-2.2-6v-0.4c0-1.7,0.3-3.2,1-4.5c0.6-1.3,1.6-2.3,2.7-3.1
			c1.2-0.7,2.5-1.1,3.9-1.1c2.3,0,4.1,0.7,5.3,2.2s1.9,3.5,1.9,6.2v1.5h-11c0.1,1.4,0.6,2.5,1.4,3.3s1.8,1.2,3.1,1.2
			c1.7,0,3.1-0.7,4.2-2.1l2,1.9c-0.7,1-1.6,1.8-2.7,2.3C518.5,611.5,517.2,611.8,515.8,611.8z M515.4,597.4c-1,0-1.9,0.4-2.5,1.1
			c-0.6,0.7-1,1.7-1.2,3h7.2v-0.3c-0.1-1.3-0.4-2.2-1-2.9C517.3,597.6,516.4,597.4,515.4,597.4z"/>
		<path d="M535.5,611.5c-0.2-0.3-0.3-0.8-0.4-1.6c-1.2,1.3-2.7,1.9-4.4,1.9c-1.7,0-3.1-0.5-4.1-1.4c-1.1-1-1.6-2.2-1.6-3.6
			c0-1.8,0.7-3.2,2-4.1c1.3-0.9,3.2-1.4,5.7-1.4h2.3v-1.2c0-0.9-0.2-1.6-0.7-2.1s-1.2-0.8-2.2-0.8c-0.9,0-1.6,0.2-2.1,0.6
			c-0.5,0.4-0.8,1-0.8,1.6h-3.8c0-0.9,0.3-1.8,0.9-2.6c0.6-0.8,1.4-1.4,2.5-1.9c1-0.5,2.2-0.7,3.5-0.7c2,0,3.5,0.5,4.7,1.5
			s1.8,2.4,1.8,4.2v7.6c0,1.5,0.2,2.7,0.6,3.6v0.3L535.5,611.5L535.5,611.5z M531.4,608.8c0.7,0,1.4-0.2,2.1-0.5
			c0.7-0.4,1.2-0.8,1.5-1.5v-3.2h-2c-1.4,0-2.4,0.2-3.1,0.7s-1.1,1.2-1.1,2.1c0,0.7,0.2,1.3,0.7,1.7
			C529.9,608.6,530.6,608.8,531.4,608.8z"/>
		<path d="M546.7,611.5h-3.8v-23.8h3.8V611.5z"/>
		<path d="M550.8,590.3c0-0.6,0.2-1.1,0.6-1.4c0.4-0.3,0.9-0.6,1.6-0.6s1.2,0.2,1.6,0.6c0.4,0.4,0.6,0.9,0.6,1.4
			c0,0.6-0.2,1-0.6,1.4c-0.4,0.4-0.9,0.6-1.6,0.6s-1.2-0.2-1.6-0.6C551,591.4,550.8,590.9,550.8,590.3z M554.8,611.5H551v-16.8h3.8
			V611.5z"/>
		<path d="M562.9,608.5h8.9v3h-13.6V609l8.5-11.3h-8.4v-3h13.1v2.4L562.9,608.5z"/>
		<path d="M584.9,611.5c-0.2-0.3-0.3-0.8-0.4-1.6c-1.2,1.3-2.7,1.9-4.4,1.9s-3.1-0.5-4.1-1.4c-1.1-1-1.6-2.2-1.6-3.6
			c0-1.8,0.7-3.2,2-4.1c1.3-0.9,3.2-1.4,5.7-1.4h2.3v-1.2c0-0.9-0.2-1.6-0.7-2.1s-1.2-0.8-2.2-0.8c-0.9,0-1.6,0.2-2.1,0.6
			c-0.5,0.4-0.8,1-0.8,1.6h-3.8c0-0.9,0.3-1.8,0.9-2.6c0.6-0.8,1.4-1.4,2.5-1.9c1-0.5,2.2-0.7,3.5-0.7c2,0,3.5,0.5,4.7,1.5
			s1.8,2.4,1.8,4.2v7.6c0,1.5,0.2,2.7,0.6,3.6v0.3L584.9,611.5L584.9,611.5z M580.8,608.8c0.7,0,1.4-0.2,2.1-0.5
			c0.7-0.4,1.2-0.8,1.5-1.5v-3.2h-2c-1.4,0-2.4,0.2-3.1,0.7c-0.7,0.5-1.1,1.2-1.1,2.1c0,0.7,0.2,1.3,0.7,1.7
			C579.3,608.6,580,608.8,580.8,608.8z"/>
		<path d="M591.4,603c0-2.6,0.6-4.7,1.8-6.2c1.2-1.6,2.8-2.4,4.8-2.4c1.8,0,3.2,0.6,4.3,1.9v-8.6h3.8v23.8h-3.4l-0.2-1.7
			c-1.1,1.4-2.6,2-4.5,2c-2,0-3.6-0.8-4.8-2.4C592,607.8,591.4,605.7,591.4,603z M595.2,603.3c0,1.7,0.3,3,1,4s1.6,1.4,2.8,1.4
			c1.5,0,2.7-0.7,3.4-2.1v-7.2c-0.7-1.3-1.8-2-3.4-2c-1.2,0-2.2,0.5-2.8,1.5C595.5,599.9,595.2,601.4,595.2,603.3z"/>
		<path d="M609.3,602.9c0-1.6,0.3-3.1,1-4.4s1.6-2.3,2.7-3c1.2-0.7,2.5-1.1,4.1-1.1c2.3,0,4.1,0.7,5.5,2.2s2.2,3.4,2.3,5.8v0.9
			c0,1.7-0.3,3.1-1,4.4c-0.6,1.3-1.5,2.3-2.7,3s-2.6,1.1-4.1,1.1c-2.4,0-4.3-0.8-5.7-2.4c-1.4-1.6-2.1-3.7-2.1-6.3V602.9z
			 M613.1,603.3c0,1.7,0.4,3.1,1.1,4.1s1.7,1.5,3,1.5s2.3-0.5,3-1.5s1.1-2.4,1.1-4.4c0-1.7-0.4-3-1.1-4s-1.7-1.5-3-1.5
			c-1.2,0-2.2,0.5-2.9,1.5C613.5,599.9,613.1,601.3,613.1,603.3z"/>
		<path d="M637.5,606.9c0-0.7-0.3-1.2-0.8-1.5c-0.6-0.4-1.5-0.7-2.8-0.9c-1.3-0.3-2.4-0.6-3.2-1c-1.9-0.9-2.8-2.2-2.8-4
			c0-1.4,0.6-2.7,1.8-3.6c1.2-1,2.8-1.5,4.7-1.5c2,0,3.6,0.5,4.9,1.5c1.2,1,1.9,2.3,1.9,3.9h-3.8c0-0.7-0.3-1.3-0.8-1.8
			s-1.3-0.7-2.1-0.7s-1.5,0.2-2,0.6c-0.5,0.4-0.8,0.9-0.8,1.5c0,0.6,0.2,1,0.7,1.3s1.5,0.6,2.9,1c1.5,0.3,2.6,0.7,3.5,1.2
			s1.5,1,1.9,1.6c0.4,0.6,0.6,1.4,0.6,2.3c0,1.5-0.6,2.7-1.9,3.7c-1.3,0.9-2.9,1.4-4.9,1.4c-1.4,0-2.6-0.2-3.7-0.7
			c-1.1-0.5-1.9-1.2-2.5-2s-0.9-1.8-0.9-2.8h3.7c0.1,0.9,0.4,1.6,1,2.1s1.4,0.7,2.5,0.7c1,0,1.7-0.2,2.3-0.6
			C637.3,608,637.5,607.5,637.5,606.9z"/>
	</g>
</g>
<g>
	<g class="st2">
		<path d="M71.5,341.5c-0.8,1.1-2,1.9-3.4,2.4c-1.4,0.5-3.1,0.8-4.9,0.8c-1.9,0-3.6-0.4-5-1.3c-1.5-0.9-2.6-2.1-3.4-3.7
			c-0.8-1.6-1.2-3.5-1.2-5.6v-1.8c0-3.4,0.8-6.1,2.5-8c1.6-1.9,3.9-2.9,6.8-2.9c2.5,0,4.5,0.6,6,1.9c1.5,1.2,2.4,3,2.7,5.4h-3.8
			c-0.4-2.7-2-4.1-4.7-4.1c-1.8,0-3.1,0.6-4,1.9c-0.9,1.3-1.4,3.1-1.4,5.6v1.7c0,2.4,0.5,4.3,1.5,5.7s2.5,2,4.3,2
			c2,0,3.4-0.5,4.3-1.4v-4.4H63v-3h8.6V341.5z"/>
		<path d="M84.3,331c-0.5-0.1-1-0.1-1.5-0.1c-1.7,0-2.9,0.7-3.5,2v11.5h-3.8v-16.8h3.6l0.1,1.9c0.9-1.5,2.2-2.2,3.8-2.2
			c0.5,0,1,0.1,1.3,0.2L84.3,331z"/>
		<path d="M96.2,344.4c-0.2-0.3-0.3-0.8-0.4-1.6c-1.2,1.3-2.7,1.9-4.4,1.9c-1.7,0-3.1-0.5-4.1-1.4s-1.6-2.2-1.6-3.6
			c0-1.8,0.7-3.2,2-4.1c1.3-1,3.2-1.4,5.7-1.4h2.3V333c0-0.9-0.2-1.6-0.7-2.1s-1.2-0.8-2.2-0.8c-0.9,0-1.6,0.2-2.1,0.6
			c-0.5,0.4-0.8,1-0.8,1.6H86c0-0.9,0.3-1.8,0.9-2.6s1.4-1.4,2.5-1.9c1-0.5,2.2-0.7,3.5-0.7c2,0,3.5,0.5,4.7,1.5
			c1.2,1,1.8,2.4,1.8,4.2v7.6c0,1.5,0.2,2.7,0.6,3.6v0.3H96.2z M92.1,341.7c0.7,0,1.4-0.2,2.1-0.5c0.7-0.4,1.2-0.8,1.5-1.5v-3.2h-2
			c-1.4,0-2.4,0.2-3.1,0.7c-0.7,0.5-1.1,1.2-1.1,2.1c0,0.7,0.2,1.3,0.7,1.7C90.6,341.5,91.3,341.7,92.1,341.7z"/>
		<path d="M118.1,336.2c0,2.6-0.6,4.7-1.7,6.2c-1.2,1.5-2.8,2.3-4.8,2.3c-2,0-3.5-0.7-4.6-2.1l-0.2,1.8h-3.4v-23.8h3.8v8.7
			c1.1-1.3,2.5-1.9,4.4-1.9c2,0,3.7,0.8,4.8,2.3c1.2,1.5,1.8,3.6,1.8,6.4V336.2z M114.4,335.8c0-1.8-0.3-3.2-1-4.1
			c-0.6-0.9-1.6-1.4-2.8-1.4c-1.6,0-2.8,0.7-3.4,2.1v6.9c0.7,1.5,1.8,2.2,3.5,2.2c1.2,0,2.1-0.4,2.7-1.3c0.6-0.9,1-2.2,1-4V335.8z"
			/>
		<path d="M131.3,344.4c-0.2-0.3-0.3-0.8-0.4-1.6c-1.2,1.3-2.7,1.9-4.4,1.9c-1.7,0-3.1-0.5-4.1-1.4s-1.6-2.2-1.6-3.6
			c0-1.8,0.7-3.2,2-4.1c1.3-1,3.2-1.4,5.7-1.4h2.3V333c0-0.9-0.2-1.6-0.7-2.1s-1.2-0.8-2.2-0.8c-0.9,0-1.6,0.2-2.1,0.6
			c-0.5,0.4-0.8,1-0.8,1.6h-3.8c0-0.9,0.3-1.8,0.9-2.6s1.4-1.4,2.5-1.9c1-0.5,2.2-0.7,3.5-0.7c2,0,3.5,0.5,4.7,1.5
			c1.2,1,1.8,2.4,1.8,4.2v7.6c0,1.5,0.2,2.7,0.6,3.6v0.3H131.3z M127.2,341.7c0.7,0,1.4-0.2,2.1-0.5c0.7-0.4,1.2-0.8,1.5-1.5v-3.2
			h-2c-1.4,0-2.4,0.2-3.1,0.7c-0.7,0.5-1.1,1.2-1.1,2.1c0,0.7,0.2,1.3,0.7,1.7C125.7,341.5,126.4,341.7,127.2,341.7z"/>
		<path d="M145.4,341.7c0.9,0,1.7-0.3,2.3-0.8c0.6-0.5,1-1.2,1-2h3.6c0,1-0.4,2-1,2.9s-1.4,1.6-2.5,2.1c-1,0.5-2.2,0.8-3.4,0.8
			c-2.3,0-4.2-0.8-5.6-2.3c-1.4-1.5-2.1-3.6-2.1-6.3v-0.4c0-2.6,0.7-4.6,2-6.1c1.4-1.5,3.2-2.3,5.6-2.3c2,0,3.6,0.6,4.9,1.7
			c1.3,1.2,1.9,2.7,2,4.6h-3.6c0-1-0.4-1.8-1-2.4c-0.6-0.6-1.4-0.9-2.4-0.9c-1.2,0-2.2,0.4-2.8,1.3s-1,2.2-1,4v0.6
			c0,1.8,0.3,3.2,1,4.1C143.2,341.2,144.1,341.7,145.4,341.7z"/>
		<path d="M155.1,323.2c0-0.6,0.2-1.1,0.6-1.4s0.9-0.6,1.6-0.6s1.2,0.2,1.6,0.6c0.4,0.4,0.6,0.9,0.6,1.4c0,0.6-0.2,1-0.6,1.4
			c-0.4,0.4-0.9,0.6-1.6,0.6s-1.2-0.2-1.6-0.6C155.3,324.3,155.1,323.8,155.1,323.2z M159.1,344.4h-3.8v-16.8h3.8V344.4z"/>
		<path d="M162.5,335.8c0-1.6,0.3-3.1,1-4.4c0.7-1.3,1.6-2.3,2.7-3c1.2-0.7,2.5-1.1,4.1-1.1c2.3,0,4.1,0.7,5.5,2.2
			c1.4,1.5,2.2,3.4,2.3,5.8l0,0.9c0,1.7-0.3,3.1-1,4.4s-1.5,2.3-2.7,3c-1.2,0.7-2.6,1.1-4.1,1.1c-2.4,0-4.3-0.8-5.7-2.4
			c-1.4-1.6-2.1-3.7-2.1-6.3V335.8z M166.3,336.2c0,1.7,0.4,3.1,1.1,4.1s1.7,1.5,3,1.5c1.3,0,2.3-0.5,3-1.5s1.1-2.4,1.1-4.4
			c0-1.7-0.4-3-1.1-4c-0.7-1-1.7-1.5-3-1.5c-1.2,0-2.2,0.5-2.9,1.5S166.3,334.2,166.3,336.2z"/>
		<path d="M184.8,327.6l0.1,1.9c1.2-1.5,2.9-2.2,4.9-2.2c3.5,0,5.3,2,5.3,6v11.1h-3.8v-10.9c0-1.1-0.2-1.9-0.7-2.4
			c-0.5-0.5-1.2-0.8-2.3-0.8c-1.5,0-2.7,0.7-3.4,2.1v11.9h-3.8v-16.8H184.8z"/>
		<path d="M206.4,344.7c-2.4,0-4.3-0.8-5.8-2.3c-1.5-1.5-2.2-3.5-2.2-6V336c0-1.7,0.3-3.2,1-4.5c0.6-1.3,1.6-2.3,2.7-3.1
			c1.2-0.7,2.5-1.1,3.9-1.1c2.3,0,4.1,0.7,5.3,2.2c1.2,1.5,1.9,3.5,1.9,6.2v1.5h-11c0.1,1.4,0.6,2.5,1.4,3.3s1.8,1.2,3.1,1.2
			c1.7,0,3.1-0.7,4.2-2.1l2,1.9c-0.7,1-1.6,1.8-2.7,2.3C209,344.4,207.8,344.7,206.4,344.7z M205.9,330.3c-1,0-1.9,0.4-2.5,1.1
			s-1,1.7-1.2,3h7.2v-0.3c-0.1-1.3-0.4-2.2-1-2.9S207,330.3,205.9,330.3z"/>
		<path d="M225.5,339.8c0-0.7-0.3-1.2-0.8-1.5c-0.6-0.4-1.5-0.7-2.8-0.9c-1.3-0.3-2.4-0.6-3.2-1c-1.9-0.9-2.8-2.2-2.8-4
			c0-1.4,0.6-2.7,1.8-3.6s2.8-1.5,4.7-1.5c2,0,3.6,0.5,4.9,1.5c1.2,1,1.9,2.3,1.9,3.9h-3.8c0-0.7-0.3-1.3-0.8-1.8
			c-0.5-0.5-1.3-0.7-2.1-0.7c-0.8,0-1.5,0.2-2,0.6c-0.5,0.4-0.8,0.9-0.8,1.5c0,0.6,0.2,1,0.7,1.3c0.5,0.3,1.5,0.6,2.9,1
			c1.5,0.3,2.6,0.7,3.5,1.2s1.5,1,1.9,1.6c0.4,0.6,0.6,1.4,0.6,2.3c0,1.5-0.6,2.7-1.9,3.7c-1.3,0.9-2.9,1.4-4.9,1.4
			c-1.4,0-2.6-0.2-3.7-0.7c-1.1-0.5-1.9-1.2-2.5-2c-0.6-0.9-0.9-1.8-0.9-2.8h3.7c0.1,0.9,0.4,1.6,1,2.1c0.6,0.5,1.4,0.7,2.5,0.7
			c1,0,1.7-0.2,2.3-0.6C225.2,340.9,225.5,340.4,225.5,339.8z"/>
		<path d="M239.7,335.9c0-2.6,0.6-4.7,1.8-6.2c1.2-1.6,2.8-2.4,4.8-2.4c1.8,0,3.2,0.6,4.3,1.9v-8.6h3.8v23.8h-3.4l-0.2-1.7
			c-1.1,1.4-2.6,2-4.5,2c-2,0-3.6-0.8-4.8-2.4C240.3,340.7,239.7,338.6,239.7,335.9z M243.4,336.2c0,1.7,0.3,3,1,4
			c0.7,1,1.6,1.4,2.8,1.4c1.5,0,2.7-0.7,3.4-2.1v-7.2c-0.7-1.3-1.8-2-3.4-2c-1.2,0-2.2,0.5-2.8,1.5
			C243.8,332.8,243.4,334.2,243.4,336.2z"/>
		<path d="M265.7,344.7c-2.4,0-4.3-0.8-5.8-2.3c-1.5-1.5-2.2-3.5-2.2-6V336c0-1.7,0.3-3.2,1-4.5c0.6-1.3,1.6-2.3,2.7-3.1
			c1.2-0.7,2.5-1.1,3.9-1.1c2.3,0,4.1,0.7,5.3,2.2c1.2,1.5,1.9,3.5,1.9,6.2v1.5h-11c0.1,1.4,0.6,2.5,1.4,3.3s1.8,1.2,3.1,1.2
			c1.7,0,3.1-0.7,4.2-2.1l2,1.9c-0.7,1-1.6,1.8-2.7,2.3C268.3,344.4,267.1,344.7,265.7,344.7z M265.2,330.3c-1,0-1.9,0.4-2.5,1.1
			s-1,1.7-1.2,3h7.2v-0.3c-0.1-1.3-0.4-2.2-1-2.9S266.3,330.3,265.2,330.3z"/>
		<path d="M290.7,344.7c-2.4,0-4.3-0.8-5.8-2.3c-1.5-1.5-2.2-3.5-2.2-6V336c0-1.7,0.3-3.2,1-4.5c0.6-1.3,1.6-2.3,2.7-3.1
			c1.2-0.7,2.5-1.1,3.9-1.1c2.3,0,4.1,0.7,5.3,2.2c1.2,1.5,1.9,3.5,1.9,6.2v1.5h-11c0.1,1.4,0.6,2.5,1.4,3.3s1.8,1.2,3.1,1.2
			c1.7,0,3.1-0.7,4.2-2.1l2,1.9c-0.7,1-1.6,1.8-2.7,2.3C293.3,344.4,292.1,344.7,290.7,344.7z M290.2,330.3c-1,0-1.9,0.4-2.5,1.1
			s-1,1.7-1.2,3h7.2v-0.3c-0.1-1.3-0.4-2.2-1-2.9S291.2,330.3,290.2,330.3z"/>
		<path d="M303.8,327.6l0.1,1.9c1.2-1.5,2.9-2.2,4.9-2.2c3.5,0,5.3,2,5.3,6v11.1h-3.8v-10.9c0-1.1-0.2-1.9-0.7-2.4
			c-0.5-0.5-1.2-0.8-2.3-0.8c-1.5,0-2.7,0.7-3.4,2.1v11.9h-3.8v-16.8H303.8z"/>
		<path d="M324.9,341.7c0.9,0,1.7-0.3,2.3-0.8c0.6-0.5,1-1.2,1-2h3.6c0,1-0.4,2-1,2.9s-1.4,1.6-2.5,2.1c-1,0.5-2.2,0.8-3.4,0.8
			c-2.3,0-4.2-0.8-5.6-2.3s-2.1-3.6-2.1-6.3v-0.4c0-2.6,0.7-4.6,2-6.1c1.4-1.5,3.2-2.3,5.6-2.3c2,0,3.6,0.6,4.9,1.7
			c1.3,1.2,1.9,2.7,2,4.6h-3.6c0-1-0.4-1.8-1-2.4c-0.6-0.6-1.4-0.9-2.4-0.9c-1.2,0-2.2,0.4-2.8,1.3s-1,2.2-1,4v0.6
			c0,1.8,0.3,3.2,1,4.1S323.6,341.7,324.9,341.7z"/>
		<path d="M344.8,342.7c-1.1,1.3-2.7,2-4.7,2c-1.8,0-3.2-0.5-4.1-1.6c-0.9-1.1-1.4-2.6-1.4-4.6v-10.9h3.8v10.8
			c0,2.1,0.9,3.2,2.7,3.2c1.8,0,3.1-0.7,3.7-2v-12.1h3.8v16.8h-3.6L344.8,342.7z"/>
		<path d="M359.7,344.7c-2.4,0-4.3-0.8-5.8-2.3s-2.2-3.5-2.2-6V336c0-1.7,0.3-3.2,1-4.5c0.6-1.3,1.6-2.3,2.7-3.1
			c1.2-0.7,2.5-1.1,3.9-1.1c2.3,0,4.1,0.7,5.3,2.2c1.2,1.5,1.9,3.5,1.9,6.2v1.5h-11c0.1,1.4,0.6,2.5,1.4,3.3
			c0.8,0.8,1.8,1.2,3.1,1.2c1.7,0,3.1-0.7,4.2-2.1l2,1.9c-0.7,1-1.6,1.8-2.7,2.3C362.3,344.4,361.1,344.7,359.7,344.7z M359.2,330.3
			c-1,0-1.9,0.4-2.5,1.1c-0.6,0.7-1,1.7-1.2,3h7.2v-0.3c-0.1-1.3-0.4-2.2-1-2.9S360.3,330.3,359.2,330.3z"/>
		<path d="M372.8,327.6l0.1,1.9c1.2-1.5,2.9-2.2,4.9-2.2c3.5,0,5.3,2,5.3,6v11.1h-3.8v-10.9c0-1.1-0.2-1.9-0.7-2.4
			c-0.5-0.5-1.2-0.8-2.3-0.8c-1.5,0-2.7,0.7-3.4,2.1v11.9h-3.8v-16.8H372.8z"/>
		<path d="M391.7,323.5v4.1h3v2.8h-3v9.4c0,0.6,0.1,1.1,0.4,1.4c0.3,0.3,0.7,0.4,1.4,0.4c0.4,0,0.9-0.1,1.3-0.2v2.9
			c-0.9,0.2-1.7,0.4-2.5,0.4c-2.9,0-4.3-1.6-4.3-4.8v-9.5h-2.8v-2.8h2.8v-4.1H391.7z"/>
		<path d="M406.4,331c-0.5-0.1-1-0.1-1.5-0.1c-1.7,0-2.9,0.7-3.5,2v11.5h-3.8v-16.8h3.6l0.1,1.9c0.9-1.5,2.2-2.2,3.8-2.2
			c0.5,0,1,0.1,1.3,0.2L406.4,331z"/>
		<path d="M407.5,335.8c0-1.6,0.3-3.1,1-4.4c0.7-1.3,1.6-2.3,2.7-3c1.2-0.7,2.5-1.1,4.1-1.1c2.3,0,4.1,0.7,5.5,2.2
			c1.4,1.5,2.2,3.4,2.3,5.8l0,0.9c0,1.7-0.3,3.1-1,4.4c-0.6,1.3-1.5,2.3-2.7,3c-1.2,0.7-2.6,1.1-4.1,1.1c-2.4,0-4.3-0.8-5.7-2.4
			c-1.4-1.6-2.1-3.7-2.1-6.3V335.8z M411.2,336.2c0,1.7,0.4,3.1,1.1,4.1s1.7,1.5,3,1.5s2.3-0.5,3-1.5c0.7-1,1.1-2.4,1.1-4.4
			c0-1.7-0.4-3-1.1-4s-1.7-1.5-3-1.5c-1.2,0-2.2,0.5-2.9,1.5C411.6,332.8,411.2,334.2,411.2,336.2z"/>
		<path d="M435.7,339.8c0-0.7-0.3-1.2-0.8-1.5s-1.5-0.7-2.8-0.9c-1.3-0.3-2.4-0.6-3.2-1c-1.9-0.9-2.8-2.2-2.8-4
			c0-1.4,0.6-2.7,1.8-3.6s2.8-1.5,4.7-1.5c2,0,3.6,0.5,4.9,1.5c1.2,1,1.9,2.3,1.9,3.9h-3.8c0-0.7-0.3-1.3-0.8-1.8
			c-0.5-0.5-1.3-0.7-2.1-0.7c-0.8,0-1.5,0.2-2,0.6s-0.8,0.9-0.8,1.5c0,0.6,0.2,1,0.7,1.3c0.5,0.3,1.5,0.6,2.9,1
			c1.5,0.3,2.6,0.7,3.5,1.2c0.8,0.5,1.5,1,1.9,1.6c0.4,0.6,0.6,1.4,0.6,2.3c0,1.5-0.6,2.7-1.9,3.7s-2.9,1.4-4.9,1.4
			c-1.4,0-2.6-0.2-3.7-0.7c-1.1-0.5-1.9-1.2-2.5-2c-0.6-0.9-0.9-1.8-0.9-2.8h3.7c0.1,0.9,0.4,1.6,1,2.1c0.6,0.5,1.4,0.7,2.5,0.7
			c1,0,1.7-0.2,2.3-0.6C435.4,340.9,435.7,340.4,435.7,339.8z"/>
		<path d="M459.4,331c-0.5-0.1-1-0.1-1.5-0.1c-1.7,0-2.9,0.7-3.5,2v11.5h-3.8v-16.8h3.6l0.1,1.9c0.9-1.5,2.2-2.2,3.8-2.2
			c0.5,0,1,0.1,1.3,0.2L459.4,331z"/>
		<path d="M468.9,344.7c-2.4,0-4.3-0.8-5.8-2.3c-1.5-1.5-2.2-3.5-2.2-6V336c0-1.7,0.3-3.2,1-4.5c0.6-1.3,1.6-2.3,2.7-3.1
			c1.2-0.7,2.5-1.1,3.9-1.1c2.3,0,4.1,0.7,5.3,2.2c1.2,1.5,1.9,3.5,1.9,6.2v1.5h-11c0.1,1.4,0.6,2.5,1.4,3.3
			c0.8,0.8,1.8,1.2,3.1,1.2c1.7,0,3.1-0.7,4.2-2.1l2,1.9c-0.7,1-1.6,1.8-2.7,2.3C471.5,344.4,470.3,344.7,468.9,344.7z M468.4,330.3
			c-1,0-1.9,0.4-2.5,1.1c-0.6,0.7-1,1.7-1.2,3h7.2v-0.3c-0.1-1.3-0.4-2.2-1-2.9S469.5,330.3,468.4,330.3z"/>
		<path d="M488.6,344.4c-0.2-0.3-0.3-0.8-0.4-1.6c-1.2,1.3-2.7,1.9-4.4,1.9c-1.7,0-3.1-0.5-4.1-1.4s-1.6-2.2-1.6-3.6
			c0-1.8,0.7-3.2,2-4.1c1.3-1,3.2-1.4,5.7-1.4h2.3V333c0-0.9-0.2-1.6-0.7-2.1s-1.2-0.8-2.2-0.8c-0.9,0-1.6,0.2-2.1,0.6
			c-0.5,0.4-0.8,1-0.8,1.6h-3.8c0-0.9,0.3-1.8,0.9-2.6s1.4-1.4,2.5-1.9c1-0.5,2.2-0.7,3.5-0.7c2,0,3.5,0.5,4.7,1.5
			c1.2,1,1.8,2.4,1.8,4.2v7.6c0,1.5,0.2,2.7,0.6,3.6v0.3H488.6z M484.4,341.7c0.7,0,1.4-0.2,2.1-0.5c0.7-0.4,1.2-0.8,1.5-1.5v-3.2
			h-2c-1.4,0-2.4,0.2-3.2,0.7s-1.1,1.2-1.1,2.1c0,0.7,0.2,1.3,0.7,1.7C483,341.5,483.6,341.7,484.4,341.7z"/>
		<path d="M499.7,344.4H496v-23.8h3.8V344.4z"/>
		<path d="M503.8,323.2c0-0.6,0.2-1.1,0.6-1.4s0.9-0.6,1.6-0.6s1.2,0.2,1.6,0.6c0.4,0.4,0.6,0.9,0.6,1.4c0,0.6-0.2,1-0.6,1.4
			c-0.4,0.4-0.9,0.6-1.6,0.6s-1.2-0.2-1.6-0.6C504,324.3,503.8,323.8,503.8,323.2z M507.8,344.4h-3.8v-16.8h3.8V344.4z"/>
		<path d="M516,341.4h8.9v3h-13.6v-2.5l8.5-11.3h-8.4v-3h13.1v2.4L516,341.4z"/>
		<path d="M538,344.4c-0.2-0.3-0.3-0.8-0.4-1.6c-1.2,1.3-2.7,1.9-4.4,1.9c-1.7,0-3.1-0.5-4.1-1.4s-1.6-2.2-1.6-3.6
			c0-1.8,0.7-3.2,2-4.1s3.2-1.4,5.7-1.4h2.3V333c0-0.9-0.2-1.6-0.7-2.1s-1.2-0.8-2.2-0.8c-0.9,0-1.6,0.2-2.1,0.6
			c-0.5,0.4-0.8,1-0.8,1.6h-3.8c0-0.9,0.3-1.8,0.9-2.6s1.4-1.4,2.5-1.9c1-0.5,2.2-0.7,3.5-0.7c2,0,3.5,0.5,4.7,1.5
			c1.2,1,1.8,2.4,1.8,4.2v7.6c0,1.5,0.2,2.7,0.6,3.6v0.3H538z M533.8,341.7c0.7,0,1.4-0.2,2.1-0.5c0.7-0.4,1.2-0.8,1.5-1.5v-3.2h-2
			c-1.4,0-2.4,0.2-3.1,0.7c-0.7,0.5-1.1,1.2-1.1,2.1c0,0.7,0.2,1.3,0.7,1.7C532.4,341.5,533,341.7,533.8,341.7z"/>
		<path d="M544.4,335.9c0-2.6,0.6-4.7,1.8-6.2c1.2-1.6,2.8-2.4,4.8-2.4c1.8,0,3.2,0.6,4.3,1.9v-8.6h3.8v23.8h-3.4l-0.2-1.7
			c-1.1,1.4-2.6,2-4.5,2c-2,0-3.6-0.8-4.8-2.4C545,340.7,544.4,338.6,544.4,335.9z M548.2,336.2c0,1.7,0.3,3,1,4
			c0.7,1,1.6,1.4,2.8,1.4c1.5,0,2.7-0.7,3.4-2.1v-7.2c-0.7-1.3-1.8-2-3.4-2c-1.2,0-2.2,0.5-2.8,1.5
			C548.5,332.8,548.2,334.2,548.2,336.2z"/>
		<path d="M562.3,335.8c0-1.6,0.3-3.1,1-4.4c0.7-1.3,1.6-2.3,2.7-3c1.2-0.7,2.5-1.1,4.1-1.1c2.3,0,4.1,0.7,5.5,2.2
			c1.4,1.5,2.2,3.4,2.3,5.8l0,0.9c0,1.7-0.3,3.1-1,4.4c-0.6,1.3-1.5,2.3-2.7,3c-1.2,0.7-2.6,1.1-4.1,1.1c-2.4,0-4.3-0.8-5.7-2.4
			c-1.4-1.6-2.1-3.7-2.1-6.3V335.8z M566.1,336.2c0,1.7,0.4,3.1,1.1,4.1s1.7,1.5,3,1.5c1.3,0,2.3-0.5,3-1.5c0.7-1,1.1-2.4,1.1-4.4
			c0-1.7-0.4-3-1.1-4c-0.7-1-1.7-1.5-3-1.5c-1.2,0-2.2,0.5-2.9,1.5C566.5,332.8,566.1,334.2,566.1,336.2z"/>
		<path d="M590.6,339.8c0-0.7-0.3-1.2-0.8-1.5c-0.6-0.4-1.5-0.7-2.8-0.9c-1.3-0.3-2.4-0.6-3.2-1c-1.9-0.9-2.8-2.2-2.8-4
			c0-1.4,0.6-2.7,1.8-3.6s2.8-1.5,4.7-1.5c2,0,3.6,0.5,4.9,1.5s1.9,2.3,1.9,3.9h-3.8c0-0.7-0.3-1.3-0.8-1.8
			c-0.5-0.5-1.3-0.7-2.1-0.7c-0.8,0-1.5,0.2-2,0.6c-0.5,0.4-0.8,0.9-0.8,1.5c0,0.6,0.2,1,0.7,1.3c0.5,0.3,1.5,0.6,2.9,1
			c1.5,0.3,2.6,0.7,3.5,1.2c0.8,0.5,1.5,1,1.9,1.6c0.4,0.6,0.6,1.4,0.6,2.3c0,1.5-0.6,2.7-1.9,3.7c-1.3,0.9-2.9,1.4-4.9,1.4
			c-1.4,0-2.6-0.2-3.7-0.7c-1.1-0.5-1.9-1.2-2.5-2s-0.9-1.8-0.9-2.8h3.7c0.1,0.9,0.4,1.6,1,2.1c0.6,0.5,1.4,0.7,2.5,0.7
			c1,0,1.7-0.2,2.3-0.6S590.6,340.4,590.6,339.8z"/>
		<path d="M170.7,379.8c0.9,0,1.7-0.3,2.3-0.8c0.6-0.5,1-1.2,1-2h3.6c0,1-0.4,2-1,2.9s-1.4,1.6-2.5,2.1c-1,0.5-2.2,0.8-3.4,0.8
			c-2.3,0-4.2-0.8-5.6-2.3c-1.4-1.5-2.1-3.6-2.1-6.3v-0.4c0-2.6,0.7-4.6,2-6.1c1.4-1.5,3.2-2.3,5.6-2.3c2,0,3.6,0.6,4.9,1.7
			c1.3,1.2,1.9,2.7,2,4.6h-3.6c0-1-0.4-1.8-1-2.4c-0.6-0.6-1.4-0.9-2.4-0.9c-1.2,0-2.2,0.4-2.8,1.3s-1,2.2-1,4v0.6
			c0,1.8,0.3,3.2,1,4.1C168.5,379.4,169.5,379.8,170.7,379.8z"/>
		<path d="M179.7,374c0-1.6,0.3-3.1,1-4.4c0.7-1.3,1.6-2.3,2.7-3c1.2-0.7,2.5-1.1,4.1-1.1c2.3,0,4.1,0.7,5.5,2.2
			c1.4,1.5,2.2,3.4,2.3,5.8l0,0.9c0,1.7-0.3,3.1-1,4.4s-1.5,2.3-2.7,3c-1.2,0.7-2.6,1.1-4.1,1.1c-2.4,0-4.3-0.8-5.7-2.4
			c-1.4-1.6-2.1-3.7-2.1-6.3V374z M183.5,374.3c0,1.7,0.4,3.1,1.1,4.1s1.7,1.5,3,1.5c1.3,0,2.3-0.5,3-1.5s1.1-2.4,1.1-4.4
			c0-1.7-0.4-3-1.1-4c-0.7-1-1.7-1.5-3-1.5c-1.2,0-2.2,0.5-2.9,1.5S183.5,372.4,183.5,374.3z"/>
		<path d="M202,365.7l0.1,1.9c1.2-1.5,2.9-2.2,4.9-2.2c3.5,0,5.3,2,5.3,6v11.1h-3.8v-10.9c0-1.1-0.2-1.9-0.7-2.4
			c-0.5-0.5-1.2-0.8-2.3-0.8c-1.5,0-2.7,0.7-3.4,2.1v11.9h-3.8v-16.8H202z"/>
		<path d="M223.4,374c0-2.6,0.6-4.7,1.8-6.2c1.2-1.6,2.8-2.4,4.8-2.4c1.8,0,3.2,0.6,4.3,1.9v-8.6h3.8v23.8h-3.4l-0.2-1.7
			c-1.1,1.4-2.6,2-4.5,2c-2,0-3.6-0.8-4.8-2.4C224,378.9,223.4,376.7,223.4,374z M227.2,374.3c0,1.7,0.3,3,1,4
			c0.7,1,1.6,1.4,2.8,1.4c1.5,0,2.7-0.7,3.4-2.1v-7.2c-0.7-1.3-1.8-2-3.4-2c-1.2,0-2.2,0.5-2.8,1.5
			C227.5,370.9,227.2,372.4,227.2,374.3z"/>
		<path d="M241.4,374c0-1.6,0.3-3.1,1-4.4c0.7-1.3,1.6-2.3,2.7-3c1.2-0.7,2.5-1.1,4.1-1.1c2.3,0,4.1,0.7,5.5,2.2
			c1.4,1.5,2.2,3.4,2.3,5.8l0,0.9c0,1.7-0.3,3.1-1,4.4s-1.5,2.3-2.7,3c-1.2,0.7-2.6,1.1-4.1,1.1c-2.4,0-4.3-0.8-5.7-2.4
			c-1.4-1.6-2.1-3.7-2.1-6.3V374z M245.1,374.3c0,1.7,0.4,3.1,1.1,4.1s1.7,1.5,3,1.5c1.3,0,2.3-0.5,3-1.5s1.1-2.4,1.1-4.4
			c0-1.7-0.4-3-1.1-4c-0.7-1-1.7-1.5-3-1.5c-1.2,0-2.2,0.5-2.9,1.5S245.1,372.4,245.1,374.3z"/>
		<path d="M267.1,379.8c0.9,0,1.7-0.3,2.3-0.8c0.6-0.5,1-1.2,1-2h3.6c0,1-0.4,2-1,2.9s-1.4,1.6-2.5,2.1c-1,0.5-2.2,0.8-3.4,0.8
			c-2.3,0-4.2-0.8-5.6-2.3c-1.4-1.5-2.1-3.6-2.1-6.3v-0.4c0-2.6,0.7-4.6,2-6.1c1.4-1.5,3.2-2.3,5.6-2.3c2,0,3.6,0.6,4.9,1.7
			c1.3,1.2,1.9,2.7,2,4.6h-3.6c0-1-0.4-1.8-1-2.4c-0.6-0.6-1.4-0.9-2.4-0.9c-1.2,0-2.2,0.4-2.8,1.3s-1,2.2-1,4v0.6
			c0,1.8,0.3,3.2,1,4.1C264.9,379.4,265.8,379.8,267.1,379.8z"/>
		<path d="M284.2,382.8c-2.4,0-4.3-0.8-5.8-2.3c-1.5-1.5-2.2-3.5-2.2-6v-0.5c0-1.7,0.3-3.2,1-4.5c0.6-1.3,1.6-2.3,2.7-3.1
			c1.2-0.7,2.5-1.1,3.9-1.1c2.3,0,4.1,0.7,5.3,2.2c1.2,1.5,1.9,3.5,1.9,6.2v1.5h-11c0.1,1.4,0.6,2.5,1.4,3.3s1.8,1.2,3.1,1.2
			c1.7,0,3.1-0.7,4.2-2.1l2,1.9c-0.7,1-1.6,1.8-2.7,2.3C286.8,382.6,285.6,382.8,284.2,382.8z M283.7,368.4c-1,0-1.9,0.4-2.5,1.1
			s-1,1.7-1.2,3h7.2v-0.3c-0.1-1.3-0.4-2.2-1-2.9S284.8,368.4,283.7,368.4z"/>
		<path d="M297.3,365.7l0.1,1.9c1.2-1.5,2.9-2.2,4.9-2.2c3.5,0,5.3,2,5.3,6v11.1h-3.8v-10.9c0-1.1-0.2-1.9-0.7-2.4
			c-0.5-0.5-1.2-0.8-2.3-0.8c-1.5,0-2.7,0.7-3.4,2.1v11.9h-3.8v-16.8H297.3z"/>
		<path d="M316.2,361.7v4.1h3v2.8h-3v9.4c0,0.6,0.1,1.1,0.4,1.4c0.3,0.3,0.7,0.4,1.4,0.4c0.4,0,0.9-0.1,1.3-0.2v2.9
			c-0.9,0.2-1.7,0.4-2.5,0.4c-2.9,0-4.3-1.6-4.3-4.8v-9.5h-2.8v-2.8h2.8v-4.1H316.2z"/>
		<path d="M329.5,382.8c-2.4,0-4.3-0.8-5.8-2.3s-2.2-3.5-2.2-6v-0.5c0-1.7,0.3-3.2,1-4.5c0.6-1.3,1.6-2.3,2.7-3.1
			c1.2-0.7,2.5-1.1,3.9-1.1c2.3,0,4.1,0.7,5.3,2.2c1.2,1.5,1.9,3.5,1.9,6.2v1.5h-11c0.1,1.4,0.6,2.5,1.4,3.3
			c0.8,0.8,1.8,1.2,3.1,1.2c1.7,0,3.1-0.7,4.2-2.1l2,1.9c-0.7,1-1.6,1.8-2.7,2.3C332.1,382.6,330.9,382.8,329.5,382.8z M329,368.4
			c-1,0-1.9,0.4-2.5,1.1c-0.6,0.7-1,1.7-1.2,3h7.2v-0.3c-0.1-1.3-0.4-2.2-1-2.9S330.1,368.4,329,368.4z"/>
		<path d="M348.6,378c0-0.7-0.3-1.2-0.8-1.5s-1.5-0.7-2.8-0.9c-1.3-0.3-2.4-0.6-3.2-1c-1.9-0.9-2.8-2.2-2.8-4c0-1.4,0.6-2.7,1.8-3.6
			s2.8-1.5,4.7-1.5c2,0,3.6,0.5,4.9,1.5c1.2,1,1.9,2.3,1.9,3.9h-3.8c0-0.7-0.3-1.3-0.8-1.8c-0.5-0.5-1.3-0.7-2.1-0.7
			c-0.8,0-1.5,0.2-2,0.6s-0.8,0.9-0.8,1.5c0,0.6,0.2,1,0.7,1.3c0.5,0.3,1.5,0.6,2.9,1c1.5,0.3,2.6,0.7,3.5,1.2
			c0.8,0.5,1.5,1,1.9,1.6c0.4,0.6,0.6,1.4,0.6,2.3c0,1.5-0.6,2.7-1.9,3.7s-2.9,1.4-4.9,1.4c-1.4,0-2.6-0.2-3.7-0.7
			c-1.1-0.5-1.9-1.2-2.5-2c-0.6-0.9-0.9-1.8-0.9-2.8h3.7c0.1,0.9,0.4,1.6,1,2.1c0.6,0.5,1.4,0.7,2.5,0.7c1,0,1.7-0.2,2.3-0.6
			C348.3,379.1,348.6,378.6,348.6,378z"/>
		<path d="M369.3,377.1l3.4-11.4h4l-6.7,19.3c-1,2.8-2.8,4.2-5.2,4.2c-0.5,0-1.2-0.1-1.8-0.3v-2.9l0.7,0c1,0,1.7-0.2,2.1-0.5
			c0.5-0.3,0.9-0.9,1.1-1.7l0.5-1.4l-5.9-16.7h4.1L369.3,377.1z"/>
		<path d="M391.6,361.7v4.1h3v2.8h-3v9.4c0,0.6,0.1,1.1,0.4,1.4c0.3,0.3,0.7,0.4,1.4,0.4c0.4,0,0.9-0.1,1.3-0.2v2.9
			c-0.9,0.2-1.7,0.4-2.5,0.4c-2.9,0-4.3-1.6-4.3-4.8v-9.5H385v-2.8h2.8v-4.1H391.6z"/>
		<path d="M407.6,380.9c-1.1,1.3-2.7,2-4.7,2c-1.8,0-3.2-0.5-4.1-1.6s-1.4-2.6-1.4-4.6v-10.9h3.8v10.8c0,2.1,0.9,3.2,2.7,3.2
			c1.8,0,3.1-0.7,3.7-2v-12.1h3.8v16.8h-3.6L407.6,380.9z"/>
		<path d="M419.8,361.7v4.1h3v2.8h-3v9.4c0,0.6,0.1,1.1,0.4,1.4c0.3,0.3,0.7,0.4,1.4,0.4c0.4,0,0.9-0.1,1.3-0.2v2.9
			c-0.9,0.2-1.7,0.4-2.5,0.4c-2.9,0-4.3-1.6-4.3-4.8v-9.5h-2.8v-2.8h2.8v-4.1H419.8z"/>
		<path d="M424.5,374c0-1.6,0.3-3.1,1-4.4c0.7-1.3,1.6-2.3,2.7-3c1.2-0.7,2.5-1.1,4.1-1.1c2.3,0,4.1,0.7,5.5,2.2
			c1.4,1.5,2.2,3.4,2.3,5.8l0,0.9c0,1.7-0.3,3.1-1,4.4c-0.6,1.3-1.5,2.3-2.7,3c-1.2,0.7-2.6,1.1-4.1,1.1c-2.4,0-4.3-0.8-5.7-2.4
			c-1.4-1.6-2.1-3.7-2.1-6.3V374z M428.2,374.3c0,1.7,0.4,3.1,1.1,4.1s1.7,1.5,3,1.5s2.3-0.5,3-1.5c0.7-1,1.1-2.4,1.1-4.4
			c0-1.7-0.4-3-1.1-4s-1.7-1.5-3-1.5c-1.2,0-2.2,0.5-2.9,1.5C428.6,370.9,428.2,372.4,428.2,374.3z"/>
		<path d="M452,369.2c-0.5-0.1-1-0.1-1.5-0.1c-1.7,0-2.9,0.7-3.5,2v11.5h-3.8v-16.8h3.6l0.1,1.9c0.9-1.5,2.2-2.2,3.8-2.2
			c0.5,0,1,0.1,1.3,0.2L452,369.2z"/>
		<path d="M461.5,382.8c-2.4,0-4.3-0.8-5.8-2.3c-1.5-1.5-2.2-3.5-2.2-6v-0.5c0-1.7,0.3-3.2,1-4.5c0.6-1.3,1.6-2.3,2.7-3.1
			c1.2-0.7,2.5-1.1,3.9-1.1c2.3,0,4.1,0.7,5.3,2.2c1.2,1.5,1.9,3.5,1.9,6.2v1.5h-11c0.1,1.4,0.6,2.5,1.4,3.3
			c0.8,0.8,1.8,1.2,3.1,1.2c1.7,0,3.1-0.7,4.2-2.1l2,1.9c-0.7,1-1.6,1.8-2.7,2.3C464.2,382.6,462.9,382.8,461.5,382.8z M461.1,368.4
			c-1,0-1.9,0.4-2.5,1.1c-0.6,0.7-1,1.7-1.2,3h7.2v-0.3c-0.1-1.3-0.4-2.2-1-2.9S462.1,368.4,461.1,368.4z"/>
		<path d="M480.6,378c0-0.7-0.3-1.2-0.8-1.5c-0.6-0.4-1.5-0.7-2.8-0.9c-1.3-0.3-2.4-0.6-3.2-1c-1.9-0.9-2.8-2.2-2.8-4
			c0-1.4,0.6-2.7,1.8-3.6s2.8-1.5,4.7-1.5c2,0,3.6,0.5,4.9,1.5s1.9,2.3,1.9,3.9h-3.8c0-0.7-0.3-1.3-0.8-1.8
			c-0.5-0.5-1.3-0.7-2.1-0.7c-0.8,0-1.5,0.2-2,0.6c-0.5,0.4-0.8,0.9-0.8,1.5c0,0.6,0.2,1,0.7,1.3c0.5,0.3,1.5,0.6,2.9,1
			c1.5,0.3,2.6,0.7,3.5,1.2c0.8,0.5,1.5,1,1.9,1.6c0.4,0.6,0.6,1.4,0.6,2.3c0,1.5-0.6,2.7-1.9,3.7c-1.3,0.9-2.9,1.4-4.9,1.4
			c-1.4,0-2.6-0.2-3.7-0.7c-1.1-0.5-1.9-1.2-2.5-2s-0.9-1.8-0.9-2.8h3.7c0.1,0.9,0.4,1.6,1,2.1c0.6,0.5,1.4,0.7,2.5,0.7
			c1,0,1.7-0.2,2.3-0.6S480.6,378.6,480.6,378z"/>
	</g>
</g>
<g>
	<g>
		<rect x="272.3" y="256" class="st3" width="87.9" height="38.2"/>
		<polygon class="st4" points="272.3,272.8 272.3,256 360.3,262.1 		"/>
		<path class="st5" d="M472.4,32.1H160.2c-6.8,0-12.6,5.6-12.6,12.6v205c0,6.8,5.6,12.6,12.6,12.6h312.2c6.8,0,12.6-5.6,12.6-12.6
			v-205C484.8,37.7,479.2,32.1,472.4,32.1z"/>
		<g>
			<g>
				<rect id="SVGID_21_" x="161.5" y="44.4" class="st1" width="309.8" height="205.4"/>
			</g>
		</g>
		<path class="st5" d="M392.4,294.3H239.9l0,0c0-6.5,5.4-12,12-12h128.5C387.2,282.3,392.4,287.6,392.4,294.3L392.4,294.3z"/>
	</g>
	<rect x="235.3" y="58" class="st6" width="161.9" height="74.2"/>
	<rect x="235.3" y="154.8" class="st6" width="161.9" height="74.2"/>
	<g>
		<g>
			<path class="st1" d="M317.8,113.4c4.9-0.3,11.4-0.6,18-1c3.5-0.3,6.1-2.6,6.5-6.1c0.4-3.3,0.7-6.7,0.9-9.9
				c0.1-4.5,0-8.8-0.9-13.3c-0.6-3.3-2.5-5.2-5.8-5.9c-1.4-0.3-3-0.4-4.5-0.6c-4.8-0.1-9.4-0.4-14.2-0.4c-7,0-13.9,0-20.9,0.7
				c-3.2,0.3-6.2,2.8-6.7,5.9c-0.1,1.7-0.4,3.3-0.6,5.1c-0.3,5.9-0.4,11.9,0.4,18c0.4,3.2,2.3,5.4,5.5,6.2c1.4,0.4,2.9,0.6,4.5,0.6
				C305.5,112.9,310.8,113.1,317.8,113.4z"/>
			<path class="st5" d="M317.8,113.4c-7-0.3-12.3-0.4-17.7-0.6c-1.4,0-3-0.3-4.5-0.6c-3-0.9-4.9-2.9-5.5-6.2
				c-0.9-5.9-0.7-11.9-0.4-18c0.1-1.7,0.4-3.3,0.6-5.1c0.3-3.2,3.5-5.6,6.7-5.9c7-0.7,13.9-0.9,20.9-0.7c4.8,0,9.4,0.3,14.2,0.4
				c1.4,0,3,0.3,4.5,0.6c3.3,0.6,5.2,2.6,5.8,5.9c0.7,4.3,1,8.8,0.9,13.3c-0.1,3.3-0.4,6.7-0.9,9.9c-0.4,3.3-3,5.8-6.5,6.1
				C329.2,112.8,322.7,113.1,317.8,113.4z M311.1,102.9c4.5-2.8,9-5.5,13.5-8.3c-4.5-2.8-9-5.5-13.5-8.3
				C311.1,92.1,311.1,97.4,311.1,102.9z"/>
			<path class="st1" d="M311.1,102.9c0-5.5,0-10.9,0-16.5c4.5,2.8,9,5.5,13.5,8.3C320.1,97.4,315.7,100.2,311.1,102.9z"/>
		</g>
	</g>
	<g>
		<g>
			<path class="st1" d="M317.8,210.6c4.9-0.3,11.4-0.6,18-1c3.5-0.3,6.1-2.6,6.5-6.1c0.4-3.3,0.7-6.7,0.9-9.9
				c0.1-4.5,0-8.8-0.9-13.3c-0.6-3.3-2.5-5.2-5.8-5.9c-1.4-0.3-3-0.4-4.5-0.6c-4.8-0.1-9.4-0.4-14.2-0.4c-7,0-13.9,0-20.9,0.7
				c-3.2,0.3-6.2,2.8-6.7,5.9c-0.1,1.7-0.4,3.3-0.6,5.1c-0.3,5.9-0.4,11.9,0.4,18c0.4,3.2,2.3,5.4,5.5,6.2c1.4,0.4,2.9,0.6,4.5,0.6
				C305.5,210.1,310.8,210.3,317.8,210.6z"/>
			<path class="st5" d="M317.8,210.6c-7-0.3-12.3-0.4-17.7-0.6c-1.4,0-3-0.3-4.5-0.6c-3-0.9-4.9-2.9-5.5-6.2
				c-0.9-5.9-0.7-11.9-0.4-18c0.1-1.7,0.4-3.3,0.6-5.1c0.3-3.2,3.5-5.6,6.7-5.9c7-0.7,13.9-0.9,20.9-0.7c4.8,0,9.4,0.3,14.2,0.4
				c1.4,0,3,0.3,4.5,0.6c3.3,0.6,5.2,2.6,5.8,5.9c0.7,4.3,1,8.8,0.9,13.3c-0.1,3.3-0.4,6.7-0.9,9.9c-0.4,3.3-3,5.8-6.5,6.1
				C329.2,210,322.7,210.3,317.8,210.6z M311.1,200.1c4.5-2.8,9-5.5,13.5-8.3c-4.5-2.8-9-5.5-13.5-8.3
				C311.1,189.1,311.1,194.5,311.1,200.1z"/>
			<path class="st1" d="M311.1,200.1c0-5.5,0-10.9,0-16.5c4.5,2.8,9,5.5,13.5,8.3C320.1,194.6,315.7,197.2,311.1,200.1z"/>
		</g>
	</g>
</g>
</svg>
