<?xml version="1.0" encoding="utf-8"?>
<!-- Generator: Adobe Illustrator 24.3.0, SVG Export Plug-In . SVG Version: 6.00 Build 0)  -->
<svg version="1.1" id="Capa_1" xmlns="http://www.w3.org/2000/svg" xmlns:xlink="http://www.w3.org/1999/xlink" x="0px" y="0px"
	 viewBox="0 0 632.6 412.9" style="enable-background:new 0 0 632.6 412.9;" xml:space="preserve">
<style type="text/css">
	.st0{opacity:0.3;}
	.st1{fill:#CE9E19;}
	.st2{fill:#ABB0B7;}
	.st3{fill:#768093;}
	.st4{fill:#DCE8EA;stroke:#000000;stroke-miterlimit:10;}
	.st5{fill:#025482;}
	.st6{fill:#475263;}
	.st7{fill:#FFFFFF;}
	.st8{fill:#67CFE8;}
	.st9{fill:#9B6F6A;}
	.st10{fill:#18277A;}
	.st11{fill:none;stroke:#5565AA;stroke-width:0.75;stroke-miterlimit:10;}
	.st12{fill:#2E7EFA;}
	.st13{fill:none;stroke:#1A3987;stroke-width:0.75;stroke-linejoin:round;stroke-miterlimit:10;}
	.st14{fill:none;stroke:#000000;stroke-width:0.5;stroke-linejoin:round;stroke-miterlimit:10;}
	.st15{fill:none;stroke:#000000;stroke-width:0.5;stroke-linecap:round;stroke-linejoin:round;stroke-miterlimit:10;}
	.st16{fill:#212237;}
	.st17{fill:none;stroke:#000000;stroke-width:0.75;stroke-linejoin:round;stroke-miterlimit:10;}
	.st18{fill:#DDDDDD;}
	.st19{enable-background:new    ;}
</style>
<g>
	<text transform="matrix(1 0 0 1 154.6021 610.506)" class="st7" style="font-family:'Roboto-Medium'; font-size:38px;">Avisos importantes</text>
</g>
<g>
	<g>
		<g class="st0">
			<g>
				<g>
					<g>
						<ellipse class="st1" cx="429.9" cy="370.5" rx="79.3" ry="23.5"/>
					</g>
				</g>
			</g>
		</g>
		<g>
			<g>
				<g>
					<polygon class="st2" points="26.2,312.3 70.9,271 428.2,271 467.6,312.3 					"/>
				</g>
			</g>
			<g>
				<g>
					<path class="st3" d="M422.6,275.7H71.2c-5.8,0-10.5-4.9-10.5-10.9v-220c0-6,4.7-10.9,10.5-10.9h351.4c5.8,0,10.5,4.9,10.5,10.9
						v220C433.1,270.8,428.4,275.7,422.6,275.7z"/>
				</g>
			</g>
			<g>
				<g>
					<path class="st4" d="M409,266.6H84.9c-5.3,0-9.7-4.3-9.7-9.7V60.6c0-5.4,4.3-9.7,9.7-9.7H409c5.4,0,9.7,4.3,9.7,9.7v196.3
						C418.7,262.3,414.3,266.6,409,266.6z"/>
				</g>
			</g>
			<g>
				<g>
					<path class="st5" d="M250.9,41.1c0,2.2-1.8,3.9-3.9,3.9s-3.9-1.8-3.9-3.9c0-2.2,1.8-3.9,3.9-3.9S250.9,38.9,250.9,41.1z"/>
				</g>
			</g>
			<g>
				<g>
					<path class="st3" d="M445,345.2H48.8c-12.5,0-22.6-10.1-22.6-22.6v-10.3h441.4v10.3C467.6,335.1,457.5,345.2,445,345.2z"/>
				</g>
			</g>
			<g>
				<g>
					<path class="st6" d="M170.7,275.6c0,2.2-1.8,3.9-3.9,3.9h-44.7c-2.2,0-3.9-1.8-3.9-3.9l0,0c0-2.2,1.8-3.9,3.9-3.9h44.7
						C169,271.6,170.7,273.4,170.7,275.6L170.7,275.6z"/>
				</g>
			</g>
			<g>
				<g>
					<path class="st6" d="M382.2,275.6c0,2.2-1.8,3.9-3.9,3.9h-44.7c-2.2,0-3.9-1.8-3.9-3.9l0,0c0-2.2,1.8-3.9,3.9-3.9h44.7
						C380.5,271.6,382.2,273.4,382.2,275.6L382.2,275.6z"/>
				</g>
			</g>
			<g>
				<g>
					<polygon class="st3" points="195,306.4 209.7,292.8 285.9,292.8 298.8,306.4 					"/>
				</g>
			</g>
			<g>
				<g>
					<rect x="235.4" y="284.5" class="st7" width="24.6" height="1.2"/>
				</g>
			</g>
			<g>
				<g>
					<g>
						<rect x="55.8" y="302.2" class="st7" width="27.6" height="1.2"/>
					</g>
				</g>
				<g>
					<g>
						<rect x="79.1" y="284.5" class="st7" width="24.6" height="1.2"/>
					</g>
				</g>
				<g>
					<g>
						<rect x="68.6" y="292.6" class="st7" width="24.6" height="1.2"/>
					</g>
				</g>
				<g>
					<g>
						<rect x="127.1" y="284.5" class="st7" width="24.6" height="1.2"/>
					</g>
				</g>
				<g>
					<g>
						<rect x="114.6" y="292.6" class="st7" width="24.6" height="1.2"/>
					</g>
				</g>
				<g>
					<g>
						<rect x="144.5" y="302.2" class="st7" width="27.6" height="1.2"/>
					</g>
				</g>
				<g>
					<g>
						<rect x="173.7" y="284.5" class="st7" width="24.6" height="1.2"/>
					</g>
				</g>
				<g>
					<g>
						<rect x="161.2" y="292.6" class="st7" width="24.6" height="1.2"/>
					</g>
				</g>
				<g>
					<g>
						<rect x="100.4" y="304.2" class="st7" width="27.6" height="1.2"/>
					</g>
				</g>
			</g>
			<g>
				<g>
					<g>
						<rect x="415.1" y="302.2" class="st7" width="27.6" height="1.2"/>
					</g>
				</g>
				<g>
					<g>
						<rect x="394.7" y="284.5" class="st7" width="24.6" height="1.2"/>
					</g>
				</g>
				<g>
					<g>
						<rect x="405.2" y="292.6" class="st7" width="24.6" height="1.2"/>
					</g>
				</g>
				<g>
					<g>
						<rect x="346.8" y="284.5" class="st7" width="24.6" height="1.2"/>
					</g>
				</g>
				<g>
					<g>
						<rect x="359.2" y="292.6" class="st7" width="24.6" height="1.2"/>
					</g>
				</g>
				<g>
					<g>
						<rect x="326.4" y="302.2" class="st7" width="27.6" height="1.2"/>
					</g>
				</g>
				<g>
					<g>
						<rect x="300.1" y="284.5" class="st7" width="24.6" height="1.2"/>
					</g>
				</g>
				<g>
					<g>
						<rect x="312.6" y="292.6" class="st7" width="24.6" height="1.2"/>
					</g>
				</g>
				<g>
					<g>
						<rect x="370.4" y="304.2" class="st7" width="27.6" height="1.2"/>
					</g>
				</g>
			</g>
			<rect x="248.5" y="51" width="0.7" height="211.4"/>
			<rect x="143.2" y="156.4" width="211.4" height="0.7"/>
			<polygon class="st8" points="248.9,51.5 248.9,156.7 300.2,51.5 			"/>
			<path d="M248.9,191.7c-19.3,0-35-15.7-35-35s15.7-35,35-35s35,15.7,35,35S268.2,191.7,248.9,191.7z M248.9,122.1
				c-19.1,0-34.6,15.5-34.6,34.6s15.5,34.6,34.6,34.6s34.6-15.5,34.6-34.6C283.4,137.7,267.9,122.1,248.9,122.1z"/>
			<path d="M248.9,188.9c-17.7,0-32.1-14.4-32.1-32.1s14.4-32.1,32.1-32.1s32.1,14.3,32.1,32S266.6,188.9,248.9,188.9z M248.9,125
				c-17.5,0-31.8,14.2-31.8,31.8s14.2,31.8,31.8,31.8s31.8-14.2,31.8-31.8S266.4,125,248.9,125z"/>
			<g>
				<path d="M261.3,134.7c0.4,0,0.7,0.2,0.7,0.5v27h10.6c0.3,0,0.6,0.3,0.6,0.5v7.6c0,0.4-0.2,0.5-0.6,0.5h-46.1
					c-0.3,0-0.5-0.4-0.5-0.7v-7.5c0-0.3,0.4-0.5,0.6-0.5h10.9v-15h-10.7c-0.5,0-0.9-0.2-0.9-0.5v-6.9c0-0.3,0.2-0.9,0.5-0.9h16.2
					c2.4,0,3.8-2.3,4.8-3.8c0.1-0.2,0.5-0.4,0.7-0.4L261.3,134.7L261.3,134.7z"/>
			</g>
		</g>
		<g>
			<g>
				<g>
					<g>
						<path class="st9" d="M522.1,468.6l11.9,56.6l-1.9,18.5l-70.3-0.4c-1.8,0-3.2-1.5-3.2-3.2l0,0c0-1.3,0.8-2.5,2.1-3l31.4-14.4
							l-14.8-58.9"/>
						<path class="st10" d="M455.5,542.6c0.7-2.3,2.1-4.9,3.5-5.5l33.3-14.3c18.3,7.4,42.1,1.8,42.1,1.8l1.8,25
							c0,0.8-0.7,1.5-1.5,1.5l-78.6-0.4C454.4,550.6,455.4,542.7,455.5,542.6z"/>
						<path class="st11" d="M485,524.1c1.9,2.4,3.4,5.1,4.7,7.9"/>
						<path class="st11" d="M480.8,526.7c1.9,2.7,2.7,4.2,3.9,6.7"/>
						<path class="st11" d="M477.3,528.5c1.3,1.8,2.6,4.2,3.6,6.1"/>
					</g>
					<line class="st11" x1="535.7" y1="545.6" x2="455.1" y2="545.2"/>
					<path class="st11" d="M534.9,533.6c0,0-18.6,0.1-20.3,11.9"/>
					<path class="st11" d="M465.8,534.1c0,0,5.4,7.6,6.4,11.2"/>
				</g>
				<path class="st12" d="M496.9,263.3c0,0-45,100.6-42.6,136.3c2.2,33.2,27.4,117.2,27.4,117.2l53.9-9.9c0,0-25.8-103.8-24.5-114.5
					c1.3-10.7,34.3-84.6,34.3-84.6s12.8-17.4,8.4-47.3"/>
				<path class="st13" d="M526.6,508.5c0,0-25.2-104.8-23.8-115.5c1.3-10.7,32.5-83.3,32.5-83.3"/>
				<line class="st13" x1="533.2" y1="496.9" x2="479.1" y2="507.9"/>
				<g>
					<g>
						<path class="st9" d="M600.1,442.2l25.2,52.6l6.1,17.6l-63.8,29.5c-1.6,0.7-3.5,0-4.3-1.6l0,0c-0.6-1.2-0.3-2.6,0.6-3.6
							l22.3-26.4l-28.8-53.6"/>
						<path class="st10" d="M561.5,543.9c-0.3-2.4-0.2-5.4,0.8-6.5l24-27.1c19.8-1,38.8-16.3,38.8-16.3l12.3,21.9
							c0.3,0.8,0,1.6-0.7,2L565.4,551C563.9,551.6,561.5,544,561.5,543.9z"/>
						<path class="st11" d="M580.4,514.7c2.7,1.4,5.3,3.1,7.6,5.1"/>
						<path class="st11" d="M577.7,518.8c2.9,1.6,4.2,2.7,6.3,4.4"/>
						<path class="st11" d="M575.3,521.9c1.9,1,4.1,2.7,5.9,4"/>
					</g>
					<line class="st11" x1="635.4" y1="512.7" x2="562.3" y2="546.4"/>
					<path class="st11" d="M629.6,502.1c0,0-16.8,8-13.4,19.4"/>
					<path class="st11" d="M567.2,531.9c0,0,8.1,4.6,10.6,7.4"/>
				</g>
				<path class="st12" d="M532.5,266.3c0,0-17.1,95-9.1,129.8C532.5,435,571.5,501,571.5,501l48.6-24.2c0,0-42-80.2-41.9-97.5
					c0-10.8,9.6-77.5,9.6-77.5s9.6-19.3,0.2-48.1"/>
				<path class="st13" d="M609,482.4c0,0-41.9-78.3-41.9-100.6c0-10.8,6.7-61.3,9.6-77.5c3-16.2,8.7-35,0.2-48.1"/>
				<path class="st13" d="M521.4,363.8c2.6-26.7,5.6-62.5,9.6-94.5"/>
				<path class="st13" d="M559.6,269.4c0,0,3.3,8.2,21.1,12.9"/>
				<path class="st13" d="M523.2,271.3c0,0-2.7,19.6-1.1,22.2c0.7,1.2,6.4,2.3,6.4,2.3"/>
				<path class="st13" d="M490.2,279c0,0,10.8,0.3,17-6.6"/>
				<line class="st13" x1="615.8" y1="468.4" x2="566.5" y2="492.2"/>
			</g>
			<g>
				<path class="st10" d="M511.9,120.7c0,0-20.5,5.9-23.4,45c-2.8,16.1,3.9,105.4,3.9,105.3c49.5,8.6,102.3-6.8,102.3-6.8
					s-9.2-56-12.8-77c-8.8-52.8-45.3-64-45.3-64L511.9,120.7z"/>
			</g>
			<path class="st9" d="M520.5,121c0,0-12-21.2-30.8-42.1C465.1,51.6,428,28.6,428,28.6s-25.1,17.6-13.6,26.9
				c15.3,10.3,34.8,30.8,49.6,49.3c9.3,11.5,28,46.9,28,46.9"/>
			<g>
				<path class="st9" d="M421.5,60.1c-8.8-6.6-37.5-21.5-37.1-23.7c0.3-2.2,10.5,2.9,10.4,1c-0.1-1.9-15.2-10.8-14.3-12.9
					c1.2-2.9,16.2,7,16.2,7s-15.8-11.7-14-13.9c1.3-1.6,13.8,6.8,18.9,9.4c-5.3-3.5-13.1-10.3-11.7-11.9c1.3-1.6,10,3.9,16.8,7.8
					c-4-2.8-11.1-8.4-9.9-9.9c1.2-1.5,23.2,9.6,43.9,23.9"/>
			</g>
			<g>
				<path class="st9" d="M558,186.3c0,0-18.4,36.5-37.8,56.7c-25.5,26.5-66.3,45.1-66.3,45.1s-24.5-18.5-12.7-27.3
					c15.6-9.8,40.3-29.1,55.8-47.1c9.7-11.2,25.1-46.3,25.1-46.3"/>
				<g>
					<path class="st9" d="M448.5,256.4c-9,6.3-38.2,20.1-37.9,22.4c0.2,2.2,10.6-2.5,10.4-0.6c-0.2,1.9-15.5,10.2-14.7,12.4
						c1.1,2.9,16.4-6.5,16.4-6.5s-16.2,11.2-14.5,13.4c1.2,1.6,14-6.3,19.3-8.8c-5.4,3.4-13.4,9.8-12.1,11.5
						c1.3,1.6,10.1-3.6,17.1-7.2c-4.1,2.7-11.4,8-10.3,9.5c1.1,1.6,23.5-9.6,44.1-21"/>
				</g>
				<path class="st10" d="M521.4,158c-5.1,17.2-18.6,45.7-18.6,45.7l36.7,19.3c0,0,18.9-23.1,26.1-50.8"/>
				<path class="st11" d="M539.4,222.9c0,0,20.5-28.7,24.1-44.2"/>
				<path class="st11" d="M502.7,203.6c0,0,13.6-26.4,16.5-39.2"/>
			</g>
			<path class="st10" d="M487.9,177.3c-0.5-14.4-7.4-44.4-28-71.8l32.4-25.9c0,0,28.5,22.8,36.6,42.9"/>
			<g>
				<path class="st9" d="M505.5,79.3c0,0-8.3,22.9-0.9,30.4c3.8,3.9,15.1,4.6,19.9,0.7c3.6-2.9,8.9-20.5,6.8-23.6
					C523.7,75,505.5,79.3,505.5,79.3z"/>
				<path class="st14" d="M510.1,90.1c0,0-4.4,5.4-4.3,7.1c0.2,1.7,4,2.3,4,2.3"/>
				<path class="st7" d="M505.5,101l10.4,2.6c0,0-2.6,5.2-8.2,3.4C503.6,105.7,505.5,101,505.5,101z"/>
				<g>
					<g>
						<path d="M506.3,87.8c-0.1,0.2-0.2,0.4-0.3,0.7c-0.1,0.2-0.2,0.5-0.3,0.7c0,0.1,0,0.2,0,0.3c0,0.1,0.1,0.1,0.2,0.2
							c0.1,0,0.2,0,0.3,0c0.1,0,0.2-0.1,0.2-0.2c0.2-0.5,0.4-1,0.5-1.4c0.1-0.2,0-0.3-0.2-0.4C506.6,87.6,506.4,87.7,506.3,87.8
							L506.3,87.8z"/>
					</g>
				</g>
				<path class="st15" d="M509.7,85.7c0,0-1.4-2.4-3.9-0.9"/>
				<g>
					<g>
						<path d="M518,92.1c-0.2,0.4-0.4,0.9-0.5,1.3c-0.1,0.2,0.1,0.4,0.3,0.5c0.2,0.1,0.4-0.1,0.5-0.3c0.2-0.4,0.3-0.9,0.4-1.4
							c0-0.2-0.1-0.4-0.2-0.4c-0.1,0-0.2,0-0.3,0C518.1,91.9,518,92,518,92.1L518,92.1z"/>
					</g>
				</g>
				<path class="st15" d="M517.7,87.8c0,0,2.7-0.6,5,2.7"/>
				<path class="st9" d="M531.9,102.7l4.5,21.3c0,0-16.4,11.9-25.6-1l-0.4-13.9L531.9,102.7z"/>
				<g>
					<path class="st16" d="M540.4,96.3c0.2-0.8,0.4-1.6,0.7-2.5c0.7-1.9,1.8-3.7,2.5-5.6c1.5-3.8,0.3-8.6-3-11.1
						c-0.6-0.5-1.2-0.8-1.7-1.4c-1.1-1.2-1.5-2.9-2.2-4.4c-0.5-1.2-1.3-2.4-2.5-3c-2.7-1.4-6.3,0.5-9-0.9c-0.6-0.3-1.1-0.8-1.6-1.2
						c-3.9-2.9-8.3-2.3-12.6-0.7c-2,0.7-2.6,1.5-4.3,2.8c-1.8,1.4-4.3,1.3-6.1,2.7c-1.9,1.4-2.4,4.1-2.4,6.5c0,0.9,0,1.8,0.4,2.5
						c0.5,1,1.4,1.7,2.4,2.2c2.4,1.1,5.2,0.7,7.7,0.5c2.5-0.2,5.4-2,7.9-1c2.4,0.9,3,3.8,6,4.1c1.2,0.1,2.6-0.1,3.3,0.8
						c0.8,1.1,0.4,2.8,1,4c0.6,1.2,1.6,2.2,2.4,3.3c1.5,2.1,3.6,3.6,2.9,6.4c-0.5,1.9-2.7,5-1.8,7.1c0.6,1.3,3.5,1.3,5.8-0.4
						c2.3-1.8,3-5.1,3.6-7.8C540,98.2,540.1,97.2,540.4,96.3z"/>
				</g>
				<path class="st9" d="M529.8,96.7c2.2-3.6,4.3-3.3,5.7-1.6c1.8,2.2-0.7,7.5-2,8.5c-2.7,2-5,2.1-5.5-0.2"/>
				<path class="st17" d="M510.3,113.1c8.2,0.3,15.1-3.7,15.1-3.7"/>
			</g>
			<path class="st11" d="M487.5,172c0,0,0.5-22.4-2-29.3"/>
			<path class="st11" d="M507.4,126.5c0,0,4.1,7.1,15.1,6.9c12.5-0.3,17.7-8.7,17.7-8.7"/>
		</g>
	</g>
</g>
<path class="st18" d="M630.6,412.5H0.6v-61c0-11.9,9.7-21.6,21.6-21.6H609c11.9,0,21.6,9.7,21.6,21.6V412.5z"/>
<g>
	<g class="st19">
		<path d="M217.2,382.9h-4.7v-27h4.7V382.9z"/>
		<path d="M226.7,362.8l0.1,2.3c1.5-1.8,3.4-2.7,5.8-2.7c4.2,0,6.3,2.4,6.4,7.2v13.3h-4.5v-13c0-1.3-0.3-2.2-0.8-2.8
			c-0.6-0.6-1.5-0.9-2.7-0.9c-1.8,0-3.2,0.8-4.1,2.5V383h-4.5v-20.1L226.7,362.8L226.7,362.8z"/>
		<path d="M249.3,357.9v4.9h3.5v3.3h-3.5v11.2c0,0.8,0.2,1.3,0.5,1.7c0.3,0.3,0.8,0.5,1.6,0.5c0.5,0,1-0.1,1.6-0.2v3.5
			c-1,0.3-2,0.4-3,0.4c-3.5,0-5.2-1.9-5.2-5.7v-11.4h-3.3v-3.3h3.3v-4.9H249.3z"/>
		<path d="M266.8,366.9c-0.6-0.1-1.2-0.1-1.8-0.1c-2.1,0-3.5,0.8-4.2,2.4v13.7h-4.5v-20.1h4.3l0.1,2.2c1.1-1.7,2.6-2.6,4.5-2.6
			c0.6,0,1.2,0.1,1.6,0.3V366.9z"/>
		<path d="M268.1,372.7c0-2,0.4-3.7,1.2-5.3c0.8-1.6,1.9-2.8,3.3-3.6c1.4-0.8,3-1.3,4.9-1.3c2.7,0,4.9,0.9,6.6,2.6s2.6,4.1,2.7,6.9
			v1.1c0,2-0.4,3.7-1.1,5.3s-1.8,2.8-3.3,3.6c-1.4,0.9-3.1,1.3-4.9,1.3c-2.8,0-5.1-0.9-6.8-2.8c-1.7-1.9-2.6-4.4-2.6-7.5
			L268.1,372.7L268.1,372.7z M272.6,373c0,2.1,0.4,3.7,1.3,4.9c0.9,1.2,2,1.8,3.6,1.8s2.7-0.6,3.6-1.8c0.8-1.2,1.3-2.9,1.3-5.2
			c0-2-0.4-3.6-1.3-4.8s-2.1-1.8-3.6-1.8s-2.6,0.6-3.5,1.8C273.1,369,272.6,370.7,272.6,373z"/>
		<path d="M289.8,372.7c0-3.1,0.7-5.6,2.2-7.5c1.4-1.9,3.4-2.8,5.8-2.8c2.1,0,3.8,0.7,5.2,2.2v-10.3h4.5v28.5h-4.1l-0.2-2.1
			c-1.3,1.6-3.1,2.4-5.4,2.4c-2.4,0-4.3-0.9-5.7-2.8C290.5,378.5,289.8,375.9,289.8,372.7z M294.3,373.1c0,2,0.4,3.6,1.2,4.8
			c0.8,1.1,1.9,1.7,3.3,1.7c1.8,0,3.2-0.8,4-2.5v-8.6c-0.8-1.6-2.2-2.4-4-2.4c-1.5,0-2.6,0.6-3.4,1.7
			C294.7,369,294.3,370.8,294.3,373.1z"/>
		<path d="M324.2,380.9c-1.3,1.6-3.2,2.3-5.6,2.3c-2.2,0-3.8-0.6-4.9-1.9s-1.7-3.1-1.7-5.5v-13h4.5v13c0,2.5,1.1,3.8,3.2,3.8
			c2.2,0,3.7-0.8,4.4-2.4v-14.4h4.5v20.1h-4.2L324.2,380.9z"/>
		<path d="M341.4,379.6c1.1,0,2.1-0.3,2.8-1c0.7-0.7,1.1-1.5,1.2-2.4h4.2c0,1.3-0.4,2.4-1.2,3.5c-0.7,1.1-1.7,1.9-3,2.6
			c-1.3,0.6-2.6,0.9-4,0.9c-2.8,0-5-0.9-6.7-2.7c-1.6-1.8-2.5-4.3-2.5-7.5v-0.5c0-3.1,0.8-5.5,2.4-7.3s3.9-2.8,6.7-2.8
			c2.4,0,4.3,0.7,5.8,2.1s2.3,3.2,2.4,5.5h-4.2c0-1.2-0.4-2.1-1.2-2.8c-0.7-0.7-1.7-1.1-2.8-1.1c-1.5,0-2.6,0.5-3.4,1.6
			s-1.2,2.7-1.2,4.8v0.7c0,2.2,0.4,3.8,1.2,4.9C338.8,379.1,339.9,379.6,341.4,379.6z"/>
		<path d="M361.3,379.6c1.1,0,2.1-0.3,2.8-1c0.7-0.7,1.1-1.5,1.2-2.4h4.2c0,1.3-0.4,2.4-1.2,3.5c-0.7,1.1-1.7,1.9-3,2.6
			c-1.3,0.6-2.6,0.9-4,0.9c-2.8,0-5-0.9-6.7-2.7c-1.6-1.8-2.5-4.3-2.5-7.5v-0.5c0-3.1,0.8-5.5,2.4-7.3s3.9-2.8,6.7-2.8
			c2.4,0,4.3,0.7,5.8,2.1s2.3,3.2,2.4,5.5h-4.2c0-1.2-0.4-2.1-1.2-2.8c-0.7-0.7-1.7-1.1-2.8-1.1c-1.5,0-2.6,0.5-3.4,1.6
			s-1.2,2.7-1.2,4.8v0.7c0,2.2,0.4,3.8,1.2,4.9C358.7,379.1,359.8,379.6,361.3,379.6z"/>
		<path d="M373,357.6c0-0.7,0.2-1.3,0.7-1.7c0.4-0.5,1.1-0.7,1.9-0.7s1.4,0.2,1.9,0.7c0.4,0.5,0.7,1,0.7,1.7s-0.2,1.2-0.7,1.7
			c-0.4,0.5-1.1,0.7-1.9,0.7s-1.4-0.2-1.9-0.7C373.2,358.8,373,358.3,373,357.6z M377.8,382.9h-4.5v-20.1h4.5V382.9z"/>
		<path d="M381.8,372.7c0-2,0.4-3.7,1.2-5.3c0.8-1.6,1.9-2.8,3.3-3.6c1.4-0.8,3-1.3,4.9-1.3c2.7,0,4.9,0.9,6.6,2.6s2.6,4.1,2.7,6.9
			v1.1c0,2-0.4,3.7-1.1,5.3c-0.8,1.6-1.8,2.8-3.3,3.6c-1.4,0.9-3.1,1.3-4.9,1.3c-2.8,0-5.1-0.9-6.8-2.8c-1.7-1.9-2.6-4.4-2.6-7.5
			L381.8,372.7L381.8,372.7z M386.3,373c0,2.1,0.4,3.7,1.3,4.9c0.9,1.2,2,1.8,3.6,1.8s2.7-0.6,3.6-1.8s1.3-2.9,1.3-5.2
			c0-2-0.4-3.6-1.3-4.8c-0.9-1.2-2.1-1.8-3.6-1.8s-2.6,0.6-3.5,1.8C386.8,369,386.3,370.7,386.3,373z M392.4,354.4h5.1l-5.1,5.6
			h-3.6L392.4,354.4z"/>
		<path d="M408.5,362.8l0.1,2.3c1.5-1.8,3.4-2.7,5.8-2.7c4.2,0,6.3,2.4,6.4,7.2v13.3h-4.5v-13c0-1.3-0.3-2.2-0.8-2.8
			c-0.6-0.6-1.5-0.9-2.7-0.9c-1.8,0-3.2,0.8-4.1,2.5V383h-4.5v-20.1L408.5,362.8L408.5,362.8z"/>
	</g>
</g>
<g>
	<text transform="matrix(1 0 0 1 162.5945 492.8767)" class="st7" style="font-family:'Roboto-Medium'; font-size:38px;">Introducción</text>
</g>
</svg>
