<?xml version="1.0" encoding="utf-8"?>
<!-- Generator: Adobe Illustrator 24.3.0, SVG Export Plug-In . SVG Version: 6.00 Build 0)  -->
<svg version="1.1" id="Capa_1" xmlns="http://www.w3.org/2000/svg" xmlns:xlink="http://www.w3.org/1999/xlink" x="0px" y="0px"
	 viewBox="0 0 632.6 412.9" style="enable-background:new 0 0 632.6 412.9;" xml:space="preserve">
<style type="text/css">
	.st0{opacity:0.3;}
	.st1{fill:#CE9E19;}
	.st2{fill:#ABB0B7;}
	.st3{fill:#768093;}
	.st4{fill:#DCE8EA;stroke:#000000;stroke-miterlimit:10;}
	.st5{fill:#025482;}
	.st6{fill:#475263;}
	.st7{fill:#FFFFFF;}
	.st8{fill:#67CFE8;}
	.st9{fill:#B55040;}
	.st10{fill:#CCC6BA;}
	.st11{fill:none;stroke:#6D685C;stroke-linejoin:round;stroke-miterlimit:10;}
	.st12{fill:#1E1E17;}
	.st13{fill:#F99143;}
	.st14{fill:none;stroke:#189393;stroke-miterlimit:10;}
	.st15{fill:none;stroke:#6D685C;stroke-miterlimit:10;}
	.st16{fill:#6D685C;}
	.st17{fill:#000100;}
	.st18{fill:#312CFF;}
	.st19{clip-path:url(#SVGID_4_);fill:#303029;}
	.st20{fill:none;stroke:#FFFFFF;stroke-miterlimit:10;}
	.st21{fill:#99382E;}
	.st22{fill:none;stroke:#000100;stroke-width:0.75;stroke-linecap:round;stroke-linejoin:round;stroke-miterlimit:10;}
	.st23{fill:none;stroke:#000100;stroke-miterlimit:10;}
	.st24{fill:#3E88FF;}
	.st25{fill:none;stroke:#312CFF;stroke-miterlimit:10;}
	.st26{fill:none;stroke:#3E88FF;stroke-width:2;stroke-miterlimit:10;}
	.st27{fill:#1DA8DE;}
	.st28{enable-background:new    ;}
</style>
<g>
	<text transform="matrix(1 0 0 1 154.6021 610.506)" class="st7" style="font-family:'Roboto-Medium'; font-size:38px;">Avisos importantes</text>
</g>
<g>
	<g>
		<g class="st0">
			<g>
				<g>
					<g>
						<ellipse class="st1" cx="429.9" cy="370.5" rx="79.3" ry="23.5"/>
					</g>
				</g>
			</g>
		</g>
		<g>
			<g>
				<g>
					<polygon class="st2" points="26.2,312.3 70.9,271 428.2,271 467.6,312.3 					"/>
				</g>
			</g>
			<g>
				<g>
					<path class="st3" d="M422.6,275.7H71.2c-5.8,0-10.5-4.9-10.5-10.9v-220c0-6,4.7-10.9,10.5-10.9h351.4c5.8,0,10.5,4.9,10.5,10.9
						v220C433.1,270.8,428.4,275.7,422.6,275.7z"/>
				</g>
			</g>
			<g>
				<g>
					<path class="st4" d="M409,266.6H84.9c-5.3,0-9.7-4.3-9.7-9.7V60.6c0-5.4,4.3-9.7,9.7-9.7H409c5.4,0,9.7,4.3,9.7,9.7v196.3
						C418.7,262.3,414.3,266.6,409,266.6z"/>
				</g>
			</g>
			<g>
				<g>
					<path class="st5" d="M250.9,41.1c0,2.2-1.8,3.9-3.9,3.9s-3.9-1.8-3.9-3.9c0-2.2,1.8-3.9,3.9-3.9S250.9,38.9,250.9,41.1z"/>
				</g>
			</g>
			<g>
				<g>
					<path class="st3" d="M445,345.2H48.8c-12.5,0-22.6-10.1-22.6-22.6v-10.3h441.4v10.3C467.6,335.1,457.5,345.2,445,345.2z"/>
				</g>
			</g>
			<g>
				<g>
					<path class="st6" d="M170.7,275.6c0,2.2-1.8,3.9-3.9,3.9h-44.7c-2.2,0-3.9-1.8-3.9-3.9l0,0c0-2.2,1.8-3.9,3.9-3.9h44.7
						C169,271.6,170.7,273.4,170.7,275.6L170.7,275.6z"/>
				</g>
			</g>
			<g>
				<g>
					<path class="st6" d="M382.2,275.6c0,2.2-1.8,3.9-3.9,3.9h-44.7c-2.2,0-3.9-1.8-3.9-3.9l0,0c0-2.2,1.8-3.9,3.9-3.9h44.7
						C380.5,271.6,382.2,273.4,382.2,275.6L382.2,275.6z"/>
				</g>
			</g>
			<g>
				<g>
					<polygon class="st3" points="195,306.4 209.7,292.8 285.9,292.8 298.8,306.4 					"/>
				</g>
			</g>
			<g>
				<g>
					<rect x="235.4" y="284.5" class="st7" width="24.6" height="1.2"/>
				</g>
			</g>
			<g>
				<g>
					<g>
						<rect x="55.8" y="302.2" class="st7" width="27.6" height="1.2"/>
					</g>
				</g>
				<g>
					<g>
						<rect x="79.1" y="284.5" class="st7" width="24.6" height="1.2"/>
					</g>
				</g>
				<g>
					<g>
						<rect x="68.6" y="292.6" class="st7" width="24.6" height="1.2"/>
					</g>
				</g>
				<g>
					<g>
						<rect x="127.1" y="284.5" class="st7" width="24.6" height="1.2"/>
					</g>
				</g>
				<g>
					<g>
						<rect x="114.6" y="292.6" class="st7" width="24.6" height="1.2"/>
					</g>
				</g>
				<g>
					<g>
						<rect x="144.5" y="302.2" class="st7" width="27.6" height="1.2"/>
					</g>
				</g>
				<g>
					<g>
						<rect x="173.7" y="284.5" class="st7" width="24.6" height="1.2"/>
					</g>
				</g>
				<g>
					<g>
						<rect x="161.2" y="292.6" class="st7" width="24.6" height="1.2"/>
					</g>
				</g>
				<g>
					<g>
						<rect x="100.4" y="304.2" class="st7" width="27.6" height="1.2"/>
					</g>
				</g>
			</g>
			<g>
				<g>
					<g>
						<rect x="415.1" y="302.2" class="st7" width="27.6" height="1.2"/>
					</g>
				</g>
				<g>
					<g>
						<rect x="394.7" y="284.5" class="st7" width="24.6" height="1.2"/>
					</g>
				</g>
				<g>
					<g>
						<rect x="405.2" y="292.6" class="st7" width="24.6" height="1.2"/>
					</g>
				</g>
				<g>
					<g>
						<rect x="346.8" y="284.5" class="st7" width="24.6" height="1.2"/>
					</g>
				</g>
				<g>
					<g>
						<rect x="359.2" y="292.6" class="st7" width="24.6" height="1.2"/>
					</g>
				</g>
				<g>
					<g>
						<rect x="326.4" y="302.2" class="st7" width="27.6" height="1.2"/>
					</g>
				</g>
				<g>
					<g>
						<rect x="300.1" y="284.5" class="st7" width="24.6" height="1.2"/>
					</g>
				</g>
				<g>
					<g>
						<rect x="312.6" y="292.6" class="st7" width="24.6" height="1.2"/>
					</g>
				</g>
				<g>
					<g>
						<rect x="370.4" y="304.2" class="st7" width="27.6" height="1.2"/>
					</g>
				</g>
			</g>
			<g>
				<defs>
					<path id="SVGID_1_" d="M409,266.6H84.9c-5.3,0-9.7-4.3-9.7-9.7V60.6c0-5.4,4.3-9.7,9.7-9.7H409c5.4,0,9.7,4.3,9.7,9.7v196.3
						C418.7,262.3,414.3,266.6,409,266.6z"/>
				</defs>
				<clipPath id="SVGID_2_">
					<use xlink:href="#SVGID_1_"  style="overflow:visible;"/>
				</clipPath>
			</g>
			<rect x="248.5" y="51" width="0.7" height="211.4"/>
			<rect x="143.2" y="156.4" width="211.4" height="0.7"/>
			<polygon class="st8" points="248.9,51.5 248.9,156.7 300.2,51.5 			"/>
			<path d="M248.9,191.7c-19.3,0-35-15.7-35-35s15.7-35,35-35s35,15.7,35,35S268.2,191.7,248.9,191.7z M248.9,122.1
				c-19.1,0-34.6,15.5-34.6,34.6c0,19.1,15.5,34.6,34.6,34.6c19.1,0,34.6-15.5,34.6-34.6C283.4,137.7,267.9,122.1,248.9,122.1z"/>
			<path d="M248.9,188.9c-17.7,0-32.1-14.4-32.1-32.1s14.4-32.1,32.1-32.1S281,139,281,156.7S266.6,188.9,248.9,188.9z M248.9,125
				c-17.5,0-31.8,14.2-31.8,31.8s14.2,31.8,31.8,31.8s31.8-14.2,31.8-31.8S266.4,125,248.9,125z"/>
			<g>
				<path d="M261.3,134.7c0.4,0,0.7,0.2,0.7,0.5v27h10.6c0.3,0,0.6,0.3,0.6,0.5v7.6c0,0.4-0.2,0.5-0.6,0.5h-46.1
					c-0.3,0-0.5-0.4-0.5-0.7v-7.5c0-0.3,0.4-0.5,0.6-0.5h10.9v-15h-10.7c-0.5,0-0.9-0.2-0.9-0.5v-6.9c0-0.3,0.2-0.9,0.5-0.9h16.2
					c2.4,0,3.8-2.3,4.8-3.8c0.1-0.2,0.5-0.4,0.7-0.4H261.3z"/>
			</g>
		</g>
		<g>
			<g>
				<path class="st9" d="M368.2,422.4c0,0-5.7,21.9-6,32.2c-1.2,33.2,19.1,111,19.1,111l-44.2,7.5c0,0-24.3-59.9-28.7-115.8
					c-2.7-33.9,11.7-74.4,11.7-74.4"/>
				<g>
					<polygon class="st10" points="339.7,583.9 382.1,567.2 379.4,551.8 336.4,572.5 					"/>
					<line class="st11" x1="340.8" y1="570.3" x2="342.3" y2="576.3"/>
					<line class="st11" x1="348.1" y1="566.8" x2="349.6" y2="572.8"/>
					<line class="st11" x1="354.8" y1="563.4" x2="356.3" y2="569.4"/>
					<line class="st11" x1="361" y1="560.5" x2="362.5" y2="566.4"/>
					<line class="st11" x1="367.4" y1="557.5" x2="368.9" y2="563.4"/>
					<line class="st11" x1="373.7" y1="554.5" x2="375.2" y2="560.5"/>
					<path class="st12" d="M381.7,561.3l9.3,22.8l-31.5,24.8c-1.7,1.3-3.8,2.1-6,2.1H321v-2.5c0.5-3.1,2.1-4.5,4.4-6l12-5.8l1.6-14
						L381.7,561.3z"/>
					<polyline class="st11" points="344,583.7 337.9,586.2 343.1,589.3 337.3,591.8 341.5,595.1 336.4,595.1 					"/>
					<path class="st11" d="M338.4,586.5c0,0-2.5-3.2-4-4.5c-1.3-1-2.9-1.9-4.6-1.3c-0.6,0.2-1.2,0.7-1.3,1.3
						c-0.1,0.8,0.5,1.4,1.1,1.9c2.4,1.8,5.2,2.8,8.1,3"/>
					<path class="st11" d="M338.1,586.8c-2.1,0-4,0.7-5.9,1.5c-1.1,0.5-2.2,0.9-3.2,1.6c-3.3,2.2-0.1,7.6,3.1,4.1
						c2.4-2.6,4.6-5.4,6.5-8.3"/>
					<path class="st11" d="M388.3,577.7l-31.1,25.1c-1.7,1.4-3.9,2.1-6.1,2.1h-28.5"/>
					<path class="st11" d="M384.1,567.2c0,0-9.4,7.6-7.9,20.3"/>
					<path class="st11" d="M336.2,604.9c-0.3-1.9-1.9-4.6-3.1-6.2"/>
				</g>
				<path class="st9" d="M393.9,386.7c0.5,90.8,10.3,204,10.3,204l47.1-0.4c0,0-0.8-73.5-0.5-193.5"/>
				<path class="st13" d="M455.5,307.2c4.3,13.8-0.4,41.6-0.4,41.6l-0.7,80.8h-64.8l-2.5-49.9l-10.5,49.9l-67.8-17.5l32.6-106.7"/>
				<line class="st14" x1="454.5" y1="415.4" x2="388.8" y2="415.4"/>
				<path class="st14" d="M447.8,415.4c0-0.8,0.9-36.8,1.7-65.6c3.3-22.8,0.9-35.6,0.9-35.6"/>
				<path class="st14" d="M450.5,340.6c0,0-8.4-12.6-13.3-22.8"/>
				<path class="st14" d="M387,381.7c0,0-1.7-15-2.9-19.7c-1.2-4.7-0.4-21.3,0-39.6"/>
				<path class="st14" d="M383.5,353.4c0,0-6.4-3.4-7.4-6.3c-0.9-2.9-1.4-32.8-1.4-32.8"/>
				<line class="st14" x1="379.3" y1="416" x2="312.6" y2="399.1"/>
				<path class="st14" d="M385.7,371.4c0,0-6.6,20.2-11.6,43.4"/>
				<path class="st14" d="M355.2,312.2c0,0-9.9,13.8-21.7,18.8"/>
				<g>
					<polygon class="st10" points="403.9,590.1 451.7,590.6 451.7,574.9 402.8,577.2 					"/>
					<path class="st12" d="M451.8,584l2.2,27h-82.3v-5.5c0-2.2,1.3-4.3,3.3-5.3l28.7-14.7L451.8,584z"/>
					<line class="st15" x1="453.6" y1="605.4" x2="371.7" y2="605.4"/>
					<path class="st15" d="M452.3,589.4c0,0-15.1,1.2-21.3,16"/>
					<path class="st15" d="M384.7,595.2c0,0,5.8,4.7,6,10.2"/>
					<polyline class="st11" points="405.8,589.7 400,586.4 400.8,592.4 395.3,589.4 395.3,594.7 392.1,590.7 					"/>
					<path class="st11" d="M400.1,587c0,0,1-4,1-5.9c0-1.6-0.3-3.5-1.8-4.4c-0.5-0.3-1.2-0.5-1.8-0.2c-0.7,0.4-0.8,1.3-0.8,2
						c0,3,1,5.8,2.6,8.3"/>
					<g>
						<g>
							<path class="st16" d="M399.9,586.8c-1.2-1.6-2.9-2.7-4.6-3.7c-1.6-0.9-3.7-2.3-5.6-1.9c-1.6,0.3-3,2.6-2.4,4.2
								c0.7,1.8,3.5,1.6,5.1,1.7c2.9,0.2,5.7,0.1,8.6-0.2c0.4,0,0.4-0.7,0-0.6c-2.6,0.2-5.2,0.4-7.9,0.3c-1.2,0-2.5,0-3.6-0.3
								c-0.6-0.1-1.2-0.4-1.6-0.9c-0.4-0.6-0.1-1.4,0.2-2c0.3-0.5,0.6-1.1,1.2-1.4c0.5-0.3,1.2-0.3,1.8-0.2c1.1,0.2,2.2,0.8,3.2,1.3
								c2,1.1,4,2.2,5.4,4C399.7,587.2,400,587,399.9,586.8L399.9,586.8z"/>
						</g>
					</g>
					<line class="st11" x1="446" y1="575.2" x2="446.2" y2="581.1"/>
					<line class="st11" x1="437.4" y1="575.5" x2="437.6" y2="581.4"/>
					<line class="st11" x1="428.1" y1="576" x2="428.3" y2="581.9"/>
					<line class="st11" x1="419.5" y1="576.3" x2="419.7" y2="582.2"/>
					<line class="st11" x1="409.6" y1="576.8" x2="409.8" y2="582.7"/>
				</g>
			</g>
			<g>
				<g>
					<path class="st9" d="M317.8,204.7c-22.6,25.4-50.6,44.6-81.7,61.7l3.3,32.4c39.7-14.5,75.7-38.7,104.1-70"/>
				</g>
				<g>
					<path class="st9" d="M240,264.2c-14,7.9-34.1,13.5-34.9,15.8c-0.3,1,0.5,1.7,2,2c3.2,0.5,8.6-0.7,8.9,1.2
						c0.1,1.1-12.7,6.1-17.7,9.4c-1.8,1.2-0.4,3,0.9,2.8c5.2-0.9,17-5.3,17-5.3c0.2,0.8-13.5,5.4-18,9.1c-1,0.8-0.4,2.9,1,2.7
						c5.5-1,19.9-5.8,19.9-5.8s-14.1,4.7-17.8,8.4c-0.7,0.7,0.1,2.5,1.1,2.4c4.3-0.7,20.6-6.3,20.6-6.3s-11.8,4.3-15,6.8
						c-0.9,0.7,0.4,2.6,1.4,2.6c8.3-0.7,41.4-15.6,41.4-15.6"/>
				</g>
				<g>
					<g>
						<path class="st17" d="M225.6,298.3c0.9-2.4,1.8-4.9,3.5-6.9c0.7-0.9,1.6-1.6,2.5-2.3c0.5-0.3,1-0.6,1.6-0.8
							c0.5-0.2,1.1-0.3,1.6-0.5c0.2-0.1,0.1-0.3-0.1-0.3c-1.1,0-2.3,0.6-3.2,1.2c-1,0.6-1.9,1.5-2.7,2.4c-1.7,2.1-2.8,4.6-3.4,7.2
							C225.2,298.5,225.5,298.6,225.6,298.3L225.6,298.3z"/>
					</g>
				</g>
				<g>
					<g>
						<path class="st17" d="M218.6,282.3c2,0.4,4.1,0.4,6.2,0.1c1-0.2,2.1-0.4,3.1-0.7c1-0.3,2-0.7,2.8-1.4c0.2-0.1,0.1-0.5-0.2-0.4
							c-1,0.3-1.9,0.8-2.8,1.1c-0.9,0.3-1.8,0.6-2.8,0.7c-2,0.4-4.1,0.4-6.2,0.1C218.4,281.8,218.3,282.2,218.6,282.3L218.6,282.3z"
							/>
					</g>
				</g>
			</g>
			<g>
				<g>
					<path class="st9" d="M481.4,196.6c26.8,19.6,57.6,32.4,90.9,42.5l3.1,31.3c-41.1-6-80.7-21.9-114.1-46"/>
				</g>
				<g>
					<path class="st9" d="M568.1,237.8c15,4.7,35.6,6.2,36.8,8.2c0.5,0.9-0.2,1.8-1.5,2.3c-3,1.1-8.5,1-8.3,2.9
						c0.1,1.1,13.4,3.3,18.9,5.5c2,0.8,1,2.8-0.3,2.8c-5.1,0.1-17.5-1.7-17.5-1.7c0,0.8,14.1,2.5,19.1,5.2c1.1,0.6,1,2.7-0.4,2.7
						c-5.5,0.2-20.4-1.6-20.4-1.6s14.5,1.7,18.8,4.5c0.8,0.5,0.4,2.4-0.6,2.5c-4.2,0.2-21.1-2-21.1-2s12.3,1.8,15.8,3.5
						c1,0.5,0.1,2.6-0.9,2.7c-8.2,1-43-6.7-43-6.7"/>
				</g>
				<g>
					<g>
						<path class="st17" d="M588.9,267.1c-1.1-2.2-2.6-4.4-4.6-6c-0.9-0.7-1.9-1.3-3-1.8c-1.1-0.4-2.4-0.8-3.6-0.6
							c-0.2,0-0.2,0.3,0,0.4c0.6,0.1,1.1,0.1,1.7,0.2c0.6,0.1,1.1,0.3,1.6,0.5c1.1,0.4,2.2,1.1,3.1,1.9c1.8,1.6,3.1,3.6,4.4,5.6
							C588.8,267.5,589,267.3,588.9,267.1L588.9,267.1z"/>
					</g>
				</g>
				<g>
					<g>
						<path class="st17" d="M592.2,250.3c-1.9,0.7-3.9,1.1-6,1.1c-1,0-2,0-3-0.2c-1-0.1-1.9-0.4-2.9-0.5c-0.2,0-0.3,0.3-0.1,0.4
							c1.8,0.9,4.1,0.9,6,0.9c2.1-0.1,4.1-0.5,6.1-1.3C592.5,250.6,592.4,250.2,592.2,250.3L592.2,250.3z"/>
					</g>
				</g>
			</g>
			<path class="st18" d="M388.4,176c0,0-15.8-5.7-31-3c-10.4,1.8-16.6,4.5-24.5,13.4c-3.6,4-31.6,27.5-31.6,27.5l30.6,31.6
				l18.7-18.7L337.3,315c0,0,24,6.5,62.8,8.5c34.8,1.9,58.5-1.8,58.5-1.8l1.9-95.1l13.9,11.6l6.6-43.8c0,0-27-21.5-37.5-21.5
				c-10.1,0-18.9,4.1-18.9,4.1"/>
			<g>
				<defs>
					<path id="SVGID_3_" d="M388.4,176c0,0-15.8-5.7-31-3c-10.4,1.8-16.6,4.5-24.5,13.4c-3.6,4-31.6,27.5-31.6,27.5l30.6,31.6
						l18.7-18.7L337.3,315c0,0,24,6.5,62.8,8.5c34.8,1.9,58.5-1.8,58.5-1.8l1.9-95.1l13.9,11.6l6.6-43.8c0,0-27-21.5-37.5-21.5
						c-10.1,0-18.9,4.1-18.9,4.1"/>
				</defs>
				<clipPath id="SVGID_4_">
					<use xlink:href="#SVGID_3_"  style="overflow:visible;"/>
				</clipPath>
				
					<rect x="368.5" y="279" transform="matrix(-0.8449 0.535 -0.535 -0.8449 835.0457 320.8656)" class="st19" width="5" height="5"/>
				
					<rect x="362.7" y="240" transform="matrix(-0.9039 -0.4278 0.4278 -0.9039 591.5447 617.861)" class="st19" width="5" height="5"/>
				
					<rect x="406.4" y="294.4" transform="matrix(-0.2116 0.9774 -0.9774 -0.2116 785.5232 -39.8717)" class="st19" width="5" height="5"/>
				
					<rect x="389.9" y="193" transform="matrix(-0.2116 0.9774 -0.9774 -0.2116 666.5383 -146.6364)" class="st19" width="5" height="5"/>
				
					<rect x="325" y="203.9" transform="matrix(-0.2116 0.9774 -0.9774 -0.2116 598.5624 -70.0274)" class="st19" width="5" height="5"/>
				
					<rect x="463.1" y="184.7" transform="matrix(-0.2116 0.9774 -0.9774 -0.2116 747.0351 -228.2113)" class="st19" width="5" height="5"/>
				
					<rect x="437.3" y="230.6" transform="matrix(0.535 0.8449 -0.8449 0.535 401.3961 -263.2043)" class="st19" width="5" height="5"/>
			</g>
			<path class="st20" d="M460.6,221.7c0,0-11.8,0.5-14.4,2.4"/>
			<path class="st20" d="M350.6,226.7c1.7-8.6,2.4-21.4,1.5-30.1"/>
			<path class="st20" d="M386.4,182.7c-1.4-1.8-2.3-3.7-2.7-5.5"/>
			<path class="st20" d="M421,186.3c0,0-9.8,4.5-20.9,3c-4.4-0.6-7.7-1.8-10.1-3.4"/>
			<line class="st20" x1="476.2" y1="189.2" x2="467.8" y2="231.9"/>
			<line class="st20" x1="339" y1="238.3" x2="308" y2="208.1"/>
			<g>
				<g>
					<path class="st21" d="M390,143.1c-2.6-2.6-5.9-2.8-7.7,0.8c-0.7,1.5-1,3.3-0.7,4.9c0.4,1.6,1.4,3.1,2.9,3.9
						c1.5,0.7,3.5,0.6,4.7-0.5"/>
				</g>
				<g>
					<path class="st9" d="M392.3,127c5.1-3.2,11.1-4.8,17-4.6c3,0.1,6,0.6,8.5,2.2c3.4,2.1,5.6,5.7,6.6,9.5c1,3.8,1,7.9,0.8,11.8
						c-0.2,3.2-0.5,6.6-2.2,9.3c-2.1,3.6-6.1,5.5-9,8.1c-2.4,2.1-5.4,3-8.6,3.4c-5.7,0.7-13.8-0.3-17.3-5.5c-3.1-4.6-4.1-9-3.5-14.5
						c0.6-5.5,2.5-12.3,2.5-12.3"/>
				</g>
				<path class="st9" d="M424.3,155.2l0.2,21.9c0,0-3.7,7.5-19.8,7.8c-12.4,0.2-16.5-8.8-16.5-8.8l3.5-18.2"/>
				<g>
					<path class="st17" d="M423.5,128.6c-4.8-6.1-12.6-9.6-20.3-9c-7.7,0.6-14.2,2.6-18,9.4c-1.4,2.5-3,8.1-2.5,10.9
						c10.7-3,21.6-4.8,32.7-5.5c3.7,5.5,6.5,18.6,9.2,24.7c2.2-1.3,4.9-6.6,5.6-9.1c1.9-6.1,2.1-9.2,1.6-13.6"/>
				</g>
				<path class="st17" d="M406,144.3c0,0.9,0.7,1.7,1.7,1.7c0.9,0,1.7-0.7,1.7-1.7c0-0.9-0.7-1.7-1.7-1.7
					C406.8,142.6,406,143.4,406,144.3z"/>
				<circle class="st17" cx="390.8" cy="142.6" r="1.7"/>
				<g>
					<g>
						<path class="st17" d="M395.8,147.3c-0.5,0.8-1,1.7-1.3,2.6c-0.3,0.6-0.5,1.3-0.7,2c-0.1,0.5-0.2,1.1,0.2,1.5
							c0.3,0.3,0.8,0.4,1.2,0.4c0.6,0,1.2,0,1.8-0.1c0.3,0,0.2-0.5-0.1-0.5c-0.5,0-1,0-1.4,0c-0.3,0-0.8,0-1.1-0.2
							c-0.3-0.2-0.1-0.9,0-1.2c0.3-1.2,0.8-2.4,1.2-3.5c0.1-0.3,0.2-0.6,0.4-0.9C396,147.3,395.9,147.2,395.8,147.3L395.8,147.3z"/>
					</g>
				</g>
				<g>
					<path class="st7" d="M400.1,156.3c0,1-0.1,2-0.3,2.9c-0.7,2.6-3.6,3.3-5.1,1.1c-0.7-1-0.8-2.4-1-3.8L400.1,156.3z"/>
				</g>
				<g>
					<g>
						<path class="st9" d="M419.8,146.3c3.2-1.7,6.5-0.8,7,3.1c0.2,1.7,0,3.4-0.8,4.9c-0.8,1.5-2.3,2.6-4,2.8
							c-1.7,0.2-3.5-0.5-4.3-1.9"/>
					</g>
					<g>
						<g>
							<path class="st17" d="M425,148.8c-0.1-0.2-0.1-0.3-0.2-0.4c-0.1-0.1-0.2-0.2-0.3-0.3c-0.2-0.2-0.5-0.3-0.7-0.3
								c-0.5-0.1-1.1,0.1-1.6,0.4c-0.5,0.3-0.9,0.7-1.2,1.2c-0.4,0.5-0.5,1.2-0.5,1.9c-0.1,1,0.1,2,0.6,2.9c0.1,0.2,0.5,0.1,0.4-0.2
								c-0.3-0.7-0.5-1.5-0.5-2.2c0-0.6,0-1.3,0.3-1.9c0.4-0.8,1.3-1.5,2.1-1.6c0.3,0,0.5,0,0.8,0.2c0.1,0.1,0.2,0.2,0.4,0.3
								C424.6,148.7,424.8,148.7,425,148.8C424.9,148.9,425,148.9,425,148.8L425,148.8z"/>
						</g>
					</g>
					<g>
						<g>
							<path class="st17" d="M423.4,156.8c-0.2,0-0.4,0.1-0.6,0.2c-0.2,0.1-0.4,0.1-0.6,0.1c-0.4,0.1-0.8,0.1-1.3,0
								c-0.8-0.2-1.6-0.6-2.2-1.1c-0.1-0.1-0.3,0-0.2,0.2c0.3,0.4,0.6,0.7,1,1c0.4,0.2,0.9,0.4,1.3,0.5c0.5,0.1,0.9,0.1,1.4,0
								c0.4-0.1,1-0.2,1.3-0.6C423.6,157,423.5,156.8,423.4,156.8L423.4,156.8z"/>
						</g>
					</g>
				</g>
				<path class="st22" d="M412,141.2c-1.8-2-5.1-2.1-6.6-0.2"/>
				<path class="st22" d="M393.1,139.6c-1.3-1.5-3.7-1.6-4.8-0.2"/>
				<path class="st23" d="M413,163.5c-6.7,3.4-15.4,4.4-22.2,0.8"/>
				<g>
					<path class="st24" d="M412.1,112.5c0,1.9,1.5,3.5,3.4,3.5c1.9,0,3.4-1.6,3.4-3.5c0-1.9-1.5-3.5-3.4-3.5
						C413.6,109,412.1,110.6,412.1,112.5z"/>
					<path class="st13" d="M433,138c0,0,1.3-10.3-5.2-17.9c-9.2-10.8-27.2-12.1-37.4-2c-0.9,0.9-1.8,2-2.6,3.1
						c-1.8,2.6-2.6,4-3.2,7.2"/>
					<path class="st25" d="M408.7,133.2c4.4-16.7,6.7-20.4,6.7-20.4c13.1,4.5,8.5,23.3,8.6,23.3"/>
					<path class="st25" d="M415.4,112.8c-7.3-1.7-19.5-1.1-24.6,16.9"/>
					<line class="st26" x1="433" y1="138" x2="372.8" y2="125.9"/>
				</g>
			</g>
		</g>
	</g>
</g>
<path class="st27" d="M630.6,412.5H0.6v-61c0-11.9,9.7-21.6,21.6-21.6H609c11.9,0,21.6,9.7,21.6,21.6V412.5z"/>
<g>
	<g class="st28">
		<path class="st7" d="M217.2,382.9h-4.7v-27h4.7V382.9z"/>
		<path class="st7" d="M226.7,362.8l0.1,2.3c1.5-1.8,3.4-2.7,5.8-2.7c4.2,0,6.3,2.4,6.4,7.2v13.3h-4.5v-13c0-1.3-0.3-2.2-0.8-2.8
			c-0.6-0.6-1.5-0.9-2.7-0.9c-1.8,0-3.2,0.8-4.1,2.5v14.3h-4.5v-20.1H226.7z"/>
		<path class="st7" d="M249.3,357.9v4.9h3.5v3.3h-3.5v11.2c0,0.8,0.2,1.3,0.5,1.7c0.3,0.3,0.8,0.5,1.6,0.5c0.5,0,1-0.1,1.6-0.2v3.5
			c-1,0.3-2,0.4-3,0.4c-3.5,0-5.2-1.9-5.2-5.7v-11.4h-3.3v-3.3h3.3v-4.9H249.3z"/>
		<path class="st7" d="M266.8,366.9c-0.6-0.1-1.2-0.1-1.8-0.1c-2.1,0-3.5,0.8-4.2,2.4v13.7h-4.5v-20.1h4.3l0.1,2.2
			c1.1-1.7,2.6-2.6,4.5-2.6c0.6,0,1.2,0.1,1.6,0.3L266.8,366.9z"/>
		<path class="st7" d="M268.1,372.7c0-2,0.4-3.7,1.2-5.3c0.8-1.6,1.9-2.8,3.3-3.6c1.4-0.8,3-1.3,4.9-1.3c2.7,0,4.9,0.9,6.6,2.6
			s2.6,4.1,2.7,6.9l0,1.1c0,2-0.4,3.7-1.1,5.3s-1.8,2.8-3.3,3.6c-1.4,0.9-3.1,1.3-4.9,1.3c-2.8,0-5.1-0.9-6.8-2.8
			c-1.7-1.9-2.6-4.4-2.6-7.5V372.7z M272.6,373c0,2.1,0.4,3.7,1.3,4.9c0.9,1.2,2,1.8,3.6,1.8s2.7-0.6,3.6-1.8
			c0.8-1.2,1.3-2.9,1.3-5.2c0-2-0.4-3.6-1.3-4.8s-2.1-1.8-3.6-1.8c-1.5,0-2.6,0.6-3.5,1.8C273.1,369,272.6,370.7,272.6,373z"/>
		<path class="st7" d="M289.8,372.7c0-3.1,0.7-5.6,2.2-7.5c1.4-1.9,3.4-2.8,5.8-2.8c2.1,0,3.8,0.7,5.2,2.2v-10.3h4.5v28.5h-4.1
			l-0.2-2.1c-1.3,1.6-3.1,2.4-5.4,2.4c-2.4,0-4.3-0.9-5.7-2.8C290.5,378.5,289.8,375.9,289.8,372.7z M294.3,373.1
			c0,2,0.4,3.6,1.2,4.8c0.8,1.1,1.9,1.7,3.3,1.7c1.8,0,3.2-0.8,4-2.5v-8.6c-0.8-1.6-2.2-2.4-4-2.4c-1.5,0-2.6,0.6-3.4,1.7
			C294.7,369,294.3,370.8,294.3,373.1z"/>
		<path class="st7" d="M324.2,380.9c-1.3,1.6-3.2,2.3-5.6,2.3c-2.2,0-3.8-0.6-4.9-1.9c-1.1-1.3-1.7-3.1-1.7-5.5v-13h4.5v13
			c0,2.5,1.1,3.8,3.2,3.8c2.2,0,3.7-0.8,4.4-2.4v-14.4h4.5v20.1h-4.2L324.2,380.9z"/>
		<path class="st7" d="M341.4,379.6c1.1,0,2.1-0.3,2.8-1c0.7-0.7,1.1-1.5,1.2-2.4h4.2c0,1.3-0.4,2.4-1.2,3.5c-0.7,1.1-1.7,1.9-3,2.6
			c-1.3,0.6-2.6,0.9-4,0.9c-2.8,0-5-0.9-6.7-2.7c-1.6-1.8-2.5-4.3-2.5-7.5v-0.5c0-3.1,0.8-5.5,2.4-7.3c1.6-1.8,3.9-2.8,6.7-2.8
			c2.4,0,4.3,0.7,5.8,2.1c1.5,1.4,2.3,3.2,2.4,5.5h-4.2c0-1.2-0.4-2.1-1.2-2.8c-0.7-0.7-1.7-1.1-2.8-1.1c-1.5,0-2.6,0.5-3.4,1.6
			c-0.8,1.1-1.2,2.7-1.2,4.8v0.7c0,2.2,0.4,3.8,1.2,4.9C338.8,379.1,339.9,379.6,341.4,379.6z"/>
		<path class="st7" d="M361.3,379.6c1.1,0,2.1-0.3,2.8-1c0.7-0.7,1.1-1.5,1.2-2.4h4.2c0,1.3-0.4,2.4-1.2,3.5c-0.7,1.1-1.7,1.9-3,2.6
			c-1.3,0.6-2.6,0.9-4,0.9c-2.8,0-5-0.9-6.7-2.7c-1.6-1.8-2.5-4.3-2.5-7.5v-0.5c0-3.1,0.8-5.5,2.4-7.3c1.6-1.8,3.9-2.8,6.7-2.8
			c2.4,0,4.3,0.7,5.8,2.1c1.5,1.4,2.3,3.2,2.4,5.5h-4.2c0-1.2-0.4-2.1-1.2-2.8c-0.7-0.7-1.7-1.1-2.8-1.1c-1.5,0-2.6,0.5-3.4,1.6
			c-0.8,1.1-1.2,2.7-1.2,4.8v0.7c0,2.2,0.4,3.8,1.2,4.9C358.7,379.1,359.8,379.6,361.3,379.6z"/>
		<path class="st7" d="M373,357.6c0-0.7,0.2-1.3,0.7-1.7c0.4-0.5,1.1-0.7,1.9-0.7s1.4,0.2,1.9,0.7c0.4,0.5,0.7,1,0.7,1.7
			c0,0.7-0.2,1.2-0.7,1.7c-0.4,0.5-1.1,0.7-1.9,0.7s-1.4-0.2-1.9-0.7C373.2,358.8,373,358.3,373,357.6z M377.8,382.9h-4.5v-20.1h4.5
			V382.9z"/>
		<path class="st7" d="M381.8,372.7c0-2,0.4-3.7,1.2-5.3c0.8-1.6,1.9-2.8,3.3-3.6c1.4-0.8,3-1.3,4.9-1.3c2.7,0,4.9,0.9,6.6,2.6
			c1.7,1.7,2.6,4.1,2.7,6.9l0,1.1c0,2-0.4,3.7-1.1,5.3c-0.8,1.6-1.8,2.8-3.3,3.6c-1.4,0.9-3.1,1.3-4.9,1.3c-2.8,0-5.1-0.9-6.8-2.8
			c-1.7-1.9-2.6-4.4-2.6-7.5V372.7z M386.3,373c0,2.1,0.4,3.7,1.3,4.9c0.9,1.2,2,1.8,3.6,1.8s2.7-0.6,3.6-1.8s1.3-2.9,1.3-5.2
			c0-2-0.4-3.6-1.3-4.8c-0.9-1.2-2.1-1.8-3.6-1.8c-1.5,0-2.6,0.6-3.5,1.8C386.8,369,386.3,370.7,386.3,373z M392.4,354.4h5.1
			l-5.1,5.6l-3.6,0L392.4,354.4z"/>
		<path class="st7" d="M408.5,362.8l0.1,2.3c1.5-1.8,3.4-2.7,5.8-2.7c4.2,0,6.3,2.4,6.4,7.2v13.3h-4.5v-13c0-1.3-0.3-2.2-0.8-2.8
			c-0.6-0.6-1.5-0.9-2.7-0.9c-1.8,0-3.2,0.8-4.1,2.5v14.3h-4.5v-20.1H408.5z"/>
	</g>
</g>
<g>
	<text transform="matrix(1 0 0 1 162.5945 492.8767)" class="st7" style="font-family:'Roboto-Medium'; font-size:38px;">Introducción</text>
</g>
</svg>
