<?xml version="1.0" encoding="utf-8"?>
<!-- Generator: Adobe Illustrator 25.2.1, SVG Export Plug-In . SVG Version: 6.00 Build 0)  -->
<!DOCTYPE svg PUBLIC "-//W3C//DTD SVG 1.1//EN" "http://www.w3.org/Graphics/SVG/1.1/DTD/svg11.dtd" [
	<!ENTITY ns_extend "http://ns.adobe.com/Extensibility/1.0/">
	<!ENTITY ns_ai "http://ns.adobe.com/AdobeIllustrator/10.0/">
	<!ENTITY ns_graphs "http://ns.adobe.com/Graphs/1.0/">
	<!ENTITY ns_vars "http://ns.adobe.com/Variables/1.0/">
	<!ENTITY ns_imrep "http://ns.adobe.com/ImageReplacement/1.0/">
	<!ENTITY ns_sfw "http://ns.adobe.com/SaveForWeb/1.0/">
	<!ENTITY ns_custom "http://ns.adobe.com/GenericCustomNamespace/1.0/">
	<!ENTITY ns_adobe_xpath "http://ns.adobe.com/XPath/1.0/">
]>
<svg version="1.1" id="Capa_1" xmlns:x="&ns_extend;" xmlns:i="&ns_ai;" xmlns:graph="&ns_graphs;"
	 xmlns="http://www.w3.org/2000/svg" xmlns:xlink="http://www.w3.org/1999/xlink" x="0px" y="0px" viewBox="0 0 380.4 119.2"
	 style="enable-background:new 0 0 380.4 119.2;" xml:space="preserve">
<style type="text/css">
	.st0{fill:#231F20;}
	.st1{fill:#09B3E8;}
	.st2{fill:#FFFFFF;}
	.st3{fill:#FFC711;}
	.st4{fill:#59AA47;}
	.st5{fill:#EE4323;}
	.st6{fill:#FBBB7F;}
	.st7{fill:#020202;}
</style>
<metadata>
	<sfw  xmlns="&ns_sfw;">
		<slices></slices>
		<sliceSourceBounds  bottomLeftOrigin="true" height="119.2" width="380.4" x="770.2" y="-599.9"></sliceSourceBounds>
	</sfw>
</metadata>
<g>
	<g>
		<path class="st0" d="M96.2,26.1h4.3l3.5,8.8l1.2,3.5h0.2l1.2-3.5l3.5-8.8h4.3v16.5h-2.8V29.8h-0.2l-1.6,4.6l-3.1,7.6H104l-3.1-7.6
			l-1.6-4.6H99v12.9h-2.8V26.1z"/>
		<path class="st0" d="M119.2,28.6c-0.6,0-1.1-0.1-1.3-0.4c-0.3-0.3-0.4-0.7-0.4-1.3c0-0.6,0.1-1,0.4-1.3c0.3-0.3,0.7-0.4,1.3-0.4
			c0.6,0,1.1,0.1,1.4,0.4c0.3,0.3,0.4,0.7,0.4,1.3c0,0.6-0.1,1-0.4,1.3C120.3,28.4,119.8,28.6,119.2,28.6z M117.7,30.6h3.1v12.1
			h-3.1V30.6z"/>
		<path class="st0" d="M123.8,30.6h2.6l0.2,1.4h0.1c1.1-0.6,2.1-1,2.9-1.2c0.8-0.3,1.6-0.4,2.2-0.4c1,0,1.9,0.3,2.4,0.8
			c0.6,0.6,0.9,1.4,0.9,2.5v8.9H132v-7.9c0-0.7-0.1-1.2-0.4-1.5c-0.3-0.3-0.7-0.4-1.2-0.4c-0.5,0-1,0.1-1.6,0.3
			c-0.6,0.2-1.3,0.4-1.9,0.7v8.8h-3.1V30.6z"/>
		<path class="st0" d="M139.6,28.6c-0.6,0-1.1-0.1-1.3-0.4c-0.3-0.3-0.4-0.7-0.4-1.3c0-0.6,0.1-1,0.4-1.3c0.3-0.3,0.7-0.4,1.3-0.4
			c0.6,0,1.1,0.1,1.4,0.4c0.3,0.3,0.4,0.7,0.4,1.3c0,0.6-0.1,1-0.4,1.3C140.7,28.4,140.2,28.6,139.6,28.6z M138,30.6h3.1v12.1H138
			V30.6z"/>
		<path class="st0" d="M148.1,42.9c-0.6,0-1.3,0-2.1-0.1c-0.8-0.1-1.6-0.2-2.5-0.4v-2.2c0.8,0.2,1.6,0.3,2.3,0.4
			c0.7,0.1,1.4,0.2,2.1,0.2c1.5,0,2.3-0.5,2.3-1.4c0-0.5-0.2-0.9-0.6-1.1c-0.4-0.2-0.9-0.4-1.6-0.5c-0.5-0.1-1-0.2-1.5-0.3
			c-0.5-0.1-1-0.3-1.4-0.5c-0.4-0.2-0.8-0.6-1-1.1c-0.3-0.5-0.4-1.1-0.4-1.9c0-1.2,0.4-2.1,1.3-2.7c0.9-0.7,2.1-1,3.6-1
			c0.3,0,0.6,0,0.9,0c0.3,0,0.6,0,0.9,0.1c0.3,0,0.7,0.1,1.1,0.1c0.4,0.1,0.8,0.1,1.3,0.2l-0.1,2.4c-0.8-0.2-1.5-0.3-2.1-0.4
			c-0.6-0.1-1.2-0.1-1.6-0.1c-1.5,0-2.3,0.5-2.3,1.4c0,0.5,0.2,0.9,0.7,1.1c0.4,0.2,1.1,0.3,1.9,0.5c0.6,0.1,1.1,0.2,1.6,0.4
			c0.5,0.2,0.9,0.4,1.3,0.7c0.4,0.3,0.6,0.6,0.8,1.1c0.2,0.4,0.3,0.9,0.3,1.5c0,1.2-0.4,2.1-1.3,2.8C151,42.5,149.7,42.9,148.1,42.9
			z"/>
		<path class="st0" d="M160.5,42.9c-1.3,0-2.3-0.3-2.9-0.9c-0.7-0.6-1-1.5-1-2.7v-6h-2.3v-2.6h2.5l0.5-3.3l2.4-0.3v3.6h3.3v2.6h-3.3
			v5.3c0,0.7,0.1,1.2,0.4,1.5c0.3,0.3,0.8,0.5,1.4,0.5c0.4,0,0.9-0.1,1.5-0.3v2.3c-0.3,0.1-0.7,0.2-1.2,0.2
			C161.4,42.8,160.9,42.9,160.5,42.9z"/>
		<path class="st0" d="M170.3,42.8c-4,0-6-2-6-6.1c0-2.1,0.5-3.7,1.5-4.7c1-1.1,2.5-1.6,4.4-1.6c3.4,0,5.1,1.8,5.1,5.4
			c0,0.4,0,0.7,0,1c0,0.3-0.1,0.5-0.1,0.8h-7.8c0,0.5,0.1,1,0.3,1.4c0.1,0.4,0.3,0.7,0.6,0.9c0.3,0.2,0.6,0.4,1,0.5
			c0.4,0.1,0.9,0.1,1.4,0.1c0.6,0,1.3,0,2.1-0.1c0.8-0.1,1.4-0.2,2.1-0.4l0.1,2.3c-0.7,0.2-1.4,0.4-2.2,0.5
			C171.8,42.8,171.1,42.8,170.3,42.8z M170.1,32.6c-0.9,0-1.5,0.2-2,0.7c-0.4,0.5-0.7,1.3-0.8,2.4h5.2c0-1.1-0.2-1.9-0.6-2.4
			C171.6,32.8,171,32.6,170.1,32.6z"/>
		<path class="st0" d="M177.7,30.6h2.6l0.2,1.7h0.1c0.7-0.5,1.4-0.9,2.1-1.2c0.7-0.4,1.3-0.6,2-0.7h1V33h-1.1
			c-0.6,0.1-1.3,0.2-1.9,0.4c-0.6,0.2-1.2,0.5-1.7,0.8v8.3h-3.1V30.6z"/>
		<path class="st0" d="M189,28.6c-0.6,0-1.1-0.1-1.3-0.4c-0.3-0.3-0.4-0.7-0.4-1.3c0-0.6,0.1-1,0.4-1.3c0.3-0.3,0.7-0.4,1.3-0.4
			c0.6,0,1.1,0.1,1.4,0.4c0.3,0.3,0.4,0.7,0.4,1.3c0,0.6-0.1,1-0.4,1.3C190.1,28.4,189.6,28.6,189,28.6z M187.4,30.6h3.1v12.1h-3.1
			V30.6z"/>
		<path class="st0" d="M199,42.8c-2,0-3.5-0.5-4.6-1.6c-1-1.1-1.6-2.6-1.6-4.7c0-2,0.5-3.6,1.6-4.7c1-1.1,2.6-1.6,4.6-1.6
			c2,0,3.5,0.5,4.6,1.6c1,1.1,1.6,2.6,1.6,4.7c0,2-0.5,3.6-1.6,4.7C202.5,42.3,201,42.8,199,42.8z M199,40.4c1.1,0,1.8-0.3,2.3-0.9
			c0.5-0.6,0.7-1.6,0.7-3c0-1.4-0.2-2.4-0.7-3c-0.5-0.6-1.2-0.9-2.3-0.9c-1.1,0-1.8,0.3-2.3,0.9c-0.5,0.6-0.7,1.6-0.7,3
			c0,1.4,0.2,2.4,0.7,3C197.2,40.2,198,40.4,199,40.4z"/>
		<path class="st0" d="M216.9,42.8c-1.7,0-2.9-0.5-3.8-1.5c-0.9-1-1.3-2.5-1.3-4.6c0-1.1,0.2-2,0.4-2.8c0.3-0.8,0.7-1.5,1.3-2
			c0.6-0.5,1.2-0.9,2-1.2c0.8-0.3,1.7-0.4,2.7-0.4c0.4,0,0.8,0,1.2,0.1c0.4,0,0.8,0.1,1.1,0.1v-5.9h3.1v18H221l-0.2-1.5h-0.2
			C219.8,42.3,218.6,42.8,216.9,42.8z M217.8,40.5c0.8,0,1.5-0.2,2-0.6c0.5-0.4,0.8-1.1,0.8-2v-5.1c-0.3-0.1-0.7-0.1-1.1-0.2
			c-0.4,0-0.8-0.1-1.3-0.1c-0.6,0-1.1,0.1-1.5,0.2c-0.4,0.1-0.7,0.4-1,0.7c-0.3,0.3-0.4,0.7-0.6,1.2c-0.1,0.5-0.2,1.2-0.2,1.9
			c0,0.7,0,1.3,0.2,1.8c0.1,0.5,0.3,0.9,0.5,1.2c0.2,0.3,0.5,0.5,0.9,0.7C216.9,40.4,217.3,40.5,217.8,40.5z"/>
		<path class="st0" d="M232.1,42.8c-4,0-6-2-6-6.1c0-2.1,0.5-3.7,1.5-4.7c1-1.1,2.5-1.6,4.4-1.6c3.4,0,5.1,1.8,5.1,5.4
			c0,0.4,0,0.7,0,1c0,0.3-0.1,0.5-0.1,0.8h-7.8c0,0.5,0.1,1,0.3,1.4c0.1,0.4,0.3,0.7,0.6,0.9c0.3,0.2,0.6,0.4,1,0.5
			c0.4,0.1,0.9,0.1,1.4,0.1c0.6,0,1.3,0,2.1-0.1c0.8-0.1,1.4-0.2,2.1-0.4l0.1,2.3c-0.7,0.2-1.4,0.4-2.2,0.5
			C233.7,42.8,232.9,42.8,232.1,42.8z M232,32.6c-0.9,0-1.5,0.2-2,0.7c-0.4,0.5-0.7,1.3-0.8,2.4h5.2c0-1.1-0.2-1.9-0.6-2.4
			C233.4,32.8,232.8,32.6,232,32.6z"/>
		<path class="st0" d="M248.4,28.6h-5v-2.5h13.2v2.5h-5v14h-3.2V28.6z"/>
		<path class="st0" d="M256.9,30.6h2.6l0.2,1.7h0.1c0.7-0.5,1.4-0.9,2-1.2c0.7-0.4,1.3-0.6,2-0.7h1V33h-1.1
			c-0.6,0.1-1.3,0.2-1.9,0.4c-0.6,0.2-1.2,0.5-1.7,0.8v8.3h-3.1V30.6z"/>
		<path class="st0" d="M268.8,42.7c-1.1,0-2-0.3-2.5-0.9c-0.6-0.6-0.9-1.4-0.9-2.5c0-1.2,0.4-2.1,1.1-2.7c0.7-0.6,1.9-1,3.5-1.1
			l2.8-0.2V35c0-0.4,0-0.8-0.1-1.1c-0.1-0.3-0.2-0.5-0.4-0.7c-0.2-0.2-0.5-0.3-0.8-0.4c-0.4-0.1-0.8-0.1-1.4-0.1
			c-0.5,0-1.1,0-1.8,0.1c-0.7,0.1-1.3,0.2-2,0.3l-0.2-2.2c1.7-0.3,3.2-0.4,4.5-0.4c1.8,0,3.1,0.3,4,1c0.9,0.7,1.3,1.7,1.3,3.1v8.2
			h-2.5l-0.3-1.5h-0.2C271.6,42.2,270.2,42.7,268.8,42.7z M270.1,40.5c0.4,0,0.9-0.1,1.4-0.3c0.5-0.2,0.9-0.4,1.3-0.7v-2.5l-1.9,0.2
			c-0.9,0.1-1.5,0.2-1.9,0.5c-0.3,0.3-0.5,0.7-0.5,1.3C268.5,40,269,40.5,270.1,40.5z"/>
		<path class="st0" d="M284.2,42.9c-0.4,0-0.7,0-1.1,0c-0.4,0-0.8,0-1.2-0.1c-0.4,0-0.9-0.1-1.4-0.2c-0.5-0.1-1.1-0.2-1.7-0.3V24.6
			h3.1v7.3c0.9-1,2.1-1.5,3.8-1.5c1.6,0,2.9,0.5,3.8,1.5c0.9,1,1.3,2.5,1.3,4.5c0,2.1-0.6,3.7-1.7,4.8
			C287.8,42.3,286.2,42.8,284.2,42.9z M284.1,40.7c0.6,0,1.1-0.1,1.5-0.2c0.4-0.1,0.8-0.4,1-0.7c0.3-0.3,0.5-0.7,0.6-1.3
			c0.1-0.5,0.2-1.2,0.2-1.9c0-0.7-0.1-1.3-0.2-1.8c-0.1-0.5-0.3-0.9-0.5-1.2c-0.2-0.3-0.5-0.5-0.9-0.7c-0.4-0.1-0.8-0.2-1.3-0.2
			c-0.8,0-1.5,0.2-2,0.6c-0.5,0.4-0.8,1-0.8,1.9v5.3c0.3,0.1,0.6,0.1,1,0.1C283.3,40.7,283.7,40.7,284.1,40.7z"/>
		<path class="st0" d="M295.7,42.7c-1.1,0-2-0.3-2.5-0.9c-0.6-0.6-0.9-1.4-0.9-2.5c0-1.2,0.4-2.1,1.1-2.7c0.7-0.6,1.9-1,3.5-1.1
			l2.8-0.2V35c0-0.4,0-0.8-0.1-1.1c-0.1-0.3-0.2-0.5-0.4-0.7c-0.2-0.2-0.5-0.3-0.8-0.4c-0.4-0.1-0.8-0.1-1.4-0.1
			c-0.5,0-1.1,0-1.8,0.1c-0.7,0.1-1.3,0.2-2,0.3l-0.2-2.2c1.7-0.3,3.2-0.4,4.5-0.4c1.8,0,3.1,0.3,4,1c0.9,0.7,1.3,1.7,1.3,3.1v8.2
			h-2.5l-0.3-1.5h-0.2C298.5,42.2,297.1,42.7,295.7,42.7z M297,40.5c0.4,0,0.9-0.1,1.4-0.3c0.5-0.2,0.9-0.4,1.3-0.7v-2.5l-1.9,0.2
			c-0.9,0.1-1.5,0.2-1.9,0.5c-0.3,0.3-0.5,0.7-0.5,1.3C295.4,40,295.9,40.5,297,40.5z"/>
		<path class="st0" d="M304.5,47c0.2-0.6,0.4-1.1,0.6-1.7c0.1-0.6,0.3-1.1,0.4-1.7c0.1-0.6,0.2-1.2,0.2-1.9c0-0.7,0.1-1.5,0.1-2.3
			c0-0.1,0-0.4,0-0.7c0-0.4,0-0.9,0-1.4c0-0.6,0-1.1,0-1.8c0-0.6,0-1.3,0-1.9c0-0.6,0-1.2,0-1.7c0-0.5,0-1,0-1.3h3.1v10.3
			c-0.1,1.2-0.3,2.4-0.6,3.5c-0.3,1.1-0.8,2.2-1.4,3.2L304.5,47z M307.2,28.6c-0.6,0-1.1-0.1-1.4-0.4c-0.3-0.3-0.4-0.7-0.4-1.3
			c0-0.6,0.1-1,0.4-1.3c0.3-0.3,0.7-0.4,1.4-0.4c0.6,0,1.1,0.1,1.3,0.4c0.3,0.3,0.4,0.7,0.4,1.3c0,0.6-0.1,1-0.4,1.3
			C308.3,28.4,307.8,28.6,307.2,28.6z"/>
		<path class="st0" d="M317.2,42.8c-2,0-3.5-0.5-4.6-1.6c-1-1.1-1.6-2.6-1.6-4.7c0-2,0.5-3.6,1.6-4.7c1-1.1,2.6-1.6,4.6-1.6
			c2,0,3.5,0.5,4.6,1.6c1,1.1,1.6,2.6,1.6,4.7c0,2-0.5,3.6-1.6,4.7C320.8,42.3,319.2,42.8,317.2,42.8z M317.2,40.4
			c1.1,0,1.8-0.3,2.3-0.9c0.5-0.6,0.7-1.6,0.7-3c0-1.4-0.2-2.4-0.7-3c-0.5-0.6-1.2-0.9-2.3-0.9c-1.1,0-1.8,0.3-2.3,0.9
			c-0.5,0.6-0.7,1.6-0.7,3c0,1.4,0.2,2.4,0.7,3C315.4,40.2,316.2,40.4,317.2,40.4z"/>
		<path class="st0" d="M324.5,45.8l1-6.4h3.1l-1.8,6.7L324.5,45.8z"/>
	</g>
	<g>
		<path class="st0" d="M96.2,51.2h11.5v2.5h-8.3v4.4h7.6v2.5h-7.6v4.6h8.5v2.5H96.2V51.2z"/>
		<path class="st0" d="M110.3,55.7h2.6l0.2,1.4h0.1c0.9-0.5,1.7-0.9,2.4-1.2c0.7-0.3,1.4-0.4,2-0.4c1.5,0,2.4,0.5,3,1.6h0.1
			c0.9-0.6,1.7-1,2.4-1.2c0.7-0.3,1.4-0.4,2-0.4c1.1,0,1.9,0.3,2.5,0.8c0.6,0.6,0.9,1.4,0.9,2.5v8.9h-3.1v-7.9
			c0-0.7-0.1-1.1-0.4-1.4c-0.3-0.3-0.7-0.4-1.2-0.4c-0.4,0-0.8,0.1-1.3,0.2c-0.5,0.2-1,0.4-1.5,0.7v8.8h-3.1v-7.9
			c0-0.7-0.1-1.1-0.4-1.4c-0.3-0.3-0.7-0.4-1.2-0.4c-0.4,0-0.8,0.1-1.3,0.3c-0.5,0.2-1,0.4-1.5,0.7v8.8h-3.1V55.7z"/>
		<path class="st0" d="M131.3,55.7h2.7l0.2,1.5h0.2c0.8-1.1,2-1.7,3.7-1.7c1.7,0,2.9,0.5,3.8,1.5c0.8,1,1.3,2.5,1.3,4.5
			c0,1.1-0.2,2-0.4,2.8c-0.3,0.8-0.7,1.5-1.3,2c-0.5,0.6-1.2,1-2,1.2c-0.8,0.3-1.7,0.4-2.7,0.4c-0.4,0-0.8,0-1.2,0
			c-0.4,0-0.8-0.1-1.1-0.1v4.8h-3.1V55.7z M136.8,65.7c0.6,0,1.1-0.1,1.5-0.2c0.4-0.1,0.7-0.4,1-0.7c0.3-0.3,0.5-0.7,0.6-1.2
			c0.1-0.5,0.2-1.2,0.2-1.9c0-0.7-0.1-1.3-0.2-1.8c-0.1-0.5-0.3-0.9-0.5-1.2c-0.2-0.3-0.5-0.5-0.9-0.7c-0.4-0.1-0.8-0.2-1.3-0.2
			c-0.8,0-1.5,0.2-2.1,0.7c-0.5,0.4-0.8,1.1-0.8,2v5.1c0.3,0.1,0.7,0.1,1.1,0.2C135.9,65.7,136.3,65.7,136.8,65.7z"/>
		<path class="st0" d="M145.6,49.7h3.1v18h-3.1V49.7z"/>
		<path class="st0" d="M157.1,67.9c-4,0-6-2-6-6.1c0-2.1,0.5-3.7,1.5-4.7c1-1.1,2.5-1.6,4.4-1.6c3.4,0,5.1,1.8,5.1,5.4
			c0,0.4,0,0.7,0,1c0,0.3-0.1,0.5-0.1,0.8h-7.8c0,0.5,0.1,1,0.3,1.4c0.1,0.4,0.3,0.7,0.6,0.9c0.3,0.2,0.6,0.4,1,0.5
			c0.4,0.1,0.9,0.1,1.4,0.1c0.6,0,1.3,0,2.1-0.1c0.8-0.1,1.4-0.2,2.1-0.4l0.1,2.3c-0.7,0.2-1.4,0.4-2.2,0.5
			C158.7,67.9,157.9,67.9,157.1,67.9z M156.9,57.7c-0.9,0-1.5,0.2-2,0.7c-0.4,0.5-0.7,1.3-0.8,2.4h5.2c0-1.1-0.2-1.9-0.6-2.4
			C158.4,57.9,157.8,57.7,156.9,57.7z"/>
		<path class="st0" d="M170,67.9c-2,0-3.5-0.5-4.6-1.6c-1-1.1-1.6-2.6-1.6-4.7c0-2,0.5-3.6,1.6-4.7c1-1.1,2.6-1.6,4.6-1.6
			c2,0,3.5,0.5,4.6,1.6c1,1.1,1.6,2.6,1.6,4.7c0,2-0.5,3.6-1.6,4.7C173.5,67.4,172,67.9,170,67.9z M170,65.6c1.1,0,1.8-0.3,2.3-0.9
			c0.5-0.6,0.7-1.6,0.7-3c0-1.4-0.2-2.4-0.7-3c-0.5-0.6-1.2-0.9-2.3-0.9c-1.1,0-1.8,0.3-2.3,0.9c-0.5,0.6-0.7,1.6-0.7,3
			c0,1.4,0.2,2.4,0.7,3C168.2,65.3,168.9,65.6,170,65.6z"/>
		<path class="st0" d="M185.4,72.2l0-0.3l1.8-4.4l-5-11.6v-0.3h3.3l2.5,6.7l0.6,2h0.2l0.6-2l2.6-6.7h3.2V56l-6.9,16.6L185.4,72.2z"
			/>
		<path class="st0" d="M207,68c-0.4,0-0.8,0-1.3-0.1c-0.5,0-1-0.1-1.5-0.1c-0.5-0.1-1-0.1-1.5-0.2c-0.5-0.1-1-0.2-1.4-0.3v-2.6
			c1,0.2,2,0.4,2.9,0.6c0.9,0.1,1.8,0.2,2.5,0.2c2.3,0,3.4-0.7,3.4-2.1c0-0.4-0.1-0.7-0.2-1c-0.2-0.3-0.4-0.5-0.7-0.7
			c-0.3-0.2-0.6-0.4-1.1-0.5c-0.4-0.1-0.9-0.3-1.4-0.4c-0.9-0.2-1.7-0.4-2.4-0.7c-0.7-0.3-1.2-0.6-1.6-1c-0.4-0.4-0.8-0.9-1-1.4
			c-0.2-0.5-0.3-1.2-0.3-1.9c0-0.7,0.1-1.4,0.4-2c0.3-0.6,0.7-1.1,1.2-1.5c0.5-0.4,1.2-0.7,2-1c0.8-0.2,1.6-0.3,2.6-0.3
			c0.7,0,1.4,0,2.1,0.1c0.7,0.1,1.6,0.2,2.7,0.5v2.6c-0.7-0.2-1.5-0.4-2.3-0.5c-0.8-0.1-1.5-0.2-2.2-0.2c-1,0-1.8,0.2-2.4,0.6
			c-0.6,0.4-0.9,0.9-0.9,1.6c0,0.3,0.1,0.6,0.2,0.9c0.1,0.3,0.3,0.5,0.6,0.7c0.3,0.2,0.6,0.4,1,0.5c0.4,0.2,1,0.3,1.6,0.5
			c0.8,0.2,1.5,0.4,2.2,0.7c0.6,0.3,1.2,0.6,1.6,0.9c0.4,0.4,0.8,0.8,1,1.4c0.2,0.5,0.4,1.2,0.4,1.9c0,1.6-0.5,2.8-1.6,3.6
			C210.7,67.6,209.1,68,207,68z"/>
		<path class="st0" d="M221.3,67.9c-4,0-6-2-6-6.1c0-2.1,0.5-3.7,1.5-4.7c1-1.1,2.5-1.6,4.4-1.6c3.4,0,5.1,1.8,5.1,5.4
			c0,0.4,0,0.7,0,1c0,0.3-0.1,0.5-0.1,0.8h-7.8c0,0.5,0.1,1,0.3,1.4c0.1,0.4,0.3,0.7,0.6,0.9c0.3,0.2,0.6,0.4,1,0.5
			c0.4,0.1,0.9,0.1,1.4,0.1c0.6,0,1.3,0,2.1-0.1c0.8-0.1,1.4-0.2,2.1-0.4l0.1,2.3c-0.7,0.2-1.4,0.4-2.2,0.5
			C222.8,67.9,222,67.9,221.3,67.9z M221.1,57.7c-0.9,0-1.5,0.2-2,0.7c-0.4,0.5-0.7,1.3-0.8,2.4h5.2c0-1.1-0.2-1.9-0.6-2.4
			C222.5,57.9,221.9,57.7,221.1,57.7z"/>
		<path class="st0" d="M233.5,72.6c-0.8,0-1.6,0-2.4-0.1c-0.8-0.1-1.5-0.2-2.1-0.4l0.2-2.3c0.5,0.1,1.1,0.2,1.8,0.3
			c0.7,0.1,1.3,0.1,2,0.1c0.6,0,1.1-0.1,1.6-0.2c0.5-0.1,0.9-0.3,1.3-0.6c0.4-0.3,0.6-0.6,0.9-1.1c0.2-0.5,0.3-1,0.3-1.7v-1h-0.2
			c-0.4,0.6-0.9,1.1-1.5,1.3c-0.6,0.3-1.4,0.4-2.2,0.4c-1.7,0-2.9-0.5-3.8-1.4c-0.9-0.9-1.3-2.4-1.3-4.3c0-1.1,0.2-2,0.5-2.8
			c0.3-0.8,0.7-1.4,1.3-2c0.6-0.5,1.2-0.9,2-1.2c0.8-0.3,1.7-0.4,2.7-0.4c0.4,0,0.7,0,1.1,0c0.4,0,0.8,0.1,1.2,0.1
			c0.4,0.1,0.9,0.2,1.4,0.3c0.5,0.1,1.1,0.3,1.7,0.4v10c0,1.2-0.2,2.2-0.5,3c-0.4,0.8-0.8,1.4-1.4,1.9c-0.6,0.5-1.3,0.8-2.1,1
			C235.2,72.5,234.3,72.6,233.5,72.6z M234,65.2c0.8,0,1.5-0.2,2.1-0.7c0.5-0.4,0.8-1.1,0.8-2v-4.7c-0.3-0.1-0.7-0.1-1.1-0.2
			c-0.4,0-0.8-0.1-1.3-0.1c-0.6,0-1,0.1-1.5,0.2c-0.4,0.1-0.7,0.3-1,0.6c-0.3,0.3-0.4,0.7-0.6,1.2c-0.1,0.5-0.2,1.1-0.2,1.8
			c0,1.4,0.2,2.3,0.6,2.9C232.3,65,233,65.2,234,65.2z"/>
		<path class="st0" d="M246.1,67.9c-1.1,0-1.9-0.3-2.5-0.9c-0.6-0.6-0.8-1.4-0.8-2.5v-8.9h3.1v8c0,0.7,0.1,1.1,0.3,1.4
			c0.2,0.3,0.6,0.4,1.2,0.4c0.6,0,1.1-0.1,1.8-0.3c0.6-0.2,1.3-0.5,1.9-0.7v-8.8h3.1v12.1h-2.6l-0.2-1.4h-0.1
			c-0.6,0.3-1.1,0.6-1.5,0.8c-0.4,0.2-0.8,0.4-1.2,0.5c-0.4,0.1-0.8,0.2-1.1,0.3C247,67.9,246.6,67.9,246.1,67.9z"/>
		<path class="st0" d="M257.2,55.7h2.6l0.2,1.7h0.1c0.7-0.5,1.4-0.9,2.1-1.2c0.7-0.4,1.3-0.6,2-0.7h1v2.7h-1.1
			c-0.6,0.1-1.3,0.2-1.9,0.4c-0.6,0.2-1.2,0.5-1.7,0.8v8.3h-3.1V55.7z"/>
		<path class="st0" d="M268.4,53.7c-0.6,0-1.1-0.1-1.3-0.4c-0.3-0.3-0.4-0.7-0.4-1.3c0-0.6,0.1-1,0.4-1.3c0.3-0.3,0.7-0.4,1.3-0.4
			c0.6,0,1.1,0.1,1.4,0.4c0.3,0.3,0.4,0.7,0.4,1.3c0,0.6-0.1,1-0.4,1.3C269.5,53.5,269.1,53.7,268.4,53.7z M266.9,55.7h3.1v12.1
			h-3.1V55.7z"/>
		<path class="st0" d="M277.5,67.9c-1.7,0-2.9-0.5-3.8-1.5c-0.9-1-1.3-2.5-1.3-4.6c0-1.1,0.2-2,0.4-2.8c0.3-0.8,0.7-1.5,1.3-2
			c0.6-0.5,1.2-0.9,2-1.2c0.8-0.3,1.7-0.4,2.7-0.4c0.4,0,0.8,0,1.2,0.1c0.4,0,0.8,0.1,1.1,0.1v-5.9h3.1v18h-2.7l-0.2-1.5h-0.2
			C280.3,67.4,279.1,67.9,277.5,67.9z M278.3,65.6c0.8,0,1.5-0.2,2-0.6c0.5-0.4,0.8-1.1,0.8-2v-5.1c-0.3-0.1-0.7-0.1-1.1-0.2
			c-0.4,0-0.8-0.1-1.3-0.1c-0.6,0-1.1,0.1-1.5,0.2c-0.4,0.1-0.7,0.4-1,0.7c-0.3,0.3-0.4,0.7-0.6,1.2c-0.1,0.5-0.2,1.1-0.2,1.9
			c0,0.7,0,1.3,0.2,1.8c0.1,0.5,0.3,0.9,0.5,1.2c0.2,0.3,0.5,0.5,0.9,0.7C277.4,65.6,277.8,65.6,278.3,65.6z"/>
		<path class="st0" d="M289.9,67.8c-1.1,0-2-0.3-2.5-0.9c-0.6-0.6-0.9-1.4-0.9-2.5c0-1.2,0.4-2.1,1.1-2.7c0.7-0.6,1.9-1,3.5-1.1
			l2.8-0.2v-0.4c0-0.4,0-0.8-0.1-1.1c-0.1-0.3-0.2-0.5-0.4-0.7c-0.2-0.2-0.5-0.3-0.8-0.4c-0.4-0.1-0.8-0.1-1.4-0.1
			c-0.5,0-1.1,0-1.8,0.1c-0.7,0.1-1.3,0.2-2,0.3l-0.2-2.2c1.7-0.3,3.2-0.4,4.5-0.4c1.8,0,3.1,0.3,4,1c0.9,0.7,1.3,1.7,1.3,3.1v8.2
			h-2.5l-0.3-1.5H294C292.7,67.3,291.3,67.8,289.9,67.8z M291.2,65.6c0.4,0,0.9-0.1,1.4-0.3c0.5-0.2,0.9-0.4,1.3-0.7v-2.5l-1.9,0.2
			c-0.9,0.1-1.5,0.2-1.9,0.5c-0.4,0.3-0.5,0.7-0.5,1.3C289.6,65.1,290.1,65.6,291.2,65.6z"/>
		<path class="st0" d="M304.4,67.9c-1.7,0-2.9-0.5-3.8-1.5c-0.9-1-1.3-2.5-1.3-4.6c0-1.1,0.1-2,0.4-2.8c0.3-0.8,0.7-1.5,1.3-2
			c0.6-0.5,1.2-0.9,2-1.2c0.8-0.3,1.7-0.4,2.7-0.4c0.4,0,0.8,0,1.2,0.1c0.4,0,0.8,0.1,1.1,0.1v-5.9h3.1v18h-2.7l-0.2-1.5H308
			C307.2,67.4,306,67.9,304.4,67.9z M305.2,65.6c0.8,0,1.5-0.2,2-0.6c0.5-0.4,0.8-1.1,0.8-2v-5.1c-0.3-0.1-0.7-0.1-1.1-0.2
			c-0.4,0-0.8-0.1-1.3-0.1c-0.6,0-1.1,0.1-1.5,0.2c-0.4,0.1-0.7,0.4-1,0.7c-0.3,0.3-0.4,0.7-0.6,1.2c-0.1,0.5-0.2,1.1-0.2,1.9
			c0,0.7,0,1.3,0.2,1.8c0.1,0.5,0.3,0.9,0.5,1.2c0.2,0.3,0.5,0.5,0.9,0.7C304.3,65.6,304.7,65.6,305.2,65.6z"/>
		<path class="st0" d="M324.2,68c-0.4,0-0.8,0-1.3-0.1c-0.5,0-1-0.1-1.5-0.1c-0.5-0.1-1-0.1-1.5-0.2c-0.5-0.1-1-0.2-1.4-0.3v-2.6
			c1,0.2,2,0.4,2.9,0.6c0.9,0.1,1.8,0.2,2.5,0.2c2.3,0,3.4-0.7,3.4-2.1c0-0.4-0.1-0.7-0.2-1c-0.2-0.3-0.4-0.5-0.7-0.7
			c-0.3-0.2-0.6-0.4-1-0.5c-0.4-0.1-0.9-0.3-1.4-0.4c-0.9-0.2-1.7-0.4-2.4-0.7c-0.7-0.3-1.2-0.6-1.7-1c-0.4-0.4-0.8-0.9-1-1.4
			c-0.2-0.5-0.3-1.2-0.3-1.9c0-0.7,0.1-1.4,0.4-2c0.3-0.6,0.7-1.1,1.2-1.5c0.5-0.4,1.2-0.7,2-1c0.8-0.2,1.6-0.3,2.6-0.3
			c0.7,0,1.4,0,2.1,0.1c0.7,0.1,1.6,0.2,2.7,0.5v2.6c-0.7-0.2-1.5-0.4-2.3-0.5c-0.8-0.1-1.5-0.2-2.2-0.2c-1,0-1.8,0.2-2.4,0.6
			c-0.6,0.4-0.9,0.9-0.9,1.6c0,0.3,0.1,0.6,0.2,0.9c0.1,0.3,0.3,0.5,0.6,0.7c0.3,0.2,0.6,0.4,1,0.5c0.4,0.2,1,0.3,1.6,0.5
			c0.8,0.2,1.5,0.4,2.2,0.7c0.6,0.3,1.2,0.6,1.6,0.9c0.4,0.4,0.8,0.8,1,1.4c0.2,0.5,0.4,1.2,0.4,1.9c0,1.6-0.5,2.8-1.6,3.6
			C327.9,67.6,326.3,68,324.2,68z"/>
		<path class="st0" d="M338.6,67.9c-2,0-3.5-0.5-4.6-1.6c-1-1.1-1.6-2.6-1.6-4.7c0-2,0.5-3.6,1.6-4.7c1-1.1,2.6-1.6,4.6-1.6
			c2,0,3.5,0.5,4.6,1.6c1,1.1,1.6,2.6,1.6,4.7c0,2-0.5,3.6-1.6,4.7C342.1,67.4,340.6,67.9,338.6,67.9z M338.6,65.6
			c1.1,0,1.8-0.3,2.3-0.9c0.5-0.6,0.7-1.6,0.7-3c0-1.4-0.2-2.4-0.7-3c-0.5-0.6-1.2-0.9-2.3-0.9c-1.1,0-1.8,0.3-2.3,0.9
			c-0.5,0.6-0.7,1.6-0.7,3c0,1.4,0.2,2.4,0.7,3C336.8,65.3,337.5,65.6,338.6,65.6z"/>
		<path class="st0" d="M352.7,67.9c-4,0-6-2.1-6-6.2c0-4.2,2-6.2,6-6.2c0.6,0,1.2,0,1.8,0.1c0.6,0.1,1.1,0.1,1.6,0.3v2.5
			c-0.5-0.1-1.1-0.2-1.6-0.2c-0.5-0.1-1-0.1-1.5-0.1c-1.1,0-2,0.3-2.5,0.9c-0.5,0.6-0.8,1.5-0.8,2.8c0,1.3,0.2,2.3,0.7,2.8
			c0.5,0.6,1.3,0.9,2.4,0.9c0.6,0,1.2,0,1.6-0.1c0.5,0,1-0.1,1.5-0.2v2.5c-0.4,0.1-1,0.2-1.6,0.3C353.9,67.9,353.3,67.9,352.7,67.9z
			"/>
		<path class="st0" d="M360.1,53.7c-0.6,0-1.1-0.1-1.3-0.4c-0.3-0.3-0.4-0.7-0.4-1.3c0-0.6,0.1-1,0.4-1.3c0.3-0.3,0.7-0.4,1.3-0.4
			c0.6,0,1.1,0.1,1.4,0.4c0.3,0.3,0.4,0.7,0.4,1.3c0,0.6-0.1,1-0.4,1.3C361.2,53.5,360.8,53.7,360.1,53.7z M358.6,55.7h3.1v12.1
			h-3.1V55.7z"/>
		<path class="st0" d="M367.3,67.8c-1.1,0-2-0.3-2.5-0.9c-0.6-0.6-0.9-1.4-0.9-2.5c0-1.2,0.4-2.1,1.1-2.7c0.7-0.6,1.9-1,3.5-1.1
			l2.8-0.2v-0.4c0-0.4,0-0.8-0.1-1.1c-0.1-0.3-0.2-0.5-0.4-0.7c-0.2-0.2-0.5-0.3-0.8-0.4c-0.4-0.1-0.8-0.1-1.4-0.1
			c-0.5,0-1.1,0-1.8,0.1c-0.7,0.1-1.3,0.2-2,0.3l-0.2-2.2c1.7-0.3,3.2-0.4,4.5-0.4c1.8,0,3.1,0.3,4,1c0.9,0.7,1.3,1.7,1.3,3.1v8.2
			h-2.5l-0.3-1.5h-0.2C370.1,67.3,368.8,67.8,367.3,67.8z M368.6,65.6c0.4,0,0.9-0.1,1.4-0.3c0.5-0.2,0.9-0.4,1.3-0.7v-2.5l-1.9,0.2
			c-0.9,0.1-1.5,0.2-1.9,0.5c-0.4,0.3-0.5,0.7-0.5,1.3C367.1,65.1,367.6,65.6,368.6,65.6z"/>
		<path class="st0" d="M377.3,49.7h3.1v18h-3.1V49.7z"/>
	</g>
	<path class="st1" d="M36.5,57.8h-6.7c-1.4,0-2.2-0.6-2.7-1.1c-0.4-0.4-0.6-1-0.7-1.6c0,0,0-0.1,0-0.2c-0.1-0.6,0-1.3,0.1-2
		c0.9-4.4,2.6-7.3,4-9.1c-0.2-0.1-0.3-0.1-0.5-0.2c-0.9-0.5-1.4-1.6-1.2-2.8c0.2-1.4,1.6-2.9,1.9-3.2c2.3-2.7,5.7-2.8,6.1-2.8
		c0.5,0,5-0.2,7.4,4.5c2.9,5.6,3.6,10.3,4.1,14l0,0.2c0.1,0.7,0,1.2-0.1,1.6c0,0.1,0,0.1,0,0.1c-0.2,0.5-0.4,0.9-0.7,1.2
		c-0.6,0.6-1.5,1.1-2.6,1.3c-0.5,0.1-0.9,0.1-1.2,0.1c-0.1,0-0.2,0-0.3,0h-1.9h0h0h-3.2v9.4h29.7c0-5.5-0.8-10.8-2.4-15.9
		c-1.6-4.8-3.8-9.2-6.6-12.9c-2.8-3.7-6.1-6.6-9.8-8.7c-3.8-2.1-7.8-3.2-11.9-3.2c-4.1,0-8.1,1.1-11.9,3.2c-3.7,2-6.9,5-9.8,8.7
		c-2.8,3.7-5.1,8.1-6.6,12.9c-1.6,5-2.4,10.4-2.4,15.9h29.7V57.8z"/>
	<path class="st2" d="M6.8,67.3c0,4.2,0.5,8.3,1.4,12.2c13.3-1.5,21.2-3.1,23.6-4.6c1.7-1.2,3-1.8,4.7-1.8v-5.7H6.8z"/>
	<path class="st2" d="M38.5,73.2c1.2,0.2,2.1,0.5,3,1c0.1,0,0.2,0,0.3,0c1.7-0.1,3.1,0.4,5.2,1.2c0.5,0.2,1.2,0.4,1.8,0.7
		c0.3,0.1,9.8,3.1,17.9,3.6c1-4,1.4-8.1,1.4-12.4H38.5V73.2z"/>
	<polyline class="st0" points="35.6,21.4 35.6,21.4 35.6,21.4 	"/>
	<polyline class="st0" points="29.4,22.3 29.4,22.3 29.4,22.3 29.4,22.3 	"/>
	<path class="st2" d="M50.6,86.2c-0.1,0.3-0.3,0.5-0.5,0.8c-0.5,0.5-1.2,0.7-2,0.8c-0.1,0.2-0.3,0.5-0.5,0.8c-0.4,0.5-1.2,1.1-2.6,1
		c-0.1,0.2-0.3,0.5-0.5,0.7c-0.7,0.7-1.6,0.9-2.5,0.8c-0.2,0.2-0.6,0.4-1,0.6c-0.6,0.2-1.4,0.4-2.4,0.2v7.9c0,0.6-0.4,1-1,1
		c-0.5,0-1-0.4-1-1v-7.5c-0.4,0.1-0.8,0.3-1.3,0.3c-0.2,0-0.3,0-0.5-0.1c-0.6-0.1-1-0.4-1.4-0.9c-0.7,0.1-1.8,0.2-2.7-0.4
		c-0.3-0.2-0.6-0.5-0.7-0.9c-0.3,0-0.6-0.1-0.9-0.2c-0.9-0.3-1.5-0.8-1.7-1.5c-0.2,0-0.4,0-0.7-0.1c-0.7-0.1-1.7-0.4-2-1.3
		c-0.1-0.2-0.1-0.4-0.2-0.5c-4.2,2.2-9.1,4.4-11.2,5.3c0.8,1.4,1.7,2.8,2.7,4.1c2.8,3.7,6.1,6.6,9.8,8.7c1.7,0.9,3.5,1.7,5.2,2.2
		c0.2-0.3,0.4-0.6,0.8-0.8c1.7-1.1,4.9-0.3,5.9,0c0.9-0.3,4.2-1.1,5.9,0c0.3,0.2,0.6,0.5,0.8,0.8c1.8-0.5,3.5-1.3,5.3-2.2
		c3.7-2,6.9-5,9.8-8.7c0.9-1.2,1.8-2.5,2.6-3.9C59.4,91.2,54.1,88.8,50.6,86.2"/>
	<path class="st1" d="M40.3,113.2c0.1-0.2,0.1-0.4,0.1-0.7c0-0.2,0-0.4-0.1-0.6c1-0.2,2.6-0.7,3.5-1.8c0.5-0.6,0.7-1.4,0.6-2.2
		c-0.1-0.7-0.4-1.3-1-1.7c-1.7-1.1-4.9-0.3-5.9,0c-0.9-0.3-4.2-1.1-5.9,0c-0.6,0.4-1,1-1,1.7c-0.1,0.8,0.1,1.6,0.6,2.2
		c0.9,1.1,2.5,1.6,3.5,1.8c0,0.2-0.1,0.4-0.1,0.6c0,0.2,0,0.5,0.1,0.7c-0.7,0.7-3.1,2.8-6.5,3.1v0c0.1,0.2,0.4,0.7,1,1.2
		c3-0.6,5.1-2.2,6.1-3.1c0.1,0.1,0.2,0.2,0.3,0.3c-0.2,0.8-1.1,3-4.8,3.9c0.6,0.3,1.3,0.5,2.2,0.6c2.6-1.2,3.5-2.9,3.8-4
		c0.2,0,0.4,0.1,0.5,0.1c0.2,0,0.4,0,0.5-0.1c0.3,1,1.2,2.8,3.8,3.9c0.9-0.1,1.6-0.4,2.2-0.6c-3.7-0.9-4.6-3-4.8-3.9
		c0.1-0.1,0.2-0.2,0.3-0.3c1,0.9,3.1,2.5,6.1,3.1c0.6-0.5,0.9-1,1-1.2C43.3,115.9,41,113.9,40.3,113.2"/>
	<path class="st2" d="M42.7,107.2c0.3,0.2,0.4,0.4,0.5,0.8c0.1,0.5-0.1,0.9-0.4,1.2c-0.4,0.5-1,0.8-1.7,1c0.3-0.7,0.4-1.3,0.1-2
		c-0.2-0.6-0.6-1.1-1.1-1.4C41.1,106.8,42.1,106.8,42.7,107.2"/>
	<path class="st2" d="M35.1,108.8c0.5-1.3,2.4-1.3,2.4-1.3c0,0,0.5,0,1.1,0.2c0.7,0.2,1.2,0.6,1.4,1.2c0.2,0.6-0.2,1.2-0.6,1.6
		c-0.5-0.4-1.1-0.7-1.9-0.7c-0.7,0-1.4,0.3-1.9,0.7C35.3,110,34.9,109.4,35.1,108.8"/>
	<path class="st2" d="M34,110.3c-0.7-0.2-1.3-0.6-1.7-1c-0.3-0.4-0.4-0.8-0.4-1.3c0-0.4,0.2-0.6,0.5-0.8c0.4-0.3,1-0.4,1.7-0.4
		c0.3,0,0.6,0,0.9,0c-0.4,0.3-0.8,0.8-1.1,1.4C33.6,109,33.7,109.7,34,110.3"/>
	<path class="st2" d="M36.1,112.5c0-0.8,0.7-1.5,1.5-1.5c0.8,0,1.5,0.7,1.5,1.5c0,0.8-0.7,1.5-1.5,1.5
		C36.7,113.9,36.1,113.3,36.1,112.5"/>
	<path class="st2" d="M45.7,117.5c-3-0.6-5.1-2.2-6.1-3.1c-0.1,0.1-0.2,0.2-0.3,0.3c0.2,0.8,1.1,3,4.8,3.9
		C44.8,118.2,45.3,117.8,45.7,117.5"/>
	<path class="st2" d="M35.5,114.4c-1,0.9-3.1,2.6-6.1,3.1c0.4,0.4,0.9,0.7,1.6,1.1c3.7-0.9,4.6-3.1,4.8-3.9
		C35.7,114.6,35.6,114.5,35.5,114.4"/>
	<path class="st0" d="M74.7,75.2c0-0.2-0.1-0.4-0.2-0.6c-0.1-0.1-0.3-0.2-0.4-0.1c0.1-0.3,0.2-0.5,0.4-0.8c0.5-1.3,0.7-2.7,0.7-4.3
		c0-0.2-0.1-0.4-0.3-0.5c-0.1-0.1-0.3-0.1-0.4-0.1c0.1-0.3,0.2-0.5,0.2-0.8c0.3-1.3,0.4-2.8,0.3-4.4c0-0.2-0.1-0.4-0.3-0.5
		c-0.1-0.1-0.3-0.1-0.5-0.1c0.1-0.3,0.2-0.6,0.2-1c0.2-1.3,0.2-2.8-0.1-4.4c0-0.2-0.2-0.4-0.4-0.5c-0.1,0-0.2-0.1-0.3,0
		c0-0.2,0.1-0.5,0.1-0.7c0.1-1.3,0-2.8-0.3-4.4c-0.1-0.2-0.2-0.4-0.4-0.5c-0.2-0.1-0.4,0-0.6,0.1l0,0c0-0.3,0-0.7,0-1.1
		c0-1.3-0.4-2.8-0.9-4.3c-0.1-0.2-0.3-0.3-0.5-0.4c-0.2,0-0.3,0-0.5,0.1c0-0.3,0-0.7-0.1-1c-0.2-1.3-0.6-2.7-1.4-4.2
		c-0.1-0.2-0.3-0.3-0.5-0.3c-0.2,0-0.3,0-0.5,0.1c0-0.3-0.1-0.6-0.2-0.9c-0.3-1.3-1-2.6-1.9-4c-0.1-0.2-0.3-0.3-0.5-0.3
		c-0.2,0-0.4,0.1-0.5,0.3c-0.1-0.3-0.2-0.7-0.4-1c-0.5-1.2-1.4-2.5-2.5-3.6c-0.2-0.2-0.4-0.2-0.6-0.2c-0.2,0-0.3,0.1-0.4,0.3
		c-0.2-0.3-0.4-0.7-0.6-1c-0.7-1.1-1.7-2.2-3-3.2c-0.2-0.1-0.4-0.2-0.6-0.1c-0.2,0.1-0.3,0.2-0.4,0.3c-0.8-1.1-2-1.9-3.5-2.5
		c0.3,0,0.5,0,0.8,0.1c1.8,0.1,3-0.3,3.1-0.3c0.4-0.1,0.6-0.5,0.6-0.9c0-0.4-0.4-0.7-0.8-0.7c-1.9-0.1-2.7-0.5-3.6-1
		c-0.2-0.1-0.4-0.2-0.5-0.3l4.5-0.7c0.4-0.1,0.7-0.4,0.7-0.8c0-0.4-0.3-0.7-0.7-0.8l-4.5-0.6c0.5-0.1,1.1-0.3,1.7-0.5
		c1.7-0.6,2.7-1.4,2.7-1.4c0.3-0.2,0.4-0.7,0.2-1c-0.2-0.3-0.6-0.5-1-0.4c-1.8,0.7-2.6,0.6-3.7,0.5c-0.2,0-0.4,0-0.6-0.1l3.9-2.3
		c0.3-0.2,0.5-0.6,0.3-1c-0.2-0.4-0.6-0.6-0.9-0.5l-4.4,1.1c0.4-0.3,0.9-0.7,1.4-1.2c1.3-1.2,1.9-2.3,2-2.4c0.2-0.3,0.1-0.8-0.2-1
		c-0.3-0.2-0.7-0.2-1,0c-1.4,1.3-2.2,1.5-3.2,1.8c-0.2,0.1-0.4,0.1-0.6,0.2L51.9,7c0.2-0.3,0.2-0.8-0.1-1.1
		c-0.3-0.3-0.7-0.3-1.1-0.1l-3.6,2.7c0.3-0.5,0.6-1,0.9-1.6c0.8-1.6,0.9-2.9,0.9-2.9c0-0.4-0.2-0.8-0.6-0.9
		c-0.4-0.1-0.8,0.1-0.9,0.4c-0.8,1.7-1.5,2.3-2.3,2.9c-0.1,0.1-0.3,0.2-0.5,0.4l1.1-4.4c0.1-0.4-0.1-0.8-0.5-0.9
		c-0.4-0.2-0.8,0-1,0.3l-2.3,3.9c0.1-0.5,0.1-1.2,0.2-1.9c0.1-1.8-0.3-3-0.3-3.1c-0.1-0.4-0.5-0.6-0.9-0.6c-0.4,0-0.7,0.4-0.7,0.8
		c-0.1,1.9-0.5,2.6-1,3.6C39.2,4.8,39.1,5,39,5.2l-0.7-4.5C38.3,0.3,37.9,0,37.5,0l0,0c-0.4,0-0.7,0.3-0.8,0.7l-0.6,4.5
		C36,4.6,35.8,4,35.6,3.4c-0.6-1.7-1.4-2.7-1.4-2.7c-0.2-0.3-0.7-0.4-1-0.2c-0.3,0.2-0.5,0.6-0.4,1c0.6,1.8,0.6,2.6,0.4,3.7
		c0,0.2,0,0.4-0.1,0.6l-2.4-3.9c-0.2-0.3-0.6-0.5-1-0.3c-0.4,0.2-0.6,0.6-0.5,0.9l1.1,4.4c-0.3-0.4-0.7-0.9-1.2-1.4
		c-1.2-1.3-2.3-1.9-2.4-2c-0.3-0.2-0.8-0.1-1,0.2c-0.2,0.3-0.2,0.7,0,1C27.3,6.2,27.5,7,27.8,8c0.1,0.2,0.1,0.4,0.2,0.6l-3.7-2.7
		c-0.3-0.2-0.8-0.2-1,0.1c-0.3,0.3-0.3,0.7-0.1,1l2.7,3.6c-0.5-0.3-1-0.6-1.6-0.9c-1.6-0.8-2.9-0.9-2.9-0.9c-0.4,0-0.8,0.2-0.9,0.6
		c-0.1,0.4,0.1,0.8,0.4,0.9c1.7,0.8,2.3,1.5,2.9,2.3c0.1,0.2,0.2,0.3,0.4,0.5L19.8,12c-0.4-0.1-0.8,0.1-0.9,0.5
		c-0.2,0.4,0,0.8,0.3,1l3.9,2.3c-0.5-0.1-1.2-0.1-1.8-0.2c-1.8-0.1-3,0.3-3.1,0.3c-0.4,0.1-0.6,0.5-0.6,0.9c0,0.4,0.4,0.7,0.8,0.7
		c1.9,0.1,2.6,0.5,3.6,1c0.2,0.1,0.3,0.2,0.5,0.3L18,19.4c-0.4,0.1-0.7,0.4-0.7,0.8c0,0.4,0.3,0.7,0.7,0.8l4.5,0.7
		c-0.5,0.1-1.1,0.3-1.8,0.5c-1.7,0.6-2.7,1.4-2.7,1.4c-0.3,0.2-0.4,0.7-0.2,1c0.2,0.3,0.6,0.5,1,0.4c1.1-0.4,1.8-0.5,2.4-0.5
		c-1,0.8-1.7,1.5-2,2c-0.2,0.2-0.3,0.5-0.5,0.7c-0.1-0.1-0.2-0.2-0.3-0.3c-0.2-0.1-0.4,0-0.6,0.1c-1.3,1-2.3,2.1-3,3.2
		c-0.2,0.3-0.4,0.7-0.6,1c-0.1-0.1-0.2-0.3-0.4-0.3c-0.2,0-0.4,0-0.6,0.2c-1.1,1.2-1.9,2.4-2.5,3.6c-0.1,0.3-0.3,0.7-0.4,1
		c-0.1-0.1-0.2-0.2-0.4-0.2c-0.2,0-0.4,0.1-0.5,0.3c-1,1.3-1.6,2.6-2,3.9c-0.1,0.3-0.2,0.7-0.2,1c-0.1-0.2-0.3-0.2-0.5-0.2
		c-0.2,0-0.4,0.1-0.5,0.3c-0.8,1.4-1.2,2.8-1.4,4.1c0,0.3-0.1,0.7-0.1,1c-0.2-0.1-0.4-0.2-0.5-0.1c-0.2,0-0.4,0.2-0.5,0.4
		c-0.6,1.5-0.9,2.9-0.9,4.3c0,0.3,0,0.7,0,1c-0.2-0.1-0.4-0.1-0.5,0c-0.2,0.1-0.4,0.2-0.4,0.5c-0.4,1.6-0.5,3-0.3,4.4
		c0,0.3,0.1,0.5,0.1,0.7c-0.1,0-0.2,0-0.3,0c-0.2,0.1-0.3,0.3-0.4,0.5c-0.3,1.6-0.3,3-0.1,4.4c0.1,0.3,0.1,0.7,0.2,1
		c-0.1,0-0.2,0-0.3,0.1c-0.2,0.1-0.3,0.3-0.4,0.5c-0.2,1.6-0.2,3.1,0.1,4.4c0.1,0.3,0.1,0.6,0.2,0.8c-0.1,0-0.3,0-0.4,0.1
		C0.1,68.9,0,69.1,0,69.3c0,1.6,0.2,3.1,0.6,4.3C0.7,74,0.9,74.4,1,74.7c0,0-0.1,0-0.1,0c-0.2-0.1-0.4,0-0.6,0.1
		c-0.2,0.1-0.2,0.4-0.2,0.6c0.2,1.6,0.7,3,1.3,4.2c0.1,0.2,0.3,0.5,0.4,0.7c-0.1,0-0.2,0.1-0.3,0.2c-0.2,0.2-0.2,0.4-0.2,0.6
		c0.4,1.6,0.9,2.9,1.7,4.1c0.2,0.3,0.4,0.5,0.6,0.8c-0.2,0-0.3,0.1-0.4,0.2c-0.1,0.2-0.2,0.4-0.1,0.6c0.6,1.5,1.3,2.8,2.1,3.8
		c0.2,0.2,0.4,0.4,0.6,0.7c-0.2,0-0.3,0.1-0.4,0.3c-0.1,0.2-0.1,0.4,0,0.6c0.7,1.4,1.6,2.6,2.6,3.6c0.2,0.2,0.4,0.4,0.6,0.6
		c-0.1,0.1-0.3,0.2-0.3,0.3c-0.1,0.2-0.1,0.4,0,0.6c0.9,1.4,1.8,2.5,2.9,3.3c0.3,0.2,0.7,0.5,1,0.7c-0.1,0-0.1,0-0.1,0
		c-0.2,0.1-0.4,0.2-0.4,0.5c0,0.2,0,0.4,0.2,0.6c1.1,1.2,2.2,2.1,3.4,2.7c0.9,0.5,1.9,0.9,2.8,1.1c0.8,0.1,1.6,0.2,2.3,0
		c0,0,0.1,0,0.1,0c2,1.4,4.1,2.6,6.2,3.5c1.8,0.8,3.7,1.4,5.5,1.7c0.4,0.1,0.8,0.2,1.1,0.2c-0.8-0.3-1.6-0.7-2.1-1.4
		c-0.1-0.1-0.2-0.2-0.2-0.4c-1.3-0.3-2.6-0.8-3.8-1.3c-2.1-0.9-4.1-2-6-3.3c0,0,0-0.1,0-0.1c0-0.6,0-1.3-0.2-1.9
		c1.4,1.1,2.6,2,3.9,2.8c1.8,1,3.7,1.8,5.6,2.3c0-0.1,0-0.2,0-0.3c0-0.3,0.1-0.6,0.3-0.9c-1.8-0.5-3.5-1.3-5.2-2.2
		c-3.7-2-6.9-5-9.8-8.7c-1-1.3-1.9-2.7-2.7-4.1c2.2-1,7-3.1,11.2-5.3c0,0.2,0.1,0.4,0.2,0.6c0.4,0.8,1.3,1.1,2,1.3
		c0.2,0,0.5,0.1,0.7,0.1c0.3,0.7,0.9,1.2,1.7,1.5c0.3,0.1,0.7,0.2,0.9,0.2c0.1,0.4,0.4,0.7,0.7,0.9c0.8,0.6,2,0.5,2.7,0.4
		c0.4,0.5,0.8,0.8,1.4,0.9c0.2,0,0.4,0.1,0.5,0.1c0.5,0,0.9-0.1,1.3-0.2v7.5c0,0.6,0.4,1,1,1c0.6,0,1-0.4,1-1v-7.9
		c1,0.2,1.8,0,2.4-0.2c0.5-0.2,0.8-0.4,1-0.6c1,0.2,1.9-0.1,2.5-0.8c0.2-0.2,0.4-0.5,0.5-0.7c1.3,0.1,2.2-0.5,2.6-1
		c0.2-0.3,0.4-0.5,0.5-0.8c0.8,0,1.5-0.3,2-0.8c0.2-0.2,0.4-0.5,0.5-0.8c3.4,2.6,8.7,5,11.1,6c-0.8,1.4-1.7,2.6-2.6,3.9
		c-2.8,3.7-6.1,6.6-9.8,8.7c-1.7,1-3.5,1.7-5.3,2.2c0.1,0.3,0.2,0.6,0.3,0.9c0,0.1,0,0.2,0,0.3c1.9-0.6,3.8-1.3,5.6-2.4
		c1.4-0.8,2.8-1.8,4-2.8c-0.2,0.6-0.3,1.3-0.2,2c0,0,0,0.1,0,0.1c-0.6,0.4-2.1,1.6-4.4,2.7c-1.7,0.8-3.5,1.5-5.2,2
		c-0.1,0-0.2,0-0.2,0.1c-0.1,0.1-0.1,0.2-0.2,0.3c-0.6,0.7-1.4,1.1-2.2,1.4c1-0.2,2-0.4,2.9-0.6c1.9-0.5,3.7-1.2,5.5-2.1
		c2.4-1.2,4-2.3,4.6-2.8c0,0,0.1,0,0.1,0c0.7,0.1,1.5,0.1,2.3,0c0.9-0.2,1.9-0.5,2.8-1.1c1.1-0.6,2.3-1.6,3.4-2.7
		c0.1-0.2,0.2-0.4,0.2-0.6c0-0.2-0.2-0.4-0.4-0.5c0,0,0,0-0.1,0c0.3-0.2,0.7-0.4,1-0.7c1.1-0.8,2-1.9,2.9-3.3c0.1-0.2,0.1-0.4,0-0.6
		c-0.1-0.1-0.2-0.3-0.3-0.3c0.2-0.2,0.4-0.4,0.6-0.6c1-0.9,1.8-2.1,2.6-3.6c0.1-0.2,0.1-0.4,0-0.6c-0.1-0.2-0.3-0.3-0.5-0.3
		c0.2-0.2,0.4-0.5,0.6-0.7c0.9-1,1.6-2.3,2.1-3.8c0.1-0.2,0-0.4-0.1-0.6c-0.1-0.2-0.3-0.3-0.5-0.3h0c0.2-0.2,0.4-0.5,0.5-0.7
		c0.8-1.1,1.3-2.5,1.7-4c0.1-0.2,0-0.4-0.2-0.6c-0.1-0.1-0.3-0.2-0.5-0.2c0.2-0.3,0.3-0.6,0.5-0.9C74.1,78.2,74.5,76.8,74.7,75.2
		 M73.9,70.2C73.9,70.2,74,70.2,73.9,70.2c-0.1,1.1-0.3,2.1-0.6,3c-0.3,0.9-0.8,1.7-1.3,2.3c-0.6,0.8-1.3,1.2-1.6,1.3l0,0
		c0,0,0,0,0,0c-0.9-1.2-1.3-2.7-1.3-4.4c0-0.5,0.1-1.1,0.2-1.6c0,0,0,0,0,0c0,0,0,0,0,0c0.8,1,1.2,2.2,1.2,2.3
		c0.1,0.2,0.2,0.3,0.4,0.3c0.2,0,0.4-0.1,0.5-0.3C72.2,71.6,73.2,70.7,73.9,70.2C73.9,70.2,73.9,70.2,73.9,70.2 M73.8,64.5
		C73.8,64.4,73.8,64.4,73.8,64.5C73.9,64.5,73.9,64.5,73.8,64.5c0.1,1.1,0,2.1-0.2,3.1c-0.2,0.9-0.6,1.7-1.1,2.5
		c-0.6,0.8-1.2,1.3-1.4,1.5c0,0,0,0,0,0s0,0,0,0c-1.6-1.8-1.7-4.4-1.7-5.8c0,0,0,0,0,0c0,0,0,0,0,0c0.8,0.9,1.4,2,1.4,2
		c0.1,0.2,0.3,0.3,0.5,0.3c0.2,0,0.4-0.1,0.4-0.3C72.2,66,73.2,65,73.8,64.5 M73.2,58.7C73.2,58.6,73.2,58.6,73.2,58.7
		C73.3,58.7,73.3,58.7,73.2,58.7c0.2,1.1,0.2,2.1,0,3.1c-0.1,0.9-0.4,1.8-0.8,2.5c-0.5,0.9-1.1,1.4-1.3,1.6c0,0,0,0,0,0s0,0,0,0
		c-1.5-1.3-2-4-2.1-5.6c0,0,0,0,0,0c0,0,0,0,0,0c0.9,0.8,1.5,1.8,1.6,1.8c0.1,0.2,0.3,0.2,0.5,0.2c0.2,0,0.3-0.2,0.4-0.4
		C71.8,60.4,72.6,59.3,73.2,58.7 M72.3,53.1C72.3,53.1,72.3,53.1,72.3,53.1C72.3,53.1,72.3,53.1,72.3,53.1c0.2,1.1,0.3,2.1,0.2,3.1
		c-0.1,0.9-0.3,1.8-0.7,2.6c-0.4,0.9-1,1.5-1.2,1.7c0,0,0,0,0,0s0,0,0,0c-1.3-1.1-1.9-2.7-2.2-3.9c-0.1-0.5-0.2-1.1-0.3-1.6
		c0,0,0,0,0,0c0,0,0,0,0,0c1,0.8,1.7,1.8,1.7,1.8c0.1,0.2,0.3,0.2,0.5,0.2c0.2,0,0.3-0.2,0.4-0.4C71,54.9,71.7,53.8,72.3,53.1
		 M28.3,53.5c0-0.1,0-0.1,0-0.2c0.8-3.8,2.2-6.4,3.4-7.9c0.8-1.1,1.6-1.8,2-2.1c0.1-0.1,0.2-0.2,0.4-0.3c0.4-0.3,0.4-0.9,0.1-1.2
		c-0.3-0.4-0.8-0.5-1.2-0.2c0,0-0.2,0.1-0.4,0.3c-0.8,0.6-1.3,0.4-1.4,0.3c-0.3-0.2-0.4-0.5-0.3-1c0.1-0.8,1.1-1.9,1.4-2.3
		c0,0,0,0,0,0c1.9-2.2,4.8-2.2,4.9-2.2c0,0,0.1,0,0.1,0c0,0,0.9-0.1,2.1,0.3c1.6,0.5,2.8,1.6,3.7,3.2c1.2,2.3,2.1,4.6,2.7,7
		c-1.7-0.6-3-1.7-3-1.7c-0.4-0.3-1-0.3-1.3,0.1c-0.2,0.2-0.2,0.4-0.2,0.7c0,0.2,0.1,0.5,0.3,0.6c0.1,0.1,2.1,1.7,4.6,2.3
		c0.2,0.8,0.3,1.7,0.5,2.7c-0.8-0.4-1.7-0.7-2.5-0.9c-0.5-0.1-1-0.3-1.4-0.4c-1.7-0.7-3.1-1.8-3.1-1.8c-0.4-0.3-1-0.2-1.3,0.1
		c-0.3,0.4-0.2,1,0.2,1.3c0.1,0.1,1.7,1.3,3.6,2.1c0.5,0.2,1,0.3,1.6,0.5c2.1,0.6,3.1,1,3.2,2.1c-0.1,0.2-0.2,0.3-0.3,0.4
		c-0.7,0.7-2.2,0.8-2.7,0.8c0,0,0,0-0.1,0h-2c-0.4,0-2.5-0.1-4.2-1.2C32.9,51.9,30.8,52.4,28.3,53.5 M36.1,56.1h-6.2
		c-0.6,0-1.1-0.2-1.3-0.5c-0.1-0.1-0.1-0.1-0.2-0.2C31,54.2,32.4,53.8,36.1,56.1 M38.5,67.3v-9.4h3.2h0h0h1.9c0,0,0.1,0,0.3,0
		c0.3,0,0.7,0,1.2-0.1c1.1-0.2,2-0.6,2.6-1.3c0.2-0.3,0.5-0.7,0.7-1.2c0,0,0-0.1,0-0.1c0.1-0.5,0.2-1,0.1-1.6l0-0.2
		c-0.5-3.7-1.2-8.4-4.1-14c-2.4-4.7-6.9-4.5-7.4-4.5c-0.4,0-3.8,0.2-6.1,2.8c-0.2,0.3-1.6,1.7-1.9,3.2c-0.2,1.2,0.2,2.2,1.2,2.8
		c0.2,0.1,0.3,0.1,0.5,0.2c-1.4,1.8-3.2,4.7-4.1,9.1c-0.1,0.7-0.2,1.4-0.1,2c0,0,0,0.1,0,0.1c0.1,0.6,0.3,1.2,0.7,1.6
		c0.4,0.5,1.2,1.1,2.7,1.1h6.7v9.4V73c-1.7-0.1-3.1,0.6-4.7,1.8c-2.4,1.6-10.3,3.1-23.6,4.6c-0.9-3.9-1.4-8-1.4-12.2
		c0-5.5,0.8-10.8,2.4-15.9c1.6-4.8,3.8-9.2,6.6-12.9c2.8-3.7,6.1-6.6,9.8-8.7c3.8-2.1,7.8-3.2,11.9-3.2c4.1,0,8.1,1.1,11.9,3.2
		c3.7,2,6.9,5,9.8,8.7c2.8,3.7,5.1,8.1,6.6,12.9c1.6,5,2.4,10.4,2.4,15.9c0,4.2-0.5,8.4-1.4,12.4c-8.1-0.5-17.6-3.5-17.9-3.6
		c-0.7-0.2-1.3-0.5-1.8-0.7c-2-0.7-3.5-1.2-5.2-1.2c-0.1,0-0.2,0-0.3,0c-1-0.5-1.8-0.8-3-1V67.3z M51.1,24.7
		c-0.5,0.2-1.2,0.5-2.1,0.6c-0.5,0.1-1.1,0.2-1.5,0.2c-1.2,0-2.2-0.3-3-0.9c0,0,0,0,0,0c0,0,0,0,0,0c0.4-0.2,1-0.5,1.8-0.7
		c0.8-0.2,1.7-0.2,2.5-0.1C49.5,24,50.3,24.3,51.1,24.7C51.1,24.7,51.1,24.7,51.1,24.7C51.1,24.7,51.1,24.7,51.1,24.7 M52.3,28
		C52.3,28,52.3,28,52.3,28C52.3,28.1,52.2,28.1,52.3,28c-0.3,0.2-0.9,0.3-1.5,0.3c-0.1,0-0.2,0-0.2,0c-1.4,0-2.7-0.5-4-1.5
		c0,0,0,0,0,0c0,0,0,0,0,0c0.6-0.2,1.2-0.3,1.7-0.3C49.8,26.4,51.2,26.9,52.3,28 M45.9,22.9c-0.5,0.3-1.5,0.6-2.9,0.8
		c-0.2,0-0.4,0.2-0.4,0.4c0,0.2,0,0.4,0.2,0.5c0,0,1.1,0.8,1.9,1.8c0,0,0,0,0,0c0,0,0,0,0,0h0c-1.3,0-3.8-0.4-5.6-2.5c0,0,0,0,0,0
		c0.3-0.3,0.8-0.6,1.5-0.9C42,22.3,43.9,22.3,45.9,22.9C45.9,22.9,45.9,22.9,45.9,22.9C45.9,22.9,45.9,22.9,45.9,22.9 M40,22
		c-0.5,0.4-1.3,0.9-2.7,1.3c-0.2,0.1-0.3,0.2-0.3,0.4c0,0.2,0.1,0.4,0.3,0.5c0,0,1.2,0.5,2.1,1.3c0,0,0,0,0,0c0,0,0,0,0,0
		c-0.3,0-0.7,0.1-1.2,0.1c-1.4,0-3.3-0.3-4.7-1.4c0,0,0,0,0,0c0.2-0.3,0.6-0.8,1.3-1.2C36,22.1,37.8,21.8,40,22
		C40,21.9,40,21.9,40,22C40,21.9,40,21.9,40,22 M33.9,22.1c-0.4,0.5-1.1,1.2-2.4,1.9c-0.2,0.1-0.3,0.3-0.3,0.5
		c0,0.2,0.2,0.4,0.4,0.4c0,0,1.3,0.2,2.4,0.8c0,0,0,0,0,0c0,0,0,0,0,0c-0.5,0.2-1.1,0.3-1.6,0.4c-0.5,0.1-1,0.1-1.6,0.1
		c-0.9,0-1.9-0.1-2.8-0.6c0,0,0,0,0,0c0.1-0.4,0.4-0.9,1-1.5C29.9,23,31.7,22.3,33.9,22.1C33.8,22,33.9,22,33.9,22.1
		C33.9,22,33.9,22,33.9,22.1 M26,25.8c-0.2,0.1-0.2,0.3-0.1,0.5c0.1,0.2,0.2,0.3,0.4,0.3h0c0,0,0.5,0,1.2,0.1
		c0.5,0.1,0.9,0.2,1.3,0.3c0,0,0,0,0,0c0,0,0,0,0,0c-0.5,0.3-1,0.5-1.5,0.6c-1.1,0.4-2.1,0.5-2.9,0.5c-0.7,0-1.3-0.1-1.7-0.2
		c0,0,0,0,0,0c0.2-1,1.1-3.5,5.4-4.9c0,0,0,0,0,0c0,0,0,0,0,0C27.9,23.7,27.3,24.7,26,25.8 M69.4,51.2c0.1-1.7,0.7-2.9,1.2-3.6
		c0,0,0,0,0,0c0,0,0,0,0,0c0.3,1,0.5,2.1,0.6,3c0,1-0.1,1.8-0.4,2.7c-0.3,1-0.8,1.6-1,1.8c0,0,0,0,0,0s0,0,0,0
		c-1.2-0.7-2.1-1.9-2.8-3.6c-0.2-0.5-0.4-1-0.5-1.5c0,0,0,0,0,0c0,0,0,0,0,0c1.1,0.6,1.9,1.6,1.9,1.6c0.1,0.1,0.3,0.2,0.5,0.1
		C69.2,51.6,69.4,51.4,69.4,51.2 M67.5,45.9c-0.1-1.7,0.4-3,0.8-3.7c0,0,0,0,0,0c0,0,0,0,0,0c0.4,1,0.7,2,0.9,2.9
		c0.1,0.9,0.1,1.8-0.1,2.7c-0.2,1-0.6,1.7-0.8,1.9c0,0,0,0,0,0c0,0,0,0,0,0C67,49.1,66,48,65.2,46.5c-0.2-0.5-0.5-1-0.6-1.5
		c0,0,0,0,0,0c0,0,0,0,0,0c1.1,0.5,2.1,1.4,2.1,1.4c0.1,0.1,0.3,0.2,0.5,0.1C67.4,46.3,67.5,46.1,67.5,45.9 M64.8,41.5L64.8,41.5
		c0.2-0.1,0.3-0.3,0.2-0.5c-0.3-1.7,0-3,0.3-3.8c0,0,0,0,0,0c0,0,0,0,0,0c0.6,1,1,1.9,1.2,2.8c0.2,0.9,0.3,1.8,0.2,2.7
		c-0.1,1-0.4,1.7-0.6,2c0,0,0,0,0,0l0,0c-1.4-0.5-2.6-1.5-3.6-2.9c-0.3-0.5-0.6-1-0.8-1.5c0,0,0,0,0,0c0,0,0,0,0,0
		c1.2,0.4,2.3,1.2,2.3,1.2C64.4,41.6,64.7,41.6,64.8,41.5 M61.3,36.9c0.2,0.1,0.4,0.1,0.6,0c0.2-0.1,0.2-0.3,0.2-0.5
		c-0.5-1.5-0.4-2.9-0.2-3.8c0,0,0,0,0,0c0,0,0,0,0,0c0.7,0.8,1.2,1.7,1.6,2.5c0.4,0.9,0.6,1.7,0.7,2.6c0.1,1-0.1,1.7-0.2,2
		c0,0,0,0,0,0h0c-1.4-0.3-2.7-1-3.9-2.3c-0.4-0.4-0.8-0.9-1.1-1.4c0,0,0,0,0,0c0,0,0,0,0,0C60.2,36.2,61.3,36.9,61.3,36.9
		 M57.7,32.8c0.2,0.1,0.4,0,0.5-0.1c0.1-0.1,0.2-0.4,0.1-0.5c-0.8-1.5-0.9-2.8-0.9-3.7c0,0,0,0,0,0c0,0,0,0,0,0
		c0.8,0.7,1.5,1.5,2,2.3c0.5,0.8,0.9,1.6,1.1,2.5c0.2,1,0.2,1.8,0.1,2.1c0,0,0,0,0,0c0,0-0.1,0-0.1,0c-1.6,0-3-0.9-4-1.6
		c-0.5-0.4-0.9-0.8-1.4-1.2c0,0,0,0,0,0c0,0,0,0,0,0c0.1,0,0.1,0,0.2,0C56.6,32.4,57.7,32.8,57.7,32.8 M56.3,29.1
		c0.4,1,0.4,1.9,0.4,2.3c0,0,0,0,0,0c-0.1,0-0.2,0-0.2,0c-2,0-4.2-1.3-5.4-2.1c0,0,0,0,0,0c0,0,0,0,0,0c1.2-0.2,2.4,0,2.4,0
		c0.2,0,0.4,0,0.5-0.2c0.1-0.2,0.1-0.4,0-0.6c-0.8-1-1.2-2.1-1.5-2.8c0,0,0,0,0,0c0,0,0,0,0,0C54.4,26.4,55.7,27.5,56.3,29.1
		 M20.9,23.4c0.1,0,0.2-0.1,0.3-0.1c1.2-0.4,2.2-0.7,2.8-0.8c1.3-0.3,2.2-0.8,2.2-0.9c0.1-0.1,0.2-0.2,0.1-0.3
		c0-0.1-0.1-0.2-0.3-0.3l-5.6-0.8l5.6-0.8c0.2,0,0.3-0.2,0.3-0.3c0-0.2-0.1-0.3-0.3-0.3c0,0-1.2-0.2-2.5-0.8c-0.4-0.2-0.7-0.3-1-0.5
		c-0.5-0.3-1-0.5-1.6-0.7c0.1,0,0.2,0,0.3,0c1.2,0.1,2.3,0.2,2.9,0.3c1.3,0.2,2.3,0.1,2.4,0c0.1,0,0.2-0.1,0.3-0.3
		c0-0.1,0-0.3-0.2-0.3l-4.9-2.9l5.5,1.4c0.2,0,0.3,0,0.4-0.2c0.1-0.1,0-0.3-0.1-0.4c0,0-1.1-0.6-2-1.7c-0.3-0.3-0.5-0.6-0.7-0.8
		c-0.4-0.4-0.7-0.9-1.2-1.3c0.1,0,0.2,0.1,0.3,0.1c1.1,0.5,2.1,1.1,2.5,1.4c1.1,0.7,2.1,0.9,2.2,0.9c0.1,0,0.3,0,0.3-0.1
		c0.1-0.1,0.1-0.3,0-0.4l-3.4-4.5l4.6,3.4c0.1,0.1,0.3,0.1,0.4,0c0.1-0.1,0.1-0.3,0-0.4c-0.1-0.1-0.8-1.1-1.2-2.3
		C29.1,8.3,29,8,28.9,7.6c-0.2-0.5-0.3-1.1-0.6-1.7c0.1,0.1,0.1,0.1,0.2,0.2c0.8,0.9,1.5,1.8,1.8,2.3c0.7,1,1.5,1.6,1.6,1.7
		c0.1,0.1,0.3,0.1,0.4,0c0.1-0.1,0.2-0.2,0.1-0.3L31,4.4l2.9,4.9c0.1,0.1,0.3,0.2,0.4,0.1c0.2-0.1,0.2-0.2,0.2-0.4
		c0-0.1-0.3-1.2-0.2-2.6c0-0.4,0.1-0.8,0.1-1.1c0.1-0.6,0.1-1.1,0.1-1.8c0,0.1,0.1,0.2,0.1,0.3c0.4,1.2,0.7,2.2,0.8,2.8
		c0.3,1.2,0.8,2.1,0.9,2.2c0.1,0.1,0.2,0.2,0.3,0.1c0.1,0,0.2-0.1,0.2-0.3l0.8-5.6l0.8,5.6c0,0.2,0.2,0.3,0.3,0.3
		c0.2,0,0.3-0.1,0.3-0.3c0-0.1,0.2-1.2,0.8-2.5c0.2-0.4,0.3-0.7,0.5-1c0.3-0.5,0.5-1,0.7-1.6c0,0.1,0,0.2,0,0.3
		c-0.1,1.2-0.2,2.3-0.3,2.9c-0.2,1.3,0,2.3,0,2.4c0,0.1,0.1,0.2,0.3,0.3c0.1,0,0.3,0,0.3-0.2l2.9-4.9l-1.4,5.5c0,0.2,0,0.3,0.2,0.4
		c0.1,0.1,0.3,0,0.4-0.1C43.4,10,44,9,45,8.1c0.3-0.3,0.6-0.5,0.8-0.7c0.4-0.4,0.9-0.7,1.3-1.2c0,0.1-0.1,0.2-0.1,0.3
		c-0.5,1.1-1.1,2.1-1.4,2.5c-0.7,1.1-0.9,2.1-0.9,2.2c0,0.1,0,0.3,0.1,0.3c0.1,0.1,0.3,0.1,0.4,0l4.6-3.4l-3.4,4.6
		c-0.1,0.1-0.1,0.3,0,0.4c0.1,0.1,0.3,0.1,0.4,0c0,0,1-0.7,2.3-1.2c0.4-0.1,0.7-0.2,1.1-0.3c0.5-0.2,1.1-0.3,1.7-0.6
		c-0.1,0.1-0.1,0.1-0.2,0.2c-0.9,0.8-1.8,1.5-2.3,1.8c-1.1,0.7-1.7,1.6-1.7,1.6c-0.1,0.1-0.1,0.3,0,0.4c0.1,0.1,0.2,0.2,0.3,0.1
		l5.5-1.4l-4.9,2.9c-0.1,0.1-0.2,0.3-0.1,0.4c0.1,0.1,0.2,0.2,0.4,0.2c0.1,0,1.3-0.3,2.6-0.2c0.4,0,0.8,0.1,1.1,0.1
		c0.6,0.1,1.1,0.1,1.8,0.1c-0.1,0-0.2,0.1-0.3,0.1c-1.2,0.4-2.2,0.7-2.8,0.8c-1.3,0.3-2.2,0.8-2.2,0.9c-0.1,0.1-0.2,0.2-0.1,0.3
		c0,0.1,0.1,0.2,0.3,0.3l5.6,0.8L49.1,21c-0.2,0-0.3,0.2-0.3,0.3c0,0.2,0.1,0.3,0.3,0.3c0.1,0,1.3,0.2,2.5,0.8
		c0.4,0.2,0.7,0.3,1,0.5c0.5,0.3,1,0.5,1.6,0.7c-0.1,0-0.2,0-0.3,0c-1.2-0.1-2.3-0.2-2.9-0.3l-0.2,0c-1-0.4-2.1-0.7-3.1-0.7
		c0,0,0,0,0,0c-0.1-0.2-0.2-0.4-0.4-0.5c-1.5-0.5-3-0.8-4.3-0.8c-0.5,0-0.9,0-1.4,0.1c0-0.1,0-0.1-0.1-0.2c-0.1-0.2-0.3-0.3-0.5-0.4
		c-1.6-0.2-3.1-0.2-4.3,0.1c-0.5,0.1-1,0.2-1.4,0.4c0-0.1-0.1-0.3-0.2-0.4c-0.1-0.1-0.3-0.2-0.5-0.2c-1.6,0.1-3,0.5-4.2,1
		c-0.3,0.1-0.6,0.3-0.9,0.5c0-0.2-0.1-0.3-0.2-0.4c-0.2-0.1-0.4-0.2-0.6-0.1c-1.6,0.4-2.9,1-4,1.8l-0.1,0c-0.3,0-0.6,0-0.9,0
		c-0.2,0-1-0.1-1.1-0.1C22.1,23.4,21.5,23.3,20.9,23.4 M22.4,25C22.4,25,22.4,25,22.4,25C22.4,25,22.4,25,22.4,25
		c0,0.9-0.3,2.2-1.2,3.6c-0.1,0.2-0.1,0.4,0,0.5c0.1,0.2,0.3,0.2,0.5,0.2c0,0,1.2-0.2,2.4-0.1c0,0,0,0,0,0c0,0,0,0,0,0
		c-1.1,0.8-3.1,2.2-5.4,2.2c-0.1,0-0.2,0-0.2,0c0,0,0,0,0,0C18.5,30.4,18.7,27.6,22.4,25 M14.7,33.2c0.2-0.8,0.6-1.7,1.1-2.5
		c0.5-0.8,1.2-1.6,2-2.3c0,0,0,0,0,0c0,0,0,0,0,0c0,0.9-0.1,2.2-0.9,3.7c-0.1,0.2-0.1,0.4,0.1,0.5c0.1,0.1,0.3,0.2,0.5,0.1
		c0,0,1.2-0.4,2.4-0.4c0,0,0,0,0,0c0,0,0,0,0,0c-0.5,0.5-0.9,0.9-1.4,1.2c-1,0.7-2.4,1.6-3.8,1.6c-0.1,0-0.1,0-0.2,0c0,0,0,0,0,0
		C14.5,35,14.4,34.2,14.7,33.2 M13.4,32.6C13.4,32.5,13.4,32.5,13.4,32.6C13.5,32.5,13.5,32.6,13.4,32.6c0.2,0.9,0.3,2.2-0.2,3.8
		c-0.1,0.2,0,0.4,0.2,0.5c0.2,0.1,0.4,0.1,0.6,0c0,0,1-0.7,2.4-0.8c0,0,0,0,0,0c0,0,0,0,0,0c-0.9,1.2-2.6,3.3-4.9,3.7h0c0,0,0,0,0,0
		C11,38.8,10.5,36,13.4,32.6 M8.4,40c0.3-0.9,0.7-1.8,1.3-2.8c0,0,0,0,0,0c0,0,0,0,0,0c0.3,0.8,0.5,2.2,0.2,3.8
		c0,0.2,0.1,0.4,0.2,0.5c0.2,0.1,0.4,0.1,0.6-0.1c0,0,1-0.9,2.3-1.1c0,0,0,0,0,0c0,0,0,0,0,0c-0.2,0.4-0.5,1-0.9,1.6
		c-1,1.4-2.2,2.3-3.6,2.7l0,0c0,0,0,0,0,0c-0.1-0.3-0.4-1-0.5-2C8,41.8,8.2,40.9,8.4,40 M5.8,45.1c0.1-0.9,0.4-1.9,0.9-2.9
		c0,0,0,0,0,0c0,0,0,0,0,0c0.4,0.8,0.8,2.1,0.8,3.7c0,0.2,0.1,0.4,0.3,0.4c0.2,0.1,0.4,0.1,0.5-0.1c0,0,1.1-0.9,2.2-1.4c0,0,0,0,0,0
		c0,0,0,0,0,0c-0.1,0.5-0.3,0.9-0.5,1.4c-0.7,1.5-1.9,2.6-3.4,3.4c0,0,0,0,0,0s0,0,0,0c-0.2-0.3-0.6-1-0.8-1.9
		C5.6,47,5.6,46.1,5.8,45.1 M4.3,47.5C4.3,47.5,4.3,47.5,4.3,47.5C4.3,47.5,4.4,47.5,4.3,47.5c0.5,0.7,1.1,1.9,1.3,3.6
		c0,0.2,0.1,0.4,0.3,0.4c0.2,0.1,0.4,0,0.5-0.1c0,0,0.9-1,2-1.7c0,0,0,0,0,0c0,0,0,0,0,0c-0.1,0.5-0.2,1-0.3,1.5
		c-0.5,1.6-1.5,2.8-2.9,3.7c0,0,0,0,0,0s0,0,0,0c-0.2-0.2-0.7-0.8-1-1.8c-0.3-0.8-0.4-1.7-0.4-2.7C3.8,49.6,4,48.6,4.3,47.5
		 M2.7,53.1C2.7,53.1,2.7,53.1,2.7,53.1C2.7,53.1,2.7,53.1,2.7,53.1c0.6,0.6,1.4,1.8,1.7,3.4c0,0.2,0.2,0.3,0.4,0.4
		c0.2,0,0.4,0,0.5-0.2c0,0,0.8-1.1,1.8-1.9c0,0,0,0,0,0c0,0,0,0,0,0c0,0.5-0.1,1-0.2,1.5c-0.4,1.6-1.2,3-2.3,4c0,0,0,0,0,0
		c0,0,0,0,0,0c-0.3-0.2-0.8-0.8-1.2-1.6c-0.4-0.8-0.6-1.6-0.7-2.6C2.4,55.2,2.5,54.2,2.7,53.1 M1.8,58.7C1.8,58.7,1.8,58.7,1.8,58.7
		C1.9,58.6,1.9,58.6,1.8,58.7c0.7,0.6,1.5,1.7,1.9,3.3c0,0.2,0.2,0.3,0.4,0.4c0.2,0,0.4-0.1,0.5-0.3c0,0,0.5-1.1,1.5-1.9
		c0,0,0,0,0,0c0,0,0,0,0,0c0,0.6,0,1.1-0.1,1.7c-0.3,1.7-1,3.1-2,4c0,0,0,0,0,0s0,0,0,0c-0.2-0.2-0.8-0.7-1.3-1.6
		c-0.4-0.8-0.7-1.6-0.8-2.5C1.7,60.8,1.7,59.8,1.8,58.7 M1.4,64.5C1.4,64.5,1.4,64.5,1.4,64.5C1.4,64.5,1.4,64.5,1.4,64.5
		c0.2,0.1,0.3,0.2,0.4,0.3c0.5,0.6,1.2,1.5,1.7,2.9C3.5,68,3.7,68.1,4,68.1c0.2,0,0.4-0.2,0.4-0.4c0,0,0.2-1.2,1.2-2.1c0,0,0,0,0,0
		c0,0,0,0,0,0c0.1,0.7,0.2,1.7,0,2.8c-0.2,1.3-0.8,2.4-1.6,3.2c0,0,0,0,0,0s0,0,0,0C3.1,71,1.1,69,1.4,64.5 M1.1,70.2
		C1.2,70.2,1.2,70.2,1.1,70.2c0.2,0.1,0.3,0.2,0.4,0.3c0.6,0.5,1.4,1.4,2,2.7c0.1,0.2,0.2,0.3,0.4,0.3h0c0.2,0,0.4-0.1,0.4-0.3
		c0,0,0.5-1.3,1.4-2.2c0,0,0,0,0,0c0,0,0,0,0,0c0.3,1.2,0.4,3.6-1.3,6c0,0,0,0,0,0c0,0,0,0,0,0C3.5,76.5,1.3,74.7,1.1,70.2
		C1.1,70.3,1.1,70.2,1.1,70.2 M1.4,76.2C1.4,76.2,1.4,76.1,1.4,76.2C1.5,76.1,1.5,76.1,1.4,76.2c0.8,0.4,2,1.1,2.9,2.5
		c0.1,0.2,0.3,0.2,0.5,0.2c0.2,0,0.3-0.2,0.4-0.4l0,0l0,0c0-0.1,0.3-1.4,1-2.5c0,0,0,0,0,0c0,0,0,0,0,0c0.2,0.5,0.4,1,0.5,1.5
		c0.3,1.6,0.1,3.2-0.8,4.7c0,0,0,0,0,0c0,0,0,0,0,0c-0.3-0.1-1-0.4-1.8-1.1c-0.6-0.6-1.2-1.3-1.7-2.1C2,78.2,1.7,77.2,1.4,76.2
		 M2.8,81.7C2.8,81.7,2.8,81.6,2.8,81.7C2.8,81.6,2.8,81.6,2.8,81.7c0.2,0,0.3,0.1,0.5,0.2C4,82.2,5,82.8,5.9,84
		c0.1,0.2,0.3,0.2,0.5,0.2c0.2,0,0.3-0.2,0.3-0.4c0,0,0.2-1.3,0.7-2.5c0,0,0,0,0,0c0,0,0,0,0,0c0.6,1.2,1.3,3.6,0.2,6.1c0,0,0,0,0,0
		s0,0,0,0C6.6,87.1,4.1,86,2.8,81.7 M6.1,89.8c-0.6-0.7-1.1-1.6-1.6-2.6c0,0,0,0,0,0c0,0,0,0,0,0c0.2,0,0.3,0.1,0.5,0.2
		c0.7,0.3,1.8,0.8,2.8,1.8c0.1,0.1,0.3,0.2,0.5,0.1c0.2-0.1,0.3-0.2,0.3-0.4c0,0,0-1.3,0.4-2.5c0,0,0,0,0,0c0,0,0,0,0,0
		c0.3,0.5,0.5,1,0.7,1.5c0.6,1.6,0.7,3.1,0.2,4.5c0,0,0,0,0,0h0c-0.3-0.1-1.1-0.2-1.9-0.7C7.4,91.2,6.7,90.6,6.1,89.8 M6.9,92.4
		C6.9,92.4,6.9,92.4,6.9,92.4C6.9,92.4,6.9,92.4,6.9,92.4c0.9,0.1,2.2,0.5,3.5,1.6c0.2,0.1,0.4,0.1,0.5,0c0.2-0.1,0.3-0.3,0.2-0.5
		c0,0-0.1-1.2,0.1-2.5c0,0,0,0,0,0c0,0,0,0,0,0c0.3,0.5,0.6,0.9,0.8,1.4c0.5,1.1,1.1,2.7,0.8,4.4c0,0,0,0,0,0h0
		c-0.4,0-1.1-0.1-2-0.5c-0.8-0.3-1.5-0.9-2.2-1.5C8.1,94.2,7.5,93.4,6.9,92.4 M17.8,101.9c0,0-0.5-1.2-0.6-2.4c0,0,0,0,0,0
		c0,0,0,0,0,0c1.1,0.9,2.9,2.9,2.8,5.4c0,0,0,0,0,0c-0.1,0-0.4,0.1-0.8,0.1c-0.3,0-0.7,0-1.1-0.1c-1.6-0.3-3.2-1.3-4.9-2.8
		c0,0,0,0,0,0c0,0,0,0,0,0c0.9-0.1,2.2-0.1,3.8,0.5c0.2,0.1,0.4,0,0.5-0.1C17.9,102.3,17.9,102.1,17.8,101.9 M13.5,98.5
		c0.2,0.1,0.4,0.1,0.5,0c0.2-0.1,0.2-0.3,0.2-0.5c0,0-0.3-1.2-0.2-2.4c0,0,0,0,0,0c0,0,0,0,0,0c0.9,1.1,2.4,3.3,2.3,5.6c0,0,0,0,0,0
		c-0.1,0-0.1,0-0.2,0c-0.4,0-1.1-0.1-1.8-0.3c-0.8-0.3-1.6-0.7-2.4-1.3c-0.7-0.6-1.5-1.3-2.1-2.2c0,0,0,0,0,0c0,0,0,0,0,0
		C10.8,97.3,12.1,97.6,13.5,98.5 M32.1,86.1c-0.2,0.1-0.3,0.2-0.4,0.3c-1,0.7-1.6,1.5-1.9,2.2c-0.1,0-0.3-0.1-0.4-0.1
		c-0.8-0.3-0.8-0.6-0.8-0.8c0-0.4,0.2-0.8,0.8-1.3c0.7-0.7,1.3-1,1.8-1c0.2,0,0.4,0,0.5,0.1c0.2,0.1,0.4,0.3,0.4,0.4
		C32.1,86,32.1,86,32.1,86.1 M33.1,90c-0.3,0-1.2,0.1-1.6-0.1c-0.1-0.1-0.2-0.2-0.2-0.4c-0.1-0.7,0.8-1.4,1.3-1.7
		c0.8-0.6,1.4-0.9,1.8-0.9c0.2,0,0.4,0.1,0.6,0.3c0.2,0.1,0.2,0.3,0.2,0.4c0,0.2-0.3,0.5-0.5,0.7C33.9,88.7,33.4,89.3,33.1,90
		 M37.1,90.1c-0.3,0.2-1.3,0.9-2.1,0.7c-0.1,0-0.3-0.1-0.5-0.3c0.3-0.7,1.1-1.2,1.8-1.6c0.9-0.5,1.3-0.2,1.3-0.2
		c0.3,0.3,0.2,0.4,0.2,0.5C37.8,89.6,37.4,89.9,37.1,90.1C37.2,90.1,37.1,90.1,37.1,90.1 M28.6,84.9c-0.1,0.1-0.2,0.2-0.4,0.3
		c-0.5,0.4-1,1-1.2,1.7c-0.1,0-0.2,0-0.3,0c-0.5-0.1-0.8-0.2-0.8-0.4c0-0.1-0.1-0.3,0.2-0.7c0.4-0.6,1.4-1,2-1c0.1,0,0.1,0,0.2,0
		c0,0,0,0,0.1,0C28.4,84.9,28.5,84.9,28.6,84.9 M49,85.9c-0.2,0.2-0.6,0.3-1,0.3c-0.7-0.9-2.4-3-4.6-4.1c-0.2-0.1-0.4-0.1-0.6,0
		c-0.2,0.1-0.4,0.2-0.5,0.4c-0.1,0.2-0.1,0.4,0,0.6c0.1,0.2,0.2,0.4,0.4,0.5c1.8,0.9,3.4,2.8,4,3.6c-0.1,0.1-0.1,0.3-0.2,0.4
		c-0.3,0.3-0.7,0.5-1.3,0.5c-0.2-0.4-0.6-0.9-1.1-1.5c-0.7-0.8-2-1.7-2.1-1.8c-0.2-0.1-0.4-0.2-0.6-0.1c-0.2,0-0.4,0.2-0.5,0.3
		c-0.1,0.2-0.2,0.4-0.1,0.6c0,0.2,0.2,0.4,0.3,0.5c0.3,0.2,1.4,1,1.8,1.5c0.5,0.6,0.7,1,0.8,1.2c-0.1,0.1-0.2,0.3-0.4,0.5
		c-0.3,0.3-0.6,0.4-1.1,0.3c-0.2-0.4-0.6-1.3-1.4-2.2c-0.3-0.3-0.8-0.4-1.1-0.1c-0.2,0.1-0.2,0.3-0.3,0.5c0,0.2,0.1,0.4,0.2,0.6
		c0.5,0.6,0.9,1.2,1.1,1.6c-0.1,0.1-0.3,0.1-0.4,0.2c-0.4,0.2-0.8,0.2-1.3,0.2c0.2-0.3,0.3-0.6,0.4-1c0-0.4,0-1.1-0.7-1.7
		c-0.3-0.3-1-0.7-1.9-0.5c-0.1-0.5-0.3-0.9-0.8-1.3c-0.7-0.6-1.6-0.8-2.5-0.5c-0.1-0.4-0.5-0.8-1.2-1.2c-0.7-0.3-1.4-0.4-2.1-0.1
		c-0.6-0.5-1.5-0.7-1.7-0.7c-1-0.1-2.4,0.4-3.3,1.2c-4.5,2.4-10.3,5-12.7,6.1c-1.2-2.3-2.3-4.8-3.1-7.5c-0.2-0.7-0.4-1.5-0.6-2.2
		c6.6-0.8,12-1.5,15.9-2.3c4.1-0.8,6.7-1.7,8.1-2.6c1.6-1.1,2.6-1.6,4.1-1.5c0.4,0,0.7,0.1,1,0.1c-0.3,0.1-0.5,0.3-0.8,0.5
		c-0.6,0.4-1,0.8-1.3,1c-0.3,0.3-0.6,0.5-1,0.8c-0.3,0.2-0.7,0.4-1.1,0.6c-0.9,0.5-1.7,0.8-1.9,1.4c-0.2,0.7-0.2,1.3,0.3,1.9
		c0.7,1,1.9,0.9,2.8,0.9c1-0.1,2.3-0.4,3.2-1c0.3-0.2,0.6-0.4,0.9-0.6c0.4-0.3,0.7-0.5,1-0.5c0,0,0,0,0,0c0.8-0.2,1.7-0.1,2.8,0.3
		c1,0.4,1.9,0.9,2.8,1.5c2.1,1.3,3.6,3.2,4.1,3.7C49.4,85.4,49.3,85.7,49,85.9 M51.9,85.3c-0.7-0.5-1.2-1-1.4-1.2c0,0,0,0,0,0l0,0
		c-0.1-0.1-0.1-0.1-0.1-0.1c-0.7-0.9-2.2-2.5-4.2-3.8c-1.5-0.9-4.2-2.7-6.8-2c-0.5,0.1-1,0.4-1.5,0.8c-0.2,0.2-0.5,0.3-0.8,0.5
		c-0.8,0.5-1.9,0.7-2.5,0.8c-0.8,0-1.2,0-1.4-0.2C33,79.7,33,79.6,33,79.5c0.2-0.2,0.8-0.5,1.1-0.6c0.4-0.2,0.9-0.4,1.3-0.7
		c0.5-0.3,0.8-0.6,1.2-0.9c0.3-0.3,0.7-0.5,1.3-1c0.8-0.6,1.6-0.6,3-0.6h0c0.2,0,0.4,0,0.6,0c0.2,0,0.3,0,0.5,0
		c1.4-0.1,2.7,0.4,4.6,1.1c0.6,0.2,1.2,0.4,1.9,0.7c0.1,0,2.7,0.8,6.2,1.7c3,0.7,7.5,1.6,11.7,1.9c-0.2,0.7-0.4,1.4-0.6,2
		c-0.9,2.7-2,5.3-3.3,7.7C60.3,90,55.3,87.8,51.9,85.3 M61.7,102.1c-2,1.9-3.8,2.6-4.9,2.8c-0.4,0.1-0.8,0.1-1.1,0.1
		c-0.3,0-0.6,0-0.7-0.1c0,0,0,0,0,0c-0.1-1.4,0.5-2.9,1.6-4.2c0.4-0.4,0.8-0.8,1.2-1.2c0,0,0,0,0,0c0,0,0,0,0,0
		c-0.1,1.2-0.6,2.4-0.6,2.4c-0.1,0.2,0,0.4,0.1,0.5c0.1,0.1,0.3,0.2,0.5,0.1C59.5,102,60.8,102,61.7,102.1
		C61.7,102.1,61.7,102.1,61.7,102.1C61.7,102.1,61.7,102.1,61.7,102.1 M65.3,97.3c-0.6,0.9-1.4,1.6-2.1,2.2c-0.8,0.6-1.6,1-2.4,1.3
		c-0.8,0.2-1.4,0.3-1.8,0.3c-0.1,0-0.2,0-0.2,0c0,0,0,0,0,0c-0.1-1.4,0.3-2.8,1.3-4.3c0.3-0.5,0.6-0.9,1-1.3c0,0,0,0,0,0
		c0,0,0,0,0,0c0.1,1.2-0.1,2.5-0.1,2.5c0,0.2,0,0.4,0.2,0.5c0.2,0.1,0.4,0.1,0.5,0C63.1,97.6,64.4,97.4,65.3,97.3
		C65.3,97.3,65.3,97.3,65.3,97.3C65.3,97.3,65.3,97.3,65.3,97.3 M66.4,94.9c-0.7,0.7-1.4,1.2-2.2,1.5c-0.9,0.4-1.7,0.5-2,0.5l0,0
		c0,0,0,0,0,0c-0.2-1.4,0-2.9,0.8-4.4c0.2-0.5,0.5-0.9,0.8-1.4c0,0,0,0,0,0c0,0,0,0,0,0c0.2,1.2,0.1,2.5,0.1,2.5
		c0,0.2,0.1,0.4,0.2,0.5c0.2,0.1,0.4,0.1,0.5,0c1.3-1.1,2.6-1.4,3.5-1.6c0,0,0,0,0,0c0,0,0,0,0,0C67.7,93.4,67.1,94.2,66.4,94.9
		 M69,89.7c-0.6,0.7-1.3,1.3-2,1.8c-0.8,0.5-1.6,0.7-1.9,0.7h0c0,0,0,0,0,0c-0.4-1.4-0.3-2.9,0.3-4.5c0.2-0.5,0.4-1,0.7-1.4
		c0,0,0,0,0,0c0,0,0,0,0,0c0.4,1.2,0.4,2.5,0.4,2.5c0,0.2,0.1,0.4,0.3,0.4c0.2,0.1,0.4,0,0.5-0.1c1-1.1,2.1-1.7,2.8-1.9
		c0.2-0.1,0.3-0.1,0.5-0.1c0,0,0,0,0,0c0,0,0,0,0,0C70.2,88.1,69.6,89,69,89.7 M71,84.4c-0.5,0.8-1.2,1.5-1.8,2
		c-0.8,0.6-1.6,0.8-1.9,0.9l0,0c0,0,0,0,0,0c-0.7-1.6-0.5-3.4-0.2-4.6c0.1-0.5,0.3-1.1,0.5-1.6c0,0,0,0,0,0s0,0,0,0
		c0.5,1.2,0.7,2.5,0.7,2.5c0,0.2,0.2,0.3,0.3,0.4c0.2,0.1,0.4,0,0.5-0.2c1.1-1.3,2.3-2,3.1-2.3c0,0,0,0,0,0c0,0,0,0,0,0
		C72,82.7,71.6,83.6,71,84.4 M72.5,78.8c-0.4,0.9-1,1.6-1.6,2.2c-0.7,0.7-1.4,1-1.7,1.1c0,0,0,0,0,0s0,0,0,0c-0.7-1.3-1-2.8-0.8-4.6
		c0.1-0.5,0.2-1.1,0.3-1.6c0,0,0,0,0,0c0,0,0,0,0,0c0.6,1.1,1,2.5,1,2.5c0,0.2,0.2,0.3,0.4,0.4c0.2,0,0.4-0.1,0.5-0.2
		c0.9-1.4,2-2.2,2.8-2.7c0,0,0,0,0,0c0,0,0,0,0,0C73.3,77,72.9,78,72.5,78.8"/>
	<path class="st3" d="M47.7,22.6c1,0,2.1,0.2,3.1,0.7l0.1,0c0.6,0.1,1.7,0.3,2.9,0.3c0.1,0,0.2,0,0.3,0c-0.6-0.2-1.1-0.5-1.6-0.7
		c-0.3-0.2-0.6-0.3-1-0.5c-1.2-0.5-2.4-0.7-2.5-0.8c-0.2,0-0.3-0.2-0.3-0.3c0-0.2,0.1-0.3,0.3-0.3l5.6-0.8l-5.6-0.8
		c-0.1,0-0.2-0.1-0.3-0.3c0-0.1,0-0.3,0.1-0.3c0,0,0.9-0.6,2.2-0.9c0.6-0.1,1.6-0.4,2.8-0.8c0.1,0,0.2-0.1,0.3-0.1
		c-0.7,0.1-1.2,0-1.8-0.1c-0.3,0-0.7-0.1-1.1-0.1c-1.3,0-2.5,0.2-2.6,0.2c-0.2,0-0.3,0-0.4-0.2c-0.1-0.1,0-0.3,0.1-0.4l4.9-2.9
		L47.9,15c-0.1,0-0.3,0-0.3-0.1c-0.1-0.1-0.1-0.3,0-0.4c0,0,0.6-0.9,1.7-1.6c0.5-0.3,1.4-1,2.3-1.8c0.1-0.1,0.1-0.1,0.2-0.2
		c-0.6,0.3-1.1,0.5-1.7,0.6c-0.3,0.1-0.7,0.2-1.1,0.3c-1.3,0.5-2.3,1.2-2.3,1.2c-0.1,0.1-0.3,0.1-0.4,0c-0.1-0.1-0.1-0.3,0-0.4
		l3.4-4.6l-4.6,3.4c-0.1,0.1-0.3,0.1-0.4,0c-0.1-0.1-0.2-0.2-0.1-0.3c0,0,0.2-1.1,0.9-2.2c0.3-0.5,0.9-1.4,1.4-2.5
		c0-0.1,0.1-0.2,0.1-0.3c-0.4,0.5-0.8,0.9-1.3,1.2c-0.3,0.2-0.6,0.4-0.8,0.7c-1,0.9-1.6,1.9-1.6,2c-0.1,0.1-0.3,0.2-0.4,0.1
		c-0.1-0.1-0.2-0.2-0.2-0.4l1.4-5.5l-2.9,4.9c-0.1,0.1-0.2,0.2-0.3,0.2c-0.1,0-0.2-0.1-0.3-0.3c0,0-0.2-1.1,0-2.4
		c0.1-0.6,0.3-1.7,0.3-2.9c0-0.1,0-0.2,0-0.3c-0.2,0.6-0.5,1.1-0.7,1.6c-0.2,0.3-0.3,0.6-0.5,1C39.2,7.4,39,8.6,39,8.7
		c0,0.2-0.2,0.3-0.3,0.3c-0.2,0-0.3-0.1-0.3-0.3l-0.8-5.6l-0.8,5.6c0,0.1-0.1,0.2-0.3,0.3c-0.1,0-0.3,0-0.3-0.1
		c-0.1-0.1-0.6-1-0.9-2.2c-0.1-0.5-0.4-1.6-0.8-2.8c0-0.1-0.1-0.2-0.1-0.3c0.1,0.7,0,1.2-0.1,1.8c0,0.3-0.1,0.7-0.1,1.1
		c0,1.4,0.2,2.5,0.2,2.6c0,0.2,0,0.3-0.2,0.4c-0.2,0.1-0.3,0-0.4-0.1L31,4.4l1.4,5.5c0,0.1,0,0.3-0.1,0.3c-0.1,0.1-0.3,0.1-0.4,0
		c-0.1-0.1-0.9-0.7-1.6-1.7c-0.3-0.5-1-1.4-1.8-2.3c-0.1-0.1-0.1-0.1-0.2-0.2c0.3,0.6,0.5,1.1,0.6,1.7C29,8,29.1,8.3,29.2,8.7
		c0.5,1.2,1.1,2.2,1.2,2.3c0.1,0.1,0.1,0.3,0,0.4c-0.1,0.1-0.3,0.1-0.4,0l-4.6-3.4l3.4,4.5c0.1,0.1,0.1,0.3,0,0.4
		c-0.1,0.1-0.2,0.2-0.3,0.1c0,0-1.1-0.2-2.2-0.9c-0.5-0.3-1.4-0.9-2.5-1.4c-0.1,0-0.2-0.1-0.3-0.1c0.5,0.4,0.8,0.9,1.2,1.3
		c0.2,0.3,0.4,0.6,0.7,0.8c1,1,2,1.6,2,1.7c0.1,0.1,0.2,0.3,0.1,0.4c-0.1,0.1-0.2,0.2-0.4,0.2l-5.5-1.4l4.9,2.9
		c0.1,0.1,0.2,0.2,0.2,0.3c0,0.1-0.1,0.2-0.3,0.3c0,0-1.1,0.2-2.4,0c-0.6-0.1-1.7-0.3-2.9-0.3c-0.1,0-0.2,0-0.3,0
		c0.6,0.2,1.1,0.5,1.6,0.7c0.3,0.2,0.6,0.3,1,0.5c1.3,0.6,2.5,0.8,2.5,0.8c0.2,0,0.3,0.2,0.3,0.3c0,0.2-0.1,0.3-0.3,0.3l-5.6,0.8
		L26,21c0.1,0,0.2,0.1,0.3,0.3c0,0.1,0,0.3-0.1,0.3c0,0-0.9,0.6-2.2,0.9c-0.6,0.1-1.6,0.4-2.8,0.8c-0.1,0-0.2,0.1-0.3,0.1
		c0.7-0.1,1.2,0,1.8,0.1c0.1,0,0.9,0.1,1.1,0.1c0.3,0,0.6,0,0.9,0l0.1,0c1.1-0.8,2.4-1.4,4-1.8c0.2-0.1,0.4,0,0.6,0.1
		c0.1,0.1,0.2,0.3,0.2,0.4c0.3-0.2,0.6-0.3,0.9-0.5c1.2-0.5,2.6-0.8,4.2-1c0.2,0,0.4,0.1,0.5,0.2c0.1,0.1,0.2,0.2,0.2,0.4
		c0.4-0.2,0.9-0.3,1.4-0.4c1.3-0.3,2.7-0.3,4.3-0.1c0.2,0,0.4,0.2,0.5,0.4c0,0.1,0,0.1,0.1,0.2c0.4-0.1,0.9-0.1,1.4-0.1
		c1.3,0,2.7,0.3,4.3,0.8C47.5,22.2,47.7,22.4,47.7,22.6C47.7,22.6,47.7,22.6,47.7,22.6"/>
	<path class="st0" d="M39.5,15.5c5.5-0.9,6.1,0.7,6.1,0.7s0.1,0.4,0.6,0.2c0,0,0.4,0,0.2-0.5c0,0-0.6-1.8-3.5-2.1
		c0,0-1.5-0.2-3.1,0.1c-0.5,0.1-0.6,1.2-0.6,1.2C39,15.6,39.5,15.5,39.5,15.5"/>
	<path class="st0" d="M34.9,16.6c-0.7-0.3-2.2-0.2-2.2-0.2c-2.5,0.1-3.1,1.6-3.1,1.6c-0.2,0.5,0.2,0.6,0.2,0.6
		c0.5,0.1,0.7-0.3,0.7-0.3s0.1-0.4,1.2-0.7c-0.1,0.1-0.1,0.3-0.1,0.5c0,0.7,0.6,1.3,1.3,1.3c0.7,0,1.3-0.6,1.3-1.3
		c0-0.2,0-0.3-0.1-0.5c0.3,0.1,0.7,0.4,0.9,0.8c0.1,0.2,0.3,0.3,0.8,0.3c0.5,0,0.4-0.3,0.4-0.3C35.7,17,34.9,16.6,34.9,16.6"/>
	<path class="st0" d="M39.4,18.6c0.5,0,0.7-0.1,0.7-0.3c0.2-0.4,0.6-0.7,0.9-0.8C41,17.7,41,17.8,41,18c0,0.7,0.6,1.3,1.3,1.3
		c0.7,0,1.3-0.6,1.3-1.3c0-0.2,0-0.3-0.1-0.5c1,0.3,1.2,0.7,1.2,0.7s0.2,0.4,0.7,0.3c0,0,0.4,0,0.2-0.6c0,0-0.6-1.5-3.1-1.6
		c0,0-1.5-0.1-2.2,0.2c0,0-0.8,0.4-1.1,1.7C39,18.3,38.9,18.6,39.4,18.6"/>
	<path class="st0" d="M28.8,16.5c0.4,0.1,0.6-0.2,0.6-0.2s0.6-1.6,6.1-0.7c0,0,0.5,0.1,0.4-0.4c0,0-0.1-1.1-0.6-1.2
		c-1.6-0.3-3.1-0.1-3.1-0.1c-2.9,0.3-3.5,2.1-3.5,2.1C28.5,16.4,28.8,16.5,28.8,16.5"/>
	<path class="st4" d="M61.7,102.1c-0.9-0.1-2.2-0.1-3.8,0.5c-0.2,0.1-0.4,0-0.5-0.1c-0.1-0.1-0.2-0.3-0.1-0.5c0,0,0.5-1.2,0.6-2.4
		c0,0,0,0,0,0c0,0,0,0,0,0c-0.4,0.4-0.9,0.8-1.2,1.2c-1.2,1.3-1.7,2.8-1.6,4.2c0,0,0,0,0,0c0.2,0,0.4,0.1,0.8,0.1
		c0.3,0,0.7,0,1.1-0.1C58,104.7,59.7,104,61.7,102.1C61.7,102.1,61.7,102.1,61.7,102.1C61.7,102.1,61.7,102.1,61.7,102.1"/>
	<path class="st4" d="M17.3,99.5C17.3,99.5,17.3,99.5,17.3,99.5C17.3,99.5,17.3,99.5,17.3,99.5c0,1.3,0.5,2.4,0.5,2.4
		c0.1,0.2,0,0.4-0.1,0.5c-0.1,0.1-0.3,0.2-0.5,0.1c-1.6-0.6-3-0.6-3.8-0.5c0,0,0,0,0,0c0,0,0,0,0,0c1.6,1.5,3.3,2.5,4.9,2.8
		c0.4,0.1,0.8,0.1,1.1,0.1c0.4,0,0.6,0,0.7-0.1c0,0,0,0,0,0C20.3,102.4,18.4,100.4,17.3,99.5"/>
	<path class="st4" d="M65.3,97.3c-0.9,0.1-2.2,0.3-3.7,1.2c-0.2,0.1-0.4,0.1-0.5,0c-0.2-0.1-0.2-0.3-0.2-0.5c0,0,0.2-1.2,0.1-2.5
		c0,0,0,0,0,0c0,0,0,0,0,0c-0.4,0.4-0.7,0.9-1,1.3c-0.9,1.5-1.4,2.9-1.3,4.3c0,0,0,0,0,0c0.1,0,0.1,0,0.2,0c0.4,0,1.1-0.1,1.8-0.3
		c0.8-0.3,1.6-0.7,2.4-1.3C64,99,64.7,98.2,65.3,97.3C65.3,97.3,65.3,97.3,65.3,97.3C65.3,97.3,65.3,97.3,65.3,97.3"/>
	<path class="st4" d="M68.2,92.4c-0.9,0.2-2.2,0.5-3.5,1.6c-0.2,0.1-0.4,0.1-0.5,0c-0.2-0.1-0.3-0.3-0.2-0.5c0,0,0.1-1.3-0.1-2.5
		c0,0,0,0,0,0c0,0,0,0,0,0c-0.3,0.5-0.6,0.9-0.8,1.4c-0.8,1.5-1,3-0.8,4.4c0,0,0,0,0,0l0,0c0.3,0,1.1-0.1,2-0.5
		c0.8-0.3,1.5-0.9,2.2-1.5C67.1,94.2,67.7,93.4,68.2,92.4C68.3,92.4,68.3,92.4,68.2,92.4C68.2,92.4,68.2,92.4,68.2,92.4"/>
	<path class="st4" d="M70.6,87c-0.2,0-0.3,0.1-0.5,0.1c-0.7,0.2-1.8,0.8-2.8,1.9c-0.1,0.1-0.3,0.2-0.5,0.1c-0.2-0.1-0.3-0.2-0.3-0.4
		c0,0-0.1-1.3-0.4-2.5c0,0,0,0,0,0c0,0,0,0,0,0c-0.3,0.5-0.5,0.9-0.7,1.4c-0.6,1.6-0.7,3.1-0.3,4.5c0,0,0,0,0,0l0,0
		c0.4-0.1,1.1-0.2,1.9-0.7c0.7-0.4,1.4-1,2-1.8C69.6,89,70.2,88.1,70.6,87C70.6,87,70.6,87,70.6,87C70.6,87,70.6,87,70.6,87"/>
	<path class="st4" d="M72.3,81.6c-0.8,0.3-2,1-3.1,2.3c-0.1,0.1-0.3,0.2-0.5,0.2c-0.2-0.1-0.3-0.2-0.3-0.4c0-0.1-0.2-1.4-0.7-2.5
		c0,0,0,0,0,0c0,0,0,0,0,0c-0.2,0.5-0.4,1.1-0.5,1.6c-0.3,1.2-0.5,2.9,0.2,4.6c0,0,0,0,0,0s0,0,0,0c0.3-0.1,1-0.3,1.9-0.9
		c0.7-0.5,1.3-1.2,1.8-2C71.6,83.6,72,82.7,72.3,81.6C72.3,81.6,72.3,81.6,72.3,81.6C72.3,81.6,72.3,81.6,72.3,81.6"/>
	<path class="st4" d="M73.4,75.9c-0.8,0.4-1.9,1.2-2.8,2.7c-0.1,0.2-0.3,0.2-0.5,0.2c-0.2,0-0.3-0.2-0.4-0.4c0,0-0.4-1.4-1-2.5
		c0,0,0,0,0,0c0,0,0,0,0,0c-0.2,0.5-0.3,1.1-0.3,1.6c-0.2,1.7,0.1,3.3,0.8,4.6c0,0,0,0,0,0s0,0,0,0c0.3-0.1,1-0.5,1.7-1.1
		c0.6-0.6,1.2-1.3,1.6-2.2C72.9,78,73.3,77,73.4,75.9C73.5,75.9,73.4,75.9,73.4,75.9C73.4,75.9,73.4,75.9,73.4,75.9"/>
	<path class="st4" d="M71.5,73.1c-0.1,0.2-0.3,0.3-0.5,0.3c-0.2,0-0.4-0.1-0.4-0.3c0,0-0.4-1.3-1.2-2.3c0,0,0,0,0,0c0,0,0,0,0,0
		c-0.1,0.5-0.2,1.1-0.2,1.6c0,1.7,0.4,3.2,1.3,4.4c0,0,0,0,0,0s0,0,0,0c0.3-0.1,0.9-0.6,1.6-1.3c0.6-0.7,1-1.4,1.3-2.3
		c0.3-0.9,0.5-1.9,0.6-3c0,0,0,0,0,0c0,0,0,0,0,0C73.2,70.7,72.2,71.6,71.5,73.1"/>
	<path class="st4" d="M71.3,67.9c-0.2,0-0.4-0.1-0.5-0.3c0,0-0.6-1.1-1.4-2c0,0,0,0,0,0c0,0,0,0,0,0c0,1.4,0.1,4,1.7,5.8
		c0,0,0,0,0,0s0,0,0,0c0.2-0.2,0.9-0.6,1.4-1.5c0.5-0.7,0.9-1.5,1.1-2.4c0.2-0.9,0.3-1.9,0.3-3c0,0,0,0,0,0c0,0,0,0,0,0
		c-0.7,0.6-1.6,1.6-2.1,3.2C71.6,67.8,71.4,67.9,71.3,67.9"/>
	<path class="st4" d="M71,62.4c-0.2,0-0.4-0.1-0.5-0.2c0,0-0.6-1-1.5-1.8c0,0,0,0,0,0c0,0,0,0,0,0c0.1,1.5,0.6,4.3,2.1,5.6
		c0,0,0,0,0,0s0,0,0,0c0.2-0.2,0.8-0.7,1.3-1.6c0.4-0.7,0.7-1.6,0.8-2.5c0.1-0.9,0.1-2,0-3c0,0,0,0,0,0c0,0,0,0,0,0
		c-0.6,0.6-1.4,1.7-1.8,3.4C71.3,62.2,71.2,62.3,71,62.4"/>
	<path class="st4" d="M70.3,57c-0.2,0-0.4,0-0.5-0.2c0,0-0.7-1-1.7-1.8c0,0,0,0,0,0c0,0,0,0,0,0c0.1,0.6,0.2,1.1,0.3,1.6
		c0.3,1.2,0.9,2.8,2.2,3.9c0,0,0,0,0,0s0,0,0,0c0.2-0.2,0.8-0.8,1.2-1.7c0.4-0.8,0.6-1.6,0.7-2.6c0.1-0.9,0-2-0.1-3c0,0,0,0,0,0
		c0,0,0,0,0,0c-0.6,0.7-1.3,1.8-1.7,3.4C70.6,56.8,70.4,56.9,70.3,57"/>
	<path class="st4" d="M69,51.6c-0.2,0.1-0.4,0-0.5-0.1c0,0-0.9-0.9-1.9-1.6c0,0,0,0,0,0c0,0,0,0,0,0c0.1,0.5,0.3,1.1,0.5,1.5
		c0.6,1.6,1.6,2.8,2.8,3.6c0,0,0,0,0,0s0,0,0,0c0.2-0.2,0.7-0.9,1-1.8c0.3-0.8,0.4-1.7,0.4-2.7c0-0.9-0.2-2-0.6-3c0,0,0,0,0,0
		c0,0,0,0,0,0c-0.5,0.7-1.1,2-1.2,3.6C69.4,51.4,69.2,51.6,69,51.6"/>
	<path class="st4" d="M66.7,46.3c0,0-1-0.9-2.1-1.4c0,0,0,0,0,0c0,0,0,0,0,0c0.2,0.5,0.4,1,0.6,1.5c0.8,1.5,1.8,2.6,3.1,3.3
		c0,0,0,0,0,0c0,0,0,0,0,0c0.2-0.2,0.6-0.9,0.8-1.9c0.2-0.8,0.2-1.7,0.1-2.7c-0.1-0.9-0.4-1.9-0.9-2.9c0,0,0,0,0,0c0,0,0,0,0,0
		c-0.4,0.8-0.9,2.1-0.8,3.7c0,0.2-0.1,0.4-0.3,0.4C67,46.5,66.8,46.4,66.7,46.3"/>
	<path class="st4" d="M62,40.3C61.9,40.3,61.9,40.3,62,40.3c0.2,0.5,0.5,1,0.8,1.5c0.9,1.4,2.1,2.4,3.6,2.9l0,0c0,0,0,0,0,0
		c0.1-0.3,0.5-1,0.6-2c0.1-0.9,0-1.7-0.2-2.7c-0.2-0.9-0.6-1.9-1.2-2.8c0,0,0,0,0,0s0,0,0,0c-0.3,0.8-0.6,2.1-0.3,3.8
		c0,0.2-0.1,0.4-0.2,0.5c-0.2,0.1-0.4,0.1-0.5,0C64.3,41.4,63.2,40.6,62,40.3C62,40.2,62,40.2,62,40.3"/>
	<path class="st4" d="M58.8,36.1C58.8,36.1,58.8,36.1,58.8,36.1c0.3,0.5,0.7,1,1.1,1.4c1.2,1.3,2.5,2,3.9,2.3h0c0,0,0,0,0,0
		c0.1-0.3,0.3-1.1,0.2-2c-0.1-0.9-0.3-1.7-0.7-2.6c-0.4-0.8-0.9-1.7-1.6-2.5c0,0,0,0,0,0c0,0,0,0,0,0c-0.1,0.9-0.2,2.3,0.2,3.8
		c0.1,0.2,0,0.4-0.2,0.5c-0.2,0.1-0.4,0.1-0.5,0C61.3,36.9,60.2,36.2,58.8,36.1C58.8,36.1,58.8,36.1,58.8,36.1"/>
	<path class="st4" d="M58.2,32.7c-0.1,0.1-0.3,0.2-0.5,0.1c0,0-1.1-0.4-2.3-0.4c-0.1,0-0.1,0-0.2,0c0,0,0,0,0,0c0,0,0,0,0,0
		c0.4,0.5,0.9,0.9,1.4,1.2c1,0.7,2.4,1.6,4,1.6c0,0,0.1,0,0.1,0c0,0,0.1,0,0.1,0c0-0.3,0.1-1.1-0.1-2.1c-0.2-0.8-0.6-1.7-1.1-2.5
		c-0.5-0.8-1.2-1.5-2-2.3c0,0,0,0,0,0c0,0,0,0,0,0c0,0.9,0.1,2.2,0.9,3.7C58.4,32.4,58.4,32.6,58.2,32.7"/>
	<path class="st4" d="M16.2,101.2c0.1,0,0.2,0,0.2,0c0,0,0,0,0,0c0.1-2.3-1.4-4.5-2.3-5.6c0,0,0,0,0,0c0,0,0,0,0,0
		C14,96.8,14.2,98,14.2,98c0,0.2,0,0.4-0.2,0.5c-0.2,0.1-0.4,0.1-0.5,0c-1.4-0.9-2.8-1.2-3.7-1.2c0,0,0,0,0,0c0,0,0,0,0,0
		c0.6,0.9,1.4,1.6,2.1,2.2c0.8,0.6,1.6,1,2.4,1.3C15.1,101.1,15.7,101.2,16.2,101.2"/>
	<path class="st4" d="M13,96.9L13,96.9C13,96.9,13,96.9,13,96.9c0.3-1.7-0.2-3.3-0.8-4.4c-0.2-0.5-0.5-1-0.8-1.4c0,0,0,0,0,0
		c0,0,0,0,0,0c-0.3,1.2-0.1,2.4-0.1,2.5c0,0.2-0.1,0.4-0.2,0.5c-0.2,0.1-0.4,0.1-0.5,0c-1.3-1.1-2.6-1.5-3.5-1.6c0,0,0,0,0,0
		c0,0,0,0,0,0c0.6,0.9,1.2,1.8,1.9,2.4c0.7,0.7,1.4,1.2,2.2,1.5C11.9,96.8,12.6,96.9,13,96.9"/>
	<path class="st4" d="M10.1,92.3L10.1,92.3C10.1,92.3,10.1,92.3,10.1,92.3c0.5-1.4,0.4-2.9-0.2-4.5c-0.2-0.5-0.4-1-0.7-1.5
		c0,0,0,0,0,0c0,0,0,0,0,0c-0.4,1.2-0.4,2.5-0.4,2.5c0,0.2-0.1,0.4-0.3,0.4c-0.2,0.1-0.4,0-0.5-0.1c-1-1-2.1-1.6-2.8-1.8
		c-0.2-0.1-0.3-0.1-0.5-0.2c0,0,0,0,0,0c0,0,0,0,0,0c0.4,1,1,1.9,1.6,2.6c0.6,0.7,1.3,1.3,2,1.8C9,92.1,9.8,92.3,10.1,92.3"/>
	<path class="st4" d="M7.7,87.4C7.7,87.4,7.7,87.4,7.7,87.4C7.7,87.4,7.7,87.4,7.7,87.4c1.1-2.5,0.4-4.9-0.2-6.1c0,0,0,0,0,0h0
		c0,0,0,0,0,0c-0.5,1.1-0.7,2.4-0.7,2.5c0,0.2-0.2,0.3-0.3,0.4c-0.2,0-0.4,0-0.5-0.2C5,82.8,4,82.2,3.3,81.8
		c-0.2-0.1-0.3-0.1-0.5-0.2c0,0,0,0,0,0c0,0,0,0,0,0C4.1,86,6.6,87.1,7.7,87.4"/>
	<path class="st4" d="M4.1,81.2c0.8,0.7,1.5,1,1.8,1.1c0,0,0,0,0,0c0,0,0,0,0,0c0.9-1.5,1.1-3,0.8-4.7c-0.1-0.5-0.3-1-0.5-1.5
		c0,0,0,0,0,0c0,0,0,0,0,0c-0.6,1.1-1,2.4-1,2.5l0,0l0,0c0,0.2-0.2,0.3-0.4,0.4c-0.2,0-0.4,0-0.5-0.2c-1-1.4-2.1-2.2-2.9-2.6
		c0,0,0,0,0,0c0,0,0,0,0,0c0.2,1.1,0.6,2,1,2.9C2.9,79.9,3.5,80.6,4.1,81.2"/>
	<path class="st4" d="M4.4,77C4.4,77,4.5,77,4.4,77C4.5,77,4.5,77,4.4,77c1.8-2.4,1.6-4.8,1.4-6c0,0,0,0,0,0c0,0,0,0,0,0
		c-0.8,1-1.3,2.2-1.4,2.2c-0.1,0.2-0.2,0.3-0.4,0.3h0c-0.2,0-0.4-0.1-0.4-0.3c-0.6-1.3-1.4-2.2-2-2.7c-0.1-0.1-0.3-0.2-0.4-0.3
		c0,0,0,0,0,0c0,0,0,0,0,0C1.3,74.7,3.5,76.5,4.4,77"/>
	<path class="st4" d="M4,71.6C4,71.6,4,71.6,4,71.6C4,71.6,4,71.6,4,71.6c0.9-0.8,1.5-1.9,1.7-3.2c0.2-1.1,0.1-2.1,0-2.8
		c0,0,0,0,0,0c0,0,0,0,0,0c-1,0.9-1.2,2.1-1.2,2.1c0,0.2-0.2,0.4-0.4,0.4c-0.2,0-0.4-0.1-0.5-0.3c-0.4-1.4-1.2-2.3-1.7-2.9
		c-0.1-0.1-0.2-0.2-0.4-0.4c0,0,0,0,0,0c0,0,0,0,0,0C1.1,69,3.1,71,4,71.6"/>
	<path class="st4" d="M2.7,64.3c0.5,0.9,1.1,1.4,1.3,1.6c0,0,0,0,0,0s0,0,0,0c1-1,1.7-2.3,2-4c0.1-0.5,0.1-1.1,0.1-1.7c0,0,0,0,0,0
		c0,0,0,0,0,0c-1,0.8-1.5,1.9-1.5,1.9c-0.1,0.2-0.3,0.3-0.5,0.3c-0.2,0-0.4-0.2-0.4-0.4c-0.4-1.6-1.2-2.7-1.8-3.4c0,0,0,0,0,0
		c0,0,0,0,0,0c-0.1,1.1-0.1,2.1,0,3C2,62.7,2.3,63.5,2.7,64.3"/>
	<path class="st4" d="M3.3,58.7c0.4,0.9,0.9,1.4,1.2,1.6c0,0,0,0,0,0c0,0,0,0,0,0c1.2-1.1,2-2.4,2.4-4c0.1-0.5,0.2-1,0.2-1.5
		c0,0,0,0,0,0c0,0,0,0,0,0c-1,0.8-1.7,1.8-1.8,1.9c-0.1,0.2-0.3,0.2-0.5,0.2c-0.2,0-0.3-0.2-0.4-0.4c-0.3-1.6-1.1-2.8-1.7-3.4
		c0,0,0,0,0,0c0,0,0,0,0,0c-0.2,1.1-0.2,2.1-0.1,3C2.6,57.1,2.9,57.9,3.3,58.7"/>
	<path class="st4" d="M5.2,55C5.2,55,5.2,55,5.2,55C5.2,55,5.2,55,5.2,55c1.5-0.9,2.5-2.1,3-3.7c0.2-0.5,0.3-1,0.3-1.5c0,0,0,0,0,0
		c0,0,0,0,0,0c-1.2,0.7-2,1.7-2,1.7c-0.1,0.1-0.3,0.2-0.5,0.1c-0.2-0.1-0.3-0.2-0.3-0.4c-0.1-1.7-0.7-2.9-1.2-3.6c0,0,0,0,0,0
		c0,0,0,0,0,0c-0.3,1.1-0.5,2.1-0.5,3c0,1,0.1,1.8,0.4,2.6C4.5,54.1,5,54.7,5.2,55"/>
	<path class="st4" d="M6.6,49.7C6.6,49.7,6.6,49.7,6.6,49.7C6.6,49.7,6.6,49.7,6.6,49.7c1.6-0.7,2.7-1.9,3.4-3.3
		c0.2-0.4,0.4-0.9,0.5-1.4c0,0,0,0,0,0c0,0,0,0,0,0c-1.2,0.5-2.2,1.4-2.2,1.4c-0.1,0.1-0.3,0.2-0.5,0.1c-0.2-0.1-0.3-0.3-0.3-0.4
		c0.1-1.7-0.4-3-0.8-3.8c0,0,0,0,0,0c0,0,0,0,0,0c-0.5,1-0.8,2-0.9,2.9c-0.1,0.9-0.1,1.8,0.1,2.7C6,48.7,6.4,49.4,6.6,49.7"/>
	<path class="st4" d="M8.6,44.6C8.6,44.7,8.6,44.7,8.6,44.6L8.6,44.6c1.4-0.4,2.6-1.3,3.7-2.7c0.4-0.6,0.7-1.2,0.9-1.6c0,0,0,0,0,0
		c0,0,0,0,0,0c-1.4,0.2-2.3,1.1-2.3,1.1c-0.2,0.1-0.4,0.2-0.6,0.1C10.1,41.5,10,41.3,10,41c0.3-1.7,0.1-3-0.2-3.8c0,0,0,0,0,0
		c0,0,0,0,0,0c-0.6,0.9-1,1.9-1.3,2.8c-0.3,0.9-0.4,1.8-0.3,2.7C8.2,43.6,8.5,44.4,8.6,44.6"/>
	<path class="st4" d="M11.4,39.8L11.4,39.8c2.3-0.4,4.1-2.5,4.9-3.7c0,0,0,0,0,0c0,0,0,0,0,0c-1.3,0.1-2.4,0.8-2.4,0.8
		c-0.2,0.1-0.4,0.1-0.6,0c-0.2-0.1-0.2-0.3-0.2-0.5c0.5-1.6,0.4-3,0.3-3.8c0,0,0,0,0,0c0,0,0,0,0,0C10.5,36,11,38.8,11.4,39.8
		C11.3,39.8,11.3,39.8,11.4,39.8"/>
	<path class="st4" d="M14.6,35.3c0,0,0.1,0,0.2,0c1.4,0,2.8-0.9,3.8-1.6c0.5-0.4,0.9-0.8,1.4-1.2c0,0,0,0,0,0c0,0,0,0,0,0
		c-1.2,0-2.4,0.4-2.4,0.4c-0.2,0.1-0.4,0-0.5-0.1c-0.1-0.1-0.2-0.4-0.1-0.5c0.8-1.5,0.9-2.8,0.9-3.7c0,0,0,0,0,0c0,0,0,0,0,0
		c-0.8,0.7-1.5,1.5-2,2.3c-0.5,0.8-0.9,1.6-1.1,2.5C14.4,34.2,14.5,35,14.6,35.3C14.6,35.3,14.6,35.3,14.6,35.3"/>
	<path class="st4" d="M24.1,29.2c-1.2-0.1-2.4,0.1-2.4,0.1c-0.2,0-0.4,0-0.5-0.2c-0.1-0.2-0.1-0.4,0-0.5c0.9-1.4,1.2-2.8,1.2-3.6
		c0,0,0,0,0,0c0,0,0,0,0,0c-3.7,2.6-3.9,5.4-3.9,6.5c0,0,0,0,0,0c0.1,0,0.2,0,0.2,0C21,31.5,23.1,30.1,24.1,29.2
		C24.2,29.3,24.2,29.3,24.1,29.2C24.2,29.2,24.2,29.2,24.1,29.2"/>
	<path class="st4" d="M28.8,27c-0.4-0.1-0.8-0.2-1.3-0.3c-0.7-0.1-1.2-0.1-1.2-0.1h0c-0.2,0-0.4-0.1-0.4-0.3c-0.1-0.2,0-0.4,0.1-0.5
		c1.3-1.1,1.9-2.1,2.1-2.7c0,0,0,0,0,0c0,0,0,0,0,0c-4.3,1.4-5.2,3.9-5.4,4.9c0,0,0,0,0,0c0.4,0.1,1,0.2,1.7,0.2
		c0.8,0,1.7-0.1,2.9-0.5C27.8,27.5,28.3,27.3,28.8,27C28.8,27,28.8,27,28.8,27C28.8,27,28.8,27,28.8,27"/>
	<path class="st4" d="M33.9,25.6c-1.1-0.6-2.4-0.8-2.4-0.8c-0.2,0-0.4-0.2-0.4-0.4c0-0.2,0.1-0.4,0.3-0.5c1.4-0.7,2.1-1.4,2.4-1.9
		c0,0,0,0,0,0c0,0,0,0,0,0c-2.2,0.3-3.9,1-5,2.1c-0.6,0.6-0.9,1.1-1,1.5c0,0,0,0,0,0c0.9,0.4,1.9,0.6,2.8,0.6c0.6,0,1.2-0.1,1.6-0.1
		C32.9,26,33.4,25.8,33.9,25.6C33.9,25.7,33.9,25.7,33.9,25.6C33.9,25.6,33.9,25.6,33.9,25.6"/>
	<path class="st4" d="M37.2,24.2c-0.2-0.1-0.3-0.3-0.3-0.5c0-0.2,0.1-0.4,0.3-0.4c1.4-0.4,2.2-0.9,2.7-1.3c0,0,0,0,0,0c0,0,0,0,0,0
		c-2.1-0.1-3.9,0.2-5.2,1c-0.7,0.4-1.1,0.9-1.3,1.2c0,0,0,0,0,0c1.4,1.1,3.3,1.4,4.8,1.4c0.4,0,0.8,0,1.2-0.1c0,0,0,0,0,0
		c0,0,0,0,0,0C38.4,24.6,37.2,24.2,37.2,24.2"/>
	<path class="st4" d="M42.8,24.5c-0.2-0.1-0.2-0.3-0.2-0.5c0-0.2,0.2-0.3,0.4-0.4c1.4-0.2,2.3-0.5,2.9-0.8c0,0,0,0,0,0c0,0,0,0,0,0
		c-2-0.6-3.9-0.6-5.3,0c-0.8,0.3-1.2,0.7-1.5,0.9c0,0,0,0,0,0c1.8,2.1,4.3,2.5,5.6,2.5l0,0c0,0,0,0,0,0c0,0,0,0,0,0
		C43.9,25.3,42.8,24.6,42.8,24.5"/>
	<path class="st4" d="M56.7,31.5C56.7,31.5,56.7,31.5,56.7,31.5c0-0.5,0-1.4-0.4-2.3c-0.6-1.6-1.9-2.8-3.9-3.4c0,0,0,0,0,0
		c0,0,0,0,0,0c0.3,0.8,0.7,1.9,1.5,2.8c0.1,0.2,0.1,0.4,0,0.6c-0.1,0.2-0.3,0.3-0.5,0.2c0,0-1.2-0.3-2.4,0c0,0,0,0,0,0c0,0,0,0,0,0
		c1.2,0.8,3.5,2.1,5.4,2.1C56.5,31.5,56.6,31.5,56.7,31.5"/>
	<path class="st4" d="M52.3,28C52.3,28,52.3,28,52.3,28c-1.1-1.2-2.4-1.7-4-1.6c-0.6,0-1.2,0.1-1.7,0.3c0,0,0,0,0,0c0,0,0,0,0,0
		c1.3,1,2.6,1.5,4,1.5c0.1,0,0.1,0,0.2,0C51.4,28.3,51.9,28.2,52.3,28C52.2,28.1,52.3,28.1,52.3,28"/>
	<path class="st4" d="M44.4,24.6C44.4,24.6,44.4,24.6,44.4,24.6c0.8,0.6,1.8,0.9,3,0.9c0.5,0,1-0.1,1.5-0.2c0.9-0.2,1.6-0.4,2.1-0.6
		c0,0,0,0,0,0c0,0,0,0,0,0c-0.8-0.4-1.6-0.7-2.4-0.9c-0.8-0.1-1.7-0.1-2.5,0.1C45.4,24.1,44.8,24.4,44.4,24.6
		C44.5,24.6,44.4,24.6,44.4,24.6"/>
	<path class="st5" d="M28.6,55.6c0.3,0.3,0.7,0.5,1.3,0.5h6.2c-3.7-2.3-5.1-1.9-7.6-0.7C28.5,55.5,28.5,55.6,28.6,55.6"/>
	<path class="st5" d="M43.6,52.8c-0.6-0.2-1.1-0.3-1.6-0.5c-1.9-0.8-3.5-2-3.6-2.1c-0.4-0.3-0.5-0.9-0.1-1.3
		c0.3-0.4,0.9-0.5,1.3-0.1c0,0,1.5,1.1,3.1,1.8c0.4,0.2,0.9,0.3,1.4,0.4c0.8,0.2,1.7,0.4,2.5,0.9c-0.2-1-0.3-1.9-0.5-2.7
		c-2.5-0.6-4.5-2.2-4.6-2.3c-0.2-0.2-0.3-0.4-0.3-0.6c0-0.2,0-0.5,0.2-0.7c0.3-0.4,0.9-0.4,1.3-0.1c0,0,1.3,1.1,3,1.7
		c-0.7-2.4-1.5-4.8-2.7-7c-0.8-1.6-2.1-2.7-3.7-3.2c-1.2-0.4-2.1-0.3-2.1-0.3c0,0-0.1,0-0.1,0c0,0-3,0-4.9,2.2c0,0,0,0,0,0
		c-0.3,0.4-1.3,1.4-1.4,2.3c-0.1,0.5,0,0.8,0.3,1c0.1,0.1,0.6,0.3,1.4-0.3c0.2-0.2,0.3-0.3,0.4-0.3c0.4-0.3,0.9-0.2,1.2,0.2
		c0.3,0.4,0.2,0.9-0.1,1.2c-0.1,0.1-0.2,0.2-0.4,0.3c-0.4,0.3-1.1,1-2,2.1c-1.1,1.5-2.6,4.1-3.4,7.9c0,0.1,0,0.1,0,0.2
		c2.6-1.1,4.6-1.6,9.2,1.4c1.8,1.2,3.9,1.2,4.2,1.2h2c0,0,0,0,0.1,0c0.5,0,2,0,2.7-0.8c0.1-0.1,0.2-0.3,0.3-0.4
		C46.7,53.8,45.8,53.4,43.6,52.8"/>
	<path class="st6" d="M34.7,88.1c0.2-0.2,0.5-0.5,0.5-0.7c0-0.1-0.1-0.2-0.2-0.4c-0.2-0.2-0.4-0.3-0.6-0.3c-0.5,0-1,0.3-1.8,0.9
		c-0.5,0.4-1.4,1.1-1.3,1.7c0,0.3,0.1,0.4,0.2,0.4c0.4,0.3,1.3,0.2,1.6,0.1C33.4,89.3,33.9,88.7,34.7,88.1"/>
	<path class="st6" d="M37.9,89.2c0,0,0-0.2-0.2-0.5c0,0-0.4-0.3-1.3,0.2c-0.7,0.4-1.4,0.9-1.8,1.6c0.2,0.2,0.4,0.2,0.5,0.3
		c0.7,0.1,1.8-0.5,2.1-0.7c0,0,0,0,0.1,0C37.4,89.9,37.8,89.6,37.9,89.2"/>
	<path class="st6" d="M28.3,84.9c-0.1,0-0.1,0-0.2,0c-0.7,0-1.6,0.5-2,1c-0.3,0.4-0.2,0.6-0.2,0.7c0.1,0.1,0.3,0.3,0.8,0.4
		c0.1,0,0.2,0,0.3,0c0.2-0.7,0.7-1.3,1.2-1.7c0.1-0.1,0.3-0.2,0.4-0.3C28.5,84.9,28.4,84.9,28.3,84.9C28.3,84.9,28.3,84.9,28.3,84.9
		"/>
	<path class="st6" d="M28.6,87.7c0,0.1,0,0.5,0.8,0.8c0.1,0,0.2,0.1,0.4,0.1c0.2-0.8,0.9-1.5,1.9-2.2c0.1-0.1,0.3-0.2,0.4-0.3
		c0-0.1,0-0.1,0-0.1c0-0.1-0.2-0.3-0.4-0.4c-0.2-0.1-0.3-0.1-0.5-0.1c-0.5,0-1.1,0.3-1.8,1C28.8,87,28.6,87.3,28.6,87.7"/>
	<path class="st6" d="M48,86.2c0.5,0,0.8-0.1,1-0.3c0.2-0.2,0.3-0.5,0.4-0.7c-0.5-0.6-2-2.4-4.1-3.7c-0.9-0.6-1.8-1.1-2.8-1.5
		c-1.1-0.4-2-0.5-2.8-0.3c0,0,0,0,0,0c-0.2,0.1-0.6,0.3-1,0.5c-0.3,0.2-0.5,0.4-0.9,0.6c-0.9,0.5-2.2,0.9-3.2,1
		c-0.9,0.1-2.1,0.1-2.8-0.9c-0.5-0.7-0.6-1.2-0.3-1.9c0.2-0.6,1-1,1.9-1.4c0.4-0.2,0.8-0.4,1.1-0.6c0.4-0.3,0.7-0.5,1-0.8
		c0.3-0.3,0.7-0.6,1.3-1c0.3-0.2,0.5-0.3,0.8-0.5c-0.3,0-0.6-0.1-1-0.1c-1.5-0.1-2.5,0.4-4.1,1.5c-1.4,0.9-4,1.7-8.1,2.6
		c-3.9,0.8-9.2,1.6-15.9,2.3c0.2,0.7,0.4,1.5,0.6,2.2c0.8,2.6,1.9,5.2,3.1,7.5c2.4-1,8.2-3.7,12.7-6.1c0.9-0.9,2.3-1.3,3.3-1.2
		c0.2,0,1.1,0.1,1.7,0.7c0.7-0.2,1.5-0.2,2.1,0.1c0.7,0.4,1.1,0.8,1.2,1.2l0,0c0.9-0.3,1.8-0.1,2.5,0.5c0.4,0.4,0.7,0.8,0.8,1.3
		c0.9-0.1,1.6,0.2,1.9,0.5c0.7,0.7,0.8,1.3,0.7,1.8c0,0.3-0.2,0.6-0.4,1c0.4,0.1,0.9,0,1.3-0.2c0.1-0.1,0.3-0.1,0.4-0.2
		c-0.2-0.4-0.5-1-1.1-1.6c-0.1-0.2-0.2-0.4-0.2-0.6c0-0.2,0.1-0.4,0.3-0.5c0.3-0.3,0.8-0.3,1.1,0.1c0.8,0.9,1.2,1.7,1.4,2.2
		c0.4,0.1,0.8-0.1,1.1-0.3c0.2-0.2,0.3-0.4,0.4-0.5c-0.1-0.2-0.3-0.6-0.8-1.2c-0.4-0.5-1.5-1.3-1.8-1.5c-0.2-0.1-0.3-0.3-0.3-0.5
		c0-0.2,0-0.4,0.1-0.6c0.1-0.2,0.3-0.3,0.5-0.3c0.2,0,0.4,0,0.6,0.1c0.1,0,1.4,1,2.1,1.8c0.5,0.6,0.9,1.1,1.1,1.5
		c0.6,0,1-0.2,1.3-0.5c0.1-0.1,0.2-0.2,0.2-0.4c-0.6-0.8-2.1-2.7-4-3.6c-0.2-0.1-0.3-0.3-0.4-0.5c-0.1-0.2-0.1-0.4,0-0.6
		c0.1-0.2,0.3-0.3,0.5-0.4c0.2-0.1,0.4-0.1,0.6,0C45.6,83.3,47.3,85.4,48,86.2"/>
	<path class="st6" d="M37.9,78.9c0.5-0.3,1-0.6,1.5-0.8c2.6-0.7,5.3,1.1,6.8,2c2,1.3,3.5,2.9,4.2,3.8c0,0,0.1,0.1,0.1,0.1l0,0
		c0,0,0,0,0,0c0.2,0.3,0.7,0.8,1.4,1.2c3.3,2.5,8.4,4.7,10.5,5.6c1.3-2.4,2.4-5,3.3-7.7c0.2-0.7,0.4-1.3,0.6-2
		c-4.2-0.3-8.7-1.2-11.7-1.9c-3.5-0.8-6.1-1.6-6.2-1.7c-0.7-0.2-1.3-0.5-1.9-0.7c-1.9-0.7-3.2-1.1-4.6-1.1c-0.2,0-0.3,0-0.5,0
		c-0.2,0-0.4,0-0.6,0h0c-1.3,0-2.2,0-3,0.6c-0.6,0.4-0.9,0.7-1.3,1c-0.3,0.3-0.7,0.6-1.2,0.9c-0.4,0.2-0.8,0.5-1.3,0.7
		c-0.3,0.2-1,0.5-1.1,0.6c0,0.1,0,0.2,0.1,0.4c0.2,0.3,0.7,0.3,1.4,0.2c0.7,0,1.7-0.3,2.5-0.8C37.4,79.2,37.6,79,37.9,78.9"/>
	<path class="st7" d="M112.6,103.1l-2-6.3c-0.1-0.2-0.3-0.4-0.5-0.4h-8.8c-0.2,0-0.4,0.1-0.5,0.4l-2.1,6.3c-0.1,0.2-0.3,0.4-0.5,0.4
		H95c-0.4,0-0.6-0.4-0.5-0.7l7.8-23.3c0.1-0.2,0.3-0.4,0.5-0.4h5.6c0.2,0,0.4,0.1,0.5,0.4l7.8,23.3c0.1,0.3-0.1,0.7-0.5,0.7H113
		C112.8,103.5,112.6,103.3,112.6,103.1 M102.7,92.9h5.8c0.4,0,0.6-0.3,0.5-0.7l-2.9-8.8c-0.2-0.5-0.8-0.5-1,0l-2.9,8.8
		C102.1,92.6,102.4,92.9,102.7,92.9"/>
	<path class="st7" d="M120,85.5h2.6c0.3,0,0.5,0.2,0.5,0.5l0.3,1.9h0.2c0.5-0.8,1.2-1.5,2.1-1.9c0.9-0.4,1.8-0.6,2.8-0.6
		c0.3,0,0.6,0,1,0.1c0.3,0,0.5,0.3,0.5,0.5v2.9c0,0.3-0.3,0.5-0.6,0.5c-0.3,0-0.7,0-1.1,0c-0.9,0-1.7,0.2-2.5,0.5
		c-0.8,0.3-1.4,0.8-1.8,1.3c-0.1,0.1-0.1,0.2-0.1,0.3v11.5c0,0.3-0.2,0.5-0.5,0.5H120c-0.3,0-0.5-0.2-0.5-0.5V86
		C119.5,85.7,119.7,85.5,120,85.5"/>
	<path class="st7" d="M135.2,110.8c-0.9-0.1-1.7-0.3-2.4-0.5c-0.2-0.1-0.4-0.3-0.4-0.5v-2.3c0-0.3,0.3-0.6,0.7-0.5
		c1.7,0.4,3.3,0.6,4.8,0.6c1.2,0,2.2-0.2,3-0.5c0.8-0.3,1.3-0.8,1.7-1.5c0.4-0.7,0.6-1.6,0.6-2.7v-1.4h-0.2c-0.6,0.6-1.2,1.2-2,1.5
		c-0.8,0.4-1.7,0.5-2.7,0.5c-1.3,0-2.4-0.3-3.5-0.9c-1-0.6-1.9-1.6-2.5-2.9c-0.6-1.3-0.9-3-0.9-4.9c0-3.2,0.8-5.6,2.5-7.2
		c1.6-1.6,4.1-2.4,7.3-2.5c1.1,0,2.2,0.1,3.3,0.2c1,0.1,1.9,0.3,2.7,0.6c0.2,0.1,0.4,0.3,0.4,0.5v15.6c0,2.1-0.3,3.8-1,5.1
		c-0.7,1.3-1.7,2.3-3.1,2.9c-1.4,0.6-3.1,0.9-5.2,0.9C137.1,111,136.2,111,135.2,110.8 M141.5,99.7c0.5-0.2,1-0.5,1.4-0.9
		c0.1-0.1,0.1-0.2,0.1-0.4v-9.1c0-0.3-0.2-0.5-0.4-0.5c-0.7-0.1-1.4-0.2-2-0.2c-1.7,0-3,0.5-3.8,1.4c-0.9,0.9-1.3,2.4-1.3,4.5
		c0,2.1,0.4,3.5,1.1,4.3c0.7,0.8,1.7,1.3,3.1,1.3C140.3,100.1,140.9,100,141.5,99.7"/>
	<path class="st7" d="M165.7,95.8h-10c-0.3,0-0.6,0.3-0.5,0.6c0.1,0.9,0.3,1.6,0.6,2.2c0.4,0.7,1,1.2,1.8,1.5
		c0.8,0.3,1.9,0.5,3.2,0.5c1.1,0,2.4-0.2,3.9-0.5c0.3-0.1,0.6,0.2,0.6,0.5v2.2c0,0.2-0.2,0.5-0.4,0.5c-1.6,0.4-3.1,0.5-4.7,0.5
		c-2.1,0-3.9-0.3-5.3-1c-1.4-0.6-2.4-1.7-3.1-3c-0.7-1.4-1-3.1-1-5.3c0-2,0.3-3.7,0.9-5.1c0.6-1.4,1.5-2.4,2.7-3.1
		c1.2-0.7,2.6-1,4.3-1c2.4,0,4.3,0.8,5.6,2.4c1.3,1.6,1.9,3.9,1.9,7v0.6C166.2,95.5,166,95.8,165.7,95.8 M156,89.2
		c-0.5,0.7-0.9,1.9-0.9,3.4c0,0.3,0.2,0.5,0.5,0.5h6c0.3,0,0.5-0.3,0.5-0.5c-0.1-1.6-0.4-2.7-0.9-3.4c-0.6-0.8-1.4-1.2-2.6-1.2
		C157.5,88,156.6,88.4,156,89.2"/>
	<path class="st7" d="M169.9,85.5h2.6c0.3,0,0.5,0.2,0.5,0.4l0.2,1.4h0.2c0.7-0.7,1.5-1.2,2.4-1.6c0.9-0.4,1.9-0.6,3-0.6
		c1.9,0,3.3,0.5,4.4,1.6c1.1,1.1,1.6,2.8,1.6,5.2v10.9c0,0.3-0.2,0.5-0.5,0.5h-3.3c-0.3,0-0.5-0.2-0.5-0.5V92.3
		c0-1.2-0.3-2.1-0.8-2.6c-0.5-0.5-1.2-0.8-2.2-0.8c-0.7,0-1.4,0.2-2.1,0.5c-0.6,0.3-1.2,0.7-1.6,1.2c-0.1,0.1-0.1,0.2-0.1,0.3v12
		c0,0.3-0.2,0.5-0.5,0.5h-3.3c-0.3,0-0.5-0.2-0.5-0.5V86C169.4,85.7,169.7,85.5,169.9,85.5"/>
	<path class="st7" d="M199.7,100.6v2.4c0,0.2-0.2,0.5-0.4,0.5c-0.9,0.2-1.8,0.3-2.7,0.3c-4.3,0-6.4-2.1-6.4-6.4v-7.9
		c0-0.3-0.2-0.5-0.5-0.5h-2c-0.3,0-0.5-0.2-0.5-0.5V86c0-0.3,0.2-0.5,0.5-0.5h2.1c0.3,0,0.5-0.2,0.5-0.5l0.6-5.5
		c0-0.3,0.3-0.5,0.5-0.5h2.6c0.3,0,0.5,0.2,0.5,0.5V85c0,0.3,0.2,0.5,0.5,0.5h4c0.3,0,0.5,0.2,0.5,0.5v2.4c0,0.3-0.2,0.5-0.5,0.5h-4
		c-0.3,0-0.5,0.2-0.5,0.5v7.2c0,0.9,0.1,1.6,0.3,2.1c0.2,0.5,0.6,0.9,1,1.1c0.5,0.2,1.1,0.3,1.8,0.3c0.4,0,0.9,0,1.4-0.1
		C199.5,100,199.7,100.3,199.7,100.6"/>
	<path class="st7" d="M202.9,81.8c-0.5-0.4-0.7-1-0.7-1.7c0-0.8,0.2-1.3,0.7-1.7c0.5-0.4,1.1-0.6,2-0.6c0.9,0,1.6,0.2,2,0.6
		c0.5,0.4,0.7,1,0.7,1.7c0,0.8-0.2,1.3-0.7,1.7c-0.5,0.4-1.1,0.6-2,0.6C204,82.4,203.3,82.2,202.9,81.8 M202.8,102.9V86
		c0-0.3,0.2-0.5,0.5-0.5h3.3c0.3,0,0.5,0.2,0.5,0.5v16.9c0,0.3-0.2,0.5-0.5,0.5h-3.3C203,103.5,202.8,103.2,202.8,102.9"/>
	<path class="st7" d="M211.2,85.5h2.6c0.3,0,0.5,0.2,0.5,0.4l0.2,1.4h0.2c0.7-0.7,1.5-1.2,2.4-1.6c0.9-0.4,1.9-0.6,3-0.6
		c1.9,0,3.3,0.5,4.4,1.6c1.1,1.1,1.6,2.8,1.6,5.2v10.9c0,0.3-0.2,0.5-0.5,0.5h-3.3c-0.3,0-0.5-0.2-0.5-0.5V92.3
		c0-1.2-0.3-2.1-0.8-2.6c-0.5-0.5-1.2-0.8-2.2-0.8c-0.7,0-1.4,0.2-2.1,0.5c-0.6,0.3-1.2,0.7-1.6,1.2c-0.1,0.1-0.1,0.2-0.1,0.3v12
		c0,0.3-0.2,0.5-0.5,0.5h-3.3c-0.3,0-0.5-0.2-0.5-0.5V86C210.6,85.7,210.9,85.5,211.2,85.5"/>
	<path class="st7" d="M240.7,85.9c1.1,0.5,2,1.2,2.5,2.2c0.6,1,0.8,2.5,0.8,4.2v10.5c0,0.3-0.2,0.5-0.5,0.5h-2.6
		c-0.3,0-0.5-0.2-0.5-0.4l-0.2-1.4h-0.2c-0.5,0.7-1.2,1.3-2.1,1.6c-0.8,0.4-1.8,0.6-2.8,0.6c-1.2,0-2.2-0.2-3-0.6
		c-0.9-0.4-1.5-1-2-1.8c-0.5-0.8-0.7-1.7-0.7-2.7c0-1.7,0.6-3,1.7-3.9c1.1-0.9,2.9-1.5,5.4-1.7l3.4-0.3v-0.7c0-0.9-0.1-1.6-0.4-2.1
		c-0.3-0.5-0.7-0.9-1.4-1.1c-0.6-0.2-1.4-0.3-2.5-0.3c-0.7,0-1.5,0.1-2.4,0.2c-0.6,0.1-1.2,0.2-1.8,0.4c-0.3,0.1-0.7-0.2-0.7-0.5
		v-2.2c0-0.2,0.2-0.4,0.4-0.5c0.7-0.2,1.5-0.4,2.4-0.5c1-0.1,2-0.2,2.8-0.2C238,85.2,239.5,85.5,240.7,85.9 M238.2,100.4
		c0.5-0.2,1-0.5,1.5-1c0.1-0.1,0.2-0.2,0.2-0.4v-3c0-0.3-0.3-0.5-0.6-0.5l-2.4,0.2c-1.1,0.1-2,0.4-2.5,0.8c-0.5,0.4-0.8,1-0.8,1.8
		c0,0.8,0.2,1.4,0.7,1.8c0.5,0.4,1.1,0.6,2,0.6C237,100.7,237.6,100.6,238.2,100.4"/>
</g>
</svg>
