<?xml version="1.0" encoding="utf-8"?>
<!-- Generator: Adobe Illustrator 24.3.0, SVG Export Plug-In . SVG Version: 6.00 Build 0)  -->
<svg version="1.1" id="Capa_1" xmlns="http://www.w3.org/2000/svg" xmlns:xlink="http://www.w3.org/1999/xlink" x="0px" y="0px"
	 viewBox="0 0 632.6 412.9" style="enable-background:new 0 0 632.6 412.9;" xml:space="preserve">
<style type="text/css">
	.st0{fill:#97AEBC;stroke:#333333;stroke-miterlimit:10;}
	.st1{fill:#48FFB9;}
	.st2{fill:#F2F2F2;stroke:#333333;stroke-miterlimit:10;}
	.st3{fill:#333333;}
	.st4{fill:#A5CFE8;stroke:#000000;stroke-miterlimit:10;}
	.st5{fill:#E67E73;stroke:#000000;stroke-miterlimit:10;}
	.st6{fill:#CCCCCC;stroke:#000000;stroke-miterlimit:10;}
	.st7{fill:none;}
	.st8{fill:#FFF35F;stroke:#333333;stroke-miterlimit:10;}
	.st9{fill:#E67E73;stroke:#333333;stroke-miterlimit:10;}
	.st10{fill:#FFFFFF;}
	.st11{fill:#FFFFFF;stroke:#333333;stroke-width:1;stroke-miterlimit:9.9999;}
	.st12{fill:#A5CFE8;stroke:#333333;stroke-miterlimit:10;}
	.st13{fill:#FFFFFF;stroke:#333333;stroke-miterlimit:10;}
	.st14{fill:#2E7F70;}
	.st15{fill:#E67E73;}
	.st16{fill:#E6E6E6;stroke:#000000;stroke-miterlimit:10;}
	.st17{fill:#FFFFFF;stroke:#000000;stroke-miterlimit:10;}
	.st18{fill:#CC9393;stroke:#333333;stroke-miterlimit:10;}
	.st19{fill:#000100;}
	.st20{fill:none;stroke:#FFFFFF;stroke-linecap:round;stroke-miterlimit:10;}
	.st21{fill:#CC9393;}
	.st22{fill:none;stroke:#000100;stroke-width:0.75;stroke-linecap:round;stroke-linejoin:round;stroke-miterlimit:10;}
	.st23{fill:#1DA8DE;}
	.st24{enable-background:new    ;}
</style>
<g>
	<path class="st0" d="M396.9,204.8V140c0-10.3-8.4-18.6-18.8-18.6H249h-29c-10.4,0-18.8,8.3-18.8,18.6v64.8H396.9z"/>
	<path class="st0" d="M330.4,169.7"/>
	<path class="st1" d="M385.1,331.9h49.7v-85.3c0-21.8-16.1-40-37-43.2H200.3c-20.9,3.2-37,21.4-37,43.2v85.3H213H385.1z"/>
	<path class="st2" d="M219.6,331.9h158.7c6.3,0,12.2-4.5,15.6-9.8H204C207.4,327.4,213.3,331.9,219.6,331.9z"/>
	<path class="st3" d="M299,236.5c-9.8,0-17.8,8-17.8,17.8s8,17.8,17.8,17.8s17.8-8,17.8-17.8S308.8,236.5,299,236.5z M299,271
		c-9.2,0-16.7-7.5-16.7-16.7s7.5-16.7,16.7-16.7s16.7,7.5,16.7,16.7C315.6,263.5,308.2,271,299,271z"/>
	<path class="st4" d="M117.3,327.1h31.6c0.1-0.5,0.2-0.9,0.2-1.4v-37.6h-29.3c5,4.8,8.1,11.3,8.1,18.4
		C127.9,314.8,123.8,322.2,117.3,327.1z"/>
	<path class="st4" d="M57,325.7c0,0.5,0.1,0.9,0.2,1.4h31.6c-6.5-4.9-10.6-12.3-10.6-20.6c0-7.1,3.1-13.6,8.1-18.4H57V325.7z"/>
	<path class="st5" d="M88.4,327.2H57.8c1,2.6,2.9,4.3,5,4.3h80.5c2.1,0,4-1.7,5-4.3h-30.6"/>
	<path class="st5" d="M75.8,279.3H66h-3.2c-3.2,0-5.9,2.6-5.9,5.9v2.9h28.4v-8.7L75.8,279.3L75.8,279.3z"/>
	<path class="st5" d="M120.8,279.3v8.7h28.4v-2.9c0-3.2-2.6-5.9-5.9-5.9h-3.4h-13.7L120.8,279.3L120.8,279.3z"/>
	<rect x="127" y="274.6" class="st6" width="12.1" height="4.6"/>
	<path class="st6" d="M78.1,276.9c0-1.3-1-2.3-2.3-2.3H66c-1.3,0-2.3,1-2.3,2.3s1,2.3,2.3,2.3h9.8C77.1,279.3,78.1,278.2,78.1,276.9
		z"/>
	<polygon class="st6" points="94.8,270.9 91.7,275.5 114.3,275.5 111.3,270.9 	"/>
	<polygon class="st6" points="118.5,279.3 115.4,274.7 90.7,274.7 87.6,279.3 	"/>
	<path class="st7" d="M458.3,301.8c0,7.1,5.8,12.9,12.9,12.9h3.4V289h-3.4C464.1,289,458.3,294.7,458.3,301.8z"/>
	<g>
		<path class="st8" d="M599.1,165.5l-18.6-36.2l-78.3,40.2l18.6,36.2L599.1,165.5z"/>
		<path class="st9" d="M527.8,219.4l78.3-40.2l-6.5-12.6l-78.3,40.2L527.8,219.4z M529.4,209.9l15.5-8l-1-2c-0.1-0.3,0-0.6,0.3-0.8
			l6.1-3.2c0.3-0.1,0.6,0,0.8,0.3l1,2l45.3-23.3c0.3-0.1,0.6,0,0.8,0.3c0.1,0.3,0,0.6-0.3,0.8l-45.3,23.3l1.1,2.1
			c0.1,0.3,0,0.6-0.3,0.8l-6.1,3.2c-0.3,0.1-0.6,0-0.8-0.3l-1.1-2.1l-15.5,8c-0.3,0.1-0.6,0-0.8-0.3
			C529,210.4,529.2,210.1,529.4,209.9z"/>
		
			<rect x="546" y="198.4" transform="matrix(0.8894 -0.4571 0.4571 0.8894 -31.0164 273.0562)" class="st10" width="5.7" height="4.5"/>
		
			<rect x="494.7" y="139.8" transform="matrix(0.8894 -0.4571 0.4571 0.8894 -6.3985 262.2075)" class="st11" width="88" height="9.1"/>
		<path class="st12" d="M491.7,154.6l-7.5,3.9l-7.3,3.8l-7.5,3.9l-7.6,3.9l-7.5,3.9l-7.3,3.8l-7.5,3.9l-3.4,1.7l22,42.8l78.5-40.3
			l-22-42.8l-8.2,4.2l-7.5,3.9L491.7,154.6z"/>
		<polygon class="st13" points="482.1,198 494.1,179.3 472,178.3 		"/>
		<polygon class="st13" points="550.6,180.5 562.6,161.9 540.5,160.8 		"/>
		<polygon class="st13" points="453.5,161.3 453.5,159.4 447.3,162.6 447.3,172.5 447.3,176.1 453.4,173 		"/>
		<polygon class="st9" points="454.7,158.8 454.6,172.4 460.9,169.1 461,156.1 461,155.6 		"/>
		<polygon class="st13" points="462.2,155 462.1,168.5 468.5,165.2 468.6,152.2 468.6,151.7 		"/>
		<polygon class="st9" points="446.1,163.2 439.8,166.5 439.8,178.1 439.7,180 446.1,176.7 		"/>
		<polygon class="st13" points="435.5,182.2 438.6,180.6 438.6,167.1 431.1,170.9 430.2,171.8 		"/>
		<polygon class="st9" points="499.2,147.6 499.2,149.5 505.5,146.2 505.5,134.5 505.6,132.7 499.2,135.9 		"/>
		<polygon class="st9" points="469.8,151.1 469.7,164.6 476,161.4 476.1,149.7 476.1,147.8 		"/>
		<polygon class="st13" points="498,136.5 492.1,139.6 492.1,151.3 492.1,153.1 498,150.1 		"/>
		<polygon class="st13" points="506.7,145.6 514,141.8 508.5,131.1 506.7,132.1 		"/>
		<polygon class="st9" points="490.9,140.2 484.6,143.4 484.6,153.4 484.6,157 490.9,153.7 		"/>
		<polygon class="st13" points="483.4,157.6 483.4,144 477.3,147.2 477.2,160.7 		"/>
		<polygon class="st9" points="439.5,143.8 434.6,148.7 438.7,161.6 443.6,156.7 		"/>
		<polygon class="st13" points="440.4,142.9 444.5,155.8 449.6,150.8 445.5,137.8 		"/>
		<polygon class="st9" points="446.4,136.9 450.5,149.8 455.6,144.7 451.5,131.8 		"/>
		<polygon class="st13" points="437.8,162.6 433.7,149.7 428.6,154.7 432.7,167.6 		"/>
		<polygon class="st9" points="429.4,171 431.8,168.6 427.7,155.6 420.9,162.5 		"/>
		<polygon class="st13" points="480.9,102.4 475.8,107.4 479.9,120.3 485,115.3 		"/>
		<polygon class="st13" points="452.4,130.9 456.5,143.8 461.6,138.7 457.5,125.8 		"/>
		<polygon class="st9" points="479,121.3 474.9,108.4 470.2,113.1 474.3,126 		"/>
		<polygon class="st9" points="481.8,101.4 485.9,114.4 491.7,108.5 483.2,100 		"/>
		<polygon class="st13" points="473.4,126.9 469.3,114 464.2,119 468.3,132 		"/>
		<polygon class="st9" points="458.4,124.9 462.5,137.8 467.4,132.9 463.3,120 		"/>
	</g>
	<g>
		<path class="st10" d="M126.9,139.9c-1.3-9.3,5.2-17.9,14.4-19.2c9.3-1.3,17.9,5.2,19.2,14.4c1.3,9.3-5.2,17.9-14.4,19.2
			C136.8,155.6,128.2,149.1,126.9,139.9z"/>
		<path class="st14" d="M147.7,165.9c3.6-0.5,7.1-1.8,10.6-3.8l0.1-0.1v-0.1l-2-3.3c-0.2-0.3-0.1-0.6,0.2-0.8
			c2.2-1.4,4.2-3.2,5.9-5.3c0.2-0.2,0.6-0.3,0.8-0.1l3.1,2.2c0.1,0.1,0.2,0,0.2,0c2.2-2.9,3.8-6.4,4.8-10.2c0-0.1,0-0.2-0.1-0.2
			l-3.8-1.3c-0.3-0.1-0.4-0.4-0.4-0.7c0.6-2.5,0.7-5.4,0.4-8.4c0-0.3,0.2-0.6,0.5-0.6l2.3-0.3c0.3,0,0.6,0.2,0.7,0.5l0.1,0.5
			c0,0.1,0.1,0.2,0.2,0.1c0.1,0,0.2-0.1,0.1-0.2l-0.2-1.2v-0.1c-0.6-3.8-1.6-6.7-3.1-9.2l-0.1-0.1h-0.1l-2.9,1.9
			c-0.1,0.1-0.3,0.1-0.4,0.1c-0.2,0-0.3-0.1-0.4-0.3c-1.4-2.3-3.2-4.3-5.3-5.9c-0.1-0.1-0.2-0.2-0.2-0.4c0-0.1,0-0.3,0.1-0.4
			l2.3-3.1c0.1-0.1,0.1-0.2,0-0.2c-3.1-2.3-6.5-4-10-4.9c-0.1,0-0.2,0-0.2,0.1l-1,3.6c-0.1,0.3-0.4,0.5-0.7,0.4
			c-3-0.7-5.5-0.9-7.9-0.7c-0.3,0-0.6-0.2-0.6-0.5l0,0l-0.6-4.7c0,0,0-0.1-0.1-0.1h-0.1c-3.9,0.5-7.3,2.6-10.4,4.4
			c-0.1,0.1-0.1,0.2-0.1,0.2l2.1,4c0.1,0.3,0.1,0.6-0.2,0.8c-2.3,1.4-4.3,3.2-6,5.3c-0.2,0.2-0.6,0.3-0.8,0.1l-3.1-2.3
			c-0.1-0.1-0.2,0-0.2,0c-2.3,3.1-4,6.4-4.9,10c0,0.1,0,0.2,0.1,0.2l3.7,1c0.3,0.1,0.5,0.4,0.4,0.7c-0.6,2.8-0.8,5.4-0.6,7.9
			c0,0.3-0.2,0.6-0.5,0.6l-2.8,0.4l-2.1,0.3c-0.1,0-0.2,0.1-0.1,0.2c0.5,3.7,2.4,7.2,4.3,10.4c0,0.1,0.1,0.1,0.2,0.1l4-2.1
			c0.3-0.1,0.6-0.1,0.8,0.2c1.4,2.3,3.2,4.3,5.3,5.9c0.2,0.2,0.3,0.6,0.1,0.8l-2.3,3.1c-0.1,0.1-0.1,0.2,0,0.2c3,2.3,6.4,3.9,10,4.9
			c0.1,0,0.2,0,0.2-0.1l1-3.7c0.1-0.3,0.4-0.5,0.7-0.4c2.6,0.6,5.2,0.7,7.9,0.5c0.3,0,0.6,0.2,0.6,0.5l0.6,3.9
			C147.5,165.8,147.6,165.9,147.7,165.9z M146.3,155.5c-9.9,1.4-19.1-5.5-20.5-15.4s5.5-19.1,15.4-20.5s19.1,5.5,20.5,15.4
			C163.1,144.8,156.2,154.1,146.3,155.5z"/>
		<path class="st10" d="M87.6,195.3c-1.3-9.3,5.2-17.9,14.4-19.2c9.3-1.3,17.9,5.2,19.2,14.4c1.3,9.3-5.2,17.9-14.4,19.2
			S89,204.6,87.6,195.3z"/>
		<path class="st14" d="M108.4,221.3c3.6-0.5,7.1-1.8,10.6-3.8l0.1-0.1v-0.1l-2-3.3c-0.2-0.3-0.1-0.6,0.2-0.8
			c2.2-1.4,4.2-3.2,5.9-5.3c0.2-0.2,0.6-0.3,0.8-0.1l3.1,2.2c0.1,0.1,0.2,0,0.2,0c2.2-2.9,3.8-6.4,4.8-10.2c0-0.1,0-0.2-0.1-0.2
			l-3.8-1.3c-0.3-0.1-0.4-0.4-0.4-0.7c0.6-2.5,0.7-5.4,0.4-8.4c0-0.3,0.2-0.6,0.5-0.6l2.3-0.3c0.3,0,0.6,0.2,0.7,0.5l0.1,0.5
			c0,0.1,0.1,0.2,0.2,0.1c0.1,0,0.2-0.1,0.1-0.2l-0.2-1.2v-0.1c-0.6-3.8-1.6-6.7-3.1-9.2l-0.1-0.1h-0.1l-2.9,1.9
			c-0.1,0.1-0.3,0.1-0.4,0.1c-0.2,0-0.3-0.1-0.4-0.3c-1.4-2.3-3.2-4.3-5.3-5.9c-0.1-0.1-0.2-0.2-0.2-0.4c0-0.1,0-0.3,0.1-0.4
			l2.3-3.1c0.1-0.1,0.1-0.2,0-0.2c-3.1-2.3-6.5-4-10-4.9c-0.1,0-0.2,0-0.2,0.1l-1,3.6c-0.1,0.3-0.4,0.5-0.7,0.4
			c-3-0.7-5.5-0.9-7.9-0.7c-0.3,0-0.6-0.2-0.6-0.5l0,0l-0.6-4.7c0,0,0-0.1-0.1-0.1h-0.1c-3.9,0.5-7.3,2.6-10.4,4.4
			c-0.1,0.1-0.1,0.2-0.1,0.2l2.1,4c0.1,0.3,0.1,0.6-0.2,0.8c-2.3,1.4-4.3,3.2-6,5.3c-0.2,0.2-0.6,0.3-0.8,0.1l-3.1-2.3
			c-0.1-0.1-0.2,0-0.2,0c-2.3,3.1-4,6.4-4.9,10c0,0.1,0,0.2,0.1,0.2l3.7,1c0.3,0.1,0.5,0.4,0.4,0.7c-0.6,2.8-0.8,5.4-0.6,7.9
			c0,0.3-0.2,0.6-0.5,0.6l-2.8,0.4l-2.1,0.3c-0.1,0-0.2,0.1-0.1,0.2c0.5,3.7,2.4,7.2,4.3,10.4c0,0.1,0.1,0.1,0.2,0.1l4-2.1
			c0.3-0.1,0.6-0.1,0.8,0.2c1.4,2.3,3.2,4.3,5.3,5.9c0.2,0.2,0.3,0.6,0.1,0.8l-2.3,3.1c-0.1,0.1-0.1,0.2,0,0.2c3,2.3,6.4,3.9,10,4.9
			c0.1,0,0.2,0,0.2-0.1l1-3.7c0.1-0.3,0.4-0.5,0.7-0.4c2.6,0.6,5.2,0.7,7.9,0.5c0.3,0,0.6,0.2,0.6,0.5l0.6,3.9
			C108.2,221.3,108.3,221.3,108.4,221.3z M107,210.9c-9.9,1.4-19.1-5.5-20.5-15.4s5.5-19.1,15.4-20.5s19.1,5.5,20.5,15.4
			C123.8,200.3,116.9,209.5,107,210.9z"/>
	</g>
	<path class="st15" d="M476.1,272.2v7.4h-1.5c-12.3,0-22.3,10-22.3,22.3s10,22.3,22.3,22.3h1.5v2.6c0,2.6,2.1,4.7,4.7,4.7H526
		c2.6,0,4.8-2.1,4.8-4.7v-54.6L476.1,272.2L476.1,272.2z M474.6,316.3c-8,0-14.4-6.5-14.4-14.4c0-8,6.5-14.4,14.4-14.4h1.5v28.9
		h-1.5V316.3z"/>
	<polygon class="st16" points="120.8,287.9 120.8,279.3 85.3,279.3 85.3,288.1 	"/>
	<path class="st5" d="M103,331.5c13.8,0,25-11.2,25-25s-11.2-25-25-25s-25,11.2-25,25S89.3,331.5,103,331.5z M103,286.3
		c11.1,0,20.2,9.1,20.2,20.2s-9.1,20.2-20.2,20.2s-20.2-9.1-20.2-20.2S91.9,286.3,103,286.3z"/>
	<path class="st4" d="M103,286.3c-11.1,0-20.2,9.1-20.2,20.2s9.1,20.2,20.2,20.2s20.2-9.1,20.2-20.2
		C123.3,295.4,114.2,286.3,103,286.3z M103,320.8c-7.9,0-14.3-6.4-14.3-14.3s6.4-14.3,14.3-14.3s14.3,6.4,14.3,14.3
		S110.9,320.8,103,320.8z"/>
	<path class="st17" d="M103,292.2c-7.9,0-14.3,6.4-14.3,14.3s6.4,14.3,14.3,14.3s14.3-6.4,14.3-14.3S110.9,292.2,103,292.2z"/>
	<path class="st1" d="M237.8,188.6h29.8v-18.8C265.1,174.1,257.9,181.4,237.8,188.6z"/>
	<path class="st1" d="M360.2,188.6h-29.8v-18.8C332.9,174.1,340.1,181.4,360.2,188.6z"/>
	<path class="st18" d="M267.5,188.7h62.9v-23.1c-7.9,4.9-18.3,7.2-31.5,7.2c-13.1,0-23.6-2.4-31.5-7.2v3.4v19.7H267.5z"/>
	<path class="st13" d="M396.9,207c0-10.1-8.3-18.3-18.5-18.3H219.6c-10.2,0-18.5,8.2-18.5,18.3v106.6c0,3,0.8,6,2.2,8.7h191.3
		c1.4-2.7,2.2-5.6,2.2-8.7L396.9,207L396.9,207z"/>
	<g>
		<path class="st18" d="M299.8,179L299.8,179c-24.9,0-45.1-20.2-45.1-45.1V88.8l35-20.3l55.2,20.3v45.1
			C344.9,158.8,324.7,179,299.8,179z"/>
		<g>
			<path class="st19" d="M323.7,115.2c-6.2-1.3-12.1-3.5-17.7-6.4c-5.7-3-10.1-6.2-13.9-11.4c-0.9-1.2-9.3-15.1-8-15.8
				c-5.3,2.6-16,8.6-20.3,12.6c-3.5,3.3-6.3,7.4-7.7,12c-0.2,0.6-1.8,8.9-1.4,8.9l-4.3-0.6c-0.7-1.9-0.4-5.6-0.4-7.7
				c0-8.3,1.1-16.7,4-24.5c8.3-22.6,33.5-31.2,55.9-27.1c20.4,3.8,36.2,10.7,43.1,32.3c2,6.3,3.2,12.8,3.5,19.4
				c0.1,3.3,0,6.7-0.4,10c-0.3,2.4-0.5,5.9-2.6,7.5c-1,0.8-7.5,4.2-8.3,2.1c-0.1-4.8-0.7-6.8-0.8-10.3
				C337.8,116.8,330.1,116.5,323.7,115.2z"/>
		</g>
		<line class="st20" x1="257.8" y1="87.7" x2="262.2" y2="95.9"/>
		<line class="st20" x1="264.3" y1="83.6" x2="268.7" y2="91.8"/>
		<line class="st20" x1="271.8" y1="79.5" x2="276.3" y2="87.7"/>
		<path class="st19" d="M339.8,45.5c0,11.4-9.2,20.6-20.6,20.6s-20.6-9.2-20.6-20.6s9.2-20.6,20.6-20.6
			C330.5,24.8,339.8,34.1,339.8,45.5z"/>
		<path class="st19" d="M369.9,44.4c0,9-7.3,16.2-16.2,16.2c-9,0-16.2-7.3-16.2-16.2c0-9,7.3-16.2,16.2-16.2S369.9,35.4,369.9,44.4z
			"/>
		<path class="st19" d="M393.5,55.7c0,7.3-5.9,13.2-13.2,13.2C372.9,69,367,63,367,55.7s5.9-13.2,13.2-13.2
			C387.5,42.5,393.5,48.4,393.5,55.7z"/>
		<path class="st19" d="M401.4,75.9c0,5.9-4.7,10.6-10.6,10.6s-10.6-4.7-10.6-10.6s4.7-10.6,10.6-10.6
			C396.7,65.3,401.4,70,401.4,75.9z"/>
		<g>
			<path class="st21" d="M257.9,115.7c-6.7-3.2-14.8-0.5-15.6,8.4c-0.3,3.7,0.3,7.5,2.1,10.6c1.8,3.1,4.9,5.3,8.2,5.6
				c3.4,0.3,7-1.6,8.6-4.9"/>
		</g>
		<g>
			<path class="st21" d="M344.9,123.9c5.6-4.5,13.1-1.7,13.9,7.2c0.3,3.7-0.3,7.5-2.1,10.6c-1.8,3.1-4.9,5.3-8.2,5.6
				c-3.4,0.3-7-1.6-8.6-4.9"/>
		</g>
		<g>
			<g>
				<path class="st19" d="M246.3,123.6c0.5-1.8,2-3.5,3.6-4.3c0.8-0.4,1.7-0.4,2.5-0.1s1.2,1,1.7,1.6c0.1,0.1,0.3,0,0.3-0.1
					c-0.1-0.9-0.9-1.5-1.7-1.9s-1.8-0.4-2.6-0.1c-1,0.4-1.9,1.2-2.6,2c-0.7,0.8-1.2,1.7-1.4,2.8C246,123.7,246.2,123.8,246.3,123.6
					L246.3,123.6z"/>
			</g>
		</g>
		<g>
			<g>
				<path class="st19" d="M254.2,122.9c-0.3,2.3-0.5,4.7-0.4,7.1c0.1,2.3,0.5,4.7,1.1,6.9c0.1,0.2,0.4,0.2,0.4-0.1
					c-0.2-2.3-0.9-4.6-1-7c-0.2-2.3,0-4.7,0.1-7C254.4,122.8,254.2,122.8,254.2,122.9L254.2,122.9z"/>
			</g>
		</g>
		<g>
			<g>
				<path class="st19" d="M355.4,134c0.1-2.2-0.5-4.7-2.6-5.8c-0.9-0.5-1.9-0.7-2.9-0.4c-1.1,0.3-1.8,1.2-2.3,2.2
					c-0.7,1.4-1.1,2.8-1.2,4.3c0,0.2,0.2,0.2,0.3,0c0.3-1.4,0.7-2.9,1.4-4.2c0.6-1.2,1.6-2.1,3-2c2.9,0.2,4,3.4,4,5.9
					C355.1,134.1,355.4,134.1,355.4,134L355.4,134z"/>
			</g>
		</g>
		<path class="st19" d="M315.9,130c-0.3,2,1.1,3.8,3.1,4.1s3.8-1.1,4.1-3.1s-1.1-3.8-3.1-4.1C318,126.6,316.2,128,315.9,130z"/>
		<path class="st19" d="M272.4,127.9c0.2,2,2,3.4,4,3.2s3.4-2,3.2-4c-0.2-2-2-3.4-4-3.2C273.6,124.1,272.2,125.9,272.4,127.9z"/>
		<g>
			<path class="st10" d="M307,149.6c-0.4,3.4-0.8,6.8-1.8,10c-2.9,9-12.2,10.7-16.3,2.9c-1.9-3.6-2-8.7-2.1-13.4L307,149.6z"/>
		</g>
		<path class="st22" d="M329.7,125c-3.2-4.9-10.4-6.1-14.4-2.6"/>
		<path class="st22" d="M284.2,120.5c-4-3.2-11.2-3.1-14.5,0.1"/>
		<g>
			<g>
				<path class="st19" d="M293.1,139.7c-0.6,2.1,0.8,4.3,2.9,4.7c1.7,0.4,3.5-0.5,4.4-2c0.5-0.9,0.8-1.9,0.4-2.9
					c-0.1-0.2-0.3-0.1-0.3,0c0,0.8-0.1,1.6-0.5,2.3c-0.3,0.7-0.9,1.2-1.5,1.6c-1.4,0.8-3,0.7-4.2-0.4
					C293.4,142.2,292.9,140.9,293.1,139.7C293.3,139.6,293.1,139.6,293.1,139.7L293.1,139.7z"/>
			</g>
		</g>
	</g>
</g>
<g>
	<text transform="matrix(1 0 0 1 154.6021 610.506)" class="st10" style="font-family:'Roboto-Medium'; font-size:38px;">Avisos importantes</text>
</g>
<g>
	<text transform="matrix(1 0 0 1 103.7947 492.8767)" class="st10" style="font-family:'Roboto-Medium'; font-size:38px;">¿Qué necesito?</text>
</g>
<path class="st23" d="M630.6,412.5H0.6v-61c0-11.9,9.7-21.6,21.6-21.6H609c11.9,0,21.6,9.7,21.6,21.6V412.5z"/>
<g>
	<g class="st24">
		<path class="st10" d="M198.5,371.3c0,1.5-0.2,2.8-0.5,3.6c-0.3,0.9-0.9,1.8-1.8,2.8l-1.9,2c-1.1,1.2-1.7,2.5-1.7,3.8
			c0,1.2,0.3,2,0.9,2.6c0.6,0.6,1.5,0.9,2.6,0.9s2-0.3,2.6-0.9c0.7-0.6,1-1.4,1-2.5h4.5c0,2.2-0.8,3.9-2.3,5.2
			c-1.5,1.3-3.4,1.9-5.8,1.9c-2.5,0-4.5-0.6-5.9-1.9c-1.4-1.2-2.1-3-2.1-5.3c0-2,1-4.1,2.9-6.1l1.7-1.7c1-0.9,1.5-2,1.6-3.5v-1h4.2
			V371.3z M198.9,365.6c0,0.7-0.2,1.3-0.7,1.7c-0.4,0.5-1.1,0.7-1.9,0.7s-1.4-0.2-1.9-0.7s-0.7-1-0.7-1.7s0.2-1.2,0.7-1.7
			s1.1-0.7,1.9-0.7s1.4,0.2,1.9,0.7C198.6,364.3,198.9,364.9,198.9,365.6z"/>
		<path class="st10" d="M229.5,370.8c0,2.6-0.4,4.8-1.2,6.7c-0.8,1.9-1.9,3.4-3.4,4.5l4.6,3.6l-3,2.7l-5.8-4.5
			c-0.8,0.2-1.6,0.2-2.4,0.2c-2.2,0-4.1-0.5-5.8-1.6s-3-2.6-4-4.6c-0.9-2-1.4-4.3-1.4-6.8v-1.5c0-2.6,0.5-5,1.4-7s2.3-3.6,4-4.6
			c1.7-1.1,3.6-1.6,5.8-1.6s4.2,0.5,5.9,1.6s3,2.6,3.9,4.6s1.4,4.3,1.4,6.9V370.8z M224.8,369.4c0-3-0.6-5.3-1.7-6.9
			c-1.1-1.6-2.7-2.4-4.8-2.4c-2,0-3.6,0.8-4.7,2.4c-1.1,1.6-1.7,3.8-1.8,6.7v1.6c0,2.9,0.6,5.2,1.7,6.8c1.1,1.6,2.7,2.5,4.8,2.5
			s3.7-0.8,4.8-2.4s1.7-3.9,1.7-6.9V369.4z"/>
		<path class="st10" d="M246,381.7c-1.3,1.6-3.2,2.3-5.6,2.3c-2.2,0-3.8-0.6-4.9-1.9c-1.1-1.3-1.7-3.1-1.7-5.5v-13h4.5v13
			c0,2.5,1.1,3.8,3.2,3.8c2.2,0,3.7-0.8,4.4-2.4v-14.4h4.5v20.1h-4.2L246,381.7z"/>
		<path class="st10" d="M263.8,384c-2.9,0-5.2-0.9-6.9-2.7c-1.8-1.8-2.7-4.2-2.7-7.2v-0.6c0-2,0.4-3.8,1.2-5.4
			c0.8-1.6,1.9-2.8,3.3-3.7c1.4-0.9,3-1.3,4.7-1.3c2.7,0,4.8,0.9,6.3,2.6s2.2,4.2,2.2,7.4v1.8h-13.1c0.1,1.7,0.7,3,1.7,3.9
			c1,1,2.2,1.4,3.7,1.4c2.1,0,3.7-0.8,5-2.5l2.4,2.3c-0.8,1.2-1.9,2.1-3.2,2.8C267,383.7,265.5,384,263.8,384z M263.2,366.8
			c-1.2,0-2.2,0.4-3,1.3s-1.2,2.1-1.5,3.6h8.6v-0.3c-0.1-1.5-0.5-2.7-1.2-3.4C265.5,367.2,264.5,366.8,263.2,366.8z M264.3,355.1
			h5.1l-5.1,5.6h-3.6L264.3,355.1z"/>
		<path class="st10" d="M289,363.6l0.1,2.3c1.5-1.8,3.4-2.7,5.8-2.7c4.2,0,6.3,2.4,6.4,7.2v13.3h-4.5v-13c0-1.3-0.3-2.2-0.8-2.8
			c-0.6-0.6-1.5-0.9-2.7-0.9c-1.8,0-3.2,0.8-4.1,2.5v14.3h-4.5v-20.1L289,363.6L289,363.6z"/>
		<path class="st10" d="M314.8,384c-2.9,0-5.2-0.9-6.9-2.7c-1.8-1.8-2.7-4.2-2.7-7.2v-0.6c0-2,0.4-3.8,1.2-5.4
			c0.8-1.6,1.9-2.8,3.3-3.7c1.4-0.9,3-1.3,4.7-1.3c2.7,0,4.8,0.9,6.3,2.6s2.2,4.2,2.2,7.4v1.8h-13.1c0.1,1.7,0.7,3,1.7,3.9
			c1,1,2.2,1.4,3.7,1.4c2.1,0,3.7-0.8,5-2.5l2.4,2.3c-0.8,1.2-1.9,2.1-3.2,2.8C317.9,383.7,316.4,384,314.8,384z M314.2,366.8
			c-1.2,0-2.2,0.4-3,1.3s-1.2,2.1-1.5,3.6h8.6v-0.3c-0.1-1.5-0.5-2.7-1.2-3.4C316.5,367.2,315.5,366.8,314.2,366.8z"/>
		<path class="st10" d="M334.6,380.4c1.1,0,2.1-0.3,2.8-1c0.7-0.7,1.1-1.5,1.2-2.4h4.2c0,1.3-0.4,2.4-1.2,3.5
			c-0.7,1.1-1.7,1.9-3,2.6c-1.3,0.6-2.6,0.9-4,0.9c-2.8,0-5-0.9-6.7-2.7c-1.6-1.8-2.5-4.3-2.5-7.5v-0.5c0-3.1,0.8-5.5,2.4-7.3
			s3.9-2.8,6.7-2.8c2.4,0,4.3,0.7,5.8,2.1s2.3,3.2,2.4,5.5h-4.2c0-1.2-0.4-2.1-1.2-2.8s-1.7-1.1-2.8-1.1c-1.5,0-2.6,0.5-3.4,1.6
			s-1.2,2.7-1.2,4.8v0.7c0,2.2,0.4,3.8,1.2,4.9C331.9,379.9,333.1,380.4,334.6,380.4z"/>
		<path class="st10" d="M355.1,384c-2.9,0-5.2-0.9-6.9-2.7c-1.8-1.8-2.7-4.2-2.7-7.2v-0.6c0-2,0.4-3.8,1.2-5.4
			c0.8-1.6,1.9-2.8,3.3-3.7c1.4-0.9,3-1.3,4.7-1.3c2.7,0,4.8,0.9,6.3,2.6s2.2,4.2,2.2,7.4v1.8H350c0.1,1.7,0.7,3,1.7,3.9
			s2.2,1.4,3.7,1.4c2.1,0,3.7-0.8,5-2.5l2.4,2.3c-0.8,1.2-1.9,2.1-3.2,2.8C358.2,383.7,356.7,384,355.1,384z M354.5,366.8
			c-1.2,0-2.2,0.4-3,1.3s-1.2,2.1-1.5,3.6h8.6v-0.3c-0.1-1.5-0.5-2.7-1.2-3.4C356.7,367.2,355.8,366.8,354.5,366.8z"/>
		<path class="st10" d="M377.9,378.2c0-0.8-0.3-1.4-1-1.8s-1.8-0.8-3.3-1.1c-1.5-0.3-2.8-0.7-3.8-1.2c-2.3-1.1-3.4-2.7-3.4-4.7
			c0-1.7,0.7-3.2,2.2-4.3c1.5-1.2,3.3-1.7,5.6-1.7c2.4,0,4.3,0.6,5.8,1.8s2.2,2.7,2.2,4.6h-4.5c0-0.9-0.3-1.6-1-2.2
			c-0.6-0.6-1.5-0.9-2.6-0.9c-1,0-1.8,0.2-2.4,0.7s-0.9,1.1-0.9,1.8c0,0.7,0.3,1.2,0.9,1.6s1.8,0.8,3.5,1.2c1.8,0.4,3.2,0.9,4.2,1.4
			s1.8,1.2,2.2,1.9c0.5,0.8,0.7,1.7,0.7,2.7c0,1.8-0.7,3.3-2.2,4.4s-3.5,1.7-5.9,1.7c-1.6,0-3.1-0.3-4.4-0.9s-2.3-1.4-3-2.4
			s-1.1-2.2-1.1-3.4h4.4c0.1,1.1,0.5,1.9,1.2,2.5s1.7,0.9,3,0.9c1.2,0,2.1-0.2,2.7-0.7C377.5,379.5,377.9,378.9,377.9,378.2z"/>
		<path class="st10" d="M386.2,358.3c0-0.7,0.2-1.3,0.7-1.7c0.4-0.5,1.1-0.7,1.9-0.7s1.4,0.2,1.9,0.7c0.4,0.5,0.7,1,0.7,1.7
			s-0.2,1.2-0.7,1.7c-0.4,0.5-1.1,0.7-1.9,0.7s-1.4-0.2-1.9-0.7C386.4,359.6,386.2,359,386.2,358.3z M391,383.6h-4.5v-20.1h4.5
			V383.6z"/>
		<path class="st10" d="M401.6,358.7v4.9h3.5v3.3h-3.5v11.2c0,0.8,0.2,1.3,0.5,1.7c0.3,0.3,0.8,0.5,1.6,0.5c0.5,0,1-0.1,1.6-0.2v3.5
			c-1,0.3-2,0.4-3,0.4c-3.5,0-5.2-1.9-5.2-5.7v-11.4h-3.3v-3.3h3.3v-4.9H401.6z"/>
		<path class="st10" d="M407.2,373.4c0-2,0.4-3.7,1.2-5.3c0.8-1.6,1.9-2.8,3.3-3.6c1.4-0.8,3-1.3,4.9-1.3c2.7,0,4.9,0.9,6.6,2.6
			s2.6,4.1,2.7,6.9v1.1c0,2-0.4,3.7-1.1,5.3s-1.8,2.8-3.3,3.6s-3.1,1.3-4.9,1.3c-2.8,0-5.1-0.9-6.8-2.8c-1.7-1.9-2.6-4.4-2.6-7.5
			L407.2,373.4L407.2,373.4z M411.7,373.8c0,2.1,0.4,3.7,1.3,4.9c0.9,1.2,2,1.8,3.6,1.8s2.7-0.6,3.6-1.8s1.3-2.9,1.3-5.2
			c0-2-0.4-3.6-1.3-4.8s-2.1-1.8-3.6-1.8s-2.6,0.6-3.5,1.8C412.1,369.7,411.7,371.5,411.7,373.8z"/>
		<path class="st10" d="M433.8,375.7c0-1.6,0.2-3,0.6-3.9s1.2-2.1,2.4-3.2c1.2-1.2,2-2,2.3-2.5c0.5-0.8,0.7-1.6,0.7-2.4
			c0-1.2-0.3-2-0.9-2.7s-1.4-0.9-2.5-0.9s-1.9,0.3-2.6,0.9s-1,1.4-1,2.4h-4.5c0-2.2,0.8-3.9,2.2-5.2s3.4-1.9,5.8-1.9
			c2.5,0,4.4,0.6,5.8,1.9s2.1,3,2.1,5.3c0,2-0.9,4-2.8,6l-2.3,2.2c-0.8,0.9-1.2,2.3-1.3,4.1L433.8,375.7L433.8,375.7z M433.5,381.5
			c0-0.7,0.2-1.3,0.7-1.8s1.1-0.7,1.9-0.7s1.4,0.2,1.9,0.7s0.7,1,0.7,1.7s-0.2,1.2-0.7,1.7s-1.1,0.7-1.9,0.7s-1.4-0.2-1.9-0.7
			S433.5,382.1,433.5,381.5z"/>
	</g>
</g>
</svg>
