<?xml version="1.0" encoding="utf-8"?>
<!-- Generator: Adobe Illustrator 24.3.0, SVG Export Plug-In . SVG Version: 6.00 Build 0)  -->
<svg version="1.1" id="Capa_1" xmlns="http://www.w3.org/2000/svg" xmlns:xlink="http://www.w3.org/1999/xlink" x="0px" y="0px"
	 viewBox="0 0 632.6 412.9" style="enable-background:new 0 0 632.6 412.9;" xml:space="preserve">
<style type="text/css">
	.st0{fill:#214357;}
	.st1{fill:#F4AD6F;}
	.st2{fill:#DBFFFE;}
	.st3{fill:#2D5B75;}
	.st4{fill:#356975;}
	.st5{fill:#FFFFFF;}
	.st6{fill:#A7F0EF;}
	.st7{opacity:0.2;fill:#FFFFFF;enable-background:new    ;}
	.st8{opacity:0.25;enable-background:new    ;}
	.st9{fill:#FDD184;}
	.st10{fill:#FEE2AD;}
	.st11{fill:#FEFEFE;}
	.st12{fill:#C24C4B;}
	.st13{fill:#9E3231;}
	.st14{fill:#CF522C;}
	.st15{fill:#FF6536;}
	.st16{clip-path:url(#SVGID_2_);}
	.st17{fill:#75472B;}
	.st18{fill:#FFD08A;}
	.st19{fill:#F5B67F;}
	.st20{fill:#8A1C1C;}
	.st21{fill:#661515;}
	.st22{fill:#EBEBEB;}
	.st23{fill:#408733;}
	.st24{opacity:0.1;enable-background:new    ;}
	.st25{fill:#9264CC;}
	.st26{fill:#B87DFF;}
	.st27{fill:#36C976;}
	.st28{fill:#41FC94;}
	.st29{fill:#FF6EAE;}
	.st30{fill:#82502E;}
	.st31{fill:#311326;}
	.st32{fill:none;stroke:#311326;stroke-width:0.8934;stroke-linecap:round;stroke-linejoin:round;stroke-miterlimit:10;}
	.st33{fill:#20120C;}
	.st34{clip-path:url(#SVGID_4_);fill:#FF76C5;}
	.st35{clip-path:url(#SVGID_6_);fill:#FFFFFF;}
	.st36{opacity:0.11;fill:#FFFFFF;enable-background:new    ;}
	.st37{fill:none;stroke:#FFFFFF;stroke-width:1.2607;stroke-linecap:round;stroke-linejoin:round;stroke-miterlimit:10;}
	.st38{fill:none;stroke:#FFFFFF;stroke-width:1.2607;stroke-linecap:round;stroke-linejoin:round;stroke-miterlimit:9.9994;}
	.st39{fill:#BF5180;}
	.st40{fill:#FFB076;}
	.st41{fill:none;stroke:#9B3666;stroke-width:1.7;stroke-linecap:round;stroke-linejoin:round;stroke-miterlimit:10;}
	.st42{fill:#F9FAFC;}
	.st43{fill:#FFA405;}
	.st44{fill:#FF974D;}
	.st45{fill:none;stroke:#EC7600;stroke-width:1.7484;stroke-linecap:round;stroke-linejoin:round;stroke-miterlimit:10;}
	.st46{fill:none;stroke:#FB7928;stroke-width:1.6;stroke-linecap:round;stroke-linejoin:round;stroke-miterlimit:10;}
	.st47{fill:#8A331F;}
	.st48{fill:#7B2616;}
	.st49{fill:#FF8031;}
	.st50{fill:#101010;}
	.st51{fill:none;stroke:#311326;stroke-width:0.9831;stroke-linecap:round;stroke-linejoin:round;stroke-miterlimit:10;}
	.st52{fill:#FF83BB;}
	.st53{fill:#FF6B21;}
	.st54{fill:#FFAC78;}
	.st55{fill:#FFB988;}
	.st56{fill:none;stroke:#311326;stroke-width:0.8729;stroke-linecap:round;stroke-linejoin:round;stroke-miterlimit:10;}
	.st57{fill:none;stroke:#DBDBDB;stroke-width:1.7484;stroke-linecap:round;stroke-linejoin:round;stroke-miterlimit:10;}
	.st58{fill:none;stroke:#FFA46A;stroke-width:1.6;stroke-linecap:round;stroke-linejoin:round;stroke-miterlimit:10;}
	.st59{fill:#9E4C3E;}
	.st60{fill:#AD5E4C;}
	.st61{fill:none;stroke:#311326;stroke-width:1.012;stroke-linecap:round;stroke-linejoin:round;stroke-miterlimit:10;}
	.st62{clip-path:url(#SVGID_8_);fill:#FF76C5;}
	.st63{fill:none;stroke:#FF3D93;stroke-width:1.7;stroke-linecap:round;stroke-linejoin:round;stroke-miterlimit:10;}
	.st64{fill:#DDDDDD;}
	.st65{enable-background:new    ;}
</style>
<path class="st0" d="M337.1,63.9h-76.9c-5.4,0-9.7,4.3-9.7,9.7v161.8c0,5.4,4.3,9.7,9.7,9.7h76.9c5.4,0,9.7-4.3,9.7-9.7V73.6
	C346.8,68.2,342.5,63.9,337.1,63.9z"/>
<path class="st1" d="M242.2,114.6c0,0,2,1.6,4,3.9c3.3,3.7,2.9,3.8,4.3,6.9v-11L242.2,114.6z"/>
<rect x="256.4" y="82.4" class="st2" width="84.2" height="144"/>
<g>
	<path class="st3" d="M317.1,76h-26.9c-1,0-1.8-0.8-1.8-1.8l0,0c0-1,0.8-1.8,1.8-1.8h26.9c1,0,1.8,0.8,1.8,1.8l0,0
		C318.9,75.2,318.1,76,317.1,76z"/>
	<circle class="st4" cx="281" cy="74.3" r="2.9"/>
</g>
<g>
	<path class="st3" d="M304.5,235.6c0,3.2-2.6,5.8-5.8,5.8c-3.2,0-5.8-2.6-5.8-5.8s2.6-5.8,5.8-5.8S304.5,232.4,304.5,235.6z"/>
	<path class="st0" d="M303.6,235.6c0,2.7-2.2,4.9-4.9,4.9c-2.7,0-4.9-2.2-4.9-4.9s2.2-4.9,4.9-4.9
		C301.4,230.7,303.6,232.9,303.6,235.6z"/>
</g>
<path class="st5" d="M305.1,103.6h-39.8c-1.1,0-1.9,0.9-1.9,1.9v1L259,109l4.4,2.5v1.1c0,1.1,0.9,1.9,1.9,1.9h39.8
	c1.1,0,1.9-0.9,1.9-1.9v-7.2C307,104.5,306.2,103.6,305.1,103.6z"/>
<path class="st6" d="M291.2,130.2H331c1.1,0,1.9-0.9,1.9-1.9v-1l4.4-2.5l-4.4-2.5v-1.1c0-1.1-0.9-1.9-1.9-1.9h-39.8
	c-1.1,0-1.9,0.9-1.9,1.9v7.2C289.2,129.4,290.1,130.2,291.2,130.2z"/>
<path class="st6" d="M291.2,144.3H331c1.1,0,1.9-0.9,1.9-1.9v-1l4.4-2.5l-4.4-2.5v-1.1c0-1.1-0.9-1.9-1.9-1.9h-39.8
	c-1.1,0-1.9,0.9-1.9,1.9v7.2C289.2,143.5,290.1,144.3,291.2,144.3z"/>
<path class="st5" d="M322.4,150.2h-55.6c-1.7,0-3.1,1.4-3.1,3.1v0.1L259,156l4.7,2.7v8.1c0,1.7,1.4,3.1,3.1,3.1h55.6
	c1.7,0,3.1-1.4,3.1-3.1v-13.6C325.4,151.5,324.1,150.2,322.4,150.2z"/>
<path class="st6" d="M274.2,188.7h55.6c1.7,0,3.1,1.4,3.1,3.1v0.1l4.7,2.7l-4.7,2.7v8.1c0,1.7-1.4,3.1-3.1,3.1h-55.6
	c-1.7,0-3.1-1.4-3.1-3.1v-13.6C271.1,190.1,272.5,188.7,274.2,188.7z"/>
<path class="st5" d="M305.3,174.2h-39.8c-1.1,0-1.9,0.9-1.9,1.9v0.9l-4.6,2.7l4.6,2.7v0.9c0,1.1,0.9,1.9,1.9,1.9h39.8
	c1.1,0,1.9-0.9,1.9-1.9v-7.2C307.3,175.1,306.4,174.2,305.3,174.2z"/>
<rect x="256.4" y="82.4" class="st6" width="84.2" height="14.8"/>
<rect x="256.4" y="214.8" class="st5" width="84.2" height="11.6"/>
<g>
	<polygon class="st7" points="340.6,82.4 256.4,226.4 256.4,190.2 318.9,82.4 	"/>
	<polygon class="st7" points="256.4,157.1 300.1,82.4 277.8,82.4 256.4,118.3 	"/>
</g>
<path class="st8" d="M277.5,168.5c0,0-8,3.4-15.4,6.8c-3,1.4-7.3,4.2-11.6,7.5v52.6c0,5.4,4.3,9.7,9.7,9.7h2
	c2.6-9.9-1.9-29.9-1.8-32.7c0.1-3.4,3.1-13.1,13.4-25.4C284.2,174.8,277.5,168.5,277.5,168.5z"/>
<path class="st8" d="M335.8,236.8c-4.7,3.5-8.7,8.3-8.7,8.3h10c5.4,0,9.7-4.3,9.7-9.7v-22.6c-8.4-6.1-19.5-10.8-19.5-10.8
	s-5.3,11.6,4,18C340.6,226.4,340.6,233.2,335.8,236.8z"/>
<g>
	<g>
		<path class="st9" d="M250.5,157.5v-43.1c0,0-3.2-0.4-13.9,0.7c-8.8,1-14.6,13.5-21,21.3c-6.2,7.6-25.3,21.2-29.6,30.4
			c-10.1,21.6-10.3,42.9-12.7,58.2c-2.3,15.4-5.5,52-3.2,60.5s-3.2,22.9-3.2,22.9l45,15c0,0,4.6-10.9,10.4-17.2
			c5.8-6.3,19.6-19.1,24.8-32.7c4.6-12,5.9-31.7,5.9-31.7s0,0-1.3-1.7s-1.2-3.7-1.2-3.7l-0.1-28.5c0,0,9.3-18.8,18-26
			c12-9.9,11.7-23.1,3.8-26.5c-6.6-2.9-21.7,10.6-21.7,10.6L250.5,157.5L250.5,157.5z"/>
		<path class="st1" d="M250.5,162.7c0,0-18.5,16.4-22.7,20c-4.3,3.6-11.2,8.8-13.3,13c-3.3,6.5-6.3,25.3-6.3,25.3s5.2-22,13.7-29.8
			c6.5-5.9,28.6-25.2,28.6-25.2V162.7z"/>
		<path class="st1" d="M229.4,158.7c-0.9,0.8-4.9,3.8-8.7,3.1c-3.4-0.6-6-2.4-6-2.4s2,3,5.2,5.2c2.6,1.8,2.9,3.9,3.1,5.4
			c1.1,8.1,0,16.8,0,16.8l2.8-2.4c0,0.5-0.1,0.9-0.1,0.9l14-11L250,165l0.5-2.3v-19.6v-1v-11C250.5,131.1,236.8,151.6,229.4,158.7z"
			/>
		<path class="st10" d="M272.8,162.1c-0.4-1.5-4-6.5-6.6-6.2c-4.8,1.7-10.3,5.8-13.3,8.3l0,0c0,0,0.8,4.5,6.7,4.4
			C265.5,168.4,273.2,163.6,272.8,162.1z"/>
		<path class="st1" d="M251.8,240.2c-1.3-1.7-1.2-3.7-1.2-3.7l-0.1-28.5c0,0-3.7,6-3.8,10.9c-0.2,4.9,1.4,29-0.2,34.6l0,0
			c-0.1,0.3-0.2,0.5-0.2,0.7c-1.9,6.6-4.1,13.5-6.1,17.1c-4.5,8-10.9,14.7-17.1,19.8c-6.1,5.1-6.8,18-16.8,18.2
			c-24.9,0.6-36.1-12.8-36.1-12.8l0,0c-0.1,0.4-0.1,0.8-0.2,1.1c0,0.1,0,0.1,0,0.2c-0.1,0.3-0.1,0.6-0.2,0.9c0,0.1,0,0.2-0.1,0.2
			c-0.1,0.3-0.1,0.6-0.2,0.9c0,0.1,0,0.1,0,0.2c-0.2,0.7-0.3,1.4-0.5,2v0.1c-0.1,0.3-0.1,0.6-0.2,0.8c0,0.1,0,0.1,0,0.2
			c-0.1,0.3-0.1,0.5-0.2,0.7v0.1c-0.2,0.6-0.3,1.1-0.5,1.6v0.1c-0.1,0.2-0.1,0.4-0.2,0.6v0.1c-0.1,0.2-0.1,0.3-0.2,0.5v0.1
			c-0.1,0.4-0.2,0.7-0.3,0.9v0.1c0,0.1-0.1,0.1-0.1,0.2v0.1c0,0.1,0,0.1,0,0.1l0,0v0.1l43.9,14.7l0,0l1.1,0.4
			c0,0,4.6-10.9,10.4-17.2c5.8-6.3,19.6-19.1,24.8-32.7c4.6-12,5.9-31.7,5.9-31.7S253.1,241.9,251.8,240.2z"/>
		<path class="st11" d="M252.9,164.1c0,0,0.5,2.8,3.6,3.9c-0.1-0.5-0.2-1.1-0.3-1.7c-1-3.4-1.4-3.6-1.4-3.6
			C254,163.2,253.4,163.7,252.9,164.1L252.9,164.1z"/>
	</g>
	<g>
		<path class="st9" d="M346.8,186.6v-16.4c0,0,23.9,17.7,26.7,16.2c3.2-1.7-0.5-14.2-8.2-30.6c-4-8.6-18.6-32.9-18.6-32.9
			s0-12.9,0-16.4s8.7-2.9,12.5,1.2c6.8,7.2,20.7,21.6,27.2,30.2s47.8,66.4,53.8,86.5c6.9,23,2.7,50.4,3.7,57.2
			c1,6.8,9.4,22.7,9.4,22.7l-46.9,25.2c0,0-4.1-7.9-10.1-19.3c-2.9-5.6-24.2-4.3-40.6-40c-7.4-16-24.3-25.1-22.2-25.1
			s4.1,0.6,8.3-1.3c4.3-1.9,4.9-8.4,4.9-8.4v-10.8c0,0-1.1-4.4-6.6-8.1c-12.8-8.7-16.8-19-12.5-26.8c2-3.6,5.6-4.3,12.3-0.6
			c6.7,3.8,6.7,4.1,6.7,4.1v-6.6H346.8z"/>
		<g>
			<path class="st9" d="M341.9,243.8c-1.7,0.7-3,1.1-4.1,1.3C339.3,244.9,340.7,244.5,341.9,243.8z"/>
			<path class="st9" d="M340.2,216.4c5.5,3.7,6.6,8.1,6.6,8.1v-31.4c0,0,0-0.4-6.7-4.1c-6.7-3.8-10.3-3-12.3,0.6
				C323.4,197.4,327.4,207.7,340.2,216.4z"/>
			<path class="st9" d="M344.6,241.6c1.4-1.7,2.2-3.8,2.2-6.2C346.8,235.4,346.5,238.9,344.6,241.6z"/>
		</g>
		<path class="st10" d="M346.8,193.1c0,0,0-0.4-6.7-4.1c-1.5-0.9-3-1.5-4.4-2c-0.2,0-3.6,0.6-4.6,3.6c-1.1,3.1-0.7,6.5,5.8,9.9
			s11.9,0.1,12.3-1.6c0.4-1.8,1.4-7,1.4-7s-1.7-1.7-3.7-3.5L346.8,193.1L346.8,193.1z"/>
		<path class="st1" d="M453.4,304.2c0,0-0.8-1.6-2-4l-1.7-3.5c0,0-23.5,14.7-36.2,13.2c-10-1.2-10.7-4.7-15.4-7.5
			c-8.5-5.2-20.3-10.3-26.7-18.1c-6.4-7.8-17.2-28.1-18.6-37.3c-1.8-12.2-6-22.5-6-22.5v10.8c0,0,0,0.4-0.2,1c0,0.2-0.1,0.3-0.1,0.5
			c-0.5,2-1.7,5.5-4.6,6.8c-1.1,0.5-2,0.8-2.8,1c-0.2,0.1-0.4,0.1-0.6,0.1c-0.4,0.1-0.7,0.1-1.1,0.2c-0.8,0.1-1.6,0.1-2.3,0.1
			c-0.5,0-1.1-0.1-1.6-0.1c-0.4,0-0.1,0.3,0.6,0.9c0.4,0.3,0.9,0.7,1.5,1.2c0.3,0.2,0.6,0.5,0.9,0.7c0.4,0.3,0.7,0.6,1.1,0.9
			c1.5,1.2,3.3,2.7,5.3,4.5c3.2,3,6.7,6.7,9.6,11.2c0.3,0.4,0.6,0.9,0.9,1.4c0.8,1.4,1.6,2.8,2.3,4.3c0.5,1,0.9,2,1.4,3
			c0.1,0.1,0.1,0.3,0.2,0.4c0.5,0.9,0.9,1.8,1.4,2.6c0.1,0.2,0.2,0.3,0.3,0.5c0.5,0.9,0.9,1.7,1.4,2.5c0.1,0.1,0.1,0.2,0.2,0.3
			c0.5,0.8,1,1.6,1.5,2.4c0,0,0,0.1,0.1,0.1c0.5,0.8,1,1.5,1.5,2.3c0.1,0.1,0.1,0.2,0.2,0.3c0.5,0.7,1,1.4,1.5,2
			c0.1,0.1,0.1,0.2,0.2,0.2c0.5,0.7,1,1.3,1.5,2l0,0c0.5,0.7,1.1,1.3,1.6,1.9l0,0c0.5,0.6,1,1.2,1.6,1.7l0.1,0.1
			c0.5,0.6,1,1.1,1.6,1.6l0,0c0.3,0.3,0.7,0.7,1,1c0.1,0.1,0.1,0.1,0.2,0.2c0.3,0.3,0.6,0.5,0.9,0.8c0.1,0,0.1,0.1,0.2,0.1
			c0.3,0.3,0.7,0.6,1,0.9l0.1,0.1c0.3,0.3,0.6,0.5,0.9,0.7c0.1,0.1,0.1,0.1,0.2,0.2c0.3,0.3,0.6,0.5,0.9,0.7l0,0
			c0.3,0.3,0.7,0.5,1,0.7l0.1,0.1c0.3,0.2,0.6,0.4,0.8,0.6c0.1,0,0.1,0.1,0.2,0.1c0.6,0.4,1.3,0.8,1.9,1.2c0.1,0,0.1,0.1,0.2,0.1
			c0.3,0.2,0.6,0.3,0.8,0.5h0.1c0.3,0.2,0.6,0.4,0.9,0.5l0,0c0.3,0.2,0.6,0.3,0.9,0.5c0,0,0.1,0,0.1,0.1c0.6,0.3,1.2,0.6,1.7,0.9
			c0,0,0,0,0.1,0c0.3,0.1,0.5,0.3,0.8,0.4c0,0,0,0,0.1,0c1.5,0.7,2.8,1.3,4,1.9c0.1,0,0.2,0.1,0.2,0.1c0.1,0.1,0.2,0.1,0.3,0.2
			c0.2,0.1,0.3,0.2,0.5,0.2c0.1,0,0.1,0.1,0.2,0.1c0.1,0.1,0.2,0.1,0.4,0.2c0.1,0,0.1,0.1,0.2,0.1c0.2,0.1,0.3,0.2,0.5,0.2h0.1
			c0.1,0.1,0.3,0.2,0.4,0.2l0.1,0.1c0.1,0.1,0.2,0.1,0.3,0.2c0,0,0.1,0,0.1,0.1c0.1,0.1,0.3,0.2,0.4,0.3c0,0,0,0,0.1,0.1
			s0.2,0.1,0.3,0.2l0.1,0.1c0.1,0.1,0.2,0.1,0.3,0.2c0,0,0,0,0.1,0.1s0.2,0.2,0.3,0.3c0,0,0,0.1,0.1,0.1c0.1,0.1,0.1,0.2,0.2,0.2
			c0,0,0,0.1,0.1,0.1c0.1,0.1,0.1,0.2,0.2,0.3l0,0c2.3,4.3,4.2,8.1,5.8,11.1c0.3,0.5,0.5,1,0.8,1.5c2.2,4.2,3.5,6.7,3.5,6.7
			L453.4,304.2z"/>
		<path class="st11" d="M349.2,198.9c0.4-1.8,1.4-7,1.4-7s-0.7-0.7-1.8-1.7c-0.3,0.7-0.7,1.7-1.1,3.5c-0.6,2.3-0.4,5.1-0.1,7.1
			C348.4,200.1,349,199.4,349.2,198.9z"/>
		<path class="st1" d="M380.3,213.6c-9.9-8.6-19.6-16.1-17.3-21.6c2.1-4.9,7.3,0,11.1,2.7c5.5,3.8,14.9,8.9,14.9,8.9
			s-5.8-7.9-7.3-11.7c-1.6-3.8-4.1-9.8-4.6-14.6s-3-10.7-3.9-13.1c-2.3-6,12.2-9.6,12.2-9.6s-8.7,1.6-10.4,1.2
			c-1.7-0.4-5.9-1.2-8.4-6.7c-1.2-2.6-4-8-8.1-14.2c-2.5-3.8,10.7-7.5,10.7-7.5s-14.1,2.4-14.9,0.7c-3-7-7.4-15.1-7.4-15.1
			c0,4.8,0,10.2,0,10.2s14.5,24.3,18.6,32.9c0.3,0.6,0.5,1.1,0.8,1.7c0.1,0.2,0.2,0.4,0.2,0.5c0.2,0.4,0.3,0.7,0.5,1.1
			c0.1,0.2,0.2,0.4,0.3,0.6c0.2,0.3,0.3,0.7,0.5,1c0.1,0.2,0.2,0.4,0.3,0.6c0.2,0.3,0.3,0.7,0.4,1c0.1,0.2,0.2,0.4,0.2,0.6
			c0.2,0.4,0.4,0.8,0.5,1.3c0,0.1,0.1,0.2,0.1,0.3c0.2,0.5,0.4,1,0.6,1.5c0.1,0.1,0.1,0.3,0.2,0.4c0.1,0.3,0.3,0.7,0.4,1
			c0.1,0.2,0.1,0.4,0.2,0.5c0.1,0.3,0.2,0.6,0.3,0.9c0.1,0.2,0.1,0.4,0.2,0.5c0.1,0.3,0.2,0.6,0.3,0.9c0.1,0.2,0.1,0.3,0.2,0.5
			c0.1,0.3,0.2,0.6,0.3,0.9c0,0.1,0.1,0.3,0.1,0.4c0.1,0.4,0.3,0.9,0.4,1.3c0,0.1,0.1,0.2,0.1,0.3c0.1,0.3,0.2,0.6,0.3,1
			c0,0.1,0.1,0.3,0.1,0.4c0.1,0.3,0.2,0.5,0.2,0.8c0,0.1,0.1,0.3,0.1,0.4c0.1,0.2,0.1,0.5,0.2,0.7c0,0.1,0.1,0.3,0.1,0.4
			c0.1,0.2,0.1,0.5,0.2,0.7c0,0.1,0.1,0.2,0.1,0.3c0.1,0.3,0.2,0.7,0.2,1l0,0l0,0l0,0c0.1,0.5,0.2,0.9,0.2,1.4l0,0l0,0
			c0.1,0.5,0.1,0.9,0.2,1.3l0,0c0.1,1.2,0.1,2.2-0.2,3l0,0c-0.2,0.6-0.5,1.1-0.9,1.3c-2.1,1.1-16.2-8.6-23-13.5l-3.7-2.2v15.9v4.1
			v2.4c0,0,25.8,17.7,31.3,23.1c6.1,6,20.7,24.8,20.7,24.8S388,220.3,380.3,213.6z"/>
	</g>
	<path class="st12" d="M218.8,341.5l3.8-9.8c1.5-4-0.5-8.5-4.4-10L163,300.5c-4-1.5-8.5,0.5-10,4.4l-14,36.5h79.8V341.5z"/>
	<path class="st13" d="M218.1,321.7l-55.2-21.2c-3.8-1.5,24.7,15.3,27.6,29c1,4.6,0.1,12,0.1,12h28.1l3.8-9.8
		C224.1,327.7,222.1,323.2,218.1,321.7z"/>
	<path class="st12" d="M397.4,341.5h84.9l-15.9-37.2c-1.8-4.1-6.6-6-10.7-4.3l-56.8,24.3c-4.1,1.8-6,6.6-4.3,10.7L397.4,341.5z"/>
	<path class="st13" d="M398.9,324.3c-4.1,1.8-6,6.6-4.3,10.7l2.8,6.5H426c0,0-2.7-4.8-2.8-12c-0.1-9.2,5.1-17.8,5.1-17.8
		L398.9,324.3z"/>
</g>
<path class="st14" d="M298-210.5H154.9c-22.6,0-40.9,18.3-40.9,40.9l0,0c0,22.6,18.3,40.9,40.9,40.9H298c22.6,0,40.9-18.3,40.9-40.9
	l0,0C338.9-192.2,320.6-210.5,298-210.5z"/>
<g>
	<g>
		<ellipse class="st15" cx="156" cy="-169.6" rx="34.2" ry="34.2"/>
		<g>
			<g>
				<defs>
					<circle id="SVGID_1_" cx="156" cy="-169.6" r="34.2"/>
				</defs>
				<clipPath id="SVGID_2_">
					<use xlink:href="#SVGID_1_"  style="overflow:visible;"/>
				</clipPath>
				<g class="st16">
					<g>
						<g>
							<path class="st17" d="M167.1-169.2c0,0-0.9,2.6-2,3.7c-1.1,1.1-2.1,1.4-2.1,1.4l2-5.4L167.1-169.2z"/>
						</g>
						<g>
							<path class="st17" d="M145.3-169.2c0,0,0.9,2.6,2,3.7c1.1,1.1,2.1,1.4,2.1,1.4l-2-5.4L145.3-169.2z"/>
						</g>
					</g>
					<path class="st5" d="M176.3-144.1c-1.7-9.4-3.1-14.2-13.8-14.6l-6.5,8l-6.5-8c-10.6,0.4-12,5.2-13.8,14.6
						c-0.9,5.1-1.1,12.1-1.1,12.1h21.3h0.2h21.3C177.4-132,177.2-139,176.3-144.1z"/>
					<g>
						<path class="st18" d="M161.4-160.7c0-1.1,0-7.1,0-7.1H156h-5.4c0,0,0,6,0,7.1c0,1.6-0.4,1.9-1.1,2.1c1.2,2,2.9,10.7,6.7,10.8
							c3.8,0,5.2-8.7,6.4-10.8C161.8-158.9,161.4-159.1,161.4-160.7z"/>
					</g>
					<g>
						<g>
							<g>
								<path class="st18" d="M166.3-168.7c1.6,0.3,3-1.9,3-4.2c0-1.3-0.8-2.8-2.2-2.5c-1.7,0.4-1.9,1.9-1.9,1.9v3.6
									C165.2-169.8,165.5-168.9,166.3-168.7z"/>
							</g>
							<g>
								<path class="st19" d="M166-169.2c1.1,0.3,2-1.4,2-3.2c0-1-0.6-2.1-1.4-1.9c-1.1,0.3-1.3,1.5-1.3,1.5v2.7
									C165.2-170.1,165.4-169.4,166-169.2z"/>
							</g>
						</g>
						<g>
							<g>
								<path class="st18" d="M146.2-168.7c-1.6,0.3-3-1.9-3-4.2c0-1.3,0.8-2.8,2.2-2.5c1.7,0.4,1.9,1.9,1.9,1.9v3.6
									C147.3-169.8,147-168.9,146.2-168.7z"/>
							</g>
							<g>
								<path class="st19" d="M146.6-169.2c-1.1,0.3-2-1.4-2-3.2c0-1,0.6-2.1,1.4-1.9c1.1,0.3,1.3,1.5,1.3,1.5v2.7
									C147.3-170.1,147.1-169.4,146.6-169.2z"/>
							</g>
						</g>
					</g>
					<g>
						<path class="st19" d="M156-167.7h-5.4c0,0,0,3.1,0,5.2c1.6,1.9,3.8,3,6.6,3c1.6,0,3-0.4,4.2-1.1c0,0,0,0,0-0.1
							c0-1.1,0-7.1,0-7.1H156V-167.7z"/>
					</g>
					<g>
						<path class="st18" d="M164.1-182.8c-3.1-2.2-12.5-2.2-15.6,0c-2.4,1.7-3.5,7.9-2.1,12.7c1.7,5.8,4.6,9.6,9.9,9.7
							c5.3-0.1,8.2-3.9,9.9-9.7C167.6-174.9,166.5-181,164.1-182.8z"/>
					</g>
					<g>
						<polygon class="st20" points="160.5,-132 151.5,-132 153.5,-149.3 158.4,-149.3 						"/>
					</g>
					<g>
						<path class="st21" d="M155.1-153.1h1.9l1.8,4.6c0.2,0.5-0.2,1.1-0.7,1.1l-4.2-0.1c-0.6,0-0.9-0.6-0.7-1.1L155.1-153.1z"/>
					</g>
					<g>
						<path class="st22" d="M152.1-156.2c2.1,2.1,3,3.1,3,3.1s-1.4,5.2-2.3,4.4c-0.9-0.9-5.6-7.4-4.4-9.9c0.2-0.5,2.1-1,2.1-1
							S150.6-157.7,152.1-156.2z"/>
					</g>
					<g>
						<path class="st22" d="M159.9-156.2c-2.1,2.1-3,3.1-3,3.1s1.4,5.2,2.3,4.4c0.9-0.9,5.6-7.4,4.4-9.9c-0.2-0.5-2.1-1-2.1-1
							S161.4-157.7,159.9-156.2z"/>
					</g>
					<g>
						<path class="st17" d="M145.7-174.9c0,0,0,0.9,0,1.4s0.2,1.7,0.2,1.7s1.9-4.1,4.4-5.1c2.6-1,4.9-1.3,6.6-2.5s3.4-1.8,3.4-1.8
							s2.7,4.4,3.5,4.7c0.8,0.2,1.2,1,1.6,1.9c0.4,0.9,1,3.3,1,3.3s0.5-1.5,0.5-2.3s0-1.7,0-1.7s0.3-0.1,0.6,0s0.4,0.1,0.4,0.1
							s0.5-3.4,0-5.8c-0.4-2.2-1.8-7.4-6-7.1c-0.8,0.1-1.9-2.6-9.3-1.1c-2.6,0.5-5.4,2.1-7,5.6c-0.8,1.8-0.9,8.3-0.9,8.3
							s0.3,0.1,0.5,0.2C145.5-175.1,145.7-174.9,145.7-174.9z"/>
					</g>
					<path class="st23" d="M156.1-132h21.3c0,0-0.2-7-1.1-12.1c-1.5-8.1-2.7-12.7-9.8-14.2c-1.6,4.9-5.9,16-10.5,16.1
						c-4.7-0.1-8.9-11.2-10.5-16.1c-7,1.4-8.2,6.1-9.7,14.1c-0.9,5.1-1.1,12.1-1.1,12.1H156L156.1-132L156.1-132z"/>
				</g>
			</g>
		</g>
	</g>
	<path class="st24" d="M156-203.8v68.4c18.9,0,34.2-15.3,34.2-34.2S174.9-203.8,156-203.8z"/>
</g>
<g>
	<g>
		<path class="st15" d="M314.7-180.9h-98.3c-1.7,0-3.1,1.4-3.1,3.1l0,0c0,1.7,1.4,3.1,3.1,3.1h98.3c1.7,0,3.1-1.4,3.1-3.1l0,0
			C317.8-179.6,316.4-180.9,314.7-180.9z"/>
		<path class="st15" d="M314.7-165.9h-98.3c-1.7,0-3.1,1.4-3.1,3.1l0,0c0,1.7,1.4,3.1,3.1,3.1h98.3c1.7,0,3.1-1.4,3.1-3.1l0,0
			C317.8-164.5,316.4-165.9,314.7-165.9z"/>
		<path class="st15" d="M314.7-150.8h-98.3c-1.7,0-3.1,1.4-3.1,3.1l0,0c0,1.7,1.4,3.1,3.1,3.1h98.3c1.7,0,3.1-1.4,3.1-3.1l0,0
			C317.8-149.4,316.4-150.8,314.7-150.8z"/>
	</g>
	<path class="st15" d="M309.6-192.6c0-2.3,1.8-4.1,4.1-4.1s4.1,1.8,4.1,4.1s-1.8,4.1-4.1,4.1S309.6-190.4,309.6-192.6z"/>
	<path class="st15" d="M296.2-192.6c0-2.3,1.8-4.1,4.1-4.1s4.1,1.8,4.1,4.1s-1.8,4.1-4.1,4.1S296.2-190.4,296.2-192.6z"/>
	<path class="st15" d="M282.8-192.6c0-2.3,1.8-4.1,4.1-4.1s4.1,1.8,4.1,4.1s-1.8,4.1-4.1,4.1S282.8-190.4,282.8-192.6z"/>
</g>
<path class="st14" d="M206.7-138.1v20.9c0,3.4,4.1,5.1,6.5,2.7l24.3-24.3L206.7-138.1z"/>
<path class="st25" d="M277.5,23.7h-96.2c-19.7,0-35.6,16-35.6,35.6l0,0c0,19.7,16,35.6,35.6,35.6h96.2c19.7,0,35.6-16,35.6-35.6l0,0
	C313.1,39.7,297.2,23.7,277.5,23.7z"/>
<g>
	<g>
		<path class="st26" d="M292.1,49.5H166.9c-1.5,0-2.7,1.2-2.7,2.7l0,0c0,1.5,1.2,2.7,2.7,2.7h125.2c1.5,0,2.7-1.2,2.7-2.7l0,0
			C294.7,50.7,293.5,49.5,292.1,49.5z"/>
		<path class="st26" d="M292.1,62.6H166.9c-1.5,0-2.7,1.2-2.7,2.7l0,0c0,1.5,1.2,2.7,2.7,2.7h125.2c1.5,0,2.7-1.2,2.7-2.7l0,0
			C294.7,63.8,293.5,62.6,292.1,62.6z"/>
		<path class="st26" d="M292.1,75.7H166.9c-1.5,0-2.7,1.2-2.7,2.7l0,0c0,1.5,1.2,2.7,2.7,2.7h125.2c1.5,0,2.7-1.2,2.7-2.7l0,0
			C294.7,76.9,293.5,75.7,292.1,75.7z"/>
	</g>
	<circle class="st26" cx="291.2" cy="39.3" r="3.6"/>
	<circle class="st26" cx="279.5" cy="39.3" r="3.6"/>
	<circle class="st26" cx="267.9" cy="39.3" r="3.6"/>
</g>
<path class="st25" d="M287.7,86.8V105c0,2.9-3.6,4.4-5.6,2.3L261,86.2L287.7,86.8z"/>
<path class="st27" d="M464.3,65.7H350.9c-17.9,0-32.4,14.5-32.4,32.4l0,0c0,17.9,14.5,32.4,32.4,32.4h113.4
	c17.9,0,32.4-14.5,32.4-32.4l0,0C496.8,80.2,482.3,65.7,464.3,65.7z"/>
<g>
	<g>
		<path class="st28" d="M477.6,89.2H340.7c-1.3,0-2.4,1.1-2.4,2.4l0,0c0,1.3,1.1,2.4,2.4,2.4h136.9c1.3,0,2.4-1.1,2.4-2.4l0,0
			C480,90.3,479,89.2,477.6,89.2z"/>
		<path class="st28" d="M477.6,101.1H340.7c-1.3,0-2.4,1.1-2.4,2.4l0,0c0,1.3,1.1,2.4,2.4,2.4h136.9c1.3,0,2.4-1.1,2.4-2.4l0,0
			C480,102.2,479,101.1,477.6,101.1z"/>
		<path class="st28" d="M477.6,113H340.7c-1.3,0-2.4,1.1-2.4,2.4l0,0c0,1.3,1.1,2.4,2.4,2.4h136.9c1.3,0,2.4-1.1,2.4-2.4l0,0
			C480,114.1,479,113,477.6,113z"/>
	</g>
	<path class="st28" d="M473.5,79.9c0-1.8,1.5-3.3,3.3-3.3s3.3,1.5,3.3,3.3s-1.5,3.3-3.3,3.3S473.5,81.7,473.5,79.9z"/>
	<path class="st28" d="M463,79.9c0-1.8,1.5-3.3,3.3-3.3s3.3,1.5,3.3,3.3s-1.5,3.3-3.3,3.3C464.4,83.2,463,81.7,463,79.9z"/>
	<path class="st28" d="M452.4,79.9c0-1.8,1.5-3.3,3.3-3.3s3.3,1.5,3.3,3.3s-1.5,3.3-3.3,3.3C453.8,83.2,452.4,81.7,452.4,79.9z"/>
</g>
<path class="st27" d="M343.4,123.1v16.6c0,2.7,3.2,4,5.1,2.1l19.2-19.2L343.4,123.1z"/>
<g>
	<g>
		<g>
			<path class="st29" d="M-442.5-201.8c0,0,2.1,13-1.3,16.4c-6.5,6.5-26.6,9.6-16,37.5h92.3c0,0,4.6-11.1-5.7-17.6
				c0,0-3.6-2.5-1.4-10.1c2.2-7.5-3.3-12.9-10-21l-13.3-21.4L-442.5-201.8z"/>
			<ellipse class="st29" cx="-411.1" cy="-203.8" rx="31.5" ry="30.1"/>
			
				<ellipse transform="matrix(0.8694 -0.4941 0.4941 0.8694 45.1312 -214.2794)" class="st30" cx="-382.8" cy="-192.5" rx="8.2" ry="8.2"/>
			<polygon class="st30" points="-400.2,-173.5 -401,-137.3 -427.2,-138.8 -421.8,-192 			"/>
			<path class="st31" d="M-400.5-162.4c0,0-11.7-1.2-12.2-14.5l12.4,6.6L-400.5-162.4z"/>
			<path class="st30" d="M-384.9-221.6c2.1,1.7,3.4,4.2,3.9,6.8c1.6,7.8,4.6,21.6,1.9,29.8c-3.6,10.8-12.3,18.4-26.5,15.7
				c0,0-16.9-1.7-20.4-23.2C-431.6-226.6-402.5-236.5-384.9-221.6z"/>
			<g>
				<path class="st31" d="M-384-198.2c0.3,1,1.3,1.6,2.3,1.3s1.6-1.3,1.3-2.3c-0.3-1-1.3-1.6-2.3-1.3
					C-383.6-200.2-384.2-199.2-384-198.2z"/>
				<path class="st31" d="M-399.7-197.9c0.3,1,1.3,1.6,2.3,1.3s1.6-1.3,1.3-2.3c-0.3-1-1.3-1.6-2.3-1.3
					C-399.4-199.9-400-198.9-399.7-197.9z"/>
				<path class="st32" d="M-387.6-193.7l1.3,3.5c0.1,0.4-0.2,0.9-0.6,1l-2,0.4"/>
				<path class="st31" d="M-401.1-212.9c0,0,5.8-1,6.1,1.6c0,0,0.2,1.8-4.9,2.6s-7.1,0.7-7.7-1
					C-408.3-211.3-403.9-212.6-401.1-212.9z"/>
				<path class="st31" d="M-380-212.8c0,0-5-1.1-5.8,1.4c0,0-0.5,1.7,4,2.6c3.2,0.6,4.4,0.1,4.8-1.1
					C-376.7-211.2-378.1-212.5-380-212.8z"/>
				<g>
					<g>
						<path id="XMLID_5_" class="st33" d="M-384.8-185.9l-14.3,0.2c0,0,0.3,6.2,6.9,6.2C-385.6-179.6-384.8-185.9-384.8-185.9z"/>
					</g>
					<g>
						<g>
							<defs>
								<path id="SVGID_3_" d="M-384.8-185.9l-14.3,0.2c0,0,0.3,6.2,6.9,6.2C-385.6-179.6-384.8-185.9-384.8-185.9z"/>
							</defs>
							<clipPath id="SVGID_4_">
								<use xlink:href="#SVGID_3_"  style="overflow:visible;"/>
							</clipPath>
							<path class="st34" d="M-399.6-175.6c1.2,2.5,4.2,3.6,6.7,2.5c2.5-1.2,3.6-4.2,2.5-6.7c-1.2-2.5-4.2-3.6-6.7-2.5
								C-399.7-181.1-400.8-178.1-399.6-175.6z"/>
						</g>
					</g>
					<g>
						<g>
							<defs>
								<path id="SVGID_5_" d="M-384.8-185.9l-14.3,0.2c0,0,0.3,6.2,6.9,6.2C-385.6-179.6-384.8-185.9-384.8-185.9z"/>
							</defs>
							<clipPath id="SVGID_6_">
								<use xlink:href="#SVGID_5_"  style="overflow:visible;"/>
							</clipPath>
							<polygon class="st35" points="-383.8,-184 -400.1,-184 -400.1,-186.8 -383.8,-187.3 							"/>
						</g>
					</g>
				</g>
				<g>
					<path class="st36" d="M-391.1-198.7c-0.1,5.6-4.6,10.1-10,10c-5.5-0.1-9.9-4.6-9.8-10.2c0.1-5.6,4.6-10.1,10-10
						C-395.5-208.9-391.1-204.3-391.1-198.7z"/>
					
						<ellipse transform="matrix(1.154171e-02 -0.9999 0.9999 1.154171e-02 -174.6033 -573.7367)" class="st36" cx="-377.5" cy="-198.6" rx="9.7" ry="8.5"/>
					<path class="st37" d="M-391.1-198.7c-0.1,5.6-4.6,10.1-10,10c-5.5-0.1-9.9-4.6-9.8-10.2c0.1-5.6,4.6-10.1,10-10
						C-395.5-208.9-391.1-204.3-391.1-198.7z"/>
					
						<ellipse transform="matrix(1.154171e-02 -0.9999 0.9999 1.154171e-02 -174.6033 -573.7367)" class="st38" cx="-377.5" cy="-198.6" rx="9.7" ry="8.5"/>
					<path class="st37" d="M-391.1-198.7c0,0,2.2-2.5,5.2,0"/>
					<line class="st37" x1="-411" y1="-198.9" x2="-419.8" y2="-195.5"/>
				</g>
			</g>
			<path class="st29" d="M-424-197.8c1.3,0.6,26-14.3,13.5-30.5c0,0-18.8,4.4-17.7,30.5H-424z"/>
			<path class="st29" d="M-408.4-222.4c0,0,16.6-4.1,26.3,4.2c0,0-4.7-15-27.5-15.7l-8.6,19.1L-408.4-222.4z"/>
			<ellipse class="st29" cx="-435.2" cy="-233.8" rx="12.7" ry="12.7"/>
			<polygon class="st29" points="-418.8,-206.3 -420.4,-189.3 -426.3,-204.9 			"/>
			<g>
				<path class="st30" d="M-438.2-187.5c1.6,5.2,7.1,8.2,12.3,6.6c5.2-1.6,8.2-7.1,6.6-12.3s-7.1-8.2-12.3-6.6
					C-436.8-198.3-439.8-192.8-438.2-187.5z"/>
				<path class="st32" d="M-433.2-193.3c0,0,7.3-2.1,9.2,5.9"/>
			</g>
		</g>
		<g>
			<g>
				<path class="st39" d="M-377-132.8c0,0,14.1,8.4,14.1,30.2v62.5c0,7.8-5.6,14.4-13.3,15.6l0,0c-9.6,1.6-18.3-5.8-18.3-15.5
					l-0.6-82.3L-377-132.8z"/>
				<g>
					<path class="st30" d="M-326.3-80.6l6.8,8.8l-52,46.3c-6.6,4.9-16.1,2.3-19.3-5.3l0,0c-2.7-6.3,0-13.6,6.2-16.6L-326.3-80.6z"/>
					<g>
						<path class="st40" d="M-326.3-80.6l3.7-6.4c1.9-3.4,4.6-6.2,7.9-8.3l5.7-3.7c1.4-0.9,3.2-0.3,3.8,1.1l0,0
							c0.5,1.3,0.3,2.7-0.7,3.7L-311-89l27.3-7.8c1.2-0.4,2.4,0.4,2.6,1.6l0.1,0.8c0.2,1-0.4,1.9-1.3,2.2l-16,5.1l19.2-3.4
							c1.2-0.3,2.4,0.5,2.5,1.7l0.1,0.6c0.1,1-0.5,2-1.5,2.2l-19.9,4.1l16.5-0.3c1.3-0.1,2.3,1.1,2.1,2.4v0.3
							c-0.2,0.9-0.9,1.5-1.7,1.7l-17.1,2.2h10.5c1.5,0,2.5,1.6,1.8,2.9l0,0c-0.3,0.6-0.9,1.1-1.6,1.1l-38.3,3.5L-326.3-80.6z"/>
					</g>
				</g>
			</g>
			<g>
				<path class="st39" d="M-438.6-141.9c0,0-25.8,5.6-35.7,29.7c-9.9,24.1-3,106.8-3,106.8s49.2,23.1,92.1-2.9l8.3-124.4
					c0,0-9.6-6.9-17.4-11.3L-438.6-141.9z"/>
				<path class="st30" d="M-418.8-149.6c0,0-7.2,1.6-19.8,7.7c0,0,18.8,14.6,33.6,32.2c0,0,11.6-11.9,10.5-34.3l-14.7-5.5
					L-418.8-149.6L-418.8-149.6z"/>
				<line class="st41" x1="-378.9" y1="-103.6" x2="-382.5" y2="-50.1"/>
			</g>
		</g>
	</g>
	<g>
		<g>
			<g>
				<path class="st42" d="M-426.5-289.2h-40.7c-12.3,0-22.2-10-22.2-22.2v-11.4c0-12.3,10-22.2,22.2-22.2h40.7
					c12.3,0,22.2,10,22.2,22.2v11.4C-404.3-299.1-414.2-289.2-426.5-289.2z"/>
			</g>
			<path class="st42" d="M-439.4-294.3l12.1,15.3c1.3,1.7,4,0.3,3.4-1.7l-4.2-15.9L-439.4-294.3z"/>
		</g>
	</g>
</g>
<g>
	<g>
		<g>
			<path class="st42" d="M-546,0.3c0,0,32.8,6.6,59.6-6.5l8.9-112.6l-31.9-32.5L-541-158l-17.4,63.3L-546,0.3z"/>
			<g>
				<path class="st43" d="M-540.9-158c0,0,4.6,112.4,3.4,168l-24.3-2.9c-12.9-1.5-22.5-12.6-22.1-25.6l2.5-86.5l2.8-37.4
					c0.2-3.2,2.3-6.1,5.3-7.3C-566.9-152.2-554.9-156.4-540.9-158z"/>
				<g>
					<path class="st44" d="M-624.1-34.5l-8.7,15.2c0,0-17.1,1.1-32.8,8.5c-0.8,0.4-1.3,1.3-1.2,2.3l0,0c0.2,1.3,1.5,2.1,2.7,1.7
						l11.7-3.5c0,0-11.5,4.7-20.4,9.8c-1.2,0.7-1.7,2.2-1.1,3.4l0,0c0.6,1.3,2.1,1.9,3.4,1.4l19-7.4l-17.7,9.8
						c-1.4,0.8-1.9,2.5-1.2,3.9l0,0c0.7,1.4,2.5,2,3.9,1.3l17.1-8.3l-13.4,9.4c-1.7,1.2-1.9,3.7-0.4,5.2l0,0
						c1.1,1.1,2.9,1.3,4.2,0.4c5.3-3.5,18.5-11.6,27.1-11.3c0,0-2.1,3.3-5.7,6.7c-1.7,1.7-1.6,4.5,0.4,5.9l0,0c1.3,1,3.1,1,4.4,0
						l10.1-7c1.9-1.3,3.3-3.3,3.9-5.5l3.4-12.2l14.6-13.8L-624.1-34.5z"/>
					<g>
						<path class="st43" d="M-572.1-150.2c0,0-4.7-0.3-20,19.4c-15.8,20.3-43.3,110.7-43.3,110.7l27.6,20.9l46.8-101.9L-572.1-150.2
							z"/>
						<line class="st45" x1="-582.4" y1="-54.4" x2="-566.1" y2="-89.9"/>
					</g>
				</g>
			</g>
			<g>
				<g>
					<path class="st43" d="M-485.5-148.6c0,0,24.2,7.5,33.3,96.7L-471.8-38L-485.5-148.6z"/>
					<g>
						<g>
							<g>
								<g>
									<path class="st44" d="M-403.4-83.4c0,0-8.8-6.8-0.6-18.2l12.3-17.8c1.1-1.6,3.4-1.8,4.8-0.5l0,0c1,0.9,1.3,2.3,0.8,3.5
										l-3.8,10.5l23.4-15.8c1.7-1.3,4.2-0.7,5.1,1.2l0,0c0.8,1.5,0.4,3.3-0.9,4.3l-15,11.7l0.3,0.9l17.3-9.8
										c1.9-0.9,4.1,0.2,4.6,2.3l0,0c0.4,1.5-0.4,3.1-1.8,3.8l-16.7,10.7l0.2,1.2l16.3-7c4-1.9,5.3,0,5.7,1.4l0,0
										c0.4,1.4-2.7,3.3-4,3.7l-16.8,8.5l0.2,1.1l15.6-6c1.5-0.2,2.8,1,2.7,2.6l0,0c-0.1,1.1-0.9,2-2,2.2l-17.8,7.6
										c0,0-16.3,11.1-23.6,4.8L-403.4-83.4z"/>
									<path class="st46" d="M-389.9-105.8c0,0,5.1,9.2-1.1,17.3"/>
								</g>
							</g>
							<polygon class="st44" points="-428.4,-81.9 -401.6,-93.2 -390,-77 -420,-60.8 							"/>
						</g>
						<g>
							<g>
								<g>
									<path class="st43" d="M-481.7-65.5l67.7-27.4l13.6,29.4l-59.1,39c-9.3,5.6-21.3,3-27.5-5.8l0,0
										C-494.1-40.5-492.6-59.7-481.7-65.5z"/>
								</g>
							</g>
							<line class="st45" x1="-455.8" y1="-76" x2="-464" y2="-72.7"/>
						</g>
					</g>
				</g>
				<g>
					<path class="st43" d="M-509.3-151.3c0,0,7.8,9.2,11,48.8C-495.1-62.9-494,5-494,5l0,0c13.8-2.8,23.6-15.2,23.2-29.3
						c-0.9-29.4-3-77.2-7.6-97.4l-4.3-22c-0.2-1-1.2-4.2-1.2-4.2s-3.5-3.2-25-8.1L-509.3-151.3z"/>
					<path class="st45" d="M-470.9-21.6c0,0,0.2-56.3-6.5-97.2"/>
				</g>
			</g>
		</g>
		<g>
			<path class="st47" d="M-543.2-196.8c0,0-7.7,12.5,3.6,12.1c0,0,4.7-3.9,3.7-11.2L-543.2-196.8z"/>
			<path class="st47" d="M-475.9-231.6c-0.2-2.4-1-4.9-2.4-7.4c-16.3-30.2-51.8-6.1-51.8-6.1l6.2,21.1
				C-509-232.9-491.4-236.6-475.9-231.6z"/>
			<path class="st48" d="M-523.8-224l6.9,27.4c0,0,43.4-12.5,41-35C-491.4-236.6-506.8-238.7-523.8-224z"/>
			<path class="st49" d="M-503.1-199.8c1.2,4.8,6.1,7.6,10.9,6.4c4.8-1.2,7.6-6.1,6.4-10.9c-1.2-4.8-6.1-7.6-10.9-6.4
				C-501.5-209.4-504.4-204.5-503.1-199.8z"/>
			<path class="st44" d="M-510.8-180.8l1.6,26.4c-0.7,10.7-13.8,15.4-21.1,7.7l-10.6-11.3l3.2-46.1L-510.8-180.8z"/>
			<path class="st31" d="M-510-167.8c0,0-17.3-0.7-18.6-18.2l17.8,5.1L-510-167.8z"/>
			<path class="st44" d="M-492.6-238c0,0,5.7,36.1,1.2,47.4c-4.4,11.4-14.3,18.3-29.5,14.9c0,0-17.8-1.4-21-27.2
				C-546.7-241.7-510.1-259.1-492.6-238z"/>
			<g>
				<path class="st50" d="M-495.6-208.3c0.2,1.1,1.3,1.8,2.4,1.5c1.1-0.2,1.8-1.3,1.5-2.4c-0.2-1.1-1.3-1.8-2.4-1.5
					C-495.1-210.4-495.8-209.4-495.6-208.3z"/>
				<path class="st50" d="M-512.8-208.6c0.2,1.1,1.3,1.8,2.4,1.5s1.8-1.3,1.5-2.4c-0.2-1.1-1.3-1.8-2.4-1.5
					C-512.3-210.8-513-209.7-512.8-208.6z"/>
				<polyline class="st51" points="-499.3,-206.8 -497.3,-199.8 -500.6,-198.2 				"/>
				<path class="st33" d="M-514.1-223.1c0,0,6.3-1.5,6.8,1.9c0,0,0.3,2.3-5.3,3.5c-5.5,1.2-7.8,1.1-8.5-1
					C-521.9-220.8-517.1-222.7-514.1-223.1z"/>
				<path class="st33" d="M-490.4-223.6c0,0-5.9-1.5-6.5,1.9c0,0-0.4,2.3,4.8,3.4c3.8,0.8,5.1,0.1,5.4-1.5
					C-486.5-221.5-488.2-223.2-490.4-223.6z"/>
				<path class="st5" d="M-510.4-195.2l11.8,0.9c0,0-0.1,4.6-6.1,4.2C-510.7-190.5-510.4-195.2-510.4-195.2z"/>
			</g>
			<path class="st47" d="M-533-205.1l1.7-13.1c0,0,10.4-3.3,12.9-23c0,0-4.4-9-17.7-4.9s-24.9,13.8-10.3,38L-533-205.1z"/>
			<g>
				<path class="st44" d="M-553.9-199.7c1.5,5.8,7.4,9.2,13.2,7.7s9.2-7.4,7.7-13.2s-7.4-9.2-13.2-7.7
					C-551.9-211.4-555.4-205.5-553.9-199.7z"/>
				<path class="st51" d="M-548.2-205.8c0,0,8-2,9.8,6.8"/>
			</g>
			<g>
				<path class="st47" d="M-518.3-241.2c0,0,13.2-2.1,26.3,6.2l-2.8-11.7l-17.3-2.4l-16.5,6.2l4.1,0.4L-518.3-241.2z"/>
				<path class="st47" d="M-492.1-235c0,0,19.9,0,20,14.5c0,0.3,0.4,0.3,0.5,0c0.9-5.4-0.1-20.1-22-18.4L-492.1-235z"/>
			</g>
		</g>
	</g>
	<g>
		<g>
			<path class="st52" d="M-587-235h-44.4c-14.2,0-25.8-11.5-25.8-25.8v-8.2c0-14.2,11.5-25.8,25.8-25.8h44.4
				c14.2,0,25.8,11.5,25.8,25.8v8.3C-561.2-246.5-572.8-235-587-235z"/>
			<path class="st52" d="M-596.2-240.9l12.1,15.3c1.3,1.7,4,0.3,3.4-1.7l-4.2-15.9L-596.2-240.9z"/>
		</g>
	</g>
</g>
<g>
	<g>
		<g>
			<path class="st53" d="M-267.2-217.9c0,0,3.8,23.6,12.3,36.8c1.6,2.5,0.7,5.9-1.7,7.5c-9.6,6.2-36.6,18-71.1,4.5
				c-2.3-0.9-3.7-3.3-3.4-5.8c0.7-6.4,6.2-18.9,14.4-30.1L-267.2-217.9z"/>
			<path class="st54" d="M-315-196c-1.3,4.2-5.7,6.6-9.9,5.3c-4.2-1.3-6.6-5.7-5.3-9.9c1.3-4.2,5.7-6.6,9.9-5.3
				C-316.1-204.7-313.7-200.2-315-196z"/>
			<polygon class="st55" points="-305.7,-179.8 -304.9,-147.5 -279.8,-150.5 -284.5,-197.9 			"/>
			<path class="st31" d="M-305.4-167.8c0,0,11.4-0.6,11.9-13.6l-12.1,6.4L-305.4-167.8z"/>
			<path class="st55" d="M-320.6-226.8c-2,1.7-3.3,4.1-3.8,6.7c-1.5,7.6-4.5,23.5-1.8,31.6c3.5,10.5,12.1,17.2,25.9,14.6
				c0,0,16-0.7,20-24.3C-274.8-231.6-303.4-241.3-320.6-226.8z"/>
			<g>
				<circle class="st31" cx="-323.3" cy="-202.8" r="1.8"/>
				<path class="st31" d="M-306.1-202c-0.3,1-1.3,1.6-2.2,1.3c-1-0.3-1.6-1.3-1.3-2.2c0.3-1,1.3-1.6,2.2-1.3
					C-306.4-204-305.9-203-306.1-202z"/>
				<polyline class="st56" points="-318.4,-198.3 -320.2,-193.9 -317.3,-193.2 				"/>
				<path class="st53" d="M-306.1-213.1c0,0-5.7-1-6,1.6c0,0-0.2,1.8,4.8,2.5c4.9,0.8,6.9,0.6,7.5-1
					C-299.1-211.6-303.4-212.9-306.1-213.1z"/>
				<path class="st53" d="M-325.4-213c0,0,4.9-1.1,5.6,1.4c0,0,0.4,1.7-3.9,2.5c-3.2,0.6-4.3,0.1-4.6-1.1
					C-328.6-211.6-327.2-212.8-325.4-213z"/>
				<path class="st5" d="M-318.6-189.8l10.2,0.2c0,0,0,4.1-5.2,4C-318.8-185.7-318.6-189.8-318.6-189.8z"/>
			</g>
			<path class="st53" d="M-286.5-200.7c0,0-8.4-7.4-6.7-21.8c0,0-14.2,2.5-31.1,1.3c0,0,3.8-22.3,35.8-16.9
				c33.3,5.5,21,44.1,8.6,55.3L-286.5-200.7z"/>
			<g>
				
					<ellipse transform="matrix(0.8755 -0.4832 0.4832 0.8755 60.3824 -159.6226)" class="st55" cx="-279.6" cy="-197" rx="9.7" ry="9.7"/>
				<path class="st56" d="M-275.3-199.9c0,0-7.1-2-9,5.8"/>
			</g>
			<path class="st53" d="M-300.6-238.9c0,0-27.9,0.5-31.4,22.6l44.2,1l2.6-14.8L-300.6-238.9z"/>
		</g>
		<g>
			<g>
				<polygon class="st55" points="-336.4,-93.3 -333.3,-51.5 -350.6,1.1 -331.4,1.1 -301.6,-27.8 -304.8,-90.6 				"/>
				<path class="st5" d="M-328.8-143.5c0,0-21.8,15.7-15.4,66.3h35.7L-328.8-143.5z"/>
			</g>
			<path class="st31" d="M-319.9-52l-12,52.8c44.8,12.7,86.4,0,86.4,0s-2.3-20.3-17.9-53.2L-319.9-52z"/>
			<g>
				<path class="st5" d="M-268.6-153l-43.8,0.7c0,0-9.6,3.2-16.4,8.8l1.4,37l7.5,54.5l56.5-0.4l11.1-84.7L-268.6-153z"/>
				<path class="st55" d="M-292.5-159.4c0,0,11.2,1.1,23.9,6.4c0,0-3.7,14.2-24.7,14.3c-3.5,0-7-0.5-10.3-1.8
					c-4.4-1.8-9.5-5.2-8.8-11.7L-292.5-159.4z"/>
				<line class="st57" x1="-324.2" y1="-78.1" x2="-328.3" y2="-107.9"/>
			</g>
			<g>
				<g>
					<path class="st55" d="M-237.8-50.1c0.1-1.1-2-52.4-2-52.4H-264l-0.4,38.3L-237.8-50.1z"/>
					<g>
						<g>
							<path class="st5" d="M-268.6-153c0,0,30.1,8.3,33.8,27s12.5,49.9,12.5,49.9l-46.3,0.1l3.5-62.8L-268.6-153z"/>
						</g>
						<line class="st57" x1="-266.9" y1="-72.7" x2="-270.8" y2="-100.4"/>
					</g>
				</g>
				<g>
					<path class="st55" d="M-302.1-102.5l-5.8,11.2l49.2,49.4c6.3,5.3,15.9,3.3,19.6-4.1l0,0c3.1-6.1,0.8-13.6-5.2-16.9l-6.9-4.7
						l-12.1-8.3L-302.1-102.5z"/>
					<g>
						<path class="st55" d="M-298.4-99.7v-7.4c0-3.9-0.9-7.7-2.7-11.1l-3.1-6.1c-0.7-1.4-2.6-1.9-3.9-0.9l0,0
							c-1.1,0.8-1.6,2.2-1.2,3.5l1.8,7l-17.7-19.2c-0.8-0.9-2.8-0.7-3.6,0.2l0,0c-0.6,0.7-0.8,2.1-0.2,2.8l9.5,11.6l-13-11.5
							c-0.9-0.8-2.6-0.6-3.4,0.4l0,0c-0.6,0.8-0.5,2.4,0.2,3.1l15,13.2l-14.1-8.5c-1.1-0.7-2.6-0.2-3,1l-0.1,0.2
							c-0.3,0.8,0,1.8,0.7,2.3l13.8,10.4l-9.1-5.2c-1.3-0.7-2.9,0.1-3,1.6l0,0c0,0.7,0.3,1.4,0.9,1.8l29.7,21.3L-298.4-99.7z"/>
					</g>
					<line class="st58" x1="-262.3" y1="-75.3" x2="-248.3" y2="-65.7"/>
				</g>
			</g>
		</g>
	</g>
	<g>
		<g>
			<path class="st52" d="M-305.5-264h44.4c14.2,0,25.8-11.5,25.8-25.8v-8.3c0-14.2-11.5-25.8-25.8-25.8h-44.4
				c-14.2,0-25.8,11.5-25.8,25.8v8.3C-331.3-275.6-319.7-264-305.5-264z"/>
			<path class="st52" d="M-290.2-270l-12.1,15.3c-1.3,1.7-4,0.3-3.4-1.7l4.2-15.9L-290.2-270z"/>
		</g>
	</g>
</g>
<g>
	<g>
		<g>
			<path class="st42" d="M-157.6-285.1h41.7c14.2,0,25.8-11.5,25.8-25.8v-8.3c0-14.2-11.5-25.8-25.8-25.8h-41.7
				c-14.2,0-25.8,11.5-25.8,25.8v8.3C-183.4-296.7-171.8-285.1-157.6-285.1z"/>
			<path class="st42" d="M-146.9-291.1l-12.1,15.3c-1.3,1.7-4,0.3-3.4-1.7l4.2-15.9L-146.9-291.1z"/>
		</g>
	</g>
	<g>
		<g>
			<ellipse class="st59" cx="-206.3" cy="-207.6" rx="9.2" ry="9.2"/>
			<polygon class="st60" points="-188,-185.5 -187.2,-149.5 -154.4,-151.8 -161.1,-210.3 			"/>
			<path class="st33" d="M-187.7-170.4c0,0,17.8-1.5,18.7-22.8l-19,8.7L-187.7-170.4z"/>
			<path class="st60" d="M-195-247c-8.2,3.2-13.8,11-14.7,19.8c-1.1,10.1-2,25.8,1.2,33.5c4.9,11.9,15.2,18.9,30.8,14.6
				c0,0,18.3-2.2,20.9-29.8C-153.6-241.5-176.5-254.3-195-247z"/>
			<g>
				<path class="st33" d="M-204.3-213.2c-0.2,1.1-1.3,1.9-2.4,1.7s-1.9-1.3-1.7-2.4c0.2-1.1,1.3-1.9,2.4-1.7
					C-204.8-215.4-204-214.4-204.3-213.2z"/>
				<path class="st33" d="M-186.6-214.1c-0.2,1.1-1.3,1.9-2.4,1.7s-1.9-1.3-1.7-2.4c0.2-1.1,1.3-1.9,2.4-1.7
					C-187.1-216.4-186.4-215.3-186.6-214.1z"/>
				<path class="st61" d="M-200.4-211.8l-1.5,6c-0.2,0.6,0.3,1.3,0.9,1.4l2.2,0.4"/>
				<path class="st33" d="M-184.7-227.7c0,0-6.6-1.4-6.9,2.2c0,0-0.2,2.4,5.5,3.4s8,0.9,8.7-1.3
					C-176.6-225.7-181.6-227.4-184.7-227.7z"/>
				<path class="st33" d="M-209-227.4c0,0,6-1.7,6.8,1.7c0,0,0.5,2.3-4.8,3.7c-3.8,1-5.2,0.3-5.6-1.3
					C-213.1-225.2-211.3-227-209-227.4z"/>
				<g>
					<g>
						<path id="XMLID_7_" class="st33" d="M-201.4-199.7l12.8,0.5c0,0-0.3,5.5-6.5,5.5C-201.5-193.7-201.4-199.7-201.4-199.7z"/>
					</g>
					<g>
						<g>
							<defs>
								<path id="SVGID_7_" d="M-201.4-199.7l12.8,0.5c0,0-0.3,5.5-6.5,5.5C-201.5-193.7-201.4-199.7-201.4-199.7z"/>
							</defs>
							<clipPath id="SVGID_8_">
								<use xlink:href="#SVGID_7_"  style="overflow:visible;"/>
							</clipPath>
							<path class="st62" d="M-188.3-190.2c-1.1,2.4-3.9,3.4-6.3,2.3c-2.4-1.1-3.4-3.9-2.3-6.3c1.1-2.4,3.9-3.4,6.3-2.3
								C-188.3-195.4-187.2-192.6-188.3-190.2z"/>
						</g>
					</g>
				</g>
			</g>
			<path class="st33" d="M-165.2-208.9c0,0-7.4-13.9-4.7-29.1c0,0-22.6,3.8-35.7-0.4c0,0,3.1-18.7,33.5-16.2
				c41.6,3.3,29.5,47.7,9.6,55.3L-165.2-208.9z"/>
			<g>
				<path class="st60" d="M-144.8-204.3c-1.4,6-7.3,9.7-13.3,8.4c-6-1.4-9.7-7.3-8.4-13.3c1.4-6,7.3-9.7,13.3-8.4
					S-143.4-210.3-144.8-204.3z"/>
				<path class="st61" d="M-150.9-210.4c0,0-8.3-1.7-9.8,7.4"/>
			</g>
		</g>
		<g>
			<g>
				<polygon class="st60" points="-232.5,-93.3 -232.5,-39.9 -257.5,4 -232.9,1.1 -203.1,-27.8 -206.3,-90.6 				"/>
				<path class="st29" d="M-215.5-145.7c0,0-19.4,11.3-22.5,39.4v39.9l31.7-1.1L-215.5-145.7z"/>
			</g>
			<g>
				<path class="st29" d="M-191.6-154.8c0,0-15.9,3-23.9,9.1l-2.4,143.1c51.1,30.8,109.5,0.9,109.5,0.9L-124.2-145
					c0,0-2.1-8.1-24.3-9.8H-191.6z"/>
				<path class="st60" d="M-148.5-154.7c0,0-18.3-4-43.1,0c0,0-2.4,14.7,17.6,15.4C-152.4-138.7-148.5-154.7-148.5-154.7z"/>
				<line class="st63" x1="-216.8" y1="-66.5" x2="-216.9" y2="-116.7"/>
			</g>
			<g>
				<g>
					<path class="st60" d="M-173.1-70.4c0,0-3.5-10.2-16.2-12.8l-8.9-8.7c-1.4-1.4-3.5-1.5-5.1-0.3l0,0c-1.7,1.3-2,3.6-0.8,5.3
						l4.4,6.1l-2.4-1c-3.8-1.6-7-4.5-8.9-8.2l-5.6-10.4c-0.6-1.2-1.9-1.9-3.2-1.9l0,0c-2.6,0-4.4,2.6-3.5,5l5.6,14.6
						c2.2,5.6,6.7,10.1,12.4,12.1l28.4,12.6L-173.1-70.4z"/>
					<path class="st60" d="M-173.1-70.4l78.9,30.2c6.8,3,10.1,14.6,7.1,21.3l0,0c-3.4,7.5-12.8,10.2-19.6,5.6L-176.9-58L-173.1-70.4
						z"/>
				</g>
				<g>
					<polygon class="st60" points="-86.1,-26.7 -94.3,-90.4 -132.6,-93.3 -119.2,-36.4 					"/>
					<g>
						<path class="st29" d="M-133.8-152c0,0,47.8,7.9,53.5,85.5h-58.8l-3.9-50.2L-133.8-152z"/>
						<polyline class="st63" points="-126.3,-66.5 -137.4,-66.5 -144.2,-106.5 						"/>
					</g>
				</g>
			</g>
		</g>
	</g>
</g>
<g>
	<text transform="matrix(1 0 0 1 154.6021 610.506)" class="st5" style="font-family:'Roboto-Medium'; font-size:38px;">Avisos importantes</text>
</g>
<path class="st64" d="M630.6,412.5H0.6v-61c0-11.9,9.7-21.6,21.6-21.6H609c11.9,0,21.6,9.7,21.6,21.6V412.5z"/>
<g>
	<text transform="matrix(1 0 0 1 214.74 498.6101)" style="font-family:'Roboto-Medium'; font-size:38px;">Nos leemos</text>
</g>
<g>
	<g class="st65">
		<path d="M239.2,383.5h-4.7l-12-19.2v19.2h-4.7v-27h4.7l12.1,19.2v-19.2h4.7v27H239.2z"/>
		<path d="M243.5,373.3c0-2,0.4-3.7,1.2-5.3c0.8-1.6,1.9-2.8,3.3-3.6c1.4-0.8,3-1.3,4.9-1.3c2.7,0,4.9,0.9,6.6,2.6s2.6,4.1,2.7,6.9
			v1.1c0,2-0.4,3.7-1.1,5.3s-1.8,2.8-3.3,3.6c-1.4,0.9-3.1,1.3-4.9,1.3c-2.8,0-5.1-0.9-6.8-2.8s-2.6-4.4-2.6-7.5L243.5,373.3
			L243.5,373.3z M248,373.7c0,2.1,0.4,3.7,1.3,4.9c0.9,1.2,2,1.8,3.6,1.8s2.7-0.6,3.6-1.8c0.8-1.2,1.3-2.9,1.3-5.2
			c0-2-0.4-3.6-1.3-4.8s-2.1-1.8-3.6-1.8s-2.6,0.6-3.5,1.8C248.4,369.6,248,371.4,248,373.7z"/>
		<path d="M277.2,378.1c0-0.8-0.3-1.4-1-1.8s-1.8-0.8-3.3-1.1c-1.5-0.3-2.8-0.7-3.8-1.2c-2.3-1.1-3.4-2.7-3.4-4.7
			c0-1.7,0.7-3.2,2.2-4.3c1.5-1.2,3.3-1.7,5.6-1.7c2.4,0,4.3,0.6,5.8,1.8c1.5,1.2,2.2,2.7,2.2,4.6H277c0-0.9-0.3-1.6-1-2.2
			c-0.6-0.6-1.5-0.9-2.6-0.9c-1,0-1.8,0.2-2.4,0.7s-0.9,1.1-0.9,1.8c0,0.7,0.3,1.2,0.9,1.6s1.8,0.8,3.5,1.2c1.8,0.4,3.2,0.9,4.2,1.4
			s1.8,1.2,2.2,1.9c0.5,0.8,0.7,1.7,0.7,2.7c0,1.8-0.7,3.3-2.2,4.4s-3.5,1.7-5.9,1.7c-1.6,0-3.1-0.3-4.4-0.9s-2.3-1.4-3-2.4
			s-1.1-2.2-1.1-3.4h4.4c0.1,1.1,0.5,1.9,1.2,2.5s1.7,0.9,3,0.9c1.2,0,2.1-0.2,2.7-0.7C276.9,379.4,277.2,378.8,277.2,378.1z"/>
		<path d="M299.9,383.5h-4.5V355h4.5V383.5z"/>
		<path d="M313.6,383.9c-2.9,0-5.2-0.9-6.9-2.7c-1.8-1.8-2.7-4.2-2.7-7.2v-0.6c0-2,0.4-3.8,1.2-5.4c0.8-1.6,1.9-2.8,3.3-3.7
			c1.4-0.9,3-1.3,4.7-1.3c2.7,0,4.8,0.9,6.3,2.6s2.2,4.2,2.2,7.4v1.8h-13.1c0.1,1.7,0.7,3,1.7,3.9c1,1,2.2,1.4,3.7,1.4
			c2.1,0,3.7-0.8,5-2.5l2.4,2.3c-0.8,1.2-1.9,2.1-3.2,2.8C316.8,383.5,315.3,383.9,313.6,383.9z M313.1,366.7c-1.2,0-2.2,0.4-3,1.3
			s-1.2,2.1-1.5,3.6h8.6v-0.3c-0.1-1.5-0.5-2.7-1.2-3.4C315.3,367.1,314.3,366.7,313.1,366.7z"/>
		<path d="M334,383.9c-2.9,0-5.2-0.9-6.9-2.7c-1.8-1.8-2.7-4.2-2.7-7.2v-0.6c0-2,0.4-3.8,1.2-5.4c0.8-1.6,1.9-2.8,3.3-3.7
			c1.4-0.9,3-1.3,4.7-1.3c2.7,0,4.8,0.9,6.3,2.6s2.2,4.2,2.2,7.4v1.8H329c0.1,1.7,0.7,3,1.7,3.9s2.2,1.4,3.7,1.4
			c2.1,0,3.7-0.8,5-2.5l2.4,2.3c-0.8,1.2-1.9,2.1-3.2,2.8C337.2,383.5,335.7,383.9,334,383.9z M333.5,366.7c-1.2,0-2.2,0.4-3,1.3
			s-1.2,2.1-1.5,3.6h8.6v-0.3c-0.1-1.5-0.5-2.7-1.2-3.4C335.7,367.1,334.7,366.7,333.5,366.7z"/>
		<path d="M349.8,363.4l0.1,2.1c1.4-1.6,3.3-2.5,5.8-2.5c2.7,0,4.5,1,5.5,3.1c1.5-2.1,3.5-3.1,6.2-3.1c2.2,0,3.9,0.6,4.9,1.8
			s1.6,3,1.7,5.4v13.2h-4.5v-13.1c0-1.3-0.3-2.2-0.8-2.8s-1.5-0.9-2.8-0.9c-1,0-1.9,0.3-2.5,0.8c-0.6,0.6-1.1,1.3-1.4,2.2v13.8h-4.5
			v-13.2c-0.1-2.4-1.3-3.5-3.6-3.5c-1.8,0-3.1,0.7-3.8,2.2v14.5h-4.5v-20.1h4.2V363.4z"/>
		<path d="M377.8,373.3c0-2,0.4-3.7,1.2-5.3c0.8-1.6,1.9-2.8,3.3-3.6c1.4-0.8,3-1.3,4.9-1.3c2.7,0,4.9,0.9,6.6,2.6s2.6,4.1,2.7,6.9
			v1.1c0,2-0.4,3.7-1.1,5.3s-1.8,2.8-3.3,3.6s-3.1,1.3-4.9,1.3c-2.8,0-5.1-0.9-6.8-2.8c-1.7-1.9-2.6-4.4-2.6-7.5L377.8,373.3
			L377.8,373.3z M382.3,373.7c0,2.1,0.4,3.7,1.3,4.9c0.9,1.2,2,1.8,3.6,1.8s2.7-0.6,3.6-1.8s1.3-2.9,1.3-5.2c0-2-0.4-3.6-1.3-4.8
			s-2.1-1.8-3.6-1.8s-2.6,0.6-3.5,1.8C382.7,369.6,382.3,371.4,382.3,373.7z"/>
		<path d="M411.5,378.1c0-0.8-0.3-1.4-1-1.8s-1.8-0.8-3.3-1.1c-1.5-0.3-2.8-0.7-3.8-1.2c-2.3-1.1-3.4-2.7-3.4-4.7
			c0-1.7,0.7-3.2,2.2-4.3c1.5-1.2,3.3-1.7,5.6-1.7c2.4,0,4.3,0.6,5.8,1.8s2.2,2.7,2.2,4.6h-4.5c0-0.9-0.3-1.6-1-2.2
			c-0.6-0.6-1.5-0.9-2.6-0.9c-1,0-1.8,0.2-2.4,0.7s-0.9,1.1-0.9,1.8c0,0.7,0.3,1.2,0.9,1.6s1.8,0.8,3.5,1.2c1.8,0.4,3.2,0.9,4.2,1.4
			s1.8,1.2,2.2,1.9c0.5,0.8,0.7,1.7,0.7,2.7c0,1.8-0.7,3.3-2.2,4.4s-3.5,1.7-5.9,1.7c-1.6,0-3.1-0.3-4.4-0.9s-2.3-1.4-3-2.4
			s-1.1-2.2-1.1-3.4h4.4c0.1,1.1,0.5,1.9,1.2,2.5s1.7,0.9,3,0.9c1.2,0,2.1-0.2,2.7-0.7C411.2,379.4,411.5,378.8,411.5,378.1z"/>
	</g>
</g>
</svg>
