<?xml version="1.0" encoding="utf-8"?>
<!-- Generator: Adobe Illustrator 24.3.0, SVG Export Plug-In . SVG Version: 6.00 Build 0)  -->
<svg version="1.1" id="Capa_1" xmlns="http://www.w3.org/2000/svg" xmlns:xlink="http://www.w3.org/1999/xlink" x="0px" y="0px"
	 viewBox="0 0 632.6 412.9" style="enable-background:new 0 0 632.6 412.9;" xml:space="preserve">
<style type="text/css">
	.st0{fill:#DDDDDD;}
	.st1{fill:none;stroke:#F7A59A;stroke-width:1.5;stroke-miterlimit:10;stroke-dasharray:5,4;}
	.st2{fill:#FFFFFF;}
	.st3{fill:#A4D2FF;}
	.st4{clip-path:url(#SVGID_2_);}
	.st5{fill:none;stroke:#2CA5FF;stroke-width:2;stroke-miterlimit:10;}
	.st6{fill:#2CA5FF;}
	.st7{clip-path:url(#SVGID_4_);}
	.st8{fill:#FF5A5A;}
	.st9{fill:#E03F3F;}
	.st10{fill:#242C77;}
	.st11{fill:#BC8E7E;}
	.st12{fill:#916B61;}
	.st13{fill:#060A47;}
	.st14{fill:#0471E9;}
	.st15{fill:#FF8376;}
	.st16{clip-path:url(#SVGID_6_);}
	.st17{fill:#92D6FF;}
	.st18{clip-path:url(#SVGID_8_);}
	.st19{fill:#664032;}
	.st20{clip-path:url(#SVGID_10_);}
	.st21{fill:none;stroke:#128CF9;stroke-width:1.5;stroke-miterlimit:10;}
	.st22{fill:#128CF9;}
	.st23{clip-path:url(#SVGID_12_);}
	.st24{fill:#E6F4FF;}
	.st25{fill:#CAEAFF;}
	.st26{fill:#FFCCB6;}
	.st27{fill:#F49D8C;}
	.st28{fill:none;stroke:#21329B;stroke-linecap:round;stroke-linejoin:round;stroke-miterlimit:10;}
	.st29{fill:#21329B;}
	.st30{fill:#19297C;}
	.st31{fill:#0E1663;}
	.st32{clip-path:url(#SVGID_14_);}
	.st33{fill:#FFDFD9;}
	.st34{clip-path:url(#SVGID_16_);}
	.st35{fill:#CCAA9E;}
	.st36{opacity:0.75;clip-path:url(#SVGID_18_);}
	.st37{fill:#4DBBFF;}
	.st38{clip-path:url(#SVGID_20_);fill:#4DBBFF;}
	.st39{clip-path:url(#SVGID_22_);fill:#4DBBFF;}
	.st40{clip-path:url(#SVGID_24_);fill:#4DBBFF;}
	.st41{clip-path:url(#SVGID_26_);fill:#4DBBFF;}
	.st42{clip-path:url(#SVGID_28_);fill:#4DBBFF;}
	.st43{clip-path:url(#SVGID_30_);fill:#4DBBFF;}
	.st44{clip-path:url(#SVGID_32_);fill:#4DBBFF;}
	.st45{clip-path:url(#SVGID_34_);fill:#4DBBFF;}
	.st46{clip-path:url(#SVGID_36_);fill:#4DBBFF;}
	.st47{fill:none;stroke:#0D54D3;stroke-miterlimit:10;}
	.st48{fill:#AD9087;}
	.st49{fill:#6B4125;}
	.st50{fill:#0D54D3;}
	.st51{clip-path:url(#SVGID_38_);}
	.st52{fill:#EACECC;}
	.st53{clip-path:url(#SVGID_40_);}
	.st54{fill:#FFE6E3;}
	.st55{fill:#F7A59A;}
	.st56{fill:#F9C3BD;}
	.st57{enable-background:new    ;}
</style>
<path class="st0" d="M630.6,412.5H0.6v-61c0-11.9,9.7-21.6,21.6-21.6H609c11.9,0,21.6,9.7,21.6,21.6V412.5z"/>
<g>
	<path class="st1" d="M413.4,116.9v-16.6c0-4.2-3.4-7.6-7.6-7.6H304.4c-4.2,0-7.6-3.4-7.6-7.6V33.6c0-4.2-3.4-7.6-7.6-7.6h-78.8
		c-4.2,0-7.6,3.4-7.6,7.6v58.1c0,4.2-3.4,7.6-7.6,7.6h-63.6c-4.2,0-7.6,3.4-7.6,7.6v135.6c0,4.2,3.4,7.6,7.6,7.6h334.6
		c4.2,0,7.6-3.4,7.6-7.6V132c0-4.2-3.4-7.6-7.6-7.6h-45.4C416.8,124.4,413.4,121,413.4,116.9z"/>
	<g>
		<path class="st2" d="M500.9,208.9H390.5c-4.5,0-8.2,3.7-8.2,8.2v73.2c0,4.5,3.7,8.2,8.2,8.2h110.4c4.5,0,8.2-3.7,8.2-8.2v-73.2
			C509.1,212.6,505.4,208.9,500.9,208.9z"/>
		<rect x="388.2" y="214.8" class="st3" width="115" height="77.7"/>
		<g>
			<g>
				<g>
					<g>
						<defs>
							<rect id="SVGID_1_" x="388.2" y="214.8" width="115" height="77.7"/>
						</defs>
						<clipPath id="SVGID_2_">
							<use xlink:href="#SVGID_1_"  style="overflow:visible;"/>
						</clipPath>
						<g class="st4">
							<line class="st5" x1="393.8" y1="238.4" x2="400.3" y2="231.9"/>
							<line class="st5" x1="419" y1="231.3" x2="427.7" y2="234.3"/>
							<line class="st5" x1="401.3" y1="264" x2="406.7" y2="268"/>
							<line class="st5" x1="486.1" y1="244.7" x2="495.2" y2="246.1"/>
							<line class="st5" x1="409.7" y1="289.9" x2="414.4" y2="285.7"/>
							<polygon class="st6" points="410.2,243.3 411,246.1 413.2,244 							"/>
							<polygon class="st6" points="487.1,220.3 485.8,222.9 488.8,222.8 							"/>
							<polygon class="st6" points="397.7,222.2 395.8,224.5 398.7,225.1 							"/>
							<polygon class="st2" points="392.7,276.7 389.9,277.6 392,279.7 							"/>
							<polygon class="st2" points="496.7,268.4 494.7,270.5 497.5,271.3 							"/>
							<polygon class="st2" points="497.7,222.5 498.6,225.3 500.6,223.2 							"/>
							<path class="st2" d="M402.2,249.1c0,0.5-0.4,1-1,1s-1-0.4-1-1s0.4-1,1-1S402.2,248.6,402.2,249.1z"/>
							<path class="st2" d="M426.6,219.2c0,0.5-0.4,1-1,1s-1-0.4-1-1s0.4-1,1-1S426.6,218.6,426.6,219.2z"/>
							<path class="st2" d="M481.1,230.9c0,0.5-0.4,1-1,1s-1-0.4-1-1s0.4-1,1-1S481.1,230.4,481.1,230.9z"/>
							<path class="st2" d="M485.2,289.2c0,0.5-0.4,1-1,1s-1-0.4-1-1s0.4-1,1-1S485.2,288.6,485.2,289.2z"/>
						</g>
					</g>
				</g>
			</g>
			<g>
				<g>
					<g>
						<defs>
							<rect id="SVGID_3_" x="388.2" y="214.8" width="115" height="77.7"/>
						</defs>
						<clipPath id="SVGID_4_">
							<use xlink:href="#SVGID_3_"  style="overflow:visible;"/>
						</clipPath>
						<g class="st7">
							<g>
								<path class="st8" d="M493.2,258c-3.2-4.7-9-6.9-12.7-11.2c-4.8-5.6-5.1-13.7-8.5-20.3c-3.2-6.3-9.4-10.7-16.2-12.3
									c-3.4-0.8-7-0.9-10.4-0.1c-1.8,0.4-3.4,1-5,1.8c-3.7,1.9-8.8,3.2-12,6.1c-3.3,3.1-5.5,7.6-5.9,12.1
									c-0.3,4.1,0.7,8.4-0.9,12.3c-1.5,3.8-5.2,6.1-7.6,9.4c-2.8,3.8-3.5,9.3-0.7,13.1c1.9,2.5,5.1,3.9,7,6.3
									c2.5,3.2,2.6,7.8,4.6,11.4c2.8,4.9,8.7,7,14,8.7c6.2,1.9,12.7,3.8,19.1,2.7c9.4-1.6,16.7-9.4,25.8-12
									c3.1-0.9,6.6-1.3,8.6-3.8c1.2-1.4,1.7-3.3,2.1-5.1C496,270.7,496.9,263.4,493.2,258z"/>
							</g>
							<g>
								<path class="st9" d="M492.5,282.1c1.2-1.4,1.7-3.3,2.1-5.1c0.2-0.7,0.3-1.4,0.4-2c0,0-0.1,0-0.1,0.1c-1.3,1.2-2,2.8-3.1,4.2
									c-2.2,2.7-5.6,4.3-9,4.1c-3.4-0.2-6.7-2.1-8.6-5.1c-1.1-1.8-2.7-3.2-4.7-4c-2.8-1.1-6.3,1.1-8.3-2.2c-1.2-2-0.3-4.7,0.6-6.7
									c1.7-4.1,2.1-5.6,1.7-8.6c-0.5-4.2-4.2-9.9-7.3-12.7c-3-2.9-6.4-5.6-8.2-9.5c-0.4-0.8-0.7-1.6-1.3-2.3
									c-0.9-0.9-2.3-1.1-3.6-1.2c-6.3-0.5-11,2.2-12.3,8.7c-0.5,2.6-0.6,5.3-1.3,7.9c-0.7,2.8-2,5.5-2.5,8.4
									c-0.5,3.8,0.8,7.7,3.1,10.7c5.8,7.3,4.5,16.9-5.9,18.5c0.2,0.4,0.4,0.9,0.6,1.3c2.8,4.9,8.7,7,14,8.7
									c6.2,1.9,12.7,3.8,19.1,2.7c9.4-1.6,16.7-9.4,25.8-12C486.9,285,490.4,284.6,492.5,282.1z"/>
							</g>
							<path class="st10" d="M440.5,279.2c0,0-17.2,3.5-22.1,29.2c0.8-0.3,55.4,1.4,55.4,0s7.7-2.8,7.7-2.8s-4.1-20.6-20.9-26"/>
							<path class="st11" d="M444.6,262.3v15.3l-4.1,1.7c0,0-1,6.1,4.1,7.3c7.7,1.9,16.1-6.9,16.1-6.9l-4.3-2.4l-4.1-20.4"/>
							<path class="st12" d="M453.9,265l-1.6-8.1l-7.7,5.4v8.2C447.9,269.5,451.4,267.8,453.9,265z"/>
							<path class="st11" d="M435.6,229.7c-2,6.5-3.8,13.1-5,19.7c-0.7,3.9-1.6,8.2,0,12c1.6,4,5.7,6.5,10,6.2s13.6-1.2,18.5-7.6
								s4.9-23,3.3-25.8C460.8,231.7,442.2,219.1,435.6,229.7z"/>
							<g>
								<path class="st8" d="M439.5,219.5c-6.6,1.5-7.5,5.5-8,10c-0.1,0.8,0,2.2,1,3.8c0.6,0.9,1.9,1.1,2.9,0.6s1.6-1.4,2.2-2.3
									c0,1.2,1.5,2,2.7,1.9c1.2-0.2,2.2-1,3.2-1.8c-1.6,3.1,2,7,5,4.7c0.7-0.5,1.9-1.8,2.4-2.4c-1.7,1.8,3.5,8.3,4,10
									c0.8,2.5,0.1,5.2,0.4,7.8c0.1,0.8,0.6,1.9,1.4,1.7c0.5-0.1,0.7-0.6,1.1-0.9c0.8-0.7,2-0.4,3-0.2c5.9,1.5,0,9.9,4.9,12.8
									c1.2,0.7,2.6,0.8,3.9,0.6c0.8-0.1,1.6-0.3,2.2-0.9c0.7-0.6,0.9-1.5,1.1-2.4c0.8-3.1,1.6-6.3,1.9-9.5
									c0.4-5.5-1.3-11.6-3.1-16.8c-1.3-3.8-2.8-7.5-5.2-10.7C460.6,217.6,448.5,214.8,439.5,219.5"/>
							</g>
							<g>
								<path class="st11" d="M458.2,252.5c1.2-1.1,3.4-0.9,4.4,0.4c0.4,0.5,0.6,1.1,0.7,1.7c0.5,2.6-0.9,5.9-3.3,6.9
									s-4.6,0.1-5-1.9"/>
							</g>
							<path class="st13" d="M434.5,242.8c0,0.5,0.4,1,1,1c0.5,0,1-0.4,1-1c0-0.5-0.4-1-1-1C435,241.9,434.5,242.3,434.5,242.8z"/>
							<path class="st13" d="M451.5,245.2c0,0.5-0.4,1-1,1c-0.5,0-1-0.4-1-1c0-0.5,0.4-1,1-1C451.1,244.3,451.5,244.7,451.5,245.2z"
								/>
							<g>
								<path class="st2" d="M435,256.6c1.1,1.5,4.4,2.2,6.3,1.4c0.3-0.1,0.6,0.1,0.6,0.4c0.2,3.3-2.4,4.8-5.2,4.1
									c-2.7-0.7-3.4-4.2-2.4-5.8C434.4,256.3,434.8,256.3,435,256.6z"/>
							</g>
							<g>
								<g>
									<path d="M439.7,246.1c-0.3,0.1-0.6,0.5-0.8,0.8c-0.5,0.6-1,1.3-1.4,2c-0.5,0.7-0.9,1.4-1.3,2.1c-0.4,0.8-0.5,1.6,0.1,2.3
										c0.4,0.4,0.9,0.7,1.5,0.8c0.6,0.2,1.4,0.4,2,0.1c0.1-0.1,0.1-0.2,0-0.3c-0.5-0.3-1.1-0.3-1.6-0.4c-0.5-0.1-1-0.3-1.3-0.6
										c-0.6-0.6-0.3-1.4,0.1-2c0.7-1.3,1.6-2.5,2.4-3.7c0.2-0.3,0.5-0.6,0.5-1C439.8,246.1,439.8,246.1,439.7,246.1L439.7,246.1z
										"/>
								</g>
							</g>
							<g>
								<g>
									<path class="st13" d="M448.4,241.6c1.1-0.3,2.3-0.3,3.2,0.3c0.9,0.5,1.4,1.3,1.9,2.2c0.1,0.1,0.2,0.1,0.2-0.1
										c-0.1-1.1-1-2-1.9-2.5c-1.1-0.6-2.4-0.7-3.5-0.2C448.1,241.4,448.2,241.7,448.4,241.6L448.4,241.6z"/>
								</g>
							</g>
							<g>
								<g>
									<path class="st13" d="M434.2,238.2c0.9-0.5,1.9-0.7,2.8-0.2c0.4,0.2,0.8,0.5,1,0.9c0.3,0.4,0.4,0.8,0.6,1.3
										c0,0.1,0.2,0.1,0.2,0c0.2-1.1-0.7-2.2-1.6-2.6c-1-0.5-2.3-0.4-3.2,0.5C433.9,238.1,434.1,238.3,434.2,238.2L434.2,238.2z"
										/>
								</g>
							</g>
						</g>
					</g>
				</g>
			</g>
		</g>
	</g>
	<g>
		<path class="st14" d="M401.6,163.9h48.5c4.3,0,7.8-3.5,7.8-7.8V79.4c0-4.3-3.5-7.8-7.8-7.8h-48.5c-4.3,0-7.8,3.5-7.8,7.8V156
			C393.8,160.4,397.3,163.9,401.6,163.9z"/>
		<rect x="398.7" y="76.5" class="st15" width="54.5" height="82.4"/>
		<g>
			<g>
				<g>
					<g>
						<defs>
							<rect id="SVGID_5_" x="398.7" y="76.5" width="54.5" height="82.4"/>
						</defs>
						<clipPath id="SVGID_6_">
							<use xlink:href="#SVGID_5_"  style="overflow:visible;"/>
						</clipPath>
						<g class="st16">
							<g>
								<g>
									<g>
										<path class="st8" d="M398.7,70.8c-0.8,2.4,0.4,4.8,1.9,6.7c1.6,2,3.5,3.7,5.7,5.1c4.6,3,9.9,4.5,15.2,5.2
											c5.8,0.8,11.9,0.1,17.3,2.7c4.9,2.3,8.7,6.3,12.6,10c2,1.9,4,3.7,6.2,5.2c2.1,1.5,4.6,3.1,7.3,3.1c2.2,0,4.5-1.2,5.1-3.5
											c0.6-2.5-0.8-4.8-2.6-6.4c-0.9-0.9-2-1.6-3-2.3c-1.3-0.9-2.5-1.8-3.8-2.8c-2.3-1.7-4.8-3.3-6.9-5.3c-2-2-3.2-4.6-4.6-7.1
											c-1.3-2.3-2.8-4.4-4.5-6.4c-7.6-8.6-19.4-10.9-30.4-10c-1.4,0.1-2.9,0.4-4.3,0.6c-0.4,0.1-0.3,0.7,0.1,0.7
											c10.6-1.2,22.6-0.7,31.2,6.5c1.9,1.6,3.6,3.6,5.1,5.6c1.5,2.1,2.7,4.4,4,6.7c1.3,2.3,3,4.2,5.1,5.8c2.2,1.7,4.5,3.3,6.8,5
											c2.1,1.5,4.6,2.9,6.1,5.1c1.4,2,1.6,5-0.8,6.4c-2.4,1.3-5.2,0.2-7.4-1.1c-2.3-1.4-4.4-3.1-6.3-4.8
											c-3.8-3.4-7.2-7.2-11.5-9.9c-2.1-1.3-4.3-2.4-6.7-3c-2.7-0.7-5.5-0.8-8.3-0.9c-5.6-0.3-11.2-1.1-16.3-3.3
											c-2.3-1-4.4-2.2-6.3-3.8c-1.9-1.5-3.8-3.4-4.8-5.6c-0.6-1.2-0.9-2.6-0.5-3.9C399.1,70.6,398.7,70.5,398.7,70.8L398.7,70.8
											z"/>
									</g>
								</g>
								<g>
									<g>
										<path class="st8" d="M403.2,70.6c5.4,9.2,17.3,10,26.5,12.6c9.6,2.7,17.9,8.5,24.1,16.3c3.2,4.1,7.4,9.5,13.3,8.7
											c0.4-0.1,0.3-0.7-0.1-0.6c-5.4,0.2-9.1-4-12.1-7.9c-3-3.8-6.3-7.2-10.2-10c-3.8-2.7-8-4.9-12.5-6.4
											c-5.2-1.8-10.7-2.4-16-4.1C411.2,77.7,406.2,75,403.2,70.6C403.3,70.4,403.2,70.5,403.2,70.6L403.2,70.6z"/>
									</g>
								</g>
								<g>
									<g>
										<path class="st8" d="M418.4,68.7c2.8,3.3,6.4,5.6,10.3,7.3c4.2,1.8,8.8,2.8,12.5,5.7c3.3,2.6,5.9,6,8.5,9.3
											c2.9,3.4,6,6.5,9.4,9.4c1.9,1.6,3.9,3,5.9,4.4c2,1.3,4.2,2.8,6.5,3.7c0.3,0.1,0.5-0.4,0.2-0.5c-1.8-1.2-3.9-2.2-5.7-3.4
											c-1.9-1.2-3.7-2.5-5.5-3.9c-3.5-2.7-6.7-5.8-9.6-9.2c-2.7-3.2-5.2-6.6-8.4-9.3c-1.6-1.4-3.4-2.6-5.3-3.4
											c-2.1-0.9-4.3-1.6-6.4-2.4C426.2,74.7,421.7,72.4,418.4,68.7C418.4,68.5,418.3,68.6,418.4,68.7L418.4,68.7z"/>
									</g>
								</g>
								<g>
									<g>
										<path class="st8" d="M391.6,79.1c2.9,4.8,8.4,7.2,11.3,11.9c0.8,1.3,1.4,2.7,1.5,4.2c0.2,1.6,0,3.1-0.4,4.7
											c-0.7,3.1-1.6,6-2,9.1s-0.5,6.3-0.1,9.5c0.3,3.1,1.1,6.1,1.9,9.2c0.8,3,1.4,6,1,9.1c-0.4,2.9-1.5,5.7-3,8.3
											c-1.7,2.8-3.9,5.2-6.3,7.4c-2.5,2.2-5.4,4-8.1,6c-0.3,0.2,0,0.7,0.3,0.5c9.9-5.6,19.9-15.6,17.7-27.9
											c-0.6-3.2-1.7-6.3-2.3-9.6c-0.6-3.3-0.7-6.6-0.5-10c0.2-3.3,0.9-6.4,1.7-9.6c0.7-2.9,1.3-6.1,0.2-9
											c-2.3-6.1-9.2-8.6-12.6-14C391.8,78.7,391.5,78.9,391.6,79.1L391.6,79.1z"/>
									</g>
								</g>
								<g>
									<g>
										<path class="st8" d="M393.9,147.9c2.9-2.2,4.5-5.6,5.5-9c0.6-2,1.1-4.1,1.4-6.3c0.4-2.3,0.4-4.6,0.2-6.9
											c-0.2-2.4-0.4-4.8-0.4-7.3c0-2.4,0-4.8,0-7.1c0-2.4,0.1-4.8,0.6-7.1c0.4-2.2,1.2-4.3,1.4-6.5c0.2-2,0-4.2-0.5-6.2
											s-1.6-3.8-2.8-5.5c-0.3-0.4-1,0-0.7,0.4c1.1,1.5,2.1,3,2.6,4.8c0.5,1.7,0.7,3.5,0.6,5.2c0,2.3-0.7,4.4-1.2,6.6
											c-0.5,2.1-0.7,4.3-0.8,6.5c-0.2,4.6-0.1,9.2,0.3,13.8c0.2,2.3,0.5,4.6,0.3,6.9c-0.1,2.3-0.6,4.5-1.1,6.7
											c-1,4-2.4,8.1-5.6,10.9C393.6,147.8,393.8,148,393.9,147.9L393.9,147.9z"/>
									</g>
								</g>
							</g>
							<g>
								<g>
									<g>
										<path class="st17" d="M415,178.1c2.4-10.5,9.5-19.6,18.2-25.9c8.7-6.4,19-10.3,29.4-13.1c4.8-1.3,9.7-2.4,14.6-2.3
											c5,0.1,10,1.5,13.8,4.8"/>
									</g>
									<g>
										<g>
											<g>
												<g>
													<defs>
														<path id="SVGID_7_" d="M415,178.1c2.4-10.5,9.5-19.6,18.2-25.9c8.7-6.4,19-10.3,29.4-13.1c4.8-1.3,9.7-2.4,14.6-2.3
															c5,0.1,10,1.5,13.8,4.8"/>
													</defs>
													<clipPath id="SVGID_8_">
														<use xlink:href="#SVGID_7_"  style="overflow:visible;"/>
													</clipPath>
													<g class="st18">
														<g>
															<g>
																<path class="st6" d="M406.1,169c0.7-0.4,1.4-0.7,2-1.1c1.8-1,3.7-1.9,5.5-2.9c2.7-1.4,5.5-2.8,8.2-4.3
																	c3.3-1.8,6.6-3.5,10-5.3c3.6-1.9,7.2-3.8,10.8-5.7c3.7-1.9,7.3-3.9,11-5.8c3.4-1.8,6.8-3.6,10.3-5.4
																	c2.9-1.5,5.7-3.1,8.6-4.6c2.1-1.1,4.1-2.2,6.2-3.4c1-0.5,1.9-1.1,2.9-1.6c0.1-0.1,0,0,0.1-0.1
																	c0.3-0.2,0-0.7-0.3-0.5c-0.1,0.1,0,0-0.1,0.1s-0.3,0.1-0.4,0.2c-0.5,0.3-1,0.5-1.5,0.8c-1.8,0.9-3.7,1.9-5.5,2.9
																	c-2.7,1.4-5.4,2.9-8.1,4.3c-3.3,1.8-6.6,3.5-9.9,5.3c-3.6,1.9-7.2,3.9-10.8,5.8c-3.7,2-7.3,3.9-11,5.9
																	c-3.4,1.8-6.8,3.7-10.2,5.5c-2.9,1.5-5.7,3.1-8.6,4.6c-2.1,1.1-4.1,2.2-6.2,3.4c-1,0.5-2,1-2.9,1.6
																	c0,0-0.1,0-0.1,0.1C405.8,168.8,405.9,169.1,406.1,169L406.1,169z"/>
															</g>
														</g>
														<g>
															<g>
																<path class="st6" d="M408.1,170.9c0.7-0.4,1.4-0.7,2-1.1c1.8-1,3.7-1.9,5.5-2.9c2.7-1.4,5.5-2.8,8.2-4.3
																	c3.3-1.8,6.6-3.5,10-5.3c3.6-1.9,7.2-3.8,10.8-5.7c3.7-1.9,7.3-3.9,11-5.8c3.4-1.8,6.8-3.6,10.3-5.4
																	c2.9-1.5,5.7-3.1,8.6-4.6c2.1-1.1,4.1-2.2,6.2-3.4c1-0.5,1.9-1.1,2.9-1.6c0.1-0.1,0,0,0.1-0.1
																	c0.3-0.2,0-0.7-0.3-0.5c-0.1,0.1,0,0-0.1,0.1s-0.3,0.1-0.4,0.2c-0.5,0.3-1,0.5-1.5,0.8c-1.8,0.9-3.7,1.9-5.5,2.9
																	c-2.7,1.4-5.4,2.9-8.1,4.3c-3.3,1.8-6.6,3.5-9.9,5.3c-3.6,1.9-7.2,3.9-10.8,5.8c-3.7,2-7.3,3.9-11,5.9
																	c-3.4,1.8-6.8,3.7-10.2,5.5c-2.9,1.5-5.7,3.1-8.6,4.6c-2.1,1.1-4.1,2.2-6.2,3.4c-1,0.5-2,1-2.9,1.6
																	c0,0-0.1,0-0.1,0.1C407.7,170.8,407.9,171.1,408.1,170.9L408.1,170.9z"/>
															</g>
														</g>
														<g>
															<g>
																<path class="st6" d="M410,172.9c0.7-0.4,1.4-0.7,2-1.1c1.8-1,3.7-1.9,5.5-2.9c2.7-1.4,5.5-2.8,8.2-4.3
																	c3.3-1.8,6.6-3.5,10-5.3c3.6-1.9,7.2-3.8,10.8-5.7c3.7-1.9,7.3-3.9,11-5.8c3.4-1.8,6.8-3.6,10.3-5.4
																	c2.9-1.5,5.7-3.1,8.6-4.6c2.1-1.1,4.1-2.2,6.2-3.4c1-0.5,1.9-1.1,2.9-1.6c0.1-0.1,0,0,0.1-0.1
																	c0.3-0.2,0-0.7-0.3-0.5c-0.1,0.1,0,0-0.1,0.1s-0.3,0.1-0.4,0.2c-0.5,0.3-1,0.5-1.5,0.8c-1.8,0.9-3.7,1.9-5.5,2.9
																	c-2.7,1.4-5.4,2.9-8.1,4.3c-3.3,1.8-6.6,3.5-9.9,5.3c-3.6,1.9-7.2,3.9-10.8,5.8c-3.7,2-7.3,3.9-11,5.9
																	c-3.4,1.8-6.8,3.7-10.2,5.5c-2.9,1.5-5.7,3.1-8.6,4.6c-2.1,1.1-4.1,2.2-6.2,3.4c-1,0.5-2,1-2.9,1.6
																	c0,0-0.1,0-0.1,0.1C409.6,172.7,409.8,173,410,172.9L410,172.9z"/>
															</g>
														</g>
														<g>
															<g>
																<path class="st6" d="M411.9,174.8c0.7-0.4,1.4-0.7,2-1.1c1.8-1,3.7-1.9,5.5-2.9c2.7-1.4,5.5-2.8,8.2-4.3
																	c3.3-1.8,6.6-3.5,10-5.3c3.6-1.9,7.2-3.8,10.8-5.7c3.7-1.9,7.3-3.9,11-5.8c3.4-1.8,6.8-3.6,10.3-5.4
																	c2.9-1.5,5.7-3.1,8.6-4.6c2.1-1.1,4.1-2.2,6.2-3.4c1-0.5,1.9-1.1,2.9-1.6c0.1-0.1,0,0,0.1-0.1
																	c0.3-0.2,0-0.7-0.3-0.5c-0.1,0.1,0,0-0.1,0.1s-0.3,0.1-0.4,0.2c-0.5,0.3-1,0.5-1.5,0.8c-1.8,0.9-3.7,1.9-5.5,2.9
																	c-2.7,1.4-5.4,2.9-8.1,4.3c-3.3,1.8-6.6,3.5-9.9,5.3c-3.6,1.9-7.2,3.9-10.8,5.8c-3.7,2-7.3,3.9-11,5.9
																	c-3.4,1.8-6.8,3.7-10.2,5.5c-2.9,1.5-5.7,3.1-8.6,4.6c-2.1,1.1-4.1,2.2-6.2,3.4c-1,0.5-2,1-2.9,1.6
																	c0,0-0.1,0-0.1,0.1C411.5,174.6,411.7,174.9,411.9,174.8L411.9,174.8z"/>
															</g>
														</g>
														<g>
															<g>
																<path class="st6" d="M413.8,176.8c0.7-0.4,1.4-0.7,2-1.1c1.8-1,3.7-1.9,5.5-2.9c2.7-1.4,5.5-2.8,8.2-4.3
																	c3.3-1.8,6.6-3.5,10-5.3c3.6-1.9,7.2-3.8,10.8-5.7c3.7-1.9,7.3-3.9,11-5.8c3.4-1.8,6.8-3.6,10.3-5.4
																	c2.9-1.5,5.7-3.1,8.6-4.6c2.1-1.1,4.1-2.2,6.2-3.4c1-0.5,1.9-1.1,2.9-1.6c0.1-0.1,0,0,0.1-0.1
																	c0.3-0.2,0-0.7-0.3-0.5c-0.1,0.1,0,0-0.1,0.1s-0.3,0.1-0.4,0.2c-0.5,0.3-1,0.5-1.5,0.8c-1.8,0.9-3.7,1.9-5.5,2.9
																	c-2.7,1.4-5.4,2.9-8.1,4.3c-3.3,1.8-6.6,3.5-9.9,5.3c-3.6,1.9-7.2,3.9-10.8,5.8c-3.7,2-7.3,3.9-11,5.9
																	c-3.4,1.8-6.8,3.7-10.2,5.5c-2.9,1.5-5.7,3.1-8.6,4.6c-2.1,1.1-4.1,2.2-6.2,3.4c-1,0.5-2,1-2.9,1.6
																	c0,0-0.1,0-0.1,0.1C413.5,176.6,413.6,176.9,413.8,176.8L413.8,176.8z"/>
															</g>
														</g>
														<g>
															<g>
																<path class="st6" d="M415.8,178.7c0.7-0.4,1.4-0.7,2-1.1c1.8-1,3.7-1.9,5.5-2.9c2.7-1.4,5.5-2.8,8.2-4.3
																	c3.3-1.8,6.6-3.5,10-5.3c3.6-1.9,7.2-3.8,10.8-5.7c3.7-1.9,7.3-3.9,11-5.8c3.4-1.8,6.8-3.6,10.3-5.4
																	c2.9-1.5,5.7-3.1,8.6-4.6c2.1-1.1,4.1-2.2,6.2-3.4c1-0.5,1.9-1.1,2.9-1.6c0.1-0.1,0,0,0.1-0.1
																	c0.3-0.2,0-0.7-0.3-0.5c-0.1,0.1,0,0-0.1,0.1s-0.3,0.1-0.4,0.2c-0.5,0.3-1,0.5-1.5,0.8c-1.8,0.9-3.7,1.9-5.5,2.9
																	c-2.7,1.4-5.4,2.9-8.1,4.3c-3.3,1.8-6.6,3.5-9.9,5.3c-3.6,1.9-7.2,3.9-10.8,5.8c-3.7,2-7.3,3.9-11,5.9
																	c-3.4,1.8-6.8,3.7-10.2,5.5c-2.9,1.5-5.7,3.1-8.6,4.6c-2.1,1.1-4.1,2.2-6.2,3.4c-1,0.5-2,1-2.9,1.6
																	c0,0-0.1,0-0.1,0.1C415.4,178.5,415.6,178.8,415.8,178.7L415.8,178.7z"/>
															</g>
														</g>
														<g>
															<g>
																<path class="st6" d="M417.7,180.6c0.7-0.4,1.4-0.7,2-1.1c1.8-1,3.7-1.9,5.5-2.9c2.7-1.4,5.5-2.8,8.2-4.3
																	c3.3-1.8,6.6-3.5,10-5.3c3.6-1.9,7.2-3.8,10.8-5.7c3.7-1.9,7.3-3.9,11-5.8c3.4-1.8,6.8-3.6,10.3-5.4
																	c2.9-1.5,5.7-3.1,8.6-4.6c2.1-1.1,4.1-2.2,6.2-3.4c1-0.5,1.9-1.1,2.9-1.6c0.1-0.1,0,0,0.1-0.1
																	c0.3-0.2,0-0.7-0.3-0.5c-0.1,0.1,0,0-0.1,0.1s-0.3,0.1-0.4,0.2c-0.5,0.3-1,0.5-1.5,0.8c-1.8,0.9-3.7,1.9-5.5,2.9
																	c-2.7,1.4-5.4,2.9-8.1,4.3c-3.3,1.8-6.6,3.5-9.9,5.3c-3.6,1.9-7.2,3.9-10.8,5.8c-3.7,2-7.3,3.9-11,5.9
																	c-3.4,1.8-6.8,3.7-10.2,5.5c-2.9,1.5-5.7,3.1-8.6,4.6c-2.1,1.1-4.1,2.2-6.2,3.4c-1,0.5-2,1-2.9,1.6
																	c0,0-0.1,0-0.1,0.1C417.3,180.4,417.5,180.7,417.7,180.6L417.7,180.6z"/>
															</g>
														</g>
														<g>
															<g>
																<path class="st6" d="M419.6,182.6c0.7-0.4,1.4-0.7,2-1.1c1.8-1,3.7-1.9,5.5-2.9c2.7-1.4,5.5-2.8,8.2-4.3
																	c3.3-1.8,6.6-3.5,10-5.3c3.6-1.9,7.2-3.8,10.8-5.7c3.7-1.9,7.3-3.9,11-5.8c3.4-1.8,6.8-3.6,10.3-5.4
																	c2.9-1.5,5.7-3.1,8.6-4.6c2.1-1.1,4.1-2.2,6.2-3.4c1-0.5,1.9-1.1,2.9-1.6c0.1-0.1,0,0,0.1-0.1
																	c0.3-0.2,0-0.7-0.3-0.5c-0.1,0.1,0,0-0.1,0.1s-0.3,0.1-0.4,0.2c-0.5,0.3-1,0.5-1.5,0.8c-1.8,0.9-3.7,1.9-5.5,2.9
																	c-2.7,1.4-5.4,2.9-8.1,4.3c-3.3,1.8-6.6,3.5-9.9,5.3c-3.6,1.9-7.2,3.9-10.8,5.8c-3.7,2-7.3,3.9-11,5.9
																	c-3.4,1.8-6.8,3.7-10.2,5.5c-2.9,1.5-5.7,3.1-8.6,4.6c-2.1,1.1-4.1,2.2-6.2,3.4c-1,0.5-2,1-2.9,1.6
																	c0,0-0.1,0-0.1,0.1C419.3,182.4,419.4,182.7,419.6,182.6L419.6,182.6z"/>
															</g>
														</g>
													</g>
												</g>
											</g>
										</g>
									</g>
								</g>
								<g>
									<path d="M431.1,94.8c-0.1-0.5,0.6-0.7,1.1-0.6c6.3,1.1,10.2,2.5,13.1,8.2c1.1,2.1,0,5.3,4,9.6c1.6,1.7,0.9,4.7,0,6.9
										c-0.9,2.2-3.4,3.8-5.6,2.9"/>
								</g>
								<path class="st19" d="M432.3,142l3.2,11.2c0,0,5.1,2.5,9.9,0s2.7-6.7,2.7-6.7l-6.4-12.1"/>
								<g>
									<path class="st19" d="M432.3,96.2c-3.9-2-8.7,0.5-12.2,1.8c-3.5,1.2-7.5,2.7-9.7,5.7c-3.1,4.1-2.9,9.8-1.2,14.5
										c0.8,2.2,0.8,4.3,1.8,6.5c3.2,6.5,6,14.8,12.3,19.1c4.6,3.2,11,3.6,16,1.1s8.4-8,8.6-13.6c0.1-3.7-1.1-7.3-2.3-10.8
										c-2.7-8-4.2-19.9-11-22.5"/>
								</g>
								<g>
									<path d="M413.7,130c-4.1-12.9-2.4-17.1-1.1-19.1c1.5-2.2,3.1-4,5.5-4.8c6.4-2.1,18.5-2.4,22.4-9.6
										c1.5-2.9,1.1-7.9-0.9-11.1c-0.2-0.4-1.5-3.9-3.8-3.2c-1.1,0.3-1.8,2.5-2.2,3.2c0-0.8-0.7-2.1-1.6-2.2c-1-0.1-1.4,1.1-2,1.7
										c-0.9,0.8-1.8,1.4-2.8,1.9c-7.6,4.1-18.5,3-21.6,12.5c-0.3,1-0.6,2.1-1.2,3.1c-1.1,1.7-5.3,4.7-2.6,11.7
										c2,5.2-0.7,8.9,1.5,13.4c3,6.3,7.7,7,12.6,6.3"/>
								</g>
								<g>
									<path d="M433.8,99.3c-3.6,1.3-7.4,2.5-11.1,3.4c-3.4,0.8-7.1,1.5-9.7,3.9c-3.8,3.3-4.5,8.9-4.8,14
										c-0.1,1.4-0.2,2.8-0.3,4.2c-0.1,0.8-0.2,1.7-0.8,2.1c-1,0.7-2.4-0.4-2.9-1.4c-0.5-0.9-0.9-2-1.7-2.6c0,1.5,0.1,3,0.9,4.6
										c3,6.3,7.7,7,12.6,6.3l-2.1-3.6c-4.1-12.9-2.4-17.1-1.1-19.1c1.5-2.2,3.1-4,5.5-4.8c6.4-2.1,18.5-2.4,22.4-9.6
										c0.3-0.6,0.5-1.2,0.7-1.9C439.5,97,436.6,98.3,433.8,99.3z"/>
								</g>
								<g>
									<g>
										<path class="st19" d="M414.3,129.1c-1.4-0.9-3.4-0.4-4.1,1.2c-0.3,0.6-0.4,1.2-0.4,1.9c0,2.7,1.9,5.9,4.3,6.5
											c2.5,0.7,4.4-0.6,4.4-2.8"/>
									</g>
								</g>
								<g>
									<g>
										<path class="st19" d="M443.1,117.3c0.4-1.6,2.2-2.6,3.8-1.9c0.6,0.2,1.1,0.6,1.5,1.1c1.8,2,2.6,5.6,1.2,7.8
											c-1.3,2.2-3.6,2.5-5.1,0.9"/>
									</g>
								</g>
								<g>
									<g>
										<path d="M427.8,123.1c0.2,1.6,0.5,3.2,1,4.7c0.2,0.8,0.5,1.5,0.8,2.2c0.3,0.6,0.5,1.1,1,1.6c0.7,0.8,1.8,1.3,2.9,0.8
											c1.2-0.5,1.9-2,2.1-3.3c0-0.2-0.3-0.2-0.3-0.1c-0.6,1-0.8,2.5-2.1,2.9c-1,0.3-2-0.5-2.5-1.3c-0.7-1.1-1.1-2.4-1.6-3.6
											c-0.5-1.3-0.8-2.7-1-4C428,122.9,427.8,123,427.8,123.1L427.8,123.1z"/>
									</g>
								</g>
								<path class="st13" d="M437.8,116.1c0.3,0.4,0.3,1-0.1,1.3s-1,0.3-1.3-0.1s-0.3-1,0.1-1.3C437,115.7,437.5,115.8,437.8,116.1
									z"/>
								<path class="st13" d="M421.5,122.5c0.3,0.4,0.3,1-0.1,1.3s-1,0.3-1.3-0.1s-0.3-1,0.1-1.3S421.2,122.1,421.5,122.5z"/>
								<g>
									<path class="st2" d="M431.2,136.4c2.2,0.5,5.7-1.4,6.8-3.5c0.2-0.3,0.6-0.4,0.8-0.1c2.7,2.9,1.5,6.2-1.7,7.7
										c-3,1.4-6.3-1.2-6.6-3.5C430.5,136.6,430.8,136.3,431.2,136.4z"/>
								</g>
								<g>
									<path class="st13" d="M437.1,111.3c-0.1-1.2-2.4,0.1-2.8,0.5c-0.2,0.3-0.5,1-0.1,1.2c0.6,0.3,1.2-0.8,1.6-1.1
										C436.2,111.8,437.1,111.8,437.1,111.3L437.1,111.3z"/>
								</g>
								<g>
									<path class="st13" d="M415.8,118.2c-0.7-1,1.9-1.6,2.4-1.5c0.4,0.1,1.1,0.4,0.9,0.9c-0.2,0.6-1.4,0.2-1.9,0.3
										C416.9,118,416.2,118.6,415.8,118.2L415.8,118.2z"/>
								</g>
							</g>
						</g>
					</g>
				</g>
			</g>
		</g>
	</g>
	<g>
		<path class="st2" d="M362.3,41.3H245.6c-4.3,0-7.8,3.5-7.8,7.8v76.6c0,4.3,3.5,7.8,7.8,7.8h116.7c4.3,0,7.8-3.5,7.8-7.8V49.2
			C370.1,44.8,366.6,41.3,362.3,41.3z"/>
		<rect x="247.8" y="46.3" class="st6" width="112.3" height="82.4"/>
		<g>
			<g>
				<g>
					<g>
						<defs>
							<rect id="SVGID_9_" x="247.8" y="46.3" width="112.3" height="82.4"/>
						</defs>
						<clipPath id="SVGID_10_">
							<use xlink:href="#SVGID_9_"  style="overflow:visible;"/>
						</clipPath>
						<g class="st20">
							<polygon class="st21" points="346.2,62.8 344.8,69.2 351.6,67.8 							"/>
							<polygon class="st21" points="334,121.1 337.9,126.4 341.2,120.3 							"/>
							<polygon class="st21" points="265,66.9 258.5,67.9 262.3,73.7 							"/>
							<polygon class="st21" points="265.4,114 260,117.8 265.9,121.4 							"/>
							<polygon class="st21" points="303.3,45.2 297.8,41.6 296.7,48.4 							"/>
							
								<rect x="271.6" y="61.8" transform="matrix(0.739 -0.6738 0.6738 0.739 28.8099 200.1218)" class="st2" width="2.2" height="2.2"/>
							
								<rect x="352.2" y="56.9" transform="matrix(0.739 -0.6738 0.6738 0.739 53.1381 253.1594)" class="st2" width="2.2" height="2.2"/>
							
								<rect x="338.6" y="61.9" transform="matrix(0.9646 -0.2636 0.2636 0.9646 -4.59 91.7865)" class="st22" width="2.2" height="2.2"/>
							
								<rect x="253.9" y="54" transform="matrix(0.8731 -0.4875 0.4875 0.8731 5.4955 131.3289)" class="st22" width="2.2" height="2.2"/>
							
								<rect x="356.8" y="100.3" transform="matrix(0.9647 -0.2635 0.2635 0.9647 -14.0731 97.8773)" class="st22" width="2.2" height="2.2"/>
							
								<rect x="246.8" y="103.7" transform="matrix(0.9647 -0.2635 0.2635 0.9647 -18.857 69.0121)" class="st22" width="2.2" height="2.2"/>
							
								<rect x="340.2" y="112.4" transform="matrix(0.998 -6.323078e-02 6.323078e-02 0.998 -6.4938 21.8046)" class="st2" width="2.2" height="2.2"/>
							
								<rect x="251.5" y="115.4" transform="matrix(0.998 -6.323085e-02 6.323085e-02 0.998 -6.861 16.2021)" class="st2" width="2.2" height="2.2"/>
						</g>
					</g>
				</g>
			</g>
			<g>
				<g>
					<g>
						<defs>
							<rect id="SVGID_11_" x="247.8" y="46.3" width="112.3" height="82.4"/>
						</defs>
						<clipPath id="SVGID_12_">
							<use xlink:href="#SVGID_11_"  style="overflow:visible;"/>
						</clipPath>
						<g class="st23">
							<g>
								<g>
									<path class="st24" d="M306.3,107c3.7,5.2,10.6,7.2,17,7c1.5-0.1,3.1-0.2,4.4-1c1.7-1,2.1-2.2,2.9-3.8
										c0.9-1.5,2.5-2.7,4.1-3.3c2.3-0.9,4.8-1,7.3-1.2s5-0.5,7.1-1.9c4-2.5,5.3-7.9,4.4-12.5c-0.4-1.8-1.1-3.7-2.6-4.8
										c-2.5-1.8-6.3-0.8-8.7-2.8c-2.6-2.1-2-6.1-3.6-9.1c-1.7-3.2-5.5-4.6-9.1-5.2c-1.4-0.2-2.9-0.4-4.1-1
										c-2.2-1-3.7-3.2-5.2-5.1c-2.6-3.2-5.7-6.1-9.6-7.6c-3.8-1.5-8.4-1.5-11.9,0.7l-2.5,0.4c-4.6-1.3-9.8-0.2-13.8,2.5
										s-6.9,6.8-8.6,11.3c-0.9,2.3-1.6,4.8-3.5,6.3c-3.2,2.7-8.3,1.4-12.1,3.3c-1.4,0.7-2.6,1.8-3.6,3s-2,2.5-2.4,4
										c-1,3.8,1.8,7.7,5.2,9.6c1.1,0.6,2.3,1.2,3.1,2.1c0.7,0.7,1,1.7,1.5,2.5c3.1,5.7,8,10.3,14.2,12c4.5,1.2,10.7,0.2,15.3-0.2
										c4.6-0.4,9.2-2.1,12.5-5.4"/>
								</g>
								<g>
									<path class="st25" d="M353.5,90.3c-0.3-1.6-0.9-3.3-2.1-4.5c-0.2,0.4-0.2,0.8-0.1,1.3c0.3,3.7,0.4,8.2-2.7,10.1
										c-3.4,2-8.2-0.5-11.4,1.8c-1.2,0.8-1.8,2.2-2.7,3.3c-2.6,3.2-7.2,4.7-11.1,3.5c-0.4-0.1-0.8-0.3-1-0.6
										c-0.3-0.4-0.2-1-0.1-1.6c0.9-3.4,3.5-6.8,2.1-9.9c-0.6-1.4-2-2.3-2.9-3.5c-2.8-3.5-2.1-9.3-5.8-11.9
										c-1.6-1.1-3.7-1.3-5.7-1.4c-4.3-0.3-8.7-0.6-13-0.9h-11.2c-1.8-1.1-4,1-4.2,3.1s0.6,4.2,0.3,6.2c-0.4,3.8-4.4,6.8-4.1,10.7
										c0.2,2.6,2.3,4.9,2.1,7.5c-0.2,2.8-3.3,4.8-6,4.4c-2.8-0.4-5-2.6-6-5.2c-0.4-1-0.6-2.1-1.3-3c-1.7-2.3-5.3-2.1-7.5-4
										c-0.7-0.6-1.3-1.4-2.2-1.6c-0.5-0.1-0.9,0-1.3,0.1c0.7,0.6,1.4,1.2,2.2,1.6c1.1,0.6,2.3,1.2,3.1,2.1c0.7,0.7,1,1.7,1.5,2.5
										c3.1,5.7,8,10.3,14.2,12c4.5,1.2,10.7,0.2,15.3-0.2c4.6-0.4,9.2-2.1,12.5-5.4l2.2,0.1c3.7,5.2,10.6,7.2,17,7
										c1.5-0.1,3.1-0.2,4.4-1c1.7-1,2.1-2.2,2.9-3.8c0.9-1.5,2.5-2.7,4.1-3.3c2.3-0.9,4.8-1,7.3-1.2s5-0.5,7.1-1.9
										C353.1,100.3,354.4,94.9,353.5,90.3z"/>
								</g>
								<g>
									<g>
										<path class="st25" d="M322.3,88.3c1.3,1.5,2.6,3,3.2,4.9c0.6,2,0.3,4-0.5,5.8c-0.7,1.7-1.7,3.3-2.1,5.2
											c-0.3,1.6,0.6,3.1,2.1,3.7c0.3,0.1,0.5-0.2,0.3-0.4c-0.6-0.7-1.4-1.2-1.7-2.1c-0.3-1,0.2-2.1,0.5-3c0.7-1.7,1.6-3.3,2-5
											s0.2-3.5-0.5-5c-0.7-1.6-1.9-3-3.1-4.3C322.3,88,322.2,88.1,322.3,88.3L322.3,88.3z"/>
									</g>
								</g>
								<g>
									<g>
										<path class="st25" d="M330.2,87c1.4,2.8,4.3,4.7,4.9,8c0.3,1.9-0.2,3.6-0.8,5.3c-0.5,1.4-1.3,3.2-0.5,4.6
											c0.1,0.1,0.3,0.1,0.3,0c0.1-0.9,0.1-1.8,0.4-2.7c0.2-0.9,0.6-1.7,0.8-2.6c0.5-1.6,0.7-3.2,0.3-4.8
											c-0.8-3.2-3.6-5.1-5.2-7.8C330.2,86.9,330.2,87,330.2,87L330.2,87z"/>
									</g>
								</g>
								<g>
									<g>
										<path class="st25" d="M334.2,90.7c1.3,1.5,2.5,3.3,2.9,5.3c0.4,2.1-0.4,4-1.7,5.6c-0.1,0.1,0,0.4,0.2,0.3
											c1.7-1.2,2.3-3.6,2-5.6c-0.3-2.2-1.7-4.1-3.2-5.7C334.3,90.4,334.1,90.5,334.2,90.7L334.2,90.7z"/>
									</g>
								</g>
								<g>
									<g>
										<path class="st25" d="M339.5,83.1c2.2,2.5,5.4,3.5,8.2,5.2c1.6,1,2.9,2.2,3.3,4.1c0.4,1.8,0.3,3.8-0.6,5.5
											c-0.1,0.3,0.2,0.6,0.4,0.3c1.2-1.4,1.1-3.4,0.9-5.1c-0.2-1.9-1.1-3.3-2.6-4.5c-3-2.2-7-2.9-9.7-5.7
											C339.6,82.9,339.5,83,339.5,83.1L339.5,83.1z"/>
									</g>
								</g>
								<g>
									<g>
										<path class="st25" d="M341.5,87.9c1.9,1.5,3.3,3.5,3.9,5.8c0.3,1.2,0.6,2.7,0,3.9c-0.5,1.1-1.6,1.7-2.4,2.6
											c-0.1,0.1,0,0.3,0.2,0.2c1-0.7,2.1-1.4,2.7-2.6s0.4-2.6,0.1-3.9c-0.7-2.5-2.2-4.7-4.3-6.2
											C341.6,87.7,341.4,87.8,341.5,87.9L341.5,87.9z"/>
									</g>
								</g>
								<g>
									<g>
										<path class="st25" d="M275.5,80.3c-0.5,2.3-2.1,4.2-3.9,5.5c-1.9,1.4-4.2,2.2-6.4,3c-1.8,0.7-3.7,1.7-4.7,3.5
											c-0.9,1.7-0.8,3.8,0.2,5.5c0.2,0.3,0.7,0,0.5-0.3c-1.2-1.9-1-4.4,0.5-6c1.6-1.7,3.9-2.3,6-3.2c3.7-1.5,7.2-4,8-8.1
											C275.7,80.3,275.5,80.2,275.5,80.3L275.5,80.3z"/>
									</g>
								</g>
								<g>
									<g>
										<path class="st25" d="M273.2,86c-1.4,1.3-2.8,2.6-4.7,3.4c-1.3,0.5-2.6,1-3.8,1.7c-1.1,0.7-2.1,1.6-2.6,2.9
											c-0.6,1.6-0.6,3.5,0.3,4.9c0.1,0.2,0.5,0.1,0.4-0.2c-0.6-1.7-0.8-3.5,0.1-5.1c0.7-1.2,1.8-2,3-2.6c1.2-0.6,2.5-1,3.7-1.6
											c1.5-0.8,2.7-2,3.8-3.2C273.6,86.1,273.4,85.9,273.2,86L273.2,86z"/>
									</g>
								</g>
								<g>
									<g>
										<path class="st25" d="M279.4,87.1c-1.6,3-5.1,5.3-5.2,9c0,3.1,2.5,5.5,3,8.5c0.2,1,0,2-0.4,2.8c-0.2,0.5-0.5,0.9-0.9,1.3
											c-0.3,0.3-0.7,0.6-1,1c-0.1,0.2,0,0.4,0.2,0.3c1.4-0.3,2.4-2.2,2.6-3.5c0.3-1.5-0.1-2.9-0.7-4.3c-0.7-1.5-1.6-2.9-2-4.5
											c-0.6-1.9-0.1-3.7,0.9-5.3c1.1-1.8,2.6-3.4,3.6-5.3C279.6,87.1,279.5,87.1,279.4,87.1L279.4,87.1z"/>
									</g>
								</g>
								<g>
									<g>
										<path class="st25" d="M272.1,95.3c-1,2.3,0.3,4.6,1.4,6.6c0.6,1.2,1.2,2.4,1.1,3.8c0,1.4-0.7,2.4-1.4,3.5
											c-0.1,0.1,0.1,0.3,0.2,0.2c2-1.3,2-4.2,1.2-6.2c-1-2.5-3.4-5-2.4-7.8C272.3,95.3,272.1,95.2,272.1,95.3L272.1,95.3z"/>
									</g>
								</g>
							</g>
							<g>
								<path class="st8" d="M337.3,120.3c-6-9-16.5-13.7-26.8-14.6c-11.5-1-24.3,0.1-34.6,5.7c-9.3,5.1-17,13.3-21.5,23
									c29.6,0.2,59.3,0.3,88.9,0.5C342.1,129.7,340.1,124.6,337.3,120.3z"/>
							</g>
							<g>
								<g>
									<path class="st26" d="M298.6,104.4c-0.4,1.4-0.7,2.9-0.8,4.4c1.5,1.6,6.5,2,8.3-0.5c0.1-0.4-1-6.7-1-6.7"/>
								</g>
								<g>
									<path class="st27" d="M306,107.2c-0.3-1.9-0.9-5.6-0.9-5.6l-6.4,2.7c-0.2,0.9-0.4,1.8-0.6,2.7
										C300.7,107.6,303.4,107.7,306,107.2z"/>
								</g>
								<g>
									<path class="st26" d="M287.6,67.4c-3.1,6.8-3.6,14.5-3.8,22c-0.1,3.4-0.1,7,1.8,9.9c1.6,2.4,4.3,3.9,6.9,5
										c6.5,2.6,14.4,3.3,19.9-1c5-3.9,6.6-11,5.5-17.2c-0.6-3.7-2-7.2-3.7-10.6c-1.2-2.4-2.5-6.4-4.7-8.1
										c-5.5-4.1-14.2-4.2-20.3-1.8"/>
								</g>
								<g>
									<path class="st27" d="M318.2,88.9c-1.6,1.7-1.6,7.3-5.4,9.3c-1,0.5-1.9,1.1-2.7,1.8c-1.5,1.2-2.5,2.9-3.1,4.6
										c-0.1,0.4-0.3,0.9-0.2,1.4c2.1-0.5,4-1.3,5.7-2.6C316.6,99.9,318.4,94.3,318.2,88.9z"/>
								</g>
								<g>
									<path class="st27" d="M292.8,100.2c-2-1.3-4.8-1.6-6.1-3.7c-0.5-0.8-0.7-1.7-1-2.6s-0.8-1.8-1.7-2.1
										c-0.1,0-0.2-0.1-0.3-0.1c0,2.7,0.3,5.4,1.8,7.6c1.6,2.4,4.3,3.9,6.9,5c1.1,0.5,2.3,0.9,3.5,1.2
										C295.8,103.3,294.6,101.3,292.8,100.2z"/>
								</g>
							</g>
							<path class="st26" d="M276.6,130.7l11.8-24.3c0,0-6.7-2.8-7.9-5.9c-1.4-3.6,0.5-8.7,1.8-10.8c1.2-2.1,2.9,4.3,3,7
								s7.2,4.6,8.1,7.6c0.9,3.1,1.4,28.3,1.4,28.3"/>
							<path class="st26" d="M324.9,130.7l-11.8-24.3c0,0,6.7-2.8,7.9-5.9c1.4-3.6-0.5-8.7-1.8-10.8c-1.2-2.1-2.9,4.3-3,7
								s-7.2,4.6-8.1,7.6c-0.9,3.1-1.4,28.3-1.4,28.3"/>
							<path class="st28" d="M297.8,108.7c1.2,1.1,2.8,1.6,4.4,1.5s3.1-0.8,4.2-2"/>
							<path class="st13" d="M310.3,82.7c0.3,0.4,0.3,1-0.1,1.3s-1,0.3-1.3-0.1s-0.3-1,0.1-1.3C309.4,82.3,310,82.4,310.3,82.7z"/>
							<path class="st13" d="M292,82.7c-0.3,0.4-0.3,1,0.1,1.3s1,0.3,1.3-0.1s0.3-1-0.1-1.3C292.9,82.3,292.3,82.4,292,82.7z"/>
							<g>
								<g>
									<path class="st27" d="M299.8,84.4c-0.4,1.4-0.8,2.9-1.1,4.3c-0.2,0.9-0.4,1.9-0.5,2.8s-0.1,2.2,0.9,2.6
										c0.6,0.3,1.6,0.2,2.2,0.1c0.7-0.1,1.6-0.4,1.9-1.1c0.1-0.2-0.1-0.5-0.3-0.3c-0.6,0.3-1,0.6-1.6,0.7s-1.7,0.3-2.1-0.2
										c-0.5-0.6-0.3-1.7-0.2-2.4c0.2-1.8,0.6-3.5,0.9-5.3c0.1-0.5,0.1-0.9,0.2-1.4C299.9,84.3,299.8,84.3,299.8,84.4L299.8,84.4z
										"/>
								</g>
							</g>
							<g>
								<g>
									<path class="st13" d="M307.6,79.3c1-0.5,2.2-0.7,3.3-0.4c0.5,0.1,1.1,0.3,1.5,0.6c0.5,0.3,0.9,0.7,1.3,1
										c0.1,0.1,0.3,0,0.2-0.2c-0.6-1-1.9-1.6-3-1.8c-1.2-0.2-2.4,0-3.4,0.6C307.4,79.2,307.5,79.4,307.6,79.3L307.6,79.3z"/>
								</g>
							</g>
							<g>
								<g>
									<path class="st13" d="M294.4,79.1c-1-0.6-2.2-0.8-3.4-0.6c-1.1,0.2-2.4,0.8-3,1.8c-0.1,0.2,0.1,0.3,0.2,0.2
										c0.4-0.4,0.8-0.7,1.3-1s1-0.5,1.6-0.6c1.1-0.2,2.3-0.1,3.3,0.4C294.5,79.4,294.6,79.2,294.4,79.1L294.4,79.1z"/>
								</g>
							</g>
							<g>
								<path class="st2" d="M303.3,96.1c-1.4,0.8-3.7,0.7-5.3-0.2c-0.2-0.1-0.5,0-0.6,0.2c-0.8,2.1,0,6.2,2.8,6.4
									c2.5,0.2,4.4-2.3,3.5-6.2C303.8,96.1,303.5,96,303.3,96.1z"/>
							</g>
							<g>
								<g>
									<path class="st24" d="M300.8,62c2.2-0.9,4.7-1,7-0.6c2.8,0.4,5.6,1.4,8,3.1c2.3,1.7,4.2,4.1,4.9,6.9
										c0.5,1.9,0.3,4.3-1.3,5.4c-1,0.7-2.3,0.8-3.6,0.8c-2.7-0.2-5.5-1.2-6.8-3.5c-0.3-0.5-0.5-1.1-1-1.3
										c-0.6-0.4-1.4-0.1-2.1-0.2c-1.8-0.3-2.4-2.5-3.5-3.9c-1-1.3-3.1-2.8-4.8-2.4c-1.6,0.3-2.6,2.2-3.1,3.7
										c-0.5,1.4-0.8,3.2-2.2,3.5c-0.6,0.2-1.3,0-1.9,0.3c-0.6,0.4-0.7,1.2-1.1,1.8c-0.7,1.1-2.3,1.3-3.6,1.2
										c-1.5,0-3.2-0.1-4.1-1.3c-0.6-0.7-0.8-1.6-0.8-2.5c-0.1-2.7,1.3-5.2,3.1-7.2c1.8-2,4.1-3.4,6.4-4.8"/>
								</g>
								<g>
									<g>
										<path class="st25" d="M319,76.1c-1.5,0.8-3.3,0.7-4.9,0c-1.5-0.7-2.8-1.8-4-3.1c-0.8-0.9-1.8-2-3-2c-0.5,0-1,0.1-1.4-0.1
											c-0.5-0.2-0.8-0.8-1-1.2c-0.9-1.5-2.4-2.5-4.1-2.8c0.7,0.5,1.4,1.1,1.8,1.7c1.1,1.5,1.7,3.6,3.5,3.9
											c0.7,0.1,1.5-0.1,2.1,0.2c0.5,0.3,0.7,0.9,1,1.3c1.3,2.3,4.2,3.4,6.8,3.5c1.2,0.1,2.6,0,3.6-0.8c0.9-0.7,1.4-1.8,1.5-3
											C320.6,74.8,319.9,75.6,319,76.1z"/>
									</g>
									<g>
										<path class="st25" d="M285.8,76.6c1.3,0,2.9-0.1,3.6-1.2c0.4-0.6,0.5-1.4,1.1-1.8c0.5-0.3,1.3-0.2,1.9-0.3
											c1.4-0.4,1.7-2.2,2.2-3.5v-0.1c-0.7,0.9-0.9,1.6-1.6,2.3c-0.3,0.2-1,0.3-1.4,0.4c-0.5,0.1-1,0-1.5,0
											c-1.3,0.1-1.9,1.6-2.9,2.4c-1.7,1.4-4.5,0.5-5.7-1.4c-0.2-0.2-0.4-0.5-0.6-0.7v0.1c0,0.9,0.2,1.8,0.8,2.5
											C282.6,76.5,284.3,76.6,285.8,76.6z"/>
									</g>
								</g>
								<g>
									<g>
										<path class="st25" d="M319.4,68.8c0.9,1.4,1.2,2.9,1.1,4.5c-0.1,0.6-0.2,1.2-0.5,1.7s-0.8,0.9-1.3,1.3
											c-0.2,0.1,0,0.4,0.2,0.3c1.4-0.4,1.9-1.9,2.1-3.1c0.2-1.8-0.2-3.6-1.5-4.8C319.5,68.7,319.4,68.8,319.4,68.8L319.4,68.8z"
											/>
									</g>
								</g>
								<g>
									<g>
										<path class="st25" d="M304.4,67.4c0.7,1.1,1.7,1.9,2.8,2.3c0.7,0.3,1.5,0.4,2.2,0.7c0.7,0.4,1.3,0.9,1.8,1.6
											c0.8,1.2,1.4,2.5,2.3,3.6c0.7,0.8,2.1,2.1,3.3,1.6c0.1-0.1,0.2-0.3,0.1-0.4c-0.6-0.3-1.2-0.3-1.8-0.7
											c-0.6-0.4-1.1-1-1.6-1.6c-0.7-1.1-1.3-2.3-2.2-3.3c-0.8-1-1.9-1.4-3.1-1.7C306.7,69.1,305.4,68.6,304.4,67.4
											C304.4,67.3,304.3,67.3,304.4,67.4L304.4,67.4z"/>
									</g>
								</g>
								<g>
									<g>
										<path class="st25" d="M310.5,69.3c1,0.4,1.8,1,2.5,1.8c0.8,0.9,1.1,2,1.6,3.1c0.4,0.9,0.9,1.7,1.7,2.3
											c0.6,0.4,1.8,0.9,2.5,0.3c0.1-0.1,0-0.2-0.1-0.2c-0.4-0.1-0.9,0-1.3-0.1c-0.5-0.1-0.9-0.4-1.3-0.8
											c-0.7-0.7-1.1-1.7-1.6-2.6c-0.4-0.9-1-1.7-1.8-2.4C312.1,70.1,311.3,69.6,310.5,69.3C310.5,69.3,310.4,69.3,310.5,69.3
											L310.5,69.3z"/>
									</g>
								</g>
								<g>
									<g>
										<path class="st25" d="M296.3,65.1c-0.8,0.1-1.4,0.7-1.9,1.4c-0.6,0.9-1,1.8-1.5,2.8c-0.4,0.9-0.7,2.3-1.6,2.8
											c-0.6,0.4-1.3,0.5-1.9,1c-0.5,0.4-0.9,0.8-1.1,1.4c-0.1,0.2,0.2,0.3,0.3,0.2c0.5-0.5,0.9-1.1,1.5-1.4s1.2-0.5,1.7-0.9
											c0.7-0.6,1-1.6,1.3-2.4c0.4-0.9,0.7-1.9,1.2-2.7C294.8,66.4,295.4,65.4,296.3,65.1L296.3,65.1L296.3,65.1z"/>
									</g>
								</g>
								<g>
									<g>
										<path class="st25" d="M293.3,65.4c-0.9,0.5-1.6,1.1-2.2,1.9s-1,1.8-1.3,2.7c-0.3,1-0.7,1.9-1.2,2.8c-0.5,1-1.3,1.7-2,2.4
											c-0.1,0.1,0,0.3,0.1,0.2c1.8-0.7,2.7-2.9,3.2-4.5c0.3-1,0.6-2,1.1-2.9C291.6,67.2,292.4,66.2,293.3,65.4
											C293.4,65.5,293.4,65.4,293.3,65.4L293.3,65.4z"/>
									</g>
								</g>
							</g>
							<g>
								<path class="st29" d="M309.7,122.1C309.7,122.1,309.6,122.1,309.7,122.1c-0.4,0-0.6-0.3-0.5-0.6c0-0.3,0.3-0.5,0.6-0.5h0.1
									c0.3,0,0.5,0.3,0.4,0.6C310.2,121.9,310,122.1,309.7,122.1z M312.5,121.9c-0.3,0-0.5-0.2-0.5-0.4c-0.1-0.3,0.1-0.6,0.4-0.6
									h0.1c0.3,0,0.6,0.2,0.6,0.5C313.1,121.6,312.9,121.9,312.5,121.9C312.6,121.9,312.5,121.9,312.5,121.9z M313.9,121.6
									c-0.3,0-0.5-0.2-0.5-0.4c-0.1-0.3,0.1-0.6,0.4-0.6h0.1c0.3,0,0.6,0.2,0.6,0.5C314.5,121.3,314.3,121.5,313.9,121.6
									C314,121.6,314,121.6,313.9,121.6z M315.4,121c-0.3,0-0.5-0.2-0.5-0.4c-0.1-0.3,0.1-0.6,0.4-0.6h0.1c0.3,0,0.6,0.2,0.6,0.5
									C315.9,120.7,315.7,121,315.4,121L315.4,121z M318.6,118.6c-0.3,0-0.5-0.2-0.5-0.4c-0.1-0.3,0.1-0.6,0.4-0.6h0.1
									c0.3,0,0.6,0.2,0.6,0.5C319.1,118.3,318.9,118.6,318.6,118.6L318.6,118.6z M311.1,122.1c-0.3,0-0.5-0.2-0.5-0.4
									c-0.1-0.3,0.1-0.6,0.4-0.6h0.1c0.3,0,0.6,0.2,0.6,0.5C311.6,121.8,311.4,122.1,311.1,122.1L311.1,122.1z M308.3,121.9
									c-0.1,0-0.1,0-0.2,0c-0.3-0.1-0.5-0.4-0.4-0.7c0.1-0.3,0.4-0.4,0.7-0.4l0,0c0.3,0.1,0.4,0.4,0.4,0.7
									C308.8,121.7,308.5,121.9,308.3,121.9z M307,121.3c-0.1,0-0.2,0-0.3-0.1c-0.1-0.1-0.2-0.3-0.2-0.4c0-0.4,0.5-0.7,0.9-0.4
									c0.2,0.2,0.3,0.5,0.1,0.8C307.4,121.2,307.2,121.3,307,121.3z M316.4,120.5c-0.2,0-0.4-0.1-0.5-0.3
									c-0.1-0.3-0.1-0.6,0.2-0.7l0,0c0.3-0.1,0.6-0.1,0.7,0.2c0.1,0.3,0.1,0.6-0.2,0.7C316.6,120.4,316.5,120.5,316.4,120.5z
									 M317.6,119.7c-0.2,0-0.3-0.1-0.4-0.2c-0.2-0.2-0.2-0.6,0.1-0.7l0,0c0.2-0.2,0.6-0.1,0.8,0.1c0.2,0.2,0.1,0.6-0.1,0.8
									C317.8,119.6,317.7,119.7,317.6,119.7z"/>
							</g>
						</g>
					</g>
				</g>
			</g>
		</g>
	</g>
	<g>
		<rect x="228" y="301.8" class="st29" width="56.3" height="28.3"/>
		<polygon class="st30" points="228,312.5 228,301.8 284.3,305.7 		"/>
		<path class="st31" d="M356,158.5H156.3c-4.4,0-8.1,3.6-8.1,8.1v131.1c0,4.4,3.6,8.1,8.1,8.1H356c4.4,0,8.1-3.6,8.1-8.1V166.5
			C364,162.1,360.4,158.5,356,158.5z"/>
		<rect x="157.1" y="166.4" class="st8" width="198.2" height="131.4"/>
		<path class="st31" d="M304.9,330.1h-97.6l0,0c0-4.2,3.4-7.7,7.7-7.7h82.2C301.5,322.4,304.9,325.8,304.9,330.1L304.9,330.1z"/>
		<g>
			<g>
				<g>
					<g>
						<defs>
							<rect id="SVGID_13_" x="157.1" y="166.4" width="198.2" height="131.4"/>
						</defs>
						<clipPath id="SVGID_14_">
							<use xlink:href="#SVGID_13_"  style="overflow:visible;"/>
						</clipPath>
						<g class="st32">
							<g>
								<g>
									<g>
										<path class="st33" d="M177.2,281c-2-3.4-4.1-6.9-6.1-10.3c-1.9-3.2-3.9-6.3-5.5-9.7c-1.5-3.2-2.6-6.6-2.5-10.2
											c0.2-3.8,0.6-7.7,1-11.5c0.3-3.7,0.6-7.5,0.5-11.3s-0.7-7.4-1.6-11c-1.8-7-4.2-14-4.4-21.3c-0.1-3.6,0.3-7.3,1.6-10.6
											c0.6-1.5,1.5-3,3-3.8s3.2-0.9,4.9-0.6c5.9,1,10.7,5.7,13.4,10.9c1.4,2.6,2.3,5.5,2.6,8.4c0.4,3.7,0.1,7.4,0.4,11
											c0.2,3.4,1.2,6.6,2.8,9.5c1.6,2.8,3.6,5.3,5.3,8c1.8,2.9,3.1,6.1,3.9,9.5c0.7,3.4,0.9,6.9,0.7,10.3
											c-0.3,7.6-2.1,15-2.8,22.5c-0.2,1.8-0.2,3.7-0.2,5.6c0,0.3,0.4,0.3,0.4,0c0.2-7.9,2.1-15.6,2.9-23.5
											c0.7-6.9,0.6-14.2-2.2-20.7c-2.7-6.2-8.2-10.9-9.7-17.7c-0.8-3.7-0.5-7.6-0.6-11.4c-0.1-3.2-0.6-6.3-1.8-9.3
											c-2.1-5.4-6.1-10.3-11.6-12.7c-2.7-1.2-6-1.9-8.8-0.4c-2.8,1.6-3.8,5.1-4.4,8.1c-1.4,7.3,0.2,14.7,2.1,21.7
											c1,3.7,2.1,7.3,2.8,11.1c0.7,3.9,0.7,7.9,0.6,11.8c-0.2,3.9-0.6,7.8-1,11.7c-0.3,3.7-0.8,7.3,0.2,11
											c0.9,3.5,2.6,6.7,4.4,9.7c2,3.4,4.1,6.9,6.2,10.3c1,1.7,2.1,3.4,3.1,5.1C177,281.4,177.4,281.2,177.2,281L177.2,281z"/>
									</g>
								</g>
								<g>
									<g>
										<path class="st33" d="M174.8,183.4c1.8,2.2,2.9,4.8,3.7,7.5c0.8,2.9,1.1,5.9,1.1,8.9c0,3.5-0.2,7,0.3,10.4
											c0.4,3.1,1.3,6.2,2.4,9.1c2.2,6,5.1,11.7,6.6,17.9c1.6,6.7,1.4,13.6,0.9,20.5c-0.3,3.8-0.7,7.6-1,11.5
											c-0.3,3.9-0.5,7.8,0,11.7c0,0.2,0.3,0.2,0.3,0c-0.1-3.5,0-7,0.2-10.5c0.2-3.5,0.6-6.9,0.9-10.4c0.6-6.8,1-13.8-0.2-20.6
											c-1.2-6.4-4-12.3-6.4-18.3c-1.1-2.9-2.1-5.9-2.7-9c-0.7-3.6-0.6-7.2-0.6-10.7c0-3.4-0.1-6.8-1-10.1
											C178.3,188.4,177,185.4,174.8,183.4C174.8,183.3,174.8,183.3,174.8,183.4L174.8,183.4z"/>
									</g>
								</g>
								<g>
									<g>
										<path class="st33" d="M164,180.6c-0.6,3.2-0.3,6.6,0.1,9.7c0.4,3.2,1.1,6.4,2,9.6c1.7,6.5,4.1,12.7,6.2,19.1
											c2.2,6.5,3.9,13.2,4.4,20c0.5,6.9,0.4,13.8,1.9,20.6c0.8,3.6,1.9,7.2,3.3,10.6c1.3,3.4,2.9,6.8,4.6,10.1
											c0.1,0.2,0.4,0,0.3-0.2c-2.7-6.1-5.6-12-7.2-18.5c-1.7-6.7-1.8-13.6-2.2-20.5c-0.2-3.3-0.6-6.7-1.2-9.9
											c-0.7-3.3-1.6-6.5-2.6-9.7c-2-6.4-4.5-12.6-6.4-19c-1.1-3.6-2-7.2-2.5-10.8c-0.3-1.8-0.5-3.7-0.6-5.5s0-3.7,0-5.5
											C164.2,180.5,164,180.5,164,180.6L164,180.6z"/>
									</g>
								</g>
								<g>
									<g>
										<path class="st33" d="M158,197.5c-0.2,5.6,2.5,10.7,5.1,15.4c1.4,2.5,2.8,4.9,3.8,7.5c1.1,2.7,1.7,5.4,1.9,8.3
											c0.5,5.8-0.4,11.6-0.7,17.4c-0.2,5.3,0.3,10.5,2,15.5c1.8,5.2,4.8,10.5,8.9,14.3c0.3,0.2,0.6-0.1,0.4-0.4
											c-1.7-1.9-3.3-3.9-4.7-6.1c-1.4-2.1-2.5-4.4-3.4-6.8c-1.9-4.9-2.6-10.1-2.5-15.4c0.1-5.7,1-11.3,0.7-17
											c-0.1-2.8-0.6-5.5-1.4-8.2c-0.9-2.5-2.1-4.9-3.4-7.3c-3-5.5-6.5-11-6.7-17.4C158.1,197.4,158,197.4,158,197.5L158,197.5z"
											/>
									</g>
								</g>
							</g>
							<g>
								<g>
									<g>
										<path class="st33" d="M202.3,262.1c-1.3-7-1.7-14-0.8-21s3-13.8,6.2-20.1c1.6-3.2,3.7-6.2,5.6-9.2c1-1.5,1.9-3.1,2.5-4.7
											c0.7-1.8,1.1-3.6,1.3-5.5c0.5-3.7,0.7-7.4,1.6-11c0.8-3.6,2.1-7.1,4-10.2c3.4-5.6,9.1-10.3,15.8-11
											c1.8-0.2,3.8-0.1,5.2,1.1c1.2,1,1.8,2.6,2,4.2c0.4,3.1-0.5,6.2-1.8,8.9c-2.6,5.6-6.8,10.6-7.9,16.9
											c-0.3,1.9-0.4,3.9-0.8,5.9c-0.3,1.8-1,3.5-1.9,5.1c-1.8,3.1-4.2,5.9-6.2,8.9c-2.2,3.3-4.1,6.7-5.8,10.2
											c-1.8,3.4-3.5,6.9-5.2,10.4c-3.2,6.7-5.8,14.1-4.7,21.7c0.2,1.8,0.7,3.4,1.5,5.1c0.1,0.3,0.6,0.1,0.5-0.2
											c-1.3-3.7-1.7-7.5-1.3-11.4s1.6-7.7,3.2-11.3c1.6-3.7,3.4-7.3,5.2-10.9c1.8-3.5,3.6-7,5.6-10.4c1-1.7,2.1-3.4,3.3-5
											c1.1-1.5,2.2-2.9,3.2-4.3c1-1.4,1.9-2.9,2.5-4.5c0.7-1.8,1-3.7,1.2-5.6c0.2-1.9,0.4-3.7,1-5.5c0.5-1.5,1.1-3,1.9-4.4
											c1.5-2.9,3.2-5.6,4.7-8.5c1.4-2.7,2.4-5.6,2.6-8.6c0.1-2.9-0.7-6.3-3.6-7.5c-1.5-0.7-3.2-0.6-4.8-0.4
											c-1.6,0.2-3.2,0.7-4.6,1.3c-3,1.2-5.7,3.2-7.9,5.6c-4.9,5.3-7.2,12.4-8.1,19.3c-0.5,3.9-0.6,7.9-1.9,11.6
											c-1.3,3.6-3.8,6.6-5.8,9.8c-3.7,6.1-6.3,12.8-7.8,19.8c-1.4,6.9-1.7,14-0.8,21c0.2,1.7,0.5,3.4,1,5.1
											C202.1,262.3,202.4,262.2,202.3,262.1L202.3,262.1z"/>
									</g>
								</g>
								<g>
									<g>
										<path class="st33" d="M233.3,170.3c-7.8,9.6-7.4,22.7-12.2,33.6c-1.4,3.2-3.3,6.1-5.3,8.9c-2,3-3.8,6.1-5.3,9.4
											c-2.9,6.5-4.7,13.5-5.7,20.5c-0.6,4.3-1,8.7-1.3,13c-0.2,4.4-0.5,8.8-0.4,13.2c0,0.3,0.4,0.3,0.4,0
											c0.2-3.9,0.3-7.8,0.5-11.8c0.2-3.8,0.5-7.7,0.9-11.5c0.9-7.2,2.4-14.3,5.1-21c1.3-3.4,3-6.6,5-9.7c1.9-3,4-5.9,5.6-9
											c2.7-5.3,3.9-11.2,5.3-17C227.5,182.5,229.1,175.7,233.3,170.3C233.4,170.3,233.3,170.2,233.3,170.3L233.3,170.3z"/>
									</g>
								</g>
								<g>
									<g>
										<path class="st33" d="M242.9,169.7c0.2,13.5-11.8,22.4-16.3,34.2c-2.3,6.3-2.2,13.2-4.5,19.5c-1.2,3.2-3,6.2-4.7,9.1
											c-1.6,2.9-3.2,5.8-4.6,8.8c-2.9,6.4-5.2,13.8-3.7,20.9c0,0.2,0.4,0.2,0.4-0.1c-0.8-6.7,0.7-13.2,3.3-19.4
											c1.3-3,2.8-5.9,4.4-8.7c1.7-2.9,3.4-5.8,4.8-8.9c2.6-6.1,2.6-12.8,4.5-19.2c1.8-6.3,5.9-11.5,9.5-16.8
											c3.9-5.7,7.6-12.3,7.1-19.4C243.1,169.6,242.9,169.6,242.9,169.7L242.9,169.7z"/>
									</g>
								</g>
							</g>
							<g>
								<g>
									<g>
										<path class="st33" d="M227.5,258.4c2-6.6,6.4-12.5,12.2-16.3c6-3.9,13.3-5.4,19.1-9.7c4.9-3.7,7.9-9.2,10.7-14.6
											c2.8-5.4,5.6-11,10.5-14.9c3-2.4,6.6-3.8,10.2-4.8c3.7-1,8.1-2,11.7-0.1c1.5,0.8,2.8,2,3.3,3.6c0.6,1.7,0.3,3.4-0.6,4.9
											c-0.9,1.6-2.2,2.9-3.6,4c-1.5,1.3-3.2,2.5-4.8,3.7c-3.1,2.1-6.5,3.7-9.7,5.6c-2.9,1.7-5.5,3.8-7,7c-1.5,3.1-2,6.5-2.9,9.7
											c-1,3.4-2.7,6.4-5.3,8.7c-5.8,5.2-13.7,6.7-20.6,9.8c-6.8,3.1-12.6,8-17.8,13.3c-1.3,1.3-2.5,2.6-3.7,4
											c-0.3,0.3,0.2,0.9,0.5,0.5c5.2-5.7,10.8-11.2,17.4-15.1c3.6-2.1,7.4-3.5,11.3-5c3.6-1.3,7.2-2.7,10.4-4.8
											c2.8-1.8,5.4-4.2,7-7.3s2.1-6.6,3.1-10c0.5-1.7,1.1-3.4,2-4.9c0.9-1.6,2.2-2.9,3.7-3.9c3-2.2,6.4-3.6,9.5-5.5
											c1.8-1.1,3.5-2.2,5.1-3.5c1.5-1.1,3-2.3,4.3-3.7c2.2-2.4,3.7-5.7,2-8.8c-1.7-3-5.3-4.2-8.6-4.2c-2,0-4,0.5-6,1
											c-1.9,0.5-3.7,1.1-5.5,1.8c-3.2,1.3-6.1,3.3-8.4,5.8c-2.1,2.2-3.7,4.8-5.2,7.5c-3.1,5.5-5.5,11.5-9.8,16.3
											c-2.3,2.6-5.1,4.6-8.3,6.1c-3.3,1.7-6.8,2.9-10.1,4.6c-6.3,3.1-11.4,8-14.5,14.3c-0.7,1.5-1.3,3-1.8,4.6
											C227.1,258.5,227.4,258.6,227.5,258.4L227.5,258.4z"/>
									</g>
								</g>
								<g>
									<g>
										<path class="st33" d="M232.2,259.8c2.1-5.4,5.5-10.2,10-13.9c2.2-1.8,4.6-3.4,7.1-4.6c2.9-1.4,6.1-2.3,9-3.9
											c11.3-5.9,14.6-19.5,21.9-29.1c2.1-2.8,4.6-5.2,7.5-7.1c2.9-1.9,6.1-3.2,9.3-4.3c0.4-0.1,0.2-0.7-0.2-0.6
											c-5.7,1.7-11.3,4.7-15.3,9.2c-4.4,4.9-7.1,10.9-10.3,16.6c-3,5.3-6.6,10.7-11.9,14c-2.9,1.8-6.1,2.8-9.2,4.1
											c-2.6,1.1-5.1,2.6-7.3,4.4c-5,3.9-8.8,9.3-11,15.2C232,259.9,232.1,259.9,232.2,259.8L232.2,259.8z"/>
									</g>
								</g>
								<g>
									<g>
										<path class="st33" d="M304.3,199.4c-2.9,6.8-10.8,8.3-16.4,12.2c-4.8,3.4-8.4,8.1-11.7,12.9c-3.4,5-6.7,10.2-11,14.5
											c-4.9,4.7-11,7.7-16.7,11.2c-3.3,2-6.4,4.3-9.1,7.1c-2.8,2.9-5.2,6.2-7.5,9.5c-0.2,0.3,0.3,0.6,0.5,0.3
											c2.2-3,4.4-6,6.9-8.7c2.4-2.6,5.2-4.8,8.1-6.8c5.7-3.7,11.9-6.5,17.1-11c9-7.9,13.1-20.2,22.7-27.6c3.2-2.5,7-4,10.5-6.1
											c2.9-1.7,5.7-4.1,6.9-7.3C304.7,199.4,304.4,199.3,304.3,199.4L304.3,199.4z"/>
									</g>
								</g>
							</g>
							<g>
								<g>
									<g>
										<path class="st33" d="M250.2,267.5c7.6-5.8,15.8-10.9,25-13.6c8.4-2.4,17.6-2.5,25.8,0.8c2,0.8,3.9,1.8,5.6,3
											c1.8,1.2,3.7,2.7,4.8,4.7c2.3,4.1-1.4,8.3-5.3,9.3c-2.6,0.7-5.4,0.3-8-0.2s-5.2-1.2-7.8-1.7c-5.1-0.9-10.4-1.5-15.6-1.4
											c-9.3,0.2-18.8,2.6-26.5,8c-0.9,0.6-1.7,1.3-2.5,2c-0.2,0.2,0.1,0.6,0.3,0.4c3.8-2.9,7.9-5.3,12.5-6.9
											c4.7-1.7,9.6-2.5,14.6-2.8c5.5-0.3,11,0.2,16.5,1.2c2.7,0.5,5.3,1.1,8,1.7c2.5,0.5,5.2,0.9,7.7,0.5
											c3.7-0.6,7.7-3.8,7.4-7.9c-0.2-2.1-1.5-3.9-3.1-5.3c-1.6-1.5-3.4-2.7-5.3-3.8c-7.7-4.2-17-5-25.5-3.3
											c-9.6,1.9-18.2,6.9-26,12.6c-1,0.7-2,1.5-3,2.2C249.8,267.3,250,267.7,250.2,267.5L250.2,267.5z"/>
									</g>
								</g>
								<g>
									<g>
										<path class="st33" d="M256.5,268.1c7.2-3.5,13.6-8.8,21.3-11.2c3.8-1.2,7.8-1.7,11.7-0.7c1.9,0.5,3.8,1.3,5.7,1.8
											c2,0.5,4,0.7,6,0.9c4.1,0.5,8.1,1.5,10.8,4.8c0.2,0.2,0.5-0.1,0.4-0.3c-1.8-2.9-5.5-4.1-8.7-4.7c-2.1-0.4-4.3-0.5-6.4-0.9
											c-2.1-0.3-4-1-6-1.7c-7.9-2.6-15.9,0.5-22.7,4.5c-4,2.4-7.9,5.2-12.1,7.3C256.3,268,256.4,268.1,256.5,268.1L256.5,268.1z
											"/>
									</g>
								</g>
								<g>
									<g>
										<path class="st33" d="M311.4,268.3c-4.8,2-9.7-0.4-14-2.3c-2.1-0.9-4.3-1.8-6.6-2.2c-2.3-0.4-4.6-0.6-7-0.5
											c-9.2,0.2-17.9,3.1-26.6,5.8c-2.5,0.8-5,1.5-7.5,2.2s-5.1,1.1-7.6,1.7c-0.3,0.1-0.2,0.6,0.1,0.6c2.3-0.1,4.5-0.8,6.7-1.3
											c2.2-0.6,4.4-1.2,6.6-1.9c4.4-1.4,8.8-2.9,13.3-4.1c4.4-1.2,9-2.2,13.6-2.5c2.5-0.1,4.9-0.1,7.4,0.3
											c2.4,0.4,4.7,1.3,6.9,2.3c4.4,1.9,10,4.9,14.7,2.4C311.8,268.6,311.6,268.2,311.4,268.3L311.4,268.3z"/>
									</g>
								</g>
							</g>
							<g>
								<g>
									<g>
										<path class="st33" d="M169.1,294.5c-0.4-10.4-1.7-21.2-6.5-30.6c-4-7.9-10.6-14.7-18.9-17.9c-2.1-0.8-4.2-1.4-6.4-1.7
											c-2.3-0.3-4.8-0.5-6.9,0.7c-3.4,1.8-4.3,6.4-3.1,9.8c1.5,4.4,5.9,7,9.5,9.5c4.2,3,8.2,6.3,11.8,10.1
											c7.1,7.5,12.3,16.9,13.4,27.3c0.1,1.3,0.2,2.6,0.3,3.9c0,0.4,0.5,0.4,0.6,0c0.4-9.8-3.9-19.6-9.8-27.2
											c-3-3.9-6.6-7.4-10.4-10.5c-1.9-1.5-3.8-3-5.8-4.4c-1.9-1.4-3.9-2.7-5.6-4.3c-1.6-1.5-2.9-3.3-3.4-5.4
											c-0.4-1.8-0.3-3.9,0.6-5.6c2.3-4.5,8.1-3.5,12.1-2.5c8.5,2.3,15.6,8.4,20.1,15.8c5.3,8.8,7.3,19.2,8,29.3
											c0.1,1.3,0.1,2.5,0.2,3.8C168.7,294.8,169.1,294.8,169.1,294.5L169.1,294.5z"/>
									</g>
								</g>
								<g>
									<g>
										<path class="st33" d="M164.2,290.2c-1.9-8.2-1.6-16.9-5.1-24.8c-1.4-3.2-3.5-6.2-6.3-8.3c-1.7-1.3-3.6-2.1-5.4-3.2
											c-1.8-1.1-3.4-2.6-5-4c-3.1-2.7-7.1-5.7-11.5-4.9c-0.3,0-0.2,0.5,0.1,0.4c2-0.1,4,0.3,5.8,1.2s3.3,2.1,4.8,3.4
											c1.5,1.3,2.9,2.6,4.5,3.7c1.7,1.2,3.6,2,5.3,3.1c6.5,4,8.9,11.9,10.1,19c0.8,4.8,1.4,9.6,2.5,14.4
											C164.1,290.3,164.2,290.3,164.2,290.2L164.2,290.2z"/>
									</g>
								</g>
								<g>
									<g>
										<path class="st33" d="M127.3,249.2c1,4.3,5.4,6.5,9.1,8.2c2.3,1,4.7,2,6.9,3.3c2.2,1.4,4.1,3.2,5.8,5.1
											c6.1,7.1,9.5,16.1,13.1,24.7c1,2.4,2,4.8,3.1,7.1c1.1,2.4,2.2,4.9,3.8,6.9c0.2,0.3,0.6,0,0.5-0.3c-1-2.1-2.2-4.1-3.3-6.2
											c-1-2.1-2-4.2-2.9-6.3c-1.8-4.3-3.6-8.6-5.6-12.8c-2-4.1-4.2-8.1-7.1-11.7c-1.5-1.9-3.2-3.7-5-5.3
											c-1.9-1.6-4.1-2.8-6.3-3.8c-4.5-2-10.2-4-11.8-9.2C127.6,248.9,127.2,249,127.3,249.2L127.3,249.2z"/>
									</g>
								</g>
							</g>
							<g>
								<g>
									<g>
										<path class="st33" d="M381.4,245.2c-3.1-7.9-9.7-13.5-16.1-18.7c-6.5-5.4-13.5-11.3-16.4-19.6c-1.4-4-1.8-8.8,0.2-12.7
											s6.3-5.8,10.6-5.4c4.6,0.4,8.7,3.1,11.9,6.2c3.2,3,5.7,6.7,7.8,10.6c4.5,8.8,6.1,18.8,7.4,28.5c0.2,1.2,0.3,2.4,0.5,3.6
											c0,0.2,0.5,0.2,0.4-0.1c-0.5-5.3-1.2-10.5-2.2-15.7c-1-4.8-2.3-9.6-4.3-14.1c-1.8-4.1-4.2-8-7.2-11.3s-6.7-6.3-11-7.7
											c-3.9-1.2-8.5-0.9-11.8,1.8c-3.5,2.8-4.4,7.5-3.9,11.8c0.9,8.8,7.4,15.8,13.8,21.3c6.6,5.7,14.2,10.9,18.5,18.6
											c0.5,1,1,2,1.4,3C381.1,245.5,381.5,245.4,381.4,245.2L381.4,245.2z"/>
									</g>
								</g>
								<g>
									<g>
										<path class="st33" d="M384.7,244.6c-0.8-4.1-2.4-8-4.8-11.4c-2.4-3.5-5.6-6.3-9.1-8.8c-3.6-2.6-7.4-5-10.6-8
											c-2.8-2.6-5.4-5.6-7.3-8.9c-2.2-3.8-3.5-8-3.9-12.4c0-0.4-0.7-0.4-0.6,0c0.4,3.8,1.3,7.5,3,10.9s4,6.4,6.6,9.1
											c3,3.1,6.4,5.6,9.9,8c3.7,2.5,7.4,5.1,10.3,8.6c3.1,3.8,5.3,8.3,6.4,13.1C384.6,244.7,384.7,244.7,384.7,244.6
											L384.7,244.6z"/>
									</g>
								</g>
								<g>
									<g>
										<path class="st33" d="M353,190c1.1,8.1,7.4,13.7,12.6,19.5c6,6.6,11.1,14.1,14.9,22.2c2.2,4.6,3.8,9.4,5.5,14.2
											c0.1,0.2,0.4,0.1,0.4-0.1c-1-4.3-2.7-8.4-4.5-12.4c-1.8-4.1-4-8-6.4-11.7s-5-7.2-7.8-10.5c-2.7-3.1-5.6-6-8.3-9.1
											c-2.9-3.5-5.3-7.4-6.1-12C353.3,189.7,353,189.8,353,190L353,190z"/>
									</g>
								</g>
								<g>
									<g>
										<path class="st33" d="M360.3,188.6c2.1,3.4,4.6,6.4,7.1,9.5c2.4,3,4.8,6.1,7,9.3c4.2,6.3,7.6,13.1,10.2,20.3
											c0.7,2,1.3,4,1.9,6c0.6,2.1,1,4.2,1.6,6.3c0.1,0.2,0.5,0.2,0.5-0.1c-0.2-1.8-0.8-3.7-1.2-5.4c-0.5-1.8-1.1-3.7-1.7-5.5
											c-1.2-3.5-2.6-7-4.3-10.4c-3.3-6.9-7.5-13.3-12.3-19.3c-2.9-3.6-5.9-7-8.5-10.9C360.5,188.2,360.2,188.4,360.3,188.6
											L360.3,188.6z"/>
									</g>
								</g>
							</g>
							<g>
								<g>
									<g>
										<path class="st33" d="M363.1,281.1c0.8-7.1,0.3-14.4-1.4-21.3c-0.8-3.1-1.7-6.3-3.4-9c-1.7-2.6-3.8-4.8-6.2-6.8
											c-2.4-2-5-3.8-7.7-5.4c-2.9-1.6-5.8-2.9-8.9-4.2c-2.7-1.1-5.4-2.4-7.8-4.2c-1.8-1.4-3.5-2.9-5-4.5
											c-1.7-1.8-3.3-3.7-4.6-5.9c-1-1.7-1.9-3.8-1.4-5.8c0.7-3,3.9-3.2,6.5-2.9c3.4,0.4,6.8,1.2,10.1,2.1c3.3,1,6.6,2.4,9.3,4.6
											c2.8,2.4,5.5,5,8.7,6.9c3,1.8,6.5,2.7,9.4,4.8c2.8,2.1,4.7,5.2,6.1,8.3c3.1,6.9,4.2,14.7,4.3,22.2
											c0.1,7.8-0.8,15.5-1.9,23.3c-0.3,1.8-0.5,3.7-0.8,5.5c0,0.3,0.4,0.3,0.5,0.1c1.4-7.8,2.5-15.6,2.8-23.5
											c0.3-7.8-0.3-15.7-2.6-23.2c-1-3.3-2.4-6.6-4.4-9.5c-1-1.4-2.1-2.6-3.5-3.6c-1.4-1.1-3-1.9-4.6-2.6
											c-1.7-0.7-3.4-1.4-4.9-2.3c-1.7-1-3.3-2.2-4.8-3.5c-1.5-1.2-2.8-2.6-4.3-3.7c-1.3-1-2.7-1.9-4.3-2.6
											c-3.2-1.5-6.6-2.4-10-3.1c-1.7-0.3-3.3-0.7-5-0.9c-1.4-0.2-2.9-0.3-4.3,0.2c-2.1,0.7-3.2,2.7-3,4.8c0.2,2.2,1.3,4.2,2.5,6
											c1.4,2.1,3.1,4,4.9,5.8c1.5,1.5,3.1,2.9,4.8,4.1c2.8,2,6.1,3.2,9.2,4.5c3,1.3,5.9,2.7,8.6,4.5c2.8,1.8,5.5,3.8,7.8,6.1
											c2.2,2.2,4.3,4.7,5.5,7.7c2.7,6.8,3.7,14.5,3.7,21.8c0,1.8-0.1,3.5-0.2,5.3C362.8,281.3,363.1,281.3,363.1,281.1
											L363.1,281.1z"/>
									</g>
								</g>
								<g>
									<g>
										<path class="st33" d="M316.6,213.3c1.4,1.5,2.4,3.3,3.7,5c1.4,1.8,2.9,3.4,4.6,4.8c3.4,2.8,7.3,4.9,11.2,7
											c4.1,2.2,8.2,4.4,12.3,6.6c0.8,0.5,1.7,0.9,2.5,1.4c2.7,1.7,5,3.8,7.1,6.3c3,3.6,5.1,7.9,6.4,12.4
											c1.9,6.6,2,13.5,1.3,20.2c-0.1,1-0.2,2.1-0.3,3.1c0,0.2,0.4,0.3,0.4,0.1c0.7-3.9,1-7.9,0.9-11.8c-0.1-3.2-0.4-6.4-1.1-9.5
											c-1.1-4.8-3-9.4-5.9-13.4c-2-2.8-4.5-5.2-7.3-7.2c-0.9-0.6-1.9-1.2-2.8-1.8c-3-1.7-6-3.2-9.1-4.8
											c-4.1-2.2-8.3-4.2-12.1-6.8c-3.8-2.6-7-5.8-9.6-9.7c-0.5-0.8-1.2-1.4-1.9-2.1C316.6,213,316.5,213.2,316.6,213.3
											L316.6,213.3z"/>
									</g>
								</g>
								<g>
									<g>
										<path class="st33" d="M322.5,211c3.7,4.1,8.4,7.5,13.3,10c2.5,1.2,5.3,2.1,7.9,3.2c2.3,1,4.6,2.2,6.6,3.7
											c8.5,6.1,13.8,15.7,16.9,25.6c1,3.1,1.7,6.3,2.4,9.6c0.7,3.2,1.1,6.5,1.8,9.7c0.1,0.3,0.6,0.2,0.5-0.1
											c-0.3-2.9-0.8-5.8-1.4-8.7c-0.6-2.9-1.2-5.7-2-8.5c-1.5-5.3-3.5-10.5-6.3-15.3c-2.5-4.2-5.7-8.2-9.5-11.3
											c-1.9-1.6-3.9-3-6.1-4.1c-2.4-1.3-5-2.1-7.6-3.1c-6.1-2.3-11.7-6.3-16.2-10.9C322.6,210.5,322.4,210.8,322.5,211
											L322.5,211z"/>
									</g>
								</g>
							</g>
						</g>
					</g>
				</g>
			</g>
			<g>
				<g>
					<g>
						<defs>
							<rect id="SVGID_15_" x="157.1" y="166.4" width="198.2" height="131.4"/>
						</defs>
						<clipPath id="SVGID_16_">
							<use xlink:href="#SVGID_15_"  style="overflow:visible;"/>
						</clipPath>
						<g class="st34">
							<g>
								<g>
									<g>
										<path class="st35" d="M336.9,251.9c0.5-1.9-0.7-2.5-1.1-2.6c-0.7-0.2-2.4,0.3-2.9,1c0.7-1.9,3.2-9.8,1.7-10.1
											c-2-0.4-4.9,9-4.9,9s0.9-9.1-0.3-9.4c-2.2-0.5-2.5,5.1-4.7,11c-0.8,0.9-1.4,3-1.2,5.6c0.1,1.7,0.9,4.3,2.5,5.6l-1.5,3.7
											l4.8,5.3l3.1-7.8c0,0,1.2,0,2.2-0.4s2.2-1.7,3-3.5C341.1,250.6,336.9,251.9,336.9,251.9z"/>
									</g>
								</g>
								<g>
									<g>
										<path class="st27" d="M333.5,251c-0.7,0.8-1.1,1.8-1.5,2.8c-0.3,1-0.7,2.2-0.4,3.3c0.3,0.9,1.1,1.5,2.1,1.2
											c0.4-0.1,0.8-0.4,1.1-0.8c0.2-0.4,0.3-0.9,0.3-1.3c0-0.2-0.2-0.3-0.4-0.1c-0.2,0.2-0.3,0.6-0.4,0.9
											c-0.2,0.4-0.5,0.6-0.8,0.7c-0.9,0.3-1.3-0.8-1.3-1.5c0-0.9,0.3-1.7,0.5-2.6c0.3-0.8,0.6-1.7,0.9-2.5
											C333.7,251,333.6,250.9,333.5,251L333.5,251z"/>
									</g>
								</g>
								<g>
									<g>
										<path class="st27" d="M336.4,252.7c-0.6,0.8-1,1.7-1.4,2.6c-0.4,0.8-0.8,1.8-0.6,2.8c0.2,1.2,1.7,2.3,2.7,1.2
											c0.2-0.2,0-0.5-0.2-0.4c-0.3,0.1-0.6,0.2-0.9,0.2c-0.2,0-0.4-0.1-0.6-0.3c-0.4-0.3-0.5-0.8-0.5-1.3c0-0.8,0.4-1.7,0.7-2.4
											c0.3-0.8,0.7-1.5,1.1-2.3C336.8,252.7,336.5,252.6,336.4,252.7L336.4,252.7z"/>
									</g>
								</g>
								<g>
									<g>
										<path class="st27" d="M324.6,251.6c1-0.7,2.1-1.1,3.3-1.5c0.4-0.1,0.8-0.3,1.3-0.4c0.3-0.1,0.8-0.2,1,0.1
											c0.4,0.4,0.1,1.3-0.3,1.6c-0.9,0.9-2.1,1.4-3.2,2.1c-0.3,0.2-0.2,0.6,0.2,0.6c1.1,0,2.1,0.5,2.8,1.5c0.6,1,0.7,2,0.7,3.1
											c0,0.3,0.4,0.4,0.5,0.1c0.7-1.1,0.1-2.8-0.6-3.7c-0.8-1.1-2-1.7-3.3-1.7c0.1,0.2,0.1,0.4,0.2,0.6c1-0.6,2.1-1.1,3.1-1.8
											c0.6-0.5,1-1.1,1-1.9c0-0.7-0.3-1.3-1-1.5c-0.8-0.2-1.8,0.3-2.5,0.6c-1.1,0.5-2.2,1-3.1,1.9
											C324.4,251.5,324.5,251.6,324.6,251.6L324.6,251.6z"/>
									</g>
								</g>
							</g>
							<path class="st6" d="M170.7,263c15.4-14.4,39.2-14.7,56.5-13c17.3,1.8,30.9,4.7,42,12.2c15.2,10.2,26.8,39.9,26.8,39.9
								s27.6-36.4,29.6-38.9c2.3-0.3,4.4,0.2,6.1,1.9c0.2,1.2-4.8,27.8-10.1,37.9c-4.6,0-170.3-0.9-170.3-0.9S156.9,275.8,170.7,263
								z"/>
							<g>
								<g>
									<g>
										<g>
											<defs>
												<path id="SVGID_17_" d="M170.7,263c15.4-14.4,39.2-14.7,56.5-13c17.3,1.8,30.9,4.7,42,12.2
													c15.2,10.2,26.8,39.9,26.8,39.9s27.6-36.4,29.6-38.9c2.3-0.3,4.4,0.2,6.1,1.9c0.2,1.2-4.8,27.8-10.1,37.9
													c-4.6,0-170.3-0.9-170.3-0.9S156.9,275.8,170.7,263z"/>
											</defs>
											<clipPath id="SVGID_18_">
												<use xlink:href="#SVGID_17_"  style="overflow:visible;"/>
											</clipPath>
											<g class="st36">
												<path class="st37" d="M278.4,268.3l-17.5-16.1c-0.7,0-1.4,0.6-1.6,1.3c-0.7,2.2,0.7,3.8,2.2,5.1
													c1.5,1.3,2.9,2.7,3.7,4.5c0.9,2,1,4.3,1.9,6.3c1.1,2.6,3.4,3.4,6,3.6C276.5,273.1,277.8,271.3,278.4,268.3z"/>
												<path class="st37" d="M279.5,296.8c-1.2-0.4-2.7-0.6-3.4-1.7c-0.7-1-0.4-2.4-1-3.5s-2.1-1.5-3.3-1
													c-1.1,0.5-1.8,1.9-1.5,3.1c0.3,1.7,2.1,2.9,2.3,4.7c0.1,1.2-0.6,2.3-1,3.3c-0.5,1.1-0.7,2.5,0.2,3.3l10.8,3
													c1.1-0.3,1.9-1.2,2.3-2.2s0.4-2.2,0.1-3.2C284.2,300,282.1,297.7,279.5,296.8z"/>
												<path class="st37" d="M282.6,279.8c-0.4,1.1-0.7,2.2-0.8,3.3c0,0.4-0.1,0.9,0.1,1.2c0.2,0.4,0.5,0.6,0.8,0.8
													c0.7,0.5,1.5,0.8,2.3,1.3c1.3,0.8,2.2,2.1,3,3.4s1.6,2.6,2.6,3.7s2.4,2,3.9,2c1.5,0.1,3.1-0.9,3.5-2.3l-13.8-14.9
													C283.4,278.3,282.9,279.1,282.6,279.8z"/>
												<path class="st37" d="M313.7,276c-1.4-0.7-3-1.1-4.6-1.3l-5.2,10.9c-1.7,2.4-1.7,5.8,0,8.2c0.5,0.7,1.1,1.3,1.8,1.6
													c0.8,0.3,1.7,0.3,2.3-0.2c0.9-0.7,1-1.9,1-3s-0.1-2.3,0.5-3.2c0.9-1.4,2.9-1.6,4-2.7c0.7-0.7,1-1.6,1.2-2.6
													c0.4-1.5,0.6-2.9,0.7-4.4c0-0.6,0.1-1.1-0.2-1.6C315.1,276.8,314.4,276.3,313.7,276z"/>
												<path class="st37" d="M323.1,286.3c-1.5,0.5-2.9,1.4-3.6,2.7c-0.8,1.3-0.8,3.2,0.2,4.3c0.7,0.8,1.9,1.2,3,1.4
													c2.8,0.5,5.9,0,7.9-2.1l-1-5.6C327.8,285.6,325.3,285.6,323.1,286.3z"/>
												<path class="st37" d="M324.4,269.5c0.3-0.6,0.6-1.3,1.2-1.7c1.4-0.9,3.6,0.1,4.8-1.1c1-0.9,0.6-2.6-0.1-3.7
													c-1.3-2.1-3.3-3.7-5.6-4.4l-7.8,8.5c-0.4,1.2,0.1,2.6,0.9,3.7c0.7,0.9,1.6,1.8,2.7,1.9
													C322.3,272.8,323.6,271.1,324.4,269.5z"/>
												<path class="st37" d="M244.1,274.8c0.5-0.1,1-0.3,1.4-0.6c1-0.8,1.2-2.2,1.1-3.5s-0.3-2.6,0.2-3.8
													c0.7-1.8,2.9-2.8,3.6-4.6c0.8-2.1-0.6-4.4-2.3-5.8c-1.3-1-2.8-1.9-4.5-2c-1.6-0.1-3.4,0.5-4.4,1.8l-9.8,2.8
													c-1.7,0.1-3.3,0.5-4.8,1.3c-0.7,0.3-1.3,0.8-1.4,1.6c-0.1,0.9,0.7,1.7,1.5,2c2.1,0.9,4.5,0.4,6.7,1.1
													c1.6,0.5,3,1.6,3.9,3c0.7,1.1,1,2.4,1.6,3.5C238.5,274.1,241.4,275.4,244.1,274.8z"/>
												<path class="st37" d="M255.5,284.3c-1.6,0.9-2.6,2.4-3.5,4c-0.9,1.5-1.9,3.1-3.4,4c-2.9,1.7-6.7,0.5-10,1.2
													c-1.9,0.4-3.7,1.6-4.9,3.2c-0.9,1.2-1.4,2.8-0.8,4.1c0.4,0.9,1.2,1.5,2,1.9c2.6,1.4,5.6,1.6,8.6,1.7l7.8-3
													c-0.3-0.8,0-1.7,0.5-2.3c0.5-0.7,1.2-1.1,1.9-1.6c2.7-2,4.9-4.7,6.4-7.7c0.7-1.5,1.3-3.3,0.4-4.7
													C259.3,283.6,257,283.4,255.5,284.3z"/>
												<path class="st37" d="M225,298.5c-1.3-1-2.9-1.3-4.4-1.5c-1.6-0.2-3.1-0.2-4.7,0c-1.6,0.1-3.1,0.4-4.7,0.5
													c-1.6,0-3.2-0.3-4.4-1.3c-1.6-1.2-2.4-3.4-4.1-4.4c-1.9-1.1-6.2-0.9-6.5,1.8c-0.6,4.5,3,16.4,21.2,14.7l0.9-1.6
													c1.9,0,3.9-0.4,5.6-1.3c1.2-0.6,2.4-1.4,2.8-2.7C227,301.1,226.2,299.4,225,298.5z"/>
												<path class="st37" d="M227.9,281.1c-0.3-0.2-0.7-0.4-1-0.6c-3.1-1.5-7.9,0.7-10.5-1.4c-1.2-1-1.1-5-2.9-5.4l-1.1-0.3
													c-1-0.4-2.2,0.2-2.7,1.2c-1.3,2.5-0.1,5.5-0.6,8.1c-0.6,2.9-2,5.1,0.6,7.8c1.3,1.3,3.1,1.9,4.8,2c1.6,0.1,3.4-0.5,3.9-2
													c1.1-3.3,0.1-5.4,4.9-4.3c1.4,0.3,2.8,0.5,4.1,0C230.8,285,230,282.6,227.9,281.1z"/>
												<path class="st37" d="M180.9,255.5c0.9,1.2,2,2.2,3.4,2.8c1.4,0.6,3,0.7,4.3,0c1.8-0.9,2.9-3.2,4.8-3.5
													c1.3-0.2,2.6,0.5,3.8,1.1c1.2,0.6,2.6,1.3,3.8,0.8c0.8-0.3,1.4-0.9,1.8-1.6c1.4-2.4,0.7-5.7-1.5-7.4
													c-1.4-1-3.1-1.4-4.8-1.7l-16.5,4.3c-0.6,0.7-0.7,1.8-0.5,2.7C179.8,253.9,180.3,254.7,180.9,255.5z"/>
												<path class="st37" d="M183.4,277.3c2.1-0.3,4,0.9,5.9,1.9c1.8,1,3.9,1.6,5.9,1.5c2.1-0.1,4.1-1.1,5.2-2.9
													c1.1-1.8,0.9-4.3-0.7-5.6c-1.1-0.9-2.6-1.2-4-1.1c-1.9,0.1-5.1,0.8-6.7-0.7c-1.5-1.4-0.6-4-1.3-5.6
													c-0.9-2-3.8-1.9-5-0.1c-1.3,2-0.8,4.1-3,5.7c-3.4,2.4-8.3,1.6-11.1,5.1c-0.8,1-0.8,2.4-0.3,3.5s1.4,2,2.5,2.7
													c2.4,1.5,4.5,1.5,6.8-0.3c1.3-1,2.4-2.3,3.8-3.2C182.1,277.7,182.8,277.4,183.4,277.3z"/>
												<path class="st37" d="M171.7,300c-2.9-3.1-7.5-3.6-11.1-5.8c-1.3-0.8-2.6-2.1-2.4-3.6c0.1-0.7,0.6-1.4,1.1-1.9
													c1.4-1.5,3.3-2.9,3.7-4.9c0.2-1.4-0.4-2.9-1.4-4c-1.7-2-4.5-3.1-7.1-2.8l-13,19.6c0.8,4,3.5,7.5,6.9,9.7
													s7.5,3.3,11.5,3.6c3.7,0.3,7.7-0.2,10.7-2.4c1.6-1.2,2.9-3.1,2.5-5.1C172.8,301.5,172.3,300.7,171.7,300z"/>
												<path class="st37" d="M193.3,300.6c-1.3-0.7-3.3-1.2-4.6-2.3c-1.6-1.3-1.9-3.5-3.5-4.8c-1.2-1-3-1-4.3-0.2
													c-1.3,0.8-2.1,2.3-2.3,3.8c-0.2,1.5,0.1,3.1,0.7,4.5c0.4,1,0.9,1.9,1.7,2.6l11,6.7c1.6-0.5,3.2-1.1,4.1-2.5
													c0.9-1.3,1-3,0.3-4.5C195.9,302.5,194.6,301.4,193.3,300.6z"/>
											</g>
										</g>
									</g>
								</g>
								<g>
									<g>
										<g>
											<defs>
												<path id="SVGID_19_" d="M170.7,263c15.4-14.4,39.2-14.7,56.5-13c17.3,1.8,30.9,4.7,42,12.2
													c15.2,10.2,26.8,39.9,26.8,39.9s27.6-36.4,29.6-38.9c2.3-0.3,4.4,0.2,6.1,1.9c0.2,1.2-4.8,27.8-10.1,37.9
													c-4.6,0-170.3-0.9-170.3-0.9S156.9,275.8,170.7,263z"/>
											</defs>
											<clipPath id="SVGID_20_">
												<use xlink:href="#SVGID_19_"  style="overflow:visible;"/>
											</clipPath>
											<circle class="st38" cx="235.7" cy="278.9" r="1.4"/>
										</g>
									</g>
								</g>
								<g>
									<g>
										<g>
											<defs>
												<path id="SVGID_21_" d="M170.7,263c15.4-14.4,39.2-14.7,56.5-13c17.3,1.8,30.9,4.7,42,12.2
													c15.2,10.2,26.8,39.9,26.8,39.9s27.6-36.4,29.6-38.9c2.3-0.3,4.4,0.2,6.1,1.9c0.2,1.2-4.8,27.8-10.1,37.9
													c-4.6,0-170.3-0.9-170.3-0.9S156.9,275.8,170.7,263z"/>
											</defs>
											<clipPath id="SVGID_22_">
												<use xlink:href="#SVGID_21_"  style="overflow:visible;"/>
											</clipPath>
											<circle class="st39" cx="232" cy="291.9" r="1.4"/>
										</g>
									</g>
								</g>
								<g>
									<g>
										<g>
											<defs>
												<path id="SVGID_23_" d="M170.7,263c15.4-14.4,39.2-14.7,56.5-13c17.3,1.8,30.9,4.7,42,12.2
													c15.2,10.2,26.8,39.9,26.8,39.9s27.6-36.4,29.6-38.9c2.3-0.3,4.4,0.2,6.1,1.9c0.2,1.2-4.8,27.8-10.1,37.9
													c-4.6,0-170.3-0.9-170.3-0.9S156.9,275.8,170.7,263z"/>
											</defs>
											<clipPath id="SVGID_24_">
												<use xlink:href="#SVGID_23_"  style="overflow:visible;"/>
											</clipPath>
											<circle class="st40" cx="323.4" cy="276.1" r="1.4"/>
										</g>
									</g>
								</g>
								<g>
									<g>
										<g>
											<defs>
												<path id="SVGID_25_" d="M170.7,263c15.4-14.4,39.2-14.7,56.5-13c17.3,1.8,30.9,4.7,42,12.2
													c15.2,10.2,26.8,39.9,26.8,39.9s27.6-36.4,29.6-38.9c2.3-0.3,4.4,0.2,6.1,1.9c0.2,1.2-4.8,27.8-10.1,37.9
													c-4.6,0-170.3-0.9-170.3-0.9S156.9,275.8,170.7,263z"/>
											</defs>
											<clipPath id="SVGID_26_">
												<use xlink:href="#SVGID_25_"  style="overflow:visible;"/>
											</clipPath>
											<circle class="st41" cx="200.2" cy="263.9" r="1.4"/>
										</g>
									</g>
								</g>
								<g>
									<g>
										<g>
											<defs>
												<path id="SVGID_27_" d="M170.7,263c15.4-14.4,39.2-14.7,56.5-13c17.3,1.8,30.9,4.7,42,12.2
													c15.2,10.2,26.8,39.9,26.8,39.9s27.6-36.4,29.6-38.9c2.3-0.3,4.4,0.2,6.1,1.9c0.2,1.2-4.8,27.8-10.1,37.9
													c-4.6,0-170.3-0.9-170.3-0.9S156.9,275.8,170.7,263z"/>
											</defs>
											<clipPath id="SVGID_28_">
												<use xlink:href="#SVGID_27_"  style="overflow:visible;"/>
											</clipPath>
											<circle class="st42" cx="173.9" cy="262.5" r="1.4"/>
										</g>
									</g>
								</g>
								<g>
									<g>
										<g>
											<defs>
												<path id="SVGID_29_" d="M170.7,263c15.4-14.4,39.2-14.7,56.5-13c17.3,1.8,30.9,4.7,42,12.2
													c15.2,10.2,26.8,39.9,26.8,39.9s27.6-36.4,29.6-38.9c2.3-0.3,4.4,0.2,6.1,1.9c0.2,1.2-4.8,27.8-10.1,37.9
													c-4.6,0-170.3-0.9-170.3-0.9S156.9,275.8,170.7,263z"/>
											</defs>
											<clipPath id="SVGID_30_">
												<use xlink:href="#SVGID_29_"  style="overflow:visible;"/>
											</clipPath>
											<circle class="st43" cx="189.3" cy="289.6" r="1.4"/>
										</g>
									</g>
								</g>
								<g>
									<g>
										<g>
											<defs>
												<path id="SVGID_31_" d="M170.7,263c15.4-14.4,39.2-14.7,56.5-13c17.3,1.8,30.9,4.7,42,12.2
													c15.2,10.2,26.8,39.9,26.8,39.9s27.6-36.4,29.6-38.9c2.3-0.3,4.4,0.2,6.1,1.9c0.2,1.2-4.8,27.8-10.1,37.9
													c-4.6,0-170.3-0.9-170.3-0.9S156.9,275.8,170.7,263z"/>
											</defs>
											<clipPath id="SVGID_32_">
												<use xlink:href="#SVGID_31_"  style="overflow:visible;"/>
											</clipPath>
											<circle class="st44" cx="167.1" cy="289.6" r="1.4"/>
										</g>
									</g>
								</g>
								<g>
									<g>
										<g>
											<defs>
												<path id="SVGID_33_" d="M170.7,263c15.4-14.4,39.2-14.7,56.5-13c17.3,1.8,30.9,4.7,42,12.2
													c15.2,10.2,26.8,39.9,26.8,39.9s27.6-36.4,29.6-38.9c2.3-0.3,4.4,0.2,6.1,1.9c0.2,1.2-4.8,27.8-10.1,37.9
													c-4.6,0-170.3-0.9-170.3-0.9S156.9,275.8,170.7,263z"/>
											</defs>
											<clipPath id="SVGID_34_">
												<use xlink:href="#SVGID_33_"  style="overflow:visible;"/>
											</clipPath>
											<circle class="st45" cx="258.1" cy="278.1" r="1.4"/>
										</g>
									</g>
								</g>
								<g>
									<g>
										<g>
											<defs>
												<path id="SVGID_35_" d="M170.7,263c15.4-14.4,39.2-14.7,56.5-13c17.3,1.8,30.9,4.7,42,12.2
													c15.2,10.2,26.8,39.9,26.8,39.9s27.6-36.4,29.6-38.9c2.3-0.3,4.4,0.2,6.1,1.9c0.2,1.2-4.8,27.8-10.1,37.9
													c-4.6,0-170.3-0.9-170.3-0.9S156.9,275.8,170.7,263z"/>
											</defs>
											<clipPath id="SVGID_36_">
												<use xlink:href="#SVGID_35_"  style="overflow:visible;"/>
											</clipPath>
											<circle class="st46" cx="277.4" cy="288.2" r="1.4"/>
										</g>
									</g>
								</g>
							</g>
							<path class="st47" d="M209.9,283.6c0,0-8,10.9-12.4,18.4"/>
							<path class="st47" d="M265.5,279.1c-0.7,0.8-4.6,18.3-3.9,23.8"/>
							<g>
								<path class="st35" d="M218.5,231.3c0,0-8.1,19.7-7,22.3c1.2,2.5,6.4,8.5,18.1,9.3c13.6,0.9,17.6-4.3,18.9-5.4
									s-0.8-21.3-0.8-21.3"/>
								<path class="st48" d="M247.9,236.1l-28.6-4.7c3.9,8.6,10.8,15.4,22,16.7c2.5,0.3,5.3,0.3,7.4,0.1L247.9,236.1z"/>
								<path class="st35" d="M253.4,193.7c5.5,6.5,9.6,33.5,6.7,41.3c-2.6,6.9-9.7,11.7-21.8,10.2c-12.2-1.4-19.3-9.4-23-19.1
									c-2.6-6.7-4.5-23.5,4.3-30.5C228.3,188.8,245,183.8,253.4,193.7z"/>
								<g>
									<path class="st49" d="M272.5,191.1c0.2-1.5,0-3-0.5-4.4c-1.6-4.5-6.7-7.2-11.5-7c-2.5,0.1-5.3,0.8-7.3-0.7
										c-0.8-0.6-1.4-1.5-2.2-2.2c-1.7-1.6-4.3-2.3-6.6-1.5c-3.3,1-5.3,4.4-8.3,5.9c-2.8,1.4-6,0.7-9,1c-1.5,0.1-3.2,0.6-4.3,1.7
										c-1.1,1.1-1.6,2.5-2.8,3.5c-1.7,1.4-4,1.5-5.8,2.7c-6.1,3.9-7.1,12.3-7,18.8c0.1,4.3,0.5,8.6,2,12.5c1.5,4,4.2,7.6,8,9.5
										c0.3,0.2,0.8,0.3,1.1,0c0.2-0.2,0.2-0.5,0.2-0.7c-0.1-1.8-0.9-5.6-0.5-7.4c0.1-0.5,2.5,4,5.4,5.1c4.2,1.6,2.3-5.4,1.8-7.2
										c-1.8-6.6-5.1-14.6,2.8-18.6c2-1,4.3-1.5,6.6-1.7c3.4-0.4,6.9-0.3,10.3,0.1c4.5,0.6,9,2,13.6,1.8c4-0.2,8.1-1.6,10.9-4.6
										C271.1,196.1,272.3,193.6,272.5,191.1z"/>
								</g>
								<g>
									<path class="st49" d="M272.3,192.4c-0.8,0.3-1.5,0.8-2.1,1.3c-8.2,7.7-18.4,4.8-21.3,4.3c-4.3-0.8-8.6-1.2-13-1.1
										c-5.3,0.1-11.2,1.1-14.4,5.4c-3.2,4.3-2.4,10.5-0.2,15.4c0.5,1.2,1,2.7,0,3.5s-2.5-0.1-3.6-0.7c-1.7-0.9-3.8-1.3-5.5-0.6
										c-1.2,0.5-2.1,1.6-2.5,2.9c1.6,3.5,4.1,6.6,7.5,8.3c0.3,0.2,0.8,0.3,1.1,0c0.2-0.2,0.2-0.5,0.2-0.7
										c-0.1-1.8-0.9-5.6-0.5-7.4c0.1-0.5,2.5,4,5.4,5.1c4.2,1.6,2.3-5.4,1.8-7.2c-1.8-6.6-5.1-14.6,2.8-18.6c2-1,4.3-1.5,6.6-1.7
										c3.4-0.4,6.9-0.3,10.3,0.1c4.5,0.6,9,2,13.6,1.8c4-0.2,8.1-1.6,10.9-4.6C270.8,196.4,271.8,194.5,272.3,192.4z"/>
								</g>
								<g>
									<path class="st35" d="M218.6,223.9c-1.4-3.1-5.1-1.9-6.4-0.1c-0.5,0.7-0.8,1.5-0.9,2.3c-0.6,3.5,1.2,8,4.5,9.4
										c3.3,1.4,6.2,0.1,6.8-2.6"/>
								</g>
								<circle class="st13" cx="255.9" cy="215.1" r="1.1"/>
								<g>
									<path class="st13" d="M255.5,206.1c0.4,0.1,2,0.7,1.4,1.4c-0.2,0.3-0.8,0.2-1.1,0.1c-0.3-0.1-0.7-0.2-1-0.2
										c0.1,0.1,0.1,0.3,0.1,0.4c0,0.3-0.8,0.1-0.9,0.1c-0.8-0.2-1.8-0.6-2.9-0.1C252.3,205.5,254.9,205.8,255.5,206.1z"/>
								</g>
								<path class="st13" d="M234.6,218c0,0.6,0.5,1.1,1.1,1.1s1.1-0.5,1.1-1.1s-0.5-1.1-1.1-1.1
									C235.1,216.8,234.6,217.3,234.6,218z"/>
								<g>
									<path class="st13" d="M232.2,211.2c-0.4,0.3-2,1.4-1.2,1.9c0.4,0.2,1-0.1,1.3-0.3c0.3-0.2,0.7-0.5,1.1-0.5
										c0,0.1,0,0.3,0,0.4c0,0.3,0.9-0.2,1-0.2c0.9-0.5,1.8-1.2,3.3-1.1C235.6,209.6,232.7,210.7,232.2,211.2z"/>
								</g>
								<g>
									<g>
										<path d="M249.8,215.4c0.4,1.2,1.1,2.3,1.6,3.4c0.7,1.4,1.3,2.8,1.8,4.3c0.3,1.1,0.7,2.5,0.1,3.6c-0.6,1.2-2.1,1.4-3.3,1.3
											c-0.8-0.1-1.5-0.3-2.2-0.6c-0.6-0.3-1.2-0.7-1.8-0.9c-0.1-0.1-0.3,0.1-0.2,0.2c0.6,1.1,2.4,1.6,3.5,1.8
											c1.3,0.3,2.8,0.2,3.9-0.7c1-0.9,1.2-2.2,1-3.5c-0.2-1.6-0.9-3.2-1.6-4.6c-0.7-1.5-1.5-3.1-2.5-4.4
											C249.9,215.2,249.7,215.3,249.8,215.4L249.8,215.4z"/>
									</g>
								</g>
								<g>
									<path class="st2" d="M254.3,231.4c-1.7,2.2-6.6,3.3-9.3,2c-0.4-0.2-0.9,0.1-0.9,0.5c-0.3,4.9,3.5,7.2,7.7,6
										c4-1.1,5.1-6.2,3.5-8.6C255,231,254.5,231,254.3,231.4z"/>
								</g>
							</g>
							<g>
								<g>
									<path class="st50" d="M207.7,252.8c0.9,8,9.3,11.5,16.1,13.2c7.5,1.8,16,2.1,22.9-1.9c2.9-1.7,5.3-4.5,5.5-8
										c0-0.3-0.4-0.3-0.5-0.1c-0.3,1.5-0.8,2.8-1.7,4.1c-0.8,1.2-2,2.2-3.2,3c-2.7,1.8-6,2.8-9.2,3.2c-4,0.6-8.1,0.2-12.1-0.6
										c-3.7-0.8-7.4-1.9-10.7-3.8c-3.4-2-6.2-5-6.8-9.1C208,252.6,207.7,252.6,207.7,252.8L207.7,252.8z"/>
								</g>
							</g>
						</g>
					</g>
				</g>
			</g>
			<g>
				<g>
					<g>
						<defs>
							<rect id="SVGID_37_" x="157.1" y="166.4" width="198.2" height="131.4"/>
						</defs>
						<clipPath id="SVGID_38_">
							<use xlink:href="#SVGID_37_"  style="overflow:visible;"/>
						</clipPath>
						<g class="st51">
							<path class="st33" d="M339.5,279.8c0,0.8-0.6,1.4-1.4,1.4s-1.4-0.6-1.4-1.4s0.6-1.4,1.4-1.4S339.5,279,339.5,279.8z"/>
							<path class="st33" d="M349.5,232.1c0,0.8-0.6,1.4-1.4,1.4s-1.4-0.6-1.4-1.4s0.6-1.4,1.4-1.4
								C348.8,230.7,349.5,231.3,349.5,232.1z"/>
							<path class="st33" d="M270.2,252.6c0,0.8-0.6,1.4-1.4,1.4s-1.4-0.6-1.4-1.4c0-0.8,0.6-1.4,1.4-1.4
								C269.6,251.3,270.2,251.9,270.2,252.6z"/>
							<path class="st33" d="M289.8,277c0,0.8-0.6,1.4-1.4,1.4s-1.4-0.6-1.4-1.4s0.6-1.4,1.4-1.4C289.2,275.7,289.8,276.3,289.8,277
								z"/>
							<path class="st33" d="M183.6,245.5c0,0.8-0.6,1.4-1.4,1.4s-1.4-0.6-1.4-1.4s0.6-1.4,1.4-1.4
								C183,244.1,183.6,244.8,183.6,245.5z"/>
							<path class="st33" d="M203.3,215.2c0,0.8-0.6,1.4-1.4,1.4s-1.4-0.6-1.4-1.4c0-0.8,0.6-1.4,1.4-1.4S203.3,214.4,203.3,215.2z"
								/>
						</g>
					</g>
				</g>
			</g>
		</g>
	</g>
	<g>
		<path class="st14" d="M170.6,146.5h48.5c4.3,0,7.8-3.5,7.8-7.8V62c0-4.3-3.5-7.8-7.8-7.8h-48.5c-4.3,0-7.8,3.5-7.8,7.8v76.6
			C162.8,143,166.3,146.5,170.6,146.5z"/>
		<rect x="167.6" y="59.1" class="st52" width="54.5" height="82.4"/>
		<g>
			<g>
				<g>
					<defs>
						<rect id="SVGID_39_" x="167.6" y="59.1" width="54.5" height="82.4"/>
					</defs>
					<clipPath id="SVGID_40_">
						<use xlink:href="#SVGID_39_"  style="overflow:visible;"/>
					</clipPath>
					<g class="st53">
						
							<image style="overflow:visible;enable-background:new    ;" width="512" height="512" xlink:href="JitsiMeet.jpg"  transform="matrix(0.1646 0 0 0.1646 153.71 57.76)">
						</image>
					</g>
				</g>
			</g>
		</g>
	</g>
	<g>
		<g>
			<path class="st54" d="M415.7,42.1h-36l4.3-4.4V20c0-3.8,3.1-6.9,6.9-6.9h24.8c3.8,0,6.9,3.1,6.9,6.9v15.2
				C422.6,39,419.6,42.1,415.7,42.1z"/>
			<g>
				<path class="st55" d="M398.2,27.6c0,1.2-1,2.2-2.2,2.2s-2.2-1-2.2-2.2s1-2.2,2.2-2.2S398.2,26.4,398.2,27.6z"/>
				<path class="st55" d="M406.1,27.6c0,1.2-1,2.2-2.2,2.2s-2.2-1-2.2-2.2s1-2.2,2.2-2.2S406.1,26.4,406.1,27.6z"/>
				<path class="st55" d="M413.9,27.6c0,1.2-1,2.2-2.2,2.2s-2.2-1-2.2-2.2s1-2.2,2.2-2.2S413.9,26.4,413.9,27.6z"/>
			</g>
		</g>
		<g>
			<path class="st54" d="M111.4,133.6h32.1l-3.6-3.8v-16c0-3.4-2.8-6.2-6.2-6.2h-22.3c-3.4,0-6.2,2.8-6.2,6.2v13.7
				C105.3,130.9,108,133.6,111.4,133.6z"/>
			<g>
				<path class="st55" d="M127.2,121.7c0,1.1,0.9,2,2,2c1.1,0,2-0.9,2-2s-0.9-2-2-2S127.2,120.6,127.2,121.7z"/>
				<path class="st55" d="M120.1,121.7c0,1.1,0.9,2,2,2s2-0.9,2-2s-0.9-2-2-2S120.1,120.6,120.1,121.7z"/>
				<path class="st55" d="M113.1,121.7c0,1.1,0.9,2,2,2s2-0.9,2-2s-0.9-2-2-2S113.1,120.6,113.1,121.7z"/>
			</g>
		</g>
		<g>
			<path class="st56" d="M522.1,289.2h-26.9l3,3.2v13.4c0,2.9,2.3,5.2,5.2,5.2h18.7c2.9,0,5.2-2.3,5.2-5.2v-11.5
				C527.3,291.5,525,289.2,522.1,289.2z"/>
			<g>
				<path class="st2" d="M508.9,299.2c0-0.9-0.7-1.6-1.6-1.6s-1.6,0.7-1.6,1.6s0.7,1.6,1.6,1.6C508.2,300.8,508.9,300.1,508.9,299.2
					z"/>
				<path class="st2" d="M514.8,299.2c0-0.9-0.7-1.6-1.6-1.6c-0.9,0-1.6,0.7-1.6,1.6s0.7,1.6,1.6,1.6
					C514.1,300.8,514.8,300.1,514.8,299.2z"/>
				<path class="st2" d="M520.7,299.2c0-0.9-0.7-1.6-1.6-1.6c-0.9,0-1.6,0.7-1.6,1.6s0.7,1.6,1.6,1.6
					C520,300.8,520.7,300.1,520.7,299.2z"/>
			</g>
		</g>
	</g>
</g>
<g>
	<g class="st57">
		<path d="M91.8,383.8h-4.7l-12-19.2v19.2h-4.7v-27h4.7L87.2,376v-19.2h4.7L91.8,383.8L91.8,383.8z"/>
		<path d="M96.1,373.6c0-2,0.4-3.7,1.2-5.3c0.8-1.6,1.9-2.8,3.3-3.6c1.4-0.8,3-1.3,4.9-1.3c2.7,0,4.9,0.9,6.6,2.6s2.6,4.1,2.7,6.9
			v1.1c0,2-0.4,3.7-1.1,5.3s-1.8,2.8-3.3,3.6c-1.4,0.9-3.1,1.3-4.9,1.3c-2.8,0-5.1-0.9-6.8-2.8c-1.7-1.9-2.6-4.4-2.6-7.5
			C96.1,373.9,96.1,373.6,96.1,373.6z M100.6,374c0,2.1,0.4,3.7,1.3,4.9c0.9,1.2,2,1.8,3.6,1.8s2.7-0.6,3.6-1.8
			c0.8-1.2,1.3-2.9,1.3-5.2c0-2-0.4-3.6-1.3-4.8s-2.1-1.8-3.6-1.8s-2.6,0.6-3.5,1.8C101.1,369.9,100.6,371.6,100.6,374z"/>
		<path d="M129.8,378.3c0-0.8-0.3-1.4-1-1.8s-1.8-0.8-3.3-1.1c-1.5-0.3-2.8-0.7-3.8-1.2c-2.3-1.1-3.4-2.7-3.4-4.7
			c0-1.7,0.7-3.2,2.2-4.3c1.5-1.2,3.3-1.7,5.6-1.7c2.4,0,4.3,0.6,5.8,1.8c1.5,1.2,2.2,2.7,2.2,4.6h-4.5c0-0.9-0.3-1.6-1-2.2
			c-0.6-0.6-1.5-0.9-2.6-0.9c-1,0-1.8,0.2-2.4,0.7s-0.9,1.1-0.9,1.8c0,0.7,0.3,1.2,0.9,1.6s1.8,0.8,3.5,1.2c1.8,0.4,3.2,0.9,4.2,1.4
			s1.8,1.2,2.2,1.9c0.5,0.8,0.7,1.7,0.7,2.7c0,1.8-0.7,3.3-2.2,4.4s-3.5,1.7-5.9,1.7c-1.6,0-3.1-0.3-4.4-0.9s-2.3-1.4-3-2.4
			s-1.1-2.2-1.1-3.4h4.4c0.1,1.1,0.5,1.9,1.2,2.5s1.7,0.9,3,0.9c1.2,0,2.1-0.2,2.7-0.7C129.5,379.7,129.8,379.1,129.8,378.3z"/>
		<path d="M154.7,378.1l4.2-14.4h4.7l-7,20.1h-3.9l-7-20.1h4.7L154.7,378.1z"/>
		<path d="M175.1,384.2c-2.9,0-5.2-0.9-6.9-2.7c-1.8-1.8-2.7-4.2-2.7-7.2v-0.6c0-2,0.4-3.8,1.2-5.4s1.9-2.8,3.3-3.7
			c1.4-0.9,3-1.3,4.7-1.3c2.7,0,4.8,0.9,6.3,2.6s2.2,4.2,2.2,7.4v1.8H170c0.1,1.7,0.7,3,1.7,3.9c1,1,2.2,1.4,3.7,1.4
			c2.1,0,3.7-0.8,5-2.5l2.4,2.3c-0.8,1.2-1.9,2.1-3.2,2.8C178.2,383.8,176.7,384.2,175.1,384.2z M174.5,367c-1.2,0-2.2,0.4-3,1.3
			s-1.2,2.1-1.5,3.6h8.6v-0.3c-0.1-1.5-0.5-2.7-1.2-3.4C176.8,367.4,175.8,367,174.5,367z"/>
		<path d="M190.9,363.7l0.1,2.1c1.4-1.6,3.3-2.5,5.8-2.5c2.7,0,4.5,1,5.5,3.1c1.5-2.1,3.5-3.1,6.2-3.1c2.2,0,3.9,0.6,4.9,1.8
			c1.1,1.2,1.6,3,1.7,5.4v13.2h-4.5v-13.1c0-1.3-0.3-2.2-0.8-2.8s-1.5-0.9-2.8-0.9c-1,0-1.9,0.3-2.5,0.8c-0.6,0.6-1.1,1.3-1.4,2.2
			v13.8h-4.5v-13.2c-0.1-2.4-1.3-3.5-3.6-3.5c-1.8,0-3.1,0.7-3.8,2.2v14.5h-4.5v-20.1h4.2V363.7z"/>
		<path d="M218.8,373.6c0-2,0.4-3.7,1.2-5.3c0.8-1.6,1.9-2.8,3.3-3.6c1.4-0.8,3-1.3,4.9-1.3c2.7,0,4.9,0.9,6.6,2.6s2.6,4.1,2.7,6.9
			v1.1c0,2-0.4,3.7-1.1,5.3s-1.8,2.8-3.3,3.6c-1.4,0.9-3.1,1.3-4.9,1.3c-2.8,0-5.1-0.9-6.8-2.8s-2.6-4.4-2.6-7.5L218.8,373.6
			L218.8,373.6z M223.3,374c0,2.1,0.4,3.7,1.3,4.9c0.9,1.2,2,1.8,3.6,1.8s2.7-0.6,3.6-1.8c0.8-1.2,1.3-2.9,1.3-5.2
			c0-2-0.4-3.6-1.3-4.8s-2.1-1.8-3.6-1.8s-2.6,0.6-3.5,1.8C223.8,369.9,223.3,371.6,223.3,374z"/>
		<path d="M252.6,378.3c0-0.8-0.3-1.4-1-1.8s-1.8-0.8-3.3-1.1c-1.5-0.3-2.8-0.7-3.8-1.2c-2.3-1.1-3.4-2.7-3.4-4.7
			c0-1.7,0.7-3.2,2.2-4.3c1.5-1.2,3.3-1.7,5.6-1.7c2.4,0,4.3,0.6,5.8,1.8c1.5,1.2,2.2,2.7,2.2,4.6h-4.5c0-0.9-0.3-1.6-1-2.2
			c-0.6-0.6-1.5-0.9-2.6-0.9c-1,0-1.8,0.2-2.4,0.7c-0.6,0.5-0.9,1.1-0.9,1.8c0,0.7,0.3,1.2,0.9,1.6c0.6,0.4,1.8,0.8,3.5,1.2
			c1.8,0.4,3.2,0.9,4.2,1.4s1.8,1.2,2.2,1.9c0.5,0.8,0.7,1.7,0.7,2.7c0,1.8-0.7,3.3-2.2,4.4c-1.5,1.1-3.5,1.7-5.9,1.7
			c-1.6,0-3.1-0.3-4.4-0.9c-1.3-0.6-2.3-1.4-3-2.4s-1.1-2.2-1.1-3.4h4.4c0.1,1.1,0.5,1.9,1.2,2.5s1.7,0.9,3,0.9
			c1.2,0,2.1-0.2,2.7-0.7C252.3,379.7,252.6,379.1,252.6,378.3z"/>
		<path d="M279.2,384.2c-2.9,0-5.2-0.9-6.9-2.7c-1.8-1.8-2.7-4.2-2.7-7.2v-0.6c0-2,0.4-3.8,1.2-5.4c0.8-1.6,1.9-2.8,3.3-3.7
			c1.4-0.9,3-1.3,4.7-1.3c2.7,0,4.8,0.9,6.3,2.6s2.2,4.2,2.2,7.4v1.8h-13.1c0.1,1.7,0.7,3,1.7,3.9c1,1,2.2,1.4,3.7,1.4
			c2.1,0,3.7-0.8,5-2.5l2.4,2.3c-0.8,1.2-1.9,2.1-3.2,2.8C282.4,383.8,280.9,384.2,279.2,384.2z M278.7,367c-1.2,0-2.2,0.4-3,1.3
			s-1.2,2.1-1.5,3.6h8.6v-0.3c-0.1-1.5-0.5-2.7-1.2-3.4C280.9,367.4,279.9,367,278.7,367z"/>
		<path d="M295,363.7l0.1,2.3c1.5-1.8,3.4-2.7,5.8-2.7c4.2,0,6.3,2.4,6.4,7.2v13.3h-4.5v-13c0-1.3-0.3-2.2-0.8-2.8
			c-0.6-0.6-1.5-0.9-2.7-0.9c-1.8,0-3.2,0.8-4.1,2.5v14.3h-4.5v-20.1L295,363.7L295,363.7z"/>
		<path d="M317.6,358.8v4.9h3.5v3.3h-3.5v11.2c0,0.8,0.2,1.3,0.5,1.7c0.3,0.3,0.8,0.5,1.6,0.5c0.5,0,1-0.1,1.6-0.2v3.5
			c-1,0.3-2,0.4-3,0.4c-3.5,0-5.2-1.9-5.2-5.7V367h-3.3v-3.3h3.3v-4.9H317.6z"/>
		<path d="M335.1,367.8c-0.6-0.1-1.2-0.1-1.8-0.1c-2.1,0-3.5,0.8-4.2,2.4v13.7h-4.5v-20.1h4.3l0.1,2.2c1.1-1.7,2.6-2.6,4.5-2.6
			c0.6,0,1.2,0.1,1.6,0.3V367.8z"/>
		<path d="M346.4,384.2c-2.9,0-5.2-0.9-6.9-2.7c-1.8-1.8-2.7-4.2-2.7-7.2v-0.6c0-2,0.4-3.8,1.2-5.4c0.8-1.6,1.9-2.8,3.3-3.7
			c1.4-0.9,3-1.3,4.7-1.3c2.7,0,4.8,0.9,6.3,2.6s2.2,4.2,2.2,7.4v1.8h-13.1c0.1,1.7,0.7,3,1.7,3.9c1,1,2.2,1.4,3.7,1.4
			c2.1,0,3.7-0.8,5-2.5l2.4,2.3c-0.8,1.2-1.9,2.1-3.2,2.8C349.6,383.8,348.1,384.2,346.4,384.2z M345.9,367c-1.2,0-2.2,0.4-3,1.3
			s-1.2,2.1-1.5,3.6h8.6v-0.3c-0.1-1.5-0.5-2.7-1.2-3.4C348.1,367.4,347.1,367,345.9,367z"/>
		<path d="M376.2,384.2c-2.9,0-5.2-0.9-6.9-2.7c-1.8-1.8-2.7-4.2-2.7-7.2v-0.6c0-2,0.4-3.8,1.2-5.4c0.8-1.6,1.9-2.8,3.3-3.7
			c1.4-0.9,3-1.3,4.7-1.3c2.7,0,4.8,0.9,6.3,2.6s2.2,4.2,2.2,7.4v1.8h-13.1c0.1,1.7,0.7,3,1.7,3.9c1,1,2.2,1.4,3.7,1.4
			c2.1,0,3.7-0.8,5-2.5l2.4,2.3c-0.8,1.2-1.9,2.1-3.2,2.8C379.4,383.8,377.9,384.2,376.2,384.2z M375.7,367c-1.2,0-2.2,0.4-3,1.3
			s-1.2,2.1-1.5,3.6h8.6v-0.3c-0.1-1.5-0.5-2.7-1.2-3.4C377.9,367.4,377,367,375.7,367z"/>
		<path d="M399.1,378.3c0-0.8-0.3-1.4-1-1.8s-1.8-0.8-3.3-1.1c-1.5-0.3-2.8-0.7-3.8-1.2c-2.3-1.1-3.4-2.7-3.4-4.7
			c0-1.7,0.7-3.2,2.2-4.3c1.5-1.2,3.3-1.7,5.6-1.7c2.4,0,4.3,0.6,5.8,1.8c1.5,1.2,2.2,2.7,2.2,4.6h-4.5c0-0.9-0.3-1.6-1-2.2
			c-0.6-0.6-1.5-0.9-2.6-0.9c-1,0-1.8,0.2-2.4,0.7s-0.9,1.1-0.9,1.8c0,0.7,0.3,1.2,0.9,1.6s1.8,0.8,3.5,1.2c1.8,0.4,3.2,0.9,4.2,1.4
			s1.8,1.2,2.2,1.9c0.5,0.8,0.7,1.7,0.7,2.7c0,1.8-0.7,3.3-2.2,4.4s-3.5,1.7-5.9,1.7c-1.6,0-3.1-0.3-4.4-0.9s-2.3-1.4-3-2.4
			s-1.1-2.2-1.1-3.4h4.4c0.1,1.1,0.5,1.9,1.2,2.5s1.7,0.9,3,0.9c1.2,0,2.1-0.2,2.7-0.7C398.7,379.7,399.1,379.1,399.1,378.3z"/>
		<path d="M413.1,358.8v4.9h3.5v3.3h-3.5v11.2c0,0.8,0.2,1.3,0.5,1.7c0.3,0.3,0.8,0.5,1.6,0.5c0.5,0,1-0.1,1.6-0.2v3.5
			c-1,0.3-2,0.4-3,0.4c-3.5,0-5.2-1.9-5.2-5.7V367h-3.3v-3.3h3.3v-4.9H413.1z"/>
		<path d="M432.2,381.8c-1.3,1.6-3.2,2.3-5.6,2.3c-2.2,0-3.8-0.6-4.9-1.9s-1.7-3.1-1.7-5.5v-13h4.5v13c0,2.5,1.1,3.8,3.2,3.8
			c2.2,0,3.7-0.8,4.4-2.4v-14.4h4.5v20.1h-4.2L432.2,381.8z"/>
		<path d="M440.3,373.6c0-3.1,0.7-5.6,2.2-7.5c1.4-1.9,3.4-2.8,5.8-2.8c2.1,0,3.8,0.7,5.2,2.2v-10.3h4.5v28.5h-4.1l-0.2-2.1
			c-1.3,1.6-3.1,2.4-5.4,2.4c-2.4,0-4.3-0.9-5.7-2.8C441,379.4,440.3,376.9,440.3,373.6z M444.8,374c0,2,0.4,3.6,1.2,4.8
			c0.8,1.1,1.9,1.7,3.3,1.7c1.8,0,3.2-0.8,4-2.5v-8.6c-0.8-1.6-2.2-2.4-4-2.4c-1.5,0-2.6,0.6-3.4,1.7
			C445.2,369.9,444.8,371.7,444.8,374z"/>
		<path d="M462.6,358.5c0-0.7,0.2-1.3,0.7-1.7c0.4-0.5,1.1-0.7,1.9-0.7s1.4,0.2,1.9,0.7c0.4,0.5,0.7,1,0.7,1.7s-0.2,1.2-0.7,1.7
			c-0.4,0.5-1.1,0.7-1.9,0.7s-1.4-0.2-1.9-0.7C462.8,359.8,462.6,359.2,462.6,358.5z M467.4,383.8h-4.5v-20.1h4.5V383.8z"/>
		<path d="M484.3,383.8c-0.2-0.4-0.4-1-0.5-1.9c-1.4,1.5-3.2,2.2-5.3,2.2c-2,0-3.7-0.6-4.9-1.7s-1.9-2.6-1.9-4.3
			c0-2.1,0.8-3.8,2.4-4.9s3.9-1.7,6.8-1.7h2.8v-1.3c0-1-0.3-1.9-0.9-2.5s-1.5-0.9-2.7-0.9c-1,0-1.9,0.3-2.5,0.8c-0.7,0.5-1,1.2-1,2
			h-4.5c0-1.1,0.4-2.1,1.1-3.1s1.7-1.7,3-2.3c1.3-0.5,2.7-0.8,4.2-0.8c2.4,0,4.2,0.6,5.6,1.8c1.4,1.2,2.1,2.8,2.2,5v9.1
			c0,1.8,0.3,3.2,0.8,4.3v0.3h-4.7V383.8z M479.4,380.6c0.9,0,1.7-0.2,2.5-0.6s1.4-1,1.8-1.7v-3.8h-2.4c-1.7,0-2.9,0.3-3.8,0.9
			c-0.8,0.6-1.3,1.4-1.3,2.5c0,0.9,0.3,1.6,0.9,2.1C477.6,380.3,478.4,380.6,479.4,380.6z"/>
		<path d="M497.1,363.7l0.1,2.3c1.5-1.8,3.4-2.7,5.8-2.7c4.2,0,6.3,2.4,6.4,7.2v13.3h-4.5v-13c0-1.3-0.3-2.2-0.8-2.8
			c-0.6-0.6-1.5-0.9-2.7-0.9c-1.8,0-3.2,0.8-4.1,2.5v14.3h-4.5v-20.1L497.1,363.7L497.1,363.7z"/>
		<path d="M519.7,358.8v4.9h3.5v3.3h-3.5v11.2c0,0.8,0.2,1.3,0.5,1.7c0.3,0.3,0.8,0.5,1.6,0.5c0.5,0,1-0.1,1.6-0.2v3.5
			c-1,0.3-2,0.4-3,0.4c-3.5,0-5.2-1.9-5.2-5.7V367h-3.3v-3.3h3.3v-4.9H519.7z"/>
		<path d="M535.5,384.2c-2.9,0-5.2-0.9-6.9-2.7c-1.8-1.8-2.7-4.2-2.7-7.2v-0.6c0-2,0.4-3.8,1.2-5.4s1.9-2.8,3.3-3.7
			c1.4-0.9,3-1.3,4.7-1.3c2.7,0,4.8,0.9,6.3,2.6s2.2,4.2,2.2,7.4v1.8h-13.1c0.1,1.7,0.7,3,1.7,3.9c1,1,2.2,1.4,3.7,1.4
			c2.1,0,3.7-0.8,5-2.5l2.4,2.3c-0.8,1.2-1.9,2.1-3.2,2.8C538.7,383.8,537.2,384.2,535.5,384.2z M534.9,367c-1.2,0-2.2,0.4-3,1.3
			s-1.2,2.1-1.5,3.6h8.6v-0.3c-0.1-1.5-0.5-2.7-1.2-3.4C537.2,367.4,536.2,367,534.9,367z"/>
		<path d="M558.3,378.3c0-0.8-0.3-1.4-1-1.8s-1.8-0.8-3.3-1.1c-1.5-0.3-2.8-0.7-3.8-1.2c-2.3-1.1-3.4-2.7-3.4-4.7
			c0-1.7,0.7-3.2,2.2-4.3c1.5-1.2,3.3-1.7,5.6-1.7c2.4,0,4.3,0.6,5.8,1.8c1.5,1.2,2.2,2.7,2.2,4.6h-4.5c0-0.9-0.3-1.6-1-2.2
			c-0.6-0.6-1.5-0.9-2.6-0.9c-1,0-1.8,0.2-2.4,0.7c-0.6,0.5-0.9,1.1-0.9,1.8c0,0.7,0.3,1.2,0.9,1.6c0.6,0.4,1.8,0.8,3.5,1.2
			c1.8,0.4,3.2,0.9,4.2,1.4s1.8,1.2,2.2,1.9c0.5,0.8,0.7,1.7,0.7,2.7c0,1.8-0.7,3.3-2.2,4.4s-3.5,1.7-5.9,1.7
			c-1.6,0-3.1-0.3-4.4-0.9c-1.3-0.6-2.3-1.4-3-2.4s-1.1-2.2-1.1-3.4h4.4c0.1,1.1,0.5,1.9,1.2,2.5s1.7,0.9,3,0.9
			c1.2,0,2.1-0.2,2.7-0.7C558,379.7,558.3,379.1,558.3,378.3z"/>
	</g>
</g>
</svg>
