<?xml version="1.0" encoding="utf-8"?>
<!-- Generator: Adobe Illustrator 24.3.0, SVG Export Plug-In . SVG Version: 6.00 Build 0)  -->
<svg version="1.1" id="Capa_1" xmlns="http://www.w3.org/2000/svg" xmlns:xlink="http://www.w3.org/1999/xlink" x="0px" y="0px"
	 viewBox="0 0 632.6 412.9" style="enable-background:new 0 0 632.6 412.9;" xml:space="preserve">
<style type="text/css">
	.st0{fill:#FF6EAE;}
	.st1{fill:#82502E;}
	.st2{fill:#311326;}
	.st3{fill:none;stroke:#311326;stroke-width:0.8934;stroke-linecap:round;stroke-linejoin:round;stroke-miterlimit:10;}
	.st4{fill:#20120C;}
	.st5{clip-path:url(#SVGID_5_);fill:#FF76C5;}
	.st6{clip-path:url(#SVGID_7_);fill:#FFFFFF;}
	.st7{opacity:0.11;fill:#FFFFFF;enable-background:new    ;}
	.st8{fill:none;stroke:#FFFFFF;stroke-width:1.2607;stroke-linecap:round;stroke-linejoin:round;stroke-miterlimit:10;}
	.st9{fill:none;stroke:#FFFFFF;stroke-width:1.2607;stroke-linecap:round;stroke-linejoin:round;stroke-miterlimit:9.9997;}
	.st10{fill:#BF5180;}
	.st11{fill:#FFB076;}
	.st12{fill:none;stroke:#9B3666;stroke-width:1.7;stroke-linecap:round;stroke-linejoin:round;stroke-miterlimit:10;}
	.st13{fill:#F9FAFC;}
	.st14{fill:#FFA405;}
	.st15{fill:#FF974D;}
	.st16{fill:none;stroke:#EC7600;stroke-width:1.7484;stroke-linecap:round;stroke-linejoin:round;stroke-miterlimit:10;}
	.st17{fill:none;stroke:#FB7928;stroke-width:1.6;stroke-linecap:round;stroke-linejoin:round;stroke-miterlimit:10;}
	.st18{fill:#8A331F;}
	.st19{fill:#7B2616;}
	.st20{fill:#FF8031;}
	.st21{fill:#101010;}
	.st22{fill:none;stroke:#311326;stroke-width:0.9831;stroke-linecap:round;stroke-linejoin:round;stroke-miterlimit:10;}
	.st23{fill:#FFFFFF;}
	.st24{fill:#FF83BB;}
	.st25{fill:#FF6B21;}
	.st26{fill:#FFAC78;}
	.st27{fill:#FFB988;}
	.st28{fill:none;stroke:#311326;stroke-width:0.8729;stroke-linecap:round;stroke-linejoin:round;stroke-miterlimit:10;}
	.st29{fill:none;stroke:#DBDBDB;stroke-width:1.7484;stroke-linecap:round;stroke-linejoin:round;stroke-miterlimit:10;}
	.st30{fill:none;stroke:#FFA46A;stroke-width:1.6;stroke-linecap:round;stroke-linejoin:round;stroke-miterlimit:10;}
	.st31{fill:#9E4C3E;}
	.st32{fill:#AD5E4C;}
	.st33{fill:none;stroke:#311326;stroke-width:1.012;stroke-linecap:round;stroke-linejoin:round;stroke-miterlimit:10;}
	.st34{clip-path:url(#SVGID_9_);fill:#FF76C5;}
	.st35{fill:none;stroke:#FF3D93;stroke-width:1.7;stroke-linecap:round;stroke-linejoin:round;stroke-miterlimit:10;}
	.st36{fill:#DDDDDD;}
	.st37{enable-background:new    ;}
	.st38{fill:none;stroke:#F7A59A;stroke-width:1.5;stroke-miterlimit:10;stroke-dasharray:5,4;}
	.st39{fill:#A4D2FF;}
	.st40{clip-path:url(#SVGID_10_);}
	.st41{fill:none;stroke:#2CA5FF;stroke-width:2;stroke-miterlimit:10;}
	.st42{fill:#2CA5FF;}
	.st43{fill:#FF5A5A;}
	.st44{fill:#E03F3F;}
	.st45{fill:#242C77;}
	.st46{fill:#BC8E7E;}
	.st47{fill:#916B61;}
	.st48{fill:#060A47;}
	.st49{fill:#0471E9;}
	.st50{fill:#FF8376;}
	.st51{clip-path:url(#SVGID_11_);}
	.st52{fill:#92D6FF;}
	.st53{clip-path:url(#SVGID_12_);}
	.st54{fill:#664032;}
	.st55{clip-path:url(#SVGID_13_);}
	.st56{fill:none;stroke:#128CF9;stroke-width:1.5;stroke-miterlimit:10;}
	.st57{fill:#128CF9;}
	.st58{fill:#E6F4FF;}
	.st59{fill:#CAEAFF;}
	.st60{fill:#FFCCB6;}
	.st61{fill:#F49D8C;}
	.st62{fill:none;stroke:#21329B;stroke-linecap:round;stroke-linejoin:round;stroke-miterlimit:10;}
	.st63{fill:#21329B;}
	.st64{fill:#19297C;}
	.st65{fill:#0E1663;}
	.st66{clip-path:url(#SVGID_14_);}
	.st67{fill:#FFDFD9;}
	.st68{fill:#CCAA9E;}
	.st69{opacity:0.75;clip-path:url(#SVGID_16_);}
	.st70{fill:#4DBBFF;}
	.st71{clip-path:url(#SVGID_16_);fill:#4DBBFF;}
	.st72{fill:none;stroke:#0D54D3;stroke-miterlimit:10;}
	.st73{fill:#AD9087;}
	.st74{fill:#6B4125;}
	.st75{fill:#0D54D3;}
	.st76{fill:#EACECC;}
	.st77{clip-path:url(#SVGID_18_);}
	.st78{fill:#D89177;}
	.st79{fill:#B27460;}
	.st80{fill:none;stroke:#0E1663;stroke-miterlimit:10;}
	.st81{fill:#60310F;}
	.st82{fill:#FFE6E3;}
	.st83{fill:#F7A59A;}
	.st84{fill:#F9C3BD;}
</style>
<g>
	<g>
		<g>
			<path class="st0" d="M-442.5-201.8c0,0,2.1,13-1.3,16.4c-6.5,6.5-26.6,9.6-16,37.5h92.3c0,0,4.6-11.1-5.7-17.6
				c0,0-3.6-2.5-1.4-10.1c2.2-7.5-3.3-12.9-10-21l-13.3-21.4L-442.5-201.8z"/>
			<ellipse class="st0" cx="-411.1" cy="-203.8" rx="31.5" ry="30.1"/>
			
				<ellipse transform="matrix(0.8694 -0.4941 0.4941 0.8694 45.1299 -214.2972)" class="st1" cx="-382.8" cy="-192.5" rx="8.2" ry="8.2"/>
			<polygon class="st1" points="-400.2,-173.5 -401,-137.3 -427.2,-138.8 -421.8,-192 			"/>
			<path class="st2" d="M-400.5-162.4c0,0-11.7-1.2-12.2-14.5l12.4,6.6L-400.5-162.4z"/>
			<path class="st1" d="M-384.9-221.6c2.1,1.7,3.4,4.2,3.9,6.8c1.6,7.8,4.6,21.6,1.9,29.8c-3.6,10.8-12.3,18.4-26.5,15.7
				c0,0-16.9-1.7-20.4-23.2C-431.6-226.6-402.5-236.5-384.9-221.6z"/>
			<g>
				<path class="st2" d="M-384-198.2c0.3,1,1.3,1.6,2.3,1.3s1.6-1.3,1.3-2.3c-0.3-1-1.3-1.6-2.3-1.3
					C-383.6-200.2-384.2-199.2-384-198.2z"/>
				<path class="st2" d="M-399.7-197.9c0.3,1,1.3,1.6,2.3,1.3s1.6-1.3,1.3-2.3c-0.3-1-1.3-1.6-2.3-1.3
					C-399.4-199.9-400-198.9-399.7-197.9z"/>
				<path class="st3" d="M-387.6-193.7l1.3,3.5c0.1,0.4-0.2,0.9-0.6,1l-2,0.4"/>
				<path class="st2" d="M-401.1-212.9c0,0,5.8-1,6.1,1.6c0,0,0.2,1.8-4.9,2.6s-7.1,0.7-7.7-1C-408.3-211.3-403.9-212.6-401.1-212.9
					z"/>
				<path class="st2" d="M-380-212.8c0,0-5-1.1-5.8,1.4c0,0-0.5,1.7,4,2.6c3.2,0.6,4.4,0.1,4.8-1.1
					C-376.7-211.2-378.1-212.5-380-212.8z"/>
				<g>
					<g>
						<path id="XMLID_5_" class="st4" d="M-384.8-185.9l-14.3,0.2c0,0,0.3,6.2,6.9,6.2C-385.6-179.6-384.8-185.9-384.8-185.9z"/>
					</g>
					<g>
						<defs>
							<path id="SVGID_4_" d="M-384.8-185.9l-14.3,0.2c0,0,0.3,6.2,6.9,6.2C-385.6-179.6-384.8-185.9-384.8-185.9z"/>
						</defs>
						<clipPath id="SVGID_5_">
							<use xlink:href="#SVGID_4_"  style="overflow:visible;"/>
						</clipPath>
						<path class="st5" d="M-399.6-175.6c1.2,2.5,4.2,3.6,6.7,2.5c2.5-1.2,3.6-4.2,2.5-6.7c-1.2-2.5-4.2-3.6-6.7-2.5
							C-399.7-181.1-400.8-178.1-399.6-175.6z"/>
					</g>
					<g>
						<defs>
							<path id="SVGID_6_" d="M-384.8-185.9l-14.3,0.2c0,0,0.3,6.2,6.9,6.2C-385.6-179.6-384.8-185.9-384.8-185.9z"/>
						</defs>
						<clipPath id="SVGID_7_">
							<use xlink:href="#SVGID_6_"  style="overflow:visible;"/>
						</clipPath>
						<polygon class="st6" points="-383.8,-184 -400.1,-184 -400.1,-186.8 -383.8,-187.3 						"/>
					</g>
				</g>
				<g>
					<path class="st7" d="M-391.1-198.7c-0.1,5.6-4.6,10.1-10,10c-5.5-0.1-9.9-4.6-9.8-10.2c0.1-5.6,4.6-10.1,10-10
						C-395.5-208.9-391.1-204.3-391.1-198.7z"/>
					
						<ellipse transform="matrix(1.154132e-02 -0.9999 0.9999 1.154132e-02 -174.5633 -573.7233)" class="st7" cx="-377.5" cy="-198.6" rx="9.7" ry="8.5"/>
					<path class="st8" d="M-391.1-198.7c-0.1,5.6-4.6,10.1-10,10c-5.5-0.1-9.9-4.6-9.8-10.2c0.1-5.6,4.6-10.1,10-10
						C-395.5-208.9-391.1-204.3-391.1-198.7z"/>
					
						<ellipse transform="matrix(1.154132e-02 -0.9999 0.9999 1.154132e-02 -174.5633 -573.7233)" class="st9" cx="-377.5" cy="-198.6" rx="9.7" ry="8.5"/>
					<path class="st8" d="M-391.1-198.7c0,0,2.2-2.5,5.2,0"/>
					<line class="st8" x1="-411" y1="-198.9" x2="-419.8" y2="-195.5"/>
				</g>
			</g>
			<path class="st0" d="M-424-197.8c1.3,0.6,26-14.3,13.5-30.5c0,0-18.8,4.4-17.7,30.5H-424z"/>
			<path class="st0" d="M-408.4-222.4c0,0,16.6-4.1,26.3,4.2c0,0-4.7-15-27.5-15.7l-8.6,19.1L-408.4-222.4z"/>
			<ellipse class="st0" cx="-435.2" cy="-233.8" rx="12.7" ry="12.7"/>
			<polygon class="st0" points="-418.8,-206.3 -420.4,-189.3 -426.3,-204.9 			"/>
			<g>
				<path class="st1" d="M-438.2-187.5c1.6,5.2,7.1,8.2,12.3,6.6c5.2-1.6,8.2-7.1,6.6-12.3s-7.1-8.2-12.3-6.6
					C-436.8-198.3-439.8-192.8-438.2-187.5z"/>
				<path class="st3" d="M-433.2-193.3c0,0,7.3-2.1,9.2,5.9"/>
			</g>
		</g>
		<g>
			<g>
				<path class="st10" d="M-377-132.8c0,0,14.1,8.4,14.1,30.2v62.5c0,7.8-5.6,14.4-13.3,15.6l0,0c-9.6,1.6-18.3-5.8-18.3-15.5
					l-0.6-82.3L-377-132.8z"/>
				<g>
					<path class="st1" d="M-326.3-80.6l6.8,8.8l-52,46.3c-6.6,4.9-16.1,2.3-19.3-5.3l0,0c-2.7-6.3,0-13.6,6.2-16.6L-326.3-80.6z"/>
					<g>
						<path class="st11" d="M-326.3-80.6l3.7-6.4c1.9-3.4,4.6-6.2,7.9-8.3l5.7-3.7c1.4-0.9,3.2-0.3,3.8,1.1l0,0
							c0.5,1.3,0.3,2.7-0.7,3.7L-311-89l27.3-7.8c1.2-0.4,2.4,0.4,2.6,1.6l0.1,0.8c0.2,1-0.4,1.9-1.3,2.2l-16,5.1l19.2-3.4
							c1.2-0.3,2.4,0.5,2.5,1.7l0.1,0.6c0.1,1-0.5,2-1.5,2.2l-19.9,4.1l16.5-0.3c1.3-0.1,2.3,1.1,2.1,2.4v0.3
							c-0.2,0.9-0.9,1.5-1.7,1.7l-17.1,2.2h10.5c1.5,0,2.5,1.6,1.8,2.9l0,0c-0.3,0.6-0.9,1.1-1.6,1.1l-38.3,3.5L-326.3-80.6z"/>
					</g>
				</g>
			</g>
			<g>
				<path class="st10" d="M-438.6-141.9c0,0-25.8,5.6-35.7,29.7c-9.9,24.1-3,106.8-3,106.8s49.2,23.1,92.1-2.9l8.3-124.4
					c0,0-9.6-6.9-17.4-11.3L-438.6-141.9z"/>
				<path class="st1" d="M-418.8-149.6c0,0-7.2,1.6-19.8,7.7c0,0,18.8,14.6,33.6,32.2c0,0,11.6-11.9,10.5-34.3l-14.7-5.5
					L-418.8-149.6L-418.8-149.6z"/>
				<line class="st12" x1="-378.9" y1="-103.6" x2="-382.5" y2="-50.1"/>
			</g>
		</g>
	</g>
	<g>
		<g>
			<g>
				<path class="st13" d="M-426.5-289.2h-40.7c-12.3,0-22.2-10-22.2-22.2v-11.4c0-12.3,10-22.2,22.2-22.2h40.7
					c12.3,0,22.2,10,22.2,22.2v11.4C-404.3-299.1-414.2-289.2-426.5-289.2z"/>
			</g>
			<path class="st13" d="M-439.4-294.3l12.1,15.3c1.3,1.7,4,0.3,3.4-1.7l-4.2-15.9L-439.4-294.3z"/>
		</g>
	</g>
</g>
<g>
	<g>
		<g>
			<path class="st13" d="M-546,0.3c0,0,32.8,6.6,59.6-6.5l8.9-112.6l-31.9-32.5L-541-158l-17.4,63.3L-546,0.3z"/>
			<g>
				<path class="st14" d="M-540.9-158c0,0,4.6,112.4,3.4,168l-24.3-2.9c-12.9-1.5-22.5-12.6-22.1-25.6l2.5-86.5l2.8-37.4
					c0.2-3.2,2.3-6.1,5.3-7.3C-566.9-152.2-554.9-156.4-540.9-158z"/>
				<g>
					<path class="st15" d="M-624.1-34.5l-8.7,15.2c0,0-17.1,1.1-32.8,8.5c-0.8,0.4-1.3,1.3-1.2,2.3l0,0c0.2,1.3,1.5,2.1,2.7,1.7
						l11.7-3.5c0,0-11.5,4.7-20.4,9.8c-1.2,0.7-1.7,2.2-1.1,3.4l0,0c0.6,1.3,2.1,1.9,3.4,1.4l19-7.4l-17.7,9.8
						c-1.4,0.8-1.9,2.5-1.2,3.9l0,0c0.7,1.4,2.5,2,3.9,1.3l17.1-8.3l-13.4,9.4c-1.7,1.2-1.9,3.7-0.4,5.2l0,0
						c1.1,1.1,2.9,1.3,4.2,0.4c5.3-3.5,18.5-11.6,27.1-11.3c0,0-2.1,3.3-5.7,6.7c-1.7,1.7-1.6,4.5,0.4,5.9l0,0c1.3,1,3.1,1,4.4,0
						l10.1-7c1.9-1.3,3.3-3.3,3.9-5.5l3.4-12.2l14.6-13.8L-624.1-34.5z"/>
					<g>
						<path class="st14" d="M-572.1-150.2c0,0-4.7-0.3-20,19.4c-15.8,20.3-43.3,110.7-43.3,110.7l27.6,20.9l46.8-101.9L-572.1-150.2
							z"/>
						<line class="st16" x1="-582.4" y1="-54.4" x2="-566.1" y2="-89.9"/>
					</g>
				</g>
			</g>
			<g>
				<g>
					<path class="st14" d="M-485.5-148.6c0,0,24.2,7.5,33.3,96.7L-471.8-38L-485.5-148.6z"/>
					<g>
						<g>
							<g>
								<g>
									<path class="st15" d="M-403.4-83.4c0,0-8.8-6.8-0.6-18.2l12.3-17.8c1.1-1.6,3.4-1.8,4.8-0.5l0,0c1,0.9,1.3,2.3,0.8,3.5
										l-3.8,10.5l23.4-15.8c1.7-1.3,4.2-0.7,5.1,1.2l0,0c0.8,1.5,0.4,3.3-0.9,4.3l-15,11.7l0.3,0.9l17.3-9.8
										c1.9-0.9,4.1,0.2,4.6,2.3l0,0c0.4,1.5-0.4,3.1-1.8,3.8l-16.7,10.7l0.2,1.2l16.3-7c4-1.9,5.3,0,5.7,1.4l0,0
										c0.4,1.4-2.7,3.3-4,3.7l-16.8,8.5l0.2,1.1l15.6-6c1.5-0.2,2.8,1,2.7,2.6l0,0c-0.1,1.1-0.9,2-2,2.2l-17.8,7.6
										c0,0-16.3,11.1-23.6,4.8L-403.4-83.4z"/>
									<path class="st17" d="M-389.9-105.8c0,0,5.1,9.2-1.1,17.3"/>
								</g>
							</g>
							<polygon class="st15" points="-428.4,-81.9 -401.6,-93.2 -390,-77 -420,-60.8 							"/>
						</g>
						<g>
							<g>
								<g>
									<path class="st14" d="M-481.7-65.5l67.7-27.4l13.6,29.4l-59.1,39c-9.3,5.6-21.3,3-27.5-5.8l0,0
										C-494.1-40.5-492.6-59.7-481.7-65.5z"/>
								</g>
							</g>
							<line class="st16" x1="-455.8" y1="-76" x2="-464" y2="-72.7"/>
						</g>
					</g>
				</g>
				<g>
					<path class="st14" d="M-509.3-151.3c0,0,7.8,9.2,11,48.8C-495.1-62.9-494,5-494,5l0,0c13.8-2.8,23.6-15.2,23.2-29.3
						c-0.9-29.4-3-77.2-7.6-97.4l-4.3-22c-0.2-1-1.2-4.2-1.2-4.2s-3.5-3.2-25-8.1L-509.3-151.3z"/>
					<path class="st16" d="M-470.9-21.6c0,0,0.2-56.3-6.5-97.2"/>
				</g>
			</g>
		</g>
		<g>
			<path class="st18" d="M-543.2-196.8c0,0-7.7,12.5,3.6,12.1c0,0,4.7-3.9,3.7-11.2L-543.2-196.8z"/>
			<path class="st18" d="M-475.9-231.6c-0.2-2.4-1-4.9-2.4-7.4c-16.3-30.2-51.8-6.1-51.8-6.1l6.2,21.1
				C-509-232.9-491.4-236.6-475.9-231.6z"/>
			<path class="st19" d="M-523.8-224l6.9,27.4c0,0,43.4-12.5,41-35C-491.4-236.6-506.8-238.7-523.8-224z"/>
			<path class="st20" d="M-503.1-199.8c1.2,4.8,6.1,7.6,10.9,6.4c4.8-1.2,7.6-6.1,6.4-10.9c-1.2-4.8-6.1-7.6-10.9-6.4
				C-501.5-209.4-504.4-204.5-503.1-199.8z"/>
			<path class="st15" d="M-510.8-180.8l1.6,26.4c-0.7,10.7-13.8,15.4-21.1,7.7l-10.6-11.3l3.2-46.1L-510.8-180.8z"/>
			<path class="st2" d="M-510-167.8c0,0-17.3-0.7-18.6-18.2l17.8,5.1L-510-167.8z"/>
			<path class="st15" d="M-492.6-238c0,0,5.7,36.1,1.2,47.4c-4.4,11.4-14.3,18.3-29.5,14.9c0,0-17.8-1.4-21-27.2
				C-546.7-241.7-510.1-259.1-492.6-238z"/>
			<g>
				<path class="st21" d="M-495.6-208.3c0.2,1.1,1.3,1.8,2.4,1.5c1.1-0.2,1.8-1.3,1.5-2.4c-0.2-1.1-1.3-1.8-2.4-1.5
					C-495.1-210.4-495.8-209.4-495.6-208.3z"/>
				<path class="st21" d="M-512.8-208.6c0.2,1.1,1.3,1.8,2.4,1.5c1.1-0.3,1.8-1.3,1.5-2.4c-0.2-1.1-1.3-1.8-2.4-1.5
					C-512.3-210.8-513-209.7-512.8-208.6z"/>
				<polyline class="st22" points="-499.3,-206.8 -497.3,-199.8 -500.6,-198.2 				"/>
				<path class="st4" d="M-514.1-223.1c0,0,6.3-1.5,6.8,1.9c0,0,0.3,2.3-5.3,3.5c-5.5,1.2-7.8,1.1-8.5-1
					C-521.9-220.8-517.1-222.7-514.1-223.1z"/>
				<path class="st4" d="M-490.4-223.6c0,0-5.9-1.5-6.5,1.9c0,0-0.4,2.3,4.8,3.4c3.8,0.8,5.1,0.1,5.4-1.5
					C-486.5-221.5-488.2-223.2-490.4-223.6z"/>
				<path class="st23" d="M-510.4-195.2l11.8,0.9c0,0-0.1,4.6-6.1,4.2C-510.7-190.5-510.4-195.2-510.4-195.2z"/>
			</g>
			<path class="st18" d="M-533-205.1l1.7-13.1c0,0,10.4-3.3,12.9-23c0,0-4.4-9-17.7-4.9c-13.3,4.1-24.9,13.8-10.3,38L-533-205.1z"/>
			<g>
				<path class="st15" d="M-553.9-199.7c1.5,5.8,7.4,9.2,13.2,7.7s9.2-7.4,7.7-13.2s-7.4-9.2-13.2-7.7
					C-551.9-211.4-555.4-205.5-553.9-199.7z"/>
				<path class="st22" d="M-548.2-205.8c0,0,8-2,9.8,6.8"/>
			</g>
			<g>
				<path class="st18" d="M-518.3-241.2c0,0,13.2-2.1,26.3,6.2l-2.8-11.7l-17.3-2.4l-16.5,6.2l4.1,0.4L-518.3-241.2z"/>
				<path class="st18" d="M-492.1-235c0,0,19.9,0,20,14.5c0,0.3,0.4,0.3,0.5,0c0.9-5.4-0.1-20.1-22-18.4L-492.1-235z"/>
			</g>
		</g>
	</g>
	<g>
		<g>
			<path class="st24" d="M-587-235h-44.4c-14.2,0-25.8-11.5-25.8-25.8v-8.2c0-14.2,11.5-25.8,25.8-25.8h44.4
				c14.2,0,25.8,11.5,25.8,25.8v8.3C-561.2-246.5-572.8-235-587-235z"/>
			<path class="st24" d="M-596.2-240.9l12.1,15.3c1.3,1.7,4,0.3,3.4-1.7l-4.2-15.9L-596.2-240.9z"/>
		</g>
	</g>
</g>
<g>
	<g>
		<g>
			<path class="st25" d="M-267.2-217.9c0,0,3.8,23.6,12.3,36.8c1.6,2.5,0.7,5.9-1.7,7.5c-9.6,6.2-36.6,18-71.1,4.5
				c-2.3-0.9-3.7-3.3-3.4-5.8c0.7-6.4,6.2-18.9,14.4-30.1L-267.2-217.9z"/>
			<path class="st26" d="M-315-196c-1.3,4.2-5.7,6.6-9.9,5.3c-4.2-1.3-6.6-5.7-5.3-9.9c1.3-4.2,5.7-6.6,9.9-5.3
				C-316.1-204.7-313.7-200.2-315-196z"/>
			<polygon class="st27" points="-305.7,-179.8 -304.9,-147.5 -279.8,-150.5 -284.5,-197.9 			"/>
			<path class="st2" d="M-305.4-167.8c0,0,11.4-0.6,11.9-13.6l-12.1,6.4L-305.4-167.8z"/>
			<path class="st27" d="M-320.6-226.8c-2,1.7-3.3,4.1-3.8,6.7c-1.5,7.6-4.5,23.5-1.8,31.6c3.5,10.5,12.1,17.2,25.9,14.6
				c0,0,16-0.7,20-24.3C-274.8-231.6-303.4-241.3-320.6-226.8z"/>
			<g>
				<circle class="st2" cx="-323.3" cy="-202.8" r="1.8"/>
				<path class="st2" d="M-306.1-202c-0.3,1-1.3,1.6-2.2,1.3c-1-0.3-1.6-1.3-1.3-2.2c0.3-1,1.3-1.6,2.2-1.3
					C-306.4-204-305.9-203-306.1-202z"/>
				<polyline class="st28" points="-318.4,-198.3 -320.2,-193.9 -317.3,-193.2 				"/>
				<path class="st25" d="M-306.1-213.1c0,0-5.7-1-6,1.6c0,0-0.2,1.8,4.8,2.5c4.9,0.8,6.9,0.6,7.5-1
					C-299.1-211.6-303.4-212.9-306.1-213.1z"/>
				<path class="st25" d="M-325.4-213c0,0,4.9-1.1,5.6,1.4c0,0,0.4,1.7-3.9,2.5c-3.2,0.6-4.3,0.1-4.6-1.1
					C-328.6-211.6-327.2-212.8-325.4-213z"/>
				<path class="st23" d="M-318.6-189.8l10.2,0.2c0,0,0,4.1-5.2,4C-318.8-185.7-318.6-189.8-318.6-189.8z"/>
			</g>
			<path class="st25" d="M-286.5-200.7c0,0-8.4-7.4-6.7-21.8c0,0-14.2,2.5-31.1,1.3c0,0,3.8-22.3,35.8-16.9
				c33.3,5.5,21,44.1,8.6,55.3L-286.5-200.7z"/>
			<g>
				
					<ellipse transform="matrix(0.8755 -0.4832 0.4832 0.8755 60.3921 -159.6246)" class="st27" cx="-279.6" cy="-197" rx="9.7" ry="9.7"/>
				<path class="st28" d="M-275.3-199.9c0,0-7.1-2-9,5.8"/>
			</g>
			<path class="st25" d="M-300.6-238.9c0,0-27.9,0.5-31.4,22.6l44.2,1l2.6-14.8L-300.6-238.9z"/>
		</g>
		<g>
			<g>
				<polygon class="st27" points="-336.4,-93.3 -333.3,-51.5 -350.6,1.1 -331.4,1.1 -301.6,-27.8 -304.8,-90.6 				"/>
				<path class="st23" d="M-328.8-143.5c0,0-21.8,15.7-15.4,66.3h35.7L-328.8-143.5z"/>
			</g>
			<path class="st2" d="M-319.9-52l-12,52.8c44.8,12.7,86.4,0,86.4,0s-2.3-20.3-17.9-53.2L-319.9-52z"/>
			<g>
				<path class="st23" d="M-268.6-153l-43.8,0.7c0,0-9.6,3.2-16.4,8.8l1.4,37l7.5,54.5l56.5-0.4l11.1-84.7L-268.6-153z"/>
				<path class="st27" d="M-292.5-159.4c0,0,11.2,1.1,23.9,6.4c0,0-3.7,14.2-24.7,14.3c-3.5,0-7-0.5-10.3-1.8
					c-4.4-1.8-9.5-5.2-8.8-11.7L-292.5-159.4z"/>
				<line class="st29" x1="-324.2" y1="-78.1" x2="-328.3" y2="-107.9"/>
			</g>
			<g>
				<g>
					<path class="st27" d="M-237.8-50.1c0.1-1.1-2-52.4-2-52.4H-264l-0.4,38.3L-237.8-50.1z"/>
					<g>
						<g>
							<path class="st23" d="M-268.6-153c0,0,30.1,8.3,33.8,27c3.7,18.7,12.5,49.9,12.5,49.9l-46.3,0.1l3.5-62.8L-268.6-153z"/>
						</g>
						<line class="st29" x1="-266.9" y1="-72.7" x2="-270.8" y2="-100.4"/>
					</g>
				</g>
				<g>
					<path class="st27" d="M-302.1-102.5l-5.8,11.2l49.2,49.4c6.3,5.3,15.9,3.3,19.6-4.1l0,0c3.1-6.1,0.8-13.6-5.2-16.9l-6.9-4.7
						l-12.1-8.3L-302.1-102.5z"/>
					<g>
						<path class="st27" d="M-298.4-99.7v-7.4c0-3.9-0.9-7.7-2.7-11.1l-3.1-6.1c-0.7-1.4-2.6-1.9-3.9-0.9l0,0
							c-1.1,0.8-1.6,2.2-1.2,3.5l1.8,7l-17.7-19.2c-0.8-0.9-2.8-0.7-3.6,0.2l0,0c-0.6,0.7-0.8,2.1-0.2,2.8l9.5,11.6l-13-11.5
							c-0.9-0.8-2.6-0.6-3.4,0.4l0,0c-0.6,0.8-0.5,2.4,0.2,3.1l15,13.2l-14.1-8.5c-1.1-0.7-2.6-0.2-3,1l-0.1,0.2
							c-0.3,0.8,0,1.8,0.7,2.3l13.8,10.4l-9.1-5.2c-1.3-0.7-2.9,0.1-3,1.6l0,0c0,0.7,0.3,1.4,0.9,1.8l29.7,21.3L-298.4-99.7z"/>
					</g>
					<line class="st30" x1="-262.3" y1="-75.3" x2="-248.3" y2="-65.7"/>
				</g>
			</g>
		</g>
	</g>
	<g>
		<g>
			<path class="st24" d="M-305.5-264h44.4c14.2,0,25.8-11.5,25.8-25.8v-8.3c0-14.2-11.5-25.8-25.8-25.8h-44.4
				c-14.2,0-25.8,11.5-25.8,25.8v8.3C-331.3-275.6-319.7-264-305.5-264z"/>
			<path class="st24" d="M-290.2-270l-12.1,15.3c-1.3,1.7-4,0.3-3.4-1.7l4.2-15.9L-290.2-270z"/>
		</g>
	</g>
</g>
<g>
	<g>
		<g>
			<path class="st13" d="M-157.6-285.1h41.7c14.2,0,25.8-11.5,25.8-25.8v-8.3c0-14.2-11.5-25.8-25.8-25.8h-41.7
				c-14.2,0-25.8,11.5-25.8,25.8v8.3C-183.4-296.7-171.8-285.1-157.6-285.1z"/>
			<path class="st13" d="M-146.9-291.1l-12.1,15.3c-1.3,1.7-4,0.3-3.4-1.7l4.2-15.9L-146.9-291.1z"/>
		</g>
	</g>
	<g>
		<g>
			
				<ellipse transform="matrix(0.8434 -0.5373 0.5373 0.8434 79.2457 -143.3467)" class="st31" cx="-206.3" cy="-207.6" rx="9.2" ry="9.2"/>
			<polygon class="st32" points="-188,-185.5 -187.2,-149.5 -154.4,-151.8 -161.1,-210.3 			"/>
			<path class="st4" d="M-187.7-170.4c0,0,17.8-1.5,18.7-22.8l-19,8.7L-187.7-170.4z"/>
			<path class="st32" d="M-195-247c-8.2,3.2-13.8,11-14.7,19.8c-1.1,10.1-2,25.8,1.2,33.5c4.9,11.9,15.2,18.9,30.8,14.6
				c0,0,18.3-2.2,20.9-29.8C-153.6-241.5-176.5-254.3-195-247z"/>
			<g>
				<path class="st4" d="M-204.3-213.2c-0.2,1.1-1.3,1.9-2.4,1.7s-1.9-1.3-1.7-2.4c0.2-1.1,1.3-1.9,2.4-1.7
					C-204.8-215.4-204-214.4-204.3-213.2z"/>
				<path class="st4" d="M-186.6-214.1c-0.2,1.1-1.3,1.9-2.4,1.7s-1.9-1.3-1.7-2.4c0.2-1.1,1.3-1.9,2.4-1.7
					C-187.1-216.4-186.4-215.3-186.6-214.1z"/>
				<path class="st33" d="M-200.4-211.8l-1.5,6c-0.2,0.6,0.3,1.3,0.9,1.4l2.2,0.4"/>
				<path class="st4" d="M-184.7-227.7c0,0-6.6-1.4-6.9,2.2c0,0-0.2,2.4,5.5,3.4s8,0.9,8.7-1.3
					C-176.6-225.7-181.6-227.4-184.7-227.7z"/>
				<path class="st4" d="M-209-227.4c0,0,6-1.7,6.8,1.7c0,0,0.5,2.3-4.8,3.7c-3.8,1-5.2,0.3-5.6-1.3
					C-213.1-225.2-211.3-227-209-227.4z"/>
				<g>
					<g>
						<path id="XMLID_7_" class="st4" d="M-201.4-199.7l12.8,0.5c0,0-0.3,5.5-6.5,5.5C-201.5-193.7-201.4-199.7-201.4-199.7z"/>
					</g>
					<g>
						<defs>
							<path id="SVGID_8_" d="M-201.4-199.7l12.8,0.5c0,0-0.3,5.5-6.5,5.5C-201.5-193.7-201.4-199.7-201.4-199.7z"/>
						</defs>
						<clipPath id="SVGID_9_">
							<use xlink:href="#SVGID_8_"  style="overflow:visible;"/>
						</clipPath>
						<path class="st34" d="M-188.3-190.2c-1.1,2.4-3.9,3.4-6.3,2.3c-2.4-1.1-3.4-3.9-2.3-6.3c1.1-2.4,3.9-3.4,6.3-2.3
							C-188.3-195.4-187.2-192.6-188.3-190.2z"/>
					</g>
				</g>
			</g>
			<path class="st4" d="M-165.2-208.9c0,0-7.4-13.9-4.7-29.1c0,0-22.6,3.8-35.7-0.4c0,0,3.1-18.7,33.5-16.2
				c41.6,3.3,29.5,47.7,9.6,55.3L-165.2-208.9z"/>
			<g>
				<path class="st32" d="M-144.8-204.3c-1.4,6-7.3,9.7-13.3,8.4c-6-1.4-9.7-7.3-8.4-13.3c1.4-6,7.3-9.7,13.3-8.4
					S-143.4-210.3-144.8-204.3z"/>
				<path class="st33" d="M-150.9-210.4c0,0-8.3-1.7-9.8,7.4"/>
			</g>
		</g>
		<g>
			<g>
				<polygon class="st32" points="-232.5,-93.3 -232.5,-39.9 -257.5,4 -232.9,1.1 -203.1,-27.8 -206.3,-90.6 				"/>
				<path class="st0" d="M-215.5-145.7c0,0-19.4,11.3-22.5,39.4v39.9l31.7-1.1L-215.5-145.7z"/>
			</g>
			<g>
				<path class="st0" d="M-191.6-154.8c0,0-15.9,3-23.9,9.1l-2.4,143.1c51.1,30.8,109.5,0.9,109.5,0.9L-124.2-145
					c0,0-2.1-8.1-24.3-9.8L-191.6-154.8z"/>
				<path class="st32" d="M-148.5-154.7c0,0-18.3-4-43.1,0c0,0-2.4,14.7,17.6,15.4C-152.4-138.7-148.5-154.7-148.5-154.7z"/>
				<line class="st35" x1="-216.8" y1="-66.5" x2="-216.9" y2="-116.7"/>
			</g>
			<g>
				<g>
					<path class="st32" d="M-173.1-70.4c0,0-3.5-10.2-16.2-12.8l-8.9-8.7c-1.4-1.4-3.5-1.5-5.1-0.3l0,0c-1.7,1.3-2,3.6-0.8,5.3
						l4.4,6.1l-2.4-1c-3.8-1.6-7-4.5-8.9-8.2l-5.6-10.4c-0.6-1.2-1.9-1.9-3.2-1.9l0,0c-2.6,0-4.4,2.6-3.5,5l5.6,14.6
						c2.2,5.6,6.7,10.1,12.4,12.1l28.4,12.6L-173.1-70.4z"/>
					<path class="st32" d="M-173.1-70.4l78.9,30.2c6.8,3,10.1,14.6,7.1,21.3l0,0c-3.4,7.5-12.8,10.2-19.6,5.6L-176.9-58L-173.1-70.4
						z"/>
				</g>
				<g>
					<polygon class="st32" points="-86.1,-26.7 -94.3,-90.4 -132.6,-93.3 -119.2,-36.4 					"/>
					<g>
						<path class="st0" d="M-133.8-152c0,0,47.8,7.9,53.5,85.5h-58.8l-3.9-50.2L-133.8-152z"/>
						<polyline class="st35" points="-126.3,-66.5 -137.4,-66.5 -144.2,-106.5 						"/>
					</g>
				</g>
			</g>
		</g>
	</g>
</g>
<g>
	<text transform="matrix(1 0 0 1 154.6021 610.506)" class="st23" style="font-family:'Roboto-Medium'; font-size:38px;">Avisos importantes</text>
</g>
<path class="st36" d="M630.6,412.5H0.6v-61c0-11.9,9.7-21.6,21.6-21.6H609c11.9,0,21.6,9.7,21.6,21.6V412.5z"/>
<g>
	<g class="st37">
		<path d="M245,382.8h-4.7l-12-19.2v19.2h-4.7v-27h4.7l12.1,19.2v-19.2h4.7V382.8z"/>
		<path d="M249.3,372.6c0-2,0.4-3.7,1.2-5.3c0.8-1.6,1.9-2.8,3.3-3.6c1.4-0.8,3-1.3,4.9-1.3c2.7,0,4.9,0.9,6.6,2.6s2.6,4.1,2.7,6.9
			l0,1.1c0,2-0.4,3.7-1.1,5.3s-1.8,2.8-3.3,3.6c-1.4,0.9-3.1,1.3-4.9,1.3c-2.8,0-5.1-0.9-6.8-2.8c-1.7-1.9-2.6-4.4-2.6-7.5V372.6z
			 M253.8,373c0,2.1,0.4,3.7,1.3,4.9c0.9,1.2,2,1.8,3.6,1.8s2.7-0.6,3.6-1.8c0.8-1.2,1.3-2.9,1.3-5.2c0-2-0.4-3.6-1.3-4.8
			s-2.1-1.8-3.6-1.8c-1.5,0-2.6,0.6-3.5,1.8C254.2,368.9,253.8,370.7,253.8,373z"/>
		<path d="M283,377.4c0-0.8-0.3-1.4-1-1.8c-0.7-0.4-1.8-0.8-3.3-1.1c-1.5-0.3-2.8-0.7-3.8-1.2c-2.3-1.1-3.4-2.7-3.4-4.7
			c0-1.7,0.7-3.2,2.2-4.3c1.5-1.2,3.3-1.7,5.6-1.7c2.4,0,4.3,0.6,5.8,1.8c1.5,1.2,2.2,2.7,2.2,4.6h-4.5c0-0.9-0.3-1.6-1-2.2
			c-0.6-0.6-1.5-0.9-2.6-0.9c-1,0-1.8,0.2-2.4,0.7c-0.6,0.5-0.9,1.1-0.9,1.8c0,0.7,0.3,1.2,0.9,1.6c0.6,0.4,1.8,0.8,3.5,1.2
			c1.8,0.4,3.2,0.9,4.2,1.4c1,0.5,1.8,1.2,2.2,1.9c0.5,0.8,0.7,1.7,0.7,2.7c0,1.8-0.7,3.3-2.2,4.4c-1.5,1.1-3.5,1.7-5.9,1.7
			c-1.6,0-3.1-0.3-4.4-0.9c-1.3-0.6-2.3-1.4-3-2.4c-0.7-1-1.1-2.2-1.1-3.4h4.4c0.1,1.1,0.5,1.9,1.2,2.5c0.7,0.6,1.7,0.9,3,0.9
			c1.2,0,2.1-0.2,2.7-0.7C282.7,378.7,283,378.1,283,377.4z"/>
		<path d="M307.9,377.1l4.2-14.4h4.7l-7,20.1h-3.9l-7-20.1h4.7L307.9,377.1z"/>
		<path d="M328.2,383.2c-2.9,0-5.2-0.9-6.9-2.7c-1.8-1.8-2.7-4.2-2.7-7.2v-0.6c0-2,0.4-3.8,1.2-5.4c0.8-1.6,1.9-2.8,3.3-3.7
			c1.4-0.9,3-1.3,4.7-1.3c2.7,0,4.8,0.9,6.3,2.6c1.5,1.7,2.2,4.2,2.2,7.4v1.8h-13.1c0.1,1.7,0.7,3,1.7,3.9c1,1,2.2,1.4,3.7,1.4
			c2.1,0,3.7-0.8,5-2.5l2.4,2.3c-0.8,1.2-1.9,2.1-3.2,2.8C331.4,382.9,329.9,383.2,328.2,383.2z M327.7,366c-1.2,0-2.2,0.4-3,1.3
			c-0.8,0.9-1.2,2.1-1.5,3.6h8.6v-0.3c-0.1-1.5-0.5-2.7-1.2-3.4C329.9,366.4,328.9,366,327.7,366z"/>
		<path d="M344,362.8l0.1,2.1c1.4-1.6,3.3-2.5,5.8-2.5c2.7,0,4.5,1,5.5,3.1c1.5-2.1,3.5-3.1,6.2-3.1c2.2,0,3.9,0.6,4.9,1.8
			c1.1,1.2,1.6,3,1.7,5.4v13.2h-4.5v-13.1c0-1.3-0.3-2.2-0.8-2.8s-1.5-0.9-2.8-0.9c-1,0-1.9,0.3-2.5,0.8c-0.6,0.6-1.1,1.3-1.4,2.2
			l0,13.8h-4.5v-13.2c-0.1-2.4-1.3-3.5-3.6-3.5c-1.8,0-3.1,0.7-3.8,2.2v14.5h-4.5v-20.1H344z"/>
		<path d="M372,372.6c0-2,0.4-3.7,1.2-5.3c0.8-1.6,1.9-2.8,3.3-3.6c1.4-0.8,3-1.3,4.9-1.3c2.7,0,4.9,0.9,6.6,2.6s2.6,4.1,2.7,6.9
			l0,1.1c0,2-0.4,3.7-1.1,5.3s-1.8,2.8-3.3,3.6c-1.4,0.9-3.1,1.3-4.9,1.3c-2.8,0-5.1-0.9-6.8-2.8c-1.7-1.9-2.6-4.4-2.6-7.5V372.6z
			 M376.5,373c0,2.1,0.4,3.7,1.3,4.9c0.9,1.2,2,1.8,3.6,1.8s2.7-0.6,3.6-1.8c0.8-1.2,1.3-2.9,1.3-5.2c0-2-0.4-3.6-1.3-4.8
			s-2.1-1.8-3.6-1.8c-1.5,0-2.6,0.6-3.5,1.8C376.9,368.9,376.5,370.7,376.5,373z"/>
		<path d="M405.7,377.4c0-0.8-0.3-1.4-1-1.8c-0.7-0.4-1.8-0.8-3.3-1.1c-1.5-0.3-2.8-0.7-3.8-1.2c-2.3-1.1-3.4-2.7-3.4-4.7
			c0-1.7,0.7-3.2,2.2-4.3c1.5-1.2,3.3-1.7,5.6-1.7c2.4,0,4.3,0.6,5.8,1.8c1.5,1.2,2.2,2.7,2.2,4.6h-4.5c0-0.9-0.3-1.6-1-2.2
			c-0.6-0.6-1.5-0.9-2.6-0.9c-1,0-1.8,0.2-2.4,0.7c-0.6,0.5-0.9,1.1-0.9,1.8c0,0.7,0.3,1.2,0.9,1.6c0.6,0.4,1.8,0.8,3.5,1.2
			c1.8,0.4,3.2,0.9,4.2,1.4c1,0.5,1.8,1.2,2.2,1.9c0.5,0.8,0.7,1.7,0.7,2.7c0,1.8-0.7,3.3-2.2,4.4c-1.5,1.1-3.5,1.7-5.9,1.7
			c-1.6,0-3.1-0.3-4.4-0.9s-2.3-1.4-3-2.4s-1.1-2.2-1.1-3.4h4.4c0.1,1.1,0.5,1.9,1.2,2.5c0.7,0.6,1.7,0.9,3,0.9
			c1.2,0,2.1-0.2,2.7-0.7C405.4,378.7,405.7,378.1,405.7,377.4z"/>
	</g>
</g>
<g>
	<text transform="matrix(1 0 0 1 220.8267 495.0807)" style="font-family:'Roboto-Medium'; font-size:38px;">Nos vemos</text>
</g>
<path class="st38" d="M401.5,116.9v-16.6c0-4.2-3.4-7.6-7.6-7.6H292.5c-4.2,0-7.6-3.4-7.6-7.6V33.6c0-4.2-3.4-7.6-7.6-7.6h-78.8
	c-4.2,0-7.6,3.4-7.6,7.6v58.1c0,4.2-3.4,7.6-7.6,7.6h-63.6c-4.2,0-7.6,3.4-7.6,7.6v135.6c0,4.2,3.4,7.6,7.6,7.6h334.6
	c4.2,0,7.6-3.4,7.6-7.6V132c0-4.2-3.4-7.6-7.6-7.6h-45.4C404.9,124.4,401.5,121,401.5,116.9z"/>
<g>
	<path class="st23" d="M489,208.9H378.6c-4.5,0-8.2,3.7-8.2,8.2v73.2c0,4.5,3.7,8.2,8.2,8.2H489c4.5,0,8.2-3.7,8.2-8.2v-73.2
		C497.2,212.6,493.5,208.9,489,208.9z"/>
	<rect x="376.3" y="214.8" class="st39" width="115" height="77.7"/>
	<g>
		<defs>
			<rect id="SVGID_15_" x="376.3" y="214.8" width="115" height="77.7"/>
		</defs>
		<clipPath id="SVGID_10_">
			<use xlink:href="#SVGID_15_"  style="overflow:visible;"/>
		</clipPath>
		<g class="st40">
			<line class="st41" x1="381.9" y1="238.4" x2="388.4" y2="231.9"/>
			<line class="st41" x1="407.1" y1="231.3" x2="415.8" y2="234.3"/>
			<line class="st41" x1="389.4" y1="264" x2="394.8" y2="268"/>
			<line class="st41" x1="474.2" y1="244.7" x2="483.3" y2="246.1"/>
			<line class="st41" x1="397.8" y1="289.9" x2="402.5" y2="285.7"/>
			<polygon class="st42" points="398.3,243.3 399.1,246.1 401.3,244 			"/>
			<polygon class="st42" points="475.2,220.3 473.9,222.9 476.9,222.8 			"/>
			<polygon class="st42" points="385.8,222.2 383.9,224.5 386.8,225.1 			"/>
			<polygon class="st23" points="380.8,276.7 378,277.6 380.1,279.7 			"/>
			<polygon class="st23" points="484.8,268.4 482.8,270.5 485.6,271.3 			"/>
			<polygon class="st23" points="485.8,222.5 486.7,225.3 488.7,223.2 			"/>
			<path class="st23" d="M390.3,249.1c0,0.5-0.4,1-1,1s-1-0.4-1-1s0.4-1,1-1S390.3,248.6,390.3,249.1z"/>
			<path class="st23" d="M414.7,219.2c0,0.5-0.4,1-1,1s-1-0.4-1-1s0.4-1,1-1S414.7,218.6,414.7,219.2z"/>
			<path class="st23" d="M469.2,230.9c0,0.5-0.4,1-1,1s-1-0.4-1-1s0.4-1,1-1S469.2,230.4,469.2,230.9z"/>
			<path class="st23" d="M473.3,289.2c0,0.5-0.4,1-1,1s-1-0.4-1-1s0.4-1,1-1S473.3,288.6,473.3,289.2z"/>
		</g>
		<g class="st40">
			<g>
				<path class="st43" d="M481.3,258c-3.2-4.7-9-6.9-12.7-11.2c-4.8-5.6-5.1-13.7-8.5-20.3c-3.2-6.3-9.4-10.7-16.2-12.3
					c-3.4-0.8-7-0.9-10.4-0.1c-1.8,0.4-3.4,1-5,1.8c-3.7,1.9-8.8,3.2-12,6.1c-3.3,3.1-5.5,7.6-5.9,12.1c-0.3,4.1,0.7,8.4-0.9,12.3
					c-1.5,3.8-5.2,6.1-7.6,9.4c-2.8,3.8-3.5,9.3-0.7,13.1c1.9,2.5,5.1,3.9,7,6.3c2.5,3.2,2.6,7.8,4.6,11.4c2.8,4.9,8.7,7,14,8.7
					c6.2,1.9,12.7,3.8,19.1,2.7c9.4-1.6,16.7-9.4,25.8-12c3.1-0.9,6.6-1.3,8.6-3.8c1.2-1.4,1.7-3.3,2.1-5.1
					C484.1,270.7,485,263.4,481.3,258z"/>
			</g>
			<g>
				<path class="st44" d="M480.6,282.1c1.2-1.4,1.7-3.3,2.1-5.1c0.2-0.7,0.3-1.4,0.4-2c0,0-0.1,0-0.1,0.1c-1.3,1.2-2,2.8-3.1,4.2
					c-2.2,2.7-5.6,4.3-9,4.1c-3.4-0.2-6.7-2.1-8.6-5.1c-1.1-1.8-2.7-3.2-4.7-4c-2.8-1.1-6.3,1.1-8.3-2.2c-1.2-2-0.3-4.7,0.6-6.7
					c1.7-4.1,2.1-5.6,1.7-8.6c-0.5-4.2-4.2-9.9-7.3-12.7c-3-2.9-6.4-5.6-8.2-9.5c-0.4-0.8-0.7-1.6-1.3-2.3c-0.9-0.9-2.3-1.1-3.6-1.2
					c-6.3-0.5-11,2.2-12.3,8.7c-0.5,2.6-0.6,5.3-1.3,7.9c-0.7,2.8-2,5.5-2.5,8.4c-0.5,3.8,0.8,7.7,3.1,10.7
					c5.8,7.3,4.5,16.9-5.9,18.5c0.2,0.4,0.4,0.9,0.6,1.3c2.8,4.9,8.7,7,14,8.7c6.2,1.9,12.7,3.8,19.1,2.7c9.4-1.6,16.7-9.4,25.8-12
					C475,285,478.5,284.6,480.6,282.1z"/>
			</g>
			<path class="st45" d="M428.6,279.2c0,0-17.2,3.5-22.1,29.2c0.8-0.3,55.4,1.4,55.4,0c0-1.4,7.7-2.8,7.7-2.8s-4.1-20.6-20.9-26"/>
			<path class="st46" d="M432.7,262.3v15.3l-4.1,1.7c0,0-1,6.1,4.1,7.3c7.7,1.9,16.1-6.9,16.1-6.9l-4.3-2.4l-4.1-20.4"/>
			<path class="st47" d="M442,265l-1.6-8.1l-7.7,5.4v8.2C436,269.5,439.5,267.8,442,265z"/>
			<path class="st46" d="M423.7,229.7c-2,6.5-3.8,13.1-5,19.7c-0.7,3.9-1.6,8.2,0,12c1.6,4,5.7,6.5,10,6.2
				c4.3-0.3,13.6-1.2,18.5-7.6c4.9-6.4,4.9-23,3.3-25.8C448.9,231.7,430.3,219.1,423.7,229.7z"/>
			<g>
				<path class="st43" d="M427.6,219.5c-6.6,1.5-7.5,5.5-8,10c-0.1,0.8,0,2.2,1,3.8c0.6,0.9,1.9,1.1,2.9,0.6c1-0.5,1.6-1.4,2.2-2.3
					c0,1.2,1.5,2,2.7,1.9c1.2-0.2,2.2-1,3.2-1.8c-1.6,3.1,2,7,5,4.7c0.7-0.5,1.9-1.8,2.4-2.4c-1.7,1.8,3.5,8.3,4,10
					c0.8,2.5,0.1,5.2,0.4,7.8c0.1,0.8,0.6,1.9,1.4,1.7c0.5-0.1,0.7-0.6,1.1-0.9c0.8-0.7,2-0.4,3-0.2c5.9,1.5,0,9.9,4.9,12.8
					c1.2,0.7,2.6,0.8,3.9,0.6c0.8-0.1,1.6-0.3,2.2-0.9c0.7-0.6,0.9-1.5,1.1-2.4c0.8-3.1,1.6-6.3,1.9-9.5c0.4-5.5-1.3-11.6-3.1-16.8
					c-1.3-3.8-2.8-7.5-5.2-10.7C448.7,217.6,436.6,214.8,427.6,219.5"/>
			</g>
			<g>
				<path class="st46" d="M446.3,252.5c1.2-1.1,3.4-0.9,4.4,0.4c0.4,0.5,0.6,1.1,0.7,1.7c0.5,2.6-0.9,5.9-3.3,6.9
					c-2.4,1-4.6,0.1-5-1.9"/>
			</g>
			<path class="st48" d="M422.6,242.8c0,0.5,0.4,1,1,1c0.5,0,1-0.4,1-1c0-0.5-0.4-1-1-1C423.1,241.9,422.6,242.3,422.6,242.8z"/>
			<path class="st48" d="M439.6,245.2c0,0.5-0.4,1-1,1c-0.5,0-1-0.4-1-1c0-0.5,0.4-1,1-1C439.2,244.3,439.6,244.7,439.6,245.2z"/>
			<g>
				<path class="st23" d="M423.1,256.6c1.1,1.5,4.4,2.2,6.3,1.4c0.3-0.1,0.6,0.1,0.6,0.4c0.2,3.3-2.4,4.8-5.2,4.1
					c-2.7-0.7-3.4-4.2-2.4-5.8C422.5,256.3,422.9,256.3,423.1,256.6z"/>
			</g>
			<g>
				<g>
					<path d="M427.8,246.1c-0.3,0.1-0.6,0.5-0.8,0.8c-0.5,0.6-1,1.3-1.4,2c-0.5,0.7-0.9,1.4-1.3,2.1c-0.4,0.8-0.5,1.6,0.1,2.3
						c0.4,0.4,0.9,0.7,1.5,0.8c0.6,0.2,1.4,0.4,2,0.1c0.1-0.1,0.1-0.2,0-0.3c-0.5-0.3-1.1-0.3-1.6-0.4c-0.5-0.1-1-0.3-1.3-0.6
						c-0.6-0.6-0.3-1.4,0.1-2c0.7-1.3,1.6-2.5,2.4-3.7c0.2-0.3,0.5-0.6,0.5-1C427.9,246.1,427.9,246.1,427.8,246.1L427.8,246.1z"/>
				</g>
			</g>
			<g>
				<g>
					<path class="st48" d="M436.5,241.6c1.1-0.3,2.3-0.3,3.2,0.3c0.9,0.5,1.4,1.3,1.9,2.2c0.1,0.1,0.2,0.1,0.2-0.1
						c-0.1-1.1-1-2-1.9-2.5c-1.1-0.6-2.4-0.7-3.5-0.2C436.2,241.4,436.3,241.7,436.5,241.6L436.5,241.6z"/>
				</g>
			</g>
			<g>
				<g>
					<path class="st48" d="M422.3,238.2c0.9-0.5,1.9-0.7,2.8-0.2c0.4,0.2,0.8,0.5,1,0.9c0.3,0.4,0.4,0.8,0.6,1.3
						c0,0.1,0.2,0.1,0.2,0c0.2-1.1-0.7-2.2-1.6-2.6c-1-0.5-2.3-0.4-3.2,0.5C422,238.1,422.2,238.3,422.3,238.2L422.3,238.2z"/>
				</g>
			</g>
		</g>
	</g>
</g>
<g>
	<path class="st49" d="M389.7,163.9h48.5c4.3,0,7.8-3.5,7.8-7.8V79.4c0-4.3-3.5-7.8-7.8-7.8h-48.5c-4.3,0-7.8,3.5-7.8,7.8V156
		C381.9,160.4,385.4,163.9,389.7,163.9z"/>
	<rect x="386.8" y="76.5" class="st50" width="54.5" height="82.4"/>
	<g>
		<defs>
			<rect id="SVGID_17_" x="386.8" y="76.5" width="54.5" height="82.4"/>
		</defs>
		<clipPath id="SVGID_11_">
			<use xlink:href="#SVGID_17_"  style="overflow:visible;"/>
		</clipPath>
		<g class="st51">
			<g>
				<g>
					<g>
						<path class="st43" d="M386.8,70.8c-0.8,2.4,0.4,4.8,1.9,6.7c1.6,2,3.5,3.7,5.7,5.1c4.6,3,9.9,4.5,15.2,5.2
							c5.8,0.8,11.9,0.1,17.3,2.7c4.9,2.3,8.7,6.3,12.6,10c2,1.9,4,3.7,6.2,5.2c2.1,1.5,4.6,3.1,7.3,3.1c2.2,0,4.5-1.2,5.1-3.5
							c0.6-2.5-0.8-4.8-2.6-6.4c-0.9-0.9-2-1.6-3-2.3c-1.3-0.9-2.5-1.8-3.8-2.8c-2.3-1.7-4.8-3.3-6.9-5.3c-2-2-3.2-4.6-4.6-7.1
							c-1.3-2.3-2.8-4.4-4.5-6.4c-7.6-8.6-19.4-10.9-30.4-10c-1.4,0.1-2.9,0.4-4.3,0.6c-0.4,0.1-0.3,0.7,0.1,0.7
							c10.6-1.2,22.6-0.7,31.2,6.5c1.9,1.6,3.6,3.6,5.1,5.6c1.5,2.1,2.7,4.4,4,6.7c1.3,2.3,3,4.2,5.1,5.8c2.2,1.7,4.5,3.3,6.8,5
							c2.1,1.5,4.6,2.9,6.1,5.1c1.4,2,1.6,5-0.8,6.4c-2.4,1.3-5.2,0.2-7.4-1.1c-2.3-1.4-4.4-3.1-6.3-4.8c-3.8-3.4-7.2-7.2-11.5-9.9
							c-2.1-1.3-4.3-2.4-6.7-3c-2.7-0.7-5.5-0.8-8.3-0.9c-5.6-0.3-11.2-1.1-16.3-3.3c-2.3-1-4.4-2.2-6.3-3.8
							c-1.9-1.5-3.8-3.4-4.8-5.6c-0.6-1.2-0.9-2.6-0.5-3.9C387.2,70.6,386.8,70.5,386.8,70.8L386.8,70.8z"/>
					</g>
				</g>
				<g>
					<g>
						<path class="st43" d="M391.3,70.6c5.4,9.2,17.3,10,26.5,12.6c9.6,2.7,17.9,8.5,24.1,16.3c3.2,4.1,7.4,9.5,13.3,8.7
							c0.4-0.1,0.3-0.7-0.1-0.6c-5.4,0.2-9.1-4-12.1-7.9c-3-3.8-6.3-7.2-10.2-10c-3.8-2.7-8-4.9-12.5-6.4c-5.2-1.8-10.7-2.4-16-4.1
							c-5-1.5-10-4.2-12.9-8.7C391.4,70.4,391.3,70.5,391.3,70.6L391.3,70.6z"/>
					</g>
				</g>
				<g>
					<g>
						<path class="st43" d="M406.5,68.7c2.8,3.3,6.4,5.6,10.3,7.3c4.2,1.8,8.8,2.8,12.5,5.7c3.3,2.6,5.9,6,8.5,9.3
							c2.9,3.4,6,6.5,9.4,9.4c1.9,1.6,3.9,3,5.9,4.4c2,1.3,4.2,2.8,6.5,3.7c0.3,0.1,0.5-0.4,0.2-0.5c-1.8-1.2-3.9-2.2-5.7-3.4
							c-1.9-1.2-3.7-2.5-5.5-3.9c-3.5-2.7-6.7-5.8-9.6-9.2c-2.7-3.2-5.2-6.6-8.4-9.3c-1.6-1.4-3.4-2.6-5.3-3.4
							c-2.1-0.9-4.3-1.6-6.4-2.4c-4.6-1.7-9.1-4-12.4-7.7C406.5,68.5,406.4,68.6,406.5,68.7L406.5,68.7z"/>
					</g>
				</g>
				<g>
					<g>
						<path class="st43" d="M379.7,79.1c2.9,4.8,8.4,7.2,11.3,11.9c0.8,1.3,1.4,2.7,1.5,4.2c0.2,1.6,0,3.1-0.4,4.7
							c-0.7,3.1-1.6,6-2,9.1c-0.4,3.1-0.5,6.3-0.1,9.5c0.3,3.1,1.1,6.1,1.9,9.2c0.8,3,1.4,6,1,9.1c-0.4,2.9-1.5,5.7-3,8.3
							c-1.7,2.8-3.9,5.2-6.3,7.4c-2.5,2.2-5.4,4-8.1,6c-0.3,0.2,0,0.7,0.3,0.5c9.9-5.6,19.9-15.6,17.7-27.9
							c-0.6-3.2-1.7-6.3-2.3-9.6c-0.6-3.3-0.7-6.6-0.5-10c0.2-3.3,0.9-6.4,1.7-9.6c0.7-2.9,1.3-6.1,0.2-9c-2.3-6.1-9.2-8.6-12.6-14
							C379.9,78.7,379.6,78.9,379.7,79.1L379.7,79.1z"/>
					</g>
				</g>
				<g>
					<g>
						<path class="st43" d="M382,147.9c2.9-2.2,4.5-5.6,5.5-9c0.6-2,1.1-4.1,1.4-6.3c0.4-2.3,0.4-4.6,0.2-6.9
							c-0.2-2.4-0.4-4.8-0.4-7.3c0-2.4,0-4.8,0-7.1c0-2.4,0.1-4.8,0.6-7.1c0.4-2.2,1.2-4.3,1.4-6.5c0.2-2,0-4.2-0.5-6.2
							c-0.5-2-1.6-3.8-2.8-5.5c-0.3-0.4-1,0-0.7,0.4c1.1,1.5,2.1,3,2.6,4.8c0.5,1.7,0.7,3.5,0.6,5.2c0,2.3-0.7,4.4-1.2,6.6
							c-0.5,2.1-0.7,4.3-0.8,6.5c-0.2,4.6-0.1,9.2,0.3,13.8c0.2,2.3,0.5,4.6,0.3,6.9c-0.1,2.3-0.6,4.5-1.1,6.7
							c-1,4-2.4,8.1-5.6,10.9C381.7,147.8,381.9,148,382,147.9L382,147.9z"/>
					</g>
				</g>
			</g>
			<g>
				<g>
					<g>
						<path class="st52" d="M403.1,178.1c2.4-10.5,9.5-19.6,18.2-25.9c8.7-6.4,19-10.3,29.4-13.1c4.8-1.3,9.7-2.4,14.6-2.3
							c5,0.1,10,1.5,13.8,4.8"/>
					</g>
					<g>
						<defs>
							<path id="SVGID_19_" d="M403.1,178.1c2.4-10.5,9.5-19.6,18.2-25.9c8.7-6.4,19-10.3,29.4-13.1c4.8-1.3,9.7-2.4,14.6-2.3
								c5,0.1,10,1.5,13.8,4.8"/>
						</defs>
						<clipPath id="SVGID_12_">
							<use xlink:href="#SVGID_19_"  style="overflow:visible;"/>
						</clipPath>
						<g class="st53">
							<g>
								<g>
									<path class="st42" d="M394.2,169c0.7-0.4,1.4-0.7,2-1.1c1.8-1,3.7-1.9,5.5-2.9c2.7-1.4,5.5-2.8,8.2-4.3
										c3.3-1.8,6.6-3.5,10-5.3c3.6-1.9,7.2-3.8,10.8-5.7c3.7-1.9,7.3-3.9,11-5.8c3.4-1.8,6.8-3.6,10.3-5.4
										c2.9-1.5,5.7-3.1,8.6-4.6c2.1-1.1,4.1-2.2,6.2-3.4c1-0.5,1.9-1.1,2.9-1.6c0.1-0.1,0,0,0.1-0.1c0.3-0.2,0-0.7-0.3-0.5
										c-0.1,0.1,0,0-0.1,0.1c-0.1,0.1-0.3,0.1-0.4,0.2c-0.5,0.3-1,0.5-1.5,0.8c-1.8,0.9-3.7,1.9-5.5,2.9
										c-2.7,1.4-5.4,2.9-8.1,4.3c-3.3,1.8-6.6,3.5-9.9,5.3c-3.6,1.9-7.2,3.9-10.8,5.8c-3.7,2-7.3,3.9-11,5.9
										c-3.4,1.8-6.8,3.7-10.2,5.5c-2.9,1.5-5.7,3.1-8.6,4.6c-2.1,1.1-4.1,2.2-6.2,3.4c-1,0.5-2,1-2.9,1.6c0,0-0.1,0-0.1,0.1
										C393.9,168.8,394,169.1,394.2,169L394.2,169z"/>
								</g>
							</g>
							<g>
								<g>
									<path class="st42" d="M396.2,170.9c0.7-0.4,1.4-0.7,2-1.1c1.8-1,3.7-1.9,5.5-2.9c2.7-1.4,5.5-2.8,8.2-4.3
										c3.3-1.8,6.6-3.5,10-5.3c3.6-1.9,7.2-3.8,10.8-5.7c3.7-1.9,7.3-3.9,11-5.8c3.4-1.8,6.8-3.6,10.3-5.4
										c2.9-1.5,5.7-3.1,8.6-4.6c2.1-1.1,4.1-2.2,6.2-3.4c1-0.5,1.9-1.1,2.9-1.6c0.1-0.1,0,0,0.1-0.1c0.3-0.2,0-0.7-0.3-0.5
										c-0.1,0.1,0,0-0.1,0.1c-0.1,0.1-0.3,0.1-0.4,0.2c-0.5,0.3-1,0.5-1.5,0.8c-1.8,0.9-3.7,1.9-5.5,2.9
										c-2.7,1.4-5.4,2.9-8.1,4.3c-3.3,1.8-6.6,3.5-9.9,5.3c-3.6,1.9-7.2,3.9-10.8,5.8c-3.7,2-7.3,3.9-11,5.9
										c-3.4,1.8-6.8,3.7-10.2,5.5c-2.9,1.5-5.7,3.1-8.6,4.6c-2.1,1.1-4.1,2.2-6.2,3.4c-1,0.5-2,1-2.9,1.6c0,0-0.1,0-0.1,0.1
										C395.8,170.8,396,171.1,396.2,170.9L396.2,170.9z"/>
								</g>
							</g>
							<g>
								<g>
									<path class="st42" d="M398.1,172.9c0.7-0.4,1.4-0.7,2-1.1c1.8-1,3.7-1.9,5.5-2.9c2.7-1.4,5.5-2.8,8.2-4.3
										c3.3-1.8,6.6-3.5,10-5.3c3.6-1.9,7.2-3.8,10.8-5.7c3.7-1.9,7.3-3.9,11-5.8c3.4-1.8,6.8-3.6,10.3-5.4
										c2.9-1.5,5.7-3.1,8.6-4.6c2.1-1.1,4.1-2.2,6.2-3.4c1-0.5,1.9-1.1,2.9-1.6c0.1-0.1,0,0,0.1-0.1c0.3-0.2,0-0.7-0.3-0.5
										c-0.1,0.1,0,0-0.1,0.1c-0.1,0.1-0.3,0.1-0.4,0.2c-0.5,0.3-1,0.5-1.5,0.8c-1.8,0.9-3.7,1.9-5.5,2.9
										c-2.7,1.4-5.4,2.9-8.1,4.3c-3.3,1.8-6.6,3.5-9.9,5.3c-3.6,1.9-7.2,3.9-10.8,5.8c-3.7,2-7.3,3.9-11,5.9
										c-3.4,1.8-6.8,3.7-10.2,5.5c-2.9,1.5-5.7,3.1-8.6,4.6c-2.1,1.1-4.1,2.2-6.2,3.4c-1,0.5-2,1-2.9,1.6c0,0-0.1,0-0.1,0.1
										C397.7,172.7,397.9,173,398.1,172.9L398.1,172.9z"/>
								</g>
							</g>
							<g>
								<g>
									<path class="st42" d="M400,174.8c0.7-0.4,1.4-0.7,2-1.1c1.8-1,3.7-1.9,5.5-2.9c2.7-1.4,5.5-2.8,8.2-4.3
										c3.3-1.8,6.6-3.5,10-5.3c3.6-1.9,7.2-3.8,10.8-5.7c3.7-1.9,7.3-3.9,11-5.8c3.4-1.8,6.8-3.6,10.3-5.4
										c2.9-1.5,5.7-3.1,8.6-4.6c2.1-1.1,4.1-2.2,6.2-3.4c1-0.5,1.9-1.1,2.9-1.6c0.1-0.1,0,0,0.1-0.1c0.3-0.2,0-0.7-0.3-0.5
										c-0.1,0.1,0,0-0.1,0.1c-0.1,0.1-0.3,0.1-0.4,0.2c-0.5,0.3-1,0.5-1.5,0.8c-1.8,0.9-3.7,1.9-5.5,2.9
										c-2.7,1.4-5.4,2.9-8.1,4.3c-3.3,1.8-6.6,3.5-9.9,5.3c-3.6,1.9-7.2,3.9-10.8,5.8c-3.7,2-7.3,3.9-11,5.9
										c-3.4,1.8-6.8,3.7-10.2,5.5c-2.9,1.5-5.7,3.1-8.6,4.6c-2.1,1.1-4.1,2.2-6.2,3.4c-1,0.5-2,1-2.9,1.6c0,0-0.1,0-0.1,0.1
										C399.6,174.6,399.8,174.9,400,174.8L400,174.8z"/>
								</g>
							</g>
							<g>
								<g>
									<path class="st42" d="M401.9,176.8c0.7-0.4,1.4-0.7,2-1.1c1.8-1,3.7-1.9,5.5-2.9c2.7-1.4,5.5-2.8,8.2-4.3
										c3.3-1.8,6.6-3.5,10-5.3c3.6-1.9,7.2-3.8,10.8-5.7c3.7-1.9,7.3-3.9,11-5.8c3.4-1.8,6.8-3.6,10.3-5.4
										c2.9-1.5,5.7-3.1,8.6-4.6c2.1-1.1,4.1-2.2,6.2-3.4c1-0.5,1.9-1.1,2.9-1.6c0.1-0.1,0,0,0.1-0.1c0.3-0.2,0-0.7-0.3-0.5
										c-0.1,0.1,0,0-0.1,0.1c-0.1,0.1-0.3,0.1-0.4,0.2c-0.5,0.3-1,0.5-1.5,0.8c-1.8,0.9-3.7,1.9-5.5,2.9
										c-2.7,1.4-5.4,2.9-8.1,4.3c-3.3,1.8-6.6,3.5-9.9,5.3c-3.6,1.9-7.2,3.9-10.8,5.8c-3.7,2-7.3,3.9-11,5.9
										c-3.4,1.8-6.8,3.7-10.2,5.5c-2.9,1.5-5.7,3.1-8.6,4.6c-2.1,1.1-4.1,2.2-6.2,3.4c-1,0.5-2,1-2.9,1.6c0,0-0.1,0-0.1,0.1
										C401.6,176.6,401.7,176.9,401.9,176.8L401.9,176.8z"/>
								</g>
							</g>
							<g>
								<g>
									<path class="st42" d="M403.9,178.7c0.7-0.4,1.4-0.7,2-1.1c1.8-1,3.7-1.9,5.5-2.9c2.7-1.4,5.5-2.8,8.2-4.3
										c3.3-1.8,6.6-3.5,10-5.3c3.6-1.9,7.2-3.8,10.8-5.7c3.7-1.9,7.3-3.9,11-5.8c3.4-1.8,6.8-3.6,10.3-5.4
										c2.9-1.5,5.7-3.1,8.6-4.6c2.1-1.1,4.1-2.2,6.2-3.4c1-0.5,1.9-1.1,2.9-1.6c0.1-0.1,0,0,0.1-0.1c0.3-0.2,0-0.7-0.3-0.5
										c-0.1,0.1,0,0-0.1,0.1c-0.1,0.1-0.3,0.1-0.4,0.2c-0.5,0.3-1,0.5-1.5,0.8c-1.8,0.9-3.7,1.9-5.5,2.9
										c-2.7,1.4-5.4,2.9-8.1,4.3c-3.3,1.8-6.6,3.5-9.9,5.3c-3.6,1.9-7.2,3.9-10.8,5.8c-3.7,2-7.3,3.9-11,5.9
										c-3.4,1.8-6.8,3.7-10.2,5.5c-2.9,1.5-5.7,3.1-8.6,4.6c-2.1,1.1-4.1,2.2-6.2,3.4c-1,0.5-2,1-2.9,1.6c0,0-0.1,0-0.1,0.1
										C403.5,178.5,403.7,178.8,403.9,178.7L403.9,178.7z"/>
								</g>
							</g>
							<g>
								<g>
									<path class="st42" d="M405.8,180.6c0.7-0.4,1.4-0.7,2-1.1c1.8-1,3.7-1.9,5.5-2.9c2.7-1.4,5.5-2.8,8.2-4.3
										c3.3-1.8,6.6-3.5,10-5.3c3.6-1.9,7.2-3.8,10.8-5.7c3.7-1.9,7.3-3.9,11-5.8c3.4-1.8,6.8-3.6,10.3-5.4
										c2.9-1.5,5.7-3.1,8.6-4.6c2.1-1.1,4.1-2.2,6.2-3.4c1-0.5,1.9-1.1,2.9-1.6c0.1-0.1,0,0,0.1-0.1c0.3-0.2,0-0.7-0.3-0.5
										c-0.1,0.1,0,0-0.1,0.1c-0.1,0.1-0.3,0.1-0.4,0.2c-0.5,0.3-1,0.5-1.5,0.8c-1.8,0.9-3.7,1.9-5.5,2.9
										c-2.7,1.4-5.4,2.9-8.1,4.3c-3.3,1.8-6.6,3.5-9.9,5.3c-3.6,1.9-7.2,3.9-10.8,5.8c-3.7,2-7.3,3.9-11,5.9
										c-3.4,1.8-6.8,3.7-10.2,5.5c-2.9,1.5-5.7,3.1-8.6,4.6c-2.1,1.1-4.1,2.2-6.2,3.4c-1,0.5-2,1-2.9,1.6c0,0-0.1,0-0.1,0.1
										C405.4,180.4,405.6,180.7,405.8,180.6L405.8,180.6z"/>
								</g>
							</g>
							<g>
								<g>
									<path class="st42" d="M407.7,182.6c0.7-0.4,1.4-0.7,2-1.1c1.8-1,3.7-1.9,5.5-2.9c2.7-1.4,5.5-2.8,8.2-4.3
										c3.3-1.8,6.6-3.5,10-5.3c3.6-1.9,7.2-3.8,10.8-5.7c3.7-1.9,7.3-3.9,11-5.8c3.4-1.8,6.8-3.6,10.3-5.4
										c2.9-1.5,5.7-3.1,8.6-4.6c2.1-1.1,4.1-2.2,6.2-3.4c1-0.5,1.9-1.1,2.9-1.6c0.1-0.1,0,0,0.1-0.1c0.3-0.2,0-0.7-0.3-0.5
										c-0.1,0.1,0,0-0.1,0.1c-0.1,0.1-0.3,0.1-0.4,0.2c-0.5,0.3-1,0.5-1.5,0.8c-1.8,0.9-3.7,1.9-5.5,2.9
										c-2.7,1.4-5.4,2.9-8.1,4.3c-3.3,1.8-6.6,3.5-9.9,5.3c-3.6,1.9-7.2,3.9-10.8,5.8c-3.7,2-7.3,3.9-11,5.9
										c-3.4,1.8-6.8,3.7-10.2,5.5c-2.9,1.5-5.7,3.1-8.6,4.6c-2.1,1.1-4.1,2.2-6.2,3.4c-1,0.5-2,1-2.9,1.6c0,0-0.1,0-0.1,0.1
										C407.4,182.4,407.5,182.7,407.7,182.6L407.7,182.6z"/>
								</g>
							</g>
						</g>
					</g>
				</g>
				<g>
					<path d="M419.2,94.8c-0.1-0.5,0.6-0.7,1.1-0.6c6.3,1.1,10.2,2.5,13.1,8.2c1.1,2.1,0,5.3,4,9.6c1.6,1.7,0.9,4.7,0,6.9
						c-0.9,2.2-3.4,3.8-5.6,2.9"/>
				</g>
				<path class="st54" d="M420.4,142l3.2,11.2c0,0,5.1,2.5,9.9,0c4.8-2.5,2.7-6.7,2.7-6.7l-6.4-12.1"/>
				<g>
					<path class="st54" d="M420.4,96.2c-3.9-2-8.7,0.5-12.2,1.8c-3.5,1.2-7.5,2.7-9.7,5.7c-3.1,4.1-2.9,9.8-1.2,14.5
						c0.8,2.2,0.8,4.3,1.8,6.5c3.2,6.5,6,14.8,12.3,19.1c4.6,3.2,11,3.6,16,1.1c5-2.5,8.4-8,8.6-13.6c0.1-3.7-1.1-7.3-2.3-10.8
						c-2.7-8-4.2-19.9-11-22.5"/>
				</g>
				<g>
					<path d="M401.8,130c-4.1-12.9-2.4-17.1-1.1-19.1c1.5-2.2,3.1-4,5.5-4.8c6.4-2.1,18.5-2.4,22.4-9.6c1.5-2.9,1.1-7.9-0.9-11.1
						c-0.2-0.4-1.5-3.9-3.8-3.2c-1.1,0.3-1.8,2.5-2.2,3.2c0-0.8-0.7-2.1-1.6-2.2c-1-0.1-1.4,1.1-2,1.7c-0.9,0.8-1.8,1.4-2.8,1.9
						c-7.6,4.1-18.5,3-21.6,12.5c-0.3,1-0.6,2.1-1.2,3.1c-1.1,1.7-5.3,4.7-2.6,11.7c2,5.2-0.7,8.9,1.5,13.4c3,6.3,7.7,7,12.6,6.3"/>
				</g>
				<g>
					<path d="M421.9,99.3c-3.6,1.3-7.4,2.5-11.1,3.4c-3.4,0.8-7.1,1.5-9.7,3.9c-3.8,3.3-4.5,8.9-4.8,14c-0.1,1.4-0.2,2.8-0.3,4.2
						c-0.1,0.8-0.2,1.7-0.8,2.1c-1,0.7-2.4-0.4-2.9-1.4c-0.5-0.9-0.9-2-1.7-2.6c0,1.5,0.1,3,0.9,4.6c3,6.3,7.7,7,12.6,6.3l-2.1-3.6
						c-4.1-12.9-2.4-17.1-1.1-19.1c1.5-2.2,3.1-4,5.5-4.8c6.4-2.1,18.5-2.4,22.4-9.6c0.3-0.6,0.5-1.2,0.7-1.9
						C427.6,97,424.7,98.3,421.9,99.3z"/>
				</g>
				<g>
					<g>
						<path class="st54" d="M402.4,129.1c-1.4-0.9-3.4-0.4-4.1,1.2c-0.3,0.6-0.4,1.2-0.4,1.9c0,2.7,1.9,5.9,4.3,6.5
							c2.5,0.7,4.4-0.6,4.4-2.8"/>
					</g>
				</g>
				<g>
					<g>
						<path class="st54" d="M431.2,117.3c0.4-1.6,2.2-2.6,3.8-1.9c0.6,0.2,1.1,0.6,1.5,1.1c1.8,2,2.6,5.6,1.2,7.8
							c-1.3,2.2-3.6,2.5-5.1,0.9"/>
					</g>
				</g>
				<g>
					<g>
						<path d="M415.9,123.1c0.2,1.6,0.5,3.2,1,4.7c0.2,0.8,0.5,1.5,0.8,2.2c0.3,0.6,0.5,1.1,1,1.6c0.7,0.8,1.8,1.3,2.9,0.8
							c1.2-0.5,1.9-2,2.1-3.3c0-0.2-0.3-0.2-0.3-0.1c-0.6,1-0.8,2.5-2.1,2.9c-1,0.3-2-0.5-2.5-1.3c-0.7-1.1-1.1-2.4-1.6-3.6
							c-0.5-1.3-0.8-2.7-1-4C416.1,122.9,415.9,123,415.9,123.1L415.9,123.1z"/>
					</g>
				</g>
				<path class="st48" d="M425.9,116.1c0.3,0.4,0.3,1-0.1,1.3c-0.4,0.3-1,0.3-1.3-0.1c-0.3-0.4-0.3-1,0.1-1.3
					C425.1,115.7,425.6,115.8,425.9,116.1z"/>
				<path class="st48" d="M409.6,122.5c0.3,0.4,0.3,1-0.1,1.3c-0.4,0.3-1,0.3-1.3-0.1c-0.3-0.4-0.3-1,0.1-1.3
					C408.7,122.1,409.3,122.1,409.6,122.5z"/>
				<g>
					<path class="st23" d="M419.3,136.4c2.2,0.5,5.7-1.4,6.8-3.5c0.2-0.3,0.6-0.4,0.8-0.1c2.7,2.9,1.5,6.2-1.7,7.7
						c-3,1.4-6.3-1.2-6.6-3.5C418.6,136.6,418.9,136.3,419.3,136.4z"/>
				</g>
				<g>
					<path class="st48" d="M425.2,111.3c-0.1-1.2-2.4,0.1-2.8,0.5c-0.2,0.3-0.5,1-0.1,1.2c0.6,0.3,1.2-0.8,1.6-1.1
						C424.3,111.8,425.2,111.8,425.2,111.3C425.2,111.3,425.2,111.3,425.2,111.3z"/>
				</g>
				<g>
					<path class="st48" d="M403.9,118.2c-0.7-1,1.9-1.6,2.4-1.5c0.4,0.1,1.1,0.4,0.9,0.9c-0.2,0.6-1.4,0.2-1.9,0.3
						C405,118,404.3,118.6,403.9,118.2C403.9,118.2,403.9,118.2,403.9,118.2z"/>
				</g>
			</g>
		</g>
	</g>
</g>
<g>
	<path class="st23" d="M350.4,41.3H233.7c-4.3,0-7.8,3.5-7.8,7.8v76.6c0,4.3,3.5,7.8,7.8,7.8h116.7c4.3,0,7.8-3.5,7.8-7.8V49.2
		C358.2,44.8,354.7,41.3,350.4,41.3z"/>
	<rect x="235.9" y="46.3" class="st42" width="112.3" height="82.4"/>
	<g>
		<defs>
			<rect id="SVGID_21_" x="235.9" y="46.3" width="112.3" height="82.4"/>
		</defs>
		<clipPath id="SVGID_13_">
			<use xlink:href="#SVGID_21_"  style="overflow:visible;"/>
		</clipPath>
		<g class="st55">
			<polygon class="st56" points="334.3,62.8 332.9,69.2 339.7,67.8 			"/>
			<polygon class="st56" points="322.1,121.1 326,126.4 329.3,120.3 			"/>
			<polygon class="st56" points="253.1,66.9 246.6,67.9 250.4,73.7 			"/>
			<polygon class="st56" points="253.5,114 248.1,117.8 254,121.4 			"/>
			<polygon class="st56" points="291.4,45.2 285.9,41.6 284.8,48.4 			"/>
			
				<rect x="259.6" y="61.8" transform="matrix(0.739 -0.6738 0.6738 0.739 25.6583 192.1202)" class="st23" width="2.2" height="2.2"/>
			
				<rect x="340.2" y="56.9" transform="matrix(0.739 -0.6738 0.6738 0.739 50.0275 245.111)" class="st23" width="2.2" height="2.2"/>
			
				<rect x="326.7" y="61.8" transform="matrix(-0.2636 -0.9646 0.9646 -0.2636 353.5176 395.781)" class="st57" width="2.2" height="2.2"/>
			
				<rect x="242" y="53.9" transform="matrix(-0.4875 -0.8731 0.8731 -0.4875 313.6029 294.1346)" class="st57" width="2.2" height="2.2"/>
			
				<rect x="344.8" y="100.3" transform="matrix(-0.2635 -0.9647 0.9647 -0.2635 339.2174 461.7838)" class="st57" width="2.2" height="2.2"/>
			
				<rect x="234.8" y="103.7" transform="matrix(-0.2635 -0.9647 0.9647 -0.2635 196.9796 359.9376)" class="st57" width="2.2" height="2.2"/>
			
				<rect x="328.2" y="112.4" transform="matrix(0.998 -6.323098e-02 6.323098e-02 0.998 -6.5172 21.0492)" class="st23" width="2.2" height="2.2"/>
			
				<rect x="239.5" y="115.4" transform="matrix(0.998 -6.323106e-02 6.323106e-02 0.998 -6.8863 15.4452)" class="st23" width="2.2" height="2.2"/>
		</g>
		<g class="st55">
			<g>
				<g>
					<path class="st58" d="M294.4,107c3.7,5.2,10.6,7.2,17,7c1.5-0.1,3.1-0.2,4.4-1c1.7-1,2.1-2.2,2.9-3.8c0.9-1.5,2.5-2.7,4.1-3.3
						c2.3-0.9,4.8-1,7.3-1.2c2.5-0.2,5-0.5,7.1-1.9c4-2.5,5.3-7.9,4.4-12.5c-0.4-1.8-1.1-3.7-2.6-4.8c-2.5-1.8-6.3-0.8-8.7-2.8
						c-2.6-2.1-2-6.1-3.6-9.1c-1.7-3.2-5.5-4.6-9.1-5.2c-1.4-0.2-2.9-0.4-4.1-1c-2.2-1-3.7-3.2-5.2-5.1c-2.6-3.2-5.7-6.1-9.6-7.6
						c-3.8-1.5-8.4-1.5-11.9,0.7l-2.5,0.4c-4.6-1.3-9.8-0.2-13.8,2.5c-4,2.7-6.9,6.8-8.6,11.3c-0.9,2.3-1.6,4.8-3.5,6.3
						c-3.2,2.7-8.3,1.4-12.1,3.3c-1.4,0.7-2.6,1.8-3.6,3c-1,1.2-2,2.5-2.4,4c-1,3.8,1.8,7.7,5.2,9.6c1.1,0.6,2.3,1.2,3.1,2.1
						c0.7,0.7,1,1.7,1.5,2.5c3.1,5.7,8,10.3,14.2,12c4.5,1.2,10.7,0.2,15.3-0.2c4.6-0.4,9.2-2.1,12.5-5.4"/>
				</g>
				<g>
					<path class="st59" d="M341.6,90.3c-0.3-1.6-0.9-3.3-2.1-4.5c-0.2,0.4-0.2,0.8-0.1,1.3c0.3,3.7,0.4,8.2-2.7,10.1
						c-3.4,2-8.2-0.5-11.4,1.8c-1.2,0.8-1.8,2.2-2.7,3.3c-2.6,3.2-7.2,4.7-11.1,3.5c-0.4-0.1-0.8-0.3-1-0.6c-0.3-0.4-0.2-1-0.1-1.6
						c0.9-3.4,3.5-6.8,2.1-9.9c-0.6-1.4-2-2.3-2.9-3.5c-2.8-3.5-2.1-9.3-5.8-11.9c-1.6-1.1-3.7-1.3-5.7-1.4c-4.3-0.3-8.7-0.6-13-0.9
						l-11.2,0c-1.8-1.1-4,1-4.2,3.1c-0.2,2.1,0.6,4.2,0.3,6.2c-0.4,3.8-4.4,6.8-4.1,10.7c0.2,2.6,2.3,4.9,2.1,7.5
						c-0.2,2.8-3.3,4.8-6,4.4c-2.8-0.4-5-2.6-6-5.2c-0.4-1-0.6-2.1-1.3-3c-1.7-2.3-5.3-2.1-7.5-4c-0.7-0.6-1.3-1.4-2.2-1.6
						c-0.5-0.1-0.9,0-1.3,0.1c0.7,0.6,1.4,1.2,2.2,1.6c1.1,0.6,2.3,1.2,3.1,2.1c0.7,0.7,1,1.7,1.5,2.5c3.1,5.7,8,10.3,14.2,12
						c4.5,1.2,10.7,0.2,15.3-0.2c4.6-0.4,9.2-2.1,12.5-5.4l2.2,0.1c3.7,5.2,10.6,7.2,17,7c1.5-0.1,3.1-0.2,4.4-1
						c1.7-1,2.1-2.2,2.9-3.8c0.9-1.5,2.5-2.7,4.1-3.3c2.3-0.9,4.8-1,7.3-1.2c2.5-0.2,5-0.5,7.1-1.9
						C341.2,100.3,342.5,94.9,341.6,90.3z"/>
				</g>
				<g>
					<g>
						<path class="st59" d="M310.4,88.3c1.3,1.5,2.6,3,3.2,4.9c0.6,2,0.3,4-0.5,5.8c-0.7,1.7-1.7,3.3-2.1,5.2
							c-0.3,1.6,0.6,3.1,2.1,3.7c0.3,0.1,0.5-0.2,0.3-0.4c-0.6-0.7-1.4-1.2-1.7-2.1c-0.3-1,0.2-2.1,0.5-3c0.7-1.7,1.6-3.3,2-5
							c0.4-1.7,0.2-3.5-0.5-5c-0.7-1.6-1.9-3-3.1-4.3C310.4,88,310.3,88.1,310.4,88.3L310.4,88.3z"/>
					</g>
				</g>
				<g>
					<g>
						<path class="st59" d="M318.3,87c1.4,2.8,4.3,4.7,4.9,8c0.3,1.9-0.2,3.6-0.8,5.3c-0.5,1.4-1.3,3.2-0.5,4.6
							c0.1,0.1,0.3,0.1,0.3,0c0.1-0.9,0.1-1.8,0.4-2.7c0.2-0.9,0.6-1.7,0.8-2.6c0.5-1.6,0.7-3.2,0.3-4.8c-0.8-3.2-3.6-5.1-5.2-7.8
							C318.3,86.9,318.3,87,318.3,87L318.3,87z"/>
					</g>
				</g>
				<g>
					<g>
						<path class="st59" d="M322.3,90.7c1.3,1.5,2.5,3.3,2.9,5.3c0.4,2.1-0.4,4-1.7,5.6c-0.1,0.1,0,0.4,0.2,0.3
							c1.7-1.2,2.3-3.6,2-5.6c-0.3-2.2-1.7-4.1-3.2-5.7C322.4,90.4,322.2,90.5,322.3,90.7L322.3,90.7z"/>
					</g>
				</g>
				<g>
					<g>
						<path class="st59" d="M327.6,83.1c2.2,2.5,5.4,3.5,8.2,5.2c1.6,1,2.9,2.2,3.3,4.1c0.4,1.8,0.3,3.8-0.6,5.5
							c-0.1,0.3,0.2,0.6,0.4,0.3c1.2-1.4,1.1-3.4,0.9-5.1c-0.2-1.9-1.1-3.3-2.6-4.5c-3-2.2-7-2.9-9.7-5.7
							C327.7,82.9,327.6,83,327.6,83.1L327.6,83.1z"/>
					</g>
				</g>
				<g>
					<g>
						<path class="st59" d="M329.6,87.9c1.9,1.5,3.3,3.5,3.9,5.8c0.3,1.2,0.6,2.7,0,3.9c-0.5,1.1-1.6,1.7-2.4,2.6
							c-0.1,0.1,0,0.3,0.2,0.2c1-0.7,2.1-1.4,2.7-2.6c0.6-1.2,0.4-2.6,0.1-3.9c-0.7-2.5-2.2-4.7-4.3-6.2
							C329.7,87.7,329.5,87.8,329.6,87.9L329.6,87.9z"/>
					</g>
				</g>
				<g>
					<g>
						<path class="st59" d="M263.6,80.3c-0.5,2.3-2.1,4.2-3.9,5.5c-1.9,1.4-4.2,2.2-6.4,3c-1.8,0.7-3.7,1.7-4.7,3.5
							c-0.9,1.7-0.8,3.8,0.2,5.5c0.2,0.3,0.7,0,0.5-0.3c-1.2-1.9-1-4.4,0.5-6c1.6-1.7,3.9-2.3,6-3.2c3.7-1.5,7.2-4,8-8.1
							C263.8,80.3,263.6,80.2,263.6,80.3L263.6,80.3z"/>
					</g>
				</g>
				<g>
					<g>
						<path class="st59" d="M261.3,86c-1.4,1.3-2.8,2.6-4.7,3.4c-1.3,0.5-2.6,1-3.8,1.7c-1.1,0.7-2.1,1.6-2.6,2.9
							c-0.6,1.6-0.6,3.5,0.3,4.9c0.1,0.2,0.5,0.1,0.4-0.2c-0.6-1.7-0.8-3.5,0.1-5.1c0.7-1.2,1.8-2,3-2.6c1.2-0.6,2.5-1,3.7-1.6
							c1.5-0.8,2.7-2,3.8-3.2C261.7,86.1,261.5,85.9,261.3,86L261.3,86z"/>
					</g>
				</g>
				<g>
					<g>
						<path class="st59" d="M267.5,87.1c-1.6,3-5.1,5.3-5.2,9c0,3.1,2.5,5.5,3,8.5c0.2,1,0,2-0.4,2.8c-0.2,0.5-0.5,0.9-0.9,1.3
							c-0.3,0.3-0.7,0.6-1,1c-0.1,0.2,0,0.4,0.2,0.3c1.4-0.3,2.4-2.2,2.6-3.5c0.3-1.5-0.1-2.9-0.7-4.3c-0.7-1.5-1.6-2.9-2-4.5
							c-0.6-1.9-0.1-3.7,0.9-5.3c1.1-1.8,2.6-3.4,3.6-5.3C267.7,87.1,267.6,87.1,267.5,87.1L267.5,87.1z"/>
					</g>
				</g>
				<g>
					<g>
						<path class="st59" d="M260.2,95.3c-1,2.3,0.3,4.6,1.4,6.6c0.6,1.2,1.2,2.4,1.1,3.8c0,1.4-0.7,2.4-1.4,3.5
							c-0.1,0.1,0.1,0.3,0.2,0.2c2-1.3,2-4.2,1.2-6.2c-1-2.5-3.4-5-2.4-7.8C260.4,95.3,260.2,95.2,260.2,95.3L260.2,95.3z"/>
					</g>
				</g>
			</g>
			<g>
				<path class="st43" d="M325.4,120.3c-6-9-16.5-13.7-26.8-14.6c-11.5-1-24.3,0.1-34.6,5.7c-9.3,5.1-17,13.3-21.5,23
					c29.6,0.2,59.3,0.3,88.9,0.5C330.2,129.7,328.2,124.6,325.4,120.3z"/>
			</g>
			<g>
				<g>
					<path class="st60" d="M286.7,104.4c-0.4,1.4-0.7,2.9-0.8,4.4c1.5,1.6,6.5,2,8.3-0.5c0.1-0.4-1-6.7-1-6.7"/>
				</g>
				<g>
					<path class="st61" d="M294.1,107.2c-0.3-1.9-0.9-5.6-0.9-5.6l-6.4,2.7c-0.2,0.9-0.4,1.8-0.6,2.7
						C288.8,107.6,291.5,107.7,294.1,107.2z"/>
				</g>
				<g>
					<path class="st60" d="M275.7,67.4c-3.1,6.8-3.6,14.5-3.8,22c-0.1,3.4-0.1,7,1.8,9.9c1.6,2.4,4.3,3.9,6.9,5
						c6.5,2.6,14.4,3.3,19.9-1c5-3.9,6.6-11,5.5-17.2c-0.6-3.7-2-7.2-3.7-10.6c-1.2-2.4-2.5-6.4-4.7-8.1c-5.5-4.1-14.2-4.2-20.3-1.8
						"/>
				</g>
				<g>
					<path class="st61" d="M306.3,88.9c-1.6,1.7-1.6,7.3-5.4,9.3c-1,0.5-1.9,1.1-2.7,1.8c-1.5,1.2-2.5,2.9-3.1,4.6
						c-0.1,0.4-0.3,0.9-0.2,1.4c2.1-0.5,4-1.3,5.7-2.6C304.7,99.9,306.5,94.3,306.3,88.9z"/>
				</g>
				<g>
					<path class="st61" d="M280.9,100.2c-2-1.3-4.8-1.6-6.1-3.7c-0.5-0.8-0.7-1.7-1-2.6c-0.3-0.9-0.8-1.8-1.7-2.1
						c-0.1,0-0.2-0.1-0.3-0.1c0,2.7,0.3,5.4,1.8,7.6c1.6,2.4,4.3,3.9,6.9,5c1.1,0.5,2.3,0.9,3.5,1.2
						C283.9,103.3,282.7,101.3,280.9,100.2z"/>
				</g>
			</g>
			<path class="st60" d="M264.7,130.7l11.8-24.3c0,0-6.7-2.8-7.9-5.9c-1.4-3.6,0.5-8.7,1.8-10.8c1.2-2.1,2.9,4.3,3,7
				c0.1,2.7,7.2,4.6,8.1,7.6c0.9,3.1,1.4,28.3,1.4,28.3"/>
			<path class="st60" d="M313,130.7l-11.8-24.3c0,0,6.7-2.8,7.9-5.9c1.4-3.6-0.5-8.7-1.8-10.8c-1.2-2.1-2.9,4.3-3,7
				c-0.1,2.7-7.2,4.6-8.1,7.6c-0.9,3.1-1.4,28.3-1.4,28.3"/>
			<path class="st62" d="M285.9,108.7c1.2,1.1,2.8,1.6,4.4,1.5c1.6-0.1,3.1-0.8,4.2-2"/>
			<path class="st48" d="M298.4,82.7c0.3,0.4,0.3,1-0.1,1.3c-0.4,0.3-1,0.3-1.3-0.1c-0.3-0.4-0.3-1,0.1-1.3
				C297.5,82.3,298.1,82.4,298.4,82.7z"/>
			<path class="st48" d="M280.1,82.7c-0.3,0.4-0.3,1,0.1,1.3c0.4,0.3,1,0.3,1.3-0.1c0.3-0.4,0.3-1-0.1-1.3
				C281,82.3,280.4,82.4,280.1,82.7z"/>
			<g>
				<g>
					<path class="st61" d="M287.9,84.4c-0.4,1.4-0.8,2.9-1.1,4.3c-0.2,0.9-0.4,1.9-0.5,2.8c-0.1,0.9-0.1,2.2,0.9,2.6
						c0.6,0.3,1.6,0.2,2.2,0.1c0.7-0.1,1.6-0.4,1.9-1.1c0.1-0.2-0.1-0.5-0.3-0.3c-0.6,0.3-1,0.6-1.6,0.7c-0.6,0.1-1.7,0.3-2.1-0.2
						c-0.5-0.6-0.3-1.7-0.2-2.4c0.2-1.8,0.6-3.5,0.9-5.3c0.1-0.5,0.1-0.9,0.2-1.4C288,84.3,287.9,84.3,287.9,84.4L287.9,84.4z"/>
				</g>
			</g>
			<g>
				<g>
					<path class="st48" d="M295.7,79.3c1-0.5,2.2-0.7,3.3-0.4c0.5,0.1,1.1,0.3,1.5,0.6c0.5,0.3,0.9,0.7,1.3,1c0.1,0.1,0.3,0,0.2-0.2
						c-0.6-1-1.9-1.6-3-1.8c-1.2-0.2-2.4,0-3.4,0.6C295.5,79.2,295.6,79.4,295.7,79.3L295.7,79.3z"/>
				</g>
			</g>
			<g>
				<g>
					<path class="st48" d="M282.5,79.1c-1-0.6-2.2-0.8-3.4-0.6c-1.1,0.2-2.4,0.8-3,1.8c-0.1,0.2,0.1,0.3,0.2,0.2
						c0.4-0.4,0.8-0.7,1.3-1c0.5-0.3,1-0.5,1.6-0.6c1.1-0.2,2.3-0.1,3.3,0.4C282.6,79.4,282.7,79.2,282.5,79.1L282.5,79.1z"/>
				</g>
			</g>
			<g>
				<path class="st23" d="M291.4,96.1c-1.4,0.8-3.7,0.7-5.3-0.2c-0.2-0.1-0.5,0-0.6,0.2c-0.8,2.1,0,6.2,2.8,6.4
					c2.5,0.2,4.4-2.3,3.5-6.2C291.9,96.1,291.6,96,291.4,96.1z"/>
			</g>
			<g>
				<g>
					<path class="st58" d="M288.9,62c2.2-0.9,4.7-1,7-0.6c2.8,0.4,5.6,1.4,8,3.1c2.3,1.7,4.2,4.1,4.9,6.9c0.5,1.9,0.3,4.3-1.3,5.4
						c-1,0.7-2.3,0.8-3.6,0.8c-2.7-0.2-5.5-1.2-6.8-3.5c-0.3-0.5-0.5-1.1-1-1.3c-0.6-0.4-1.4-0.1-2.1-0.2c-1.8-0.3-2.4-2.5-3.5-3.9
						c-1-1.3-3.1-2.8-4.8-2.4c-1.6,0.3-2.6,2.2-3.1,3.7c-0.5,1.4-0.8,3.2-2.2,3.5c-0.6,0.2-1.3,0-1.9,0.3c-0.6,0.4-0.7,1.2-1.1,1.8
						c-0.7,1.1-2.3,1.3-3.6,1.2c-1.5,0-3.2-0.1-4.1-1.3c-0.6-0.7-0.8-1.6-0.8-2.5c-0.1-2.7,1.3-5.2,3.1-7.2c1.8-2,4.1-3.4,6.4-4.8"
						/>
				</g>
				<g>
					<g>
						<path class="st59" d="M307.1,76.1c-1.5,0.8-3.3,0.7-4.9,0c-1.5-0.7-2.8-1.8-4-3.1c-0.8-0.9-1.8-2-3-2c-0.5,0-1,0.1-1.4-0.1
							c-0.5-0.2-0.8-0.8-1-1.2c-0.9-1.5-2.4-2.5-4.1-2.8c0.7,0.5,1.4,1.1,1.8,1.7c1.1,1.5,1.7,3.6,3.5,3.9c0.7,0.1,1.5-0.1,2.1,0.2
							c0.5,0.3,0.7,0.9,1,1.3c1.3,2.3,4.2,3.4,6.8,3.5c1.2,0.1,2.6,0,3.6-0.8c0.9-0.7,1.4-1.8,1.5-3C308.7,74.8,308,75.6,307.1,76.1
							z"/>
					</g>
					<g>
						<path class="st59" d="M273.9,76.6c1.3,0,2.9-0.1,3.6-1.2c0.4-0.6,0.5-1.4,1.1-1.8c0.5-0.3,1.3-0.2,1.9-0.3
							c1.4-0.4,1.7-2.2,2.2-3.5c0,0,0-0.1,0-0.1c-0.7,0.9-0.9,1.6-1.6,2.3c-0.3,0.2-1,0.3-1.4,0.4c-0.5,0.1-1,0-1.5,0
							c-1.3,0.1-1.9,1.6-2.9,2.4c-1.7,1.4-4.5,0.5-5.7-1.4c-0.2-0.2-0.4-0.5-0.6-0.7c0,0,0,0.1,0,0.1c0,0.9,0.2,1.8,0.8,2.5
							C270.7,76.5,272.4,76.6,273.9,76.6z"/>
					</g>
				</g>
				<g>
					<g>
						<path class="st59" d="M307.5,68.8c0.9,1.4,1.2,2.9,1.1,4.5c-0.1,0.6-0.2,1.2-0.5,1.7c-0.3,0.5-0.8,0.9-1.3,1.3
							c-0.2,0.1,0,0.4,0.2,0.3c1.4-0.4,1.9-1.9,2.1-3.1c0.2-1.8-0.2-3.6-1.5-4.8C307.6,68.7,307.5,68.8,307.5,68.8L307.5,68.8z"/>
					</g>
				</g>
				<g>
					<g>
						<path class="st59" d="M292.5,67.4c0.7,1.1,1.7,1.9,2.8,2.3c0.7,0.3,1.5,0.4,2.2,0.7c0.7,0.4,1.3,0.9,1.8,1.6
							c0.8,1.2,1.4,2.5,2.3,3.6c0.7,0.8,2.1,2.1,3.3,1.6c0.1-0.1,0.2-0.3,0.1-0.4c-0.6-0.3-1.2-0.3-1.8-0.7c-0.6-0.4-1.1-1-1.6-1.6
							c-0.7-1.1-1.3-2.3-2.2-3.3c-0.8-1-1.9-1.4-3.1-1.7c-1.5-0.4-2.8-0.9-3.7-2.2C292.5,67.3,292.4,67.3,292.5,67.4L292.5,67.4z"/>
					</g>
				</g>
				<g>
					<g>
						<path class="st59" d="M298.6,69.3c1,0.4,1.8,1,2.5,1.8c0.8,0.9,1.1,2,1.6,3.1c0.4,0.9,0.9,1.7,1.7,2.3
							c0.6,0.4,1.8,0.9,2.5,0.3c0.1-0.1,0-0.2-0.1-0.2c-0.4-0.1-0.9,0-1.3-0.1c-0.5-0.1-0.9-0.4-1.3-0.8c-0.7-0.7-1.1-1.7-1.6-2.6
							c-0.4-0.9-1-1.7-1.8-2.4C300.2,70.1,299.4,69.6,298.6,69.3C298.6,69.3,298.5,69.3,298.6,69.3L298.6,69.3z"/>
					</g>
				</g>
				<g>
					<g>
						<path class="st59" d="M284.4,65.1c-0.8,0.1-1.4,0.7-1.9,1.4c-0.6,0.9-1,1.8-1.5,2.8c-0.4,0.9-0.7,2.3-1.6,2.8
							c-0.6,0.4-1.3,0.5-1.9,1c-0.5,0.4-0.9,0.8-1.1,1.4c-0.1,0.2,0.2,0.3,0.3,0.2c0.5-0.5,0.9-1.1,1.5-1.4c0.6-0.3,1.2-0.5,1.7-0.9
							c0.7-0.6,1-1.6,1.3-2.4c0.4-0.9,0.7-1.9,1.2-2.7C282.9,66.4,283.5,65.4,284.4,65.1C284.4,65.1,284.4,65.1,284.4,65.1
							L284.4,65.1z"/>
					</g>
				</g>
				<g>
					<g>
						<path class="st59" d="M281.4,65.4c-0.9,0.5-1.6,1.1-2.2,1.9c-0.6,0.8-1,1.8-1.3,2.7c-0.3,1-0.7,1.9-1.2,2.8
							c-0.5,1-1.3,1.7-2,2.4c-0.1,0.1,0,0.3,0.1,0.2c1.8-0.7,2.7-2.9,3.2-4.5c0.3-1,0.6-2,1.1-2.9C279.7,67.2,280.5,66.2,281.4,65.4
							C281.5,65.5,281.5,65.4,281.4,65.4L281.4,65.4z"/>
					</g>
				</g>
			</g>
			<g>
				<path class="st63" d="M297.8,122.1C297.8,122.1,297.7,122.1,297.8,122.1c-0.4,0-0.6-0.3-0.5-0.6c0-0.3,0.3-0.5,0.6-0.5
					c0,0,0.1,0,0.1,0c0.3,0,0.5,0.3,0.4,0.6C298.3,121.9,298.1,122.1,297.8,122.1z M300.6,121.9c-0.3,0-0.5-0.2-0.5-0.4
					c-0.1-0.3,0.1-0.6,0.4-0.6c0,0,0.1,0,0.1,0c0.3,0,0.6,0.2,0.6,0.5C301.2,121.6,301,121.9,300.6,121.9
					C300.7,121.9,300.6,121.9,300.6,121.9z M302,121.6c-0.3,0-0.5-0.2-0.5-0.4c-0.1-0.3,0.1-0.6,0.4-0.6c0,0,0.1,0,0.1,0
					c0.3,0,0.6,0.2,0.6,0.5C302.6,121.3,302.4,121.5,302,121.6C302.1,121.6,302.1,121.6,302,121.6z M303.5,121
					c-0.3,0-0.5-0.2-0.5-0.4c-0.1-0.3,0.1-0.6,0.4-0.6c0,0,0.1,0,0.1,0c0.3,0,0.6,0.2,0.6,0.5C304,120.7,303.8,121,303.5,121
					C303.5,121,303.5,121,303.5,121z M306.7,118.6c-0.3,0-0.5-0.2-0.5-0.4c-0.1-0.3,0.1-0.6,0.4-0.6c0,0,0.1,0,0.1,0
					c0.3,0,0.6,0.2,0.6,0.5C307.2,118.3,307,118.6,306.7,118.6C306.7,118.6,306.7,118.6,306.7,118.6z M299.2,122.1
					c-0.3,0-0.5-0.2-0.5-0.4c-0.1-0.3,0.1-0.6,0.4-0.6c0,0,0.1,0,0.1,0c0.3,0,0.6,0.2,0.6,0.5C299.7,121.8,299.5,122.1,299.2,122.1
					C299.2,122.1,299.2,122.1,299.2,122.1z M296.4,121.9c-0.1,0-0.1,0-0.2,0c-0.3-0.1-0.5-0.4-0.4-0.7c0.1-0.3,0.4-0.4,0.7-0.4l0,0
					c0.3,0.1,0.4,0.4,0.4,0.7C296.9,121.7,296.6,121.9,296.4,121.9z M295.1,121.3c-0.1,0-0.2,0-0.3-0.1c-0.1-0.1-0.2-0.3-0.2-0.4
					c0-0.4,0.5-0.7,0.9-0.4c0.2,0.2,0.3,0.5,0.1,0.8C295.5,121.2,295.3,121.3,295.1,121.3z M304.5,120.5c-0.2,0-0.4-0.1-0.5-0.3
					c-0.1-0.3-0.1-0.6,0.2-0.7l0,0c0.3-0.1,0.6-0.1,0.7,0.2c0.1,0.3,0.1,0.6-0.2,0.7C304.7,120.4,304.6,120.5,304.5,120.5z
					 M305.7,119.7c-0.2,0-0.3-0.1-0.4-0.2c-0.2-0.2-0.2-0.6,0.1-0.7c0,0,0,0,0,0c0.2-0.2,0.6-0.1,0.8,0.1c0.2,0.2,0.1,0.6-0.1,0.8
					C305.9,119.6,305.8,119.7,305.7,119.7z"/>
			</g>
		</g>
	</g>
</g>
<g>
	<rect x="216.1" y="301.8" class="st63" width="56.3" height="28.3"/>
	<polygon class="st64" points="216.1,312.5 216.1,301.8 272.4,305.7 	"/>
	<path class="st65" d="M344.1,158.5H144.4c-4.4,0-8.1,3.6-8.1,8.1v131.1c0,4.4,3.6,8.1,8.1,8.1h199.7c4.4,0,8.1-3.6,8.1-8.1V166.5
		C352.1,162.1,348.5,158.5,344.1,158.5z"/>
	<rect x="145.2" y="166.4" class="st43" width="198.2" height="131.4"/>
	<path class="st65" d="M293,330.1h-97.6l0,0c0-4.2,3.4-7.7,7.7-7.7h82.2C289.6,322.4,293,325.8,293,330.1L293,330.1z"/>
	<g>
		<defs>
			<rect id="SVGID_23_" x="145.2" y="166.4" width="198.2" height="131.4"/>
		</defs>
		<clipPath id="SVGID_14_">
			<use xlink:href="#SVGID_23_"  style="overflow:visible;"/>
		</clipPath>
		<g class="st66">
			<g>
				<g>
					<g>
						<path class="st67" d="M165.3,281c-2-3.4-4.1-6.9-6.1-10.3c-1.9-3.2-3.9-6.3-5.5-9.7c-1.5-3.2-2.6-6.6-2.5-10.2
							c0.2-3.8,0.6-7.7,1-11.5c0.3-3.7,0.6-7.5,0.5-11.3c-0.1-3.8-0.7-7.4-1.6-11c-1.8-7-4.2-14-4.4-21.3c-0.1-3.6,0.3-7.3,1.6-10.6
							c0.6-1.5,1.5-3,3-3.8c1.5-0.8,3.2-0.9,4.9-0.6c5.9,1,10.7,5.7,13.4,10.9c1.4,2.6,2.3,5.5,2.6,8.4c0.4,3.7,0.1,7.4,0.4,11
							c0.2,3.4,1.2,6.6,2.8,9.5c1.6,2.8,3.6,5.3,5.3,8c1.8,2.9,3.1,6.1,3.9,9.5c0.7,3.4,0.9,6.9,0.7,10.3c-0.3,7.6-2.1,15-2.8,22.5
							c-0.2,1.8-0.2,3.7-0.2,5.6c0,0.3,0.4,0.3,0.4,0c0.2-7.9,2.1-15.6,2.9-23.5c0.7-6.9,0.6-14.2-2.2-20.7
							c-2.7-6.2-8.2-10.9-9.7-17.7c-0.8-3.7-0.5-7.6-0.6-11.4c-0.1-3.2-0.6-6.3-1.8-9.3c-2.1-5.4-6.1-10.3-11.6-12.7
							c-2.7-1.2-6-1.9-8.8-0.4c-2.8,1.6-3.8,5.1-4.4,8.1c-1.4,7.3,0.2,14.7,2.1,21.7c1,3.7,2.1,7.3,2.8,11.1
							c0.7,3.9,0.7,7.9,0.6,11.8c-0.2,3.9-0.6,7.8-1,11.7c-0.3,3.7-0.8,7.3,0.2,11c0.9,3.5,2.6,6.7,4.4,9.7c2,3.4,4.1,6.9,6.2,10.3
							c1,1.7,2.1,3.4,3.1,5.1C165.1,281.4,165.5,281.2,165.3,281L165.3,281z"/>
					</g>
				</g>
				<g>
					<g>
						<path class="st67" d="M162.9,183.4c1.8,2.2,2.9,4.8,3.7,7.5c0.8,2.9,1.1,5.9,1.1,8.9c0,3.5-0.2,7,0.3,10.4
							c0.4,3.1,1.3,6.2,2.4,9.1c2.2,6,5.1,11.7,6.6,17.9c1.6,6.7,1.4,13.6,0.9,20.5c-0.3,3.8-0.7,7.6-1,11.5
							c-0.3,3.9-0.5,7.8,0,11.7c0,0.2,0.3,0.2,0.3,0c-0.1-3.5,0-7,0.2-10.5c0.2-3.5,0.6-6.9,0.9-10.4c0.6-6.8,1-13.8-0.2-20.6
							c-1.2-6.4-4-12.3-6.4-18.3c-1.1-2.9-2.1-5.9-2.7-9c-0.7-3.6-0.6-7.2-0.6-10.7c0-3.4-0.1-6.8-1-10.1
							C166.4,188.4,165.1,185.4,162.9,183.4C162.9,183.3,162.9,183.3,162.9,183.4L162.9,183.4z"/>
					</g>
				</g>
				<g>
					<g>
						<path class="st67" d="M152.1,180.6c-0.6,3.2-0.3,6.6,0.1,9.7c0.4,3.2,1.1,6.4,2,9.6c1.7,6.5,4.1,12.7,6.2,19.1
							c2.2,6.5,3.9,13.2,4.4,20c0.5,6.9,0.4,13.8,1.9,20.6c0.8,3.6,1.9,7.2,3.3,10.6c1.3,3.4,2.9,6.8,4.6,10.1
							c0.1,0.2,0.4,0,0.3-0.2c-2.7-6.1-5.6-12-7.2-18.5c-1.7-6.7-1.8-13.6-2.2-20.5c-0.2-3.3-0.6-6.7-1.2-9.9
							c-0.7-3.3-1.6-6.5-2.6-9.7c-2-6.4-4.5-12.6-6.4-19c-1.1-3.6-2-7.2-2.5-10.8c-0.3-1.8-0.5-3.7-0.6-5.5c-0.1-1.8,0-3.7,0-5.5
							C152.3,180.5,152.1,180.5,152.1,180.6L152.1,180.6z"/>
					</g>
				</g>
				<g>
					<g>
						<path class="st67" d="M146.1,197.5c-0.2,5.6,2.5,10.7,5.1,15.4c1.4,2.5,2.8,4.9,3.8,7.5c1.1,2.7,1.7,5.4,1.9,8.3
							c0.5,5.8-0.4,11.6-0.7,17.4c-0.2,5.3,0.3,10.5,2,15.5c1.8,5.2,4.8,10.5,8.9,14.3c0.3,0.2,0.6-0.1,0.4-0.4
							c-1.7-1.9-3.3-3.9-4.7-6.1c-1.4-2.1-2.5-4.4-3.4-6.8c-1.9-4.9-2.6-10.1-2.5-15.4c0.1-5.7,1-11.3,0.7-17
							c-0.1-2.8-0.6-5.5-1.4-8.2c-0.9-2.5-2.1-4.9-3.4-7.3c-3-5.5-6.5-11-6.7-17.4C146.2,197.4,146.1,197.4,146.1,197.5L146.1,197.5
							z"/>
					</g>
				</g>
			</g>
			<g>
				<g>
					<g>
						<path class="st67" d="M190.4,262.1c-1.3-7-1.7-14-0.8-21c0.9-7,3-13.8,6.2-20.1c1.6-3.2,3.7-6.2,5.6-9.2
							c1-1.5,1.9-3.1,2.5-4.7c0.7-1.8,1.1-3.6,1.3-5.5c0.5-3.7,0.7-7.4,1.6-11c0.8-3.6,2.1-7.1,4-10.2c3.4-5.6,9.1-10.3,15.8-11
							c1.8-0.2,3.8-0.1,5.2,1.1c1.2,1,1.8,2.6,2,4.2c0.4,3.1-0.5,6.2-1.8,8.9c-2.6,5.6-6.8,10.6-7.9,16.9c-0.3,1.9-0.4,3.9-0.8,5.9
							c-0.3,1.8-1,3.5-1.9,5.1c-1.8,3.1-4.2,5.9-6.2,8.9c-2.2,3.3-4.1,6.7-5.8,10.2c-1.8,3.4-3.5,6.9-5.2,10.4
							c-3.2,6.7-5.8,14.1-4.7,21.7c0.2,1.8,0.7,3.4,1.5,5.1c0.1,0.3,0.6,0.1,0.5-0.2c-1.3-3.7-1.7-7.5-1.3-11.4
							c0.4-3.9,1.6-7.7,3.2-11.3c1.6-3.7,3.4-7.3,5.2-10.9c1.8-3.5,3.6-7,5.6-10.4c1-1.7,2.1-3.4,3.3-5c1.1-1.5,2.2-2.9,3.2-4.3
							c1-1.4,1.9-2.9,2.5-4.5c0.7-1.8,1-3.7,1.2-5.6c0.2-1.9,0.4-3.7,1-5.5c0.5-1.5,1.1-3,1.9-4.4c1.5-2.9,3.2-5.6,4.7-8.5
							c1.4-2.7,2.4-5.6,2.6-8.6c0.1-2.9-0.7-6.3-3.6-7.5c-1.5-0.7-3.2-0.6-4.8-0.4c-1.6,0.2-3.2,0.7-4.6,1.3c-3,1.2-5.7,3.2-7.9,5.6
							c-4.9,5.3-7.2,12.4-8.1,19.3c-0.5,3.9-0.6,7.9-1.9,11.6c-1.3,3.6-3.8,6.6-5.8,9.8c-3.7,6.1-6.3,12.8-7.8,19.8
							c-1.4,6.9-1.7,14-0.8,21c0.2,1.7,0.5,3.4,1,5.1C190.2,262.3,190.5,262.2,190.4,262.1L190.4,262.1z"/>
					</g>
				</g>
				<g>
					<g>
						<path class="st67" d="M221.4,170.3c-7.8,9.6-7.4,22.7-12.2,33.6c-1.4,3.2-3.3,6.1-5.3,8.9c-2,3-3.8,6.1-5.3,9.4
							c-2.9,6.5-4.7,13.5-5.7,20.5c-0.6,4.3-1,8.7-1.3,13c-0.2,4.4-0.5,8.8-0.4,13.2c0,0.3,0.4,0.3,0.4,0c0.2-3.9,0.3-7.8,0.5-11.8
							c0.2-3.8,0.5-7.7,0.9-11.5c0.9-7.2,2.4-14.3,5.1-21c1.3-3.4,3-6.6,5-9.7c1.9-3,4-5.9,5.6-9c2.7-5.3,3.9-11.2,5.3-17
							C215.6,182.5,217.2,175.7,221.4,170.3C221.5,170.3,221.4,170.2,221.4,170.3L221.4,170.3z"/>
					</g>
				</g>
				<g>
					<g>
						<path class="st67" d="M231,169.7c0.2,13.5-11.8,22.4-16.3,34.2c-2.3,6.3-2.2,13.2-4.5,19.5c-1.2,3.2-3,6.2-4.7,9.1
							c-1.6,2.9-3.2,5.8-4.6,8.8c-2.9,6.4-5.2,13.8-3.7,20.9c0,0.2,0.4,0.2,0.4-0.1c-0.8-6.7,0.7-13.2,3.3-19.4
							c1.3-3,2.8-5.9,4.4-8.7c1.7-2.9,3.4-5.8,4.8-8.9c2.6-6.1,2.6-12.8,4.5-19.2c1.8-6.3,5.9-11.5,9.5-16.8
							c3.9-5.7,7.6-12.3,7.1-19.4C231.2,169.6,231,169.6,231,169.7L231,169.7z"/>
					</g>
				</g>
			</g>
			<g>
				<g>
					<g>
						<path class="st67" d="M215.6,258.4c2-6.6,6.4-12.5,12.2-16.3c6-3.9,13.3-5.4,19.1-9.7c4.9-3.7,7.9-9.2,10.7-14.6
							c2.8-5.4,5.6-11,10.5-14.9c3-2.4,6.6-3.8,10.2-4.8c3.7-1,8.1-2,11.7-0.1c1.5,0.8,2.8,2,3.3,3.6c0.6,1.7,0.3,3.4-0.6,4.9
							c-0.9,1.6-2.2,2.9-3.6,4c-1.5,1.3-3.2,2.5-4.8,3.7c-3.1,2.1-6.5,3.7-9.7,5.6c-2.9,1.7-5.5,3.8-7,7c-1.5,3.1-2,6.5-2.9,9.7
							c-1,3.4-2.7,6.4-5.3,8.7c-5.8,5.2-13.7,6.7-20.6,9.8c-6.8,3.1-12.6,8-17.8,13.3c-1.3,1.3-2.5,2.6-3.7,4
							c-0.3,0.3,0.2,0.9,0.5,0.5c5.2-5.7,10.8-11.2,17.4-15.1c3.6-2.1,7.4-3.5,11.3-5c3.6-1.3,7.2-2.7,10.4-4.8
							c2.8-1.8,5.4-4.2,7-7.3c1.6-3.1,2.1-6.6,3.1-10c0.5-1.7,1.1-3.4,2-4.9c0.9-1.6,2.2-2.9,3.7-3.9c3-2.2,6.4-3.6,9.5-5.5
							c1.8-1.1,3.5-2.2,5.1-3.5c1.5-1.1,3-2.3,4.3-3.7c2.2-2.4,3.7-5.7,2-8.8c-1.7-3-5.3-4.2-8.6-4.2c-2,0-4,0.5-6,1
							c-1.9,0.5-3.7,1.1-5.5,1.8c-3.2,1.3-6.1,3.3-8.4,5.8c-2.1,2.2-3.7,4.8-5.2,7.5c-3.1,5.5-5.5,11.5-9.8,16.3
							c-2.3,2.6-5.1,4.6-8.3,6.1c-3.3,1.7-6.8,2.9-10.1,4.6c-6.3,3.1-11.4,8-14.5,14.3c-0.7,1.5-1.3,3-1.8,4.6
							C215.2,258.5,215.5,258.6,215.6,258.4L215.6,258.4z"/>
					</g>
				</g>
				<g>
					<g>
						<path class="st67" d="M220.3,259.8c2.1-5.4,5.5-10.2,10-13.9c2.2-1.8,4.6-3.4,7.1-4.6c2.9-1.4,6.1-2.3,9-3.9
							c11.3-5.9,14.6-19.5,21.9-29.1c2.1-2.8,4.6-5.2,7.5-7.1c2.9-1.9,6.1-3.2,9.3-4.3c0.4-0.1,0.2-0.7-0.2-0.6
							c-5.7,1.7-11.3,4.7-15.3,9.2c-4.4,4.9-7.1,10.9-10.3,16.6c-3,5.3-6.6,10.7-11.9,14c-2.9,1.8-6.1,2.8-9.2,4.1
							c-2.6,1.1-5.1,2.6-7.3,4.4c-5,3.9-8.8,9.3-11,15.2C220.1,259.9,220.2,259.9,220.3,259.8L220.3,259.8z"/>
					</g>
				</g>
				<g>
					<g>
						<path class="st67" d="M292.4,199.4c-2.9,6.8-10.8,8.3-16.4,12.2c-4.8,3.4-8.4,8.1-11.7,12.9c-3.4,5-6.7,10.2-11,14.5
							c-4.9,4.7-11,7.7-16.7,11.2c-3.3,2-6.4,4.3-9.1,7.1c-2.8,2.9-5.2,6.2-7.5,9.5c-0.2,0.3,0.3,0.6,0.5,0.3c2.2-3,4.4-6,6.9-8.7
							c2.4-2.6,5.2-4.8,8.1-6.8c5.7-3.7,11.9-6.5,17.1-11c9-7.9,13.1-20.2,22.7-27.6c3.2-2.5,7-4,10.5-6.1c2.9-1.7,5.7-4.1,6.9-7.3
							C292.8,199.4,292.5,199.3,292.4,199.4L292.4,199.4z"/>
					</g>
				</g>
			</g>
			<g>
				<g>
					<g>
						<path class="st67" d="M238.3,267.5c7.6-5.8,15.8-10.9,25-13.6c8.4-2.4,17.6-2.5,25.8,0.8c2,0.8,3.9,1.8,5.6,3
							c1.8,1.2,3.7,2.7,4.8,4.7c2.3,4.1-1.4,8.3-5.3,9.3c-2.6,0.7-5.4,0.3-8-0.2c-2.6-0.5-5.2-1.2-7.8-1.7
							c-5.1-0.9-10.4-1.5-15.6-1.4c-9.3,0.2-18.8,2.6-26.5,8c-0.9,0.6-1.7,1.3-2.5,2c-0.2,0.2,0.1,0.6,0.3,0.4
							c3.8-2.9,7.9-5.3,12.5-6.9c4.7-1.7,9.6-2.5,14.6-2.8c5.5-0.3,11,0.2,16.5,1.2c2.7,0.5,5.3,1.1,8,1.7c2.5,0.5,5.2,0.9,7.7,0.5
							c3.7-0.6,7.7-3.8,7.4-7.9c-0.2-2.1-1.5-3.9-3.1-5.3c-1.6-1.5-3.4-2.7-5.3-3.8c-7.7-4.2-17-5-25.5-3.3
							c-9.6,1.9-18.2,6.9-26,12.6c-1,0.7-2,1.5-3,2.2C237.9,267.3,238.1,267.7,238.3,267.5L238.3,267.5z"/>
					</g>
				</g>
				<g>
					<g>
						<path class="st67" d="M244.6,268.1c7.2-3.5,13.6-8.8,21.3-11.2c3.8-1.2,7.8-1.7,11.7-0.7c1.9,0.5,3.8,1.3,5.7,1.8
							c2,0.5,4,0.7,6,0.9c4.1,0.5,8.1,1.5,10.8,4.8c0.2,0.2,0.5-0.1,0.4-0.3c-1.8-2.9-5.5-4.1-8.7-4.7c-2.1-0.4-4.3-0.5-6.4-0.9
							c-2.1-0.3-4-1-6-1.7c-7.9-2.6-15.9,0.5-22.7,4.5c-4,2.4-7.9,5.2-12.1,7.3C244.4,268,244.5,268.1,244.6,268.1L244.6,268.1z"/>
					</g>
				</g>
				<g>
					<g>
						<path class="st67" d="M299.5,268.3c-4.8,2-9.7-0.4-14-2.3c-2.1-0.9-4.3-1.8-6.6-2.2c-2.3-0.4-4.6-0.6-7-0.5
							c-9.2,0.2-17.9,3.1-26.6,5.8c-2.5,0.8-5,1.5-7.5,2.2c-2.5,0.7-5.1,1.1-7.6,1.7c-0.3,0.1-0.2,0.6,0.1,0.6
							c2.3-0.1,4.5-0.8,6.7-1.3c2.2-0.6,4.4-1.2,6.6-1.9c4.4-1.4,8.8-2.9,13.3-4.1c4.4-1.2,9-2.2,13.6-2.5c2.5-0.1,4.9-0.1,7.4,0.3
							c2.4,0.4,4.7,1.3,6.9,2.3c4.4,1.9,10,4.9,14.7,2.4C299.9,268.6,299.7,268.2,299.5,268.3L299.5,268.3z"/>
					</g>
				</g>
			</g>
			<g>
				<g>
					<g>
						<path class="st67" d="M157.2,294.5c-0.4-10.4-1.7-21.2-6.5-30.6c-4-7.9-10.6-14.7-18.9-17.9c-2.1-0.8-4.2-1.4-6.4-1.7
							c-2.3-0.3-4.8-0.5-6.9,0.7c-3.4,1.8-4.3,6.4-3.1,9.8c1.5,4.4,5.9,7,9.5,9.5c4.2,3,8.2,6.3,11.8,10.1
							c7.1,7.5,12.3,16.9,13.4,27.3c0.1,1.3,0.2,2.6,0.3,3.9c0,0.4,0.5,0.4,0.6,0c0.4-9.8-3.9-19.6-9.8-27.2
							c-3-3.9-6.6-7.4-10.4-10.5c-1.9-1.5-3.8-3-5.8-4.4c-1.9-1.4-3.9-2.7-5.6-4.3c-1.6-1.5-2.9-3.3-3.4-5.4
							c-0.4-1.8-0.3-3.9,0.6-5.6c2.3-4.5,8.1-3.5,12.1-2.5c8.5,2.3,15.6,8.4,20.1,15.8c5.3,8.8,7.3,19.2,8,29.3
							c0.1,1.3,0.1,2.5,0.2,3.8C156.8,294.8,157.2,294.8,157.2,294.5L157.2,294.5z"/>
					</g>
				</g>
				<g>
					<g>
						<path class="st67" d="M152.3,290.2c-1.9-8.2-1.6-16.9-5.1-24.8c-1.4-3.2-3.5-6.2-6.3-8.3c-1.7-1.3-3.6-2.1-5.4-3.2
							c-1.8-1.1-3.4-2.6-5-4c-3.1-2.7-7.1-5.7-11.5-4.9c-0.3,0-0.2,0.5,0.1,0.4c2-0.1,4,0.3,5.8,1.2c1.8,0.9,3.3,2.1,4.8,3.4
							c1.5,1.3,2.9,2.6,4.5,3.7c1.7,1.2,3.6,2,5.3,3.1c6.5,4,8.9,11.9,10.1,19c0.8,4.8,1.4,9.6,2.5,14.4
							C152.2,290.3,152.3,290.3,152.3,290.2L152.3,290.2z"/>
					</g>
				</g>
				<g>
					<g>
						<path class="st67" d="M115.4,249.2c1,4.3,5.4,6.5,9.1,8.2c2.3,1,4.7,2,6.9,3.3c2.2,1.4,4.1,3.2,5.8,5.1
							c6.1,7.1,9.5,16.1,13.1,24.7c1,2.4,2,4.8,3.1,7.1c1.1,2.4,2.2,4.9,3.8,6.9c0.2,0.3,0.6,0,0.5-0.3c-1-2.1-2.2-4.1-3.3-6.2
							c-1-2.1-2-4.2-2.9-6.3c-1.8-4.3-3.6-8.6-5.6-12.8c-2-4.1-4.2-8.1-7.1-11.7c-1.5-1.9-3.2-3.7-5-5.3c-1.9-1.6-4.1-2.8-6.3-3.8
							c-4.5-2-10.2-4-11.8-9.2C115.7,248.9,115.3,249,115.4,249.2L115.4,249.2z"/>
					</g>
				</g>
			</g>
			<g>
				<g>
					<g>
						<path class="st67" d="M369.5,245.2c-3.1-7.9-9.7-13.5-16.1-18.7c-6.5-5.4-13.5-11.3-16.4-19.6c-1.4-4-1.8-8.8,0.2-12.7
							c2-3.9,6.3-5.8,10.6-5.4c4.6,0.4,8.7,3.1,11.9,6.2c3.2,3,5.7,6.7,7.8,10.6c4.5,8.8,6.1,18.8,7.4,28.5c0.2,1.2,0.3,2.4,0.5,3.6
							c0,0.2,0.5,0.2,0.4-0.1c-0.5-5.3-1.2-10.5-2.2-15.7c-1-4.8-2.3-9.6-4.3-14.1c-1.8-4.1-4.2-8-7.2-11.3c-3-3.3-6.7-6.3-11-7.7
							c-3.9-1.2-8.5-0.9-11.8,1.8c-3.5,2.8-4.4,7.5-3.9,11.8c0.9,8.8,7.4,15.8,13.8,21.3c6.6,5.7,14.2,10.9,18.5,18.6
							c0.5,1,1,2,1.4,3C369.2,245.5,369.6,245.4,369.5,245.2L369.5,245.2z"/>
					</g>
				</g>
				<g>
					<g>
						<path class="st67" d="M372.8,244.6c-0.8-4.1-2.4-8-4.8-11.4c-2.4-3.5-5.6-6.3-9.1-8.8c-3.6-2.6-7.4-5-10.6-8
							c-2.8-2.6-5.4-5.6-7.3-8.9c-2.2-3.8-3.5-8-3.9-12.4c0-0.4-0.7-0.4-0.6,0c0.4,3.8,1.3,7.5,3,10.9c1.7,3.4,4,6.4,6.6,9.1
							c3,3.1,6.4,5.6,9.9,8c3.7,2.5,7.4,5.1,10.3,8.6c3.1,3.8,5.3,8.3,6.4,13.1C372.7,244.7,372.8,244.7,372.8,244.6L372.8,244.6z"
							/>
					</g>
				</g>
				<g>
					<g>
						<path class="st67" d="M341.1,190c1.1,8.1,7.4,13.7,12.6,19.5c6,6.6,11.1,14.1,14.9,22.2c2.2,4.6,3.8,9.4,5.5,14.2
							c0.1,0.2,0.4,0.1,0.4-0.1c-1-4.3-2.7-8.4-4.5-12.4c-1.8-4.1-4-8-6.4-11.7c-2.4-3.7-5-7.2-7.8-10.5c-2.7-3.1-5.6-6-8.3-9.1
							c-2.9-3.5-5.3-7.4-6.1-12C341.4,189.7,341.1,189.8,341.1,190L341.1,190z"/>
					</g>
				</g>
				<g>
					<g>
						<path class="st67" d="M348.4,188.6c2.1,3.4,4.6,6.4,7.1,9.5c2.4,3,4.8,6.1,7,9.3c4.2,6.3,7.6,13.1,10.2,20.3
							c0.7,2,1.3,4,1.9,6c0.6,2.1,1,4.2,1.6,6.3c0.1,0.2,0.5,0.2,0.5-0.1c-0.2-1.8-0.8-3.7-1.2-5.4c-0.5-1.8-1.1-3.7-1.7-5.5
							c-1.2-3.5-2.6-7-4.3-10.4c-3.3-6.9-7.5-13.3-12.3-19.3c-2.9-3.6-5.9-7-8.5-10.9C348.6,188.2,348.3,188.4,348.4,188.6
							L348.4,188.6z"/>
					</g>
				</g>
			</g>
			<g>
				<g>
					<g>
						<path class="st67" d="M351.2,281.1c0.8-7.1,0.3-14.4-1.4-21.3c-0.8-3.1-1.7-6.3-3.4-9c-1.7-2.6-3.8-4.8-6.2-6.8
							c-2.4-2-5-3.8-7.7-5.4c-2.9-1.6-5.8-2.9-8.9-4.2c-2.7-1.1-5.4-2.4-7.8-4.2c-1.8-1.4-3.5-2.9-5-4.5c-1.7-1.8-3.3-3.7-4.6-5.9
							c-1-1.7-1.9-3.8-1.4-5.8c0.7-3,3.9-3.2,6.5-2.9c3.4,0.4,6.8,1.2,10.1,2.1c3.3,1,6.6,2.4,9.3,4.6c2.8,2.4,5.5,5,8.7,6.9
							c3,1.8,6.5,2.7,9.4,4.8c2.8,2.1,4.7,5.2,6.1,8.3c3.1,6.9,4.2,14.7,4.3,22.2c0.1,7.8-0.8,15.5-1.9,23.3
							c-0.3,1.8-0.5,3.7-0.8,5.5c0,0.3,0.4,0.3,0.5,0.1c1.4-7.8,2.5-15.6,2.8-23.5c0.3-7.8-0.3-15.7-2.6-23.2
							c-1-3.3-2.4-6.6-4.4-9.5c-1-1.4-2.1-2.6-3.5-3.6c-1.4-1.1-3-1.9-4.6-2.6c-1.7-0.7-3.4-1.4-4.9-2.3c-1.7-1-3.3-2.2-4.8-3.5
							c-1.5-1.2-2.8-2.6-4.3-3.7c-1.3-1-2.7-1.9-4.3-2.6c-3.2-1.5-6.6-2.4-10-3.1c-1.7-0.3-3.3-0.7-5-0.9c-1.4-0.2-2.9-0.3-4.3,0.2
							c-2.1,0.7-3.2,2.7-3,4.8c0.2,2.2,1.3,4.2,2.5,6c1.4,2.1,3.1,4,4.9,5.8c1.5,1.5,3.1,2.9,4.8,4.1c2.8,2,6.1,3.2,9.2,4.5
							c3,1.3,5.9,2.7,8.6,4.5c2.8,1.8,5.5,3.8,7.8,6.1c2.2,2.2,4.3,4.7,5.5,7.7c2.7,6.8,3.7,14.5,3.7,21.8c0,1.8-0.1,3.5-0.2,5.3
							C350.9,281.3,351.2,281.3,351.2,281.1L351.2,281.1z"/>
					</g>
				</g>
				<g>
					<g>
						<path class="st67" d="M304.7,213.3c1.4,1.5,2.4,3.3,3.7,5c1.4,1.8,2.9,3.4,4.6,4.8c3.4,2.8,7.3,4.9,11.2,7
							c4.1,2.2,8.2,4.4,12.3,6.6c0.8,0.5,1.7,0.9,2.5,1.4c2.7,1.7,5,3.8,7.1,6.3c3,3.6,5.1,7.9,6.4,12.4c1.9,6.6,2,13.5,1.3,20.2
							c-0.1,1-0.2,2.1-0.3,3.1c0,0.2,0.4,0.3,0.4,0.1c0.7-3.9,1-7.9,0.9-11.8c-0.1-3.2-0.4-6.4-1.1-9.5c-1.1-4.8-3-9.4-5.9-13.4
							c-2-2.8-4.5-5.2-7.3-7.2c-0.9-0.6-1.9-1.2-2.8-1.8c-3-1.7-6-3.2-9.1-4.8c-4.1-2.2-8.3-4.2-12.1-6.8c-3.8-2.6-7-5.8-9.6-9.7
							c-0.5-0.8-1.2-1.4-1.9-2.1C304.7,213,304.6,213.2,304.7,213.3L304.7,213.3z"/>
					</g>
				</g>
				<g>
					<g>
						<path class="st67" d="M310.6,211c3.7,4.1,8.4,7.5,13.3,10c2.5,1.2,5.3,2.1,7.9,3.2c2.3,1,4.6,2.2,6.6,3.7
							c8.5,6.1,13.8,15.7,16.9,25.6c1,3.1,1.7,6.3,2.4,9.6c0.7,3.2,1.1,6.5,1.8,9.7c0.1,0.3,0.6,0.2,0.5-0.1
							c-0.3-2.9-0.8-5.8-1.4-8.7c-0.6-2.9-1.2-5.7-2-8.5c-1.5-5.3-3.5-10.5-6.3-15.3c-2.5-4.2-5.7-8.2-9.5-11.3
							c-1.9-1.6-3.9-3-6.1-4.1c-2.4-1.3-5-2.1-7.6-3.1c-6.1-2.3-11.7-6.3-16.2-10.9C310.7,210.5,310.5,210.8,310.6,211L310.6,211z"
							/>
					</g>
				</g>
			</g>
		</g>
		<g class="st66">
			<g>
				<g>
					<g>
						<path class="st68" d="M325,251.9c0.5-1.9-0.7-2.5-1.1-2.6c-0.7-0.2-2.4,0.3-2.9,1c0.7-1.9,3.2-9.8,1.7-10.1
							c-2-0.4-4.9,9-4.9,9s0.9-9.1-0.3-9.4c-2.2-0.5-2.5,5.1-4.7,11c-0.8,0.9-1.4,3-1.2,5.6c0.1,1.7,0.9,4.3,2.5,5.6l-1.5,3.7
							l4.8,5.3l3.1-7.8c0,0,1.2,0,2.2-0.4c1-0.4,2.2-1.7,3-3.5C329.2,250.6,325,251.9,325,251.9z"/>
					</g>
				</g>
				<g>
					<g>
						<path class="st61" d="M321.6,251c-0.7,0.8-1.1,1.8-1.5,2.8c-0.3,1-0.7,2.2-0.4,3.3c0.3,0.9,1.1,1.5,2.1,1.2
							c0.4-0.1,0.8-0.4,1.1-0.8c0.2-0.4,0.3-0.9,0.3-1.3c0-0.2-0.2-0.3-0.4-0.1c-0.2,0.2-0.3,0.6-0.4,0.9c-0.2,0.4-0.5,0.6-0.8,0.7
							c-0.9,0.3-1.3-0.8-1.3-1.5c0-0.9,0.3-1.7,0.5-2.6c0.3-0.8,0.6-1.7,0.9-2.5C321.8,251,321.7,250.9,321.6,251L321.6,251z"/>
					</g>
				</g>
				<g>
					<g>
						<path class="st61" d="M324.5,252.7c-0.6,0.8-1,1.7-1.4,2.6c-0.4,0.8-0.8,1.8-0.6,2.8c0.2,1.2,1.7,2.3,2.7,1.2
							c0.2-0.2,0-0.5-0.2-0.4c-0.3,0.1-0.6,0.2-0.9,0.2c-0.2,0-0.4-0.1-0.6-0.3c-0.4-0.3-0.5-0.8-0.5-1.3c0-0.8,0.4-1.7,0.7-2.4
							c0.3-0.8,0.7-1.5,1.1-2.3C324.9,252.7,324.6,252.6,324.5,252.7L324.5,252.7z"/>
					</g>
				</g>
				<g>
					<g>
						<path class="st61" d="M312.7,251.6c1-0.7,2.1-1.1,3.3-1.5c0.4-0.1,0.8-0.3,1.3-0.4c0.3-0.1,0.8-0.2,1,0.1
							c0.4,0.4,0.1,1.3-0.3,1.6c-0.9,0.9-2.1,1.4-3.2,2.1c-0.3,0.2-0.2,0.6,0.2,0.6c1.1,0,2.1,0.5,2.8,1.5c0.6,1,0.7,2,0.7,3.1
							c0,0.3,0.4,0.4,0.5,0.1c0.7-1.1,0.1-2.8-0.6-3.7c-0.8-1.1-2-1.7-3.3-1.7c0.1,0.2,0.1,0.4,0.2,0.6c1-0.6,2.1-1.1,3.1-1.8
							c0.6-0.5,1-1.1,1-1.9c0-0.7-0.3-1.3-1-1.5c-0.8-0.2-1.8,0.3-2.5,0.6c-1.1,0.5-2.2,1-3.1,1.9
							C312.5,251.5,312.6,251.6,312.7,251.6L312.7,251.6z"/>
					</g>
				</g>
			</g>
			<path class="st42" d="M158.8,263c15.4-14.4,39.2-14.7,56.5-13c17.3,1.8,30.9,4.7,42,12.2c15.2,10.2,26.8,39.9,26.8,39.9
				s27.6-36.4,29.6-38.9c2.3-0.3,4.4,0.2,6.1,1.9c0.2,1.2-4.8,27.8-10.1,37.9c-4.6,0-170.3-0.9-170.3-0.9S145,275.8,158.8,263z"/>
			<g>
				<defs>
					<path id="SVGID_25_" d="M158.8,263c15.4-14.4,39.2-14.7,56.5-13c17.3,1.8,30.9,4.7,42,12.2c15.2,10.2,26.8,39.9,26.8,39.9
						s27.6-36.4,29.6-38.9c2.3-0.3,4.4,0.2,6.1,1.9c0.2,1.2-4.8,27.8-10.1,37.9c-4.6,0-170.3-0.9-170.3-0.9S145,275.8,158.8,263z"/>
				</defs>
				<clipPath id="SVGID_16_">
					<use xlink:href="#SVGID_25_"  style="overflow:visible;"/>
				</clipPath>
				<g class="st69">
					<path class="st70" d="M266.5,268.3L249,252.2c-0.7,0-1.4,0.6-1.6,1.3c-0.7,2.2,0.7,3.8,2.2,5.1c1.5,1.3,2.9,2.7,3.7,4.5
						c0.9,2,1,4.3,1.9,6.3c1.1,2.6,3.4,3.4,6,3.6C264.6,273.1,265.9,271.3,266.5,268.3z"/>
					<path class="st70" d="M267.6,296.8c-1.2-0.4-2.7-0.6-3.4-1.7c-0.7-1-0.4-2.4-1-3.5c-0.6-1.1-2.1-1.5-3.3-1
						c-1.1,0.5-1.8,1.9-1.5,3.1c0.3,1.7,2.1,2.9,2.3,4.7c0.1,1.2-0.6,2.3-1,3.3c-0.5,1.1-0.7,2.5,0.2,3.3l10.8,3
						c1.1-0.3,1.9-1.2,2.3-2.2c0.4-1,0.4-2.2,0.1-3.2C272.3,300,270.2,297.7,267.6,296.8z"/>
					<path class="st70" d="M270.7,279.8c-0.4,1.1-0.7,2.2-0.8,3.3c0,0.4-0.1,0.9,0.1,1.2c0.2,0.4,0.5,0.6,0.8,0.8
						c0.7,0.5,1.5,0.8,2.3,1.3c1.3,0.8,2.2,2.1,3,3.4c0.8,1.3,1.6,2.6,2.6,3.7c1,1.1,2.4,2,3.9,2c1.5,0.1,3.1-0.9,3.5-2.3
						l-13.8-14.9C271.5,278.3,271,279.1,270.7,279.8z"/>
					<path class="st70" d="M301.8,276c-1.4-0.7-3-1.1-4.6-1.3l-5.2,10.9c-1.7,2.4-1.7,5.8,0,8.2c0.5,0.7,1.1,1.3,1.8,1.6
						c0.8,0.3,1.7,0.3,2.3-0.2c0.9-0.7,1-1.9,1-3c0-1.1-0.1-2.3,0.5-3.2c0.9-1.4,2.9-1.6,4-2.7c0.7-0.7,1-1.6,1.2-2.6
						c0.4-1.5,0.6-2.9,0.7-4.4c0-0.6,0.1-1.1-0.2-1.6C303.2,276.8,302.5,276.3,301.8,276z"/>
					<path class="st70" d="M311.2,286.3c-1.5,0.5-2.9,1.4-3.6,2.7c-0.8,1.3-0.8,3.2,0.2,4.3c0.7,0.8,1.9,1.2,3,1.4
						c2.8,0.5,5.9,0,7.9-2.1l-1-5.6C315.9,285.6,313.4,285.6,311.2,286.3z"/>
					<path class="st70" d="M312.5,269.5c0.3-0.6,0.6-1.3,1.2-1.7c1.4-0.9,3.6,0.1,4.8-1.1c1-0.9,0.6-2.6-0.1-3.7
						c-1.3-2.1-3.3-3.7-5.6-4.4l-7.8,8.5c-0.4,1.2,0.1,2.6,0.9,3.7c0.7,0.9,1.6,1.8,2.7,1.9C310.4,272.8,311.7,271.1,312.5,269.5z"
						/>
					<path class="st70" d="M232.2,274.8c0.5-0.1,1-0.3,1.4-0.6c1-0.8,1.2-2.2,1.1-3.5c-0.1-1.3-0.3-2.6,0.2-3.8
						c0.7-1.8,2.9-2.8,3.6-4.6c0.8-2.1-0.6-4.4-2.3-5.8c-1.3-1-2.8-1.9-4.5-2c-1.6-0.1-3.4,0.5-4.4,1.8l-9.8,2.8
						c-1.7,0.1-3.3,0.5-4.8,1.3c-0.7,0.3-1.3,0.8-1.4,1.6c-0.1,0.9,0.7,1.7,1.5,2c2.1,0.9,4.5,0.4,6.7,1.1c1.6,0.5,3,1.6,3.9,3
						c0.7,1.1,1,2.4,1.6,3.5C226.6,274.1,229.5,275.4,232.2,274.8z"/>
					<path class="st70" d="M243.6,284.3c-1.6,0.9-2.6,2.4-3.5,4c-0.9,1.5-1.9,3.1-3.4,4c-2.9,1.7-6.7,0.5-10,1.2
						c-1.9,0.4-3.7,1.6-4.9,3.2c-0.9,1.2-1.4,2.8-0.8,4.1c0.4,0.9,1.2,1.5,2,1.9c2.6,1.4,5.6,1.6,8.6,1.7l7.8-3
						c-0.3-0.8,0-1.7,0.5-2.3c0.5-0.7,1.2-1.1,1.9-1.6c2.7-2,4.9-4.7,6.4-7.7c0.7-1.5,1.3-3.3,0.4-4.7
						C247.4,283.6,245.1,283.4,243.6,284.3z"/>
					<path class="st70" d="M213.1,298.5c-1.3-1-2.9-1.3-4.4-1.5c-1.6-0.2-3.1-0.2-4.7,0c-1.6,0.1-3.1,0.4-4.7,0.5
						c-1.6,0-3.2-0.3-4.4-1.3c-1.6-1.2-2.4-3.4-4.1-4.4c-1.9-1.1-6.2-0.9-6.5,1.8c-0.6,4.5,3,16.4,21.2,14.7c0,0,0.9-1.6,0.9-1.6
						c1.9,0,3.9-0.4,5.6-1.3c1.2-0.6,2.4-1.4,2.8-2.7C215.1,301.1,214.3,299.4,213.1,298.5z"/>
					<path class="st70" d="M216,281.1c-0.3-0.2-0.7-0.4-1-0.6c-3.1-1.5-7.9,0.7-10.5-1.4c-1.2-1-1.1-5-2.9-5.4l-1.1-0.3
						c-1-0.4-2.2,0.2-2.7,1.2c-1.3,2.5-0.1,5.5-0.6,8.1c-0.6,2.9-2,5.1,0.6,7.8c1.3,1.3,3.1,1.9,4.8,2c1.6,0.1,3.4-0.5,3.9-2
						c1.1-3.3,0.1-5.4,4.9-4.3c1.4,0.3,2.8,0.5,4.1,0C218.9,285,218.1,282.6,216,281.1z"/>
					<path class="st70" d="M169,255.5c0.9,1.2,2,2.2,3.4,2.8c1.4,0.6,3,0.7,4.3,0c1.8-0.9,2.9-3.2,4.8-3.5c1.3-0.2,2.6,0.5,3.8,1.1
						c1.2,0.6,2.6,1.3,3.8,0.8c0.8-0.3,1.4-0.9,1.8-1.6c1.4-2.4,0.7-5.7-1.5-7.4c-1.4-1-3.1-1.4-4.8-1.7l-16.5,4.3
						c-0.6,0.7-0.7,1.8-0.5,2.7C167.9,253.9,168.4,254.7,169,255.5z"/>
					<path class="st70" d="M171.5,277.3c2.1-0.3,4,0.9,5.9,1.9c1.8,1,3.9,1.6,5.9,1.5c2.1-0.1,4.1-1.1,5.2-2.9
						c1.1-1.8,0.9-4.3-0.7-5.6c-1.1-0.9-2.6-1.2-4-1.1c-1.9,0.1-5.1,0.8-6.7-0.7c-1.5-1.4-0.6-4-1.3-5.6c-0.9-2-3.8-1.9-5-0.1
						c-1.3,2-0.8,4.1-3,5.7c-3.4,2.4-8.3,1.6-11.1,5.1c-0.8,1-0.8,2.4-0.3,3.5c0.5,1.1,1.4,2,2.5,2.7c2.4,1.5,4.5,1.5,6.8-0.3
						c1.3-1,2.4-2.3,3.8-3.2C170.2,277.7,170.9,277.4,171.5,277.3z"/>
					<path class="st70" d="M159.8,300c-2.9-3.1-7.5-3.6-11.1-5.8c-1.3-0.8-2.6-2.1-2.4-3.6c0.1-0.7,0.6-1.4,1.1-1.9
						c1.4-1.5,3.3-2.9,3.7-4.9c0.2-1.4-0.4-2.9-1.4-4c-1.7-2-4.5-3.1-7.1-2.8l-13,19.6c0.8,4,3.5,7.5,6.9,9.7
						c3.4,2.2,7.5,3.3,11.5,3.6c3.7,0.3,7.7-0.2,10.7-2.4c1.6-1.2,2.9-3.1,2.5-5.1C160.9,301.5,160.4,300.7,159.8,300z"/>
					<path class="st70" d="M181.4,300.6c-1.3-0.7-3.3-1.2-4.6-2.3c-1.6-1.3-1.9-3.5-3.5-4.8c-1.2-1-3-1-4.3-0.2
						c-1.3,0.8-2.1,2.3-2.3,3.8c-0.2,1.5,0.1,3.1,0.7,4.5c0.4,1,0.9,1.9,1.7,2.6l11,6.7c1.6-0.5,3.2-1.1,4.1-2.5
						c0.9-1.3,1-3,0.3-4.5C184,302.5,182.7,301.4,181.4,300.6z"/>
				</g>
				<circle class="st71" cx="223.8" cy="278.9" r="1.4"/>
				<circle class="st71" cx="220.1" cy="291.9" r="1.4"/>
				<circle class="st71" cx="311.5" cy="276.1" r="1.4"/>
				<circle class="st71" cx="188.3" cy="263.9" r="1.4"/>
				<circle class="st71" cx="162" cy="262.5" r="1.4"/>
				<circle class="st71" cx="177.4" cy="289.6" r="1.4"/>
				<circle class="st71" cx="155.2" cy="289.6" r="1.4"/>
				<circle class="st71" cx="246.2" cy="278.1" r="1.4"/>
				<circle class="st71" cx="265.5" cy="288.2" r="1.4"/>
			</g>
			<path class="st72" d="M198,283.6c0,0-8,10.9-12.4,18.4"/>
			<path class="st72" d="M253.6,279.1c-0.7,0.8-4.6,18.3-3.9,23.8"/>
			<g>
				<path class="st68" d="M206.6,231.3c0,0-8.1,19.7-7,22.3c1.2,2.5,6.4,8.5,18.1,9.3c13.6,0.9,17.6-4.3,18.9-5.4
					c1.3-1.1-0.8-21.3-0.8-21.3"/>
				<path class="st73" d="M236,236.1l-28.6-4.7c3.9,8.6,10.8,15.4,22,16.7c2.5,0.3,5.3,0.3,7.4,0.1L236,236.1z"/>
				<path class="st68" d="M241.5,193.7c5.5,6.5,9.6,33.5,6.7,41.3c-2.6,6.9-9.7,11.7-21.8,10.2c-12.2-1.4-19.3-9.4-23-19.1
					c-2.6-6.7-4.5-23.5,4.3-30.5C216.4,188.8,233.1,183.8,241.5,193.7z"/>
				<g>
					<path class="st74" d="M260.6,191.1c0.2-1.5,0-3-0.5-4.4c-1.6-4.5-6.7-7.2-11.5-7c-2.5,0.1-5.3,0.8-7.3-0.7
						c-0.8-0.6-1.4-1.5-2.2-2.2c-1.7-1.6-4.3-2.3-6.6-1.5c-3.3,1-5.3,4.4-8.3,5.9c-2.8,1.4-6,0.7-9,1c-1.5,0.1-3.2,0.6-4.3,1.7
						c-1.1,1.1-1.6,2.5-2.8,3.5c-1.7,1.4-4,1.5-5.8,2.7c-6.1,3.9-7.1,12.3-7,18.8c0.1,4.3,0.5,8.6,2,12.5c1.5,4,4.2,7.6,8,9.5
						c0.3,0.2,0.8,0.3,1.1,0c0.2-0.2,0.2-0.5,0.2-0.7c-0.1-1.8-0.9-5.6-0.5-7.4c0.1-0.5,2.5,4,5.4,5.1c4.2,1.6,2.3-5.4,1.8-7.2
						c-1.8-6.6-5.1-14.6,2.8-18.6c2-1,4.3-1.5,6.6-1.7c3.4-0.4,6.9-0.3,10.3,0.1c4.5,0.6,9,2,13.6,1.8c4-0.2,8.1-1.6,10.9-4.6
						C259.2,196.1,260.4,193.6,260.6,191.1z"/>
				</g>
				<g>
					<path class="st74" d="M260.4,192.4c-0.8,0.3-1.5,0.8-2.1,1.3c-8.2,7.7-18.4,4.8-21.3,4.3c-4.3-0.8-8.6-1.2-13-1.1
						c-5.3,0.1-11.2,1.1-14.4,5.4c-3.2,4.3-2.4,10.5-0.2,15.4c0.5,1.2,1,2.7,0,3.5c-1,0.8-2.5-0.1-3.6-0.7c-1.7-0.9-3.8-1.3-5.5-0.6
						c-1.2,0.5-2.1,1.6-2.5,2.9c1.6,3.5,4.1,6.6,7.5,8.3c0.3,0.2,0.8,0.3,1.1,0c0.2-0.2,0.2-0.5,0.2-0.7c-0.1-1.8-0.9-5.6-0.5-7.4
						c0.1-0.5,2.5,4,5.4,5.1c4.2,1.6,2.3-5.4,1.8-7.2c-1.8-6.6-5.1-14.6,2.8-18.6c2-1,4.3-1.5,6.6-1.7c3.4-0.4,6.9-0.3,10.3,0.1
						c4.5,0.6,9,2,13.6,1.8c4-0.2,8.1-1.6,10.9-4.6C258.9,196.4,259.9,194.5,260.4,192.4z"/>
				</g>
				<g>
					<path class="st68" d="M206.7,223.9c-1.4-3.1-5.1-1.9-6.4-0.1c-0.5,0.7-0.8,1.5-0.9,2.3c-0.6,3.5,1.2,8,4.5,9.4
						c3.3,1.4,6.2,0.1,6.8-2.6"/>
				</g>
				<circle class="st48" cx="244" cy="215.1" r="1.1"/>
				<g>
					<path class="st48" d="M243.6,206.1c0.4,0.1,2,0.7,1.4,1.4c-0.2,0.3-0.8,0.2-1.1,0.1c-0.3-0.1-0.7-0.2-1-0.2
						c0.1,0.1,0.1,0.3,0.1,0.4c0,0.3-0.8,0.1-0.9,0.1c-0.8-0.2-1.8-0.6-2.9-0.1C240.4,205.5,243,205.8,243.6,206.1z"/>
				</g>
				<path class="st48" d="M222.7,218c0,0.6,0.5,1.1,1.1,1.1c0.6,0,1.1-0.5,1.1-1.1c0-0.6-0.5-1.1-1.1-1.1
					C223.2,216.8,222.7,217.3,222.7,218z"/>
				<g>
					<path class="st48" d="M220.3,211.2c-0.4,0.3-2,1.4-1.2,1.9c0.4,0.2,1-0.1,1.3-0.3c0.3-0.2,0.7-0.5,1.1-0.5c0,0.1,0,0.3,0,0.4
						c0,0.3,0.9-0.2,1-0.2c0.9-0.5,1.8-1.2,3.3-1.1C223.7,209.6,220.8,210.7,220.3,211.2z"/>
				</g>
				<g>
					<g>
						<path d="M237.9,215.4c0.4,1.2,1.1,2.3,1.6,3.4c0.7,1.4,1.3,2.8,1.8,4.3c0.3,1.1,0.7,2.5,0.1,3.6c-0.6,1.2-2.1,1.4-3.3,1.3
							c-0.8-0.1-1.5-0.3-2.2-0.6c-0.6-0.3-1.2-0.7-1.8-0.9c-0.1-0.1-0.3,0.1-0.2,0.2c0.6,1.1,2.4,1.6,3.5,1.8
							c1.3,0.3,2.8,0.2,3.9-0.7c1-0.9,1.2-2.2,1-3.5c-0.2-1.6-0.9-3.2-1.6-4.6c-0.7-1.5-1.5-3.1-2.5-4.4
							C238,215.2,237.8,215.3,237.9,215.4L237.9,215.4z"/>
					</g>
				</g>
				<g>
					<path class="st23" d="M242.4,231.4c-1.7,2.2-6.6,3.3-9.3,2c-0.4-0.2-0.9,0.1-0.9,0.5c-0.3,4.9,3.5,7.2,7.7,6
						c4-1.1,5.1-6.2,3.5-8.6C243.1,231,242.6,231,242.4,231.4z"/>
				</g>
			</g>
			<g>
				<g>
					<path class="st75" d="M195.8,252.8c0.9,8,9.3,11.5,16.1,13.2c7.5,1.8,16,2.1,22.9-1.9c2.9-1.7,5.3-4.5,5.5-8
						c0-0.3-0.4-0.3-0.5-0.1c-0.3,1.5-0.8,2.8-1.7,4.1c-0.8,1.2-2,2.2-3.2,3c-2.7,1.8-6,2.8-9.2,3.2c-4,0.6-8.1,0.2-12.1-0.6
						c-3.7-0.8-7.4-1.9-10.7-3.8c-3.4-2-6.2-5-6.8-9.1C196.1,252.6,195.8,252.6,195.8,252.8L195.8,252.8z"/>
				</g>
			</g>
		</g>
		<g class="st66">
			<path class="st67" d="M327.6,279.8c0,0.8-0.6,1.4-1.4,1.4c-0.8,0-1.4-0.6-1.4-1.4c0-0.8,0.6-1.4,1.4-1.4
				C327,278.4,327.6,279,327.6,279.8z"/>
			<path class="st67" d="M337.6,232.1c0,0.8-0.6,1.4-1.4,1.4c-0.8,0-1.4-0.6-1.4-1.4s0.6-1.4,1.4-1.4
				C336.9,230.7,337.6,231.3,337.6,232.1z"/>
			<path class="st67" d="M258.3,252.6c0,0.8-0.6,1.4-1.4,1.4c-0.8,0-1.4-0.6-1.4-1.4c0-0.8,0.6-1.4,1.4-1.4
				C257.7,251.3,258.3,251.9,258.3,252.6z"/>
			<path class="st67" d="M277.9,277c0,0.8-0.6,1.4-1.4,1.4c-0.8,0-1.4-0.6-1.4-1.4c0-0.8,0.6-1.4,1.4-1.4
				C277.3,275.7,277.9,276.3,277.9,277z"/>
			<path class="st67" d="M171.7,245.5c0,0.8-0.6,1.4-1.4,1.4c-0.8,0-1.4-0.6-1.4-1.4s0.6-1.4,1.4-1.4
				C171.1,244.1,171.7,244.8,171.7,245.5z"/>
			<path class="st67" d="M191.4,215.2c0,0.8-0.6,1.4-1.4,1.4s-1.4-0.6-1.4-1.4c0-0.8,0.6-1.4,1.4-1.4S191.4,214.4,191.4,215.2z"/>
		</g>
	</g>
</g>
<g>
	<path class="st49" d="M158.7,146.5h48.5c4.3,0,7.8-3.5,7.8-7.8V62c0-4.3-3.5-7.8-7.8-7.8h-48.5c-4.3,0-7.8,3.5-7.8,7.8v76.6
		C150.9,143,154.4,146.5,158.7,146.5z"/>
	<rect x="155.7" y="59.1" class="st76" width="54.5" height="82.4"/>
	<g>
		<defs>
			<rect id="SVGID_27_" x="155.7" y="59.1" width="54.5" height="82.4"/>
		</defs>
		<clipPath id="SVGID_18_">
			<use xlink:href="#SVGID_27_"  style="overflow:visible;"/>
		</clipPath>
		<g class="st77">
			<g>
				<g>
					<path class="st43" d="M150.2,93.7c0.2-5.1,4.5-8.6,8.7-10.7c2.4-1.2,4.9-2.1,7.3-3.3c2-1,4.4-2.1,5.6-4.2
						c1.2-2.1,0.8-4.5,0.9-6.8c0.1-2.2,1-4,2.7-5.4c2.7-2.3,6.6-3.8,7.8-7.5c0.8-2.5,0-5.2-1.4-7.3c-1.6-2.3-4-4-6.4-5.4
						c-0.2-0.1-0.4,0.1-0.2,0.3c1.9,1.6,4,3,5.6,5c1.5,1.9,2.5,4.5,1.9,7c-1,3.7-5.2,5.3-7.8,7.6c-1.4,1.3-2.4,2.8-2.6,4.7
						c-0.3,2.3,0.3,4.9-0.7,7.2c-1,2.3-3.7,3.5-5.8,4.5c-2.4,1.1-4.9,2-7.2,3.3c-4.2,2.2-8.5,6-8.6,11.1
						C149.8,94,150.2,94,150.2,93.7L150.2,93.7z"/>
				</g>
			</g>
			<g>
				<g>
					<path class="st43" d="M149.8,83.8c0.3-3.3,4.6-4.2,7.1-5.2c3.1-1.2,6.1-2.8,8.4-5.1c1.2-1.1,2.1-2.4,2.9-3.9
						c0.8-1.7,1.2-3.4,1.6-5.3c0.3-1.9,0.6-3.8,1.2-5.7c0.6-1.7,1.5-3.3,2.7-4.7c1.3-1.4,2.8-2.6,4.4-3.6c1.7-1.1,3.5-1.9,5.1-3
						c0.2-0.1,0.1-0.4-0.1-0.3c-1.7,0.6-3.2,1.4-4.7,2.3c-1.5,0.9-2.9,1.9-4.2,3.1c-1.2,1.1-2.3,2.4-3,3.9c-0.9,1.7-1.3,3.6-1.6,5.5
						c-0.3,2-0.6,4-1.2,5.9c-0.6,1.7-1.6,3.3-2.8,4.6c-2.4,2.6-5.6,4.4-8.9,5.7c-2.7,1-7,2.1-7,5.7C149.5,84,149.7,84,149.8,83.8
						L149.8,83.8z"/>
				</g>
			</g>
			<g>
				<g>
					<path class="st43" d="M150.4,76.6c4.4-2.5,8.9-5.2,12-9.4c1.6-2.1,2.6-4.6,3.3-7.2c0.8-2.8,1.3-5.8,2.6-8.4
						c0.7-1.4,1.5-2.7,2.4-3.9c1-1.3,2.1-2.4,3.1-3.6c0.1-0.1-0.1-0.3-0.2-0.2c-1.1,0.7-2,1.7-2.9,2.8c-0.8,1-1.6,2.1-2.2,3.2
						c-1.4,2.5-2.1,5.1-2.8,7.9c-0.7,2.7-1.4,5.5-2.9,7.9c-1.4,2.2-3.2,4-5.2,5.7c-2.3,1.9-4.8,3.5-7.3,5
						C150.1,76.5,150.3,76.7,150.4,76.6L150.4,76.6z"/>
				</g>
			</g>
			<g>
				<g>
					<path class="st43" d="M228.7,136.3c-3.5-3.5-6.3-7.5-8.1-12.1c-2-5.1-2.3-10.6-2.7-16c-0.2-2.7-0.6-5.4-1.2-8
						c-0.6-2.6-1.5-5.1-2.6-7.5c-1.1-2.5-2.3-4.9-3.6-7.3c-1.1-2.1-2.2-4.4-3.7-6.2c-1.2-1.5-3-2.6-5-1.9c-1.6,0.6-2.5,2.3-2.7,3.9
						c-0.3,2.1,0.4,4,1.2,5.9c0.5,1.2,1,2.4,1.3,3.7c0.2,1.3,0.1,2.7-0.3,4c-0.7,2.3-1.8,4.5-2,7c-0.1,2.1,0.5,4.1,2.2,5.3
						c1,0.7,2.1,1.1,3.1,1.8c0.8,0.7,1.4,1.5,1.9,2.4c0.9,1.8,1.3,3.9,1.7,5.9c0.4,2.1,0.7,4.2,1.5,6.2c0.7,2,1.7,3.9,3,5.7
						c2.4,3.5,5.8,6.3,9.6,8.2c0.9,0.5,1.9,0.8,2.9,1.1c0.5,0.1,0.7-0.6,0.2-0.7c-4-1.4-7.5-3.8-10.3-6.9c-2.8-3.2-4.7-7-5.5-11.1
						c-0.7-3.7-1-8-3.7-10.9c-1.5-1.5-4-1.9-5-3.9c-1-2-0.5-4.4,0.2-6.3c0.8-2.3,1.9-4.7,1.7-7.2c-0.2-2.4-1.5-4.5-2.3-6.7
						c-0.6-1.7-0.6-3.7,0.4-5.3c0.5-0.7,1.2-1.3,2.1-1.3c1-0.1,2,0.4,2.7,1.1c1.7,1.6,2.7,3.8,3.8,5.8c1.2,2.3,2.5,4.6,3.5,6.9
						c1.1,2.4,2.1,4.8,2.8,7.3c0.8,2.6,1.2,5.3,1.5,7.9c0.5,5.2,0.6,10.5,2.2,15.5c1.4,4.3,3.6,8.4,6.7,11.8
						c0.8,0.9,1.6,1.7,2.5,2.4C228.6,136.7,228.9,136.5,228.7,136.3L228.7,136.3z"/>
				</g>
			</g>
			<g>
				<g>
					<path class="st43" d="M219.6,132.4c-2.7-3.3-4.8-7.1-6.2-11.1c-0.7-1.9-1.2-3.9-1.5-6c-0.3-2-0.6-4-1.2-5.9
						c-0.6-1.9-1.6-3.4-3-4.9c-1.4-1.4-2.4-2.9-2.7-4.8c-0.6-3.6,0.5-7.3,0.4-10.9c-0.1-1.9-0.5-3.8-1.6-5.4c-1-1.5-2.9-3.4-1.9-5.3
						c0.2-0.4-0.4-0.7-0.6-0.4c-0.8,1.6-0.2,3,0.7,4.4c1.1,1.6,2.1,3,2.5,5c0.7,3.7-0.6,7.5-0.4,11.3c0.1,1.7,0.5,3.4,1.4,4.8
						c0.6,0.9,1.3,1.6,2,2.3c0.7,0.8,1.4,1.6,1.8,2.6c0.9,1.9,1.2,4,1.5,6c0.3,2.1,0.7,4.2,1.4,6.3c1.4,4.5,3.8,8.7,6.9,12.3
						C219.4,132.8,219.7,132.5,219.6,132.4L219.6,132.4z"/>
				</g>
			</g>
			<g>
				<g>
					<path class="st43" d="M203.7,77.6c1.2,3.1,2.4,6.3,3.1,9.5c0.3,1.6,0.5,3.3,0.5,5c0,1.7-0.4,3.4-0.2,5.1c0.4,3,2.5,5.6,3.9,8.2
						c1.6,2.9,2.9,5.8,4,8.9c0.6,1.7,1.2,3.4,1.7,5.1c0.5,1.7,0.8,3.5,1.4,5.2c0.1,0.3,0.6,0.2,0.5-0.1c-0.2-1.6-0.6-3.1-1-4.7
						c-0.4-1.5-0.9-3-1.4-4.5c-1-3-2.3-5.9-3.7-8.7c-0.7-1.5-1.6-2.9-2.4-4.3c-0.8-1.3-1.7-2.7-2.1-4.2c-0.5-1.7-0.1-3.5,0-5.3
						c0.1-1.6,0-3.1-0.3-4.7c-0.7-3.7-2.1-7.2-3.7-10.6C203.9,77.3,203.6,77.4,203.7,77.6L203.7,77.6z"/>
				</g>
			</g>
		</g>
		<g class="st77">
			<g>
				<g>
					<path class="st78" d="M175.4,125.3c-1,4.2-1.9,8.5-2.6,12.9c0,0-14.7-1.2-15.2-4c-0.5-2.8,5.7-18,5.7-18L175.4,125.3z"/>
				</g>
				<g>
					<path class="st79" d="M161,122c3.1,4.8,7.6,8.8,12.7,11.1c0.5-2.6,1-5.2,1.7-7.8l-12.1-9.1C163.3,116.2,162.2,118.8,161,122z"
						/>
				</g>
				<line class="st80" x1="187.3" y1="101" x2="194.6" y2="98.2"/>
				<g>
					<path class="st78" d="M188.3,92.6c1.8,6.8,4.2,18.5,4.5,25.4c0.2,5.5-2.3,10.7-7.2,11.9c-4.2,1.1-8.7,0.8-12.8-0.7
						c-10.8-3.8-19.5-15.3-18.7-27c0.3-4.6,2.3-8.9,4.5-12.9c1.5-2.6,3.1-5.3,5.6-7c3.9-2.7,9.1-2.4,13.9-2c2.1,0.2,4.3,0.4,6.3,1.3
						c3,1.5,1.3,6.6,3,9.5"/>
				</g>
				<g>
					<path class="st81" d="M189.2,96.4c0.7,0,1.2-2.2,1.2-3c0-3.9-1.5-7.7-3.8-10.7c-2.8-3.6-6.9-6-11.2-7.1
						c-5.4-1.3-11.9-1.6-17.3-0.3c-2.9,0.7-5.3,2.4-7.5,4.3c-4.2,3.7-7.1,8.9-8.2,14.5c-0.4,1.9-0.5,3.8-0.5,5.8
						c0.2,5.5,2.2,10.7,5.3,15.2c2.7,4,11.7,10.5,15.6,6.7c0.8-0.8-3.8-11-3.6-11.1c2.6-1.3,4-5.4,4-8.3c0-2.9-0.4-6,0.9-8.6
						c0.1-0.3,0.3-0.6,0.6-0.7c0.8-0.3,1.8,0.2,2.5,0.4c2.6,0.8,5.9,1.2,8.4-0.3c1.1-0.6,1.8-1.8,2.8-2.6c1.8-1.4,4.5-1.4,6.5-0.2
						c1.3,0.7,2.3,1.9,3.1,3.2"/>
				</g>
				<g>
					<g>
						<path class="st78" d="M160.9,110.9c-1.8-0.9-4.2,0.2-4.9,2.1c-0.2,0.7-0.3,1.5-0.2,2.2c0.4,3.2,3.1,6.5,6.2,6.9
							c3.1,0.4,5.3-1.5,5-4"/>
					</g>
				</g>
				<path class="st48" d="M173,106.7c0.4,0.3,0.4,0.9,0,1.3c-0.3,0.4-0.9,0.4-1.3,0c-0.4-0.3-0.4-0.9,0-1.3
					C172,106.3,172.6,106.3,173,106.7z"/>
				<path class="st48" d="M187.3,101.9c0.4,0.3,0.4,0.9,0,1.3s-0.9,0.4-1.3,0c-0.4-0.3-0.4-0.9,0-1.3
					C186.4,101.6,187,101.6,187.3,101.9z"/>
				<g>
					<g>
						<path class="st54" d="M183.4,106c1.4,2.1,2.6,4.3,3.2,6.8c0.3,1,0.7,2.5,0.1,3.5c-0.8,1.4-2.5,0.6-3.7,0.6
							c-0.2,0-0.3,0.3-0.1,0.4c1.1,0.7,2.8,0.8,3.9,0c1.1-0.8,1-2.3,0.7-3.5c-0.5-3-1.8-5.8-3.9-8
							C183.6,105.7,183.4,105.9,183.4,106L183.4,106z"/>
					</g>
				</g>
				<g>
					<g>
						<path class="st48" d="M182.4,98.1c-0.1-0.9,0.5-1.8,1.1-2.4c0.3-0.3,0.7-0.5,1.1-0.5c0.2,0,0.4,0,0.6,0.1
							c0.1,0,0.2,0.1,0.3,0.1c0.1,0.1,0.2,0.1,0.3,0.2c0.1,0,0.2-0.1,0.2-0.2c0-0.2-0.4-0.4-0.6-0.5c-0.2-0.1-0.5-0.1-0.7-0.1
							c-0.5,0-1,0.3-1.3,0.6c-0.4,0.4-0.6,0.8-0.9,1.3c-0.2,0.5-0.4,1-0.3,1.5C182.3,98.3,182.5,98.3,182.4,98.1L182.4,98.1z"/>
					</g>
				</g>
				<g>
					<g>
						<path class="st48" d="M173.4,100.6c-0.7-0.6-1.3-1.2-2.2-1.6c-0.6-0.3-1.3-0.4-2-0.3c-0.7,0-1.4,0.2-2,0.5
							c-0.4,0.2-1.2,0.7-1.1,1.2c0,0.1,0.2,0.2,0.3,0.1c0.2-0.2,0.2-0.4,0.4-0.6c0.2-0.2,0.4-0.3,0.7-0.4c0.6-0.3,1.2-0.4,1.8-0.4
							c0.6,0,1.2,0,1.7,0.3c0.8,0.3,1.5,0.9,2.1,1.5C173.4,100.8,173.5,100.7,173.4,100.6L173.4,100.6z"/>
					</g>
				</g>
				<g>
					
						<ellipse transform="matrix(0.6145 -0.789 0.789 0.6145 -7.5073 189.6167)" class="st80" cx="190.3" cy="102.5" rx="6.3" ry="6.3"/>
					<path class="st80" d="M179,106.1c0.3-1.7,3-3.3,5.1-1.7"/>
					<path class="st80" d="M154.5,111.2c3.3-1.2,6.6-2.4,10-3.4"/>
					<path class="st80" d="M179.2,107c0.5,4-2.3,7.6-6.3,8.1c-4,0.5-7.6-2.3-8.1-6.3c-0.5-4,2.3-7.6,6.3-8.1S178.7,103,179.2,107z"
						/>
				</g>
				<g>
					<path class="st23" d="M186.7,119.2c-1.1,0.7-3.2,0.9-4.6,0.5c-0.2-0.1-0.4,0-0.5,0.2c-0.5,1.6,0.5,4.4,3.1,4.3
						c2.2-0.2,3.6-2.1,2.6-4.8C187.1,119.1,186.9,119,186.7,119.2z"/>
				</g>
			</g>
			<g>
				<path class="st65" d="M195.6,158.8c-0.9-6-2-12.4-6.2-16.6c-2.2-2.2-5-3.6-7.9-4.7c-5.2-2-22.7-6.6-28.3-6.9l-1.7,28.1H195.6z"
					/>
			</g>
			<g>
				<g>
					<path class="st60" d="M191.1,144.2c-0.3-2.7-0.6-5.6,0.9-7.8c0.7-1.1,1.8-1.9,2.6-2.9c0.8-1.1,1.4-2.3,1.6-3.6
						c0.1-0.4,0.1-0.9,0.5-1.1c0.4-0.2,0.9,0.1,1.1,0.4c1,1.3,1.1,3.2,0.3,4.7c2.2-0.1,3.6-0.1,5.8-0.2c1.2,0,2.7,0.1,3,1.3
						c0.2,0.6-0.1,1.3-0.5,1.8c-0.4,0.5-1,0.8-1.6,1.1c0.9,0.3,1.7,1.2,0.9,2.8c0.5,0.3,1.5,1,0.3,2.7c0.8,0.2,1,1.4,0.1,2.2
						c-0.5,0.5-1.2,0.6-1.8,0.7c-0.7,0.1-1.4,0.3-2.2,0.4c-0.6,0.1-1.3,0.1-1.9,0c-0.6-0.1-1.2-0.5-1.6-1.1c-0.9,0.8-2,1.6-3.1,1.4
						c-0.5-0.1-1-0.3-1.4-0.5c-0.8-0.5-1.6-1.1-2.3-1.8"/>
				</g>
				<g>
					<g>
						<path class="st61" d="M201,134.2c-0.7,0.1-1.5,0.3-2.1,0.7c-0.3,0.2-0.6,0.4-0.7,0.7c-0.1,0.3-0.2,0.6-0.3,0.9
							c-0.1,0.6,0.1,1.3,0.7,1.5c0.7,0.3,1.4,0.3,2.1,0.2c0.5,0,0.9-0.1,1.3-0.1c0.4-0.1,0.9-0.1,1.3-0.3c0.1-0.1,0.1-0.2-0.1-0.3
							c-0.4,0-0.8,0.1-1.2,0.2c-0.4,0.1-0.9,0.1-1.3,0.1c-0.4,0-0.9,0-1.3-0.1c-0.3-0.1-0.7-0.1-0.9-0.4c-0.3-0.3-0.2-0.7-0.1-1
							c0.1-0.4,0.2-0.7,0.5-1c0.3-0.2,0.7-0.4,1-0.6c0.4-0.2,0.8-0.4,1.2-0.5C201.3,134.4,201.2,134.1,201,134.2L201,134.2z"/>
					</g>
				</g>
				<g>
					<g>
						<path class="st61" d="M197.2,135.4c0.2,1.4,0.1,2.9-0.5,4.2c-0.2,0.5-0.5,1-0.9,1.4c-0.4,0.4-0.9,0.7-1.4,1
							c-0.1,0.1-0.1,0.3,0.1,0.3c1.3,0.1,2.3-1.4,2.8-2.4c0.7-1.5,0.8-3.1,0.4-4.6C197.5,135,197.1,135.1,197.2,135.4L197.2,135.4z"
							/>
					</g>
				</g>
				<g>
					<g>
						<path class="st61" d="M199.2,138.1c-0.7,0.4-1,1.1-0.9,1.9c0.2,0.8,1,1.3,1.7,1.5c0.9,0.2,1.8,0.2,2.7,0
							c0.5-0.1,0.9-0.2,1.4-0.3c0.4-0.1,0.9-0.2,1.3-0.5c0.1-0.1,0.1-0.4-0.1-0.4c-0.4-0.1-0.7,0.1-1,0.1c-0.4,0.1-0.7,0.2-1.1,0.3
							c-0.7,0.2-1.5,0.3-2.2,0.2c-0.7,0-1.4-0.2-1.9-0.7c-0.2-0.3-0.4-0.6-0.3-1c0.1-0.4,0.3-0.7,0.6-0.9
							C199.4,138.2,199.3,138.1,199.2,138.1L199.2,138.1z"/>
					</g>
				</g>
				<g>
					<g>
						<path class="st61" d="M199.3,141c-0.7,0.4-1,1.1-0.9,1.9c0.2,0.8,1,1.3,1.7,1.5c0.9,0.2,1.8,0.2,2.7,0
							c0.5-0.1,0.9-0.2,1.4-0.3c0.4-0.1,0.9-0.2,1.3-0.5c0.1-0.1,0.1-0.4-0.1-0.4c-0.4-0.1-0.7,0.1-1,0.1c-0.4,0.1-0.7,0.2-1.1,0.3
							c-0.7,0.2-1.5,0.3-2.2,0.2c-0.7,0-1.4-0.2-1.9-0.7c-0.2-0.3-0.4-0.6-0.3-1c0.1-0.4,0.3-0.7,0.6-0.9
							C199.6,141.1,199.4,141,199.3,141L199.3,141z"/>
					</g>
				</g>
			</g>
		</g>
	</g>
</g>
<g>
	<g>
		<path class="st82" d="M403.8,42.1h-36l4.3-4.4V20c0-3.8,3.1-6.9,6.9-6.9h24.8c3.8,0,6.9,3.1,6.9,6.9v15.2
			C410.7,39,407.7,42.1,403.8,42.1z"/>
		<g>
			<path class="st83" d="M386.3,27.6c0,1.2-1,2.2-2.2,2.2c-1.2,0-2.2-1-2.2-2.2c0-1.2,1-2.2,2.2-2.2
				C385.3,25.4,386.3,26.4,386.3,27.6z"/>
			<path class="st83" d="M394.2,27.6c0,1.2-1,2.2-2.2,2.2s-2.2-1-2.2-2.2c0-1.2,1-2.2,2.2-2.2S394.2,26.4,394.2,27.6z"/>
			<path class="st83" d="M402,27.6c0,1.2-1,2.2-2.2,2.2s-2.2-1-2.2-2.2c0-1.2,1-2.2,2.2-2.2S402,26.4,402,27.6z"/>
		</g>
	</g>
	<g>
		<path class="st82" d="M99.5,133.6h32.1l-3.6-3.8v-16c0-3.4-2.8-6.2-6.2-6.2H99.5c-3.4,0-6.2,2.8-6.2,6.2v13.7
			C93.4,130.9,96.1,133.6,99.5,133.6z"/>
		<g>
			<path class="st83" d="M115.3,121.7c0,1.1,0.9,2,2,2c1.1,0,2-0.9,2-2c0-1.1-0.9-2-2-2C116.2,119.7,115.3,120.6,115.3,121.7z"/>
			<path class="st83" d="M108.2,121.7c0,1.1,0.9,2,2,2c1.1,0,2-0.9,2-2c0-1.1-0.9-2-2-2C109.1,119.7,108.2,120.6,108.2,121.7z"/>
			<path class="st83" d="M101.2,121.7c0,1.1,0.9,2,2,2s2-0.9,2-2c0-1.1-0.9-2-2-2S101.2,120.6,101.2,121.7z"/>
		</g>
	</g>
	<g>
		<path class="st84" d="M510.2,289.2h-26.9l3,3.2v13.4c0,2.9,2.3,5.2,5.2,5.2h18.7c2.9,0,5.2-2.3,5.2-5.2v-11.5
			C515.4,291.5,513.1,289.2,510.2,289.2z"/>
		<g>
			<path class="st23" d="M497,299.2c0-0.9-0.7-1.6-1.6-1.6c-0.9,0-1.6,0.7-1.6,1.6c0,0.9,0.7,1.6,1.6,1.6
				C496.3,300.8,497,300.1,497,299.2z"/>
			<path class="st23" d="M502.9,299.2c0-0.9-0.7-1.6-1.6-1.6c-0.9,0-1.6,0.7-1.6,1.6c0,0.9,0.7,1.6,1.6,1.6
				C502.2,300.8,502.9,300.1,502.9,299.2z"/>
			<path class="st23" d="M508.8,299.2c0-0.9-0.7-1.6-1.6-1.6c-0.9,0-1.6,0.7-1.6,1.6c0,0.9,0.7,1.6,1.6,1.6
				C508.1,300.8,508.8,300.1,508.8,299.2z"/>
		</g>
	</g>
</g>
</svg>
