<?xml version="1.0" encoding="utf-8"?>
<!-- Generator: Adobe Illustrator 24.3.0, SVG Export Plug-In . SVG Version: 6.00 Build 0)  -->
<svg version="1.1" id="Capa_1" xmlns="http://www.w3.org/2000/svg" xmlns:xlink="http://www.w3.org/1999/xlink" x="0px" y="0px"
	 viewBox="0 0 632.6 412.9" style="enable-background:new 0 0 632.6 412.9;" xml:space="preserve">
<style type="text/css">
	.st0{fill:#DDDDDD;}
	.st1{fill:none;stroke:#F7A59A;stroke-width:1.5;stroke-miterlimit:10;stroke-dasharray:5,4;}
	.st2{fill:#FFFFFF;}
	.st3{fill:#A4D2FF;}
	.st4{clip-path:url(#SVGID_2_);}
	.st5{fill:none;stroke:#2CA5FF;stroke-width:2;stroke-miterlimit:10;}
	.st6{fill:#2CA5FF;}
	.st7{clip-path:url(#SVGID_4_);}
	.st8{fill:#FF5A5A;}
	.st9{fill:#E03F3F;}
	.st10{fill:#242C77;}
	.st11{fill:#BC8E7E;}
	.st12{fill:#916B61;}
	.st13{fill:#060A47;}
	.st14{clip-path:url(#SVGID_6_);}
	.st15{fill:none;stroke:#128CF9;stroke-width:1.5;stroke-miterlimit:10;}
	.st16{fill:#128CF9;}
	.st17{clip-path:url(#SVGID_8_);}
	.st18{fill:#E6F4FF;}
	.st19{fill:#CAEAFF;}
	.st20{fill:#FFCCB6;}
	.st21{fill:#F49D8C;}
	.st22{fill:none;stroke:#21329B;stroke-linecap:round;stroke-linejoin:round;stroke-miterlimit:10;}
	.st23{fill:#21329B;}
	.st24{fill:#19297C;}
	.st25{fill:#0E1663;}
	.st26{clip-path:url(#SVGID_10_);}
	.st27{fill:#0471E9;}
	.st28{fill:#EACECC;}
	.st29{clip-path:url(#SVGID_12_);}
	.st30{clip-path:url(#SVGID_14_);}
	.st31{fill:#D89177;}
	.st32{fill:#B27460;}
	.st33{fill:none;stroke:#0E1663;stroke-miterlimit:10;}
	.st34{fill:#60310F;}
	.st35{fill:#664032;}
	.st36{fill:none;stroke:#0E1663;stroke-width:1.0001;stroke-miterlimit:10.0007;}
	.st37{fill:#FFE6E3;}
	.st38{fill:#F7A59A;}
	.st39{fill:#F9C3BD;}
	.st40{enable-background:new    ;}
	.st41{fill:#142F4E;}
</style>
<g>
	<path class="st0" d="M631.3,412.9H1.3v-61c0-11.9,9.7-21.6,21.6-21.6h586.8c11.9,0,21.6,9.7,21.6,21.6L631.3,412.9L631.3,412.9z"/>
	<path class="st1" d="M419,184.9v-84.2c0-4.2-3.4-7.6-7.6-7.6H293.2c-4.2,0-7.6-3.4-7.6-7.6V34c0-4.2-3.4-7.6-7.6-7.6h-78.8
		c-4.2,0-7.6,3.4-7.6,7.6v58.1c0,4.2-3.4,7.6-7.6,7.6h-63.6c-4.2,0-7.6,3.4-7.6,7.6v135.6c0,4.2,3.4,7.6,7.6,7.6H455
		c4.2,0,7.6-3.4,7.6-7.6V200c0-4.2-3.4-7.6-7.6-7.6h-28.6C422.4,192.4,419,189,419,184.9z"/>
	<g>
		<path class="st2" d="M489.7,209.3H379.3c-4.5,0-8.2,3.7-8.2,8.2v73.2c0,4.5,3.7,8.2,8.2,8.2h110.4c4.5,0,8.2-3.7,8.2-8.2v-73.2
			C497.9,213,494.2,209.3,489.7,209.3z"/>
		<rect x="377" y="215.2" class="st3" width="115" height="77.7"/>
		<g>
			<g>
				<g>
					<defs>
						<rect id="SVGID_1_" x="377" y="215.2" width="115" height="77.7"/>
					</defs>
					<clipPath id="SVGID_2_">
						<use xlink:href="#SVGID_1_"  style="overflow:visible;"/>
					</clipPath>
					<g class="st4">
						<line class="st5" x1="382.6" y1="238.8" x2="389.1" y2="232.3"/>
						<line class="st5" x1="407.8" y1="231.7" x2="416.5" y2="234.7"/>
						<line class="st5" x1="390.1" y1="264.4" x2="395.5" y2="268.4"/>
						<line class="st5" x1="474.9" y1="245.1" x2="484" y2="246.5"/>
						<line class="st5" x1="398.5" y1="290.3" x2="403.2" y2="286.1"/>
						<polygon class="st6" points="399,243.7 399.8,246.5 402,244.4 						"/>
						<polygon class="st6" points="475.9,220.7 474.6,223.3 477.6,223.2 						"/>
						<polygon class="st6" points="386.5,222.6 384.6,224.9 387.5,225.5 						"/>
						<polygon class="st2" points="381.5,277.1 378.7,278 380.8,280.1 						"/>
						<polygon class="st2" points="485.5,268.8 483.5,270.9 486.3,271.7 						"/>
						<polygon class="st2" points="486.5,222.9 487.4,225.7 489.4,223.6 						"/>
						<path class="st2" d="M391,249.5c0,0.5-0.4,1-1,1s-1-0.4-1-1s0.4-1,1-1S391,249,391,249.5z"/>
						<path class="st2" d="M415.4,219.6c0,0.5-0.4,1-1,1s-1-0.4-1-1s0.4-1,1-1S415.4,219,415.4,219.6z"/>
						<path class="st2" d="M469.9,231.3c0,0.5-0.4,1-1,1s-1-0.4-1-1s0.4-1,1-1S469.9,230.8,469.9,231.3z"/>
						<path class="st2" d="M474,289.6c0,0.5-0.4,1-1,1s-1-0.4-1-1s0.4-1,1-1S474,289,474,289.6z"/>
					</g>
				</g>
			</g>
			<g>
				<g>
					<defs>
						<rect id="SVGID_3_" x="377" y="215.2" width="115" height="77.7"/>
					</defs>
					<clipPath id="SVGID_4_">
						<use xlink:href="#SVGID_3_"  style="overflow:visible;"/>
					</clipPath>
					<g class="st7">
						<g>
							<path class="st8" d="M482,258.4c-3.2-4.7-9-6.9-12.7-11.2c-4.8-5.6-5.1-13.7-8.5-20.3c-3.2-6.3-9.4-10.7-16.2-12.3
								c-3.4-0.8-7-0.9-10.4-0.1c-1.8,0.4-3.4,1-5,1.8c-3.7,1.9-8.8,3.2-12,6.1c-3.3,3.1-5.5,7.6-5.9,12.1
								c-0.3,4.1,0.7,8.4-0.9,12.3c-1.5,3.8-5.2,6.1-7.6,9.4c-2.8,3.8-3.5,9.3-0.7,13.1c1.9,2.5,5.1,3.9,7,6.3
								c2.5,3.2,2.6,7.8,4.6,11.4c2.8,4.9,8.7,7,14,8.7c6.2,1.9,12.7,3.8,19.1,2.7c9.4-1.6,16.7-9.4,25.8-12
								c3.1-0.9,6.6-1.3,8.6-3.8c1.2-1.4,1.7-3.3,2.1-5.1C484.8,271.1,485.7,263.8,482,258.4z"/>
						</g>
						<g>
							<path class="st9" d="M481.3,282.5c1.2-1.4,1.7-3.3,2.1-5.1c0.2-0.7,0.3-1.4,0.4-2c0,0-0.1,0-0.1,0.1c-1.3,1.2-2,2.8-3.1,4.2
								c-2.2,2.7-5.6,4.3-9,4.1c-3.4-0.2-6.7-2.1-8.6-5.1c-1.1-1.8-2.7-3.2-4.7-4c-2.8-1.1-6.3,1.1-8.3-2.2c-1.2-2-0.3-4.7,0.6-6.7
								c1.7-4.1,2.1-5.6,1.7-8.6c-0.5-4.2-4.2-9.9-7.3-12.7c-3-2.9-6.4-5.6-8.2-9.5c-0.4-0.8-0.7-1.6-1.3-2.3
								c-0.9-0.9-2.3-1.1-3.6-1.2c-6.3-0.5-11,2.2-12.3,8.7c-0.5,2.6-0.6,5.3-1.3,7.9c-0.7,2.8-2,5.5-2.5,8.4
								c-0.5,3.8,0.8,7.7,3.1,10.7c5.8,7.3,4.5,16.9-5.9,18.5c0.2,0.4,0.4,0.9,0.6,1.3c2.8,4.9,8.7,7,14,8.7
								c6.2,1.9,12.7,3.8,19.1,2.7c9.4-1.6,16.7-9.4,25.8-12C475.7,285.4,479.2,285,481.3,282.5z"/>
						</g>
						<path class="st10" d="M429.3,279.6c0,0-17.2,3.5-22.1,29.2c0.8-0.3,55.4,1.4,55.4,0s7.7-2.8,7.7-2.8s-4.1-20.6-20.9-26"/>
						<path class="st11" d="M433.4,262.7V278l-4.1,1.7c0,0-1,6.1,4.1,7.3c7.7,1.9,16.1-6.9,16.1-6.9l-4.3-2.4l-4.1-20.4"/>
						<path class="st12" d="M442.7,265.4l-1.6-8.1l-7.7,5.4v8.2C436.7,269.9,440.2,268.2,442.7,265.4z"/>
						<path class="st11" d="M424.4,230.1c-2,6.5-3.8,13.1-5,19.7c-0.7,3.9-1.6,8.2,0,12c1.6,4,5.7,6.5,10,6.2s13.6-1.2,18.5-7.6
							s4.9-23,3.3-25.8C449.6,232.1,431,219.5,424.4,230.1z"/>
						<g>
							<path class="st8" d="M428.3,219.9c-6.6,1.5-7.5,5.5-8,10c-0.1,0.8,0,2.2,1,3.8c0.6,0.9,1.9,1.1,2.9,0.6s1.6-1.4,2.2-2.3
								c0,1.2,1.5,2,2.7,1.9c1.2-0.2,2.2-1,3.2-1.8c-1.6,3.1,2,7,5,4.7c0.7-0.5,1.9-1.8,2.4-2.4c-1.7,1.8,3.5,8.3,4,10
								c0.8,2.5,0.1,5.2,0.4,7.8c0.1,0.8,0.6,1.9,1.4,1.7c0.5-0.1,0.7-0.6,1.1-0.9c0.8-0.7,2-0.4,3-0.2c5.9,1.5,0,9.9,4.9,12.8
								c1.2,0.7,2.6,0.8,3.9,0.6c0.8-0.1,1.6-0.3,2.2-0.9c0.7-0.6,0.9-1.5,1.1-2.4c0.8-3.1,1.6-6.3,1.9-9.5
								c0.4-5.5-1.3-11.6-3.1-16.8c-1.3-3.8-2.8-7.5-5.2-10.7C449.4,218,437.3,215.2,428.3,219.9"/>
						</g>
						<g>
							<path class="st11" d="M447,252.9c1.2-1.1,3.4-0.9,4.4,0.4c0.4,0.5,0.6,1.1,0.7,1.7c0.5,2.6-0.9,5.9-3.3,6.9s-4.6,0.1-5-1.9"
								/>
						</g>
						<path class="st13" d="M423.3,243.2c0,0.5,0.4,1,1,1c0.5,0,1-0.4,1-1c0-0.5-0.4-1-1-1C423.8,242.3,423.3,242.7,423.3,243.2z"/>
						<path class="st13" d="M440.3,245.6c0,0.5-0.4,1-1,1c-0.5,0-1-0.4-1-1c0-0.5,0.4-1,1-1C439.9,244.7,440.3,245.1,440.3,245.6z"
							/>
						<g>
							<path class="st2" d="M423.8,257c1.1,1.5,4.4,2.2,6.3,1.4c0.3-0.1,0.6,0.1,0.6,0.4c0.2,3.3-2.4,4.8-5.2,4.1
								c-2.7-0.7-3.4-4.2-2.4-5.8C423.2,256.7,423.6,256.7,423.8,257z"/>
						</g>
						<g>
							<g>
								<path d="M428.5,246.5c-0.3,0.1-0.6,0.5-0.8,0.8c-0.5,0.6-1,1.3-1.4,2c-0.5,0.7-0.9,1.4-1.3,2.1c-0.4,0.8-0.5,1.6,0.1,2.3
									c0.4,0.4,0.9,0.7,1.5,0.8c0.6,0.2,1.4,0.4,2,0.1c0.1-0.1,0.1-0.2,0-0.3c-0.5-0.3-1.1-0.3-1.6-0.4c-0.5-0.1-1-0.3-1.3-0.6
									c-0.6-0.6-0.3-1.4,0.1-2c0.7-1.3,1.6-2.5,2.4-3.7c0.2-0.3,0.5-0.6,0.5-1C428.6,246.5,428.6,246.5,428.5,246.5L428.5,246.5z"
									/>
							</g>
						</g>
						<g>
							<g>
								<path class="st13" d="M437.2,242c1.1-0.3,2.3-0.3,3.2,0.3c0.9,0.5,1.4,1.3,1.9,2.2c0.1,0.1,0.2,0.1,0.2-0.1
									c-0.1-1.1-1-2-1.9-2.5c-1.1-0.6-2.4-0.7-3.5-0.2C436.9,241.8,437,242.1,437.2,242L437.2,242z"/>
							</g>
						</g>
						<g>
							<g>
								<path class="st13" d="M423,238.6c0.9-0.5,1.9-0.7,2.8-0.2c0.4,0.2,0.8,0.5,1,0.9c0.3,0.4,0.4,0.8,0.6,1.3
									c0,0.1,0.2,0.1,0.2,0c0.2-1.1-0.7-2.2-1.6-2.6c-1-0.5-2.3-0.4-3.2,0.5C422.7,238.5,422.9,238.7,423,238.6L423,238.6z"/>
							</g>
						</g>
					</g>
				</g>
			</g>
		</g>
	</g>
	<g>
		<path class="st2" d="M351.1,41.7H234.4c-4.3,0-7.8,3.5-7.8,7.8v76.6c0,4.3,3.5,7.8,7.8,7.8h116.7c4.3,0,7.8-3.5,7.8-7.8V49.6
			C358.9,45.2,355.4,41.7,351.1,41.7z"/>
		<rect x="236.6" y="46.7" class="st6" width="112.3" height="82.4"/>
		<g>
			<g>
				<g>
					<defs>
						<rect id="SVGID_5_" x="236.6" y="46.7" width="112.3" height="82.4"/>
					</defs>
					<clipPath id="SVGID_6_">
						<use xlink:href="#SVGID_5_"  style="overflow:visible;"/>
					</clipPath>
					<g class="st14">
						<polygon class="st15" points="335,63.2 333.6,69.6 340.4,68.2 						"/>
						<polygon class="st15" points="322.8,121.5 326.7,126.8 330,120.7 						"/>
						<polygon class="st15" points="253.8,67.3 247.3,68.3 251.1,74.1 						"/>
						<polygon class="st15" points="254.2,114.4 248.8,118.2 254.7,121.8 						"/>
						<polygon class="st15" points="292.1,45.6 286.6,42 285.5,48.8 						"/>
						
							<rect x="260.2" y="62.3" transform="matrix(0.739 -0.6738 0.6738 0.739 25.4885 192.5979)" class="st2" width="2.2" height="2.2"/>
						
							<rect x="340.8" y="57.4" transform="matrix(0.739 -0.6738 0.6738 0.739 49.8353 245.6509)" class="st2" width="2.2" height="2.2"/>
						
							<rect x="327.5" y="62.3" transform="matrix(0.9646 -0.2636 0.2636 0.9646 -5.0877 88.8509)" class="st16" width="2.2" height="2.2"/>
						
							<rect x="242.8" y="54.4" transform="matrix(0.8731 -0.4875 0.4875 0.8731 3.8871 125.9204)" class="st16" width="2.2" height="2.2"/>
						
							<rect x="345.4" y="100.7" transform="matrix(0.9647 -0.2635 0.2635 0.9647 -14.5838 94.9081)" class="st16" width="2.2" height="2.2"/>
						
							<rect x="235.4" y="104.1" transform="matrix(0.9647 -0.2635 0.2635 0.9647 -19.3687 66.0456)" class="st16" width="2.2" height="2.2"/>
						
							<rect x="328.9" y="112.8" transform="matrix(0.998 -6.323084e-02 6.323084e-02 0.998 -6.5417 21.094)" class="st2" width="2.2" height="2.2"/>
						
							<rect x="240.2" y="115.8" transform="matrix(0.998 -6.323092e-02 6.323092e-02 0.998 -6.9089 15.4914)" class="st2" width="2.2" height="2.2"/>
					</g>
				</g>
			</g>
			<g>
				<g>
					<defs>
						<rect id="SVGID_7_" x="236.6" y="46.7" width="112.3" height="82.4"/>
					</defs>
					<clipPath id="SVGID_8_">
						<use xlink:href="#SVGID_7_"  style="overflow:visible;"/>
					</clipPath>
					<g class="st17">
						<g>
							<g>
								<path class="st18" d="M295.1,107.4c3.7,5.2,10.6,7.2,17,7c1.5-0.1,3.1-0.2,4.4-1c1.7-1,2.1-2.2,2.9-3.8
									c0.9-1.5,2.5-2.7,4.1-3.3c2.3-0.9,4.8-1,7.3-1.2s5-0.5,7.1-1.9c4-2.5,5.3-7.9,4.4-12.5c-0.4-1.8-1.1-3.7-2.6-4.8
									c-2.5-1.8-6.3-0.8-8.7-2.8c-2.6-2.1-2-6.1-3.6-9.1c-1.7-3.2-5.5-4.6-9.1-5.2c-1.4-0.2-2.9-0.4-4.1-1c-2.2-1-3.7-3.2-5.2-5.1
									c-2.6-3.2-5.7-6.1-9.6-7.6c-3.8-1.5-8.4-1.5-11.9,0.7l-2.5,0.4c-4.6-1.3-9.8-0.2-13.8,2.5s-6.9,6.8-8.6,11.3
									c-0.9,2.3-1.6,4.8-3.5,6.3c-3.2,2.7-8.3,1.4-12.1,3.3c-1.4,0.7-2.6,1.8-3.6,3s-2,2.5-2.4,4c-1,3.8,1.8,7.7,5.2,9.6
									c1.1,0.6,2.3,1.2,3.1,2.1c0.7,0.7,1,1.7,1.5,2.5c3.1,5.7,8,10.3,14.2,12c4.5,1.2,10.7,0.2,15.3-0.2
									c4.6-0.4,9.2-2.1,12.5-5.4"/>
							</g>
							<g>
								<path class="st19" d="M342.3,90.7c-0.3-1.6-0.9-3.3-2.1-4.5c-0.2,0.4-0.2,0.8-0.1,1.3c0.3,3.7,0.4,8.2-2.7,10.1
									c-3.4,2-8.2-0.5-11.4,1.8c-1.2,0.8-1.8,2.2-2.7,3.3c-2.6,3.2-7.2,4.7-11.1,3.5c-0.4-0.1-0.8-0.3-1-0.6
									c-0.3-0.4-0.2-1-0.1-1.6c0.9-3.4,3.5-6.8,2.1-9.9c-0.6-1.4-2-2.3-2.9-3.5c-2.8-3.5-2.1-9.3-5.8-11.9
									c-1.6-1.1-3.7-1.3-5.7-1.4c-4.3-0.3-8.7-0.6-13-0.9h-11.2c-1.8-1.1-4,1-4.2,3.1s0.6,4.2,0.3,6.2c-0.4,3.8-4.4,6.8-4.1,10.7
									c0.2,2.6,2.3,4.9,2.1,7.5c-0.2,2.8-3.3,4.8-6,4.4c-2.8-0.4-5-2.6-6-5.2c-0.4-1-0.6-2.1-1.3-3c-1.7-2.3-5.3-2.1-7.5-4
									c-0.7-0.6-1.3-1.4-2.2-1.6c-0.5-0.1-0.9,0-1.3,0.1c0.7,0.6,1.4,1.2,2.2,1.6c1.1,0.6,2.3,1.2,3.1,2.1c0.7,0.7,1,1.7,1.5,2.5
									c3.1,5.7,8,10.3,14.2,12c4.5,1.2,10.7,0.2,15.3-0.2c4.6-0.4,9.2-2.1,12.5-5.4l2.2,0.1c3.7,5.2,10.6,7.2,17,7
									c1.5-0.1,3.1-0.2,4.4-1c1.7-1,2.1-2.2,2.9-3.8c0.9-1.5,2.5-2.7,4.1-3.3c2.3-0.9,4.8-1,7.3-1.2s5-0.5,7.1-1.9
									C341.9,100.7,343.2,95.3,342.3,90.7z"/>
							</g>
							<g>
								<g>
									<path class="st19" d="M311.1,88.7c1.3,1.5,2.6,3,3.2,4.9c0.6,2,0.3,4-0.5,5.8c-0.7,1.7-1.7,3.3-2.1,5.2
										c-0.3,1.6,0.6,3.1,2.1,3.7c0.3,0.1,0.5-0.2,0.3-0.4c-0.6-0.7-1.4-1.2-1.7-2.1c-0.3-1,0.2-2.1,0.5-3c0.7-1.7,1.6-3.3,2-5
										s0.2-3.5-0.5-5c-0.7-1.6-1.9-3-3.1-4.3C311.1,88.4,311,88.5,311.1,88.7L311.1,88.7z"/>
								</g>
							</g>
							<g>
								<g>
									<path class="st19" d="M319,87.4c1.4,2.8,4.3,4.7,4.9,8c0.3,1.9-0.2,3.6-0.8,5.3c-0.5,1.4-1.3,3.2-0.5,4.6
										c0.1,0.1,0.3,0.1,0.3,0c0.1-0.9,0.1-1.8,0.4-2.7c0.2-0.9,0.6-1.7,0.8-2.6c0.5-1.6,0.7-3.2,0.3-4.8
										c-0.8-3.2-3.6-5.1-5.2-7.8C319,87.3,319,87.4,319,87.4L319,87.4z"/>
								</g>
							</g>
							<g>
								<g>
									<path class="st19" d="M323,91.1c1.3,1.5,2.5,3.3,2.9,5.3c0.4,2.1-0.4,4-1.7,5.6c-0.1,0.1,0,0.4,0.2,0.3
										c1.7-1.2,2.3-3.6,2-5.6c-0.3-2.2-1.7-4.1-3.2-5.7C323.1,90.8,322.9,90.9,323,91.1L323,91.1z"/>
								</g>
							</g>
							<g>
								<g>
									<path class="st19" d="M328.3,83.5c2.2,2.5,5.4,3.5,8.2,5.2c1.6,1,2.9,2.2,3.3,4.1c0.4,1.8,0.3,3.8-0.6,5.5
										c-0.1,0.3,0.2,0.6,0.4,0.3c1.2-1.4,1.1-3.4,0.9-5.1c-0.2-1.9-1.1-3.3-2.6-4.5c-3-2.2-7-2.9-9.7-5.7
										C328.4,83.3,328.3,83.4,328.3,83.5L328.3,83.5z"/>
								</g>
							</g>
							<g>
								<g>
									<path class="st19" d="M330.3,88.3c1.9,1.5,3.3,3.5,3.9,5.8c0.3,1.2,0.6,2.7,0,3.9c-0.5,1.1-1.6,1.7-2.4,2.6
										c-0.1,0.1,0,0.3,0.2,0.2c1-0.7,2.1-1.4,2.7-2.6s0.4-2.6,0.1-3.9c-0.7-2.5-2.2-4.7-4.3-6.2
										C330.4,88.1,330.2,88.2,330.3,88.3L330.3,88.3z"/>
								</g>
							</g>
							<g>
								<g>
									<path class="st19" d="M264.3,80.7c-0.5,2.3-2.1,4.2-3.9,5.5c-1.9,1.4-4.2,2.2-6.4,3c-1.8,0.7-3.7,1.7-4.7,3.5
										c-0.9,1.7-0.8,3.8,0.2,5.5c0.2,0.3,0.7,0,0.5-0.3c-1.2-1.9-1-4.4,0.5-6c1.6-1.7,3.9-2.3,6-3.2c3.7-1.5,7.2-4,8-8.1
										C264.5,80.7,264.3,80.6,264.3,80.7L264.3,80.7z"/>
								</g>
							</g>
							<g>
								<g>
									<path class="st19" d="M262,86.4c-1.4,1.3-2.8,2.6-4.7,3.4c-1.3,0.5-2.6,1-3.8,1.7c-1.1,0.7-2.1,1.6-2.6,2.9
										c-0.6,1.6-0.6,3.5,0.3,4.9c0.1,0.2,0.5,0.1,0.4-0.2c-0.6-1.7-0.8-3.5,0.1-5.1c0.7-1.2,1.8-2,3-2.6s2.5-1,3.7-1.6
										c1.5-0.8,2.7-2,3.8-3.2C262.4,86.5,262.2,86.3,262,86.4L262,86.4z"/>
								</g>
							</g>
							<g>
								<g>
									<path class="st19" d="M268.2,87.5c-1.6,3-5.1,5.3-5.2,9c0,3.1,2.5,5.5,3,8.5c0.2,1,0,2-0.4,2.8c-0.2,0.5-0.5,0.9-0.9,1.3
										c-0.3,0.3-0.7,0.6-1,1c-0.1,0.2,0,0.4,0.2,0.3c1.4-0.3,2.4-2.2,2.6-3.5c0.3-1.5-0.1-2.9-0.7-4.3c-0.7-1.5-1.6-2.9-2-4.5
										c-0.6-1.9-0.1-3.7,0.9-5.3C265.8,91,267.3,89.4,268.2,87.5C268.4,87.5,268.3,87.5,268.2,87.5L268.2,87.5z"/>
								</g>
							</g>
							<g>
								<g>
									<path class="st19" d="M260.9,95.7c-1,2.3,0.3,4.6,1.4,6.6c0.6,1.2,1.2,2.4,1.1,3.8c0,1.4-0.7,2.4-1.4,3.5
										c-0.1,0.1,0.1,0.3,0.2,0.2c2-1.3,2-4.2,1.2-6.2C262.4,101.1,260,98.6,260.9,95.7C261.1,95.7,260.9,95.6,260.9,95.7
										L260.9,95.7z"/>
								</g>
							</g>
						</g>
						<g>
							<path class="st8" d="M326.1,120.7c-6-9-16.5-13.7-26.8-14.6c-11.5-1-24.3,0.1-34.6,5.7c-9.3,5.1-17,13.3-21.5,23
								c29.6,0.2,59.3,0.3,88.9,0.5C330.9,130.1,328.9,125,326.1,120.7z"/>
						</g>
						<g>
							<g>
								<path class="st20" d="M287.4,104.8c-0.4,1.4-0.7,2.9-0.8,4.4c1.5,1.6,6.5,2,8.3-0.5c0.1-0.4-1-6.7-1-6.7"/>
							</g>
							<g>
								<path class="st21" d="M294.8,107.6c-0.3-1.9-0.9-5.6-0.9-5.6l-6.4,2.7c-0.2,0.9-0.4,1.8-0.6,2.7
									C289.5,108,292.2,108.1,294.8,107.6z"/>
							</g>
							<g>
								<path class="st20" d="M276.4,67.8c-3.1,6.8-3.6,14.5-3.8,22c-0.1,3.4-0.1,7,1.8,9.9c1.6,2.4,4.3,3.9,6.9,5
									c6.5,2.6,14.4,3.3,19.9-1c5-3.9,6.6-11,5.5-17.2c-0.6-3.7-2-7.2-3.7-10.6c-1.2-2.4-2.5-6.4-4.7-8.1
									c-5.5-4.1-14.2-4.2-20.3-1.8"/>
							</g>
							<g>
								<path class="st21" d="M307,89.3c-1.6,1.7-1.6,7.3-5.4,9.3c-1,0.5-1.9,1.1-2.7,1.8c-1.5,1.2-2.5,2.9-3.1,4.6
									c-0.1,0.4-0.3,0.9-0.2,1.4c2.1-0.5,4-1.3,5.7-2.6C305.4,100.3,307.2,94.7,307,89.3z"/>
							</g>
							<g>
								<path class="st21" d="M281.6,100.6c-2-1.3-4.8-1.6-6.1-3.7c-0.5-0.8-0.7-1.7-1-2.6s-0.8-1.8-1.7-2.1c-0.1,0-0.2-0.1-0.3-0.1
									c0,2.7,0.3,5.4,1.8,7.6c1.6,2.4,4.3,3.9,6.9,5c1.1,0.5,2.3,0.9,3.5,1.2C284.6,103.7,283.4,101.7,281.6,100.6z"/>
							</g>
						</g>
						<path class="st20" d="M265.4,131.1l11.8-24.3c0,0-6.7-2.8-7.9-5.9c-1.4-3.6,0.5-8.7,1.8-10.8c1.2-2.1,2.9,4.3,3,7
							s7.2,4.6,8.1,7.6c0.9,3.1,1.4,28.3,1.4,28.3"/>
						<path class="st20" d="M313.7,131.1l-11.8-24.3c0,0,6.7-2.8,7.9-5.9c1.4-3.6-0.5-8.7-1.8-10.8c-1.2-2.1-2.9,4.3-3,7
							s-7.2,4.6-8.1,7.6c-0.9,3.1-1.4,28.3-1.4,28.3"/>
						<path class="st22" d="M286.6,109.1c1.2,1.1,2.8,1.6,4.4,1.5s3.1-0.8,4.2-2"/>
						<path class="st13" d="M299.1,83.1c0.3,0.4,0.3,1-0.1,1.3s-1,0.3-1.3-0.1s-0.3-1,0.1-1.3C298.2,82.7,298.8,82.8,299.1,83.1z"/>
						<path class="st13" d="M280.8,83.1c-0.3,0.4-0.3,1,0.1,1.3s1,0.3,1.3-0.1s0.3-1-0.1-1.3C281.7,82.7,281.1,82.8,280.8,83.1z"/>
						<g>
							<g>
								<path class="st21" d="M288.6,84.8c-0.4,1.4-0.8,2.9-1.1,4.3c-0.2,0.9-0.4,1.9-0.5,2.8s-0.1,2.2,0.9,2.6
									c0.6,0.3,1.6,0.2,2.2,0.1c0.7-0.1,1.6-0.4,1.9-1.1c0.1-0.2-0.1-0.5-0.3-0.3c-0.6,0.3-1,0.6-1.6,0.7s-1.7,0.3-2.1-0.2
									c-0.5-0.6-0.3-1.7-0.2-2.4c0.2-1.8,0.6-3.5,0.9-5.3c0.1-0.5,0.1-0.9,0.2-1.4C288.7,84.7,288.6,84.7,288.6,84.8L288.6,84.8z"
									/>
							</g>
						</g>
						<g>
							<g>
								<path class="st13" d="M296.4,79.7c1-0.5,2.2-0.7,3.3-0.4c0.5,0.1,1.1,0.3,1.5,0.6c0.5,0.3,0.9,0.7,1.3,1
									c0.1,0.1,0.3,0,0.2-0.2c-0.6-1-1.9-1.6-3-1.8c-1.2-0.2-2.4,0-3.4,0.6C296.2,79.6,296.3,79.8,296.4,79.7L296.4,79.7z"/>
							</g>
						</g>
						<g>
							<g>
								<path class="st13" d="M283.2,79.5c-1-0.6-2.2-0.8-3.4-0.6c-1.1,0.2-2.4,0.8-3,1.8c-0.1,0.2,0.1,0.3,0.2,0.2
									c0.4-0.4,0.8-0.7,1.3-1s1-0.5,1.6-0.6c1.1-0.2,2.3-0.1,3.3,0.4C283.3,79.8,283.4,79.6,283.2,79.5L283.2,79.5z"/>
							</g>
						</g>
						<g>
							<path class="st2" d="M292.1,96.5c-1.4,0.8-3.7,0.7-5.3-0.2c-0.2-0.1-0.5,0-0.6,0.2c-0.8,2.1,0,6.2,2.8,6.4
								c2.5,0.2,4.4-2.3,3.5-6.2C292.6,96.5,292.3,96.4,292.1,96.5z"/>
						</g>
						<g>
							<g>
								<path class="st18" d="M289.6,62.4c2.2-0.9,4.7-1,7-0.6c2.8,0.4,5.6,1.4,8,3.1c2.3,1.7,4.2,4.1,4.9,6.9
									c0.5,1.9,0.3,4.3-1.3,5.4c-1,0.7-2.3,0.8-3.6,0.8c-2.7-0.2-5.5-1.2-6.8-3.5c-0.3-0.5-0.5-1.1-1-1.3
									c-0.6-0.4-1.4-0.1-2.1-0.2c-1.8-0.3-2.4-2.5-3.5-3.9c-1-1.3-3.1-2.8-4.8-2.4c-1.6,0.3-2.6,2.2-3.1,3.7
									c-0.5,1.4-0.8,3.2-2.2,3.5c-0.6,0.2-1.3,0-1.9,0.3c-0.6,0.4-0.7,1.2-1.1,1.8c-0.7,1.1-2.3,1.3-3.6,1.2
									c-1.5,0-3.2-0.1-4.1-1.3c-0.6-0.7-0.8-1.6-0.8-2.5c-0.1-2.7,1.3-5.2,3.1-7.2s4.1-3.4,6.4-4.8"/>
							</g>
							<g>
								<g>
									<path class="st19" d="M307.8,76.5c-1.5,0.8-3.3,0.7-4.9,0c-1.5-0.7-2.8-1.8-4-3.1c-0.8-0.9-1.8-2-3-2c-0.5,0-1,0.1-1.4-0.1
										c-0.5-0.2-0.8-0.8-1-1.2c-0.9-1.5-2.4-2.5-4.1-2.8c0.7,0.5,1.4,1.1,1.8,1.7c1.1,1.5,1.7,3.6,3.5,3.9
										c0.7,0.1,1.5-0.1,2.1,0.2c0.5,0.3,0.7,0.9,1,1.3c1.3,2.3,4.2,3.4,6.8,3.5c1.2,0.1,2.6,0,3.6-0.8c0.9-0.7,1.4-1.8,1.5-3
										C309.4,75.2,308.7,76,307.8,76.5z"/>
								</g>
								<g>
									<path class="st19" d="M274.6,77c1.3,0,2.9-0.1,3.6-1.2c0.4-0.6,0.5-1.4,1.1-1.8c0.5-0.3,1.3-0.2,1.9-0.3
										c1.4-0.4,1.7-2.2,2.2-3.5v-0.1c-0.7,0.9-0.9,1.6-1.6,2.3c-0.3,0.2-1,0.3-1.4,0.4c-0.5,0.1-1,0-1.5,0
										c-1.3,0.1-1.9,1.6-2.9,2.4c-1.7,1.4-4.5,0.5-5.7-1.4c-0.2-0.2-0.4-0.5-0.6-0.7v0.1c0,0.9,0.2,1.8,0.8,2.5
										C271.4,76.9,273.1,77,274.6,77z"/>
								</g>
							</g>
							<g>
								<g>
									<path class="st19" d="M308.2,69.2c0.9,1.4,1.2,2.9,1.1,4.5c-0.1,0.6-0.2,1.2-0.5,1.7s-0.8,0.9-1.3,1.3
										c-0.2,0.1,0,0.4,0.2,0.3c1.4-0.4,1.9-1.9,2.1-3.1C310,72.1,309.6,70.3,308.2,69.2C308.3,69.1,308.2,69.2,308.2,69.2
										L308.2,69.2z"/>
								</g>
							</g>
							<g>
								<g>
									<path class="st19" d="M293.2,67.8c0.7,1.1,1.7,1.9,2.8,2.3c0.7,0.3,1.5,0.4,2.2,0.7c0.7,0.4,1.3,0.9,1.8,1.6
										c0.8,1.2,1.4,2.5,2.3,3.6c0.7,0.8,2.1,2.1,3.3,1.6c0.1-0.1,0.2-0.3,0.1-0.4c-0.6-0.3-1.2-0.3-1.8-0.7
										c-0.6-0.4-1.1-1-1.6-1.6c-0.7-1.1-1.3-2.3-2.2-3.3c-0.8-1-1.9-1.4-3.1-1.7C295.5,69.5,294.2,69,293.2,67.8
										C293.2,67.7,293.1,67.7,293.2,67.8L293.2,67.8z"/>
								</g>
							</g>
							<g>
								<g>
									<path class="st19" d="M299.3,69.7c1,0.4,1.8,1,2.5,1.8c0.8,0.9,1.1,2,1.6,3.1c0.4,0.9,0.9,1.7,1.7,2.3
										c0.6,0.4,1.8,0.9,2.5,0.3c0.1-0.1,0-0.2-0.1-0.2c-0.4-0.1-0.9,0-1.3-0.1c-0.5-0.1-0.9-0.4-1.3-0.8
										c-0.7-0.7-1.1-1.7-1.6-2.6c-0.4-0.9-1-1.7-1.8-2.4C300.9,70.5,300.1,70,299.3,69.7C299.3,69.7,299.2,69.7,299.3,69.7
										L299.3,69.7z"/>
								</g>
							</g>
							<g>
								<g>
									<path class="st19" d="M285.1,65.5c-0.8,0.1-1.4,0.7-1.9,1.4c-0.6,0.9-1,1.8-1.5,2.8c-0.4,0.9-0.7,2.3-1.6,2.8
										c-0.6,0.4-1.3,0.5-1.9,1c-0.5,0.4-0.9,0.8-1.1,1.4c-0.1,0.2,0.2,0.3,0.3,0.2c0.5-0.5,0.9-1.1,1.5-1.4s1.2-0.5,1.7-0.9
										c0.7-0.6,1-1.6,1.3-2.4c0.4-0.9,0.7-1.9,1.2-2.7C283.6,66.8,284.2,65.8,285.1,65.5L285.1,65.5L285.1,65.5z"/>
								</g>
							</g>
							<g>
								<g>
									<path class="st19" d="M282.1,65.8c-0.9,0.5-1.6,1.1-2.2,1.9s-1,1.8-1.3,2.7c-0.3,1-0.7,1.9-1.2,2.8c-0.5,1-1.3,1.7-2,2.4
										c-0.1,0.1,0,0.3,0.1,0.2c1.8-0.7,2.7-2.9,3.2-4.5c0.3-1,0.6-2,1.1-2.9C280.4,67.6,281.2,66.6,282.1,65.8
										C282.2,65.9,282.2,65.8,282.1,65.8L282.1,65.8z"/>
								</g>
							</g>
						</g>
						<g>
							<path class="st23" d="M298.5,122.5C298.5,122.5,298.4,122.5,298.5,122.5c-0.4,0-0.6-0.3-0.5-0.6c0-0.3,0.3-0.5,0.6-0.5h0.1
								c0.3,0,0.5,0.3,0.4,0.6C299,122.3,298.8,122.5,298.5,122.5z M301.3,122.3c-0.3,0-0.5-0.2-0.5-0.4c-0.1-0.3,0.1-0.6,0.4-0.6
								h0.1c0.3,0,0.6,0.2,0.6,0.5C301.9,122,301.7,122.3,301.3,122.3C301.4,122.3,301.3,122.3,301.3,122.3z M302.7,122
								c-0.3,0-0.5-0.2-0.5-0.4c-0.1-0.3,0.1-0.6,0.4-0.6h0.1c0.3,0,0.6,0.2,0.6,0.5C303.3,121.7,303.1,121.9,302.7,122
								C302.8,122,302.8,122,302.7,122z M304.2,121.4c-0.3,0-0.5-0.2-0.5-0.4c-0.1-0.3,0.1-0.6,0.4-0.6h0.1c0.3,0,0.6,0.2,0.6,0.5
								C304.7,121.1,304.5,121.4,304.2,121.4L304.2,121.4z M307.4,119c-0.3,0-0.5-0.2-0.5-0.4c-0.1-0.3,0.1-0.6,0.4-0.6h0.1
								c0.3,0,0.6,0.2,0.6,0.5C307.9,118.7,307.7,119,307.4,119L307.4,119z M299.9,122.5c-0.3,0-0.5-0.2-0.5-0.4
								c-0.1-0.3,0.1-0.6,0.4-0.6h0.1c0.3,0,0.6,0.2,0.6,0.5C300.4,122.2,300.2,122.5,299.9,122.5L299.9,122.5z M297.1,122.3
								c-0.1,0-0.1,0-0.2,0c-0.3-0.1-0.5-0.4-0.4-0.7c0.1-0.3,0.4-0.4,0.7-0.4l0,0c0.3,0.1,0.4,0.4,0.4,0.7
								C297.6,122.1,297.3,122.3,297.1,122.3z M295.8,121.7c-0.1,0-0.2,0-0.3-0.1s-0.2-0.3-0.2-0.4c0-0.4,0.5-0.7,0.9-0.4
								c0.2,0.2,0.3,0.5,0.1,0.8C296.2,121.6,296,121.7,295.8,121.7z M305.2,120.9c-0.2,0-0.4-0.1-0.5-0.3c-0.1-0.3-0.1-0.6,0.2-0.7
								l0,0c0.3-0.1,0.6-0.1,0.7,0.2c0.1,0.3,0.1,0.6-0.2,0.7C305.4,120.8,305.3,120.9,305.2,120.9z M306.4,120.1
								c-0.2,0-0.3-0.1-0.4-0.2c-0.2-0.2-0.2-0.6,0.1-0.7l0,0c0.2-0.2,0.6-0.1,0.8,0.1c0.2,0.2,0.1,0.6-0.1,0.8
								C306.6,120,306.5,120.1,306.4,120.1z"/>
						</g>
					</g>
				</g>
			</g>
		</g>
	</g>
	<g>
		<rect x="167.5" y="302.2" class="st23" width="56.3" height="28.3"/>
		<polygon class="st24" points="167.5,312.9 167.5,302.2 223.8,306.1 		"/>
		<path class="st25" d="M295.5,158.9H95.8c-4.4,0-8.1,3.6-8.1,8.1v131.1c0,4.4,3.6,8.1,8.1,8.1h199.7c4.4,0,8.1-3.6,8.1-8.1V166.9
			C303.5,162.5,299.9,158.9,295.5,158.9z"/>
		<g>
			<g>
				<defs>
					<rect id="SVGID_9_" x="96.6" y="166.8" width="198.2" height="131.4"/>
				</defs>
				<clipPath id="SVGID_10_">
					<use xlink:href="#SVGID_9_"  style="overflow:visible;"/>
				</clipPath>
				<g transform="matrix(1 0 0 1 0 0)" class="st26">
					
						<image style="overflow:visible;enable-background:new    ;" width="1200" height="630" xlink:href="Zoom-icon-logo-thumbnail.png"  transform="matrix(0.2329 0 0 0.2329 55.9056 159.3)">
					</image>
				</g>
			</g>
		</g>
		<path class="st25" d="M244.4,330.5h-97.6l0,0c0-4.2,3.4-7.7,7.7-7.7h82.2C241,322.8,244.4,326.2,244.4,330.5L244.4,330.5z"/>
	</g>
	<g>
		<path class="st25" d="M500.3,56.7H393.2c-3.6,0-6.5,2.9-6.5,6.5v105.9c0,3.6,2.9,6.5,6.5,6.5h107.1c3.6,0,6.5-2.9,6.5-6.5v-106
			C506.7,59.6,503.8,56.7,500.3,56.7z"/>
		<rect x="393.8" y="63" class="st8" width="105.9" height="106.1"/>
	</g>
	<g>
		<path class="st27" d="M159.4,146.9h48.5c4.3,0,7.8-3.5,7.8-7.8V62.4c0-4.3-3.5-7.8-7.8-7.8h-48.5c-4.3,0-7.8,3.5-7.8,7.8V139
			C151.6,143.4,155.1,146.9,159.4,146.9z"/>
		<rect x="156.4" y="59.5" class="st28" width="54.5" height="82.4"/>
		<g>
			<g>
				<g>
					<defs>
						<rect id="SVGID_11_" x="156.4" y="59.5" width="54.5" height="82.4"/>
					</defs>
					<clipPath id="SVGID_12_">
						<use xlink:href="#SVGID_11_"  style="overflow:visible;"/>
					</clipPath>
					<g class="st29">
						<g>
							<g>
								<path class="st8" d="M150.9,94.1c0.2-5.1,4.5-8.6,8.7-10.7c2.4-1.2,4.9-2.1,7.3-3.3c2-1,4.4-2.1,5.6-4.2s0.8-4.5,0.9-6.8
									c0.1-2.2,1-4,2.7-5.4c2.7-2.3,6.6-3.8,7.8-7.5c0.8-2.5,0-5.2-1.4-7.3c-1.6-2.3-4-4-6.4-5.4c-0.2-0.1-0.4,0.1-0.2,0.3
									c1.9,1.6,4,3,5.6,5c1.5,1.9,2.5,4.5,1.9,7c-1,3.7-5.2,5.3-7.8,7.6c-1.4,1.3-2.4,2.8-2.6,4.7c-0.3,2.3,0.3,4.9-0.7,7.2
									c-1,2.3-3.7,3.5-5.8,4.5c-2.4,1.1-4.9,2-7.2,3.3c-4.2,2.2-8.5,6-8.6,11.1C150.5,94.4,150.9,94.4,150.9,94.1L150.9,94.1z"/>
							</g>
						</g>
						<g>
							<g>
								<path class="st8" d="M150.5,84.2c0.3-3.3,4.6-4.2,7.1-5.2c3.1-1.2,6.1-2.8,8.4-5.1c1.2-1.1,2.1-2.4,2.9-3.9
									c0.8-1.7,1.2-3.4,1.6-5.3c0.3-1.9,0.6-3.8,1.2-5.7c0.6-1.7,1.5-3.3,2.7-4.7c1.3-1.4,2.8-2.6,4.4-3.6c1.7-1.1,3.5-1.9,5.1-3
									c0.2-0.1,0.1-0.4-0.1-0.3c-1.7,0.6-3.2,1.4-4.7,2.3c-1.5,0.9-2.9,1.9-4.2,3.1c-1.2,1.1-2.3,2.4-3,3.9
									c-0.9,1.7-1.3,3.6-1.6,5.5c-0.3,2-0.6,4-1.2,5.9c-0.6,1.7-1.6,3.3-2.8,4.6c-2.4,2.6-5.6,4.4-8.9,5.7c-2.7,1-7,2.1-7,5.7
									C150.2,84.4,150.4,84.4,150.5,84.2L150.5,84.2z"/>
							</g>
						</g>
						<g>
							<g>
								<path class="st8" d="M151.1,77c4.4-2.5,8.9-5.2,12-9.4c1.6-2.1,2.6-4.6,3.3-7.2c0.8-2.8,1.3-5.8,2.6-8.4
									c0.7-1.4,1.5-2.7,2.4-3.9c1-1.3,2.1-2.4,3.1-3.6c0.1-0.1-0.1-0.3-0.2-0.2c-1.1,0.7-2,1.7-2.9,2.8c-0.8,1-1.6,2.1-2.2,3.2
									c-1.4,2.5-2.1,5.1-2.8,7.9c-0.7,2.7-1.4,5.5-2.9,7.9c-1.4,2.2-3.2,4-5.2,5.7c-2.3,1.9-4.8,3.5-7.3,5
									C150.8,76.9,151,77.1,151.1,77L151.1,77z"/>
							</g>
						</g>
						<g>
							<g>
								<path class="st8" d="M229.4,136.7c-3.5-3.5-6.3-7.5-8.1-12.1c-2-5.1-2.3-10.6-2.7-16c-0.2-2.7-0.6-5.4-1.2-8
									s-1.5-5.1-2.6-7.5c-1.1-2.5-2.3-4.9-3.6-7.3c-1.1-2.1-2.2-4.4-3.7-6.2c-1.2-1.5-3-2.6-5-1.9c-1.6,0.6-2.5,2.3-2.7,3.9
									c-0.3,2.1,0.4,4,1.2,5.9c0.5,1.2,1,2.4,1.3,3.7c0.2,1.3,0.1,2.7-0.3,4c-0.7,2.3-1.8,4.5-2,7c-0.1,2.1,0.5,4.1,2.2,5.3
									c1,0.7,2.1,1.1,3.1,1.8c0.8,0.7,1.4,1.5,1.9,2.4c0.9,1.8,1.3,3.9,1.7,5.9c0.4,2.1,0.7,4.2,1.5,6.2c0.7,2,1.7,3.9,3,5.7
									c2.4,3.5,5.8,6.3,9.6,8.2c0.9,0.5,1.9,0.8,2.9,1.1c0.5,0.1,0.7-0.6,0.2-0.7c-4-1.4-7.5-3.8-10.3-6.9
									c-2.8-3.2-4.7-7-5.5-11.1c-0.7-3.7-1-8-3.7-10.9c-1.5-1.5-4-1.9-5-3.9s-0.5-4.4,0.2-6.3c0.8-2.3,1.9-4.7,1.7-7.2
									c-0.2-2.4-1.5-4.5-2.3-6.7c-0.6-1.7-0.6-3.7,0.4-5.3c0.5-0.7,1.2-1.3,2.1-1.3c1-0.1,2,0.4,2.7,1.1c1.7,1.6,2.7,3.8,3.8,5.8
									c1.2,2.3,2.5,4.6,3.5,6.9c1.1,2.4,2.1,4.8,2.8,7.3c0.8,2.6,1.2,5.3,1.5,7.9c0.5,5.2,0.6,10.5,2.2,15.5
									c1.4,4.3,3.6,8.4,6.7,11.8c0.8,0.9,1.6,1.7,2.5,2.4C229.3,137.1,229.6,136.9,229.4,136.7L229.4,136.7z"/>
							</g>
						</g>
						<g>
							<g>
								<path class="st8" d="M220.3,132.8c-2.7-3.3-4.8-7.1-6.2-11.1c-0.7-1.9-1.2-3.9-1.5-6c-0.3-2-0.6-4-1.2-5.9s-1.6-3.4-3-4.9
									c-1.4-1.4-2.4-2.9-2.7-4.8c-0.6-3.6,0.5-7.3,0.4-10.9c-0.1-1.9-0.5-3.8-1.6-5.4c-1-1.5-2.9-3.4-1.9-5.3
									c0.2-0.4-0.4-0.7-0.6-0.4c-0.8,1.6-0.2,3,0.7,4.4c1.1,1.6,2.1,3,2.5,5c0.7,3.7-0.6,7.5-0.4,11.3c0.1,1.7,0.5,3.4,1.4,4.8
									c0.6,0.9,1.3,1.6,2,2.3c0.7,0.8,1.4,1.6,1.8,2.6c0.9,1.9,1.2,4,1.5,6c0.3,2.1,0.7,4.2,1.4,6.3c1.4,4.5,3.8,8.7,6.9,12.3
									C220.1,133.2,220.4,132.9,220.3,132.8L220.3,132.8z"/>
							</g>
						</g>
						<g>
							<g>
								<path class="st8" d="M204.4,78c1.2,3.1,2.4,6.3,3.1,9.5c0.3,1.6,0.5,3.3,0.5,5s-0.4,3.4-0.2,5.1c0.4,3,2.5,5.6,3.9,8.2
									c1.6,2.9,2.9,5.8,4,8.9c0.6,1.7,1.2,3.4,1.7,5.1s0.8,3.5,1.4,5.2c0.1,0.3,0.6,0.2,0.5-0.1c-0.2-1.6-0.6-3.1-1-4.7
									c-0.4-1.5-0.9-3-1.4-4.5c-1-3-2.3-5.9-3.7-8.7c-0.7-1.5-1.6-2.9-2.4-4.3c-0.8-1.3-1.7-2.7-2.1-4.2c-0.5-1.7-0.1-3.5,0-5.3
									c0.1-1.6,0-3.1-0.3-4.7c-0.7-3.7-2.1-7.2-3.7-10.6C204.6,77.7,204.3,77.8,204.4,78L204.4,78z"/>
							</g>
						</g>
					</g>
				</g>
			</g>
			<g>
				<g>
					<defs>
						<rect id="SVGID_13_" x="156.4" y="59.5" width="54.5" height="82.4"/>
					</defs>
					<clipPath id="SVGID_14_">
						<use xlink:href="#SVGID_13_"  style="overflow:visible;"/>
					</clipPath>
					<g class="st30">
						<g>
							<g>
								<path class="st31" d="M176.1,125.7c-1,4.2-1.9,8.5-2.6,12.9c0,0-14.7-1.2-15.2-4s5.7-18,5.7-18L176.1,125.7z"/>
							</g>
							<g>
								<path class="st32" d="M161.7,122.4c3.1,4.8,7.6,8.8,12.7,11.1c0.5-2.6,1-5.2,1.7-7.8l-12.1-9.1
									C164,116.6,162.9,119.2,161.7,122.4z"/>
							</g>
							<line class="st33" x1="188" y1="101.4" x2="195.3" y2="98.6"/>
							<g>
								<path class="st31" d="M189,93c1.8,6.8,4.2,18.5,4.5,25.4c0.2,5.5-2.3,10.7-7.2,11.9c-4.2,1.1-8.7,0.8-12.8-0.7
									c-10.8-3.8-19.5-15.3-18.7-27c0.3-4.6,2.3-8.9,4.5-12.9c1.5-2.6,3.1-5.3,5.6-7c3.9-2.7,9.1-2.4,13.9-2
									c2.1,0.2,4.3,0.4,6.3,1.3c3,1.5,1.3,6.6,3,9.5"/>
							</g>
							<g>
								<path class="st34" d="M189.9,96.8c0.7,0,1.2-2.2,1.2-3c0-3.9-1.5-7.7-3.8-10.7c-2.8-3.6-6.9-6-11.2-7.1
									c-5.4-1.3-11.9-1.6-17.3-0.3c-2.9,0.7-5.3,2.4-7.5,4.3c-4.2,3.7-7.1,8.9-8.2,14.5c-0.4,1.9-0.5,3.8-0.5,5.8
									c0.2,5.5,2.2,10.7,5.3,15.2c2.7,4,11.7,10.5,15.6,6.7c0.8-0.8-3.8-11-3.6-11.1c2.6-1.3,4-5.4,4-8.3s-0.4-6,0.9-8.6
									c0.1-0.3,0.3-0.6,0.6-0.7c0.8-0.3,1.8,0.2,2.5,0.4c2.6,0.8,5.9,1.2,8.4-0.3c1.1-0.6,1.8-1.8,2.8-2.6
									c1.8-1.4,4.5-1.4,6.5-0.2c1.3,0.7,2.3,1.9,3.1,3.2"/>
							</g>
							<g>
								<g>
									<path class="st31" d="M161.6,111.3c-1.8-0.9-4.2,0.2-4.9,2.1c-0.2,0.7-0.3,1.5-0.2,2.2c0.4,3.2,3.1,6.5,6.2,6.9
										s5.3-1.5,5-4"/>
								</g>
							</g>
							<path class="st13" d="M173.7,107.1c0.4,0.3,0.4,0.9,0,1.3c-0.3,0.4-0.9,0.4-1.3,0c-0.4-0.3-0.4-0.9,0-1.3
								C172.7,106.7,173.3,106.7,173.7,107.1z"/>
							<path class="st13" d="M188,102.3c0.4,0.3,0.4,0.9,0,1.3s-0.9,0.4-1.3,0c-0.4-0.3-0.4-0.9,0-1.3
								C187.1,102,187.7,102,188,102.3z"/>
							<g>
								<g>
									<path class="st35" d="M184.1,106.4c1.4,2.1,2.6,4.3,3.2,6.8c0.3,1,0.7,2.5,0.1,3.5c-0.8,1.4-2.5,0.6-3.7,0.6
										c-0.2,0-0.3,0.3-0.1,0.4c1.1,0.7,2.8,0.8,3.9,0s1-2.3,0.7-3.5c-0.5-3-1.8-5.8-3.9-8C184.3,106.1,184.1,106.3,184.1,106.4
										L184.1,106.4z"/>
								</g>
							</g>
							<g>
								<g>
									<path class="st13" d="M183.1,98.5c-0.1-0.9,0.5-1.8,1.1-2.4c0.3-0.3,0.7-0.5,1.1-0.5c0.2,0,0.4,0,0.6,0.1
										c0.1,0,0.2,0.1,0.3,0.1c0.1,0.1,0.2,0.1,0.3,0.2c0.1,0,0.2-0.1,0.2-0.2c0-0.2-0.4-0.4-0.6-0.5s-0.5-0.1-0.7-0.1
										c-0.5,0-1,0.3-1.3,0.6c-0.4,0.4-0.6,0.8-0.9,1.3c-0.2,0.5-0.4,1-0.3,1.5C183,98.7,183.2,98.7,183.1,98.5L183.1,98.5z"/>
								</g>
							</g>
							<g>
								<g>
									<path class="st13" d="M174.1,101c-0.7-0.6-1.3-1.2-2.2-1.6c-0.6-0.3-1.3-0.4-2-0.3c-0.7,0-1.4,0.2-2,0.5
										c-0.4,0.2-1.2,0.7-1.1,1.2c0,0.1,0.2,0.2,0.3,0.1c0.2-0.2,0.2-0.4,0.4-0.6c0.2-0.2,0.4-0.3,0.7-0.4
										c0.6-0.3,1.2-0.4,1.8-0.4c0.6,0,1.2,0,1.7,0.3c0.8,0.3,1.5,0.9,2.1,1.5C174.1,101.2,174.2,101.1,174.1,101L174.1,101z"/>
								</g>
							</g>
							<g>
								<ellipse class="st36" cx="191" cy="102.9" rx="6.3" ry="6.3"/>
								<path class="st33" d="M179.7,106.5c0.3-1.7,3-3.3,5.1-1.7"/>
								<path class="st33" d="M155.2,111.6c3.3-1.2,6.6-2.4,10-3.4"/>
								<path class="st33" d="M179.9,107.4c0.5,4-2.3,7.6-6.3,8.1s-7.6-2.3-8.1-6.3s2.3-7.6,6.3-8.1S179.4,103.4,179.9,107.4z"/>
							</g>
							<g>
								<path class="st2" d="M187.4,119.6c-1.1,0.7-3.2,0.9-4.6,0.5c-0.2-0.1-0.4,0-0.5,0.2c-0.5,1.6,0.5,4.4,3.1,4.3
									c2.2-0.2,3.6-2.1,2.6-4.8C187.8,119.5,187.6,119.4,187.4,119.6z"/>
							</g>
						</g>
						<g>
							<path class="st25" d="M196.3,159.2c-0.9-6-2-12.4-6.2-16.6c-2.2-2.2-5-3.6-7.9-4.7c-5.2-2-22.7-6.6-28.3-6.9l-1.7,28.1
								L196.3,159.2L196.3,159.2z"/>
						</g>
						<g>
							<g>
								<path class="st20" d="M191.8,144.6c-0.3-2.7-0.6-5.6,0.9-7.8c0.7-1.1,1.8-1.9,2.6-2.9c0.8-1.1,1.4-2.3,1.6-3.6
									c0.1-0.4,0.1-0.9,0.5-1.1c0.4-0.2,0.9,0.1,1.1,0.4c1,1.3,1.1,3.2,0.3,4.7c2.2-0.1,3.6-0.1,5.8-0.2c1.2,0,2.7,0.1,3,1.3
									c0.2,0.6-0.1,1.3-0.5,1.8s-1,0.8-1.6,1.1c0.9,0.3,1.7,1.2,0.9,2.8c0.5,0.3,1.5,1,0.3,2.7c0.8,0.2,1,1.4,0.1,2.2
									c-0.5,0.5-1.2,0.6-1.8,0.7c-0.7,0.1-1.4,0.3-2.2,0.4c-0.6,0.1-1.3,0.1-1.9,0s-1.2-0.5-1.6-1.1c-0.9,0.8-2,1.6-3.1,1.4
									c-0.5-0.1-1-0.3-1.4-0.5c-0.8-0.5-1.6-1.1-2.3-1.8"/>
							</g>
							<g>
								<g>
									<path class="st21" d="M201.7,134.6c-0.7,0.1-1.5,0.3-2.1,0.7c-0.3,0.2-0.6,0.4-0.7,0.7s-0.2,0.6-0.3,0.9
										c-0.1,0.6,0.1,1.3,0.7,1.5c0.7,0.3,1.4,0.3,2.1,0.2c0.5,0,0.9-0.1,1.3-0.1c0.4-0.1,0.9-0.1,1.3-0.3
										c0.1-0.1,0.1-0.2-0.1-0.3c-0.4,0-0.8,0.1-1.2,0.2c-0.4,0.1-0.9,0.1-1.3,0.1s-0.9,0-1.3-0.1c-0.3-0.1-0.7-0.1-0.9-0.4
										c-0.3-0.3-0.2-0.7-0.1-1c0.1-0.4,0.2-0.7,0.5-1c0.3-0.2,0.7-0.4,1-0.6C201,134.9,201.4,134.7,201.7,134.6
										C202,134.8,201.9,134.5,201.7,134.6L201.7,134.6z"/>
								</g>
							</g>
							<g>
								<g>
									<path class="st21" d="M197.9,135.8c0.2,1.4,0.1,2.9-0.5,4.2c-0.2,0.5-0.5,1-0.9,1.4s-0.9,0.7-1.4,1
										c-0.1,0.1-0.1,0.3,0.1,0.3c1.3,0.1,2.3-1.4,2.8-2.4c0.7-1.5,0.8-3.1,0.4-4.6C198.2,135.4,197.8,135.5,197.9,135.8
										L197.9,135.8z"/>
								</g>
							</g>
							<g>
								<g>
									<path class="st21" d="M199.9,138.5c-0.7,0.4-1,1.1-0.9,1.9c0.2,0.8,1,1.3,1.7,1.5c0.9,0.2,1.8,0.2,2.7,0
										c0.5-0.1,0.9-0.2,1.4-0.3c0.4-0.1,0.9-0.2,1.3-0.5c0.1-0.1,0.1-0.4-0.1-0.4c-0.4-0.1-0.7,0.1-1,0.1
										c-0.4,0.1-0.7,0.2-1.1,0.3c-0.7,0.2-1.5,0.3-2.2,0.2c-0.7,0-1.4-0.2-1.9-0.7c-0.2-0.3-0.4-0.6-0.3-1s0.3-0.7,0.6-0.9
										C200.1,138.6,200,138.5,199.9,138.5L199.9,138.5z"/>
								</g>
							</g>
							<g>
								<g>
									<path class="st21" d="M200,141.4c-0.7,0.4-1,1.1-0.9,1.9c0.2,0.8,1,1.3,1.7,1.5c0.9,0.2,1.8,0.2,2.7,0
										c0.5-0.1,0.9-0.2,1.4-0.3c0.4-0.1,0.9-0.2,1.3-0.5c0.1-0.1,0.1-0.4-0.1-0.4c-0.4-0.1-0.7,0.1-1,0.1
										c-0.4,0.1-0.7,0.2-1.1,0.3c-0.7,0.2-1.5,0.3-2.2,0.2c-0.7,0-1.4-0.2-1.9-0.7c-0.2-0.3-0.4-0.6-0.3-1s0.3-0.7,0.6-0.9
										C200.3,141.5,200.1,141.4,200,141.4L200,141.4z"/>
								</g>
							</g>
						</g>
					</g>
				</g>
			</g>
		</g>
	</g>
	<g>
		<g>
			<path class="st37" d="M404.5,42.5h-36l4.3-4.4V20.4c0-3.8,3.1-6.9,6.9-6.9h24.8c3.8,0,6.9,3.1,6.9,6.9v15.2
				C411.4,39.4,408.4,42.5,404.5,42.5z"/>
			<g>
				<path class="st38" d="M387,28c0,1.2-1,2.2-2.2,2.2s-2.2-1-2.2-2.2s1-2.2,2.2-2.2S387,26.8,387,28z"/>
				<path class="st38" d="M394.9,28c0,1.2-1,2.2-2.2,2.2s-2.2-1-2.2-2.2s1-2.2,2.2-2.2S394.9,26.8,394.9,28z"/>
				<path class="st38" d="M402.7,28c0,1.2-1,2.2-2.2,2.2s-2.2-1-2.2-2.2s1-2.2,2.2-2.2S402.7,26.8,402.7,28z"/>
			</g>
		</g>
		<g>
			<path class="st37" d="M100.2,134h32.1l-3.6-3.8v-16c0-3.4-2.8-6.2-6.2-6.2h-22.3c-3.4,0-6.2,2.8-6.2,6.2v13.7
				C94.1,131.3,96.8,134,100.2,134z"/>
			<g>
				<path class="st38" d="M116,122.1c0,1.1,0.9,2,2,2s2-0.9,2-2s-0.9-2-2-2S116,121,116,122.1z"/>
				<path class="st38" d="M108.9,122.1c0,1.1,0.9,2,2,2s2-0.9,2-2s-0.9-2-2-2S108.9,121,108.9,122.1z"/>
				<path class="st38" d="M101.9,122.1c0,1.1,0.9,2,2,2s2-0.9,2-2s-0.9-2-2-2S101.9,121,101.9,122.1z"/>
			</g>
		</g>
		<g>
			<path class="st39" d="M510.9,289.6H484l3,3.2v13.4c0,2.9,2.3,5.2,5.2,5.2h18.7c2.9,0,5.2-2.3,5.2-5.2v-11.5
				C516.1,291.9,513.8,289.6,510.9,289.6z"/>
			<g>
				<path class="st2" d="M497.7,299.6c0-0.9-0.7-1.6-1.6-1.6s-1.6,0.7-1.6,1.6s0.7,1.6,1.6,1.6C497,301.2,497.7,300.5,497.7,299.6z"
					/>
				<path class="st2" d="M503.6,299.6c0-0.9-0.7-1.6-1.6-1.6s-1.6,0.7-1.6,1.6s0.7,1.6,1.6,1.6C502.9,301.2,503.6,300.5,503.6,299.6
					z"/>
				<path class="st2" d="M509.5,299.6c0-0.9-0.7-1.6-1.6-1.6s-1.6,0.7-1.6,1.6s0.7,1.6,1.6,1.6C508.8,301.2,509.5,300.5,509.5,299.6
					z"/>
			</g>
		</g>
	</g>
	<g>
		<g>
			<g class="st40">
				<path d="M259.1,361.8h-3.8l-9.8-15.5v15.5h-3.8v-21.9h3.8l9.8,15.6v-15.6h3.8V361.8z"/>
				<path d="M262.6,353.5c0-1.6,0.3-3,0.9-4.3c0.6-1.3,1.5-2.3,2.7-3c1.1-0.7,2.5-1,3.9-1c2.2,0,4,0.7,5.4,2.1
					c1.4,1.4,2.1,3.3,2.2,5.6l0,0.9c0,1.6-0.3,3-0.9,4.3c-0.6,1.3-1.5,2.2-2.6,2.9s-2.5,1-4,1c-2.3,0-4.1-0.8-5.5-2.3
					s-2.1-3.6-2.1-6.1V353.5z M266.2,353.8c0,1.7,0.3,3,1,3.9s1.7,1.4,2.9,1.4c1.2,0,2.2-0.5,2.9-1.4c0.7-1,1-2.4,1-4.2
					c0-1.6-0.4-2.9-1.1-3.9c-0.7-1-1.7-1.4-2.9-1.4c-1.2,0-2.1,0.5-2.8,1.4C266.6,350.5,266.2,351.9,266.2,353.8z"/>
				<path d="M289.9,357.4c0-0.7-0.3-1.1-0.8-1.5c-0.5-0.3-1.4-0.6-2.7-0.9s-2.3-0.6-3.1-1c-1.8-0.9-2.7-2.2-2.7-3.8
					c0-1.4,0.6-2.6,1.8-3.5c1.2-0.9,2.7-1.4,4.5-1.4c1.9,0,3.5,0.5,4.7,1.4c1.2,1,1.8,2.2,1.8,3.7h-3.7c0-0.7-0.3-1.3-0.8-1.8
					c-0.5-0.5-1.2-0.7-2.1-0.7c-0.8,0-1.5,0.2-2,0.6c-0.5,0.4-0.8,0.9-0.8,1.5c0,0.6,0.2,1,0.7,1.3c0.5,0.3,1.4,0.6,2.9,0.9
					c1.4,0.3,2.6,0.7,3.4,1.1s1.4,1,1.8,1.6c0.4,0.6,0.6,1.4,0.6,2.2c0,1.5-0.6,2.7-1.8,3.6c-1.2,0.9-2.8,1.4-4.8,1.4
					c-1.3,0-2.5-0.2-3.6-0.7c-1-0.5-1.9-1.1-2.4-2s-0.9-1.8-0.9-2.7h3.6c0.1,0.9,0.4,1.5,1,2c0.6,0.5,1.4,0.7,2.4,0.7
					c1,0,1.7-0.2,2.2-0.5C289.7,358.4,289.9,358,289.9,357.4z"/>
				<path d="M310.1,357.2l3.4-11.6h3.8l-5.6,16.3h-3.2l-5.7-16.3h3.8L310.1,357.2z"/>
				<path d="M326.6,362.1c-2.3,0-4.2-0.7-5.6-2.2s-2.2-3.4-2.2-5.8v-0.5c0-1.6,0.3-3.1,0.9-4.4c0.6-1.3,1.5-2.3,2.6-3
					c1.1-0.7,2.4-1.1,3.8-1.1c2.2,0,3.9,0.7,5.1,2.1c1.2,1.4,1.8,3.4,1.8,6v1.5h-10.6c0.1,1.3,0.6,2.4,1.3,3.2
					c0.8,0.8,1.8,1.2,3,1.2c1.7,0,3-0.7,4.1-2l2,1.9c-0.7,1-1.5,1.7-2.6,2.3C329.2,361.8,327.9,362.1,326.6,362.1z M326.2,348.1
					c-1,0-1.8,0.4-2.4,1.1s-1,1.7-1.2,2.9h7v-0.3c-0.1-1.2-0.4-2.1-1-2.8C328,348.4,327.2,348.1,326.2,348.1z"/>
				<path d="M339.4,345.5l0.1,1.7c1.1-1.3,2.7-2,4.7-2c2.2,0,3.7,0.8,4.5,2.5c1.2-1.7,2.8-2.5,5-2.5c1.8,0,3.1,0.5,4,1.5
					s1.3,2.5,1.3,4.4v10.7h-3.7v-10.6c0-1-0.2-1.8-0.7-2.3s-1.2-0.7-2.2-0.7c-0.8,0-1.5,0.2-2,0.7c-0.5,0.4-0.9,1-1.1,1.8l0,11.2
					h-3.7v-10.7c0-1.9-1-2.9-2.9-2.9c-1.5,0-2.5,0.6-3.1,1.8v11.8H336v-16.3H339.4z"/>
				<path d="M362.1,353.5c0-1.6,0.3-3,0.9-4.3s1.5-2.3,2.7-3c1.1-0.7,2.5-1,3.9-1c2.2,0,4,0.7,5.4,2.1c1.4,1.4,2.1,3.3,2.2,5.6
					l0,0.9c0,1.6-0.3,3-0.9,4.3c-0.6,1.3-1.5,2.2-2.6,2.9c-1.1,0.7-2.5,1-4,1c-2.3,0-4.1-0.8-5.5-2.3c-1.4-1.5-2.1-3.6-2.1-6.1
					V353.5z M365.8,353.8c0,1.7,0.3,3,1,3.9s1.7,1.4,2.9,1.4c1.2,0,2.2-0.5,2.9-1.4s1-2.4,1-4.2c0-1.6-0.4-2.9-1.1-3.9
					c-0.7-1-1.7-1.4-2.9-1.4c-1.2,0-2.1,0.5-2.8,1.4S365.8,351.9,365.8,353.8z"/>
				<path d="M389.5,357.4c0-0.7-0.3-1.1-0.8-1.5c-0.5-0.3-1.4-0.6-2.7-0.9s-2.3-0.6-3.1-1c-1.8-0.9-2.7-2.2-2.7-3.8
					c0-1.4,0.6-2.6,1.8-3.5c1.2-0.9,2.7-1.4,4.5-1.4c1.9,0,3.5,0.5,4.7,1.4s1.8,2.2,1.8,3.7h-3.7c0-0.7-0.3-1.3-0.8-1.8
					s-1.2-0.7-2.1-0.7c-0.8,0-1.5,0.2-2,0.6s-0.8,0.9-0.8,1.5c0,0.6,0.2,1,0.7,1.3c0.5,0.3,1.4,0.6,2.9,0.9c1.4,0.3,2.6,0.7,3.4,1.1
					c0.8,0.4,1.4,1,1.8,1.6s0.6,1.4,0.6,2.2c0,1.5-0.6,2.7-1.8,3.6c-1.2,0.9-2.8,1.4-4.8,1.4c-1.3,0-2.5-0.2-3.6-0.7
					c-1-0.5-1.9-1.1-2.4-2s-0.9-1.8-0.9-2.7h3.6c0,0.9,0.4,1.5,1,2c0.6,0.5,1.4,0.7,2.4,0.7c1,0,1.7-0.2,2.2-0.5
					S389.5,358,389.5,357.4z"/>
			</g>
			<g class="st40">
				<path d="M40.9,386h-9v6.7h10.5v3H28.1v-21.9h14.2v3.1H31.9v6h9V386z"/>
				<path d="M48.6,379.5l0.1,1.9c1.2-1.5,2.8-2.2,4.7-2.2c3.4,0,5.1,1.9,5.2,5.8v10.8h-3.7v-10.5c0-1-0.2-1.8-0.7-2.3
					c-0.4-0.5-1.2-0.7-2.2-0.7c-1.5,0-2.6,0.7-3.3,2v11.6h-3.7v-16.3H48.6z"/>
				<path d="M69,393.2c0.9,0,1.7-0.3,2.3-0.8c0.6-0.5,0.9-1.2,1-2h3.4c0,1-0.4,2-0.9,2.8c-0.6,0.9-1.4,1.6-2.4,2.1
					c-1,0.5-2.1,0.8-3.3,0.8c-2.3,0-4.1-0.7-5.4-2.2c-1.3-1.5-2-3.5-2-6.1v-0.4c0-2.5,0.7-4.5,2-6c1.3-1.5,3.1-2.2,5.4-2.2
					c1.9,0,3.5,0.6,4.7,1.7c1.2,1.1,1.9,2.6,1.9,4.4h-3.4c0-0.9-0.4-1.7-1-2.3c-0.6-0.6-1.4-0.9-2.3-0.9c-1.2,0-2.1,0.4-2.7,1.3
					c-0.6,0.9-1,2.2-1,3.9v0.6c0,1.8,0.3,3.1,1,4C66.9,392.7,67.8,393.2,69,393.2z"/>
				<path d="M88.3,394.2c-1.1,1.3-2.6,1.9-4.6,1.9c-1.8,0-3.1-0.5-4-1.5s-1.4-2.5-1.4-4.5v-10.5H82V390c0,2.1,0.9,3.1,2.6,3.1
					c1.8,0,3-0.6,3.6-1.9v-11.7h3.7v16.3h-3.4L88.3,394.2z"/>
				<path d="M102.8,396.1c-2.3,0-4.2-0.7-5.6-2.2c-1.4-1.5-2.2-3.4-2.2-5.8v-0.5c0-1.6,0.3-3.1,0.9-4.4c0.6-1.3,1.5-2.3,2.6-3
					c1.1-0.7,2.4-1.1,3.8-1.1c2.2,0,3.9,0.7,5.1,2.1c1.2,1.4,1.8,3.4,1.8,6v1.5H98.6c0.1,1.3,0.6,2.4,1.3,3.2c0.8,0.8,1.8,1.2,3,1.2
					c1.7,0,3-0.7,4.1-2l2,1.9c-0.7,1-1.5,1.7-2.6,2.3C105.3,395.8,104.1,396.1,102.8,396.1z M102.3,382.1c-1,0-1.8,0.4-2.4,1.1
					s-1,1.7-1.2,2.9h7v-0.3c-0.1-1.2-0.4-2.1-1-2.8C104.1,382.4,103.3,382.1,102.3,382.1z"/>
				<path d="M115.5,379.5l0.1,1.9c1.2-1.5,2.8-2.2,4.7-2.2c3.4,0,5.1,1.9,5.2,5.8v10.8h-3.7v-10.5c0-1-0.2-1.8-0.7-2.3
					c-0.4-0.5-1.2-0.7-2.2-0.7c-1.5,0-2.6,0.7-3.3,2v11.6h-3.7v-16.3H115.5z"/>
				<path d="M133.9,375.5v4h2.9v2.7h-2.9v9.1c0,0.6,0.1,1.1,0.4,1.3c0.2,0.3,0.7,0.4,1.3,0.4c0.4,0,0.8-0.1,1.3-0.2v2.8
					c-0.8,0.2-1.6,0.3-2.4,0.3c-2.8,0-4.2-1.5-4.2-4.7v-9.2h-2.7v-2.7h2.7v-4H133.9z"/>
				<path d="M148,382.8c-0.5-0.1-1-0.1-1.5-0.1c-1.7,0-2.8,0.6-3.4,1.9v11.1h-3.7v-16.3h3.5l0.1,1.8c0.9-1.4,2.1-2.1,3.7-2.1
					c0.5,0,1,0.1,1.3,0.2L148,382.8z"/>
				<path d="M149.1,387.5c0-1.6,0.3-3,0.9-4.3c0.6-1.3,1.5-2.3,2.7-3c1.1-0.7,2.5-1,3.9-1c2.2,0,4,0.7,5.4,2.1
					c1.4,1.4,2.1,3.3,2.2,5.6l0,0.9c0,1.6-0.3,3-0.9,4.3c-0.6,1.3-1.5,2.2-2.6,2.9s-2.5,1-4,1c-2.3,0-4.1-0.8-5.5-2.3
					s-2.1-3.6-2.1-6.1V387.5z M152.8,387.8c0,1.7,0.3,3,1,3.9s1.7,1.4,2.9,1.4c1.2,0,2.2-0.5,2.9-1.4c0.7-1,1-2.4,1-4.2
					c0-1.6-0.4-2.9-1.1-3.9c-0.7-1-1.7-1.4-2.9-1.4c-1.2,0-2.1,0.5-2.8,1.4C153.1,384.5,152.8,385.9,152.8,387.8z"/>
				<path d="M181.7,393.2c0.9,0,1.7-0.3,2.3-0.8c0.6-0.5,0.9-1.2,1-2h3.4c0,1-0.4,2-0.9,2.8c-0.6,0.9-1.4,1.6-2.4,2.1
					c-1,0.5-2.1,0.8-3.3,0.8c-2.3,0-4.1-0.7-5.4-2.2c-1.3-1.5-2-3.5-2-6.1v-0.4c0-2.5,0.7-4.5,2-6c1.3-1.5,3.1-2.2,5.4-2.2
					c1.9,0,3.5,0.6,4.7,1.7c1.2,1.1,1.9,2.6,1.9,4.4H185c0-0.9-0.4-1.7-1-2.3c-0.6-0.6-1.4-0.9-2.3-0.9c-1.2,0-2.1,0.4-2.7,1.3
					c-0.6,0.9-1,2.2-1,3.9v0.6c0,1.8,0.3,3.1,1,4C179.6,392.7,180.5,393.2,181.7,393.2z"/>
				<path d="M190.5,387.5c0-1.6,0.3-3,0.9-4.3c0.6-1.3,1.5-2.3,2.7-3c1.1-0.7,2.5-1,3.9-1c2.2,0,4,0.7,5.4,2.1
					c1.4,1.4,2.1,3.3,2.2,5.6l0,0.9c0,1.6-0.3,3-0.9,4.3c-0.6,1.3-1.5,2.2-2.6,2.9s-2.5,1-4,1c-2.3,0-4.1-0.8-5.5-2.3
					s-2.1-3.6-2.1-6.1V387.5z M194.1,387.8c0,1.7,0.3,3,1,3.9s1.7,1.4,2.9,1.4c1.2,0,2.2-0.5,2.9-1.4c0.7-1,1-2.4,1-4.2
					c0-1.6-0.4-2.9-1.1-3.9c-0.7-1-1.7-1.4-2.9-1.4c-1.2,0-2.1,0.5-2.8,1.4C194.5,384.5,194.1,385.9,194.1,387.8z"/>
				<path d="M212.1,379.5l0.1,1.9c1.2-1.5,2.8-2.2,4.7-2.2c3.4,0,5.1,1.9,5.2,5.8v10.8h-3.7v-10.5c0-1-0.2-1.8-0.7-2.3
					c-0.4-0.5-1.2-0.7-2.2-0.7c-1.5,0-2.6,0.7-3.3,2v11.6h-3.7v-16.3H212.1z"/>
				<path d="M247.8,387.8c0,2.5-0.6,4.5-1.7,6c-1.1,1.5-2.7,2.2-4.6,2.2c-1.8,0-3.2-0.6-4.3-1.8v7.7h-3.7v-22.5h3.4l0.2,1.7
					c1.1-1.3,2.5-2,4.4-2c2,0,3.5,0.7,4.7,2.2c1.1,1.5,1.7,3.5,1.7,6.2V387.8z M244.2,387.5c0-1.6-0.3-2.9-1-3.9s-1.6-1.4-2.8-1.4
					c-1.5,0-2.6,0.6-3.2,1.9v7.2c0.7,1.3,1.7,1.9,3.3,1.9c1.2,0,2.1-0.5,2.7-1.4C243.8,390.8,244.2,389.4,244.2,387.5z"/>
				<path d="M259.4,382.8c-0.5-0.1-1-0.1-1.5-0.1c-1.7,0-2.8,0.6-3.4,1.9v11.1h-3.7v-16.3h3.5l0.1,1.8c0.9-1.4,2.1-2.1,3.7-2.1
					c0.5,0,1,0.1,1.3,0.2L259.4,382.8z"/>
				<path d="M260.5,387.5c0-1.6,0.3-3,0.9-4.3c0.6-1.3,1.5-2.3,2.7-3c1.1-0.7,2.5-1,3.9-1c2.2,0,4,0.7,5.4,2.1
					c1.4,1.4,2.1,3.3,2.2,5.6l0,0.9c0,1.6-0.3,3-0.9,4.3c-0.6,1.3-1.5,2.2-2.6,2.9s-2.5,1-4,1c-2.3,0-4.1-0.8-5.5-2.3
					s-2.1-3.6-2.1-6.1V387.5z M264.2,387.8c0,1.7,0.3,3,1,3.9s1.7,1.4,2.9,1.4c1.2,0,2.2-0.5,2.9-1.4c0.7-1,1-2.4,1-4.2
					c0-1.6-0.4-2.9-1.1-3.9c-0.7-1-1.7-1.4-2.9-1.4c-1.2,0-2.1,0.5-2.8,1.4C264.5,384.5,264.2,385.9,264.2,387.8z"/>
				<path d="M280,395.8v-13.6h-2.5v-2.7h2.5V378c0-1.8,0.5-3.2,1.5-4.2s2.4-1.5,4.2-1.5c0.6,0,1.3,0.1,2,0.3l-0.1,2.9
					c-0.4-0.1-0.9-0.1-1.4-0.1c-1.7,0-2.6,0.9-2.6,2.7v1.4h3.3v2.7h-3.3v13.6H280z"/>
				<path d="M296.5,396.1c-2.3,0-4.2-0.7-5.6-2.2c-1.4-1.5-2.2-3.4-2.2-5.8v-0.5c0-1.6,0.3-3.1,0.9-4.4c0.6-1.3,1.5-2.3,2.6-3
					c1.1-0.7,2.4-1.1,3.8-1.1c2.2,0,3.9,0.7,5.1,2.1c1.2,1.4,1.8,3.4,1.8,6v1.5h-10.6c0.1,1.3,0.6,2.4,1.3,3.2
					c0.8,0.8,1.8,1.2,3,1.2c1.7,0,3-0.7,4.1-2l2,1.9c-0.7,1-1.5,1.7-2.6,2.3C299,395.8,297.8,396.1,296.5,396.1z M296,382.1
					c-1,0-1.8,0.4-2.4,1.1s-1,1.7-1.2,2.9h7v-0.3c-0.1-1.2-0.4-2.1-1-2.8C297.8,382.4,297,382.1,296,382.1z"/>
				<path d="M315,391.4c0-0.7-0.3-1.1-0.8-1.5c-0.5-0.3-1.4-0.6-2.7-0.9s-2.3-0.6-3.1-1c-1.8-0.9-2.7-2.2-2.7-3.8
					c0-1.4,0.6-2.6,1.8-3.5c1.2-0.9,2.7-1.4,4.5-1.4c1.9,0,3.5,0.5,4.7,1.4c1.2,1,1.8,2.2,1.8,3.7h-3.7c0-0.7-0.3-1.3-0.8-1.8
					c-0.5-0.5-1.2-0.7-2.1-0.7c-0.8,0-1.5,0.2-2,0.6c-0.5,0.4-0.8,0.9-0.8,1.5c0,0.6,0.2,1,0.7,1.3c0.5,0.3,1.4,0.6,2.9,0.9
					c1.4,0.3,2.6,0.7,3.4,1.1s1.4,1,1.8,1.6c0.4,0.6,0.6,1.4,0.6,2.2c0,1.5-0.6,2.7-1.8,3.6c-1.2,0.9-2.8,1.4-4.8,1.4
					c-1.3,0-2.5-0.2-3.6-0.7c-1-0.5-1.9-1.1-2.4-2s-0.9-1.8-0.9-2.7h3.6c0.1,0.9,0.4,1.5,1,2c0.6,0.5,1.4,0.7,2.4,0.7
					c1,0,1.7-0.2,2.2-0.5C314.7,392.4,315,392,315,391.4z"/>
				<path d="M321.1,387.5c0-1.6,0.3-3,0.9-4.3s1.5-2.3,2.7-3c1.1-0.7,2.5-1,3.9-1c2.2,0,4,0.7,5.4,2.1c1.4,1.4,2.1,3.3,2.2,5.6
					l0,0.9c0,1.6-0.3,3-0.9,4.3c-0.6,1.3-1.5,2.2-2.6,2.9c-1.1,0.7-2.5,1-4,1c-2.3,0-4.1-0.8-5.5-2.3c-1.4-1.5-2.1-3.6-2.1-6.1
					V387.5z M324.7,387.8c0,1.7,0.3,3,1,3.9s1.7,1.4,2.9,1.4c1.2,0,2.2-0.5,2.9-1.4s1-2.4,1-4.2c0-1.6-0.4-2.9-1.1-3.9
					c-0.7-1-1.7-1.4-2.9-1.4c-1.2,0-2.1,0.5-2.8,1.4S324.7,385.9,324.7,387.8z"/>
				<path d="M347.8,382.8c-0.5-0.1-1-0.1-1.5-0.1c-1.7,0-2.8,0.6-3.4,1.9v11.1h-3.7v-16.3h3.5l0.1,1.8c0.9-1.4,2.1-2.1,3.7-2.1
					c0.5,0,1,0.1,1.3,0.2L347.8,382.8z"/>
				<path d="M359.4,395.8c-0.2-0.3-0.3-0.8-0.4-1.5c-1.2,1.2-2.6,1.8-4.3,1.8c-1.6,0-3-0.5-4-1.4c-1-0.9-1.5-2.1-1.5-3.5
					c0-1.7,0.6-3.1,1.9-4c1.3-0.9,3.1-1.4,5.5-1.4h2.2v-1.1c0-0.8-0.2-1.5-0.7-2S357,382,356,382c-0.8,0-1.5,0.2-2,0.6
					c-0.5,0.4-0.8,0.9-0.8,1.6h-3.7c0-0.9,0.3-1.7,0.9-2.5c0.6-0.8,1.4-1.4,2.4-1.8s2.2-0.7,3.4-0.7c1.9,0,3.4,0.5,4.6,1.4
					c1.1,1,1.7,2.3,1.7,4v7.3c0,1.5,0.2,2.6,0.6,3.5v0.3H359.4z M355.4,393.2c0.7,0,1.4-0.2,2-0.5c0.6-0.4,1.1-0.8,1.4-1.4v-3.1h-2
					c-1.4,0-2.4,0.2-3.1,0.7c-0.7,0.5-1,1.1-1,2c0,0.7,0.2,1.3,0.7,1.7C354,392.9,354.6,393.2,355.4,393.2z"/>
				<path d="M375.5,391.4c0-0.7-0.3-1.1-0.8-1.5c-0.5-0.3-1.4-0.6-2.7-0.9s-2.3-0.6-3.1-1c-1.8-0.9-2.7-2.2-2.7-3.8
					c0-1.4,0.6-2.6,1.8-3.5c1.2-0.9,2.7-1.4,4.5-1.4c1.9,0,3.5,0.5,4.7,1.4s1.8,2.2,1.8,3.7h-3.7c0-0.7-0.3-1.3-0.8-1.8
					s-1.2-0.7-2.1-0.7c-0.8,0-1.5,0.2-2,0.6s-0.8,0.9-0.8,1.5c0,0.6,0.2,1,0.7,1.3c0.5,0.3,1.4,0.6,2.9,0.9c1.4,0.3,2.6,0.7,3.4,1.1
					c0.8,0.4,1.4,1,1.8,1.6s0.6,1.4,0.6,2.2c0,1.5-0.6,2.7-1.8,3.6c-1.2,0.9-2.8,1.4-4.8,1.4c-1.3,0-2.5-0.2-3.6-0.7
					c-1-0.5-1.9-1.1-2.4-2s-0.9-1.8-0.9-2.7h3.6c0,0.9,0.4,1.5,1,2c0.6,0.5,1.4,0.7,2.4,0.7c1,0,1.7-0.2,2.2-0.5
					S375.5,392,375.5,391.4z"/>
				<path d="M383.3,397.7h-2.9l8.6-23.8h2.9L383.3,397.7z"/>
				<path d="M401.6,396.1c-2.3,0-4.2-0.7-5.6-2.2c-1.4-1.5-2.2-3.4-2.2-5.8v-0.5c0-1.6,0.3-3.1,0.9-4.4s1.5-2.3,2.6-3
					c1.1-0.7,2.4-1.1,3.8-1.1c2.2,0,3.9,0.7,5.1,2.1c1.2,1.4,1.8,3.4,1.8,6v1.5h-10.6c0.1,1.3,0.6,2.4,1.3,3.2
					c0.8,0.8,1.8,1.2,3,1.2c1.7,0,3-0.7,4.1-2l2,1.9c-0.7,1-1.5,1.7-2.6,2.3C404.2,395.8,403,396.1,401.6,396.1z M401.2,382.1
					c-1,0-1.8,0.4-2.4,1.1s-1,1.7-1.2,2.9h7v-0.3c-0.1-1.2-0.4-2.1-1-2.8S402.2,382.1,401.2,382.1z"/>
				<path d="M420.1,391.4c0-0.7-0.3-1.1-0.8-1.5c-0.5-0.3-1.4-0.6-2.7-0.9s-2.3-0.6-3.1-1c-1.8-0.9-2.7-2.2-2.7-3.8
					c0-1.4,0.6-2.6,1.8-3.5c1.2-0.9,2.7-1.4,4.5-1.4c1.9,0,3.5,0.5,4.7,1.4s1.8,2.2,1.8,3.7h-3.7c0-0.7-0.3-1.3-0.8-1.8
					s-1.2-0.7-2.1-0.7c-0.8,0-1.5,0.2-2,0.6s-0.8,0.9-0.8,1.5c0,0.6,0.2,1,0.7,1.3c0.5,0.3,1.4,0.6,2.9,0.9c1.4,0.3,2.6,0.7,3.4,1.1
					c0.8,0.4,1.4,1,1.8,1.6s0.6,1.4,0.6,2.2c0,1.5-0.6,2.7-1.8,3.6c-1.2,0.9-2.8,1.4-4.8,1.4c-1.3,0-2.5-0.2-3.6-0.7
					c-1-0.5-1.9-1.1-2.4-2s-0.9-1.8-0.9-2.7h3.6c0,0.9,0.4,1.5,1,2c0.6,0.5,1.4,0.7,2.4,0.7c1,0,1.7-0.2,2.2-0.5
					S420.1,392,420.1,391.4z"/>
				<path d="M440.3,390.5l3.3-11h3.9l-6.5,18.8c-1,2.7-2.7,4.1-5.1,4.1c-0.5,0-1.1-0.1-1.8-0.3v-2.8l0.7,0c0.9,0,1.6-0.2,2.1-0.5
					s0.8-0.9,1.1-1.7l0.5-1.4l-5.7-16.2h3.9L440.3,390.5z"/>
				<path d="M461.8,375.5v4h2.9v2.7h-2.9v9.1c0,0.6,0.1,1.1,0.4,1.3c0.2,0.3,0.7,0.4,1.3,0.4c0.4,0,0.8-0.1,1.3-0.2v2.8
					c-0.8,0.2-1.6,0.3-2.4,0.3c-2.8,0-4.2-1.5-4.2-4.7v-9.2h-2.7v-2.7h2.7v-4H461.8z"/>
				<path d="M477.4,394.2c-1.1,1.3-2.6,1.9-4.6,1.9c-1.8,0-3.1-0.5-4-1.5s-1.4-2.5-1.4-4.5v-10.5h3.7V390c0,2.1,0.9,3.1,2.6,3.1
					c1.8,0,3-0.6,3.6-1.9v-11.7h3.7v16.3h-3.4L477.4,394.2z"/>
				<path d="M489.2,375.5v4h2.9v2.7h-2.9v9.1c0,0.6,0.1,1.1,0.4,1.3c0.2,0.3,0.7,0.4,1.3,0.4c0.4,0,0.8-0.1,1.3-0.2v2.8
					c-0.8,0.2-1.6,0.3-2.4,0.3c-2.8,0-4.2-1.5-4.2-4.7v-9.2h-2.7v-2.7h2.7v-4H489.2z"/>
				<path d="M493.7,387.5c0-1.6,0.3-3,0.9-4.3s1.5-2.3,2.7-3c1.1-0.7,2.5-1,3.9-1c2.2,0,4,0.7,5.4,2.1c1.4,1.4,2.1,3.3,2.2,5.6
					l0,0.9c0,1.6-0.3,3-0.9,4.3c-0.6,1.3-1.5,2.2-2.6,2.9s-2.5,1-4,1c-2.3,0-4.1-0.8-5.5-2.3c-1.4-1.5-2.1-3.6-2.1-6.1V387.5z
					 M497.4,387.8c0,1.7,0.3,3,1,3.9s1.7,1.4,2.9,1.4c1.2,0,2.2-0.5,2.9-1.4s1-2.4,1-4.2c0-1.6-0.4-2.9-1.1-3.9
					c-0.7-1-1.7-1.4-2.9-1.4c-1.2,0-2.1,0.5-2.8,1.4S497.4,385.9,497.4,387.8z"/>
				<path d="M520.5,382.8c-0.5-0.1-1-0.1-1.5-0.1c-1.7,0-2.8,0.6-3.4,1.9v11.1H512v-16.3h3.5l0.1,1.8c0.9-1.4,2.1-2.1,3.7-2.1
					c0.5,0,1,0.1,1.3,0.2L520.5,382.8z"/>
				<path d="M532.1,395.8c-0.2-0.3-0.3-0.8-0.4-1.5c-1.2,1.2-2.6,1.8-4.3,1.8c-1.6,0-3-0.5-4-1.4c-1-0.9-1.5-2.1-1.5-3.5
					c0-1.7,0.6-3.1,1.9-4c1.3-0.9,3.1-1.4,5.5-1.4h2.2v-1.1c0-0.8-0.2-1.5-0.7-2s-1.2-0.8-2.2-0.8c-0.8,0-1.5,0.2-2,0.6
					c-0.5,0.4-0.8,0.9-0.8,1.6h-3.7c0-0.9,0.3-1.7,0.9-2.5c0.6-0.8,1.4-1.4,2.4-1.8s2.2-0.7,3.4-0.7c1.9,0,3.4,0.5,4.6,1.4
					c1.1,1,1.7,2.3,1.7,4v7.3c0,1.5,0.2,2.6,0.6,3.5v0.3H532.1z M528.1,393.2c0.7,0,1.4-0.2,2-0.5c0.6-0.4,1.1-0.8,1.4-1.4v-3.1h-2
					c-1.4,0-2.4,0.2-3.1,0.7c-0.7,0.5-1,1.1-1,2c0,0.7,0.2,1.3,0.7,1.7C526.7,392.9,527.3,393.2,528.1,393.2z"/>
				<path d="M548.2,391.4c0-0.7-0.3-1.1-0.8-1.5c-0.5-0.3-1.4-0.6-2.7-0.9s-2.3-0.6-3.1-1c-1.8-0.9-2.7-2.2-2.7-3.8
					c0-1.4,0.6-2.6,1.8-3.5c1.2-0.9,2.7-1.4,4.5-1.4c1.9,0,3.5,0.5,4.7,1.4s1.8,2.2,1.8,3.7H548c0-0.7-0.3-1.3-0.8-1.8
					c-0.5-0.5-1.2-0.7-2.1-0.7c-0.8,0-1.5,0.2-2,0.6c-0.5,0.4-0.8,0.9-0.8,1.5c0,0.6,0.2,1,0.7,1.3c0.5,0.3,1.4,0.6,2.9,0.9
					c1.4,0.3,2.6,0.7,3.4,1.1c0.8,0.4,1.4,1,1.8,1.6s0.6,1.4,0.6,2.2c0,1.5-0.6,2.7-1.8,3.6c-1.2,0.9-2.8,1.4-4.8,1.4
					c-1.3,0-2.5-0.2-3.6-0.7c-1-0.5-1.9-1.1-2.4-2c-0.6-0.8-0.9-1.8-0.9-2.7h3.6c0,0.9,0.4,1.5,1,2c0.6,0.5,1.4,0.7,2.4,0.7
					c1,0,1.7-0.2,2.2-0.5S548.2,392,548.2,391.4z"/>
				<path d="M556,397.7h-2.9l8.6-23.8h2.9L556,397.7z"/>
				<path d="M574.3,396.1c-2.3,0-4.2-0.7-5.6-2.2c-1.4-1.5-2.2-3.4-2.2-5.8v-0.5c0-1.6,0.3-3.1,0.9-4.4s1.5-2.3,2.6-3
					c1.1-0.7,2.4-1.1,3.8-1.1c2.2,0,3.9,0.7,5.1,2.1c1.2,1.4,1.8,3.4,1.8,6v1.5h-10.6c0.1,1.3,0.6,2.4,1.3,3.2
					c0.8,0.8,1.8,1.2,3,1.2c1.7,0,3-0.7,4.1-2l2,1.9c-0.7,1-1.5,1.7-2.6,2.3C576.9,395.8,575.7,396.1,574.3,396.1z M573.9,382.1
					c-1,0-1.8,0.4-2.4,1.1c-0.6,0.7-1,1.7-1.2,2.9h7v-0.3c-0.1-1.2-0.4-2.1-1-2.8C575.7,382.4,574.9,382.1,573.9,382.1z"/>
				<path d="M592.8,391.4c0-0.7-0.3-1.1-0.8-1.5c-0.5-0.3-1.4-0.6-2.7-0.9s-2.3-0.6-3.1-1c-1.8-0.9-2.7-2.2-2.7-3.8
					c0-1.4,0.6-2.6,1.8-3.5c1.2-0.9,2.7-1.4,4.5-1.4c1.9,0,3.5,0.5,4.7,1.4s1.8,2.2,1.8,3.7h-3.7c0-0.7-0.3-1.3-0.8-1.8
					c-0.5-0.5-1.2-0.7-2.1-0.7c-0.8,0-1.5,0.2-2,0.6c-0.5,0.4-0.8,0.9-0.8,1.5c0,0.6,0.2,1,0.7,1.3c0.5,0.3,1.4,0.6,2.9,0.9
					c1.4,0.3,2.6,0.7,3.4,1.1c0.8,0.4,1.4,1,1.8,1.6s0.6,1.4,0.6,2.2c0,1.5-0.6,2.7-1.8,3.6c-1.2,0.9-2.8,1.4-4.8,1.4
					c-1.3,0-2.5-0.2-3.6-0.7c-1-0.5-1.9-1.1-2.4-2c-0.6-0.8-0.9-1.8-0.9-2.7h3.6c0,0.9,0.4,1.5,1,2c0.6,0.5,1.4,0.7,2.4,0.7
					c1,0,1.7-0.2,2.2-0.5S592.8,392,592.8,391.4z"/>
			</g>
		</g>
	</g>
	<g>
		<g>
			<rect x="404.6" y="74" class="st41" width="84.3" height="84.3"/>
			<g>
				<path class="st2" d="M451.3,88.2c-0.9-0.1-1.8-0.2-2.7-0.2c-0.3,0-0.5,0-0.8,0h-1c-0.6,0-1.1,0-1.7,0s-1.2,0.1-1.8,0.1
					c-3.1,0.2-6.2,0.7-9.3,1.6c-0.1,0-0.2,0.1-0.3,0.1c0.1,0.1,0.2,0.1,0.3,0.2c0,0,0,0,0.1,0c0.2,0.1,0.2,0.2,0.4,0.2
					c0.3,0,0.5,0.1,0.7,0c0.5-0.1,0.5-0.2,0.9,0.1c0.2,0.1,0.2,0.2,0.2,0.4c0,0.2,0,0.3,0.2,0.4s0.3,0.2,0.4,0
					c0.2-0.4,0.7,0.1,0.7,0.3c0,0.4,0.1,0.2,0.2,0.3c0.1,0.1,0.1,0.6,0.4,0.7c0.1,0,0.3,0,0.3,0.2c0,0.1,0,0.1-0.1,0.2
					c0,0.1-0.1,0.2-0.2,0.3c-0.2,0.4-0.2,0.8,0,1.2c0.1,0.1,0.1,0.2,0.2,0.3c0.2,0.4,0.2,0.5,0.5,0.7c0.2,0.1,0.4,0.1,0.6,0.1
					s0.2,0,0.3-0.1c0.1-0.1,0.2-0.1,0.3,0c0.3,0.2,0.2,0,0.3-0.2c0.2-0.3,0.3,0,0.3-0.5c0-0.1,0.1-0.2,0.2-0.3
					c0.3,0,0.4-0.2,0.7-0.1c0.1,0,0.4,0,0.3,0.3c-0.2,0.2-0.2,0.2-0.2,0.4c0,0.2,0,0.3-0.2,0.5s-0.1,0.2-0.2,0.4
					c0,0.1-0.1,0.2-0.1,0.3c0,0.1,0,0.2,0.3,0.2c0.2,0,0.3,0,0.4,0c0.2,0,0.3,0,0.5,0s0.5,0,0.6,0.2c0.2,0.2,0.2,0.3,0.1,0.7
					c0,0.1,0,0.2,0,0.3c0,0.2-0.1,0.4-0.1,0.5s0,0.2,0,0.3c0.1,0.1,0.2,0.2,0.2,0.3c0.1,0.1,0.2,0.2,0.4,0.3c0.5,0.3,0.6,0,1-0.1
					c0.2,0,0.4,0,0.5,0c0.1,0.1,0.3,0.2,0.4,0.3c0.1,0.1,0.2,0.2,0.3-0.1c0-0.1,0.1-0.2,0.2-0.2s0.1,0,0.1-0.2c0,0,0,0,0-0.1l0,0
					l0,0c0.1-0.3,0.4-0.4,0.6-0.4h0.1c0.2,0,0.4-0.1,0.4-0.2c0.1-0.1,0.4-0.3,0.3,0.1c-0.1,0.1-0.1,0.1-0.1,0.2v0.1
					c0.1,0.2-0.1,0.2-0.1,0.3c0,0.1,0.1,0.1,0.1,0.1s0,0.1,0.1,0.2s0.2,0,0.2-0.1l0,0v-0.1c0-0.1,0-0.1,0-0.2s0-0.2,0-0.2
					s0.1,0,0.1-0.1c0.3-0.2,0.5-0.3,0.7-0.1l0.1,0.1c0.3,0.2,0.1,0.3,0.5,0.3c0.3,0,0.4-0.1,0.6,0.1c0.2,0.1,0.6,0.2,0.7,0
					s0.4-0.2,0.5,0c0.1,0.1,0.2,0.2,0.3,0.2l0,0c0.1,0,0.1,0,0.2,0.1c0.1,0.2,0,0.1,0,0.3c0,0.1,0,0.1,0.2,0.1
					c0.3,0,0.7,0.1,0.8,0.5c0.1,0.2,0.2,0.1,0.4,0.2c0.2,0.2,0.1,0.2,0.5,0.3c0.1,0,0.1,0,0.2,0c0.3-0.1,0.4-0.1,0.6,0
					s0.2,0.2,0.4,0.2c0.3-0.1,0.4,0.2,0.5,0.3c0.2,0.2,0.4,0.2,0.4,0.6c0,0.3,0,0.2,0.2,0.4c0.2,0.3,0.3,0.3,0,0.6
					c-0.2,0.2-0.2,0.3,0.2,0.1c0.1-0.1,0.2,0,0.5,0.1c0.1,0.1,0.1,0.2,0,0.3c0,0.3-0.1,0.3,0.2,0.1c0.3-0.2,0.5-0.3,0.8,0
					c0.1,0.1,0.2,0.2,0.3,0.3c0.3,0.3,0.6,0.4,1.1,0.4c0.3,0,0.4,0.1,0.7,0.1c0.3,0,0.6,0.1,0.8,0.4c0.1,0.1,0.2,0.3,0.4,0.4
					c0.4,0.2,0.5,0,0.7,0.4c0.3,0.8-0.3,1.5-0.9,2.1c-0.2,0.3-0.2,0.4-0.3,0.6c-0.2,0.2-0.5,0-0.5,0.4c0,0.1-0.1,0.2-0.1,0.4
					c0,0.1,0,0.1,0,0.2c0,0.2,0.1,0.4-0.1,0.5c0,0.2,0,0.4-0.1,0.5c-0.2,0.4-0.4,0.6-0.4,0.8c-0.1,0.1-0.2,0.2-0.3,0.3
					c-0.2,0.1-0.1,0.3-0.2,0.5c0,0.1-0.1,0.1-0.2,0.1c-0.3,0.2-0.3,0.2-0.6,0.2c-0.7,0-1.6,0.4-2,1c-0.2,0.2-0.2,0.4-0.2,0.6
					c0,0.3-0.2,0.3-0.3,0.4c-0.3,0.3-0.3,0.7-0.6,0.6c-0.1,0-0.1,0.1-0.3,0.2c-0.1,0.1-0.2,0.2-0.2,0.3c0,0.1,0,0.2-0.2,0.3
					c-0.1,0.1-0.2,0.2-0.3,0.3c-0.2,0.5-0.6,0.4-1,0.3c-0.1,0-0.3-0.1-0.4-0.2c-0.3-0.1-0.3,0.1,0,0.2c0.1,0,0.1,0.1,0.1,0.1
					c0,0.2-0.2,0.2,0.1,0.4c0.1,0.2,0,0.3-0.2,0.4c-0.2,0.3-0.5,0.4-0.8,0.4c-0.2,0-0.4,0-0.6,0c-0.4,0-0.3-0.1-0.3,0.2
					c0,0.1,0,0.1-0.1,0.2c0,0.3-0.2,0.4-0.4,0.3c-0.4-0.2-0.3-0.2-0.4,0.1c0,0.1,0,0.2,0,0.2s0,0.2,0.1,0.2h0.1c0.2,0,0-0.1,0.2-0.1
					c0.1,0,0.1,0,0.1,0.1c0,0.2-0.1,0.1-0.2,0.1c-0.2,0-0.2,0-0.2,0.2s-0.1,0.2-0.2,0.3c0,0.1,0,0.1-0.1,0.2
					c-0.1,0.2-0.2,0.2-0.4,0.2c-0.1,0.1-0.2,0.1-0.3,0.2c-0.1,0.1-0.1,0.3,0,0.4l0.1,0.1l0.1,0.1c0.2,0,0.2-0.1,0.2,0.1
					s-0.1,0.2-0.3,0.3l-0.1,0.1c-0.1,0.1-0.1,0.1-0.2,0.2c0,0.1-0.1,0.2-0.2,0.3c-0.3,0.1-0.3,0.2-0.3,0.5c0.1,0.3,0,0.2-0.2,0.3
					c-0.1,0-0.1,0-0.2,0.1s-0.1,0.2-0.2,0.3c-0.2,0.2,0,0-0.4,0.1c-0.2,0-0.2-0.1-0.2-0.3c0-0.1,0-0.1-0.1-0.2c0,0,0,0,0-0.1
					c-0.1-0.3,0-0.2-0.2-0.4c-0.2-0.1,0-0.3-0.1-0.4c-0.1-0.2-0.1-0.1-0.1-0.3c0-0.1,0-0.1-0.1-0.2c0-0.1,0-0.2,0.1-0.2
					c0.2-0.1,0.1,0,0.2-0.2c0.1-0.4,0.1-0.1-0.2-0.3c-0.1,0,0-0.2,0.1-0.3c0.1-0.2,0.2-0.2,0.3-0.2c0,0,0,0,0.1,0s0.1-0.1,0.1-0.4
					c0-0.2,0.1-0.4,0.2-0.5s0.1-0.3,0-0.4c-0.1-0.2-0.4,0-0.3-0.4c0-0.3,0.1-0.3,0.2-0.5c0-0.1,0-0.2,0-0.4
					c-0.1-0.4-0.1-0.4,0.1-0.8c0.1-0.1,0.1-0.3,0.2-0.4c0-0.1,0-0.2,0.1-0.4c0.1-0.1,0.1-0.2,0.1-0.4c0-0.2,0.1-0.2,0.1-0.4
					c0-0.2,0-0.2-0.1-0.3c0-0.1,0-0.2,0-0.2c0.1-0.2,0.2-0.2,0.1-0.4c-0.1-0.2,0.1-0.3,0.1-0.5v-0.1c0.1-0.3,0.1-0.5,0.2-0.8
					c0-0.2,0.1-0.4,0-0.5c0-0.1,0-0.2,0-0.3c0.1-0.2,0.1-0.2,0.1-0.4c0-0.1,0-0.3,0-0.4c0.1-0.2,0-0.5,0-0.8s-0.1-0.4-0.3-0.6
					l-0.1-0.1c-0.3-0.2-0.5-0.4-0.8-0.5h-0.1c-0.3-0.1-0.3,0-0.6-0.3c-0.1-0.1-0.2-0.2-0.3-0.3c-0.1-0.2,0.1-0.2,0-0.4
					c-0.1-0.1-0.2-0.2-0.2-0.3c-0.3-0.4-0.4-0.7-0.6-1.1c-0.3-0.5-0.5-1-0.9-1.3c-0.2,0-0.2-0.1-0.2-0.3c0-0.1-0.1-0.2-0.1-0.3
					c-0.2-0.3,0.3-0.4,0.5-0.5c0.1-0.1,0.1-0.2,0-0.3c-0.1,0-0.1,0-0.2,0c-0.3-0.1-0.2-0.5,0-0.6c0.1-0.1,0.2-0.3,0.2-0.4
					c0-0.3,0.1-0.3,0.2-0.3c0.3-0.1,0.2-0.1,0.3-0.3c0-0.2,0-0.2,0.2-0.3c0,0,0,0,0.1,0c0.4-0.4,0.4-0.6,0.3-1.1
					c0-0.3-0.1-0.4-0.2-0.6c-0.1-0.1-0.2-0.2-0.2-0.2s0,0,0-0.1c0-0.2,0-0.2-0.1-0.4c-0.2-0.1-0.4-0.1-0.5,0.1c0,0,0,0.1-0.1,0.2
					c-0.2,0.1-0.1,0-0.1,0.3c0,0.1,0,0.1,0,0.1c-0.2,0.2-0.2-0.1-0.3-0.2c-0.2-0.1-0.1,0.1-0.3-0.1c-0.1-0.1-0.1-0.1-0.3-0.1H443
					c-0.1,0-0.1-0.1-0.2-0.2s0-0.2-0.2-0.3h-0.1c-0.2-0.2,0-0.2-0.3-0.1c-0.1,0-0.2-0.1-0.3-0.3c0.1-0.4,0-0.4-0.4-0.6
					c-0.1-0.1-0.2-0.3-0.3-0.4c-0.1-0.2-0.2-0.1-0.3-0.1c-0.1,0-0.4,0-0.5-0.2c-0.3-0.2-0.4-0.2-0.6-0.2c-0.3,0-0.5-0.3-0.6-0.5
					c-0.2-0.2-0.4-0.4-0.7-0.3c-0.2,0.1-0.3,0.3-0.6,0.2c-0.2,0-0.3-0.2-0.7-0.3c-0.3-0.1-0.5-0.2-0.7-0.3c-0.3-0.1-0.3-0.3-0.6-0.4
					c-0.6-0.1-0.3-0.1-0.5-0.4c-0.1,0-0.1-0.1-0.2-0.1c-0.2-0.1-0.4-0.3-0.2-0.5c0.2-0.2,0.2-0.3,0.1-0.5c-0.1-0.1-0.1-0.3-0.1-0.3
					c0-0.1-0.2-0.4-0.3-0.5c-0.2-0.2-0.3-0.4-0.4-0.6c-0.6-0.2,0.1-0.3-0.2-0.6c-0.2,0-0.2-0.1-0.2-0.2c-0.1-0.2,0-0.2-0.2-0.4
					c-0.1,0-0.1-0.1-0.2-0.2s-0.1-0.3-0.1-0.4s0-0.2,0-0.3c0-0.3,0-0.3-0.3-0.4c-0.1,0-0.1,0-0.2,0c0,0,0,0-0.1,0s-0.1,0.1-0.1,0.2
					c0,0.3,0,0.3,0.1,0.5c0.1,0.1,0.1,0.2,0.1,0.2c0.2,0.2,0.2,0.2,0.2,0.4c0,0.2,0,0.2,0.1,0.4c0.3,0.4,0.2,0.5,0.3,0.8
					c0,0.2,0,0.3-0.1,0.3s-0.2,0-0.4-0.1c-0.1-0.1,0-0.2,0-0.3c0.2-0.3-0.2-0.5-0.4-0.6c-0.2-0.2-0.4-0.3-0.1-0.6
					c0.2-0.2,0.1-0.3,0-0.5c-0.3-0.2-0.3-0.3-0.3-0.4c0-0.2,0-0.3,0-0.3c-1.6,0.5-3.2,1-4.7,1.6v27.2c2,0.8,4,1.4,6,2
					c3.1,0.8,6.2,1.3,9.3,1.6c0.6,0,1.2,0.1,1.8,0.1c0.6,0,1.1,0,1.7,0h0.5c0.1,0,0.2,0,0.3-0.1c0.4,0.1,0.1-0.3,0.3-0.4h0.1
					c0.2,0,0.2,0,0.2,0.1c0.1,0.2,0.2,0.3,0.3,0.4h0.2c0.9,0,1.8-0.1,2.7-0.2c4.8-0.4,9.6-1.6,14.3-3.4V91.7
					C460.8,89.8,456.1,88.7,451.3,88.2 M443.3,93.9C443.2,93.9,443.2,93.9,443.3,93.9l-0.2,0.2c-0.2,0.1-0.3-0.1,0-0.2
					C443.2,93.9,443.2,93.8,443.3,93.9C443.5,93.7,443.7,93.8,443.3,93.9 M446.1,94.9c-0.2,0-0.2,0-0.4,0c-0.3,0-0.3,0-0.3-0.2
					s-0.3-0.1-0.4-0.2c0,0,0,0,0-0.1l0,0c-0.1-0.2,0-0.1-0.4-0.1c-0.1,0-0.2,0-0.2-0.1c-0.1-0.1-0.2-0.2-0.4-0.2
					c-0.2,0-0.4-0.3-0.2-0.4c0.3,0,0.2,0.1,0.5,0.1c0.2,0,0.2,0,0.4,0.2c0.1,0.1,0.2,0.1,0.3,0.1h0.1c0.1,0,0.2,0.1,0.3,0.1
					c0.1,0,0.1,0.1,0.2,0.1c0.1,0.1,0.2,0.2,0.4,0.2c0.2,0,0.2,0,0.3,0.1C446.3,94.8,446.5,94.9,446.1,94.9 M446.9,95.6
					c0,0-0.1,0-0.2,0s-0.2,0-0.2-0.1c0-0.2,0-0.1,0.2-0.1l0,0C446.8,95.4,446.8,95.4,446.9,95.6C446.9,95.5,446.9,95.5,446.9,95.6
					C447.1,95.5,447,95.6,446.9,95.6 M448.1,95.4c-0.3,0-0.3,0-0.4,0.1c0,0,0,0.1-0.1,0.1c0,0.1,0,0-0.2,0s-0.3-0.2-0.3-0.2
					c0-0.1,0-0.1,0-0.2c-0.3-0.6-0.1-0.2,0.5-0.3h0.1c0.2,0,0.2-0.1,0.4,0.1l0.1,0.1C448.7,95.4,448.2,95.5,448.1,95.4 M448.6,95.5
					C448.5,95.5,448.5,95.4,448.6,95.5c-0.1-0.1,0-0.2,0-0.2S448.7,95.3,448.6,95.5C448.7,95.4,448.6,95.5,448.6,95.5 M446.7,118.4
					L446.7,118.4C446.7,118.4,446.7,118.3,446.7,118.4C446.8,118.2,446.8,118.2,446.7,118.4c0.1,0,0.1,0.3,0,0.3
					c-0.2,0-0.1,0-0.1-0.1C446.6,118.4,446.6,118.4,446.7,118.4 M434,93.3C433.9,93.3,433.9,93.3,434,93.3L434,93.3
					c-0.1-0.2-0.3-0.1-0.3-0.2s0.1-0.2,0.2-0.1C434,93,434,93.1,434,93.3C434.1,93.2,434.1,93.3,434,93.3 M451.7,120.1
					c-0.1,0.2-0.2,0.1-0.4,0.1h-0.1c-0.1,0-0.1,0.2-0.3,0.1c-0.1-0.1-0.2-0.2-0.1-0.3c0-0.1,0.1-0.1,0.1-0.1c0.1,0,0.2,0,0.3,0
					c0.1,0,0.1,0,0.2-0.1C451.8,119.7,451.8,119.9,451.7,120.1"/>
				<polygon class="st2" points="432.3,129.8 432.3,131 429.5,131 429.5,132.7 432.1,132.7 432.1,134 429.5,134 429.5,136.6 
					427.9,136.6 427.9,129.8 				"/>
				<polygon class="st2" points="433.7,129.8 435.4,129.8 435.4,135.3 437.8,135.3 437.8,136.6 433.7,136.6 				"/>
				<path class="st2" d="M441.1,129.8h1.8l2.5,6.9h-1.8l-0.5-1.5h-2.3l-0.5,1.5h-1.7L441.1,129.8z M441.2,134h1.6l-0.3-0.8
					c-0.1-0.3-0.2-0.6-0.3-0.9c-0.1-0.3-0.2-0.6-0.2-0.8l0,0c-0.1,0.3-0.2,0.5-0.2,0.8c-0.1,0.3-0.2,0.6-0.3,0.9L441.2,134z"/>
				<path class="st2" d="M449.5,135.5c0.3,0,0.6,0,0.8-0.1c0.2-0.1,0.4-0.1,0.6-0.2l0.3,1.2c-0.1,0.1-0.4,0.2-0.7,0.3
					c-0.3,0.1-0.7,0.1-1.2,0.1s-1-0.1-1.5-0.3c-0.4-0.2-0.8-0.4-1.2-0.7c-0.3-0.3-0.6-0.7-0.7-1.1c-0.2-0.4-0.3-0.9-0.3-1.5
					c0-0.5,0.1-1,0.3-1.5c0.2-0.4,0.4-0.8,0.7-1.1c0.3-0.3,0.7-0.5,1.2-0.7s1-0.3,1.5-0.3s0.9,0,1.2,0.1c0.3,0.1,0.5,0.2,0.7,0.3
					l-0.4,1.2c-0.2-0.1-0.4-0.2-0.6-0.3s-0.5-0.1-0.8-0.1s-0.6,0-0.8,0.1c-0.3,0.1-0.5,0.2-0.7,0.4s-0.3,0.4-0.4,0.7
					s-0.2,0.6-0.2,1.1c0,0.4,0.1,0.7,0.2,1s0.3,0.5,0.4,0.7c0.2,0.2,0.4,0.3,0.7,0.4C448.9,135.4,449.2,135.5,449.5,135.5"/>
				<path class="st2" d="M455,129.6c0.5,0,0.9,0,1.2,0.1c0.3,0.1,0.7,0.2,0.9,0.4l-0.4,1.2c-0.3-0.1-0.6-0.3-0.9-0.3
					c-0.3-0.1-0.6-0.1-0.8-0.1c-0.3,0-0.6,0.1-0.8,0.2c-0.2,0.1-0.3,0.3-0.3,0.5s0.1,0.4,0.2,0.5s0.4,0.2,0.8,0.3l0.6,0.2
					c0.3,0.1,0.5,0.2,0.7,0.3s0.4,0.3,0.6,0.4c0.2,0.2,0.3,0.4,0.4,0.6c0.1,0.2,0.1,0.4,0.1,0.7s-0.1,0.6-0.2,0.8s-0.3,0.5-0.5,0.7
					s-0.5,0.4-0.8,0.5s-0.7,0.2-1.2,0.2c-0.4,0-0.8,0-1.2-0.1c-0.4-0.1-0.7-0.2-1.1-0.4l0.4-1.2c0.3,0.2,0.6,0.3,0.9,0.4
					c0.3,0.1,0.6,0.1,0.9,0.1c0.4,0,0.7-0.1,0.8-0.2c0.2-0.1,0.3-0.3,0.3-0.5c0-0.1,0-0.1,0-0.2c0-0.1-0.1-0.1-0.2-0.2
					c-0.1-0.1-0.2-0.1-0.4-0.2c-0.1-0.1-0.3-0.1-0.6-0.2l-0.5-0.2c-0.3-0.1-0.5-0.2-0.7-0.3s-0.4-0.3-0.6-0.4
					c-0.2-0.2-0.3-0.3-0.4-0.6c-0.1-0.2-0.1-0.5-0.1-0.8s0.1-0.6,0.2-0.8c0.1-0.3,0.3-0.5,0.5-0.7s0.5-0.3,0.8-0.4
					C454.2,129.7,454.5,129.6,455,129.6"/>
				<path class="st2" d="M462.2,129.6c0.5,0,1,0.1,1.4,0.2c0.4,0.2,0.8,0.4,1.1,0.7c0.3,0.3,0.5,0.7,0.7,1.1
					c0.2,0.4,0.3,0.9,0.3,1.5c0,0.5-0.1,1-0.3,1.5c-0.2,0.4-0.4,0.8-0.7,1.1c-0.3,0.3-0.7,0.5-1.1,0.7s-0.9,0.2-1.4,0.2
					s-1-0.1-1.4-0.2c-0.4-0.2-0.8-0.4-1.1-0.7c-0.3-0.3-0.5-0.7-0.7-1.1c-0.2-0.4-0.3-0.9-0.3-1.5c0-0.5,0.1-1,0.3-1.5
					c0.2-0.4,0.4-0.8,0.7-1.1c0.3-0.3,0.7-0.6,1.1-0.7S461.7,129.6,462.2,129.6 M460.5,133.2c0,0.4,0,0.7,0.1,1s0.2,0.5,0.4,0.7
					c0.2,0.2,0.3,0.3,0.5,0.4s0.4,0.1,0.7,0.1c0.2,0,0.5,0,0.7-0.1s0.4-0.2,0.5-0.4c0.2-0.2,0.3-0.4,0.4-0.7s0.1-0.6,0.1-1
					s0-0.7-0.1-1s-0.2-0.5-0.4-0.7c-0.2-0.2-0.3-0.3-0.5-0.4c-0.2-0.1-0.4-0.1-0.7-0.1c-0.2,0-0.5,0-0.7,0.1s-0.4,0.2-0.5,0.4
					c-0.2,0.2-0.3,0.4-0.4,0.7S460.5,132.8,460.5,133.2"/>
				<path class="st2" d="M429.3,140.5h0.4l1.4,3.7h-0.4l-0.4-1.1h-1.6l-0.4,1.1h-0.4L429.3,140.5z M428.8,142.8h1.4l-0.3-0.8
					c-0.1-0.1-0.1-0.3-0.2-0.5s-0.1-0.4-0.2-0.6l0,0c0,0.1-0.1,0.2-0.1,0.3s-0.1,0.2-0.1,0.3s-0.1,0.2-0.1,0.2
					c0,0.1-0.1,0.2-0.1,0.3L428.8,142.8z"/>
				<path class="st2" d="M432.8,140.5h1.1c0.2,0,0.4,0,0.5,0.1s0.3,0.1,0.4,0.2c0.1,0.1,0.2,0.2,0.2,0.3c0.1,0.1,0.1,0.3,0.1,0.4
					c0,0.1,0,0.3-0.1,0.4c0,0.1-0.1,0.2-0.2,0.3s-0.2,0.2-0.3,0.2c-0.1,0.1-0.2,0.1-0.3,0.1l1,1.6h-0.5l-0.9-1.5H433v1.5h-0.4v-3.6
					H432.8z M433.2,142.4h0.6c0.1,0,0.3,0,0.4,0s0.2-0.1,0.3-0.1c0.1-0.1,0.1-0.1,0.2-0.2c0-0.1,0.1-0.2,0.1-0.3
					c0-0.3-0.1-0.4-0.2-0.6c-0.1-0.1-0.4-0.2-0.7-0.2h-0.6v1.4H433.2z"/>
				<path class="st2" d="M438.8,140.5c0.2,0,0.4,0,0.6,0s0.3,0.1,0.5,0.2l-0.1,0.3c-0.1-0.1-0.3-0.1-0.4-0.1s-0.3-0.1-0.4-0.1
					c-0.2,0-0.4,0-0.5,0.1c-0.2,0.1-0.3,0.1-0.5,0.3c-0.1,0.1-0.2,0.3-0.3,0.5c-0.1,0.2-0.1,0.4-0.1,0.7c0,0.2,0,0.5,0.1,0.6
					c0.1,0.2,0.2,0.3,0.3,0.5c0.1,0.1,0.3,0.2,0.4,0.3c0.2,0.1,0.4,0.1,0.6,0.1s0.3,0,0.4,0s0.2,0,0.3-0.1v-1.2H439v-0.3h1.2v1.8
					c-0.1,0.1-0.3,0.1-0.5,0.1s-0.4,0.1-0.6,0.1c-0.3,0-0.5,0-0.7-0.1s-0.4-0.2-0.6-0.4s-0.3-0.4-0.4-0.6c-0.1-0.2-0.1-0.5-0.1-0.8
					s0-0.6,0.1-0.8s0.2-0.4,0.4-0.6c0.2-0.2,0.4-0.3,0.6-0.4C438.2,140.5,438.5,140.5,438.8,140.5"/>
				<polygon class="st2" points="441.9,140.5 444.1,140.5 444.1,140.8 442.3,140.8 442.3,142.1 443.9,142.1 443.9,142.5 
					442.3,142.5 442.3,143.9 444.1,143.9 444.1,144.2 441.9,144.2 				"/>
				<path class="st2" d="M446,140.5h0.4l1.7,2.4c0.1,0.1,0.1,0.2,0.2,0.3s0.1,0.2,0.2,0.3l0,0c0-0.1,0-0.3,0-0.4c0-0.1,0-0.3,0-0.4
					v-2.2h0.4v3.7h-0.4l-1.6-2.3c-0.1-0.1-0.2-0.2-0.2-0.4c-0.1-0.1-0.2-0.3-0.2-0.4l0,0c0,0.2,0,0.4,0,0.5c0,0.2,0,0.3,0,0.5v2.1
					h-0.4L446,140.5L446,140.5z"/>
				<polygon class="st2" points="453.4,140.5 453.4,140.8 452.2,140.8 452.2,144.2 451.8,144.2 451.8,140.8 450.6,140.8 
					450.6,140.5 				"/>
				<rect x="455.1" y="140.5" class="st2" width="0.4" height="3.7"/>
				<path class="st2" d="M457.7,140.5h0.4l1.7,2.4c0.1,0.1,0.1,0.2,0.2,0.3s0.1,0.2,0.2,0.3l0,0c0-0.1,0-0.3,0-0.4
					c0-0.1,0-0.3,0-0.4v-2.2h0.4v3.7h-0.4l-1.6-2.3c-0.1-0.1-0.2-0.2-0.2-0.4c-0.1-0.1-0.2-0.3-0.2-0.4l0,0c0,0.2,0,0.4,0,0.5
					c0,0.2,0,0.3,0,0.5v2.1h-0.4L457.7,140.5L457.7,140.5z"/>
				<path class="st2" d="M463.8,140.5h0.4l1.4,3.7h-0.5l-0.4-1.1h-1.6l-0.4,1.1h-0.4L463.8,140.5z M463.3,142.8h1.3l-0.3-0.8
					c-0.1-0.1-0.1-0.3-0.2-0.5s-0.1-0.4-0.2-0.6l0,0c0,0.1-0.1,0.2-0.1,0.3s-0.1,0.2-0.1,0.3s-0.1,0.2-0.1,0.2
					c0,0.1-0.1,0.2-0.1,0.3L463.3,142.8z"/>
			</g>
		</g>
	</g>
</g>
</svg>
