<?xml version="1.0" encoding="utf-8"?>
<!-- Generator: Adobe Illustrator 24.3.0, SVG Export Plug-In . SVG Version: 6.00 Build 0)  -->
<svg version="1.1" id="Capa_1" xmlns="http://www.w3.org/2000/svg" xmlns:xlink="http://www.w3.org/1999/xlink" x="0px" y="0px"
	 viewBox="0 0 632.6 412.9" style="enable-background:new 0 0 632.6 412.9;" xml:space="preserve">
<style type="text/css">
	.st0{fill:#DDDDDD;}
	.st1{enable-background:new    ;}
	.st2{fill:none;stroke:#F7A59A;stroke-width:1.5;stroke-miterlimit:10;stroke-dasharray:5,4;}
	.st3{fill:#FFFFFF;}
	.st4{fill:#A4D2FF;}
	.st5{clip-path:url(#SVGID_2_);}
	.st6{fill:none;stroke:#2CA5FF;stroke-width:2;stroke-miterlimit:10;}
	.st7{fill:#2CA5FF;}
	.st8{clip-path:url(#SVGID_4_);}
	.st9{fill:#FF5A5A;}
	.st10{fill:#E03F3F;}
	.st11{fill:#242C77;}
	.st12{fill:#BC8E7E;}
	.st13{fill:#916B61;}
	.st14{fill:#060A47;}
	.st15{clip-path:url(#SVGID_6_);}
	.st16{fill:none;stroke:#128CF9;stroke-width:1.5;stroke-miterlimit:10;}
	.st17{fill:#128CF9;}
	.st18{clip-path:url(#SVGID_8_);}
	.st19{fill:#E6F4FF;}
	.st20{fill:#CAEAFF;}
	.st21{fill:#FFCCB6;}
	.st22{fill:#F49D8C;}
	.st23{fill:none;stroke:#21329B;stroke-linecap:round;stroke-linejoin:round;stroke-miterlimit:10;}
	.st24{fill:#21329B;}
	.st25{fill:#19297C;}
	.st26{fill:#0E1663;}
	.st27{clip-path:url(#SVGID_10_);}
	.st28{fill:#0471E9;}
	.st29{fill:#EACECC;}
	.st30{clip-path:url(#SVGID_12_);}
	.st31{clip-path:url(#SVGID_14_);}
	.st32{fill:#D89177;}
	.st33{fill:#B27460;}
	.st34{fill:none;stroke:#0E1663;stroke-miterlimit:10;}
	.st35{fill:#60310F;}
	.st36{fill:#664032;}
	.st37{fill:none;stroke:#0E1663;stroke-width:1.0001;stroke-miterlimit:10.0007;}
	.st38{fill:#FFE6E3;}
	.st39{fill:#F7A59A;}
	.st40{fill:#F9C3BD;}
	.st41{fill:#142F4E;}
</style>
<g>
	<path class="st0" d="M631.3,412.4H1.3v-61c0-11.9,9.7-21.6,21.6-21.6h586.8c11.9,0,21.6,9.7,21.6,21.6V412.4z"/>
	<g>
		<g>
			<g class="st1">
				<path d="M150.8,364.3h-4.8l-12.4-19.7v19.7h-4.8v-27.7h4.8l12.4,19.7v-19.7h4.8V364.3z"/>
				<path d="M155.1,353.8c0-2,0.4-3.8,1.2-5.5c0.8-1.6,1.9-2.9,3.4-3.7c1.4-0.9,3.1-1.3,5-1.3c2.8,0,5,0.9,6.8,2.7
					c1.7,1.8,2.7,4.2,2.8,7.1l0,1.1c0,2-0.4,3.8-1.2,5.4c-0.8,1.6-1.9,2.8-3.4,3.7c-1.5,0.9-3.1,1.3-5,1.3c-2.9,0-5.2-1-7-2.9
					c-1.7-1.9-2.6-4.5-2.6-7.7V353.8z M159.8,354.2c0,2.1,0.4,3.8,1.3,5c0.9,1.2,2.1,1.8,3.7,1.8s2.8-0.6,3.6-1.8
					c0.9-1.2,1.3-3,1.3-5.4c0-2.1-0.4-3.7-1.3-5c-0.9-1.2-2.1-1.8-3.6-1.8c-1.5,0-2.7,0.6-3.6,1.8
					C160.2,350.1,159.8,351.9,159.8,354.2z"/>
				<path d="M189.8,358.7c0-0.8-0.3-1.5-1-1.9c-0.7-0.4-1.8-0.8-3.4-1.1c-1.6-0.3-2.9-0.7-3.9-1.3c-2.3-1.1-3.5-2.7-3.5-4.9
					c0-1.8,0.7-3.3,2.2-4.5s3.4-1.8,5.7-1.8c2.5,0,4.5,0.6,6,1.8c1.5,1.2,2.3,2.8,2.3,4.7h-4.6c0-0.9-0.3-1.6-1-2.2
					c-0.7-0.6-1.5-0.9-2.6-0.9c-1,0-1.8,0.2-2.5,0.7c-0.6,0.5-1,1.1-1,1.9c0,0.7,0.3,1.3,0.9,1.7c0.6,0.4,1.8,0.8,3.6,1.2
					c1.8,0.4,3.2,0.9,4.3,1.4c1,0.6,1.8,1.2,2.3,2c0.5,0.8,0.8,1.7,0.8,2.8c0,1.9-0.8,3.4-2.3,4.5c-1.5,1.1-3.5,1.7-6,1.7
					c-1.7,0-3.2-0.3-4.5-0.9s-2.3-1.4-3.1-2.5s-1.1-2.2-1.1-3.4h4.5c0.1,1.1,0.5,1.9,1.2,2.5c0.8,0.6,1.8,0.9,3,0.9
					c1.2,0,2.1-0.2,2.8-0.7C189.4,360.1,189.8,359.5,189.8,358.7z"/>
				<path d="M215.3,358.5l4.4-14.7h4.8l-7.1,20.6h-4l-7.2-20.6h4.8L215.3,358.5z"/>
				<path d="M236.2,364.7c-2.9,0-5.3-0.9-7.1-2.8c-1.8-1.8-2.7-4.3-2.7-7.4V354c0-2.1,0.4-3.9,1.2-5.5c0.8-1.6,1.9-2.9,3.3-3.8
					s3-1.4,4.8-1.4c2.8,0,5,0.9,6.5,2.7c1.5,1.8,2.3,4.3,2.3,7.6v1.9H231c0.1,1.7,0.7,3,1.7,4s2.3,1.5,3.8,1.5
					c2.1,0,3.8-0.9,5.2-2.6l2.5,2.4c-0.8,1.2-1.9,2.2-3.3,2.9C239.4,364.4,237.9,364.7,236.2,364.7z M235.6,347.1
					c-1.3,0-2.3,0.4-3.1,1.3c-0.8,0.9-1.3,2.1-1.5,3.7h8.8v-0.3c-0.1-1.5-0.5-2.7-1.2-3.5C237.9,347.5,236.9,347.1,235.6,347.1z"/>
				<path d="M252.4,343.7l0.1,2.2c1.4-1.7,3.4-2.5,5.9-2.5c2.8,0,4.6,1.1,5.7,3.2c1.5-2.1,3.6-3.2,6.3-3.2c2.3,0,4,0.6,5.1,1.9
					c1.1,1.3,1.7,3.1,1.7,5.6v13.5h-4.6v-13.4c0-1.3-0.3-2.3-0.9-2.9s-1.5-0.9-2.8-0.9c-1.1,0-1.9,0.3-2.6,0.8
					c-0.7,0.6-1.1,1.3-1.4,2.2l0,14.1h-4.6v-13.6c-0.1-2.4-1.3-3.6-3.7-3.6c-1.9,0-3.2,0.8-3.9,2.3v14.9H248v-20.6H252.4z"/>
				<path d="M281.1,353.8c0-2,0.4-3.8,1.2-5.5c0.8-1.6,1.9-2.9,3.4-3.7c1.4-0.9,3.1-1.3,5-1.3c2.8,0,5,0.9,6.8,2.7
					c1.7,1.8,2.7,4.2,2.8,7.1l0,1.1c0,2-0.4,3.8-1.2,5.4c-0.8,1.6-1.9,2.8-3.4,3.7c-1.5,0.9-3.1,1.3-5,1.3c-2.9,0-5.2-1-7-2.9
					c-1.7-1.9-2.6-4.5-2.6-7.7V353.8z M285.7,354.2c0,2.1,0.4,3.8,1.3,5c0.9,1.2,2.1,1.8,3.7,1.8s2.8-0.6,3.6-1.8
					c0.9-1.2,1.3-3,1.3-5.4c0-2.1-0.4-3.7-1.3-5c-0.9-1.2-2.1-1.8-3.6-1.8c-1.5,0-2.7,0.6-3.6,1.8
					C286.2,350.1,285.7,351.9,285.7,354.2z"/>
				<path d="M315.7,358.7c0-0.8-0.3-1.5-1-1.9c-0.7-0.4-1.8-0.8-3.4-1.1c-1.6-0.3-2.9-0.7-3.9-1.3c-2.3-1.1-3.5-2.7-3.5-4.9
					c0-1.8,0.7-3.3,2.2-4.5s3.4-1.8,5.7-1.8c2.5,0,4.5,0.6,6,1.8c1.5,1.2,2.3,2.8,2.3,4.7h-4.6c0-0.9-0.3-1.6-1-2.2
					c-0.7-0.6-1.5-0.9-2.6-0.9c-1,0-1.8,0.2-2.5,0.7c-0.6,0.5-1,1.1-1,1.9c0,0.7,0.3,1.3,0.9,1.7c0.6,0.4,1.8,0.8,3.6,1.2
					c1.8,0.4,3.2,0.9,4.3,1.4c1,0.6,1.8,1.2,2.3,2c0.5,0.8,0.8,1.7,0.8,2.8c0,1.9-0.8,3.4-2.3,4.5c-1.5,1.1-3.5,1.7-6,1.7
					c-1.7,0-3.2-0.3-4.5-0.9s-2.3-1.4-3.1-2.5s-1.1-2.2-1.1-3.4h4.5c0.1,1.1,0.5,1.9,1.2,2.5c0.8,0.6,1.8,0.9,3,0.9
					c1.2,0,2.1-0.2,2.8-0.7C315.4,360.1,315.7,359.5,315.7,358.7z"/>
				<path d="M343.1,364.7c-2.9,0-5.3-0.9-7.1-2.8c-1.8-1.8-2.7-4.3-2.7-7.4V354c0-2.1,0.4-3.9,1.2-5.5c0.8-1.6,1.9-2.9,3.3-3.8
					s3-1.4,4.8-1.4c2.8,0,5,0.9,6.5,2.7c1.5,1.8,2.3,4.3,2.3,7.6v1.9h-13.5c0.1,1.7,0.7,3,1.7,4c1,1,2.2,1.5,3.8,1.5
					c2.1,0,3.8-0.9,5.2-2.6l2.5,2.4c-0.8,1.2-1.9,2.2-3.3,2.9C346.3,364.4,344.8,364.7,343.1,364.7z M342.5,347.1
					c-1.3,0-2.3,0.4-3.1,1.3c-0.8,0.9-1.3,2.1-1.5,3.7h8.8v-0.3c-0.1-1.5-0.5-2.7-1.2-3.5C344.8,347.5,343.8,347.1,342.5,347.1z"/>
				<path d="M359.2,343.7l0.1,2.4c1.5-1.8,3.5-2.8,6-2.8c4.3,0,6.5,2.5,6.6,7.4v13.6h-4.6V351c0-1.3-0.3-2.3-0.8-2.9
					c-0.6-0.6-1.5-0.9-2.8-0.9c-1.9,0-3.3,0.8-4.2,2.5v14.7h-4.6v-20.6H359.2z"/>
				<path d="M385.1,361c1.2,0,2.1-0.3,2.9-1s1.2-1.5,1.2-2.5h4.4c-0.1,1.3-0.5,2.5-1.2,3.6c-0.7,1.1-1.8,2-3,2.6
					c-1.3,0.6-2.7,1-4.2,1c-2.9,0-5.2-0.9-6.9-2.8c-1.7-1.9-2.5-4.4-2.5-7.7v-0.5c0-3.1,0.8-5.6,2.5-7.5c1.7-1.9,4-2.8,6.9-2.8
					c2.5,0,4.4,0.7,6,2.1c1.5,1.4,2.4,3.3,2.4,5.6h-4.4c-0.1-1.2-0.5-2.2-1.2-2.9c-0.8-0.8-1.7-1.1-2.9-1.1c-1.5,0-2.7,0.5-3.5,1.6
					c-0.8,1.1-1.2,2.7-1.2,4.9v0.7c0,2.2,0.4,3.9,1.2,5C382.4,360.5,383.6,361,385.1,361z"/>
				<path d="M409.5,362.3c-1.4,1.6-3.3,2.4-5.8,2.4c-2.2,0-3.9-0.7-5.1-2c-1.1-1.3-1.7-3.2-1.7-5.7v-13.3h4.6V357
					c0,2.6,1.1,3.9,3.3,3.9c2.2,0,3.8-0.8,4.6-2.4v-14.8h4.6v20.6h-4.4L409.5,362.3z"/>
				<path d="M427.8,364.7c-2.9,0-5.3-0.9-7.1-2.8c-1.8-1.8-2.7-4.3-2.7-7.4V354c0-2.1,0.4-3.9,1.2-5.5c0.8-1.6,1.9-2.9,3.3-3.8
					s3-1.4,4.8-1.4c2.8,0,5,0.9,6.5,2.7c1.5,1.8,2.3,4.3,2.3,7.6v1.9h-13.5c0.1,1.7,0.7,3,1.7,4c1,1,2.2,1.5,3.8,1.5
					c2.1,0,3.8-0.9,5.2-2.6l2.5,2.4c-0.8,1.2-1.9,2.2-3.3,2.9C431,364.4,429.5,364.7,427.8,364.7z M427.2,347.1
					c-1.3,0-2.3,0.4-3.1,1.3c-0.8,0.9-1.3,2.1-1.5,3.7h8.8v-0.3c-0.1-1.5-0.5-2.7-1.2-3.5C429.5,347.5,428.5,347.1,427.2,347.1z"/>
				<path d="M443.9,343.7l0.1,2.4c1.5-1.8,3.5-2.8,6-2.8c4.3,0,6.5,2.5,6.6,7.4v13.6H452V351c0-1.3-0.3-2.3-0.8-2.9
					c-0.6-0.6-1.5-0.9-2.8-0.9c-1.9,0-3.3,0.8-4.2,2.5v14.7h-4.6v-20.6H443.9z"/>
				<path d="M467.1,338.7v5h3.6v3.4h-3.6v11.5c0,0.8,0.2,1.4,0.5,1.7c0.3,0.3,0.9,0.5,1.7,0.5c0.5,0,1.1-0.1,1.6-0.2v3.6
					c-1.1,0.3-2.1,0.4-3,0.4c-3.6,0-5.3-2-5.3-5.9v-11.7h-3.4v-3.4h3.4v-5H467.1z"/>
				<path d="M485.1,348c-0.6-0.1-1.2-0.2-1.9-0.2c-2.1,0-3.5,0.8-4.3,2.4v14.1h-4.6v-20.6h4.4l0.1,2.3c1.1-1.8,2.7-2.7,4.6-2.7
					c0.7,0,1.2,0.1,1.6,0.3L485.1,348z"/>
				<path d="M486.5,353.8c0-2,0.4-3.8,1.2-5.5c0.8-1.6,1.9-2.9,3.4-3.7c1.4-0.9,3.1-1.3,5-1.3c2.8,0,5,0.9,6.8,2.7
					c1.7,1.8,2.7,4.2,2.8,7.1l0,1.1c0,2-0.4,3.8-1.2,5.4c-0.8,1.6-1.9,2.8-3.4,3.7c-1.5,0.9-3.1,1.3-5,1.3c-2.9,0-5.2-1-7-2.9
					c-1.7-1.9-2.6-4.5-2.6-7.7V353.8z M491.1,354.2c0,2.1,0.4,3.8,1.3,5c0.9,1.2,2.1,1.8,3.7,1.8s2.8-0.6,3.6-1.8
					c0.9-1.2,1.3-3,1.3-5.4c0-2.1-0.4-3.7-1.3-5c-0.9-1.2-2.1-1.8-3.6-1.8c-1.5,0-2.7,0.6-3.6,1.8
					C491.5,350.1,491.1,351.9,491.1,354.2z"/>
			</g>
			<g class="st1">
				<path d="M53,399c1.2,0,2.1-0.3,2.9-1s1.2-1.5,1.2-2.5h4.4c-0.1,1.3-0.5,2.5-1.2,3.6c-0.7,1.1-1.8,2-3,2.6c-1.3,0.6-2.7,1-4.2,1
					c-2.9,0-5.2-0.9-6.9-2.8c-1.7-1.9-2.5-4.4-2.5-7.7v-0.5c0-3.1,0.8-5.6,2.5-7.5c1.7-1.9,4-2.8,6.9-2.8c2.5,0,4.4,0.7,6,2.1
					c1.5,1.4,2.4,3.3,2.4,5.6h-4.4c-0.1-1.2-0.5-2.2-1.2-2.9c-0.8-0.8-1.7-1.1-2.9-1.1c-1.5,0-2.7,0.5-3.5,1.6
					c-0.8,1.1-1.2,2.7-1.2,4.9v0.7c0,2.2,0.4,3.9,1.2,5C50.3,398.5,51.5,399,53,399z"/>
				<path d="M64.1,391.8c0-2,0.4-3.8,1.2-5.5c0.8-1.6,1.9-2.9,3.4-3.7c1.4-0.9,3.1-1.3,5-1.3c2.8,0,5,0.9,6.8,2.7
					c1.7,1.8,2.7,4.2,2.8,7.1l0,1.1c0,2-0.4,3.8-1.2,5.4c-0.8,1.6-1.9,2.8-3.4,3.7c-1.5,0.9-3.1,1.3-5,1.3c-2.9,0-5.2-1-7-2.9
					c-1.7-1.9-2.6-4.5-2.6-7.7V391.8z M68.7,392.2c0,2.1,0.4,3.8,1.3,5c0.9,1.2,2.1,1.8,3.7,1.8s2.8-0.6,3.6-1.8
					c0.9-1.2,1.3-3,1.3-5.4c0-2.1-0.4-3.7-1.3-5c-0.9-1.2-2.1-1.8-3.6-1.8c-1.5,0-2.7,0.6-3.6,1.8C69.1,388.1,68.7,389.9,68.7,392.2
					z"/>
				<path d="M91.4,381.7l0.1,2.4c1.5-1.8,3.5-2.8,6-2.8c4.3,0,6.5,2.5,6.6,7.4v13.6h-4.6V389c0-1.3-0.3-2.3-0.8-2.9
					c-0.6-0.6-1.5-0.9-2.8-0.9c-1.9,0-3.3,0.8-4.2,2.5v14.7h-4.6v-20.6H91.4z"/>
				<path d="M136.6,392.2c0,3.2-0.7,5.7-2.2,7.6c-1.4,1.9-3.4,2.8-5.8,2.8c-2.3,0-4.1-0.7-5.4-2.2v9.8h-4.6v-28.5h4.3l0.2,2.1
					c1.4-1.7,3.2-2.5,5.5-2.5c2.5,0,4.5,0.9,5.9,2.8c1.4,1.9,2.1,4.5,2.1,7.8V392.2z M132,391.8c0-2.1-0.4-3.7-1.2-4.9
					c-0.8-1.2-2-1.8-3.5-1.8c-1.9,0-3.2,0.8-4.1,2.3v9.1c0.8,1.6,2.2,2.4,4.1,2.4c1.5,0,2.6-0.6,3.5-1.8
					C131.6,396.1,132,394.3,132,391.8z"/>
				<path d="M151.3,386c-0.6-0.1-1.2-0.2-1.9-0.2c-2.1,0-3.5,0.8-4.3,2.4v14.1h-4.6v-20.6h4.4l0.1,2.3c1.1-1.8,2.7-2.7,4.6-2.7
					c0.7,0,1.2,0.1,1.6,0.3L151.3,386z"/>
				<path d="M152.7,391.8c0-2,0.4-3.8,1.2-5.5c0.8-1.6,1.9-2.9,3.4-3.7c1.4-0.9,3.1-1.3,5-1.3c2.8,0,5,0.9,6.8,2.7
					c1.7,1.8,2.7,4.2,2.8,7.1l0,1.1c0,2-0.4,3.8-1.2,5.4c-0.8,1.6-1.9,2.8-3.4,3.7c-1.5,0.9-3.1,1.3-5,1.3c-2.9,0-5.2-1-7-2.9
					c-1.7-1.9-2.6-4.5-2.6-7.7V391.8z M157.3,392.2c0,2.1,0.4,3.8,1.3,5c0.9,1.2,2.1,1.8,3.7,1.8s2.8-0.6,3.6-1.8
					c0.9-1.2,1.3-3,1.3-5.4c0-2.1-0.4-3.7-1.3-5c-0.9-1.2-2.1-1.8-3.6-1.8c-1.5,0-2.7,0.6-3.6,1.8
					C157.7,388.1,157.3,389.9,157.3,392.2z"/>
				<path d="M177.4,402.3v-17.2h-3.1v-3.4h3.1v-1.9c0-2.3,0.6-4,1.9-5.3s3-1.9,5.3-1.9c0.8,0,1.7,0.1,2.6,0.3l-0.1,3.6
					c-0.5-0.1-1.1-0.2-1.8-0.2c-2.2,0-3.3,1.1-3.3,3.4v1.8h4.2v3.4H182v17.2H177.4z"/>
				<path d="M198.2,402.7c-2.9,0-5.3-0.9-7.1-2.8c-1.8-1.8-2.7-4.3-2.7-7.4V392c0-2.1,0.4-3.9,1.2-5.5c0.8-1.6,1.9-2.9,3.3-3.8
					s3-1.4,4.8-1.4c2.8,0,5,0.9,6.5,2.7c1.5,1.8,2.3,4.3,2.3,7.6v1.9H193c0.1,1.7,0.7,3,1.7,4s2.3,1.5,3.8,1.5
					c2.1,0,3.8-0.9,5.2-2.6l2.5,2.4c-0.8,1.2-1.9,2.2-3.3,2.9C201.4,402.4,199.9,402.7,198.2,402.7z M197.6,385.1
					c-1.3,0-2.3,0.4-3.1,1.3c-0.8,0.9-1.3,2.1-1.5,3.7h8.8v-0.3c-0.1-1.5-0.5-2.7-1.2-3.5C199.9,385.5,198.9,385.1,197.6,385.1z"/>
				<path d="M221.6,396.7c0-0.8-0.3-1.5-1-1.9c-0.7-0.4-1.8-0.8-3.4-1.1c-1.6-0.3-2.9-0.7-3.9-1.3c-2.3-1.1-3.5-2.7-3.5-4.9
					c0-1.8,0.7-3.3,2.2-4.5s3.4-1.8,5.7-1.8c2.5,0,4.5,0.6,6,1.8c1.5,1.2,2.3,2.8,2.3,4.7h-4.6c0-0.9-0.3-1.6-1-2.2
					c-0.7-0.6-1.5-0.9-2.6-0.9c-1,0-1.8,0.2-2.5,0.7c-0.6,0.5-1,1.1-1,1.9c0,0.7,0.3,1.3,0.9,1.7c0.6,0.4,1.8,0.8,3.6,1.2
					c1.8,0.4,3.2,0.9,4.3,1.4c1,0.6,1.8,1.2,2.3,2c0.5,0.8,0.8,1.7,0.8,2.8c0,1.9-0.8,3.4-2.3,4.5c-1.5,1.1-3.5,1.7-6,1.7
					c-1.7,0-3.2-0.3-4.5-0.9s-2.3-1.4-3.1-2.5s-1.1-2.2-1.1-3.4h4.5c0.1,1.1,0.5,1.9,1.2,2.5c0.8,0.6,1.8,0.9,3,0.9
					c1.2,0,2.1-0.2,2.8-0.7C221.3,398.1,221.6,397.5,221.6,396.7z"/>
				<path d="M229.3,391.8c0-2,0.4-3.8,1.2-5.5c0.8-1.6,1.9-2.9,3.4-3.7c1.4-0.9,3.1-1.3,5-1.3c2.8,0,5,0.9,6.8,2.7
					c1.7,1.8,2.7,4.2,2.8,7.1l0,1.1c0,2-0.4,3.8-1.2,5.4c-0.8,1.6-1.9,2.8-3.4,3.7c-1.5,0.9-3.1,1.3-5,1.3c-2.9,0-5.2-1-7-2.9
					c-1.7-1.9-2.6-4.5-2.6-7.7V391.8z M233.9,392.2c0,2.1,0.4,3.8,1.3,5c0.9,1.2,2.1,1.8,3.7,1.8s2.8-0.6,3.6-1.8
					c0.9-1.2,1.3-3,1.3-5.4c0-2.1-0.4-3.7-1.3-5c-0.9-1.2-2.1-1.8-3.6-1.8c-1.5,0-2.7,0.6-3.6,1.8
					C234.4,388.1,233.9,389.9,233.9,392.2z"/>
				<path d="M263.1,386c-0.6-0.1-1.2-0.2-1.9-0.2c-2.1,0-3.5,0.8-4.3,2.4v14.1h-4.6v-20.6h4.4l0.1,2.3c1.1-1.8,2.7-2.7,4.6-2.7
					c0.7,0,1.2,0.1,1.6,0.3L263.1,386z"/>
				<path d="M277.8,402.3c-0.2-0.4-0.4-1-0.5-1.9c-1.5,1.5-3.3,2.3-5.4,2.3c-2.1,0-3.8-0.6-5.1-1.8c-1.3-1.2-2-2.6-2-4.4
					c0-2.2,0.8-3.9,2.4-5.1c1.6-1.2,4-1.8,7-1.8h2.8v-1.4c0-1.1-0.3-1.9-0.9-2.6c-0.6-0.6-1.5-1-2.7-1c-1.1,0-1.9,0.3-2.6,0.8
					c-0.7,0.5-1,1.2-1,2h-4.6c0-1.1,0.4-2.2,1.1-3.2c0.7-1,1.8-1.8,3.1-2.3c1.3-0.6,2.7-0.8,4.3-0.8c2.4,0,4.3,0.6,5.8,1.8
					c1.4,1.2,2.2,2.9,2.2,5.1v9.3c0,1.9,0.3,3.3,0.8,4.4v0.3H277.8z M272.7,399c0.9,0,1.8-0.2,2.6-0.7s1.4-1,1.8-1.8v-3.9h-2.5
					c-1.7,0-3,0.3-3.9,0.9c-0.9,0.6-1.3,1.4-1.3,2.5c0,0.9,0.3,1.6,0.9,2.1C270.9,398.7,271.7,399,272.7,399z"/>
				<path d="M298.1,396.7c0-0.8-0.3-1.5-1-1.9c-0.7-0.4-1.8-0.8-3.4-1.1c-1.6-0.3-2.9-0.7-3.9-1.3c-2.3-1.1-3.5-2.7-3.5-4.9
					c0-1.8,0.7-3.3,2.2-4.5s3.4-1.8,5.7-1.8c2.5,0,4.5,0.6,6,1.8c1.5,1.2,2.3,2.8,2.3,4.7h-4.6c0-0.9-0.3-1.6-1-2.2
					c-0.7-0.6-1.5-0.9-2.6-0.9c-1,0-1.8,0.2-2.5,0.7c-0.6,0.5-1,1.1-1,1.9c0,0.7,0.3,1.3,0.9,1.7c0.6,0.4,1.8,0.8,3.6,1.2
					c1.8,0.4,3.2,0.9,4.3,1.4c1,0.6,1.8,1.2,2.3,2c0.5,0.8,0.8,1.7,0.8,2.8c0,1.9-0.8,3.4-2.3,4.5c-1.5,1.1-3.5,1.7-6,1.7
					c-1.7,0-3.2-0.3-4.5-0.9s-2.3-1.4-3.1-2.5s-1.1-2.2-1.1-3.4h4.5c0.1,1.1,0.5,1.9,1.2,2.5c0.8,0.6,1.8,0.9,3,0.9
					c1.2,0,2.1-0.2,2.8-0.7C297.8,398.1,298.1,397.5,298.1,396.7z"/>
				<path d="M308,404.7h-3.6l10.9-30.1h3.6L308,404.7z"/>
				<path d="M331.2,402.7c-2.9,0-5.3-0.9-7.1-2.8c-1.8-1.8-2.7-4.3-2.7-7.4V392c0-2.1,0.4-3.9,1.2-5.5c0.8-1.6,1.9-2.9,3.3-3.8
					s3-1.4,4.8-1.4c2.8,0,5,0.9,6.5,2.7c1.5,1.8,2.3,4.3,2.3,7.6v1.9H326c0.1,1.7,0.7,3,1.7,4c1,1,2.3,1.5,3.8,1.5
					c2.1,0,3.8-0.9,5.2-2.6l2.5,2.4c-0.8,1.2-1.9,2.2-3.3,2.9C334.5,402.4,332.9,402.7,331.2,402.7z M330.7,385.1
					c-1.3,0-2.3,0.4-3.1,1.3c-0.8,0.9-1.3,2.1-1.5,3.7h8.8v-0.3c-0.1-1.5-0.5-2.7-1.2-3.5C333,385.5,332,385.1,330.7,385.1z"/>
				<path d="M354.6,396.7c0-0.8-0.3-1.5-1-1.9c-0.7-0.4-1.8-0.8-3.4-1.1c-1.6-0.3-2.9-0.7-3.9-1.3c-2.3-1.1-3.5-2.7-3.5-4.9
					c0-1.8,0.7-3.3,2.2-4.5s3.4-1.8,5.7-1.8c2.5,0,4.5,0.6,6,1.8c1.5,1.2,2.3,2.8,2.3,4.7h-4.6c0-0.9-0.3-1.6-1-2.2
					c-0.7-0.6-1.5-0.9-2.6-0.9c-1,0-1.8,0.2-2.5,0.7c-0.6,0.5-1,1.1-1,1.9c0,0.7,0.3,1.3,0.9,1.7c0.6,0.4,1.8,0.8,3.6,1.2
					c1.8,0.4,3.2,0.9,4.3,1.4c1,0.6,1.8,1.2,2.3,2c0.5,0.8,0.8,1.7,0.8,2.8c0,1.9-0.8,3.4-2.3,4.5c-1.5,1.1-3.5,1.7-6,1.7
					c-1.7,0-3.2-0.3-4.5-0.9s-2.3-1.4-3.1-2.5s-1.1-2.2-1.1-3.4h4.5c0.1,1.1,0.5,1.9,1.2,2.5c0.8,0.6,1.8,0.9,3,0.9
					c1.2,0,2.1-0.2,2.8-0.7C354.3,398.1,354.6,397.5,354.6,396.7z"/>
				<path d="M380.1,395.7l4.2-14h4.9l-8.2,23.7c-1.3,3.5-3.4,5.2-6.4,5.2c-0.7,0-1.4-0.1-2.2-0.3v-3.6l0.9,0.1c1.2,0,2-0.2,2.6-0.6
					c0.6-0.4,1.1-1.1,1.4-2.1l0.7-1.8l-7.2-20.5h5L380.1,395.7z"/>
				<path d="M407.4,376.7v5h3.6v3.4h-3.6v11.5c0,0.8,0.2,1.4,0.5,1.7c0.3,0.3,0.9,0.5,1.7,0.5c0.5,0,1.1-0.1,1.6-0.2v3.6
					c-1.1,0.3-2.1,0.4-3,0.4c-3.6,0-5.3-2-5.3-5.9v-11.7h-3.4v-3.4h3.4v-5H407.4z"/>
				<path d="M427.1,400.3c-1.4,1.6-3.3,2.4-5.8,2.4c-2.2,0-3.9-0.7-5.1-2c-1.1-1.3-1.7-3.2-1.7-5.7v-13.3h4.6V395
					c0,2.6,1.1,3.9,3.3,3.9c2.2,0,3.8-0.8,4.6-2.4v-14.8h4.6v20.6h-4.4L427.1,400.3z"/>
				<path d="M442.1,376.7v5h3.6v3.4h-3.6v11.5c0,0.8,0.2,1.4,0.5,1.7c0.3,0.3,0.9,0.5,1.7,0.5c0.5,0,1.1-0.1,1.6-0.2v3.6
					c-1.1,0.3-2.1,0.4-3,0.4c-3.6,0-5.3-2-5.3-5.9v-11.7H434v-3.4h3.4v-5H442.1z"/>
				<path d="M447.8,391.8c0-2,0.4-3.8,1.2-5.5c0.8-1.6,1.9-2.9,3.4-3.7c1.4-0.9,3.1-1.3,5-1.3c2.8,0,5,0.9,6.8,2.7
					c1.7,1.8,2.7,4.2,2.8,7.1l0,1.1c0,2-0.4,3.8-1.2,5.4c-0.8,1.6-1.9,2.8-3.4,3.7c-1.5,0.9-3.1,1.3-5,1.3c-2.9,0-5.2-1-7-2.9
					c-1.7-1.9-2.6-4.5-2.6-7.7V391.8z M452.4,392.2c0,2.1,0.4,3.8,1.3,5c0.9,1.2,2.1,1.8,3.7,1.8s2.8-0.6,3.6-1.8
					c0.9-1.2,1.3-3,1.3-5.4c0-2.1-0.4-3.7-1.3-5c-0.9-1.2-2.1-1.8-3.6-1.8c-1.5,0-2.7,0.6-3.6,1.8
					C452.9,388.1,452.4,389.9,452.4,392.2z"/>
				<path d="M481.6,386c-0.6-0.1-1.2-0.2-1.9-0.2c-2.1,0-3.5,0.8-4.3,2.4v14.1h-4.6v-20.6h4.4l0.1,2.3c1.1-1.8,2.7-2.7,4.6-2.7
					c0.7,0,1.2,0.1,1.6,0.3L481.6,386z"/>
				<path d="M496.3,402.3c-0.2-0.4-0.4-1-0.5-1.9c-1.5,1.5-3.3,2.3-5.4,2.3c-2.1,0-3.8-0.6-5.1-1.8c-1.3-1.2-2-2.6-2-4.4
					c0-2.2,0.8-3.9,2.4-5.1c1.6-1.2,4-1.8,7-1.8h2.8v-1.4c0-1.1-0.3-1.9-0.9-2.6c-0.6-0.6-1.5-1-2.7-1c-1.1,0-1.9,0.3-2.6,0.8
					c-0.7,0.5-1,1.2-1,2h-4.6c0-1.1,0.4-2.2,1.1-3.2c0.7-1,1.8-1.8,3.1-2.3c1.3-0.6,2.7-0.8,4.3-0.8c2.4,0,4.3,0.6,5.8,1.8
					c1.4,1.2,2.2,2.9,2.2,5.1v9.3c0,1.9,0.3,3.3,0.8,4.4v0.3H496.3z M491.2,399c0.9,0,1.8-0.2,2.6-0.7c0.8-0.4,1.4-1,1.8-1.8v-3.9
					h-2.5c-1.7,0-3,0.3-3.9,0.9c-0.9,0.6-1.3,1.4-1.3,2.5c0,0.9,0.3,1.6,0.9,2.1C489.4,398.7,490.2,399,491.2,399z"/>
				<path d="M516.6,396.7c0-0.8-0.3-1.5-1-1.9c-0.7-0.4-1.8-0.8-3.4-1.1c-1.6-0.3-2.9-0.7-3.9-1.3c-2.3-1.1-3.5-2.7-3.5-4.9
					c0-1.8,0.7-3.3,2.2-4.5s3.4-1.8,5.7-1.8c2.5,0,4.5,0.6,6,1.8c1.5,1.2,2.3,2.8,2.3,4.7h-4.6c0-0.9-0.3-1.6-1-2.2
					c-0.7-0.6-1.5-0.9-2.6-0.9c-1,0-1.8,0.2-2.5,0.7c-0.6,0.5-1,1.1-1,1.9c0,0.7,0.3,1.3,0.9,1.7c0.6,0.4,1.8,0.8,3.6,1.2
					c1.8,0.4,3.2,0.9,4.3,1.4c1,0.6,1.8,1.2,2.3,2c0.5,0.8,0.8,1.7,0.8,2.8c0,1.9-0.8,3.4-2.3,4.5c-1.5,1.1-3.5,1.7-6,1.7
					c-1.7,0-3.2-0.3-4.5-0.9s-2.3-1.4-3.1-2.5s-1.1-2.2-1.1-3.4h4.5c0.1,1.1,0.5,1.9,1.2,2.5c0.8,0.6,1.8,0.9,3,0.9
					c1.2,0,2.1-0.2,2.8-0.7C516.3,398.1,516.6,397.5,516.6,396.7z"/>
				<path d="M526.5,404.7h-3.6l10.9-30.1h3.6L526.5,404.7z"/>
				<path d="M549.7,402.7c-2.9,0-5.3-0.9-7.1-2.8c-1.8-1.8-2.7-4.3-2.7-7.4V392c0-2.1,0.4-3.9,1.2-5.5c0.8-1.6,1.9-2.9,3.3-3.8
					c1.4-0.9,3-1.4,4.8-1.4c2.8,0,5,0.9,6.5,2.7c1.5,1.8,2.3,4.3,2.3,7.6v1.9h-13.5c0.1,1.7,0.7,3,1.7,4c1,1,2.2,1.5,3.8,1.5
					c2.1,0,3.8-0.9,5.2-2.6l2.5,2.4c-0.8,1.2-1.9,2.2-3.3,2.9C553,402.4,551.4,402.7,549.7,402.7z M549.2,385.1
					c-1.3,0-2.3,0.4-3.1,1.3c-0.8,0.9-1.3,2.1-1.5,3.7h8.8v-0.3c-0.1-1.5-0.5-2.7-1.2-3.5C551.5,385.5,550.5,385.1,549.2,385.1z"/>
				<path d="M573.1,396.7c0-0.8-0.3-1.5-1-1.9c-0.7-0.4-1.8-0.8-3.4-1.1c-1.6-0.3-2.9-0.7-3.9-1.3c-2.3-1.1-3.5-2.7-3.5-4.9
					c0-1.8,0.7-3.3,2.2-4.5c1.5-1.2,3.4-1.8,5.7-1.8c2.5,0,4.5,0.6,6,1.8c1.5,1.2,2.3,2.8,2.3,4.7h-4.6c0-0.9-0.3-1.6-1-2.2
					c-0.7-0.6-1.5-0.9-2.6-0.9c-1,0-1.8,0.2-2.5,0.7c-0.6,0.5-1,1.1-1,1.9c0,0.7,0.3,1.3,0.9,1.7c0.6,0.4,1.8,0.8,3.6,1.2
					c1.8,0.4,3.2,0.9,4.3,1.4c1,0.6,1.8,1.2,2.3,2c0.5,0.8,0.8,1.7,0.8,2.8c0,1.9-0.8,3.4-2.3,4.5c-1.5,1.1-3.5,1.7-6,1.7
					c-1.7,0-3.2-0.3-4.5-0.9s-2.3-1.4-3.1-2.5c-0.7-1.1-1.1-2.2-1.1-3.4h4.5c0.1,1.1,0.5,1.9,1.2,2.5c0.8,0.6,1.8,0.9,3,0.9
					c1.2,0,2.1-0.2,2.8-0.7C572.8,398.1,573.1,397.5,573.1,396.7z"/>
			</g>
		</g>
	</g>
	<path class="st2" d="M419,184.4v-84.2c0-4.2-3.4-7.6-7.6-7.6H293.2c-4.2,0-7.6-3.4-7.6-7.6V33.5c0-4.2-3.4-7.6-7.6-7.6h-78.8
		c-4.2,0-7.6,3.4-7.6,7.6v58.1c0,4.2-3.4,7.6-7.6,7.6h-63.6c-4.2,0-7.6,3.4-7.6,7.6v135.6c0,4.2,3.4,7.6,7.6,7.6H455
		c4.2,0,7.6-3.4,7.6-7.6v-42.9c0-4.2-3.4-7.6-7.6-7.6h-28.6C422.4,191.9,419,188.5,419,184.4z"/>
	<g>
		<path class="st3" d="M489.7,208.8H379.3c-4.5,0-8.2,3.7-8.2,8.2v73.2c0,4.5,3.7,8.2,8.2,8.2h110.4c4.5,0,8.2-3.7,8.2-8.2V217
			C497.9,212.5,494.2,208.8,489.7,208.8z"/>
		<rect x="377" y="214.7" class="st4" width="115" height="77.7"/>
		<g>
			<g>
				<g>
					<defs>
						<rect id="SVGID_1_" x="377" y="214.7" width="115" height="77.7"/>
					</defs>
					<clipPath id="SVGID_2_">
						<use xlink:href="#SVGID_1_"  style="overflow:visible;"/>
					</clipPath>
					<g class="st5">
						<line class="st6" x1="382.6" y1="238.3" x2="389.1" y2="231.8"/>
						<line class="st6" x1="407.8" y1="231.2" x2="416.5" y2="234.2"/>
						<line class="st6" x1="390.1" y1="263.9" x2="395.5" y2="267.9"/>
						<line class="st6" x1="474.9" y1="244.6" x2="484" y2="246"/>
						<line class="st6" x1="398.5" y1="289.8" x2="403.2" y2="285.6"/>
						<polygon class="st7" points="399,243.2 399.8,246 402,243.9 						"/>
						<polygon class="st7" points="475.9,220.2 474.6,222.8 477.6,222.7 						"/>
						<polygon class="st7" points="386.5,222.1 384.6,224.4 387.5,225 						"/>
						<polygon class="st3" points="381.5,276.6 378.7,277.5 380.8,279.6 						"/>
						<polygon class="st3" points="485.5,268.3 483.5,270.4 486.3,271.2 						"/>
						<polygon class="st3" points="486.5,222.4 487.4,225.2 489.4,223.1 						"/>
						<path class="st3" d="M391,249c0,0.5-0.4,1-1,1s-1-0.4-1-1s0.4-1,1-1S391,248.5,391,249z"/>
						<path class="st3" d="M415.4,219.1c0,0.5-0.4,1-1,1s-1-0.4-1-1s0.4-1,1-1S415.4,218.5,415.4,219.1z"/>
						<path class="st3" d="M469.9,230.8c0,0.5-0.4,1-1,1s-1-0.4-1-1s0.4-1,1-1S469.9,230.3,469.9,230.8z"/>
						<path class="st3" d="M474,289.1c0,0.5-0.4,1-1,1s-1-0.4-1-1s0.4-1,1-1S474,288.5,474,289.1z"/>
					</g>
				</g>
			</g>
			<g>
				<g>
					<defs>
						<rect id="SVGID_3_" x="377" y="214.7" width="115" height="77.7"/>
					</defs>
					<clipPath id="SVGID_4_">
						<use xlink:href="#SVGID_3_"  style="overflow:visible;"/>
					</clipPath>
					<g class="st8">
						<g>
							<path class="st9" d="M482,257.9c-3.2-4.7-9-6.9-12.7-11.2c-4.8-5.6-5.1-13.7-8.5-20.3c-3.2-6.3-9.4-10.7-16.2-12.3
								c-3.4-0.8-7-0.9-10.4-0.1c-1.8,0.4-3.4,1-5,1.8c-3.7,1.9-8.8,3.2-12,6.1c-3.3,3.1-5.5,7.6-5.9,12.1
								c-0.3,4.1,0.7,8.4-0.9,12.3c-1.5,3.8-5.2,6.1-7.6,9.4c-2.8,3.8-3.5,9.3-0.7,13.1c1.9,2.5,5.1,3.9,7,6.3
								c2.5,3.2,2.6,7.8,4.6,11.4c2.8,4.9,8.7,7,14,8.7c6.2,1.9,12.7,3.8,19.1,2.7c9.4-1.6,16.7-9.4,25.8-12
								c3.1-0.9,6.6-1.3,8.6-3.8c1.2-1.4,1.7-3.3,2.1-5.1C484.8,270.6,485.7,263.3,482,257.9z"/>
						</g>
						<g>
							<path class="st10" d="M481.3,282c1.2-1.4,1.7-3.3,2.1-5.1c0.2-0.7,0.3-1.4,0.4-2c0,0-0.1,0-0.1,0.1c-1.3,1.2-2,2.8-3.1,4.2
								c-2.2,2.7-5.6,4.3-9,4.1c-3.4-0.2-6.7-2.1-8.6-5.1c-1.1-1.8-2.7-3.2-4.7-4c-2.8-1.1-6.3,1.1-8.3-2.2c-1.2-2-0.3-4.7,0.6-6.7
								c1.7-4.1,2.1-5.6,1.7-8.6c-0.5-4.2-4.2-9.9-7.3-12.7c-3-2.9-6.4-5.6-8.2-9.5c-0.4-0.8-0.7-1.6-1.3-2.3
								c-0.9-0.9-2.3-1.1-3.6-1.2c-6.3-0.5-11,2.2-12.3,8.7c-0.5,2.6-0.6,5.3-1.3,7.9c-0.7,2.8-2,5.5-2.5,8.4
								c-0.5,3.8,0.8,7.7,3.1,10.7c5.8,7.3,4.5,16.9-5.9,18.5c0.2,0.4,0.4,0.9,0.6,1.3c2.8,4.9,8.7,7,14,8.7
								c6.2,1.9,12.7,3.8,19.1,2.7c9.4-1.6,16.7-9.4,25.8-12C475.7,284.9,479.2,284.5,481.3,282z"/>
						</g>
						<path class="st11" d="M429.3,279.1c0,0-17.2,3.5-22.1,29.2c0.8-0.3,55.4,1.4,55.4,0s7.7-2.8,7.7-2.8s-4.1-20.6-20.9-26"/>
						<path class="st12" d="M433.4,262.2v15.3l-4.1,1.7c0,0-1,6.1,4.1,7.3c7.7,1.9,16.1-6.9,16.1-6.9l-4.3-2.4l-4.1-20.4"/>
						<path class="st13" d="M442.7,264.9l-1.6-8.1l-7.7,5.4v8.2C436.7,269.4,440.2,267.7,442.7,264.9z"/>
						<path class="st12" d="M424.4,229.6c-2,6.5-3.8,13.1-5,19.7c-0.7,3.9-1.6,8.2,0,12c1.6,4,5.7,6.5,10,6.2s13.6-1.2,18.5-7.6
							s4.9-23,3.3-25.8C449.6,231.6,431,219,424.4,229.6z"/>
						<g>
							<path class="st9" d="M428.3,219.4c-6.6,1.5-7.5,5.5-8,10c-0.1,0.8,0,2.2,1,3.8c0.6,0.9,1.9,1.1,2.9,0.6s1.6-1.4,2.2-2.3
								c0,1.2,1.5,2,2.7,1.9c1.2-0.2,2.2-1,3.2-1.8c-1.6,3.1,2,7,5,4.7c0.7-0.5,1.9-1.8,2.4-2.4c-1.7,1.8,3.5,8.3,4,10
								c0.8,2.5,0.1,5.2,0.4,7.8c0.1,0.8,0.6,1.9,1.4,1.7c0.5-0.1,0.7-0.6,1.1-0.9c0.8-0.7,2-0.4,3-0.2c5.9,1.5,0,9.9,4.9,12.8
								c1.2,0.7,2.6,0.8,3.9,0.6c0.8-0.1,1.6-0.3,2.2-0.9c0.7-0.6,0.9-1.5,1.1-2.4c0.8-3.1,1.6-6.3,1.9-9.5
								c0.4-5.5-1.3-11.6-3.1-16.8c-1.3-3.8-2.8-7.5-5.2-10.7C449.4,217.5,437.3,214.7,428.3,219.4"/>
						</g>
						<g>
							<path class="st12" d="M447,252.4c1.2-1.1,3.4-0.9,4.4,0.4c0.4,0.5,0.6,1.1,0.7,1.7c0.5,2.6-0.9,5.9-3.3,6.9
								c-2.4,1-4.6,0.1-5-1.9"/>
						</g>
						<path class="st14" d="M423.3,242.7c0,0.5,0.4,1,1,1c0.5,0,1-0.4,1-1c0-0.5-0.4-1-1-1C423.8,241.8,423.3,242.2,423.3,242.7z"/>
						<path class="st14" d="M440.3,245.1c0,0.5-0.4,1-1,1c-0.5,0-1-0.4-1-1c0-0.5,0.4-1,1-1C439.9,244.2,440.3,244.6,440.3,245.1z"
							/>
						<g>
							<path class="st3" d="M423.8,256.5c1.1,1.5,4.4,2.2,6.3,1.4c0.3-0.1,0.6,0.1,0.6,0.4c0.2,3.3-2.4,4.8-5.2,4.1
								c-2.7-0.7-3.4-4.2-2.4-5.8C423.2,256.2,423.6,256.2,423.8,256.5z"/>
						</g>
						<g>
							<g>
								<path d="M428.5,246c-0.3,0.1-0.6,0.5-0.8,0.8c-0.5,0.6-1,1.3-1.4,2c-0.5,0.7-0.9,1.4-1.3,2.1c-0.4,0.8-0.5,1.6,0.1,2.3
									c0.4,0.4,0.9,0.7,1.5,0.8c0.6,0.2,1.4,0.4,2,0.1c0.1-0.1,0.1-0.2,0-0.3c-0.5-0.3-1.1-0.3-1.6-0.4c-0.5-0.1-1-0.3-1.3-0.6
									c-0.6-0.6-0.3-1.4,0.1-2c0.7-1.3,1.6-2.5,2.4-3.7c0.2-0.3,0.5-0.6,0.5-1C428.6,246,428.6,246,428.5,246L428.5,246z"/>
							</g>
						</g>
						<g>
							<g>
								<path class="st14" d="M437.2,241.5c1.1-0.3,2.3-0.3,3.2,0.3c0.9,0.5,1.4,1.3,1.9,2.2c0.1,0.1,0.2,0.1,0.2-0.1
									c-0.1-1.1-1-2-1.9-2.5c-1.1-0.6-2.4-0.7-3.5-0.2C436.9,241.3,437,241.6,437.2,241.5L437.2,241.5z"/>
							</g>
						</g>
						<g>
							<g>
								<path class="st14" d="M423,238.1c0.9-0.5,1.9-0.7,2.8-0.2c0.4,0.2,0.8,0.5,1,0.9c0.3,0.4,0.4,0.8,0.6,1.3
									c0,0.1,0.2,0.1,0.2,0c0.2-1.1-0.7-2.2-1.6-2.6c-1-0.5-2.3-0.4-3.2,0.5C422.7,238,422.9,238.2,423,238.1L423,238.1z"/>
							</g>
						</g>
					</g>
				</g>
			</g>
		</g>
	</g>
	<g>
		<path class="st3" d="M351.1,41.2H234.4c-4.3,0-7.8,3.5-7.8,7.8v76.6c0,4.3,3.5,7.8,7.8,7.8h116.7c4.3,0,7.8-3.5,7.8-7.8V49.1
			C358.9,44.7,355.4,41.2,351.1,41.2z"/>
		<rect x="236.6" y="46.2" class="st7" width="112.3" height="82.4"/>
		<g>
			<g>
				<g>
					<defs>
						<rect id="SVGID_5_" x="236.6" y="46.2" width="112.3" height="82.4"/>
					</defs>
					<clipPath id="SVGID_6_">
						<use xlink:href="#SVGID_5_"  style="overflow:visible;"/>
					</clipPath>
					<g class="st15">
						<polygon class="st16" points="335,62.7 333.6,69.1 340.4,67.7 						"/>
						<polygon class="st16" points="322.8,121 326.7,126.3 330,120.2 						"/>
						<polygon class="st16" points="253.8,66.8 247.3,67.8 251.1,73.6 						"/>
						<polygon class="st16" points="254.2,113.9 248.8,117.7 254.7,121.3 						"/>
						<polygon class="st16" points="292.1,45.1 286.6,41.5 285.5,48.3 						"/>
						
							<rect x="260.2" y="61.8" transform="matrix(0.739 -0.6738 0.6738 0.739 25.8246 192.4945)" class="st3" width="2.2" height="2.2"/>
						
							<rect x="340.9" y="56.9" transform="matrix(0.739 -0.6738 0.6738 0.739 50.1714 245.5474)" class="st3" width="2.2" height="2.2"/>
						
							<rect x="327.4" y="61.8" transform="matrix(0.9646 -0.2636 0.2636 0.9646 -4.9704 88.8293)" class="st17" width="2.2" height="2.2"/>
						
							<rect x="242.7" y="53.9" transform="matrix(0.8731 -0.4875 0.4875 0.8731 4.1033 125.8576)" class="st17" width="2.2" height="2.2"/>
						
							<rect x="345.5" y="100.3" transform="matrix(0.9647 -0.2635 0.2635 0.9647 -14.4612 94.8991)" class="st17" width="2.2" height="2.2"/>
						
							<rect x="235.5" y="103.7" transform="matrix(0.9647 -0.2635 0.2635 0.9647 -19.2461 66.0366)" class="st17" width="2.2" height="2.2"/>
						
							<rect x="328.9" y="112.3" transform="matrix(0.998 -6.323084e-02 6.323084e-02 0.998 -6.513 21.0931)" class="st3" width="2.2" height="2.2"/>
						
							<rect x="240.2" y="115.3" transform="matrix(0.998 -6.323092e-02 6.323092e-02 0.998 -6.8802 15.4906)" class="st3" width="2.2" height="2.2"/>
					</g>
				</g>
			</g>
			<g>
				<g>
					<defs>
						<rect id="SVGID_7_" x="236.6" y="46.2" width="112.3" height="82.4"/>
					</defs>
					<clipPath id="SVGID_8_">
						<use xlink:href="#SVGID_7_"  style="overflow:visible;"/>
					</clipPath>
					<g class="st18">
						<g>
							<g>
								<path class="st19" d="M295.1,106.9c3.7,5.2,10.6,7.2,17,7c1.5-0.1,3.1-0.2,4.4-1c1.7-1,2.1-2.2,2.9-3.8
									c0.9-1.5,2.5-2.7,4.1-3.3c2.3-0.9,4.8-1,7.3-1.2s5-0.5,7.1-1.9c4-2.5,5.3-7.9,4.4-12.5c-0.4-1.8-1.1-3.7-2.6-4.8
									c-2.5-1.8-6.3-0.8-8.7-2.8c-2.6-2.1-2-6.1-3.6-9.1c-1.7-3.2-5.5-4.6-9.1-5.2c-1.4-0.2-2.9-0.4-4.1-1c-2.2-1-3.7-3.2-5.2-5.1
									c-2.6-3.2-5.7-6.1-9.6-7.6c-3.8-1.5-8.4-1.5-11.9,0.7l-2.5,0.4c-4.6-1.3-9.8-0.2-13.8,2.5s-6.9,6.8-8.6,11.3
									c-0.9,2.3-1.6,4.8-3.5,6.3c-3.2,2.7-8.3,1.4-12.1,3.3c-1.4,0.7-2.6,1.8-3.6,3s-2,2.5-2.4,4c-1,3.8,1.8,7.7,5.2,9.6
									c1.1,0.6,2.3,1.2,3.1,2.1c0.7,0.7,1,1.7,1.5,2.5c3.1,5.7,8,10.3,14.2,12c4.5,1.2,10.7,0.2,15.3-0.2
									c4.6-0.4,9.2-2.1,12.5-5.4"/>
							</g>
							<g>
								<path class="st20" d="M342.3,90.2c-0.3-1.6-0.9-3.3-2.1-4.5c-0.2,0.4-0.2,0.8-0.1,1.3c0.3,3.7,0.4,8.2-2.7,10.1
									c-3.4,2-8.2-0.5-11.4,1.8c-1.2,0.8-1.8,2.2-2.7,3.3c-2.6,3.2-7.2,4.7-11.1,3.5c-0.4-0.1-0.8-0.3-1-0.6
									c-0.3-0.4-0.2-1-0.1-1.6c0.9-3.4,3.5-6.8,2.1-9.9c-0.6-1.4-2-2.3-2.9-3.5c-2.8-3.5-2.1-9.3-5.8-11.9
									c-1.6-1.1-3.7-1.3-5.7-1.4c-4.3-0.3-8.7-0.6-13-0.9h-11.2c-1.8-1.1-4,1-4.2,3.1s0.6,4.2,0.3,6.2c-0.4,3.8-4.4,6.8-4.1,10.7
									c0.2,2.6,2.3,4.9,2.1,7.5c-0.2,2.8-3.3,4.8-6,4.4c-2.8-0.4-5-2.6-6-5.2c-0.4-1-0.6-2.1-1.3-3c-1.7-2.3-5.3-2.1-7.5-4
									c-0.7-0.6-1.3-1.4-2.2-1.6c-0.5-0.1-0.9,0-1.3,0.1c0.7,0.6,1.4,1.2,2.2,1.6c1.1,0.6,2.3,1.2,3.1,2.1c0.7,0.7,1,1.7,1.5,2.5
									c3.1,5.7,8,10.3,14.2,12c4.5,1.2,10.7,0.2,15.3-0.2c4.6-0.4,9.2-2.1,12.5-5.4l2.2,0.1c3.7,5.2,10.6,7.2,17,7
									c1.5-0.1,3.1-0.2,4.4-1c1.7-1,2.1-2.2,2.9-3.8c0.9-1.5,2.5-2.7,4.1-3.3c2.3-0.9,4.8-1,7.3-1.2s5-0.5,7.1-1.9
									C341.9,100.2,343.2,94.8,342.3,90.2z"/>
							</g>
							<g>
								<g>
									<path class="st20" d="M311.1,88.2c1.3,1.5,2.6,3,3.2,4.9c0.6,2,0.3,4-0.5,5.8c-0.7,1.7-1.7,3.3-2.1,5.2
										c-0.3,1.6,0.6,3.1,2.1,3.7c0.3,0.1,0.5-0.2,0.3-0.4c-0.6-0.7-1.4-1.2-1.7-2.1c-0.3-1,0.2-2.1,0.5-3c0.7-1.7,1.6-3.3,2-5
										s0.2-3.5-0.5-5c-0.7-1.6-1.9-3-3.1-4.3C311.1,87.9,311,88,311.1,88.2L311.1,88.2z"/>
								</g>
							</g>
							<g>
								<g>
									<path class="st20" d="M319,86.9c1.4,2.8,4.3,4.7,4.9,8c0.3,1.9-0.2,3.6-0.8,5.3c-0.5,1.4-1.3,3.2-0.5,4.6
										c0.1,0.1,0.3,0.1,0.3,0c0.1-0.9,0.1-1.8,0.4-2.7c0.2-0.9,0.6-1.7,0.8-2.6c0.5-1.6,0.7-3.2,0.3-4.8
										c-0.8-3.2-3.6-5.1-5.2-7.8C319,86.8,319,86.9,319,86.9L319,86.9z"/>
								</g>
							</g>
							<g>
								<g>
									<path class="st20" d="M323,90.6c1.3,1.5,2.5,3.3,2.9,5.3c0.4,2.1-0.4,4-1.7,5.6c-0.1,0.1,0,0.4,0.2,0.3
										c1.7-1.2,2.3-3.6,2-5.6c-0.3-2.2-1.7-4.1-3.2-5.7C323.1,90.3,322.9,90.4,323,90.6L323,90.6z"/>
								</g>
							</g>
							<g>
								<g>
									<path class="st20" d="M328.3,83c2.2,2.5,5.4,3.5,8.2,5.2c1.6,1,2.9,2.2,3.3,4.1c0.4,1.8,0.3,3.8-0.6,5.5
										c-0.1,0.3,0.2,0.6,0.4,0.3c1.2-1.4,1.1-3.4,0.9-5.1c-0.2-1.9-1.1-3.3-2.6-4.5c-3-2.2-7-2.9-9.7-5.7
										C328.4,82.8,328.3,82.9,328.3,83L328.3,83z"/>
								</g>
							</g>
							<g>
								<g>
									<path class="st20" d="M330.3,87.8c1.9,1.5,3.3,3.5,3.9,5.8c0.3,1.2,0.6,2.7,0,3.9c-0.5,1.1-1.6,1.7-2.4,2.6
										c-0.1,0.1,0,0.3,0.2,0.2c1-0.7,2.1-1.4,2.7-2.6s0.4-2.6,0.1-3.9c-0.7-2.5-2.2-4.7-4.3-6.2
										C330.4,87.6,330.2,87.7,330.3,87.8L330.3,87.8z"/>
								</g>
							</g>
							<g>
								<g>
									<path class="st20" d="M264.3,80.2c-0.5,2.3-2.1,4.2-3.9,5.5c-1.9,1.4-4.2,2.2-6.4,3c-1.8,0.7-3.7,1.7-4.7,3.5
										c-0.9,1.7-0.8,3.8,0.2,5.5c0.2,0.3,0.7,0,0.5-0.3c-1.2-1.9-1-4.4,0.5-6c1.6-1.7,3.9-2.3,6-3.2c3.7-1.5,7.2-4,8-8.1
										C264.5,80.2,264.3,80.1,264.3,80.2L264.3,80.2z"/>
								</g>
							</g>
							<g>
								<g>
									<path class="st20" d="M262,85.9c-1.4,1.3-2.8,2.6-4.7,3.4c-1.3,0.5-2.6,1-3.8,1.7c-1.1,0.7-2.1,1.6-2.6,2.9
										c-0.6,1.6-0.6,3.5,0.3,4.9c0.1,0.2,0.5,0.1,0.4-0.2c-0.6-1.7-0.8-3.5,0.1-5.1c0.7-1.2,1.8-2,3-2.6s2.5-1,3.7-1.6
										c1.5-0.8,2.7-2,3.8-3.2C262.4,86,262.2,85.8,262,85.9L262,85.9z"/>
								</g>
							</g>
							<g>
								<g>
									<path class="st20" d="M268.2,87c-1.6,3-5.1,5.3-5.2,9c0,3.1,2.5,5.5,3,8.5c0.2,1,0,2-0.4,2.8c-0.2,0.5-0.5,0.9-0.9,1.3
										c-0.3,0.3-0.7,0.6-1,1c-0.1,0.2,0,0.4,0.2,0.3c1.4-0.3,2.4-2.2,2.6-3.5c0.3-1.5-0.1-2.9-0.7-4.3c-0.7-1.5-1.6-2.9-2-4.5
										c-0.6-1.9-0.1-3.7,0.9-5.3C265.8,90.5,267.3,88.9,268.2,87C268.4,87,268.3,87,268.2,87L268.2,87z"/>
								</g>
							</g>
							<g>
								<g>
									<path class="st20" d="M260.9,95.2c-1,2.3,0.3,4.6,1.4,6.6c0.6,1.2,1.2,2.4,1.1,3.8c0,1.4-0.7,2.4-1.4,3.5
										c-0.1,0.1,0.1,0.3,0.2,0.2c2-1.3,2-4.2,1.2-6.2C262.4,100.6,260,98.1,260.9,95.2C261.1,95.2,260.9,95.1,260.9,95.2
										L260.9,95.2z"/>
								</g>
							</g>
						</g>
						<g>
							<path class="st9" d="M326.1,120.2c-6-9-16.5-13.7-26.8-14.6c-11.5-1-24.3,0.1-34.6,5.7c-9.3,5.1-17,13.3-21.5,23
								c29.6,0.2,59.3,0.3,88.9,0.5C330.9,129.6,328.9,124.5,326.1,120.2z"/>
						</g>
						<g>
							<g>
								<path class="st21" d="M287.4,104.3c-0.4,1.4-0.7,2.9-0.8,4.4c1.5,1.6,6.5,2,8.3-0.5c0.1-0.4-1-6.7-1-6.7"/>
							</g>
							<g>
								<path class="st22" d="M294.8,107.1c-0.3-1.9-0.9-5.6-0.9-5.6l-6.4,2.7c-0.2,0.9-0.4,1.8-0.6,2.7
									C289.5,107.5,292.2,107.6,294.8,107.1z"/>
							</g>
							<g>
								<path class="st21" d="M276.4,67.3c-3.1,6.8-3.6,14.5-3.8,22c-0.1,3.4-0.1,7,1.8,9.9c1.6,2.4,4.3,3.9,6.9,5
									c6.5,2.6,14.4,3.3,19.9-1c5-3.9,6.6-11,5.5-17.2c-0.6-3.7-2-7.2-3.7-10.6c-1.2-2.4-2.5-6.4-4.7-8.1
									c-5.5-4.1-14.2-4.2-20.3-1.8"/>
							</g>
							<g>
								<path class="st22" d="M307,88.8c-1.6,1.7-1.6,7.3-5.4,9.3c-1,0.5-1.9,1.1-2.7,1.8c-1.5,1.2-2.5,2.9-3.1,4.6
									c-0.1,0.4-0.3,0.9-0.2,1.4c2.1-0.5,4-1.3,5.7-2.6C305.4,99.8,307.2,94.2,307,88.8z"/>
							</g>
							<g>
								<path class="st22" d="M281.6,100.1c-2-1.3-4.8-1.6-6.1-3.7c-0.5-0.8-0.7-1.7-1-2.6s-0.8-1.8-1.7-2.1c-0.1,0-0.2-0.1-0.3-0.1
									c0,2.7,0.3,5.4,1.8,7.6c1.6,2.4,4.3,3.9,6.9,5c1.1,0.5,2.3,0.9,3.5,1.2C284.6,103.2,283.4,101.2,281.6,100.1z"/>
							</g>
						</g>
						<path class="st21" d="M265.4,130.6l11.8-24.3c0,0-6.7-2.8-7.9-5.9c-1.4-3.6,0.5-8.7,1.8-10.8c1.2-2.1,2.9,4.3,3,7
							s7.2,4.6,8.1,7.6c0.9,3.1,1.4,28.3,1.4,28.3"/>
						<path class="st21" d="M313.7,130.6l-11.8-24.3c0,0,6.7-2.8,7.9-5.9c1.4-3.6-0.5-8.7-1.8-10.8c-1.2-2.1-2.9,4.3-3,7
							s-7.2,4.6-8.1,7.6c-0.9,3.1-1.4,28.3-1.4,28.3"/>
						<path class="st23" d="M286.6,108.6c1.2,1.1,2.8,1.6,4.4,1.5s3.1-0.8,4.2-2"/>
						<path class="st14" d="M299.1,82.6c0.3,0.4,0.3,1-0.1,1.3s-1,0.3-1.3-0.1s-0.3-1,0.1-1.3C298.2,82.2,298.8,82.3,299.1,82.6z"/>
						<path class="st14" d="M280.8,82.6c-0.3,0.4-0.3,1,0.1,1.3s1,0.3,1.3-0.1s0.3-1-0.1-1.3C281.7,82.2,281.1,82.3,280.8,82.6z"/>
						<g>
							<g>
								<path class="st22" d="M288.6,84.3c-0.4,1.4-0.8,2.9-1.1,4.3c-0.2,0.9-0.4,1.9-0.5,2.8s-0.1,2.2,0.9,2.6
									c0.6,0.3,1.6,0.2,2.2,0.1c0.7-0.1,1.6-0.4,1.9-1.1c0.1-0.2-0.1-0.5-0.3-0.3c-0.6,0.3-1,0.6-1.6,0.7s-1.7,0.3-2.1-0.2
									c-0.5-0.6-0.3-1.7-0.2-2.4c0.2-1.8,0.6-3.5,0.9-5.3c0.1-0.5,0.1-0.9,0.2-1.4C288.7,84.2,288.6,84.2,288.6,84.3L288.6,84.3z"
									/>
							</g>
						</g>
						<g>
							<g>
								<path class="st14" d="M296.4,79.2c1-0.5,2.2-0.7,3.3-0.4c0.5,0.1,1.1,0.3,1.5,0.6c0.5,0.3,0.9,0.7,1.3,1
									c0.1,0.1,0.3,0,0.2-0.2c-0.6-1-1.9-1.6-3-1.8c-1.2-0.2-2.4,0-3.4,0.6C296.2,79.1,296.3,79.3,296.4,79.2L296.4,79.2z"/>
							</g>
						</g>
						<g>
							<g>
								<path class="st14" d="M283.2,79c-1-0.6-2.2-0.8-3.4-0.6c-1.1,0.2-2.4,0.8-3,1.8c-0.1,0.2,0.1,0.3,0.2,0.2
									c0.4-0.4,0.8-0.7,1.3-1s1-0.5,1.6-0.6c1.1-0.2,2.3-0.1,3.3,0.4C283.3,79.3,283.4,79.1,283.2,79L283.2,79z"/>
							</g>
						</g>
						<g>
							<path class="st3" d="M292.1,96c-1.4,0.8-3.7,0.7-5.3-0.2c-0.2-0.1-0.5,0-0.6,0.2c-0.8,2.1,0,6.2,2.8,6.4
								c2.5,0.2,4.4-2.3,3.5-6.2C292.6,96,292.3,95.9,292.1,96z"/>
						</g>
						<g>
							<g>
								<path class="st19" d="M289.6,61.9c2.2-0.9,4.7-1,7-0.6c2.8,0.4,5.6,1.4,8,3.1c2.3,1.7,4.2,4.1,4.9,6.9
									c0.5,1.9,0.3,4.3-1.3,5.4c-1,0.7-2.3,0.8-3.6,0.8c-2.7-0.2-5.5-1.2-6.8-3.5c-0.3-0.5-0.5-1.1-1-1.3
									c-0.6-0.4-1.4-0.1-2.1-0.2c-1.8-0.3-2.4-2.5-3.5-3.9c-1-1.3-3.1-2.8-4.8-2.4c-1.6,0.3-2.6,2.2-3.1,3.7
									c-0.5,1.4-0.8,3.2-2.2,3.5c-0.6,0.2-1.3,0-1.9,0.3c-0.6,0.4-0.7,1.2-1.1,1.8c-0.7,1.1-2.3,1.3-3.6,1.2
									c-1.5,0-3.2-0.1-4.1-1.3c-0.6-0.7-0.8-1.6-0.8-2.5c-0.1-2.7,1.3-5.2,3.1-7.2c1.8-2,4.1-3.4,6.4-4.8"/>
							</g>
							<g>
								<g>
									<path class="st20" d="M307.8,76c-1.5,0.8-3.3,0.7-4.9,0c-1.5-0.7-2.8-1.8-4-3.1c-0.8-0.9-1.8-2-3-2c-0.5,0-1,0.1-1.4-0.1
										c-0.5-0.2-0.8-0.8-1-1.2c-0.9-1.5-2.4-2.5-4.1-2.8c0.7,0.5,1.4,1.1,1.8,1.7c1.1,1.5,1.7,3.6,3.5,3.9
										c0.7,0.1,1.5-0.1,2.1,0.2c0.5,0.3,0.7,0.9,1,1.3c1.3,2.3,4.2,3.4,6.8,3.5c1.2,0.1,2.6,0,3.6-0.8c0.9-0.7,1.4-1.8,1.5-3
										C309.4,74.7,308.7,75.5,307.8,76z"/>
								</g>
								<g>
									<path class="st20" d="M274.6,76.5c1.3,0,2.9-0.1,3.6-1.2c0.4-0.6,0.5-1.4,1.1-1.8c0.5-0.3,1.3-0.2,1.9-0.3
										c1.4-0.4,1.7-2.2,2.2-3.5v-0.1c-0.7,0.9-0.9,1.6-1.6,2.3c-0.3,0.2-1,0.3-1.4,0.4c-0.5,0.1-1,0-1.5,0
										c-1.3,0.1-1.9,1.6-2.9,2.4c-1.7,1.4-4.5,0.5-5.7-1.4c-0.2-0.2-0.4-0.5-0.6-0.7v0.1c0,0.9,0.2,1.8,0.8,2.5
										C271.4,76.4,273.1,76.5,274.6,76.5z"/>
								</g>
							</g>
							<g>
								<g>
									<path class="st20" d="M308.2,68.7c0.9,1.4,1.2,2.9,1.1,4.5c-0.1,0.6-0.2,1.2-0.5,1.7s-0.8,0.9-1.3,1.3
										c-0.2,0.1,0,0.4,0.2,0.3c1.4-0.4,1.9-1.9,2.1-3.1C310,71.6,309.6,69.8,308.2,68.7C308.3,68.6,308.2,68.7,308.2,68.7
										L308.2,68.7z"/>
								</g>
							</g>
							<g>
								<g>
									<path class="st20" d="M293.2,67.3c0.7,1.1,1.7,1.9,2.8,2.3c0.7,0.3,1.5,0.4,2.2,0.7c0.7,0.4,1.3,0.9,1.8,1.6
										c0.8,1.2,1.4,2.5,2.3,3.6c0.7,0.8,2.1,2.1,3.3,1.6c0.1-0.1,0.2-0.3,0.1-0.4c-0.6-0.3-1.2-0.3-1.8-0.7
										c-0.6-0.4-1.1-1-1.6-1.6c-0.7-1.1-1.3-2.3-2.2-3.3c-0.8-1-1.9-1.4-3.1-1.7C295.5,69,294.2,68.5,293.2,67.3
										C293.2,67.2,293.1,67.2,293.2,67.3L293.2,67.3z"/>
								</g>
							</g>
							<g>
								<g>
									<path class="st20" d="M299.3,69.2c1,0.4,1.8,1,2.5,1.8c0.8,0.9,1.1,2,1.6,3.1c0.4,0.9,0.9,1.7,1.7,2.3
										c0.6,0.4,1.8,0.9,2.5,0.3c0.1-0.1,0-0.2-0.1-0.2c-0.4-0.1-0.9,0-1.3-0.1c-0.5-0.1-0.9-0.4-1.3-0.8
										c-0.7-0.7-1.1-1.7-1.6-2.6c-0.4-0.9-1-1.7-1.8-2.4C300.9,70,300.1,69.5,299.3,69.2C299.3,69.2,299.2,69.2,299.3,69.2
										L299.3,69.2z"/>
								</g>
							</g>
							<g>
								<g>
									<path class="st20" d="M285.1,65c-0.8,0.1-1.4,0.7-1.9,1.4c-0.6,0.9-1,1.8-1.5,2.8c-0.4,0.9-0.7,2.3-1.6,2.8
										c-0.6,0.4-1.3,0.5-1.9,1c-0.5,0.4-0.9,0.8-1.1,1.4c-0.1,0.2,0.2,0.3,0.3,0.2c0.5-0.5,0.9-1.1,1.5-1.4s1.2-0.5,1.7-0.9
										c0.7-0.6,1-1.6,1.3-2.4c0.4-0.9,0.7-1.9,1.2-2.7C283.6,66.3,284.2,65.3,285.1,65L285.1,65L285.1,65z"/>
								</g>
							</g>
							<g>
								<g>
									<path class="st20" d="M282.1,65.3c-0.9,0.5-1.6,1.1-2.2,1.9s-1,1.8-1.3,2.7c-0.3,1-0.7,1.9-1.2,2.8c-0.5,1-1.3,1.7-2,2.4
										c-0.1,0.1,0,0.3,0.1,0.2c1.8-0.7,2.7-2.9,3.2-4.5c0.3-1,0.6-2,1.1-2.9C280.4,67.1,281.2,66.1,282.1,65.3
										C282.2,65.4,282.2,65.3,282.1,65.3L282.1,65.3z"/>
								</g>
							</g>
						</g>
						<g>
							<path class="st24" d="M298.5,122C298.5,122,298.4,122,298.5,122c-0.4,0-0.6-0.3-0.5-0.6c0-0.3,0.3-0.5,0.6-0.5h0.1
								c0.3,0,0.5,0.3,0.4,0.6C299,121.8,298.8,122,298.5,122z M301.3,121.8c-0.3,0-0.5-0.2-0.5-0.4c-0.1-0.3,0.1-0.6,0.4-0.6h0.1
								c0.3,0,0.6,0.2,0.6,0.5C301.9,121.5,301.7,121.8,301.3,121.8C301.4,121.8,301.3,121.8,301.3,121.8z M302.7,121.5
								c-0.3,0-0.5-0.2-0.5-0.4c-0.1-0.3,0.1-0.6,0.4-0.6h0.1c0.3,0,0.6,0.2,0.6,0.5C303.3,121.2,303.1,121.4,302.7,121.5
								C302.8,121.5,302.8,121.5,302.7,121.5z M304.2,120.9c-0.3,0-0.5-0.2-0.5-0.4c-0.1-0.3,0.1-0.6,0.4-0.6h0.1
								c0.3,0,0.6,0.2,0.6,0.5C304.7,120.6,304.5,120.9,304.2,120.9L304.2,120.9z M307.4,118.5c-0.3,0-0.5-0.2-0.5-0.4
								c-0.1-0.3,0.1-0.6,0.4-0.6h0.1c0.3,0,0.6,0.2,0.6,0.5C307.9,118.2,307.7,118.5,307.4,118.5L307.4,118.5z M299.9,122
								c-0.3,0-0.5-0.2-0.5-0.4c-0.1-0.3,0.1-0.6,0.4-0.6h0.1c0.3,0,0.6,0.2,0.6,0.5C300.4,121.7,300.2,122,299.9,122L299.9,122z
								 M297.1,121.8c-0.1,0-0.1,0-0.2,0c-0.3-0.1-0.5-0.4-0.4-0.7c0.1-0.3,0.4-0.4,0.7-0.4l0,0c0.3,0.1,0.4,0.4,0.4,0.7
								C297.6,121.6,297.3,121.8,297.1,121.8z M295.8,121.2c-0.1,0-0.2,0-0.3-0.1s-0.2-0.3-0.2-0.4c0-0.4,0.5-0.7,0.9-0.4
								c0.2,0.2,0.3,0.5,0.1,0.8C296.2,121.1,296,121.2,295.8,121.2z M305.2,120.4c-0.2,0-0.4-0.1-0.5-0.3c-0.1-0.3-0.1-0.6,0.2-0.7
								l0,0c0.3-0.1,0.6-0.1,0.7,0.2c0.1,0.3,0.1,0.6-0.2,0.7C305.4,120.3,305.3,120.4,305.2,120.4z M306.4,119.6
								c-0.2,0-0.3-0.1-0.4-0.2c-0.2-0.2-0.2-0.6,0.1-0.7l0,0c0.2-0.2,0.6-0.1,0.8,0.1c0.2,0.2,0.1,0.6-0.1,0.8
								C306.6,119.5,306.5,119.6,306.4,119.6z"/>
						</g>
					</g>
				</g>
			</g>
		</g>
	</g>
	<g>
		<rect x="167.5" y="301.7" class="st24" width="56.3" height="28.3"/>
		<polygon class="st25" points="167.5,312.4 167.5,301.7 223.8,305.6 		"/>
		<path class="st26" d="M295.5,158.4H95.8c-4.4,0-8.1,3.6-8.1,8.1v131.1c0,4.4,3.6,8.1,8.1,8.1h199.7c4.4,0,8.1-3.6,8.1-8.1V166.4
			C303.5,162,299.9,158.4,295.5,158.4z"/>
		<g>
			<g>
				<defs>
					<rect id="SVGID_9_" x="96.6" y="166.3" width="198.2" height="131.4"/>
				</defs>
				<clipPath id="SVGID_10_">
					<use xlink:href="#SVGID_9_"  style="overflow:visible;"/>
				</clipPath>
				<g transform="matrix(1 0 0 1 0 0)" class="st27">
					
						<image style="overflow:visible;enable-background:new    ;" width="1200" height="630" xlink:href="Zoom-icon-logo-thumbnail.png"  transform="matrix(0.2329 0 0 0.2329 55.9057 158.846)">
					</image>
				</g>
			</g>
		</g>
		<path class="st26" d="M244.4,330h-97.6l0,0c0-4.2,3.4-7.7,7.7-7.7h82.2C241,322.3,244.4,325.7,244.4,330L244.4,330z"/>
	</g>
	<g>
		<path class="st26" d="M500.3,56.2H393.2c-3.6,0-6.5,2.9-6.5,6.5v105.9c0,3.6,2.9,6.5,6.5,6.5h107.1c3.6,0,6.5-2.9,6.5-6.5v-106
			C506.7,59.1,503.8,56.2,500.3,56.2z"/>
		<rect x="393.8" y="62.5" class="st9" width="105.9" height="106.1"/>
	</g>
	<g>
		<path class="st28" d="M159.4,146.4h48.5c4.3,0,7.8-3.5,7.8-7.8V61.9c0-4.3-3.5-7.8-7.8-7.8h-48.5c-4.3,0-7.8,3.5-7.8,7.8v76.6
			C151.6,142.9,155.1,146.4,159.4,146.4z"/>
		<rect x="156.4" y="59" class="st29" width="54.5" height="82.4"/>
		<g>
			<g>
				<g>
					<defs>
						<rect id="SVGID_11_" x="156.4" y="59" width="54.5" height="82.4"/>
					</defs>
					<clipPath id="SVGID_12_">
						<use xlink:href="#SVGID_11_"  style="overflow:visible;"/>
					</clipPath>
					<g class="st30">
						<g>
							<g>
								<path class="st9" d="M150.9,93.6c0.2-5.1,4.5-8.6,8.7-10.7c2.4-1.2,4.9-2.1,7.3-3.3c2-1,4.4-2.1,5.6-4.2s0.8-4.5,0.9-6.8
									c0.1-2.2,1-4,2.7-5.4c2.7-2.3,6.6-3.8,7.8-7.5c0.8-2.5,0-5.2-1.4-7.3c-1.6-2.3-4-4-6.4-5.4c-0.2-0.1-0.4,0.1-0.2,0.3
									c1.9,1.6,4,3,5.6,5c1.5,1.9,2.5,4.5,1.9,7c-1,3.7-5.2,5.3-7.8,7.6c-1.4,1.3-2.4,2.8-2.6,4.7c-0.3,2.3,0.3,4.9-0.7,7.2
									c-1,2.3-3.7,3.5-5.8,4.5c-2.4,1.1-4.9,2-7.2,3.3c-4.2,2.2-8.5,6-8.6,11.1C150.5,93.9,150.9,93.9,150.9,93.6L150.9,93.6z"/>
							</g>
						</g>
						<g>
							<g>
								<path class="st9" d="M150.5,83.7c0.3-3.3,4.6-4.2,7.1-5.2c3.1-1.2,6.1-2.8,8.4-5.1c1.2-1.1,2.1-2.4,2.9-3.9
									c0.8-1.7,1.2-3.4,1.6-5.3c0.3-1.9,0.6-3.8,1.2-5.7c0.6-1.7,1.5-3.3,2.7-4.7c1.3-1.4,2.8-2.6,4.4-3.6c1.7-1.1,3.5-1.9,5.1-3
									c0.2-0.1,0.1-0.4-0.1-0.3c-1.7,0.6-3.2,1.4-4.7,2.3c-1.5,0.9-2.9,1.9-4.2,3.1c-1.2,1.1-2.3,2.4-3,3.9
									c-0.9,1.7-1.3,3.6-1.6,5.5c-0.3,2-0.6,4-1.2,5.9c-0.6,1.7-1.6,3.3-2.8,4.6c-2.4,2.6-5.6,4.4-8.9,5.7c-2.7,1-7,2.1-7,5.7
									C150.2,83.9,150.4,83.9,150.5,83.7L150.5,83.7z"/>
							</g>
						</g>
						<g>
							<g>
								<path class="st9" d="M151.1,76.5c4.4-2.5,8.9-5.2,12-9.4c1.6-2.1,2.6-4.6,3.3-7.2c0.8-2.8,1.3-5.8,2.6-8.4
									c0.7-1.4,1.5-2.7,2.4-3.9c1-1.3,2.1-2.4,3.1-3.6c0.1-0.1-0.1-0.3-0.2-0.2c-1.1,0.7-2,1.7-2.9,2.8c-0.8,1-1.6,2.1-2.2,3.2
									c-1.4,2.5-2.1,5.1-2.8,7.9c-0.7,2.7-1.4,5.5-2.9,7.9c-1.4,2.2-3.2,4-5.2,5.7c-2.3,1.9-4.8,3.5-7.3,5
									C150.8,76.4,151,76.6,151.1,76.5L151.1,76.5z"/>
							</g>
						</g>
						<g>
							<g>
								<path class="st9" d="M229.4,136.2c-3.5-3.5-6.3-7.5-8.1-12.1c-2-5.1-2.3-10.6-2.7-16c-0.2-2.7-0.6-5.4-1.2-8
									s-1.5-5.1-2.6-7.5c-1.1-2.5-2.3-4.9-3.6-7.3c-1.1-2.1-2.2-4.4-3.7-6.2c-1.2-1.5-3-2.6-5-1.9c-1.6,0.6-2.5,2.3-2.7,3.9
									c-0.3,2.1,0.4,4,1.2,5.9c0.5,1.2,1,2.4,1.3,3.7c0.2,1.3,0.1,2.7-0.3,4c-0.7,2.3-1.8,4.5-2,7c-0.1,2.1,0.5,4.1,2.2,5.3
									c1,0.7,2.1,1.1,3.1,1.8c0.8,0.7,1.4,1.5,1.9,2.4c0.9,1.8,1.3,3.9,1.7,5.9c0.4,2.1,0.7,4.2,1.5,6.2c0.7,2,1.7,3.9,3,5.7
									c2.4,3.5,5.8,6.3,9.6,8.2c0.9,0.5,1.9,0.8,2.9,1.1c0.5,0.1,0.7-0.6,0.2-0.7c-4-1.4-7.5-3.8-10.3-6.9
									c-2.8-3.2-4.7-7-5.5-11.1c-0.7-3.7-1-8-3.7-10.9c-1.5-1.5-4-1.9-5-3.9s-0.5-4.4,0.2-6.3c0.8-2.3,1.9-4.7,1.7-7.2
									c-0.2-2.4-1.5-4.5-2.3-6.7c-0.6-1.7-0.6-3.7,0.4-5.3c0.5-0.7,1.2-1.3,2.1-1.3c1-0.1,2,0.4,2.7,1.1c1.7,1.6,2.7,3.8,3.8,5.8
									c1.2,2.3,2.5,4.6,3.5,6.9c1.1,2.4,2.1,4.8,2.8,7.3c0.8,2.6,1.2,5.3,1.5,7.9c0.5,5.2,0.6,10.5,2.2,15.5
									c1.4,4.3,3.6,8.4,6.7,11.8c0.8,0.9,1.6,1.7,2.5,2.4C229.3,136.6,229.6,136.4,229.4,136.2L229.4,136.2z"/>
							</g>
						</g>
						<g>
							<g>
								<path class="st9" d="M220.3,132.3c-2.7-3.3-4.8-7.1-6.2-11.1c-0.7-1.9-1.2-3.9-1.5-6c-0.3-2-0.6-4-1.2-5.9s-1.6-3.4-3-4.9
									c-1.4-1.4-2.4-2.9-2.7-4.8c-0.6-3.6,0.5-7.3,0.4-10.9c-0.1-1.9-0.5-3.8-1.6-5.4c-1-1.5-2.9-3.4-1.9-5.3
									c0.2-0.4-0.4-0.7-0.6-0.4c-0.8,1.6-0.2,3,0.7,4.4c1.1,1.6,2.1,3,2.5,5c0.7,3.7-0.6,7.5-0.4,11.3c0.1,1.7,0.5,3.4,1.4,4.8
									c0.6,0.9,1.3,1.6,2,2.3c0.7,0.8,1.4,1.6,1.8,2.6c0.9,1.9,1.2,4,1.5,6c0.3,2.1,0.7,4.2,1.4,6.3c1.4,4.5,3.8,8.7,6.9,12.3
									C220.1,132.7,220.4,132.4,220.3,132.3L220.3,132.3z"/>
							</g>
						</g>
						<g>
							<g>
								<path class="st9" d="M204.4,77.5c1.2,3.1,2.4,6.3,3.1,9.5c0.3,1.6,0.5,3.3,0.5,5s-0.4,3.4-0.2,5.1c0.4,3,2.5,5.6,3.9,8.2
									c1.6,2.9,2.9,5.8,4,8.9c0.6,1.7,1.2,3.4,1.7,5.1s0.8,3.5,1.4,5.2c0.1,0.3,0.6,0.2,0.5-0.1c-0.2-1.6-0.6-3.1-1-4.7
									c-0.4-1.5-0.9-3-1.4-4.5c-1-3-2.3-5.9-3.7-8.7c-0.7-1.5-1.6-2.9-2.4-4.3c-0.8-1.3-1.7-2.7-2.1-4.2c-0.5-1.7-0.1-3.5,0-5.3
									c0.1-1.6,0-3.1-0.3-4.7c-0.7-3.7-2.1-7.2-3.7-10.6C204.6,77.2,204.3,77.3,204.4,77.5L204.4,77.5z"/>
							</g>
						</g>
					</g>
				</g>
			</g>
			<g>
				<g>
					<defs>
						<rect id="SVGID_13_" x="156.4" y="59" width="54.5" height="82.4"/>
					</defs>
					<clipPath id="SVGID_14_">
						<use xlink:href="#SVGID_13_"  style="overflow:visible;"/>
					</clipPath>
					<g class="st31">
						<g>
							<g>
								<path class="st32" d="M176.1,125.2c-1,4.2-1.9,8.5-2.6,12.9c0,0-14.7-1.2-15.2-4s5.7-18,5.7-18L176.1,125.2z"/>
							</g>
							<g>
								<path class="st33" d="M161.7,121.9c3.1,4.8,7.6,8.8,12.7,11.1c0.5-2.6,1-5.2,1.7-7.8l-12.1-9.1
									C164,116.1,162.9,118.7,161.7,121.9z"/>
							</g>
							<line class="st34" x1="188" y1="100.9" x2="195.3" y2="98.1"/>
							<g>
								<path class="st32" d="M189,92.5c1.8,6.8,4.2,18.5,4.5,25.4c0.2,5.5-2.3,10.7-7.2,11.9c-4.2,1.1-8.7,0.8-12.8-0.7
									c-10.8-3.8-19.5-15.3-18.7-27c0.3-4.6,2.3-8.9,4.5-12.9c1.5-2.6,3.1-5.3,5.6-7c3.9-2.7,9.1-2.4,13.9-2
									c2.1,0.2,4.3,0.4,6.3,1.3c3,1.5,1.3,6.6,3,9.5"/>
							</g>
							<g>
								<path class="st35" d="M189.9,96.3c0.7,0,1.2-2.2,1.2-3c0-3.9-1.5-7.7-3.8-10.7c-2.8-3.6-6.9-6-11.2-7.1
									c-5.4-1.3-11.9-1.6-17.3-0.3c-2.9,0.7-5.3,2.4-7.5,4.3c-4.2,3.7-7.1,8.9-8.2,14.5c-0.4,1.9-0.5,3.8-0.5,5.8
									c0.2,5.5,2.2,10.7,5.3,15.2c2.7,4,11.7,10.5,15.6,6.7c0.8-0.8-3.8-11-3.6-11.1c2.6-1.3,4-5.4,4-8.3s-0.4-6,0.9-8.6
									c0.1-0.3,0.3-0.6,0.6-0.7c0.8-0.3,1.8,0.2,2.5,0.4c2.6,0.8,5.9,1.2,8.4-0.3c1.1-0.6,1.8-1.8,2.8-2.6
									c1.8-1.4,4.5-1.4,6.5-0.2c1.3,0.7,2.3,1.9,3.1,3.2"/>
							</g>
							<g>
								<g>
									<path class="st32" d="M161.6,110.8c-1.8-0.9-4.2,0.2-4.9,2.1c-0.2,0.7-0.3,1.5-0.2,2.2c0.4,3.2,3.1,6.5,6.2,6.9
										s5.3-1.5,5-4"/>
								</g>
							</g>
							<path class="st14" d="M173.7,106.6c0.4,0.3,0.4,0.9,0,1.3c-0.3,0.4-0.9,0.4-1.3,0c-0.4-0.3-0.4-0.9,0-1.3
								C172.7,106.2,173.3,106.2,173.7,106.6z"/>
							<path class="st14" d="M188,101.8c0.4,0.3,0.4,0.9,0,1.3s-0.9,0.4-1.3,0c-0.4-0.3-0.4-0.9,0-1.3
								C187.1,101.5,187.7,101.5,188,101.8z"/>
							<g>
								<g>
									<path class="st36" d="M184.1,105.9c1.4,2.1,2.6,4.3,3.2,6.8c0.3,1,0.7,2.5,0.1,3.5c-0.8,1.4-2.5,0.6-3.7,0.6
										c-0.2,0-0.3,0.3-0.1,0.4c1.1,0.7,2.8,0.8,3.9,0s1-2.3,0.7-3.5c-0.5-3-1.8-5.8-3.9-8C184.3,105.6,184.1,105.8,184.1,105.9
										L184.1,105.9z"/>
								</g>
							</g>
							<g>
								<g>
									<path class="st14" d="M183.1,98c-0.1-0.9,0.5-1.8,1.1-2.4c0.3-0.3,0.7-0.5,1.1-0.5c0.2,0,0.4,0,0.6,0.1
										c0.1,0,0.2,0.1,0.3,0.1c0.1,0.1,0.2,0.1,0.3,0.2c0.1,0,0.2-0.1,0.2-0.2c0-0.2-0.4-0.4-0.6-0.5s-0.5-0.1-0.7-0.1
										c-0.5,0-1,0.3-1.3,0.6c-0.4,0.4-0.6,0.8-0.9,1.3c-0.2,0.5-0.4,1-0.3,1.5C183,98.2,183.2,98.2,183.1,98L183.1,98z"/>
								</g>
							</g>
							<g>
								<g>
									<path class="st14" d="M174.1,100.5c-0.7-0.6-1.3-1.2-2.2-1.6c-0.6-0.3-1.3-0.4-2-0.3c-0.7,0-1.4,0.2-2,0.5
										c-0.4,0.2-1.2,0.7-1.1,1.2c0,0.1,0.2,0.2,0.3,0.1c0.2-0.2,0.2-0.4,0.4-0.6c0.2-0.2,0.4-0.3,0.7-0.4
										c0.6-0.3,1.2-0.4,1.8-0.4c0.6,0,1.2,0,1.7,0.3c0.8,0.3,1.5,0.9,2.1,1.5C174.1,100.7,174.2,100.6,174.1,100.5L174.1,100.5z"
										/>
								</g>
							</g>
							<g>
								<ellipse class="st37" cx="191" cy="102.4" rx="6.3" ry="6.3"/>
								<path class="st34" d="M179.7,106c0.3-1.7,3-3.3,5.1-1.7"/>
								<path class="st34" d="M155.2,111.1c3.3-1.2,6.6-2.4,10-3.4"/>
								<path class="st34" d="M179.9,106.9c0.5,4-2.3,7.6-6.3,8.1s-7.6-2.3-8.1-6.3s2.3-7.6,6.3-8.1S179.4,102.9,179.9,106.9z"/>
							</g>
							<g>
								<path class="st3" d="M187.4,119.1c-1.1,0.7-3.2,0.9-4.6,0.5c-0.2-0.1-0.4,0-0.5,0.2c-0.5,1.6,0.5,4.4,3.1,4.3
									c2.2-0.2,3.6-2.1,2.6-4.8C187.8,119,187.6,118.9,187.4,119.1z"/>
							</g>
						</g>
						<g>
							<path class="st26" d="M196.3,158.7c-0.9-6-2-12.4-6.2-16.6c-2.2-2.2-5-3.6-7.9-4.7c-5.2-2-22.7-6.6-28.3-6.9l-1.7,28.1
								L196.3,158.7L196.3,158.7z"/>
						</g>
						<g>
							<g>
								<path class="st21" d="M191.8,144.1c-0.3-2.7-0.6-5.6,0.9-7.8c0.7-1.1,1.8-1.9,2.6-2.9c0.8-1.1,1.4-2.3,1.6-3.6
									c0.1-0.4,0.1-0.9,0.5-1.1c0.4-0.2,0.9,0.1,1.1,0.4c1,1.3,1.1,3.2,0.3,4.7c2.2-0.1,3.6-0.1,5.8-0.2c1.2,0,2.7,0.1,3,1.3
									c0.2,0.6-0.1,1.3-0.5,1.8s-1,0.8-1.6,1.1c0.9,0.3,1.7,1.2,0.9,2.8c0.5,0.3,1.5,1,0.3,2.7c0.8,0.2,1,1.4,0.1,2.2
									c-0.5,0.5-1.2,0.6-1.8,0.7c-0.7,0.1-1.4,0.3-2.2,0.4c-0.6,0.1-1.3,0.1-1.9,0s-1.2-0.5-1.6-1.1c-0.9,0.8-2,1.6-3.1,1.4
									c-0.5-0.1-1-0.3-1.4-0.5c-0.8-0.5-1.6-1.1-2.3-1.8"/>
							</g>
							<g>
								<g>
									<path class="st22" d="M201.7,134.1c-0.7,0.1-1.5,0.3-2.1,0.7c-0.3,0.2-0.6,0.4-0.7,0.7s-0.2,0.6-0.3,0.9
										c-0.1,0.6,0.1,1.3,0.7,1.5c0.7,0.3,1.4,0.3,2.1,0.2c0.5,0,0.9-0.1,1.3-0.1c0.4-0.1,0.9-0.1,1.3-0.3
										c0.1-0.1,0.1-0.2-0.1-0.3c-0.4,0-0.8,0.1-1.2,0.2c-0.4,0.1-0.9,0.1-1.3,0.1s-0.9,0-1.3-0.1c-0.3-0.1-0.7-0.1-0.9-0.4
										c-0.3-0.3-0.2-0.7-0.1-1c0.1-0.4,0.2-0.7,0.5-1c0.3-0.2,0.7-0.4,1-0.6C201,134.4,201.4,134.2,201.7,134.1
										C202,134.3,201.9,134,201.7,134.1L201.7,134.1z"/>
								</g>
							</g>
							<g>
								<g>
									<path class="st22" d="M197.9,135.3c0.2,1.4,0.1,2.9-0.5,4.2c-0.2,0.5-0.5,1-0.9,1.4s-0.9,0.7-1.4,1
										c-0.1,0.1-0.1,0.3,0.1,0.3c1.3,0.1,2.3-1.4,2.8-2.4c0.7-1.5,0.8-3.1,0.4-4.6C198.2,134.9,197.8,135,197.9,135.3
										L197.9,135.3z"/>
								</g>
							</g>
							<g>
								<g>
									<path class="st22" d="M199.9,138c-0.7,0.4-1,1.1-0.9,1.9c0.2,0.8,1,1.3,1.7,1.5c0.9,0.2,1.8,0.2,2.7,0
										c0.5-0.1,0.9-0.2,1.4-0.3c0.4-0.1,0.9-0.2,1.3-0.5c0.1-0.1,0.1-0.4-0.1-0.4c-0.4-0.1-0.7,0.1-1,0.1
										c-0.4,0.1-0.7,0.2-1.1,0.3c-0.7,0.2-1.5,0.3-2.2,0.2c-0.7,0-1.4-0.2-1.9-0.7c-0.2-0.3-0.4-0.6-0.3-1s0.3-0.7,0.6-0.9
										C200.1,138.1,200,138,199.9,138L199.9,138z"/>
								</g>
							</g>
							<g>
								<g>
									<path class="st22" d="M200,140.9c-0.7,0.4-1,1.1-0.9,1.9c0.2,0.8,1,1.3,1.7,1.5c0.9,0.2,1.8,0.2,2.7,0
										c0.5-0.1,0.9-0.2,1.4-0.3c0.4-0.1,0.9-0.2,1.3-0.5c0.1-0.1,0.1-0.4-0.1-0.4c-0.4-0.1-0.7,0.1-1,0.1
										c-0.4,0.1-0.7,0.2-1.1,0.3c-0.7,0.2-1.5,0.3-2.2,0.2c-0.7,0-1.4-0.2-1.9-0.7c-0.2-0.3-0.4-0.6-0.3-1s0.3-0.7,0.6-0.9
										C200.3,141,200.1,140.9,200,140.9L200,140.9z"/>
								</g>
							</g>
						</g>
					</g>
				</g>
			</g>
		</g>
	</g>
	<g>
		<g>
			<path class="st38" d="M404.5,42h-36l4.3-4.4V19.9c0-3.8,3.1-6.9,6.9-6.9h24.8c3.8,0,6.9,3.1,6.9,6.9v15.2
				C411.4,38.9,408.4,42,404.5,42z"/>
			<g>
				<path class="st39" d="M387,27.5c0,1.2-1,2.2-2.2,2.2s-2.2-1-2.2-2.2s1-2.2,2.2-2.2S387,26.3,387,27.5z"/>
				<path class="st39" d="M394.9,27.5c0,1.2-1,2.2-2.2,2.2s-2.2-1-2.2-2.2s1-2.2,2.2-2.2S394.9,26.3,394.9,27.5z"/>
				<path class="st39" d="M402.7,27.5c0,1.2-1,2.2-2.2,2.2s-2.2-1-2.2-2.2s1-2.2,2.2-2.2S402.7,26.3,402.7,27.5z"/>
			</g>
		</g>
		<g>
			<path class="st38" d="M100.2,133.5h32.1l-3.6-3.8v-16c0-3.4-2.8-6.2-6.2-6.2h-22.3c-3.4,0-6.2,2.8-6.2,6.2v13.7
				C94.1,130.8,96.8,133.5,100.2,133.5z"/>
			<g>
				<path class="st39" d="M116,121.6c0,1.1,0.9,2,2,2s2-0.9,2-2s-0.9-2-2-2S116,120.5,116,121.6z"/>
				<path class="st39" d="M108.9,121.6c0,1.1,0.9,2,2,2s2-0.9,2-2s-0.9-2-2-2S108.9,120.5,108.9,121.6z"/>
				<path class="st39" d="M101.9,121.6c0,1.1,0.9,2,2,2s2-0.9,2-2s-0.9-2-2-2S101.9,120.5,101.9,121.6z"/>
			</g>
		</g>
		<g>
			<path class="st40" d="M510.9,289.1H484l3,3.2v13.4c0,2.9,2.3,5.2,5.2,5.2h18.7c2.9,0,5.2-2.3,5.2-5.2v-11.5
				C516.1,291.4,513.8,289.1,510.9,289.1z"/>
			<g>
				<path class="st3" d="M497.7,299.1c0-0.9-0.7-1.6-1.6-1.6c-0.9,0-1.6,0.7-1.6,1.6s0.7,1.6,1.6,1.6
					C497,300.7,497.7,300,497.7,299.1z"/>
				<path class="st3" d="M503.6,299.1c0-0.9-0.7-1.6-1.6-1.6c-0.9,0-1.6,0.7-1.6,1.6s0.7,1.6,1.6,1.6
					C502.9,300.7,503.6,300,503.6,299.1z"/>
				<path class="st3" d="M509.5,299.1c0-0.9-0.7-1.6-1.6-1.6c-0.9,0-1.6,0.7-1.6,1.6s0.7,1.6,1.6,1.6
					C508.8,300.7,509.5,300,509.5,299.1z"/>
			</g>
		</g>
	</g>
	<g>
		<g>
			<rect x="404.6" y="73.5" class="st41" width="84.3" height="84.3"/>
			<g>
				<path class="st3" d="M451.3,87.7c-0.9-0.1-1.8-0.2-2.7-0.2c-0.3,0-0.5,0-0.8,0h-1c-0.6,0-1.1,0-1.7,0c-0.6,0-1.2,0.1-1.8,0.1
					c-3.1,0.2-6.2,0.7-9.3,1.6c-0.1,0-0.2,0.1-0.3,0.1c0.1,0.1,0.2,0.1,0.3,0.2c0,0,0,0,0.1,0c0.2,0.1,0.2,0.2,0.4,0.2
					c0.3,0,0.5,0.1,0.7,0c0.5-0.1,0.5-0.2,0.9,0.1c0.2,0.1,0.2,0.2,0.2,0.4c0,0.2,0,0.3,0.2,0.4s0.3,0.2,0.4,0
					c0.2-0.4,0.7,0.1,0.7,0.3c0,0.4,0.1,0.2,0.2,0.3c0.1,0.1,0.1,0.6,0.4,0.7c0.1,0,0.3,0,0.3,0.2c0,0.1,0,0.1-0.1,0.2
					c0,0.1-0.1,0.2-0.2,0.3c-0.2,0.4-0.2,0.8,0,1.2c0.1,0.1,0.1,0.2,0.2,0.3c0.2,0.4,0.2,0.5,0.5,0.7c0.2,0.1,0.4,0.1,0.6,0.1
					c0.2,0,0.2,0,0.3-0.1s0.2-0.1,0.3,0c0.3,0.2,0.2,0,0.3-0.2c0.2-0.3,0.3,0,0.3-0.5c0-0.1,0.1-0.2,0.2-0.3c0.3,0,0.4-0.2,0.7-0.1
					c0.1,0,0.4,0,0.3,0.3c-0.2,0.2-0.2,0.2-0.2,0.4c0,0.2,0,0.3-0.2,0.5s-0.1,0.2-0.2,0.4c0,0.1-0.1,0.2-0.1,0.3
					c0,0.1,0,0.2,0.3,0.2c0.2,0,0.3,0,0.4,0c0.2,0,0.3,0,0.5,0s0.5,0,0.6,0.2c0.2,0.2,0.2,0.3,0.1,0.7c0,0.1,0,0.2,0,0.3
					c0,0.2-0.1,0.4-0.1,0.5s0,0.2,0,0.3c0.1,0.1,0.2,0.2,0.2,0.3c0.1,0.1,0.2,0.2,0.4,0.3c0.5,0.3,0.6,0,1-0.1c0.2,0,0.4,0,0.5,0
					c0.1,0.1,0.3,0.2,0.4,0.3c0.1,0.1,0.2,0.2,0.3-0.1c0-0.1,0.1-0.2,0.2-0.2c0.1,0,0.1,0,0.1-0.2c0,0,0,0,0-0.1l0,0l0,0
					c0.1-0.3,0.4-0.4,0.6-0.4h0.1c0.2,0,0.4-0.1,0.4-0.2c0.1-0.1,0.4-0.3,0.3,0.1c-0.1,0.1-0.1,0.1-0.1,0.2v0.1
					c0.1,0.2-0.1,0.2-0.1,0.3c0,0.1,0.1,0.1,0.1,0.1s0,0.1,0.1,0.2s0.2,0,0.2-0.1l0,0v-0.1c0-0.1,0-0.1,0-0.2s0-0.2,0-0.2
					s0.1,0,0.1-0.1c0.3-0.2,0.5-0.3,0.7-0.1l0.1,0.1c0.3,0.2,0.1,0.3,0.5,0.3c0.3,0,0.4-0.1,0.6,0.1c0.2,0.1,0.6,0.2,0.7,0
					c0.1-0.2,0.4-0.2,0.5,0c0.1,0.1,0.2,0.2,0.3,0.2l0,0c0.1,0,0.1,0,0.2,0.1c0.1,0.2,0,0.1,0,0.3c0,0.1,0,0.1,0.2,0.1
					c0.3,0,0.7,0.1,0.8,0.5c0.1,0.2,0.2,0.1,0.4,0.2c0.2,0.2,0.1,0.2,0.5,0.3c0.1,0,0.1,0,0.2,0c0.3-0.1,0.4-0.1,0.6,0
					c0.2,0.1,0.2,0.2,0.4,0.2c0.3-0.1,0.4,0.2,0.5,0.3c0.2,0.2,0.4,0.2,0.4,0.6c0,0.3,0,0.2,0.2,0.4c0.2,0.3,0.3,0.3,0,0.6
					c-0.2,0.2-0.2,0.3,0.2,0.1c0.1-0.1,0.2,0,0.5,0.1c0.1,0.1,0.1,0.2,0,0.3c0,0.3-0.1,0.3,0.2,0.1c0.3-0.2,0.5-0.3,0.8,0
					c0.1,0.1,0.2,0.2,0.3,0.3c0.3,0.3,0.6,0.4,1.1,0.4c0.3,0,0.4,0.1,0.7,0.1s0.6,0.1,0.8,0.4c0.1,0.1,0.2,0.3,0.4,0.4
					c0.4,0.2,0.5,0,0.7,0.4c0.3,0.8-0.3,1.5-0.9,2.1c-0.2,0.3-0.2,0.4-0.3,0.6c-0.2,0.2-0.5,0-0.5,0.4c0,0.1-0.1,0.2-0.1,0.4
					c0,0.1,0,0.1,0,0.2c0,0.2,0.1,0.4-0.1,0.5c0,0.2,0,0.4-0.1,0.5c-0.2,0.4-0.4,0.6-0.4,0.8c-0.1,0.1-0.2,0.2-0.3,0.3
					c-0.2,0.1-0.1,0.3-0.2,0.5c0,0.1-0.1,0.1-0.2,0.1c-0.3,0.2-0.3,0.2-0.6,0.2c-0.7,0-1.6,0.4-2,1c-0.2,0.2-0.2,0.4-0.2,0.6
					c0,0.3-0.2,0.3-0.3,0.4c-0.3,0.3-0.3,0.7-0.6,0.6c-0.1,0-0.1,0.1-0.3,0.2c-0.1,0.1-0.2,0.2-0.2,0.3c0,0.1,0,0.2-0.2,0.3
					c-0.1,0.1-0.2,0.2-0.3,0.3c-0.2,0.5-0.6,0.4-1,0.3c-0.1,0-0.3-0.1-0.4-0.2c-0.3-0.1-0.3,0.1,0,0.2c0.1,0,0.1,0.1,0.1,0.1
					c0,0.2-0.2,0.2,0.1,0.4c0.1,0.2,0,0.3-0.2,0.4c-0.2,0.3-0.5,0.4-0.8,0.4c-0.2,0-0.4,0-0.6,0c-0.4,0-0.3-0.1-0.3,0.2
					c0,0.1,0,0.1-0.1,0.2c0,0.3-0.2,0.4-0.4,0.3c-0.4-0.2-0.3-0.2-0.4,0.1c0,0.1,0,0.2,0,0.2s0,0.2,0.1,0.2h0.1c0.2,0,0-0.1,0.2-0.1
					c0.1,0,0.1,0,0.1,0.1c0,0.2-0.1,0.1-0.2,0.1c-0.2,0-0.2,0-0.2,0.2s-0.1,0.2-0.2,0.3c0,0.1,0,0.1-0.1,0.2
					c-0.1,0.2-0.2,0.2-0.4,0.2c-0.1,0.1-0.2,0.1-0.3,0.2s-0.1,0.3,0,0.4l0.1,0.1l0.1,0.1c0.2,0,0.2-0.1,0.2,0.1s-0.1,0.2-0.3,0.3
					l-0.1,0.1c-0.1,0.1-0.1,0.1-0.2,0.2c0,0.1-0.1,0.2-0.2,0.3c-0.3,0.1-0.3,0.2-0.3,0.5c0.1,0.3,0,0.2-0.2,0.3
					c-0.1,0-0.1,0-0.2,0.1c-0.1,0.1-0.1,0.2-0.2,0.3c-0.2,0.2,0,0-0.4,0.1c-0.2,0-0.2-0.1-0.2-0.3c0-0.1,0-0.1-0.1-0.2
					c0,0,0,0,0-0.1c-0.1-0.3,0-0.2-0.2-0.4c-0.2-0.1,0-0.3-0.1-0.4c-0.1-0.2-0.1-0.1-0.1-0.3c0-0.1,0-0.1-0.1-0.2
					c0-0.1,0-0.2,0.1-0.2c0.2-0.1,0.1,0,0.2-0.2c0.1-0.4,0.1-0.1-0.2-0.3c-0.1,0,0-0.2,0.1-0.3c0.1-0.2,0.2-0.2,0.3-0.2
					c0,0,0,0,0.1,0s0.1-0.1,0.1-0.4c0-0.2,0.1-0.4,0.2-0.5c0.1-0.1,0.1-0.3,0-0.4c-0.1-0.2-0.4,0-0.3-0.4c0-0.3,0.1-0.3,0.2-0.5
					c0-0.1,0-0.2,0-0.4c-0.1-0.4-0.1-0.4,0.1-0.8c0.1-0.1,0.1-0.3,0.2-0.4c0-0.1,0-0.2,0.1-0.4c0.1-0.1,0.1-0.2,0.1-0.4
					c0-0.2,0.1-0.2,0.1-0.4c0-0.2,0-0.2-0.1-0.3c0-0.1,0-0.2,0-0.2c0.1-0.2,0.2-0.2,0.1-0.4c-0.1-0.2,0.1-0.3,0.1-0.5v-0.1
					c0.1-0.3,0.1-0.5,0.2-0.8c0-0.2,0.1-0.4,0-0.5c0-0.1,0-0.2,0-0.3c0.1-0.2,0.1-0.2,0.1-0.4c0-0.1,0-0.3,0-0.4
					c0.1-0.2,0-0.5,0-0.8s-0.1-0.4-0.3-0.6l-0.1-0.1c-0.3-0.2-0.5-0.4-0.8-0.5h-0.1c-0.3-0.1-0.3,0-0.6-0.3
					c-0.1-0.1-0.2-0.2-0.3-0.3c-0.1-0.2,0.1-0.2,0-0.4c-0.1-0.1-0.2-0.2-0.2-0.3c-0.3-0.4-0.4-0.7-0.6-1.1c-0.3-0.5-0.5-1-0.9-1.3
					c-0.2,0-0.2-0.1-0.2-0.3c0-0.1-0.1-0.2-0.1-0.3c-0.2-0.3,0.3-0.4,0.5-0.5c0.1-0.1,0.1-0.2,0-0.3c-0.1,0-0.1,0-0.2,0
					c-0.3-0.1-0.2-0.5,0-0.6c0.1-0.1,0.2-0.3,0.2-0.4c0-0.3,0.1-0.3,0.2-0.3c0.3-0.1,0.2-0.1,0.3-0.3c0-0.2,0-0.2,0.2-0.3
					c0,0,0,0,0.1,0c0.4-0.4,0.4-0.6,0.3-1.1c0-0.3-0.1-0.4-0.2-0.6c-0.1-0.1-0.2-0.2-0.2-0.2s0,0,0-0.1c0-0.2,0-0.2-0.1-0.4
					c-0.2-0.1-0.4-0.1-0.5,0.1c0,0,0,0.1-0.1,0.2c-0.2,0.1-0.1,0-0.1,0.3c0,0.1,0,0.1,0,0.1c-0.2,0.2-0.2-0.1-0.3-0.2
					c-0.2-0.1-0.1,0.1-0.3-0.1c-0.1-0.1-0.1-0.1-0.3-0.1H443c-0.1,0-0.1-0.1-0.2-0.2c-0.1-0.1,0-0.2-0.2-0.3h-0.1
					c-0.2-0.2,0-0.2-0.3-0.1c-0.1,0-0.2-0.1-0.3-0.3c0.1-0.4,0-0.4-0.4-0.6c-0.1-0.1-0.2-0.3-0.3-0.4c-0.1-0.2-0.2-0.1-0.3-0.1
					s-0.4,0-0.5-0.2c-0.3-0.2-0.4-0.2-0.6-0.2c-0.3,0-0.5-0.3-0.6-0.5c-0.2-0.2-0.4-0.4-0.7-0.3c-0.2,0.1-0.3,0.3-0.6,0.2
					c-0.2,0-0.3-0.2-0.7-0.3c-0.3-0.1-0.5-0.2-0.7-0.3c-0.3-0.1-0.3-0.3-0.6-0.4c-0.6-0.1-0.3-0.1-0.5-0.4c-0.1,0-0.1-0.1-0.2-0.1
					c-0.2-0.1-0.4-0.3-0.2-0.5s0.2-0.3,0.1-0.5c-0.1-0.1-0.1-0.3-0.1-0.3c0-0.1-0.2-0.4-0.3-0.5c-0.2-0.2-0.3-0.4-0.4-0.6
					c-0.6-0.2,0.1-0.3-0.2-0.6c-0.2,0-0.2-0.1-0.2-0.2c-0.1-0.2,0-0.2-0.2-0.4c-0.1,0-0.1-0.1-0.2-0.2c-0.1-0.1-0.1-0.3-0.1-0.4
					s0-0.2,0-0.3c0-0.3,0-0.3-0.3-0.4c-0.1,0-0.1,0-0.2,0c0,0,0,0-0.1,0s-0.1,0.1-0.1,0.2c0,0.3,0,0.3,0.1,0.5
					c0.1,0.1,0.1,0.2,0.1,0.2c0.2,0.2,0.2,0.2,0.2,0.4c0,0.2,0,0.2,0.1,0.4c0.3,0.4,0.2,0.5,0.3,0.8c0,0.2,0,0.3-0.1,0.3
					s-0.2,0-0.4-0.1c-0.1-0.1,0-0.2,0-0.3c0.2-0.3-0.2-0.5-0.4-0.6c-0.2-0.2-0.4-0.3-0.1-0.6c0.2-0.2,0.1-0.3,0-0.5
					c-0.3-0.2-0.3-0.3-0.3-0.4c0-0.2,0-0.3,0-0.3c-1.6,0.5-3.2,1-4.7,1.6V118c2,0.8,4,1.4,6,2c3.1,0.8,6.2,1.3,9.3,1.6
					c0.6,0,1.2,0.1,1.8,0.1s1.1,0,1.7,0h0.5c0.1,0,0.2,0,0.3-0.1c0.4,0.1,0.1-0.3,0.3-0.4h0.1c0.2,0,0.2,0,0.2,0.1
					c0.1,0.2,0.2,0.3,0.3,0.4h0.2c0.9,0,1.8-0.1,2.7-0.2c4.8-0.4,9.6-1.6,14.3-3.4V91.2C460.8,89.3,456.1,88.2,451.3,87.7
					 M443.3,93.4C443.2,93.4,443.2,93.4,443.3,93.4l-0.2,0.2c-0.2,0.1-0.3-0.1,0-0.2C443.2,93.4,443.2,93.3,443.3,93.4
					C443.5,93.2,443.7,93.3,443.3,93.4 M446.1,94.4c-0.2,0-0.2,0-0.4,0c-0.3,0-0.3,0-0.3-0.2s-0.3-0.1-0.4-0.2c0,0,0,0,0-0.1l0,0
					c-0.1-0.2,0-0.1-0.4-0.1c-0.1,0-0.2,0-0.2-0.1c-0.1-0.1-0.2-0.2-0.4-0.2s-0.4-0.3-0.2-0.4c0.3,0,0.2,0.1,0.5,0.1
					c0.2,0,0.2,0,0.4,0.2c0.1,0.1,0.2,0.1,0.3,0.1h0.1c0.1,0,0.2,0.1,0.3,0.1s0.1,0.1,0.2,0.1c0.1,0.1,0.2,0.2,0.4,0.2
					s0.2,0,0.3,0.1C446.3,94.3,446.5,94.4,446.1,94.4 M446.9,95.1c0,0-0.1,0-0.2,0c-0.1,0-0.2,0-0.2-0.1c0-0.2,0-0.1,0.2-0.1l0,0
					C446.8,94.9,446.8,94.9,446.9,95.1C446.9,95,446.9,95,446.9,95.1C447.1,95,447,95.1,446.9,95.1 M448.1,94.9
					c-0.3,0-0.3,0-0.4,0.1c0,0,0,0.1-0.1,0.1c0,0.1,0,0-0.2,0s-0.3-0.2-0.3-0.2c0-0.1,0-0.1,0-0.2c-0.3-0.6-0.1-0.2,0.5-0.3h0.1
					c0.2,0,0.2-0.1,0.4,0.1l0.1,0.1C448.7,94.9,448.2,95,448.1,94.9 M448.6,95C448.5,95,448.5,94.9,448.6,95c-0.1-0.1,0-0.2,0-0.2
					S448.7,94.8,448.6,95C448.7,94.9,448.6,95,448.6,95 M446.7,117.9L446.7,117.9C446.7,117.9,446.7,117.8,446.7,117.9
					C446.8,117.7,446.8,117.7,446.7,117.9c0.1,0,0.1,0.3,0,0.3c-0.2,0-0.1,0-0.1-0.1C446.6,117.9,446.6,117.9,446.7,117.9 M434,92.8
					C433.9,92.8,433.9,92.8,434,92.8L434,92.8c-0.1-0.2-0.3-0.1-0.3-0.2s0.1-0.2,0.2-0.1C434,92.5,434,92.6,434,92.8
					C434.1,92.7,434.1,92.8,434,92.8 M451.7,119.6c-0.1,0.2-0.2,0.1-0.4,0.1h-0.1c-0.1,0-0.1,0.2-0.3,0.1c-0.1-0.1-0.2-0.2-0.1-0.3
					c0-0.1,0.1-0.1,0.1-0.1c0.1,0,0.2,0,0.3,0s0.1,0,0.2-0.1C451.8,119.2,451.8,119.4,451.7,119.6"/>
				<polygon class="st3" points="432.3,129.3 432.3,130.5 429.5,130.5 429.5,132.2 432.1,132.2 432.1,133.5 429.5,133.5 
					429.5,136.1 427.9,136.1 427.9,129.3 				"/>
				<polygon class="st3" points="433.7,129.3 435.4,129.3 435.4,134.8 437.8,134.8 437.8,136.1 433.7,136.1 				"/>
				<path class="st3" d="M441.1,129.3h1.8l2.5,6.9h-1.8l-0.5-1.5h-2.3l-0.5,1.5h-1.7L441.1,129.3z M441.2,133.5h1.6l-0.3-0.8
					c-0.1-0.3-0.2-0.6-0.3-0.9c-0.1-0.3-0.2-0.6-0.2-0.8l0,0c-0.1,0.3-0.2,0.5-0.2,0.8c-0.1,0.3-0.2,0.6-0.3,0.9L441.2,133.5z"/>
				<path class="st3" d="M449.5,135c0.3,0,0.6,0,0.8-0.1s0.4-0.1,0.6-0.2l0.3,1.2c-0.1,0.1-0.4,0.2-0.7,0.3s-0.7,0.1-1.2,0.1
					s-1-0.1-1.5-0.3c-0.4-0.2-0.8-0.4-1.2-0.7c-0.3-0.3-0.6-0.7-0.7-1.1c-0.2-0.4-0.3-0.9-0.3-1.5c0-0.5,0.1-1,0.3-1.5
					c0.2-0.4,0.4-0.8,0.7-1.1s0.7-0.5,1.2-0.7s1-0.3,1.5-0.3s0.9,0,1.2,0.1s0.5,0.2,0.7,0.3l-0.4,1.2c-0.2-0.1-0.4-0.2-0.6-0.3
					c-0.2-0.1-0.5-0.1-0.8-0.1s-0.6,0-0.8,0.1c-0.3,0.1-0.5,0.2-0.7,0.4s-0.3,0.4-0.4,0.7c-0.1,0.3-0.2,0.6-0.2,1.1
					c0,0.4,0.1,0.7,0.2,1c0.1,0.3,0.3,0.5,0.4,0.7c0.2,0.2,0.4,0.3,0.7,0.4C448.9,134.9,449.2,135,449.5,135"/>
				<path class="st3" d="M455,129.1c0.5,0,0.9,0,1.2,0.1s0.6,0.2,0.9,0.4l-0.4,1.2c-0.3-0.1-0.6-0.3-0.9-0.3
					c-0.3-0.1-0.6-0.1-0.8-0.1c-0.3,0-0.6,0.1-0.8,0.2c-0.2,0.1-0.3,0.3-0.3,0.5s0.1,0.4,0.2,0.5c0.2,0.1,0.4,0.2,0.8,0.3l0.6,0.2
					c0.3,0.1,0.5,0.2,0.7,0.3s0.4,0.3,0.6,0.4c0.2,0.2,0.3,0.4,0.4,0.6c0.1,0.2,0.1,0.4,0.1,0.7s-0.1,0.6-0.2,0.8
					c-0.1,0.3-0.3,0.5-0.5,0.7s-0.5,0.4-0.8,0.5s-0.7,0.2-1.2,0.2c-0.4,0-0.8,0-1.2-0.1s-0.7-0.2-1.1-0.4l0.4-1.2
					c0.3,0.2,0.6,0.3,0.9,0.4c0.3,0.1,0.6,0.1,0.9,0.1c0.4,0,0.7-0.1,0.8-0.2c0.2-0.1,0.3-0.3,0.3-0.5c0-0.1,0-0.1,0-0.2
					c0-0.1-0.1-0.1-0.2-0.2c-0.1-0.1-0.2-0.1-0.4-0.2c-0.1-0.1-0.3-0.1-0.6-0.2l-0.5-0.2c-0.3-0.1-0.5-0.2-0.7-0.3s-0.4-0.3-0.6-0.4
					c-0.2-0.2-0.3-0.3-0.4-0.6c-0.1-0.2-0.1-0.5-0.1-0.8s0.1-0.6,0.2-0.8c0.1-0.3,0.3-0.5,0.5-0.7s0.5-0.3,0.8-0.4
					C454.2,129.2,454.5,129.1,455,129.1"/>
				<path class="st3" d="M462.2,129.1c0.5,0,1,0.1,1.4,0.2c0.4,0.2,0.8,0.4,1.1,0.7s0.5,0.7,0.7,1.1c0.2,0.4,0.3,0.9,0.3,1.5
					c0,0.5-0.1,1-0.3,1.5c-0.2,0.4-0.4,0.8-0.7,1.1s-0.7,0.5-1.1,0.7c-0.4,0.2-0.9,0.2-1.4,0.2s-1-0.1-1.4-0.2
					c-0.4-0.2-0.8-0.4-1.1-0.7s-0.5-0.7-0.7-1.1c-0.2-0.4-0.3-0.9-0.3-1.5c0-0.5,0.1-1,0.3-1.5c0.2-0.4,0.4-0.8,0.7-1.1
					s0.7-0.6,1.1-0.7C461.2,129.2,461.7,129.1,462.2,129.1 M460.5,132.7c0,0.4,0,0.7,0.1,1s0.2,0.5,0.4,0.7s0.3,0.3,0.5,0.4
					s0.4,0.1,0.7,0.1c0.2,0,0.5,0,0.7-0.1s0.4-0.2,0.5-0.4c0.2-0.2,0.3-0.4,0.4-0.7c0.1-0.3,0.1-0.6,0.1-1s0-0.7-0.1-1
					s-0.2-0.5-0.4-0.7s-0.3-0.3-0.5-0.4c-0.2-0.1-0.4-0.1-0.7-0.1c-0.2,0-0.5,0-0.7,0.1s-0.4,0.2-0.5,0.4c-0.2,0.2-0.3,0.4-0.4,0.7
					C460.5,132,460.5,132.3,460.5,132.7"/>
				<path class="st3" d="M429.3,140h0.4l1.4,3.7h-0.4l-0.4-1.1h-1.6l-0.4,1.1h-0.4L429.3,140z M428.8,142.3h1.4l-0.3-0.8
					c-0.1-0.1-0.1-0.3-0.2-0.5c-0.1-0.2-0.1-0.4-0.2-0.6l0,0c0,0.1-0.1,0.2-0.1,0.3s-0.1,0.2-0.1,0.3s-0.1,0.2-0.1,0.2
					c0,0.1-0.1,0.2-0.1,0.3L428.8,142.3z"/>
				<path class="st3" d="M432.8,140h1.1c0.2,0,0.4,0,0.5,0.1s0.3,0.1,0.4,0.2c0.1,0.1,0.2,0.2,0.2,0.3c0.1,0.1,0.1,0.3,0.1,0.4
					c0,0.1,0,0.3-0.1,0.4c0,0.1-0.1,0.2-0.2,0.3c-0.1,0.1-0.2,0.2-0.3,0.2c-0.1,0.1-0.2,0.1-0.3,0.1l1,1.6h-0.5l-0.9-1.5H433v1.5
					h-0.4V140H432.8z M433.2,141.9h0.6c0.1,0,0.3,0,0.4,0c0.1,0,0.2-0.1,0.3-0.1c0.1-0.1,0.1-0.1,0.2-0.2c0-0.1,0.1-0.2,0.1-0.3
					c0-0.3-0.1-0.4-0.2-0.6c-0.1-0.1-0.4-0.2-0.7-0.2h-0.6L433.2,141.9L433.2,141.9z"/>
				<path class="st3" d="M438.8,140c0.2,0,0.4,0,0.6,0c0.2,0,0.3,0.1,0.5,0.2l-0.1,0.3c-0.1-0.1-0.3-0.1-0.4-0.1
					c-0.1,0-0.3-0.1-0.4-0.1c-0.2,0-0.4,0-0.5,0.1c-0.2,0.1-0.3,0.1-0.5,0.3c-0.1,0.1-0.2,0.3-0.3,0.5s-0.1,0.4-0.1,0.7
					c0,0.2,0,0.5,0.1,0.6c0.1,0.2,0.2,0.3,0.3,0.5c0.1,0.1,0.3,0.2,0.4,0.3c0.2,0.1,0.4,0.1,0.6,0.1c0.2,0,0.3,0,0.4,0
					c0.1,0,0.2,0,0.3-0.1v-1.2H439v-0.3h1.2v1.8c-0.1,0.1-0.3,0.1-0.5,0.1s-0.4,0.1-0.6,0.1c-0.3,0-0.5,0-0.7-0.1s-0.4-0.2-0.6-0.4
					c-0.2-0.2-0.3-0.4-0.4-0.6c-0.1-0.2-0.1-0.5-0.1-0.8s0-0.6,0.1-0.8s0.2-0.4,0.4-0.6c0.2-0.2,0.4-0.3,0.6-0.4
					C438.2,140,438.5,140,438.8,140"/>
				<polygon class="st3" points="441.9,140 444.1,140 444.1,140.3 442.3,140.3 442.3,141.6 443.9,141.6 443.9,142 442.3,142 
					442.3,143.4 444.1,143.4 444.1,143.7 441.9,143.7 				"/>
				<path class="st3" d="M446,140h0.4l1.7,2.4c0.1,0.1,0.1,0.2,0.2,0.3c0.1,0.1,0.1,0.2,0.2,0.3l0,0c0-0.1,0-0.3,0-0.4
					c0-0.1,0-0.3,0-0.4V140h0.4v3.7h-0.4l-1.6-2.3c-0.1-0.1-0.2-0.2-0.2-0.4c-0.1-0.1-0.2-0.3-0.2-0.4l0,0c0,0.2,0,0.4,0,0.5
					c0,0.2,0,0.3,0,0.5v2.1h-0.4V140H446z"/>
				<polygon class="st3" points="453.4,140 453.4,140.3 452.2,140.3 452.2,143.7 451.8,143.7 451.8,140.3 450.6,140.3 450.6,140 
									"/>
				<rect x="455.1" y="140" class="st3" width="0.4" height="3.7"/>
				<path class="st3" d="M457.7,140h0.4l1.7,2.4c0.1,0.1,0.1,0.2,0.2,0.3c0.1,0.1,0.1,0.2,0.2,0.3l0,0c0-0.1,0-0.3,0-0.4
					c0-0.1,0-0.3,0-0.4V140h0.4v3.7h-0.4l-1.6-2.3c-0.1-0.1-0.2-0.2-0.2-0.4c-0.1-0.1-0.2-0.3-0.2-0.4l0,0c0,0.2,0,0.4,0,0.5
					c0,0.2,0,0.3,0,0.5v2.1h-0.4V140H457.7z"/>
				<path class="st3" d="M463.8,140h0.4l1.4,3.7h-0.5l-0.4-1.1h-1.6l-0.4,1.1h-0.4L463.8,140z M463.3,142.3h1.3l-0.3-0.8
					c-0.1-0.1-0.1-0.3-0.2-0.5c-0.1-0.2-0.1-0.4-0.2-0.6l0,0c0,0.1-0.1,0.2-0.1,0.3s-0.1,0.2-0.1,0.3s-0.1,0.2-0.1,0.2
					c0,0.1-0.1,0.2-0.1,0.3L463.3,142.3z"/>
			</g>
		</g>
	</g>
</g>
</svg>
