<?xml version="1.0" encoding="utf-8"?>
<!-- Generator: Adobe Illustrator 25.1.0, SVG Export Plug-In . SVG Version: 6.00 Build 0)  -->
<svg version="1.1" id="Capa_1" xmlns="http://www.w3.org/2000/svg" xmlns:xlink="http://www.w3.org/1999/xlink" x="0px" y="0px"
	 viewBox="0 0 1076.5 223.4" style="enable-background:new 0 0 1076.5 223.4;" xml:space="preserve">
<style type="text/css">
	.st0{enable-background:new    ;}
	.st1{fill:#FFFFFF;}
</style>
<g>
	<g class="st0">
		<path d="M302.4,84.8c0,2.1-0.2,3.8-0.7,5.1c-0.5,1.3-1.4,2.6-2.6,3.7c-1.3,1.2-2.1,2.1-2.6,2.6c-0.5,0.6-0.8,1.2-1,1.7
			c-0.2,0.6-0.3,1.2-0.3,1.9c0,2.5,1.2,3.8,3.7,3.8c1.2,0,2.2-0.4,2.9-1.1c0.7-0.7,1.1-1.7,1.1-3h6.9c0,3.1-1,5.5-2.9,7.2
			c-1.9,1.7-4.6,2.6-7.9,2.6c-3.4,0-6-0.8-7.9-2.4c-1.9-1.6-2.8-3.9-2.8-6.9c0-2.5,1.2-5,3.7-7.5l2.3-2.2c0.8-0.7,1.4-1.5,1.7-2.3
			c0.3-0.8,0.5-1.9,0.5-3.3H302.4z M303.3,77.5c0,1.1-0.4,1.9-1.1,2.6c-0.7,0.7-1.7,1-2.8,1c-1.1,0-2-0.3-2.8-1
			c-0.7-0.7-1.1-1.6-1.1-2.6c0-1.1,0.4-1.9,1.1-2.6c0.7-0.7,1.6-1,2.8-1c1.2,0,2.1,0.3,2.8,1C302.9,75.6,303.3,76.4,303.3,77.5z"/>
		<path d="M314,100.2V65.4h12.2c4.2,0,7.4,0.8,9.6,2.4c2.2,1.6,3.3,4,3.3,7.1c0,1.7-0.4,3.2-1.3,4.5c-0.9,1.3-2.1,2.3-3.7,2.9
			c1.8,0.4,3.2,1.3,4.2,2.7c1,1.4,1.5,3,1.5,5c0,3.3-1.1,5.9-3.2,7.6c-2.1,1.7-5.2,2.6-9.1,2.6H314z M321.2,80h5.3
			c3.6-0.1,5.4-1.5,5.4-4.3c0-1.6-0.5-2.7-1.4-3.4c-0.9-0.7-2.4-1-4.3-1h-5V80z M321.2,85.1v9.4h6.1c1.7,0,3-0.4,4-1.2
			c0.9-0.8,1.4-1.9,1.4-3.3c0-3.2-1.7-4.8-5-4.9H321.2z"/>
		<path d="M360.3,97.6c-1.7,2.1-4.1,3.1-7.1,3.1c-2.8,0-4.9-0.8-6.4-2.4c-1.5-1.6-2.2-3.9-2.2-7v-17h6.9v16.7c0,2.7,1.2,4,3.7,4
			c2.3,0,4-0.8,4.8-2.4V74.3h6.9v25.9h-6.5L360.3,97.6z"/>
		<path d="M386.2,93.1c0-0.8-0.4-1.5-1.3-2c-0.8-0.5-2.2-0.9-4-1.3c-6.2-1.3-9.2-3.9-9.2-7.8c0-2.3,1-4.2,2.9-5.8
			c1.9-1.5,4.4-2.3,7.5-2.3c3.3,0,5.9,0.8,7.9,2.3c2,1.5,3,3.6,3,6H386c0-1-0.3-1.8-1-2.5c-0.6-0.6-1.6-1-3-1
			c-1.2,0-2.1,0.3-2.7,0.8c-0.6,0.5-1,1.2-1,2c0,0.8,0.4,1.4,1.1,1.9c0.7,0.5,1.9,0.9,3.7,1.2s3.2,0.7,4.4,1.2
			c3.7,1.3,5.5,3.7,5.5,7c0,2.4-1,4.3-3,5.7c-2,1.5-4.6,2.2-7.8,2.2c-2.2,0-4.1-0.4-5.8-1.2c-1.7-0.8-3-1.8-4-3.2
			c-1-1.3-1.4-2.8-1.4-4.4h6.6c0.1,1.2,0.5,2.2,1.4,2.8c0.8,0.7,2,1,3.4,1c1.3,0,2.3-0.3,3-0.8C385.9,94.5,386.2,93.9,386.2,93.1z"
			/>
		<path d="M408.2,95.1c1.3,0,2.3-0.4,3.1-1.1c0.8-0.7,1.2-1.6,1.2-2.8h6.5c0,1.8-0.5,3.4-1.4,4.8c-0.9,1.5-2.2,2.6-3.9,3.4
			c-1.6,0.8-3.4,1.2-5.4,1.2c-3.7,0-6.6-1.2-8.8-3.5c-2.1-2.4-3.2-5.6-3.2-9.8V87c0-4,1.1-7.2,3.2-9.5c2.1-2.4,5-3.6,8.7-3.6
			c3.2,0,5.8,0.9,7.8,2.8c2,1.8,2.9,4.3,3,7.4h-6.5c0-1.3-0.4-2.4-1.2-3.3c-0.8-0.8-1.9-1.3-3.2-1.3c-1.6,0-2.8,0.6-3.6,1.8
			c-0.8,1.2-1.2,3.1-1.2,5.7v0.7c0,2.7,0.4,4.6,1.2,5.8C405.3,94.5,406.5,95.1,408.2,95.1z"/>
		<path d="M438,100.2c-0.3-0.6-0.6-1.4-0.7-2.3c-1.7,1.9-3.9,2.8-6.5,2.8c-2.5,0-4.6-0.7-6.3-2.2c-1.7-1.5-2.5-3.3-2.5-5.6
			c0-2.7,1-4.8,3.1-6.3c2-1.5,5-2.2,8.8-2.2h3.2v-1.5c0-1.2-0.3-2.2-0.9-2.9c-0.6-0.7-1.6-1.1-2.9-1.1c-1.2,0-2.1,0.3-2.7,0.8
			c-0.7,0.6-1,1.3-1,2.3h-6.9c0-1.5,0.5-2.9,1.4-4.2c0.9-1.3,2.2-2.3,3.9-3c1.7-0.7,3.6-1.1,5.7-1.1c3.2,0,5.7,0.8,7.6,2.4
			c1.9,1.6,2.8,3.9,2.8,6.8v11.2c0,2.5,0.4,4.3,1,5.6v0.4H438z M432.2,95.4c1,0,2-0.2,2.8-0.7c0.9-0.5,1.5-1.1,1.9-1.8v-4.5h-2.6
			c-3.5,0-5.3,1.2-5.5,3.6l0,0.4c0,0.9,0.3,1.6,0.9,2.1C430.4,95.1,431.2,95.4,432.2,95.4z M434.9,63.5h7.5l-6.6,7.4h-5.6
			L434.9,63.5z"/>
		<path d="M463.3,93.1c0-0.8-0.4-1.5-1.3-2c-0.8-0.5-2.2-0.9-4-1.3c-6.2-1.3-9.2-3.9-9.2-7.8c0-2.3,1-4.2,2.9-5.8
			c1.9-1.5,4.4-2.3,7.5-2.3c3.3,0,5.9,0.8,7.9,2.3c2,1.5,3,3.6,3,6H463c0-1-0.3-1.8-1-2.5c-0.6-0.6-1.6-1-3-1
			c-1.2,0-2.1,0.3-2.7,0.8c-0.6,0.5-1,1.2-1,2c0,0.8,0.4,1.4,1.1,1.9c0.7,0.5,1.9,0.9,3.7,1.2s3.2,0.7,4.4,1.2
			c3.7,1.3,5.5,3.7,5.5,7c0,2.4-1,4.3-3,5.7c-2,1.5-4.6,2.2-7.8,2.2c-2.2,0-4.1-0.4-5.8-1.2c-1.7-0.8-3-1.8-4-3.2
			c-1-1.3-1.4-2.8-1.4-4.4h6.6c0.1,1.2,0.5,2.2,1.4,2.8c0.8,0.7,2,1,3.4,1c1.3,0,2.3-0.3,3-0.8C462.9,94.5,463.3,93.9,463.3,93.1z"
			/>
		<path d="M501.6,100.2c-0.3-0.6-0.6-1.4-0.7-2.3c-1.7,1.9-3.9,2.8-6.5,2.8c-2.5,0-4.6-0.7-6.3-2.2c-1.7-1.5-2.5-3.3-2.5-5.6
			c0-2.7,1-4.8,3.1-6.3c2-1.5,5-2.2,8.8-2.2h3.2v-1.5c0-1.2-0.3-2.2-0.9-2.9c-0.6-0.7-1.6-1.1-2.9-1.1c-1.2,0-2.1,0.3-2.7,0.8
			c-0.7,0.6-1,1.3-1,2.3h-6.9c0-1.5,0.5-2.9,1.4-4.2c0.9-1.3,2.2-2.3,3.9-3c1.7-0.7,3.6-1.1,5.7-1.1c3.2,0,5.7,0.8,7.6,2.4
			c1.9,1.6,2.8,3.9,2.8,6.8v11.2c0,2.5,0.4,4.3,1,5.6v0.4H501.6z M495.9,95.4c1,0,2-0.2,2.8-0.7c0.9-0.5,1.5-1.1,1.9-1.8v-4.5h-2.6
			c-3.5,0-5.3,1.2-5.5,3.6l0,0.4c0,0.9,0.3,1.6,0.9,2.1C494,95.1,494.9,95.4,495.9,95.4z"/>
		<path d="M520.2,100.2h-6.9V63.5h6.9V100.2z"/>
		<path d="M524.9,87.1c0-4,0.9-7.2,2.8-9.6c1.9-2.4,4.4-3.6,7.6-3.6c2.8,0,5,1,6.6,2.9l0.3-2.4h6.3v25c0,2.3-0.5,4.2-1.5,5.9
			c-1,1.7-2.5,3-4.3,3.8c-1.9,0.9-4.1,1.3-6.6,1.3c-1.9,0-3.7-0.4-5.6-1.1c-1.8-0.8-3.2-1.7-4.1-2.9l3.1-4.2
			c1.7,1.9,3.8,2.9,6.3,2.9c1.8,0,3.3-0.5,4.3-1.5c1-1,1.5-2.4,1.5-4.2V98c-1.6,1.8-3.7,2.7-6.3,2.7c-3.1,0-5.6-1.2-7.5-3.6
			c-1.9-2.4-2.9-5.7-2.9-9.7V87.1z M531.8,87.6c0,2.3,0.5,4.2,1.4,5.5c0.9,1.3,2.2,2,3.9,2c2.1,0,3.6-0.8,4.5-2.4V81.9
			c-0.9-1.6-2.4-2.4-4.5-2.4c-1.7,0-3,0.7-3.9,2C532.3,82.9,531.8,84.9,531.8,87.6z"/>
		<path d="M569.4,97.6c-1.7,2.1-4.1,3.1-7.1,3.1c-2.8,0-4.9-0.8-6.4-2.4c-1.5-1.6-2.2-3.9-2.2-7v-17h6.9v16.7c0,2.7,1.2,4,3.7,4
			c2.3,0,4-0.8,4.8-2.4V74.3h6.9v25.9h-6.5L569.4,97.6z M566.3,63.5h7.5l-6.6,7.4h-5.6L566.3,63.5z"/>
		<path d="M587.6,74.3l0.2,3c1.9-2.3,4.3-3.5,7.4-3.5c2.7,0,4.8,0.8,6.1,2.4c1.3,1.6,2,4,2.1,7.2v16.7h-6.9V83.7
			c0-1.5-0.3-2.5-1-3.2c-0.6-0.7-1.7-1-3.2-1c-1.9,0-3.4,0.8-4.4,2.5v18.3h-6.9V74.3H587.6z"/>
		<path d="M631.7,95.1c1.3,0,2.3-0.4,3.1-1.1c0.8-0.7,1.2-1.6,1.2-2.8h6.5c0,1.8-0.5,3.4-1.4,4.8c-0.9,1.5-2.2,2.6-3.9,3.4
			c-1.6,0.8-3.4,1.2-5.4,1.2c-3.7,0-6.6-1.2-8.8-3.5c-2.1-2.4-3.2-5.6-3.2-9.8V87c0-4,1.1-7.2,3.2-9.5c2.1-2.4,5-3.6,8.7-3.6
			c3.2,0,5.8,0.9,7.8,2.8c2,1.8,2.9,4.3,3,7.4H636c0-1.3-0.4-2.4-1.2-3.3s-1.9-1.3-3.2-1.3c-1.6,0-2.8,0.6-3.6,1.8s-1.2,3.1-1.2,5.7
			v0.7c0,2.7,0.4,4.6,1.2,5.8C628.8,94.5,630,95.1,631.7,95.1z"/>
		<path d="M645.4,87c0-2.6,0.5-4.9,1.5-6.9c1-2,2.4-3.6,4.3-4.7c1.9-1.1,4-1.7,6.5-1.7c3.5,0,6.3,1.1,8.6,3.2s3.4,5,3.7,8.7l0,1.8
			c0,4-1.1,7.2-3.3,9.6c-2.2,2.4-5.2,3.6-8.9,3.6s-6.7-1.2-8.9-3.6c-2.2-2.4-3.3-5.6-3.3-9.8V87z M652.3,87.5c0,2.5,0.5,4.3,1.4,5.6
			s2.2,2,4,2c1.7,0,3-0.6,3.9-1.9s1.4-3.3,1.4-6.2c0-2.4-0.5-4.3-1.4-5.6c-0.9-1.3-2.3-2-4-2c-1.7,0-3,0.7-3.9,2
			S652.3,84.8,652.3,87.5z"/>
		<path d="M680.5,74.3l0.2,3c1.8-2.3,4.3-3.5,7.4-3.5c2.7,0,4.8,0.8,6.1,2.4c1.3,1.6,2,4,2.1,7.2v16.7h-6.9V83.7
			c0-1.5-0.3-2.5-1-3.2c-0.6-0.7-1.7-1-3.2-1c-1.9,0-3.4,0.8-4.4,2.5v18.3H674V74.3H680.5z"/>
		<path d="M712.4,95.1c1.3,0,2.3-0.4,3.1-1.1c0.8-0.7,1.2-1.6,1.2-2.8h6.5c0,1.8-0.5,3.4-1.4,4.8c-0.9,1.5-2.2,2.6-3.9,3.4
			c-1.6,0.8-3.4,1.2-5.4,1.2c-3.7,0-6.6-1.2-8.8-3.5c-2.1-2.4-3.2-5.6-3.2-9.8V87c0-4,1.1-7.2,3.2-9.5c2.1-2.4,5-3.6,8.7-3.6
			c3.2,0,5.8,0.9,7.8,2.8c2,1.8,2.9,4.3,3,7.4h-6.5c0-1.3-0.4-2.4-1.2-3.3c-0.8-0.8-1.9-1.3-3.2-1.3c-1.6,0-2.8,0.6-3.6,1.8
			c-0.8,1.2-1.2,3.1-1.2,5.7v0.7c0,2.7,0.4,4.6,1.2,5.8C709.5,94.5,710.7,95.1,712.4,95.1z"/>
		<path d="M739.1,100.7c-3.8,0-6.9-1.2-9.3-3.5s-3.6-5.4-3.6-9.3v-0.7c0-2.6,0.5-4.9,1.5-7s2.4-3.6,4.3-4.7c1.8-1.1,3.9-1.7,6.3-1.7
			c3.5,0,6.3,1.1,8.4,3.3c2,2.2,3.1,5.4,3.1,9.5v2.8h-16.5c0.2,1.7,0.9,3,2,4.1c1.1,1,2.5,1.5,4.3,1.5c2.7,0,4.7-1,6.2-2.9l3.4,3.8
			c-1,1.5-2.4,2.6-4.2,3.4S741.2,100.7,739.1,100.7z M738.3,79.4c-1.4,0-2.5,0.5-3.3,1.4c-0.9,0.9-1.4,2.3-1.6,4h9.6v-0.6
			c0-1.5-0.4-2.7-1.2-3.6C740.9,79.9,739.8,79.4,738.3,79.4z"/>
		<path d="M777,87.5c0,4-0.9,7.2-2.7,9.6c-1.8,2.4-4.3,3.6-7.3,3.6c-2.6,0-4.7-0.9-6.3-2.7v12.2h-6.9V74.3h6.4l0.2,2.5
			c1.7-2,3.9-3,6.6-3c3.2,0,5.7,1.2,7.4,3.5s2.7,5.6,2.7,9.8V87.5z M770.1,87c0-2.4-0.4-4.3-1.3-5.6c-0.9-1.3-2.1-2-3.7-2
			c-2.2,0-3.7,0.8-4.5,2.5v10.6c0.8,1.7,2.4,2.6,4.5,2.6C768.4,95.1,770.1,92.4,770.1,87z"/>
		<path d="M789.5,68v6.4h4.4v5.1h-4.4v12.9c0,1,0.2,1.6,0.5,2.1s1.1,0.6,2.1,0.6c0.8,0,1.4-0.1,2-0.2v5.2c-1.4,0.4-2.8,0.6-4.2,0.6
			c-4.8,0-7.3-2.4-7.4-7.3V79.4h-3.8v-5.1h3.8V68H789.5z"/>
		<path d="M796,87c0-2.6,0.5-4.9,1.5-6.9s2.4-3.6,4.3-4.7c1.9-1.1,4-1.7,6.5-1.7c3.5,0,6.3,1.1,8.6,3.2c2.2,2.1,3.4,5,3.7,8.7l0,1.8
			c0,4-1.1,7.2-3.3,9.6s-5.2,3.6-8.9,3.6s-6.7-1.2-8.9-3.6c-2.2-2.4-3.3-5.6-3.3-9.8V87z M802.9,87.5c0,2.5,0.5,4.3,1.4,5.6
			c0.9,1.3,2.2,2,4,2c1.7,0,3-0.6,3.9-1.9c0.9-1.3,1.4-3.3,1.4-6.2c0-2.4-0.5-4.3-1.4-5.6c-0.9-1.3-2.3-2-4-2c-1.7,0-3,0.7-3.9,2
			C803.4,82.7,802.9,84.8,802.9,87.5z"/>
		<path d="M847.8,95.1c1.3,0,2.3-0.4,3.1-1.1c0.8-0.7,1.2-1.6,1.2-2.8h6.5c0,1.8-0.5,3.4-1.4,4.8c-0.9,1.5-2.2,2.6-3.9,3.4
			c-1.6,0.8-3.4,1.2-5.4,1.2c-3.7,0-6.6-1.2-8.8-3.5c-2.1-2.4-3.2-5.6-3.2-9.8V87c0-4,1.1-7.2,3.2-9.5c2.1-2.4,5-3.6,8.7-3.6
			c3.2,0,5.8,0.9,7.8,2.8c2,1.8,2.9,4.3,3,7.4h-6.5c0-1.3-0.4-2.4-1.2-3.3c-0.8-0.8-1.9-1.3-3.2-1.3c-1.6,0-2.8,0.6-3.6,1.8
			c-0.8,1.2-1.2,3.1-1.2,5.7v0.7c0,2.7,0.4,4.6,1.2,5.8C844.9,94.5,846.1,95.1,847.8,95.1z"/>
		<path d="M869.8,100.2h-6.9V63.5h6.9V100.2z"/>
		<path d="M890.5,100.2c-0.3-0.6-0.6-1.4-0.7-2.3c-1.7,1.9-3.9,2.8-6.5,2.8c-2.5,0-4.6-0.7-6.3-2.2s-2.5-3.3-2.5-5.6
			c0-2.7,1-4.8,3.1-6.3c2-1.5,5-2.2,8.8-2.2h3.2v-1.5c0-1.2-0.3-2.2-0.9-2.9c-0.6-0.7-1.6-1.1-2.9-1.1c-1.2,0-2.1,0.3-2.7,0.8
			c-0.7,0.6-1,1.3-1,2.3h-6.9c0-1.5,0.5-2.9,1.4-4.2c0.9-1.3,2.2-2.3,3.9-3c1.7-0.7,3.6-1.1,5.7-1.1c3.2,0,5.7,0.8,7.6,2.4
			c1.9,1.6,2.8,3.9,2.8,6.8v11.2c0,2.5,0.4,4.3,1,5.6v0.4H890.5z M884.8,95.4c1,0,2-0.2,2.8-0.7c0.9-0.5,1.5-1.1,1.9-1.8v-4.5H887
			c-3.5,0-5.3,1.2-5.5,3.6l0,0.4c0,0.9,0.3,1.6,0.9,2.1S883.8,95.4,884.8,95.4z"/>
		<path d="M911.1,91.8l4.8-17.4h7.2l-8.7,25.9h-6.6l-8.7-25.9h7.2L911.1,91.8z"/>
		<path d="M937.8,100.7c-3.8,0-6.9-1.2-9.3-3.5s-3.6-5.4-3.6-9.3v-0.7c0-2.6,0.5-4.9,1.5-7s2.4-3.6,4.3-4.7c1.8-1.1,3.9-1.7,6.3-1.7
			c3.5,0,6.3,1.1,8.4,3.3c2,2.2,3.1,5.4,3.1,9.5v2.8H932c0.2,1.7,0.9,3,2,4.1c1.1,1,2.5,1.5,4.3,1.5c2.7,0,4.7-1,6.2-2.9l3.4,3.8
			c-1,1.5-2.4,2.6-4.2,3.4S940,100.7,937.8,100.7z M937,79.4c-1.4,0-2.5,0.5-3.3,1.4c-0.9,0.9-1.4,2.3-1.6,4h9.6v-0.6
			c0-1.5-0.4-2.7-1.2-3.6C939.6,79.9,938.5,79.4,937,79.4z"/>
		<path d="M958,89.6c0-2.2,0.3-4,0.8-5.3s1.5-2.6,3-3.9c1.4-1.3,2.4-2.3,2.9-3.1s0.7-1.7,0.7-2.6c0-2.7-1.2-4-3.7-4
			c-1.2,0-2.1,0.4-2.8,1.1c-0.7,0.7-1.1,1.7-1.1,3h-6.9c0-3,1-5.4,3-7.2c1.9-1.7,4.6-2.6,7.9-2.6c3.4,0,6,0.8,7.9,2.5
			s2.8,3.9,2.8,6.9c0,1.4-0.3,2.6-0.9,3.8c-0.6,1.2-1.7,2.5-3.2,4l-1.9,1.8c-1.2,1.2-1.9,2.5-2.1,4.1l-0.1,1.5H958z M957.3,96.9
			c0-1.1,0.4-1.9,1.1-2.6c0.7-0.7,1.7-1,2.8-1c1.1,0,2.1,0.3,2.8,1s1.1,1.6,1.1,2.6c0,1-0.4,1.9-1.1,2.6c-0.7,0.7-1.6,1-2.8,1
			c-1.2,0-2.1-0.3-2.8-1S957.3,97.9,957.3,96.9z"/>
		<path d="M507.2,159H500v-14.9h-14V159h-7.2v-34.8h7.2v14.1h14v-14.1h7.2V159z"/>
		<path d="M528,159c-0.3-0.6-0.6-1.4-0.7-2.3c-1.7,1.9-3.9,2.8-6.5,2.8c-2.5,0-4.6-0.7-6.3-2.2c-1.7-1.5-2.5-3.3-2.5-5.6
			c0-2.7,1-4.8,3.1-6.3c2-1.5,5-2.2,8.8-2.2h3.2v-1.5c0-1.2-0.3-2.2-0.9-2.9c-0.6-0.7-1.6-1.1-2.9-1.1c-1.2,0-2.1,0.3-2.7,0.8
			c-0.7,0.6-1,1.3-1,2.3h-6.9c0-1.5,0.5-2.9,1.4-4.2c0.9-1.3,2.2-2.3,3.9-3c1.7-0.7,3.6-1.1,5.7-1.1c3.2,0,5.7,0.8,7.6,2.4
			c1.9,1.6,2.8,3.9,2.8,6.8V153c0,2.5,0.4,4.3,1,5.6v0.4H528z M522.3,154.2c1,0,2-0.2,2.8-0.7c0.9-0.5,1.5-1.1,1.9-1.8v-4.5h-2.6
			c-3.5,0-5.3,1.2-5.5,3.6l0,0.4c0,0.9,0.3,1.6,0.9,2.1C520.4,153.9,521.2,154.2,522.3,154.2z"/>
		<path d="M550,153.9c1.3,0,2.3-0.4,3.1-1.1c0.8-0.7,1.2-1.6,1.2-2.8h6.5c0,1.8-0.5,3.4-1.4,4.8c-0.9,1.5-2.2,2.6-3.9,3.4
			c-1.6,0.8-3.4,1.2-5.4,1.2c-3.7,0-6.6-1.2-8.8-3.5c-2.1-2.4-3.2-5.6-3.2-9.8v-0.5c0-4,1.1-7.2,3.2-9.5c2.1-2.4,5-3.6,8.7-3.6
			c3.2,0,5.8,0.9,7.8,2.8c2,1.8,2.9,4.3,3,7.4h-6.5c0-1.3-0.4-2.4-1.2-3.3s-1.9-1.3-3.2-1.3c-1.6,0-2.8,0.6-3.6,1.8
			s-1.2,3.1-1.2,5.7v0.7c0,2.7,0.4,4.6,1.2,5.8C547.1,153.3,548.3,153.9,550,153.9z"/>
		<path d="M576.7,159.5c-3.8,0-6.9-1.2-9.3-3.5c-2.4-2.3-3.6-5.4-3.6-9.3V146c0-2.6,0.5-4.9,1.5-7s2.4-3.6,4.3-4.7
			c1.8-1.1,3.9-1.7,6.3-1.7c3.5,0,6.3,1.1,8.4,3.3c2,2.2,3.1,5.4,3.1,9.5v2.8h-16.5c0.2,1.7,0.9,3,2,4.1c1.1,1,2.5,1.5,4.3,1.5
			c2.7,0,4.7-1,6.2-2.9l3.4,3.8c-1,1.5-2.4,2.6-4.2,3.4S578.9,159.5,576.7,159.5z M575.9,138.2c-1.4,0-2.5,0.5-3.3,1.4
			s-1.4,2.3-1.6,4h9.6v-0.6c0-1.5-0.4-2.7-1.2-3.6C578.5,138.7,577.4,138.2,575.9,138.2z M576.5,122.3h7.5l-6.6,7.4h-5.6
			L576.5,122.3z"/>
		<path d="M614.2,153.9c1.3,0,2.3-0.4,3.1-1.1c0.8-0.7,1.2-1.6,1.2-2.8h6.5c0,1.8-0.5,3.4-1.4,4.8c-0.9,1.5-2.2,2.6-3.9,3.4
			c-1.6,0.8-3.4,1.2-5.4,1.2c-3.7,0-6.6-1.2-8.8-3.5c-2.1-2.4-3.2-5.6-3.2-9.8v-0.5c0-4,1.1-7.2,3.2-9.5c2.1-2.4,5-3.6,8.7-3.6
			c3.2,0,5.8,0.9,7.8,2.8c2,1.8,2.9,4.3,3,7.4h-6.5c0-1.3-0.4-2.4-1.2-3.3c-0.8-0.8-1.9-1.3-3.2-1.3c-1.6,0-2.8,0.6-3.6,1.8
			c-0.8,1.2-1.2,3.1-1.2,5.7v0.7c0,2.7,0.4,4.6,1.2,5.8C611.4,153.3,612.6,153.9,614.2,153.9z"/>
		<path d="M636.3,159h-6.9v-36.8h6.9V159z"/>
		<path d="M642,126.4c0-1,0.3-1.9,1-2.6c0.7-0.7,1.6-1,2.8-1c1.2,0,2.1,0.3,2.8,1s1.1,1.5,1.1,2.6c0,1.1-0.4,1.9-1.1,2.6
			s-1.6,1-2.8,1s-2.1-0.3-2.8-1C642.3,128.3,642,127.5,642,126.4z M649.3,159h-6.9v-25.9h6.9V159z"/>
		<path d="M665.8,153.9c1.3,0,2.3-0.4,3.1-1.1c0.8-0.7,1.2-1.6,1.2-2.8h6.5c0,1.8-0.5,3.4-1.4,4.8c-0.9,1.5-2.2,2.6-3.9,3.4
			c-1.6,0.8-3.4,1.2-5.4,1.2c-3.7,0-6.6-1.2-8.8-3.5c-2.1-2.4-3.2-5.6-3.2-9.8v-0.5c0-4,1.1-7.2,3.2-9.5c2.1-2.4,5-3.6,8.7-3.6
			c3.2,0,5.8,0.9,7.8,2.8c2,1.8,2.9,4.3,3,7.4h-6.5c0-1.3-0.4-2.4-1.2-3.3c-0.8-0.8-1.9-1.3-3.2-1.3c-1.6,0-2.8,0.6-3.6,1.8
			c-0.8,1.2-1.2,3.1-1.2,5.7v0.7c0,2.7,0.4,4.6,1.2,5.8C662.9,153.3,664.1,153.9,665.8,153.9z"/>
		<path d="M707.8,159c-0.3-0.6-0.5-1.4-0.7-2.3c-1.7,1.9-3.9,2.8-6.5,2.8c-2.5,0-4.6-0.7-6.3-2.2c-1.7-1.5-2.5-3.3-2.5-5.6
			c0-2.7,1-4.8,3.1-6.3c2-1.5,5-2.2,8.8-2.2h3.2v-1.5c0-1.2-0.3-2.2-0.9-2.9c-0.6-0.7-1.6-1.1-2.9-1.1c-1.2,0-2.1,0.3-2.7,0.8
			c-0.7,0.6-1,1.3-1,2.3h-6.9c0-1.5,0.5-2.9,1.4-4.2c0.9-1.3,2.2-2.3,3.9-3s3.6-1.1,5.7-1.1c3.2,0,5.7,0.8,7.6,2.4
			c1.9,1.6,2.8,3.9,2.8,6.8V153c0,2.5,0.4,4.3,1,5.6v0.4H707.8z M702.1,154.2c1,0,2-0.2,2.8-0.7c0.9-0.5,1.5-1.1,1.9-1.8v-4.5h-2.6
			c-3.5,0-5.3,1.2-5.5,3.6l0,0.4c0,0.9,0.3,1.6,0.9,2.1C700.2,153.9,701,154.2,702.1,154.2z"/>
		<path d="M718,145.8c0-4.1,0.9-7.3,2.7-9.6s4.3-3.5,7.5-3.5c2.8,0,5,1.1,6.6,3.2l0.5-2.7h6.1V169h-6.9v-12.2
			c-1.6,1.8-3.7,2.7-6.3,2.7c-3.1,0-5.5-1.2-7.4-3.6C718.9,153.5,718,150.2,718,145.8z M724.9,146.3c0,2.5,0.4,4.4,1.3,5.7
			s2.1,1.9,3.7,1.9c2.1,0,3.6-0.8,4.5-2.5v-10.7c-0.9-1.6-2.3-2.4-4.5-2.4c-1.6,0-2.8,0.6-3.7,1.9S724.9,143.5,724.9,146.3z"/>
		<path d="M762.2,156.4c-1.7,2.1-4.1,3.1-7.1,3.1c-2.8,0-4.9-0.8-6.4-2.4c-1.5-1.6-2.2-3.9-2.2-7v-17h6.9v16.7c0,2.7,1.2,4,3.7,4
			c2.3,0,4-0.8,4.8-2.4v-18.3h6.9V159h-6.5L762.2,156.4z"/>
		<path d="M781.6,159h-6.9v-25.9h6.9V159z M779.6,122.6h7.5l-6.6,7.4h-5.6L779.6,122.6z"/>
	</g>
</g>
<g>
	<text transform="matrix(1 0 0 1 285.7928 425.2224)" class="st0"><tspan x="0" y="0" style="font-family:'Roboto-Bold'; font-size:49px;">¿Buscás algún concepto clave?</tspan><tspan x="189.9" y="58.8" style="font-family:'Roboto-Bold'; font-size:49px;">Hacé clic aquí</tspan></text>
</g>
<g>
	<path d="M233.1,151.3l-28-28c-4.2,6.5-9.7,12-16.2,16.2l28,28c4.5,4.5,11.7,4.5,16.2,0C237.6,163.1,237.6,155.8,233.1,151.3z"/>
	<path d="M205.9,94.5c0-25.3-20.5-45.8-45.8-45.8s-45.8,20.5-45.8,45.8s20.5,45.8,45.8,45.8S205.9,119.8,205.9,94.5z M160.1,128.9
		c-18.9,0-34.4-15.4-34.4-34.4s15.4-34.4,34.4-34.4s34.4,15.4,34.4,34.4C194.4,113.5,179,128.9,160.1,128.9z"/>
	<path d="M133.3,94.5h7.6c0-10.5,8.6-19.1,19.1-19.1v-7.6C145.3,67.8,133.3,79.8,133.3,94.5z"/>
</g>
<g>
	<path class="st1" d="M1005.5,26.7c25.4,0,46,20.6,46,46v81c0,25.4-20.6,46-46,46h-934c-25.4,0-46-20.6-46-46v-81
		c0-25.4,20.6-46,46-46L1005.5,26.7 M1005.5,22.7h-934c-27.6,0-50,22.4-50,50v81c0,27.6,22.4,50,50,50h934c27.6,0,50-22.4,50-50v-81
		C1055.5,45.1,1033.2,22.7,1005.5,22.7L1005.5,22.7z"/>
</g>
</svg>
