<?xml version="1.0" encoding="utf-8"?>
<!-- Generator: Adobe Illustrator 25.2.1, SVG Export Plug-In . SVG Version: 6.00 Build 0)  -->
<!DOCTYPE svg PUBLIC "-//W3C//DTD SVG 1.1//EN" "http://www.w3.org/Graphics/SVG/1.1/DTD/svg11.dtd" [
	<!ENTITY ns_extend "http://ns.adobe.com/Extensibility/1.0/">
	<!ENTITY ns_ai "http://ns.adobe.com/AdobeIllustrator/10.0/">
	<!ENTITY ns_graphs "http://ns.adobe.com/Graphs/1.0/">
	<!ENTITY ns_vars "http://ns.adobe.com/Variables/1.0/">
	<!ENTITY ns_imrep "http://ns.adobe.com/ImageReplacement/1.0/">
	<!ENTITY ns_sfw "http://ns.adobe.com/SaveForWeb/1.0/">
	<!ENTITY ns_custom "http://ns.adobe.com/GenericCustomNamespace/1.0/">
	<!ENTITY ns_adobe_xpath "http://ns.adobe.com/XPath/1.0/">
]>
<svg version="1.1" id="Capa_1" xmlns:x="&ns_extend;" xmlns:i="&ns_ai;" xmlns:graph="&ns_graphs;"
	 xmlns="http://www.w3.org/2000/svg" xmlns:xlink="http://www.w3.org/1999/xlink" x="0px" y="0px" viewBox="0 0 924 223.4"
	 style="enable-background:new 0 0 924 223.4;" xml:space="preserve">
<style type="text/css">
	.st0{fill:#FFFFFF;}
	.st1{enable-background:new    ;}
	.st2{fill:url(#SVGID_1_);}
</style>
<metadata>
	<sfw  xmlns="&ns_sfw;">
		<slices></slices>
		<sliceSourceBounds  bottomLeftOrigin="true" height="1158.6" width="1918.6" x="21.5" y="-957.9"></sliceSourceBounds>
	</sfw>
</metadata>
<g>
	<text transform="matrix(1 0 0 1 1187.0381 128.3497)" style="font-family:'Roboto-Bold'; font-size:49px;">¿Buscás algún concepto clave?</text>
	<text transform="matrix(1 0 0 1 1376.938 187.1497)" style="font-family:'Roboto-Regular'; font-size:49px;">Hacé clic aquí</text>
</g>
<text transform="matrix(1 0 0 1 1187.0381 453.9202)" style="font-family:'Roboto-Bold'; font-size:49px;">¿Buscás algún concepto clave?</text>
<text transform="matrix(1 0 0 1 1187.0381 591.032)" style="font-family:'Roboto-Bold'; font-size:49px;">Te esperamos en</text>
<text transform="matrix(1 0 0 1 307.3 402.7821)" style="font-family:'Roboto-Bold'; font-size:49px;">Te esperamos en</text>
<g>
	<path class="st0" d="M855.5,846.9c25.4,0,46,20.6,46,46v81c0,25.4-20.6,46-46,46h-784c-25.4,0-46-20.6-46-46v-81
		c0-25.4,20.6-46,46-46H855.5 M855.5,842.9h-784c-27.6,0-50,22.4-50,50v81c0,27.6,22.4,50,50,50h784c27.6,0,50-22.4,50-50v-81
		C905.5,865.3,883.2,842.9,855.5,842.9L855.5,842.9z"/>
</g>
<g>
	<path class="st0" d="M855.5,558.9c25.4,0,46,20.6,46,46v81c0,25.4-20.6,46-46,46h-784c-25.4,0-46-20.6-46-46v-81
		c0-25.4,20.6-46,46-46H855.5 M855.5,554.9h-784c-27.6,0-50,22.4-50,50v81c0,27.6,22.4,50,50,50h784c27.6,0,50-22.4,50-50v-81
		C905.5,577.3,883.2,554.9,855.5,554.9L855.5,554.9z"/>
</g>
<g>
	<path class="st0" d="M855.5,300.6c25.4,0,46,20.6,46,46v81c0,25.4-20.6,46-46,46h-784c-25.4,0-46-20.6-46-46v-81
		c0-25.4,20.6-46,46-46H855.5 M855.5,296.6h-784c-27.6,0-50,22.4-50,50v81c0,27.6,22.4,50,50,50h784c27.6,0,50-22.4,50-50v-81
		C905.5,319,883.2,296.6,855.5,296.6L855.5,296.6z"/>
</g>
<g>
	<g class="st1">
		<path d="M180.9,91.9c0,2.1-0.2,3.8-0.7,5.1c-0.5,1.3-1.4,2.6-2.6,3.7c-1.3,1.2-2.1,2.1-2.6,2.6c-0.5,0.6-0.8,1.2-1,1.7
			c-0.2,0.6-0.3,1.2-0.3,1.9c0,2.5,1.2,3.8,3.7,3.8c1.2,0,2.2-0.4,2.9-1.1s1.1-1.7,1.1-3h6.9c0,3.1-1,5.5-2.9,7.2s-4.6,2.6-7.9,2.6
			c-3.4,0-6-0.8-7.9-2.4s-2.8-3.9-2.8-6.9c0-2.5,1.2-5,3.7-7.5l2.3-2.2c0.8-0.7,1.4-1.5,1.7-2.3s0.5-1.9,0.5-3.3h5.9L180.9,91.9
			L180.9,91.9z M181.8,84.6c0,1.1-0.4,1.9-1.1,2.6c-0.7,0.7-1.7,1-2.8,1s-2-0.3-2.8-1c-0.7-0.7-1.1-1.6-1.1-2.6
			c0-1.1,0.4-1.9,1.1-2.6s1.6-1,2.8-1s2.1,0.3,2.8,1C181.4,82.6,181.8,83.5,181.8,84.6z"/>
		<path d="M192.5,107.3V72.5h12.2c4.2,0,7.4,0.8,9.6,2.4s3.3,4,3.3,7.1c0,1.7-0.4,3.2-1.3,4.5s-2.1,2.3-3.7,2.9
			c1.8,0.4,3.2,1.3,4.2,2.7c1,1.4,1.5,3,1.5,5c0,3.3-1.1,5.9-3.2,7.6s-5.2,2.6-9.1,2.6C206,107.3,192.5,107.3,192.5,107.3z
			 M199.6,87.1h5.3c3.6-0.1,5.4-1.5,5.4-4.3c0-1.6-0.5-2.7-1.4-3.4c-0.9-0.7-2.4-1-4.3-1h-5V87.1z M199.6,92.1v9.4h6.1
			c1.7,0,3-0.4,4-1.2c0.9-0.8,1.4-1.9,1.4-3.3c0-3.2-1.7-4.8-5-4.9H199.6z"/>
		<path d="M238.8,104.7c-1.7,2.1-4.1,3.1-7.1,3.1c-2.8,0-4.9-0.8-6.4-2.4s-2.2-3.9-2.2-7v-17h6.9v16.7c0,2.7,1.2,4,3.7,4
			c2.3,0,4-0.8,4.8-2.4V81.4h6.9v25.9H239L238.8,104.7z"/>
		<path d="M264.7,100.1c0-0.8-0.4-1.5-1.3-2c-0.8-0.5-2.2-0.9-4-1.3c-6.2-1.3-9.2-3.9-9.2-7.8c0-2.3,1-4.2,2.9-5.8
			c1.9-1.5,4.4-2.3,7.5-2.3c3.3,0,5.9,0.8,7.9,2.3s3,3.6,3,6h-6.9c0-1-0.3-1.8-1-2.5c-0.6-0.6-1.6-1-3-1c-1.2,0-2.1,0.3-2.7,0.8
			s-1,1.2-1,2s0.4,1.4,1.1,1.9s1.9,0.9,3.7,1.2s3.2,0.7,4.4,1.2c3.7,1.3,5.5,3.7,5.5,7c0,2.4-1,4.3-3,5.7c-2,1.5-4.6,2.2-7.8,2.2
			c-2.2,0-4.1-0.4-5.8-1.2c-1.7-0.8-3-1.8-4-3.2c-1-1.3-1.4-2.8-1.4-4.4h6.6c0.1,1.2,0.5,2.2,1.4,2.8s2,1,3.4,1c1.3,0,2.3-0.3,3-0.8
			C264.4,101.6,264.7,101,264.7,100.1z"/>
		<path d="M286.6,102.2c1.3,0,2.3-0.4,3.1-1.1c0.8-0.7,1.2-1.6,1.2-2.8h6.5c0,1.8-0.5,3.4-1.4,4.8c-0.9,1.5-2.2,2.6-3.9,3.4
			c-1.6,0.8-3.4,1.2-5.4,1.2c-3.7,0-6.6-1.2-8.8-3.5c-2.1-2.4-3.2-5.6-3.2-9.8V94c0-4,1.1-7.2,3.2-9.5c2.1-2.4,5-3.6,8.7-3.6
			c3.2,0,5.8,0.9,7.8,2.8c2,1.8,2.9,4.3,3,7.4H291c0-1.3-0.4-2.4-1.2-3.3c-0.8-0.8-1.9-1.3-3.2-1.3c-1.6,0-2.8,0.6-3.6,1.8
			c-0.8,1.2-1.2,3.1-1.2,5.7v0.7c0,2.7,0.4,4.6,1.2,5.8C283.8,101.6,285,102.2,286.6,102.2z"/>
		<path d="M316.4,107.3c-0.3-0.6-0.5-1.4-0.7-2.3c-1.7,1.9-3.9,2.8-6.5,2.8c-2.5,0-4.6-0.7-6.3-2.2c-1.7-1.5-2.5-3.3-2.5-5.6
			c0-2.7,1-4.8,3.1-6.3c2-1.5,5-2.2,8.8-2.2h3.2V90c0-1.2-0.3-2.2-0.9-2.9c-0.6-0.7-1.6-1.1-2.9-1.1c-1.2,0-2.1,0.3-2.7,0.8
			c-0.7,0.6-1,1.3-1,2.3h-7c0-1.5,0.5-2.9,1.4-4.2c0.9-1.3,2.2-2.3,3.9-3s3.6-1.1,5.7-1.1c3.2,0,5.7,0.8,7.6,2.4s2.8,3.9,2.8,6.8
			v11.2c0,2.5,0.4,4.3,1,5.6v0.4L316.4,107.3L316.4,107.3z M310.7,102.5c1,0,2-0.2,2.8-0.7c0.9-0.5,1.5-1.1,1.9-1.8v-4.5h-2.6
			c-3.5,0-5.3,1.2-5.5,3.6v0.4c0,0.9,0.3,1.6,0.9,2.1C308.8,102.2,309.7,102.5,310.7,102.5z M313.3,70.5h7.5l-6.6,7.4h-5.6
			L313.3,70.5z"/>
		<path d="M341.7,100.1c0-0.8-0.4-1.5-1.3-2c-0.8-0.5-2.2-0.9-4-1.3c-6.2-1.3-9.2-3.9-9.2-7.8c0-2.3,1-4.2,2.9-5.8
			c1.9-1.5,4.4-2.3,7.5-2.3c3.3,0,5.9,0.8,7.9,2.3s3,3.6,3,6h-6.9c0-1-0.3-1.8-1-2.5c-0.6-0.6-1.6-1-3-1c-1.2,0-2.1,0.3-2.7,0.8
			s-1,1.2-1,2s0.4,1.4,1.1,1.9s2,0.9,3.7,1.2s3.2,0.7,4.4,1.2c3.7,1.3,5.5,3.7,5.5,7c0,2.4-1,4.3-3,5.7c-2,1.5-4.6,2.2-7.8,2.2
			c-2.2,0-4.1-0.4-5.8-1.2s-3-1.8-4-3.2c-1-1.3-1.4-2.8-1.4-4.4h6.6c0.1,1.2,0.5,2.2,1.4,2.8c0.8,0.7,2,1,3.4,1c1.3,0,2.3-0.3,3-0.8
			C341.4,101.6,341.7,101,341.7,100.1z"/>
		<path d="M380.1,107.3c-0.3-0.6-0.6-1.4-0.7-2.3c-1.7,1.9-3.9,2.8-6.5,2.8c-2.5,0-4.6-0.7-6.3-2.2s-2.5-3.3-2.5-5.6
			c0-2.7,1-4.8,3.1-6.3c2-1.5,5-2.2,8.8-2.2h3.2V90c0-1.2-0.3-2.2-0.9-2.9c-0.6-0.7-1.6-1.1-2.9-1.1c-1.2,0-2.1,0.3-2.7,0.8
			c-0.7,0.6-1,1.3-1,2.3h-6.9c0-1.5,0.5-2.9,1.4-4.2c0.9-1.3,2.2-2.3,3.9-3c1.7-0.7,3.6-1.1,5.7-1.1c3.2,0,5.7,0.8,7.6,2.4
			s2.8,3.9,2.8,6.8v11.2c0,2.5,0.4,4.3,1,5.6v0.4L380.1,107.3L380.1,107.3z M374.4,102.5c1,0,2-0.2,2.8-0.7c0.9-0.5,1.5-1.1,1.9-1.8
			v-4.5h-2.6c-3.5,0-5.3,1.2-5.5,3.6v0.4c0,0.9,0.3,1.6,0.9,2.1S373.3,102.5,374.4,102.5z"/>
		<path d="M398.7,107.3h-6.9V70.5h6.9V107.3z"/>
		<path d="M403.4,94.2c0-4,0.9-7.2,2.8-9.6s4.4-3.6,7.6-3.6c2.8,0,5,1,6.6,2.9l0.3-2.4h6.3v25c0,2.3-0.5,4.2-1.5,5.9
			c-1,1.7-2.5,3-4.3,3.8c-1.9,0.9-4.1,1.3-6.6,1.3c-1.9,0-3.7-0.4-5.6-1.1s-3.2-1.7-4.1-2.9l3.1-4.2c1.7,1.9,3.8,2.9,6.3,2.9
			c1.8,0,3.3-0.5,4.3-1.5s1.5-2.4,1.5-4.2v-1.4c-1.6,1.8-3.7,2.7-6.3,2.7c-3.1,0-5.6-1.2-7.5-3.6s-2.9-5.7-2.9-9.7L403.4,94.2
			L403.4,94.2z M410.3,94.7c0,2.3,0.5,4.2,1.4,5.5s2.2,2,3.9,2c2.1,0,3.6-0.8,4.5-2.4V88.9c-0.9-1.6-2.4-2.4-4.5-2.4
			c-1.7,0-3,0.7-3.9,2C410.7,89.9,410.3,92,410.3,94.7z"/>
		<path d="M447.8,104.7c-1.7,2.1-4.1,3.1-7.1,3.1c-2.8,0-4.9-0.8-6.4-2.4s-2.2-3.9-2.2-7v-17h6.9v16.7c0,2.7,1.2,4,3.7,4
			c2.3,0,4-0.8,4.8-2.4V81.4h6.9v25.9H448L447.8,104.7z M444.7,70.5h7.5l-6.6,7.4H440L444.7,70.5z"/>
		<path d="M466.1,81.4l0.2,3c1.8-2.3,4.3-3.5,7.4-3.5c2.7,0,4.8,0.8,6.1,2.4c1.3,1.6,2,4,2.1,7.2v16.7H475V90.7c0-1.5-0.3-2.5-1-3.2
			c-0.6-0.7-1.7-1-3.2-1c-1.9,0-3.4,0.8-4.4,2.5v18.3h-6.9V81.4H466.1z"/>
		<path d="M510.2,102.2c1.3,0,2.3-0.4,3.1-1.1s1.2-1.6,1.2-2.8h6.5c0,1.8-0.5,3.4-1.4,4.8c-0.9,1.5-2.2,2.6-3.9,3.4
			c-1.6,0.8-3.4,1.2-5.4,1.2c-3.7,0-6.6-1.2-8.8-3.5c-2.1-2.4-3.2-5.6-3.2-9.8V94c0-4,1.1-7.2,3.2-9.5c2.1-2.4,5-3.6,8.7-3.6
			c3.2,0,5.8,0.9,7.8,2.8c2,1.8,2.9,4.3,3,7.4h-6.5c0-1.3-0.4-2.4-1.2-3.3c-0.8-0.8-1.9-1.3-3.2-1.3c-1.6,0-2.8,0.6-3.6,1.8
			c-0.8,1.2-1.2,3.1-1.2,5.7v0.7c0,2.7,0.4,4.6,1.2,5.8C507.3,101.6,508.5,102.2,510.2,102.2z"/>
		<path d="M523.9,94.1c0-2.6,0.5-4.9,1.5-6.9s2.4-3.6,4.3-4.7c1.9-1.1,4-1.7,6.5-1.7c3.5,0,6.3,1.1,8.6,3.2c2.2,2.1,3.4,5,3.7,8.7
			v1.8c0,4-1.1,7.2-3.3,9.6s-5.2,3.6-8.9,3.6s-6.7-1.2-8.9-3.6s-3.3-5.6-3.3-9.8v-0.2H523.9z M530.8,94.6c0,2.5,0.5,4.3,1.4,5.6
			c0.9,1.3,2.2,2,4,2c1.7,0,3-0.6,3.9-1.9s1.4-3.3,1.4-6.2c0-2.4-0.5-4.3-1.4-5.6c-0.9-1.3-2.3-2-4-2s-3,0.7-3.9,2
			C531.2,89.8,530.8,91.8,530.8,94.6z"/>
		<path d="M559,81.4l0.2,3c1.9-2.3,4.3-3.5,7.4-3.5c2.7,0,4.8,0.8,6.1,2.4s2,4,2.1,7.2v16.7h-6.9V90.7c0-1.5-0.3-2.5-1-3.2
			c-0.6-0.7-1.7-1-3.2-1c-1.9,0-3.4,0.8-4.4,2.5v18.3h-6.9V81.4H559z"/>
		<path d="M590.9,102.2c1.3,0,2.3-0.4,3.1-1.1s1.2-1.6,1.2-2.8h6.5c0,1.8-0.5,3.4-1.4,4.8c-0.9,1.5-2.2,2.6-3.9,3.4
			c-1.6,0.8-3.4,1.2-5.4,1.2c-3.7,0-6.6-1.2-8.8-3.5c-2.1-2.4-3.2-5.6-3.2-9.8V94c0-4,1.1-7.2,3.2-9.5c2.1-2.4,5-3.6,8.7-3.6
			c3.2,0,5.8,0.9,7.8,2.8c2,1.8,2.9,4.3,3,7.4h-6.5c0-1.3-0.4-2.4-1.2-3.3s-1.9-1.3-3.2-1.3c-1.6,0-2.8,0.6-3.6,1.8S586,91.4,586,94
			v0.7c0,2.7,0.4,4.6,1.2,5.8C588,101.6,589.2,102.2,590.9,102.2z"/>
		<path d="M617.6,107.8c-3.8,0-6.9-1.2-9.3-3.5c-2.4-2.3-3.6-5.4-3.6-9.3v-0.7c0-2.6,0.5-4.9,1.5-7s2.4-3.6,4.3-4.7
			c1.8-1.1,3.9-1.7,6.3-1.7c3.5,0,6.3,1.1,8.4,3.3c2,2.2,3.1,5.4,3.1,9.5v2.8h-16.5c0.2,1.7,0.9,3,2,4.1c1.1,1,2.5,1.5,4.3,1.5
			c2.7,0,4.7-1,6.2-2.9l3.4,3.8c-1,1.5-2.4,2.6-4.2,3.4S619.7,107.8,617.6,107.8z M616.8,86.5c-1.4,0-2.5,0.5-3.3,1.4
			s-1.4,2.3-1.6,4h9.6v-0.6c0-1.5-0.4-2.7-1.2-3.6C619.4,86.9,618.2,86.5,616.8,86.5z"/>
		<path d="M655.4,94.6c0,4-0.9,7.2-2.7,9.6s-4.3,3.6-7.3,3.6c-2.6,0-4.7-0.9-6.3-2.7v12.2h-6.9V81.4h6.4l0.2,2.5c1.7-2,3.9-3,6.6-3
			c3.2,0,5.7,1.2,7.4,3.5s2.7,5.6,2.7,9.8v0.4C655.5,94.6,655.4,94.6,655.4,94.6z M648.5,94.1c0-2.4-0.4-4.3-1.3-5.6
			c-0.9-1.3-2.1-2-3.7-2c-2.2,0-3.7,0.8-4.5,2.5v10.6c0.8,1.7,2.4,2.6,4.5,2.6C646.9,102.2,648.5,99.5,648.5,94.1z"/>
		<path d="M668,75v6.4h4.4v5.1H668v12.9c0,1,0.2,1.6,0.6,2.1c0.4,0.4,1.1,0.6,2.1,0.6c0.8,0,1.4-0.1,2-0.2v5.2
			c-1.4,0.4-2.8,0.6-4.2,0.6c-4.8,0-7.3-2.4-7.4-7.3V86.5h-3.8v-5.1h3.8V75H668z"/>
		<path d="M674.5,94.1c0-2.6,0.5-4.9,1.5-6.9s2.4-3.6,4.3-4.7c1.9-1.1,4-1.7,6.5-1.7c3.5,0,6.3,1.1,8.6,3.2s3.4,5,3.7,8.7v1.8
			c0,4-1.1,7.2-3.3,9.6s-5.2,3.6-8.9,3.6s-6.7-1.2-8.9-3.6s-3.3-5.6-3.3-9.8v-0.2H674.5z M681.4,94.6c0,2.5,0.5,4.3,1.4,5.6
			s2.2,2,4,2c1.7,0,3-0.6,3.9-1.9s1.4-3.3,1.4-6.2c0-2.4-0.5-4.3-1.4-5.6c-0.9-1.3-2.3-2-4-2s-3,0.7-3.9,2S681.4,91.8,681.4,94.6z"
			/>
		<path d="M726.2,102.2c1.3,0,2.3-0.4,3.1-1.1s1.2-1.6,1.2-2.8h6.5c0,1.8-0.5,3.4-1.4,4.8c-0.9,1.5-2.2,2.6-3.9,3.4
			c-1.6,0.8-3.4,1.2-5.4,1.2c-3.7,0-6.6-1.2-8.8-3.5c-2.1-2.4-3.2-5.6-3.2-9.8V94c0-4,1.1-7.2,3.2-9.5c2.1-2.4,5-3.6,8.7-3.6
			c3.2,0,5.8,0.9,7.8,2.8c2,1.8,2.9,4.3,3,7.4h-6.5c0-1.3-0.4-2.4-1.2-3.3s-1.9-1.3-3.2-1.3c-1.6,0-2.8,0.6-3.6,1.8
			s-1.2,3.1-1.2,5.7v0.7c0,2.7,0.4,4.6,1.2,5.8C723.3,101.6,724.6,102.2,726.2,102.2z"/>
		<path d="M748.3,107.3h-6.9V70.5h6.9V107.3z"/>
		<path d="M769,107.3c-0.3-0.6-0.5-1.4-0.7-2.3c-1.7,1.9-3.9,2.8-6.5,2.8c-2.5,0-4.6-0.7-6.3-2.2s-2.5-3.3-2.5-5.6
			c0-2.7,1-4.8,3.1-6.3c2-1.5,5-2.2,8.8-2.2h3.2V90c0-1.2-0.3-2.2-0.9-2.9c-0.6-0.7-1.6-1.1-2.9-1.1c-1.2,0-2.1,0.3-2.7,0.8
			c-0.7,0.6-1,1.3-1,2.3h-6.9c0-1.5,0.5-2.9,1.4-4.2c0.9-1.3,2.2-2.3,3.9-3s3.6-1.1,5.7-1.1c3.2,0,5.7,0.8,7.6,2.4
			c1.9,1.6,2.8,3.9,2.8,6.8v11.2c0,2.5,0.4,4.3,1,5.6v0.4L769,107.3L769,107.3z M763.3,102.5c1,0,2-0.2,2.8-0.7
			c0.9-0.5,1.5-1.1,1.9-1.8v-4.5h-2.6c-3.5,0-5.3,1.2-5.5,3.6v0.4c0,0.9,0.3,1.6,0.9,2.1C761.4,102.2,762.2,102.5,763.3,102.5z"/>
		<path d="M789.6,98.9l4.8-17.4h7.2l-8.7,25.9h-6.6l-8.7-25.9h7.2L789.6,98.9z"/>
		<path d="M816.3,107.8c-3.8,0-6.9-1.2-9.3-3.5c-2.4-2.3-3.6-5.4-3.6-9.3v-0.7c0-2.6,0.5-4.9,1.5-7s2.4-3.6,4.3-4.7
			c1.8-1.1,3.9-1.7,6.3-1.7c3.5,0,6.3,1.1,8.4,3.3c2,2.2,3.1,5.4,3.1,9.5v2.8h-16.5c0.2,1.7,0.9,3,2,4.1c1.1,1,2.5,1.5,4.3,1.5
			c2.7,0,4.7-1,6.2-2.9l3.4,3.8c-1,1.5-2.4,2.6-4.2,3.4S818.4,107.8,816.3,107.8z M815.5,86.5c-1.4,0-2.5,0.5-3.3,1.4
			s-1.4,2.3-1.6,4h9.6v-0.6c0-1.5-0.4-2.7-1.2-3.6C818.1,86.9,817,86.5,815.5,86.5z"/>
		<path d="M836.5,96.6c0-2.2,0.3-4,0.8-5.3s1.5-2.6,3-3.9c1.4-1.3,2.4-2.3,2.9-3.1s0.7-1.7,0.7-2.6c0-2.7-1.2-4-3.7-4
			c-1.2,0-2.1,0.4-2.8,1.1s-1.1,1.7-1.1,3h-6.9c0-3,1-5.4,3-7.2c1.9-1.7,4.6-2.6,7.9-2.6c3.4,0,6,0.8,7.9,2.5s2.8,3.9,2.8,6.9
			c0,1.4-0.3,2.6-0.9,3.8c-0.6,1.2-1.7,2.5-3.2,4L845,91c-1.2,1.2-1.9,2.5-2.1,4.1l-0.1,1.5C842.8,96.6,836.5,96.6,836.5,96.6z
			 M835.8,104c0-1.1,0.4-1.9,1.1-2.6s1.7-1,2.8-1s2.1,0.3,2.8,1s1.1,1.6,1.1,2.6s-0.4,1.9-1.1,2.6s-1.6,1-2.8,1s-2.1-0.3-2.8-1
			C836.2,105.9,835.8,105,835.8,104z"/>
	</g>
	<g class="st1">
		<path d="M385.7,166.1h-4.6V150h-17.6v16.1h-4.6v-34.8h4.6v15h17.6v-15h4.6V166.1z"/>
		<path d="M409.1,166.1c-0.3-0.5-0.5-1.4-0.6-2.7c-2.1,2.1-4.5,3.2-7.4,3.2c-2.6,0-4.6-0.7-6.3-2.2c-1.6-1.4-2.5-3.3-2.5-5.5
			c0-2.7,1-4.8,3.1-6.3c2-1.5,4.9-2.2,8.6-2.2h4.3v-2c0-1.5-0.5-2.8-1.4-3.7s-2.3-1.4-4.1-1.4c-1.6,0-2.9,0.4-4,1.2
			s-1.6,1.8-1.6,2.9h-4.5c0-1.3,0.5-2.5,1.4-3.7s2.2-2.2,3.7-2.9c1.6-0.7,3.3-1.1,5.2-1.1c3,0,5.3,0.7,7,2.2s2.6,3.5,2.6,6.2V160
			c0,2.4,0.3,4.3,0.9,5.7v0.4L409.1,166.1L409.1,166.1z M401.8,162.7c1.4,0,2.7-0.4,3.9-1.1s2.1-1.7,2.7-2.8v-5.3H405
			c-5.4,0-8.1,1.6-8.1,4.8c0,1.4,0.5,2.5,1.4,3.3C399.1,162.3,400.3,162.7,401.8,162.7z"/>
		<path d="M430.2,163c1.6,0,3-0.5,4.1-1.4c1.2-1,1.8-2.2,2-3.6h4.2c-0.1,1.5-0.6,2.9-1.5,4.2s-2.2,2.4-3.8,3.2
			c-1.6,0.8-3.2,1.2-5,1.2c-3.5,0-6.3-1.2-8.4-3.5c-2.1-2.4-3.1-5.6-3.1-9.7v-0.7c0-2.5,0.5-4.8,1.4-6.7c0.9-2,2.3-3.5,4-4.6
			s3.8-1.6,6.1-1.6c2.9,0,5.3,0.9,7.2,2.6c1.9,1.7,2.9,4,3.1,6.8h-4.2c-0.1-1.7-0.8-3.1-1.9-4.1c-1.1-1.1-2.5-1.6-4.2-1.6
			c-2.2,0-4,0.8-5.2,2.4c-1.2,1.6-1.9,4-1.9,7v0.8c0,3,0.6,5.3,1.8,6.9C426.1,162.2,427.9,163,430.2,163z"/>
		<path d="M456.2,166.6c-3.5,0-6.4-1.2-8.6-3.5s-3.3-5.4-3.3-9.2v-0.8c0-2.6,0.5-4.9,1.5-6.9s2.4-3.6,4.1-4.7
			c1.8-1.1,3.7-1.7,5.7-1.7c3.4,0,6,1.1,7.8,3.3c1.9,2.2,2.8,5.4,2.8,9.5v1.8h-17.5c0.1,2.6,0.8,4.6,2.2,6.2
			c1.4,1.6,3.2,2.4,5.4,2.4c1.6,0,2.9-0.3,4-1c1.1-0.6,2-1.5,2.8-2.5l2.7,2.1C463.8,164.9,460.5,166.6,456.2,166.6z M455.6,143.4
			c-1.8,0-3.3,0.7-4.5,2s-2,3.1-2.2,5.5h13v-0.3c-0.1-2.2-0.7-4-1.8-5.2C459,144,457.5,143.4,455.6,143.4z M457.8,129.3h5.4l-6.4,7
			h-3.6L457.8,129.3z"/>
		<path d="M493.9,163c1.6,0,3-0.5,4.1-1.4c1.2-1,1.8-2.2,2-3.6h4.2c-0.1,1.5-0.6,2.9-1.5,4.2s-2.2,2.4-3.8,3.2
			c-1.6,0.8-3.2,1.2-5,1.2c-3.5,0-6.3-1.2-8.4-3.5c-2.1-2.4-3.1-5.6-3.1-9.7v-0.7c0-2.5,0.5-4.8,1.4-6.7c0.9-2,2.3-3.5,4-4.6
			s3.8-1.6,6.1-1.6c2.9,0,5.3,0.9,7.2,2.6c1.9,1.7,2.9,4,3.1,6.8H500c-0.1-1.7-0.8-3.1-1.9-4.1c-1.1-1.1-2.5-1.6-4.2-1.6
			c-2.2,0-4,0.8-5.2,2.4c-1.2,1.6-1.9,4-1.9,7v0.8c0,3,0.6,5.3,1.8,6.9C489.9,162.2,491.6,163,493.9,163z"/>
		<path d="M514,166.1h-4.4v-36.8h4.4V166.1z"/>
		<path d="M521.1,133.3c0-0.7,0.2-1.3,0.7-1.8c0.4-0.5,1.1-0.7,2-0.7s1.5,0.2,2,0.7c0.4,0.5,0.7,1.1,0.7,1.8s-0.2,1.3-0.7,1.8
			c-0.4,0.5-1.1,0.7-2,0.7s-1.5-0.2-2-0.7C521.3,134.7,521.1,134.1,521.1,133.3z M525.9,166.1h-4.4v-25.9h4.4V166.1z"/>
		<path d="M543.3,163c1.6,0,3-0.5,4.1-1.4c1.2-1,1.8-2.2,2-3.6h4.2c-0.1,1.5-0.6,2.9-1.5,4.2s-2.2,2.4-3.8,3.2s-3.2,1.2-5,1.2
			c-3.5,0-6.3-1.2-8.4-3.5c-2.1-2.4-3.1-5.6-3.1-9.7v-0.7c0-2.5,0.5-4.8,1.4-6.7c0.9-2,2.3-3.5,4-4.6s3.8-1.6,6.1-1.6
			c2.9,0,5.3,0.9,7.2,2.6c1.9,1.7,2.9,4,3.1,6.8h-4.2c-0.1-1.7-0.8-3.1-1.9-4.1c-1.1-1.1-2.5-1.6-4.2-1.6c-2.2,0-4,0.8-5.2,2.4
			c-1.2,1.6-1.9,4-1.9,7v0.8c0,3,0.6,5.3,1.8,6.9C539.3,162.2,541.1,163,543.3,163z"/>
		<path d="M586.7,166.1c-0.3-0.5-0.5-1.4-0.6-2.7c-2.1,2.1-4.5,3.2-7.4,3.2c-2.6,0-4.6-0.7-6.3-2.2c-1.6-1.4-2.5-3.3-2.5-5.5
			c0-2.7,1-4.8,3.1-6.3c2-1.5,4.9-2.2,8.6-2.2h4.3v-2c0-1.5-0.5-2.8-1.4-3.7s-2.3-1.4-4.1-1.4c-1.6,0-2.9,0.4-4,1.2
			s-1.6,1.8-1.6,2.9h-4.5c0-1.3,0.5-2.5,1.4-3.7s2.2-2.2,3.7-2.9s3.3-1.1,5.2-1.1c3,0,5.3,0.7,7,2.2s2.6,3.5,2.6,6.2V160
			c0,2.4,0.3,4.3,0.9,5.7v0.4L586.7,166.1L586.7,166.1z M579.4,162.7c1.4,0,2.7-0.4,3.9-1.1s2.1-1.7,2.7-2.8v-5.3h-3.5
			c-5.4,0-8.1,1.6-8.1,4.8c0,1.4,0.5,2.5,1.4,3.3C576.7,162.3,577.9,162.7,579.4,162.7z"/>
		<path d="M596.3,152.9c0-4.1,0.9-7.3,2.8-9.7c1.9-2.4,4.4-3.6,7.5-3.6s5.5,1,7.2,3.1l0.2-2.6h4.1v35.8h-4.4v-12.3
			c-1.8,1.9-4.2,2.9-7.1,2.9c-3.1,0-5.6-1.2-7.5-3.6c-1.9-2.4-2.8-5.7-2.8-9.7V152.9z M600.7,153.4c0,3,0.6,5.3,1.9,7
			c1.3,1.7,2.9,2.5,5.1,2.5c2.6,0,4.6-1.2,6-3.5v-12.7c-1.4-2.3-3.4-3.4-6-3.4c-2.1,0-3.8,0.8-5.1,2.5
			C601.4,147.6,600.7,150.1,600.7,153.4z"/>
		<path d="M641.2,163.5c-1.7,2-4.3,3-7.6,3c-2.8,0-4.9-0.8-6.3-2.4c-1.4-1.6-2.2-4-2.2-7.1v-16.8h4.4v16.7c0,3.9,1.6,5.9,4.8,5.9
			c3.4,0,5.6-1.3,6.7-3.8v-18.8h4.4v25.9h-4.2L641.2,163.5z"/>
		<path d="M657.1,129.4h5.4l-6.4,7h-3.6L657.1,129.4z M657.1,166.1h-4.5v-25.9h4.5V166.1z"/>
	</g>
</g>
<g>
	<path d="M165.1,151.3l-28-28c-4.2,6.5-9.7,12-16.2,16.2l28,28c4.5,4.5,11.7,4.5,16.2,0C169.6,163.1,169.6,155.8,165.1,151.3z"/>
	<path d="M137.9,94.5c0-25.3-20.5-45.8-45.8-45.8S46.3,69.2,46.3,94.5s20.5,45.8,45.8,45.8S137.9,119.8,137.9,94.5z M92.1,128.9
		c-18.9,0-34.4-15.4-34.4-34.4s15.4-34.4,34.4-34.4s34.4,15.4,34.4,34.4C126.4,113.5,111,128.9,92.1,128.9z"/>
	<path d="M65.3,94.5h7.6c0-10.5,8.6-19.1,19.1-19.1v-7.6C77.3,67.8,65.3,79.8,65.3,94.5z"/>
</g>
<g>
	<path class="st0" d="M855.5,26.7c25.4,0,46,20.6,46,46v81c0,25.4-20.6,46-46,46h-784c-25.4,0-46-20.6-46-46v-81
		c0-25.4,20.6-46,46-46L855.5,26.7 M855.5,22.7h-784c-27.6,0-50,22.4-50,50v81c0,27.6,22.4,50,50,50h784c27.6,0,50-22.4,50-50v-81
		C905.5,45.1,883.2,22.7,855.5,22.7L855.5,22.7z"/>
</g>
<g>
	<g>
		<path d="M1267.5,774h-12.6v34.4h-8.6V774h-12.5v-6.9h33.6L1267.5,774L1267.5,774z"/>
		<path d="M1283.4,809c-4.5,0-8.2-1.4-11-4.2s-4.3-6.5-4.3-11V793c0-3,0.6-5.8,1.8-8.3c1.2-2.5,2.8-4.3,5-5.6s4.7-2,7.5-2
			c4.2,0,7.5,1.3,9.9,4s3.6,6.4,3.6,11.3v3.3h-19.6c0.3,2,1,3.6,2.4,4.8c1.3,1.2,3,1.8,5,1.8c3.1,0,5.6-1.1,7.4-3.4l4,4.6
			c-1.2,1.7-2.9,3.1-5,4.1C1288.3,808.5,1286,809,1283.4,809z M1282.5,783.8c-1.6,0-2.9,0.6-4,1.6c-1,1.1-1.6,2.7-1.9,4.8h11.4v-0.7
			c0-1.8-0.6-3.2-1.5-4.3C1285.6,784.3,1284.3,783.8,1282.5,783.8z"/>
		<path d="M1329.3,809c-4.5,0-8.2-1.4-11-4.2c-2.9-2.8-4.3-6.5-4.3-11V793c0-3,0.6-5.8,1.8-8.3c1.2-2.5,2.8-4.3,5-5.6s4.7-2,7.5-2
			c4.2,0,7.5,1.3,9.9,4s3.6,6.4,3.6,11.3v3.3h-19.6c0.3,2,1,3.6,2.4,4.8c1.3,1.2,3,1.8,5,1.8c3.1,0,5.6-1.1,7.4-3.4l4,4.6
			c-1.2,1.7-2.8,3.1-5,4.1C1334.2,808.5,1331.9,809,1329.3,809z M1328.4,783.8c-1.6,0-2.9,0.6-4,1.6c-1,1.1-1.6,2.7-1.9,4.8h11.4
			v-0.7c0-1.8-0.6-3.2-1.5-4.3C1331.5,784.3,1330.1,783.8,1328.4,783.8z"/>
		<path d="M1363.2,800c0-1-0.5-1.8-1.5-2.4c-1-0.6-2.6-1-4.8-1.5c-7.3-1.5-10.9-4.7-10.9-9.3c0-2.8,1.1-5,3.4-6.8s5.2-2.8,8.8-2.8
			c3.9,0,7,0.9,9.3,2.8c2.4,1.8,3.5,4.2,3.5,7.1h-8.2c0-1.1-0.4-2.2-1.1-2.9s-1.9-1.1-3.5-1.1c-1.4,0-2.5,0.3-3.2,0.9
			c-0.8,0.7-1.1,1.4-1.1,2.4s0.5,1.6,1.3,2.2c0.9,0.6,2.3,1,4.4,1.4s3.8,0.9,5.1,1.3c4.4,1.6,6.5,4.4,6.5,8.3c0,2.8-1.2,5-3.6,6.8
			c-2.4,1.7-5.5,2.6-9.3,2.6c-2.6,0-4.8-0.5-6.8-1.3c-2-0.9-3.6-2.2-4.7-3.8s-1.7-3.3-1.7-5.2h7.8c0.1,1.4,0.6,2.6,1.6,3.3
			s2.4,1.1,4,1.1s2.8-0.3,3.6-0.9C1362.9,801.6,1363.2,800.9,1363.2,800z"/>
		<path d="M1404.1,793.4c0,4.8-1,8.6-3.2,11.4c-2.2,2.8-5,4.3-8.7,4.3c-3.1,0-5.6-1-7.5-3.2v14.4h-8.2v-42.6h7.6l0.3,3
			c2-2.4,4.6-3.6,7.8-3.6c3.8,0,6.7,1.4,8.8,4.2c2.1,2.8,3.1,6.7,3.1,11.6L1404.1,793.4L1404.1,793.4z M1396,792.8
			c0-2.9-0.5-5-1.5-6.7c-1-1.5-2.5-2.3-4.4-2.3c-2.6,0-4.4,1-5.3,2.9v12.5c1,2,2.8,3,5.3,3C1394,802.4,1396,799.2,1396,792.8z"/>
		<path d="M1423.3,809c-4.5,0-8.2-1.4-11-4.2c-2.9-2.8-4.3-6.5-4.3-11V793c0-3,0.6-5.8,1.8-8.3c1.2-2.5,2.9-4.3,5-5.6
			c2.2-1.3,4.7-2,7.5-2c4.2,0,7.5,1.3,9.9,4s3.6,6.4,3.6,11.3v3.3h-19.6c0.3,2,1,3.6,2.4,4.8s3,1.8,5,1.8c3.1,0,5.6-1.1,7.4-3.4
			l4,4.6c-1.2,1.7-2.9,3.1-5,4.1C1428.3,808.5,1425.9,809,1423.3,809z M1422.4,783.8c-1.6,0-2.9,0.6-4,1.6c-1,1.1-1.6,2.7-1.9,4.8
			h11.4v-0.7c0-1.8-0.6-3.2-1.5-4.3C1425.5,784.3,1424.2,783.8,1422.4,783.8z"/>
		<path d="M1457.9,785.4c-1.1-0.2-2.1-0.2-2.9-0.2c-3.1,0-5.1,1-6.1,3.1v20.1h-8.2v-30.7h7.8l0.2,3.7c1.6-2.8,3.9-4.3,6.8-4.3
			c1,0,1.8,0.1,2.6,0.4L1457.9,785.4z"/>
		<path d="M1478.8,808.4c-0.4-0.8-0.7-1.6-0.9-2.8c-2,2.2-4.6,3.3-7.8,3.3c-3,0-5.5-0.9-7.5-2.6c-2-1.7-2.9-3.9-2.9-6.6
			c0-3.2,1.2-5.8,3.6-7.5s5.9-2.7,10.5-2.7h3.8v-1.8c0-1.4-0.4-2.6-1.1-3.4c-0.8-0.9-1.9-1.2-3.4-1.2c-1.4,0-2.5,0.3-3.2,0.9
			c-0.8,0.7-1.1,1.6-1.1,2.8h-8.2c0-1.8,0.6-3.4,1.6-4.9c1.1-1.5,2.7-2.7,4.7-3.6c2-0.9,4.3-1.3,6.7-1.3c3.8,0,6.7,0.9,9,2.8
			c2.2,1.9,3.3,4.6,3.3,8v13.3c0,2.9,0.4,5.1,1.2,6.6v0.5L1478.8,808.4L1478.8,808.4z M1472,802.7c1.2,0,2.3-0.3,3.3-0.9
			c1-0.6,1.8-1.2,2.3-2.2v-5.3h-3c-4.1,0-6.3,1.4-6.6,4.3v0.5c0,1,0.4,1.9,1,2.6C1469.7,802.3,1470.7,802.7,1472,802.7z"/>
		<path d="M1499.8,777.7l0.3,3.4c2.2-2.7,5.1-4,8.8-4c4,0,6.6,1.5,8.2,4.7c2.2-3.1,5.2-4.7,9.2-4.7c3.3,0,5.8,0.9,7.4,2.9
			c1.6,1.9,2.5,4.8,2.5,8.7v19.6h-8.3v-19.6c0-1.7-0.4-3-1-3.8s-1.9-1.2-3.6-1.2c-2.5,0-4.2,1.1-5.1,3.5v21.1h-8.2v-19.6
			c0-1.8-0.4-3-1-3.9c-0.7-0.8-1.9-1.2-3.6-1.2c-2.3,0-4,0.9-5,2.8v21.8h-8.2v-30.5H1499.8z"/>
		<path d="M1541.2,792.8c0-3,0.6-5.8,1.8-8.2c1.1-2.4,2.9-4.3,5-5.5c2.2-1.3,4.8-2,7.7-2c4.2,0,7.5,1.2,10.2,3.8s4.1,6,4.4,10.4
			l0.1,2.1c0,4.8-1.3,8.5-4,11.3s-6.2,4.3-10.5,4.3c-4.5,0-8-1.4-10.6-4.3c-2.6-2.9-4-6.7-4-11.6L1541.2,792.8L1541.2,792.8z
			 M1549.4,793.4c0,2.9,0.6,5.1,1.6,6.7c1.1,1.5,2.7,2.3,4.8,2.3c2,0,3.5-0.8,4.7-2.3s1.7-4,1.7-7.3c0-2.9-0.6-5-1.7-6.7
			s-2.7-2.4-4.8-2.4c-2,0-3.5,0.8-4.7,2.4C1550,787.7,1549.4,790.1,1549.4,793.4z"/>
		<path d="M1592,800c0-1-0.5-1.8-1.5-2.4c-1-0.6-2.6-1-4.8-1.5c-7.3-1.5-10.9-4.7-10.9-9.3c0-2.8,1.1-5,3.4-6.8s5.2-2.8,8.8-2.8
			c3.9,0,7,0.9,9.3,2.8c2.4,1.8,3.5,4.2,3.5,7.1h-8.2c0-1.1-0.4-2.2-1.1-2.9c-0.8-0.8-1.9-1.1-3.5-1.1c-1.4,0-2.5,0.3-3.2,0.9
			c-0.8,0.7-1.1,1.4-1.1,2.4s0.5,1.6,1.3,2.2c0.9,0.6,2.3,1,4.4,1.4s3.8,0.9,5.1,1.3c4.4,1.6,6.5,4.4,6.5,8.3c0,2.8-1.2,5-3.6,6.8
			c-2.4,1.7-5.5,2.6-9.3,2.6c-2.6,0-4.8-0.5-6.8-1.3c-2-0.9-3.6-2.2-4.7-3.8s-1.7-3.3-1.7-5.2h7.8c0.1,1.4,0.6,2.6,1.6,3.3
			c1,0.8,2.4,1.1,4,1.1s2.8-0.3,3.6-0.9C1591.6,801.7,1592,800.9,1592,800z"/>
		<path d="M1633.9,809c-4.5,0-8.2-1.4-11-4.2s-4.3-6.5-4.3-11V793c0-3,0.6-5.8,1.8-8.3c1.2-2.5,2.9-4.3,5-5.6c2.2-1.3,4.7-2,7.5-2
			c4.2,0,7.5,1.3,9.9,4s3.6,6.4,3.6,11.3v3.3h-19.6c0.3,2,1,3.6,2.4,4.8s3,1.8,5,1.8c3.1,0,5.6-1.1,7.4-3.4l4,4.6
			c-1.2,1.7-2.9,3.1-5,4.1C1638.7,808.5,1636.4,809,1633.9,809z M1632.9,783.8c-1.6,0-2.9,0.6-4,1.6c-1,1.1-1.6,2.7-1.9,4.8h11.4
			v-0.7c0-1.8-0.6-3.2-1.5-4.3C1636,784.3,1634.6,783.8,1632.9,783.8z"/>
		<path d="M1658.7,777.7l0.3,3.5c2.2-2.8,5.1-4.1,8.8-4.1c3.2,0,5.7,0.9,7.2,2.8c1.6,1.9,2.4,4.8,2.5,8.5v19.9h-8.2v-19.7
			c0-1.7-0.4-3-1.1-3.8c-0.8-0.8-2-1.1-3.8-1.1c-2.3,0-4.1,1-5.2,2.9v21.7h-8.2v-30.6L1658.7,777.7L1658.7,777.7z"/>
	</g>
</g>
<g>
	
		<linearGradient id="SVGID_1_" gradientUnits="userSpaceOnUse" x1="156.3707" y1="-974.2292" x2="74.6293" y2="-1055.9708" gradientTransform="matrix(1 0 0 -1 0 -628)">
		<stop  offset="1.104800e-03" style="stop-color:#FFE185"/>
		<stop  offset="0.2094" style="stop-color:#FFBB36"/>
		<stop  offset="0.3765" style="stop-color:#FF5176"/>
		<stop  offset="0.5238" style="stop-color:#F63395"/>
		<stop  offset="0.7394" style="stop-color:#A436D2"/>
		<stop  offset="1" style="stop-color:#5F4EED"/>
	</linearGradient>
	<circle class="st2" cx="115.5" cy="387.1" r="57.8"/>
	<g>
		<g>
			<path class="st0" d="M133.4,365.2c-2.2,0-4,1.8-4,4s1.8,4,4,4s4-1.8,4-4S135.7,365.2,133.4,365.2z"/>
			<path class="st0" d="M115.8,370.3c-9.2,0-16.7,7.5-16.7,16.7s7.5,16.7,16.7,16.7s16.7-7.5,16.7-16.7
				C132.4,377.8,124.9,370.3,115.8,370.3z M115.8,397.6c-5.9,0-10.7-4.8-10.7-10.7s4.8-10.7,10.7-10.7s10.7,4.8,10.7,10.7
				C126.5,392.9,121.7,397.6,115.8,397.6z"/>
			<path class="st0" d="M129,420.9h-27.1c-11.2,0-20.3-9.1-20.3-20.3v-27.1c0-11.2,9.1-20.3,20.3-20.3H129
				c11.2,0,20.3,9.1,20.3,20.3v27.1C149.3,411.7,140.2,420.9,129,420.9z M101.9,359.5c-7.7,0-14,6.3-14,14v27.1c0,7.7,6.3,14,14,14
				H129c7.7,0,14-6.3,14-14v-27c0-7.7-6.3-14-14-14L101.9,359.5L101.9,359.5z"/>
		</g>
	</g>
</g>
<g class="st1">
	<path d="M233.2,623.7c0,2.1-0.2,3.8-0.7,5.1s-1.4,2.6-2.6,3.7c-1.3,1.2-2.1,2.1-2.6,2.6c-0.5,0.6-0.8,1.2-1,1.7
		c-0.2,0.6-0.3,1.2-0.3,1.9c0,2.5,1.2,3.8,3.7,3.8c1.2,0,2.2-0.4,2.9-1.1c0.7-0.7,1.1-1.7,1.1-3h6.9c0,3.1-1,5.5-2.9,7.2
		s-4.6,2.6-7.9,2.6c-3.4,0-6-0.8-7.9-2.4c-1.9-1.6-2.8-3.9-2.8-6.9c0-2.5,1.2-5,3.7-7.5l2.3-2.2c0.8-0.7,1.4-1.5,1.7-2.3
		s0.5-1.9,0.5-3.3h5.9V623.7z M234.1,616.4c0,1.1-0.4,1.9-1.1,2.6c-0.7,0.7-1.7,1-2.8,1s-2-0.3-2.8-1c-0.7-0.7-1.1-1.6-1.1-2.6
		c0-1.1,0.4-1.9,1.1-2.6c0.7-0.7,1.6-1,2.8-1s2.1,0.3,2.8,1C233.7,614.4,234.1,615.3,234.1,616.4z"/>
	<path d="M273.1,639.1h-7.2l-14-22.9v22.9h-7.2v-34.8h7.2l14,23v-23h7.2V639.1z"/>
	<path d="M290.8,639.6c-3.8,0-6.9-1.2-9.3-3.5s-3.6-5.4-3.6-9.3v-0.7c0-2.6,0.5-4.9,1.5-7s2.4-3.6,4.3-4.7c1.8-1.1,3.9-1.7,6.3-1.7
		c3.5,0,6.3,1.1,8.4,3.3c2,2.2,3.1,5.4,3.1,9.5v2.8H285c0.2,1.7,0.9,3,2,4.1c1.1,1,2.5,1.5,4.3,1.5c2.7,0,4.7-1,6.2-2.9l3.4,3.8
		c-1,1.5-2.4,2.6-4.2,3.4S293,639.6,290.8,639.6z M290,618.3c-1.4,0-2.5,0.5-3.3,1.4c-0.9,0.9-1.4,2.3-1.6,4h9.6v-0.6
		c0-1.5-0.4-2.7-1.2-3.6C292.6,618.7,291.5,618.3,290,618.3z"/>
	<path d="M316.2,634c1.3,0,2.3-0.4,3.1-1.1c0.8-0.7,1.2-1.6,1.2-2.8h6.5c0,1.8-0.5,3.4-1.4,4.8c-0.9,1.5-2.2,2.6-3.9,3.4
		c-1.6,0.8-3.4,1.2-5.4,1.2c-3.7,0-6.6-1.2-8.8-3.5c-2.1-2.4-3.2-5.6-3.2-9.8v-0.5c0-4,1.1-7.2,3.2-9.5c2.1-2.4,5-3.6,8.7-3.6
		c3.2,0,5.8,0.9,7.8,2.8c2,1.8,2.9,4.3,3,7.4h-6.5c0-1.3-0.4-2.4-1.2-3.3c-0.8-0.8-1.9-1.3-3.2-1.3c-1.6,0-2.8,0.6-3.6,1.8
		c-0.8,1.2-1.2,3.1-1.2,5.7v0.7c0,2.7,0.4,4.6,1.2,5.8C313.3,633.4,314.5,634,316.2,634z"/>
	<path d="M342.9,639.6c-3.8,0-6.9-1.2-9.3-3.5s-3.6-5.4-3.6-9.3v-0.7c0-2.6,0.5-4.9,1.5-7s2.4-3.6,4.3-4.7c1.8-1.1,3.9-1.7,6.3-1.7
		c3.5,0,6.3,1.1,8.4,3.3c2,2.2,3.1,5.4,3.1,9.5v2.8H337c0.2,1.7,0.9,3,2,4.1c1.1,1,2.5,1.5,4.3,1.5c2.7,0,4.7-1,6.2-2.9l3.4,3.8
		c-1,1.5-2.4,2.6-4.2,3.4S345,639.6,342.9,639.6z M342.1,618.3c-1.4,0-2.5,0.5-3.3,1.4c-0.9,0.9-1.4,2.3-1.6,4h9.6v-0.6
		c0-1.5-0.4-2.7-1.2-3.6C344.7,618.7,343.5,618.3,342.1,618.3z"/>
	<path d="M371.5,631.9c0-0.8-0.4-1.5-1.3-2c-0.8-0.5-2.2-0.9-4-1.3c-6.2-1.3-9.2-3.9-9.2-7.8c0-2.3,1-4.2,2.9-5.8
		c1.9-1.5,4.4-2.3,7.5-2.3c3.3,0,5.9,0.8,7.9,2.3s3,3.6,3,6h-6.9c0-1-0.3-1.8-1-2.5c-0.6-0.6-1.6-1-3-1c-1.2,0-2.1,0.3-2.7,0.8
		s-1,1.2-1,2s0.4,1.4,1.1,1.9s1.9,0.9,3.7,1.2s3.2,0.7,4.4,1.2c3.7,1.3,5.5,3.7,5.5,7c0,2.4-1,4.3-3,5.7c-2,1.5-4.6,2.2-7.8,2.2
		c-2.2,0-4.1-0.4-5.8-1.2c-1.7-0.8-3-1.8-4-3.2c-1-1.3-1.4-2.8-1.4-4.4h6.6c0.1,1.2,0.5,2.2,1.4,2.8c0.8,0.7,2,1,3.4,1
		c1.3,0,2.3-0.3,3-0.8C371.1,633.4,371.5,632.8,371.5,631.9z"/>
	<path d="M382.6,606.5c0-1,0.3-1.9,1-2.6c0.7-0.7,1.6-1,2.8-1c1.2,0,2.1,0.3,2.8,1c0.7,0.7,1.1,1.5,1.1,2.6s-0.4,1.9-1.1,2.6
		c-0.7,0.7-1.6,1-2.8,1c-1.2,0-2.1-0.3-2.8-1C382.9,608.4,382.6,607.6,382.6,606.5z M389.9,639.1H383v-25.9h6.9V639.1z"/>
	<path d="M403.9,606.9v6.4h4.4v5.1h-4.4v12.9c0,1,0.2,1.6,0.6,2.1c0.4,0.4,1.1,0.6,2.1,0.6c0.8,0,1.4-0.1,2-0.2v5.2
		c-1.4,0.4-2.8,0.6-4.2,0.6c-4.8,0-7.3-2.4-7.4-7.3v-13.9h-3.8v-5.1h3.8v-6.4L403.9,606.9L403.9,606.9z"/>
	<path d="M427.2,639.1c-0.3-0.6-0.6-1.4-0.7-2.3c-1.7,1.9-3.9,2.8-6.5,2.8c-2.5,0-4.6-0.7-6.3-2.2c-1.7-1.5-2.5-3.3-2.5-5.6
		c0-2.7,1-4.8,3.1-6.3c2-1.5,5-2.2,8.8-2.2h3.2v-1.5c0-1.2-0.3-2.2-0.9-2.9s-1.6-1.1-2.9-1.1c-1.2,0-2.1,0.3-2.7,0.8
		c-0.7,0.6-1,1.3-1,2.3h-6.9c0-1.5,0.5-2.9,1.4-4.2s2.2-2.3,3.9-3c1.7-0.7,3.6-1.1,5.7-1.1c3.2,0,5.7,0.8,7.6,2.4
		c1.9,1.6,2.8,3.9,2.8,6.8V633c0,2.5,0.4,4.3,1,5.6v0.4L427.2,639.1L427.2,639.1z M421.5,634.3c1,0,2-0.2,2.8-0.7
		c0.9-0.5,1.5-1.1,1.9-1.8v-4.5h-2.6c-3.5,0-5.3,1.2-5.5,3.6v0.4c0,0.9,0.3,1.6,0.9,2.1C419.6,634,420.4,634.3,421.5,634.3z
		 M424.1,602.4h7.5l-6.6,7.4h-5.6L424.1,602.4z"/>
	<path d="M452.5,631.9c0-0.8-0.4-1.5-1.3-2c-0.8-0.5-2.2-0.9-4-1.3c-6.2-1.3-9.2-3.9-9.2-7.8c0-2.3,1-4.2,2.9-5.8
		c1.9-1.5,4.4-2.3,7.5-2.3c3.3,0,5.9,0.8,7.9,2.3s3,3.6,3,6h-6.9c0-1-0.3-1.8-1-2.5c-0.6-0.6-1.6-1-3-1c-1.2,0-2.1,0.3-2.7,0.8
		s-1,1.2-1,2s0.4,1.4,1.1,1.9s1.9,0.9,3.7,1.2s3.2,0.7,4.4,1.2c3.7,1.3,5.5,3.7,5.5,7c0,2.4-1,4.3-3,5.7c-2,1.5-4.6,2.2-7.8,2.2
		c-2.2,0-4.1-0.4-5.8-1.2c-1.7-0.8-3-1.8-4-3.2c-1-1.3-1.4-2.8-1.4-4.4h6.6c0.1,1.2,0.5,2.2,1.4,2.8c0.8,0.7,2,1,3.4,1
		c1.3,0,2.3-0.3,3-0.8C452.1,633.4,452.5,632.8,452.5,631.9z"/>
	<path d="M490.8,639.1c-0.3-0.6-0.6-1.4-0.7-2.3c-1.7,1.9-3.9,2.8-6.5,2.8c-2.5,0-4.6-0.7-6.3-2.2c-1.7-1.5-2.5-3.3-2.5-5.6
		c0-2.7,1-4.8,3.1-6.3c2-1.5,5-2.2,8.8-2.2h3.2v-1.5c0-1.2-0.3-2.2-0.9-2.9s-1.6-1.1-2.9-1.1c-1.2,0-2.1,0.3-2.7,0.8
		c-0.7,0.6-1,1.3-1,2.3h-6.9c0-1.5,0.5-2.9,1.4-4.2s2.2-2.3,3.9-3c1.7-0.7,3.6-1.1,5.7-1.1c3.2,0,5.7,0.8,7.6,2.4
		c1.9,1.6,2.8,3.9,2.8,6.8V633c0,2.5,0.4,4.3,1,5.6v0.4L490.8,639.1L490.8,639.1z M485.1,634.3c1,0,2-0.2,2.8-0.7
		c0.9-0.5,1.5-1.1,1.9-1.8v-4.5h-2.6c-3.5,0-5.3,1.2-5.5,3.6v0.4c0,0.9,0.3,1.6,0.9,2.1C483.2,634,484.1,634.3,485.1,634.3z"/>
	<path d="M511.4,629.3l4.8-16.1h7.4l-10.4,29.9l-0.6,1.4c-1.5,3.4-4.1,5.1-7.7,5.1c-1,0-2-0.2-3.1-0.5v-5.2h1.1
		c1.3,0,2.3-0.2,2.9-0.6c0.6-0.4,1.2-1.1,1.5-2l0.8-2.1l-9.1-26h7.4L511.4,629.3z"/>
	<path d="M541.9,636.5c-1.7,2.1-4.1,3.1-7.1,3.1c-2.8,0-4.9-0.8-6.4-2.4c-1.5-1.6-2.2-3.9-2.2-7v-17h6.9V630c0,2.7,1.2,4,3.7,4
		c2.3,0,4-0.8,4.8-2.4v-18.3h6.9v25.9H542L541.9,636.5z"/>
	<path d="M552.7,626c0-4,0.9-7.3,2.7-9.6c1.8-2.4,4.3-3.6,7.4-3.6c2.5,0,4.6,0.9,6.2,2.8v-13.2h6.9v36.8h-6.2l-0.3-2.8
		c-1.7,2.2-3.9,3.2-6.7,3.2c-3,0-5.5-1.2-7.3-3.6C553.6,633.6,552.7,630.2,552.7,626z M559.6,626.5c0,2.4,0.4,4.3,1.3,5.6
		c0.8,1.3,2.1,1.9,3.7,1.9c2.1,0,3.6-0.9,4.5-2.7v-10.2c-0.9-1.8-2.4-2.7-4.5-2.7C561.3,618.4,559.6,621.1,559.6,626.5z"/>
	<path d="M596.4,639.1c-0.3-0.6-0.6-1.4-0.7-2.3c-1.7,1.9-3.9,2.8-6.5,2.8c-2.5,0-4.6-0.7-6.3-2.2s-2.5-3.3-2.5-5.6
		c0-2.7,1-4.8,3.1-6.3c2-1.5,5-2.2,8.8-2.2h3.2v-1.5c0-1.2-0.3-2.2-0.9-2.9c-0.6-0.7-1.6-1.1-2.9-1.1c-1.2,0-2.1,0.3-2.7,0.8
		c-0.7,0.6-1,1.3-1,2.3h-6.9c0-1.5,0.5-2.9,1.4-4.2s2.2-2.3,3.9-3s3.6-1.1,5.7-1.1c3.2,0,5.7,0.8,7.6,2.4c1.9,1.6,2.8,3.9,2.8,6.8
		V633c0,2.5,0.4,4.3,1,5.6v0.4L596.4,639.1L596.4,639.1z M590.7,634.3c1,0,2-0.2,2.8-0.7c0.9-0.5,1.5-1.1,1.9-1.8v-4.5h-2.6
		c-3.5,0-5.3,1.2-5.5,3.6v0.4c0,0.9,0.3,1.6,0.9,2.1C588.8,634,589.6,634.3,590.7,634.3z"/>
	<path d="M628.1,606.9v6.4h4.4v5.1h-4.4v12.9c0,1,0.2,1.6,0.6,2.1c0.4,0.4,1.1,0.6,2.1,0.6c0.8,0,1.4-0.1,2-0.2v5.2
		c-1.4,0.4-2.8,0.6-4.2,0.6c-4.8,0-7.3-2.4-7.4-7.3v-13.9h-3.8v-5.1h3.8v-6.4L628.1,606.9L628.1,606.9z"/>
	<path d="M648.3,639.6c-3.8,0-6.9-1.2-9.3-3.5c-2.4-2.3-3.6-5.4-3.6-9.3v-0.7c0-2.6,0.5-4.9,1.5-7s2.4-3.6,4.3-4.7
		c1.8-1.1,3.9-1.7,6.3-1.7c3.5,0,6.3,1.1,8.4,3.3c2,2.2,3.1,5.4,3.1,9.5v2.8h-16.5c0.2,1.7,0.9,3,2,4.1c1.1,1,2.5,1.5,4.3,1.5
		c2.7,0,4.7-1,6.2-2.9l3.4,3.8c-1,1.5-2.4,2.6-4.2,3.4S650.5,639.6,648.3,639.6z M647.5,618.3c-1.4,0-2.5,0.5-3.3,1.4
		s-1.4,2.3-1.6,4h9.6v-0.6c0-1.5-0.4-2.7-1.2-3.6C650.1,618.7,649,618.3,647.5,618.3z M648.2,602.4h7.5l-6.6,7.4h-5.6L648.2,602.4z"
		/>
	<path d="M673.7,634c1.3,0,2.3-0.4,3.1-1.1c0.8-0.7,1.2-1.6,1.2-2.8h6.5c0,1.8-0.5,3.4-1.4,4.8c-0.9,1.5-2.2,2.6-3.9,3.4
		c-1.6,0.8-3.4,1.2-5.4,1.2c-3.7,0-6.6-1.2-8.8-3.5c-2.1-2.4-3.2-5.6-3.2-9.8v-0.5c0-4,1.1-7.2,3.2-9.5c2.1-2.4,5-3.6,8.7-3.6
		c3.2,0,5.8,0.9,7.8,2.8c2,1.8,2.9,4.3,3,7.4H678c0-1.3-0.4-2.4-1.2-3.3c-0.8-0.8-1.9-1.3-3.2-1.3c-1.6,0-2.8,0.6-3.6,1.8
		s-1.2,3.1-1.2,5.7v0.7c0,2.7,0.4,4.6,1.2,5.8C670.8,633.4,672,634,673.7,634z"/>
	<path d="M694.8,613.2l0.2,3c1.9-2.3,4.3-3.5,7.4-3.5c2.7,0,4.8,0.8,6.1,2.4c1.3,1.6,2,4,2.1,7.2V639h-6.9v-16.6
		c0-1.5-0.3-2.5-1-3.2c-0.6-0.7-1.7-1-3.2-1c-1.9,0-3.4,0.8-4.4,2.5V639h-6.9v-25.9L694.8,613.2L694.8,613.2z"/>
	<path d="M715.8,606.5c0-1,0.3-1.9,1-2.6c0.7-0.7,1.6-1,2.8-1s2.1,0.3,2.8,1s1.1,1.5,1.1,2.6s-0.4,1.9-1.1,2.6s-1.6,1-2.8,1
		s-2.1-0.3-2.8-1C716.2,608.4,715.8,607.6,715.8,606.5z M723.2,639.1h-6.9v-25.9h6.9V639.1z"/>
	<path d="M739.7,634c1.3,0,2.3-0.4,3.1-1.1c0.8-0.7,1.2-1.6,1.2-2.8h6.5c0,1.8-0.5,3.4-1.4,4.8c-0.9,1.5-2.2,2.6-3.9,3.4
		c-1.6,0.8-3.4,1.2-5.4,1.2c-3.7,0-6.6-1.2-8.8-3.5c-2.1-2.4-3.2-5.6-3.2-9.8v-0.5c0-4,1.1-7.2,3.2-9.5c2.1-2.4,5-3.6,8.7-3.6
		c3.2,0,5.8,0.9,7.8,2.8c2,1.8,2.9,4.3,3,7.4H744c0-1.3-0.4-2.4-1.2-3.3c-0.8-0.8-1.9-1.3-3.2-1.3c-1.6,0-2.8,0.6-3.6,1.8
		s-1.2,3.1-1.2,5.7v0.7c0,2.7,0.4,4.6,1.2,5.8C736.8,633.4,738,634,739.7,634z"/>
	<path d="M769.4,639.1c-0.3-0.6-0.5-1.4-0.7-2.3c-1.7,1.9-3.9,2.8-6.5,2.8c-2.5,0-4.6-0.7-6.3-2.2s-2.5-3.3-2.5-5.6
		c0-2.7,1-4.8,3.1-6.3c2-1.5,5-2.2,8.8-2.2h3.2v-1.5c0-1.2-0.3-2.2-0.9-2.9c-0.6-0.7-1.6-1.1-2.9-1.1c-1.2,0-2.1,0.3-2.7,0.8
		c-0.7,0.6-1,1.3-1,2.3h-7c0-1.5,0.5-2.9,1.4-4.2s2.2-2.3,3.9-3s3.6-1.1,5.7-1.1c3.2,0,5.7,0.8,7.6,2.4c1.9,1.6,2.8,3.9,2.8,6.8V633
		c0,2.5,0.4,4.3,1,5.6v0.4L769.4,639.1L769.4,639.1z M763.7,634.3c1,0,2-0.2,2.8-0.7c0.9-0.5,1.5-1.1,1.9-1.8v-4.5h-2.6
		c-3.5,0-5.3,1.2-5.5,3.6v0.4c0,0.9,0.3,1.6,0.9,2.1C761.8,634,762.7,634.3,763.7,634.3z"/>
	<path d="M786.4,628.4c0-2.2,0.3-4,0.8-5.3s1.5-2.6,3-3.9c1.4-1.3,2.4-2.3,2.9-3.1s0.7-1.7,0.7-2.6c0-2.7-1.2-4-3.7-4
		c-1.2,0-2.1,0.4-2.8,1.1s-1.1,1.7-1.1,3h-6.9c0-3,1-5.4,3-7.2c1.9-1.7,4.6-2.6,7.9-2.6c3.4,0,6,0.8,7.9,2.5s2.8,3.9,2.8,6.9
		c0,1.4-0.3,2.6-0.9,3.8c-0.6,1.2-1.7,2.5-3.2,4l-1.9,1.8c-1.2,1.2-1.9,2.5-2.1,4.1l-0.1,1.5H786.4z M785.7,635.8
		c0-1.1,0.4-1.9,1.1-2.6s1.7-1,2.8-1s2.1,0.3,2.8,1s1.1,1.6,1.1,2.6s-0.4,1.9-1.1,2.6s-1.6,1-2.8,1s-2.1-0.3-2.8-1
		C786,637.7,785.7,636.8,785.7,635.8z"/>
</g>
<g class="st1">
	<path d="M386.9,697.9h-4.6v-16.1h-17.6v16.1h-4.6v-34.8h4.6v15h17.6v-15h4.6V697.9z"/>
	<path d="M410.3,697.9c-0.3-0.5-0.5-1.4-0.6-2.7c-2.1,2.1-4.5,3.2-7.4,3.2c-2.6,0-4.6-0.7-6.3-2.2s-2.5-3.3-2.5-5.5
		c0-2.7,1-4.8,3.1-6.3s4.9-2.2,8.6-2.2h4.3v-2c0-1.5-0.5-2.8-1.4-3.7s-2.3-1.4-4.1-1.4c-1.6,0-2.9,0.4-4,1.2s-1.6,1.8-1.6,2.9h-4.5
		c0-1.3,0.5-2.5,1.4-3.7s2.2-2.2,3.7-2.9c1.6-0.7,3.3-1.1,5.2-1.1c3,0,5.3,0.7,7,2.2s2.6,3.5,2.6,6.2v11.9c0,2.4,0.3,4.3,0.9,5.7
		v0.4L410.3,697.9L410.3,697.9z M403,694.5c1.4,0,2.7-0.4,3.9-1.1s2.1-1.7,2.7-2.8v-5.3h-3.5c-5.4,0-8.1,1.6-8.1,4.8
		c0,1.4,0.5,2.5,1.4,3.3S401.5,694.5,403,694.5z"/>
	<path d="M431.4,694.8c1.6,0,3-0.5,4.1-1.4c1.2-1,1.8-2.2,2-3.6h4.2c-0.1,1.5-0.6,2.9-1.5,4.2s-2.2,2.4-3.8,3.2
		c-1.6,0.8-3.2,1.2-5,1.2c-3.5,0-6.3-1.2-8.4-3.5c-2.1-2.4-3.1-5.6-3.1-9.7v-0.7c0-2.5,0.5-4.8,1.4-6.7c0.9-2,2.3-3.5,4-4.6
		s3.8-1.6,6.1-1.6c2.9,0,5.3,0.9,7.2,2.6c1.9,1.7,2.9,4,3.1,6.8h-4.2c-0.1-1.7-0.8-3.1-1.9-4.1c-1.1-1.1-2.5-1.6-4.2-1.6
		c-2.2,0-4,0.8-5.2,2.4c-1.2,1.6-1.9,4-1.9,7v0.8c0,3,0.6,5.3,1.8,6.9S429.1,694.8,431.4,694.8z"/>
	<path d="M457.4,698.4c-3.5,0-6.4-1.2-8.6-3.5s-3.3-5.4-3.3-9.2v-0.8c0-2.6,0.5-4.9,1.5-6.9s2.4-3.6,4.1-4.7
		c1.8-1.1,3.7-1.7,5.7-1.7c3.4,0,6,1.1,7.8,3.3c1.9,2.2,2.8,5.4,2.8,9.5v1.8h-17.5c0.1,2.6,0.8,4.6,2.2,6.2c1.4,1.6,3.2,2.4,5.4,2.4
		c1.6,0,2.9-0.3,4-1c1.1-0.6,2-1.5,2.8-2.5l2.7,2.1C465,696.7,461.7,698.4,457.4,698.4z M456.8,675.2c-1.8,0-3.3,0.7-4.5,2
		s-2,3.1-2.2,5.5h13v-0.3c-0.1-2.2-0.7-4-1.8-5.2S458.7,675.2,456.8,675.2z M459,661.2h5.4l-6.4,7h-3.6L459,661.2z"/>
	<path d="M495.1,694.8c1.6,0,3-0.5,4.1-1.4c1.2-1,1.8-2.2,2-3.6h4.2c-0.1,1.5-0.6,2.9-1.5,4.2s-2.2,2.4-3.8,3.2
		c-1.6,0.8-3.2,1.2-5,1.2c-3.5,0-6.3-1.2-8.4-3.5c-2.1-2.4-3.1-5.6-3.1-9.7v-0.7c0-2.5,0.5-4.8,1.4-6.7c0.9-2,2.3-3.5,4-4.6
		s3.8-1.6,6.1-1.6c2.9,0,5.3,0.9,7.2,2.6c1.9,1.7,2.9,4,3.1,6.8h-4.2c-0.1-1.7-0.8-3.1-1.9-4.1c-1.1-1.1-2.5-1.6-4.2-1.6
		c-2.2,0-4,0.8-5.2,2.4c-1.2,1.6-1.9,4-1.9,7v0.8c0,3,0.6,5.3,1.8,6.9S492.8,694.8,495.1,694.8z"/>
	<path d="M515.2,697.9h-4.4v-36.8h4.4V697.9z"/>
	<path d="M522.3,665.2c0-0.7,0.2-1.3,0.7-1.8c0.4-0.5,1.1-0.7,2-0.7s1.5,0.2,2,0.7c0.4,0.5,0.7,1.1,0.7,1.8s-0.2,1.3-0.7,1.8
		c-0.4,0.5-1.1,0.7-2,0.7s-1.5-0.2-2-0.7S522.3,665.9,522.3,665.2z M527.1,697.9h-4.4V672h4.4V697.9z"/>
	<path d="M544.5,694.8c1.6,0,3-0.5,4.1-1.4c1.2-1,1.8-2.2,2-3.6h4.2c-0.1,1.5-0.6,2.9-1.5,4.2s-2.2,2.4-3.8,3.2s-3.2,1.2-5,1.2
		c-3.5,0-6.3-1.2-8.4-3.5c-2.1-2.4-3.1-5.6-3.1-9.7v-0.7c0-2.5,0.5-4.8,1.4-6.7c0.9-2,2.3-3.5,4-4.6s3.8-1.6,6.1-1.6
		c2.9,0,5.3,0.9,7.2,2.6c1.9,1.7,2.9,4,3.1,6.8h-4.2c-0.1-1.7-0.8-3.1-1.9-4.1c-1.1-1.1-2.5-1.6-4.2-1.6c-2.2,0-4,0.8-5.2,2.4
		c-1.2,1.6-1.9,4-1.9,7v0.8c0,3,0.6,5.3,1.8,6.9S542.3,694.8,544.5,694.8z"/>
	<path d="M587.9,697.9c-0.3-0.5-0.5-1.4-0.6-2.7c-2.1,2.1-4.5,3.2-7.4,3.2c-2.6,0-4.6-0.7-6.3-2.2c-1.6-1.4-2.5-3.3-2.5-5.5
		c0-2.7,1-4.8,3.1-6.3c2-1.5,4.9-2.2,8.6-2.2h4.3v-2c0-1.5-0.5-2.8-1.4-3.7s-2.3-1.4-4.1-1.4c-1.6,0-2.9,0.4-4,1.2s-1.6,1.8-1.6,2.9
		h-4.5c0-1.3,0.5-2.5,1.4-3.7s2.2-2.2,3.7-2.9s3.3-1.1,5.2-1.1c3,0,5.3,0.7,7,2.2s2.6,3.5,2.6,6.2v11.9c0,2.4,0.3,4.3,0.9,5.7v0.4
		L587.9,697.9L587.9,697.9z M580.6,694.5c1.4,0,2.7-0.4,3.9-1.1s2.1-1.7,2.7-2.8v-5.3h-3.5c-5.4,0-8.1,1.6-8.1,4.8
		c0,1.4,0.5,2.5,1.4,3.3C577.9,694.1,579.1,694.5,580.6,694.5z"/>
	<path d="M597.5,684.7c0-4.1,0.9-7.3,2.8-9.7c1.9-2.4,4.4-3.6,7.5-3.6s5.5,1,7.2,3.1l0.2-2.6h4.1v35.8h-4.4v-12.3
		c-1.8,1.9-4.2,2.9-7.1,2.9c-3.1,0-5.6-1.2-7.5-3.6c-1.9-2.4-2.8-5.7-2.8-9.7V684.7z M601.9,685.2c0,3,0.6,5.3,1.9,7
		c1.3,1.7,2.9,2.5,5.1,2.5c2.6,0,4.6-1.2,6-3.5v-12.7c-1.4-2.3-3.4-3.4-6-3.4c-2.1,0-3.8,0.8-5.1,2.5
		C602.6,679.4,601.9,681.9,601.9,685.2z"/>
	<path d="M642.4,695.3c-1.7,2-4.3,3-7.6,3c-2.8,0-4.9-0.8-6.3-2.4c-1.4-1.6-2.2-4-2.2-7.1V672h4.4v16.7c0,3.9,1.6,5.9,4.8,5.9
		c3.4,0,5.6-1.3,6.7-3.8V672h4.4v25.9h-4.2L642.4,695.3z"/>
	<path d="M658.3,661.2h5.4l-6.4,7h-3.6L658.3,661.2z M658.3,697.9h-4.5V672h4.5V697.9z"/>
</g>
<path d="M148.8,654.9h-6c-1.1-5.9-3.5-11.6-7.1-16.5l4.1-4.2c0.4-0.4,0.6-0.9,0.6-1.5s-0.2-1.1-0.6-1.5l-7.2-7.2
	c-0.8-0.8-2.2-0.8-3,0l-4.3,4.3c-4.9-3.3-10.4-5.6-16.2-6.6v-6.1c0-1.2-1-2.2-2.2-2.2H96.7c-1.2,0-2.2,1-2.2,2.2v6.1
	c-5.8,1-11.4,3.3-16.3,6.7l-4.2-4.2c-0.8-0.9-2.2-0.9-3,0l-7.2,7.2c-0.4,0.4-0.6,1-0.6,1.5c0,0.6,0.2,1.1,0.6,1.5l4.1,4.1
	c-3.5,4.9-5.9,10.5-7,16.4h-5.4c-1.2,0-2.2,1-2.2,2.2v10.2c0,1.2,1,2.2,2.2,2.2h5.3c1,5.9,3.3,11.6,6.7,16.6l-3.8,3.8
	c-0.8,0.8-0.8,2.2,0,3.1l7.2,7.2c0.4,0.4,1,0.6,1.5,0.6c0.6,0,1.1-0.2,1.5-0.6l3.7-3.7c5,3.6,10.8,6.1,16.9,7.1v5.2
	c0,1.2,1,2.2,2.2,2.2H107c1.2,0,2.2-1,2.2-2.2v-5.2c6-1.1,11.8-3.5,16.8-7.1l3.8,3.8c0.8,0.8,2.2,0.8,3,0l7.2-7.2
	c0.8-0.8,0.8-2.2,0-3.1l-3.9-3.9c3.5-5,5.8-10.8,6.8-16.8h5.8c1.2,0,2.2-1,2.2-2.2v-10.2C150.9,655.9,150,654.9,148.8,654.9z
	 M102.1,684.9c-12.6,0-22.7-10.2-22.7-22.7c0-12.6,10.2-22.7,22.7-22.7c12.6,0,22.7,10.2,22.7,22.7
	C124.9,674.8,114.7,684.9,102.1,684.9z M110.8,662.2c0,4.8-3.9,8.6-8.6,8.6c-4.8,0-8.6-3.9-8.6-8.6c0-4.8,3.9-8.6,8.6-8.6
	C106.9,653.6,110.8,657.4,110.8,662.2z M181.7,613.9l-2.9-1.2c0.8-3.4,0.8-6.9,0.1-10.3l3.1-1.2c0.6-0.3,0.9-1,0.7-1.6l-2.2-5.4
	c-0.3-0.6-1-0.9-1.6-0.7l-3.2,1.3c-1.9-2.9-4.3-5.4-7.2-7.3l1.3-3.1c0.1-0.3,0.1-0.6,0-0.9c-0.1-0.3-0.4-0.6-0.7-0.7l-5.4-2.3
	c-0.6-0.3-1.4,0-1.6,0.6l-1.4,3.2c-3.3-0.7-6.7-0.8-10-0.1l-1.3-3.2c-0.3-0.6-1-0.9-1.6-0.7l-5.4,2.2c-0.6,0.3-0.9,1-0.7,1.6
	l1.3,3.2c-2.9,1.8-5.3,4.2-7.2,7l-3.1-1.3c-0.6-0.3-1.3,0-1.6,0.6l-2.3,5.4c-0.1,0.3-0.1,0.6,0,0.9c0.1,0.3,0.4,0.5,0.7,0.7l3,1.3
	c-0.8,3.3-0.9,6.8-0.2,10.2l-2.9,1.2c-0.6,0.3-0.9,1-0.7,1.6l2.2,5.4c0.3,0.6,1,0.9,1.6,0.7l2.8-1.1c1.8,2.9,4.2,5.5,7.1,7.4
	l-1.2,2.8c-0.3,0.6,0,1.3,0.6,1.6l5.4,2.3c0.3,0.1,0.6,0.1,0.9,0c0.3-0.1,0.5-0.4,0.7-0.7l1.2-2.7c3.4,0.8,7,0.9,10.5,0.2l1.1,2.7
	c0.3,0.6,1,0.9,1.6,0.7l5.4-2.2c0.6-0.2,0.9-1,0.7-1.6l-1.1-2.7c3-1.8,5.5-4.4,7.5-7.3l2.8,1.2c0.6,0.3,1.4,0,1.6-0.6l2.3-5.4
	C182.6,614.9,182.4,614.2,181.7,613.9z M160.5,619.1c-6.7,2.6-14.2-0.6-16.9-7.3c-2.6-6.7,0.6-14.2,7.3-16.9s14.2,0.6,16.9,7.3
	C170.4,608.9,167.2,616.5,160.5,619.1z M160.3,605.2c1,2.5-0.2,5.4-2.8,6.4c-2.5,1-5.4-0.2-6.4-2.8c-1-2.5,0.2-5.4,2.8-6.4
	C156.4,601.5,159.3,602.7,160.3,605.2z"/>
<g>
	<path d="M60.4,975.7c-0.4,0-0.7,0-1.1,0c-6.2,0-12.4,0-18.6,0c-1.9,0-2.9-0.8-2.9-2.9c0-29.1,0-58.1,0-87.3c0-1.9,0.8-2.9,2.9-2.9
		c14,0,28,0,42.1,0c1,0,1.8,0.3,2.5,1.1c2.7,2.9,5.6,5.6,8.4,8.5c0.4,0.4,0.8,0.5,1.4,0.5c11.1,0,22.3,0,33.3,0c2.1,0,3,0.8,3,3
		c0,29,0,58,0,87c0,1.9-0.8,2.9-2.9,2.9c-21.7,0-43.6,0-65.3,0c-1.9,0-2.7-0.8-2.7-2.7C60.4,980.6,60.4,978.3,60.4,975.7z
		 M104.1,971c0-20.3,0-40.7,0-61.2c-0.4,0-0.7,0-1,0c-5.9,0-11.8,0-17.7,0c-2.2,0-3-0.8-3-3c0-6,0-12.1,0-18.1c0-0.3,0-0.7,0-1
		c-13.3,0-26.4,0-39.6,0c0,27.8,0,55.5,0,83.3C63.1,971,83.6,971,104.1,971z M99,897.8c0.3,0.3,0.4,0.5,0.7,0.7
		c2.7,2.7,5.4,5.5,8.1,8.2c0.8,0.8,1.1,1.6,1.1,2.6c0,21.2,0,42.3,0,63.5c0,2.2-0.8,2.9-3,2.9c-13.3,0-26.5,0-39.9,0
		c-0.3,0-0.5,0-1,0c0,1.8,0,3.6,0,5.4c20.5,0,41,0,61.4,0c0-27.8,0-55.5,0-83.3C117.4,897.8,108.2,897.8,99,897.8z M87,892.4
		c0,4.3,0,8.4,0,12.5c4.1,0,8.1,0,12.4,0C95.3,900.8,91.2,896.7,87,892.4z"/>
	<path d="M73.4,945.6c-8.2,0-16.4,0-24.6,0c-1.5,0-1.9-0.4-1.9-2.1c0-0.5,0-1.2,0-1.8c0-1.1,0.5-1.5,1.5-1.6c0.1,0,0.4,0,0.5,0
		c16.2,0,32.6,0,48.8,0c1.8,0,2.1,0.3,2.1,2.2c0,0.5,0,1.2,0,1.8c0,0.8-0.5,1.4-1.5,1.5c-0.3,0-0.4,0-0.7,0
		C89.5,945.6,81.5,945.6,73.4,945.6z"/>
	<path d="M73.3,959.1c-8.1,0-16.4,0-24.5,0c-1.5,0-1.9-0.4-1.9-1.9c0-0.7,0-1.4,0-1.9c0-0.8,0.5-1.4,1.5-1.4c0.1,0,0.4,0,0.5,0
		c16.4,0,32.6,0,48.9,0c1.6,0,2.1,0.4,2.1,1.9c0,0.5,0,1.2,0,1.8c0,1.1-0.5,1.6-1.6,1.6c-3.6,0-7,0-10.6,0
		C82.9,959.1,78.1,959.1,73.3,959.1z"/>
	<path d="M73.4,926.8c8.1,0,16.4,0,24.5,0c1.5,0,1.9,0.4,1.9,1.9c0,0.7,0,1.4,0,2.1c0,0.8-0.5,1.4-1.4,1.4c-0.3,0-0.4,0-0.7,0
		c-16.4,0-32.6,0-48.9,0c-1.6,0-2.1-0.4-2.1-2.1c0-0.5,0-1.1,0-1.6c0-1.2,0.5-1.8,1.8-1.8c3.7,0,7.6,0,11.3,0
		C64.4,926.8,68.9,926.8,73.4,926.8z"/>
	<path d="M73.4,913.2c8.1,0,16.2,0,24.3,0c1.9,0,2.2,0.3,2.2,2.2c0,0.5,0,1.2,0,1.8c0,0.8-0.5,1.4-1.4,1.5c-0.3,0-0.4,0-0.7,0
		c-16.2,0-32.6,0-48.8,0c-1.6,0-2.1-0.4-2.1-2.1c0-0.5,0-1,0-1.5c0-1.4,0.4-1.8,1.8-1.8c2.5,0,4.9,0,7.4,0
		C61.9,913.2,67.7,913.2,73.4,913.2z"/>
	<path d="M69.4,905.3c-2.9,0-5.9,0-8.8,0c-1.2,0-1.8-0.4-1.8-1.8c0-0.7,0-1.4,0-2.2c0-1,0.5-1.5,1.5-1.5c6,0,12.1,0,18.3,0
		c1,0,1.5,0.5,1.5,1.5c0,0.7,0,1.5,0,2.2c0,1.2-0.5,1.6-1.6,1.6C75.4,905.3,72.3,905.3,69.4,905.3z"/>
</g>
<g>
	<g class="st1">
		<path d="M157,912.8c0,2.1-0.2,3.8-0.7,5.1s-1.4,2.6-2.6,3.7c-1.3,1.2-2.1,2.1-2.6,2.6c-0.5,0.6-0.8,1.2-1,1.7
			c-0.2,0.6-0.3,1.2-0.3,1.9c0,2.5,1.2,3.8,3.7,3.8c1.2,0,2.2-0.4,2.9-1.1c0.7-0.7,1.1-1.7,1.1-3h6.9c0,3.1-1,5.5-2.9,7.2
			s-4.6,2.6-7.9,2.6c-3.4,0-6-0.8-7.9-2.4c-1.9-1.6-2.8-3.9-2.8-6.9c0-2.5,1.2-5,3.7-7.5l2.3-2.2c0.8-0.7,1.4-1.5,1.7-2.3
			s0.5-1.9,0.5-3.3h5.9V912.8z M157.9,905.5c0,1.1-0.4,1.9-1.1,2.6c-0.7,0.7-1.7,1-2.8,1s-2-0.3-2.8-1c-0.7-0.7-1.1-1.6-1.1-2.6
			c0-1.1,0.4-1.9,1.1-2.6s1.6-1,2.8-1s2.1,0.3,2.8,1C157.5,903.5,157.9,904.4,157.9,905.5z"/>
		<path d="M196.9,928.2h-7.2l-14-22.9v22.9h-7.2v-34.8h7.2l14,23v-23h7.2V928.2z"/>
		<path d="M214.6,928.7c-3.8,0-6.9-1.2-9.3-3.5s-3.6-5.4-3.6-9.3v-0.7c0-2.6,0.5-4.9,1.5-7s2.4-3.6,4.3-4.7c1.8-1.1,3.9-1.7,6.3-1.7
			c3.5,0,6.3,1.1,8.4,3.3c2,2.2,3.1,5.4,3.1,9.5v2.8h-16.5c0.2,1.7,0.9,3,2,4.1c1.1,1,2.5,1.5,4.3,1.5c2.7,0,4.7-1,6.2-2.9l3.4,3.8
			c-1,1.5-2.4,2.6-4.2,3.4S216.8,928.7,214.6,928.7z M213.9,907.4c-1.4,0-2.5,0.5-3.3,1.4c-0.9,0.9-1.4,2.3-1.6,4h9.6v-0.6
			c0-1.5-0.4-2.7-1.2-3.6C216.5,907.8,215.3,907.4,213.9,907.4z"/>
		<path d="M240,923.1c1.3,0,2.3-0.4,3.1-1.1c0.8-0.7,1.2-1.6,1.2-2.8h6.5c0,1.8-0.5,3.4-1.4,4.8c-0.9,1.5-2.2,2.6-3.9,3.4
			c-1.6,0.8-3.4,1.2-5.4,1.2c-3.7,0-6.6-1.2-8.8-3.5c-2.1-2.4-3.2-5.6-3.2-9.8v-0.5c0-4,1.1-7.2,3.2-9.5c2.1-2.4,5-3.6,8.7-3.6
			c3.2,0,5.8,0.9,7.8,2.8c2,1.8,2.9,4.3,3,7.4h-6.5c0-1.3-0.4-2.4-1.2-3.3s-1.9-1.3-3.2-1.3c-1.6,0-2.8,0.6-3.6,1.8
			s-1.2,3.1-1.2,5.7v0.7c0,2.7,0.4,4.6,1.2,5.8C237.1,922.5,238.3,923.1,240,923.1z"/>
		<path d="M266.7,928.7c-3.8,0-6.9-1.2-9.3-3.5s-3.6-5.4-3.6-9.3v-0.7c0-2.6,0.5-4.9,1.5-7s2.4-3.6,4.3-4.7c1.8-1.1,3.9-1.7,6.3-1.7
			c3.5,0,6.3,1.1,8.4,3.3c2,2.2,3.1,5.4,3.1,9.5v2.8h-16.5c0.2,1.7,0.9,3,2,4.1c1.1,1,2.5,1.5,4.3,1.5c2.7,0,4.7-1,6.2-2.9l3.4,3.8
			c-1,1.5-2.4,2.6-4.2,3.4S268.8,928.7,266.7,928.7z M265.9,907.4c-1.4,0-2.5,0.5-3.3,1.4s-1.4,2.3-1.6,4h9.6v-0.6
			c0-1.5-0.4-2.7-1.2-3.6C268.5,907.8,267.4,907.4,265.9,907.4z"/>
		<path d="M295.3,921c0-0.8-0.4-1.5-1.3-2c-0.8-0.5-2.2-0.9-4-1.3c-6.2-1.3-9.2-3.9-9.2-7.8c0-2.3,1-4.2,2.9-5.8
			c1.9-1.5,4.4-2.3,7.5-2.3c3.3,0,5.9,0.8,7.9,2.3s3,3.6,3,6H295c0-1-0.3-1.8-1-2.5c-0.6-0.6-1.6-1-3-1c-1.2,0-2.1,0.3-2.7,0.8
			s-1,1.2-1,2s0.4,1.4,1.1,1.9s2,0.9,3.7,1.2s3.2,0.7,4.4,1.2c3.7,1.3,5.5,3.7,5.5,7c0,2.4-1,4.3-3,5.7c-2,1.5-4.6,2.2-7.8,2.2
			c-2.2,0-4.1-0.4-5.8-1.2s-3-1.8-4-3.2c-1-1.3-1.4-2.8-1.4-4.4h6.6c0.1,1.2,0.5,2.2,1.4,2.8c0.8,0.7,2,1,3.4,1c1.3,0,2.3-0.3,3-0.8
			C294.9,922.5,295.3,921.8,295.3,921z"/>
		<path d="M306.4,895.6c0-1,0.3-1.9,1-2.6c0.7-0.7,1.6-1,2.8-1c1.2,0,2.1,0.3,2.8,1s1.1,1.5,1.1,2.6s-0.4,1.9-1.1,2.6s-1.6,1-2.8,1
			s-2.1-0.3-2.8-1C306.8,897.5,306.4,896.6,306.4,895.6z M313.7,928.2h-6.9v-25.9h6.9V928.2z"/>
		<path d="M327.7,895.9v6.4h4.4v5.1h-4.4v12.9c0,1,0.2,1.6,0.5,2.1s1.1,0.6,2.1,0.6c0.8,0,1.4-0.1,2-0.2v5.2
			c-1.4,0.4-2.8,0.6-4.2,0.6c-4.8,0-7.3-2.4-7.4-7.3v-13.9H317v-5.1h3.8v-6.4L327.7,895.9L327.7,895.9z"/>
		<path d="M351,928.2c-0.3-0.6-0.5-1.4-0.7-2.3c-1.7,1.9-3.9,2.8-6.5,2.8c-2.5,0-4.6-0.7-6.3-2.2c-1.7-1.5-2.5-3.3-2.5-5.6
			c0-2.7,1-4.8,3.1-6.3c2-1.5,5-2.2,8.8-2.2h3.2v-1.5c0-1.2-0.3-2.2-0.9-2.9s-1.6-1.1-2.9-1.1c-1.2,0-2.1,0.3-2.7,0.8
			c-0.7,0.6-1,1.3-1,2.3h-6.9c0-1.5,0.5-2.9,1.4-4.2s2.2-2.3,3.9-3s3.6-1.1,5.7-1.1c3.2,0,5.7,0.8,7.6,2.4c1.9,1.6,2.8,3.9,2.8,6.8
			v11.2c0,2.5,0.4,4.3,1,5.6v0.4L351,928.2L351,928.2z M345.3,923.4c1,0,2-0.2,2.8-0.7c0.9-0.5,1.5-1.1,1.9-1.8v-4.5h-2.6
			c-3.5,0-5.3,1.2-5.5,3.6v0.4c0,0.9,0.3,1.6,0.9,2.1C343.4,923.1,344.2,923.4,345.3,923.4z"/>
		<path d="M376.3,921c0-0.8-0.4-1.5-1.3-2c-0.8-0.5-2.2-0.9-4-1.3c-6.2-1.3-9.2-3.9-9.2-7.8c0-2.3,1-4.2,2.9-5.8
			c1.9-1.5,4.4-2.3,7.5-2.3c3.3,0,5.9,0.8,7.9,2.3s3,3.6,3,6H376c0-1-0.3-1.8-1-2.5c-0.6-0.6-1.6-1-3-1c-1.2,0-2.1,0.3-2.7,0.8
			s-1,1.2-1,2s0.4,1.4,1.1,1.9s2,0.9,3.7,1.2s3.2,0.7,4.4,1.2c3.7,1.3,5.5,3.7,5.5,7c0,2.4-1,4.3-3,5.7c-2,1.5-4.6,2.2-7.8,2.2
			c-2.2,0-4.1-0.4-5.8-1.2s-3-1.8-4-3.2c-1-1.3-1.4-2.8-1.4-4.4h6.6c0.1,1.2,0.5,2.2,1.4,2.8c0.8,0.7,2,1,3.4,1c1.3,0,2.3-0.3,3-0.8
			C375.9,922.5,376.3,921.8,376.3,921z"/>
		<path d="M414.7,928.2c-0.3-0.6-0.6-1.4-0.7-2.3c-1.7,1.9-3.9,2.8-6.5,2.8c-2.5,0-4.6-0.7-6.3-2.2s-2.5-3.3-2.5-5.6
			c0-2.7,1-4.8,3.1-6.3c2-1.5,5-2.2,8.8-2.2h3.2v-1.5c0-1.2-0.3-2.2-0.9-2.9s-1.6-1.1-2.9-1.1c-1.2,0-2.1,0.3-2.7,0.8
			c-0.7,0.6-1,1.3-1,2.3h-6.9c0-1.5,0.5-2.9,1.4-4.2s2.2-2.3,3.9-3c1.7-0.7,3.6-1.1,5.7-1.1c3.2,0,5.7,0.8,7.6,2.4
			c1.9,1.6,2.8,3.9,2.8,6.8v11.2c0,2.5,0.4,4.3,1,5.6v0.4L414.7,928.2L414.7,928.2z M408.9,923.4c1,0,2-0.2,2.8-0.7
			c0.9-0.5,1.5-1.1,1.9-1.8v-4.5H411c-3.5,0-5.3,1.2-5.5,3.6v0.4c0,0.9,0.3,1.6,0.9,2.1S407.9,923.4,408.9,923.4z"/>
		<path d="M435.2,918.4l4.8-16.1h7.4L437,932.2l-0.6,1.4c-1.5,3.4-4.1,5.1-7.7,5.1c-1,0-2-0.2-3.1-0.5V933h1.1
			c1.3,0,2.3-0.2,2.9-0.6c0.6-0.4,1.2-1.1,1.5-2l0.8-2.1l-9.1-26h7.4L435.2,918.4z"/>
		<path d="M465.7,925.5c-1.7,2.1-4.1,3.1-7.1,3.1c-2.8,0-4.9-0.8-6.4-2.4c-1.5-1.6-2.2-3.9-2.2-7v-17h6.9V919c0,2.7,1.2,4,3.7,4
			c2.3,0,4-0.8,4.8-2.4v-18.3h6.9v25.9h-6.5L465.7,925.5z"/>
		<path d="M476.5,915c0-4,0.9-7.3,2.7-9.6s4.3-3.6,7.4-3.6c2.5,0,4.6,0.9,6.2,2.8v-13.2h6.9v36.8h-6.2l-0.3-2.8
			c-1.7,2.2-3.9,3.2-6.7,3.2c-3,0-5.5-1.2-7.3-3.6C477.4,922.7,476.5,919.3,476.5,915z M483.4,915.6c0,2.4,0.4,4.3,1.3,5.6
			s2.1,1.9,3.7,1.9c2.1,0,3.6-0.9,4.5-2.7v-10.2c-0.9-1.8-2.4-2.7-4.5-2.7C485.1,907.4,483.4,910.1,483.4,915.6z"/>
		<path d="M520.2,928.2c-0.3-0.6-0.5-1.4-0.7-2.3c-1.7,1.9-3.9,2.8-6.5,2.8c-2.5,0-4.6-0.7-6.3-2.2c-1.7-1.5-2.5-3.3-2.5-5.6
			c0-2.7,1-4.8,3.1-6.3c2-1.5,5-2.2,8.8-2.2h3.2v-1.5c0-1.2-0.3-2.2-0.9-2.9c-0.6-0.7-1.6-1.1-2.9-1.1c-1.2,0-2.1,0.3-2.7,0.8
			c-0.7,0.6-1,1.3-1,2.3h-6.9c0-1.5,0.5-2.9,1.4-4.2s2.2-2.3,3.9-3s3.6-1.1,5.7-1.1c3.2,0,5.7,0.8,7.6,2.4c1.9,1.6,2.8,3.9,2.8,6.8
			v11.2c0,2.5,0.4,4.3,1,5.6v0.4L520.2,928.2L520.2,928.2z M514.5,923.4c1,0,2-0.2,2.8-0.7c0.9-0.5,1.5-1.1,1.9-1.8v-4.5h-2.6
			c-3.5,0-5.3,1.2-5.5,3.6v0.4c0,0.9,0.3,1.6,0.9,2.1C512.6,923.1,513.4,923.4,514.5,923.4z"/>
		<path d="M558.7,928.2c-0.3-0.6-0.5-1.4-0.7-2.3c-1.7,1.9-3.9,2.8-6.5,2.8c-2.5,0-4.6-0.7-6.3-2.2s-2.5-3.3-2.5-5.6
			c0-2.7,1-4.8,3.1-6.3c2-1.5,5-2.2,8.8-2.2h3.2v-1.5c0-1.2-0.3-2.2-0.9-2.9c-0.6-0.7-1.6-1.1-2.9-1.1c-1.2,0-2.1,0.3-2.7,0.8
			c-0.7,0.6-1,1.3-1,2.3h-6.9c0-1.5,0.5-2.9,1.4-4.2s2.2-2.3,3.9-3s3.6-1.1,5.7-1.1c3.2,0,5.7,0.8,7.6,2.4c1.9,1.6,2.8,3.9,2.8,6.8
			v11.2c0,2.5,0.4,4.3,1,5.6v0.4L558.7,928.2L558.7,928.2z M553,923.4c1,0,2-0.2,2.8-0.7c0.9-0.5,1.5-1.1,1.9-1.8v-4.5h-2.6
			c-3.5,0-5.3,1.2-5.5,3.6v0.4c0,0.9,0.3,1.6,0.9,2.1C551.1,923.1,551.9,923.4,553,923.4z"/>
		<path d="M568.9,915c0-4,0.9-7.3,2.7-9.6s4.3-3.6,7.4-3.6c2.5,0,4.6,0.9,6.2,2.8v-13.2h6.9v36.8h-6.2l-0.3-2.8
			c-1.7,2.2-3.9,3.2-6.7,3.2c-3,0-5.5-1.2-7.3-3.6C569.8,922.7,568.9,919.3,568.9,915z M575.8,915.6c0,2.4,0.4,4.3,1.3,5.6
			s2.1,1.9,3.7,1.9c2.1,0,3.6-0.9,4.5-2.7v-10.2c-0.9-1.8-2.4-2.7-4.5-2.7C577.4,907.4,575.8,910.1,575.8,915.6z"/>
		<path d="M604,902.3l0.2,2.9c1.8-2.3,4.3-3.4,7.4-3.4c3.3,0,5.6,1.3,6.9,3.9c1.8-2.6,4.4-3.9,7.8-3.9c2.8,0,4.9,0.8,6.3,2.5
			c1.4,1.6,2.1,4.1,2.1,7.4v16.5h-6.9v-16.5c0-1.5-0.3-2.5-0.9-3.2s-1.6-1-3-1c-2.1,0-3.5,1-4.3,3v17.8h-6.9v-16.5
			c0-1.5-0.3-2.6-0.9-3.3s-1.6-1-3-1c-2,0-3.4,0.8-4.3,2.4v18.3h-6.9v-25.9H604z"/>
		<path d="M639.9,895.6c0-1,0.3-1.9,1-2.6c0.7-0.7,1.6-1,2.8-1s2.1,0.3,2.8,1s1.1,1.5,1.1,2.6s-0.4,1.9-1.1,2.6s-1.6,1-2.8,1
			s-2.1-0.3-2.8-1C640.3,897.5,639.9,896.6,639.9,895.6z M647.3,928.2h-6.9v-25.9h6.9V928.2z"/>
		<path d="M659.3,902.3l0.2,3c1.9-2.3,4.3-3.5,7.4-3.5c2.7,0,4.8,0.8,6.1,2.4c1.3,1.6,2,4,2.1,7.2v16.7h-6.9v-16.6
			c0-1.5-0.3-2.5-1-3.2c-0.6-0.7-1.7-1-3.2-1c-1.9,0-3.4,0.8-4.4,2.5v18.3h-6.9v-25.9L659.3,902.3L659.3,902.3z"/>
		<path d="M680.4,895.6c0-1,0.3-1.9,1-2.6c0.7-0.7,1.6-1,2.8-1s2.1,0.3,2.8,1s1.1,1.5,1.1,2.6s-0.4,1.9-1.1,2.6s-1.6,1-2.8,1
			s-2.1-0.3-2.8-1C680.7,897.5,680.4,896.6,680.4,895.6z M687.7,928.2h-6.9v-25.9h6.9V928.2z"/>
		<path d="M707.4,921c0-0.8-0.4-1.5-1.3-2c-0.8-0.5-2.2-0.9-4-1.3c-6.2-1.3-9.2-3.9-9.2-7.8c0-2.3,1-4.2,2.9-5.8
			c1.9-1.5,4.4-2.3,7.5-2.3c3.3,0,5.9,0.8,7.9,2.3s3,3.6,3,6h-6.9c0-1-0.3-1.8-1-2.5c-0.6-0.6-1.6-1-3-1c-1.2,0-2.1,0.3-2.7,0.8
			c-0.6,0.5-1,1.2-1,2s0.4,1.4,1.1,1.9c0.7,0.5,2,0.9,3.7,1.2s3.2,0.7,4.4,1.2c3.7,1.3,5.5,3.7,5.5,7c0,2.4-1,4.3-3,5.7
			c-2,1.5-4.6,2.2-7.8,2.2c-2.2,0-4.1-0.4-5.8-1.2s-3-1.8-4-3.2c-1-1.3-1.4-2.8-1.4-4.4h6.6c0.1,1.2,0.5,2.2,1.4,2.8
			c0.8,0.7,2,1,3.4,1c1.3,0,2.3-0.3,3-0.8C707.1,922.5,707.4,921.8,707.4,921z"/>
		<path d="M726.9,895.9v6.4h4.4v5.1h-4.4v12.9c0,1,0.2,1.6,0.6,2.1c0.4,0.4,1.1,0.6,2.1,0.6c0.8,0,1.4-0.1,2-0.2v5.2
			c-1.4,0.4-2.8,0.6-4.2,0.6c-4.8,0-7.3-2.4-7.4-7.3v-13.9h-3.8v-5.1h3.8v-6.4L726.9,895.9L726.9,895.9z"/>
		<path d="M749.7,908.8c-0.9-0.1-1.8-0.2-2.5-0.2c-2.6,0-4.3,0.9-5.1,2.7v16.9h-6.9v-25.9h6.5l0.2,3.1c1.4-2.4,3.3-3.6,5.8-3.6
			c0.8,0,1.5,0.1,2.2,0.3L749.7,908.8z"/>
		<path d="M767.3,928.2c-0.3-0.6-0.5-1.4-0.7-2.3c-1.7,1.9-3.9,2.8-6.5,2.8c-2.5,0-4.6-0.7-6.3-2.2s-2.5-3.3-2.5-5.6
			c0-2.7,1-4.8,3.1-6.3c2-1.5,5-2.2,8.8-2.2h3.2v-1.5c0-1.2-0.3-2.2-0.9-2.9c-0.6-0.7-1.6-1.1-2.9-1.1c-1.2,0-2.1,0.3-2.7,0.8
			c-0.7,0.6-1,1.3-1,2.3H752c0-1.5,0.5-2.9,1.4-4.2s2.2-2.3,3.9-3s3.6-1.1,5.7-1.1c3.2,0,5.7,0.8,7.6,2.4c1.9,1.6,2.8,3.9,2.8,6.8
			v11.2c0,2.5,0.4,4.3,1,5.6v0.4L767.3,928.2L767.3,928.2z M761.6,923.4c1,0,2-0.2,2.8-0.7c0.9-0.5,1.5-1.1,1.9-1.8v-4.5h-2.6
			c-3.5,0-5.3,1.2-5.5,3.6v0.4c0,0.9,0.3,1.6,0.9,2.1C759.7,923.1,760.5,923.4,761.6,923.4z"/>
		<path d="M786.8,895.9v6.4h4.4v5.1h-4.4v12.9c0,1,0.2,1.6,0.5,2.1s1.1,0.6,2.1,0.6c0.8,0,1.4-0.1,2-0.2v5.2
			c-1.4,0.4-2.8,0.6-4.2,0.6c-4.8,0-7.3-2.4-7.4-7.3v-13.9H776v-5.1h3.8v-6.4L786.8,895.9L786.8,895.9z"/>
		<path d="M795.1,895.6c0-1,0.3-1.9,1-2.6c0.7-0.7,1.6-1,2.8-1s2.1,0.3,2.8,1s1.1,1.5,1.1,2.6s-0.4,1.9-1.1,2.6
			c-0.7,0.7-1.6,1-2.8,1s-2.1-0.3-2.8-1S795.1,896.6,795.1,895.6z M802.4,928.2h-6.9v-25.9h6.9V928.2z"/>
		<path d="M817.8,919.7l4.8-17.4h7.2l-8.7,25.9h-6.6l-8.7-25.9h7.2L817.8,919.7z"/>
		<path d="M847.5,928.2c-0.3-0.6-0.6-1.4-0.7-2.3c-1.7,1.9-3.9,2.8-6.5,2.8c-2.5,0-4.6-0.7-6.3-2.2s-2.5-3.3-2.5-5.6
			c0-2.7,1-4.8,3.1-6.3c2-1.5,5-2.2,8.8-2.2h3.2v-1.5c0-1.2-0.3-2.2-0.9-2.9c-0.6-0.7-1.6-1.1-2.9-1.1c-1.2,0-2.1,0.3-2.7,0.8
			c-0.7,0.6-1,1.3-1,2.3h-6.9c0-1.5,0.5-2.9,1.4-4.2s2.2-2.3,3.9-3s3.6-1.1,5.7-1.1c3.2,0,5.7,0.8,7.6,2.4c1.9,1.6,2.8,3.9,2.8,6.8
			v11.2c0,2.5,0.4,4.3,1,5.6v0.4L847.5,928.2L847.5,928.2z M841.8,923.4c1,0,2-0.2,2.8-0.7c0.9-0.5,1.5-1.1,1.9-1.8v-4.5H844
			c-3.5,0-5.3,1.2-5.5,3.6v0.4c0,0.9,0.3,1.6,0.9,2.1S840.8,923.4,841.8,923.4z"/>
		<path d="M864.4,917.5c0-2.2,0.3-4,0.8-5.3s1.5-2.6,3-3.9c1.4-1.3,2.4-2.3,2.9-3.1s0.7-1.7,0.7-2.6c0-2.7-1.2-4-3.7-4
			c-1.2,0-2.1,0.4-2.8,1.1c-0.7,0.7-1.1,1.7-1.1,3h-6.9c0-3,1-5.4,3-7.2c1.9-1.7,4.6-2.6,7.9-2.6c3.4,0,6,0.8,7.9,2.5
			s2.8,3.9,2.8,6.9c0,1.4-0.3,2.6-0.9,3.8c-0.6,1.2-1.7,2.5-3.2,4l-1.9,1.8c-1.2,1.2-1.9,2.5-2.1,4.1l-0.1,1.5H864.4z M863.7,924.8
			c0-1.1,0.4-1.9,1.1-2.6c0.7-0.7,1.7-1,2.8-1s2.1,0.3,2.8,1s1.1,1.6,1.1,2.6s-0.4,1.9-1.1,2.6c-0.7,0.7-1.6,1-2.8,1s-2.1-0.3-2.8-1
			S863.7,925.9,863.7,924.8z"/>
	</g>
	<g>
		<g>
			<path d="M355.3,969.9h-15.1v12.3h17.5v3.8h-22.1v-34.8h21.9v3.8h-17.3v11.2h15.1V969.9z"/>
			<path d="M377.9,979.2c0-1.2-0.5-2.1-1.4-2.8s-2.5-1.2-4.7-1.7s-4-1.1-5.3-1.7c-1.3-0.7-2.3-1.5-2.9-2.4s-0.9-2-0.9-3.3
				c0-2.1,0.9-3.9,2.7-5.4c1.8-1.5,4.1-2.2,6.9-2.2c2.9,0,5.3,0.8,7.1,2.3c1.8,1.5,2.7,3.5,2.7,5.8h-4.5c0-1.2-0.5-2.3-1.5-3.1
				c-1-0.9-2.3-1.3-3.9-1.3s-2.9,0.4-3.8,1.1s-1.4,1.6-1.4,2.8c0,1.1,0.4,1.9,1.3,2.4c0.8,0.5,2.4,1.1,4.6,1.6s4,1.1,5.4,1.8
				s2.4,1.5,3.1,2.5s1,2.1,1,3.5c0,2.3-0.9,4.2-2.8,5.6c-1.9,1.4-4.3,2.1-7.2,2.1c-2.1,0-3.9-0.4-5.5-1.1c-1.6-0.7-2.8-1.8-3.7-3.1
				c-0.9-1.3-1.4-2.7-1.4-4.3h4.4c0.1,1.5,0.7,2.7,1.8,3.5c1.1,0.9,2.6,1.3,4.4,1.3c1.7,0,3-0.3,4-1
				C377.3,981.2,377.9,980.3,377.9,979.2z"/>
			<path d="M398.4,982.9c1.6,0,3-0.5,4.1-1.4s1.8-2.2,2-3.6h4.2c-0.1,1.5-0.6,2.9-1.5,4.2s-2.2,2.4-3.8,3.2s-3.2,1.2-5,1.2
				c-3.5,0-6.3-1.2-8.4-3.5c-2.1-2.4-3.1-5.6-3.1-9.7v-0.7c0-2.5,0.5-4.8,1.4-6.7c0.9-2,2.3-3.5,4-4.6s3.8-1.6,6.1-1.6
				c2.9,0,5.3,0.9,7.2,2.6c1.9,1.7,2.9,4,3.1,6.8h-4.2c-0.1-1.7-0.8-3.1-1.9-4.1c-1.1-1.1-2.5-1.6-4.2-1.6c-2.2,0-4,0.8-5.2,2.4
				s-1.9,4-1.9,7v0.8c0,3,0.6,5.3,1.8,6.9C394.4,982.1,396.2,982.9,398.4,982.9z"/>
			<path d="M426.2,964.1c-0.7-0.1-1.4-0.2-2.2-0.2c-2.9,0-4.9,1.2-5.9,3.7V986h-4.4v-25.9h4.3l0.1,3c1.5-2.3,3.5-3.5,6.2-3.5
				c0.9,0,1.5,0.1,2,0.3v4.2H426.2z"/>
			<path d="M430.3,953.3c0-0.7,0.2-1.3,0.7-1.8c0.4-0.5,1.1-0.7,2-0.7s1.5,0.2,2,0.7c0.4,0.5,0.7,1.1,0.7,1.8s-0.2,1.3-0.7,1.8
				s-1.1,0.7-2,0.7s-1.5-0.2-2-0.7S430.3,954,430.3,953.3z M435.1,986h-4.4v-25.9h4.4V986z"/>
			<path d="M464.1,973.4c0,4-0.9,7.1-2.7,9.5s-4.3,3.6-7.3,3.6c-3.3,0-5.8-1.2-7.6-3.5l-0.2,3h-4.1v-36.8h4.4V963
				c1.8-2.2,4.3-3.3,7.4-3.3s5.6,1.2,7.4,3.6c1.8,2.4,2.7,5.6,2.7,9.8L464.1,973.4L464.1,973.4z M459.7,972.9c0-3-0.6-5.3-1.7-7
				c-1.2-1.6-2.8-2.5-5-2.5c-2.9,0-5,1.4-6.3,4.1v11.2c1.4,2.7,3.5,4.1,6.3,4.1c2.1,0,3.8-0.8,5-2.5S459.7,976.2,459.7,972.9z"/>
			<path d="M469.7,953.3c0-0.7,0.2-1.3,0.7-1.8c0.4-0.5,1.1-0.7,2-0.7s1.5,0.2,2,0.7c0.4,0.5,0.7,1.1,0.7,1.8s-0.2,1.3-0.7,1.8
				s-1.1,0.7-2,0.7s-1.5-0.2-2-0.7C469.9,954.6,469.7,954,469.7,953.3z M474.5,986H470v-25.9h4.4V986H474.5z"/>
			<path d="M485.7,960.2l0.1,3.3c2-2.5,4.6-3.7,7.8-3.7c5.5,0,8.2,3.1,8.3,9.3V986h-4.4v-17.1c0-1.9-0.4-3.2-1.3-4.1
				c-0.8-0.9-2.1-1.3-3.9-1.3c-1.4,0-2.7,0.4-3.8,1.1s-1.9,1.8-2.5,3V986h-4.4v-25.9h4.1V960.2z"/>
			<path d="M507.4,972.9c0-2.5,0.5-4.8,1.5-6.8s2.4-3.6,4.2-4.7c1.8-1.1,3.8-1.7,6.1-1.7c3.5,0,6.4,1.2,8.6,3.7
				c2.2,2.4,3.3,5.7,3.3,9.7v0.3c0,2.5-0.5,4.8-1.4,6.8c-1,2-2.3,3.6-4.1,4.7c-1.8,1.1-3.9,1.7-6.2,1.7c-3.5,0-6.4-1.2-8.5-3.7
				c-2.2-2.4-3.3-5.7-3.3-9.7v-0.3H507.4z M511.9,973.4c0,2.9,0.7,5.2,2,6.9s3.1,2.6,5.3,2.6s4-0.9,5.4-2.6c1.3-1.8,2-4.2,2-7.4
				c0-2.8-0.7-5.1-2-6.9c-1.3-1.8-3.1-2.6-5.4-2.6c-2.2,0-3.9,0.9-5.3,2.6C512.5,967.7,511.9,970.2,511.9,973.4z"/>
			<path d="M551.6,979.2c0-1.2-0.5-2.1-1.4-2.8s-2.5-1.2-4.7-1.7s-4-1.1-5.3-1.7c-1.3-0.7-2.3-1.5-2.9-2.4c-0.6-0.9-0.9-2-0.9-3.3
				c0-2.1,0.9-3.9,2.7-5.4s4.1-2.2,6.9-2.2c2.9,0,5.3,0.8,7.1,2.3s2.7,3.5,2.7,5.8h-4.5c0-1.2-0.5-2.3-1.5-3.1
				c-1-0.9-2.3-1.3-3.9-1.3c-1.6,0-2.9,0.4-3.8,1.1s-1.4,1.6-1.4,2.8c0,1.1,0.4,1.9,1.3,2.4c0.8,0.5,2.4,1.1,4.6,1.6
				c2.2,0.5,4,1.1,5.4,1.8s2.4,1.5,3.1,2.5c0.7,1,1,2.1,1,3.5c0,2.3-0.9,4.2-2.8,5.6c-1.9,1.4-4.3,2.1-7.2,2.1
				c-2.1,0-3.9-0.4-5.5-1.1c-1.6-0.7-2.8-1.8-3.7-3.1s-1.4-2.7-1.4-4.3h4.4c0.1,1.5,0.7,2.7,1.8,3.5c1.1,0.9,2.6,1.3,4.4,1.3
				c1.7,0,3-0.3,4-1C551.1,981.2,551.6,980.3,551.6,979.2z"/>
			<path d="M589.9,986c-0.3-0.5-0.5-1.4-0.6-2.7c-2.1,2.1-4.5,3.2-7.4,3.2c-2.6,0-4.6-0.7-6.3-2.2s-2.5-3.3-2.5-5.5
				c0-2.7,1-4.8,3.1-6.3s4.9-2.2,8.6-2.2h4.3v-2c0-1.5-0.5-2.8-1.4-3.7s-2.3-1.4-4.1-1.4c-1.6,0-2.9,0.4-4,1.2s-1.6,1.8-1.6,2.9
				h-4.5c0-1.3,0.5-2.5,1.4-3.7s2.2-2.2,3.7-2.9c1.6-0.7,3.3-1.1,5.2-1.1c3,0,5.3,0.7,7,2.2s2.6,3.5,2.6,6.2v12
				c0,2.4,0.3,4.3,0.9,5.7v0.4h-4.4V986z M582.6,982.7c1.4,0,2.7-0.4,3.9-1.1s2.1-1.7,2.7-2.8v-5.3h-3.5c-5.4,0-8.1,1.6-8.1,4.8
				c0,1.4,0.5,2.5,1.4,3.3S581.1,982.7,582.6,982.7z"/>
			<path d="M599.5,972.9c0-4.1,0.9-7.3,2.8-9.7c1.9-2.4,4.4-3.6,7.5-3.6s5.5,1,7.3,3.1l0.2-2.6h4.1V996H617v-12.3
				c-1.8,1.9-4.2,2.9-7.1,2.9c-3.1,0-5.6-1.2-7.5-3.6s-2.8-5.7-2.8-9.7L599.5,972.9L599.5,972.9z M603.9,973.4c0,3,0.6,5.3,1.9,7
				c1.3,1.7,2.9,2.5,5.1,2.5c2.6,0,4.6-1.2,6-3.5v-12.7c-1.4-2.3-3.4-3.4-6-3.4c-2.1,0-3.8,0.8-5.1,2.5
				C604.6,967.6,603.9,970.1,603.9,973.4z"/>
			<path d="M644.4,983.5c-1.7,2-4.3,3-7.6,3c-2.8,0-4.9-0.8-6.3-2.4c-1.4-1.6-2.2-4-2.2-7.1v-16.8h4.4v16.7c0,3.9,1.6,5.9,4.8,5.9
				c3.4,0,5.6-1.3,6.7-3.8v-18.8h4.4V986h-4.2L644.4,983.5z"/>
			<path d="M660.3,949.3h5.4l-6.4,7h-3.6L660.3,949.3z M660.3,986h-4.5v-25.9h4.5V986z"/>
		</g>
	</g>
</g>
<g>
	<text transform="matrix(1 0 0 1 1200.6434 1110.1943)" style="font-family:'Roboto-Bold'; font-size:49px;">¿Necesitas ayuda administrativa?</text>
	<g>
		<text transform="matrix(1 0 0 1 1391.1334 1168.0649)" style="font-family:'Roboto-Regular'; font-size:49px;">Escribinos aquí</text>
	</g>
</g>
</svg>
