<?xml version="1.0" encoding="utf-8"?>
<!-- Generator: Adobe Illustrator 24.3.0, SVG Export Plug-In . SVG Version: 6.00 Build 0)  -->
<svg version="1.1" id="Capa_1" xmlns="http://www.w3.org/2000/svg" xmlns:xlink="http://www.w3.org/1999/xlink" x="0px" y="0px"
	 viewBox="0 0 632.6 412.9" style="enable-background:new 0 0 632.6 412.9;" xml:space="preserve">
<style type="text/css">
	.st0{fill:#EF936F;}
	.st1{fill:#000100;}
	.st2{fill:#D6D6D6;}
	.st3{fill:#231F20;}
	.st4{fill:none;stroke:#000100;stroke-miterlimit:10;}
	.st5{clip-path:url(#SVGID_2_);}
	.st6{fill:#F16E7F;}
	.st7{fill:#7F474F;}
	.st8{fill:#FFFFFF;}
	.st9{fill:none;stroke:#C59FA3;stroke-linejoin:round;stroke-miterlimit:10;}
	.st10{fill:#C59FA3;}
	.st11{fill:none;stroke:#C59FA3;stroke-miterlimit:10;}
	.st12{fill:#8F67C9;}
	.st13{fill:none;stroke:#000100;stroke-width:0.75;stroke-miterlimit:10;}
	.st14{fill:#FFFFFF;stroke:#000100;stroke-width:0.75;stroke-miterlimit:10;}
	.st15{fill:none;stroke:#703A42;stroke-width:2;stroke-miterlimit:10;}
	.st16{fill:none;stroke:#000100;stroke-width:0.75;stroke-miterlimit:10;stroke-dasharray:3.038,1.519;}
	.st17{fill:none;stroke:#FFFFFF;stroke-miterlimit:10;}
	.st18{fill:#DBAFB5;}
	.st19{fill:none;stroke:#FFFFFF;stroke-linecap:round;stroke-miterlimit:10;}
	.st20{fill:none;stroke:#000100;stroke-width:0.75;stroke-linecap:round;stroke-linejoin:round;stroke-miterlimit:10;}
	.st21{fill:#1DA8DE;}
</style>
<g>
	<path class="st0" d="M429.7,145.2l35-7.7l15.1-79.9l38.5,8.1l-13.6,91.7c-1.7,11.2-9.8,20.3-20.8,23.1l-56.7,14.9"/>
	<g>
		<path class="st0" d="M475.6,79.7c4.2-20.3,5.2-47.5,7.8-49.2c1.1-0.7,2.3,0.1,3.1,1.8c1.7,3.7,2,10.8,4.4,10.5
			c1.4-0.2,4.5-17.5,6.9-24.8c0.9-2.7,3.6-1.5,3.7,0.2c0.6,6.6-2.2,22.6-2.2,22.6c1,0,3.4-18.4,6.5-25c0.7-1.4,3.4-1.5,3.6,0.3
			c0.6,7-1.8,26.3-1.8,26.3s2.3-18.8,5.6-24.6c0.6-1.1,3.1-0.7,3.3,0.5c0.6,5.4-2.2,27.3-2.2,27.3s2.7-15.9,4.6-20.6
			c0.5-1.3,3.5-0.4,3.6,0.9c1,9.8-6.6,55.9-6.6,55.9"/>
	</g>
	<g>
		<g>
			<path class="st1" d="M512.3,49.3c-2.8,1.6-5.4,3.6-7.3,6.2c-1,1.3-1.7,2.7-2.2,4.2c-0.5,1.4-0.9,3.2-0.5,4.6
				c0.1,0.2,0.3,0.1,0.4,0c0.1-0.8,0-1.6,0.2-2.4c0.1-0.7,0.3-1.5,0.5-2.2c0.5-1.5,1.3-2.9,2.3-4.2c1.9-2.4,4.4-4.2,6.9-5.9
				C512.7,49.5,512.5,49.2,512.3,49.3L512.3,49.3z"/>
		</g>
	</g>
	<g>
		<g>
			<path class="st1" d="M490.1,46.5c1.1,2.4,1.7,5,2,7.6c0.1,1.2,0.1,2.5,0,3.7c-0.1,1.3-0.4,2.5-0.5,3.8c0,0.3,0.3,0.3,0.4,0.1
				c0.5-1.2,0.6-2.6,0.7-3.9c0.1-1.3,0.1-2.7-0.1-4.1c-0.3-2.6-1-5.1-2.1-7.5C490.3,46.1,490,46.3,490.1,46.5L490.1,46.5z"/>
		</g>
	</g>
	<g>
		<path class="st0" d="M279.7,172.2c-30.9,32.1-68.7,55.8-110.3,76.6l2.7,42.7c52.8-16.9,101.3-46.8,140.1-86.3"/>
	</g>
	<path class="st2" d="M335,153.6c0,0-14.4,0.6-29.9,0c-9.9-0.4-19.1,4.3-26.1,10.5c-8.9,7.8-47.9,43.7-47.9,43.7l42.4,36.6
		l29.2-22.8l1.6,66h108.2l1.3-83.2l40.4-9.9l-8.8-54.5c0,0-36.7,6.6-47.3,7.2c-13.6,0.8-27.4,6.5-27.4,6.5"/>
	<g>
		<g>
			<g>
				<path class="st3" d="M266.3,155.2c6.3-5,13.8-8.3,21.7-9.7c2.3-0.4,4.5-0.7,6.8-0.9c0.2,0,0.3-0.4,0-0.4
					c-4.1-0.1-8.2,0.6-12.1,1.8c-3.9,1.2-7.6,2.8-11.1,4.9c-2,1.2-3.8,2.5-5.6,4C265.8,155.1,266.1,155.3,266.3,155.2L266.3,155.2z"
					/>
			</g>
		</g>
		<g>
			<g>
				<path class="st3" d="M269.2,144.6c2.9-2.2,6.3-3.9,9.8-4.9c1.8-0.5,3.6-0.9,5.4-1.2c1.8-0.2,3.6-0.3,5.5-0.3
					c0.4,0,0.3-0.5,0-0.5c-3.7-0.5-7.5,0.2-11,1.4c-3.6,1.1-6.9,2.9-9.9,5.1C268.7,144.4,268.9,144.8,269.2,144.6L269.2,144.6z"/>
			</g>
		</g>
	</g>
	<line class="st4" x1="303.1" y1="229.3" x2="301.3" y2="198"/>
	<g>
		<path class="st0" d="M174.6,246.1c-18.8,9.6-45.4,15.9-46.6,18.9c-0.5,1.3,0.6,2.3,2.5,2.7c4.1,0.8,11.3-0.5,11.6,2.1
			c0.1,1.5-16.9,7.3-23.7,11.4c-2.5,1.5-0.7,3.9,1.1,3.7c6.8-0.9,22.6-6.1,22.6-6.1c0.2,1-18,6.4-24,11c-1.3,1-0.7,3.8,1.1,3.5
			c7.2-1,26.4-6.5,26.4-6.5s-18.7,5.4-23.8,10.1c-0.9,0.9,0,3.3,1.3,3.2c5.6-0.7,27.4-7.2,27.4-7.2s-15.7,5-20.1,8.1
			c-1.2,0.8,0.4,3.5,1.8,3.4c10.9-0.5,55.1-18.2,55.1-18.2"/>
	</g>
	<g>
		<g>
			<path class="st1" d="M153.9,290.1c1.2-3.1,2.5-6.2,4.8-8.7c1-1.1,2.1-2.1,3.4-2.9c0.7-0.4,1.3-0.7,2.1-1c0.7-0.3,1.5-0.4,2.3-0.7
				c0.2-0.1,0.2-0.4,0-0.4c-1.5,0-3.1,0.7-4.4,1.5c-1.4,0.8-2.6,1.8-3.6,3c-2.3,2.6-3.8,5.8-4.8,9.1
				C153.5,290.2,153.8,290.3,153.9,290.1L153.9,290.1z"/>
		</g>
	</g>
	<g>
		<g>
			<path class="st1" d="M145.6,268.6c2.7,0.6,5.4,0.8,8.2,0.4c2.6-0.3,5.5-1,7.7-2.4c0.2-0.1,0.1-0.5-0.2-0.4
				c-1.2,0.4-2.4,1-3.7,1.4c-1.3,0.4-2.6,0.7-4,0.9c-2.6,0.3-5.3,0.3-8-0.3C145.4,268.1,145.3,268.5,145.6,268.6L145.6,268.6z"/>
		</g>
	</g>
	<path class="st4" d="M371.2,164.5c1.6-2.3,2.6-4.8,3.1-7.2"/>
	<path class="st4" d="M335.2,166.2c0,0,6.3,9.6,20.5,6.9c4.9-0.9,8.6-2.3,11.4-4.4"/>
	<path class="st4" d="M413.7,204.4c0,0-9.9,1.9-10.9,6"/>
</g>
<g>
	<defs>
		<rect id="SVGID_1_" x="1.6" y="0.4" width="631" height="397"/>
	</defs>
	<clipPath id="SVGID_2_">
		<use xlink:href="#SVGID_1_"  style="overflow:visible;"/>
	</clipPath>
	<g class="st5">
		<g>
			<g>
				<polyline class="st6" points="288.5,490.6 297.5,679 358.1,679 354.7,490.6 				"/>
				<g>
					<polygon class="st7" points="296.3,687.1 359,687.6 359,667.1 294.9,670.1 					"/>
					<path class="st8" d="M359.2,679l2.9,35.5H254.2v-7.3c0-2.9,1.7-5.6,4.3-7l37.7-19.2L359.2,679z"/>
					<line class="st9" x1="361.5" y1="707.1" x2="254.2" y2="707.1"/>
					<path class="st9" d="M359.8,686.1c0,0-19.9,1.6-27.9,21"/>
					<path class="st9" d="M271.2,693.7c0,0,7.6,6.1,7.9,13.4"/>
					<polyline class="st9" points="298.8,686.5 291.3,682.2 292.3,690 285.1,686.1 285.1,693.1 280.8,687.8 					"/>
					<path class="st9" d="M291.4,682.9c0,0,1.3-5.2,1.3-7.7c0.1-2.2-0.4-4.5-2.4-5.8c-0.7-0.4-1.6-0.7-2.3-0.3c-0.9,0.5-1,1.7-1,2.7
						c0.1,3.9,1.3,7.6,3.5,10.8"/>
					<g>
						<g>
							<path class="st10" d="M291,682.7c-1.6-2.1-3.8-3.5-6-4.8c-1.2-0.7-2.4-1.4-3.6-1.9c-1.1-0.5-2.4-0.9-3.7-0.7
								c-1.2,0.2-1.9,1.1-2.5,2.1c-0.6,1-1,2.2-0.6,3.3c0.4,1,1.5,1.6,2.6,1.8c1.4,0.3,2.9,0.3,4.3,0.4c3.6,0.2,7.3,0.1,10.9-0.3
								c0.4,0,0.4-0.7,0-0.6c-2.7,0.2-5.4,0.4-8.2,0.4c-1.3,0-2.6-0.1-4-0.1c-1.3-0.1-2.7,0-3.9-0.6c-1.3-0.6-1.7-1.8-1.2-3.1
								c0.4-1.1,1.3-2.4,2.4-2.7c1.2-0.3,2.5,0.1,3.6,0.6c1.2,0.5,2.3,1.1,3.3,1.7c2.3,1.3,4.5,2.6,6.2,4.7
								C290.8,683.1,291.1,682.9,291,682.7L291,682.7z"/>
						</g>
					</g>
					<line class="st11" x1="351.5" y1="667.4" x2="351.8" y2="675.2"/>
					<line class="st11" x1="340.3" y1="667.9" x2="340.6" y2="675.6"/>
					<line class="st11" x1="328" y1="668.5" x2="328.3" y2="676.3"/>
					<line class="st11" x1="316.8" y1="668.9" x2="317" y2="676.7"/>
					<line class="st11" x1="303.8" y1="669.6" x2="304.1" y2="677.4"/>
				</g>
			</g>
			<g>
				<polyline class="st6" points="466.5,490.6 517.7,679 457.1,679 400.4,490.6 				"/>
				<g>
					<polygon class="st7" points="519.4,682.5 456.5,679 453.6,667.4 515,668.9 					"/>
					<path class="st8" d="M456.5,679l-2.9,35.5h107.9v-7.3c0-2.9-1.7-5.6-4.3-7l-37.7-19.2L456.5,679z"/>
					<line class="st9" x1="454.1" y1="707.1" x2="561.5" y2="707.1"/>
					<path class="st9" d="M455.9,686.1c0,0,19.9,1.6,27.9,21"/>
					<path class="st9" d="M544.4,693.7c0,0-7.6,6.1-7.9,13.4"/>
					<polyline class="st9" points="516.8,686.5 524.4,682.2 523.3,690 530.5,686.1 530.5,693.1 534.8,687.8 					"/>
					<path class="st9" d="M524.3,682.9c0,0-1.3-5.2-1.3-7.7c-0.1-2.2,0.4-4.5,2.4-5.8c0.7-0.4,1.6-0.7,2.3-0.3c0.9,0.5,1,1.7,1,2.7
						c-0.1,3.9-1.3,7.6-3.5,10.8"/>
					<g>
						<g>
							<path class="st10" d="M524.9,682.9c1.5-1.9,3.4-3.1,5.4-4.3c1-0.6,2-1.2,3.1-1.7c1.1-0.5,2.3-1.1,3.6-1.1
								c1.4-0.1,2.3,0.8,3,1.9c0.6,1.1,1.1,2.5,0.1,3.5c-0.9,0.9-2.4,0.9-3.6,1c-1.4,0.1-2.7,0.2-4.1,0.2c-3.1,0.1-6.1-0.1-9.1-0.4
								c-0.4,0-0.4,0.6,0,0.6c3.2,0.3,6.4,0.4,9.6,0.3c1.5-0.1,3.1-0.1,4.6-0.3c1.2-0.1,2.4-0.4,3.2-1.4c0.7-0.9,0.6-2,0.2-3
								c-0.4-1-1.2-2.2-2.2-2.7c-2.3-1.1-5.1,0.7-7.1,1.8c-2.6,1.4-5.2,3-7,5.4C524.5,682.9,524.8,683.1,524.9,682.9L524.9,682.9z"
								/>
						</g>
					</g>
					<line class="st11" x1="464.1" y1="667.4" x2="466.3" y2="674.8"/>
					<line class="st11" x1="475.3" y1="667.9" x2="477.5" y2="675.3"/>
					<line class="st11" x1="487.4" y1="667.9" x2="489.8" y2="676"/>
					<line class="st11" x1="498.7" y1="668.3" x2="501.1" y2="676.3"/>
					<line class="st11" x1="511.6" y1="668.9" x2="514.1" y2="677"/>
				</g>
			</g>
			<path class="st12" d="M508.6,627.6c0,0-22.8-110.2-49.5-195c-18-57.3-35.9-116.6-35.9-116.6l-2.8-15.1l-6.7-74.3l-4-1
				c-5.8-1.4-10.3-6-11.4-11.9l-5.3-27.6l-76.8,3.6l-4.6,28.2c-0.9,5.8-5.1,10.5-10.8,12.2l0,0l-3.8,89.5c0,0-12.3,109.1-12.4,160.5
				c0,48.2,0,147.6,0,147.6h94.4c0,0-7.1-101.1-7.9-129.5c-1.4-48.2-5.7-99.8-5.7-99.8l22,100.4l24.1,128.8H508.6z"/>
			<path class="st13" d="M365.7,404.7c0,0-5.9-48.6-5.8-82.2"/>
			<path class="st13" d="M347.2,321.1c0,0,0.9,39.5,3.7,43.7c2.8,4.3,11.8,10,11.8,10"/>
			<path class="st13" d="M319.5,321c-0.3,0-4.5,27.2-11.4,32.8c-6.9,5.5-15.2,2.7-15.2,2.7"/>
			<path class="st14" d="M390.5,191.1c0,1.8-1.5,3.3-3.3,3.3c-1.8,0-3.3-1.5-3.3-3.3c0-1.8,1.5-3.3,3.3-3.3
				C389.1,187.8,390.5,189.3,390.5,191.1z"/>
			<path class="st14" d="M324.3,196.8c0,1.8-1.5,3.3-3.3,3.3s-3.3-1.5-3.3-3.3c0-1.8,1.5-3.3,3.3-3.3S324.3,195,324.3,196.8z"/>
			<line class="st15" x1="387.3" y1="191.1" x2="389.3" y2="147.9"/>
			<path class="st13" d="M325.2,213.8l58.8-1.8c0,0,3.3,45.8-3.2,49.2c-6.5,3.4-43.9,5.5-50.1,0
				C324.4,255.6,325.2,213.8,325.2,213.8z"/>
			<g>
				<g>
					<line class="st13" x1="325.2" y1="220.1" x2="326.7" y2="220"/>
					<line class="st16" x1="328.2" y1="220" x2="382.1" y2="218.1"/>
					<line class="st13" x1="382.9" y1="218.1" x2="384.4" y2="218.1"/>
				</g>
			</g>
			<path class="st13" d="M402.8,319c0,0,5.2,20.4,9.7,25.9c8.7,10.8,20,8.8,20,8.8"/>
			<path class="st17" d="M297.8,304.3c36.7,3,73.1,4.6,109.6-1.2c4.3-0.7,8.6-1.5,12.9-2.3"/>
			<path class="st17" d="M296.8,319.5c36.4,2.9,73.5,4.4,109.7-1c5.1-0.8,11.6-1.6,16.6-2.5"/>
			<line class="st17" x1="304.6" y1="304.3" x2="303.8" y2="320"/>
			<line class="st17" x1="309" y1="304.3" x2="308.1" y2="320"/>
			<line class="st17" x1="335.3" y1="306.1" x2="335.3" y2="321.1"/>
			<line class="st17" x1="340.9" y1="306.1" x2="340.9" y2="321.1"/>
			<line class="st17" x1="373.5" y1="306.6" x2="374.8" y2="321.6"/>
			<line class="st17" x1="380" y1="306.6" x2="381.3" y2="321.6"/>
			<line class="st17" x1="410.3" y1="302.7" x2="412.4" y2="317.6"/>
			<line class="st17" x1="414.7" y1="302.7" x2="416.8" y2="317.6"/>
			<line class="st13" x1="284.5" y1="615.3" x2="378.1" y2="615.3"/>
			<line class="st13" x1="409.2" y1="615.3" x2="505.7" y2="615.3"/>
			<g>
				<g>
					<path class="st1" d="M304.9,510.6c1.3,5.1,2.9,10,4.5,15c1.5,5,3,9.9,4.6,14.9c0.9,2.8,1.8,5.6,2.7,8.4c0,0.1,0.2,0.1,0.2,0
						c-2.9-10-6-19.9-9-29.9c-0.9-2.8-1.7-5.6-2.7-8.4C305,510.5,304.9,510.5,304.9,510.6L304.9,510.6z"/>
				</g>
			</g>
			<g>
				<g>
					<path class="st1" d="M312.5,511.9c1,3,2.4,5.9,3.8,8.7c1.4,2.9,2.9,5.8,4.6,8.5c0.1,0.2,0.4,0,0.3-0.2
						c-1.5-2.8-3.1-5.6-4.5-8.5c-1.4-2.9-2.6-5.8-4.1-8.7C312.6,511.7,312.4,511.7,312.5,511.9L312.5,511.9z"/>
				</g>
			</g>
			<g>
				<g>
					<path class="st1" d="M471.2,509.8c1.4,11.7,2.5,23.5,3,35.3c0.2,3.3,0.2,6.7,0.4,10c0,0.3,0.4,0.3,0.4,0
						c0-5.9-0.4-11.9-0.8-17.8c-0.4-5.9-0.9-11.8-1.6-17.7c-0.4-3.3-0.8-6.6-1.2-9.8C471.4,509.7,471.2,509.7,471.2,509.8
						L471.2,509.8z"/>
				</g>
			</g>
			<g>
				<g>
					<path class="st1" d="M465.4,520.9c-0.6,2.6-0.7,5.4-0.7,8.1c0,2.7,0.3,5.4,0.9,8.1c0,0.2,0.4,0.1,0.3-0.1
						c-0.4-2.7-0.7-5.4-0.8-8.1c0-2.7,0.3-5.3,0.6-8C465.7,520.8,465.4,520.7,465.4,520.9L465.4,520.9z"/>
				</g>
			</g>
			<g>
				<g>
					<path class="st18" d="M410.3,414.6c7.9-0.9,15.8-1.8,23.7-2.6c0-0.2-0.1-0.4-0.1-0.6c-9.2,1.6-18.4,3.1-27.6,4.3
						c0,0.2,0,0.4,0,0.7c10.1-1.3,20.2-1.6,30.3-1.8c0-0.2,0-0.5,0-0.7c-8.2,0.8-16.4,1.8-24.6,3c-2.3,0.3-4.7,0.7-7,1
						c-0.4,0.1-0.3,0.7,0.1,0.7c9-0.2,18-0.6,26.9-1.2c0-0.2-0.1-0.5-0.1-0.7c-6.7,1.3-13.5,2-20.3,2.1c0,0.2,0,0.5,0,0.7
						c8.1-0.6,16.2-1.3,24.3-1.9c0-0.2-0.1-0.5-0.1-0.7c-8.7,2.6-17.7,3.9-26.7,5.1c-0.4,0.1-0.3,0.7,0.1,0.7
						c8.3-0.7,16.5-1.4,24.8-2.1c0-0.2,0-0.5,0-0.7c-6.3,0.8-12.7,1.7-19,2.5c-0.4,0.1-0.5,0.8,0,0.7c7.1-0.7,14.3-1.1,21.4-1.1
						c0-0.2-0.1-0.5-0.1-0.7c-7.8,2.5-16,3.9-24.2,4.3c0,0.2,0,0.5,0,0.7c9.8-0.9,19.6-1.6,29.4-1.9c0-0.2-0.1-0.5-0.1-0.7
						c-10.1,2.2-20.4,3.7-30.7,4.4c-0.5,0-0.5,0.8,0,0.7c9.4-0.4,18.9-1,28.3-1.7c0.5,0,0.5-0.8,0-0.7c-8.5,0.7-17.1,1.5-25.6,2.4
						c-2.4,0.3-4.9,0.5-7.3,0.8c0,0.2,0.1,0.5,0.1,0.7c1.5-0.2,2.9-0.6,4.3-0.8c0.3,0,0.2-0.5-0.1-0.5c-1.5,0.2-2.9,0.3-4.4,0.5
						c-0.4,0.1-0.3,0.8,0.1,0.7c8.5-1,17-1.9,25.6-2.7c2.4-0.2,4.9-0.4,7.3-0.6c0-0.2,0-0.5,0-0.7c-9.4,0.8-18.9,1.3-28.3,1.7
						c0,0.2,0,0.5,0,0.7c8.1-0.6,16.1-1.6,24.1-3.1c2.3-0.4,4.5-0.9,6.8-1.4c0.4-0.1,0.3-0.7-0.1-0.7c-9.8,0.3-19.7,1-29.4,1.9
						c-0.5,0-0.5,0.7,0,0.7c8.3-0.4,16.5-1.8,24.4-4.3c0.4-0.1,0.3-0.7-0.1-0.7c-7.2,0-14.3,0.4-21.4,1.1c0,0.2,0,0.5,0,0.7
						c6.3-0.8,12.7-1.7,19-2.5c0.4-0.1,0.5-0.8,0-0.7c-8.3,0.7-16.5,1.4-24.8,2.1c0,0.2,0.1,0.5,0.1,0.7c9-1.3,18-2.6,26.7-5.1
						c0.4-0.1,0.3-0.7-0.1-0.7c-8.1,0.6-16.2,1.3-24.3,1.9c-0.4,0-0.5,0.7,0,0.7c6.9-0.1,13.7-0.8,20.5-2.1c0.4-0.1,0.3-0.7-0.1-0.7
						c-9,0.7-18,1.1-26.9,1.3c0,0.2,0.1,0.5,0.1,0.7c10.4-1.6,20.9-2.9,31.4-4c0.4,0,0.5-0.7,0-0.7c-10.1,0.2-20.3,0.5-30.3,1.8
						c-0.4,0.1-0.4,0.7,0,0.7c9.3-1.2,18.6-2.7,27.8-4.4c0.4-0.1,0.3-0.7-0.1-0.6c-7.9,0.9-15.8,1.9-23.7,2.8
						C410,414.1,410,414.6,410.3,414.6L410.3,414.6z"/>
				</g>
			</g>
			<g>
				<g>
					<path class="st18" d="M300.6,441.5c8.2-0.5,16.5-0.5,24.7,0.2c0.4,0,0.5-0.6,0.1-0.7c-4.7-0.7-9.4-1.4-14.2-2.1
						c-4.6-0.6-9.2-1.2-13.9-1.1c-0.5,0-0.5,0.8,0,0.8c8.7,0,17.5,0.1,26.2,0.1c0.4,0,0.6-0.7,0.1-0.8c-6.4-1-12.9-2-19.3-3
						c0,0.3-0.1,0.6-0.1,0.8c5.5-0.1,11-0.1,16.4-0.2c0-0.3,0-0.6,0-0.8c-5.5,0.2-10.9-0.4-16.2-1.7c0,0.3-0.1,0.6-0.1,0.8
						c4.7-0.5,9.3-0.8,14-0.9c0.5,0,0.5-0.9,0-0.9c-4.7,0.1-9.3,0.4-14,0.9c-0.4,0-0.6,0.7-0.1,0.8c5.4,1.4,10.9,1.9,16.4,1.8
						c0.5,0,0.5-0.9,0-0.8c-5.5,0.1-11,0.1-16.4,0.2c-0.5,0-0.6,0.8-0.1,0.8c6.4,1,12.9,2,19.3,2.9c0-0.3,0.1-0.5,0.1-0.8
						c-8.7,0-17.5-0.1-26.2-0.1c0,0.3,0,0.5,0,0.8c4.7-0.1,9.4,0.4,14.1,1.1c4.6,0.6,9.3,1.3,13.9,1.9c0-0.2,0-0.5,0-0.7
						c-8.2-0.6-16.5-0.6-24.7,0C300.3,441,300.3,441.5,300.6,441.5L300.6,441.5z"/>
				</g>
			</g>
			<g>
				<g>
					<path class="st18" d="M301,425.6c7.8-1,15.8-1.4,23.7-0.9c0.4,0,0.5-0.6,0.1-0.7c-8.1-1.1-16.3-1.6-24.5-1.8
						c0.1,0.2,0.1,0.5,0.2,0.7c1.4-1,3.2-1.3,4.9-1.4c2.1-0.1,4.1-0.2,6.2-0.3c4.1-0.1,8.3-0.1,12.4,0c0-0.3,0-0.5,0-0.8
						c-5.1,0.1-10.4,0.1-15.3-1.3c0,0.3,0,0.5,0,0.8c4.7-1.1,9.4-1.2,14.2-0.8c0.5,0,0.5-0.7,0-0.8c-4.8-0.6-9.7-0.2-14.4,0.8
						c-0.4,0.1-0.4,0.7,0,0.8c5,1.5,10.3,1.4,15.5,1.3c0.5,0,0.5-0.8,0-0.8c-4.3-0.1-8.6-0.1-12.9,0.1c-2.1,0.1-4.1,0.1-6.2,0.3
						c-1.7,0.1-3.4,0.4-4.8,1.4c-0.3,0.2-0.2,0.7,0.2,0.7c8.2,0.2,16.3,0.9,24.4,1.7c0-0.2,0-0.5,0-0.7c-8-0.2-15.9,0-23.8,1.1
						C300.7,425.2,300.8,425.6,301,425.6L301,425.6z"/>
				</g>
			</g>
			<line class="st15" x1="318" y1="153.3" x2="321" y2="196.8"/>
		</g>
		<g>
			<path class="st0" d="M352,169.3L352,169.3c-10.3,0-18.6-8.3-18.6-18.6V138h37.2v12.7C370.6,160.9,362.3,169.3,352,169.3z"/>
			<path class="st0" d="M351.9,149.9L351.9,149.9c-14.9,0-27-12.1-27-27v-27l20.9-12.1l33,12.1v27
				C378.9,137.8,366.8,149.9,351.9,149.9z"/>
			<g>
				<path class="st1" d="M366.3,111.7c-3.7-0.8-7.3-2.1-10.6-3.8c-3.4-1.8-6-3.7-8.3-6.8c-0.5-0.7-5.5-9-4.8-9.4
					c-3.2,1.6-9.6,5.1-12.1,7.5c-2.1,2-3.8,4.4-4.6,7.2c-0.1,0.3-1.1,5.3-0.9,5.3c0,0-2.6-0.4-2.6-0.4c-0.4-1.2-0.3-3.4-0.3-4.6
					c0-5,0.7-10,2.4-14.6c4.9-13.5,20-18.7,33.4-16.2c12.2,2.2,21.7,6.4,25.8,19.3c1.2,3.7,1.9,7.7,2.1,11.6c0.1,2,0,4-0.2,6
					c-0.2,1.4-0.3,3.5-1.6,4.5c-0.6,0.5-4.5,2.5-5,1.2c-0.1-2.9-0.4-4.1-0.5-6.1C374.6,112.7,370.1,112.5,366.3,111.7z"/>
			</g>
			<line class="st19" x1="326.8" y1="95.3" x2="329.5" y2="100.2"/>
			<line class="st19" x1="330.7" y1="92.8" x2="333.4" y2="97.7"/>
			<line class="st19" x1="335.2" y1="90.4" x2="337.9" y2="95.3"/>
			<path class="st1" d="M375.8,70c0,6.8-5.5,12.3-12.3,12.3s-12.3-5.5-12.3-12.3s5.5-12.3,12.3-12.3S375.8,63.2,375.8,70z"/>
			<path class="st1" d="M393.8,69.4c0,5.4-4.3,9.7-9.7,9.7c-5.4,0-9.7-4.3-9.7-9.7c0-5.4,4.3-9.7,9.7-9.7
				C389.5,59.7,393.8,64,393.8,69.4z"/>
			<path class="st1" d="M407.9,76.2c0,4.4-3.5,7.9-7.9,7.9c-4.4,0-7.9-3.5-7.9-7.9c0-4.4,3.5-7.9,7.9-7.9
				C404.4,68.2,407.9,71.8,407.9,76.2z"/>
			<path class="st1" d="M412.7,88.2c0,3.5-2.8,6.3-6.3,6.3c-3.5,0-6.3-2.8-6.3-6.3c0-3.5,2.8-6.3,6.3-6.3
				C409.9,81.9,412.7,84.7,412.7,88.2z"/>
			<g>
				<path class="st0" d="M326.9,112c-4-1.9-8.9-0.3-9.4,5c-0.2,2.2,0.2,4.5,1.2,6.4c1.1,1.8,2.9,3.2,4.9,3.3c2,0.2,4.2-1,5.1-2.9"/>
			</g>
			<g>
				<path class="st0" d="M378.9,116.9c3.3-2.7,7.8-1,8.3,4.3c0.2,2.2-0.2,4.5-1.2,6.4c-1.1,1.8-2.9,3.2-4.9,3.3
					c-2,0.2-4.2-1-5.1-2.9"/>
			</g>
			<g>
				<g>
					<path class="st1" d="M320,116.8c0.2-0.5,0.5-1,0.9-1.5c0.4-0.4,0.8-0.8,1.3-1.1c0.4-0.2,1-0.2,1.4,0c0.2,0.1,0.4,0.2,0.6,0.4
						c0.2,0.2,0.3,0.4,0.4,0.5c0.1,0.1,0.2,0,0.2-0.1c0-0.5-0.5-1-1-1.2c-0.5-0.2-1.1-0.3-1.6-0.1c-0.6,0.2-1.2,0.7-1.6,1.2
						c-0.4,0.5-0.8,1.1-0.9,1.7C319.7,116.9,319.9,116.9,320,116.8L320,116.8z"/>
				</g>
			</g>
			<g>
				<g>
					<path class="st1" d="M324.6,113.6c-0.2,1.9-0.3,3.8-0.3,5.7c0.1,1.8,0.1,3.8,0.7,5.5c0.1,0.2,0.4,0.2,0.4-0.1
						c-0.1-1.9-0.5-3.7-0.6-5.5c-0.1-1.9-0.1-3.7,0-5.6C324.9,113.4,324.6,113.4,324.6,113.6L324.6,113.6z"/>
				</g>
			</g>
			<g>
				<g>
					<path class="st1" d="M385.2,122.9c0.1-1.3-0.3-2.8-1.5-3.5c-0.5-0.3-1.2-0.4-1.8-0.3c-0.7,0.2-1.1,0.8-1.4,1.4
						c-0.2,0.4-0.4,0.8-0.5,1.2c-0.1,0.5-0.2,0.9-0.2,1.4c0,0.2,0.2,0.2,0.3,0c0.1-0.4,0.3-0.8,0.4-1.3c0.1-0.4,0.3-0.8,0.5-1.2
						c0.4-0.7,0.9-1.2,1.7-1.2c1.7,0.1,2.3,2,2.3,3.4C385,123.1,385.2,123.1,385.2,122.9L385.2,122.9z"/>
				</g>
			</g>
			<path class="st4" d="M335.3,144.8c5.8,6.1,24.2,7.9,32-0.7"/>
			<path class="st1" d="M361.6,120.6c-0.2,1.2,0.6,2.3,1.8,2.5c1.2,0.2,2.3-0.6,2.5-1.8c0.2-1.2-0.6-2.3-1.8-2.5
				C362.8,118.5,361.7,119.4,361.6,120.6z"/>
			<path class="st1" d="M335.6,119.3c0.1,1.2,1.2,2,2.4,1.9c1.2-0.1,2-1.2,1.9-2.4c-0.1-1.2-1.2-2-2.4-1.9
				C336.3,117,335.4,118.1,335.6,119.3z"/>
			<g>
				<path class="st8" d="M356.2,132.3c-0.2,2-0.5,4.1-1.1,6c-1.7,5.4-7.3,6.4-9.7,1.7c-1.1-2.2-1.2-5.2-1.2-8L356.2,132.3z"/>
			</g>
			<path class="st20" d="M369.8,117.6c-1.9-2.9-6.2-3.7-8.6-1.6"/>
			<path class="st20" d="M342.6,114.9c-2.4-1.9-6.7-1.8-8.6,0.1"/>
			<g>
				<g>
					<path class="st1" d="M347.9,126.4c-0.4,1.3,0.4,2.7,1.8,2.9c1.1,0.2,2.2-0.3,2.8-1.2c0.3-0.5,0.5-1.2,0.2-1.8
						c-0.1-0.1-0.2-0.1-0.3,0c-0.1,0.4-0.1,0.9-0.3,1.3c-0.2,0.4-0.5,0.7-0.9,0.9c-0.8,0.5-1.7,0.4-2.4-0.2
						c-0.5-0.5-0.9-1.2-0.7-1.9C348.1,126.3,347.9,126.3,347.9,126.4L347.9,126.4z"/>
				</g>
			</g>
		</g>
	</g>
</g>
<g>
	<text transform="matrix(1 0 0 1 154.6021 610.506)" class="st8" style="font-family:'Roboto-Medium'; font-size:38px;">Avisos importantes</text>
</g>
<g>
	<text transform="matrix(1 0 0 1 112.5213 506.6238)" class="st8" style="font-family:'Roboto-Medium'; font-size:38px;">Te damos la bienvenida</text>
</g>
<g>
	<path class="st21" d="M182.7,161.1c8.3,3.7,18,2.7,23.9,1.1c-4.3-0.8-10.3-2.8-15.4-7l56.5-39.5c1.3-0.9,2.5-1.9,3.7-2.9l8.3-8.9
		c12.2-16.9,13.1-40.3,0.5-58.4l0,0c-15.9-22.8-47.4-28.3-70.2-12.4L60.4,123.6C37.6,139.6,32.1,171,48,193.8l0,0
		c11,15.7,29.2,23.2,47,21.2l11.8-2.8c4-1.5,7.8-3.4,11.4-6L182.7,161.1z"/>
</g>
<path class="st21" d="M631.2,412.2H1.2v-61c0-11.9,9.7-21.6,21.6-21.6h586.8c11.9,0,21.6,9.7,21.6,21.6V412.2z"/>
<g>
	<g>
		<path class="st8" d="M192.6,383.3h-4.7l-12-19.2v19.2h-4.7v-27h4.7l12.1,19.2v-19.2h4.7V383.3z"/>
		<path class="st8" d="M196.5,373.1c0-2,0.4-3.7,1.2-5.3c0.8-1.6,1.9-2.8,3.3-3.6c1.4-0.8,3-1.3,4.9-1.3c2.7,0,4.9,0.9,6.6,2.6
			c1.7,1.7,2.6,4.1,2.7,6.9l0,1.1c0,2-0.4,3.7-1.1,5.3c-0.8,1.6-1.8,2.8-3.3,3.6c-1.4,0.9-3.1,1.3-4.9,1.3c-2.8,0-5.1-0.9-6.8-2.8
			c-1.7-1.9-2.6-4.4-2.6-7.5V373.1z M201,373.5c0,2.1,0.4,3.7,1.3,4.9c0.9,1.2,2,1.8,3.6,1.8s2.7-0.6,3.6-1.8
			c0.8-1.2,1.3-2.9,1.3-5.2c0-2-0.4-3.6-1.3-4.8c-0.9-1.2-2.1-1.8-3.6-1.8c-1.5,0-2.6,0.6-3.5,1.8C201.5,369.4,201,371.2,201,373.5z
			"/>
		<path class="st8" d="M229.9,377.9c0-0.8-0.3-1.4-1-1.8c-0.7-0.4-1.8-0.8-3.3-1.1c-1.5-0.3-2.8-0.7-3.8-1.2
			c-2.3-1.1-3.4-2.7-3.4-4.7c0-1.7,0.7-3.2,2.2-4.3c1.5-1.2,3.3-1.7,5.6-1.7c2.4,0,4.3,0.6,5.8,1.8c1.5,1.2,2.2,2.7,2.2,4.6h-4.5
			c0-0.9-0.3-1.6-1-2.2c-0.6-0.6-1.5-0.9-2.6-0.9c-1,0-1.8,0.2-2.4,0.7c-0.6,0.5-0.9,1.1-0.9,1.8c0,0.7,0.3,1.2,0.9,1.6
			c0.6,0.4,1.8,0.8,3.5,1.2c1.8,0.4,3.2,0.9,4.2,1.4c1,0.5,1.8,1.2,2.2,1.9c0.5,0.8,0.7,1.7,0.7,2.7c0,1.8-0.7,3.3-2.2,4.4
			c-1.5,1.1-3.5,1.7-5.9,1.7c-1.6,0-3.1-0.3-4.4-0.9c-1.3-0.6-2.3-1.4-3-2.4c-0.7-1-1.1-2.2-1.1-3.4h4.4c0.1,1.1,0.5,1.9,1.2,2.5
			c0.7,0.6,1.7,0.9,3,0.9c1.2,0,2.1-0.2,2.7-0.7C229.6,379.2,229.9,378.6,229.9,377.9z"/>
		<path class="st8" d="M264.5,373.5c0,3.1-0.7,5.6-2.1,7.4c-1.4,1.8-3.3,2.8-5.7,2.8c-2.2,0-4-0.7-5.3-2.2v9.5h-4.5v-27.8h4.2l0.2,2
			c1.3-1.6,3.1-2.4,5.4-2.4c2.4,0,4.4,0.9,5.8,2.7c1.4,1.8,2.1,4.4,2.1,7.6V373.5z M260,373.1c0-2-0.4-3.6-1.2-4.8
			c-0.8-1.2-1.9-1.8-3.4-1.8c-1.8,0-3.2,0.8-4,2.3v8.9c0.8,1.6,2.2,2.3,4,2.3c1.4,0,2.6-0.6,3.4-1.7
			C259.6,377.2,260,375.5,260,373.1z"/>
		<path class="st8" d="M278.5,367.4c-0.6-0.1-1.2-0.1-1.8-0.1c-2.1,0-3.5,0.8-4.2,2.4v13.7h-4.5v-20.1h4.3l0.1,2.2
			c1.1-1.7,2.6-2.6,4.5-2.6c0.6,0,1.2,0.1,1.6,0.3L278.5,367.4z"/>
		<path class="st8" d="M289.4,383.7c-2.9,0-5.2-0.9-6.9-2.7c-1.8-1.8-2.7-4.2-2.7-7.2v-0.6c0-2,0.4-3.8,1.2-5.4
			c0.8-1.6,1.9-2.8,3.3-3.7c1.4-0.9,3-1.3,4.7-1.3c2.7,0,4.8,0.9,6.3,2.6c1.5,1.7,2.2,4.2,2.2,7.4v1.8h-13.1c0.1,1.7,0.7,3,1.7,3.9
			c1,1,2.2,1.4,3.7,1.4c2.1,0,3.7-0.8,5-2.5l2.4,2.3c-0.8,1.2-1.9,2.1-3.2,2.8C292.6,383.4,291.1,383.7,289.4,383.7z M288.9,366.5
			c-1.2,0-2.2,0.4-3,1.3c-0.8,0.9-1.2,2.1-1.5,3.6h8.6v-0.3c-0.1-1.5-0.5-2.7-1.2-3.4C291.1,366.9,290.1,366.5,288.9,366.5z"/>
		<path class="st8" d="M311.8,377.9c0-0.8-0.3-1.4-1-1.8c-0.7-0.4-1.8-0.8-3.3-1.1c-1.5-0.3-2.8-0.7-3.8-1.2
			c-2.3-1.1-3.4-2.7-3.4-4.7c0-1.7,0.7-3.2,2.2-4.3c1.5-1.2,3.3-1.7,5.6-1.7c2.4,0,4.3,0.6,5.8,1.8c1.5,1.2,2.2,2.7,2.2,4.6h-4.5
			c0-0.9-0.3-1.6-1-2.2c-0.6-0.6-1.5-0.9-2.6-0.9c-1,0-1.8,0.2-2.4,0.7c-0.6,0.5-0.9,1.1-0.9,1.8c0,0.7,0.3,1.2,0.9,1.6
			c0.6,0.4,1.8,0.8,3.5,1.2c1.8,0.4,3.2,0.9,4.2,1.4c1,0.5,1.8,1.2,2.2,1.9c0.5,0.8,0.7,1.7,0.7,2.7c0,1.8-0.7,3.3-2.2,4.4
			c-1.5,1.1-3.5,1.7-5.9,1.7c-1.6,0-3.1-0.3-4.4-0.9c-1.3-0.6-2.3-1.4-3-2.4c-0.7-1-1.1-2.2-1.1-3.4h4.4c0.1,1.1,0.5,1.9,1.2,2.5
			c0.7,0.6,1.7,0.9,3,0.9c1.2,0,2.1-0.2,2.7-0.7C311.5,379.2,311.8,378.6,311.8,377.9z"/>
		<path class="st8" d="M328.7,383.7c-2.9,0-5.2-0.9-6.9-2.7c-1.8-1.8-2.7-4.2-2.7-7.2v-0.6c0-2,0.4-3.8,1.2-5.4
			c0.8-1.6,1.9-2.8,3.3-3.7c1.4-0.9,3-1.3,4.7-1.3c2.7,0,4.8,0.9,6.3,2.6c1.5,1.7,2.2,4.2,2.2,7.4v1.8h-13.1c0.1,1.7,0.7,3,1.7,3.9
			s2.2,1.4,3.7,1.4c2.1,0,3.7-0.8,5-2.5l2.4,2.3c-0.8,1.2-1.9,2.1-3.2,2.8C331.8,383.4,330.3,383.7,328.7,383.7z M328.1,366.5
			c-1.2,0-2.2,0.4-3,1.3c-0.8,0.9-1.2,2.1-1.5,3.6h8.6v-0.3c-0.1-1.5-0.5-2.7-1.2-3.4C330.3,366.9,329.4,366.5,328.1,366.5z"/>
		<path class="st8" d="M344,363.2l0.1,2.3c1.5-1.8,3.4-2.7,5.8-2.7c4.2,0,6.3,2.4,6.4,7.2v13.3h-4.5v-13c0-1.3-0.3-2.2-0.8-2.8
			c-0.6-0.6-1.5-0.9-2.7-0.9c-1.8,0-3.2,0.8-4.1,2.5v14.3h-4.5v-20.1H344z"/>
		<path class="st8" d="M366.2,358.4v4.9h3.5v3.3h-3.5v11.2c0,0.8,0.2,1.3,0.5,1.7c0.3,0.3,0.8,0.5,1.6,0.5c0.5,0,1-0.1,1.6-0.2v3.5
			c-1,0.3-2,0.4-3,0.4c-3.5,0-5.2-1.9-5.2-5.7v-11.4h-3.3v-3.3h3.3v-4.9H366.2z"/>
		<path class="st8" d="M384.8,383.3c-0.2-0.4-0.4-1-0.5-1.9c-1.4,1.5-3.2,2.2-5.3,2.2c-2,0-3.7-0.6-4.9-1.7s-1.9-2.6-1.9-4.3
			c0-2.1,0.8-3.8,2.4-4.9c1.6-1.1,3.9-1.7,6.8-1.7h2.8v-1.3c0-1-0.3-1.9-0.9-2.5c-0.6-0.6-1.5-0.9-2.7-0.9c-1,0-1.9,0.3-2.5,0.8
			c-0.7,0.5-1,1.2-1,2h-4.5c0-1.1,0.4-2.1,1.1-3.1c0.7-1,1.7-1.7,3-2.3c1.3-0.5,2.7-0.8,4.2-0.8c2.3,0,4.2,0.6,5.6,1.8
			c1.4,1.2,2.1,2.8,2.2,5v9.1c0,1.8,0.3,3.2,0.8,4.3v0.3H384.8z M379.9,380.1c0.9,0,1.7-0.2,2.5-0.6c0.8-0.4,1.4-1,1.8-1.7v-3.8
			h-2.4c-1.7,0-2.9,0.3-3.8,0.9c-0.8,0.6-1.3,1.4-1.3,2.5c0,0.9,0.3,1.6,0.9,2.1C378.1,379.8,378.9,380.1,379.9,380.1z"/>
		<path class="st8" d="M397.3,363.2l0.1,2.1c1.4-1.6,3.3-2.5,5.8-2.5c2.7,0,4.5,1,5.5,3.1c1.5-2.1,3.5-3.1,6.2-3.1
			c2.2,0,3.9,0.6,4.9,1.8c1.1,1.2,1.6,3,1.7,5.4v13.2h-4.5v-13.1c0-1.3-0.3-2.2-0.8-2.8s-1.5-0.9-2.8-0.9c-1,0-1.9,0.3-2.5,0.8
			c-0.7,0.6-1.1,1.3-1.4,2.2l0,13.8H405v-13.2c-0.1-2.4-1.3-3.5-3.6-3.5c-1.8,0-3.1,0.7-3.8,2.2v14.5H393v-20.1H397.3z"/>
		<path class="st8" d="M424.9,373.1c0-2,0.4-3.7,1.2-5.3c0.8-1.6,1.9-2.8,3.3-3.6c1.4-0.8,3-1.3,4.9-1.3c2.7,0,4.9,0.9,6.6,2.6
			c1.7,1.7,2.6,4.1,2.7,6.9l0,1.1c0,2-0.4,3.7-1.1,5.3c-0.8,1.6-1.8,2.8-3.3,3.6c-1.4,0.9-3.1,1.3-4.9,1.3c-2.8,0-5.1-0.9-6.8-2.8
			c-1.7-1.9-2.6-4.4-2.6-7.5V373.1z M429.4,373.5c0,2.1,0.4,3.7,1.3,4.9c0.9,1.2,2,1.8,3.6,1.8s2.7-0.6,3.6-1.8s1.3-2.9,1.3-5.2
			c0-2-0.4-3.6-1.3-4.8c-0.9-1.2-2.1-1.8-3.6-1.8c-1.5,0-2.6,0.6-3.5,1.8C429.8,369.4,429.4,371.2,429.4,373.5z"/>
		<path class="st8" d="M458.2,377.9c0-0.8-0.3-1.4-1-1.8c-0.7-0.4-1.8-0.8-3.3-1.1c-1.5-0.3-2.8-0.7-3.8-1.2
			c-2.3-1.1-3.4-2.7-3.4-4.7c0-1.7,0.7-3.2,2.2-4.3c1.5-1.2,3.3-1.7,5.6-1.7c2.4,0,4.3,0.6,5.8,1.8c1.5,1.2,2.2,2.7,2.2,4.6H458
			c0-0.9-0.3-1.6-1-2.2c-0.6-0.6-1.5-0.9-2.6-0.9c-1,0-1.8,0.2-2.4,0.7c-0.6,0.5-0.9,1.1-0.9,1.8c0,0.7,0.3,1.2,0.9,1.6
			c0.6,0.4,1.8,0.8,3.5,1.2c1.8,0.4,3.2,0.9,4.2,1.4c1,0.5,1.8,1.2,2.2,1.9c0.5,0.8,0.7,1.7,0.7,2.7c0,1.8-0.8,3.3-2.2,4.4
			c-1.5,1.1-3.5,1.7-5.9,1.7c-1.6,0-3.1-0.3-4.4-0.9s-2.3-1.4-3-2.4s-1.1-2.2-1.1-3.4h4.4c0.1,1.1,0.5,1.9,1.2,2.5
			c0.7,0.6,1.7,0.9,2.9,0.9c1.2,0,2.1-0.2,2.7-0.7C457.9,379.2,458.2,378.6,458.2,377.9z"/>
	</g>
</g>
<g>
	<text transform="matrix(1 0 0 1 708.2795 581.3241)" class="st8" style="font-family:'Roboto-Medium'; font-size:38px;">Nos presentamos</text>
</g>
<g>
	<g>
		<path class="st8" d="M111.5,137.8c0.4,0.7,0.6,1.4,0.4,2.1c-0.2,0.7-0.6,1.3-1.4,1.8c-0.8,0.5-1.5,0.7-2.3,0.5
			c-0.7-0.2-1.3-0.6-1.7-1.3c-0.4-0.7-0.5-1.3-0.4-2.1c0.2-0.7,0.6-1.3,1.4-1.8c0.8-0.5,1.5-0.6,2.2-0.5S111.1,137.2,111.5,137.8z
			 M110.7,146.1l3.8-2.4l12.1,18.2l-4.6,2.9L110.7,146.1z"/>
		<path class="st8" d="M148.1,139.3l-4.5,2.9l-7.3-11.6l-11.7,7.4l7.3,11.6l-4.6,2.9l-16.5-26.3l4.6-2.9l6.9,10.9l11.7-7.4
			l-6.9-10.9l4.5-2.9L148.1,139.3z"/>
		<path class="st8" d="M145.6,127c-1.2-1.9-1.9-3.9-2.1-5.9c-0.2-2,0.1-3.9,1-5.5c0.9-1.7,2.2-3.1,3.9-4.2c2.6-1.7,5.3-2.1,8-1.5
			c2.7,0.7,5,2.4,6.9,5.1l0.7,1c1.2,1.9,1.9,3.9,2.1,5.9c0.2,2-0.1,3.8-1,5.5c-0.9,1.7-2.2,3.1-4,4.2c-2.8,1.7-5.5,2.2-8.3,1.4
			c-2.8-0.8-5.2-2.7-7.1-5.8L145.6,127z M150.2,124.6c1.3,2,2.7,3.3,4.2,3.9s3.1,0.5,4.5-0.5s2.3-2.2,2.4-3.9
			c0.1-1.7-0.5-3.6-1.9-5.8c-1.2-2-2.6-3.3-4.2-3.9c-1.6-0.6-3.1-0.5-4.5,0.4c-1.4,0.9-2.2,2.2-2.3,3.8
			C148.2,120.4,148.8,122.4,150.2,124.6z"/>
		<path class="st8" d="M178,120.6l-4.4,2.7l-17.4-27.7l4.4-2.7L178,120.6z"/>
		<path class="st8" d="M194,110.5c-0.4-0.3-1-0.8-1.6-1.5c-0.5,2.3-1.7,4.1-3.8,5.4c-2,1.2-3.9,1.7-5.8,1.3s-3.4-1.3-4.5-3
			c-1.3-2.1-1.5-4.2-0.7-6.2c0.8-2.1,2.7-4,5.6-5.8l2.7-1.7l-0.8-1.3c-0.6-1-1.4-1.6-2.4-1.9c-0.9-0.3-2,0-3.2,0.7
			c-1,0.6-1.7,1.4-2,2.3c-0.3,0.9-0.2,1.7,0.2,2.5l-4.4,2.7c-0.7-1.1-0.9-2.3-0.8-3.7c0.1-1.4,0.6-2.7,1.5-4s2.1-2.4,3.6-3.4
			c2.3-1.4,4.5-2,6.5-1.7c2.1,0.3,3.8,1.5,5.1,3.5l5.5,8.8c1.1,1.8,2.2,3,3.4,3.7l0.2,0.3L194,110.5z M187.3,110.3
			c0.9-0.5,1.5-1.3,2-2.2c0.5-0.9,0.7-1.8,0.7-2.8l-2.3-3.7l-2.4,1.5c-1.6,1-2.7,2.1-3.1,3.1c-0.5,1.1-0.4,2.1,0.3,3.2
			c0.5,0.8,1.2,1.3,2.1,1.5C185.4,111.2,186.3,110.9,187.3,110.3z"/>
		<path class="st8" d="M201.8,94.9l-3.8,2.4l-12-18.3l4.6-2.9L201.8,94.9z M201,103.2c-0.4-0.7-0.6-1.4-0.4-2.1
			c0.2-0.7,0.6-1.3,1.4-1.8c0.8-0.5,1.5-0.6,2.2-0.5c0.7,0.2,1.3,0.6,1.7,1.3c0.4,0.7,0.5,1.3,0.4,2.1c-0.2,0.7-0.6,1.3-1.4,1.8
			c-0.8,0.5-1.5,0.7-2.3,0.5C202,104.3,201.4,103.9,201,103.2z"/>
	</g>
</g>
</svg>
