<?xml version="1.0" encoding="utf-8"?>
<!-- Generator: Adobe Illustrator 25.1.0, SVG Export Plug-In . SVG Version: 6.00 Build 0)  -->
<svg version="1.1" id="Capa_1" xmlns="http://www.w3.org/2000/svg" xmlns:xlink="http://www.w3.org/1999/xlink" x="0px" y="0px"
	 viewBox="0 0 500 387" style="enable-background:new 0 0 500 387;" xml:space="preserve">
<style type="text/css">
	.st0{fill:#2CBBED;}
	.st1{clip-path:url(#SVGID_2_);}
	.st2{clip-path:url(#SVGID_4_);fill:#FFFFFF;}
	.st3{opacity:0.5;fill:#FFFFFF;enable-background:new    ;}
	.st4{fill:#FFFFFF;}
	.st5{fill:none;stroke:#5C5A61;stroke-width:8.7142;stroke-miterlimit:10;}
	.st6{fill:#5C5A61;}
	.st7{enable-background:new    ;}
</style>
<circle class="st0" cx="-303" cy="-192" r="86"/>
<rect x="-90" y="-194" class="st0" width="186" height="51"/>
<g>
	<path d="M-544,424c-2.3-0.7-3.9-1.5-5-2.4s-1.6-2.1-1.6-3.5c0-1.6,0.6-2.9,1.9-3.9c1.3-1,2.9-1.6,4.9-1.6c1.4,0,2.6,0.3,3.7,0.8
		c1.1,0.5,1.9,1.3,2.5,2.2c0.6,0.9,0.9,2,0.9,3.1h-2.7c0-1.2-0.4-2.2-1.2-2.9c-0.8-0.7-1.9-1-3.3-1c-1.3,0-2.3,0.3-3.1,0.9
		c-0.7,0.6-1.1,1.4-1.1,2.4c0,0.8,0.3,1.5,1,2.1s1.9,1.1,3.6,1.6s3,1,3.9,1.6s1.6,1.2,2.1,2s0.7,1.6,0.7,2.7c0,1.6-0.6,2.9-1.9,3.9
		c-1.3,1-3,1.5-5.1,1.5c-1.4,0-2.7-0.3-3.9-0.8s-2.1-1.3-2.8-2.2c-0.6-0.9-1-2-1-3.1h2.7c0,1.2,0.4,2.2,1.3,2.9
		c0.9,0.7,2.1,1.1,3.6,1.1c1.4,0,2.5-0.3,3.2-0.9s1.1-1.3,1.1-2.3s-0.3-1.7-1-2.3S-542.2,424.5-544,424z"/>
	<path d="M-534.2,425.3c0-1.5,0.3-2.8,0.9-4c0.6-1.2,1.4-2.1,2.4-2.7s2.2-1,3.5-1c2,0,3.7,0.7,4.9,2.1s1.9,3.3,1.9,5.6v0.2
		c0,1.5-0.3,2.8-0.8,3.9s-1.4,2.1-2.4,2.7s-2.2,1-3.6,1c-2,0-3.7-0.7-4.9-2.1c-1.3-1.4-1.9-3.3-1.9-5.6L-534.2,425.3L-534.2,425.3z
		 M-531.6,425.6c0,1.7,0.4,3,1.2,4s1.8,1.5,3.1,1.5s2.3-0.5,3.1-1.5s1.1-2.4,1.1-4.3c0-1.6-0.4-3-1.2-4s-1.8-1.5-3.1-1.5
		s-2.3,0.5-3.1,1.5S-531.6,423.7-531.6,425.6z"/>
	<path d="M-512.7,429.2l3.5-11.2h2.7l-6,17.3c-0.9,2.5-2.4,3.7-4.4,3.7h-0.5l-1-0.2v-2.1l0.7,0.1c0.9,0,1.5-0.2,2-0.5
		c0.5-0.4,0.9-1,1.2-1.9l0.6-1.5l-5.3-14.8h2.8L-512.7,429.2z"/>
	<path d="M-493.7,414.3v3.6h2.8v2h-2.8v9.3c0,0.6,0.1,1,0.4,1.3c0.2,0.3,0.7,0.4,1.3,0.4c0.3,0,0.7-0.1,1.2-0.2v2.1
		c-0.7,0.2-1.3,0.3-2,0.3c-1.1,0-2-0.3-2.6-1s-0.9-1.7-0.9-2.9v-9.3h-2.7v-2h2.7v-3.6L-493.7,414.3L-493.7,414.3z"/>
	<path d="M-478.7,431.4c-1,1.2-2.5,1.8-4.4,1.8c-1.6,0-2.8-0.5-3.6-1.4c-0.8-0.9-1.3-2.3-1.3-4.1V418h2.6v9.7c0,2.3,0.9,3.4,2.8,3.4
		c2,0,3.3-0.7,3.9-2.2V418h2.6v15h-2.4L-478.7,431.4z"/>
	<path d="M-461.9,414.3v3.6h2.8v2h-2.8v9.3c0,0.6,0.1,1,0.4,1.3c0.2,0.3,0.7,0.4,1.3,0.4c0.3,0,0.7-0.1,1.2-0.2v2.1
		c-0.7,0.2-1.3,0.3-2,0.3c-1.1,0-2-0.3-2.6-1s-0.9-1.7-0.9-2.9v-9.3h-2.7v-2h2.7v-3.6L-461.9,414.3L-461.9,414.3z"/>
	<path d="M-446.9,431.4c-1,1.2-2.5,1.8-4.4,1.8c-1.6,0-2.8-0.5-3.6-1.4c-0.8-0.9-1.3-2.3-1.3-4.1V418h2.6v9.7c0,2.3,0.9,3.4,2.8,3.4
		c2,0,3.3-0.7,3.9-2.2V418h2.6v15h-2.4L-446.9,431.4z"/>
	<path d="M-437,414.3v3.6h2.8v2h-2.8v9.3c0,0.6,0.1,1,0.4,1.3c0.2,0.3,0.7,0.4,1.3,0.4c0.3,0,0.7-0.1,1.2-0.2v2.1
		c-0.7,0.2-1.3,0.3-2,0.3c-1.1,0-2-0.3-2.6-1s-0.9-1.7-0.9-2.9v-9.3h-2.7v-2h2.7v-3.6L-437,414.3L-437,414.3z"/>
	<path d="M-432.2,425.3c0-1.5,0.3-2.8,0.9-4s1.4-2.1,2.4-2.7s2.2-1,3.5-1c2,0,3.7,0.7,4.9,2.1s1.9,3.3,1.9,5.6v0.2
		c0,1.5-0.3,2.8-0.8,3.9s-1.4,2.1-2.4,2.7s-2.2,1-3.6,1c-2,0-3.7-0.7-4.9-2.1c-1.3-1.4-1.9-3.3-1.9-5.6V425.3z M-429.6,425.6
		c0,1.7,0.4,3,1.2,4s1.8,1.5,3.1,1.5c1.3,0,2.3-0.5,3.1-1.5c0.8-1,1.1-2.4,1.1-4.3c0-1.6-0.4-3-1.2-4c-0.8-1-1.8-1.5-3.1-1.5
		c-1.3,0-2.3,0.5-3.1,1.5S-429.6,423.7-429.6,425.6z"/>
	<path d="M-408.2,420.3c-0.4-0.1-0.8-0.1-1.3-0.1c-1.7,0-2.8,0.7-3.4,2.1v10.6h-2.6v-15h2.5v1.7c0.8-1.3,2-2,3.6-2
		c0.5,0,0.9,0.1,1.1,0.2L-408.2,420.3L-408.2,420.3z"/>
	<path d="M-585.9,452.8c0,1-0.1,1.8-0.3,2.3c-0.2,0.6-0.5,1.1-0.9,1.7c-0.4,0.5-1.1,1.3-1.9,2.1s-1.3,1.8-1.4,2.7v0.5
		c0,1,0.3,1.8,0.8,2.3s1.3,0.8,2.3,0.8c0.9,0,1.7-0.3,2.2-0.8c0.6-0.5,0.9-1.2,0.9-2h2.6c0,1.5-0.5,2.7-1.6,3.6
		c-1,0.9-2.4,1.4-4.1,1.4c-1.8,0-3.2-0.5-4.2-1.4s-1.5-2.2-1.5-3.9c0-1.6,0.7-3.2,2.2-4.8l1.5-1.6c0.6-0.7,0.9-1.8,0.9-3.1h2.5
		V452.8z M-585.8,448.4c0,0.4-0.1,0.8-0.4,1.1s-0.6,0.4-1.1,0.4s-0.9-0.1-1.1-0.4c-0.3-0.3-0.4-0.6-0.4-1.1c0-0.4,0.1-0.8,0.4-1
		c0.3-0.3,0.6-0.4,1.1-0.4s0.9,0.1,1.1,0.4C-585.9,447.6-585.8,448-585.8,448.4z"/>
	<path d="M-562.8,462.2h-2.7l-10.1-15.5v15.5h-2.7V442h2.7l10.2,15.6V442h2.6V462.2z"/>
	<path d="M-552.3,462.4c-2,0-3.7-0.7-4.9-2c-1.3-1.3-1.9-3.1-1.9-5.3v-0.5c0-1.5,0.3-2.8,0.9-4c0.6-1.2,1.4-2.1,2.4-2.7
		c1-0.7,2.1-1,3.3-1c1.9,0,3.5,0.6,4.5,1.9s1.6,3.1,1.6,5.5v1.1h-10.1c0,1.5,0.5,2.7,1.3,3.6s1.9,1.4,3.1,1.4c0.9,0,1.7-0.2,2.3-0.6
		s1.2-0.9,1.6-1.5l1.6,1.2C-547.9,461.5-549.8,462.4-552.3,462.4z M-552.6,449c-1,0-1.9,0.4-2.6,1.1c-0.7,0.8-1.1,1.8-1.3,3.2h7.5
		v-0.2c-0.1-1.3-0.4-2.3-1.1-3C-550.7,449.4-551.5,449-552.6,449z"/>
	<path d="M-537.5,460.4c0.9,0,1.7-0.3,2.4-0.8c0.7-0.6,1.1-1.2,1.1-2.1h2.4c0,0.9-0.3,1.7-0.9,2.4c-0.5,0.8-1.3,1.4-2.2,1.9
		s-1.9,0.7-2.9,0.7c-2,0-3.7-0.7-4.9-2c-1.2-1.4-1.8-3.2-1.8-5.6v-0.4c0-1.5,0.3-2.8,0.8-3.9s1.3-2,2.3-2.6s2.2-0.9,3.5-0.9
		c1.7,0,3.1,0.5,4.2,1.5c1.1,1,1.7,2.3,1.8,3.9h-2.4c-0.1-1-0.4-1.8-1.1-2.4c-0.7-0.6-1.5-0.9-2.4-0.9c-1.3,0-2.3,0.5-3,1.4
		s-1.1,2.3-1.1,4.1v0.5c0,1.7,0.4,3,1.1,4S-538.8,460.4-537.5,460.4z"/>
	<path d="M-522.5,462.4c-2,0-3.7-0.7-4.9-2c-1.3-1.3-1.9-3.1-1.9-5.3v-0.5c0-1.5,0.3-2.8,0.9-4c0.6-1.2,1.4-2.1,2.4-2.7
		c1-0.7,2.1-1,3.3-1c1.9,0,3.5,0.6,4.5,1.9s1.6,3.1,1.6,5.5v1.1h-10.1c0,1.5,0.5,2.7,1.3,3.6s1.9,1.4,3.1,1.4c0.9,0,1.7-0.2,2.3-0.6
		s1.2-0.9,1.6-1.5l1.6,1.2C-518.1,461.5-520,462.4-522.5,462.4z M-522.8,449c-1,0-1.9,0.4-2.6,1.1c-0.7,0.8-1.1,1.8-1.3,3.2h7.5
		v-0.2c-0.1-1.3-0.4-2.3-1.1-3C-520.9,449.4-521.7,449-522.8,449z"/>
	<path d="M-505,458.2c0-0.7-0.3-1.2-0.8-1.6s-1.4-0.7-2.7-1c-1.3-0.3-2.3-0.6-3.1-1s-1.3-0.8-1.7-1.4c-0.4-0.5-0.5-1.2-0.5-1.9
		c0-1.2,0.5-2.3,1.6-3.1c1-0.8,2.4-1.3,4-1.3c1.7,0,3.1,0.4,4.1,1.3c1.1,0.9,1.6,2,1.6,3.4h-2.6c0-0.7-0.3-1.3-0.9-1.8
		s-1.3-0.8-2.2-0.8c-0.9,0-1.7,0.2-2.2,0.6s-0.8,0.9-0.8,1.6c0,0.6,0.2,1.1,0.7,1.4s1.4,0.6,2.6,0.9c1.3,0.3,2.3,0.6,3.1,1
		c0.8,0.4,1.4,0.9,1.8,1.4c0.4,0.6,0.6,1.2,0.6,2c0,1.3-0.5,2.4-1.6,3.2c-1.1,0.8-2.5,1.2-4.2,1.2c-1.2,0-2.3-0.2-3.2-0.6
		s-1.6-1-2.2-1.8s-0.8-1.6-0.8-2.5h2.6c0,0.9,0.4,1.5,1,2s1.5,0.8,2.5,0.8s1.7-0.2,2.3-0.6C-505.3,459.4-505,458.9-505,458.2z"/>
	<path d="M-499.1,443.2c0-0.4,0.1-0.8,0.4-1.1c0.3-0.3,0.6-0.4,1.1-0.4s0.9,0.1,1.1,0.4c0.3,0.3,0.4,0.6,0.4,1.1
		c0,0.4-0.1,0.8-0.4,1c-0.3,0.3-0.6,0.4-1.1,0.4s-0.9-0.1-1.1-0.4C-499,444-499.1,443.7-499.1,443.2z M-496.3,462.2h-2.6v-15h2.6
		V462.2z"/>
	<path d="M-488.8,443.6v3.6h2.8v2h-2.8v9.3c0,0.6,0.1,1,0.4,1.3c0.2,0.3,0.7,0.4,1.3,0.4c0.3,0,0.7-0.1,1.2-0.2v2.1
		c-0.7,0.2-1.3,0.3-2,0.3c-1.1,0-2-0.3-2.6-1s-0.9-1.7-0.9-2.9v-9.3h-2.7v-2h2.7v-3.6L-488.8,443.6L-488.8,443.6z"/>
	<path d="M-473.7,462.2c-0.1-0.3-0.3-0.8-0.4-1.6c-1.2,1.2-2.6,1.9-4.3,1.9c-1.5,0-2.7-0.4-3.6-1.3c-0.9-0.8-1.4-1.9-1.4-3.2
		c0-1.6,0.6-2.8,1.8-3.6c1.2-0.9,2.8-1.3,5-1.3h2.5v-1.2c0-0.9-0.3-1.6-0.8-2.1s-1.3-0.8-2.4-0.8c-0.9,0-1.7,0.2-2.3,0.7
		c-0.6,0.5-0.9,1-0.9,1.7h-2.6c0-0.7,0.3-1.5,0.8-2.2s1.2-1.2,2.2-1.7c0.9-0.4,1.9-0.6,3-0.6c1.7,0,3.1,0.4,4,1.3s1.5,2,1.5,3.6v6.9
		c0,1.4,0.2,2.5,0.5,3.3v0.2L-473.7,462.2L-473.7,462.2z M-478,460.2c0.8,0,1.6-0.2,2.3-0.6c0.7-0.4,1.2-1,1.6-1.6v-3.1h-2
		c-3.1,0-4.7,0.9-4.7,2.8c0,0.8,0.3,1.4,0.8,1.9C-479.5,460-478.8,460.2-478,460.2z"/>
	<path d="M-458.9,458.2c0-0.7-0.3-1.2-0.8-1.6s-1.4-0.7-2.7-1c-1.3-0.3-2.3-0.6-3.1-1c-0.8-0.4-1.3-0.8-1.7-1.4
		c-0.4-0.5-0.5-1.2-0.5-1.9c0-1.2,0.5-2.3,1.6-3.1c1-0.8,2.4-1.3,4-1.3c1.7,0,3.1,0.4,4.1,1.3c1.1,0.9,1.6,2,1.6,3.4h-2.6
		c0-0.7-0.3-1.3-0.9-1.8s-1.3-0.8-2.2-0.8c-0.9,0-1.7,0.2-2.2,0.6s-0.8,0.9-0.8,1.6c0,0.6,0.2,1.1,0.7,1.4s1.4,0.6,2.6,0.9
		c1.3,0.3,2.3,0.6,3.1,1c0.8,0.4,1.4,0.9,1.8,1.4c0.4,0.6,0.6,1.2,0.6,2c0,1.3-0.5,2.4-1.6,3.2c-1.1,0.8-2.5,1.2-4.2,1.2
		c-1.2,0-2.3-0.2-3.2-0.6s-1.6-1-2.2-1.8s-0.8-1.6-0.8-2.5h2.6c0,0.9,0.4,1.5,1,2s1.5,0.8,2.5,0.8s1.7-0.2,2.3-0.6
		C-459.2,459.4-458.9,458.9-458.9,458.2z"/>
	<path d="M-436.7,462.2c-0.1-0.3-0.3-0.8-0.4-1.6c-1.2,1.2-2.6,1.9-4.3,1.9c-1.5,0-2.7-0.4-3.6-1.3c-0.9-0.8-1.4-1.9-1.4-3.2
		c0-1.6,0.6-2.8,1.8-3.6c1.2-0.9,2.8-1.3,5-1.3h2.5v-1.2c0-0.9-0.3-1.6-0.8-2.1s-1.3-0.8-2.4-0.8c-0.9,0-1.7,0.2-2.3,0.7
		c-0.6,0.5-0.9,1-0.9,1.7h-2.6c0-0.7,0.3-1.5,0.8-2.2s1.2-1.2,2.2-1.7c0.9-0.4,1.9-0.6,3-0.6c1.7,0,3.1,0.4,4,1.3s1.5,2,1.5,3.6v6.9
		c0,1.4,0.2,2.5,0.5,3.3v0.2L-436.7,462.2L-436.7,462.2z M-441,460.2c0.8,0,1.6-0.2,2.3-0.6c0.7-0.4,1.2-1,1.6-1.6v-3.1h-2
		c-3.1,0-4.7,0.9-4.7,2.8c0,0.8,0.3,1.4,0.8,1.9C-442.5,460-441.8,460.2-441,460.2z"/>
	<path d="M-425.9,458.4l3.5-11.2h2.7l-6,17.3c-0.9,2.5-2.4,3.7-4.4,3.7h-0.5l-1-0.2v-2.1l0.7,0.1c0.9,0,1.5-0.2,2-0.5
		c0.5-0.4,0.9-1,1.2-1.9l0.6-1.5l-5.3-14.8h2.8L-425.9,458.4z"/>
	<path d="M-408.2,460.7c-1,1.2-2.5,1.8-4.4,1.8c-1.6,0-2.8-0.5-3.6-1.4c-0.8-0.9-1.3-2.3-1.3-4.1v-9.7h2.6v9.7
		c0,2.3,0.9,3.4,2.8,3.4c2,0,3.3-0.7,3.9-2.2v-10.9h2.6v15h-2.4L-408.2,460.7z"/>
	<path d="M-402.4,454.6c0-2.3,0.5-4.1,1.6-5.5s2.5-2.1,4.3-2.1s3.1,0.6,4.2,1.8V441h2.6v21.2h-2.3l-0.1-1.6c-1,1.3-2.4,1.9-4.3,1.9
		c-1.7,0-3.1-0.7-4.2-2.1s-1.6-3.3-1.6-5.6v-0.2H-402.4z M-399.9,454.9c0,1.7,0.4,3,1.1,4s1.7,1.4,2.9,1.4c1.6,0,2.8-0.7,3.6-2.2
		v-6.9c-0.8-1.4-1.9-2.1-3.5-2.1c-1.3,0-2.2,0.5-2.9,1.5C-399.5,451.5-399.9,453-399.9,454.9z"/>
	<path d="M-376.6,462.2c-0.1-0.3-0.3-0.8-0.4-1.6c-1.2,1.2-2.6,1.9-4.3,1.9c-1.5,0-2.7-0.4-3.6-1.3c-0.9-0.8-1.4-1.9-1.4-3.2
		c0-1.6,0.6-2.8,1.8-3.6c1.2-0.9,2.8-1.3,5-1.3h2.5v-1.2c0-0.9-0.3-1.6-0.8-2.1s-1.3-0.8-2.4-0.8c-0.9,0-1.7,0.2-2.3,0.7
		c-0.6,0.5-0.9,1-0.9,1.7h-2.6c0-0.7,0.3-1.5,0.8-2.2s1.2-1.2,2.2-1.7c0.9-0.4,1.9-0.6,3-0.6c1.7,0,3.1,0.4,4,1.3s1.5,2,1.5,3.6v6.9
		c0,1.4,0.2,2.5,0.5,3.3v0.2L-376.6,462.2L-376.6,462.2z M-380.8,460.2c0.8,0,1.6-0.2,2.3-0.6c0.7-0.4,1.2-1,1.6-1.6v-3.1h-2
		c-3.1,0-4.7,0.9-4.7,2.8c0,0.8,0.3,1.4,0.8,1.9C-382.4,460-381.7,460.2-380.8,460.2z"/>
	<path d="M-367.4,456.5c0-1.1,0.1-2,0.4-2.6c0.2-0.6,0.7-1.3,1.4-2.1l1.8-1.9c0.8-0.9,1.2-1.8,1.2-2.8s-0.3-1.7-0.8-2.3
		c-0.5-0.5-1.2-0.8-2.2-0.8c-0.9,0-1.7,0.2-2.3,0.7s-0.9,1.2-0.9,2h-2.6c0-1.5,0.6-2.7,1.6-3.6s2.4-1.4,4.1-1.4s3.1,0.5,4.1,1.4
		s1.5,2.2,1.5,3.8c0,1.6-0.7,3.2-2.2,4.8l-1.5,1.5c-0.7,0.7-1,1.8-1,3.2L-367.4,456.5L-367.4,456.5z M-367.5,460.9
		c0-0.4,0.1-0.8,0.4-1.1s0.6-0.4,1.1-0.4s0.9,0.1,1.1,0.4s0.4,0.6,0.4,1.1s-0.1,0.8-0.4,1c-0.3,0.3-0.6,0.4-1.1,0.4
		s-0.9-0.1-1.1-0.4C-367.4,461.6-367.5,461.3-367.5,460.9z"/>
	<path d="M-547.1,491.4h-2.7v-9.3h-10.1v9.3h-2.7v-20.1h2.7v8.7h10.1v-8.7h2.7V491.4z"/>
	<path d="M-533.6,491.4c-0.1-0.3-0.3-0.8-0.4-1.6c-1.2,1.2-2.6,1.9-4.3,1.9c-1.5,0-2.7-0.4-3.6-1.3c-0.9-0.8-1.4-1.9-1.4-3.2
		c0-1.6,0.6-2.8,1.8-3.6c1.2-0.9,2.8-1.3,5-1.3h2.5v-1.2c0-0.9-0.3-1.6-0.8-2.1s-1.3-0.8-2.4-0.8c-0.9,0-1.7,0.2-2.3,0.7
		s-0.9,1-0.9,1.7h-2.6c0-0.7,0.3-1.5,0.8-2.2s1.2-1.2,2.2-1.7c0.9-0.4,1.9-0.6,3-0.6c1.7,0,3.1,0.4,4,1.3s1.5,2,1.5,3.6v6.9
		c0,1.4,0.2,2.5,0.5,3.3v0.2L-533.6,491.4L-533.6,491.4z M-537.8,489.5c0.8,0,1.6-0.2,2.3-0.6s1.2-1,1.6-1.6v-3.1h-2
		c-3.1,0-4.7,0.9-4.7,2.8c0,0.8,0.3,1.4,0.8,1.9C-539.3,489.2-538.7,489.5-537.8,489.5z"/>
	<path d="M-521.4,489.6c0.9,0,1.7-0.3,2.4-0.8c0.7-0.6,1.1-1.2,1.1-2.1h2.4c0,0.9-0.3,1.7-0.9,2.4c-0.5,0.8-1.3,1.4-2.2,1.9
		s-1.9,0.7-2.9,0.7c-2,0-3.7-0.7-4.9-2c-1.2-1.4-1.8-3.2-1.8-5.6v-0.4c0-1.5,0.3-2.8,0.8-3.9s1.3-2,2.3-2.6s2.2-0.9,3.5-0.9
		c1.7,0,3.1,0.5,4.2,1.5c1.1,1,1.7,2.3,1.8,3.9h-2.4c-0.1-1-0.4-1.8-1.1-2.4c-0.7-0.6-1.5-0.9-2.4-0.9c-1.3,0-2.3,0.5-3,1.4
		s-1.1,2.3-1.1,4.1v0.5c0,1.7,0.4,3,1.1,4S-522.7,489.6-521.4,489.6z"/>
	<path d="M-506.4,491.7c-2,0-3.7-0.7-4.9-2c-1.3-1.3-1.9-3.1-1.9-5.3v-0.5c0-1.5,0.3-2.8,0.9-4c0.6-1.2,1.4-2.1,2.4-2.7
		c1-0.7,2.1-1,3.3-1c1.9,0,3.5,0.6,4.5,1.9s1.6,3.1,1.6,5.5v1.1h-10.1c0,1.5,0.5,2.7,1.3,3.6s1.9,1.4,3.1,1.4c0.9,0,1.7-0.2,2.3-0.6
		c0.6-0.4,1.2-0.9,1.6-1.5l1.6,1.2C-502,490.7-503.9,491.7-506.4,491.7z M-506.7,478.3c-1,0-1.9,0.4-2.6,1.1
		c-0.7,0.8-1.1,1.8-1.3,3.2h7.5v-0.2c-0.1-1.3-0.4-2.3-1.1-3C-504.8,478.6-505.6,478.3-506.7,478.3z M-505.5,470.2h3.1l-3.7,4.1
		h-2.1L-505.5,470.2z"/>
	<path d="M-484.6,489.6c0.9,0,1.7-0.3,2.4-0.8c0.7-0.6,1.1-1.2,1.1-2.1h2.4c0,0.9-0.3,1.7-0.9,2.4c-0.5,0.8-1.3,1.4-2.2,1.9
		c-0.9,0.5-1.9,0.7-2.9,0.7c-2,0-3.7-0.7-4.9-2c-1.2-1.4-1.8-3.2-1.8-5.6v-0.4c0-1.5,0.3-2.8,0.8-3.9s1.3-2,2.3-2.6s2.2-0.9,3.5-0.9
		c1.7,0,3.1,0.5,4.2,1.5s1.7,2.3,1.8,3.9h-2.4c-0.1-1-0.4-1.8-1.1-2.4s-1.5-0.9-2.4-0.9c-1.3,0-2.3,0.5-3,1.4s-1.1,2.3-1.1,4.1v0.5
		c0,1.7,0.4,3,1.1,4S-485.9,489.6-484.6,489.6z"/>
	<path d="M-473,491.4h-2.6v-21.2h2.6V491.4z"/>
	<path d="M-468.9,472.5c0-0.4,0.1-0.8,0.4-1.1c0.3-0.3,0.6-0.4,1.1-0.4s0.9,0.1,1.1,0.4c0.3,0.3,0.4,0.6,0.4,1.1
		c0,0.4-0.1,0.8-0.4,1c-0.3,0.3-0.6,0.4-1.1,0.4s-0.9-0.1-1.1-0.4C-468.8,473.3-468.9,472.9-468.9,472.5z M-466.1,491.4h-2.6v-15
		h2.6V491.4z"/>
	<path d="M-456,489.6c0.9,0,1.7-0.3,2.4-0.8c0.7-0.6,1.1-1.2,1.1-2.1h2.4c0,0.9-0.3,1.7-0.9,2.4c-0.5,0.8-1.3,1.4-2.2,1.9
		c-0.9,0.5-1.9,0.7-2.9,0.7c-2,0-3.7-0.7-4.9-2c-1.2-1.4-1.8-3.2-1.8-5.6v-0.4c0-1.5,0.3-2.8,0.8-3.9s1.3-2,2.3-2.6s2.2-0.9,3.5-0.9
		c1.7,0,3.1,0.5,4.2,1.5s1.7,2.3,1.8,3.9h-2.4c-0.1-1-0.4-1.8-1.1-2.4s-1.5-0.9-2.4-0.9c-1.3,0-2.3,0.5-3,1.4s-1.1,2.3-1.1,4.1v0.5
		c0,1.7,0.4,3,1.1,4S-457.4,489.6-456,489.6z"/>
	<path d="M-431,491.4c-0.1-0.3-0.3-0.8-0.4-1.6c-1.2,1.2-2.6,1.9-4.3,1.9c-1.5,0-2.7-0.4-3.6-1.3c-0.9-0.8-1.4-1.9-1.4-3.2
		c0-1.6,0.6-2.8,1.8-3.6c1.2-0.9,2.8-1.3,5-1.3h2.5v-1.2c0-0.9-0.3-1.6-0.8-2.1s-1.3-0.8-2.4-0.8c-0.9,0-1.7,0.2-2.3,0.7
		c-0.6,0.5-0.9,1-0.9,1.7h-2.6c0-0.7,0.3-1.5,0.8-2.2s1.2-1.2,2.2-1.7c0.9-0.4,1.9-0.6,3-0.6c1.7,0,3.1,0.4,4,1.3s1.5,2,1.5,3.6v6.9
		c0,1.4,0.2,2.5,0.5,3.3v0.2L-431,491.4L-431,491.4z M-435.2,489.5c0.8,0,1.6-0.2,2.3-0.6c0.7-0.4,1.2-1,1.6-1.6v-3.1h-2
		c-3.1,0-4.7,0.9-4.7,2.8c0,0.8,0.3,1.4,0.8,1.9C-436.8,489.2-436.1,489.5-435.2,489.5z"/>
	<path d="M-425.4,483.8c0-2.3,0.5-4.2,1.6-5.6s2.5-2.1,4.3-2.1s3.2,0.6,4.2,1.8l0.1-1.5h2.3v20.7h-2.6V490c-1,1.1-2.4,1.7-4.1,1.7
		c-1.8,0-3.2-0.7-4.3-2.1c-1.1-1.4-1.6-3.3-1.6-5.6v-0.2H-425.4z M-422.9,484.1c0,1.7,0.4,3.1,1.1,4c0.7,1,1.7,1.5,2.9,1.5
		c1.5,0,2.7-0.7,3.5-2v-7.3c-0.8-1.3-2-2-3.5-2c-1.2,0-2.2,0.5-2.9,1.5C-422.5,480.7-422.9,482.2-422.9,484.1z"/>
	<path d="M-399.5,489.9c-1,1.2-2.5,1.8-4.4,1.8c-1.6,0-2.8-0.5-3.6-1.4c-0.8-0.9-1.3-2.3-1.3-4.1v-9.7h2.6v9.7
		c0,2.3,0.9,3.4,2.8,3.4c2,0,3.3-0.7,3.9-2.2v-10.9h2.6v15h-2.4L-399.5,489.9z"/>
	<path d="M-390.3,470.2h3.1l-3.7,4.1h-2.1L-390.3,470.2z M-390.4,491.4h-2.6v-15h2.6V491.4z"/>
</g>
<g>
	<path class="st0" d="M426,363.3H73c-27.6,0-50-22.4-50-50V153c0-27.6,22.4-50,50-50h353c27.6,0,50,22.4,50,50v160.3
		C476,340.9,453.6,363.3,426,363.3z"/>
	<circle class="st0" cx="242.2" cy="103.9" r="79.9"/>
	<g>
		<g>
			<g>
				<defs>
					<path id="SVGID_1_" d="M242.2,30.2c-40.6,0-73.6,32.9-73.6,73.6c0,40.6,32.9,73.6,73.6,73.6c40.6,0,73.6-32.9,73.6-73.6
						C315.7,63.1,282.8,30.2,242.2,30.2z"/>
				</defs>
				<clipPath id="SVGID_2_">
					<use xlink:href="#SVGID_1_"  style="overflow:visible;"/>
				</clipPath>
				<g class="st1">
					<g>
						<g>
							<defs>
								<polygon id="SVGID_3_" points="132,37.8 308.3,185.8 218.1,185.8 132,113.3 								"/>
							</defs>
							<clipPath id="SVGID_4_">
								<use xlink:href="#SVGID_3_"  style="overflow:visible;"/>
							</clipPath>
							<path class="st2" d="M242.2,30.2c-40.6,0-73.6,32.9-73.6,73.6c0,40.6,32.9,73.6,73.6,73.6c40.6,0,73.6-32.9,73.6-73.6
								C315.7,63.1,282.8,30.2,242.2,30.2z M242.2,167.9c-35.4,0-64.1-28.7-64.1-64.1s28.7-64.1,64.1-64.1s64.1,28.7,64.1,64.1
								C306.3,139.2,277.6,167.9,242.2,167.9z"/>
						</g>
					</g>
					<path class="st3" d="M242.2,30.2c-40.6,0-73.6,32.9-73.6,73.6c0,40.6,32.9,73.6,73.6,73.6c40.6,0,73.6-32.9,73.6-73.6
						C315.7,63.1,282.8,30.2,242.2,30.2z"/>
					<path class="st4" d="M242.2,47.4c-31.1,0-56.4,25.2-56.4,56.4c0,31.1,25.2,56.4,56.4,56.4c31.1,0,56.4-25.2,56.4-56.4
						C298.5,72.6,273.3,47.4,242.2,47.4z"/>
				</g>
			</g>
		</g>
		<g>
			<path class="st5" d="M242.2,66c-20.8,0-37.7,16.9-37.7,37.8c0,20.8,16.9,37.8,37.7,37.8c20.9,0,37.8-16.9,37.8-37.8
				C279.9,82.9,263,66,242.2,66z"/>
			<path class="st5" d="M242.2,84.4c-10.7,0-19.4,8.7-19.4,19.4s8.7,19.4,19.4,19.4s19.4-8.7,19.4-19.4
				C261.5,93.1,252.9,84.4,242.2,84.4z"/>
		</g>
		<path class="st4" d="M242.2,47.4c-31.1,0-56.4,25.2-56.4,56.4c0,31.1,25.2,56.4,56.4,56.4c31.1,0,56.4-25.2,56.4-56.4
			C298.5,72.6,273.3,47.4,242.2,47.4z"/>
		<g>
			<path class="st6" d="M228.3,104.7c3.8,3.8,8.8,6.2,14.2,6.2c4.8,0,9.3-1.8,12.9-4.9l12.5,2.6c2.1-52.8-25.4-49.3-25.4-49.3
				c-29.6-0.9-24.8,49.6-24.8,49.6L228.3,104.7z M247.1,77.8c2.3,5.8,9.9,6.9,13.4,7.1l-3.5,16.2c-3.6,4.6-8.8,7.5-14.6,7.5
				c-6.2,0-11.8-3.4-15.5-8.8l-2.6-16C237.4,87,247.1,77.8,247.1,77.8z"/>
			<path class="st6" d="M283,133.3c0.3-2.3,0.1-6-2.6-9.9c-5.1-10.1-16.4-13.9-25.2-15.4l-2.2,2.9c-9.5,4-16.8,2-20.3,0.5l-2.6-3.3
				c-8.5,1.4-19.1,5.1-24.4,14.3c-4,5-3.7,9.6-3.3,12c0,0.5,0,1,0,1.5h0.5h79.5h0.7C283.1,134.9,283.1,134.1,283,133.3z
				 M242.7,124.2l-8.1-10.5c1.9,0.6,4.4,1.1,7.3,1.1c2.7,0,5.8-0.4,9.2-1.6L242.7,124.2z"/>
		</g>
	</g>
</g>
<text transform="matrix(1 0 0 1 -382.3945 560.3828)" class="st4" style="font-family:'Roboto-Bold'; font-size:45px;">Soy tu profesor tutor</text>
<text transform="matrix(1 0 0 1 -371.1945 609.7828)" class="st4" style="font-family:'Roboto-Regular'; font-size:47.8183px;">¿Necesitas ayuda?</text>
<text transform="matrix(1 0 0 1 -321.8945 659.1828)" class="st4" style="font-family:'Roboto-Regular'; font-size:47.8183px;">Hacé clic aquí</text>
<text transform="matrix(1 0 0 1 240.6001 576.3829)" class="st4" style="font-family:'Roboto-Bold'; font-size:45px;">Soy tu profesora tutora</text>
<text transform="matrix(1 0 0 1 270.1001 625.7829)" class="st4" style="font-family:'Roboto-Regular'; font-size:47.8183px;">¿Necesitas ayuda?</text>
<text transform="matrix(1 0 0 1 319.4001 675.1829)" class="st4" style="font-family:'Roboto-Regular'; font-size:47.8183px;">Hacé clic aquí</text>
<g class="st7">
	<path class="st4" d="M61.8,227.6c0-1.1-0.4-1.9-1.2-2.5s-2.2-1.2-4.2-1.9c-2-0.7-3.6-1.3-4.8-1.9c-3.2-1.7-4.8-4.1-4.8-7
		c0-1.5,0.4-2.9,1.3-4.1c0.9-1.2,2.1-2.1,3.7-2.8c1.6-0.7,3.4-1,5.4-1c2,0,3.8,0.4,5.4,1.1c1.6,0.7,2.8,1.8,3.7,3.1s1.3,2.9,1.3,4.5
		h-5.8c0-1.3-0.4-2.3-1.2-3c-0.8-0.7-2-1.1-3.4-1.1c-1.4,0-2.5,0.3-3.3,0.9s-1.2,1.4-1.2,2.4c0,0.9,0.5,1.7,1.4,2.3
		c0.9,0.6,2.3,1.2,4.1,1.8c3.3,1,5.7,2.2,7.3,3.7c1.5,1.5,2.3,3.3,2.3,5.5c0,2.4-0.9,4.4-2.8,5.8c-1.9,1.4-4.3,2.1-7.5,2.1
		c-2.2,0-4.2-0.4-5.9-1.2s-3.2-1.9-4.1-3.3c-0.9-1.4-1.4-3-1.4-4.8h5.9c0,3.1,1.9,4.7,5.6,4.7c1.4,0,2.5-0.3,3.2-0.8
		C61.4,229.4,61.8,228.6,61.8,227.6z"/>
	<path class="st4" d="M70.4,224.3c0-2.1,0.4-3.9,1.2-5.6c0.8-1.6,2-2.9,3.5-3.8c1.5-0.9,3.3-1.3,5.3-1.3c2.8,0,5.2,0.9,6.9,2.6
		c1.8,1.7,2.8,4.1,3,7.1l0,1.4c0,3.2-0.9,5.8-2.7,7.8c-1.8,2-4.2,2.9-7.2,2.9c-3,0-5.5-1-7.3-2.9c-1.8-1.9-2.7-4.6-2.7-7.9V224.3z
		 M76,224.7c0,2,0.4,3.5,1.1,4.6c0.8,1.1,1.8,1.6,3.2,1.6c1.4,0,2.4-0.5,3.2-1.6s1.1-2.7,1.1-5c0-2-0.4-3.5-1.1-4.6
		s-1.8-1.6-3.2-1.6c-1.4,0-2.4,0.5-3.2,1.6C76.3,220.8,76,222.5,76,224.7z"/>
	<path class="st4" d="M101.3,227.1l3.9-13.1h6l-8.5,24.3l-0.5,1.1c-1.3,2.7-3.3,4.1-6.2,4.1c-0.8,0-1.6-0.1-2.5-0.4v-4.3l0.9,0
		c1.1,0,1.9-0.2,2.4-0.5c0.5-0.3,0.9-0.9,1.2-1.6l0.7-1.7L91.3,214h6L101.3,227.1z"/>
	<path class="st4" d="M130.1,208.9v5.2h3.6v4.1h-3.6v10.5c0,0.8,0.1,1.3,0.4,1.7c0.3,0.3,0.9,0.5,1.7,0.5c0.6,0,1.2,0,1.7-0.1v4.3
		c-1.1,0.3-2.2,0.5-3.4,0.5c-3.9,0-5.9-2-6-6v-11.3h-3.1V214h3.1v-5.2H130.1z"/>
	<path class="st4" d="M149.4,232.9c-1.4,1.7-3.3,2.5-5.8,2.5c-2.3,0-4-0.6-5.2-1.9c-1.2-1.3-1.8-3.2-1.8-5.7V214h5.6v13.6
		c0,2.2,1,3.3,3,3.3c1.9,0,3.2-0.7,3.9-2V214h5.6v21h-5.3L149.4,232.9z"/>
	<path class="st4" d="M187.9,224.7c0,3.2-0.7,5.8-2.2,7.8c-1.5,2-3.5,2.9-6,2.9c-2.1,0-3.8-0.7-5.2-2.2v9.9H169V214h5.2l0.2,2.1
		c1.4-1.6,3.1-2.4,5.3-2.4c2.6,0,4.6,1,6,2.9c1.4,1.9,2.2,4.6,2.2,7.9V224.7z M182.3,224.3c0-2-0.3-3.5-1-4.5
		c-0.7-1.1-1.7-1.6-3-1.6c-1.8,0-3,0.7-3.6,2v8.6c0.7,1.4,1.9,2.1,3.7,2.1C180.9,230.9,182.3,228.7,182.3,224.3z"/>
	<path class="st4" d="M203.2,219.3c-0.8-0.1-1.4-0.2-2-0.2c-2.1,0-3.5,0.7-4.2,2.2v13.8h-5.6v-21h5.3l0.2,2.5
		c1.1-1.9,2.7-2.9,4.7-2.9c0.6,0,1.2,0.1,1.7,0.3L203.2,219.3z"/>
	<path class="st4" d="M204.3,224.3c0-2.1,0.4-3.9,1.2-5.6c0.8-1.6,2-2.9,3.5-3.8c1.5-0.9,3.3-1.3,5.3-1.3c2.8,0,5.2,0.9,6.9,2.6
		c1.8,1.7,2.8,4.1,3,7.1l0,1.4c0,3.2-0.9,5.8-2.7,7.8c-1.8,2-4.2,2.9-7.2,2.9c-3,0-5.5-1-7.3-2.9c-1.8-1.9-2.7-4.6-2.7-7.9V224.3z
		 M209.9,224.7c0,2,0.4,3.5,1.1,4.6c0.8,1.1,1.8,1.6,3.2,1.6c1.4,0,2.4-0.5,3.2-1.6s1.1-2.7,1.1-5c0-2-0.4-3.5-1.1-4.6
		s-1.8-1.6-3.2-1.6c-1.4,0-2.4,0.5-3.2,1.6C210.3,220.8,209.9,222.5,209.9,224.7z"/>
	<path class="st4" d="M229.2,235.1v-16.9h-3.1V214h3.1v-1.8c0-2.4,0.7-4.2,2-5.5c1.4-1.3,3.2-2,5.7-2c0.8,0,1.7,0.1,2.9,0.4
		l-0.1,4.4c-0.5-0.1-1-0.2-1.7-0.2c-2.1,0-3.2,1-3.2,3v1.7h4.2v4.1h-4.2v16.9H229.2z"/>
	<path class="st4" d="M251.2,235.4c-3.1,0-5.6-0.9-7.5-2.8c-1.9-1.9-2.9-4.4-2.9-7.6v-0.5c0-2.1,0.4-4,1.2-5.7
		c0.8-1.7,2-2.9,3.5-3.8s3.2-1.4,5.1-1.4c2.9,0,5.1,0.9,6.8,2.7c1.7,1.8,2.5,4.4,2.5,7.7v2.3h-13.4c0.2,1.4,0.7,2.5,1.6,3.3
		c0.9,0.8,2.1,1.2,3.5,1.2c2.2,0,3.9-0.8,5.1-2.4l2.8,3.1c-0.8,1.2-2,2.1-3.4,2.8C254.5,235.1,252.9,235.4,251.2,235.4z
		 M250.5,218.2c-1.1,0-2,0.4-2.7,1.1c-0.7,0.8-1.1,1.8-1.3,3.2h7.8v-0.4c0-1.3-0.4-2.2-1-2.9C252.7,218.5,251.7,218.2,250.5,218.2z"
		/>
	<path class="st4" d="M274.4,229.2c0-0.7-0.3-1.2-1-1.6c-0.7-0.4-1.8-0.7-3.3-1.1c-5-1-7.5-3.2-7.5-6.4c0-1.9,0.8-3.4,2.3-4.7
		c1.5-1.3,3.6-1.9,6.1-1.9c2.7,0,4.8,0.6,6.4,1.9s2.4,2.9,2.4,4.9h-5.6c0-0.8-0.3-1.5-0.8-2c-0.5-0.5-1.3-0.8-2.4-0.8
		c-0.9,0-1.7,0.2-2.2,0.6s-0.8,1-0.8,1.6c0,0.6,0.3,1.1,0.9,1.5c0.6,0.4,1.6,0.7,3,1c1.4,0.3,2.6,0.6,3.5,0.9c3,1.1,4.5,3,4.5,5.7
		c0,1.9-0.8,3.5-2.5,4.7s-3.8,1.8-6.4,1.8c-1.8,0-3.3-0.3-4.7-0.9c-1.4-0.6-2.4-1.5-3.2-2.6s-1.2-2.3-1.2-3.5h5.3
		c0.1,1,0.4,1.8,1.1,2.3s1.6,0.8,2.8,0.8c1.1,0,1.9-0.2,2.4-0.6S274.4,229.9,274.4,229.2z"/>
	<path class="st4" d="M282.6,224.3c0-2.1,0.4-3.9,1.2-5.6c0.8-1.6,2-2.9,3.5-3.8c1.5-0.9,3.3-1.3,5.3-1.3c2.8,0,5.2,0.9,6.9,2.6
		s2.8,4.1,3,7.1l0,1.4c0,3.2-0.9,5.8-2.7,7.8s-4.2,2.9-7.2,2.9c-3,0-5.5-1-7.3-2.9c-1.8-1.9-2.7-4.6-2.7-7.9V224.3z M288.2,224.7
		c0,2,0.4,3.5,1.1,4.6c0.8,1.1,1.8,1.6,3.2,1.6c1.4,0,2.4-0.5,3.2-1.6c0.8-1,1.1-2.7,1.1-5c0-2-0.4-3.5-1.1-4.6
		c-0.8-1.1-1.8-1.6-3.2-1.6c-1.4,0-2.4,0.5-3.2,1.6C288.6,220.8,288.2,222.5,288.2,224.7z"/>
	<path class="st4" d="M317.8,219.3c-0.8-0.1-1.4-0.2-2-0.2c-2.1,0-3.5,0.7-4.2,2.2v13.8H306v-21h5.3l0.2,2.5
		c1.1-1.9,2.7-2.9,4.7-2.9c0.6,0,1.2,0.1,1.8,0.3L317.8,219.3z"/>
	<path class="st4" d="M332.1,235.1c-0.3-0.5-0.4-1.1-0.6-1.9c-1.4,1.5-3.1,2.3-5.3,2.3c-2.1,0-3.8-0.6-5.1-1.8c-1.4-1.2-2-2.7-2-4.5
		c0-2.2,0.8-3.9,2.5-5.1c1.7-1.2,4-1.8,7.2-1.8h2.6V221c0-1-0.3-1.7-0.7-2.3c-0.5-0.6-1.3-0.9-2.4-0.9c-0.9,0-1.7,0.2-2.2,0.7
		c-0.5,0.5-0.8,1.1-0.8,1.9h-5.6c0-1.2,0.4-2.3,1.1-3.4c0.8-1,1.8-1.8,3.2-2.4c1.4-0.6,2.9-0.9,4.6-0.9c2.6,0,4.6,0.7,6.2,2
		c1.5,1.3,2.3,3.1,2.3,5.5v9.1c0,2,0.3,3.5,0.8,4.5v0.3H332.1z M327.5,231.1c0.8,0,1.6-0.2,2.3-0.6c0.7-0.4,1.2-0.9,1.6-1.5v-3.6
		h-2.1c-2.8,0-4.3,1-4.5,2.9l0,0.3c0,0.7,0.2,1.3,0.7,1.7C325.9,230.9,326.6,231.1,327.5,231.1z"/>
	<path class="st4" d="M357.9,208.9v5.2h3.6v4.1h-3.6v10.5c0,0.8,0.1,1.3,0.4,1.7s0.9,0.5,1.7,0.5c0.6,0,1.2,0,1.7-0.1v4.3
		c-1.1,0.3-2.2,0.5-3.4,0.5c-3.9,0-5.9-2-6-6v-11.3h-3.1V214h3.1v-5.2H357.9z"/>
	<path class="st4" d="M377.2,232.9c-1.4,1.7-3.3,2.5-5.8,2.5c-2.3,0-4-0.6-5.2-1.9s-1.8-3.2-1.8-5.7V214h5.6v13.6c0,2.2,1,3.3,3,3.3
		c1.9,0,3.2-0.7,3.9-2V214h5.6v21h-5.3L377.2,232.9z"/>
	<path class="st4" d="M393.6,208.9v5.2h3.6v4.1h-3.6v10.5c0,0.8,0.1,1.3,0.4,1.7s0.9,0.5,1.7,0.5c0.6,0,1.2,0,1.7-0.1v4.3
		c-1.1,0.3-2.2,0.5-3.4,0.5c-3.9,0-5.9-2-6-6v-11.3h-3.1V214h3.1v-5.2H393.6z"/>
	<path class="st4" d="M398.9,224.3c0-2.1,0.4-3.9,1.2-5.6c0.8-1.6,2-2.9,3.5-3.8c1.5-0.9,3.3-1.3,5.3-1.3c2.8,0,5.2,0.9,6.9,2.6
		s2.8,4.1,3,7.1l0,1.4c0,3.2-0.9,5.8-2.7,7.8s-4.2,2.9-7.2,2.9c-3,0-5.5-1-7.3-2.9c-1.8-1.9-2.7-4.6-2.7-7.9V224.3z M404.5,224.7
		c0,2,0.4,3.5,1.1,4.6c0.8,1.1,1.8,1.6,3.2,1.6c1.4,0,2.4-0.5,3.2-1.6c0.8-1,1.1-2.7,1.1-5c0-2-0.4-3.5-1.1-4.6
		c-0.8-1.1-1.8-1.6-3.2-1.6c-1.4,0-2.4,0.5-3.2,1.6C404.9,220.8,404.5,222.5,404.5,224.7z"/>
	<path class="st4" d="M434.1,219.3c-0.8-0.1-1.4-0.2-2-0.2c-2.1,0-3.5,0.7-4.2,2.2v13.8h-5.6v-21h5.3l0.2,2.5
		c1.1-1.9,2.7-2.9,4.7-2.9c0.6,0,1.2,0.1,1.8,0.3L434.1,219.3z"/>
	<path class="st4" d="M448.4,235.1c-0.3-0.5-0.4-1.1-0.6-1.9c-1.4,1.5-3.1,2.3-5.3,2.3c-2.1,0-3.8-0.6-5.1-1.8c-1.4-1.2-2-2.7-2-4.5
		c0-2.2,0.8-3.9,2.5-5.1c1.7-1.2,4-1.8,7.2-1.8h2.6V221c0-1-0.3-1.7-0.7-2.3c-0.5-0.6-1.3-0.9-2.4-0.9c-0.9,0-1.7,0.2-2.2,0.7
		c-0.5,0.5-0.8,1.1-0.8,1.9h-5.6c0-1.2,0.4-2.3,1.1-3.4c0.8-1,1.8-1.8,3.2-2.4c1.4-0.6,2.9-0.9,4.6-0.9c2.6,0,4.6,0.7,6.2,2
		c1.5,1.3,2.3,3.1,2.3,5.5v9.1c0,2,0.3,3.5,0.8,4.5v0.3H448.4z M443.8,231.1c0.8,0,1.6-0.2,2.3-0.6c0.7-0.4,1.2-0.9,1.6-1.5v-3.6
		h-2.1c-2.8,0-4.3,1-4.5,2.9l0,0.3c0,0.7,0.2,1.3,0.7,1.7C442.2,230.9,442.9,231.1,443.8,231.1z"/>
</g>
<g class="st7">
	<path class="st4" d="M82.8,264.7c0,1.5-0.2,2.6-0.4,3.5c-0.3,0.9-0.8,1.7-1.4,2.5c-0.7,0.8-1.6,1.9-2.9,3.2c-1.3,1.3-2,2.7-2.1,4
		l0,0.8c0,1.5,0.4,2.6,1.2,3.4c0.8,0.8,1.9,1.2,3.4,1.2c1.4,0,2.5-0.4,3.4-1.2c0.9-0.8,1.3-1.8,1.3-3H89c0,2.2-0.8,4-2.4,5.4
		c-1.5,1.4-3.6,2.1-6.1,2.1c-2.7,0-4.8-0.7-6.3-2.1c-1.5-1.4-2.2-3.3-2.2-5.8c0-2.4,1.1-4.8,3.3-7.2l2.3-2.3
		c0.9-1.1,1.4-2.6,1.4-4.6H82.8z M83,258.2c0,0.6-0.2,1.1-0.6,1.6c-0.4,0.4-0.9,0.6-1.7,0.6s-1.3-0.2-1.7-0.6
		c-0.4-0.4-0.6-1-0.6-1.6c0-0.6,0.2-1.1,0.6-1.5c0.4-0.4,0.9-0.6,1.7-0.6s1.3,0.2,1.7,0.6C82.8,257,83,257.6,83,258.2z"/>
	<path class="st4" d="M117.3,278.7h-4l-15.1-23.2v23.2h-4v-30.1h4l15.2,23.3v-23.3h3.9V278.7z"/>
	<path class="st4" d="M133,279.2c-3,0-5.5-1-7.4-3c-1.9-2-2.9-4.7-2.9-8v-0.7c0-2.2,0.4-4.2,1.3-5.9c0.8-1.7,2-3.1,3.6-4.1
		s3.2-1.5,4.9-1.5c2.9,0,5.2,1,6.8,2.9c1.6,1.9,2.4,4.7,2.4,8.2v1.6h-15.1c0.1,2.2,0.7,4,1.9,5.3c1.2,1.4,2.8,2,4.7,2
		c1.3,0,2.5-0.3,3.4-0.8c0.9-0.6,1.8-1.3,2.5-2.2l2.3,1.8C139.6,277.7,136.8,279.2,133,279.2z M132.6,259.1c-1.5,0-2.8,0.6-3.9,1.7
		c-1,1.1-1.7,2.7-1.9,4.7h11.2v-0.3c-0.1-1.9-0.6-3.4-1.6-4.5C135.4,259.7,134.1,259.1,132.6,259.1z"/>
	<path class="st4" d="M155.1,276c1.4,0,2.6-0.4,3.6-1.2c1-0.8,1.6-1.9,1.7-3.1h3.6c-0.1,1.3-0.5,2.5-1.3,3.7
		c-0.8,1.2-1.9,2.1-3.3,2.8c-1.4,0.7-2.8,1-4.3,1c-3,0-5.5-1-7.3-3c-1.8-2-2.7-4.8-2.7-8.3v-0.6c0-2.2,0.4-4.1,1.2-5.8
		c0.8-1.7,1.9-3,3.4-3.9s3.3-1.4,5.3-1.4c2.5,0,4.6,0.8,6.2,2.3s2.5,3.4,2.7,5.8h-3.6c-0.1-1.4-0.7-2.6-1.6-3.6s-2.2-1.4-3.6-1.4
		c-1.9,0-3.4,0.7-4.5,2.1c-1.1,1.4-1.6,3.4-1.6,6.1v0.7c0,2.6,0.5,4.6,1.6,5.9C151.6,275.3,153.2,276,155.1,276z"/>
	<path class="st4" d="M177.6,279.2c-3,0-5.5-1-7.4-3c-1.9-2-2.9-4.7-2.9-8v-0.7c0-2.2,0.4-4.2,1.3-5.9c0.8-1.7,2-3.1,3.6-4.1
		s3.2-1.5,4.9-1.5c2.9,0,5.2,1,6.8,2.9c1.6,1.9,2.4,4.7,2.4,8.2v1.6h-15.1c0.1,2.2,0.7,4,1.9,5.3c1.2,1.4,2.8,2,4.7,2
		c1.3,0,2.5-0.3,3.4-0.8c0.9-0.6,1.8-1.3,2.5-2.2l2.3,1.8C184.1,277.7,181.3,279.2,177.6,279.2z M177.1,259.1
		c-1.5,0-2.8,0.6-3.9,1.7c-1,1.1-1.7,2.7-1.9,4.7h11.2v-0.3c-0.1-1.9-0.6-3.4-1.6-4.5C180,259.7,178.7,259.1,177.1,259.1z"/>
	<path class="st4" d="M203.7,272.8c0-1-0.4-1.8-1.2-2.4c-0.8-0.6-2.1-1.1-4.1-1.5c-1.9-0.4-3.5-0.9-4.6-1.5c-1.1-0.6-2-1.3-2.5-2.1
		c-0.5-0.8-0.8-1.7-0.8-2.9c0-1.8,0.8-3.4,2.3-4.6c1.5-1.3,3.5-1.9,5.9-1.9c2.5,0,4.6,0.7,6.2,2c1.6,1.3,2.4,3,2.4,5h-3.8
		c0-1-0.4-1.9-1.3-2.7c-0.9-0.8-2-1.1-3.4-1.1c-1.4,0-2.5,0.3-3.3,0.9c-0.8,0.6-1.2,1.4-1.2,2.4c0,0.9,0.4,1.6,1.1,2.1
		c0.7,0.5,2,0.9,4,1.3s3.5,0.9,4.6,1.5s2.1,1.3,2.6,2.1s0.9,1.8,0.9,3c0,2-0.8,3.6-2.4,4.8c-1.6,1.2-3.7,1.8-6.2,1.8
		c-1.8,0-3.4-0.3-4.8-1c-1.4-0.6-2.5-1.5-3.2-2.7c-0.8-1.1-1.2-2.4-1.2-3.7h3.8c0.1,1.3,0.6,2.3,1.5,3c1,0.8,2.2,1.1,3.8,1.1
		c1.4,0,2.6-0.3,3.5-0.9C203.3,274.6,203.7,273.8,203.7,272.8z"/>
	<path class="st4" d="M212.5,250.5c0-0.6,0.2-1.1,0.6-1.6c0.4-0.4,0.9-0.6,1.7-0.6c0.7,0,1.3,0.2,1.7,0.6c0.4,0.4,0.6,1,0.6,1.6
		s-0.2,1.1-0.6,1.5c-0.4,0.4-1,0.6-1.7,0.6c-0.7,0-1.3-0.2-1.7-0.6C212.7,251.6,212.5,251.1,212.5,250.5z M216.7,278.7h-3.8v-22.3
		h3.8V278.7z"/>
	<path class="st4" d="M228,251v5.4h4.2v3H228v13.9c0,0.9,0.2,1.6,0.6,2c0.4,0.4,1,0.7,1.9,0.7c0.4,0,1-0.1,1.8-0.2v3.1
		c-1,0.3-2,0.4-2.9,0.4c-1.7,0-3-0.5-3.9-1.5c-0.9-1-1.3-2.5-1.3-4.4v-13.9h-4.1v-3h4.1V251H228z"/>
	<path class="st4" d="M250.4,278.7c-0.2-0.4-0.4-1.2-0.5-2.4c-1.8,1.8-3.9,2.8-6.4,2.8c-2.2,0-4-0.6-5.4-1.9
		c-1.4-1.2-2.1-2.8-2.1-4.7c0-2.3,0.9-4.1,2.7-5.4c1.8-1.3,4.3-1.9,7.5-1.9h3.7v-1.8c0-1.3-0.4-2.4-1.2-3.2c-0.8-0.8-2-1.2-3.5-1.2
		c-1.4,0-2.5,0.3-3.4,1c-0.9,0.7-1.4,1.5-1.4,2.5h-3.8c0-1.1,0.4-2.2,1.2-3.2c0.8-1,1.9-1.9,3.2-2.5c1.4-0.6,2.8-0.9,4.5-0.9
		c2.6,0,4.6,0.6,6.1,1.9c1.5,1.3,2.2,3.1,2.3,5.3v10.3c0,2.1,0.3,3.7,0.8,4.9v0.3H250.4z M244.1,275.8c1.2,0,2.3-0.3,3.4-0.9
		c1.1-0.6,1.9-1.4,2.3-2.4v-4.6h-3c-4.7,0-7,1.4-7,4.1c0,1.2,0.4,2.1,1.2,2.8C241.8,275.5,242.8,275.8,244.1,275.8z"/>
	<path class="st4" d="M272.6,272.8c0-1-0.4-1.8-1.2-2.4c-0.8-0.6-2.1-1.1-4.1-1.5s-3.5-0.9-4.6-1.5c-1.1-0.6-2-1.3-2.5-2.1
		c-0.5-0.8-0.8-1.7-0.8-2.9c0-1.8,0.8-3.4,2.3-4.6c1.5-1.3,3.5-1.9,5.9-1.9c2.5,0,4.6,0.7,6.2,2c1.6,1.3,2.4,3,2.4,5h-3.8
		c0-1-0.4-1.9-1.3-2.7c-0.9-0.8-2-1.1-3.4-1.1c-1.4,0-2.5,0.3-3.3,0.9c-0.8,0.6-1.2,1.4-1.2,2.4c0,0.9,0.4,1.6,1.1,2.1
		c0.7,0.5,2,0.9,4,1.3s3.5,0.9,4.6,1.5s2.1,1.3,2.6,2.1c0.6,0.8,0.9,1.8,0.9,3c0,2-0.8,3.6-2.4,4.8c-1.6,1.2-3.7,1.8-6.2,1.8
		c-1.8,0-3.4-0.3-4.8-1s-2.5-1.5-3.2-2.7c-0.8-1.1-1.2-2.4-1.2-3.7h3.8c0.1,1.3,0.6,2.3,1.5,3s2.2,1.1,3.8,1.1
		c1.4,0,2.6-0.3,3.5-0.9C272.2,274.6,272.6,273.8,272.6,272.8z"/>
	<path class="st4" d="M305.7,278.7c-0.2-0.4-0.4-1.2-0.5-2.4c-1.8,1.8-3.9,2.8-6.4,2.8c-2.2,0-4-0.6-5.4-1.9s-2.1-2.8-2.1-4.7
		c0-2.3,0.9-4.1,2.7-5.4c1.8-1.3,4.3-1.9,7.5-1.9h3.7v-1.8c0-1.3-0.4-2.4-1.2-3.2c-0.8-0.8-2-1.2-3.5-1.2c-1.4,0-2.5,0.3-3.4,1
		c-0.9,0.7-1.4,1.5-1.4,2.5h-3.8c0-1.1,0.4-2.2,1.2-3.2c0.8-1,1.9-1.9,3.2-2.5c1.4-0.6,2.8-0.9,4.5-0.9c2.6,0,4.6,0.6,6.1,1.9
		c1.5,1.3,2.2,3.1,2.3,5.3v10.3c0,2.1,0.3,3.7,0.8,4.9v0.3H305.7z M299.3,275.8c1.2,0,2.3-0.3,3.4-0.9c1.1-0.6,1.9-1.4,2.3-2.4v-4.6
		h-3c-4.7,0-7,1.4-7,4.1c0,1.2,0.4,2.1,1.2,2.8C297.1,275.5,298.1,275.8,299.3,275.8z"/>
	<path class="st4" d="M321.9,273.2l5.2-16.8h4.1l-9,25.8c-1.4,3.7-3.6,5.6-6.6,5.6l-0.7-0.1l-1.4-0.3v-3.1l1,0.1
		c1.3,0,2.3-0.3,3-0.8c0.7-0.5,1.3-1.5,1.8-2.9l0.8-2.3l-8-22.1h4.2L321.9,273.2z"/>
	<path class="st4" d="M348.4,276.5c-1.5,1.7-3.7,2.6-6.5,2.6c-2.4,0-4.2-0.7-5.4-2.1c-1.2-1.4-1.9-3.4-1.9-6.1v-14.5h3.8v14.4
		c0,3.4,1.4,5.1,4.1,5.1c2.9,0,4.9-1.1,5.8-3.3v-16.3h3.8v22.3h-3.6L348.4,276.5z"/>
	<path class="st4" d="M357,267.4c0-3.4,0.8-6.2,2.4-8.3c1.6-2.1,3.8-3.1,6.4-3.1c2.6,0,4.7,0.9,6.2,2.7V247h3.8v31.7h-3.5l-0.2-2.4
		c-1.5,1.9-3.7,2.8-6.4,2.8c-2.6,0-4.7-1.1-6.3-3.2c-1.6-2.1-2.4-4.9-2.4-8.3V267.4z M360.8,267.8c0,2.5,0.5,4.5,1.6,5.9
		c1,1.4,2.5,2.1,4.3,2.1c2.4,0,4.2-1.1,5.3-3.3v-10.3c-1.1-2.1-2.9-3.2-5.3-3.2c-1.9,0-3.3,0.7-4.4,2.2
		C361.3,262.8,360.8,265,360.8,267.8z"/>
	<path class="st4" d="M395.6,278.7c-0.2-0.4-0.4-1.2-0.5-2.4c-1.8,1.8-3.9,2.8-6.4,2.8c-2.2,0-4-0.6-5.4-1.9s-2.1-2.8-2.1-4.7
		c0-2.3,0.9-4.1,2.7-5.4c1.8-1.3,4.3-1.9,7.5-1.9h3.7v-1.8c0-1.3-0.4-2.4-1.2-3.2c-0.8-0.8-2-1.2-3.5-1.2c-1.4,0-2.5,0.3-3.4,1
		c-0.9,0.7-1.4,1.5-1.4,2.5h-3.8c0-1.1,0.4-2.2,1.2-3.2c0.8-1,1.9-1.9,3.2-2.5c1.4-0.6,2.8-0.9,4.5-0.9c2.6,0,4.6,0.6,6.1,1.9
		c1.5,1.3,2.2,3.1,2.3,5.3v10.3c0,2.1,0.3,3.7,0.8,4.9v0.3H395.6z M389.2,275.8c1.2,0,2.3-0.3,3.4-0.9c1.1-0.6,1.9-1.4,2.3-2.4v-4.6
		h-3c-4.7,0-7,1.4-7,4.1c0,1.2,0.4,2.1,1.2,2.8C387,275.5,388,275.8,389.2,275.8z"/>
	<path class="st4" d="M409.3,270.2c0-1.6,0.2-2.9,0.6-3.9s1-2,2.1-3.2l2.7-2.8c1.2-1.3,1.7-2.7,1.7-4.2c0-1.4-0.4-2.6-1.1-3.4
		c-0.8-0.8-1.9-1.2-3.3-1.2c-1.4,0-2.5,0.4-3.4,1.1c-0.9,0.7-1.3,1.7-1.3,3h-3.8c0-2.2,0.8-4,2.4-5.4c1.6-1.4,3.6-2.1,6.1-2.1
		c2.6,0,4.6,0.7,6.1,2.1c1.5,1.4,2.2,3.3,2.2,5.7c0,2.4-1.1,4.8-3.3,7.1l-2.3,2.2c-1,1.1-1.5,2.7-1.5,4.8H409.3z M409.1,276.8
		c0-0.6,0.2-1.1,0.6-1.6c0.4-0.4,0.9-0.6,1.7-0.6c0.7,0,1.3,0.2,1.7,0.6c0.4,0.4,0.6,0.9,0.6,1.6c0,0.6-0.2,1.1-0.6,1.6
		c-0.4,0.4-0.9,0.6-1.7,0.6c-0.7,0-1.3-0.2-1.7-0.6C409.3,278,409.1,277.4,409.1,276.8z"/>
</g>
<g class="st7">
	<path class="st4" d="M140.9,322.4h-4v-13.9h-15.2v13.9h-4v-30.1h4v12.9h15.2v-12.9h4V322.4z"/>
	<path class="st4" d="M161.1,322.4c-0.2-0.4-0.4-1.2-0.5-2.4c-1.8,1.8-3.9,2.8-6.4,2.8c-2.2,0-4-0.6-5.4-1.9
		c-1.4-1.2-2.1-2.8-2.1-4.7c0-2.3,0.9-4.1,2.7-5.4c1.8-1.3,4.3-1.9,7.5-1.9h3.7v-1.8c0-1.3-0.4-2.4-1.2-3.2c-0.8-0.8-2-1.2-3.5-1.2
		c-1.4,0-2.5,0.3-3.4,1c-0.9,0.7-1.4,1.5-1.4,2.5h-3.8c0-1.1,0.4-2.2,1.2-3.2c0.8-1,1.9-1.9,3.2-2.5c1.4-0.6,2.8-0.9,4.5-0.9
		c2.6,0,4.6,0.6,6.1,1.9c1.5,1.3,2.2,3.1,2.3,5.3v10.3c0,2.1,0.3,3.7,0.8,4.9v0.3H161.1z M154.8,319.5c1.2,0,2.3-0.3,3.4-0.9
		c1.1-0.6,1.9-1.4,2.3-2.4v-4.6h-3c-4.7,0-7,1.4-7,4.1c0,1.2,0.4,2.1,1.2,2.8C152.5,319.2,153.6,319.5,154.8,319.5z"/>
	<path class="st4" d="M179.3,319.7c1.4,0,2.6-0.4,3.6-1.2c1-0.8,1.6-1.9,1.7-3.1h3.6c-0.1,1.3-0.5,2.5-1.3,3.7
		c-0.8,1.2-1.9,2.1-3.3,2.8c-1.4,0.7-2.8,1-4.3,1c-3,0-5.5-1-7.3-3c-1.8-2-2.7-4.8-2.7-8.3v-0.6c0-2.2,0.4-4.1,1.2-5.8
		c0.8-1.7,1.9-3,3.4-3.9s3.3-1.4,5.3-1.4c2.5,0,4.6,0.8,6.2,2.3s2.5,3.4,2.7,5.8h-3.6c-0.1-1.4-0.7-2.6-1.6-3.6s-2.2-1.4-3.6-1.4
		c-1.9,0-3.4,0.7-4.5,2.1c-1.1,1.4-1.6,3.4-1.6,6.1v0.7c0,2.6,0.5,4.6,1.6,5.9C175.8,319,177.4,319.7,179.3,319.7z"/>
	<path class="st4" d="M201.8,322.9c-3,0-5.5-1-7.4-3c-1.9-2-2.9-4.7-2.9-8v-0.7c0-2.2,0.4-4.2,1.3-5.9c0.8-1.7,2-3.1,3.6-4.1
		s3.2-1.5,4.9-1.5c2.9,0,5.2,1,6.8,2.9c1.6,1.9,2.4,4.7,2.4,8.2v1.6h-15.1c0.1,2.2,0.7,4,1.9,5.3c1.2,1.4,2.8,2,4.7,2
		c1.3,0,2.5-0.3,3.4-0.8c0.9-0.6,1.8-1.3,2.5-2.2l2.3,1.8C208.3,321.4,205.5,322.9,201.8,322.9z M201.3,302.8
		c-1.5,0-2.8,0.6-3.9,1.7c-1,1.1-1.7,2.7-1.9,4.7h11.2v-0.3c-0.1-1.9-0.6-3.4-1.6-4.5C204.2,303.4,202.9,302.8,201.3,302.8z
		 M203.2,290.7h4.6l-5.5,6.1l-3.1,0L203.2,290.7z"/>
	<path class="st4" d="M234.3,319.7c1.4,0,2.6-0.4,3.6-1.2c1-0.8,1.6-1.9,1.7-3.1h3.6c-0.1,1.3-0.5,2.5-1.3,3.7
		c-0.8,1.2-1.9,2.1-3.3,2.8c-1.4,0.7-2.8,1-4.3,1c-3,0-5.5-1-7.3-3c-1.8-2-2.7-4.8-2.7-8.3v-0.6c0-2.2,0.4-4.1,1.2-5.8
		c0.8-1.7,1.9-3,3.4-3.9s3.3-1.4,5.3-1.4c2.5,0,4.6,0.8,6.2,2.3s2.5,3.4,2.7,5.8h-3.6c-0.1-1.4-0.7-2.6-1.6-3.6s-2.2-1.4-3.6-1.4
		c-1.9,0-3.4,0.7-4.5,2.1c-1.1,1.4-1.6,3.4-1.6,6.1v0.7c0,2.6,0.5,4.6,1.6,5.9C230.9,319,232.4,319.7,234.3,319.7z"/>
	<path class="st4" d="M251.7,322.4h-3.8v-31.7h3.8V322.4z"/>
	<path class="st4" d="M257.8,294.2c0-0.6,0.2-1.1,0.6-1.6c0.4-0.4,0.9-0.6,1.7-0.6c0.7,0,1.3,0.2,1.7,0.6c0.4,0.4,0.6,1,0.6,1.6
		s-0.2,1.1-0.6,1.5c-0.4,0.4-0.9,0.6-1.7,0.6c-0.7,0-1.3-0.2-1.7-0.6C258,295.3,257.8,294.8,257.8,294.2z M261.9,322.4h-3.8v-22.3
		h3.8V322.4z"/>
	<path class="st4" d="M277,319.7c1.4,0,2.6-0.4,3.6-1.2c1-0.8,1.6-1.9,1.7-3.1h3.6c-0.1,1.3-0.5,2.5-1.3,3.7
		c-0.8,1.2-1.9,2.1-3.3,2.8c-1.4,0.7-2.8,1-4.3,1c-3,0-5.5-1-7.3-3c-1.8-2-2.7-4.8-2.7-8.3v-0.6c0-2.2,0.4-4.1,1.2-5.8
		c0.8-1.7,1.9-3,3.4-3.9c1.5-0.9,3.3-1.4,5.3-1.4c2.5,0,4.6,0.8,6.2,2.3s2.5,3.4,2.7,5.8h-3.6c-0.1-1.4-0.7-2.6-1.6-3.6
		s-2.2-1.4-3.6-1.4c-1.9,0-3.4,0.7-4.5,2.1c-1.1,1.4-1.6,3.4-1.6,6.1v0.7c0,2.6,0.5,4.6,1.6,5.9C273.5,319,275,319.7,277,319.7z"/>
	<path class="st4" d="M314.5,322.4c-0.2-0.4-0.4-1.2-0.5-2.4c-1.8,1.8-3.9,2.8-6.4,2.8c-2.2,0-4-0.6-5.4-1.9s-2.1-2.8-2.1-4.7
		c0-2.3,0.9-4.1,2.7-5.4c1.8-1.3,4.3-1.9,7.5-1.9h3.7v-1.8c0-1.3-0.4-2.4-1.2-3.2c-0.8-0.8-2-1.2-3.5-1.2c-1.4,0-2.5,0.3-3.4,1
		c-0.9,0.7-1.4,1.5-1.4,2.5h-3.8c0-1.1,0.4-2.2,1.2-3.2c0.8-1,1.9-1.9,3.2-2.5c1.4-0.6,2.8-0.9,4.5-0.9c2.6,0,4.6,0.6,6.1,1.9
		c1.5,1.3,2.2,3.1,2.3,5.3v10.3c0,2.1,0.3,3.7,0.8,4.9v0.3H314.5z M308.1,319.5c1.2,0,2.3-0.3,3.4-0.9c1.1-0.6,1.9-1.4,2.3-2.4v-4.6
		h-3c-4.7,0-7,1.4-7,4.1c0,1.2,0.4,2.1,1.2,2.8C305.8,319.2,306.9,319.5,308.1,319.5z"/>
	<path class="st4" d="M322.7,311.1c0-3.5,0.8-6.3,2.4-8.3c1.6-2,3.8-3.1,6.5-3.1c2.6,0,4.7,0.9,6.3,2.7l0.2-2.3h3.5V331h-3.8v-10.7
		c-1.5,1.7-3.6,2.5-6.2,2.5c-2.7,0-4.9-1-6.5-3.1c-1.6-2.1-2.4-4.9-2.4-8.4V311.1z M326.6,311.5c0,2.6,0.5,4.6,1.6,6
		c1.1,1.5,2.5,2.2,4.4,2.2c2.3,0,4-1,5.2-3v-10.9c-1.2-2-2.9-3-5.2-3c-1.8,0-3.3,0.7-4.4,2.2C327.1,306.5,326.6,308.7,326.6,311.5z"
		/>
	<path class="st4" d="M361.5,320.2c-1.5,1.7-3.7,2.6-6.5,2.6c-2.4,0-4.2-0.7-5.4-2.1c-1.2-1.4-1.9-3.4-1.9-6.1v-14.5h3.8v14.4
		c0,3.4,1.4,5.1,4.1,5.1c2.9,0,4.9-1.1,5.8-3.3v-16.3h3.8v22.3h-3.6L361.5,320.2z"/>
	<path class="st4" d="M375.2,290.7h4.6l-5.5,6.1l-3.1,0L375.2,290.7z M375.2,322.4h-3.8v-22.3h3.8V322.4z"/>
</g>
</svg>
