<?xml version="1.0" encoding="utf-8"?>
<!-- Generator: Adobe Illustrator 24.3.0, SVG Export Plug-In . SVG Version: 6.00 Build 0)  -->
<svg version="1.1" id="Capa_1" xmlns="http://www.w3.org/2000/svg" xmlns:xlink="http://www.w3.org/1999/xlink" x="0px" y="0px"
	 viewBox="0 0 1076.5 223.4" style="enable-background:new 0 0 1076.5 223.4;" xml:space="preserve">
<style type="text/css">
	.st0{fill:url(#SVGID_1_);}
	.st1{fill:#FFFFFF;}
	.st2{fill:none;}
</style>
<g>
	<text transform="matrix(1 0 0 1 324.9531 393.1224)" style="font-family:'Roboto-Bold'; font-size:43.7065px;">Te esperamos en</text>
</g>
<g>
	<g>
		<g>
			<path d="M248.7,92h-12.6v34.4h-8.6V92H215v-6.9h33.6L248.7,92L248.7,92z"/>
			<path d="M264.6,127c-4.5,0-8.2-1.4-11-4.2c-2.8-2.8-4.3-6.5-4.3-11V111c0-3,0.6-5.8,1.8-8.3c1.2-2.5,2.8-4.3,5-5.6
				c2.2-1.3,4.7-2,7.5-2c4.2,0,7.5,1.3,9.9,4s3.6,6.4,3.6,11.3v3.3h-19.6c0.3,2,1,3.6,2.4,4.8c1.3,1.2,3,1.8,5,1.8
				c3.1,0,5.6-1.1,7.4-3.4l4,4.6c-1.2,1.7-2.9,3.1-5,4.1C269.5,126.5,267.2,127,264.6,127z M263.7,101.8c-1.6,0-2.9,0.6-4,1.6
				c-1,1.1-1.6,2.7-1.9,4.8h11.4v-0.7c0-1.8-0.6-3.2-1.5-4.3C266.8,102.3,265.5,101.8,263.7,101.8z"/>
			<path d="M310.5,127c-4.5,0-8.2-1.4-11-4.2c-2.9-2.8-4.3-6.5-4.3-11V111c0-3,0.6-5.8,1.8-8.3c1.2-2.5,2.8-4.3,5-5.6s4.7-2,7.5-2
				c4.2,0,7.5,1.3,9.9,4s3.6,6.4,3.6,11.3v3.3h-19.6c0.3,2,1,3.6,2.4,4.8c1.3,1.2,3,1.8,5,1.8c3.1,0,5.6-1.1,7.4-3.4l4,4.6
				c-1.2,1.7-2.8,3.1-5,4.1C315.4,126.5,313.1,127,310.5,127z M309.6,101.8c-1.6,0-2.9,0.6-4,1.6c-1,1.1-1.6,2.7-1.9,4.8h11.4v-0.7
				c0-1.8-0.6-3.2-1.5-4.3C312.7,102.3,311.3,101.8,309.6,101.8z"/>
			<path d="M344.4,118c0-1-0.5-1.8-1.5-2.4c-1-0.6-2.6-1-4.8-1.5c-7.3-1.5-10.9-4.7-10.9-9.3c0-2.8,1.1-5,3.4-6.8
				c2.3-1.8,5.2-2.8,8.8-2.8c3.9,0,7,0.9,9.3,2.8c2.4,1.8,3.5,4.2,3.5,7.1h-8.2c0-1.1-0.4-2.2-1.1-2.9s-1.9-1.1-3.5-1.1
				c-1.4,0-2.5,0.3-3.2,0.9c-0.8,0.7-1.1,1.4-1.1,2.4s0.5,1.6,1.3,2.2c0.9,0.6,2.3,1,4.4,1.4c2.1,0.4,3.8,0.9,5.1,1.3
				c4.4,1.6,6.5,4.4,6.5,8.3c0,2.8-1.2,5-3.6,6.8c-2.4,1.7-5.5,2.6-9.3,2.6c-2.6,0-4.8-0.5-6.8-1.3c-2-0.9-3.6-2.2-4.7-3.8
				c-1.1-1.6-1.7-3.3-1.7-5.2h7.8c0.1,1.4,0.6,2.6,1.6,3.3s2.4,1.1,4,1.1c1.6,0,2.8-0.3,3.6-0.9C344.1,119.6,344.4,118.9,344.4,118z
				"/>
			<path d="M385.3,111.4c0,4.8-1,8.6-3.2,11.4s-5,4.3-8.7,4.3c-3.1,0-5.6-1-7.5-3.2v14.4h-8.2V95.7h7.6l0.3,3c2-2.4,4.6-3.6,7.8-3.6
				c3.8,0,6.7,1.4,8.8,4.2c2.1,2.8,3.1,6.7,3.1,11.6V111.4L385.3,111.4z M377.2,110.8c0-2.9-0.5-5-1.5-6.7c-1-1.5-2.5-2.3-4.4-2.3
				c-2.6,0-4.4,1-5.3,2.9v12.5c1,2,2.8,3,5.3,3C375.2,120.4,377.2,117.2,377.2,110.8z"/>
			<path d="M404.5,127c-4.5,0-8.2-1.4-11-4.2c-2.9-2.8-4.3-6.5-4.3-11V111c0-3,0.6-5.8,1.8-8.3c1.2-2.5,2.9-4.3,5-5.6
				c2.2-1.3,4.7-2,7.5-2c4.2,0,7.5,1.3,9.9,4s3.6,6.4,3.6,11.3v3.3h-19.6c0.3,2,1,3.6,2.4,4.8s3,1.8,5,1.8c3.1,0,5.6-1.1,7.4-3.4
				l4,4.6c-1.2,1.7-2.9,3.1-5,4.1C409.5,126.5,407.1,127,404.5,127z M403.6,101.8c-1.6,0-2.9,0.6-4,1.6c-1,1.1-1.6,2.7-1.9,4.8h11.4
				v-0.7c0-1.8-0.6-3.2-1.5-4.3C406.7,102.3,405.4,101.8,403.6,101.8z"/>
			<path d="M439.1,103.4c-1.1-0.2-2.1-0.2-2.9-0.2c-3.1,0-5.1,1-6.1,3.1v20.1h-8.2V95.7h7.8l0.2,3.7c1.6-2.8,3.9-4.3,6.8-4.3
				c1,0,1.8,0.1,2.6,0.4L439.1,103.4z"/>
			<path d="M460,126.4c-0.4-0.8-0.7-1.6-0.9-2.8c-2,2.2-4.6,3.3-7.8,3.3c-3,0-5.5-0.9-7.5-2.6c-2-1.7-2.9-3.9-2.9-6.6
				c0-3.2,1.2-5.8,3.6-7.5c2.4-1.7,5.9-2.7,10.5-2.7h3.8v-1.8c0-1.4-0.4-2.6-1.1-3.4c-0.8-0.9-1.9-1.2-3.4-1.2
				c-1.4,0-2.5,0.3-3.2,0.9c-0.8,0.7-1.1,1.6-1.1,2.8h-8.2c0-1.8,0.6-3.4,1.6-4.9c1.1-1.5,2.7-2.7,4.7-3.6c2-0.9,4.3-1.3,6.7-1.3
				c3.8,0,6.7,0.9,9,2.8c2.2,1.9,3.3,4.6,3.3,8v13.3c0,2.9,0.4,5.1,1.2,6.6v0.5L460,126.4L460,126.4z M453.2,120.7
				c1.2,0,2.3-0.3,3.3-0.9c1-0.6,1.8-1.2,2.3-2.2v-5.3h-3c-4.1,0-6.3,1.4-6.6,4.3v0.5c0,1,0.4,1.9,1,2.6
				C450.9,120.3,451.9,120.7,453.2,120.7z"/>
			<path d="M481,95.7l0.3,3.4c2.2-2.7,5.1-4,8.8-4c4,0,6.6,1.5,8.2,4.7c2.2-3.1,5.2-4.7,9.2-4.7c3.3,0,5.8,0.9,7.4,2.9
				c1.6,1.9,2.5,4.8,2.5,8.7v19.6h-8.3v-19.6c0-1.7-0.4-3-1-3.8s-1.9-1.2-3.6-1.2c-2.5,0-4.2,1.1-5.1,3.5v21.1h-8.2v-19.6
				c0-1.8-0.4-3-1-3.9c-0.7-0.8-1.9-1.2-3.6-1.2c-2.3,0-4,0.9-5,2.8v21.8h-8.2V95.7H481z"/>
			<path d="M522.4,110.8c0-3,0.6-5.8,1.8-8.2c1.1-2.4,2.9-4.3,5-5.5c2.2-1.3,4.8-2,7.7-2c4.2,0,7.5,1.2,10.2,3.8
				c2.7,2.6,4.1,6,4.4,10.4l0.1,2.1c0,4.8-1.3,8.5-4,11.3s-6.2,4.3-10.5,4.3c-4.5,0-8-1.4-10.6-4.3s-4-6.7-4-11.6L522.4,110.8
				L522.4,110.8z M530.6,111.4c0,2.9,0.6,5.1,1.6,6.7c1.1,1.5,2.7,2.3,4.8,2.3c2,0,3.5-0.8,4.7-2.3s1.7-4,1.7-7.3
				c0-2.9-0.6-5-1.7-6.7s-2.7-2.4-4.8-2.4c-2,0-3.5,0.8-4.7,2.4C531.2,105.7,530.6,108.1,530.6,111.4z"/>
			<path d="M573.2,118c0-1-0.5-1.8-1.5-2.4c-1-0.6-2.6-1-4.8-1.5c-7.3-1.5-10.9-4.7-10.9-9.3c0-2.8,1.1-5,3.4-6.8
				c2.3-1.8,5.2-2.8,8.8-2.8c3.9,0,7,0.9,9.3,2.8c2.4,1.8,3.5,4.2,3.5,7.1h-8.2c0-1.1-0.4-2.2-1.1-2.9c-0.8-0.8-1.9-1.1-3.5-1.1
				c-1.4,0-2.5,0.3-3.2,0.9c-0.8,0.7-1.1,1.4-1.1,2.4s0.5,1.6,1.3,2.2c0.9,0.6,2.3,1,4.4,1.4c2.1,0.4,3.8,0.9,5.1,1.3
				c4.4,1.6,6.5,4.4,6.5,8.3c0,2.8-1.2,5-3.6,6.8c-2.4,1.7-5.5,2.6-9.3,2.6c-2.6,0-4.8-0.5-6.8-1.3c-2-0.9-3.6-2.2-4.7-3.8
				c-1.1-1.6-1.7-3.3-1.7-5.2h7.8c0.1,1.4,0.6,2.6,1.6,3.3c1,0.8,2.4,1.1,4,1.1c1.6,0,2.8-0.3,3.6-0.9
				C572.8,119.7,573.2,118.9,573.2,118z"/>
			<path d="M615.1,127c-4.5,0-8.2-1.4-11-4.2c-2.8-2.8-4.3-6.5-4.3-11V111c0-3,0.6-5.8,1.8-8.3c1.2-2.5,2.9-4.3,5-5.6
				c2.2-1.3,4.7-2,7.5-2c4.2,0,7.5,1.3,9.9,4s3.6,6.4,3.6,11.3v3.3H608c0.3,2,1,3.6,2.4,4.8s3,1.8,5,1.8c3.1,0,5.6-1.1,7.4-3.4
				l4,4.6c-1.2,1.7-2.9,3.1-5,4.1C619.9,126.5,617.6,127,615.1,127z M614.1,101.8c-1.6,0-2.9,0.6-4,1.6c-1,1.1-1.6,2.7-1.9,4.8h11.4
				v-0.7c0-1.8-0.6-3.2-1.5-4.3C617.2,102.3,615.8,101.8,614.1,101.8z"/>
			<path d="M639.9,95.7l0.3,3.5c2.2-2.8,5.1-4.1,8.8-4.1c3.2,0,5.7,0.9,7.2,2.8c1.6,1.9,2.4,4.8,2.5,8.5v19.9h-8.2v-19.7
				c0-1.7-0.4-3-1.1-3.8c-0.8-0.8-2-1.1-3.8-1.1c-2.3,0-4.1,1-5.2,2.9v21.7h-8.2V95.7H639.9z"/>
		</g>
	</g>
	<g>
		
			<linearGradient id="SVGID_1_" gradientUnits="userSpaceOnUse" x1="844.5699" y1="155.1425" x2="762.8851" y2="73.4575" gradientTransform="matrix(1 0 0 -1 0 226)">
			<stop  offset="1.104800e-03" style="stop-color:#FFE185"/>
			<stop  offset="0.2094" style="stop-color:#FFBB36"/>
			<stop  offset="0.3765" style="stop-color:#FF5176"/>
			<stop  offset="0.5238" style="stop-color:#F63395"/>
			<stop  offset="0.7394" style="stop-color:#A436D2"/>
			<stop  offset="1" style="stop-color:#5F4EED"/>
		</linearGradient>
		<circle class="st0" cx="803.7" cy="111.7" r="57.8"/>
		<g>
			<g>
				<path class="st1" d="M821.6,89.8c-2.2,0-4,1.8-4,4s1.8,4,4,4c2.2,0,4-1.8,4-4C825.6,91.6,823.9,89.8,821.6,89.8z"/>
				<path class="st1" d="M804,94.9c-9.2,0-16.7,7.5-16.7,16.7s7.5,16.7,16.7,16.7c9.2,0,16.7-7.5,16.7-16.7
					C820.6,102.4,813.1,94.9,804,94.9z M804,122.2c-5.9,0-10.7-4.8-10.7-10.7c0-5.9,4.8-10.7,10.7-10.7c5.9,0,10.7,4.8,10.7,10.7
					C814.7,117.5,809.9,122.2,804,122.2z"/>
				<path class="st1" d="M817.2,145.5h-27.1c-11.2,0-20.3-9.1-20.3-20.3V98.1c0-11.2,9.1-20.3,20.3-20.3h27.1
					c11.2,0,20.3,9.1,20.3,20.3v27.1C837.5,136.3,828.4,145.5,817.2,145.5z M790.1,84.1c-7.7,0-14,6.3-14,14v27.1
					c0,7.7,6.3,14,14,14h27.1c7.7,0,14-6.3,14-14v-27c0-7.7-6.3-14-14-14L790.1,84.1L790.1,84.1z"/>
			</g>
		</g>
	</g>
</g>
<path class="st2" d="M997.8,173.4h-919c-27.6,0-50-22.4-50-50V99.9c0-27.6,22.4-50,50-50h919c27.6,0,50,22.4,50,50v23.5
	C1047.8,151.1,1025.4,173.4,997.8,173.4z"/>
<g>
	<path class="st1" d="M1005.5,26.7c25.4,0,46,20.6,46,46v81c0,25.4-20.6,46-46,46h-934c-25.4,0-46-20.6-46-46v-81
		c0-25.4,20.6-46,46-46L1005.5,26.7 M1005.5,22.7h-934c-27.6,0-50,22.4-50,50v81c0,27.6,22.4,50,50,50h934c27.6,0,50-22.4,50-50v-81
		C1055.5,45.1,1033.2,22.7,1005.5,22.7L1005.5,22.7z"/>
</g>
</svg>
