<?xml version="1.0" encoding="utf-8"?>
<!-- Generator: Adobe Illustrator 25.2.1, SVG Export Plug-In . SVG Version: 6.00 Build 0)  -->
<!DOCTYPE svg PUBLIC "-//W3C//DTD SVG 1.1//EN" "http://www.w3.org/Graphics/SVG/1.1/DTD/svg11.dtd" [
	<!ENTITY ns_extend "http://ns.adobe.com/Extensibility/1.0/">
	<!ENTITY ns_ai "http://ns.adobe.com/AdobeIllustrator/10.0/">
	<!ENTITY ns_graphs "http://ns.adobe.com/Graphs/1.0/">
	<!ENTITY ns_vars "http://ns.adobe.com/Variables/1.0/">
	<!ENTITY ns_imrep "http://ns.adobe.com/ImageReplacement/1.0/">
	<!ENTITY ns_sfw "http://ns.adobe.com/SaveForWeb/1.0/">
	<!ENTITY ns_custom "http://ns.adobe.com/GenericCustomNamespace/1.0/">
	<!ENTITY ns_adobe_xpath "http://ns.adobe.com/XPath/1.0/">
]>
<svg version="1.1" id="Capa_1" xmlns:x="&ns_extend;" xmlns:i="&ns_ai;" xmlns:graph="&ns_graphs;"
	 xmlns="http://www.w3.org/2000/svg" xmlns:xlink="http://www.w3.org/1999/xlink" x="0px" y="0px" viewBox="0 0 773.1 223.4"
	 style="enable-background:new 0 0 773.1 223.4;" xml:space="preserve">
<style type="text/css">
	.st0{enable-background:new    ;}
	.st1{fill:#FFFFFF;}
	.st2{fill:url(#SVGID_1_);}
</style>
<metadata>
	<sfw  xmlns="&ns_sfw;">
		<slices></slices>
		<sliceSourceBounds  bottomLeftOrigin="true" height="1158.7" width="1918.6" x="21.5" y="-684.1"></sliceSourceBounds>
	</sfw>
</metadata>
<g>
	<text transform="matrix(1 0 0 1 1036.1381 -145.5327)" style="font-family:'Roboto-Bold'; font-size:49px;">¿Buscás algún concepto clave?</text>
	<text transform="matrix(1 0 0 1 1226.038 -86.7327)" style="font-family:'Roboto-Regular'; font-size:49px;">Hacé clic aquí</text>
</g>
<text transform="matrix(1 0 0 1 1036.1381 180.0379)" style="font-family:'Roboto-Bold'; font-size:49px;">¿Buscás algún concepto clave?</text>
<text transform="matrix(1 0 0 1 1036.1381 317.1497)" style="font-family:'Roboto-Bold'; font-size:49px;">Te esperamos en</text>
<g class="st0">
	<path d="M109,96H96.8v33.4h-8.3V96H76.4v-6.7h32.7V96H109z"/>
	<path d="M124.5,130c-4.4,0-7.9-1.4-10.7-4c-2.8-2.6-4.1-6.2-4.1-10.7v-0.8c0-3,0.6-5.6,1.7-8.1s2.8-4.1,5-5.4c2.1-1.3,4.5-2,7.3-2
		c4,0,7.3,1.3,9.7,3.8c2.3,2.5,3.6,6.2,3.6,10.9v3.2h-19c0.2,2,1,3.5,2.3,4.7c1.3,1.2,2.9,1.7,5,1.7c3.1,0,5.4-1.2,7.1-3.3l3.9,4.4
		c-1.2,1.7-2.8,3-4.8,3.9C129.3,129.3,127,130,124.5,130z M123.6,105.4c-1.6,0-2.9,0.6-3.8,1.6c-1,1-1.6,2.6-1.8,4.6H129V111
		c0-1.7-0.5-3.1-1.4-4.1C126.6,105.9,125.2,105.4,123.6,105.4z"/>
	<path d="M169,130c-4.4,0-7.9-1.4-10.7-4c-2.8-2.6-4.1-6.2-4.1-10.7v-0.8c0-3,0.6-5.6,1.7-8.1s2.8-4.1,5-5.4c2.1-1.3,4.5-2,7.3-2
		c4,0,7.3,1.3,9.7,3.8c2.3,2.5,3.6,6.2,3.6,10.9v3.2h-19c0.2,2,1,3.5,2.3,4.7c1.3,1.2,2.9,1.7,5,1.7c3.1,0,5.4-1.2,7.1-3.3l3.9,4.4
		c-1.2,1.7-2.8,3-4.8,3.9C173.7,129.3,171.5,130,169,130z M168.2,105.4c-1.6,0-2.9,0.6-3.8,1.6c-1,1-1.6,2.6-1.8,4.6h11.1V111
		c0-1.7-0.5-3.1-1.4-4.1C171.2,105.9,169.8,105.4,168.2,105.4z"/>
	<path d="M201.9,121.1c0-0.9-0.5-1.7-1.5-2.3c-0.9-0.6-2.5-1-4.6-1.5c-7.1-1.5-10.6-4.5-10.6-9c0-2.6,1.2-4.8,3.3-6.7
		c2.2-1.7,5.1-2.6,8.6-2.6c3.8,0,6.8,0.9,9.1,2.6c2.3,1.7,3.5,4.1,3.5,6.9h-7.9c0-1.2-0.3-2.1-1.2-2.9c-0.7-0.7-1.8-1.2-3.5-1.2
		c-1.4,0-2.4,0.3-3.1,0.9c-0.7,0.6-1.2,1.4-1.2,2.3c0,0.9,0.5,1.6,1.3,2.2s2.2,1,4.3,1.4c2,0.3,3.7,0.8,5.1,1.4
		c4.3,1.5,6.3,4.3,6.3,8.1c0,2.8-1.2,5-3.5,6.6c-2.3,1.7-5.3,2.5-9,2.5c-2.5,0-4.7-0.5-6.7-1.4c-2-0.9-3.5-2.1-4.6-3.7
		c-1.2-1.5-1.6-3.2-1.6-5.1h7.6c0.1,1.4,0.6,2.5,1.6,3.2c0.9,0.8,2.3,1.2,3.9,1.2c1.5,0,2.6-0.3,3.5-0.9
		C201.6,122.8,201.9,122.1,201.9,121.1z"/>
	<path d="M241.7,114.8c0,4.6-1,8.3-3.1,11.1c-2.1,2.8-5,4.1-8.4,4.1c-3,0-5.4-1-7.3-3.1v14.1H215V99.6h7.4l0.2,2.9
		c2-2.3,4.5-3.5,7.6-3.5c3.7,0,6.6,1.4,8.5,4c2,2.6,3.1,6.4,3.1,11.3v0.5H241.7z M233.7,114.2c0-2.8-0.5-5-1.5-6.4
		c-1-1.5-2.4-2.3-4.3-2.3c-2.5,0-4.3,0.9-5.2,2.9v12.2c0.9,2,2.8,3,5.2,3C231.8,123.5,233.7,120.4,233.7,114.2z"/>
	<path d="M260.3,130c-4.4,0-7.9-1.4-10.7-4c-2.8-2.6-4.1-6.2-4.1-10.7v-0.8c0-3,0.6-5.6,1.7-8.1s2.8-4.1,5-5.4c2.1-1.3,4.5-2,7.3-2
		c4,0,7.3,1.3,9.7,3.8c2.3,2.5,3.6,6.2,3.6,10.9v3.2h-19c0.2,2,1,3.5,2.3,4.7c1.3,1.2,2.9,1.7,5,1.7c3.1,0,5.4-1.2,7.1-3.3l3.9,4.4
		c-1.2,1.7-2.8,3-4.8,3.9C265.1,129.3,262.9,130,260.3,130z M259.4,105.4c-1.6,0-2.9,0.6-3.8,1.6c-1,1-1.6,2.6-1.8,4.6h11.1V111
		c0-1.7-0.5-3.1-1.4-4.1C262.4,105.9,261.1,105.4,259.4,105.4z"/>
	<path d="M293.9,107c-1-0.1-2.1-0.2-2.9-0.2c-3,0-5,1-5.9,3.1v19.5h-7.9V99.6h7.5l0.2,3.6c1.6-2.8,3.8-4.1,6.7-4.1
		c0.9,0,1.7,0.1,2.5,0.3L293.9,107z"/>
	<path d="M314.1,129.4c-0.3-0.7-0.6-1.6-0.8-2.6c-2,2.2-4.5,3.2-7.5,3.2c-2.9,0-5.3-0.8-7.3-2.5c-2-1.7-2.9-3.8-2.9-6.4
		c0-3.1,1.2-5.5,3.6-7.3c2.3-1.7,5.8-2.5,10.1-2.5h3.7v-1.7c0-1.4-0.3-2.5-1-3.3c-0.7-0.8-1.8-1.3-3.3-1.3c-1.4,0-2.4,0.3-3.1,0.9
		c-0.8,0.7-1.2,1.5-1.2,2.6h-7.9c0-1.7,0.6-3.3,1.6-4.8c1-1.5,2.5-2.6,4.5-3.5s4.1-1.3,6.6-1.3c3.7,0,6.6,0.9,8.8,2.8
		c2.2,1.8,3.2,4.5,3.2,7.8v12.9c0,2.9,0.5,5,1.2,6.4v0.5h-8.2V129.4z M307.6,123.9c1.2,0,2.3-0.2,3.2-0.8c1-0.6,1.7-1.3,2.2-2.1
		v-5.2h-3c-4,0-6.1,1.4-6.3,4.1v0.5c0,1,0.3,1.8,1,2.4C305.4,123.5,306.4,123.9,307.6,123.9z"/>
	<path d="M334.6,99.6l0.2,3.3c2.1-2.6,5-3.9,8.5-3.9c3.8,0,6.4,1.5,7.9,4.5c2.1-3,5.1-4.5,9-4.5c3.2,0,5.6,0.9,7.3,2.9
		c1.6,1.8,2.4,4.7,2.4,8.5v19H362v-19c0-1.7-0.3-2.9-1-3.7c-0.7-0.8-1.8-1.2-3.5-1.2c-2.4,0-4,1.2-5,3.5v20.5h-7.9v-19
		c0-1.7-0.3-3-1-3.8c-0.7-0.8-1.8-1.2-3.5-1.2c-2.3,0-3.9,0.9-5,2.8v21.1h-8.1V99.6H334.6z"/>
	<path d="M374.7,114.2c0-3,0.6-5.6,1.7-7.9c1.2-2.3,2.8-4.1,5-5.4c2.2-1.3,4.6-2,7.5-2c4,0,7.3,1.3,9.9,3.7s3.9,5.8,4.3,10v2.1
		c0,4.6-1.3,8.3-3.8,11.1c-2.5,2.8-6,4.1-10.3,4.1s-7.7-1.4-10.3-4.1c-2.5-2.8-3.8-6.4-3.8-11.3v-0.2H374.7z M382.8,114.8
		c0,2.9,0.6,5,1.6,6.4s2.5,2.3,4.6,2.3c2,0,3.5-0.7,4.5-2.2c1-1.5,1.6-3.8,1.6-7.1c0-2.8-0.6-5-1.6-6.4c-1-1.5-2.6-2.3-4.6-2.3
		s-3.5,0.8-4.5,2.3S382.8,111.5,382.8,114.8z"/>
	<path d="M424.1,121.1c0-0.9-0.5-1.7-1.5-2.3c-0.9-0.6-2.5-1-4.6-1.5c-7.1-1.5-10.6-4.5-10.6-9c0-2.6,1.2-4.8,3.3-6.7
		c2.2-1.7,5.1-2.6,8.6-2.6c3.8,0,6.8,0.9,9.1,2.6s3.5,4.1,3.5,6.9H424c0-1.2-0.3-2.1-1.2-2.9c-0.7-0.7-1.8-1.2-3.5-1.2
		c-1.4,0-2.4,0.3-3.1,0.9c-0.7,0.6-1.2,1.4-1.2,2.3c0,0.9,0.5,1.6,1.3,2.2c0.8,0.6,2.2,1,4.3,1.4c2,0.3,3.7,0.8,5.1,1.4
		c4.3,1.5,6.3,4.3,6.3,8.1c0,2.8-1.2,5-3.5,6.6c-2.3,1.7-5.3,2.5-9,2.5c-2.5,0-4.7-0.5-6.7-1.4c-2-0.9-3.5-2.1-4.6-3.7
		c-1.2-1.5-1.6-3.2-1.6-5.1h7.6c0.1,1.4,0.6,2.5,1.6,3.2c1,0.7,2.3,1.2,3.9,1.2c1.5,0,2.6-0.3,3.5-0.9
		C423.7,122.8,424.1,122.1,424.1,121.1z"/>
	<path d="M464.7,130c-4.4,0-7.9-1.4-10.7-4c-2.8-2.6-4.1-6.2-4.1-10.7v-0.8c0-3,0.6-5.6,1.7-8.1c1.2-2.4,2.8-4.1,5-5.4
		c2.1-1.3,4.5-2,7.3-2c4,0,7.3,1.3,9.7,3.8c2.3,2.5,3.6,6.2,3.6,10.9v3.2h-19c0.2,2,1,3.5,2.3,4.7c1.3,1.2,2.9,1.7,5,1.7
		c3.1,0,5.4-1.2,7.1-3.3l3.9,4.4c-1.2,1.7-2.8,3-4.8,3.9C469.4,129.3,467.2,130,464.7,130z M463.9,105.4c-1.6,0-2.9,0.6-3.8,1.6
		c-1,1-1.6,2.6-1.8,4.6h11.1V111c0-1.7-0.5-3.1-1.4-4.1C466.9,105.9,465.5,105.4,463.9,105.4z"/>
	<path d="M488.9,99.6l0.2,3.5c2.1-2.6,5-4,8.5-4c3.1,0,5.5,0.9,7,2.8c1.5,1.8,2.3,4.6,2.4,8.3v19.2h-7.9v-19.1
		c0-1.7-0.3-2.9-1.2-3.7c-0.7-0.8-2-1.2-3.7-1.2c-2.2,0-3.9,0.9-5.1,2.9v21.1h-7.9V99.6H488.9z"/>
</g>
<g>
	<path class="st1" d="M704.6,573.1c25.4,0,46,20.6,46,46v81c0,25.4-20.6,46-46,46h-784c-25.4,0-46-20.6-46-46v-81
		c0-25.4,20.6-46,46-46H704.6 M704.6,569.1h-784c-27.6,0-50,22.4-50,50v81c0,27.6,22.4,50,50,50h784c27.6,0,50-22.4,50-50v-81
		C754.6,591.5,732.3,569.1,704.6,569.1L704.6,569.1z"/>
</g>
<g>
	<path class="st1" d="M704.6,285.1c25.4,0,46,20.6,46,46v81c0,25.4-20.6,46-46,46h-784c-25.4,0-46-20.6-46-46v-81
		c0-25.4,20.6-46,46-46H704.6 M704.6,281.1h-784c-27.6,0-50,22.4-50,50v81c0,27.6,22.4,50,50,50h784c27.6,0,50-22.4,50-50v-81
		C754.6,303.5,732.3,281.1,704.6,281.1L704.6,281.1z"/>
</g>
<g>
	<g class="st0">
		<path d="M30-182c0,2.1-0.2,3.8-0.7,5.1s-1.4,2.6-2.6,3.7c-1.3,1.2-2.1,2.1-2.6,2.6c-0.5,0.6-0.8,1.2-1,1.7
			c-0.2,0.6-0.3,1.2-0.3,1.9c0,2.5,1.2,3.8,3.7,3.8c1.2,0,2.2-0.4,2.9-1.1s1.1-1.7,1.1-3h6.9c0,3.1-1,5.5-2.9,7.2s-4.6,2.6-7.9,2.6
			c-3.4,0-6-0.8-7.9-2.4c-1.9-1.6-2.8-3.9-2.8-6.9c0-2.5,1.2-5,3.7-7.5l2.3-2.2c0.8-0.7,1.4-1.5,1.7-2.3s0.5-1.9,0.5-3.3L30-182
			L30-182L30-182z M30.9-189.3c0,1.1-0.4,1.9-1.1,2.6c-0.7,0.7-1.7,1-2.8,1s-2-0.3-2.8-1c-0.7-0.7-1.1-1.6-1.1-2.6
			c0-1.1,0.4-1.9,1.1-2.6s1.6-1,2.8-1s2.1,0.3,2.8,1C30.5-191.3,30.9-190.4,30.9-189.3z"/>
		<path d="M41.6-166.6v-34.8h12.2c4.2,0,7.4,0.8,9.6,2.4c2.2,1.6,3.3,4,3.3,7.1c0,1.7-0.4,3.2-1.3,4.5s-2.1,2.3-3.7,2.9
			c1.8,0.4,3.2,1.3,4.2,2.7s1.5,3,1.5,5c0,3.3-1.1,5.9-3.2,7.6s-5.2,2.6-9.1,2.6H41.6z M48.7-186.8H54c3.6-0.1,5.4-1.5,5.4-4.3
			c0-1.6-0.5-2.7-1.4-3.4s-2.4-1-4.3-1h-5V-186.8z M48.7-181.8v9.4h6.1c1.7,0,3-0.4,4-1.2c0.9-0.8,1.4-1.9,1.4-3.3
			c0-3.2-1.7-4.8-5-4.9H48.7z"/>
		<path d="M87.9-169.2c-1.7,2.1-4.1,3.1-7.1,3.1c-2.8,0-4.9-0.8-6.4-2.4c-1.5-1.6-2.2-3.9-2.2-7v-17h6.9v16.7c0,2.7,1.2,4,3.7,4
			c2.3,0,4-0.8,4.8-2.4v-18.3h6.9v25.9h-6.4L87.9-169.2z"/>
		<path d="M113.8-173.8c0-0.8-0.4-1.5-1.3-2c-0.8-0.5-2.2-0.9-4-1.3c-6.2-1.3-9.2-3.9-9.2-7.8c0-2.3,1-4.2,2.9-5.8
			c1.9-1.5,4.4-2.3,7.5-2.3c3.3,0,5.9,0.8,7.9,2.3s3,3.6,3,6h-6.9c0-1-0.3-1.8-1-2.5c-0.6-0.6-1.6-1-3-1c-1.2,0-2.1,0.3-2.7,0.8
			s-1,1.2-1,2s0.4,1.4,1.1,1.9s1.9,0.9,3.7,1.2c1.8,0.3,3.2,0.7,4.4,1.2c3.7,1.3,5.5,3.7,5.5,7c0,2.4-1,4.3-3,5.7
			c-2,1.5-4.6,2.2-7.8,2.2c-2.2,0-4.1-0.4-5.8-1.2s-3-1.8-4-3.2c-1-1.3-1.4-2.8-1.4-4.4h6.6c0.1,1.2,0.5,2.2,1.4,2.8s2,1,3.4,1
			c1.3,0,2.3-0.3,3-0.8C113.5-172.3,113.8-172.9,113.8-173.8z"/>
		<path d="M135.7-171.7c1.3,0,2.3-0.4,3.1-1.1c0.8-0.7,1.2-1.6,1.2-2.8h6.5c0,1.8-0.5,3.4-1.4,4.8c-0.9,1.5-2.2,2.6-3.9,3.4
			c-1.6,0.8-3.4,1.2-5.4,1.2c-3.7,0-6.6-1.2-8.8-3.5c-2.1-2.4-3.2-5.6-3.2-9.8v-0.4c0-4,1.1-7.2,3.2-9.5c2.1-2.4,5-3.6,8.7-3.6
			c3.2,0,5.8,0.9,7.8,2.8c2,1.8,2.9,4.3,3,7.4h-6.4c0-1.3-0.4-2.4-1.2-3.3c-0.8-0.8-1.9-1.3-3.2-1.3c-1.6,0-2.8,0.6-3.6,1.8
			c-0.8,1.2-1.2,3.1-1.2,5.7v0.7c0,2.7,0.4,4.6,1.2,5.8C132.9-172.3,134.1-171.7,135.7-171.7z"/>
		<path d="M165.5-166.6c-0.3-0.6-0.5-1.4-0.7-2.3c-1.7,1.9-3.9,2.8-6.5,2.8c-2.5,0-4.6-0.7-6.3-2.2c-1.7-1.5-2.5-3.3-2.5-5.6
			c0-2.7,1-4.8,3.1-6.3c2-1.5,5-2.2,8.8-2.2h3.2v-1.5c0-1.2-0.3-2.2-0.9-2.9s-1.6-1.1-2.9-1.1c-1.2,0-2.1,0.3-2.7,0.8
			c-0.7,0.6-1,1.3-1,2.3h-7c0-1.5,0.5-2.9,1.4-4.2s2.2-2.3,3.9-3s3.6-1.1,5.7-1.1c3.2,0,5.7,0.8,7.6,2.4c1.9,1.6,2.8,3.9,2.8,6.8
			v11.2c0,2.5,0.4,4.3,1,5.6v0.4L165.5-166.6L165.5-166.6z M159.8-171.4c1,0,2-0.2,2.8-0.7c0.9-0.5,1.5-1.1,1.9-1.8v-4.5h-2.6
			c-3.5,0-5.3,1.2-5.5,3.6v0.4c0,0.9,0.3,1.6,0.9,2.1C157.9-171.7,158.8-171.4,159.8-171.4z M162.4-203.4h7.5l-6.6,7.4h-5.6
			L162.4-203.4z"/>
		<path d="M190.8-173.8c0-0.8-0.4-1.5-1.3-2c-0.8-0.5-2.2-0.9-4-1.3c-6.2-1.3-9.2-3.9-9.2-7.8c0-2.3,1-4.2,2.9-5.8
			c1.9-1.5,4.4-2.3,7.5-2.3c3.3,0,5.9,0.8,7.9,2.3s3,3.6,3,6h-6.9c0-1-0.3-1.8-1-2.5c-0.6-0.6-1.6-1-3-1c-1.2,0-2.1,0.3-2.7,0.8
			s-1,1.2-1,2s0.4,1.4,1.1,1.9s2,0.9,3.7,1.2s3.2,0.7,4.4,1.2c3.7,1.3,5.5,3.7,5.5,7c0,2.4-1,4.3-3,5.7c-2,1.5-4.6,2.2-7.8,2.2
			c-2.2,0-4.1-0.4-5.8-1.2c-1.7-0.8-3-1.8-4-3.2c-1-1.3-1.4-2.8-1.4-4.4h6.6c0.1,1.2,0.5,2.2,1.4,2.8c0.8,0.7,2,1,3.4,1
			c1.3,0,2.3-0.3,3-0.8C190.5-172.3,190.8-172.9,190.8-173.8z"/>
		<path d="M229.2-166.6c-0.3-0.6-0.6-1.4-0.7-2.3c-1.7,1.9-3.9,2.8-6.5,2.8c-2.5,0-4.6-0.7-6.3-2.2s-2.5-3.3-2.5-5.6
			c0-2.7,1-4.8,3.1-6.3c2-1.5,5-2.2,8.8-2.2h3.2v-1.5c0-1.2-0.3-2.2-0.9-2.9s-1.6-1.1-2.9-1.1c-1.2,0-2.1,0.3-2.7,0.8
			c-0.7,0.6-1,1.3-1,2.3h-6.9c0-1.5,0.5-2.9,1.4-4.2s2.2-2.3,3.9-3c1.7-0.7,3.6-1.1,5.7-1.1c3.2,0,5.7,0.8,7.6,2.4
			c1.9,1.6,2.8,3.9,2.8,6.8v11.2c0,2.5,0.4,4.3,1,5.6v0.4L229.2-166.6L229.2-166.6z M223.5-171.4c1,0,2-0.2,2.8-0.7
			c0.9-0.5,1.5-1.1,1.9-1.8v-4.5h-2.6c-3.5,0-5.3,1.2-5.5,3.6v0.4c0,0.9,0.3,1.6,0.9,2.1S222.4-171.4,223.5-171.4z"/>
		<path d="M247.8-166.6h-6.9v-36.8h6.9V-166.6z"/>
		<path d="M252.5-179.7c0-4,0.9-7.2,2.8-9.6c1.9-2.4,4.4-3.6,7.6-3.6c2.8,0,5,1,6.6,2.9l0.3-2.4h6.3v25c0,2.3-0.5,4.2-1.5,5.9
			s-2.5,3-4.3,3.8c-1.9,0.9-4.1,1.3-6.6,1.3c-1.9,0-3.7-0.4-5.6-1.1c-1.9-0.7-3.2-1.7-4.1-2.9l3.1-4.2c1.7,1.9,3.8,2.9,6.3,2.9
			c1.8,0,3.3-0.5,4.3-1.5s1.5-2.4,1.5-4.2v-1.4c-1.6,1.8-3.7,2.7-6.3,2.7c-3.1,0-5.6-1.2-7.5-3.6c-1.9-2.4-2.9-5.7-2.9-9.7
			L252.5-179.7L252.5-179.7z M259.4-179.2c0,2.3,0.5,4.2,1.4,5.5c0.9,1.3,2.2,2,3.9,2c2.1,0,3.6-0.8,4.5-2.4V-185
			c-0.9-1.6-2.4-2.4-4.5-2.4c-1.7,0-3,0.7-3.9,2C259.8-184,259.4-181.9,259.4-179.2z"/>
		<path d="M296.9-169.2c-1.7,2.1-4.1,3.1-7.1,3.1c-2.8,0-4.9-0.8-6.4-2.4c-1.5-1.6-2.2-3.9-2.2-7v-17h6.9v16.7c0,2.7,1.2,4,3.7,4
			c2.3,0,4-0.8,4.8-2.4v-18.3h6.9v25.9h-6.4L296.9-169.2z M293.8-203.4h7.5l-6.6,7.4h-5.6L293.8-203.4z"/>
		<path d="M315.2-192.5l0.2,3c1.8-2.3,4.3-3.5,7.4-3.5c2.7,0,4.8,0.8,6.1,2.4c1.3,1.6,2,4,2.1,7.2v16.7h-6.9v-16.5
			c0-1.5-0.3-2.5-1-3.2c-0.6-0.7-1.7-1-3.2-1c-1.9,0-3.4,0.8-4.4,2.5v18.3h-6.9v-25.9H315.2z"/>
		<path d="M359.3-171.7c1.3,0,2.3-0.4,3.1-1.1s1.2-1.6,1.2-2.8h6.5c0,1.8-0.5,3.4-1.4,4.8c-0.9,1.5-2.2,2.6-3.9,3.4
			c-1.6,0.8-3.4,1.2-5.4,1.2c-3.7,0-6.6-1.2-8.8-3.5c-2.1-2.4-3.2-5.6-3.2-9.8v-0.4c0-4,1.1-7.2,3.2-9.5c2.1-2.4,5-3.6,8.7-3.6
			c3.2,0,5.8,0.9,7.8,2.8c2,1.8,2.9,4.3,3,7.4h-6.5c0-1.3-0.4-2.4-1.2-3.3c-0.8-0.8-1.9-1.3-3.2-1.3c-1.6,0-2.8,0.6-3.6,1.8
			s-1.2,3.1-1.2,5.7v0.7c0,2.7,0.4,4.6,1.2,5.8C356.4-172.3,357.6-171.7,359.3-171.7z"/>
		<path d="M373-179.8c0-2.6,0.5-4.9,1.5-6.9s2.4-3.6,4.3-4.7c1.9-1.1,4-1.7,6.5-1.7c3.5,0,6.3,1.1,8.6,3.2c2.2,2.1,3.4,5,3.7,8.7
			v1.8c0,4-1.1,7.2-3.3,9.6c-2.2,2.4-5.2,3.6-8.9,3.6s-6.7-1.2-8.9-3.6c-2.2-2.4-3.3-5.6-3.3-9.8v-0.2L373-179.8L373-179.8z
			 M379.9-179.3c0,2.5,0.5,4.3,1.4,5.6s2.2,2,4,2c1.7,0,3-0.6,3.9-1.9s1.4-3.3,1.4-6.2c0-2.4-0.5-4.3-1.4-5.6s-2.3-2-4-2
			s-3,0.7-3.9,2C380.3-184.1,379.9-182.1,379.9-179.3z"/>
		<path d="M408.1-192.5l0.2,3c1.9-2.3,4.3-3.5,7.4-3.5c2.7,0,4.8,0.8,6.1,2.4c1.3,1.6,2,4,2.1,7.2v16.7H417v-16.5
			c0-1.5-0.3-2.5-1-3.2c-0.6-0.7-1.7-1-3.2-1c-1.9,0-3.4,0.8-4.4,2.5v18.3h-6.9v-25.9H408.1z"/>
		<path d="M440-171.7c1.3,0,2.3-0.4,3.1-1.1s1.2-1.6,1.2-2.8h6.5c0,1.8-0.5,3.4-1.4,4.8c-0.9,1.5-2.2,2.6-3.9,3.4
			c-1.6,0.8-3.4,1.2-5.4,1.2c-3.7,0-6.6-1.2-8.8-3.5c-2.1-2.4-3.2-5.6-3.2-9.8v-0.4c0-4,1.1-7.2,3.2-9.5c2.1-2.4,5-3.6,8.7-3.6
			c3.2,0,5.8,0.9,7.8,2.8c2,1.8,2.9,4.3,3,7.4h-6.5c0-1.3-0.4-2.4-1.2-3.3c-0.8-0.9-1.9-1.3-3.2-1.3c-1.6,0-2.8,0.6-3.6,1.8
			s-1.2,3.1-1.2,5.7v0.7c0,2.7,0.4,4.6,1.2,5.8C437.1-172.3,438.3-171.7,440-171.7z"/>
		<path d="M466.7-166.1c-3.8,0-6.9-1.2-9.3-3.5c-2.4-2.3-3.6-5.4-3.6-9.3v-0.7c0-2.6,0.5-4.9,1.5-7s2.4-3.6,4.3-4.7
			c1.8-1.1,3.9-1.7,6.3-1.7c3.5,0,6.3,1.1,8.4,3.3c2,2.2,3.1,5.4,3.1,9.5v2.8h-16.5c0.2,1.7,0.9,3,2,4.1c1.1,1,2.5,1.5,4.3,1.5
			c2.7,0,4.7-1,6.2-2.9l3.4,3.8c-1,1.5-2.4,2.6-4.2,3.4S468.8-166.1,466.7-166.1z M465.9-187.4c-1.4,0-2.5,0.5-3.3,1.4
			s-1.4,2.3-1.6,4h9.6v-0.6c0-1.5-0.4-2.7-1.2-3.6C468.5-187,467.3-187.4,465.9-187.4z"/>
		<path d="M504.5-179.3c0,4-0.9,7.2-2.7,9.6c-1.8,2.4-4.3,3.6-7.3,3.6c-2.6,0-4.7-0.9-6.3-2.7v12.2h-6.9v-35.9h6.4l0.2,2.5
			c1.7-2,3.9-3,6.6-3c3.2,0,5.7,1.2,7.4,3.5s2.7,5.6,2.7,9.8v0.4H504.5z M497.6-179.8c0-2.4-0.4-4.3-1.3-5.6c-0.9-1.3-2.1-2-3.7-2
			c-2.2,0-3.7,0.8-4.5,2.5v10.6c0.8,1.7,2.4,2.6,4.5,2.6C496-171.7,497.6-174.4,497.6-179.8z"/>
		<path d="M517.1-198.9v6.4h4.4v5.1h-4.4v12.9c0,1,0.2,1.6,0.6,2.1c0.4,0.4,1.1,0.6,2.1,0.6c0.8,0,1.4-0.1,2-0.2v5.2
			c-1.4,0.4-2.8,0.6-4.2,0.6c-4.8,0-7.3-2.4-7.4-7.3v-13.9h-3.8v-5.1h3.8v-6.4L517.1-198.9L517.1-198.9z"/>
		<path d="M523.6-179.8c0-2.6,0.5-4.9,1.5-6.9s2.4-3.6,4.3-4.7c1.9-1.1,4-1.7,6.5-1.7c3.5,0,6.3,1.1,8.6,3.2c2.3,2.1,3.4,5,3.7,8.7
			v1.8c0,4-1.1,7.2-3.3,9.6c-2.2,2.4-5.2,3.6-8.9,3.6s-6.7-1.2-8.9-3.6c-2.2-2.4-3.3-5.6-3.3-9.8v-0.2L523.6-179.8L523.6-179.8z
			 M530.5-179.3c0,2.5,0.5,4.3,1.4,5.6s2.2,2,4,2c1.7,0,3-0.6,3.9-1.9s1.4-3.3,1.4-6.2c0-2.4-0.5-4.3-1.4-5.6s-2.3-2-4-2
			s-3,0.7-3.9,2S530.5-182.1,530.5-179.3z"/>
		<path d="M575.3-171.7c1.3,0,2.3-0.4,3.1-1.1s1.2-1.6,1.2-2.8h6.5c0,1.8-0.5,3.4-1.4,4.8c-0.9,1.5-2.2,2.6-3.9,3.4
			c-1.6,0.8-3.4,1.2-5.4,1.2c-3.7,0-6.6-1.2-8.8-3.5c-2.1-2.4-3.2-5.6-3.2-9.8v-0.4c0-4,1.1-7.2,3.2-9.5c2.1-2.4,5-3.6,8.7-3.6
			c3.2,0,5.8,0.9,7.8,2.8c2,1.8,2.9,4.3,3,7.4h-6.5c0-1.3-0.4-2.4-1.2-3.3c-0.8-0.9-1.9-1.3-3.2-1.3c-1.6,0-2.8,0.6-3.6,1.8
			s-1.2,3.1-1.2,5.7v0.7c0,2.7,0.4,4.6,1.2,5.8C572.4-172.3,573.7-171.7,575.3-171.7z"/>
		<path d="M597.4-166.6h-6.9v-36.8h6.9V-166.6z"/>
		<path d="M618.1-166.6c-0.3-0.6-0.5-1.4-0.7-2.3c-1.7,1.9-3.9,2.8-6.5,2.8c-2.5,0-4.6-0.7-6.3-2.2s-2.5-3.3-2.5-5.6
			c0-2.7,1-4.8,3.1-6.3c2-1.5,5-2.2,8.8-2.2h3.2v-1.5c0-1.2-0.3-2.2-0.9-2.9c-0.6-0.7-1.6-1.1-2.9-1.1c-1.2,0-2.1,0.3-2.7,0.8
			c-0.7,0.6-1,1.3-1,2.3h-6.9c0-1.5,0.5-2.9,1.4-4.2s2.2-2.3,3.9-3s3.6-1.1,5.7-1.1c3.2,0,5.7,0.8,7.6,2.4c1.9,1.6,2.8,3.9,2.8,6.8
			v11.2c0,2.5,0.4,4.3,1,5.6v0.4L618.1-166.6L618.1-166.6z M612.4-171.4c1,0,2-0.2,2.8-0.7c0.9-0.5,1.5-1.1,1.9-1.8v-4.5h-2.6
			c-3.5,0-5.3,1.2-5.5,3.6v0.4c0,0.9,0.3,1.6,0.9,2.1C610.5-171.7,611.3-171.4,612.4-171.4z"/>
		<path d="M638.7-175l4.8-17.4h7.2l-8.7,25.9h-6.6l-8.7-25.9h7.2L638.7-175z"/>
		<path d="M665.4-166.1c-3.8,0-6.9-1.2-9.3-3.5c-2.4-2.3-3.6-5.4-3.6-9.3v-0.7c0-2.6,0.5-4.9,1.5-7s2.4-3.6,4.3-4.7
			c1.8-1.1,3.9-1.7,6.3-1.7c3.5,0,6.3,1.1,8.4,3.3c2,2.2,3.1,5.4,3.1,9.5v2.8h-16.5c0.2,1.7,0.9,3,2,4.1c1.1,1,2.5,1.5,4.3,1.5
			c2.7,0,4.7-1,6.2-2.9l3.4,3.8c-1,1.5-2.4,2.6-4.2,3.4S667.5-166.1,665.4-166.1z M664.6-187.4c-1.4,0-2.5,0.5-3.3,1.4
			s-1.4,2.3-1.6,4h9.6v-0.6c0-1.5-0.4-2.7-1.2-3.6C667.2-187,666.1-187.4,664.6-187.4z"/>
		<path d="M685.6-177.3c0-2.2,0.3-4,0.8-5.3s1.5-2.6,3-3.9c1.4-1.3,2.4-2.3,2.9-3.1s0.7-1.7,0.7-2.6c0-2.7-1.2-4-3.7-4
			c-1.2,0-2.1,0.4-2.8,1.1s-1.1,1.7-1.1,3h-6.9c0-3,1-5.4,3-7.2c1.9-1.7,4.6-2.6,7.9-2.6c3.4,0,6,0.8,7.9,2.5s2.8,3.9,2.8,6.9
			c0,1.4-0.3,2.6-0.9,3.8c-0.6,1.2-1.7,2.5-3.2,4l-1.9,1.8c-1.2,1.2-1.9,2.5-2.1,4.1l-0.1,1.5C691.9-177.3,685.6-177.3,685.6-177.3z
			 M684.9-169.9c0-1.1,0.4-1.9,1.1-2.6s1.7-1,2.8-1s2.1,0.3,2.8,1s1.1,1.6,1.1,2.6s-0.4,1.9-1.1,2.6s-1.6,1-2.8,1s-2.1-0.3-2.8-1
			C685.3-168,684.9-168.9,684.9-169.9z"/>
	</g>
	<g class="st0">
		<path d="M234.8-107.8h-4.6v-16.1h-17.6v16.1H208v-34.8h4.6v15h17.6v-15h4.6V-107.8z"/>
		<path d="M258.2-107.8c-0.3-0.5-0.5-1.4-0.6-2.7c-2.1,2.1-4.5,3.2-7.4,3.2c-2.6,0-4.6-0.7-6.3-2.2c-1.6-1.4-2.5-3.3-2.5-5.5
			c0-2.7,1-4.8,3.1-6.3c2-1.5,4.9-2.2,8.6-2.2h4.3v-2c0-1.5-0.5-2.8-1.4-3.7c-0.9-0.9-2.3-1.4-4.1-1.4c-1.6,0-2.9,0.4-4,1.2
			s-1.6,1.8-1.6,2.9h-4.5c0-1.3,0.5-2.5,1.4-3.7s2.2-2.2,3.7-2.9c1.6-0.7,3.3-1.1,5.2-1.1c3,0,5.3,0.7,7,2.2s2.6,3.5,2.6,6.2v11.9
			c0,2.4,0.3,4.3,0.9,5.7v0.4H258.2L258.2-107.8z M250.9-111.2c1.4,0,2.7-0.4,3.9-1.1s2.1-1.7,2.7-2.8v-5.3h-3.4
			c-5.4,0-8.1,1.6-8.1,4.8c0,1.4,0.5,2.5,1.4,3.3C248.2-111.6,249.4-111.2,250.9-111.2z"/>
		<path d="M279.3-110.9c1.6,0,3-0.5,4.1-1.4c1.2-1,1.8-2.2,2-3.6h4.2c-0.1,1.5-0.6,2.9-1.5,4.2c-0.9,1.3-2.2,2.4-3.8,3.2
			c-1.6,0.8-3.2,1.2-5,1.2c-3.5,0-6.3-1.2-8.4-3.5c-2.1-2.4-3.1-5.6-3.1-9.7v-0.7c0-2.5,0.5-4.8,1.4-6.7c0.9-2,2.3-3.5,4-4.6
			s3.8-1.6,6.1-1.6c2.9,0,5.3,0.9,7.2,2.6c1.9,1.7,2.9,4,3.1,6.8h-4.2c-0.1-1.7-0.8-3.1-1.9-4.1c-1.1-1.1-2.5-1.6-4.2-1.6
			c-2.2,0-4,0.8-5.2,2.4c-1.2,1.6-1.9,4-1.9,7v0.8c0,3,0.6,5.3,1.8,6.9C275.2-111.7,277-110.9,279.3-110.9z"/>
		<path d="M305.3-107.3c-3.5,0-6.4-1.2-8.6-3.5s-3.3-5.4-3.3-9.2v-0.8c0-2.6,0.5-4.9,1.5-6.9c1-2,2.4-3.6,4.1-4.7
			c1.8-1.1,3.7-1.7,5.7-1.7c3.4,0,6,1.1,7.8,3.3c1.9,2.2,2.8,5.4,2.8,9.5v1.8h-17.5c0.1,2.6,0.8,4.6,2.2,6.2s3.2,2.4,5.4,2.4
			c1.6,0,2.9-0.3,4-1c1.1-0.6,2-1.5,2.8-2.5l2.7,2.1C312.9-109,309.6-107.3,305.3-107.3z M304.7-130.5c-1.8,0-3.3,0.7-4.5,2
			s-2,3.1-2.2,5.5h13v-0.3c-0.1-2.2-0.7-4-1.8-5.2C308.1-129.9,306.6-130.5,304.7-130.5z M306.9-144.6h5.4l-6.4,7h-3.6L306.9-144.6z
			"/>
		<path d="M343-110.9c1.6,0,3-0.5,4.1-1.4c1.2-1,1.8-2.2,2-3.6h4.2c-0.1,1.5-0.6,2.9-1.5,4.2c-0.9,1.3-2.2,2.4-3.8,3.2
			c-1.6,0.8-3.2,1.2-5,1.2c-3.5,0-6.3-1.2-8.4-3.5c-2.1-2.4-3.1-5.6-3.1-9.7v-0.7c0-2.5,0.5-4.8,1.4-6.7c0.9-2,2.3-3.5,4-4.6
			s3.8-1.6,6.1-1.6c2.9,0,5.3,0.9,7.2,2.6c1.9,1.7,2.9,4,3.1,6.8h-4.2c-0.1-1.7-0.8-3.1-1.9-4.1c-1.1-1.1-2.5-1.6-4.2-1.6
			c-2.2,0-4,0.8-5.2,2.4c-1.2,1.6-1.9,4-1.9,7v0.8c0,3,0.6,5.3,1.8,6.9C339-111.7,340.7-110.9,343-110.9z"/>
		<path d="M363.1-107.8h-4.4v-36.8h4.4V-107.8z"/>
		<path d="M370.2-140.6c0-0.7,0.2-1.3,0.7-1.8c0.4-0.5,1.1-0.7,2-0.7s1.5,0.2,2,0.7c0.4,0.5,0.7,1.1,0.7,1.8s-0.2,1.3-0.7,1.8
			c-0.4,0.5-1.1,0.7-2,0.7s-1.5-0.2-2-0.7C370.4-139.2,370.2-139.8,370.2-140.6z M375-107.8h-4.4v-25.9h4.4V-107.8z"/>
		<path d="M392.4-110.9c1.6,0,3-0.5,4.1-1.4c1.2-1,1.8-2.2,2-3.6h4.2c-0.1,1.5-0.6,2.9-1.5,4.2s-2.2,2.4-3.8,3.2s-3.2,1.2-5,1.2
			c-3.5,0-6.3-1.2-8.4-3.5c-2.1-2.4-3.1-5.6-3.1-9.7v-0.7c0-2.5,0.5-4.8,1.4-6.7c0.9-2,2.3-3.5,4-4.6s3.8-1.6,6.1-1.6
			c2.9,0,5.3,0.9,7.2,2.6c1.9,1.7,2.9,4,3.1,6.8h-4.2c-0.1-1.7-0.8-3.1-1.9-4.1c-1.1-1.1-2.5-1.6-4.2-1.6c-2.2,0-4,0.8-5.2,2.4
			c-1.2,1.6-1.9,4-1.9,7v0.8c0,3,0.6,5.3,1.8,6.9C388.4-111.7,390.2-110.9,392.4-110.9z"/>
		<path d="M435.8-107.8c-0.3-0.5-0.5-1.4-0.6-2.7c-2.1,2.1-4.5,3.2-7.4,3.2c-2.6,0-4.6-0.7-6.3-2.2c-1.6-1.4-2.5-3.3-2.5-5.5
			c0-2.7,1-4.8,3.1-6.3c2-1.5,4.9-2.2,8.6-2.2h4.3v-2c0-1.5-0.5-2.8-1.4-3.7s-2.3-1.4-4.1-1.4c-1.6,0-2.9,0.4-4,1.2
			s-1.6,1.8-1.6,2.9h-4.5c0-1.3,0.5-2.5,1.4-3.7s2.2-2.2,3.7-2.9s3.3-1.1,5.2-1.1c3,0,5.3,0.7,7,2.2s2.6,3.5,2.6,6.2v11.9
			c0,2.4,0.3,4.3,0.9,5.7v0.4H435.8L435.8-107.8z M428.5-111.2c1.4,0,2.7-0.4,3.9-1.1s2.1-1.7,2.7-2.8v-5.3h-3.5
			c-5.4,0-8.1,1.6-8.1,4.8c0,1.4,0.5,2.5,1.4,3.3C425.8-111.6,427-111.2,428.5-111.2z"/>
		<path d="M445.4-121c0-4.1,0.9-7.3,2.8-9.7c1.9-2.4,4.4-3.6,7.5-3.6s5.5,1,7.2,3.1l0.2-2.6h4.1V-98h-4.4v-12.3
			c-1.8,1.9-4.2,2.9-7.1,2.9c-3.1,0-5.6-1.2-7.5-3.6s-2.8-5.7-2.8-9.7V-121z M449.8-120.5c0,3,0.6,5.3,1.9,7
			c1.3,1.7,2.9,2.5,5.1,2.5c2.6,0,4.6-1.2,6-3.5v-12.7c-1.4-2.3-3.4-3.4-6-3.4c-2.1,0-3.8,0.8-5.1,2.5
			C450.5-126.3,449.8-123.8,449.8-120.5z"/>
		<path d="M490.3-110.4c-1.7,2-4.3,3-7.6,3c-2.8,0-4.9-0.8-6.3-2.4c-1.4-1.6-2.2-4-2.2-7.1v-16.8h4.4v16.7c0,3.9,1.6,5.9,4.8,5.9
			c3.4,0,5.6-1.3,6.7-3.8v-18.8h4.4v25.9h-4.2L490.3-110.4z"/>
		<path d="M506.2-144.5h5.4l-6.4,7h-3.6L506.2-144.5z M506.2-107.8h-4.5v-25.9h4.5V-107.8z"/>
	</g>
</g>
<g>
	<path d="M14.2-122.6l-28-28c-4.2,6.5-9.7,12-16.2,16.2l28,28c4.5,4.5,11.7,4.5,16.2,0C18.7-110.8,18.7-118.1,14.2-122.6z"/>
	<path d="M-13-179.4c0-25.3-20.5-45.8-45.8-45.8s-45.8,20.5-45.8,45.8s20.5,45.8,45.8,45.8S-13-154.1-13-179.4z M-58.8-145
		c-18.9,0-34.4-15.4-34.4-34.4s15.4-34.4,34.4-34.4s34.4,15.4,34.4,34.4C-24.5-160.4-39.9-145-58.8-145z"/>
	<path d="M-85.6-179.4h7.6c0-10.5,8.6-19.1,19.1-19.1v-7.6C-73.6-206.1-85.6-194.1-85.6-179.4z"/>
</g>
<g>
	<path class="st1" d="M704.6-247.2c25.4,0,46,20.6,46,46v81c0,25.4-20.6,46-46,46h-784c-25.4,0-46-20.6-46-46v-81
		c0-25.4,20.6-46,46-46H704.6 M704.6-251.2h-784c-27.6,0-50,22.4-50,50v81c0,27.6,22.4,50,50,50h784c27.6,0,50-22.4,50-50v-81
		C754.6-228.8,732.3-251.2,704.6-251.2L704.6-251.2z"/>
</g>
<g>
	<g>
		<path d="M1116.6,500.2H1104v34.4h-8.6v-34.4h-12.5v-6.9h33.6L1116.6,500.2L1116.6,500.2z"/>
		<path d="M1132.5,535.2c-4.5,0-8.2-1.4-11-4.2s-4.3-6.5-4.3-11v-0.8c0-3,0.6-5.8,1.8-8.3c1.2-2.5,2.8-4.3,5-5.6
			c2.2-1.3,4.7-2,7.5-2c4.2,0,7.5,1.3,9.9,4s3.6,6.4,3.6,11.3v3.3h-19.6c0.3,2,1,3.6,2.4,4.8c1.3,1.2,3,1.8,5,1.8
			c3.1,0,5.6-1.1,7.4-3.4l4,4.6c-1.2,1.7-2.9,3.1-5,4.1C1137.4,534.7,1135.1,535.2,1132.5,535.2z M1131.6,510c-1.6,0-2.9,0.6-4,1.6
			c-1,1.1-1.6,2.7-1.9,4.8h11.4v-0.7c0-1.8-0.6-3.2-1.5-4.3C1134.7,510.5,1133.4,510,1131.6,510z"/>
		<path d="M1178.4,535.2c-4.5,0-8.2-1.4-11-4.2c-2.9-2.8-4.3-6.5-4.3-11v-0.8c0-3,0.6-5.8,1.8-8.3c1.2-2.5,2.8-4.3,5-5.6
			c2.2-1.3,4.7-2,7.5-2c4.2,0,7.5,1.3,9.9,4s3.6,6.4,3.6,11.3v3.3h-19.6c0.3,2,1,3.6,2.4,4.8c1.3,1.2,3,1.8,5,1.8
			c3.1,0,5.6-1.1,7.4-3.4l4,4.6c-1.2,1.7-2.8,3.1-5,4.1C1183.3,534.7,1181,535.2,1178.4,535.2z M1177.5,510c-1.6,0-2.9,0.6-4,1.6
			c-1,1.1-1.6,2.7-1.9,4.8h11.4v-0.7c0-1.8-0.6-3.2-1.5-4.3C1180.6,510.5,1179.2,510,1177.5,510z"/>
		<path d="M1212.3,526.2c0-1-0.5-1.8-1.5-2.4c-1-0.6-2.6-1-4.8-1.5c-7.3-1.5-10.9-4.7-10.9-9.3c0-2.8,1.1-5,3.4-6.8s5.2-2.8,8.8-2.8
			c3.9,0,7,0.9,9.3,2.8c2.4,1.8,3.5,4.2,3.5,7.1h-8.2c0-1.1-0.4-2.2-1.1-2.9c-0.7-0.7-1.9-1.1-3.5-1.1c-1.4,0-2.5,0.3-3.2,0.9
			c-0.8,0.7-1.1,1.4-1.1,2.4s0.5,1.6,1.3,2.2c0.9,0.6,2.3,1,4.4,1.4s3.8,0.9,5.1,1.3c4.4,1.6,6.5,4.4,6.5,8.3c0,2.8-1.2,5-3.6,6.8
			c-2.4,1.7-5.5,2.6-9.3,2.6c-2.6,0-4.8-0.5-6.8-1.3c-2-0.9-3.6-2.2-4.7-3.8s-1.7-3.3-1.7-5.2h7.8c0.1,1.4,0.6,2.6,1.6,3.3
			s2.4,1.1,4,1.1s2.8-0.3,3.6-0.9C1212,527.8,1212.3,527.1,1212.3,526.2z"/>
		<path d="M1253.2,519.6c0,4.8-1,8.6-3.2,11.4c-2.2,2.8-5,4.3-8.7,4.3c-3.1,0-5.6-1-7.5-3.2v14.4h-8.2v-42.6h7.6l0.3,3
			c2-2.4,4.6-3.6,7.8-3.6c3.8,0,6.7,1.4,8.8,4.2s3.1,6.7,3.1,11.6L1253.2,519.6L1253.2,519.6z M1245.1,519c0-2.9-0.5-5-1.5-6.7
			c-1-1.5-2.5-2.3-4.4-2.3c-2.6,0-4.4,1-5.3,2.9v12.5c1,2,2.8,3,5.3,3C1243.1,528.6,1245.1,525.4,1245.1,519z"/>
		<path d="M1272.4,535.2c-4.5,0-8.2-1.4-11-4.2c-2.9-2.8-4.3-6.5-4.3-11v-0.8c0-3,0.6-5.8,1.8-8.3c1.2-2.5,2.9-4.3,5-5.6
			c2.2-1.3,4.7-2,7.5-2c4.2,0,7.5,1.3,9.9,4s3.6,6.4,3.6,11.3v3.3h-19.6c0.3,2,1,3.6,2.4,4.8s3,1.8,5,1.8c3.1,0,5.6-1.1,7.4-3.4
			l4,4.6c-1.2,1.7-2.9,3.1-5,4.1C1277.4,534.7,1275,535.2,1272.4,535.2z M1271.5,510c-1.6,0-2.9,0.6-4,1.6c-1,1.1-1.6,2.7-1.9,4.8
			h11.4v-0.7c0-1.8-0.6-3.2-1.5-4.3C1274.6,510.5,1273.3,510,1271.5,510z"/>
		<path d="M1307,511.6c-1.1-0.2-2.1-0.2-2.9-0.2c-3.1,0-5.1,1-6.1,3.1v20.1h-8.2v-30.7h7.8l0.2,3.7c1.6-2.8,3.9-4.3,6.8-4.3
			c1,0,1.8,0.1,2.6,0.4L1307,511.6z"/>
		<path d="M1327.9,534.6c-0.4-0.8-0.7-1.6-0.9-2.8c-2,2.2-4.6,3.3-7.8,3.3c-3,0-5.5-0.9-7.5-2.6s-2.9-3.9-2.9-6.6
			c0-3.2,1.2-5.8,3.6-7.5s5.9-2.7,10.5-2.7h3.8v-1.8c0-1.4-0.4-2.6-1.1-3.4c-0.8-0.9-1.9-1.2-3.4-1.2c-1.4,0-2.5,0.3-3.2,0.9
			c-0.8,0.7-1.1,1.6-1.1,2.8h-8.2c0-1.8,0.6-3.4,1.6-4.9c1.1-1.5,2.7-2.7,4.7-3.6s4.3-1.3,6.7-1.3c3.8,0,6.7,0.9,9,2.8
			c2.2,1.9,3.3,4.6,3.3,8v13.3c0,2.9,0.4,5.1,1.2,6.6v0.5L1327.9,534.6L1327.9,534.6z M1321.1,528.9c1.2,0,2.3-0.3,3.3-0.9
			s1.8-1.2,2.3-2.2v-5.3h-3c-4.1,0-6.3,1.4-6.6,4.3v0.5c0,1,0.4,1.9,1,2.6C1318.8,528.5,1319.8,528.9,1321.1,528.9z"/>
		<path d="M1348.9,503.9l0.3,3.4c2.2-2.7,5.1-4,8.8-4c4,0,6.6,1.5,8.2,4.7c2.2-3.1,5.2-4.7,9.2-4.7c3.3,0,5.8,0.9,7.4,2.9
			c1.6,1.9,2.5,4.8,2.5,8.7v19.6h-8.3v-19.6c0-1.7-0.4-3-1-3.8s-1.9-1.2-3.6-1.2c-2.5,0-4.2,1.1-5.1,3.5v21.1h-8.2v-19.6
			c0-1.8-0.4-3-1-3.9c-0.7-0.8-1.9-1.2-3.6-1.2c-2.3,0-4,0.9-5,2.8v21.8h-8.2v-30.5L1348.9,503.9L1348.9,503.9z"/>
		<path d="M1390.3,519c0-3,0.6-5.8,1.8-8.2c1.1-2.4,2.9-4.3,5-5.5c2.2-1.3,4.8-2,7.7-2c4.2,0,7.5,1.2,10.2,3.8
			c2.7,2.6,4.1,6,4.4,10.4l0.1,2.1c0,4.8-1.3,8.5-4,11.3s-6.2,4.3-10.5,4.3c-4.5,0-8-1.4-10.6-4.3c-2.6-2.9-4-6.7-4-11.6L1390.3,519
			L1390.3,519z M1398.5,519.6c0,2.9,0.6,5.1,1.6,6.7c1.1,1.5,2.7,2.3,4.8,2.3c2,0,3.5-0.8,4.7-2.3s1.7-4,1.7-7.3
			c0-2.9-0.6-5-1.7-6.7s-2.7-2.4-4.8-2.4c-2,0-3.5,0.8-4.7,2.4C1399.1,513.9,1398.5,516.3,1398.5,519.6z"/>
		<path d="M1441.1,526.2c0-1-0.5-1.8-1.5-2.4c-1-0.6-2.6-1-4.8-1.5c-7.3-1.5-10.9-4.7-10.9-9.3c0-2.8,1.1-5,3.4-6.8s5.2-2.8,8.8-2.8
			c3.9,0,7,0.9,9.3,2.8c2.4,1.8,3.5,4.2,3.5,7.1h-8.2c0-1.1-0.4-2.2-1.1-2.9c-0.8-0.8-1.9-1.1-3.5-1.1c-1.4,0-2.5,0.3-3.2,0.9
			c-0.8,0.7-1.1,1.4-1.1,2.4s0.5,1.6,1.3,2.2c0.9,0.6,2.3,1,4.4,1.4s3.8,0.9,5.1,1.3c4.4,1.6,6.5,4.4,6.5,8.3c0,2.8-1.2,5-3.6,6.8
			c-2.4,1.7-5.5,2.6-9.3,2.6c-2.6,0-4.8-0.5-6.8-1.3c-2-0.9-3.6-2.2-4.7-3.8s-1.7-3.3-1.7-5.2h7.8c0.1,1.4,0.6,2.6,1.6,3.3
			c1,0.8,2.4,1.1,4,1.1s2.8-0.3,3.6-0.9C1440.7,527.9,1441.1,527.1,1441.1,526.2z"/>
		<path d="M1483,535.2c-4.5,0-8.2-1.4-11-4.2s-4.3-6.5-4.3-11v-0.8c0-3,0.6-5.8,1.8-8.3c1.2-2.5,2.9-4.3,5-5.6c2.2-1.3,4.7-2,7.5-2
			c4.2,0,7.5,1.3,9.9,4s3.6,6.4,3.6,11.3v3.3h-19.6c0.3,2,1,3.6,2.4,4.8s3,1.8,5,1.8c3.1,0,5.6-1.1,7.4-3.4l4,4.6
			c-1.2,1.7-2.9,3.1-5,4.1C1487.8,534.7,1485.5,535.2,1483,535.2z M1482,510c-1.6,0-2.9,0.6-4,1.6c-1,1.1-1.6,2.7-1.9,4.8h11.4v-0.7
			c0-1.8-0.6-3.2-1.5-4.3C1485.1,510.5,1483.7,510,1482,510z"/>
		<path d="M1507.8,503.9l0.3,3.5c2.2-2.8,5.1-4.1,8.8-4.1c3.2,0,5.7,0.9,7.2,2.8c1.6,1.9,2.4,4.8,2.5,8.5v19.9h-8.2v-19.7
			c0-1.7-0.4-3-1.1-3.8c-0.8-0.8-2-1.1-3.8-1.1c-2.3,0-4.1,1-5.2,2.9v21.7h-8.2v-30.6H1507.8z"/>
	</g>
</g>
<g>
	
		<linearGradient id="SVGID_1_" gradientUnits="userSpaceOnUse" x1="699.4221" y1="1759.1779" x2="585.578" y2="1873.0221" gradientTransform="matrix(1 0 0 1 0 -1708)">
		<stop  offset="1.104800e-03" style="stop-color:#FFE185"/>
		<stop  offset="0.2094" style="stop-color:#FFBB36"/>
		<stop  offset="0.3765" style="stop-color:#FF5176"/>
		<stop  offset="0.5238" style="stop-color:#F63395"/>
		<stop  offset="0.7394" style="stop-color:#A436D2"/>
		<stop  offset="1" style="stop-color:#5F4EED"/>
	</linearGradient>
	<circle class="st2" cx="642.5" cy="108.1" r="80.5"/>
	<g>
		<g>
			<path class="st1" d="M667.4,77.6c-3.1,0-5.6,2.5-5.6,5.6s2.5,5.6,5.6,5.6s5.6-2.5,5.6-5.6C673,80.1,670.6,77.6,667.4,77.6z"/>
			<path class="st1" d="M642.9,84.7c-12.8,0-23.3,10.4-23.3,23.3s10.4,23.3,23.3,23.3c12.8,0,23.3-10.4,23.3-23.3
				C666,95.1,655.6,84.7,642.9,84.7z M642.9,122.7c-8.2,0-14.9-6.7-14.9-14.9c0-8.2,6.7-14.9,14.9-14.9s14.9,6.7,14.9,14.9
				C657.8,116.2,651.1,122.7,642.9,122.7z"/>
			<path class="st1" d="M661.3,155.2h-37.7c-15.6,0-28.3-12.7-28.3-28.3V89.2c0-15.6,12.7-28.3,28.3-28.3h37.7
				c15.6,0,28.3,12.7,28.3,28.3v37.7C689.6,142.4,676.9,155.2,661.3,155.2z M623.6,69.7c-10.7,0-19.5,8.8-19.5,19.5v37.7
				c0,10.7,8.8,19.5,19.5,19.5h37.7c10.7,0,19.5-8.8,19.5-19.5V89.3c0-10.7-8.8-19.5-19.5-19.5L623.6,69.7L623.6,69.7z"/>
		</g>
	</g>
</g>
<g class="st0">
	<path d="M82.3,349.8c0,2.1-0.2,3.8-0.7,5.1c-0.5,1.3-1.4,2.6-2.6,3.7c-1.3,1.2-2.1,2.1-2.6,2.6c-0.5,0.6-0.8,1.2-1,1.7
		c-0.2,0.6-0.3,1.2-0.3,1.9c0,2.5,1.2,3.8,3.7,3.8c1.2,0,2.2-0.4,2.9-1.1s1.1-1.7,1.1-3h6.9c0,3.1-1,5.5-2.9,7.2s-4.6,2.6-7.9,2.6
		c-3.4,0-6-0.8-7.9-2.4s-2.8-3.9-2.8-6.9c0-2.5,1.2-5,3.7-7.5l2.3-2.2c0.8-0.7,1.4-1.5,1.7-2.3s0.5-1.9,0.5-3.3L82.3,349.8
		L82.3,349.8z M83.2,342.5c0,1.1-0.4,1.9-1.1,2.6c-0.7,0.7-1.7,1-2.8,1s-2-0.3-2.8-1c-0.7-0.7-1.1-1.6-1.1-2.6
		c0-1.1,0.4-1.9,1.1-2.6c0.7-0.7,1.6-1,2.8-1s2.1,0.3,2.8,1S83.2,341.4,83.2,342.5z"/>
	<path d="M122.2,365.2H115l-14-22.9v22.9h-7.2v-34.8h7.2l14,23v-23h7.2V365.2z"/>
	<path d="M139.9,365.7c-3.8,0-6.9-1.2-9.3-3.5s-3.6-5.4-3.6-9.3v-0.7c0-2.6,0.5-4.9,1.5-7s2.4-3.6,4.3-4.7c1.8-1.1,3.9-1.7,6.3-1.7
		c3.5,0,6.3,1.1,8.4,3.3c2,2.2,3.1,5.4,3.1,9.5v2.8h-16.5c0.2,1.7,0.9,3,2,4.1c1.1,1,2.5,1.5,4.3,1.5c2.7,0,4.7-1,6.2-2.9l3.4,3.8
		c-1,1.5-2.4,2.6-4.2,3.4S142.1,365.7,139.9,365.7z M139.1,344.4c-1.4,0-2.5,0.5-3.3,1.4c-0.9,0.9-1.4,2.3-1.6,4h9.6v-0.6
		c0-1.5-0.4-2.7-1.2-3.6C141.7,344.9,140.6,344.4,139.1,344.4z"/>
	<path d="M165.3,360.1c1.3,0,2.3-0.4,3.1-1.1c0.8-0.7,1.2-1.6,1.2-2.8h6.5c0,1.8-0.5,3.4-1.4,4.8c-0.9,1.5-2.2,2.6-3.9,3.4
		c-1.6,0.8-3.4,1.2-5.4,1.2c-3.7,0-6.6-1.2-8.8-3.5c-2.1-2.4-3.2-5.6-3.2-9.8V352c0-4,1.1-7.2,3.2-9.5c2.1-2.4,5-3.6,8.7-3.6
		c3.2,0,5.8,0.9,7.8,2.8c2,1.8,2.9,4.3,3,7.4h-6.5c0-1.3-0.4-2.4-1.2-3.3c-0.8-0.8-1.9-1.3-3.2-1.3c-1.6,0-2.8,0.6-3.6,1.8
		c-0.8,1.2-1.2,3.1-1.2,5.7v0.7c0,2.7,0.4,4.6,1.2,5.8C162.4,359.5,163.6,360.1,165.3,360.1z"/>
	<path d="M192,365.7c-3.8,0-6.9-1.2-9.3-3.5s-3.6-5.4-3.6-9.3v-0.7c0-2.6,0.5-4.9,1.5-7s2.4-3.6,4.3-4.7c1.8-1.1,3.9-1.7,6.3-1.7
		c3.5,0,6.3,1.1,8.4,3.3c2,2.2,3.1,5.4,3.1,9.5v2.8h-16.6c0.2,1.7,0.9,3,2,4.1c1.1,1,2.5,1.5,4.3,1.5c2.7,0,4.7-1,6.2-2.9l3.4,3.8
		c-1,1.5-2.4,2.6-4.2,3.4S194.1,365.7,192,365.7z M191.2,344.4c-1.4,0-2.5,0.5-3.3,1.4c-0.9,0.9-1.4,2.3-1.6,4h9.6v-0.6
		c0-1.5-0.4-2.7-1.2-3.6C193.8,344.9,192.6,344.4,191.2,344.4z"/>
	<path d="M220.6,358.1c0-0.8-0.4-1.5-1.3-2c-0.8-0.5-2.2-0.9-4-1.3c-6.2-1.3-9.2-3.9-9.2-7.8c0-2.3,1-4.2,2.9-5.8
		c1.9-1.5,4.4-2.3,7.5-2.3c3.3,0,5.9,0.8,7.9,2.3s3,3.6,3,6h-6.9c0-1-0.3-1.8-1-2.5c-0.6-0.6-1.6-1-3-1c-1.2,0-2.1,0.3-2.7,0.8
		s-1,1.2-1,2s0.4,1.4,1.1,1.9s1.9,0.9,3.7,1.2s3.2,0.7,4.4,1.2c3.7,1.3,5.5,3.7,5.5,7c0,2.4-1,4.3-3,5.7c-2,1.5-4.6,2.2-7.8,2.2
		c-2.2,0-4.1-0.4-5.8-1.2c-1.7-0.8-3-1.8-4-3.2c-1-1.3-1.4-2.8-1.4-4.4h6.6c0.1,1.2,0.5,2.2,1.4,2.8c0.8,0.7,2,1,3.4,1
		c1.3,0,2.3-0.3,3-0.8C220.2,359.5,220.6,358.9,220.6,358.1z"/>
	<path d="M231.7,332.6c0-1,0.3-1.9,1-2.6s1.6-1,2.8-1c1.2,0,2.1,0.3,2.8,1c0.7,0.7,1.1,1.5,1.1,2.6s-0.4,1.9-1.1,2.6s-1.6,1-2.8,1
		c-1.2,0-2.1-0.3-2.8-1C232,334.5,231.7,333.7,231.7,332.6z M239,365.2h-6.9v-25.9h6.9V365.2z"/>
	<path d="M253,333v6.4h4.4v5.1H253v12.9c0,1,0.2,1.6,0.6,2.1c0.4,0.4,1.1,0.6,2.1,0.6c0.8,0,1.4-0.1,2-0.2v5.2
		c-1.4,0.4-2.8,0.6-4.2,0.6c-4.8,0-7.3-2.4-7.4-7.3v-13.9h-3.8v-5.1h3.8V333H253z"/>
	<path d="M276.3,365.2c-0.3-0.6-0.6-1.4-0.7-2.3c-1.7,1.9-3.9,2.8-6.5,2.8c-2.5,0-4.6-0.7-6.3-2.2s-2.5-3.3-2.5-5.6
		c0-2.7,1-4.8,3.1-6.3c2-1.5,5-2.2,8.8-2.2h3.2v-1.5c0-1.2-0.3-2.2-0.9-2.9c-0.6-0.7-1.6-1.1-2.9-1.1c-1.2,0-2.1,0.3-2.7,0.8
		c-0.7,0.6-1,1.3-1,2.3H261c0-1.5,0.5-2.9,1.4-4.2c0.9-1.3,2.2-2.3,3.9-3c1.7-0.7,3.6-1.1,5.7-1.1c3.2,0,5.7,0.8,7.6,2.4
		c1.9,1.6,2.8,3.9,2.8,6.8v11.2c0,2.5,0.4,4.3,1,5.6v0.4h-7.1V365.2z M270.6,360.4c1,0,2-0.2,2.8-0.7c0.9-0.5,1.5-1.1,1.9-1.8v-4.5
		h-2.6c-3.5,0-5.3,1.2-5.5,3.6v0.4c0,0.9,0.3,1.6,0.9,2.1C268.7,360.1,269.5,360.4,270.6,360.4z M273.2,328.5h7.5l-6.6,7.4h-5.6
		L273.2,328.5z"/>
	<path d="M301.6,358.1c0-0.8-0.4-1.5-1.3-2c-0.8-0.5-2.2-0.9-4-1.3c-6.2-1.3-9.2-3.9-9.2-7.8c0-2.3,1-4.2,2.9-5.8
		c1.9-1.5,4.4-2.3,7.5-2.3c3.3,0,5.9,0.8,7.9,2.3s3,3.6,3,6h-6.9c0-1-0.3-1.8-1-2.5c-0.6-0.6-1.6-1-3-1c-1.2,0-2.1,0.3-2.7,0.8
		c-0.6,0.5-1,1.2-1,2s0.4,1.4,1.1,1.9s1.9,0.9,3.7,1.2c1.8,0.3,3.2,0.7,4.4,1.2c3.7,1.3,5.5,3.7,5.5,7c0,2.4-1,4.3-3,5.7
		c-2,1.5-4.6,2.2-7.8,2.2c-2.2,0-4.1-0.4-5.8-1.2c-1.7-0.8-3-1.8-4-3.2c-1-1.3-1.4-2.8-1.4-4.4h6.6c0.1,1.2,0.5,2.2,1.4,2.8
		c0.8,0.7,2,1,3.4,1c1.3,0,2.3-0.3,3-0.8C301.2,359.5,301.6,358.9,301.6,358.1z"/>
	<path d="M339.9,365.2c-0.3-0.6-0.6-1.4-0.7-2.3c-1.7,1.9-3.9,2.8-6.5,2.8c-2.5,0-4.6-0.7-6.3-2.2s-2.5-3.3-2.5-5.6
		c0-2.7,1-4.8,3.1-6.3c2-1.5,5-2.2,8.8-2.2h3.2v-1.5c0-1.2-0.3-2.2-0.9-2.9c-0.6-0.7-1.6-1.1-2.9-1.1c-1.2,0-2.1,0.3-2.7,0.8
		c-0.7,0.6-1,1.3-1,2.3h-6.9c0-1.5,0.5-2.9,1.4-4.2c0.9-1.3,2.2-2.3,3.9-3c1.7-0.7,3.6-1.1,5.7-1.1c3.2,0,5.7,0.8,7.6,2.4
		c1.9,1.6,2.8,3.9,2.8,6.8v11.2c0,2.5,0.4,4.3,1,5.6v0.4h-7.1V365.2z M334.2,360.4c1,0,2-0.2,2.8-0.7c0.9-0.5,1.5-1.1,1.9-1.8v-4.5
		h-2.6c-3.5,0-5.3,1.2-5.5,3.6v0.4c0,0.9,0.3,1.6,0.9,2.1C332.3,360.1,333.2,360.4,334.2,360.4z"/>
	<path d="M360.5,355.4l4.8-16.1h7.4l-10.4,29.9l-0.6,1.4c-1.5,3.4-4.1,5.1-7.7,5.1c-1,0-2-0.2-3.1-0.5V370h1.1
		c1.3,0,2.3-0.2,2.9-0.6c0.6-0.4,1.2-1.1,1.5-2l0.8-2.1l-9.1-26h7.4L360.5,355.4z"/>
	<path d="M391,362.6c-1.7,2.1-4.1,3.1-7.1,3.1c-2.8,0-4.9-0.8-6.4-2.4s-2.2-3.9-2.2-7v-17h6.9V356c0,2.7,1.2,4,3.7,4
		c2.3,0,4-0.8,4.8-2.4v-18.3h6.9v25.9h-6.5L391,362.6z"/>
	<path d="M401.8,352.1c0-4,0.9-7.3,2.7-9.6c1.8-2.4,4.3-3.6,7.4-3.6c2.5,0,4.6,0.9,6.2,2.8v-13.2h6.9v36.8h-6.2l-0.3-2.8
		c-1.7,2.2-3.9,3.2-6.7,3.2c-3,0-5.5-1.2-7.3-3.6C402.7,359.7,401.8,356.4,401.8,352.1z M408.7,352.6c0,2.4,0.4,4.3,1.3,5.6
		c0.8,1.3,2.1,1.9,3.7,1.9c2.1,0,3.6-0.9,4.5-2.7v-10.2c-0.9-1.8-2.4-2.7-4.5-2.7C410.4,344.5,408.7,347.2,408.7,352.6z"/>
	<path d="M445.5,365.2c-0.3-0.6-0.6-1.4-0.7-2.3c-1.7,1.9-3.9,2.8-6.5,2.8c-2.5,0-4.6-0.7-6.3-2.2s-2.5-3.3-2.5-5.6
		c0-2.7,1-4.8,3.1-6.3c2-1.5,5-2.2,8.8-2.2h3.2v-1.5c0-1.2-0.3-2.2-0.9-2.9c-0.6-0.7-1.6-1.1-2.9-1.1c-1.2,0-2.1,0.3-2.7,0.8
		c-0.7,0.6-1,1.3-1,2.3h-6.9c0-1.5,0.5-2.9,1.4-4.2c0.9-1.3,2.2-2.3,3.9-3s3.6-1.1,5.7-1.1c3.2,0,5.7,0.8,7.6,2.4
		c1.9,1.6,2.8,3.9,2.8,6.8v11.2c0,2.5,0.4,4.3,1,5.6v0.4h-7.1L445.5,365.2L445.5,365.2z M439.8,360.4c1,0,2-0.2,2.8-0.7
		c0.9-0.5,1.5-1.1,1.9-1.8v-4.5h-2.6c-3.5,0-5.3,1.2-5.5,3.6v0.4c0,0.9,0.3,1.6,0.9,2.1C437.9,360.1,438.7,360.4,439.8,360.4z"/>
	<path d="M477.2,333v6.4h4.4v5.1h-4.4v12.9c0,1,0.2,1.6,0.6,2.1c0.4,0.4,1.1,0.6,2.1,0.6c0.8,0,1.4-0.1,2-0.2v5.2
		c-1.4,0.4-2.8,0.6-4.2,0.6c-4.8,0-7.3-2.4-7.4-7.3v-13.9h-3.8v-5.1h3.8V333H477.2z"/>
	<path d="M497.4,365.7c-3.8,0-6.9-1.2-9.3-3.5c-2.4-2.3-3.6-5.4-3.6-9.3v-0.7c0-2.6,0.5-4.9,1.5-7s2.4-3.6,4.3-4.7
		c1.8-1.1,3.9-1.7,6.3-1.7c3.5,0,6.3,1.1,8.4,3.3c2,2.2,3.1,5.4,3.1,9.5v2.8h-16.5c0.2,1.7,0.9,3,2,4.1c1.1,1,2.5,1.5,4.3,1.5
		c2.7,0,4.7-1,6.2-2.9l3.4,3.8c-1,1.5-2.4,2.6-4.2,3.4S499.6,365.7,497.4,365.7z M496.6,344.4c-1.4,0-2.5,0.5-3.3,1.4
		s-1.4,2.3-1.6,4h9.6v-0.6c0-1.5-0.4-2.7-1.2-3.6C499.2,344.9,498.1,344.4,496.6,344.4z M497.3,328.5h7.5l-6.6,7.4h-5.6L497.3,328.5
		z"/>
	<path d="M522.8,360.1c1.3,0,2.3-0.4,3.1-1.1s1.2-1.6,1.2-2.8h6.5c0,1.8-0.5,3.4-1.4,4.8c-0.9,1.5-2.2,2.6-3.9,3.4
		c-1.6,0.8-3.4,1.2-5.4,1.2c-3.7,0-6.6-1.2-8.8-3.5c-2.1-2.4-3.2-5.6-3.2-9.8V352c0-4,1.1-7.2,3.2-9.5c2.1-2.4,5-3.6,8.7-3.6
		c3.2,0,5.8,0.9,7.8,2.8c2,1.8,2.9,4.3,3,7.4h-6.5c0-1.3-0.4-2.4-1.2-3.3c-0.8-0.8-1.9-1.3-3.2-1.3c-1.6,0-2.8,0.6-3.6,1.8
		c-0.8,1.2-1.2,3.1-1.2,5.7v0.7c0,2.7,0.4,4.6,1.2,5.8C519.9,359.5,521.1,360.1,522.8,360.1z"/>
	<path d="M543.9,339.3l0.2,3c1.9-2.3,4.3-3.5,7.4-3.5c2.7,0,4.8,0.8,6.1,2.4s2,4,2.1,7.2v16.7h-6.9v-16.6c0-1.5-0.3-2.5-1-3.2
		c-0.6-0.7-1.7-1-3.2-1c-1.9,0-3.4,0.8-4.4,2.5v18.3h-6.9v-25.9h6.6L543.9,339.3L543.9,339.3z"/>
	<path d="M564.9,332.6c0-1,0.3-1.9,1-2.6s1.6-1,2.8-1s2.1,0.3,2.8,1s1.1,1.5,1.1,2.6s-0.4,1.9-1.1,2.6s-1.6,1-2.8,1s-2.1-0.3-2.8-1
		C565.3,334.5,564.9,333.7,564.9,332.6z M572.3,365.2h-6.9v-25.9h6.9V365.2z"/>
	<path d="M588.8,360.1c1.3,0,2.3-0.4,3.1-1.1s1.2-1.6,1.2-2.8h6.5c0,1.8-0.5,3.4-1.4,4.8c-0.9,1.5-2.2,2.6-3.9,3.4
		c-1.6,0.8-3.4,1.2-5.4,1.2c-3.7,0-6.6-1.2-8.8-3.5c-2.1-2.4-3.2-5.6-3.2-9.8V352c0-4,1.1-7.2,3.2-9.5c2.1-2.4,5-3.6,8.7-3.6
		c3.2,0,5.8,0.9,7.8,2.8c2,1.8,2.9,4.3,3,7.4h-6.5c0-1.3-0.4-2.4-1.2-3.3c-0.8-0.8-1.9-1.3-3.2-1.3c-1.6,0-2.8,0.6-3.6,1.8
		c-0.8,1.2-1.2,3.1-1.2,5.7v0.7c0,2.7,0.4,4.6,1.2,5.8C585.9,359.5,587.1,360.1,588.8,360.1z"/>
	<path d="M618.5,365.2c-0.3-0.6-0.5-1.4-0.7-2.3c-1.7,1.9-3.9,2.8-6.5,2.8c-2.5,0-4.6-0.7-6.3-2.2s-2.5-3.3-2.5-5.6
		c0-2.7,1-4.8,3.1-6.3c2-1.5,5-2.2,8.8-2.2h3.2v-1.5c0-1.2-0.3-2.2-0.9-2.9c-0.6-0.7-1.6-1.1-2.9-1.1c-1.2,0-2.1,0.3-2.7,0.8
		c-0.7,0.6-1,1.3-1,2.3h-7c0-1.5,0.5-2.9,1.4-4.2c0.9-1.3,2.2-2.3,3.9-3s3.6-1.1,5.7-1.1c3.2,0,5.7,0.8,7.6,2.4
		c1.9,1.6,2.8,3.9,2.8,6.8v11.2c0,2.5,0.4,4.3,1,5.6v0.4h-7L618.5,365.2L618.5,365.2z M612.8,360.4c1,0,2-0.2,2.8-0.7
		c0.9-0.5,1.5-1.1,1.9-1.8v-4.5h-2.6c-3.5,0-5.3,1.2-5.5,3.6v0.4c0,0.9,0.3,1.6,0.9,2.1C610.9,360.1,611.8,360.4,612.8,360.4z"/>
	<path d="M635.5,354.6c0-2.2,0.3-4,0.8-5.3s1.5-2.6,3-3.9c1.4-1.3,2.4-2.3,2.9-3.1s0.7-1.7,0.7-2.6c0-2.7-1.2-4-3.7-4
		c-1.2,0-2.1,0.4-2.8,1.1s-1.1,1.7-1.1,3h-6.9c0-3,1-5.4,3-7.2c1.9-1.7,4.6-2.6,7.9-2.6c3.4,0,6,0.8,7.9,2.5s2.8,3.9,2.8,6.9
		c0,1.4-0.3,2.6-0.9,3.8c-0.6,1.2-1.7,2.5-3.2,4L644,349c-1.2,1.2-1.9,2.5-2.1,4.1l-0.1,1.5L635.5,354.6L635.5,354.6z M634.8,361.9
		c0-1.1,0.4-1.9,1.1-2.6s1.7-1,2.8-1s2.1,0.3,2.8,1s1.1,1.6,1.1,2.6s-0.4,1.9-1.1,2.6s-1.6,1-2.8,1s-2.1-0.3-2.8-1
		C635.1,363.8,634.8,362.9,634.8,361.9z"/>
</g>
<g class="st0">
	<path d="M236,424h-4.6v-16.1h-17.6V424h-4.6v-34.8h4.6v15h17.6v-15h4.6V424z"/>
	<path d="M259.4,424c-0.3-0.5-0.5-1.4-0.6-2.7c-2.1,2.1-4.5,3.2-7.4,3.2c-2.6,0-4.6-0.7-6.3-2.2s-2.5-3.3-2.5-5.5
		c0-2.7,1-4.8,3.1-6.3s4.9-2.2,8.6-2.2h4.3v-2c0-1.5-0.5-2.8-1.4-3.7c-0.9-0.9-2.3-1.4-4.1-1.4c-1.6,0-2.9,0.4-4,1.2
		c-1.1,0.8-1.6,1.8-1.6,2.9H243c0-1.3,0.5-2.5,1.4-3.7s2.2-2.2,3.7-2.9c1.6-0.7,3.3-1.1,5.2-1.1c3,0,5.3,0.7,7,2.2s2.6,3.5,2.6,6.2
		v12c0,2.4,0.3,4.3,0.9,5.7v0.4h-4.4L259.4,424L259.4,424z M252.1,420.6c1.4,0,2.7-0.4,3.9-1.1c1.2-0.7,2.1-1.7,2.7-2.8v-5.3h-3.5
		c-5.4,0-8.1,1.6-8.1,4.8c0,1.4,0.5,2.5,1.4,3.3S250.6,420.6,252.1,420.6z"/>
	<path d="M280.5,420.9c1.6,0,3-0.5,4.1-1.4c1.2-1,1.8-2.2,2-3.6h4.2c-0.1,1.5-0.6,2.9-1.5,4.2c-0.9,1.3-2.2,2.4-3.8,3.2
		c-1.6,0.8-3.2,1.2-5,1.2c-3.5,0-6.3-1.2-8.4-3.5c-2.1-2.4-3.1-5.6-3.1-9.7v-0.7c0-2.5,0.5-4.8,1.4-6.7c0.9-2,2.3-3.5,4-4.6
		s3.8-1.6,6.1-1.6c2.9,0,5.3,0.9,7.2,2.6s2.9,4,3.1,6.8h-4.2c-0.1-1.7-0.8-3.1-1.9-4.1c-1.1-1.1-2.5-1.6-4.2-1.6
		c-2.2,0-4,0.8-5.2,2.4s-1.9,4-1.9,7v0.8c0,3,0.6,5.3,1.8,6.9C276.4,420.1,278.2,420.9,280.5,420.9z"/>
	<path d="M306.5,424.5c-3.5,0-6.4-1.2-8.6-3.5s-3.3-5.4-3.3-9.2V411c0-2.6,0.5-4.9,1.5-6.9s2.4-3.6,4.1-4.7c1.8-1.1,3.7-1.7,5.7-1.7
		c3.4,0,6,1.1,7.8,3.3c1.9,2.2,2.8,5.4,2.8,9.5v1.8H299c0.1,2.6,0.8,4.6,2.2,6.2c1.4,1.6,3.2,2.4,5.4,2.4c1.6,0,2.9-0.3,4-1
		c1.1-0.6,2-1.5,2.8-2.5l2.7,2.1C314.1,422.8,310.8,424.5,306.5,424.5z M305.9,401.3c-1.8,0-3.3,0.7-4.5,2s-2,3.1-2.2,5.5h13v-0.3
		c-0.1-2.2-0.7-4-1.8-5.2S307.8,401.3,305.9,401.3z M308.1,387.3h5.4l-6.4,7h-3.6L308.1,387.3z"/>
	<path d="M344.2,420.9c1.6,0,3-0.5,4.1-1.4c1.2-1,1.8-2.2,2-3.6h4.2c-0.1,1.5-0.6,2.9-1.5,4.2c-0.9,1.3-2.2,2.4-3.8,3.2
		c-1.6,0.8-3.2,1.2-5,1.2c-3.5,0-6.3-1.2-8.4-3.5c-2.1-2.4-3.1-5.6-3.1-9.7v-0.7c0-2.5,0.5-4.8,1.4-6.7c0.9-2,2.3-3.5,4-4.6
		s3.8-1.6,6.1-1.6c2.9,0,5.3,0.9,7.2,2.6s2.9,4,3.1,6.8h-4.2c-0.1-1.7-0.8-3.1-1.9-4.1c-1.1-1.1-2.5-1.6-4.2-1.6
		c-2.2,0-4,0.8-5.2,2.4s-1.9,4-1.9,7v0.8c0,3,0.6,5.3,1.8,6.9C340.1,420.1,341.9,420.9,344.2,420.9z"/>
	<path d="M364.3,424h-4.4v-36.8h4.4V424z"/>
	<path d="M371.4,391.3c0-0.7,0.2-1.3,0.7-1.8c0.4-0.5,1.1-0.7,2-0.7s1.5,0.2,2,0.7c0.4,0.5,0.7,1.1,0.7,1.8c0,0.7-0.2,1.3-0.7,1.8
		c-0.4,0.5-1.1,0.7-2,0.7s-1.5-0.2-2-0.7S371.4,392,371.4,391.3z M376.2,424h-4.4v-25.9h4.4V424z"/>
	<path d="M393.6,420.9c1.6,0,3-0.5,4.1-1.4c1.2-1,1.8-2.2,2-3.6h4.2c-0.1,1.5-0.6,2.9-1.5,4.2s-2.2,2.4-3.8,3.2
		c-1.6,0.8-3.2,1.2-5,1.2c-3.5,0-6.3-1.2-8.4-3.5c-2.1-2.4-3.1-5.6-3.1-9.7v-0.7c0-2.5,0.5-4.8,1.4-6.7c0.9-2,2.3-3.5,4-4.6
		s3.8-1.6,6.1-1.6c2.9,0,5.3,0.9,7.2,2.6s2.9,4,3.1,6.8h-4.2c-0.1-1.7-0.8-3.1-1.9-4.1c-1.1-1.1-2.5-1.6-4.2-1.6
		c-2.2,0-4,0.8-5.2,2.4s-1.9,4-1.9,7v0.8c0,3,0.6,5.3,1.8,6.9S391.4,420.9,393.6,420.9z"/>
	<path d="M437,424c-0.3-0.5-0.5-1.4-0.6-2.7c-2.1,2.1-4.5,3.2-7.4,3.2c-2.6,0-4.6-0.7-6.3-2.2c-1.6-1.4-2.5-3.3-2.5-5.5
		c0-2.7,1-4.8,3.1-6.3c2-1.5,4.9-2.2,8.6-2.2h4.3v-2c0-1.5-0.5-2.8-1.4-3.7c-0.9-0.9-2.3-1.4-4.1-1.4c-1.6,0-2.9,0.4-4,1.2
		c-1.1,0.8-1.6,1.8-1.6,2.9h-4.5c0-1.3,0.5-2.5,1.4-3.7s2.2-2.2,3.7-2.9s3.3-1.1,5.2-1.1c3,0,5.3,0.7,7,2.2s2.6,3.5,2.6,6.2v12
		c0,2.4,0.3,4.3,0.9,5.7v0.4H437V424z M429.7,420.6c1.4,0,2.7-0.4,3.9-1.1s2.1-1.7,2.7-2.8v-5.3h-3.5c-5.4,0-8.1,1.6-8.1,4.8
		c0,1.4,0.5,2.5,1.4,3.3C427,420.3,428.2,420.6,429.7,420.6z"/>
	<path d="M446.6,410.9c0-4.1,0.9-7.3,2.8-9.7c1.9-2.4,4.4-3.6,7.5-3.6s5.5,1,7.2,3.1l0.2-2.6h4.1V434H464v-12.3
		c-1.8,1.9-4.2,2.9-7.1,2.9c-3.1,0-5.6-1.2-7.5-3.6s-2.8-5.7-2.8-9.7V410.9z M451,411.4c0,3,0.6,5.3,1.9,7c1.3,1.7,2.9,2.5,5.1,2.5
		c2.6,0,4.6-1.2,6-3.5v-12.7c-1.4-2.3-3.4-3.4-6-3.4c-2.1,0-3.8,0.8-5.1,2.5C451.7,405.5,451,408,451,411.4z"/>
	<path d="M491.5,421.5c-1.7,2-4.3,3-7.6,3c-2.8,0-4.9-0.8-6.3-2.4c-1.4-1.6-2.2-4-2.2-7.1v-16.8h4.4v16.7c0,3.9,1.6,5.9,4.8,5.9
		c3.4,0,5.6-1.3,6.7-3.8v-18.8h4.4V424h-4.2L491.5,421.5z"/>
	<path d="M507.4,387.3h5.4l-6.4,7h-3.6L507.4,387.3z M507.4,424h-4.5v-25.9h4.5V424z"/>
</g>
<path d="M-2.1,381h-6c-1.1-5.9-3.5-11.6-7.1-16.5l4.1-4.2c0.4-0.4,0.6-0.9,0.6-1.5s-0.2-1.1-0.6-1.5l-7.2-7.2c-0.8-0.8-2.2-0.8-3,0
	l-4.3,4.3c-4.9-3.3-10.4-5.6-16.2-6.6v-6.1c0-1.2-1-2.2-2.2-2.2h-10.2c-1.2,0-2.2,1-2.2,2.2v6.1c-5.8,1-11.4,3.3-16.3,6.7l-4.2-4.2
	c-0.8-0.9-2.2-0.9-3,0l-7.2,7.2c-0.4,0.4-0.6,1-0.6,1.5c0,0.6,0.2,1.1,0.6,1.5l4.1,4.1c-3.5,4.9-5.9,10.5-7,16.4h-5.4
	c-1.2,0-2.2,1-2.2,2.2v10.2c0,1.2,1,2.2,2.2,2.2h5.3c1,5.9,3.3,11.6,6.7,16.6l-3.8,3.8c-0.8,0.8-0.8,2.2,0,3.1l7.2,7.2
	c0.4,0.4,1,0.6,1.5,0.6c0.6,0,1.1-0.2,1.5-0.6l3.7-3.7c5,3.6,10.8,6.1,16.9,7.1v5.2c0,1.2,1,2.2,2.2,2.2h10.3c1.2,0,2.2-1,2.2-2.2
	v-5.2c6-1.1,11.8-3.5,16.8-7.1l3.8,3.8c0.8,0.8,2.2,0.8,3,0l7.2-7.2c0.8-0.8,0.8-2.2,0-3.1l-3.9-3.9c3.5-5,5.8-10.8,6.8-16.8h5.8
	c1.2,0,2.2-1,2.2-2.2V383C0,382-0.9,381-2.1,381z M-48.8,411.1c-12.6,0-22.7-10.2-22.7-22.7c0-12.6,10.2-22.7,22.7-22.7
	c12.6,0,22.7,10.2,22.7,22.7C-26,400.9-36.2,411.1-48.8,411.1z M-40.1,388.3c0,4.8-3.9,8.6-8.6,8.6c-4.8,0-8.6-3.9-8.6-8.6
	c0-4.8,3.9-8.6,8.6-8.6C-44,379.7-40.1,383.6-40.1,388.3z M30.8,340l-2.9-1.2c0.8-3.4,0.8-6.9,0.1-10.3l3.1-1.2
	c0.6-0.3,0.9-1,0.7-1.6l-2.2-5.4c-0.3-0.6-1-0.9-1.6-0.7l-3.2,1.3c-1.9-2.9-4.3-5.4-7.2-7.3l1.3-3.1c0.1-0.3,0.1-0.6,0-0.9
	s-0.4-0.6-0.7-0.7l-5.4-2.3c-0.6-0.3-1.4,0-1.6,0.6l-1.4,3.2c-3.3-0.7-6.7-0.8-10-0.1l-1.3-3.2c-0.3-0.6-1-0.9-1.6-0.7l-5.4,2.2
	c-0.6,0.3-0.9,1-0.7,1.6l1.3,3.2c-2.9,1.8-5.3,4.2-7.2,7l-3.1-1.3c-0.6-0.3-1.3,0-1.6,0.6l-2.3,5.4c-0.1,0.3-0.1,0.6,0,0.9
	s0.4,0.5,0.7,0.7l3,1.3c-0.8,3.3-0.9,6.8-0.2,10.2l-2.9,1.2c-0.6,0.3-0.9,1-0.7,1.6l2.2,5.4c0.3,0.6,1,0.9,1.6,0.7l2.8-1.1
	c1.8,2.9,4.2,5.5,7.1,7.4l-1.2,2.8c-0.3,0.6,0,1.3,0.6,1.6l5.4,2.3c0.3,0.1,0.6,0.1,0.9,0c0.3-0.1,0.5-0.4,0.7-0.7l1.2-2.7
	c3.4,0.8,7,0.9,10.5,0.2l1.1,2.7c0.3,0.6,1,0.9,1.6,0.7l5.4-2.2c0.6-0.2,0.9-1,0.7-1.6l-1.1-2.7c3-1.8,5.5-4.4,7.5-7.3l2.8,1.2
	c0.6,0.3,1.4,0,1.6-0.6l2.3-5.4C31.7,341,31.5,340.3,30.8,340z M9.6,345.3c-6.7,2.6-14.2-0.6-16.9-7.3c-2.6-6.7,0.6-14.2,7.3-16.9
	c6.7-2.7,14.2,0.6,16.9,7.3C19.5,335.1,16.3,342.6,9.6,345.3z M9.4,331.4c1,2.5-0.2,5.4-2.8,6.4c-2.5,1-5.4-0.2-6.4-2.8
	c-1-2.5,0.2-5.4,2.8-6.4C5.5,327.6,8.4,328.8,9.4,331.4z"/>
<g>
	<path d="M-90.5,701.8c-0.4,0-0.7,0-1.1,0c-6.2,0-12.4,0-18.6,0c-1.9,0-2.9-0.8-2.9-2.9c0-29.1,0-58.1,0-87.3c0-1.9,0.8-2.9,2.9-2.9
		c14,0,28,0,42.1,0c1,0,1.8,0.3,2.5,1.1c2.7,2.9,5.6,5.6,8.4,8.5c0.4,0.4,0.8,0.5,1.4,0.5c11.1,0,22.3,0,33.3,0c2.1,0,3,0.8,3,3
		c0,29,0,58,0,87c0,1.9-0.8,2.9-2.9,2.9c-21.7,0-43.6,0-65.3,0c-1.9,0-2.7-0.8-2.7-2.7C-90.5,706.8-90.5,704.4-90.5,701.8z
		 M-46.8,697.1c0-20.3,0-40.7,0-61.2c-0.4,0-0.7,0-1,0c-5.9,0-11.8,0-17.7,0c-2.2,0-3-0.8-3-3c0-6,0-12.1,0-18.1c0-0.3,0-0.7,0-1
		c-13.3,0-26.4,0-39.6,0c0,27.8,0,55.5,0,83.3C-87.8,697.1-67.3,697.1-46.8,697.1z M-51.9,623.9c0.3,0.3,0.4,0.5,0.7,0.7
		c2.7,2.7,5.4,5.5,8.1,8.2c0.8,0.8,1.1,1.6,1.1,2.6c0,21.2,0,42.3,0,63.5c0,2.2-0.8,2.9-3,2.9c-13.3,0-26.5,0-39.9,0
		c-0.3,0-0.5,0-1,0c0,1.8,0,3.6,0,5.4c20.5,0,41,0,61.4,0c0-27.8,0-55.5,0-83.3C-33.5,623.9-42.7,623.9-51.9,623.9z M-63.9,618.5
		c0,4.3,0,8.4,0,12.5c4.1,0,8.1,0,12.4,0C-55.6,626.9-59.7,622.8-63.9,618.5z"/>
	<path d="M-77.5,671.7c-8.2,0-16.4,0-24.6,0c-1.5,0-1.9-0.4-1.9-2.1c0-0.5,0-1.2,0-1.8c0-1.1,0.5-1.5,1.5-1.6c0.1,0,0.4,0,0.5,0
		c16.2,0,32.6,0,48.8,0c1.8,0,2.1,0.3,2.1,2.2c0,0.5,0,1.2,0,1.8c0,0.8-0.5,1.4-1.5,1.5c-0.3,0-0.4,0-0.7,0
		C-61.4,671.7-69.4,671.7-77.5,671.7z"/>
	<path d="M-77.6,685.2c-8.1,0-16.4,0-24.5,0c-1.5,0-1.9-0.4-1.9-1.9c0-0.7,0-1.4,0-1.9c0-0.8,0.5-1.4,1.5-1.4c0.1,0,0.4,0,0.5,0
		c16.4,0,32.6,0,48.9,0c1.6,0,2.1,0.4,2.1,1.9c0,0.5,0,1.2,0,1.8c0,1.1-0.5,1.6-1.6,1.6c-3.6,0-7,0-10.6,0
		C-68,685.2-72.8,685.2-77.6,685.2z"/>
	<path d="M-77.5,652.9c8.1,0,16.4,0,24.5,0c1.5,0,1.9,0.4,1.9,1.9c0,0.7,0,1.4,0,2.1c0,0.8-0.5,1.4-1.4,1.4c-0.3,0-0.4,0-0.7,0
		c-16.4,0-32.6,0-48.9,0c-1.6,0-2.1-0.4-2.1-2.1c0-0.5,0-1.1,0-1.6c0-1.2,0.5-1.8,1.8-1.8c3.7,0,7.6,0,11.3,0
		C-86.5,652.9-82,652.9-77.5,652.9z"/>
	<path d="M-77.5,639.3c8.1,0,16.2,0,24.3,0c1.9,0,2.2,0.3,2.2,2.2c0,0.5,0,1.2,0,1.8c0,0.8-0.5,1.4-1.4,1.5c-0.3,0-0.4,0-0.7,0
		c-16.2,0-32.6,0-48.8,0c-1.6,0-2.1-0.4-2.1-2.1c0-0.5,0-1,0-1.5c0-1.4,0.4-1.8,1.8-1.8c2.5,0,4.9,0,7.4,0
		C-89,639.3-83.2,639.3-77.5,639.3z"/>
	<path d="M-81.5,631.4c-2.9,0-5.9,0-8.8,0c-1.2,0-1.8-0.4-1.8-1.8c0-0.7,0-1.4,0-2.2c0-1,0.5-1.5,1.5-1.5c6,0,12.1,0,18.3,0
		c1,0,1.5,0.5,1.5,1.5c0,0.7,0,1.5,0,2.2c0,1.2-0.5,1.6-1.6,1.6C-75.5,631.4-78.6,631.4-81.5,631.4z"/>
</g>
<g>
	<g class="st0">
		<path d="M6.1,638.9c0,2.1-0.2,3.8-0.7,5.1s-1.4,2.6-2.6,3.7c-1.3,1.2-2.1,2.1-2.6,2.6c-0.5,0.6-0.8,1.2-1,1.7
			c-0.2,0.6-0.3,1.2-0.3,1.9c0,2.5,1.2,3.8,3.7,3.8c1.2,0,2.2-0.4,2.9-1.1c0.7-0.7,1.1-1.7,1.1-3h6.9c0,3.1-1,5.5-2.9,7.2
			s-4.6,2.6-7.9,2.6c-3.4,0-6-0.8-7.9-2.4c-1.9-1.6-2.8-3.9-2.8-6.9c0-2.5,1.2-5,3.7-7.5l2.3-2.2c0.8-0.7,1.4-1.5,1.7-2.3
			s0.5-1.9,0.5-3.3h5.9L6.1,638.9L6.1,638.9z M7,631.6c0,1.1-0.4,1.9-1.1,2.6c-0.7,0.7-1.7,1-2.8,1s-2-0.3-2.8-1
			c-0.7-0.7-1.1-1.6-1.1-2.6c0-1.1,0.4-1.9,1.1-2.6s1.6-1,2.8-1s2.1,0.3,2.8,1C6.6,629.6,7,630.5,7,631.6z"/>
		<path d="M46,654.3h-7.2l-14-22.9v22.9h-7.2v-34.8h7.2l14,23v-23H46V654.3z"/>
		<path d="M63.7,654.8c-3.8,0-6.9-1.2-9.3-3.5s-3.6-5.4-3.6-9.3v-0.7c0-2.6,0.5-4.9,1.5-7s2.4-3.6,4.3-4.7c1.8-1.1,3.9-1.7,6.3-1.7
			c3.5,0,6.3,1.1,8.4,3.3c2,2.2,3.1,5.4,3.1,9.5v2.8H57.9c0.2,1.7,0.9,3,2,4.1c1.1,1,2.5,1.5,4.3,1.5c2.7,0,4.7-1,6.2-2.9l3.4,3.8
			c-1,1.5-2.4,2.6-4.2,3.4S65.9,654.8,63.7,654.8z M63,633.5c-1.4,0-2.5,0.5-3.3,1.4c-0.9,0.9-1.4,2.3-1.6,4h9.6v-0.6
			c0-1.5-0.4-2.7-1.2-3.6C65.6,633.9,64.4,633.5,63,633.5z"/>
		<path d="M89.1,649.2c1.3,0,2.3-0.4,3.1-1.1c0.8-0.7,1.2-1.6,1.2-2.8h6.5c0,1.8-0.5,3.4-1.4,4.8c-0.9,1.5-2.2,2.6-3.9,3.4
			c-1.6,0.8-3.4,1.2-5.4,1.2c-3.7,0-6.6-1.2-8.8-3.5c-2.1-2.4-3.2-5.6-3.2-9.8V641c0-4,1.1-7.2,3.2-9.5c2.1-2.4,5-3.6,8.7-3.6
			c3.2,0,5.8,0.9,7.8,2.8c2,1.8,2.9,4.3,3,7.4h-6.5c0-1.3-0.4-2.4-1.2-3.3s-1.9-1.3-3.2-1.3c-1.6,0-2.8,0.6-3.6,1.8
			s-1.2,3.1-1.2,5.7v0.7c0,2.7,0.4,4.6,1.2,5.8C86.2,648.6,87.4,649.2,89.1,649.2z"/>
		<path d="M115.8,654.8c-3.8,0-6.9-1.2-9.3-3.5s-3.6-5.4-3.6-9.3v-0.7c0-2.6,0.5-4.9,1.5-7s2.4-3.6,4.3-4.7c1.8-1.1,3.9-1.7,6.3-1.7
			c3.5,0,6.3,1.1,8.4,3.3c2,2.2,3.1,5.4,3.1,9.5v2.8H110c0.2,1.7,0.9,3,2,4.1c1.1,1,2.5,1.5,4.3,1.5c2.7,0,4.7-1,6.2-2.9l3.4,3.8
			c-1,1.5-2.4,2.6-4.2,3.4S117.9,654.8,115.8,654.8z M115,633.5c-1.4,0-2.5,0.5-3.3,1.4s-1.4,2.3-1.6,4h9.6v-0.6
			c0-1.5-0.4-2.7-1.2-3.6C117.6,633.9,116.5,633.5,115,633.5z"/>
		<path d="M144.4,647.1c0-0.8-0.4-1.5-1.3-2c-0.8-0.5-2.2-0.9-4-1.3c-6.2-1.3-9.2-3.9-9.2-7.8c0-2.3,1-4.2,2.9-5.8
			c1.9-1.5,4.4-2.3,7.5-2.3c3.3,0,5.9,0.8,7.9,2.3s3,3.6,3,6h-7.1c0-1-0.3-1.8-1-2.5c-0.6-0.6-1.6-1-3-1c-1.2,0-2.1,0.3-2.7,0.8
			s-1,1.2-1,2s0.4,1.4,1.1,1.9s2,0.9,3.7,1.2s3.2,0.7,4.4,1.2c3.7,1.3,5.5,3.7,5.5,7c0,2.4-1,4.3-3,5.7c-2,1.5-4.6,2.2-7.8,2.2
			c-2.2,0-4.1-0.4-5.8-1.2s-3-1.8-4-3.2c-1-1.3-1.4-2.8-1.4-4.4h6.6c0.1,1.2,0.5,2.2,1.4,2.8c0.8,0.7,2,1,3.4,1c1.3,0,2.3-0.3,3-0.8
			C144,648.6,144.4,648,144.4,647.1z"/>
		<path d="M155.5,621.7c0-1,0.3-1.9,1-2.6c0.7-0.7,1.6-1,2.8-1c1.2,0,2.1,0.3,2.8,1s1.1,1.5,1.1,2.6s-0.4,1.9-1.1,2.6s-1.6,1-2.8,1
			s-2.1-0.3-2.8-1C155.9,623.6,155.5,622.8,155.5,621.7z M162.8,654.3h-6.9v-25.9h6.9V654.3z"/>
		<path d="M176.8,622v6.4h4.4v5.1h-4.4v12.9c0,1,0.2,1.6,0.5,2.1s1.1,0.6,2.1,0.6c0.8,0,1.4-0.1,2-0.2v5.2c-1.4,0.4-2.8,0.6-4.2,0.6
			c-4.8,0-7.3-2.4-7.4-7.3v-13.9h-3.7v-5.1h3.8V622H176.8z"/>
		<path d="M200.1,654.3c-0.3-0.6-0.5-1.4-0.7-2.3c-1.7,1.9-3.9,2.8-6.5,2.8c-2.5,0-4.6-0.7-6.3-2.2c-1.7-1.5-2.5-3.3-2.5-5.6
			c0-2.7,1-4.8,3.1-6.3c2-1.5,5-2.2,8.8-2.2h3.2V637c0-1.2-0.3-2.2-0.9-2.9s-1.6-1.1-2.9-1.1c-1.2,0-2.1,0.3-2.7,0.8
			c-0.7,0.6-1,1.3-1,2.3h-6.9c0-1.5,0.5-2.9,1.4-4.2s2.2-2.3,3.9-3s3.6-1.1,5.7-1.1c3.2,0,5.7,0.8,7.6,2.4c1.9,1.6,2.8,3.9,2.8,6.8
			v11.2c0,2.5,0.4,4.3,1,5.6v0.4L200.1,654.3L200.1,654.3z M194.4,649.5c1,0,2-0.2,2.8-0.7c0.9-0.5,1.5-1.1,1.9-1.8v-4.5h-2.6
			c-3.5,0-5.3,1.2-5.5,3.6v0.4c0,0.9,0.3,1.6,0.9,2.1C192.5,649.2,193.3,649.5,194.4,649.5z"/>
		<path d="M225.4,647.1c0-0.8-0.4-1.5-1.3-2c-0.8-0.5-2.2-0.9-4-1.3c-6.2-1.3-9.2-3.9-9.2-7.8c0-2.3,1-4.2,2.9-5.8
			c1.9-1.5,4.4-2.3,7.5-2.3c3.3,0,5.9,0.8,7.9,2.3s3,3.6,3,6h-7.1c0-1-0.3-1.8-1-2.5c-0.6-0.6-1.6-1-3-1c-1.2,0-2.1,0.3-2.7,0.8
			s-1,1.2-1,2s0.4,1.4,1.1,1.9s2,0.9,3.7,1.2s3.2,0.7,4.4,1.2c3.7,1.3,5.5,3.7,5.5,7c0,2.4-1,4.3-3,5.7c-2,1.5-4.6,2.2-7.8,2.2
			c-2.2,0-4.1-0.4-5.8-1.2s-3-1.8-4-3.2c-1-1.3-1.4-2.8-1.4-4.4h6.6c0.1,1.2,0.5,2.2,1.4,2.8c0.8,0.7,2,1,3.4,1c1.3,0,2.3-0.3,3-0.8
			C225,648.6,225.4,648,225.4,647.1z"/>
		<path d="M263.8,654.3c-0.3-0.6-0.6-1.4-0.7-2.3c-1.7,1.9-3.9,2.8-6.5,2.8c-2.5,0-4.6-0.7-6.3-2.2s-2.5-3.3-2.5-5.6
			c0-2.7,1-4.8,3.1-6.3c2-1.5,5-2.2,8.8-2.2h3.2V637c0-1.2-0.3-2.2-0.9-2.9c-0.6-0.7-1.6-1.1-2.9-1.1c-1.2,0-2.1,0.3-2.7,0.8
			c-0.7,0.6-1,1.3-1,2.3h-6.9c0-1.5,0.5-2.9,1.4-4.2s2.2-2.3,3.9-3c1.7-0.7,3.6-1.1,5.7-1.1c3.2,0,5.7,0.8,7.6,2.4
			c1.9,1.6,2.8,3.9,2.8,6.8v11.2c0,2.5,0.4,4.3,1,5.6v0.4L263.8,654.3L263.8,654.3z M258,649.5c1,0,2-0.2,2.8-0.7
			c0.9-0.5,1.5-1.1,1.9-1.8v-4.5h-2.6c-3.5,0-5.3,1.2-5.5,3.6v0.4c0,0.9,0.3,1.6,0.9,2.1C256.1,649.1,257,649.5,258,649.5z"/>
		<path d="M284.3,644.5l4.8-16.1h7.4l-10.4,29.9l-0.6,1.4c-1.5,3.4-4.1,5.1-7.7,5.1c-1,0-2-0.2-3.1-0.5v-5.2h1.1
			c1.3,0,2.3-0.2,2.9-0.6c0.6-0.4,1.2-1.1,1.5-2l0.8-2.1l-9.1-26h7.4L284.3,644.5z"/>
		<path d="M314.8,651.7c-1.7,2.1-4.1,3.1-7.1,3.1c-2.8,0-4.9-0.8-6.4-2.4c-1.5-1.6-2.2-3.9-2.2-7v-17h6.9v16.7c0,2.7,1.2,4,3.7,4
			c2.3,0,4-0.8,4.8-2.4v-18.3h6.9v25.9h-6.5L314.8,651.7z"/>
		<path d="M325.6,641.2c0-4,0.9-7.3,2.7-9.6c1.8-2.3,4.3-3.6,7.4-3.6c2.5,0,4.6,0.9,6.2,2.8v-13.2h6.9v36.8h-6.2l-0.3-2.8
			c-1.7,2.2-3.9,3.2-6.7,3.2c-3,0-5.5-1.2-7.3-3.6C326.5,648.8,325.6,645.4,325.6,641.2z M332.5,641.7c0,2.4,0.4,4.3,1.3,5.6
			c0.9,1.3,2.1,1.9,3.7,1.9c2.1,0,3.6-0.9,4.5-2.7v-10.2c-0.9-1.8-2.4-2.7-4.5-2.7C334.2,633.6,332.5,636.3,332.5,641.7z"/>
		<path d="M369.3,654.3c-0.3-0.6-0.5-1.4-0.7-2.3c-1.7,1.9-3.9,2.8-6.5,2.8c-2.5,0-4.6-0.7-6.3-2.2s-2.5-3.3-2.5-5.6
			c0-2.7,1-4.8,3.1-6.3c2-1.5,5-2.2,8.8-2.2h3.2V637c0-1.2-0.3-2.2-0.9-2.9c-0.6-0.7-1.6-1.1-2.9-1.1c-1.2,0-2.1,0.3-2.7,0.8
			c-0.7,0.6-1,1.3-1,2.3H354c0-1.5,0.5-2.9,1.4-4.2c0.9-1.3,2.2-2.3,3.9-3c1.7-0.7,3.6-1.1,5.7-1.1c3.2,0,5.7,0.8,7.6,2.4
			c1.9,1.6,2.8,3.9,2.8,6.8v11.2c0,2.5,0.4,4.3,1,5.6v0.4L369.3,654.3L369.3,654.3z M363.6,649.5c1,0,2-0.2,2.8-0.7
			c0.9-0.5,1.5-1.1,1.9-1.8v-4.5h-2.6c-3.5,0-5.3,1.2-5.5,3.6v0.4c0,0.9,0.3,1.6,0.9,2.1C361.7,649.2,362.5,649.5,363.6,649.5z"/>
		<path d="M407.8,654.3c-0.3-0.6-0.5-1.4-0.7-2.3c-1.7,1.9-3.9,2.8-6.5,2.8c-2.5,0-4.6-0.7-6.3-2.2s-2.5-3.3-2.5-5.6
			c0-2.7,1-4.8,3.1-6.3c2-1.5,5-2.2,8.8-2.2h3.2V637c0-1.2-0.3-2.2-0.9-2.9c-0.6-0.7-1.6-1.1-2.9-1.1c-1.2,0-2.1,0.3-2.7,0.8
			c-0.7,0.6-1,1.3-1,2.3h-6.9c0-1.5,0.5-2.9,1.4-4.2s2.2-2.3,3.9-3s3.6-1.1,5.7-1.1c3.2,0,5.7,0.8,7.6,2.4c1.9,1.6,2.8,3.9,2.8,6.8
			v11.2c0,2.5,0.4,4.3,1,5.6v0.4L407.8,654.3L407.8,654.3z M402.1,649.5c1,0,2-0.2,2.8-0.7c0.9-0.5,1.5-1.1,1.9-1.8v-4.5h-2.6
			c-3.5,0-5.3,1.2-5.5,3.6v0.4c0,0.9,0.3,1.6,0.9,2.1C400.2,649.2,401,649.5,402.1,649.5z"/>
		<path d="M418,641.2c0-4,0.9-7.3,2.7-9.6s4.3-3.6,7.4-3.6c2.5,0,4.6,0.9,6.2,2.8v-13.2h6.9v36.8H435l-0.3-2.8
			c-1.7,2.2-3.9,3.2-6.7,3.2c-3,0-5.5-1.2-7.3-3.6C418.9,648.8,418,645.4,418,641.2z M424.9,641.7c0,2.4,0.4,4.3,1.3,5.6
			s2.1,1.9,3.7,1.9c2.1,0,3.6-0.9,4.5-2.7v-10.2c-0.9-1.8-2.4-2.7-4.5-2.7C426.5,633.6,424.9,636.3,424.9,641.7z"/>
		<path d="M453.1,628.4l0.2,2.9c1.8-2.3,4.3-3.4,7.4-3.4c3.3,0,5.6,1.3,6.9,3.9c1.8-2.6,4.4-3.9,7.8-3.9c2.8,0,4.9,0.8,6.3,2.5
			c1.4,1.6,2.1,4.1,2.1,7.4v16.5h-6.9v-16.5c0-1.5-0.3-2.5-0.9-3.2s-1.6-1-3-1c-2.1,0-3.5,1-4.3,3v17.8h-6.9v-16.5
			c0-1.5-0.3-2.6-0.9-3.3s-1.6-1-3-1c-2,0-3.4,0.8-4.3,2.4v18.3h-6.9v-25.9H453.1z"/>
		<path d="M489,621.7c0-1,0.3-1.9,1-2.6c0.7-0.7,1.6-1,2.8-1s2.1,0.3,2.8,1s1.1,1.5,1.1,2.6s-0.4,1.9-1.1,2.6s-1.6,1-2.8,1
			s-2.1-0.3-2.8-1C489.4,623.6,489,622.8,489,621.7z M496.4,654.3h-6.9v-25.9h6.9V654.3z"/>
		<path d="M508.4,628.4l0.2,3c1.9-2.3,4.3-3.5,7.4-3.5c2.7,0,4.8,0.8,6.1,2.4c1.3,1.6,2,4,2.1,7.2v16.7h-6.9v-16.6
			c0-1.5-0.3-2.5-1-3.2c-0.6-0.7-1.7-1-3.2-1c-1.9,0-3.4,0.8-4.4,2.5v18.3h-6.9v-25.9L508.4,628.4L508.4,628.4z"/>
		<path d="M529.5,621.7c0-1,0.3-1.9,1-2.6c0.7-0.7,1.6-1,2.8-1s2.1,0.3,2.8,1s1.1,1.5,1.1,2.6s-0.4,1.9-1.1,2.6s-1.6,1-2.8,1
			s-2.1-0.3-2.8-1S529.5,622.8,529.5,621.7z M536.8,654.3h-6.9v-25.9h6.9V654.3z"/>
		<path d="M556.5,647.1c0-0.8-0.4-1.5-1.3-2c-0.8-0.5-2.2-0.9-4-1.3c-6.2-1.3-9.2-3.9-9.2-7.8c0-2.3,1-4.2,2.9-5.8
			c1.9-1.5,4.4-2.3,7.5-2.3c3.3,0,5.9,0.8,7.9,2.3s3,3.6,3,6h-6.9c0-1-0.3-1.8-1-2.5c-0.6-0.6-1.6-1-3-1c-1.2,0-2.1,0.3-2.7,0.8
			c-0.6,0.5-1,1.2-1,2s0.4,1.4,1.1,1.9c0.7,0.5,2,0.9,3.7,1.2s3.2,0.7,4.4,1.2c3.7,1.3,5.5,3.7,5.5,7c0,2.4-1,4.3-3,5.7
			c-2,1.5-4.6,2.2-7.8,2.2c-2.2,0-4.1-0.4-5.8-1.2s-3-1.8-4-3.2c-1-1.3-1.4-2.8-1.4-4.4h6.6c0.1,1.2,0.5,2.2,1.4,2.8
			c0.8,0.7,2,1,3.4,1c1.3,0,2.3-0.3,3-0.8C556.2,648.6,556.5,648,556.5,647.1z"/>
		<path d="M576,622v6.4h4.4v5.1H576v12.9c0,1,0.2,1.6,0.6,2.1c0.4,0.4,1.1,0.6,2.1,0.6c0.8,0,1.4-0.1,2-0.2v5.2
			c-1.4,0.4-2.8,0.6-4.2,0.6c-4.8,0-7.3-2.4-7.4-7.3v-13.9h-3.8v-5.1h3.8V622H576z"/>
		<path d="M598.8,634.9c-0.9-0.1-1.8-0.2-2.5-0.2c-2.6,0-4.3,0.9-5.1,2.7v16.9h-6.9v-25.9h6.5l0.2,3.1c1.4-2.4,3.3-3.6,5.8-3.6
			c0.8,0,1.5,0.1,2.2,0.3L598.8,634.9z"/>
		<path d="M616.4,654.3c-0.3-0.6-0.5-1.4-0.7-2.3c-1.7,1.9-3.9,2.8-6.5,2.8c-2.5,0-4.6-0.7-6.3-2.2s-2.5-3.3-2.5-5.6
			c0-2.7,1-4.8,3.1-6.3c2-1.5,5-2.2,8.8-2.2h3.2V637c0-1.2-0.3-2.2-0.9-2.9c-0.6-0.7-1.6-1.1-2.9-1.1c-1.2,0-2.1,0.3-2.7,0.8
			c-0.7,0.6-1,1.3-1,2.3h-6.9c0-1.5,0.5-2.9,1.4-4.2s2.2-2.3,3.9-3s3.6-1.1,5.7-1.1c3.2,0,5.7,0.8,7.6,2.4c1.9,1.6,2.8,3.9,2.8,6.8
			v11.2c0,2.5,0.4,4.3,1,5.6v0.4L616.4,654.3L616.4,654.3z M610.7,649.5c1,0,2-0.2,2.8-0.7c0.9-0.5,1.5-1.1,1.9-1.8v-4.5h-2.6
			c-3.5,0-5.3,1.2-5.5,3.6v0.4c0,0.9,0.3,1.6,0.9,2.1C608.8,649.2,609.6,649.5,610.7,649.5z"/>
		<path d="M635.9,622v6.4h4.4v5.1h-4.4v12.9c0,1,0.2,1.6,0.5,2.1s1.1,0.6,2.1,0.6c0.8,0,1.4-0.1,2-0.2v5.2c-1.4,0.4-2.8,0.6-4.2,0.6
			c-4.8,0-7.3-2.4-7.4-7.3v-13.9h-3.8v-5.1h3.8V622H635.9z"/>
		<path d="M644.2,621.7c0-1,0.3-1.9,1-2.6c0.7-0.7,1.6-1,2.8-1s2.1,0.3,2.8,1s1.1,1.5,1.1,2.6s-0.4,1.9-1.1,2.6
			c-0.7,0.7-1.6,1-2.8,1s-2.1-0.3-2.8-1S644.2,622.8,644.2,621.7z M651.5,654.3h-6.9v-25.9h6.9V654.3z"/>
		<path d="M666.9,645.9l4.8-17.4h7.2l-8.7,25.9h-6.6l-8.7-25.9h7.2L666.9,645.9z"/>
		<path d="M696.6,654.3c-0.3-0.6-0.6-1.4-0.7-2.3c-1.7,1.9-3.9,2.8-6.5,2.8c-2.5,0-4.6-0.7-6.3-2.2s-2.5-3.3-2.5-5.6
			c0-2.7,1-4.8,3.1-6.3c2-1.5,5-2.2,8.8-2.2h3.2V637c0-1.2-0.3-2.2-0.9-2.9c-0.6-0.7-1.6-1.1-2.9-1.1c-1.2,0-2.1,0.3-2.7,0.8
			c-0.7,0.6-1,1.3-1,2.3h-6.9c0-1.5,0.5-2.9,1.4-4.2s2.2-2.3,3.9-3s3.6-1.1,5.7-1.1c3.2,0,5.7,0.8,7.6,2.4c1.9,1.6,2.8,3.9,2.8,6.8
			v11.2c0,2.5,0.4,4.3,1,5.6v0.4L696.6,654.3L696.6,654.3z M690.9,649.5c1,0,2-0.2,2.8-0.7c0.9-0.5,1.5-1.1,1.9-1.8v-4.5h-2.5
			c-3.5,0-5.3,1.2-5.5,3.6v0.4c0,0.9,0.3,1.6,0.9,2.1S689.9,649.5,690.9,649.5z"/>
		<path d="M713.5,643.6c0-2.2,0.3-4,0.8-5.3s1.5-2.6,3-3.9c1.4-1.3,2.4-2.3,2.9-3.1s0.7-1.7,0.7-2.6c0-2.7-1.2-4-3.7-4
			c-1.2,0-2.1,0.4-2.8,1.1c-0.7,0.7-1.1,1.7-1.1,3h-6.9c0-3,1-5.4,3-7.2c1.9-1.7,4.6-2.6,7.9-2.6c3.4,0,6,0.8,7.9,2.5
			s2.8,3.9,2.8,6.9c0,1.4-0.3,2.6-0.9,3.8c-0.6,1.2-1.7,2.5-3.2,4L722,638c-1.2,1.2-1.9,2.5-2.1,4.1l-0.1,1.5H713.5z M712.8,651
			c0-1.1,0.4-1.9,1.1-2.6c0.7-0.7,1.7-1,2.8-1s2.1,0.3,2.8,1s1.1,1.6,1.1,2.6s-0.4,1.9-1.1,2.6c-0.7,0.7-1.6,1-2.8,1s-2.1-0.3-2.8-1
			S712.8,652,712.8,651z"/>
	</g>
	<g>
		<g>
			<path d="M204.4,696.1h-15.1v12.3h17.5v3.8h-22.1v-34.8h21.9v3.8h-17.3v11.2h15.1V696.1z"/>
			<path d="M227,705.3c0-1.2-0.5-2.1-1.4-2.8s-2.5-1.2-4.7-1.7s-4-1.1-5.3-1.7c-1.3-0.7-2.3-1.5-2.9-2.4s-0.9-2-0.9-3.3
				c0-2.1,0.9-3.9,2.7-5.4c1.8-1.5,4.1-2.2,6.9-2.2c2.9,0,5.3,0.8,7.1,2.3c1.8,1.5,2.7,3.5,2.7,5.8h-4.5c0-1.2-0.5-2.3-1.5-3.1
				c-1-0.9-2.3-1.3-3.9-1.3s-2.9,0.4-3.8,1.1s-1.4,1.6-1.4,2.8c0,1.1,0.4,1.9,1.3,2.4c0.8,0.5,2.4,1.1,4.6,1.6s4,1.1,5.4,1.8
				s2.4,1.5,3.1,2.5s1,2.1,1,3.5c0,2.3-0.9,4.2-2.8,5.6c-1.9,1.4-4.3,2.1-7.2,2.1c-2.1,0-3.9-0.4-5.5-1.1c-1.6-0.7-2.8-1.8-3.7-3.1
				c-0.9-1.3-1.4-2.7-1.4-4.3h4.4c0.1,1.5,0.7,2.7,1.8,3.5c1.1,0.9,2.6,1.3,4.4,1.3c1.7,0,3-0.3,4-1
				C226.4,707.3,227,706.4,227,705.3z"/>
			<path d="M247.5,709c1.6,0,3-0.5,4.1-1.4s1.8-2.2,2-3.6h4.2c-0.1,1.5-0.6,2.9-1.5,4.2c-0.9,1.3-2.2,2.4-3.8,3.2s-3.2,1.2-5,1.2
				c-3.5,0-6.3-1.2-8.4-3.5c-2.1-2.4-3.1-5.6-3.1-9.7v-0.7c0-2.5,0.5-4.8,1.4-6.7c0.9-2,2.3-3.5,4-4.6s3.8-1.6,6.1-1.6
				c2.9,0,5.3,0.9,7.2,2.6c1.9,1.7,2.9,4,3.1,6.8h-4.2c-0.1-1.7-0.8-3.1-1.9-4.1c-1.1-1.1-2.5-1.6-4.2-1.6c-2.2,0-4,0.8-5.2,2.4
				s-1.9,4-1.9,7v0.8c0,3,0.6,5.3,1.8,6.9C243.5,708.2,245.3,709,247.5,709z"/>
			<path d="M275.3,690.3c-0.7-0.1-1.4-0.2-2.2-0.2c-2.9,0-4.9,1.2-5.9,3.7v18.4h-4.4v-25.9h4.3l0.1,3c1.5-2.3,3.5-3.5,6.2-3.5
				c0.9,0,1.5,0.1,2,0.3v4.2H275.3z"/>
			<path d="M279.4,679.4c0-0.7,0.2-1.3,0.7-1.8c0.4-0.5,1.1-0.7,2-0.7c0.9,0,1.5,0.2,2,0.7c0.4,0.5,0.7,1.1,0.7,1.8
				s-0.2,1.3-0.7,1.8s-1.1,0.7-2,0.7c-0.9,0-1.5-0.2-2-0.7S279.4,680.1,279.4,679.4z M284.2,712.2h-4.4v-25.9h4.4V712.2z"/>
			<path d="M313.2,699.5c0,4-0.9,7.1-2.7,9.5c-1.8,2.4-4.3,3.6-7.3,3.6c-3.3,0-5.8-1.2-7.6-3.5l-0.2,3h-4.1v-36.8h4.4V689
				c1.8-2.2,4.3-3.3,7.4-3.3c3.1,0,5.6,1.2,7.4,3.6c1.8,2.4,2.7,5.6,2.7,9.8L313.2,699.5L313.2,699.5z M308.8,699c0-3-0.6-5.3-1.7-7
				c-1.2-1.6-2.8-2.5-5-2.5c-2.9,0-5,1.4-6.3,4.1v11.2c1.4,2.7,3.5,4.1,6.3,4.1c2.1,0,3.8-0.8,5-2.5S308.8,702.3,308.8,699z"/>
			<path d="M318.8,679.4c0-0.7,0.2-1.3,0.7-1.8c0.4-0.5,1.1-0.7,2-0.7c0.9,0,1.5,0.2,2,0.7c0.4,0.5,0.7,1.1,0.7,1.8
				s-0.2,1.3-0.7,1.8s-1.1,0.7-2,0.7c-0.9,0-1.5-0.2-2-0.7S318.8,680.1,318.8,679.4z M323.6,712.2h-4.5v-25.9h4.4L323.6,712.2
				L323.6,712.2z"/>
			<path d="M334.8,686.3l0.1,3.3c2-2.5,4.6-3.7,7.8-3.7c5.5,0,8.2,3.1,8.3,9.3v17.1h-4.4V695c0-1.9-0.4-3.2-1.3-4.1
				c-0.8-0.9-2.1-1.3-3.9-1.3c-1.4,0-2.7,0.4-3.8,1.1s-1.9,1.8-2.5,3v18.4h-4.4v-25.9L334.8,686.3L334.8,686.3z"/>
			<path d="M356.5,699c0-2.5,0.5-4.8,1.5-6.8s2.4-3.6,4.2-4.7c1.8-1.1,3.8-1.7,6.1-1.7c3.5,0,6.4,1.2,8.6,3.7
				c2.2,2.4,3.3,5.7,3.3,9.7v0.3c0,2.5-0.5,4.8-1.4,6.8c-1,2-2.3,3.6-4.1,4.7c-1.8,1.1-3.9,1.7-6.2,1.7c-3.5,0-6.4-1.2-8.5-3.7
				c-2.2-2.4-3.3-5.7-3.3-9.7V699H356.5z M361,699.5c0,2.9,0.7,5.2,2,6.9s3.1,2.6,5.3,2.6s4-0.9,5.4-2.6c1.3-1.8,2-4.2,2-7.4
				c0-2.8-0.7-5.1-2-6.9c-1.3-1.8-3.1-2.6-5.4-2.6c-2.2,0-3.9,0.9-5.3,2.6C361.6,693.8,361,696.3,361,699.5z"/>
			<path d="M400.7,705.3c0-1.2-0.5-2.1-1.4-2.8s-2.5-1.2-4.7-1.7s-4-1.1-5.3-1.7c-1.3-0.7-2.3-1.5-2.9-2.4c-0.6-0.9-0.9-2-0.9-3.3
				c0-2.1,0.9-3.9,2.7-5.4s4.1-2.2,6.9-2.2c2.9,0,5.3,0.8,7.1,2.3s2.7,3.5,2.7,5.8h-4.5c0-1.2-0.5-2.3-1.5-3.1
				c-1-0.9-2.3-1.3-3.9-1.3c-1.6,0-2.9,0.4-3.8,1.1s-1.4,1.6-1.4,2.8c0,1.1,0.4,1.9,1.3,2.4c0.8,0.5,2.4,1.1,4.6,1.6
				c2.2,0.5,4,1.1,5.4,1.8s2.4,1.5,3.1,2.5c0.7,1,1,2.1,1,3.5c0,2.3-0.9,4.2-2.8,5.6c-1.9,1.4-4.3,2.1-7.2,2.1
				c-2.1,0-3.9-0.4-5.5-1.1c-1.6-0.7-2.8-1.8-3.7-3.1s-1.4-2.7-1.4-4.3h4.4c0.1,1.5,0.7,2.7,1.8,3.5c1.1,0.9,2.6,1.3,4.4,1.3
				c1.7,0,3-0.3,4-1C400.2,707.3,400.7,706.4,400.7,705.3z"/>
			<path d="M439,712.2c-0.3-0.5-0.5-1.4-0.6-2.7c-2.1,2.1-4.5,3.2-7.4,3.2c-2.6,0-4.6-0.7-6.3-2.2s-2.5-3.3-2.5-5.5
				c0-2.7,1-4.8,3.1-6.3s4.9-2.2,8.6-2.2h4.3v-2c0-1.5-0.5-2.8-1.4-3.7s-2.3-1.4-4.1-1.4c-1.6,0-2.9,0.4-4,1.2s-1.6,1.8-1.6,2.9
				h-4.5c0-1.3,0.5-2.5,1.4-3.7s2.2-2.2,3.7-2.9c1.6-0.7,3.3-1.1,5.2-1.1c3,0,5.3,0.7,7,2.2s2.6,3.5,2.6,6.2v11.9
				c0,2.4,0.3,4.3,0.9,5.7v0.4L439,712.2L439,712.2z M431.7,708.8c1.4,0,2.7-0.4,3.9-1.1s2.1-1.7,2.7-2.8v-5.3h-3.5
				c-5.4,0-8.1,1.6-8.1,4.8c0,1.4,0.5,2.5,1.4,3.3S430.2,708.8,431.7,708.8z"/>
			<path d="M448.6,699c0-4.1,0.9-7.3,2.8-9.7c1.9-2.4,4.4-3.6,7.5-3.6s5.5,1,7.3,3.1l0.2-2.6h4.1V722h-4.4v-12.3
				c-1.8,1.9-4.2,2.9-7.1,2.9c-3.1,0-5.6-1.2-7.5-3.6s-2.8-5.7-2.8-9.7L448.6,699L448.6,699z M453,699.5c0,3,0.6,5.3,1.9,7
				c1.3,1.7,2.9,2.5,5.1,2.5c2.6,0,4.6-1.2,6-3.5v-12.7c-1.4-2.3-3.4-3.4-6-3.4c-2.1,0-3.8,0.8-5.1,2.5
				C453.7,693.7,453,696.2,453,699.5z"/>
			<path d="M493.5,709.6c-1.7,2-4.3,3-7.6,3c-2.8,0-4.9-0.8-6.3-2.4c-1.4-1.6-2.2-4-2.2-7.1v-16.8h4.4V703c0,3.9,1.6,5.9,4.8,5.9
				c3.4,0,5.6-1.3,6.7-3.8v-18.8h4.4v25.9h-4.2L493.5,709.6z"/>
			<path d="M509.4,675.4h5.4l-6.4,7h-3.6L509.4,675.4z M509.4,712.2h-4.5v-25.9h4.5V712.2z"/>
		</g>
	</g>
</g>
<g>
	<text transform="matrix(1 0 0 1 1049.7434 836.312)" style="font-family:'Roboto-Bold'; font-size:49px;">¿Necesitas ayuda administrativa?</text>
	<g>
		<text transform="matrix(1 0 0 1 1240.2334 894.1826)" style="font-family:'Roboto-Regular'; font-size:49px;">Escribinos aquí</text>
	</g>
</g>
</svg>
