<?xml version="1.0" encoding="utf-8"?>
<!-- Generator: Adobe Illustrator 25.2.1, SVG Export Plug-In . SVG Version: 6.00 Build 0)  -->
<!DOCTYPE svg PUBLIC "-//W3C//DTD SVG 1.1//EN" "http://www.w3.org/Graphics/SVG/1.1/DTD/svg11.dtd" [
	<!ENTITY ns_extend "http://ns.adobe.com/Extensibility/1.0/">
	<!ENTITY ns_ai "http://ns.adobe.com/AdobeIllustrator/10.0/">
	<!ENTITY ns_graphs "http://ns.adobe.com/Graphs/1.0/">
	<!ENTITY ns_vars "http://ns.adobe.com/Variables/1.0/">
	<!ENTITY ns_imrep "http://ns.adobe.com/ImageReplacement/1.0/">
	<!ENTITY ns_sfw "http://ns.adobe.com/SaveForWeb/1.0/">
	<!ENTITY ns_custom "http://ns.adobe.com/GenericCustomNamespace/1.0/">
	<!ENTITY ns_adobe_xpath "http://ns.adobe.com/XPath/1.0/">
]>
<svg version="1.1" id="Capa_1" xmlns:x="&ns_extend;" xmlns:i="&ns_ai;" xmlns:graph="&ns_graphs;"
	 xmlns="http://www.w3.org/2000/svg" xmlns:xlink="http://www.w3.org/1999/xlink" x="0px" y="0px" viewBox="0 0 924 223.4"
	 style="enable-background:new 0 0 924 223.4;" xml:space="preserve">
<style type="text/css">
	.st0{enable-background:new    ;}
	.st1{fill:#FFFFFF;}
	.st2{fill:url(#SVGID_1_);}
</style>
<metadata>
	<sfw  xmlns="&ns_sfw;">
		<slices></slices>
		<sliceSourceBounds  bottomLeftOrigin="true" height="1158.7" width="1918.6" x="21.5" y="-684.1"></sliceSourceBounds>
	</sfw>
</metadata>
<g>
	<text transform="matrix(1 0 0 1 1187.0381 -145.5327)" style="font-family:'Roboto-Bold'; font-size:49px;">¿Buscás algún concepto clave?</text>
	<text transform="matrix(1 0 0 1 1376.938 -86.7327)" style="font-family:'Roboto-Regular'; font-size:49px;">Hacé clic aquí</text>
</g>
<text transform="matrix(1 0 0 1 1187.0381 180.0379)" style="font-family:'Roboto-Bold'; font-size:49px;">¿Buscás algún concepto clave?</text>
<text transform="matrix(1 0 0 1 1187.0381 317.1497)" style="font-family:'Roboto-Bold'; font-size:49px;">Te esperamos en</text>
<g class="st0">
	<path d="M336.6,99.9H326v29h-7.2v-29h-10.5v-5.8h28.4V99.9z"/>
	<path d="M350.1,129.4c-3.8,0-6.9-1.2-9.3-3.5c-2.4-2.3-3.6-5.4-3.6-9.3v-0.7c0-2.6,0.5-4.9,1.5-7s2.4-3.6,4.3-4.7
		c1.8-1.1,3.9-1.7,6.3-1.7c3.5,0,6.3,1.1,8.4,3.3c2,2.2,3.1,5.4,3.1,9.5v2.8h-16.5c0.2,1.7,0.9,3,2,4.1c1.1,1,2.5,1.5,4.3,1.5
		c2.7,0,4.7-1,6.2-2.9l3.4,3.8c-1,1.5-2.4,2.6-4.2,3.4S352.2,129.4,350.1,129.4z M349.3,108.1c-1.4,0-2.5,0.5-3.3,1.4
		c-0.9,0.9-1.4,2.3-1.6,4h9.6v-0.6c0-1.5-0.4-2.7-1.2-3.6C351.9,108.5,350.7,108.1,349.3,108.1z"/>
	<path d="M388.7,129.4c-3.8,0-6.9-1.2-9.3-3.5c-2.4-2.3-3.6-5.4-3.6-9.3v-0.7c0-2.6,0.5-4.9,1.5-7s2.4-3.6,4.3-4.7
		c1.8-1.1,3.9-1.7,6.3-1.7c3.5,0,6.3,1.1,8.4,3.3c2,2.2,3.1,5.4,3.1,9.5v2.8h-16.5c0.2,1.7,0.9,3,2,4.1c1.1,1,2.5,1.5,4.3,1.5
		c2.7,0,4.7-1,6.2-2.9l3.4,3.8c-1,1.5-2.4,2.6-4.2,3.4S390.9,129.4,388.7,129.4z M388,108.1c-1.4,0-2.5,0.5-3.3,1.4
		c-0.9,0.9-1.4,2.3-1.6,4h9.6v-0.6c0-1.5-0.4-2.7-1.2-3.6C390.6,108.5,389.4,108.1,388,108.1z"/>
	<path d="M417.3,121.7c0-0.8-0.4-1.5-1.3-2c-0.8-0.5-2.2-0.9-4-1.3c-6.2-1.3-9.2-3.9-9.2-7.8c0-2.3,1-4.2,2.9-5.8
		c1.9-1.5,4.4-2.3,7.5-2.3c3.3,0,5.9,0.8,7.9,2.3c2,1.5,3,3.6,3,6h-6.9c0-1-0.3-1.8-1-2.5c-0.6-0.6-1.6-1-3-1
		c-1.2,0-2.1,0.3-2.7,0.8c-0.6,0.5-1,1.2-1,2c0,0.8,0.4,1.4,1.1,1.9c0.7,0.5,1.9,0.9,3.7,1.2c1.7,0.3,3.2,0.7,4.4,1.2
		c3.7,1.3,5.5,3.7,5.5,7c0,2.4-1,4.3-3,5.7c-2,1.5-4.6,2.2-7.8,2.2c-2.2,0-4.1-0.4-5.8-1.2c-1.7-0.8-3-1.8-4-3.2
		c-1-1.3-1.4-2.8-1.4-4.4h6.6c0.1,1.2,0.5,2.2,1.4,2.8c0.8,0.7,2,1,3.4,1c1.3,0,2.3-0.3,3-0.8C417,123.2,417.3,122.6,417.3,121.7z"
		/>
	<path d="M451.8,116.2c0,4-0.9,7.2-2.7,9.6c-1.8,2.4-4.3,3.6-7.3,3.6c-2.6,0-4.7-0.9-6.3-2.7v12.2h-6.9V103h6.4l0.2,2.5
		c1.7-2,3.9-3,6.6-3c3.2,0,5.7,1.2,7.4,3.5s2.7,5.6,2.7,9.8V116.2z M444.9,115.7c0-2.4-0.4-4.3-1.3-5.6c-0.9-1.3-2.1-2-3.7-2
		c-2.2,0-3.7,0.8-4.5,2.5v10.6c0.8,1.7,2.4,2.6,4.5,2.6C443.2,123.8,444.9,121.1,444.9,115.7z"/>
	<path d="M468,129.4c-3.8,0-6.9-1.2-9.3-3.5c-2.4-2.3-3.6-5.4-3.6-9.3v-0.7c0-2.6,0.5-4.9,1.5-7s2.4-3.6,4.3-4.7
		c1.8-1.1,3.9-1.7,6.3-1.7c3.5,0,6.3,1.1,8.4,3.3c2,2.2,3.1,5.4,3.1,9.5v2.8h-16.5c0.2,1.7,0.9,3,2,4.1c1.1,1,2.5,1.5,4.3,1.5
		c2.7,0,4.7-1,6.2-2.9l3.4,3.8c-1,1.5-2.4,2.6-4.2,3.4S470.2,129.4,468,129.4z M467.2,108.1c-1.4,0-2.5,0.5-3.3,1.4
		c-0.9,0.9-1.4,2.3-1.6,4h9.6v-0.6c0-1.5-0.4-2.7-1.2-3.6C469.8,108.5,468.7,108.1,467.2,108.1z"/>
	<path d="M497.1,109.5c-0.9-0.1-1.8-0.2-2.5-0.2c-2.6,0-4.3,0.9-5.1,2.7v16.9h-6.9V103h6.5l0.2,3.1c1.4-2.4,3.3-3.6,5.8-3.6
		c0.8,0,1.5,0.1,2.2,0.3L497.1,109.5z"/>
	<path d="M514.7,128.9c-0.3-0.6-0.5-1.4-0.7-2.3c-1.7,1.9-3.9,2.8-6.5,2.8c-2.5,0-4.6-0.7-6.3-2.2c-1.7-1.5-2.5-3.3-2.5-5.6
		c0-2.7,1-4.8,3.1-6.3c2-1.5,5-2.2,8.8-2.2h3.2v-1.5c0-1.2-0.3-2.2-0.9-2.9c-0.6-0.7-1.6-1.1-2.9-1.1c-1.2,0-2.1,0.3-2.7,0.8
		c-0.7,0.6-1,1.3-1,2.3h-6.9c0-1.5,0.5-2.9,1.4-4.2c0.9-1.3,2.2-2.3,3.9-3s3.6-1.1,5.7-1.1c3.2,0,5.7,0.8,7.6,2.4
		c1.9,1.6,2.8,3.9,2.8,6.8v11.2c0,2.5,0.4,4.3,1,5.6v0.4H514.7z M509,124.1c1,0,2-0.2,2.8-0.7c0.9-0.5,1.5-1.1,1.9-1.8v-4.5h-2.6
		c-3.5,0-5.3,1.2-5.5,3.6l0,0.4c0,0.9,0.3,1.6,0.9,2.1C507.1,123.8,508,124.1,509,124.1z"/>
	<path d="M532.5,103l0.2,2.9c1.8-2.3,4.3-3.4,7.4-3.4c3.3,0,5.6,1.3,6.9,3.9c1.8-2.6,4.4-3.9,7.8-3.9c2.8,0,4.9,0.8,6.3,2.5
		c1.4,1.6,2.1,4.1,2.1,7.4v16.5h-6.9v-16.5c0-1.5-0.3-2.5-0.9-3.2s-1.6-1-3-1c-2.1,0-3.5,1-4.3,3l0,17.8h-6.9v-16.5
		c0-1.5-0.3-2.6-0.9-3.3s-1.6-1-3-1c-2,0-3.4,0.8-4.3,2.4v18.3H526V103H532.5z"/>
	<path d="M567.3,115.7c0-2.6,0.5-4.9,1.5-6.9c1-2,2.4-3.6,4.3-4.7c1.9-1.1,4-1.7,6.5-1.7c3.5,0,6.3,1.1,8.6,3.2s3.4,5,3.7,8.7l0,1.8
		c0,4-1.1,7.2-3.3,9.6c-2.2,2.4-5.2,3.6-8.9,3.6s-6.7-1.2-8.9-3.6c-2.2-2.4-3.3-5.6-3.3-9.8V115.7z M574.3,116.2
		c0,2.5,0.5,4.3,1.4,5.6s2.2,2,4,2c1.7,0,3-0.6,3.9-1.9s1.4-3.3,1.4-6.2c0-2.4-0.5-4.3-1.4-5.6c-0.9-1.3-2.3-2-4-2
		c-1.7,0-3,0.7-3.9,2S574.3,113.4,574.3,116.2z"/>
	<path d="M610.2,121.7c0-0.8-0.4-1.5-1.3-2c-0.8-0.5-2.2-0.9-4-1.3c-6.2-1.3-9.2-3.9-9.2-7.8c0-2.3,1-4.2,2.9-5.8
		c1.9-1.5,4.4-2.3,7.5-2.3c3.3,0,5.9,0.8,7.9,2.3c2,1.5,3,3.6,3,6h-6.9c0-1-0.3-1.8-1-2.5c-0.6-0.6-1.6-1-3-1
		c-1.2,0-2.1,0.3-2.7,0.8c-0.6,0.5-1,1.2-1,2c0,0.8,0.4,1.4,1.1,1.9c0.7,0.5,1.9,0.9,3.7,1.2c1.7,0.3,3.2,0.7,4.4,1.2
		c3.7,1.3,5.5,3.7,5.5,7c0,2.4-1,4.3-3,5.7c-2,1.5-4.6,2.2-7.8,2.2c-2.2,0-4.1-0.4-5.8-1.2c-1.7-0.8-3-1.8-4-3.2
		c-1-1.3-1.4-2.8-1.4-4.4h6.6c0.1,1.2,0.5,2.2,1.4,2.8s2,1,3.4,1c1.3,0,2.3-0.3,3-0.8C609.8,123.2,610.2,122.6,610.2,121.7z"/>
	<path d="M645.4,129.4c-3.8,0-6.9-1.2-9.3-3.5s-3.6-5.4-3.6-9.3v-0.7c0-2.6,0.5-4.9,1.5-7s2.4-3.6,4.3-4.7c1.8-1.1,3.9-1.7,6.3-1.7
		c3.5,0,6.3,1.1,8.4,3.3c2,2.2,3.1,5.4,3.1,9.5v2.8h-16.5c0.2,1.7,0.9,3,2,4.1c1.1,1,2.5,1.5,4.3,1.5c2.7,0,4.7-1,6.2-2.9l3.4,3.8
		c-1,1.5-2.4,2.6-4.2,3.4S647.6,129.4,645.4,129.4z M644.7,108.1c-1.4,0-2.5,0.5-3.3,1.4c-0.9,0.9-1.4,2.3-1.6,4h9.6v-0.6
		c0-1.5-0.4-2.7-1.2-3.6C647.3,108.5,646.1,108.1,644.7,108.1z"/>
	<path d="M666.4,103l0.2,3c1.8-2.3,4.3-3.5,7.4-3.5c2.7,0,4.8,0.8,6.1,2.4c1.3,1.6,2,4,2.1,7.2v16.7h-6.9v-16.6c0-1.5-0.3-2.5-1-3.2
		c-0.6-0.7-1.7-1-3.2-1c-1.9,0-3.4,0.8-4.4,2.5v18.3h-6.9V103H666.4z"/>
</g>
<g>
	<path class="st1" d="M855.5,573.1c25.4,0,46,20.6,46,46v81c0,25.4-20.6,46-46,46h-784c-25.4,0-46-20.6-46-46v-81
		c0-25.4,20.6-46,46-46H855.5 M855.5,569.1h-784c-27.6,0-50,22.4-50,50v81c0,27.6,22.4,50,50,50h784c27.6,0,50-22.4,50-50v-81
		C905.5,591.5,883.2,569.1,855.5,569.1L855.5,569.1z"/>
</g>
<g>
	<path class="st1" d="M855.5,285.1c25.4,0,46,20.6,46,46v81c0,25.4-20.6,46-46,46h-784c-25.4,0-46-20.6-46-46v-81
		c0-25.4,20.6-46,46-46H855.5 M855.5,281.1h-784c-27.6,0-50,22.4-50,50v81c0,27.6,22.4,50,50,50h784c27.6,0,50-22.4,50-50v-81
		C905.5,303.5,883.2,281.1,855.5,281.1L855.5,281.1z"/>
</g>
<g>
	<path class="st1" d="M855.5,26.7c25.4,0,46,20.6,46,46v81c0,25.4-20.6,46-46,46h-784c-25.4,0-46-20.6-46-46v-81
		c0-25.4,20.6-46,46-46L855.5,26.7 M855.5,22.7h-784c-27.6,0-50,22.4-50,50v81c0,27.6,22.4,50,50,50h784c27.6,0,50-22.4,50-50v-81
		C905.5,45.1,883.2,22.7,855.5,22.7L855.5,22.7z"/>
</g>
<g>
	<g class="st0">
		<path d="M180.9-182c0,2.1-0.2,3.8-0.7,5.1s-1.4,2.6-2.6,3.7c-1.3,1.2-2.1,2.1-2.6,2.6c-0.5,0.6-0.8,1.2-1,1.7
			c-0.2,0.6-0.3,1.2-0.3,1.9c0,2.5,1.2,3.8,3.7,3.8c1.2,0,2.2-0.4,2.9-1.1s1.1-1.7,1.1-3h6.9c0,3.1-1,5.5-2.9,7.2s-4.6,2.6-7.9,2.6
			c-3.4,0-6-0.8-7.9-2.4c-1.9-1.6-2.8-3.9-2.8-6.9c0-2.5,1.2-5,3.7-7.5l2.3-2.2c0.8-0.7,1.4-1.5,1.7-2.3s0.5-1.9,0.5-3.3L180.9-182
			L180.9-182L180.9-182z M181.8-189.3c0,1.1-0.4,1.9-1.1,2.6c-0.7,0.7-1.7,1-2.8,1s-2-0.3-2.8-1c-0.7-0.7-1.1-1.6-1.1-2.6
			c0-1.1,0.4-1.9,1.1-2.6s1.6-1,2.8-1s2.1,0.3,2.8,1C181.4-191.3,181.8-190.4,181.8-189.3z"/>
		<path d="M192.5-166.6v-34.8h12.2c4.2,0,7.4,0.8,9.6,2.4c2.2,1.6,3.3,4,3.3,7.1c0,1.7-0.4,3.2-1.3,4.5s-2.1,2.3-3.7,2.9
			c1.8,0.4,3.2,1.3,4.2,2.7s1.5,3,1.5,5c0,3.3-1.1,5.9-3.2,7.6s-5.2,2.6-9.1,2.6H192.5z M199.6-186.8h5.3c3.6-0.1,5.4-1.5,5.4-4.3
			c0-1.6-0.5-2.7-1.4-3.4s-2.4-1-4.3-1h-5V-186.8z M199.6-181.8v9.4h6.1c1.7,0,3-0.4,4-1.2c0.9-0.8,1.4-1.9,1.4-3.3
			c0-3.2-1.7-4.8-5-4.9H199.6z"/>
		<path d="M238.8-169.2c-1.7,2.1-4.1,3.1-7.1,3.1c-2.8,0-4.9-0.8-6.4-2.4c-1.5-1.6-2.2-3.9-2.2-7v-17h6.9v16.7c0,2.7,1.2,4,3.7,4
			c2.3,0,4-0.8,4.8-2.4v-18.3h6.9v25.9H239L238.8-169.2z"/>
		<path d="M264.7-173.8c0-0.8-0.4-1.5-1.3-2c-0.8-0.5-2.2-0.9-4-1.3c-6.2-1.3-9.2-3.9-9.2-7.8c0-2.3,1-4.2,2.9-5.8
			c1.9-1.5,4.4-2.3,7.5-2.3c3.3,0,5.9,0.8,7.9,2.3s3,3.6,3,6h-6.9c0-1-0.3-1.8-1-2.5c-0.6-0.6-1.6-1-3-1c-1.2,0-2.1,0.3-2.7,0.8
			s-1,1.2-1,2s0.4,1.4,1.1,1.9s1.9,0.9,3.7,1.2c1.8,0.3,3.2,0.7,4.4,1.2c3.7,1.3,5.5,3.7,5.5,7c0,2.4-1,4.3-3,5.7
			c-2,1.5-4.6,2.2-7.8,2.2c-2.2,0-4.1-0.4-5.8-1.2s-3-1.8-4-3.2c-1-1.3-1.4-2.8-1.4-4.4h6.6c0.1,1.2,0.5,2.2,1.4,2.8s2,1,3.4,1
			c1.3,0,2.3-0.3,3-0.8C264.4-172.3,264.7-172.9,264.7-173.8z"/>
		<path d="M286.6-171.7c1.3,0,2.3-0.4,3.1-1.1c0.8-0.7,1.2-1.6,1.2-2.8h6.5c0,1.8-0.5,3.4-1.4,4.8c-0.9,1.5-2.2,2.6-3.9,3.4
			c-1.6,0.8-3.4,1.2-5.4,1.2c-3.7,0-6.6-1.2-8.8-3.5c-2.1-2.4-3.2-5.6-3.2-9.8v-0.4c0-4,1.1-7.2,3.2-9.5c2.1-2.4,5-3.6,8.7-3.6
			c3.2,0,5.8,0.9,7.8,2.8c2,1.8,2.9,4.3,3,7.4H291c0-1.3-0.4-2.4-1.2-3.3c-0.8-0.8-1.9-1.3-3.2-1.3c-1.6,0-2.8,0.6-3.6,1.8
			c-0.8,1.2-1.2,3.1-1.2,5.7v0.7c0,2.7,0.4,4.6,1.2,5.8C283.8-172.3,285-171.7,286.6-171.7z"/>
		<path d="M316.4-166.6c-0.3-0.6-0.5-1.4-0.7-2.3c-1.7,1.9-3.9,2.8-6.5,2.8c-2.5,0-4.6-0.7-6.3-2.2c-1.7-1.5-2.5-3.3-2.5-5.6
			c0-2.7,1-4.8,3.1-6.3c2-1.5,5-2.2,8.8-2.2h3.2v-1.5c0-1.2-0.3-2.2-0.9-2.9s-1.6-1.1-2.9-1.1c-1.2,0-2.1,0.3-2.7,0.8
			c-0.7,0.6-1,1.3-1,2.3h-7c0-1.5,0.5-2.9,1.4-4.2s2.2-2.3,3.9-3s3.6-1.1,5.7-1.1c3.2,0,5.7,0.8,7.6,2.4c1.9,1.6,2.8,3.9,2.8,6.8
			v11.2c0,2.5,0.4,4.3,1,5.6v0.4L316.4-166.6L316.4-166.6z M310.7-171.4c1,0,2-0.2,2.8-0.7c0.9-0.5,1.5-1.1,1.9-1.8v-4.5h-2.6
			c-3.5,0-5.3,1.2-5.5,3.6v0.4c0,0.9,0.3,1.6,0.9,2.1C308.8-171.7,309.7-171.4,310.7-171.4z M313.3-203.4h7.5l-6.6,7.4h-5.6
			L313.3-203.4z"/>
		<path d="M341.7-173.8c0-0.8-0.4-1.5-1.3-2c-0.8-0.5-2.2-0.9-4-1.3c-6.2-1.3-9.2-3.9-9.2-7.8c0-2.3,1-4.2,2.9-5.8
			c1.9-1.5,4.4-2.3,7.5-2.3c3.3,0,5.9,0.8,7.9,2.3s3,3.6,3,6h-6.9c0-1-0.3-1.8-1-2.5c-0.6-0.6-1.6-1-3-1c-1.2,0-2.1,0.3-2.7,0.8
			s-1,1.2-1,2s0.4,1.4,1.1,1.9s2,0.9,3.7,1.2s3.2,0.7,4.4,1.2c3.7,1.3,5.5,3.7,5.5,7c0,2.4-1,4.3-3,5.7c-2,1.5-4.6,2.2-7.8,2.2
			c-2.2,0-4.1-0.4-5.8-1.2c-1.7-0.8-3-1.8-4-3.2c-1-1.3-1.4-2.8-1.4-4.4h6.6c0.1,1.2,0.5,2.2,1.4,2.8c0.8,0.7,2,1,3.4,1
			c1.3,0,2.3-0.3,3-0.8C341.4-172.3,341.7-172.9,341.7-173.8z"/>
		<path d="M380.1-166.6c-0.3-0.6-0.6-1.4-0.7-2.3c-1.7,1.9-3.9,2.8-6.5,2.8c-2.5,0-4.6-0.7-6.3-2.2s-2.5-3.3-2.5-5.6
			c0-2.7,1-4.8,3.1-6.3c2-1.5,5-2.2,8.8-2.2h3.2v-1.5c0-1.2-0.3-2.2-0.9-2.9s-1.6-1.1-2.9-1.1c-1.2,0-2.1,0.3-2.7,0.8
			c-0.7,0.6-1,1.3-1,2.3h-6.9c0-1.5,0.5-2.9,1.4-4.2s2.2-2.3,3.9-3c1.7-0.7,3.6-1.1,5.7-1.1c3.2,0,5.7,0.8,7.6,2.4
			c1.9,1.6,2.8,3.9,2.8,6.8v11.2c0,2.5,0.4,4.3,1,5.6v0.4L380.1-166.6L380.1-166.6z M374.4-171.4c1,0,2-0.2,2.8-0.7
			c0.9-0.5,1.5-1.1,1.9-1.8v-4.5h-2.6c-3.5,0-5.3,1.2-5.5,3.6v0.4c0,0.9,0.3,1.6,0.9,2.1S373.3-171.4,374.4-171.4z"/>
		<path d="M398.7-166.6h-6.9v-36.8h6.9V-166.6z"/>
		<path d="M403.4-179.7c0-4,0.9-7.2,2.8-9.6c1.9-2.4,4.4-3.6,7.6-3.6c2.8,0,5,1,6.6,2.9l0.3-2.4h6.3v25c0,2.3-0.5,4.2-1.5,5.9
			s-2.5,3-4.3,3.8c-1.9,0.9-4.1,1.3-6.6,1.3c-1.9,0-3.7-0.4-5.6-1.1s-3.2-1.7-4.1-2.9l3.1-4.2c1.7,1.9,3.8,2.9,6.3,2.9
			c1.8,0,3.3-0.5,4.3-1.5s1.5-2.4,1.5-4.2v-1.4c-1.6,1.8-3.7,2.7-6.3,2.7c-3.1,0-5.6-1.2-7.5-3.6c-1.9-2.4-2.9-5.7-2.9-9.7
			L403.4-179.7L403.4-179.7z M410.3-179.2c0,2.3,0.5,4.2,1.4,5.5s2.2,2,3.9,2c2.1,0,3.6-0.8,4.5-2.4V-185c-0.9-1.6-2.4-2.4-4.5-2.4
			c-1.7,0-3,0.7-3.9,2C410.7-184,410.3-181.9,410.3-179.2z"/>
		<path d="M447.8-169.2c-1.7,2.1-4.1,3.1-7.1,3.1c-2.8,0-4.9-0.8-6.4-2.4c-1.5-1.6-2.2-3.9-2.2-7v-17h6.9v16.7c0,2.7,1.2,4,3.7,4
			c2.3,0,4-0.8,4.8-2.4v-18.3h6.9v25.9H448L447.8-169.2z M444.7-203.4h7.5l-6.6,7.4H440L444.7-203.4z"/>
		<path d="M466.1-192.5l0.2,3c1.8-2.3,4.3-3.5,7.4-3.5c2.7,0,4.8,0.8,6.1,2.4c1.3,1.6,2,4,2.1,7.2v16.7H475v-16.5
			c0-1.5-0.3-2.5-1-3.2c-0.6-0.7-1.7-1-3.2-1c-1.9,0-3.4,0.8-4.4,2.5v18.3h-6.9v-25.9H466.1z"/>
		<path d="M510.2-171.7c1.3,0,2.3-0.4,3.1-1.1s1.2-1.6,1.2-2.8h6.5c0,1.8-0.5,3.4-1.4,4.8c-0.9,1.5-2.2,2.6-3.9,3.4
			c-1.6,0.8-3.4,1.2-5.4,1.2c-3.7,0-6.6-1.2-8.8-3.5c-2.1-2.4-3.2-5.6-3.2-9.8v-0.4c0-4,1.1-7.2,3.2-9.5c2.1-2.4,5-3.6,8.7-3.6
			c3.2,0,5.8,0.9,7.8,2.8c2,1.8,2.9,4.3,3,7.4h-6.5c0-1.3-0.4-2.4-1.2-3.3c-0.8-0.8-1.9-1.3-3.2-1.3c-1.6,0-2.8,0.6-3.6,1.8
			c-0.8,1.2-1.2,3.1-1.2,5.7v0.7c0,2.7,0.4,4.6,1.2,5.8C507.3-172.3,508.5-171.7,510.2-171.7z"/>
		<path d="M523.9-179.8c0-2.6,0.5-4.9,1.5-6.9s2.4-3.6,4.3-4.7c1.9-1.1,4-1.7,6.5-1.7c3.5,0,6.3,1.1,8.6,3.2c2.2,2.1,3.4,5,3.7,8.7
			v1.8c0,4-1.1,7.2-3.3,9.6c-2.2,2.4-5.2,3.6-8.9,3.6s-6.7-1.2-8.9-3.6c-2.2-2.4-3.3-5.6-3.3-9.8v-0.2L523.9-179.8L523.9-179.8z
			 M530.8-179.3c0,2.5,0.5,4.3,1.4,5.6s2.2,2,4,2c1.7,0,3-0.6,3.9-1.9s1.4-3.3,1.4-6.2c0-2.4-0.5-4.3-1.4-5.6s-2.3-2-4-2
			s-3,0.7-3.9,2C531.2-184.1,530.8-182.1,530.8-179.3z"/>
		<path d="M559-192.5l0.2,3c1.9-2.3,4.3-3.5,7.4-3.5c2.7,0,4.8,0.8,6.1,2.4c1.3,1.6,2,4,2.1,7.2v16.7h-6.9v-16.5
			c0-1.5-0.3-2.5-1-3.2c-0.6-0.7-1.7-1-3.2-1c-1.9,0-3.4,0.8-4.4,2.5v18.3h-6.9v-25.9H559z"/>
		<path d="M590.9-171.7c1.3,0,2.3-0.4,3.1-1.1s1.2-1.6,1.2-2.8h6.5c0,1.8-0.5,3.4-1.4,4.8c-0.9,1.5-2.2,2.6-3.9,3.4
			c-1.6,0.8-3.4,1.2-5.4,1.2c-3.7,0-6.6-1.2-8.8-3.5c-2.1-2.4-3.2-5.6-3.2-9.8v-0.4c0-4,1.1-7.2,3.2-9.5c2.1-2.4,5-3.6,8.7-3.6
			c3.2,0,5.8,0.9,7.8,2.8c2,1.8,2.9,4.3,3,7.4h-6.5c0-1.3-0.4-2.4-1.2-3.3c-0.8-0.9-1.9-1.3-3.2-1.3c-1.6,0-2.8,0.6-3.6,1.8
			s-1.2,3.1-1.2,5.7v0.7c0,2.7,0.4,4.6,1.2,5.8C588-172.3,589.2-171.7,590.9-171.7z"/>
		<path d="M617.6-166.1c-3.8,0-6.9-1.2-9.3-3.5c-2.4-2.3-3.6-5.4-3.6-9.3v-0.7c0-2.6,0.5-4.9,1.5-7s2.4-3.6,4.3-4.7
			c1.8-1.1,3.9-1.7,6.3-1.7c3.5,0,6.3,1.1,8.4,3.3c2,2.2,3.1,5.4,3.1,9.5v2.8h-16.5c0.2,1.7,0.9,3,2,4.1c1.1,1,2.5,1.5,4.3,1.5
			c2.7,0,4.7-1,6.2-2.9l3.4,3.8c-1,1.5-2.4,2.6-4.2,3.4S619.7-166.1,617.6-166.1z M616.8-187.4c-1.4,0-2.5,0.5-3.3,1.4
			s-1.4,2.3-1.6,4h9.6v-0.6c0-1.5-0.4-2.7-1.2-3.6C619.4-187,618.2-187.4,616.8-187.4z"/>
		<path d="M655.4-179.3c0,4-0.9,7.2-2.7,9.6c-1.8,2.4-4.3,3.6-7.3,3.6c-2.6,0-4.7-0.9-6.3-2.7v12.2h-6.9v-35.9h6.4l0.2,2.5
			c1.7-2,3.9-3,6.6-3c3.2,0,5.7,1.2,7.4,3.5s2.7,5.6,2.7,9.8v0.4H655.4z M648.5-179.8c0-2.4-0.4-4.3-1.3-5.6c-0.9-1.3-2.1-2-3.7-2
			c-2.2,0-3.7,0.8-4.5,2.5v10.6c0.8,1.7,2.4,2.6,4.5,2.6C646.9-171.7,648.5-174.4,648.5-179.8z"/>
		<path d="M668-198.9v6.4h4.4v5.1H668v12.9c0,1,0.2,1.6,0.6,2.1c0.4,0.4,1.1,0.6,2.1,0.6c0.8,0,1.4-0.1,2-0.2v5.2
			c-1.4,0.4-2.8,0.6-4.2,0.6c-4.8,0-7.3-2.4-7.4-7.3v-13.9h-3.8v-5.1h3.8v-6.4L668-198.9L668-198.9z"/>
		<path d="M674.5-179.8c0-2.6,0.5-4.9,1.5-6.9s2.4-3.6,4.3-4.7c1.9-1.1,4-1.7,6.5-1.7c3.5,0,6.3,1.1,8.6,3.2c2.3,2.1,3.4,5,3.7,8.7
			v1.8c0,4-1.1,7.2-3.3,9.6c-2.2,2.4-5.2,3.6-8.9,3.6s-6.7-1.2-8.9-3.6c-2.2-2.4-3.3-5.6-3.3-9.8v-0.2L674.5-179.8L674.5-179.8z
			 M681.4-179.3c0,2.5,0.5,4.3,1.4,5.6s2.2,2,4,2c1.7,0,3-0.6,3.9-1.9s1.4-3.3,1.4-6.2c0-2.4-0.5-4.3-1.4-5.6s-2.3-2-4-2
			s-3,0.7-3.9,2S681.4-182.1,681.4-179.3z"/>
		<path d="M726.2-171.7c1.3,0,2.3-0.4,3.1-1.1s1.2-1.6,1.2-2.8h6.5c0,1.8-0.5,3.4-1.4,4.8c-0.9,1.5-2.2,2.6-3.9,3.4
			c-1.6,0.8-3.4,1.2-5.4,1.2c-3.7,0-6.6-1.2-8.8-3.5c-2.1-2.4-3.2-5.6-3.2-9.8v-0.4c0-4,1.1-7.2,3.2-9.5c2.1-2.4,5-3.6,8.7-3.6
			c3.2,0,5.8,0.9,7.8,2.8c2,1.8,2.9,4.3,3,7.4h-6.5c0-1.3-0.4-2.4-1.2-3.3c-0.8-0.9-1.9-1.3-3.2-1.3c-1.6,0-2.8,0.6-3.6,1.8
			s-1.2,3.1-1.2,5.7v0.7c0,2.7,0.4,4.6,1.2,5.8C723.3-172.3,724.6-171.7,726.2-171.7z"/>
		<path d="M748.3-166.6h-6.9v-36.8h6.9V-166.6z"/>
		<path d="M769-166.6c-0.3-0.6-0.5-1.4-0.7-2.3c-1.7,1.9-3.9,2.8-6.5,2.8c-2.5,0-4.6-0.7-6.3-2.2s-2.5-3.3-2.5-5.6
			c0-2.7,1-4.8,3.1-6.3c2-1.5,5-2.2,8.8-2.2h3.2v-1.5c0-1.2-0.3-2.2-0.9-2.9c-0.6-0.7-1.6-1.1-2.9-1.1c-1.2,0-2.1,0.3-2.7,0.8
			c-0.7,0.6-1,1.3-1,2.3h-6.9c0-1.5,0.5-2.9,1.4-4.2s2.2-2.3,3.9-3s3.6-1.1,5.7-1.1c3.2,0,5.7,0.8,7.6,2.4c1.9,1.6,2.8,3.9,2.8,6.8
			v11.2c0,2.5,0.4,4.3,1,5.6v0.4L769-166.6L769-166.6z M763.3-171.4c1,0,2-0.2,2.8-0.7c0.9-0.5,1.5-1.1,1.9-1.8v-4.5h-2.6
			c-3.5,0-5.3,1.2-5.5,3.6v0.4c0,0.9,0.3,1.6,0.9,2.1C761.4-171.7,762.2-171.4,763.3-171.4z"/>
		<path d="M789.6-175l4.8-17.4h7.2l-8.7,25.9h-6.6l-8.7-25.9h7.2L789.6-175z"/>
		<path d="M816.3-166.1c-3.8,0-6.9-1.2-9.3-3.5c-2.4-2.3-3.6-5.4-3.6-9.3v-0.7c0-2.6,0.5-4.9,1.5-7s2.4-3.6,4.3-4.7
			c1.8-1.1,3.9-1.7,6.3-1.7c3.5,0,6.3,1.1,8.4,3.3c2,2.2,3.1,5.4,3.1,9.5v2.8h-16.5c0.2,1.7,0.9,3,2,4.1c1.1,1,2.5,1.5,4.3,1.5
			c2.7,0,4.7-1,6.2-2.9l3.4,3.8c-1,1.5-2.4,2.6-4.2,3.4S818.4-166.1,816.3-166.1z M815.5-187.4c-1.4,0-2.5,0.5-3.3,1.4
			s-1.4,2.3-1.6,4h9.6v-0.6c0-1.5-0.4-2.7-1.2-3.6C818.1-187,817-187.4,815.5-187.4z"/>
		<path d="M836.5-177.3c0-2.2,0.3-4,0.8-5.3s1.5-2.6,3-3.9c1.4-1.3,2.4-2.3,2.9-3.1s0.7-1.7,0.7-2.6c0-2.7-1.2-4-3.7-4
			c-1.2,0-2.1,0.4-2.8,1.1s-1.1,1.7-1.1,3h-6.9c0-3,1-5.4,3-7.2c1.9-1.7,4.6-2.6,7.9-2.6c3.4,0,6,0.8,7.9,2.5s2.8,3.9,2.8,6.9
			c0,1.4-0.3,2.6-0.9,3.8c-0.6,1.2-1.7,2.5-3.2,4l-1.9,1.8c-1.2,1.2-1.9,2.5-2.1,4.1l-0.1,1.5C842.8-177.3,836.5-177.3,836.5-177.3z
			 M835.8-169.9c0-1.1,0.4-1.9,1.1-2.6s1.7-1,2.8-1s2.1,0.3,2.8,1s1.1,1.6,1.1,2.6s-0.4,1.9-1.1,2.6s-1.6,1-2.8,1s-2.1-0.3-2.8-1
			C836.2-168,835.8-168.9,835.8-169.9z"/>
	</g>
	<g class="st0">
		<path d="M385.7-107.8h-4.6v-16.1h-17.6v16.1h-4.6v-34.8h4.6v15h17.6v-15h4.6V-107.8z"/>
		<path d="M409.1-107.8c-0.3-0.5-0.5-1.4-0.6-2.7c-2.1,2.1-4.5,3.2-7.4,3.2c-2.6,0-4.6-0.7-6.3-2.2c-1.6-1.4-2.5-3.3-2.5-5.5
			c0-2.7,1-4.8,3.1-6.3c2-1.5,4.9-2.2,8.6-2.2h4.3v-2c0-1.5-0.5-2.8-1.4-3.7s-2.3-1.4-4.1-1.4c-1.6,0-2.9,0.4-4,1.2
			s-1.6,1.8-1.6,2.9h-4.5c0-1.3,0.5-2.5,1.4-3.7s2.2-2.2,3.7-2.9c1.6-0.7,3.3-1.1,5.2-1.1c3,0,5.3,0.7,7,2.2s2.6,3.5,2.6,6.2v11.9
			c0,2.4,0.3,4.3,0.9,5.7v0.4H409.1L409.1-107.8z M401.8-111.2c1.4,0,2.7-0.4,3.9-1.1s2.1-1.7,2.7-2.8v-5.3H405
			c-5.4,0-8.1,1.6-8.1,4.8c0,1.4,0.5,2.5,1.4,3.3C399.1-111.6,400.3-111.2,401.8-111.2z"/>
		<path d="M430.2-110.9c1.6,0,3-0.5,4.1-1.4c1.2-1,1.8-2.2,2-3.6h4.2c-0.1,1.5-0.6,2.9-1.5,4.2s-2.2,2.4-3.8,3.2
			c-1.6,0.8-3.2,1.2-5,1.2c-3.5,0-6.3-1.2-8.4-3.5c-2.1-2.4-3.1-5.6-3.1-9.7v-0.7c0-2.5,0.5-4.8,1.4-6.7c0.9-2,2.3-3.5,4-4.6
			s3.8-1.6,6.1-1.6c2.9,0,5.3,0.9,7.2,2.6c1.9,1.7,2.9,4,3.1,6.8h-4.2c-0.1-1.7-0.8-3.1-1.9-4.1c-1.1-1.1-2.5-1.6-4.2-1.6
			c-2.2,0-4,0.8-5.2,2.4c-1.2,1.6-1.9,4-1.9,7v0.8c0,3,0.6,5.3,1.8,6.9C426.1-111.7,427.9-110.9,430.2-110.9z"/>
		<path d="M456.2-107.3c-3.5,0-6.4-1.2-8.6-3.5s-3.3-5.4-3.3-9.2v-0.8c0-2.6,0.5-4.9,1.5-6.9c1-2,2.4-3.6,4.1-4.7
			c1.8-1.1,3.7-1.7,5.7-1.7c3.4,0,6,1.1,7.8,3.3c1.9,2.2,2.8,5.4,2.8,9.5v1.8h-17.5c0.1,2.6,0.8,4.6,2.2,6.2
			c1.4,1.6,3.2,2.4,5.4,2.4c1.6,0,2.9-0.3,4-1c1.1-0.6,2-1.5,2.8-2.5l2.7,2.1C463.8-109,460.5-107.3,456.2-107.3z M455.6-130.5
			c-1.8,0-3.3,0.7-4.5,2s-2,3.1-2.2,5.5h13v-0.3c-0.1-2.2-0.7-4-1.8-5.2C459-129.9,457.5-130.5,455.6-130.5z M457.8-144.6h5.4
			l-6.4,7h-3.6L457.8-144.6z"/>
		<path d="M493.9-110.9c1.6,0,3-0.5,4.1-1.4c1.2-1,1.8-2.2,2-3.6h4.2c-0.1,1.5-0.6,2.9-1.5,4.2s-2.2,2.4-3.8,3.2
			c-1.6,0.8-3.2,1.2-5,1.2c-3.5,0-6.3-1.2-8.4-3.5c-2.1-2.4-3.1-5.6-3.1-9.7v-0.7c0-2.5,0.5-4.8,1.4-6.7c0.9-2,2.3-3.5,4-4.6
			s3.8-1.6,6.1-1.6c2.9,0,5.3,0.9,7.2,2.6c1.9,1.7,2.9,4,3.1,6.8H500c-0.1-1.7-0.8-3.1-1.9-4.1c-1.1-1.1-2.5-1.6-4.2-1.6
			c-2.2,0-4,0.8-5.2,2.4c-1.2,1.6-1.9,4-1.9,7v0.8c0,3,0.6,5.3,1.8,6.9C489.9-111.7,491.6-110.9,493.9-110.9z"/>
		<path d="M514-107.8h-4.4v-36.8h4.4V-107.8z"/>
		<path d="M521.1-140.6c0-0.7,0.2-1.3,0.7-1.8c0.4-0.5,1.1-0.7,2-0.7s1.5,0.2,2,0.7c0.4,0.5,0.7,1.1,0.7,1.8s-0.2,1.3-0.7,1.8
			c-0.4,0.5-1.1,0.7-2,0.7s-1.5-0.2-2-0.7C521.3-139.2,521.1-139.8,521.1-140.6z M525.9-107.8h-4.4v-25.9h4.4V-107.8z"/>
		<path d="M543.3-110.9c1.6,0,3-0.5,4.1-1.4c1.2-1,1.8-2.2,2-3.6h4.2c-0.1,1.5-0.6,2.9-1.5,4.2s-2.2,2.4-3.8,3.2s-3.2,1.2-5,1.2
			c-3.5,0-6.3-1.2-8.4-3.5c-2.1-2.4-3.1-5.6-3.1-9.7v-0.7c0-2.5,0.5-4.8,1.4-6.7c0.9-2,2.3-3.5,4-4.6s3.8-1.6,6.1-1.6
			c2.9,0,5.3,0.9,7.2,2.6c1.9,1.7,2.9,4,3.1,6.8h-4.2c-0.1-1.7-0.8-3.1-1.9-4.1c-1.1-1.1-2.5-1.6-4.2-1.6c-2.2,0-4,0.8-5.2,2.4
			c-1.2,1.6-1.9,4-1.9,7v0.8c0,3,0.6,5.3,1.8,6.9C539.3-111.7,541.1-110.9,543.3-110.9z"/>
		<path d="M586.7-107.8c-0.3-0.5-0.5-1.4-0.6-2.7c-2.1,2.1-4.5,3.2-7.4,3.2c-2.6,0-4.6-0.7-6.3-2.2c-1.6-1.4-2.5-3.3-2.5-5.5
			c0-2.7,1-4.8,3.1-6.3c2-1.5,4.9-2.2,8.6-2.2h4.3v-2c0-1.5-0.5-2.8-1.4-3.7s-2.3-1.4-4.1-1.4c-1.6,0-2.9,0.4-4,1.2
			s-1.6,1.8-1.6,2.9h-4.5c0-1.3,0.5-2.5,1.4-3.7s2.2-2.2,3.7-2.9s3.3-1.1,5.2-1.1c3,0,5.3,0.7,7,2.2s2.6,3.5,2.6,6.2v11.9
			c0,2.4,0.3,4.3,0.9,5.7v0.4H586.7L586.7-107.8z M579.4-111.2c1.4,0,2.7-0.4,3.9-1.1s2.1-1.7,2.7-2.8v-5.3h-3.5
			c-5.4,0-8.1,1.6-8.1,4.8c0,1.4,0.5,2.5,1.4,3.3C576.7-111.6,577.9-111.2,579.4-111.2z"/>
		<path d="M596.3-121c0-4.1,0.9-7.3,2.8-9.7c1.9-2.4,4.4-3.6,7.5-3.6s5.5,1,7.2,3.1l0.2-2.6h4.1V-98h-4.4v-12.3
			c-1.8,1.9-4.2,2.9-7.1,2.9c-3.1,0-5.6-1.2-7.5-3.6s-2.8-5.7-2.8-9.7V-121z M600.7-120.5c0,3,0.6,5.3,1.9,7
			c1.3,1.7,2.9,2.5,5.1,2.5c2.6,0,4.6-1.2,6-3.5v-12.7c-1.4-2.3-3.4-3.4-6-3.4c-2.1,0-3.8,0.8-5.1,2.5
			C601.4-126.3,600.7-123.8,600.7-120.5z"/>
		<path d="M641.2-110.4c-1.7,2-4.3,3-7.6,3c-2.8,0-4.9-0.8-6.3-2.4c-1.4-1.6-2.2-4-2.2-7.1v-16.8h4.4v16.7c0,3.9,1.6,5.9,4.8,5.9
			c3.4,0,5.6-1.3,6.7-3.8v-18.8h4.4v25.9h-4.2L641.2-110.4z"/>
		<path d="M657.1-144.5h5.4l-6.4,7h-3.6L657.1-144.5z M657.1-107.8h-4.5v-25.9h4.5V-107.8z"/>
	</g>
</g>
<g>
	<path d="M165.1-122.6l-28-28c-4.2,6.5-9.7,12-16.2,16.2l28,28c4.5,4.5,11.7,4.5,16.2,0C169.6-110.8,169.6-118.1,165.1-122.6z"/>
	<path d="M137.9-179.4c0-25.3-20.5-45.8-45.8-45.8s-45.8,20.5-45.8,45.8s20.5,45.8,45.8,45.8S137.9-154.1,137.9-179.4z M92.1-145
		c-18.9,0-34.4-15.4-34.4-34.4s15.4-34.4,34.4-34.4s34.4,15.4,34.4,34.4C126.4-160.4,111-145,92.1-145z"/>
	<path d="M65.3-179.4h7.6c0-10.5,8.6-19.1,19.1-19.1v-7.6C77.3-206.1,65.3-194.1,65.3-179.4z"/>
</g>
<g>
	<path class="st1" d="M855.5-247.2c25.4,0,46,20.6,46,46v81c0,25.4-20.6,46-46,46h-784c-25.4,0-46-20.6-46-46v-81
		c0-25.4,20.6-46,46-46H855.5 M855.5-251.2h-784c-27.6,0-50,22.4-50,50v81c0,27.6,22.4,50,50,50h784c27.6,0,50-22.4,50-50v-81
		C905.5-228.8,883.2-251.2,855.5-251.2L855.5-251.2z"/>
</g>
<g>
	<g>
		<path d="M1267.5,500.2h-12.6v34.4h-8.6v-34.4h-12.5v-6.9h33.6L1267.5,500.2L1267.5,500.2z"/>
		<path d="M1283.4,535.2c-4.5,0-8.2-1.4-11-4.2s-4.3-6.5-4.3-11v-0.8c0-3,0.6-5.8,1.8-8.3c1.2-2.5,2.8-4.3,5-5.6
			c2.2-1.3,4.7-2,7.5-2c4.2,0,7.5,1.3,9.9,4s3.6,6.4,3.6,11.3v3.3h-19.6c0.3,2,1,3.6,2.4,4.8c1.3,1.2,3,1.8,5,1.8
			c3.1,0,5.6-1.1,7.4-3.4l4,4.6c-1.2,1.7-2.9,3.1-5,4.1C1288.3,534.7,1286,535.2,1283.4,535.2z M1282.5,510c-1.6,0-2.9,0.6-4,1.6
			c-1,1.1-1.6,2.7-1.9,4.8h11.4v-0.7c0-1.8-0.6-3.2-1.5-4.3C1285.6,510.5,1284.3,510,1282.5,510z"/>
		<path d="M1329.3,535.2c-4.5,0-8.2-1.4-11-4.2c-2.9-2.8-4.3-6.5-4.3-11v-0.8c0-3,0.6-5.8,1.8-8.3c1.2-2.5,2.8-4.3,5-5.6
			c2.2-1.3,4.7-2,7.5-2c4.2,0,7.5,1.3,9.9,4s3.6,6.4,3.6,11.3v3.3h-19.6c0.3,2,1,3.6,2.4,4.8c1.3,1.2,3,1.8,5,1.8
			c3.1,0,5.6-1.1,7.4-3.4l4,4.6c-1.2,1.7-2.8,3.1-5,4.1C1334.2,534.7,1331.9,535.2,1329.3,535.2z M1328.4,510c-1.6,0-2.9,0.6-4,1.6
			c-1,1.1-1.6,2.7-1.9,4.8h11.4v-0.7c0-1.8-0.6-3.2-1.5-4.3C1331.5,510.5,1330.1,510,1328.4,510z"/>
		<path d="M1363.2,526.2c0-1-0.5-1.8-1.5-2.4c-1-0.6-2.6-1-4.8-1.5c-7.3-1.5-10.9-4.7-10.9-9.3c0-2.8,1.1-5,3.4-6.8s5.2-2.8,8.8-2.8
			c3.9,0,7,0.9,9.3,2.8c2.4,1.8,3.5,4.2,3.5,7.1h-8.2c0-1.1-0.4-2.2-1.1-2.9c-0.7-0.7-1.9-1.1-3.5-1.1c-1.4,0-2.5,0.3-3.2,0.9
			c-0.8,0.7-1.1,1.4-1.1,2.4s0.5,1.6,1.3,2.2c0.9,0.6,2.3,1,4.4,1.4s3.8,0.9,5.1,1.3c4.4,1.6,6.5,4.4,6.5,8.3c0,2.8-1.2,5-3.6,6.8
			c-2.4,1.7-5.5,2.6-9.3,2.6c-2.6,0-4.8-0.5-6.8-1.3c-2-0.9-3.6-2.2-4.7-3.8s-1.7-3.3-1.7-5.2h7.8c0.1,1.4,0.6,2.6,1.6,3.3
			s2.4,1.1,4,1.1s2.8-0.3,3.6-0.9C1362.9,527.8,1363.2,527.1,1363.2,526.2z"/>
		<path d="M1404.1,519.6c0,4.8-1,8.6-3.2,11.4c-2.2,2.8-5,4.3-8.7,4.3c-3.1,0-5.6-1-7.5-3.2v14.4h-8.2v-42.6h7.6l0.3,3
			c2-2.4,4.6-3.6,7.8-3.6c3.8,0,6.7,1.4,8.8,4.2s3.1,6.7,3.1,11.6L1404.1,519.6L1404.1,519.6z M1396,519c0-2.9-0.5-5-1.5-6.7
			c-1-1.5-2.5-2.3-4.4-2.3c-2.6,0-4.4,1-5.3,2.9v12.5c1,2,2.8,3,5.3,3C1394,528.6,1396,525.4,1396,519z"/>
		<path d="M1423.3,535.2c-4.5,0-8.2-1.4-11-4.2c-2.9-2.8-4.3-6.5-4.3-11v-0.8c0-3,0.6-5.8,1.8-8.3c1.2-2.5,2.9-4.3,5-5.6
			c2.2-1.3,4.7-2,7.5-2c4.2,0,7.5,1.3,9.9,4s3.6,6.4,3.6,11.3v3.3h-19.6c0.3,2,1,3.6,2.4,4.8s3,1.8,5,1.8c3.1,0,5.6-1.1,7.4-3.4
			l4,4.6c-1.2,1.7-2.9,3.1-5,4.1C1428.3,534.7,1425.9,535.2,1423.3,535.2z M1422.4,510c-1.6,0-2.9,0.6-4,1.6c-1,1.1-1.6,2.7-1.9,4.8
			h11.4v-0.7c0-1.8-0.6-3.2-1.5-4.3C1425.5,510.5,1424.2,510,1422.4,510z"/>
		<path d="M1457.9,511.6c-1.1-0.2-2.1-0.2-2.9-0.2c-3.1,0-5.1,1-6.1,3.1v20.1h-8.2v-30.7h7.8l0.2,3.7c1.6-2.8,3.9-4.3,6.8-4.3
			c1,0,1.8,0.1,2.6,0.4L1457.9,511.6z"/>
		<path d="M1478.8,534.6c-0.4-0.8-0.7-1.6-0.9-2.8c-2,2.2-4.6,3.3-7.8,3.3c-3,0-5.5-0.9-7.5-2.6s-2.9-3.9-2.9-6.6
			c0-3.2,1.2-5.8,3.6-7.5s5.9-2.7,10.5-2.7h3.8v-1.8c0-1.4-0.4-2.6-1.1-3.4c-0.8-0.9-1.9-1.2-3.4-1.2c-1.4,0-2.5,0.3-3.2,0.9
			c-0.8,0.7-1.1,1.6-1.1,2.8h-8.2c0-1.8,0.6-3.4,1.6-4.9c1.1-1.5,2.7-2.7,4.7-3.6s4.3-1.3,6.7-1.3c3.8,0,6.7,0.9,9,2.8
			c2.2,1.9,3.3,4.6,3.3,8v13.3c0,2.9,0.4,5.1,1.2,6.6v0.5L1478.8,534.6L1478.8,534.6z M1472,528.9c1.2,0,2.3-0.3,3.3-0.9
			s1.8-1.2,2.3-2.2v-5.3h-3c-4.1,0-6.3,1.4-6.6,4.3v0.5c0,1,0.4,1.9,1,2.6C1469.7,528.5,1470.7,528.9,1472,528.9z"/>
		<path d="M1499.8,503.9l0.3,3.4c2.2-2.7,5.1-4,8.8-4c4,0,6.6,1.5,8.2,4.7c2.2-3.1,5.2-4.7,9.2-4.7c3.3,0,5.8,0.9,7.4,2.9
			c1.6,1.9,2.5,4.8,2.5,8.7v19.6h-8.3v-19.6c0-1.7-0.4-3-1-3.8s-1.9-1.2-3.6-1.2c-2.5,0-4.2,1.1-5.1,3.5v21.1h-8.2v-19.6
			c0-1.8-0.4-3-1-3.9c-0.7-0.8-1.9-1.2-3.6-1.2c-2.3,0-4,0.9-5,2.8v21.8h-8.2v-30.5L1499.8,503.9L1499.8,503.9z"/>
		<path d="M1541.2,519c0-3,0.6-5.8,1.8-8.2c1.1-2.4,2.9-4.3,5-5.5c2.2-1.3,4.8-2,7.7-2c4.2,0,7.5,1.2,10.2,3.8
			c2.7,2.6,4.1,6,4.4,10.4l0.1,2.1c0,4.8-1.3,8.5-4,11.3s-6.2,4.3-10.5,4.3c-4.5,0-8-1.4-10.6-4.3c-2.6-2.9-4-6.7-4-11.6L1541.2,519
			L1541.2,519z M1549.4,519.6c0,2.9,0.6,5.1,1.6,6.7c1.1,1.5,2.7,2.3,4.8,2.3c2,0,3.5-0.8,4.7-2.3s1.7-4,1.7-7.3
			c0-2.9-0.6-5-1.7-6.7s-2.7-2.4-4.8-2.4c-2,0-3.5,0.8-4.7,2.4C1550,513.9,1549.4,516.3,1549.4,519.6z"/>
		<path d="M1592,526.2c0-1-0.5-1.8-1.5-2.4c-1-0.6-2.6-1-4.8-1.5c-7.3-1.5-10.9-4.7-10.9-9.3c0-2.8,1.1-5,3.4-6.8s5.2-2.8,8.8-2.8
			c3.9,0,7,0.9,9.3,2.8c2.4,1.8,3.5,4.2,3.5,7.1h-8.2c0-1.1-0.4-2.2-1.1-2.9c-0.8-0.8-1.9-1.1-3.5-1.1c-1.4,0-2.5,0.3-3.2,0.9
			c-0.8,0.7-1.1,1.4-1.1,2.4s0.5,1.6,1.3,2.2c0.9,0.6,2.3,1,4.4,1.4s3.8,0.9,5.1,1.3c4.4,1.6,6.5,4.4,6.5,8.3c0,2.8-1.2,5-3.6,6.8
			c-2.4,1.7-5.5,2.6-9.3,2.6c-2.6,0-4.8-0.5-6.8-1.3c-2-0.9-3.6-2.2-4.7-3.8s-1.7-3.3-1.7-5.2h7.8c0.1,1.4,0.6,2.6,1.6,3.3
			c1,0.8,2.4,1.1,4,1.1s2.8-0.3,3.6-0.9C1591.6,527.9,1592,527.1,1592,526.2z"/>
		<path d="M1633.9,535.2c-4.5,0-8.2-1.4-11-4.2s-4.3-6.5-4.3-11v-0.8c0-3,0.6-5.8,1.8-8.3c1.2-2.5,2.9-4.3,5-5.6
			c2.2-1.3,4.7-2,7.5-2c4.2,0,7.5,1.3,9.9,4s3.6,6.4,3.6,11.3v3.3h-19.6c0.3,2,1,3.6,2.4,4.8s3,1.8,5,1.8c3.1,0,5.6-1.1,7.4-3.4
			l4,4.6c-1.2,1.7-2.9,3.1-5,4.1C1638.7,534.7,1636.4,535.2,1633.9,535.2z M1632.9,510c-1.6,0-2.9,0.6-4,1.6c-1,1.1-1.6,2.7-1.9,4.8
			h11.4v-0.7c0-1.8-0.6-3.2-1.5-4.3C1636,510.5,1634.6,510,1632.9,510z"/>
		<path d="M1658.7,503.9l0.3,3.5c2.2-2.8,5.1-4.1,8.8-4.1c3.2,0,5.7,0.9,7.2,2.8c1.6,1.9,2.4,4.8,2.5,8.5v19.9h-8.2v-19.7
			c0-1.7-0.4-3-1.1-3.8c-0.8-0.8-2-1.1-3.8-1.1c-2.3,0-4.1,1-5.2,2.9v21.7h-8.2v-30.6H1658.7z"/>
	</g>
</g>
<g>
	
		<linearGradient id="SVGID_1_" gradientUnits="userSpaceOnUse" x1="156.3707" y1="-700.3292" x2="74.6293" y2="-782.0708" gradientTransform="matrix(1 0 0 -1 0 -628)">
		<stop  offset="1.104800e-03" style="stop-color:#FFE185"/>
		<stop  offset="0.2094" style="stop-color:#FFBB36"/>
		<stop  offset="0.3765" style="stop-color:#FF5176"/>
		<stop  offset="0.5238" style="stop-color:#F63395"/>
		<stop  offset="0.7394" style="stop-color:#A436D2"/>
		<stop  offset="1" style="stop-color:#5F4EED"/>
	</linearGradient>
	<circle class="st2" cx="115.5" cy="113.2" r="57.8"/>
	<g>
		<g>
			<path class="st1" d="M133.4,91.3c-2.2,0-4,1.8-4,4s1.8,4,4,4s4-1.8,4-4C137.4,93.1,135.7,91.3,133.4,91.3z"/>
			<path class="st1" d="M115.8,96.4c-9.2,0-16.7,7.5-16.7,16.7s7.5,16.7,16.7,16.7s16.7-7.5,16.7-16.7
				C132.4,103.9,124.9,96.4,115.8,96.4z M115.8,123.7c-5.9,0-10.7-4.8-10.7-10.7c0-5.9,4.8-10.7,10.7-10.7s10.7,4.8,10.7,10.7
				C126.5,119,121.7,123.7,115.8,123.7z"/>
			<path class="st1" d="M129,147h-27.1c-11.2,0-20.3-9.1-20.3-20.3V99.6c0-11.2,9.1-20.3,20.3-20.3H129c11.2,0,20.3,9.1,20.3,20.3
				v27.1C149.3,137.8,140.2,147,129,147z M101.9,85.6c-7.7,0-14,6.3-14,14v27.1c0,7.7,6.3,14,14,14H129c7.7,0,14-6.3,14-14v-27
				c0-7.7-6.3-14-14-14L101.9,85.6L101.9,85.6z"/>
		</g>
	</g>
</g>
<g class="st0">
	<path d="M233.2,349.8c0,2.1-0.2,3.8-0.7,5.1c-0.5,1.3-1.4,2.6-2.6,3.7c-1.3,1.2-2.1,2.1-2.6,2.6c-0.5,0.6-0.8,1.2-1,1.7
		c-0.2,0.6-0.3,1.2-0.3,1.9c0,2.5,1.2,3.8,3.7,3.8c1.2,0,2.2-0.4,2.9-1.1s1.1-1.7,1.1-3h6.9c0,3.1-1,5.5-2.9,7.2s-4.6,2.6-7.9,2.6
		c-3.4,0-6-0.8-7.9-2.4s-2.8-3.9-2.8-6.9c0-2.5,1.2-5,3.7-7.5l2.3-2.2c0.8-0.7,1.4-1.5,1.7-2.3s0.5-1.9,0.5-3.3L233.2,349.8
		L233.2,349.8z M234.1,342.5c0,1.1-0.4,1.9-1.1,2.6c-0.7,0.7-1.7,1-2.8,1s-2-0.3-2.8-1c-0.7-0.7-1.1-1.6-1.1-2.6
		c0-1.1,0.4-1.9,1.1-2.6c0.7-0.7,1.6-1,2.8-1s2.1,0.3,2.8,1S234.1,341.4,234.1,342.5z"/>
	<path d="M273.1,365.2h-7.2l-14-22.9v22.9h-7.2v-34.8h7.2l14,23v-23h7.2V365.2z"/>
	<path d="M290.8,365.7c-3.8,0-6.9-1.2-9.3-3.5s-3.6-5.4-3.6-9.3v-0.7c0-2.6,0.5-4.9,1.5-7s2.4-3.6,4.3-4.7c1.8-1.1,3.9-1.7,6.3-1.7
		c3.5,0,6.3,1.1,8.4,3.3c2,2.2,3.1,5.4,3.1,9.5v2.8H285c0.2,1.7,0.9,3,2,4.1c1.1,1,2.5,1.5,4.3,1.5c2.7,0,4.7-1,6.2-2.9l3.4,3.8
		c-1,1.5-2.4,2.6-4.2,3.4S293,365.7,290.8,365.7z M290,344.4c-1.4,0-2.5,0.5-3.3,1.4c-0.9,0.9-1.4,2.3-1.6,4h9.6v-0.6
		c0-1.5-0.4-2.7-1.2-3.6C292.6,344.9,291.5,344.4,290,344.4z"/>
	<path d="M316.2,360.1c1.3,0,2.3-0.4,3.1-1.1c0.8-0.7,1.2-1.6,1.2-2.8h6.5c0,1.8-0.5,3.4-1.4,4.8c-0.9,1.5-2.2,2.6-3.9,3.4
		c-1.6,0.8-3.4,1.2-5.4,1.2c-3.7,0-6.6-1.2-8.8-3.5c-2.1-2.4-3.2-5.6-3.2-9.8V352c0-4,1.1-7.2,3.2-9.5c2.1-2.4,5-3.6,8.7-3.6
		c3.2,0,5.8,0.9,7.8,2.8c2,1.8,2.9,4.3,3,7.4h-6.5c0-1.3-0.4-2.4-1.2-3.3c-0.8-0.8-1.9-1.3-3.2-1.3c-1.6,0-2.8,0.6-3.6,1.8
		c-0.8,1.2-1.2,3.1-1.2,5.7v0.7c0,2.7,0.4,4.6,1.2,5.8C313.3,359.5,314.5,360.1,316.2,360.1z"/>
	<path d="M342.9,365.7c-3.8,0-6.9-1.2-9.3-3.5s-3.6-5.4-3.6-9.3v-0.7c0-2.6,0.5-4.9,1.5-7s2.4-3.6,4.3-4.7c1.8-1.1,3.9-1.7,6.3-1.7
		c3.5,0,6.3,1.1,8.4,3.3c2,2.2,3.1,5.4,3.1,9.5v2.8H337c0.2,1.7,0.9,3,2,4.1c1.1,1,2.5,1.5,4.3,1.5c2.7,0,4.7-1,6.2-2.9l3.4,3.8
		c-1,1.5-2.4,2.6-4.2,3.4S345,365.7,342.9,365.7z M342.1,344.4c-1.4,0-2.5,0.5-3.3,1.4c-0.9,0.9-1.4,2.3-1.6,4h9.6v-0.6
		c0-1.5-0.4-2.7-1.2-3.6C344.7,344.9,343.5,344.4,342.1,344.4z"/>
	<path d="M371.5,358.1c0-0.8-0.4-1.5-1.3-2c-0.8-0.5-2.2-0.9-4-1.3c-6.2-1.3-9.2-3.9-9.2-7.8c0-2.3,1-4.2,2.9-5.8
		c1.9-1.5,4.4-2.3,7.5-2.3c3.3,0,5.9,0.8,7.9,2.3s3,3.6,3,6h-6.9c0-1-0.3-1.8-1-2.5c-0.6-0.6-1.6-1-3-1c-1.2,0-2.1,0.3-2.7,0.8
		s-1,1.2-1,2s0.4,1.4,1.1,1.9s1.9,0.9,3.7,1.2s3.2,0.7,4.4,1.2c3.7,1.3,5.5,3.7,5.5,7c0,2.4-1,4.3-3,5.7c-2,1.5-4.6,2.2-7.8,2.2
		c-2.2,0-4.1-0.4-5.8-1.2c-1.7-0.8-3-1.8-4-3.2c-1-1.3-1.4-2.8-1.4-4.4h6.6c0.1,1.2,0.5,2.2,1.4,2.8c0.8,0.7,2,1,3.4,1
		c1.3,0,2.3-0.3,3-0.8C371.1,359.5,371.5,358.9,371.5,358.1z"/>
	<path d="M382.6,332.6c0-1,0.3-1.9,1-2.6s1.6-1,2.8-1c1.2,0,2.1,0.3,2.8,1c0.7,0.7,1.1,1.5,1.1,2.6s-0.4,1.9-1.1,2.6s-1.6,1-2.8,1
		c-1.2,0-2.1-0.3-2.8-1C382.9,334.5,382.6,333.7,382.6,332.6z M389.9,365.2H383v-25.9h6.9V365.2z"/>
	<path d="M403.9,333v6.4h4.4v5.1h-4.4v12.9c0,1,0.2,1.6,0.6,2.1c0.4,0.4,1.1,0.6,2.1,0.6c0.8,0,1.4-0.1,2-0.2v5.2
		c-1.4,0.4-2.8,0.6-4.2,0.6c-4.8,0-7.3-2.4-7.4-7.3v-13.9h-3.8v-5.1h3.8V333H403.9z"/>
	<path d="M427.2,365.2c-0.3-0.6-0.6-1.4-0.7-2.3c-1.7,1.9-3.9,2.8-6.5,2.8c-2.5,0-4.6-0.7-6.3-2.2c-1.7-1.5-2.5-3.3-2.5-5.6
		c0-2.7,1-4.8,3.1-6.3c2-1.5,5-2.2,8.8-2.2h3.2v-1.5c0-1.2-0.3-2.2-0.9-2.9c-0.6-0.7-1.6-1.1-2.9-1.1c-1.2,0-2.1,0.3-2.7,0.8
		c-0.7,0.6-1,1.3-1,2.3h-6.9c0-1.5,0.5-2.9,1.4-4.2c0.9-1.3,2.2-2.3,3.9-3c1.7-0.7,3.6-1.1,5.7-1.1c3.2,0,5.7,0.8,7.6,2.4
		s2.8,3.9,2.8,6.8v11.2c0,2.5,0.4,4.3,1,5.6v0.4h-7.1V365.2z M421.5,360.4c1,0,2-0.2,2.8-0.7c0.9-0.5,1.5-1.1,1.9-1.8v-4.5h-2.6
		c-3.5,0-5.3,1.2-5.5,3.6v0.4c0,0.9,0.3,1.6,0.9,2.1C419.6,360.1,420.4,360.4,421.5,360.4z M424.1,328.5h7.5l-6.6,7.4h-5.6
		L424.1,328.5z"/>
	<path d="M452.5,358.1c0-0.8-0.4-1.5-1.3-2c-0.8-0.5-2.2-0.9-4-1.3c-6.2-1.3-9.2-3.9-9.2-7.8c0-2.3,1-4.2,2.9-5.8
		c1.9-1.5,4.4-2.3,7.5-2.3c3.3,0,5.9,0.8,7.9,2.3s3,3.6,3,6h-6.9c0-1-0.3-1.8-1-2.5c-0.6-0.6-1.6-1-3-1c-1.2,0-2.1,0.3-2.7,0.8
		s-1,1.2-1,2s0.4,1.4,1.1,1.9s1.9,0.9,3.7,1.2s3.2,0.7,4.4,1.2c3.7,1.3,5.5,3.7,5.5,7c0,2.4-1,4.3-3,5.7c-2,1.5-4.6,2.2-7.8,2.2
		c-2.2,0-4.1-0.4-5.8-1.2c-1.7-0.8-3-1.8-4-3.2c-1-1.3-1.4-2.8-1.4-4.4h6.6c0.1,1.2,0.5,2.2,1.4,2.8c0.8,0.7,2,1,3.4,1
		c1.3,0,2.3-0.3,3-0.8C452.1,359.5,452.5,358.9,452.5,358.1z"/>
	<path d="M490.8,365.2c-0.3-0.6-0.6-1.4-0.7-2.3c-1.7,1.9-3.9,2.8-6.5,2.8c-2.5,0-4.6-0.7-6.3-2.2c-1.7-1.5-2.5-3.3-2.5-5.6
		c0-2.7,1-4.8,3.1-6.3c2-1.5,5-2.2,8.8-2.2h3.2v-1.5c0-1.2-0.3-2.2-0.9-2.9c-0.6-0.7-1.6-1.1-2.9-1.1c-1.2,0-2.1,0.3-2.7,0.8
		c-0.7,0.6-1,1.3-1,2.3h-6.9c0-1.5,0.5-2.9,1.4-4.2c0.9-1.3,2.2-2.3,3.9-3c1.7-0.7,3.6-1.1,5.7-1.1c3.2,0,5.7,0.8,7.6,2.4
		s2.8,3.9,2.8,6.8v11.2c0,2.5,0.4,4.3,1,5.6v0.4h-7.1V365.2z M485.1,360.4c1,0,2-0.2,2.8-0.7c0.9-0.5,1.5-1.1,1.9-1.8v-4.5h-2.6
		c-3.5,0-5.3,1.2-5.5,3.6v0.4c0,0.9,0.3,1.6,0.9,2.1C483.2,360.1,484.1,360.4,485.1,360.4z"/>
	<path d="M511.4,355.4l4.8-16.1h7.4l-10.4,29.9l-0.6,1.4c-1.5,3.4-4.1,5.1-7.7,5.1c-1,0-2-0.2-3.1-0.5V370h1.1
		c1.3,0,2.3-0.2,2.9-0.6s1.2-1.1,1.5-2l0.8-2.1l-9.1-26h7.4L511.4,355.4z"/>
	<path d="M541.9,362.6c-1.7,2.1-4.1,3.1-7.1,3.1c-2.8,0-4.9-0.8-6.4-2.4s-2.2-3.9-2.2-7v-17h6.9V356c0,2.7,1.2,4,3.7,4
		c2.3,0,4-0.8,4.8-2.4v-18.3h6.9v25.9H542L541.9,362.6z"/>
	<path d="M552.7,352.1c0-4,0.9-7.3,2.7-9.6c1.8-2.4,4.3-3.6,7.4-3.6c2.5,0,4.6,0.9,6.2,2.8v-13.2h6.9v36.8h-6.2l-0.3-2.8
		c-1.7,2.2-3.9,3.2-6.7,3.2c-3,0-5.5-1.2-7.3-3.6C553.6,359.7,552.7,356.4,552.7,352.1z M559.6,352.6c0,2.4,0.4,4.3,1.3,5.6
		c0.8,1.3,2.1,1.9,3.7,1.9c2.1,0,3.6-0.9,4.5-2.7v-10.2c-0.9-1.8-2.4-2.7-4.5-2.7C561.3,344.5,559.6,347.2,559.6,352.6z"/>
	<path d="M596.4,365.2c-0.3-0.6-0.6-1.4-0.7-2.3c-1.7,1.9-3.9,2.8-6.5,2.8c-2.5,0-4.6-0.7-6.3-2.2s-2.5-3.3-2.5-5.6
		c0-2.7,1-4.8,3.1-6.3c2-1.5,5-2.2,8.8-2.2h3.2v-1.5c0-1.2-0.3-2.2-0.9-2.9c-0.6-0.7-1.6-1.1-2.9-1.1c-1.2,0-2.1,0.3-2.7,0.8
		c-0.7,0.6-1,1.3-1,2.3h-6.9c0-1.5,0.5-2.9,1.4-4.2c0.9-1.3,2.2-2.3,3.9-3s3.6-1.1,5.7-1.1c3.2,0,5.7,0.8,7.6,2.4
		c1.9,1.6,2.8,3.9,2.8,6.8v11.2c0,2.5,0.4,4.3,1,5.6v0.4h-7.1V365.2z M590.7,360.4c1,0,2-0.2,2.8-0.7c0.9-0.5,1.5-1.1,1.9-1.8v-4.5
		h-2.6c-3.5,0-5.3,1.2-5.5,3.6v0.4c0,0.9,0.3,1.6,0.9,2.1C588.8,360.1,589.6,360.4,590.7,360.4z"/>
	<path d="M628.1,333v6.4h4.4v5.1h-4.4v12.9c0,1,0.2,1.6,0.6,2.1c0.4,0.4,1.1,0.6,2.1,0.6c0.8,0,1.4-0.1,2-0.2v5.2
		c-1.4,0.4-2.8,0.6-4.2,0.6c-4.8,0-7.3-2.4-7.4-7.3v-13.9h-3.8v-5.1h3.8V333H628.1z"/>
	<path d="M648.3,365.7c-3.8,0-6.9-1.2-9.3-3.5c-2.4-2.3-3.6-5.4-3.6-9.3v-0.7c0-2.6,0.5-4.9,1.5-7s2.4-3.6,4.3-4.7
		c1.8-1.1,3.9-1.7,6.3-1.7c3.5,0,6.3,1.1,8.4,3.3c2,2.2,3.1,5.4,3.1,9.5v2.8h-16.5c0.2,1.7,0.9,3,2,4.1c1.1,1,2.5,1.5,4.3,1.5
		c2.7,0,4.7-1,6.2-2.9l3.4,3.8c-1,1.5-2.4,2.6-4.2,3.4S650.5,365.7,648.3,365.7z M647.5,344.4c-1.4,0-2.5,0.5-3.3,1.4
		s-1.4,2.3-1.6,4h9.6v-0.6c0-1.5-0.4-2.7-1.2-3.6C650.1,344.9,649,344.4,647.5,344.4z M648.2,328.5h7.5l-6.6,7.4h-5.6L648.2,328.5z"
		/>
	<path d="M673.7,360.1c1.3,0,2.3-0.4,3.1-1.1s1.2-1.6,1.2-2.8h6.5c0,1.8-0.5,3.4-1.4,4.8c-0.9,1.5-2.2,2.6-3.9,3.4
		c-1.6,0.8-3.4,1.2-5.4,1.2c-3.7,0-6.6-1.2-8.8-3.5c-2.1-2.4-3.2-5.6-3.2-9.8V352c0-4,1.1-7.2,3.2-9.5c2.1-2.4,5-3.6,8.7-3.6
		c3.2,0,5.8,0.9,7.8,2.8c2,1.8,2.9,4.3,3,7.4H678c0-1.3-0.4-2.4-1.2-3.3c-0.8-0.8-1.9-1.3-3.2-1.3c-1.6,0-2.8,0.6-3.6,1.8
		c-0.8,1.2-1.2,3.1-1.2,5.7v0.7c0,2.7,0.4,4.6,1.2,5.8C670.8,359.5,672,360.1,673.7,360.1z"/>
	<path d="M694.8,339.3l0.2,3c1.9-2.3,4.3-3.5,7.4-3.5c2.7,0,4.8,0.8,6.1,2.4s2,4,2.1,7.2v16.7h-6.9v-16.6c0-1.5-0.3-2.5-1-3.2
		c-0.6-0.7-1.7-1-3.2-1c-1.9,0-3.4,0.8-4.4,2.5v18.3h-6.9v-25.9h6.6V339.3z"/>
	<path d="M715.8,332.6c0-1,0.3-1.9,1-2.6s1.6-1,2.8-1s2.1,0.3,2.8,1s1.1,1.5,1.1,2.6s-0.4,1.9-1.1,2.6s-1.6,1-2.8,1s-2.1-0.3-2.8-1
		C716.2,334.5,715.8,333.7,715.8,332.6z M723.2,365.2h-6.9v-25.9h6.9V365.2z"/>
	<path d="M739.7,360.1c1.3,0,2.3-0.4,3.1-1.1s1.2-1.6,1.2-2.8h6.5c0,1.8-0.5,3.4-1.4,4.8c-0.9,1.5-2.2,2.6-3.9,3.4
		c-1.6,0.8-3.4,1.2-5.4,1.2c-3.7,0-6.6-1.2-8.8-3.5c-2.1-2.4-3.2-5.6-3.2-9.8V352c0-4,1.1-7.2,3.2-9.5c2.1-2.4,5-3.6,8.7-3.6
		c3.2,0,5.8,0.9,7.8,2.8c2,1.8,2.9,4.3,3,7.4H744c0-1.3-0.4-2.4-1.2-3.3c-0.8-0.8-1.9-1.3-3.2-1.3c-1.6,0-2.8,0.6-3.6,1.8
		c-0.8,1.2-1.2,3.1-1.2,5.7v0.7c0,2.7,0.4,4.6,1.2,5.8C736.8,359.5,738,360.1,739.7,360.1z"/>
	<path d="M769.4,365.2c-0.3-0.6-0.5-1.4-0.7-2.3c-1.7,1.9-3.9,2.8-6.5,2.8c-2.5,0-4.6-0.7-6.3-2.2s-2.5-3.3-2.5-5.6
		c0-2.7,1-4.8,3.1-6.3c2-1.5,5-2.2,8.8-2.2h3.2v-1.5c0-1.2-0.3-2.2-0.9-2.9c-0.6-0.7-1.6-1.1-2.9-1.1c-1.2,0-2.1,0.3-2.7,0.8
		c-0.7,0.6-1,1.3-1,2.3h-7c0-1.5,0.5-2.9,1.4-4.2c0.9-1.3,2.2-2.3,3.9-3s3.6-1.1,5.7-1.1c3.2,0,5.7,0.8,7.6,2.4
		c1.9,1.6,2.8,3.9,2.8,6.8v11.2c0,2.5,0.4,4.3,1,5.6v0.4h-7V365.2z M763.7,360.4c1,0,2-0.2,2.8-0.7c0.9-0.5,1.5-1.1,1.9-1.8v-4.5
		h-2.6c-3.5,0-5.3,1.2-5.5,3.6v0.4c0,0.9,0.3,1.6,0.9,2.1C761.8,360.1,762.7,360.4,763.7,360.4z"/>
	<path d="M786.4,354.6c0-2.2,0.3-4,0.8-5.3s1.5-2.6,3-3.9c1.4-1.3,2.4-2.3,2.9-3.1s0.7-1.7,0.7-2.6c0-2.7-1.2-4-3.7-4
		c-1.2,0-2.1,0.4-2.8,1.1s-1.1,1.7-1.1,3h-6.9c0-3,1-5.4,3-7.2c1.9-1.7,4.6-2.6,7.9-2.6c3.4,0,6,0.8,7.9,2.5s2.8,3.9,2.8,6.9
		c0,1.4-0.3,2.6-0.9,3.8c-0.6,1.2-1.7,2.5-3.2,4l-1.9,1.8c-1.2,1.2-1.9,2.5-2.1,4.1l-0.1,1.5L786.4,354.6L786.4,354.6z M785.7,361.9
		c0-1.1,0.4-1.9,1.1-2.6s1.7-1,2.8-1s2.1,0.3,2.8,1s1.1,1.6,1.1,2.6s-0.4,1.9-1.1,2.6s-1.6,1-2.8,1s-2.1-0.3-2.8-1
		C786,363.8,785.7,362.9,785.7,361.9z"/>
</g>
<g class="st0">
	<path d="M386.9,424h-4.6v-16.1h-17.6V424h-4.6v-34.8h4.6v15h17.6v-15h4.6V424z"/>
	<path d="M410.3,424c-0.3-0.5-0.5-1.4-0.6-2.7c-2.1,2.1-4.5,3.2-7.4,3.2c-2.6,0-4.6-0.7-6.3-2.2s-2.5-3.3-2.5-5.5
		c0-2.7,1-4.8,3.1-6.3s4.9-2.2,8.6-2.2h4.3v-2c0-1.5-0.5-2.8-1.4-3.7c-0.9-0.9-2.3-1.4-4.1-1.4c-1.6,0-2.9,0.4-4,1.2
		c-1.1,0.8-1.6,1.8-1.6,2.9h-4.5c0-1.3,0.5-2.5,1.4-3.7s2.2-2.2,3.7-2.9c1.6-0.7,3.3-1.1,5.2-1.1c3,0,5.3,0.7,7,2.2s2.6,3.5,2.6,6.2
		v12c0,2.4,0.3,4.3,0.9,5.7v0.4h-4.4V424z M403,420.6c1.4,0,2.7-0.4,3.9-1.1s2.1-1.7,2.7-2.8v-5.3h-3.5c-5.4,0-8.1,1.6-8.1,4.8
		c0,1.4,0.5,2.5,1.4,3.3S401.5,420.6,403,420.6z"/>
	<path d="M431.4,420.9c1.6,0,3-0.5,4.1-1.4c1.2-1,1.8-2.2,2-3.6h4.2c-0.1,1.5-0.6,2.9-1.5,4.2s-2.2,2.4-3.8,3.2
		c-1.6,0.8-3.2,1.2-5,1.2c-3.5,0-6.3-1.2-8.4-3.5c-2.1-2.4-3.1-5.6-3.1-9.7v-0.7c0-2.5,0.5-4.8,1.4-6.7c0.9-2,2.3-3.5,4-4.6
		s3.8-1.6,6.1-1.6c2.9,0,5.3,0.9,7.2,2.6c1.9,1.7,2.9,4,3.1,6.8h-4.2c-0.1-1.7-0.8-3.1-1.9-4.1c-1.1-1.1-2.5-1.6-4.2-1.6
		c-2.2,0-4,0.8-5.2,2.4s-1.9,4-1.9,7v0.8c0,3,0.6,5.3,1.8,6.9S429.1,420.9,431.4,420.9z"/>
	<path d="M457.4,424.5c-3.5,0-6.4-1.2-8.6-3.5s-3.3-5.4-3.3-9.2V411c0-2.6,0.5-4.9,1.5-6.9s2.4-3.6,4.1-4.7c1.8-1.1,3.7-1.7,5.7-1.7
		c3.4,0,6,1.1,7.8,3.3c1.9,2.2,2.8,5.4,2.8,9.5v1.8h-17.5c0.1,2.6,0.8,4.6,2.2,6.2c1.4,1.6,3.2,2.4,5.4,2.4c1.6,0,2.9-0.3,4-1
		c1.1-0.6,2-1.5,2.8-2.5l2.7,2.1C465,422.8,461.7,424.5,457.4,424.5z M456.8,401.3c-1.8,0-3.3,0.7-4.5,2s-2,3.1-2.2,5.5h13v-0.3
		c-0.1-2.2-0.7-4-1.8-5.2S458.7,401.3,456.8,401.3z M459,387.3h5.4l-6.4,7h-3.6L459,387.3z"/>
	<path d="M495.1,420.9c1.6,0,3-0.5,4.1-1.4c1.2-1,1.8-2.2,2-3.6h4.2c-0.1,1.5-0.6,2.9-1.5,4.2s-2.2,2.4-3.8,3.2
		c-1.6,0.8-3.2,1.2-5,1.2c-3.5,0-6.3-1.2-8.4-3.5c-2.1-2.4-3.1-5.6-3.1-9.7v-0.7c0-2.5,0.5-4.8,1.4-6.7c0.9-2,2.3-3.5,4-4.6
		s3.8-1.6,6.1-1.6c2.9,0,5.3,0.9,7.2,2.6c1.9,1.7,2.9,4,3.1,6.8h-4.2c-0.1-1.7-0.8-3.1-1.9-4.1c-1.1-1.1-2.5-1.6-4.2-1.6
		c-2.2,0-4,0.8-5.2,2.4s-1.9,4-1.9,7v0.8c0,3,0.6,5.3,1.8,6.9S492.8,420.9,495.1,420.9z"/>
	<path d="M515.2,424h-4.4v-36.8h4.4V424z"/>
	<path d="M522.3,391.3c0-0.7,0.2-1.3,0.7-1.8c0.4-0.5,1.1-0.7,2-0.7s1.5,0.2,2,0.7c0.4,0.5,0.7,1.1,0.7,1.8c0,0.7-0.2,1.3-0.7,1.8
		c-0.4,0.5-1.1,0.7-2,0.7s-1.5-0.2-2-0.7S522.3,392,522.3,391.3z M527.1,424h-4.4v-25.9h4.4V424z"/>
	<path d="M544.5,420.9c1.6,0,3-0.5,4.1-1.4c1.2-1,1.8-2.2,2-3.6h4.2c-0.1,1.5-0.6,2.9-1.5,4.2s-2.2,2.4-3.8,3.2
		c-1.6,0.8-3.2,1.2-5,1.2c-3.5,0-6.3-1.2-8.4-3.5c-2.1-2.4-3.1-5.6-3.1-9.7v-0.7c0-2.5,0.5-4.8,1.4-6.7c0.9-2,2.3-3.5,4-4.6
		s3.8-1.6,6.1-1.6c2.9,0,5.3,0.9,7.2,2.6s2.9,4,3.1,6.8h-4.2c-0.1-1.7-0.8-3.1-1.9-4.1c-1.1-1.1-2.5-1.6-4.2-1.6
		c-2.2,0-4,0.8-5.2,2.4s-1.9,4-1.9,7v0.8c0,3,0.6,5.3,1.8,6.9S542.3,420.9,544.5,420.9z"/>
	<path d="M587.9,424c-0.3-0.5-0.5-1.4-0.6-2.7c-2.1,2.1-4.5,3.2-7.4,3.2c-2.6,0-4.6-0.7-6.3-2.2c-1.6-1.4-2.5-3.3-2.5-5.5
		c0-2.7,1-4.8,3.1-6.3c2-1.5,4.9-2.2,8.6-2.2h4.3v-2c0-1.5-0.5-2.8-1.4-3.7c-0.9-0.9-2.3-1.4-4.1-1.4c-1.6,0-2.9,0.4-4,1.2
		c-1.1,0.8-1.6,1.8-1.6,2.9h-4.5c0-1.3,0.5-2.5,1.4-3.7s2.2-2.2,3.7-2.9s3.3-1.1,5.2-1.1c3,0,5.3,0.7,7,2.2s2.6,3.5,2.6,6.2v12
		c0,2.4,0.3,4.3,0.9,5.7v0.4h-4.4V424z M580.6,420.6c1.4,0,2.7-0.4,3.9-1.1s2.1-1.7,2.7-2.8v-5.3h-3.5c-5.4,0-8.1,1.6-8.1,4.8
		c0,1.4,0.5,2.5,1.4,3.3C577.9,420.3,579.1,420.6,580.6,420.6z"/>
	<path d="M597.5,410.9c0-4.1,0.9-7.3,2.8-9.7c1.9-2.4,4.4-3.6,7.5-3.6s5.5,1,7.2,3.1l0.2-2.6h4.1V434h-4.4v-12.3
		c-1.8,1.9-4.2,2.9-7.1,2.9c-3.1,0-5.6-1.2-7.5-3.6s-2.8-5.7-2.8-9.7V410.9z M601.9,411.4c0,3,0.6,5.3,1.9,7
		c1.3,1.7,2.9,2.5,5.1,2.5c2.6,0,4.6-1.2,6-3.5v-12.7c-1.4-2.3-3.4-3.4-6-3.4c-2.1,0-3.8,0.8-5.1,2.5
		C602.6,405.5,601.9,408,601.9,411.4z"/>
	<path d="M642.4,421.5c-1.7,2-4.3,3-7.6,3c-2.8,0-4.9-0.8-6.3-2.4c-1.4-1.6-2.2-4-2.2-7.1v-16.8h4.4v16.7c0,3.9,1.6,5.9,4.8,5.9
		c3.4,0,5.6-1.3,6.7-3.8v-18.8h4.4V424h-4.2L642.4,421.5z"/>
	<path d="M658.3,387.3h5.4l-6.4,7h-3.6L658.3,387.3z M658.3,424h-4.5v-25.9h4.5V424z"/>
</g>
<path d="M148.8,381h-6c-1.1-5.9-3.5-11.6-7.1-16.5l4.1-4.2c0.4-0.4,0.6-0.9,0.6-1.5s-0.2-1.1-0.6-1.5l-7.2-7.2c-0.8-0.8-2.2-0.8-3,0
	l-4.3,4.3c-4.9-3.3-10.4-5.6-16.2-6.6v-6.1c0-1.2-1-2.2-2.2-2.2H96.7c-1.2,0-2.2,1-2.2,2.2v6.1c-5.8,1-11.4,3.3-16.3,6.7l-4.2-4.2
	c-0.8-0.9-2.2-0.9-3,0l-7.2,7.2c-0.4,0.4-0.6,1-0.6,1.5c0,0.6,0.2,1.1,0.6,1.5l4.1,4.1c-3.5,4.9-5.9,10.5-7,16.4h-5.4
	c-1.2,0-2.2,1-2.2,2.2v10.2c0,1.2,1,2.2,2.2,2.2h5.3c1,5.9,3.3,11.6,6.7,16.6l-3.8,3.8c-0.8,0.8-0.8,2.2,0,3.1l7.2,7.2
	c0.4,0.4,1,0.6,1.5,0.6c0.6,0,1.1-0.2,1.5-0.6l3.7-3.7c5,3.6,10.8,6.1,16.9,7.1v5.2c0,1.2,1,2.2,2.2,2.2H107c1.2,0,2.2-1,2.2-2.2
	v-5.2c6-1.1,11.8-3.5,16.8-7.1l3.8,3.8c0.8,0.8,2.2,0.8,3,0l7.2-7.2c0.8-0.8,0.8-2.2,0-3.1l-3.9-3.9c3.5-5,5.8-10.8,6.8-16.8h5.8
	c1.2,0,2.2-1,2.2-2.2V383C150.9,382,150,381,148.8,381z M102.1,411.1c-12.6,0-22.7-10.2-22.7-22.7c0-12.6,10.2-22.7,22.7-22.7
	c12.6,0,22.7,10.2,22.7,22.7C124.9,400.9,114.7,411.1,102.1,411.1z M110.8,388.3c0,4.8-3.9,8.6-8.6,8.6c-4.8,0-8.6-3.9-8.6-8.6
	c0-4.8,3.9-8.6,8.6-8.6C106.9,379.7,110.8,383.6,110.8,388.3z M181.7,340l-2.9-1.2c0.8-3.4,0.8-6.9,0.1-10.3l3.1-1.2
	c0.6-0.3,0.9-1,0.7-1.6l-2.2-5.4c-0.3-0.6-1-0.9-1.6-0.7l-3.2,1.3c-1.9-2.9-4.3-5.4-7.2-7.3l1.3-3.1c0.1-0.3,0.1-0.6,0-0.9
	s-0.4-0.6-0.7-0.7l-5.4-2.3c-0.6-0.3-1.4,0-1.6,0.6l-1.4,3.2c-3.3-0.7-6.7-0.8-10-0.1l-1.3-3.2c-0.3-0.6-1-0.9-1.6-0.7l-5.4,2.2
	c-0.6,0.3-0.9,1-0.7,1.6l1.3,3.2c-2.9,1.8-5.3,4.2-7.2,7l-3.1-1.3c-0.6-0.3-1.3,0-1.6,0.6l-2.3,5.4c-0.1,0.3-0.1,0.6,0,0.9
	s0.4,0.5,0.7,0.7l3,1.3c-0.8,3.3-0.9,6.8-0.2,10.2l-2.9,1.2c-0.6,0.3-0.9,1-0.7,1.6l2.2,5.4c0.3,0.6,1,0.9,1.6,0.7l2.8-1.1
	c1.8,2.9,4.2,5.5,7.1,7.4l-1.2,2.8c-0.3,0.6,0,1.3,0.6,1.6l5.4,2.3c0.3,0.1,0.6,0.1,0.9,0c0.3-0.1,0.5-0.4,0.7-0.7l1.2-2.7
	c3.4,0.8,7,0.9,10.5,0.2l1.1,2.7c0.3,0.6,1,0.9,1.6,0.7l5.4-2.2c0.6-0.2,0.9-1,0.7-1.6l-1.1-2.7c3-1.8,5.5-4.4,7.5-7.3l2.8,1.2
	c0.6,0.3,1.4,0,1.6-0.6l2.3-5.4C182.6,341,182.4,340.3,181.7,340z M160.5,345.3c-6.7,2.6-14.2-0.6-16.9-7.3
	c-2.6-6.7,0.6-14.2,7.3-16.9c6.7-2.7,14.2,0.6,16.9,7.3C170.4,335.1,167.2,342.6,160.5,345.3z M160.3,331.4c1,2.5-0.2,5.4-2.8,6.4
	c-2.5,1-5.4-0.2-6.4-2.8c-1-2.5,0.2-5.4,2.8-6.4C156.4,327.6,159.3,328.8,160.3,331.4z"/>
<g>
	<path d="M60.4,701.8c-0.4,0-0.7,0-1.1,0c-6.2,0-12.4,0-18.6,0c-1.9,0-2.9-0.8-2.9-2.9c0-29.1,0-58.1,0-87.3c0-1.9,0.8-2.9,2.9-2.9
		c14,0,28,0,42.1,0c1,0,1.8,0.3,2.5,1.1c2.7,2.9,5.6,5.6,8.4,8.5c0.4,0.4,0.8,0.5,1.4,0.5c11.1,0,22.3,0,33.3,0c2.1,0,3,0.8,3,3
		c0,29,0,58,0,87c0,1.9-0.8,2.9-2.9,2.9c-21.7,0-43.6,0-65.3,0c-1.9,0-2.7-0.8-2.7-2.7C60.4,706.8,60.4,704.4,60.4,701.8z
		 M104.1,697.1c0-20.3,0-40.7,0-61.2c-0.4,0-0.7,0-1,0c-5.9,0-11.8,0-17.7,0c-2.2,0-3-0.8-3-3c0-6,0-12.1,0-18.1c0-0.3,0-0.7,0-1
		c-13.3,0-26.4,0-39.6,0c0,27.8,0,55.5,0,83.3C63.1,697.1,83.6,697.1,104.1,697.1z M99,623.9c0.3,0.3,0.4,0.5,0.7,0.7
		c2.7,2.7,5.4,5.5,8.1,8.2c0.8,0.8,1.1,1.6,1.1,2.6c0,21.2,0,42.3,0,63.5c0,2.2-0.8,2.9-3,2.9c-13.3,0-26.5,0-39.9,0
		c-0.3,0-0.5,0-1,0c0,1.8,0,3.6,0,5.4c20.5,0,41,0,61.4,0c0-27.8,0-55.5,0-83.3C117.4,623.9,108.2,623.9,99,623.9z M87,618.5
		c0,4.3,0,8.4,0,12.5c4.1,0,8.1,0,12.4,0C95.3,626.9,91.2,622.8,87,618.5z"/>
	<path d="M73.4,671.7c-8.2,0-16.4,0-24.6,0c-1.5,0-1.9-0.4-1.9-2.1c0-0.5,0-1.2,0-1.8c0-1.1,0.5-1.5,1.5-1.6c0.1,0,0.4,0,0.5,0
		c16.2,0,32.6,0,48.8,0c1.8,0,2.1,0.3,2.1,2.2c0,0.5,0,1.2,0,1.8c0,0.8-0.5,1.4-1.5,1.5c-0.3,0-0.4,0-0.7,0
		C89.5,671.7,81.5,671.7,73.4,671.7z"/>
	<path d="M73.3,685.2c-8.1,0-16.4,0-24.5,0c-1.5,0-1.9-0.4-1.9-1.9c0-0.7,0-1.4,0-1.9c0-0.8,0.5-1.4,1.5-1.4c0.1,0,0.4,0,0.5,0
		c16.4,0,32.6,0,48.9,0c1.6,0,2.1,0.4,2.1,1.9c0,0.5,0,1.2,0,1.8c0,1.1-0.5,1.6-1.6,1.6c-3.6,0-7,0-10.6,0
		C82.9,685.2,78.1,685.2,73.3,685.2z"/>
	<path d="M73.4,652.9c8.1,0,16.4,0,24.5,0c1.5,0,1.9,0.4,1.9,1.9c0,0.7,0,1.4,0,2.1c0,0.8-0.5,1.4-1.4,1.4c-0.3,0-0.4,0-0.7,0
		c-16.4,0-32.6,0-48.9,0c-1.6,0-2.1-0.4-2.1-2.1c0-0.5,0-1.1,0-1.6c0-1.2,0.5-1.8,1.8-1.8c3.7,0,7.6,0,11.3,0
		C64.4,652.9,68.9,652.9,73.4,652.9z"/>
	<path d="M73.4,639.3c8.1,0,16.2,0,24.3,0c1.9,0,2.2,0.3,2.2,2.2c0,0.5,0,1.2,0,1.8c0,0.8-0.5,1.4-1.4,1.5c-0.3,0-0.4,0-0.7,0
		c-16.2,0-32.6,0-48.8,0c-1.6,0-2.1-0.4-2.1-2.1c0-0.5,0-1,0-1.5c0-1.4,0.4-1.8,1.8-1.8c2.5,0,4.9,0,7.4,0
		C61.9,639.3,67.7,639.3,73.4,639.3z"/>
	<path d="M69.4,631.4c-2.9,0-5.9,0-8.8,0c-1.2,0-1.8-0.4-1.8-1.8c0-0.7,0-1.4,0-2.2c0-1,0.5-1.5,1.5-1.5c6,0,12.1,0,18.3,0
		c1,0,1.5,0.5,1.5,1.5c0,0.7,0,1.5,0,2.2c0,1.2-0.5,1.6-1.6,1.6C75.4,631.4,72.3,631.4,69.4,631.4z"/>
</g>
<g>
	<g class="st0">
		<path d="M157,638.9c0,2.1-0.2,3.8-0.7,5.1s-1.4,2.6-2.6,3.7c-1.3,1.2-2.1,2.1-2.6,2.6c-0.5,0.6-0.8,1.2-1,1.7
			c-0.2,0.6-0.3,1.2-0.3,1.9c0,2.5,1.2,3.8,3.7,3.8c1.2,0,2.2-0.4,2.9-1.1c0.7-0.7,1.1-1.7,1.1-3h6.9c0,3.1-1,5.5-2.9,7.2
			s-4.6,2.6-7.9,2.6c-3.4,0-6-0.8-7.9-2.4c-1.9-1.6-2.8-3.9-2.8-6.9c0-2.5,1.2-5,3.7-7.5l2.3-2.2c0.8-0.7,1.4-1.5,1.7-2.3
			s0.5-1.9,0.5-3.3h5.9V638.9z M157.9,631.6c0,1.1-0.4,1.9-1.1,2.6c-0.7,0.7-1.7,1-2.8,1s-2-0.3-2.8-1c-0.7-0.7-1.1-1.6-1.1-2.6
			c0-1.1,0.4-1.9,1.1-2.6s1.6-1,2.8-1s2.1,0.3,2.8,1C157.5,629.6,157.9,630.5,157.9,631.6z"/>
		<path d="M196.9,654.3h-7.2l-14-22.9v22.9h-7.2v-34.8h7.2l14,23v-23h7.2V654.3z"/>
		<path d="M214.6,654.8c-3.8,0-6.9-1.2-9.3-3.5s-3.6-5.4-3.6-9.3v-0.7c0-2.6,0.5-4.9,1.5-7s2.4-3.6,4.3-4.7c1.8-1.1,3.9-1.7,6.3-1.7
			c3.5,0,6.3,1.1,8.4,3.3c2,2.2,3.1,5.4,3.1,9.5v2.8h-16.5c0.2,1.7,0.9,3,2,4.1c1.1,1,2.5,1.5,4.3,1.5c2.7,0,4.7-1,6.2-2.9l3.4,3.8
			c-1,1.5-2.4,2.6-4.2,3.4S216.8,654.8,214.6,654.8z M213.9,633.5c-1.4,0-2.5,0.5-3.3,1.4c-0.9,0.9-1.4,2.3-1.6,4h9.6v-0.6
			c0-1.5-0.4-2.7-1.2-3.6C216.5,633.9,215.3,633.5,213.9,633.5z"/>
		<path d="M240,649.2c1.3,0,2.3-0.4,3.1-1.1c0.8-0.7,1.2-1.6,1.2-2.8h6.5c0,1.8-0.5,3.4-1.4,4.8c-0.9,1.5-2.2,2.6-3.9,3.4
			c-1.6,0.8-3.4,1.2-5.4,1.2c-3.7,0-6.6-1.2-8.8-3.5c-2.1-2.4-3.2-5.6-3.2-9.8V641c0-4,1.1-7.2,3.2-9.5c2.1-2.4,5-3.6,8.7-3.6
			c3.2,0,5.8,0.9,7.8,2.8c2,1.8,2.9,4.3,3,7.4h-6.5c0-1.3-0.4-2.4-1.2-3.3s-1.9-1.3-3.2-1.3c-1.6,0-2.8,0.6-3.6,1.8
			s-1.2,3.1-1.2,5.7v0.7c0,2.7,0.4,4.6,1.2,5.8C237.1,648.6,238.3,649.2,240,649.2z"/>
		<path d="M266.7,654.8c-3.8,0-6.9-1.2-9.3-3.5s-3.6-5.4-3.6-9.3v-0.7c0-2.6,0.5-4.9,1.5-7s2.4-3.6,4.3-4.7c1.8-1.1,3.9-1.7,6.3-1.7
			c3.5,0,6.3,1.1,8.4,3.3c2,2.2,3.1,5.4,3.1,9.5v2.8h-16.5c0.2,1.7,0.9,3,2,4.1c1.1,1,2.5,1.5,4.3,1.5c2.7,0,4.7-1,6.2-2.9l3.4,3.8
			c-1,1.5-2.4,2.6-4.2,3.4S268.8,654.8,266.7,654.8z M265.9,633.5c-1.4,0-2.5,0.5-3.3,1.4s-1.4,2.3-1.6,4h9.6v-0.6
			c0-1.5-0.4-2.7-1.2-3.6C268.5,633.9,267.4,633.5,265.9,633.5z"/>
		<path d="M295.3,647.1c0-0.8-0.4-1.5-1.3-2c-0.8-0.5-2.2-0.9-4-1.3c-6.2-1.3-9.2-3.9-9.2-7.8c0-2.3,1-4.2,2.9-5.8
			c1.9-1.5,4.4-2.3,7.5-2.3c3.3,0,5.9,0.8,7.9,2.3s3,3.6,3,6H295c0-1-0.3-1.8-1-2.5c-0.6-0.6-1.6-1-3-1c-1.2,0-2.1,0.3-2.7,0.8
			s-1,1.2-1,2s0.4,1.4,1.1,1.9s2,0.9,3.7,1.2s3.2,0.7,4.4,1.2c3.7,1.3,5.5,3.7,5.5,7c0,2.4-1,4.3-3,5.7c-2,1.5-4.6,2.2-7.8,2.2
			c-2.2,0-4.1-0.4-5.8-1.2s-3-1.8-4-3.2c-1-1.3-1.4-2.8-1.4-4.4h6.6c0.1,1.2,0.5,2.2,1.4,2.8c0.8,0.7,2,1,3.4,1c1.3,0,2.3-0.3,3-0.8
			C294.9,648.6,295.3,648,295.3,647.1z"/>
		<path d="M306.4,621.7c0-1,0.3-1.9,1-2.6c0.7-0.7,1.6-1,2.8-1c1.2,0,2.1,0.3,2.8,1s1.1,1.5,1.1,2.6s-0.4,1.9-1.1,2.6s-1.6,1-2.8,1
			s-2.1-0.3-2.8-1C306.8,623.6,306.4,622.8,306.4,621.7z M313.7,654.3h-6.9v-25.9h6.9V654.3z"/>
		<path d="M327.7,622v6.4h4.4v5.1h-4.4v12.9c0,1,0.2,1.6,0.5,2.1s1.1,0.6,2.1,0.6c0.8,0,1.4-0.1,2-0.2v5.2c-1.4,0.4-2.8,0.6-4.2,0.6
			c-4.8,0-7.3-2.4-7.4-7.3v-13.9H317v-5.1h3.8V622H327.7z"/>
		<path d="M351,654.3c-0.3-0.6-0.5-1.4-0.7-2.3c-1.7,1.9-3.9,2.8-6.5,2.8c-2.5,0-4.6-0.7-6.3-2.2c-1.7-1.5-2.5-3.3-2.5-5.6
			c0-2.7,1-4.8,3.1-6.3c2-1.5,5-2.2,8.8-2.2h3.2V637c0-1.2-0.3-2.2-0.9-2.9s-1.6-1.1-2.9-1.1c-1.2,0-2.1,0.3-2.7,0.8
			c-0.7,0.6-1,1.3-1,2.3h-6.9c0-1.5,0.5-2.9,1.4-4.2s2.2-2.3,3.9-3s3.6-1.1,5.7-1.1c3.2,0,5.7,0.8,7.6,2.4c1.9,1.6,2.8,3.9,2.8,6.8
			v11.2c0,2.5,0.4,4.3,1,5.6v0.4L351,654.3L351,654.3z M345.3,649.5c1,0,2-0.2,2.8-0.7c0.9-0.5,1.5-1.1,1.9-1.8v-4.5h-2.6
			c-3.5,0-5.3,1.2-5.5,3.6v0.4c0,0.9,0.3,1.6,0.9,2.1C343.4,649.2,344.2,649.5,345.3,649.5z"/>
		<path d="M376.3,647.1c0-0.8-0.4-1.5-1.3-2c-0.8-0.5-2.2-0.9-4-1.3c-6.2-1.3-9.2-3.9-9.2-7.8c0-2.3,1-4.2,2.9-5.8
			c1.9-1.5,4.4-2.3,7.5-2.3c3.3,0,5.9,0.8,7.9,2.3s3,3.6,3,6H376c0-1-0.3-1.8-1-2.5c-0.6-0.6-1.6-1-3-1c-1.2,0-2.1,0.3-2.7,0.8
			s-1,1.2-1,2s0.4,1.4,1.1,1.9s2,0.9,3.7,1.2s3.2,0.7,4.4,1.2c3.7,1.3,5.5,3.7,5.5,7c0,2.4-1,4.3-3,5.7c-2,1.5-4.6,2.2-7.8,2.2
			c-2.2,0-4.1-0.4-5.8-1.2s-3-1.8-4-3.2c-1-1.3-1.4-2.8-1.4-4.4h6.6c0.1,1.2,0.5,2.2,1.4,2.8c0.8,0.7,2,1,3.4,1c1.3,0,2.3-0.3,3-0.8
			C375.9,648.6,376.3,648,376.3,647.1z"/>
		<path d="M414.7,654.3c-0.3-0.6-0.6-1.4-0.7-2.3c-1.7,1.9-3.9,2.8-6.5,2.8c-2.5,0-4.6-0.7-6.3-2.2s-2.5-3.3-2.5-5.6
			c0-2.7,1-4.8,3.1-6.3c2-1.5,5-2.2,8.8-2.2h3.2V637c0-1.2-0.3-2.2-0.9-2.9s-1.6-1.1-2.9-1.1c-1.2,0-2.1,0.3-2.7,0.8
			c-0.7,0.6-1,1.3-1,2.3h-6.9c0-1.5,0.5-2.9,1.4-4.2s2.2-2.3,3.9-3c1.7-0.7,3.6-1.1,5.7-1.1c3.2,0,5.7,0.8,7.6,2.4
			c1.9,1.6,2.8,3.9,2.8,6.8v11.2c0,2.5,0.4,4.3,1,5.6v0.4L414.7,654.3L414.7,654.3z M408.9,649.5c1,0,2-0.2,2.8-0.7
			c0.9-0.5,1.5-1.1,1.9-1.8v-4.5H411c-3.5,0-5.3,1.2-5.5,3.6v0.4c0,0.9,0.3,1.6,0.9,2.1S407.9,649.5,408.9,649.5z"/>
		<path d="M435.2,644.5l4.8-16.1h7.4L437,658.3l-0.6,1.4c-1.5,3.4-4.1,5.1-7.7,5.1c-1,0-2-0.2-3.1-0.5v-5.2h1.1
			c1.3,0,2.3-0.2,2.9-0.6c0.6-0.4,1.2-1.1,1.5-2l0.8-2.1l-9.1-26h7.4L435.2,644.5z"/>
		<path d="M465.7,651.7c-1.7,2.1-4.1,3.1-7.1,3.1c-2.8,0-4.9-0.8-6.4-2.4c-1.5-1.6-2.2-3.9-2.2-7v-17h6.9v16.7c0,2.7,1.2,4,3.7,4
			c2.3,0,4-0.8,4.8-2.4v-18.3h6.9v25.9h-6.5L465.7,651.7z"/>
		<path d="M476.5,641.2c0-4,0.9-7.3,2.7-9.6s4.3-3.6,7.4-3.6c2.5,0,4.6,0.9,6.2,2.8v-13.2h6.9v36.8h-6.2l-0.3-2.8
			c-1.7,2.2-3.9,3.2-6.7,3.2c-3,0-5.5-1.2-7.3-3.6C477.4,648.8,476.5,645.4,476.5,641.2z M483.4,641.7c0,2.4,0.4,4.3,1.3,5.6
			s2.1,1.9,3.7,1.9c2.1,0,3.6-0.9,4.5-2.7v-10.2c-0.9-1.8-2.4-2.7-4.5-2.7C485.1,633.6,483.4,636.3,483.4,641.7z"/>
		<path d="M520.2,654.3c-0.3-0.6-0.5-1.4-0.7-2.3c-1.7,1.9-3.9,2.8-6.5,2.8c-2.5,0-4.6-0.7-6.3-2.2c-1.7-1.5-2.5-3.3-2.5-5.6
			c0-2.7,1-4.8,3.1-6.3c2-1.5,5-2.2,8.8-2.2h3.2V637c0-1.2-0.3-2.2-0.9-2.9c-0.6-0.7-1.6-1.1-2.9-1.1c-1.2,0-2.1,0.3-2.7,0.8
			c-0.7,0.6-1,1.3-1,2.3h-6.9c0-1.5,0.5-2.9,1.4-4.2s2.2-2.3,3.9-3s3.6-1.1,5.7-1.1c3.2,0,5.7,0.8,7.6,2.4c1.9,1.6,2.8,3.9,2.8,6.8
			v11.2c0,2.5,0.4,4.3,1,5.6v0.4L520.2,654.3L520.2,654.3z M514.5,649.5c1,0,2-0.2,2.8-0.7c0.9-0.5,1.5-1.1,1.9-1.8v-4.5h-2.6
			c-3.5,0-5.3,1.2-5.5,3.6v0.4c0,0.9,0.3,1.6,0.9,2.1C512.6,649.2,513.4,649.5,514.5,649.5z"/>
		<path d="M558.7,654.3c-0.3-0.6-0.5-1.4-0.7-2.3c-1.7,1.9-3.9,2.8-6.5,2.8c-2.5,0-4.6-0.7-6.3-2.2s-2.5-3.3-2.5-5.6
			c0-2.7,1-4.8,3.1-6.3c2-1.5,5-2.2,8.8-2.2h3.2V637c0-1.2-0.3-2.2-0.9-2.9c-0.6-0.7-1.6-1.1-2.9-1.1c-1.2,0-2.1,0.3-2.7,0.8
			c-0.7,0.6-1,1.3-1,2.3h-6.9c0-1.5,0.5-2.9,1.4-4.2s2.2-2.3,3.9-3s3.6-1.1,5.7-1.1c3.2,0,5.7,0.8,7.6,2.4c1.9,1.6,2.8,3.9,2.8,6.8
			v11.2c0,2.5,0.4,4.3,1,5.6v0.4L558.7,654.3L558.7,654.3z M553,649.5c1,0,2-0.2,2.8-0.7c0.9-0.5,1.5-1.1,1.9-1.8v-4.5h-2.6
			c-3.5,0-5.3,1.2-5.5,3.6v0.4c0,0.9,0.3,1.6,0.9,2.1C551.1,649.2,551.9,649.5,553,649.5z"/>
		<path d="M568.9,641.2c0-4,0.9-7.3,2.7-9.6s4.3-3.6,7.4-3.6c2.5,0,4.6,0.9,6.2,2.8v-13.2h6.9v36.8h-6.2l-0.3-2.8
			c-1.7,2.2-3.9,3.2-6.7,3.2c-3,0-5.5-1.2-7.3-3.6C569.8,648.8,568.9,645.4,568.9,641.2z M575.8,641.7c0,2.4,0.4,4.3,1.3,5.6
			s2.1,1.9,3.7,1.9c2.1,0,3.6-0.9,4.5-2.7v-10.2c-0.9-1.8-2.4-2.7-4.5-2.7C577.4,633.6,575.8,636.3,575.8,641.7z"/>
		<path d="M604,628.4l0.2,2.9c1.8-2.3,4.3-3.4,7.4-3.4c3.3,0,5.6,1.3,6.9,3.9c1.8-2.6,4.4-3.9,7.8-3.9c2.8,0,4.9,0.8,6.3,2.5
			c1.4,1.6,2.1,4.1,2.1,7.4v16.5h-6.9v-16.5c0-1.5-0.3-2.5-0.9-3.2s-1.6-1-3-1c-2.1,0-3.5,1-4.3,3v17.8h-6.9v-16.5
			c0-1.5-0.3-2.6-0.9-3.3s-1.6-1-3-1c-2,0-3.4,0.8-4.3,2.4v18.3h-6.9v-25.9H604z"/>
		<path d="M639.9,621.7c0-1,0.3-1.9,1-2.6c0.7-0.7,1.6-1,2.8-1s2.1,0.3,2.8,1s1.1,1.5,1.1,2.6s-0.4,1.9-1.1,2.6s-1.6,1-2.8,1
			s-2.1-0.3-2.8-1C640.3,623.6,639.9,622.8,639.9,621.7z M647.3,654.3h-6.9v-25.9h6.9V654.3z"/>
		<path d="M659.3,628.4l0.2,3c1.9-2.3,4.3-3.5,7.4-3.5c2.7,0,4.8,0.8,6.1,2.4c1.3,1.6,2,4,2.1,7.2v16.7h-6.9v-16.6
			c0-1.5-0.3-2.5-1-3.2c-0.6-0.7-1.7-1-3.2-1c-1.9,0-3.4,0.8-4.4,2.5v18.3h-6.9v-25.9L659.3,628.4L659.3,628.4z"/>
		<path d="M680.4,621.7c0-1,0.3-1.9,1-2.6c0.7-0.7,1.6-1,2.8-1s2.1,0.3,2.8,1s1.1,1.5,1.1,2.6s-0.4,1.9-1.1,2.6s-1.6,1-2.8,1
			s-2.1-0.3-2.8-1S680.4,622.8,680.4,621.7z M687.7,654.3h-6.9v-25.9h6.9V654.3z"/>
		<path d="M707.4,647.1c0-0.8-0.4-1.5-1.3-2c-0.8-0.5-2.2-0.9-4-1.3c-6.2-1.3-9.2-3.9-9.2-7.8c0-2.3,1-4.2,2.9-5.8
			c1.9-1.5,4.4-2.3,7.5-2.3c3.3,0,5.9,0.8,7.9,2.3s3,3.6,3,6h-6.9c0-1-0.3-1.8-1-2.5c-0.6-0.6-1.6-1-3-1c-1.2,0-2.1,0.3-2.7,0.8
			c-0.6,0.5-1,1.2-1,2s0.4,1.4,1.1,1.9c0.7,0.5,2,0.9,3.7,1.2s3.2,0.7,4.4,1.2c3.7,1.3,5.5,3.7,5.5,7c0,2.4-1,4.3-3,5.7
			c-2,1.5-4.6,2.2-7.8,2.2c-2.2,0-4.1-0.4-5.8-1.2s-3-1.8-4-3.2c-1-1.3-1.4-2.8-1.4-4.4h6.6c0.1,1.2,0.5,2.2,1.4,2.8
			c0.8,0.7,2,1,3.4,1c1.3,0,2.3-0.3,3-0.8C707.1,648.6,707.4,648,707.4,647.1z"/>
		<path d="M726.9,622v6.4h4.4v5.1h-4.4v12.9c0,1,0.2,1.6,0.6,2.1c0.4,0.4,1.1,0.6,2.1,0.6c0.8,0,1.4-0.1,2-0.2v5.2
			c-1.4,0.4-2.8,0.6-4.2,0.6c-4.8,0-7.3-2.4-7.4-7.3v-13.9h-3.8v-5.1h3.8V622H726.9z"/>
		<path d="M749.7,634.9c-0.9-0.1-1.8-0.2-2.5-0.2c-2.6,0-4.3,0.9-5.1,2.7v16.9h-6.9v-25.9h6.5l0.2,3.1c1.4-2.4,3.3-3.6,5.8-3.6
			c0.8,0,1.5,0.1,2.2,0.3L749.7,634.9z"/>
		<path d="M767.3,654.3c-0.3-0.6-0.5-1.4-0.7-2.3c-1.7,1.9-3.9,2.8-6.5,2.8c-2.5,0-4.6-0.7-6.3-2.2s-2.5-3.3-2.5-5.6
			c0-2.7,1-4.8,3.1-6.3c2-1.5,5-2.2,8.8-2.2h3.2V637c0-1.2-0.3-2.2-0.9-2.9c-0.6-0.7-1.6-1.1-2.9-1.1c-1.2,0-2.1,0.3-2.7,0.8
			c-0.7,0.6-1,1.3-1,2.3H752c0-1.5,0.5-2.9,1.4-4.2s2.2-2.3,3.9-3s3.6-1.1,5.7-1.1c3.2,0,5.7,0.8,7.6,2.4c1.9,1.6,2.8,3.9,2.8,6.8
			v11.2c0,2.5,0.4,4.3,1,5.6v0.4L767.3,654.3L767.3,654.3z M761.6,649.5c1,0,2-0.2,2.8-0.7c0.9-0.5,1.5-1.1,1.9-1.8v-4.5h-2.6
			c-3.5,0-5.3,1.2-5.5,3.6v0.4c0,0.9,0.3,1.6,0.9,2.1C759.7,649.2,760.5,649.5,761.6,649.5z"/>
		<path d="M786.8,622v6.4h4.4v5.1h-4.4v12.9c0,1,0.2,1.6,0.5,2.1s1.1,0.6,2.1,0.6c0.8,0,1.4-0.1,2-0.2v5.2c-1.4,0.4-2.8,0.6-4.2,0.6
			c-4.8,0-7.3-2.4-7.4-7.3v-13.9H776v-5.1h3.8V622H786.8z"/>
		<path d="M795.1,621.7c0-1,0.3-1.9,1-2.6c0.7-0.7,1.6-1,2.8-1s2.1,0.3,2.8,1s1.1,1.5,1.1,2.6s-0.4,1.9-1.1,2.6
			c-0.7,0.7-1.6,1-2.8,1s-2.1-0.3-2.8-1S795.1,622.8,795.1,621.7z M802.4,654.3h-6.9v-25.9h6.9V654.3z"/>
		<path d="M817.8,645.9l4.8-17.4h7.2l-8.7,25.9h-6.6l-8.7-25.9h7.2L817.8,645.9z"/>
		<path d="M847.5,654.3c-0.3-0.6-0.6-1.4-0.7-2.3c-1.7,1.9-3.9,2.8-6.5,2.8c-2.5,0-4.6-0.7-6.3-2.2s-2.5-3.3-2.5-5.6
			c0-2.7,1-4.8,3.1-6.3c2-1.5,5-2.2,8.8-2.2h3.2V637c0-1.2-0.3-2.2-0.9-2.9c-0.6-0.7-1.6-1.1-2.9-1.1c-1.2,0-2.1,0.3-2.7,0.8
			c-0.7,0.6-1,1.3-1,2.3h-6.9c0-1.5,0.5-2.9,1.4-4.2s2.2-2.3,3.9-3s3.6-1.1,5.7-1.1c3.2,0,5.7,0.8,7.6,2.4c1.9,1.6,2.8,3.9,2.8,6.8
			v11.2c0,2.5,0.4,4.3,1,5.6v0.4L847.5,654.3L847.5,654.3z M841.8,649.5c1,0,2-0.2,2.8-0.7c0.9-0.5,1.5-1.1,1.9-1.8v-4.5H844
			c-3.5,0-5.3,1.2-5.5,3.6v0.4c0,0.9,0.3,1.6,0.9,2.1S840.8,649.5,841.8,649.5z"/>
		<path d="M864.4,643.6c0-2.2,0.3-4,0.8-5.3s1.5-2.6,3-3.9c1.4-1.3,2.4-2.3,2.9-3.1s0.7-1.7,0.7-2.6c0-2.7-1.2-4-3.7-4
			c-1.2,0-2.1,0.4-2.8,1.1c-0.7,0.7-1.1,1.7-1.1,3h-6.9c0-3,1-5.4,3-7.2c1.9-1.7,4.6-2.6,7.9-2.6c3.4,0,6,0.8,7.9,2.5
			s2.8,3.9,2.8,6.9c0,1.4-0.3,2.6-0.9,3.8c-0.6,1.2-1.7,2.5-3.2,4l-1.9,1.8c-1.2,1.2-1.9,2.5-2.1,4.1l-0.1,1.5H864.4z M863.7,651
			c0-1.1,0.4-1.9,1.1-2.6c0.7-0.7,1.7-1,2.8-1s2.1,0.3,2.8,1s1.1,1.6,1.1,2.6s-0.4,1.9-1.1,2.6c-0.7,0.7-1.6,1-2.8,1s-2.1-0.3-2.8-1
			S863.7,652,863.7,651z"/>
	</g>
	<g>
		<g>
			<path d="M355.3,696.1h-15.1v12.3h17.5v3.8h-22.1v-34.8h21.9v3.8h-17.3v11.2h15.1V696.1z"/>
			<path d="M377.9,705.3c0-1.2-0.5-2.1-1.4-2.8s-2.5-1.2-4.7-1.7s-4-1.1-5.3-1.7c-1.3-0.7-2.3-1.5-2.9-2.4s-0.9-2-0.9-3.3
				c0-2.1,0.9-3.9,2.7-5.4c1.8-1.5,4.1-2.2,6.9-2.2c2.9,0,5.3,0.8,7.1,2.3c1.8,1.5,2.7,3.5,2.7,5.8h-4.5c0-1.2-0.5-2.3-1.5-3.1
				c-1-0.9-2.3-1.3-3.9-1.3s-2.9,0.4-3.8,1.1s-1.4,1.6-1.4,2.8c0,1.1,0.4,1.9,1.3,2.4c0.8,0.5,2.4,1.1,4.6,1.6s4,1.1,5.4,1.8
				s2.4,1.5,3.1,2.5s1,2.1,1,3.5c0,2.3-0.9,4.2-2.8,5.6c-1.9,1.4-4.3,2.1-7.2,2.1c-2.1,0-3.9-0.4-5.5-1.1c-1.6-0.7-2.8-1.8-3.7-3.1
				c-0.9-1.3-1.4-2.7-1.4-4.3h4.4c0.1,1.5,0.7,2.7,1.8,3.5c1.1,0.9,2.6,1.3,4.4,1.3c1.7,0,3-0.3,4-1
				C377.3,707.3,377.9,706.4,377.9,705.3z"/>
			<path d="M398.4,709c1.6,0,3-0.5,4.1-1.4s1.8-2.2,2-3.6h4.2c-0.1,1.5-0.6,2.9-1.5,4.2s-2.2,2.4-3.8,3.2s-3.2,1.2-5,1.2
				c-3.5,0-6.3-1.2-8.4-3.5c-2.1-2.4-3.1-5.6-3.1-9.7v-0.7c0-2.5,0.5-4.8,1.4-6.7c0.9-2,2.3-3.5,4-4.6s3.8-1.6,6.1-1.6
				c2.9,0,5.3,0.9,7.2,2.6c1.9,1.7,2.9,4,3.1,6.8h-4.2c-0.1-1.7-0.8-3.1-1.9-4.1c-1.1-1.1-2.5-1.6-4.2-1.6c-2.2,0-4,0.8-5.2,2.4
				s-1.9,4-1.9,7v0.8c0,3,0.6,5.3,1.8,6.9C394.4,708.2,396.2,709,398.4,709z"/>
			<path d="M426.2,690.3c-0.7-0.1-1.4-0.2-2.2-0.2c-2.9,0-4.9,1.2-5.9,3.7v18.4h-4.4v-25.9h4.3l0.1,3c1.5-2.3,3.5-3.5,6.2-3.5
				c0.9,0,1.5,0.1,2,0.3v4.2H426.2z"/>
			<path d="M430.3,679.4c0-0.7,0.2-1.3,0.7-1.8c0.4-0.5,1.1-0.7,2-0.7s1.5,0.2,2,0.7c0.4,0.5,0.7,1.1,0.7,1.8s-0.2,1.3-0.7,1.8
				s-1.1,0.7-2,0.7s-1.5-0.2-2-0.7S430.3,680.1,430.3,679.4z M435.1,712.2h-4.4v-25.9h4.4V712.2z"/>
			<path d="M464.1,699.5c0,4-0.9,7.1-2.7,9.5s-4.3,3.6-7.3,3.6c-3.3,0-5.8-1.2-7.6-3.5l-0.2,3h-4.1v-36.8h4.4V689
				c1.8-2.2,4.3-3.3,7.4-3.3s5.6,1.2,7.4,3.6c1.8,2.4,2.7,5.6,2.7,9.8L464.1,699.5L464.1,699.5z M459.7,699c0-3-0.6-5.3-1.7-7
				c-1.2-1.6-2.8-2.5-5-2.5c-2.9,0-5,1.4-6.3,4.1v11.2c1.4,2.7,3.5,4.1,6.3,4.1c2.1,0,3.8-0.8,5-2.5S459.7,702.3,459.7,699z"/>
			<path d="M469.7,679.4c0-0.7,0.2-1.3,0.7-1.8c0.4-0.5,1.1-0.7,2-0.7s1.5,0.2,2,0.7c0.4,0.5,0.7,1.1,0.7,1.8s-0.2,1.3-0.7,1.8
				s-1.1,0.7-2,0.7s-1.5-0.2-2-0.7C469.9,680.7,469.7,680.1,469.7,679.4z M474.5,712.2H470v-25.9h4.4v25.9H474.5z"/>
			<path d="M485.7,686.3l0.1,3.3c2-2.5,4.6-3.7,7.8-3.7c5.5,0,8.2,3.1,8.3,9.3v17.1h-4.4V695c0-1.9-0.4-3.2-1.3-4.1
				c-0.8-0.9-2.1-1.3-3.9-1.3c-1.4,0-2.7,0.4-3.8,1.1s-1.9,1.8-2.5,3v18.4h-4.4v-25.9L485.7,686.3L485.7,686.3z"/>
			<path d="M507.4,699c0-2.5,0.5-4.8,1.5-6.8s2.4-3.6,4.2-4.7c1.8-1.1,3.8-1.7,6.1-1.7c3.5,0,6.4,1.2,8.6,3.7
				c2.2,2.4,3.3,5.7,3.3,9.7v0.3c0,2.5-0.5,4.8-1.4,6.8c-1,2-2.3,3.6-4.1,4.7c-1.8,1.1-3.9,1.7-6.2,1.7c-3.5,0-6.4-1.2-8.5-3.7
				c-2.2-2.4-3.3-5.7-3.3-9.7V699H507.4z M511.9,699.5c0,2.9,0.7,5.2,2,6.9s3.1,2.6,5.3,2.6s4-0.9,5.4-2.6c1.3-1.8,2-4.2,2-7.4
				c0-2.8-0.7-5.1-2-6.9c-1.3-1.8-3.1-2.6-5.4-2.6c-2.2,0-3.9,0.9-5.3,2.6C512.5,693.8,511.9,696.3,511.9,699.5z"/>
			<path d="M551.6,705.3c0-1.2-0.5-2.1-1.4-2.8s-2.5-1.2-4.7-1.7s-4-1.1-5.3-1.7c-1.3-0.7-2.3-1.5-2.9-2.4c-0.6-0.9-0.9-2-0.9-3.3
				c0-2.1,0.9-3.9,2.7-5.4s4.1-2.2,6.9-2.2c2.9,0,5.3,0.8,7.1,2.3s2.7,3.5,2.7,5.8h-4.5c0-1.2-0.5-2.3-1.5-3.1
				c-1-0.9-2.3-1.3-3.9-1.3c-1.6,0-2.9,0.4-3.8,1.1s-1.4,1.6-1.4,2.8c0,1.1,0.4,1.9,1.3,2.4c0.8,0.5,2.4,1.1,4.6,1.6
				c2.2,0.5,4,1.1,5.4,1.8s2.4,1.5,3.1,2.5c0.7,1,1,2.1,1,3.5c0,2.3-0.9,4.2-2.8,5.6c-1.9,1.4-4.3,2.1-7.2,2.1
				c-2.1,0-3.9-0.4-5.5-1.1c-1.6-0.7-2.8-1.8-3.7-3.1s-1.4-2.7-1.4-4.3h4.4c0.1,1.5,0.7,2.7,1.8,3.5c1.1,0.9,2.6,1.3,4.4,1.3
				c1.7,0,3-0.3,4-1C551.1,707.3,551.6,706.4,551.6,705.3z"/>
			<path d="M589.9,712.2c-0.3-0.5-0.5-1.4-0.6-2.7c-2.1,2.1-4.5,3.2-7.4,3.2c-2.6,0-4.6-0.7-6.3-2.2s-2.5-3.3-2.5-5.5
				c0-2.7,1-4.8,3.1-6.3s4.9-2.2,8.6-2.2h4.3v-2c0-1.5-0.5-2.8-1.4-3.7s-2.3-1.4-4.1-1.4c-1.6,0-2.9,0.4-4,1.2s-1.6,1.8-1.6,2.9
				h-4.5c0-1.3,0.5-2.5,1.4-3.7s2.2-2.2,3.7-2.9c1.6-0.7,3.3-1.1,5.2-1.1c3,0,5.3,0.7,7,2.2s2.6,3.5,2.6,6.2v11.9
				c0,2.4,0.3,4.3,0.9,5.7v0.4L589.9,712.2L589.9,712.2z M582.6,708.8c1.4,0,2.7-0.4,3.9-1.1s2.1-1.7,2.7-2.8v-5.3h-3.5
				c-5.4,0-8.1,1.6-8.1,4.8c0,1.4,0.5,2.5,1.4,3.3S581.1,708.8,582.6,708.8z"/>
			<path d="M599.5,699c0-4.1,0.9-7.3,2.8-9.7c1.9-2.4,4.4-3.6,7.5-3.6s5.5,1,7.3,3.1l0.2-2.6h4.1V722H617v-12.3
				c-1.8,1.9-4.2,2.9-7.1,2.9c-3.1,0-5.6-1.2-7.5-3.6s-2.8-5.7-2.8-9.7L599.5,699L599.5,699z M603.9,699.5c0,3,0.6,5.3,1.9,7
				c1.3,1.7,2.9,2.5,5.1,2.5c2.6,0,4.6-1.2,6-3.5v-12.7c-1.4-2.3-3.4-3.4-6-3.4c-2.1,0-3.8,0.8-5.1,2.5
				C604.6,693.7,603.9,696.2,603.9,699.5z"/>
			<path d="M644.4,709.6c-1.7,2-4.3,3-7.6,3c-2.8,0-4.9-0.8-6.3-2.4c-1.4-1.6-2.2-4-2.2-7.1v-16.8h4.4V703c0,3.9,1.6,5.9,4.8,5.9
				c3.4,0,5.6-1.3,6.7-3.8v-18.8h4.4v25.9h-4.2L644.4,709.6z"/>
			<path d="M660.3,675.4h5.4l-6.4,7h-3.6L660.3,675.4z M660.3,712.2h-4.5v-25.9h4.5V712.2z"/>
		</g>
	</g>
</g>
<g>
	<text transform="matrix(1 0 0 1 1200.6434 836.312)" style="font-family:'Roboto-Bold'; font-size:49px;">¿Necesitas ayuda administrativa?</text>
	<g>
		<text transform="matrix(1 0 0 1 1391.1334 894.1826)" style="font-family:'Roboto-Regular'; font-size:49px;">Escribinos aquí</text>
	</g>
</g>
</svg>
