<?xml version="1.0" encoding="utf-8"?>
<!-- Generator: Adobe Illustrator 24.3.0, SVG Export Plug-In . SVG Version: 6.00 Build 0)  -->
<svg version="1.1" id="Capa_1" xmlns="http://www.w3.org/2000/svg" xmlns:xlink="http://www.w3.org/1999/xlink" x="0px" y="0px"
	 viewBox="0 0 632.6 412.9" style="enable-background:new 0 0 632.6 412.9;" xml:space="preserve">
<style type="text/css">
	.st0{fill:#F4A640;}
	.st1{fill:#ADCFD8;}
	.st2{fill:#55769F;}
	.st3{fill:#DAEEF7;}
	.st4{fill:#FEB546;}
	.st5{fill:#1DA8DE;}
	.st6{fill:#FFFFFF;}
	.st7{fill:#B7DFEA;}
	.st8{fill:#F2F2F2;}
	.st9{fill:#E03268;}
	.st10{fill:#FF5B7E;}
	.st11{fill:#07085B;}
	.st12{fill:#02CCC0;}
	.st13{fill:#06BFAD;}
	.st14{opacity:0.5;fill:#55769F;}
	.st15{fill:#F16E7F;}
	.st16{fill:#000100;}
	.st17{fill:none;stroke:#000100;stroke-width:1.5;stroke-miterlimit:10;}
	.st18{fill:#2B79E6;}
	.st19{fill:#0A5DC1;}
	.st20{fill:none;stroke:#000100;stroke-width:0.75;stroke-miterlimit:10;}
	.st21{fill:#E6BFEF;}
	.st22{fill:#E5576F;}
	.st23{fill:#441919;}
	.st24{fill:none;stroke:#000100;stroke-width:0.75;stroke-linecap:round;stroke-linejoin:round;stroke-miterlimit:10;}
	.st25{fill:#231F20;}
	.st26{fill:#6F747A;}
	.st27{fill:#CDD6E0;}
	.st28{fill:#D9D9D9;}
</style>
<g>
	<path class="st0" d="M87.5,387.6l47.4-20.1L73,221.5l-40.1,17c-4,1.7-5.9,6.4-4.2,10.4L87.5,387.6z"/>
	<g>
		
			<rect x="34.1" y="242.3" transform="matrix(-0.8213 0.5706 -0.5706 -0.8213 322.157 514.1981)" class="st1" width="92.9" height="130.6"/>
		
			<rect x="30.3" y="264.5" transform="matrix(-0.8213 0.5706 -0.5706 -0.8213 244.0264 453.421)" class="st2" width="41.5" height="0.9"/>
		
			<rect x="20.2" y="262.5" transform="matrix(-0.8213 0.5706 -0.5706 -0.8213 240.4668 450.6583)" class="st2" width="58.9" height="0.9"/>
		
			<rect x="20.8" y="272.5" transform="matrix(-0.8213 0.5706 -0.5706 -0.8213 258.7669 464.8617)" class="st2" width="71.5" height="0.9"/>
		
			<rect x="23.4" y="276.2" transform="matrix(-0.8213 0.5706 -0.5706 -0.8213 265.5188 470.1022)" class="st2" width="71.5" height="0.9"/>
		
			<rect x="28.5" y="283.5" transform="matrix(-0.8213 0.5706 -0.5706 -0.8213 279.0223 480.5829)" class="st2" width="71.5" height="0.9"/>
		
			<rect x="31.1" y="287.2" transform="matrix(-0.8213 0.5706 -0.5706 -0.8213 285.7744 485.8233)" class="st2" width="71.5" height="0.9"/>
		
			<rect x="33.6" y="290.9" transform="matrix(-0.8213 0.5706 -0.5706 -0.8213 292.526 491.0637)" class="st2" width="71.5" height="0.9"/>
		
			<rect x="44.9" y="307.1" transform="matrix(-0.8213 0.5706 -0.5706 -0.8213 322.2232 514.113)" class="st2" width="71.5" height="0.9"/>
		
			<rect x="47.5" y="310.9" transform="matrix(-0.8213 0.5706 -0.5706 -0.8213 329.2243 519.5471)" class="st2" width="71.5" height="0.9"/>
		
			<rect x="50.2" y="314.7" transform="matrix(-0.8213 0.5706 -0.5706 -0.8213 336.2263 524.9803)" class="st2" width="71.5" height="0.9"/>
		
			<rect x="52.8" y="318.5" transform="matrix(-0.8213 0.5706 -0.5706 -0.8213 343.2271 530.4152)" class="st2" width="71.5" height="0.9"/>
		
			<rect x="55.5" y="322.3" transform="matrix(-0.8213 0.5706 -0.5706 -0.8213 350.2283 535.8493)" class="st2" width="71.5" height="0.9"/>
		
			<rect x="58.1" y="326.1" transform="matrix(-0.8213 0.5706 -0.5706 -0.8213 357.2288 541.2841)" class="st2" width="71.5" height="0.9"/>
		
			<rect x="60.8" y="329.9" transform="matrix(-0.8213 0.5706 -0.5706 -0.8213 364.2303 546.7181)" class="st2" width="71.5" height="0.9"/>
	</g>
	<g>
		
			<rect x="38.7" y="236.8" transform="matrix(-0.8652 0.5015 -0.5015 -0.8652 310.289 520.7077)" class="st3" width="92.9" height="130.6"/>
		
			<rect x="38.4" y="256.7" transform="matrix(-0.8652 0.5015 -0.5015 -0.8652 239.3525 449.9793)" class="st2" width="41.5" height="0.9"/>
		
			<rect x="28.6" y="254.7" transform="matrix(-0.8652 0.5015 -0.5015 -0.8652 236.1198 446.7632)" class="st2" width="58.9" height="0.9"/>
		
			<rect x="28.4" y="265.2" transform="matrix(-0.8652 0.5015 -0.5015 -0.8652 252.7385 463.2978)" class="st2" width="71.5" height="0.9"/>
		
			<rect x="30.6" y="269" transform="matrix(-0.8652 0.5015 -0.5015 -0.8652 258.8703 469.3982)" class="st2" width="71.5" height="0.9"/>
		
			<rect x="35.1" y="276.8" transform="matrix(-0.8652 0.5015 -0.5015 -0.8652 271.1337 481.5985)" class="st2" width="71.5" height="0.9"/>
		
			<rect x="37.3" y="280.7" transform="matrix(-0.8652 0.5015 -0.5015 -0.8652 277.2652 487.6991)" class="st2" width="71.5" height="0.9"/>
		
			<rect x="39.6" y="284.5" transform="matrix(-0.8652 0.5015 -0.5015 -0.8652 283.3968 493.7993)" class="st2" width="71.5" height="0.9"/>
		
			<rect x="49.5" y="301.6" transform="matrix(-0.8652 0.5015 -0.5015 -0.8652 310.3649 520.6315)" class="st2" width="71.5" height="0.9"/>
		
			<rect x="51.8" y="305.6" transform="matrix(-0.8652 0.5015 -0.5015 -0.8652 316.7231 526.9573)" class="st2" width="71.5" height="0.9"/>
		
			<rect x="54.1" y="309.6" transform="matrix(-0.8652 0.5015 -0.5015 -0.8652 323.082 533.2823)" class="st2" width="71.5" height="0.9"/>
		
			<rect x="56.5" y="313.6" transform="matrix(-0.8652 0.5015 -0.5015 -0.8652 329.4399 539.6083)" class="st2" width="71.5" height="0.9"/>
		
			<rect x="58.8" y="317.6" transform="matrix(-0.8652 0.5015 -0.5015 -0.8652 335.7979 545.9343)" class="st2" width="71.5" height="0.9"/>
		
			<rect x="61.1" y="321.7" transform="matrix(-0.8652 0.5015 -0.5015 -0.8652 342.1546 552.2616)" class="st2" width="71.5" height="0.9"/>
		
			<rect x="63.4" y="325.7" transform="matrix(-0.8652 0.5015 -0.5015 -0.8652 348.5143 558.5857)" class="st2" width="71.5" height="0.9"/>
	</g>
	<path class="st4" d="M105.5,380l95.4-40.4L142.2,201l-92.4,21.6c-5.2,1.2-8,6.8-6,11.7L105.5,380z"/>
</g>
<polygon class="st0" points="141,223.9 68.2,243.6 74.2,262.2 146.7,240.1 "/>
<g>
	<text transform="matrix(1 0 0 1 154.6021 610.506)" class="st6" style="font-family:'Roboto-Medium'; font-size:38px;">Avisos importantes</text>
</g>
<g>
	<text transform="matrix(1 0 0 1 103.7947 492.8767)" class="st6" style="font-family:'Roboto-Medium'; font-size:38px;">¿Cómo lo hago?</text>
</g>
<path class="st5" d="M630.6,412.5H0.6v-61c0-11.9,9.7-21.6,21.6-21.6H609c11.9,0,21.6,9.7,21.6,21.6V412.5z"/>
<g>
	<text transform="matrix(1 0 0 1 248.4502 498.6221)" class="st6" style="font-family:'Roboto-Medium'; font-size:50px;">¿Cómo lo hago?</text>
</g>
<g>
	<text transform="matrix(1 0 0 1 107.8237 -81.9414)" class="st6" style="font-family:'Roboto-Medium'; font-size:38px;">Para saber más </text>
</g>
<g>
	<g>
		<path class="st6" d="M186.3,373.3v10h-4.7v-27h10.3c3,0,5.4,0.8,7.2,2.4s2.7,3.7,2.7,6.2c0,2.6-0.9,4.7-2.6,6.2
			c-1.7,1.5-4.2,2.2-7.3,2.2L186.3,373.3L186.3,373.3z M186.3,369.5h5.6c1.7,0,2.9-0.4,3.8-1.2c0.9-0.8,1.3-1.9,1.3-3.4
			s-0.4-2.6-1.3-3.5s-2.1-1.3-3.7-1.3h-5.8L186.3,369.5L186.3,369.5z"/>
		<path class="st6" d="M217.2,383.3c-0.2-0.4-0.4-1-0.5-1.9c-1.4,1.5-3.2,2.2-5.3,2.2c-2,0-3.7-0.6-4.9-1.7
			c-1.3-1.2-1.9-2.6-1.9-4.3c0-2.1,0.8-3.8,2.4-4.9c1.6-1.1,3.9-1.7,6.8-1.7h2.8v-1.3c0-1-0.3-1.9-0.9-2.5c-0.6-0.6-1.5-0.9-2.7-0.9
			c-1,0-1.9,0.3-2.5,0.8c-0.7,0.5-1,1.2-1,2H205c0-1.1,0.4-2.1,1.1-3.1c0.7-1,1.7-1.7,3-2.3c1.3-0.5,2.7-0.8,4.2-0.8
			c2.4,0,4.2,0.6,5.6,1.8c1.4,1.2,2.1,2.8,2.2,5v9.1c0,1.8,0.3,3.2,0.8,4.3v0.3h-4.7V383.3z M212.3,380.1c0.9,0,1.7-0.2,2.5-0.6
			s1.4-1,1.8-1.7V374h-2.4c-1.7,0-2.9,0.3-3.8,0.9c-0.8,0.6-1.3,1.4-1.3,2.5c0,0.9,0.3,1.6,0.9,2.1S211.3,380.1,212.3,380.1z"/>
		<path class="st6" d="M236.3,367.4c-0.6-0.1-1.2-0.1-1.8-0.1c-2.1,0-3.5,0.8-4.2,2.4v13.7h-4.5v-20.1h4.3l0.1,2.2
			c1.1-1.7,2.6-2.6,4.5-2.6c0.6,0,1.2,0.1,1.6,0.3L236.3,367.4z"/>
		<path class="st6" d="M250.6,383.3c-0.2-0.4-0.4-1-0.5-1.9c-1.4,1.5-3.2,2.2-5.3,2.2c-2,0-3.7-0.6-4.9-1.7
			c-1.3-1.2-1.9-2.6-1.9-4.3c0-2.1,0.8-3.8,2.4-4.9c1.6-1.1,3.9-1.7,6.8-1.7h2.8v-1.3c0-1-0.3-1.9-0.9-2.5c-0.6-0.6-1.5-0.9-2.7-0.9
			c-1,0-1.9,0.3-2.5,0.8c-0.7,0.5-1,1.2-1,2h-4.5c0-1.1,0.4-2.1,1.1-3.1c0.7-1,1.7-1.7,3-2.3c1.3-0.5,2.7-0.8,4.2-0.8
			c2.4,0,4.2,0.6,5.6,1.8c1.4,1.2,2.1,2.8,2.2,5v9.1c0,1.8,0.3,3.2,0.8,4.3v0.3h-4.7V383.3z M245.6,380.1c0.9,0,1.7-0.2,2.5-0.6
			s1.4-1,1.8-1.7V374h-2.4c-1.7,0-2.9,0.3-3.8,0.9c-0.8,0.6-1.3,1.4-1.3,2.5c0,0.9,0.3,1.6,0.9,2.1S244.7,380.1,245.6,380.1z"/>
		<path class="st6" d="M279.9,377.9c0-0.8-0.3-1.4-1-1.8s-1.8-0.8-3.3-1.1c-1.5-0.3-2.8-0.7-3.8-1.2c-2.3-1.1-3.4-2.7-3.4-4.7
			c0-1.7,0.7-3.2,2.2-4.3c1.5-1.2,3.3-1.7,5.6-1.7c2.4,0,4.3,0.6,5.8,1.8c1.5,1.2,2.2,2.7,2.2,4.6h-4.5c0-0.9-0.3-1.6-1-2.2
			c-0.6-0.6-1.5-0.9-2.6-0.9c-1,0-1.8,0.2-2.4,0.7s-0.9,1.1-0.9,1.8c0,0.7,0.3,1.2,0.9,1.6s1.8,0.8,3.5,1.2c1.8,0.4,3.2,0.9,4.2,1.4
			s1.8,1.2,2.2,1.9c0.5,0.8,0.7,1.7,0.7,2.7c0,1.8-0.7,3.3-2.2,4.4s-3.5,1.7-5.9,1.7c-1.6,0-3.1-0.3-4.4-0.9s-2.3-1.4-3-2.4
			s-1.1-2.2-1.1-3.4h4.4c0.1,1.1,0.5,1.9,1.2,2.5s1.7,0.9,3,0.9c1.2,0,2.1-0.2,2.7-0.7C279.5,379.2,279.9,378.6,279.9,377.9z"/>
		<path class="st6" d="M300.2,383.3c-0.2-0.4-0.4-1-0.5-1.9c-1.4,1.5-3.2,2.2-5.3,2.2c-2,0-3.7-0.6-4.9-1.7
			c-1.3-1.2-1.9-2.6-1.9-4.3c0-2.1,0.8-3.8,2.4-4.9s3.9-1.7,6.8-1.7h2.8v-1.3c0-1-0.3-1.9-0.9-2.5s-1.5-0.9-2.7-0.9
			c-1,0-1.9,0.3-2.5,0.8c-0.7,0.5-1,1.2-1,2H288c0-1.1,0.4-2.1,1.1-3.1s1.7-1.7,3-2.3c1.3-0.5,2.7-0.8,4.2-0.8
			c2.4,0,4.2,0.6,5.6,1.8c1.4,1.2,2.1,2.8,2.2,5v9.1c0,1.8,0.3,3.2,0.8,4.3v0.3h-4.7V383.3z M295.3,380.1c0.9,0,1.7-0.2,2.5-0.6
			s1.4-1,1.8-1.7V374h-2.4c-1.7,0-2.9,0.3-3.8,0.9c-0.8,0.6-1.3,1.4-1.3,2.5c0,0.9,0.3,1.6,0.9,2.1S294.3,380.1,295.3,380.1z"/>
		<path class="st6" d="M326.4,373.5c0,3.1-0.7,5.6-2.1,7.4s-3.3,2.8-5.7,2.8c-2.4,0-4.2-0.8-5.5-2.5l-0.2,2.2h-4.1v-28.5h4.5v10.4
			c1.3-1.5,3-2.3,5.3-2.3c2.4,0,4.4,0.9,5.8,2.7s2.1,4.4,2.1,7.6L326.4,373.5L326.4,373.5z M321.9,373.1c0-2.2-0.4-3.8-1.2-4.9
			c-0.8-1.1-1.9-1.6-3.3-1.6c-2,0-3.3,0.9-4.1,2.6v8.3c0.8,1.7,2.2,2.6,4.2,2.6c1.4,0,2.5-0.5,3.3-1.6s1.2-2.6,1.2-4.8v-0.6H321.9z"
			/>
		<path class="st6" d="M339,383.7c-2.9,0-5.2-0.9-6.9-2.7c-1.8-1.8-2.7-4.2-2.7-7.2v-0.6c0-2,0.4-3.8,1.2-5.4
			c0.8-1.6,1.9-2.8,3.3-3.7c1.4-0.9,3-1.3,4.7-1.3c2.7,0,4.8,0.9,6.3,2.6s2.2,4.2,2.2,7.4v1.8H334c0.1,1.7,0.7,3,1.7,3.9
			c1,1,2.2,1.4,3.7,1.4c2.1,0,3.7-0.8,5-2.5l2.4,2.3c-0.8,1.2-1.9,2.1-3.2,2.8C342.2,383.4,340.7,383.7,339,383.7z M338.5,366.5
			c-1.2,0-2.2,0.4-3,1.3s-1.2,2.1-1.5,3.6h8.6v-0.3c-0.1-1.5-0.5-2.6-1.2-3.4S339.7,366.5,338.5,366.5z"/>
		<path class="st6" d="M361.1,367.4c-0.6-0.1-1.2-0.1-1.8-0.1c-2.1,0-3.5,0.8-4.2,2.4v13.7h-4.5v-20.1h4.3l0.1,2.2
			c1.1-1.7,2.6-2.6,4.5-2.6c0.6,0,1.2,0.1,1.6,0.3V367.4z"/>
		<path class="st6" d="M377.6,363.2l0.1,2.1c1.4-1.6,3.3-2.5,5.8-2.5c2.7,0,4.5,1,5.5,3.1c1.5-2.1,3.5-3.1,6.2-3.1
			c2.2,0,3.9,0.6,4.9,1.8c1.1,1.2,1.6,3,1.7,5.4v13.2h-4.5v-13.1c0-1.3-0.3-2.2-0.8-2.8s-1.5-0.9-2.8-0.9c-1,0-1.9,0.3-2.5,0.8
			c-0.7,0.6-1.1,1.3-1.4,2.2v13.8h-4.5V370c-0.1-2.4-1.3-3.5-3.6-3.5c-1.8,0-3.1,0.7-3.8,2.2v14.5h-4.5v-20.1h4.2V363.2z"/>
		<path class="st6" d="M418.4,383.3c-0.2-0.4-0.4-1-0.5-1.9c-1.4,1.5-3.2,2.2-5.3,2.2c-2,0-3.7-0.6-4.9-1.7
			c-1.3-1.2-1.9-2.6-1.9-4.3c0-2.1,0.8-3.8,2.4-4.9s3.9-1.7,6.8-1.7h2.8v-1.3c0-1-0.3-1.9-0.9-2.5s-1.5-0.9-2.7-0.9
			c-1,0-1.9,0.3-2.5,0.8c-0.7,0.5-1,1.2-1,2h-4.5c0-1.1,0.4-2.1,1.1-3.1s1.7-1.7,3-2.3c1.3-0.5,2.7-0.8,4.2-0.8
			c2.3,0,4.2,0.6,5.6,1.8c1.4,1.2,2.1,2.8,2.2,5v9.1c0,1.8,0.3,3.2,0.8,4.3v0.3h-4.7V383.3z M413.5,380.1c0.9,0,1.7-0.2,2.5-0.6
			s1.4-1,1.8-1.7V374h-2.4c-1.7,0-2.9,0.3-3.8,0.9c-0.8,0.6-1.3,1.4-1.3,2.5c0,0.9,0.3,1.6,0.9,2.1
			C411.8,379.8,412.5,380.1,413.5,380.1z M416,354.8h5.1l-5.1,5.6h-3.6L416,354.8z"/>
		<path class="st6" d="M438.3,377.9c0-0.8-0.3-1.4-1-1.8s-1.8-0.8-3.3-1.1c-1.5-0.3-2.8-0.7-3.8-1.2c-2.3-1.1-3.4-2.7-3.4-4.7
			c0-1.7,0.7-3.2,2.2-4.3c1.5-1.2,3.3-1.7,5.6-1.7c2.4,0,4.3,0.6,5.8,1.8c1.5,1.2,2.2,2.7,2.2,4.6H438c0-0.9-0.3-1.6-1-2.2
			c-0.6-0.6-1.5-0.9-2.6-0.9c-1,0-1.8,0.2-2.4,0.7s-0.9,1.1-0.9,1.8c0,0.7,0.3,1.2,0.9,1.6s1.8,0.8,3.5,1.2c1.8,0.4,3.2,0.9,4.2,1.4
			s1.8,1.2,2.2,1.9c0.5,0.8,0.7,1.7,0.7,2.7c0,1.8-0.7,3.3-2.2,4.4s-3.5,1.7-5.9,1.7c-1.6,0-3.1-0.3-4.4-0.9s-2.3-1.4-3-2.4
			s-1.1-2.2-1.1-3.4h4.4c0.1,1.1,0.5,1.9,1.2,2.5s1.7,0.9,3,0.9c1.2,0,2.1-0.2,2.7-0.7C438,379.2,438.3,378.6,438.3,377.9z"/>
	</g>
</g>
<g>
	<g>
		<path class="st7" d="M477.1,330H108.7c-5.7,0-10.4-4.7-10.4-10.4V100.4c0-5.7,4.7-10.4,10.4-10.4h368.5c5.7,0,10.4,4.7,10.4,10.4
			v219.2C487.5,325.3,482.9,330,477.1,330z"/>
	</g>
</g>
<g>
	<g>
		<path class="st8" d="M459.2,313.1H126.6c-5.2,0-9.4-4-9.4-8.9V115.8c0-4.9,4.2-8.9,9.4-8.9h332.7c5.2,0,9.4,4,9.4,8.9v188.3
			C468.6,309.1,464.4,313.1,459.2,313.1z"/>
	</g>
</g>
<g>
	<g>
		<path class="st9" d="M376.2,182.1H370c1-0.7,2.3-1.1,3.6-1.1h154.6c8.1,0,14.6,5.8,14.6,13v8.2c0,7.2-6.6,13-14.6,13l-152.8,0
			L376.2,182.1z"/>
		<path class="st4" d="M529.9,202.2V194c0-7.2-6.6-13-14.6-13h3.3c8.1,0,14.6,5.8,14.6,13v8.2c0,7.2-6.6,13-14.6,13l-3.3,0
			C523.3,215.2,529.9,209.4,529.9,202.2z"/>
		<path class="st4" d="M493.7,202.2V194c0-7.2-6.6-13-14.6-13h3.3c8.1,0,14.6,5.8,14.6,13v8.2c0,7.2-6.6,13-14.6,13l-3.3,0
			C487.1,215.2,493.7,209.4,493.7,202.2z"/>
		<path class="st10" d="M463.9,181c7.7,0,14,5.6,14,12.4v9.3c0,6.9-6.3,12.4-14,12.4h-96.2v-2.1h0.4l24.5-2.1l4.9-17.2
			c0,0-9.5-9.5-10.2-9.7c-0.6-0.2-19.2-1-19.2-1l-0.4,0V181H463.9z"/>
		<path class="st3" d="M373.9,198.1c0-10.1-5.9-14.9-5.9-14.9h93.9c7.1,0,12.9,5.1,12.9,11.4v7.2c0,6.3-5.8,11.4-12.9,11.4h-93.9
			C368.1,213.1,373.9,210.7,373.9,198.1z"/>
		<path class="st3" d="M474.8,194.5v7.2c0,0.9-0.1,1.9-0.4,2.7c-3.2-6.9-9.2-13.5-20.8-15.6c-27-5-85.6-5.7-85.6-5.7h93.9
			C469,183.1,474.8,188.2,474.8,194.5z"/>
	</g>
	<g>
		<path class="st11" d="M378.7,250.5h-7c1.1-0.9,2.6-1.4,4.1-1.4h174.9c9.2,0,16.6,7.3,16.6,16.2v10.3c0,9-7.4,16.2-16.6,16.2
			l-173-0.1L378.7,250.5z"/>
		<path class="st2" d="M478,249.1c8.8,0,15.8,7,15.8,15.5v11.7c0,8.6-7.1,15.5-15.8,15.5H369.1v-2.6h0.5l27.7-2.6l5.6-21.5
			c0,0-10.8-11.9-11.5-12.2c-0.7-0.3-21.8-1.2-21.8-1.2l-0.5,0v-2.6H478z"/>
		<path class="st3" d="M376.2,270.4c0-12.6-6.6-18.7-6.6-18.7h106.2c8,0,14.6,6.4,14.6,14.3v9c0,7.9-6.5,14.3-14.6,14.3H369.6
			C369.6,289.3,376.2,286.3,376.2,270.4z"/>
		<path class="st3" d="M490.3,266v9c0,1.2-0.1,2.3-0.4,3.4c-3.6-8.6-10.5-16.9-23.5-19.5c-30.5-6.2-96.8-7.1-96.8-7.1h106.2
			C483.8,251.7,490.3,258.1,490.3,266z"/>
	</g>
	<g>
		<path class="st12" d="M573.1,216.2h7c-1.1-0.7-2.6-1.1-4.1-1.1H401c-9.2,0-16.6,5.8-16.6,12.9v8.2c0,7.1,7.4,12.9,16.6,12.9l173,0
			L573.1,216.2z"/>
		<path class="st13" d="M473.8,215.2c-8.8,0-15.9,5.5-15.9,12.3v9.3c0,6.8,7.1,12.3,15.9,12.3h108.9V247h-0.5l-27.7-2l-5.6-17.1
			c0,0,10.8-9.4,11.5-9.7c0.7-0.2,21.8-1,21.8-1l0.5,0v-2.1H473.8z"/>
		<path class="st3" d="M575.6,232.1c0-10,6.6-14.8,6.6-14.8H476c-8,0-14.6,5.1-14.6,11.3v7.1c0,6.3,6.5,11.3,14.6,11.3h106.3
			C582.3,247,575.6,244.6,575.6,232.1z"/>
		<path class="st3" d="M461.4,228.6v7.1c0,0.9,0.1,1.8,0.4,2.7c3.6-6.8,10.5-13.4,23.5-15.5c30.5-4.9,96.9-5.7,96.9-5.7H476
			C468,217.2,461.4,222.3,461.4,228.6z"/>
		<path class="st14" d="M416.5,236.2V228c0-7.1,7.4-12.9,16.6-12.9h-16.6c-9.2,0-16.6,5.8-16.6,12.9v8.2c0,7.1,7.4,12.9,16.6,12.9
			l16.4,0C423.8,249,416.5,243.3,416.5,236.2z"/>
	</g>
	<path class="st4" d="M584.6,293.2h8.8c-1.4-0.8-3.2-1.2-5.2-1.2H368.8c-11.5,0-20.8,6.4-20.8,14.4v9.1c0,8,9.3,14.4,20.8,14.4
		l216.9-0.1L584.6,293.2z"/>
	<path class="st0" d="M460.1,292c-11,0-19.9,6.2-19.9,13.8v10.3c0,7.6,8.9,13.8,19.9,13.8h136.6v-2.3h-0.6l-34.7-2.3l-7-19.1
		c0,0,13.5-10.5,14.4-10.8c0.9-0.3,27.3-1.1,27.3-1.1l0.6,0V292H460.1z"/>
	<path class="st3" d="M587.8,310.9c0-11.2,8.3-16.6,8.3-16.6H462.9c-10.1,0-18.3,5.7-18.3,12.7v8c0,7,8.2,12.7,18.3,12.7h133.2
		C596.1,327.6,587.8,325,587.8,310.9z"/>
</g>
<g>
	<g>
		<g>
			<path class="st15" d="M361.4,229.6l8.5-3.3l-0.7-30.7l18.6,4.1c0,0-3.3,33.6-5,38.5c-0.4,1.3-3.9,1.2-5.2,0.9l-4.6-1.7l-3.4,0.5"
				/>
			<g>
				<path class="st16" d="M384.4,232.4c-1.6-0.1-5.8-0.7-7.2-0.1c-1.1,0.5-2.2,1.3-3.3,1.7c-1.4,0.7-2.9,0.8-4.4,0.5
					c-1.4-0.3-2.7-1.3-3.4-2.7c-0.2-0.4-0.3-0.8-0.5-1.1c-0.5-1-1.3-1.7-2.3-2.1c-0.1,0-0.1,0-0.2,0c-0.1,0-0.1,0.1-0.3,0.2
					c-0.3,0.3-0.8,0.3-1.1,0.3s-0.8,0.3-1.1,0.3c-1,0.2-1.9,0.5-2.8,0.6c-1.3,0.2-3.9,0.1-4.9,1.1c-0.4,0.3-0.6,0.8-0.8,1.2
					l-0.4,1.2l16.9,5.5c0.9,0.4,2,0.4,3,0.3l4.6-1.1l-1.2,3l6.4,2.1C381.4,243.2,384.5,234.5,384.4,232.4z"/>
			</g>
		</g>
		<path class="st17" d="M369.8,225.9c2.8,2.4,10.1,5.1,14.8,6.1"/>
	</g>
	<g>
		<g>
			<path class="st15" d="M325.6,215.8l8.6-3.1l12.3-26.4l18.4,4.5c0,0-16.3,29.2-18,34.1c-0.4,1.3-4,1.1-5.2,0.8l-4.6-1.8l-3.6,0.5"
				/>
			<g>
				<path class="st16" d="M349.5,219.3c-1.5-0.2-6.6-1.1-8.1-0.5c-1.1,0.5-2.2,1.2-3.3,1.7c-1.4,0.5-3,0.8-4.4,0.4
					c-1.4-0.4-2.7-1.4-3.4-2.8c-0.2-0.4-0.3-0.8-0.4-1.3c-0.5-1-1.2-1.7-2.3-2.1c-0.1,0-0.1,0-0.2,0c-0.1,0-0.1,0.1-0.3,0.2
					c-0.4,0.3-0.8,0.3-1.1,0.3c-0.4,0.1-0.8,0.3-1.1,0.3c-1,0.2-1.9,0.5-2.8,0.6c-1.3,0.2-3.8,0-4.9,0.9c-0.4,0.3-0.6,0.8-0.8,1.2
					l-0.4,1.2l16.8,5.8c0.9,0.4,2,0.5,3,0.3l4.7-1l-1.2,3l6.3,2.2C345.3,229.8,349.4,221.6,349.5,219.3z"/>
			</g>
		</g>
		<path class="st17" d="M334,212.4c2.7,2.5,10.8,5.7,15.5,6.6"/>
	</g>
	<g>
		<g>
			<g>
				<path class="st18" d="M444.4,169.5c8.7-11.4,6.3-31.8,6.3-31.8l-31.4,2.5l-48.8,12.4L331,204.1l54.5,15.5l4-37.4
					C389.4,182.3,430.7,187.6,444.4,169.5z"/>
			</g>
		</g>
	</g>
	<g>
		<g>
			<g>
				<path class="st19" d="M456.5,173c8.7-11.4,6.1-21.7,6.1-21.7l-31.3-7.6l-51,14.2L352.8,210l44.5,13.2l4-37.4
					C401.5,185.8,442.8,191.1,456.5,173z"/>
			</g>
		</g>
	</g>
	<path class="st20" d="M444.4,153l-1.4,14c-0.2,1.3,0.5,2.5,1.8,2.9c2.3,0.9,6,2.3,8.3,3.2"/>
	<g>
		<path class="st15" d="M413.7,103.1c0,0-20.9,5.2-27,2.1c-4.9-2.4-6.7-8.3-5.9-14.9c0.7-6.8,6.7-49.5,6.7-49.5l18.8,3.5l-3.4,38.4
			l10-2.7"/>
		<path class="st21" d="M443.8,79.7c0,0-7.4-5.1-18.4-4.1c-7.7,0.7-15.2,4.2-15.2,4.2l2.1,23.1l13.6-7.6"/>
		<path class="st21" d="M452.4,82.9c0,0,6.6-0.2,8.2-0.2c5.4,0.3,9.2,0.9,12.3,2.5c7.7,3.9,16.2,21.2,16.2,21.2
			c-8.1,2-19.6,15.9-19.6,15.9l-13.1-17.1"/>
		<path class="st21" d="M474.7,97.4c0,0-1.2,17.3-4.4,30s-7.1,35.4-7.1,35.4l-66.4-21.2l19.3-51.3c-2-4.5,13.5-6.6,13.5-6.6l9.9-5
			l18.9,7.3L474.7,97.4z"/>
		<line class="st20" x1="459.8" y1="107.6" x2="467.5" y2="117.9"/>
		<path class="st20" d="M402.8,82.6c0,0,0.5,6.4-0.2,9.6"/>
		<g>
			<path class="st15" d="M404.7,56.8c0.5-9.4,3.5-21,2.5-22.1c-0.4-0.5-1.1-0.3-1.6,0.4c-1.3,1.4-2.3,4.6-3.3,4.2
				c-0.7-0.3,0.2-8.2,0-11.8c-0.1-1.3-1.4-1.1-1.8-0.3c-1.1,2.9-1.9,10.2-1.9,10.2c-0.5-0.2,0.8-8.4,0.3-11.9
				c-0.1-0.7-1.3-1.1-1.6-0.3c-1.2,3.1-2.6,11.8-2.6,11.8s1.3-8.5,0.6-11.6c-0.2-0.5-1.3-0.8-1.5-0.2c-0.9,2.4-2.5,12.3-2.5,12.3
				s0.8-7.2,0.6-9.7c0-0.6-1.5-0.5-1.8-0.1c-2.2,4.4-4.1,25.8-4.1,25.8"/>
		</g>
		<g>
			<g>
				<path class="st16" d="M391,38.9c1,1.3,2,2.9,2.7,4.5c0.3,0.9,0.5,1.6,0.6,2.5c0.1,0.4,0.1,0.9,0.2,1.2c0.1,0.5,0,1,0.1,1.3
					c0.1,0.3,0.4,0.3,0.5-0.1c0.2-0.8,0-1.9-0.1-2.7c-0.1-0.9-0.4-1.9-0.8-2.6c-0.6-1.6-1.6-3.3-2.9-4.6
					C391.1,38.5,390.9,38.7,391,38.9L391,38.9z"/>
			</g>
		</g>
		<g>
			<g>
				<path class="st16" d="M401.7,40.2c-0.7,0.9-1.3,1.9-1.8,2.9c-0.2,0.6-0.4,1-0.4,1.6c-0.1,0.5-0.1,1.2,0,1.7
					c0.1,0.3,0.3,0.2,0.4-0.1c0.2-0.5,0.1-1.1,0.2-1.7c0.1-0.6,0.3-1.1,0.4-1.5c0.4-1,1-1.9,1.5-2.7C402.3,40.3,402,40,401.7,40.2
					L401.7,40.2z"/>
			</g>
		</g>
		<path class="st20" d="M413.4,98.7c0,0,2.4-7.8,4.7-11.8"/>
	</g>
	<g>
		<g>
			<path class="st22" d="M444.7,61.1c0-0.6-0.7-1.2-1.3-1.2c-0.6-0.1-1.3,0.2-1.8,0.6c-0.5,0.4-0.8,1-1,1.6
				c-0.5,1.1-0.9,2.4-0.4,3.6c0.4,0.8,1,1.5,2,1.7c0.8,0.2,1.8-0.1,2.4-0.8"/>
		</g>
		<path class="st15" d="M446.9,80L446.9,80c-5.7-2.5-8.2-9.2-5.7-14.9l4.7-10.4l10.8-2.8l10.8,13.4l-5.7,9
			C459.4,80.1,452.7,82.6,446.9,80z"/>
		<path class="st15" d="M442.8,73.5l-1.6,5.1c0,0-1.8,5.4,5.8,7.8c7.5,2.4,9.2-3.1,9.2-3.1l1.6-5.1L442.8,73.5z"/>
		<g>
			<path class="st23" d="M461.9,63c-1.4-1.4-3.4-2.2-4.5-4.1c-0.8-1.3-1.1-3-2.7-3.3c-1.5-0.3-2.7,0.6-4.3,0.3
				c-0.6-0.2-1.1-0.5-1.9-0.6c-1.3-0.3-1.9,0.5-2.7,1.5c-0.9,0.8-1.6,2.1-2.2,3.2c-0.7-2.3-1.3-4.9-0.5-6.9c1-2.5,3.1-4.8,5.6-5.7
				c1.3-0.4,2.5-0.6,3.8-0.7c1.8-0.1,3.7-0.1,5.6,0.3c0.6,0.2,1,0.4,1.6,0.4s1.3,0.2,1.9,0.2c1.8,0.1,3.5,0.7,5.1,1.4
				c1.6,0.7,2.4,1.6,3.6,2.7c2.2,2.2,4.1,5,4.8,8.1c0.8,3.2,1.5,6.6,4.2,8.7c2.5,2,6.1,2.3,8.3,4.4c2.1,2.1,2.1,5.4,4.1,7.5
				c2.1,2.3,3.7,2.3,5.4,5.1c2.2,3.8,1,7.7,0.1,9.9c-6.4-0.6-11.4,4.5-14.2,7.5c-2.8,3.1-6,6.9-10.2,6.3c-0.6-2.6-2.4-5-4.7-6.5
				c-2.1-1.3-4.9-2.1-5.9-4.4c-0.9-1.8-0.3-4-0.7-6c-0.5-2.7-2.4-2.9-4-4.7c-1.3-1.5-1.9-4.3-1.4-6.2c0.5-2.2,2.4-3.9,4.3-5.4
				c0.7-0.5,1.2-1.1,1.7-1.7c0.3-0.6,0.4-1.2,0.5-1.7c0.1-1.1,0.3-2.1,0.4-3.2c0.2-1.8,0.5-3.7-0.4-5.2
				C462.6,63.6,462.2,63.2,461.9,63z"/>
		</g>
		<g>
			<path class="st15" d="M461.3,70.5c1.4-0.8,3.4-0.1,4.2,1.4c0.8,1.4,0.3,3.3-0.9,4.5c-0.5,0.5-1.2,0.8-1.8,1.1
				c-0.5,0.3-1,0.5-1.6,0.5c-0.9,0.1-1.8-0.1-2.6-0.7c-0.7-0.6-1.1-1.6-0.9-2.4"/>
		</g>
		<path class="st20" d="M453.8,79.6c-3.6,0.9-9.2-0.6-11.7-3.8"/>
		<g>
			<g>
				<path class="st16" d="M465,73.9c0.1-0.6-0.1-1.1-0.5-1.4s-1-0.4-1.5-0.3c-0.6,0-1,0.4-1.4,0.7c-0.3,0.2-0.4,0.4-0.6,0.7
					c-0.1,0.2-0.4,0.4-0.5,0.8c0,0.1,0.2,0.3,0.3,0.3c0.2,0,0.4-0.3,0.5-0.4c0.1-0.2,0.3-0.3,0.4-0.5c0.3-0.3,0.7-0.6,1.1-0.7
					c0.9-0.3,1.8,0.1,1.9,1.1C464.7,74,465,74,465,73.9L465,73.9z"/>
			</g>
		</g>
		<path class="st16" d="M455.5,67.3c-0.2,0.6,0.1,1.2,0.7,1.4c0.6,0.2,1.2-0.1,1.4-0.7c0.2-0.6-0.1-1.2-0.7-1.4
			C456.3,66.5,455.7,66.7,455.5,67.3z"/>
		<path class="st16" d="M445.2,61.9c-0.2,0.6,0.1,1.2,0.7,1.4c0.6,0.2,1.2-0.1,1.4-0.7c0.2-0.6-0.1-1.2-0.7-1.4
			C446,61.1,445.4,61.4,445.2,61.9z"/>
		<g>
			<g>
				<path class="st16" d="M449.4,65.2c-0.5,0.4-1.1,0.8-1.5,1.3c-0.3,0.3-0.7,0.8-0.9,1.1c-0.2,0.3-0.5,0.8-0.3,1.2
					c0.1,0.3,0.4,0.5,0.8,0.6c0.3,0.2,0.8,0.3,1.2,0.4c0.2,0,0.5-0.4,0.2-0.6c-0.1-0.1-0.3-0.2-0.5-0.2c-0.1,0-0.3-0.2-0.5-0.2
					c-0.2,0-0.5-0.2-0.6-0.3l0,0l0,0c0,0,0,0,0-0.1l0,0c0,0,0,0,0-0.1c0-0.1,0.2-0.3,0.2-0.5c0.5-0.8,1-1.3,1.6-2.1
					c0.1-0.2,0.3-0.3,0.4-0.4C449.6,65.3,449.5,65.1,449.4,65.2L449.4,65.2z"/>
			</g>
		</g>
		<path class="st24" d="M459.7,66.9c-0.4-1.7-2.4-2.9-3.9-2.3"/>
		<path class="st24" d="M448.5,60.9c-0.4-1.3-2-1.9-3.1-1.2"/>
		<g>
			<path class="st6" d="M449.6,72.6c-0.6,2-1.5,2.7-2.6,3.2c-1.1,0.5-3,0-1.7-4.9L449.6,72.6z"/>
		</g>
	</g>
	<g>
		<g>
			<path class="st15" d="M496.7,123c-1.5-4.4-9-16.2-9-16.2c-7.6,2.7-14.9,12.1-14.9,12.1c-2.9-1.9-21.6-14-22.7-14.4
				c-1-0.4-2.2-0.4-3.4-0.1c-0.9,0.3-1.7,0.9-2.4,1.5c-1.5,1.4-2.3,2.1-3.6,3.5c-0.7,0.8-1.5,1.6-2.1,2.5c-0.3,0.3-0.6,0.8-0.6,1.2
				c-0.2,0.7,0,1.6,0.6,2.1s1.4,0.7,2.1,0.4c-0.4,0.7-0.5,1.5,0,2.2c0.4,0.7,1.3,0.9,2.1,0.6c-0.1,0.7,0.2,1.3,0.7,1.8
				s1.2,0.6,1.9,0.4c-0.2,0.7,0.4,1.4,1,1.9c0.5,0.4,1.4,0.7,1.7,0.2c0.1-0.1,0.1-0.2,0.3-0.3c0.1,0,0.2,0,0.3,0.2
				c1.6,1.5,3,2.7,5.1,3.2c0.6,0.2,1.2,0.1,1.6,0.4c0.8,0.5,18.5,15.6,24.9,18.1c8.3,3.1,14.8,0.7,17.2-4.9
				C499.5,135,499.1,129.8,496.7,123z"/>
		</g>
		<g>
			<g>
				<path class="st25" d="M503.1,133.7c0.1,2.1,0,4.2-0.7,6.3c-0.2,0.9-0.6,1.9-1.1,2.8c-0.2,0.5-0.4,0.9-0.7,1.4
					c-0.3,0.4-0.6,0.9-0.7,1.5c-0.1,0.5,0.5,0.7,0.8,0.5c0.4-0.3,0.7-0.9,1-1.3c0.3-0.4,0.6-1,0.8-1.5c0.5-1,0.7-2.1,1-3.1
					c0.5-2.2,0.6-4.4,0.2-6.6C503.8,133.1,503,133.2,503.1,133.7L503.1,133.7z"/>
			</g>
		</g>
		<g>
			<g>
				<path class="st25" d="M507.1,136c0,1.6-0.2,3.2-0.6,4.7c-0.2,0.6-0.3,1.3-0.6,1.9c-0.1,0.2-0.3,0.4-0.4,0.7
					c-0.1,0.2-0.4,0.4-0.6,0.7c-0.3,0.3-0.1,0.6,0.3,0.8c0.7,0.1,1.4-0.4,1.7-1c0.4-0.7,0.7-1.4,0.9-2.2c0.5-1.7,0.5-3.7,0.3-5.5
					C507.9,135.3,507.1,135.4,507.1,136L507.1,136z"/>
			</g>
		</g>
		<path class="st20" d="M490.4,131.9c-2.8-4.8-17.8-13.2-17.8-13.2"/>
		<g>
			<g>
				<path class="st16" d="M450.1,121.9c-0.1-0.1-0.2-0.1-0.3-0.2c-0.1,0-0.1,0-0.2,0c-0.2,0-0.4,0.1-0.6,0.2
					c-0.1,0.1-0.4,0.2-0.5,0.3c-0.1,0.1-0.4,0.4-0.3,0.6c0,0.1,0.1,0.1,0.2,0.1c0.1,0,0.1-0.1,0.3-0.2l0,0l0,0c0,0,0,0,0.1-0.1
					l0.1-0.1l0,0l0,0l0.1,0l0.1,0l0,0l0,0c0.1,0,0.1,0,0.2,0l0.1,0l0,0c0.1,0,0,0,0,0l0.1,0c0.1,0,0.1,0,0.3-0.1
					C450.2,122,450.2,121.9,450.1,121.9L450.1,121.9z"/>
			</g>
		</g>
		<path class="st20" d="M449.7,115.8c-1.5,1.4-2.8,2.9-3.8,4.7"/>
		<path class="st20" d="M446.6,113.4c-1.4,1.5-2.6,3.2-3.5,5.1"/>
		<path class="st20" d="M444.9,110.6c-1.2,1.3-3.1,3.2-4,5.1"/>
	</g>
</g>
<g>
	<path class="st4" d="M250.7,294.7l-55.9-0.8c-2.8,0-5.1-2.4-5-5.2l0,0c0-2.8,2.4-5.1,5.2-5l55.9,0.8c2.8,0,5.1,2.4,5,5.2l0,0
		C255.8,292.4,253.5,294.7,250.7,294.7z"/>
	<polygon class="st4" points="225.1,128 247.2,174.5 298.2,182.7 260.7,218.1 268.8,269.1 223.4,244.5 177.5,267.8 186.9,217.1 
		150.5,180.6 201.6,173.9 	"/>
	<g>
		<g>
			<polygon class="st0" points="225.1,128 224.1,198.2 247.2,174.5 			"/>
			<polygon class="st0" points="298.2,182.7 224.1,198.2 260.7,218.1 			"/>
			<polygon class="st0" points="224.1,198.2 201.6,173.9 150.5,180.6 			"/>
			<polygon class="st0" points="177.5,267.8 224.1,198.2 186.9,217.1 			"/>
			<polygon class="st0" points="268.8,269.1 224.1,198.2 223.4,244.5 			"/>
		</g>
	</g>
	
		<rect x="180.1" y="295.3" transform="matrix(0.9999 1.397466e-02 -1.397466e-02 0.9999 4.3576 -3.0793)" class="st26" width="84.9" height="29.8"/>
	
		<rect x="220.7" y="281.1" transform="matrix(1.395187e-02 -0.9999 0.9999 1.395187e-02 -104.2979 541.3569)" class="st27" width="3.3" height="84.9"/>
	
		<rect x="221.1" y="253.7" transform="matrix(1.395368e-02 -0.9999 0.9999 1.395368e-02 -76.5065 514.7056)" class="st27" width="3.3" height="84.9"/>
	<path class="st0" d="M264.5,297.4l-83.6-1.2c-2.1,0-3.8-1.8-3.8-3.9l0,0c0-2.1,1.8-3.8,3.9-3.8l83.6,1.2c2.1,0,3.8,1.8,3.8,3.9l0,0
		C268.4,295.7,266.6,297.4,264.5,297.4z"/>
	<path class="st26" d="M266.3,332.7l-89.2-1.2c-0.6,0-1-0.5-1-1l0.1-5.6c0-0.6,0.5-1,1-1l89.2,1.2c0.6,0,1,0.5,1,1l-0.1,5.6
		C267.3,332.3,266.8,332.7,266.3,332.7z"/>
	<path class="st4" d="M238.2,317.5l-32.3-0.5c-4-0.1-7.2-3.4-7.2-7.4l0,0c0.1-4,3.4-7.2,7.4-7.2l32.3,0.5c4,0.1,7.2,3.4,7.2,7.4l0,0
		C245.5,314.4,242.2,317.6,238.2,317.5z"/>
	<path class="st28" d="M206,314.7c-2.9,0-5.1-2.6-4.7-5.5c0.3-2.5,2.6-4.2,5.1-4.2l31.9,0.4c2.5,0,4.7,1.8,5,4.3
		c0.3,2.9-2,5.4-4.9,5.4L206,314.7z"/>
	<path class="st4" d="M231.8,287.2l-18-0.3l0-1.7c0.1-6.8,0-20.8,9.6-40.9l0,0c9.3,21.8,8.5,34.4,8.4,41.1L231.8,287.2z"/>
</g>
</svg>
