<?xml version="1.0" encoding="utf-8"?>
<!-- Generator: Adobe Illustrator 25.2.1, SVG Export Plug-In . SVG Version: 6.00 Build 0)  -->
<!DOCTYPE svg PUBLIC "-//W3C//DTD SVG 1.1//EN" "http://www.w3.org/Graphics/SVG/1.1/DTD/svg11.dtd" [
	<!ENTITY ns_extend "http://ns.adobe.com/Extensibility/1.0/">
	<!ENTITY ns_ai "http://ns.adobe.com/AdobeIllustrator/10.0/">
	<!ENTITY ns_graphs "http://ns.adobe.com/Graphs/1.0/">
	<!ENTITY ns_vars "http://ns.adobe.com/Variables/1.0/">
	<!ENTITY ns_imrep "http://ns.adobe.com/ImageReplacement/1.0/">
	<!ENTITY ns_sfw "http://ns.adobe.com/SaveForWeb/1.0/">
	<!ENTITY ns_custom "http://ns.adobe.com/GenericCustomNamespace/1.0/">
	<!ENTITY ns_adobe_xpath "http://ns.adobe.com/XPath/1.0/">
]>
<svg version="1.1" id="Capa_1" xmlns:x="&ns_extend;" xmlns:i="&ns_ai;" xmlns:graph="&ns_graphs;"
	 xmlns="http://www.w3.org/2000/svg" xmlns:xlink="http://www.w3.org/1999/xlink" x="0px" y="0px" viewBox="0 0 924 223.4"
	 style="enable-background:new 0 0 924 223.4;" xml:space="preserve">
<style type="text/css">
	.st0{fill:#FFFFFF;}
	.st1{enable-background:new    ;}
	.st2{fill:url(#SVGID_1_);}
</style>
<metadata>
	<sfw  xmlns="&ns_sfw;">
		<slices></slices>
		<sliceSourceBounds  bottomLeftOrigin="true" height="1158.6" width="1918.6" x="21.5" y="-957.9"></sliceSourceBounds>
	</sfw>
</metadata>
<g>
	<text transform="matrix(1 0 0 1 1187.0381 -403.8856)" style="font-family:'Roboto-Bold'; font-size:49px;">¿Buscás algún concepto clave?</text>
	<text transform="matrix(1 0 0 1 1376.938 -345.0856)" style="font-family:'Roboto-Regular'; font-size:49px;">Hacé clic aquí</text>
</g>
<text transform="matrix(1 0 0 1 1187.0381 -78.315)" style="font-family:'Roboto-Bold'; font-size:49px;">¿Buscás algún concepto clave?</text>
<text transform="matrix(1 0 0 1 1187.0381 58.7967)" style="font-family:'Roboto-Bold'; font-size:49px;">Te esperamos en</text>
<text transform="matrix(1 0 0 1 307.3 -129.4532)" style="font-family:'Roboto-Bold'; font-size:49px;">Te esperamos en</text>
<g>
	<path class="st0" d="M855.5,314.7c25.4,0,46,20.6,46,46v81c0,25.4-20.6,46-46,46h-784c-25.4,0-46-20.6-46-46v-81
		c0-25.4,20.6-46,46-46H855.5 M855.5,310.7h-784c-27.6,0-50,22.4-50,50v81c0,27.6,22.4,50,50,50h784c27.6,0,50-22.4,50-50v-81
		C905.5,333.1,883.2,310.7,855.5,310.7L855.5,310.7z"/>
</g>
<g>
	<path class="st0" d="M855.5,26.7c25.4,0,46,20.6,46,46v81c0,25.4-20.6,46-46,46h-784c-25.4,0-46-20.6-46-46v-81
		c0-25.4,20.6-46,46-46L855.5,26.7 M855.5,22.7h-784c-27.6,0-50,22.4-50,50v81c0,27.6,22.4,50,50,50h784c27.6,0,50-22.4,50-50v-81
		C905.5,45.1,883.2,22.7,855.5,22.7L855.5,22.7z"/>
</g>
<g>
	<path class="st0" d="M855.5-231.7c25.4,0,46,20.6,46,46v81c0,25.4-20.6,46-46,46h-784c-25.4,0-46-20.6-46-46v-81
		c0-25.4,20.6-46,46-46H855.5 M855.5-235.7h-784c-27.6,0-50,22.4-50,50v81c0,27.6,22.4,50,50,50h784c27.6,0,50-22.4,50-50v-81
		C905.5-213.3,883.2-235.7,855.5-235.7L855.5-235.7z"/>
</g>
<g>
	<g class="st1">
		<path d="M180.9-440.3c0,2.1-0.2,3.8-0.7,5.1s-1.4,2.6-2.6,3.7c-1.3,1.2-2.1,2.1-2.6,2.6c-0.5,0.6-0.8,1.2-1,1.7
			c-0.2,0.6-0.3,1.2-0.3,1.9c0,2.5,1.2,3.8,3.7,3.8c1.2,0,2.2-0.4,2.9-1.1c0.7-0.7,1.1-1.7,1.1-3h6.9c0,3.1-1,5.5-2.9,7.2
			c-1.9,1.7-4.6,2.6-7.9,2.6c-3.4,0-6-0.8-7.9-2.4c-1.9-1.6-2.8-3.9-2.8-6.9c0-2.5,1.2-5,3.7-7.5l2.3-2.2c0.8-0.7,1.4-1.5,1.7-2.3
			c0.3-0.8,0.5-1.9,0.5-3.3h5.9V-440.3z M181.8-447.6c0,1.1-0.4,1.9-1.1,2.6c-0.7,0.7-1.7,1-2.8,1s-2-0.3-2.8-1
			c-0.7-0.7-1.1-1.6-1.1-2.6c0-1.1,0.4-1.9,1.1-2.6c0.7-0.7,1.6-1,2.8-1s2.1,0.3,2.8,1C181.4-449.6,181.8-448.7,181.8-447.6z"/>
		<path d="M192.5-424.9v-34.8h12.2c4.2,0,7.4,0.8,9.6,2.4s3.3,4,3.3,7.1c0,1.7-0.4,3.2-1.3,4.5c-0.9,1.3-2.1,2.3-3.7,2.9
			c1.8,0.4,3.2,1.3,4.2,2.7s1.5,3,1.5,5c0,3.3-1.1,5.9-3.2,7.6c-2.1,1.7-5.2,2.6-9.1,2.6C206-424.9,192.5-424.9,192.5-424.9z
			 M199.6-445.1h5.3c3.6-0.1,5.4-1.5,5.4-4.3c0-1.6-0.5-2.7-1.4-3.4s-2.4-1-4.3-1h-5V-445.1z M199.6-440.1v9.4h6.1
			c1.7,0,3-0.4,4-1.2c0.9-0.8,1.4-1.9,1.4-3.3c0-3.2-1.7-4.8-5-4.9H199.6z"/>
		<path d="M238.8-427.5c-1.7,2.1-4.1,3.1-7.1,3.1c-2.8,0-4.9-0.8-6.4-2.4s-2.2-3.9-2.2-7v-17h6.9v16.7c0,2.7,1.2,4,3.7,4
			c2.3,0,4-0.8,4.8-2.4v-18.3h6.9v25.9H239L238.8-427.5z"/>
		<path d="M264.7-432.1c0-0.8-0.4-1.5-1.3-2c-0.8-0.5-2.2-0.9-4-1.3c-6.2-1.3-9.2-3.9-9.2-7.8c0-2.3,1-4.2,2.9-5.8
			c1.9-1.5,4.4-2.3,7.5-2.3c3.3,0,5.9,0.8,7.9,2.3s3,3.6,3,6h-6.9c0-1-0.3-1.8-1-2.5c-0.6-0.6-1.6-1-3-1c-1.2,0-2.1,0.3-2.7,0.8
			s-1,1.2-1,2c0,0.8,0.4,1.4,1.1,1.9s1.9,0.9,3.7,1.2c1.8,0.3,3.2,0.7,4.4,1.2c3.7,1.3,5.5,3.7,5.5,7c0,2.4-1,4.3-3,5.7
			c-2,1.5-4.6,2.2-7.8,2.2c-2.2,0-4.1-0.4-5.8-1.2c-1.7-0.8-3-1.8-4-3.2c-1-1.3-1.4-2.8-1.4-4.4h6.6c0.1,1.2,0.5,2.2,1.4,2.8
			s2,1,3.4,1c1.3,0,2.3-0.3,3-0.8C264.4-430.6,264.7-431.2,264.7-432.1z"/>
		<path d="M286.6-430c1.3,0,2.3-0.4,3.1-1.1c0.8-0.7,1.2-1.6,1.2-2.8h6.5c0,1.8-0.5,3.4-1.4,4.8c-0.9,1.5-2.2,2.6-3.9,3.4
			c-1.6,0.8-3.4,1.2-5.4,1.2c-3.7,0-6.6-1.2-8.8-3.5c-2.1-2.4-3.2-5.6-3.2-9.8v-0.4c0-4,1.1-7.2,3.2-9.5c2.1-2.4,5-3.6,8.7-3.6
			c3.2,0,5.8,0.9,7.8,2.8c2,1.8,2.9,4.3,3,7.4H291c0-1.3-0.4-2.4-1.2-3.3c-0.8-0.8-1.9-1.3-3.2-1.3c-1.6,0-2.8,0.6-3.6,1.8
			c-0.8,1.2-1.2,3.1-1.2,5.7v0.7c0,2.7,0.4,4.6,1.2,5.8C283.8-430.6,285-430,286.6-430z"/>
		<path d="M316.4-424.9c-0.3-0.6-0.5-1.4-0.7-2.3c-1.7,1.9-3.9,2.8-6.5,2.8c-2.5,0-4.6-0.7-6.3-2.2c-1.7-1.5-2.5-3.3-2.5-5.6
			c0-2.7,1-4.8,3.1-6.3c2-1.5,5-2.2,8.8-2.2h3.2v-1.5c0-1.2-0.3-2.2-0.9-2.9c-0.6-0.7-1.6-1.1-2.9-1.1c-1.2,0-2.1,0.3-2.7,0.8
			c-0.7,0.6-1,1.3-1,2.3h-7c0-1.5,0.5-2.9,1.4-4.2c0.9-1.3,2.2-2.3,3.9-3c1.7-0.7,3.6-1.1,5.7-1.1c3.2,0,5.7,0.8,7.6,2.4
			s2.8,3.9,2.8,6.8v11.2c0,2.5,0.4,4.3,1,5.6v0.4L316.4-424.9L316.4-424.9z M310.7-429.7c1,0,2-0.2,2.8-0.7c0.9-0.5,1.5-1.1,1.9-1.8
			v-4.5h-2.6c-3.5,0-5.3,1.2-5.5,3.6v0.4c0,0.9,0.3,1.6,0.9,2.1C308.8-430,309.7-429.7,310.7-429.7z M313.3-461.7h7.5l-6.6,7.4h-5.6
			L313.3-461.7z"/>
		<path d="M341.7-432.1c0-0.8-0.4-1.5-1.3-2c-0.8-0.5-2.2-0.9-4-1.3c-6.2-1.3-9.2-3.9-9.2-7.8c0-2.3,1-4.2,2.9-5.8
			c1.9-1.5,4.4-2.3,7.5-2.3c3.3,0,5.9,0.8,7.9,2.3s3,3.6,3,6h-6.9c0-1-0.3-1.8-1-2.5c-0.6-0.6-1.6-1-3-1c-1.2,0-2.1,0.3-2.7,0.8
			s-1,1.2-1,2c0,0.8,0.4,1.4,1.1,1.9s2,0.9,3.7,1.2c1.7,0.3,3.2,0.7,4.4,1.2c3.7,1.3,5.5,3.7,5.5,7c0,2.4-1,4.3-3,5.7
			c-2,1.5-4.6,2.2-7.8,2.2c-2.2,0-4.1-0.4-5.8-1.2c-1.7-0.8-3-1.8-4-3.2c-1-1.3-1.4-2.8-1.4-4.4h6.6c0.1,1.2,0.5,2.2,1.4,2.8
			c0.8,0.7,2,1,3.4,1c1.3,0,2.3-0.3,3-0.8C341.4-430.6,341.7-431.2,341.7-432.1z"/>
		<path d="M380.1-424.9c-0.3-0.6-0.6-1.4-0.7-2.3c-1.7,1.9-3.9,2.8-6.5,2.8c-2.5,0-4.6-0.7-6.3-2.2s-2.5-3.3-2.5-5.6
			c0-2.7,1-4.8,3.1-6.3c2-1.5,5-2.2,8.8-2.2h3.2v-1.5c0-1.2-0.3-2.2-0.9-2.9c-0.6-0.7-1.6-1.1-2.9-1.1c-1.2,0-2.1,0.3-2.7,0.8
			c-0.7,0.6-1,1.3-1,2.3h-6.9c0-1.5,0.5-2.9,1.4-4.2c0.9-1.3,2.2-2.3,3.9-3c1.7-0.7,3.6-1.1,5.7-1.1c3.2,0,5.7,0.8,7.6,2.4
			s2.8,3.9,2.8,6.8v11.2c0,2.5,0.4,4.3,1,5.6v0.4L380.1-424.9L380.1-424.9z M374.4-429.7c1,0,2-0.2,2.8-0.7c0.9-0.5,1.5-1.1,1.9-1.8
			v-4.5h-2.6c-3.5,0-5.3,1.2-5.5,3.6v0.4c0,0.9,0.3,1.6,0.9,2.1S373.3-429.7,374.4-429.7z"/>
		<path d="M398.7-424.9h-6.9v-36.8h6.9V-424.9z"/>
		<path d="M403.4-438c0-4,0.9-7.2,2.8-9.6c1.9-2.4,4.4-3.6,7.6-3.6c2.8,0,5,1,6.6,2.9l0.3-2.4h6.3v25c0,2.3-0.5,4.2-1.5,5.9
			s-2.5,3-4.3,3.8c-1.9,0.9-4.1,1.3-6.6,1.3c-1.9,0-3.7-0.4-5.6-1.1c-1.9-0.7-3.2-1.7-4.1-2.9l3.1-4.2c1.7,1.9,3.8,2.9,6.3,2.9
			c1.8,0,3.3-0.5,4.3-1.5s1.5-2.4,1.5-4.2v-1.4c-1.6,1.8-3.7,2.7-6.3,2.7c-3.1,0-5.6-1.2-7.5-3.6s-2.9-5.7-2.9-9.7L403.4-438
			L403.4-438z M410.3-437.5c0,2.3,0.5,4.2,1.4,5.5c0.9,1.3,2.2,2,3.9,2c2.1,0,3.6-0.8,4.5-2.4v-10.9c-0.9-1.6-2.4-2.4-4.5-2.4
			c-1.7,0-3,0.7-3.9,2C410.7-442.3,410.3-440.2,410.3-437.5z"/>
		<path d="M447.8-427.5c-1.7,2.1-4.1,3.1-7.1,3.1c-2.8,0-4.9-0.8-6.4-2.4s-2.2-3.9-2.2-7v-17h6.9v16.7c0,2.7,1.2,4,3.7,4
			c2.3,0,4-0.8,4.8-2.4v-18.3h6.9v25.9H448L447.8-427.5z M444.7-461.7h7.5l-6.6,7.4H440L444.7-461.7z"/>
		<path d="M466.1-450.8l0.2,3c1.8-2.3,4.3-3.5,7.4-3.5c2.7,0,4.8,0.8,6.1,2.4c1.3,1.6,2,4,2.1,7.2v16.7H475v-16.5
			c0-1.5-0.3-2.5-1-3.2c-0.6-0.7-1.7-1-3.2-1c-1.9,0-3.4,0.8-4.4,2.5v18.3h-6.9v-25.9H466.1z"/>
		<path d="M510.2-430c1.3,0,2.3-0.4,3.1-1.1c0.8-0.7,1.2-1.6,1.2-2.8h6.5c0,1.8-0.5,3.4-1.4,4.8c-0.9,1.5-2.2,2.6-3.9,3.4
			c-1.6,0.8-3.4,1.2-5.4,1.2c-3.7,0-6.6-1.2-8.8-3.5c-2.1-2.4-3.2-5.6-3.2-9.8v-0.4c0-4,1.1-7.2,3.2-9.5c2.1-2.4,5-3.6,8.7-3.6
			c3.2,0,5.8,0.9,7.8,2.8c2,1.8,2.9,4.3,3,7.4h-6.5c0-1.3-0.4-2.4-1.2-3.3c-0.8-0.8-1.9-1.3-3.2-1.3c-1.6,0-2.8,0.6-3.6,1.8
			c-0.8,1.2-1.2,3.1-1.2,5.7v0.7c0,2.7,0.4,4.6,1.2,5.8C507.3-430.6,508.5-430,510.2-430z"/>
		<path d="M523.9-438.1c0-2.6,0.5-4.9,1.5-6.9s2.4-3.6,4.3-4.7c1.9-1.1,4-1.7,6.5-1.7c3.5,0,6.3,1.1,8.6,3.2c2.2,2.1,3.4,5,3.7,8.7
			v1.8c0,4-1.1,7.2-3.3,9.6c-2.2,2.4-5.2,3.6-8.9,3.6s-6.7-1.2-8.9-3.6c-2.2-2.4-3.3-5.6-3.3-9.8v-0.2H523.9z M530.8-437.6
			c0,2.5,0.5,4.3,1.4,5.6c0.9,1.3,2.2,2,4,2c1.7,0,3-0.6,3.9-1.9c0.9-1.3,1.4-3.3,1.4-6.2c0-2.4-0.5-4.3-1.4-5.6c-0.9-1.3-2.3-2-4-2
			s-3,0.7-3.9,2C531.2-442.4,530.8-440.4,530.8-437.6z"/>
		<path d="M559-450.8l0.2,3c1.9-2.3,4.3-3.5,7.4-3.5c2.7,0,4.8,0.8,6.1,2.4c1.3,1.6,2,4,2.1,7.2v16.7h-6.9v-16.5
			c0-1.5-0.3-2.5-1-3.2c-0.6-0.7-1.7-1-3.2-1c-1.9,0-3.4,0.8-4.4,2.5v18.3h-6.9v-25.9H559z"/>
		<path d="M590.9-430c1.3,0,2.3-0.4,3.1-1.1c0.8-0.7,1.2-1.6,1.2-2.8h6.5c0,1.8-0.5,3.4-1.4,4.8c-0.9,1.5-2.2,2.6-3.9,3.4
			c-1.6,0.8-3.4,1.2-5.4,1.2c-3.7,0-6.6-1.2-8.8-3.5c-2.1-2.4-3.2-5.6-3.2-9.8v-0.4c0-4,1.1-7.2,3.2-9.5c2.1-2.4,5-3.6,8.7-3.6
			c3.2,0,5.8,0.9,7.8,2.8c2,1.8,2.9,4.3,3,7.4h-6.5c0-1.3-0.4-2.4-1.2-3.3c-0.8-0.9-1.9-1.3-3.2-1.3c-1.6,0-2.8,0.6-3.6,1.8
			c-0.8,1.2-1.2,3.1-1.2,5.7v0.7c0,2.7,0.4,4.6,1.2,5.8C588-430.6,589.2-430,590.9-430z"/>
		<path d="M617.6-424.4c-3.8,0-6.9-1.2-9.3-3.5c-2.4-2.3-3.6-5.4-3.6-9.3v-0.7c0-2.6,0.5-4.9,1.5-7c1-2.1,2.4-3.6,4.3-4.7
			c1.8-1.1,3.9-1.7,6.3-1.7c3.5,0,6.3,1.1,8.4,3.3c2,2.2,3.1,5.4,3.1,9.5v2.8h-16.5c0.2,1.7,0.9,3,2,4.1c1.1,1,2.5,1.5,4.3,1.5
			c2.7,0,4.7-1,6.2-2.9l3.4,3.8c-1,1.5-2.4,2.6-4.2,3.4C621.7-425,619.7-424.4,617.6-424.4z M616.8-445.7c-1.4,0-2.5,0.5-3.3,1.4
			s-1.4,2.3-1.6,4h9.6v-0.6c0-1.5-0.4-2.7-1.2-3.6C619.4-445.3,618.2-445.7,616.8-445.7z"/>
		<path d="M655.4-437.6c0,4-0.9,7.2-2.7,9.6c-1.8,2.4-4.3,3.6-7.3,3.6c-2.6,0-4.7-0.9-6.3-2.7v12.2h-6.9v-35.9h6.4l0.2,2.5
			c1.7-2,3.9-3,6.6-3c3.2,0,5.7,1.2,7.4,3.5c1.7,2.3,2.7,5.6,2.7,9.8v0.4H655.4z M648.5-438.1c0-2.4-0.4-4.3-1.3-5.6
			c-0.9-1.3-2.1-2-3.7-2c-2.2,0-3.7,0.8-4.5,2.5v10.6c0.8,1.7,2.4,2.6,4.5,2.6C646.9-430,648.5-432.7,648.5-438.1z"/>
		<path d="M668-457.2v6.4h4.4v5.1H668v12.9c0,1,0.2,1.6,0.6,2.1c0.4,0.4,1.1,0.6,2.1,0.6c0.8,0,1.4-0.1,2-0.2v5.2
			c-1.4,0.4-2.8,0.6-4.2,0.6c-4.8,0-7.3-2.4-7.4-7.3v-13.9h-3.8v-5.1h3.8v-6.4H668z"/>
		<path d="M674.5-438.1c0-2.6,0.5-4.9,1.5-6.9s2.4-3.6,4.3-4.7c1.9-1.1,4-1.7,6.5-1.7c3.5,0,6.3,1.1,8.6,3.2s3.4,5,3.7,8.7v1.8
			c0,4-1.1,7.2-3.3,9.6c-2.2,2.4-5.2,3.6-8.9,3.6s-6.7-1.2-8.9-3.6c-2.2-2.4-3.3-5.6-3.3-9.8v-0.2H674.5z M681.4-437.6
			c0,2.5,0.5,4.3,1.4,5.6c0.9,1.3,2.2,2,4,2c1.7,0,3-0.6,3.9-1.9c0.9-1.3,1.4-3.3,1.4-6.2c0-2.4-0.5-4.3-1.4-5.6c-0.9-1.3-2.3-2-4-2
			s-3,0.7-3.9,2C681.9-442.4,681.4-440.4,681.4-437.6z"/>
		<path d="M726.2-430c1.3,0,2.3-0.4,3.1-1.1c0.8-0.7,1.2-1.6,1.2-2.8h6.5c0,1.8-0.5,3.4-1.4,4.8c-0.9,1.5-2.2,2.6-3.9,3.4
			c-1.6,0.8-3.4,1.2-5.4,1.2c-3.7,0-6.6-1.2-8.8-3.5c-2.1-2.4-3.2-5.6-3.2-9.8v-0.4c0-4,1.1-7.2,3.2-9.5c2.1-2.4,5-3.6,8.7-3.6
			c3.2,0,5.8,0.9,7.8,2.8c2,1.8,2.9,4.3,3,7.4h-6.5c0-1.3-0.4-2.4-1.2-3.3c-0.8-0.9-1.9-1.3-3.2-1.3c-1.6,0-2.8,0.6-3.6,1.8
			c-0.8,1.2-1.2,3.1-1.2,5.7v0.7c0,2.7,0.4,4.6,1.2,5.8C723.3-430.6,724.6-430,726.2-430z"/>
		<path d="M748.3-424.9h-6.9v-36.8h6.9V-424.9z"/>
		<path d="M769-424.9c-0.3-0.6-0.5-1.4-0.7-2.3c-1.7,1.9-3.9,2.8-6.5,2.8c-2.5,0-4.6-0.7-6.3-2.2s-2.5-3.3-2.5-5.6
			c0-2.7,1-4.8,3.1-6.3c2-1.5,5-2.2,8.8-2.2h3.2v-1.5c0-1.2-0.3-2.2-0.9-2.9c-0.6-0.7-1.6-1.1-2.9-1.1c-1.2,0-2.1,0.3-2.7,0.8
			c-0.7,0.6-1,1.3-1,2.3h-6.9c0-1.5,0.5-2.9,1.4-4.2c0.9-1.3,2.2-2.3,3.9-3c1.7-0.7,3.6-1.1,5.7-1.1c3.2,0,5.7,0.8,7.6,2.4
			c1.9,1.6,2.8,3.9,2.8,6.8v11.2c0,2.5,0.4,4.3,1,5.6v0.4L769-424.9L769-424.9z M763.3-429.7c1,0,2-0.2,2.8-0.7
			c0.9-0.5,1.5-1.1,1.9-1.8v-4.5h-2.6c-3.5,0-5.3,1.2-5.5,3.6v0.4c0,0.9,0.3,1.6,0.9,2.1C761.4-430,762.2-429.7,763.3-429.7z"/>
		<path d="M789.6-433.3l4.8-17.4h7.2l-8.7,25.9h-6.6l-8.7-25.9h7.2L789.6-433.3z"/>
		<path d="M816.3-424.4c-3.8,0-6.9-1.2-9.3-3.5c-2.4-2.3-3.6-5.4-3.6-9.3v-0.7c0-2.6,0.5-4.9,1.5-7c1-2.1,2.4-3.6,4.3-4.7
			c1.8-1.1,3.9-1.7,6.3-1.7c3.5,0,6.3,1.1,8.4,3.3c2,2.2,3.1,5.4,3.1,9.5v2.8h-16.5c0.2,1.7,0.9,3,2,4.1c1.1,1,2.5,1.5,4.3,1.5
			c2.7,0,4.7-1,6.2-2.9l3.4,3.8c-1,1.5-2.4,2.6-4.2,3.4C820.4-425,818.4-424.4,816.3-424.4z M815.5-445.7c-1.4,0-2.5,0.5-3.3,1.4
			s-1.4,2.3-1.6,4h9.6v-0.6c0-1.5-0.4-2.7-1.2-3.6C818.1-445.3,817-445.7,815.5-445.7z"/>
		<path d="M836.5-435.6c0-2.2,0.3-4,0.8-5.3c0.5-1.3,1.5-2.6,3-3.9c1.4-1.3,2.4-2.3,2.9-3.1s0.7-1.7,0.7-2.6c0-2.7-1.2-4-3.7-4
			c-1.2,0-2.1,0.4-2.8,1.1c-0.7,0.7-1.1,1.7-1.1,3h-6.9c0-3,1-5.4,3-7.2c1.9-1.7,4.6-2.6,7.9-2.6c3.4,0,6,0.8,7.9,2.5
			c1.9,1.7,2.8,3.9,2.8,6.9c0,1.4-0.3,2.6-0.9,3.8c-0.6,1.2-1.7,2.5-3.2,4l-1.9,1.8c-1.2,1.2-1.9,2.5-2.1,4.1l-0.1,1.5
			C842.8-435.6,836.5-435.6,836.5-435.6z M835.8-428.2c0-1.1,0.4-1.9,1.1-2.6c0.7-0.7,1.7-1,2.8-1s2.1,0.3,2.8,1
			c0.7,0.7,1.1,1.6,1.1,2.6s-0.4,1.9-1.1,2.6c-0.7,0.7-1.6,1-2.8,1s-2.1-0.3-2.8-1C836.2-426.3,835.8-427.2,835.8-428.2z"/>
	</g>
	<g class="st1">
		<path d="M385.7-366.1h-4.6v-16.1h-17.6v16.1h-4.6v-34.8h4.6v15h17.6v-15h4.6V-366.1z"/>
		<path d="M409.1-366.1c-0.3-0.5-0.5-1.4-0.6-2.7c-2.1,2.1-4.5,3.2-7.4,3.2c-2.6,0-4.6-0.7-6.3-2.2c-1.6-1.4-2.5-3.3-2.5-5.5
			c0-2.7,1-4.8,3.1-6.3c2-1.5,4.9-2.2,8.6-2.2h4.3v-2c0-1.5-0.5-2.8-1.4-3.7s-2.3-1.4-4.1-1.4c-1.6,0-2.9,0.4-4,1.2
			c-1.1,0.8-1.6,1.8-1.6,2.9h-4.5c0-1.3,0.5-2.5,1.4-3.7c0.9-1.2,2.2-2.2,3.7-2.9c1.6-0.7,3.3-1.1,5.2-1.1c3,0,5.3,0.7,7,2.2
			s2.6,3.5,2.6,6.2v11.9c0,2.4,0.3,4.3,0.9,5.7v0.4L409.1-366.1L409.1-366.1z M401.8-369.5c1.4,0,2.7-0.4,3.9-1.1s2.1-1.7,2.7-2.8
			v-5.3H405c-5.4,0-8.1,1.6-8.1,4.8c0,1.4,0.5,2.5,1.4,3.3C399.1-369.9,400.3-369.5,401.8-369.5z"/>
		<path d="M430.2-369.2c1.6,0,3-0.5,4.1-1.4c1.2-1,1.8-2.2,2-3.6h4.2c-0.1,1.5-0.6,2.9-1.5,4.2c-0.9,1.3-2.2,2.4-3.8,3.2
			c-1.6,0.8-3.2,1.2-5,1.2c-3.5,0-6.3-1.2-8.4-3.5c-2.1-2.4-3.1-5.6-3.1-9.7v-0.7c0-2.5,0.5-4.8,1.4-6.7c0.9-2,2.3-3.5,4-4.6
			s3.8-1.6,6.1-1.6c2.9,0,5.3,0.9,7.2,2.6c1.9,1.7,2.9,4,3.1,6.8h-4.2c-0.1-1.7-0.8-3.1-1.9-4.1c-1.1-1.1-2.5-1.6-4.2-1.6
			c-2.2,0-4,0.8-5.2,2.4c-1.2,1.6-1.9,4-1.9,7v0.8c0,3,0.6,5.3,1.8,6.9S427.9-369.2,430.2-369.2z"/>
		<path d="M456.2-365.6c-3.5,0-6.4-1.2-8.6-3.5c-2.2-2.3-3.3-5.4-3.3-9.2v-0.8c0-2.6,0.5-4.9,1.5-6.9s2.4-3.6,4.1-4.7
			c1.8-1.1,3.7-1.7,5.7-1.7c3.4,0,6,1.1,7.8,3.3c1.9,2.2,2.8,5.4,2.8,9.5v1.8h-17.5c0.1,2.6,0.8,4.6,2.2,6.2
			c1.4,1.6,3.2,2.4,5.4,2.4c1.6,0,2.9-0.3,4-1c1.1-0.6,2-1.5,2.8-2.5l2.7,2.1C463.8-367.3,460.5-365.6,456.2-365.6z M455.6-388.8
			c-1.8,0-3.3,0.7-4.5,2c-1.2,1.3-2,3.1-2.2,5.5h13v-0.3c-0.1-2.2-0.7-4-1.8-5.2C459-388.2,457.5-388.8,455.6-388.8z M457.8-402.9
			h5.4l-6.4,7h-3.6L457.8-402.9z"/>
		<path d="M493.9-369.2c1.6,0,3-0.5,4.1-1.4c1.2-1,1.8-2.2,2-3.6h4.2c-0.1,1.5-0.6,2.9-1.5,4.2c-0.9,1.3-2.2,2.4-3.8,3.2
			c-1.6,0.8-3.2,1.2-5,1.2c-3.5,0-6.3-1.2-8.4-3.5c-2.1-2.4-3.1-5.6-3.1-9.7v-0.7c0-2.5,0.5-4.8,1.4-6.7c0.9-2,2.3-3.5,4-4.6
			s3.8-1.6,6.1-1.6c2.9,0,5.3,0.9,7.2,2.6c1.9,1.7,2.9,4,3.1,6.8H500c-0.1-1.7-0.8-3.1-1.9-4.1c-1.1-1.1-2.5-1.6-4.2-1.6
			c-2.2,0-4,0.8-5.2,2.4c-1.2,1.6-1.9,4-1.9,7v0.8c0,3,0.6,5.3,1.8,6.9C489.9-370,491.6-369.2,493.9-369.2z"/>
		<path d="M514-366.1h-4.4v-36.8h4.4V-366.1z"/>
		<path d="M521.1-398.9c0-0.7,0.2-1.3,0.7-1.8c0.4-0.5,1.1-0.7,2-0.7s1.5,0.2,2,0.7c0.4,0.5,0.7,1.1,0.7,1.8c0,0.7-0.2,1.3-0.7,1.8
			c-0.4,0.5-1.1,0.7-2,0.7s-1.5-0.2-2-0.7C521.3-397.5,521.1-398.1,521.1-398.9z M525.9-366.1h-4.4V-392h4.4V-366.1z"/>
		<path d="M543.3-369.2c1.6,0,3-0.5,4.1-1.4c1.2-1,1.8-2.2,2-3.6h4.2c-0.1,1.5-0.6,2.9-1.5,4.2c-0.9,1.3-2.2,2.4-3.8,3.2
			c-1.6,0.8-3.2,1.2-5,1.2c-3.5,0-6.3-1.2-8.4-3.5c-2.1-2.4-3.1-5.6-3.1-9.7v-0.7c0-2.5,0.5-4.8,1.4-6.7c0.9-2,2.3-3.5,4-4.6
			s3.8-1.6,6.1-1.6c2.9,0,5.3,0.9,7.2,2.6c1.9,1.7,2.9,4,3.1,6.8h-4.2c-0.1-1.7-0.8-3.1-1.9-4.1c-1.1-1.1-2.5-1.6-4.2-1.6
			c-2.2,0-4,0.8-5.2,2.4c-1.2,1.6-1.9,4-1.9,7v0.8c0,3,0.6,5.3,1.8,6.9C539.3-370,541.1-369.2,543.3-369.2z"/>
		<path d="M586.7-366.1c-0.3-0.5-0.5-1.4-0.6-2.7c-2.1,2.1-4.5,3.2-7.4,3.2c-2.6,0-4.6-0.7-6.3-2.2c-1.6-1.4-2.5-3.3-2.5-5.5
			c0-2.7,1-4.8,3.1-6.3c2-1.5,4.9-2.2,8.6-2.2h4.3v-2c0-1.5-0.5-2.8-1.4-3.7s-2.3-1.4-4.1-1.4c-1.6,0-2.9,0.4-4,1.2
			c-1.1,0.8-1.6,1.8-1.6,2.9h-4.5c0-1.3,0.5-2.5,1.4-3.7c0.9-1.2,2.2-2.2,3.7-2.9c1.5-0.7,3.3-1.1,5.2-1.1c3,0,5.3,0.7,7,2.2
			s2.6,3.5,2.6,6.2v11.9c0,2.4,0.3,4.3,0.9,5.7v0.4L586.7-366.1L586.7-366.1z M579.4-369.5c1.4,0,2.7-0.4,3.9-1.1s2.1-1.7,2.7-2.8
			v-5.3h-3.5c-5.4,0-8.1,1.6-8.1,4.8c0,1.4,0.5,2.5,1.4,3.3C576.7-369.9,577.9-369.5,579.4-369.5z"/>
		<path d="M596.3-379.3c0-4.1,0.9-7.3,2.8-9.7c1.9-2.4,4.4-3.6,7.5-3.6s5.5,1,7.2,3.1l0.2-2.6h4.1v35.8h-4.4v-12.3
			c-1.8,1.9-4.2,2.9-7.1,2.9c-3.1,0-5.6-1.2-7.5-3.6c-1.9-2.4-2.8-5.7-2.8-9.7V-379.3z M600.7-378.8c0,3,0.6,5.3,1.9,7
			c1.3,1.7,2.9,2.5,5.1,2.5c2.6,0,4.6-1.2,6-3.5v-12.7c-1.4-2.3-3.4-3.4-6-3.4c-2.1,0-3.8,0.8-5.1,2.5
			C601.4-384.6,600.7-382.1,600.7-378.8z"/>
		<path d="M641.2-368.7c-1.7,2-4.3,3-7.6,3c-2.8,0-4.9-0.8-6.3-2.4c-1.4-1.6-2.2-4-2.2-7.1V-392h4.4v16.7c0,3.9,1.6,5.9,4.8,5.9
			c3.4,0,5.6-1.3,6.7-3.8V-392h4.4v25.9h-4.2L641.2-368.7z"/>
		<path d="M657.1-402.8h5.4l-6.4,7h-3.6L657.1-402.8z M657.1-366.1h-4.5V-392h4.5V-366.1z"/>
	</g>
</g>
<g>
	<path d="M165.1-380.9l-28-28c-4.2,6.5-9.7,12-16.2,16.2l28,28c4.5,4.5,11.7,4.5,16.2,0C169.6-369.1,169.6-376.4,165.1-380.9z"/>
	<path d="M137.9-437.7c0-25.3-20.5-45.8-45.8-45.8S46.3-463,46.3-437.7c0,25.3,20.5,45.8,45.8,45.8S137.9-412.4,137.9-437.7z
		 M92.1-403.3c-18.9,0-34.4-15.4-34.4-34.4s15.4-34.4,34.4-34.4s34.4,15.4,34.4,34.4C126.4-418.7,111-403.3,92.1-403.3z"/>
	<path d="M65.3-437.7h7.6c0-10.5,8.6-19.1,19.1-19.1v-7.6C77.3-464.4,65.3-452.4,65.3-437.7z"/>
</g>
<g>
	<path class="st0" d="M855.5-505.5c25.4,0,46,20.6,46,46v81c0,25.4-20.6,46-46,46h-784c-25.4,0-46-20.6-46-46v-81
		c0-25.4,20.6-46,46-46L855.5-505.5 M855.5-509.5h-784c-27.6,0-50,22.4-50,50v81c0,27.6,22.4,50,50,50h784c27.6,0,50-22.4,50-50v-81
		C905.5-487.1,883.2-509.5,855.5-509.5L855.5-509.5z"/>
</g>
<g>
	<g>
		<path d="M1267.5,241.8h-12.6v34.4h-8.6v-34.4h-12.5v-6.9h33.6L1267.5,241.8L1267.5,241.8z"/>
		<path d="M1283.4,276.8c-4.5,0-8.2-1.4-11-4.2c-2.8-2.8-4.3-6.5-4.3-11v-0.8c0-3,0.6-5.8,1.8-8.3c1.2-2.5,2.8-4.3,5-5.6
			c2.2-1.3,4.7-2,7.5-2c4.2,0,7.5,1.3,9.9,4c2.4,2.7,3.6,6.4,3.6,11.3v3.3h-19.6c0.3,2,1,3.6,2.4,4.8c1.3,1.2,3,1.8,5,1.8
			c3.1,0,5.6-1.1,7.4-3.4l4,4.6c-1.2,1.7-2.9,3.1-5,4.1C1288.3,276.3,1286,276.8,1283.4,276.8z M1282.5,251.6c-1.6,0-2.9,0.6-4,1.6
			c-1,1.1-1.6,2.7-1.9,4.8h11.4v-0.7c0-1.8-0.6-3.2-1.5-4.3C1285.6,252.1,1284.3,251.6,1282.5,251.6z"/>
		<path d="M1329.3,276.8c-4.5,0-8.2-1.4-11-4.2c-2.9-2.8-4.3-6.5-4.3-11v-0.8c0-3,0.6-5.8,1.8-8.3c1.2-2.5,2.8-4.3,5-5.6
			c2.2-1.3,4.7-2,7.5-2c4.2,0,7.5,1.3,9.9,4s3.6,6.4,3.6,11.3v3.3h-19.6c0.3,2,1,3.6,2.4,4.8c1.3,1.2,3,1.8,5,1.8
			c3.1,0,5.6-1.1,7.4-3.4l4,4.6c-1.2,1.7-2.8,3.1-5,4.1C1334.2,276.3,1331.9,276.8,1329.3,276.8z M1328.4,251.6
			c-1.6,0-2.9,0.6-4,1.6c-1,1.1-1.6,2.7-1.9,4.8h11.4v-0.7c0-1.8-0.6-3.2-1.5-4.3C1331.5,252.1,1330.1,251.6,1328.4,251.6z"/>
		<path d="M1363.2,267.8c0-1-0.5-1.8-1.5-2.4s-2.6-1-4.8-1.5c-7.3-1.5-10.9-4.7-10.9-9.3c0-2.8,1.1-5,3.4-6.8
			c2.3-1.8,5.2-2.8,8.8-2.8c3.9,0,7,0.9,9.3,2.8c2.4,1.8,3.5,4.2,3.5,7.1h-8.2c0-1.1-0.4-2.2-1.1-2.9c-0.7-0.7-1.9-1.1-3.5-1.1
			c-1.4,0-2.5,0.3-3.2,0.9c-0.8,0.7-1.1,1.4-1.1,2.4s0.5,1.6,1.3,2.2c0.9,0.6,2.3,1,4.4,1.4c2.1,0.4,3.8,0.9,5.1,1.3
			c4.4,1.6,6.5,4.4,6.5,8.3c0,2.8-1.2,5-3.6,6.8c-2.4,1.7-5.5,2.6-9.3,2.6c-2.6,0-4.8-0.5-6.8-1.3c-2-0.9-3.6-2.2-4.7-3.8
			c-1.1-1.6-1.7-3.3-1.7-5.2h7.8c0.1,1.4,0.6,2.6,1.6,3.3c1,0.7,2.4,1.1,4,1.1s2.8-0.3,3.6-0.9
			C1362.9,269.4,1363.2,268.7,1363.2,267.8z"/>
		<path d="M1404.1,261.2c0,4.8-1,8.6-3.2,11.4c-2.2,2.8-5,4.3-8.7,4.3c-3.1,0-5.6-1-7.5-3.2v14.4h-8.2v-42.6h7.6l0.3,3
			c2-2.4,4.6-3.6,7.8-3.6c3.8,0,6.7,1.4,8.8,4.2c2.1,2.8,3.1,6.7,3.1,11.6L1404.1,261.2L1404.1,261.2z M1396,260.6
			c0-2.9-0.5-5-1.5-6.7c-1-1.5-2.5-2.3-4.4-2.3c-2.6,0-4.4,1-5.3,2.9V267c1,2,2.8,3,5.3,3C1394,270.2,1396,267,1396,260.6z"/>
		<path d="M1423.3,276.8c-4.5,0-8.2-1.4-11-4.2c-2.9-2.8-4.3-6.5-4.3-11v-0.8c0-3,0.6-5.8,1.8-8.3c1.2-2.5,2.9-4.3,5-5.6
			c2.2-1.3,4.7-2,7.5-2c4.2,0,7.5,1.3,9.9,4s3.6,6.4,3.6,11.3v3.3h-19.6c0.3,2,1,3.6,2.4,4.8c1.4,1.2,3,1.8,5,1.8
			c3.1,0,5.6-1.1,7.4-3.4l4,4.6c-1.2,1.7-2.9,3.1-5,4.1C1428.3,276.3,1425.9,276.8,1423.3,276.8z M1422.4,251.6
			c-1.6,0-2.9,0.6-4,1.6c-1,1.1-1.6,2.7-1.9,4.8h11.4v-0.7c0-1.8-0.6-3.2-1.5-4.3C1425.5,252.1,1424.2,251.6,1422.4,251.6z"/>
		<path d="M1457.9,253.2c-1.1-0.2-2.1-0.2-2.9-0.2c-3.1,0-5.1,1-6.1,3.1v20.1h-8.2v-30.7h7.8l0.2,3.7c1.6-2.8,3.9-4.3,6.8-4.3
			c1,0,1.8,0.1,2.6,0.4L1457.9,253.2z"/>
		<path d="M1478.8,276.2c-0.4-0.8-0.7-1.6-0.9-2.8c-2,2.2-4.6,3.3-7.8,3.3c-3,0-5.5-0.9-7.5-2.6c-2-1.7-2.9-3.9-2.9-6.6
			c0-3.2,1.2-5.8,3.6-7.5c2.4-1.7,5.9-2.7,10.5-2.7h3.8v-1.8c0-1.4-0.4-2.6-1.1-3.4c-0.8-0.9-1.9-1.2-3.4-1.2
			c-1.4,0-2.5,0.3-3.2,0.9c-0.8,0.7-1.1,1.6-1.1,2.8h-8.2c0-1.8,0.6-3.4,1.6-4.9c1.1-1.5,2.7-2.7,4.7-3.6c2-0.9,4.3-1.3,6.7-1.3
			c3.8,0,6.7,0.9,9,2.8c2.2,1.9,3.3,4.6,3.3,8v13.3c0,2.9,0.4,5.1,1.2,6.6v0.5L1478.8,276.2L1478.8,276.2z M1472,270.5
			c1.2,0,2.3-0.3,3.3-0.9c1-0.6,1.8-1.2,2.3-2.2v-5.3h-3c-4.1,0-6.3,1.4-6.6,4.3v0.5c0,1,0.4,1.9,1,2.6
			C1469.7,270.1,1470.7,270.5,1472,270.5z"/>
		<path d="M1499.8,245.5l0.3,3.4c2.2-2.7,5.1-4,8.8-4c4,0,6.6,1.5,8.2,4.7c2.2-3.1,5.2-4.7,9.2-4.7c3.3,0,5.8,0.9,7.4,2.9
			c1.6,1.9,2.5,4.8,2.5,8.7v19.6h-8.3v-19.6c0-1.7-0.4-3-1-3.8s-1.9-1.2-3.6-1.2c-2.5,0-4.2,1.1-5.1,3.5v21.1h-8.2v-19.6
			c0-1.8-0.4-3-1-3.9c-0.7-0.8-1.9-1.2-3.6-1.2c-2.3,0-4,0.9-5,2.8V276h-8.2v-30.5H1499.8z"/>
		<path d="M1541.2,260.6c0-3,0.6-5.8,1.8-8.2c1.1-2.4,2.9-4.3,5-5.5c2.2-1.3,4.8-2,7.7-2c4.2,0,7.5,1.2,10.2,3.8
			c2.7,2.6,4.1,6,4.4,10.4l0.1,2.1c0,4.8-1.3,8.5-4,11.3c-2.7,2.8-6.2,4.3-10.5,4.3c-4.5,0-8-1.4-10.6-4.3c-2.6-2.9-4-6.7-4-11.6
			L1541.2,260.6L1541.2,260.6z M1549.4,261.2c0,2.9,0.6,5.1,1.6,6.7c1.1,1.5,2.7,2.3,4.8,2.3c2,0,3.5-0.8,4.7-2.3
			c1.2-1.5,1.7-4,1.7-7.3c0-2.9-0.6-5-1.7-6.7c-1.1-1.7-2.7-2.4-4.8-2.4c-2,0-3.5,0.8-4.7,2.4C1550,255.5,1549.4,257.9,1549.4,261.2
			z"/>
		<path d="M1592,267.8c0-1-0.5-1.8-1.5-2.4s-2.6-1-4.8-1.5c-7.3-1.5-10.9-4.7-10.9-9.3c0-2.8,1.1-5,3.4-6.8s5.2-2.8,8.8-2.8
			c3.9,0,7,0.9,9.3,2.8c2.4,1.8,3.5,4.2,3.5,7.1h-8.2c0-1.1-0.4-2.2-1.1-2.9c-0.8-0.8-1.9-1.1-3.5-1.1c-1.4,0-2.5,0.3-3.2,0.9
			c-0.8,0.7-1.1,1.4-1.1,2.4s0.5,1.6,1.3,2.2c0.9,0.6,2.3,1,4.4,1.4c2.1,0.4,3.8,0.9,5.1,1.3c4.4,1.6,6.5,4.4,6.5,8.3
			c0,2.8-1.2,5-3.6,6.8c-2.4,1.7-5.5,2.6-9.3,2.6c-2.6,0-4.8-0.5-6.8-1.3c-2-0.9-3.6-2.2-4.7-3.8c-1.1-1.6-1.7-3.3-1.7-5.2h7.8
			c0.1,1.4,0.6,2.6,1.6,3.3c1,0.8,2.4,1.1,4,1.1s2.8-0.3,3.6-0.9C1591.6,269.5,1592,268.7,1592,267.8z"/>
		<path d="M1633.9,276.8c-4.5,0-8.2-1.4-11-4.2c-2.8-2.8-4.3-6.5-4.3-11v-0.8c0-3,0.6-5.8,1.8-8.3c1.2-2.5,2.9-4.3,5-5.6
			c2.2-1.3,4.7-2,7.5-2c4.2,0,7.5,1.3,9.9,4s3.6,6.4,3.6,11.3v3.3h-19.6c0.3,2,1,3.6,2.4,4.8c1.4,1.2,3,1.8,5,1.8
			c3.1,0,5.6-1.1,7.4-3.4l4,4.6c-1.2,1.7-2.9,3.1-5,4.1C1638.7,276.3,1636.4,276.8,1633.9,276.8z M1632.9,251.6
			c-1.6,0-2.9,0.6-4,1.6c-1,1.1-1.6,2.7-1.9,4.8h11.4v-0.7c0-1.8-0.6-3.2-1.5-4.3C1636,252.1,1634.6,251.6,1632.9,251.6z"/>
		<path d="M1658.7,245.5l0.3,3.5c2.2-2.8,5.1-4.1,8.8-4.1c3.2,0,5.7,0.9,7.2,2.8c1.6,1.9,2.4,4.8,2.5,8.5v19.9h-8.2v-19.7
			c0-1.7-0.4-3-1.1-3.8c-0.8-0.8-2-1.1-3.8-1.1c-2.3,0-4.1,1-5.2,2.9v21.7h-8.2v-30.6H1658.7z"/>
	</g>
</g>
<g>
	
		<linearGradient id="SVGID_1_" gradientUnits="userSpaceOnUse" x1="156.3707" y1="667.9763" x2="74.6293" y2="749.7179" gradientTransform="matrix(1 0 0 1 0 -854)">
		<stop  offset="1.104800e-03" style="stop-color:#FFE185"/>
		<stop  offset="0.2094" style="stop-color:#FFBB36"/>
		<stop  offset="0.3765" style="stop-color:#FF5176"/>
		<stop  offset="0.5238" style="stop-color:#F63395"/>
		<stop  offset="0.7394" style="stop-color:#A436D2"/>
		<stop  offset="1" style="stop-color:#5F4EED"/>
	</linearGradient>
	<circle class="st2" cx="115.5" cy="-145.2" r="57.8"/>
	<g>
		<g>
			<path class="st0" d="M133.4-167.1c-2.2,0-4,1.8-4,4s1.8,4,4,4s4-1.8,4-4C137.4-165.3,135.7-167.1,133.4-167.1z"/>
			<path class="st0" d="M115.8-162c-9.2,0-16.7,7.5-16.7,16.7c0,9.2,7.5,16.7,16.7,16.7s16.7-7.5,16.7-16.7
				C132.4-154.5,124.9-162,115.8-162z M115.8-134.7c-5.9,0-10.7-4.8-10.7-10.7c0-5.9,4.8-10.7,10.7-10.7s10.7,4.8,10.7,10.7
				C126.5-139.4,121.7-134.7,115.8-134.7z"/>
			<path class="st0" d="M129-111.4h-27.1c-11.2,0-20.3-9.1-20.3-20.3v-27.1c0-11.2,9.1-20.3,20.3-20.3H129
				c11.2,0,20.3,9.1,20.3,20.3v27.1C149.3-120.6,140.2-111.4,129-111.4z M101.9-172.8c-7.7,0-14,6.3-14,14v27.1c0,7.7,6.3,14,14,14
				H129c7.7,0,14-6.3,14-14v-27c0-7.7-6.3-14-14-14L101.9-172.8L101.9-172.8z"/>
		</g>
	</g>
</g>
<g class="st1">
	<path d="M233.2,91.5c0,2.1-0.2,3.8-0.7,5.1c-0.5,1.3-1.4,2.6-2.6,3.7c-1.3,1.2-2.1,2.1-2.6,2.6c-0.5,0.6-0.8,1.2-1,1.7
		c-0.2,0.6-0.3,1.2-0.3,1.9c0,2.5,1.2,3.8,3.7,3.8c1.2,0,2.2-0.4,2.9-1.1c0.7-0.7,1.1-1.7,1.1-3h6.9c0,3.1-1,5.5-2.9,7.2
		c-1.9,1.7-4.6,2.6-7.9,2.6c-3.4,0-6-0.8-7.9-2.4c-1.9-1.6-2.8-3.9-2.8-6.9c0-2.5,1.2-5,3.7-7.5l2.3-2.2c0.8-0.7,1.4-1.5,1.7-2.3
		c0.3-0.8,0.5-1.9,0.5-3.3H233.2z M234.1,84.2c0,1.1-0.4,1.9-1.1,2.6c-0.7,0.7-1.7,1-2.8,1c-1.1,0-2-0.3-2.8-1
		c-0.7-0.7-1.1-1.6-1.1-2.6c0-1.1,0.4-1.9,1.1-2.6c0.7-0.7,1.6-1,2.8-1c1.2,0,2.1,0.3,2.8,1C233.7,82.2,234.1,83.1,234.1,84.2z"/>
	<path d="M273.1,106.9h-7.2l-14-22.9v22.9h-7.2V72h7.2l14,23V72h7.2V106.9z"/>
	<path d="M290.8,107.3c-3.8,0-6.9-1.2-9.3-3.5c-2.4-2.3-3.6-5.4-3.6-9.3v-0.7c0-2.6,0.5-4.9,1.5-7s2.4-3.6,4.3-4.7
		c1.8-1.1,3.9-1.7,6.3-1.7c3.5,0,6.3,1.1,8.4,3.3c2,2.2,3.1,5.4,3.1,9.5v2.8H285c0.2,1.7,0.9,3,2,4.1c1.1,1,2.5,1.5,4.3,1.5
		c2.7,0,4.7-1,6.2-2.9l3.4,3.8c-1,1.5-2.4,2.6-4.2,3.4S293,107.3,290.8,107.3z M290,86.1c-1.4,0-2.5,0.5-3.3,1.4
		c-0.9,0.9-1.4,2.3-1.6,4h9.6v-0.6c0-1.5-0.4-2.7-1.2-3.6C292.6,86.5,291.5,86.1,290,86.1z"/>
	<path d="M316.2,101.8c1.3,0,2.3-0.4,3.1-1.1c0.8-0.7,1.2-1.6,1.2-2.8h6.5c0,1.8-0.5,3.4-1.4,4.8c-0.9,1.5-2.2,2.6-3.9,3.4
		c-1.6,0.8-3.4,1.2-5.4,1.2c-3.7,0-6.6-1.2-8.8-3.5c-2.1-2.4-3.2-5.6-3.2-9.8v-0.5c0-4,1.1-7.2,3.2-9.5c2.1-2.4,5-3.6,8.7-3.6
		c3.2,0,5.8,0.9,7.8,2.8c2,1.8,2.9,4.3,3,7.4h-6.5c0-1.3-0.4-2.4-1.2-3.3c-0.8-0.8-1.9-1.3-3.2-1.3c-1.6,0-2.8,0.6-3.6,1.8
		c-0.8,1.2-1.2,3.1-1.2,5.7v0.7c0,2.7,0.4,4.6,1.2,5.8C313.3,101.2,314.5,101.8,316.2,101.8z"/>
	<path d="M342.9,107.3c-3.8,0-6.9-1.2-9.3-3.5c-2.4-2.3-3.6-5.4-3.6-9.3v-0.7c0-2.6,0.5-4.9,1.5-7s2.4-3.6,4.3-4.7
		c1.8-1.1,3.9-1.7,6.3-1.7c3.5,0,6.3,1.1,8.4,3.3c2,2.2,3.1,5.4,3.1,9.5v2.8H337c0.2,1.7,0.9,3,2,4.1c1.1,1,2.5,1.5,4.3,1.5
		c2.7,0,4.7-1,6.2-2.9l3.4,3.8c-1,1.5-2.4,2.6-4.2,3.4S345,107.3,342.9,107.3z M342.1,86.1c-1.4,0-2.5,0.5-3.3,1.4
		c-0.9,0.9-1.4,2.3-1.6,4h9.6v-0.6c0-1.5-0.4-2.7-1.2-3.6C344.7,86.5,343.5,86.1,342.1,86.1z"/>
	<path d="M371.5,99.7c0-0.8-0.4-1.5-1.3-2c-0.8-0.5-2.2-0.9-4-1.3c-6.2-1.3-9.2-3.9-9.2-7.8c0-2.3,1-4.2,2.9-5.8
		c1.9-1.5,4.4-2.3,7.5-2.3c3.3,0,5.9,0.8,7.9,2.3c2,1.5,3,3.6,3,6h-6.9c0-1-0.3-1.8-1-2.5c-0.6-0.6-1.6-1-3-1
		c-1.2,0-2.1,0.3-2.7,0.8c-0.6,0.5-1,1.2-1,2c0,0.8,0.4,1.4,1.1,1.9c0.7,0.5,1.9,0.9,3.7,1.2s3.2,0.7,4.4,1.2c3.7,1.3,5.5,3.7,5.5,7
		c0,2.4-1,4.3-3,5.7c-2,1.5-4.6,2.2-7.8,2.2c-2.2,0-4.1-0.4-5.8-1.2c-1.7-0.8-3-1.8-4-3.2c-1-1.3-1.4-2.8-1.4-4.4h6.6
		c0.1,1.2,0.5,2.2,1.4,2.8c0.8,0.7,2,1,3.4,1c1.3,0,2.3-0.3,3-0.8C371.1,101.2,371.5,100.5,371.5,99.7z"/>
	<path d="M382.6,74.3c0-1,0.3-1.9,1-2.6c0.7-0.7,1.6-1,2.8-1c1.2,0,2.1,0.3,2.8,1c0.7,0.7,1.1,1.5,1.1,2.6c0,1.1-0.4,1.9-1.1,2.6
		c-0.7,0.7-1.6,1-2.8,1c-1.2,0-2.1-0.3-2.8-1C382.9,76.2,382.6,75.3,382.6,74.3z M389.9,106.9H383V81h6.9V106.9z"/>
	<path d="M403.9,74.6V81h4.4v5.1h-4.4V99c0,1,0.2,1.6,0.6,2.1c0.4,0.4,1.1,0.6,2.1,0.6c0.8,0,1.4-0.1,2-0.2v5.2
		c-1.4,0.4-2.8,0.6-4.2,0.6c-4.8,0-7.3-2.4-7.4-7.3V86.1h-3.8V81h3.8v-6.4H403.9z"/>
	<path d="M427.2,106.9c-0.3-0.6-0.6-1.4-0.7-2.3c-1.7,1.9-3.9,2.8-6.5,2.8c-2.5,0-4.6-0.7-6.3-2.2c-1.7-1.5-2.5-3.3-2.5-5.6
		c0-2.7,1-4.8,3.1-6.3c2-1.5,5-2.2,8.8-2.2h3.2v-1.5c0-1.2-0.3-2.2-0.9-2.9c-0.6-0.7-1.6-1.1-2.9-1.1c-1.2,0-2.1,0.3-2.7,0.8
		c-0.7,0.6-1,1.3-1,2.3h-6.9c0-1.5,0.5-2.9,1.4-4.2c0.9-1.3,2.2-2.3,3.9-3c1.7-0.7,3.6-1.1,5.7-1.1c3.2,0,5.7,0.8,7.6,2.4
		c1.9,1.6,2.8,3.9,2.8,6.8v11.2c0,2.5,0.4,4.3,1,5.6v0.4H427.2z M421.5,102.1c1,0,2-0.2,2.8-0.7c0.9-0.5,1.5-1.1,1.9-1.8v-4.5h-2.6
		c-3.5,0-5.3,1.2-5.5,3.6l0,0.4c0,0.9,0.3,1.6,0.9,2.1C419.6,101.8,420.4,102.1,421.5,102.1z M424.1,70.1h7.5l-6.6,7.4h-5.6
		L424.1,70.1z"/>
	<path d="M452.5,99.7c0-0.8-0.4-1.5-1.3-2c-0.8-0.5-2.2-0.9-4-1.3c-6.2-1.3-9.2-3.9-9.2-7.8c0-2.3,1-4.2,2.9-5.8
		c1.9-1.5,4.4-2.3,7.5-2.3c3.3,0,5.9,0.8,7.9,2.3c2,1.5,3,3.6,3,6h-6.9c0-1-0.3-1.8-1-2.5c-0.6-0.6-1.6-1-3-1
		c-1.2,0-2.1,0.3-2.7,0.8c-0.6,0.5-1,1.2-1,2c0,0.8,0.4,1.4,1.1,1.9c0.7,0.5,1.9,0.9,3.7,1.2s3.2,0.7,4.4,1.2c3.7,1.3,5.5,3.7,5.5,7
		c0,2.4-1,4.3-3,5.7c-2,1.5-4.6,2.2-7.8,2.2c-2.2,0-4.1-0.4-5.8-1.2c-1.7-0.8-3-1.8-4-3.2c-1-1.3-1.4-2.8-1.4-4.4h6.6
		c0.1,1.2,0.5,2.2,1.4,2.8c0.8,0.7,2,1,3.4,1c1.3,0,2.3-0.3,3-0.8C452.1,101.2,452.5,100.5,452.5,99.7z"/>
	<path d="M490.8,106.9c-0.3-0.6-0.6-1.4-0.7-2.3c-1.7,1.9-3.9,2.8-6.5,2.8c-2.5,0-4.6-0.7-6.3-2.2c-1.7-1.5-2.5-3.3-2.5-5.6
		c0-2.7,1-4.8,3.1-6.3c2-1.5,5-2.2,8.8-2.2h3.2v-1.5c0-1.2-0.3-2.2-0.9-2.9c-0.6-0.7-1.6-1.1-2.9-1.1c-1.2,0-2.1,0.3-2.7,0.8
		c-0.7,0.6-1,1.3-1,2.3h-6.9c0-1.5,0.5-2.9,1.4-4.2c0.9-1.3,2.2-2.3,3.9-3c1.7-0.7,3.6-1.1,5.7-1.1c3.2,0,5.7,0.8,7.6,2.4
		c1.9,1.6,2.8,3.9,2.8,6.8v11.2c0,2.5,0.4,4.3,1,5.6v0.4H490.8z M485.1,102.1c1,0,2-0.2,2.8-0.7c0.9-0.5,1.5-1.1,1.9-1.8v-4.5h-2.6
		c-3.5,0-5.3,1.2-5.5,3.6l0,0.4c0,0.9,0.3,1.6,0.9,2.1C483.2,101.8,484.1,102.1,485.1,102.1z"/>
	<path d="M511.4,97.1l4.8-16.1h7.4l-10.4,29.9l-0.6,1.4c-1.5,3.4-4.1,5.1-7.7,5.1c-1,0-2-0.2-3.1-0.5v-5.2l1.1,0
		c1.3,0,2.3-0.2,2.9-0.6c0.6-0.4,1.2-1.1,1.5-2l0.8-2.1l-9.1-26h7.4L511.4,97.1z"/>
	<path d="M541.9,104.2c-1.7,2.1-4.1,3.1-7.1,3.1c-2.8,0-4.9-0.8-6.4-2.4c-1.5-1.6-2.2-3.9-2.2-7V81h6.9v16.7c0,2.7,1.2,4,3.7,4
		c2.3,0,4-0.8,4.8-2.4V81h6.9v25.9H542L541.9,104.2z"/>
	<path d="M552.7,93.7c0-4,0.9-7.3,2.7-9.6c1.8-2.4,4.3-3.6,7.4-3.6c2.5,0,4.6,0.9,6.2,2.8V70.1h6.9v36.8h-6.2l-0.3-2.8
		c-1.7,2.2-3.9,3.2-6.7,3.2c-3,0-5.5-1.2-7.3-3.6C553.6,101.3,552.7,98,552.7,93.7z M559.6,94.2c0,2.4,0.4,4.3,1.3,5.6
		c0.8,1.3,2.1,1.9,3.7,1.9c2.1,0,3.6-0.9,4.5-2.7V88.8c-0.9-1.8-2.4-2.7-4.5-2.7C561.3,86.1,559.6,88.8,559.6,94.2z"/>
	<path d="M596.4,106.9c-0.3-0.6-0.6-1.4-0.7-2.3c-1.7,1.9-3.9,2.8-6.5,2.8c-2.5,0-4.6-0.7-6.3-2.2c-1.7-1.5-2.5-3.3-2.5-5.6
		c0-2.7,1-4.8,3.1-6.3c2-1.5,5-2.2,8.8-2.2h3.2v-1.5c0-1.2-0.3-2.2-0.9-2.9c-0.6-0.7-1.6-1.1-2.9-1.1c-1.2,0-2.1,0.3-2.7,0.8
		c-0.7,0.6-1,1.3-1,2.3h-6.9c0-1.5,0.5-2.9,1.4-4.2c0.9-1.3,2.2-2.3,3.9-3c1.7-0.7,3.6-1.1,5.7-1.1c3.2,0,5.7,0.8,7.6,2.4
		c1.9,1.6,2.8,3.9,2.8,6.8v11.2c0,2.5,0.4,4.3,1,5.6v0.4H596.4z M590.7,102.1c1,0,2-0.2,2.8-0.7c0.9-0.5,1.5-1.1,1.9-1.8v-4.5h-2.6
		c-3.5,0-5.3,1.2-5.5,3.6l0,0.4c0,0.9,0.3,1.6,0.9,2.1C588.8,101.8,589.6,102.1,590.7,102.1z"/>
	<path d="M628.1,74.6V81h4.4v5.1h-4.4V99c0,1,0.2,1.6,0.6,2.1c0.4,0.4,1.1,0.6,2.1,0.6c0.8,0,1.4-0.1,2-0.2v5.2
		c-1.4,0.4-2.8,0.6-4.2,0.6c-4.8,0-7.3-2.4-7.4-7.3V86.1h-3.8V81h3.8v-6.4H628.1z"/>
	<path d="M648.3,107.3c-3.8,0-6.9-1.2-9.3-3.5c-2.4-2.3-3.6-5.4-3.6-9.3v-0.7c0-2.6,0.5-4.9,1.5-7s2.4-3.6,4.3-4.7
		c1.8-1.1,3.9-1.7,6.3-1.7c3.5,0,6.3,1.1,8.4,3.3c2,2.2,3.1,5.4,3.1,9.5v2.8h-16.5c0.2,1.7,0.9,3,2,4.1c1.1,1,2.5,1.5,4.3,1.5
		c2.7,0,4.7-1,6.2-2.9l3.4,3.8c-1,1.5-2.4,2.6-4.2,3.4S650.5,107.3,648.3,107.3z M647.5,86.1c-1.4,0-2.5,0.5-3.3,1.4s-1.4,2.3-1.6,4
		h9.6v-0.6c0-1.5-0.4-2.7-1.2-3.6C650.1,86.5,649,86.1,647.5,86.1z M648.2,70.1h7.5l-6.6,7.4h-5.6L648.2,70.1z"/>
	<path d="M673.7,101.8c1.3,0,2.3-0.4,3.1-1.1c0.8-0.7,1.2-1.6,1.2-2.8h6.5c0,1.8-0.5,3.4-1.4,4.8c-0.9,1.5-2.2,2.6-3.9,3.4
		c-1.6,0.8-3.4,1.2-5.4,1.2c-3.7,0-6.6-1.2-8.8-3.5c-2.1-2.4-3.2-5.6-3.2-9.8v-0.5c0-4,1.1-7.2,3.2-9.5c2.1-2.4,5-3.6,8.7-3.6
		c3.2,0,5.8,0.9,7.8,2.8c2,1.8,2.9,4.3,3,7.4H678c0-1.3-0.4-2.4-1.2-3.3c-0.8-0.8-1.9-1.3-3.2-1.3c-1.6,0-2.8,0.6-3.6,1.8
		c-0.8,1.2-1.2,3.1-1.2,5.7v0.7c0,2.7,0.4,4.6,1.2,5.8C670.8,101.2,672,101.8,673.7,101.8z"/>
	<path d="M694.8,81l0.2,3c1.9-2.3,4.3-3.5,7.4-3.5c2.7,0,4.8,0.8,6.1,2.4c1.3,1.6,2,4,2.1,7.2v16.7h-6.9V90.3c0-1.5-0.3-2.5-1-3.2
		c-0.6-0.7-1.7-1-3.2-1c-1.9,0-3.4,0.8-4.4,2.5v18.3h-6.9V81H694.8z"/>
	<path d="M715.8,74.3c0-1,0.3-1.9,1-2.6c0.7-0.7,1.6-1,2.8-1c1.2,0,2.1,0.3,2.8,1s1.1,1.5,1.1,2.6c0,1.1-0.4,1.9-1.1,2.6
		s-1.6,1-2.8,1s-2.1-0.3-2.8-1C716.2,76.2,715.8,75.3,715.8,74.3z M723.2,106.9h-6.9V81h6.9V106.9z"/>
	<path d="M739.7,101.8c1.3,0,2.3-0.4,3.1-1.1c0.8-0.7,1.2-1.6,1.2-2.8h6.5c0,1.8-0.5,3.4-1.4,4.8c-0.9,1.5-2.2,2.6-3.9,3.4
		c-1.6,0.8-3.4,1.2-5.4,1.2c-3.7,0-6.6-1.2-8.8-3.5c-2.1-2.4-3.2-5.6-3.2-9.8v-0.5c0-4,1.1-7.2,3.2-9.5c2.1-2.4,5-3.6,8.7-3.6
		c3.2,0,5.8,0.9,7.8,2.8c2,1.8,2.9,4.3,3,7.4H744c0-1.3-0.4-2.4-1.2-3.3c-0.8-0.8-1.9-1.3-3.2-1.3c-1.6,0-2.8,0.6-3.6,1.8
		c-0.8,1.2-1.2,3.1-1.2,5.7v0.7c0,2.7,0.4,4.6,1.2,5.8C736.8,101.2,738,101.8,739.7,101.8z"/>
	<path d="M769.4,106.9c-0.3-0.6-0.5-1.4-0.7-2.3c-1.7,1.9-3.9,2.8-6.5,2.8c-2.5,0-4.6-0.7-6.3-2.2c-1.7-1.5-2.5-3.3-2.5-5.6
		c0-2.7,1-4.8,3.1-6.3c2-1.5,5-2.2,8.8-2.2h3.2v-1.5c0-1.2-0.3-2.2-0.9-2.9c-0.6-0.7-1.6-1.1-2.9-1.1c-1.2,0-2.1,0.3-2.7,0.8
		c-0.7,0.6-1,1.3-1,2.3H754c0-1.5,0.5-2.9,1.4-4.2c0.9-1.3,2.2-2.3,3.9-3s3.6-1.1,5.7-1.1c3.2,0,5.7,0.8,7.6,2.4
		c1.9,1.6,2.8,3.9,2.8,6.8v11.2c0,2.5,0.4,4.3,1,5.6v0.4H769.4z M763.7,102.1c1,0,2-0.2,2.8-0.7c0.9-0.5,1.5-1.1,1.9-1.8v-4.5h-2.6
		c-3.5,0-5.3,1.2-5.5,3.6l0,0.4c0,0.9,0.3,1.6,0.9,2.1C761.8,101.8,762.7,102.1,763.7,102.1z"/>
	<path d="M786.4,96.2c0-2.2,0.3-4,0.8-5.3c0.5-1.3,1.5-2.6,3-3.9c1.4-1.3,2.4-2.3,2.9-3.1s0.7-1.7,0.7-2.6c0-2.7-1.2-4-3.7-4
		c-1.2,0-2.1,0.4-2.8,1.1s-1.1,1.7-1.1,3h-6.9c0-3,1-5.4,3-7.2c1.9-1.7,4.6-2.6,7.9-2.6c3.4,0,6,0.8,7.9,2.5s2.8,3.9,2.8,6.9
		c0,1.4-0.3,2.6-0.9,3.8c-0.6,1.2-1.7,2.5-3.2,4l-1.9,1.8c-1.2,1.2-1.9,2.5-2.1,4.1l-0.1,1.5H786.4z M785.7,103.5
		c0-1.1,0.4-1.9,1.1-2.6s1.7-1,2.8-1s2.1,0.3,2.8,1c0.7,0.7,1.1,1.6,1.1,2.6c0,1-0.4,1.9-1.1,2.6s-1.6,1-2.8,1s-2.1-0.3-2.8-1
		C786,105.4,785.7,104.6,785.7,103.5z"/>
</g>
<g class="st1">
	<path d="M386.9,165.7h-4.6v-16.1h-17.6v16.1h-4.6v-34.8h4.6v15h17.6v-15h4.6V165.7z"/>
	<path d="M410.3,165.7c-0.3-0.5-0.5-1.4-0.6-2.7c-2.1,2.1-4.5,3.2-7.4,3.2c-2.6,0-4.6-0.7-6.3-2.2s-2.5-3.3-2.5-5.5
		c0-2.7,1-4.8,3.1-6.3s4.9-2.2,8.6-2.2h4.3v-2c0-1.5-0.5-2.8-1.4-3.7c-0.9-0.9-2.3-1.4-4.1-1.4c-1.6,0-2.9,0.4-4,1.2
		c-1.1,0.8-1.6,1.8-1.6,2.9h-4.5c0-1.3,0.5-2.5,1.4-3.7c0.9-1.2,2.2-2.2,3.7-2.9c1.6-0.7,3.3-1.1,5.2-1.1c3,0,5.3,0.7,7,2.2
		s2.6,3.5,2.6,6.2v11.9c0,2.4,0.3,4.3,0.9,5.7v0.4H410.3z M403,162.3c1.4,0,2.7-0.4,3.9-1.1s2.1-1.7,2.7-2.8v-5.3h-3.5
		c-5.4,0-8.1,1.6-8.1,4.8c0,1.4,0.5,2.5,1.4,3.3S401.5,162.3,403,162.3z"/>
	<path d="M431.4,162.5c1.6,0,3-0.5,4.1-1.4c1.2-1,1.8-2.2,2-3.6h4.2c-0.1,1.5-0.6,2.9-1.5,4.2s-2.2,2.4-3.8,3.2
		c-1.6,0.8-3.2,1.2-5,1.2c-3.5,0-6.3-1.2-8.4-3.5c-2.1-2.4-3.1-5.6-3.1-9.7v-0.7c0-2.5,0.5-4.8,1.4-6.7c0.9-2,2.3-3.5,4-4.6
		c1.7-1.1,3.8-1.6,6.1-1.6c2.9,0,5.3,0.9,7.2,2.6c1.9,1.7,2.9,4,3.1,6.8h-4.2c-0.1-1.7-0.8-3.1-1.9-4.1c-1.1-1.1-2.5-1.6-4.2-1.6
		c-2.2,0-4,0.8-5.2,2.4c-1.2,1.6-1.9,4-1.9,7v0.8c0,3,0.6,5.3,1.8,6.9S429.1,162.5,431.4,162.5z"/>
	<path d="M457.4,166.1c-3.5,0-6.4-1.2-8.6-3.5s-3.3-5.4-3.3-9.2v-0.8c0-2.6,0.5-4.9,1.5-6.9c1-2,2.4-3.6,4.1-4.7
		c1.8-1.1,3.7-1.7,5.7-1.7c3.4,0,6,1.1,7.8,3.3c1.9,2.2,2.8,5.4,2.8,9.5v1.8h-17.5c0.1,2.6,0.8,4.6,2.2,6.2c1.4,1.6,3.2,2.4,5.4,2.4
		c1.6,0,2.9-0.3,4-1c1.1-0.6,2-1.5,2.8-2.5l2.7,2.1C465,164.5,461.7,166.1,457.4,166.1z M456.8,142.9c-1.8,0-3.3,0.7-4.5,2
		s-2,3.1-2.2,5.5h13V150c-0.1-2.2-0.7-4-1.8-5.2S458.7,142.9,456.8,142.9z M459,128.9h5.4l-6.4,7l-3.6,0L459,128.9z"/>
	<path d="M495.1,162.5c1.6,0,3-0.5,4.1-1.4c1.2-1,1.8-2.2,2-3.6h4.2c-0.1,1.5-0.6,2.9-1.5,4.2s-2.2,2.4-3.8,3.2
		c-1.6,0.8-3.2,1.2-5,1.2c-3.5,0-6.3-1.2-8.4-3.5c-2.1-2.4-3.1-5.6-3.1-9.7v-0.7c0-2.5,0.5-4.8,1.4-6.7c0.9-2,2.3-3.5,4-4.6
		c1.7-1.1,3.8-1.6,6.1-1.6c2.9,0,5.3,0.9,7.2,2.6c1.9,1.7,2.9,4,3.1,6.8h-4.2c-0.1-1.7-0.8-3.1-1.9-4.1c-1.1-1.1-2.5-1.6-4.2-1.6
		c-2.2,0-4,0.8-5.2,2.4c-1.2,1.6-1.9,4-1.9,7v0.8c0,3,0.6,5.3,1.8,6.9S492.8,162.5,495.1,162.5z"/>
	<path d="M515.2,165.7h-4.4v-36.8h4.4V165.7z"/>
	<path d="M522.3,132.9c0-0.7,0.2-1.3,0.7-1.8c0.4-0.5,1.1-0.7,2-0.7s1.5,0.2,2,0.7c0.4,0.5,0.7,1.1,0.7,1.8c0,0.7-0.2,1.3-0.7,1.8
		c-0.4,0.5-1.1,0.7-2,0.7s-1.5-0.2-2-0.7S522.3,133.6,522.3,132.9z M527.1,165.7h-4.4v-25.9h4.4V165.7z"/>
	<path d="M544.5,162.5c1.6,0,3-0.5,4.1-1.4c1.2-1,1.8-2.2,2-3.6h4.2c-0.1,1.5-0.6,2.9-1.5,4.2s-2.2,2.4-3.8,3.2
		c-1.6,0.8-3.2,1.2-5,1.2c-3.5,0-6.3-1.2-8.4-3.5c-2.1-2.4-3.1-5.6-3.1-9.7v-0.7c0-2.5,0.5-4.8,1.4-6.7c0.9-2,2.3-3.5,4-4.6
		c1.7-1.1,3.8-1.6,6.1-1.6c2.9,0,5.3,0.9,7.2,2.6c1.9,1.7,2.9,4,3.1,6.8h-4.2c-0.1-1.7-0.8-3.1-1.9-4.1c-1.1-1.1-2.5-1.6-4.2-1.6
		c-2.2,0-4,0.8-5.2,2.4c-1.2,1.6-1.9,4-1.9,7v0.8c0,3,0.6,5.3,1.8,6.9S542.3,162.5,544.5,162.5z"/>
	<path d="M587.9,165.7c-0.3-0.5-0.5-1.4-0.6-2.7c-2.1,2.1-4.5,3.2-7.4,3.2c-2.6,0-4.6-0.7-6.3-2.2c-1.6-1.4-2.5-3.3-2.5-5.5
		c0-2.7,1-4.8,3.1-6.3c2-1.5,4.9-2.2,8.6-2.2h4.3v-2c0-1.5-0.5-2.8-1.4-3.7c-0.9-0.9-2.3-1.4-4.1-1.4c-1.6,0-2.9,0.4-4,1.2
		c-1.1,0.8-1.6,1.8-1.6,2.9h-4.5c0-1.3,0.5-2.5,1.4-3.7s2.2-2.2,3.7-2.9s3.3-1.1,5.2-1.1c3,0,5.3,0.7,7,2.2c1.7,1.5,2.6,3.5,2.6,6.2
		v11.9c0,2.4,0.3,4.3,0.9,5.7v0.4H587.9z M580.6,162.3c1.4,0,2.7-0.4,3.9-1.1s2.1-1.7,2.7-2.8v-5.3h-3.5c-5.4,0-8.1,1.6-8.1,4.8
		c0,1.4,0.5,2.5,1.4,3.3C577.9,161.9,579.1,162.3,580.6,162.3z"/>
	<path d="M597.5,152.5c0-4.1,0.9-7.3,2.8-9.7c1.9-2.4,4.4-3.6,7.5-3.6c3.1,0,5.5,1,7.2,3.1l0.2-2.6h4.1v35.8h-4.4v-12.3
		c-1.8,1.9-4.2,2.9-7.1,2.9c-3.1,0-5.6-1.2-7.5-3.6c-1.9-2.4-2.8-5.7-2.8-9.7V152.5z M601.9,153c0,3,0.6,5.3,1.9,7
		c1.3,1.7,2.9,2.5,5.1,2.5c2.6,0,4.6-1.2,6-3.5v-12.7c-1.4-2.3-3.4-3.4-6-3.4c-2.1,0-3.8,0.8-5.1,2.5
		C602.6,147.2,601.9,149.7,601.9,153z"/>
	<path d="M642.4,163.1c-1.7,2-4.3,3-7.6,3c-2.8,0-4.9-0.8-6.3-2.4c-1.4-1.6-2.2-4-2.2-7.1v-16.8h4.4v16.7c0,3.9,1.6,5.9,4.8,5.9
		c3.4,0,5.6-1.3,6.7-3.8v-18.8h4.4v25.9h-4.2L642.4,163.1z"/>
	<path d="M658.3,128.9h5.4l-6.4,7l-3.6,0L658.3,128.9z M658.3,165.7h-4.5v-25.9h4.5V165.7z"/>
</g>
<path d="M148.8,122.7h-6c-1.1-5.9-3.5-11.6-7.1-16.5l4.1-4.2c0.4-0.4,0.6-0.9,0.6-1.5c0-0.6-0.2-1.1-0.6-1.5l-7.2-7.2
	c-0.8-0.8-2.2-0.8-3,0l-4.3,4.3c-4.9-3.3-10.4-5.6-16.2-6.6v-6.1c0-1.2-1-2.2-2.2-2.2H96.7c-1.2,0-2.2,1-2.2,2.2v6.1
	c-5.8,1-11.4,3.3-16.3,6.7L74.1,92c-0.8-0.9-2.2-0.9-3,0l-7.2,7.2c-0.4,0.4-0.6,1-0.6,1.5c0,0.6,0.2,1.1,0.6,1.5l4.1,4.1
	c-3.5,4.9-5.9,10.5-7,16.4h-5.4c-1.2,0-2.2,1-2.2,2.2v10.2c0,1.2,1,2.2,2.2,2.2h5.3c1,5.9,3.3,11.6,6.7,16.6l-3.8,3.8
	c-0.8,0.8-0.8,2.2,0,3.1l7.2,7.2c0.4,0.4,1,0.6,1.5,0.6c0.6,0,1.1-0.2,1.5-0.6l3.7-3.7c5,3.6,10.8,6.1,16.9,7.1v5.2
	c0,1.2,1,2.2,2.2,2.2H107c1.2,0,2.2-1,2.2-2.2v-5.2c6-1.1,11.8-3.5,16.8-7.1l3.8,3.8c0.8,0.8,2.2,0.8,3,0l7.2-7.2
	c0.8-0.8,0.8-2.2,0-3.1l-3.9-3.9c3.5-5,5.8-10.8,6.8-16.8h5.8c1.2,0,2.2-1,2.2-2.2v-10.2C150.9,123.7,150,122.7,148.8,122.7z
	 M102.1,152.7c-12.6,0-22.7-10.2-22.7-22.7c0-12.6,10.2-22.7,22.7-22.7c12.6,0,22.7,10.2,22.7,22.7
	C124.9,142.5,114.7,152.7,102.1,152.7z M110.8,130c0,4.8-3.9,8.6-8.6,8.6c-4.8,0-8.6-3.9-8.6-8.6c0-4.8,3.9-8.6,8.6-8.6
	C106.9,121.3,110.8,125.2,110.8,130z M181.7,81.6l-2.9-1.2c0.8-3.4,0.8-6.9,0.1-10.3l3.1-1.2c0.6-0.3,0.9-1,0.7-1.6l-2.2-5.4
	c-0.3-0.6-1-0.9-1.6-0.7l-3.2,1.3c-1.9-2.9-4.3-5.4-7.2-7.3l1.3-3.1c0.1-0.3,0.1-0.6,0-0.9c-0.1-0.3-0.4-0.6-0.7-0.7l-5.4-2.3
	c-0.6-0.3-1.4,0-1.6,0.6l-1.4,3.2c-3.3-0.7-6.7-0.8-10-0.1l-1.3-3.2c-0.3-0.6-1-0.9-1.6-0.7l-5.4,2.2c-0.6,0.3-0.9,1-0.7,1.6
	l1.3,3.2c-2.9,1.8-5.3,4.2-7.2,7l-3.1-1.3c-0.6-0.3-1.3,0-1.6,0.6l-2.3,5.4c-0.1,0.3-0.1,0.6,0,0.9c0.1,0.3,0.4,0.5,0.7,0.7l3,1.3
	c-0.8,3.3-0.9,6.8-0.2,10.2l-2.9,1.2c-0.6,0.3-0.9,1-0.7,1.6l2.2,5.4c0.3,0.6,1,0.9,1.6,0.7l2.8-1.1c1.8,2.9,4.2,5.5,7.1,7.4
	l-1.2,2.8c-0.3,0.6,0,1.3,0.6,1.6l5.4,2.3c0.3,0.1,0.6,0.1,0.9,0c0.3-0.1,0.5-0.4,0.7-0.7l1.2-2.7c3.4,0.8,7,0.9,10.5,0.2l1.1,2.7
	c0.3,0.6,1,0.9,1.6,0.7l5.4-2.2c0.6-0.2,0.9-1,0.7-1.6l-1.1-2.7c3-1.8,5.5-4.4,7.5-7.3l2.8,1.2c0.6,0.3,1.4,0,1.6-0.6l2.3-5.4
	C182.6,82.6,182.4,81.9,181.7,81.6z M160.5,86.9c-6.7,2.6-14.2-0.6-16.9-7.3c-2.6-6.7,0.6-14.2,7.3-16.9c6.7-2.7,14.2,0.6,16.9,7.3
	C170.4,76.7,167.2,84.3,160.5,86.9z M160.3,73c1,2.5-0.2,5.4-2.8,6.4c-2.5,1-5.4-0.2-6.4-2.8c-1-2.5,0.2-5.4,2.8-6.4
	C156.4,69.2,159.3,70.5,160.3,73z"/>
<g>
	<path d="M60.4,443.5c-0.4,0-0.7,0-1.1,0c-6.2,0-12.4,0-18.6,0c-1.9,0-2.9-0.8-2.9-2.9c0-29.1,0-58.1,0-87.3c0-1.9,0.8-2.9,2.9-2.9
		c14,0,28,0,42.1,0c1,0,1.8,0.3,2.5,1.1c2.7,2.9,5.6,5.6,8.4,8.5c0.4,0.4,0.8,0.5,1.4,0.5c11.1,0,22.3,0,33.3,0c2.1,0,3,0.8,3,3
		c0,29,0,58,0,87c0,1.9-0.8,2.9-2.9,2.9c-21.7,0-43.6,0-65.3,0c-1.9,0-2.7-0.8-2.7-2.7C60.4,448.4,60.4,446.1,60.4,443.5z
		 M104.1,438.8c0-20.3,0-40.7,0-61.2c-0.4,0-0.7,0-1,0c-5.9,0-11.8,0-17.7,0c-2.2,0-3-0.8-3-3c0-6,0-12.1,0-18.1c0-0.3,0-0.7,0-1
		c-13.3,0-26.4,0-39.6,0c0,27.8,0,55.5,0,83.3C63.1,438.8,83.6,438.8,104.1,438.8z M99,365.5c0.3,0.3,0.4,0.5,0.7,0.7
		c2.7,2.7,5.4,5.5,8.1,8.2c0.8,0.8,1.1,1.6,1.1,2.6c0,21.2,0,42.3,0,63.5c0,2.2-0.8,2.9-3,2.9c-13.3,0-26.5,0-39.9,0
		c-0.3,0-0.5,0-1,0c0,1.8,0,3.6,0,5.4c20.5,0,41,0,61.4,0c0-27.8,0-55.5,0-83.3C117.4,365.5,108.2,365.5,99,365.5z M87,360.2
		c0,4.3,0,8.4,0,12.5c4.1,0,8.1,0,12.4,0C95.3,368.5,91.2,364.4,87,360.2z"/>
	<path d="M73.4,413.4c-8.2,0-16.4,0-24.6,0c-1.5,0-1.9-0.4-1.9-2.1c0-0.5,0-1.2,0-1.8c0-1.1,0.5-1.5,1.5-1.6c0.1,0,0.4,0,0.5,0
		c16.2,0,32.6,0,48.8,0c1.8,0,2.1,0.3,2.1,2.2c0,0.5,0,1.2,0,1.8c0,0.8-0.5,1.4-1.5,1.5c-0.3,0-0.4,0-0.7,0
		C89.5,413.4,81.5,413.4,73.4,413.4z"/>
	<path d="M73.3,426.8c-8.1,0-16.4,0-24.5,0c-1.5,0-1.9-0.4-1.9-1.9c0-0.7,0-1.4,0-1.9c0-0.8,0.5-1.4,1.5-1.4c0.1,0,0.4,0,0.5,0
		c16.4,0,32.6,0,48.9,0c1.6,0,2.1,0.4,2.1,1.9c0,0.5,0,1.2,0,1.8c0,1.1-0.5,1.6-1.6,1.6c-3.6,0-7,0-10.6,0
		C82.9,426.8,78.1,426.8,73.3,426.8z"/>
	<path d="M73.4,394.5c8.1,0,16.4,0,24.5,0c1.5,0,1.9,0.4,1.9,1.9c0,0.7,0,1.4,0,2.1c0,0.8-0.5,1.4-1.4,1.4c-0.3,0-0.4,0-0.7,0
		c-16.4,0-32.6,0-48.9,0c-1.6,0-2.1-0.4-2.1-2.1c0-0.5,0-1.1,0-1.6c0-1.2,0.5-1.8,1.8-1.8c3.7,0,7.6,0,11.3,0
		C64.4,394.5,68.9,394.5,73.4,394.5z"/>
	<path d="M73.4,380.9c8.1,0,16.2,0,24.3,0c1.9,0,2.2,0.3,2.2,2.2c0,0.5,0,1.2,0,1.8c0,0.8-0.5,1.4-1.4,1.5c-0.3,0-0.4,0-0.7,0
		c-16.2,0-32.6,0-48.8,0c-1.6,0-2.1-0.4-2.1-2.1c0-0.5,0-1,0-1.5c0-1.4,0.4-1.8,1.8-1.8c2.5,0,4.9,0,7.4,0
		C61.9,380.9,67.7,380.9,73.4,380.9z"/>
	<path d="M69.4,373.1c-2.9,0-5.9,0-8.8,0c-1.2,0-1.8-0.4-1.8-1.8c0-0.7,0-1.4,0-2.2c0-1,0.5-1.5,1.5-1.5c6,0,12.1,0,18.3,0
		c1,0,1.5,0.5,1.5,1.5c0,0.7,0,1.5,0,2.2c0,1.2-0.5,1.6-1.6,1.6C75.4,373.1,72.3,373.1,69.4,373.1z"/>
</g>
<g>
	<g class="st1">
		<path d="M157,380.5c0,2.1-0.2,3.8-0.7,5.1c-0.5,1.3-1.4,2.6-2.6,3.7c-1.3,1.2-2.1,2.1-2.6,2.6c-0.5,0.6-0.8,1.2-1,1.7
			c-0.2,0.6-0.3,1.2-0.3,1.9c0,2.5,1.2,3.8,3.7,3.8c1.2,0,2.2-0.4,2.9-1.1c0.7-0.7,1.1-1.7,1.1-3h6.9c0,3.1-1,5.5-2.9,7.2
			c-1.9,1.7-4.6,2.6-7.9,2.6c-3.4,0-6-0.8-7.9-2.4c-1.9-1.6-2.8-3.9-2.8-6.9c0-2.5,1.2-5,3.7-7.5l2.3-2.2c0.8-0.7,1.4-1.5,1.7-2.3
			c0.3-0.8,0.5-1.9,0.5-3.3H157z M157.9,373.2c0,1.1-0.4,1.9-1.1,2.6c-0.7,0.7-1.7,1-2.8,1c-1.1,0-2-0.3-2.8-1
			c-0.7-0.7-1.1-1.6-1.1-2.6c0-1.1,0.4-1.9,1.1-2.6s1.6-1,2.8-1c1.2,0,2.1,0.3,2.8,1C157.5,371.3,157.9,372.2,157.9,373.2z"/>
		<path d="M196.9,395.9h-7.2l-14-22.9v22.9h-7.2v-34.8h7.2l14,23v-23h7.2V395.9z"/>
		<path d="M214.6,396.4c-3.8,0-6.9-1.2-9.3-3.5s-3.6-5.4-3.6-9.3V383c0-2.6,0.5-4.9,1.5-7s2.4-3.6,4.3-4.7c1.8-1.1,3.9-1.7,6.3-1.7
			c3.5,0,6.3,1.1,8.4,3.3c2,2.2,3.1,5.4,3.1,9.5v2.8h-16.5c0.2,1.7,0.9,3,2,4.1c1.1,1,2.5,1.5,4.3,1.5c2.7,0,4.7-1,6.2-2.9l3.4,3.8
			c-1,1.5-2.4,2.6-4.2,3.4S216.8,396.4,214.6,396.4z M213.9,375.2c-1.4,0-2.5,0.5-3.3,1.4c-0.9,0.9-1.4,2.3-1.6,4h9.6V380
			c0-1.5-0.4-2.7-1.2-3.6C216.5,375.6,215.3,375.2,213.9,375.2z"/>
		<path d="M240,390.8c1.3,0,2.3-0.4,3.1-1.1c0.8-0.7,1.2-1.6,1.2-2.8h6.5c0,1.8-0.5,3.4-1.4,4.8c-0.9,1.5-2.2,2.6-3.9,3.4
			c-1.6,0.8-3.4,1.2-5.4,1.2c-3.7,0-6.6-1.2-8.8-3.5c-2.1-2.4-3.2-5.6-3.2-9.8v-0.5c0-4,1.1-7.2,3.2-9.5c2.1-2.4,5-3.6,8.7-3.6
			c3.2,0,5.8,0.9,7.8,2.8c2,1.8,2.9,4.3,3,7.4h-6.5c0-1.3-0.4-2.4-1.2-3.3s-1.9-1.3-3.2-1.3c-1.6,0-2.8,0.6-3.6,1.8
			s-1.2,3.1-1.2,5.7v0.7c0,2.7,0.4,4.6,1.2,5.8C237.1,390.3,238.3,390.8,240,390.8z"/>
		<path d="M266.7,396.4c-3.8,0-6.9-1.2-9.3-3.5c-2.4-2.3-3.6-5.4-3.6-9.3V383c0-2.6,0.5-4.9,1.5-7s2.4-3.6,4.3-4.7
			c1.8-1.1,3.9-1.7,6.3-1.7c3.5,0,6.3,1.1,8.4,3.3c2,2.2,3.1,5.4,3.1,9.5v2.8h-16.5c0.2,1.7,0.9,3,2,4.1c1.1,1,2.5,1.5,4.3,1.5
			c2.7,0,4.7-1,6.2-2.9l3.4,3.8c-1,1.5-2.4,2.6-4.2,3.4S268.8,396.4,266.7,396.4z M265.9,375.2c-1.4,0-2.5,0.5-3.3,1.4
			s-1.4,2.3-1.6,4h9.6V380c0-1.5-0.4-2.7-1.2-3.6C268.5,375.6,267.4,375.2,265.9,375.2z"/>
		<path d="M295.3,388.8c0-0.8-0.4-1.5-1.3-2c-0.8-0.5-2.2-0.9-4-1.3c-6.2-1.3-9.2-3.9-9.2-7.8c0-2.3,1-4.2,2.9-5.8
			c1.9-1.5,4.4-2.3,7.5-2.3c3.3,0,5.9,0.8,7.9,2.3c2,1.5,3,3.6,3,6H295c0-1-0.3-1.8-1-2.5c-0.6-0.6-1.6-1-3-1
			c-1.2,0-2.1,0.3-2.7,0.8c-0.6,0.5-1,1.2-1,2c0,0.8,0.4,1.4,1.1,1.9c0.7,0.5,2,0.9,3.7,1.2s3.2,0.7,4.4,1.2c3.7,1.3,5.5,3.7,5.5,7
			c0,2.4-1,4.3-3,5.7c-2,1.5-4.6,2.2-7.8,2.2c-2.2,0-4.1-0.4-5.8-1.2s-3-1.8-4-3.2c-1-1.3-1.4-2.8-1.4-4.4h6.6
			c0.1,1.2,0.5,2.2,1.4,2.8c0.8,0.7,2,1,3.4,1c1.3,0,2.3-0.3,3-0.8C294.9,390.3,295.3,389.6,295.3,388.8z"/>
		<path d="M306.4,363.4c0-1,0.3-1.9,1-2.6c0.7-0.7,1.6-1,2.8-1c1.2,0,2.1,0.3,2.8,1s1.1,1.5,1.1,2.6c0,1.1-0.4,1.9-1.1,2.6
			s-1.6,1-2.8,1s-2.1-0.3-2.8-1C306.8,365.3,306.4,364.4,306.4,363.4z M313.7,395.9h-6.9v-25.9h6.9V395.9z"/>
		<path d="M327.7,363.7v6.4h4.4v5.1h-4.4V388c0,1,0.2,1.6,0.5,2.1s1.1,0.6,2.1,0.6c0.8,0,1.4-0.1,2-0.2v5.2
			c-1.4,0.4-2.8,0.6-4.2,0.6c-4.8,0-7.3-2.4-7.4-7.3v-13.9H317v-5.1h3.8v-6.4H327.7z"/>
		<path d="M351,395.9c-0.3-0.6-0.5-1.4-0.7-2.3c-1.7,1.9-3.9,2.8-6.5,2.8c-2.5,0-4.6-0.7-6.3-2.2c-1.7-1.5-2.5-3.3-2.5-5.6
			c0-2.7,1-4.8,3.1-6.3c2-1.5,5-2.2,8.8-2.2h3.2v-1.5c0-1.2-0.3-2.2-0.9-2.9c-0.6-0.7-1.6-1.1-2.9-1.1c-1.2,0-2.1,0.3-2.7,0.8
			c-0.7,0.6-1,1.3-1,2.3h-6.9c0-1.5,0.5-2.9,1.4-4.2c0.9-1.3,2.2-2.3,3.9-3s3.6-1.1,5.7-1.1c3.2,0,5.7,0.8,7.6,2.4
			c1.9,1.6,2.8,3.9,2.8,6.8V390c0,2.5,0.4,4.3,1,5.6v0.4H351z M345.3,391.1c1,0,2-0.2,2.8-0.7c0.9-0.5,1.5-1.1,1.9-1.8v-4.5h-2.6
			c-3.5,0-5.3,1.2-5.5,3.6l0,0.4c0,0.9,0.3,1.6,0.9,2.1C343.4,390.9,344.2,391.1,345.3,391.1z"/>
		<path d="M376.3,388.8c0-0.8-0.4-1.5-1.3-2c-0.8-0.5-2.2-0.9-4-1.3c-6.2-1.3-9.2-3.9-9.2-7.8c0-2.3,1-4.2,2.9-5.8
			c1.9-1.5,4.4-2.3,7.5-2.3c3.3,0,5.9,0.8,7.9,2.3c2,1.5,3,3.6,3,6H376c0-1-0.3-1.8-1-2.5c-0.6-0.6-1.6-1-3-1
			c-1.2,0-2.1,0.3-2.7,0.8c-0.6,0.5-1,1.2-1,2c0,0.8,0.4,1.4,1.1,1.9c0.7,0.5,2,0.9,3.7,1.2s3.2,0.7,4.4,1.2c3.7,1.3,5.5,3.7,5.5,7
			c0,2.4-1,4.3-3,5.7c-2,1.5-4.6,2.2-7.8,2.2c-2.2,0-4.1-0.4-5.8-1.2s-3-1.8-4-3.2c-1-1.3-1.4-2.8-1.4-4.4h6.6
			c0.1,1.2,0.5,2.2,1.4,2.8c0.8,0.7,2,1,3.4,1c1.3,0,2.3-0.3,3-0.8C375.9,390.3,376.3,389.6,376.3,388.8z"/>
		<path d="M414.7,395.9c-0.3-0.6-0.6-1.4-0.7-2.3c-1.7,1.9-3.9,2.8-6.5,2.8c-2.5,0-4.6-0.7-6.3-2.2s-2.5-3.3-2.5-5.6
			c0-2.7,1-4.8,3.1-6.3c2-1.5,5-2.2,8.8-2.2h3.2v-1.5c0-1.2-0.3-2.2-0.9-2.9c-0.6-0.7-1.6-1.1-2.9-1.1c-1.2,0-2.1,0.3-2.7,0.8
			c-0.7,0.6-1,1.3-1,2.3h-6.9c0-1.5,0.5-2.9,1.4-4.2c0.9-1.3,2.2-2.3,3.9-3c1.7-0.7,3.6-1.1,5.7-1.1c3.2,0,5.7,0.8,7.6,2.4
			c1.9,1.6,2.8,3.9,2.8,6.8V390c0,2.5,0.4,4.3,1,5.6v0.4H414.7z M408.9,391.1c1,0,2-0.2,2.8-0.7c0.9-0.5,1.5-1.1,1.9-1.8v-4.5h-2.6
			c-3.5,0-5.3,1.2-5.5,3.6l0,0.4c0,0.9,0.3,1.6,0.9,2.1S407.9,391.1,408.9,391.1z"/>
		<path d="M435.2,386.2l4.8-16.1h7.4L437,400l-0.6,1.4c-1.5,3.4-4.1,5.1-7.7,5.1c-1,0-2-0.2-3.1-0.5v-5.2l1.1,0
			c1.3,0,2.3-0.2,2.9-0.6c0.6-0.4,1.2-1.1,1.5-2l0.8-2.1l-9.1-26h7.4L435.2,386.2z"/>
		<path d="M465.7,393.3c-1.7,2.1-4.1,3.1-7.1,3.1c-2.8,0-4.9-0.8-6.4-2.4c-1.5-1.6-2.2-3.9-2.2-7v-17h6.9v16.7c0,2.7,1.2,4,3.7,4
			c2.3,0,4-0.8,4.8-2.4v-18.3h6.9v25.9h-6.5L465.7,393.3z"/>
		<path d="M476.5,382.8c0-4,0.9-7.3,2.7-9.6s4.3-3.6,7.4-3.6c2.5,0,4.6,0.9,6.2,2.8v-13.2h6.9v36.8h-6.2l-0.3-2.8
			c-1.7,2.2-3.9,3.2-6.7,3.2c-3,0-5.5-1.2-7.3-3.6C477.4,390.4,476.5,387.1,476.5,382.8z M483.4,383.3c0,2.4,0.4,4.3,1.3,5.6
			s2.1,1.9,3.7,1.9c2.1,0,3.6-0.9,4.5-2.7v-10.2c-0.9-1.8-2.4-2.7-4.5-2.7C485.1,375.2,483.4,377.9,483.4,383.3z"/>
		<path d="M520.2,395.9c-0.3-0.6-0.5-1.4-0.7-2.3c-1.7,1.9-3.9,2.8-6.5,2.8c-2.5,0-4.6-0.7-6.3-2.2c-1.7-1.5-2.5-3.3-2.5-5.6
			c0-2.7,1-4.8,3.1-6.3c2-1.5,5-2.2,8.8-2.2h3.2v-1.5c0-1.2-0.3-2.2-0.9-2.9c-0.6-0.7-1.6-1.1-2.9-1.1c-1.2,0-2.1,0.3-2.7,0.8
			c-0.7,0.6-1,1.3-1,2.3h-6.9c0-1.5,0.5-2.9,1.4-4.2c0.9-1.3,2.2-2.3,3.9-3s3.6-1.1,5.7-1.1c3.2,0,5.7,0.8,7.6,2.4
			c1.9,1.6,2.8,3.9,2.8,6.8V390c0,2.5,0.4,4.3,1,5.6v0.4H520.2z M514.5,391.1c1,0,2-0.2,2.8-0.7c0.9-0.5,1.5-1.1,1.9-1.8v-4.5h-2.6
			c-3.5,0-5.3,1.2-5.5,3.6l0,0.4c0,0.9,0.3,1.6,0.9,2.1C512.6,390.9,513.4,391.1,514.5,391.1z"/>
		<path d="M558.7,395.9c-0.3-0.6-0.5-1.4-0.7-2.3c-1.7,1.9-3.9,2.8-6.5,2.8c-2.5,0-4.6-0.7-6.3-2.2c-1.7-1.5-2.5-3.3-2.5-5.6
			c0-2.7,1-4.8,3.1-6.3c2-1.5,5-2.2,8.8-2.2h3.2v-1.5c0-1.2-0.3-2.2-0.9-2.9c-0.6-0.7-1.6-1.1-2.9-1.1c-1.2,0-2.1,0.3-2.7,0.8
			c-0.7,0.6-1,1.3-1,2.3h-6.9c0-1.5,0.5-2.9,1.4-4.2c0.9-1.3,2.2-2.3,3.9-3s3.6-1.1,5.7-1.1c3.2,0,5.7,0.8,7.6,2.4
			c1.9,1.6,2.8,3.9,2.8,6.8V390c0,2.5,0.4,4.3,1,5.6v0.4H558.7z M553,391.1c1,0,2-0.2,2.8-0.7c0.9-0.5,1.5-1.1,1.9-1.8v-4.5h-2.6
			c-3.5,0-5.3,1.2-5.5,3.6l0,0.4c0,0.9,0.3,1.6,0.9,2.1C551.1,390.9,551.9,391.1,553,391.1z"/>
		<path d="M568.9,382.8c0-4,0.9-7.3,2.7-9.6s4.3-3.6,7.4-3.6c2.5,0,4.6,0.9,6.2,2.8v-13.2h6.9v36.8h-6.2l-0.3-2.8
			c-1.7,2.2-3.9,3.2-6.7,3.2c-3,0-5.5-1.2-7.3-3.6C569.8,390.4,568.9,387.1,568.9,382.8z M575.8,383.3c0,2.4,0.4,4.3,1.3,5.6
			s2.1,1.9,3.7,1.9c2.1,0,3.6-0.9,4.5-2.7v-10.2c-0.9-1.8-2.4-2.7-4.5-2.7C577.4,375.2,575.8,377.9,575.8,383.3z"/>
		<path d="M604,370.1l0.2,2.9c1.8-2.3,4.3-3.4,7.4-3.4c3.3,0,5.6,1.3,6.9,3.9c1.8-2.6,4.4-3.9,7.8-3.9c2.8,0,4.9,0.8,6.3,2.5
			c1.4,1.6,2.1,4.1,2.1,7.4v16.5h-6.9v-16.5c0-1.5-0.3-2.5-0.9-3.2s-1.6-1-3-1c-2.1,0-3.5,1-4.3,3l0,17.8h-6.9v-16.5
			c0-1.5-0.3-2.6-0.9-3.3s-1.6-1-3-1c-2,0-3.4,0.8-4.3,2.4v18.3h-6.9v-25.9H604z"/>
		<path d="M639.9,363.4c0-1,0.3-1.9,1-2.6c0.7-0.7,1.6-1,2.8-1c1.2,0,2.1,0.3,2.8,1s1.1,1.5,1.1,2.6c0,1.1-0.4,1.9-1.1,2.6
			s-1.6,1-2.8,1s-2.1-0.3-2.8-1C640.3,365.3,639.9,364.4,639.9,363.4z M647.3,395.9h-6.9v-25.9h6.9V395.9z"/>
		<path d="M659.3,370.1l0.2,3c1.9-2.3,4.3-3.5,7.4-3.5c2.7,0,4.8,0.8,6.1,2.4c1.3,1.6,2,4,2.1,7.2v16.7h-6.9v-16.6
			c0-1.5-0.3-2.5-1-3.2c-0.6-0.7-1.7-1-3.2-1c-1.9,0-3.4,0.8-4.4,2.5v18.3h-6.9v-25.9H659.3z"/>
		<path d="M680.4,363.4c0-1,0.3-1.9,1-2.6c0.7-0.7,1.6-1,2.8-1c1.2,0,2.1,0.3,2.8,1s1.1,1.5,1.1,2.6c0,1.1-0.4,1.9-1.1,2.6
			s-1.6,1-2.8,1s-2.1-0.3-2.8-1C680.7,365.3,680.4,364.4,680.4,363.4z M687.7,395.9h-6.9v-25.9h6.9V395.9z"/>
		<path d="M707.4,388.8c0-0.8-0.4-1.5-1.3-2c-0.8-0.5-2.2-0.9-4-1.3c-6.2-1.3-9.2-3.9-9.2-7.8c0-2.3,1-4.2,2.9-5.8
			c1.9-1.5,4.4-2.3,7.5-2.3c3.3,0,5.9,0.8,7.9,2.3c2,1.5,3,3.6,3,6h-6.9c0-1-0.3-1.8-1-2.5c-0.6-0.6-1.6-1-3-1
			c-1.2,0-2.1,0.3-2.7,0.8c-0.6,0.5-1,1.2-1,2c0,0.8,0.4,1.4,1.1,1.9c0.7,0.5,2,0.9,3.7,1.2s3.2,0.7,4.4,1.2c3.7,1.3,5.5,3.7,5.5,7
			c0,2.4-1,4.3-3,5.7c-2,1.5-4.6,2.2-7.8,2.2c-2.2,0-4.1-0.4-5.8-1.2s-3-1.8-4-3.2c-1-1.3-1.4-2.8-1.4-4.4h6.6
			c0.1,1.2,0.5,2.2,1.4,2.8c0.8,0.7,2,1,3.4,1c1.3,0,2.3-0.3,3-0.8C707.1,390.3,707.4,389.6,707.4,388.8z"/>
		<path d="M726.9,363.7v6.4h4.4v5.1h-4.4V388c0,1,0.2,1.6,0.6,2.1c0.4,0.4,1.1,0.6,2.1,0.6c0.8,0,1.4-0.1,2-0.2v5.2
			c-1.4,0.4-2.8,0.6-4.2,0.6c-4.8,0-7.3-2.4-7.4-7.3v-13.9h-3.8v-5.1h3.8v-6.4H726.9z"/>
		<path d="M749.7,376.5c-0.9-0.1-1.8-0.2-2.5-0.2c-2.6,0-4.3,0.9-5.1,2.7v16.9h-6.9v-25.9h6.5l0.2,3.1c1.4-2.4,3.3-3.6,5.8-3.6
			c0.8,0,1.5,0.1,2.2,0.3L749.7,376.5z"/>
		<path d="M767.3,395.9c-0.3-0.6-0.5-1.4-0.7-2.3c-1.7,1.9-3.9,2.8-6.5,2.8c-2.5,0-4.6-0.7-6.3-2.2c-1.7-1.5-2.5-3.3-2.5-5.6
			c0-2.7,1-4.8,3.1-6.3c2-1.5,5-2.2,8.8-2.2h3.2v-1.5c0-1.2-0.3-2.2-0.9-2.9c-0.6-0.7-1.6-1.1-2.9-1.1c-1.2,0-2.1,0.3-2.7,0.8
			c-0.7,0.6-1,1.3-1,2.3h-6.9c0-1.5,0.5-2.9,1.4-4.2c0.9-1.3,2.2-2.3,3.9-3s3.6-1.1,5.7-1.1c3.2,0,5.7,0.8,7.6,2.4
			c1.9,1.6,2.8,3.9,2.8,6.8V390c0,2.5,0.4,4.3,1,5.6v0.4H767.3z M761.6,391.1c1,0,2-0.2,2.8-0.7c0.9-0.5,1.5-1.1,1.9-1.8v-4.5h-2.6
			c-3.5,0-5.3,1.2-5.5,3.6l0,0.4c0,0.9,0.3,1.6,0.9,2.1C759.7,390.9,760.5,391.1,761.6,391.1z"/>
		<path d="M786.8,363.7v6.4h4.4v5.1h-4.4V388c0,1,0.2,1.6,0.5,2.1s1.1,0.6,2.1,0.6c0.8,0,1.4-0.1,2-0.2v5.2
			c-1.4,0.4-2.8,0.6-4.2,0.6c-4.8,0-7.3-2.4-7.4-7.3v-13.9h-3.8v-5.1h3.8v-6.4H786.8z"/>
		<path d="M795.1,363.4c0-1,0.3-1.9,1-2.6c0.7-0.7,1.6-1,2.8-1c1.2,0,2.1,0.3,2.8,1c0.7,0.7,1.1,1.5,1.1,2.6c0,1.1-0.4,1.9-1.1,2.6
			c-0.7,0.7-1.6,1-2.8,1c-1.2,0-2.1-0.3-2.8-1S795.1,364.4,795.1,363.4z M802.4,395.9h-6.9v-25.9h6.9V395.9z"/>
		<path d="M817.8,387.5l4.8-17.4h7.2l-8.7,25.9h-6.6l-8.7-25.9h7.2L817.8,387.5z"/>
		<path d="M847.5,395.9c-0.3-0.6-0.6-1.4-0.7-2.3c-1.7,1.9-3.9,2.8-6.5,2.8c-2.5,0-4.6-0.7-6.3-2.2s-2.5-3.3-2.5-5.6
			c0-2.7,1-4.8,3.1-6.3c2-1.5,5-2.2,8.8-2.2h3.2v-1.5c0-1.2-0.3-2.2-0.9-2.9c-0.6-0.7-1.6-1.1-2.9-1.1c-1.2,0-2.1,0.3-2.7,0.8
			c-0.7,0.6-1,1.3-1,2.3h-6.9c0-1.5,0.5-2.9,1.4-4.2c0.9-1.3,2.2-2.3,3.9-3c1.7-0.7,3.6-1.1,5.7-1.1c3.2,0,5.7,0.8,7.6,2.4
			c1.9,1.6,2.8,3.9,2.8,6.8V390c0,2.5,0.4,4.3,1,5.6v0.4H847.5z M841.8,391.1c1,0,2-0.2,2.8-0.7c0.9-0.5,1.5-1.1,1.9-1.8v-4.5H844
			c-3.5,0-5.3,1.2-5.5,3.6l0,0.4c0,0.9,0.3,1.6,0.9,2.1S840.8,391.1,841.8,391.1z"/>
		<path d="M864.4,385.3c0-2.2,0.3-4,0.8-5.3s1.5-2.6,3-3.9c1.4-1.3,2.4-2.3,2.9-3.1s0.7-1.7,0.7-2.6c0-2.7-1.2-4-3.7-4
			c-1.2,0-2.1,0.4-2.8,1.1c-0.7,0.7-1.1,1.7-1.1,3h-6.9c0-3,1-5.4,3-7.2c1.9-1.7,4.6-2.6,7.9-2.6c3.4,0,6,0.8,7.9,2.5
			s2.8,3.9,2.8,6.9c0,1.4-0.3,2.6-0.9,3.8c-0.6,1.2-1.7,2.5-3.2,4l-1.9,1.8c-1.2,1.2-1.9,2.5-2.1,4.1l-0.1,1.5H864.4z M863.7,392.6
			c0-1.1,0.4-1.9,1.1-2.6c0.7-0.7,1.7-1,2.8-1c1.1,0,2.1,0.3,2.8,1s1.1,1.6,1.1,2.6c0,1-0.4,1.9-1.1,2.6c-0.7,0.7-1.6,1-2.8,1
			c-1.2,0-2.1-0.3-2.8-1S863.7,393.7,863.7,392.6z"/>
	</g>
	<g>
		<g>
			<path d="M355.3,437.7h-15.1v12.3h17.5v3.8h-22.1V419h21.9v3.8h-17.3V434h15.1V437.7z"/>
			<path d="M377.9,446.9c0-1.2-0.5-2.1-1.4-2.8c-0.9-0.7-2.5-1.2-4.7-1.7s-4-1.1-5.3-1.7c-1.3-0.7-2.3-1.5-2.9-2.4
				c-0.6-0.9-0.9-2-0.9-3.3c0-2.1,0.9-3.9,2.7-5.4c1.8-1.5,4.1-2.2,6.9-2.2c2.9,0,5.3,0.8,7.1,2.3c1.8,1.5,2.7,3.5,2.7,5.8h-4.5
				c0-1.2-0.5-2.3-1.5-3.1c-1-0.9-2.3-1.3-3.9-1.3c-1.6,0-2.9,0.4-3.8,1.1s-1.4,1.6-1.4,2.8c0,1.1,0.4,1.9,1.3,2.4
				c0.8,0.5,2.4,1.1,4.6,1.6c2.2,0.5,4,1.1,5.4,1.8c1.4,0.7,2.4,1.5,3.1,2.5c0.7,1,1,2.1,1,3.5c0,2.3-0.9,4.2-2.8,5.6
				c-1.9,1.4-4.3,2.1-7.2,2.1c-2.1,0-3.9-0.4-5.5-1.1c-1.6-0.7-2.8-1.8-3.7-3.1c-0.9-1.3-1.4-2.7-1.4-4.3h4.4
				c0.1,1.5,0.7,2.7,1.8,3.5c1.1,0.9,2.6,1.3,4.4,1.3c1.7,0,3-0.3,4-1C377.3,449,377.9,448.1,377.9,446.9z"/>
			<path d="M398.4,450.7c1.6,0,3-0.5,4.1-1.4s1.8-2.2,2-3.6h4.2c-0.1,1.5-0.6,2.9-1.5,4.2c-0.9,1.3-2.2,2.4-3.8,3.2s-3.2,1.2-5,1.2
				c-3.5,0-6.3-1.2-8.4-3.5c-2.1-2.4-3.1-5.6-3.1-9.7v-0.7c0-2.5,0.5-4.8,1.4-6.7c0.9-2,2.3-3.5,4-4.6s3.8-1.6,6.1-1.6
				c2.9,0,5.3,0.9,7.2,2.6c1.9,1.7,2.9,4,3.1,6.8h-4.2c-0.1-1.7-0.8-3.1-1.9-4.1c-1.1-1.1-2.5-1.6-4.2-1.6c-2.2,0-4,0.8-5.2,2.4
				s-1.9,4-1.9,7v0.8c0,3,0.6,5.3,1.8,6.9C394.4,449.9,396.2,450.7,398.4,450.7z"/>
			<path d="M426.2,431.9c-0.7-0.1-1.4-0.2-2.2-0.2c-2.9,0-4.9,1.2-5.9,3.7v18.4h-4.4v-25.9h4.3l0.1,3c1.5-2.3,3.5-3.5,6.2-3.5
				c0.9,0,1.5,0.1,2,0.3V431.9z"/>
			<path d="M430.3,421.1c0-0.7,0.2-1.3,0.7-1.8c0.4-0.5,1.1-0.7,2-0.7s1.5,0.2,2,0.7c0.4,0.5,0.7,1.1,0.7,1.8c0,0.7-0.2,1.3-0.7,1.8
				s-1.1,0.7-2,0.7s-1.5-0.2-2-0.7C430.5,422.4,430.3,421.8,430.3,421.1z M435.1,453.8h-4.4v-25.9h4.4V453.8z"/>
			<path d="M464.1,441.2c0,4-0.9,7.1-2.7,9.5s-4.3,3.6-7.3,3.6c-3.3,0-5.8-1.2-7.6-3.5l-0.2,3h-4.1v-36.8h4.4v13.7
				c1.8-2.2,4.3-3.3,7.4-3.3c3.1,0,5.6,1.2,7.4,3.6c1.8,2.4,2.7,5.6,2.7,9.8V441.2z M459.7,440.7c0-3-0.6-5.3-1.7-7
				c-1.2-1.6-2.8-2.5-5-2.5c-2.9,0-5,1.4-6.3,4.1v11.2c1.4,2.7,3.5,4.1,6.3,4.1c2.1,0,3.8-0.8,5-2.5S459.7,444,459.7,440.7z"/>
			<path d="M469.7,421.1c0-0.7,0.2-1.3,0.7-1.8c0.4-0.5,1.1-0.7,2-0.7s1.5,0.2,2,0.7c0.4,0.5,0.7,1.1,0.7,1.8c0,0.7-0.2,1.3-0.7,1.8
				s-1.1,0.7-2,0.7s-1.5-0.2-2-0.7C469.9,422.4,469.7,421.8,469.7,421.1z M474.5,453.8H470v-25.9h4.4V453.8z"/>
			<path d="M485.7,427.9l0.1,3.3c2-2.5,4.6-3.7,7.8-3.7c5.5,0,8.2,3.1,8.3,9.3v17.1h-4.4v-17.1c0-1.9-0.4-3.2-1.3-4.1
				c-0.8-0.9-2.1-1.3-3.9-1.3c-1.4,0-2.7,0.4-3.8,1.1s-1.9,1.8-2.5,3v18.4h-4.4v-25.9H485.7z"/>
			<path d="M507.4,440.6c0-2.5,0.5-4.8,1.5-6.8c1-2,2.4-3.6,4.2-4.7c1.8-1.1,3.8-1.7,6.1-1.7c3.5,0,6.4,1.2,8.6,3.7
				c2.2,2.4,3.3,5.7,3.3,9.7v0.3c0,2.5-0.5,4.8-1.4,6.8c-1,2-2.3,3.6-4.1,4.7c-1.8,1.1-3.9,1.7-6.2,1.7c-3.5,0-6.4-1.2-8.5-3.7
				c-2.2-2.4-3.3-5.7-3.3-9.7V440.6z M511.9,441.2c0,2.9,0.7,5.2,2,6.9s3.1,2.6,5.3,2.6c2.2,0,4-0.9,5.4-2.6c1.3-1.8,2-4.2,2-7.4
				c0-2.8-0.7-5.1-2-6.9c-1.3-1.8-3.1-2.6-5.4-2.6c-2.2,0-3.9,0.9-5.3,2.6C512.5,435.4,511.9,437.9,511.9,441.2z"/>
			<path d="M551.6,446.9c0-1.2-0.5-2.1-1.4-2.8c-0.9-0.7-2.5-1.2-4.7-1.7s-4-1.1-5.3-1.7c-1.3-0.7-2.3-1.5-2.9-2.4
				c-0.6-0.9-0.9-2-0.9-3.3c0-2.1,0.9-3.9,2.7-5.4c1.8-1.5,4.1-2.2,6.9-2.2c2.9,0,5.3,0.8,7.1,2.3c1.8,1.5,2.7,3.5,2.7,5.8h-4.5
				c0-1.2-0.5-2.3-1.5-3.1c-1-0.9-2.3-1.3-3.9-1.3c-1.6,0-2.9,0.4-3.8,1.1s-1.4,1.6-1.4,2.8c0,1.1,0.4,1.9,1.3,2.4
				c0.8,0.5,2.4,1.1,4.6,1.6c2.2,0.5,4,1.1,5.4,1.8c1.4,0.7,2.4,1.5,3.1,2.5c0.7,1,1,2.1,1,3.5c0,2.3-0.9,4.2-2.8,5.6
				c-1.9,1.4-4.3,2.1-7.2,2.1c-2.1,0-3.9-0.4-5.5-1.1c-1.6-0.7-2.8-1.8-3.7-3.1c-0.9-1.3-1.4-2.7-1.4-4.3h4.4
				c0.1,1.5,0.7,2.7,1.8,3.5c1.1,0.9,2.6,1.3,4.4,1.3c1.7,0,3-0.3,4-1C551.1,449,551.6,448.1,551.6,446.9z"/>
			<path d="M589.9,453.8c-0.3-0.5-0.5-1.4-0.6-2.7c-2.1,2.1-4.5,3.2-7.4,3.2c-2.6,0-4.6-0.7-6.3-2.2s-2.5-3.3-2.5-5.5
				c0-2.7,1-4.8,3.1-6.3s4.9-2.2,8.6-2.2h4.3v-2c0-1.5-0.5-2.8-1.4-3.7c-0.9-0.9-2.3-1.4-4.1-1.4c-1.6,0-2.9,0.4-4,1.2
				c-1.1,0.8-1.6,1.8-1.6,2.9h-4.5c0-1.3,0.5-2.5,1.4-3.7c0.9-1.2,2.2-2.2,3.7-2.9c1.6-0.7,3.3-1.1,5.2-1.1c3,0,5.3,0.7,7,2.2
				s2.6,3.5,2.6,6.2v11.9c0,2.4,0.3,4.3,0.9,5.7v0.4H589.9z M582.6,450.4c1.4,0,2.7-0.4,3.9-1.1s2.1-1.7,2.7-2.8v-5.3h-3.5
				c-5.4,0-8.1,1.6-8.1,4.8c0,1.4,0.5,2.5,1.4,3.3S581.1,450.4,582.6,450.4z"/>
			<path d="M599.5,440.7c0-4.1,0.9-7.3,2.8-9.7c1.9-2.4,4.4-3.6,7.5-3.6c3.1,0,5.5,1,7.3,3.1l0.2-2.6h4.1v35.8h-4.4v-12.3
				c-1.8,1.9-4.2,2.9-7.1,2.9c-3.1,0-5.6-1.2-7.5-3.6s-2.8-5.7-2.8-9.7V440.7z M603.9,441.2c0,3,0.6,5.3,1.9,7
				c1.3,1.7,2.9,2.5,5.1,2.5c2.6,0,4.6-1.2,6-3.5v-12.7c-1.4-2.3-3.4-3.4-6-3.4c-2.1,0-3.8,0.8-5.1,2.5
				C604.6,435.3,603.9,437.8,603.9,441.2z"/>
			<path d="M644.4,451.3c-1.7,2-4.3,3-7.6,3c-2.8,0-4.9-0.8-6.3-2.4c-1.4-1.6-2.2-4-2.2-7.1v-16.8h4.4v16.7c0,3.9,1.6,5.9,4.8,5.9
				c3.4,0,5.6-1.3,6.7-3.8v-18.8h4.4v25.9h-4.2L644.4,451.3z"/>
			<path d="M660.3,417.1h5.4l-6.4,7l-3.6,0L660.3,417.1z M660.3,453.8h-4.5v-25.9h4.5V453.8z"/>
		</g>
	</g>
</g>
<g>
	<text transform="matrix(1 0 0 1 1200.6434 577.959)" style="font-family:'Roboto-Bold'; font-size:49px;">¿Necesitas ayuda administrativa?</text>
	<g>
		<text transform="matrix(1 0 0 1 1391.1334 635.8296)" style="font-family:'Roboto-Regular'; font-size:49px;">Escribinos aquí</text>
	</g>
</g>
</svg>
