<?xml version="1.0" encoding="utf-8"?>
<!-- Generator: Adobe Illustrator 25.2.0, SVG Export Plug-In . SVG Version: 6.00 Build 0)  -->
<svg version="1.1" id="Capa_1" xmlns="http://www.w3.org/2000/svg" xmlns:xlink="http://www.w3.org/1999/xlink" x="0px" y="0px"
	 viewBox="0 0 632.6 412.9" style="enable-background:new 0 0 632.6 412.9;" xml:space="preserve">
<style type="text/css">
	.st0{fill:#CF522C;}
	.st1{fill:#FF6536;}
	.st2{clip-path:url(#SVGID_2_);}
	.st3{fill:#75472B;}
	.st4{fill:#FFFFFF;}
	.st5{fill:#FFD08A;}
	.st6{fill:#F5B67F;}
	.st7{fill:#8A1C1C;}
	.st8{fill:#661515;}
	.st9{fill:#EBEBEB;}
	.st10{fill:#408733;}
	.st11{opacity:0.1;enable-background:new    ;}
	.st12{fill:#FF6EAE;}
	.st13{fill:#82502E;}
	.st14{fill:#311326;}
	.st15{fill:none;stroke:#311326;stroke-width:0.8934;stroke-linecap:round;stroke-linejoin:round;stroke-miterlimit:10;}
	.st16{fill:#20120C;}
	.st17{clip-path:url(#SVGID_4_);fill:#FF76C5;}
	.st18{clip-path:url(#SVGID_6_);fill:#FFFFFF;}
	.st19{opacity:0.11;fill:#FFFFFF;enable-background:new    ;}
	.st20{fill:none;stroke:#FFFFFF;stroke-width:1.2607;stroke-linecap:round;stroke-linejoin:round;stroke-miterlimit:10;}
	.st21{fill:none;stroke:#FFFFFF;stroke-width:1.2607;stroke-linecap:round;stroke-linejoin:round;stroke-miterlimit:9.9988;}
	.st22{fill:#BF5180;}
	.st23{fill:#FFB076;}
	.st24{fill:none;stroke:#9B3666;stroke-width:1.7;stroke-linecap:round;stroke-linejoin:round;stroke-miterlimit:10;}
	.st25{fill:#F9FAFC;}
	.st26{fill:#FFA405;}
	.st27{fill:#FF974D;}
	.st28{fill:none;stroke:#EC7600;stroke-width:1.7484;stroke-linecap:round;stroke-linejoin:round;stroke-miterlimit:10;}
	.st29{fill:none;stroke:#FB7928;stroke-width:1.6;stroke-linecap:round;stroke-linejoin:round;stroke-miterlimit:10;}
	.st30{fill:#8A331F;}
	.st31{fill:#7B2616;}
	.st32{fill:#FF8031;}
	.st33{fill:#101010;}
	.st34{fill:none;stroke:#311326;stroke-width:0.9831;stroke-linecap:round;stroke-linejoin:round;stroke-miterlimit:10;}
	.st35{fill:#FF83BB;}
	.st36{fill:#FF6B21;}
	.st37{fill:#FFAC78;}
	.st38{fill:#FFB988;}
	.st39{fill:none;stroke:#311326;stroke-width:0.8729;stroke-linecap:round;stroke-linejoin:round;stroke-miterlimit:10;}
	.st40{fill:none;stroke:#DBDBDB;stroke-width:1.7484;stroke-linecap:round;stroke-linejoin:round;stroke-miterlimit:10;}
	.st41{fill:none;stroke:#FFA46A;stroke-width:1.6;stroke-linecap:round;stroke-linejoin:round;stroke-miterlimit:10;}
	.st42{fill:#9E4C3E;}
	.st43{fill:#AD5E4C;}
	.st44{fill:none;stroke:#311326;stroke-width:1.012;stroke-linecap:round;stroke-linejoin:round;stroke-miterlimit:10;}
	.st45{clip-path:url(#SVGID_8_);fill:#FF76C5;}
	.st46{fill:none;stroke:#FF3D93;stroke-width:1.7;stroke-linecap:round;stroke-linejoin:round;stroke-miterlimit:10;}
	.st47{fill:#DDDDDD;}
	.st48{enable-background:new    ;}
</style>
<path class="st0" d="M298-210.5H154.9c-22.6,0-40.9,18.3-40.9,40.9l0,0c0,22.6,18.3,40.9,40.9,40.9H298c22.6,0,40.9-18.3,40.9-40.9
	l0,0C338.9-192.2,320.6-210.5,298-210.5z"/>
<g>
	<g>
		<ellipse class="st1" cx="156" cy="-169.6" rx="34.2" ry="34.2"/>
		<g>
			<g>
				<g>
					<g>
						<defs>
							<circle id="SVGID_1_" cx="156" cy="-169.6" r="34.2"/>
						</defs>
						<clipPath id="SVGID_2_">
							<use xlink:href="#SVGID_1_"  style="overflow:visible;"/>
						</clipPath>
						<g class="st2">
							<g>
								<g>
									<path class="st3" d="M167.1-169.2c0,0-0.9,2.6-2,3.7c-1.1,1.1-2.1,1.4-2.1,1.4l2-5.4L167.1-169.2z"/>
								</g>
								<g>
									<path class="st3" d="M145.3-169.2c0,0,0.9,2.6,2,3.7c1.1,1.1,2.1,1.4,2.1,1.4l-2-5.4L145.3-169.2z"/>
								</g>
							</g>
							<path class="st4" d="M176.3-144.1c-1.7-9.4-3.1-14.2-13.8-14.6l-6.5,8l-6.5-8c-10.6,0.4-12,5.2-13.8,14.6
								c-0.9,5.1-1.1,12.1-1.1,12.1h21.3h0.2h21.3C177.4-132,177.2-139,176.3-144.1z"/>
							<g>
								<path class="st5" d="M161.4-160.7c0-1.1,0-7.1,0-7.1H156h-5.4c0,0,0,6,0,7.1c0,1.6-0.4,1.9-1.1,2.1c1.2,2,2.9,10.7,6.7,10.8
									c3.8,0,5.2-8.7,6.4-10.8C161.8-158.9,161.4-159.1,161.4-160.7z"/>
							</g>
							<g>
								<g>
									<g>
										<path class="st5" d="M166.3-168.7c1.6,0.3,3-1.9,3-4.2c0-1.3-0.8-2.8-2.2-2.5c-1.7,0.4-1.9,1.9-1.9,1.9v3.6
											C165.2-169.8,165.5-168.9,166.3-168.7z"/>
									</g>
									<g>
										<path class="st6" d="M166-169.2c1.1,0.3,2-1.4,2-3.2c0-1-0.6-2.1-1.4-1.9c-1.1,0.3-1.3,1.5-1.3,1.5v2.7
											C165.2-170.1,165.4-169.4,166-169.2z"/>
									</g>
								</g>
								<g>
									<g>
										<path class="st5" d="M146.2-168.7c-1.6,0.3-3-1.9-3-4.2c0-1.3,0.8-2.8,2.2-2.5c1.7,0.4,1.9,1.9,1.9,1.9v3.6
											C147.3-169.8,147-168.9,146.2-168.7z"/>
									</g>
									<g>
										<path class="st6" d="M146.6-169.2c-1.1,0.3-2-1.4-2-3.2c0-1,0.6-2.1,1.4-1.9c1.1,0.3,1.3,1.5,1.3,1.5v2.7
											C147.3-170.1,147.1-169.4,146.6-169.2z"/>
									</g>
								</g>
							</g>
							<g>
								<path class="st6" d="M156-167.7h-5.4c0,0,0,3.1,0,5.2c1.6,1.9,3.8,3,6.6,3c1.6,0,3-0.4,4.2-1.1c0,0,0,0,0-0.1
									c0-1.1,0-7.1,0-7.1H156V-167.7z"/>
							</g>
							<g>
								<path class="st5" d="M164.1-182.8c-3.1-2.2-12.5-2.2-15.6,0c-2.4,1.7-3.5,7.9-2.1,12.7c1.7,5.8,4.6,9.6,9.9,9.7
									c5.3-0.1,8.2-3.9,9.9-9.7C167.6-174.9,166.5-181,164.1-182.8z"/>
							</g>
							<g>
								<polygon class="st7" points="160.5,-132 151.5,-132 153.5,-149.3 158.4,-149.3 								"/>
							</g>
							<g>
								<path class="st8" d="M155.1-153.1h1.9l1.8,4.6c0.2,0.5-0.2,1.1-0.7,1.1l-4.2-0.1c-0.6,0-0.9-0.6-0.7-1.1L155.1-153.1z"/>
							</g>
							<g>
								<path class="st9" d="M152.1-156.2c2.1,2.1,3,3.1,3,3.1s-1.4,5.2-2.3,4.4c-0.9-0.9-5.6-7.4-4.4-9.9c0.2-0.5,2.1-1,2.1-1
									S150.6-157.7,152.1-156.2z"/>
							</g>
							<g>
								<path class="st9" d="M159.9-156.2c-2.1,2.1-3,3.1-3,3.1s1.4,5.2,2.3,4.4c0.9-0.9,5.6-7.4,4.4-9.9c-0.2-0.5-2.1-1-2.1-1
									S161.4-157.7,159.9-156.2z"/>
							</g>
							<g>
								<path class="st3" d="M145.7-174.9c0,0,0,0.9,0,1.4s0.2,1.7,0.2,1.7s1.9-4.1,4.4-5.1c2.6-1,4.9-1.3,6.6-2.5s3.4-1.8,3.4-1.8
									s2.7,4.4,3.5,4.7c0.8,0.2,1.2,1,1.6,1.9c0.4,0.9,1,3.3,1,3.3s0.5-1.5,0.5-2.3s0-1.7,0-1.7s0.3-0.1,0.6,0s0.4,0.1,0.4,0.1
									s0.5-3.4,0-5.8c-0.4-2.2-1.8-7.4-6-7.1c-0.8,0.1-1.9-2.6-9.3-1.1c-2.6,0.5-5.4,2.1-7,5.6c-0.8,1.8-0.9,8.3-0.9,8.3
									s0.3,0.1,0.5,0.2C145.5-175.1,145.7-174.9,145.7-174.9z"/>
							</g>
							<path class="st10" d="M156.1-132h21.3c0,0-0.2-7-1.1-12.1c-1.5-8.1-2.7-12.7-9.8-14.2c-1.6,4.9-5.9,16-10.5,16.1
								c-4.7-0.1-8.9-11.2-10.5-16.1c-7,1.4-8.2,6.1-9.7,14.1c-0.9,5.1-1.1,12.1-1.1,12.1H156L156.1-132L156.1-132z"/>
						</g>
					</g>
				</g>
			</g>
		</g>
	</g>
	<path class="st11" d="M156-203.8v68.4c18.9,0,34.2-15.3,34.2-34.2S174.9-203.8,156-203.8z"/>
</g>
<g>
	<g>
		<path class="st1" d="M314.7-180.9h-98.3c-1.7,0-3.1,1.4-3.1,3.1l0,0c0,1.7,1.4,3.1,3.1,3.1h98.3c1.7,0,3.1-1.4,3.1-3.1l0,0
			C317.8-179.6,316.4-180.9,314.7-180.9z"/>
		<path class="st1" d="M314.7-165.9h-98.3c-1.7,0-3.1,1.4-3.1,3.1l0,0c0,1.7,1.4,3.1,3.1,3.1h98.3c1.7,0,3.1-1.4,3.1-3.1l0,0
			C317.8-164.5,316.4-165.9,314.7-165.9z"/>
		<path class="st1" d="M314.7-150.8h-98.3c-1.7,0-3.1,1.4-3.1,3.1l0,0c0,1.7,1.4,3.1,3.1,3.1h98.3c1.7,0,3.1-1.4,3.1-3.1l0,0
			C317.8-149.4,316.4-150.8,314.7-150.8z"/>
	</g>
	<path class="st1" d="M309.6-192.6c0-2.3,1.8-4.1,4.1-4.1s4.1,1.8,4.1,4.1s-1.8,4.1-4.1,4.1S309.6-190.4,309.6-192.6z"/>
	<path class="st1" d="M296.2-192.6c0-2.3,1.8-4.1,4.1-4.1s4.1,1.8,4.1,4.1s-1.8,4.1-4.1,4.1S296.2-190.4,296.2-192.6z"/>
	<path class="st1" d="M282.8-192.6c0-2.3,1.8-4.1,4.1-4.1s4.1,1.8,4.1,4.1s-1.8,4.1-4.1,4.1S282.8-190.4,282.8-192.6z"/>
</g>
<path class="st0" d="M206.7-138.1v20.9c0,3.4,4.1,5.1,6.5,2.7l24.3-24.3L206.7-138.1z"/>
<g>
	<g>
		<g>
			<path class="st12" d="M235.5,151.2c0,0,2.1,13-1.3,16.4c-6.5,6.5-26.6,9.6-16,37.5h92.3c0,0,4.6-11.1-5.7-17.6
				c0,0-3.6-2.5-1.4-10.1c2.2-7.5-3.3-12.9-10-21L280.1,135L235.5,151.2z"/>
			<ellipse class="st12" cx="266.9" cy="149.2" rx="31.5" ry="30.1"/>
			
				<ellipse transform="matrix(0.8694 -0.4941 0.4941 0.8694 -40.7538 166.8214)" class="st13" cx="295.2" cy="160.5" rx="8.2" ry="8.2"/>
			<polygon class="st13" points="277.8,179.5 277,215.7 250.8,214.2 256.2,161 			"/>
			<path class="st14" d="M277.5,190.6c0,0-11.7-1.2-12.2-14.5l12.4,6.6L277.5,190.6z"/>
			<path class="st13" d="M293.1,131.4c2.1,1.7,3.4,4.2,3.9,6.8c1.6,7.8,4.6,21.6,1.9,29.8c-3.6,10.8-12.3,18.4-26.5,15.7
				c0,0-16.9-1.7-20.4-23.2C246.4,126.4,275.5,116.5,293.1,131.4z"/>
			<g>
				<path class="st14" d="M294,154.8c0.3,1,1.3,1.6,2.3,1.3s1.6-1.3,1.3-2.3c-0.3-1-1.3-1.6-2.3-1.3
					C294.4,152.8,293.8,153.8,294,154.8z"/>
				<path class="st14" d="M278.3,155.1c0.3,1,1.3,1.6,2.3,1.3s1.6-1.3,1.3-2.3c-0.3-1-1.3-1.6-2.3-1.3
					C278.6,153.1,278,154.1,278.3,155.1z"/>
				<path class="st15" d="M290.4,159.3l1.3,3.5c0.1,0.4-0.2,0.9-0.6,1l-2,0.4"/>
				<path class="st14" d="M276.9,140.1c0,0,5.8-1,6.1,1.6c0,0,0.2,1.8-4.9,2.6s-7.1,0.7-7.7-1C269.7,141.7,274.1,140.4,276.9,140.1z
					"/>
				<path class="st14" d="M298,140.2c0,0-5-1.1-5.8,1.4c0,0-0.5,1.7,4,2.6c3.2,0.6,4.4,0.1,4.8-1.1
					C301.3,141.8,299.9,140.5,298,140.2z"/>
				<g>
					<g>
						<path id="XMLID_5_" class="st16" d="M293.2,167.1l-14.3,0.2c0,0,0.3,6.2,6.9,6.2C292.4,173.4,293.2,167.1,293.2,167.1z"/>
					</g>
					<g>
						<g>
							<g>
								<g>
									<defs>
										<path id="SVGID_3_" d="M293.2,167.1l-14.3,0.2c0,0,0.3,6.2,6.9,6.2C292.4,173.4,293.2,167.1,293.2,167.1z"/>
									</defs>
									<clipPath id="SVGID_4_">
										<use xlink:href="#SVGID_3_"  style="overflow:visible;"/>
									</clipPath>
									<path class="st17" d="M278.4,177.4c1.2,2.5,4.2,3.6,6.7,2.5c2.5-1.2,3.6-4.2,2.5-6.7c-1.2-2.5-4.2-3.6-6.7-2.5
										C278.3,171.9,277.2,174.9,278.4,177.4z"/>
								</g>
							</g>
						</g>
					</g>
					<g>
						<g>
							<g>
								<g>
									<defs>
										<path id="SVGID_5_" d="M293.2,167.1l-14.3,0.2c0,0,0.3,6.2,6.9,6.2C292.4,173.4,293.2,167.1,293.2,167.1z"/>
									</defs>
									<clipPath id="SVGID_6_">
										<use xlink:href="#SVGID_5_"  style="overflow:visible;"/>
									</clipPath>
									<polygon class="st18" points="294.2,169 277.9,169 277.9,166.2 294.2,165.7 									"/>
								</g>
							</g>
						</g>
					</g>
				</g>
				<g>
					<path class="st19" d="M286.9,154.3c-0.1,5.6-4.6,10.1-10,10c-5.5-0.1-9.9-4.6-9.8-10.2c0.1-5.6,4.6-10.1,10-10
						C282.5,144.1,286.9,148.7,286.9,154.3z"/>
					
						<ellipse transform="matrix(1.154249e-02 -0.9999 0.9999 1.154249e-02 142.5959 453.0114)" class="st19" cx="300.4" cy="154.4" rx="9.7" ry="8.5"/>
					<path class="st20" d="M286.9,154.3c-0.1,5.6-4.6,10.1-10,10c-5.5-0.1-9.9-4.6-9.8-10.2c0.1-5.6,4.6-10.1,10-10
						C282.5,144.1,286.9,148.7,286.9,154.3z"/>
					
						<ellipse transform="matrix(1.154249e-02 -0.9999 0.9999 1.154249e-02 142.5959 453.0114)" class="st21" cx="300.4" cy="154.4" rx="9.7" ry="8.5"/>
					<path class="st20" d="M286.9,154.3c0,0,2.2-2.5,5.2,0"/>
					<line class="st20" x1="267" y1="154.1" x2="258.2" y2="157.5"/>
				</g>
			</g>
			<path class="st12" d="M254,155.2c1.3,0.6,26-14.3,13.5-30.5c0,0-18.8,4.4-17.7,30.5H254z"/>
			<path class="st12" d="M269.6,130.6c0,0,16.6-4.1,26.3,4.2c0,0-4.7-15-27.5-15.7l-8.6,19.1L269.6,130.6z"/>
			<ellipse class="st12" cx="242.8" cy="119.2" rx="12.7" ry="12.7"/>
			<polygon class="st12" points="259.2,146.7 257.6,163.7 251.7,148.1 			"/>
			<g>
				<path class="st13" d="M239.8,165.5c1.6,5.2,7.1,8.2,12.3,6.6c5.2-1.6,8.2-7.1,6.6-12.3s-7.1-8.2-12.3-6.6
					C241.2,154.7,238.2,160.2,239.8,165.5z"/>
				<path class="st15" d="M244.8,159.7c0,0,7.3-2.1,9.2,5.9"/>
			</g>
		</g>
		<g>
			<g>
				<path class="st22" d="M301,220.2c0,0,14.1,8.4,14.1,30.2v62.5c0,7.8-5.6,14.4-13.3,15.6l0,0c-9.6,1.6-18.3-5.8-18.3-15.5
					l-0.6-82.3L301,220.2z"/>
				<g>
					<path class="st13" d="M351.7,272.4l6.8,8.8l-52,46.3c-6.6,4.9-16.1,2.3-19.3-5.3l0,0c-2.7-6.3,0-13.6,6.2-16.6L351.7,272.4z"/>
					<g>
						<path class="st23" d="M351.7,272.4l3.7-6.4c1.9-3.4,4.6-6.2,7.9-8.3l5.7-3.7c1.4-0.9,3.2-0.3,3.8,1.1l0,0
							c0.5,1.3,0.3,2.7-0.7,3.7L367,264l27.3-7.8c1.2-0.4,2.4,0.4,2.6,1.6l0.1,0.8c0.2,1-0.4,1.9-1.3,2.2l-16,5.1l19.2-3.4
							c1.2-0.3,2.4,0.5,2.5,1.7l0.1,0.6c0.1,1-0.5,2-1.5,2.2l-19.9,4.1l16.5-0.3c1.3-0.1,2.3,1.1,2.1,2.4v0.3
							c-0.2,0.9-0.9,1.5-1.7,1.7l-17.1,2.2h10.5c1.5,0,2.5,1.6,1.8,2.9l0,0c-0.3,0.6-0.9,1.1-1.6,1.1l-38.3,3.5L351.7,272.4z"/>
					</g>
				</g>
			</g>
			<g>
				<path class="st22" d="M239.4,211.1c0,0-25.8,5.6-35.7,29.7c-9.9,24.1-3,106.8-3,106.8s49.2,23.1,92.1-2.9l8.3-124.4
					c0,0-9.6-6.9-17.4-11.3L239.4,211.1z"/>
				<path class="st13" d="M259.2,203.4c0,0-7.2,1.6-19.8,7.7c0,0,18.8,14.6,33.6,32.2c0,0,11.6-11.9,10.5-34.3l-14.7-5.5
					L259.2,203.4L259.2,203.4z"/>
				<line class="st24" x1="299.1" y1="249.4" x2="295.5" y2="302.9"/>
			</g>
		</g>
	</g>
	<g>
		<g>
			<g>
				<path class="st25" d="M251.5,63.8h-40.7c-12.3,0-22.2-10-22.2-22.2V30.2c0-12.3,10-22.2,22.2-22.2h40.7
					c12.3,0,22.2,10,22.2,22.2v11.4C273.7,53.9,263.8,63.8,251.5,63.8z"/>
			</g>
			<path class="st25" d="M238.6,58.7L250.7,74c1.3,1.7,4,0.3,3.4-1.7l-4.2-15.9L238.6,58.7z"/>
		</g>
	</g>
</g>
<g>
	<g>
		<g>
			<path class="st25" d="M132,353.3c0,0,32.8,6.6,59.6-6.5l8.9-112.6l-31.9-32.5L137,195l-17.4,63.3L132,353.3z"/>
			<g>
				<path class="st26" d="M137.1,195c0,0,4.6,112.4,3.4,168l-24.3-2.9c-12.9-1.5-22.5-12.6-22.1-25.6l2.5-86.5l2.8-37.4
					c0.2-3.2,2.3-6.1,5.3-7.3C111.1,200.8,123.1,196.6,137.1,195z"/>
				<g>
					<path class="st27" d="M53.9,318.5l-8.7,15.2c0,0-17.1,1.1-32.8,8.5c-0.8,0.4-1.3,1.3-1.2,2.3l0,0c0.2,1.3,1.5,2.1,2.7,1.7
						l11.7-3.5c0,0-11.5,4.7-20.4,9.8c-1.2,0.7-1.7,2.2-1.1,3.4l0,0c0.6,1.3,2.1,1.9,3.4,1.4l19-7.4l-17.7,9.8
						c-1.4,0.8-1.9,2.5-1.2,3.9l0,0c0.7,1.4,2.5,2,3.9,1.3l17.1-8.3L15.2,366c-1.7,1.2-1.9,3.7-0.4,5.2l0,0c1.1,1.1,2.9,1.3,4.2,0.4
						c5.3-3.5,18.5-11.6,27.1-11.3c0,0-2.1,3.3-5.7,6.7c-1.7,1.7-1.6,4.5,0.4,5.9l0,0c1.3,1,3.1,1,4.4,0l10.1-7
						c1.9-1.3,3.3-3.3,3.9-5.5l3.4-12.2l14.6-13.8L53.9,318.5z"/>
					<g>
						<path class="st26" d="M105.9,202.8c0,0-4.7-0.3-20,19.4c-15.8,20.3-43.3,110.7-43.3,110.7l27.6,20.9L117,251.9L105.9,202.8z"
							/>
						<line class="st28" x1="95.6" y1="298.6" x2="111.9" y2="263.1"/>
					</g>
				</g>
			</g>
			<g>
				<g>
					<path class="st26" d="M192.5,204.4c0,0,24.2,7.5,33.3,96.7L206.2,315L192.5,204.4z"/>
					<g>
						<g>
							<g>
								<g>
									<path class="st27" d="M274.6,269.6c0,0-8.8-6.8-0.6-18.2l12.3-17.8c1.1-1.6,3.4-1.8,4.8-0.5l0,0c1,0.9,1.3,2.3,0.8,3.5
										l-3.8,10.5l23.4-15.8c1.7-1.3,4.2-0.7,5.1,1.2l0,0c0.8,1.5,0.4,3.3-0.9,4.3l-15,11.7l0.3,0.9l17.3-9.8
										c1.9-0.9,4.1,0.2,4.6,2.3l0,0c0.4,1.5-0.4,3.1-1.8,3.8l-16.7,10.7l0.2,1.2l16.3-7c4-1.9,5.3,0,5.7,1.4l0,0
										c0.4,1.4-2.7,3.3-4,3.7l-16.8,8.5l0.2,1.1l15.6-6c1.5-0.2,2.8,1,2.7,2.6l0,0c-0.1,1.1-0.9,2-2,2.2l-17.8,7.6
										c0,0-16.3,11.1-23.6,4.8L274.6,269.6z"/>
									<path class="st29" d="M288.1,247.2c0,0,5.1,9.2-1.1,17.3"/>
								</g>
							</g>
							<polygon class="st27" points="249.6,271.1 276.4,259.8 288,276 258,292.2 							"/>
						</g>
						<g>
							<g>
								<g>
									<path class="st26" d="M196.3,287.5l67.7-27.4l13.6,29.4l-59.1,39c-9.3,5.6-21.3,3-27.5-5.8l0,0
										C183.9,312.5,185.4,293.3,196.3,287.5z"/>
								</g>
							</g>
							<line class="st28" x1="222.2" y1="277" x2="214" y2="280.3"/>
						</g>
					</g>
				</g>
				<g>
					<path class="st26" d="M168.7,201.7c0,0,7.8,9.2,11,48.8C182.9,290.1,184,358,184,358l0,0c13.8-2.8,23.6-15.2,23.2-29.3
						c-0.9-29.4-3-77.2-7.6-97.4l-4.3-22c-0.2-1-1.2-4.2-1.2-4.2s-3.5-3.2-25-8.1L168.7,201.7z"/>
					<path class="st28" d="M207.1,331.4c0,0,0.2-56.3-6.5-97.2"/>
				</g>
			</g>
		</g>
		<g>
			<path class="st30" d="M134.8,156.2c0,0-7.7,12.5,3.6,12.1c0,0,4.7-3.9,3.7-11.2L134.8,156.2z"/>
			<path class="st30" d="M202.1,121.4c-0.2-2.4-1-4.9-2.4-7.4c-16.3-30.2-51.8-6.1-51.8-6.1l6.2,21.1
				C169,120.1,186.6,116.4,202.1,121.4z"/>
			<path class="st31" d="M154.2,129l6.9,27.4c0,0,43.4-12.5,41-35C186.6,116.4,171.2,114.3,154.2,129z"/>
			<path class="st32" d="M174.9,153.2c1.2,4.8,6.1,7.6,10.9,6.4c4.8-1.2,7.6-6.1,6.4-10.9c-1.2-4.8-6.1-7.6-10.9-6.4
				C176.5,143.6,173.6,148.5,174.9,153.2z"/>
			<path class="st27" d="M167.2,172.2l1.6,26.4c-0.7,10.7-13.8,15.4-21.1,7.7L137.1,195l3.2-46.1L167.2,172.2z"/>
			<path class="st14" d="M168,185.2c0,0-17.3-0.7-18.6-18.2l17.8,5.1L168,185.2z"/>
			<path class="st27" d="M185.4,115c0,0,5.7,36.1,1.2,47.4c-4.4,11.4-14.3,18.3-29.5,14.9c0,0-17.8-1.4-21-27.2
				C131.3,111.3,167.9,93.9,185.4,115z"/>
			<g>
				<path class="st33" d="M182.4,144.7c0.2,1.1,1.3,1.8,2.4,1.5c1.1-0.2,1.8-1.3,1.5-2.4c-0.2-1.1-1.3-1.8-2.4-1.5
					C182.9,142.6,182.2,143.6,182.4,144.7z"/>
				<path class="st33" d="M165.2,144.4c0.2,1.1,1.3,1.8,2.4,1.5s1.8-1.3,1.5-2.4c-0.2-1.1-1.3-1.8-2.4-1.5
					C165.7,142.2,165,143.3,165.2,144.4z"/>
				<polyline class="st34" points="178.7,146.2 180.7,153.2 177.4,154.8 				"/>
				<path class="st16" d="M163.9,129.9c0,0,6.3-1.5,6.8,1.9c0,0,0.3,2.3-5.3,3.5c-5.5,1.2-7.8,1.1-8.5-1
					C156.1,132.2,160.9,130.3,163.9,129.9z"/>
				<path class="st16" d="M187.6,129.4c0,0-5.9-1.5-6.5,1.9c0,0-0.4,2.3,4.8,3.4c3.8,0.8,5.1,0.1,5.4-1.5
					C191.5,131.5,189.8,129.8,187.6,129.4z"/>
				<path class="st4" d="M167.6,157.8l11.8,0.9c0,0-0.1,4.6-6.1,4.2C167.3,162.5,167.6,157.8,167.6,157.8z"/>
			</g>
			<path class="st30" d="M145,147.9l1.7-13.1c0,0,10.4-3.3,12.9-23c0,0-4.4-9-17.7-4.9s-24.9,13.8-10.3,38L145,147.9z"/>
			<g>
				<path class="st27" d="M124.1,153.3c1.5,5.8,7.4,9.2,13.2,7.7s9.2-7.4,7.7-13.2s-7.4-9.2-13.2-7.7
					C126.1,141.6,122.6,147.5,124.1,153.3z"/>
				<path class="st34" d="M129.8,147.2c0,0,8-2,9.8,6.8"/>
			</g>
			<g>
				<path class="st30" d="M159.7,111.8c0,0,13.2-2.1,26.3,6.2l-2.8-11.7l-17.3-2.4l-16.5,6.2l4.1,0.4L159.7,111.8z"/>
				<path class="st30" d="M185.9,118c0,0,19.9,0,20,14.5c0,0.3,0.4,0.3,0.5,0c0.9-5.4-0.1-20.1-22-18.4L185.9,118z"/>
			</g>
		</g>
	</g>
	<g>
		<g>
			<path class="st35" d="M91,118H46.6c-14.2,0-25.8-11.5-25.8-25.8V84c0-14.2,11.5-25.8,25.8-25.8H91c14.2,0,25.8,11.5,25.8,25.8
				v8.3C116.8,106.5,105.2,118,91,118z"/>
			<path class="st35" d="M81.8,112.1l12.1,15.3c1.3,1.7,4,0.3,3.4-1.7l-4.2-15.9L81.8,112.1z"/>
		</g>
	</g>
</g>
<g>
	<g>
		<g>
			<path class="st36" d="M410.8,135.1c0,0,3.8,23.6,12.3,36.8c1.6,2.5,0.7,5.9-1.7,7.5c-9.6,6.2-36.6,18-71.1,4.5
				c-2.3-0.9-3.7-3.3-3.4-5.8c0.7-6.4,6.2-18.9,14.4-30.1L410.8,135.1z"/>
			<path class="st37" d="M363,157c-1.3,4.2-5.7,6.6-9.9,5.3c-4.2-1.3-6.6-5.7-5.3-9.9c1.3-4.2,5.7-6.6,9.9-5.3
				C361.9,148.3,364.3,152.8,363,157z"/>
			<polygon class="st38" points="372.3,173.2 373.1,205.5 398.2,202.5 393.5,155.1 			"/>
			<path class="st14" d="M372.6,185.2c0,0,11.4-0.6,11.9-13.6l-12.1,6.4L372.6,185.2z"/>
			<path class="st38" d="M357.4,126.2c-2,1.7-3.3,4.1-3.8,6.7c-1.5,7.6-4.5,23.5-1.8,31.6c3.5,10.5,12.1,17.2,25.9,14.6
				c0,0,16-0.7,20-24.3C403.2,121.4,374.6,111.7,357.4,126.2z"/>
			<g>
				<circle class="st14" cx="354.7" cy="150.2" r="1.8"/>
				<path class="st14" d="M371.9,151c-0.3,1-1.3,1.6-2.2,1.3c-1-0.3-1.6-1.3-1.3-2.2c0.3-1,1.3-1.6,2.2-1.3
					C371.6,149,372.1,150,371.9,151z"/>
				<polyline class="st39" points="359.6,154.7 357.8,159.1 360.7,159.8 				"/>
				<path class="st36" d="M371.9,139.9c0,0-5.7-1-6,1.6c0,0-0.2,1.8,4.8,2.5c4.9,0.8,6.9,0.6,7.5-1
					C378.9,141.4,374.6,140.1,371.9,139.9z"/>
				<path class="st36" d="M352.6,140c0,0,4.9-1.1,5.6,1.4c0,0,0.4,1.7-3.9,2.5c-3.2,0.6-4.3,0.1-4.6-1.1
					C349.4,141.4,350.8,140.2,352.6,140z"/>
				<path class="st4" d="M359.4,163.2l10.2,0.2c0,0,0,4.1-5.2,4C359.2,167.3,359.4,163.2,359.4,163.2z"/>
			</g>
			<path class="st36" d="M391.5,152.3c0,0-8.4-7.4-6.7-21.8c0,0-14.2,2.5-31.1,1.3c0,0,3.8-22.3,35.8-16.9
				c33.3,5.5,21,44.1,8.6,55.3L391.5,152.3z"/>
			<g>
				
					<ellipse transform="matrix(0.8755 -0.4832 0.4832 0.8755 -25.7832 211.9297)" class="st38" cx="398.4" cy="156" rx="9.7" ry="9.7"/>
				<path class="st39" d="M402.7,153.1c0,0-7.1-2-9,5.8"/>
			</g>
			<path class="st36" d="M377.4,114.1c0,0-27.9,0.5-31.4,22.6l44.2,1l2.6-14.8L377.4,114.1z"/>
		</g>
		<g>
			<g>
				<polygon class="st38" points="341.6,259.7 344.7,301.5 327.4,354.1 346.6,354.1 376.4,325.2 373.2,262.4 				"/>
				<path class="st4" d="M349.2,209.5c0,0-21.8,15.7-15.4,66.3h35.7L349.2,209.5z"/>
			</g>
			<path class="st14" d="M358.1,301l-12,52.8c44.8,12.7,86.4,0,86.4,0s-2.3-20.3-17.9-53.2L358.1,301z"/>
			<g>
				<path class="st4" d="M409.4,200l-43.8,0.7c0,0-9.6,3.2-16.4,8.8l1.4,37l7.5,54.5l56.5-0.4l11.1-84.7L409.4,200z"/>
				<path class="st38" d="M385.5,193.6c0,0,11.2,1.1,23.9,6.4c0,0-3.7,14.2-24.7,14.3c-3.5,0-7-0.5-10.3-1.8
					c-4.4-1.8-9.5-5.2-8.8-11.7L385.5,193.6z"/>
				<line class="st40" x1="353.8" y1="274.9" x2="349.7" y2="245.1"/>
			</g>
			<g>
				<g>
					<path class="st38" d="M440.2,302.9c0.1-1.1-2-52.4-2-52.4H414l-0.4,38.3L440.2,302.9z"/>
					<g>
						<g>
							<path class="st4" d="M409.4,200c0,0,30.1,8.3,33.8,27c3.7,18.7,12.5,49.9,12.5,49.9l-46.3,0.1l3.5-62.8L409.4,200z"/>
						</g>
						<line class="st40" x1="411.1" y1="280.3" x2="407.2" y2="252.6"/>
					</g>
				</g>
				<g>
					<path class="st38" d="M375.9,250.5l-5.8,11.2l49.2,49.4c6.3,5.3,15.9,3.3,19.6-4.1l0,0c3.1-6.1,0.8-13.6-5.2-16.9l-6.9-4.7
						l-12.1-8.3L375.9,250.5z"/>
					<g>
						<path class="st38" d="M379.6,253.3v-7.4c0-3.9-0.9-7.7-2.7-11.1l-3.1-6.1c-0.7-1.4-2.6-1.9-3.9-0.9l0,0
							c-1.1,0.8-1.6,2.2-1.2,3.5l1.8,7l-17.7-19.2c-0.8-0.9-2.8-0.7-3.6,0.2l0,0c-0.6,0.7-0.8,2.1-0.2,2.8l9.5,11.6l-13-11.5
							c-0.9-0.8-2.6-0.6-3.4,0.4l0,0c-0.6,0.8-0.5,2.4,0.2,3.1l15,13.2l-14.1-8.5c-1.1-0.7-2.6-0.2-3,1l-0.1,0.2
							c-0.3,0.8,0,1.8,0.7,2.3l13.8,10.4l-9.1-5.2c-1.3-0.7-2.9,0.1-3,1.6l0,0c0,0.7,0.3,1.4,0.9,1.8l29.7,21.3L379.6,253.3z"/>
					</g>
					<line class="st41" x1="415.7" y1="277.7" x2="429.7" y2="287.3"/>
				</g>
			</g>
		</g>
	</g>
	<g>
		<g>
			<path class="st35" d="M372.5,89h44.4c14.2,0,25.8-11.5,25.8-25.8v-8.3c0-14.2-11.5-25.8-25.8-25.8h-44.4
				c-14.2,0-25.8,11.5-25.8,25.8v8.3C346.7,77.4,358.3,89,372.5,89z"/>
			<path class="st35" d="M387.8,83l-12.1,15.3c-1.3,1.7-4,0.3-3.4-1.7l4.2-15.9L387.8,83z"/>
		</g>
	</g>
</g>
<g>
	<g>
		<g>
			<path class="st25" d="M520.4,67.9h41.7c14.2,0,25.8-11.5,25.8-25.8v-8.3c0-14.2-11.5-25.8-25.8-25.8h-41.7
				c-14.2,0-25.8,11.5-25.8,25.8v8.3C494.6,56.3,506.2,67.9,520.4,67.9z"/>
			<path class="st25" d="M531.1,61.9L519,77.2c-1.3,1.7-4,0.3-3.4-1.7l4.2-15.9L531.1,61.9z"/>
		</g>
	</g>
	<g>
		<g>
			<ellipse class="st42" cx="471.7" cy="145.4" rx="9.2" ry="9.2"/>
			<polygon class="st43" points="490,167.5 490.8,203.5 523.6,201.2 516.9,142.7 			"/>
			<path class="st16" d="M490.3,182.6c0,0,17.8-1.5,18.7-22.8l-19,8.7L490.3,182.6z"/>
			<path class="st43" d="M483,106c-8.2,3.2-13.8,11-14.7,19.8c-1.1,10.1-2,25.8,1.2,33.5c4.9,11.9,15.2,18.9,30.8,14.6
				c0,0,18.3-2.2,20.9-29.8C524.4,111.5,501.5,98.7,483,106z"/>
			<g>
				<path class="st16" d="M473.7,139.8c-0.2,1.1-1.3,1.9-2.4,1.7c-1.1-0.2-1.9-1.3-1.7-2.4c0.2-1.1,1.3-1.9,2.4-1.7
					C473.2,137.6,474,138.6,473.7,139.8z"/>
				<path class="st16" d="M491.4,138.9c-0.2,1.1-1.3,1.9-2.4,1.7s-1.9-1.3-1.7-2.4c0.2-1.1,1.3-1.9,2.4-1.7
					C490.9,136.6,491.6,137.7,491.4,138.9z"/>
				<path class="st44" d="M477.6,141.2l-1.5,6c-0.2,0.6,0.3,1.3,0.9,1.4l2.2,0.4"/>
				<path class="st16" d="M493.3,125.3c0,0-6.6-1.4-6.9,2.2c0,0-0.2,2.4,5.5,3.4c5.7,1,8,0.9,8.7-1.3
					C501.4,127.3,496.4,125.6,493.3,125.3z"/>
				<path class="st16" d="M469,125.6c0,0,6-1.7,6.8,1.7c0,0,0.5,2.3-4.8,3.7c-3.8,1-5.2,0.3-5.6-1.3
					C464.9,127.8,466.7,126,469,125.6z"/>
				<g>
					<g>
						<path id="XMLID_7_" class="st16" d="M476.6,153.3l12.8,0.5c0,0-0.3,5.5-6.5,5.5C476.5,159.3,476.6,153.3,476.6,153.3z"/>
					</g>
					<g>
						<g>
							<g>
								<g>
									<defs>
										<path id="SVGID_7_" d="M476.6,153.3l12.8,0.5c0,0-0.3,5.5-6.5,5.5C476.5,159.3,476.6,153.3,476.6,153.3z"/>
									</defs>
									<clipPath id="SVGID_8_">
										<use xlink:href="#SVGID_7_"  style="overflow:visible;"/>
									</clipPath>
									<path class="st45" d="M489.7,162.8c-1.1,2.4-3.9,3.4-6.3,2.3c-2.4-1.1-3.4-3.9-2.3-6.3c1.1-2.4,3.9-3.4,6.3-2.3
										C489.7,157.6,490.8,160.4,489.7,162.8z"/>
								</g>
							</g>
						</g>
					</g>
				</g>
			</g>
			<path class="st16" d="M512.8,144.1c0,0-7.4-13.9-4.7-29.1c0,0-22.6,3.8-35.7-0.4c0,0,3.1-18.7,33.5-16.2
				c41.6,3.3,29.5,47.7,9.6,55.3L512.8,144.1z"/>
			<g>
				<path class="st43" d="M533.2,148.7c-1.4,6-7.3,9.7-13.3,8.4c-6-1.4-9.7-7.3-8.4-13.3c1.4-6,7.3-9.7,13.3-8.4
					S534.6,142.7,533.2,148.7z"/>
				<path class="st44" d="M527.1,142.6c0,0-8.3-1.7-9.8,7.4"/>
			</g>
		</g>
		<g>
			<g>
				<polygon class="st43" points="445.5,259.7 445.5,313.1 420.5,357 445.1,354.1 474.9,325.2 471.7,262.4 				"/>
				<path class="st12" d="M462.5,207.3c0,0-19.4,11.3-22.5,39.4v39.9l31.7-1.1L462.5,207.3z"/>
			</g>
			<g>
				<path class="st12" d="M486.4,198.2c0,0-15.9,3-23.9,9.1l-2.4,143.1c51.1,30.8,109.5,0.9,109.5,0.9L553.8,208
					c0,0-2.1-8.1-24.3-9.8H486.4z"/>
				<path class="st43" d="M529.5,198.3c0,0-18.3-4-43.1,0c0,0-2.4,14.7,17.6,15.4C525.6,214.3,529.5,198.3,529.5,198.3z"/>
				<line class="st46" x1="461.2" y1="286.5" x2="461.1" y2="236.3"/>
			</g>
			<g>
				<g>
					<path class="st43" d="M504.9,282.6c0,0-3.5-10.2-16.2-12.8l-8.9-8.7c-1.4-1.4-3.5-1.5-5.1-0.3l0,0c-1.7,1.3-2,3.6-0.8,5.3
						l4.4,6.1l-2.4-1c-3.8-1.6-7-4.5-8.9-8.2l-5.6-10.4c-0.6-1.2-1.9-1.9-3.2-1.9l0,0c-2.6,0-4.4,2.6-3.5,5l5.6,14.6
						c2.2,5.6,6.7,10.1,12.4,12.1l28.4,12.6L504.9,282.6z"/>
					<path class="st43" d="M504.9,282.6l78.9,30.2c6.8,3,10.1,14.6,7.1,21.3l0,0c-3.4,7.5-12.8,10.2-19.6,5.6L501.1,295L504.9,282.6
						z"/>
				</g>
				<g>
					<polygon class="st43" points="591.9,326.3 583.7,262.6 545.4,259.7 558.8,316.6 					"/>
					<g>
						<path class="st12" d="M544.2,201c0,0,47.8,7.9,53.5,85.5h-58.8l-3.9-50.2L544.2,201z"/>
						<polyline class="st46" points="551.7,286.5 540.6,286.5 533.8,246.5 						"/>
					</g>
				</g>
			</g>
		</g>
	</g>
</g>
<g>
	<text transform="matrix(1 0 0 1 154.6021 610.506)" class="st4" style="font-family:'Roboto-Medium'; font-size:38px;">Avisos importantes</text>
</g>
<g>
	<text transform="matrix(1 0 0 1 154.6021 530.506)" style="font-family:'Roboto-Medium'; font-size:38px;">Trabajo Grupal</text>
</g>
<path class="st47" d="M630.6,412.5H0.6v-61c0-11.9,9.7-21.6,21.6-21.6H609c11.9,0,21.6,9.7,21.6,21.6V412.5z"/>
<g>
	<g class="st48">
		<path d="M213.7,361.3h-8.4v23.2h-4.7v-23.2h-8.3v-3.8h21.4V361.3z"/>
		<path d="M226.1,368.5c-0.6-0.1-1.2-0.1-1.8-0.1c-2.1,0-3.5,0.8-4.2,2.4v13.7h-4.5v-20.1h4.3l0.1,2.2c1.1-1.7,2.6-2.6,4.5-2.6
			c0.6,0,1.2,0.1,1.6,0.3L226.1,368.5z"/>
		<path d="M240.4,384.5c-0.2-0.4-0.4-1-0.5-1.9c-1.4,1.5-3.2,2.2-5.3,2.2c-2,0-3.7-0.6-4.9-1.7c-1.3-1.2-1.9-2.6-1.9-4.3
			c0-2.1,0.8-3.8,2.4-4.9c1.6-1.1,3.9-1.7,6.8-1.7h2.8v-1.3c0-1-0.3-1.9-0.9-2.5c-0.6-0.6-1.5-0.9-2.7-0.9c-1,0-1.9,0.3-2.5,0.8
			c-0.7,0.5-1,1.2-1,2h-4.5c0-1.1,0.4-2.1,1.1-3.1c0.7-1,1.7-1.7,3-2.3c1.3-0.5,2.7-0.8,4.2-0.8c2.4,0,4.2,0.6,5.6,1.8
			c1.4,1.2,2.1,2.8,2.2,5v9.1c0,1.8,0.3,3.2,0.8,4.3v0.3H240.4z M235.4,381.3c0.9,0,1.7-0.2,2.5-0.6c0.8-0.4,1.4-1,1.8-1.7v-3.8
			h-2.4c-1.7,0-2.9,0.3-3.8,0.9c-0.8,0.6-1.3,1.4-1.3,2.5c0,0.9,0.3,1.6,0.9,2.1C233.7,381,234.5,381.3,235.4,381.3z"/>
		<path d="M266.6,374.7c0,3.1-0.7,5.6-2.1,7.4c-1.4,1.8-3.3,2.8-5.7,2.8c-2.4,0-4.2-0.8-5.5-2.5l-0.2,2.2h-4.1V356h4.5v10.4
			c1.3-1.5,3-2.3,5.3-2.3c2.4,0,4.4,0.9,5.8,2.7c1.4,1.8,2.1,4.4,2.1,7.6V374.7z M262,374.3c0-2.2-0.4-3.8-1.2-4.9
			c-0.8-1.1-1.9-1.6-3.3-1.6c-2,0-3.3,0.9-4.1,2.6v8.3c0.8,1.7,2.2,2.6,4.2,2.6c1.4,0,2.5-0.5,3.3-1.6c0.8-1.1,1.2-2.6,1.2-4.8
			V374.3z"/>
		<path d="M282.3,384.5c-0.2-0.4-0.4-1-0.5-1.9c-1.4,1.5-3.2,2.2-5.3,2.2c-2,0-3.7-0.6-4.9-1.7c-1.3-1.2-1.9-2.6-1.9-4.3
			c0-2.1,0.8-3.8,2.4-4.9c1.6-1.1,3.9-1.7,6.8-1.7h2.8v-1.3c0-1-0.3-1.9-0.9-2.5c-0.6-0.6-1.5-0.9-2.7-0.9c-1,0-1.9,0.3-2.5,0.8
			c-0.7,0.5-1,1.2-1,2h-4.5c0-1.1,0.4-2.1,1.1-3.1c0.7-1,1.7-1.7,3-2.3c1.3-0.5,2.7-0.8,4.2-0.8c2.4,0,4.2,0.6,5.6,1.8
			c1.4,1.2,2.1,2.8,2.2,5v9.1c0,1.8,0.3,3.2,0.8,4.3v0.3H282.3z M277.4,381.3c0.9,0,1.7-0.2,2.5-0.6c0.8-0.4,1.4-1,1.8-1.7v-3.8
			h-2.4c-1.7,0-2.9,0.3-3.8,0.9c-0.8,0.6-1.3,1.4-1.3,2.5c0,0.9,0.3,1.6,0.9,2.1C275.6,381,276.4,381.3,277.4,381.3z"/>
		<path d="M295.6,364.4v21.9c0,2.1-0.5,3.6-1.5,4.7c-1,1.1-2.5,1.6-4.5,1.6c-0.8,0-1.6-0.1-2.4-0.3v-3.6c0.5,0.1,1,0.2,1.6,0.2
			c1.5,0,2.3-0.8,2.3-2.4v-22H295.6z M290.7,359.2c0-0.7,0.2-1.3,0.7-1.7c0.4-0.5,1.1-0.7,1.9-0.7s1.4,0.2,1.9,0.7
			c0.4,0.5,0.7,1,0.7,1.7c0,0.7-0.2,1.2-0.7,1.7c-0.4,0.5-1.1,0.7-1.9,0.7s-1.4-0.2-1.9-0.7C290.9,360.5,290.7,359.9,290.7,359.2z"
			/>
		<path d="M299.6,374.3c0-2,0.4-3.7,1.2-5.3c0.8-1.6,1.9-2.8,3.3-3.6c1.4-0.8,3-1.3,4.9-1.3c2.7,0,4.9,0.9,6.6,2.6
			c1.7,1.7,2.6,4.1,2.7,6.9l0,1.1c0,2-0.4,3.7-1.1,5.3c-0.8,1.6-1.8,2.8-3.3,3.6c-1.4,0.9-3.1,1.3-4.9,1.3c-2.8,0-5.1-0.9-6.8-2.8
			c-1.7-1.9-2.6-4.4-2.6-7.5V374.3z M304.1,374.7c0,2.1,0.4,3.7,1.3,4.9c0.9,1.2,2,1.8,3.6,1.8s2.7-0.6,3.6-1.8
			c0.8-1.2,1.3-2.9,1.3-5.2c0-2-0.4-3.6-1.3-4.8s-2.1-1.8-3.6-1.8c-1.5,0-2.6,0.6-3.5,1.8C304.5,370.6,304.1,372.3,304.1,374.7z"/>
		<path d="M352.6,381c-1,1.3-2.3,2.2-4.1,2.9s-3.7,1-5.9,1c-2.3,0-4.3-0.5-6-1.5c-1.7-1-3.1-2.5-4-4.4c-0.9-1.9-1.4-4.1-1.5-6.7
			v-2.1c0-4.1,1-7.3,2.9-9.6c2-2.3,4.7-3.4,8.2-3.4c3,0,5.4,0.7,7.2,2.2c1.8,1.5,2.8,3.6,3.2,6.4H348c-0.5-3.3-2.4-4.9-5.7-4.9
			c-2.1,0-3.7,0.8-4.8,2.3c-1.1,1.5-1.7,3.7-1.7,6.7v2.1c0,2.9,0.6,5.2,1.8,6.8c1.2,1.6,2.9,2.4,5.1,2.4c2.4,0,4.1-0.5,5.1-1.6v-5.3
			h-5.6v-3.6h10.2V381z"/>
		<path d="M367.9,368.5c-0.6-0.1-1.2-0.1-1.8-0.1c-2.1,0-3.5,0.8-4.2,2.4v13.7h-4.5v-20.1h4.3l0.1,2.2c1.1-1.7,2.6-2.6,4.5-2.6
			c0.6,0,1.2,0.1,1.6,0.3L367.9,368.5z"/>
		<path d="M382.9,382.5c-1.3,1.6-3.2,2.3-5.6,2.3c-2.2,0-3.8-0.6-4.9-1.9c-1.1-1.3-1.7-3.1-1.7-5.5v-13h4.5v13
			c0,2.5,1.1,3.8,3.2,3.8c2.2,0,3.7-0.8,4.4-2.4v-14.4h4.5v20.1H383L382.9,382.5z"/>
		<path d="M409.4,374.7c0,3.1-0.7,5.6-2.1,7.4c-1.4,1.8-3.3,2.8-5.7,2.8c-2.2,0-4-0.7-5.3-2.2v9.5h-4.5v-27.8h4.2l0.2,2
			c1.3-1.6,3.1-2.4,5.4-2.4c2.4,0,4.4,0.9,5.8,2.7c1.4,1.8,2.1,4.4,2.1,7.6V374.7z M404.9,374.3c0-2-0.4-3.6-1.2-4.8
			c-0.8-1.2-1.9-1.8-3.4-1.8c-1.8,0-3.2,0.8-4,2.3v8.9c0.8,1.6,2.2,2.3,4,2.3c1.4,0,2.6-0.6,3.4-1.7
			C404.5,378.4,404.9,376.6,404.9,374.3z"/>
		<path d="M425.2,384.5c-0.2-0.4-0.4-1-0.5-1.9c-1.4,1.5-3.2,2.2-5.3,2.2c-2,0-3.7-0.6-4.9-1.7c-1.3-1.2-1.9-2.6-1.9-4.3
			c0-2.1,0.8-3.8,2.4-4.9c1.6-1.1,3.9-1.7,6.8-1.7h2.8v-1.3c0-1-0.3-1.9-0.9-2.5c-0.6-0.6-1.5-0.9-2.7-0.9c-1,0-1.9,0.3-2.5,0.8
			c-0.7,0.5-1,1.2-1,2H413c0-1.1,0.4-2.1,1.1-3.1c0.7-1,1.7-1.7,3-2.3c1.3-0.5,2.7-0.8,4.2-0.8c2.3,0,4.2,0.6,5.6,1.8
			c1.4,1.2,2.1,2.8,2.2,5v9.1c0,1.8,0.3,3.2,0.8,4.3v0.3H425.2z M420.3,381.3c0.9,0,1.7-0.2,2.5-0.6c0.8-0.4,1.4-1,1.8-1.7v-3.8
			h-2.4c-1.7,0-2.9,0.3-3.8,0.9c-0.8,0.6-1.3,1.4-1.3,2.5c0,0.9,0.3,1.6,0.9,2.1C418.5,381,419.3,381.3,420.3,381.3z"/>
		<path d="M438.6,384.5h-4.5V356h4.5V384.5z"/>
	</g>
</g>
</svg>
