<?xml version="1.0" encoding="utf-8"?>
<!-- Generator: Adobe Illustrator 25.1.0, SVG Export Plug-In . SVG Version: 6.00 Build 0)  -->
<svg version="1.1" id="Layer_1" xmlns="http://www.w3.org/2000/svg" xmlns:xlink="http://www.w3.org/1999/xlink" x="0px" y="0px"
	 viewBox="0 0 500 387" style="enable-background:new 0 0 500 387;" xml:space="preserve">
<style type="text/css">
	.st0{fill:none;}
	.st1{fill:#2CBBED;}
	.st2{clip-path:url(#SVGID_2_);fill:#2CBBED;}
	.st3{clip-path:url(#SVGID_4_);}
	.st4{clip-path:url(#SVGID_6_);}
	.st5{clip-path:url(#SVGID_8_);fill:#FFFFFF;}
	.st6{opacity:0.5;fill:#FFFFFF;enable-background:new    ;}
	.st7{fill:#FFFFFF;}
	.st8{clip-path:url(#SVGID_10_);}
	.st9{fill:none;stroke:#5C5A61;stroke-width:8.7142;stroke-miterlimit:10;}
	.st10{clip-path:url(#SVGID_12_);fill:#FFFFFF;}
	.st11{clip-path:url(#SVGID_14_);}
	.st12{fill:#5C5A61;}
	.st13{enable-background:new    ;}
</style>
<rect y="1" class="st0" width="501" height="385"/>
<path class="st1" d="M426,363.3H73c-27.6,0-50-22.4-50-50V153c0-27.6,22.4-50,50-50h353c27.6,0,50,22.4,50,50v160.3
	C476,340.9,453.6,363.3,426,363.3z"/>
<rect y="1" class="st0" width="501" height="385"/>
<g>
	<g>
		<g>
			<g>
				<defs>
					<rect id="SVGID_1_" y="1" width="501" height="385"/>
				</defs>
				<clipPath id="SVGID_2_">
					<use xlink:href="#SVGID_1_"  style="overflow:visible;"/>
				</clipPath>
				<circle class="st2" cx="242.2" cy="103.9" r="79.9"/>
			</g>
		</g>
	</g>
	<g>
		<g>
			<g>
				<defs>
					<rect id="SVGID_3_" y="1" width="501" height="385"/>
				</defs>
				<clipPath id="SVGID_4_">
					<use xlink:href="#SVGID_3_"  style="overflow:visible;"/>
				</clipPath>
				<g class="st3">
					<g>
						<g>
							<g>
								<g>
									<g>
										<g>
											<defs>
												<circle id="SVGID_5_" cx="242.2" cy="103.8" r="73.6"/>
											</defs>
											<clipPath id="SVGID_6_">
												<use xlink:href="#SVGID_5_"  style="overflow:visible;"/>
											</clipPath>
											<g class="st4">
												<g>
													<g>
														<g>
															<g>
																<g>
																	<g>
																		<g>
																			<defs>
																				<polygon id="SVGID_7_" points="131.9,37.8 308.3,185.8 218.1,185.8 131.9,113.3 																				"/>
																			</defs>
																			<clipPath id="SVGID_8_">
																				<use xlink:href="#SVGID_7_"  style="overflow:visible;"/>
																			</clipPath>
																			<path class="st5" d="M242.2,30.2c-40.6,0-73.6,32.9-73.6,73.6c0,40.6,32.9,73.6,73.6,73.6s73.6-32.9,73.6-73.6
																				S282.8,30.2,242.2,30.2z M242.2,167.9c-35.4,0-64.1-28.7-64.1-64.1s28.7-64.2,64.1-64.2s64.1,28.7,64.1,64.2
																				C306.3,139.2,277.6,167.9,242.2,167.9z"/>
																		</g>
																	</g>
																</g>
															</g>
														</g>
													</g>
												</g>
												<path class="st6" d="M242.2,30.2c-40.6,0-73.6,32.9-73.6,73.6c0,40.6,32.9,73.6,73.6,73.6s73.6-32.9,73.6-73.6
													S282.8,30.2,242.2,30.2z"/>
												<path class="st7" d="M242.2,47.4c-31.1,0-56.4,25.2-56.4,56.4s25.2,56.4,56.4,56.4c31.1,0,56.4-25.2,56.4-56.4
													C298.5,72.6,273.3,47.4,242.2,47.4z"/>
											</g>
										</g>
									</g>
								</g>
							</g>
						</g>
					</g>
				</g>
			</g>
		</g>
	</g>
	<g>
		<g>
			<g>
				<defs>
					<rect id="SVGID_9_" y="1" width="501" height="385"/>
				</defs>
				<clipPath id="SVGID_10_">
					<use xlink:href="#SVGID_9_"  style="overflow:visible;"/>
				</clipPath>
				<g class="st8">
					<path class="st9" d="M242.2,66c-20.9,0-37.8,16.9-37.8,37.8s16.9,37.7,37.8,37.7s37.8-16.9,37.8-37.8S263,66,242.2,66z"/>
					<path class="st9" d="M242.2,84.4c-10.7,0-19.4,8.7-19.4,19.4s8.7,19.4,19.4,19.4s19.4-8.7,19.4-19.4S252.9,84.4,242.2,84.4z"/>
				</g>
			</g>
		</g>
	</g>
	<g>
		<g>
			<g>
				<defs>
					<rect id="SVGID_11_" y="1" width="501" height="385"/>
				</defs>
				<clipPath id="SVGID_12_">
					<use xlink:href="#SVGID_11_"  style="overflow:visible;"/>
				</clipPath>
				<path class="st10" d="M242.2,47.4c-31.1,0-56.4,25.2-56.4,56.4s25.2,56.4,56.4,56.4c31.1,0,56.4-25.2,56.4-56.4
					C298.5,72.6,273.3,47.4,242.2,47.4z"/>
			</g>
		</g>
	</g>
	<g>
		<g>
			<g>
				<defs>
					<rect id="SVGID_13_" y="1" width="501" height="385"/>
				</defs>
				<clipPath id="SVGID_14_">
					<use xlink:href="#SVGID_13_"  style="overflow:visible;"/>
				</clipPath>
				<g class="st11">
					<path class="st12" d="M228.3,104.7c3.8,3.8,8.8,6.2,14.2,6.2c4.8,0,9.2-1.8,12.9-4.9l12.5,2.6c2.1-52.8-25.4-49.3-25.4-49.3
						c-29.6-0.9-24.9,49.6-24.9,49.6L228.3,104.7z M247.1,77.8c2.3,5.8,9.9,6.9,13.4,7.1l-3.5,16.2c-3.6,4.6-8.8,7.5-14.6,7.5
						c-6.2,0-11.8-3.4-15.5-8.8l-2.6-16C237.4,87,247.1,77.8,247.1,77.8z"/>
					<path class="st12" d="M283,133.3c0.3-2.3,0.1-6-2.6-9.9c-5.1-10.1-16.4-13.9-25.2-15.4l-2.2,2.9c-9.5,4-16.9,2-20.3,0.5
						l-2.6-3.3c-8.5,1.4-19.1,5.1-24.4,14.3c-4,5-3.7,9.6-3.2,12c0,0.5,0,1,0,1.5h0.5h79.5h0.7C283.1,134.9,283.1,134.1,283,133.3z
						 M242.7,124.2l-8.1-10.5c1.9,0.6,4.4,1.1,7.4,1.1c2.7,0,5.8-0.4,9.2-1.6L242.7,124.2z"/>
				</g>
			</g>
		</g>
	</g>
</g>
<g class="st13">
	<path class="st7" d="M44.6,223.9c0-0.9-0.3-1.6-0.9-2c-0.6-0.5-1.8-1-3.4-1.5c-1.6-0.5-2.9-1-3.9-1.6c-2.6-1.4-3.9-3.3-3.9-5.7
		c0-1.2,0.3-2.3,1-3.3c0.7-1,1.7-1.7,3-2.3c1.3-0.5,2.8-0.8,4.4-0.8c1.6,0,3.1,0.3,4.4,0.9c1.3,0.6,2.3,1.4,3,2.5
		c0.7,1.1,1.1,2.3,1.1,3.7h-4.7c0-1-0.3-1.9-1-2.4s-1.6-0.9-2.8-0.9c-1.2,0-2,0.2-2.7,0.7c-0.6,0.5-1,1.1-1,1.9
		c0,0.7,0.4,1.4,1.1,1.9c0.7,0.5,1.9,1,3.3,1.4c2.7,0.8,4.6,1.8,5.9,3c1.2,1.2,1.8,2.7,1.8,4.5c0,2-0.7,3.5-2.2,4.7
		c-1.5,1.1-3.5,1.7-6,1.7c-1.8,0-3.4-0.3-4.8-1c-1.4-0.6-2.5-1.5-3.3-2.6s-1.1-2.4-1.1-3.9h4.7c0,2.5,1.5,3.8,4.5,3.8
		c1.1,0,2-0.2,2.6-0.7C44.3,225.3,44.6,224.7,44.6,223.9z"/>
	<path class="st7" d="M51.5,221.2c0-1.7,0.3-3.2,1-4.5c0.6-1.3,1.6-2.3,2.8-3.1s2.6-1.1,4.2-1.1c2.3,0,4.2,0.7,5.6,2.1
		c1.4,1.4,2.3,3.3,2.4,5.7l0,1.2c0,2.6-0.7,4.7-2.2,6.3c-1.5,1.6-3.4,2.4-5.9,2.4s-4.4-0.8-5.9-2.4c-1.5-1.6-2.2-3.7-2.2-6.4V221.2z
		 M56.1,221.6c0,1.6,0.3,2.8,0.9,3.7c0.6,0.9,1.5,1.3,2.6,1.3c1.1,0,2-0.4,2.6-1.3c0.6-0.8,0.9-2.2,0.9-4.1c0-1.6-0.3-2.8-0.9-3.7
		c-0.6-0.9-1.5-1.3-2.6-1.3c-1.1,0-2,0.4-2.6,1.3C56.4,218.4,56.1,219.7,56.1,221.6z"/>
	<path class="st7" d="M76.5,223.5l3.1-10.6h4.9l-6.8,19.6l-0.4,0.9c-1,2.2-2.7,3.3-5,3.3c-0.7,0-1.3-0.1-2-0.3V233l0.7,0
		c0.9,0,1.5-0.1,1.9-0.4c0.4-0.3,0.8-0.7,1-1.3l0.5-1.4l-6-17h4.9L76.5,223.5z"/>
	<path class="st7" d="M99.8,208.7v4.2h2.9v3.3h-2.9v8.5c0,0.6,0.1,1.1,0.4,1.4c0.2,0.3,0.7,0.4,1.4,0.4c0.5,0,0.9,0,1.3-0.1v3.4
		c-0.9,0.3-1.8,0.4-2.7,0.4c-3.2,0-4.8-1.6-4.9-4.8v-9.2h-2.5v-3.3h2.5v-4.2H99.8z"/>
	<path class="st7" d="M115.4,228.2c-1.1,1.4-2.7,2-4.6,2c-1.8,0-3.2-0.5-4.2-1.6c-1-1-1.4-2.6-1.5-4.6v-11.1h4.5v11
		c0,1.8,0.8,2.7,2.4,2.7c1.5,0,2.6-0.5,3.2-1.6v-12h4.6v17h-4.3L115.4,228.2z"/>
	<path class="st7" d="M146.5,221.6c0,2.6-0.6,4.7-1.8,6.3c-1.2,1.6-2.8,2.4-4.8,2.4c-1.7,0-3.1-0.6-4.2-1.8v8h-4.5v-23.5h4.2
		l0.2,1.7c1.1-1.3,2.5-2,4.3-2c2.1,0,3.7,0.8,4.9,2.3c1.2,1.5,1.7,3.7,1.7,6.4V221.6z M142,221.2c0-1.6-0.3-2.8-0.8-3.7
		s-1.4-1.3-2.4-1.3c-1.4,0-2.4,0.5-2.9,1.6v7c0.6,1.1,1.5,1.7,3,1.7C140.9,226.5,142,224.8,142,221.2z"/>
	<path class="st7" d="M158.9,217.2c-0.6-0.1-1.2-0.1-1.6-0.1c-1.7,0-2.8,0.6-3.4,1.7v11.1h-4.5v-17h4.3l0.1,2
		c0.9-1.6,2.2-2.3,3.8-2.3c0.5,0,1,0.1,1.4,0.2L158.9,217.2z"/>
	<path class="st7" d="M159.8,221.2c0-1.7,0.3-3.2,1-4.5c0.6-1.3,1.6-2.3,2.8-3.1s2.6-1.1,4.2-1.1c2.3,0,4.2,0.7,5.6,2.1
		c1.4,1.4,2.3,3.3,2.4,5.7l0,1.2c0,2.6-0.7,4.7-2.2,6.3c-1.5,1.6-3.4,2.4-5.9,2.4s-4.4-0.8-5.9-2.4c-1.5-1.6-2.2-3.7-2.2-6.4V221.2z
		 M164.3,221.6c0,1.6,0.3,2.8,0.9,3.7c0.6,0.9,1.5,1.3,2.6,1.3c1.1,0,2-0.4,2.6-1.3c0.6-0.8,0.9-2.2,0.9-4.1c0-1.6-0.3-2.8-0.9-3.7
		c-0.6-0.9-1.5-1.3-2.6-1.3c-1.1,0-2,0.4-2.6,1.3C164.6,218.4,164.3,219.7,164.3,221.6z"/>
	<path class="st7" d="M179.9,229.9v-13.7h-2.5v-3.3h2.5v-1.4c0-1.9,0.5-3.4,1.6-4.4c1.1-1.1,2.6-1.6,4.6-1.6c0.6,0,1.4,0.1,2.3,0.3
		l0,3.5c-0.4-0.1-0.8-0.1-1.4-0.1c-1.7,0-2.6,0.8-2.6,2.4v1.4h3.4v3.3h-3.4v13.7H179.9z"/>
	<path class="st7" d="M197.6,230.2c-2.5,0-4.5-0.8-6.1-2.3c-1.6-1.5-2.3-3.6-2.3-6.1v-0.4c0-1.7,0.3-3.2,1-4.6
		c0.7-1.3,1.6-2.4,2.8-3.1c1.2-0.7,2.6-1.1,4.1-1.1c2.3,0,4.2,0.7,5.5,2.2s2,3.5,2,6.2v1.9h-10.8c0.1,1.1,0.6,2,1.3,2.7
		c0.7,0.7,1.7,1,2.8,1c1.7,0,3.1-0.6,4.1-1.9l2.2,2.5c-0.7,1-1.6,1.7-2.8,2.3C200.3,229.9,199.1,230.2,197.6,230.2z M197.1,216.2
		c-0.9,0-1.6,0.3-2.2,0.9c-0.6,0.6-0.9,1.5-1.1,2.6h6.3v-0.4c0-1-0.3-1.8-0.8-2.3C198.8,216.5,198.1,216.2,197.1,216.2z"/>
	<path class="st7" d="M216.4,225.2c0-0.6-0.3-1-0.8-1.3s-1.4-0.6-2.6-0.9c-4-0.8-6.1-2.6-6.1-5.2c0-1.5,0.6-2.8,1.9-3.8
		c1.3-1,2.9-1.5,4.9-1.5c2.2,0,3.9,0.5,5.2,1.5c1.3,1,1.9,2.3,1.9,4h-4.5c0-0.6-0.2-1.2-0.6-1.6s-1.1-0.6-2-0.6
		c-0.8,0-1.4,0.2-1.8,0.5c-0.4,0.3-0.6,0.8-0.6,1.3c0,0.5,0.2,0.9,0.7,1.2c0.5,0.3,1.3,0.6,2.4,0.8c1.1,0.2,2.1,0.5,2.9,0.8
		c2.4,0.9,3.6,2.4,3.6,4.6c0,1.5-0.7,2.8-2,3.8c-1.3,1-3,1.4-5.2,1.4c-1.4,0-2.7-0.3-3.8-0.8s-2-1.2-2.6-2.1s-0.9-1.8-0.9-2.9h4.3
		c0,0.8,0.3,1.4,0.9,1.9c0.6,0.4,1.3,0.6,2.2,0.6c0.9,0,1.5-0.2,2-0.5C216.2,226.2,216.4,225.7,216.4,225.2z"/>
	<path class="st7" d="M223,221.2c0-1.7,0.3-3.2,1-4.5c0.6-1.3,1.6-2.3,2.8-3.1s2.6-1.1,4.2-1.1c2.3,0,4.2,0.7,5.6,2.1
		c1.4,1.4,2.3,3.3,2.4,5.7l0,1.2c0,2.6-0.7,4.7-2.2,6.3c-1.5,1.6-3.4,2.4-5.9,2.4s-4.4-0.8-5.9-2.4c-1.5-1.6-2.2-3.7-2.2-6.4V221.2z
		 M227.6,221.6c0,1.6,0.3,2.8,0.9,3.7c0.6,0.9,1.5,1.3,2.6,1.3c1.1,0,2-0.4,2.6-1.3c0.6-0.8,0.9-2.2,0.9-4.1c0-1.6-0.3-2.8-0.9-3.7
		c-0.6-0.9-1.5-1.3-2.6-1.3c-1.1,0-2,0.4-2.6,1.3C227.9,218.4,227.6,219.7,227.6,221.6z"/>
	<path class="st7" d="M251.5,217.2c-0.6-0.1-1.2-0.1-1.6-0.1c-1.7,0-2.8,0.6-3.4,1.7v11.1h-4.5v-17h4.3l0.1,2
		c0.9-1.6,2.2-2.3,3.8-2.3c0.5,0,1,0.1,1.4,0.2L251.5,217.2z"/>
	<path class="st7" d="M263,229.9c-0.2-0.4-0.4-0.9-0.5-1.5c-1.1,1.2-2.5,1.8-4.3,1.8c-1.7,0-3-0.5-4.1-1.4c-1.1-1-1.6-2.2-1.6-3.6
		c0-1.8,0.7-3.2,2-4.1c1.3-1,3.3-1.4,5.8-1.5h2.1v-1c0-0.8-0.2-1.4-0.6-1.9c-0.4-0.5-1-0.7-1.9-0.7c-0.8,0-1.4,0.2-1.8,0.5
		c-0.4,0.4-0.7,0.9-0.7,1.5h-4.5c0-1,0.3-1.9,0.9-2.7c0.6-0.8,1.5-1.5,2.6-2c1.1-0.5,2.4-0.7,3.7-0.7c2.1,0,3.8,0.5,5,1.6
		c1.2,1.1,1.8,2.5,1.8,4.4v7.4c0,1.6,0.2,2.8,0.7,3.7v0.3H263z M259.3,226.7c0.7,0,1.3-0.1,1.9-0.4c0.6-0.3,1-0.7,1.3-1.2v-2.9h-1.7
		c-2.3,0-3.5,0.8-3.6,2.4l0,0.3c0,0.6,0.2,1,0.6,1.4C258,226.6,258.6,226.7,259.3,226.7z"/>
	<path class="st7" d="M271.9,231.9h-3.4l8.4-24.8h3.4L271.9,231.9z"/>
	<path class="st7" d="M281.7,221.2c0-1.7,0.3-3.2,1-4.5c0.6-1.3,1.6-2.3,2.8-3.1s2.6-1.1,4.2-1.1c2.3,0,4.2,0.7,5.6,2.1
		c1.5,1.4,2.3,3.3,2.4,5.7l0,1.2c0,2.6-0.7,4.7-2.2,6.3c-1.5,1.6-3.4,2.4-5.9,2.4c-2.5,0-4.4-0.8-5.9-2.4c-1.5-1.6-2.2-3.7-2.2-6.4
		V221.2z M286.3,221.6c0,1.6,0.3,2.8,0.9,3.7s1.5,1.3,2.6,1.3c1.1,0,2-0.4,2.6-1.3c0.6-0.8,0.9-2.2,0.9-4.1c0-1.6-0.3-2.8-0.9-3.7
		c-0.6-0.9-1.5-1.3-2.6-1.3c-1.1,0-2,0.4-2.6,1.3C286.6,218.4,286.3,219.7,286.3,221.6z"/>
	<path class="st7" d="M310.2,217.2c-0.6-0.1-1.2-0.1-1.6-0.1c-1.7,0-2.8,0.6-3.4,1.7v11.1h-4.5v-17h4.3l0.1,2
		c0.9-1.6,2.2-2.3,3.8-2.3c0.5,0,1,0.1,1.4,0.2L310.2,217.2z"/>
	<path class="st7" d="M329.2,221.9h-8.8v-3.7h8.8V221.9z"/>
	<path class="st7" d="M346.3,208.7v4.2h2.9v3.3h-2.9v8.5c0,0.6,0.1,1.1,0.4,1.4s0.7,0.4,1.4,0.4c0.5,0,0.9,0,1.3-0.1v3.4
		c-0.9,0.3-1.8,0.4-2.7,0.4c-3.2,0-4.8-1.6-4.9-4.8v-9.2h-2.5v-3.3h2.5v-4.2H346.3z"/>
	<path class="st7" d="M361.9,228.2c-1.1,1.4-2.7,2-4.6,2c-1.8,0-3.2-0.5-4.2-1.6c-1-1-1.4-2.6-1.5-4.6v-11.1h4.5v11
		c0,1.8,0.8,2.7,2.4,2.7c1.5,0,2.6-0.5,3.2-1.6v-12h4.6v17H362L361.9,228.2z"/>
	<path class="st7" d="M375.2,208.7v4.2h2.9v3.3h-2.9v8.5c0,0.6,0.1,1.1,0.4,1.4c0.2,0.3,0.7,0.4,1.4,0.4c0.5,0,0.9,0,1.3-0.1v3.4
		c-0.9,0.3-1.8,0.4-2.7,0.4c-3.2,0-4.8-1.6-4.9-4.8v-9.2h-2.5v-3.3h2.5v-4.2H375.2z"/>
	<path class="st7" d="M379.4,221.2c0-1.7,0.3-3.2,1-4.5c0.6-1.3,1.6-2.3,2.8-3.1s2.6-1.1,4.2-1.1c2.3,0,4.2,0.7,5.6,2.1
		c1.4,1.4,2.3,3.3,2.4,5.7l0,1.2c0,2.6-0.7,4.7-2.2,6.3c-1.5,1.6-3.4,2.4-5.9,2.4c-2.4,0-4.4-0.8-5.9-2.4c-1.5-1.6-2.2-3.7-2.2-6.4
		V221.2z M384,221.6c0,1.6,0.3,2.8,0.9,3.7c0.6,0.9,1.5,1.3,2.6,1.3c1.1,0,2-0.4,2.6-1.3c0.6-0.8,0.9-2.2,0.9-4.1
		c0-1.6-0.3-2.8-0.9-3.7c-0.6-0.9-1.5-1.3-2.6-1.3c-1.1,0-2,0.4-2.6,1.3C384.3,218.4,384,219.7,384,221.6z"/>
	<path class="st7" d="M407.9,217.2c-0.6-0.1-1.2-0.1-1.6-0.1c-1.7,0-2.8,0.6-3.4,1.7v11.1h-4.5v-17h4.3l0.1,2
		c0.9-1.6,2.2-2.3,3.8-2.3c0.5,0,1,0.1,1.4,0.2L407.9,217.2z"/>
	<path class="st7" d="M419.4,229.9c-0.2-0.4-0.4-0.9-0.5-1.5c-1.1,1.2-2.5,1.8-4.3,1.8c-1.7,0-3-0.5-4.1-1.4c-1.1-1-1.6-2.2-1.6-3.6
		c0-1.8,0.7-3.2,2-4.1c1.3-1,3.3-1.4,5.8-1.5h2.1v-1c0-0.8-0.2-1.4-0.6-1.9c-0.4-0.5-1-0.7-1.9-0.7c-0.8,0-1.4,0.2-1.8,0.5
		c-0.4,0.4-0.7,0.9-0.7,1.5h-4.5c0-1,0.3-1.9,0.9-2.7c0.6-0.8,1.5-1.5,2.6-2c1.1-0.5,2.4-0.7,3.7-0.7c2.1,0,3.8,0.5,5,1.6
		c1.2,1.1,1.8,2.5,1.8,4.4v7.4c0,1.6,0.2,2.8,0.7,3.7v0.3H419.4z M415.7,226.7c0.7,0,1.3-0.1,1.9-0.4c0.6-0.3,1-0.7,1.3-1.2v-2.9
		h-1.7c-2.3,0-3.5,0.8-3.6,2.4l0,0.3c0,0.6,0.2,1,0.6,1.4C414.4,226.6,415,226.7,415.7,226.7z"/>
	<path class="st7" d="M428.2,231.9h-3.4l8.4-24.8h3.4L428.2,231.9z"/>
	<path class="st7" d="M438.1,221.2c0-1.7,0.3-3.2,1-4.5c0.6-1.3,1.6-2.3,2.8-3.1s2.6-1.1,4.2-1.1c2.3,0,4.2,0.7,5.6,2.1
		c1.5,1.4,2.3,3.3,2.4,5.7l0,1.2c0,2.6-0.7,4.7-2.2,6.3c-1.5,1.6-3.4,2.4-5.9,2.4c-2.5,0-4.4-0.8-5.9-2.4c-1.5-1.6-2.2-3.7-2.2-6.4
		V221.2z M442.7,221.6c0,1.6,0.3,2.8,0.9,3.7s1.5,1.3,2.6,1.3c1.1,0,2-0.4,2.6-1.3c0.6-0.8,0.9-2.2,0.9-4.1c0-1.6-0.3-2.8-0.9-3.7
		c-0.6-0.9-1.5-1.3-2.6-1.3c-1.1,0-2,0.4-2.6,1.3C443,218.4,442.7,219.7,442.7,221.6z"/>
	<path class="st7" d="M466.6,217.2c-0.6-0.1-1.2-0.1-1.6-0.1c-1.7,0-2.8,0.6-3.4,1.7v11.1H457v-17h4.3l0.1,2
		c0.9-1.6,2.2-2.3,3.8-2.3c0.5,0,1,0.1,1.4,0.2L466.6,217.2z"/>
</g>
<g class="st13">
	<path class="st7" d="M116.9,268.6c0,1.5-0.2,2.6-0.5,3.5c-0.3,0.9-0.9,1.7-1.7,2.7l-1.8,1.9c-1.1,1.1-1.6,2.3-1.6,3.6
		c0,1.1,0.3,1.9,0.9,2.5c0.6,0.5,1.4,0.8,2.4,0.8c1,0,1.9-0.3,2.5-0.9s0.9-1.4,0.9-2.3h4.3c0,2.1-0.7,3.7-2.1,4.9s-3.2,1.8-5.5,1.8
		c-2.4,0-4.3-0.6-5.6-1.8s-2-2.8-2-5c0-1.9,0.9-3.9,2.7-5.8l1.6-1.6c0.9-0.8,1.4-1.9,1.5-3.3l0-0.9H116.9z M117.2,263.1
		c0,0.7-0.2,1.2-0.6,1.6c-0.4,0.4-1,0.7-1.8,0.7s-1.4-0.2-1.8-0.7c-0.4-0.4-0.6-1-0.6-1.6c0-0.6,0.2-1.2,0.6-1.6
		c0.4-0.4,1-0.7,1.8-0.7s1.4,0.2,1.8,0.7C117,261.9,117.2,262.5,117.2,263.1z"/>
	<path class="st7" d="M146.2,280.2h-4.4L130.4,262v18.2h-4.4v-25.6h4.4l11.4,18.2v-18.2h4.4V280.2z"/>
	<path class="st7" d="M159.4,280.6c-2.7,0-4.9-0.9-6.6-2.6s-2.5-4-2.5-6.8v-0.5c0-1.9,0.4-3.6,1.1-5.1s1.8-2.7,3.1-3.5
		s2.8-1.2,4.4-1.2c2.6,0,4.6,0.8,6,2.5s2.1,4,2.1,7v1.7h-12.4c0.1,1.6,0.7,2.8,1.6,3.7s2.1,1.4,3.5,1.4c2,0,3.6-0.8,4.8-2.4l2.3,2.2
		c-0.8,1.1-1.8,2-3,2.6S161,280.6,159.4,280.6z M158.9,264.3c-1.2,0-2.1,0.4-2.8,1.2s-1.2,2-1.4,3.4h8.1v-0.3
		c-0.1-1.4-0.5-2.5-1.1-3.2S160.1,264.3,158.9,264.3z"/>
	<path class="st7" d="M178.2,277.1c1.1,0,2-0.3,2.7-0.9s1.1-1.4,1.1-2.3h4c0,1.2-0.4,2.3-1.1,3.3s-1.6,1.8-2.8,2.4s-2.5,0.9-3.8,0.9
		c-2.7,0-4.8-0.9-6.3-2.6s-2.3-4.1-2.3-7.1v-0.4c0-2.9,0.8-5.2,2.3-7s3.7-2.6,6.3-2.6c2.3,0,4.1,0.7,5.5,2s2.2,3,2.2,5.2h-4
		c0-1.1-0.4-2-1.1-2.7s-1.6-1.1-2.7-1.1c-1.4,0-2.4,0.5-3.2,1.5s-1.1,2.5-1.1,4.6v0.7c0,2.1,0.4,3.6,1.1,4.6
		S176.8,277.1,178.2,277.1z"/>
	<path class="st7" d="M197.6,280.6c-2.7,0-4.9-0.9-6.6-2.6s-2.5-4-2.5-6.8v-0.5c0-1.9,0.4-3.6,1.1-5.1s1.8-2.7,3.1-3.5
		s2.8-1.2,4.4-1.2c2.6,0,4.6,0.8,6,2.5s2.1,4,2.1,7v1.7h-12.4c0.1,1.6,0.7,2.8,1.6,3.7s2.1,1.4,3.5,1.4c2,0,3.6-0.8,4.8-2.4l2.3,2.2
		c-0.8,1.1-1.8,2-3,2.6S199.2,280.6,197.6,280.6z M197.1,264.3c-1.2,0-2.1,0.4-2.8,1.2s-1.2,2-1.4,3.4h8.1v-0.3
		c-0.1-1.4-0.5-2.5-1.1-3.2S198.3,264.3,197.1,264.3z"/>
	<path class="st7" d="M219.2,275c0-0.8-0.3-1.3-0.9-1.7s-1.7-0.8-3.1-1.1s-2.7-0.7-3.6-1.2c-2.1-1-3.2-2.5-3.2-4.5
		c0-1.6,0.7-3,2.1-4.1s3.1-1.7,5.3-1.7c2.3,0,4.1,0.6,5.5,1.7s2.1,2.6,2.1,4.4H219c0-0.8-0.3-1.5-0.9-2s-1.4-0.8-2.4-0.8
		c-0.9,0-1.7,0.2-2.3,0.7s-0.9,1-0.9,1.7c0,0.7,0.3,1.2,0.8,1.5s1.7,0.7,3.3,1.1s3,0.8,3.9,1.3s1.7,1.1,2.1,1.8s0.7,1.6,0.7,2.6
		c0,1.7-0.7,3.1-2.1,4.2s-3.3,1.6-5.6,1.6c-1.6,0-2.9-0.3-4.2-0.8s-2.2-1.3-2.8-2.3s-1-2-1-3.2h4.1c0.1,1,0.4,1.8,1.1,2.3
		s1.6,0.8,2.8,0.8c1.1,0,2-0.2,2.6-0.6S219.2,275.7,219.2,275z"/>
	<path class="st7" d="M227.1,256.2c0-0.7,0.2-1.2,0.6-1.6s1-0.7,1.8-0.7s1.4,0.2,1.8,0.7s0.6,1,0.6,1.6c0,0.6-0.2,1.2-0.6,1.6
		s-1,0.6-1.8,0.6s-1.4-0.2-1.8-0.6S227.1,256.9,227.1,256.2z M231.7,280.2h-4.3v-19h4.3V280.2z"/>
	<path class="st7" d="M241.7,256.6v4.6h3.4v3.2h-3.4V275c0,0.7,0.1,1.3,0.4,1.6s0.8,0.5,1.5,0.5c0.5,0,1-0.1,1.5-0.2v3.3
		c-1,0.3-1.9,0.4-2.8,0.4c-3.3,0-4.9-1.8-4.9-5.4v-10.8h-3.1v-3.2h3.1v-4.6H241.7z"/>
	<path class="st7" d="M259.6,280.2c-0.2-0.4-0.4-1-0.5-1.8c-1.4,1.4-3,2.1-5,2.1c-1.9,0-3.5-0.5-4.7-1.6s-1.8-2.4-1.8-4
		c0-2,0.8-3.6,2.3-4.7c1.5-1.1,3.7-1.6,6.5-1.6h2.6v-1.2c0-1-0.3-1.8-0.8-2.4s-1.4-0.9-2.5-0.9c-1,0-1.8,0.2-2.4,0.7
		s-0.9,1.1-0.9,1.9h-4.3c0-1,0.3-2,1-2.9s1.6-1.6,2.8-2.1c1.2-0.5,2.5-0.8,4-0.8c2.2,0,4,0.6,5.3,1.7s2,2.7,2,4.7v8.6
		c0,1.7,0.2,3.1,0.7,4.1v0.3H259.6z M254.9,277.1c0.8,0,1.6-0.2,2.4-0.6s1.3-1,1.7-1.7v-3.6h-2.3c-1.6,0-2.8,0.3-3.6,0.8
		s-1.2,1.3-1.2,2.3c0,0.8,0.3,1.5,0.8,2S254,277.1,254.9,277.1z"/>
	<path class="st7" d="M278.4,275c0-0.8-0.3-1.3-0.9-1.7s-1.7-0.8-3.1-1.1s-2.7-0.7-3.6-1.2c-2.1-1-3.2-2.5-3.2-4.5
		c0-1.6,0.7-3,2.1-4.1s3.1-1.7,5.3-1.7c2.3,0,4.1,0.6,5.5,1.7s2.1,2.6,2.1,4.4h-4.3c0-0.8-0.3-1.5-0.9-2s-1.4-0.8-2.4-0.8
		c-0.9,0-1.7,0.2-2.3,0.7s-0.9,1-0.9,1.7c0,0.7,0.3,1.2,0.8,1.5s1.7,0.7,3.3,1.1s3,0.8,3.9,1.3s1.7,1.1,2.1,1.8s0.7,1.6,0.7,2.6
		c0,1.7-0.7,3.1-2.1,4.2s-3.3,1.6-5.6,1.6c-1.6,0-2.9-0.3-4.2-0.8s-2.2-1.3-2.8-2.3s-1-2-1-3.2h4.1c0.1,1,0.4,1.8,1.1,2.3
		s1.6,0.8,2.8,0.8c1.1,0,2-0.2,2.6-0.6S278.4,275.7,278.4,275z"/>
	<path class="st7" d="M306.7,280.2c-0.2-0.4-0.4-1-0.5-1.8c-1.4,1.4-3,2.1-5,2.1c-1.9,0-3.5-0.5-4.7-1.6s-1.8-2.4-1.8-4
		c0-2,0.8-3.6,2.3-4.7s3.7-1.6,6.5-1.6h2.6v-1.2c0-1-0.3-1.8-0.8-2.4s-1.4-0.9-2.5-0.9c-1,0-1.8,0.2-2.4,0.7s-0.9,1.1-0.9,1.9h-4.3
		c0-1,0.3-2,1-2.9s1.6-1.6,2.8-2.1s2.5-0.8,4-0.8c2.2,0,4,0.6,5.3,1.7s2,2.7,2,4.7v8.6c0,1.7,0.2,3.1,0.7,4.1v0.3H306.7z M302,277.1
		c0.8,0,1.6-0.2,2.4-0.6s1.3-1,1.7-1.7v-3.6h-2.3c-1.6,0-2.8,0.3-3.6,0.8s-1.2,1.3-1.2,2.3c0,0.8,0.3,1.5,0.8,2
		S301.1,277.1,302,277.1z"/>
	<path class="st7" d="M321.2,274.1l3.9-12.9h4.6l-7.6,21.9c-1.2,3.2-3.1,4.8-5.9,4.8c-0.6,0-1.3-0.1-2.1-0.3v-3.3l0.8,0.1
		c1.1,0,1.9-0.2,2.4-0.6c0.5-0.4,1-1.1,1.3-2l0.6-1.6l-6.7-18.9h4.6L321.2,274.1z"/>
	<path class="st7" d="M343.6,278.3c-1.3,1.5-3,2.2-5.3,2.2c-2.1,0-3.6-0.6-4.7-1.8s-1.6-3-1.6-5.2v-12.3h4.3v12.3c0,2.4,1,3.6,3,3.6
		c2.1,0,3.5-0.7,4.2-2.2v-13.7h4.3v19h-4L343.6,278.3z"/>
	<path class="st7" d="M351.2,270.5c0-2.9,0.7-5.3,2-7.1s3.2-2.7,5.5-2.7c2,0,3.6,0.7,4.9,2.1v-9.7h4.3v27H364l-0.2-2
		c-1.3,1.5-3,2.3-5.1,2.3c-2.2,0-4-0.9-5.4-2.7S351.2,273.6,351.2,270.5z M355.5,270.9c0,1.9,0.4,3.4,1.1,4.5s1.8,1.6,3.2,1.6
		c1.7,0,3-0.8,3.8-2.3v-8.1c-0.8-1.5-2.1-2.3-3.8-2.3c-1.4,0-2.4,0.5-3.2,1.6S355.5,268.7,355.5,270.9z"/>
	<path class="st7" d="M383.7,280.2c-0.2-0.4-0.4-1-0.5-1.8c-1.4,1.4-3,2.1-5,2.1c-1.9,0-3.5-0.5-4.7-1.6s-1.8-2.4-1.8-4
		c0-2,0.8-3.6,2.3-4.7s3.7-1.6,6.5-1.6h2.6v-1.2c0-1-0.3-1.8-0.8-2.4s-1.4-0.9-2.5-0.9c-1,0-1.8,0.2-2.4,0.7s-0.9,1.1-0.9,1.9h-4.3
		c0-1,0.3-2,1-2.9s1.6-1.6,2.8-2.1s2.5-0.8,4-0.8c2.2,0,4,0.6,5.3,1.7s2,2.7,2,4.7v8.6c0,1.7,0.2,3.1,0.7,4.1v0.3H383.7z M379,277.1
		c0.8,0,1.6-0.2,2.4-0.6s1.3-1,1.7-1.7v-3.6h-2.3c-1.6,0-2.8,0.3-3.6,0.8s-1.2,1.3-1.2,2.3c0,0.8,0.3,1.5,0.8,2
		S378.1,277.1,379,277.1z"/>
	<path class="st7" d="M395.8,272.7c0-1.6,0.2-2.8,0.6-3.7s1.2-1.9,2.3-3.1s1.9-1.9,2.2-2.4c0.5-0.7,0.7-1.5,0.7-2.3
		c0-1.1-0.3-1.9-0.8-2.5s-1.3-0.9-2.4-0.9c-1,0-1.8,0.3-2.4,0.8S395,260,395,261h-4.3c0-2.1,0.7-3.7,2.1-4.9s3.2-1.8,5.5-1.8
		c2.4,0,4.2,0.6,5.5,1.8s2,2.9,2,5c0,1.9-0.9,3.8-2.7,5.6l-2.2,2.1c-0.8,0.9-1.2,2.2-1.2,3.9H395.8z M395.5,278.2
		c0-0.7,0.2-1.2,0.7-1.7c0.4-0.4,1-0.6,1.8-0.6c0.8,0,1.3,0.2,1.8,0.7c0.4,0.4,0.7,1,0.7,1.7c0,0.6-0.2,1.2-0.6,1.6
		c-0.4,0.4-1,0.6-1.8,0.6s-1.4-0.2-1.8-0.6C395.7,279.3,395.5,278.8,395.5,278.2z"/>
</g>
<g class="st13">
	<path class="st7" d="M165.1,324.4h-4.4V313h-11.4v11.4h-4.4v-25.6h4.4v10.7h11.4v-10.7h4.4V324.4z"/>
	<path class="st7" d="M181.3,324.4c-0.2-0.4-0.4-1-0.5-1.8c-1.4,1.4-3,2.1-5,2.1c-1.9,0-3.5-0.5-4.7-1.6s-1.8-2.4-1.8-4
		c0-2,0.8-3.6,2.3-4.7s3.7-1.6,6.5-1.6h2.6v-1.2c0-1-0.3-1.8-0.8-2.4s-1.4-0.9-2.5-0.9c-1,0-1.8,0.2-2.4,0.7s-0.9,1.1-0.9,1.9h-4.3
		c0-1,0.3-2,1-2.9s1.6-1.6,2.8-2.1s2.5-0.8,4-0.8c2.2,0,4,0.6,5.3,1.7s2,2.7,2,4.7v8.6c0,1.7,0.2,3.1,0.7,4.1v0.3H181.3z
		 M176.6,321.3c0.8,0,1.6-0.2,2.4-0.6s1.3-1,1.7-1.7v-3.6h-2.3c-1.6,0-2.8,0.3-3.6,0.8s-1.2,1.3-1.2,2.3c0,0.8,0.3,1.5,0.8,2
		S175.7,321.3,176.6,321.3z"/>
	<path class="st7" d="M197.3,321.3c1.1,0,2-0.3,2.7-0.9s1.1-1.4,1.1-2.3h4c0,1.2-0.4,2.3-1.1,3.3s-1.6,1.8-2.8,2.4s-2.5,0.9-3.8,0.9
		c-2.7,0-4.8-0.9-6.3-2.6s-2.3-4.1-2.3-7.1v-0.4c0-2.9,0.8-5.2,2.3-7s3.7-2.6,6.3-2.6c2.3,0,4.1,0.7,5.5,2s2.2,3.1,2.2,5.2h-4
		c0-1.1-0.4-2-1.1-2.7s-1.6-1.1-2.7-1.1c-1.4,0-2.4,0.5-3.2,1.5s-1.1,2.5-1.1,4.6v0.7c0,2.1,0.4,3.6,1.1,4.6
		S195.8,321.3,197.3,321.3z"/>
	<path class="st7" d="M216.7,324.8c-2.7,0-4.9-0.9-6.6-2.6s-2.5-4-2.5-6.8v-0.5c0-1.9,0.4-3.6,1.1-5.1s1.8-2.7,3.1-3.5
		s2.8-1.2,4.4-1.2c2.6,0,4.6,0.8,6,2.5s2.1,4,2.1,7v1.7h-12.4c0.1,1.6,0.7,2.8,1.6,3.7s2.1,1.4,3.5,1.4c2,0,3.6-0.8,4.8-2.4l2.3,2.2
		c-0.8,1.1-1.8,2-3,2.6S218.2,324.8,216.7,324.8z M216.1,308.5c-1.2,0-2.1,0.4-2.8,1.2s-1.2,2-1.4,3.4h8.1v-0.3
		c-0.1-1.4-0.5-2.5-1.1-3.2S217.3,308.5,216.1,308.5z M217.1,297.4h4.9l-4.9,5.3l-3.4,0L217.1,297.4z"/>
	<path class="st7" d="M244.4,321.3c1.1,0,2-0.3,2.7-0.9s1.1-1.4,1.1-2.3h4c0,1.2-0.4,2.3-1.1,3.3s-1.6,1.8-2.8,2.4s-2.5,0.9-3.8,0.9
		c-2.7,0-4.8-0.9-6.3-2.6s-2.3-4.1-2.3-7.1v-0.4c0-2.9,0.8-5.2,2.3-7s3.7-2.6,6.3-2.6c2.3,0,4.1,0.7,5.5,2s2.2,3.1,2.2,5.2h-4
		c0-1.1-0.4-2-1.1-2.7s-1.6-1.1-2.7-1.1c-1.4,0-2.4,0.5-3.2,1.5s-1.1,2.5-1.1,4.6v0.7c0,2.1,0.4,3.6,1.1,4.6S243,321.3,244.4,321.3z
		"/>
	<path class="st7" d="M260,324.4h-4.3v-27h4.3V324.4z"/>
	<path class="st7" d="M264.6,300.4c0-0.7,0.2-1.2,0.6-1.6s1-0.7,1.8-0.7s1.4,0.2,1.8,0.7s0.6,1,0.6,1.6c0,0.6-0.2,1.2-0.6,1.6
		s-1,0.6-1.8,0.6s-1.4-0.2-1.8-0.6S264.6,301.1,264.6,300.4z M269.1,324.4h-4.3v-19h4.3V324.4z"/>
	<path class="st7" d="M281.6,321.3c1.1,0,2-0.3,2.7-0.9s1.1-1.4,1.1-2.3h4c0,1.2-0.4,2.3-1.1,3.3s-1.6,1.8-2.8,2.4s-2.5,0.9-3.8,0.9
		c-2.7,0-4.8-0.9-6.3-2.6s-2.3-4.1-2.3-7.1v-0.4c0-2.9,0.8-5.2,2.3-7s3.7-2.6,6.3-2.6c2.3,0,4.1,0.7,5.5,2s2.2,3.1,2.2,5.2h-4
		c0-1.1-0.4-2-1.1-2.7s-1.6-1.1-2.7-1.1c-1.4,0-2.4,0.5-3.2,1.5s-1.1,2.5-1.1,4.6v0.7c0,2.1,0.4,3.6,1.1,4.6
		S280.2,321.3,281.6,321.3z"/>
	<path class="st7" d="M313,324.4c-0.2-0.4-0.4-1-0.5-1.8c-1.4,1.4-3,2.1-5,2.1c-1.9,0-3.5-0.5-4.7-1.6s-1.8-2.4-1.8-4
		c0-2,0.8-3.6,2.3-4.7s3.7-1.6,6.5-1.6h2.6v-1.2c0-1-0.3-1.8-0.8-2.4s-1.4-0.9-2.5-0.9c-1,0-1.8,0.2-2.4,0.7s-0.9,1.1-0.9,1.9h-4.3
		c0-1,0.3-2,1-2.9s1.6-1.6,2.8-2.1s2.5-0.8,4-0.8c2.2,0,4,0.6,5.3,1.7s2,2.7,2,4.7v8.6c0,1.7,0.2,3.1,0.7,4.1v0.3H313z M308.3,321.3
		c0.8,0,1.6-0.2,2.4-0.6s1.3-1,1.7-1.7v-3.6H310c-1.6,0-2.8,0.3-3.6,0.8s-1.2,1.3-1.2,2.3c0,0.8,0.3,1.5,0.8,2
		S307.4,321.3,308.3,321.3z"/>
	<path class="st7" d="M320.3,314.7c0-3,0.7-5.3,2-7.1s3.2-2.6,5.5-2.6c2.1,0,3.8,0.7,5,2.2l0.2-1.9h3.8v26.3h-4.3v-8.9
		c-1.2,1.3-2.9,2-4.9,2c-2.3,0-4.1-0.9-5.5-2.7S320.3,317.9,320.3,314.7z M324.6,315.1c0,1.9,0.4,3.5,1.2,4.6s1.8,1.7,3.2,1.7
		c1.7,0,2.9-0.7,3.8-2.2v-8.6c-0.8-1.4-2.1-2.1-3.7-2.1c-1.4,0-2.4,0.5-3.2,1.6S324.6,312.9,324.6,315.1z"/>
	<path class="st7" d="M353,322.5c-1.3,1.5-3,2.2-5.3,2.2c-2.1,0-3.6-0.6-4.7-1.8s-1.6-3-1.6-5.2v-12.3h4.3v12.3c0,2.4,1,3.6,3,3.6
		c2.1,0,3.5-0.7,4.2-2.2v-13.7h4.3v19h-4L353,322.5z"/>
	<path class="st7" d="M366.1,324.4h-4.3v-19h4.3V324.4z M365.3,297.5h4.9l-4.9,5.3l-3.4,0L365.3,297.5z"/>
</g>
</svg>
