<?xml version="1.0" encoding="utf-8"?>
<!-- Generator: Adobe Illustrator 25.0.0, SVG Export Plug-In . SVG Version: 6.00 Build 0)  -->
<svg version="1.1" id="Capa_1" xmlns="http://www.w3.org/2000/svg" xmlns:xlink="http://www.w3.org/1999/xlink" x="0px" y="0px"
	 viewBox="0 0 500 387" style="enable-background:new 0 0 500 387;" xml:space="preserve">
<style type="text/css">
	.st0{fill:#2CBBED;}
	.st1{clip-path:url(#SVGID_2_);fill:#2CBBED;}
	.st2{clip-path:url(#SVGID_2_);}
	.st3{fill:#FFFFFF;}
	.st4{clip-path:url(#SVGID_3_);}
	.st5{clip-path:url(#SVGID_4_);fill:#FFFFFF;}
	.st6{opacity:0.5;fill:#FFFFFF;}
	.st7{fill:none;stroke:#5C5A61;stroke-width:8.7142;stroke-miterlimit:10;}
	.st8{fill:#5C5A61;}
</style>
<circle class="st0" cx="-303" cy="-192" r="86"/>
<rect x="-90" y="-194" class="st0" width="186" height="51"/>
<g>
	<path d="M-544,424c-2.3-0.7-3.9-1.5-5-2.4s-1.6-2.1-1.6-3.5c0-1.6,0.6-2.9,1.9-3.9c1.3-1,2.9-1.6,4.9-1.6c1.4,0,2.6,0.3,3.7,0.8
		c1.1,0.5,1.9,1.3,2.5,2.2c0.6,0.9,0.9,2,0.9,3.1h-2.7c0-1.2-0.4-2.2-1.2-2.9c-0.8-0.7-1.9-1-3.3-1c-1.3,0-2.3,0.3-3.1,0.9
		c-0.7,0.6-1.1,1.4-1.1,2.4c0,0.8,0.3,1.5,1,2.1c0.7,0.6,1.9,1.1,3.6,1.6s3,1,3.9,1.6c0.9,0.6,1.6,1.2,2.1,2s0.7,1.6,0.7,2.7
		c0,1.6-0.6,2.9-1.9,3.9c-1.3,1-3,1.5-5.1,1.5c-1.4,0-2.7-0.3-3.9-0.8c-1.2-0.5-2.1-1.3-2.8-2.2c-0.6-0.9-1-2-1-3.1h2.7
		c0,1.2,0.4,2.2,1.3,2.9c0.9,0.7,2.1,1.1,3.6,1.1c1.4,0,2.5-0.3,3.2-0.9c0.7-0.6,1.1-1.3,1.1-2.3s-0.3-1.7-1-2.3
		S-542.2,424.5-544,424z"/>
	<path d="M-534.2,425.3c0-1.5,0.3-2.8,0.9-4c0.6-1.2,1.4-2.1,2.4-2.7s2.2-1,3.5-1c2,0,3.7,0.7,4.9,2.1s1.9,3.3,1.9,5.6v0.2
		c0,1.5-0.3,2.8-0.8,3.9s-1.4,2.1-2.4,2.7c-1,0.6-2.2,1-3.6,1c-2,0-3.7-0.7-4.9-2.1c-1.3-1.4-1.9-3.3-1.9-5.6V425.3z M-531.6,425.6
		c0,1.7,0.4,3,1.2,4s1.8,1.5,3.1,1.5c1.3,0,2.3-0.5,3.1-1.5c0.8-1,1.1-2.4,1.1-4.3c0-1.6-0.4-3-1.2-4c-0.8-1-1.8-1.5-3.1-1.5
		c-1.3,0-2.3,0.5-3.1,1.5S-531.6,423.7-531.6,425.6z"/>
	<path d="M-512.7,429.2l3.5-11.2h2.7l-6,17.3c-0.9,2.5-2.4,3.7-4.4,3.7l-0.5,0l-1-0.2v-2.1l0.7,0.1c0.9,0,1.5-0.2,2-0.5
		c0.5-0.4,0.9-1,1.2-1.9l0.6-1.5l-5.3-14.8h2.8L-512.7,429.2z"/>
	<path d="M-493.7,414.3v3.6h2.8v2h-2.8v9.3c0,0.6,0.1,1,0.4,1.3c0.2,0.3,0.7,0.4,1.3,0.4c0.3,0,0.7-0.1,1.2-0.2v2.1
		c-0.7,0.2-1.3,0.3-2,0.3c-1.1,0-2-0.3-2.6-1s-0.9-1.7-0.9-2.9v-9.3h-2.7v-2h2.7v-3.6H-493.7z"/>
	<path d="M-478.7,431.4c-1,1.2-2.5,1.8-4.4,1.8c-1.6,0-2.8-0.5-3.6-1.4c-0.8-0.9-1.3-2.3-1.3-4.1V418h2.6v9.7c0,2.3,0.9,3.4,2.8,3.4
		c2,0,3.3-0.7,3.9-2.2V418h2.6v15h-2.4L-478.7,431.4z"/>
	<path d="M-461.9,414.3v3.6h2.8v2h-2.8v9.3c0,0.6,0.1,1,0.4,1.3c0.2,0.3,0.7,0.4,1.3,0.4c0.3,0,0.7-0.1,1.2-0.2v2.1
		c-0.7,0.2-1.3,0.3-2,0.3c-1.1,0-2-0.3-2.6-1s-0.9-1.7-0.9-2.9v-9.3h-2.7v-2h2.7v-3.6H-461.9z"/>
	<path d="M-446.9,431.4c-1,1.2-2.5,1.8-4.4,1.8c-1.6,0-2.8-0.5-3.6-1.4c-0.8-0.9-1.3-2.3-1.3-4.1V418h2.6v9.7c0,2.3,0.9,3.4,2.8,3.4
		c2,0,3.3-0.7,3.9-2.2V418h2.6v15h-2.4L-446.9,431.4z"/>
	<path d="M-437,414.3v3.6h2.8v2h-2.8v9.3c0,0.6,0.1,1,0.4,1.3c0.2,0.3,0.7,0.4,1.3,0.4c0.3,0,0.7-0.1,1.2-0.2v2.1
		c-0.7,0.2-1.3,0.3-2,0.3c-1.1,0-2-0.3-2.6-1s-0.9-1.7-0.9-2.9v-9.3h-2.7v-2h2.7v-3.6H-437z"/>
	<path d="M-432.2,425.3c0-1.5,0.3-2.8,0.9-4c0.6-1.2,1.4-2.1,2.4-2.7s2.2-1,3.5-1c2,0,3.7,0.7,4.9,2.1s1.9,3.3,1.9,5.6v0.2
		c0,1.5-0.3,2.8-0.8,3.9s-1.4,2.1-2.4,2.7c-1,0.6-2.2,1-3.6,1c-2,0-3.7-0.7-4.9-2.1c-1.3-1.4-1.9-3.3-1.9-5.6V425.3z M-429.6,425.6
		c0,1.7,0.4,3,1.2,4s1.8,1.5,3.1,1.5c1.3,0,2.3-0.5,3.1-1.5c0.8-1,1.1-2.4,1.1-4.3c0-1.6-0.4-3-1.2-4c-0.8-1-1.8-1.5-3.1-1.5
		c-1.3,0-2.3,0.5-3.1,1.5S-429.6,423.7-429.6,425.6z"/>
	<path d="M-408.2,420.3c-0.4-0.1-0.8-0.1-1.3-0.1c-1.7,0-2.8,0.7-3.4,2.1v10.6h-2.6v-15h2.5l0,1.7c0.8-1.3,2-2,3.6-2
		c0.5,0,0.9,0.1,1.1,0.2V420.3z"/>
	<path d="M-585.9,452.8c0,1-0.1,1.8-0.3,2.3c-0.2,0.6-0.5,1.1-0.9,1.7c-0.4,0.5-1.1,1.3-1.9,2.1s-1.3,1.8-1.4,2.7l0,0.5
		c0,1,0.3,1.8,0.8,2.3c0.5,0.5,1.3,0.8,2.3,0.8c0.9,0,1.7-0.3,2.2-0.8c0.6-0.5,0.9-1.2,0.9-2h2.6c0,1.5-0.5,2.7-1.6,3.6
		c-1,0.9-2.4,1.4-4.1,1.4c-1.8,0-3.2-0.5-4.2-1.4c-1-0.9-1.5-2.2-1.5-3.9c0-1.6,0.7-3.2,2.2-4.8l1.5-1.6c0.6-0.7,0.9-1.8,0.9-3.1
		H-585.9z M-585.8,448.4c0,0.4-0.1,0.8-0.4,1.1s-0.6,0.4-1.1,0.4s-0.9-0.1-1.1-0.4c-0.3-0.3-0.4-0.6-0.4-1.1c0-0.4,0.1-0.8,0.4-1
		c0.3-0.3,0.6-0.4,1.1-0.4s0.9,0.1,1.1,0.4C-585.9,447.6-585.8,448-585.8,448.4z"/>
	<path d="M-562.8,462.2h-2.7l-10.1-15.5v15.5h-2.7V442h2.7l10.2,15.6V442h2.6V462.2z"/>
	<path d="M-552.3,462.4c-2,0-3.7-0.7-4.9-2c-1.3-1.3-1.9-3.1-1.9-5.3v-0.5c0-1.5,0.3-2.8,0.9-4c0.6-1.2,1.4-2.1,2.4-2.7
		c1-0.7,2.1-1,3.3-1c1.9,0,3.5,0.6,4.5,1.9s1.6,3.1,1.6,5.5v1.1h-10.1c0,1.5,0.5,2.7,1.3,3.6c0.8,0.9,1.9,1.4,3.1,1.4
		c0.9,0,1.7-0.2,2.3-0.6c0.6-0.4,1.2-0.9,1.6-1.5l1.6,1.2C-547.9,461.5-549.8,462.4-552.3,462.4z M-552.6,449c-1,0-1.9,0.4-2.6,1.1
		c-0.7,0.8-1.1,1.8-1.3,3.2h7.5v-0.2c-0.1-1.3-0.4-2.3-1.1-3C-550.7,449.4-551.5,449-552.6,449z"/>
	<path d="M-537.5,460.4c0.9,0,1.7-0.3,2.4-0.8c0.7-0.6,1.1-1.2,1.1-2.1h2.4c0,0.9-0.3,1.7-0.9,2.4c-0.5,0.8-1.3,1.4-2.2,1.9
		c-0.9,0.5-1.9,0.7-2.9,0.7c-2,0-3.7-0.7-4.9-2c-1.2-1.4-1.8-3.2-1.8-5.6v-0.4c0-1.5,0.3-2.8,0.8-3.9c0.5-1.1,1.3-2,2.3-2.6
		c1-0.6,2.2-0.9,3.5-0.9c1.7,0,3.1,0.5,4.2,1.5c1.1,1,1.7,2.3,1.8,3.9h-2.4c-0.1-1-0.4-1.8-1.1-2.4c-0.7-0.6-1.5-0.9-2.4-0.9
		c-1.3,0-2.3,0.5-3,1.4c-0.7,0.9-1.1,2.3-1.1,4.1v0.5c0,1.7,0.4,3,1.1,4S-538.8,460.4-537.5,460.4z"/>
	<path d="M-522.5,462.4c-2,0-3.7-0.7-4.9-2c-1.3-1.3-1.9-3.1-1.9-5.3v-0.5c0-1.5,0.3-2.8,0.9-4c0.6-1.2,1.4-2.1,2.4-2.7
		c1-0.7,2.1-1,3.3-1c1.9,0,3.5,0.6,4.5,1.9s1.6,3.1,1.6,5.5v1.1h-10.1c0,1.5,0.5,2.7,1.3,3.6c0.8,0.9,1.9,1.4,3.1,1.4
		c0.9,0,1.7-0.2,2.3-0.6c0.6-0.4,1.2-0.9,1.6-1.5l1.6,1.2C-518.1,461.5-520,462.4-522.5,462.4z M-522.8,449c-1,0-1.9,0.4-2.6,1.1
		c-0.7,0.8-1.1,1.8-1.3,3.2h7.5v-0.2c-0.1-1.3-0.4-2.3-1.1-3C-520.9,449.4-521.7,449-522.8,449z"/>
	<path d="M-505,458.2c0-0.7-0.3-1.2-0.8-1.6s-1.4-0.7-2.7-1c-1.3-0.3-2.3-0.6-3.1-1c-0.8-0.4-1.3-0.8-1.7-1.4
		c-0.4-0.5-0.5-1.2-0.5-1.9c0-1.2,0.5-2.3,1.6-3.1c1-0.8,2.4-1.3,4-1.3c1.7,0,3.1,0.4,4.1,1.3c1.1,0.9,1.6,2,1.6,3.4h-2.6
		c0-0.7-0.3-1.3-0.9-1.8c-0.6-0.5-1.3-0.8-2.2-0.8c-0.9,0-1.7,0.2-2.2,0.6c-0.5,0.4-0.8,0.9-0.8,1.6c0,0.6,0.2,1.1,0.7,1.4
		c0.5,0.3,1.4,0.6,2.6,0.9c1.3,0.3,2.3,0.6,3.1,1c0.8,0.4,1.4,0.9,1.8,1.4c0.4,0.6,0.6,1.2,0.6,2c0,1.3-0.5,2.4-1.6,3.2
		c-1.1,0.8-2.5,1.2-4.2,1.2c-1.2,0-2.3-0.2-3.2-0.6s-1.6-1-2.2-1.8s-0.8-1.6-0.8-2.5h2.6c0,0.9,0.4,1.5,1,2c0.6,0.5,1.5,0.8,2.5,0.8
		c1,0,1.7-0.2,2.3-0.6C-505.3,459.4-505,458.9-505,458.2z"/>
	<path d="M-499.1,443.2c0-0.4,0.1-0.8,0.4-1.1c0.3-0.3,0.6-0.4,1.1-0.4s0.9,0.1,1.1,0.4c0.3,0.3,0.4,0.6,0.4,1.1
		c0,0.4-0.1,0.8-0.4,1c-0.3,0.3-0.6,0.4-1.1,0.4s-0.9-0.1-1.1-0.4C-499,444-499.1,443.7-499.1,443.2z M-496.3,462.2h-2.6v-15h2.6
		V462.2z"/>
	<path d="M-488.8,443.6v3.6h2.8v2h-2.8v9.3c0,0.6,0.1,1,0.4,1.3c0.2,0.3,0.7,0.4,1.3,0.4c0.3,0,0.7-0.1,1.2-0.2v2.1
		c-0.7,0.2-1.3,0.3-2,0.3c-1.1,0-2-0.3-2.6-1s-0.9-1.7-0.9-2.9v-9.3h-2.7v-2h2.7v-3.6H-488.8z"/>
	<path d="M-473.7,462.2c-0.1-0.3-0.3-0.8-0.4-1.6c-1.2,1.2-2.6,1.9-4.3,1.9c-1.5,0-2.7-0.4-3.6-1.3c-0.9-0.8-1.4-1.9-1.4-3.2
		c0-1.6,0.6-2.8,1.8-3.6c1.2-0.9,2.8-1.3,5-1.3h2.5v-1.2c0-0.9-0.3-1.6-0.8-2.1c-0.5-0.5-1.3-0.8-2.4-0.8c-0.9,0-1.7,0.2-2.3,0.7
		c-0.6,0.5-0.9,1-0.9,1.7h-2.6c0-0.7,0.3-1.5,0.8-2.2c0.5-0.7,1.2-1.2,2.2-1.7c0.9-0.4,1.9-0.6,3-0.6c1.7,0,3.1,0.4,4,1.3
		s1.5,2,1.5,3.6v6.9c0,1.4,0.2,2.5,0.5,3.3v0.2H-473.7z M-478,460.2c0.8,0,1.6-0.2,2.3-0.6c0.7-0.4,1.2-1,1.6-1.6v-3.1h-2
		c-3.1,0-4.7,0.9-4.7,2.8c0,0.8,0.3,1.4,0.8,1.9C-479.5,460-478.8,460.2-478,460.2z"/>
	<path d="M-458.9,458.2c0-0.7-0.3-1.2-0.8-1.6s-1.4-0.7-2.7-1c-1.3-0.3-2.3-0.6-3.1-1c-0.8-0.4-1.3-0.8-1.7-1.4
		c-0.4-0.5-0.5-1.2-0.5-1.9c0-1.2,0.5-2.3,1.6-3.1c1-0.8,2.4-1.3,4-1.3c1.7,0,3.1,0.4,4.1,1.3c1.1,0.9,1.6,2,1.6,3.4h-2.6
		c0-0.7-0.3-1.3-0.9-1.8c-0.6-0.5-1.3-0.8-2.2-0.8c-0.9,0-1.7,0.2-2.2,0.6c-0.5,0.4-0.8,0.9-0.8,1.6c0,0.6,0.2,1.1,0.7,1.4
		c0.5,0.3,1.4,0.6,2.6,0.9c1.3,0.3,2.3,0.6,3.1,1c0.8,0.4,1.4,0.9,1.8,1.4c0.4,0.6,0.6,1.2,0.6,2c0,1.3-0.5,2.4-1.6,3.2
		c-1.1,0.8-2.5,1.2-4.2,1.2c-1.2,0-2.3-0.2-3.2-0.6s-1.6-1-2.2-1.8s-0.8-1.6-0.8-2.5h2.6c0,0.9,0.4,1.5,1,2c0.6,0.5,1.5,0.8,2.5,0.8
		c1,0,1.7-0.2,2.3-0.6C-459.2,459.4-458.9,458.9-458.9,458.2z"/>
	<path d="M-436.7,462.2c-0.1-0.3-0.3-0.8-0.4-1.6c-1.2,1.2-2.6,1.9-4.3,1.9c-1.5,0-2.7-0.4-3.6-1.3c-0.9-0.8-1.4-1.9-1.4-3.2
		c0-1.6,0.6-2.8,1.8-3.6c1.2-0.9,2.8-1.3,5-1.3h2.5v-1.2c0-0.9-0.3-1.6-0.8-2.1c-0.5-0.5-1.3-0.8-2.4-0.8c-0.9,0-1.7,0.2-2.3,0.7
		c-0.6,0.5-0.9,1-0.9,1.7h-2.6c0-0.7,0.3-1.5,0.8-2.2c0.5-0.7,1.2-1.2,2.2-1.7c0.9-0.4,1.9-0.6,3-0.6c1.7,0,3.1,0.4,4,1.3
		s1.5,2,1.5,3.6v6.9c0,1.4,0.2,2.5,0.5,3.3v0.2H-436.7z M-441,460.2c0.8,0,1.6-0.2,2.3-0.6c0.7-0.4,1.2-1,1.6-1.6v-3.1h-2
		c-3.1,0-4.7,0.9-4.7,2.8c0,0.8,0.3,1.4,0.8,1.9C-442.5,460-441.8,460.2-441,460.2z"/>
	<path d="M-425.9,458.4l3.5-11.2h2.7l-6,17.3c-0.9,2.5-2.4,3.7-4.4,3.7l-0.5,0l-1-0.2v-2.1l0.7,0.1c0.9,0,1.5-0.2,2-0.5
		c0.5-0.4,0.9-1,1.2-1.9l0.6-1.5l-5.3-14.8h2.8L-425.9,458.4z"/>
	<path d="M-408.2,460.7c-1,1.2-2.5,1.8-4.4,1.8c-1.6,0-2.8-0.5-3.6-1.4c-0.8-0.9-1.3-2.3-1.3-4.1v-9.7h2.6v9.7
		c0,2.3,0.9,3.4,2.8,3.4c2,0,3.3-0.7,3.9-2.2v-10.9h2.6v15h-2.4L-408.2,460.7z"/>
	<path d="M-402.4,454.6c0-2.3,0.5-4.1,1.6-5.5c1.1-1.4,2.5-2.1,4.3-2.1c1.8,0,3.1,0.6,4.2,1.8v-7.8h2.6v21.2h-2.3l-0.1-1.6
		c-1,1.3-2.4,1.9-4.3,1.9c-1.7,0-3.1-0.7-4.2-2.1s-1.6-3.3-1.6-5.6V454.6z M-399.9,454.9c0,1.7,0.4,3,1.1,4c0.7,1,1.7,1.4,2.9,1.4
		c1.6,0,2.8-0.7,3.6-2.2v-6.9c-0.8-1.4-1.9-2.1-3.5-2.1c-1.3,0-2.2,0.5-2.9,1.5C-399.5,451.5-399.9,453-399.9,454.9z"/>
	<path d="M-376.6,462.2c-0.1-0.3-0.3-0.8-0.4-1.6c-1.2,1.2-2.6,1.9-4.3,1.9c-1.5,0-2.7-0.4-3.6-1.3c-0.9-0.8-1.4-1.9-1.4-3.2
		c0-1.6,0.6-2.8,1.8-3.6c1.2-0.9,2.8-1.3,5-1.3h2.5v-1.2c0-0.9-0.3-1.6-0.8-2.1c-0.5-0.5-1.3-0.8-2.4-0.8c-0.9,0-1.7,0.2-2.3,0.7
		c-0.6,0.5-0.9,1-0.9,1.7h-2.6c0-0.7,0.3-1.5,0.8-2.2c0.5-0.7,1.2-1.2,2.2-1.7c0.9-0.4,1.9-0.6,3-0.6c1.7,0,3.1,0.4,4,1.3
		s1.5,2,1.5,3.6v6.9c0,1.4,0.2,2.5,0.5,3.3v0.2H-376.6z M-380.8,460.2c0.8,0,1.6-0.2,2.3-0.6c0.7-0.4,1.2-1,1.6-1.6v-3.1h-2
		c-3.1,0-4.7,0.9-4.7,2.8c0,0.8,0.3,1.4,0.8,1.9C-382.4,460-381.7,460.2-380.8,460.2z"/>
	<path d="M-367.4,456.5c0-1.1,0.1-2,0.4-2.6c0.2-0.6,0.7-1.3,1.4-2.1l1.8-1.9c0.8-0.9,1.2-1.8,1.2-2.8c0-1-0.3-1.7-0.8-2.3
		c-0.5-0.5-1.2-0.8-2.2-0.8c-0.9,0-1.7,0.2-2.3,0.7s-0.9,1.2-0.9,2h-2.6c0-1.5,0.6-2.7,1.6-3.6c1-0.9,2.4-1.4,4.1-1.4
		c1.7,0,3.1,0.5,4.1,1.4c1,0.9,1.5,2.2,1.5,3.8c0,1.6-0.7,3.2-2.2,4.8l-1.5,1.5c-0.7,0.7-1,1.8-1,3.2H-367.4z M-367.5,460.9
		c0-0.4,0.1-0.8,0.4-1.1s0.6-0.4,1.1-0.4s0.9,0.1,1.1,0.4s0.4,0.6,0.4,1.1s-0.1,0.8-0.4,1c-0.3,0.3-0.6,0.4-1.1,0.4
		s-0.9-0.1-1.1-0.4C-367.4,461.6-367.5,461.3-367.5,460.9z"/>
	<path d="M-547.1,491.4h-2.7v-9.3h-10.1v9.3h-2.7v-20.1h2.7v8.7h10.1v-8.7h2.7V491.4z"/>
	<path d="M-533.6,491.4c-0.1-0.3-0.3-0.8-0.4-1.6c-1.2,1.2-2.6,1.9-4.3,1.9c-1.5,0-2.7-0.4-3.6-1.3c-0.9-0.8-1.4-1.9-1.4-3.2
		c0-1.6,0.6-2.8,1.8-3.6c1.2-0.9,2.8-1.3,5-1.3h2.5v-1.2c0-0.9-0.3-1.6-0.8-2.1c-0.5-0.5-1.3-0.8-2.4-0.8c-0.9,0-1.7,0.2-2.3,0.7
		c-0.6,0.5-0.9,1-0.9,1.7h-2.6c0-0.7,0.3-1.5,0.8-2.2c0.5-0.7,1.2-1.2,2.2-1.7c0.9-0.4,1.9-0.6,3-0.6c1.7,0,3.1,0.4,4,1.3
		s1.5,2,1.5,3.6v6.9c0,1.4,0.2,2.5,0.5,3.3v0.2H-533.6z M-537.8,489.5c0.8,0,1.6-0.2,2.3-0.6c0.7-0.4,1.2-1,1.6-1.6v-3.1h-2
		c-3.1,0-4.7,0.9-4.7,2.8c0,0.8,0.3,1.4,0.8,1.9C-539.3,489.2-538.7,489.5-537.8,489.5z"/>
	<path d="M-521.4,489.6c0.9,0,1.7-0.3,2.4-0.8c0.7-0.6,1.1-1.2,1.1-2.1h2.4c0,0.9-0.3,1.7-0.9,2.4c-0.5,0.8-1.3,1.4-2.2,1.9
		c-0.9,0.5-1.9,0.7-2.9,0.7c-2,0-3.7-0.7-4.9-2c-1.2-1.4-1.8-3.2-1.8-5.6v-0.4c0-1.5,0.3-2.8,0.8-3.9c0.5-1.1,1.3-2,2.3-2.6
		c1-0.6,2.2-0.9,3.5-0.9c1.7,0,3.1,0.5,4.2,1.5c1.1,1,1.7,2.3,1.8,3.9h-2.4c-0.1-1-0.4-1.8-1.1-2.4c-0.7-0.6-1.5-0.9-2.4-0.9
		c-1.3,0-2.3,0.5-3,1.4c-0.7,0.9-1.1,2.3-1.1,4.1v0.5c0,1.7,0.4,3,1.1,4S-522.7,489.6-521.4,489.6z"/>
	<path d="M-506.4,491.7c-2,0-3.7-0.7-4.9-2c-1.3-1.3-1.9-3.1-1.9-5.3v-0.5c0-1.5,0.3-2.8,0.9-4c0.6-1.2,1.4-2.1,2.4-2.7
		c1-0.7,2.1-1,3.3-1c1.9,0,3.5,0.6,4.5,1.9s1.6,3.1,1.6,5.5v1.1h-10.1c0,1.5,0.5,2.7,1.3,3.6c0.8,0.9,1.9,1.4,3.1,1.4
		c0.9,0,1.7-0.2,2.3-0.6c0.6-0.4,1.2-0.9,1.6-1.5l1.6,1.2C-502,490.7-503.9,491.7-506.4,491.7z M-506.7,478.3c-1,0-1.9,0.4-2.6,1.1
		c-0.7,0.8-1.1,1.8-1.3,3.2h7.5v-0.2c-0.1-1.3-0.4-2.3-1.1-3C-504.8,478.6-505.6,478.3-506.7,478.3z M-505.5,470.2h3.1l-3.7,4.1
		l-2.1,0L-505.5,470.2z"/>
	<path d="M-484.6,489.6c0.9,0,1.7-0.3,2.4-0.8c0.7-0.6,1.1-1.2,1.1-2.1h2.4c0,0.9-0.3,1.7-0.9,2.4c-0.5,0.8-1.3,1.4-2.2,1.9
		c-0.9,0.5-1.9,0.7-2.9,0.7c-2,0-3.7-0.7-4.9-2c-1.2-1.4-1.8-3.2-1.8-5.6v-0.4c0-1.5,0.3-2.8,0.8-3.9c0.5-1.1,1.3-2,2.3-2.6
		c1-0.6,2.2-0.9,3.5-0.9c1.7,0,3.1,0.5,4.2,1.5c1.1,1,1.7,2.3,1.8,3.9h-2.4c-0.1-1-0.4-1.8-1.1-2.4c-0.7-0.6-1.5-0.9-2.4-0.9
		c-1.3,0-2.3,0.5-3,1.4c-0.7,0.9-1.1,2.3-1.1,4.1v0.5c0,1.7,0.4,3,1.1,4S-485.9,489.6-484.6,489.6z"/>
	<path d="M-473,491.4h-2.6v-21.2h2.6V491.4z"/>
	<path d="M-468.9,472.5c0-0.4,0.1-0.8,0.4-1.1c0.3-0.3,0.6-0.4,1.1-0.4s0.9,0.1,1.1,0.4c0.3,0.3,0.4,0.6,0.4,1.1
		c0,0.4-0.1,0.8-0.4,1c-0.3,0.3-0.6,0.4-1.1,0.4s-0.9-0.1-1.1-0.4C-468.8,473.3-468.9,472.9-468.9,472.5z M-466.1,491.4h-2.6v-15
		h2.6V491.4z"/>
	<path d="M-456,489.6c0.9,0,1.7-0.3,2.4-0.8c0.7-0.6,1.1-1.2,1.1-2.1h2.4c0,0.9-0.3,1.7-0.9,2.4c-0.5,0.8-1.3,1.4-2.2,1.9
		c-0.9,0.5-1.9,0.7-2.9,0.7c-2,0-3.7-0.7-4.9-2c-1.2-1.4-1.8-3.2-1.8-5.6v-0.4c0-1.5,0.3-2.8,0.8-3.9c0.5-1.1,1.3-2,2.3-2.6
		c1-0.6,2.2-0.9,3.5-0.9c1.7,0,3.1,0.5,4.2,1.5c1.1,1,1.7,2.3,1.8,3.9h-2.4c-0.1-1-0.4-1.8-1.1-2.4c-0.7-0.6-1.5-0.9-2.4-0.9
		c-1.3,0-2.3,0.5-3,1.4c-0.7,0.9-1.1,2.3-1.1,4.1v0.5c0,1.7,0.4,3,1.1,4S-457.4,489.6-456,489.6z"/>
	<path d="M-431,491.4c-0.1-0.3-0.3-0.8-0.4-1.6c-1.2,1.2-2.6,1.9-4.3,1.9c-1.5,0-2.7-0.4-3.6-1.3c-0.9-0.8-1.4-1.9-1.4-3.2
		c0-1.6,0.6-2.8,1.8-3.6c1.2-0.9,2.8-1.3,5-1.3h2.5v-1.2c0-0.9-0.3-1.6-0.8-2.1c-0.5-0.5-1.3-0.8-2.4-0.8c-0.9,0-1.7,0.2-2.3,0.7
		c-0.6,0.5-0.9,1-0.9,1.7h-2.6c0-0.7,0.3-1.5,0.8-2.2c0.5-0.7,1.2-1.2,2.2-1.7c0.9-0.4,1.9-0.6,3-0.6c1.7,0,3.1,0.4,4,1.3
		s1.5,2,1.5,3.6v6.9c0,1.4,0.2,2.5,0.5,3.3v0.2H-431z M-435.2,489.5c0.8,0,1.6-0.2,2.3-0.6c0.7-0.4,1.2-1,1.6-1.6v-3.1h-2
		c-3.1,0-4.7,0.9-4.7,2.8c0,0.8,0.3,1.4,0.8,1.9C-436.8,489.2-436.1,489.5-435.2,489.5z"/>
	<path d="M-425.4,483.8c0-2.3,0.5-4.2,1.6-5.6c1.1-1.4,2.5-2.1,4.3-2.1c1.8,0,3.2,0.6,4.2,1.8l0.1-1.5h2.3v20.7h-2.6V490
		c-1,1.1-2.4,1.7-4.1,1.7c-1.8,0-3.2-0.7-4.3-2.1c-1.1-1.4-1.6-3.3-1.6-5.6V483.8z M-422.9,484.1c0,1.7,0.4,3.1,1.1,4
		c0.7,1,1.7,1.5,2.9,1.5c1.5,0,2.7-0.7,3.5-2v-7.3c-0.8-1.3-2-2-3.5-2c-1.2,0-2.2,0.5-2.9,1.5C-422.5,480.7-422.9,482.2-422.9,484.1
		z"/>
	<path d="M-399.5,489.9c-1,1.2-2.5,1.8-4.4,1.8c-1.6,0-2.8-0.5-3.6-1.4c-0.8-0.9-1.3-2.3-1.3-4.1v-9.7h2.6v9.7
		c0,2.3,0.9,3.4,2.8,3.4c2,0,3.3-0.7,3.9-2.2v-10.9h2.6v15h-2.4L-399.5,489.9z"/>
	<path d="M-390.3,470.2h3.1l-3.7,4.1l-2.1,0L-390.3,470.2z M-390.4,491.4h-2.6v-15h2.6V491.4z"/>
</g>
<text transform="matrix(1 0 0 1 135.1401 527.3828)"><tspan x="0" y="0" class="st3" style="font-family:'Roboto-Bold'; font-size:47.8183px;">Soy tu tutor</tspan><tspan x="-73.3" y="49.4" class="st3" style="font-family:'Roboto-Regular'; font-size:47.8183px;">¿Necesitas ayuda?</tspan><tspan x="-24" y="98.8" class="st3" style="font-family:'Roboto-Regular'; font-size:47.8183px;">Hacé clic aquí</tspan></text>
<g>
	<defs>
		<rect id="SVGID_1_" y="1" width="501" height="385"/>
	</defs>
	<clipPath id="SVGID_2_">
		<use xlink:href="#SVGID_1_"  style="overflow:visible;"/>
	</clipPath>
	<path class="st1" d="M426,363.3H73c-27.6,0-50-22.4-50-50V153c0-27.6,22.4-50,50-50h353c27.6,0,50,22.4,50,50v160.3
		C476,340.9,453.6,363.3,426,363.3z"/>
	<g class="st2">
		<path class="st3" d="M154.5,236.4c0-1.2-0.4-2.1-1.3-2.8c-0.9-0.6-2.4-1.3-4.6-2.1c-2.2-0.7-4-1.4-5.3-2.1
			c-3.5-1.9-5.3-4.5-5.3-7.7c0-1.7,0.5-3.2,1.4-4.5c0.9-1.3,2.3-2.3,4.1-3.1c1.8-0.7,3.8-1.1,6-1.1c2.2,0,4.2,0.4,5.9,1.2
			c1.7,0.8,3.1,1.9,4.1,3.4c1,1.5,1.4,3.1,1.4,5h-6.4c0-1.4-0.4-2.5-1.3-3.3c-0.9-0.8-2.2-1.2-3.8-1.2c-1.6,0-2.8,0.3-3.7,1
			c-0.9,0.7-1.3,1.5-1.3,2.6c0,1,0.5,1.9,1.5,2.5c1,0.7,2.5,1.3,4.5,1.9c3.7,1.1,6.3,2.5,8,4.1c1.7,1.6,2.5,3.7,2.5,6.1
			c0,2.7-1,4.8-3.1,6.3s-4.8,2.3-8.2,2.3c-2.4,0-4.6-0.4-6.5-1.3c-2-0.9-3.5-2.1-4.5-3.6c-1-1.5-1.6-3.3-1.6-5.3h6.4
			c0,3.4,2.1,5.2,6.2,5.2c1.5,0,2.7-0.3,3.6-0.9C154,238.4,154.5,237.5,154.5,236.4z"/>
		<path class="st3" d="M163.9,232.8c0-2.3,0.4-4.3,1.3-6.1c0.9-1.8,2.2-3.2,3.8-4.2c1.7-1,3.6-1.5,5.8-1.5c3.1,0,5.7,1,7.6,2.9
			c2,1.9,3.1,4.5,3.3,7.8l0,1.6c0,3.6-1,6.4-3,8.5c-2,2.1-4.6,3.2-8,3.2c-3.3,0-6-1.1-8-3.2c-2-2.1-3-5-3-8.7V232.8z M170.1,233.2
			c0,2.2,0.4,3.9,1.2,5c0.8,1.2,2,1.7,3.6,1.7c1.5,0,2.7-0.6,3.5-1.7c0.8-1.1,1.3-3,1.3-5.5c0-2.2-0.4-3.8-1.3-5
			c-0.8-1.2-2-1.8-3.6-1.8c-1.5,0-2.7,0.6-3.5,1.8C170.5,228.9,170.1,230.8,170.1,233.2z"/>
		<path class="st3" d="M197.9,235.8l4.3-14.4h6.6l-9.3,26.7l-0.5,1.2c-1.4,3-3.7,4.5-6.8,4.5c-0.9,0-1.8-0.1-2.7-0.4v-4.7l0.9,0
			c1.2,0,2-0.2,2.6-0.5c0.6-0.4,1-0.9,1.4-1.8l0.7-1.9l-8.1-23.2h6.7L197.9,235.8z"/>
		<path class="st3" d="M229.6,215.7v5.7h4v4.5h-4v11.6c0,0.9,0.2,1.5,0.5,1.8c0.3,0.4,1,0.6,1.9,0.6c0.7,0,1.3-0.1,1.8-0.1v4.7
			c-1.2,0.4-2.5,0.6-3.7,0.6c-4.3,0-6.5-2.2-6.6-6.6V226H220v-4.5h3.4v-5.7H229.6z"/>
		<path class="st3" d="M250.8,242.2c-1.5,1.9-3.6,2.8-6.3,2.8c-2.5,0-4.4-0.7-5.7-2.1c-1.3-1.4-2-3.5-2-6.3v-15.2h6.2v15
			c0,2.4,1.1,3.6,3.3,3.6c2.1,0,3.5-0.7,4.3-2.2v-16.4h6.2v23.1H251L250.8,242.2z"/>
		<path class="st3" d="M279.8,215.7v5.7h4v4.5h-4v11.6c0,0.9,0.2,1.5,0.5,1.8c0.3,0.4,1,0.6,1.9,0.6c0.7,0,1.3-0.1,1.8-0.1v4.7
			c-1.2,0.4-2.5,0.6-3.7,0.6c-4.3,0-6.5-2.2-6.6-6.6V226h-3.4v-4.5h3.4v-5.7H279.8z"/>
		<path class="st3" d="M301.1,242.2c-1.5,1.9-3.6,2.8-6.3,2.8c-2.5,0-4.4-0.7-5.7-2.1c-1.3-1.4-2-3.5-2-6.3v-15.2h6.2v15
			c0,2.4,1.1,3.6,3.3,3.6c2.1,0,3.5-0.7,4.3-2.2v-16.4h6.2v23.1h-5.8L301.1,242.2z"/>
		<path class="st3" d="M319.1,215.7v5.7h4v4.5h-4v11.6c0,0.9,0.2,1.5,0.5,1.8c0.3,0.4,1,0.6,1.9,0.6c0.7,0,1.3-0.1,1.8-0.1v4.7
			c-1.2,0.4-2.5,0.6-3.7,0.6c-4.3,0-6.5-2.2-6.6-6.6V226h-3.4v-4.5h3.4v-5.7H319.1z"/>
		<path class="st3" d="M324.9,232.8c0-2.3,0.4-4.3,1.3-6.1c0.9-1.8,2.2-3.2,3.8-4.2c1.7-1,3.6-1.5,5.8-1.5c3.1,0,5.7,1,7.6,2.9
			c2,1.9,3.1,4.5,3.3,7.8l0,1.6c0,3.6-1,6.4-3,8.5c-2,2.1-4.6,3.2-8,3.2c-3.3,0-6-1.1-8-3.2c-2-2.1-3-5-3-8.7V232.8z M331.1,233.2
			c0,2.2,0.4,3.9,1.2,5c0.8,1.2,2,1.7,3.6,1.7c1.5,0,2.7-0.6,3.5-1.7c0.8-1.1,1.3-3,1.3-5.5c0-2.2-0.4-3.8-1.3-5
			c-0.8-1.2-2-1.8-3.6-1.8c-1.5,0-2.7,0.6-3.5,1.8C331.5,228.9,331.1,230.8,331.1,233.2z"/>
		<path class="st3" d="M363.6,227.2c-0.8-0.1-1.6-0.2-2.2-0.2c-2.3,0-3.9,0.8-4.6,2.4v15.1h-6.2v-23.1h5.8l0.2,2.8
			c1.2-2.1,3-3.2,5.2-3.2c0.7,0,1.3,0.1,1.9,0.3L363.6,227.2z"/>
		<path class="st3" d="M80.6,275.3c0,1.5-0.2,2.7-0.5,3.6c-0.3,0.9-0.8,1.8-1.5,2.6c-0.7,0.8-1.7,2-3,3.3c-1.3,1.4-2,2.8-2.2,4.2
			l0,0.8c0,1.6,0.4,2.7,1.2,3.6c0.8,0.8,2,1.2,3.6,1.2c1.4,0,2.6-0.4,3.5-1.2c0.9-0.8,1.3-1.9,1.3-3.2h4c0,2.3-0.8,4.2-2.4,5.6
			c-1.6,1.5-3.7,2.2-6.3,2.2c-2.8,0-5-0.7-6.5-2.1c-1.5-1.4-2.3-3.4-2.3-6c0-2.5,1.1-4.9,3.4-7.4l2.3-2.4c0.9-1.1,1.4-2.7,1.4-4.8
			H80.6z M80.8,268.5c0,0.6-0.2,1.2-0.6,1.6c-0.4,0.4-1,0.7-1.7,0.7c-0.8,0-1.4-0.2-1.8-0.7c-0.4-0.4-0.6-1-0.6-1.6
			c0-0.6,0.2-1.2,0.6-1.6c0.4-0.4,1-0.6,1.8-0.6c0.8,0,1.4,0.2,1.7,0.6C80.6,267.4,80.8,267.9,80.8,268.5z"/>
		<path class="st3" d="M116.3,289.8h-4.1l-15.7-24v24h-4.1v-31.1h4.1l15.7,24.1v-24.1h4.1V289.8z"/>
		<path class="st3" d="M132.6,290.3c-3.1,0-5.7-1-7.7-3.1c-2-2.1-3-4.8-3-8.3v-0.7c0-2.3,0.4-4.3,1.3-6.1c0.9-1.8,2.1-3.2,3.7-4.2
			c1.6-1,3.3-1.5,5.1-1.5c3,0,5.3,1,7,3c1.7,2,2.5,4.8,2.5,8.5v1.6h-15.7c0.1,2.3,0.7,4.1,2,5.5c1.3,1.4,2.9,2.1,4.9,2.1
			c1.4,0,2.6-0.3,3.6-0.9s1.8-1.3,2.5-2.3l2.4,1.9C139.4,288.8,136.5,290.3,132.6,290.3z M132.1,269.5c-1.6,0-2.9,0.6-4,1.7
			c-1.1,1.2-1.8,2.8-2,4.9h11.6v-0.3c-0.1-2-0.7-3.6-1.6-4.7C135.1,270.1,133.8,269.5,132.1,269.5z"/>
		<path class="st3" d="M155.5,287c1.4,0,2.6-0.4,3.7-1.3c1.1-0.9,1.6-1.9,1.8-3.2h3.7c-0.1,1.3-0.5,2.6-1.4,3.8
			c-0.8,1.2-2,2.2-3.4,2.9c-1.4,0.7-2.9,1.1-4.5,1.1c-3.2,0-5.7-1.1-7.5-3.2c-1.9-2.1-2.8-5-2.8-8.6v-0.7c0-2.3,0.4-4.3,1.2-6
			c0.8-1.8,2-3.1,3.6-4.1s3.4-1.5,5.5-1.5c2.6,0,4.8,0.8,6.5,2.3c1.7,1.6,2.6,3.6,2.7,6.1h-3.7c-0.1-1.5-0.7-2.7-1.7-3.7
			c-1-1-2.3-1.4-3.8-1.4c-2,0-3.6,0.7-4.7,2.2c-1.1,1.4-1.7,3.5-1.7,6.3v0.7c0,2.7,0.5,4.7,1.6,6.2C151.9,286.3,153.4,287,155.5,287
			z"/>
		<path class="st3" d="M178.7,290.3c-3.1,0-5.7-1-7.7-3.1s-3-4.8-3-8.3v-0.7c0-2.3,0.4-4.3,1.3-6.1c0.9-1.8,2.1-3.2,3.7-4.2
			c1.6-1,3.3-1.5,5.1-1.5c3,0,5.3,1,7,3c1.7,2,2.5,4.8,2.5,8.5v1.6h-15.7c0.1,2.3,0.7,4.1,2,5.5c1.3,1.4,2.9,2.1,4.9,2.1
			c1.4,0,2.6-0.3,3.6-0.9s1.8-1.3,2.5-2.3l2.4,1.9C185.5,288.8,182.6,290.3,178.7,290.3z M178.2,269.5c-1.6,0-2.9,0.6-4,1.7
			c-1.1,1.2-1.8,2.8-2,4.9h11.6v-0.3c-0.1-2-0.7-3.6-1.6-4.7C181.2,270.1,179.9,269.5,178.2,269.5z"/>
		<path class="st3" d="M205.8,283.7c0-1.1-0.4-1.9-1.2-2.5c-0.8-0.6-2.2-1.1-4.2-1.5c-2-0.4-3.6-0.9-4.8-1.5s-2-1.3-2.6-2.1
			c-0.6-0.8-0.8-1.8-0.8-3c0-1.9,0.8-3.5,2.4-4.8c1.6-1.3,3.7-2,6.1-2c2.6,0,4.8,0.7,6.4,2c1.6,1.4,2.4,3.1,2.4,5.2h-4
			c0-1.1-0.5-2-1.4-2.8s-2.1-1.2-3.5-1.2c-1.4,0-2.6,0.3-3.4,0.9s-1.2,1.4-1.2,2.5c0,1,0.4,1.7,1.1,2.2c0.8,0.5,2.1,0.9,4.1,1.4
			c2,0.4,3.6,1,4.8,1.6c1.2,0.6,2.1,1.4,2.7,2.2c0.6,0.9,0.9,1.9,0.9,3.2c0,2.1-0.8,3.7-2.5,5c-1.7,1.2-3.8,1.9-6.4,1.9
			c-1.9,0-3.5-0.3-4.9-1c-1.4-0.7-2.5-1.6-3.3-2.7c-0.8-1.2-1.2-2.4-1.2-3.8h4c0.1,1.3,0.6,2.4,1.6,3.2c1,0.8,2.3,1.2,3.9,1.2
			c1.5,0,2.7-0.3,3.6-0.9C205.4,285.5,205.8,284.7,205.8,283.7z"/>
		<path class="st3" d="M214.9,260.6c0-0.6,0.2-1.2,0.6-1.6c0.4-0.4,1-0.7,1.7-0.7c0.8,0,1.4,0.2,1.8,0.7c0.4,0.4,0.6,1,0.6,1.6
			c0,0.6-0.2,1.2-0.6,1.6c-0.4,0.4-1,0.6-1.8,0.6c-0.8,0-1.4-0.2-1.7-0.6C215.1,261.7,214.9,261.2,214.9,260.6z M219.2,289.8h-4
			v-23.1h4V289.8z"/>
		<path class="st3" d="M230.9,261.1v5.6h4.3v3.1h-4.3v14.4c0,0.9,0.2,1.6,0.6,2.1c0.4,0.5,1,0.7,2,0.7c0.5,0,1.1-0.1,1.9-0.3v3.2
			c-1,0.3-2.1,0.4-3,0.4c-1.8,0-3.1-0.5-4-1.6c-0.9-1.1-1.3-2.6-1.3-4.6v-14.4h-4.2v-3.1h4.2v-5.6H230.9z"/>
		<path class="st3" d="M254.2,289.8c-0.2-0.5-0.4-1.3-0.6-2.4c-1.8,1.9-4,2.9-6.6,2.9c-2.3,0-4.2-0.6-5.6-1.9
			c-1.5-1.3-2.2-2.9-2.2-4.9c0-2.4,0.9-4.3,2.7-5.6c1.8-1.3,4.4-2,7.7-2h3.8V274c0-1.4-0.4-2.5-1.2-3.3c-0.8-0.8-2-1.2-3.7-1.2
			c-1.4,0-2.6,0.4-3.6,1.1c-1,0.7-1.4,1.6-1.4,2.6h-4c0-1.2,0.4-2.3,1.2-3.3c0.8-1.1,1.9-1.9,3.3-2.6c1.4-0.6,2.9-0.9,4.6-0.9
			c2.7,0,4.8,0.7,6.3,2c1.5,1.3,2.3,3.2,2.4,5.5v10.7c0,2.1,0.3,3.8,0.8,5.1v0.3H254.2z M247.6,286.8c1.2,0,2.4-0.3,3.5-1
			c1.1-0.6,1.9-1.5,2.4-2.5v-4.7h-3.1c-4.8,0-7.3,1.4-7.3,4.3c0,1.2,0.4,2.2,1.2,2.9C245.2,286.5,246.3,286.8,247.6,286.8z"/>
		<path class="st3" d="M277.2,283.7c0-1.1-0.4-1.9-1.2-2.5c-0.8-0.6-2.2-1.1-4.2-1.5c-2-0.4-3.6-0.9-4.8-1.5c-1.2-0.6-2-1.3-2.6-2.1
			c-0.6-0.8-0.8-1.8-0.8-3c0-1.9,0.8-3.5,2.4-4.8c1.6-1.3,3.7-2,6.1-2c2.6,0,4.8,0.7,6.4,2c1.6,1.4,2.4,3.1,2.4,5.2h-4
			c0-1.1-0.5-2-1.4-2.8c-0.9-0.8-2.1-1.2-3.5-1.2c-1.4,0-2.6,0.3-3.4,0.9c-0.8,0.6-1.2,1.4-1.2,2.5c0,1,0.4,1.7,1.1,2.2
			c0.8,0.5,2.1,0.9,4.1,1.4c2,0.4,3.6,1,4.8,1.6c1.2,0.6,2.1,1.4,2.7,2.2c0.6,0.9,0.9,1.9,0.9,3.2c0,2.1-0.8,3.7-2.5,5
			c-1.7,1.2-3.8,1.9-6.4,1.9c-1.9,0-3.5-0.3-4.9-1c-1.4-0.7-2.5-1.6-3.3-2.7s-1.2-2.4-1.2-3.8h4c0.1,1.3,0.6,2.4,1.6,3.2
			c1,0.8,2.3,1.2,3.9,1.2c1.5,0,2.7-0.3,3.6-0.9C276.7,285.5,277.2,284.7,277.2,283.7z"/>
		<path class="st3" d="M311.4,289.8c-0.2-0.5-0.4-1.3-0.6-2.4c-1.8,1.9-4,2.9-6.6,2.9c-2.3,0-4.2-0.6-5.6-1.9
			c-1.5-1.3-2.2-2.9-2.2-4.9c0-2.4,0.9-4.3,2.7-5.6c1.8-1.3,4.4-2,7.7-2h3.8V274c0-1.4-0.4-2.5-1.2-3.3s-2-1.2-3.7-1.2
			c-1.4,0-2.6,0.4-3.6,1.1c-1,0.7-1.4,1.6-1.4,2.6h-4c0-1.2,0.4-2.3,1.2-3.3c0.8-1.1,1.9-1.9,3.3-2.6c1.4-0.6,2.9-0.9,4.6-0.9
			c2.7,0,4.8,0.7,6.3,2c1.5,1.3,2.3,3.2,2.4,5.5v10.7c0,2.1,0.3,3.8,0.8,5.1v0.3H311.4z M304.8,286.8c1.2,0,2.4-0.3,3.5-1
			c1.1-0.6,1.9-1.5,2.4-2.5v-4.7h-3.1c-4.8,0-7.3,1.4-7.3,4.3c0,1.2,0.4,2.2,1.2,2.9C302.5,286.5,303.5,286.8,304.8,286.8z"/>
		<path class="st3" d="M328.2,284l5.4-17.3h4.2l-9.3,26.7c-1.4,3.8-3.7,5.8-6.9,5.8l-0.7-0.1l-1.5-0.3v-3.2l1.1,0.1
			c1.3,0,2.4-0.3,3.1-0.8c0.7-0.5,1.4-1.5,1.9-3l0.9-2.4l-8.3-22.9h4.3L328.2,284z"/>
		<path class="st3" d="M355.6,287.5c-1.5,1.8-3.8,2.7-6.8,2.7c-2.5,0-4.3-0.7-5.6-2.1c-1.3-1.4-1.9-3.6-2-6.4v-15.1h4v15
			c0,3.5,1.4,5.3,4.3,5.3c3,0,5-1.1,6-3.4v-16.8h4v23.1h-3.8L355.6,287.5z"/>
		<path class="st3" d="M364.5,278.1c0-3.6,0.8-6.4,2.5-8.6c1.7-2.2,3.9-3.2,6.6-3.2c2.7,0,4.9,0.9,6.4,2.8V257h4v32.9h-3.6l-0.2-2.5
			c-1.6,1.9-3.8,2.9-6.6,2.9c-2.7,0-4.9-1.1-6.6-3.3c-1.7-2.2-2.5-5.1-2.5-8.6V278.1z M368.5,278.5c0,2.6,0.5,4.7,1.6,6.2
			c1.1,1.5,2.6,2.2,4.5,2.2c2.5,0,4.3-1.1,5.5-3.4v-10.6c-1.2-2.2-3-3.3-5.5-3.3c-1.9,0-3.5,0.7-4.5,2.2
			C369,273.4,368.5,275.6,368.5,278.5z"/>
		<path class="st3" d="M404.5,289.8c-0.2-0.5-0.4-1.3-0.6-2.4c-1.8,1.9-4,2.9-6.6,2.9c-2.3,0-4.2-0.6-5.6-1.9
			c-1.5-1.3-2.2-2.9-2.2-4.9c0-2.4,0.9-4.3,2.7-5.6c1.8-1.3,4.4-2,7.7-2h3.8V274c0-1.4-0.4-2.5-1.2-3.3c-0.8-0.8-2-1.2-3.7-1.2
			c-1.4,0-2.6,0.4-3.6,1.1c-1,0.7-1.4,1.6-1.4,2.6h-4c0-1.2,0.4-2.3,1.2-3.3c0.8-1.1,1.9-1.9,3.3-2.6c1.4-0.6,2.9-0.9,4.6-0.9
			c2.7,0,4.8,0.7,6.3,2c1.5,1.3,2.3,3.2,2.4,5.5v10.7c0,2.1,0.3,3.8,0.8,5.1v0.3H404.5z M397.9,286.8c1.2,0,2.4-0.3,3.5-1
			c1.1-0.6,1.9-1.5,2.4-2.5v-4.7h-3.1c-4.8,0-7.3,1.4-7.3,4.3c0,1.2,0.4,2.2,1.2,2.9C395.6,286.5,396.6,286.8,397.9,286.8z"/>
		<path class="st3" d="M418.7,281c0-1.7,0.2-3,0.6-4c0.4-1,1.1-2.1,2.2-3.3l2.8-2.9c1.2-1.4,1.8-2.8,1.8-4.4c0-1.5-0.4-2.7-1.2-3.5
			c-0.8-0.8-1.9-1.3-3.4-1.3c-1.5,0-2.6,0.4-3.5,1.2c-0.9,0.8-1.3,1.8-1.3,3.1h-4c0-2.3,0.9-4.2,2.5-5.6c1.6-1.4,3.7-2.1,6.3-2.1
			c2.7,0,4.8,0.7,6.3,2.2c1.5,1.4,2.3,3.4,2.3,5.9c0,2.5-1.2,4.9-3.5,7.4l-2.3,2.3c-1,1.2-1.6,2.8-1.6,5H418.7z M418.5,287.8
			c0-0.6,0.2-1.2,0.6-1.6c0.4-0.4,1-0.7,1.7-0.7c0.8,0,1.4,0.2,1.8,0.7c0.4,0.4,0.6,1,0.6,1.6s-0.2,1.2-0.6,1.6s-1,0.6-1.8,0.6
			c-0.8,0-1.4-0.2-1.7-0.6C418.7,289,418.5,288.5,418.5,287.8z"/>
	</g>
	<g class="st2">
		<circle class="st0" cx="242.2" cy="103.9" r="79.9"/>
		<g>
			<g>
				<defs>
					<path id="SVGID_5_" d="M242.2,30.2c-40.6,0-73.6,32.9-73.6,73.6c0,40.6,32.9,73.6,73.6,73.6c40.6,0,73.6-32.9,73.6-73.6
						C315.7,63.1,282.8,30.2,242.2,30.2z"/>
				</defs>
				<clipPath id="SVGID_3_">
					<use xlink:href="#SVGID_5_"  style="overflow:visible;"/>
				</clipPath>
				<g class="st4">
					<g>
						<defs>
							<polygon id="SVGID_7_" points="132,37.8 308.3,185.8 218.1,185.8 132,113.3 							"/>
						</defs>
						<clipPath id="SVGID_4_">
							<use xlink:href="#SVGID_7_"  style="overflow:visible;"/>
						</clipPath>
						<path class="st5" d="M242.2,30.2c-40.6,0-73.6,32.9-73.6,73.6c0,40.6,32.9,73.6,73.6,73.6c40.6,0,73.6-32.9,73.6-73.6
							C315.7,63.1,282.8,30.2,242.2,30.2z M242.2,167.9c-35.4,0-64.1-28.7-64.1-64.1c0-35.4,28.7-64.1,64.1-64.1
							c35.4,0,64.1,28.7,64.1,64.1C306.3,139.2,277.6,167.9,242.2,167.9z"/>
					</g>
					<path class="st6" d="M242.2,30.2c-40.6,0-73.6,32.9-73.6,73.6c0,40.6,32.9,73.6,73.6,73.6c40.6,0,73.6-32.9,73.6-73.6
						C315.7,63.1,282.8,30.2,242.2,30.2z"/>
					<path class="st3" d="M242.2,47.4c-31.1,0-56.4,25.2-56.4,56.4c0,31.1,25.2,56.4,56.4,56.4c31.1,0,56.4-25.2,56.4-56.4
						C298.5,72.6,273.3,47.4,242.2,47.4z"/>
				</g>
			</g>
			<g>
				<path class="st7" d="M242.2,66c-20.8,0-37.7,16.9-37.7,37.8c0,20.8,16.9,37.8,37.7,37.8c20.9,0,37.8-16.9,37.8-37.8
					C279.9,82.9,263,66,242.2,66z"/>
				<path class="st7" d="M242.2,84.4c-10.7,0-19.4,8.7-19.4,19.4c0,10.7,8.7,19.4,19.4,19.4c10.7,0,19.4-8.7,19.4-19.4
					C261.5,93.1,252.9,84.4,242.2,84.4z"/>
			</g>
			<path class="st3" d="M242.2,47.4c-31.1,0-56.4,25.2-56.4,56.4c0,31.1,25.2,56.4,56.4,56.4c31.1,0,56.4-25.2,56.4-56.4
				C298.5,72.6,273.3,47.4,242.2,47.4z"/>
			<g>
				<path class="st8" d="M228.3,104.7c3.8,3.8,8.8,6.2,14.2,6.2c4.8,0,9.3-1.8,12.9-4.9l12.5,2.6c2.1-52.8-25.4-49.3-25.4-49.3
					c-29.6-0.9-24.8,49.6-24.8,49.6L228.3,104.7z M247.1,77.8c2.3,5.8,9.9,6.9,13.4,7.1l-3.5,16.2c-3.6,4.6-8.8,7.5-14.6,7.5
					c-6.2,0-11.8-3.4-15.5-8.8l-2.6-16C237.4,87,247.1,77.8,247.1,77.8z"/>
				<path class="st8" d="M283,133.3c0.3-2.3,0.1-6-2.6-9.9c-5.1-10.1-16.4-13.9-25.2-15.4l-2.2,2.9c-9.5,4-16.8,2-20.3,0.5l-2.6-3.3
					c-8.5,1.4-19.1,5.1-24.4,14.3c-4,5-3.7,9.6-3.3,12c0,0.5,0,1,0,1.5h0.5h79.5h0.7C283.1,134.9,283.1,134.1,283,133.3z
					 M242.7,124.2l-8.1-10.5c1.9,0.6,4.4,1.1,7.3,1.1c2.7,0,5.8-0.4,9.2-1.6L242.7,124.2z"/>
			</g>
		</g>
	</g>
</g>
</svg>
