<?xml version="1.0" encoding="utf-8"?>
<!-- Generator: Adobe Illustrator 26.3.1, SVG Export Plug-In . SVG Version: 6.00 Build 0)  -->
<svg version="1.1" id="Capa_1" xmlns="http://www.w3.org/2000/svg" xmlns:xlink="http://www.w3.org/1999/xlink" x="0px" y="0px"
	 viewBox="0 0 259.95 128.54" style="enable-background:new 0 0 259.95 128.54;" xml:space="preserve">
<style type="text/css">
	.st0{fill:#654F83;}
	.st1{fill:#FFFFFF;}
	.st2{fill:#142F4E;}
</style>
<g>
	<g>
		<rect x="131.68" class="st0" width="128.27" height="128.26"/>
		<g>
			<path class="st1" d="M157.27,28.62h-2.69v3.51h-1v-7.95h4.14v0.86h-3.14v2.72h2.69V28.62z"/>
			<path class="st1" d="M161.69,32.13c-0.06-0.13-0.1-0.34-0.12-0.64c-0.34,0.5-0.78,0.75-1.31,0.75c-0.53,0-0.95-0.15-1.25-0.45
				c-0.3-0.3-0.45-0.72-0.45-1.27c0-0.6,0.2-1.08,0.61-1.43c0.41-0.35,0.97-0.53,1.68-0.54h0.71v-0.63c0-0.35-0.08-0.6-0.23-0.75
				c-0.16-0.15-0.4-0.22-0.72-0.22c-0.29,0-0.53,0.09-0.71,0.26c-0.18,0.17-0.27,0.39-0.27,0.66h-0.97c0-0.3,0.09-0.59,0.27-0.87
				c0.18-0.27,0.42-0.49,0.72-0.65c0.3-0.16,0.64-0.23,1.01-0.23c0.6,0,1.06,0.15,1.38,0.45c0.31,0.3,0.48,0.74,0.48,1.31v2.98
				c0,0.46,0.07,0.85,0.19,1.18v0.09H161.69z M160.41,31.36c0.24,0,0.46-0.07,0.68-0.2s0.37-0.29,0.47-0.49v-1.41h-0.55
				c-0.46,0.01-0.82,0.11-1.09,0.31c-0.27,0.2-0.4,0.48-0.4,0.83c0,0.33,0.07,0.58,0.2,0.73C159.86,31.28,160.09,31.36,160.41,31.36
				z"/>
			<path class="st1" d="M166.06,31.41c0.32,0,0.58-0.1,0.77-0.3c0.19-0.2,0.3-0.48,0.32-0.85h0.91c-0.02,0.57-0.22,1.04-0.6,1.41
				c-0.38,0.37-0.84,0.56-1.39,0.56c-0.73,0-1.29-0.23-1.67-0.69c-0.38-0.46-0.58-1.15-0.58-2.06v-0.65c0-0.89,0.19-1.57,0.57-2.03
				s0.94-0.7,1.67-0.7c0.6,0,1.08,0.19,1.44,0.57c0.36,0.38,0.54,0.9,0.57,1.57h-0.91c-0.02-0.44-0.13-0.76-0.31-0.98
				c-0.19-0.22-0.45-0.33-0.78-0.33c-0.43,0-0.75,0.14-0.96,0.42c-0.21,0.28-0.31,0.75-0.32,1.39v0.75c0,0.7,0.1,1.19,0.31,1.47
				C165.29,31.27,165.62,31.41,166.06,31.41z"/>
			<path class="st1" d="M172.19,31.61c-0.32,0.42-0.79,0.63-1.4,0.63c-0.54,0-0.94-0.18-1.21-0.55c-0.27-0.37-0.41-0.91-0.42-1.61
				v-3.85h0.96V30c0,0.92,0.28,1.38,0.83,1.38c0.58,0,0.99-0.26,1.21-0.79v-4.37h0.97v5.91h-0.92L172.19,31.61z"/>
			<path class="st1" d="M175.62,32.13h-0.97v-8.38h0.97V32.13z"/>
			<path class="st1" d="M178.4,24.79v1.43h0.89V27h-0.89v3.67c0,0.23,0.04,0.41,0.11,0.53c0.08,0.12,0.21,0.18,0.39,0.18
				c0.13,0,0.26-0.02,0.39-0.07l-0.01,0.81c-0.22,0.07-0.44,0.11-0.67,0.11c-0.38,0-0.67-0.14-0.87-0.41
				c-0.2-0.27-0.3-0.66-0.3-1.16V27h-0.9v-0.78h0.9v-1.43H178.4z"/>
			<path class="st1" d="M183.48,32.13c-0.06-0.13-0.1-0.34-0.13-0.64c-0.34,0.5-0.78,0.75-1.31,0.75c-0.54,0-0.95-0.15-1.25-0.45
				c-0.3-0.3-0.45-0.72-0.45-1.27c0-0.6,0.2-1.08,0.61-1.43c0.41-0.35,0.97-0.53,1.68-0.54h0.71v-0.63c0-0.35-0.08-0.6-0.23-0.75
				c-0.16-0.15-0.39-0.22-0.71-0.22c-0.29,0-0.53,0.09-0.71,0.26c-0.18,0.17-0.27,0.39-0.27,0.66h-0.97c0-0.3,0.09-0.59,0.27-0.87
				c0.18-0.27,0.42-0.49,0.72-0.65s0.64-0.23,1.01-0.23c0.6,0,1.06,0.15,1.38,0.45c0.31,0.3,0.48,0.74,0.48,1.31v2.98
				c0,0.46,0.07,0.85,0.19,1.18v0.09H183.48z M182.19,31.36c0.24,0,0.46-0.07,0.68-0.2s0.37-0.29,0.47-0.49v-1.41h-0.54
				c-0.46,0.01-0.82,0.11-1.09,0.31c-0.27,0.2-0.4,0.48-0.4,0.83c0,0.33,0.07,0.58,0.2,0.73S181.87,31.36,182.19,31.36z"/>
			<path class="st1" d="M185.59,28.91c0-0.91,0.17-1.6,0.51-2.08c0.34-0.48,0.83-0.71,1.47-0.71c0.56,0,1,0.23,1.32,0.69v-3.06h0.97
				v8.38h-0.88l-0.05-0.63c-0.32,0.49-0.77,0.74-1.36,0.74c-0.61,0-1.09-0.24-1.44-0.71c-0.35-0.47-0.53-1.14-0.53-2.01V28.91z
				 M186.56,29.45c0,0.66,0.1,1.15,0.29,1.46s0.52,0.47,0.96,0.47c0.48,0,0.84-0.24,1.08-0.72v-2.98c-0.25-0.47-0.6-0.71-1.07-0.71
				c-0.44,0-0.76,0.16-0.96,0.47c-0.2,0.31-0.3,0.79-0.3,1.43V29.45z"/>
		</g>
		<g>
			<path class="st1" d="M154.59,44.64h3.12v0.86h-4.12v-7.95h1V44.64z"/>
			<path class="st1" d="M161.8,45.49c-0.06-0.13-0.1-0.34-0.13-0.64c-0.34,0.5-0.78,0.75-1.31,0.75c-0.54,0-0.95-0.15-1.25-0.45
				c-0.3-0.3-0.45-0.72-0.45-1.27c0-0.6,0.2-1.08,0.61-1.43c0.41-0.35,0.97-0.53,1.68-0.54h0.71v-0.63c0-0.35-0.08-0.6-0.23-0.75
				c-0.16-0.15-0.39-0.22-0.71-0.22c-0.29,0-0.53,0.09-0.71,0.26c-0.18,0.17-0.27,0.39-0.27,0.66h-0.97c0-0.3,0.09-0.59,0.27-0.87
				c0.18-0.27,0.42-0.49,0.72-0.65s0.64-0.23,1.01-0.23c0.6,0,1.06,0.15,1.38,0.45c0.31,0.3,0.48,0.74,0.48,1.31v2.98
				c0,0.46,0.07,0.85,0.19,1.18v0.09H161.8z M160.51,44.73c0.24,0,0.46-0.07,0.68-0.2s0.37-0.29,0.47-0.49v-1.41h-0.54
				c-0.46,0.01-0.82,0.11-1.09,0.31c-0.27,0.2-0.4,0.48-0.4,0.83c0,0.33,0.07,0.58,0.2,0.73S160.19,44.73,160.51,44.73z"/>
			<path class="st1" d="M165.38,38.16v1.43h0.89v0.78h-0.89v3.67c0,0.23,0.04,0.41,0.12,0.53c0.08,0.12,0.21,0.18,0.39,0.18
				c0.13,0,0.26-0.02,0.39-0.07l-0.01,0.81c-0.22,0.07-0.44,0.11-0.67,0.11c-0.38,0-0.67-0.14-0.87-0.41
				c-0.2-0.27-0.3-0.66-0.3-1.16v-3.67h-0.9v-0.78h0.9v-1.43H165.38z"/>
			<path class="st1" d="M168.54,38.02c0,0.16-0.05,0.3-0.14,0.41c-0.09,0.11-0.23,0.16-0.42,0.16c-0.18,0-0.32-0.05-0.41-0.16
				c-0.09-0.11-0.14-0.25-0.14-0.41s0.05-0.3,0.14-0.42c0.09-0.11,0.23-0.17,0.41-0.17c0.18,0,0.32,0.06,0.41,0.17
				C168.49,37.73,168.54,37.86,168.54,38.02z M168.46,45.49h-0.97v-5.91h0.97V45.49z"/>
			<path class="st1" d="M170.89,39.59l0.03,0.64c0.38-0.5,0.85-0.75,1.44-0.75c1.04,0,1.57,0.7,1.59,2.09v3.92h-0.96v-3.88
				c0-0.46-0.08-0.79-0.23-0.99s-0.39-0.29-0.7-0.29c-0.24,0-0.46,0.08-0.65,0.24c-0.19,0.16-0.34,0.37-0.46,0.63v4.29h-0.97v-5.91
				H170.89z"/>
			<path class="st1" d="M175.19,42.27c0-0.86,0.21-1.54,0.62-2.04c0.42-0.5,0.97-0.75,1.65-0.75c0.68,0,1.23,0.24,1.65,0.73
				c0.42,0.49,0.63,1.15,0.64,1.99v0.62c0,0.85-0.21,1.53-0.62,2.03c-0.42,0.5-0.97,0.75-1.66,0.75c-0.68,0-1.23-0.24-1.65-0.73
				c-0.41-0.48-0.63-1.14-0.64-1.96V42.27z M176.15,42.83c0,0.61,0.12,1.08,0.36,1.43s0.56,0.52,0.96,0.52
				c0.85,0,1.29-0.62,1.32-1.84v-0.67c0-0.6-0.12-1.08-0.36-1.43c-0.24-0.35-0.56-0.53-0.97-0.53c-0.4,0-0.71,0.18-0.95,0.53
				c-0.24,0.35-0.36,0.83-0.36,1.43V42.83z"/>
			<path class="st1" d="M184.04,45.49c-0.06-0.13-0.1-0.34-0.13-0.64c-0.34,0.5-0.78,0.75-1.31,0.75c-0.54,0-0.95-0.15-1.25-0.45
				c-0.3-0.3-0.45-0.72-0.45-1.27c0-0.6,0.2-1.08,0.61-1.43c0.41-0.35,0.97-0.53,1.68-0.54h0.71v-0.63c0-0.35-0.08-0.6-0.23-0.75
				c-0.16-0.15-0.39-0.22-0.71-0.22c-0.29,0-0.53,0.09-0.71,0.26c-0.18,0.17-0.27,0.39-0.27,0.66H181c0-0.3,0.09-0.59,0.27-0.87
				c0.18-0.27,0.42-0.49,0.72-0.65s0.64-0.23,1.01-0.23c0.6,0,1.06,0.15,1.38,0.45c0.31,0.3,0.48,0.74,0.48,1.31v2.98
				c0,0.46,0.07,0.85,0.19,1.18v0.09H184.04z M182.75,44.73c0.24,0,0.46-0.07,0.68-0.2s0.37-0.29,0.47-0.49v-1.41h-0.54
				c-0.46,0.01-0.82,0.11-1.09,0.31c-0.27,0.2-0.4,0.48-0.4,0.83c0,0.33,0.07,0.58,0.2,0.73S182.43,44.73,182.75,44.73z"/>
			<path class="st1" d="M187.27,39.59l0.02,0.55c0.36-0.44,0.84-0.65,1.42-0.65c0.66,0,1.12,0.29,1.38,0.86
				c0.37-0.57,0.89-0.86,1.55-0.86c1.09,0,1.64,0.68,1.67,2.04v3.98h-0.96v-3.89c0-0.43-0.08-0.75-0.23-0.96
				c-0.15-0.21-0.41-0.31-0.78-0.31c-0.29,0-0.53,0.11-0.71,0.34s-0.29,0.51-0.32,0.86v3.96h-0.97v-3.93
				c-0.01-0.82-0.34-1.23-1-1.23c-0.49,0-0.83,0.24-1.03,0.73v4.43h-0.96v-5.91H187.27z"/>
			<path class="st1" d="M196.88,45.6c-0.74,0-1.3-0.22-1.69-0.66c-0.39-0.44-0.59-1.08-0.6-1.93V42.3c0-0.88,0.19-1.57,0.58-2.07
				s0.92-0.75,1.61-0.75c0.69,0,1.21,0.22,1.55,0.66c0.34,0.44,0.52,1.13,0.52,2.06v0.63h-3.3v0.14c0,0.63,0.12,1.09,0.36,1.38
				c0.24,0.29,0.58,0.43,1.03,0.43c0.28,0,0.53-0.05,0.75-0.16c0.22-0.11,0.42-0.28,0.61-0.51l0.5,0.61
				C198.37,45.31,197.74,45.6,196.88,45.6z M196.77,40.31c-0.4,0-0.7,0.14-0.89,0.41c-0.19,0.27-0.3,0.7-0.33,1.28h2.33v-0.13
				c-0.03-0.56-0.13-0.96-0.3-1.2C197.4,40.43,197.13,40.31,196.77,40.31z"/>
			<path class="st1" d="M202.44,40.49c-0.13-0.03-0.28-0.04-0.44-0.04c-0.49,0-0.84,0.27-1.04,0.81v4.22H200v-5.91h0.94l0.02,0.6
				c0.26-0.47,0.62-0.71,1.1-0.71c0.15,0,0.28,0.03,0.38,0.08L202.44,40.49z"/>
			<path class="st1" d="M204.52,38.02c0,0.16-0.05,0.3-0.14,0.41c-0.09,0.11-0.23,0.16-0.42,0.16c-0.18,0-0.32-0.05-0.41-0.16
				c-0.09-0.11-0.14-0.25-0.14-0.41s0.05-0.3,0.14-0.42c0.09-0.11,0.23-0.17,0.41-0.17c0.18,0,0.32,0.06,0.41,0.17
				C204.47,37.73,204.52,37.86,204.52,38.02z M204.44,45.49h-0.97v-5.91h0.97V45.49z"/>
			<path class="st1" d="M208.01,44.78c0.32,0,0.58-0.1,0.77-0.3c0.19-0.2,0.3-0.48,0.32-0.85h0.91c-0.02,0.57-0.22,1.04-0.6,1.41
				c-0.38,0.37-0.84,0.56-1.39,0.56c-0.73,0-1.29-0.23-1.67-0.69c-0.38-0.46-0.58-1.15-0.58-2.06v-0.65c0-0.89,0.19-1.57,0.57-2.03
				s0.94-0.7,1.67-0.7c0.6,0,1.08,0.19,1.44,0.57c0.36,0.38,0.54,0.9,0.57,1.57h-0.91c-0.02-0.44-0.13-0.76-0.31-0.98
				c-0.19-0.22-0.45-0.33-0.78-0.33c-0.43,0-0.75,0.14-0.96,0.42c-0.21,0.28-0.31,0.75-0.32,1.39v0.75c0,0.7,0.1,1.19,0.31,1.47
				C207.24,44.64,207.57,44.78,208.01,44.78z"/>
			<path class="st1" d="M214.16,45.49c-0.06-0.13-0.1-0.34-0.12-0.64c-0.34,0.5-0.78,0.75-1.31,0.75c-0.53,0-0.95-0.15-1.25-0.45
				c-0.3-0.3-0.45-0.72-0.45-1.27c0-0.6,0.2-1.08,0.61-1.43c0.41-0.35,0.97-0.53,1.68-0.54h0.71v-0.63c0-0.35-0.08-0.6-0.23-0.75
				c-0.16-0.15-0.4-0.22-0.72-0.22c-0.29,0-0.53,0.09-0.71,0.26c-0.18,0.17-0.27,0.39-0.27,0.66h-0.97c0-0.3,0.09-0.59,0.27-0.87
				c0.18-0.27,0.42-0.49,0.72-0.65c0.3-0.16,0.64-0.23,1.01-0.23c0.6,0,1.06,0.15,1.38,0.45c0.31,0.3,0.48,0.74,0.48,1.31v2.98
				c0,0.46,0.07,0.85,0.19,1.18v0.09H214.16z M212.88,44.73c0.24,0,0.46-0.07,0.68-0.2s0.37-0.29,0.47-0.49v-1.41h-0.55
				c-0.46,0.01-0.82,0.11-1.09,0.31c-0.27,0.2-0.4,0.48-0.4,0.83c0,0.33,0.07,0.58,0.2,0.73C212.33,44.65,212.56,44.73,212.88,44.73
				z"/>
			<path class="st1" d="M217.39,39.59l0.03,0.64c0.38-0.5,0.85-0.75,1.44-0.75c1.04,0,1.57,0.7,1.59,2.09v3.92h-0.96v-3.88
				c0-0.46-0.08-0.79-0.23-0.99s-0.39-0.29-0.7-0.29c-0.24,0-0.46,0.08-0.65,0.24c-0.19,0.16-0.34,0.37-0.46,0.63v4.29h-0.97v-5.91
				H217.39z"/>
			<path class="st1" d="M224.93,45.49c-0.06-0.13-0.1-0.34-0.13-0.64c-0.34,0.5-0.78,0.75-1.31,0.75c-0.54,0-0.95-0.15-1.25-0.45
				c-0.3-0.3-0.45-0.72-0.45-1.27c0-0.6,0.2-1.08,0.61-1.43c0.41-0.35,0.97-0.53,1.68-0.54h0.71v-0.63c0-0.35-0.08-0.6-0.23-0.75
				c-0.16-0.15-0.39-0.22-0.71-0.22c-0.29,0-0.53,0.09-0.71,0.26c-0.18,0.17-0.27,0.39-0.27,0.66h-0.97c0-0.3,0.09-0.59,0.27-0.87
				c0.18-0.27,0.42-0.49,0.72-0.65s0.64-0.23,1.01-0.23c0.6,0,1.06,0.15,1.38,0.45c0.31,0.3,0.48,0.74,0.48,1.31v2.98
				c0,0.46,0.07,0.85,0.19,1.18v0.09H224.93z M223.64,44.73c0.24,0,0.46-0.07,0.68-0.2s0.37-0.29,0.47-0.49v-1.41h-0.54
				c-0.46,0.01-0.82,0.11-1.09,0.31c-0.27,0.2-0.4,0.48-0.4,0.83c0,0.33,0.07,0.58,0.2,0.73S223.32,44.73,223.64,44.73z"/>
			<path class="st1" d="M229.6,42.27c0-0.91,0.17-1.6,0.51-2.08c0.34-0.48,0.83-0.71,1.47-0.71c0.56,0,1,0.23,1.32,0.69v-3.06h0.97
				v8.38h-0.88l-0.05-0.63c-0.32,0.49-0.77,0.74-1.36,0.74c-0.61,0-1.09-0.24-1.44-0.71c-0.35-0.47-0.52-1.14-0.53-2.01V42.27z
				 M230.57,42.82c0,0.66,0.1,1.15,0.29,1.46c0.2,0.31,0.52,0.47,0.96,0.47c0.48,0,0.84-0.24,1.08-0.72v-2.98
				c-0.25-0.47-0.6-0.71-1.07-0.71c-0.44,0-0.76,0.16-0.96,0.47c-0.2,0.31-0.3,0.79-0.3,1.43V42.82z"/>
			<path class="st1" d="M237.46,45.6c-0.74,0-1.3-0.22-1.69-0.66c-0.39-0.44-0.59-1.08-0.6-1.93V42.3c0-0.88,0.19-1.57,0.58-2.07
				s0.92-0.75,1.61-0.75c0.69,0,1.21,0.22,1.55,0.66s0.52,1.13,0.52,2.06v0.63h-3.3v0.14c0,0.63,0.12,1.09,0.36,1.38
				c0.24,0.29,0.58,0.43,1.03,0.43c0.28,0,0.53-0.05,0.75-0.16s0.42-0.28,0.61-0.51l0.5,0.61C238.96,45.31,238.32,45.6,237.46,45.6z
				 M237.35,40.31c-0.4,0-0.7,0.14-0.89,0.41c-0.19,0.27-0.3,0.7-0.33,1.28h2.33v-0.13c-0.03-0.56-0.13-0.96-0.3-1.2
				S237.71,40.31,237.35,40.31z"/>
		</g>
		<g>
			<path class="st1" d="M158.57,56.34c-0.04,0.85-0.28,1.5-0.72,1.96s-1.05,0.68-1.84,0.68c-0.8,0-1.43-0.3-1.9-0.91
				c-0.47-0.61-0.7-1.43-0.7-2.46v-1.44c0-1.03,0.24-1.85,0.72-2.45c0.48-0.6,1.14-0.9,1.97-0.9c0.77,0,1.36,0.23,1.78,0.69
				c0.42,0.46,0.65,1.12,0.69,1.97h-1.01c-0.04-0.65-0.18-1.11-0.41-1.39c-0.23-0.28-0.58-0.41-1.05-0.41
				c-0.54,0-0.96,0.21-1.25,0.64c-0.29,0.42-0.44,1.04-0.44,1.86v1.46c0,0.8,0.14,1.42,0.41,1.85c0.27,0.43,0.67,0.64,1.19,0.64
				c0.52,0,0.9-0.13,1.12-0.39c0.23-0.26,0.37-0.72,0.43-1.39H158.57z"/>
			<path class="st1" d="M160.91,51.39c0,0.16-0.04,0.3-0.14,0.41c-0.09,0.11-0.23,0.16-0.42,0.16c-0.18,0-0.32-0.05-0.41-0.16
				c-0.09-0.11-0.14-0.25-0.14-0.41s0.04-0.3,0.14-0.42c0.09-0.11,0.23-0.17,0.41-0.17c0.18,0,0.32,0.06,0.41,0.17
				C160.86,51.1,160.91,51.23,160.91,51.39z M160.83,58.87h-0.97v-5.91h0.97V58.87z"/>
			<path class="st1" d="M164.46,58.98c-0.74,0-1.3-0.22-1.69-0.66c-0.39-0.44-0.59-1.08-0.6-1.93v-0.71c0-0.88,0.19-1.57,0.58-2.07
				s0.92-0.75,1.61-0.75c0.69,0,1.21,0.22,1.55,0.66s0.52,1.13,0.52,2.06v0.63h-3.3v0.14c0,0.63,0.12,1.09,0.36,1.38
				c0.24,0.29,0.58,0.43,1.03,0.43c0.28,0,0.53-0.05,0.75-0.16s0.42-0.28,0.61-0.51l0.5,0.61
				C165.96,58.68,165.32,58.98,164.46,58.98z M164.35,53.68c-0.4,0-0.7,0.14-0.89,0.41c-0.19,0.27-0.3,0.7-0.33,1.28h2.33v-0.13
				c-0.03-0.56-0.13-0.96-0.3-1.2S164.71,53.68,164.35,53.68z"/>
			<path class="st1" d="M168.49,52.96l0.03,0.64c0.38-0.5,0.85-0.75,1.44-0.75c1.04,0,1.57,0.7,1.59,2.09v3.92h-0.96v-3.88
				c0-0.46-0.08-0.79-0.23-0.99c-0.16-0.19-0.39-0.29-0.7-0.29c-0.24,0-0.46,0.08-0.65,0.24c-0.19,0.16-0.34,0.37-0.46,0.63v4.29
				h-0.97v-5.91H168.49z"/>
			<path class="st1" d="M175.04,58.15c0.32,0,0.58-0.1,0.77-0.3c0.19-0.2,0.3-0.48,0.32-0.85h0.91c-0.02,0.57-0.22,1.04-0.6,1.41
				c-0.38,0.37-0.85,0.56-1.39,0.56c-0.73,0-1.29-0.23-1.67-0.69c-0.38-0.46-0.58-1.15-0.58-2.06v-0.65c0-0.89,0.19-1.57,0.57-2.03
				c0.38-0.46,0.94-0.7,1.67-0.7c0.6,0,1.08,0.19,1.44,0.57c0.35,0.38,0.54,0.9,0.56,1.57h-0.91c-0.02-0.44-0.13-0.76-0.31-0.98
				c-0.19-0.22-0.45-0.33-0.78-0.33c-0.43,0-0.75,0.14-0.96,0.42c-0.21,0.28-0.31,0.75-0.32,1.39v0.75c0,0.7,0.1,1.19,0.31,1.47
				C174.27,58.01,174.6,58.15,175.04,58.15z"/>
			<path class="st1" d="M179.27,51.39c0,0.16-0.04,0.3-0.14,0.41c-0.09,0.11-0.23,0.16-0.42,0.16c-0.18,0-0.32-0.05-0.41-0.16
				c-0.09-0.11-0.14-0.25-0.14-0.41s0.04-0.3,0.14-0.42c0.09-0.11,0.23-0.17,0.41-0.17c0.18,0,0.32,0.06,0.41,0.17
				C179.23,51.1,179.27,51.23,179.27,51.39z M179.2,58.87h-0.97v-5.91h0.97V58.87z"/>
			<path class="st1" d="M183.76,58.87c-0.06-0.13-0.1-0.34-0.12-0.64c-0.34,0.5-0.78,0.75-1.31,0.75c-0.53,0-0.95-0.15-1.25-0.45
				c-0.3-0.3-0.45-0.72-0.45-1.27c0-0.6,0.2-1.08,0.61-1.43c0.41-0.35,0.97-0.53,1.68-0.54h0.71v-0.63c0-0.35-0.08-0.6-0.23-0.75
				c-0.16-0.15-0.4-0.22-0.72-0.22c-0.29,0-0.53,0.09-0.71,0.26c-0.18,0.17-0.27,0.39-0.27,0.66h-0.97c0-0.3,0.09-0.59,0.27-0.87
				c0.18-0.27,0.42-0.49,0.72-0.65c0.3-0.16,0.64-0.23,1.01-0.23c0.6,0,1.06,0.15,1.38,0.45c0.31,0.3,0.48,0.74,0.48,1.31v2.98
				c0,0.46,0.07,0.85,0.19,1.18v0.09H183.76z M182.47,58.1c0.24,0,0.46-0.07,0.68-0.2s0.37-0.29,0.47-0.49V56h-0.55
				c-0.46,0.01-0.82,0.11-1.09,0.31c-0.27,0.2-0.4,0.48-0.4,0.83c0,0.33,0.07,0.58,0.2,0.73C181.92,58.02,182.15,58.1,182.47,58.1z"
				/>
			<path class="st1" d="M188.94,57.35c0-0.21-0.08-0.39-0.23-0.54c-0.16-0.15-0.46-0.32-0.91-0.52c-0.52-0.21-0.89-0.4-1.1-0.55
				c-0.21-0.15-0.37-0.33-0.48-0.52c-0.11-0.19-0.16-0.43-0.16-0.7c0-0.48,0.18-0.88,0.53-1.2c0.35-0.32,0.8-0.48,1.35-0.48
				c0.57,0,1.04,0.17,1.39,0.5c0.35,0.33,0.52,0.76,0.52,1.29h-0.96c0-0.27-0.09-0.49-0.27-0.68c-0.18-0.19-0.41-0.28-0.68-0.28
				c-0.28,0-0.51,0.07-0.67,0.22c-0.16,0.15-0.24,0.34-0.24,0.59c0,0.2,0.06,0.35,0.18,0.47c0.12,0.12,0.4,0.28,0.85,0.47
				c0.72,0.28,1.2,0.55,1.46,0.82c0.26,0.27,0.39,0.61,0.39,1.02c0,0.51-0.18,0.92-0.53,1.23c-0.35,0.31-0.83,0.46-1.42,0.46
				c-0.62,0-1.11-0.18-1.5-0.53c-0.38-0.35-0.57-0.8-0.57-1.34h0.97c0.01,0.33,0.11,0.58,0.3,0.77s0.46,0.28,0.8,0.28
				c0.32,0,0.56-0.07,0.73-0.22S188.94,57.6,188.94,57.35z"/>
			<path class="st1" d="M197.33,56.86c0-0.4-0.11-0.7-0.32-0.91s-0.6-0.42-1.16-0.62s-0.99-0.41-1.29-0.63
				c-0.3-0.22-0.52-0.47-0.67-0.75s-0.22-0.6-0.22-0.97c0-0.63,0.21-1.15,0.63-1.56c0.42-0.41,0.97-0.61,1.65-0.61
				c0.47,0,0.88,0.1,1.24,0.31c0.36,0.21,0.64,0.5,0.84,0.87c0.2,0.37,0.29,0.78,0.29,1.22h-1c0-0.49-0.12-0.87-0.35-1.14
				c-0.24-0.27-0.58-0.4-1.02-0.4c-0.4,0-0.72,0.11-0.94,0.34c-0.22,0.23-0.33,0.54-0.33,0.95c0,0.33,0.12,0.62,0.36,0.84
				c0.24,0.23,0.61,0.43,1.11,0.61c0.78,0.26,1.34,0.58,1.68,0.96c0.34,0.38,0.5,0.87,0.5,1.48c0,0.64-0.21,1.16-0.63,1.55
				c-0.42,0.39-0.99,0.58-1.71,0.58c-0.46,0-0.89-0.1-1.28-0.3c-0.39-0.2-0.7-0.49-0.92-0.85c-0.22-0.37-0.34-0.79-0.34-1.26h1
				c0,0.49,0.14,0.87,0.41,1.15c0.28,0.27,0.65,0.41,1.12,0.41c0.44,0,0.77-0.11,0.99-0.34S197.33,57.25,197.33,56.86z"/>
			<path class="st1" d="M199.31,55.64c0-0.86,0.21-1.54,0.62-2.04c0.42-0.5,0.97-0.75,1.65-0.75c0.68,0,1.23,0.24,1.65,0.73
				c0.42,0.49,0.63,1.15,0.64,1.99v0.62c0,0.85-0.21,1.53-0.62,2.03c-0.42,0.5-0.97,0.75-1.66,0.75c-0.68,0-1.23-0.24-1.65-0.73
				c-0.41-0.48-0.63-1.14-0.64-1.96V55.64z M200.28,56.2c0,0.61,0.12,1.08,0.36,1.43s0.56,0.52,0.96,0.52
				c0.85,0,1.29-0.62,1.32-1.84v-0.67c0-0.6-0.12-1.08-0.36-1.43c-0.24-0.35-0.56-0.53-0.97-0.53c-0.4,0-0.71,0.18-0.95,0.53
				c-0.24,0.35-0.36,0.83-0.36,1.43V56.2z"/>
			<path class="st1" d="M207.18,58.15c0.32,0,0.58-0.1,0.77-0.3c0.19-0.2,0.3-0.48,0.32-0.85h0.91c-0.02,0.57-0.22,1.04-0.6,1.41
				c-0.38,0.37-0.84,0.56-1.39,0.56c-0.73,0-1.29-0.23-1.67-0.69c-0.38-0.46-0.58-1.15-0.58-2.06v-0.65c0-0.89,0.19-1.57,0.57-2.03
				s0.94-0.7,1.67-0.7c0.6,0,1.08,0.19,1.44,0.57c0.36,0.38,0.54,0.9,0.57,1.57h-0.91c-0.02-0.44-0.13-0.76-0.31-0.98
				c-0.19-0.22-0.45-0.33-0.78-0.33c-0.43,0-0.75,0.14-0.96,0.42c-0.21,0.28-0.31,0.75-0.32,1.39v0.75c0,0.7,0.1,1.19,0.31,1.47
				C206.41,58.01,206.73,58.15,207.18,58.15z"/>
			<path class="st1" d="M211.41,51.39c0,0.16-0.05,0.3-0.14,0.41c-0.09,0.11-0.23,0.16-0.42,0.16c-0.18,0-0.32-0.05-0.41-0.16
				c-0.09-0.11-0.14-0.25-0.14-0.41s0.05-0.3,0.14-0.42c0.09-0.11,0.23-0.17,0.41-0.17c0.18,0,0.32,0.06,0.41,0.17
				C211.36,51.1,211.41,51.23,211.41,51.39z M211.33,58.87h-0.97v-5.91h0.97V58.87z"/>
			<path class="st1" d="M215.89,58.87c-0.06-0.13-0.1-0.34-0.13-0.64c-0.34,0.5-0.78,0.75-1.31,0.75c-0.54,0-0.95-0.15-1.25-0.45
				c-0.3-0.3-0.45-0.72-0.45-1.27c0-0.6,0.2-1.08,0.61-1.43c0.41-0.35,0.97-0.53,1.68-0.54h0.71v-0.63c0-0.35-0.08-0.6-0.23-0.75
				c-0.16-0.15-0.39-0.22-0.71-0.22c-0.29,0-0.53,0.09-0.71,0.26c-0.18,0.17-0.27,0.39-0.27,0.66h-0.97c0-0.3,0.09-0.59,0.27-0.87
				c0.18-0.27,0.42-0.49,0.72-0.65s0.64-0.23,1.01-0.23c0.6,0,1.06,0.15,1.38,0.45c0.31,0.3,0.48,0.74,0.48,1.31v2.98
				c0,0.46,0.07,0.85,0.19,1.18v0.09H215.89z M214.6,58.1c0.24,0,0.46-0.07,0.68-0.2s0.37-0.29,0.47-0.49V56h-0.54
				c-0.46,0.01-0.82,0.11-1.09,0.31c-0.27,0.2-0.4,0.48-0.4,0.83c0,0.33,0.07,0.58,0.2,0.73S214.28,58.1,214.6,58.1z"/>
			<path class="st1" d="M219.25,58.87h-0.97v-8.38h0.97V58.87z"/>
			<path class="st1" d="M222.88,58.98c-0.74,0-1.3-0.22-1.69-0.66c-0.39-0.44-0.59-1.08-0.6-1.93v-0.71c0-0.88,0.19-1.57,0.58-2.07
				s0.92-0.75,1.61-0.75c0.69,0,1.21,0.22,1.55,0.66c0.34,0.44,0.52,1.13,0.52,2.06v0.63h-3.3v0.14c0,0.63,0.12,1.09,0.36,1.38
				c0.24,0.29,0.58,0.43,1.03,0.43c0.28,0,0.53-0.05,0.75-0.16c0.22-0.11,0.42-0.28,0.61-0.51l0.5,0.61
				C224.37,58.68,223.73,58.98,222.88,58.98z M222.77,53.68c-0.4,0-0.7,0.14-0.89,0.41c-0.19,0.27-0.3,0.7-0.33,1.28h2.33v-0.13
				c-0.03-0.56-0.13-0.96-0.3-1.2C223.4,53.8,223.13,53.68,222.77,53.68z"/>
			<path class="st1" d="M228.87,57.35c0-0.21-0.08-0.39-0.23-0.54c-0.16-0.15-0.46-0.32-0.91-0.52c-0.52-0.21-0.89-0.4-1.1-0.55
				c-0.21-0.15-0.37-0.33-0.48-0.52c-0.11-0.19-0.16-0.43-0.16-0.7c0-0.48,0.18-0.88,0.53-1.2c0.35-0.32,0.8-0.48,1.35-0.48
				c0.57,0,1.04,0.17,1.39,0.5c0.35,0.33,0.52,0.76,0.52,1.29h-0.96c0-0.27-0.09-0.49-0.27-0.68c-0.18-0.19-0.41-0.28-0.68-0.28
				c-0.28,0-0.51,0.07-0.67,0.22c-0.16,0.15-0.24,0.34-0.24,0.59c0,0.2,0.06,0.35,0.18,0.47c0.12,0.12,0.4,0.28,0.85,0.47
				c0.72,0.28,1.2,0.55,1.46,0.82c0.26,0.27,0.39,0.61,0.39,1.02c0,0.51-0.18,0.92-0.53,1.23c-0.35,0.31-0.83,0.46-1.42,0.46
				c-0.62,0-1.11-0.18-1.5-0.53c-0.38-0.35-0.57-0.8-0.57-1.34h0.97c0.01,0.33,0.11,0.58,0.3,0.77s0.46,0.28,0.8,0.28
				c0.32,0,0.56-0.07,0.73-0.22S228.87,57.6,228.87,57.35z"/>
			<path class="st1" d="M231.16,58.34c0-0.17,0.05-0.32,0.16-0.44c0.1-0.12,0.26-0.17,0.47-0.17c0.21,0,0.37,0.06,0.47,0.17
				c0.11,0.12,0.16,0.26,0.16,0.44c0,0.17-0.05,0.31-0.16,0.42c-0.11,0.11-0.26,0.17-0.47,0.17c-0.21,0-0.36-0.06-0.47-0.17
				C231.21,58.64,231.16,58.5,231.16,58.34z"/>
		</g>
		<g>
			<path class="st1" d="M157.06,70.23c0-0.4-0.11-0.7-0.32-0.91s-0.6-0.42-1.16-0.62c-0.56-0.2-0.99-0.41-1.29-0.63
				s-0.52-0.47-0.67-0.75c-0.15-0.28-0.22-0.6-0.22-0.97c0-0.63,0.21-1.15,0.63-1.56c0.42-0.41,0.97-0.61,1.65-0.61
				c0.47,0,0.88,0.1,1.24,0.31c0.36,0.21,0.64,0.5,0.84,0.87s0.29,0.78,0.29,1.22h-1c0-0.49-0.12-0.87-0.36-1.14
				c-0.24-0.27-0.58-0.4-1.02-0.4c-0.4,0-0.72,0.11-0.94,0.34c-0.22,0.23-0.33,0.54-0.33,0.95c0,0.34,0.12,0.62,0.36,0.84
				c0.24,0.23,0.61,0.43,1.11,0.61c0.78,0.26,1.34,0.58,1.68,0.96c0.34,0.38,0.5,0.87,0.5,1.48c0,0.64-0.21,1.16-0.63,1.55
				c-0.42,0.39-0.99,0.58-1.71,0.58c-0.46,0-0.89-0.1-1.28-0.3c-0.39-0.2-0.7-0.49-0.92-0.85c-0.22-0.37-0.34-0.79-0.34-1.26h1
				c0,0.49,0.14,0.88,0.41,1.15c0.27,0.27,0.65,0.41,1.12,0.41c0.44,0,0.77-0.11,0.99-0.34C156.95,70.92,157.06,70.62,157.06,70.23z
				"/>
			<path class="st1" d="M161.35,72.35c-0.74,0-1.3-0.22-1.69-0.66c-0.39-0.44-0.59-1.08-0.6-1.93v-0.71c0-0.88,0.19-1.57,0.58-2.07
				s0.92-0.75,1.61-0.75c0.69,0,1.21,0.22,1.55,0.66c0.34,0.44,0.52,1.13,0.52,2.06v0.63h-3.3v0.14c0,0.63,0.12,1.09,0.36,1.38
				s0.58,0.43,1.03,0.43c0.28,0,0.53-0.05,0.75-0.16s0.42-0.28,0.61-0.51l0.5,0.61C162.85,72.05,162.21,72.35,161.35,72.35z
				 M161.25,67.05c-0.4,0-0.7,0.14-0.89,0.41c-0.19,0.27-0.3,0.7-0.33,1.28h2.33v-0.13c-0.03-0.56-0.13-0.96-0.3-1.2
				S161.61,67.05,161.25,67.05z"/>
			<path class="st1" d="M164.27,69.02c0-0.91,0.17-1.6,0.51-2.08c0.34-0.48,0.83-0.71,1.47-0.71c0.56,0,1,0.23,1.32,0.69v-3.06h0.97
				v8.38h-0.88l-0.05-0.63c-0.32,0.49-0.77,0.74-1.36,0.74c-0.61,0-1.09-0.24-1.44-0.71s-0.53-1.14-0.53-2.01V69.02z M165.24,69.57
				c0,0.66,0.1,1.15,0.29,1.46s0.52,0.47,0.96,0.47c0.48,0,0.84-0.24,1.08-0.72v-2.98c-0.25-0.47-0.6-0.71-1.07-0.71
				c-0.44,0-0.76,0.15-0.96,0.46c-0.2,0.31-0.3,0.79-0.3,1.43V69.57z"/>
			<path class="st1" d="M172.14,72.35c-0.74,0-1.3-0.22-1.69-0.66c-0.39-0.44-0.59-1.08-0.6-1.93v-0.71c0-0.88,0.19-1.57,0.58-2.07
				s0.92-0.75,1.61-0.75c0.69,0,1.21,0.22,1.55,0.66c0.34,0.44,0.52,1.13,0.52,2.06v0.63h-3.3v0.14c0,0.63,0.12,1.09,0.36,1.38
				s0.58,0.43,1.03,0.43c0.28,0,0.53-0.05,0.75-0.16s0.42-0.28,0.61-0.51l0.5,0.61C173.63,72.05,172.99,72.35,172.14,72.35z
				 M172.03,67.05c-0.4,0-0.7,0.14-0.89,0.41c-0.19,0.27-0.3,0.7-0.33,1.28h2.33v-0.13c-0.03-0.56-0.13-0.96-0.3-1.2
				S172.39,67.05,172.03,67.05z"/>
			<path class="st1" d="M181.66,70.16h-2.69l-0.62,2.08h-1.03l2.56-7.95h0.86l2.57,7.95h-1.03L181.66,70.16z M179.24,69.3h2.17
				l-1.09-3.61L179.24,69.3z"/>
			<path class="st1" d="M186.7,67.24c-0.13-0.03-0.28-0.04-0.44-0.04c-0.5,0-0.84,0.27-1.04,0.81v4.22h-0.97v-5.91h0.94l0.02,0.6
				c0.26-0.47,0.62-0.71,1.1-0.71c0.15,0,0.28,0.03,0.38,0.08L186.7,67.24z"/>
			<path class="st1" d="M187.38,69.02c0-0.92,0.17-1.62,0.5-2.09c0.33-0.47,0.82-0.71,1.47-0.71c0.6,0,1.06,0.26,1.37,0.77
				l0.05-0.66h0.87v5.96c0,0.73-0.19,1.29-0.56,1.68s-0.9,0.59-1.57,0.59c-0.29,0-0.62-0.07-0.98-0.21
				c-0.36-0.14-0.63-0.32-0.82-0.53l0.39-0.67c0.4,0.39,0.84,0.59,1.33,0.59c0.8,0,1.22-0.44,1.24-1.31v-0.77
				c-0.31,0.46-0.76,0.69-1.33,0.69c-0.61,0-1.09-0.23-1.43-0.69s-0.52-1.12-0.54-1.98V69.02z M188.34,69.57
				c0,0.66,0.1,1.15,0.29,1.46c0.19,0.31,0.51,0.47,0.96,0.47c0.48,0,0.84-0.25,1.08-0.74V67.8c-0.25-0.48-0.61-0.72-1.07-0.72
				c-0.44,0-0.76,0.15-0.96,0.46c-0.2,0.31-0.3,0.79-0.3,1.43V69.57z"/>
			<path class="st1" d="M195.19,72.35c-0.74,0-1.3-0.22-1.69-0.66c-0.39-0.44-0.59-1.08-0.6-1.93v-0.71c0-0.88,0.19-1.57,0.58-2.07
				s0.92-0.75,1.61-0.75c0.69,0,1.21,0.22,1.55,0.66c0.34,0.44,0.52,1.13,0.52,2.06v0.63h-3.3v0.14c0,0.63,0.12,1.09,0.36,1.38
				s0.58,0.43,1.03,0.43c0.28,0,0.53-0.05,0.75-0.16s0.42-0.28,0.61-0.51l0.5,0.61C196.69,72.05,196.05,72.35,195.19,72.35z
				 M195.08,67.05c-0.4,0-0.7,0.14-0.89,0.41c-0.19,0.27-0.3,0.7-0.33,1.28h2.33v-0.13c-0.03-0.56-0.13-0.96-0.3-1.2
				S195.44,67.05,195.08,67.05z"/>
			<path class="st1" d="M199.22,66.33l0.03,0.64c0.38-0.5,0.85-0.75,1.44-0.75c1.04,0,1.57,0.7,1.59,2.09v3.93h-0.96v-3.88
				c0-0.46-0.08-0.79-0.23-0.99c-0.15-0.19-0.39-0.29-0.7-0.29c-0.24,0-0.46,0.08-0.65,0.24c-0.19,0.16-0.34,0.37-0.46,0.63v4.29
				h-0.97v-5.91H199.22z"/>
			<path class="st1" d="M204.99,64.9v1.43h0.89v0.78h-0.89v3.67c0,0.23,0.04,0.41,0.11,0.53c0.08,0.12,0.21,0.18,0.39,0.18
				c0.13,0,0.26-0.02,0.39-0.07l-0.01,0.81c-0.22,0.07-0.44,0.11-0.67,0.11c-0.38,0-0.67-0.14-0.87-0.41s-0.3-0.66-0.3-1.16v-3.67
				h-0.9v-0.78h0.9V64.9H204.99z"/>
			<path class="st1" d="M208.14,64.76c0,0.16-0.04,0.3-0.14,0.41c-0.09,0.11-0.23,0.16-0.42,0.16c-0.18,0-0.32-0.05-0.41-0.16
				c-0.09-0.11-0.14-0.24-0.14-0.41c0-0.16,0.04-0.3,0.14-0.42c0.09-0.11,0.23-0.17,0.41-0.17c0.18,0,0.32,0.06,0.41,0.17
				C208.1,64.47,208.14,64.6,208.14,64.76z M208.06,72.24h-0.97v-5.91h0.97V72.24z"/>
			<path class="st1" d="M210.49,66.33l0.03,0.64c0.38-0.5,0.85-0.75,1.44-0.75c1.04,0,1.57,0.7,1.59,2.09v3.93h-0.96v-3.88
				c0-0.46-0.08-0.79-0.23-0.99c-0.16-0.19-0.39-0.29-0.7-0.29c-0.24,0-0.46,0.08-0.65,0.24c-0.19,0.16-0.34,0.37-0.46,0.63v4.29
				h-0.97v-5.91H210.49z"/>
			<path class="st1" d="M218.03,72.24c-0.06-0.13-0.1-0.34-0.12-0.64c-0.34,0.5-0.78,0.75-1.31,0.75c-0.53,0-0.95-0.15-1.25-0.45
				c-0.3-0.3-0.45-0.72-0.45-1.27c0-0.6,0.2-1.08,0.61-1.43c0.41-0.35,0.97-0.53,1.68-0.54h0.71v-0.63c0-0.35-0.08-0.6-0.23-0.75
				c-0.16-0.15-0.4-0.22-0.72-0.22c-0.29,0-0.53,0.09-0.71,0.26c-0.18,0.17-0.27,0.39-0.27,0.66h-0.97c0-0.3,0.09-0.59,0.27-0.87
				c0.18-0.27,0.42-0.49,0.72-0.65c0.3-0.16,0.64-0.23,1.01-0.23c0.6,0,1.06,0.15,1.38,0.45c0.31,0.3,0.48,0.74,0.48,1.31v2.98
				c0,0.46,0.07,0.85,0.19,1.18v0.09H218.03z M216.74,71.47c0.24,0,0.46-0.07,0.68-0.2s0.37-0.29,0.47-0.49v-1.41h-0.55
				c-0.46,0.01-0.82,0.11-1.09,0.31c-0.27,0.2-0.4,0.48-0.4,0.83c0,0.33,0.07,0.58,0.2,0.73C216.2,71.39,216.42,71.47,216.74,71.47z
				"/>
			<path class="st1" d="M220.41,71.71c0-0.18,0.05-0.32,0.16-0.44c0.1-0.12,0.26-0.17,0.47-0.17c0.21,0,0.37,0.06,0.47,0.17
				s0.16,0.26,0.16,0.44c0,0.17-0.05,0.31-0.16,0.42s-0.26,0.17-0.47,0.17c-0.21,0-0.36-0.05-0.47-0.17
				C220.46,72.01,220.41,71.87,220.41,71.71z"/>
		</g>
		<g>
			<path class="st1" d="M157.16,90.5h-2.19l-0.42,1.63h-1.7l2.48-7.95h1.47l2.5,7.95h-1.71L157.16,90.5z M156.39,82.05h1.74
				l-1.52,1.69h-1.29L156.39,82.05z M155.32,89.16h1.49l-0.74-2.83L155.32,89.16z"/>
			<path class="st1" d="M162.88,87.71l-0.51-0.04c-0.42,0-0.71,0.19-0.86,0.56v3.9h-1.55v-5.91h1.46l0.04,0.64
				c0.24-0.5,0.58-0.75,1.01-0.75c0.17,0,0.32,0.02,0.43,0.07L162.88,87.71z"/>
			<path class="st1" d="M165.97,92.23c-0.79,0-1.41-0.24-1.86-0.71c-0.44-0.47-0.67-1.15-0.67-2.03v-0.47c0-0.93,0.2-1.65,0.61-2.16
				c0.41-0.5,0.99-0.76,1.75-0.76c0.74,0,1.3,0.24,1.68,0.71s0.57,1.18,0.57,2.11v0.76h-3.07c0.02,0.44,0.12,0.76,0.29,0.96
				s0.43,0.3,0.79,0.3c0.52,0,0.95-0.18,1.29-0.53l0.61,0.93c-0.19,0.26-0.46,0.47-0.82,0.63S166.39,92.23,165.97,92.23z M165,88.61
				h1.54v-0.14c-0.01-0.35-0.07-0.62-0.17-0.8c-0.11-0.18-0.3-0.27-0.57-0.27c-0.27,0-0.46,0.1-0.59,0.29S165.02,88.18,165,88.61z"
				/>
			<path class="st1" d="M171.74,92.12c-0.04-0.09-0.09-0.24-0.13-0.46c-0.28,0.38-0.65,0.57-1.12,0.57c-0.49,0-0.91-0.16-1.23-0.49
				c-0.33-0.33-0.49-0.75-0.49-1.27c0-0.62,0.2-1.1,0.59-1.44s0.96-0.51,1.71-0.52h0.47v-0.47c0-0.27-0.04-0.45-0.14-0.56
				c-0.09-0.11-0.22-0.16-0.4-0.16c-0.39,0-0.58,0.22-0.58,0.68h-1.54c0-0.54,0.21-1,0.61-1.35c0.41-0.35,0.93-0.53,1.55-0.53
				c0.65,0,1.15,0.17,1.5,0.51c0.36,0.34,0.53,0.82,0.53,1.44v2.78c0.01,0.51,0.08,0.91,0.22,1.2v0.09H171.74z M170.83,91.02
				c0.17,0,0.32-0.03,0.44-0.1c0.12-0.07,0.21-0.15,0.27-0.25v-1.23h-0.37c-0.26,0-0.47,0.08-0.62,0.25s-0.23,0.39-0.23,0.67
				C170.31,90.8,170.49,91.02,170.83,91.02z"/>
			<path class="st1" d="M179.26,89.22h-0.8v2.9h-1.61v-7.95h2.56c0.8,0,1.42,0.21,1.86,0.62c0.44,0.42,0.66,1.01,0.66,1.78
				c0,1.06-0.38,1.79-1.15,2.22l1.39,3.25v0.08h-1.72L179.26,89.22z M178.46,87.88h0.91c0.32,0,0.56-0.11,0.72-0.32
				s0.24-0.5,0.24-0.86c0-0.8-0.31-1.2-0.93-1.2h-0.94V87.88z"/>
			<path class="st1" d="M185.35,92.23c-0.79,0-1.41-0.24-1.86-0.71c-0.44-0.47-0.67-1.15-0.67-2.03v-0.47c0-0.93,0.2-1.65,0.61-2.16
				c0.41-0.5,0.99-0.76,1.75-0.76c0.74,0,1.3,0.24,1.68,0.71s0.57,1.18,0.57,2.11v0.76h-3.07c0.02,0.44,0.12,0.76,0.29,0.96
				s0.43,0.3,0.79,0.3c0.52,0,0.95-0.18,1.29-0.53l0.61,0.93c-0.19,0.26-0.46,0.47-0.82,0.63S185.77,92.23,185.35,92.23z
				 M184.38,88.61h1.54v-0.14c-0.01-0.35-0.07-0.62-0.17-0.8c-0.11-0.18-0.3-0.27-0.57-0.27c-0.27,0-0.46,0.1-0.59,0.29
				S184.4,88.18,184.38,88.61z"/>
			<path class="st1" d="M189.93,92.12h-1.55v-8.38h1.55V92.12z"/>
			<path class="st1" d="M193.93,92.12c-0.04-0.09-0.09-0.24-0.13-0.46c-0.28,0.38-0.65,0.57-1.12,0.57c-0.5,0-0.91-0.16-1.23-0.49
				c-0.33-0.33-0.49-0.75-0.49-1.27c0-0.62,0.2-1.1,0.59-1.44c0.39-0.34,0.96-0.51,1.71-0.52h0.47v-0.47c0-0.27-0.05-0.45-0.14-0.56
				c-0.09-0.11-0.22-0.16-0.4-0.16c-0.39,0-0.58,0.22-0.58,0.68h-1.54c0-0.54,0.21-1,0.61-1.35c0.41-0.35,0.93-0.53,1.55-0.53
				c0.65,0,1.15,0.17,1.5,0.51c0.35,0.34,0.53,0.82,0.53,1.44v2.78c0.01,0.51,0.08,0.91,0.22,1.2v0.09H193.93z M193.02,91.02
				c0.17,0,0.32-0.03,0.44-0.1c0.12-0.07,0.21-0.15,0.27-0.25v-1.23h-0.37c-0.26,0-0.47,0.08-0.62,0.25
				c-0.15,0.17-0.23,0.39-0.23,0.67C192.51,90.8,192.68,91.02,193.02,91.02z"/>
			<path class="st1" d="M198.52,90.95c0.45,0,0.67-0.29,0.68-0.87h1.45c-0.01,0.64-0.21,1.16-0.59,1.56s-0.89,0.6-1.51,0.6
				c-0.76,0-1.34-0.24-1.74-0.71c-0.4-0.47-0.6-1.17-0.61-2.09v-0.47c0-0.93,0.2-1.64,0.59-2.12c0.39-0.49,0.98-0.73,1.75-0.73
				c0.65,0,1.17,0.2,1.54,0.6c0.38,0.4,0.57,0.97,0.57,1.71h-1.45c0-0.33-0.06-0.59-0.16-0.76c-0.11-0.18-0.28-0.27-0.52-0.27
				c-0.27,0-0.46,0.1-0.58,0.29c-0.12,0.19-0.18,0.56-0.19,1.11v0.6c0,0.48,0.02,0.81,0.07,1.01c0.05,0.19,0.13,0.33,0.24,0.42
				C198.17,90.91,198.32,90.95,198.52,90.95z"/>
			<path class="st1" d="M201.53,84.69c0-0.24,0.08-0.44,0.23-0.59c0.15-0.15,0.36-0.23,0.61-0.23s0.46,0.08,0.61,0.23
				c0.15,0.15,0.23,0.35,0.23,0.59c0,0.24-0.08,0.43-0.23,0.59s-0.36,0.23-0.61,0.23c-0.26,0-0.46-0.08-0.61-0.23
				C201.61,85.12,201.53,84.93,201.53,84.69z M203.15,92.12h-1.55v-5.91h1.55V92.12z"/>
			<path class="st1" d="M204.17,88.98c0-0.89,0.21-1.6,0.63-2.11c0.42-0.51,1.01-0.76,1.75-0.76c0.75,0,1.34,0.25,1.76,0.76
				s0.63,1.22,0.63,2.12v0.38c0,0.9-0.21,1.6-0.63,2.11c-0.42,0.51-1,0.76-1.76,0.76c-0.76,0-1.35-0.25-1.77-0.76
				c-0.42-0.51-0.63-1.21-0.63-2.12V88.98z M205.72,89.37c0,1.06,0.28,1.58,0.85,1.58c0.52,0,0.8-0.44,0.84-1.32l0.01-0.65
				c0-0.54-0.07-0.94-0.22-1.2c-0.15-0.26-0.36-0.39-0.63-0.39c-0.26,0-0.47,0.13-0.61,0.39c-0.15,0.26-0.22,0.66-0.22,1.2V89.37z"
				/>
			<path class="st1" d="M211.32,86.22l0.04,0.58c0.35-0.46,0.81-0.69,1.37-0.69c1.02,0,1.54,0.71,1.57,2.13v3.88h-1.55v-3.77
				c0-0.33-0.05-0.58-0.15-0.73c-0.1-0.15-0.28-0.23-0.53-0.23c-0.28,0-0.5,0.14-0.66,0.43v4.29h-1.55v-5.91H211.32z"/>
			<path class="st1" d="M217.8,92.23c-0.79,0-1.41-0.24-1.86-0.71c-0.44-0.47-0.67-1.15-0.67-2.03v-0.47c0-0.93,0.2-1.65,0.61-2.16
				c0.41-0.5,0.99-0.76,1.75-0.76c0.74,0,1.3,0.24,1.68,0.71s0.57,1.18,0.57,2.11v0.76h-3.07c0.02,0.44,0.12,0.76,0.29,0.96
				s0.43,0.3,0.79,0.3c0.52,0,0.95-0.18,1.29-0.53l0.61,0.93c-0.19,0.26-0.46,0.47-0.82,0.63S218.22,92.23,217.8,92.23z
				 M216.83,88.61h1.54v-0.14c-0.01-0.35-0.07-0.62-0.17-0.8c-0.11-0.18-0.3-0.27-0.57-0.27c-0.27,0-0.46,0.1-0.59,0.29
				S216.85,88.18,216.83,88.61z"/>
			<path class="st1" d="M223.38,90.54c0-0.13-0.06-0.25-0.19-0.36c-0.12-0.11-0.4-0.26-0.84-0.45c-0.64-0.26-1.07-0.53-1.31-0.8
				s-0.36-0.62-0.36-1.03c0-0.52,0.19-0.94,0.56-1.28c0.37-0.34,0.87-0.51,1.48-0.51c0.65,0,1.17,0.17,1.56,0.5
				c0.39,0.34,0.58,0.79,0.58,1.35h-1.54c0-0.48-0.2-0.72-0.6-0.72c-0.16,0-0.3,0.05-0.4,0.15s-0.16,0.24-0.16,0.43
				c0,0.13,0.06,0.25,0.17,0.35s0.39,0.24,0.82,0.43c0.63,0.23,1.07,0.49,1.33,0.78c0.26,0.29,0.39,0.66,0.39,1.11
				c0,0.53-0.2,0.95-0.59,1.27s-0.92,0.48-1.56,0.48c-0.43,0-0.82-0.09-1.15-0.25c-0.33-0.17-0.59-0.41-0.78-0.71
				c-0.19-0.3-0.28-0.63-0.28-0.98h1.47c0.01,0.27,0.07,0.47,0.19,0.61s0.31,0.2,0.58,0.2C223.17,91.1,223.38,90.91,223.38,90.54z"
				/>
		</g>
		<g>
			<path class="st1" d="M155.04,104.05h-1.6V96.1h1.6V104.05z"/>
			<path class="st1" d="M157.73,98.15l0.04,0.58c0.35-0.46,0.81-0.69,1.37-0.69c1.01,0,1.54,0.71,1.57,2.13v3.88h-1.55v-3.77
				c0-0.33-0.05-0.58-0.15-0.73c-0.1-0.15-0.28-0.23-0.53-0.23c-0.28,0-0.5,0.14-0.65,0.43v4.29h-1.55v-5.91H157.73z"/>
			<path class="st1" d="M163.61,96.69v1.45h0.79v1.16h-0.79v2.94c0,0.23,0.03,0.39,0.1,0.48s0.19,0.13,0.37,0.13
				c0.15,0,0.27-0.01,0.37-0.04l-0.01,1.2c-0.26,0.1-0.55,0.15-0.85,0.15c-1,0-1.5-0.57-1.51-1.71V99.3h-0.68v-1.16h0.68v-1.45
				H163.61z"/>
			<path class="st1" d="M167.64,104.16c-0.79,0-1.41-0.24-1.86-0.71c-0.44-0.47-0.67-1.15-0.67-2.03v-0.47
				c0-0.93,0.2-1.65,0.61-2.16c0.41-0.51,0.99-0.76,1.75-0.76c0.74,0,1.3,0.24,1.68,0.71c0.38,0.47,0.57,1.18,0.57,2.11v0.76h-3.07
				c0.02,0.44,0.12,0.76,0.29,0.96c0.17,0.2,0.43,0.3,0.79,0.3c0.52,0,0.95-0.18,1.29-0.53l0.61,0.93
				c-0.19,0.26-0.46,0.47-0.82,0.64S168.06,104.16,167.64,104.16z M166.67,100.54h1.54v-0.14c-0.01-0.35-0.07-0.62-0.17-0.8
				s-0.3-0.27-0.57-0.27c-0.27,0-0.46,0.1-0.59,0.29C166.76,99.8,166.69,100.11,166.67,100.54z"/>
			<path class="st1" d="M173.52,99.64L173,99.59c-0.42,0-0.71,0.19-0.86,0.56v3.9h-1.55v-5.91h1.46l0.04,0.64
				c0.24-0.5,0.58-0.75,1.01-0.75c0.17,0,0.32,0.02,0.43,0.07L173.52,99.64z"/>
			<path class="st1" d="M175.72,98.15l0.04,0.58c0.35-0.46,0.81-0.69,1.37-0.69c1.02,0,1.54,0.71,1.57,2.13v3.88h-1.55v-3.77
				c0-0.33-0.05-0.58-0.15-0.73c-0.1-0.15-0.28-0.23-0.53-0.23c-0.28,0-0.5,0.14-0.66,0.43v4.29h-1.55v-5.91H175.72z"/>
			<path class="st1" d="M182.61,104.05c-0.04-0.09-0.09-0.24-0.13-0.46c-0.28,0.38-0.65,0.57-1.12,0.57c-0.49,0-0.91-0.16-1.23-0.49
				c-0.33-0.33-0.49-0.75-0.49-1.27c0-0.62,0.2-1.1,0.59-1.44c0.39-0.34,0.96-0.51,1.71-0.52h0.47v-0.47c0-0.27-0.04-0.45-0.14-0.56
				s-0.22-0.16-0.4-0.16c-0.39,0-0.58,0.23-0.58,0.68h-1.54c0-0.55,0.21-1,0.61-1.35s0.93-0.53,1.55-0.53c0.65,0,1.15,0.17,1.5,0.5
				c0.36,0.34,0.53,0.82,0.53,1.44v2.78c0.01,0.51,0.08,0.91,0.22,1.2v0.09H182.61z M181.7,102.95c0.17,0,0.32-0.04,0.44-0.1
				c0.12-0.07,0.21-0.15,0.27-0.25v-1.23h-0.37c-0.26,0-0.47,0.08-0.62,0.25c-0.15,0.17-0.23,0.39-0.23,0.67
				C181.19,102.73,181.36,102.95,181.7,102.95z"/>
			<path class="st1" d="M187.2,102.88c0.45,0,0.68-0.29,0.68-0.87h1.45c-0.01,0.64-0.21,1.16-0.59,1.56
				c-0.39,0.4-0.89,0.59-1.51,0.59c-0.76,0-1.34-0.24-1.74-0.71s-0.6-1.17-0.61-2.09v-0.47c0-0.93,0.2-1.63,0.59-2.12
				c0.4-0.49,0.98-0.73,1.75-0.73c0.65,0,1.16,0.2,1.54,0.6s0.57,0.97,0.57,1.71h-1.45c0-0.33-0.06-0.58-0.16-0.76
				c-0.11-0.18-0.28-0.27-0.52-0.27c-0.27,0-0.46,0.1-0.58,0.29c-0.12,0.19-0.18,0.56-0.19,1.11v0.6c0,0.48,0.02,0.82,0.07,1.01
				c0.05,0.19,0.13,0.33,0.23,0.42C186.85,102.83,187,102.88,187.2,102.88z"/>
			<path class="st1" d="M190.21,96.62c0-0.24,0.08-0.44,0.23-0.59c0.15-0.15,0.36-0.23,0.61-0.23s0.46,0.08,0.61,0.23
				c0.15,0.15,0.23,0.35,0.23,0.59c0,0.24-0.08,0.43-0.23,0.59s-0.36,0.23-0.61,0.23c-0.26,0-0.46-0.08-0.61-0.23
				C190.29,97.05,190.21,96.85,190.21,96.62z M191.83,104.05h-1.55v-5.91h1.55V104.05z"/>
			<path class="st1" d="M192.85,100.91c0-0.9,0.21-1.6,0.63-2.11c0.42-0.51,1.01-0.76,1.75-0.76c0.75,0,1.34,0.25,1.76,0.76
				s0.63,1.21,0.63,2.12v0.38c0,0.9-0.21,1.6-0.63,2.11c-0.42,0.51-1,0.76-1.76,0.76c-0.76,0-1.35-0.25-1.77-0.76
				c-0.42-0.51-0.63-1.21-0.63-2.12V100.91z M194.4,101.3c0,1.05,0.28,1.58,0.85,1.58c0.52,0,0.8-0.44,0.84-1.32l0.01-0.65
				c0-0.54-0.07-0.94-0.22-1.2s-0.36-0.39-0.63-0.39c-0.26,0-0.47,0.13-0.61,0.39s-0.22,0.66-0.22,1.2V101.3z"/>
			<path class="st1" d="M200.01,98.15l0.04,0.58c0.35-0.46,0.81-0.69,1.37-0.69c1.02,0,1.54,0.71,1.57,2.13v3.88h-1.55v-3.77
				c0-0.33-0.05-0.58-0.15-0.73c-0.1-0.15-0.28-0.23-0.53-0.23c-0.28,0-0.5,0.14-0.66,0.43v4.29h-1.55v-5.91H200.01z"/>
			<path class="st1" d="M206.9,104.05c-0.04-0.09-0.09-0.24-0.13-0.46c-0.28,0.38-0.65,0.57-1.12,0.57c-0.49,0-0.91-0.16-1.23-0.49
				c-0.33-0.33-0.49-0.75-0.49-1.27c0-0.62,0.2-1.1,0.59-1.44c0.39-0.34,0.96-0.51,1.71-0.52h0.47v-0.47c0-0.27-0.04-0.45-0.14-0.56
				s-0.22-0.16-0.4-0.16c-0.39,0-0.58,0.23-0.58,0.68h-1.54c0-0.55,0.21-1,0.61-1.35s0.93-0.53,1.55-0.53c0.65,0,1.15,0.17,1.5,0.5
				c0.36,0.34,0.53,0.82,0.53,1.44v2.78c0.01,0.51,0.08,0.91,0.22,1.2v0.09H206.9z M205.99,102.95c0.17,0,0.32-0.04,0.44-0.1
				c0.12-0.07,0.21-0.15,0.27-0.25v-1.23h-0.37c-0.26,0-0.47,0.08-0.62,0.25c-0.15,0.17-0.23,0.39-0.23,0.67
				C205.47,102.73,205.65,102.95,205.99,102.95z"/>
			<path class="st1" d="M210.98,104.05h-1.55v-8.38h1.55V104.05z"/>
			<path class="st1" d="M214.56,104.16c-0.79,0-1.41-0.24-1.86-0.71c-0.44-0.47-0.67-1.15-0.67-2.03v-0.47
				c0-0.93,0.2-1.65,0.61-2.16c0.41-0.51,0.99-0.76,1.75-0.76c0.74,0,1.3,0.24,1.68,0.71c0.38,0.47,0.57,1.18,0.57,2.11v0.76h-3.07
				c0.02,0.44,0.12,0.76,0.29,0.96c0.17,0.2,0.43,0.3,0.79,0.3c0.52,0,0.95-0.18,1.29-0.53l0.61,0.93
				c-0.19,0.26-0.46,0.47-0.82,0.64S214.98,104.16,214.56,104.16z M213.59,100.54h1.54v-0.14c-0.01-0.35-0.07-0.62-0.17-0.8
				s-0.3-0.27-0.57-0.27c-0.27,0-0.46,0.1-0.59,0.29C213.68,99.8,213.61,100.11,213.59,100.54z"/>
			<path class="st1" d="M220.14,102.47c0-0.13-0.06-0.25-0.19-0.36c-0.12-0.11-0.4-0.26-0.84-0.45c-0.64-0.26-1.07-0.53-1.31-0.8
				c-0.24-0.28-0.36-0.62-0.36-1.03c0-0.52,0.19-0.94,0.56-1.28s0.87-0.5,1.48-0.5c0.65,0,1.17,0.17,1.56,0.5
				c0.39,0.33,0.58,0.78,0.58,1.35h-1.54c0-0.48-0.2-0.72-0.6-0.72c-0.16,0-0.3,0.05-0.4,0.15s-0.16,0.24-0.16,0.43
				c0,0.13,0.06,0.25,0.17,0.35c0.12,0.1,0.39,0.24,0.82,0.43c0.63,0.23,1.07,0.49,1.33,0.78c0.26,0.29,0.39,0.66,0.39,1.11
				c0,0.53-0.2,0.95-0.59,1.27s-0.92,0.48-1.56,0.48c-0.43,0-0.82-0.08-1.15-0.25c-0.33-0.17-0.59-0.4-0.78-0.71
				c-0.19-0.3-0.28-0.63-0.28-0.98h1.47c0.01,0.27,0.07,0.47,0.19,0.61s0.31,0.2,0.58,0.2
				C219.93,103.03,220.14,102.84,220.14,102.47z"/>
			<path class="st1" d="M222.72,103.27c0-0.25,0.08-0.45,0.25-0.61c0.17-0.16,0.38-0.24,0.65-0.24c0.26,0,0.47,0.08,0.64,0.24
				s0.26,0.36,0.26,0.62c0,0.25-0.09,0.46-0.26,0.61s-0.39,0.23-0.64,0.23c-0.26,0-0.47-0.08-0.64-0.23
				C222.81,103.72,222.72,103.52,222.72,103.27z"/>
		</g>
	</g>
	<g>
		<g>
			<rect y="0.29" class="st2" width="128.27" height="128.25"/>
			<g>
				<path class="st1" d="M71.07,21.98c-1.36-0.15-2.73-0.24-4.12-0.3c-0.42,0-0.83-0.03-1.24-0.03h-1.57c-0.86,0-1.69,0-2.55,0.03
					c-0.95,0.03-1.86,0.09-2.81,0.15c-4.74,0.35-9.44,1.13-14.15,2.37c-0.14,0.06-0.32,0.09-0.5,0.14c0.12,0.21,0.3,0.21,0.5,0.3
					c0.03,0.03,0.06,0.03,0.09,0.06c0.24,0.12,0.33,0.27,0.62,0.33c0.38,0.03,0.74,0.09,1.09,0c0.74-0.18,0.77-0.27,1.33,0.17
					c0.27,0.21,0.3,0.24,0.35,0.57c0.06,0.33,0.03,0.44,0.3,0.65c0.23,0.21,0.44,0.23,0.59-0.06c0.29-0.65,1.06,0.18,1.06,0.5
					c-0.03,0.59,0.12,0.24,0.3,0.47c0.12,0.09,0.08,0.89,0.62,1.07c0.2,0.06,0.38,0,0.44,0.27c0.03,0.09,0,0.21-0.09,0.32
					c-0.06,0.18-0.15,0.36-0.24,0.5c-0.27,0.62-0.24,1.16,0.06,1.78c0.09,0.15,0.18,0.33,0.27,0.5c0.24,0.65,0.27,0.77,0.71,1.04
					c0.27,0.15,0.56,0.15,0.86,0.18c0.24,0,0.27,0.03,0.47-0.12c0.21-0.15,0.32-0.15,0.48-0.03c0.41,0.26,0.32,0.03,0.5-0.27
					c0.3-0.45,0.44-0.06,0.44-0.8c0-0.15,0.12-0.29,0.35-0.38c0.51,0.03,0.56-0.24,1.07-0.18c0.21,0.03,0.59,0.03,0.41,0.5
					c-0.29,0.3-0.32,0.27-0.35,0.68c0,0.35-0.06,0.47-0.24,0.71c-0.32,0.35-0.12,0.24-0.24,0.62c-0.03,0.18-0.15,0.27-0.21,0.45
					c-0.06,0.21,0.06,0.36,0.41,0.29c0.24-0.06,0.44-0.06,0.65-0.03c0.26,0,0.47,0.03,0.71,0.03c0.36-0.03,0.71,0,0.95,0.26
					c0.29,0.33,0.24,0.42,0.12,1.01c-0.06,0.15,0.06,0.27,0.03,0.44c-0.03,0.26-0.2,0.56-0.2,0.77c0,0.15,0.03,0.3,0.06,0.41
					c0.15,0.21,0.24,0.36,0.36,0.47c0.15,0.18,0.29,0.33,0.56,0.5c0.77,0.48,0.85-0.03,1.48-0.15c0.33-0.03,0.56-0.03,0.77,0.06
					c0.21,0.09,0.38,0.24,0.59,0.45c0.21,0.21,0.35,0.29,0.47-0.12c0.03-0.17,0.12-0.32,0.24-0.35c0.21-0.03,0.12-0.06,0.21-0.27
					c0.03-0.03,0.03-0.06,0.06-0.09v-0.03v-0.06c0.09-0.42,0.56-0.65,0.98-0.68h0.09c0.24,0,0.56-0.18,0.68-0.36
					c0.15-0.18,0.65-0.5,0.39,0.12c-0.09,0.15-0.15,0.15-0.12,0.33c0,0.06,0.03,0.09,0.03,0.14c0.09,0.24-0.09,0.3-0.15,0.48
					c-0.03,0.15,0.12,0.12,0.17,0.15c0.07,0.06,0.07,0.21,0.15,0.29c0.14,0.09,0.26-0.03,0.33-0.2v-0.03V37.9
					c-0.03-0.09-0.06-0.18-0.06-0.27c-0.03-0.18-0.03-0.27,0.06-0.35c0.03-0.03,0.08-0.06,0.15-0.09c0.47-0.27,0.77-0.42,1.09-0.18
					c0.06,0.03,0.09,0.09,0.15,0.12c0.38,0.35,0.21,0.38,0.74,0.41c0.42,0,0.54-0.09,0.89,0.12c0.24,0.12,0.89,0.32,1.07,0
					c0.17-0.35,0.68-0.35,0.8-0.06c0.12,0.21,0.24,0.24,0.44,0.27c0.04,0,0.04,0,0.04,0.03c0.2,0.03,0.2,0.03,0.35,0.17
					c0.21,0.24-0.03,0.18,0,0.45c0.03,0.21,0,0.12,0.29,0.12c0.5,0,1.13,0.21,1.27,0.74c0.09,0.27,0.36,0.12,0.56,0.33
					c0.32,0.36,0.17,0.36,0.71,0.44c0.12,0.03,0.21,0.03,0.33,0c0.44-0.12,0.62-0.12,0.85,0.03c0.24,0.15,0.29,0.36,0.56,0.3
					c0.44-0.09,0.53,0.29,0.83,0.53c0.36,0.3,0.56,0.27,0.56,0.88c0,0.42,0.03,0.3,0.27,0.6c0.32,0.41,0.41,0.47-0.06,0.92
					c-0.35,0.29-0.35,0.5,0.24,0.18c0.21-0.12,0.36,0.06,0.71,0.18c0.18,0.15,0.18,0.3,0.03,0.45c-0.03,0.47-0.09,0.41,0.29,0.12
					c0.38-0.36,0.71-0.44,1.24-0.06c0.18,0.15,0.35,0.27,0.53,0.41c0.47,0.42,0.95,0.62,1.6,0.62c0.45,0,0.65,0.18,1.04,0.12
					c0.5-0.06,0.92,0.17,1.21,0.65c0.15,0.21,0.35,0.42,0.62,0.54c0.59,0.27,0.83-0.06,1.09,0.68c0.47,1.27-0.47,2.31-1.3,3.2
					c-0.33,0.38-0.24,0.62-0.44,0.86c-0.3,0.29-0.8,0.06-0.71,0.59c0.06,0.21-0.15,0.36-0.17,0.59c0,0.12-0.03,0.21,0,0.3
					c0,0.29,0.12,0.56-0.12,0.77c-0.03,0.27-0.06,0.53-0.12,0.8c-0.27,0.56-0.54,0.95-0.68,1.27c-0.18,0.21-0.24,0.29-0.45,0.44
					c-0.29,0.21-0.11,0.51-0.29,0.71c-0.07,0.08-0.15,0.12-0.27,0.21c-0.41,0.27-0.38,0.35-0.92,0.35c-1.01,0-2.4,0.65-2.99,1.57
					c-0.23,0.36-0.23,0.56-0.27,0.89c-0.05,0.47-0.26,0.39-0.5,0.68c-0.44,0.5-0.41,1.09-0.92,0.89c-0.15-0.03-0.18,0.11-0.39,0.35
					c-0.15,0.15-0.29,0.27-0.35,0.53c-0.03,0.21-0.06,0.27-0.33,0.5c-0.18,0.18-0.33,0.33-0.5,0.51c-0.32,0.71-0.88,0.62-1.57,0.53
					c-0.18-0.03-0.45-0.18-0.65-0.24c-0.45-0.18-0.39,0.12-0.06,0.29c0.12,0.06,0.15,0.09,0.18,0.15c0.05,0.33-0.27,0.35,0.15,0.68
					c0.09,0.23,0,0.44-0.24,0.68c-0.3,0.45-0.74,0.62-1.24,0.65c-0.27,0.03-0.57,0-0.86,0c-0.59-0.03-0.45-0.15-0.5,0.35
					c-0.03,0.12-0.06,0.21-0.18,0.35c0,0.47-0.32,0.56-0.65,0.45c-0.68-0.27-0.42-0.3-0.6,0.15c-0.05,0.15-0.05,0.24-0.02,0.33
					c0,0.06,0.02,0.24,0.09,0.24c0.06,0,0.09,0,0.12,0.03c0.24,0,0-0.15,0.33-0.18c0.12,0,0.12,0,0.09,0.11
					c-0.06,0.24-0.09,0.18-0.33,0.18c-0.23,0-0.27-0.03-0.27,0.24c0,0.3-0.17,0.24-0.26,0.48c-0.03,0.09-0.06,0.18-0.09,0.3
					c-0.09,0.27-0.3,0.23-0.56,0.27c-0.18,0.09-0.33,0.18-0.41,0.29c-0.12,0.18-0.12,0.38,0,0.57c0.03,0.03,0.09,0.08,0.15,0.12
					c0.06,0.06,0.09,0.15,0.18,0.18c0.26,0.06,0.26-0.09,0.26,0.21c0,0.33-0.15,0.29-0.41,0.47c-0.06,0.06-0.12,0.09-0.18,0.12
					c-0.15,0.09-0.18,0.12-0.27,0.35c-0.03,0.21-0.15,0.36-0.29,0.41c-0.5,0.18-0.5,0.26-0.38,0.74c0.08,0.39-0.06,0.33-0.3,0.39
					c-0.09,0.03-0.21,0.05-0.33,0.15c-0.12,0.12-0.21,0.27-0.27,0.45c-0.26,0.23,0.06,0.03-0.62,0.18
					c-0.27,0.06-0.27-0.12-0.27-0.42c-0.03-0.15-0.06-0.21-0.09-0.26c-0.03-0.03-0.06-0.06-0.06-0.12
					c-0.15-0.39,0.03-0.27-0.33-0.56c-0.27-0.18,0.03-0.41-0.09-0.59c-0.18-0.3-0.12-0.15-0.15-0.48c-0.03-0.09-0.06-0.18-0.09-0.29
					c-0.06-0.12-0.06-0.24,0.12-0.33c0.24-0.11,0.21-0.06,0.3-0.29c0.18-0.59,0.09-0.18-0.24-0.44c-0.09-0.06-0.03-0.24,0.09-0.39
					c0.21-0.27,0.26-0.27,0.45-0.33c0.03,0,0.06,0,0.12-0.03c0.15-0.06,0.09-0.21,0.18-0.53c-0.03-0.35,0.12-0.56,0.24-0.8
					c0.12-0.18,0.12-0.38,0.03-0.56c-0.18-0.36-0.56,0-0.5-0.57c0.06-0.47,0.15-0.44,0.26-0.8c0.06-0.18,0.03-0.35,0-0.59
					c-0.15-0.62-0.09-0.59,0.21-1.15c0.09-0.21,0.21-0.39,0.3-0.59c0.06-0.21,0.06-0.36,0.12-0.59c0.21-0.15,0.21-0.24,0.21-0.53
					c0-0.35,0.15-0.35,0.15-0.68c0-0.33-0.06-0.24-0.15-0.47c-0.03-0.12,0-0.24,0.03-0.33c0.15-0.36,0.29-0.24,0.18-0.68
					c-0.09-0.24,0.09-0.5,0.21-0.75c0.03-0.06,0.06-0.11,0.06-0.15c0.12-0.41,0.21-0.74,0.27-1.18c0.06-0.33,0.09-0.59,0.03-0.83
					c-0.03-0.21-0.03-0.35,0-0.47c0.09-0.3,0.21-0.24,0.15-0.56c-0.03-0.21-0.06-0.51,0-0.62c0.14-0.36-0.03-0.8-0.03-1.27
					c0.03-0.42-0.15-0.59-0.47-0.86c-0.06-0.03-0.12-0.09-0.21-0.15c-0.38-0.27-0.77-0.62-1.18-0.8c-0.06-0.03-0.12-0.06-0.18-0.06
					c-0.42-0.12-0.47,0.03-0.89-0.47c-0.12-0.15-0.24-0.3-0.38-0.45c-0.15-0.26,0.17-0.29-0.03-0.62c-0.09-0.11-0.3-0.26-0.36-0.38
					c-0.38-0.53-0.65-1.09-0.89-1.63c-0.38-0.79-0.74-1.5-1.36-2.01C60,47.25,59.91,47.13,60,46.9c0-0.21-0.09-0.35-0.15-0.47
					c-0.24-0.44,0.41-0.65,0.71-0.77c0.21-0.14,0.21-0.32,0-0.47c-0.09-0.03-0.18-0.06-0.27-0.06c-0.44-0.15-0.26-0.71-0.06-0.98
					c0.18-0.18,0.27-0.42,0.33-0.65c0.06-0.39,0.09-0.42,0.32-0.51c0.38-0.09,0.33-0.12,0.44-0.47c0-0.33,0.03-0.3,0.27-0.39
					c0.03,0,0.06-0.03,0.09-0.03c0.65-0.59,0.56-0.89,0.5-1.69c0-0.42-0.09-0.53-0.3-0.92c-0.12-0.2-0.24-0.24-0.3-0.32
					c-0.03-0.03-0.03-0.06-0.03-0.12c-0.03-0.35,0.06-0.3-0.21-0.65c-0.24-0.18-0.53-0.15-0.71,0.15c-0.03,0.06-0.03,0.18-0.09,0.24
					c-0.27,0.18-0.21,0.03-0.12,0.47c0.03,0.09,0.03,0.15-0.03,0.17c-0.35,0.24-0.32-0.21-0.47-0.26c-0.24-0.09-0.15,0.09-0.45-0.2
					c-0.11-0.12-0.17-0.12-0.41-0.12h-0.29c-0.09-0.03-0.15-0.09-0.24-0.27c-0.15-0.17,0.03-0.32-0.29-0.38
					c-0.06,0-0.12,0-0.18-0.03c-0.33-0.24-0.06-0.24-0.42-0.15c-0.18,0.03-0.36-0.12-0.38-0.38c0.09-0.62-0.03-0.53-0.56-0.98
					c-0.21-0.21-0.29-0.41-0.38-0.62c-0.12-0.3-0.24-0.15-0.5-0.15c-0.18,0.03-0.56-0.06-0.8-0.24c-0.47-0.33-0.59-0.24-0.92-0.3
					c-0.41-0.06-0.71-0.53-0.88-0.8c-0.24-0.35-0.62-0.56-1.07-0.48c-0.35,0.09-0.42,0.42-0.86,0.36c-0.27-0.06-0.44-0.36-1.07-0.44
					c-0.47-0.09-0.74-0.33-1.12-0.5c-0.47-0.18-0.5-0.5-0.89-0.59c-0.86-0.21-0.44-0.12-0.83-0.53c-0.09-0.06-0.18-0.12-0.3-0.18
					c-0.24-0.15-0.59-0.48-0.36-0.74c0.24-0.3,0.26-0.5,0.18-0.74c-0.12-0.2-0.12-0.38-0.09-0.53c0.03-0.21-0.35-0.56-0.5-0.74
					c-0.24-0.32-0.47-0.62-0.68-0.95c-0.86-0.38,0.08-0.47-0.36-0.91c-0.24,0-0.29-0.12-0.33-0.27c-0.09-0.35,0.03-0.35-0.33-0.65
					c-0.08-0.06-0.18-0.15-0.24-0.35c-0.09-0.21-0.15-0.41-0.21-0.65c0-0.18-0.03-0.33-0.03-0.5c-0.03-0.47,0.06-0.42-0.38-0.59
					c-0.12-0.03-0.18-0.06-0.27-0.06c-0.03,0.04-0.06,0.04-0.09,0.04c-0.09,0.06-0.12,0.2-0.12,0.35c0.03,0.38-0.03,0.47,0.09,0.74
					c0.09,0.09,0.15,0.27,0.21,0.35c0.24,0.3,0.27,0.26,0.27,0.62c0,0.33-0.03,0.36,0.15,0.65c0.48,0.62,0.33,0.71,0.48,1.21
					c-0.03,0.3,0,0.44-0.15,0.48c-0.21,0.05-0.35-0.03-0.53-0.12c-0.18-0.18-0.06-0.3,0.06-0.47c0.23-0.38-0.3-0.71-0.53-0.89
					c-0.35-0.33-0.56-0.47-0.21-0.86c0.27-0.27,0.09-0.47-0.06-0.71c-0.39-0.36-0.44-0.39-0.42-0.65c0.03-0.29,0.03-0.39-0.03-0.48
					c-2.4,0.71-4.8,1.51-7.19,2.46v41.37c3.07,1.18,6.12,2.19,9.2,3.02c4.71,1.24,9.41,2.04,14.15,2.37
					c0.95,0.06,1.86,0.12,2.81,0.15c0.86,0.03,1.69,0.03,2.55,0.03h0.74c0.14-0.03,0.29-0.06,0.44-0.09
					c0.62,0.09,0.12-0.44,0.38-0.62c0.03,0,0.08-0.03,0.15-0.03c0.26-0.06,0.23-0.03,0.36,0.17c0.14,0.27,0.26,0.39,0.47,0.54h0.27
					c1.39-0.06,2.75-0.15,4.12-0.3c7.27-0.68,14.56-2.42,21.72-5.24V27.22C85.62,24.41,78.34,22.66,71.07,21.98 M58.99,30.56
					c-0.09,0.03-0.15,0.06-0.21,0.09c-0.06,0.05-0.09,0.15-0.21,0.21c-0.26,0.21-0.38-0.09-0.03-0.33c0.09-0.06,0.18-0.12,0.24-0.12
					C59.2,30.26,59.49,30.5,58.99,30.56 M63.2,32.13c-0.26,0.03-0.29,0-0.53,0.03c-0.42,0.06-0.5,0.03-0.42-0.3
					c0.06-0.3-0.53-0.15-0.65-0.3c-0.03-0.03-0.03-0.06,0-0.12v-0.03c-0.17-0.33-0.06-0.21-0.59-0.21c-0.12,0-0.27-0.03-0.36-0.14
					c-0.21-0.21-0.33-0.33-0.65-0.27c-0.29,0.03-0.53-0.5-0.29-0.56c0.5-0.06,0.29,0.18,0.74,0.18c0.27,0,0.36,0.06,0.57,0.24
					c0.12,0.09,0.24,0.15,0.47,0.15c0.06,0,0.09,0,0.12,0.03c0.12,0.03,0.24,0.09,0.42,0.17c0.09,0.06,0.18,0.12,0.23,0.18
					c0.18,0.18,0.33,0.3,0.53,0.33c0.33,0.06,0.3,0,0.53,0.21C63.55,31.95,63.82,32.07,63.2,32.13 M64.44,33.14
					c-0.06,0-0.18,0-0.29-0.03c-0.15,0-0.27-0.03-0.27-0.12c0-0.24,0.06-0.12,0.24-0.12h0.03c0.12,0,0.12-0.03,0.18,0.12
					c0.03,0.06,0.09,0.06,0.21,0.06C64.67,33.08,64.59,33.16,64.44,33.14 M66.24,32.9c-0.38,0-0.45-0.06-0.53,0.12
					c-0.03,0.06-0.06,0.12-0.12,0.21c-0.03,0.09-0.06,0.06-0.24,0c-0.26-0.06-0.44-0.24-0.44-0.36c-0.03-0.09-0.03-0.15-0.06-0.24
					c-0.42-0.88-0.15-0.23,0.74-0.38c0.03-0.03,0.09-0.03,0.12-0.03c0.26-0.06,0.33-0.09,0.56,0.18c0.06,0.06,0.12,0.12,0.21,0.21
					C67.16,32.84,66.39,33.05,66.24,32.9 M66.95,32.96c-0.06,0-0.12-0.06-0.12-0.12c0-0.09,0.06-0.15,0.12-0.15
					c0.09,0,0.12,0.06,0.12,0.15C67.07,32.9,67.04,32.96,66.95,32.96 M64.14,67.85v-0.03c0.06-0.03,0.06-0.06,0.09-0.18
					c0-0.14,0.09-0.06,0.06,0.06c-0.03,0.17-0.03,0.53-0.15,0.56c-0.24,0-0.15-0.03-0.12-0.21C64.03,67.87,63.99,67.9,64.14,67.85
					 M44.82,29.7c-0.09,0.06-0.15,0.06-0.18,0.03c0,0-0.03-0.03-0.03-0.06c-0.06-0.3-0.29-0.12-0.24-0.36
					c0.06-0.2,0.18-0.26,0.27-0.2c0.09,0.05,0.15,0.14,0.21,0.23C44.94,29.49,45,29.62,44.82,29.7 M71.72,70.45
					c-0.15,0.29-0.24,0.2-0.56,0.15h-0.09c-0.18,0.03-0.18,0.24-0.48,0.12c-0.18-0.14-0.27-0.26-0.21-0.41
					c0.06-0.15,0.09-0.21,0.21-0.18c0.18,0.06,0.32,0.03,0.48,0c0.09-0.03,0.18-0.06,0.23-0.09C71.81,69.89,71.83,70.18,71.72,70.45
					"/>
				<polygon class="st1" points="42.23,85.16 42.23,87.08 37.96,87.08 37.96,89.64 41.86,89.64 41.86,91.54 37.96,91.54 37.96,95.6 
					35.44,95.6 35.44,85.16 				"/>
				<polygon class="st1" points="44.4,85.16 46.92,85.16 46.92,93.64 50.55,93.64 50.55,95.6 44.4,95.6 				"/>
				<path class="st1" d="M55.58,85.16h2.68l3.76,10.43h-2.67l-0.71-2.24h-3.51l-0.71,2.24h-2.63L55.58,85.16z M55.68,91.54h2.39
					l-0.4-1.26c-0.13-0.41-0.27-0.85-0.41-1.31c-0.14-0.46-0.25-0.89-0.36-1.27h-0.03c-0.11,0.38-0.23,0.8-0.38,1.26
					c-0.14,0.45-0.28,0.89-0.41,1.33L55.68,91.54z"/>
				<path class="st1" d="M68.32,93.86c0.5,0,0.92-0.04,1.25-0.13c0.34-0.09,0.63-0.21,0.86-0.35l0.5,1.8
					c-0.22,0.13-0.58,0.26-1.07,0.4c-0.49,0.13-1.09,0.2-1.81,0.2c-0.82,0-1.57-0.13-2.25-0.38c-0.68-0.25-1.27-0.61-1.75-1.08
					c-0.48-0.47-0.87-1.04-1.13-1.71c-0.27-0.67-0.4-1.42-0.4-2.24c0-0.81,0.13-1.54,0.39-2.21c0.26-0.67,0.63-1.24,1.11-1.71
					c0.48-0.47,1.07-0.83,1.75-1.09c0.69-0.26,1.46-0.39,2.33-0.39c0.73,0,1.32,0.07,1.78,0.21c0.46,0.14,0.82,0.28,1.08,0.42
					l-0.56,1.84c-0.25-0.15-0.55-0.27-0.9-0.38c-0.35-0.11-0.73-0.17-1.15-0.17c-0.44,0-0.85,0.06-1.24,0.19
					c-0.39,0.13-0.73,0.33-1.01,0.6c-0.29,0.27-0.51,0.63-0.68,1.07c-0.17,0.44-0.25,0.97-0.25,1.6c0,0.58,0.08,1.1,0.24,1.54
					c0.16,0.45,0.38,0.81,0.67,1.1c0.29,0.29,0.62,0.51,1,0.65C67.45,93.79,67.87,93.86,68.32,93.86"/>
				<path class="st1" d="M76.67,84.96c0.73,0,1.36,0.08,1.89,0.22c0.53,0.15,0.99,0.33,1.38,0.54l-0.56,1.83
					c-0.43-0.22-0.87-0.39-1.3-0.52c-0.44-0.13-0.85-0.19-1.25-0.19c-0.51,0-0.89,0.09-1.16,0.28c-0.26,0.19-0.4,0.44-0.4,0.75
					c0,0.35,0.13,0.61,0.38,0.77c0.25,0.16,0.65,0.33,1.18,0.51l0.98,0.31c0.39,0.13,0.75,0.3,1.08,0.49
					c0.33,0.19,0.61,0.42,0.85,0.67c0.23,0.25,0.42,0.54,0.55,0.86c0.13,0.32,0.2,0.67,0.2,1.04c0,0.44-0.08,0.86-0.25,1.25
					c-0.17,0.39-0.42,0.74-0.76,1.04c-0.33,0.3-0.76,0.53-1.27,0.7c-0.51,0.17-1.12,0.26-1.81,0.26c-0.65,0-1.27-0.07-1.86-0.21
					c-0.59-0.14-1.14-0.34-1.63-0.59l0.56-1.84c0.47,0.23,0.94,0.41,1.39,0.55c0.45,0.13,0.93,0.2,1.42,0.2
					c0.58,0,1.01-0.1,1.27-0.29c0.26-0.19,0.39-0.45,0.39-0.78c0-0.11-0.02-0.22-0.06-0.33c-0.05-0.11-0.13-0.22-0.26-0.33
					c-0.13-0.11-0.31-0.22-0.53-0.32c-0.23-0.11-0.51-0.21-0.87-0.33l-0.81-0.28c-0.39-0.14-0.74-0.3-1.08-0.48
					c-0.33-0.18-0.61-0.38-0.85-0.63c-0.24-0.24-0.42-0.53-0.55-0.84c-0.13-0.32-0.2-0.7-0.2-1.14c0-0.45,0.08-0.88,0.26-1.26
					c0.17-0.39,0.43-0.72,0.76-1c0.34-0.28,0.75-0.5,1.24-0.67C75.46,85.05,76.03,84.96,76.67,84.96"/>
				<path class="st1" d="M87.68,84.96c0.75,0,1.45,0.12,2.08,0.37c0.64,0.25,1.2,0.6,1.66,1.07c0.47,0.46,0.83,1.03,1.08,1.7
					c0.26,0.67,0.39,1.44,0.39,2.29c0,0.83-0.14,1.57-0.41,2.23c-0.27,0.66-0.64,1.23-1.11,1.7c-0.47,0.47-1.02,0.83-1.67,1.08
					c-0.64,0.25-1.34,0.37-2.1,0.37c-0.75,0-1.45-0.12-2.08-0.36c-0.64-0.24-1.19-0.59-1.66-1.05c-0.46-0.46-0.83-1.02-1.09-1.69
					C82.53,92,82.4,91.25,82.4,90.4c0-0.83,0.13-1.58,0.4-2.24c0.27-0.67,0.64-1.24,1.11-1.71c0.47-0.48,1.03-0.84,1.68-1.09
					C86.23,85.09,86.93,84.96,87.68,84.96 M85.05,90.4c0,0.58,0.07,1.1,0.21,1.54c0.14,0.44,0.33,0.81,0.57,1.1
					c0.24,0.29,0.52,0.5,0.84,0.65c0.31,0.14,0.65,0.21,1.02,0.21c0.35,0,0.69-0.07,1-0.21c0.31-0.14,0.58-0.36,0.82-0.65
					c0.23-0.29,0.42-0.65,0.55-1.1c0.13-0.44,0.2-0.95,0.2-1.54c0-0.61-0.07-1.13-0.21-1.58c-0.14-0.45-0.32-0.81-0.57-1.1
					c-0.24-0.29-0.52-0.5-0.84-0.65c-0.32-0.14-0.65-0.22-1.02-0.22c-0.35,0-0.69,0.08-1,0.22c-0.31,0.15-0.59,0.37-0.82,0.67
					c-0.23,0.3-0.42,0.67-0.55,1.11C85.11,89.3,85.05,89.81,85.05,90.4"/>
				<path class="st1" d="M37.59,101.48h0.6l2.19,5.67h-0.68l-0.62-1.62h-2.43l-0.62,1.62h-0.68L37.59,101.48z M36.84,105h2.05
					l-0.45-1.21c-0.08-0.21-0.17-0.45-0.26-0.72c-0.09-0.27-0.18-0.56-0.29-0.88h-0.02c-0.05,0.16-0.1,0.31-0.14,0.44
					c-0.05,0.14-0.1,0.27-0.14,0.4c-0.04,0.13-0.09,0.25-0.13,0.38c-0.05,0.12-0.1,0.25-0.15,0.38L36.84,105z"/>
				<path class="st1" d="M43.02,101.48h1.74c0.3,0,0.55,0.04,0.78,0.12c0.22,0.08,0.41,0.2,0.56,0.34c0.15,0.14,0.26,0.31,0.34,0.51
					c0.08,0.2,0.12,0.42,0.12,0.66c0,0.22-0.04,0.41-0.1,0.59c-0.07,0.18-0.15,0.33-0.26,0.46c-0.11,0.13-0.24,0.24-0.38,0.33
					c-0.15,0.09-0.3,0.16-0.45,0.21l1.54,2.43h-0.74l-1.4-2.31h-1.14v2.31h-0.6V101.48z M43.62,104.31h0.86
					c0.2,0,0.38-0.02,0.55-0.06c0.17-0.04,0.32-0.12,0.44-0.21c0.12-0.1,0.23-0.22,0.3-0.36c0.07-0.15,0.11-0.32,0.11-0.53
					c0-0.4-0.11-0.68-0.34-0.87C45.33,102.09,45,102,44.56,102h-0.94V104.31z"/>
				<path class="st1" d="M52.01,101.47c0.33,0,0.61,0.02,0.86,0.07c0.25,0.05,0.49,0.13,0.72,0.25l-0.16,0.5
					c-0.21-0.1-0.42-0.17-0.64-0.23c-0.22-0.05-0.45-0.08-0.68-0.08c-0.29,0-0.56,0.04-0.82,0.12c-0.26,0.08-0.49,0.21-0.69,0.4
					c-0.2,0.18-0.36,0.42-0.48,0.72c-0.12,0.3-0.18,0.66-0.18,1.09c0,0.36,0.05,0.69,0.15,0.98c0.1,0.29,0.25,0.53,0.44,0.72
					c0.19,0.2,0.41,0.34,0.67,0.45c0.26,0.1,0.54,0.15,0.86,0.15c0.23,0,0.43-0.01,0.6-0.04c0.17-0.04,0.31-0.07,0.43-0.12v-1.8
					h-1.14v-0.5h1.76v2.69c-0.22,0.09-0.46,0.16-0.72,0.22c-0.26,0.06-0.58,0.09-0.96,0.09c-0.39,0-0.74-0.06-1.08-0.19
					c-0.34-0.12-0.63-0.31-0.88-0.55c-0.25-0.24-0.45-0.54-0.6-0.88c-0.15-0.36-0.22-0.76-0.22-1.22c0-0.46,0.07-0.87,0.21-1.23
					c0.14-0.36,0.33-0.66,0.58-0.89c0.25-0.24,0.54-0.42,0.87-0.54C51.25,101.53,51.62,101.47,52.01,101.47"/>
				<polygon class="st1" points="56.76,101.47 60.09,101.47 60.09,102.01 57.41,102.01 57.41,103.95 59.86,103.95 59.86,104.48 
					57.41,104.48 57.41,106.61 60.12,106.61 60.12,107.15 56.76,107.15 				"/>
				<path class="st1" d="M63.01,101.47h0.58l2.53,3.66c0.11,0.17,0.23,0.34,0.34,0.51c0.11,0.17,0.22,0.33,0.32,0.5h0.02
					c-0.01-0.22-0.02-0.44-0.02-0.66c0-0.22,0-0.44,0-0.66v-3.35h0.63v5.67h-0.58l-2.48-3.55c-0.12-0.18-0.25-0.37-0.37-0.58
					c-0.12-0.21-0.24-0.41-0.34-0.62H63.6c0.01,0.27,0.02,0.53,0.03,0.8c0,0.26,0.01,0.52,0.01,0.79v3.16h-0.63V101.47z"/>
				<polygon class="st1" points="74.34,101.47 74.34,102.02 72.48,102.02 72.48,107.15 71.83,107.15 71.83,102.02 70,102.02 
					70,101.47 				"/>
				<rect x="76.94" y="101.47" class="st1" width="0.65" height="5.67"/>
				<path class="st1" d="M80.82,101.47h0.58l2.53,3.66c0.11,0.17,0.22,0.34,0.34,0.51c0.11,0.17,0.22,0.33,0.32,0.5h0.02
					c-0.01-0.22-0.02-0.44-0.02-0.66c0-0.22,0-0.44,0-0.66v-3.35h0.63v5.67h-0.59l-2.47-3.55c-0.13-0.18-0.25-0.37-0.37-0.58
					c-0.12-0.21-0.24-0.41-0.35-0.62h-0.02c0.01,0.27,0.02,0.53,0.03,0.8c0.01,0.26,0.01,0.52,0.01,0.79v3.16h-0.63V101.47z"/>
				<path class="st1" d="M90.06,101.48h0.6l2.2,5.67h-0.69l-0.62-1.62h-2.43l-0.63,1.62h-0.67L90.06,101.48z M89.31,105h2.05
					l-0.45-1.21c-0.08-0.21-0.17-0.45-0.26-0.72c-0.09-0.27-0.19-0.56-0.29-0.88h-0.02c-0.05,0.16-0.1,0.31-0.14,0.44
					c-0.04,0.14-0.09,0.27-0.14,0.4c-0.05,0.13-0.09,0.25-0.14,0.38c-0.04,0.12-0.09,0.25-0.15,0.38L89.31,105z"/>
			</g>
		</g>
	</g>
</g>
</svg>
