<?xml version="1.0" encoding="utf-8"?>
<!-- Generator: Adobe Illustrator 26.3.1, SVG Export Plug-In . SVG Version: 6.00 Build 0)  -->
<svg version="1.1" id="Capa_1" xmlns="http://www.w3.org/2000/svg" xmlns:xlink="http://www.w3.org/1999/xlink" x="0px" y="0px"
	 viewBox="0 0 254.43 125.31" style="enable-background:new 0 0 254.43 125.31;" xml:space="preserve">
<style type="text/css">
	.st0{fill:#142F4E;}
	.st1{fill:#FFFFFF;}
	.st2{fill:#395C7E;}
	.st3{enable-background:new    ;}
</style>
<g>
	<g>
		<rect class="st0" width="125.33" height="125.31"/>
		<g>
			<path class="st1" d="M69.44,21.19c-1.33-0.14-2.66-0.23-4.02-0.29c-0.41,0-0.81-0.03-1.21-0.03h-1.53c-0.84,0-1.65,0-2.49,0.03
				c-0.92,0.03-1.82,0.09-2.75,0.15c-4.63,0.34-9.22,1.1-13.82,2.31c-0.14,0.06-0.32,0.09-0.49,0.14c0.11,0.2,0.29,0.2,0.49,0.29
				c0.03,0.03,0.06,0.03,0.09,0.06c0.23,0.12,0.32,0.26,0.61,0.32c0.37,0.03,0.72,0.09,1.07,0c0.72-0.18,0.75-0.26,1.3,0.17
				c0.26,0.2,0.29,0.23,0.34,0.55c0.06,0.32,0.03,0.43,0.29,0.64c0.23,0.2,0.43,0.23,0.57-0.06c0.29-0.63,1.04,0.17,1.04,0.49
				c-0.03,0.58,0.12,0.23,0.29,0.46c0.11,0.09,0.08,0.87,0.61,1.04c0.2,0.06,0.37,0,0.43,0.26c0.03,0.09,0,0.2-0.08,0.32
				c-0.06,0.17-0.15,0.35-0.23,0.49c-0.26,0.61-0.23,1.13,0.06,1.74c0.09,0.15,0.18,0.32,0.26,0.49c0.23,0.64,0.26,0.75,0.69,1.01
				c0.26,0.14,0.55,0.14,0.84,0.17c0.23,0,0.26,0.03,0.46-0.12c0.2-0.14,0.32-0.14,0.46-0.03c0.4,0.26,0.31,0.03,0.49-0.26
				c0.29-0.44,0.43-0.06,0.43-0.78c0-0.15,0.11-0.29,0.34-0.38c0.49,0.03,0.55-0.23,1.04-0.18c0.2,0.03,0.58,0.03,0.4,0.49
				c-0.28,0.29-0.31,0.26-0.34,0.67c0,0.35-0.06,0.46-0.23,0.69c-0.32,0.35-0.11,0.23-0.23,0.61c-0.03,0.18-0.14,0.26-0.2,0.44
				c-0.06,0.2,0.06,0.35,0.4,0.29c0.23-0.06,0.43-0.06,0.64-0.03c0.26,0,0.46,0.03,0.69,0.03c0.35-0.03,0.69,0,0.92,0.26
				c0.29,0.32,0.23,0.41,0.11,0.98c-0.06,0.15,0.06,0.26,0.03,0.43c-0.03,0.26-0.2,0.55-0.2,0.75c0,0.15,0.03,0.29,0.06,0.41
				c0.14,0.2,0.23,0.35,0.35,0.46c0.15,0.17,0.29,0.32,0.55,0.49c0.75,0.46,0.83-0.03,1.44-0.14c0.32-0.03,0.55-0.03,0.75,0.06
				c0.2,0.08,0.38,0.23,0.58,0.44c0.2,0.2,0.34,0.29,0.46-0.12c0.03-0.17,0.11-0.32,0.23-0.34c0.2-0.03,0.11-0.06,0.2-0.26
				c0.03-0.03,0.03-0.06,0.06-0.09v-0.03v-0.06c0.08-0.41,0.55-0.64,0.95-0.67h0.08c0.23,0,0.55-0.17,0.67-0.35
				c0.15-0.17,0.64-0.49,0.38,0.11c-0.09,0.15-0.14,0.15-0.12,0.32c0,0.06,0.03,0.08,0.03,0.14c0.09,0.23-0.09,0.29-0.15,0.46
				c-0.03,0.15,0.11,0.11,0.17,0.15c0.06,0.06,0.06,0.2,0.15,0.29c0.14,0.08,0.26-0.03,0.32-0.2v-0.03v-0.11
				c-0.03-0.09-0.06-0.17-0.06-0.26c-0.03-0.17-0.03-0.26,0.06-0.35c0.03-0.03,0.08-0.06,0.15-0.08c0.46-0.26,0.75-0.41,1.07-0.18
				c0.06,0.03,0.08,0.09,0.15,0.11c0.38,0.35,0.2,0.38,0.72,0.41c0.41,0,0.52-0.09,0.87,0.11c0.23,0.12,0.87,0.32,1.05,0
				c0.17-0.35,0.66-0.35,0.78-0.06c0.11,0.2,0.23,0.23,0.43,0.26c0.03,0,0.03,0,0.03,0.03c0.2,0.03,0.2,0.03,0.35,0.17
				c0.2,0.23-0.03,0.18,0,0.44c0.03,0.2,0,0.11,0.29,0.11c0.49,0,1.1,0.2,1.24,0.72c0.09,0.26,0.35,0.11,0.55,0.32
				c0.32,0.35,0.17,0.35,0.69,0.43c0.11,0.03,0.2,0.03,0.32,0c0.43-0.12,0.61-0.12,0.83,0.03c0.23,0.15,0.29,0.35,0.55,0.29
				c0.43-0.09,0.52,0.29,0.81,0.52c0.35,0.29,0.55,0.26,0.55,0.87c0,0.41,0.03,0.29,0.26,0.58c0.32,0.4,0.4,0.46-0.06,0.9
				c-0.35,0.29-0.35,0.49,0.23,0.17c0.2-0.11,0.35,0.06,0.69,0.17c0.17,0.15,0.17,0.29,0.03,0.44c-0.03,0.46-0.09,0.4,0.29,0.11
				c0.38-0.35,0.69-0.43,1.21-0.05c0.17,0.14,0.34,0.26,0.52,0.4c0.46,0.41,0.93,0.61,1.56,0.61c0.43,0,0.64,0.17,1.01,0.12
				c0.49-0.06,0.9,0.17,1.19,0.63c0.14,0.21,0.34,0.41,0.61,0.53c0.58,0.26,0.81-0.06,1.07,0.66c0.46,1.24-0.46,2.26-1.27,3.12
				c-0.32,0.38-0.23,0.61-0.43,0.84c-0.29,0.29-0.78,0.06-0.69,0.57c0.06,0.21-0.15,0.35-0.17,0.58c0,0.12-0.03,0.2,0,0.29
				c0,0.29,0.11,0.55-0.12,0.75c-0.03,0.26-0.06,0.52-0.11,0.78c-0.26,0.55-0.52,0.92-0.67,1.24c-0.17,0.2-0.23,0.29-0.43,0.43
				c-0.29,0.2-0.11,0.49-0.29,0.69c-0.06,0.08-0.15,0.11-0.26,0.2c-0.4,0.26-0.37,0.34-0.89,0.34c-0.98,0-2.34,0.64-2.92,1.53
				c-0.23,0.35-0.23,0.55-0.26,0.87c-0.05,0.46-0.26,0.38-0.49,0.66c-0.43,0.49-0.4,1.07-0.9,0.87c-0.15-0.03-0.17,0.11-0.38,0.35
				c-0.15,0.15-0.29,0.26-0.35,0.52c-0.03,0.2-0.06,0.26-0.32,0.49c-0.17,0.18-0.32,0.32-0.49,0.5c-0.32,0.69-0.87,0.61-1.53,0.52
				C71.07,62,70.8,61.85,70.6,61.8c-0.44-0.17-0.38,0.11-0.06,0.29c0.12,0.06,0.15,0.09,0.18,0.15c0.05,0.32-0.26,0.35,0.14,0.67
				c0.09,0.23,0,0.43-0.23,0.66c-0.29,0.43-0.72,0.61-1.21,0.64c-0.26,0.03-0.55,0-0.84,0c-0.58-0.03-0.44-0.15-0.49,0.35
				c-0.03,0.11-0.06,0.2-0.17,0.34c0,0.46-0.32,0.55-0.64,0.44c-0.67-0.26-0.41-0.29-0.58,0.14c-0.05,0.15-0.05,0.23-0.02,0.32
				c0,0.06,0.02,0.23,0.09,0.23c0.06,0,0.09,0,0.11,0.03c0.23,0,0-0.15,0.32-0.17c0.11,0,0.11,0,0.09,0.11
				c-0.06,0.23-0.09,0.18-0.32,0.18s-0.27-0.03-0.27,0.23c0,0.29-0.17,0.23-0.26,0.46c-0.03,0.09-0.06,0.17-0.09,0.29
				c-0.09,0.26-0.29,0.23-0.55,0.26c-0.17,0.09-0.32,0.17-0.4,0.29c-0.12,0.18-0.12,0.38,0,0.55c0.03,0.03,0.08,0.08,0.15,0.11
				c0.06,0.06,0.08,0.15,0.17,0.17C66,68.64,66,68.49,66,68.78c0,0.32-0.14,0.29-0.4,0.46c-0.06,0.06-0.12,0.09-0.17,0.11
				c-0.14,0.09-0.17,0.12-0.26,0.35c-0.03,0.2-0.15,0.35-0.29,0.4c-0.49,0.18-0.49,0.26-0.37,0.73c0.08,0.38-0.06,0.32-0.29,0.38
				c-0.09,0.03-0.2,0.05-0.32,0.14c-0.12,0.11-0.21,0.26-0.26,0.44c-0.26,0.23,0.06,0.03-0.61,0.17c-0.26,0.06-0.26-0.12-0.26-0.41
				c-0.03-0.14-0.06-0.2-0.08-0.26c-0.03-0.03-0.06-0.06-0.06-0.12c-0.14-0.38,0.03-0.26-0.32-0.55c-0.26-0.17,0.03-0.4-0.09-0.57
				c-0.17-0.29-0.11-0.15-0.15-0.47c-0.03-0.09-0.06-0.17-0.08-0.29c-0.06-0.12-0.06-0.23,0.11-0.32c0.23-0.11,0.2-0.06,0.29-0.29
				c0.18-0.58,0.09-0.17-0.23-0.43c-0.09-0.06-0.03-0.23,0.08-0.38c0.2-0.26,0.26-0.26,0.44-0.32c0.03,0,0.06,0,0.11-0.03
				c0.14-0.06,0.09-0.2,0.17-0.52c-0.03-0.35,0.12-0.55,0.23-0.78c0.11-0.17,0.11-0.38,0.03-0.55c-0.17-0.35-0.55,0-0.49-0.55
				c0.06-0.46,0.15-0.43,0.26-0.78c0.06-0.17,0.03-0.35,0-0.58c-0.14-0.61-0.09-0.58,0.2-1.13c0.09-0.21,0.21-0.38,0.29-0.58
				c0.06-0.2,0.06-0.35,0.11-0.58c0.2-0.15,0.2-0.23,0.2-0.52c0-0.34,0.14-0.34,0.14-0.66s-0.06-0.23-0.14-0.46
				c-0.03-0.12,0-0.23,0.03-0.32c0.14-0.34,0.28-0.23,0.17-0.66c-0.09-0.23,0.08-0.49,0.2-0.73c0.03-0.06,0.06-0.11,0.06-0.14
				c0.11-0.41,0.2-0.72,0.26-1.16c0.05-0.32,0.08-0.58,0.03-0.81c-0.03-0.2-0.03-0.35,0-0.46c0.08-0.29,0.2-0.23,0.15-0.55
				c-0.03-0.2-0.06-0.49,0-0.61c0.14-0.35-0.03-0.78-0.03-1.24c0.03-0.41-0.14-0.58-0.46-0.84c-0.06-0.03-0.12-0.09-0.2-0.15
				c-0.38-0.26-0.75-0.61-1.16-0.78c-0.06-0.03-0.12-0.06-0.17-0.06c-0.41-0.12-0.46,0.03-0.87-0.46c-0.11-0.15-0.23-0.29-0.38-0.44
				c-0.14-0.26,0.17-0.29-0.03-0.61c-0.09-0.11-0.29-0.26-0.35-0.37c-0.38-0.52-0.64-1.07-0.87-1.59c-0.37-0.78-0.72-1.47-1.33-1.96
				c-0.23-0.03-0.32-0.14-0.23-0.38c0-0.2-0.09-0.35-0.14-0.46c-0.23-0.43,0.4-0.63,0.69-0.75c0.2-0.14,0.2-0.31,0-0.46
				c-0.09-0.03-0.17-0.06-0.26-0.06c-0.43-0.15-0.26-0.7-0.06-0.95c0.18-0.18,0.27-0.41,0.32-0.64c0.06-0.38,0.09-0.41,0.32-0.49
				c0.38-0.09,0.32-0.11,0.43-0.46c0-0.32,0.03-0.29,0.26-0.38c0.03,0,0.06-0.03,0.09-0.03c0.64-0.58,0.55-0.87,0.49-1.65
				c0-0.41-0.09-0.52-0.29-0.9c-0.11-0.2-0.23-0.23-0.29-0.32c-0.03-0.03-0.03-0.06-0.03-0.11c-0.03-0.34,0.06-0.29-0.2-0.64
				c-0.23-0.17-0.52-0.15-0.69,0.14c-0.03,0.06-0.03,0.17-0.09,0.23c-0.26,0.17-0.2,0.03-0.12,0.46c0.03,0.09,0.03,0.14-0.03,0.17
				c-0.35,0.23-0.32-0.2-0.46-0.26c-0.23-0.09-0.15,0.09-0.44-0.2c-0.11-0.12-0.17-0.12-0.4-0.12h-0.29
				c-0.09-0.03-0.14-0.08-0.23-0.26c-0.14-0.17,0.03-0.32-0.29-0.38c-0.06,0-0.11,0-0.17-0.03c-0.32-0.23-0.06-0.23-0.41-0.15
				c-0.17,0.03-0.35-0.11-0.38-0.38c0.09-0.61-0.03-0.52-0.55-0.95c-0.2-0.2-0.29-0.4-0.38-0.61c-0.11-0.29-0.23-0.15-0.49-0.15
				c-0.17,0.03-0.55-0.06-0.78-0.23c-0.46-0.32-0.58-0.23-0.9-0.29c-0.4-0.06-0.69-0.52-0.87-0.78c-0.23-0.35-0.61-0.55-1.04-0.46
				c-0.35,0.09-0.41,0.41-0.84,0.35c-0.26-0.06-0.43-0.35-1.04-0.43c-0.46-0.08-0.72-0.32-1.1-0.49c-0.46-0.17-0.49-0.49-0.87-0.58
				c-0.84-0.2-0.43-0.12-0.81-0.52c-0.08-0.06-0.17-0.11-0.29-0.17c-0.23-0.15-0.58-0.46-0.35-0.72c0.23-0.29,0.26-0.49,0.17-0.72
				c-0.11-0.2-0.11-0.37-0.09-0.52c0.03-0.2-0.35-0.55-0.49-0.72c-0.23-0.32-0.46-0.61-0.66-0.93c-0.84-0.37,0.08-0.46-0.35-0.89
				c-0.23,0-0.29-0.12-0.32-0.26c-0.08-0.34,0.03-0.34-0.32-0.64c-0.08-0.05-0.17-0.14-0.23-0.34c-0.09-0.2-0.15-0.4-0.2-0.64
				c0-0.18-0.03-0.32-0.03-0.49c-0.03-0.46,0.06-0.41-0.37-0.58c-0.12-0.03-0.18-0.06-0.26-0.06c-0.03,0.03-0.06,0.03-0.09,0.03
				c-0.09,0.06-0.12,0.2-0.12,0.35c0.03,0.37-0.03,0.46,0.09,0.72c0.09,0.09,0.14,0.26,0.2,0.34c0.23,0.29,0.26,0.26,0.26,0.61
				c0,0.32-0.03,0.35,0.14,0.64c0.47,0.61,0.32,0.69,0.47,1.18c-0.03,0.29,0,0.43-0.15,0.46c-0.2,0.05-0.35-0.03-0.52-0.12
				c-0.17-0.17-0.06-0.29,0.06-0.46c0.23-0.38-0.29-0.69-0.52-0.87c-0.34-0.32-0.55-0.46-0.2-0.84c0.26-0.26,0.09-0.46-0.06-0.69
				c-0.38-0.35-0.43-0.38-0.41-0.64c0.03-0.29,0.03-0.38-0.03-0.46c-2.34,0.69-4.69,1.48-7.03,2.4v40.42c3,1.16,5.98,2.14,8.99,2.95
				c4.6,1.21,9.19,2,13.82,2.31c0.92,0.06,1.82,0.11,2.75,0.15c0.84,0.03,1.65,0.03,2.49,0.03h0.72c0.14-0.03,0.28-0.06,0.43-0.09
				c0.61,0.09,0.11-0.43,0.38-0.61c0.03,0,0.08-0.03,0.15-0.03c0.26-0.06,0.23-0.03,0.35,0.17c0.14,0.26,0.26,0.38,0.46,0.52h0.26
				c1.36-0.06,2.69-0.15,4.02-0.29c7.11-0.67,14.22-2.37,21.22-5.12V26.31C83.66,23.57,76.55,21.86,69.44,21.19 M57.64,29.58
				c-0.09,0.03-0.14,0.06-0.2,0.09c-0.06,0.05-0.09,0.14-0.2,0.2c-0.26,0.2-0.37-0.09-0.03-0.32c0.09-0.06,0.17-0.12,0.23-0.12
				C57.84,29.29,58.13,29.52,57.64,29.58 M61.75,31.11c-0.26,0.03-0.29,0-0.52,0.03c-0.41,0.06-0.49,0.03-0.41-0.29
				c0.06-0.29-0.52-0.14-0.64-0.29c-0.03-0.03-0.03-0.06,0-0.11v-0.03c-0.17-0.32-0.06-0.2-0.58-0.2c-0.12,0-0.26-0.03-0.35-0.14
				c-0.21-0.2-0.32-0.32-0.64-0.26c-0.29,0.03-0.52-0.49-0.29-0.55c0.49-0.06,0.29,0.17,0.72,0.17c0.26,0,0.35,0.06,0.55,0.23
				c0.11,0.09,0.23,0.14,0.46,0.14c0.06,0,0.09,0,0.12,0.03c0.12,0.03,0.23,0.08,0.41,0.17c0.09,0.06,0.17,0.12,0.23,0.17
				c0.17,0.17,0.32,0.29,0.52,0.32c0.32,0.06,0.29,0,0.52,0.2C62.09,30.94,62.35,31.06,61.75,31.11 M62.96,32.09
				c-0.06,0-0.17,0-0.29-0.03c-0.15,0-0.26-0.03-0.26-0.11c0-0.23,0.06-0.12,0.23-0.12h0.03c0.11,0,0.11-0.03,0.17,0.12
				c0.03,0.06,0.08,0.06,0.2,0.06C63.19,32.04,63.11,32.12,62.96,32.09 M64.72,31.86c-0.38,0-0.44-0.06-0.52,0.11
				c-0.03,0.06-0.06,0.11-0.12,0.2c-0.03,0.09-0.06,0.06-0.23,0c-0.26-0.06-0.43-0.23-0.43-0.35c-0.03-0.09-0.03-0.14-0.06-0.23
				c-0.41-0.87-0.15-0.23,0.72-0.37c0.03-0.03,0.09-0.03,0.12-0.03c0.26-0.06,0.32-0.09,0.55,0.18c0.06,0.06,0.11,0.11,0.2,0.2
				C65.62,31.81,64.87,32.01,64.72,31.86 M65.42,31.92c-0.06,0-0.12-0.06-0.12-0.11c0-0.09,0.06-0.15,0.12-0.15
				c0.08,0,0.11,0.06,0.11,0.15C65.53,31.86,65.5,31.92,65.42,31.92 M62.67,66.01v-0.03c0.06-0.03,0.06-0.06,0.08-0.18
				c0-0.14,0.09-0.05,0.06,0.06c-0.03,0.17-0.03,0.52-0.14,0.55c-0.23,0-0.15-0.03-0.11-0.2C62.56,66.03,62.53,66.06,62.67,66.01
				 M43.79,28.74c-0.09,0.06-0.15,0.06-0.18,0.03c0,0-0.03-0.03-0.03-0.06c-0.05-0.29-0.29-0.11-0.23-0.35
				c0.06-0.2,0.18-0.26,0.26-0.2c0.09,0.05,0.15,0.14,0.2,0.23C43.91,28.53,43.97,28.65,43.79,28.74 M70.07,68.55
				c-0.15,0.29-0.23,0.2-0.55,0.14h-0.09c-0.18,0.03-0.18,0.23-0.46,0.11c-0.17-0.14-0.26-0.26-0.2-0.4c0.06-0.14,0.08-0.2,0.2-0.17
				c0.17,0.06,0.32,0.03,0.46,0c0.09-0.03,0.17-0.06,0.23-0.09C70.16,68,70.19,68.29,70.07,68.55"/>
			<polygon class="st1" points="41.26,82.93 41.26,84.8 37.09,84.8 37.09,87.3 40.9,87.3 40.9,89.16 37.09,89.16 37.09,93.12 
				34.63,93.12 34.63,82.93 			"/>
			<polygon class="st1" points="43.38,82.93 45.84,82.93 45.84,91.21 49.39,91.21 49.39,93.12 43.38,93.12 			"/>
			<path class="st1" d="M54.31,82.93h2.62l3.67,10.19H58l-0.69-2.18h-3.43l-0.7,2.18H50.6L54.31,82.93z M54.4,89.16h2.33l-0.39-1.23
				c-0.13-0.4-0.26-0.83-0.4-1.28c-0.13-0.45-0.25-0.87-0.35-1.25h-0.03c-0.11,0.38-0.23,0.79-0.37,1.23s-0.28,0.87-0.4,1.29
				L54.4,89.16z"/>
			<path class="st1" d="M66.76,91.42c0.49,0,0.9-0.04,1.23-0.13c0.34-0.09,0.61-0.2,0.84-0.34l0.49,1.76
				c-0.22,0.13-0.57,0.26-1.04,0.39c-0.48,0.13-1.07,0.19-1.77,0.19c-0.8,0-1.53-0.12-2.2-0.37s-1.24-0.6-1.71-1.06
				c-0.47-0.46-0.85-1.01-1.11-1.67c-0.27-0.65-0.4-1.38-0.4-2.19c0-0.79,0.13-1.51,0.38-2.16s0.61-1.21,1.09-1.67
				c0.47-0.46,1.04-0.81,1.71-1.07c0.67-0.25,1.43-0.38,2.27-0.38c0.71,0,1.29,0.07,1.74,0.2c0.45,0.14,0.8,0.27,1.06,0.41
				l-0.55,1.8c-0.24-0.14-0.54-0.26-0.88-0.37s-0.72-0.16-1.12-0.16c-0.43,0-0.83,0.06-1.21,0.19c-0.38,0.12-0.71,0.32-0.99,0.59
				s-0.5,0.62-0.66,1.04c-0.16,0.43-0.24,0.95-0.24,1.56c0,0.57,0.08,1.07,0.23,1.5c0.16,0.43,0.38,0.79,0.66,1.08
				c0.28,0.28,0.61,0.5,0.98,0.64C65.91,91.35,66.31,91.42,66.76,91.42"/>
			<path class="st1" d="M74.91,82.73c0.71,0,1.32,0.07,1.84,0.22s0.97,0.32,1.35,0.53l-0.55,1.79c-0.42-0.21-0.84-0.38-1.27-0.51
				c-0.43-0.12-0.83-0.19-1.22-0.19c-0.5,0-0.87,0.09-1.13,0.27c-0.26,0.18-0.39,0.42-0.39,0.73c0,0.34,0.12,0.6,0.37,0.75
				s0.63,0.32,1.15,0.49l0.95,0.31c0.38,0.13,0.73,0.29,1.05,0.48s0.6,0.41,0.83,0.65c0.23,0.25,0.41,0.53,0.54,0.84
				s0.2,0.65,0.2,1.02c0,0.43-0.08,0.84-0.24,1.22c-0.16,0.38-0.41,0.72-0.74,1.01c-0.33,0.29-0.74,0.52-1.25,0.69
				c-0.5,0.17-1.09,0.25-1.77,0.25c-0.64,0-1.25-0.07-1.82-0.2c-0.57-0.14-1.11-0.33-1.59-0.57l0.55-1.8
				c0.46,0.23,0.92,0.4,1.36,0.53s0.91,0.19,1.39,0.19c0.57,0,0.98-0.09,1.24-0.28c0.25-0.19,0.38-0.44,0.38-0.77
				c0-0.11-0.02-0.22-0.06-0.32c-0.04-0.11-0.13-0.22-0.25-0.32c-0.12-0.11-0.3-0.21-0.52-0.32c-0.22-0.1-0.5-0.21-0.85-0.32
				l-0.79-0.27c-0.38-0.14-0.73-0.3-1.05-0.47s-0.6-0.38-0.83-0.61c-0.23-0.24-0.42-0.51-0.54-0.83c-0.13-0.31-0.19-0.68-0.19-1.12
				s0.08-0.85,0.25-1.23c0.16-0.38,0.42-0.7,0.74-0.98c0.33-0.28,0.73-0.49,1.21-0.65C73.73,82.81,74.29,82.73,74.91,82.73"/>
			<path class="st1" d="M85.67,82.73c0.73,0,1.41,0.12,2.04,0.36s1.17,0.59,1.62,1.05c0.45,0.45,0.81,1.01,1.06,1.66
				c0.26,0.66,0.38,1.4,0.38,2.23c0,0.81-0.14,1.54-0.4,2.18c-0.26,0.65-0.62,1.2-1.08,1.66c-0.46,0.46-1,0.81-1.63,1.05
				c-0.63,0.24-1.31,0.36-2.05,0.36c-0.73,0-1.41-0.12-2.04-0.36s-1.17-0.58-1.62-1.03c-0.45-0.45-0.81-1-1.06-1.65
				s-0.38-1.39-0.38-2.22c0-0.81,0.13-1.54,0.39-2.19s0.62-1.21,1.09-1.67c0.46-0.47,1.01-0.82,1.64-1.07
				C84.25,82.86,84.94,82.73,85.67,82.73 M83.1,88.04c0,0.57,0.07,1.07,0.2,1.5s0.32,0.79,0.56,1.07c0.23,0.28,0.51,0.49,0.82,0.63
				s0.64,0.21,0.99,0.21c0.34,0,0.67-0.07,0.98-0.21c0.3-0.14,0.57-0.35,0.8-0.63s0.41-0.64,0.53-1.07c0.13-0.43,0.19-0.93,0.19-1.5
				c0-0.59-0.07-1.11-0.2-1.55s-0.32-0.8-0.56-1.08s-0.51-0.49-0.82-0.63s-0.64-0.21-1-0.21c-0.34,0-0.67,0.07-0.98,0.22
				c-0.31,0.15-0.57,0.36-0.8,0.65s-0.41,0.65-0.53,1.09C83.16,86.97,83.1,87.47,83.1,88.04"/>
			<path class="st1" d="M36.73,98.87h0.59l2.14,5.54H38.8l-0.61-1.58h-2.37l-0.61,1.58h-0.66L36.73,98.87z M35.99,102.31H38
				l-0.44-1.19c-0.08-0.21-0.17-0.44-0.26-0.7c-0.09-0.26-0.18-0.55-0.28-0.86H37c-0.05,0.15-0.09,0.3-0.14,0.43
				s-0.09,0.26-0.14,0.39c-0.04,0.12-0.09,0.24-0.13,0.37c-0.04,0.12-0.09,0.24-0.15,0.37L35.99,102.31z"/>
			<path class="st1" d="M42.03,98.87h1.7c0.29,0,0.54,0.04,0.76,0.12c0.22,0.08,0.4,0.19,0.55,0.33c0.15,0.14,0.26,0.31,0.33,0.5
				c0.08,0.2,0.11,0.41,0.11,0.65c0,0.21-0.03,0.4-0.1,0.58c-0.06,0.17-0.15,0.32-0.26,0.45c-0.11,0.13-0.23,0.24-0.37,0.33
				c-0.14,0.09-0.29,0.16-0.44,0.21l1.5,2.37h-0.72l-1.37-2.26H42.6v2.26h-0.59v-5.54H42.03z M42.62,101.64h0.84
				c0.19,0,0.37-0.02,0.54-0.06c0.17-0.04,0.31-0.11,0.44-0.21c0.12-0.09,0.22-0.21,0.29-0.36c0.07-0.14,0.11-0.31,0.11-0.51
				c0-0.39-0.11-0.67-0.33-0.85s-0.54-0.27-0.97-0.27h-0.91L42.62,101.64L42.62,101.64z"/>
			<path class="st1" d="M50.82,98.86c0.32,0,0.6,0.02,0.84,0.07c0.25,0.04,0.48,0.13,0.7,0.25l-0.16,0.49
				c-0.2-0.1-0.41-0.17-0.63-0.22s-0.44-0.08-0.67-0.08c-0.28,0-0.55,0.04-0.8,0.12c-0.26,0.08-0.48,0.21-0.67,0.39
				c-0.2,0.18-0.35,0.41-0.47,0.7c-0.12,0.29-0.18,0.64-0.18,1.06c0,0.36,0.05,0.68,0.15,0.96c0.1,0.28,0.24,0.52,0.43,0.71
				s0.4,0.34,0.66,0.44c0.25,0.1,0.53,0.15,0.84,0.15c0.23,0,0.42-0.01,0.59-0.04c0.16-0.03,0.31-0.07,0.42-0.11v-1.76h-1.11v-0.49
				h1.72v2.63c-0.22,0.09-0.45,0.16-0.71,0.22s-0.57,0.08-0.94,0.08c-0.38,0-0.73-0.06-1.06-0.18s-0.61-0.3-0.86-0.53
				c-0.25-0.23-0.44-0.52-0.58-0.87c-0.14-0.35-0.22-0.74-0.22-1.19s0.07-0.85,0.2-1.2s0.32-0.64,0.56-0.87s0.52-0.41,0.85-0.53
				C50.07,98.92,50.43,98.86,50.82,98.86"/>
			<polygon class="st1" points="55.46,98.87 58.71,98.87 58.71,99.39 56.09,99.39 56.09,101.28 58.49,101.28 58.49,101.8 
				56.09,101.8 56.09,103.89 58.74,103.89 58.74,104.41 55.46,104.41 			"/>
			<path class="st1" d="M61.56,98.87h0.57l2.47,3.58c0.11,0.17,0.22,0.33,0.33,0.49c0.11,0.16,0.21,0.33,0.31,0.49h0.02
				c-0.01-0.22-0.02-0.43-0.02-0.65c0-0.21,0-0.43,0-0.64v-3.27h0.62v5.54h-0.57l-2.42-3.47c-0.12-0.18-0.24-0.36-0.37-0.57
				c-0.12-0.2-0.23-0.4-0.34-0.6h-0.02c0.01,0.26,0.02,0.52,0.03,0.78c0,0.26,0.01,0.51,0.01,0.78v3.09h-0.62V98.87z"/>
			<polygon class="st1" points="72.63,98.87 72.63,99.4 70.82,99.4 70.82,104.41 70.18,104.41 70.18,99.4 68.4,99.4 68.4,98.87 			
				"/>
			<rect x="75.18" y="98.87" class="st1" width="0.63" height="5.54"/>
			<path class="st1" d="M78.97,98.87h0.57l2.47,3.58c0.11,0.17,0.22,0.33,0.33,0.49c0.11,0.16,0.21,0.33,0.31,0.49h0.02
				c-0.01-0.22-0.02-0.43-0.02-0.65c0-0.21,0-0.43,0-0.64v-3.27h0.62v5.54H82.7l-2.42-3.47c-0.12-0.18-0.25-0.36-0.37-0.57
				c-0.12-0.2-0.23-0.4-0.34-0.6h-0.02c0.01,0.26,0.02,0.52,0.03,0.78c0,0.26,0.01,0.51,0.01,0.78v3.09h-0.61v-5.55H78.97z"/>
			<path class="st1" d="M88,98.87h0.59l2.15,5.54h-0.67l-0.61-1.58h-2.37l-0.61,1.58h-0.66L88,98.87z M87.26,102.31h2.01l-0.44-1.19
				c-0.08-0.21-0.17-0.44-0.25-0.7c-0.09-0.26-0.18-0.55-0.28-0.86h-0.02c-0.05,0.15-0.09,0.3-0.14,0.43
				c-0.04,0.13-0.09,0.26-0.13,0.39c-0.05,0.12-0.09,0.24-0.14,0.37c-0.04,0.12-0.09,0.24-0.14,0.37L87.26,102.31z"/>
		</g>
	</g>
	<g>
		<rect x="129.13" class="st2" width="125.3" height="125.29"/>
		<g class="st3">
			<path class="st1" d="M153.65,31.29h-2.62v3.43h-0.98v-7.76h4.04v0.84h-3.07v2.66h2.62V31.29z"/>
		</g>
		<g class="st3">
			<path class="st1" d="M157.96,34.72c-0.06-0.12-0.1-0.33-0.12-0.63c-0.33,0.49-0.76,0.74-1.28,0.74c-0.52,0-0.93-0.15-1.22-0.44
				c-0.29-0.29-0.44-0.71-0.44-1.24c0-0.59,0.2-1.05,0.6-1.4s0.94-0.52,1.64-0.53h0.69v-0.61c0-0.34-0.08-0.59-0.23-0.74
				c-0.15-0.15-0.39-0.22-0.7-0.22c-0.28,0-0.52,0.08-0.69,0.25c-0.18,0.17-0.27,0.38-0.27,0.64h-0.94c0-0.29,0.09-0.58,0.26-0.84
				c0.17-0.27,0.41-0.48,0.7-0.63c0.29-0.15,0.62-0.23,0.99-0.23c0.59,0,1.04,0.15,1.35,0.44c0.31,0.29,0.46,0.72,0.47,1.28v2.91
				c0,0.44,0.06,0.83,0.18,1.16v0.08H157.96z M156.71,33.97c0.23,0,0.45-0.06,0.66-0.19c0.21-0.13,0.36-0.29,0.46-0.48v-1.38h-0.53
				c-0.45,0.01-0.8,0.11-1.06,0.3c-0.26,0.19-0.39,0.46-0.39,0.81c0,0.33,0.07,0.56,0.2,0.71S156.39,33.97,156.71,33.97z"/>
			<path class="st1" d="M162.23,34.02c0.31,0,0.56-0.1,0.75-0.29c0.19-0.19,0.29-0.47,0.31-0.83h0.89
				c-0.02,0.55-0.22,1.01-0.59,1.38c-0.37,0.36-0.83,0.55-1.36,0.55c-0.71,0-1.26-0.22-1.63-0.67c-0.38-0.45-0.56-1.12-0.56-2.01
				v-0.63c0-0.87,0.19-1.53,0.56-1.99c0.37-0.45,0.92-0.68,1.63-0.68c0.59,0,1.06,0.19,1.41,0.56c0.35,0.37,0.53,0.88,0.55,1.53
				h-0.89c-0.02-0.43-0.12-0.75-0.31-0.96c-0.18-0.21-0.44-0.32-0.76-0.32c-0.42,0-0.73,0.14-0.93,0.41
				c-0.2,0.28-0.31,0.73-0.31,1.36v0.74c0,0.68,0.1,1.16,0.3,1.44C161.48,33.88,161.79,34.02,162.23,34.02z"/>
			<path class="st1" d="M168.21,34.21c-0.31,0.41-0.77,0.61-1.37,0.61c-0.52,0-0.92-0.18-1.18-0.54c-0.27-0.36-0.4-0.89-0.41-1.58
				v-3.76h0.94v3.69c0,0.9,0.27,1.35,0.81,1.35c0.57,0,0.97-0.26,1.18-0.77v-4.27h0.94v5.77h-0.9L168.21,34.21z"/>
			<path class="st1" d="M171.56,34.72h-0.94v-8.19h0.94V34.72z"/>
			<path class="st1" d="M174.28,27.55v1.4h0.87v0.76h-0.87v3.58c0,0.23,0.04,0.4,0.11,0.52c0.08,0.12,0.2,0.18,0.38,0.18
				c0.12,0,0.25-0.02,0.38-0.06l-0.01,0.8c-0.21,0.07-0.43,0.11-0.66,0.11c-0.37,0-0.66-0.13-0.85-0.4s-0.29-0.64-0.29-1.13v-3.58
				h-0.88v-0.76h0.88v-1.4H174.28z"/>
			<path class="st1" d="M179.24,34.72c-0.06-0.12-0.1-0.33-0.12-0.63c-0.33,0.49-0.76,0.74-1.28,0.74c-0.52,0-0.93-0.15-1.22-0.44
				c-0.29-0.29-0.44-0.71-0.44-1.24c0-0.59,0.2-1.05,0.6-1.4s0.94-0.52,1.64-0.53h0.69v-0.61c0-0.34-0.08-0.59-0.23-0.74
				c-0.15-0.15-0.39-0.22-0.7-0.22c-0.28,0-0.52,0.08-0.69,0.25c-0.18,0.17-0.27,0.38-0.27,0.64h-0.94c0-0.29,0.09-0.58,0.26-0.84
				c0.17-0.27,0.41-0.48,0.7-0.63c0.29-0.15,0.62-0.23,0.99-0.23c0.59,0,1.04,0.15,1.35,0.44c0.31,0.29,0.46,0.72,0.47,1.28v2.91
				c0,0.44,0.06,0.83,0.18,1.16v0.08H179.24z M177.98,33.97c0.23,0,0.45-0.06,0.66-0.19c0.21-0.13,0.36-0.29,0.46-0.48v-1.38h-0.53
				c-0.45,0.01-0.8,0.11-1.06,0.3c-0.26,0.19-0.39,0.46-0.39,0.81c0,0.33,0.07,0.56,0.2,0.71S177.67,33.97,177.98,33.97z"/>
			<path class="st1" d="M181.31,31.57c0-0.89,0.17-1.57,0.5-2.03c0.33-0.47,0.81-0.7,1.43-0.7c0.55,0,0.98,0.22,1.29,0.67v-2.99
				h0.94v8.19h-0.86l-0.05-0.62c-0.31,0.48-0.75,0.72-1.33,0.72c-0.6,0-1.07-0.23-1.41-0.7c-0.34-0.46-0.51-1.12-0.52-1.96V31.57z
				 M182.25,32.11c0,0.65,0.1,1.12,0.29,1.42c0.19,0.3,0.5,0.46,0.94,0.46c0.47,0,0.82-0.24,1.05-0.71v-2.91
				c-0.24-0.46-0.59-0.69-1.04-0.69c-0.43,0-0.75,0.15-0.94,0.46c-0.19,0.3-0.29,0.77-0.29,1.4V32.11z"/>
		</g>
		<g class="st3">
			<path class="st1" d="M151.03,45h3.04v0.84h-4.03v-7.76h0.98V45z"/>
			<path class="st1" d="M158.07,45.83c-0.06-0.12-0.1-0.33-0.12-0.63c-0.33,0.49-0.76,0.74-1.28,0.74c-0.52,0-0.93-0.15-1.22-0.44
				c-0.29-0.29-0.44-0.71-0.44-1.24c0-0.59,0.2-1.05,0.6-1.4c0.4-0.34,0.94-0.52,1.64-0.53h0.69v-0.61c0-0.34-0.08-0.59-0.23-0.74
				c-0.15-0.15-0.39-0.22-0.7-0.22c-0.29,0-0.52,0.08-0.69,0.25c-0.18,0.17-0.27,0.38-0.27,0.64h-0.94c0-0.29,0.09-0.58,0.26-0.84
				s0.41-0.48,0.7-0.63c0.29-0.15,0.62-0.23,0.99-0.23c0.59,0,1.04,0.15,1.35,0.44c0.31,0.29,0.46,0.72,0.47,1.28v2.91
				c0,0.44,0.06,0.83,0.18,1.16v0.08H158.07z M156.81,45.08c0.23,0,0.45-0.06,0.66-0.19s0.36-0.29,0.46-0.48v-1.38h-0.53
				c-0.45,0.01-0.8,0.11-1.06,0.3c-0.26,0.19-0.39,0.46-0.39,0.81c0,0.33,0.07,0.56,0.2,0.71C156.28,45.01,156.5,45.08,156.81,45.08
				z"/>
			<path class="st1" d="M161.57,38.67v1.4h0.87v0.76h-0.87v3.58c0,0.23,0.04,0.4,0.11,0.52c0.07,0.12,0.2,0.18,0.38,0.18
				c0.12,0,0.25-0.02,0.38-0.06l-0.01,0.8c-0.21,0.07-0.43,0.11-0.66,0.11c-0.37,0-0.66-0.13-0.85-0.4
				c-0.2-0.27-0.29-0.64-0.29-1.13v-3.58h-0.88v-0.76h0.88v-1.4H161.57z"/>
			<path class="st1" d="M164.65,38.54c0,0.16-0.04,0.29-0.13,0.4s-0.22,0.16-0.41,0.16c-0.18,0-0.31-0.05-0.4-0.16
				s-0.13-0.24-0.13-0.4c0-0.16,0.04-0.3,0.13-0.41c0.09-0.11,0.22-0.17,0.4-0.17s0.31,0.06,0.4,0.17
				C164.6,38.25,164.65,38.38,164.65,38.54z M164.58,45.83h-0.94v-5.77h0.94V45.83z"/>
			<path class="st1" d="M166.95,40.07l0.03,0.62c0.37-0.49,0.83-0.73,1.4-0.73c1.02,0,1.54,0.68,1.55,2.04v3.83h-0.94v-3.79
				c0-0.45-0.08-0.77-0.23-0.96c-0.15-0.19-0.38-0.29-0.68-0.29c-0.24,0-0.45,0.08-0.63,0.24s-0.34,0.36-0.45,0.61v4.19h-0.94v-5.77
				H166.95z"/>
			<path class="st1" d="M171.14,42.68c0-0.84,0.2-1.5,0.61-1.99c0.41-0.49,0.94-0.73,1.61-0.73c0.67,0,1.21,0.24,1.61,0.71
				s0.62,1.12,0.63,1.95v0.61c0,0.84-0.2,1.5-0.61,1.98c-0.41,0.49-0.95,0.73-1.62,0.73c-0.67,0-1.2-0.24-1.61-0.71
				c-0.4-0.47-0.61-1.11-0.63-1.92V42.68z M172.09,43.23c0,0.59,0.12,1.06,0.35,1.4c0.23,0.34,0.55,0.51,0.94,0.51
				c0.83,0,1.26-0.6,1.28-1.8v-0.65c0-0.59-0.12-1.06-0.35-1.4s-0.55-0.51-0.94-0.51c-0.39,0-0.7,0.17-0.93,0.51
				c-0.23,0.34-0.35,0.81-0.35,1.39V43.23z"/>
			<path class="st1" d="M179.79,45.83c-0.06-0.12-0.1-0.33-0.12-0.63c-0.33,0.49-0.76,0.74-1.28,0.74c-0.52,0-0.93-0.15-1.22-0.44
				c-0.29-0.29-0.44-0.71-0.44-1.24c0-0.59,0.2-1.05,0.6-1.4c0.4-0.34,0.94-0.52,1.64-0.53h0.69v-0.61c0-0.34-0.08-0.59-0.23-0.74
				c-0.15-0.15-0.39-0.22-0.7-0.22c-0.29,0-0.52,0.08-0.69,0.25c-0.18,0.17-0.27,0.38-0.27,0.64h-0.94c0-0.29,0.09-0.58,0.26-0.84
				s0.41-0.48,0.7-0.63c0.29-0.15,0.62-0.23,0.99-0.23c0.59,0,1.04,0.15,1.35,0.44c0.31,0.29,0.46,0.72,0.47,1.28v2.91
				c0,0.44,0.06,0.83,0.18,1.16v0.08H179.79z M178.53,45.08c0.23,0,0.45-0.06,0.66-0.19s0.36-0.29,0.46-0.48v-1.38h-0.53
				c-0.45,0.01-0.8,0.11-1.06,0.3c-0.26,0.19-0.39,0.46-0.39,0.81c0,0.33,0.07,0.56,0.2,0.71C178,45.01,178.22,45.08,178.53,45.08z"
				/>
			<path class="st1" d="M182.94,40.07l0.02,0.53c0.35-0.43,0.82-0.64,1.39-0.64c0.64,0,1.09,0.28,1.35,0.84
				c0.36-0.56,0.87-0.84,1.51-0.84c1.06,0,1.61,0.66,1.63,1.99v3.89h-0.94v-3.8c0-0.42-0.08-0.73-0.22-0.94
				c-0.15-0.2-0.4-0.31-0.76-0.31c-0.28,0-0.52,0.11-0.69,0.33s-0.28,0.5-0.31,0.84v3.87h-0.95V42c-0.01-0.8-0.34-1.2-0.98-1.2
				c-0.48,0-0.81,0.24-1.01,0.71v4.32h-0.94v-5.77H182.94z"/>
			<path class="st1" d="M192.33,45.94c-0.72,0-1.27-0.21-1.65-0.64c-0.38-0.43-0.58-1.06-0.59-1.88v-0.7c0-0.86,0.19-1.53,0.56-2.02
				c0.38-0.49,0.9-0.73,1.57-0.73c0.67,0,1.18,0.22,1.51,0.65s0.5,1.1,0.51,2.01v0.62h-3.22v0.13c0,0.62,0.12,1.07,0.35,1.35
				c0.23,0.28,0.57,0.42,1,0.42c0.28,0,0.52-0.05,0.73-0.16c0.21-0.11,0.41-0.27,0.59-0.5l0.49,0.6
				C193.8,45.65,193.17,45.94,192.33,45.94z M192.23,40.77c-0.39,0-0.68,0.13-0.87,0.4c-0.19,0.27-0.29,0.69-0.32,1.25h2.27v-0.13
				c-0.02-0.55-0.12-0.94-0.3-1.17C192.84,40.89,192.58,40.77,192.23,40.77z"/>
			<path class="st1" d="M197.77,40.95c-0.13-0.03-0.27-0.04-0.43-0.04c-0.48,0-0.82,0.26-1.01,0.79v4.13h-0.94v-5.77h0.92l0.02,0.59
				c0.25-0.46,0.61-0.69,1.07-0.69c0.15,0,0.27,0.03,0.37,0.08L197.77,40.95z"/>
			<path class="st1" d="M199.8,38.54c0,0.16-0.04,0.29-0.13,0.4s-0.22,0.16-0.41,0.16c-0.18,0-0.31-0.05-0.4-0.16
				s-0.13-0.24-0.13-0.4c0-0.16,0.04-0.3,0.13-0.41c0.09-0.11,0.22-0.17,0.4-0.17s0.31,0.06,0.4,0.17
				C199.75,38.25,199.8,38.38,199.8,38.54z M199.72,45.83h-0.94v-5.77h0.94V45.83z"/>
			<path class="st1" d="M203.21,45.14c0.31,0,0.56-0.1,0.75-0.29c0.19-0.19,0.29-0.47,0.31-0.83h0.89
				c-0.02,0.55-0.22,1.01-0.59,1.38c-0.37,0.36-0.83,0.55-1.36,0.55c-0.71,0-1.26-0.22-1.63-0.67c-0.38-0.45-0.56-1.12-0.56-2.01
				v-0.63c0-0.87,0.19-1.53,0.56-1.99c0.37-0.45,0.92-0.68,1.63-0.68c0.59,0,1.06,0.19,1.41,0.56c0.35,0.37,0.53,0.88,0.55,1.53
				h-0.89c-0.02-0.43-0.12-0.75-0.31-0.96c-0.18-0.21-0.44-0.32-0.76-0.32c-0.42,0-0.73,0.14-0.93,0.41
				c-0.2,0.28-0.31,0.73-0.31,1.36v0.74c0,0.68,0.1,1.16,0.3,1.44C202.46,45,202.78,45.14,203.21,45.14z"/>
			<path class="st1" d="M209.22,45.83c-0.06-0.12-0.1-0.33-0.12-0.63c-0.33,0.49-0.76,0.74-1.28,0.74c-0.52,0-0.93-0.15-1.22-0.44
				c-0.29-0.29-0.44-0.71-0.44-1.24c0-0.59,0.2-1.05,0.6-1.4s0.94-0.52,1.64-0.53h0.69v-0.61c0-0.34-0.08-0.59-0.23-0.74
				c-0.15-0.15-0.39-0.22-0.7-0.22c-0.28,0-0.52,0.08-0.69,0.25c-0.18,0.17-0.27,0.38-0.27,0.64h-0.94c0-0.29,0.09-0.58,0.26-0.84
				c0.17-0.27,0.41-0.48,0.7-0.63c0.29-0.15,0.62-0.23,0.99-0.23c0.59,0,1.04,0.15,1.35,0.44c0.31,0.29,0.46,0.72,0.47,1.28v2.91
				c0,0.44,0.06,0.83,0.18,1.16v0.08H209.22z M207.96,45.08c0.23,0,0.45-0.06,0.66-0.19c0.21-0.13,0.36-0.29,0.46-0.48v-1.38h-0.53
				c-0.45,0.01-0.8,0.11-1.06,0.3c-0.26,0.19-0.39,0.46-0.39,0.81c0,0.33,0.07,0.56,0.2,0.71S207.65,45.08,207.96,45.08z"/>
			<path class="st1" d="M212.37,40.07l0.03,0.62c0.37-0.49,0.83-0.73,1.4-0.73c1.02,0,1.54,0.68,1.55,2.04v3.83h-0.94v-3.79
				c0-0.45-0.08-0.77-0.23-0.96c-0.15-0.19-0.38-0.29-0.68-0.29c-0.24,0-0.45,0.08-0.63,0.24s-0.34,0.36-0.45,0.61v4.19h-0.94v-5.77
				H212.37z"/>
			<path class="st1" d="M219.73,45.83c-0.06-0.12-0.1-0.33-0.12-0.63c-0.33,0.49-0.76,0.74-1.28,0.74c-0.52,0-0.93-0.15-1.22-0.44
				c-0.29-0.29-0.44-0.71-0.44-1.24c0-0.59,0.2-1.05,0.6-1.4s0.94-0.52,1.64-0.53h0.69v-0.61c0-0.34-0.08-0.59-0.23-0.74
				c-0.15-0.15-0.39-0.22-0.7-0.22c-0.28,0-0.52,0.08-0.69,0.25c-0.18,0.17-0.27,0.38-0.27,0.64h-0.94c0-0.29,0.09-0.58,0.26-0.84
				c0.17-0.27,0.41-0.48,0.7-0.63c0.29-0.15,0.62-0.23,0.99-0.23c0.59,0,1.04,0.15,1.35,0.44c0.31,0.29,0.46,0.72,0.47,1.28v2.91
				c0,0.44,0.06,0.83,0.18,1.16v0.08H219.73z M218.48,45.08c0.23,0,0.45-0.06,0.66-0.19c0.21-0.13,0.36-0.29,0.46-0.48v-1.38h-0.53
				c-0.45,0.01-0.8,0.11-1.06,0.3c-0.26,0.19-0.39,0.46-0.39,0.81c0,0.33,0.07,0.56,0.2,0.71S218.16,45.08,218.48,45.08z"/>
			<path class="st1" d="M224.3,42.69c0-0.89,0.17-1.57,0.5-2.03c0.33-0.47,0.81-0.7,1.43-0.7c0.55,0,0.98,0.22,1.29,0.67v-2.99h0.94
				v8.19h-0.86l-0.05-0.62c-0.31,0.48-0.75,0.72-1.33,0.72c-0.6,0-1.07-0.23-1.4-0.7c-0.34-0.46-0.51-1.12-0.52-1.96V42.69z
				 M225.24,43.22c0,0.65,0.1,1.12,0.29,1.42c0.19,0.3,0.5,0.46,0.94,0.46c0.47,0,0.82-0.24,1.05-0.71v-2.91
				c-0.24-0.46-0.59-0.69-1.04-0.69c-0.43,0-0.75,0.15-0.94,0.46c-0.19,0.3-0.29,0.77-0.29,1.4V43.22z"/>
			<path class="st1" d="M231.98,45.94c-0.72,0-1.27-0.21-1.65-0.64c-0.38-0.43-0.58-1.06-0.59-1.88v-0.7c0-0.86,0.19-1.53,0.56-2.02
				c0.38-0.49,0.9-0.73,1.57-0.73c0.67,0,1.18,0.22,1.51,0.65s0.5,1.1,0.51,2.01v0.62h-3.22v0.13c0,0.62,0.12,1.07,0.35,1.35
				c0.23,0.28,0.57,0.42,1,0.42c0.28,0,0.52-0.05,0.73-0.16c0.21-0.11,0.41-0.27,0.59-0.5l0.49,0.6
				C233.44,45.65,232.81,45.94,231.98,45.94z M231.87,40.77c-0.39,0-0.68,0.13-0.87,0.4c-0.19,0.27-0.29,0.69-0.32,1.25h2.27v-0.13
				c-0.02-0.55-0.12-0.94-0.3-1.17C232.48,40.89,232.22,40.77,231.87,40.77z"/>
		</g>
		<g class="st3">
			<path class="st1" d="M154.91,54.48c-0.04,0.83-0.28,1.47-0.7,1.91c-0.42,0.44-1.02,0.66-1.8,0.66c-0.78,0-1.4-0.3-1.86-0.89
				c-0.46-0.59-0.69-1.39-0.69-2.41v-1.41c0-1.01,0.24-1.81,0.71-2.39c0.47-0.59,1.11-0.88,1.93-0.88c0.75,0,1.33,0.22,1.74,0.67
				c0.41,0.45,0.63,1.09,0.67,1.92h-0.99c-0.04-0.63-0.18-1.08-0.4-1.35c-0.22-0.27-0.57-0.4-1.02-0.4c-0.53,0-0.94,0.21-1.22,0.62
				s-0.43,1.02-0.43,1.82v1.42c0,0.79,0.13,1.39,0.4,1.81c0.26,0.42,0.65,0.63,1.16,0.63c0.51,0,0.87-0.13,1.1-0.38
				c0.22-0.25,0.36-0.71,0.42-1.36H154.91z"/>
			<path class="st1" d="M157.2,49.65c0,0.16-0.04,0.29-0.13,0.4s-0.22,0.16-0.41,0.16c-0.18,0-0.31-0.05-0.4-0.16
				s-0.13-0.24-0.13-0.4c0-0.16,0.04-0.3,0.13-0.41c0.09-0.11,0.22-0.17,0.4-0.17s0.31,0.06,0.4,0.17
				C157.15,49.36,157.2,49.49,157.2,49.65z M157.12,56.95h-0.94v-5.77h0.94V56.95z"/>
			<path class="st1" d="M160.67,57.06c-0.72,0-1.27-0.21-1.65-0.64c-0.38-0.43-0.58-1.06-0.59-1.88v-0.7c0-0.86,0.19-1.53,0.56-2.02
				c0.38-0.49,0.9-0.73,1.57-0.73c0.68,0,1.18,0.22,1.51,0.65s0.5,1.1,0.51,2.01v0.62h-3.22v0.13c0,0.62,0.12,1.07,0.35,1.35
				c0.23,0.28,0.57,0.42,1,0.42c0.28,0,0.52-0.05,0.73-0.16c0.21-0.11,0.41-0.27,0.59-0.5l0.49,0.6
				C162.13,56.77,161.51,57.06,160.67,57.06z M160.56,51.88c-0.39,0-0.68,0.13-0.87,0.4c-0.19,0.27-0.29,0.69-0.32,1.25h2.27v-0.13
				c-0.03-0.55-0.12-0.94-0.3-1.17C161.17,52,160.91,51.88,160.56,51.88z"/>
			<path class="st1" d="M164.61,51.18l0.03,0.62c0.37-0.49,0.83-0.73,1.4-0.73c1.02,0,1.54,0.68,1.55,2.04v3.83h-0.94v-3.79
				c0-0.45-0.08-0.77-0.23-0.96c-0.15-0.19-0.38-0.29-0.68-0.29c-0.23,0-0.45,0.08-0.63,0.24s-0.34,0.36-0.45,0.61v4.19h-0.94v-5.77
				H164.61z"/>
			<path class="st1" d="M171.01,56.25c0.31,0,0.56-0.1,0.75-0.29c0.19-0.19,0.29-0.47,0.31-0.83h0.89
				c-0.02,0.55-0.22,1.01-0.59,1.38c-0.37,0.36-0.83,0.55-1.36,0.55c-0.71,0-1.26-0.22-1.63-0.67c-0.38-0.45-0.56-1.12-0.56-2.01
				v-0.63c0-0.87,0.19-1.53,0.56-1.99c0.37-0.45,0.92-0.68,1.63-0.68c0.59,0,1.06,0.19,1.41,0.56c0.35,0.37,0.53,0.88,0.55,1.53
				h-0.89c-0.02-0.43-0.12-0.75-0.31-0.96c-0.18-0.21-0.44-0.32-0.76-0.32c-0.42,0-0.73,0.14-0.93,0.41
				c-0.2,0.28-0.31,0.73-0.31,1.36v0.74c0,0.68,0.1,1.16,0.3,1.44C170.25,56.11,170.57,56.25,171.01,56.25z"/>
			<path class="st1" d="M175.14,49.65c0,0.16-0.04,0.29-0.13,0.4s-0.22,0.16-0.41,0.16c-0.18,0-0.31-0.05-0.4-0.16
				s-0.13-0.24-0.13-0.4c0-0.16,0.04-0.3,0.13-0.41c0.09-0.11,0.22-0.17,0.4-0.17s0.31,0.06,0.4,0.17
				C175.09,49.36,175.14,49.49,175.14,49.65z M175.06,56.95h-0.94v-5.77h0.94V56.95z"/>
			<path class="st1" d="M179.52,56.95c-0.06-0.12-0.1-0.33-0.12-0.63c-0.33,0.49-0.76,0.74-1.28,0.74c-0.52,0-0.93-0.15-1.22-0.44
				c-0.29-0.29-0.44-0.71-0.44-1.24c0-0.59,0.2-1.05,0.6-1.4c0.4-0.34,0.94-0.52,1.64-0.53h0.69v-0.61c0-0.34-0.08-0.59-0.23-0.74
				c-0.15-0.15-0.39-0.22-0.7-0.22c-0.29,0-0.52,0.08-0.69,0.25c-0.18,0.17-0.27,0.38-0.27,0.64h-0.94c0-0.29,0.09-0.58,0.26-0.84
				s0.41-0.48,0.7-0.63c0.29-0.15,0.62-0.23,0.99-0.23c0.59,0,1.04,0.15,1.35,0.44c0.31,0.29,0.46,0.72,0.47,1.28v2.91
				c0,0.44,0.06,0.83,0.18,1.16v0.08H179.52z M178.26,56.2c0.23,0,0.45-0.06,0.66-0.19s0.36-0.29,0.46-0.48v-1.38h-0.53
				c-0.45,0.01-0.8,0.11-1.06,0.3c-0.26,0.19-0.39,0.46-0.39,0.81c0,0.33,0.07,0.56,0.2,0.71C177.72,56.12,177.94,56.2,178.26,56.2z
				"/>
			<path class="st1" d="M184.58,55.47c0-0.2-0.08-0.38-0.23-0.52c-0.15-0.15-0.45-0.32-0.89-0.51c-0.51-0.21-0.87-0.39-1.07-0.54
				s-0.36-0.32-0.47-0.51c-0.1-0.19-0.15-0.42-0.15-0.68c0-0.47,0.17-0.86,0.51-1.17c0.34-0.31,0.78-0.47,1.31-0.47
				c0.56,0,1.01,0.16,1.35,0.49c0.34,0.33,0.51,0.75,0.51,1.26h-0.94c0-0.26-0.09-0.48-0.26-0.66c-0.17-0.18-0.4-0.27-0.67-0.27
				c-0.28,0-0.5,0.07-0.65,0.22s-0.24,0.33-0.24,0.58c0,0.19,0.06,0.35,0.17,0.46c0.12,0.12,0.39,0.27,0.83,0.46
				c0.7,0.27,1.18,0.54,1.43,0.8s0.38,0.59,0.38,1c0,0.5-0.17,0.9-0.52,1.2s-0.81,0.45-1.39,0.45c-0.6,0-1.09-0.17-1.46-0.52
				c-0.37-0.34-0.56-0.78-0.56-1.31h0.95c0.01,0.32,0.11,0.57,0.29,0.75c0.19,0.18,0.44,0.27,0.78,0.27c0.31,0,0.55-0.07,0.71-0.21
				C184.5,55.9,184.58,55.71,184.58,55.47z"/>
			<path class="st1" d="M192.78,54.99c0-0.39-0.1-0.68-0.31-0.89s-0.59-0.41-1.14-0.6c-0.55-0.2-0.97-0.4-1.25-0.62
				c-0.29-0.21-0.51-0.46-0.65-0.74c-0.14-0.28-0.22-0.59-0.22-0.95c0-0.62,0.21-1.12,0.62-1.52s0.95-0.6,1.61-0.6
				c0.45,0,0.86,0.1,1.21,0.3s0.63,0.49,0.82,0.85c0.19,0.36,0.29,0.76,0.29,1.19h-0.98c0-0.48-0.12-0.85-0.35-1.11
				c-0.23-0.26-0.56-0.39-1-0.39c-0.4,0-0.7,0.11-0.92,0.33s-0.33,0.53-0.33,0.93c0,0.33,0.12,0.6,0.35,0.82
				c0.23,0.22,0.6,0.42,1.09,0.59c0.76,0.25,1.31,0.56,1.64,0.93c0.33,0.37,0.49,0.85,0.49,1.45c0,0.63-0.2,1.13-0.61,1.51
				c-0.41,0.38-0.97,0.57-1.67,0.57c-0.45,0-0.87-0.1-1.25-0.3c-0.38-0.2-0.68-0.47-0.9-0.83c-0.22-0.36-0.33-0.77-0.33-1.23h0.98
				c0,0.48,0.13,0.85,0.4,1.12c0.27,0.27,0.63,0.4,1.1,0.4c0.43,0,0.75-0.11,0.97-0.33C192.67,55.67,192.78,55.37,192.78,54.99z"/>
			<path class="st1" d="M194.71,53.8c0-0.84,0.2-1.5,0.61-1.99c0.41-0.49,0.94-0.73,1.61-0.73c0.67,0,1.21,0.24,1.61,0.71
				s0.62,1.12,0.63,1.95v0.61c0,0.84-0.2,1.5-0.61,1.98c-0.41,0.49-0.95,0.73-1.62,0.73c-0.67,0-1.2-0.24-1.61-0.71
				c-0.4-0.47-0.61-1.11-0.63-1.92V53.8z M195.65,54.34c0,0.59,0.12,1.06,0.35,1.4c0.23,0.34,0.55,0.51,0.94,0.51
				c0.83,0,1.26-0.6,1.28-1.8V53.8c0-0.59-0.12-1.06-0.35-1.4s-0.55-0.51-0.94-0.51c-0.39,0-0.7,0.17-0.93,0.51
				c-0.23,0.34-0.35,0.81-0.35,1.39V54.34z"/>
			<path class="st1" d="M202.39,56.25c0.31,0,0.56-0.1,0.75-0.29c0.19-0.19,0.29-0.47,0.31-0.83h0.89
				c-0.02,0.55-0.22,1.01-0.59,1.38c-0.37,0.36-0.83,0.55-1.36,0.55c-0.71,0-1.26-0.22-1.63-0.67c-0.38-0.45-0.56-1.12-0.56-2.01
				v-0.63c0-0.87,0.19-1.53,0.56-1.99c0.37-0.45,0.92-0.68,1.63-0.68c0.59,0,1.06,0.19,1.41,0.56c0.35,0.37,0.53,0.88,0.55,1.53
				h-0.89c-0.02-0.43-0.12-0.75-0.31-0.96c-0.18-0.21-0.44-0.32-0.76-0.32c-0.42,0-0.73,0.14-0.93,0.41
				c-0.2,0.28-0.31,0.73-0.31,1.36v0.74c0,0.68,0.1,1.16,0.3,1.44C201.64,56.11,201.96,56.25,202.39,56.25z"/>
			<path class="st1" d="M206.53,49.65c0,0.16-0.04,0.29-0.13,0.4s-0.22,0.16-0.41,0.16c-0.18,0-0.31-0.05-0.4-0.16
				s-0.13-0.24-0.13-0.4c0-0.16,0.04-0.3,0.13-0.41c0.09-0.11,0.22-0.17,0.4-0.17s0.31,0.06,0.4,0.17
				C206.48,49.36,206.53,49.49,206.53,49.65z M206.45,56.95h-0.94v-5.77h0.94V56.95z"/>
			<path class="st1" d="M210.9,56.95c-0.06-0.12-0.1-0.33-0.12-0.63c-0.33,0.49-0.76,0.74-1.28,0.74c-0.52,0-0.93-0.15-1.22-0.44
				c-0.29-0.29-0.44-0.71-0.44-1.24c0-0.59,0.2-1.05,0.6-1.4c0.4-0.34,0.94-0.52,1.64-0.53h0.69v-0.61c0-0.34-0.08-0.59-0.23-0.74
				c-0.15-0.15-0.39-0.22-0.7-0.22c-0.29,0-0.52,0.08-0.69,0.25c-0.18,0.17-0.27,0.38-0.27,0.64h-0.94c0-0.29,0.09-0.58,0.26-0.84
				s0.41-0.48,0.7-0.63c0.29-0.15,0.62-0.23,0.99-0.23c0.59,0,1.04,0.15,1.35,0.44c0.31,0.29,0.46,0.72,0.47,1.28v2.91
				c0,0.44,0.06,0.83,0.18,1.16v0.08H210.9z M209.65,56.2c0.23,0,0.45-0.06,0.66-0.19s0.36-0.29,0.46-0.48v-1.38h-0.53
				c-0.45,0.01-0.8,0.11-1.06,0.3c-0.26,0.19-0.39,0.46-0.39,0.81c0,0.33,0.07,0.56,0.2,0.71C209.11,56.12,209.33,56.2,209.65,56.2z
				"/>
			<path class="st1" d="M214.18,56.95h-0.94v-8.19h0.94V56.95z"/>
			<path class="st1" d="M217.73,57.06c-0.72,0-1.27-0.21-1.65-0.64c-0.38-0.43-0.58-1.06-0.59-1.88v-0.7c0-0.86,0.19-1.53,0.56-2.02
				c0.38-0.49,0.9-0.73,1.57-0.73c0.67,0,1.18,0.22,1.51,0.65s0.5,1.1,0.51,2.01v0.62h-3.22v0.13c0,0.62,0.12,1.07,0.35,1.35
				c0.23,0.28,0.57,0.42,1,0.42c0.28,0,0.52-0.05,0.73-0.16c0.21-0.11,0.41-0.27,0.59-0.5l0.49,0.6
				C219.19,56.77,218.57,57.06,217.73,57.06z M217.62,51.88c-0.39,0-0.68,0.13-0.87,0.4c-0.19,0.27-0.29,0.69-0.32,1.25h2.27v-0.13
				c-0.02-0.55-0.12-0.94-0.3-1.17C218.24,52,217.97,51.88,217.62,51.88z"/>
			<path class="st1" d="M223.58,55.47c0-0.2-0.08-0.38-0.23-0.52c-0.15-0.15-0.45-0.32-0.88-0.51c-0.51-0.21-0.87-0.39-1.07-0.54
				c-0.21-0.15-0.36-0.32-0.47-0.51c-0.1-0.19-0.16-0.42-0.16-0.68c0-0.47,0.17-0.86,0.51-1.17c0.34-0.31,0.78-0.47,1.31-0.47
				c0.56,0,1.01,0.16,1.35,0.49s0.51,0.75,0.51,1.26h-0.94c0-0.26-0.09-0.48-0.26-0.66c-0.17-0.18-0.4-0.27-0.67-0.27
				c-0.28,0-0.5,0.07-0.65,0.22s-0.24,0.33-0.24,0.58c0,0.19,0.06,0.35,0.17,0.46s0.39,0.27,0.83,0.46c0.7,0.27,1.18,0.54,1.43,0.8
				c0.25,0.26,0.38,0.59,0.38,1c0,0.5-0.17,0.9-0.52,1.2c-0.35,0.3-0.81,0.45-1.39,0.45c-0.6,0-1.09-0.17-1.46-0.52
				s-0.56-0.78-0.56-1.31h0.95c0.01,0.32,0.11,0.57,0.29,0.75c0.18,0.18,0.44,0.27,0.78,0.27c0.31,0,0.55-0.07,0.71-0.21
				C223.5,55.9,223.58,55.71,223.58,55.47z"/>
			<path class="st1" d="M225.82,56.43c0-0.17,0.05-0.31,0.15-0.43c0.1-0.11,0.25-0.17,0.46-0.17c0.2,0,0.36,0.06,0.46,0.17
				c0.1,0.11,0.16,0.26,0.16,0.43c0,0.16-0.05,0.3-0.16,0.41s-0.26,0.17-0.46,0.17c-0.2,0-0.35-0.05-0.46-0.17
				S225.82,56.6,225.82,56.43z"/>
		</g>
		<g class="st3">
			<path class="st1" d="M153.44,66.11c0-0.39-0.11-0.68-0.31-0.89c-0.21-0.21-0.59-0.41-1.14-0.6c-0.55-0.2-0.97-0.4-1.26-0.62
				c-0.29-0.21-0.51-0.46-0.65-0.74s-0.22-0.59-0.22-0.95c0-0.62,0.21-1.12,0.62-1.52c0.41-0.4,0.95-0.6,1.61-0.6
				c0.46,0,0.86,0.1,1.22,0.3s0.63,0.49,0.82,0.85c0.19,0.36,0.29,0.76,0.29,1.19h-0.98c0-0.48-0.12-0.85-0.35-1.11
				c-0.23-0.26-0.56-0.39-1-0.39c-0.39,0-0.7,0.11-0.92,0.33s-0.33,0.53-0.33,0.93c0,0.33,0.12,0.6,0.35,0.82s0.6,0.42,1.09,0.59
				c0.76,0.25,1.31,0.56,1.64,0.93c0.33,0.37,0.49,0.85,0.49,1.45c0,0.63-0.2,1.13-0.61,1.51c-0.41,0.38-0.96,0.57-1.67,0.57
				c-0.45,0-0.87-0.1-1.25-0.3s-0.68-0.47-0.9-0.83c-0.22-0.36-0.33-0.77-0.33-1.23h0.98c0,0.48,0.13,0.85,0.4,1.12
				s0.63,0.4,1.1,0.4c0.43,0,0.75-0.11,0.97-0.33C153.33,66.79,153.44,66.49,153.44,66.11z"/>
			<path class="st1" d="M157.63,68.18c-0.72,0-1.27-0.21-1.65-0.64c-0.38-0.43-0.58-1.06-0.59-1.88v-0.7c0-0.86,0.19-1.53,0.56-2.02
				c0.38-0.49,0.9-0.73,1.57-0.73c0.67,0,1.18,0.22,1.51,0.65s0.5,1.1,0.51,2.01v0.62h-3.22v0.13c0,0.62,0.12,1.07,0.35,1.35
				c0.23,0.28,0.57,0.42,1,0.42c0.28,0,0.52-0.05,0.73-0.16c0.21-0.11,0.41-0.27,0.59-0.5l0.49,0.6
				C159.1,67.89,158.47,68.18,157.63,68.18z M157.53,63c-0.39,0-0.68,0.13-0.87,0.4c-0.19,0.27-0.29,0.69-0.32,1.25h2.27v-0.13
				c-0.02-0.55-0.12-0.94-0.3-1.17C158.14,63.12,157.88,63,157.53,63z"/>
			<path class="st1" d="M160.49,64.92c0-0.89,0.17-1.57,0.5-2.03c0.33-0.47,0.81-0.7,1.43-0.7c0.55,0,0.98,0.22,1.29,0.67v-2.99
				h0.94v8.19h-0.86l-0.05-0.62c-0.31,0.48-0.75,0.72-1.33,0.72c-0.6,0-1.07-0.23-1.41-0.7c-0.34-0.46-0.51-1.12-0.52-1.96V64.92z
				 M161.43,65.46c0,0.65,0.1,1.12,0.29,1.42c0.19,0.3,0.5,0.46,0.94,0.46c0.47,0,0.82-0.24,1.05-0.71v-2.91
				c-0.24-0.46-0.59-0.69-1.04-0.69c-0.43,0-0.75,0.15-0.94,0.46c-0.19,0.3-0.29,0.77-0.29,1.4V65.46z"/>
			<path class="st1" d="M168.16,68.18c-0.72,0-1.27-0.21-1.65-0.64c-0.38-0.43-0.58-1.06-0.59-1.88v-0.7c0-0.86,0.19-1.53,0.56-2.02
				c0.38-0.49,0.9-0.73,1.57-0.73c0.67,0,1.18,0.22,1.51,0.65s0.5,1.1,0.51,2.01v0.62h-3.22v0.13c0,0.62,0.12,1.07,0.35,1.35
				c0.23,0.28,0.57,0.42,1,0.42c0.28,0,0.52-0.05,0.73-0.16c0.21-0.11,0.41-0.27,0.59-0.5l0.49,0.6
				C169.63,67.89,169,68.18,168.16,68.18z M168.06,63c-0.39,0-0.68,0.13-0.87,0.4c-0.19,0.27-0.29,0.69-0.32,1.25h2.27v-0.13
				c-0.02-0.55-0.12-0.94-0.3-1.17C168.67,63.12,168.41,63,168.06,63z"/>
			<path class="st1" d="M177.47,66.04h-2.62l-0.6,2.03h-1l2.5-7.76h0.84l2.51,7.76h-1L177.47,66.04z M175.1,65.2h2.12l-1.06-3.53
				L175.1,65.2z"/>
		</g>
		<g class="st3">
			<path class="st1" d="M182.39,63.19c-0.13-0.03-0.27-0.04-0.43-0.04c-0.48,0-0.82,0.26-1.01,0.79v4.13H180V62.3h0.92l0.02,0.59
				c0.25-0.46,0.61-0.69,1.07-0.69c0.15,0,0.27,0.03,0.37,0.08L182.39,63.19z"/>
		</g>
		<g class="st3">
			<path class="st1" d="M183.06,64.92c0-0.9,0.16-1.58,0.49-2.04c0.33-0.46,0.81-0.69,1.43-0.69c0.59,0,1.03,0.25,1.34,0.75
				l0.05-0.65h0.85v5.82c0,0.71-0.18,1.26-0.55,1.64c-0.37,0.38-0.88,0.57-1.53,0.57c-0.29,0-0.6-0.07-0.96-0.21
				c-0.35-0.14-0.62-0.31-0.8-0.52l0.38-0.65c0.39,0.38,0.82,0.58,1.3,0.58c0.79,0,1.19-0.43,1.21-1.28V67.5
				c-0.31,0.45-0.74,0.68-1.3,0.68c-0.6,0-1.06-0.22-1.4-0.67c-0.33-0.45-0.51-1.1-0.52-1.94V64.92z M184,65.46
				c0,0.65,0.1,1.12,0.29,1.42c0.19,0.3,0.5,0.46,0.94,0.46c0.47,0,0.82-0.24,1.06-0.72v-2.88c-0.25-0.47-0.59-0.71-1.05-0.71
				c-0.43,0-0.75,0.15-0.94,0.46c-0.19,0.3-0.29,0.77-0.29,1.4V65.46z"/>
			<path class="st1" d="M190.69,68.18c-0.72,0-1.27-0.21-1.65-0.64c-0.38-0.43-0.58-1.06-0.59-1.88v-0.7c0-0.86,0.19-1.53,0.56-2.02
				c0.38-0.49,0.9-0.73,1.57-0.73c0.67,0,1.18,0.22,1.51,0.65s0.5,1.1,0.51,2.01v0.62h-3.22v0.13c0,0.62,0.12,1.07,0.35,1.35
				c0.23,0.28,0.57,0.42,1,0.42c0.28,0,0.52-0.05,0.73-0.16c0.21-0.11,0.41-0.27,0.59-0.5l0.49,0.6
				C192.15,67.89,191.53,68.18,190.69,68.18z M190.58,63c-0.39,0-0.68,0.13-0.87,0.4c-0.19,0.27-0.29,0.69-0.32,1.25h2.27v-0.13
				c-0.02-0.55-0.12-0.94-0.3-1.17C191.19,63.12,190.93,63,190.58,63z"/>
			<path class="st1" d="M194.63,62.3l0.03,0.62c0.37-0.49,0.83-0.73,1.4-0.73c1.02,0,1.54,0.68,1.55,2.04v3.83h-0.94v-3.79
				c0-0.45-0.08-0.77-0.23-0.96c-0.15-0.19-0.38-0.29-0.68-0.29c-0.24,0-0.45,0.08-0.63,0.24s-0.34,0.36-0.45,0.61v4.19h-0.94V62.3
				H194.63z"/>
			<path class="st1" d="M200.26,60.9v1.4h0.87v0.76h-0.87v3.58c0,0.23,0.04,0.4,0.11,0.52c0.07,0.12,0.2,0.18,0.38,0.18
				c0.12,0,0.25-0.02,0.38-0.06l-0.01,0.8c-0.21,0.07-0.43,0.11-0.66,0.11c-0.37,0-0.66-0.13-0.85-0.4
				c-0.2-0.27-0.29-0.64-0.29-1.13v-3.58h-0.88V62.3h0.88v-1.4H200.26z"/>
			<path class="st1" d="M203.34,60.77c0,0.16-0.04,0.29-0.13,0.4s-0.22,0.16-0.41,0.16c-0.18,0-0.31-0.05-0.4-0.16
				s-0.13-0.24-0.13-0.4c0-0.16,0.04-0.3,0.13-0.41c0.09-0.11,0.22-0.17,0.4-0.17s0.31,0.06,0.4,0.17
				C203.29,60.48,203.34,60.61,203.34,60.77z M203.26,68.07h-0.94V62.3h0.94V68.07z"/>
			<path class="st1" d="M205.64,62.3l0.03,0.62c0.37-0.49,0.83-0.73,1.4-0.73c1.02,0,1.54,0.68,1.55,2.04v3.83h-0.94v-3.79
				c0-0.45-0.08-0.77-0.23-0.96c-0.15-0.19-0.38-0.29-0.68-0.29c-0.23,0-0.45,0.08-0.63,0.24s-0.34,0.36-0.45,0.61v4.19h-0.94V62.3
				H205.64z"/>
			<path class="st1" d="M213,68.07c-0.06-0.12-0.1-0.33-0.12-0.63c-0.33,0.49-0.76,0.74-1.28,0.74c-0.52,0-0.93-0.15-1.22-0.44
				c-0.29-0.29-0.44-0.71-0.44-1.24c0-0.59,0.2-1.05,0.6-1.4s0.94-0.52,1.64-0.53h0.69v-0.61c0-0.34-0.08-0.59-0.23-0.74
				c-0.15-0.15-0.39-0.22-0.7-0.22c-0.28,0-0.52,0.08-0.69,0.25c-0.18,0.17-0.27,0.38-0.27,0.64h-0.94c0-0.29,0.09-0.58,0.26-0.84
				c0.17-0.27,0.41-0.48,0.7-0.63c0.29-0.15,0.62-0.23,0.99-0.23c0.59,0,1.04,0.15,1.35,0.44c0.31,0.29,0.46,0.72,0.47,1.28v2.91
				c0,0.44,0.06,0.83,0.18,1.16v0.08H213z M211.74,67.32c0.23,0,0.45-0.06,0.66-0.19c0.21-0.13,0.36-0.29,0.46-0.48v-1.38h-0.53
				c-0.45,0.01-0.8,0.11-1.06,0.3c-0.26,0.19-0.39,0.46-0.39,0.81c0,0.33,0.07,0.56,0.2,0.71S211.43,67.32,211.74,67.32z"/>
			<path class="st1" d="M215.32,67.55c0-0.17,0.05-0.31,0.15-0.43c0.1-0.11,0.25-0.17,0.46-0.17c0.2,0,0.36,0.06,0.46,0.17
				c0.1,0.11,0.16,0.26,0.16,0.43c0,0.16-0.05,0.3-0.16,0.41s-0.26,0.17-0.46,0.17c-0.2,0-0.35-0.05-0.46-0.17
				S215.32,67.72,215.32,67.55z"/>
		</g>
		<g class="st3">
			<path class="st1" d="M153.54,85.91h-2.14l-0.42,1.59h-1.66l2.43-7.76h1.43l2.44,7.76h-1.67L153.54,85.91z M152.79,77.65h1.7
				L153,79.3h-1.26L152.79,77.65z M151.74,84.6h1.45l-0.73-2.77L151.74,84.6z"/>
		</g>
		<g class="st3">
			<path class="st1" d="M159.13,83.18l-0.5-0.04c-0.41,0-0.69,0.18-0.84,0.54v3.81h-1.51v-5.77h1.42l0.04,0.62
				c0.24-0.49,0.57-0.73,0.99-0.73c0.17,0,0.31,0.02,0.42,0.07L159.13,83.18z"/>
		</g>
		<g class="st3">
			<path class="st1" d="M162.14,87.6c-0.78,0-1.38-0.23-1.81-0.69c-0.43-0.46-0.65-1.12-0.65-1.98v-0.46c0-0.91,0.2-1.61,0.6-2.11
				c0.4-0.49,0.97-0.74,1.71-0.74c0.73,0,1.27,0.23,1.64,0.7c0.37,0.46,0.55,1.15,0.56,2.06v0.74h-3c0.02,0.43,0.12,0.74,0.28,0.94
				s0.42,0.3,0.77,0.3c0.5,0,0.93-0.17,1.26-0.52l0.59,0.91c-0.18,0.26-0.45,0.46-0.81,0.62C162.93,87.52,162.55,87.6,162.14,87.6z
				 M161.19,84.06h1.51v-0.14c-0.01-0.34-0.06-0.61-0.17-0.78s-0.29-0.27-0.55-0.27c-0.26,0-0.45,0.09-0.57,0.28
				S161.21,83.64,161.19,84.06z"/>
			<path class="st1" d="M167.77,87.49c-0.04-0.09-0.08-0.24-0.13-0.45c-0.27,0.37-0.64,0.55-1.1,0.55c-0.48,0-0.88-0.16-1.2-0.48
				c-0.32-0.32-0.48-0.73-0.48-1.24c0-0.6,0.19-1.07,0.58-1.4c0.39-0.33,0.94-0.5,1.67-0.51h0.46v-0.46c0-0.26-0.04-0.44-0.13-0.55
				s-0.22-0.16-0.39-0.16c-0.38,0-0.57,0.22-0.57,0.66h-1.51c0-0.53,0.2-0.97,0.6-1.32c0.4-0.35,0.91-0.52,1.52-0.52
				c0.63,0,1.12,0.17,1.47,0.49c0.35,0.33,0.52,0.8,0.52,1.41v2.71c0.01,0.5,0.08,0.89,0.21,1.17v0.09H167.77z M166.88,86.42
				c0.17,0,0.31-0.03,0.43-0.1c0.12-0.07,0.21-0.15,0.26-0.24v-1.2h-0.36c-0.26,0-0.46,0.08-0.61,0.25
				c-0.15,0.16-0.22,0.38-0.22,0.66C166.38,86.2,166.55,86.42,166.88,86.42z"/>
			<path class="st1" d="M176.77,84.13h-2.44v2.06h2.89v1.3h-4.46v-7.76h4.45v1.31h-2.88v1.83h2.44V84.13z"/>
			<path class="st1" d="M180.6,85.95c0-0.13-0.06-0.25-0.18-0.35c-0.12-0.11-0.39-0.26-0.82-0.44c-0.62-0.25-1.05-0.51-1.28-0.78
				c-0.23-0.27-0.35-0.61-0.35-1.01c0-0.5,0.18-0.92,0.55-1.25c0.36-0.33,0.85-0.49,1.45-0.49c0.63,0,1.14,0.16,1.52,0.49
				c0.38,0.33,0.57,0.77,0.57,1.32h-1.51c0-0.47-0.2-0.7-0.59-0.7c-0.16,0-0.29,0.05-0.39,0.15c-0.1,0.1-0.15,0.24-0.15,0.42
				c0,0.13,0.06,0.24,0.17,0.34c0.11,0.1,0.38,0.24,0.8,0.42c0.62,0.23,1.05,0.48,1.3,0.76c0.25,0.28,0.38,0.64,0.38,1.08
				c0,0.51-0.19,0.93-0.58,1.24c-0.39,0.31-0.9,0.47-1.52,0.47c-0.42,0-0.8-0.08-1.12-0.25c-0.32-0.17-0.58-0.4-0.76-0.69
				c-0.18-0.29-0.27-0.61-0.27-0.95h1.43c0.01,0.26,0.07,0.46,0.18,0.59s0.3,0.2,0.57,0.2C180.4,86.5,180.6,86.31,180.6,85.95z"/>
			<path class="st1" d="M184.76,80.31v1.42h0.77v1.13h-0.77v2.87c0,0.23,0.03,0.38,0.09,0.47c0.06,0.08,0.18,0.13,0.36,0.13
				c0.15,0,0.27-0.01,0.36-0.04l-0.01,1.17c-0.26,0.1-0.53,0.14-0.83,0.14c-0.97,0-1.47-0.56-1.48-1.68v-3.07h-0.67v-1.13h0.67
				v-1.42H184.76z"/>
			<path class="st1" d="M189.1,87.49c-0.04-0.09-0.08-0.24-0.13-0.45c-0.27,0.37-0.64,0.55-1.1,0.55c-0.48,0-0.88-0.16-1.2-0.48
				c-0.32-0.32-0.48-0.73-0.48-1.24c0-0.6,0.19-1.07,0.58-1.4c0.39-0.33,0.94-0.5,1.67-0.51h0.46v-0.46c0-0.26-0.04-0.44-0.13-0.55
				s-0.22-0.16-0.39-0.16c-0.38,0-0.56,0.22-0.56,0.66h-1.51c0-0.53,0.2-0.97,0.6-1.32c0.4-0.35,0.91-0.52,1.52-0.52
				c0.63,0,1.12,0.17,1.47,0.49c0.35,0.33,0.52,0.8,0.52,1.41v2.71c0.01,0.5,0.08,0.89,0.21,1.17v0.09H189.1z M188.21,86.42
				c0.17,0,0.31-0.03,0.43-0.1c0.12-0.07,0.2-0.15,0.26-0.24v-1.2h-0.36c-0.26,0-0.46,0.08-0.6,0.25c-0.15,0.16-0.22,0.38-0.22,0.66
				C187.71,86.2,187.88,86.42,188.21,86.42z"/>
			<path class="st1" d="M191.3,84.43c0-0.95,0.16-1.65,0.48-2.12c0.32-0.47,0.79-0.7,1.4-0.7c0.44,0,0.81,0.19,1.11,0.58V79.3h1.52
				v8.19h-1.37l-0.07-0.59c-0.31,0.46-0.71,0.69-1.19,0.69c-0.6,0-1.07-0.23-1.38-0.69c-0.32-0.46-0.48-1.14-0.49-2.04V84.43z
				 M192.81,84.81c0,0.57,0.06,0.97,0.18,1.19c0.12,0.23,0.33,0.34,0.61,0.34c0.3,0,0.52-0.13,0.68-0.4v-2.63
				c-0.15-0.28-0.37-0.43-0.67-0.43c-0.28,0-0.48,0.11-0.61,0.34c-0.13,0.22-0.19,0.62-0.19,1.19V84.81z"/>
			<path class="st1" d="M196.74,84.42c0-0.87,0.21-1.56,0.62-2.06c0.41-0.5,0.98-0.75,1.71-0.75c0.74,0,1.31,0.25,1.72,0.75
				c0.41,0.5,0.62,1.19,0.62,2.07v0.37c0,0.88-0.21,1.56-0.61,2.06c-0.41,0.49-0.98,0.74-1.72,0.74c-0.74,0-1.31-0.25-1.72-0.74
				c-0.41-0.5-0.62-1.18-0.62-2.07V84.42z M198.25,84.8c0,1.03,0.28,1.55,0.83,1.55c0.51,0,0.78-0.43,0.82-1.29l0-0.63
				c0-0.53-0.07-0.92-0.22-1.17s-0.35-0.38-0.62-0.38c-0.26,0-0.46,0.13-0.6,0.38c-0.14,0.25-0.22,0.64-0.22,1.17V84.8z"/>
			<path class="st1" d="M206.71,84.98l0.77-3.26h1.61l-1.9,6.63c-0.29,0.98-0.82,1.47-1.61,1.47c-0.18,0-0.39-0.03-0.62-0.1v-1.18
				l0.18,0c0.23,0,0.41-0.04,0.53-0.14s0.21-0.25,0.27-0.47l0.12-0.39l-1.66-5.83h1.62L206.71,84.98z"/>
		</g>
		<g class="st3">
			<path class="st1" d="M151.4,96.42v2.73h-1.57v-7.76h2.64c0.77,0,1.38,0.24,1.84,0.71s0.69,1.09,0.69,1.86s-0.23,1.36-0.68,1.8
				c-0.45,0.44-1.08,0.66-1.88,0.66H151.4z M151.4,95.11h1.08c0.3,0,0.53-0.1,0.69-0.29c0.16-0.2,0.25-0.48,0.25-0.85
				c0-0.39-0.08-0.7-0.25-0.92s-0.39-0.35-0.67-0.35h-1.09V95.11z"/>
		</g>
		<g class="st3">
			<path class="st1" d="M155.74,96.08c0-0.87,0.21-1.56,0.62-2.06c0.41-0.5,0.98-0.75,1.71-0.75c0.74,0,1.31,0.25,1.72,0.75
				c0.41,0.5,0.62,1.19,0.62,2.07v0.37c0,0.88-0.2,1.56-0.61,2.06s-0.98,0.74-1.72,0.74c-0.74,0-1.31-0.25-1.72-0.74
				c-0.41-0.5-0.62-1.18-0.62-2.07V96.08z M157.26,96.45c0,1.03,0.28,1.55,0.83,1.55c0.51,0,0.78-0.43,0.82-1.29l0.01-0.63
				c0-0.53-0.07-0.92-0.22-1.17c-0.15-0.25-0.35-0.38-0.62-0.38c-0.26,0-0.46,0.13-0.6,0.38s-0.22,0.64-0.22,1.17V96.45z"/>
			<path class="st1" d="M162.94,99.15h-1.51v-8.19h1.51V99.15z"/>
			<path class="st1" d="M165.72,99.15h-1.51v-5.77h1.51V99.15z M165.29,91.04h1.7l-1.48,1.65h-1.26L165.29,91.04z"/>
			<path class="st1" d="M168.72,91.96v1.42h0.77v1.13h-0.77v2.87c0,0.23,0.03,0.38,0.09,0.47c0.06,0.08,0.18,0.13,0.36,0.13
				c0.15,0,0.26-0.01,0.36-0.04l-0.01,1.17c-0.26,0.1-0.53,0.14-0.83,0.14c-0.97,0-1.47-0.56-1.48-1.68v-3.07h-0.67v-1.13h0.67
				v-1.42H168.72z"/>
			<path class="st1" d="M170.32,91.88c0-0.23,0.07-0.43,0.22-0.58c0.15-0.15,0.35-0.22,0.6-0.22c0.25,0,0.45,0.07,0.6,0.22
				c0.15,0.15,0.22,0.34,0.22,0.58c0,0.23-0.07,0.42-0.22,0.58c-0.15,0.15-0.35,0.23-0.6,0.23s-0.45-0.08-0.6-0.23
				C170.39,92.31,170.32,92.12,170.32,91.88z M171.9,99.15h-1.51v-5.77h1.51V99.15z"/>
			<path class="st1" d="M175.16,98c0.44,0,0.66-0.28,0.67-0.85h1.42c-0.01,0.63-0.2,1.14-0.58,1.52s-0.87,0.58-1.47,0.58
				c-0.74,0-1.31-0.23-1.7-0.69c-0.39-0.46-0.59-1.14-0.6-2.04v-0.46c0-0.91,0.19-1.6,0.58-2.07s0.96-0.71,1.71-0.71
				c0.64,0,1.14,0.2,1.5,0.59c0.37,0.39,0.55,0.95,0.56,1.67h-1.42c0-0.32-0.06-0.57-0.16-0.75s-0.27-0.26-0.51-0.26
				c-0.26,0-0.45,0.09-0.57,0.28s-0.17,0.55-0.18,1.08v0.59c0,0.47,0.02,0.8,0.07,0.98c0.05,0.19,0.12,0.32,0.23,0.41
				C174.81,97.96,174.96,98,175.16,98z"/>
			<path class="st1" d="M180.83,99.15c-0.04-0.09-0.08-0.24-0.13-0.45c-0.27,0.37-0.64,0.55-1.1,0.55c-0.48,0-0.88-0.16-1.2-0.48
				c-0.32-0.32-0.48-0.73-0.48-1.24c0-0.6,0.19-1.07,0.58-1.4c0.39-0.33,0.94-0.5,1.67-0.51h0.46v-0.46c0-0.26-0.04-0.44-0.13-0.55
				s-0.22-0.16-0.39-0.16c-0.38,0-0.57,0.22-0.57,0.66h-1.51c0-0.53,0.2-0.97,0.6-1.32s0.91-0.52,1.52-0.52
				c0.63,0,1.12,0.17,1.47,0.49c0.35,0.33,0.52,0.8,0.52,1.41v2.71c0.01,0.5,0.08,0.89,0.21,1.17v0.09H180.83z M179.94,98.07
				c0.17,0,0.31-0.03,0.43-0.1c0.12-0.07,0.2-0.15,0.26-0.24v-1.2h-0.36c-0.26,0-0.46,0.08-0.61,0.25
				c-0.15,0.16-0.22,0.38-0.22,0.66C179.44,97.86,179.61,98.07,179.94,98.07z"/>
			<path class="st1" d="M185.79,97.6c0-0.13-0.06-0.25-0.18-0.35s-0.4-0.26-0.82-0.44c-0.62-0.25-1.05-0.51-1.28-0.78
				c-0.23-0.27-0.35-0.61-0.35-1.01c0-0.5,0.18-0.92,0.55-1.25c0.37-0.33,0.85-0.49,1.45-0.49c0.63,0,1.14,0.16,1.52,0.49
				s0.57,0.77,0.57,1.32h-1.51c0-0.47-0.2-0.7-0.59-0.7c-0.16,0-0.29,0.05-0.39,0.15c-0.1,0.1-0.16,0.24-0.16,0.42
				c0,0.13,0.06,0.24,0.17,0.34s0.38,0.24,0.8,0.42c0.62,0.23,1.05,0.48,1.3,0.76c0.25,0.28,0.38,0.64,0.38,1.08
				c0,0.51-0.19,0.93-0.58,1.24c-0.39,0.31-0.9,0.47-1.52,0.47c-0.42,0-0.8-0.08-1.12-0.25c-0.32-0.17-0.58-0.4-0.76-0.69
				c-0.18-0.29-0.27-0.61-0.27-0.95h1.43c0.01,0.26,0.07,0.46,0.18,0.59s0.3,0.2,0.57,0.2C185.58,98.15,185.79,97.97,185.79,97.6z"
				/>
			<path class="st1" d="M192.35,96.42v2.73h-1.57v-7.76h2.64c0.77,0,1.38,0.24,1.84,0.71c0.46,0.48,0.68,1.09,0.68,1.86
				s-0.23,1.36-0.68,1.8c-0.45,0.44-1.08,0.66-1.88,0.66H192.35z M192.35,95.11h1.08c0.3,0,0.53-0.1,0.69-0.29
				c0.16-0.2,0.25-0.48,0.25-0.85c0-0.39-0.08-0.7-0.25-0.92s-0.39-0.35-0.67-0.35h-1.09V95.11z"/>
			<path class="st1" d="M199.76,98.62c-0.31,0.42-0.73,0.63-1.26,0.63c-0.53,0-0.93-0.18-1.21-0.55c-0.27-0.36-0.41-0.9-0.41-1.59
				v-3.74h1.51v3.78c0.01,0.56,0.19,0.84,0.56,0.84c0.35,0,0.59-0.15,0.75-0.45v-4.17h1.52v5.77h-1.42L199.76,98.62z M199.34,90.96
				h1.7l-1.48,1.65h-1.26L199.34,90.96z"/>
			<path class="st1" d="M206.79,96.45c0,0.94-0.15,1.64-0.45,2.1c-0.3,0.47-0.77,0.7-1.41,0.7c-0.5,0-0.9-0.23-1.21-0.68l-0.05,0.57
				h-1.39v-8.19h1.51v2.89c0.29-0.38,0.66-0.58,1.12-0.58c0.64,0,1.11,0.23,1.41,0.7s0.45,1.14,0.46,2.04V96.45z M205.29,96.07
				c0-0.61-0.06-1.02-0.18-1.22s-0.32-0.31-0.61-0.31c-0.32,0-0.55,0.14-0.69,0.43v2.63c0.14,0.27,0.37,0.41,0.7,0.41
				c0.29,0,0.49-0.09,0.6-0.28c0.11-0.19,0.17-0.55,0.18-1.1V96.07z"/>
			<path class="st1" d="M209.29,99.15h-1.51v-8.19h1.51V99.15z"/>
			<path class="st1" d="M210.45,91.88c0-0.23,0.08-0.43,0.22-0.58c0.15-0.15,0.35-0.22,0.6-0.22c0.25,0,0.45,0.07,0.6,0.22
				s0.22,0.34,0.22,0.58c0,0.23-0.07,0.42-0.22,0.58c-0.15,0.15-0.35,0.23-0.6,0.23c-0.25,0-0.45-0.08-0.6-0.23
				C210.53,92.31,210.45,92.12,210.45,91.88z M212.04,99.15h-1.51v-5.77h1.51V99.15z"/>
			<path class="st1" d="M215.29,98c0.44,0,0.66-0.28,0.67-0.85h1.42c-0.01,0.63-0.2,1.14-0.58,1.52s-0.87,0.58-1.47,0.58
				c-0.74,0-1.31-0.23-1.7-0.69c-0.39-0.46-0.59-1.14-0.6-2.04v-0.46c0-0.91,0.19-1.6,0.58-2.07s0.96-0.71,1.71-0.71
				c0.64,0,1.14,0.2,1.5,0.59c0.37,0.39,0.55,0.95,0.56,1.67h-1.42c0-0.32-0.06-0.57-0.16-0.75s-0.27-0.26-0.51-0.26
				c-0.26,0-0.45,0.09-0.57,0.28s-0.17,0.55-0.18,1.08v0.59c0,0.47,0.02,0.8,0.07,0.98c0.05,0.19,0.12,0.32,0.23,0.41
				C214.94,97.96,215.09,98,215.29,98z"/>
			<path class="st1" d="M220.97,99.15c-0.04-0.09-0.09-0.24-0.13-0.45c-0.27,0.37-0.64,0.55-1.1,0.55c-0.48,0-0.88-0.16-1.2-0.48
				c-0.32-0.32-0.48-0.73-0.48-1.24c0-0.6,0.19-1.07,0.58-1.4c0.39-0.33,0.94-0.5,1.67-0.51h0.46v-0.46c0-0.26-0.04-0.44-0.13-0.55
				c-0.09-0.11-0.22-0.16-0.39-0.16c-0.38,0-0.57,0.22-0.57,0.66h-1.51c0-0.53,0.2-0.97,0.6-1.32c0.4-0.35,0.91-0.52,1.52-0.52
				c0.63,0,1.12,0.17,1.47,0.49c0.35,0.33,0.52,0.8,0.52,1.41v2.71c0.01,0.5,0.08,0.89,0.21,1.17v0.09H220.97z M220.08,98.07
				c0.17,0,0.31-0.03,0.43-0.1c0.12-0.07,0.21-0.15,0.26-0.24v-1.2h-0.36c-0.26,0-0.46,0.08-0.6,0.25
				c-0.15,0.16-0.22,0.38-0.22,0.66C219.57,97.86,219.74,98.07,220.08,98.07z"/>
			<path class="st1" d="M225.92,97.6c0-0.13-0.06-0.25-0.18-0.35s-0.4-0.26-0.82-0.44c-0.62-0.25-1.05-0.51-1.28-0.78
				c-0.23-0.27-0.35-0.61-0.35-1.01c0-0.5,0.18-0.92,0.55-1.25c0.37-0.33,0.85-0.49,1.45-0.49c0.63,0,1.14,0.16,1.52,0.49
				s0.57,0.77,0.57,1.32h-1.51c0-0.47-0.2-0.7-0.59-0.7c-0.16,0-0.29,0.05-0.39,0.15c-0.1,0.1-0.16,0.24-0.16,0.42
				c0,0.13,0.06,0.24,0.17,0.34s0.38,0.24,0.8,0.42c0.62,0.23,1.05,0.48,1.3,0.76c0.25,0.28,0.38,0.64,0.38,1.08
				c0,0.51-0.19,0.93-0.58,1.24c-0.39,0.31-0.9,0.47-1.52,0.47c-0.42,0-0.8-0.08-1.12-0.25c-0.32-0.17-0.58-0.4-0.76-0.69
				c-0.18-0.29-0.27-0.61-0.27-0.95h1.43c0.01,0.26,0.07,0.46,0.18,0.59s0.3,0.2,0.57,0.2C225.72,98.15,225.92,97.97,225.92,97.6z"
				/>
			<path class="st1" d="M228.45,98.38c0-0.24,0.08-0.44,0.24-0.6c0.16-0.16,0.37-0.23,0.63-0.23c0.25,0,0.46,0.08,0.63,0.23
				c0.17,0.15,0.25,0.35,0.25,0.6c0,0.25-0.08,0.45-0.25,0.6s-0.38,0.23-0.63,0.23c-0.25,0-0.46-0.08-0.63-0.23
				C228.53,98.82,228.45,98.62,228.45,98.38z"/>
		</g>
	</g>
</g>
</svg>
