<?xml version="1.0" encoding="utf-8"?>
<!-- Generator: Adobe Illustrator 26.3.1, SVG Export Plug-In . SVG Version: 6.00 Build 0)  -->
<svg version="1.1" id="Capa_1" xmlns="http://www.w3.org/2000/svg" xmlns:xlink="http://www.w3.org/1999/xlink" x="0px" y="0px"
	 viewBox="0 0 378.25 97.66" style="enable-background:new 0 0 378.25 97.66;" xml:space="preserve">
<style type="text/css">
	.st0{fill:#009BDA;}
	.st1{fill:#66B5E4;}
</style>
<g>
	<g>
		<path class="st0" d="M169.48,45.51c-13.58,0-23.32-10.12-23.32-22.63v-0.13C146.15,10.25,156.02,0,169.6,0
			c13.58,0,23.32,10.12,23.32,22.63v0.13C192.93,35.27,183.06,45.51,169.48,45.51 M182.8,22.76c0-7.54-5.53-13.83-13.33-13.83
			c-7.79,0-13.2,6.16-13.2,13.71v0.13c0,7.54,5.53,13.83,13.33,13.83c7.8,0,13.2-6.16,13.2-13.7V22.76z"/>
		<polygon class="st0" points="228,44.76 206.69,16.78 206.69,44.76 197.13,44.76 197.13,0.75 206.06,0.75 226.68,27.85 
			226.68,0.75 236.24,0.75 236.24,44.76 		"/>
		<path class="st0" d="M261.38,45.45c-11.82,0-19.05-6.6-19.05-19.55V0.75h9.68v24.89c0,7.17,3.58,10.88,9.49,10.88
			c5.91,0,9.49-3.58,9.49-10.56V0.75h9.68v24.83C280.68,38.92,273.2,45.45,261.38,45.45"/>
		<polygon class="st0" points="34.39,96.97 34.39,68.24 22,87.04 21.75,87.04 9.49,68.43 9.49,96.97 0,96.97 0,52.96 10.43,52.96 
			22,71.57 33.57,52.96 44.01,52.96 44.01,96.97 		"/>
		<path class="st0" d="M69.84,97.66c-11.82,0-19.05-6.6-19.05-19.55V52.96h9.68v24.9c0,7.17,3.58,10.87,9.49,10.87
			c5.91,0,9.49-3.58,9.49-10.56V52.96h9.68v24.83C89.14,91.12,81.66,97.66,69.84,97.66"/>
		<path class="st0" d="M103.41,97.6c-6.85,0-11.38-3.02-14.4-6.6l6.1-6.79c2.51,2.77,4.97,4.4,8.05,4.4c3.65,0,5.91-2.2,5.91-7.29
			V52.96H119v28.79C119,92.44,112.71,97.6,103.41,97.6"/>
		<polygon class="st0" points="126.42,96.97 126.42,52.96 159.61,52.96 159.61,61.57 136.04,61.57 136.04,70.5 156.78,70.5 
			156.78,79.12 136.04,79.12 136.04,88.36 159.93,88.36 159.93,96.97 		"/>
		<path class="st0" d="M193.43,96.97L184,82.89h-7.61v14.08h-9.68V52.96h20.12c10.37,0,16.6,5.47,16.6,14.52v0.13
			c0,7.1-3.83,11.57-9.43,13.64l10.75,15.72H193.43z M193.62,67.99c0-4.15-2.89-6.29-7.61-6.29h-9.62v12.64h9.81
			c4.71,0,7.42-2.51,7.42-6.22V67.99z"/>
		<polygon class="st0" points="209.71,96.97 209.71,52.96 242.9,52.96 242.9,61.57 219.33,61.57 219.33,70.5 240.07,70.5 
			240.07,79.12 219.33,79.12 219.33,88.36 243.22,88.36 243.22,96.97 		"/>
		<path class="st0" d="M266.29,97.6c-6.66,0-13.39-2.33-18.67-7.04l5.72-6.85c3.96,3.27,8.11,5.34,13.14,5.34
			c3.96,0,6.35-1.57,6.35-4.15v-0.13c0-2.45-1.51-3.71-8.86-5.6c-8.86-2.26-14.59-4.71-14.59-13.45V65.6
			c0-7.98,6.41-13.26,15.41-13.26c6.41,0,11.88,2.01,16.34,5.59l-5.03,7.29c-3.9-2.7-7.73-4.34-11.44-4.34s-5.66,1.7-5.66,3.84v0.13
			c0,2.89,1.88,3.83,9.49,5.78c8.93,2.33,13.96,5.53,13.96,13.2v0.13C282.44,92.7,275.78,97.6,266.29,97.6"/>
		<path class="st0" d="M130.2,10.19c3.59,5.92,2.85,14.94-1.48,20.27c-4.79,6.33-12.69,9.07-20.49,6.91
			c-7.09-1.85-12.87-8.62-13.52-15.95c-0.88-7.75,2.72-14.83,9.28-18.7c5.06-3.11,12.85-3.46,18.12-0.51
			C125.3,3.78,128.52,6.96,130.2,10.19 M113.96,1.07c0.07,0.71,0.07,1.7,0,2.51c0.02-0.12,0.14-0.12,0.21-0.18
			c0.25,0.09,0.25,0.39,0.18,0.6h-0.06c1.27-0.09,2.5,0.23,3.66,0.58c1.22,0.16,2.28,1.62,3.48,0.85c0.34,0.37,0.92,0.02,1.09,0.6
			c0.46,0.09,0.71,0.55,1.03,0.85c-0.03,0.42,0.35,0.62,0.5,0.94V7.77c0.4-0.72,1.04-1.36,1.75-1.73c-2.52-2.41-5.62-3.96-8.99-4.58
			C115.88,1.27,114.86,1.32,113.96,1.07 M101.14,6.08l2.09,1.99c2.61-2.54,5.97-3.99,9.66-4.12c-0.14-0.88-0.09-1.89-0.03-2.79
			C108.37,1.41,104.47,3.11,101.14,6.08 M127.23,1.74l1.36,1.36c1.38,2.12,3.31,4.22,5.21,5.56c-0.41-0.85-0.5-1.84-0.92-2.69
			C132.04,3.62,129.4,2.47,127.23,1.74 M99.53,2.01c-1.68,0.67-3.5,1.22-4.76,2.79c-0.97,1.27-1.27,2.79-1.77,4.24l1.49-1.27
			C96.76,6.2,97.34,3.63,99.53,2.01 M116.13,2.59l-1.27,0.56c-0.14,0.07-0.58-0.16-0.51,0.21c0.25,0.16,0.5,0.34,0.8,0.37
			c0.8-0.35,1.75,0.23,2.42-0.51C117.37,2.7,116.66,2.68,116.13,2.59 M132.37,4.22c1.88,1.23,1.75,3.51,2.42,5.37
			c0.18,0.78,0.66,1.49,0.71,2.26c-1.01-2.92-4.4-3.24-5.64-5.99l0.39,1.61c0.95,3.13,4.68,3.89,6.1,6.72
			c-0.44-2.05,0.34-4.19-0.28-6.21C135.56,6.25,134.12,4.73,132.37,4.22 M91.35,7.01c-1.43,2.1-0.27,5.02-0.68,7.51
			c0.52-1.02,1.51-2,2.37-2.72c2-1.29,3.79-3.34,3.85-5.64c-1.06,2.72-4.56,3.07-5.43,5.97h-0.09c1.29-2.41,0.57-5.8,3.02-7.58
			C93.12,4.92,92.02,5.88,91.35,7.01 M113.92,4.92c0.14,0.88,0.09,1.95,0.04,2.81c2.25,0.03,4.36,0.73,6.11,2.03
			c-0.16-0.09-0.37-0.44-0.34-0.67h0.07c0.04-0.31-0.44-0.45-0.28-0.77c0.43,0.03,0.74,0.62,0.97,0.94
			c1.22-0.02,0.51,1.43,1.44,1.87c0.21,0.11-0.07,0.55,0.26,0.51c0.28,0.23,0.63,0.48,0.58,0.85c0.11,0.63,0.62-0.19,0.9,0.21
			c0.25,0.2-0.18,0.31-0.12,0.55c0.16,0.07,0.3-0.16,0.42,0.04c0.05,0.21-0.11,0.3-0.21,0.42c-0.11,0.37,0.34,0.16,0.46,0.34
			c0.2,0.43,0.35,1.06,0.03,1.54c0.44,0.48-0.07,0.97-0.16,1.43c-0.32,0.31-0.37,1.01-0.97,0.85c-0.14,0.25,0.09,0.53-0.05,0.72
			l1.06,0.05c-0.6-0.85,0.18-1.66,0.42-2.42c0.12-0.06,0.28-0.32,0.39-0.06c-0.06,0.35-0.09,0.74-0.13,1.03
			c0.26,0.4,0.16,0.97,0.25,1.44l2.72-0.05c-0.19-1.8-0.57-3.53-1.33-5.09c-0.19,0.07-0.42,0.21-0.63,0.09
			c-0.3-0.41-0.55-0.9-0.97-1.24c-0.35,0-0.6-0.28-0.89-0.46c-0.62,0.02-0.39-0.88-0.99-0.76c-0.32-0.16-0.55-0.32-0.64-0.69
			c-0.02-0.42-0.05-0.95-0.46-1.27c-0.23-0.13-0.44,0.03-0.6,0.18c-0.34,0.21-0.48-0.16-0.46-0.43c-0.37-0.28,0.02-0.6-0.18-0.93
			c-0.53-0.42-0.28-1.22-1.01-1.57c-1.16-0.56-2.4-0.92-3.69-1.18C115.29,5.12,114.55,5.1,113.92,4.92 M122.01,4.92
			c-0.14,0.03-0.09,0.26-0.04,0.35c0.46,0.04,0.46,0.81,1.01,0.5l-0.12-0.55C122.73,4.87,122.25,5.05,122.01,4.92 M103.83,8.8
			c0.71,0.49,1.4,1.26,1.98,1.9c1.87-1.82,4.38-2.93,7.09-2.97c-0.05-0.88-0.05-1.84,0-2.73C109.46,5.28,106.39,6.52,103.83,8.8
			 M126.47,6.68l-1.85,2l-0.3,0.04c0.25,0,0.18,0.28,0.34,0.38c0.78,0.55,1.13,1.33,1.79,1.91c0.25,0.6,0.88,0.99,0.88,1.73
			c0.92,1.78,1.34,3.89,1.45,5.94c0.92-0.11,1.96-0.14,2.85-0.12l-0.09-0.09C131.35,13.87,129.47,9.94,126.47,6.68 M100.59,6.98
			l-0.09-0.27c-3.03,3.29-4.72,7.44-4.95,11.97l2.88,0.04c-0.11-0.92,0.14-1.81,0.25-2.71c0.62-2.67,1.77-5.19,3.82-7.18
			L100.59,6.98z M136.44,7.65c1.31,1.91,0.57,4.6,0.48,6.83c0.06,1.08,0.23,2.15,0.16,3.23c-0.16-0.42-0.2-0.88-0.3-1.32
			c-0.53-2.42-3.37-3.61-4.52-5.64c0.18,0.69,0.3,1.38,0.55,2.03c0.99,2.87,3.96,4.79,4.36,7.9c0.26-2.97,2.35-5.34,1.58-8.57
			C138.33,10.48,137.66,8.88,136.44,7.65 M90.32,8.04c-1.02,1.22-1.71,2.68-2.07,4.24c-0.69,3.25,1.27,5.76,1.69,8.73
			c0.57-3.73,4.49-6.08,4.7-9.97c-1.15,2.1-3.94,3.33-4.45,5.82c0,0.4-0.12,0.8-0.21,1.19l-0.09-0.09l0.14-1.61
			C90.52,13.46,88.84,10.49,90.32,8.04 M112.95,8.67l-0.09,0.07c-2.44,0.14-4.47,1.23-6.36,2.68c0.72,0.48,1.3,1.22,2,1.86
			c1.18-1.13,2.76-1.81,4.4-1.86C112.84,10.62,112.81,9.54,112.95,8.67 M113.96,8.71c0.14,0.83,0.1,1.8,0.05,2.67
			c1.65,0.12,3.4,0.8,4.58,1.87c0.62-0.64,1.31-1.49,2-1.87C118.64,9.84,116.47,8.88,113.96,8.71 M103.1,9.38v0.18
			c-2.25,2.56-3.5,5.65-3.73,9.12c0.92,0.02,1.93-0.04,2.8,0.04l-0.09-0.13c0.18-2.74,1.15-5.24,3.02-7.21
			C104.36,10.78,103.67,10.09,103.1,9.38 M121.17,12.01c-0.81,0.96-1.88,1.96-2.67,2.88c0.06,0.12,0.2,0.26,0.22,0.21
			c0.21-0.26,0.05-0.93,0.64-0.79c0.58,0.19,1.09,0.14,1.73,0.21c0.35,0.19,0.41,0.62,0.73,0.8c0.14,0.16-0.05,0.3-0.12,0.42
			c0.07,0.07,0.14,0.14,0.18,0.21c0.18-0.16,0.42-0.37,0.76-0.28c0.34,0.02,0.42,0.5,0.73,0.55c0.14,0.18-0.09,0.35-0.21,0.42
			c0.07,0.34-0.32,0.44-0.18,0.76c0.18,0.03,0.35-0.06,0.42-0.18c0.67-0.49,0.15-1.13,0.04-1.73c-0.27-0.55-0.83-0.65-1.27-1.06
			c0.02-0.18,0.13-0.37,0.27-0.46C122.39,13.2,121.59,12.67,121.17,12.01 M105.81,12.1c-0.6,0.74-1.19,1.56-1.61,2.42
			c-0.69,1.27-0.89,2.74-1.15,4.19l1.15-0.04c-0.19-0.23-0.16-0.55-0.16-0.85c0.27-0.57,0.37-1.57,1.22-1.52
			c0.41-0.09-0.02-0.41,0.3-0.57c0.6-0.09,0.76-0.65,1.27-0.92c0.48-0.06,0.58-0.73,1.06-0.78
			C107.08,13.48,106.53,12.77,105.81,12.1 M114.01,12.44l0.07,1.91l0.72,0.26c0.21-0.38,0.6-0.46,0.85-0.77
			c0.23-0.11,0.23,0.17,0.33,0.26c0.15,0.86-0.81,1.25-1.34,1.61h0.21c0.54-0.56,0.86,0.71,1.43,0.13c0.1-0.73,1.13-0.64,1.36-1.36
			c-0.18,0.18-0.26-0.02-0.42-0.07c0.05-0.25,0.38-0.4,0.54-0.56C116.63,13.13,115.37,12.65,114.01,12.44 M112.86,12.49
			c-1.48,0.21-2.88,0.76-3.94,1.91c0.35,0.07,0.7,0.21,0.97,0.46c0.09,0.18-0.16,0.2-0.18,0.3c0.23,0.34,0.25-0.07,0.48-0.13
			c0.21,0.22,0.4,0.37,0.7,0.22c0.16,0.26,0.41,0.01,0.6,0.04c0.07-0.22,0.37-0.39,0.25-0.64c0.1-0.2,0.16-0.51,0.42-0.51
			c-0.16,0.83,0.62,0,0.85,0.39C112.79,13.92,112.97,13.09,112.86,12.49 M139.41,14.52c0.49,2.86-1.24,5.02-1.94,7.51
			c-0.39,0.96-0.23,2.17-0.81,3.01c-0.03-0.48,0.23-0.94,0.26-1.45c0.45-3.2-2.33-5.09-2.97-7.79c-0.03,0.72,0.02,1.41,0.12,2.07
			c0.16,3.37,2.37,6.11,1.73,9.63c0.63-0.83,1.11-1.68,1.87-2.49C140.22,22.35,140.88,17.92,139.41,14.52 M87.62,14.9
			c-0.92,2.12-0.87,4.93-0.18,7.14c0.6,2.28,2.78,3.87,3.91,5.85c-0.2-0.83-0.16-1.87-0.04-2.72c0.74-2.95,1.91-5.8,1.73-9.07
			c-0.44,2.35-2.54,4.01-2.79,6.43c-0.16,0.99,0.09,1.96,0.21,2.85c-0.23-0.44-0.44-0.95-0.47-1.52
			C89.64,20.67,87.07,18.34,87.62,14.9 M112.81,16.01l0.05,0.04c0.05,0.26,0.25,0.67,0,0.85c-0.32,0.43-1.08,0.34-1.18,0.9
			c-0.83,0.25-0.51,1.27-0.78,1.91c-0.53,0.12-0.33-0.51-0.58-0.73l-0.12,0.16c-0.82-0.62-0.66,0.71-1.15,0.81
			c0.56,0.12,1.04-0.19,1.6-0.21c0.03,0.07,0.18,0.11,0.12,0.21h0.09c0.12-0.12,0.14-0.28,0.12-0.46c0.05-0.18,0.27-0.28,0.42-0.18
			c-0.05,0.18,0.07,0.32,0.21,0.39l-0.3,0.42c-0.16,0.18,0.03,0.65-0.37,0.64c-0.09,0.02-0.16-0.05-0.13-0.14h-0.09l0.21,0.39
			c0.25-0.02,0.19-0.46,0.51-0.51c0.28-0.07,0.32-0.41,0.28-0.67c0.37-0.32,0.83-0.12,1.24-0.18c0.1,0.11,0.35,0.14,0.3,0.34
			c0.16,0.32-0.11,0.67-0.3,0.94c0.09,0.18-0.13,0.32-0.13,0.51c-0.33,0.36-0.71,0.2-1.15,0.3c0.57,0.39,1.17,0.64,1.91,0.58
			c0.71,0.06,0.37-0.85,0.88-1.13c0.3-0.04,0.57,0.04,0.9-0.06c0.15-0.26,0.16-0.58,0.22-0.88c-0.3-0.15-0.2-0.45-0.22-0.7
			c-0.18-0.21-0.16-0.6-0.51-0.63c-0.07-0.2,0.14-0.29,0.12-0.46c0.53-0.2-0.28-0.51,0.06-0.82c-0.6-0.11-0.74-1.06-1.49-0.76
			c-0.18-0.25-0.63-0.36-0.63-0.73c0.05-0.26,0.65-0.16,0.58-0.12c-0.03-0.06-0.1-0.09-0.09-0.16
			C113.21,15.87,112.95,15.88,112.81,16.01 M105.26,18.29c-0.66,0.21,0,0.83-0.03,1.23c-0.07,0.34-0.41,0.07-0.6,0.21
			c0.09,0.55-0.37,0.66-0.76,0.76c-0.13,0.37,0.28,0.55,0.09,0.9c0.48,0.48,0.85,1.06,0.76,1.73c0.34,0.47,0.25,1.2,0.34,1.82
			c0.28,0.28,0.44,0.7,0.42,1.15c0.02,0.23-0.23,0.3-0.37,0.39c-0.18,0.21,0.12,0.1,0.12,0.28l2.37-2.45
			c-0.83-0.95-1.48-2.23-1.73-3.55l-0.3-0.18c-0.05,0.34-0.03,0.82-0.34,0.94c-0.16-0.14-0.48-0.21-0.48-0.51
			c0.09-0.19,0.25-0.07,0.39-0.09c-0.02-0.16,0.01-0.32,0.03-0.46c0.05-0.19-0.28-0.33-0.03-0.51c0.21-0.02,0.3,0.23,0.46,0.34
			l0.42-0.22c-0.12-0.41,0.1-1.04-0.04-1.48C105.93,18.23,105.54,18.31,105.26,18.29 M122.65,18.64h0.21H122.65z M122.35,19.52
			l0.48,0.55c-0.01,0.62,0.83,0.81,0.89,1.45c0.18-0.59,0.16-1.23,0.34-1.82C123.5,19.65,122.81,19.83,122.35,19.52 M128.68,19.56
			l0.09,0.18c-0.16,3.73-1.7,7.14-4.08,9.67c0.67,0.6,1.43,1.38,2.05,2.03c2.35-2.7,3.96-5.74,4.52-9.19
			c0.19-0.88,0.14-1.84,0.39-2.69c-0.86,0.25-1.89,0.09-2.85,0.14L128.68,19.56z M125.04,19.61c0.1,0.36-0.11,0.69-0.09,1.06
			c-0.37,0.61,0.48,0.77,0.24,1.36c-0.16,0.13-0.32,0.11-0.51,0.04c-0.44,1.74-1.31,3.32-2.55,4.7h-0.12
			c0.32,0.19,0.55,0.63,0.9,0.72v-0.25c0.07-0.06,0.11-0.18,0.21-0.12c0.69,0.21,0.74,1.16,0.8,1.61c1.8-1.89,2.92-4.14,3.48-6.58
			c0.2-0.82,0.09-1.81,0.43-2.51C126.91,19.7,125.91,19.76,125.04,19.61 M103.02,19.65c0.19,0.64,0.41,1.33,0.25,2.04
			c0-0.32,0.69-0.64,0.14-0.92c0.21-0.32,0.05-0.99,0.46-1.03C103.54,19.81,103.3,19.81,103.02,19.65 M95.59,19.74
			c0.19,4.51,1.86,8.45,4.79,11.79c0.65-0.69,1.38-1.47,2.08-2.03c-0.35-0.23-0.58-0.64-0.93-0.93c-0.45-0.09-0.74-0.52-0.85-0.89
			c0.02,0.05-0.05,0.09-0.09,0.12c-0.41,0.2-0.53-0.3-0.79-0.45c-0.25-0.13-0.05-0.69-0.48-0.48c-0.25-0.41-0.7-0.37-0.88-0.85
			l-0.18,0.29c-0.32-0.02-0.55-0.41-0.72-0.6c-0.66,0.19-0.39-0.71-0.76-1.01c-0.14-0.56,0.03-1.09,0.34-1.53
			c0.19-0.18,0.57-0.04,0.64,0.09c0.34,0.12,0.12-0.27,0.3-0.34c0.48-0.41,0.71,0.16,0.97,0.46c-0.39-1.13-0.63-2.46-0.58-3.68
			C97.54,19.83,96.51,19.79,95.59,19.74 M99.32,19.7l0.09,0.12c0.09,1.27,0.44,2.51,0.55,3.73c0.16-0.11,0.05-0.39,0.26-0.39
			c0.07-0.6,0.16-1.29,0.55-1.82c0.57-0.02,0.58-0.78,1.19-0.72c0.14,0.11,0.34,0.25,0.38,0.42c-0.3-0.35-0.31-0.92-0.17-1.34
			C101.28,19.83,100.22,19.83,99.32,19.7 M107.01,20.83l0.16,0.26c0.21,0.88,0.74,1.63,1.19,2.42l0.81-0.85
			c-0.02-0.1,0.04-0.23-0.04-0.3c-0.16-0.21-0.05-0.6-0.26-0.73c-0.07,0.2,0.16,0.3,0.05,0.46c-0.26-0.11-0.55-0.23-0.69-0.55
			c0.05-0.41-0.25-0.11-0.46-0.3C107.75,20.82,107.2,21.1,107.01,20.83 M109.98,21.56c-0.05,0.25-0.25,0.44-0.39,0.64
			c0.25-0.1,0.39-0.48,0.67-0.46L109.98,21.56z M134.37,21.89c-1.68,3.62-0.46,8.43-2.51,11.88l0.34-0.29
			c3.98-2.17,8.77-5.83,7.97-11.17c-0.07,0.73-0.3,1.38-0.64,2c-1.55,2.42-4.2,4.4-5.52,6.91c-0.03,0.09-0.16,0.15-0.21,0.06
			l0.26-0.34C135.94,28.24,134.26,24.92,134.37,21.89 M117.52,22.2c-0.38,0.55,0.37,0.51,0.42,0.97c0.09,0,0.19,0.03,0.25-0.04
			c-0.05-0.2-0.03-0.41-0.21-0.55C117.68,22.58,117.68,22.2,117.52,22.2 M92.74,22.25c0.21,1.17-0.16,2.19-0.34,3.25
			c-0.6,2.03-0.3,4.42,0.89,6.08c-0.39-0.19-0.64-0.65-0.89-1.06c-1.47-2.81-5.16-4.4-5.48-7.78c-0.01,1.22-0.01,2.51,0.35,3.6
			c1.02,3.78,5.19,5.73,8.01,7.63C93.3,30.54,94.35,25.85,92.74,22.25 M122.23,22.41c-0.51-0.39-0.41,0.35-0.85,0.3
			c-0.16-0.04-0.2-0.23-0.22-0.39c-0.03,0.41-0.35,0.71-0.58,1.03c-0.81-0.23-0.6,0.92-1.41,0.67c0.1,0.32,0.46-0.05,0.63,0.06
			c0.15-0.07,0.11-0.21,0.18-0.3c0.09-0.34,0.5-0.46,0.81-0.34c0.18,0.28,0.23,0.64,0.22,0.97c-0.19,0.14-0.19,0.37-0.18,0.6
			c-0.25,0.4-0.14,1.27-0.88,1.18c-0.78-0.29-1.63-0.5-2.48-0.51v0.18c0.57,0.21,1.2,0.21,1.66,0.64c0.5-0.06,1.12,0.07,1.49-0.21
			c0.06-0.35,0.2-0.67,0.43-0.94c0.31,0.03,0.25,0.46,0.39,0.68c0.93-1.19,1.75-2.32,2.07-3.77
			C123.04,22.22,122.7,22.48,122.23,22.41 M110.86,22.37l-1.7,1.91c0.97,0.74,2.1,1.32,3.36,1.52c-0.02-0.34-0.02-0.67,0.15-0.94
			c0.18-0.11,0.44,0.05,0.6-0.13c-0.02-0.16-0.12-0.16-0.21-0.3c-0.1-0.24,0-0.47,0.03-0.63c0.07-0.12-0.14-0.41,0.09-0.5
			c-0.55,0.26-1.04-0.1-1.52-0.26C111.41,22.83,110.94,22.78,110.86,22.37 M116.34,24.28c0.21-0.29,0.67-0.23,0.76-0.55
			C116.71,23.66,116.29,23.94,116.34,24.28 M117.35,24.7c-0.19,0.11-0.35,0.11-0.46,0.34c-0.23,0.3-0.52-0.02-0.73-0.13
			c0.07,0.09,0.23,0.3,0.03,0.42c-0.23,0.25-0.44-0.11-0.67-0.18c-0.13,0.77-0.41-0.21-0.81-0.03c-0.18-0.44-0.48,0.09-0.76,0.03
			c-0.21,0.18-0.23,0.69-0.64,0.64c-0.09,0.25-0.43,0.16-0.46,0.34c0.19,0.23,0.46,0.12,0.67,0.09c0.34-0.3,0.76-0.1,1.15-0.16
			c-0.03,0.64,0.71,0.16,0.94,0.55c0.26-0.02,0.26-0.29,0.37-0.48c0.55-0.09,1.12-0.42,1.42-0.85
			C117.47,25.13,117.58,24.79,117.35,24.7 M108.32,25c-0.57,0.69-1.24,1.34-1.91,1.91h0.12c1.56,1.34,3.52,2.28,5.36,2.58
			c-0.67-0.09-0.94-0.74-1.24-1.24c-0.18-0.41,0.44-0.49,0.34-0.92c0.23-0.37,0.58-0.59,1.03-0.64c-0.21,0.03-0.43,0.07-0.64,0.12
			C110.26,26.46,109.13,25.96,108.32,25 M132.68,27.25l-1.49,1.94c-2,2.76-1.77,6.52-4.55,8.87c1.43-0.46,3.01-0.66,4.49-0.97
			c3.34-0.85,6.86-4.14,7.33-7.57c-0.6,1.43-1.85,2.49-3.13,3.33c-2.19,1.02-4.42,2.19-6.28,3.81h-0.21l0.13-0.17
			C132.18,34.37,131.31,30.27,132.68,27.25 M121.34,27.46v0.03c-1.32,0.94,0.64,0.98,0.67,1.78c-0.19,0.39-0.9,0.78-0.46,1.24
			c0.14,0.16-0.07,0.29-0.12,0.43l1.82-1.54c-0.23,0.16-0.52,0.06-0.64-0.16C122.64,28.45,121.68,28.1,121.34,27.46 M94.44,27.55
			l0.51,1.31c0.49,2.93,0.73,6.17,3.4,8.02l-0.04,0.04c-0.87-0.37-1.52-1.1-2.3-1.58c-2.51-1.62-5.97-2.35-7.39-5.46
			c0.38,2.28,1.94,4.31,3.82,5.73c2.25,1.98,5.38,1.82,8.11,2.62c-1.01-0.78-1.58-1.66-2.03-2.76
			C97.52,32.69,96.64,29.8,94.44,27.55 M106.32,28.14l0.21,0.26L106.32,28.14z M106.62,28.47c0,0.3,0.41,0.32,0.25,0.69
			c-0.6,0.37-1.32,0.11-1.91,0.55c-0.53,0.28-0.97-0.34-1.28-0.3c2.58,2.23,5.61,3.71,9.09,3.87l0.22,0.12
			c-0.15-0.85-0.09-1.84-0.04-2.72C110.58,30.82,108.44,29.83,106.62,28.47 M123.98,30.04c-0.39,0.53-0.92,1.03-1.49,1.36
			c-1.84,0.64-2.01,2.69-3.82,3.36c-0.71,0.28-1.11-0.64-1.75-0.78c-0.96,0.16-1.95,0.42-2.92,0.26v2.97l0.13-0.09
			c4.55-0.2,8.68-2,11.88-5C125.28,31.44,124.51,30.73,123.98,30.04 M103.1,30.22l-1.96,2.03c3.36,3,7.37,4.63,11.88,4.91
			l-0.12-0.21c0.04-0.89-0.07-1.82,0.09-2.67l-0.04,0.06C109.18,34.23,105.75,32.84,103.1,30.22 M113.87,30.85l0.18,0.3l-0.04,2.24
			c0.66-0.25,1.55-0.23,2.16-0.34c-0.35-0.35-0.88-0.32-1.03-0.85c-0.25-0.36,0.1-0.73,0.09-1.03
			C114.8,31,114.16,31.25,113.87,30.85 M128.89,32.97c-2.03,1.33-3.78,3.59-5.63,5.04c-1.03,0.78-2.25,1.01-3.45,1.36
			c2.65,0.19,4.86,1.45,7.64,1.27c2.97-0.13,5.69-1.86,7.09-4.49c-2.05,2.44-5.34,2.3-8.36,2.58c-1.01,0.12-2,0.42-3,0.42
			c0.03-0.03,0.07-0.1,0.12-0.09C126.59,38.79,127.53,35.2,128.89,32.97 M98.23,33.19c1.36,1.59,1.42,3.69,3.31,5
			c0.72,0.64,1.7,0.77,2.51,1.1c-0.9,0.09-1.73-0.28-2.64-0.33c-3.04-0.37-6.52,0.02-8.75-2.46c1.01,1.77,2.79,3.31,4.67,3.9
			c3.53,1.34,6.73-0.63,10.11-0.93C103.51,39.29,101.39,35.01,98.23,33.19 M123.68,41.46c-3.02-1.38-6.52-2.91-10.06-1.61
			c-1.78-0.58-4.12-0.58-5.9,0c-3.11,1.42-7.36,3.55-10.64,1.18c0.62,0.74,1.29,1.1,1.99,1.61c2.13,1.38,5.18,1.24,7.37,0.12
			c2.02-0.85,3.56-3.38,6.12-2.58c-2.17,1.09-4.17,2.4-5.98,4.28l1.09,0.93c1.59-2.1,3.73-3.85,6.03-4.88
			c2.23,1.08,4.26,2.94,5.94,4.79l1.1-0.94c-1.76-1.71-3.81-3.09-5.94-4.19c0.55-0.15,1.22-0.11,1.78-0.06
			c2.3,1.01,4.07,3.02,6.67,3.33c2.76,0.44,5.21-0.67,6.91-2.69l-1.31,0.69C127.31,42.15,125.25,41.97,123.68,41.46"/>
		<path class="st0" d="M341.61,13.99c5.84-0.25,11.37-1.05,16.38-2.26V0.29h-16.38V13.99z"/>
		<path class="st0" d="M374.58,13.26c-2.89,1.46-6.1,2.73-9.52,3.81v12.65c5.4-3.97,9.9-9.08,13.19-14.96v-3.59
			C377.08,11.9,375.87,12.61,374.58,13.26"/>
		<path class="st0" d="M358,34.03c0-0.01,0-0.03,0-0.04v-15c-5.12,1.12-10.62,1.81-16.38,2.06v17.6
			C347.44,38.1,352.98,36.5,358,34.03"/>
		<path class="st0" d="M365.06,0.29v9.33c5.44-1.94,9.96-4.39,13.19-7.1V0.29H365.06z"/>
		<path class="st1" d="M333.07,0.29h-17.11v11.27c5.21,1.3,11,2.15,17.11,2.42V0.29z"/>
		<path class="st1" d="M308.89,9.38V0.29h-12.42v2.23c1.87,1.58,4.17,3.08,6.84,4.44C305.02,7.83,306.89,8.64,308.89,9.38"/>
		<path class="st1" d="M333.07,21.03c-6.02-0.26-11.78-1-17.11-2.21v14.87c5.22,2.68,11,4.4,17.11,4.96V21.03z"/>
		<path class="st1" d="M308.89,29.2V16.88c-4.65-1.53-8.82-3.45-12.42-5.71v3.67C299.6,20.44,303.83,25.32,308.89,29.2"/>
		<path class="st1" d="M315.89,83.21v-7.98h17.18v-1.71v-6.26h-17.19v-7.98h17.19V45.75c-14.61-1.14-27.58-8.11-36.61-18.59v69.89
			h36.61V83.21H315.89z"/>
		<path class="st0" d="M341.61,45.75v13.53h16.47v7.98h-16.47v6.26v1.71h16.47v7.98h-16.47v13.85h36.64V27.12
			C369.22,37.62,356.24,44.6,341.61,45.75"/>
	</g>
</g>
</svg>
