<?xml version="1.0" encoding="utf-8"?>
<!-- Generator: Adobe Illustrator 26.3.1, SVG Export Plug-In . SVG Version: 6.00 Build 0)  -->
<svg version="1.1" id="Capa_1" xmlns="http://www.w3.org/2000/svg" xmlns:xlink="http://www.w3.org/1999/xlink" x="0px" y="0px"
	 viewBox="0 0 386.29 113.17" style="enable-background:new 0 0 386.29 113.17;" xml:space="preserve">
<style type="text/css">
	.st0{fill:#FFD600;}
	.st1{fill:#005695;}
</style>
<g>
	<rect y="0.35" class="st0" width="158.13" height="98.2"/>
	<path class="st1" d="M190.03,0c0.45,0.24,0.88,0.54,1.35,0.73c3.36,1.32,5.19,4.06,5.18,7.86c-0.36,0.13-0.73,0.3-1.11,0.4
		c-2.32,0.64-2.32,0.63-3.13-1.57c-1.18-3.19-4.69-4.32-7.52-2.41c-2.37,1.6-2.18,4.91,0.52,6.36c1.85,1,3.89,1.67,5.84,2.48
		c0.6,0.25,1.2,0.48,1.79,0.75c3.06,1.42,4.84,3.76,4.74,7.2c-0.11,3.63-2.23,6.34-5.71,7.49c-3.54,1.17-7.01,0.97-10.17-1.11
		c-2.58-1.7-3.85-4.19-3.76-7.49c1.16-0.27,2.28-0.53,3.51-0.82c0.19,0.54,0.37,1.01,0.52,1.49c1.24,3.94,4.67,5.61,8.49,4.11
		c1.54-0.6,2.57-1.7,2.7-3.4c0.12-1.63-0.61-2.91-2.09-3.58c-2.62-1.2-5.34-2.19-7.94-3.42c-3.89-1.84-5.3-5.11-4.06-9.2
		c0.75-2.48,2.48-4.08,4.84-5.05c0.7-0.29,1.41-0.56,2.12-0.83C187.43,0,188.73,0,190.03,0z"/>
	<path class="st1" d="M321.76,103.98c2.12-0.55,3.81-1.07,5.53-1.39c0.46-0.08,1.16,0.33,1.52,0.72c2.19,2.36,4.88,3.43,8.07,3.26
		c3.68-0.2,6.17-2.37,6.78-6c0.23-1.38,0.26-2.79,0.4-4.54c-0.73,0.31-1.19,0.39-1.5,0.65c-5.39,4.64-16.43,2.85-20.08-5.63
		c-2.89-6.73-2.86-13.56,0.71-20.07c3.51-6.41,13.12-9.35,19.56-4.09c0.27,0.22,0.57,0.41,1.09,0.78c0.23-1.09,0.42-2.02,0.64-3.05
		c2.01,0,4.05,0,6.29,0c0.03,0.62,0.08,1.25,0.08,1.87c0.01,10.67,0.01,21.35,0,32.02c-0.01,6.32-3.22,11.34-8.56,13.41
		c-6.42,2.49-13.61,1.19-17.65-3.38C323.53,107.26,322.79,105.63,321.76,103.98z M343.87,82.42c0.07,0,0.15-0.01,0.22-0.01
		c-0.14-1.34-0.22-2.68-0.44-4.01c-0.16-0.92-0.43-1.83-0.79-2.69c-1.39-3.31-4.54-5.27-7.95-5c-3.29,0.25-5.99,2.45-6.61,6.09
		c-0.48,2.84-0.63,5.85-0.29,8.71c0.56,4.59,3.52,7.14,7.54,7.18c4.36,0.05,7.47-2.56,8.3-7.1
		C344.03,84.57,343.87,83.48,343.87,82.42z"/>
	<path class="st1" d="M201.61,65.79c-0.96-2.22-1.53-4.31-2.68-6.01c-1.98-2.91-5.05-3.18-8.24-2.47c-2.95,0.65-4.69,2.54-5.13,5.36
		c-0.38,2.42,0.85,4.78,3.6,6.09c3.02,1.44,6.22,2.52,9.27,3.9c2.24,1.02,4.52,2.06,6.51,3.47c6.34,4.52,5.49,15.94-1.53,20.34
		c-6.46,4.05-16.1,3.56-21.85-1.39c-3.05-2.63-4.51-6.13-4.58-10.15c-0.01-0.44,0.65-1.16,1.13-1.3c1.57-0.47,3.2-0.73,4.96-1.1
		c0.3,1.1,0.54,2.17,0.88,3.21c2.08,6.26,9.62,8.84,15.18,5.22c3.66-2.39,3.8-7.83,0.02-10.08c-2.66-1.58-5.66-2.58-8.51-3.82
		c-1.89-0.82-3.8-1.58-5.67-2.43c-9.18-4.17-7.69-15.8-2.83-20.27c5.78-5.32,16.31-5.45,21.63-0.05c2.58,2.63,3.48,5.93,3.81,9.45
		c0.02,0.27-0.37,0.77-0.65,0.84C205.09,65.05,203.26,65.43,201.61,65.79z"/>
	<path class="st1" d="M271.36,90c-1.85,4.87-5.19,7.77-10.07,8.69c-5.94,1.12-11.42,0.3-15.64-4.57c-2.59-3-3.4-6.68-3.7-10.47
		c-0.29-3.6,0.11-7.18,1.52-10.56c2.78-6.69,8.59-9.24,14.69-8.86c7.32,0.45,12.25,4.94,13.63,11.93c0.28,1.43,0.37,2.91,0.48,4.38
		c0.07,0.99,0.01,1.99,0.01,3.23c-7.73,0-15.31,0-22.86,0c-0.8,6.14,4.93,10.5,10.86,8.38c1.54-0.55,2.94-1.68,4.22-2.75
		c0.77-0.64,1.33-0.94,2.32-0.6C268.26,89.27,269.76,89.58,271.36,90z M249.47,78.22c5.1,0,10.2,0,15.29,0
		c0.04-4.14-3.08-7.4-7.09-7.51C253.33,70.59,249.7,73.88,249.47,78.22z"/>
	<path class="st1" d="M386.29,83.86c-8.15,0-15.74,0-23.32,0c-0.17,3.66,1.65,6.91,4.44,8.15c3.27,1.45,7.75,0.63,10.25-2.17
		c1.05-1.17,1.94-1.45,3.34-0.93c1.2,0.44,2.47,0.71,3.85,1.08c-0.73,2.63-2.26,4.56-4.28,6.14c-6.47,5.09-17.43,3.65-22.01-2.89
		c-4.08-5.83-4.13-17.22,0.03-23c3.89-5.42,9.4-6.87,15.64-5.65c5.99,1.17,9.58,5.12,10.96,10.93
		C385.82,78.12,385.91,80.83,386.29,83.86z M378.38,78.21c-0.17-4.44-3.26-7.51-7.41-7.51c-4.2,0-7.82,3.4-7.9,7.51
		C368.13,78.21,373.18,78.21,378.38,78.21z"/>
	<path class="st1" d="M210.42,64.52c2.22,0,4.27-0.08,6.31,0.06c0.45,0.03,1.02,0.82,1.22,1.37c2.4,6.93,4.74,13.89,7.11,20.84
		c0.22,0.64,0.5,1.25,1.16,1.85c1.21-3.54,2.42-7.08,3.63-10.63c1.36-4,2.75-8,4.05-12.03c0.37-1.14,0.92-1.59,2.15-1.51
		c1.75,0.11,3.51,0.03,5.41,0.03c-0.14,0.58-0.21,0.98-0.34,1.35c-3.73,10.52-7.47,21.03-11.18,31.56c-0.35,1-0.88,1.39-1.94,1.33
		c-1.76-0.1-3.91,0.49-5.19-0.31c-1.16-0.73-1.43-2.93-2-4.51c-3.33-9.29-6.64-18.58-9.95-27.88
		C210.7,65.61,210.6,65.17,210.42,64.52z"/>
	<path class="st1" d="M312.29,64.61c0,9.3,0,18.46,0,27.78c2.28,0,4.38,0,6.77,0c0,1.96,0.05,3.75-0.05,5.55
		c-0.02,0.28-0.7,0.75-1.09,0.76c-6.08,0.05-12.15,0.05-18.23-0.01c-0.4,0-1.09-0.68-1.12-1.08c-0.13-1.63-0.05-3.27-0.05-5.12
		c2.31,0,4.46,0,6.73,0c0-7.19,0-14.17,0-21.37c-2.11,0-4.25,0-6.57,0c0-2.28,0-4.34,0-6.5C303.17,64.61,307.57,64.61,312.29,64.61z
		"/>
	<path class="st1" d="M277.09,64.86c2.14,0,4.17,0,6.31,0c0.08,1.14,0.16,2.18,0.26,3.58c3.45-2.64,6.72-5.44,11.46-3.67
		c0,2.32,0,4.7,0,7.15c-1.43-0.13-2.83-0.46-4.2-0.36c-3.99,0.29-6.99,3.72-7.02,7.92c-0.04,5.65-0.01,11.31-0.01,16.96
		c0,0.64,0,1.29,0,2.11c-2.27,0-4.47,0-6.8,0C277.09,87.4,277.09,76.24,277.09,64.86z"/>
	<path class="st1" d="M224.01,20.57c0.74,5.14,4.94,7.24,8.44,4.31c1.83-1.53,3.18-0.98,4.85-0.49c-0.21,2.59-3.49,5.32-7.51,5.56
		c-5.59,0.34-9.58-3.07-9.9-8.67c-0.12-2.13-0.04-4.36,0.48-6.41c1.01-3.98,4.61-6.38,8.77-6.27c4.22,0.11,7.66,2.77,8.58,6.81
		c0.35,1.57,0.38,3.21,0.6,5.14C233.38,20.57,228.77,20.57,224.01,20.57z M233.63,17.2c-0.64-3.41-2.33-4.81-5.19-4.55
		c-2.28,0.21-4.02,2.16-4,4.55C227.46,17.2,230.48,17.2,233.63,17.2z"/>
	<path class="st1" d="M290.25,29.75c-1.59-0.5-3.33,0.86-4.32-1.2c-1.32,0.43-2.62,1.05-3.99,1.26c-2.8,0.44-5.47,0.01-7.35-2.35
		c-1.57-1.97-1.6-4.26-0.5-6.47c1.31-2.66,3.86-3.24,6.5-3.54c1.4-0.16,2.81-0.3,4.22-0.32c1.19-0.02,1.35-0.54,1.16-1.57
		c-0.52-2.83-3.74-4.13-6.58-2.26c-1.72,1.14-3.08,0.83-5.01,0.01c0.64-0.85,1.15-1.73,1.85-2.41c3.21-3.09,9.15-3.14,11.97,0.14
		c1.07,1.24,1.84,3.1,1.96,4.74c0.28,3.92,0.1,7.88,0.1,11.83C290.25,28.18,290.25,28.76,290.25,29.75z M281.12,26.29
		c1.32-0.55,2.71-0.97,3.94-1.67c1.43-0.81,0.86-2.33,0.7-3.52c-0.03-0.27-1.43-0.47-2.21-0.51c-0.87-0.05-1.75,0.14-2.63,0.2
		c-2.1,0.16-3.35,1.26-3.3,2.92C277.68,25.22,278.78,25.97,281.12,26.29z"/>
	<path class="st1" d="M200.42,9.01c1.36,0,2.58,0,4.03,0c0,3.16,0,6.26,0,9.36c0,1.3-0.04,2.6,0.05,3.89
		c0.14,1.99,1.22,3.36,2.76,3.67c1.92,0.39,3.8-0.32,4.67-2.05c0.51-1.01,0.82-2.22,0.85-3.35c0.11-3.65,0.05-7.3,0.06-10.95
		c0-0.11,0.04-0.23,0.1-0.5c1.22,0,2.47,0,3.84,0c0,6.75,0,13.5,0,20.52c-1.42-0.24-3.13,0.96-3.92-0.71c-2.36,0.3-4.61,1-6.75,0.75
		c-3.19-0.37-5.48-2.96-5.62-6.14C200.27,18.75,200.42,13.98,200.42,9.01z"/>
	<path class="st1" d="M257.52,13.83c-1.99,0.87-3.39,1.4-5.13-0.3c-2.13-2.09-5.75-1.08-6.95,1.66c-1.19,2.7-1.2,5.51,0,8.22
		c1.21,2.74,4.69,3.52,7,1.7c2.04-1.61,2.04-1.61,4.7-0.68c-0.09,3.11-3.65,5.39-6.88,5.54c-5.46,0.25-9.35-3.29-9.71-9.18
		c-0.12-2.07,0.14-4.26,0.72-6.25c1.05-3.59,3.8-5.45,7.44-5.84c2.94-0.32,5.64,0.38,7.55,2.88
		C256.73,12.22,257.05,12.98,257.52,13.83z"/>
	<path class="st1" d="M267.52,25.91c1.57,0,2.84,0,4.21,0c0,1.28,0,2.37,0,3.61c-4.08,0-8.17,0-12.35,0c0-1.15,0-2.25,0-3.52
		c1.29,0,2.56,0,3.99,0c0-4.48,0-8.8,0-13.28c-1.28,0-2.55,0-3.96,0c0-1.31,0-2.44,0-3.68c2.67,0,5.3,0,8.11,0
		C267.52,14.58,267.52,20.09,267.52,25.91z"/>
	<path class="st1" d="M313.41,55.13c-0.03,2.75-2.2,4.97-4.77,4.86c-2.56-0.11-4.47-2.26-4.45-5.01c0.02-2.8,2.16-5.06,4.69-4.96
		C311.53,50.13,313.44,52.29,313.41,55.13z"/>
	<path class="st1" d="M268.31,3.23c-0.02,1.58-1.22,2.73-2.83,2.7c-1.52-0.03-2.66-1.17-2.68-2.67c-0.02-1.57,1.2-2.83,2.74-2.83
		C267.09,0.43,268.33,1.68,268.31,3.23z"/>
	<rect y="0.35" class="st1" width="49.5" height="39.32"/>
	<rect y="59.23" class="st1" width="49.5" height="39.32"/>
	<rect x="69.73" y="0.35" class="st1" width="89.12" height="39.32"/>
	<rect x="69.01" y="59.23" class="st1" width="89.12" height="39.32"/>
</g>
</svg>
