<?xml version="1.0" encoding="utf-8"?>
<!-- Generator: Adobe Illustrator 24.3.0, SVG Export Plug-In . SVG Version: 6.00 Build 0)  -->
<svg version="1.1"
	 id="Capa_1" xmlns:cc="http://creativecommons.org/ns#" xmlns:dc="http://purl.org/dc/elements/1.1/" xmlns:inkscape="http://www.inkscape.org/namespaces/inkscape" xmlns:rdf="http://www.w3.org/1999/02/22-rdf-syntax-ns#" xmlns:sodipodi="http://sodipodi.sourceforge.net/DTD/sodipodi-0.dtd" xmlns:svg="http://www.w3.org/2000/svg"
	 xmlns="http://www.w3.org/2000/svg" xmlns:xlink="http://www.w3.org/1999/xlink" x="0px" y="0px" viewBox="0 0 275 182"
	 style="enable-background:new 0 0 275 182;" xml:space="preserve">
<style type="text/css">
	.st0{fill:#FFFFFF;fill-opacity:0.9686;}
	.st1{fill:#33508D;fill-opacity:0.9686;}
</style>
<sodipodi:namedview  bordercolor="#666666" borderopacity="1" gridtolerance="10" guidetolerance="10" id="namedview230" inkscape:current-layer="Capa_1" inkscape:cx="144.95627" inkscape:cy="92.537162" inkscape:pageopacity="0" inkscape:pageshadow="2" inkscape:window-height="878" inkscape:window-maximized="0" inkscape:window-width="1600" inkscape:window-x="0" inkscape:window-y="0" inkscape:zoom="1.1476306" objecttolerance="10" pagecolor="#ffffff" showgrid="false">
	</sodipodi:namedview>
<g id="g1130" transform="translate(32.625671,0.20743561)">
	<circle id="circle219" class="st0" cx="104.9" cy="90.8" r="90"/>
	<g id="g227" transform="matrix(1.1429918,0,0,1.1429918,-12.282331,-11.048948)">
		<g id="g225">
			<path id="path221" class="st1" d="M102.5,110.1c-13.3,0-26.6,0-39.9,0c-1.4,0-2.9-0.1-4.1-0.7c-2.3-1.1-3.3-3-3.3-5.7
				c0.1-19.4,0.1-38.9,0.1-58.3c0-3.9,2.3-6.2,6.2-6.2c27.2,0,54.4,0,81.6,0.1c4.6,0,6.7,2.3,6.7,6.9c0,14.1,0,28.2,0,42.3
				c0,4.9,0,9.9,0,14.8c0,4.3-2.3,6.7-6.7,6.7C129.5,110,116,110,102.5,110.1C102.5,110,102.5,110,102.5,110.1z M115.8,64.4
				L115.8,64.4c2.7,0,5.5,0,8.2,0c3.2,0,6.5,0,9.7-0.1c2-0.1,3.6-1.8,3.7-3.7c0.1-1.8-1.4-3.5-3.3-3.8c-0.8-0.1-1.6-0.2-2.4-0.2
				c-10.3,0-20.7,0-31,0c-1,0-2.1,0-3.1,0.2c-2.1,0.3-3.6,2.1-3.5,3.9c0.1,1.9,1.7,3.5,3.8,3.7c1,0.1,1.9,0.1,2.9,0.1
				C105.8,64.4,110.8,64.4,115.8,64.4z M115.8,79.1c5.8,0,11.7,0,17.5,0c2.3,0,4-1.5,4.1-3.5c0.2-1.8-1.3-3.5-3.4-4
				c-0.8-0.2-1.6-0.3-2.4-0.3c-1.8,0-3.7,0.1-5.5,0.1c-9.2,0-18.4,0-27.7,0.1c-2.5,0-4.4,1.8-4.4,3.8c0,2.1,2,3.8,4.5,3.8
				C104.3,79.1,110.1,79.1,115.8,79.1L115.8,79.1z M109.6,94c3.7,0,7.4,0,11.1,0c3,0,4.9-1.5,5-3.9c0-2.3-1.7-3.8-4.8-3.9
				c-7.5-0.1-14.9,0-22.4,0c-2.4,0-4.4,1.8-4.4,3.8c0,2.1,1.9,3.9,4.5,4C102.2,94.1,105.9,94,109.6,94z M74.2,71
				c4.2-0.1,7.7-3.5,7.8-7.5c0-3.8-4-7.9-7.6-7.8c-4.1,0.1-7.8,4.1-7.8,8.2C66.5,67.4,70.4,71,74.2,71z M81.9,87
				c0-3.8-3.7-7.4-7.6-7.5c-3.6-0.1-7.8,4.1-7.8,7.8c0.1,3.8,3.9,7.5,7.9,7.6C78.2,95,81.8,91.1,81.9,87z"/>
			<path id="path223" class="st1" d="M106.6,144.6c0,1.3,0,2.4,0,3.5c-0.1,3-1.7,4.9-4.3,4.9c-2.2,0-4.1-2.2-4.1-4.9
				c0-2.1,0.1-4.1,0-6.2c-0.1-0.8-0.7-1.6-1-2.4c-0.8,0.4-1.6,0.8-2.2,1.4c-3,3-5.9,6.2-9,9.1c-2.1,2-4.7,2-6.3,0.3
				c-1.6-1.7-1.4-4.5,0.7-6.6c4.3-4.3,8.7-8.7,13-13c0.9-0.9,1.7-1.8,2.7-2.6c1.7-1.4,2.6-3.2,2.3-5.4c0-0.4,0-0.7,0-1.1
				c0.3-2.2,2.3-4.2,4.2-4.1c2.2,0.1,4.3,2.1,4,4.5c-0.3,2.9,1,4.7,2.9,6.6c5.1,5,10.2,10.1,15.1,15.3c0.9,1,1.9,2.4,1.9,3.5
				c-0.1,1.3-1.1,3.2-2.1,3.7c-1.2,0.5-3.4,0.3-4.4-0.5c-3-2.4-5.5-5.3-8.3-7.9c-0.9-0.9-1.7-1.8-2.7-2.6c-0.4-0.4-1.2-0.6-1.8-0.4
				c-0.3,0.1-0.6,0.9-0.7,1.5C106.4,142.1,106.5,143.4,106.6,144.6z"/>
		</g>
	</g>
</g>
</svg>
