<?xml version="1.0" encoding="utf-8"?>
<!-- Generator: Adobe Illustrator 26.3.1, SVG Export Plug-In . SVG Version: 6.00 Build 0)  -->
<!DOCTYPE svg PUBLIC "-//W3C//DTD SVG 1.1//EN" "http://www.w3.org/Graphics/SVG/1.1/DTD/svg11.dtd" [
	<!ENTITY ns_extend "http://ns.adobe.com/Extensibility/1.0/">
	<!ENTITY ns_ai "http://ns.adobe.com/AdobeIllustrator/10.0/">
	<!ENTITY ns_graphs "http://ns.adobe.com/Graphs/1.0/">
	<!ENTITY ns_vars "http://ns.adobe.com/Variables/1.0/">
	<!ENTITY ns_imrep "http://ns.adobe.com/ImageReplacement/1.0/">
	<!ENTITY ns_sfw "http://ns.adobe.com/SaveForWeb/1.0/">
	<!ENTITY ns_custom "http://ns.adobe.com/GenericCustomNamespace/1.0/">
	<!ENTITY ns_adobe_xpath "http://ns.adobe.com/XPath/1.0/">
]>
<svg version="1.1" id="Capa_1" xmlns:x="&ns_extend;" xmlns:i="&ns_ai;" xmlns:graph="&ns_graphs;"
	 xmlns="http://www.w3.org/2000/svg" xmlns:xlink="http://www.w3.org/1999/xlink" x="0px" y="0px" viewBox="0 0 155.8 77.1"
	 style="enable-background:new 0 0 155.8 77.1;" xml:space="preserve">
<style type="text/css">
	.st0{fill:#15304E;}
	.st1{fill:#FFFFFF;}
	.st2{fill:#395D7E;}
</style>
<metadata>
	<sfw  xmlns="&ns_sfw;">
		<slices></slices>
		<sliceSourceBounds  bottomLeftOrigin="true" height="77.1" width="155.8" x="0" y="0"></sliceSourceBounds>
	</sfw>
</metadata>
<g>
	<rect class="st0" width="77.2" height="77.1"/>
	<g>
		<path class="st1" d="M42.8,13.1c-0.8-0.1-1.6-0.1-2.5-0.2c-0.2,0-0.5,0-0.8,0h-0.9c-0.5,0-1,0-1.5,0c-0.6,0-1.1,0.1-1.7,0.1
			c-2.8,0.2-5.7,0.7-8.5,1.4c-0.1,0-0.2,0.1-0.3,0.1c0.1,0.1,0.2,0.1,0.3,0.2c0,0,0,0,0,0c0.1,0.1,0.2,0.2,0.4,0.2
			c0.2,0,0.5,0.1,0.7,0c0.5-0.1,0.5-0.2,0.8,0.1c0.2,0.1,0.2,0.1,0.2,0.3c0,0.2,0,0.3,0.2,0.4c0.1,0.1,0.3,0.1,0.4,0
			c0.2-0.4,0.6,0.1,0.6,0.3c0,0.4,0.1,0.1,0.2,0.3c0.1,0,0,0.5,0.4,0.6c0.1,0,0.2,0,0.3,0.2c0,0,0,0.1,0,0.2c0,0.1-0.1,0.2-0.1,0.3
			c-0.2,0.4-0.1,0.7,0,1.1c0,0.1,0.1,0.2,0.2,0.3c0.1,0.4,0.2,0.5,0.4,0.6c0.2,0.1,0.3,0.1,0.5,0.1c0.1,0,0.2,0,0.3-0.1
			c0.1-0.1,0.2-0.1,0.3,0c0.2,0.2,0.2,0,0.3-0.2c0.2-0.3,0.3,0,0.3-0.5c0-0.1,0.1-0.2,0.2-0.2c0.3,0,0.3-0.1,0.6-0.1
			c0.1,0,0.4,0,0.2,0.3c-0.2,0.2-0.2,0.2-0.2,0.4c0,0.2,0,0.3-0.1,0.4c-0.2,0.2-0.1,0.1-0.1,0.4c0,0.1-0.1,0.2-0.1,0.3
			c0,0.1,0,0.2,0.2,0.2c0.1,0,0.3,0,0.4,0c0.2,0,0.3,0,0.4,0c0.2,0,0.4,0,0.6,0.2c0.2,0.2,0.1,0.2,0.1,0.6c0,0.1,0,0.2,0,0.3
			c0,0.2-0.1,0.3-0.1,0.5c0,0.1,0,0.2,0,0.2c0.1,0.1,0.1,0.2,0.2,0.3c0.1,0.1,0.2,0.2,0.3,0.3c0.5,0.3,0.5,0,0.9-0.1
			c0.2,0,0.3,0,0.5,0c0.1,0,0.2,0.1,0.4,0.3c0.1,0.1,0.2,0.2,0.3-0.1c0-0.1,0.1-0.2,0.1-0.2c0.1,0,0.1,0,0.1-0.2c0,0,0,0,0,0v0v0
			c0-0.2,0.3-0.4,0.6-0.4h0c0.1,0,0.3-0.1,0.4-0.2c0.1-0.1,0.4-0.3,0.2,0.1c0,0.1-0.1,0.1-0.1,0.2c0,0,0,0,0,0.1
			c0,0.1,0,0.2-0.1,0.3c0,0.1,0.1,0.1,0.1,0.1c0,0,0,0.1,0.1,0.2c0.1,0,0.2,0,0.2-0.1v0v-0.1c0,0,0-0.1,0-0.2c0-0.1,0-0.2,0-0.2
			c0,0,0,0,0.1,0c0.3-0.2,0.5-0.2,0.7-0.1c0,0,0,0,0.1,0.1c0.2,0.2,0.1,0.2,0.4,0.2c0.2,0,0.3,0,0.5,0.1c0.1,0.1,0.5,0.2,0.6,0
			c0.1-0.2,0.4-0.2,0.5,0c0.1,0.1,0.1,0.1,0.3,0.2c0,0,0,0,0,0c0.1,0,0.1,0,0.2,0.1c0.1,0.1,0,0.1,0,0.3c0,0.1,0,0.1,0.2,0.1
			c0.3,0,0.7,0.1,0.8,0.4c0,0.2,0.2,0.1,0.3,0.2c0.2,0.2,0.1,0.2,0.4,0.3c0.1,0,0.1,0,0.2,0c0.3-0.1,0.4-0.1,0.5,0s0.2,0.2,0.3,0.2
			c0.3,0,0.3,0.2,0.5,0.3c0.2,0.2,0.3,0.2,0.3,0.5c0,0.2,0,0.2,0.2,0.4c0.2,0.2,0.2,0.3,0,0.5c-0.2,0.2-0.2,0.3,0.1,0.1
			c0.1-0.1,0.2,0,0.4,0.1c0.1,0.1,0.1,0.2,0,0.3c0,0.3,0,0.2,0.2,0.1c0.2-0.2,0.4-0.3,0.8,0c0.1,0.1,0.2,0.2,0.3,0.2
			c0.3,0.2,0.6,0.4,1,0.4c0.3,0,0.4,0.1,0.6,0.1c0.3,0,0.5,0.1,0.7,0.4c0.1,0.1,0.2,0.2,0.4,0.3c0.4,0.2,0.5,0,0.7,0.4
			c0.3,0.8-0.3,1.4-0.8,1.9c-0.2,0.2-0.1,0.4-0.3,0.5c-0.2,0.2-0.5,0-0.4,0.4c0,0.1-0.1,0.2-0.1,0.4c0,0.1,0,0.1,0,0.2
			c0,0.2,0.1,0.3-0.1,0.5c0,0.2,0,0.3-0.1,0.5c-0.2,0.3-0.3,0.6-0.4,0.8c-0.1,0.1-0.1,0.2-0.3,0.3c-0.2,0.1-0.1,0.3-0.2,0.4
			c0,0-0.1,0.1-0.2,0.1c-0.2,0.2-0.2,0.2-0.5,0.2c-0.6,0-1.4,0.4-1.8,0.9c-0.1,0.2-0.1,0.3-0.2,0.5c0,0.3-0.2,0.2-0.3,0.4
			c-0.3,0.3-0.2,0.7-0.5,0.5c-0.1,0-0.1,0.1-0.2,0.2c-0.1,0.1-0.2,0.2-0.2,0.3c0,0.1,0,0.2-0.2,0.3c-0.1,0.1-0.2,0.2-0.3,0.3
			c-0.2,0.4-0.5,0.4-0.9,0.3c-0.1,0-0.3-0.1-0.4-0.1c-0.3-0.1-0.2,0.1,0,0.2c0.1,0,0.1,0,0.1,0.1c0,0.2-0.2,0.2,0.1,0.4
			c0,0.1,0,0.3-0.1,0.4c-0.2,0.3-0.5,0.4-0.8,0.4c-0.2,0-0.3,0-0.5,0c-0.4,0-0.3-0.1-0.3,0.2c0,0.1,0,0.1-0.1,0.2
			c0,0.3-0.2,0.3-0.4,0.3c-0.4-0.2-0.2-0.2-0.4,0.1c0,0.1,0,0.1,0,0.2c0,0,0,0.1,0,0.1s0,0,0.1,0c0.1,0,0-0.1,0.2-0.1
			c0.1,0,0.1,0,0,0.1c0,0.1,0,0.1-0.2,0.1c-0.1,0-0.2,0-0.2,0.1c0,0.2-0.1,0.1-0.2,0.3c0,0,0,0.1,0,0.2c0,0.2-0.2,0.1-0.3,0.2
			c-0.1,0-0.2,0.1-0.2,0.2c-0.1,0.1-0.1,0.2,0,0.3c0,0,0,0,0.1,0.1c0,0,0,0.1,0.1,0.1c0.2,0,0.2,0,0.2,0.1c0,0.2-0.1,0.2-0.2,0.3
			c0,0-0.1,0-0.1,0.1c-0.1,0-0.1,0.1-0.2,0.2c0,0.1-0.1,0.2-0.2,0.2c-0.3,0.1-0.3,0.2-0.2,0.5c0,0.2,0,0.2-0.2,0.2
			c-0.1,0-0.1,0-0.2,0.1c-0.1,0.1-0.1,0.2-0.2,0.3c-0.2,0.1,0,0-0.4,0.1c-0.2,0-0.2-0.1-0.2-0.2c0-0.1,0-0.1,0-0.2c0,0,0,0,0-0.1
			c-0.1-0.2,0-0.2-0.2-0.3c-0.2-0.1,0-0.2,0-0.3c-0.1-0.2-0.1-0.1-0.1-0.3c0,0,0-0.1,0-0.2c0-0.1,0-0.1,0.1-0.2
			c0.1-0.1,0.1,0,0.2-0.2c0.1-0.4,0-0.1-0.1-0.3c0,0,0-0.1,0-0.2c0.1-0.2,0.2-0.2,0.3-0.2c0,0,0,0,0.1,0c0.1,0,0-0.1,0.1-0.3
			c0-0.2,0.1-0.3,0.1-0.5c0.1-0.1,0.1-0.2,0-0.3c-0.1-0.2-0.3,0-0.3-0.3c0-0.3,0.1-0.3,0.2-0.5c0-0.1,0-0.2,0-0.4
			c-0.1-0.4,0-0.4,0.1-0.7c0-0.1,0.1-0.2,0.2-0.4c0-0.1,0-0.2,0.1-0.4c0.1-0.1,0.1-0.1,0.1-0.3c0-0.2,0.1-0.2,0.1-0.4s0-0.1-0.1-0.3
			c0-0.1,0-0.1,0-0.2c0.1-0.2,0.2-0.1,0.1-0.4c0-0.1,0-0.3,0.1-0.5c0,0,0-0.1,0-0.1c0.1-0.2,0.1-0.4,0.2-0.7c0-0.2,0-0.4,0-0.5
			c0-0.1,0-0.2,0-0.3c0-0.2,0.1-0.1,0.1-0.3c0-0.1,0-0.3,0-0.4c0.1-0.2,0-0.5,0-0.8c0-0.2-0.1-0.4-0.3-0.5c0,0-0.1,0-0.1-0.1
			c-0.2-0.2-0.5-0.4-0.7-0.5c0,0-0.1,0-0.1,0c-0.2-0.1-0.3,0-0.5-0.3c-0.1-0.1-0.1-0.2-0.2-0.3c-0.1-0.2,0.1-0.2,0-0.4
			c0-0.1-0.2-0.2-0.2-0.2c-0.2-0.3-0.4-0.7-0.5-1c-0.2-0.5-0.4-0.9-0.8-1.2c-0.1,0-0.2-0.1-0.1-0.2c0-0.1,0-0.2-0.1-0.3
			c-0.1-0.3,0.2-0.4,0.4-0.5c0.1-0.1,0.1-0.2,0-0.3c0,0-0.1,0-0.2,0c-0.3-0.1-0.2-0.4,0-0.6c0.1-0.1,0.2-0.2,0.2-0.4
			c0-0.2,0-0.2,0.2-0.3c0.2,0,0.2-0.1,0.3-0.3c0-0.2,0-0.2,0.2-0.2c0,0,0,0,0,0c0.4-0.4,0.3-0.5,0.3-1c0-0.2,0-0.3-0.2-0.5
			c-0.1-0.1-0.1-0.1-0.2-0.2c0,0,0,0,0-0.1c0-0.2,0-0.2-0.1-0.4c-0.1-0.1-0.3-0.1-0.4,0.1c0,0,0,0.1,0,0.1c-0.2,0.1-0.1,0-0.1,0.3
			c0,0,0,0.1,0,0.1c-0.2,0.1-0.2-0.1-0.3-0.2c-0.1,0-0.1,0-0.3-0.1c-0.1-0.1-0.1-0.1-0.2-0.1h-0.2c0,0-0.1,0-0.1-0.2
			c-0.1-0.1,0-0.2-0.2-0.2c0,0-0.1,0-0.1,0c-0.2-0.1,0-0.1-0.2-0.1c-0.1,0-0.2-0.1-0.2-0.2c0-0.4,0-0.3-0.3-0.6
			c-0.1-0.1-0.2-0.2-0.2-0.4c-0.1-0.2-0.1-0.1-0.3-0.1c-0.1,0-0.3,0-0.5-0.1c-0.3-0.2-0.4-0.1-0.5-0.2c-0.2,0-0.4-0.3-0.5-0.5
			c-0.1-0.2-0.4-0.3-0.6-0.3c-0.2,0-0.2,0.2-0.5,0.2c-0.2,0-0.3-0.2-0.6-0.3c-0.3,0-0.4-0.2-0.7-0.3c-0.3-0.1-0.3-0.3-0.5-0.4
			c-0.5-0.1-0.3-0.1-0.5-0.3c0,0-0.1-0.1-0.2-0.1c-0.1-0.1-0.4-0.3-0.2-0.5c0.1-0.2,0.2-0.3,0.1-0.5c-0.1-0.1-0.1-0.2,0-0.3
			c0-0.1-0.2-0.3-0.3-0.4c-0.1-0.2-0.3-0.4-0.4-0.6c-0.5-0.2,0-0.3-0.2-0.5c-0.1,0-0.2-0.1-0.2-0.2c0-0.2,0-0.2-0.2-0.4
			c0,0-0.1-0.1-0.1-0.2c0-0.1-0.1-0.2-0.1-0.4c0-0.1,0-0.2,0-0.3c0-0.3,0-0.2-0.2-0.4c-0.1,0-0.1,0-0.2,0c0,0,0,0,0,0
			c0,0-0.1,0.1-0.1,0.2c0,0.2,0,0.3,0,0.4c0,0.1,0.1,0.2,0.1,0.2c0.1,0.2,0.2,0.2,0.2,0.4c0,0.2,0,0.2,0.1,0.4
			c0.3,0.4,0.2,0.4,0.3,0.7c0,0.2,0,0.3-0.1,0.3c-0.1,0-0.2,0-0.3-0.1c-0.1-0.1,0-0.2,0-0.3c0.1-0.2-0.2-0.4-0.3-0.5
			c-0.2-0.2-0.3-0.3-0.1-0.5c0.2-0.2,0-0.3,0-0.4c-0.2-0.2-0.3-0.2-0.2-0.4c0-0.2,0-0.2,0-0.3c-1.4,0.4-2.9,0.9-4.3,1.5v24.9
			c1.9,0.7,3.7,1.3,5.5,1.8c2.8,0.8,5.7,1.2,8.5,1.4c0.6,0,1.1,0.1,1.7,0.1c0.5,0,1,0,1.5,0h0.5c0.1,0,0.2,0,0.3-0.1
			c0.4,0.1,0.1-0.3,0.2-0.4c0,0,0,0,0.1,0c0.2,0,0.1,0,0.2,0.1c0.1,0.2,0.2,0.2,0.3,0.3h0.2c0.8,0,1.7-0.1,2.5-0.2
			c4.4-0.4,8.8-1.5,13.1-3.2V16.2C51.5,14.5,47.1,13.5,42.8,13.1 M35.5,18.2c0,0-0.1,0-0.1,0c0,0,0,0.1-0.1,0.1
			c-0.2,0.1-0.2,0,0-0.2c0,0,0.1-0.1,0.1-0.1C35.6,18,35.8,18.2,35.5,18.2 M38,19.1c-0.2,0-0.2,0-0.3,0c-0.2,0-0.3,0-0.2-0.2
			c0-0.2-0.3-0.1-0.4-0.2c0,0,0,0,0-0.1v0c-0.1-0.2,0-0.1-0.4-0.1c-0.1,0-0.2,0-0.2-0.1c-0.1-0.1-0.2-0.2-0.4-0.2
			c-0.2,0-0.3-0.3-0.2-0.3c0.3,0,0.2,0.1,0.4,0.1c0.2,0,0.2,0,0.3,0.1c0.1,0,0.1,0.1,0.3,0.1c0,0,0,0,0.1,0c0.1,0,0.1,0,0.2,0.1
			c0,0,0.1,0.1,0.1,0.1c0.1,0.1,0.2,0.2,0.3,0.2c0.2,0,0.2,0,0.3,0.1C38.2,19,38.4,19.1,38,19.1 M38.8,19.8c0,0-0.1,0-0.2,0
			c-0.1,0-0.2,0-0.2-0.1c0-0.1,0-0.1,0.1-0.1h0C38.6,19.6,38.6,19.6,38.8,19.8C38.7,19.7,38.7,19.7,38.8,19.8
			C38.9,19.7,38.8,19.8,38.8,19.8 M39.8,19.6c-0.2,0-0.3,0-0.3,0.1c0,0,0,0.1-0.1,0.1c0,0,0,0-0.1,0c-0.2,0-0.3-0.1-0.3-0.2
			c0,0,0-0.1,0-0.1c-0.2-0.5-0.1-0.1,0.4-0.2c0,0,0,0,0.1,0c0.2,0,0.2,0,0.3,0.1c0,0,0.1,0.1,0.1,0.1C40.4,19.6,39.9,19.7,39.8,19.6
			 M40.3,19.6C40.2,19.6,40.2,19.6,40.3,19.6c-0.1-0.1,0-0.2,0-0.2C40.3,19.5,40.3,19.5,40.3,19.6C40.3,19.6,40.3,19.6,40.3,19.6
			 M38.6,40.6L38.6,40.6c0,0,0,0,0-0.1C38.6,40.4,38.7,40.5,38.6,40.6c0.1,0,0.1,0.2,0,0.2c-0.1,0-0.1,0-0.1-0.1
			C38.5,40.7,38.5,40.7,38.6,40.6 M27,17.7c0,0-0.1,0-0.1,0c0,0,0,0,0,0c0-0.2-0.2-0.1-0.1-0.2c0-0.1,0.1-0.2,0.2-0.1
			c0,0,0.1,0.1,0.1,0.1C27,17.6,27.1,17.6,27,17.7 M43.1,42.2c-0.1,0.2-0.1,0.1-0.3,0.1h0c-0.1,0-0.1,0.1-0.3,0.1
			c-0.1-0.1-0.2-0.2-0.1-0.2c0-0.1,0-0.1,0.1-0.1c0.1,0,0.2,0,0.3,0c0,0,0.1,0,0.1,0C43.2,41.9,43.2,42,43.1,42.2"/>
		<polygon class="st1" points="25.4,51 25.4,52.2 22.8,52.2 22.8,53.7 25.2,53.7 25.2,54.9 22.8,54.9 22.8,57.3 21.3,57.3 21.3,51 
					"/>
		<polygon class="st1" points="26.7,51 28.2,51 28.2,56.2 30.4,56.2 30.4,57.3 26.7,57.3 		"/>
		<path class="st1" d="M33.4,51H35l2.3,6.3h-1.6L35.3,56h-2.1l-0.4,1.3h-1.6L33.4,51z M33.5,54.9h1.4l-0.2-0.8
			c-0.1-0.2-0.2-0.5-0.2-0.8c-0.1-0.3-0.2-0.5-0.2-0.8h0c-0.1,0.2-0.1,0.5-0.2,0.8c-0.1,0.3-0.2,0.5-0.2,0.8L33.5,54.9z"/>
		<path class="st1" d="M41.1,56.3c0.3,0,0.5,0,0.8-0.1c0.2,0,0.4-0.1,0.5-0.2l0.3,1.1c-0.1,0.1-0.3,0.2-0.6,0.2
			c-0.3,0.1-0.7,0.1-1.1,0.1c-0.5,0-0.9-0.1-1.3-0.2c-0.4-0.2-0.8-0.4-1.1-0.7c-0.3-0.3-0.5-0.6-0.7-1c-0.2-0.4-0.2-0.8-0.2-1.3
			c0-0.5,0.1-0.9,0.2-1.3c0.2-0.4,0.4-0.7,0.7-1c0.3-0.3,0.6-0.5,1.1-0.7c0.4-0.2,0.9-0.2,1.4-0.2c0.4,0,0.8,0,1.1,0.1
			c0.3,0.1,0.5,0.2,0.7,0.2l-0.3,1.1c-0.2-0.1-0.3-0.2-0.5-0.2s-0.4-0.1-0.7-0.1c-0.3,0-0.5,0-0.8,0.1c-0.2,0.1-0.4,0.2-0.6,0.4
			c-0.2,0.2-0.3,0.4-0.4,0.6s-0.2,0.6-0.2,1c0,0.3,0,0.7,0.1,0.9c0.1,0.3,0.2,0.5,0.4,0.7c0.2,0.2,0.4,0.3,0.6,0.4
			C40.6,56.2,40.8,56.3,41.1,56.3"/>
		<path class="st1" d="M46.1,50.9c0.4,0,0.8,0,1.1,0.1c0.3,0.1,0.6,0.2,0.8,0.3l-0.3,1.1c-0.3-0.1-0.5-0.2-0.8-0.3
			c-0.3-0.1-0.5-0.1-0.8-0.1c-0.3,0-0.5,0.1-0.7,0.2c-0.2,0.1-0.2,0.3-0.2,0.5c0,0.2,0.1,0.4,0.2,0.5c0.2,0.1,0.4,0.2,0.7,0.3
			l0.6,0.2c0.2,0.1,0.5,0.2,0.7,0.3c0.2,0.1,0.4,0.2,0.5,0.4s0.2,0.3,0.3,0.5c0.1,0.2,0.1,0.4,0.1,0.6c0,0.3,0,0.5-0.2,0.8
			c-0.1,0.2-0.2,0.4-0.5,0.6s-0.5,0.3-0.8,0.4s-0.7,0.2-1.1,0.2c-0.4,0-0.8,0-1.1-0.1c-0.3-0.1-0.7-0.2-1-0.3l0.3-1.1
			c0.3,0.1,0.6,0.2,0.8,0.3s0.6,0.1,0.9,0.1c0.3,0,0.6-0.1,0.8-0.2c0.2-0.1,0.2-0.3,0.2-0.5c0-0.1,0-0.1,0-0.2
			c0-0.1-0.1-0.1-0.2-0.2c-0.1-0.1-0.2-0.1-0.3-0.2c-0.1-0.1-0.3-0.1-0.5-0.2l-0.5-0.2c-0.2-0.1-0.5-0.2-0.7-0.3s-0.4-0.2-0.5-0.4
			s-0.3-0.3-0.3-0.5c-0.1-0.2-0.1-0.4-0.1-0.7s0-0.5,0.2-0.8c0.1-0.2,0.3-0.4,0.5-0.6s0.5-0.3,0.8-0.4C45.4,51,45.7,50.9,46.1,50.9"
			/>
		<path class="st1" d="M52.7,50.9c0.5,0,0.9,0.1,1.2,0.2c0.4,0.2,0.7,0.4,1,0.6s0.5,0.6,0.7,1c0.2,0.4,0.2,0.9,0.2,1.4
			c0,0.5-0.1,1-0.2,1.3c-0.2,0.4-0.4,0.7-0.7,1c-0.3,0.3-0.6,0.5-1,0.7s-0.8,0.2-1.3,0.2c-0.5,0-0.9-0.1-1.2-0.2
			c-0.4-0.2-0.7-0.4-1-0.6s-0.5-0.6-0.7-1c-0.2-0.4-0.2-0.9-0.2-1.4c0-0.5,0.1-1,0.2-1.3c0.2-0.4,0.4-0.7,0.7-1
			c0.3-0.3,0.6-0.5,1-0.7C51.9,51,52.3,50.9,52.7,50.9 M51.2,54.2c0,0.3,0,0.7,0.1,0.9c0.1,0.3,0.2,0.5,0.3,0.7
			c0.1,0.2,0.3,0.3,0.5,0.4s0.4,0.1,0.6,0.1c0.2,0,0.4,0,0.6-0.1s0.3-0.2,0.5-0.4c0.1-0.2,0.2-0.4,0.3-0.7s0.1-0.6,0.1-0.9
			c0-0.4,0-0.7-0.1-1c-0.1-0.3-0.2-0.5-0.3-0.7c-0.2-0.2-0.3-0.3-0.5-0.4s-0.4-0.1-0.6-0.1c-0.2,0-0.4,0-0.6,0.1s-0.3,0.2-0.5,0.4
			c-0.1,0.2-0.2,0.4-0.3,0.7C51.2,53.5,51.2,53.8,51.2,54.2"/>
		<path class="st1" d="M22.6,60.9H23l1.3,3.4h-0.4l-0.4-1H22l-0.4,1h-0.4L22.6,60.9z M22.2,63h1.2l-0.3-0.7c0-0.1-0.1-0.3-0.2-0.4
			c0-0.2-0.1-0.3-0.2-0.5h0c0,0.1-0.1,0.2-0.1,0.3c0,0.1-0.1,0.2-0.1,0.2s0,0.2-0.1,0.2c0,0.1-0.1,0.2-0.1,0.2L22.2,63z"/>
		<path class="st1" d="M25.9,60.9h1c0.2,0,0.3,0,0.5,0.1s0.2,0.1,0.3,0.2c0.1,0.1,0.2,0.2,0.2,0.3c0,0.1,0.1,0.2,0.1,0.4
			c0,0.1,0,0.2-0.1,0.4c0,0.1-0.1,0.2-0.2,0.3c-0.1,0.1-0.1,0.2-0.2,0.2s-0.2,0.1-0.3,0.1l0.9,1.5h-0.4l-0.8-1.4h-0.7v1.4h-0.4
			L25.9,60.9L25.9,60.9z M26.2,62.6h0.5c0.1,0,0.2,0,0.3,0c0.1,0,0.2-0.1,0.3-0.1c0.1-0.1,0.1-0.1,0.2-0.2s0.1-0.2,0.1-0.3
			c0-0.2-0.1-0.4-0.2-0.5c-0.1-0.1-0.3-0.2-0.6-0.2h-0.6V62.6z"/>
		<path class="st1" d="M31.3,60.9c0.2,0,0.4,0,0.5,0c0.1,0,0.3,0.1,0.4,0.2l-0.1,0.3c-0.1-0.1-0.2-0.1-0.4-0.1c-0.1,0-0.3,0-0.4,0
			c-0.2,0-0.3,0-0.5,0.1c-0.2,0-0.3,0.1-0.4,0.2c-0.1,0.1-0.2,0.2-0.3,0.4c-0.1,0.2-0.1,0.4-0.1,0.7c0,0.2,0,0.4,0.1,0.6
			c0.1,0.2,0.1,0.3,0.3,0.4s0.2,0.2,0.4,0.3s0.3,0.1,0.5,0.1c0.1,0,0.3,0,0.4,0s0.2,0,0.3-0.1v-1.1h-0.7v-0.3h1.1v1.6
			c-0.1,0.1-0.3,0.1-0.4,0.1c-0.2,0-0.4,0.1-0.6,0.1s-0.5,0-0.6-0.1c-0.2-0.1-0.4-0.2-0.5-0.3c-0.1-0.1-0.3-0.3-0.4-0.5
			s-0.1-0.5-0.1-0.7c0-0.3,0-0.5,0.1-0.7c0.1-0.2,0.2-0.4,0.4-0.5s0.3-0.2,0.5-0.3C30.8,60.9,31,60.9,31.3,60.9"/>
		<polygon class="st1" points="34.1,60.9 36.1,60.9 36.1,61.2 34.5,61.2 34.5,62.3 36,62.3 36,62.7 34.5,62.7 34.5,64 36.2,64 
			36.2,64.3 34.1,64.3 		"/>
		<path class="st1" d="M37.9,60.9h0.3l1.5,2.2c0.1,0.1,0.1,0.2,0.2,0.3c0.1,0.1,0.1,0.2,0.2,0.3h0c0-0.1,0-0.3,0-0.4s0-0.3,0-0.4v-2
			h0.4v3.4h-0.3l-1.5-2.1c-0.1-0.1-0.2-0.2-0.2-0.3c-0.1-0.1-0.1-0.2-0.2-0.4h0c0,0.2,0,0.3,0,0.5c0,0.2,0,0.3,0,0.5v1.9h-0.4V60.9z
			"/>
		<polygon class="st1" points="44.7,60.9 44.7,61.2 43.6,61.2 43.6,64.3 43.2,64.3 43.2,61.2 42.1,61.2 42.1,60.9 		"/>
		<rect x="46.3" y="60.9" class="st1" width="0.4" height="3.4"/>
		<path class="st1" d="M48.6,60.9H49l1.5,2.2c0.1,0.1,0.1,0.2,0.2,0.3c0.1,0.1,0.1,0.2,0.2,0.3h0c0-0.1,0-0.3,0-0.4s0-0.3,0-0.4v-2
			h0.4v3.4h-0.3l-1.5-2.1c-0.1-0.1-0.2-0.2-0.2-0.3c-0.1-0.1-0.1-0.2-0.2-0.4h0c0,0.2,0,0.3,0,0.5c0,0.2,0,0.3,0,0.5v1.9h-0.4
			L48.6,60.9L48.6,60.9z"/>
		<path class="st1" d="M54.2,60.9h0.4l1.3,3.4h-0.4l-0.4-1h-1.5l-0.4,1h-0.4L54.2,60.9z M53.7,63H55l-0.3-0.7c0-0.1-0.1-0.3-0.2-0.4
			c0-0.2-0.1-0.3-0.2-0.5h0c0,0.1-0.1,0.2-0.1,0.3c0,0.1-0.1,0.2-0.1,0.2c0,0.1,0,0.2-0.1,0.2c0,0.1,0,0.2-0.1,0.2L53.7,63z"/>
	</g>
</g>
<g>
	<rect class="st0" width="77.2" height="77.1"/>
	<g>
		<path class="st1" d="M42.8,13.1c-0.8-0.1-1.6-0.1-2.5-0.2c-0.2,0-0.5,0-0.8,0h-0.9c-0.5,0-1,0-1.5,0c-0.6,0-1.1,0.1-1.7,0.1
			c-2.8,0.2-5.7,0.7-8.5,1.4c-0.1,0-0.2,0.1-0.3,0.1c0.1,0.1,0.2,0.1,0.3,0.2c0,0,0,0,0,0c0.1,0.1,0.2,0.2,0.4,0.2
			c0.2,0,0.5,0.1,0.7,0c0.5-0.1,0.5-0.2,0.8,0.1c0.2,0.1,0.2,0.1,0.2,0.3c0,0.2,0,0.3,0.2,0.4c0.1,0.1,0.3,0.1,0.4,0
			c0.2-0.4,0.6,0.1,0.6,0.3c0,0.4,0.1,0.1,0.2,0.3c0.1,0,0,0.5,0.4,0.6c0.1,0,0.2,0,0.3,0.2c0,0,0,0.1,0,0.2c0,0.1-0.1,0.2-0.1,0.3
			c-0.2,0.4-0.1,0.7,0,1.1c0,0.1,0.1,0.2,0.2,0.3c0.1,0.4,0.2,0.5,0.4,0.6c0.2,0.1,0.3,0.1,0.5,0.1c0.1,0,0.2,0,0.3-0.1
			c0.1-0.1,0.2-0.1,0.3,0c0.2,0.2,0.2,0,0.3-0.2c0.2-0.3,0.3,0,0.3-0.5c0-0.1,0.1-0.2,0.2-0.2c0.3,0,0.3-0.1,0.6-0.1
			c0.1,0,0.4,0,0.2,0.3c-0.2,0.2-0.2,0.2-0.2,0.4c0,0.2,0,0.3-0.1,0.4c-0.2,0.2-0.1,0.1-0.1,0.4c0,0.1-0.1,0.2-0.1,0.3
			c0,0.1,0,0.2,0.2,0.2c0.1,0,0.3,0,0.4,0c0.2,0,0.3,0,0.4,0c0.2,0,0.4,0,0.6,0.2c0.2,0.2,0.1,0.2,0.1,0.6c0,0.1,0,0.2,0,0.3
			c0,0.2-0.1,0.3-0.1,0.5c0,0.1,0,0.2,0,0.2c0.1,0.1,0.1,0.2,0.2,0.3c0.1,0.1,0.2,0.2,0.3,0.3c0.5,0.3,0.5,0,0.9-0.1
			c0.2,0,0.3,0,0.5,0c0.1,0,0.2,0.1,0.4,0.3c0.1,0.1,0.2,0.2,0.3-0.1c0-0.1,0.1-0.2,0.1-0.2c0.1,0,0.1,0,0.1-0.2c0,0,0,0,0,0v0v0
			c0-0.2,0.3-0.4,0.6-0.4h0c0.1,0,0.3-0.1,0.4-0.2c0.1-0.1,0.4-0.3,0.2,0.1c0,0.1-0.1,0.1-0.1,0.2c0,0,0,0,0,0.1
			c0,0.1,0,0.2-0.1,0.3c0,0.1,0.1,0.1,0.1,0.1c0,0,0,0.1,0.1,0.2c0.1,0,0.2,0,0.2-0.1v0v-0.1c0,0,0-0.1,0-0.2c0-0.1,0-0.2,0-0.2
			c0,0,0,0,0.1,0c0.3-0.2,0.5-0.2,0.7-0.1c0,0,0,0,0.1,0.1c0.2,0.2,0.1,0.2,0.4,0.2c0.2,0,0.3,0,0.5,0.1c0.1,0.1,0.5,0.2,0.6,0
			c0.1-0.2,0.4-0.2,0.5,0c0.1,0.1,0.1,0.1,0.3,0.2c0,0,0,0,0,0c0.1,0,0.1,0,0.2,0.1c0.1,0.1,0,0.1,0,0.3c0,0.1,0,0.1,0.2,0.1
			c0.3,0,0.7,0.1,0.8,0.4c0,0.2,0.2,0.1,0.3,0.2c0.2,0.2,0.1,0.2,0.4,0.3c0.1,0,0.1,0,0.2,0c0.3-0.1,0.4-0.1,0.5,0s0.2,0.2,0.3,0.2
			c0.3,0,0.3,0.2,0.5,0.3c0.2,0.2,0.3,0.2,0.3,0.5c0,0.2,0,0.2,0.2,0.4c0.2,0.2,0.2,0.3,0,0.5c-0.2,0.2-0.2,0.3,0.1,0.1
			c0.1-0.1,0.2,0,0.4,0.1c0.1,0.1,0.1,0.2,0,0.3c0,0.3,0,0.2,0.2,0.1c0.2-0.2,0.4-0.3,0.8,0c0.1,0.1,0.2,0.2,0.3,0.2
			c0.3,0.2,0.6,0.4,1,0.4c0.3,0,0.4,0.1,0.6,0.1c0.3,0,0.5,0.1,0.7,0.4c0.1,0.1,0.2,0.2,0.4,0.3c0.4,0.2,0.5,0,0.7,0.4
			c0.3,0.8-0.3,1.4-0.8,1.9c-0.2,0.2-0.1,0.4-0.3,0.5c-0.2,0.2-0.5,0-0.4,0.4c0,0.1-0.1,0.2-0.1,0.4c0,0.1,0,0.1,0,0.2
			c0,0.2,0.1,0.3-0.1,0.5c0,0.2,0,0.3-0.1,0.5c-0.2,0.3-0.3,0.6-0.4,0.8c-0.1,0.1-0.1,0.2-0.3,0.3c-0.2,0.1-0.1,0.3-0.2,0.4
			c0,0-0.1,0.1-0.2,0.1c-0.2,0.2-0.2,0.2-0.5,0.2c-0.6,0-1.4,0.4-1.8,0.9c-0.1,0.2-0.1,0.3-0.2,0.5c0,0.3-0.2,0.2-0.3,0.4
			c-0.3,0.3-0.2,0.7-0.5,0.5c-0.1,0-0.1,0.1-0.2,0.2c-0.1,0.1-0.2,0.2-0.2,0.3c0,0.1,0,0.2-0.2,0.3c-0.1,0.1-0.2,0.2-0.3,0.3
			c-0.2,0.4-0.5,0.4-0.9,0.3c-0.1,0-0.3-0.1-0.4-0.1c-0.3-0.1-0.2,0.1,0,0.2c0.1,0,0.1,0,0.1,0.1c0,0.2-0.2,0.2,0.1,0.4
			c0,0.1,0,0.3-0.1,0.4c-0.2,0.3-0.5,0.4-0.8,0.4c-0.2,0-0.3,0-0.5,0c-0.4,0-0.3-0.1-0.3,0.2c0,0.1,0,0.1-0.1,0.2
			c0,0.3-0.2,0.3-0.4,0.3c-0.4-0.2-0.2-0.2-0.4,0.1c0,0.1,0,0.1,0,0.2c0,0,0,0.1,0,0.1s0,0,0.1,0c0.1,0,0-0.1,0.2-0.1
			c0.1,0,0.1,0,0,0.1c0,0.1,0,0.1-0.2,0.1c-0.1,0-0.2,0-0.2,0.1c0,0.2-0.1,0.1-0.2,0.3c0,0,0,0.1,0,0.2c0,0.2-0.2,0.1-0.3,0.2
			c-0.1,0-0.2,0.1-0.2,0.2c-0.1,0.1-0.1,0.2,0,0.3c0,0,0,0,0.1,0.1c0,0,0,0.1,0.1,0.1c0.2,0,0.2,0,0.2,0.1c0,0.2-0.1,0.2-0.2,0.3
			c0,0-0.1,0-0.1,0.1c-0.1,0-0.1,0.1-0.2,0.2c0,0.1-0.1,0.2-0.2,0.2c-0.3,0.1-0.3,0.2-0.2,0.5c0,0.2,0,0.2-0.2,0.2
			c-0.1,0-0.1,0-0.2,0.1c-0.1,0.1-0.1,0.2-0.2,0.3c-0.2,0.1,0,0-0.4,0.1c-0.2,0-0.2-0.1-0.2-0.2c0-0.1,0-0.1,0-0.2c0,0,0,0,0-0.1
			c-0.1-0.2,0-0.2-0.2-0.3c-0.2-0.1,0-0.2,0-0.3c-0.1-0.2-0.1-0.1-0.1-0.3c0,0,0-0.1,0-0.2c0-0.1,0-0.1,0.1-0.2
			c0.1-0.1,0.1,0,0.2-0.2c0.1-0.4,0-0.1-0.1-0.3c0,0,0-0.1,0-0.2c0.1-0.2,0.2-0.2,0.3-0.2c0,0,0,0,0.1,0c0.1,0,0-0.1,0.1-0.3
			c0-0.2,0.1-0.3,0.1-0.5c0.1-0.1,0.1-0.2,0-0.3c-0.1-0.2-0.3,0-0.3-0.3c0-0.3,0.1-0.3,0.2-0.5c0-0.1,0-0.2,0-0.4
			c-0.1-0.4,0-0.4,0.1-0.7c0-0.1,0.1-0.2,0.2-0.4c0-0.1,0-0.2,0.1-0.4c0.1-0.1,0.1-0.1,0.1-0.3c0-0.2,0.1-0.2,0.1-0.4s0-0.1-0.1-0.3
			c0-0.1,0-0.1,0-0.2c0.1-0.2,0.2-0.1,0.1-0.4c0-0.1,0-0.3,0.1-0.5c0,0,0-0.1,0-0.1c0.1-0.2,0.1-0.4,0.2-0.7c0-0.2,0-0.4,0-0.5
			c0-0.1,0-0.2,0-0.3c0-0.2,0.1-0.1,0.1-0.3c0-0.1,0-0.3,0-0.4c0.1-0.2,0-0.5,0-0.8c0-0.2-0.1-0.4-0.3-0.5c0,0-0.1,0-0.1-0.1
			c-0.2-0.2-0.5-0.4-0.7-0.5c0,0-0.1,0-0.1,0c-0.2-0.1-0.3,0-0.5-0.3c-0.1-0.1-0.1-0.2-0.2-0.3c-0.1-0.2,0.1-0.2,0-0.4
			c0-0.1-0.2-0.2-0.2-0.2c-0.2-0.3-0.4-0.7-0.5-1c-0.2-0.5-0.4-0.9-0.8-1.2c-0.1,0-0.2-0.1-0.1-0.2c0-0.1,0-0.2-0.1-0.3
			c-0.1-0.3,0.2-0.4,0.4-0.5c0.1-0.1,0.1-0.2,0-0.3c0,0-0.1,0-0.2,0c-0.3-0.1-0.2-0.4,0-0.6c0.1-0.1,0.2-0.2,0.2-0.4
			c0-0.2,0-0.2,0.2-0.3c0.2,0,0.2-0.1,0.3-0.3c0-0.2,0-0.2,0.2-0.2c0,0,0,0,0,0c0.4-0.4,0.3-0.5,0.3-1c0-0.2,0-0.3-0.2-0.5
			c-0.1-0.1-0.1-0.1-0.2-0.2c0,0,0,0,0-0.1c0-0.2,0-0.2-0.1-0.4c-0.1-0.1-0.3-0.1-0.4,0.1c0,0,0,0.1,0,0.1c-0.2,0.1-0.1,0-0.1,0.3
			c0,0,0,0.1,0,0.1c-0.2,0.1-0.2-0.1-0.3-0.2c-0.1,0-0.1,0-0.3-0.1c-0.1-0.1-0.1-0.1-0.2-0.1h-0.2c0,0-0.1,0-0.1-0.2
			c-0.1-0.1,0-0.2-0.2-0.2c0,0-0.1,0-0.1,0c-0.2-0.1,0-0.1-0.2-0.1c-0.1,0-0.2-0.1-0.2-0.2c0-0.4,0-0.3-0.3-0.6
			c-0.1-0.1-0.2-0.2-0.2-0.4c-0.1-0.2-0.1-0.1-0.3-0.1c-0.1,0-0.3,0-0.5-0.1c-0.3-0.2-0.4-0.1-0.5-0.2c-0.2,0-0.4-0.3-0.5-0.5
			c-0.1-0.2-0.4-0.3-0.6-0.3c-0.2,0-0.2,0.2-0.5,0.2c-0.2,0-0.3-0.2-0.6-0.3c-0.3,0-0.4-0.2-0.7-0.3c-0.3-0.1-0.3-0.3-0.5-0.4
			c-0.5-0.1-0.3-0.1-0.5-0.3c0,0-0.1-0.1-0.2-0.1c-0.1-0.1-0.4-0.3-0.2-0.5c0.1-0.2,0.2-0.3,0.1-0.5c-0.1-0.1-0.1-0.2,0-0.3
			c0-0.1-0.2-0.3-0.3-0.4c-0.1-0.2-0.3-0.4-0.4-0.6c-0.5-0.2,0-0.3-0.2-0.5c-0.1,0-0.2-0.1-0.2-0.2c0-0.2,0-0.2-0.2-0.4
			c0,0-0.1-0.1-0.1-0.2c0-0.1-0.1-0.2-0.1-0.4c0-0.1,0-0.2,0-0.3c0-0.3,0-0.2-0.2-0.4c-0.1,0-0.1,0-0.2,0c0,0,0,0,0,0
			c0,0-0.1,0.1-0.1,0.2c0,0.2,0,0.3,0,0.4c0,0.1,0.1,0.2,0.1,0.2c0.1,0.2,0.2,0.2,0.2,0.4c0,0.2,0,0.2,0.1,0.4
			c0.3,0.4,0.2,0.4,0.3,0.7c0,0.2,0,0.3-0.1,0.3c-0.1,0-0.2,0-0.3-0.1c-0.1-0.1,0-0.2,0-0.3c0.1-0.2-0.2-0.4-0.3-0.5
			c-0.2-0.2-0.3-0.3-0.1-0.5c0.2-0.2,0-0.3,0-0.4c-0.2-0.2-0.3-0.2-0.2-0.4c0-0.2,0-0.2,0-0.3c-1.4,0.4-2.9,0.9-4.3,1.5v24.9
			c1.9,0.7,3.7,1.3,5.5,1.8c2.8,0.8,5.7,1.2,8.5,1.4c0.6,0,1.1,0.1,1.7,0.1c0.5,0,1,0,1.5,0h0.5c0.1,0,0.2,0,0.3-0.1
			c0.4,0.1,0.1-0.3,0.2-0.4c0,0,0,0,0.1,0c0.2,0,0.1,0,0.2,0.1c0.1,0.2,0.2,0.2,0.3,0.3h0.2c0.8,0,1.7-0.1,2.5-0.2
			c4.4-0.4,8.8-1.5,13.1-3.2V16.2C51.5,14.5,47.1,13.5,42.8,13.1 M35.5,18.2c0,0-0.1,0-0.1,0c0,0,0,0.1-0.1,0.1
			c-0.2,0.1-0.2,0,0-0.2c0,0,0.1-0.1,0.1-0.1C35.6,18,35.8,18.2,35.5,18.2 M38,19.1c-0.2,0-0.2,0-0.3,0c-0.2,0-0.3,0-0.2-0.2
			c0-0.2-0.3-0.1-0.4-0.2c0,0,0,0,0-0.1v0c-0.1-0.2,0-0.1-0.4-0.1c-0.1,0-0.2,0-0.2-0.1c-0.1-0.1-0.2-0.2-0.4-0.2
			c-0.2,0-0.3-0.3-0.2-0.3c0.3,0,0.2,0.1,0.4,0.1c0.2,0,0.2,0,0.3,0.1c0.1,0,0.1,0.1,0.3,0.1c0,0,0,0,0.1,0c0.1,0,0.1,0,0.2,0.1
			c0,0,0.1,0.1,0.1,0.1c0.1,0.1,0.2,0.2,0.3,0.2c0.2,0,0.2,0,0.3,0.1C38.2,19,38.4,19.1,38,19.1 M38.8,19.8c0,0-0.1,0-0.2,0
			c-0.1,0-0.2,0-0.2-0.1c0-0.1,0-0.1,0.1-0.1h0C38.6,19.6,38.6,19.6,38.8,19.8C38.7,19.7,38.7,19.7,38.8,19.8
			C38.9,19.7,38.8,19.8,38.8,19.8 M39.8,19.6c-0.2,0-0.3,0-0.3,0.1c0,0,0,0.1-0.1,0.1c0,0,0,0-0.1,0c-0.2,0-0.3-0.1-0.3-0.2
			c0,0,0-0.1,0-0.1c-0.2-0.5-0.1-0.1,0.4-0.2c0,0,0,0,0.1,0c0.2,0,0.2,0,0.3,0.1c0,0,0.1,0.1,0.1,0.1C40.4,19.6,39.9,19.7,39.8,19.6
			 M40.3,19.6C40.2,19.6,40.2,19.6,40.3,19.6c-0.1-0.1,0-0.2,0-0.2C40.3,19.5,40.3,19.5,40.3,19.6C40.3,19.6,40.3,19.6,40.3,19.6
			 M38.6,40.6L38.6,40.6c0,0,0,0,0-0.1C38.6,40.4,38.7,40.5,38.6,40.6c0.1,0,0.1,0.2,0,0.2c-0.1,0-0.1,0-0.1-0.1
			C38.5,40.7,38.5,40.7,38.6,40.6 M27,17.7c0,0-0.1,0-0.1,0c0,0,0,0,0,0c0-0.2-0.2-0.1-0.1-0.2c0-0.1,0.1-0.2,0.2-0.1
			c0,0,0.1,0.1,0.1,0.1C27,17.6,27.1,17.6,27,17.7 M43.1,42.2c-0.1,0.2-0.1,0.1-0.3,0.1h0c-0.1,0-0.1,0.1-0.3,0.1
			c-0.1-0.1-0.2-0.2-0.1-0.2c0-0.1,0-0.1,0.1-0.1c0.1,0,0.2,0,0.3,0c0,0,0.1,0,0.1,0C43.2,41.9,43.2,42,43.1,42.2"/>
		<polygon class="st1" points="25.4,51 25.4,52.2 22.8,52.2 22.8,53.7 25.2,53.7 25.2,54.9 22.8,54.9 22.8,57.3 21.3,57.3 21.3,51 
					"/>
		<polygon class="st1" points="26.7,51 28.2,51 28.2,56.2 30.4,56.2 30.4,57.3 26.7,57.3 		"/>
		<path class="st1" d="M33.4,51H35l2.3,6.3h-1.6L35.3,56h-2.1l-0.4,1.3h-1.6L33.4,51z M33.5,54.9h1.4l-0.2-0.8
			c-0.1-0.2-0.2-0.5-0.2-0.8c-0.1-0.3-0.2-0.5-0.2-0.8h0c-0.1,0.2-0.1,0.5-0.2,0.8c-0.1,0.3-0.2,0.5-0.2,0.8L33.5,54.9z"/>
		<path class="st1" d="M41.1,56.3c0.3,0,0.5,0,0.8-0.1c0.2,0,0.4-0.1,0.5-0.2l0.3,1.1c-0.1,0.1-0.3,0.2-0.6,0.2
			c-0.3,0.1-0.7,0.1-1.1,0.1c-0.5,0-0.9-0.1-1.3-0.2c-0.4-0.2-0.8-0.4-1.1-0.7c-0.3-0.3-0.5-0.6-0.7-1c-0.2-0.4-0.2-0.8-0.2-1.3
			c0-0.5,0.1-0.9,0.2-1.3c0.2-0.4,0.4-0.7,0.7-1c0.3-0.3,0.6-0.5,1.1-0.7c0.4-0.2,0.9-0.2,1.4-0.2c0.4,0,0.8,0,1.1,0.1
			c0.3,0.1,0.5,0.2,0.7,0.2l-0.3,1.1c-0.2-0.1-0.3-0.2-0.5-0.2s-0.4-0.1-0.7-0.1c-0.3,0-0.5,0-0.8,0.1c-0.2,0.1-0.4,0.2-0.6,0.4
			c-0.2,0.2-0.3,0.4-0.4,0.6s-0.2,0.6-0.2,1c0,0.3,0,0.7,0.1,0.9c0.1,0.3,0.2,0.5,0.4,0.7c0.2,0.2,0.4,0.3,0.6,0.4
			C40.6,56.2,40.8,56.3,41.1,56.3"/>
		<path class="st1" d="M46.1,50.9c0.4,0,0.8,0,1.1,0.1c0.3,0.1,0.6,0.2,0.8,0.3l-0.3,1.1c-0.3-0.1-0.5-0.2-0.8-0.3
			c-0.3-0.1-0.5-0.1-0.8-0.1c-0.3,0-0.5,0.1-0.7,0.2c-0.2,0.1-0.2,0.3-0.2,0.5c0,0.2,0.1,0.4,0.2,0.5c0.2,0.1,0.4,0.2,0.7,0.3
			l0.6,0.2c0.2,0.1,0.5,0.2,0.7,0.3c0.2,0.1,0.4,0.2,0.5,0.4s0.2,0.3,0.3,0.5c0.1,0.2,0.1,0.4,0.1,0.6c0,0.3,0,0.5-0.2,0.8
			c-0.1,0.2-0.2,0.4-0.5,0.6s-0.5,0.3-0.8,0.4s-0.7,0.2-1.1,0.2c-0.4,0-0.8,0-1.1-0.1c-0.3-0.1-0.7-0.2-1-0.3l0.3-1.1
			c0.3,0.1,0.6,0.2,0.8,0.3s0.6,0.1,0.9,0.1c0.3,0,0.6-0.1,0.8-0.2c0.2-0.1,0.2-0.3,0.2-0.5c0-0.1,0-0.1,0-0.2
			c0-0.1-0.1-0.1-0.2-0.2c-0.1-0.1-0.2-0.1-0.3-0.2c-0.1-0.1-0.3-0.1-0.5-0.2l-0.5-0.2c-0.2-0.1-0.5-0.2-0.7-0.3s-0.4-0.2-0.5-0.4
			s-0.3-0.3-0.3-0.5c-0.1-0.2-0.1-0.4-0.1-0.7s0-0.5,0.2-0.8c0.1-0.2,0.3-0.4,0.5-0.6s0.5-0.3,0.8-0.4C45.4,51,45.7,50.9,46.1,50.9"
			/>
		<path class="st1" d="M52.7,50.9c0.5,0,0.9,0.1,1.2,0.2c0.4,0.2,0.7,0.4,1,0.6s0.5,0.6,0.7,1c0.2,0.4,0.2,0.9,0.2,1.4
			c0,0.5-0.1,1-0.2,1.3c-0.2,0.4-0.4,0.7-0.7,1c-0.3,0.3-0.6,0.5-1,0.7s-0.8,0.2-1.3,0.2c-0.5,0-0.9-0.1-1.2-0.2
			c-0.4-0.2-0.7-0.4-1-0.6s-0.5-0.6-0.7-1c-0.2-0.4-0.2-0.9-0.2-1.4c0-0.5,0.1-1,0.2-1.3c0.2-0.4,0.4-0.7,0.7-1
			c0.3-0.3,0.6-0.5,1-0.7C51.9,51,52.3,50.9,52.7,50.9 M51.2,54.2c0,0.3,0,0.7,0.1,0.9c0.1,0.3,0.2,0.5,0.3,0.7
			c0.1,0.2,0.3,0.3,0.5,0.4s0.4,0.1,0.6,0.1c0.2,0,0.4,0,0.6-0.1s0.3-0.2,0.5-0.4c0.1-0.2,0.2-0.4,0.3-0.7s0.1-0.6,0.1-0.9
			c0-0.4,0-0.7-0.1-1c-0.1-0.3-0.2-0.5-0.3-0.7c-0.2-0.2-0.3-0.3-0.5-0.4s-0.4-0.1-0.6-0.1c-0.2,0-0.4,0-0.6,0.1s-0.3,0.2-0.5,0.4
			c-0.1,0.2-0.2,0.4-0.3,0.7C51.2,53.5,51.2,53.8,51.2,54.2"/>
		<path class="st1" d="M22.6,60.9H23l1.3,3.4h-0.4l-0.4-1H22l-0.4,1h-0.4L22.6,60.9z M22.2,63h1.2l-0.3-0.7c0-0.1-0.1-0.3-0.2-0.4
			c0-0.2-0.1-0.3-0.2-0.5h0c0,0.1-0.1,0.2-0.1,0.3c0,0.1-0.1,0.2-0.1,0.2s0,0.2-0.1,0.2c0,0.1-0.1,0.2-0.1,0.2L22.2,63z"/>
		<path class="st1" d="M25.9,60.9h1c0.2,0,0.3,0,0.5,0.1s0.2,0.1,0.3,0.2c0.1,0.1,0.2,0.2,0.2,0.3c0,0.1,0.1,0.2,0.1,0.4
			c0,0.1,0,0.2-0.1,0.4c0,0.1-0.1,0.2-0.2,0.3c-0.1,0.1-0.1,0.2-0.2,0.2s-0.2,0.1-0.3,0.1l0.9,1.5h-0.4l-0.8-1.4h-0.7v1.4h-0.4
			L25.9,60.9L25.9,60.9z M26.2,62.6h0.5c0.1,0,0.2,0,0.3,0c0.1,0,0.2-0.1,0.3-0.1c0.1-0.1,0.1-0.1,0.2-0.2s0.1-0.2,0.1-0.3
			c0-0.2-0.1-0.4-0.2-0.5c-0.1-0.1-0.3-0.2-0.6-0.2h-0.6V62.6z"/>
		<path class="st1" d="M31.3,60.9c0.2,0,0.4,0,0.5,0c0.1,0,0.3,0.1,0.4,0.2l-0.1,0.3c-0.1-0.1-0.2-0.1-0.4-0.1c-0.1,0-0.3,0-0.4,0
			c-0.2,0-0.3,0-0.5,0.1c-0.2,0-0.3,0.1-0.4,0.2c-0.1,0.1-0.2,0.2-0.3,0.4c-0.1,0.2-0.1,0.4-0.1,0.7c0,0.2,0,0.4,0.1,0.6
			c0.1,0.2,0.1,0.3,0.3,0.4s0.2,0.2,0.4,0.3s0.3,0.1,0.5,0.1c0.1,0,0.3,0,0.4,0s0.2,0,0.3-0.1v-1.1h-0.7v-0.3h1.1v1.6
			c-0.1,0.1-0.3,0.1-0.4,0.1c-0.2,0-0.4,0.1-0.6,0.1s-0.5,0-0.6-0.1c-0.2-0.1-0.4-0.2-0.5-0.3c-0.1-0.1-0.3-0.3-0.4-0.5
			s-0.1-0.5-0.1-0.7c0-0.3,0-0.5,0.1-0.7c0.1-0.2,0.2-0.4,0.4-0.5s0.3-0.2,0.5-0.3C30.8,60.9,31,60.9,31.3,60.9"/>
		<polygon class="st1" points="34.1,60.9 36.1,60.9 36.1,61.2 34.5,61.2 34.5,62.3 36,62.3 36,62.7 34.5,62.7 34.5,64 36.2,64 
			36.2,64.3 34.1,64.3 		"/>
		<path class="st1" d="M37.9,60.9h0.3l1.5,2.2c0.1,0.1,0.1,0.2,0.2,0.3c0.1,0.1,0.1,0.2,0.2,0.3h0c0-0.1,0-0.3,0-0.4s0-0.3,0-0.4v-2
			h0.4v3.4h-0.3l-1.5-2.1c-0.1-0.1-0.2-0.2-0.2-0.3c-0.1-0.1-0.1-0.2-0.2-0.4h0c0,0.2,0,0.3,0,0.5c0,0.2,0,0.3,0,0.5v1.9h-0.4V60.9z
			"/>
		<polygon class="st1" points="44.7,60.9 44.7,61.2 43.6,61.2 43.6,64.3 43.2,64.3 43.2,61.2 42.1,61.2 42.1,60.9 		"/>
		<rect x="46.3" y="60.9" class="st1" width="0.4" height="3.4"/>
		<path class="st1" d="M48.6,60.9H49l1.5,2.2c0.1,0.1,0.1,0.2,0.2,0.3c0.1,0.1,0.1,0.2,0.2,0.3h0c0-0.1,0-0.3,0-0.4s0-0.3,0-0.4v-2
			h0.4v3.4h-0.3l-1.5-2.1c-0.1-0.1-0.2-0.2-0.2-0.3c-0.1-0.1-0.1-0.2-0.2-0.4h0c0,0.2,0,0.3,0,0.5c0,0.2,0,0.3,0,0.5v1.9h-0.4
			L48.6,60.9L48.6,60.9z"/>
		<path class="st1" d="M54.2,60.9h0.4l1.3,3.4h-0.4l-0.4-1h-1.5l-0.4,1h-0.4L54.2,60.9z M53.7,63H55l-0.3-0.7c0-0.1-0.1-0.3-0.2-0.4
			c0-0.2-0.1-0.3-0.2-0.5h0c0,0.1-0.1,0.2-0.1,0.3c0,0.1-0.1,0.2-0.1,0.2c0,0.1,0,0.2-0.1,0.2c0,0.1,0,0.2-0.1,0.2L53.7,63z"/>
	</g>
</g>
<g>
	<rect x="78.7" class="st2" width="77.1" height="77.1"/>
	<g>
		<path class="st1" d="M93.8,19.3h-1.6v2.1h-0.6v-4.8H94v0.5h-1.9v1.6h1.6V19.3z"/>
		<path class="st1" d="M96.4,21.4c0-0.1-0.1-0.2-0.1-0.4c-0.2,0.3-0.5,0.5-0.8,0.5c-0.3,0-0.6-0.1-0.8-0.3s-0.3-0.4-0.3-0.8
			c0-0.4,0.1-0.6,0.4-0.9s0.6-0.3,1-0.3h0.4v-0.4c0-0.2-0.1-0.4-0.1-0.5s-0.2-0.1-0.4-0.1c-0.2,0-0.3,0-0.4,0.2
			c-0.1,0.1-0.2,0.2-0.2,0.4h-0.6c0-0.2,0.1-0.4,0.2-0.5s0.2-0.3,0.4-0.4c0.2-0.1,0.4-0.1,0.6-0.1c0.4,0,0.6,0.1,0.8,0.3
			s0.3,0.4,0.3,0.8v1.8c0,0.3,0,0.5,0.1,0.7v0C97,21.4,96.4,21.4,96.4,21.4z M95.6,20.9c0.1,0,0.3,0,0.4-0.1s0.2-0.2,0.3-0.3v-0.9
			H96c-0.3,0-0.5,0.1-0.6,0.2c-0.2,0.1-0.2,0.3-0.2,0.5c0,0.2,0,0.4,0.1,0.4S95.4,20.9,95.6,20.9z"/>
		<path class="st1" d="M99.1,20.9c0.2,0,0.4-0.1,0.5-0.2c0.1-0.1,0.2-0.3,0.2-0.5h0.6c0,0.3-0.1,0.6-0.4,0.9
			c-0.2,0.2-0.5,0.3-0.8,0.3c-0.4,0-0.8-0.1-1-0.4s-0.4-0.7-0.4-1.2v-0.4c0-0.5,0.1-0.9,0.3-1.2c0.2-0.3,0.6-0.4,1-0.4
			c0.4,0,0.6,0.1,0.9,0.3c0.2,0.2,0.3,0.5,0.3,0.9h-0.6c0-0.3-0.1-0.5-0.2-0.6c-0.1-0.1-0.3-0.2-0.5-0.2c-0.3,0-0.4,0.1-0.6,0.2
			c-0.1,0.2-0.2,0.5-0.2,0.8v0.5c0,0.4,0.1,0.7,0.2,0.9C98.6,20.9,98.8,20.9,99.1,20.9z"/>
		<path class="st1" d="M102.7,21.1c-0.2,0.2-0.5,0.4-0.8,0.4c-0.3,0-0.6-0.1-0.7-0.3c-0.2-0.2-0.2-0.5-0.2-1v-2.3h0.6v2.3
			c0,0.5,0.2,0.8,0.5,0.8c0.4,0,0.6-0.2,0.7-0.5v-2.6h0.6v3.5h-0.6L102.7,21.1z"/>
		<path class="st1" d="M104.8,21.4h-0.6v-5h0.6V21.4z"/>
		<path class="st1" d="M106.5,17v0.9h0.5v0.5h-0.5v2.2c0,0.1,0,0.2,0.1,0.3s0.1,0.1,0.2,0.1c0.1,0,0.1,0,0.2,0l0,0.5
			c-0.1,0-0.3,0.1-0.4,0.1c-0.2,0-0.4-0.1-0.5-0.2c-0.1-0.2-0.2-0.4-0.2-0.7v-2.2h-0.5v-0.5h0.5v-0.9L106.5,17L106.5,17z"/>
		<path class="st1" d="M109.5,21.4c0-0.1-0.1-0.2-0.1-0.4c-0.2,0.3-0.5,0.5-0.8,0.5c-0.3,0-0.6-0.1-0.8-0.3s-0.3-0.4-0.3-0.8
			c0-0.4,0.1-0.6,0.4-0.9s0.6-0.3,1-0.3h0.4v-0.4c0-0.2-0.1-0.4-0.1-0.5s-0.2-0.1-0.4-0.1c-0.2,0-0.3,0-0.4,0.2
			c-0.1,0.1-0.2,0.2-0.2,0.4h-0.6c0-0.2,0.1-0.4,0.2-0.5c0.1-0.2,0.2-0.3,0.4-0.4c0.2-0.1,0.4-0.1,0.6-0.1c0.4,0,0.6,0.1,0.8,0.3
			s0.3,0.4,0.3,0.8v1.8c0,0.3,0,0.5,0.1,0.7v0C110.1,21.4,109.5,21.4,109.5,21.4z M108.8,20.9c0.1,0,0.3,0,0.4-0.1s0.2-0.2,0.3-0.3
			v-0.9h-0.3c-0.3,0-0.5,0.1-0.6,0.2c-0.2,0.1-0.2,0.3-0.2,0.5c0,0.2,0,0.4,0.1,0.4S108.6,20.9,108.8,20.9z"/>
		<path class="st1" d="M110.8,19.4c0-0.5,0.1-1,0.3-1.2c0.2-0.3,0.5-0.4,0.9-0.4c0.3,0,0.6,0.1,0.8,0.4v-1.8h0.6v5h-0.5l0-0.4
			c-0.2,0.3-0.5,0.5-0.8,0.5c-0.4,0-0.7-0.1-0.9-0.4c-0.2-0.3-0.3-0.7-0.3-1.2L110.8,19.4L110.8,19.4z M111.4,19.8
			c0,0.4,0.1,0.7,0.2,0.9c0.1,0.2,0.3,0.3,0.6,0.3c0.3,0,0.5-0.1,0.6-0.4v-1.8c-0.1-0.3-0.4-0.4-0.6-0.4c-0.3,0-0.5,0.1-0.6,0.3
			s-0.2,0.5-0.2,0.9L111.4,19.8L111.4,19.8z"/>
	</g>
	<g>
		<path class="st1" d="M92.1,27.7H94v0.5h-2.5v-4.8h0.6L92.1,27.7L92.1,27.7z"/>
		<path class="st1" d="M96.5,28.2c0-0.1-0.1-0.2-0.1-0.4c-0.2,0.3-0.5,0.5-0.8,0.5c-0.3,0-0.6-0.1-0.8-0.3s-0.3-0.4-0.3-0.8
			c0-0.4,0.1-0.6,0.4-0.9s0.6-0.3,1-0.3h0.4v-0.4c0-0.2-0.1-0.4-0.1-0.5s-0.2-0.1-0.4-0.1c-0.2,0-0.3,0-0.4,0.2
			c-0.1,0.1-0.2,0.2-0.2,0.4h-0.6c0-0.2,0.1-0.4,0.2-0.5s0.2-0.3,0.4-0.4c0.2-0.1,0.4-0.1,0.6-0.1c0.4,0,0.6,0.1,0.8,0.3
			s0.3,0.4,0.3,0.8v1.8c0,0.3,0,0.5,0.1,0.7v0C97.1,28.2,96.5,28.2,96.5,28.2z M95.7,27.8c0.1,0,0.3,0,0.4-0.1s0.2-0.2,0.3-0.3v-0.9
			h-0.3c-0.3,0-0.5,0.1-0.6,0.2c-0.2,0.1-0.2,0.3-0.2,0.5c0,0.2,0,0.4,0.1,0.4S95.5,27.8,95.7,27.8z"/>
		<path class="st1" d="M98.6,23.8v0.9h0.5v0.5h-0.5v2.2c0,0.1,0,0.2,0.1,0.3s0.1,0.1,0.2,0.1c0.1,0,0.1,0,0.2,0l0,0.5
			c-0.1,0-0.3,0.1-0.4,0.1c-0.2,0-0.4-0.1-0.5-0.2s-0.2-0.4-0.2-0.7v-2.2h-0.5v-0.5h0.5v-0.9C98.1,23.8,98.6,23.8,98.6,23.8z"/>
		<path class="st1" d="M100.5,23.7c0,0.1,0,0.2-0.1,0.2s-0.1,0.1-0.2,0.1S100,24,100,24s-0.1-0.1-0.1-0.2s0-0.2,0.1-0.2
			s0.1-0.1,0.2-0.1s0.2,0,0.2,0.1S100.5,23.6,100.5,23.7z M100.5,28.2h-0.6v-3.5h0.6V28.2z"/>
		<path class="st1" d="M101.9,24.7l0,0.4c0.2-0.3,0.5-0.5,0.9-0.5c0.6,0,0.9,0.4,1,1.3v2.4h-0.6v-2.3c0-0.3-0.1-0.5-0.1-0.6
			s-0.2-0.2-0.4-0.2c-0.1,0-0.3,0-0.4,0.1c-0.1,0.1-0.2,0.2-0.3,0.4v2.6h-0.6v-3.5C101.4,24.7,101.9,24.7,101.9,24.7z"/>
		<path class="st1" d="M104.5,26.3c0-0.5,0.1-0.9,0.4-1.2s0.6-0.5,1-0.5s0.7,0.1,1,0.4s0.4,0.7,0.4,1.2v0.4c0,0.5-0.1,0.9-0.4,1.2
			s-0.6,0.5-1,0.5c-0.4,0-0.7-0.1-1-0.4s-0.4-0.7-0.4-1.2L104.5,26.3L104.5,26.3z M105.1,26.6c0,0.4,0.1,0.6,0.2,0.9
			s0.3,0.3,0.6,0.3c0.5,0,0.8-0.4,0.8-1.1v-0.4c0-0.4-0.1-0.6-0.2-0.9c-0.1-0.2-0.3-0.3-0.6-0.3s-0.4,0.1-0.6,0.3
			c-0.1,0.2-0.2,0.5-0.2,0.9L105.1,26.6L105.1,26.6z"/>
		<path class="st1" d="M109.9,28.2c0-0.1-0.1-0.2-0.1-0.4c-0.2,0.3-0.5,0.5-0.8,0.5c-0.3,0-0.6-0.1-0.8-0.3s-0.3-0.4-0.3-0.8
			c0-0.4,0.1-0.6,0.4-0.9s0.6-0.3,1-0.3h0.4v-0.4c0-0.2-0.1-0.4-0.1-0.5s-0.2-0.1-0.4-0.1c-0.2,0-0.3,0-0.4,0.2
			c-0.1,0.1-0.2,0.2-0.2,0.4H108c0-0.2,0.1-0.4,0.2-0.5s0.2-0.3,0.4-0.4c0.2-0.1,0.4-0.1,0.6-0.1c0.4,0,0.6,0.1,0.8,0.3
			s0.3,0.4,0.3,0.8v1.8c0,0.3,0,0.5,0.1,0.7v0C110.5,28.2,109.9,28.2,109.9,28.2z M109.1,27.8c0.1,0,0.3,0,0.4-0.1s0.2-0.2,0.3-0.3
			v-0.9h-0.3c-0.3,0-0.5,0.1-0.6,0.2c-0.2,0.1-0.2,0.3-0.2,0.5c0,0.2,0,0.4,0.1,0.4S108.9,27.8,109.1,27.8z"/>
		<path class="st1" d="M111.8,24.7l0,0.3c0.2-0.3,0.5-0.4,0.9-0.4c0.4,0,0.7,0.2,0.8,0.5c0.2-0.3,0.5-0.5,0.9-0.5c0.6,0,1,0.4,1,1.2
			v2.4h-0.6v-2.3c0-0.3-0.1-0.5-0.1-0.6s-0.2-0.2-0.5-0.2c-0.2,0-0.3,0.1-0.4,0.2s-0.2,0.3-0.2,0.5v2.4H113v-2.4
			c0-0.5-0.2-0.7-0.6-0.7c-0.3,0-0.5,0.1-0.6,0.4v2.7h-0.6v-3.5L111.8,24.7L111.8,24.7z"/>
		<path class="st1" d="M117.6,28.3c-0.4,0-0.8-0.1-1-0.4s-0.4-0.6-0.4-1.2v-0.4c0-0.5,0.1-1,0.4-1.2c0.2-0.3,0.6-0.5,1-0.5
			s0.7,0.1,0.9,0.4c0.2,0.3,0.3,0.7,0.3,1.2v0.4h-2v0.1c0,0.4,0.1,0.7,0.2,0.8s0.4,0.3,0.6,0.3c0.2,0,0.3,0,0.4-0.1
			c0.1-0.1,0.2-0.2,0.4-0.3l0.3,0.4C118.5,28.1,118.1,28.3,117.6,28.3z M117.5,25.1c-0.2,0-0.4,0.1-0.5,0.2
			c-0.1,0.2-0.2,0.4-0.2,0.8h1.4V26c0-0.3-0.1-0.6-0.2-0.7S117.7,25.1,117.5,25.1z"/>
		<path class="st1" d="M120.9,25.2c-0.1,0-0.2,0-0.3,0c-0.3,0-0.5,0.2-0.6,0.5v2.5h-0.6v-3.5h0.6l0,0.4c0.2-0.3,0.4-0.4,0.7-0.4
			c0.1,0,0.2,0,0.2,0V25.2z"/>
		<path class="st1" d="M122.2,23.7c0,0.1,0,0.2-0.1,0.2s-0.1,0.1-0.2,0.1s-0.2,0-0.2-0.1s-0.1-0.1-0.1-0.2s0-0.2,0.1-0.2
			s0.1-0.1,0.2-0.1s0.2,0,0.2,0.1S122.2,23.6,122.2,23.7z M122.1,28.2h-0.6v-3.5h0.6V28.2z"/>
		<path class="st1" d="M124.3,27.8c0.2,0,0.4-0.1,0.5-0.2c0.1-0.1,0.2-0.3,0.2-0.5h0.6c0,0.3-0.1,0.6-0.4,0.9
			c-0.2,0.2-0.5,0.3-0.8,0.3c-0.4,0-0.8-0.1-1-0.4s-0.4-0.7-0.4-1.2v-0.4c0-0.5,0.1-0.9,0.3-1.2c0.2-0.3,0.6-0.4,1-0.4
			c0.4,0,0.6,0.1,0.9,0.3c0.2,0.2,0.3,0.5,0.3,0.9h-0.6c0-0.3-0.1-0.5-0.2-0.6c-0.1-0.1-0.3-0.2-0.5-0.2c-0.3,0-0.4,0.1-0.6,0.2
			c-0.1,0.2-0.2,0.5-0.2,0.8v0.5c0,0.4,0.1,0.7,0.2,0.9C123.8,27.7,124,27.8,124.3,27.8z"/>
		<path class="st1" d="M128,28.2c0-0.1-0.1-0.2-0.1-0.4c-0.2,0.3-0.5,0.5-0.8,0.5c-0.3,0-0.6-0.1-0.8-0.3s-0.3-0.4-0.3-0.8
			c0-0.4,0.1-0.6,0.4-0.9s0.6-0.3,1-0.3h0.4v-0.4c0-0.2-0.1-0.4-0.1-0.5s-0.2-0.1-0.4-0.1c-0.2,0-0.3,0-0.4,0.2
			c-0.1,0.1-0.2,0.2-0.2,0.4h-0.6c0-0.2,0.1-0.4,0.2-0.5s0.2-0.3,0.4-0.4c0.2-0.1,0.4-0.1,0.6-0.1c0.4,0,0.6,0.1,0.8,0.3
			s0.3,0.4,0.3,0.8v1.8c0,0.3,0,0.5,0.1,0.7v0C128.6,28.2,128,28.2,128,28.2z M127.2,27.8c0.1,0,0.3,0,0.4-0.1s0.2-0.2,0.3-0.3v-0.9
			h-0.3c-0.3,0-0.5,0.1-0.6,0.2c-0.2,0.1-0.2,0.3-0.2,0.5c0,0.2,0,0.4,0.1,0.4S127,27.8,127.2,27.8z"/>
		<path class="st1" d="M129.9,24.7l0,0.4c0.2-0.3,0.5-0.5,0.9-0.5c0.6,0,0.9,0.4,1,1.3v2.4h-0.6v-2.3c0-0.3-0.1-0.5-0.1-0.6
			s-0.2-0.2-0.4-0.2c-0.1,0-0.3,0-0.4,0.1c-0.1,0.1-0.2,0.2-0.3,0.4v2.6h-0.6v-3.5C129.4,24.7,129.9,24.7,129.9,24.7z"/>
		<path class="st1" d="M134.4,28.2c0-0.1-0.1-0.2-0.1-0.4c-0.2,0.3-0.5,0.5-0.8,0.5c-0.3,0-0.6-0.1-0.8-0.3s-0.3-0.4-0.3-0.8
			c0-0.4,0.1-0.6,0.4-0.9s0.6-0.3,1-0.3h0.4v-0.4c0-0.2-0.1-0.4-0.1-0.5s-0.2-0.1-0.4-0.1c-0.2,0-0.3,0-0.4,0.2
			c-0.1,0.1-0.2,0.2-0.2,0.4h-0.6c0-0.2,0.1-0.4,0.2-0.5s0.2-0.3,0.4-0.4c0.2-0.1,0.4-0.1,0.6-0.1c0.4,0,0.6,0.1,0.8,0.3
			s0.3,0.4,0.3,0.8v1.8c0,0.3,0,0.5,0.1,0.7v0C135,28.2,134.4,28.2,134.4,28.2z M133.7,27.8c0.1,0,0.3,0,0.4-0.1s0.2-0.2,0.3-0.3
			v-0.9H134c-0.3,0-0.5,0.1-0.6,0.2c-0.2,0.1-0.2,0.3-0.2,0.5c0,0.2,0,0.4,0.1,0.4S133.5,27.8,133.7,27.8z"/>
		<path class="st1" d="M137.2,26.3c0-0.5,0.1-1,0.3-1.2c0.2-0.3,0.5-0.4,0.9-0.4c0.3,0,0.6,0.1,0.8,0.4v-1.8h0.6v5h-0.5l0-0.4
			c-0.2,0.3-0.5,0.5-0.8,0.5c-0.4,0-0.7-0.1-0.9-0.4c-0.2-0.3-0.3-0.7-0.3-1.2L137.2,26.3L137.2,26.3z M137.8,26.6
			c0,0.4,0.1,0.7,0.2,0.9c0.1,0.2,0.3,0.3,0.6,0.3c0.3,0,0.5-0.1,0.6-0.4v-1.8c-0.1-0.3-0.4-0.4-0.6-0.4c-0.3,0-0.5,0.1-0.6,0.3
			s-0.2,0.5-0.2,0.9L137.8,26.6L137.8,26.6z"/>
		<path class="st1" d="M142,28.3c-0.4,0-0.8-0.1-1-0.4s-0.4-0.6-0.4-1.2v-0.4c0-0.5,0.1-1,0.4-1.2s0.6-0.5,1-0.5s0.7,0.1,0.9,0.4
			c0.2,0.3,0.3,0.7,0.3,1.2v0.4h-2v0.1c0,0.4,0.1,0.7,0.2,0.8s0.4,0.3,0.6,0.3c0.2,0,0.3,0,0.4-0.1c0.1-0.1,0.2-0.2,0.4-0.3l0.3,0.4
			C142.9,28.1,142.5,28.3,142,28.3z M141.9,25.1c-0.2,0-0.4,0.1-0.5,0.2s-0.2,0.4-0.2,0.8h1.4V26c0-0.3-0.1-0.6-0.2-0.7
			C142.3,25.2,142.1,25.1,141.9,25.1z"/>
	</g>
	<g>
		<path class="st1" d="M94.5,33.5c0,0.5-0.2,0.9-0.4,1.2s-0.6,0.4-1.1,0.4s-0.9-0.2-1.1-0.5s-0.4-0.9-0.4-1.5v-0.9
			c0-0.6,0.1-1.1,0.4-1.5c0.3-0.4,0.7-0.5,1.2-0.5c0.5,0,0.8,0.1,1.1,0.4c0.2,0.3,0.4,0.7,0.4,1.2h-0.6c0-0.4-0.1-0.7-0.2-0.8
			c-0.1-0.2-0.4-0.2-0.6-0.2c-0.3,0-0.6,0.1-0.8,0.4S92,31.7,92,32.2v0.9c0,0.5,0.1,0.8,0.2,1.1s0.4,0.4,0.7,0.4
			c0.3,0,0.5-0.1,0.7-0.2s0.2-0.4,0.3-0.8C93.9,33.5,94.5,33.5,94.5,33.5z"/>
		<path class="st1" d="M95.9,30.6c0,0.1,0,0.2-0.1,0.2s-0.1,0.1-0.2,0.1s-0.2,0-0.2-0.1s-0.1-0.1-0.1-0.2s0-0.2,0.1-0.2
			s0.1-0.1,0.2-0.1s0.2,0,0.2,0.1S95.9,30.5,95.9,30.6z M95.9,35.1h-0.6v-3.5h0.6V35.1z"/>
		<path class="st1" d="M98.1,35.1c-0.4,0-0.8-0.1-1-0.4s-0.4-0.7-0.4-1.2v-0.4c0-0.5,0.1-1,0.4-1.2c0.2-0.3,0.6-0.5,1-0.5
			s0.7,0.1,0.9,0.4c0.2,0.3,0.3,0.7,0.3,1.2v0.4h-2v0.1c0,0.4,0.1,0.7,0.2,0.8c0.1,0.2,0.4,0.3,0.6,0.3c0.2,0,0.3,0,0.4-0.1
			c0.1-0.1,0.2-0.2,0.4-0.3l0.3,0.4C99,35,98.6,35.1,98.1,35.1z M98,31.9c-0.2,0-0.4,0.1-0.5,0.3c-0.1,0.2-0.2,0.4-0.2,0.8h1.4v-0.1
			c0-0.3-0.1-0.6-0.2-0.7S98.2,31.9,98,31.9z"/>
		<path class="st1" d="M100.5,31.5l0,0.4c0.2-0.3,0.5-0.5,0.9-0.5c0.6,0,0.9,0.4,1,1.3v2.4h-0.6v-2.3c0-0.3-0.1-0.5-0.1-0.6
			s-0.2-0.2-0.4-0.2c-0.1,0-0.3,0-0.4,0.1c-0.1,0.1-0.2,0.2-0.3,0.4v2.6H100v-3.5C100,31.5,100.5,31.5,100.5,31.5z"/>
		<path class="st1" d="M104.4,34.6c0.2,0,0.4-0.1,0.5-0.2c0.1-0.1,0.2-0.3,0.2-0.5h0.6c0,0.3-0.1,0.6-0.4,0.8
			c-0.2,0.2-0.5,0.3-0.8,0.3c-0.4,0-0.8-0.1-1-0.4s-0.4-0.7-0.4-1.2v-0.4c0-0.5,0.1-0.9,0.3-1.2c0.2-0.3,0.6-0.4,1-0.4
			c0.4,0,0.6,0.1,0.9,0.3c0.2,0.2,0.3,0.5,0.3,0.9h-0.6c0-0.3-0.1-0.5-0.2-0.6s-0.3-0.2-0.5-0.2c-0.3,0-0.4,0.1-0.6,0.2
			c-0.1,0.2-0.2,0.5-0.2,0.8v0.5c0,0.4,0.1,0.7,0.2,0.9C104,34.5,104.2,34.6,104.4,34.6z"/>
		<path class="st1" d="M107,30.6c0,0.1,0,0.2-0.1,0.2s-0.1,0.1-0.2,0.1s-0.2,0-0.2-0.1s-0.1-0.1-0.1-0.2s0-0.2,0.1-0.2
			s0.1-0.1,0.2-0.1s0.2,0,0.2,0.1S107,30.5,107,30.6z M106.9,35.1h-0.6v-3.5h0.6V35.1z"/>
		<path class="st1" d="M109.7,35.1c0-0.1-0.1-0.2-0.1-0.4c-0.2,0.3-0.5,0.5-0.8,0.5c-0.3,0-0.6-0.1-0.8-0.3s-0.3-0.4-0.3-0.8
			c0-0.4,0.1-0.7,0.4-0.9s0.6-0.3,1-0.3h0.4v-0.4c0-0.2-0.1-0.4-0.1-0.5s-0.2-0.1-0.4-0.1c-0.2,0-0.3,0-0.4,0.2
			c-0.1,0.1-0.2,0.2-0.2,0.4h-0.6c0-0.2,0.1-0.4,0.2-0.5s0.2-0.3,0.4-0.4c0.2-0.1,0.4-0.1,0.6-0.1c0.4,0,0.6,0.1,0.8,0.3
			s0.3,0.4,0.3,0.8v1.8c0,0.3,0,0.5,0.1,0.7v0C110.3,35.1,109.7,35.1,109.7,35.1z M108.9,34.6c0.1,0,0.3,0,0.4-0.1s0.2-0.2,0.3-0.3
			v-0.8h-0.3c-0.3,0-0.5,0.1-0.6,0.2c-0.2,0.1-0.2,0.3-0.2,0.5c0,0.2,0,0.3,0.1,0.4S108.7,34.6,108.9,34.6z"/>
		<path class="st1" d="M112.8,34.2c0-0.1-0.1-0.2-0.1-0.3s-0.3-0.2-0.5-0.3c-0.3-0.1-0.5-0.2-0.7-0.3s-0.2-0.2-0.3-0.3
			c-0.1-0.1-0.1-0.3-0.1-0.4c0-0.3,0.1-0.5,0.3-0.7c0.2-0.2,0.5-0.3,0.8-0.3c0.4,0,0.6,0.1,0.8,0.3c0.2,0.2,0.3,0.5,0.3,0.8h-0.6
			c0-0.2-0.1-0.3-0.2-0.4s-0.2-0.2-0.4-0.2s-0.3,0-0.4,0.1c-0.1,0.1-0.1,0.2-0.1,0.3c0,0.1,0,0.2,0.1,0.3s0.2,0.2,0.5,0.3
			c0.4,0.2,0.7,0.3,0.9,0.5c0.2,0.2,0.2,0.4,0.2,0.6c0,0.3-0.1,0.6-0.3,0.7s-0.5,0.3-0.9,0.3c-0.4,0-0.7-0.1-0.9-0.3
			S111,34.3,111,34h0.6c0,0.2,0.1,0.3,0.2,0.5c0.1,0.1,0.3,0.2,0.5,0.2c0.2,0,0.3,0,0.4-0.1C112.8,34.4,112.8,34.3,112.8,34.2z"/>
		<path class="st1" d="M117.9,33.8c0-0.2-0.1-0.4-0.2-0.5s-0.4-0.2-0.7-0.4s-0.6-0.2-0.8-0.4c-0.2-0.1-0.3-0.3-0.4-0.5
			s-0.1-0.4-0.1-0.6c0-0.4,0.1-0.7,0.4-0.9s0.6-0.4,1-0.4c0.3,0,0.5,0.1,0.8,0.2s0.4,0.3,0.5,0.5c0.1,0.2,0.2,0.5,0.2,0.7h-0.6
			c0-0.3-0.1-0.5-0.2-0.7c-0.1-0.2-0.4-0.2-0.6-0.2c-0.2,0-0.4,0.1-0.6,0.2c-0.1,0.1-0.2,0.3-0.2,0.6c0,0.2,0.1,0.4,0.2,0.5
			s0.4,0.3,0.7,0.4c0.5,0.2,0.8,0.3,1,0.6c0.2,0.2,0.3,0.5,0.3,0.9c0,0.4-0.1,0.7-0.4,0.9s-0.6,0.3-1,0.3c-0.3,0-0.5-0.1-0.8-0.2
			c-0.2-0.1-0.4-0.3-0.6-0.5c-0.1-0.2-0.2-0.5-0.2-0.8h0.6c0,0.3,0.1,0.5,0.2,0.7s0.4,0.2,0.7,0.2c0.3,0,0.5-0.1,0.6-0.2
			C117.8,34.3,117.9,34.1,117.9,33.8z"/>
		<path class="st1" d="M119,33.1c0-0.5,0.1-0.9,0.4-1.2s0.6-0.5,1-0.5s0.7,0.1,1,0.4c0.2,0.3,0.4,0.7,0.4,1.2v0.4
			c0,0.5-0.1,0.9-0.4,1.2c-0.2,0.3-0.6,0.5-1,0.5c-0.4,0-0.7-0.2-1-0.4c-0.2-0.3-0.4-0.7-0.4-1.2L119,33.1L119,33.1z M119.6,33.5
			c0,0.4,0.1,0.7,0.2,0.9c0.1,0.2,0.3,0.3,0.6,0.3c0.5,0,0.8-0.4,0.8-1.1v-0.4c0-0.4-0.1-0.7-0.2-0.9c-0.1-0.2-0.3-0.3-0.6-0.3
			s-0.4,0.1-0.6,0.3c-0.1,0.2-0.2,0.5-0.2,0.9L119.6,33.5L119.6,33.5z"/>
		<path class="st1" d="M123.8,34.6c0.2,0,0.4-0.1,0.5-0.2c0.1-0.1,0.2-0.3,0.2-0.5h0.6c0,0.3-0.1,0.6-0.4,0.8
			c-0.2,0.2-0.5,0.3-0.8,0.3c-0.4,0-0.8-0.1-1-0.4s-0.4-0.7-0.4-1.2v-0.4c0-0.5,0.1-0.9,0.3-1.2c0.2-0.3,0.6-0.4,1-0.4
			c0.4,0,0.6,0.1,0.9,0.3c0.2,0.2,0.3,0.5,0.3,0.9h-0.6c0-0.3-0.1-0.5-0.2-0.6s-0.3-0.2-0.5-0.2c-0.3,0-0.4,0.1-0.6,0.2
			c-0.1,0.2-0.2,0.5-0.2,0.8v0.5c0,0.4,0.1,0.7,0.2,0.9C123.3,34.5,123.5,34.6,123.8,34.6z"/>
		<path class="st1" d="M126.3,30.6c0,0.1,0,0.2-0.1,0.2s-0.1,0.1-0.2,0.1s-0.2,0-0.2-0.1s-0.1-0.1-0.1-0.2s0-0.2,0.1-0.2
			s0.1-0.1,0.2-0.1s0.2,0,0.2,0.1S126.3,30.5,126.3,30.6z M126.3,35.1h-0.6v-3.5h0.6V35.1z"/>
		<path class="st1" d="M129,35.1c0-0.1-0.1-0.2-0.1-0.4c-0.2,0.3-0.5,0.5-0.8,0.5c-0.3,0-0.6-0.1-0.8-0.3s-0.3-0.4-0.3-0.8
			c0-0.4,0.1-0.7,0.4-0.9s0.6-0.3,1-0.3h0.4v-0.4c0-0.2-0.1-0.4-0.1-0.5s-0.2-0.1-0.4-0.1c-0.2,0-0.3,0-0.4,0.2
			c-0.1,0.1-0.2,0.2-0.2,0.4h-0.6c0-0.2,0.1-0.4,0.2-0.5s0.2-0.3,0.4-0.4c0.2-0.1,0.4-0.1,0.6-0.1c0.4,0,0.6,0.1,0.8,0.3
			s0.3,0.4,0.3,0.8v1.8c0,0.3,0,0.5,0.1,0.7v0C129.6,35.1,129,35.1,129,35.1z M128.2,34.6c0.1,0,0.3,0,0.4-0.1s0.2-0.2,0.3-0.3v-0.8
			h-0.3c-0.3,0-0.5,0.1-0.6,0.2c-0.2,0.1-0.2,0.3-0.2,0.5c0,0.2,0,0.3,0.1,0.4S128,34.6,128.2,34.6z"/>
		<path class="st1" d="M131,35.1h-0.6v-5h0.6V35.1z"/>
		<path class="st1" d="M133.2,35.1c-0.4,0-0.8-0.1-1-0.4s-0.4-0.7-0.4-1.2v-0.4c0-0.5,0.1-1,0.4-1.2c0.2-0.3,0.6-0.5,1-0.5
			s0.7,0.1,0.9,0.4c0.2,0.3,0.3,0.7,0.3,1.2v0.4h-2v0.1c0,0.4,0.1,0.7,0.2,0.8c0.1,0.2,0.4,0.3,0.6,0.3c0.2,0,0.3,0,0.4-0.1
			c0.1-0.1,0.2-0.2,0.4-0.3l0.3,0.4C134.1,35,133.7,35.1,133.2,35.1z M133.1,31.9c-0.2,0-0.4,0.1-0.5,0.3c-0.1,0.2-0.2,0.4-0.2,0.8
			h1.4v-0.1c0-0.3-0.1-0.6-0.2-0.7S133.4,31.9,133.1,31.9z"/>
		<path class="st1" d="M136.8,34.2c0-0.1-0.1-0.2-0.1-0.3s-0.3-0.2-0.5-0.3c-0.3-0.1-0.5-0.2-0.7-0.3s-0.2-0.2-0.3-0.3
			c-0.1-0.1-0.1-0.3-0.1-0.4c0-0.3,0.1-0.5,0.3-0.7c0.2-0.2,0.5-0.3,0.8-0.3c0.4,0,0.6,0.1,0.8,0.3c0.2,0.2,0.3,0.5,0.3,0.8h-0.6
			c0-0.2-0.1-0.3-0.2-0.4s-0.2-0.2-0.4-0.2s-0.3,0-0.4,0.1c-0.1,0.1-0.1,0.2-0.1,0.3c0,0.1,0,0.2,0.1,0.3s0.2,0.2,0.5,0.3
			c0.4,0.2,0.7,0.3,0.9,0.5c0.2,0.2,0.2,0.4,0.2,0.6c0,0.3-0.1,0.6-0.3,0.7s-0.5,0.3-0.9,0.3c-0.4,0-0.7-0.1-0.9-0.3
			S135,34.3,135,34h0.6c0,0.2,0.1,0.3,0.2,0.5c0.1,0.1,0.3,0.2,0.5,0.2c0.2,0,0.3,0,0.4-0.1C136.8,34.4,136.8,34.3,136.8,34.2z"/>
		<path class="st1" d="M138.2,34.7c0-0.1,0-0.2,0.1-0.3s0.2-0.1,0.3-0.1c0.1,0,0.2,0,0.3,0.1s0.1,0.2,0.1,0.3s0,0.2-0.1,0.2
			c-0.1,0.1-0.2,0.1-0.3,0.1s-0.2,0-0.3-0.1C138.2,34.9,138.2,34.8,138.2,34.7z"/>
	</g>
	<g>
		<path class="st1" d="M93.6,40.7c0-0.2-0.1-0.4-0.2-0.5s-0.4-0.2-0.7-0.4s-0.6-0.2-0.8-0.4c-0.2-0.1-0.3-0.3-0.4-0.5
			c-0.1-0.2-0.1-0.4-0.1-0.6c0-0.4,0.1-0.7,0.4-0.9c0.2-0.2,0.6-0.4,1-0.4c0.3,0,0.5,0.1,0.8,0.2s0.4,0.3,0.5,0.5s0.2,0.5,0.2,0.7
			h-0.6c0-0.3-0.1-0.5-0.2-0.7c-0.1-0.2-0.4-0.2-0.6-0.2c-0.2,0-0.4,0.1-0.6,0.2c-0.1,0.1-0.2,0.3-0.2,0.6c0,0.2,0.1,0.4,0.2,0.5
			s0.4,0.3,0.7,0.4c0.5,0.2,0.8,0.3,1,0.6s0.3,0.5,0.3,0.9c0,0.4-0.1,0.7-0.4,0.9s-0.6,0.3-1,0.3c-0.3,0-0.5-0.1-0.8-0.2
			s-0.4-0.3-0.6-0.5c-0.1-0.2-0.2-0.5-0.2-0.8h0.6c0,0.3,0.1,0.5,0.2,0.7s0.4,0.2,0.7,0.2c0.3,0,0.5-0.1,0.6-0.2
			S93.6,40.9,93.6,40.7z"/>
		<path class="st1" d="M96.2,42c-0.4,0-0.8-0.1-1-0.4s-0.4-0.7-0.4-1.2V40c0-0.5,0.1-1,0.4-1.2s0.6-0.5,1-0.5s0.7,0.1,0.9,0.4
			c0.2,0.3,0.3,0.7,0.3,1.2v0.4h-2v0.1c0,0.4,0.1,0.7,0.2,0.8s0.4,0.3,0.6,0.3c0.2,0,0.3,0,0.4-0.1c0.1-0.1,0.2-0.2,0.4-0.3l0.3,0.4
			C97.1,41.8,96.7,42,96.2,42z M96.1,38.8c-0.2,0-0.4,0.1-0.5,0.2s-0.2,0.4-0.2,0.8h1.4v-0.1c0-0.3-0.1-0.6-0.2-0.7
			C96.5,38.9,96.4,38.8,96.1,38.8z"/>
		<path class="st1" d="M98,40c0-0.5,0.1-1,0.3-1.2c0.2-0.3,0.5-0.4,0.9-0.4c0.3,0,0.6,0.1,0.8,0.4v-1.8h0.6v5H100l0-0.4
			c-0.2,0.3-0.5,0.5-0.8,0.5c-0.4,0-0.7-0.1-0.9-0.4c-0.2-0.3-0.3-0.7-0.3-1.2L98,40L98,40z M98.6,40.3c0,0.4,0.1,0.7,0.2,0.9
			c0.1,0.2,0.3,0.3,0.6,0.3c0.3,0,0.5-0.2,0.6-0.4v-1.8c-0.1-0.3-0.4-0.4-0.6-0.4c-0.3,0-0.5,0.1-0.6,0.3s-0.2,0.5-0.2,0.9
			L98.6,40.3L98.6,40.3z"/>
		<path class="st1" d="M102.7,42c-0.4,0-0.8-0.1-1-0.4s-0.4-0.7-0.4-1.2V40c0-0.5,0.1-1,0.4-1.2s0.6-0.5,1-0.5s0.7,0.1,0.9,0.4
			c0.2,0.3,0.3,0.7,0.3,1.2v0.4h-2v0.1c0,0.4,0.1,0.7,0.2,0.8s0.4,0.3,0.6,0.3c0.2,0,0.3,0,0.4-0.1c0.1-0.1,0.2-0.2,0.4-0.3l0.3,0.4
			C103.6,41.8,103.2,42,102.7,42z M102.6,38.8c-0.2,0-0.4,0.1-0.5,0.2s-0.2,0.4-0.2,0.8h1.4v-0.1c0-0.3-0.1-0.6-0.2-0.7
			C103,38.9,102.9,38.8,102.6,38.8z"/>
		<path class="st1" d="M108.4,40.7h-1.6l-0.4,1.2h-0.6l1.5-4.8h0.5l1.5,4.8h-0.6L108.4,40.7z M107,40.1h1.3l-0.6-2.2L107,40.1z"/>
		<path class="st1" d="M111.5,38.9c-0.1,0-0.2,0-0.3,0c-0.3,0-0.5,0.2-0.6,0.5v2.5H110v-3.5h0.6l0,0.4c0.2-0.3,0.4-0.4,0.7-0.4
			c0.1,0,0.2,0,0.2,0V38.9z"/>
		<path class="st1" d="M111.9,40c0-0.5,0.1-1,0.3-1.3c0.2-0.3,0.5-0.4,0.9-0.4c0.4,0,0.6,0.2,0.8,0.5l0-0.4h0.5v3.6
			c0,0.4-0.1,0.8-0.3,1c-0.2,0.2-0.5,0.3-0.9,0.3c-0.2,0-0.4,0-0.6-0.1s-0.4-0.2-0.5-0.3l0.2-0.4c0.2,0.2,0.5,0.3,0.8,0.3
			c0.5,0,0.7-0.3,0.8-0.8v-0.5c-0.2,0.3-0.5,0.4-0.8,0.4c-0.4,0-0.6-0.1-0.9-0.4s-0.3-0.7-0.3-1.2L111.9,40L111.9,40z M112.4,40.3
			c0,0.4,0.1,0.7,0.2,0.9c0.1,0.2,0.3,0.3,0.6,0.3c0.3,0,0.5-0.2,0.6-0.4v-1.8c-0.1-0.3-0.4-0.4-0.6-0.4s-0.5,0.1-0.6,0.3
			s-0.2,0.5-0.2,0.9V40.3z"/>
		<path class="st1" d="M116.6,42c-0.4,0-0.8-0.1-1-0.4s-0.4-0.7-0.4-1.2V40c0-0.5,0.1-1,0.4-1.2c0.2-0.3,0.6-0.5,1-0.5
			s0.7,0.1,0.9,0.4c0.2,0.3,0.3,0.7,0.3,1.2v0.4h-2v0.1c0,0.4,0.1,0.7,0.2,0.8c0.1,0.2,0.4,0.3,0.6,0.3c0.2,0,0.3,0,0.4-0.1
			c0.1-0.1,0.2-0.2,0.4-0.3l0.3,0.4C117.5,41.8,117.1,42,116.6,42z M116.5,38.8c-0.2,0-0.4,0.1-0.5,0.2c-0.1,0.2-0.2,0.4-0.2,0.8
			h1.4v-0.1c0-0.3-0.1-0.6-0.2-0.7S116.7,38.8,116.5,38.8z"/>
		<path class="st1" d="M119,38.3l0,0.4c0.2-0.3,0.5-0.5,0.9-0.5c0.6,0,0.9,0.4,1,1.3v2.4h-0.6v-2.3c0-0.3-0.1-0.5-0.1-0.6
			s-0.2-0.2-0.4-0.2c-0.1,0-0.3,0-0.4,0.1c-0.1,0.1-0.2,0.2-0.3,0.4v2.6h-0.6v-3.5C118.4,38.4,119,38.4,119,38.3z"/>
		<path class="st1" d="M122.4,37.5v0.9h0.5v0.5h-0.5V41c0,0.1,0,0.2,0.1,0.3s0.1,0.1,0.2,0.1c0.1,0,0.1,0,0.2,0l0,0.5
			c-0.1,0-0.3,0.1-0.4,0.1c-0.2,0-0.4-0.1-0.5-0.2s-0.2-0.4-0.2-0.7v-2.2h-0.5v-0.5h0.5v-0.9H122.4z"/>
		<path class="st1" d="M124.4,37.4c0,0.1,0,0.2-0.1,0.2s-0.1,0.1-0.2,0.1s-0.2,0-0.2-0.1s-0.1-0.2-0.1-0.2s0-0.2,0.1-0.2
			s0.1-0.1,0.2-0.1s0.2,0,0.2,0.1S124.4,37.3,124.4,37.4z M124.3,41.9h-0.6v-3.5h0.6V41.9z"/>
		<path class="st1" d="M125.8,38.3l0,0.4c0.2-0.3,0.5-0.5,0.9-0.5c0.6,0,0.9,0.4,1,1.3v2.4H127v-2.3c0-0.3-0.1-0.5-0.1-0.6
			s-0.2-0.2-0.4-0.2c-0.1,0-0.3,0-0.4,0.1c-0.1,0.1-0.2,0.2-0.3,0.4v2.6h-0.6v-3.5C125.2,38.4,125.8,38.4,125.8,38.3z"/>
		<path class="st1" d="M130.3,41.9c0-0.1-0.1-0.2-0.1-0.4c-0.2,0.3-0.5,0.5-0.8,0.5c-0.3,0-0.6-0.1-0.8-0.3s-0.3-0.4-0.3-0.8
			c0-0.4,0.1-0.7,0.4-0.9s0.6-0.3,1-0.3h0.4v-0.4c0-0.2-0.1-0.4-0.1-0.5s-0.2-0.1-0.4-0.1c-0.2,0-0.3,0-0.4,0.2
			c-0.1,0.1-0.2,0.2-0.2,0.4h-0.6c0-0.2,0.1-0.4,0.2-0.5s0.2-0.3,0.4-0.4c0.2-0.1,0.4-0.1,0.6-0.1c0.4,0,0.6,0.1,0.8,0.3
			s0.3,0.4,0.3,0.8v1.8c0,0.3,0,0.5,0.1,0.7v0H130.3z M129.5,41.4c0.1,0,0.3,0,0.4-0.1s0.2-0.2,0.3-0.3v-0.8h-0.3
			c-0.3,0-0.5,0.1-0.6,0.2c-0.2,0.1-0.2,0.3-0.2,0.5c0,0.2,0,0.3,0.1,0.4S129.3,41.4,129.5,41.4z"/>
		<path class="st1" d="M131.7,41.6c0-0.1,0-0.2,0.1-0.3s0.2-0.1,0.3-0.1s0.2,0,0.3,0.1s0.1,0.2,0.1,0.3s0,0.2-0.1,0.2
			s-0.2,0.1-0.3,0.1s-0.2,0-0.3-0.1S131.7,41.7,131.7,41.6z"/>
	</g>
	<g>
		<path class="st1" d="M93.7,52.9h-1.3l-0.3,1h-1l1.5-4.8h0.9l1.5,4.8h-1L93.7,52.9z M93.2,47.8h1l-0.9,1h-0.8L93.2,47.8z
			 M92.6,52.1h0.9L93,50.4L92.6,52.1z"/>
		<path class="st1" d="M97.1,51.2l-0.3,0c-0.2,0-0.4,0.1-0.5,0.3v2.3h-0.9v-3.5h0.9l0,0.4c0.1-0.3,0.4-0.5,0.6-0.5
			c0.1,0,0.2,0,0.3,0L97.1,51.2z"/>
		<path class="st1" d="M99,53.9c-0.5,0-0.9-0.1-1.1-0.4c-0.3-0.3-0.4-0.7-0.4-1.2V52c0-0.6,0.1-1,0.4-1.3c0.2-0.3,0.6-0.5,1.1-0.5
			s0.8,0.1,1,0.4c0.2,0.3,0.3,0.7,0.3,1.3v0.5h-1.9c0,0.3,0.1,0.5,0.2,0.6c0.1,0.1,0.3,0.2,0.5,0.2c0.3,0,0.6-0.1,0.8-0.3l0.4,0.6
			c-0.1,0.2-0.3,0.3-0.5,0.4C99.5,53.9,99.2,53.9,99,53.9z M98.4,51.8h0.9v-0.1c0-0.2,0-0.4-0.1-0.5c-0.1-0.1-0.2-0.2-0.3-0.2
			s-0.3,0.1-0.4,0.2S98.4,51.5,98.4,51.8z"/>
		<path class="st1" d="M102.5,53.9c0,0-0.1-0.2-0.1-0.3c-0.2,0.2-0.4,0.3-0.7,0.3c-0.3,0-0.5-0.1-0.7-0.3c-0.2-0.2-0.3-0.5-0.3-0.8
			c0-0.4,0.1-0.7,0.4-0.9s0.6-0.3,1-0.3h0.3v-0.3c0-0.2,0-0.3-0.1-0.3S102.1,51,102,51c-0.2,0-0.4,0.1-0.4,0.4h-0.9
			c0-0.3,0.1-0.6,0.4-0.8c0.2-0.2,0.6-0.3,0.9-0.3c0.4,0,0.7,0.1,0.9,0.3c0.2,0.2,0.3,0.5,0.3,0.9v1.7c0,0.3,0.1,0.5,0.1,0.7v0.1
			L102.5,53.9L102.5,53.9z M101.9,53.2c0.1,0,0.2,0,0.3-0.1c0.1,0,0.1-0.1,0.2-0.2v-0.7h-0.2c-0.2,0-0.3,0-0.4,0.2s-0.1,0.2-0.1,0.4
			C101.6,53.1,101.7,53.2,101.9,53.2z"/>
		<path class="st1" d="M108,51.8h-1.5v1.3h1.8v0.8h-2.7v-4.8h2.7v0.8h-1.8V51h1.5L108,51.8L108,51.8z"/>
		<path class="st1" d="M110.4,52.9c0-0.1,0-0.2-0.1-0.2c-0.1-0.1-0.2-0.2-0.5-0.3c-0.4-0.2-0.6-0.3-0.8-0.5
			c-0.1-0.2-0.2-0.4-0.2-0.6c0-0.3,0.1-0.6,0.3-0.8c0.2-0.2,0.5-0.3,0.9-0.3c0.4,0,0.7,0.1,0.9,0.3c0.2,0.2,0.4,0.5,0.4,0.8h-0.9
			c0-0.3-0.1-0.4-0.4-0.4c-0.1,0-0.2,0-0.2,0.1s-0.1,0.2-0.1,0.3c0,0.1,0,0.2,0.1,0.2c0.1,0.1,0.2,0.2,0.5,0.3
			c0.4,0.1,0.6,0.3,0.8,0.5c0.2,0.2,0.2,0.4,0.2,0.7c0,0.3-0.1,0.6-0.4,0.8s-0.6,0.3-0.9,0.3c-0.3,0-0.5,0-0.7-0.2s-0.4-0.2-0.5-0.4
			c-0.1-0.2-0.2-0.4-0.2-0.6h0.9c0,0.2,0,0.3,0.1,0.4s0.2,0.1,0.4,0.1C110.2,53.2,110.4,53.1,110.4,52.9z"/>
		<path class="st1" d="M112.9,49.4v0.9h0.5V51h-0.5v1.8c0,0.1,0,0.2,0.1,0.3s0.1,0.1,0.2,0.1c0.1,0,0.2,0,0.2,0l0,0.7
			c-0.2,0.1-0.3,0.1-0.5,0.1c-0.6,0-0.9-0.3-0.9-1V51h-0.4v-0.7h0.4v-0.9L112.9,49.4L112.9,49.4z"/>
		<path class="st1" d="M115.6,53.9c0,0-0.1-0.2-0.1-0.3c-0.2,0.2-0.4,0.3-0.7,0.3c-0.3,0-0.5-0.1-0.7-0.3c-0.2-0.2-0.3-0.5-0.3-0.8
			c0-0.4,0.1-0.7,0.4-0.9s0.6-0.3,1-0.3h0.3v-0.3c0-0.2,0-0.3-0.1-0.3s-0.1-0.1-0.2-0.1c-0.2,0-0.4,0.1-0.4,0.4h-0.9
			c0-0.3,0.1-0.6,0.4-0.8c0.2-0.2,0.6-0.3,0.9-0.3c0.4,0,0.7,0.1,0.9,0.3c0.2,0.2,0.3,0.5,0.3,0.9v1.7c0,0.3,0.1,0.5,0.1,0.7v0.1
			L115.6,53.9L115.6,53.9z M115,53.2c0.1,0,0.2,0,0.3-0.1c0.1,0,0.1-0.1,0.2-0.2v-0.7h-0.2c-0.2,0-0.3,0-0.4,0.2s-0.1,0.2-0.1,0.4
			C114.7,53.1,114.8,53.2,115,53.2z"/>
		<path class="st1" d="M116.9,52c0-0.6,0.1-1,0.3-1.3c0.2-0.3,0.5-0.4,0.9-0.4c0.3,0,0.5,0.1,0.7,0.3v-1.8h0.9v5h-0.8l0-0.4
			c-0.2,0.3-0.4,0.4-0.7,0.4c-0.4,0-0.7-0.1-0.9-0.4c-0.2-0.3-0.3-0.7-0.3-1.2L116.9,52L116.9,52z M117.9,52.2c0,0.3,0,0.6,0.1,0.7
			s0.2,0.2,0.4,0.2c0.2,0,0.3-0.1,0.4-0.2v-1.6c-0.1-0.2-0.2-0.3-0.4-0.3c-0.2,0-0.3,0.1-0.4,0.2c-0.1,0.1-0.1,0.4-0.1,0.7
			L117.9,52.2L117.9,52.2z"/>
		<path class="st1" d="M120.3,52c0-0.5,0.1-1,0.4-1.3s0.6-0.5,1.1-0.5c0.4,0,0.8,0.2,1.1,0.5c0.2,0.3,0.4,0.7,0.4,1.3v0.2
			c0,0.5-0.1,1-0.4,1.3c-0.2,0.3-0.6,0.5-1.1,0.5c-0.5,0-0.8-0.2-1.1-0.5c-0.2-0.3-0.4-0.7-0.4-1.3L120.3,52L120.3,52z M121.2,52.2
			c0,0.6,0.2,1,0.5,1c0.3,0,0.5-0.3,0.5-0.8V52c0-0.3,0-0.6-0.1-0.7c-0.1-0.2-0.2-0.2-0.4-0.2s-0.3,0.1-0.4,0.2
			c-0.1,0.2-0.1,0.4-0.1,0.7L121.2,52.2L121.2,52.2z"/>
		<path class="st1" d="M126.4,52.3l0.5-2h1l-1.2,4.1c-0.2,0.6-0.5,0.9-1,0.9c-0.1,0-0.2,0-0.4-0.1v-0.7h0.1c0.1,0,0.2,0,0.3-0.1
			c0.1-0.1,0.1-0.2,0.2-0.3l0.1-0.2l-1-3.6h1L126.4,52.3z"/>
	</g>
	<g>
		<path class="st1" d="M92.4,59.3V61h-1v-4.8h1.6c0.5,0,0.9,0.2,1.1,0.4s0.4,0.7,0.4,1.1s-0.1,0.8-0.4,1.1s-0.7,0.4-1.2,0.4H92.4z
			 M92.4,58.5H93c0.2,0,0.3-0.1,0.4-0.2s0.1-0.3,0.1-0.5c0-0.2-0.1-0.4-0.1-0.6c-0.1-0.1-0.2-0.2-0.4-0.2h-0.7L92.4,58.5L92.4,58.5z
			"/>
		<path class="st1" d="M95.1,59.1c0-0.5,0.1-1,0.4-1.3s0.6-0.5,1.1-0.5s0.8,0.2,1.1,0.5c0.2,0.3,0.4,0.7,0.4,1.3v0.2
			c0,0.5-0.1,1-0.4,1.3c-0.2,0.3-0.6,0.5-1.1,0.5c-0.5,0-0.8-0.2-1.1-0.5c-0.2-0.3-0.4-0.7-0.4-1.3L95.1,59.1L95.1,59.1z M96,59.4
			c0,0.6,0.2,1,0.5,1c0.3,0,0.5-0.3,0.5-0.8v-0.4c0-0.3,0-0.6-0.1-0.7c-0.1-0.2-0.2-0.2-0.4-0.2s-0.3,0.1-0.4,0.2
			C96,58.6,96,58.8,96,59.2L96,59.4L96,59.4z"/>
		<path class="st1" d="M99.5,61h-0.9v-5h0.9V61z"/>
		<path class="st1" d="M101.2,61h-0.9v-3.5h0.9V61z M100.9,56h1l-0.9,1h-0.8L100.9,56z"/>
		<path class="st1" d="M103,56.6v0.9h0.5v0.7H103V60c0,0.1,0,0.2,0.1,0.3s0.1,0.1,0.2,0.1c0.1,0,0.2,0,0.2,0l0,0.7
			c-0.2,0.1-0.3,0.1-0.5,0.1c-0.6,0-0.9-0.3-0.9-1v-1.9h-0.4v-0.7h0.4v-0.9L103,56.6L103,56.6z"/>
		<path class="st1" d="M104,56.6c0-0.1,0.1-0.3,0.1-0.3s0.2-0.1,0.4-0.1c0.1,0,0.3,0,0.4,0.1s0.1,0.2,0.1,0.3s0,0.3-0.1,0.3
			c-0.1,0.1-0.2,0.1-0.4,0.1c-0.2,0-0.3,0-0.4-0.1S104,56.7,104,56.6z M105,61h-0.9v-3.5h0.9V61z"/>
		<path class="st1" d="M107,60.3c0.3,0,0.4-0.2,0.4-0.5h0.9c0,0.4-0.1,0.7-0.4,0.9c-0.2,0.2-0.5,0.4-0.9,0.4c-0.5,0-0.8-0.1-1.1-0.4
			c-0.2-0.3-0.4-0.7-0.4-1.3v-0.3c0-0.6,0.1-1,0.4-1.3c0.2-0.3,0.6-0.4,1.1-0.4c0.4,0,0.7,0.1,0.9,0.4s0.3,0.6,0.3,1h-0.9
			c0-0.2,0-0.3-0.1-0.5s-0.2-0.2-0.3-0.2c-0.2,0-0.3,0.1-0.4,0.2c-0.1,0.1-0.1,0.3-0.1,0.7v0.4c0,0.3,0,0.5,0,0.6s0.1,0.2,0.1,0.2
			S106.9,60.3,107,60.3z"/>
		<path class="st1" d="M110.5,61c0,0-0.1-0.2-0.1-0.3c-0.2,0.2-0.4,0.3-0.7,0.3c-0.3,0-0.5-0.1-0.7-0.3c-0.2-0.2-0.3-0.5-0.3-0.8
			c0-0.4,0.1-0.7,0.4-0.9s0.6-0.3,1-0.3h0.3v-0.3c0-0.2,0-0.3-0.1-0.3s-0.1-0.1-0.2-0.1c-0.2,0-0.4,0.1-0.4,0.4h-0.9
			c0-0.3,0.1-0.6,0.4-0.8c0.2-0.2,0.6-0.3,0.9-0.3c0.4,0,0.7,0.1,0.9,0.3c0.2,0.2,0.3,0.5,0.3,0.9v1.7c0,0.3,0.1,0.5,0.1,0.7V61
			L110.5,61L110.5,61z M109.9,60.4c0.1,0,0.2,0,0.3-0.1c0.1,0,0.1-0.1,0.2-0.2v-0.7h-0.2c-0.2,0-0.3,0-0.4,0.2s-0.1,0.2-0.1,0.4
			C109.6,60.2,109.7,60.4,109.9,60.4z"/>
		<path class="st1" d="M113.6,60.1c0-0.1,0-0.2-0.1-0.2c-0.1-0.1-0.2-0.2-0.5-0.3c-0.4-0.2-0.6-0.3-0.8-0.5
			c-0.1-0.2-0.2-0.4-0.2-0.6c0-0.3,0.1-0.6,0.3-0.8c0.2-0.2,0.5-0.3,0.9-0.3c0.4,0,0.7,0.1,0.9,0.3c0.2,0.2,0.4,0.5,0.4,0.8h-0.9
			c0-0.3-0.1-0.4-0.4-0.4c-0.1,0-0.2,0-0.2,0.1s-0.1,0.2-0.1,0.3c0,0.1,0,0.2,0.1,0.2c0.1,0.1,0.2,0.2,0.5,0.3
			c0.4,0.1,0.6,0.3,0.8,0.5c0.2,0.2,0.2,0.4,0.2,0.7c0,0.3-0.1,0.6-0.4,0.8s-0.6,0.3-0.9,0.3c-0.3,0-0.5,0-0.7-0.2s-0.4-0.2-0.5-0.4
			c-0.1-0.2-0.2-0.4-0.2-0.6h0.9c0,0.2,0,0.3,0.1,0.4s0.2,0.1,0.4,0.1C113.4,60.4,113.6,60.3,113.6,60.1z"/>
		<path class="st1" d="M117.6,59.3V61h-1v-4.8h1.6c0.5,0,0.9,0.2,1.1,0.4s0.4,0.7,0.4,1.1s-0.1,0.8-0.4,1.1s-0.7,0.4-1.2,0.4H117.6z
			 M117.6,58.5h0.7c0.2,0,0.3-0.1,0.4-0.2c0.1-0.1,0.1-0.3,0.1-0.5c0-0.2-0.1-0.4-0.1-0.6s-0.2-0.2-0.4-0.2h-0.7L117.6,58.5
			L117.6,58.5z"/>
		<path class="st1" d="M122.1,60.7c-0.2,0.3-0.4,0.4-0.8,0.4c-0.3,0-0.6-0.1-0.7-0.3c-0.2-0.2-0.2-0.5-0.2-1v-2.3h0.9v2.3
			c0,0.3,0.1,0.5,0.3,0.5c0.2,0,0.4-0.1,0.5-0.3v-2.6h0.9V61h-0.9L122.1,60.7z M121.9,56h1l-0.9,1h-0.8L121.9,56z"/>
		<path class="st1" d="M126.5,59.4c0,0.6-0.1,1-0.3,1.3c-0.2,0.3-0.5,0.4-0.9,0.4c-0.3,0-0.6-0.1-0.7-0.4l0,0.3h-0.9v-5h0.9v1.8
			c0.2-0.2,0.4-0.3,0.7-0.3c0.4,0,0.7,0.1,0.9,0.4c0.2,0.3,0.3,0.7,0.3,1.2L126.5,59.4L126.5,59.4z M125.6,59.1c0-0.4,0-0.6-0.1-0.8
			c-0.1-0.1-0.2-0.2-0.4-0.2c-0.2,0-0.3,0.1-0.4,0.3v1.6c0.1,0.2,0.2,0.2,0.4,0.2c0.2,0,0.3-0.1,0.4-0.2c0.1-0.1,0.1-0.3,0.1-0.7
			L125.6,59.1L125.6,59.1z"/>
		<path class="st1" d="M128,61h-0.9v-5h0.9V61z"/>
		<path class="st1" d="M128.7,56.6c0-0.1,0.1-0.3,0.1-0.3s0.2-0.1,0.4-0.1s0.3,0,0.4,0.1s0.1,0.2,0.1,0.3s-0.1,0.3-0.1,0.3
			s-0.2,0.1-0.4,0.1s-0.3,0-0.4-0.1S128.7,56.7,128.7,56.6z M129.7,61h-0.9v-3.5h0.9V61z"/>
		<path class="st1" d="M131.7,60.3c0.3,0,0.4-0.2,0.4-0.5h0.9c0,0.4-0.1,0.7-0.4,0.9c-0.2,0.2-0.5,0.4-0.9,0.4
			c-0.5,0-0.8-0.1-1.1-0.4c-0.2-0.3-0.4-0.7-0.4-1.3v-0.3c0-0.6,0.1-1,0.4-1.3c0.2-0.3,0.6-0.4,1.1-0.4c0.4,0,0.7,0.1,0.9,0.4
			s0.3,0.6,0.3,1h-0.9c0-0.2,0-0.3-0.1-0.5s-0.2-0.2-0.3-0.2c-0.2,0-0.3,0.1-0.4,0.2c-0.1,0.1-0.1,0.3-0.1,0.7v0.4
			c0,0.3,0,0.5,0,0.6s0.1,0.2,0.1,0.2S131.6,60.3,131.7,60.3z"/>
		<path class="st1" d="M135.2,61c0,0-0.1-0.2-0.1-0.3c-0.2,0.2-0.4,0.3-0.7,0.3c-0.3,0-0.5-0.1-0.7-0.3c-0.2-0.2-0.3-0.5-0.3-0.8
			c0-0.4,0.1-0.7,0.4-0.9s0.6-0.3,1-0.3h0.3v-0.3c0-0.2,0-0.3-0.1-0.3s-0.1-0.1-0.2-0.1c-0.2,0-0.4,0.1-0.4,0.4h-0.9
			c0-0.3,0.1-0.6,0.4-0.8c0.2-0.2,0.6-0.3,0.9-0.3c0.4,0,0.7,0.1,0.9,0.3c0.2,0.2,0.3,0.5,0.3,0.9v1.7c0,0.3,0.1,0.5,0.1,0.7V61
			L135.2,61L135.2,61z M134.6,60.4c0.1,0,0.2,0,0.3-0.1c0.1,0,0.1-0.1,0.2-0.2v-0.7h-0.2c-0.2,0-0.3,0-0.4,0.2s-0.1,0.2-0.1,0.4
			C134.4,60.2,134.4,60.4,134.6,60.4z"/>
		<path class="st1" d="M138.2,60.1c0-0.1,0-0.2-0.1-0.2c-0.1-0.1-0.2-0.2-0.5-0.3c-0.4-0.2-0.6-0.3-0.8-0.5
			c-0.1-0.2-0.2-0.4-0.2-0.6c0-0.3,0.1-0.6,0.3-0.8c0.2-0.2,0.5-0.3,0.9-0.3c0.4,0,0.7,0.1,0.9,0.3c0.2,0.2,0.4,0.5,0.4,0.8h-0.9
			c0-0.3-0.1-0.4-0.4-0.4c-0.1,0-0.2,0-0.2,0.1s-0.1,0.2-0.1,0.3c0,0.1,0,0.2,0.1,0.2c0.1,0.1,0.2,0.2,0.5,0.3
			c0.4,0.1,0.6,0.3,0.8,0.5c0.2,0.2,0.2,0.4,0.2,0.7c0,0.3-0.1,0.6-0.4,0.8s-0.6,0.3-0.9,0.3c-0.3,0-0.5,0-0.7-0.2s-0.4-0.2-0.5-0.4
			c-0.1-0.2-0.2-0.4-0.2-0.6h0.9c0,0.2,0,0.3,0.1,0.4s0.2,0.1,0.4,0.1C138.1,60.4,138.2,60.3,138.2,60.1z"/>
		<path class="st1" d="M139.8,60.6c0-0.2,0.1-0.3,0.1-0.4c0.1-0.1,0.2-0.1,0.4-0.1s0.3,0,0.4,0.1c0.1,0.1,0.1,0.2,0.1,0.4
			c0,0.2-0.1,0.3-0.2,0.4c-0.1,0.1-0.2,0.1-0.4,0.1s-0.3,0-0.4-0.1C139.9,60.8,139.8,60.7,139.8,60.6z"/>
	</g>
</g>
</svg>
