<?xml version="1.0" encoding="utf-8"?>
<!-- Generator: Adobe Illustrator 25.4.1, SVG Export Plug-In . SVG Version: 6.00 Build 0)  -->
<!DOCTYPE svg PUBLIC "-//W3C//DTD SVG 1.1//EN" "http://www.w3.org/Graphics/SVG/1.1/DTD/svg11.dtd" [
	<!ENTITY ns_extend "http://ns.adobe.com/Extensibility/1.0/">
	<!ENTITY ns_ai "http://ns.adobe.com/AdobeIllustrator/10.0/">
	<!ENTITY ns_graphs "http://ns.adobe.com/Graphs/1.0/">
	<!ENTITY ns_vars "http://ns.adobe.com/Variables/1.0/">
	<!ENTITY ns_imrep "http://ns.adobe.com/ImageReplacement/1.0/">
	<!ENTITY ns_sfw "http://ns.adobe.com/SaveForWeb/1.0/">
	<!ENTITY ns_custom "http://ns.adobe.com/GenericCustomNamespace/1.0/">
	<!ENTITY ns_adobe_xpath "http://ns.adobe.com/XPath/1.0/">
]>
<svg version="1.1" id="Capa_1" xmlns:x="&ns_extend;" xmlns:i="&ns_ai;" xmlns:graph="&ns_graphs;"
	 xmlns="http://www.w3.org/2000/svg" xmlns:xlink="http://www.w3.org/1999/xlink" x="0px" y="0px" viewBox="0 0 273.9 135.4"
	 style="enable-background:new 0 0 273.9 135.4;" xml:space="preserve">
<style type="text/css">
	.st0{fill:#142F4E;}
	.st1{fill:#FFFFFF;}
	.st2{fill:#395C7E;}
</style>
<metadata>
	<sfw  xmlns="&ns_sfw;">
		<slices></slices>
		<sliceSourceBounds  bottomLeftOrigin="true" height="135.4" width="273.9" x="821.3" y="-608"></sliceSourceBounds>
	</sfw>
</metadata>
<g>
	<g>
		<rect class="st0" width="135.5" height="135.4"/>
		<g>
			<path class="st1" d="M75,22.9c-1.4-0.2-2.9-0.2-4.3-0.3c-0.4,0-0.9,0-1.3,0h-1.7c-0.9,0-1.8,0-2.7,0c-1,0-2,0.1-3,0.2
				c-5,0.4-10,1.2-14.9,2.5c-0.2,0.1-0.3,0.1-0.5,0.2c0.1,0.2,0.3,0.2,0.5,0.3c0,0,0.1,0,0.1,0.1c0.2,0.1,0.3,0.3,0.7,0.3
				c0.4,0,0.8,0.1,1.2,0c0.8-0.2,0.8-0.3,1.4,0.2c0.3,0.2,0.3,0.3,0.4,0.6c0.1,0.3,0,0.5,0.3,0.7c0.2,0.2,0.5,0.2,0.6-0.1
				c0.3-0.7,1.1,0.2,1.1,0.5c0,0.6,0.1,0.3,0.3,0.5c0.1,0.1,0.1,0.9,0.7,1.1c0.2,0.1,0.4,0,0.5,0.3c0,0.1,0,0.2-0.1,0.3
				c-0.1,0.2-0.2,0.4-0.3,0.5c-0.3,0.7-0.3,1.2,0.1,1.9c0.1,0.2,0.2,0.3,0.3,0.5c0.3,0.7,0.3,0.8,0.8,1.1c0.3,0.2,0.6,0.2,0.9,0.2
				c0.2,0,0.3,0,0.5-0.1c0.2-0.2,0.3-0.2,0.5,0c0.4,0.3,0.3,0,0.5-0.3c0.3-0.5,0.5-0.1,0.5-0.8c0-0.2,0.1-0.3,0.4-0.4
				c0.5,0,0.6-0.3,1.1-0.2c0.2,0,0.6,0,0.4,0.5c-0.3,0.3-0.3,0.3-0.4,0.7c0,0.4-0.1,0.5-0.3,0.7C59,35,59.2,34.9,59,35.3
				c0,0.2-0.2,0.3-0.2,0.5c-0.1,0.2,0.1,0.4,0.4,0.3c0.3-0.1,0.5-0.1,0.7,0c0.3,0,0.5,0,0.8,0c0.4,0,0.8,0,1,0.3
				c0.3,0.3,0.3,0.4,0.1,1.1c-0.1,0.2,0.1,0.3,0,0.5c0,0.3-0.2,0.6-0.2,0.8c0,0.2,0,0.3,0.1,0.4c0.2,0.2,0.3,0.4,0.4,0.5
				c0.2,0.2,0.3,0.3,0.6,0.5c0.8,0.5,0.9,0,1.6-0.2c0.3,0,0.6,0,0.8,0.1c0.2,0.1,0.4,0.3,0.6,0.5c0.2,0.2,0.4,0.3,0.5-0.1
				c0-0.2,0.1-0.3,0.3-0.4c0.2,0,0.1-0.1,0.2-0.3c0,0,0-0.1,0.1-0.1v0v-0.1c0.1-0.4,0.6-0.7,1-0.7h0.1c0.3,0,0.6-0.2,0.7-0.4
				c0.2-0.2,0.7-0.5,0.4,0.1c-0.1,0.2-0.2,0.2-0.1,0.3c0,0.1,0,0.1,0,0.2c0.1,0.2-0.1,0.3-0.2,0.5c0,0.2,0.1,0.1,0.2,0.2
				c0.1,0.1,0.1,0.2,0.2,0.3c0.2,0.1,0.3,0,0.3-0.2v0v-0.1c0-0.1-0.1-0.2-0.1-0.3c0-0.2,0-0.3,0.1-0.4c0,0,0.1-0.1,0.2-0.1
				c0.5-0.3,0.8-0.4,1.2-0.2c0.1,0,0.1,0.1,0.2,0.1c0.4,0.4,0.2,0.4,0.8,0.4c0.4,0,0.6-0.1,0.9,0.1c0.3,0.1,0.9,0.3,1.1,0
				c0.2-0.4,0.7-0.4,0.8-0.1c0.1,0.2,0.3,0.2,0.5,0.3c0,0,0,0,0,0c0.2,0,0.2,0,0.4,0.2c0.2,0.3,0,0.2,0,0.5c0,0.2,0,0.1,0.3,0.1
				c0.5,0,1.2,0.2,1.3,0.8c0.1,0.3,0.4,0.1,0.6,0.3c0.3,0.4,0.2,0.4,0.8,0.5c0.1,0,0.2,0,0.3,0c0.5-0.1,0.7-0.1,0.9,0
				c0.3,0.2,0.3,0.4,0.6,0.3c0.5-0.1,0.6,0.3,0.9,0.6c0.4,0.3,0.6,0.3,0.6,0.9c0,0.4,0,0.3,0.3,0.6c0.3,0.4,0.4,0.5-0.1,1
				c-0.4,0.3-0.4,0.5,0.2,0.2c0.2-0.1,0.4,0.1,0.8,0.2c0.2,0.2,0.2,0.3,0,0.5c0,0.5-0.1,0.4,0.3,0.1c0.4-0.4,0.8-0.5,1.3-0.1
				c0.2,0.2,0.4,0.3,0.6,0.4c0.5,0.4,1,0.7,1.7,0.7c0.5,0,0.7,0.2,1.1,0.1c0.5-0.1,1,0.2,1.3,0.7c0.2,0.2,0.4,0.4,0.7,0.6
				c0.6,0.3,0.9-0.1,1.2,0.7c0.5,1.3-0.5,2.4-1.4,3.4c-0.3,0.4-0.3,0.7-0.5,0.9c-0.3,0.3-0.8,0.1-0.8,0.6c0.1,0.2-0.2,0.4-0.2,0.6
				c0,0.1,0,0.2,0,0.3c0,0.3,0.1,0.6-0.1,0.8c0,0.3-0.1,0.6-0.1,0.8c-0.3,0.6-0.6,1-0.7,1.3c-0.2,0.2-0.3,0.3-0.5,0.5
				c-0.3,0.2-0.1,0.5-0.3,0.8c-0.1,0.1-0.2,0.1-0.3,0.2c-0.4,0.3-0.4,0.4-1,0.4c-1.1,0-2.5,0.7-3.2,1.7c-0.2,0.4-0.2,0.6-0.3,0.9
				c-0.1,0.5-0.3,0.4-0.5,0.7c-0.5,0.5-0.4,1.2-1,0.9c-0.2,0-0.2,0.1-0.4,0.4c-0.2,0.2-0.3,0.3-0.4,0.6c0,0.2-0.1,0.3-0.3,0.5
				c-0.2,0.2-0.3,0.3-0.5,0.5c-0.3,0.8-0.9,0.7-1.7,0.6c-0.2,0-0.5-0.2-0.7-0.2c-0.5-0.2-0.4,0.1-0.1,0.3c0.1,0.1,0.2,0.1,0.2,0.2
				c0.1,0.3-0.3,0.4,0.2,0.7c0.1,0.2,0,0.5-0.2,0.7c-0.3,0.5-0.8,0.7-1.3,0.7c-0.3,0-0.6,0-0.9,0c-0.6,0-0.5-0.2-0.5,0.4
				c0,0.1-0.1,0.2-0.2,0.4c0,0.5-0.3,0.6-0.7,0.5c-0.7-0.3-0.4-0.3-0.6,0.2c-0.1,0.2-0.1,0.3,0,0.3c0,0.1,0,0.3,0.1,0.3
				c0.1,0,0.1,0,0.1,0c0.3,0,0-0.2,0.3-0.2c0.1,0,0.1,0,0.1,0.1c-0.1,0.3-0.1,0.2-0.3,0.2c-0.2,0-0.3,0-0.3,0.2
				c0,0.3-0.2,0.3-0.3,0.5c0,0.1-0.1,0.2-0.1,0.3c-0.1,0.3-0.3,0.2-0.6,0.3c-0.2,0.1-0.3,0.2-0.4,0.3c-0.1,0.2-0.1,0.4,0,0.6
				c0,0,0.1,0.1,0.2,0.1c0.1,0.1,0.1,0.2,0.2,0.2c0.3,0.1,0.3-0.1,0.3,0.2c0,0.3-0.2,0.3-0.4,0.5c-0.1,0.1-0.1,0.1-0.2,0.1
				c-0.2,0.1-0.2,0.1-0.3,0.4c0,0.2-0.2,0.4-0.3,0.4c-0.5,0.2-0.5,0.3-0.4,0.8c0.1,0.4-0.1,0.3-0.3,0.4c-0.1,0-0.2,0.1-0.3,0.2
				c-0.1,0.1-0.2,0.3-0.3,0.5c-0.3,0.2,0.1,0-0.7,0.2c-0.3,0.1-0.3-0.1-0.3-0.4c0-0.2-0.1-0.2-0.1-0.3c0,0-0.1-0.1-0.1-0.1
				c-0.2-0.4,0-0.3-0.3-0.6c-0.3-0.2,0-0.4-0.1-0.6c-0.2-0.3-0.1-0.2-0.2-0.5c0-0.1-0.1-0.2-0.1-0.3c-0.1-0.1-0.1-0.3,0.1-0.3
				c0.3-0.1,0.2-0.1,0.3-0.3c0.2-0.6,0.1-0.2-0.2-0.5c-0.1-0.1,0-0.3,0.1-0.4c0.2-0.3,0.3-0.3,0.5-0.3c0,0,0.1,0,0.1,0
				c0.2-0.1,0.1-0.2,0.2-0.6c0-0.4,0.1-0.6,0.3-0.8c0.1-0.2,0.1-0.4,0-0.6c-0.2-0.4-0.6,0-0.5-0.6c0.1-0.5,0.2-0.5,0.3-0.8
				c0.1-0.2,0-0.4,0-0.6c-0.2-0.7-0.1-0.6,0.2-1.2c0.1-0.2,0.2-0.4,0.3-0.6c0.1-0.2,0.1-0.4,0.1-0.6c0.2-0.2,0.2-0.3,0.2-0.6
				c0-0.4,0.2-0.4,0.2-0.7c0-0.3-0.1-0.3-0.2-0.5c0-0.1,0-0.3,0-0.3c0.2-0.4,0.3-0.3,0.2-0.7c-0.1-0.3,0.1-0.5,0.2-0.8
				c0-0.1,0.1-0.1,0.1-0.2c0.1-0.4,0.2-0.8,0.3-1.2c0.1-0.3,0.1-0.6,0-0.9c0-0.2,0-0.4,0-0.5c0.1-0.3,0.2-0.2,0.2-0.6
				c0-0.2-0.1-0.5,0-0.7c0.2-0.4,0-0.8,0-1.3c0-0.4-0.2-0.6-0.5-0.9c-0.1,0-0.1-0.1-0.2-0.2c-0.4-0.3-0.8-0.7-1.2-0.8
				c-0.1,0-0.1-0.1-0.2-0.1c-0.4-0.1-0.5,0-0.9-0.5c-0.1-0.2-0.2-0.3-0.4-0.5c-0.2-0.3,0.2-0.3,0-0.7c-0.1-0.1-0.3-0.3-0.4-0.4
				c-0.4-0.6-0.7-1.2-0.9-1.7c-0.4-0.8-0.8-1.6-1.4-2.1c-0.2,0-0.3-0.2-0.2-0.4c0-0.2-0.1-0.4-0.2-0.5C63,48.3,63.6,48,64,47.9
				c0.2-0.2,0.2-0.3,0-0.5c-0.1,0-0.2-0.1-0.3-0.1c-0.5-0.2-0.3-0.8-0.1-1c0.2-0.2,0.3-0.4,0.3-0.7c0.1-0.4,0.1-0.4,0.3-0.5
				c0.4-0.1,0.3-0.1,0.5-0.5c0-0.3,0-0.3,0.3-0.4c0,0,0.1,0,0.1,0c0.7-0.6,0.6-0.9,0.5-1.8c0-0.4-0.1-0.6-0.3-1
				c-0.1-0.2-0.2-0.2-0.3-0.3c0,0,0-0.1,0-0.1c0-0.4,0.1-0.3-0.2-0.7c-0.3-0.2-0.6-0.2-0.8,0.2c0,0.1,0,0.2-0.1,0.3
				c-0.3,0.2-0.2,0-0.1,0.5c0,0.1,0,0.2,0,0.2c-0.4,0.3-0.3-0.2-0.5-0.3c-0.3-0.1-0.2,0.1-0.5-0.2c-0.1-0.1-0.2-0.1-0.4-0.1h-0.3
				c-0.1,0-0.2-0.1-0.3-0.3c-0.2-0.2,0-0.3-0.3-0.4c-0.1,0-0.1,0-0.2,0c-0.3-0.3-0.1-0.3-0.4-0.2c-0.2,0-0.4-0.1-0.4-0.4
				c0.1-0.7,0-0.6-0.6-1c-0.2-0.2-0.3-0.4-0.4-0.7c-0.1-0.3-0.2-0.2-0.5-0.2c-0.2,0-0.6-0.1-0.8-0.3c-0.5-0.3-0.6-0.3-1-0.3
				c-0.4-0.1-0.8-0.6-0.9-0.8c-0.3-0.4-0.7-0.6-1.1-0.5c-0.4,0.1-0.4,0.4-0.9,0.4c-0.3-0.1-0.5-0.4-1.1-0.5
				c-0.5-0.1-0.8-0.3-1.2-0.5c-0.5-0.2-0.5-0.5-0.9-0.6c-0.9-0.2-0.5-0.1-0.9-0.6c-0.1-0.1-0.2-0.1-0.3-0.2
				c-0.3-0.2-0.6-0.5-0.4-0.8c0.3-0.3,0.3-0.5,0.2-0.8c-0.1-0.2-0.1-0.4-0.1-0.6c0-0.2-0.4-0.6-0.5-0.8c-0.2-0.3-0.5-0.7-0.7-1
				c-0.9-0.4,0.1-0.5-0.4-1c-0.2,0-0.3-0.1-0.3-0.3c-0.1-0.4,0-0.4-0.3-0.7c-0.1-0.1-0.2-0.2-0.2-0.4c-0.1-0.2-0.2-0.4-0.2-0.7
				c0-0.2,0-0.3,0-0.5c0-0.5,0.1-0.4-0.4-0.6c-0.1,0-0.2-0.1-0.3-0.1c0,0-0.1,0-0.1,0c-0.1,0.1-0.1,0.2-0.1,0.4c0,0.4,0,0.5,0.1,0.8
				c0.1,0.1,0.2,0.3,0.2,0.4c0.3,0.3,0.3,0.3,0.3,0.7c0,0.3,0,0.4,0.2,0.7c0.5,0.7,0.3,0.8,0.5,1.3c0,0.3,0,0.5-0.2,0.5
				c-0.2,0.1-0.4,0-0.6-0.1c-0.2-0.2-0.1-0.3,0.1-0.5c0.2-0.4-0.3-0.8-0.6-0.9c-0.4-0.3-0.6-0.5-0.2-0.9c0.3-0.3,0.1-0.5-0.1-0.8
				c-0.4-0.4-0.5-0.4-0.4-0.7c0-0.3,0-0.4,0-0.5c-2.5,0.8-5.1,1.6-7.6,2.6v43.7c3.2,1.3,6.5,2.3,9.7,3.2c5,1.3,9.9,2.2,14.9,2.5
				c1,0.1,2,0.1,3,0.2c0.9,0,1.8,0,2.7,0h0.8c0.2,0,0.3-0.1,0.5-0.1c0.7,0.1,0.1-0.5,0.4-0.7c0,0,0.1,0,0.2,0c0.3-0.1,0.2,0,0.4,0.2
				c0.2,0.3,0.3,0.4,0.5,0.6h0.3c1.5-0.1,2.9-0.2,4.3-0.3c7.7-0.7,15.4-2.6,22.9-5.5V28.4C90.4,25.5,82.7,23.6,75,22.9 M62.3,32
				c-0.1,0-0.2,0.1-0.2,0.1c-0.1,0.1-0.1,0.2-0.2,0.2c-0.3,0.2-0.4-0.1,0-0.3c0.1-0.1,0.2-0.1,0.3-0.1C62.5,31.7,62.8,31.9,62.3,32
				 M66.7,33.6c-0.3,0-0.3,0-0.6,0c-0.4,0.1-0.5,0-0.4-0.3c0.1-0.3-0.6-0.2-0.7-0.3c0,0,0-0.1,0-0.1v0c-0.2-0.3-0.1-0.2-0.6-0.2
				c-0.1,0-0.3,0-0.4-0.2c-0.2-0.2-0.3-0.3-0.7-0.3c-0.3,0-0.6-0.5-0.3-0.6c0.5-0.1,0.3,0.2,0.8,0.2c0.3,0,0.4,0.1,0.6,0.3
				c0.1,0.1,0.3,0.2,0.5,0.2c0.1,0,0.1,0,0.1,0c0.1,0,0.3,0.1,0.4,0.2c0.1,0.1,0.2,0.1,0.2,0.2c0.2,0.2,0.3,0.3,0.6,0.3
				c0.3,0.1,0.3,0,0.6,0.2C67.1,33.4,67.4,33.6,66.7,33.6 M68,34.7c-0.1,0-0.2,0-0.3,0c-0.2,0-0.3,0-0.3-0.1c0-0.3,0.1-0.1,0.3-0.1
				h0c0.1,0,0.1,0,0.2,0.1C68,34.6,68,34.6,68,34.7C68.3,34.6,68.2,34.7,68,34.7 M70,34.4c-0.4,0-0.5-0.1-0.6,0.1
				c0,0.1-0.1,0.1-0.1,0.2c0,0.1-0.1,0.1-0.3,0c-0.3-0.1-0.5-0.2-0.5-0.4c0-0.1,0-0.2-0.1-0.3c-0.4-0.9-0.2-0.2,0.8-0.4
				c0,0,0.1,0,0.1,0c0.3-0.1,0.3-0.1,0.6,0.2c0.1,0.1,0.1,0.1,0.2,0.2C70.9,34.4,70.1,34.6,70,34.4 M70.7,34.5
				c-0.1,0-0.1-0.1-0.1-0.1c0-0.1,0.1-0.2,0.1-0.2c0.1,0,0.1,0.1,0.1,0.2C70.8,34.4,70.8,34.5,70.7,34.5 M67.7,71.3L67.7,71.3
				c0.1-0.1,0.1-0.1,0.1-0.2c0-0.2,0.1-0.1,0.1,0.1c0,0.2,0,0.6-0.2,0.6c-0.3,0-0.2,0-0.1-0.2C67.6,71.4,67.6,71.4,67.7,71.3
				 M47.3,31.1c-0.1,0.1-0.2,0.1-0.2,0c0,0,0,0,0-0.1c-0.1-0.3-0.3-0.1-0.3-0.4c0.1-0.2,0.2-0.3,0.3-0.2c0.1,0.1,0.2,0.2,0.2,0.2
				C47.5,30.8,47.5,31,47.3,31.1 M75.7,74.1c-0.2,0.3-0.2,0.2-0.6,0.2H75c-0.2,0-0.2,0.2-0.5,0.1c-0.2-0.2-0.3-0.3-0.2-0.4
				c0.1-0.2,0.1-0.2,0.2-0.2c0.2,0.1,0.3,0,0.5,0c0.1,0,0.2-0.1,0.2-0.1C75.8,73.5,75.9,73.8,75.7,74.1"/>
			<polygon class="st1" points="44.6,89.6 44.6,91.7 40.1,91.7 40.1,94.4 44.2,94.4 44.2,96.4 40.1,96.4 40.1,100.6 37.4,100.6 
				37.4,89.6 			"/>
			<polygon class="st1" points="46.9,89.6 49.5,89.6 49.5,98.6 53.4,98.6 53.4,100.6 46.9,100.6 			"/>
			<path class="st1" d="M58.7,89.6h2.8l4,11h-2.8l-0.8-2.4h-3.7l-0.8,2.4h-2.8L58.7,89.6z M58.8,96.4h2.5L60.9,95
				c-0.1-0.4-0.3-0.9-0.4-1.4c-0.1-0.5-0.3-0.9-0.4-1.3h0c-0.1,0.4-0.2,0.8-0.4,1.3c-0.2,0.5-0.3,0.9-0.4,1.4L58.8,96.4z"/>
			<path class="st1" d="M72.2,98.8c0.5,0,1,0,1.3-0.1c0.4-0.1,0.7-0.2,0.9-0.4l0.5,1.9c-0.2,0.1-0.6,0.3-1.1,0.4
				c-0.5,0.1-1.2,0.2-1.9,0.2c-0.9,0-1.7-0.1-2.4-0.4c-0.7-0.3-1.3-0.6-1.9-1.1c-0.5-0.5-0.9-1.1-1.2-1.8C66.2,96.8,66,96,66,95.1
				c0-0.9,0.1-1.6,0.4-2.3c0.3-0.7,0.7-1.3,1.2-1.8c0.5-0.5,1.1-0.9,1.9-1.2c0.7-0.3,1.5-0.4,2.5-0.4c0.8,0,1.4,0.1,1.9,0.2
				c0.5,0.1,0.9,0.3,1.1,0.4L74.3,92c-0.3-0.2-0.6-0.3-1-0.4c-0.4-0.1-0.8-0.2-1.2-0.2c-0.5,0-0.9,0.1-1.3,0.2
				c-0.4,0.1-0.8,0.3-1.1,0.6c-0.3,0.3-0.5,0.7-0.7,1.1c-0.2,0.5-0.3,1-0.3,1.7c0,0.6,0.1,1.2,0.3,1.6c0.2,0.5,0.4,0.9,0.7,1.2
				c0.3,0.3,0.7,0.5,1.1,0.7C71.2,98.7,71.7,98.8,72.2,98.8"/>
			<path class="st1" d="M81,89.4c0.8,0,1.4,0.1,2,0.2c0.6,0.2,1,0.3,1.5,0.6l-0.6,1.9c-0.5-0.2-0.9-0.4-1.4-0.6
				c-0.5-0.1-0.9-0.2-1.3-0.2c-0.5,0-0.9,0.1-1.2,0.3c-0.3,0.2-0.4,0.5-0.4,0.8c0,0.4,0.1,0.6,0.4,0.8s0.7,0.3,1.2,0.5l1,0.3
				c0.4,0.1,0.8,0.3,1.1,0.5c0.3,0.2,0.6,0.4,0.9,0.7c0.2,0.3,0.4,0.6,0.6,0.9c0.1,0.3,0.2,0.7,0.2,1.1c0,0.5-0.1,0.9-0.3,1.3
				c-0.2,0.4-0.4,0.8-0.8,1.1c-0.4,0.3-0.8,0.6-1.3,0.7c-0.5,0.2-1.2,0.3-1.9,0.3c-0.7,0-1.3-0.1-2-0.2c-0.6-0.1-1.2-0.4-1.7-0.6
				l0.6-1.9c0.5,0.2,1,0.4,1.5,0.6c0.5,0.1,1,0.2,1.5,0.2c0.6,0,1.1-0.1,1.3-0.3c0.3-0.2,0.4-0.5,0.4-0.8c0-0.1,0-0.2-0.1-0.3
				c0-0.1-0.1-0.2-0.3-0.3c-0.1-0.1-0.3-0.2-0.6-0.3c-0.2-0.1-0.5-0.2-0.9-0.3L79.6,96c-0.4-0.1-0.8-0.3-1.1-0.5
				c-0.3-0.2-0.6-0.4-0.9-0.7c-0.3-0.3-0.4-0.6-0.6-0.9c-0.1-0.3-0.2-0.7-0.2-1.2c0-0.5,0.1-0.9,0.3-1.3c0.2-0.4,0.4-0.8,0.8-1.1
				c0.4-0.3,0.8-0.5,1.3-0.7C79.7,89.5,80.3,89.4,81,89.4"/>
			<path class="st1" d="M92.6,89.4c0.8,0,1.5,0.1,2.2,0.4c0.7,0.3,1.3,0.6,1.7,1.1c0.5,0.5,0.9,1.1,1.1,1.8c0.3,0.7,0.4,1.5,0.4,2.4
				c0,0.9-0.1,1.7-0.4,2.4c-0.3,0.7-0.7,1.3-1.2,1.8c-0.5,0.5-1.1,0.9-1.8,1.1c-0.7,0.3-1.4,0.4-2.2,0.4c-0.8,0-1.5-0.1-2.2-0.4
				c-0.7-0.3-1.3-0.6-1.7-1.1c-0.5-0.5-0.9-1.1-1.1-1.8c-0.3-0.7-0.4-1.5-0.4-2.4c0-0.9,0.1-1.7,0.4-2.4c0.3-0.7,0.7-1.3,1.2-1.8
				c0.5-0.5,1.1-0.9,1.8-1.2C91.1,89.6,91.8,89.4,92.6,89.4 M89.8,95.2c0,0.6,0.1,1.2,0.2,1.6c0.1,0.5,0.3,0.9,0.6,1.2
				c0.3,0.3,0.5,0.5,0.9,0.7c0.3,0.1,0.7,0.2,1.1,0.2c0.4,0,0.7-0.1,1.1-0.2c0.3-0.1,0.6-0.4,0.9-0.7c0.2-0.3,0.4-0.7,0.6-1.2
				c0.1-0.5,0.2-1,0.2-1.6c0-0.6-0.1-1.2-0.2-1.7c-0.1-0.5-0.3-0.9-0.6-1.2c-0.3-0.3-0.6-0.5-0.9-0.7c-0.3-0.2-0.7-0.2-1.1-0.2
				c-0.4,0-0.7,0.1-1.1,0.2c-0.3,0.2-0.6,0.4-0.9,0.7c-0.2,0.3-0.4,0.7-0.6,1.2C89.9,94,89.8,94.5,89.8,95.2"/>
			<path class="st1" d="M39.7,106.9h0.6l2.3,6h-0.7l-0.7-1.7h-2.6l-0.7,1.7h-0.7L39.7,106.9z M38.9,110.6h2.2l-0.5-1.3
				c-0.1-0.2-0.2-0.5-0.3-0.8c-0.1-0.3-0.2-0.6-0.3-0.9h0c-0.1,0.2-0.1,0.3-0.1,0.5c-0.1,0.1-0.1,0.3-0.1,0.4c0,0.1-0.1,0.3-0.1,0.4
				c0,0.1-0.1,0.3-0.2,0.4L38.9,110.6z"/>
			<path class="st1" d="M45.4,106.9h1.8c0.3,0,0.6,0,0.8,0.1c0.2,0.1,0.4,0.2,0.6,0.4c0.2,0.1,0.3,0.3,0.4,0.5
				c0.1,0.2,0.1,0.4,0.1,0.7c0,0.2,0,0.4-0.1,0.6c-0.1,0.2-0.2,0.3-0.3,0.5c-0.1,0.1-0.3,0.3-0.4,0.4c-0.2,0.1-0.3,0.2-0.5,0.2
				l1.6,2.6h-0.8l-1.5-2.4h-1.2v2.4h-0.6V106.9z M46.1,109.8H47c0.2,0,0.4,0,0.6-0.1c0.2,0,0.3-0.1,0.5-0.2c0.1-0.1,0.2-0.2,0.3-0.4
				c0.1-0.2,0.1-0.3,0.1-0.6c0-0.4-0.1-0.7-0.4-0.9c-0.2-0.2-0.6-0.3-1-0.3h-1V109.8z"/>
			<path class="st1" d="M54.9,106.8c0.3,0,0.6,0,0.9,0.1c0.3,0,0.5,0.1,0.8,0.3l-0.2,0.5c-0.2-0.1-0.4-0.2-0.7-0.2
				c-0.2-0.1-0.5-0.1-0.7-0.1c-0.3,0-0.6,0-0.9,0.1c-0.3,0.1-0.5,0.2-0.7,0.4c-0.2,0.2-0.4,0.4-0.5,0.8c-0.1,0.3-0.2,0.7-0.2,1.1
				c0,0.4,0.1,0.7,0.2,1c0.1,0.3,0.3,0.6,0.5,0.8c0.2,0.2,0.4,0.4,0.7,0.5c0.3,0.1,0.6,0.2,0.9,0.2c0.2,0,0.5,0,0.6,0
				c0.2,0,0.3-0.1,0.5-0.1v-1.9h-1.2v-0.5h1.9v2.8c-0.2,0.1-0.5,0.2-0.8,0.2c-0.3,0.1-0.6,0.1-1,0.1c-0.4,0-0.8-0.1-1.1-0.2
				c-0.4-0.1-0.7-0.3-0.9-0.6c-0.3-0.3-0.5-0.6-0.6-0.9c-0.2-0.4-0.2-0.8-0.2-1.3c0-0.5,0.1-0.9,0.2-1.3c0.1-0.4,0.3-0.7,0.6-0.9
				c0.3-0.3,0.6-0.4,0.9-0.6C54.1,106.9,54.5,106.8,54.9,106.8"/>
			<polygon class="st1" points="59.9,106.9 63.5,106.9 63.5,107.4 60.6,107.4 60.6,109.5 63.2,109.5 63.2,110 60.6,110 60.6,112.3 
				63.5,112.3 63.5,112.8 59.9,112.8 			"/>
			<path class="st1" d="M66.5,106.9h0.6l2.7,3.9c0.1,0.2,0.2,0.4,0.4,0.5c0.1,0.2,0.2,0.4,0.3,0.5h0c0-0.2,0-0.5,0-0.7
				c0-0.2,0-0.5,0-0.7v-3.5h0.7v6h-0.6l-2.6-3.8c-0.1-0.2-0.3-0.4-0.4-0.6c-0.1-0.2-0.3-0.4-0.4-0.7h0c0,0.3,0,0.6,0,0.8
				c0,0.3,0,0.6,0,0.8v3.3h-0.7V106.9z"/>
			<polygon class="st1" points="78.5,106.9 78.5,107.4 76.5,107.4 76.5,112.8 75.9,112.8 75.9,107.4 73.9,107.4 73.9,106.9 			"/>
			<rect x="81.3" y="106.9" class="st1" width="0.7" height="6"/>
			<path class="st1" d="M85.3,106.9H86l2.7,3.9c0.1,0.2,0.2,0.4,0.4,0.5c0.1,0.2,0.2,0.4,0.3,0.5h0c0-0.2,0-0.5,0-0.7
				c0-0.2,0-0.5,0-0.7v-3.5H90v6h-0.6l-2.6-3.8c-0.1-0.2-0.3-0.4-0.4-0.6c-0.1-0.2-0.3-0.4-0.4-0.7h0c0,0.3,0,0.6,0,0.8
				c0,0.3,0,0.6,0,0.8v3.3h-0.7V106.9z"/>
			<path class="st1" d="M95.1,106.9h0.6l2.3,6h-0.7l-0.7-1.7h-2.6l-0.7,1.7h-0.7L95.1,106.9z M94.3,110.6h2.2l-0.5-1.3
				c-0.1-0.2-0.2-0.5-0.3-0.8c-0.1-0.3-0.2-0.6-0.3-0.9h0c-0.1,0.2-0.1,0.3-0.2,0.5c0,0.1-0.1,0.3-0.1,0.4c-0.1,0.1-0.1,0.3-0.1,0.4
				c0,0.1-0.1,0.3-0.2,0.4L94.3,110.6z"/>
		</g>
	</g>
	<rect x="138.5" y="0" class="st2" width="135.4" height="135.4"/>
	<g>
		<path class="st1" d="M165,33.8h-2.8v3.7h-1.1v-8.4h4.4V30h-3.3v2.9h2.8V33.8z"/>
		<path class="st1" d="M169.7,37.5c-0.1-0.1-0.1-0.4-0.1-0.7c-0.4,0.5-0.8,0.8-1.4,0.8c-0.6,0-1-0.2-1.3-0.5
			c-0.3-0.3-0.5-0.8-0.5-1.3c0-0.6,0.2-1.1,0.6-1.5c0.4-0.4,1-0.6,1.8-0.6h0.7v-0.7c0-0.4-0.1-0.6-0.2-0.8s-0.4-0.2-0.8-0.2
			c-0.3,0-0.6,0.1-0.7,0.3c-0.2,0.2-0.3,0.4-0.3,0.7h-1c0-0.3,0.1-0.6,0.3-0.9c0.2-0.3,0.4-0.5,0.8-0.7c0.3-0.2,0.7-0.2,1.1-0.2
			c0.6,0,1.1,0.2,1.5,0.5c0.3,0.3,0.5,0.8,0.5,1.4v3.1c0,0.5,0.1,0.9,0.2,1.3v0.1H169.7z M168.3,36.7c0.2,0,0.5-0.1,0.7-0.2
			c0.2-0.1,0.4-0.3,0.5-0.5v-1.5h-0.6c-0.5,0-0.9,0.1-1.1,0.3c-0.3,0.2-0.4,0.5-0.4,0.9c0,0.4,0.1,0.6,0.2,0.8
			C167.7,36.6,168,36.7,168.3,36.7z"/>
		<path class="st1" d="M174.3,36.8c0.3,0,0.6-0.1,0.8-0.3c0.2-0.2,0.3-0.5,0.3-0.9h1c0,0.6-0.2,1.1-0.6,1.5s-0.9,0.6-1.5,0.6
			c-0.8,0-1.4-0.2-1.8-0.7c-0.4-0.5-0.6-1.2-0.6-2.2v-0.7c0-0.9,0.2-1.7,0.6-2.1c0.4-0.5,1-0.7,1.8-0.7c0.6,0,1.1,0.2,1.5,0.6
			c0.4,0.4,0.6,1,0.6,1.7h-1c0-0.5-0.1-0.8-0.3-1c-0.2-0.2-0.5-0.3-0.8-0.3c-0.5,0-0.8,0.1-1,0.4c-0.2,0.3-0.3,0.8-0.3,1.5v0.8
			c0,0.7,0.1,1.3,0.3,1.6S173.8,36.8,174.3,36.8z"/>
		<path class="st1" d="M180.7,37c-0.3,0.4-0.8,0.7-1.5,0.7c-0.6,0-1-0.2-1.3-0.6s-0.4-1-0.4-1.7v-4.1h1v4c0,1,0.3,1.5,0.9,1.5
			c0.6,0,1-0.3,1.3-0.8v-4.6h1v6.2h-1L180.7,37z"/>
		<path class="st1" d="M184.4,37.5h-1v-8.9h1V37.5z"/>
		<path class="st1" d="M187.3,29.8v1.5h0.9v0.8h-0.9V36c0,0.2,0,0.4,0.1,0.6c0.1,0.1,0.2,0.2,0.4,0.2c0.1,0,0.3,0,0.4-0.1l0,0.9
			c-0.2,0.1-0.5,0.1-0.7,0.1c-0.4,0-0.7-0.1-0.9-0.4c-0.2-0.3-0.3-0.7-0.3-1.2v-3.9h-1v-0.8h1v-1.5H187.3z"/>
		<path class="st1" d="M192.7,37.5c-0.1-0.1-0.1-0.4-0.1-0.7c-0.4,0.5-0.8,0.8-1.4,0.8c-0.6,0-1-0.2-1.3-0.5
			c-0.3-0.3-0.5-0.8-0.5-1.3c0-0.6,0.2-1.1,0.6-1.5c0.4-0.4,1-0.6,1.8-0.6h0.7v-0.7c0-0.4-0.1-0.6-0.2-0.8s-0.4-0.2-0.8-0.2
			c-0.3,0-0.6,0.1-0.7,0.3c-0.2,0.2-0.3,0.4-0.3,0.7h-1c0-0.3,0.1-0.6,0.3-0.9c0.2-0.3,0.4-0.5,0.8-0.7c0.3-0.2,0.7-0.2,1.1-0.2
			c0.6,0,1.1,0.2,1.5,0.5c0.3,0.3,0.5,0.8,0.5,1.4v3.1c0,0.5,0.1,0.9,0.2,1.3v0.1H192.7z M191.3,36.7c0.2,0,0.5-0.1,0.7-0.2
			c0.2-0.1,0.4-0.3,0.5-0.5v-1.5h-0.6c-0.5,0-0.9,0.1-1.1,0.3c-0.3,0.2-0.4,0.5-0.4,0.9c0,0.4,0.1,0.6,0.2,0.8
			C190.7,36.6,191,36.7,191.3,36.7z"/>
		<path class="st1" d="M194.9,34.1c0-1,0.2-1.7,0.5-2.2c0.4-0.5,0.9-0.8,1.5-0.8c0.6,0,1.1,0.2,1.4,0.7v-3.2h1v8.9h-0.9l-0.1-0.7
			c-0.3,0.5-0.8,0.8-1.4,0.8c-0.6,0-1.2-0.3-1.5-0.8c-0.4-0.5-0.6-1.2-0.6-2.1V34.1z M195.9,34.7c0,0.7,0.1,1.2,0.3,1.5
			c0.2,0.3,0.5,0.5,1,0.5c0.5,0,0.9-0.3,1.1-0.8v-3.1c-0.3-0.5-0.6-0.7-1.1-0.7c-0.5,0-0.8,0.2-1,0.5c-0.2,0.3-0.3,0.8-0.3,1.5V34.7
			z"/>
	</g>
	<g>
		<path class="st1" d="M162.2,48.6h3.3v0.9h-4.4v-8.4h1.1V48.6z"/>
		<path class="st1" d="M169.8,49.5c-0.1-0.1-0.1-0.4-0.1-0.7c-0.4,0.5-0.8,0.8-1.4,0.8c-0.6,0-1-0.2-1.3-0.5
			c-0.3-0.3-0.5-0.8-0.5-1.3c0-0.6,0.2-1.1,0.6-1.5c0.4-0.4,1-0.6,1.8-0.6h0.7v-0.7c0-0.4-0.1-0.6-0.2-0.8s-0.4-0.2-0.8-0.2
			c-0.3,0-0.6,0.1-0.7,0.3c-0.2,0.2-0.3,0.4-0.3,0.7h-1c0-0.3,0.1-0.6,0.3-0.9c0.2-0.3,0.4-0.5,0.8-0.7c0.3-0.2,0.7-0.2,1.1-0.2
			c0.6,0,1.1,0.2,1.5,0.5c0.3,0.3,0.5,0.8,0.5,1.4v3.1c0,0.5,0.1,0.9,0.2,1.3v0.1H169.8z M168.4,48.7c0.2,0,0.5-0.1,0.7-0.2
			c0.2-0.1,0.4-0.3,0.5-0.5v-1.5H169c-0.5,0-0.9,0.1-1.1,0.3c-0.3,0.2-0.4,0.5-0.4,0.9c0,0.4,0.1,0.6,0.2,0.8
			C167.8,48.6,168.1,48.7,168.4,48.7z"/>
		<path class="st1" d="M173.5,41.8v1.5h0.9v0.8h-0.9V48c0,0.2,0,0.4,0.1,0.6c0.1,0.1,0.2,0.2,0.4,0.2c0.1,0,0.3,0,0.4-0.1l0,0.9
			c-0.2,0.1-0.5,0.1-0.7,0.1c-0.4,0-0.7-0.1-0.9-0.4c-0.2-0.3-0.3-0.7-0.3-1.2v-3.9h-1v-0.8h1v-1.5H173.5z"/>
		<path class="st1" d="M176.9,41.7c0,0.2,0,0.3-0.1,0.4c-0.1,0.1-0.2,0.2-0.4,0.2c-0.2,0-0.3-0.1-0.4-0.2c-0.1-0.1-0.1-0.3-0.1-0.4
			c0-0.2,0-0.3,0.1-0.4c0.1-0.1,0.2-0.2,0.4-0.2s0.3,0.1,0.4,0.2C176.8,41.3,176.9,41.5,176.9,41.7z M176.8,49.5h-1v-6.2h1V49.5z"/>
		<path class="st1" d="M179.4,43.3l0,0.7c0.4-0.5,0.9-0.8,1.5-0.8c1.1,0,1.7,0.7,1.7,2.2v4.1h-1v-4.1c0-0.5-0.1-0.8-0.2-1
			c-0.2-0.2-0.4-0.3-0.7-0.3c-0.3,0-0.5,0.1-0.7,0.3c-0.2,0.2-0.4,0.4-0.5,0.7v4.5h-1v-6.2H179.4z"/>
		<path class="st1" d="M183.9,46.1c0-0.9,0.2-1.6,0.7-2.2c0.4-0.5,1-0.8,1.7-0.8s1.3,0.3,1.7,0.8c0.4,0.5,0.7,1.2,0.7,2.1v0.7
			c0,0.9-0.2,1.6-0.7,2.1c-0.4,0.5-1,0.8-1.8,0.8c-0.7,0-1.3-0.3-1.7-0.8c-0.4-0.5-0.7-1.2-0.7-2.1V46.1z M184.9,46.7
			c0,0.6,0.1,1.1,0.4,1.5c0.3,0.4,0.6,0.6,1,0.6c0.9,0,1.4-0.6,1.4-1.9v-0.7c0-0.6-0.1-1.1-0.4-1.5c-0.3-0.4-0.6-0.6-1-0.6
			c-0.4,0-0.8,0.2-1,0.6c-0.3,0.4-0.4,0.9-0.4,1.5V46.7z"/>
		<path class="st1" d="M193.2,49.5c-0.1-0.1-0.1-0.4-0.1-0.7c-0.4,0.5-0.8,0.8-1.4,0.8c-0.6,0-1-0.2-1.3-0.5
			c-0.3-0.3-0.5-0.8-0.5-1.3c0-0.6,0.2-1.1,0.6-1.5c0.4-0.4,1-0.6,1.8-0.6h0.7v-0.7c0-0.4-0.1-0.6-0.2-0.8s-0.4-0.2-0.8-0.2
			c-0.3,0-0.6,0.1-0.7,0.3c-0.2,0.2-0.3,0.4-0.3,0.7h-1c0-0.3,0.1-0.6,0.3-0.9c0.2-0.3,0.4-0.5,0.8-0.7c0.3-0.2,0.7-0.2,1.1-0.2
			c0.6,0,1.1,0.2,1.5,0.5c0.3,0.3,0.5,0.8,0.5,1.4v3.1c0,0.5,0.1,0.9,0.2,1.3v0.1H193.2z M191.9,48.7c0.2,0,0.5-0.1,0.7-0.2
			c0.2-0.1,0.4-0.3,0.5-0.5v-1.5h-0.6c-0.5,0-0.9,0.1-1.1,0.3c-0.3,0.2-0.4,0.5-0.4,0.9c0,0.4,0.1,0.6,0.2,0.8
			C191.3,48.6,191.5,48.7,191.9,48.7z"/>
		<path class="st1" d="M196.6,43.3l0,0.6c0.4-0.5,0.9-0.7,1.5-0.7c0.7,0,1.2,0.3,1.5,0.9c0.4-0.6,0.9-0.9,1.6-0.9
			c1.1,0,1.7,0.7,1.8,2.1v4.2h-1v-4.1c0-0.5-0.1-0.8-0.2-1c-0.2-0.2-0.4-0.3-0.8-0.3c-0.3,0-0.6,0.1-0.7,0.4
			c-0.2,0.2-0.3,0.5-0.3,0.9v4.2h-1v-4.1c0-0.9-0.4-1.3-1.1-1.3c-0.5,0-0.9,0.3-1.1,0.8v4.7h-1v-6.2H196.6z"/>
		<path class="st1" d="M206.8,49.7c-0.8,0-1.4-0.2-1.8-0.7s-0.6-1.1-0.6-2v-0.8c0-0.9,0.2-1.7,0.6-2.2c0.4-0.5,1-0.8,1.7-0.8
			c0.7,0,1.3,0.2,1.6,0.7s0.5,1.2,0.6,2.2v0.7h-3.5v0.1c0,0.7,0.1,1.2,0.4,1.5s0.6,0.5,1.1,0.5c0.3,0,0.6-0.1,0.8-0.2
			s0.4-0.3,0.6-0.5l0.5,0.6C208.4,49.3,207.7,49.7,206.8,49.7z M206.7,44.1c-0.4,0-0.7,0.1-0.9,0.4c-0.2,0.3-0.3,0.7-0.3,1.4h2.5
			v-0.1c0-0.6-0.1-1-0.3-1.3C207.3,44.2,207.1,44.1,206.7,44.1z"/>
		<path class="st1" d="M212.7,44.3c-0.1,0-0.3,0-0.5,0c-0.5,0-0.9,0.3-1.1,0.9v4.5h-1v-6.2h1l0,0.6c0.3-0.5,0.7-0.7,1.2-0.7
			c0.2,0,0.3,0,0.4,0.1L212.7,44.3z"/>
		<path class="st1" d="M214.9,41.7c0,0.2,0,0.3-0.1,0.4c-0.1,0.1-0.2,0.2-0.4,0.2c-0.2,0-0.3-0.1-0.4-0.2c-0.1-0.1-0.1-0.3-0.1-0.4
			c0-0.2,0-0.3,0.1-0.4c0.1-0.1,0.2-0.2,0.4-0.2s0.3,0.1,0.4,0.2C214.8,41.3,214.9,41.5,214.9,41.7z M214.8,49.5h-1v-6.2h1V49.5z"/>
		<path class="st1" d="M218.6,48.8c0.3,0,0.6-0.1,0.8-0.3c0.2-0.2,0.3-0.5,0.3-0.9h1c0,0.6-0.2,1.1-0.6,1.5s-0.9,0.6-1.5,0.6
			c-0.8,0-1.4-0.2-1.8-0.7c-0.4-0.5-0.6-1.2-0.6-2.2v-0.7c0-0.9,0.2-1.7,0.6-2.1c0.4-0.5,1-0.7,1.8-0.7c0.6,0,1.1,0.2,1.5,0.6
			c0.4,0.4,0.6,1,0.6,1.7h-1c0-0.5-0.1-0.8-0.3-1c-0.2-0.2-0.5-0.3-0.8-0.3c-0.5,0-0.8,0.1-1,0.4c-0.2,0.3-0.3,0.8-0.3,1.5v0.8
			c0,0.7,0.1,1.3,0.3,1.6S218.1,48.8,218.6,48.8z"/>
		<path class="st1" d="M225,49.5c-0.1-0.1-0.1-0.4-0.1-0.7c-0.4,0.5-0.8,0.8-1.4,0.8c-0.6,0-1-0.2-1.3-0.5c-0.3-0.3-0.5-0.8-0.5-1.3
			c0-0.6,0.2-1.1,0.6-1.5c0.4-0.4,1-0.6,1.8-0.6h0.7v-0.7c0-0.4-0.1-0.6-0.2-0.8s-0.4-0.2-0.8-0.2c-0.3,0-0.6,0.1-0.7,0.3
			c-0.2,0.2-0.3,0.4-0.3,0.7h-1c0-0.3,0.1-0.6,0.3-0.9c0.2-0.3,0.4-0.5,0.8-0.7c0.3-0.2,0.7-0.2,1.1-0.2c0.6,0,1.1,0.2,1.5,0.5
			c0.3,0.3,0.5,0.8,0.5,1.4v3.1c0,0.5,0.1,0.9,0.2,1.3v0.1H225z M223.7,48.7c0.2,0,0.5-0.1,0.7-0.2c0.2-0.1,0.4-0.3,0.5-0.5v-1.5
			h-0.6c-0.5,0-0.9,0.1-1.1,0.3c-0.3,0.2-0.4,0.5-0.4,0.9c0,0.4,0.1,0.6,0.2,0.8C223.1,48.6,223.3,48.7,223.7,48.7z"/>
		<path class="st1" d="M228.5,43.3l0,0.7c0.4-0.5,0.9-0.8,1.5-0.8c1.1,0,1.7,0.7,1.7,2.2v4.1h-1v-4.1c0-0.5-0.1-0.8-0.2-1
			c-0.2-0.2-0.4-0.3-0.7-0.3c-0.3,0-0.5,0.1-0.7,0.3c-0.2,0.2-0.4,0.4-0.5,0.7v4.5h-1v-6.2H228.5z"/>
		<path class="st1" d="M236.4,49.5c-0.1-0.1-0.1-0.4-0.1-0.7c-0.4,0.5-0.8,0.8-1.4,0.8c-0.6,0-1-0.2-1.3-0.5
			c-0.3-0.3-0.5-0.8-0.5-1.3c0-0.6,0.2-1.1,0.6-1.5c0.4-0.4,1-0.6,1.8-0.6h0.7v-0.7c0-0.4-0.1-0.6-0.2-0.8s-0.4-0.2-0.8-0.2
			c-0.3,0-0.6,0.1-0.7,0.3c-0.2,0.2-0.3,0.4-0.3,0.7h-1c0-0.3,0.1-0.6,0.3-0.9s0.4-0.5,0.8-0.7c0.3-0.2,0.7-0.2,1.1-0.2
			c0.6,0,1.1,0.2,1.5,0.5c0.3,0.3,0.5,0.8,0.5,1.4v3.1c0,0.5,0.1,0.9,0.2,1.3v0.1H236.4z M235.1,48.7c0.2,0,0.5-0.1,0.7-0.2
			c0.2-0.1,0.4-0.3,0.5-0.5v-1.5h-0.6c-0.5,0-0.9,0.1-1.1,0.3c-0.3,0.2-0.4,0.5-0.4,0.9c0,0.4,0.1,0.6,0.2,0.8
			C234.5,48.6,234.7,48.7,235.1,48.7z"/>
		<path class="st1" d="M241.3,46.1c0-1,0.2-1.7,0.5-2.2c0.4-0.5,0.9-0.8,1.5-0.8c0.6,0,1.1,0.2,1.4,0.7v-3.2h1v8.9h-0.9l-0.1-0.7
			c-0.3,0.5-0.8,0.8-1.4,0.8c-0.6,0-1.2-0.3-1.5-0.8s-0.6-1.2-0.6-2.1V46.1z M242.4,46.7c0,0.7,0.1,1.2,0.3,1.5s0.5,0.5,1,0.5
			c0.5,0,0.9-0.3,1.1-0.8v-3.1c-0.3-0.5-0.6-0.7-1.1-0.7c-0.5,0-0.8,0.2-1,0.5c-0.2,0.3-0.3,0.8-0.3,1.5V46.7z"/>
		<path class="st1" d="M249.6,49.7c-0.8,0-1.4-0.2-1.8-0.7s-0.6-1.1-0.6-2v-0.8c0-0.9,0.2-1.7,0.6-2.2c0.4-0.5,1-0.8,1.7-0.8
			c0.7,0,1.3,0.2,1.6,0.7s0.5,1.2,0.6,2.2v0.7h-3.5v0.1c0,0.7,0.1,1.2,0.4,1.5s0.6,0.5,1.1,0.5c0.3,0,0.6-0.1,0.8-0.2
			s0.4-0.3,0.6-0.5l0.5,0.6C251.2,49.3,250.5,49.7,249.6,49.7z M249.5,44.1c-0.4,0-0.7,0.1-0.9,0.4c-0.2,0.3-0.3,0.7-0.3,1.4h2.5
			v-0.1c0-0.6-0.1-1-0.3-1.3C250.2,44.2,249.9,44.1,249.5,44.1z"/>
	</g>
	<g>
		<path class="st1" d="M166.4,58.9c0,0.9-0.3,1.6-0.8,2.1c-0.5,0.5-1.1,0.7-1.9,0.7c-0.8,0-1.5-0.3-2-1c-0.5-0.6-0.7-1.5-0.7-2.6
			v-1.5c0-1.1,0.3-2,0.8-2.6c0.5-0.6,1.2-1,2.1-1c0.8,0,1.4,0.2,1.9,0.7c0.4,0.5,0.7,1.2,0.7,2.1h-1.1c0-0.7-0.2-1.2-0.4-1.5
			c-0.2-0.3-0.6-0.4-1.1-0.4c-0.6,0-1,0.2-1.3,0.7s-0.5,1.1-0.5,2v1.5c0,0.8,0.1,1.5,0.4,2s0.7,0.7,1.3,0.7c0.5,0,0.9-0.1,1.2-0.4
			c0.2-0.3,0.4-0.8,0.4-1.5H166.4z"/>
		<path class="st1" d="M168.8,53.7c0,0.2,0,0.3-0.1,0.4c-0.1,0.1-0.2,0.2-0.4,0.2c-0.2,0-0.3-0.1-0.4-0.2c-0.1-0.1-0.1-0.3-0.1-0.4
			c0-0.2,0-0.3,0.1-0.4c0.1-0.1,0.2-0.2,0.4-0.2c0.2,0,0.3,0.1,0.4,0.2S168.8,53.5,168.8,53.7z M168.7,61.6h-1v-6.2h1V61.6z"/>
		<path class="st1" d="M172.6,61.7c-0.8,0-1.4-0.2-1.8-0.7c-0.4-0.5-0.6-1.1-0.6-2v-0.8c0-0.9,0.2-1.7,0.6-2.2
			c0.4-0.5,1-0.8,1.7-0.8c0.7,0,1.3,0.2,1.6,0.7s0.5,1.2,0.6,2.2v0.7h-3.5v0.1c0,0.7,0.1,1.2,0.4,1.5c0.3,0.3,0.6,0.5,1.1,0.5
			c0.3,0,0.6-0.1,0.8-0.2s0.4-0.3,0.6-0.5l0.5,0.6C174.2,61.4,173.5,61.7,172.6,61.7z M172.5,56.1c-0.4,0-0.7,0.1-0.9,0.4
			c-0.2,0.3-0.3,0.7-0.3,1.4h2.5v-0.1c0-0.6-0.1-1-0.3-1.3C173.1,56.2,172.8,56.1,172.5,56.1z"/>
		<path class="st1" d="M176.8,55.3l0,0.7c0.4-0.5,0.9-0.8,1.5-0.8c1.1,0,1.7,0.7,1.7,2.2v4.1h-1v-4.1c0-0.5-0.1-0.8-0.2-1
			c-0.2-0.2-0.4-0.3-0.7-0.3c-0.3,0-0.5,0.1-0.7,0.3c-0.2,0.2-0.4,0.4-0.5,0.7v4.5h-1v-6.2H176.8z"/>
		<path class="st1" d="M183.7,60.8c0.3,0,0.6-0.1,0.8-0.3c0.2-0.2,0.3-0.5,0.3-0.9h1c0,0.6-0.2,1.1-0.6,1.5s-0.9,0.6-1.5,0.6
			c-0.8,0-1.4-0.2-1.8-0.7c-0.4-0.5-0.6-1.2-0.6-2.2v-0.7c0-0.9,0.2-1.7,0.6-2.1c0.4-0.5,1-0.7,1.8-0.7c0.6,0,1.1,0.2,1.5,0.6
			s0.6,1,0.6,1.7h-1c0-0.5-0.1-0.8-0.3-1s-0.5-0.3-0.8-0.3c-0.5,0-0.8,0.1-1,0.4c-0.2,0.3-0.3,0.8-0.3,1.5v0.8
			c0,0.7,0.1,1.3,0.3,1.6C182.9,60.6,183.3,60.8,183.7,60.8z"/>
		<path class="st1" d="M188.2,53.7c0,0.2,0,0.3-0.1,0.4c-0.1,0.1-0.2,0.2-0.4,0.2c-0.2,0-0.3-0.1-0.4-0.2c-0.1-0.1-0.1-0.3-0.1-0.4
			c0-0.2,0-0.3,0.1-0.4c0.1-0.1,0.2-0.2,0.4-0.2c0.2,0,0.3,0.1,0.4,0.2S188.2,53.5,188.2,53.7z M188.1,61.6h-1v-6.2h1V61.6z"/>
		<path class="st1" d="M192.9,61.6c-0.1-0.1-0.1-0.4-0.1-0.7c-0.4,0.5-0.8,0.8-1.4,0.8c-0.6,0-1-0.2-1.3-0.5
			c-0.3-0.3-0.5-0.8-0.5-1.3c0-0.6,0.2-1.1,0.6-1.5c0.4-0.4,1-0.6,1.8-0.6h0.7v-0.7c0-0.4-0.1-0.6-0.2-0.8s-0.4-0.2-0.8-0.2
			c-0.3,0-0.6,0.1-0.7,0.3c-0.2,0.2-0.3,0.4-0.3,0.7h-1c0-0.3,0.1-0.6,0.3-0.9c0.2-0.3,0.4-0.5,0.8-0.7c0.3-0.2,0.7-0.2,1.1-0.2
			c0.6,0,1.1,0.2,1.5,0.5c0.3,0.3,0.5,0.8,0.5,1.4v3.1c0,0.5,0.1,0.9,0.2,1.3v0.1H192.9z M191.6,60.7c0.2,0,0.5-0.1,0.7-0.2
			c0.2-0.1,0.4-0.3,0.5-0.5v-1.5h-0.6c-0.5,0-0.9,0.1-1.1,0.3c-0.3,0.2-0.4,0.5-0.4,0.9c0,0.4,0.1,0.6,0.2,0.8
			C191,60.7,191.2,60.7,191.6,60.7z"/>
		<path class="st1" d="M198.4,60c0-0.2-0.1-0.4-0.2-0.6s-0.5-0.3-1-0.6c-0.5-0.2-0.9-0.4-1.2-0.6c-0.2-0.2-0.4-0.3-0.5-0.6
			c-0.1-0.2-0.2-0.5-0.2-0.7c0-0.5,0.2-0.9,0.6-1.3c0.4-0.3,0.8-0.5,1.4-0.5c0.6,0,1.1,0.2,1.5,0.5c0.4,0.4,0.6,0.8,0.6,1.4h-1
			c0-0.3-0.1-0.5-0.3-0.7s-0.4-0.3-0.7-0.3c-0.3,0-0.5,0.1-0.7,0.2s-0.3,0.4-0.3,0.6c0,0.2,0.1,0.4,0.2,0.5c0.1,0.1,0.4,0.3,0.9,0.5
			c0.8,0.3,1.3,0.6,1.5,0.9c0.3,0.3,0.4,0.6,0.4,1.1c0,0.5-0.2,1-0.6,1.3c-0.4,0.3-0.9,0.5-1.5,0.5c-0.6,0-1.2-0.2-1.6-0.6
			c-0.4-0.4-0.6-0.8-0.6-1.4h1c0,0.3,0.1,0.6,0.3,0.8c0.2,0.2,0.5,0.3,0.8,0.3c0.3,0,0.6-0.1,0.8-0.2S198.4,60.2,198.4,60z"/>
		<path class="st1" d="M207.3,59.4c0-0.4-0.1-0.7-0.3-1s-0.6-0.4-1.2-0.7c-0.6-0.2-1-0.4-1.4-0.7c-0.3-0.2-0.5-0.5-0.7-0.8
			c-0.2-0.3-0.2-0.6-0.2-1c0-0.7,0.2-1.2,0.7-1.6c0.4-0.4,1-0.6,1.7-0.6c0.5,0,0.9,0.1,1.3,0.3c0.4,0.2,0.7,0.5,0.9,0.9
			c0.2,0.4,0.3,0.8,0.3,1.3h-1.1c0-0.5-0.1-0.9-0.4-1.2c-0.2-0.3-0.6-0.4-1.1-0.4c-0.4,0-0.8,0.1-1,0.4s-0.4,0.6-0.4,1
			c0,0.4,0.1,0.7,0.4,0.9c0.3,0.2,0.6,0.5,1.2,0.6c0.8,0.3,1.4,0.6,1.8,1c0.4,0.4,0.5,0.9,0.5,1.6c0,0.7-0.2,1.2-0.7,1.6
			c-0.4,0.4-1,0.6-1.8,0.6c-0.5,0-0.9-0.1-1.4-0.3c-0.4-0.2-0.7-0.5-1-0.9s-0.4-0.8-0.4-1.3h1.1c0,0.5,0.1,0.9,0.4,1.2
			s0.7,0.4,1.2,0.4c0.5,0,0.8-0.1,1-0.4S207.3,59.8,207.3,59.4z"/>
		<path class="st1" d="M209.4,58.1c0-0.9,0.2-1.6,0.7-2.2c0.4-0.5,1-0.8,1.7-0.8s1.3,0.3,1.7,0.8c0.4,0.5,0.7,1.2,0.7,2.1v0.7
			c0,0.9-0.2,1.6-0.7,2.1c-0.4,0.5-1,0.8-1.8,0.8c-0.7,0-1.3-0.3-1.7-0.8c-0.4-0.5-0.7-1.2-0.7-2.1V58.1z M210.4,58.7
			c0,0.6,0.1,1.1,0.4,1.5c0.3,0.4,0.6,0.6,1,0.6c0.9,0,1.4-0.6,1.4-1.9v-0.7c0-0.6-0.1-1.1-0.4-1.5c-0.3-0.4-0.6-0.6-1-0.6
			c-0.4,0-0.8,0.2-1,0.6c-0.3,0.4-0.4,0.9-0.4,1.5V58.7z"/>
		<path class="st1" d="M217.7,60.8c0.3,0,0.6-0.1,0.8-0.3c0.2-0.2,0.3-0.5,0.3-0.9h1c0,0.6-0.2,1.1-0.6,1.5s-0.9,0.6-1.5,0.6
			c-0.8,0-1.4-0.2-1.8-0.7c-0.4-0.5-0.6-1.2-0.6-2.2v-0.7c0-0.9,0.2-1.7,0.6-2.1c0.4-0.5,1-0.7,1.8-0.7c0.6,0,1.1,0.2,1.5,0.6
			c0.4,0.4,0.6,1,0.6,1.7h-1c0-0.5-0.1-0.8-0.3-1c-0.2-0.2-0.5-0.3-0.8-0.3c-0.5,0-0.8,0.1-1,0.4c-0.2,0.3-0.3,0.8-0.3,1.5v0.8
			c0,0.7,0.1,1.3,0.3,1.6S217.2,60.8,217.7,60.8z"/>
		<path class="st1" d="M222.1,53.7c0,0.2,0,0.3-0.1,0.4c-0.1,0.1-0.2,0.2-0.4,0.2c-0.2,0-0.3-0.1-0.4-0.2c-0.1-0.1-0.1-0.3-0.1-0.4
			c0-0.2,0-0.3,0.1-0.4c0.1-0.1,0.2-0.2,0.4-0.2s0.3,0.1,0.4,0.2C222.1,53.4,222.1,53.5,222.1,53.7z M222.1,61.6h-1v-6.2h1V61.6z"/>
		<path class="st1" d="M226.9,61.6c-0.1-0.1-0.1-0.4-0.1-0.7c-0.4,0.5-0.8,0.8-1.4,0.8c-0.6,0-1-0.2-1.3-0.5
			c-0.3-0.3-0.5-0.8-0.5-1.3c0-0.6,0.2-1.1,0.6-1.5c0.4-0.4,1-0.6,1.8-0.6h0.7v-0.7c0-0.4-0.1-0.6-0.2-0.8s-0.4-0.2-0.8-0.2
			c-0.3,0-0.6,0.1-0.7,0.3c-0.2,0.2-0.3,0.4-0.3,0.7h-1c0-0.3,0.1-0.6,0.3-0.9s0.4-0.5,0.8-0.7c0.3-0.2,0.7-0.2,1.1-0.2
			c0.6,0,1.1,0.2,1.5,0.5c0.3,0.3,0.5,0.8,0.5,1.4v3.1c0,0.5,0.1,0.9,0.2,1.3v0.1H226.9z M225.5,60.7c0.2,0,0.5-0.1,0.7-0.2
			c0.2-0.1,0.4-0.3,0.5-0.5v-1.5h-0.6c-0.5,0-0.9,0.1-1.1,0.3c-0.3,0.2-0.4,0.5-0.4,0.9c0,0.4,0.1,0.6,0.2,0.8
			C224.9,60.7,225.2,60.7,225.5,60.7z"/>
		<path class="st1" d="M230.4,61.6h-1v-8.9h1V61.6z"/>
		<path class="st1" d="M234.2,61.7c-0.8,0-1.4-0.2-1.8-0.7c-0.4-0.5-0.6-1.1-0.6-2v-0.8c0-0.9,0.2-1.7,0.6-2.2
			c0.4-0.5,1-0.8,1.7-0.8c0.7,0,1.3,0.2,1.6,0.7s0.5,1.2,0.6,2.2v0.7h-3.5v0.1c0,0.7,0.1,1.2,0.4,1.5c0.3,0.3,0.6,0.5,1.1,0.5
			c0.3,0,0.6-0.1,0.8-0.2s0.4-0.3,0.6-0.5l0.5,0.6C235.8,61.4,235.2,61.7,234.2,61.7z M234.1,56.1c-0.4,0-0.7,0.1-0.9,0.4
			c-0.2,0.3-0.3,0.7-0.3,1.4h2.5v-0.1c0-0.6-0.1-1-0.3-1.3C234.8,56.2,234.5,56.1,234.1,56.1z"/>
		<path class="st1" d="M240.6,60c0-0.2-0.1-0.4-0.2-0.6s-0.5-0.3-1-0.6c-0.5-0.2-0.9-0.4-1.2-0.6c-0.2-0.2-0.4-0.3-0.5-0.6
			c-0.1-0.2-0.2-0.5-0.2-0.7c0-0.5,0.2-0.9,0.6-1.3c0.4-0.3,0.8-0.5,1.4-0.5c0.6,0,1.1,0.2,1.5,0.5c0.4,0.4,0.6,0.8,0.6,1.4h-1
			c0-0.3-0.1-0.5-0.3-0.7s-0.4-0.3-0.7-0.3c-0.3,0-0.5,0.1-0.7,0.2s-0.3,0.4-0.3,0.6c0,0.2,0.1,0.4,0.2,0.5c0.1,0.1,0.4,0.3,0.9,0.5
			c0.8,0.3,1.3,0.6,1.5,0.9c0.3,0.3,0.4,0.6,0.4,1.1c0,0.5-0.2,1-0.6,1.3c-0.4,0.3-0.9,0.5-1.5,0.5c-0.6,0-1.2-0.2-1.6-0.6
			c-0.4-0.4-0.6-0.8-0.6-1.4h1c0,0.3,0.1,0.6,0.3,0.8c0.2,0.2,0.5,0.3,0.8,0.3c0.3,0,0.6-0.1,0.8-0.2S240.6,60.2,240.6,60z"/>
		<path class="st1" d="M243,61c0-0.2,0.1-0.3,0.2-0.5c0.1-0.1,0.3-0.2,0.5-0.2s0.4,0.1,0.5,0.2c0.1,0.1,0.2,0.3,0.2,0.5
			c0,0.2-0.1,0.3-0.2,0.4s-0.3,0.2-0.5,0.2s-0.4-0.1-0.5-0.2S243,61.2,243,61z"/>
	</g>
	<g>
		<path class="st1" d="M164.8,71.5c0-0.4-0.1-0.7-0.3-1s-0.6-0.4-1.2-0.7c-0.6-0.2-1-0.4-1.4-0.7c-0.3-0.2-0.5-0.5-0.7-0.8
			c-0.2-0.3-0.2-0.6-0.2-1c0-0.7,0.2-1.2,0.7-1.6c0.4-0.4,1-0.6,1.7-0.6c0.5,0,0.9,0.1,1.3,0.3c0.4,0.2,0.7,0.5,0.9,0.9
			c0.2,0.4,0.3,0.8,0.3,1.3h-1.1c0-0.5-0.1-0.9-0.4-1.2c-0.2-0.3-0.6-0.4-1.1-0.4c-0.4,0-0.8,0.1-1,0.4s-0.4,0.6-0.4,1
			c0,0.4,0.1,0.7,0.4,0.9c0.3,0.2,0.6,0.5,1.2,0.6c0.8,0.3,1.4,0.6,1.8,1c0.4,0.4,0.5,0.9,0.5,1.6c0,0.7-0.2,1.2-0.7,1.6
			c-0.4,0.4-1,0.6-1.8,0.6c-0.5,0-0.9-0.1-1.4-0.3c-0.4-0.2-0.7-0.5-1-0.9s-0.4-0.8-0.4-1.3h1.1c0,0.5,0.1,0.9,0.4,1.2
			s0.7,0.4,1.2,0.4c0.5,0,0.8-0.1,1-0.4S164.8,71.9,164.8,71.5z"/>
		<path class="st1" d="M169.3,73.7c-0.8,0-1.4-0.2-1.8-0.7s-0.6-1.1-0.6-2v-0.8c0-0.9,0.2-1.7,0.6-2.2c0.4-0.5,1-0.8,1.7-0.8
			c0.7,0,1.3,0.2,1.6,0.7s0.5,1.2,0.6,2.2v0.7h-3.5v0.1c0,0.7,0.1,1.2,0.4,1.5s0.6,0.5,1.1,0.5c0.3,0,0.6-0.1,0.8-0.2
			s0.4-0.3,0.6-0.5l0.5,0.6C170.9,73.4,170.2,73.7,169.3,73.7z M169.2,68.1c-0.4,0-0.7,0.1-0.9,0.4c-0.2,0.3-0.3,0.7-0.3,1.4h2.5
			v-0.1c0-0.6-0.1-1-0.3-1.3C169.8,68.2,169.6,68.1,169.2,68.1z"/>
		<path class="st1" d="M172.4,70.2c0-1,0.2-1.7,0.5-2.2c0.4-0.5,0.9-0.8,1.5-0.8c0.6,0,1.1,0.2,1.4,0.7v-3.2h1v8.9h-0.9l-0.1-0.7
			c-0.3,0.5-0.8,0.8-1.4,0.8c-0.6,0-1.2-0.3-1.5-0.8c-0.4-0.5-0.6-1.2-0.6-2.1V70.2z M173.4,70.8c0,0.7,0.1,1.2,0.3,1.5
			c0.2,0.3,0.5,0.5,1,0.5c0.5,0,0.9-0.3,1.1-0.8v-3.1c-0.3-0.5-0.6-0.7-1.1-0.7c-0.5,0-0.8,0.2-1,0.5c-0.2,0.3-0.3,0.8-0.3,1.5V70.8
			z"/>
		<path class="st1" d="M180.7,73.7c-0.8,0-1.4-0.2-1.8-0.7c-0.4-0.5-0.6-1.1-0.6-2v-0.8c0-0.9,0.2-1.7,0.6-2.2
			c0.4-0.5,1-0.8,1.7-0.8c0.7,0,1.3,0.2,1.6,0.7s0.5,1.2,0.6,2.2v0.7h-3.5v0.1c0,0.7,0.1,1.2,0.4,1.5c0.3,0.3,0.6,0.5,1.1,0.5
			c0.3,0,0.6-0.1,0.8-0.2s0.4-0.3,0.6-0.5l0.5,0.6C182.3,73.4,181.6,73.7,180.7,73.7z M180.6,68.1c-0.4,0-0.7,0.1-0.9,0.4
			c-0.2,0.3-0.3,0.7-0.3,1.4h2.5v-0.1c0-0.6-0.1-1-0.3-1.3C181.2,68.2,180.9,68.1,180.6,68.1z"/>
		<path class="st1" d="M190.7,71.4h-2.8l-0.7,2.2h-1.1l2.7-8.4h0.9l2.7,8.4h-1.1L190.7,71.4z M188.2,70.5h2.3l-1.1-3.8L188.2,70.5z"
			/>
		<path class="st1" d="M196,68.3c-0.1,0-0.3,0-0.5,0c-0.5,0-0.9,0.3-1.1,0.9v4.5h-1v-6.2h1l0,0.6c0.3-0.5,0.7-0.7,1.2-0.7
			c0.2,0,0.3,0,0.4,0.1L196,68.3z"/>
		<path class="st1" d="M196.8,70.2c0-1,0.2-1.7,0.5-2.2c0.4-0.5,0.9-0.7,1.5-0.7c0.6,0,1.1,0.3,1.4,0.8l0.1-0.7h0.9v6.3
			c0,0.8-0.2,1.4-0.6,1.8c-0.4,0.4-0.9,0.6-1.7,0.6c-0.3,0-0.7-0.1-1-0.2c-0.4-0.2-0.7-0.3-0.9-0.6l0.4-0.7c0.4,0.4,0.9,0.6,1.4,0.6
			c0.8,0,1.3-0.5,1.3-1.4V73c-0.3,0.5-0.8,0.7-1.4,0.7c-0.6,0-1.1-0.2-1.5-0.7c-0.4-0.5-0.5-1.2-0.6-2.1V70.2z M197.8,70.8
			c0,0.7,0.1,1.2,0.3,1.5c0.2,0.3,0.5,0.5,1,0.5c0.5,0,0.9-0.3,1.1-0.8v-3.1c-0.3-0.5-0.6-0.8-1.1-0.8c-0.5,0-0.8,0.2-1,0.5
			c-0.2,0.3-0.3,0.8-0.3,1.5V70.8z"/>
		<path class="st1" d="M205,73.7c-0.8,0-1.4-0.2-1.8-0.7s-0.6-1.1-0.6-2v-0.8c0-0.9,0.2-1.7,0.6-2.2c0.4-0.5,1-0.8,1.7-0.8
			c0.7,0,1.3,0.2,1.6,0.7s0.5,1.2,0.6,2.2v0.7h-3.5v0.1c0,0.7,0.1,1.2,0.4,1.5s0.6,0.5,1.1,0.5c0.3,0,0.6-0.1,0.8-0.2
			s0.4-0.3,0.6-0.5l0.5,0.6C206.6,73.4,205.9,73.7,205,73.7z M204.9,68.1c-0.4,0-0.7,0.1-0.9,0.4c-0.2,0.3-0.3,0.7-0.3,1.4h2.5v-0.1
			c0-0.6-0.1-1-0.3-1.3C205.6,68.2,205.3,68.1,204.9,68.1z"/>
		<path class="st1" d="M209.3,67.3l0,0.7c0.4-0.5,0.9-0.8,1.5-0.8c1.1,0,1.7,0.7,1.7,2.2v4.1h-1v-4.1c0-0.5-0.1-0.8-0.2-1
			c-0.2-0.2-0.4-0.3-0.7-0.3c-0.3,0-0.5,0.1-0.7,0.3c-0.2,0.2-0.4,0.4-0.5,0.7v4.5h-1v-6.2H209.3z"/>
		<path class="st1" d="M215.4,65.8v1.5h0.9v0.8h-0.9V72c0,0.2,0,0.4,0.1,0.6c0.1,0.1,0.2,0.2,0.4,0.2c0.1,0,0.3,0,0.4-0.1l0,0.9
			c-0.2,0.1-0.5,0.1-0.7,0.1c-0.4,0-0.7-0.1-0.9-0.4c-0.2-0.3-0.3-0.7-0.3-1.2v-3.9h-1v-0.8h1v-1.5H215.4z"/>
		<path class="st1" d="M218.7,65.7c0,0.2,0,0.3-0.1,0.4c-0.1,0.1-0.2,0.2-0.4,0.2c-0.2,0-0.3-0.1-0.4-0.2c-0.1-0.1-0.1-0.3-0.1-0.4
			c0-0.2,0-0.3,0.1-0.4c0.1-0.1,0.2-0.2,0.4-0.2s0.3,0.1,0.4,0.2C218.6,65.4,218.7,65.5,218.7,65.7z M218.6,73.6h-1v-6.2h1V73.6z"/>
		<path class="st1" d="M221.2,67.3l0,0.7c0.4-0.5,0.9-0.8,1.5-0.8c1.1,0,1.7,0.7,1.7,2.2v4.1h-1v-4.1c0-0.5-0.1-0.8-0.2-1
			c-0.2-0.2-0.4-0.3-0.7-0.3c-0.3,0-0.5,0.1-0.7,0.3c-0.2,0.2-0.4,0.4-0.5,0.7v4.5h-1v-6.2H221.2z"/>
		<path class="st1" d="M229.1,73.6c-0.1-0.1-0.1-0.4-0.1-0.7c-0.4,0.5-0.8,0.8-1.4,0.8c-0.6,0-1-0.2-1.3-0.5
			c-0.3-0.3-0.5-0.8-0.5-1.3c0-0.6,0.2-1.1,0.6-1.5c0.4-0.4,1-0.6,1.8-0.6h0.7v-0.7c0-0.4-0.1-0.6-0.2-0.8s-0.4-0.2-0.8-0.2
			c-0.3,0-0.6,0.1-0.7,0.3c-0.2,0.2-0.3,0.4-0.3,0.7h-1c0-0.3,0.1-0.6,0.3-0.9s0.4-0.5,0.8-0.7c0.3-0.2,0.7-0.2,1.1-0.2
			c0.6,0,1.1,0.2,1.5,0.5c0.3,0.3,0.5,0.8,0.5,1.4v3.1c0,0.5,0.1,0.9,0.2,1.3v0.1H229.1z M227.8,72.8c0.2,0,0.5-0.1,0.7-0.2
			c0.2-0.1,0.4-0.3,0.5-0.5v-1.5h-0.6c-0.5,0-0.9,0.1-1.1,0.3c-0.3,0.2-0.4,0.5-0.4,0.9c0,0.4,0.1,0.6,0.2,0.8
			C227.2,72.7,227.4,72.8,227.8,72.8z"/>
		<path class="st1" d="M231.6,73c0-0.2,0.1-0.3,0.2-0.5c0.1-0.1,0.3-0.2,0.5-0.2s0.4,0.1,0.5,0.2c0.1,0.1,0.2,0.3,0.2,0.5
			c0,0.2-0.1,0.3-0.2,0.4s-0.3,0.2-0.5,0.2s-0.4-0.1-0.5-0.2S231.6,73.2,231.6,73z"/>
	</g>
	<g>
		<path class="st1" d="M164.9,92.8h-2.3l-0.4,1.7h-1.8l2.6-8.4h1.5l2.6,8.4h-1.8L164.9,92.8z M164.1,83.9h1.8l-1.6,1.8h-1.4
			L164.1,83.9z M162.9,91.4h1.6l-0.8-3L162.9,91.4z"/>
		<path class="st1" d="M170.9,89.9l-0.5,0c-0.4,0-0.7,0.2-0.9,0.6v4.1h-1.6v-6.2h1.5l0,0.7c0.3-0.5,0.6-0.8,1.1-0.8
			c0.2,0,0.3,0,0.4,0.1L170.9,89.9z"/>
		<path class="st1" d="M174.2,94.7c-0.8,0-1.5-0.2-2-0.7s-0.7-1.2-0.7-2.1v-0.5c0-1,0.2-1.7,0.6-2.3c0.4-0.5,1-0.8,1.8-0.8
			c0.8,0,1.4,0.2,1.8,0.8s0.6,1.2,0.6,2.2V92h-3.2c0,0.5,0.1,0.8,0.3,1c0.2,0.2,0.5,0.3,0.8,0.3c0.5,0,1-0.2,1.4-0.6l0.6,1
			c-0.2,0.3-0.5,0.5-0.9,0.7C175,94.6,174.6,94.7,174.2,94.7z M173.1,90.9h1.6v-0.2c0-0.4-0.1-0.7-0.2-0.8s-0.3-0.3-0.6-0.3
			s-0.5,0.1-0.6,0.3C173.2,90.1,173.2,90.4,173.1,90.9z"/>
		<path class="st1" d="M180.3,94.6c0-0.1-0.1-0.3-0.1-0.5c-0.3,0.4-0.7,0.6-1.2,0.6c-0.5,0-1-0.2-1.3-0.5s-0.5-0.8-0.5-1.3
			c0-0.7,0.2-1.2,0.6-1.5s1-0.5,1.8-0.5h0.5v-0.5c0-0.3,0-0.5-0.1-0.6s-0.2-0.2-0.4-0.2c-0.4,0-0.6,0.2-0.6,0.7h-1.6
			c0-0.6,0.2-1.1,0.6-1.4c0.4-0.4,1-0.6,1.6-0.6c0.7,0,1.2,0.2,1.6,0.5c0.4,0.4,0.6,0.9,0.6,1.5v2.9c0,0.5,0.1,1,0.2,1.3v0.1H180.3z
			 M179.3,93.4c0.2,0,0.3,0,0.5-0.1s0.2-0.2,0.3-0.3v-1.3h-0.4c-0.3,0-0.5,0.1-0.7,0.3c-0.2,0.2-0.2,0.4-0.2,0.7
			C178.8,93.2,178.9,93.4,179.3,93.4z"/>
		<path class="st1" d="M190,90.9h-2.6v2.2h3.1v1.4h-4.8v-8.4h4.8v1.4h-3.1v2h2.6V90.9z"/>
		<path class="st1" d="M194.1,92.9c0-0.1-0.1-0.3-0.2-0.4s-0.4-0.3-0.9-0.5c-0.7-0.3-1.1-0.6-1.4-0.8s-0.4-0.7-0.4-1.1
			c0-0.5,0.2-1,0.6-1.4c0.4-0.4,0.9-0.5,1.6-0.5c0.7,0,1.2,0.2,1.6,0.5s0.6,0.8,0.6,1.4h-1.6c0-0.5-0.2-0.8-0.6-0.8
			c-0.2,0-0.3,0.1-0.4,0.2s-0.2,0.3-0.2,0.4c0,0.1,0.1,0.3,0.2,0.4s0.4,0.3,0.9,0.5c0.7,0.2,1.1,0.5,1.4,0.8
			c0.3,0.3,0.4,0.7,0.4,1.2c0,0.6-0.2,1-0.6,1.3s-1,0.5-1.6,0.5c-0.5,0-0.9-0.1-1.2-0.3s-0.6-0.4-0.8-0.7c-0.2-0.3-0.3-0.7-0.3-1
			h1.5c0,0.3,0.1,0.5,0.2,0.6c0.1,0.1,0.3,0.2,0.6,0.2C193.9,93.5,194.1,93.3,194.1,92.9z"/>
		<path class="st1" d="M198.6,86.8v1.5h0.8v1.2h-0.8v3.1c0,0.2,0,0.4,0.1,0.5s0.2,0.1,0.4,0.1c0.2,0,0.3,0,0.4,0l0,1.3
			c-0.3,0.1-0.6,0.2-0.9,0.2c-1.1,0-1.6-0.6-1.6-1.8v-3.3h-0.7v-1.2h0.7v-1.5H198.6z"/>
		<path class="st1" d="M203.3,94.6c0-0.1-0.1-0.3-0.1-0.5c-0.3,0.4-0.7,0.6-1.2,0.6c-0.5,0-1-0.2-1.3-0.5s-0.5-0.8-0.5-1.3
			c0-0.7,0.2-1.2,0.6-1.5s1-0.5,1.8-0.5h0.5v-0.5c0-0.3,0-0.5-0.1-0.6s-0.2-0.2-0.4-0.2c-0.4,0-0.6,0.2-0.6,0.7h-1.6
			c0-0.6,0.2-1.1,0.6-1.4c0.4-0.4,1-0.6,1.6-0.6c0.7,0,1.2,0.2,1.6,0.5c0.4,0.4,0.6,0.9,0.6,1.5v2.9c0,0.5,0.1,1,0.2,1.3v0.1H203.3z
			 M202.3,93.4c0.2,0,0.3,0,0.5-0.1s0.2-0.2,0.3-0.3v-1.3h-0.4c-0.3,0-0.5,0.1-0.7,0.3c-0.2,0.2-0.2,0.4-0.2,0.7
			C201.8,93.2,202,93.4,202.3,93.4z"/>
		<path class="st1" d="M205.7,91.3c0-1,0.2-1.8,0.5-2.3c0.3-0.5,0.8-0.8,1.5-0.8c0.5,0,0.9,0.2,1.2,0.6v-3.1h1.6v8.9h-1.5l-0.1-0.6
			c-0.3,0.5-0.8,0.7-1.3,0.7c-0.7,0-1.2-0.2-1.5-0.7s-0.5-1.2-0.5-2.2V91.3z M207.3,91.7c0,0.6,0.1,1,0.2,1.3s0.4,0.4,0.7,0.4
			c0.3,0,0.6-0.1,0.7-0.4V90c-0.2-0.3-0.4-0.5-0.7-0.5c-0.3,0-0.5,0.1-0.7,0.4c-0.1,0.2-0.2,0.7-0.2,1.3V91.7z"/>
		<path class="st1" d="M211.6,91.2c0-0.9,0.2-1.7,0.7-2.2c0.4-0.5,1.1-0.8,1.8-0.8c0.8,0,1.4,0.3,1.9,0.8s0.7,1.3,0.7,2.2v0.4
			c0,0.9-0.2,1.7-0.7,2.2s-1.1,0.8-1.9,0.8c-0.8,0-1.4-0.3-1.9-0.8s-0.7-1.3-0.7-2.2V91.2z M213.2,91.7c0,1.1,0.3,1.7,0.9,1.7
			c0.5,0,0.8-0.5,0.9-1.4l0-0.7c0-0.6-0.1-1-0.2-1.3c-0.2-0.3-0.4-0.4-0.7-0.4c-0.3,0-0.5,0.1-0.6,0.4c-0.2,0.3-0.2,0.7-0.2,1.3
			V91.7z"/>
		<path class="st1" d="M222.3,91.9l0.8-3.5h1.7l-2.1,7.2c-0.3,1.1-0.9,1.6-1.7,1.6c-0.2,0-0.4,0-0.7-0.1v-1.3l0.2,0
			c0.3,0,0.4,0,0.6-0.1c0.1-0.1,0.2-0.3,0.3-0.5l0.1-0.4l-1.8-6.3h1.8L222.3,91.9z"/>
	</g>
	<g>
		<path class="st1" d="M162.6,104.2v3h-1.7v-8.4h2.9c0.8,0,1.5,0.3,2,0.8c0.5,0.5,0.7,1.2,0.7,2c0,0.8-0.2,1.5-0.7,1.9
			c-0.5,0.5-1.2,0.7-2,0.7H162.6z M162.6,102.8h1.2c0.3,0,0.6-0.1,0.7-0.3c0.2-0.2,0.3-0.5,0.3-0.9c0-0.4-0.1-0.8-0.3-1
			c-0.2-0.2-0.4-0.4-0.7-0.4h-1.2V102.8z"/>
		<path class="st1" d="M167.2,103.8c0-0.9,0.2-1.7,0.7-2.2c0.4-0.5,1.1-0.8,1.8-0.8c0.8,0,1.4,0.3,1.9,0.8s0.7,1.3,0.7,2.2v0.4
			c0,0.9-0.2,1.7-0.7,2.2s-1.1,0.8-1.9,0.8c-0.8,0-1.4-0.3-1.9-0.8s-0.7-1.3-0.7-2.2V103.8z M168.9,104.3c0,1.1,0.3,1.7,0.9,1.7
			c0.5,0,0.8-0.5,0.9-1.4l0-0.7c0-0.6-0.1-1-0.2-1.3c-0.2-0.3-0.4-0.4-0.7-0.4c-0.3,0-0.5,0.1-0.6,0.4c-0.2,0.3-0.2,0.7-0.2,1.3
			V104.3z"/>
		<path class="st1" d="M175,107.2h-1.6v-8.9h1.6V107.2z"/>
		<path class="st1" d="M178,107.2h-1.6v-6.2h1.6V107.2z M177.6,98.4h1.8l-1.6,1.8h-1.4L177.6,98.4z"/>
		<path class="st1" d="M181.3,99.4v1.5h0.8v1.2h-0.8v3.1c0,0.2,0,0.4,0.1,0.5s0.2,0.1,0.4,0.1c0.2,0,0.3,0,0.4,0l0,1.3
			c-0.3,0.1-0.6,0.2-0.9,0.2c-1.1,0-1.6-0.6-1.6-1.8v-3.3h-0.7v-1.2h0.7v-1.5H181.3z"/>
		<path class="st1" d="M183,99.3c0-0.3,0.1-0.5,0.2-0.6c0.2-0.2,0.4-0.2,0.6-0.2c0.3,0,0.5,0.1,0.6,0.2c0.2,0.2,0.2,0.4,0.2,0.6
			c0,0.2-0.1,0.5-0.2,0.6s-0.4,0.2-0.6,0.2c-0.3,0-0.5-0.1-0.6-0.2C183.1,99.8,183,99.6,183,99.3z M184.7,107.2h-1.6v-6.2h1.6V107.2
			z"/>
		<path class="st1" d="M188.2,105.9c0.5,0,0.7-0.3,0.7-0.9h1.5c0,0.7-0.2,1.2-0.6,1.6s-0.9,0.6-1.6,0.6c-0.8,0-1.4-0.2-1.8-0.7
			s-0.6-1.2-0.6-2.2v-0.5c0-1,0.2-1.7,0.6-2.2s1-0.8,1.8-0.8c0.7,0,1.2,0.2,1.6,0.6c0.4,0.4,0.6,1,0.6,1.8h-1.5
			c0-0.3-0.1-0.6-0.2-0.8c-0.1-0.2-0.3-0.3-0.6-0.3c-0.3,0-0.5,0.1-0.6,0.3c-0.1,0.2-0.2,0.6-0.2,1.2v0.6c0,0.5,0,0.9,0.1,1.1
			c0,0.2,0.1,0.3,0.2,0.4C187.9,105.9,188,105.9,188.2,105.9z"/>
		<path class="st1" d="M194.4,107.2c0-0.1-0.1-0.3-0.1-0.5c-0.3,0.4-0.7,0.6-1.2,0.6c-0.5,0-1-0.2-1.3-0.5s-0.5-0.8-0.5-1.3
			c0-0.7,0.2-1.2,0.6-1.5s1-0.5,1.8-0.5h0.5v-0.5c0-0.3,0-0.5-0.1-0.6c-0.1-0.1-0.2-0.2-0.4-0.2c-0.4,0-0.6,0.2-0.6,0.7h-1.6
			c0-0.6,0.2-1.1,0.6-1.4c0.4-0.4,1-0.6,1.6-0.6c0.7,0,1.2,0.2,1.6,0.5c0.4,0.4,0.6,0.9,0.6,1.5v2.9c0,0.5,0.1,1,0.2,1.3v0.1H194.4z
			 M193.4,106c0.2,0,0.3,0,0.5-0.1s0.2-0.2,0.3-0.3v-1.3h-0.4c-0.3,0-0.5,0.1-0.7,0.3s-0.2,0.4-0.2,0.7
			C192.9,105.8,193,106,193.4,106z"/>
		<path class="st1" d="M199.7,105.5c0-0.1-0.1-0.3-0.2-0.4c-0.1-0.1-0.4-0.3-0.9-0.5c-0.7-0.3-1.1-0.6-1.4-0.8
			c-0.3-0.3-0.4-0.7-0.4-1.1c0-0.5,0.2-1,0.6-1.4s0.9-0.5,1.6-0.5c0.7,0,1.2,0.2,1.6,0.5s0.6,0.8,0.6,1.4h-1.6
			c0-0.5-0.2-0.8-0.6-0.8c-0.2,0-0.3,0.1-0.4,0.2c-0.1,0.1-0.2,0.3-0.2,0.4c0,0.1,0.1,0.3,0.2,0.4s0.4,0.3,0.9,0.5
			c0.7,0.2,1.1,0.5,1.4,0.8s0.4,0.7,0.4,1.2c0,0.6-0.2,1-0.6,1.3c-0.4,0.3-1,0.5-1.6,0.5c-0.5,0-0.9-0.1-1.2-0.3s-0.6-0.4-0.8-0.7
			c-0.2-0.3-0.3-0.7-0.3-1h1.5c0,0.3,0.1,0.5,0.2,0.6c0.1,0.1,0.3,0.2,0.6,0.2C199.5,106.1,199.7,105.9,199.7,105.5z"/>
		<path class="st1" d="M206.8,104.2v3h-1.7v-8.4h2.9c0.8,0,1.5,0.3,2,0.8c0.5,0.5,0.7,1.2,0.7,2c0,0.8-0.2,1.5-0.7,1.9
			c-0.5,0.5-1.2,0.7-2,0.7H206.8z M206.8,102.8h1.2c0.3,0,0.6-0.1,0.7-0.3c0.2-0.2,0.3-0.5,0.3-0.9c0-0.4-0.1-0.8-0.3-1
			c-0.2-0.2-0.4-0.4-0.7-0.4h-1.2V102.8z"/>
		<path class="st1" d="M214.8,106.6c-0.3,0.5-0.8,0.7-1.4,0.7c-0.6,0-1-0.2-1.3-0.6s-0.4-1-0.4-1.7v-4h1.6v4.1
			c0,0.6,0.2,0.9,0.6,0.9c0.4,0,0.6-0.2,0.8-0.5v-4.5h1.6v6.2h-1.5L214.8,106.6z M214.4,98.3h1.8l-1.6,1.8h-1.4L214.4,98.3z"/>
		<path class="st1" d="M222.4,104.2c0,1-0.2,1.8-0.5,2.3c-0.3,0.5-0.8,0.8-1.5,0.8c-0.5,0-1-0.2-1.3-0.7l-0.1,0.6h-1.5v-8.9h1.6v3.1
			c0.3-0.4,0.7-0.6,1.2-0.6c0.7,0,1.2,0.3,1.5,0.8c0.3,0.5,0.5,1.2,0.5,2.2V104.2z M220.8,103.8c0-0.7-0.1-1.1-0.2-1.3
			s-0.3-0.3-0.7-0.3c-0.3,0-0.6,0.2-0.7,0.5v2.8c0.1,0.3,0.4,0.4,0.8,0.4c0.3,0,0.5-0.1,0.6-0.3c0.1-0.2,0.2-0.6,0.2-1.2V103.8z"/>
		<path class="st1" d="M225.1,107.2h-1.6v-8.9h1.6V107.2z"/>
		<path class="st1" d="M226.4,99.3c0-0.3,0.1-0.5,0.2-0.6c0.2-0.2,0.4-0.2,0.6-0.2c0.3,0,0.5,0.1,0.6,0.2c0.2,0.2,0.2,0.4,0.2,0.6
			c0,0.2-0.1,0.5-0.2,0.6s-0.4,0.2-0.6,0.2c-0.3,0-0.5-0.1-0.6-0.2C226.5,99.8,226.4,99.6,226.4,99.3z M228.1,107.2h-1.6v-6.2h1.6
			V107.2z"/>
		<path class="st1" d="M231.6,105.9c0.5,0,0.7-0.3,0.7-0.9h1.5c0,0.7-0.2,1.2-0.6,1.6s-0.9,0.6-1.6,0.6c-0.8,0-1.4-0.2-1.8-0.7
			s-0.6-1.2-0.6-2.2v-0.5c0-1,0.2-1.7,0.6-2.2s1-0.8,1.8-0.8c0.7,0,1.2,0.2,1.6,0.6c0.4,0.4,0.6,1,0.6,1.8h-1.5
			c0-0.3-0.1-0.6-0.2-0.8c-0.1-0.2-0.3-0.3-0.6-0.3c-0.3,0-0.5,0.1-0.6,0.3c-0.1,0.2-0.2,0.6-0.2,1.2v0.6c0,0.5,0,0.9,0.1,1.1
			c0,0.2,0.1,0.3,0.2,0.4C231.2,105.9,231.4,105.9,231.6,105.9z"/>
		<path class="st1" d="M237.7,107.2c0-0.1-0.1-0.3-0.1-0.5c-0.3,0.4-0.7,0.6-1.2,0.6c-0.5,0-1-0.2-1.3-0.5s-0.5-0.8-0.5-1.3
			c0-0.7,0.2-1.2,0.6-1.5s1-0.5,1.8-0.5h0.5v-0.5c0-0.3,0-0.5-0.1-0.6c-0.1-0.1-0.2-0.2-0.4-0.2c-0.4,0-0.6,0.2-0.6,0.7h-1.6
			c0-0.6,0.2-1.1,0.6-1.4c0.4-0.4,1-0.6,1.6-0.6c0.7,0,1.2,0.2,1.6,0.5c0.4,0.4,0.6,0.9,0.6,1.5v2.9c0,0.5,0.1,1,0.2,1.3v0.1H237.7z
			 M236.8,106c0.2,0,0.3,0,0.5-0.1s0.2-0.2,0.3-0.3v-1.3h-0.4c-0.3,0-0.5,0.1-0.7,0.3s-0.2,0.4-0.2,0.7
			C236.2,105.8,236.4,106,236.8,106z"/>
		<path class="st1" d="M243.1,105.5c0-0.1-0.1-0.3-0.2-0.4c-0.1-0.1-0.4-0.3-0.9-0.5c-0.7-0.3-1.1-0.6-1.4-0.8
			c-0.3-0.3-0.4-0.7-0.4-1.1c0-0.5,0.2-1,0.6-1.4s0.9-0.5,1.6-0.5c0.7,0,1.2,0.2,1.6,0.5s0.6,0.8,0.6,1.4H243c0-0.5-0.2-0.8-0.6-0.8
			c-0.2,0-0.3,0.1-0.4,0.2c-0.1,0.1-0.2,0.3-0.2,0.4c0,0.1,0.1,0.3,0.2,0.4s0.4,0.3,0.9,0.5c0.7,0.2,1.1,0.5,1.4,0.8
			s0.4,0.7,0.4,1.2c0,0.6-0.2,1-0.6,1.3c-0.4,0.3-1,0.5-1.6,0.5c-0.5,0-0.9-0.1-1.2-0.3s-0.6-0.4-0.8-0.7c-0.2-0.3-0.3-0.7-0.3-1
			h1.5c0,0.3,0.1,0.5,0.2,0.6c0.1,0.1,0.3,0.2,0.6,0.2C242.9,106.1,243.1,105.9,243.1,105.5z"/>
		<path class="st1" d="M245.8,106.3c0-0.3,0.1-0.5,0.3-0.6s0.4-0.3,0.7-0.3c0.3,0,0.5,0.1,0.7,0.2c0.2,0.2,0.3,0.4,0.3,0.6
			c0,0.3-0.1,0.5-0.3,0.6c-0.2,0.2-0.4,0.2-0.7,0.2c-0.3,0-0.5-0.1-0.7-0.2S245.8,106.6,245.8,106.3z"/>
	</g>
</g>
</svg>
