<?xml version="1.0" encoding="utf-8"?>
<!-- Generator: Adobe Illustrator 25.4.1, SVG Export Plug-In . SVG Version: 6.00 Build 0)  -->
<!DOCTYPE svg PUBLIC "-//W3C//DTD SVG 1.1//EN" "http://www.w3.org/Graphics/SVG/1.1/DTD/svg11.dtd" [
	<!ENTITY ns_extend "http://ns.adobe.com/Extensibility/1.0/">
	<!ENTITY ns_ai "http://ns.adobe.com/AdobeIllustrator/10.0/">
	<!ENTITY ns_graphs "http://ns.adobe.com/Graphs/1.0/">
	<!ENTITY ns_vars "http://ns.adobe.com/Variables/1.0/">
	<!ENTITY ns_imrep "http://ns.adobe.com/ImageReplacement/1.0/">
	<!ENTITY ns_sfw "http://ns.adobe.com/SaveForWeb/1.0/">
	<!ENTITY ns_custom "http://ns.adobe.com/GenericCustomNamespace/1.0/">
	<!ENTITY ns_adobe_xpath "http://ns.adobe.com/XPath/1.0/">
]>
<svg version="1.1" id="Capa_1" xmlns:x="&ns_extend;" xmlns:i="&ns_ai;" xmlns:graph="&ns_graphs;"
	 xmlns="http://www.w3.org/2000/svg" xmlns:xlink="http://www.w3.org/1999/xlink" x="0px" y="0px" viewBox="0 0 66.6 135"
	 style="enable-background:new 0 0 66.6 135;" xml:space="preserve">
<style type="text/css">
	.st0{fill:#FFFFFF;}
	.st1{fill:#0968AE;}
</style>
<metadata>
	<sfw  xmlns="&ns_sfw;">
		<slices></slices>
		<sliceSourceBounds  bottomLeftOrigin="true" height="135" width="66.6" x="926.8" y="-608"></sliceSourceBounds>
	</sfw>
</metadata>
<g>
	<rect x="0.7" y="0.7" class="st0" width="65.3" height="65.3"/>
	<rect x="0.4" y="69" class="st0" width="31.5" height="31.5"/>
	<rect x="34.5" y="69" class="st0" width="31.5" height="31.5"/>
	<rect x="0.4" y="103.4" class="st0" width="31.5" height="31.5"/>
	<rect x="34.5" y="103.4" class="st0" width="31.5" height="31.5"/>
	<path class="st1" d="M40.5,24l0,0.1c-0.8,0.9-1.7,1.7-2.5,2.6c0.1,0.1,0.1,0.2,0.2,0.3c0-0.2,0.1-0.4,0.2-0.6
		c0.2-0.3,0.5-0.1,0.8,0c0.4-0.1,0.8,0.1,1.3,0.1c0.3,0.2,0.3,0.6,0.6,0.7c0.1,0.1,0,0.2-0.1,0.3c0.1,0.7,0.4-0.2,0.7,0
		c0.1,0.1,0.3,0,0.4,0.2c0.1,0.3,0.4,0.2,0.4,0.5c0,0.1-0.2,0.2-0.3,0.2c0.1,0.3-0.3,0.4-0.2,0.7c0.5,0.1,0.5-0.5,0.8-0.8
		c-0.1-0.5-0.2-0.9-0.5-1.3c-0.3-0.1-0.5-0.4-0.8-0.5c-0.6-0.2,0.1-0.6,0-0.9C41.4,25,40.9,24.5,40.5,24z"/>
	<path class="st1" d="M43.8,33.4c-0.4,1.2-0.8,2.4-1.6,3.4c-0.3,0.4-0.6,0.9-1,1.1l0.8,0.7c0,0,0-0.1,0-0.2c0-0.1,0.1-0.2,0.2-0.2
		c0.4,0,0.4,0.4,0.6,0.6c0,0.3,0.2,0.6,0.2,0.9c2.2-2.4,3.4-5.3,3.6-8.5l0.1-0.1c-0.8,0.1-1.6,0-2.5,0l-0.2-0.1
		c0.1,0.5-0.1,1.1-0.1,1.6l0.3,0.3c0.1,0.1,0.1,0.3-0.1,0.4C44.1,33.5,43.9,33.5,43.8,33.4z"/>
	<path class="st1" d="M40.7,41.8l0.1-0.2c0.5-0.4,1.1-0.8,1.6-1.3h0.1c-0.1,0-0.2,0.1-0.4,0c-0.2-0.1-0.3-0.3-0.3-0.6l-1.1-1.1
		l-0.1-0.2c-0.1,0.2-0.2,0.3-0.4,0.5c0,0.1,0,0.4,0.1,0.5c0.4,0.1,0.8,0.3,0.9,0.8c-0.1,0.4-0.9,0.7-0.4,1.2
		C41,41.6,40.6,41.7,40.7,41.8z"/>
	<path class="st1" d="M34.3,37.2c0.2,0,0.1,0.3,0.2,0.4c0.4-0.1,0.6,0.3,0.9,0c0-0.4,0.5-0.4,0.7-0.5c0.4-0.2,0.9-0.6,0.8-1.1
		l-0.1-0.1c-0.3,0-0.4,0.2-0.6,0.4c-0.2,0.1-0.4-0.3-0.6-0.2c0,0,0.1,0.1,0.1,0.1c0.1,0.1,0.1,0.2,0,0.3c-0.3,0.3-0.4-0.1-0.7-0.1
		v0.1c0,0.1,0,0.2-0.1,0.1c-0.2-0.3-0.5-0.2-0.7-0.4c-0.1-0.1-0.2,0-0.3,0.1c-0.1,0.1-0.3,0-0.3,0.2c-0.2,0.1-0.2,0.3-0.4,0.5
		c-0.3,0-0.4,0.3-0.7,0.3c0,0.1,0,0.1,0.1,0.2c0.2,0.1,0.3,0.1,0.5,0.1C33.5,37,33.9,37.3,34.3,37.2z"/>
	<path class="st1" d="M32.7,45l0.1-0.1L32.5,45c-3.5-0.2-6.5-1.5-9.1-3.9l0,0.1L21.6,43c2.8,2.4,5.9,3.9,9.5,4.4
		c0.6,0.1,1.2,0,1.8,0.2l-0.1-0.2V45z"/>
	<path class="st1" d="M34.3,27.4c0.2,0.1,0.3-0.1,0.5-0.1c0.3,0,0.4,0.2,0.6,0.4c0.2,0.1,0.3,0,0.5-0.1c0.1-0.7,1-0.6,1.3-1.3
		L37,26.4c-0.1-0.1-0.2-0.1-0.2-0.2c0.1-0.1,0.3-0.4,0.5-0.4c-0.8-0.5-1.6-0.9-2.5-1.2c-0.4-0.1-0.7-0.1-1.1-0.2
		c0.2,0.5,0,1.3,0.1,1.8l0.6,0.2c0.2-0.3,0.6-0.4,0.8-0.7c0.1-0.1,0.2,0,0.3,0.1c0,0.2,0,0.5-0.1,0.7C35.2,27,34.6,27.1,34.3,27.4z"
		/>
	<path class="st1" d="M40,36.4c0,0.3-0.3,0.4-0.3,0.7c-0.1,0.1-0.3,0.2-0.5,0.2c-0.7-0.3-1.4-0.4-2.2-0.5c-0.1,0-0.1,0.1-0.1,0.2
		c0.3,0.2,0.7,0.2,1,0.3c0.3,0.1,0.5,0.5,0.9,0.3c0.3-0.2,0.9,0.1,1.1-0.2c0-0.3,0.2-0.6,0.4-0.9l0.1,0c0.2,0.2,0.2,0.5,0.2,0.7
		c0.2-0.3,0.4-0.6,0.7-0.8c0.6-0.9,1.1-1.8,1.3-2.7c-0.2,0-0.5,0.1-0.7,0.1c-0.3,0-0.6,0.1-0.8,0c-0.1-0.1-0.1,0-0.1,0.1
		c-0.1,0.1-0.2,0.3-0.4,0.2c-0.2-0.1-0.2-0.2-0.2-0.4c0,0.1,0,0.2,0,0.3c-0.2,0.2-0.2,0.4-0.4,0.6c-0.2,0.2-0.5,0.1-0.7,0.3
		c0,0.4-0.5,0.3-0.8,0.5c0,0.1,0,0.1,0.1,0.1c0.1,0,0.3,0,0.4-0.1c0.4,0.1,0.3-0.4,0.5-0.5c0.2,0,0.4-0.2,0.6-0.1
		c0.2,0.2,0.2,0.6,0.2,0.9C40.1,35.8,40.2,36.2,40,36.4z"/>
	<path class="st1" d="M35.9,35.5c0.2-0.2,0.7-0.2,0.7-0.5c-0.3,0-0.5,0.1-0.7,0.3C35.9,35.3,35.8,35.5,35.9,35.5z"/>
	<path class="st1" d="M33.7,44.1c0.7-0.2,1.4-0.2,2.1-0.3c-0.1-0.1-0.3-0.1-0.4-0.2c-0.4,0-0.6-0.5-0.7-0.8
		c-0.1-0.2,0.1-0.4,0.2-0.6c-0.2-0.4-0.7-0.1-1-0.2c-0.1-0.1-0.2-0.2-0.3-0.2l0.1,0.2C33.7,42.6,33.8,43.4,33.7,44.1z"/>
	<path class="st1" d="M43.1,40.9c-0.2,0.5-0.8,0.8-1.2,1.2c-0.6,0.6-1.5,0.7-1.8,1.5c-0.3,0.3-0.4,0.7-0.9,0.9
		c-0.2,0.4-0.6,0.4-0.9,0.7c-0.7,0.7-1.2-0.4-1.9-0.6l-1.4,0.2c-0.5,0-0.9,0.2-1.4,0c0.1,0.9,0.1,1.9,0,2.8l0.2-0.1
		c4.3-0.2,8-1.8,11.1-4.7l-1.9-1.8L43.1,40.9z"/>
	<path class="st1" d="M41.6,31l0.3,0.3c0.3,0.2,0.1,0.6,0.4,0.7c0.3,0.2,0.5,0.6,0.6,0.9c0.1-0.1,0.1-0.2,0.1-0.3
		c0.1-0.5,0.1-1,0.3-1.5C42.7,31.2,42,31.2,41.6,31z"/>
	<path class="st1" d="M36.5,21.4c-0.9-0.3-1.9-0.5-2.9-0.6l0.1,0.2l0,2.4l0.2,0c1.5,0.2,2.8,0.7,4,1.6l0.1,0.2c0.4-0.6,1-1,1.5-1.6
		l0.4-0.3l-0.2-0.1C38.7,22.5,37.7,21.8,36.5,21.4z"/>
	<path class="st1" d="M32.3,36.9c0.1-0.2,0-0.5,0.1-0.7c0.1-0.2,0.3-0.2,0.5-0.2c0.1,0,0.2-0.1,0.1-0.2c-0.3-0.1-0.1-0.3-0.2-0.5
		c0-0.1,0.2-0.1,0.1-0.2c-0.2-0.1,0.1-0.3-0.1-0.5c0,0,0.1-0.1,0.1-0.1c-0.5,0.2-1.1-0.1-1.6-0.3c-0.2-0.1-0.6-0.3-0.6-0.6
		c-0.4,0.6-1.1,1.2-1.6,1.8C30.1,36.3,31.1,36.7,32.3,36.9z"/>
	<path class="st1" d="M20,31.3l0.2,1.6c0.1,0.6,0.4,1.2,0.3,1.9c0.1-0.1,0-0.4,0.3-0.4c-0.1-0.2,0.2-0.4,0-0.5
		c0.1-0.4,0.1-0.9,0.5-1.2c0.5,0,0.5-0.6,0.9-0.6c0.2,0,0.4,0.3,0.5,0.4c-0.3-0.3-0.3-0.9-0.2-1.3l-0.2,0.1c-0.8,0-1.7,0.1-2.5-0.1
		L20,31.3z"/>
	<path class="st1" d="M30.2,33.1L29.9,33c-0.1,0.2-0.2,0.4-0.4,0.6l0,0C29.8,33.4,29.9,33.1,30.2,33.1z"/>
	<path class="st1" d="M22.9,40.4c-0.3-0.2-0.6-0.6-0.8-0.9c-0.3-0.1-0.6-0.3-0.7-0.6c-0.1-0.1,0-0.3-0.1-0.3l-0.1,0.1
		c-0.3,0.2-0.4-0.2-0.6-0.3c-0.3-0.2-0.1-0.7-0.5-0.6c-0.1,0-0.2-0.2-0.3-0.3c-0.3,0-0.4-0.3-0.6-0.5c0,0.1,0,0.2-0.1,0.2
		c-0.4,0.1-0.5-0.4-0.7-0.5c-0.1,0-0.1,0.1-0.2,0.1c-0.2-0.2-0.4-0.5-0.4-0.7c-0.3-0.3-0.2-0.9-0.1-1.3c0.1-0.1,0.2-0.2,0.2-0.3
		c0.1-0.2,0.3-0.2,0.5-0.2c0.1,0,0.1,0.1,0.2,0.2c0.1-0.1,0.4,0,0.3-0.2c0.2-0.1,0.4-0.2,0.6-0.2c0.1,0.2,0.2,0.4,0.4,0.6l-0.1-0.2
		c-0.2-0.9-0.4-1.8-0.4-2.7c0-0.1-0.1-0.1,0-0.1l0,0c0-0.2,0-0.4,0-0.5l-0.2,0.1l-2.5,0c0.1,2.8,0.9,5.4,2.2,7.8
		c0.6,1.2,1.6,2.2,2.4,3.3l1.8-1.8L22.9,40.4z"/>
	<path class="st1" d="M32.5,41.6c-2.2-0.1-4-0.9-5.7-2.1c0.1,0.2,0.3,0.3,0.3,0.6c-0.2,0.2-0.5,0.2-0.7,0.2
		c-0.5-0.1-0.9,0.3-1.4,0.4c-0.4,0.1-0.6-0.4-1-0.4c2.5,2.2,5.3,3.5,8.6,3.7l0.2,0.2l-0.1-0.3v-2.3L32.5,41.6z"/>
	<path class="st1" d="M25.7,19.7c-0.6,0.4-1.1,0.9-1.6,1.2c0.7,0.4,1.2,1.1,1.8,1.7l0.1,0.2c1.5-1.4,3.3-2.3,5.3-2.7
		c0.5,0,0.9-0.2,1.4-0.1c0-0.8-0.1-1.7,0-2.6C30.1,17.5,27.8,18.3,25.7,19.7z"/>
	<path class="st1" d="M28.2,32.7c-0.1,0-0.1,0-0.2,0c0,0-0.1,0-0.1,0c0-0.5-0.6-0.2-0.8-0.5c0.3,0.5,0.4,1,0.6,1.4
		c0.2,0.4,0.5,0.7,0.7,1.1c0.2-0.3,0.5-0.6,0.7-0.9c0-0.1,0-0.2-0.1-0.3c-0.1-0.2,0-0.5-0.2-0.6c-0.2,0.1,0.1,0.3,0,0.4
		c-0.1,0.1-0.2,0-0.2-0.1c-0.2,0-0.4-0.2-0.4-0.4C28.5,32.8,28.3,32.8,28.2,32.7z"/>
	<path class="st1" d="M23.6,29c-0.1,0.4,0,0.9-0.2,1.3c0.3-0.1,0.8-0.1,1.1,0c-0.2-0.1,0-0.4-0.2-0.5c0-0.2-0.1-0.5,0.2-0.6
		c0-0.4,0.4-0.6,0.4-0.9c0.1-0.4,0.5-0.1,0.7-0.3c0.1-0.1,0-0.2,0-0.3c0.2-0.2,0.5-0.2,0.7-0.4c0.2-0.2,0.3-0.5,0.6-0.6
		c0.5,0,0.5-0.7,1-0.7c-0.7-0.5-1.3-1.2-2-1.8C24.8,25.5,24,27.1,23.6,29z"/>
	<path class="st1" d="M23.5,21.7l-1,1.2c-1.6,2.2-2.3,4.7-2.5,7.4l2.4,0l0.2,0.1c-0.1-0.1-0.1-0.2-0.1-0.3c0.2-2.5,1.1-4.8,2.8-6.7
		c-0.7-0.6-1.3-1.2-1.9-1.9L23.5,21.7z"/>
	<path class="st1" d="M24,32.6c0-0.2-0.2-0.2-0.2-0.4c0.2-0.3,0-0.9,0.4-1c-0.3,0.1-0.6,0.1-0.9-0.1l0.1,0.2c0,0.6,0.2,1.1,0.1,1.7
		C23.7,32.9,23.8,32.7,24,32.6z"/>
	<path class="st1" d="M24.9,31.2l-0.1,0.5c-0.1,0.3-0.5,0.1-0.6,0.3c-0.1,0.2,0,0.4,0.1,0.5c-0.2,0.6,0.6,0.7,0.6,1.3
		c0.2,0.3,0,0.8,0.3,1.1c0.1,0.6-0.1,1.4,0.4,1.8l0.1,0.6c0.1,0.4-0.5,0.3-0.4,0.6c0.1-0.1,0.1,0.1,0.1,0.1v0
		c0.7-0.8,1.5-1.6,2.3-2.3l-0.3-0.3c-0.6-0.9-1.1-1.9-1.4-3L25.8,32c0,0.3-0.1,0.5-0.1,0.8l-0.1,0.1c-0.2,0-0.3-0.2-0.5-0.3
		c0-0.1-0.1-0.3,0-0.3c0.1,0,0.2,0,0.2,0.1c0.1-0.1,0-0.2,0.1-0.4c0-0.2-0.2-0.4,0-0.6c0.2,0,0.3,0.2,0.4,0.3
		c0.2,0.1,0.3-0.1,0.4-0.2c0-0.2,0.2-0.4,0-0.4c0.1-0.3,0-0.7,0-1c-0.1-0.3-0.4-0.2-0.7-0.2c-0.7,0.2,0.1,0.8-0.1,1.2
		C25.3,31.3,25.1,31.1,24.9,31.2z"/>
	<path class="st1" d="M31,38.3c0.2-0.2,0.4-0.3,0.7-0.4c-0.8,0.2-1.5-0.4-2.2-0.7c-0.4-0.3-0.9-0.5-1.1-0.9
		c-0.5,0.6-1.1,1.3-1.8,1.8c0.3,0,0.4,0.3,0.7,0.5c1.3,1.1,3,1.6,4.5,2l-0.4-0.2c-0.3-0.4-0.8-0.8-0.8-1.3
		C30.9,38.9,30.9,38.5,31,38.3z"/>
	<path class="st1" d="M43.4,20.9c0.2,0,0.2,0.3,0.4,0.4c0.6,0.3,0.8,1,1.4,1.4c0.3,0.7,1.1,1.2,1.1,1.9c0.8,1.7,1.3,3.5,1.3,5.5
		l-0.1,0.1c0.1,0,0.2,0,0.2-0.1l2.6,0c-0.2-0.2-0.1-0.6-0.1-0.9c-0.3-3.9-2-7.3-4.7-10.3c-0.5,0.7-1.2,1.3-1.8,1.9L43.4,20.9z"/>
	<path class="st1" d="M19.1,30.3l-0.1-0.3c0.2-2.8,1.1-5.4,2.7-7.6c0.4-0.5,0.7-1,1.2-1.4c-0.6-0.5-1.2-1.2-1.8-1.8L21.1,19
		c-2.5,2.8-4.1,6-4.5,9.7c-0.1,0.5,0,1.1-0.1,1.6C17.3,30.2,18.2,30.2,19.1,30.3z"/>
	<path class="st1" d="M23.6,20.3l0-0.1c2.6-2.4,5.6-3.7,9.1-3.8l-0.1-0.2l0-2.1l0.1-0.2c-3.6,0.1-6.7,1.4-9.5,3.4
		c-0.5,0.4-1,0.9-1.6,1.3h0.1C22.3,18.9,23,19.7,23.6,20.3z"/>
	<path class="st1" d="M32.7,24.4c-1.4,0.2-2.7,0.7-3.8,1.8h0.2c0.2,0.2,0.6,0.2,0.7,0.5c0.1,0.2-0.2,0.1-0.1,0.3c0,0,0.1,0,0.1,0.1
		c0.2,0.1,0.1-0.1,0.2-0.2c0.2-0.2,0.3,0.2,0.5,0.2c0.2-0.1,0.4-0.1,0.5,0.1c0.1-0.1,0.4,0,0.5-0.2c0.3-0.3,0.1-0.7,0.5-0.9
		c0.1,0.1,0,0.2,0,0.3c0.3,0.1,0.6-0.2,0.8,0C32.6,25.8,32.7,25.1,32.7,24.4z"/>
	<path class="st1" d="M0,0v66.6h66.6V0H0z M57.1,34.7c-0.9,1.3-2.1,2.6-2.9,3.9c0.1-1.1,0.2-2.4-0.2-3.4c-0.7-2.2-1.3-4.4-1.6-6.8
		l0-0.9c0.5,2.4,2.9,4.1,2.8,6.9c0.1,0.7-0.2,1.2-0.3,1.8l0,0l0.1-0.1c0.4-1.3,0.5-2.8,1.1-4c0.8-1.8,1.8-3.6,1.4-5.8
		C58.8,28.9,58.4,32.3,57.1,34.7z M55.6,20.9c1.6,2.1,1.9,5.5,0.8,8c-0.4,1-0.7,2.1-0.9,3.3c-0.1-0.2-0.1-0.5-0.2-0.7
		c-0.6-2.4-2.9-4.1-3.8-6.3c-0.3-0.7-0.5-1.5-0.7-2.3c1,1.8,3.4,2.8,4.1,4.8c0.3,0.5,0.3,1.2,0.4,1.7c0,0,0.1,0,0.1-0.1
		c-0.3-2.1-0.2-4.3,0.1-6.3c0-1.1-0.1-2.2-0.7-3.1C55.2,20.1,55.4,20.5,55.6,20.9z M54.5,20.5c0.4,1.9-0.2,3.7,0.2,5.6l0,0
		c-1-2-3.2-2.9-4.7-4.5c-0.9-0.9-1.2-2.1-1.4-3.3c0.9,2,3.1,2.5,4.5,4.2c0.4,0.4,0.6,1,0.9,1.4l0,0c-0.8-1.6-1-3.4-1.5-5.2
		c-0.3-0.7-0.8-1.5-1.5-2C52.7,17,54.2,18.8,54.5,20.5z M49.9,16.2c1.3,1.2,1.9,2.7,2.3,4.2l0.2,0.5c-1.9-1.4-3.6-3.2-4.8-5.1
		l-1.5-1.5C47.4,14.9,48.8,15.2,49.9,16.2z M25.2,14.7c2.5-1.2,5.1-1.9,8.1-1.9c6.7,0,13.1,3.9,16,10.1c1.8,3.6,2.4,8.5,1.2,12.5
		c-1.2,4.7-5.2,9.6-9.9,11.5c-5.2,2.6-12.7,1.9-17.3-1.4c-6.5-4.4-9.1-12.1-7.2-19.7C17.3,21.3,20.9,16.8,25.2,14.7z M20.1,14.6
		c-1.3,1.1-2.2,2.6-3.2,3.9c-0.9,1.1-2,1.8-3,2.7c0.5-1.1,0.5-2.4,1.3-3.4C16.3,15.9,18.3,15.2,20.1,14.6z M13,18.5
		c0.6-0.8,1.4-1.3,2.3-1.6c-1.8,1.2-1.6,3.4-2.2,5.2c-0.2,0.7-0.5,1.3-0.6,2l0,0c0.3-0.8,0.8-1.5,1.4-2.1c1.3-1.2,3.1-1.9,3.7-3.6
		c0,2.4-2,4.2-3.9,5.6c-0.8,0.7-1.5,1.5-2,2.3c0-0.6,0.1-1.2,0-1.8C11.6,22.4,11.5,20.1,13,18.5z M9.4,25.6c-0.1-2.1,0.8-3.8,2-5.4
		c0,0,0.1-0.1,0.1,0c-1.3,2.1-0.2,4.6-0.3,7l-0.2,2.4c0,0,0,0.1,0.1,0.1c0.1-0.3,0.1-0.5,0.2-0.8c0.3-1.9,2-3.3,3.5-4.6
		c0.3-0.3,0.6-0.7,0.7-1.1c-0.1,1-0.4,1.9-0.8,2.8c-1.1,2.2-3.2,4-3.6,6.6C10.9,30,9.2,28.2,9.4,25.6z M8.4,28.6
		c0.2-0.7,0.3-1.3,0.6-1.9c-0.5,2.8,1.3,4.8,1.9,7.2c0.3,0.9,0.3,1.9,0.7,2.7c0,0,0.1,0,0.1,0c-0.9-2.6,0.4-4.9,1.7-6.9
		c0.3-0.5,0.5-1.1,0.7-1.8c0.1,1.2-0.2,2.5-0.3,3.7c-0.3,1.5-0.8,3-1.2,4.5c-0.3,0.9-0.2,2-0.1,2.9l-0.1-0.1c-1-1.8-2.9-3.2-3.5-5.1
		C8.4,32.1,8.1,30.3,8.4,28.6z M8.3,34c0.2,2.9,3.4,4.5,4.8,6.9c0.3,0.5,0.6,1,1.1,1.5c-0.1-0.3-0.4-0.6-0.5-0.9
		c-0.5-1-0.7-2.2-0.6-3.5c0.1-1.5,0.8-2.9,0.5-4.5c1.3,2.8,0.9,6.2,1.6,9.2c0.2,0.7,0.6,1.2,0.8,1.9c-2.6-1.8-6.2-3.5-7.4-6.8
		C8.2,36.7,8.2,35.3,8.3,34z M9.9,40.8c1.5,3.3,5.2,3.6,7.6,5.6c0.5,0.4,0.9,0.7,1.4,1l0,0c-0.6-0.5-1.2-1.1-1.6-1.8
		c-1.4-2-0.9-4.8-2-7c1,1.2,1.9,2.4,2.5,3.7c0.9,2.2,1.2,4.7,3.3,6.3c-2.2-0.7-4.8-0.5-6.8-1.9C12.2,45.4,10.3,43.2,9.9,40.8z
		 M13.7,47c2.4,2.7,6.2,1.8,9.4,2.5c0.4,0.1,0.9,0.2,1.3,0.2c-0.4-0.2-0.9-0.2-1.3-0.4c-2.5-0.9-2.8-3.5-4.2-5.3
		c1.7,1.1,3.2,2.7,4.7,4.2c1.1,1,2.5,1.5,3.9,1.7c-0.3,0.1-0.8,0.1-1.2,0.2c-2.6,0.6-5.5,1.7-8.2,0.7C16.4,50.1,14.6,48.7,13.7,47z
		 M45.7,53.2c-2.7,1-5.4,0-7.5-1.6c-0.8-0.5-1.6-1.3-2.7-1.2c-0.4,0-0.8,0-1.1,0.1c2,0.9,3.9,2.2,5.6,3.9c-0.3,0.3-0.7,0.6-1,0.9
		c-1.7-1.8-3.5-3.5-5.5-4.5c-0.4,0.1-0.8,0.3-1.1,0.5c-1.7,1.1-3.3,2.4-4.6,4.1l-1.1-0.9c1.7-1.7,3.6-3.1,5.6-4
		c-2-0.6-3.3,1.1-4.9,1.9c-1.8,1.3-4.4,1.8-6.5,1c-1.2-0.4-2.3-1.1-3.1-2.1c1.7,1.2,4.2,1.3,6.2,0.5c2.6-1.1,5.3-2.6,8.4-1.9
		c0.5,0,1,0.5,1.4,0.1c2.3-0.6,5-0.2,7,0.9l2.1,0.8c1.9,0.7,4.4,0.5,6-0.7C48.1,52.1,46.9,52.8,45.7,53.2z M48.6,50.5
		c-3,1.1-6-0.3-8.9-0.7l-0.5-0.1v0c1.4-0.3,2.7-0.7,3.8-1.7c1.6-1.5,3-3.1,4.8-4.3c-1.3,1.7-1.5,4.1-3.6,5.2
		c-0.5,0.4-1.2,0.4-1.8,0.7c0.8,0,1.5-0.3,2.3-0.3c2.9-0.5,6.3,0,8.3-2.5C52.2,48.4,50.3,49.9,48.6,50.5z M50.3,47.4
		c-1.5,0.4-3.2,0.5-4.6,1c2.5-2.2,2.4-5.5,4-8c0.5-0.7,1-1.5,1.6-2.2c-1,2.1-0.6,4.7-1.7,6.7c-0.5,0.8-1.1,1.6-1.8,2.2
		c0.2,0,0.4-0.2,0.6-0.3c1.9-1.9,4.4-2.4,6.5-4c0.8-0.7,1.6-1.5,1.9-2.5C56.3,43.5,53.2,46.5,50.3,47.4z M54,42.1
		c-1.2,0.8-2.4,1.5-3.5,2.4v-0.1c1.7-2.9,0.9-6.9,2-10l0.4-1.1c-0.2,2,0.6,3.7,0.6,5.6c-0.1,1.2-0.5,2.3-1.1,3.2h0.1
		c0.9-1.1,1.5-2.3,2.5-3.4c1.5-1.5,3.1-3,3.3-5.1C58.8,37.1,56.9,40.1,54,42.1z"/>
	<path class="st1" d="M47.6,31.2l-0.2-0.1l0.1,0.2c-0.1,3-1.1,5.6-2.8,7.9c-0.3,0.4-0.6,0.9-1,1.1c0.7,0.5,1.4,1.3,2,1.9l0.1-0.1
		c2.7-3.1,4.3-6.7,4.4-10.8l0.1-0.2l-0.1,0.1L47.6,31.2z"/>
	<path class="st1" d="M32.6,20.9c-2.3,0.2-4.2,1.1-5.9,2.5c0.7,0.5,1.3,1.2,1.9,1.8c0-0.1,0.1-0.1,0.1-0.2c0.8-0.6,1.7-1.2,2.7-1.4
		c0.4,0,0.9-0.3,1.3-0.2c-0.1-0.8-0.1-1.8,0-2.6L32.6,20.9z"/>
	<path class="st1" d="M33.7,16.1c0-0.1,0-0.2,0.1-0.2c0.1-0.1,0.2,0,0.3,0.1c0,0.1,0.1,0.3,0,0.4c0.1,0,0.2-0.1,0.3-0.1
		c2,0.2,3.9,0.7,5.6,1.7v0c0.3-0.2,0.8-0.4,1.1-0.1c0.4-0.2,0.5,0.4,0.9,0.4c0.4,0.2,0.9,0.7,0.9,1.2c0.1,0.2,0.3,0.3,0.4,0.4
		c0.3-0.6,0.9-1,1.3-1.6l0.3-0.1c-2.7-2.6-5.9-4-9.4-4.5c-0.6-0.1-1.2,0-1.7-0.2C33.8,14.4,33.7,15.3,33.7,16.1z M41.7,17.3
		c0.2,0.1,0.3,0.1,0.4,0.3c0,0.2,0.2,0.4,0,0.5c-0.5,0.1-0.5-0.4-0.9-0.6c-0.1-0.1-0.1-0.2-0.1-0.3C41.3,17.2,41.5,17.5,41.7,17.3z
		 M34.1,15.7c0.1-0.1,0.3-0.1,0.4,0l1.3-0.6c0.5,0,1.1,0.1,1.4,0.5v0.1c-0.3,0.3-0.7,0.5-1.2,0.3c-0.6,0.1-1.4,0.5-1.9-0.2
		C34.1,15.8,34,15.7,34.1,15.7z"/>
	<path class="st1" d="M33.7,19.9c0.3-0.1,0.7,0,1,0c1.7,0.3,3.4,0.8,4.8,1.9c-0.2-0.2-0.4-0.4-0.4-0.6c0,0,0.1,0,0.1,0
		c0-0.3-0.3-0.4-0.3-0.7c0-0.1,0.1-0.1,0.2-0.1c0.3,0.3,0.6,0.6,0.8,0.9c0.2-0.1,0.4,0,0.5,0.2c0.3,0.2,0.1,0.5,0.3,0.7
		c0,0.5,0.7,0.8,0.6,1.3c0,0.1,0.2,0,0.2,0.1l0.5,0.7c-0.1,0.1,0,0.3,0.1,0.4c0.2,0.1,0.4-0.2,0.6-0.2c0.3,0.2-0.1,0.4,0,0.6
		c0.1,0,0.3-0.1,0.4,0c0,0.2-0.2,0.3-0.2,0.4c0,0.2,0.2,0.2,0.3,0.2c0.2,0,0.3,0.2,0.2,0.3c0.4,0.5-0.1,1,0.1,1.4
		c0.1,0.3,0,0.6-0.2,0.9c0,0.4-0.3,0.6-0.5,1l-0.5,0.1c-0.2,0.2,0.2,0.5,0,0.7l1,0l-0.1-0.1c-0.1-0.4-0.1-0.9,0.1-1.3
		c0.2-0.3,0.2-0.7,0.5-1c0.1,0,0.2-0.1,0.2,0c0,0.3,0,0.6-0.2,0.9c0.3,0.4,0.2,0.9,0.3,1.4c0.9-0.1,1.7-0.1,2.6-0.1L46.6,30
		c-0.1-1.6-0.5-3.2-1.2-4.6c-0.2,0-0.3,0.2-0.5,0.1c-0.1,0-0.1-0.1-0.1-0.2c-0.4-0.3-0.6-0.8-1-1.1c-0.5,0-0.7-0.5-1.1-0.5
		c-0.4-0.2-0.1-0.7-0.6-0.6c-0.3-0.1-0.5-0.3-0.6-0.6c0-0.5-0.1-1-0.5-1.3c-0.3-0.1-0.5,0.3-0.8,0.2c-0.2-0.1-0.1-0.3-0.2-0.5
		c-0.1-0.1-0.2-0.2-0.2-0.4c0.4-0.5-0.5-0.5-0.3-1.1c-0.1-0.4-0.5-0.5-0.7-0.9c-1.4-0.6-2.7-1-4.3-1.2c-0.4-0.1-0.7,0-1.1-0.2
		l0.1,0.2C33.7,18.3,33.8,19.2,33.7,19.9z"/>
	<path class="st1" d="M32.8,28.4c-0.3,0.4-0.7,0.5-1.1,0.7c-0.1,0.1-0.1,0.5-0.4,0.4c-0.1,0.2-0.4,0.3-0.3,0.6
		c-0.1,0.3-0.1,0.7-0.2,1c-0.5,0.3-0.4-0.4-0.6-0.6l-0.1,0.2c-0.1,0-0.2,0-0.2-0.1c-0.1,0-0.2-0.1-0.3,0c-0.1,0.2-0.3,0.4-0.2,0.6
		c-0.1,0.2-0.3,0.1-0.3,0.3c0.3,0,0.6-0.1,0.9-0.1c0.2,0.1,0.4-0.1,0.6-0.1c0.1,0,0.2,0.1,0.1,0.2h0.1c0.1-0.1,0.2-0.3,0.1-0.4
		c0-0.2,0.2-0.2,0.3-0.2c0.1,0.1,0,0.2,0.1,0.3c0.4,0.2-0.1,0.4-0.2,0.7c-0.1,0.2,0,0.6-0.3,0.5c-0.1,0-0.1-0.1-0.1-0.2h0
		c0,0.1,0.1,0.3,0.2,0.4c0.2-0.2,0.3-0.6,0.6-0.6c0.2-0.2-0.1-0.5,0.2-0.7c0.5,0,1-0.2,1.3,0.2c0,0.2-0.1,0.2,0,0.4
		c-0.1,0.2-0.1,0.4-0.3,0.6c0,0.1,0,0.3-0.1,0.3c-0.1,0.5-0.7,0.3-1.1,0.5c0.6,0.4,1.2,0.6,2,0.5c0.4,0,0.2-0.5,0.4-0.7
		c0.1-0.6,0.7-0.2,1-0.4c0.1-0.3,0.3-0.5,0.3-0.8c-0.2-0.1-0.3-0.4-0.2-0.7c-0.2-0.2-0.1-0.6-0.5-0.6c-0.1-0.1,0-0.2,0-0.2
		c0-0.2,0.2-0.3,0.2-0.4c-0.2-0.1-0.2-0.4-0.1-0.6c-0.3,0.1-0.4-0.4-0.6-0.5c-0.1-0.2-0.3-0.2-0.5-0.3c-0.4,0.2-0.5-0.3-0.8-0.4
		c0-0.1-0.1-0.2,0-0.3c0.2-0.1,0.4,0,0.6,0l-0.2-0.1c-0.1-0.2-0.5-0.1-0.6,0C32.8,27.9,32.7,28.2,32.8,28.4z"/>
	<g>
		<g>
			<path class="st1" d="M15.6,76.1c-1.2,0-2.1,0.1-2.6,0.2v8.4c0.6,0.2,1.4,0.2,2.3,0.2c3.4,0,5.4-1.7,5.4-4.6
				C20.7,77.5,18.7,76.1,15.6,76.1z"/>
			<path class="st1" d="M0,68.6v32.3h32.3V68.6H0z M21.8,84.7c-1.5,1.6-3.9,2.4-6.6,2.4c-0.8,0-1.6,0-2.2-0.2v8.6h-2.8V74.2
				c1.3-0.3,3.1-0.4,5.3-0.4c2.8,0,4.8,0.6,6,1.8c1.2,1,1.9,2.6,1.9,4.5C23.5,82,22.9,83.5,21.8,84.7z"/>
		</g>
		<g>
			<path class="st1" d="M48.4,110c-1.4,0-2.5,0.1-3.3,0.3v17c0.7,0.1,1.7,0.1,2.8,0.1c5.9,0,9.2-3.3,9.2-9.1
				C57.1,113.2,54.2,110,48.4,110z"/>
			<path class="st1" d="M34.3,102.7V135h32.3v-32.3H34.3z M56.9,126.6c-2,2-5.4,3.1-9.6,3.1c-2,0-3.6-0.1-5.1-0.3v-21.2
				c1.7-0.3,3.7-0.5,5.9-0.5c4,0,6.8,0.9,8.7,2.7c1.9,1.8,3.1,4.3,3.1,7.8C60,121.7,58.9,124.6,56.9,126.6z"/>
		</g>
		<path class="st1" d="M0,102.7V135h32.3v-32.3H0z M24.1,120.7c0,6.6-3.5,9.3-8.2,9.3c-4.4,0-7.7-2.5-7.7-9.2v-12.7H11v12.8
			c0,4.8,2.1,6.8,5,6.8c3.2,0,5.2-2.1,5.2-6.8v-12.8h2.8V120.7z"/>
		<path class="st1" d="M34.3,100.9h32.3V68.6H34.3V100.9z M42.3,74h3.1l6.9,10.9c1.6,2.5,2.8,4.8,3.8,7l0.1,0
			c-0.3-2.9-0.3-5.5-0.3-8.8V74h2.6v21.6h-2.8l-6.8-10.9c-1.5-2.4-2.9-4.9-4-7.2l-0.1,0c0.2,2.7,0.2,5.3,0.2,8.9v9.2h-2.6V74z"/>
	</g>
</g>
</svg>
