<?xml version="1.0" encoding="utf-8"?>
<!-- Generator: Adobe Illustrator 25.4.1, SVG Export Plug-In . SVG Version: 6.00 Build 0)  -->
<!DOCTYPE svg PUBLIC "-//W3C//DTD SVG 1.1//EN" "http://www.w3.org/Graphics/SVG/1.1/DTD/svg11.dtd" [
	<!ENTITY ns_extend "http://ns.adobe.com/Extensibility/1.0/">
	<!ENTITY ns_ai "http://ns.adobe.com/AdobeIllustrator/10.0/">
	<!ENTITY ns_graphs "http://ns.adobe.com/Graphs/1.0/">
	<!ENTITY ns_vars "http://ns.adobe.com/Variables/1.0/">
	<!ENTITY ns_imrep "http://ns.adobe.com/ImageReplacement/1.0/">
	<!ENTITY ns_sfw "http://ns.adobe.com/SaveForWeb/1.0/">
	<!ENTITY ns_custom "http://ns.adobe.com/GenericCustomNamespace/1.0/">
	<!ENTITY ns_adobe_xpath "http://ns.adobe.com/XPath/1.0/">
]>
<svg version="1.1" id="Capa_1" xmlns:x="&ns_extend;" xmlns:i="&ns_ai;" xmlns:graph="&ns_graphs;"
	 xmlns="http://www.w3.org/2000/svg" xmlns:xlink="http://www.w3.org/1999/xlink" x="0px" y="0px" viewBox="0 0 425.7 148.6"
	 style="enable-background:new 0 0 425.7 148.6;" xml:space="preserve">
<style type="text/css">
	.st0{fill:#002776;}
	.st1{fill:#BBBABA;}
	.st2{fill:#B4ADAD;}
	.st3{fill:#652D90;}
	.st4{fill:#AC85BC;}
	.st5{fill:#D1596E;}
	.st6{fill:#F7D6E2;}
	.st7{fill:#FCECF2;}
	.st8{fill:#F9D9E4;}
	.st9{fill:#B2324E;}
	.st10{fill:#3B2314;}
	.st11{fill:#FAE4EC;}
	.st12{fill:#90278E;}
	.st13{fill:#DCB0C1;}
	.st14{fill:#FDEFF3;}
	.st15{opacity:0.44;fill:#3E2460;}
	.st16{fill:url(#SVGID_1_);}
	.st17{fill:none;}
	.st18{fill:#321929;}
	.st19{fill:#AA7190;}
	.st20{fill:#7D3D63;}
	.st21{fill:#1D1018;}
	.st22{fill:#B48CA0;}
	.st23{fill:#F9E2EA;}
	.st24{fill:#F6CEDD;}
	.st25{fill:#5B2D4A;}
	.st26{fill:#D50F84;}
	.st27{fill:#DFC6D0;}
	.st28{opacity:0.44;fill:#8B1F61;}
	.st29{fill:none;stroke:#404041;stroke-width:0.5;stroke-miterlimit:10;}
	.st30{fill:#9E577F;}
	.st31{fill:#231F20;}
</style>
<metadata>
	<sfw  xmlns="&ns_sfw;">
		<slices></slices>
		<sliceSourceBounds  bottomLeftOrigin="true" height="148.6" width="425.1" x="742.6" y="-615"></sliceSourceBounds>
	</sfw>
</metadata>
<g>
	<rect class="st0" width="2.8" height="148.6"/>
	<g>
		<g>
			<g>
				<g>
					<path class="st1" d="M156.9,93.4c0.4-0.4,0.8-0.8,1.3-1.2c-0.2,0.1-0.3,0.3-0.5,0.4c0.9-0.7,1.8-1.2,2.8-1.6
						c-0.2,0.1-0.4,0.2-0.6,0.3c0.8-0.3,1.7-0.6,2.6-0.8c0.6-0.1,1.2-0.6,1.5-1.1c0.3-0.5,0.4-1.3,0.3-1.9c-0.2-0.6-0.6-1.2-1.1-1.5
						c-0.6-0.3-1.2-0.4-1.9-0.3c-2.9,0.6-5.7,2.1-7.8,4.2c-0.9,0.9-1,2.6,0,3.5C154.4,94.3,155.9,94.4,156.9,93.4L156.9,93.4z"/>
				</g>
			</g>
			<path class="st2" d="M149.6,94.4c0,0,1.8-3.7,4.5-5.8c2.8-2.1,6.5-3.3,6.5-3.3s-6.5,2.9-8.1,5.5
				C150.8,93.4,149.6,94.4,149.6,94.4z"/>
			<path class="st2" d="M151.9,95.2c0,0,1.5-4.1,4.2-6.6c2.7-2.5,6.5-4.2,6.5-4.2s-6.6,3.8-8.1,6.7C153,94,151.9,95.2,151.9,95.2z"
				/>
			<path class="st2" d="M153.5,95.2c0,0,1.5-4.1,4.2-6.6c2.7-2.5,6.5-4.2,6.5-4.2s-6.6,3.8-8.1,6.7C154.7,94,153.5,95.2,153.5,95.2z
				"/>
			<path class="st2" d="M156.8,96c0,0,0.8-4.3,3.1-7.2c2.3-2.9,5.8-5.2,5.8-5.2s-5.9,4.9-6.9,8C157.8,94.7,156.8,96,156.8,96z"/>
			<path class="st2" d="M158.6,96.3c0,0,0.5-4.3,2.6-7.4c2.1-3.1,5.4-5.6,5.4-5.6s-5.5,5.2-6.3,8.4
				C159.5,94.9,158.6,96.3,158.6,96.3z"/>
			<path class="st2" d="M147.8,93.2c0,0,1-2.8,2.7-4.3c1.7-1.5,3.9-2.4,3.9-2.4s-3.9,2.1-4.9,4.1C148.5,92.4,147.8,93.2,147.8,93.2z
				"/>
			<g>
				<g>
					<path class="st3" d="M225.9,94.8h5.3v1.1h-4v3.3h3.7v1.1h-3.7v4.5h-1.3V94.8z"/>
					<path class="st3" d="M238.9,101.1c0,2.6-1.8,3.8-3.5,3.8c-1.9,0-3.4-1.4-3.4-3.6c0-2.4,1.6-3.8,3.5-3.8
						C237.6,97.4,238.9,98.9,238.9,101.1z M233.3,101.2c0,1.6,0.9,2.7,2.2,2.7c1.2,0,2.2-1.2,2.2-2.8c0-1.2-0.6-2.7-2.1-2.7
						C234,98.4,233.3,99.8,233.3,101.2z M237.4,94.6l-1.8,2.1h-0.9l1.3-2.1H237.4z"/>
					<path class="st3" d="M240.6,99.8c0-0.8,0-1.6-0.1-2.2h1.1l0,1.4h0.1c0.3-1,1.1-1.6,2-1.6c0.1,0,0.2,0,0.4,0v1.2
						c-0.1,0-0.3,0-0.4,0c-0.9,0-1.6,0.7-1.7,1.7c0,0.2-0.1,0.4-0.1,0.6v3.8h-1.3V99.8z"/>
					<path class="st3" d="M251.3,102.8c0,0.7,0,1.4,0.1,1.9h-1.1l-0.1-1.2h0c-0.3,0.6-1.1,1.3-2.3,1.3c-1.1,0-2.4-0.6-2.4-3.1v-4.1
						h1.3v3.9c0,1.3,0.4,2.3,1.6,2.3c0.9,0,1.5-0.6,1.7-1.2c0.1-0.2,0.1-0.4,0.1-0.7v-4.3h1.3V102.8z"/>
					<path class="st3" d="M253.4,99.5c0-0.7,0-1.3-0.1-1.9h1.1l0.1,1.1h0c0.4-0.7,1.1-1.3,2.2-1.3c1,0,1.7,0.6,2,1.4h0
						c0.2-0.4,0.5-0.7,0.8-0.9c0.4-0.3,0.9-0.5,1.6-0.5c0.9,0,2.3,0.6,2.3,3.1v4.2h-1.3v-4c0-1.4-0.5-2.2-1.5-2.2
						c-0.7,0-1.3,0.5-1.5,1.2c-0.1,0.2-0.1,0.4-0.1,0.6v4.4h-1.3v-4.2c0-1.1-0.5-1.9-1.5-1.9c-0.8,0-1.4,0.6-1.6,1.3
						c-0.1,0.2-0.1,0.4-0.1,0.6v4.3h-1.3V99.5z"/>
					<path class="st3" d="M268.8,104.7v-9.9h1.4l3.2,5c0.7,1.2,1.3,2.2,1.8,3.2l0,0c-0.1-1.3-0.1-2.5-0.1-4.1v-4.1h1.2v9.9h-1.3
						l-3.1-5c-0.7-1.1-1.3-2.2-1.8-3.3l0,0c0.1,1.2,0.1,2.4,0.1,4.1v4.2H268.8z"/>
					<path class="st3" d="M282.3,104.7l-0.1-0.9h0c-0.4,0.6-1.2,1.1-2.2,1.1c-1.4,0-2.2-1-2.2-2c0-1.7,1.5-2.6,4.3-2.6V100
						c0-0.6-0.2-1.6-1.6-1.6c-0.7,0-1.3,0.2-1.8,0.5l-0.3-0.8c0.6-0.4,1.4-0.6,2.3-0.6c2.2,0,2.7,1.5,2.7,2.9v2.6
						c0,0.6,0,1.2,0.1,1.7H282.3z M282.1,101.1c-1.4,0-3,0.2-3,1.6c0,0.8,0.6,1.2,1.2,1.2c0.9,0,1.5-0.6,1.7-1.2
						c0-0.1,0.1-0.3,0.1-0.4V101.1z"/>
					<path class="st3" d="M290.4,104.4c-0.3,0.2-1.1,0.4-2,0.4c-2.1,0-3.5-1.4-3.5-3.6c0-2.2,1.5-3.8,3.8-3.8c0.8,0,1.4,0.2,1.8,0.4
						l-0.3,1c-0.3-0.2-0.8-0.3-1.5-0.3c-1.6,0-2.5,1.2-2.5,2.7c0,1.6,1.1,2.6,2.5,2.6c0.7,0,1.2-0.2,1.6-0.4L290.4,104.4z"/>
					<path class="st3" d="M293.4,95.6c0,0.4-0.3,0.8-0.8,0.8c-0.5,0-0.8-0.4-0.8-0.8c0-0.5,0.3-0.8,0.8-0.8
						C293.1,94.8,293.4,95.2,293.4,95.6z M291.9,104.7v-7.1h1.3v7.1H291.9z"/>
					<path class="st3" d="M301.8,101.1c0,2.6-1.8,3.8-3.5,3.8c-1.9,0-3.4-1.4-3.4-3.6c0-2.4,1.6-3.8,3.5-3.8
						C300.4,97.4,301.8,98.9,301.8,101.1z M296.1,101.2c0,1.6,0.9,2.7,2.2,2.7c1.2,0,2.2-1.2,2.2-2.8c0-1.2-0.6-2.7-2.1-2.7
						C296.8,98.4,296.1,99.8,296.1,101.2z"/>
					<path class="st3" d="M303.4,99.5c0-0.7,0-1.3-0.1-1.9h1.1l0.1,1.2h0c0.4-0.7,1.2-1.3,2.3-1.3c1,0,2.5,0.6,2.5,3v4.2h-1.3v-4.1
						c0-1.1-0.4-2.1-1.6-2.1c-0.8,0-1.5,0.6-1.7,1.3c-0.1,0.2-0.1,0.4-0.1,0.6v4.3h-1.3V99.5z"/>
					<path class="st3" d="M315.4,104.7l-0.1-0.9h0c-0.4,0.6-1.2,1.1-2.2,1.1c-1.4,0-2.2-1-2.2-2c0-1.7,1.5-2.6,4.3-2.6V100
						c0-0.6-0.2-1.6-1.6-1.6c-0.7,0-1.3,0.2-1.8,0.5l-0.3-0.8c0.6-0.4,1.4-0.6,2.3-0.6c2.2,0,2.7,1.5,2.7,2.9v2.6
						c0,0.6,0,1.2,0.1,1.7H315.4z M315.2,101.1c-1.4,0-3,0.2-3,1.6c0,0.8,0.6,1.2,1.2,1.2c0.9,0,1.5-0.6,1.7-1.2
						c0-0.1,0.1-0.3,0.1-0.4V101.1z"/>
					<path class="st3" d="M318.6,94.3h1.3v10.4h-1.3V94.3z"/>
					<path class="st3" d="M331.2,94.3v8.6c0,0.6,0,1.3,0.1,1.8h-1.2l-0.1-1.2h0c-0.4,0.8-1.3,1.4-2.4,1.4c-1.7,0-3-1.4-3-3.6
						c0-2.4,1.4-3.8,3.2-3.8c1.1,0,1.8,0.5,2.1,1.1h0v-4.2H331.2z M329.9,100.5c0-0.2,0-0.4-0.1-0.5c-0.2-0.8-0.9-1.5-1.9-1.5
						c-1.3,0-2.1,1.2-2.1,2.7c0,1.4,0.7,2.6,2.1,2.6c0.9,0,1.7-0.6,1.9-1.5c0-0.2,0.1-0.4,0.1-0.6V100.5z"/>
					<path class="st3" d="M334.1,101.4c0,1.7,1.1,2.5,2.4,2.5c0.9,0,1.5-0.2,2-0.4l0.2,0.9c-0.5,0.2-1.2,0.4-2.4,0.4
						c-2.2,0-3.5-1.4-3.5-3.6c0-2.1,1.3-3.8,3.3-3.8c2.3,0,2.9,2,2.9,3.3c0,0.3,0,0.5,0,0.6H334.1z M337.9,100.5
						c0-0.8-0.3-2.1-1.8-2.1c-1.3,0-1.9,1.2-2,2.1H337.9z"/>
					<path class="st3" d="M345.1,94.8v9.9h-1.3v-9.9H345.1z"/>
					<path class="st3" d="M347.4,99.5c0-0.7,0-1.3-0.1-1.9h1.1l0.1,1.2h0c0.4-0.7,1.2-1.3,2.3-1.3c1,0,2.5,0.6,2.5,3v4.2h-1.3v-4.1
						c0-1.1-0.4-2.1-1.6-2.1c-0.8,0-1.5,0.6-1.7,1.3c-0.1,0.2-0.1,0.4-0.1,0.6v4.3h-1.3V99.5z"/>
					<path class="st3" d="M355.4,103.4c0.4,0.2,1.1,0.5,1.7,0.5c0.9,0,1.4-0.5,1.4-1.1c0-0.6-0.4-1-1.3-1.3c-1.3-0.5-1.9-1.2-1.9-2
						c0-1.1,0.9-2.1,2.4-2.1c0.7,0,1.3,0.2,1.7,0.4l-0.3,0.9c-0.3-0.2-0.8-0.4-1.4-0.4c-0.8,0-1.2,0.4-1.2,1c0,0.6,0.4,0.8,1.3,1.2
						c1.2,0.5,1.9,1.1,1.9,2.1c0,1.2-1,2.1-2.6,2.1c-0.8,0-1.5-0.2-2-0.5L355.4,103.4z"/>
					<path class="st3" d="M362.9,95.6v2h1.8v1h-1.8v3.8c0,0.9,0.2,1.4,1,1.4c0.3,0,0.6,0,0.7-0.1l0.1,1c-0.2,0.1-0.6,0.2-1.1,0.2
						c-0.6,0-1.1-0.2-1.4-0.5c-0.4-0.4-0.5-1-0.5-1.8v-3.9h-1.1v-1h1.1v-1.7L362.9,95.6z"/>
					<path class="st3" d="M370.1,104.7l-0.1-0.9h0c-0.4,0.6-1.2,1.1-2.2,1.1c-1.4,0-2.2-1-2.2-2c0-1.7,1.5-2.6,4.3-2.6V100
						c0-0.6-0.2-1.6-1.6-1.6c-0.7,0-1.3,0.2-1.8,0.5l-0.3-0.8c0.6-0.4,1.4-0.6,2.3-0.6c2.2,0,2.7,1.5,2.7,2.9v2.6
						c0,0.6,0,1.2,0.1,1.7H370.1z M369,94.6l1.4,2.1h-1l-0.8-1.4h0l-0.8,1.4h-1l1.4-2.1H369z M369.9,101.1c-1.4,0-3,0.2-3,1.6
						c0,0.8,0.6,1.2,1.2,1.2c0.9,0,1.5-0.6,1.7-1.2c0-0.1,0.1-0.3,0.1-0.4V101.1z"/>
					<path class="st3" d="M373.2,99.5c0-0.7,0-1.3-0.1-1.9h1.1l0.1,1.2h0c0.4-0.7,1.2-1.3,2.3-1.3c1,0,2.5,0.6,2.5,3v4.2H378v-4.1
						c0-1.1-0.4-2.1-1.6-2.1c-0.8,0-1.5,0.6-1.7,1.3c-0.1,0.2-0.1,0.4-0.1,0.6v4.3h-1.3V99.5z"/>
					<path class="st3" d="M386.4,104.4c-0.3,0.2-1.1,0.4-2,0.4c-2.1,0-3.5-1.4-3.5-3.6c0-2.2,1.5-3.8,3.8-3.8c0.8,0,1.4,0.2,1.8,0.4
						l-0.3,1c-0.3-0.2-0.8-0.3-1.5-0.3c-1.6,0-2.5,1.2-2.5,2.7c0,1.6,1.1,2.6,2.5,2.6c0.7,0,1.2-0.2,1.6-0.4L386.4,104.4z"/>
					<path class="st3" d="M389.3,95.6c0,0.4-0.3,0.8-0.8,0.8c-0.5,0-0.8-0.4-0.8-0.8c0-0.5,0.3-0.8,0.8-0.8
						C389,94.8,389.3,95.2,389.3,95.6z M387.9,104.7v-7.1h1.3v7.1H387.9z"/>
					<path class="st3" d="M395.3,104.7l-0.1-0.9h0c-0.4,0.6-1.2,1.1-2.2,1.1c-1.4,0-2.2-1-2.2-2c0-1.7,1.5-2.6,4.3-2.6V100
						c0-0.6-0.2-1.6-1.6-1.6c-0.7,0-1.3,0.2-1.8,0.5l-0.3-0.8c0.6-0.4,1.4-0.6,2.3-0.6c2.2,0,2.7,1.5,2.7,2.9v2.6
						c0,0.6,0,1.2,0.1,1.7H395.3z M395.1,101.1c-1.4,0-3,0.2-3,1.6c0,0.8,0.6,1.2,1.2,1.2c0.9,0,1.5-0.6,1.7-1.2
						c0-0.1,0.1-0.3,0.1-0.4V101.1z"/>
					<path class="st3" d="M398.2,103.4c0.4,0.2,1.1,0.5,1.7,0.5c0.9,0,1.4-0.5,1.4-1.1c0-0.6-0.4-1-1.3-1.3c-1.3-0.5-1.9-1.2-1.9-2
						c0-1.1,0.9-2.1,2.4-2.1c0.7,0,1.3,0.2,1.7,0.4l-0.3,0.9c-0.3-0.2-0.8-0.4-1.4-0.4c-0.8,0-1.2,0.4-1.2,1c0,0.6,0.4,0.8,1.3,1.2
						c1.2,0.5,1.9,1.1,1.9,2.1c0,1.2-1,2.1-2.6,2.1c-0.8,0-1.5-0.2-2-0.5L398.2,103.4z"/>
					<path class="st3" d="M232,111.9v8.6c0,0.6,0,1.3,0.1,1.8h-1.2l-0.1-1.2h0c-0.4,0.8-1.3,1.4-2.4,1.4c-1.7,0-3-1.4-3-3.6
						c0-2.4,1.4-3.8,3.2-3.8c1.1,0,1.8,0.5,2.1,1.1h0v-4.2H232z M230.7,118c0-0.2,0-0.4-0.1-0.5c-0.2-0.8-0.9-1.5-1.9-1.5
						c-1.3,0-2.1,1.2-2.1,2.7c0,1.4,0.7,2.6,2.1,2.6c0.9,0,1.7-0.6,1.9-1.5c0-0.2,0.1-0.4,0.1-0.6V118z"/>
					<path class="st3" d="M234.8,118.9c0,1.7,1.1,2.5,2.4,2.5c0.9,0,1.5-0.2,2-0.4l0.2,0.9c-0.5,0.2-1.2,0.4-2.4,0.4
						c-2.2,0-3.5-1.4-3.5-3.6c0-2.1,1.3-3.8,3.3-3.8c2.3,0,2.9,2,2.9,3.3c0,0.3,0,0.5,0,0.6H234.8z M238.6,118
						c0-0.8-0.3-2.1-1.8-2.1c-1.3,0-1.9,1.2-2,2.1H238.6z"/>
					<path class="st3" d="M252.9,117.9c-0.1-1.4-0.2-3-0.1-4.3h0c-0.3,1.2-0.7,2.4-1.2,3.7l-1.7,4.8h-1l-1.6-4.7
						c-0.5-1.4-0.9-2.7-1.1-3.8h0c0,1.2-0.1,2.9-0.2,4.4l-0.3,4.2h-1.2l0.7-9.9h1.6l1.7,4.8c0.4,1.2,0.7,2.3,1,3.3h0
						c0.2-1,0.6-2.1,1-3.3l1.8-4.8h1.6l0.6,9.9h-1.2L252.9,117.9z"/>
					<path class="st3" d="M262.3,120.3c0,0.7,0,1.4,0.1,1.9h-1.1l-0.1-1.2h0c-0.3,0.6-1.1,1.3-2.3,1.3c-1.1,0-2.4-0.6-2.4-3.1v-4.1
						h1.3v3.9c0,1.3,0.4,2.3,1.6,2.3c0.9,0,1.5-0.6,1.7-1.2c0.1-0.2,0.1-0.4,0.1-0.7v-4.3h1.3V120.3z"/>
					<path class="st3" d="M264.4,111.9h1.3v10.4h-1.3V111.9z"/>
					<path class="st3" d="M267.9,111.9h1.3v4.4h0c0.2-0.4,0.5-0.7,0.9-0.9c0.4-0.2,0.8-0.4,1.3-0.4c1,0,2.5,0.6,2.5,3v4.2h-1.3v-4.1
						c0-1.1-0.4-2.1-1.6-2.1c-0.8,0-1.5,0.6-1.7,1.3c-0.1,0.2-0.1,0.4-0.1,0.6v4.3h-1.3V111.9z"/>
					<path class="st3" d="M276.7,118.9c0,1.7,1.1,2.5,2.4,2.5c0.9,0,1.5-0.2,2-0.4l0.2,0.9c-0.5,0.2-1.2,0.4-2.4,0.4
						c-2.2,0-3.5-1.4-3.5-3.6c0-2.1,1.3-3.8,3.3-3.8c2.3,0,2.9,2,2.9,3.3c0,0.3,0,0.5,0,0.6H276.7z M280.5,118
						c0-0.8-0.3-2.1-1.8-2.1c-1.3,0-1.9,1.2-2,2.1H280.5z"/>
					<path class="st3" d="M283.3,117.4c0-0.8,0-1.6-0.1-2.2h1.1l0,1.4h0.1c0.3-1,1.1-1.6,2-1.6c0.1,0,0.2,0,0.4,0v1.2
						c-0.1,0-0.3,0-0.4,0c-0.9,0-1.6,0.7-1.7,1.7c0,0.2-0.1,0.4-0.1,0.6v3.8h-1.3V117.4z"/>
					<path class="st3" d="M288.7,118.9c0,1.7,1.1,2.5,2.4,2.5c0.9,0,1.5-0.2,2-0.4l0.2,0.9c-0.5,0.2-1.2,0.4-2.4,0.4
						c-2.2,0-3.5-1.4-3.5-3.6c0-2.1,1.3-3.8,3.3-3.8c2.3,0,2.9,2,2.9,3.3c0,0.3,0,0.5,0,0.6H288.7z M292.4,118
						c0-0.8-0.3-2.1-1.8-2.1c-1.3,0-1.9,1.2-2,2.1H292.4z"/>
					<path class="st3" d="M295.1,120.9c0.4,0.2,1.1,0.5,1.7,0.5c0.9,0,1.4-0.5,1.4-1.1c0-0.6-0.4-1-1.3-1.3c-1.3-0.5-1.9-1.2-1.9-2
						c0-1.1,0.9-2.1,2.4-2.1c0.7,0,1.3,0.2,1.7,0.4l-0.3,0.9c-0.3-0.2-0.8-0.4-1.4-0.4c-0.8,0-1.2,0.4-1.2,1c0,0.6,0.4,0.8,1.3,1.2
						c1.2,0.5,1.9,1.1,1.9,2.1c0,1.2-1,2.1-2.6,2.1c-0.8,0-1.5-0.2-2-0.5L295.1,120.9z"/>
					<path class="st3" d="M310.3,111.9v8.6c0,0.6,0,1.3,0.1,1.8h-1.2l-0.1-1.2h0c-0.4,0.8-1.3,1.4-2.4,1.4c-1.7,0-3-1.4-3-3.6
						c0-2.4,1.4-3.8,3.2-3.8c1.1,0,1.8,0.5,2.1,1.1h0v-4.2H310.3z M309,118c0-0.2,0-0.4-0.1-0.5c-0.2-0.8-0.9-1.5-1.9-1.5
						c-1.3,0-2.1,1.2-2.1,2.7c0,1.4,0.7,2.6,2.1,2.6c0.9,0,1.7-0.6,1.9-1.5c0-0.2,0.1-0.4,0.1-0.6V118z"/>
					<path class="st3" d="M313.1,118.9c0,1.7,1.1,2.5,2.4,2.5c0.9,0,1.5-0.2,2-0.4l0.2,0.9c-0.5,0.2-1.2,0.4-2.4,0.4
						c-2.2,0-3.5-1.4-3.5-3.6c0-2.1,1.3-3.8,3.3-3.8c2.3,0,2.9,2,2.9,3.3c0,0.3,0,0.5,0,0.6H313.1z M316.9,118
						c0-0.8-0.3-2.1-1.8-2.1c-1.3,0-1.9,1.2-2,2.1H316.9z"/>
					<path class="st3" d="M322.9,112.5c0.6-0.1,1.4-0.2,2.4-0.2c1.3,0,2.2,0.3,2.8,0.8c0.5,0.5,0.9,1.2,0.9,2.1
						c0,0.9-0.3,1.6-0.8,2.1c-0.7,0.7-1.8,1.1-3,1.1c-0.4,0-0.7,0-1-0.1v4h-1.3V112.5z M324.2,117.3c0.3,0.1,0.6,0.1,1.1,0.1
						c1.5,0,2.5-0.7,2.5-2.1c0-1.3-0.9-1.9-2.3-1.9c-0.6,0-1,0-1.2,0.1V117.3z"/>
					<path class="st3" d="M334.2,122.2l-0.1-0.9h0c-0.4,0.6-1.2,1.1-2.2,1.1c-1.4,0-2.2-1-2.2-2c0-1.7,1.5-2.6,4.3-2.6v-0.1
						c0-0.6-0.2-1.6-1.6-1.6c-0.7,0-1.3,0.2-1.8,0.5l-0.3-0.8c0.6-0.4,1.4-0.6,2.3-0.6c2.2,0,2.7,1.5,2.7,2.9v2.6
						c0,0.6,0,1.2,0.1,1.7H334.2z M334,118.6c-1.4,0-3,0.2-3,1.6c0,0.8,0.6,1.2,1.2,1.2c0.9,0,1.5-0.6,1.7-1.2
						c0-0.1,0.1-0.3,0.1-0.4V118.6z"/>
					<path class="st3" d="M337.3,117.4c0-0.8,0-1.6-0.1-2.2h1.1l0,1.4h0.1c0.3-1,1.1-1.6,2-1.6c0.1,0,0.2,0,0.4,0v1.2
						c-0.1,0-0.3,0-0.4,0c-0.9,0-1.6,0.7-1.7,1.7c0,0.2-0.1,0.4-0.1,0.6v3.8h-1.3V117.4z"/>
					<path class="st3" d="M344,113.1v2h1.8v1H344v3.8c0,0.9,0.2,1.4,1,1.4c0.3,0,0.6,0,0.7-0.1l0.1,1c-0.2,0.1-0.6,0.2-1.1,0.2
						c-0.6,0-1.1-0.2-1.4-0.5c-0.4-0.4-0.5-1-0.5-1.8v-3.9h-1.1v-1h1.1v-1.7L344,113.1z"/>
					<path class="st3" d="M348.7,113.2c0,0.4-0.3,0.8-0.8,0.8c-0.5,0-0.8-0.4-0.8-0.8c0-0.5,0.3-0.8,0.8-0.8
						C348.4,112.4,348.7,112.7,348.7,113.2z M347.3,122.2v-7.1h1.3v7.1H347.3z"/>
					<path class="st3" d="M356.8,111.9v8.6c0,0.6,0,1.3,0.1,1.8h-1.2l-0.1-1.2h0c-0.4,0.8-1.3,1.4-2.4,1.4c-1.7,0-3-1.4-3-3.6
						c0-2.4,1.4-3.8,3.2-3.8c1.1,0,1.8,0.5,2.1,1.1h0v-4.2H356.8z M355.5,118c0-0.2,0-0.4-0.1-0.5c-0.2-0.8-0.9-1.5-1.9-1.5
						c-1.3,0-2.1,1.2-2.1,2.7c0,1.4,0.7,2.6,2.1,2.6c0.9,0,1.7-0.6,1.9-1.5c0-0.2,0.1-0.4,0.1-0.6V118z"/>
					<path class="st3" d="M365.4,118.6c0,2.6-1.8,3.8-3.5,3.8c-1.9,0-3.4-1.4-3.4-3.6c0-2.4,1.6-3.8,3.5-3.8
						C364,115,365.4,116.5,365.4,118.6z M359.7,118.7c0,1.6,0.9,2.7,2.2,2.7c1.2,0,2.2-1.2,2.2-2.8c0-1.2-0.6-2.7-2.1-2.7
						C360.4,116,359.7,117.4,359.7,118.7z"/>
					<path class="st3" d="M366.8,120.9c0.4,0.2,1.1,0.5,1.7,0.5c0.9,0,1.4-0.5,1.4-1.1c0-0.6-0.4-1-1.3-1.3c-1.3-0.5-1.9-1.2-1.9-2
						c0-1.1,0.9-2.1,2.4-2.1c0.7,0,1.3,0.2,1.7,0.4l-0.3,0.9c-0.3-0.2-0.8-0.4-1.4-0.4c-0.8,0-1.2,0.4-1.2,1c0,0.6,0.4,0.8,1.3,1.2
						c1.2,0.5,1.9,1.1,1.9,2.1c0,1.2-1,2.1-2.6,2.1c-0.8,0-1.5-0.2-2-0.5L366.8,120.9z"/>
					<path class="st3" d="M375.9,112.5c0.6-0.1,1.4-0.2,2.4-0.2c1.3,0,2.2,0.3,2.8,0.8c0.5,0.5,0.9,1.2,0.9,2.1
						c0,0.9-0.3,1.6-0.8,2.1c-0.7,0.7-1.8,1.1-3,1.1c-0.4,0-0.7,0-1-0.1v4h-1.3V112.5z M377.2,117.3c0.3,0.1,0.6,0.1,1.1,0.1
						c1.5,0,2.5-0.7,2.5-2.1c0-1.3-0.9-1.9-2.3-1.9c-0.6,0-1,0-1.2,0.1V117.3z"/>
					<path class="st3" d="M389.7,118.6c0,2.6-1.8,3.8-3.5,3.8c-1.9,0-3.4-1.4-3.4-3.6c0-2.4,1.6-3.8,3.5-3.8
						C388.3,115,389.7,116.5,389.7,118.6z M384.1,118.7c0,1.6,0.9,2.7,2.2,2.7c1.2,0,2.2-1.2,2.2-2.8c0-1.2-0.6-2.7-2.1-2.7
						C384.7,116,384.1,117.4,384.1,118.7z"/>
					<path class="st3" d="M391.3,111.9h1.3v10.4h-1.3V111.9z"/>
					<path class="st3" d="M397.4,112.1l-1.8,2.1h-0.9l1.3-2.1H397.4z M394.8,122.2v-7.1h1.3v7.1H394.8z"/>
					<path class="st3" d="M399.7,113.1v2h1.8v1h-1.8v3.8c0,0.9,0.2,1.4,1,1.4c0.3,0,0.6,0,0.7-0.1l0.1,1c-0.2,0.1-0.6,0.2-1.1,0.2
						c-0.6,0-1.1-0.2-1.4-0.5c-0.4-0.4-0.5-1-0.5-1.8v-3.9h-1.1v-1h1.1v-1.7L399.7,113.1z"/>
					<path class="st3" d="M404.5,113.2c0,0.4-0.3,0.8-0.8,0.8c-0.5,0-0.8-0.4-0.8-0.8c0-0.5,0.3-0.8,0.8-0.8
						C404.2,112.4,404.5,112.7,404.5,113.2z M403,122.2v-7.1h1.3v7.1H403z"/>
					<path class="st3" d="M411.5,122c-0.3,0.2-1.1,0.4-2,0.4c-2.1,0-3.5-1.4-3.5-3.6c0-2.2,1.5-3.8,3.8-3.8c0.8,0,1.4,0.2,1.8,0.4
						l-0.3,1c-0.3-0.2-0.8-0.3-1.5-0.3c-1.6,0-2.5,1.2-2.5,2.7c0,1.6,1.1,2.6,2.5,2.6c0.7,0,1.2-0.2,1.6-0.4L411.5,122z"/>
					<path class="st3" d="M419.3,118.6c0,2.6-1.8,3.8-3.5,3.8c-1.9,0-3.4-1.4-3.4-3.6c0-2.4,1.6-3.8,3.5-3.8
						C418,115,419.3,116.5,419.3,118.6z M413.7,118.7c0,1.6,0.9,2.7,2.2,2.7c1.2,0,2.2-1.2,2.2-2.8c0-1.2-0.6-2.7-2.1-2.7
						C414.4,116,413.7,117.4,413.7,118.7z"/>
					<path class="st3" d="M420.8,120.9c0.4,0.2,1.1,0.5,1.7,0.5c0.9,0,1.4-0.5,1.4-1.1c0-0.6-0.4-1-1.3-1.3c-1.3-0.5-1.9-1.2-1.9-2
						c0-1.1,0.9-2.1,2.4-2.1c0.7,0,1.3,0.2,1.7,0.4l-0.3,0.9c-0.3-0.2-0.8-0.4-1.4-0.4c-0.8,0-1.2,0.4-1.2,1c0,0.6,0.4,0.8,1.3,1.2
						c1.2,0.5,1.9,1.1,1.9,2.1c0,1.2-1,2.1-2.6,2.1c-0.8,0-1.5-0.2-2-0.5L420.8,120.9z"/>
				</g>
			</g>
			<g>
				<g>
					<path class="st3" d="M226,57.2h13.2v2.7h-10.1V68h9.3v2.6h-9.3v11.1H226V57.2z"/>
					<path class="st3" d="M243.7,81.8V57.2h3.5l7.9,12.4c1.8,2.9,3.2,5.5,4.4,8l0.1,0c-0.3-3.3-0.4-6.3-0.4-10.1V57.2h3v24.5h-3.2
						l-7.8-12.5c-1.7-2.7-3.4-5.5-4.6-8.2l-0.1,0c0.2,3.1,0.3,6,0.3,10.1v10.5H243.7z"/>
					<path class="st3" d="M270.8,57.2v24.5h-3.2V57.2H270.8z"/>
					<path class="st3" d="M276.6,68.9c0-1.8,0-3.3-0.1-4.8h2.8l0.2,2.9h0.1c0.9-1.7,2.9-3.3,5.8-3.3c2.4,0,6.2,1.5,6.2,7.5v10.5
						h-3.2V71.6c0-2.8-1.1-5.2-4.1-5.2c-2.1,0-3.8,1.5-4.3,3.3c-0.1,0.4-0.2,0.9-0.2,1.5v10.6h-3.2V68.9z"/>
					<path class="st3" d="M317.6,71c-0.2-3.4-0.4-7.5-0.4-10.6h-0.1c-0.8,2.9-1.9,5.9-3.1,9.3l-4.3,11.9h-2.4l-4-11.7
						c-1.2-3.5-2.1-6.6-2.8-9.5h-0.1c-0.1,3.1-0.3,7.2-0.5,10.9l-0.7,10.5h-3l1.7-24.5h4l4.2,11.9c1,3,1.9,5.7,2.5,8.3h0.1
						c0.6-2.5,1.5-5.2,2.6-8.3l4.4-11.9h4l1.5,24.5h-3.1L317.6,71z"/>
					<path class="st3" d="M326.2,57.5c1.5-0.3,3.5-0.5,6.1-0.5c3.1,0,5.4,0.7,6.9,2c1.3,1.2,2.1,3,2.1,5.1c0,2.2-0.7,4-1.9,5.2
						c-1.7,1.8-4.4,2.7-7.5,2.7c-0.9,0-1.8,0-2.5-0.2v9.8h-3.2V57.5z M329.4,69.4c0.7,0.2,1.6,0.3,2.6,0.3c3.8,0,6.2-1.9,6.2-5.2
						c0-3.2-2.3-4.8-5.8-4.8c-1.4,0-2.4,0.1-3,0.3V69.4z"/>
					<path class="st3" d="M345.6,57.5c1.5-0.3,3.5-0.5,6.1-0.5c3.1,0,5.4,0.7,6.9,2c1.3,1.2,2.1,3,2.1,5.1c0,2.2-0.7,4-1.9,5.2
						c-1.7,1.8-4.4,2.7-7.5,2.7c-0.9,0-1.8,0-2.5-0.2v9.8h-3.2V57.5z M348.8,69.4c0.7,0.2,1.6,0.3,2.6,0.3c3.8,0,6.2-1.9,6.2-5.2
						c0-3.2-2.3-4.8-5.8-4.8c-1.4,0-2.4,0.1-3,0.3V69.4z"/>
				</g>
			</g>
			<g>
				<rect x="57.9" y="50.4" class="st4" width="156" height="73.2"/>
				<g>
					<path class="st5" d="M97.7,80.1c0.3,0,0.5,0.1,0.6,0.3c0.2,0.3,0.4,0.6,0.7,0.9c0.3,0.3,0.8,0.5,1.2,0.5c0.5,0,0.9,0.1,1.3,0.3
						c0.4,0.2,0.8,0.4,1.2,0.4c0.2,0,0.5,0,0.7,0c0.2,0,0.2,0,0.2,0.1c0.2,1.1,0.3,2.3-0.1,3.4c-0.3,0.9-0.5,1.8-0.5,2.7
						c0,0.6,0,1.2,0.2,1.7c0.2,0.5,0.1,1-0.1,1.5c-0.3,0.7-0.7,1.4-0.9,2.1c-0.2,0.5-0.3,1.1-0.3,1.6v0c-0.1,0.8,0.2,1.6,0.4,2.3
						c0.1,0.4,0.3,0.8,0.3,1.3c0,0.7-0.2,1.3-0.5,1.9c-0.3,0.6-0.5,1.2-0.7,1.8c-0.1,0.6-0.1,1.1,0.3,1.6c0.5,0.6,0.5,1.2,0.4,1.9
						c-0.1,0.3-0.1,0.5-0.1,0.8c0.1,0.6,0.5,0.9,1.1,0.8c0.4-0.1,0.7-0.1,1-0.3c0.3-0.1,0.5-0.2,0.8-0.2c0.5-0.1,1-0.3,1.4-0.5
						c0.1-0.1,0.3-0.1,0.4,0l0,0c0.9,0.3,1.8,0.1,2.7-0.2c0.6-0.2,1.3-0.3,1.9-0.3c0.5,0,1.1,0.1,1.6,0.3h0c0.2,0,0.4,0.1,0.7,0.1
						l0,0c1.6,0.3,3-0.1,4.3-1c0.5-0.3,0.9-0.6,1.4-0.9c0.8-0.5,1.6-0.7,2.5-0.6c0.4,0,0.7,0.1,1.1,0.1c0.5,0,0.9-0.3,1-0.8
						c0.1-0.9,0-1.8-0.4-2.6c-0.3-0.6-0.7-1.1-1.1-1.6c-0.4-0.5-0.6-1.1-0.6-1.7c0-0.6,0-1.1,0-1.7c0-0.8-0.2-1.5-0.6-2.2
						c-0.3-0.5-0.7-0.9-1.1-1.4c-0.8-0.9-1.6-1.8-1.9-3c-0.3-0.9-0.3-1.8-0.4-2.7c-0.1-1.2-0.5-2.2-1.3-3.1c-0.3-0.4-0.7-0.7-1-1
						c-0.1-0.1-0.2-0.2-0.2-0.3c0-0.4-0.1-0.7-0.2-1.1c-0.2-1.2-0.6-2.5-1-3.7c-0.2-0.6-0.4-1.1-0.8-1.6c-0.6-1-1.4-1.8-2.4-2.4
						c-1.3-0.8-2.5-1.7-4.1-2c-1.1-0.2-2.1-0.4-3.2-0.4c-1,0-1.8,0.2-2.7,0.5c-0.9,0.4-1.6,1.2-2.1,2c-0.3,0.5-0.6,0.9-0.8,1.4
						c-0.3,0.6-0.7,1-1.4,1.2c-0.4,0.1-0.7,0.3-1,0.5c-0.9,0.5-1.3,1.2-1.4,2.2c0,0.3,0.1,0.5,0.3,0.5c0.1,0,0.2,0.1,0.2,0.1
						c0.4,0.2,0.8,0.5,1.2,0.6l0,0C96.8,80.4,97.2,80.2,97.7,80.1z"/>
					<path class="st6" d="M109.4,128.6c-0.3-1.2-0.6-2.5-0.8-3.8c-0.1-0.7-0.2-1.5-0.3-2.2c-0.1-0.6-0.2-1.3-0.3-1.9
						c-0.1-0.9-0.3-1.9-0.5-2.8c-0.1-0.2-0.1-0.5-0.2-0.7c-0.3-0.8-0.5-1.6-0.7-2.4c-0.2-0.8-0.3-1.6-0.4-2.4
						c-0.1-0.9-0.1-1.7-0.1-2.6c0-0.8,0.2-1.7,0.5-2.5c0-0.1,0.1-0.2,0.2-0.2h0l0,0c-0.1-0.1-0.3,0-0.4,0c-0.5,0.2-0.9,0.4-1.4,0.5
						c-0.3,0-0.6,0.1-0.8,0.2c-0.3,0.2-0.7,0.2-1,0.3c-0.6,0.1-1-0.2-1.1-0.8c-0.1-0.3,0-0.6,0.1-0.8c0.1-0.7,0.1-1.3-0.4-1.9
						c-0.4-0.4-0.4-1-0.3-1.6c0.1-0.7,0.4-1.3,0.7-1.8c0.3-0.6,0.5-1.2,0.5-1.9c0-0.4-0.2-0.9-0.3-1.3c-0.3-0.8-0.5-1.5-0.4-2.3
						c0,0.1-0.1,0.1-0.2,0.2c-0.2,0.1-0.4,0.2-0.6,0.3c-0.1,0.1-0.2,0.2-0.4,0.3c-0.1,0.1-0.2,0.2-0.1,0.4c0.3,0.8,0.4,1.6,0.5,2.3
						c0.1,0.3,0.1,0.5,0.2,0.8c0,0.2,0,0.4-0.2,0.5c-0.6,0.6-1.2,1.2-1.6,1.9c-0.7,1-1.5,1.8-2.5,2.5c-0.6,0.5-1.2,1-1.8,1.6
						c-0.1,0.1-0.1,0.2-0.2,0.2l0,0c-0.2,0.3-0.5,0.6-0.8,0.8c-0.7,0.6-1.4,1.3-2,2c-0.7,1-1.2,2.2-1.5,3.4
						c-0.2,0.9-0.4,1.7-0.2,2.6c0.2,0.9,0.5,1.8,1.1,2.5c0.1,0.1,0.1,0.2,0,0.3c-0.2,0.9-0.4,1.7-0.6,2.6c-0.2,1.1-0.5,2.1-0.6,3.2
						c-0.1,0.4,0,0.9-0.1,1.3c-0.3,1-0.6,2-0.9,3c-0.1,0.2-0.1,0.5-0.2,0.7h20.2C109.5,128.9,109.4,128.8,109.4,128.6z"/>
					<path class="st7" d="M114.1,108c-0.2-0.3-0.4-0.5-0.6-0.8c-0.1-0.1-0.2-0.3-0.4-0.4h0h0c-0.5-0.2-1-0.3-1.6-0.3
						c-0.7,0-1.3,0.1-1.9,0.3c-0.9,0.3-1.8,0.5-2.7,0.2h0c-0.1,0-0.1,0.1-0.2,0.2c-0.3,0.8-0.5,1.6-0.5,2.5c0,0.9,0,1.7,0.1,2.6
						c0.1,0.8,0.2,1.6,0.4,2.4c0.2,0.8,0.4,1.6,0.7,2.4c0.1,0.2,0.1,0.5,0.2,0.7c0.2,0.9,0.4,1.8,0.5,2.8c0.1,0.6,0.2,1.3,0.3,1.9
						c0.1,0.8,0.2,1.5,0.3,2.2c0.3,1.3,0.5,2.5,0.8,3.8c0,0.2,0.1,0.4,0.1,0.5h9.1c0-0.1,0-0.3,0-0.4c0-0.4-0.1-0.8-0.1-1.2
						c-0.1-0.6-0.1-1.1-0.1-1.7c-0.1-0.3-0.1-0.7-0.2-1c-0.1-1-0.3-1.9-0.4-2.9c-0.1-0.7-0.1-1.3-0.2-2c0-0.3-0.1-0.7-0.1-1
						c0-0.1,0-0.2,0-0.3l0,0c0,0,0-0.1,0-0.1c-0.2-1-0.4-2-0.6-3c-0.3-1.2-0.7-2.3-1-3.5C115.5,110.7,114.9,109.3,114.1,108
						C114.2,108.1,114.1,108.1,114.1,108z"/>
					<path class="st5" d="M95.3,106.5c0.5-0.6,1.2-1.1,1.8-1.6c0.9-0.7,1.8-1.5,2.5-2.5c0.5-0.7,1-1.3,1.6-1.9
						c0.2-0.2,0.2-0.3,0.2-0.5c-0.1-0.3-0.1-0.5-0.2-0.8c-0.2-0.8-0.3-1.6-0.5-2.3c-0.1-0.1,0-0.3,0.1-0.4c0.1-0.1,0.2-0.2,0.4-0.3
						l0,0c-0.1-0.3-0.2-0.6-0.3-0.9c-0.1-0.4-0.3-0.8-0.5-1.1c-0.2-0.3-0.4-0.7-0.5-1.1c-0.1-0.2-0.2-0.3-0.4-0.2
						c-0.8,0.1-1.7,0.2-2.5,0.1c-0.5,0-1-0.1-1.4-0.2c-0.6-0.2-1-0.5-1.3-0.9c-0.7-0.9-0.6-1.7-0.3-2.7c0,0,0-0.1,0-0.1
						c-0.2-0.4-0.1-0.6,0.2-0.8c0.1-0.1,0.2-0.1,0.1-0.3c-0.2-0.2-0.1-0.4,0.1-0.6c0.1-0.1,0.2-0.1,0.3-0.1c0.1-0.3,0.2-0.7,0.1-1.1
						c0-0.1,0-0.2-0.1-0.3c0-0.1-0.1-0.2-0.2-0.1l0,0c0,0.1-0.1,0.1-0.1,0.2c-0.9,1.4-1.4,2.9-1.3,4.6c0,0.4,0,0.8,0,1.2
						c0,0.9-0.3,1.8-0.8,2.6c-0.4,0.5-0.7,1-1.1,1.5c-0.5,0.7-1,1.5-1.3,2.3c-0.4,1-0.4,1.9,0.1,2.8c0.2,0.3,0.2,0.6,0.2,0.9
						c-0.1,0.4-0.1,0.7-0.2,1.1c-0.1,0.5-0.2,1.1-0.2,1.6c0.1,0.6,0.3,1.1,0.9,1.4c0.5,0.2,1,0.3,1.6,0.4c1,0.1,2,0.3,3,0.5l0,0
						C95.1,106.7,95.2,106.6,95.3,106.5z"/>
					<path class="st7" d="M94.5,85.8c0.1,0.1,0.1,0.2,0.1,0.3c0,0.4-0.1,0.7-0.1,1.1c0.6,0.4,1.2,0.6,1.8,0.9c0.2,0.1,0.2,0.1,0,0.3
						c-0.4,0.3-0.9,0.6-1.5,0.6c-0.3,0-0.6,0.1-1,0.1c0,0,0,0-0.1,0l0,0c-0.3,0.9-0.4,1.8,0.3,2.7c0.4,0.5,0.8,0.8,1.3,0.9
						c0.5,0.1,0.9,0.2,1.4,0.2c0.8,0,1.7,0,2.5-0.1c0.2,0,0.3,0,0.4,0.2c0.2,0.4,0.3,0.8,0.5,1.1c0.2,0.3,0.4,0.7,0.5,1.1
						c0.1,0.3,0.2,0.6,0.3,0.9l0,0c0.2-0.1,0.4-0.2,0.6-0.3c0.1,0,0.2-0.1,0.2-0.2v0c0-0.6,0.2-1.1,0.3-1.6c0.2-0.7,0.6-1.4,0.9-2.1
						c0.2-0.5,0.3-0.9,0.1-1.5c-0.2-0.6-0.3-1.1-0.2-1.7c0.1-0.9,0.2-1.8,0.5-2.7c0.4-1.1,0.4-2.2,0.1-3.4c0-0.1,0-0.2-0.2-0.1
						c-0.2,0-0.5,0-0.7,0c-0.4,0-0.8-0.2-1.2-0.4c-0.4-0.2-0.9-0.3-1.3-0.3c-0.5,0-0.9-0.2-1.2-0.5c-0.3-0.3-0.5-0.6-0.7-0.9
						c-0.2-0.2-0.4-0.3-0.6-0.3c-0.5,0-1,0.2-1.5,0.2l0,0c0.1,0.1,0.2,0,0.2,0.1c0,0.1-0.1,0.2-0.1,0.3c-0.3,0.5-0.7,1-1,1.4
						c-0.2,0.3-0.5,0.6-0.9,0.7c-0.5,0.2-0.9,0.5-1.3,0.8c-0.4,0.3-0.4,0.7-0.2,1.1c0.2,0.3,0.5,0.5,0.9,0.6
						c0.2,0.1,0.4,0.1,0.4,0.3l0,0C94.4,85.7,94.4,85.8,94.5,85.8z M96.7,82c0.1,0,0.1,0.1,0.1,0.2c0,0.1,0,0.1-0.1,0.1
						c-0.1,0-0.2,0-0.1-0.1C96.6,82.1,96.6,82,96.7,82z M96.9,83.4c0,0.1-0.1,0.1-0.1,0.1c-0.1,0-0.1-0.1-0.1-0.1
						c0-0.1,0.1-0.1,0.1-0.1C96.8,83.3,96.9,83.3,96.9,83.4z M97.7,81.7c0.2,0,0.4,0.2,0.4,0.4c0,0.2-0.2,0.4-0.4,0.4
						c-0.2,0-0.4-0.2-0.4-0.4C97.3,81.8,97.5,81.7,97.7,81.7z M97.9,84.6c0.1,0,0.1,0.1,0.1,0.1c0,0.1-0.1,0.1-0.1,0.1
						c-0.1,0-0.2-0.1-0.1-0.1C97.8,84.6,97.9,84.6,97.9,84.6z M97.8,83.1c-0.1,0-0.1,0-0.1-0.1c0-0.1,0.1-0.2,0.1-0.2
						c0.1,0,0.1,0.1,0.1,0.1C97.9,83.1,97.9,83.1,97.8,83.1z M98.9,83.9c0.1,0,0.1,0.1,0.1,0.2c0,0.1,0,0.1-0.1,0.1
						c-0.1,0-0.1,0-0.1-0.1C98.7,84,98.8,83.9,98.9,83.9z M99.2,85.2c0.1,0,0.1,0,0.1,0.1c0,0.1,0,0.1-0.1,0.1
						c-0.1,0-0.1-0.1-0.1-0.2C99.1,85.2,99.1,85.2,99.2,85.2z M100.9,84.6c0.1,0,0.1,0,0.1,0.1c0,0.1-0.1,0.1-0.1,0.1
						c-0.1,0-0.1-0.1-0.1-0.1C100.8,84.6,100.8,84.6,100.9,84.6z M95.9,83.9c0,0.1-0.1,0.1-0.2,0.1c-0.1,0-0.1,0-0.1-0.1
						c0-0.1,0-0.1,0.1-0.2C95.8,83.8,95.9,83.8,95.9,83.9z M95.7,82.5c0.1,0,0.1,0,0.1,0.1c0,0.1,0,0.1-0.1,0.1
						c-0.1,0-0.2,0-0.2-0.1C95.5,82.6,95.6,82.5,95.7,82.5z"/>
					<path class="st8" d="M113.2,106.8L113.2,106.8c0.1,0.1,0.3,0.2,0.4,0.4c0.2,0.3,0.4,0.5,0.6,0.8c0,0.1,0.1,0.1,0.1,0
						c-0.1-0.4-0.3-0.7-0.4-1.1l0,0C113.6,106.9,113.4,106.9,113.2,106.8z"/>
					<path class="st9" d="M93.8,89.1c0.3,0.1,0.6-0.1,1-0.1c0.6-0.1,1-0.3,1.5-0.6c0.2-0.1,0.2-0.2,0-0.3c-0.6-0.3-1.2-0.6-1.8-0.9
						c-0.1,0-0.2,0.1-0.3,0.1c-0.2,0.1-0.3,0.4-0.1,0.6c0.2,0.2,0.1,0.2-0.1,0.3C93.6,88.4,93.5,88.7,93.8,89.1
						C93.8,89.1,93.8,89.1,93.8,89.1L93.8,89.1C93.8,89.1,93.8,89.1,93.8,89.1z"/>
					<path class="st10" d="M97.7,82.6c0.4,0,0.7-0.3,0.7-0.7c0-0.4-0.3-0.6-0.7-0.6c-0.4,0-0.6,0.3-0.6,0.6
						C97,82.4,97.3,82.6,97.7,82.6z"/>
					<path class="st11" d="M98,84.8c0.1,0,0.1,0,0.1-0.1c0-0.1,0-0.1-0.1-0.1c-0.1,0-0.1,0-0.1,0.1C97.8,84.8,97.9,84.8,98,84.8z"/>
					<path class="st11" d="M96.6,83.4c0,0.1,0,0.1,0.1,0.1c0.1,0,0.1,0,0.1-0.1c0-0.1,0-0.1-0.1-0.1C96.7,83.3,96.6,83.3,96.6,83.4z
						"/>
					<path class="st11" d="M95.7,82.8c0.1,0,0.1-0.1,0.1-0.1c0-0.1-0.1-0.1-0.1-0.1c-0.1,0-0.1,0.1-0.1,0.1
						C95.5,82.7,95.6,82.8,95.7,82.8z"/>
					<path class="st11" d="M96.7,82.3c0.1,0,0.1,0,0.1-0.1c0-0.1,0-0.2-0.1-0.2c-0.1,0-0.1,0.1-0.1,0.1
						C96.6,82.2,96.6,82.3,96.7,82.3z"/>
					<path class="st11" d="M98.8,84.2c0.1,0,0.1,0,0.1-0.1c0-0.1,0-0.2-0.1-0.2c-0.1,0-0.2,0.1-0.2,0.2
						C98.7,84.1,98.8,84.2,98.8,84.2z"/>
					<path class="st11" d="M100.9,84.8c0.1,0,0.1-0.1,0.1-0.1c0-0.1-0.1-0.1-0.1-0.1c-0.1,0-0.1,0-0.1,0.1
						C100.8,84.8,100.8,84.8,100.9,84.8z"/>
					<path class="st11" d="M99.2,85.5c0.1,0,0.1,0,0.1-0.1c0-0.1-0.1-0.1-0.1-0.1c-0.1,0-0.1,0-0.1,0.1
						C99.1,85.4,99.1,85.5,99.2,85.5z"/>
					<path class="st11" d="M95.6,83.9c0,0.1,0,0.1,0.1,0.1c0.1,0,0.1-0.1,0.2-0.1c0-0.1,0-0.1-0.1-0.1
						C95.7,83.8,95.6,83.8,95.6,83.9z"/>
					<path class="st11" d="M97.9,83c0-0.1-0.1-0.1-0.1-0.1c-0.1,0-0.1,0.1-0.1,0.2c0,0.1,0.1,0.1,0.1,0.1
						C97.9,83.1,97.9,83.1,97.9,83z"/>
					<path class="st8" d="M113.2,106.8L113.2,106.8c0.1,0.1,0.3,0.2,0.4,0.4c0.2,0.3,0.4,0.5,0.6,0.8c0,0.1,0.1,0.1,0.1,0
						c-0.1-0.4-0.3-0.7-0.4-1.1l0,0C113.6,106.9,113.4,106.9,113.2,106.8z"/>
					<path class="st5" d="M98,84.8c0.1,0,0.1,0,0.1-0.1c0-0.1,0-0.1-0.1-0.1c-0.1,0-0.1,0-0.1,0.1C97.8,84.8,97.9,84.8,98,84.8z"/>
					<path class="st5" d="M96.6,83.4c0,0.1,0,0.1,0.1,0.1c0.1,0,0.1,0,0.1-0.1c0-0.1,0-0.1-0.1-0.1C96.7,83.3,96.6,83.3,96.6,83.4z"
						/>
					<path class="st5" d="M95.7,82.8c0.1,0,0.1-0.1,0.1-0.1c0-0.1-0.1-0.1-0.1-0.1c-0.1,0-0.1,0.1-0.1,0.1
						C95.5,82.7,95.6,82.8,95.7,82.8z"/>
					<path class="st5" d="M96.7,82.3c0.1,0,0.1,0,0.1-0.1c0-0.1,0-0.2-0.1-0.2c-0.1,0-0.1,0.1-0.1,0.1
						C96.6,82.2,96.6,82.3,96.7,82.3z"/>
					<path class="st5" d="M98.8,84.2c0.1,0,0.1,0,0.1-0.1c0-0.1,0-0.2-0.1-0.2c-0.1,0-0.2,0.1-0.2,0.2
						C98.7,84.1,98.8,84.2,98.8,84.2z"/>
					<path class="st5" d="M100.9,84.8c0.1,0,0.1-0.1,0.1-0.1c0-0.1-0.1-0.1-0.1-0.1c-0.1,0-0.1,0-0.1,0.1
						C100.8,84.8,100.8,84.8,100.9,84.8z"/>
					<path class="st5" d="M99.2,85.5c0.1,0,0.1,0,0.1-0.1c0-0.1-0.1-0.1-0.1-0.1c-0.1,0-0.1,0-0.1,0.1
						C99.1,85.4,99.1,85.5,99.2,85.5z"/>
					<path class="st5" d="M95.6,83.9c0,0.1,0,0.1,0.1,0.1c0.1,0,0.1-0.1,0.2-0.1c0-0.1,0-0.1-0.1-0.1C95.7,83.8,95.6,83.8,95.6,83.9
						z"/>
					<path class="st5" d="M97.9,83c0-0.1-0.1-0.1-0.1-0.1c-0.1,0-0.1,0.1-0.1,0.2c0,0.1,0.1,0.1,0.1,0.1
						C97.9,83.1,97.9,83.1,97.9,83z"/>
				</g>
				<g>
					<path class="st12" d="M142.8,127c-0.1-0.5-0.1-1-0.2-1.5c-0.1-0.1-0.2,0-0.3,0c-0.6,0-1.2,0-1.7-0.1c-0.4-0.1-0.7-0.3-0.9-0.7
						c-0.3-1.1-0.7-2.2-0.9-3.4c-0.2-0.8-0.4-1.5-0.5-2.3c0-0.2-0.1-0.3-0.1-0.5c0-0.9-0.1-1.8,0-2.8c0.1-1,0-2,0-2.9
						c0.1-1.2,0.1-2.3,0.4-3.5c0.3-0.9,0.7-1.6,1.5-2.2c0.5-0.3,1-0.4,1.6-0.2c0.3,0.1,0.7,0.1,1,0.2c0.1,0,0.1,0.1,0.2,0l0,0
						c-0.2-0.4-0.5-0.8-0.9-1.1c-0.4-0.4-0.9-0.7-1.3-1.1c-0.8-0.8-1.5-1.6-2.2-2.5c-0.1-0.1-0.1-0.1-0.2-0.1l0,0l0,0
						c-0.2,0-0.3,0-0.5,0.1c-1.5,0.7-2.9,1.5-4.4,2c-1.3,0.5-2.6,0.9-4,1c-0.5,0.1-0.9,0.1-1.4,0.1c-0.2,0-0.3,0.1-0.4,0.1l0,0
						c-0.4,0.2-0.7,0.4-1,0.6c-0.6,0.5-1.1,1-1.6,1.6c-0.7,0.7-1.2,1.6-1.7,2.4c-1.1,1.7-2.1,3.4-3,5.2c-1,2.1-2.1,4.2-3.2,6.3
						c-0.7,1.3-1.3,2.7-1.9,4.1c-0.4,1-0.7,2.1-0.9,3.1h28.8C143.1,128.4,142.9,127.7,142.8,127z"/>
					<path class="st13" d="M125.6,81.8c0.1,0,0.2,0,0.3,0c0.1,0,0.2,0,0.2,0.1c0.1,0.5,0.5,0.8,1,0.8c0.2,0,0.3,0,0.5-0.1
						c0.4-0.1,0.6,0,0.8,0.3c0.3,0.4,0.7,0.7,1.2,0.5c0.1,0,0.2,0,0.3,0.1c0.3,0.4,0.8,0.6,1.3,0.5c0.1,0,0.2,0,0.2,0.1
						c0,0.3,0.1,0.7,0.1,1c0,0.2,0,0.4-0.1,0.6c-0.1,0.3,0,0.6,0.1,0.8c0.1,0.4,0.5,0.5,0.8,0.2c0.2-0.2,0.4-0.5,0.6-0.8
						c0.5-0.6,1.2-1,2-0.9c0.1,0,0.2,0.1,0.3,0.1c0.3,0.3,0.6,0.6,0.7,1c0.1,0.4,0.1,0.8-0.1,1.2c-0.1,0.3-0.4,0.5-0.7,0.8
						c-0.3,0.3-0.8,0.3-1.2,0.2c-0.2,0-0.4,0.1-0.6,0.3c-0.2,0.4-0.2,0.8-0.1,1.3c0.1,0.6,0.2,1.2,0.2,1.8c0.1,0.8,0.4,1.5,0.7,2.2
						c0.4,0.8,1.1,1.4,1.5,2.2c0.1,0.1,0.2,0.2,0.2,0.4c0.1,0.3,0.4,0.5,0.6,0.7c0.2,0.2,0.4,0.1,0.6,0.1l0,0
						c0.2-0.1,0.3-0.3,0.3-0.5c0.1-0.4,0.1-0.7,0.2-1.1c0.2-0.4,0.3-0.8,0.4-1.2c0.1-0.5,0.4-1,0.8-1.4c0.9-0.9,1.7-1.8,2.6-2.6
						c0.3-0.2,0.6-0.5,0.9-0.8c0,0.2,0,0.3,0,0.4c0,0,0,0,0,0c-0.1-0.5,0.3-0.8,0.6-1c0.8-0.7,1.3-1.6,1.8-2.5
						c0.5-0.8,0.9-1.7,1-2.6c0.1-0.7,0.2-1.3,0.1-2c-0.1-0.6-0.2-1.3-0.3-1.9c0-0.1-0.1-0.2-0.1-0.3l0,0l0,0
						c-0.4-1.7-1.1-3.2-2.3-4.5c-0.7-0.7-1.5-1.4-2.2-2c0,0-0.1-0.1-0.1-0.1l0,0l0,0c-0.5-0.4-1.1-0.8-1.7-1c-0.7-0.3-1.3-0.6-2-0.8
						c-1.1-0.4-2.3-0.6-3.4-0.4c-1.4,0.3-2.7,0.9-3.8,1.8c-0.1,0.1-0.2,0.3-0.3,0.3c-0.1,0-0.2-0.2-0.4-0.3c0,0-0.1,0-0.1-0.1
						c-0.7-0.4-1.7-0.3-2.3,0.3c-0.7,0.6-1.3,1.4-1.6,2.3c-0.2,0.8-0.7,1.3-1.4,1.6c-0.2,0.1-0.5,0.2-0.7,0.3
						c-0.6,0.3-1.2,0.6-1.6,1.1c-0.4,0.5-0.6,1.1-0.8,1.7c-0.1,0.3,0.1,0.5,0.4,0.6c0.2,0,0.5,0.1,0.7,0.1c0.4,0.1,0.8,0,1.1-0.3
						c0.1-0.1,0.2-0.2,0.4-0.3c0.1-0.1,0.2-0.1,0.3-0.2c0.1-0.1,0.2-0.1,0.2,0.1c0,0.6,0.2,1,0.7,1.2l0,0
						C125,81.9,125.3,81.8,125.6,81.8z"/>
					<path class="st14" d="M128.1,105.6c0.5,0,0.9-0.1,1.4-0.1c1.4-0.1,2.7-0.5,4-1c1.5-0.6,3-1.4,4.4-2c0.2-0.1,0.3-0.1,0.5-0.1
						l0,0c-0.2-0.1-0.2-0.3-0.3-0.4c-0.4-0.7-0.7-1.5-0.9-2.3c-0.2-0.6-0.2-1.3-0.2-2l0,0c-0.2,0-0.4,0-0.6-0.1
						c-0.2-0.2-0.5-0.4-0.6-0.7c0-0.1-0.1-0.2-0.2-0.4c-0.5-0.8-1.1-1.4-1.5-2.2c-0.4-0.7-0.7-1.4-0.7-2.2c-0.1-0.6-0.1-1.2-0.2-1.8
						c-0.1-0.4-0.1-0.9,0.1-1.3c0.1-0.2,0.3-0.3,0.6-0.3c0.4,0.1,0.8,0.1,1.2-0.2c0.3-0.2,0.5-0.4,0.7-0.8c0.2-0.4,0.1-0.8,0.1-1.2
						c-0.1-0.4-0.4-0.7-0.7-1c-0.1-0.1-0.2-0.1-0.3-0.1c-0.8,0-1.5,0.3-2,0.9c-0.2,0.3-0.4,0.5-0.6,0.8c-0.3,0.3-0.7,0.2-0.8-0.2
						c-0.1-0.3-0.1-0.6-0.1-0.8c0.1-0.2,0.1-0.4,0.1-0.6c0-0.3-0.1-0.7-0.1-1c0-0.1-0.1-0.1-0.2-0.1c-0.5,0-0.9-0.1-1.3-0.5
						c-0.1-0.1-0.2-0.1-0.3-0.1c-0.5,0.1-0.9-0.1-1.2-0.5c-0.2-0.3-0.5-0.4-0.8-0.3c-0.2,0.1-0.3,0.1-0.5,0.1
						c-0.5-0.1-0.8-0.3-1-0.8c0-0.1-0.1-0.2-0.2-0.1c-0.1,0-0.2,0-0.3,0c-0.3,0-0.7,0.1-1,0l0,0c0,0,0,0.1,0,0.1
						c-0.2,0.7-0.7,1.2-1.3,1.7c-0.3,0.3-0.6,0.6-1,0.7c-0.7,0.2-1.4,0.5-2.2,0.5c-0.4,0-0.6,0.3-0.5,0.8c0.1,0.2,0.2,0.3,0.3,0.5
						c0.4,0.6,0.9,1.2,1.5,1.7c0.5,0.4,0.5,1,0.4,1.6c0.2-0.1,0.4-0.1,0.5,0.1c0.2,0.3,0.6,0.5,0.9,0.7c0.1,0,0.1,0,0.1,0.1
						c0,0.1-0.1,0.1-0.1,0.1c-0.3,0.1-0.6,0.2-0.8,0.4c-0.1,0-0.2,0.1-0.3,0.2c-0.1,0.1-0.2,0.1-0.3,0.1l0,0c0,0.4-0.1,0.7-0.1,1
						c-0.1,0.8-0.1,1.5,0.4,2.2c0.3,0.5,0.7,0.9,1.4,0.9c0.7,0.1,1.4,0.1,2.1,0.1c0.3,0,0.6,0,0.8,0.1c0.4,0.1,0.7,0.3,0.7,0.7
						c0.1,0.4,0.2,0.9,0.3,1.3c0.4,1.3,0.6,2.7,0.6,4c0,0.9,0,1.7,0,2.6c0,0.6-0.1,1.2-0.3,1.7l0,0
						C127.8,105.6,127.9,105.6,128.1,105.6z M125.8,83.8c-0.2,0-0.5-0.2-0.5-0.5c0-0.2,0.2-0.4,0.4-0.4c0.2,0,0.4,0.2,0.4,0.5
						C126.2,83.6,126,83.8,125.8,83.8z"/>
					<path class="st13" d="M144.7,74.7c0.4,0.7,0.9,1.5,1,2.3c0.2,1,0.3,1.9,0,2.9c0,0.1,0,0.2-0.1,0.2l0,0c0,0.1,0.1,0.2,0.1,0.3
						c0.1,0.6,0.2,1.3,0.3,1.9c0.1,0.7,0,1.3-0.1,2c-0.1,0.9-0.5,1.8-1,2.6c-0.5,0.9-1.1,1.7-1.8,2.5c-0.3,0.3-0.6,0.5-0.6,1
						c0,0,0,0,0,0c-0.3,0.8-0.3,1.9-0.2,2.9c0.2,1.8,1.2,3.8,3.1,5c1.3,0.8,2.6,1.1,4,0.7c2.2-0.5,3.7-1.9,4.3-4.2
						c0.1-0.4,0.2-0.7,0.2-1.1c0-0.2-0.1-0.4-0.3-0.4c-0.2-0.1-0.3,0-0.4,0.2c-0.1,0.1-0.1,0.1-0.2,0.2c-0.3,0.4-0.6,0.9-0.9,1.2
						c-0.1,0.1-0.3,0.2-0.5,0.3c-0.4,0.1-0.8,0.1-1.3,0.1c-1.1-0.1-1.7-0.7-1.5-1.8c0.2-0.8,0.8-1.7,1.2-2.6
						c0.6-1.4,1.3-2.8,1.9-4.3c0.9-2,1.3-4,1.4-6.2c0-0.8,0-1.6-0.1-2.4c-0.1-1-0.3-2-0.8-2.9c-0.5-0.9-1-1.6-1.7-2.3
						c-0.7-0.8-1.4-1.4-2.4-1.8c-0.8-0.3-1.7-0.5-2.6-0.4c-1.5,0.3-2.7,1-3.6,2.3c0.6,0.1,1.1,0.3,1.6,0.7
						C144.2,73.9,144.4,74.3,144.7,74.7z"/>
					<path class="st15" d="M142.5,107.1c-0.3-0.2-0.7-0.1-1-0.2c-0.6-0.2-1.1-0.1-1.6,0.2c-0.8,0.5-1.2,1.3-1.5,2.2
						c-0.3,1.1-0.4,2.3-0.4,3.5c0,1,0,2,0,2.9c-0.1,0.9,0,1.8,0,2.8c0,0.2,0,0.3,0.1,0.5c0.1,0.8,0.3,1.5,0.5,2.3
						c0.3,1.1,0.6,2.2,0.9,3.4c0.1,0.4,0.4,0.7,0.9,0.7c0.6,0.1,1.2,0.1,1.7,0.1c0.1,0,0.2,0,0.3,0c0.2-0.1,0.4-0.1,0.6-0.1
						c0.9-0.1,1.8-0.2,2.7-0.3c0.4,0,0.9-0.1,1.3-0.1c0.8,0,1.6-0.1,2.4-0.1c0.2,0,0.4,0,0.7,0c0.2,0,0.4-0.1,0.5-0.3l0,0
						c0.1-0.2,0.1-0.4,0.1-0.5c0-0.2,0-0.4,0-0.7c0-1.1-0.2-2.1-0.5-3.1c-0.5-1.5-1.1-3-1.7-4.5c-0.5-1.4-1.3-2.6-1.9-3.9
						c-0.1-0.2-0.2-0.3-0.3-0.5c-0.6-0.9-1.3-1.7-1.8-2.6c-0.3-0.5-0.7-0.9-1.1-1.3c-0.2-0.2-0.4-0.3-0.6-0.5l0,0
						C142.6,107.2,142.5,107.1,142.5,107.1z"/>
					<path class="st12" d="M142.8,107.1c-0.3-0.2-0.7-0.1-1-0.2c-0.6-0.2-1.1-0.1-1.6,0.2c-0.8,0.5-1.2,1.3-1.5,2.2
						c-0.3,1.1-0.4,2.3-0.4,3.5c0,1,0,2,0,2.9c-0.1,0.9,0,1.8,0,2.8c0,0.2,0,0.3,0.1,0.5c0.1,0.8,0.3,1.5,0.5,2.3
						c0.3,1.1,0.6,2.2,0.9,3.4c0.1,0.4,0.4,0.7,0.9,0.7c0.6,0.1,1.2,0.1,1.7,0.1c0.1,0,0.2,0,0.3,0c0.2-0.1,0.4-0.1,0.6-0.1
						c0.9-0.1,1.8-0.2,2.7-0.3c0.4,0,0.9-0.1,1.3-0.1c0.8,0,1.6-0.1,2.4-0.1c0.2,0,0.4,0,0.7,0c0.2,0,0.4-0.1,0.5-0.3l0,0
						c0.1-0.2,0.1-0.4,0.1-0.5c0-0.2,0-0.4,0-0.7c0-1.1-0.2-2.1-0.5-3.1c-0.5-1.5-1.1-3-1.7-4.5c-0.5-1.4-1.3-2.6-1.9-3.9
						c-0.1-0.2-0.2-0.3-0.3-0.5c-0.6-0.9-1.3-1.7-1.8-2.6c-0.3-0.5-0.7-0.9-1.1-1.3c-0.2-0.2-0.4-0.3-0.6-0.5l0,0
						C142.9,107.2,142.9,107.1,142.8,107.1z"/>
					<path class="st14" d="M149.7,124.9c-0.8,0-1.6,0.1-2.4,0.1c-0.4,0-0.9,0-1.3,0.1c-0.9,0.1-1.8,0.2-2.7,0.3
						c-0.2,0-0.4,0-0.6,0.1c0.1,0.5,0.1,1,0.2,1.5c0.1,0.7,0.2,1.4,0.4,2.1h8.6c0-0.1,0-0.2,0-0.3c-0.1-0.6-0.2-1.2-0.4-1.8
						c-0.2-0.8-0.3-1.6-0.5-2.4l0,0c-0.2,0.1-0.3,0.2-0.5,0.3C150.1,124.9,149.9,124.9,149.7,124.9z"/>
					<linearGradient id="SVGID_1_" gradientUnits="userSpaceOnUse" x1="140.9649" y1="76.4843" x2="145.8737" y2="76.4843">
						<stop  offset="9.021880e-02" style="stop-color:#DF1E32"/>
						<stop  offset="0.1099" style="stop-color:#E33B2E"/>
						<stop  offset="0.1326" style="stop-color:#E6562B"/>
						<stop  offset="0.1558" style="stop-color:#E86928"/>
						<stop  offset="0.1796" style="stop-color:#EA7426"/>
						<stop  offset="0.205" style="stop-color:#EA7826"/>
						<stop  offset="0.331" style="stop-color:#EAE318"/>
						<stop  offset="0.496" style="stop-color:#059748"/>
						<stop  offset="0.6717" style="stop-color:#225EA6"/>
						<stop  offset="0.836" style="stop-color:#66358D"/>
						<stop  offset="0.9585" style="stop-color:#B7358F"/>
					</linearGradient>
					<path class="st16" d="M141.1,73.6c0.8,0.6,1.5,1.3,2.2,2c1.2,1.3,1.9,2.8,2.3,4.5l0,0c0.1,0,0.1-0.1,0.1-0.2
						c0.3-1,0.2-1.9,0-2.9c-0.2-0.8-0.6-1.6-1-2.3c-0.2-0.4-0.5-0.8-0.8-1.1c-0.5-0.4-1-0.6-1.6-0.7c-0.1,0-0.3,0-0.4,0
						C141.4,73,141.1,73.1,141.1,73.6L141.1,73.6C141,73.5,141,73.6,141.1,73.6z"/>
					<path class="st9" d="M122,90.8c0.1-0.1,0.2-0.1,0.3-0.2c0.3-0.1,0.6-0.2,0.8-0.4c0.1,0,0.1,0,0.1-0.1c0-0.1-0.1-0.1-0.1-0.1
						c-0.3-0.2-0.7-0.4-0.9-0.7c-0.1-0.2-0.3-0.2-0.5-0.1c-0.2,0.1-0.2,0.3-0.2,0.5c0.1,0.2,0,0.3-0.1,0.4c-0.2,0.3-0.2,0.6,0.2,0.7
						l0,0C121.8,91,121.9,90.9,122,90.8z"/>
				</g>
				<g>
					<polygon class="st17" points="186.2,99.9 186.2,99.9 186.2,99.9 					"/>
					<path class="st18" d="M185.1,111.7c0.1-0.2,0.2-0.5,0.2-0.7c0-0.1,0.9-10.8,0.9-11c0,0,0,0,0,0c0-0.7,0.1-1.4,0-2.2
						c-0.1-0.7,0-1.3-0.2-2c0-0.2-0.1-0.2-0.2-0.1c-1,0.4-2.1,0.7-3.2,0.7c-1,0-1.7-0.4-2.3-1.2c-0.2-0.2-0.3-0.5-0.3-0.8
						c-0.1-0.6-0.1-1.1,0.1-1.7l0,0c0,0,0,0,0,0c-0.4-0.3-0.4-0.6,0-0.9c0.1-0.1,0.2-0.2,0.1-0.3c-0.2-0.2,0-0.5,0.3-0.7
						c0-0.4,0.1-0.8,0-1.2c0-0.2,0-0.3-0.2-0.3c-0.1-0.1-0.2-0.1-0.3-0.2c-0.1,0-0.1,0-0.1,0c0,0.6-0.2,1.2-0.4,1.8
						c-0.3,0.9-0.8,1.7-1,2.6c-0.5,1.8-0.6,2.5-0.8,3.8c0,0.3-0.1,1-0.1,1.2c0,0.2,0,1,0,1c0,0.4-0.8,11.2-0.6,11.7
						c0.1,0.2,0.2,0.4,0.5,0.5c0.3,0.1,0.7,0.8,1,0.8c0.7,0,1.4-0.6,2.1-0.6c1,0.1,2,0.1,3,0.1c0.5,0,1.1-0.2,1.6-0.2h0
						C185,111.8,185.1,111.8,185.1,111.7z"/>
					<path class="st19" d="M200.1,128.2c-0.3-0.8-0.6-1.7-0.9-2.5c-0.4-1.2-0.8-2.4-1.4-3.6c-0.5-1.1-1.1-2.2-1.5-3.3
						c-0.3-0.8-0.6-1.7-0.9-2.5c-0.3-1-0.8-1.9-1.1-2.9c-0.4-1.1-0.8-2.3-0.9-3.5c-0.1-1,0-2,0.3-2.9c0.3-0.8,0.7-1.6,1.3-2.3
						c0.5-0.5,1.1-0.8,1.9-0.9c1.1-0.1,1.9,0.4,2.7,1c0.6,0.5,0.9,1.1,1.3,1.7c0.4,0.6,0.7,1.3,1,1.9c0.6,1.1,1.2,2.1,1.7,3.3
						c0.3,0.9,0.6,1.7,0.8,2.6c0.4,1.2,0.8,2.5,1.2,3.7c0.4,1.3,0.8,2.7,1.3,4c0.1,0.2,0.1,0.3,0.2,0.5c0.1,0,0-0.1,0-0.1
						c0,0,0,0.1,0,0.1c0,0,0-0.1,0-0.1c0-0.1,0-0.1,0-0.2c-0.3-1.6-0.4-3.2-0.7-4.8c-0.2-1.2-0.4-2.5-0.8-3.7c-0.3-1-0.8-2-1.2-3
						c-0.6-1.4-1.2-2.7-1.9-4.1c-0.6-1-1.1-1.9-1.9-2.7c-0.5-0.5-0.9-1-1.4-1.6c0,0-0.1-0.1-0.1-0.2c-0.5,0.1-1,0.2-1.5,0.4
						c-0.9,0.3-1.3,0.2-1.8-0.6c-0.6-0.9-1.3-1.8-2-2.6c-0.1-0.1-0.2-0.2-0.3-0.3l0,0c-0.5,0.2-1,0.3-1.5,0.4
						c-1.5,0.4-3.1,0.5-4.6,0.7c-0.4,0.1-0.8,0.1-1.2,0.2c0-0.1,0-0.2,0-0.3c0,0,0,0,0,0c0,0.2-0.1,0.4-0.3,0.5
						c-0.1,0.1-0.2,0.2-0.2,0.4c0,0.2-0.1,0.5-0.2,0.7c0,0.1-0.1,0.2-0.2,0.2l0,0c0.1,0,0.1,0.1,0.1,0.2c-0.2,0.6-0.4,1.3-0.7,1.9
						c-0.5,0.9-1.1,1.8-1.7,2.7c-0.6,1-1.3,1.8-2.1,2.6c-0.3,0.3-0.6,0.6-0.9,0.9c-0.1,0.2-0.2,0.3-0.3,0.4
						c-0.6,0.7-1.2,1.5-1.5,2.4c-0.5,1.3-0.5,2.6-0.3,3.9c0.2,0.9,0.5,1.7,0.8,2.6c0.3,0.9,0.4,1.8,0.3,2.7
						c-0.1,1.2-0.4,2.4-0.9,3.5c-0.2,0.4-0.3,0.8-0.4,1.2c-0.2,0.6-0.3,1.2-0.6,1.8c-0.1,0.2-0.2,0.5-0.3,0.7h23.6
						C200.4,128.8,200.3,128.5,200.1,128.2z"/>
					<path class="st13" d="M207.2,122.4c-0.1-0.2-0.1-0.4-0.2-0.5c-0.4-1.3-0.8-2.7-1.3-4c-0.4-1.2-0.8-2.5-1.2-3.7
						c-0.2-0.9-0.5-1.8-0.8-2.6c-0.4-1.2-1-2.2-1.7-3.3c-0.4-0.6-0.7-1.3-1-1.9c-0.4-0.6-0.7-1.3-1.3-1.7c-0.8-0.6-1.6-1.2-2.7-1
						c-0.8,0.1-1.4,0.4-1.9,0.9c-0.6,0.7-1,1.5-1.3,2.3c-0.3,1-0.4,1.9-0.3,2.9c0.1,1.2,0.5,2.4,0.9,3.5c0.4,1,0.8,1.9,1.1,2.9
						c0.3,0.9,0.6,1.7,0.9,2.5c0.4,1.1,1,2.2,1.5,3.3c0.5,1.2,1,2.4,1.4,3.6c0.3,0.9,0.5,1.7,0.9,2.5c0.1,0.3,0.3,0.6,0.4,1h8
						c-0.2-1.5-0.5-3-0.8-4.5C207.6,123.8,207.4,123.1,207.2,122.4c0.1-0.1,0-0.1,0-0.1C207.2,122.3,207.2,122.4,207.2,122.4z"/>
					<path class="st13" d="M179.7,89.1c0.1,0.1,0.2,0.1,0.3,0.2c0.2,0.1,0.2,0.2,0.2,0.3c0,0.4,0,0.8,0,1.2c0.3,0.1,0.5,0.3,0.6,0.5
						c0.3,0.3,0.6,0.4,0.9,0.5c-0.2,0.2-0.4,0.2-0.6,0.3c-0.3,0.1-0.6,0.3-0.9,0.4c-0.1,0.1-0.3,0-0.5,0.1c-0.1,0.6-0.2,1.1-0.1,1.7
						c0.1,0.3,0.1,0.6,0.3,0.8c0.6,0.7,1.3,1.1,2.3,1.2c1.1,0,2.2-0.3,3.2-0.7c0.2-0.1,0.2,0,0.2,0.1c0.2,0.6,0.2,1.3,0.2,2
						c0.1,0.7,0,1.4,0,2.2c0,0,0,0,0,0c0,0.1,0,0.2,0,0.3c0.4-0.1,0.8-0.2,1.2-0.2c1.5-0.2,3.1-0.4,4.6-0.7c0.5-0.1,1-0.2,1.5-0.4
						l0,0c-0.3-0.5-0.6-1.1-0.8-1.7c-0.4-1.2-0.7-2.4-0.6-3.6c0.1-1.1,0.3-2.1,0.6-3.1c0.1-0.3,0.3-0.5,0.6-0.7
						c0.3-0.1,0.6-0.2,1-0.3c0.4-0.1,0.7-0.4,0.8-0.7c0.2-0.4,0.2-0.7,0.1-1.1c-0.1-0.8-0.9-1.2-1.6-1c-0.6,0.2-1.1,0.5-1.5,1
						c-0.2,0.3-0.5,0.3-0.8,0c-0.2-0.2-0.3-0.3-0.4-0.5c-0.2-0.3-0.3-0.5-0.5-0.8c-0.9-0.9-1.7-1.8-2.5-2.7
						c-1.1-1.2-2.1-2.5-2.8-3.9c-0.5-0.9-0.7-1.9-1.3-2.8c-0.2,0.2-0.3,0.5-0.5,0.7c-0.2,0.4-0.5,0.8-0.6,1.3
						c-0.2,0.9-0.5,1.7-0.7,2.6c-0.3,1.2-0.8,2.4-1.5,3.4c-0.2,0.3-0.4,0.6-0.8,0.8l0,0c0,0.1-0.1,0.2-0.2,0.2
						c-0.5,0.4-1,0.8-1.6,1.2c-0.3,0.2-0.3,0.6-0.1,0.8c0.3,0.3,0.6,0.5,1,0.7c0.2,0.1,0.3,0.1,0.5,0.2c0.1,0.1,0.3,0.1,0.3,0.3l0,0
						C179.6,89,179.7,89,179.7,89.1z M183.3,83.7c0.3,0,0.5,0.2,0.5,0.4c0,0.2-0.2,0.5-0.5,0.5c-0.3,0-0.5-0.2-0.5-0.5
						C182.8,83.9,183,83.7,183.3,83.7z"/>
					<polygon class="st20" points="189.1,85.1 180.3,85.1 181.1,82.7 186.9,82.7 					"/>
					<path class="st18" d="M180.4,84.9c0.7-1.1,1.2-2.2,1.5-3.4c0.2-0.9,0.5-1.7,0.7-2.6c0.1-0.5,0.4-0.9,0.6-1.3
						c0.2-0.3,0.3-0.5,0.5-0.7c0.5,0.9,0.8,1.9,1.3,2.8c0.7,1.4,1.7,2.7,2.8,3.9c0.8,0.9,1.6,1.8,2.5,2.7c0.2,0.2,0.4,0.5,0.5,0.8
						c0.1,0.2,0.2,0.4,0.4,0.5c0.3,0.3,0.6,0.2,0.8,0c0.4-0.5,0.9-0.8,1.5-1c0.8-0.3,1.5,0.2,1.6,1c0.1,0.4,0,0.8-0.1,1.1
						c-0.2,0.4-0.4,0.6-0.8,0.7c-0.3,0.1-0.6,0.2-1,0.3c-0.3,0.1-0.5,0.3-0.6,0.7c-0.3,1-0.5,2.1-0.6,3.1c-0.1,1.3,0.2,2.5,0.6,3.6
						c0.2,0.6,0.9,2,1,2.2c0.4,1.1,5.3,15.6,5.9,16.6c0.5,0.8,0.8,0.9,1.8,0.6c0.5-0.1,1-0.3,1.5-0.4c0.6-0.1,1.3-0.2,1.9-0.3
						c1.5-0.3,3.1-0.5,4.6-0.7c0.5-0.1,1.1-0.2,1.6-0.3c0.6-0.1,0.8-0.4,0.9-1c0-0.1-3.4-14.5-3.4-14.5l-0.7-2.9c0,0-1.7-8-2.5-12
						c-0.5-2.6-1.7-4.9-3.6-7c-0.7-0.7-1.4-1.4-2.2-2c-0.5-0.3-1-0.7-1.5-1c-0.7-0.6-1.5-1-2.3-1.4c-1.3-0.6-2.6-0.9-4-1.1
						c-0.3,0-0.7,0-1,0c-0.1,0-0.2,0-0.3,0c-1.2,0-2.4,0.2-3.5,0.7c-1.1,0.4-2,0.9-2.8,1.8c-0.4,0.5-0.8,0.9-1.2,1.4
						c-2.1,2.5-3.2,5.4-3.2,8.7c0,0.4,0,0.8,0,1.2C180,85.5,180.2,85.2,180.4,84.9z"/>
					<path class="st9" d="M180.4,92.6c0.3-0.2,0.6-0.3,0.9-0.4c0.2-0.1,0.4-0.1,0.6-0.3c-0.4-0.1-0.7-0.3-0.9-0.5
						c-0.2-0.2-0.4-0.4-0.6-0.5c-0.3,0.2-0.5,0.4-0.3,0.7c0.1,0.2,0.1,0.2-0.1,0.3c-0.4,0.3-0.4,0.6,0,0.9c0,0,0,0,0,0l0,0
						C180,92.6,180.2,92.7,180.4,92.6z"/>
					<path class="st21" d="M183.2,84.3c0.3,0,0.5-0.2,0.5-0.5c0-0.2-0.2-0.4-0.5-0.4c-0.3,0-0.5,0.2-0.5,0.4
						C182.8,84.1,183,84.3,183.2,84.3z"/>
				</g>
				<g>
					<g>
						<path class="st17" d="M171.6,91.1c-0.8,0.6-1.4,1.5-1.7,2.4c0,0.1,0,0.2-0.1,0.2c0.9-0.2,1.6-0.7,2-1.6
							c0.2-0.5,0.3-0.9,0.2-1.4C171.9,90.9,171.7,91,171.6,91.1z"/>
						<path class="st14" d="M169.3,128.7c0-0.5,0-0.9,0-1.4c0-0.3,0-0.6-0.1-0.9c0-0.1,0-0.1,0-0.2c0.2-0.7,0.2-1.4,0.2-2.1
							c0-1.9,0-3.7,0-5.6c0-1.2-0.1-2.4-0.1-3.6c0-1.5,0.2-2.9,0.6-4.3c0.3-1.1,0.8-2.2,1.6-3c0.4-0.5,0.9-0.6,1.5-0.7
							c0.1,0,0.1,0,0.2,0c0.6-0.2,1.2,0,1.6,0.4c0.8,0.8,1.6,1.7,2.1,2.8c0.1,0.1,0.2,0.3,0.2,0.4h0l0,0c0.1,0,0-0.1,0.1-0.2l0,0
							l0,0c-0.2-0.7-0.4-1.3-0.7-1.9c-0.3-0.6-0.7-1.1-0.9-1.7c-0.5-1-1.3-1.8-2.1-2.5c-0.5-0.4-0.9-0.9-1.3-1.3
							c-0.5-0.6-0.9-1.3-1.3-1.9c-0.6-1.1-1-2.2-0.8-3.5c0.1-0.4,0-0.7-0.6-0.7c-0.2,0-0.2-0.1-0.2-0.2c0,0.1-0.1,0.2-0.2,0.1
							c-0.1,0-0.2,0-0.2,0c-0.7,0-1.3,0-2,0c-0.7,0-1.4,0.1-2.1,0.2c-0.8,0.1-1.6,0.2-2.4,0.4c-0.1,0-0.1,0-0.2,0l0,0l0,0
							c-0.4,0.2-0.8,0.5-0.9,1c0,0.2-0.1,0.4-0.2,0.6c-0.4,1.3-1,2.4-1.7,3.5c-0.4,0.7-0.9,1.3-1.3,1.9c-0.4,0.6-0.8,1.3-1.3,1.8
							c-1.3,1.3-2.6,2.7-3.7,4.2c-1.1,1.5-1.6,3.1-1.8,4.9c-0.1,1.2,0.1,2.3,0.6,3.4c0.2,0.4,0.4,0.7,0.5,1.1c0.1,0.7,0,1.4-0.1,2.1
							c-0.1,0.7-0.2,1.3-0.3,2c-0.1,0.7-0.2,1.4-0.3,2.1c-0.1,0.9-0.3,1.7-0.4,2.6c0,0.2,0.1,0.5,0.2,0.6h17.6
							C169.3,129,169.3,128.9,169.3,128.7z"/>
						<path class="st22" d="M177.3,110.4L177.3,110.4c-0.1-0.1-0.2-0.3-0.2-0.4c-0.5-1.1-1.3-1.9-2.1-2.8c-0.5-0.5-1-0.6-1.6-0.4
							c-0.1,0-0.1,0-0.2,0c-0.6,0.1-1.1,0.3-1.5,0.7c-0.8,0.9-1.3,1.9-1.6,3c-0.4,1.4-0.5,2.9-0.6,4.3c0,1.2,0.1,2.4,0.1,3.6
							c0,1.9,0,3.7,0,5.6c0,0.7,0,1.4-0.2,2.1c0,0.1,0,0.1,0,0.2c0,0.3,0.1,0.6,0.1,0.9c0,0.5,0,0.9,0,1.4c0,0.1,0,0.3,0,0.4H182
							c0.1-0.6,0-1.2-0.1-1.8c-0.1-0.4-0.2-0.9-0.2-1.3c0-1-0.1-2-0.3-3c-0.6-3-1.3-6-2.3-8.8c-0.4-1.2-1-2.4-1.6-3.6
							c0,0-0.1,0.1-0.1,0.1C177.3,110.6,177.3,110.5,177.3,110.4z"/>
						<path class="st22" d="M162.5,97.1c0.8-0.2,1.6-0.3,2.4-0.4c0.7-0.1,1.4-0.2,2.1-0.2c0.7,0,1.3,0,2,0c0.1,0,0.2,0,0.2,0
							c0.2,0.1,0.2,0,0.2-0.1c0-0.6,0-1.1,0.1-1.7l0,0c0-0.1-0.1-0.1-0.2-0.1c-0.7-0.1-1.4-0.2-2-0.6c-0.8-0.5-1.3-1.3-1.3-2.2
							c0-0.6,0-1.2,0.3-1.7c0.5-1.1,1.3-2,2.6-2.2c0.1,0,0.3,0,0.4,0c0.2,0,0.3,0.1,0.3,0.3c0,0.2-0.1,0.3-0.3,0.3
							c-0.5,0-1,0.2-1.4,0.6c-0.7,0.6-1.1,1.3-1.1,2.3c0,0.5,0,1,0.3,1.4c0.4,0.6,1.1,0.9,1.8,1.1c-0.1-0.3-0.1-0.5-0.1-0.8
							c0-0.1,0-0.3-0.1-0.4c-0.1-0.2,0-0.4,0-0.6c0.1-0.7,0.2-1.5,0.5-2.2c0.2-0.4,0.4-0.7,0.8-0.9c0.1-0.1,0.2-0.1,0.3-0.2l0,0l0,0
							c0,0,0-0.1,0-0.1c0.3-0.2,0.5-0.4,0.8-0.5l0,0l0,0c0.1-0.1,0.1-0.2,0.2-0.3c0.4-0.7,0.8-1.3,1-2.1c0.1-0.6,0-1.3-0.5-1.8
							c-0.2-0.2-0.3-0.3-0.5-0.5c-0.6-0.4-1.5-0.2-1.9,0.4c-0.2,0.3-0.2,0.6-0.2,0.9c-0.1,0.4-0.1,0.8-0.2,1.2
							c0,0.1-0.1,0.2-0.2,0.4c0,0.1-0.1,0.1-0.2,0.1c-0.1,0-0.2-0.1-0.2-0.2c0-0.2-0.1-0.4-0.1-0.6c0-0.6-0.1-1.2-0.3-1.8
							c-0.1-0.6-0.3-1.1-0.7-1.5c-0.6-0.8-1-1.8-1.6-2.6c-0.2-0.4-0.6-0.6-1.1-0.7c-0.6-0.2-1.3-0.3-1.8-0.7
							c-0.2-0.2-0.6-0.2-0.9-0.2c-0.6,0.1-1.1,0.3-1.7,0.4c-0.2,0-0.3,0.1-0.5,0.3c-0.1,0.2-0.3,0.3-0.5,0.3
							c-0.4,0.1-0.8,0.2-1.2,0.5c0,0-0.1,0-0.1,0l0,0c-0.1,0.8-0.2,1.7-0.3,2.5c-0.1,0.8-0.3,1.5-0.9,2.1c-0.5,0.5-1,0.9-1.7,1
							c-0.1,0-0.3,0.1-0.4,0.1c-0.3,0.1-0.5,0.3-0.6,0.7c0,0.3,0.2,0.6,0.4,0.7c0.2,0.2,0.5,0.3,0.7,0.4c0.2,0.1,0.4,0.3,0.4,0.5
							c0.2,0.5,0.3,1,0.4,1.5c0.1,0,0.2,0,0.3,0.1c0.5,0.3,1,0.5,1.5,0.5c0,0,0.1,0,0.2,0.1c-0.6,0.4-1.1,0.9-1.6,1.2
							c-0.2,0.1-0.4,0.1-0.5,0l0,0c0,0.5,0,1-0.1,1.5c-0.2,1,0.4,1.8,1,2.5c0.1,0.1,0.1,0.1,0.2,0.2c0.9,0.6,1.9,0.7,2.9,0.4
							c0.7-0.2,1.3-0.4,1.9-0.7c0.1,0,0.2,0,0.2,0.1c0,0.2,0,0.4,0,0.6c0,0.5,0,1.1-0.1,1.6l0,0C162.4,97.1,162.5,97.1,162.5,97.1z
							 M160.2,83.5c-0.2,0-0.4-0.2-0.4-0.5c0-0.2,0.2-0.4,0.4-0.4c0.2,0,0.4,0.2,0.4,0.4C160.6,83.3,160.4,83.5,160.2,83.5z"/>
						<path class="st20" d="M159.5,79.1c0.2-0.1,0.4-0.1,0.5-0.3c0.1-0.2,0.3-0.3,0.5-0.3c0.6-0.1,1.1-0.4,1.7-0.4
							c0.3,0,0.6,0,0.9,0.2c0.5,0.4,1.2,0.6,1.8,0.7c0.4,0.1,0.8,0.4,1.1,0.7c0.6,0.8,1,1.8,1.6,2.6c0.3,0.5,0.6,1,0.7,1.5
							c0.1,0.6,0.2,1.2,0.3,1.8c0,0.2,0.1,0.4,0.1,0.6c0,0.1,0.1,0.2,0.2,0.2c0.1,0,0.2,0,0.2-0.1c0.1-0.1,0.1-0.2,0.2-0.4
							c0.1-0.4,0.2-0.8,0.2-1.2c0-0.3,0-0.6,0.2-0.9c0.4-0.6,1.3-0.8,1.9-0.4c0.2,0.1,0.3,0.3,0.5,0.5c0.5,0.5,0.6,1.1,0.5,1.8
							c-0.1,0.8-0.6,1.4-1,2.1c-0.1,0.1-0.1,0.2-0.2,0.3l0,0c0,0,0.1,0.1,0.1,0.1c0.7,0.3,0.9,1,1.2,1.6c0,0.1,0,0.1,0.1,0.2
							c0.3-0.3,0.6-0.7,0.9-1c0.2-0.3,0.5-0.5,0.6-0.9c0.6-1.1,1-2.3,1.3-3.5c0.2-0.9,0.2-1.7-0.1-2.6c-0.3-0.8-0.4-1.6-0.4-2.5
							c0-0.6,0-1.1-0.2-1.6c-0.3-1.2-1-2.1-2-2.8c-0.1-0.1-0.2-0.1-0.3-0.2c-1-1.2-2.3-1.8-3.7-2.3c-0.1,0-0.2-0.1-0.2-0.1
							c-0.9-0.7-2-1.1-3.1-1.3c-0.8-0.1-1.6-0.2-2.2-0.6c-0.2-0.2-0.5-0.3-0.8-0.5c-1-0.6-2.1-0.7-3.1,0c-0.4,0.3-0.8,0.4-1.3,0.6
							c-0.8,0.2-1.5,0.5-2,1.1c-0.1,0.1-0.2,0.2-0.3,0.2c-1.2,0.4-2,1.3-2.5,2.4c-0.3,0.5-0.3,1.1,0.1,1.6c0.2,0.3,0.5,0.6,0.8,0.8
							c0.2,0.1,0.3,0.2,0.3,0.4c0.3,0.6,0.7,1.1,1.4,1.3c0.3,0.1,0.7,0.2,1,0.3c0.1,0,0.2,0.1,0.3,0.2c0.3,0.4,0.6,0.6,1.1,0.7l0,0
							c0,0,0.1,0,0.1,0C158.7,79.4,159.1,79.3,159.5,79.1z"/>
						<path class="st14" d="M172.6,89.8c-0.3-0.6-0.6-1.2-1.2-1.6c0,0-0.1-0.1-0.1-0.1l0,0c-0.3,0.1-0.6,0.3-0.8,0.5
							c0,0,0,0.1,0,0.1l0,0c0.3,0,0.6,0.2,0.8,0.4c0.5,0.4,0.7,1,0.8,1.6c0,0,0,0,0,0.1c0.1,0.5,0,1-0.2,1.4c-0.4,0.9-1.1,1.4-2,1.6
							c0,0-0.1,0-0.1,0.1c-0.3,0.1-0.5,0-0.8-0.1l0,0c-0.7-0.1-1.4-0.4-1.8-1.1c-0.3-0.4-0.3-0.9-0.3-1.4c0-0.9,0.5-1.7,1.1-2.3
							c0.4-0.4,0.9-0.5,1.4-0.6c0.2,0,0.3-0.2,0.3-0.3c0-0.2-0.1-0.3-0.3-0.3c-0.1,0-0.3,0-0.4,0c-1.3,0.3-2.1,1.1-2.6,2.2
							c-0.2,0.5-0.3,1.1-0.3,1.7c0,1,0.5,1.7,1.3,2.2c0.6,0.4,1.3,0.5,2,0.6c0.1,0,0.2,0,0.2,0.1l0,0c0-0.1,0.1-0.1,0.2-0.1
							c0.6,0,1.1-0.3,1.6-0.6c1.1-0.7,1.6-1.8,1.6-3.1c0-0.3-0.1-0.7-0.2-1l0,0C172.6,89.9,172.6,89.9,172.6,89.8z"/>
						<path class="st9" d="M156.8,91c0.6-0.4,1.1-0.8,1.6-1.2c-0.1,0-0.1-0.1-0.2-0.1c-0.6,0-1.1-0.2-1.5-0.5
							c-0.1-0.1-0.2-0.1-0.3-0.1c-0.3,0.3-0.4,0.6-0.1,0.8c0.1,0.1,0.1,0.2,0,0.3c-0.2,0.2-0.2,0.4,0,0.7l0,0
							C156.4,91.1,156.6,91.1,156.8,91z"/>
						<path class="st23" d="M177.3,110.4L177.3,110.4c0,0.1,0.1,0.2,0.1,0.3c0-0.1,0-0.2,0-0.2l0,0c0-0.1,0-0.2-0.1-0.2l0,0
							C177.3,110.3,177.3,110.4,177.3,110.4z"/>
						<path class="st24" d="M177.4,110.6C177.4,110.6,177.5,110.6,177.4,110.6c0.1-0.1,0.1-0.2,0-0.2h0
							C177.4,110.5,177.4,110.6,177.4,110.6z"/>
						<path class="st20" d="M169.7,93.8C169.7,93.8,169.8,93.8,169.7,93.8c0.1-0.1,0.2-0.2,0.2-0.3c0.3-1,0.8-1.8,1.7-2.4
							c0.1-0.1,0.3-0.2,0.4-0.4c0,0,0,0,0-0.1c-0.1-0.6-0.4-1.2-0.8-1.6c-0.2-0.2-0.5-0.4-0.8-0.4l0,0c-0.1,0.1-0.2,0.2-0.3,0.2
							c-0.4,0.2-0.6,0.5-0.8,0.9c-0.3,0.7-0.4,1.4-0.5,2.2c0,0.2-0.1,0.4,0,0.6c0.1,0.1,0.1,0.3,0.1,0.4c0,0.3-0.1,0.6,0.1,0.8l0,0
							C169.1,93.8,169.4,93.9,169.7,93.8z"/>
						<path class="st25" d="M160.2,82.7c-0.2,0-0.4,0.2-0.4,0.4c0,0.2,0.2,0.5,0.4,0.5c0.2,0,0.4-0.2,0.4-0.4
							C160.6,82.8,160.4,82.7,160.2,82.7z"/>
						<path class="st25" d="M161.8,83.2c0.1,0.2,0.3,0.4,0.4,0.5c0,0.1,0.1,0.1,0,0.2c0,0-0.1,0-0.1,0c-0.3-0.3-0.6-0.7-1.1-0.8
							c-0.4-0.1-0.9-0.2-1.3-0.1c-0.1,0-0.5,0.1-0.6,0c-0.2-0.2,1.1-0.5,1.3-0.5c0.4,0,0.8,0.3,1.1,0.6
							C161.6,83,161.7,83.1,161.8,83.2z"/>
					</g>
				</g>
				<g>
					<path class="st26" d="M87.6,127.2c-0.1-0.5-0.1-1-0.2-1.5c-0.1-0.1-0.2,0-0.3,0c-0.6,0-1.2,0-1.7-0.1c-0.4-0.1-0.7-0.3-0.9-0.7
						c-0.3-1.1-0.7-2.2-0.9-3.4c-0.2-0.8-0.4-1.5-0.5-2.3c0-0.2-0.1-0.3-0.1-0.5c0-0.9-0.1-1.8,0-2.8c0.1-1,0-2,0-2.9
						c0.1-1.2,0.1-2.3,0.4-3.5c0.3-0.9,0.7-1.6,1.5-2.2c0.5-0.3,1-0.4,1.6-0.2c0.3,0.1,0.7,0.1,1,0.2c0.1,0,0.1,0.1,0.2,0l0,0
						c-0.2-0.4-0.5-0.8-0.9-1.1c-0.4-0.4-0.9-0.7-1.3-1.1c-0.8-0.8-1.5-1.6-2.2-2.5c-0.1-0.1-0.1-0.1-0.2-0.1l0,0l0,0
						c-0.2,0-0.3,0-0.5,0.1c-1.5,0.7-2.9,1.5-4.4,2c-1.3,0.5-2.6,0.9-4,1c-0.5,0.1-0.9,0.1-1.4,0.1c-0.2,0-0.3,0.1-0.4,0.1l0,0
						c-0.4,0.2-0.7,0.4-1,0.6c-0.6,0.5-1.1,1-1.6,1.6c-0.7,0.7-1.2,1.6-1.7,2.4c-1.1,1.7-2.1,3.4-3,5.2c-1,2.1-2.1,4.2-3.2,6.3
						c-0.7,1.3-1.3,2.7-1.9,4.1c-0.4,1-0.7,2.1-0.9,3.1H88C87.9,128.5,87.7,127.8,87.6,127.2z"/>
					<path class="st27" d="M72.9,105.7c0.5,0,0.9-0.1,1.4-0.1c1.4-0.1,2.7-0.5,4-1c1.5-0.6,3-1.4,4.4-2c0.2-0.1,0.3-0.1,0.5-0.1l0,0
						c-0.2-0.1-0.2-0.3-0.3-0.4c-0.4-0.7-0.7-1.5-0.9-2.3c-0.2-0.6-0.2-1.3-0.2-2l0,0c-0.2,0-0.4,0-0.6-0.1
						c-0.2-0.2-0.5-0.4-0.6-0.7c0-0.1-0.1-0.2-0.2-0.4C80,95.6,79.4,95,79,94.2c-0.4-0.7-0.7-1.4-0.7-2.2c-0.1-0.6-0.1-1.2-0.2-1.8
						c-0.1-0.4-0.1-0.9,0.1-1.3c0.1-0.2,0.3-0.3,0.6-0.3c0.4,0.1,0.8,0.1,1.2-0.2c0.3-0.2,0.5-0.4,0.7-0.8c0.2-0.4,0.1-0.8,0.1-1.2
						c-0.1-0.4-0.4-0.7-0.7-1c-0.1-0.1-0.2-0.1-0.3-0.1c-0.8,0-1.5,0.3-2,0.9c-0.2,0.3-0.4,0.5-0.6,0.8c-0.3,0.3-0.7,0.2-0.8-0.2
						c-0.1-0.3-0.1-0.6-0.1-0.8c0.1-0.2,0.1-0.4,0.1-0.6c0-0.3-0.1-0.7-0.1-1c0-0.1-0.1-0.1-0.2-0.1c-0.5,0-0.9-0.1-1.3-0.5
						c-0.1-0.1-0.2-0.1-0.3-0.1c-0.5,0.1-0.9-0.1-1.2-0.5c-0.2-0.3-0.5-0.4-0.8-0.3c-0.2,0.1-0.3,0.1-0.5,0.1
						c-0.5-0.1-0.8-0.3-1-0.8c0-0.1-0.1-0.2-0.2-0.1c-0.1,0-0.2,0-0.3,0c-0.3,0-0.7,0.1-1,0v0c0,0,0,0.1,0,0.1
						c-0.2,0.7-0.5,1.3-1.1,1.8c-0.3,0.3-0.8,0.8-1.1,1c-0.5,0.4-0.8,1-1.7,1.3c-0.4,0.2-0.5,0.8-0.5,0.8c0.1,0.2,0.3,0.6,0.4,0.7
						l0.4,0.4c0.5,0.4,0.7,0.9,0.6,1.4c0.2-0.1,0.4-0.1,0.5,0.1c0.2,0.3,0.6,0.5,0.9,0.7c0.1,0,0.1,0,0.1,0.1c0,0.1-0.1,0.1-0.1,0.1
						c-0.3,0.1-0.6,0.2-0.8,0.4c-0.1,0-0.2,0.1-0.3,0.2c-0.1,0.1-0.2,0.1-0.3,0.1l0,0c0,0.4-0.1,0.7-0.1,1c-0.1,0.8-0.1,1.5,0.4,2.2
						c0.3,0.5,0.7,0.9,1.4,0.9c0.7,0.1,1.4,0.1,2.1,0.1c0.3,0,0.6,0,0.8,0.1c0.4,0.1,0.7,0.3,0.7,0.7c0.1,0.4,0.2,0.9,0.3,1.3
						c0.4,1.3,0.6,2.7,0.6,4c0,0.9,0,1.7,0,2.6c0,0.6-0.1,1.2-0.3,1.7l0,0C72.6,105.7,72.7,105.7,72.9,105.7z M70.6,83.9
						c-0.2,0-0.5-0.2-0.5-0.5c0-0.2,0.2-0.4,0.4-0.4c0.2,0,0.4,0.2,0.4,0.5C71,83.7,70.8,83.9,70.6,83.9z"/>
					<path class="st28" d="M87.3,107.2c-0.3-0.2-0.7-0.1-1-0.2c-0.6-0.2-1.1-0.1-1.6,0.2c-0.8,0.5-1.2,1.3-1.5,2.2
						c-0.3,1.1-0.4,2.3-0.4,3.5c0,1,0,2,0,2.9c-0.1,0.9,0,1.8,0,2.8c0,0.2,0,0.3,0.1,0.5c0.1,0.8,0.3,1.5,0.5,2.3
						c0.3,1.1,0.6,2.2,0.9,3.4c0.1,0.4,0.4,0.7,0.9,0.7c0.6,0.1,1.2,0.1,1.7,0.1c0.1,0,0.2,0,0.3,0c0.2-0.1,0.4-0.1,0.6-0.1
						c0.9-0.1,1.8-0.2,2.7-0.3c0.4,0,0.9-0.1,1.3-0.1c0.8,0,1.6-0.1,2.4-0.1c0.2,0,0.4,0,0.7,0c0.2,0,0.4-0.1,0.5-0.3v0
						c0.1-0.2,0.1-0.4,0.1-0.5c0-0.2,0-0.4,0-0.7c0-1.1-0.2-2.1-0.5-3.1c-0.5-1.5-1.1-3-1.7-4.5c-0.5-1.4-1.3-2.6-1.9-3.9
						c-0.1-0.2-0.2-0.3-0.3-0.5c-0.6-0.9-1.3-1.7-1.8-2.6c-0.3-0.5-0.7-0.9-1.1-1.3c-0.2-0.2-0.4-0.3-0.6-0.5l0,0
						C87.4,107.3,87.3,107.2,87.3,107.2z"/>
					<path class="st26" d="M87.6,107.2c-0.3-0.2-0.7-0.1-1-0.2c-0.6-0.2-1.1-0.1-1.6,0.2c-0.8,0.5-1.2,1.3-1.5,2.2
						c-0.3,1.1-0.4,2.3-0.4,3.5c0,1,0,2,0,2.9c-0.1,0.9,0,1.8,0,2.8c0,0.2,0,0.3,0.1,0.5c0.1,0.8,0.3,1.5,0.5,2.3
						c0.3,1.1,0.6,2.2,0.9,3.4c0.1,0.4,0.4,0.7,0.9,0.7c0.6,0.1,1.2,0.1,1.7,0.1c0.1,0,0.2,0,0.3,0c0.2-0.1,0.4-0.1,0.6-0.1
						c0.9-0.1,1.8-0.2,2.7-0.3c0.4,0,0.9-0.1,1.3-0.1c0.8,0,1.6-0.1,2.4-0.1c0.2,0,0.4,0,0.7,0c0.2,0,0.4-0.1,0.5-0.3v0
						c0.1-0.2,0.1-0.4,0.1-0.5c0-0.2,0-0.4,0-0.7c0-1.1-0.2-2.1-0.5-3.1c-0.5-1.5-1.1-3-1.7-4.5c-0.5-1.4-1.3-2.6-1.9-3.9
						c-0.1-0.2-0.2-0.3-0.3-0.5c-0.6-0.9-1.3-1.7-1.8-2.6c-0.3-0.5-0.7-0.9-1.1-1.3c-0.2-0.2-0.4-0.3-0.6-0.5l0,0
						C87.7,107.3,87.7,107.2,87.6,107.2z"/>
					<line class="st29" x1="71.8" y1="84.2" x2="77.2" y2="86.1"/>
					<path class="st1" d="M70.4,81.9c0.1,0,0.2,0,0.3,0c0.1,0,0.2,0,0.2,0.1c0.1,0.5,0.5,0.8,1,0.8c0.2,0,0.3,0,0.5-0.1
						c0.4-0.1,0.6,0,0.8,0.3c0.3,0.4,0.7,0.7,1.2,0.5c0.1,0,0.2,0,0.3,0.1c0.3,0.4,0.8,0.6,1.3,0.5c0.1,0,0.2,0,0.2,0.1
						c0,0.3,0.1,0.7,0.1,1c0,0.2,0,0.4-0.1,0.6c-0.1,0.3,0,0.6,0.1,0.8c0.1,0.4,0.5,0.5,0.8,0.2c0.2-0.2,0.4-0.5,0.6-0.8
						c0.5-0.6,1.2-1,2-0.9c0.1,0,0.2,0.1,0.3,0.1c0.3,0.3,0.6,0.6,0.7,1c0.1,0.4,0.1,0.8-0.1,1.2c-0.1,0.3-0.4,0.5-0.7,0.8
						c-0.3,0.3-0.8,0.3-1.2,0.2c-0.2,0-0.4,0.1-0.6,0.3c-0.2,0.4-0.2,0.8-0.1,1.3c0.1,0.6,0.2,1.2,0.2,1.8c0.1,0.8,0.4,1.5,0.7,2.2
						c0.4,0.8,1.1,1.4,1.5,2.2c0.1,0.1,0.2,0.2,0.2,0.4c0.1,0.3,0.4,0.5,0.6,0.7c0.2,0.2,0.4,0.1,0.6,0.1l0,0
						c0.2-0.1,0.3-0.3,0.3-0.5c0.1-0.4,0.1-0.7,0.2-1.1c0.2-0.4,0.3-0.8,0.4-1.2c0.1-0.5,0.4-1,0.8-1.4c0.9-0.9,1.7-1.8,2.6-2.6
						c0.3-0.2,0.6-0.5,0.9-0.8c0,0.2,0,0.3,0,0.4c0,0,0,0,0,0c-0.1-0.5,0.3-0.8,0.6-1c0.8-0.7,1.3-1.6,1.8-2.5
						c0.5-0.8,0.9-1.7,1-2.6c0.1-0.7,0.2-1.3,0.1-2c-0.1-0.6-0.2-1.3-0.3-1.9c0-0.1-0.1-0.2-0.1-0.3l0,0l0,0
						c-0.4-1.7-1.1-3.2-2.3-4.5c-0.7-0.7-1.5-1.4-2.2-2c0,0-0.1-0.1-0.1-0.1l0,0l0,0c-0.5-0.4-1.1-0.8-1.7-1c-0.7-0.3-1.3-0.6-2-0.8
						c-1.1-0.4-2.3-0.6-3.4-0.4c-1.4,0.3-2.7,0.9-3.8,1.8c-0.1,0.1-0.2,0.3-0.3,0.3c-0.1,0-0.2-0.2-0.4-0.3c0,0-0.1,0-0.1-0.1
						c-0.7-0.4-1.7-0.3-2.3,0.3c-0.7,0.6-1.3,1.4-1.6,2.3c-0.2,0.8-0.7,1.3-1.4,1.6c-0.2,0.1-0.5,0.2-0.7,0.3
						c-0.6,0.3-1.2,0.6-1.6,1.1c-0.4,0.5-0.6,1.1-0.8,1.7c-0.1,0.3,0.1,0.5,0.4,0.6c0.2,0,0.5,0.1,0.7,0.1c0.4,0.1,0.8,0,1.1-0.3
						c0.1-0.1,0.2-0.2,0.4-0.3c0.1-0.1,0.2-0.1,0.3-0.2c0.1-0.1,0.2-0.1,0.2,0.1c0,0.6,0.2,1,0.7,1.2v0C69.8,82,70.1,81.9,70.4,81.9
						z"/>
					<path class="st14" d="M94.5,125c-0.8,0-1.6,0.1-2.4,0.1c-0.4,0-0.9,0-1.3,0.1c-0.9,0.1-1.8,0.2-2.7,0.3c-0.2,0-0.4,0-0.6,0.1
						c0.1,0.5,0.1,1,0.2,1.5c0.1,0.7,0.2,1.4,0.4,2.1h8.6c0-0.1,0-0.2,0-0.3c-0.1-0.6-0.2-1.2-0.4-1.8c-0.2-0.8-0.3-1.6-0.5-2.4v0
						c-0.2,0.1-0.3,0.2-0.5,0.3C94.9,125,94.7,125,94.5,125z"/>
					<path class="st9" d="M66.8,91c0.1-0.1,0.2-0.1,0.3-0.2c0.3-0.1,0.6-0.2,0.8-0.4c0.1,0,0.1,0,0.1-0.1c0-0.1-0.1-0.1-0.1-0.1
						c-0.3-0.2-0.7-0.4-0.9-0.7c-0.1-0.2-0.3-0.2-0.5-0.1c-0.2,0.1-0.2,0.3-0.2,0.5c0.1,0.2,0,0.3-0.1,0.4c-0.2,0.3-0.2,0.6,0.2,0.7
						l0,0C66.6,91.1,66.7,91,66.8,91z"/>
					<path class="st30" d="M70.5,83c-0.2,0-0.4,0.2-0.4,0.4c0,0.2,0.2,0.5,0.5,0.5c0.2,0,0.4-0.2,0.4-0.4C71,83.3,70.8,83,70.5,83z"
						/>
				</g>
				<path class="st29" d="M71.9,83.7c0,0.8-0.7,1.5-1.5,1.5S69,84.5,69,83.7c0-0.8,0.7-1.5,1.5-1.5S71.9,82.9,71.9,83.7z"/>
				<line class="st29" x1="68.9" y1="82.7" x2="69.2" y2="82.9"/>
			</g>
			<path class="st1" d="M92.6,75.4c0,3.1-2.4,5.6-5.3,5.6c-2.9,0-5.3-2.5-5.3-5.6c0-3.1,2.4-5.6,5.3-5.6
				C90.2,69.9,92.6,72.4,92.6,75.4z"/>
			<path class="st2" d="M81.2,94.3c0,0,4-2.4,6-5.7c2-3.3,2.9-7.4,2.9-7.4s-2.5,7.4-5.2,9.5C82.2,92.8,81.2,94.3,81.2,94.3z"/>
			<path class="st2" d="M80.3,93.6c0,0,3.8-2.5,5.8-6c1.9-3.4,2.8-7.9,2.8-7.9s-2.4,7.8-5,10.1C81.3,92,80.3,93.6,80.3,93.6z"/>
			<path class="st2" d="M79.6,92.1c0,0,3.8-2.5,5.8-6c1.9-3.4,2.8-7.9,2.8-7.9s-2.4,7.8-5,10.1C80.6,90.5,79.6,92.1,79.6,92.1z"/>
			<path class="st31" d="M82.4,72c0.9,0.5,1.7,1,2.5,1.7c1.4,1.1,2.3,2.5,2.9,4.1l0,0c0.2,0,0.1-0.1,0.1-0.2c0.1-1-0.1-1.9-0.4-2.9
				c-0.3-0.8-0.8-1.5-1.3-2.2c-0.3-0.4-0.6-0.7-1-0.9c-0.5-0.3-1.1-0.5-1.7-0.5c-0.1,0-0.3,0.1-0.4,0.1c-0.4,0.1-0.7,0.3-0.8,0.7
				l0,0C82.3,72,82.3,72,82.4,72z"/>
			<path class="st2" d="M83.6,72.8c0,0,1-1.1,2.1-1.6c1.1-0.4,2.4-0.5,2.4-0.5s-2.4,0.3-3.2,1.1S83.6,72.8,83.6,72.8z"/>
			<path class="st2" d="M84.9,73.5c0,0,1-1.1,2.1-1.6c1.1-0.4,2.4-0.5,2.4-0.5s-2.4,0.3-3.2,1.1C85.4,73.2,84.9,73.5,84.9,73.5z"/>
			<path class="st10" d="M125.8,84c0.4,0,0.7-0.3,0.7-0.7c0-0.4-0.3-0.6-0.7-0.6c-0.4,0-0.6,0.3-0.6,0.6
				C125.1,83.7,125.4,84,125.8,84z"/>
			<path class="st25" d="M160.2,84c0.4,0,0.7-0.3,0.7-0.7c0-0.4-0.3-0.6-0.7-0.6c-0.4,0-0.6,0.3-0.6,0.6
				C159.6,83.7,159.9,84,160.2,84z"/>
			<path class="st10" d="M183.2,84.6c0.4,0,0.7-0.3,0.7-0.7c0-0.4-0.3-0.6-0.7-0.6c-0.4,0-0.6,0.3-0.6,0.6
				C182.6,84.3,182.9,84.6,183.2,84.6z"/>
		</g>
		<g>
			<path class="st0" d="M69.4,20.1h-5.1l-1,3.8h-3.9l5.8-18.5h3.4l5.8,18.5h-4L69.4,20.1z M65.2,17h3.5l-1.7-6.6L65.2,17z"/>
			<path class="st0" d="M79.9,17.4v6.5h-3.7V5.4h6.3c1.8,0,3.3,0.6,4.4,1.7c1.1,1.1,1.6,2.6,1.6,4.4s-0.5,3.2-1.6,4.3
				s-2.6,1.6-4.5,1.6H79.9z M79.9,14.3h2.6c0.7,0,1.3-0.2,1.7-0.7s0.6-1.1,0.6-2c0-0.9-0.2-1.7-0.6-2.2s-0.9-0.8-1.6-0.8h-2.6V14.3z
				"/>
			<path class="st0" d="M103.9,16.3c0,2.5-0.6,4.4-1.8,5.8c-1.2,1.4-2.8,2.1-4.9,2.1c-2.1,0-3.7-0.7-4.9-2s-1.8-3.3-1.8-5.7v-3.2
				c0-2.5,0.6-4.5,1.8-5.9s2.8-2.1,4.9-2.1c2.1,0,3.7,0.7,4.9,2.1s1.8,3.4,1.8,5.9V16.3z M100.2,13.2c0-1.7-0.2-2.9-0.7-3.7
				s-1.2-1.2-2.2-1.2c-1,0-1.7,0.4-2.2,1.2s-0.7,2-0.7,3.6v3.3c0,1.6,0.2,2.8,0.7,3.6s1.2,1.1,2.2,1.1c1,0,1.7-0.4,2.2-1.1
				s0.7-1.9,0.7-3.5V13.2z"/>
			<path class="st0" d="M110.5,23.9h-3.7V5.4h3.7V23.9z"/>
			<path class="st0" d="M126.7,16.3c0,2.5-0.6,4.4-1.8,5.8c-1.2,1.4-2.8,2.1-4.9,2.1c-2.1,0-3.7-0.7-4.9-2s-1.8-3.3-1.8-5.7v-3.2
				c0-2.5,0.6-4.5,1.8-5.9s2.8-2.1,4.9-2.1c2.1,0,3.7,0.7,4.9,2.1s1.8,3.4,1.8,5.9V16.3z M122.9,13.2c0-1.7-0.2-2.9-0.7-3.7
				S121,8.3,120,8.3c-1,0-1.7,0.4-2.2,1.2s-0.7,2-0.7,3.6v3.3c0,1.6,0.2,2.8,0.7,3.6S119,21,120,21c1,0,1.7-0.4,2.2-1.1
				s0.7-1.9,0.7-3.5V13.2z"/>
		</g>
	</g>
</g>
</svg>
