<?xml version="1.0" encoding="utf-8"?>
<!-- Generator: Adobe Illustrator 25.4.1, SVG Export Plug-In . SVG Version: 6.00 Build 0)  -->
<!DOCTYPE svg PUBLIC "-//W3C//DTD SVG 1.1//EN" "http://www.w3.org/Graphics/SVG/1.1/DTD/svg11.dtd" [
	<!ENTITY ns_extend "http://ns.adobe.com/Extensibility/1.0/">
	<!ENTITY ns_ai "http://ns.adobe.com/AdobeIllustrator/10.0/">
	<!ENTITY ns_graphs "http://ns.adobe.com/Graphs/1.0/">
	<!ENTITY ns_vars "http://ns.adobe.com/Variables/1.0/">
	<!ENTITY ns_imrep "http://ns.adobe.com/ImageReplacement/1.0/">
	<!ENTITY ns_sfw "http://ns.adobe.com/SaveForWeb/1.0/">
	<!ENTITY ns_custom "http://ns.adobe.com/GenericCustomNamespace/1.0/">
	<!ENTITY ns_adobe_xpath "http://ns.adobe.com/XPath/1.0/">
]>
<svg version="1.1" id="Capa_1" xmlns:x="&ns_extend;" xmlns:i="&ns_ai;" xmlns:graph="&ns_graphs;"
	 xmlns="http://www.w3.org/2000/svg" xmlns:xlink="http://www.w3.org/1999/xlink" x="0px" y="0px" viewBox="0 0 318.4 82.2"
	 style="enable-background:new 0 0 318.4 82.2;" xml:space="preserve">
<style type="text/css">
	.st0{fill:#009BDA;}
	.st1{fill:#66B5E4;}
</style>
<metadata>
	<sfw  xmlns="&ns_sfw;">
		<slices></slices>
		<sliceSourceBounds  bottomLeftOrigin="true" height="82.2" width="318.4" x="800.9" y="-581.9"></sliceSourceBounds>
	</sfw>
</metadata>
<g>
	<g>
		<path class="st0" d="M142.7,38.3c-11.4,0-19.6-8.5-19.6-19v-0.1C123,8.6,131.3,0,142.8,0c11.4,0,19.6,8.5,19.6,19.1v0.1
			C162.4,29.7,154.1,38.3,142.7,38.3 M153.9,19.2c0-6.4-4.7-11.6-11.2-11.6c-6.6,0-11.1,5.2-11.1,11.5v0.1c0,6.3,4.7,11.6,11.2,11.6
			c6.6,0,11.1-5.2,11.1-11.5V19.2z"/>
		<polygon class="st0" points="191.9,37.7 174,14.1 174,37.7 165.9,37.7 165.9,0.6 173.5,0.6 190.8,23.4 190.8,0.6 198.9,0.6 
			198.9,37.7 		"/>
		<path class="st0" d="M220,38.3c-9.9,0-16-5.6-16-16.5V0.6h8.1v21c0,6,3,9.2,8,9.2c5,0,8-3,8-8.9V0.6h8.2v20.9
			C236.3,32.8,230,38.3,220,38.3"/>
		<polygon class="st0" points="28.9,81.6 28.9,57.4 18.5,73.3 18.3,73.3 8,57.6 8,81.6 0,81.6 0,44.6 8.8,44.6 18.5,60.2 28.3,44.6 
			37,44.6 37,81.6 		"/>
		<path class="st0" d="M58.8,82.2c-9.9,0-16-5.6-16-16.5V44.6h8.1v21c0,6,3,9.2,8,9.2c5,0,8-3,8-8.9V44.6H75v20.9
			C75,76.7,68.7,82.2,58.8,82.2"/>
		<path class="st0" d="M87,82.2c-5.8,0-9.6-2.5-12.1-5.6l5.1-5.7c2.1,2.3,4.2,3.7,6.8,3.7c3.1,0,5-1.9,5-6.1V44.6h8.4v24.2
			C100.2,77.8,94.9,82.2,87,82.2"/>
		<polygon class="st0" points="106.4,81.6 106.4,44.6 134.4,44.6 134.4,51.8 114.5,51.8 114.5,59.3 132,59.3 132,66.6 114.5,66.6 
			114.5,74.4 134.6,74.4 134.6,81.6 		"/>
		<path class="st0" d="M162.8,81.6l-7.9-11.9h-6.4v11.9h-8.1v-37h16.9c8.7,0,14,4.6,14,12.2v0.1c0,6-3.2,9.7-7.9,11.5l9,13.2H162.8z
			 M163,57.2c0-3.5-2.4-5.3-6.4-5.3h-8.1v10.6h8.3c4,0,6.2-2.1,6.2-5.2V57.2z"/>
		<polygon class="st0" points="176.5,81.6 176.5,44.6 204.5,44.6 204.5,51.8 184.6,51.8 184.6,59.3 202.1,59.3 202.1,66.6 
			184.6,66.6 184.6,74.4 204.7,74.4 204.7,81.6 		"/>
		<path class="st0" d="M224.2,82.2c-5.6,0-11.3-2-15.7-5.9l4.8-5.8c3.3,2.8,6.8,4.5,11.1,4.5c3.3,0,5.3-1.3,5.3-3.5v-0.1
			c0-2.1-1.3-3.1-7.5-4.7c-7.5-1.9-12.3-4-12.3-11.3v-0.1c0-6.7,5.4-11.2,13-11.2c5.4,0,10,1.7,13.8,4.7l-4.2,6.1
			c-3.3-2.3-6.5-3.7-9.6-3.7s-4.8,1.4-4.8,3.2v0.1c0,2.4,1.6,3.2,8,4.9c7.5,2,11.7,4.7,11.7,11.1v0.1
			C237.8,78,232.1,82.2,224.2,82.2"/>
		<path class="st0" d="M109.6,8.6c3,5,2.4,12.6-1.2,17.1c-4,5.3-10.7,7.6-17.2,5.8c-6-1.6-10.8-7.3-11.4-13.4
			C79,11.5,82,5.6,87.5,2.3c4.3-2.6,10.8-2.9,15.3-0.4C105.5,3.2,108.2,5.9,109.6,8.6 M95.9,0.9C96,1.5,96,2.3,95.9,3
			c0-0.1,0.1-0.1,0.2-0.1c0.2,0.1,0.2,0.3,0.2,0.5h0c1.1-0.1,2.1,0.2,3.1,0.5c1,0.1,1.9,1.4,2.9,0.7c0.3,0.3,0.8,0,0.9,0.5
			c0.4,0.1,0.6,0.5,0.9,0.7c0,0.4,0.3,0.5,0.4,0.8v0c0.3-0.6,0.9-1.1,1.5-1.5c-2.1-2-4.7-3.3-7.6-3.9C97.5,1.1,96.7,1.1,95.9,0.9
			 M85.1,5.1l1.8,1.7c2.2-2.1,5-3.4,8.1-3.5C94.9,2.6,95,1.7,95,1C91.2,1.2,87.9,2.6,85.1,5.1 M107.1,1.5l1.1,1.1
			c1.2,1.8,2.8,3.6,4.4,4.7c-0.3-0.7-0.4-1.5-0.8-2.3C111.1,3,108.9,2.1,107.1,1.5 M83.8,1.7c-1.4,0.6-2.9,1-4,2.4
			c-0.8,1.1-1.1,2.3-1.5,3.6l1.3-1.1C81.4,5.2,81.9,3.1,83.8,1.7 M97.8,2.2l-1.1,0.5c-0.1,0.1-0.5-0.1-0.4,0.2
			c0.2,0.1,0.4,0.3,0.7,0.3c0.7-0.3,1.5,0.2,2-0.4C98.8,2.3,98.2,2.3,97.8,2.2 M111.4,3.6c1.6,1,1.5,3,2,4.5
			c0.1,0.7,0.6,1.3,0.6,1.9c-0.8-2.5-3.7-2.7-4.7-5l0.3,1.4c0.8,2.6,3.9,3.3,5.1,5.7c-0.4-1.7,0.3-3.5-0.2-5.2
			C114.1,5.3,112.9,4,111.4,3.6 M76.9,5.9c-1.2,1.8-0.2,4.2-0.6,6.3c0.4-0.9,1.3-1.7,2-2.3c1.7-1.1,3.2-2.8,3.2-4.7
			c-0.9,2.3-3.8,2.6-4.6,5h-0.1c1.1-2,0.5-4.9,2.5-6.4C78.4,4.1,77.5,5,76.9,5.9 M95.9,4.1c0.1,0.7,0.1,1.6,0,2.4
			c1.9,0,3.7,0.6,5.1,1.7c-0.1-0.1-0.3-0.4-0.3-0.6h0.1c0-0.3-0.4-0.4-0.2-0.7c0.4,0,0.6,0.5,0.8,0.8c1,0,0.4,1.2,1.2,1.6
			c0.2,0.1-0.1,0.5,0.2,0.4c0.2,0.2,0.5,0.4,0.5,0.7c0.1,0.5,0.5-0.2,0.8,0.2c0.2,0.2-0.1,0.3-0.1,0.5c0.1,0.1,0.3-0.1,0.4,0
			c0,0.2-0.1,0.3-0.2,0.4c-0.1,0.3,0.3,0.1,0.4,0.3c0.2,0.4,0.3,0.9,0,1.3c0.4,0.4-0.1,0.8-0.1,1.2c-0.3,0.3-0.3,0.8-0.8,0.7
			c-0.1,0.2,0.1,0.4,0,0.6l0.9,0c-0.5-0.7,0.1-1.4,0.4-2c0.1,0,0.2-0.3,0.3,0c0,0.3-0.1,0.6-0.1,0.9c0.2,0.3,0.1,0.8,0.2,1.2l2.3,0
			c-0.2-1.5-0.5-3-1.1-4.3c-0.2,0.1-0.4,0.2-0.5,0.1c-0.3-0.3-0.5-0.8-0.8-1c-0.3,0-0.5-0.2-0.7-0.4c-0.5,0-0.3-0.7-0.8-0.6
			c-0.3-0.1-0.5-0.3-0.5-0.6c0-0.4,0-0.8-0.4-1.1c-0.2-0.1-0.4,0-0.5,0.1c-0.3,0.2-0.4-0.1-0.4-0.4c-0.3-0.2,0-0.5-0.1-0.8
			c-0.4-0.4-0.2-1-0.8-1.3c-1-0.5-2-0.8-3.1-1C97,4.3,96.4,4.3,95.9,4.1 M102.7,4.1c-0.1,0-0.1,0.2,0,0.3c0.4,0,0.4,0.7,0.8,0.4
			l-0.1-0.5C103.3,4.1,102.9,4.3,102.7,4.1 M87.4,7.4C88,7.8,88.6,8.5,89.1,9c1.6-1.5,3.7-2.5,6-2.5c0-0.7,0-1.5,0-2.3
			C92.1,4.4,89.6,5.5,87.4,7.4 M106.5,5.6l-1.6,1.7l-0.3,0c0.2,0,0.2,0.2,0.3,0.3c0.7,0.5,1,1.1,1.5,1.6c0.2,0.5,0.7,0.8,0.7,1.5
			c0.8,1.5,1.1,3.3,1.2,5c0.8-0.1,1.7-0.1,2.4-0.1l-0.1-0.1C110.6,11.7,109,8.4,106.5,5.6 M84.7,5.9l-0.1-0.2
			c-2.5,2.8-4,6.3-4.2,10.1l2.4,0c-0.1-0.8,0.1-1.5,0.2-2.3c0.5-2.2,1.5-4.4,3.2-6L84.7,5.9z M114.8,6.4c1.1,1.6,0.5,3.9,0.4,5.7
			c0,0.9,0.2,1.8,0.1,2.7c-0.1-0.4-0.2-0.7-0.3-1.1c-0.4-2-2.8-3-3.8-4.7c0.2,0.6,0.3,1.2,0.5,1.7c0.8,2.4,3.3,4,3.7,6.7
			c0.2-2.5,2-4.5,1.3-7.2C116.4,8.8,115.9,7.5,114.8,6.4 M76,6.8c-0.9,1-1.4,2.3-1.7,3.6c-0.6,2.7,1.1,4.9,1.4,7.4
			c0.5-3.1,3.8-5.1,4-8.4c-1,1.8-3.3,2.8-3.7,4.9c0,0.3-0.1,0.7-0.2,1l-0.1-0.1l0.1-1.4C76.2,11.3,74.8,8.8,76,6.8 M95.1,7.3
			L95.1,7.3c-2.1,0.2-3.8,1.1-5.4,2.3c0.6,0.4,1.1,1,1.7,1.6c1-1,2.3-1.5,3.7-1.6C95,8.9,95,8,95.1,7.3 M95.9,7.3
			C96,8,96,8.8,96,9.6c1.4,0.1,2.9,0.7,3.9,1.6c0.5-0.5,1.1-1.3,1.7-1.6C99.9,8.3,98,7.5,95.9,7.3 M86.8,7.9V8
			c-1.9,2.2-2.9,4.8-3.1,7.7c0.8,0,1.6,0,2.4,0l-0.1-0.1c0.1-2.3,1-4.4,2.5-6.1C87.8,9.1,87.3,8.5,86.8,7.9 M102,10.1
			c-0.7,0.8-1.6,1.7-2.2,2.4c0,0.1,0.2,0.2,0.2,0.2c0.2-0.2,0-0.8,0.5-0.7c0.5,0.2,0.9,0.1,1.5,0.2c0.3,0.2,0.3,0.5,0.6,0.7
			c0.1,0.1,0,0.3-0.1,0.4c0.1,0.1,0.1,0.1,0.1,0.2c0.2-0.1,0.4-0.3,0.6-0.2c0.3,0,0.4,0.4,0.6,0.5c0.1,0.1-0.1,0.3-0.2,0.4
			c0.1,0.3-0.3,0.4-0.2,0.6c0.2,0,0.3,0,0.4-0.2c0.6-0.4,0.1-1,0-1.5c-0.2-0.5-0.7-0.5-1.1-0.9c0-0.1,0.1-0.3,0.2-0.4
			C103,11.1,102.4,10.7,102,10.1 M89.1,10.2c-0.5,0.6-1,1.3-1.4,2c-0.6,1.1-0.7,2.3-1,3.5l1,0c-0.2-0.2-0.1-0.5-0.1-0.7
			c0.2-0.5,0.3-1.3,1-1.3c0.3-0.1,0-0.3,0.3-0.5c0.5-0.1,0.6-0.5,1.1-0.8c0.4,0,0.5-0.6,0.9-0.7C90.1,11.3,89.7,10.8,89.1,10.2
			 M96,10.5l0.1,1.6l0.6,0.2c0.2-0.3,0.5-0.4,0.7-0.7c0.2-0.1,0.2,0.1,0.3,0.2c0.1,0.7-0.7,1.1-1.1,1.4h0.2c0.5-0.5,0.7,0.6,1.2,0.1
			c0.1-0.6,1-0.5,1.1-1.1c-0.2,0.1-0.2,0-0.4-0.1c0-0.2,0.3-0.3,0.5-0.5C98.2,11,97.1,10.6,96,10.5 M95,10.5
			c-1.2,0.2-2.4,0.6-3.3,1.6c0.3,0.1,0.6,0.2,0.8,0.4c0.1,0.1-0.1,0.2-0.2,0.3c0.2,0.3,0.2-0.1,0.4-0.1c0.2,0.2,0.3,0.3,0.6,0.2
			c0.1,0.2,0.3,0,0.5,0c0.1-0.2,0.3-0.3,0.2-0.5c0.1-0.2,0.1-0.4,0.4-0.4c-0.1,0.7,0.5,0,0.7,0.3C94.9,11.7,95.1,11,95,10.5
			 M117.3,12.2c0.4,2.4-1,4.2-1.6,6.3c-0.3,0.8-0.2,1.8-0.7,2.5c0-0.4,0.2-0.8,0.2-1.2c0.4-2.7-2-4.3-2.5-6.6c0,0.6,0,1.2,0.1,1.7
			c0.1,2.8,2,5.1,1.5,8.1c0.5-0.7,0.9-1.4,1.6-2.1C118,18.8,118.6,15.1,117.3,12.2 M73.8,12.5c-0.8,1.8-0.7,4.2-0.1,6
			c0.5,1.9,2.3,3.3,3.3,4.9c-0.2-0.7-0.1-1.6,0-2.3c0.6-2.5,1.6-4.9,1.5-7.6c-0.4,2-2.1,3.4-2.3,5.4c-0.1,0.8,0.1,1.7,0.2,2.4
			c-0.2-0.4-0.4-0.8-0.4-1.3C75.5,17.4,73.3,15.4,73.8,12.5 M95,13.5L95,13.5c0.1,0.3,0.2,0.6,0,0.7c-0.3,0.4-0.9,0.3-1,0.8
			c-0.7,0.2-0.4,1.1-0.7,1.6c-0.4,0.1-0.3-0.4-0.5-0.6l-0.1,0.1c-0.7-0.5-0.6,0.6-1,0.7c0.5,0.1,0.9-0.2,1.4-0.2
			c0,0.1,0.1,0.1,0.1,0.2h0.1c0.1-0.1,0.1-0.2,0.1-0.4c0-0.1,0.2-0.2,0.4-0.1c0,0.1,0.1,0.3,0.2,0.3l-0.3,0.4
			c-0.1,0.1,0,0.5-0.3,0.5c-0.1,0-0.1,0-0.1-0.1h-0.1l0.2,0.3c0.2,0,0.2-0.4,0.4-0.4c0.2-0.1,0.3-0.3,0.2-0.6c0.3-0.3,0.7-0.1,1-0.2
			c0.1,0.1,0.3,0.1,0.2,0.3c0.1,0.3-0.1,0.6-0.2,0.8c0.1,0.1-0.1,0.3-0.1,0.4c-0.3,0.3-0.6,0.2-1,0.3c0.5,0.3,1,0.5,1.6,0.5
			c0.6,0,0.3-0.7,0.7-0.9c0.3,0,0.5,0,0.8,0c0.1-0.2,0.1-0.5,0.2-0.7c-0.3-0.1-0.2-0.4-0.2-0.6C97,16.3,97,16,96.7,15.9
			c-0.1-0.2,0.1-0.2,0.1-0.4c0.4-0.2-0.2-0.4,0-0.7c-0.5-0.1-0.6-0.9-1.3-0.6c-0.1-0.2-0.5-0.3-0.5-0.6c0-0.2,0.5-0.1,0.5-0.1
			c0,0-0.1-0.1-0.1-0.1C95.3,13.4,95.1,13.4,95,13.5 M88.6,15.4c-0.6,0.2,0,0.7,0,1c-0.1,0.3-0.3,0.1-0.5,0.2
			c0.1,0.5-0.3,0.6-0.6,0.6c-0.1,0.3,0.2,0.5,0.1,0.8c0.4,0.4,0.7,0.9,0.6,1.5c0.3,0.4,0.2,1,0.3,1.5c0.2,0.2,0.4,0.6,0.4,1
			c0,0.2-0.2,0.3-0.3,0.3c-0.2,0.2,0.1,0.1,0.1,0.2l2-2.1c-0.7-0.8-1.2-1.9-1.5-3l-0.3-0.2c0,0.3,0,0.7-0.3,0.8
			c-0.1-0.1-0.4-0.2-0.4-0.4c0.1-0.2,0.2-0.1,0.3-0.1c0-0.1,0-0.3,0-0.4c0-0.2-0.2-0.3,0-0.4c0.2,0,0.2,0.2,0.4,0.3l0.4-0.2
			c-0.1-0.3,0.1-0.9,0-1.2C89.2,15.3,88.8,15.4,88.6,15.4 M103.2,15.7h0.2H103.2z M103,16.4l0.4,0.5c0,0.5,0.7,0.7,0.7,1.2
			c0.1-0.5,0.1-1,0.3-1.5C104,16.5,103.4,16.7,103,16.4 M108.3,16.5l0.1,0.1c-0.1,3.1-1.4,6-3.4,8.1c0.6,0.5,1.2,1.2,1.7,1.7
			c2-2.3,3.3-4.8,3.8-7.7c0.2-0.7,0.1-1.5,0.3-2.3c-0.7,0.2-1.6,0.1-2.4,0.1L108.3,16.5z M105.3,16.5c0.1,0.3-0.1,0.6-0.1,0.9
			c-0.3,0.5,0.4,0.7,0.2,1.1c-0.1,0.1-0.3,0.1-0.4,0c-0.4,1.5-1.1,2.8-2.1,4h-0.1c0.3,0.2,0.5,0.5,0.8,0.6v-0.2
			c0.1,0,0.1-0.1,0.2-0.1c0.6,0.2,0.6,1,0.7,1.4c1.5-1.6,2.5-3.5,2.9-5.5c0.2-0.7,0.1-1.5,0.4-2.1C106.8,16.6,106,16.6,105.3,16.5
			 M86.7,16.5c0.2,0.5,0.3,1.1,0.2,1.7c0-0.3,0.6-0.5,0.1-0.8c0.2-0.3,0-0.8,0.4-0.9C87.2,16.7,87,16.7,86.7,16.5 M80.5,16.6
			c0.2,3.8,1.6,7.1,4,9.9c0.5-0.6,1.2-1.2,1.8-1.7c-0.3-0.2-0.5-0.5-0.8-0.8c-0.4-0.1-0.6-0.4-0.7-0.7c0,0,0,0.1-0.1,0.1
			c-0.3,0.2-0.4-0.2-0.7-0.4c-0.2-0.1,0-0.6-0.4-0.4c-0.2-0.3-0.6-0.3-0.7-0.7l-0.2,0.2c-0.3,0-0.5-0.3-0.6-0.5
			c-0.6,0.2-0.3-0.6-0.6-0.9c-0.1-0.5,0-0.9,0.3-1.3c0.2-0.2,0.5,0,0.5,0.1c0.3,0.1,0.1-0.2,0.3-0.3c0.4-0.3,0.6,0.1,0.8,0.4
			c-0.3-1-0.5-2.1-0.5-3.1C82.1,16.7,81.2,16.7,80.5,16.6 M83.6,16.6l0.1,0.1c0.1,1.1,0.4,2.1,0.5,3.1c0.1-0.1,0-0.3,0.2-0.3
			c0.1-0.5,0.1-1.1,0.5-1.5c0.5,0,0.5-0.7,1-0.6c0.1,0.1,0.3,0.2,0.3,0.4c-0.2-0.3-0.3-0.8-0.1-1.1C85.3,16.7,84.4,16.7,83.6,16.6
			 M90.1,17.5l0.1,0.2c0.2,0.7,0.6,1.4,1,2l0.7-0.7c0-0.1,0-0.2,0-0.2c-0.1-0.2,0-0.5-0.2-0.6c-0.1,0.2,0.1,0.3,0,0.4
			c-0.2-0.1-0.5-0.2-0.6-0.5c0-0.3-0.2-0.1-0.4-0.3C90.7,17.5,90.2,17.8,90.1,17.5 M92.6,18.1c0,0.2-0.2,0.4-0.3,0.5
			c0.2-0.1,0.3-0.4,0.6-0.4L92.6,18.1z M113.1,18.4c-1.4,3.1-0.4,7.1-2.1,10l0.3-0.2c3.3-1.8,7.4-4.9,6.7-9.4
			c-0.1,0.6-0.3,1.2-0.5,1.7c-1.3,2-3.5,3.7-4.6,5.8c0,0.1-0.1,0.1-0.2,0l0.2-0.3C114.4,23.8,113,21,113.1,18.4 M98.9,18.7
			c-0.3,0.5,0.3,0.4,0.4,0.8c0.1,0,0.2,0,0.2,0c0-0.2,0-0.3-0.2-0.5C99.1,19,99.1,18.7,98.9,18.7 M78.1,18.7c0.2,1-0.1,1.8-0.3,2.7
			c-0.5,1.7-0.3,3.7,0.7,5.1c-0.3-0.2-0.5-0.5-0.7-0.9c-1.2-2.4-4.3-3.7-4.6-6.5c0,1,0,2.1,0.3,3c0.9,3.2,4.4,4.8,6.7,6.4
			C78.5,25.7,79.4,21.8,78.1,18.7 M102.9,18.9c-0.4-0.3-0.3,0.3-0.7,0.3c-0.1,0-0.2-0.2-0.2-0.3c0,0.3-0.3,0.6-0.5,0.9
			c-0.7-0.2-0.5,0.8-1.2,0.6c0.1,0.3,0.4,0,0.5,0c0.1-0.1,0.1-0.2,0.1-0.3c0.1-0.3,0.4-0.4,0.7-0.3c0.2,0.2,0.2,0.5,0.2,0.8
			c-0.2,0.1-0.2,0.3-0.1,0.5c-0.2,0.3-0.1,1.1-0.7,1c-0.7-0.2-1.4-0.4-2.1-0.4v0.2c0.5,0.2,1,0.2,1.4,0.5c0.4,0,0.9,0.1,1.3-0.2
			c0-0.3,0.2-0.6,0.4-0.8c0.3,0,0.2,0.4,0.3,0.6c0.8-1,1.5-2,1.7-3.2C103.6,18.7,103.3,18.9,102.9,18.9 M93.3,18.8l-1.4,1.6
			c0.8,0.6,1.8,1.1,2.8,1.3c0-0.3,0-0.6,0.1-0.8c0.2-0.1,0.4,0,0.5-0.1c0-0.1-0.1-0.1-0.2-0.3c-0.1-0.2,0-0.4,0-0.5
			c0.1-0.1-0.1-0.3,0.1-0.4c-0.5,0.2-0.9-0.1-1.3-0.2C93.8,19.2,93.4,19.2,93.3,18.8 M97.9,20.4c0.2-0.2,0.6-0.2,0.6-0.5
			C98.2,19.9,97.9,20.2,97.9,20.4 M98.8,20.8c-0.2,0.1-0.3,0.1-0.4,0.3c-0.2,0.2-0.4,0-0.6-0.1c0.1,0.1,0.2,0.3,0,0.4
			c-0.2,0.2-0.4-0.1-0.6-0.1c-0.1,0.7-0.3-0.2-0.7,0c-0.1-0.4-0.4,0.1-0.6,0c-0.2,0.1-0.2,0.6-0.5,0.5C95.3,21.9,95,21.8,95,22
			c0.2,0.2,0.4,0.1,0.6,0.1c0.3-0.2,0.6-0.1,1-0.1c0,0.5,0.6,0.1,0.8,0.5c0.2,0,0.2-0.2,0.3-0.4c0.5-0.1,0.9-0.4,1.2-0.7
			C98.9,21.2,99,20.9,98.8,20.8 M91.2,21c-0.5,0.6-1,1.1-1.6,1.6h0.1c1.3,1.1,3,1.9,4.5,2.2c-0.6-0.1-0.8-0.6-1-1
			c-0.1-0.3,0.4-0.4,0.3-0.8c0.2-0.3,0.5-0.5,0.9-0.5c-0.2,0-0.4,0.1-0.5,0.1C92.8,22.3,91.9,21.8,91.2,21 M111.7,22.9l-1.3,1.6
			c-1.7,2.3-1.5,5.5-3.8,7.5c1.2-0.4,2.5-0.6,3.8-0.8c2.8-0.7,5.8-3.5,6.2-6.4c-0.5,1.2-1.6,2.1-2.6,2.8c-1.8,0.9-3.7,1.8-5.3,3.2
			h-0.2l0.1-0.1C111.3,28.9,110.5,25.5,111.7,22.9 M102.1,23.1L102.1,23.1c-1.1,0.8,0.5,0.8,0.6,1.5c-0.2,0.3-0.8,0.7-0.4,1
			c0.1,0.1-0.1,0.2-0.1,0.4l1.5-1.3c-0.2,0.1-0.4,0-0.5-0.1C103.2,23.9,102.4,23.7,102.1,23.1 M79.5,23.2l0.4,1.1
			c0.4,2.5,0.6,5.2,2.9,6.8l0,0c-0.7-0.3-1.3-0.9-1.9-1.3c-2.1-1.4-5-2-6.2-4.6c0.3,1.9,1.6,3.6,3.2,4.8c1.9,1.7,4.5,1.5,6.8,2.2
			c-0.8-0.7-1.3-1.4-1.7-2.3C82.1,27.5,81.3,25.1,79.5,23.2 M89.5,23.7l0.2,0.2L89.5,23.7z M89.7,24c0,0.3,0.3,0.3,0.2,0.6
			c-0.5,0.3-1.1,0.1-1.6,0.5c-0.4,0.2-0.8-0.3-1.1-0.3c2.2,1.9,4.7,3.1,7.6,3.3l0.2,0.1c-0.1-0.7-0.1-1.5,0-2.3
			C93.1,25.9,91.3,25.1,89.7,24 M104.4,25.3c-0.3,0.4-0.8,0.9-1.3,1.1c-1.5,0.5-1.7,2.3-3.2,2.8c-0.6,0.2-0.9-0.5-1.5-0.7
			c-0.8,0.1-1.6,0.4-2.5,0.2v2.5l0.1-0.1c3.8-0.2,7.3-1.7,10-4.2C105.5,26.5,104.8,25.9,104.4,25.3 M86.8,25.4l-1.7,1.7
			c2.8,2.5,6.2,3.9,10,4.1L95,31.1c0-0.7-0.1-1.5,0.1-2.2l0,0C91.9,28.8,89,27.6,86.8,25.4 M95.8,26l0.1,0.3l0,1.9
			c0.6-0.2,1.3-0.2,1.8-0.3c-0.3-0.3-0.7-0.3-0.9-0.7c-0.2-0.3,0.1-0.6,0.1-0.9C96.6,26.1,96.1,26.3,95.8,26 M108.5,27.8
			c-1.7,1.1-3.2,3-4.7,4.2c-0.9,0.7-1.9,0.8-2.9,1.1c2.2,0.2,4.1,1.2,6.4,1.1c2.5-0.1,4.8-1.6,6-3.8c-1.7,2.1-4.5,1.9-7,2.2
			c-0.8,0.1-1.7,0.4-2.5,0.4c0,0,0.1-0.1,0.1-0.1C106.6,32.7,107.4,29.6,108.5,27.8 M82.7,27.9c1.1,1.3,1.2,3.1,2.8,4.2
			c0.6,0.5,1.4,0.6,2.1,0.9c-0.8,0.1-1.5-0.2-2.2-0.3c-2.6-0.3-5.5,0-7.4-2.1c0.8,1.5,2.3,2.8,3.9,3.3c3,1.1,5.7-0.5,8.5-0.8
			C87.1,33.1,85.3,29.5,82.7,27.9 M104.1,34.9c-2.5-1.2-5.5-2.5-8.5-1.4c-1.5-0.5-3.5-0.5-5,0c-2.6,1.2-6.2,3-9,1
			c0.5,0.6,1.1,0.9,1.7,1.4c1.8,1.2,4.4,1,6.2,0.1c1.7-0.7,3-2.8,5.2-2.2c-1.8,0.9-3.5,2-5,3.6l0.9,0.8c1.3-1.8,3.1-3.2,5.1-4.1
			c1.9,0.9,3.6,2.5,5,4l0.9-0.8c-1.5-1.4-3.2-2.6-5-3.5c0.5-0.1,1-0.1,1.5,0c1.9,0.8,3.4,2.5,5.6,2.8c2.3,0.4,4.4-0.6,5.8-2.3
			l-1.1,0.6C107.2,35.5,105.4,35.3,104.1,34.9"/>
		<path class="st0" d="M287.6,11.8c4.9-0.2,9.6-0.9,13.8-1.9V0.2h-13.8V11.8z"/>
		<path class="st0" d="M315.3,11.2c-2.4,1.2-5.1,2.3-8,3.2V25c4.5-3.3,8.3-7.6,11.1-12.6v-3C317.4,10,316.4,10.6,315.3,11.2"/>
		<path class="st0" d="M301.4,28.6C301.4,28.6,301.3,28.6,301.4,28.6l0-12.7c-4.3,0.9-8.9,1.5-13.8,1.7v14.8
			C292.5,32.1,297.1,30.7,301.4,28.6"/>
		<path class="st0" d="M307.3,0.2v7.9c4.6-1.6,8.4-3.7,11.1-6V0.2H307.3z"/>
		<path class="st1" d="M280.4,0.2H266v9.5c4.4,1.1,9.3,1.8,14.4,2V0.2z"/>
		<path class="st1" d="M260,7.9V0.2h-10.5v1.9c1.6,1.3,3.5,2.6,5.8,3.7C256.8,6.6,258.3,7.3,260,7.9"/>
		<path class="st1" d="M280.4,17.7c-5.1-0.2-9.9-0.8-14.4-1.9v12.5c4.4,2.3,9.3,3.7,14.4,4.2V17.7z"/>
		<path class="st1" d="M260,24.6V14.2c-3.9-1.3-7.4-2.9-10.5-4.8v3.1C252.2,17.2,255.8,21.3,260,24.6"/>
		<path class="st1" d="M265.9,70v-6.7h14.5v-1.4v-5.3h-14.5v-6.7h14.5V38.5c-12.3-1-23.2-6.8-30.8-15.6v58.8h30.8V70H265.9z"/>
		<path class="st0" d="M287.6,38.5v11.4h13.9v6.7h-13.9v5.3v1.4h13.9V70h-13.9v11.7h30.8V22.8C310.8,31.7,299.9,37.5,287.6,38.5"/>
	</g>
</g>
</svg>
