<?xml version="1.0" encoding="utf-8"?>
<!-- Generator: Adobe Illustrator 25.4.1, SVG Export Plug-In . SVG Version: 6.00 Build 0)  -->
<svg version="1.1" id="Capa_1" xmlns="http://www.w3.org/2000/svg" xmlns:xlink="http://www.w3.org/1999/xlink" x="0px" y="0px"
	 viewBox="0 0 411.6 135.4" style="enable-background:new 0 0 411.6 135.4;" xml:space="preserve">
<style type="text/css">
	.st0{fill:#9B1F1E;}
	.st1{fill:#FFFFFF;}
	.st2{font-family:'RobotoCondensed-Regular';}
	.st3{font-size:11.8186px;}
	.st4{font-family:'RobotoCondensed-Bold';}
	.st5{fill:#142F4E;}
	.st6{fill:#CA522A;}
	.st7{font-size:11.6817px;}
	.st8{font-size:11.8164px;}
</style>
<g>
	<rect x="276" y="0" class="st0" width="135.6" height="135.6"/>
	<text transform="matrix(1 0 0 1 298.812 32.9869)"><tspan x="0" y="0" class="st1 st2 st3">F</tspan><tspan x="5.5" y="0" class="st1 st2 st3">acultad </tspan></text>
	<text transform="matrix(1 0 0 1 298.812 47.1232)" class="st1 st2 st3">Latinoamericana de</text>
	<text transform="matrix(1 0 0 1 298.812 61.257)" class="st1 st2 st3">Ciencias Sociales.</text>
	<text transform="matrix(1 0 0 1 298.812 75.3937)"><tspan x="0" y="0" class="st1 st2 st3">Sede A</tspan><tspan x="32.6" y="0" class="st1 st2 st3">r</tspan><tspan x="36.1" y="0" class="st1 st2 st3">gentina.</tspan></text>
	<text transform="matrix(1 0 0 1 298.812 100.6271)"><tspan x="0" y="0" class="st1 st4 st3">Á</tspan><tspan x="7.1" y="0" class="st1 st4 st3">r</tspan><tspan x="10.9" y="0" class="st1 st4 st3">ea Comunicación </tspan></text>
	<text transform="matrix(1 0 0 1 298.812 113.2355)"><tspan x="0" y="0" class="st1 st4 st3">y Cultu</tspan><tspan x="33" y="0" class="st1 st4 st3">r</tspan><tspan x="36.8" y="0" class="st1 st4 st3">a.</tspan></text>
</g>
<g>
	<g>
		<rect x="0.4" class="st5" width="135.6" height="135.6"/>
		<g>
			<path class="st1" d="M75.5,22.9c-1.4-0.2-2.9-0.2-4.4-0.3c-0.4,0-0.9,0-1.3,0h-1.7c-0.9,0-1.8,0-2.7,0c-1,0-2,0.1-3,0.2
				c-5,0.4-10,1.2-15,2.5c-0.2,0.1-0.3,0.1-0.5,0.2c0.1,0.2,0.3,0.2,0.5,0.3c0,0,0.1,0,0.1,0.1c0.3,0.1,0.3,0.3,0.7,0.3
				c0.4,0,0.8,0.1,1.2,0c0.8-0.2,0.8-0.3,1.4,0.2c0.3,0.2,0.3,0.2,0.4,0.6c0.1,0.3,0,0.5,0.3,0.7c0.2,0.2,0.5,0.2,0.6-0.1
				c0.3-0.7,1.1,0.2,1.1,0.5c0,0.6,0.1,0.3,0.3,0.5c0.1,0.1,0.1,0.9,0.7,1.1c0.2,0.1,0.4,0,0.5,0.3c0,0.1,0,0.2-0.1,0.3
				c-0.1,0.2-0.2,0.4-0.3,0.5c-0.3,0.7-0.3,1.2,0.1,1.9c0.1,0.2,0.2,0.3,0.3,0.5c0.3,0.7,0.3,0.8,0.7,1.1c0.3,0.2,0.6,0.2,0.9,0.2
				c0.3,0,0.3,0,0.5-0.1c0.2-0.2,0.3-0.2,0.5,0c0.4,0.3,0.3,0,0.5-0.3c0.3-0.5,0.5-0.1,0.5-0.8c0-0.2,0.1-0.3,0.4-0.4
				c0.5,0,0.6-0.3,1.1-0.2c0.2,0,0.6,0,0.4,0.5c-0.3,0.3-0.3,0.3-0.4,0.7c0,0.4-0.1,0.5-0.3,0.7c-0.3,0.4-0.1,0.3-0.2,0.7
				c0,0.2-0.2,0.3-0.2,0.5c-0.1,0.2,0.1,0.4,0.4,0.3c0.3-0.1,0.5-0.1,0.7,0c0.3,0,0.5,0,0.8,0c0.4,0,0.7,0,1,0.3
				c0.3,0.3,0.3,0.4,0.1,1.1c-0.1,0.2,0.1,0.3,0,0.5c0,0.3-0.2,0.6-0.2,0.8c0,0.2,0,0.3,0.1,0.4c0.2,0.2,0.3,0.4,0.4,0.5
				c0.2,0.2,0.3,0.3,0.6,0.5c0.8,0.5,0.9,0,1.6-0.2c0.3,0,0.6,0,0.8,0.1c0.2,0.1,0.4,0.3,0.6,0.5c0.2,0.2,0.4,0.3,0.5-0.1
				c0-0.2,0.1-0.3,0.3-0.4c0.2,0,0.1-0.1,0.2-0.3c0,0,0-0.1,0.1-0.1v0v-0.1c0.1-0.4,0.6-0.7,1-0.7h0.1c0.3,0,0.6-0.2,0.7-0.4
				c0.2-0.2,0.7-0.5,0.4,0.1c-0.1,0.2-0.2,0.2-0.1,0.3c0,0.1,0,0.1,0,0.2c0.1,0.2-0.1,0.3-0.2,0.5c0,0.2,0.1,0.1,0.2,0.2
				c0.1,0.1,0.1,0.2,0.2,0.3c0.2,0.1,0.3,0,0.3-0.2v0v-0.1c0-0.1-0.1-0.2-0.1-0.3c0-0.2,0-0.3,0.1-0.4c0,0,0.1-0.1,0.2-0.1
				c0.5-0.3,0.8-0.4,1.2-0.2c0.1,0,0.1,0.1,0.2,0.1c0.4,0.4,0.2,0.4,0.8,0.4c0.4,0,0.6-0.1,0.9,0.1c0.3,0.1,0.9,0.3,1.1,0
				c0.2-0.4,0.7-0.4,0.8-0.1c0.1,0.2,0.3,0.2,0.5,0.3c0,0,0,0,0,0c0.2,0,0.2,0,0.4,0.2c0.2,0.3,0,0.2,0,0.5c0,0.2,0,0.1,0.3,0.1
				c0.5,0,1.2,0.2,1.3,0.8c0.1,0.3,0.4,0.1,0.6,0.3c0.3,0.4,0.2,0.4,0.8,0.5c0.1,0,0.2,0,0.3,0c0.5-0.1,0.7-0.1,0.9,0
				c0.3,0.2,0.3,0.4,0.6,0.3c0.5-0.1,0.6,0.3,0.9,0.6c0.4,0.3,0.6,0.3,0.6,0.9c0,0.4,0,0.3,0.3,0.6c0.3,0.4,0.4,0.5-0.1,1
				c-0.4,0.3-0.4,0.5,0.2,0.2c0.2-0.1,0.4,0.1,0.8,0.2c0.2,0.2,0.2,0.3,0,0.5c0,0.5-0.1,0.4,0.3,0.1c0.4-0.4,0.7-0.5,1.3-0.1
				c0.2,0.2,0.4,0.3,0.6,0.4c0.5,0.4,1,0.7,1.7,0.7c0.5,0,0.7,0.2,1.1,0.1c0.5-0.1,1,0.2,1.3,0.7c0.2,0.2,0.4,0.4,0.7,0.6
				c0.6,0.3,0.9-0.1,1.2,0.7c0.5,1.3-0.5,2.4-1.4,3.4c-0.3,0.4-0.3,0.7-0.5,0.9c-0.3,0.3-0.8,0.1-0.7,0.6c0.1,0.2-0.2,0.4-0.2,0.6
				c0,0.1,0,0.2,0,0.3c0,0.3,0.1,0.6-0.1,0.8c0,0.3-0.1,0.6-0.1,0.8c-0.3,0.6-0.6,1-0.7,1.3c-0.2,0.2-0.3,0.3-0.5,0.5
				c-0.3,0.2-0.1,0.5-0.3,0.8c-0.1,0.1-0.2,0.1-0.3,0.2c-0.4,0.3-0.4,0.4-1,0.4c-1.1,0-2.5,0.7-3.2,1.7c-0.3,0.4-0.3,0.6-0.3,0.9
				c-0.1,0.5-0.3,0.4-0.5,0.7c-0.5,0.5-0.4,1.2-1,0.9c-0.2,0-0.2,0.1-0.4,0.4c-0.2,0.2-0.3,0.3-0.4,0.6c0,0.2-0.1,0.3-0.3,0.5
				c-0.2,0.2-0.3,0.3-0.5,0.5c-0.3,0.8-0.9,0.7-1.7,0.6c-0.2,0-0.5-0.2-0.7-0.2c-0.5-0.2-0.4,0.1-0.1,0.3c0.1,0.1,0.2,0.1,0.2,0.2
				c0.1,0.3-0.3,0.4,0.2,0.7c0.1,0.2,0,0.5-0.2,0.7c-0.3,0.5-0.8,0.7-1.3,0.7c-0.3,0-0.6,0-0.9,0c-0.6,0-0.5-0.2-0.5,0.4
				c0,0.1-0.1,0.2-0.2,0.4c0,0.5-0.3,0.6-0.7,0.5c-0.7-0.3-0.4-0.3-0.6,0.2c-0.1,0.2-0.1,0.3,0,0.3c0,0.1,0,0.3,0.1,0.3
				c0.1,0,0.1,0,0.1,0c0.3,0,0-0.2,0.3-0.2c0.1,0,0.1,0,0.1,0.1c-0.1,0.3-0.1,0.2-0.3,0.2c-0.2,0-0.3,0-0.3,0.2
				c0,0.3-0.2,0.3-0.3,0.5c0,0.1-0.1,0.2-0.1,0.3C72.1,73,71.9,73,71.6,73c-0.2,0.1-0.3,0.2-0.4,0.3c-0.1,0.2-0.1,0.4,0,0.6
				c0,0,0.1,0.1,0.2,0.1c0.1,0.1,0.1,0.2,0.2,0.2c0.3,0.1,0.3-0.1,0.3,0.2c0,0.3-0.2,0.3-0.4,0.5c-0.1,0.1-0.1,0.1-0.2,0.1
				c-0.2,0.1-0.2,0.1-0.3,0.4c0,0.2-0.2,0.4-0.3,0.4c-0.5,0.2-0.5,0.3-0.4,0.8c0.1,0.4-0.1,0.3-0.3,0.4c-0.1,0-0.2,0.1-0.3,0.2
				c-0.1,0.1-0.2,0.3-0.3,0.5c-0.3,0.2,0.1,0-0.7,0.2c-0.3,0.1-0.3-0.1-0.3-0.4c0-0.2-0.1-0.2-0.1-0.3c0,0-0.1-0.1-0.1-0.1
				c-0.2-0.4,0-0.3-0.3-0.6c-0.3-0.2,0-0.4-0.1-0.6c-0.2-0.3-0.1-0.2-0.2-0.5c0-0.1-0.1-0.2-0.1-0.3c-0.1-0.1-0.1-0.2,0.1-0.3
				c0.3-0.1,0.2-0.1,0.3-0.3c0.2-0.6,0.1-0.2-0.2-0.5c-0.1-0.1,0-0.3,0.1-0.4c0.2-0.3,0.3-0.3,0.5-0.3c0,0,0.1,0,0.1,0
				c0.2-0.1,0.1-0.2,0.2-0.6c0-0.4,0.1-0.6,0.3-0.8c0.1-0.2,0.1-0.4,0-0.6c-0.2-0.4-0.6,0-0.5-0.6c0.1-0.5,0.2-0.5,0.3-0.8
				c0.1-0.2,0-0.4,0-0.6c-0.2-0.7-0.1-0.6,0.2-1.2c0.1-0.2,0.2-0.4,0.3-0.6c0.1-0.2,0.1-0.4,0.1-0.6c0.2-0.2,0.2-0.3,0.2-0.6
				c0-0.4,0.2-0.4,0.2-0.7c0-0.3-0.1-0.3-0.2-0.5c0-0.1,0-0.3,0-0.3c0.2-0.4,0.3-0.3,0.2-0.7c-0.1-0.3,0.1-0.5,0.2-0.8
				c0-0.1,0.1-0.1,0.1-0.2c0.1-0.4,0.2-0.8,0.3-1.3c0.1-0.3,0.1-0.6,0-0.9c0-0.2,0-0.4,0-0.5c0.1-0.3,0.2-0.3,0.2-0.6
				c0-0.2-0.1-0.5,0-0.7c0.2-0.4,0-0.8,0-1.3c0-0.4-0.2-0.6-0.5-0.9c-0.1,0-0.1-0.1-0.2-0.2c-0.4-0.3-0.8-0.7-1.3-0.8
				c-0.1,0-0.1-0.1-0.2-0.1c-0.4-0.1-0.5,0-0.9-0.5c-0.1-0.2-0.2-0.3-0.4-0.5c-0.2-0.3,0.2-0.3,0-0.7c-0.1-0.1-0.3-0.3-0.4-0.4
				c-0.4-0.6-0.7-1.2-0.9-1.7c-0.4-0.8-0.8-1.6-1.4-2.1c-0.3,0-0.3-0.2-0.3-0.4c0-0.2-0.1-0.4-0.2-0.5c-0.3-0.5,0.4-0.7,0.8-0.8
				c0.2-0.2,0.2-0.3,0-0.5c-0.1,0-0.2-0.1-0.3-0.1c-0.5-0.2-0.3-0.8-0.1-1c0.2-0.2,0.3-0.4,0.3-0.7c0.1-0.4,0.1-0.4,0.3-0.5
				c0.4-0.1,0.3-0.1,0.5-0.5c0-0.3,0-0.3,0.3-0.4c0,0,0.1,0,0.1,0c0.7-0.6,0.6-0.9,0.5-1.8c0-0.4-0.1-0.6-0.3-1
				c-0.1-0.2-0.3-0.2-0.3-0.3c0,0,0-0.1,0-0.1c0-0.4,0.1-0.3-0.2-0.7c-0.3-0.2-0.6-0.2-0.8,0.2c0,0.1,0,0.2-0.1,0.3
				c-0.3,0.2-0.2,0-0.1,0.5c0,0.1,0,0.2,0,0.2c-0.4,0.3-0.3-0.2-0.5-0.3c-0.3-0.1-0.2,0.1-0.5-0.2c-0.1-0.1-0.2-0.1-0.4-0.1h-0.3
				c-0.1,0-0.2-0.1-0.3-0.3c-0.2-0.2,0-0.3-0.3-0.4c-0.1,0-0.1,0-0.2,0c-0.4-0.3-0.1-0.3-0.4-0.2c-0.2,0-0.4-0.1-0.4-0.4
				c0.1-0.7,0-0.6-0.6-1c-0.2-0.2-0.3-0.4-0.4-0.7c-0.1-0.3-0.2-0.2-0.5-0.2c-0.2,0-0.6-0.1-0.8-0.3c-0.5-0.3-0.6-0.3-1-0.3
				c-0.4-0.1-0.7-0.6-0.9-0.8c-0.2-0.4-0.7-0.6-1.1-0.5c-0.4,0.1-0.4,0.4-0.9,0.4c-0.3-0.1-0.5-0.4-1.1-0.5
				c-0.5-0.1-0.8-0.3-1.2-0.5c-0.5-0.2-0.5-0.5-0.9-0.6c-0.9-0.2-0.5-0.1-0.9-0.6c-0.1-0.1-0.2-0.1-0.3-0.2
				c-0.3-0.2-0.6-0.5-0.4-0.8c0.3-0.3,0.3-0.5,0.2-0.8c-0.1-0.2-0.1-0.4-0.1-0.6c0-0.2-0.4-0.6-0.5-0.8c-0.2-0.3-0.5-0.7-0.7-1
				c-0.9-0.4,0.1-0.5-0.4-1c-0.2,0-0.3-0.1-0.3-0.3c-0.1-0.4,0-0.4-0.3-0.7c-0.1-0.1-0.2-0.2-0.3-0.4c-0.1-0.2-0.2-0.4-0.2-0.7
				c0-0.2,0-0.3,0-0.5c0-0.5,0.1-0.4-0.4-0.6c-0.1,0-0.2-0.1-0.3-0.1c0,0-0.1,0-0.1,0c-0.1,0.1-0.1,0.2-0.1,0.4c0,0.4,0,0.5,0.1,0.8
				c0.1,0.1,0.2,0.3,0.2,0.4c0.3,0.3,0.3,0.3,0.3,0.7c0,0.3,0,0.4,0.2,0.7c0.5,0.7,0.3,0.7,0.5,1.3c0,0.3,0,0.5-0.2,0.5
				c-0.2,0.1-0.4,0-0.6-0.1c-0.2-0.2-0.1-0.3,0.1-0.5c0.2-0.4-0.3-0.8-0.6-0.9c-0.4-0.3-0.6-0.5-0.2-0.9c0.3-0.3,0.1-0.5-0.1-0.7
				c-0.4-0.4-0.5-0.4-0.4-0.7c0-0.3,0-0.4,0-0.5c-2.5,0.7-5.1,1.6-7.6,2.6v43.7c3.3,1.3,6.5,2.3,9.7,3.2c5,1.3,9.9,2.2,15,2.5
				c1,0.1,2,0.1,3,0.2c0.9,0,1.8,0,2.7,0H69c0.2,0,0.3-0.1,0.5-0.1c0.7,0.1,0.1-0.5,0.4-0.7c0,0,0.1,0,0.2,0c0.3-0.1,0.2,0,0.4,0.2
				c0.2,0.3,0.3,0.4,0.5,0.6h0.3c1.5-0.1,2.9-0.2,4.4-0.3c7.7-0.7,15.4-2.6,23-5.5V28.5C90.9,25.5,83.2,23.7,75.5,22.9 M62.8,32
				c-0.1,0-0.2,0.1-0.2,0.1c-0.1,0.1-0.1,0.2-0.2,0.2c-0.3,0.2-0.4-0.1,0-0.3c0.1-0.1,0.2-0.1,0.3-0.1C63,31.7,63.3,31.9,62.8,32
				 M67.2,33.7c-0.3,0-0.3,0-0.6,0c-0.4,0.1-0.5,0-0.4-0.3c0.1-0.3-0.6-0.2-0.7-0.3c0,0,0-0.1,0-0.1v0c-0.2-0.3-0.1-0.2-0.6-0.2
				c-0.1,0-0.3,0-0.4-0.2c-0.2-0.2-0.3-0.3-0.7-0.3c-0.3,0-0.6-0.5-0.3-0.6c0.5-0.1,0.3,0.2,0.8,0.2c0.3,0,0.4,0.1,0.6,0.3
				c0.1,0.1,0.3,0.2,0.5,0.2c0.1,0,0.1,0,0.1,0c0.1,0,0.2,0.1,0.4,0.2c0.1,0.1,0.2,0.1,0.2,0.2c0.2,0.2,0.3,0.3,0.6,0.3
				c0.3,0.1,0.3,0,0.6,0.2C67.6,33.5,67.9,33.6,67.2,33.7 M68.5,34.7c-0.1,0-0.2,0-0.3,0c-0.2,0-0.3,0-0.3-0.1
				c0-0.2,0.1-0.1,0.3-0.1h0c0.1,0,0.1,0,0.2,0.1C68.4,34.6,68.5,34.6,68.5,34.7C68.8,34.7,68.7,34.8,68.5,34.7 M70.4,34.5
				c-0.4,0-0.5-0.1-0.6,0.1c0,0.1-0.1,0.1-0.1,0.2c0,0.1-0.1,0.1-0.3,0c-0.3-0.1-0.5-0.3-0.5-0.4c0-0.1,0-0.2-0.1-0.2
				c-0.4-0.9-0.2-0.2,0.8-0.4c0,0,0.1,0,0.1,0c0.3-0.1,0.3-0.1,0.6,0.2c0.1,0.1,0.1,0.1,0.2,0.2C71.4,34.4,70.6,34.6,70.4,34.5
				 M71.2,34.5c-0.1,0-0.1-0.1-0.1-0.1c0-0.1,0.1-0.2,0.1-0.2c0.1,0,0.1,0.1,0.1,0.2C71.3,34.5,71.3,34.5,71.2,34.5 M68.2,71.4
				L68.2,71.4c0.1-0.1,0.1-0.1,0.1-0.2c0-0.2,0.1-0.1,0.1,0.1c0,0.2,0,0.6-0.2,0.6c-0.3,0-0.2,0-0.1-0.2
				C68.1,71.5,68,71.5,68.2,71.4 M47.8,31.1c-0.1,0.1-0.2,0.1-0.2,0c0,0,0,0,0-0.1c-0.1-0.3-0.3-0.1-0.3-0.4
				c0.1-0.2,0.2-0.3,0.3-0.2c0.1,0.1,0.2,0.2,0.2,0.2C47.9,30.9,48,31,47.8,31.1 M76.2,74.2c-0.2,0.3-0.3,0.2-0.6,0.2h-0.1
				c-0.2,0-0.2,0.3-0.5,0.1c-0.2-0.2-0.3-0.3-0.2-0.4c0.1-0.2,0.1-0.2,0.2-0.2c0.2,0.1,0.3,0,0.5,0c0.1,0,0.2-0.1,0.2-0.1
				C76.3,73.6,76.3,73.9,76.2,74.2"/>
			<polygon class="st1" points="45,89.7 45,91.8 40.5,91.8 40.5,94.5 44.6,94.5 44.6,96.5 40.5,96.5 40.5,100.8 37.9,100.8 
				37.9,89.7 			"/>
			<polygon class="st1" points="47.3,89.7 50,89.7 50,98.7 53.8,98.7 53.8,100.8 47.3,100.8 			"/>
			<path class="st1" d="M59.1,89.7H62l4,11h-2.8l-0.7-2.4h-3.7l-0.8,2.4h-2.8L59.1,89.7z M59.2,96.5h2.5l-0.4-1.3
				c-0.1-0.4-0.3-0.9-0.4-1.4c-0.1-0.5-0.3-0.9-0.4-1.3h0c-0.1,0.4-0.2,0.8-0.4,1.3c-0.2,0.5-0.3,0.9-0.4,1.4L59.2,96.5z"/>
			<path class="st1" d="M72.6,98.9c0.5,0,1,0,1.3-0.1c0.4-0.1,0.7-0.2,0.9-0.4l0.5,1.9c-0.2,0.1-0.6,0.3-1.1,0.4
				c-0.5,0.1-1.2,0.2-1.9,0.2c-0.9,0-1.7-0.1-2.4-0.4c-0.7-0.3-1.3-0.6-1.9-1.1c-0.5-0.5-0.9-1.1-1.2-1.8c-0.3-0.7-0.4-1.5-0.4-2.4
				c0-0.9,0.1-1.6,0.4-2.3c0.3-0.7,0.7-1.3,1.2-1.8c0.5-0.5,1.1-0.9,1.9-1.2c0.7-0.3,1.5-0.4,2.5-0.4c0.8,0,1.4,0.1,1.9,0.2
				c0.5,0.1,0.9,0.3,1.1,0.4l-0.6,1.9c-0.3-0.2-0.6-0.3-1-0.4c-0.4-0.1-0.8-0.2-1.2-0.2c-0.5,0-0.9,0.1-1.3,0.2
				c-0.4,0.1-0.8,0.3-1.1,0.6c-0.3,0.3-0.5,0.7-0.7,1.1c-0.2,0.5-0.3,1-0.3,1.7c0,0.6,0.1,1.2,0.3,1.6c0.2,0.5,0.4,0.9,0.7,1.2
				c0.3,0.3,0.7,0.5,1.1,0.7C71.7,98.9,72.1,98.9,72.6,98.9"/>
			<path class="st1" d="M81.4,89.5c0.8,0,1.4,0.1,2,0.2c0.6,0.2,1,0.3,1.5,0.6l-0.6,1.9c-0.5-0.2-0.9-0.4-1.4-0.6
				c-0.5-0.1-0.9-0.2-1.3-0.2c-0.5,0-0.9,0.1-1.2,0.3C80.1,92,80,92.3,80,92.6c0,0.4,0.1,0.6,0.4,0.8c0.3,0.2,0.7,0.4,1.2,0.5l1,0.3
				c0.4,0.1,0.8,0.3,1.1,0.5c0.3,0.2,0.7,0.4,0.9,0.7c0.3,0.3,0.4,0.6,0.6,0.9c0.1,0.3,0.2,0.7,0.2,1.1c0,0.5-0.1,0.9-0.3,1.3
				c-0.2,0.4-0.4,0.8-0.8,1.1c-0.4,0.3-0.8,0.6-1.4,0.7c-0.5,0.2-1.2,0.3-1.9,0.3c-0.7,0-1.3-0.1-2-0.2c-0.6-0.2-1.2-0.4-1.7-0.6
				l0.6-1.9c0.5,0.2,1,0.4,1.5,0.6c0.5,0.1,1,0.2,1.5,0.2c0.6,0,1.1-0.1,1.3-0.3c0.3-0.2,0.4-0.5,0.4-0.8c0-0.1,0-0.2-0.1-0.4
				c0-0.1-0.1-0.2-0.3-0.3c-0.1-0.1-0.3-0.2-0.6-0.3c-0.2-0.1-0.5-0.2-0.9-0.3l-0.9-0.3c-0.4-0.2-0.8-0.3-1.1-0.5
				c-0.4-0.2-0.7-0.4-0.9-0.7c-0.3-0.3-0.4-0.6-0.6-0.9c-0.1-0.3-0.2-0.7-0.2-1.2c0-0.5,0.1-0.9,0.3-1.3c0.2-0.4,0.4-0.8,0.8-1.1
				c0.4-0.3,0.8-0.5,1.3-0.7C80.2,89.6,80.8,89.5,81.4,89.5"/>
			<path class="st1" d="M93.1,89.5c0.8,0,1.5,0.1,2.2,0.4c0.7,0.3,1.3,0.6,1.8,1.1c0.5,0.5,0.9,1.1,1.1,1.8c0.3,0.7,0.4,1.5,0.4,2.4
				c0,0.9-0.1,1.7-0.4,2.4c-0.3,0.7-0.7,1.3-1.2,1.8c-0.5,0.5-1.1,0.9-1.8,1.1c-0.7,0.3-1.4,0.4-2.2,0.4c-0.8,0-1.5-0.1-2.2-0.4
				c-0.7-0.3-1.3-0.6-1.8-1.1c-0.5-0.5-0.9-1.1-1.1-1.8c-0.3-0.7-0.4-1.5-0.4-2.4c0-0.9,0.1-1.7,0.4-2.4c0.3-0.7,0.7-1.3,1.2-1.8
				c0.5-0.5,1.1-0.9,1.8-1.2C91.6,89.7,92.3,89.5,93.1,89.5 M90.3,95.3c0,0.6,0.1,1.2,0.2,1.6c0.1,0.5,0.3,0.9,0.6,1.2
				c0.3,0.3,0.6,0.5,0.9,0.7c0.3,0.1,0.7,0.2,1.1,0.2c0.4,0,0.7-0.1,1.1-0.2c0.3-0.2,0.6-0.4,0.9-0.7c0.2-0.3,0.4-0.7,0.6-1.2
				c0.1-0.5,0.2-1,0.2-1.6c0-0.6-0.1-1.2-0.2-1.7c-0.1-0.5-0.3-0.9-0.6-1.2c-0.3-0.3-0.5-0.5-0.9-0.7c-0.3-0.2-0.7-0.2-1.1-0.2
				c-0.4,0-0.7,0.1-1.1,0.2c-0.3,0.2-0.6,0.4-0.9,0.7c-0.2,0.3-0.4,0.7-0.6,1.2C90.4,94.1,90.3,94.7,90.3,95.3"/>
			<path class="st1" d="M40.1,107h0.6l2.3,6h-0.7l-0.7-1.7h-2.6l-0.7,1.7h-0.7L40.1,107z M39.3,110.7h2.2l-0.5-1.3
				c-0.1-0.2-0.2-0.5-0.3-0.8c-0.1-0.3-0.2-0.6-0.3-0.9h0c-0.1,0.2-0.1,0.3-0.1,0.5c-0.1,0.1-0.1,0.3-0.2,0.4c0,0.1-0.1,0.3-0.1,0.4
				c0,0.1-0.1,0.3-0.2,0.4L39.3,110.7z"/>
			<path class="st1" d="M45.9,107h1.8c0.3,0,0.6,0,0.8,0.1c0.2,0.1,0.4,0.2,0.6,0.4c0.2,0.2,0.3,0.3,0.4,0.5
				c0.1,0.2,0.1,0.4,0.1,0.7c0,0.2,0,0.4-0.1,0.6c-0.1,0.2-0.2,0.3-0.3,0.5c-0.1,0.1-0.3,0.3-0.4,0.4c-0.2,0.1-0.3,0.2-0.5,0.2
				L50,113h-0.8l-1.5-2.4h-1.2v2.4h-0.6V107z M46.5,110h0.9c0.2,0,0.4,0,0.6-0.1c0.2,0,0.3-0.1,0.5-0.2c0.1-0.1,0.2-0.2,0.3-0.4
				c0.1-0.2,0.1-0.3,0.1-0.6c0-0.4-0.1-0.7-0.4-0.9c-0.2-0.2-0.6-0.3-1.1-0.3h-1V110z"/>
			<path class="st1" d="M55.4,107c0.3,0,0.6,0,0.9,0.1c0.3,0,0.5,0.1,0.8,0.3l-0.2,0.5c-0.2-0.1-0.4-0.2-0.7-0.2
				c-0.2-0.1-0.5-0.1-0.7-0.1c-0.3,0-0.6,0-0.9,0.1c-0.3,0.1-0.5,0.2-0.7,0.4c-0.2,0.2-0.4,0.4-0.5,0.8c-0.1,0.3-0.2,0.7-0.2,1.1
				c0,0.4,0.1,0.7,0.2,1c0.1,0.3,0.3,0.6,0.5,0.8c0.2,0.2,0.4,0.4,0.7,0.5c0.3,0.1,0.6,0.2,0.9,0.2c0.2,0,0.5,0,0.6,0
				c0.2,0,0.3-0.1,0.5-0.1v-1.9h-1.2v-0.5h1.9v2.8c-0.2,0.1-0.5,0.2-0.8,0.2c-0.3,0.1-0.6,0.1-1,0.1c-0.4,0-0.8-0.1-1.1-0.2
				c-0.4-0.1-0.7-0.3-0.9-0.6c-0.3-0.3-0.5-0.6-0.6-0.9c-0.2-0.4-0.2-0.8-0.2-1.3c0-0.5,0.1-0.9,0.2-1.3c0.1-0.4,0.4-0.7,0.6-0.9
				c0.3-0.3,0.6-0.4,0.9-0.6C54.6,107,55,107,55.4,107"/>
			<polygon class="st1" points="60.4,107 63.9,107 63.9,107.5 61.1,107.5 61.1,109.6 63.7,109.6 63.7,110.2 61.1,110.2 61.1,112.4 
				63.9,112.4 63.9,113 60.4,113 			"/>
			<path class="st1" d="M67,107h0.6l2.7,3.9c0.1,0.2,0.2,0.4,0.4,0.5c0.1,0.2,0.2,0.4,0.3,0.5h0c0-0.2,0-0.5,0-0.7
				c0-0.2,0-0.5,0-0.7V107h0.7v6H71l-2.6-3.8c-0.1-0.2-0.3-0.4-0.4-0.6c-0.1-0.2-0.3-0.4-0.4-0.7h0c0,0.3,0,0.6,0,0.8
				c0,0.3,0,0.6,0,0.8v3.3H67V107z"/>
			<polygon class="st1" points="79,107 79,107.6 77,107.6 77,113 76.3,113 76.3,107.6 74.4,107.6 74.4,107 			"/>
			<rect x="81.7" y="107" class="st1" width="0.7" height="6"/>
			<path class="st1" d="M85.8,107h0.6l2.7,3.9c0.1,0.2,0.2,0.4,0.4,0.5c0.1,0.2,0.2,0.4,0.3,0.5h0c0-0.2,0-0.5,0-0.7
				c0-0.2,0-0.5,0-0.7V107h0.7v6h-0.6l-2.6-3.8c-0.1-0.2-0.3-0.4-0.4-0.6c-0.1-0.2-0.3-0.4-0.4-0.7h0c0,0.3,0,0.6,0,0.8
				c0,0.3,0,0.6,0,0.8v3.3h-0.7V107z"/>
			<path class="st1" d="M95.6,107h0.6l2.3,6h-0.7l-0.7-1.7h-2.6L94,113h-0.7L95.6,107z M94.8,110.7H97l-0.5-1.3
				c-0.1-0.2-0.2-0.5-0.3-0.8c-0.1-0.3-0.2-0.6-0.3-0.9h0c0,0.2-0.1,0.3-0.2,0.5c0,0.1-0.1,0.3-0.1,0.4c-0.1,0.1-0.1,0.3-0.1,0.4
				c0,0.1-0.1,0.3-0.2,0.4L94.8,110.7z"/>
		</g>
	</g>
</g>
<g>
	<g>
		<rect x="138.3" class="st6" width="135.6" height="135.6"/>
		<text transform="matrix(1 0 0 1 155.3535 35.6558)"><tspan x="0" y="0" class="st1 st2 st7">F</tspan><tspan x="5.4" y="0" class="st1 st2 st7">acultad </tspan></text>
		<text transform="matrix(1 0 0 1 155.3535 47.5474)" class="st1 st2 st7">Latinoamericana de</text>
		<text transform="matrix(1 0 0 1 155.3535 59.4399)" class="st1 st2 st7">Ciencias Sociales.</text>
		<text transform="matrix(1 0 0 1 155.3535 71.3311)"><tspan x="0" y="0" class="st1 st2 st7">Sede A</tspan><tspan x="32.2" y="0" class="st1 st2 st7">r</tspan><tspan x="35.6" y="0" class="st1 st2 st7">gentina.</tspan></text>
		<text transform="matrix(1 0 0 1 155.3535 95.834)"><tspan x="0" y="0" class="st1 st4 st8">Programa</tspan><tspan x="0" y="14.2" class="st1 st4 st8">Educación a Distancia.</tspan></text>
	</g>
</g>
</svg>
