<?xml version="1.0" encoding="utf-8"?>
<!-- Generator: Adobe Illustrator 26.1.0, SVG Export Plug-In . SVG Version: 6.00 Build 0)  -->
<!DOCTYPE svg PUBLIC "-//W3C//DTD SVG 1.1//EN" "http://www.w3.org/Graphics/SVG/1.1/DTD/svg11.dtd" [
	<!ENTITY ns_extend "http://ns.adobe.com/Extensibility/1.0/">
	<!ENTITY ns_ai "http://ns.adobe.com/AdobeIllustrator/10.0/">
	<!ENTITY ns_graphs "http://ns.adobe.com/Graphs/1.0/">
	<!ENTITY ns_vars "http://ns.adobe.com/Variables/1.0/">
	<!ENTITY ns_imrep "http://ns.adobe.com/ImageReplacement/1.0/">
	<!ENTITY ns_sfw "http://ns.adobe.com/SaveForWeb/1.0/">
	<!ENTITY ns_custom "http://ns.adobe.com/GenericCustomNamespace/1.0/">
	<!ENTITY ns_adobe_xpath "http://ns.adobe.com/XPath/1.0/">
]>
<svg version="1.1" id="Capa_1" xmlns:x="&ns_extend;" xmlns:i="&ns_ai;" xmlns:graph="&ns_graphs;"
	 xmlns="http://www.w3.org/2000/svg" xmlns:xlink="http://www.w3.org/1999/xlink" x="0px" y="0px" viewBox="0 0 154.9 224.7"
	 style="enable-background:new 0 0 154.9 224.7;" xml:space="preserve">
<style type="text/css">
	.st0{fill:#FFFFFF;stroke:#231F20;stroke-width:12.1789;stroke-miterlimit:10;}
	.st1{fill-rule:evenodd;clip-rule:evenodd;fill:#FFFFFF;stroke:#231F20;stroke-width:12.1789;stroke-miterlimit:10;}
</style>
<metadata>
	<sfw  xmlns="&ns_sfw;">
		<slices></slices>
		<sliceSourceBounds  bottomLeftOrigin="true" height="213.9" width="147.4" x="823.6" y="-558.7"></sliceSourceBounds>
	</sfw>
</metadata>
<g id="xaiixL_2_">
	<g>
		<path class="st0" d="M77.4,207.5c8.5-13.8,16.8-27,25-40.3c11.3-18.3,23-36.4,33.8-55c7.3-12.6,10.1-26.3,8.4-40.8
			c-4.2-37.5-38-64.1-75.4-59.6C23,17.4-3.7,66.7,16.7,108.4c4.8,9.8,11.1,18.7,16.7,28c10.8,17.7,21.7,35.2,32.6,52.8
			C69.8,195.2,73.4,201.2,77.4,207.5z"/>
		<path class="st1" d="M77.4,207.5c-3.9-6.3-7.6-12.3-11.3-18.2c-10.9-17.6-21.8-35.2-32.6-52.8c-5.7-9.3-11.9-18.2-16.7-28
			c-20.4-41.7,6.3-91,52.4-96.6c37.5-4.6,71.2,22.1,75.4,59.6c1.6,14.5-1.2,28.2-8.4,40.8c-10.8,18.6-22.5,36.7-33.8,55
			C94.2,180.5,85.9,193.7,77.4,207.5z M110.8,79c0-18.5-14.8-33.4-33.1-33.5c-18.8-0.1-33.7,14.8-33.7,33.5
			c0,18.4,15,33.4,33.3,33.4C95.8,112.4,110.8,97.5,110.8,79z"/>
		<path class="st1" d="M110.8,79c0,18.5-15,33.4-33.6,33.4c-18.3,0-33.3-15.1-33.3-33.4c0-18.7,15-33.6,33.7-33.5
			C96,45.5,110.8,60.5,110.8,79z"/>
	</g>
</g>
</svg>
