<?xml version="1.0" encoding="utf-8"?>
<!-- Generator: Adobe Illustrator 25.4.1, SVG Export Plug-In . SVG Version: 6.00 Build 0)  -->
<!DOCTYPE svg PUBLIC "-//W3C//DTD SVG 1.1//EN" "http://www.w3.org/Graphics/SVG/1.1/DTD/svg11.dtd" [
	<!ENTITY ns_extend "http://ns.adobe.com/Extensibility/1.0/">
	<!ENTITY ns_ai "http://ns.adobe.com/AdobeIllustrator/10.0/">
	<!ENTITY ns_graphs "http://ns.adobe.com/Graphs/1.0/">
	<!ENTITY ns_vars "http://ns.adobe.com/Variables/1.0/">
	<!ENTITY ns_imrep "http://ns.adobe.com/ImageReplacement/1.0/">
	<!ENTITY ns_sfw "http://ns.adobe.com/SaveForWeb/1.0/">
	<!ENTITY ns_custom "http://ns.adobe.com/GenericCustomNamespace/1.0/">
	<!ENTITY ns_adobe_xpath "http://ns.adobe.com/XPath/1.0/">
]>
<svg version="1.1" id="Capa_1" xmlns:x="&ns_extend;" xmlns:i="&ns_ai;" xmlns:graph="&ns_graphs;"
	 xmlns="http://www.w3.org/2000/svg" xmlns:xlink="http://www.w3.org/1999/xlink" x="0px" y="0px" viewBox="0 0 410.6 135.7"
	 style="enable-background:new 0 0 410.6 135.7;" xml:space="preserve">
<style type="text/css">
	.st0{fill:#DA522A;}
	.st1{enable-background:new    ;}
	.st2{fill:#FFFFFF;}
	.st3{fill:#EFCC30;}
	.st4{fill:#1B2F4E;}
</style>
<metadata>
	<sfw  xmlns="&ns_sfw;">
		<slices></slices>
		<sliceSourceBounds  bottomLeftOrigin="true" height="135.7" width="410.6" x="0" y="0"></sliceSourceBounds>
	</sfw>
</metadata>
<g>
	<g>
		<rect x="274.9" class="st0" width="135.7" height="135.7"/>
		<g class="st1">
			<path class="st2" d="M296.7,32h-2.8v3.7h-1v-8.3h4.3v0.9h-3.3v2.8h2.8V32z"/>
		</g>
		<g class="st1">
			<path class="st2" d="M301.3,35.7c-0.1-0.1-0.1-0.4-0.1-0.7c-0.4,0.5-0.8,0.8-1.4,0.8c-0.6,0-1-0.2-1.3-0.5
				c-0.3-0.3-0.5-0.8-0.5-1.3c0-0.6,0.2-1.1,0.6-1.5c0.4-0.4,1-0.6,1.8-0.6h0.7v-0.7c0-0.4-0.1-0.6-0.2-0.8s-0.4-0.2-0.7-0.2
				c-0.3,0-0.6,0.1-0.7,0.3s-0.3,0.4-0.3,0.7h-1c0-0.3,0.1-0.6,0.3-0.9c0.2-0.3,0.4-0.5,0.8-0.7c0.3-0.2,0.7-0.2,1.1-0.2
				c0.6,0,1.1,0.2,1.4,0.5c0.3,0.3,0.5,0.8,0.5,1.4v3.1c0,0.5,0.1,0.9,0.2,1.2v0.1H301.3z M299.9,34.9c0.2,0,0.5-0.1,0.7-0.2
				s0.4-0.3,0.5-0.5v-1.5h-0.6c-0.5,0-0.9,0.1-1.1,0.3c-0.3,0.2-0.4,0.5-0.4,0.9c0,0.4,0.1,0.6,0.2,0.8S299.6,34.9,299.9,34.9z"/>
			<path class="st2" d="M305.8,34.9c0.3,0,0.6-0.1,0.8-0.3c0.2-0.2,0.3-0.5,0.3-0.9h1c0,0.6-0.2,1.1-0.6,1.5
				c-0.4,0.4-0.9,0.6-1.5,0.6c-0.8,0-1.3-0.2-1.8-0.7c-0.4-0.5-0.6-1.2-0.6-2.1v-0.7c0-0.9,0.2-1.6,0.6-2.1s1-0.7,1.7-0.7
				c0.6,0,1.1,0.2,1.5,0.6c0.4,0.4,0.6,0.9,0.6,1.6h-1c0-0.5-0.1-0.8-0.3-1c-0.2-0.2-0.5-0.3-0.8-0.3c-0.4,0-0.8,0.1-1,0.4
				c-0.2,0.3-0.3,0.8-0.3,1.5V33c0,0.7,0.1,1.2,0.3,1.5S305.4,34.9,305.8,34.9z"/>
			<path class="st2" d="M312.2,35.2c-0.3,0.4-0.8,0.7-1.5,0.7c-0.6,0-1-0.2-1.3-0.6c-0.3-0.4-0.4-0.9-0.4-1.7v-4h1v4
				c0,1,0.3,1.4,0.9,1.4c0.6,0,1-0.3,1.3-0.8v-4.6h1v6.2h-1L312.2,35.2z"/>
			<path class="st2" d="M315.8,35.7h-1v-8.8h1V35.7z"/>
			<path class="st2" d="M318.7,28v1.5h0.9v0.8h-0.9v3.8c0,0.2,0,0.4,0.1,0.6s0.2,0.2,0.4,0.2c0.1,0,0.3,0,0.4-0.1l0,0.9
				c-0.2,0.1-0.5,0.1-0.7,0.1c-0.4,0-0.7-0.1-0.9-0.4c-0.2-0.3-0.3-0.7-0.3-1.2v-3.8h-0.9v-0.8h0.9V28H318.7z"/>
			<path class="st2" d="M324.1,35.7c-0.1-0.1-0.1-0.4-0.1-0.7c-0.4,0.5-0.8,0.8-1.4,0.8c-0.6,0-1-0.2-1.3-0.5
				c-0.3-0.3-0.5-0.8-0.5-1.3c0-0.6,0.2-1.1,0.6-1.5s1-0.6,1.8-0.6h0.7v-0.7c0-0.4-0.1-0.6-0.2-0.8c-0.2-0.2-0.4-0.2-0.7-0.2
				c-0.3,0-0.6,0.1-0.7,0.3c-0.2,0.2-0.3,0.4-0.3,0.7h-1c0-0.3,0.1-0.6,0.3-0.9s0.4-0.5,0.8-0.7c0.3-0.2,0.7-0.2,1.1-0.2
				c0.6,0,1.1,0.2,1.4,0.5c0.3,0.3,0.5,0.8,0.5,1.4v3.1c0,0.5,0.1,0.9,0.2,1.2v0.1H324.1z M322.7,34.9c0.2,0,0.5-0.1,0.7-0.2
				s0.4-0.3,0.5-0.5v-1.5h-0.6c-0.5,0-0.9,0.1-1.1,0.3c-0.3,0.2-0.4,0.5-0.4,0.9c0,0.4,0.1,0.6,0.2,0.8S322.4,34.9,322.7,34.9z"/>
			<path class="st2" d="M326.3,32.3c0-1,0.2-1.7,0.5-2.2c0.4-0.5,0.9-0.7,1.5-0.7c0.6,0,1.1,0.2,1.4,0.7v-3.2h1v8.8h-0.9l-0.1-0.7
				c-0.3,0.5-0.8,0.8-1.4,0.8c-0.6,0-1.1-0.2-1.5-0.7s-0.5-1.2-0.6-2.1V32.3z M327.3,32.9c0,0.7,0.1,1.2,0.3,1.5
				c0.2,0.3,0.5,0.5,1,0.5c0.5,0,0.9-0.3,1.1-0.8V31c-0.3-0.5-0.6-0.7-1.1-0.7c-0.5,0-0.8,0.2-1,0.5c-0.2,0.3-0.3,0.8-0.3,1.5V32.9z
				"/>
		</g>
		<g class="st1">
			<path class="st2" d="M293.9,46.7h3.3v0.9h-4.3v-8.3h1.1V46.7z"/>
			<path class="st2" d="M301.4,47.6c-0.1-0.1-0.1-0.4-0.1-0.7c-0.4,0.5-0.8,0.8-1.4,0.8c-0.6,0-1-0.2-1.3-0.5
				c-0.3-0.3-0.5-0.8-0.5-1.3c0-0.6,0.2-1.1,0.6-1.5s1-0.6,1.8-0.6h0.7v-0.7c0-0.4-0.1-0.6-0.2-0.8c-0.2-0.2-0.4-0.2-0.7-0.2
				c-0.3,0-0.6,0.1-0.7,0.3c-0.2,0.2-0.3,0.4-0.3,0.7h-1c0-0.3,0.1-0.6,0.3-0.9c0.2-0.3,0.4-0.5,0.8-0.7c0.3-0.2,0.7-0.2,1.1-0.2
				c0.6,0,1.1,0.2,1.4,0.5c0.3,0.3,0.5,0.8,0.5,1.4v3.1c0,0.5,0.1,0.9,0.2,1.2v0.1H301.4z M300.1,46.8c0.2,0,0.5-0.1,0.7-0.2
				s0.4-0.3,0.5-0.5v-1.5h-0.6c-0.5,0-0.9,0.1-1.1,0.3c-0.3,0.2-0.4,0.5-0.4,0.9c0,0.4,0.1,0.6,0.2,0.8
				C299.5,46.7,299.7,46.8,300.1,46.8z"/>
			<path class="st2" d="M305.2,39.9v1.5h0.9v0.8h-0.9v3.8c0,0.2,0,0.4,0.1,0.6s0.2,0.2,0.4,0.2c0.1,0,0.3,0,0.4-0.1l0,0.9
				c-0.2,0.1-0.5,0.1-0.7,0.1c-0.4,0-0.7-0.1-0.9-0.4c-0.2-0.3-0.3-0.7-0.3-1.2v-3.8h-0.9v-0.8h0.9v-1.5H305.2z"/>
			<path class="st2" d="M308.5,39.8c0,0.2,0,0.3-0.1,0.4c-0.1,0.1-0.2,0.2-0.4,0.2c-0.2,0-0.3-0.1-0.4-0.2c-0.1-0.1-0.1-0.3-0.1-0.4
				c0-0.2,0-0.3,0.1-0.4c0.1-0.1,0.2-0.2,0.4-0.2c0.2,0,0.3,0.1,0.4,0.2C308.4,39.5,308.5,39.6,308.5,39.8z M308.4,47.6h-1v-6.2h1
				V47.6z"/>
			<path class="st2" d="M310.9,41.4l0,0.7c0.4-0.5,0.9-0.8,1.5-0.8c1.1,0,1.6,0.7,1.7,2.2v4.1h-1v-4.1c0-0.5-0.1-0.8-0.2-1
				c-0.2-0.2-0.4-0.3-0.7-0.3c-0.3,0-0.5,0.1-0.7,0.3c-0.2,0.2-0.4,0.4-0.5,0.7v4.5h-1v-6.2H310.9z"/>
			<path class="st2" d="M315.4,44.2c0-0.9,0.2-1.6,0.7-2.1s1-0.8,1.7-0.8c0.7,0,1.3,0.3,1.7,0.8c0.4,0.5,0.7,1.2,0.7,2.1v0.7
				c0,0.9-0.2,1.6-0.7,2.1s-1,0.8-1.7,0.8c-0.7,0-1.3-0.3-1.7-0.8c-0.4-0.5-0.7-1.2-0.7-2.1V44.2z M316.4,44.8
				c0,0.6,0.1,1.1,0.4,1.5c0.2,0.4,0.6,0.5,1,0.5c0.9,0,1.3-0.6,1.4-1.9v-0.7c0-0.6-0.1-1.1-0.4-1.5c-0.3-0.4-0.6-0.6-1-0.6
				c-0.4,0-0.7,0.2-1,0.6c-0.2,0.4-0.4,0.9-0.4,1.5V44.8z"/>
			<path class="st2" d="M324.7,47.6c-0.1-0.1-0.1-0.4-0.1-0.7c-0.4,0.5-0.8,0.8-1.4,0.8c-0.6,0-1-0.2-1.3-0.5
				c-0.3-0.3-0.5-0.8-0.5-1.3c0-0.6,0.2-1.1,0.6-1.5s1-0.6,1.8-0.6h0.7v-0.7c0-0.4-0.1-0.6-0.2-0.8c-0.2-0.2-0.4-0.2-0.7-0.2
				c-0.3,0-0.6,0.1-0.7,0.3c-0.2,0.2-0.3,0.4-0.3,0.7h-1c0-0.3,0.1-0.6,0.3-0.9c0.2-0.3,0.4-0.5,0.8-0.7c0.3-0.2,0.7-0.2,1.1-0.2
				c0.6,0,1.1,0.2,1.4,0.5c0.3,0.3,0.5,0.8,0.5,1.4v3.1c0,0.5,0.1,0.9,0.2,1.2v0.1H324.7z M323.3,46.8c0.2,0,0.5-0.1,0.7-0.2
				s0.4-0.3,0.5-0.5v-1.5H324c-0.5,0-0.9,0.1-1.1,0.3c-0.3,0.2-0.4,0.5-0.4,0.9c0,0.4,0.1,0.6,0.2,0.8
				C322.8,46.7,323,46.8,323.3,46.8z"/>
			<path class="st2" d="M328.1,41.4l0,0.6c0.4-0.5,0.9-0.7,1.5-0.7c0.7,0,1.2,0.3,1.4,0.9c0.4-0.6,0.9-0.9,1.6-0.9
				c1.1,0,1.7,0.7,1.7,2.1v4.2h-1v-4.1c0-0.4-0.1-0.8-0.2-1c-0.2-0.2-0.4-0.3-0.8-0.3c-0.3,0-0.6,0.1-0.7,0.4
				c-0.2,0.2-0.3,0.5-0.3,0.9v4.1h-1v-4.1c0-0.9-0.4-1.3-1-1.3c-0.5,0-0.9,0.3-1.1,0.8v4.6h-1v-6.2H328.1z"/>
			<path class="st2" d="M338.1,47.7c-0.8,0-1.4-0.2-1.8-0.7c-0.4-0.5-0.6-1.1-0.6-2v-0.7c0-0.9,0.2-1.6,0.6-2.2
				c0.4-0.5,1-0.8,1.7-0.8c0.7,0,1.3,0.2,1.6,0.7c0.4,0.5,0.5,1.2,0.5,2.2v0.7h-3.4V45c0,0.7,0.1,1.1,0.4,1.4
				c0.2,0.3,0.6,0.5,1.1,0.5c0.3,0,0.6-0.1,0.8-0.2s0.4-0.3,0.6-0.5l0.5,0.6C339.7,47.4,339,47.7,338.1,47.7z M338,42.2
				c-0.4,0-0.7,0.1-0.9,0.4c-0.2,0.3-0.3,0.7-0.3,1.3h2.4v-0.1c0-0.6-0.1-1-0.3-1.3C338.7,42.3,338.4,42.2,338,42.2z"/>
			<path class="st2" d="M343.9,42.4c-0.1,0-0.3,0-0.5,0c-0.5,0-0.9,0.3-1.1,0.9v4.4h-1v-6.2h1l0,0.6c0.3-0.5,0.7-0.7,1.1-0.7
				c0.2,0,0.3,0,0.4,0.1L343.9,42.4z"/>
			<path class="st2" d="M346.1,39.8c0,0.2,0,0.3-0.1,0.4s-0.2,0.2-0.4,0.2c-0.2,0-0.3-0.1-0.4-0.2c-0.1-0.1-0.1-0.3-0.1-0.4
				c0-0.2,0-0.3,0.1-0.4c0.1-0.1,0.2-0.2,0.4-0.2s0.3,0.1,0.4,0.2C346.1,39.5,346.1,39.6,346.1,39.8z M346,47.6h-1v-6.2h1V47.6z"/>
			<path class="st2" d="M349.8,46.8c0.3,0,0.6-0.1,0.8-0.3c0.2-0.2,0.3-0.5,0.3-0.9h1c0,0.6-0.2,1.1-0.6,1.5
				c-0.4,0.4-0.9,0.6-1.5,0.6c-0.8,0-1.3-0.2-1.8-0.7s-0.6-1.2-0.6-2.1v-0.7c0-0.9,0.2-1.6,0.6-2.1c0.4-0.5,1-0.7,1.7-0.7
				c0.6,0,1.1,0.2,1.5,0.6c0.4,0.4,0.6,0.9,0.6,1.6h-1c0-0.5-0.1-0.8-0.3-1c-0.2-0.2-0.5-0.3-0.8-0.3c-0.4,0-0.8,0.1-1,0.4
				s-0.3,0.8-0.3,1.5v0.8c0,0.7,0.1,1.2,0.3,1.5S349.3,46.8,349.8,46.8z"/>
			<path class="st2" d="M356.2,47.6c-0.1-0.1-0.1-0.4-0.1-0.7c-0.4,0.5-0.8,0.8-1.4,0.8c-0.6,0-1-0.2-1.3-0.5
				c-0.3-0.3-0.5-0.8-0.5-1.3c0-0.6,0.2-1.1,0.6-1.5c0.4-0.4,1-0.6,1.8-0.6h0.7v-0.7c0-0.4-0.1-0.6-0.2-0.8s-0.4-0.2-0.7-0.2
				c-0.3,0-0.6,0.1-0.7,0.3s-0.3,0.4-0.3,0.7h-1c0-0.3,0.1-0.6,0.3-0.9c0.2-0.3,0.4-0.5,0.8-0.7c0.3-0.2,0.7-0.2,1.1-0.2
				c0.6,0,1.1,0.2,1.4,0.5c0.3,0.3,0.5,0.8,0.5,1.4v3.1c0,0.5,0.1,0.9,0.2,1.2v0.1H356.2z M354.9,46.8c0.2,0,0.5-0.1,0.7-0.2
				s0.4-0.3,0.5-0.5v-1.5h-0.6c-0.5,0-0.9,0.1-1.1,0.3c-0.3,0.2-0.4,0.5-0.4,0.9c0,0.4,0.1,0.6,0.2,0.8S354.5,46.8,354.9,46.8z"/>
			<path class="st2" d="M359.6,41.4l0,0.7c0.4-0.5,0.9-0.8,1.5-0.8c1.1,0,1.6,0.7,1.7,2.2v4.1h-1v-4.1c0-0.5-0.1-0.8-0.2-1
				c-0.2-0.2-0.4-0.3-0.7-0.3c-0.3,0-0.5,0.1-0.7,0.3c-0.2,0.2-0.4,0.4-0.5,0.7v4.5h-1v-6.2H359.6z"/>
			<path class="st2" d="M367.5,47.6c-0.1-0.1-0.1-0.4-0.1-0.7c-0.4,0.5-0.8,0.8-1.4,0.8c-0.6,0-1-0.2-1.3-0.5
				c-0.3-0.3-0.5-0.8-0.5-1.3c0-0.6,0.2-1.1,0.6-1.5c0.4-0.4,1-0.6,1.8-0.6h0.7v-0.7c0-0.4-0.1-0.6-0.2-0.8s-0.4-0.2-0.7-0.2
				c-0.3,0-0.6,0.1-0.7,0.3s-0.3,0.4-0.3,0.7h-1c0-0.3,0.1-0.6,0.3-0.9c0.2-0.3,0.4-0.5,0.8-0.7c0.3-0.2,0.7-0.2,1.1-0.2
				c0.6,0,1.1,0.2,1.4,0.5c0.3,0.3,0.5,0.8,0.5,1.4v3.1c0,0.5,0.1,0.9,0.2,1.2v0.1H367.5z M366.1,46.8c0.2,0,0.5-0.1,0.7-0.2
				s0.4-0.3,0.5-0.5v-1.5h-0.6c-0.5,0-0.9,0.1-1.1,0.3c-0.3,0.2-0.4,0.5-0.4,0.9c0,0.4,0.1,0.6,0.2,0.8S365.8,46.8,366.1,46.8z"/>
			<path class="st2" d="M372.3,44.2c0-1,0.2-1.7,0.5-2.2c0.4-0.5,0.9-0.7,1.5-0.7c0.6,0,1.1,0.2,1.4,0.7v-3.2h1v8.8h-0.9l-0.1-0.7
				c-0.3,0.5-0.8,0.8-1.4,0.8c-0.6,0-1.1-0.2-1.5-0.7c-0.4-0.5-0.5-1.2-0.6-2.1V44.2z M373.4,44.8c0,0.7,0.1,1.2,0.3,1.5
				s0.5,0.5,1,0.5c0.5,0,0.9-0.3,1.1-0.8v-3.1c-0.3-0.5-0.6-0.7-1.1-0.7c-0.5,0-0.8,0.2-1,0.5s-0.3,0.8-0.3,1.5V44.8z"/>
			<path class="st2" d="M380.6,47.7c-0.8,0-1.4-0.2-1.8-0.7c-0.4-0.5-0.6-1.1-0.6-2v-0.7c0-0.9,0.2-1.6,0.6-2.2
				c0.4-0.5,1-0.8,1.7-0.8c0.7,0,1.3,0.2,1.6,0.7c0.4,0.5,0.5,1.2,0.5,2.2v0.7h-3.4V45c0,0.7,0.1,1.1,0.4,1.4
				c0.2,0.3,0.6,0.5,1.1,0.5c0.3,0,0.6-0.1,0.8-0.2s0.4-0.3,0.6-0.5l0.5,0.6C382.1,47.4,381.5,47.7,380.6,47.7z M380.5,42.2
				c-0.4,0-0.7,0.1-0.9,0.4s-0.3,0.7-0.3,1.3h2.4v-0.1c0-0.6-0.1-1-0.3-1.3C381.1,42.3,380.8,42.2,380.5,42.2z"/>
		</g>
		<g class="st1">
			<path class="st2" d="M298,56.9c0,0.9-0.3,1.6-0.8,2s-1.1,0.7-1.9,0.7c-0.8,0-1.5-0.3-2-1c-0.5-0.6-0.7-1.5-0.7-2.6v-1.5
				c0-1.1,0.3-1.9,0.8-2.6s1.2-0.9,2.1-0.9c0.8,0,1.4,0.2,1.9,0.7c0.4,0.5,0.7,1.2,0.7,2.1H297c0-0.7-0.2-1.2-0.4-1.5
				c-0.2-0.3-0.6-0.4-1.1-0.4c-0.6,0-1,0.2-1.3,0.7c-0.3,0.4-0.5,1.1-0.5,2v1.5c0,0.8,0.1,1.5,0.4,1.9c0.3,0.4,0.7,0.7,1.2,0.7
				c0.5,0,0.9-0.1,1.2-0.4s0.4-0.8,0.4-1.5H298z"/>
			<path class="st2" d="M300.5,51.7c0,0.2,0,0.3-0.1,0.4c-0.1,0.1-0.2,0.2-0.4,0.2c-0.2,0-0.3-0.1-0.4-0.2c-0.1-0.1-0.1-0.3-0.1-0.4
				c0-0.2,0-0.3,0.1-0.4c0.1-0.1,0.2-0.2,0.4-0.2c0.2,0,0.3,0.1,0.4,0.2C300.4,51.4,300.5,51.5,300.5,51.7z M300.4,59.5h-1v-6.2h1
				V59.5z"/>
			<path class="st2" d="M304.2,59.6c-0.8,0-1.4-0.2-1.8-0.7c-0.4-0.5-0.6-1.1-0.6-2v-0.7c0-0.9,0.2-1.6,0.6-2.2
				c0.4-0.5,1-0.8,1.7-0.8c0.7,0,1.3,0.2,1.6,0.7c0.4,0.5,0.5,1.2,0.5,2.2v0.7h-3.4v0.1c0,0.7,0.1,1.1,0.4,1.4
				c0.2,0.3,0.6,0.5,1.1,0.5c0.3,0,0.6-0.1,0.8-0.2s0.4-0.3,0.6-0.5l0.5,0.6C305.8,59.3,305.1,59.6,304.2,59.6z M304.1,54.1
				c-0.4,0-0.7,0.1-0.9,0.4c-0.2,0.3-0.3,0.7-0.3,1.3h2.4v-0.1c0-0.6-0.1-1-0.3-1.3C304.8,54.2,304.5,54.1,304.1,54.1z"/>
			<path class="st2" d="M308.4,53.3l0,0.7c0.4-0.5,0.9-0.8,1.5-0.8c1.1,0,1.6,0.7,1.7,2.2v4.1h-1v-4.1c0-0.5-0.1-0.8-0.2-1
				c-0.2-0.2-0.4-0.3-0.7-0.3c-0.3,0-0.5,0.1-0.7,0.3c-0.2,0.2-0.4,0.4-0.5,0.7v4.5h-1v-6.2H308.4z"/>
			<path class="st2" d="M315.3,58.8c0.3,0,0.6-0.1,0.8-0.3c0.2-0.2,0.3-0.5,0.3-0.9h1c0,0.6-0.2,1.1-0.6,1.5
				c-0.4,0.4-0.9,0.6-1.5,0.6c-0.8,0-1.3-0.2-1.8-0.7c-0.4-0.5-0.6-1.2-0.6-2.1v-0.7c0-0.9,0.2-1.6,0.6-2.1s1-0.7,1.7-0.7
				c0.6,0,1.1,0.2,1.5,0.6c0.4,0.4,0.6,0.9,0.6,1.6h-1c0-0.5-0.1-0.8-0.3-1c-0.2-0.2-0.5-0.3-0.8-0.3c-0.4,0-0.8,0.1-1,0.4
				c-0.2,0.3-0.3,0.8-0.3,1.5v0.8c0,0.7,0.1,1.2,0.3,1.5S314.8,58.8,315.3,58.8z"/>
			<path class="st2" d="M319.7,51.7c0,0.2,0,0.3-0.1,0.4c-0.1,0.1-0.2,0.2-0.4,0.2c-0.2,0-0.3-0.1-0.4-0.2s-0.1-0.3-0.1-0.4
				c0-0.2,0-0.3,0.1-0.4c0.1-0.1,0.2-0.2,0.4-0.2c0.2,0,0.3,0.1,0.4,0.2S319.7,51.5,319.7,51.7z M319.6,59.5h-1v-6.2h1V59.5z"/>
			<path class="st2" d="M324.4,59.5c-0.1-0.1-0.1-0.4-0.1-0.7c-0.4,0.5-0.8,0.8-1.4,0.8c-0.6,0-1-0.2-1.3-0.5
				c-0.3-0.3-0.5-0.8-0.5-1.3c0-0.6,0.2-1.1,0.6-1.5s1-0.6,1.8-0.6h0.7v-0.7c0-0.4-0.1-0.6-0.2-0.8c-0.2-0.2-0.4-0.2-0.7-0.2
				c-0.3,0-0.6,0.1-0.7,0.3c-0.2,0.2-0.3,0.4-0.3,0.7h-1c0-0.3,0.1-0.6,0.3-0.9c0.2-0.3,0.4-0.5,0.8-0.7c0.3-0.2,0.7-0.2,1.1-0.2
				c0.6,0,1.1,0.2,1.4,0.5c0.3,0.3,0.5,0.8,0.5,1.4v3.1c0,0.5,0.1,0.9,0.2,1.2v0.1H324.4z M323,58.7c0.2,0,0.5-0.1,0.7-0.2
				s0.4-0.3,0.5-0.5v-1.5h-0.6c-0.5,0-0.9,0.1-1.1,0.3c-0.3,0.2-0.4,0.5-0.4,0.9c0,0.4,0.1,0.6,0.2,0.8
				C322.5,58.6,322.7,58.7,323,58.7z"/>
			<path class="st2" d="M329.8,57.9c0-0.2-0.1-0.4-0.2-0.6c-0.2-0.2-0.5-0.3-0.9-0.5c-0.5-0.2-0.9-0.4-1.2-0.6
				c-0.2-0.2-0.4-0.3-0.5-0.5c-0.1-0.2-0.2-0.4-0.2-0.7c0-0.5,0.2-0.9,0.6-1.3c0.4-0.3,0.8-0.5,1.4-0.5c0.6,0,1.1,0.2,1.5,0.5
				c0.4,0.3,0.5,0.8,0.5,1.3h-1c0-0.3-0.1-0.5-0.3-0.7c-0.2-0.2-0.4-0.3-0.7-0.3c-0.3,0-0.5,0.1-0.7,0.2c-0.2,0.2-0.3,0.4-0.3,0.6
				c0,0.2,0.1,0.4,0.2,0.5s0.4,0.3,0.9,0.5c0.8,0.3,1.3,0.6,1.5,0.9c0.3,0.3,0.4,0.6,0.4,1.1c0,0.5-0.2,1-0.6,1.3s-0.9,0.5-1.5,0.5
				c-0.6,0-1.2-0.2-1.6-0.6c-0.4-0.4-0.6-0.8-0.6-1.4h1c0,0.3,0.1,0.6,0.3,0.8c0.2,0.2,0.5,0.3,0.8,0.3c0.3,0,0.6-0.1,0.8-0.2
				C329.7,58.4,329.8,58.2,329.8,57.9z"/>
			<path class="st2" d="M338.6,57.4c0-0.4-0.1-0.7-0.3-1s-0.6-0.4-1.2-0.6c-0.6-0.2-1-0.4-1.3-0.7s-0.5-0.5-0.7-0.8s-0.2-0.6-0.2-1
				c0-0.7,0.2-1.2,0.7-1.6c0.4-0.4,1-0.6,1.7-0.6c0.5,0,0.9,0.1,1.3,0.3c0.4,0.2,0.7,0.5,0.9,0.9s0.3,0.8,0.3,1.3h-1.1
				c0-0.5-0.1-0.9-0.4-1.2c-0.2-0.3-0.6-0.4-1.1-0.4c-0.4,0-0.8,0.1-1,0.4s-0.3,0.6-0.3,1c0,0.4,0.1,0.6,0.4,0.9s0.6,0.4,1.2,0.6
				c0.8,0.3,1.4,0.6,1.8,1c0.4,0.4,0.5,0.9,0.5,1.6c0,0.7-0.2,1.2-0.7,1.6s-1,0.6-1.8,0.6c-0.5,0-0.9-0.1-1.3-0.3
				c-0.4-0.2-0.7-0.5-1-0.9c-0.2-0.4-0.4-0.8-0.4-1.3h1.1c0,0.5,0.1,0.9,0.4,1.2c0.3,0.3,0.7,0.4,1.2,0.4c0.5,0,0.8-0.1,1-0.4
				C338.5,58.1,338.6,57.8,338.6,57.4z"/>
			<path class="st2" d="M340.7,56.1c0-0.9,0.2-1.6,0.7-2.1c0.4-0.5,1-0.8,1.7-0.8c0.7,0,1.3,0.3,1.7,0.8c0.4,0.5,0.7,1.2,0.7,2.1
				v0.7c0,0.9-0.2,1.6-0.7,2.1c-0.4,0.5-1,0.8-1.7,0.8c-0.7,0-1.3-0.3-1.7-0.8c-0.4-0.5-0.7-1.2-0.7-2.1V56.1z M341.7,56.7
				c0,0.6,0.1,1.1,0.4,1.5c0.2,0.4,0.6,0.5,1,0.5c0.9,0,1.3-0.6,1.4-1.9v-0.7c0-0.6-0.1-1.1-0.4-1.5c-0.3-0.4-0.6-0.6-1-0.6
				c-0.4,0-0.7,0.2-1,0.6c-0.2,0.4-0.4,0.9-0.4,1.5V56.7z"/>
			<path class="st2" d="M348.9,58.8c0.3,0,0.6-0.1,0.8-0.3c0.2-0.2,0.3-0.5,0.3-0.9h1c0,0.6-0.2,1.1-0.6,1.5
				c-0.4,0.4-0.9,0.6-1.5,0.6c-0.8,0-1.3-0.2-1.8-0.7c-0.4-0.5-0.6-1.2-0.6-2.1v-0.7c0-0.9,0.2-1.6,0.6-2.1c0.4-0.5,1-0.7,1.7-0.7
				c0.6,0,1.1,0.2,1.5,0.6c0.4,0.4,0.6,0.9,0.6,1.6h-1c0-0.5-0.1-0.8-0.3-1c-0.2-0.2-0.5-0.3-0.8-0.3c-0.4,0-0.8,0.1-1,0.4
				s-0.3,0.8-0.3,1.5v0.8c0,0.7,0.1,1.2,0.3,1.5S348.4,58.8,348.9,58.8z"/>
			<path class="st2" d="M353.3,51.7c0,0.2,0,0.3-0.1,0.4c-0.1,0.1-0.2,0.2-0.4,0.2c-0.2,0-0.3-0.1-0.4-0.2s-0.1-0.3-0.1-0.4
				c0-0.2,0-0.3,0.1-0.4c0.1-0.1,0.2-0.2,0.4-0.2c0.2,0,0.3,0.1,0.4,0.2S353.3,51.5,353.3,51.7z M353.2,59.5h-1v-6.2h1V59.5z"/>
			<path class="st2" d="M358,59.5c-0.1-0.1-0.1-0.4-0.1-0.7c-0.4,0.5-0.8,0.8-1.4,0.8c-0.6,0-1-0.2-1.3-0.5
				c-0.3-0.3-0.5-0.8-0.5-1.3c0-0.6,0.2-1.1,0.6-1.5c0.4-0.4,1-0.6,1.8-0.6h0.7v-0.7c0-0.4-0.1-0.6-0.2-0.8s-0.4-0.2-0.7-0.2
				c-0.3,0-0.6,0.1-0.7,0.3s-0.3,0.4-0.3,0.7h-1c0-0.3,0.1-0.6,0.3-0.9c0.2-0.3,0.4-0.5,0.8-0.7c0.3-0.2,0.7-0.2,1.1-0.2
				c0.6,0,1.1,0.2,1.4,0.5c0.3,0.3,0.5,0.8,0.5,1.4v3.1c0,0.5,0.1,0.9,0.2,1.2v0.1H358z M356.7,58.7c0.2,0,0.5-0.1,0.7-0.2
				s0.4-0.3,0.5-0.5v-1.5h-0.6c-0.5,0-0.9,0.1-1.1,0.3c-0.3,0.2-0.4,0.5-0.4,0.9c0,0.4,0.1,0.6,0.2,0.8S356.3,58.7,356.7,58.7z"/>
			<path class="st2" d="M361.5,59.5h-1v-8.8h1V59.5z"/>
			<path class="st2" d="M365.3,59.6c-0.8,0-1.4-0.2-1.8-0.7c-0.4-0.5-0.6-1.1-0.6-2v-0.7c0-0.9,0.2-1.6,0.6-2.2s1-0.8,1.7-0.8
				c0.7,0,1.3,0.2,1.6,0.7c0.4,0.5,0.5,1.2,0.5,2.2v0.7h-3.4v0.1c0,0.7,0.1,1.1,0.4,1.4c0.2,0.3,0.6,0.5,1.1,0.5
				c0.3,0,0.6-0.1,0.8-0.2s0.4-0.3,0.6-0.5l0.5,0.6C366.9,59.3,366.2,59.6,365.3,59.6z M365.2,54.1c-0.4,0-0.7,0.1-0.9,0.4
				s-0.3,0.7-0.3,1.3h2.4v-0.1c0-0.6-0.1-1-0.3-1.3C365.9,54.2,365.6,54.1,365.2,54.1z"/>
			<path class="st2" d="M371.6,57.9c0-0.2-0.1-0.4-0.2-0.6c-0.2-0.2-0.5-0.3-0.9-0.5c-0.5-0.2-0.9-0.4-1.2-0.6
				c-0.2-0.2-0.4-0.3-0.5-0.5c-0.1-0.2-0.2-0.4-0.2-0.7c0-0.5,0.2-0.9,0.6-1.3c0.4-0.3,0.8-0.5,1.4-0.5c0.6,0,1.1,0.2,1.5,0.5
				c0.4,0.3,0.5,0.8,0.5,1.3h-1c0-0.3-0.1-0.5-0.3-0.7c-0.2-0.2-0.4-0.3-0.7-0.3c-0.3,0-0.5,0.1-0.7,0.2c-0.2,0.2-0.3,0.4-0.3,0.6
				c0,0.2,0.1,0.4,0.2,0.5s0.4,0.3,0.9,0.5c0.8,0.3,1.3,0.6,1.5,0.9c0.3,0.3,0.4,0.6,0.4,1.1c0,0.5-0.2,1-0.6,1.3s-0.9,0.5-1.5,0.5
				c-0.6,0-1.2-0.2-1.6-0.6c-0.4-0.4-0.6-0.8-0.6-1.4h1c0,0.3,0.1,0.6,0.3,0.8c0.2,0.2,0.5,0.3,0.8,0.3c0.3,0,0.6-0.1,0.8-0.2
				C371.5,58.4,371.6,58.2,371.6,57.9z"/>
			<path class="st2" d="M374,58.9c0-0.2,0.1-0.3,0.2-0.5c0.1-0.1,0.3-0.2,0.5-0.2s0.4,0.1,0.5,0.2s0.2,0.3,0.2,0.5
				c0,0.2-0.1,0.3-0.2,0.4s-0.3,0.2-0.5,0.2s-0.4-0.1-0.5-0.2C374,59.3,374,59.1,374,58.9z"/>
		</g>
		<g class="st1">
			<path class="st2" d="M296.5,69.3c0-0.4-0.1-0.7-0.3-1s-0.6-0.4-1.2-0.6c-0.6-0.2-1-0.4-1.3-0.7s-0.5-0.5-0.7-0.8s-0.2-0.6-0.2-1
				c0-0.7,0.2-1.2,0.7-1.6c0.4-0.4,1-0.6,1.7-0.6c0.5,0,0.9,0.1,1.3,0.3c0.4,0.2,0.7,0.5,0.9,0.9s0.3,0.8,0.3,1.3h-1.1
				c0-0.5-0.1-0.9-0.4-1.2c-0.2-0.3-0.6-0.4-1.1-0.4c-0.4,0-0.8,0.1-1,0.4s-0.3,0.6-0.3,1c0,0.4,0.1,0.6,0.4,0.9s0.6,0.4,1.2,0.6
				c0.8,0.3,1.4,0.6,1.8,1c0.4,0.4,0.5,0.9,0.5,1.6c0,0.7-0.2,1.2-0.7,1.6s-1,0.6-1.8,0.6c-0.5,0-0.9-0.1-1.3-0.3
				c-0.4-0.2-0.7-0.5-1-0.9c-0.2-0.4-0.4-0.8-0.4-1.3h1.1c0,0.5,0.1,0.9,0.4,1.2c0.3,0.3,0.7,0.4,1.2,0.4c0.5,0,0.8-0.1,1-0.4
				C296.3,70,296.5,69.7,296.5,69.3z"/>
			<path class="st2" d="M301,71.5c-0.8,0-1.4-0.2-1.8-0.7c-0.4-0.5-0.6-1.1-0.6-2v-0.7c0-0.9,0.2-1.6,0.6-2.2c0.4-0.5,1-0.8,1.7-0.8
				c0.7,0,1.3,0.2,1.6,0.7c0.4,0.5,0.5,1.2,0.5,2.2v0.7h-3.4v0.1c0,0.7,0.1,1.1,0.4,1.4s0.6,0.5,1.1,0.5c0.3,0,0.6-0.1,0.8-0.2
				s0.4-0.3,0.6-0.5l0.5,0.6C302.5,71.2,301.9,71.5,301,71.5z M300.8,66c-0.4,0-0.7,0.1-0.9,0.4c-0.2,0.3-0.3,0.7-0.3,1.3h2.4v-0.1
				c0-0.6-0.1-1-0.3-1.3C301.5,66.1,301.2,66,300.8,66z"/>
			<path class="st2" d="M304,68c0-1,0.2-1.7,0.5-2.2c0.4-0.5,0.9-0.7,1.5-0.7c0.6,0,1.1,0.2,1.4,0.7v-3.2h1v8.8h-0.9l-0.1-0.7
				c-0.3,0.5-0.8,0.8-1.4,0.8c-0.6,0-1.1-0.2-1.5-0.7s-0.5-1.2-0.6-2.1V68z M305,68.6c0,0.7,0.1,1.2,0.3,1.5s0.5,0.5,1,0.5
				c0.5,0,0.9-0.3,1.1-0.8v-3.1c-0.3-0.5-0.6-0.7-1.1-0.7c-0.5,0-0.8,0.2-1,0.5S305,67.3,305,68V68.6z"/>
			<path class="st2" d="M312.2,71.5c-0.8,0-1.4-0.2-1.8-0.7c-0.4-0.5-0.6-1.1-0.6-2v-0.7c0-0.9,0.2-1.6,0.6-2.2s1-0.8,1.7-0.8
				c0.7,0,1.3,0.2,1.6,0.7c0.4,0.5,0.5,1.2,0.5,2.2v0.7h-3.4v0.1c0,0.7,0.1,1.1,0.4,1.4c0.2,0.3,0.6,0.5,1.1,0.5
				c0.3,0,0.6-0.1,0.8-0.2s0.4-0.3,0.6-0.5l0.5,0.6C313.8,71.2,313.1,71.5,312.2,71.5z M312.1,66c-0.4,0-0.7,0.1-0.9,0.4
				s-0.3,0.7-0.3,1.3h2.4v-0.1c0-0.6-0.1-1-0.3-1.3C312.8,66.1,312.5,66,312.1,66z"/>
			<path class="st2" d="M322.2,69.2h-2.8l-0.6,2.2h-1.1l2.7-8.3h0.9l2.7,8.3h-1.1L322.2,69.2z M319.7,68.3h2.3l-1.1-3.8L319.7,68.3z
				"/>
		</g>
		<g class="st1">
			<path class="st2" d="M327.4,66.2c-0.1,0-0.3,0-0.5,0c-0.5,0-0.9,0.3-1.1,0.9v4.4h-1v-6.2h1l0,0.6c0.3-0.5,0.7-0.7,1.1-0.7
				c0.2,0,0.3,0,0.4,0.1L327.4,66.2z"/>
		</g>
		<g class="st1">
			<path class="st2" d="M328.2,68c0-1,0.2-1.7,0.5-2.2c0.4-0.5,0.9-0.7,1.5-0.7c0.6,0,1.1,0.3,1.4,0.8l0.1-0.7h0.9v6.2
				c0,0.8-0.2,1.4-0.6,1.8c-0.4,0.4-0.9,0.6-1.6,0.6c-0.3,0-0.6-0.1-1-0.2s-0.7-0.3-0.9-0.6l0.4-0.7c0.4,0.4,0.9,0.6,1.4,0.6
				c0.8,0,1.3-0.5,1.3-1.4v-0.8c-0.3,0.5-0.8,0.7-1.4,0.7c-0.6,0-1.1-0.2-1.5-0.7c-0.4-0.5-0.5-1.2-0.6-2.1V68z M329.2,68.6
				c0,0.7,0.1,1.2,0.3,1.5c0.2,0.3,0.5,0.5,1,0.5c0.5,0,0.9-0.3,1.1-0.8v-3.1c-0.3-0.5-0.6-0.8-1.1-0.8c-0.5,0-0.8,0.2-1,0.5
				c-0.2,0.3-0.3,0.8-0.3,1.5V68.6z"/>
			<path class="st2" d="M336.4,71.5c-0.8,0-1.4-0.2-1.8-0.7c-0.4-0.5-0.6-1.1-0.6-2v-0.7c0-0.9,0.2-1.6,0.6-2.2
				c0.4-0.5,1-0.8,1.7-0.8c0.7,0,1.3,0.2,1.6,0.7c0.4,0.5,0.5,1.2,0.5,2.2v0.7H335v0.1c0,0.7,0.1,1.1,0.4,1.4
				c0.2,0.3,0.6,0.5,1.1,0.5c0.3,0,0.6-0.1,0.8-0.2s0.4-0.3,0.6-0.5l0.5,0.6C337.9,71.2,337.3,71.5,336.4,71.5z M336.2,66
				c-0.4,0-0.7,0.1-0.9,0.4c-0.2,0.3-0.3,0.7-0.3,1.3h2.4v-0.1c0-0.6-0.1-1-0.3-1.3C336.9,66.1,336.6,66,336.2,66z"/>
			<path class="st2" d="M340.6,65.2l0,0.7c0.4-0.5,0.9-0.8,1.5-0.8c1.1,0,1.6,0.7,1.7,2.2v4.1h-1v-4.1c0-0.5-0.1-0.8-0.2-1
				c-0.2-0.2-0.4-0.3-0.7-0.3c-0.3,0-0.5,0.1-0.7,0.3c-0.2,0.2-0.4,0.4-0.5,0.7v4.5h-1v-6.2H340.6z"/>
			<path class="st2" d="M346.6,63.7v1.5h0.9V66h-0.9v3.8c0,0.2,0,0.4,0.1,0.6s0.2,0.2,0.4,0.2c0.1,0,0.3,0,0.4-0.1l0,0.9
				c-0.2,0.1-0.5,0.1-0.7,0.1c-0.4,0-0.7-0.1-0.9-0.4c-0.2-0.3-0.3-0.7-0.3-1.2V66h-0.9v-0.8h0.9v-1.5H346.6z"/>
			<path class="st2" d="M349.9,63.6c0,0.2,0,0.3-0.1,0.4c-0.1,0.1-0.2,0.2-0.4,0.2c-0.2,0-0.3-0.1-0.4-0.2c-0.1-0.1-0.1-0.3-0.1-0.4
				c0-0.2,0-0.3,0.1-0.4c0.1-0.1,0.2-0.2,0.4-0.2s0.3,0.1,0.4,0.2C349.9,63.3,349.9,63.4,349.9,63.6z M349.8,71.4h-1v-6.2h1V71.4z"
				/>
			<path class="st2" d="M352.4,65.2l0,0.7c0.4-0.5,0.9-0.8,1.5-0.8c1.1,0,1.6,0.7,1.7,2.2v4.1h-1v-4.1c0-0.5-0.1-0.8-0.2-1
				c-0.2-0.2-0.4-0.3-0.7-0.3c-0.3,0-0.5,0.1-0.7,0.3c-0.2,0.2-0.4,0.4-0.5,0.7v4.5h-1v-6.2H352.4z"/>
			<path class="st2" d="M360.3,71.4c-0.1-0.1-0.1-0.4-0.1-0.7c-0.4,0.5-0.8,0.8-1.4,0.8c-0.6,0-1-0.2-1.3-0.5
				c-0.3-0.3-0.5-0.8-0.5-1.3c0-0.6,0.2-1.1,0.6-1.5c0.4-0.4,1-0.6,1.8-0.6h0.7V67c0-0.4-0.1-0.6-0.2-0.8c-0.2-0.2-0.4-0.2-0.7-0.2
				c-0.3,0-0.6,0.1-0.7,0.3s-0.3,0.4-0.3,0.7h-1c0-0.3,0.1-0.6,0.3-0.9s0.4-0.5,0.8-0.7c0.3-0.2,0.7-0.2,1.1-0.2
				c0.6,0,1.1,0.2,1.4,0.5c0.3,0.3,0.5,0.8,0.5,1.4v3.1c0,0.5,0.1,0.9,0.2,1.2v0.1H360.3z M358.9,70.6c0.2,0,0.5-0.1,0.7-0.2
				s0.4-0.3,0.5-0.5v-1.5h-0.6c-0.5,0-0.9,0.1-1.1,0.3c-0.3,0.2-0.4,0.5-0.4,0.9c0,0.4,0.1,0.6,0.2,0.8
				C358.3,70.5,358.6,70.6,358.9,70.6z"/>
			<path class="st2" d="M362.7,70.9c0-0.2,0.1-0.3,0.2-0.5s0.3-0.2,0.5-0.2s0.4,0.1,0.5,0.2s0.2,0.3,0.2,0.5c0,0.2-0.1,0.3-0.2,0.4
				s-0.3,0.2-0.5,0.2s-0.4-0.1-0.5-0.2S362.7,71,362.7,70.9z"/>
		</g>
		<g class="st1">
			<path class="st2" d="M294.3,93v3h-1.7v-8.4h2.9c0.8,0,1.5,0.3,2,0.8c0.5,0.5,0.7,1.2,0.7,2c0,0.8-0.2,1.5-0.7,2
				c-0.5,0.5-1.2,0.7-2,0.7H294.3z M294.3,91.6h1.2c0.3,0,0.6-0.1,0.8-0.3c0.2-0.2,0.3-0.5,0.3-0.9c0-0.4-0.1-0.8-0.3-1
				s-0.4-0.4-0.7-0.4h-1.2V91.6z"/>
			<path class="st2" d="M302.3,91.3l-0.5,0c-0.4,0-0.7,0.2-0.9,0.6v4.1h-1.6v-6.2h1.5l0,0.7c0.3-0.5,0.6-0.8,1.1-0.8
				c0.2,0,0.3,0,0.5,0.1L302.3,91.3z"/>
			<path class="st2" d="M302.8,92.6c0-0.9,0.2-1.7,0.7-2.2c0.4-0.5,1.1-0.8,1.9-0.8c0.8,0,1.4,0.3,1.9,0.8c0.4,0.5,0.7,1.3,0.7,2.2
				V93c0,1-0.2,1.7-0.7,2.2c-0.4,0.5-1.1,0.8-1.9,0.8c-0.8,0-1.4-0.3-1.9-0.8c-0.4-0.5-0.7-1.3-0.7-2.2V92.6z M304.4,93
				c0,1.1,0.3,1.7,0.9,1.7c0.6,0,0.8-0.5,0.9-1.4l0-0.7c0-0.6-0.1-1-0.2-1.3s-0.4-0.4-0.7-0.4c-0.3,0-0.5,0.1-0.7,0.4
				c-0.2,0.3-0.2,0.7-0.2,1.3V93z"/>
			<path class="st2" d="M308.7,92.6c0-1,0.2-1.8,0.6-2.3c0.4-0.5,0.9-0.8,1.6-0.8c0.6,0,1,0.2,1.3,0.7l0.1-0.6h1.5v6.2
				c0,0.8-0.2,1.4-0.7,1.8c-0.4,0.4-1.1,0.6-1.9,0.6c-0.3,0-0.7-0.1-1.1-0.2c-0.4-0.1-0.7-0.3-0.8-0.5l0.5-1.1
				c0.2,0.2,0.4,0.3,0.6,0.4c0.2,0.1,0.5,0.2,0.7,0.2c0.4,0,0.6-0.1,0.8-0.3c0.2-0.2,0.2-0.5,0.2-0.8v-0.5c-0.3,0.4-0.7,0.6-1.2,0.6
				c-0.7,0-1.2-0.3-1.5-0.8s-0.5-1.2-0.6-2.2V92.6z M310.3,93c0,0.6,0.1,1,0.2,1.3s0.4,0.4,0.7,0.4c0.3,0,0.6-0.1,0.7-0.4v-3
				c-0.2-0.3-0.4-0.4-0.7-0.4c-0.3,0-0.6,0.1-0.7,0.4c-0.2,0.3-0.2,0.7-0.2,1.3V93z"/>
			<path class="st2" d="M317.9,91.3l-0.5,0c-0.4,0-0.8,0.2-0.9,0.6v4.1h-1.6v-6.2h1.5l0,0.7c0.3-0.5,0.6-0.8,1.1-0.8
				c0.2,0,0.3,0,0.5,0.1L317.9,91.3z"/>
			<path class="st2" d="M321.5,95.9c0-0.1-0.1-0.3-0.1-0.5c-0.3,0.4-0.7,0.6-1.2,0.6c-0.5,0-1-0.2-1.3-0.5c-0.3-0.3-0.5-0.8-0.5-1.3
				c0-0.7,0.2-1.2,0.6-1.5c0.4-0.4,1-0.5,1.8-0.5h0.5v-0.5c0-0.3,0-0.5-0.1-0.6s-0.2-0.2-0.4-0.2c-0.4,0-0.6,0.2-0.6,0.7h-1.6
				c0-0.6,0.2-1.1,0.7-1.4c0.4-0.4,1-0.6,1.6-0.6c0.7,0,1.2,0.2,1.6,0.5c0.4,0.4,0.6,0.9,0.6,1.5v2.9c0,0.5,0.1,1,0.2,1.3v0.1H321.5
				z M320.6,94.8c0.2,0,0.3,0,0.5-0.1s0.2-0.2,0.3-0.3v-1.3h-0.4c-0.3,0-0.5,0.1-0.7,0.3c-0.2,0.2-0.2,0.4-0.2,0.7
				C320,94.5,320.2,94.8,320.6,94.8z"/>
			<path class="st2" d="M325.7,89.7l0,0.6c0.4-0.5,0.8-0.7,1.5-0.7c0.6,0,1.1,0.3,1.3,0.8c0.4-0.6,0.9-0.8,1.5-0.8
				c1.1,0,1.7,0.8,1.7,2.3v4.1h-1.6v-4c0-0.4,0-0.6-0.1-0.8c-0.1-0.2-0.3-0.2-0.5-0.2c-0.3,0-0.5,0.2-0.7,0.6l0,0.2v4.2h-1.6v-4
				c0-0.4,0-0.6-0.1-0.8c-0.1-0.2-0.3-0.2-0.5-0.2c-0.3,0-0.5,0.2-0.7,0.5v4.5h-1.6v-6.2H325.7z"/>
			<path class="st2" d="M335.9,95.9c0-0.1-0.1-0.3-0.1-0.5c-0.3,0.4-0.7,0.6-1.2,0.6c-0.5,0-1-0.2-1.3-0.5c-0.3-0.3-0.5-0.8-0.5-1.3
				c0-0.7,0.2-1.2,0.6-1.5c0.4-0.4,1-0.5,1.8-0.5h0.5v-0.5c0-0.3,0-0.5-0.1-0.6s-0.2-0.2-0.4-0.2c-0.4,0-0.6,0.2-0.6,0.7h-1.6
				c0-0.6,0.2-1.1,0.6-1.4c0.4-0.4,1-0.6,1.6-0.6c0.7,0,1.2,0.2,1.6,0.5c0.4,0.4,0.6,0.9,0.6,1.5v2.9c0,0.5,0.1,1,0.2,1.3v0.1H335.9
				z M334.9,94.8c0.2,0,0.3,0,0.5-0.1s0.2-0.2,0.3-0.3v-1.3h-0.4c-0.3,0-0.5,0.1-0.7,0.3c-0.2,0.2-0.2,0.4-0.2,0.7
				C334.4,94.5,334.5,94.8,334.9,94.8z"/>
		</g>
		<g class="st1">
			<path class="st2" d="M297,106.5h-2.6v2.2h3.1v1.4h-4.8v-8.4h4.8v1.4h-3.1v2h2.6V106.5z"/>
			<path class="st2" d="M298,106.8c0-1,0.2-1.8,0.5-2.3c0.3-0.5,0.9-0.8,1.5-0.8c0.5,0,0.9,0.2,1.2,0.6v-3.1h1.6v8.9h-1.5l-0.1-0.6
				c-0.3,0.5-0.8,0.8-1.3,0.8c-0.7,0-1.2-0.2-1.5-0.8c-0.3-0.5-0.5-1.2-0.5-2.2V106.8z M299.6,107.2c0,0.6,0.1,1,0.2,1.3
				s0.4,0.4,0.7,0.4c0.3,0,0.6-0.1,0.7-0.4v-2.9c-0.2-0.3-0.4-0.5-0.7-0.5c-0.3,0-0.5,0.1-0.7,0.4c-0.1,0.2-0.2,0.7-0.2,1.3V107.2z"
				/>
			<path class="st2" d="M307.2,109.6c-0.3,0.5-0.8,0.7-1.4,0.7c-0.6,0-1-0.2-1.3-0.6s-0.4-1-0.4-1.7v-4h1.6v4.1
				c0,0.6,0.2,0.9,0.6,0.9c0.4,0,0.6-0.2,0.8-0.5v-4.5h1.6v6.2h-1.5L307.2,109.6z"/>
			<path class="st2" d="M312.2,108.9c0.5,0,0.7-0.3,0.7-0.9h1.5c0,0.7-0.2,1.2-0.6,1.7c-0.4,0.4-0.9,0.6-1.6,0.6
				c-0.8,0-1.4-0.2-1.8-0.8c-0.4-0.5-0.6-1.2-0.6-2.2v-0.5c0-1,0.2-1.7,0.6-2.2s1-0.8,1.9-0.8c0.7,0,1.2,0.2,1.6,0.6s0.6,1,0.6,1.8
				h-1.5c0-0.4-0.1-0.6-0.2-0.8s-0.3-0.3-0.6-0.3c-0.3,0-0.5,0.1-0.6,0.3c-0.1,0.2-0.2,0.6-0.2,1.2v0.6c0,0.5,0,0.9,0.1,1.1
				s0.1,0.4,0.2,0.4C311.8,108.8,312,108.9,312.2,108.9z"/>
			<path class="st2" d="M318.3,110.1c0-0.1-0.1-0.3-0.1-0.5c-0.3,0.4-0.7,0.6-1.2,0.6c-0.5,0-1-0.2-1.3-0.5s-0.5-0.8-0.5-1.3
				c0-0.7,0.2-1.2,0.6-1.5c0.4-0.4,1-0.5,1.8-0.5h0.5v-0.5c0-0.3,0-0.5-0.1-0.6c-0.1-0.1-0.2-0.2-0.4-0.2c-0.4,0-0.6,0.2-0.6,0.7
				h-1.6c0-0.6,0.2-1.1,0.7-1.4c0.4-0.4,1-0.6,1.6-0.6c0.7,0,1.2,0.2,1.6,0.5c0.4,0.4,0.6,0.9,0.6,1.5v2.9c0,0.5,0.1,1,0.2,1.3v0.1
				H318.3z M317.4,109c0.2,0,0.3,0,0.5-0.1s0.2-0.2,0.3-0.3v-1.3h-0.4c-0.3,0-0.5,0.1-0.7,0.3c-0.2,0.2-0.2,0.4-0.2,0.7
				C316.8,108.7,317,109,317.4,109z"/>
			<path class="st2" d="M323.2,108.9c0.5,0,0.7-0.3,0.7-0.9h1.5c0,0.7-0.2,1.2-0.6,1.7c-0.4,0.4-0.9,0.6-1.6,0.6
				c-0.8,0-1.4-0.2-1.8-0.8c-0.4-0.5-0.6-1.2-0.6-2.2v-0.5c0-1,0.2-1.7,0.6-2.2c0.4-0.5,1-0.8,1.9-0.8c0.7,0,1.2,0.2,1.6,0.6
				s0.6,1,0.6,1.8h-1.5c0-0.4-0.1-0.6-0.2-0.8s-0.3-0.3-0.6-0.3c-0.3,0-0.5,0.1-0.6,0.3s-0.2,0.6-0.2,1.2v0.6c0,0.5,0,0.9,0.1,1.1
				c0.1,0.2,0.1,0.4,0.2,0.4C322.8,108.8,323,108.9,323.2,108.9z"/>
			<path class="st2" d="M326.4,102.3c0-0.3,0.1-0.5,0.2-0.6s0.4-0.2,0.6-0.2s0.5,0.1,0.6,0.2s0.2,0.4,0.2,0.6c0,0.2-0.1,0.5-0.2,0.6
				c-0.2,0.2-0.4,0.2-0.7,0.2s-0.5-0.1-0.6-0.2C326.4,102.7,326.4,102.5,326.4,102.3z M328.1,110.1h-1.6v-6.2h1.6V110.1z"/>
			<path class="st2" d="M329.1,106.8c0-0.9,0.2-1.7,0.7-2.2c0.4-0.5,1.1-0.8,1.9-0.8c0.8,0,1.4,0.3,1.9,0.8c0.4,0.5,0.7,1.3,0.7,2.2
				v0.4c0,1-0.2,1.7-0.7,2.2c-0.4,0.5-1.1,0.8-1.9,0.8c-0.8,0-1.4-0.3-1.9-0.8c-0.4-0.5-0.7-1.3-0.7-2.2V106.8z M330.8,107.2
				c0,1.1,0.3,1.7,0.9,1.7c0.5,0,0.8-0.5,0.9-1.4l0-0.7c0-0.6-0.1-1-0.2-1.3s-0.4-0.4-0.7-0.4c-0.3,0-0.5,0.1-0.6,0.4
				s-0.2,0.7-0.2,1.3V107.2z M332,101.3h1.8l-1.6,1.8h-1.4L332,101.3z"/>
			<path class="st2" d="M336.7,103.9l0,0.6c0.4-0.5,0.9-0.7,1.4-0.7c1.1,0,1.6,0.8,1.7,2.3v4.1h-1.6v-4c0-0.4-0.1-0.6-0.2-0.8
				c-0.1-0.2-0.3-0.2-0.6-0.2c-0.3,0-0.5,0.2-0.7,0.5v4.5h-1.6v-6.2H336.7z"/>
			<path class="st2" d="M346.7,110.1c0-0.1-0.1-0.3-0.1-0.5c-0.3,0.4-0.7,0.6-1.2,0.6c-0.5,0-1-0.2-1.3-0.5s-0.5-0.8-0.5-1.3
				c0-0.7,0.2-1.2,0.6-1.5c0.4-0.4,1-0.5,1.8-0.5h0.5v-0.5c0-0.3,0-0.5-0.1-0.6c-0.1-0.1-0.2-0.2-0.4-0.2c-0.4,0-0.6,0.2-0.6,0.7
				h-1.6c0-0.6,0.2-1.1,0.7-1.4c0.4-0.4,1-0.6,1.6-0.6c0.7,0,1.2,0.2,1.6,0.5c0.4,0.4,0.6,0.9,0.6,1.5v2.9c0,0.5,0.1,1,0.2,1.3v0.1
				H346.7z M345.8,109c0.2,0,0.3,0,0.5-0.1s0.2-0.2,0.3-0.3v-1.3h-0.4c-0.3,0-0.5,0.1-0.7,0.3c-0.2,0.2-0.2,0.4-0.2,0.7
				C345.2,108.7,345.4,109,345.8,109z"/>
			<path class="st2" d="M352.1,110.1v-8.4h2.2c1,0,1.8,0.3,2.3,0.9c0.6,0.6,0.9,1.5,0.9,2.6v1.4c0,1.1-0.3,2-0.9,2.6
				c-0.6,0.6-1.4,0.9-2.4,0.9H352.1z M353.8,103.1v5.6h0.5c0.6,0,1-0.1,1.2-0.4c0.2-0.3,0.4-0.8,0.4-1.5v-1.5c0-0.8-0.1-1.3-0.3-1.6
				c-0.2-0.3-0.6-0.5-1.1-0.5H353.8z"/>
			<path class="st2" d="M358.7,102.3c0-0.3,0.1-0.5,0.2-0.6c0.2-0.2,0.4-0.2,0.6-0.2s0.5,0.1,0.6,0.2c0.2,0.2,0.2,0.4,0.2,0.6
				c0,0.2-0.1,0.5-0.2,0.6c-0.2,0.2-0.4,0.2-0.7,0.2s-0.5-0.1-0.7-0.2C358.8,102.7,358.7,102.5,358.7,102.3z M360.5,110.1h-1.6v-6.2
				h1.6V110.1z"/>
			<path class="st2" d="M364.5,108.5c0-0.1-0.1-0.3-0.2-0.4c-0.1-0.1-0.4-0.3-0.9-0.5c-0.7-0.3-1.1-0.6-1.4-0.8
				c-0.3-0.3-0.4-0.7-0.4-1.1c0-0.5,0.2-1,0.6-1.4c0.4-0.4,0.9-0.5,1.6-0.5c0.7,0,1.2,0.2,1.6,0.5c0.4,0.4,0.6,0.8,0.6,1.4h-1.6
				c0-0.5-0.2-0.8-0.6-0.8c-0.2,0-0.3,0.1-0.4,0.2c-0.1,0.1-0.2,0.3-0.2,0.5c0,0.1,0.1,0.3,0.2,0.4c0.1,0.1,0.4,0.3,0.9,0.5
				c0.7,0.2,1.1,0.5,1.4,0.8c0.3,0.3,0.4,0.7,0.4,1.2c0,0.6-0.2,1-0.6,1.3c-0.4,0.3-1,0.5-1.7,0.5c-0.5,0-0.9-0.1-1.2-0.3
				c-0.4-0.2-0.6-0.4-0.8-0.7c-0.2-0.3-0.3-0.7-0.3-1h1.6c0,0.3,0.1,0.5,0.2,0.6s0.3,0.2,0.6,0.2
				C364.3,109.1,364.5,108.9,364.5,108.5z"/>
			<path class="st2" d="M369,102.3v1.5h0.8v1.2H369v3.1c0,0.2,0,0.4,0.1,0.5c0.1,0.1,0.2,0.1,0.4,0.1c0.2,0,0.3,0,0.4,0l0,1.3
				c-0.3,0.1-0.6,0.2-0.9,0.2c-1.1,0-1.6-0.6-1.6-1.8v-3.3h-0.7v-1.2h0.7v-1.5H369z"/>
			<path class="st2" d="M373.7,110.1c0-0.1-0.1-0.3-0.1-0.5c-0.3,0.4-0.7,0.6-1.2,0.6c-0.5,0-1-0.2-1.3-0.5s-0.5-0.8-0.5-1.3
				c0-0.7,0.2-1.2,0.6-1.5c0.4-0.4,1-0.5,1.8-0.5h0.5v-0.5c0-0.3,0-0.5-0.1-0.6c-0.1-0.1-0.2-0.2-0.4-0.2c-0.4,0-0.6,0.2-0.6,0.7
				h-1.6c0-0.6,0.2-1.1,0.7-1.4c0.4-0.4,1-0.6,1.6-0.6c0.7,0,1.2,0.2,1.6,0.5c0.4,0.4,0.6,0.9,0.6,1.5v2.9c0,0.5,0.1,1,0.2,1.3v0.1
				H373.7z M372.7,109c0.2,0,0.3,0,0.5-0.1s0.2-0.2,0.3-0.3v-1.3h-0.4c-0.3,0-0.5,0.1-0.7,0.3c-0.2,0.2-0.2,0.4-0.2,0.7
				C372.2,108.7,372.4,109,372.7,109z"/>
			<path class="st2" d="M377.8,103.9l0,0.6c0.4-0.5,0.9-0.7,1.4-0.7c1.1,0,1.6,0.8,1.7,2.3v4.1h-1.6v-4c0-0.4-0.1-0.6-0.2-0.8
				c-0.1-0.2-0.3-0.2-0.6-0.2c-0.3,0-0.5,0.2-0.7,0.5v4.5h-1.6v-6.2H377.8z"/>
			<path class="st2" d="M384.4,108.9c0.5,0,0.7-0.3,0.7-0.9h1.5c0,0.7-0.2,1.2-0.6,1.7c-0.4,0.4-0.9,0.6-1.6,0.6
				c-0.8,0-1.4-0.2-1.8-0.8c-0.4-0.5-0.6-1.2-0.6-2.2v-0.5c0-1,0.2-1.7,0.6-2.2c0.4-0.5,1-0.8,1.9-0.8c0.7,0,1.2,0.2,1.6,0.6
				s0.6,1,0.6,1.8h-1.5c0-0.4-0.1-0.6-0.2-0.8c-0.1-0.2-0.3-0.3-0.6-0.3c-0.3,0-0.5,0.1-0.6,0.3s-0.2,0.6-0.2,1.2v0.6
				c0,0.5,0,0.9,0.1,1.1c0,0.2,0.1,0.4,0.2,0.4C384,108.8,384.2,108.9,384.4,108.9z"/>
			<path class="st2" d="M387.6,102.3c0-0.3,0.1-0.5,0.2-0.6s0.4-0.2,0.6-0.2s0.5,0.1,0.6,0.2s0.2,0.4,0.2,0.6c0,0.2-0.1,0.5-0.2,0.6
				c-0.2,0.2-0.4,0.2-0.7,0.2s-0.5-0.1-0.6-0.2C387.6,102.7,387.6,102.5,387.6,102.3z M389.3,110.1h-1.6v-6.2h1.6V110.1z"/>
			<path class="st2" d="M393.5,110.1c0-0.1-0.1-0.3-0.1-0.5c-0.3,0.4-0.7,0.6-1.2,0.6c-0.5,0-1-0.2-1.3-0.5s-0.5-0.8-0.5-1.3
				c0-0.7,0.2-1.2,0.6-1.5c0.4-0.4,1-0.5,1.8-0.5h0.5v-0.5c0-0.3,0-0.5-0.1-0.6c-0.1-0.1-0.2-0.2-0.4-0.2c-0.4,0-0.6,0.2-0.6,0.7
				h-1.6c0-0.6,0.2-1.1,0.7-1.4c0.4-0.4,1-0.6,1.6-0.6c0.7,0,1.2,0.2,1.6,0.5c0.4,0.4,0.6,0.9,0.6,1.5v2.9c0,0.5,0.1,1,0.2,1.3v0.1
				H393.5z M392.5,109c0.2,0,0.3,0,0.5-0.1s0.2-0.2,0.3-0.3v-1.3h-0.4c-0.3,0-0.5,0.1-0.7,0.3c-0.2,0.2-0.2,0.4-0.2,0.7
				C392,108.7,392.2,109,392.5,109z"/>
			<path class="st2" d="M396.2,109.3c0-0.3,0.1-0.5,0.3-0.6c0.2-0.2,0.4-0.3,0.7-0.3c0.3,0,0.5,0.1,0.7,0.3c0.2,0.2,0.3,0.4,0.3,0.6
				c0,0.3-0.1,0.5-0.3,0.7c-0.2,0.2-0.4,0.2-0.7,0.2c-0.3,0-0.5-0.1-0.7-0.2C396.3,109.8,396.2,109.6,396.2,109.3z"/>
		</g>
	</g>
	<rect x="137.3" y="0.4" class="st3" width="134.8" height="134.8"/>
	<rect y="0.4" class="st4" width="134.8" height="134.8"/>
	<path class="st2" d="M74.5,23.2c-1.4-0.2-2.9-0.2-4.3-0.3c-0.4,0-0.9,0-1.3,0h-1.6c-0.9,0-1.8,0-2.7,0c-1,0-2,0.1-3,0.2
		c-5,0.4-9.9,1.2-14.9,2.5c-0.2,0.1-0.3,0.1-0.5,0.2c0.1,0.2,0.3,0.2,0.5,0.3c0,0,0.1,0,0.1,0.1c0.2,0.1,0.3,0.3,0.7,0.3
		s0.8,0.1,1.1,0c0.8-0.2,0.8-0.3,1.4,0.2c0.3,0.2,0.3,0.2,0.4,0.6c0.1,0.3,0,0.5,0.3,0.7c0.2,0.2,0.5,0.2,0.6-0.1
		c0.3-0.7,1.1,0.2,1.1,0.5c0,0.6,0.1,0.2,0.3,0.5c0.1,0.1,0.1,0.9,0.7,1.1c0.2,0.1,0.4,0,0.5,0.3c0,0.1,0,0.2-0.1,0.3
		c-0.1,0.2-0.2,0.4-0.2,0.5c-0.3,0.7-0.2,1.2,0.1,1.9c0.1,0.2,0.2,0.3,0.3,0.5c0.2,0.7,0.3,0.8,0.7,1.1c0.3,0.2,0.6,0.2,0.9,0.2
		c0.2,0,0.3,0,0.5-0.1c0.2-0.2,0.3-0.2,0.5,0c0.4,0.3,0.3,0,0.5-0.3c0.3-0.5,0.5-0.1,0.5-0.8c0-0.2,0.1-0.3,0.4-0.4
		c0.5,0,0.6-0.2,1.1-0.2c0.2,0,0.6,0,0.4,0.5c-0.3,0.3-0.3,0.3-0.4,0.7c0,0.4-0.1,0.5-0.3,0.7c-0.3,0.4-0.1,0.3-0.2,0.7
		c0,0.2-0.2,0.3-0.2,0.5c-0.1,0.2,0.1,0.4,0.4,0.3c0.2-0.1,0.5-0.1,0.7,0c0.3,0,0.5,0,0.7,0c0.4,0,0.7,0,1,0.3s0.3,0.4,0.1,1.1
		c-0.1,0.2,0.1,0.3,0,0.5c0,0.3-0.2,0.6-0.2,0.8s0,0.3,0.1,0.4c0.2,0.2,0.3,0.4,0.4,0.5c0.2,0.2,0.3,0.3,0.6,0.5
		c0.8,0.5,0.9,0,1.6-0.2c0.3,0,0.6,0,0.8,0.1s0.4,0.2,0.6,0.5c0.2,0.2,0.4,0.3,0.5-0.1c0-0.2,0.1-0.3,0.3-0.4c0.2,0,0.1-0.1,0.2-0.3
		c0,0,0-0.1,0.1-0.1l0,0v-0.1c0.1-0.4,0.6-0.7,1-0.7h0.1c0.2,0,0.6-0.2,0.7-0.4c0.2-0.2,0.7-0.5,0.4,0.1c-0.1,0.2-0.2,0.2-0.1,0.3
		c0,0.1,0,0.1,0,0.2c0.1,0.2-0.1,0.3-0.2,0.5c0,0.2,0.1,0.1,0.2,0.2c0.1,0.1,0.1,0.2,0.2,0.3c0.2,0.1,0.3,0,0.3-0.2l0,0v-0.1
		c0-0.1-0.1-0.2-0.1-0.3c0-0.2,0-0.3,0.1-0.4c0,0,0.1-0.1,0.2-0.1c0.5-0.3,0.8-0.4,1.2-0.2c0.1,0,0.1,0.1,0.2,0.1
		c0.4,0.4,0.2,0.4,0.8,0.4c0.4,0,0.6-0.1,0.9,0.1c0.2,0.1,0.9,0.3,1.1,0c0.2-0.4,0.7-0.4,0.8-0.1c0.1,0.2,0.2,0.3,0.5,0.3l0,0
		c0.2,0,0.2,0,0.4,0.2c0.2,0.2,0,0.2,0,0.5c0,0.2,0,0.1,0.3,0.1c0.5,0,1.2,0.2,1.3,0.8c0.1,0.3,0.4,0.1,0.6,0.3
		c0.3,0.4,0.2,0.4,0.7,0.5c0.1,0,0.2,0,0.3,0c0.5-0.1,0.7-0.1,0.9,0c0.2,0.2,0.3,0.4,0.6,0.3c0.5-0.1,0.6,0.3,0.9,0.6
		c0.4,0.3,0.6,0.3,0.6,0.9c0,0.4,0,0.3,0.3,0.6c0.3,0.4,0.4,0.5-0.1,1C81,46,81,46.3,81.6,45.9c0.2-0.1,0.4,0.1,0.7,0.2
		c0.2,0.2,0.2,0.3,0,0.5c0,0.5-0.1,0.4,0.3,0.1c0.4-0.4,0.7-0.5,1.3-0.1c0.2,0.2,0.4,0.3,0.6,0.4c0.5,0.4,1,0.7,1.7,0.7
		c0.5,0,0.7,0.2,1.1,0.1c0.5-0.1,1,0.2,1.3,0.7c0.1,0.2,0.4,0.4,0.7,0.6c0.6,0.3,0.9-0.1,1.1,0.7c0.5,1.3-0.5,2.4-1.4,3.4
		c-0.3,0.4-0.2,0.6-0.5,0.9c-0.3,0.3-0.8,0.1-0.7,0.6c0.1,0.2-0.2,0.4-0.2,0.6c0,0.1,0,0.2,0,0.3c0,0.3,0.1,0.6-0.1,0.8
		c0,0.3-0.1,0.6-0.1,0.8c-0.3,0.6-0.6,1-0.7,1.3c-0.2,0.2-0.3,0.3-0.5,0.5c-0.3,0.2-0.1,0.5-0.3,0.7c-0.1,0.1-0.2,0.1-0.3,0.2
		c-0.4,0.3-0.4,0.4-1,0.4c-1.1,0-2.5,0.7-3.1,1.6c-0.2,0.4-0.2,0.6-0.3,0.9c-0.1,0.5-0.3,0.4-0.5,0.7c-0.5,0.5-0.4,1.1-1,0.9
		c-0.2,0-0.2,0.1-0.4,0.4c-0.2,0.2-0.3,0.3-0.4,0.6c0,0.2-0.1,0.3-0.3,0.5c-0.2,0.2-0.3,0.3-0.5,0.5c-0.3,0.7-0.9,0.7-1.6,0.6
		c-0.2,0-0.5-0.2-0.7-0.3c-0.5-0.2-0.4,0.1-0.1,0.3c0.1,0.1,0.2,0.1,0.2,0.2c0.1,0.3-0.3,0.4,0.2,0.7c0.1,0.2,0,0.5-0.2,0.7
		c-0.3,0.5-0.8,0.7-1.3,0.7c-0.3,0-0.6,0-0.9,0c-0.6,0-0.5-0.2-0.5,0.4c0,0.1-0.1,0.2-0.2,0.4c0,0.5-0.3,0.6-0.7,0.5
		c-0.7-0.3-0.4-0.3-0.6,0.2c-0.1,0.2-0.1,0.3,0,0.3c0,0.1,0,0.3,0.1,0.3s0.1,0,0.1,0c0.2,0,0-0.2,0.3-0.2c0.1,0,0.1,0,0.1,0.1
		c-0.1,0.2-0.1,0.2-0.3,0.2c-0.2,0-0.3,0-0.3,0.2c0,0.3-0.2,0.2-0.3,0.5c0,0.1-0.1,0.2-0.1,0.3c-0.1,0.3-0.3,0.2-0.6,0.3
		c-0.2,0.1-0.3,0.2-0.4,0.3c-0.1,0.2-0.1,0.4,0,0.6c0,0,0.1,0.1,0.2,0.1c0.1,0.1,0.1,0.2,0.2,0.2c0.3,0.1,0.3-0.1,0.3,0.2
		c0,0.3-0.2,0.3-0.4,0.5C70.3,75,70.2,75,70.2,75c-0.2,0.1-0.2,0.1-0.3,0.4c0,0.2-0.2,0.4-0.3,0.4c-0.5,0.2-0.5,0.3-0.4,0.8
		c0.1,0.4-0.1,0.3-0.3,0.4c-0.1,0-0.2,0.1-0.3,0.2c-0.1,0.1-0.2,0.3-0.3,0.5c-0.3,0.3,0.1,0-0.6,0.2c-0.3,0.1-0.3-0.1-0.3-0.4
		c0-0.2-0.1-0.2-0.1-0.3l-0.1-0.1c-0.2-0.4,0-0.3-0.3-0.6c-0.3-0.2,0-0.4-0.1-0.6c-0.2-0.3-0.1-0.2-0.2-0.5c0-0.1-0.1-0.2-0.1-0.3
		c-0.1-0.1-0.1-0.2,0.1-0.3c0.3-0.1,0.2-0.1,0.3-0.3c0.2-0.6,0.1-0.2-0.2-0.5c-0.1-0.1,0-0.3,0.1-0.4c0.2-0.3,0.3-0.3,0.5-0.3h0.1
		c0.1-0.1,0.1-0.2,0.2-0.6c0-0.4,0.1-0.6,0.2-0.8c0.1-0.2,0.1-0.4,0-0.6c-0.2-0.4-0.6,0-0.5-0.6c0.1-0.5,0.2-0.5,0.3-0.8
		c0.1-0.2,0-0.4,0-0.6c-0.2-0.7-0.1-0.6,0.2-1.2c0.1-0.2,0.2-0.4,0.3-0.6c0.1-0.2,0.1-0.4,0.1-0.6c0.2-0.2,0.2-0.3,0.2-0.6
		c0-0.4,0.2-0.4,0.2-0.7c0-0.3-0.1-0.2-0.2-0.5c0-0.1,0-0.2,0-0.3c0.2-0.4,0.3-0.3,0.2-0.7c-0.1-0.2,0.1-0.5,0.2-0.8
		c0-0.1,0.1-0.1,0.1-0.2c0.1-0.4,0.2-0.8,0.3-1.2c0.1-0.3,0.1-0.6,0-0.9c0-0.2,0-0.4,0-0.5c0.1-0.3,0.2-0.3,0.2-0.6
		c0-0.2-0.1-0.5,0-0.7c0.2-0.4,0-0.8,0-1.3c0-0.4-0.2-0.6-0.5-0.9c-0.1,0-0.1-0.1-0.2-0.2c-0.4-0.3-0.8-0.6-1.2-0.8
		c-0.1,0-0.1-0.1-0.2-0.1c-0.4-0.1-0.5,0-0.9-0.5c-0.1-0.2-0.3-0.3-0.4-0.5c-0.2-0.3,0.2-0.3,0-0.7c-0.1-0.1-0.3-0.3-0.4-0.4
		c-0.4-0.6-0.7-1.2-0.9-1.7c-0.4-0.8-0.8-1.6-1.4-2.1c-0.2,0-0.3-0.2-0.2-0.4c0-0.2-0.1-0.4-0.2-0.5c-0.2-0.5,0.4-0.7,0.7-0.8
		c0.2-0.2,0.2-0.3,0-0.5c-0.1,0-0.2-0.1-0.3-0.1c-0.5-0.2-0.3-0.8-0.1-1s0.3-0.4,0.3-0.7c0.1-0.4,0.1-0.4,0.3-0.5
		c0.4-0.1,0.3-0.1,0.5-0.5c0-0.3,0-0.3,0.3-0.4h0.1c0.7-0.6,0.6-0.9,0.5-1.8c0-0.4-0.1-0.6-0.3-1c-0.1-0.2-0.2-0.2-0.3-0.3v-0.1
		c0-0.4,0.1-0.3-0.2-0.7c-0.3-0.2-0.6-0.2-0.7,0.2c0,0.1,0,0.2-0.1,0.2c-0.3,0.2-0.2,0-0.1,0.5c0,0.1,0,0.2,0,0.2
		c-0.4,0.2-0.3-0.2-0.5-0.3s-0.2,0.1-0.5-0.2c-0.1-0.1-0.2-0.1-0.4-0.1h-0.3c-0.1,0-0.2-0.1-0.3-0.3c-0.2-0.2,0-0.3-0.3-0.4
		c-0.1,0-0.1,0-0.2,0c-0.3-0.2-0.1-0.2-0.4-0.2c-0.2,0-0.4-0.1-0.4-0.4c0.1-0.7,0-0.6-0.6-1c-0.2-0.2-0.3-0.4-0.4-0.7
		C59.1,37.9,59,38,58.7,38c-0.2,0-0.6-0.1-0.8-0.2c-0.5-0.3-0.6-0.3-1-0.3c-0.4-0.1-0.7-0.6-0.9-0.8c-0.2-0.4-0.7-0.6-1.1-0.5
		c-0.4,0.1-0.4,0.4-0.9,0.4c-0.3-0.1-0.5-0.4-1.1-0.5c-0.5-0.1-0.8-0.3-1.2-0.5c-0.5-0.2-0.5-0.5-0.9-0.6c-0.9-0.2-0.5-0.1-0.9-0.6
		c-0.1-0.1-0.2-0.1-0.3-0.2c-0.2-0.2-0.6-0.5-0.4-0.8c0.2-0.3,0.3-0.5,0.2-0.8C49,32.2,49,32,49,31.8s-0.4-0.6-0.5-0.8
		c-0.2-0.3-0.5-0.7-0.7-1c-0.9-0.4,0.1-0.5-0.4-1c-0.2,0-0.3-0.1-0.3-0.3c-0.1-0.4,0-0.4-0.3-0.7c-0.1-0.1-0.2-0.2-0.2-0.4
		c-0.1-0.2-0.2-0.4-0.2-0.7c0-0.2,0-0.3,0-0.5c0-0.5,0.1-0.4-0.4-0.6c-0.1,0-0.2-0.1-0.3-0.1h-0.1c-0.1,0.1-0.1,0.2-0.1,0.4
		c0,0.4,0,0.5,0.1,0.8c0.1,0.1,0.2,0.3,0.2,0.4c0.2,0.3,0.3,0.3,0.3,0.7c0,0.3,0,0.4,0.2,0.7c0.5,0.6,0.3,0.7,0.5,1.3
		c0,0.3,0,0.5-0.2,0.5c-0.2,0.1-0.4,0-0.6-0.1c-0.2-0.2-0.1-0.3,0.1-0.5c0.2-0.4-0.3-0.7-0.6-0.9c-0.4-0.3-0.6-0.5-0.2-0.9
		c0.3-0.3,0.1-0.5-0.1-0.7c-0.4-0.4-0.5-0.4-0.4-0.7c0-0.3,0-0.4,0-0.5c-2.5,0.7-5,1.6-7.6,2.6v43.5c3.2,1.2,6.4,2.3,9.7,3.2
		c4.9,1.3,9.9,2.1,14.9,2.5c1,0.1,2,0.1,3,0.2c0.9,0,1.8,0,2.7,0H68c0.2,0,0.3-0.1,0.5-0.1c0.7,0.1,0.1-0.5,0.4-0.7c0,0,0.1,0,0.2,0
		c0.3-0.1,0.2,0,0.4,0.2c0.2,0.3,0.3,0.4,0.5,0.6h0.3c1.5-0.1,2.9-0.2,4.3-0.3c7.6-0.7,15.3-2.6,22.8-5.5V28.7
		C89.8,25.8,82.2,23.9,74.5,23.2 M61.8,32.2c-0.1,0-0.2,0.1-0.2,0.1c-0.1,0.1-0.1,0.2-0.2,0.2c-0.3,0.2-0.4-0.1,0-0.3
		c0.1-0.1,0.2-0.1,0.3-0.1C62,31.9,62.3,32.2,61.8,32.2 M66.2,33.9c-0.3,0-0.3,0-0.6,0c-0.4,0.1-0.5,0-0.4-0.3s-0.6-0.2-0.7-0.3
		v-0.1l0,0c-0.2-0.3-0.1-0.2-0.6-0.2c-0.1,0-0.3,0-0.4-0.2c-0.2-0.2-0.3-0.3-0.7-0.3c-0.3,0-0.6-0.5-0.3-0.6
		c0.5-0.1,0.3,0.2,0.8,0.2c0.3,0,0.4,0.1,0.6,0.3c0.1,0.1,0.3,0.2,0.5,0.2c0.1,0,0.1,0,0.1,0c0.1,0,0.2,0.1,0.4,0.2
		c0.1,0.1,0.2,0.1,0.2,0.2c0.2,0.2,0.3,0.3,0.6,0.3c0.3,0.1,0.3,0,0.6,0.2C66.6,33.7,66.9,33.8,66.2,33.9 M67.5,34.9
		c-0.1,0-0.2,0-0.3,0c-0.2,0-0.3,0-0.3-0.1c0-0.2,0.1-0.1,0.2-0.1l0,0c0.1,0,0.1,0,0.2,0.1C67.4,34.9,67.5,34.9,67.5,34.9
		C67.8,34.9,67.7,35,67.5,34.9 M69.4,34.7c-0.4,0-0.5-0.1-0.6,0.1c0,0.1-0.1,0.1-0.1,0.2c0,0.1-0.1,0.1-0.2,0
		c-0.3,0-0.5-0.2-0.5-0.3s0-0.2-0.1-0.2c-0.4-0.9-0.2-0.2,0.8-0.4h0.1c0.3-0.1,0.3-0.1,0.6,0.2c0.1,0.1,0.1,0.1,0.2,0.2
		C70.4,34.6,69.6,34.9,69.4,34.7 M70.2,34.8C70.1,34.8,70.1,34.7,70.2,34.8c-0.1-0.2,0-0.3,0-0.3C70.3,34.5,70.3,34.6,70.2,34.8
		C70.3,34.7,70.3,34.8,70.2,34.8 M67.2,71.4L67.2,71.4c0.1-0.1,0.1-0.1,0.1-0.2c0-0.2,0.1-0.1,0.1,0.1s0,0.6-0.2,0.6s-0.2,0-0.1-0.2
		C67.1,71.4,67.1,71.5,67.2,71.4 M46.9,31.3c-0.1,0.1-0.2,0.1-0.2,0c0,0,0,0,0-0.1c-0.1-0.3-0.3-0.1-0.3-0.4
		c0.1-0.2,0.2-0.3,0.3-0.2c0.1,0.1,0.2,0.2,0.2,0.2C47,31.1,47.1,31.2,46.9,31.3 M75.2,74.2c-0.2,0.3-0.2,0.2-0.6,0.2h-0.1
		c-0.2,0-0.2,0.2-0.5,0.1c-0.2-0.2-0.3-0.3-0.2-0.4c0.1-0.2,0.1-0.2,0.2-0.2c0.2,0.1,0.3,0,0.5,0c0.1,0,0.2-0.1,0.2-0.1
		C75.3,73.6,75.3,73.9,75.2,74.2"/>
	<polygon class="st2" points="44.2,89.6 44.2,91.6 39.7,91.6 39.7,94.3 43.8,94.3 43.8,96.3 39.7,96.3 39.7,100.6 37.1,100.6 
		37.1,89.6 	"/>
	<polygon class="st2" points="46.5,89.6 49.1,89.6 49.1,98.5 52.9,98.5 52.9,100.6 46.5,100.6 	"/>
	<path class="st2" d="M58.2,89.6H61l4,11h-2.8l-0.7-2.3h-3.7l-0.8,2.3h-2.8L58.2,89.6z M58.3,96.3h2.5L60.4,95
		c-0.1-0.4-0.3-0.9-0.4-1.4c-0.1-0.5-0.3-0.9-0.4-1.3l0,0c-0.1,0.4-0.2,0.8-0.4,1.3s-0.3,0.9-0.4,1.4L58.3,96.3z"/>
	<path class="st2" d="M71.6,98.8c0.5,0,1,0,1.3-0.1c0.4-0.1,0.7-0.2,0.9-0.4l0.5,1.9c-0.2,0.1-0.6,0.3-1.1,0.4s-1.1,0.2-1.9,0.2
		c-0.9,0-1.6-0.1-2.4-0.4c-0.7-0.3-1.3-0.6-1.8-1.1s-0.9-1.1-1.2-1.8c-0.3-0.7-0.4-1.5-0.4-2.4c0-0.8,0.1-1.6,0.4-2.3
		c0.3-0.7,0.7-1.3,1.2-1.8s1.1-0.9,1.8-1.1c0.7-0.3,1.5-0.4,2.4-0.4c0.8,0,1.4,0.1,1.9,0.2s0.9,0.3,1.1,0.4L73.8,92
		c-0.3-0.2-0.6-0.3-1-0.4s-0.8-0.2-1.2-0.2c-0.5,0-0.9,0.1-1.3,0.2s-0.8,0.3-1.1,0.6c-0.3,0.3-0.5,0.7-0.7,1.1
		c-0.2,0.5-0.3,1-0.3,1.7c0,0.6,0.1,1.2,0.3,1.6c0.2,0.5,0.4,0.8,0.7,1.2c0.3,0.3,0.7,0.5,1.1,0.7C70.7,98.7,71.1,98.8,71.6,98.8"/>
	<path class="st2" d="M80.4,89.4c0.8,0,1.4,0.1,2,0.2c0.6,0.2,1,0.3,1.4,0.6l-0.6,1.9c-0.5-0.2-0.9-0.4-1.4-0.5s-0.9-0.2-1.3-0.2
		c-0.5,0-0.9,0.1-1.2,0.3c-0.3,0.2-0.4,0.5-0.4,0.8c0,0.4,0.1,0.6,0.4,0.8c0.3,0.2,0.7,0.3,1.2,0.5l1,0.3c0.4,0.1,0.8,0.3,1.1,0.5
		c0.4,0.2,0.7,0.4,0.9,0.7c0.2,0.3,0.4,0.6,0.6,0.9c0.1,0.3,0.2,0.7,0.2,1.1c0,0.5-0.1,0.9-0.3,1.3c-0.2,0.4-0.4,0.8-0.8,1.1
		c-0.4,0.3-0.8,0.6-1.3,0.7c-0.5,0.2-1.2,0.3-1.9,0.3c-0.7,0-1.3-0.1-2-0.2c-0.6-0.1-1.2-0.4-1.7-0.6L77,98c0.5,0.2,1,0.4,1.5,0.6
		c0.5,0.1,1,0.2,1.5,0.2c0.6,0,1.1-0.1,1.3-0.3c0.3-0.2,0.4-0.5,0.4-0.8c0-0.1,0-0.2-0.1-0.3c0-0.1-0.1-0.2-0.3-0.4
		c-0.1-0.1-0.3-0.2-0.6-0.3c-0.2-0.1-0.5-0.2-0.9-0.3L79.1,96c-0.4-0.1-0.8-0.3-1.1-0.5c-0.4-0.2-0.6-0.4-0.9-0.7
		c-0.2-0.3-0.4-0.6-0.6-0.9c-0.1-0.3-0.2-0.7-0.2-1.2s0.1-0.9,0.3-1.3c0.2-0.4,0.4-0.8,0.8-1.1c0.4-0.3,0.8-0.5,1.3-0.7
		C79.1,89.5,79.7,89.4,80.4,89.4"/>
	<path class="st2" d="M92,89.4c0.8,0,1.5,0.1,2.2,0.4s1.3,0.6,1.7,1.1c0.5,0.5,0.9,1.1,1.1,1.8c0.3,0.7,0.4,1.5,0.4,2.4
		s-0.1,1.7-0.4,2.3c-0.3,0.7-0.7,1.3-1.2,1.8s-1.1,0.9-1.8,1.1c-0.7,0.3-1.4,0.4-2.2,0.4c-0.8,0-1.5-0.1-2.2-0.4s-1.3-0.6-1.7-1.1
		c-0.5-0.5-0.9-1.1-1.1-1.8c-0.3-0.7-0.4-1.5-0.4-2.4s0.1-1.7,0.4-2.4c0.3-0.7,0.7-1.3,1.2-1.8s1.1-0.9,1.8-1.1
		C90.4,89.5,91.2,89.4,92,89.4 M89.2,95.1c0,0.6,0.1,1.2,0.2,1.6c0.1,0.5,0.3,0.8,0.6,1.1c0.3,0.3,0.5,0.5,0.9,0.7
		c0.3,0.2,0.7,0.2,1.1,0.2s0.7-0.1,1.1-0.2c0.3-0.2,0.6-0.4,0.9-0.7c0.2-0.3,0.4-0.7,0.6-1.1c0.1-0.5,0.2-1,0.2-1.6
		s-0.1-1.2-0.2-1.7s-0.3-0.9-0.6-1.2c-0.3-0.3-0.5-0.5-0.9-0.7c-0.3-0.2-0.7-0.2-1.1-0.2s-0.7,0.1-1.1,0.2c-0.3,0.2-0.6,0.4-0.9,0.7
		c-0.2,0.3-0.4,0.7-0.6,1.2C89.3,94,89.2,94.5,89.2,95.1"/>
	<path class="st2" d="M39.3,106.8H40l2.3,6h-0.7l-0.7-1.7h-2.6l-0.7,1.7H37L39.3,106.8z M38.5,110.5h2.2l-0.5-1.3
		c-0.1-0.2-0.2-0.5-0.3-0.8s-0.2-0.6-0.3-0.9l0,0c-0.1,0.2-0.1,0.3-0.1,0.5c-0.1,0.1-0.1,0.3-0.2,0.4c0,0.1-0.1,0.3-0.1,0.4
		s-0.1,0.3-0.2,0.4L38.5,110.5z"/>
	<path class="st2" d="M45,106.8h1.8c0.3,0,0.6,0,0.8,0.1s0.4,0.2,0.6,0.4c0.2,0.2,0.3,0.3,0.4,0.5c0.1,0.2,0.1,0.4,0.1,0.7
		c0,0.2,0,0.4-0.1,0.6s-0.2,0.3-0.3,0.5c-0.1,0.1-0.3,0.3-0.4,0.4c-0.1,0.1-0.3,0.2-0.5,0.2l1.6,2.6h-0.8l-1.5-2.4h-1.2v2.4H45
		V106.8z M45.7,109.7h0.9c0.2,0,0.4,0,0.6-0.1c0.2,0,0.3-0.1,0.5-0.2c0.1-0.1,0.2-0.2,0.3-0.4c0.1-0.2,0.1-0.3,0.1-0.5
		c0-0.4-0.1-0.7-0.4-0.9c-0.2-0.2-0.6-0.3-1-0.3h-1C45.7,107.3,45.7,109.7,45.7,109.7z"/>
	<path class="st2" d="M54.5,106.7c0.3,0,0.6,0,0.9,0.1c0.3,0,0.5,0.1,0.8,0.3l-0.2,0.5c-0.2-0.1-0.4-0.2-0.7-0.2
		c-0.2-0.1-0.5-0.1-0.7-0.1c-0.3,0-0.6,0-0.9,0.1c-0.3,0.1-0.5,0.2-0.7,0.4c-0.2,0.2-0.4,0.4-0.5,0.8c-0.1,0.3-0.2,0.7-0.2,1.1
		s0.1,0.7,0.2,1c0.1,0.3,0.3,0.6,0.5,0.8c0.2,0.2,0.4,0.4,0.7,0.5s0.6,0.2,0.9,0.2c0.2,0,0.5,0,0.6,0c0.2,0,0.3-0.1,0.5-0.1v-1.9
		h-1.2v-0.5h1.9v2.8c-0.2,0.1-0.5,0.2-0.8,0.2c-0.3,0.1-0.6,0.1-1,0.1s-0.8-0.1-1.1-0.2c-0.4-0.1-0.7-0.3-0.9-0.6
		c-0.3-0.3-0.5-0.6-0.6-0.9c-0.2-0.4-0.2-0.8-0.2-1.3s0.1-0.9,0.2-1.3c0.1-0.4,0.3-0.7,0.6-0.9c0.3-0.2,0.6-0.4,0.9-0.6
		C53.7,106.8,54.1,106.7,54.5,106.7"/>
	<polygon class="st2" points="59.5,106.8 63,106.8 63,107.3 60.2,107.3 60.2,109.4 62.7,109.4 62.7,109.9 60.2,109.9 60.2,112.2 
		63,112.2 63,112.7 59.5,112.7 	"/>
	<path class="st2" d="M66,106.8h0.6l2.7,3.8c0.1,0.2,0.2,0.4,0.4,0.5c0.1,0.2,0.2,0.4,0.3,0.5l0,0c0-0.2,0-0.5,0-0.7s0-0.5,0-0.7
		v-3.5h0.7v6H70l-2.6-3.7c-0.1-0.2-0.3-0.4-0.4-0.6s-0.3-0.4-0.4-0.6l0,0c0,0.3,0,0.6,0,0.8c0,0.3,0,0.6,0,0.8v3.3H66V106.8z"/>
	<polygon class="st2" points="77.9,106.8 77.9,107.3 76,107.3 76,112.7 75.3,112.7 75.3,107.3 73.4,107.3 73.4,106.8 	"/>
	<rect x="80.7" y="106.8" class="st2" width="0.7" height="6"/>
	<path class="st2" d="M84.8,106.8h0.6l2.7,3.8c0.1,0.2,0.2,0.4,0.4,0.5c0.1,0.2,0.2,0.4,0.3,0.5l0,0c0-0.2,0-0.5,0-0.7s0-0.5,0-0.7
		v-3.5h0.7v6h-0.6l-2.6-3.7c-0.1-0.2-0.3-0.4-0.4-0.6s-0.2-0.4-0.4-0.6l0,0c0,0.3,0,0.6,0,0.8c0,0.3,0,0.6,0,0.8v3.3h-0.7V106.8z"/>
	<path class="st2" d="M94.5,106.8h0.6l2.3,6h-0.7L96,111h-2.6l-0.7,1.7H92L94.5,106.8z M93.7,110.5h2.2l-0.5-1.3
		c-0.1-0.2-0.2-0.5-0.3-0.8c-0.1-0.3-0.2-0.6-0.3-0.9l0,0c0,0.2-0.1,0.3-0.2,0.5c0,0.1-0.1,0.3-0.1,0.4s-0.1,0.3-0.1,0.4
		s-0.1,0.3-0.2,0.4L93.7,110.5z"/>
	<g class="st1">
		<path class="st2" d="M164.2,23.7h-2.8v3.7h-1V19h4.3v0.9h-3.3v2.9h2.8V23.7z"/>
	</g>
	<g class="st1">
		<path class="st2" d="M168.8,27.4c-0.1-0.1-0.1-0.4-0.1-0.7c-0.4,0.5-0.8,0.8-1.4,0.8c-0.6,0-1-0.2-1.3-0.5s-0.5-0.8-0.5-1.3
			c0-0.6,0.2-1.1,0.6-1.5c0.4-0.4,1-0.6,1.8-0.6h0.7v-0.7c0-0.4-0.1-0.6-0.2-0.8c-0.2-0.2-0.4-0.2-0.8-0.2c-0.3,0-0.6,0.1-0.7,0.3
			c-0.2,0.2-0.3,0.4-0.3,0.7h-1c0-0.3,0.1-0.6,0.3-0.9c0.2-0.3,0.4-0.5,0.8-0.7c0.3-0.2,0.7-0.2,1.1-0.2c0.6,0,1.1,0.2,1.4,0.5
			c0.3,0.3,0.5,0.8,0.5,1.4V26c0,0.5,0.1,0.9,0.2,1.2v0.1H168.8z M167.5,26.5c0.2,0,0.5-0.1,0.7-0.2s0.4-0.3,0.5-0.5v-1.5h-0.6
			c-0.5,0-0.9,0.1-1.1,0.3c-0.3,0.2-0.4,0.5-0.4,0.9c0,0.4,0.1,0.6,0.2,0.8C166.9,26.5,167.2,26.5,167.5,26.5z"/>
		<path class="st2" d="M173.4,26.6c0.3,0,0.6-0.1,0.8-0.3c0.2-0.2,0.3-0.5,0.3-0.9h1c0,0.6-0.2,1.1-0.6,1.5
			c-0.4,0.4-0.9,0.6-1.5,0.6c-0.8,0-1.4-0.2-1.8-0.7c-0.4-0.5-0.6-1.2-0.6-2.2v-0.7c0-0.9,0.2-1.6,0.6-2.1c0.4-0.5,1-0.7,1.8-0.7
			c0.6,0,1.1,0.2,1.5,0.6c0.4,0.4,0.6,1,0.6,1.6h-1c0-0.5-0.1-0.8-0.3-1c-0.2-0.2-0.5-0.3-0.8-0.3c-0.5,0-0.8,0.1-1,0.4
			c-0.2,0.3-0.3,0.8-0.3,1.5v0.8c0,0.7,0.1,1.2,0.3,1.5C172.6,26.5,173,26.6,173.4,26.6z"/>
		<path class="st2" d="M179.9,26.8c-0.3,0.4-0.8,0.7-1.5,0.7c-0.6,0-1-0.2-1.3-0.6c-0.3-0.4-0.4-1-0.4-1.7v-4h1v4
			c0,1,0.3,1.5,0.9,1.5c0.6,0,1-0.3,1.3-0.8v-4.6h1v6.2h-1L179.9,26.8z"/>
		<path class="st2" d="M183.5,27.4h-1v-8.8h1V27.4z"/>
		<path class="st2" d="M186.4,19.6v1.5h0.9V22h-0.9v3.9c0,0.2,0,0.4,0.1,0.6c0.1,0.1,0.2,0.2,0.4,0.2c0.1,0,0.3,0,0.4-0.1l0,0.9
			c-0.2,0.1-0.5,0.1-0.7,0.1c-0.4,0-0.7-0.1-0.9-0.4c-0.2-0.3-0.3-0.7-0.3-1.2V22h-0.9v-0.8h0.9v-1.5H186.4z"/>
		<path class="st2" d="M191.7,27.4c-0.1-0.1-0.1-0.4-0.1-0.7c-0.4,0.5-0.8,0.8-1.4,0.8c-0.6,0-1-0.2-1.3-0.5s-0.5-0.8-0.5-1.3
			c0-0.6,0.2-1.1,0.6-1.5c0.4-0.4,1-0.6,1.8-0.6h0.7v-0.7c0-0.4-0.1-0.6-0.2-0.8c-0.2-0.2-0.4-0.2-0.8-0.2c-0.3,0-0.6,0.1-0.7,0.3
			c-0.2,0.2-0.3,0.4-0.3,0.7h-1c0-0.3,0.1-0.6,0.3-0.9c0.2-0.3,0.4-0.5,0.8-0.7c0.3-0.2,0.7-0.2,1.1-0.2c0.6,0,1.1,0.2,1.4,0.5
			c0.3,0.3,0.5,0.8,0.5,1.4V26c0,0.5,0.1,0.9,0.2,1.2v0.1H191.7z M190.4,26.5c0.2,0,0.5-0.1,0.7-0.2s0.4-0.3,0.5-0.5v-1.5H191
			c-0.5,0-0.9,0.1-1.1,0.3c-0.3,0.2-0.4,0.5-0.4,0.9c0,0.4,0.1,0.6,0.2,0.8C189.8,26.5,190,26.5,190.4,26.5z"/>
		<path class="st2" d="M194,24c0-1,0.2-1.7,0.5-2.2s0.9-0.8,1.5-0.8c0.6,0,1.1,0.2,1.4,0.7v-3.2h1v8.8h-0.9l-0.1-0.7
			c-0.3,0.5-0.8,0.8-1.4,0.8c-0.6,0-1.1-0.2-1.5-0.7s-0.6-1.2-0.6-2.1V24z M195,24.5c0,0.7,0.1,1.2,0.3,1.5s0.5,0.5,1,0.5
			c0.5,0,0.9-0.3,1.1-0.8v-3.1c-0.3-0.5-0.6-0.7-1.1-0.7c-0.5,0-0.8,0.2-1,0.5c-0.2,0.3-0.3,0.8-0.3,1.5V24.5z"/>
	</g>
	<g class="st1">
		<path class="st2" d="M161.4,40.5h3.3v0.9h-4.3v-8.4h1.1V40.5z"/>
		<path class="st2" d="M168.9,41.4c-0.1-0.1-0.1-0.4-0.1-0.7c-0.4,0.5-0.8,0.8-1.4,0.8c-0.6,0-1-0.2-1.3-0.5s-0.5-0.8-0.5-1.3
			c0-0.6,0.2-1.1,0.6-1.5c0.4-0.4,1-0.6,1.8-0.6h0.7V37c0-0.4-0.1-0.6-0.2-0.8c-0.2-0.2-0.4-0.2-0.8-0.2c-0.3,0-0.6,0.1-0.7,0.3
			c-0.2,0.2-0.3,0.4-0.3,0.7h-1c0-0.3,0.1-0.6,0.3-0.9c0.2-0.3,0.4-0.5,0.8-0.7c0.3-0.2,0.7-0.2,1.1-0.2c0.6,0,1.1,0.2,1.4,0.5
			c0.3,0.3,0.5,0.8,0.5,1.4v3.1c0,0.5,0.1,0.9,0.2,1.2v0.1H168.9z M167.6,40.6c0.2,0,0.5-0.1,0.7-0.2s0.4-0.3,0.5-0.5v-1.5h-0.6
			c-0.5,0-0.9,0.1-1.1,0.3c-0.3,0.2-0.4,0.5-0.4,0.9c0,0.4,0.1,0.6,0.2,0.8C167,40.5,167.2,40.6,167.6,40.6z"/>
		<path class="st2" d="M172.7,33.7v1.5h0.9V36h-0.9v3.9c0,0.2,0,0.4,0.1,0.6c0.1,0.1,0.2,0.2,0.4,0.2c0.1,0,0.3,0,0.4-0.1l0,0.9
			c-0.2,0.1-0.5,0.1-0.7,0.1c-0.4,0-0.7-0.1-0.9-0.4c-0.2-0.3-0.3-0.7-0.3-1.2V36h-0.9v-0.8h0.9v-1.5H172.7z"/>
		<path class="st2" d="M176,33.6c0,0.2,0,0.3-0.1,0.4c-0.1,0.1-0.2,0.2-0.4,0.2c-0.2,0-0.3-0.1-0.4-0.2c-0.1-0.1-0.1-0.3-0.1-0.4
			c0-0.2,0-0.3,0.1-0.4c0.1-0.1,0.2-0.2,0.4-0.2s0.3,0.1,0.4,0.2C176,33.2,176,33.4,176,33.6z M175.9,41.4h-1v-6.2h1V41.4z"/>
		<path class="st2" d="M178.5,35.2l0,0.7c0.4-0.5,0.9-0.8,1.5-0.8c1.1,0,1.7,0.7,1.7,2.2v4.1h-1v-4.1c0-0.5-0.1-0.8-0.2-1
			c-0.2-0.2-0.4-0.3-0.7-0.3c-0.3,0-0.5,0.1-0.7,0.3c-0.2,0.2-0.4,0.4-0.5,0.7v4.5h-1v-6.2H178.5z"/>
		<path class="st2" d="M183,38c0-0.9,0.2-1.6,0.7-2.1c0.4-0.5,1-0.8,1.7-0.8s1.3,0.3,1.7,0.8c0.4,0.5,0.7,1.2,0.7,2.1v0.7
			c0,0.9-0.2,1.6-0.7,2.1c-0.4,0.5-1,0.8-1.7,0.8c-0.7,0-1.3-0.3-1.7-0.8c-0.4-0.5-0.7-1.2-0.7-2.1V38z M184,38.6
			c0,0.6,0.1,1.1,0.4,1.5s0.6,0.5,1,0.5c0.9,0,1.4-0.6,1.4-1.9V38c0-0.6-0.1-1.1-0.4-1.5s-0.6-0.6-1-0.6c-0.4,0-0.8,0.2-1,0.6
			S184,37.4,184,38V38.6z"/>
		<path class="st2" d="M192.3,41.4c-0.1-0.1-0.1-0.4-0.1-0.7c-0.4,0.5-0.8,0.8-1.4,0.8c-0.6,0-1-0.2-1.3-0.5s-0.5-0.8-0.5-1.3
			c0-0.6,0.2-1.1,0.6-1.5c0.4-0.4,1-0.6,1.8-0.6h0.7V37c0-0.4-0.1-0.6-0.2-0.8c-0.2-0.2-0.4-0.2-0.8-0.2c-0.3,0-0.6,0.1-0.7,0.3
			c-0.2,0.2-0.3,0.4-0.3,0.7h-1c0-0.3,0.1-0.6,0.3-0.9c0.2-0.3,0.4-0.5,0.8-0.7c0.3-0.2,0.7-0.2,1.1-0.2c0.6,0,1.1,0.2,1.4,0.5
			c0.3,0.3,0.5,0.8,0.5,1.4v3.1c0,0.5,0.1,0.9,0.2,1.2v0.1H192.3z M190.9,40.6c0.2,0,0.5-0.1,0.7-0.2s0.4-0.3,0.5-0.5v-1.5h-0.6
			c-0.5,0-0.9,0.1-1.1,0.3c-0.3,0.2-0.4,0.5-0.4,0.9c0,0.4,0.1,0.6,0.2,0.8C190.4,40.5,190.6,40.6,190.9,40.6z"/>
		<path class="st2" d="M195.7,35.2l0,0.6c0.4-0.5,0.9-0.7,1.5-0.7c0.7,0,1.2,0.3,1.5,0.9c0.4-0.6,0.9-0.9,1.6-0.9
			c1.1,0,1.7,0.7,1.8,2.1v4.2h-1v-4.1c0-0.5-0.1-0.8-0.2-1c-0.2-0.2-0.4-0.3-0.8-0.3c-0.3,0-0.6,0.1-0.7,0.4
			c-0.2,0.2-0.3,0.5-0.3,0.9v4.2h-1v-4.1c0-0.9-0.4-1.3-1-1.3c-0.5,0-0.9,0.3-1.1,0.8v4.7h-1v-6.2H195.7z"/>
		<path class="st2" d="M205.8,41.5c-0.8,0-1.4-0.2-1.8-0.7s-0.6-1.1-0.6-2v-0.8c0-0.9,0.2-1.7,0.6-2.2c0.4-0.5,1-0.8,1.7-0.8
			c0.7,0,1.3,0.2,1.6,0.7c0.4,0.5,0.5,1.2,0.6,2.2v0.7h-3.5v0.1c0,0.7,0.1,1.1,0.4,1.5c0.2,0.3,0.6,0.5,1.1,0.5
			c0.3,0,0.6-0.1,0.8-0.2c0.2-0.1,0.4-0.3,0.6-0.5l0.5,0.6C207.4,41.2,206.7,41.5,205.8,41.5z M205.7,36c-0.4,0-0.7,0.1-0.9,0.4
			s-0.3,0.7-0.3,1.3h2.4v-0.1c0-0.6-0.1-1-0.3-1.3C206.3,36.1,206,36,205.7,36z"/>
		<path class="st2" d="M211.6,36.2c-0.1,0-0.3,0-0.5,0c-0.5,0-0.9,0.3-1.1,0.9v4.4h-1v-6.2h1l0,0.6c0.3-0.5,0.7-0.7,1.2-0.7
			c0.2,0,0.3,0,0.4,0.1L211.6,36.2z"/>
		<path class="st2" d="M213.8,33.6c0,0.2,0,0.3-0.1,0.4c-0.1,0.1-0.2,0.2-0.4,0.2c-0.2,0-0.3-0.1-0.4-0.2c-0.1-0.1-0.1-0.3-0.1-0.4
			c0-0.2,0-0.3,0.1-0.4c0.1-0.1,0.2-0.2,0.4-0.2s0.3,0.1,0.4,0.2C213.8,33.2,213.8,33.4,213.8,33.6z M213.7,41.4h-1v-6.2h1V41.4z"/>
		<path class="st2" d="M217.5,40.7c0.3,0,0.6-0.1,0.8-0.3c0.2-0.2,0.3-0.5,0.3-0.9h1c0,0.6-0.2,1.1-0.6,1.5
			c-0.4,0.4-0.9,0.6-1.5,0.6c-0.8,0-1.4-0.2-1.8-0.7c-0.4-0.5-0.6-1.2-0.6-2.2V38c0-0.9,0.2-1.6,0.6-2.1c0.4-0.5,1-0.7,1.8-0.7
			c0.6,0,1.1,0.2,1.5,0.6c0.4,0.4,0.6,1,0.6,1.6h-1c0-0.5-0.1-0.8-0.3-1s-0.5-0.3-0.8-0.3c-0.5,0-0.8,0.1-1,0.4
			c-0.2,0.3-0.3,0.8-0.3,1.5v0.8c0,0.7,0.1,1.2,0.3,1.5C216.7,40.5,217,40.7,217.5,40.7z"/>
		<path class="st2" d="M224,41.4c-0.1-0.1-0.1-0.4-0.1-0.7c-0.4,0.5-0.8,0.8-1.4,0.8c-0.6,0-1-0.2-1.3-0.5s-0.5-0.8-0.5-1.3
			c0-0.6,0.2-1.1,0.6-1.5c0.4-0.4,1-0.6,1.8-0.6h0.7V37c0-0.4-0.1-0.6-0.2-0.8c-0.2-0.2-0.4-0.2-0.8-0.2c-0.3,0-0.6,0.1-0.7,0.3
			c-0.2,0.2-0.3,0.4-0.3,0.7h-1c0-0.3,0.1-0.6,0.3-0.9c0.2-0.3,0.4-0.5,0.8-0.7c0.3-0.2,0.7-0.2,1.1-0.2c0.6,0,1.1,0.2,1.4,0.5
			s0.5,0.8,0.5,1.4v3.1c0,0.5,0.1,0.9,0.2,1.2v0.1H224z M222.6,40.6c0.2,0,0.5-0.1,0.7-0.2s0.4-0.3,0.5-0.5v-1.5h-0.6
			c-0.5,0-0.9,0.1-1.1,0.3c-0.3,0.2-0.4,0.5-0.4,0.9c0,0.4,0.1,0.6,0.2,0.8C222,40.5,222.3,40.6,222.6,40.6z"/>
		<path class="st2" d="M227.3,35.2l0,0.7c0.4-0.5,0.9-0.8,1.5-0.8c1.1,0,1.7,0.7,1.7,2.2v4.1h-1v-4.1c0-0.5-0.1-0.8-0.2-1
			c-0.2-0.2-0.4-0.3-0.7-0.3c-0.3,0-0.5,0.1-0.7,0.3c-0.2,0.2-0.4,0.4-0.5,0.7v4.5h-1v-6.2H227.3z"/>
		<path class="st2" d="M235.3,41.4c-0.1-0.1-0.1-0.4-0.1-0.7c-0.4,0.5-0.8,0.8-1.4,0.8c-0.6,0-1-0.2-1.3-0.5s-0.5-0.8-0.5-1.3
			c0-0.6,0.2-1.1,0.6-1.5c0.4-0.4,1-0.6,1.8-0.6h0.7V37c0-0.4-0.1-0.6-0.2-0.8c-0.2-0.2-0.4-0.2-0.8-0.2c-0.3,0-0.6,0.1-0.7,0.3
			c-0.2,0.2-0.3,0.4-0.3,0.7h-1c0-0.3,0.1-0.6,0.3-0.9c0.2-0.3,0.4-0.5,0.8-0.7c0.3-0.2,0.7-0.2,1.1-0.2c0.6,0,1.1,0.2,1.4,0.5
			s0.5,0.8,0.5,1.4v3.1c0,0.5,0.1,0.9,0.2,1.2v0.1H235.3z M233.9,40.6c0.2,0,0.5-0.1,0.7-0.2s0.4-0.3,0.5-0.5v-1.5h-0.6
			c-0.5,0-0.9,0.1-1.1,0.3c-0.3,0.2-0.4,0.5-0.4,0.9c0,0.4,0.1,0.6,0.2,0.8C233.3,40.5,233.6,40.6,233.9,40.6z"/>
		<path class="st2" d="M240.2,38c0-1,0.2-1.7,0.5-2.2s0.9-0.8,1.5-0.8c0.6,0,1.1,0.2,1.4,0.7v-3.2h1v8.8h-0.9l-0.1-0.7
			c-0.3,0.5-0.8,0.8-1.4,0.8c-0.6,0-1.1-0.2-1.5-0.7s-0.6-1.2-0.6-2.1V38z M241.2,38.6c0,0.7,0.1,1.2,0.3,1.5c0.2,0.3,0.5,0.5,1,0.5
			c0.5,0,0.9-0.3,1.1-0.8v-3.1c-0.3-0.5-0.6-0.7-1.1-0.7c-0.5,0-0.8,0.2-1,0.5c-0.2,0.3-0.3,0.8-0.3,1.5V38.6z"/>
		<path class="st2" d="M248.4,41.5c-0.8,0-1.4-0.2-1.8-0.7s-0.6-1.1-0.6-2v-0.8c0-0.9,0.2-1.7,0.6-2.2c0.4-0.5,1-0.8,1.7-0.8
			c0.7,0,1.3,0.2,1.6,0.7c0.4,0.5,0.5,1.2,0.6,2.2v0.7H247v0.1c0,0.7,0.1,1.1,0.4,1.5c0.2,0.3,0.6,0.5,1.1,0.5
			c0.3,0,0.6-0.1,0.8-0.2c0.2-0.1,0.4-0.3,0.6-0.5l0.5,0.6C250,41.2,249.3,41.5,248.4,41.5z M248.3,36c-0.4,0-0.7,0.1-0.9,0.4
			c-0.2,0.3-0.3,0.7-0.3,1.3h2.4v-0.1c0-0.6-0.1-1-0.3-1.3C249,36.1,248.7,36,248.3,36z"/>
	</g>
	<g class="st1">
		<path class="st2" d="M165.5,52.8c0,0.9-0.3,1.6-0.8,2.1c-0.5,0.5-1.1,0.7-1.9,0.7c-0.8,0-1.5-0.3-2-1s-0.7-1.5-0.7-2.6v-1.5
			c0-1.1,0.3-1.9,0.8-2.6c0.5-0.6,1.2-0.9,2.1-0.9c0.8,0,1.4,0.2,1.9,0.7c0.4,0.5,0.7,1.2,0.7,2.1h-1.1c0-0.7-0.2-1.2-0.4-1.5
			c-0.2-0.3-0.6-0.4-1.1-0.4c-0.6,0-1,0.2-1.3,0.7c-0.3,0.4-0.5,1.1-0.5,2V52c0,0.8,0.1,1.5,0.4,1.9c0.3,0.5,0.7,0.7,1.2,0.7
			c0.5,0,0.9-0.1,1.2-0.4c0.2-0.3,0.4-0.8,0.4-1.5H165.5z"/>
		<path class="st2" d="M168,47.6c0,0.2,0,0.3-0.1,0.4c-0.1,0.1-0.2,0.2-0.4,0.2c-0.2,0-0.3-0.1-0.4-0.2c-0.1-0.1-0.1-0.3-0.1-0.4
			c0-0.2,0-0.3,0.1-0.4c0.1-0.1,0.2-0.2,0.4-0.2s0.3,0.1,0.4,0.2C167.9,47.3,168,47.4,168,47.6z M167.9,55.5h-1v-6.2h1V55.5z"/>
		<path class="st2" d="M171.7,55.6c-0.8,0-1.4-0.2-1.8-0.7s-0.6-1.1-0.6-2v-0.8c0-0.9,0.2-1.7,0.6-2.2c0.4-0.5,1-0.8,1.7-0.8
			c0.7,0,1.3,0.2,1.6,0.7c0.4,0.5,0.5,1.2,0.6,2.2v0.7h-3.5v0.1c0,0.7,0.1,1.1,0.4,1.5c0.2,0.3,0.6,0.5,1.1,0.5
			c0.3,0,0.6-0.1,0.8-0.2c0.2-0.1,0.4-0.3,0.6-0.5l0.5,0.6C173.3,55.3,172.6,55.6,171.7,55.6z M171.6,50c-0.4,0-0.7,0.1-0.9,0.4
			s-0.3,0.7-0.3,1.3h2.4v-0.1c0-0.6-0.1-1-0.3-1.3C172.3,50.1,172,50,171.6,50z"/>
		<path class="st2" d="M176,49.2l0,0.7c0.4-0.5,0.9-0.8,1.5-0.8c1.1,0,1.7,0.7,1.7,2.2v4.1h-1v-4.1c0-0.5-0.1-0.8-0.2-1
			c-0.2-0.2-0.4-0.3-0.7-0.3c-0.3,0-0.5,0.1-0.7,0.3c-0.2,0.2-0.4,0.4-0.5,0.7v4.5h-1v-6.2H176z"/>
		<path class="st2" d="M182.8,54.7c0.3,0,0.6-0.1,0.8-0.3c0.2-0.2,0.3-0.5,0.3-0.9h1c0,0.6-0.2,1.1-0.6,1.5
			c-0.4,0.4-0.9,0.6-1.5,0.6c-0.8,0-1.4-0.2-1.8-0.7c-0.4-0.5-0.6-1.2-0.6-2.2V52c0-0.9,0.2-1.6,0.6-2.1c0.4-0.5,1-0.7,1.8-0.7
			c0.6,0,1.1,0.2,1.5,0.6c0.4,0.4,0.6,1,0.6,1.6h-1c0-0.5-0.1-0.8-0.3-1c-0.2-0.2-0.5-0.3-0.8-0.3c-0.5,0-0.8,0.1-1,0.4
			c-0.2,0.3-0.3,0.8-0.3,1.5v0.8c0,0.7,0.1,1.2,0.3,1.5C182,54.6,182.4,54.7,182.8,54.7z"/>
		<path class="st2" d="M187.3,47.6c0,0.2,0,0.3-0.1,0.4c-0.1,0.1-0.2,0.2-0.4,0.2c-0.2,0-0.3-0.1-0.4-0.2c-0.1-0.1-0.1-0.3-0.1-0.4
			c0-0.2,0-0.3,0.1-0.4c0.1-0.1,0.2-0.2,0.4-0.2s0.3,0.1,0.4,0.2C187.2,47.3,187.3,47.4,187.3,47.6z M187.2,55.5h-1v-6.2h1V55.5z"/>
		<path class="st2" d="M192,55.5c-0.1-0.1-0.1-0.4-0.1-0.7c-0.4,0.5-0.8,0.8-1.4,0.8c-0.6,0-1-0.2-1.3-0.5s-0.5-0.8-0.5-1.3
			c0-0.6,0.2-1.1,0.6-1.5c0.4-0.4,1-0.6,1.8-0.6h0.7V51c0-0.4-0.1-0.6-0.2-0.8c-0.2-0.2-0.4-0.2-0.8-0.2c-0.3,0-0.6,0.1-0.7,0.3
			c-0.2,0.2-0.3,0.4-0.3,0.7h-1c0-0.3,0.1-0.6,0.3-0.9c0.2-0.3,0.4-0.5,0.8-0.7c0.3-0.2,0.7-0.2,1.1-0.2c0.6,0,1.1,0.2,1.4,0.5
			c0.3,0.3,0.5,0.8,0.5,1.4v3.1c0,0.5,0.1,0.9,0.2,1.2v0.1H192z M190.6,54.6c0.2,0,0.5-0.1,0.7-0.2s0.4-0.3,0.5-0.5v-1.5h-0.6
			c-0.5,0-0.9,0.1-1.1,0.3c-0.3,0.2-0.4,0.5-0.4,0.9c0,0.4,0.1,0.6,0.2,0.8C190.1,54.6,190.3,54.6,190.6,54.6z"/>
		<path class="st2" d="M197.4,53.9c0-0.2-0.1-0.4-0.2-0.6c-0.2-0.2-0.5-0.3-1-0.6c-0.5-0.2-0.9-0.4-1.2-0.6
			c-0.2-0.2-0.4-0.3-0.5-0.5c-0.1-0.2-0.2-0.4-0.2-0.7c0-0.5,0.2-0.9,0.6-1.3c0.4-0.3,0.8-0.5,1.4-0.5c0.6,0,1.1,0.2,1.5,0.5
			c0.4,0.4,0.6,0.8,0.6,1.4h-1c0-0.3-0.1-0.5-0.3-0.7s-0.4-0.3-0.7-0.3c-0.3,0-0.5,0.1-0.7,0.2c-0.2,0.2-0.3,0.4-0.3,0.6
			c0,0.2,0.1,0.4,0.2,0.5c0.1,0.1,0.4,0.3,0.9,0.5c0.8,0.3,1.3,0.6,1.5,0.9s0.4,0.6,0.4,1.1c0,0.5-0.2,1-0.6,1.3
			c-0.4,0.3-0.9,0.5-1.5,0.5c-0.6,0-1.2-0.2-1.6-0.6c-0.4-0.4-0.6-0.8-0.6-1.4h1c0,0.3,0.1,0.6,0.3,0.8s0.5,0.3,0.8,0.3
			c0.3,0,0.6-0.1,0.8-0.2C197.4,54.3,197.4,54.1,197.4,53.9z"/>
		<path class="st2" d="M206.3,53.3c0-0.4-0.1-0.7-0.3-1s-0.6-0.4-1.2-0.6c-0.6-0.2-1-0.4-1.4-0.7c-0.3-0.2-0.5-0.5-0.7-0.8
			c-0.2-0.3-0.2-0.6-0.2-1c0-0.7,0.2-1.2,0.7-1.6c0.4-0.4,1-0.6,1.7-0.6c0.5,0,0.9,0.1,1.3,0.3c0.4,0.2,0.7,0.5,0.9,0.9
			c0.2,0.4,0.3,0.8,0.3,1.3h-1.1c0-0.5-0.1-0.9-0.4-1.2s-0.6-0.4-1.1-0.4c-0.4,0-0.8,0.1-1,0.4c-0.2,0.2-0.3,0.6-0.3,1
			c0,0.4,0.1,0.6,0.4,0.9s0.6,0.5,1.2,0.6c0.8,0.3,1.4,0.6,1.8,1c0.4,0.4,0.5,0.9,0.5,1.6c0,0.7-0.2,1.2-0.7,1.6
			c-0.4,0.4-1,0.6-1.8,0.6c-0.5,0-0.9-0.1-1.3-0.3c-0.4-0.2-0.7-0.5-1-0.9c-0.2-0.4-0.4-0.8-0.4-1.3h1.1c0,0.5,0.1,0.9,0.4,1.2
			c0.3,0.3,0.7,0.4,1.2,0.4c0.5,0,0.8-0.1,1-0.4C206.1,54.1,206.3,53.8,206.3,53.3z"/>
		<path class="st2" d="M208.3,52.1c0-0.9,0.2-1.6,0.7-2.1c0.4-0.5,1-0.8,1.7-0.8s1.3,0.3,1.7,0.8c0.4,0.5,0.7,1.2,0.7,2.1v0.7
			c0,0.9-0.2,1.6-0.7,2.1c-0.4,0.5-1,0.8-1.7,0.8c-0.7,0-1.3-0.3-1.7-0.8c-0.4-0.5-0.7-1.2-0.7-2.1V52.1z M209.4,52.7
			c0,0.6,0.1,1.1,0.4,1.5c0.3,0.4,0.6,0.5,1,0.5c0.9,0,1.4-0.6,1.4-1.9v-0.7c0-0.6-0.1-1.1-0.4-1.5c-0.3-0.4-0.6-0.6-1-0.6
			c-0.4,0-0.8,0.2-1,0.6c-0.2,0.4-0.4,0.9-0.4,1.5V52.7z"/>
		<path class="st2" d="M216.6,54.7c0.3,0,0.6-0.1,0.8-0.3c0.2-0.2,0.3-0.5,0.3-0.9h1c0,0.6-0.2,1.1-0.6,1.5
			c-0.4,0.4-0.9,0.6-1.5,0.6c-0.8,0-1.4-0.2-1.8-0.7c-0.4-0.5-0.6-1.2-0.6-2.2V52c0-0.9,0.2-1.6,0.6-2.1c0.4-0.5,1-0.7,1.8-0.7
			c0.6,0,1.1,0.2,1.5,0.6c0.4,0.4,0.6,1,0.6,1.6h-1c0-0.5-0.1-0.8-0.3-1c-0.2-0.2-0.5-0.3-0.8-0.3c-0.5,0-0.8,0.1-1,0.4
			c-0.2,0.3-0.3,0.8-0.3,1.5v0.8c0,0.7,0.1,1.2,0.3,1.5C215.8,54.6,216.1,54.7,216.6,54.7z"/>
		<path class="st2" d="M221.1,47.6c0,0.2,0,0.3-0.1,0.4c-0.1,0.1-0.2,0.2-0.4,0.2c-0.2,0-0.3-0.1-0.4-0.2c-0.1-0.1-0.1-0.3-0.1-0.4
			c0-0.2,0-0.3,0.1-0.4c0.1-0.1,0.2-0.2,0.4-0.2s0.3,0.1,0.4,0.2C221,47.3,221.1,47.4,221.1,47.6z M221,55.5h-1v-6.2h1V55.5z"/>
		<path class="st2" d="M225.8,55.5c-0.1-0.1-0.1-0.4-0.1-0.7c-0.4,0.5-0.8,0.8-1.4,0.8c-0.6,0-1-0.2-1.3-0.5s-0.5-0.8-0.5-1.3
			c0-0.6,0.2-1.1,0.6-1.5c0.4-0.4,1-0.6,1.8-0.6h0.7V51c0-0.4-0.1-0.6-0.2-0.8c-0.2-0.2-0.4-0.2-0.8-0.2c-0.3,0-0.6,0.1-0.7,0.3
			c-0.2,0.2-0.3,0.4-0.3,0.7h-1c0-0.3,0.1-0.6,0.3-0.9c0.2-0.3,0.4-0.5,0.8-0.7c0.3-0.2,0.7-0.2,1.1-0.2c0.6,0,1.1,0.2,1.4,0.5
			s0.5,0.8,0.5,1.4v3.1c0,0.5,0.1,0.9,0.2,1.2v0.1H225.8z M224.4,54.6c0.2,0,0.5-0.1,0.7-0.2s0.4-0.3,0.5-0.5v-1.5H225
			c-0.5,0-0.9,0.1-1.1,0.3c-0.3,0.2-0.4,0.5-0.4,0.9c0,0.4,0.1,0.6,0.2,0.8C223.8,54.6,224.1,54.6,224.4,54.6z"/>
		<path class="st2" d="M229.3,55.5h-1v-8.8h1V55.5z"/>
		<path class="st2" d="M233.1,55.6c-0.8,0-1.4-0.2-1.8-0.7s-0.6-1.1-0.6-2v-0.8c0-0.9,0.2-1.7,0.6-2.2c0.4-0.5,1-0.8,1.7-0.8
			c0.7,0,1.3,0.2,1.6,0.7c0.4,0.5,0.5,1.2,0.6,2.2v0.7h-3.5v0.1c0,0.7,0.1,1.1,0.4,1.5c0.2,0.3,0.6,0.5,1.1,0.5
			c0.3,0,0.6-0.1,0.8-0.2c0.2-0.1,0.4-0.3,0.6-0.5l0.5,0.6C234.7,55.3,234,55.6,233.1,55.6z M233,50c-0.4,0-0.7,0.1-0.9,0.4
			c-0.2,0.3-0.3,0.7-0.3,1.3h2.4v-0.1c0-0.6-0.1-1-0.3-1.3C233.6,50.1,233.4,50,233,50z"/>
		<path class="st2" d="M239.4,53.9c0-0.2-0.1-0.4-0.2-0.6c-0.2-0.2-0.5-0.3-1-0.6c-0.5-0.2-0.9-0.4-1.2-0.6
			c-0.2-0.2-0.4-0.3-0.5-0.5c-0.1-0.2-0.2-0.4-0.2-0.7c0-0.5,0.2-0.9,0.6-1.3c0.4-0.3,0.8-0.5,1.4-0.5c0.6,0,1.1,0.2,1.5,0.5
			c0.4,0.4,0.6,0.8,0.6,1.4h-1c0-0.3-0.1-0.5-0.3-0.7s-0.4-0.3-0.7-0.3c-0.3,0-0.5,0.1-0.7,0.2s-0.3,0.4-0.3,0.6
			c0,0.2,0.1,0.4,0.2,0.5c0.1,0.1,0.4,0.3,0.9,0.5c0.8,0.3,1.3,0.6,1.5,0.9s0.4,0.6,0.4,1.1c0,0.5-0.2,1-0.6,1.3
			c-0.4,0.3-0.9,0.5-1.5,0.5c-0.6,0-1.2-0.2-1.6-0.6s-0.6-0.8-0.6-1.4h1c0,0.3,0.1,0.6,0.3,0.8c0.2,0.2,0.5,0.3,0.8,0.3
			c0.3,0,0.6-0.1,0.8-0.2C239.3,54.3,239.4,54.1,239.4,53.9z"/>
		<path class="st2" d="M241.8,54.9c0-0.2,0.1-0.3,0.2-0.5c0.1-0.1,0.3-0.2,0.5-0.2c0.2,0,0.4,0.1,0.5,0.2c0.1,0.1,0.2,0.3,0.2,0.5
			c0,0.2-0.1,0.3-0.2,0.4c-0.1,0.1-0.3,0.2-0.5,0.2c-0.2,0-0.4-0.1-0.5-0.2C241.9,55.2,241.8,55.1,241.8,54.9z"/>
	</g>
	<g class="st1">
		<path class="st2" d="M163.9,67.4c0-0.4-0.1-0.7-0.3-1s-0.6-0.4-1.2-0.6c-0.6-0.2-1-0.4-1.4-0.7c-0.3-0.2-0.5-0.5-0.7-0.8
			c-0.2-0.3-0.2-0.6-0.2-1c0-0.7,0.2-1.2,0.7-1.6c0.4-0.4,1-0.6,1.7-0.6c0.5,0,0.9,0.1,1.3,0.3c0.4,0.2,0.7,0.5,0.9,0.9
			c0.2,0.4,0.3,0.8,0.3,1.3h-1.1c0-0.5-0.1-0.9-0.4-1.2s-0.6-0.4-1.1-0.4c-0.4,0-0.8,0.1-1,0.4c-0.2,0.2-0.3,0.6-0.3,1
			c0,0.4,0.1,0.6,0.4,0.9s0.6,0.5,1.2,0.6c0.8,0.3,1.4,0.6,1.8,1c0.4,0.4,0.5,0.9,0.5,1.6c0,0.7-0.2,1.2-0.7,1.6
			c-0.4,0.4-1,0.6-1.8,0.6c-0.5,0-0.9-0.1-1.3-0.3c-0.4-0.2-0.7-0.5-1-0.9c-0.2-0.4-0.4-0.8-0.4-1.3h1.1c0,0.5,0.1,0.9,0.4,1.2
			c0.3,0.3,0.7,0.4,1.2,0.4c0.5,0,0.8-0.1,1-0.4C163.8,68.1,163.9,67.8,163.9,67.4z"/>
		<path class="st2" d="M168.5,69.6c-0.8,0-1.4-0.2-1.8-0.7s-0.6-1.1-0.6-2v-0.8c0-0.9,0.2-1.7,0.6-2.2c0.4-0.5,1-0.8,1.7-0.8
			c0.7,0,1.3,0.2,1.6,0.7c0.4,0.5,0.5,1.2,0.6,2.2v0.7h-3.5v0.1c0,0.7,0.1,1.1,0.4,1.5c0.2,0.3,0.6,0.5,1.1,0.5
			c0.3,0,0.6-0.1,0.8-0.2c0.2-0.1,0.4-0.3,0.6-0.5l0.5,0.6C170,69.3,169.4,69.6,168.5,69.6z M168.3,64.1c-0.4,0-0.7,0.1-0.9,0.4
			s-0.3,0.7-0.3,1.3h2.4v-0.1c0-0.6-0.1-1-0.3-1.3C169,64.2,168.7,64.1,168.3,64.1z"/>
		<path class="st2" d="M171.5,66.1c0-1,0.2-1.7,0.5-2.2s0.9-0.8,1.5-0.8c0.6,0,1.1,0.2,1.4,0.7v-3.2h1v8.8h-0.9l-0.1-0.7
			c-0.3,0.5-0.8,0.8-1.4,0.8c-0.6,0-1.1-0.2-1.5-0.7s-0.6-1.2-0.6-2.1V66.1z M172.5,66.7c0,0.7,0.1,1.2,0.3,1.5s0.5,0.5,1,0.5
			c0.5,0,0.9-0.3,1.1-0.8v-3.1c-0.3-0.5-0.6-0.7-1.1-0.7c-0.5,0-0.8,0.2-1,0.5c-0.2,0.3-0.3,0.8-0.3,1.5V66.7z"/>
		<path class="st2" d="M179.8,69.6c-0.8,0-1.4-0.2-1.8-0.7s-0.6-1.1-0.6-2v-0.8c0-0.9,0.2-1.7,0.6-2.2c0.4-0.5,1-0.8,1.7-0.8
			c0.7,0,1.3,0.2,1.6,0.7c0.4,0.5,0.5,1.2,0.6,2.2v0.7h-3.5v0.1c0,0.7,0.1,1.1,0.4,1.5c0.2,0.3,0.6,0.5,1.1,0.5
			c0.3,0,0.6-0.1,0.8-0.2c0.2-0.1,0.4-0.3,0.6-0.5l0.5,0.6C181.4,69.3,180.7,69.6,179.8,69.6z M179.7,64.1c-0.4,0-0.7,0.1-0.9,0.4
			s-0.3,0.7-0.3,1.3h2.4v-0.1c0-0.6-0.1-1-0.3-1.3C180.3,64.2,180.1,64.1,179.7,64.1z"/>
		<path class="st2" d="M189.8,67.3H187l-0.6,2.2h-1.1l2.7-8.4h0.9l2.7,8.4h-1.1L189.8,67.3z M187.2,66.4h2.3l-1.1-3.8L187.2,66.4z"
			/>
	</g>
	<g class="st1">
		<path class="st2" d="M195.1,64.2c-0.1,0-0.3,0-0.5,0c-0.5,0-0.9,0.3-1.1,0.9v4.4h-1v-6.2h1l0,0.6c0.3-0.5,0.7-0.7,1.2-0.7
			c0.2,0,0.3,0,0.4,0.1L195.1,64.2z"/>
	</g>
	<g class="st1">
		<path class="st2" d="M195.9,66.1c0-1,0.2-1.7,0.5-2.2s0.9-0.7,1.5-0.7c0.6,0,1.1,0.3,1.4,0.8l0.1-0.7h0.9v6.3
			c0,0.8-0.2,1.4-0.6,1.8c-0.4,0.4-0.9,0.6-1.6,0.6c-0.3,0-0.6-0.1-1-0.2c-0.4-0.2-0.7-0.3-0.9-0.6l0.4-0.7c0.4,0.4,0.9,0.6,1.4,0.6
			c0.8,0,1.3-0.5,1.3-1.4v-0.8c-0.3,0.5-0.8,0.7-1.4,0.7c-0.6,0-1.1-0.2-1.5-0.7c-0.4-0.5-0.5-1.2-0.6-2.1V66.1z M196.9,66.7
			c0,0.7,0.1,1.2,0.3,1.5s0.5,0.5,1,0.5c0.5,0,0.9-0.3,1.1-0.8v-3.1c-0.3-0.5-0.6-0.8-1.1-0.8c-0.5,0-0.8,0.2-1,0.5
			c-0.2,0.3-0.3,0.8-0.3,1.5V66.7z"/>
		<path class="st2" d="M204.1,69.6c-0.8,0-1.4-0.2-1.8-0.7s-0.6-1.1-0.6-2v-0.8c0-0.9,0.2-1.7,0.6-2.2c0.4-0.5,1-0.8,1.7-0.8
			c0.7,0,1.3,0.2,1.6,0.7c0.4,0.5,0.5,1.2,0.6,2.2v0.7h-3.5v0.1c0,0.7,0.1,1.1,0.4,1.5c0.2,0.3,0.6,0.5,1.1,0.5
			c0.3,0,0.6-0.1,0.8-0.2c0.2-0.1,0.4-0.3,0.6-0.5l0.5,0.6C205.6,69.3,205,69.6,204.1,69.6z M203.9,64.1c-0.4,0-0.7,0.1-0.9,0.4
			s-0.3,0.7-0.3,1.3h2.4v-0.1c0-0.6-0.1-1-0.3-1.3C204.6,64.2,204.3,64.1,203.9,64.1z"/>
		<path class="st2" d="M208.3,63.3l0,0.7c0.4-0.5,0.9-0.8,1.5-0.8c1.1,0,1.7,0.7,1.7,2.2v4.1h-1v-4.1c0-0.5-0.1-0.8-0.2-1
			c-0.2-0.2-0.4-0.3-0.7-0.3c-0.3,0-0.5,0.1-0.7,0.3c-0.2,0.2-0.4,0.4-0.5,0.7v4.5h-1v-6.2H208.3z"/>
		<path class="st2" d="M214.4,61.8v1.5h0.9v0.8h-0.9V68c0,0.2,0,0.4,0.1,0.6c0.1,0.1,0.2,0.2,0.4,0.2c0.1,0,0.3,0,0.4-0.1l0,0.9
			c-0.2,0.1-0.5,0.1-0.7,0.1c-0.4,0-0.7-0.1-0.9-0.4c-0.2-0.3-0.3-0.7-0.3-1.2v-3.9h-0.9v-0.8h0.9v-1.5H214.4z"/>
		<path class="st2" d="M217.7,61.7c0,0.2,0,0.3-0.1,0.4c-0.1,0.1-0.2,0.2-0.4,0.2c-0.2,0-0.3-0.1-0.4-0.2c-0.1-0.1-0.1-0.3-0.1-0.4
			c0-0.2,0-0.3,0.1-0.4c0.1-0.1,0.2-0.2,0.4-0.2s0.3,0.1,0.4,0.2C217.6,61.3,217.7,61.5,217.7,61.7z M217.6,69.5h-1v-6.2h1V69.5z"/>
		<path class="st2" d="M220.1,63.3l0,0.7c0.4-0.5,0.9-0.8,1.5-0.8c1.1,0,1.7,0.7,1.7,2.2v4.1h-1v-4.1c0-0.5-0.1-0.8-0.2-1
			c-0.2-0.2-0.4-0.3-0.7-0.3c-0.3,0-0.5,0.1-0.7,0.3c-0.2,0.2-0.4,0.4-0.5,0.7v4.5h-1v-6.2H220.1z"/>
		<path class="st2" d="M228.1,69.5c-0.1-0.1-0.1-0.4-0.1-0.7c-0.4,0.5-0.8,0.8-1.4,0.8c-0.6,0-1-0.2-1.3-0.5s-0.5-0.8-0.5-1.3
			c0-0.6,0.2-1.1,0.6-1.5c0.4-0.4,1-0.6,1.8-0.6h0.7v-0.7c0-0.4-0.1-0.6-0.2-0.8c-0.2-0.2-0.4-0.2-0.8-0.2c-0.3,0-0.6,0.1-0.7,0.3
			c-0.2,0.2-0.3,0.4-0.3,0.7h-1c0-0.3,0.1-0.6,0.3-0.9c0.2-0.3,0.4-0.5,0.8-0.7c0.3-0.2,0.7-0.2,1.1-0.2c0.6,0,1.1,0.2,1.4,0.5
			s0.5,0.8,0.5,1.4v3.1c0,0.5,0.1,0.9,0.2,1.2v0.1H228.1z M226.7,68.7c0.2,0,0.5-0.1,0.7-0.2s0.4-0.3,0.5-0.5v-1.5h-0.6
			c-0.5,0-0.9,0.1-1.1,0.3c-0.3,0.2-0.4,0.5-0.4,0.9c0,0.4,0.1,0.6,0.2,0.8C226.1,68.6,226.4,68.7,226.7,68.7z"/>
		<path class="st2" d="M230.6,68.9c0-0.2,0.1-0.3,0.2-0.5c0.1-0.1,0.3-0.2,0.5-0.2c0.2,0,0.4,0.1,0.5,0.2c0.1,0.1,0.2,0.3,0.2,0.5
			c0,0.2-0.1,0.3-0.2,0.4c-0.1,0.1-0.3,0.2-0.5,0.2c-0.2,0-0.4-0.1-0.5-0.2C230.6,69.3,230.6,69.1,230.6,68.9z"/>
	</g>
	<g class="st1">
		<path class="st2" d="M164.1,88.7h-2.3l-0.4,1.7h-1.8l2.6-8.4h1.5l2.6,8.4h-1.8L164.1,88.7z M163.2,79.8h1.8l-1.6,1.8h-1.4
			L163.2,79.8z M162.1,87.3h1.6l-0.8-3L162.1,87.3z"/>
	</g>
	<g class="st1">
		<path class="st2" d="M170.1,85.8l-0.5,0c-0.4,0-0.7,0.2-0.9,0.6v4.1H167v-6.2h1.5l0,0.7c0.3-0.5,0.6-0.8,1.1-0.8
			c0.2,0,0.3,0,0.4,0.1L170.1,85.8z"/>
	</g>
	<g class="st1">
		<path class="st2" d="M173.3,90.5c-0.8,0-1.5-0.2-2-0.7c-0.5-0.5-0.7-1.2-0.7-2.1v-0.5c0-1,0.2-1.7,0.6-2.3s1-0.8,1.8-0.8
			c0.8,0,1.4,0.2,1.8,0.7c0.4,0.5,0.6,1.2,0.6,2.2v0.8h-3.2c0,0.5,0.1,0.8,0.3,1s0.5,0.3,0.8,0.3c0.5,0,1-0.2,1.4-0.6l0.6,1
			c-0.2,0.3-0.5,0.5-0.9,0.7C174.1,90.4,173.7,90.5,173.3,90.5z M172.3,86.7h1.6v-0.1c0-0.4-0.1-0.7-0.2-0.8
			c-0.1-0.2-0.3-0.3-0.6-0.3c-0.3,0-0.5,0.1-0.6,0.3C172.4,85.9,172.3,86.2,172.3,86.7z"/>
		<path class="st2" d="M179.4,90.4c0-0.1-0.1-0.3-0.1-0.5c-0.3,0.4-0.7,0.6-1.2,0.6c-0.5,0-1-0.2-1.3-0.5c-0.3-0.3-0.5-0.8-0.5-1.3
			c0-0.6,0.2-1.2,0.6-1.5s1-0.5,1.8-0.5h0.5v-0.5c0-0.3,0-0.5-0.1-0.6c-0.1-0.1-0.2-0.2-0.4-0.2c-0.4,0-0.6,0.2-0.6,0.7h-1.6
			c0-0.6,0.2-1,0.6-1.4c0.4-0.4,1-0.6,1.6-0.6c0.7,0,1.2,0.2,1.6,0.5c0.4,0.4,0.6,0.9,0.6,1.5V89c0,0.5,0.1,1,0.2,1.3v0.1H179.4z
			 M178.4,89.2c0.2,0,0.3,0,0.5-0.1c0.1-0.1,0.2-0.2,0.3-0.3v-1.3h-0.4c-0.3,0-0.5,0.1-0.7,0.3c-0.2,0.2-0.2,0.4-0.2,0.7
			C177.9,89,178,89.2,178.4,89.2z"/>
		<path class="st2" d="M190.4,89.4c-0.3,0.4-0.7,0.6-1.2,0.8s-1,0.3-1.6,0.3c-1,0-1.7-0.3-2.2-0.9c-0.5-0.6-0.8-1.5-0.8-2.6v-1.5
			c0-1.2,0.3-2,0.8-2.7c0.5-0.6,1.2-0.9,2.2-0.9c0.9,0,1.6,0.2,2.1,0.7c0.5,0.4,0.7,1.1,0.8,2.1h-1.6c0-0.5-0.2-0.9-0.3-1.1
			c-0.2-0.2-0.5-0.3-0.8-0.3c-0.5,0-0.8,0.2-1,0.5c-0.2,0.3-0.3,0.9-0.3,1.6v1.5c0,0.8,0.1,1.3,0.3,1.7s0.6,0.5,1.1,0.5
			c0.3,0,0.6-0.1,0.8-0.2l0.1-0.1v-1.5h-1.2V86h2.9V89.4z"/>
		<path class="st2" d="M194,90.5c-0.8,0-1.5-0.2-2-0.7c-0.5-0.5-0.7-1.2-0.7-2.1v-0.5c0-1,0.2-1.7,0.6-2.3s1-0.8,1.8-0.8
			c0.8,0,1.4,0.2,1.8,0.7c0.4,0.5,0.6,1.2,0.6,2.2v0.8H193c0,0.5,0.1,0.8,0.3,1s0.5,0.3,0.8,0.3c0.5,0,1-0.2,1.4-0.6l0.6,1
			c-0.2,0.3-0.5,0.5-0.9,0.7C194.9,90.4,194.5,90.5,194,90.5z M194,81.6h1.8l-1.6,1.8h-1.4L194,81.6z M193,86.7h1.6v-0.1
			c0-0.4-0.1-0.7-0.2-0.8c-0.1-0.2-0.3-0.3-0.6-0.3c-0.3,0-0.5,0.1-0.6,0.3C193.1,85.9,193,86.2,193,86.7z"/>
		<path class="st2" d="M198.6,84.2l0,0.6c0.4-0.5,0.8-0.7,1.4-0.7c1.1,0,1.6,0.7,1.6,2.2v4.1h-1.6v-4c0-0.4-0.1-0.6-0.2-0.8
			c-0.1-0.2-0.3-0.2-0.6-0.2c-0.3,0-0.5,0.2-0.7,0.5v4.5h-1.6v-6.2H198.6z"/>
		<path class="st2" d="M205.4,90.5c-0.8,0-1.5-0.2-2-0.7c-0.5-0.5-0.7-1.2-0.7-2.1v-0.5c0-1,0.2-1.7,0.6-2.3s1-0.8,1.8-0.8
			c0.8,0,1.4,0.2,1.8,0.7c0.4,0.5,0.6,1.2,0.6,2.2v0.8h-3.2c0,0.5,0.1,0.8,0.3,1s0.5,0.3,0.8,0.3c0.5,0,1-0.2,1.4-0.6l0.6,1
			c-0.2,0.3-0.5,0.5-0.9,0.7C206.3,90.4,205.9,90.5,205.4,90.5z M204.4,86.7h1.6v-0.1c0-0.4-0.1-0.7-0.2-0.8
			c-0.1-0.2-0.3-0.3-0.6-0.3c-0.3,0-0.5,0.1-0.6,0.3C204.5,85.9,204.4,86.2,204.4,86.7z"/>
	</g>
	<g class="st1">
		<path class="st2" d="M211.7,85.8l-0.5,0c-0.4,0-0.7,0.2-0.9,0.6v4.1h-1.6v-6.2h1.5l0,0.7c0.3-0.5,0.6-0.8,1.1-0.8
			c0.2,0,0.3,0,0.4,0.1L211.7,85.8z"/>
	</g>
	<g class="st1">
		<path class="st2" d="M212.1,87.1c0-0.9,0.2-1.7,0.7-2.2s1.1-0.8,1.8-0.8c0.8,0,1.4,0.3,1.9,0.8c0.4,0.5,0.7,1.3,0.7,2.2v0.4
			c0,0.9-0.2,1.7-0.7,2.2c-0.4,0.5-1.1,0.8-1.8,0.8c-0.8,0-1.4-0.3-1.9-0.8s-0.7-1.3-0.7-2.2V87.1z M213.7,87.5
			c0,1.1,0.3,1.7,0.9,1.7c0.5,0,0.8-0.5,0.9-1.4l0-0.7c0-0.6-0.1-1-0.2-1.3c-0.2-0.3-0.4-0.4-0.7-0.4c-0.3,0-0.5,0.1-0.6,0.4
			c-0.2,0.3-0.2,0.7-0.2,1.3V87.5z"/>
		<path class="st2" d="M218.6,92.5l-0.9-0.5l0.2-0.4c0.2-0.5,0.4-0.9,0.4-1.4V89h1.4l0,1.2c0,0.4-0.1,0.8-0.3,1.3
			C219.2,91.8,219,92.2,218.6,92.5z"/>
	</g>
	<g class="st1">
		<path class="st2" d="M163.6,100.7c0-0.3-0.1-0.6-0.3-0.8c-0.2-0.2-0.5-0.4-0.9-0.5c-0.8-0.3-1.4-0.7-1.8-1.1
			c-0.4-0.4-0.6-0.9-0.6-1.5c0-0.7,0.2-1.3,0.7-1.7s1.1-0.6,1.9-0.6c0.5,0,1,0.1,1.4,0.3c0.4,0.2,0.7,0.5,0.9,0.9
			c0.2,0.4,0.3,0.8,0.3,1.3h-1.7c0-0.4-0.1-0.7-0.2-0.9c-0.2-0.2-0.4-0.3-0.7-0.3c-0.3,0-0.5,0.1-0.7,0.3c-0.2,0.2-0.2,0.4-0.2,0.7
			c0,0.2,0.1,0.4,0.3,0.6c0.2,0.2,0.5,0.4,1,0.6c0.8,0.3,1.4,0.7,1.8,1.1c0.4,0.4,0.6,1,0.6,1.6c0,0.7-0.2,1.3-0.7,1.7
			c-0.5,0.4-1.1,0.6-1.9,0.6c-0.5,0-1-0.1-1.5-0.3c-0.4-0.2-0.8-0.5-1-1c-0.3-0.4-0.4-0.9-0.4-1.5h1.7c0,0.5,0.1,0.8,0.3,1
			s0.5,0.3,0.9,0.3C163.3,101.7,163.6,101.4,163.6,100.7z"/>
		<path class="st2" d="M166.1,99.6c0-0.9,0.2-1.7,0.7-2.2c0.4-0.5,1.1-0.8,1.8-0.8c0.8,0,1.4,0.3,1.9,0.8c0.4,0.5,0.7,1.3,0.7,2.2
			v0.4c0,0.9-0.2,1.7-0.7,2.2c-0.4,0.5-1.1,0.8-1.8,0.8c-0.8,0-1.4-0.3-1.9-0.8c-0.4-0.5-0.7-1.3-0.7-2.2V99.6z M167.8,100
			c0,1.1,0.3,1.7,0.9,1.7c0.5,0,0.8-0.5,0.9-1.4l0-0.7c0-0.6-0.1-1-0.2-1.3s-0.4-0.4-0.7-0.4c-0.3,0-0.5,0.1-0.6,0.4
			s-0.2,0.7-0.2,1.3V100z"/>
		<path class="st2" d="M174.4,101.7c0.5,0,0.7-0.3,0.7-0.9h1.5c0,0.7-0.2,1.2-0.6,1.6c-0.4,0.4-0.9,0.6-1.6,0.6
			c-0.8,0-1.4-0.2-1.8-0.7s-0.6-1.2-0.6-2.2v-0.5c0-1,0.2-1.7,0.6-2.2c0.4-0.5,1-0.8,1.8-0.8c0.7,0,1.2,0.2,1.6,0.6
			c0.4,0.4,0.6,1,0.6,1.8h-1.5c0-0.3-0.1-0.6-0.2-0.8c-0.1-0.2-0.3-0.3-0.6-0.3c-0.3,0-0.5,0.1-0.6,0.3c-0.1,0.2-0.2,0.6-0.2,1.2
			v0.6c0,0.5,0,0.9,0.1,1.1c0,0.2,0.1,0.3,0.2,0.4S174.2,101.7,174.4,101.7z"/>
		<path class="st2" d="M177.6,95.1c0-0.3,0.1-0.5,0.2-0.6c0.2-0.2,0.4-0.2,0.6-0.2s0.5,0.1,0.6,0.2c0.2,0.2,0.2,0.4,0.2,0.6
			c0,0.2-0.1,0.5-0.2,0.6s-0.4,0.2-0.6,0.2s-0.5-0.1-0.6-0.2S177.6,95.4,177.6,95.1z M179.3,102.9h-1.6v-6.2h1.6V102.9z"/>
		<path class="st2" d="M183,103c-0.8,0-1.5-0.2-2-0.7c-0.5-0.5-0.7-1.2-0.7-2.1v-0.5c0-1,0.2-1.7,0.6-2.3s1-0.8,1.8-0.8
			c0.8,0,1.4,0.2,1.8,0.7c0.4,0.5,0.6,1.2,0.6,2.2v0.8H182c0,0.5,0.1,0.8,0.3,1s0.5,0.3,0.8,0.3c0.5,0,1-0.2,1.4-0.6l0.6,1
			c-0.2,0.3-0.5,0.5-0.9,0.7C183.9,103,183.5,103,183,103z M182,99.2h1.6v-0.1c0-0.4-0.1-0.7-0.2-0.8c-0.1-0.2-0.3-0.3-0.6-0.3
			c-0.3,0-0.5,0.1-0.6,0.3C182.1,98.5,182,98.8,182,99.2z"/>
		<path class="st2" d="M185.9,99.6c0-1,0.2-1.8,0.5-2.3c0.3-0.5,0.8-0.8,1.5-0.8c0.5,0,0.9,0.2,1.2,0.6v-3.1h1.6v8.8h-1.5l-0.1-0.6
			c-0.3,0.5-0.8,0.7-1.3,0.7c-0.7,0-1.1-0.2-1.5-0.7s-0.5-1.2-0.5-2.2V99.6z M187.6,100c0,0.6,0.1,1,0.2,1.3
			c0.1,0.2,0.3,0.4,0.7,0.4c0.3,0,0.6-0.1,0.7-0.4v-2.8c-0.2-0.3-0.4-0.5-0.7-0.5c-0.3,0-0.5,0.1-0.7,0.4c-0.1,0.2-0.2,0.7-0.2,1.3
			V100z"/>
		<path class="st2" d="M194.9,102.9c0-0.1-0.1-0.3-0.1-0.5c-0.3,0.4-0.7,0.6-1.2,0.6c-0.5,0-1-0.2-1.3-0.5c-0.3-0.3-0.5-0.8-0.5-1.3
			c0-0.6,0.2-1.2,0.6-1.5s1-0.5,1.8-0.5h0.5v-0.5c0-0.3,0-0.5-0.1-0.6c-0.1-0.1-0.2-0.2-0.4-0.2c-0.4,0-0.6,0.2-0.6,0.7h-1.6
			c0-0.6,0.2-1,0.6-1.4c0.4-0.4,1-0.6,1.6-0.6c0.7,0,1.2,0.2,1.6,0.5c0.4,0.4,0.6,0.9,0.6,1.5v2.9c0,0.5,0.1,1,0.2,1.3v0.1H194.9z
			 M194,101.8c0.2,0,0.3,0,0.5-0.1c0.1-0.1,0.2-0.2,0.3-0.3v-1.3h-0.4c-0.3,0-0.5,0.1-0.7,0.3c-0.2,0.2-0.2,0.4-0.2,0.7
			C193.4,101.5,193.6,101.8,194,101.8z"/>
		<path class="st2" d="M197.3,99.6c0-1,0.2-1.8,0.5-2.3c0.3-0.5,0.8-0.8,1.5-0.8c0.5,0,0.9,0.2,1.2,0.6v-3.1h1.6v8.8h-1.5l-0.1-0.6
			c-0.3,0.5-0.8,0.7-1.3,0.7c-0.7,0-1.1-0.2-1.5-0.7s-0.5-1.2-0.5-2.2V99.6z M198.9,100c0,0.6,0.1,1,0.2,1.3
			c0.1,0.2,0.3,0.4,0.7,0.4c0.3,0,0.6-0.1,0.7-0.4v-2.8c-0.2-0.3-0.4-0.5-0.7-0.5c-0.3,0-0.5,0.1-0.7,0.4c-0.1,0.2-0.2,0.7-0.2,1.3
			V100z"/>
		<path class="st2" d="M208,100.2l0.8-3.5h1.7l-2,7.1c-0.3,1.1-0.9,1.6-1.7,1.6c-0.2,0-0.4,0-0.7-0.1v-1.3l0.2,0
			c0.3,0,0.4,0,0.6-0.1s0.2-0.3,0.3-0.5l0.1-0.4l-1.8-6.3h1.7L208,100.2z"/>
	</g>
	<g class="st1">
		<path class="st2" d="M161.8,112.5v2.9h-1.7v-8.4h2.8c0.8,0,1.5,0.3,2,0.8c0.5,0.5,0.7,1.2,0.7,2c0,0.8-0.2,1.5-0.7,1.9
			c-0.5,0.5-1.2,0.7-2,0.7H161.8z M161.8,111.1h1.2c0.3,0,0.6-0.1,0.7-0.3c0.2-0.2,0.3-0.5,0.3-0.9c0-0.4-0.1-0.7-0.3-1
			c-0.2-0.2-0.4-0.4-0.7-0.4h-1.2V111.1z"/>
	</g>
	<g class="st1">
		<path class="st2" d="M166.4,112.2c0-0.9,0.2-1.7,0.7-2.2c0.4-0.5,1.1-0.8,1.8-0.8c0.8,0,1.4,0.3,1.9,0.8c0.4,0.5,0.7,1.3,0.7,2.2
			v0.4c0,0.9-0.2,1.7-0.7,2.2c-0.4,0.5-1.1,0.8-1.8,0.8c-0.8,0-1.4-0.3-1.9-0.8c-0.4-0.5-0.7-1.3-0.7-2.2V112.2z M168,112.6
			c0,1.1,0.3,1.7,0.9,1.7c0.5,0,0.8-0.5,0.9-1.4l0-0.7c0-0.6-0.1-1-0.2-1.3s-0.4-0.4-0.7-0.4c-0.3,0-0.5,0.1-0.6,0.4
			s-0.2,0.7-0.2,1.3V112.6z"/>
		<path class="st2" d="M174.1,115.5h-1.6v-8.8h1.6V115.5z"/>
		<path class="st2" d="M177.1,115.5h-1.6v-6.2h1.6V115.5z M176.7,106.7h1.8l-1.6,1.8h-1.4L176.7,106.7z"/>
		<path class="st2" d="M180.4,107.7v1.5h0.8v1.2h-0.8v3.1c0,0.2,0,0.4,0.1,0.5s0.2,0.1,0.4,0.1c0.2,0,0.3,0,0.4,0l0,1.3
			c-0.3,0.1-0.6,0.2-0.9,0.2c-1,0-1.6-0.6-1.6-1.8v-3.3H178v-1.2h0.7v-1.5H180.4z"/>
		<path class="st2" d="M182.1,107.7c0-0.3,0.1-0.5,0.2-0.6c0.2-0.2,0.4-0.2,0.6-0.2s0.5,0.1,0.6,0.2c0.2,0.2,0.2,0.4,0.2,0.6
			c0,0.2-0.1,0.5-0.2,0.6s-0.4,0.2-0.6,0.2s-0.5-0.1-0.6-0.2S182.1,107.9,182.1,107.7z M183.8,115.5h-1.6v-6.2h1.6V115.5z"/>
		<path class="st2" d="M187.3,114.2c0.5,0,0.7-0.3,0.7-0.9h1.5c0,0.7-0.2,1.2-0.6,1.6c-0.4,0.4-0.9,0.6-1.6,0.6
			c-0.8,0-1.4-0.2-1.8-0.7s-0.6-1.2-0.6-2.2v-0.5c0-1,0.2-1.7,0.6-2.2c0.4-0.5,1-0.8,1.8-0.8c0.7,0,1.2,0.2,1.6,0.6
			c0.4,0.4,0.6,1,0.6,1.8H188c0-0.3-0.1-0.6-0.2-0.8c-0.1-0.2-0.3-0.3-0.6-0.3c-0.3,0-0.5,0.1-0.6,0.3c-0.1,0.2-0.2,0.6-0.2,1.2v0.6
			c0,0.5,0,0.9,0.1,1.1c0,0.2,0.1,0.3,0.2,0.4S187.1,114.2,187.3,114.2z"/>
		<path class="st2" d="M193.4,115.5c0-0.1-0.1-0.3-0.1-0.5c-0.3,0.4-0.7,0.6-1.2,0.6c-0.5,0-1-0.2-1.3-0.5c-0.3-0.3-0.5-0.8-0.5-1.3
			c0-0.6,0.2-1.2,0.6-1.5s1-0.5,1.8-0.5h0.5v-0.5c0-0.3,0-0.5-0.1-0.6c-0.1-0.1-0.2-0.2-0.4-0.2c-0.4,0-0.6,0.2-0.6,0.7h-1.6
			c0-0.6,0.2-1,0.6-1.4c0.4-0.4,1-0.6,1.6-0.6c0.7,0,1.2,0.2,1.6,0.5c0.4,0.4,0.6,0.9,0.6,1.5v2.9c0,0.5,0.1,1,0.2,1.3v0.1H193.4z
			 M192.4,114.3c0.2,0,0.3,0,0.5-0.1c0.1-0.1,0.2-0.2,0.3-0.3v-1.3h-0.4c-0.3,0-0.5,0.1-0.7,0.3c-0.2,0.2-0.2,0.4-0.2,0.7
			C191.9,114.1,192.1,114.3,192.4,114.3z"/>
		<path class="st2" d="M198.7,113.8c0-0.1-0.1-0.3-0.2-0.4c-0.1-0.1-0.4-0.3-0.9-0.5c-0.7-0.3-1.1-0.6-1.4-0.8
			c-0.3-0.3-0.4-0.7-0.4-1.1c0-0.5,0.2-1,0.6-1.3c0.4-0.4,0.9-0.5,1.6-0.5c0.7,0,1.2,0.2,1.6,0.5c0.4,0.4,0.6,0.8,0.6,1.4h-1.6
			c0-0.5-0.2-0.8-0.6-0.8c-0.2,0-0.3,0.1-0.4,0.2s-0.2,0.3-0.2,0.4c0,0.1,0.1,0.3,0.2,0.4s0.4,0.3,0.9,0.5c0.7,0.2,1.1,0.5,1.4,0.8
			s0.4,0.7,0.4,1.2c0,0.6-0.2,1-0.6,1.3c-0.4,0.3-1,0.5-1.6,0.5c-0.5,0-0.9-0.1-1.2-0.3s-0.6-0.4-0.8-0.7s-0.3-0.7-0.3-1h1.5
			c0,0.3,0.1,0.5,0.2,0.6c0.1,0.1,0.3,0.2,0.6,0.2C198.5,114.4,198.7,114.2,198.7,113.8z"/>
		<path class="st2" d="M201.4,114.6c0-0.3,0.1-0.5,0.3-0.6c0.2-0.2,0.4-0.3,0.7-0.3c0.3,0,0.5,0.1,0.7,0.2c0.2,0.2,0.3,0.4,0.3,0.6
			c0,0.3-0.1,0.5-0.3,0.6s-0.4,0.2-0.7,0.2c-0.3,0-0.5-0.1-0.7-0.2S201.4,114.9,201.4,114.6z"/>
	</g>
</g>
</svg>
