<?xml version="1.0" encoding="utf-8"?>
<!-- Generator: Adobe Illustrator 25.4.1, SVG Export Plug-In . SVG Version: 6.00 Build 0)  -->
<!DOCTYPE svg PUBLIC "-//W3C//DTD SVG 1.1//EN" "http://www.w3.org/Graphics/SVG/1.1/DTD/svg11.dtd" [
	<!ENTITY ns_extend "http://ns.adobe.com/Extensibility/1.0/">
	<!ENTITY ns_ai "http://ns.adobe.com/AdobeIllustrator/10.0/">
	<!ENTITY ns_graphs "http://ns.adobe.com/Graphs/1.0/">
	<!ENTITY ns_vars "http://ns.adobe.com/Variables/1.0/">
	<!ENTITY ns_imrep "http://ns.adobe.com/ImageReplacement/1.0/">
	<!ENTITY ns_sfw "http://ns.adobe.com/SaveForWeb/1.0/">
	<!ENTITY ns_custom "http://ns.adobe.com/GenericCustomNamespace/1.0/">
	<!ENTITY ns_adobe_xpath "http://ns.adobe.com/XPath/1.0/">
]>
<svg version="1.1" id="Capa_1" xmlns:x="&ns_extend;" xmlns:i="&ns_ai;" xmlns:graph="&ns_graphs;"
	 xmlns="http://www.w3.org/2000/svg" xmlns:xlink="http://www.w3.org/1999/xlink" x="0px" y="0px" viewBox="0 0 254 133.7"
	 style="enable-background:new 0 0 254 133.7;" xml:space="preserve">
<style type="text/css">
	.st0{fill:#FDC800;}
</style>
<metadata>
	<sfw  xmlns="&ns_sfw;">
		<slices></slices>
		<sliceSourceBounds  bottomLeftOrigin="true" height="133.7" width="254" x="833.1" y="-607.3"></sliceSourceBounds>
	</sfw>
</metadata>
<g>
	<path class="st0" d="M164.7,66.8c0,36.9-29.9,66.8-66.8,66.8S31,103.8,31,66.8C31,29.9,60.9,0,97.9,0S164.7,29.9,164.7,66.8"/>
	<path d="M42.1,111.5L0,69.4l42.1-42.1l42.1,42.1L42.1,111.5z M2.3,69.4l39.8,39.8l39.8-39.8L42.1,29.6L2.3,69.4z"/>
	<path d="M42.1,99.5L12,69.4l30.1-30.1l30.1,30.1L42.1,99.5z M14.3,69.4l27.8,27.8l27.8-27.8L42.1,41.6L14.3,69.4z"/>
	<path d="M42.1,91.6L19.9,69.4l22.2-22.2l22.2,22.2L42.1,91.6z M22.2,69.4l19.9,19.9L62,69.4L42.1,49.5L22.2,69.4z"/>
	<rect x="34.7" y="62" transform="matrix(0.7071 -0.7071 0.7071 0.7071 -36.7338 50.1134)" width="14.9" height="14.9"/>
	<rect x="41.6" y="29.9" width="1" height="81.6"/>
	<path d="M96,29.1h1.1c0.5,0,1.3,0.1,2,0.6c0.5,0.4,0.9,1.1,0.9,2.1c0,1.1-0.6,1.8-1,2.1c-0.5,0.4-1,0.6-2,0.6H96V29.1z M96.6,34
		h0.5c0.4,0,1,0,1.6-0.5c0.4-0.3,0.7-0.9,0.7-1.7c0-1.3-0.9-2.2-2.3-2.2h-0.5V34z"/>
	<rect x="101.5" y="29.1" width="0.6" height="5.4"/>
	<path d="M104.8,29.1c0.4,0,0.9,0,1.3,0.3c0.3,0.2,0.6,0.6,0.6,1.2c0,0.8-0.5,1.4-1.4,1.5l1.7,2.4h-0.7l-1.7-2.4h-0.2v2.4h-0.6v-5.4
		H104.8z M104.5,31.6h0.4c0.7,0,1.2-0.4,1.2-1c0-0.3-0.1-0.6-0.4-0.8c-0.2-0.1-0.5-0.2-0.8-0.2h-0.4V31.6z"/>
	<polygon points="111.2,29.7 109,29.7 109,31.3 111.2,31.3 111.2,31.9 109,31.9 109,34 111.2,34 111.2,34.5 108.4,34.5 108.4,29.1 
		111.2,29.1 	"/>
	<rect x="112.8" y="29.1" width="0.6" height="5.4"/>
	<polygon points="116.5,29.7 116.5,34.5 115.9,34.5 115.9,29.7 114.6,29.7 114.6,29.1 117.8,29.1 117.8,29.7 	"/>
	<path d="M118.5,31.8c0-1.6,1.3-2.8,2.8-2.8c1.6,0,2.8,1.2,2.8,2.8c0,1.6-1.3,2.8-2.8,2.8C119.7,34.6,118.5,33.4,118.5,31.8
		 M119.1,31.8c0,1.2,1,2.2,2.2,2.2c1.2,0,2.2-1,2.2-2.2c0-1.2-1-2.2-2.2-2.2C120.1,29.6,119.1,30.6,119.1,31.8"/>
	<path d="M128.1,30.2c-0.1-0.1-0.2-0.3-0.3-0.4c-0.1-0.1-0.3-0.2-0.6-0.2c-0.5,0-0.9,0.3-0.9,0.8c0,0.2,0.1,0.3,0.2,0.5
		c0.2,0.2,0.4,0.3,0.6,0.3l0.5,0.2c0.3,0.1,0.6,0.3,0.8,0.5c0.3,0.3,0.4,0.6,0.4,1c0,1-0.7,1.7-1.7,1.7c-0.4,0-0.8-0.1-1.2-0.4
		c-0.3-0.3-0.4-0.6-0.5-1l0.6-0.2c0,0.3,0.2,0.5,0.3,0.7c0.2,0.2,0.5,0.3,0.8,0.3c0.7,0,1.1-0.5,1.1-1.1c0-0.2-0.1-0.5-0.3-0.6
		c-0.2-0.1-0.4-0.2-0.7-0.4l-0.5-0.2c-0.2-0.1-0.5-0.2-0.7-0.4c-0.2-0.2-0.4-0.5-0.4-0.9c0-0.8,0.6-1.4,1.5-1.4
		c0.3,0,0.6,0.1,0.9,0.2c0.2,0.1,0.4,0.4,0.5,0.6L128.1,30.2z"/>
	<polygon points="133.2,31.3 136,31.3 136,29.1 136.6,29.1 136.6,34.5 136,34.5 136,31.9 133.2,31.9 133.2,34.5 132.6,34.5 
		132.6,29.1 133.2,29.1 	"/>
	<path d="M139,32.4c0,0.5,0,1,0.4,1.3c0.2,0.2,0.6,0.3,0.9,0.3c0.3,0,0.7-0.1,0.9-0.3c0.4-0.4,0.4-0.9,0.4-1.3v-3.3h0.6v3.5
		c0,0.5,0,0.9-0.3,1.3c-0.3,0.4-0.9,0.7-1.6,0.7c-0.7,0-1.3-0.3-1.6-0.7c-0.3-0.4-0.3-0.8-0.3-1.3v-3.5h0.6V32.4z"/>
	<polygon points="143.9,34.5 144.8,28.8 146.8,33.4 149,28.8 149.8,34.5 149.2,34.5 148.7,30.8 146.8,34.8 145,30.8 144.5,34.5 	"/>
	<path d="M154.5,33h-2.3l-0.7,1.5h-0.7l2.5-5.7l2.4,5.7h-0.7L154.5,33z M154.2,32.4l-0.9-2.2l-0.9,2.2H154.2z"/>
	<polygon points="157,34.5 157,28.9 161.2,33.3 161.2,29.1 161.8,29.1 161.8,34.8 157.6,30.3 157.6,34.5 	"/>
	<path d="M163.3,31.8c0-1.6,1.3-2.8,2.8-2.8c1.6,0,2.8,1.2,2.8,2.8c0,1.6-1.3,2.8-2.8,2.8C164.6,34.6,163.3,33.4,163.3,31.8
		 M163.9,31.8c0,1.2,1,2.2,2.2,2.2c1.2,0,2.2-1,2.2-2.2c0-1.2-1-2.2-2.2-2.2C164.9,29.6,163.9,30.6,163.9,31.8"/>
	<path d="M172.9,30.2c-0.1-0.1-0.2-0.3-0.3-0.4c-0.1-0.1-0.3-0.2-0.6-0.2c-0.5,0-0.9,0.3-0.9,0.8c0,0.2,0.1,0.3,0.2,0.5
		c0.2,0.2,0.4,0.3,0.6,0.3l0.5,0.2c0.3,0.1,0.6,0.3,0.8,0.5c0.3,0.3,0.4,0.6,0.4,1c0,1-0.7,1.7-1.7,1.7c-0.4,0-0.8-0.1-1.2-0.4
		c-0.3-0.3-0.4-0.6-0.5-1l0.6-0.2c0,0.3,0.2,0.5,0.3,0.7c0.2,0.2,0.5,0.3,0.8,0.3c0.7,0,1.1-0.5,1.1-1.1c0-0.2-0.1-0.5-0.3-0.6
		c-0.2-0.1-0.4-0.2-0.7-0.4l-0.5-0.2c-0.2-0.1-0.5-0.2-0.7-0.4c-0.2-0.2-0.4-0.5-0.4-0.9c0-0.8,0.6-1.4,1.5-1.4
		c0.3,0,0.6,0.1,0.9,0.2c0.2,0.1,0.4,0.4,0.5,0.6L172.9,30.2z"/>
	<path d="M177.4,29.1h1.1c0.5,0,1.3,0.1,2,0.6c0.5,0.4,0.9,1.1,0.9,2.1c0,1.1-0.6,1.8-1,2.1c-0.5,0.4-1,0.6-2,0.6h-1.1V29.1z
		 M178,34h0.5c0.4,0,1,0,1.6-0.5c0.4-0.3,0.7-0.9,0.7-1.7c0-1.3-0.9-2.2-2.3-2.2H178V34z"/>
	<path d="M186,33h-2.3l-0.7,1.5h-0.7l2.5-5.7l2.4,5.7h-0.7L186,33z M185.7,32.4l-0.9-2.2l-0.9,2.2H185.7z"/>
	<path d="M190.8,30.2c-0.1-0.1-0.2-0.3-0.3-0.4c-0.1-0.1-0.3-0.2-0.6-0.2c-0.5,0-0.9,0.3-0.9,0.8c0,0.2,0.1,0.3,0.2,0.5
		c0.2,0.2,0.4,0.3,0.6,0.3l0.5,0.2c0.3,0.1,0.6,0.3,0.8,0.5c0.3,0.3,0.4,0.6,0.4,1c0,1-0.7,1.7-1.7,1.7c-0.4,0-0.8-0.1-1.2-0.4
		c-0.3-0.3-0.4-0.6-0.5-1l0.6-0.2c0,0.3,0.2,0.5,0.3,0.7c0.2,0.2,0.5,0.3,0.8,0.3c0.7,0,1.1-0.5,1.1-1.1c0-0.2-0.1-0.5-0.3-0.6
		c-0.2-0.1-0.4-0.2-0.7-0.4l-0.5-0.2c-0.2-0.1-0.5-0.2-0.7-0.4c-0.2-0.2-0.4-0.5-0.4-0.9c0-0.8,0.6-1.4,1.5-1.4
		c0.3,0,0.6,0.1,0.9,0.2c0.2,0.1,0.4,0.4,0.5,0.6L190.8,30.2z"/>
	<polygon points="96.1,55.4 98.1,42.7 100.5,42.7 103.7,50.3 106.8,42.7 109.3,42.7 111.3,55.4 108.4,55.4 107.4,47.8 104.2,55.4 
		103.2,55.4 100,47.8 99,55.4 	"/>
	<path d="M124.7,50.2c0,1.2-0.2,2.7-1.4,4c-1.2,1.3-2.6,1.4-4,1.4c-1.3,0-2.7-0.2-4-1.4c-1.3-1.3-1.4-2.8-1.4-4v-7.5h2.9v7.4
		c0,0.6,0,1.5,0.7,2.1c0.5,0.6,1.2,0.7,1.8,0.7c0.6,0,1.3-0.1,1.8-0.7c0.6-0.6,0.7-1.6,0.7-2.1v-7.4h2.9V50.2z"/>
	<polygon points="130.9,42.7 130.9,52.9 134.8,52.9 134.8,55.4 127.9,55.4 127.9,42.7 	"/>
	<polygon points="139.9,47.5 144.9,47.5 144.9,42.7 147.8,42.7 147.8,55.4 144.9,55.4 144.9,50 139.9,50 139.9,55.4 136.9,55.4 
		136.9,42.7 139.9,42.7 	"/>
	<polygon points="158.3,45.2 154,45.2 154,47.6 158,47.6 158,50.1 154,50.1 154,52.9 158.3,52.9 158.3,55.4 151.1,55.4 151.1,42.7 
		158.3,42.7 	"/>
	<path d="M165.6,42.7c1.6,0,2.6,0.5,3.2,1.1c0.5,0.5,1.1,1.4,1.1,2.8c0,0.8-0.2,1.8-1,2.6c-0.4,0.4-1.1,0.8-1.8,1l3.9,5.2h-3.6
		l-3.4-5v5h-2.9V42.7H165.6z M164,48.5h0.7c0.5,0,1.3-0.1,1.7-0.6c0.2-0.2,0.5-0.6,0.5-1.2c0-0.7-0.3-1.1-0.6-1.3
		c-0.5-0.4-1.2-0.4-1.6-0.4H164V48.5z"/>
	<polygon points="180.3,45.2 176,45.2 176,47.6 180.1,47.6 180.1,50.1 176,50.1 176,52.9 180.3,52.9 180.3,55.4 173.1,55.4 
		173.1,42.7 180.3,42.7 	"/>
	<path d="M189.7,45.8c-1-0.9-1.8-0.9-2.1-0.9c-0.4,0-0.9,0.1-1.2,0.4c-0.2,0.2-0.3,0.5-0.3,0.8c0,0.3,0.1,0.5,0.3,0.7
		c0.3,0.3,0.7,0.4,1.6,0.7l1,0.4c0.6,0.2,1.2,0.5,1.7,1c0.7,0.7,0.9,1.6,0.9,2.4c0,1.3-0.5,2.5-1.1,3.1c-1.1,1.2-2.8,1.3-3.6,1.3
		c-0.9,0-1.7-0.1-2.5-0.5c-0.6-0.3-1.4-0.9-1.9-1.4l1.5-2.1c0.3,0.3,0.8,0.8,1.2,1c0.5,0.3,1,0.5,1.6,0.5c0.4,0,0.9-0.1,1.3-0.4
		c0.2-0.2,0.5-0.6,0.5-1c0-0.4-0.2-0.7-0.4-0.9c-0.3-0.3-1.1-0.6-1.5-0.7l-1-0.4c-0.6-0.2-1.3-0.5-1.8-1c-0.7-0.7-0.8-1.6-0.8-2.2
		c0-1.1,0.3-2.1,1.1-2.9c0.9-0.9,2-1.2,3.1-1.2c0.9,0,2.3,0.2,3.8,1.3L189.7,45.8z"/>
	<rect x="96.7" y="62.8" width="2.9" height="12.7"/>
	<polygon points="102.9,75.5 102.9,62.8 105.5,62.8 112.4,71 112.4,62.8 115.3,62.8 115.3,75.5 112.8,75.5 105.9,67.3 105.9,75.5 	
		"/>
	<path d="M122.6,62.8c1.7,0,3.4,0.2,5,1.7c1.1,1.1,1.8,2.6,1.8,4.5c0,2-0.7,3.4-1.7,4.5c-1.7,1.8-3.9,1.9-5,1.9h-4.1V62.8H122.6z
		 M121.5,73h0.8c0.6,0,1.9-0.1,2.9-0.9c0.7-0.6,1.2-1.7,1.2-3.1c0-1.4-0.6-2.2-1-2.7c-1-1-2.2-1.1-3.1-1.1h-0.8V73z"/>
	<path d="M136.4,59.3l-3.1,2.5l-1.2-1l2.5-2.8L136.4,59.3z M135,75.5h-2.9V62.8h2.9V75.5z"/>
	<path d="M144.4,68.6h6.3v0.1c0,1.5-0.6,3.9-2,5.3c-1.4,1.5-3,1.7-4.5,1.7c-1.5,0-3.2-0.2-4.6-1.8c-0.7-0.8-1.9-2.3-1.9-4.8
		c0-2.1,0.8-3.7,1.8-4.8c1.6-1.6,3.5-1.8,5-1.8c1,0,2.4,0.2,3.6,1c0.9,0.6,1.6,1.5,2.1,2.3l-2.6,1.4c-0.2-0.5-0.6-1-1.1-1.4
		c-0.6-0.4-1.2-0.6-1.9-0.6c-1.2,0-2,0.4-2.6,1c-0.7,0.7-1.1,1.8-1.1,3c0,1.4,0.5,2.4,1.1,2.9c0.7,0.8,1.6,1,2.6,1
		c1.3,0,1.9-0.4,2.2-0.7c0.1-0.1,0.7-0.6,0.9-1.5h-3.1V68.6z"/>
	<polygon points="160.6,65.3 156.3,65.3 156.3,67.7 160.3,67.7 160.3,70.2 156.3,70.2 156.3,73 160.6,73 160.6,75.5 153.4,75.5 
		153.4,62.8 160.6,62.8 	"/>
	<polygon points="163.4,75.5 163.4,62.8 166,62.8 172.8,71 172.8,62.8 175.8,62.8 175.8,75.5 173.2,75.5 166.3,67.3 166.3,75.5 	"/>
	<path d="M186.5,73.1h-4.8l-1,2.4h-3l5.1-12.7h2.7l5,12.7h-3L186.5,73.1z M185.7,70.8l-1.6-4.3l-1.6,4.3H185.7z"/>
	<path d="M198.9,65.9c-1-0.9-1.8-0.9-2.1-0.9c-0.4,0-0.9,0.1-1.2,0.4c-0.2,0.2-0.3,0.5-0.3,0.8c0,0.3,0.1,0.5,0.3,0.7
		c0.3,0.3,0.7,0.4,1.6,0.7l1,0.4c0.6,0.2,1.2,0.5,1.7,1c0.7,0.7,0.9,1.6,0.9,2.4c0,1.3-0.5,2.5-1.1,3.1c-1.1,1.2-2.8,1.3-3.6,1.3
		c-0.9,0-1.7-0.1-2.5-0.5c-0.6-0.3-1.4-0.9-1.9-1.4l1.5-2.1c0.3,0.3,0.8,0.8,1.2,1c0.5,0.3,1,0.5,1.6,0.5c0.4,0,0.9-0.1,1.3-0.4
		c0.2-0.2,0.5-0.6,0.5-1c0-0.4-0.2-0.7-0.4-0.9c-0.3-0.3-1.1-0.6-1.5-0.7l-1-0.4c-0.6-0.2-1.3-0.5-1.8-1c-0.7-0.7-0.8-1.6-0.8-2.2
		c0-1.1,0.3-2.1,1.1-2.9c0.9-0.9,2-1.2,3.1-1.2c0.9,0,2.3,0.2,3.8,1.3L198.9,65.9z"/>
	<polygon points="103.8,85.4 99.6,85.4 99.6,87.8 103.6,87.8 103.6,90.3 99.6,90.3 99.6,93.1 103.8,93.1 103.8,95.6 96.7,95.6 
		96.7,82.9 103.8,82.9 	"/>
	<path d="M121.2,94.9c-0.6,0.5-1.6,1-3.6,1c-2,0-3.4-0.6-4.7-1.8c-1.5-1.4-2-3.2-2-4.8c0-1.9,0.8-3.6,1.9-4.7c1.1-1.1,2.8-1.9,5-1.9
		c2,0,3.7,0.7,4.9,1.8c1.2,1.1,2,2.7,2,4.8c0,1-0.2,1.7-0.5,2.5c-0.3,0.7-0.7,1.3-1.2,1.7l2.2,2.4l-2.8,0.3L121.2,94.9z M121,91.5
		c0.5-0.6,0.7-1.3,0.7-2.3c0-1.3-0.6-2.3-1.1-2.8c-0.7-0.7-1.7-1.1-2.8-1.1c-1.2,0-2.2,0.5-2.8,1.1c-0.7,0.7-1.1,1.9-1.1,2.9
		c0,1,0.4,2,1.1,2.8c0.6,0.6,1.5,1.1,2.7,1.1c0.5,0,1-0.1,1.5-0.3l-2.3-2.2l2.8-0.3L121,91.5z"/>
	<path d="M138.2,90.4c0,1.2-0.2,2.7-1.4,4c-1.2,1.3-2.6,1.4-4,1.4c-1.3,0-2.7-0.2-4-1.4c-1.3-1.3-1.4-2.8-1.4-4v-7.5h2.9v7.4
		c0,0.6,0,1.5,0.7,2.1c0.5,0.6,1.2,0.7,1.8,0.7s1.3-0.1,1.8-0.7c0.6-0.6,0.7-1.6,0.7-2.1v-7.4h2.9V90.4z"/>
	<rect x="141.5" y="82.9" width="2.9" height="12.7"/>
	<polygon points="150.7,82.9 150.7,93.1 154.6,93.1 154.6,95.6 147.8,95.6 147.8,82.9 	"/>
	<path d="M167.6,84.5c1.2,1.2,2,2.8,2,4.8c0,1.7-0.6,3.4-2,4.8c-1.2,1.1-2.8,1.9-4.9,1.9c-2.4,0-4-1-4.9-1.9c-1.2-1.1-2-2.9-2-4.7
		c0-1.8,0.8-3.7,2-4.8c0.9-0.9,2.4-1.9,5-1.9C164.7,82.6,166.3,83.2,167.6,84.5 M159.9,86.4c-0.6,0.5-1.1,1.5-1.1,2.9
		c0,1.2,0.4,2.1,1.2,2.9c0.8,0.8,1.7,1,2.7,1c1.3,0,2.2-0.5,2.8-1.1c0.5-0.5,1.1-1.4,1.1-2.8c0-1.3-0.5-2.3-1.1-2.9
		c-0.6-0.6-1.6-1.1-2.8-1.1C161.6,85.3,160.6,85.7,159.9,86.4"/>
	<polygon points="171.6,95.6 173.7,82.9 176.1,82.9 179.3,90.5 182.4,82.9 184.8,82.9 186.9,95.6 184,95.6 182.9,88 179.8,95.6 
		178.7,95.6 175.6,88 174.6,95.6 	"/>
	<path d="M193.4,82.9c0.7,0,2.2,0,3.2,1c0.8,0.8,0.9,1.8,0.9,2.4c0,0.5-0.1,1.1-0.4,1.6c-0.3,0.5-0.8,0.8-1.1,0.9
		c0.6,0.1,1.3,0.4,1.7,0.9c0.4,0.4,0.8,1.1,0.8,2.3c0,1.3-0.5,2.1-1,2.6c-1,1-2.6,1.1-3.3,1.1h-4.8V82.9H193.4z M192.4,88h0.5
		c0.4,0,1.1-0.1,1.5-0.4c0.3-0.2,0.5-0.6,0.5-1.1c0-0.6-0.3-0.9-0.5-1.1c-0.4-0.3-1-0.3-1.5-0.3h-0.5V88z M192.4,93.3h0.7
		c0.7,0,1.6,0,2.2-0.5c0.3-0.2,0.4-0.6,0.4-1.1c0-0.5-0.2-0.9-0.4-1c-0.5-0.5-1.5-0.5-2.1-0.5h-0.8V93.3z"/>
	<path d="M212.5,84.5c1.2,1.2,2,2.8,2,4.8c0,1.7-0.6,3.4-2,4.8c-1.2,1.1-2.8,1.9-4.9,1.9c-2.4,0-4-1-4.9-1.9c-1.2-1.1-2-2.9-2-4.7
		c0-1.8,0.8-3.7,2-4.8c0.9-0.9,2.4-1.9,5-1.9C209.6,82.6,211.3,83.2,212.5,84.5 M204.8,86.4c-0.6,0.5-1.1,1.5-1.1,2.9
		c0,1.2,0.4,2.1,1.2,2.9c0.8,0.8,1.7,1,2.7,1c1.3,0,2.2-0.5,2.8-1.1c0.5-0.5,1.1-1.4,1.1-2.8c0-1.3-0.5-2.3-1.1-2.9
		c-0.6-0.6-1.6-1.1-2.8-1.1C206.5,85.3,205.5,85.7,204.8,86.4"/>
	<polygon points="220.1,82.9 220.1,93.1 224,93.1 224,95.6 217.2,95.6 217.2,82.9 	"/>
	<path d="M234.2,93.2h-4.8l-1,2.4h-3l5.1-12.7h2.7l5,12.7h-3L234.2,93.2z M233.4,90.9l-1.6-4.3l-1.6,4.3H233.4z"/>
	<path d="M246.6,86c-1-0.9-1.8-0.9-2.1-0.9c-0.4,0-0.9,0.1-1.2,0.4c-0.2,0.2-0.3,0.5-0.3,0.8c0,0.3,0.1,0.5,0.3,0.7
		c0.3,0.3,0.7,0.4,1.6,0.7l1,0.4c0.6,0.2,1.2,0.5,1.7,1c0.7,0.7,0.9,1.6,0.9,2.4c0,1.3-0.5,2.5-1.1,3.1c-1.1,1.2-2.8,1.3-3.6,1.3
		c-0.9,0-1.7-0.1-2.5-0.5c-0.6-0.3-1.4-0.9-1.9-1.4l1.5-2.1c0.3,0.3,0.8,0.8,1.2,1c0.5,0.3,1,0.5,1.6,0.5c0.4,0,0.9-0.1,1.3-0.4
		c0.2-0.2,0.5-0.6,0.5-1c0-0.4-0.2-0.7-0.4-0.9c-0.3-0.3-1.1-0.6-1.5-0.7l-1-0.4c-0.6-0.2-1.3-0.5-1.8-1c-0.7-0.7-0.8-1.6-0.8-2.2
		c0-1.1,0.3-2.1,1.1-2.9c0.9-0.9,2-1.2,3.1-1.2c0.9,0,2.3,0.2,3.8,1.3L246.6,86z"/>
	<path d="M252.3,86.8c1,0,1.7,0.8,1.7,1.7c0,1-0.8,1.7-1.7,1.7c-1,0-1.7-0.8-1.7-1.7C250.5,87.6,251.3,86.8,252.3,86.8 M252.3,92.4
		c1,0,1.7,0.8,1.7,1.7c0,1-0.8,1.7-1.7,1.7c-1,0-1.7-0.8-1.7-1.7C250.5,93.2,251.3,92.4,252.3,92.4"/>
	<path d="M96.9,109.1c0,0.6,0,1.2,0.5,1.6c0.3,0.2,0.7,0.4,1.1,0.4c0.4,0,0.8-0.1,1.1-0.4c0.5-0.4,0.5-1.1,0.5-1.6V105h0.7v4.3
		c0,0.6-0.1,1.1-0.4,1.6c-0.4,0.5-1.1,0.9-1.9,0.9c-0.8,0-1.5-0.3-1.9-0.9c-0.4-0.5-0.4-1-0.4-1.6V105h0.7V109.1z"/>
	<polygon points="102.8,111.7 104,104.6 106.5,110.2 109.1,104.6 110.2,111.7 109.4,111.7 108.8,107 106.5,111.9 104.3,107 
		103.6,111.7 	"/>
	<path d="M115.9,109.8H113l-0.8,1.9h-0.8l3.1-7l3,7h-0.8L115.9,109.8z M115.6,109.1l-1.1-2.7l-1.1,2.7H115.6z"/>
	<path d="M126.8,111.2c-0.3,0.2-0.9,0.6-2,0.6c-1.9,0-3.5-1.5-3.5-3.4c0-2,1.5-3.4,3.5-3.4c1.9,0,3.5,1.5,3.5,3.4
		c0,1.2-0.5,2-0.9,2.4l1,1h-1L126.8,111.2z M126.8,110.2c0.2-0.3,0.7-0.9,0.7-1.8c0-1.5-1.2-2.7-2.7-2.7c-1.5,0-2.7,1.2-2.7,2.7
		c0,1.5,1.2,2.7,2.7,2.7c0.4,0,1-0.1,1.5-0.4l-1.6-1.7h1L126.8,110.2z"/>
	<path d="M130.9,109.1c0,0.6,0,1.2,0.5,1.6c0.3,0.2,0.7,0.4,1.1,0.4c0.4,0,0.8-0.1,1.1-0.4c0.5-0.4,0.5-1.1,0.5-1.6V105h0.7v4.3
		c0,0.6-0.1,1.1-0.4,1.6c-0.4,0.5-1.1,0.9-1.9,0.9c-0.8,0-1.5-0.3-1.9-0.9c-0.4-0.5-0.4-1-0.4-1.6V105h0.7V109.1z"/>
	<polygon points="140.5,105.7 137.8,105.7 137.8,107.7 140.5,107.7 140.5,108.4 137.8,108.4 137.8,111 140.5,111 140.5,111.7 
		137.1,111.7 137.1,105 140.5,105 	"/>
	<path d="M145.4,106.3c-0.1-0.2-0.2-0.4-0.4-0.5c-0.1-0.1-0.4-0.2-0.7-0.2c-0.7,0-1.1,0.4-1.1,1c0,0.3,0.1,0.4,0.2,0.6
		c0.2,0.2,0.4,0.3,0.7,0.4l0.6,0.3c0.4,0.2,0.7,0.3,1,0.6c0.3,0.3,0.5,0.7,0.5,1.2c0,1.2-0.9,2-2.1,2c-0.4,0-1-0.1-1.4-0.5
		c-0.3-0.3-0.5-0.8-0.6-1.2l0.7-0.2c0,0.3,0.2,0.6,0.4,0.8c0.3,0.3,0.6,0.4,1,0.4c0.9,0,1.3-0.6,1.3-1.3c0-0.3-0.1-0.6-0.3-0.8
		c-0.2-0.2-0.4-0.3-0.8-0.5l-0.6-0.3c-0.3-0.1-0.6-0.3-0.9-0.5c-0.3-0.3-0.5-0.6-0.5-1.1c0-1,0.8-1.7,1.9-1.7c0.4,0,0.7,0.1,1.1,0.3
		c0.3,0.2,0.5,0.4,0.6,0.7L145.4,106.3z"/>
	<polygon points="149.3,105.7 149.3,111.7 148.6,111.7 148.6,105.7 146.9,105.7 146.9,105 150.9,105 150.9,105.7 	"/>
	<path d="M155.6,109.8h-2.8l-0.8,1.9h-0.8l3.1-7l3,7h-0.8L155.6,109.8z M155.8,103.6c-0.1,0.2-0.1,0.3-0.3,0.4
		c-0.2,0.2-0.5,0.3-0.7,0.3c-0.2,0-0.4-0.1-0.7-0.2c-0.2-0.1-0.4-0.2-0.6-0.2c-0.1,0-0.2,0-0.3,0.1c-0.1,0.1-0.1,0.2-0.2,0.3
		l-0.4-0.4c0.1-0.2,0.2-0.3,0.3-0.4c0.2-0.2,0.3-0.3,0.6-0.3c0.3,0,0.5,0.1,0.7,0.2c0.2,0.1,0.4,0.2,0.6,0.2c0.1,0,0.2,0,0.3-0.1
		c0.1-0.1,0.1-0.2,0.2-0.3L155.8,103.6z M155.3,109.1l-1.1-2.7l-1.1,2.7H155.3z"/>
	<path d="M158.1,108.3c0-2,1.5-3.4,3.5-3.4c1.9,0,3.5,1.5,3.5,3.4c0,2-1.5,3.4-3.5,3.4C159.6,111.8,158.1,110.3,158.1,108.3
		 M158.9,108.3c0,1.5,1.2,2.7,2.7,2.7c1.5,0,2.7-1.2,2.7-2.7c0-1.5-1.2-2.7-2.7-2.7C160.1,105.6,158.9,106.8,158.9,108.3"/>
	<path d="M169.7,105h1.4c0.7,0,1.6,0.1,2.5,0.8c0.6,0.5,1.1,1.4,1.1,2.6c0,1.4-0.7,2.1-1.2,2.6c-0.6,0.5-1.2,0.8-2.4,0.8h-1.3V105z
		 M170.5,111h0.6c0.5,0,1.3-0.1,1.9-0.6c0.5-0.4,0.9-1.1,0.9-2c0-1.6-1.1-2.6-2.8-2.6h-0.6V111z"/>
	<polygon points="180,105.7 177.3,105.7 177.3,107.7 179.9,107.7 179.9,108.4 177.3,108.4 177.3,111 180,111 180,111.7 176.5,111.7 
		176.5,105 180,105 	"/>
	<path d="M188.1,108.3h2.8v0.2c0,0.7-0.2,1.5-0.6,2.1c-0.2,0.3-0.9,1.2-2.5,1.2c-2,0-3.5-1.5-3.5-3.4c0-1.9,1.5-3.4,3.5-3.4
		c0.6,0,1.4,0.2,2,0.7c0.3,0.2,0.6,0.5,0.8,0.8l-0.5,0.5c-0.2-0.3-0.4-0.5-0.6-0.7c-0.3-0.3-0.8-0.6-1.6-0.6c-1.6,0-2.7,1.2-2.7,2.8
		c0,1.8,1.4,2.7,2.7,2.7c0.9,0,1.7-0.4,2-1.1c0.1-0.2,0.2-0.5,0.3-0.9h-2V108.3z"/>
	<path d="M192.4,108.3c0-2,1.5-3.4,3.5-3.4c1.9,0,3.5,1.5,3.5,3.4c0,2-1.5,3.4-3.5,3.4C193.9,111.8,192.4,110.3,192.4,108.3
		 M193.1,108.3c0,1.5,1.2,2.7,2.7,2.7c1.5,0,2.7-1.2,2.7-2.7c0-1.5-1.2-2.7-2.7-2.7C194.3,105.6,193.1,106.8,193.1,108.3"/>
	<polygon points="200.9,105 202.7,110.1 204.6,105 205.4,105 202.7,112.1 200.1,105 	"/>
	<polygon points="210.3,105.7 207.6,105.7 207.6,107.7 210.3,107.7 210.3,108.4 207.6,108.4 207.6,111 210.3,111 210.3,111.7 
		206.9,111.7 206.9,105 210.3,105 	"/>
	<path d="M213.3,105c0.4,0,1.1,0,1.6,0.4c0.4,0.3,0.7,0.8,0.7,1.5c0,1-0.7,1.8-1.7,1.8l2.1,3h-0.9l-2-2.9h-0.2v2.9h-0.7V105H213.3z
		 M212.9,108.1h0.5c0.9,0,1.5-0.4,1.5-1.2c0-0.4-0.1-0.7-0.5-1c-0.3-0.2-0.6-0.2-1-0.2h-0.4V108.1z"/>
	<polygon points="217.7,111.7 217.7,104.7 222.9,110.2 222.9,105 223.6,105 223.6,112 218.4,106.5 218.4,111.7 	"/>
	<path d="M229.5,109.8h-2.8l-0.8,1.9h-0.8l3.1-7l3,7h-0.8L229.5,109.8z M229.2,109.1l-1.1-2.7l-1.1,2.7H229.2z"/>
	<polygon points="232.6,111.7 232.6,104.7 237.7,110.2 237.7,105 238.5,105 238.5,112 233.3,106.5 233.3,111.7 	"/>
	<path d="M245.8,106.5c-0.2-0.2-0.5-0.5-0.9-0.6c-0.3-0.2-0.8-0.3-1.1-0.3c-1.5,0-2.7,1.2-2.7,2.8c0,1.8,1.5,2.7,2.7,2.7
		c0.4,0,0.9-0.1,1.2-0.3c0.4-0.2,0.6-0.4,0.8-0.6v0.9c-0.7,0.5-1.5,0.6-2,0.6c-2,0-3.4-1.5-3.4-3.4c0-2,1.5-3.5,3.5-3.5
		c0.4,0,1.2,0,2,0.7V106.5z M244.2,112.5l-1,1.3l-0.5-0.3l0.8-1.3L244.2,112.5z"/>
	<path d="M251.3,109.8h-2.8l-0.8,1.9h-0.8l3.1-7l3,7h-0.8L251.3,109.8z M251,109.1l-1.1-2.7l-1.1,2.7H251z"/>
</g>
</svg>
