<?xml version="1.0" encoding="utf-8"?>
<!-- Generator: Adobe Illustrator 25.4.1, SVG Export Plug-In . SVG Version: 6.00 Build 0)  -->
<!DOCTYPE svg PUBLIC "-//W3C//DTD SVG 1.1//EN" "http://www.w3.org/Graphics/SVG/1.1/DTD/svg11.dtd" [
	<!ENTITY ns_extend "http://ns.adobe.com/Extensibility/1.0/">
	<!ENTITY ns_ai "http://ns.adobe.com/AdobeIllustrator/10.0/">
	<!ENTITY ns_graphs "http://ns.adobe.com/Graphs/1.0/">
	<!ENTITY ns_vars "http://ns.adobe.com/Variables/1.0/">
	<!ENTITY ns_imrep "http://ns.adobe.com/ImageReplacement/1.0/">
	<!ENTITY ns_sfw "http://ns.adobe.com/SaveForWeb/1.0/">
	<!ENTITY ns_custom "http://ns.adobe.com/GenericCustomNamespace/1.0/">
	<!ENTITY ns_adobe_xpath "http://ns.adobe.com/XPath/1.0/">
]>
<svg version="1.1" id="Capa_1" xmlns:x="&ns_extend;" xmlns:i="&ns_ai;" xmlns:graph="&ns_graphs;"
	 xmlns="http://www.w3.org/2000/svg" xmlns:xlink="http://www.w3.org/1999/xlink" x="0px" y="0px" viewBox="0 0 511.9 125.1"
	 style="enable-background:new 0 0 511.9 125.1;" xml:space="preserve">
<metadata>
	<sfw  xmlns="&ns_sfw;">
		<slices></slices>
		<sliceSourceBounds  bottomLeftOrigin="true" height="125.1" width="511.9" x="703.3" y="-601.8"></sliceSourceBounds>
	</sfw>
</metadata>
<g>
	<g>
		<path d="M31.7,34.1c0,0-3.3-0.2-3.9-0.5c-0.6-0.2-1.7-0.8-1.7-1.1c-0.2-0.3,0-1.1,0.8-0.8c0.6,0.3,0.9,0.8,2.3,0.9
			c0.6,0,1.6,0.2,1.7,0.2L31.7,34.1z M4.2,39.3c0.6-0.9,4.3-5.1,5.7-6.1c0.9-0.5,2.5-0.3,2.5-0.3V38c-0.2,0-0.9-0.2-1.7-0.3
			C9.9,37.6,7.8,38,7.8,38L7.1,39c1.7-0.3,2.5,0.5,2.5,0.5c0,0.3,0.5,1.6,0.8,1.7s2,0.2,2,0.2v0.8c-1.1,0.2-2.6,0.9-2.9,1.4
			c-0.9,0.8-1.6,2.2-1.6,2.2l-0.2,1.2l0.3,0.3c0,0,0.8-0.9,1.1-1.2c0.8-0.6,1.4,0.3,1.7,0.5c0.3,0.2,0.8-0.5,1.1-0.8
			c0.3-0.3,0.5-0.2,0.5-0.2v17.9C10.9,63,9.3,63.6,9,63.8c-0.5,0.3-0.8,1.1-0.8,1.1c0.3,0,1.9-0.2,2.2,0c0.3,0.2,0.9,1.7,1.1,1.9
			c0.2,0.2,1.1,0.2,1.1,0.2s0,1.9,0,2.2c0,0.2-0.5,0.5-0.8,0.9c-0.5,0.5-1.1,2.9-1.1,2.9l0.5,0.9c0,0,0.3-0.8,0.5-0.9
			c0.3-0.8,0.9-0.8,0.9-0.8v5.6h1.9V72c0,0,0.8,0.3,0.8,0.2c0.3-0.2,1.6-3.3,1.9-3.3c0.2-0.2,1.4,0.2,1.4,0.2l0.8,2.6h0.5l12.9-18.2
			l0.9,0.8l-5.3,7.5c0.8,1.1,1.4,1.7,1.9,2.6c0.6,1.7,1.1,4,1.2,4.2c0,0.2,0.2,0.3-0.2,0.3c-1.4,0.6-5.7,4.2-6.1,4.3
			c-0.5,0.3-2.2,1.6-2.3,2.2c-0.9,2.8-1.1,9.9-0.9,10.9C22,87.1,23,88,23,88s-0.3,0.2-0.9,0.3c-0.5,0.2-2,1.9-2.2,2.2
			c-1.1,1.4-4.7,5-5,5c-1.1,0.2-2.2-0.3-2.2-0.3c0-0.2,0-1.7-0.2-2c0-0.2-0.2-1.1-0.3-1.2c-0.5-0.6-0.9-1.6-1.1-1.7
			C11,90,9.5,88.9,9.5,88.9l-1.2,0.2c0.2,0,0.8,0.8,1.1,1.1c0.3,0.5,0.2,1.1,0.2,1.1c-0.5,0.3-0.8,1.2-0.8,1.4s1.9,2,1.9,2
			s-0.3,0.3-0.5,0.5c-0.2,0.2-1.2-0.6-1.9-0.9c-0.8-0.3-0.6-0.2-0.8-0.3c-0.2,0-1.7,0.3-2,0.5c-0.3,0-1.9,1.4-1.9,1.4v0.9
			c0,0,0.5-0.3,0.8-0.5c0.3-0.2,0.8-0.3,1.2-0.3c0.5,0,0.3,0.3,0.5,0.5c0.2,0.5,0.8,1.1,1.1,1.2c0.3,0.2,2.8-0.3,2.8-0.3l0.3,0.5
			c-1.1,0.5-1.7,1.2-2,1.7C8.1,100,8.8,101,8.8,101v0.2c0,0.6-1.6,1.6-1.6,1.6c0.2,0,0.8,0.2,0.8,0.2s0.2,0.2,0.3,0
			c0.8-0.3,1.4-0.5,1.9-0.8c0.6-0.6,1.6-1.6,1.6-1.6s0.3-1.2,0.3-1.6c0.2-0.5,0.6-0.5,1.7-0.3c0.6,0.2,0.8,0.2,0.9,0.5
			c0,0.2,0.2,0.5,0.2,0.8c0,0.5,0.3,1.4,0.3,1.4h0.5c0,0,1.9-2.6,2.3-2.8c0.5-0.2,8.2-6.1,8.2-6.1c0.6,0.2,1.2,0,1.7-0.2
			c1.1-0.6,2-1.9,2-1.9s-0.2-1.2-0.2-1.9c-0.2-1.4,0.3-1.7,0.6-2.3c0.3-0.8,1.4-1.9,1.9-2.3c0.2-0.2,0.5-0.3,0.5-0.3s-2-2.5-2.5-3.1
			c-0.9-0.9-0.6-2.2-0.5-2.8c1.7-5.9,2.6-9.8,2.6-10.1c0-0.5,0-2.5,0-2.5l1.2,0.9c0,0,0,1.1,0,1.9s-1.1,4.8-1.4,5.7
			c-0.6,2.6-1.6,5.1-1.2,5.9c0.8,1.4,3.9,4.7,4.8,5.1c1.2,0.6,7.9,0.3,8.5,0.3c4.5,0.6,4.7,0.8,5,1.2c0.3,0.5,3.1,3.6,3.7,4.2
			c1.4,1.2,3.6,5,3.6,5L55,95.9c-1.2-1.6-2.5-2-2.9-2.3c-1.4-0.9-2.9-0.2-3.4-0.2c-0.9,0-1.6,0.9-1.6,0.9c0.8-0.2,1.7,0.2,2,0.3
			c0.3,0.3,0.3,1.2,0.6,1.4c0.3,0.2,2,0.2,2,0.2v0.6c0,0,0.2,0,0,0.2c-0.2,0-2.2,0.2-2.8,0.5c-0.6,0.2-0.6,0.5-1.1,0.8
			c-0.5,0.5-1.6,2.5-1.6,2.5l0.3,0.8c0.2-0.5,1.9-1.6,1.9-1.4c0.5,0.6,1.1,0.8,1.6,0.8c1.1-0.2,2.5-2.2,2.5-2.2l0.6,0.3
			c0,0-0.6,0.9-0.8,1.1c-1.1,1.1-0.3,3.7-0.3,3.7c0.3,0.2,0.8,0.3,0.8,0.3c-0.5-0.8,0.8-2.2,0.8-2.2c0.8,0.3,1.6,0,1.7-0.2
			c0.6-0.5,0.6-3.1,0.6-3.1l3.1-0.9l3.9,0.8l0.2-0.6l-0.6-0.6c-1.1-1.6-1.4-2-1.6-2.6c-1.1-2.3-5-9.2-5-9.3s0.2-0.8,0-1.4
			c-0.2-0.5-1.4-2.3-2.2-2.8c-0.8-0.6-2-0.6-2.2-0.8c-2.2-1.2-4-2.8-4.3-3.1c-0.8-1.1-3.9-4.3-4.3-4.8c-0.5-0.5-3.6-2.9-3.6-2.9
			l1.4-0.5c0,0,2.8,2.3,3.3,2.6c1.2,0.9,3.3,2.2,3.9,2.6c5.7,3.7,8.7,3.9,9,3.9c4.2,0.5,6.1-2,6.2-2.3c1.1-1.2,2.6-4.3,0.2-8.1
			c-0.6-0.9-3.3-5-3.3-5l5.7-3.3v-0.8l-2.3,0.6c0,0-1.9-0.2-2.5-0.3c-0.6-0.2-0.6,0-0.6,0l-1.6,0.5l-0.2-0.8l7.5-4.2l0.2-0.9
			c0,0-2.3,0.8-2.6,0.8c-0.3,0-2.2-0.3-2.9-0.5c-0.8-0.2-1.1,0-1.1,0l-1.9,0.5v-0.8l8.8-4.7l0.3-0.8L64,48.9c0,0-2.5-0.6-2.6-0.5
			c-0.2,0-1.9,0.3-1.9,0.3s-0.2,0.2-0.2,0c0-0.5,2.9-4.3,3.3-4.7c1.4-1.6,2.9-3.9,3.1-4.3c3.4-5.6,1.2-9.2,0.9-9.8
			c-2.8-4.7-7.6-3.6-8.4-3.4c-4.5,1.4-4.7,6.1-4.7,6.4c0,0.3-0.2,0.6-0.6,1.1c-1.1,1.1-3.1,5.1-3.1,5.1c0.2,0,0.8,0,0.9-0.2
			c0.2-0.2,1.9-1.9,2.2-2c0.3-0.2,0.3,0.3,0.2,0.8c-0.3,2-1.6,3.7-2.2,4.3c-1.6,2.2-3.6,6.8-3.6,6.8l0.9-0.2
			c1.7-2.6,7.5-6.2,7.6-6.5c1.1-1.1,0.2-5,0.2-5l0.9,0.5c0.2,0.3,0.5,1.4,0.5,2.3c0.2,0.9-0.2,2.5-0.2,2.5l0.8-0.6
			c0.3-0.5,1.7-4.8,0.8-7.6c-0.3-0.9-2.9-2-2.9-2c-0.3-1.2,0.6-2.6,1.1-2.9c3.7-2.6,6.7,0,7.5,1.9c2,4.2-2.2,9-2.9,9.8
			c-2.6,2.5-8.2,7.8-8.8,8.5c-4.3,5-2.3,7.8-1.7,9c0.9,1.9,6.2,6.5,7.5,7.6c1.7,1.6,3.1,3.4,3.4,4.3c1.2,4.8-3.6,5.6-5.4,5.1
			c-4-0.9-10.2-6.2-11.3-6.8c-4-2.6-4.8-1.9-5-2.3c-0.5-2.9-0.8-13-0.8-13c0-0.3,0.5-0.2,0.6,0c0.5,0.2,0.6,0.3,0.6,0.2
			c0-0.3-0.2-2.3,0.2-2.8c0.5-0.9,1.1-2.5,1.4-3.1c1.7-3.7,3.1-6.7,3.4-8.4c0.3-2.2,0-5.1,0-5.1c0.5-0.5,1.6-2.2,1.7-2.3
			c0.2-0.3,0-2.2,0-2.2c-0.3-0.3-1.1-0.5-1.2-0.5c-0.2,0-0.2,0-0.2,0h-0.2l2.8-4.2c-0.3-0.2-0.5-0.2-0.8-0.2c-0.6,0-1.2,0.6-1.2,0.6
			c-0.5-0.8-1.1-0.8-1.2-0.8c-1.4,0.2-1.1,1.4-1.1,1.4c0.5,1.1,1.6,0.6,1.7,0.6l0.2,0.2L45,27.8L41.3,27c0,0-0.2-0.9-0.2-1.1
			s0-0.2,0-0.2c0.2,0,0.6,0.3,0.9,0.3c0.6,0.2,1.1-0.6,1.1-0.9c0-1.6-1.4-1.2-1.4-1.2c0-0.9-0.8-1.1-0.9-1.1
			c-0.9-0.2-1.2,0.8-1.2,0.8c-0.3-0.2-0.5-0.2-0.5-0.2c-1.1-0.3-1.4,0.6-1.4,0.9c0.2,1.6,1.7,1.1,1.7,1.1l0.2,0.2L39,26.5l-3.9-0.8
			l-0.5-1.2l0.2-0.2c0.2,0.2,0.2,0.3,0.6,0.3c1.1,0.2,1.2-0.6,1.2-0.9c0.2-1.9-2.2-1.1-2.2-1.1c-0.9-1.1-1.6-0.8-1.6-0.8l1.1,5
			c0,0-2.8,2.9-2.9,3.3c-0.2,0.3,0.5,2,0.5,2l1.2,1.7l-0.9,1.4l5.1,0.6l-0.6,1.7c0,0-6.1,1.4-7.3,2.2c-1.9,1.2-3.1,2.9-4.2,4.3
			c-0.6,0.8-2.2,7-3.9,10.1h3.1L18.2,66l-0.9-0.3c0,0,0.3-2.8,0.3-2.9c0-0.3-0.5-2-0.5-2.2c-0.3-0.6-1.7-2.2-1.7-2.2l-0.9-0.2
			c0.5,0.5,0.6,1.6,0.8,2.2c0.2,0.6-0.3,0.6-0.6,1.1c-0.3,0.5-0.2,0.8-0.2,0.8l0.9,2.3l-0.6,0.2c-0.5-0.8-0.9-0.9-0.9-0.9V43.3
			l1.2,0.8l-0.6,1.1l2,0.5l4.7,4.2L23,45l-4.8-2.6l-0.6-1.2L16,41.4c0-0.2-0.5-0.6-0.5-0.6c0.8-0.8,1.9-2,1.9-2.5
			c0.2-0.8,0.2-0.9,0.2-1.7s-0.3-2-0.5-2.2c-0.2-0.3-0.9-1.1-0.8-0.8c0.3,1.1-0.5,2.5-0.5,2.5s-0.3,0.2-0.8,0.3
			c-0.5,0.2-0.5,0.3-0.5,0.3l-0.5,2.5l-0.6-0.6v-6.2h1.1v-4.2h-1.1v-1.7h-1.9v1.7H9.3c-3.6-0.6-8.2-4.8-9.3-5.6
			C0.2,32.3,4.2,39.3,4.2,39.3z M38.5,33.5l0.3,1.4L34,34.5l-0.2-1.4L38.5,33.5z M33.8,30.7l-0.3-1.1l1.9-1.9l9.9,1.7
			c0,0,0.5,0,0.3,0.2c-0.2,0-1.7,1.1-1.7,1.1s-3.3-1.6-6.2-1.2c0,0,0.6,1.1-1.1,1.7c-0.3,0.2-1.9,0.5-1.9-0.9L33.8,30.7z M45.3,31.2
			c0.2,0,0.8-0.6,1.1-0.6c0.3,0,0.8,0.3,0.8,0.3c0,0.3,0,0.8,0,0.8c-0.2,0.6-0.9,1.2-0.9,1.2c-0.5-1.2-0.9-1.6-1.1-1.6
			C45.2,31.5,45.2,31.2,45.3,31.2z M25.9,49.2c0,0,2-5,3.1-5.3c1.1-0.3,1.7-0.6,4-1.2l-0.5,1.2c0,0-2.6,0.6-3.3,1.1
			c-0.5,0.5-2.2,4-2.2,4.2L25.9,49.2z M14.3,68.4v-1.2c0,0,0.8-0.2,0.9-0.2c0.2,0,0.2,0,0.2,0.2s0.2,0.6,0.2,0.6L14.3,68.4z"/>
	</g>
	<rect x="100.3" width="3" height="125.1"/>
	<g>
		<path d="M150.9,38.4h-10.3v9.5h11.5v2.9h-14.9V24.3h14.3v2.9h-10.9v8.4h10.3V38.4z"/>
		<path d="M156.4,36.9c0-2,0-3.6-0.2-5.1h3l0.2,3.1h0.1c1.1-1.8,2.8-3.5,6-3.5c2.6,0,4.6,1.6,5.4,3.8h0.1c0.6-1.1,1.3-1.9,2.1-2.5
			c1.1-0.9,2.4-1.3,4.2-1.3c2.5,0,6.2,1.6,6.2,8.2v11.2h-3.4V40c0-3.6-1.3-5.8-4.1-5.8c-2,0-3.5,1.5-4.1,3.1
			c-0.2,0.5-0.3,1.1-0.3,1.7v11.7h-3.4V39.4c0-3-1.3-5.2-4-5.2c-2.2,0-3.7,1.7-4.3,3.5c-0.2,0.5-0.3,1.1-0.3,1.7v11.5h-3.4V36.9z"/>
		<path d="M189,50.8c0.1-1.3,0.2-3.2,0.2-4.9V22.9h3.4v11.9h0.1c1.2-2.1,3.4-3.5,6.5-3.5c4.7,0,8,3.9,8,9.7c0,6.8-4.3,10.2-8.5,10.2
			c-2.7,0-4.9-1.1-6.4-3.6h-0.1l-0.2,3.1H189z M192.6,43.2c0,0.4,0.1,0.9,0.2,1.3c0.7,2.4,2.7,4,5.2,4c3.6,0,5.8-2.9,5.8-7.3
			c0-3.8-2-7.1-5.6-7.1c-2.4,0-4.6,1.6-5.3,4.2c-0.1,0.4-0.2,0.9-0.2,1.4V43.2z"/>
		<path d="M222,50.8l-0.3-2.4h-0.1c-1.1,1.5-3.1,2.8-5.8,2.8c-3.8,0-5.8-2.7-5.8-5.5c0-4.6,4.1-7.1,11.4-7.1v-0.4
			c0-1.6-0.4-4.4-4.3-4.4c-1.8,0-3.6,0.5-4.9,1.4l-0.8-2.3c1.6-1,3.8-1.7,6.2-1.7c5.8,0,7.2,4,7.2,7.8v7.1c0,1.6,0.1,3.3,0.3,4.6
			H222z M221.5,41.1c-3.8-0.1-8,0.6-8,4.3c0,2.2,1.5,3.3,3.3,3.3c2.5,0,4-1.6,4.6-3.2c0.1-0.4,0.2-0.7,0.2-1.1V41.1z"/>
		<path d="M234.2,26.4c0,1.2-0.8,2.1-2.2,2.1c-1.2,0-2.1-0.9-2.1-2.1c0-1.2,0.9-2.2,2.2-2.2C233.4,24.3,234.2,25.2,234.2,26.4z
			 M230.4,50.8v-19h3.5v19H230.4z"/>
		<path d="M241.2,31.8l2.7,4.1c0.7,1.1,1.3,2,1.9,3.1h0.1c0.6-1.1,1.3-2.1,1.9-3.1l2.7-4h3.7l-6.5,9.2l6.7,9.8h-3.9l-2.8-4.3
			c-0.7-1.1-1.4-2.2-2-3.3h-0.1c-0.6,1.1-1.3,2.2-2,3.3l-2.7,4.3H237l6.7-9.7l-6.4-9.3H241.2z"/>
		<path d="M268.2,50.8l-0.3-2.4h-0.1c-1.1,1.5-3.1,2.8-5.8,2.8c-3.8,0-5.8-2.7-5.8-5.5c0-4.6,4.1-7.1,11.4-7.1v-0.4
			c0-1.6-0.4-4.4-4.3-4.4c-1.8,0-3.6,0.5-4.9,1.4l-0.8-2.3c1.6-1,3.8-1.7,6.2-1.7c5.8,0,7.2,4,7.2,7.8v7.1c0,1.6,0.1,3.3,0.3,4.6
			H268.2z M267.7,41.1c-3.8-0.1-8,0.6-8,4.3c0,2.2,1.5,3.3,3.3,3.3c2.5,0,4-1.6,4.6-3.2c0.1-0.4,0.2-0.7,0.2-1.1V41.1z"/>
		<path d="M293,22.9v22.9c0,1.7,0,3.6,0.2,4.9h-3.1l-0.2-3.3h-0.1c-1.1,2.1-3.4,3.7-6.5,3.7c-4.6,0-8.1-3.9-8.1-9.7
			c0-6.3,3.9-10.2,8.5-10.2c2.9,0,4.9,1.4,5.7,2.9h0.1V22.9H293z M289.6,39.5c0-0.4,0-1-0.2-1.5c-0.5-2.2-2.4-4-5-4
			c-3.6,0-5.7,3.1-5.7,7.3c0,3.8,1.9,7,5.6,7c2.3,0,4.4-1.5,5.1-4.1c0.1-0.5,0.2-0.9,0.2-1.5V39.5z"/>
		<path d="M309.3,50.8l-0.3-2.4h-0.1c-1.1,1.5-3.1,2.8-5.8,2.8c-3.8,0-5.8-2.7-5.8-5.5c0-4.6,4.1-7.1,11.4-7.1v-0.4
			c0-1.6-0.4-4.4-4.3-4.4c-1.8,0-3.6,0.5-4.9,1.4l-0.8-2.3c1.6-1,3.8-1.7,6.2-1.7c5.8,0,7.2,4,7.2,7.8v7.1c0,1.6,0.1,3.3,0.3,4.6
			H309.3z M308.8,41.1c-3.8-0.1-8,0.6-8,4.3c0,2.2,1.5,3.3,3.3,3.3c2.5,0,4-1.6,4.6-3.2c0.1-0.4,0.2-0.7,0.2-1.1V41.1z"/>
		<path d="M342.4,22.9v22.9c0,1.7,0,3.6,0.2,4.9h-3.1l-0.2-3.3h-0.1c-1.1,2.1-3.4,3.7-6.5,3.7c-4.6,0-8.1-3.9-8.1-9.7
			c0-6.3,3.9-10.2,8.5-10.2c2.9,0,4.9,1.4,5.7,2.9h0.1V22.9H342.4z M338.9,39.5c0-0.4,0-1-0.2-1.5c-0.5-2.2-2.4-4-5-4
			c-3.6,0-5.7,3.1-5.7,7.3c0,3.8,1.9,7,5.6,7c2.3,0,4.4-1.5,5.1-4.1c0.1-0.5,0.2-0.9,0.2-1.5V39.5z"/>
		<path d="M358.6,50.8l-0.3-2.4h-0.1c-1.1,1.5-3.1,2.8-5.8,2.8c-3.8,0-5.8-2.7-5.8-5.5c0-4.6,4.1-7.1,11.4-7.1v-0.4
			c0-1.6-0.4-4.4-4.3-4.4c-1.8,0-3.6,0.5-4.9,1.4L348,33c1.6-1,3.8-1.7,6.2-1.7c5.8,0,7.2,4,7.2,7.8v7.1c0,1.6,0.1,3.3,0.3,4.6
			H358.6z M358.1,41.1c-3.8-0.1-8,0.6-8,4.3c0,2.2,1.5,3.3,3.3,3.3c2.5,0,4-1.6,4.6-3.2c0.1-0.4,0.2-0.7,0.2-1.1V41.1z"/>
		<path d="M375.5,50.8V24.3h3.7l8.5,13.4c2,3.1,3.5,5.9,4.7,8.6l0.1,0c-0.3-3.5-0.4-6.7-0.4-10.9V24.3h3.2v26.4h-3.5l-8.4-13.4
			c-1.8-2.9-3.6-6-4.9-8.8l-0.1,0c0.2,3.3,0.3,6.5,0.3,10.9v11.3H375.5z"/>
		<path d="M418.3,41.1c0,7-4.9,10.1-9.5,10.1c-5.1,0-9.1-3.8-9.1-9.8c0-6.4,4.2-10.1,9.4-10.1C414.7,31.3,418.3,35.3,418.3,41.1z
			 M403.3,41.3c0,4.2,2.4,7.3,5.8,7.3c3.3,0,5.8-3.1,5.8-7.4c0-3.2-1.6-7.3-5.7-7.3C405,33.9,403.3,37.7,403.3,41.3z"/>
		<path d="M422.7,37.7c0-2.2,0-4.2-0.2-5.9h3l0.1,3.7h0.2c0.9-2.6,2.9-4.2,5.3-4.2c0.4,0,0.7,0,1,0.1v3.3c-0.4-0.1-0.7-0.1-1.2-0.1
			c-2.4,0-4.2,1.8-4.6,4.4c-0.1,0.5-0.2,1-0.2,1.6v10.1h-3.4V37.7z"/>
		<path d="M451.4,45.6c0,2,0,3.7,0.2,5.2h-3.1l-0.2-3.1h-0.1c-0.9,1.5-2.9,3.5-6.3,3.5c-3,0-6.6-1.6-6.6-8.3V31.8h3.5v10.5
			c0,3.6,1.1,6,4.2,6c2.3,0,3.9-1.6,4.6-3.1c0.2-0.5,0.3-1.1,0.3-1.8V31.8h3.5V45.6z"/>
		<path d="M459.1,41.9c0.1,4.7,3.1,6.6,6.5,6.6c2.5,0,4-0.4,5.3-1l0.6,2.5c-1.2,0.5-3.3,1.2-6.3,1.2c-5.8,0-9.3-3.8-9.3-9.6
			c0-5.7,3.4-10.2,8.9-10.2c6.2,0,7.8,5.5,7.8,8.9c0,0.7-0.1,1.3-0.1,1.6H459.1z M469.2,39.4c0-2.2-0.9-5.6-4.8-5.6
			c-3.5,0-5,3.2-5.3,5.6H469.2z"/>
		<path d="M494.5,29.8v2l-3.9,0.5c0.4,0.4,0.7,1,1,1.8c0.3,0.7,0.4,1.5,0.4,2.4c0,2.1-0.7,3.7-2.1,4.9c-1.4,1.2-3.3,1.8-5.8,1.8
			c-0.6,0-1.2-0.1-1.8-0.2c-1.4,0.7-2,1.6-2,2.7c0,0.6,0.2,1,0.7,1.3c0.5,0.3,1.3,0.4,2.4,0.4h3.7c2.3,0,4,0.5,5.2,1.4
			c1.2,1,1.8,2.3,1.8,4.2c0,2.3-0.9,4.1-2.8,5.3c-1.9,1.2-4.6,1.8-8.2,1.8c-2.7,0-4.9-0.5-6.4-1.5c-1.5-1-2.2-2.5-2.2-4.3
			c0-1.3,0.4-2.4,1.2-3.3c0.8-0.9,2-1.6,3.4-1.9c-0.5-0.2-1-0.6-1.4-1.1c-0.4-0.5-0.5-1.1-0.5-1.8c0-0.8,0.2-1.4,0.6-2
			c0.4-0.6,1.1-1.1,1.9-1.7c-1.1-0.4-2-1.2-2.7-2.3c-0.7-1.1-1-2.3-1-3.7c0-2.3,0.7-4.1,2.1-5.3c1.4-1.2,3.3-1.9,5.9-1.9
			c1.1,0,2.1,0.1,3,0.4H494.5z M477.7,54.3c0,1.1,0.5,2,1.4,2.6c1,0.6,2.3,0.9,4.1,0.9c2.7,0,4.6-0.4,5.9-1.2
			c1.3-0.8,1.9-1.9,1.9-3.2c0-1.1-0.4-1.9-1.1-2.4c-0.7-0.4-2-0.7-4-0.7h-3.8c-1.4,0-2.6,0.3-3.4,1C478.1,52,477.7,53,477.7,54.3z
			 M479.5,36.5c0,1.5,0.4,2.6,1.2,3.3c0.8,0.8,2,1.1,3.5,1.1c3.1,0,4.7-1.5,4.7-4.5c0-3.2-1.6-4.7-4.7-4.7c-1.5,0-2.6,0.4-3.4,1.2
			C479.9,33.7,479.5,34.9,479.5,36.5z"/>
		<path d="M508.8,50.8l-0.3-2.4h-0.1c-1.1,1.5-3.1,2.8-5.8,2.8c-3.8,0-5.8-2.7-5.8-5.5c0-4.6,4.1-7.1,11.4-7.1v-0.4
			c0-1.6-0.4-4.4-4.3-4.4c-1.8,0-3.6,0.5-4.9,1.4l-0.8-2.3c1.6-1,3.8-1.7,6.2-1.7c5.8,0,7.2,4,7.2,7.8v7.1c0,1.6,0.1,3.3,0.3,4.6
			H508.8z M508.3,41.1c-3.8-0.1-8,0.6-8,4.3c0,2.2,1.5,3.3,3.3,3.3c2.5,0,4-1.6,4.6-3.2c0.1-0.4,0.2-0.7,0.2-1.1V41.1z"/>
		<path d="M139.4,74.9c1.3-0.3,2.9-0.5,4.7-0.5c2.2,0,3.9,0.5,5,1.5c1,0.8,1.6,2,1.6,3.4c0,2.8-2.2,4.8-4.7,5.5v0.1
			c2,0.6,3.6,2.2,3.6,4.9c0,2.2-1.2,4-2.6,5.1c-1.7,1.3-4.1,1.8-7.1,1.8c-1.9,0-3.5-0.1-4.5-0.3L139.4,74.9z M138.3,94.3
			c0.7,0.1,1.5,0.1,2.2,0.1c3.2,0,6.2-1.3,6.2-4.8c0-2.6-2.2-3.7-4.6-3.7h-2.2L138.3,94.3z M140.3,83.8h2c3.1,0,5.5-1.6,5.5-4.3
			c0-2.1-1.6-3-4-3c-1,0-1.8,0.1-2.2,0.2L140.3,83.8z"/>
		<path d="M152,96.4l1.9-10.1c0.4-2,0.6-4.1,0.8-5.6h2.4c-0.1,1.1-0.3,2.2-0.4,3.4h0.1c1-2.1,2.7-3.8,4.8-3.8c0.2,0,0.6,0,0.7,0.1
			l-0.5,2.7c-0.2,0-0.4-0.1-0.7-0.1c-2.3,0-4.4,2.8-5.1,6.5l-1.3,6.9H152z"/>
		<path d="M172.3,96.4c0-0.9,0.2-2.4,0.4-4.1h-0.1c-1.7,3.2-3.9,4.4-6.1,4.4c-2.8,0-4.5-2.2-4.5-5.2c0-5.5,4-11.2,10.9-11.2
			c1.5,0,3.1,0.3,4.2,0.6l-1.6,8.2c-0.5,2.7-0.7,5.5-0.7,7.3H172.3z M174,82.7c-0.4-0.1-1-0.2-1.9-0.2c-4.1,0-7.4,4.3-7.4,8.6
			c0,1.8,0.6,3.5,2.7,3.5c2.2,0,4.9-2.9,5.7-7.1L174,82.7z"/>
		<path d="M178.9,93.7c0.7,0.5,2.1,1,3.4,1c1.8,0,3-1.2,3-2.6c0-1.2-0.6-2-2.2-2.9c-1.8-1-2.8-2.4-2.8-4c0-2.8,2.4-4.9,5.7-4.9
			c1.4,0,2.7,0.4,3.3,0.8l-0.7,2c-0.6-0.3-1.6-0.7-2.7-0.7c-1.6,0-2.8,1-2.8,2.4c0,1.1,0.7,1.8,2.1,2.6c1.8,1,3,2.4,3,4.1
			c0,3.3-2.7,5.2-6,5.2c-1.7,0-3.2-0.5-3.9-1.1L178.9,93.7z"/>
		<path d="M190.9,96.4l3-15.7h2.7l-3,15.7H190.9z M200.5,74.2l-4.3,4.6H194l3.2-4.6H200.5z"/>
		<path d="M198.4,96.4l4.4-23h2.7l-4.4,23H198.4z"/>
		<path d="M205.8,96.4l3-15.7h2.7l-3,15.7H205.8z M209.3,76.4c0-1,0.8-1.8,1.8-1.8c1,0,1.6,0.7,1.6,1.7c0,1.1-0.8,1.8-1.8,1.8
			C209.9,78,209.3,77.3,209.3,76.4z"/>
		<path d="M223.6,96.4c0-0.9,0.2-2.4,0.4-4.1h-0.1c-1.7,3.2-3.9,4.4-6.1,4.4c-2.8,0-4.5-2.2-4.5-5.2c0-5.5,4-11.2,10.9-11.2
			c1.5,0,3.1,0.3,4.2,0.6l-1.6,8.2c-0.5,2.7-0.7,5.5-0.7,7.3H223.6z M225.4,82.7c-0.4-0.1-1-0.2-1.9-0.2c-4.1,0-7.4,4.3-7.4,8.6
			c0,1.8,0.6,3.5,2.7,3.5c2.2,0,4.9-2.9,5.7-7.1L225.4,82.7z"/>
	</g>
</g>
</svg>
