<?xml version="1.0" encoding="utf-8"?>
<!-- Generator: Adobe Illustrator 25.4.1, SVG Export Plug-In . SVG Version: 6.00 Build 0)  -->
<!DOCTYPE svg PUBLIC "-//W3C//DTD SVG 1.1//EN" "http://www.w3.org/Graphics/SVG/1.1/DTD/svg11.dtd" [
	<!ENTITY ns_extend "http://ns.adobe.com/Extensibility/1.0/">
	<!ENTITY ns_ai "http://ns.adobe.com/AdobeIllustrator/10.0/">
	<!ENTITY ns_graphs "http://ns.adobe.com/Graphs/1.0/">
	<!ENTITY ns_vars "http://ns.adobe.com/Variables/1.0/">
	<!ENTITY ns_imrep "http://ns.adobe.com/ImageReplacement/1.0/">
	<!ENTITY ns_sfw "http://ns.adobe.com/SaveForWeb/1.0/">
	<!ENTITY ns_custom "http://ns.adobe.com/GenericCustomNamespace/1.0/">
	<!ENTITY ns_adobe_xpath "http://ns.adobe.com/XPath/1.0/">
]>
<svg version="1.1" id="Capa_1" xmlns:x="&ns_extend;" xmlns:i="&ns_ai;" xmlns:graph="&ns_graphs;"
	 xmlns="http://www.w3.org/2000/svg" xmlns:xlink="http://www.w3.org/1999/xlink" x="0px" y="0px" viewBox="0 0 336.2 79.1"
	 style="enable-background:new 0 0 336.2 79.1;" xml:space="preserve">
<style type="text/css">
	.st0{fill:#757575;}
</style>
<metadata>
	<sfw  xmlns="&ns_sfw;">
		<slices></slices>
		<sliceSourceBounds  bottomLeftOrigin="true" height="79.1" width="336.2" x="792" y="-580"></sliceSourceBounds>
	</sfw>
</metadata>
<g>
	<g>
		<path class="st0" d="M299.6,54.3c0,2.3,0,4.5,0,6.9c-1.6,0-3.1,0-4.6,0c-1.5,0-3,0-4.6,0c-1.5,0-3.1,0-4.6,0c0,1.9,0,3.8,0,5.8
			c0.3,0,0.6,0,0.9,0c4,0,8,0,12,0c0.3,0,0.6,0,0.9,0.1c0,3.9,0,7.7,0,11.5c-10.2,0-20.3,0-30.5,0c0-0.3,0-0.6,0-0.9
			c0-12.7,0-25.3,0-38c0-5.5,0-10.9,0-16.4c0-0.2,0-0.4,0-0.5c0-0.2,0-0.5,0.2-0.6c0.2-0.1,0.3,0.2,0.5,0.3c0.2,0.2,0.4,0.5,0.6,0.7
			c0.9,0.9,1.7,1.8,2.6,2.6c1,0.9,2.1,1.7,3.1,2.6c0.7,0.5,1.4,0.9,2.1,1.5c0.5,0.5,1.2,0.7,1.7,1.1c0.6,0.4,1.1,0.7,1.7,1
			c1.3,0.7,2.6,1.4,4,2c0.6,0.3,1.3,0.5,2,0.7c0.9,0.3,1.8,0.7,2.7,1c0.3,0.1,0.5,0.2,0.8,0.2c0.9,0.1,1.6,0.6,2.5,0.5
			c0.5,0.4,1.2,0.1,1.6,0.5c0,0,0.1,0,0.1,0c0.8,0.1,1.6,0.1,2.4,0.2c0.6,0.1,1.2,0.2,1.7,0.3c0,3.7,0,7.3,0,11.1
			c-0.3,0-0.6,0.1-0.9,0.1c-4,0-8,0-12,0c-0.3,0-0.6,0-0.8,0c-0.2,0.5-0.2,5,0,5.7c0.3,0,0.5,0,0.8,0c4,0,8.1,0,12.1,0
			C299,54.3,299.3,54.3,299.6,54.3z"/>
		<path d="M336.1,78.5c-10.2,0-20.3,0-30.4,0c0-0.3,0-0.5,0-0.7c0-3.3,0-6.7,0-10c0-0.1,0-0.3,0-0.4c0-0.3,0.1-0.4,0.4-0.4
			c0.2,0,0.4,0,0.7,0c4,0,8,0,11.9,0c0.3,0,0.5,0,0.8,0c0.2-0.6,0.2-5.1,0-5.8c-0.2,0-0.5,0-0.8,0c-4,0-8,0-11.9,0
			c-0.1,0-0.2,0-0.3,0c-0.8,0-0.8,0-0.8-0.8c0-1.8,0-3.6,0-5.3c0-0.7,0-0.8,0.8-0.8c4,0,8.1,0,12.1,0c0.3,0,0.6,0,0.8,0
			c0.2-0.6,0.2-5,0-5.8c-0.2,0-0.5,0-0.8,0c-4,0-8,0-12.1,0c-0.3,0-0.6,0-0.9-0.1c0-3.7,0-7.4,0-11c0.6-0.2,1.2-0.4,1.9-0.4
			c0.8,0,1.5-0.1,2.3-0.2c0.6-0.1,1.1-0.3,1.7-0.5c0.4-0.1,0.9-0.1,1.3-0.2c0.8-0.2,1.6-0.4,2.4-0.7c0.3-0.1,0.6-0.1,0.9-0.3
			c0.8-0.3,1.6-0.6,2.5-0.9c0.7-0.3,1.4-0.5,2.1-0.8c0.6-0.3,1.1-0.6,1.7-0.9c1.2-0.6,2.4-1.3,3.5-2c0.9-0.5,1.7-1.2,2.6-1.8
			c0.6-0.4,1.2-0.8,1.7-1.3c1.7-1.3,3.2-2.9,4.7-4.4c0.3-0.4,0.7-0.7,1.1-1.1c0.1,0.2,0.1,0.3,0.1,0.4c0,0.2,0,0.4,0,0.6
			c0,18.1,0,36.3,0,54.4C336.2,77.8,336.1,78.2,336.1,78.5z"/>
		<path d="M26.7,78.1c0-7.1-0.1-14.2-0.1-21.3c0,0-0.1-0.1-0.2-0.1c-0.3,0.3-0.6,0.7-0.8,1c-0.6,1.2-1.4,2.2-2.1,3.3
			c-0.4,0.6-0.8,1.1-1.1,1.6c-0.6,1.2-1.4,2.2-2.1,3.3c-0.7,1-1.3,2.1-2,3.1c-0.3,0.5-0.7,1-1,1.5c-0.2,0.3-0.5,0.3-0.7,0
			c-0.3-0.5-0.6-1.1-1-1.7c-0.4-0.6-0.8-1.1-1.1-1.6c-1-1.5-1.9-3-2.9-4.5c-0.5-0.7-0.9-1.4-1.4-2.1c-0.9-1.1-1.6-2.4-2.4-3.5
			c0,0-0.1,0-0.2-0.1c0,0.2-0.1,0.4-0.1,0.6c0,0.9,0,1.7,0,2.6c0,5.7,0,11.4,0,17.1c0,0.9,0,0.9-0.9,0.9c-1.9,0-3.8,0-5.7,0
			c-0.3,0-0.5,0-0.8-0.1c0-11.3,0-22.5,0-33.7c0.2,0,0.4,0,0.6,0c2.3,0,4.6,0,6.9,0c0.4,0,0.7,0.1,0.9,0.6c0.4,0.7,0.9,1.4,1.3,2.1
			c0.6,0.9,1.1,1.9,1.7,2.8c0.4,0.7,0.9,1.4,1.4,2.1c0.5,0.8,1,1.5,1.5,2.3c0.6,1.1,1.3,2,1.9,3.1c0.1,0.3,0.3,0.5,0.5,0.7
			c0.1,0.2,0.4,0.2,0.5,0c0.4-0.6,0.8-1.2,1.2-1.9c0.6-0.8,1-1.8,1.6-2.6c0.4-0.6,0.7-1.3,1.1-1.9c0.5-0.8,1.1-1.7,1.6-2.5
			c0.6-0.9,1.1-1.8,1.6-2.7c0.3-0.5,0.6-1,1-1.5c0,0,0,0,0,0c0.2-0.8,0.7-0.7,1.3-0.7c2.2,0,4.4,0,6.5,0c0.2,0,0.5,0,0.7,0
			c0.3,0.3,0.2,0.7,0.2,1c0,6.9,0,13.8,0,20.8c0,3.6,0,7.3,0,10.9c0,0.2,0,0.3,0,0.5c0,0.6-0.1,0.7-0.7,0.7c-2,0-4,0-6.1,0
			C27.1,78.2,26.9,78.1,26.7,78.1z"/>
		<path d="M220.4,37.8c-0.2,0-0.4,0-0.6,0c-1.7,0-3.5,0-5.2,0c-0.4,0-0.8-0.1-1-0.5c-0.7-0.9-1.3-1.8-2-2.6
			c-0.6-0.8-1.2-1.5-1.8-2.3c-0.4-0.5-0.8-1-1.2-1.5c-0.1-0.1-0.2-0.3-0.3-0.4c-0.4-0.5-0.8-1.1-1.3-1.6c-0.4-0.5-0.8-1-1.1-1.5
			c-0.5-0.6-0.9-1.2-1.4-1.8c-0.4-0.5-0.8-1-1.2-1.5c-0.3-0.4-0.6-0.8-0.9-1.3c-0.1-0.1-0.1-0.2-0.2-0.3c-0.5-0.6-1-1.2-1.4-1.9
			c-0.2-0.3-0.5-0.7-0.7-1c-0.7-0.8-1.3-1.7-2-2.5c-0.1-0.1-0.2-0.2-0.4-0.3c0,0.4,0,0.6,0,0.9c0,6.4,0,12.7,0,19.1
			c0,0.3,0,0.6-0.1,0.9c-2.5,0-4.9,0-7.3,0c-0.1-0.5-0.2-32.4-0.1-33.9c0.2,0,0.3-0.1,0.5-0.1c2,0,4,0,6,0c0.3,0,0.5,0.1,0.8,0.4
			c0.6,0.8,1.3,1.6,1.9,2.4c0.6,0.8,1.2,1.7,1.9,2.6c0.4,0.5,0.8,0.9,1.2,1.4c0.9,1.2,1.7,2.3,2.6,3.5c0.6,0.8,1.3,1.6,2,2.4
			c0.4,0.5,0.7,1,1.1,1.5c0.4,0.5,0.8,1,1.2,1.5c0.4,0.5,0.7,1,1.1,1.6c0.4,0.5,0.8,1,1.2,1.5c0.4,0.5,0.7,1,1.1,1.5
			c0,0.1,0.1,0.1,0.3,0.3c0.1-0.9,0-1.6,0-2.3c0-0.7,0-1.5,0-2.2c0-0.8,0-1.5,0-2.3c0-0.7,0-1.5,0-2.2c0-0.7,0-1.5,0-2.2
			c0-0.7,0-1.5,0-2.2c0-0.8,0-1.5,0-2.3c0-0.7,0-1.5,0-2.2c0-0.7,0-1.5,0-2.2c0.5-0.1,6.7-0.2,7.4,0
			C220.4,15.2,220.4,26.4,220.4,37.8z"/>
		<path d="M168.7,38.4c-0.6,0-1.2,0-1.8,0c-0.4,0-0.8,0.1-1.1-0.2c0,0-0.1,0-0.2,0c-0.9,0-1.7-0.3-2.4-0.5c-1.3-0.4-2.6-0.9-3.8-1.7
			c-0.7-0.4-1.4-0.9-2-1.4c-0.7-0.6-1.5-1.2-2-1.9c-0.1-0.1-0.2-0.2-0.3-0.3c-0.7-0.8-1.3-1.6-1.8-2.5c-0.6-1-1.1-2-1.5-3
			c-0.4-1-0.8-2.1-0.8-3.3c0-0.2-0.1-0.5-0.2-0.7c0-0.2-0.1-0.3-0.1-0.5c0-0.9,0-1.9,0-2.8c0-0.2,0.1-0.5,0.2-0.7
			c0-0.1,0.1-0.3,0.1-0.4c0-1,0.3-1.8,0.6-2.7c0.3-1,0.8-2,1.3-3c0.5-1,1.1-1.9,1.9-2.8c0.3-0.4,0.6-0.8,1-1.1
			c0.7-0.6,1.5-1.2,2.2-1.8c0.8-0.8,1.8-1.2,2.7-1.7c0.6-0.3,1.3-0.5,2-0.8c0.7-0.3,1.5-0.3,2.2-0.7c0.1-0.1,0.3,0,0.4,0
			c0.2-0.1,0.5-0.1,0.7-0.2c0.2,0,0.4-0.1,0.6-0.1c0.7,0,1.4,0.1,2.1-0.2c0.2-0.1,0.4-0.1,0.5,0c0.7,0.2,1.4,0.1,2.1,0.2
			c0.2,0,0.4,0.1,0.7,0.2c0.1,0,0.2,0.1,0.3,0.1c0.7,0,1.4,0.3,2.1,0.4c1.4,0.4,2.8,1.1,4.1,1.8c0.6,0.4,1.2,0.9,1.8,1.2
			c1,0.7,1.8,1.5,2.6,2.4c0.9,1,1.7,2.1,2.3,3.4c0.3,0.7,0.7,1.3,0.9,2c0.3,0.9,0.5,1.9,0.7,2.9c0.4,1.6,0.1,3.2,0.2,4.8
			c0,0.3-0.1,0.7-0.2,1c-0.1,0.4-0.2,0.8-0.3,1.3c-0.4,2.3-1.4,4.3-2.7,6.1c-1,1.4-2.1,2.6-3.5,3.6c-1.3,1-2.8,1.9-4.3,2.5
			c-0.8,0.3-1.7,0.8-2.7,0.8c-0.5,0.4-1.3,0.1-1.9,0.5c-0.1,0.1-0.3,0-0.5,0C170.1,38.4,169.4,38.4,168.7,38.4
			C168.7,38.4,168.7,38.4,168.7,38.4z M178.8,20.7c-0.1-0.7,0.1-1.4-0.2-2.3c-0.3-0.8-0.5-1.7-0.9-2.5c-0.4-0.9-1-1.6-1.7-2.3
			c-1.2-1.2-2.5-2.2-4.1-2.7c-1-0.3-2-0.5-3-0.5c-1,0-2.1,0.1-3.1,0.4c-0.9,0.2-1.7,0.7-2.5,1.1c-1.2,0.7-2.1,1.6-2.9,2.7
			c-0.5,0.7-1,1.5-1.3,2.3c-0.3,0.7-0.6,1.5-0.5,2.3c0,0.1-0.1,0.2-0.1,0.3c-0.1,0.2-0.2,0.5-0.2,0.7c0,0.8,0,1.6,0.2,2.4
			c0.2,0.7,0.3,1.4,0.6,2.1c0.5,1.3,1.2,2.5,2.2,3.5c0.6,0.6,1.1,1.2,1.9,1.6c0.6,0.3,1.2,0.7,1.8,0.9c0.7,0.2,1.4,0.6,2.2,0.5
			c0,0,0.1,0,0.1,0c1.2,0.3,2.3,0.1,3.4-0.1c0.7-0.1,1.4-0.5,2.1-0.8c0.9-0.4,1.7-1,2.5-1.6c0.6-0.5,1.1-1.2,1.6-1.8
			c0,0,0-0.1,0.1-0.1c0.4-0.9,1-1.8,1.2-2.8c0.2-0.7,0.5-1.3,0.4-2C178.8,21.6,178.8,21.2,178.8,20.7z"/>
		<path d="M196.8,78.1c-0.4,0-0.6,0.1-0.8,0.1c-2.4,0-4.9,0-7.3,0c-0.5,0-0.8-0.2-1.1-0.7c-0.3-0.4-0.5-0.9-0.9-1.3
			c-0.4-0.4-0.7-1-1-1.5c-0.4-0.6-0.7-1.1-1.1-1.7c-0.3-0.5-0.5-1-0.9-1.4c-0.4-0.5-0.7-1.1-1.1-1.6c-0.5-0.8-1-1.5-1.6-2.3
			c-0.1-0.2-0.3-0.3-0.6-0.3c-1.6,0-3.3,0-4.9,0c-0.1,0-0.2,0-0.3,0.1c0,0.2-0.1,0.5-0.1,0.8c0,3,0,5.9,0,8.9c0,0.3,0,0.5,0,0.8
			c-0.3,0-0.6,0.1-0.8,0.1c-2,0-4,0-6.1,0c-0.8,0-0.8,0-0.8-0.8c0-3.6,0-7.1,0-10.7c0-7.1,0-14.2,0-21.4c0-0.3,0-0.6,0.1-1
			c0.3,0,0.5,0,0.7,0c5.4,0,10.7,0,16.1,0c0.8,0,1.5,0,2.3,0.2c1.5,0.4,3.1,0.7,4.5,1.6c0.8,0.6,1.6,1.1,2.3,2
			c0.6,0.8,1.1,1.7,1.5,2.6c0.3,0.7,0.5,1.5,0.6,2.3c0,0.1,0,0.2,0,0.3c0.5,1.2,0.2,2.5,0.2,3.8c0,0.6-0.3,1.2-0.4,1.8
			c-0.1,1.1-0.6,2-1.1,2.9c-0.5,0.9-1.1,1.6-1.9,2.3c-0.7,0.5-1.4,1-2.2,1.4c-0.3,0.1-0.6,0.2-1,0.4c-0.4,0.2-0.4,0.4-0.2,0.7
			c0.5,0.8,1.1,1.6,1.6,2.4c0.9,1.4,1.9,2.7,2.8,4.1c0.6,0.9,1.3,1.8,1.9,2.7C195.8,76.5,196.2,77.2,196.8,78.1z M175.2,51
			c0,0.9,0,1.7,0,2.5c0,0.8,0,1.6,0,2.4c0,0.8,0,1.6,0,2.4c0,0.8,0,1.6,0,2.5c0.4,0,0.6,0,0.9,0c2.2,0,4.4,0,6.6,0
			c0.7,0,1.4-0.2,2.1-0.4c0.9-0.2,1.7-0.8,2.4-1.5c0.2-0.2,0.4-0.5,0.5-0.7c0.4-0.9,0.6-1.8,0.5-2.8c-0.1-0.8-0.3-1.6-0.8-2.3
			c-0.9-1.1-2-1.7-3.4-1.9c-0.1,0-0.2,0-0.3-0.1c-0.3-0.2-0.7-0.2-1-0.2c-2.2,0-4.5,0-6.7,0C175.8,51,175.6,51,175.2,51z"/>
		<path d="M136.2,78c0-11.2,0-22.4,0-33.6c8.6,0,17.1,0,25.7,0c0.2,0.5,0.2,5.6,0.1,6.6c-0.3,0-0.5,0-0.8,0c-5.4,0-10.9,0-16.3,0
			c-0.3,0-0.6,0-0.8,0c-0.1,0.6-0.2,5.8,0,6.6c0.3,0,0.6,0,0.9,0c4.6,0,9.1,0,13.7,0c0.3,0,0.6,0,0.9,0.1c0.1,0.6,0.2,5.9,0,6.7
			c-5.2,0-10.3,0-15.5,0c-0.2,0.5-0.2,6.1-0.1,7c0.3,0,0.6,0,0.9,0c5.3,0,10.7,0,16,0c1.1,0,1.1,0,1.1,1.1c0,1.6,0,3.2,0,4.8
			c0,0.2,0,0.5,0,0.7C161.4,78.2,136.8,78.2,136.2,78z"/>
		<path d="M200.8,44.4c8.6,0,17.1,0,25.6,0c0.2,0.6,0.2,6,0,6.6c-6,0-11.9,0-17.9,0c-0.2,0.5-0.2,5.8-0.1,6.7c0.3,0,0.6,0,1,0
			c4.6,0,9.1,0,13.7,0c0.3,0,0.6,0,0.9,0.1c0.2,0.6,0.2,6,0,6.7c-5.2,0-10.4,0-15.5,0c-0.2,0.6-0.2,6.1,0,6.9c0.3,0,0.5,0,0.8,0
			c5.4,0,10.7,0,16.1,0c1.3,0,1.2,0,1.2,1.2c0,1.6,0,3.2,0,4.7c0,0.7,0,0.8-0.8,0.8c-8.1,0-16.1,0-24.2,0c-0.8,0-0.8,0-0.8-0.9
			c0-4.9,0-9.8,0-14.6c0-5.7,0-11.5,0-17.2C200.8,45.1,200.8,44.8,200.8,44.4z"/>
		<path d="M102,44.4c2.5,0,5,0,7.6,0c0.1,2.2,0,4.5,0,6.7c0,2.2,0,4.4,0,6.6c4.4,0,8.7,0,13.1,0c0-2.3,0-4.5,0-6.7
			c0-2.2,0-4.4,0-6.6c2.5,0,4.9,0,7.3,0c0.1,0.5,0.2,32.8,0,33.7c-0.2,0-0.4,0.1-0.6,0.1c-2,0-4,0-6,0c-0.7,0-0.7,0-0.7-0.7
			c0-4,0-8,0-12c0-0.3,0-0.6,0-0.9c-4.4,0-8.6,0-13,0c0,0.3-0.1,0.6-0.1,0.8c0,3.9,0,7.9,0,11.8c0,1,0,1-1,1c-2,0-3.9,0-5.9,0
			c-0.3,0-0.5,0-0.8-0.1C102,66.9,102,55.7,102,44.4z"/>
		<path d="M225.2,3.9c2.5,0,4.9,0,7.4,0c0,0.3,0.1,0.6,0.1,0.9c0,6.1,0,12.2,0,18.3c0,0.4,0,0.8,0.2,1.2c0.1,0.2,0.1,0.4,0.1,0.6
			c0,0.7,0.2,1.5,0.5,2.1c0.3,1,0.8,1.9,1.6,2.6c1,0.9,2.1,1.5,3.5,1.6c0.7,0.1,1.3,0.3,2,0.2c0.2,0,0.4-0.1,0.6-0.1
			c0.3,0,0.6-0.1,0.8-0.2c0.8-0.1,1.6-0.4,2.3-0.9c0.4-0.3,0.8-0.5,1.1-0.8c0.6-0.7,1.1-1.5,1.4-2.4c0.2-0.7,0.3-1.4,0.5-2.1
			c0.3-1.2,0.2-2.3,0.2-3.4c0-5.6,0-11.3,0-16.9c0-0.3,0-0.6,0-0.9c0.3,0,0.5,0,0.7,0c2,0,4.1,0,6.1,0c0.7,0,0.8,0,0.8,0.8
			c0,2.5,0,5,0,7.5c0,3.5,0,7,0,10.5c0,1.3,0,2.6-0.2,3.8c-0.1,1-0.2,2-0.7,2.9c-0.3,1.6-1.1,2.8-1.9,4.2c-0.1,0.2-0.3,0.4-0.5,0.6
			c-0.5,0.5-0.9,1-1.4,1.4c-0.9,0.7-1.8,1.4-2.8,1.8c-0.7,0.3-1.5,0.7-2.2,0.8c-0.6,0.1-1.2,0.5-1.8,0.3c-1.8,0.4-3.6,0.1-5.4,0.2
			c-0.4,0-0.7-0.1-1.1-0.2c-0.1,0-0.1,0-0.2,0c-0.8,0-1.6-0.3-2.3-0.5c-0.6-0.2-1.2-0.4-1.8-0.7c-0.8-0.4-1.5-0.8-2.3-1.3
			c-1-0.7-1.8-1.5-2.5-2.5c-0.6-0.8-1.2-1.8-1.5-2.8c-0.2-0.6-0.4-1.2-0.6-1.8c-0.1-0.3-0.2-0.6-0.2-1c-0.1-0.7-0.3-1.5-0.3-2.2
			c0-7,0-14.1,0-21.1C225.2,4.4,225.2,4.2,225.2,3.9z"/>
		<path d="M39.1,44.4c2.5,0,4.9,0,7.4,0c0,0.3,0,0.6,0,0.8c0,6,0,12,0,18c0,0.4-0.1,0.8,0.2,1.1c0.1,0.1,0.1,0.3,0.1,0.5
			c-0.1,1.6,0.4,3,1.3,4.3c0.8,1.2,2,2,3.4,2.5c0.7,0.3,1.5,0.1,2.2,0.4c0.2,0.1,0.5,0,0.8,0c0.2,0,0.4-0.1,0.6-0.1
			c1,0,1.9-0.4,2.7-0.8c0.6-0.3,1.3-0.8,1.7-1.4c0.6-0.8,1.1-1.6,1.2-2.6c0.1-0.7,0.3-1.3,0.5-2c0-0.2,0-0.4,0-0.7
			c0-6.4,0-12.8,0-19.2c0-0.3,0-0.6,0.1-0.9c2.5,0,5,0,7.5,0c0,0.3,0.1,0.5,0.1,0.7c0,6.2,0,12.5,0,18.7c0,1.1,0,2.2-0.2,3.2
			c-0.2,1.1-0.3,2.2-0.7,3.3c-0.4,1-0.9,1.9-1.3,2.9c-0.5,1-1.4,1.8-2.2,2.6c-0.7,0.7-1.6,1.2-2.5,1.7c-0.9,0.5-1.7,0.9-2.7,1
			c-0.7,0.1-1.4,0.3-2.1,0.4c-1.6,0.3-3.2,0.1-4.8,0.2c-0.4,0-0.8-0.1-1.2-0.2c-0.2,0-0.5,0-0.7-0.1c-0.2,0-0.5-0.1-0.7-0.2
			c-0.3-0.1-0.6,0-0.9-0.1c-1.1-0.4-2.2-0.7-3.2-1.3c-0.5-0.3-1.1-0.6-1.6-1.1c-0.4-0.5-1.1-0.8-1.5-1.3c-1-1.2-1.8-2.4-2.3-3.9
			c-0.3-0.8-0.5-1.6-0.7-2.4c-0.3-1-0.4-2.1-0.4-3.2c0-6.7,0-13.5,0-20.2C39.1,45,39.1,44.7,39.1,44.4z"/>
		<path d="M256.2,48.2c-0.9,1.3-1.7,2.5-2.6,3.8c-0.4,0.5-0.7,1-1.1,1.5c-0.2,0.2-0.3,0.3-0.6,0.1c-0.6-0.6-1.4-1-2.1-1.3
			c-1-0.4-2-0.8-3-1.2c-0.1,0-0.3,0-0.4,0c-1.3-0.4-2.6-0.5-4-0.4c-0.1,0-0.2,0-0.3,0c-1.2,0-2.1,0.6-2.7,1.5
			c-0.5,0.8-0.5,1.9,0,2.7c0.2,0.4,0.6,0.8,1,1c0.6,0.3,1.2,0.7,1.9,0.9c0.8,0.2,1.5,0.5,2.3,0.8c0.3,0.1,0.6,0.1,1,0.2
			c0.5,0.1,1,0.3,1.5,0.5c0.4,0.1,0.7,0.2,1.1,0.3c1.3,0.4,2.6,0.8,3.9,1.5c1,0.6,2.1,1.2,2.8,2c0.8,0.9,1.5,1.9,1.9,3.1
			c0.5,1.6,0.5,3.2,0.4,4.8c-0.1,1.1-0.4,2.1-0.9,3.1c-0.1,0.3-0.4,0.5-0.5,0.7c-0.6,0.9-1.2,1.6-2.1,2.3c-1.2,0.9-2.5,1.5-3.8,2
			c-0.8,0.3-1.7,0.6-2.6,0.6c-0.1,0-0.1,0-0.2,0c-0.8,0.4-1.7,0.2-2.6,0.2c-0.6,0-1.2,0-1.8,0c-0.4,0-0.7,0.1-1.1-0.2
			c-0.1-0.1-0.3,0-0.4,0c-0.8,0-1.5-0.2-2.2-0.4c-0.9-0.2-1.7-0.5-2.5-0.8c-1-0.4-2-0.8-2.8-1.5c-0.5-0.4-1.1-0.7-1.6-1
			c-0.6-0.4-1.2-0.8-1.7-1.3c-0.2-0.1-0.2-0.3,0-0.5c0.5-0.5,0.9-1.1,1.3-1.6c0.5-0.6,0.9-1.1,1.4-1.7c0.4-0.5,0.8-1.1,1.3-1.6
			c0.2-0.2,0.4-0.2,0.6,0c0.6,0.5,1.2,1,1.9,1.4c0.4,0.2,0.8,0.4,1.2,0.6c0.8,0.4,1.7,0.8,2.5,1.1c0.3,0.1,0.6,0.2,0.9,0.2
			c0.7,0,1.3,0.4,2,0.3c0.6,0,1.3,0.2,1.9,0.1c1.1-0.1,2.2-0.3,3.1-0.9c0.8-0.5,1.2-1.2,1.3-2.1c0.2-1.4-0.5-2.2-1.6-2.8
			c-0.8-0.5-1.7-0.8-2.6-1c-0.7-0.2-1.4-0.3-2.1-0.5c-0.9-0.3-1.8-0.5-2.7-0.7c-0.8-0.2-1.7-0.5-2.4-0.8c-1.6-0.7-3.2-1.4-4.4-2.7
			c-0.6-0.7-1.1-1.4-1.5-2.2c-0.3-0.6-0.4-1.4-0.6-2c-0.2-0.8-0.2-1.6-0.2-2.3c0-0.5,0-1,0.2-1.5c0.2-0.4,0.2-0.8,0.3-1.3
			c0.3-1.3,0.9-2.4,1.9-3.4c0.5-0.5,0.9-1,1.5-1.5c0.6-0.5,1.4-0.9,2.1-1.2c0.7-0.3,1.4-0.6,2.2-0.8c0.8-0.2,1.6-0.4,2.5-0.4
			c0.1,0,0.2,0,0.3,0c0.9-0.5,1.9-0.2,2.9-0.2c0.7,0,1.3,0.3,2,0.4c0.7,0.1,1.3,0.3,1.9,0.5c0.7,0.2,1.4,0.5,2.1,0.8
			c0.4,0.2,0.8,0.4,1.3,0.6c0.9,0.3,1.6,0.9,2.4,1.3c0.3,0.1,0.6,0.4,0.9,0.6C256,47.9,256.1,48,256.2,48.2z"/>
		<path d="M110.7,17.7c0-0.4,0-0.8,0-1.3c0.1-0.7,0.1-1.5,0.4-2.2c0.1-0.2,0-0.5,0.1-0.7c0.3-1,0.7-2,1.2-2.9c0.9-1.5,2-2.9,3.3-4.1
			c0.9-0.7,1.9-1.4,3-1.9c0.9-0.4,1.7-0.7,2.6-1.1c0.5-0.2,1.1-0.2,1.6-0.3c0.3-0.1,0.6-0.1,0.8-0.1c1-0.1,2-0.2,3.1,0.1
			c0.1,0,0.2,0,0.3,0.1c1.7,0.1,3.2,0.6,4.7,1.4c0.7,0.4,1.4,0.7,2.1,1.2c0.8,0.6,1.6,1.2,2.3,2c0.6,0.6,1.1,1.4,1.6,2.1
			c0.5,0.7,0.9,1.5,1.2,2.4c0.3,1,0.8,2,0.7,3.1c0,0.1,0,0.2,0,0.3c0.5,1.1,0.1,2.2,0.2,3.3c-0.4,0.8-0.2,1.6-0.5,2.4
			c-0.4,1-0.7,2.1-1.2,3c-0.5,0.9-1.1,1.8-1.8,2.6c-0.6,0.6-1.1,1.3-1.8,1.8c-0.4,0.2-0.7,0.6-1,0.8c-1,0.7-2.1,1.3-3.3,1.7
			c-0.8,0.3-1.6,0.6-2.4,0.7c-1.3,0.2-2.5,0.3-3.8,0.2c-0.5,0-1-0.1-1.5-0.2c-0.8-0.2-1.5-0.5-2.2-0.7c-0.8-0.2-1.6-0.6-2.3-1
			c-0.6-0.3-1.1-0.7-1.7-1.1c-0.8-0.5-1.4-1.2-2.1-1.8c-1-1-1.7-2.2-2.3-3.4c-0.4-0.9-0.8-1.8-1-2.7c-0.1-0.6-0.2-1.2-0.4-1.8
			C110.7,19.1,110.8,18.4,110.7,17.7C110.8,17.7,110.8,17.7,110.7,17.7z M137.4,18.1c-0.4,0.9-0.2,1.8-0.6,2.7
			c-0.2,0.5-0.3,1-0.5,1.5c-0.4,0.9-0.8,1.7-1.4,2.5c-0.2,0.3-0.8,0.5-0.6,0.9c0.1,0.3,0.5,0.6,0.7,0.9c0.1,0.1,0.1,0.2,0.2,0.2
			c0.2,0,0.4,0.1,0.5,0c0.5-0.6,1.1-1.2,1.5-1.8c0.5-0.8,0.9-1.6,1.2-2.4c0.3-0.9,0.6-1.7,0.7-2.7c0-0.2,0-0.4,0.1-0.6
			c0.2-0.4,0.1-0.8,0.1-1.2C138.6,18.1,138,18.1,137.4,18.1z M124.9,31.6c0-0.6,0-1.2,0-1.8c0-0.3-0.3-0.4-0.6-0.4
			c-0.7,0-1.3,0-2-0.3c-0.7-0.3-1.5-0.4-2.1-0.8c-1-0.5-1.8-1.1-2.7-1.8c-0.1-0.1-0.2-0.2-0.4-0.3c-0.5,0.5-0.9,0.9-1.4,1.4
			c0.8,0.6,1.5,1.3,2.3,1.7c0.9,0.5,1.9,0.9,2.9,1.3c0.9,0.3,1.8,0.6,2.7,0.6c0.2,0,0.4,0.1,0.6,0.2
			C124.5,31.5,124.6,31.5,124.9,31.6z M139.1,17.4c0.1-0.6,0.1-0.7,0-1.1c-0.1-0.2-0.1-0.5-0.1-0.8c0-0.8-0.2-1.6-0.5-2.3
			c-0.4-0.9-0.9-1.8-1.4-2.7c-0.3-0.5-0.6-0.9-1-1.3c-0.6-0.7-0.7-0.8-1.5,0c-0.5,0.5-0.5,0.7,0,1.3c0.3,0.4,0.7,0.7,0.9,1.1
			c0.4,0.9,0.8,1.8,1.2,2.7c0.2,0.4,0.2,0.9,0.3,1.3c0.1,0.6,0.1,1.2,0.2,1.8C138,17.4,138.6,17.4,139.1,17.4z M115.3,8.4
			c-0.4,0.5-0.8,0.9-1.2,1.4c-0.2,0.3-0.5,0.6-0.7,0.9c-0.4,0.8-0.8,1.7-1.1,2.6c-0.1,0.4-0.2,0.7-0.3,1.1c-0.2,0.7-0.3,1.4-0.4,2.1
			c0,0.3,0,0.6,0,0.9c0.7,0,1.3,0,1.8,0c0.1-0.8,0.2-1.5,0.3-2.2c0-0.1,0-0.2,0.1-0.3c0.2-0.6,0.5-1.1,0.6-1.7
			c0.2-0.7,0.6-1.3,1-1.9c0.3-0.5,0.8-1,1.2-1.5C116.2,9.3,115.7,8.9,115.3,8.4z M124.9,4c-0.2,0-0.3,0-0.4,0
			c-0.3,0.2-0.6,0.2-0.9,0.2c-0.6,0.1-1.2,0.1-1.7,0.3c-1,0.3-2,0.7-2.9,1.2c-0.3,0.2-0.7,0.3-1,0.5c-0.6,0.4-1.2,0.9-1.8,1.4
			C116,7.7,116,7.9,116.1,8c0.3,0.3,0.5,0.6,0.8,0.8c0.2,0.2,0.6,0.2,0.8,0c0.4-0.4,0.8-0.7,1.2-1c0.9-0.6,1.8-1,2.8-1.3
			c0.8-0.3,1.6-0.5,2.5-0.5c0.2,0,0.5-0.1,0.5-0.4C124.9,5.1,124.9,4.6,124.9,4z M133.4,26.3c-0.9,0.8-1.7,1.5-2.5,2.2
			c-0.1,0.1-0.2,0.1-0.3,0.2c-0.6,0.4-1.2,0.5-1.9,0.5c-0.3,0-0.7,0-1,0.1c-0.3,0-0.5,0.1-0.8,0.2c-0.3,0-0.5,0-0.8,0
			c-0.3,0-0.5,0.2-0.5,0.4c0,0.6,0,1.1,0,1.8c0.3-0.1,0.5-0.1,0.7-0.1c0.2,0,0.4-0.1,0.6-0.1c1,0,1.8-0.3,2.7-0.5
			c0.3-0.1,0.5-0.2,0.8-0.3c1-0.5,2-1,2.9-1.7c0.5-0.4,0.9-0.8,1.3-1.2C134.3,27.2,133.9,26.7,133.4,26.3z M132.7,7.2
			c0,0.7,0.3,1.4,1,1.8c0.4-0.4,0.7-0.8,1.1-1.2c-0.5-0.4-1-0.8-1.5-1.2c-1.1-0.8-2.2-1.4-3.5-1.9c-0.8-0.2-1.5-0.5-2.3-0.6
			c-0.5-0.1-1,0-1.4-0.2c-0.1,0-0.2,0-0.4,0c0,0.5-0.1,1,0.1,1.4c0.5-0.2,0.9-0.3,1.4-0.5c0.1,0,0.3,0,0.5,0c0.5,0,0.7,0.4,0.6,0.9
			c-0.1,0.2-0.1,0.3-0.2,0.5c0.3,0.1,0.6,0.1,0.8,0.2c0.8,0.3,1.5,0.6,2.2,1c0.2,0.1,0.4,0.1,0.6-0.1C132,7.1,132.3,7.1,132.7,7.2z
			 M117.4,10.5c-0.3,0.3-0.5,0.4-0.7,0.7c-0.8,1-1.3,2.1-1.8,3.2c-0.2,0.4-0.2,0.9-0.3,1.3c-0.1,0.3-0.1,0.7-0.1,1
			c-0.1,0.4,0,0.5,0.4,0.5c0.4,0,0.8,0,1.2-0.1c0-0.2,0.1-0.3,0.1-0.3c0-1,0.2-1.9,0.6-2.8c0.3-0.6,0.5-1.1,1-1.6
			c0.2-0.2,0.4-0.5,0.5-0.8c0.1-0.1,0-0.3-0.1-0.4C117.9,11,117.7,10.8,117.4,10.5z M125.7,11.3c1.5,0.2,2.8,0.7,3.9,1.6
			c0.5-0.4,1-0.9,1.5-1.3c-0.6-0.5-1.1-0.9-1.7-1.2c-0.6-0.3-1.2-0.7-1.8-0.8c-0.6-0.1-1.2-0.6-1.9-0.2
			C125.7,10.1,125.7,10.6,125.7,11.3z M124.8,7.1c-0.1,0-0.2-0.1-0.3-0.1c-0.8,0-1.6,0.2-2.3,0.4c-1.4,0.3-2.5,1.1-3.6,1.9
			c-0.6,0.4-0.6,0.7-0.1,1.1c0.2,0.1,0.3,0.3,0.5,0.4c1.6-1.5,3.6-2.2,5.8-2.4C124.8,8,124.8,7.6,124.8,7.1z M133.8,24.7
			c0.3-0.5,0.7-1,1-1.5c0.3-0.5,0.6-1.1,0.9-1.7c0.2-0.5,0.4-1.1,0.5-1.6c0.1-0.6,0.1-1.2,0-1.9c-0.5,0-0.9,0-1.4,0
			c0,0.7,0,1.4-0.3,2.1c-0.1,0.4-0.2,0.8-0.3,1.2c-0.2,0.7-0.7,1.4-1.2,1.9c-0.2,0.2-0.3,0.4,0.1,0.5c0.2,0.1,0.3,0.2,0.3,0.4
			C133.2,24.5,133.4,24.6,133.8,24.7z M121.1,13c1.1-1,2.4-1.4,3.7-1.7c0-0.7,0-1.3,0-1.9c-0.3,0-0.5,0-0.8,0
			c-0.2,0-0.3,0.2-0.5,0.2c-0.9,0.1-1.7,0.5-2.5,1c-0.5,0.3-0.9,0.6-1.3,1.1C120.2,12.1,120.6,12.5,121.1,13z M118.2,25.8
			c0.4,0.6,0.9,0.9,1.5,1.3c0.7,0.4,1.4,0.9,2.3,1c0.3,0.1,0.7,0.1,1,0.3c0.6,0.3,1.2,0.2,1.8,0.2c0-0.5,0-1,0-1.5
			c-0.2,0-0.4,0-0.6-0.1c-0.5-0.1-1-0.1-1.5-0.2c-0.9-0.3-1.8-0.7-2.6-1.3c-0.1-0.1-0.3-0.1-0.5-0.1
			C119.2,25.5,118.7,25.7,118.2,25.8z M119,12.1c-0.5,0.8-1.2,1.5-1.5,2.4c-0.3,0.8-0.8,1.7-0.5,2.6c0.3,0.2,0.6,0.2,0.9,0
			c0-0.1,0-0.1,0-0.1c0.1-0.6,0.3-1.1,1-1.2c0.2,0,0.3-0.2,0.5-0.4c0.3-0.5,0.6-1,0.9-1.5c0.1-0.2,0.1-0.4-0.1-0.5
			C119.8,13,119.5,12.6,119,12.1z M123.2,23.9c-0.5-0.3-1-0.6-1.5-0.9c-0.3-0.2-0.4-0.6-0.8-0.5c-0.3,0.1-0.5,0.4-0.7,0.7
			c-0.4,0.4-0.4,0.7,0,1.1c0.1,0.1,0.1,0.2,0.2,0.2c0.7,0.7,1.7,1,2.6,1.3c0.3,0.1,0.6,0.2,0.9,0.2c0.2,0,0.5,0.1,0.6-0.2
			c-0.4-0.2-0.7-0.4-1.1-0.6c-0.1-0.1-0.3-0.3-0.3-0.5C123.2,24.5,123.2,24.2,123.2,23.9z M112.8,23.1c0,0.2,0.1,0.4,0.1,0.5
			c0.2,0.4,0.4,0.8,0.7,1.3c0.4,0.6,0.7,1.2,1.1,1.7c0.3,0.4,0.5,0.4,0.8,0.1c0.2-0.2,0.4-0.4,0.6-0.6c0.3-0.4,0.3-0.6,0-1
			c-0.5-0.7-1.3-1-1.8-1.7C114.1,22.9,113.4,22.9,112.8,23.1z M125.8,7.3c0,0.4,0,0.8,0,1.1c0.9,0.2,1.7,0.3,2.4,0.5
			c0.8,0.2,1.5,0.6,2.3,0.9c0-0.2,0-0.3-0.1-0.3c-0.3-0.2-0.4-0.5-0.5-0.9c-0.1-0.5-0.4-0.9-0.9-1c-0.5-0.1-1-0.2-1.5-0.4
			C126.9,7,126.4,7,125.8,7.3z M133.2,19c0.1,0.8-0.2,1.2-1,1.3c-0.3,0-0.7,0.2-1,0.2c0,0.2,0,0.3,0,0.4c0.3,0.3,0.2,0.7,0.2,1.1
			c0,0.3,0.1,0.5,0.4,0.6c0.3,0.1,0.6,0,0.7-0.3c0.3-0.5,0.6-1.1,0.8-1.6c0.2-0.4,0.2-0.9,0.4-1.3c0.2-0.5,0.2-0.9,0.1-1.3
			c-0.5,0-0.9,0-1.4,0C132.3,18.7,132.4,18.8,133.2,19z M112.1,21.6c0.3,0.1,0.4,0,0.5-0.2c0.1-0.5,0.2-0.6,0.7-0.6
			c0.1,0,0.3,0,0.4-0.1c0.3-0.9-0.4-1.7-0.2-2.6c-0.7,0-1.3,0-1.9,0C111.5,19.4,111.9,20.5,112.1,21.6z M136.1,17.4
			c0.2-1.2,0-2.3-0.6-3.3c-0.9-0.1-1-0.2-1.6-1c-0.1-0.1-0.2-0.4-0.5-0.2c0.8,1.4,1.2,2.8,1.2,4.4C135.2,17.4,135.7,17.4,136.1,17.4
			z M124.8,12.4c-0.3,0-0.5,0.1-0.7,0.1c-0.7,0-1.3,0.5-1.9,0.8c-0.3,0.2-0.3,0.4-0.1,0.7c0.3,0.4,0.7,0.7,1.1,1
			c0.2,0.1,0.3,0.1,0.5,0c0.3-0.2,0.6-0.3,1-0.5C124.8,13.9,124.8,13.2,124.8,12.4z M123,20.5c-0.4,0.4-0.8,0.8-1.3,1.3
			c0.9,0.7,1.6,1.3,2.7,1c0-0.2,0-0.4,0-0.6c0-0.2,0-0.3,0.1-0.5c0.1-0.5-0.1-1-0.6-1C123.6,20.6,123.3,20.6,123,20.5z M127.2,14.6
			c0.6-0.3,1.1-0.6,1.4-1.2c-0.4-0.3-0.8-0.6-1.2-0.8c-0.5-0.2-1.1-0.3-1.7-0.4c0,0.7,0,1.4,0,2.2c0.4,0,0.7,0,0.9-0.1
			C127,14.2,127.1,14.3,127.2,14.6z M126.2,17.1c-0.2-0.1-0.4-0.3-0.5-0.4c-0.5-0.5-1.1-0.3-1.4,0.3c-0.1,0.1-0.1,0.3-0.2,0.5
			c0.8,0,1.1,0.6,1.3,1.1c0,0.6-0.7,0.9-0.2,1.6c0.2-0.8,0.5-1.3,1.3-1.3c0-0.2,0.1-0.5,0-0.6C126.2,17.9,126.3,17.4,126.2,17.1z
			 M131.3,15c0.2,0.1,0.3,0.3,0.5,0.3c0.3,0,0.6,0.1,0.9-0.1c0.2-0.2,0.3-0.3,0.6-0.5c-0.4-0.6-0.7-1.3-1.1-1.9
			c-0.2-0.3-0.5-0.4-0.8-0.2c-0.3,0.3-0.6,0.6-0.9,0.9c-0.1,0.1,0,0.3,0,0.5c0.1,0,0.3,0,0.4-0.1c0.2-0.1,0.3-0.3,0.5-0.5
			c0.2-0.2,0.5-0.2,0.7-0.1c0.2,0.2,0.1,0.4,0,0.6C131.9,14.3,131.6,14.6,131.3,15z M115,20.9c0,0,0.1,0,0.1,0
			c0-0.2,0.1-0.3,0.1-0.5c-0.1-0.5,0.2-0.8,0.4-1.2c0.1-0.1,0.2-0.3,0.3-0.4c0.3-0.4,0.2-0.8-0.3-0.8c-0.4,0-0.8,0-1.2,0
			C114.5,19.1,114.7,20,115,20.9z M119.1,22.8c0.1,0,0.1,0,0.2,0c0.4-0.4,0.7-0.7,1-1c-0.4-0.7-0.7-1.3-1-1.9c-0.2,0-0.4,0-0.7,0.1
			c0.1,0.2,0,0.4,0.2,0.5c0.3,0.3,0.3,0.6,0.3,1C119.1,21.9,119.1,22.4,119.1,22.8z M125.7,28.5c0.6,0.1,1.1,0.1,1.6,0
			c0.3-0.7-0.4-0.9-0.5-1.4c-0.4,0-0.8,0-1.2,0C125.7,27.6,125.7,28,125.7,28.5z M120,19.2c0.2,0.6,0.5,1.2,0.9,1.7
			c0,0,0.2,0.1,0.2,0c0.2-0.1,0.4-0.2,0.5-0.4c0.1-0.1,0.1-0.3,0.2-0.5c-0.6-0.2-0.6-0.2-1-0.8C120.6,19.1,120.4,19,120,19.2z
			 M132.6,25.8c-0.3-0.3-0.2-0.7-0.8-0.9c0,0.5-0.1,1,0.1,1.5C132.3,26.2,132.4,26,132.6,25.8z M133.8,17.3
			c-0.2-0.1-0.5-0.3-0.8,0.1C133.3,17.5,133.6,17.5,133.8,17.3z M121.1,14.3c-0.1,0.3-0.2,0.5,0.1,0.5c0.1,0,0.1,0,0.3-0.1
			C121.4,14.6,121.3,14.5,121.1,14.3z"/>
		<path d="M97.2,71.5c0,2.3,0,4.4,0,6.6c-0.2,0-0.5,0.1-0.7,0.1c-7.3,0-14.7,0-22,0c-0.2,0-0.4,0-0.6-0.1c0-11.3,0-22.5,0-33.7
			c2.5,0,5,0,7.5,0c0,0.1,0.1,0.3,0.1,0.5c0,0.3,0,0.6,0,0.9c0,8.2,0,16.4,0,24.7c0,0.3,0,0.7,0,1.1c0.3,0,0.6,0,0.8,0
			c4.6,0,9.2,0,13.9,0C96.5,71.4,96.8,71.5,97.2,71.5z"/>
		<path class="st0" d="M299.6,17.1c0,4.8,0,9.4,0,14.2c-0.7,0-1.4,0.1-2-0.1c-0.2,0-0.3-0.1-0.5-0.1c-0.4,0-0.8,0-1.2-0.2
			c-0.4-0.2-0.9-0.2-1.4-0.3c-1.1-0.2-2.3-0.4-3.3-0.9c-0.6-0.3-1.2-0.4-1.8-0.6c-0.6-0.2-1.2-0.4-1.8-0.7c-0.4-0.2-0.8-0.4-1.2-0.5
			c-0.4-0.2-0.6-0.4-0.6-0.8c0-2.5,0-5,0-7.5c0-1.4,0-2.9,0-4.4c0.2,0,0.4-0.1,0.6,0c0.7,0.3,1.4,0.3,2.1,0.5
			c0.8,0.2,1.6,0.3,2.4,0.4c0.6,0.1,1.3,0.3,1.9,0.4c0.2,0,0.4,0,0.7,0c0.4,0,0.9,0,1.3,0.2c0.1,0.1,0.3,0,0.5,0.1
			c0.5,0,1-0.1,1.5,0.2c0.2,0.1,0.5,0,0.7,0C298.2,17,298.8,17,299.6,17.1z"/>
		<path d="M319.4,15.5c0,4.1,0,8.1,0,12.2c-0.7,0.3-1.4,0.7-2.1,1c-1.1,0.4-2.2,0.8-3.3,1.2c-0.7,0.2-1.4,0.3-2.1,0.5
			c-0.6,0.1-1.2,0.3-1.7,0.4c-0.7,0.1-1.4,0.1-2,0.3c-0.6,0.2-1.3,0.1-1.9,0.1c-0.1,0-0.3,0-0.5-0.1c0-4.6,0-9.2,0-13.8
			c0.3-0.2,0.7-0.3,1.1-0.3c0.7,0,1.3,0,2,0c0.4,0,0.7,0,1.1-0.2c0.3-0.1,0.7-0.1,1.1-0.1c0.3,0,0.7,0.1,0.9-0.2
			c0.1-0.1,0.2-0.1,0.3-0.1c0.5,0,1.1-0.1,1.6-0.2c0.7,0,1.5-0.3,2.2-0.4c0.5-0.1,1.2,0,1.6-0.4C318.2,15.7,318.8,15.2,319.4,15.5z"
			/>
		<path d="M319.4,0c0,3.1,0,6.2,0,9.2c-0.8,0.2-1.7,0.3-2.5,0.5c-0.6,0.1-1.1,0.3-1.7,0.5c-0.6,0.1-1.2,0.2-1.8,0.2
			c-0.2,0-0.4,0.1-0.6,0.1c-0.1,0-0.2,0.1-0.3,0.1c-0.9,0.1-1.8,0.2-2.7,0.2c-0.5,0-1,0.1-1.5,0.2c-0.8,0.1-1.6,0-2.4,0
			c-0.1,0-0.1-0.1-0.3-0.1c0-0.2,0-0.4,0-0.6c0-3.2,0-6.5,0-9.7c0-0.1,0-0.3,0-0.4c0-0.3,0.2-0.4,0.4-0.4c0.1,0,0.2,0,0.3,0
			c4.1,0,8.3,0,12.4,0C319,0,319.2,0,319.4,0z"/>
		<path class="st0" d="M285.9,9c0-3,0-5.9,0-8.9c0.5-0.2,12.8-0.2,13.7-0.1c0.1,0.5,0.2,9.9,0.1,11.1c-0.6,0.1-1.1,0.1-1.7,0
			c-0.1,0-0.2-0.1-0.4-0.1c-1.1,0.1-2.2-0.2-3.3-0.2c-0.2,0-0.5-0.1-0.7-0.2c-0.1,0-0.2-0.1-0.3-0.1c-0.6-0.1-1.2-0.1-1.8-0.2
			c-0.6-0.1-1.1-0.2-1.7-0.4c-0.5-0.1-1.1-0.2-1.6-0.4C287.4,9.4,286.7,9.2,285.9,9z"/>
		<path class="st0" d="M279.8,23.9c-0.6-0.5-1.1-1-1.7-1.4c-0.7-0.6-1.5-1.2-2.1-1.9c-0.8-0.8-1.7-1.6-2.3-2.6
			c-0.3-0.4-0.7-0.8-1-1.2c-0.6-0.8-1.2-1.6-1.8-2.4c-0.6-0.9-1.2-1.9-1.8-2.9c-0.1-0.1-0.1-0.3-0.1-0.5c0-0.8,0-1.7,0-2.5
			c0.2-0.2,0.4-0.2,0.6-0.1c0.9,0.5,1.7,0.9,2.6,1.3c0.6,0.3,1.3,0.6,1.9,0.9c0.9,0.4,1.7,0.8,2.6,1.2c0.5,0.2,0.9,0.3,1.4,0.5
			c0.6,0.2,1.1,0.4,1.7,0.7C279.8,16.8,279.8,20.3,279.8,23.9z"/>
		<path d="M325.5,23.9c0-3.5,0-7,0-10.4c3.6-1.3,7.2-2.7,10.6-4.6c0,0.2,0.1,0.4,0.1,0.5c0,0.6,0,1.1,0,1.7c0,0.6-0.4,1.1-0.7,1.6
			c-0.3,0.5-0.6,1-0.9,1.5c-0.3,0.5-0.6,0.9-1,1.4c-0.2,0.3-0.5,0.7-0.7,1c-0.1,0.2-0.3,0.4-0.4,0.6c-1.4,1.8-3,3.3-4.6,4.8
			C327.1,22.8,326.3,23.3,325.5,23.9z"/>
		<path d="M325.5,0.1c3.6,0,7.1,0,10.6,0c0.2,0.7,0.1,1.4,0.1,2c0,0.3-0.3,0.4-0.5,0.5C334.7,3,334,3.6,333,4
			c-0.9,0.3-1.7,0.9-2.6,1.3c-0.6,0.3-1.3,0.5-1.9,0.8c-0.6,0.3-1.2,0.6-1.8,0.8c-0.4,0.2-0.8,0.3-1.3,0.5
			C325.5,4.9,325.5,2.5,325.5,0.1z"/>
		<path class="st0" d="M279.8,7c-1-0.4-2.1-0.8-3-1.3c-1.3-0.6-2.7-1.3-4-2c-0.8-0.4-1.6-0.9-2.4-1.4c-0.3-0.2-0.7-0.3-1-0.5
			c-0.4-0.3-0.6-1.2-0.3-1.6c0-0.1,0.2-0.2,0.2-0.2c0.1,0,0.3,0,0.5,0c3.1,0,6.2,0,9.4,0c0.2,0,0.4,0,0.6,0
			C279.8,2.4,279.8,4.7,279.8,7z"/>
		<path d="M130.6,33.6c0.1,0.1,0.1,0.3,0.2,0.3c0.9,0.4,1.8,0.8,2.7,1.2c0.1,0,0.2,0.1,0.3,0.1c0.2,0,0.3,0,0.5,0
			c0.6,0.3,1.3,0,1.9,0c0.4,0,0.7-0.2,1.1-0.4c0.2-0.1,0.5-0.1,0.7-0.2c0,0,0,0.1,0.1,0.1c-0.1,0.1-0.2,0.3-0.3,0.4
			c-0.8,0.6-1.6,1-2.5,1.4c-0.1,0-0.2,0-0.3,0c-0.1,0-0.3,0-0.4,0c-0.7,0.4-1.5,0.1-2.2,0c-0.6-0.1-1.2-0.3-1.7-0.6
			c-0.9-0.5-1.7-1-2.5-1.5c-0.2-0.2-0.4-0.2-0.7-0.3c-0.2,0-0.4-0.1-0.6-0.2c-0.2,0.2-0.2,0.4,0.1,0.5c1,0.6,2.1,1.2,2.9,2.1
			c0.2,0.2,0.4,0.3,0.6,0.4c0.3,0.2,0.3,0.4,0,0.7c-0.2,0.2-0.4,0.3-0.6,0.5c-0.6-0.6-1.1-1.2-1.7-1.7c-0.8-0.7-1.6-1.4-2.6-1.9
			c-0.5-0.2-0.8,0-1.2,0.1c-0.3,0.2-0.5,0.5-0.8,0.6c-1,0.6-1.7,1.5-2.5,2.3c-0.5,0.4-0.5,0.5-1,0.1c-0.3-0.2-0.4-0.5-0.1-0.7
			c0.8-0.6,1.5-1.2,2.3-1.7c0.4-0.3,0.8-0.7,1.3-0.8c0.1,0,0.1-0.3,0.2-0.4c-1,0-1.8,0.4-2.4,1c-0.9,0.6-1.8,1.1-2.8,1.5
			c-0.5,0.2-1.1,0.2-1.6,0.3c-0.1,0-0.3-0.1-0.4-0.1c-0.2,0-0.3-0.1-0.5-0.1c-1.4-0.1-2.6-0.8-3.6-1.8c0,0,0-0.1,0-0.2
			c0.5,0.2,0.9,0.3,1.4,0.5c0.2,0.1,0.5,0.1,0.7,0.2c0.2,0,0.4,0.1,0.6,0.1c0.1,0,0.2,0.1,0.2,0.1c0.7-0.3,1.5-0.2,2.2-0.5
			c0.6-0.3,1.3-0.6,2-0.8c0.7-0.3,1.5-0.5,2.3-0.5c0.1,0,0.2-0.1,0.4-0.1c0.4,0,0.8-0.2,1.1-0.1c0.6,0.3,1.3,0.2,1.9,0.3
			c0.6,0.1,1.2-0.2,1.8-0.3c0.3,0,0.7-0.1,1,0c0.3,0.2,0.7,0.2,1,0.2c0.3,0,0.6,0.1,0.9,0.1C130.2,33.7,130.4,33.6,130.6,33.6
			L130.6,33.6z"/>
		<path d="M138.3,30.4c0.1-0.1,0.3-0.1,0.4-0.2c0.5-0.5,1.2-0.9,1.9-1.2c0.7-0.3,1.3-0.7,2-1.1c0.2-0.1,0.4-0.2,0.5-0.4
			c0.3-0.3,0.6-0.6,0.9-0.9c0.2-0.2,0.3-0.5,0.6-0.6c0,0.7-0.3,1.2-0.6,1.7c-0.4,0.8-0.9,1.5-1.6,2.1c-0.7,0.6-1.4,1.1-2.2,1.4
			c-0.5,0.2-1.1,0.4-1.6,0.6c-0.3,0.1-0.7,0.2-1,0.2c-0.5,0.1-0.9,0.1-1.4,0.3c-0.1,0-0.2,0-0.4,0c0.1-0.2,0.2-0.3,0.3-0.5
			c0.9-1.2,1.4-2.5,1.8-3.8c0.3-0.9,0.7-1.9,1.3-2.6c0.2-0.3,0.4-0.6,0.6-0.9c0,0,0.1,0,0.2-0.1c-0.1,0.7-0.1,1.5-0.3,2.2
			c-0.2,1-0.3,2-0.8,2.9c-0.2,0.3-0.4,0.6-0.6,0.9C138.3,30.3,138.3,30.3,138.3,30.4z"/>
		<path d="M106.2,25.9c0.1,0.1,0.2,0.2,0.3,0.3c0.7,1.2,1.8,1.9,3,2.5c0.9,0.5,1.9,0.9,2.8,1.5c0,0,0.1,0,0.2,0
			c-0.1-0.2-0.2-0.5-0.3-0.7c-0.4-0.6-0.6-1.2-0.7-1.9c-0.1-0.5-0.1-1-0.2-1.4c-0.1-0.6-0.3-1.1-0.4-1.7c0-0.1,0-0.2,0-0.3
			c0.1,0.1,0.3,0.2,0.3,0.3c1,1.5,1.8,3.2,2.3,4.9c0.2,0.7,0.5,1.3,1,1.9c0.2,0.3,0.4,0.6,0.6,0.9c-0.2,0-0.3,0.1-0.4,0
			c-0.8-0.2-1.6-0.3-2.3-0.5c-0.6-0.2-1.2-0.3-1.8-0.6c-0.9-0.4-1.7-0.9-2.4-1.6c-1-1-1.7-2.2-2.1-3.6
			C106.1,25.9,106.1,25.9,106.2,25.9z"/>
		<path d="M130.6,33.6c-0.1-0.1-0.2-0.2-0.3-0.3c0.4-0.1,0.7-0.2,1-0.3c0.7-0.2,1.3-0.6,1.8-1.1c1-0.9,2-1.9,3-2.8
			c0.2-0.2,0.5-0.4,0.9-0.6c0,0.2,0,0.3,0,0.4c-0.4,0.8-0.8,1.5-1.2,2.3c-0.4,0.7-1,1.1-1.6,1.4c-0.1,0-0.1,0.1-0.3,0.2
			c0.2,0,0.4,0.1,0.5,0.1c0.4-0.1,0.8-0.1,1.2-0.2c0.4,0,0.7,0,1.1-0.2c0.3-0.1,0.6-0.1,0.9-0.1c1.2,0.1,2.2-0.4,3.2-0.9
			c0.2-0.1,0.4-0.3,0.6-0.5c0,0,0.1,0.1,0.1,0.1c-0.1,0.2-0.1,0.4-0.3,0.5c-0.8,0.8-1.5,1.6-2.5,2c-0.7,0.3-1.4,0.6-2.2,0.6
			c-0.4,0-0.8,0-1.3,0c-0.3,0-0.6-0.1-0.9-0.2c-0.1,0-0.2,0-0.3-0.1c-0.6-0.1-1.2,0-1.7-0.3C131.7,33.6,131.1,33.6,130.6,33.6
			C130.6,33.6,130.6,33.6,130.6,33.6z"/>
		<path d="M116.9,32.9c-0.5-0.3-0.8-0.5-1.1-0.7c-0.8-0.6-1-1.5-1.5-2.3c-0.2-0.3-0.3-0.7-0.5-0.9c-0.1-0.1-0.1-0.3-0.2-0.5
			c0.2,0,0.3,0,0.3,0.1c0.8,0.6,1.6,1.3,2.3,2c0.9,0.9,1.8,1.8,2.9,2.2c0.4,0.2,0.9,0.3,1.4,0.6c-0.2,0.1-0.4,0.2-0.6,0.2
			c-0.6,0.1-1.2,0.2-1.8,0.3c-0.3,0.1-0.6,0.1-1,0.2c-0.1,0-0.2,0-0.3,0c-0.9,0.5-1.9,0.2-2.9,0.2c-0.5,0-1-0.3-1.5-0.5
			c-1.3-0.5-2.1-1.5-3-2.4c0,0,0-0.1-0.1-0.3c0.2,0.1,0.4,0.1,0.5,0.2c1,0.9,2.2,1.2,3.5,1.2c0.4,0,0.8,0.1,1.2,0.2
			c0.2,0,0.3,0,0.5,0c0.5,0,1-0.1,1.4,0.2C116.5,33,116.6,32.9,116.9,32.9z"/>
		<path d="M142,25.8c0.8-0.9,1.6-1.9,2.4-2.8c0.7-0.7,1.1-1.5,1.5-2.4c0-0.1,0.1-0.1,0.2-0.3c-0.2,1.1-0.1,2.1-0.5,3.1
			c-0.5,1-1,2-1.8,2.7c-0.7,0.6-1.5,1.1-2.3,1.7c-0.3,0.2-0.7,0.5-1,0.7c-0.2,0.1-0.4,0.2-0.7,0.4c0-0.2,0-0.4,0.1-0.5
			c0.2-0.7,0.4-1.4,0.6-2c0-0.1,0-0.3,0-0.4c0-0.5,0-1,0.2-1.5c0.1-0.4,0-0.9,0.1-1.4c0-0.3,0.1-0.6,0.2-0.9c0-0.2,0.1-0.5,0.1-0.7
			c0-0.5,0.2-0.9,0.3-1.3c0.1,0.1,0.2,0.1,0.2,0.1c0.1,0.7,0.2,1.4,0.3,2c0,0.1,0,0.2,0,0.3c0.4,0.7,0.2,1.4,0.2,2.1
			c0,0.2-0.1,0.5-0.2,0.8c0,0.1,0,0.3,0,0.4C141.9,25.8,141.9,25.8,142,25.8z"/>
		<path d="M111,28.9c-0.4-0.3-0.8-0.5-1.2-0.8c-0.4-0.3-0.9-0.5-1.3-0.9c-0.8-0.7-1.7-1.2-2.3-2.1c-0.6-0.8-1.1-1.7-1.3-2.8
			c-0.1-0.6-0.1-1.2-0.2-2c0.2,0.1,0.3,0.2,0.4,0.3c0.3,0.9,0.8,1.6,1.4,2.3c0.5,0.6,1,1.2,1.6,1.7c0.2,0.2,0.4,0.5,0.5,0.7
			c0.1,0.2,0.3,0.3,0.5,0.4c-0.3-1.1-0.3-2.1-0.1-3.1c0.2-0.9,0.2-1.8,0.5-2.8c0.3,0.6,0.5,1.2,0.6,1.9c0.1,0.9,0,1.9,0.2,2.8
			c0.2,0.7,0.1,1.3,0.2,2c0.1,0.6,0.4,1.2,0.6,1.8c0,0.1,0.1,0.2,0.1,0.4C111.1,28.8,111,28.9,111,28.9z"/>
		<path d="M108.1,24c-0.1-0.1-0.2-0.2-0.3-0.3c-0.6-0.8-1.3-1.7-1.9-2.6c-0.4-0.6-0.7-1.3-0.9-2.1c-0.2-0.8-0.2-1.6-0.2-2.5
			c0-0.3,0.1-0.5,0.2-0.8c0-0.3,0.1-0.5,0.1-0.8c0-0.2,0-0.5,0.2-0.7c0.2,0.2,0.2,0.5,0.2,0.7c0,0.9,0.3,1.6,0.6,2.4
			c0.3,0.7,0.5,1.5,0.8,2.2c0.1,0.3,0.2,0.4,0.5,0.3c0.1-0.4,0.1-0.8,0.2-1.1c0.2-0.5,0.5-1.1,0.9-1.6c0.4-0.5,0.6-1,0.9-1.6
			c0-0.1,0.1-0.2,0.3-0.3c0.2,0.5,0.1,0.9,0,1.3c-0.1,0.3-0.1,0.5-0.1,0.8c-0.1,0.5-0.2,1-0.4,1.6c-0.2,0.7-0.5,1.4-0.7,2.2
			c0,0.1-0.1,0.3-0.1,0.4c0,0.1,0,0.3,0,0.4c-0.2,0.6-0.4,1.2,0,1.8c0,0,0,0.1,0,0.1C108.2,23.9,108.2,23.9,108.1,24z"/>
		<path d="M142.7,24.1c-0.1-0.2-0.1-0.4-0.2-0.5c0-0.2,0-0.4,0-0.7c0-0.7,0-1.5-0.3-2.2c-0.2-0.5-0.5-1.1-0.6-1.7
			c-0.1-0.6-0.1-1.2-0.3-1.7c-0.2-0.6-0.2-1.2-0.2-1.8c0-0.1,0-0.2,0.1-0.3c0.4,1.1,1.2,2,1.7,3c0.3,0.5,0.5,1,0.5,1.7
			c0,0.2-0.1,0.4,0.2,0.7c0.1-0.3,0.1-0.5,0.2-0.7c0.3-0.8,0.6-1.6,0.9-2.4c0.2-0.5,0.3-0.9,0.4-1.4c0.2-0.5,0.2-1.1,0.2-1.7
			c0.1,0.2,0.3,0.3,0.3,0.5c0.1,0.8,0.2,1.6,0.2,2.5c0,0.8-0.2,1.5-0.4,2.3c-0.2,0.8-0.6,1.4-1.1,2
			C143.9,22.4,143.4,23.2,142.7,24.1z"/>
		<path d="M143.6,18.3c-0.2-0.3-0.3-0.6-0.5-0.9c-0.4-0.8-0.9-1.4-1.4-2.2c-0.7-1-1.5-2.1-1.9-3.3c0-0.1,0-0.3,0-0.5
			c0.2,0.1,0.4,0.1,0.4,0.2c0.7,0.6,1.3,1.3,2,1.9c0.5,0.5,0.9,1.1,1.1,1.9c0.1-0.2,0.2-0.3,0.2-0.4c0-1.7,0-3.3,0-5
			c0-0.1-0.1-0.3-0.1-0.4c-0.1-0.2-0.1-0.4-0.2-0.7c0.2,0.1,0.3,0.1,0.4,0.2c0.7,1,1.2,2.1,1.3,3.4c0,0.1,0.1,0.2,0.1,0.4
			c0.1,0.3,0.2,0.7,0.1,1c-0.2,0.8-0.2,1.6-0.6,2.3c-0.2,0.3-0.2,0.6-0.3,0.9c-0.1,0.4-0.3,0.9-0.4,1.3
			C143.7,18.3,143.6,18.3,143.6,18.3z"/>
		<path d="M107.4,15.1c0.5-0.7,1-1.3,1.5-1.8c0.6-0.6,1.3-1.2,1.9-1.8c0,0,0.1,0,0.2,0c-0.1,0.8-0.4,1.5-0.8,2.1
			c-0.5,0.8-1,1.6-1.6,2.3c-0.6,0.7-1,1.5-1.4,2.4c0,0-0.1,0.1-0.2,0.1c-0.1-0.1-0.1-0.1-0.2-0.2c-0.3-0.9-0.7-1.9-0.9-2.8
			c-0.2-1-0.4-2-0.1-3.1c0.2-0.8,0.5-1.6,0.8-2.4c0.2-0.3,0.3-0.7,0.8-0.9c0,0.2,0,0.3,0,0.4c0,0.2-0.1,0.4-0.2,0.6
			c-0.1,0.2-0.1,0.4-0.2,0.7c0,0.3-0.1,0.7,0,0.9c0.2,0.3,0.2,0.7,0.2,1c0,0.7,0,1.3,0,2C107.4,14.6,107.4,14.8,107.4,15.1z"/>
		<path d="M137.9,7.6c0.8,0.5,1.2,1.2,1.9,1.6c0.7,0.4,1.3,0.9,2,1.4c-0.1-0.3-0.1-0.5-0.2-0.8c-0.3-1-0.4-2-0.9-2.9
			c-0.2-0.3-0.4-0.5-0.6-0.8c0.3-0.2,0.5,0.1,0.7,0.2c0.8,0.5,1.5,1.1,1.8,2c0.2,0.7,0.4,1.3,0.4,2.1c-0.1,0.8,0,1.5,0,2.3
			c0,0.2,0,0.4,0,0.8c-0.2-0.2-0.3-0.3-0.4-0.4c-0.3-0.5-0.8-0.8-1.2-1.2c-0.8-0.7-1.6-1.4-2.4-2.1C138.4,9.4,138,8.6,137.9,7.6z"/>
		<path d="M109.2,10.6c0.1-0.1,0.3-0.1,0.3-0.2c0.4-0.5,1-0.8,1.5-1.2c0.3-0.2,0.5-0.4,0.7-0.7c0.3-0.3,0.6-0.6,1-0.9
			c0.2,0.7-0.1,1.2-0.4,1.7c-0.4,0.6-0.9,1.1-1.4,1.5c-0.5,0.4-1.1,0.7-1.6,1.2c-0.4,0.4-0.9,0.6-1.1,1.2c0,0.1-0.2,0.2-0.3,0.4
			c0-1.2,0-2.4,0-3.6c-0.1-1.3,0.5-2.3,1.4-3.2c0.3-0.3,0.7-0.5,1-0.7c0.1-0.1,0.2,0,0.5,0c-1.3,1.2-1.3,2.9-1.8,4.3
			C109.1,10.5,109.1,10.6,109.2,10.6z"/>
		<path d="M114.8,4.3c-0.2,0.2-0.4,0.4-0.6,0.6c-0.4,0.5-0.9,1-1.2,1.6c-0.4,0.6-0.9,1.1-1.4,1.6c-0.4,0.4-0.9,0.8-1.3,1.1
			c-0.1,0.1-0.2,0.1-0.4,0.2c0-0.2,0-0.3,0-0.4c0.4-1.2,0.9-2.4,1.9-3.3C112.6,4.8,113.7,4.5,114.8,4.3z"/>
		<path d="M136.2,4.3c0.4,0.1,0.8,0.2,1.2,0.3c0.8,0.3,1.6,0.9,2.1,1.6c0.7,0.9,1.2,2,1.5,3.1c-0.1,0-0.2,0.1-0.2,0
			c-0.5-0.4-1-0.6-1.4-1.1c-0.3-0.4-0.7-0.7-1.1-1c-0.4-0.4-0.7-0.8-1-1.3c-0.3-0.5-0.7-0.9-1-1.2c-0.1-0.1-0.1-0.1-0.1-0.2
			C136.2,4.4,136.2,4.3,136.2,4.3z"/>
		<path d="M133.8,17.3c-0.2,0.3-0.4,0.2-0.8,0.1C133.3,17,133.5,17.2,133.8,17.3z"/>
		<path d="M121.1,14.3c0.2,0.2,0.3,0.3,0.4,0.4c-0.1,0-0.2,0.1-0.3,0.1C121,14.8,121,14.6,121.1,14.3z"/>
	</g>
</g>
</svg>
