<?xml version="1.0" encoding="UTF-8" standalone="no"?>
<svg
   width="85.340706"
   height="18.488457"
   viewBox="0 0 85.340706 18.488457"
   version="1.1"
   id="svg6"
   sodipodi:docname="cerrar.svg"
   inkscape:version="1.1.2 (b8e25be833, 2022-02-05)"
   xmlns:inkscape="http://www.inkscape.org/namespaces/inkscape"
   xmlns:sodipodi="http://sodipodi.sourceforge.net/DTD/sodipodi-0.dtd"
   xmlns="http://www.w3.org/2000/svg"
   xmlns:svg="http://www.w3.org/2000/svg">
  <defs
     id="defs10" />
  <sodipodi:namedview
     id="namedview8"
     pagecolor="#ffffff"
     bordercolor="#cccccc"
     borderopacity="1"
     inkscape:pageshadow="0"
     inkscape:pageopacity="1"
     inkscape:pagecheckerboard="0"
     showgrid="false"
     fit-margin-top="0"
     fit-margin-left="0"
     fit-margin-right="0"
     fit-margin-bottom="0"
     inkscape:zoom="15.51"
     inkscape:cx="39.877498"
     inkscape:cy="8.5428756"
     inkscape:window-width="1920"
     inkscape:window-height="991"
     inkscape:window-x="-9"
     inkscape:window-y="-9"
     inkscape:window-maximized="1"
     inkscape:current-layer="svg6" />
  <g
     id="g876"
     style="fill:#ba0c2f;fill-opacity:1"
     transform="translate(63.340703,-2.5115442)">
    <path
       d="M 20,3 H 4 C 2.897,3 2,3.897 2,5 v 14 c 0,1.103 0.897,2 2,2 h 16 c 1.103,0 2,-0.897 2,-2 V 5 C 22,3.897 21.103,3 20,3 Z M 4,19 V 7 h 16 l 0.001,12 z"
       id="path2"
       style="fill:#ba0c2f;fill-opacity:1" />
    <path
       d="M 15.707,10.707 14.293,9.293 12,11.586 9.707,9.293 8.293,10.707 10.586,13 8.293,15.293 9.707,16.707 12,14.414 14.293,16.707 15.707,15.293 13.414,13 Z"
       id="path4"
       style="fill:#ba0c2f;fill-opacity:1" />
  </g>
  <text
     xml:space="preserve"
     style="font-style:normal;font-variant:normal;font-weight:normal;font-stretch:normal;font-size:25.3104px;line-height:1.25;font-family:'Roboto Condensed';-inkscape-font-specification:'Roboto Condensed, Normal';font-variant-ligatures:normal;font-variant-caps:normal;font-variant-numeric:normal;font-variant-east-asian:normal;fill:#294770;fill-opacity:1;stroke:none;stroke-width:0.632759"
     x="-1.5324656"
     y="18.241285"
     id="text4799"><tspan
       sodipodi:role="line"
       id="tspan4797"
       x="-1.5324656"
       y="18.241285"
       style="stroke-width:0.632759">Cerrar</tspan></text>
</svg>
