<?xml version="1.0" encoding="UTF-8"?>
<svg id="Capa_2" data-name="Capa 2" xmlns="http://www.w3.org/2000/svg" xmlns:xlink="http://www.w3.org/1999/xlink" viewBox="0 0 1986.9 331">
  <defs>
    <style>
      .cls-1, .cls-2 {
        fill: #fff;
      }

      .cls-2 {
        opacity: .5;
      }

      .cls-3 {
        fill: #5c5a61;
      }

      .cls-4 {
        opacity: .1;
      }

      .cls-5 {
        clip-path: url(#clippath);
      }

      .cls-6 {
        fill: #2cbbed;
      }

      .cls-7 {
        fill: none;
      }

      .cls-8 {
        fill: #5c5961;
      }
    </style>
    <clipPath id="clippath">
      <rect class="cls-6" width="1986.9" height="331"/>
    </clipPath>
  </defs>
  <g id="Capa_1-2" data-name="Capa 1">
    <g>
      <rect class="cls-6" width="1986.9" height="331"/>
      <g class="cls-5">
        <g class="cls-4">
          <path class="cls-1" d="m-133.14,18.76L-54.84-46.72c20.57,3.51,41.68,5.37,63.24,5.37v-58.23l451.45-381.34h89.41c-.22,4.69-.46,9.36-.83,14L-48.49,36.01c-29.15-3.06-57.43-8.91-84.65-17.25"/>
          <path class="cls-1" d="m1200.59-127.33l-277.62,230c-5.56-29.77-14.04-58.51-25.12-85.94l271.3-224.75c12.51,25.82,23.03,52.79,31.45,80.69"/>
          <path class="cls-1" d="m-22.39,436.89c-1.07-6.34,343.26-269.61,343.26-277.75C324.33,73.8,392.61,5.18,477.85,1.18v-80.22L-137.12,434.09l114.73,2.8Z"/>
          <path class="cls-1" d="m789.08-458.24l-234.4,198.49c-24.98-4.26-50.63-6.52-76.83-6.52v70.74L-11.2,213.04h-108.61c.26-5.7.55-11.38,1.01-17.01L686.25-479.2c35.41,3.72,69.77,10.82,102.83,20.96"/>
          <path class="cls-1" d="m508.23,2.54l226.27-189.15c24.99,17.23,48.17,36.87,69.18,58.63l-206.28,172.46c-24.19-22.21-55.01-37.28-89.17-41.93"/>
          <path class="cls-1" d="m855.14-64.04c16.83,25.24,31.16,52.3,42.7,80.78l-183.91,153.81h-61.96c-.21-2.45-1.38-14.5-1.69-16.92-1.02-13.82-3.74-27.16-7.95-39.8l212.8-177.87Z"/>
        </g>
      </g>
    </g>
    <g>
      <g>
        <g>
          <path class="cls-1" d="m488.47,306.96c29.19,0,56.3-8.87,78.79-24.06l-14.49-12.16c-18.71,11.51-40.73,18.15-64.3,18.15-67.86,0-122.88-55.02-122.88-122.88,0-15.94,3.04-31.17,8.56-45.14l-14.49-12.15c-7.8,17.51-12.14,36.89-12.14,57.3,0,77.84,63.1,140.95,140.95,140.95Z"/>
          <path class="cls-2" d="m488.47,25.06c-77.84,0-140.95,63.1-140.95,140.95s63.1,140.95,140.95,140.95,140.95-63.11,140.95-140.95S566.32,25.06,488.47,25.06Z"/>
          <path class="cls-1" d="m488.47,58.03c-59.63,0-107.98,48.34-107.98,107.98s48.35,107.98,107.98,107.98,107.99-48.35,107.99-107.98-48.34-107.98-107.99-107.98Z"/>
          <path class="cls-7" d="m488.47,25.06c-77.84,0-140.95,63.1-140.95,140.95s63.1,140.95,140.95,140.95,140.95-63.11,140.95-140.95S566.32,25.06,488.47,25.06Z"/>
          <path class="cls-7" d="m488.47,58.03c-59.63,0-107.98,48.34-107.98,107.98s48.35,107.98,107.98,107.98,107.99-48.35,107.99-107.98-48.34-107.98-107.99-107.98Z"/>
        </g>
        <path class="cls-1" d="m488.47,58.03c-59.63,0-107.98,48.34-107.98,107.98s48.35,107.98,107.98,107.98,107.99-48.35,107.99-107.98-48.34-107.98-107.99-107.98Z"/>
      </g>
      <g>
        <path class="cls-1" d="m596.46,166.01c0,59.64-48.34,107.99-107.99,107.99s-107.98-48.35-107.98-107.99,48.35-107.98,107.98-107.98,107.99,48.34,107.99,107.98Z"/>
        <g>
          <path class="cls-3" d="m571.2,191.85c-.26,1.14-.5,2.28-.79,3.42-3.15,12.62-14.58,21.36-27.4,20.93-13.16-.44-23.99-9.75-26.35-22.63-2.19-11.99,4.13-24.27,15.2-29.55.48-.23.96-.46,1.64-.78-.52-2-1.04-4-1.61-6.16-.53.18-.97.29-1.39.47-15.72,6.68-24,23.87-19.49,40.33.29,1.05.51,2.28.25,3.3-.4,1.6-1.8,2.14-3.4,2.14-2.96,0-5.92,0-8.89,0-7.92,0-15.83,0-23.75,0-2.95,0-3.59-.47-4.57-3.3-.79-2.29-1.61-4.56-2.36-6.86-.27-.84-.68-1.21-1.61-1.17-1.67.07-3.34.06-5.01,0-.94-.03-1.24.3-1.41,1.25-2.21,11.97-10.9,20.6-22.67,22.62-14.84,2.55-29.31-7.91-31.55-22.79-.06-.41-.22-.81-.33-1.21v-6.14c.27-1.19.52-2.39.82-3.58,3.18-12.48,14.63-21.25,27.17-20.83,13.4.45,24.1,9.61,26.52,22.81.22,1.21.66,1.51,1.75,1.43,1.12-.08,2.24-.02,3.53-.02-.14-.58-.21-.98-.34-1.36-1.38-4.01-2.86-8-4.15-12.04-1.49-4.69-4.45-8.01-8.83-10.17-8.1-4.01-16.09-8.23-24.28-12.04-7.23-3.37-12.47-8.49-15.7-15.73-1.49-3.34-3.03-6.65-4.47-10.01-1.23-2.87.53-5.22,3.63-4.72,8.71,1.39,17.4,2.9,26.1,4.37.74.13,1.48.27,2.22.4,5.04.89,8.55,3.67,9.69,8.7.74,3.29,2.5,4.64,5.68,5.4,6.22,1.48,12.32,3.44,18.47,5.2.56.16,1.13.31,1.49.4,2.24-2.94,4.23-5.89,6.57-8.54,4.12-4.67,9.25-7.34,15.67-6.83,3.92.31,7.57,1.64,11.02,3.44,3.91,2.04,7.73,4.25,11.58,6.39.51.28,1.02.56,1.83,1,.58-2.55,1.15-4.93,1.62-7.32.06-.33-.34-.86-.66-1.15-1.36-1.23-2.78-2.38-4.15-3.6-1.92-1.71-1.92-3.71,0-5.39,4.66-4.08,9.84-6.78,16.28-6.02,4.99.6,9.27,2.92,12.89,6.21,3.49,3.18,6.76,6.63,9.8,10.24,4.25,5.04,4.53,10.63,1.26,16.34-1.01,1.77-2.22,3.43-3.3,5.16-1.05,1.69-2.49,2.02-4.42,1.82-3.57-.38-7.16-.49-10.75-.66-.67-.03-1.35.2-2.15.33.5,1.91.88,3.7,1.49,5.4.13.37,1.09.69,1.63.65,6.4-.51,12.32.91,17.64,4.5,6.73,4.55,10.73,10.88,12,18.92.05.3.19.59.3.89v6.14Zm-68.02-6.15c-.51,0-1.09,0-1.67,0-3.07,0-6.14.04-9.21-.03-1.85-.04-3.17-1.48-3.18-3.21,0-1.75,1.32-3.09,3.17-3.21.59-.04,1.18-.02,1.78-.02,3.44,0,6.87,0,10.3,0,.73-2.2,1.42-4.27,2.14-6.46-2.25,0-4.4.02-6.55,0-2.13-.03-3.51-1.28-3.54-3.16-.04-1.95,1.36-3.27,3.57-3.29,2.8-.03,5.6-.07,8.4.02,1.25.04,2-.37,2.78-1.38,9.69-12.52,22.42-17.97,38.18-16.13,1.54.18,2.33-.26,2.73-1.77-1.33-.56-2.66-1.1-3.99-1.68-2.09-.91-2.9-2.55-2.17-4.34.75-1.82,2.47-2.43,4.58-1.62,1.25.48,2.48.98,3.82,1.52.25-1.74-.52-3.01-1.46-4.07-2.83-3.16-5.66-6.35-8.71-9.29-2.49-2.4-5.44-4.25-8.9-5.02-3.54-.8-6.74.01-9.75,2.23,1.12.96,2.06,1.85,3.08,2.63,1.56,1.19,2.04,2.65,1.52,4.55-.48,1.76-.91,3.55-1.22,5.34-1.16,6.78-5.04,11.21-11.45,13.57-4.18,1.54-8.41,3.03-12.44,4.92-3.48,1.63-6.66,1.67-10.35.57-15.4-4.6-30.87-8.93-46.34-13.31-1.86-.53-2.97-1.54-3.46-3.4-.41-1.56-1.07-3.05-1.44-4.61-.69-2.86-2.58-4.15-5.35-4.59-4.94-.79-9.86-1.67-14.79-2.5-2.35-.4-4.7-.76-7.37-1.19.95,1.99,1.76,3.61,2.52,5.27,2.5,5.47,6.52,9.3,11.98,11.88,8.26,3.91,16.37,8.13,24.57,12.17,6.06,2.99,10.1,7.63,12.24,14.07,2.8,8.42,5.8,16.76,8.65,25.16.39,1.15.91,1.57,2.15,1.56,8.13-.06,16.26-.03,24.39-.03.52,0,1.04-.04,1.47-.07-.23-3.75-.46-7.32-.69-11.07Zm-49.39-.19c-.52-9.55-10.74-18.07-21.06-17.75-11.52.36-20.56,9.65-20.52,21.09.03,11.35,9.17,20.65,20.54,20.88,12.75.26,20.43-10.09,21.04-17.74-1.45,0-2.89.1-4.31-.03-1.51-.13-2.19.36-2.72,1.88-2.01,5.73-7.48,9.44-13.52,9.43-6.16-.01-11.54-3.76-13.66-9.53-2.09-5.69-.44-12.03,4.16-15.99,7.81-6.72,19.79-3.45,23.26,6.33.19.53.64,1.33,1.02,1.36,1.91.14,3.84.06,5.77.06Zm87.74-17.49c.4,1.48.88,2.86,1.12,4.28.25,1.45.89,1.95,2.41,2.06,7.01.51,12.63,6.24,13.18,13.25.54,6.94-4.05,13.44-10.75,15.19-6.86,1.79-13.98-1.54-16.96-7.96-2.97-6.4-.88-14.01,4.95-18.05.48-.33.96-.65,1.44-.98-.57-2.1-1.12-4.11-1.67-6.13-8.31,3.25-15.15,13.88-11.56,25.38,3.34,10.71,14.65,16.89,25.51,13.96,10.8-2.92,17.48-13.96,15.05-24.74-2.61-11.57-13.71-17.69-22.73-16.26Zm-24.6-23.93c-6.26-3.44-11.8-7.42-18.57-8.8-1.49-.3-3.15-.39-4.62-.07-5.86,1.27-8.76,5.97-11.93,10.54.58.21.96.37,1.36.49,4.85,1.4,9.72,2.76,14.56,4.2,1.25.37,2.35.36,3.57-.2,1.75-.81,3.6-1.41,5.4-2.11,3.28-1.29,6.56-2.59,10.23-4.05Zm21.82,38.62c-2.89,1.81-3.91,5.99-2.37,9.38,1.64,3.62,5.77,5.53,9.56,4.43,3.9-1.13,6.43-5.03,5.8-8.94-.58-3.59-3.62-6.59-6.7-6.53.56,2.14,1.13,4.26,1.67,6.39.56,2.19-.26,3.9-2.08,4.4-1.94.53-3.52-.52-4.15-2.77-.59-2.11-1.15-4.22-1.73-6.36Zm-98.32,9.28c-.79,0-1.37,0-1.95,0-1.78,0-3.55.05-5.33-.05-1.91-.1-3.17-1.45-3.17-3.19,0-1.74,1.29-3.08,3.19-3.18,1.56-.09,3.12-.03,4.68-.04.82,0,1.63,0,2.57,0-1.56-3.61-5.19-5.4-8.94-4.65-3.61.71-6.37,4.14-6.36,7.91,0,3.76,2.78,7.18,6.4,7.88,3.73.73,7.42-1.12,8.89-4.68Z"/>
          <path class="cls-3" d="m488.26,169.69c-.07,1.76-1.55,3.14-3.3,3.07-1.81-.07-3.19-1.61-3.07-3.45.11-1.76,1.61-3.08,3.37-2.98,1.75.1,3.07,1.58,3,3.36Z"/>
        </g>
      </g>
    </g>
    <path class="cls-1" d="m595.59,164.33c0,59.92-48.57,108.5-108.51,108.5s-108.49-48.58-108.49-108.5,48.58-108.5,108.49-108.5,108.51,48.57,108.51,108.5Z"/>
    <path class="cls-8" d="m564.35,117.91h-11.66v-11.66c0-2.15-1.74-3.89-3.89-3.89h-46.66c-6.14.02-11.91,2.94-15.55,7.89-3.64-4.95-9.41-7.88-15.55-7.89h-46.66c-2.15,0-3.89,1.74-3.89,3.89v11.66h-11.66c-2.15,0-3.89,1.74-3.89,3.89v93.31c0,2.15,1.74,3.89,3.89,3.89h155.52c2.15,0,3.89-1.74,3.89-3.89v-93.31c0-2.15-1.74-3.89-3.89-3.89Zm-62.21-7.78h42.77v85.54h-42.77c-4.22.01-8.32,1.41-11.66,3.99v-22.19l7.23,10.11c.66.91,1.68,1.5,2.8,1.63,1.15.05,2.28-.37,3.11-1.17l14.39-14.39c.81-.82,1.2-1.96,1.09-3.11-.07-1.12-.64-2.15-1.56-2.8l-12.36-8.86,12.36-8.79c1.75-1.3,2.13-3.77.83-5.52-.48-.65-1.15-1.14-1.92-1.4l-25.97-8.63v-12.75c0-6.44,5.22-11.66,11.66-11.66Zm-16.33,31.03l21,7-10.65,7.62c-1,.72-1.58,1.88-1.56,3.11-.01,1.25.56,2.43,1.56,3.19l13.14,9.33-7.93,7.93-9.33-13.06c-1.27-1.76-3.72-2.16-5.48-.9-.35.25-.65.55-.9.9l-1.87,2.64-.47.62-5.21,7.31-14.31-43,21.15,7.08.86.23Zm-57.54-31.03h42.77c6.44,0,11.66,5.22,11.66,11.66v10.19l-23.79-7.93c-1.39-.5-2.94-.13-3.97.93-1.05,1.03-1.44,2.56-1.01,3.97l19.21,57.54c.47,1.38,1.67,2.4,3.11,2.64.23,0,.39.08.62.08,1.26-.02,2.44-.62,3.19-1.63l2.64-3.73v15.81c-3.34-2.57-7.44-3.98-11.66-3.99h-42.77v-85.54Zm-15.55,15.55h7.78v73.87c0,2.15,1.74,3.89,3.89,3.89h46.66c4.93.02,9.31,3.13,10.95,7.78h-69.27v-85.54Zm147.75,85.54h-69.27c1.64-4.64,6.02-7.76,10.95-7.78h46.66c2.15,0,3.89-1.74,3.89-3.89v-73.87h7.78v85.54Z"/>
  </g>
</svg>