<?xml version="1.0" encoding="UTF-8" standalone="no"?>
<svg
   xmlns:dc="http://purl.org/dc/elements/1.1/"
   xmlns:cc="http://creativecommons.org/ns#"
   xmlns:rdf="http://www.w3.org/1999/02/22-rdf-syntax-ns#"
   xmlns:svg="http://www.w3.org/2000/svg"
   xmlns="http://www.w3.org/2000/svg"
   xmlns:sodipodi="http://sodipodi.sourceforge.net/DTD/sodipodi-0.dtd"
   xmlns:inkscape="http://www.inkscape.org/namespaces/inkscape"
   version="1.1"
   id="svg833"
   xml:space="preserve"
   width="304.48267"
   height="304.45465"
   viewBox="0 0 304.48266 304.45466"
   sodipodi:docname="FLACSO_con_fondo.svg"
   inkscape:export-filename="/Users/photozar/Desktop/flacso_virtual.png"
   inkscape:export-xdpi="41.621964"
   inkscape:export-ydpi="41.621964"
   inkscape:version="1.0.1 (c497b03c, 2020-09-10)"><metadata
     id="metadata839"><rdf:RDF><cc:Work
         rdf:about=""><dc:format>image/svg+xml</dc:format><dc:type
           rdf:resource="http://purl.org/dc/dcmitype/StillImage" /><dc:title></dc:title></cc:Work></rdf:RDF></metadata><defs
     id="defs837"><clipPath
       clipPathUnits="userSpaceOnUse"
       id="clipPath853"><path
         d="M 0,595.28 H 841.89 V 0 H 0 Z"
         id="path851" /></clipPath></defs><sodipodi:namedview
     pagecolor="#ffffff"
     bordercolor="#666666"
     borderopacity="1"
     objecttolerance="10"
     gridtolerance="10"
     guidetolerance="10"
     inkscape:pageopacity="0"
     inkscape:pageshadow="2"
     inkscape:window-width="1280"
     inkscape:window-height="729"
     id="namedview835"
     showgrid="false"
     fit-margin-top="0"
     fit-margin-left="0"
     fit-margin-right="0"
     fit-margin-bottom="0"
     inkscape:zoom="0.59508961"
     inkscape:cx="-90.626435"
     inkscape:cy="158.93332"
     inkscape:window-x="0"
     inkscape:window-y="23"
     inkscape:window-maximized="0"
     inkscape:current-layer="g841"
     inkscape:document-rotation="0" /><g
     id="g841"
     inkscape:groupmode="layer"
     inkscape:label="FLACSO_con_fondo_Virtual"
     transform="matrix(1.3333333,0,0,-1.3333333,-267.91066,555.78665)"><path
       d="M 429.295,188.499 H 200.933 V 416.84 h 228.362 z"
       style="fill:#182e4c;fill-opacity:1;fill-rule:nonzero;stroke:none"
       id="path845" /><g
       id="g855"
       transform="translate(328.3232,291.9506)"><path
         d="M 0,0 C -0.265,-0.523 -0.42,-0.364 -0.996,-0.258 H -1.155 C -1.473,-0.315 -1.473,-0.679 -1.999,-0.47 -2.314,-0.209 -2.473,0 -2.367,0.265 c 0.103,0.261 0.156,0.37 0.368,0.318 0.315,-0.106 0.576,-0.057 0.844,0 0.159,0.052 0.318,0.106 0.417,0.159 C 0.159,1.003 0.212,0.477 0,0 m -47.884,72.55 c -0.159,-0.106 -0.265,-0.106 -0.321,-0.053 0,0 -0.053,0.053 -0.053,0.102 -0.099,0.527 -0.524,0.209 -0.424,0.633 0.109,0.367 0.325,0.473 0.477,0.367 0.162,-0.099 0.265,-0.258 0.367,-0.421 0.162,-0.258 0.268,-0.473 -0.046,-0.628 M -13.483,4.634 v 0.057 c 0.106,0.056 0.106,0.103 0.156,0.321 0,0.258 0.162,0.099 0.105,-0.11 -0.049,-0.314 -0.049,-0.946 -0.261,-1.002 -0.42,0 -0.265,0.056 -0.208,0.37 0,0.318 -0.057,0.265 0.208,0.364 m 5.006,62.12 c -0.106,0 -0.212,0.102 -0.212,0.208 0,0.159 0.106,0.265 0.212,0.265 0.155,0 0.207,-0.106 0.207,-0.265 0,-0.106 -0.052,-0.208 -0.207,-0.208 m -1.265,0.102 c -0.686,0 -0.795,0.106 -0.95,-0.212 -0.053,-0.103 -0.11,-0.209 -0.212,-0.364 -0.046,-0.159 -0.106,-0.11 -0.424,0 -0.47,0.106 -0.788,0.417 -0.788,0.629 -0.046,0.162 -0.046,0.261 -0.099,0.424 -0.745,1.575 -0.265,0.42 1.311,0.681 0.046,0.057 0.159,0.057 0.212,0.057 0.473,0.106 0.582,0.159 1,-0.318 0.106,-0.106 0.211,-0.212 0.37,-0.371 1.212,-0.42 -0.159,-0.788 -0.42,-0.526 m -3.218,-0.421 c -0.106,0 -0.311,0 -0.523,0.057 -0.265,0 -0.477,0.049 -0.477,0.205 0,0.424 0.11,0.212 0.424,0.212 h 0.053 c 0.212,0 0.212,0.053 0.318,-0.212 0.049,-0.103 0.152,-0.103 0.367,-0.103 0.261,-0.053 0.106,-0.208 -0.162,-0.159 m -2.208,1.795 c -0.474,-0.053 -0.526,0 -0.95,-0.053 -0.738,-0.106 -0.897,-0.057 -0.738,0.526 0.106,0.527 -0.944,0.261 -1.159,0.527 -0.053,0.056 -0.053,0.102 0,0.208 v 0.053 c -0.314,0.579 -0.109,0.37 -1.053,0.37 -0.212,0 -0.473,0.054 -0.632,0.259 -0.374,0.37 -0.583,0.582 -1.162,0.48 -0.523,-0.056 -0.947,0.894 -0.523,0.996 0.89,0.11 0.523,-0.311 1.311,-0.311 0.477,0 0.639,-0.109 1.006,-0.427 0.209,-0.156 0.424,-0.258 0.838,-0.258 0.106,0 0.162,0 0.215,-0.056 0.215,-0.054 0.424,-0.156 0.738,-0.315 0.159,-0.109 0.315,-0.212 0.421,-0.314 0.314,-0.318 0.579,-0.53 0.946,-0.583 0.583,-0.102 0.53,0 0.947,-0.368 0.424,-0.42 0.901,-0.635 -0.205,-0.734 m -7.485,2.79 c -0.159,-0.053 -0.261,-0.105 -0.367,-0.162 -0.106,-0.099 -0.159,-0.258 -0.371,-0.368 -0.473,-0.37 -0.678,0.163 -0.053,0.583 0.162,0.103 0.318,0.212 0.424,0.212 0.738,0.261 1.258,-0.159 0.367,-0.265 m 21.498,15.278 c -2.423,0.261 -4.85,0.42 -7.322,0.529 -0.746,0 -1.48,0.05 -2.215,0.05 h -2.791 c -1.529,0 -3.006,0 -4.532,-0.05 -1.685,-0.056 -3.32,-0.162 -5.005,-0.268 -8.432,-0.625 -16.807,-2.003 -25.185,-4.214 -0.258,-0.103 -0.577,-0.159 -0.894,-0.262 0.211,-0.371 0.526,-0.371 0.894,-0.526 0.056,-0.053 0.105,-0.053 0.162,-0.106 0.421,-0.212 0.579,-0.473 1.105,-0.579 0.683,-0.053 1.321,-0.162 1.947,0 1.318,0.318 1.37,0.476 2.373,-0.315 0.477,-0.37 0.53,-0.423 0.629,-1.006 0.11,-0.579 0.057,-0.788 0.534,-1.158 0.417,-0.368 0.788,-0.414 1.049,0.109 0.526,1.155 1.893,-0.314 1.893,-0.894 -0.049,-1.056 0.216,-0.424 0.534,-0.844 0.208,-0.159 0.155,-1.583 1.108,-1.9 0.365,-0.103 0.682,0 0.785,-0.47 0.053,-0.162 0,-0.371 -0.156,-0.58 -0.106,-0.314 -0.264,-0.636 -0.42,-0.894 -0.477,-1.112 -0.424,-2.062 0.103,-3.164 0.155,-0.265 0.317,-0.579 0.473,-0.898 0.421,-1.158 0.477,-1.366 1.264,-1.843 0.474,-0.261 1.004,-0.261 1.53,-0.318 0.42,0 0.474,-0.053 0.841,0.212 0.371,0.261 0.579,0.261 0.848,0.053 0.734,-0.47 0.572,-0.053 0.893,0.473 0.523,0.795 0.791,0.106 0.791,1.423 0,0.266 0.209,0.527 0.626,0.686 0.903,-0.053 1.006,0.42 1.9,0.317 0.371,-0.056 1.049,-0.056 0.735,-0.897 -0.52,-0.526 -0.576,-0.476 -0.629,-1.211 0,-0.632 -0.106,-0.844 -0.424,-1.261 -0.576,-0.633 -0.208,-0.424 -0.42,-1.109 -0.053,-0.318 -0.259,-0.474 -0.367,-0.791 -0.106,-0.371 0.108,-0.632 0.737,-0.526 0.421,0.105 0.788,0.105 1.159,0.052 0.473,0 0.844,-0.052 1.268,-0.052 0.629,0.052 1.265,0 1.682,-0.474 0.526,-0.583 0.427,-0.738 0.208,-1.795 -0.103,-0.264 0.11,-0.473 0.053,-0.787 -0.053,-0.474 -0.364,-1 -0.364,-1.371 0,-0.261 0.053,-0.526 0.103,-0.738 0.261,-0.364 0.427,-0.632 0.632,-0.841 0.268,-0.314 0.523,-0.582 1.003,-0.893 1.371,-0.848 1.522,0.049 2.628,0.261 0.586,0.05 1.003,0.05 1.374,-0.106 0.368,-0.155 0.686,-0.424 1.053,-0.795 0.374,-0.363 0.633,-0.523 0.844,0.216 0.05,0.314 0.208,0.579 0.424,0.629 0.367,0.056 0.208,0.106 0.367,0.476 0.05,0.053 0.05,0.106 0.106,0.159 v 0.053 0.103 c 0.156,0.738 0.996,1.162 1.738,1.215 h 0.156 c 0.424,0 0.999,0.311 1.211,0.632 0.265,0.315 1.166,0.89 0.688,-0.212 -0.158,-0.265 -0.26,-0.265 -0.214,-0.583 0,-0.102 0.056,-0.155 0.056,-0.258 0.158,-0.42 -0.159,-0.53 -0.265,-0.844 -0.05,-0.265 0.209,-0.212 0.311,-0.265 0.112,-0.102 0.112,-0.37 0.272,-0.526 0.258,-0.155 0.466,0.05 0.576,0.368 v 0.056 0.208 c -0.053,0.159 -0.11,0.315 -0.11,0.473 -0.056,0.319 -0.056,0.474 0.11,0.633 0.05,0.053 0.155,0.103 0.264,0.155 0.842,0.474 1.368,0.742 1.951,0.318 0.102,-0.049 0.155,-0.155 0.264,-0.208 0.682,-0.633 0.364,-0.689 1.315,-0.738 0.738,0 0.949,0.159 1.575,-0.209 0.428,-0.215 1.582,-0.58 1.904,0 0.314,0.633 1.208,0.633 1.42,0.103 0.208,-0.368 0.423,-0.421 0.788,-0.474 0.056,0 0.056,0 0.056,-0.053 0.364,-0.053 0.364,-0.053 0.632,-0.314 0.367,-0.424 -0.053,-0.318 0,-0.795 0.053,-0.367 0,-0.208 0.523,-0.208 0.894,0 2.006,-0.368 2.264,-1.318 0.163,-0.473 0.633,-0.208 1.004,-0.579 0.579,-0.632 0.314,-0.632 1.264,-0.791 0.212,-0.05 0.368,-0.05 0.583,0 0.788,0.215 1.105,0.215 1.522,-0.05 0.424,-0.265 0.527,-0.636 1.003,-0.53 0.792,0.159 0.95,-0.523 1.473,-0.946 0.636,-0.526 1.004,-0.474 1.004,-1.576 0,-0.742 0.056,-0.533 0.476,-1.059 0.576,-0.735 0.735,-0.845 -0.106,-1.632 -0.632,-0.527 -0.632,-0.898 0.421,-0.318 0.37,0.212 0.636,-0.103 1.264,-0.311 0.315,-0.269 0.315,-0.53 0.053,-0.794 -0.053,-0.842 -0.159,-0.736 0.527,-0.21 0.681,0.633 1.265,0.789 2.214,0.1 0.315,-0.258 0.629,-0.47 0.944,-0.732 0.844,-0.741 1.688,-1.109 2.846,-1.109 0.791,0 1.159,-0.314 1.845,-0.212 0.893,0.103 1.635,-0.314 2.165,-1.152 0.257,-0.374 0.625,-0.741 1.102,-0.956 1.053,-0.474 1.476,0.109 1.947,-1.208 0.847,-2.265 -0.842,-4.112 -2.318,-5.691 -0.579,-0.685 -0.42,-1.106 -0.788,-1.529 -0.53,-0.523 -1.423,-0.107 -1.265,-1.05 0.106,-0.374 -0.264,-0.635 -0.314,-1.056 0,-0.212 -0.053,-0.367 0,-0.526 0,-0.523 0.209,-1 -0.211,-1.371 -0.061,-0.473 -0.11,-0.946 -0.213,-1.42 -0.473,-1.003 -0.95,-1.685 -1.211,-2.267 -0.318,-0.368 -0.424,-0.527 -0.791,-0.792 -0.523,-0.367 -0.206,-0.897 -0.523,-1.26 -0.113,-0.156 -0.269,-0.212 -0.48,-0.368 -0.732,-0.477 -0.682,-0.632 -1.629,-0.632 -1.794,0 -4.267,-1.163 -5.323,-2.794 -0.42,-0.633 -0.42,-1.003 -0.476,-1.583 C 10.173,18.074 9.802,18.23 9.379,17.704 8.59,16.81 8.643,15.754 7.746,16.122 7.485,16.178 7.432,15.916 7.061,15.492 6.796,15.228 6.538,15.016 6.429,14.545 6.379,14.175 6.323,14.069 5.849,13.652 5.535,13.334 5.267,13.069 4.952,12.748 4.376,11.483 3.376,11.646 2.162,11.801 1.848,11.858 1.368,12.123 1.004,12.222 0.212,12.54 0.318,12.013 0.894,11.698 1.109,11.593 1.162,11.54 1.215,11.434 1.314,10.855 0.741,10.802 1.477,10.222 1.635,9.802 1.477,9.435 1.056,9.011 0.526,8.223 -0.265,7.905 -1.155,7.852 c -0.474,-0.053 -1.003,0 -1.527,0 C -3.741,7.905 -3.479,8.117 -3.578,7.22 -3.631,7.011 -3.688,6.852 -3.896,6.587 -3.896,5.747 -4.475,5.588 -5.055,5.796 -6.266,6.276 -5.793,6.323 -6.118,5.535 -6.217,5.27 -6.217,5.111 -6.16,4.956 c 0,-0.103 0.042,-0.421 0.155,-0.421 0.11,0 0.162,0 0.212,-0.056 0.42,0 0,0.268 0.579,0.315 0.212,0 0.212,0 0.159,-0.206 C -5.164,4.168 -5.214,4.27 -5.637,4.27 -6.055,4.27 -6.118,4.32 -6.118,3.85 -6.118,3.323 -6.425,3.429 -6.584,3.006 -6.634,2.847 -6.687,2.688 -6.743,2.476 -6.898,2.003 -7.266,2.059 -7.743,2.003 -8.057,1.847 -8.322,1.688 -8.477,1.483 -8.689,1.162 -8.689,0.798 -8.477,0.477 -8.428,0.423 -8.322,0.324 -8.213,0.265 -8.11,0.162 -8.057,0 -7.898,-0.05 c 0.473,-0.102 0.473,0.159 0.473,-0.367 0,-0.579 -0.261,-0.527 -0.735,-0.844 -0.11,-0.106 -0.215,-0.156 -0.317,-0.209 -0.262,-0.159 -0.318,-0.212 -0.477,-0.632 -0.053,-0.371 -0.269,-0.639 -0.527,-0.735 -0.897,-0.321 -0.897,-0.477 -0.682,-1.325 0.153,-0.685 -0.109,-0.579 -0.529,-0.685 -0.166,-0.053 -0.368,-0.099 -0.576,-0.261 -0.212,-0.208 -0.374,-0.473 -0.477,-0.791 -0.47,-0.421 0.103,-0.05 -1.102,-0.318 -0.48,-0.103 -0.48,0.212 -0.48,0.742 -0.05,0.261 -0.106,0.367 -0.156,0.469 -0.053,0.06 -0.106,0.106 -0.106,0.216 -0.261,0.682 0.053,0.473 -0.582,1 -0.474,0.317 0.056,0.734 -0.156,1.049 -0.318,0.533 -0.212,0.268 -0.265,0.848 -0.053,0.158 -0.112,0.317 -0.155,0.526 -0.106,0.212 -0.106,0.423 0.208,0.579 0.424,0.208 0.368,0.109 0.53,0.53 0.318,1.056 0.159,0.314 -0.421,0.784 -0.162,0.109 -0.052,0.427 0.153,0.689 0.374,0.473 0.476,0.473 0.794,0.582 0.05,0 0.106,0 0.212,0.05 0.258,0.106 0.155,0.367 0.311,0.95 -0.053,0.632 0.215,0.999 0.423,1.42 0.209,0.318 0.209,0.685 0.057,0.997 -0.318,0.635 -1.003,0 -0.897,1.009 0.106,0.838 0.261,0.788 0.474,1.417 0.105,0.318 0.056,0.633 0,1.056 -0.262,1.106 -0.163,1.056 0.366,2.053 0.163,0.374 0.375,0.685 0.53,1.052 0.106,0.368 0.106,0.633 0.209,1.056 0.37,0.265 0.37,0.424 0.37,0.95 0,0.629 0.262,0.629 0.262,1.209 0,0.582 -0.102,0.427 -0.262,0.844 -0.052,0.212 0,0.42 0.054,0.579 0.261,0.629 0.516,0.424 0.314,1.212 -0.159,0.423 0.156,0.897 0.368,1.321 0.05,0.105 0.106,0.208 0.106,0.261 0.208,0.738 0.367,1.314 0.476,2.109 0.1,0.576 0.153,1.052 0.053,1.473 -0.053,0.367 -0.053,0.632 0,0.844 0.152,0.527 0.365,0.421 0.262,0.996 -0.053,0.371 -0.11,0.897 0,1.109 0.258,0.633 -0.053,1.424 -0.053,2.265 0.053,0.738 -0.262,1.056 -0.844,1.529 -0.11,0.05 -0.212,0.159 -0.368,0.265 -0.685,0.473 -1.37,1.106 -2.105,1.423 -0.106,0.05 -0.212,0.103 -0.318,0.103 -0.742,0.212 -0.844,-0.053 -1.582,0.841 -0.212,0.268 -0.421,0.529 -0.685,0.794 -0.262,0.47 0.311,0.527 -0.054,1.106 -0.158,0.208 -0.525,0.473 -0.631,0.682 -0.683,0.95 -1.156,1.95 -1.58,2.903 -0.682,1.417 -1.317,2.678 -2.426,3.579 -0.421,0.056 -0.576,0.261 -0.421,0.685 0,0.37 -0.155,0.632 -0.261,0.844 -0.424,0.788 0.734,1.156 1.264,1.37 0.371,0.259 0.371,0.577 0,0.841 -0.158,0.053 -0.314,0.103 -0.476,0.103 -0.788,0.268 -0.467,1.268 -0.106,1.738 0.318,0.321 0.48,0.742 0.582,1.162 0.103,0.685 0.159,0.738 0.579,0.897 0.682,0.159 0.583,0.208 0.792,0.841 0,0.579 0.053,0.53 0.473,0.688 0.053,0 0.106,0.05 0.159,0.05 1.159,1.052 1,1.579 0.894,3.002 0,0.738 -0.156,0.947 -0.526,1.636 -0.209,0.364 -0.421,0.42 -0.527,0.579 -0.053,0.053 -0.053,0.103 -0.053,0.208 -0.056,0.629 0.106,0.523 -0.367,1.159 -0.424,0.315 -0.954,0.265 -1.265,-0.262 -0.056,-0.105 -0.056,-0.317 -0.159,-0.423 -0.476,-0.314 -0.37,-0.053 -0.215,-0.841 0.057,-0.162 0.057,-0.261 -0.049,-0.315 -0.629,-0.423 -0.576,0.369 -0.841,0.474 -0.421,0.159 -0.265,-0.159 -0.798,0.368 -0.202,0.211 -0.308,0.211 -0.735,0.211 h -0.523 c -0.159,0.05 -0.262,0.152 -0.424,0.474 -0.258,0.314 0.053,0.579 -0.523,0.685 -0.102,0 -0.209,0 -0.314,0.05 -0.583,0.423 -0.113,0.423 -0.742,0.268 -0.311,-0.056 -0.632,0.208 -0.685,0.681 0.159,1.106 -0.05,0.951 -1.003,1.742 -0.368,0.367 -0.523,0.731 -0.682,1.102 -0.209,0.526 -0.42,0.262 -0.894,0.262 -0.317,-0.05 -1.006,0.106 -1.423,0.424 -0.845,0.582 -1.053,0.423 -1.633,0.529 -0.737,0.103 -1.264,0.947 -1.578,1.42 -0.427,0.633 -1.109,1.003 -1.901,0.845 -0.632,-0.159 -0.741,-0.742 -1.526,-0.633 -0.473,0.103 -0.791,0.633 -1.9,0.791 -0.841,0.156 -1.317,0.58 -2.002,0.894 -0.841,0.318 -0.891,0.894 -1.579,1.053 -1.527,0.371 -0.789,0.215 -1.474,0.947 -0.155,0.109 -0.318,0.211 -0.526,0.317 -0.423,0.265 -1.056,0.844 -0.632,1.318 0.42,0.526 0.47,0.897 0.314,1.321 -0.208,0.367 -0.208,0.682 -0.159,0.947 0.054,0.37 -0.629,0.999 -0.894,1.314 -0.417,0.579 -0.84,1.109 -1.208,1.692 -1.532,0.678 0.153,0.837 -0.635,1.625 -0.421,0 -0.527,0.215 -0.579,0.479 -0.156,0.63 0.052,0.63 -0.583,1.163 -0.152,0.099 -0.315,0.261 -0.42,0.625 -0.157,0.368 -0.263,0.738 -0.368,1.159 0,0.321 -0.056,0.583 -0.056,0.897 -0.05,0.844 0.109,0.741 -0.679,1.052 -0.212,0.054 -0.318,0.11 -0.473,0.11 -0.054,-0.056 -0.109,-0.056 -0.163,-0.056 -0.159,-0.103 -0.211,-0.365 -0.211,-0.636 0.052,-0.679 -0.057,-0.837 0.159,-1.314 0.161,-0.159 0.261,-0.474 0.37,-0.629 0.42,-0.53 0.474,-0.474 0.474,-1.109 0,-0.579 -0.054,-0.632 0.261,-1.159 0.848,-1.102 0.583,-1.264 0.848,-2.158 -0.057,-0.529 0,-0.788 -0.265,-0.847 -0.371,-0.1 -0.633,0.059 -0.947,0.215 -0.318,0.314 -0.11,0.526 0.103,0.841 0.42,0.685 -0.53,1.264 -0.951,1.582 -0.628,0.579 -1.002,0.844 -0.367,1.526 0.474,0.473 0.159,0.844 -0.103,1.264 -0.688,0.633 -0.791,0.686 -0.738,1.159 0.05,0.526 0.05,0.689 -0.053,0.847 -4.267,-1.264 -8.541,-2.691 -12.801,-4.376 V 3.323 c 5.475,-2.108 10.897,-3.903 16.38,-5.376 8.378,-2.211 16.753,-3.634 25.185,-4.214 1.685,-0.105 3.32,-0.208 5.005,-0.265 1.526,-0.056 3.003,-0.056 4.532,-0.056 h 1.321 c 0.261,0.056 0.52,0.113 0.788,0.166 1.102,-0.166 0.208,0.787 0.682,1.106 0.05,0 0.155,0.049 0.264,0.049 0.471,0.106 0.418,0.053 0.633,-0.314 0.258,-0.477 0.473,-0.686 0.841,-0.951 h 0.477 c 2.472,0.11 4.899,0.265 7.322,0.527 12.96,1.215 25.92,4.323 38.668,9.328 v 73.649 c -12.748,5.006 -25.708,8.114 -38.668,9.326"
         style="fill:#ffffff;fill-opacity:1;fill-rule:nonzero;stroke:none"
         id="path857" /></g><g
       id="g859"
       transform="translate(275.8276,265.7553)"><path
         d="m 0,0 v -3.419 h -7.61 v -4.542 h 6.958 v -3.39 H -7.61 v -7.223 h -4.479 V 0 Z"
         style="fill:#ffffff;fill-opacity:1;fill-rule:nonzero;stroke:none"
         id="path861" /></g><g
       id="g863"
       transform="translate(279.6875,265.7553)"><path
         d="m 0,0 h 4.482 v -15.095 h 6.465 v -3.479 H 0 Z"
         style="fill:#ffffff;fill-opacity:1;fill-rule:nonzero;stroke:none"
         id="path865" /></g><g
       id="g867"
       transform="translate(299.7749,254.4043)"><path
         d="M 0,0 H 4.25 L 3.542,2.238 C 3.307,2.966 3.065,3.744 2.817,4.568 2.572,5.396 2.363,6.154 2.181,6.839 H 2.122 C 1.927,6.154 1.701,5.406 1.45,4.598 1.191,3.794 0.947,3.009 0.711,2.238 Z M -0.175,11.351 H 4.601 L 11.295,-7.223 H 6.548 L 5.28,-3.244 h -6.25 l -1.268,-3.979 h -4.687 z"
         style="fill:#ffffff;fill-opacity:1;fill-rule:nonzero;stroke:none"
         id="path869" /></g><g
       id="g871"
       transform="translate(322.2817,250.2763)"><path
         d="m 0,0 c 0.884,0 1.632,0.08 2.241,0.235 0.61,0.159 1.119,0.368 1.53,0.619 L 4.658,-2.36 C 4.264,-2.592 3.629,-2.831 2.754,-3.069 1.88,-3.304 0.808,-3.419 -0.473,-3.419 c -1.453,0 -2.791,0.225 -4.009,0.678 -1.218,0.454 -2.261,1.095 -3.125,1.93 -0.864,0.837 -1.539,1.847 -2.019,3.039 -0.484,1.188 -0.722,2.519 -0.722,3.992 0,1.437 0.231,2.748 0.692,3.936 0.46,1.188 1.119,2.202 1.976,3.039 0.854,0.834 1.897,1.483 3.125,1.947 1.228,0.46 2.609,0.691 4.142,0.691 1.297,0 2.353,-0.122 3.167,-0.367 0.815,-0.248 1.464,-0.5 1.934,-0.755 l -1.007,-3.27 c -0.447,0.255 -0.983,0.48 -1.605,0.678 -0.616,0.195 -1.304,0.295 -2.046,0.295 -0.784,0 -1.523,-0.113 -2.211,-0.341 -0.692,-0.222 -1.288,-0.583 -1.801,-1.076 -0.51,-0.49 -0.91,-1.125 -1.208,-1.9 C -5.485,8.322 -5.631,7.372 -5.631,6.25 -5.631,5.21 -5.488,4.293 -5.204,3.512 -4.919,2.721 -4.521,2.069 -4.009,1.546 -3.499,1.03 -2.903,0.639 -2.225,0.384 -1.546,0.126 -0.81,0 0,0"
         style="fill:#ffffff;fill-opacity:1;fill-rule:nonzero;stroke:none"
         id="path873" /></g><g
       id="g875"
       transform="translate(337.1421,266.1098)"><path
         d="M 0,0 C 1.298,0 2.413,-0.132 3.36,-0.397 4.3,-0.662 5.121,-0.983 5.81,-1.357 L 4.807,-4.628 c -0.768,0.391 -1.54,0.702 -2.314,0.927 -0.778,0.225 -1.523,0.338 -2.228,0.338 -0.907,0 -1.592,-0.166 -2.062,-0.5 -0.474,-0.331 -0.709,-0.775 -0.709,-1.327 0,-0.629 0.225,-1.087 0.678,-1.368 0.451,-0.284 1.149,-0.589 2.093,-0.903 l 1.741,-0.56 c 0.689,-0.235 1.327,-0.526 1.917,-0.871 0.589,-0.344 1.095,-0.741 1.516,-1.191 0.42,-0.454 0.751,-0.964 0.983,-1.533 0.242,-0.57 0.361,-1.192 0.361,-1.857 0,-0.784 -0.149,-1.529 -0.444,-2.228 -0.294,-0.695 -0.741,-1.311 -1.344,-1.844 -0.596,-0.53 -1.353,-0.95 -2.27,-1.254 -0.911,-0.305 -1.987,-0.454 -3.225,-0.454 -1.162,0 -2.268,0.123 -3.32,0.367 -1.049,0.249 -2.019,0.596 -2.903,1.047 l 1.003,3.274 c 0.841,-0.415 1.671,-0.739 2.476,-0.971 0.808,-0.238 1.652,-0.357 2.536,-0.357 1.043,0 1.794,0.172 2.257,0.516 0.46,0.345 0.689,0.812 0.689,1.401 0,0.195 -0.036,0.393 -0.116,0.589 -0.079,0.198 -0.232,0.397 -0.457,0.589 -0.225,0.199 -0.54,0.387 -0.947,0.576 -0.4,0.189 -0.913,0.377 -1.546,0.576 l -1.443,0.5 c -0.688,0.255 -1.324,0.54 -1.916,0.857 -0.59,0.315 -1.096,0.685 -1.517,1.12 -0.424,0.43 -0.758,0.933 -0.99,1.502 -0.235,0.57 -0.353,1.248 -0.353,2.036 0,0.804 0.151,1.552 0.456,2.241 0.301,0.688 0.758,1.281 1.358,1.781 0.598,0.503 1.337,0.897 2.211,1.182 C -2.148,-0.146 -1.139,0 0,0"
         style="fill:#ffffff;fill-opacity:1;fill-rule:nonzero;stroke:none"
         id="path877" /></g><g
       id="g879"
       transform="translate(352.062,256.437)"><path
         d="m 0,0 c 0,-1.04 0.119,-1.953 0.367,-2.741 0.245,-0.784 0.586,-1.434 1.02,-1.947 0.427,-0.509 0.926,-0.897 1.489,-1.148 0.56,-0.255 1.163,-0.384 1.811,-0.384 0.629,0 1.222,0.129 1.785,0.384 0.559,0.251 1.043,0.639 1.459,1.148 0.414,0.513 0.739,1.163 0.974,1.947 C 9.14,-1.953 9.259,-1.04 9.259,0 9.259,1.082 9.136,2.019 8.888,2.817 8.643,3.615 8.306,4.267 7.872,4.777 7.438,5.289 6.942,5.674 6.382,5.925 5.819,6.184 5.217,6.309 4.568,6.309 3.942,6.309 3.347,6.177 2.787,5.912 2.228,5.647 1.738,5.25 1.327,4.72 0.914,4.187 0.589,3.529 0.354,2.744 0.116,1.956 0,1.043 0,0 m 4.687,9.673 c 1.334,0 2.576,-0.222 3.714,-0.662 1.142,-0.444 2.126,-1.076 2.95,-1.904 0.828,-0.824 1.47,-1.837 1.93,-3.036 C 13.745,2.87 13.976,1.516 13.976,0 c 0,-1.473 -0.245,-2.801 -0.725,-3.979 -0.48,-1.178 -1.138,-2.185 -1.973,-3.023 C 10.441,-7.839 9.451,-8.478 8.299,-8.918 7.15,-9.358 5.906,-9.58 4.568,-9.58 c -1.334,0 -2.575,0.218 -3.714,0.648 -1.139,0.431 -2.122,1.056 -2.95,1.874 -0.824,0.811 -1.469,1.818 -1.929,3.006 -0.464,1.189 -0.692,2.539 -0.692,4.052 0,1.476 0.231,2.807 0.705,3.996 0.473,1.188 1.132,2.204 1.976,3.051 0.847,0.848 1.841,1.493 2.992,1.947 1.153,0.454 2.394,0.679 3.731,0.679"
         style="fill:#ffffff;fill-opacity:1;fill-rule:nonzero;stroke:none"
         id="path881" /></g><g
       id="g883"
       transform="translate(266.2207,230.4306)"
       style="fill:#ffffff;stroke:#ffffff"><path
         d="M 0,0 H 3.658 L 2.857,2.162 C 2.708,2.539 2.553,2.963 2.391,3.436 2.231,3.913 2.06,4.433 1.877,5.003 H 1.847 C 1.761,4.724 1.675,4.459 1.593,4.214 1.506,3.969 1.424,3.734 1.341,3.509 1.262,3.284 1.182,3.063 1.102,2.844 1.023,2.626 0.931,2.397 0.838,2.162 Z M 1.351,6.283 H 2.423 L 6.33,-3.813 H 5.115 L 4.009,-0.93 h -4.326 l -1.106,-2.883 h -1.202 z"
         style="fill:#ffffff;fill-opacity:1;fill-rule:nonzero;stroke:#ffffff"
         id="path885" /></g><g
       id="g887"
       transform="translate(278.3071,231.6655)"
       style="fill:#ffffff;stroke:#ffffff"><path
         d="m 0,0 h 1.539 c 0.351,0 0.679,0.04 0.983,0.116 0.302,0.083 0.57,0.209 0.795,0.381 0.218,0.168 0.4,0.387 0.526,0.649 0.129,0.261 0.192,0.572 0.192,0.936 0,0.706 -0.198,1.219 -0.599,1.546 -0.4,0.325 -0.99,0.49 -1.771,0.49 H 0 Z M -1.073,5.048 H 2.036 C 2.559,5.048 3.019,4.976 3.419,4.833 3.82,4.687 4.151,4.486 4.423,4.228 4.69,3.973 4.893,3.668 5.029,3.307 5.17,2.949 5.24,2.559 5.24,2.129 5.24,1.745 5.181,1.397 5.058,1.079 4.946,0.765 4.787,0.49 4.591,0.258 4.393,0.02 4.165,-0.175 3.91,-0.337 3.655,-0.497 3.386,-0.626 3.108,-0.722 L 5.846,-5.048 H 4.535 L 2.036,-0.93 H 0 v -4.118 h -1.073 z"
         style="fill:#ffffff;fill-opacity:1;fill-rule:nonzero;stroke:#ffffff"
         id="path889" /></g><g
       id="g891"
       transform="translate(293.2402,236.727)"
       style="fill:#ffffff;stroke:#ffffff"><path
         d="M 0,0 C 0.579,0 1.089,-0.043 1.539,-0.129 1.989,-0.212 2.413,-0.361 2.82,-0.576 L 2.529,-1.47 c -0.371,0.176 -0.752,0.308 -1.142,0.404 -0.39,0.093 -0.794,0.139 -1.212,0.139 -0.513,0 -0.999,-0.073 -1.463,-0.219 -0.466,-0.145 -0.877,-0.383 -1.225,-0.711 -0.357,-0.325 -0.642,-0.751 -0.851,-1.281 -0.215,-0.53 -0.324,-1.176 -0.324,-1.933 0,-0.653 0.093,-1.238 0.275,-1.752 0.182,-0.512 0.44,-0.943 0.778,-1.291 0.334,-0.347 0.735,-0.612 1.195,-0.794 0.457,-0.182 0.97,-0.272 1.536,-0.272 0.407,0 0.761,0.027 1.069,0.076 0.301,0.06 0.56,0.126 0.772,0.212 v 3.205 H -0.096 V -4.79 H 3.045 V -9.58 C 2.651,-9.742 2.221,-9.872 1.758,-9.974 c -0.47,-0.103 -1.036,-0.152 -1.708,-0.152 -0.686,0 -1.324,0.109 -1.924,0.327 -0.599,0.222 -1.122,0.544 -1.569,0.973 -0.45,0.428 -0.808,0.954 -1.066,1.579 -0.262,0.63 -0.394,1.351 -0.394,2.176 0,0.824 0.123,1.555 0.368,2.191 0.245,0.639 0.589,1.169 1.026,1.589 0.44,0.424 0.953,0.745 1.556,0.963 C -1.357,-0.109 -0.705,0 0,0"
         style="fill:#ffffff;fill-opacity:1;fill-rule:nonzero;stroke:#ffffff"
         id="path893" /></g><g
       id="g895"
       transform="translate(301.7017,236.7138)"
       style="fill:#ffffff;stroke:#ffffff"><path
         d="M 0,0 H 5.928 V -0.947 H 1.155 V -4.406 H 5.512 V -5.353 H 1.155 V -9.15 h 4.823 v -0.946 H 0 Z"
         style="fill:#ffffff;fill-opacity:1;fill-rule:nonzero;stroke:#ffffff"
         id="path897" /></g><g
       id="g899"
       transform="translate(312.8208,236.7138)"
       style="fill:#ffffff;stroke:#ffffff"><path
         d="m 0,0 h 1.043 l 4.502,-6.521 c 0.202,-0.302 0.404,-0.6 0.599,-0.901 0.202,-0.298 0.391,-0.596 0.573,-0.897 h 0.03 C 6.727,-7.921 6.713,-7.531 6.707,-7.14 6.7,-6.75 6.7,-6.356 6.7,-5.965 V 0 H 7.823 V -10.096 H 6.779 L 2.374,-3.767 C 2.148,-3.446 1.927,-3.105 1.705,-2.734 1.49,-2.364 1.278,-2 1.093,-1.635 H 1.06 c 0.019,-0.48 0.036,-0.954 0.049,-1.421 0.007,-0.463 0.014,-0.936 0.014,-1.413 v -5.627 H 0 Z"
         style="fill:#ffffff;fill-opacity:1;fill-rule:nonzero;stroke:#ffffff"
         id="path901" /></g><g
       id="g903"
       transform="translate(332.9941,236.7138)"
       style="fill:#ffffff;stroke:#ffffff"><path
         d="m 0,0 v -0.963 h -3.313 v -9.133 h -1.156 v 9.133 H -7.723 V 0 Z"
         style="fill:#ffffff;fill-opacity:1;fill-rule:nonzero;stroke:#ffffff"
         id="path905" /></g><path
       d="m 338.781,226.618 h -1.155 v 10.096 h 1.155 z"
       style="fill:#ffffff;fill-opacity:1;fill-rule:nonzero;stroke:#ffffff"
       id="path907" /><g
       id="g909"
       transform="translate(344.5342,236.7138)"
       style="fill:#ffffff;stroke:#ffffff"><path
         d="M 0,0 H 1.039 L 5.542,-6.521 C 5.747,-6.823 5.945,-7.121 6.144,-7.422 6.339,-7.72 6.531,-8.018 6.71,-8.319 H 6.74 C 6.723,-7.921 6.71,-7.531 6.704,-7.14 6.7,-6.75 6.697,-6.356 6.697,-5.965 V 0 H 7.819 V -10.096 H 6.773 L 2.37,-3.767 C 2.145,-3.446 1.923,-3.105 1.705,-2.734 1.483,-2.364 1.281,-2 1.089,-1.635 H 1.056 c 0.02,-0.48 0.036,-0.954 0.049,-1.421 0.011,-0.463 0.014,-0.936 0.014,-1.413 v -5.627 H 0 Z"
         style="fill:#ffffff;fill-opacity:1;fill-rule:nonzero;stroke:#ffffff"
         id="path911" /></g><g
       id="g913"
       transform="translate(359.6426,230.4306)"
       style="fill:#ffffff;stroke:#ffffff"><path
         d="M 0,0 H 3.655 L 2.85,2.162 C 2.705,2.539 2.549,2.963 2.387,3.436 2.228,3.913 2.056,4.433 1.874,5.003 H 1.841 C 1.758,4.724 1.672,4.459 1.586,4.214 1.503,3.969 1.417,3.734 1.341,3.509 1.258,3.284 1.178,3.063 1.096,2.844 1.013,2.626 0.93,2.397 0.835,2.162 Z M 1.348,6.283 H 2.42 L 6.33,-3.813 H 5.108 L 4.005,-0.93 h -4.323 l -1.109,-2.883 h -1.201 z"
         style="fill:#ffffff;fill-opacity:1;fill-rule:nonzero;stroke:#ffffff"
         id="path915" /></g></g></svg>
