<?xml version="1.0" encoding="UTF-8" standalone="no"?>
<svg
   xmlns:dc="http://purl.org/dc/elements/1.1/"
   xmlns:cc="http://creativecommons.org/ns#"
   xmlns:rdf="http://www.w3.org/1999/02/22-rdf-syntax-ns#"
   xmlns:svg="http://www.w3.org/2000/svg"
   xmlns="http://www.w3.org/2000/svg"
   xmlns:sodipodi="http://sodipodi.sourceforge.net/DTD/sodipodi-0.dtd"
   xmlns:inkscape="http://www.inkscape.org/namespaces/inkscape"
   version="1.1"
   id="svg4727"
   xml:space="preserve"
   width="887.06952"
   height="255.95145"
   viewBox="0 0 887.06952 255.95144"
   sodipodi:docname="FLACSO_FOOTER.svg"
   inkscape:version="1.0.1 (c497b03c, 2020-09-10)"><metadata
     id="metadata4733"><rdf:RDF><cc:Work
         rdf:about=""><dc:format>image/svg+xml</dc:format><dc:type
           rdf:resource="http://purl.org/dc/dcmitype/StillImage" /><dc:title></dc:title></cc:Work></rdf:RDF></metadata><defs
     id="defs4731"><clipPath
       clipPathUnits="userSpaceOnUse"
       id="clipPath4787"><path
         d="M 0,1324.74 H 1805.832 V 0 H 0 Z"
         id="path4785" /></clipPath><clipPath
       clipPathUnits="userSpaceOnUse"
       id="clipPath4877"><path
         d="M 0,1324.74 H 1805.832 V 0 H 0 Z"
         id="path4875" /></clipPath><clipPath
       clipPathUnits="userSpaceOnUse"
       id="clipPath4957"><path
         d="M 0,1324.74 H 1805.832 V 0 H 0 Z"
         id="path4955" /></clipPath><clipPath
       clipPathUnits="userSpaceOnUse"
       id="clipPath4987"><path
         d="M 0,1324.74 H 1805.832 V 0 H 0 Z"
         id="path4985" /></clipPath><clipPath
       clipPathUnits="userSpaceOnUse"
       id="clipPath5479"><path
         d="M 0,1324.74 H 1805.832 V 0 H 0 Z"
         id="path5477" /></clipPath></defs><sodipodi:namedview
     pagecolor="#ffffff"
     bordercolor="#666666"
     borderopacity="1"
     objecttolerance="10"
     gridtolerance="10"
     guidetolerance="10"
     inkscape:pageopacity="0"
     inkscape:pageshadow="2"
     inkscape:window-width="1280"
     inkscape:window-height="729"
     id="namedview4729"
     showgrid="false"
     fit-margin-top="0"
     fit-margin-left="0"
     fit-margin-right="0"
     fit-margin-bottom="0"
     inkscape:zoom="1.2885548"
     inkscape:cx="339.28056"
     inkscape:cy="122.21216"
     inkscape:window-x="0"
     inkscape:window-y="23"
     inkscape:window-maximized="0"
     inkscape:current-layer="g4735" /><g
     id="g4735"
     inkscape:groupmode="layer"
     inkscape:label="FLACSO_carpeta_31x46cm"
     transform="matrix(1.3333333,0,0,-1.3333333,-315.92933,1486.32)"><path
       d="M 902.24916,922.77641 H 236.947 V 1114.74 h 665.30216 z"
       style="fill:#182e4c;fill-opacity:1;fill-rule:nonzero;stroke:none;stroke-width:0.325303"
       id="path4737" /><text
       transform="scale(1,-1)"
       style="font-variant:normal;font-weight:normal;font-stretch:condensed;font-size:10.6581px;font-family:'Roboto Condensed';-inkscape-font-specification:RobotoCondensed-Regular;writing-mode:lr-tb;fill:#ffffff;fill-opacity:1;fill-rule:nonzero;stroke:none"
       id="text4869"
       x="525.57129"
       y="-1038.3317"><tspan
         x="525.57129 530.62433 535.77216 540.69623 545.84406 553.85895 558.96417 564.12274 566.56342 571.82849 577.09363 582.34808 587.60248 590.04321 593.38983 599.43298 604.69812 609.9632 615.22833 620.49341 626.63245 632.77155 639.3689"
         y="-1038.3317"
         sodipodi:role="line"
         id="tspan4861">Tucumán 1966 (C1050AAN)</tspan><tspan
         x="525.57129 531.61444 534.05518 539.203 544.48944 549.59467 554.8811 557.32178 563.4054 568.55328 571.59723 576.94763 582.10614 587.45648 595.47137 600.5766 603.01733 608.30371 613.29175 615.73242 621.54108 626.68896 631.67694 636.83545 642.18585 647.04059 649.48132 655.62036 658.0611 661.20416 666.19214 671.05225 673.14124 675.58191 681.72101 684.86407 690.11853 695.10651 700.26501 703.40918 705.84985 711.00836 716.11359"
         y="-1026.9701"
         sodipodi:role="line"
         id="tspan4863">Ciudad Autónoma de Buenos Aires, Argentina.</tspan><tspan
         x="525.57129 530.86835 533.30908 538.57416 543.83929 546.27997 551.5451 556.81018 559.25092 564.51599 569.78107 575.0462 580.31128 582.75201 588.01709 593.28223 598.5473"
         y="-1015.6085"
         sodipodi:role="line"
         id="tspan4865">+ 54 11 5238 9300</tspan><tspan
         x="525.57129 532.49908 539.42682 545.70764 548.51074 551.87866 554.3194 559.42462 564.34869 569.20343 574.55377 577.35687 582.70721 585.85034 591.10474 593.90784 599.01306"
         y="-1004.247"
         sodipodi:role="line"
         id="tspan4867">www.flacso.org.ar </tspan><tspan
         sodipodi:role="line"
         id="tspan6088"
         x="525.57129"
         y="-990.84778">© FLACSO - 2021</tspan><tspan
         x="525.57129 532.49908 539.42682 545.70764 548.51074 551.87866 554.3194 559.42462 564.34869 569.20343 574.55377 577.35687 582.70721 585.85034 591.10474 593.90784 599.01306"
         y="-1004.247"
         sodipodi:role="line"
         id="tspan6084" /></text><g
       id="g4879"
       transform="translate(320.9827,1013.8401)"><path
         d="m 0,0 c -0.144,-0.286 -0.229,-0.199 -0.545,-0.141 h -0.087 c -0.174,-0.032 -0.174,-0.231 -0.462,-0.117 -0.172,0.143 -0.259,0.258 -0.2,0.402 0.055,0.143 0.084,0.204 0.2,0.174 0.171,-0.058 0.316,-0.031 0.462,0 0.087,0.03 0.174,0.058 0.229,0.086 C 0.087,0.549 0.116,0.26 0,0 m -26.189,39.68 c -0.087,-0.059 -0.145,-0.059 -0.177,-0.03 0,0 -0.029,0.03 -0.029,0.056 -0.052,0.288 -0.285,0.114 -0.231,0.346 0.06,0.202 0.179,0.26 0.26,0.202 0.09,-0.055 0.145,-0.142 0.202,-0.232 0.089,-0.141 0.146,-0.258 -0.025,-0.342 M -7.374,2.534 v 0.031 c 0.059,0.031 0.059,0.056 0.085,0.175 0,0.143 0.089,0.055 0.057,-0.059 -0.025,-0.171 -0.025,-0.517 -0.142,-0.549 -0.23,0 -0.145,0.032 -0.114,0.203 0,0.175 -0.031,0.145 0.114,0.199 m 2.736,33.976 c -0.057,0 -0.115,0.054 -0.115,0.113 0,0.087 0.058,0.145 0.115,0.145 0.086,0 0.116,-0.058 0.116,-0.145 0,-0.059 -0.03,-0.113 -0.116,-0.113 m -0.691,0.054 c -0.374,0 -0.434,0.059 -0.52,-0.115 -0.029,-0.055 -0.058,-0.113 -0.116,-0.199 -0.023,-0.088 -0.057,-0.06 -0.23,0 -0.257,0.058 -0.432,0.229 -0.432,0.344 -0.024,0.088 -0.024,0.144 -0.054,0.232 -0.408,0.862 -0.144,0.23 0.716,0.373 0.026,0.031 0.087,0.031 0.116,0.031 0.259,0.057 0.32,0.086 0.548,-0.174 0.057,-0.058 0.114,-0.117 0.202,-0.203 0.663,-0.23 -0.088,-0.431 -0.23,-0.289 m -1.76,-0.228 c -0.058,0 -0.168,0 -0.285,0.029 -0.145,0 -0.261,0.029 -0.261,0.114 0,0.231 0.06,0.115 0.233,0.115 h 0.028 c 0.117,0 0.117,0.029 0.174,-0.115 0.027,-0.057 0.082,-0.057 0.201,-0.057 0.142,-0.028 0.059,-0.114 -0.09,-0.086 m -1.207,0.98 c -0.26,-0.029 -0.287,0 -0.519,-0.029 -0.405,-0.057 -0.491,-0.031 -0.405,0.288 0.059,0.288 -0.515,0.143 -0.634,0.288 -0.029,0.031 -0.029,0.057 0,0.116 v 0.028 c -0.171,0.316 -0.058,0.202 -0.575,0.202 -0.116,0 -0.259,0.029 -0.345,0.141 -0.205,0.203 -0.32,0.319 -0.636,0.262 -0.285,-0.03 -0.518,0.49 -0.285,0.545 0.485,0.061 0.285,-0.171 0.716,-0.171 0.259,0 0.349,-0.058 0.55,-0.232 0.114,-0.085 0.233,-0.142 0.459,-0.142 0.058,0 0.087,0 0.116,-0.03 0.119,-0.029 0.232,-0.086 0.404,-0.172 0.087,-0.06 0.173,-0.115 0.23,-0.172 0.174,-0.174 0.318,-0.289 0.52,-0.318 0.317,-0.057 0.288,0 0.516,-0.202 0.233,-0.23 0.494,-0.347 -0.112,-0.402 m -4.094,1.528 c -0.087,-0.03 -0.142,-0.059 -0.2,-0.09 -0.057,-0.055 -0.087,-0.142 -0.203,-0.201 -0.259,-0.203 -0.372,0.089 -0.029,0.319 0.089,0.056 0.175,0.114 0.232,0.114 0.403,0.145 0.688,-0.085 0.2,-0.142 m 11.758,8.354 c -1.324,0.144 -2.652,0.23 -4.006,0.29 -0.406,0 -0.808,0.027 -1.211,0.027 h -1.525 c -0.836,0 -1.644,0 -2.48,-0.027 -0.92,-0.031 -1.815,-0.088 -2.736,-0.146 -4.612,-0.343 -9.192,-1.096 -13.776,-2.306 -0.14,-0.056 -0.314,-0.086 -0.488,-0.142 0.117,-0.204 0.288,-0.204 0.488,-0.289 0.032,-0.029 0.058,-0.029 0.09,-0.057 0.23,-0.116 0.316,-0.259 0.604,-0.318 0.374,-0.028 0.724,-0.088 1.064,0 0.722,0.175 0.751,0.261 1.298,-0.171 0.262,-0.203 0.291,-0.231 0.345,-0.551 0.06,-0.317 0.032,-0.43 0.292,-0.633 0.229,-0.201 0.432,-0.227 0.574,0.059 0.287,0.632 1.035,-0.171 1.035,-0.488 -0.027,-0.578 0.118,-0.232 0.292,-0.462 0.114,-0.087 0.085,-0.865 0.607,-1.039 0.197,-0.056 0.372,0 0.429,-0.257 0.029,-0.088 0,-0.204 -0.086,-0.317 -0.058,-0.172 -0.146,-0.349 -0.23,-0.49 -0.262,-0.608 -0.232,-1.127 0.056,-1.731 0.085,-0.143 0.174,-0.316 0.26,-0.49 0.229,-0.634 0.259,-0.747 0.691,-1.008 0.26,-0.142 0.549,-0.142 0.836,-0.173 0.231,0 0.261,-0.03 0.461,0.115 0.203,0.144 0.316,0.144 0.463,0.029 0.402,-0.258 0.312,-0.029 0.489,0.258 0.285,0.435 0.433,0.058 0.433,0.779 0,0.145 0.114,0.289 0.341,0.375 0.496,-0.028 0.55,0.231 1.039,0.174 0.203,-0.031 0.575,-0.031 0.404,-0.491 -0.285,-0.288 -0.317,-0.26 -0.346,-0.662 0,-0.346 -0.058,-0.462 -0.23,-0.691 -0.317,-0.345 -0.116,-0.232 -0.232,-0.606 -0.029,-0.173 -0.139,-0.259 -0.2,-0.433 -0.059,-0.202 0.061,-0.346 0.403,-0.287 0.23,0.058 0.432,0.058 0.634,0.028 0.26,0 0.461,-0.028 0.693,-0.028 0.345,0.028 0.692,0 0.921,-0.26 0.289,-0.318 0.233,-0.403 0.114,-0.98 -0.056,-0.146 0.06,-0.26 0.029,-0.431 -0.029,-0.26 -0.199,-0.548 -0.199,-0.749 0,-0.144 0.029,-0.289 0.056,-0.405 0.143,-0.199 0.233,-0.346 0.346,-0.459 0.147,-0.173 0.285,-0.319 0.549,-0.489 0.749,-0.463 0.831,0.027 1.437,0.143 0.32,0.027 0.548,0.027 0.75,-0.057 0.203,-0.086 0.376,-0.233 0.577,-0.436 0.204,-0.199 0.345,-0.287 0.462,0.119 0.027,0.171 0.115,0.317 0.232,0.342 0.2,0.032 0.113,0.059 0.2,0.262 0.029,0.029 0.029,0.058 0.058,0.087 v 0.029 0.056 c 0.086,0.403 0.545,0.635 0.951,0.664 h 0.085 c 0.232,0 0.546,0.171 0.662,0.345 0.145,0.174 0.639,0.488 0.378,-0.115 -0.088,-0.144 -0.145,-0.144 -0.119,-0.318 0,-0.057 0.031,-0.086 0.031,-0.141 0.088,-0.231 -0.087,-0.291 -0.145,-0.463 -0.026,-0.144 0.114,-0.115 0.17,-0.144 0.063,-0.057 0.063,-0.203 0.15,-0.287 0.14,-0.086 0.255,0.025 0.313,0.2 v 0.03 0.115 c -0.029,0.086 -0.058,0.171 -0.058,0.258 -0.032,0.174 -0.032,0.259 0.058,0.346 0.028,0.029 0.086,0.056 0.146,0.086 0.459,0.259 0.748,0.405 1.065,0.174 0.057,-0.028 0.086,-0.086 0.146,-0.115 0.373,-0.345 0.2,-0.376 0.719,-0.403 0.403,0 0.52,0.086 0.862,-0.115 0.234,-0.117 0.865,-0.317 1.041,0 0.172,0.346 0.66,0.346 0.776,0.056 0.114,-0.201 0.233,-0.229 0.432,-0.258 0.03,0 0.03,0 0.03,-0.029 0.199,-0.029 0.199,-0.029 0.346,-0.174 0.2,-0.23 -0.029,-0.171 0,-0.433 0.029,-0.201 0,-0.113 0.286,-0.113 0.489,0 1.098,-0.203 1.239,-0.722 0.088,-0.259 0.345,-0.114 0.549,-0.318 0.316,-0.345 0.171,-0.345 0.69,-0.431 0.117,-0.027 0.202,-0.027 0.32,0 0.43,0.118 0.604,0.118 0.831,-0.027 0.232,-0.145 0.289,-0.348 0.549,-0.29 0.432,0.086 0.52,-0.287 0.807,-0.517 0.347,-0.289 0.548,-0.26 0.548,-0.863 0,-0.405 0.03,-0.291 0.26,-0.58 C 6.109,26.828 6.196,26.768 5.735,26.338 5.39,26.049 5.39,25.848 5.966,26.164 6.169,26.279 6.312,26.107 6.658,25.994 6.83,25.848 6.83,25.703 6.686,25.559 6.658,25.1 6.601,25.157 6.975,25.445 c 0.372,0.346 0.691,0.431 1.211,0.054 0.171,-0.142 0.343,-0.257 0.516,-0.399 0.46,-0.407 0.922,-0.608 1.557,-0.608 0.432,0 0.634,-0.172 1.008,-0.116 0.489,0.057 0.895,-0.171 1.184,-0.629 0.142,-0.204 0.342,-0.407 0.603,-0.524 0.576,-0.258 0.807,0.059 1.064,-0.661 0.464,-1.239 -0.46,-2.248 -1.267,-3.112 -0.317,-0.375 -0.23,-0.604 -0.43,-0.837 -0.29,-0.286 -0.779,-0.057 -0.692,-0.574 0.057,-0.204 -0.144,-0.346 -0.172,-0.577 0,-0.116 -0.03,-0.2 0,-0.288 0,-0.285 0.114,-0.546 -0.117,-0.749 C 11.407,16.166 11.382,15.906 11.324,15.648 11.065,15.1 10.806,14.727 10.662,14.408 10.489,14.207 10.432,14.12 10.229,13.975 9.943,13.774 10.117,13.484 9.943,13.285 9.883,13.201 9.797,13.169 9.681,13.084 9.281,12.823 9.308,12.738 8.79,12.738 7.809,12.738 6.456,12.104 5.879,11.21 5.649,10.864 5.649,10.662 5.618,10.344 5.563,9.885 5.36,9.97 5.129,9.682 4.698,9.193 4.727,8.616 4.236,8.816 4.094,8.848 4.064,8.705 3.861,8.473 3.716,8.328 3.576,8.213 3.516,7.955 3.489,7.752 3.458,7.693 3.199,7.466 3.027,7.293 2.88,7.148 2.708,6.973 2.395,6.281 1.847,6.369 1.184,6.453 1.011,6.484 0.748,6.629 0.549,6.685 0.116,6.857 0.174,6.57 0.489,6.398 0.606,6.34 0.636,6.311 0.665,6.254 0.719,5.936 0.405,5.908 0.808,5.591 0.895,5.36 0.808,5.16 0.577,4.928 0.289,4.498 -0.144,4.323 -0.632,4.295 c -0.259,-0.029 -0.549,0 -0.834,0 C -2.046,4.323 -1.902,4.44 -1.956,3.949 -1.985,3.834 -2.018,3.748 -2.131,3.604 -2.131,3.143 -2.447,3.055 -2.764,3.17 -3.427,3.433 -3.168,3.458 -3.346,3.026 -3.399,2.883 -3.399,2.795 -3.37,2.71 c 0,-0.056 0.024,-0.23 0.086,-0.23 0.059,0 0.089,0 0.116,-0.031 0.229,0 0,0.147 0.317,0.172 0.116,0 0.116,0 0.087,-0.111 -0.061,-0.232 -0.087,-0.175 -0.319,-0.175 -0.229,0 -0.263,0.028 -0.263,-0.23 0,-0.289 -0.168,-0.23 -0.255,-0.461 C -3.628,1.557 -3.657,1.47 -3.688,1.354 -3.773,1.096 -3.974,1.125 -4.235,1.096 -4.406,1.01 -4.552,0.924 -4.638,0.811 -4.753,0.635 -4.753,0.436 -4.638,0.26 -4.609,0.23 -4.552,0.177 -4.492,0.144 -4.436,0.088 -4.406,0 -4.321,-0.027 c 0.26,-0.056 0.26,0.087 0.26,-0.202 0,-0.316 -0.143,-0.287 -0.402,-0.46 -0.059,-0.059 -0.118,-0.086 -0.175,-0.116 -0.142,-0.086 -0.174,-0.115 -0.259,-0.345 -0.03,-0.202 -0.147,-0.35 -0.29,-0.401 -0.49,-0.176 -0.49,-0.261 -0.371,-0.724 0.082,-0.375 -0.061,-0.317 -0.291,-0.375 -0.09,-0.03 -0.2,-0.056 -0.313,-0.145 -0.116,-0.113 -0.206,-0.258 -0.262,-0.432 -0.257,-0.23 0.056,-0.027 -0.602,-0.173 -0.263,-0.057 -0.263,0.115 -0.263,0.406 -0.026,0.142 -0.058,0.199 -0.085,0.257 -0.028,0.031 -0.058,0.057 -0.058,0.117 -0.143,0.374 0.03,0.259 -0.319,0.546 -0.258,0.174 0.031,0.402 -0.084,0.574 -0.174,0.291 -0.116,0.148 -0.145,0.465 -0.029,0.086 -0.062,0.174 -0.085,0.287 -0.058,0.116 -0.058,0.232 0.114,0.316 0.231,0.116 0.2,0.06 0.289,0.291 0.174,0.577 0.087,0.171 -0.23,0.428 -0.088,0.061 -0.029,0.234 0.083,0.377 0.205,0.26 0.261,0.26 0.435,0.318 0.027,0 0.059,0 0.117,0.028 0.139,0.057 0.084,0.201 0.168,0.519 -0.029,0.346 0.119,0.547 0.232,0.778 0.114,0.173 0.114,0.374 0.032,0.545 -0.174,0.347 -0.549,0 -0.49,0.552 0.058,0.457 0.142,0.43 0.258,0.774 0.058,0.174 0.031,0.345 0,0.578 -0.143,0.604 -0.09,0.578 0.2,1.123 0.088,0.204 0.206,0.375 0.291,0.574 0.058,0.203 0.058,0.346 0.114,0.578 0.203,0.146 0.203,0.233 0.203,0.52 0,0.345 0.142,0.345 0.142,0.662 0,0.317 -0.055,0.232 -0.142,0.461 -0.029,0.116 0,0.23 0.028,0.316 0.143,0.345 0.282,0.233 0.172,0.663 -0.087,0.232 0.084,0.491 0.2,0.723 0.028,0.058 0.059,0.113 0.059,0.143 0.113,0.403 0.2,0.718 0.261,1.153 0.053,0.314 0.083,0.576 0.029,0.806 -0.029,0.2 -0.029,0.345 0,0.461 0.083,0.288 0.199,0.23 0.142,0.545 -0.029,0.204 -0.059,0.491 0,0.608 0.143,0.345 -0.029,0.777 -0.029,1.238 0.029,0.403 -0.142,0.576 -0.462,0.836 -0.058,0.027 -0.116,0.086 -0.2,0.145 -0.375,0.259 -0.749,0.605 -1.151,0.779 -0.057,0.026 -0.115,0.055 -0.174,0.055 -0.406,0.117 -0.461,-0.029 -0.865,0.46 -0.115,0.147 -0.231,0.29 -0.374,0.434 -0.144,0.258 0.169,0.288 -0.03,0.606 -0.086,0.114 -0.289,0.259 -0.345,0.373 -0.375,0.519 -0.634,1.065 -0.866,1.587 -0.372,0.775 -0.72,1.465 -1.326,1.957 -0.23,0.03 -0.315,0.144 -0.23,0.375 0,0.204 -0.085,0.345 -0.143,0.461 -0.232,0.432 0.402,0.632 0.692,0.75 0.203,0.141 0.203,0.315 0,0.46 -0.087,0.029 -0.172,0.056 -0.262,0.056 -0.43,0.148 -0.255,0.693 -0.057,0.951 0.173,0.176 0.263,0.405 0.319,0.636 0.056,0.374 0.087,0.403 0.316,0.491 0.373,0.086 0.319,0.113 0.433,0.459 0,0.317 0.029,0.289 0.258,0.377 0.029,0 0.058,0.026 0.087,0.026 0.635,0.577 0.547,0.865 0.49,1.643 0,0.403 -0.086,0.517 -0.288,0.894 -0.115,0.199 -0.231,0.23 -0.289,0.317 -0.029,0.028 -0.029,0.057 -0.029,0.114 -0.029,0.344 0.058,0.285 -0.2,0.634 -0.232,0.171 -0.521,0.146 -0.691,-0.144 -0.031,-0.056 -0.031,-0.173 -0.087,-0.23 -0.262,-0.174 -0.204,-0.029 -0.118,-0.461 0.031,-0.088 0.031,-0.142 -0.028,-0.172 -0.343,-0.232 -0.314,0.201 -0.459,0.259 -0.229,0.087 -0.145,-0.087 -0.436,0.2 -0.11,0.116 -0.168,0.116 -0.403,0.116 h -0.285 c -0.087,0.029 -0.143,0.083 -0.232,0.261 -0.141,0.171 0.029,0.317 -0.286,0.374 -0.057,0 -0.114,0 -0.172,0.027 -0.319,0.232 -0.062,0.232 -0.405,0.146 -0.172,-0.03 -0.345,0.115 -0.375,0.373 0.086,0.606 -0.029,0.52 -0.548,0.953 -0.203,0.2 -0.288,0.4 -0.375,0.603 -0.114,0.288 -0.23,0.142 -0.489,0.142 -0.174,-0.026 -0.55,0.058 -0.777,0.232 -0.462,0.32 -0.576,0.232 -0.893,0.291 -0.403,0.054 -0.691,0.517 -0.864,0.775 -0.233,0.346 -0.606,0.549 -1.039,0.462 -0.346,-0.087 -0.405,-0.405 -0.835,-0.346 -0.259,0.057 -0.434,0.346 -1.04,0.433 -0.459,0.086 -0.72,0.316 -1.095,0.49 -0.459,0.172 -0.485,0.489 -0.863,0.574 -0.835,0.204 -0.432,0.118 -0.806,0.52 -0.086,0.059 -0.173,0.115 -0.288,0.172 -0.23,0.145 -0.577,0.462 -0.345,0.723 0.23,0.287 0.257,0.49 0.171,0.72 -0.115,0.202 -0.115,0.373 -0.086,0.519 0.03,0.202 -0.345,0.546 -0.489,0.718 -0.227,0.318 -0.46,0.607 -0.661,0.925 -0.839,0.371 0.084,0.458 -0.347,0.89 -0.231,0 -0.289,0.117 -0.317,0.261 -0.085,0.344 0.028,0.344 -0.32,0.636 -0.081,0.055 -0.171,0.144 -0.229,0.343 -0.085,0.2 -0.142,0.404 -0.201,0.634 0,0.175 -0.031,0.318 -0.031,0.49 -0.027,0.461 0.06,0.405 -0.369,0.575 -0.118,0.029 -0.175,0.061 -0.261,0.061 -0.028,-0.032 -0.06,-0.032 -0.088,-0.032 -0.087,-0.055 -0.116,-0.199 -0.116,-0.347 0.029,-0.37 -0.031,-0.458 0.087,-0.719 0.089,-0.087 0.142,-0.258 0.203,-0.344 0.229,-0.289 0.259,-0.258 0.259,-0.606 0,-0.318 -0.03,-0.347 0.142,-0.635 0.464,-0.602 0.32,-0.691 0.464,-1.179 -0.031,-0.289 0,-0.431 -0.144,-0.463 -0.204,-0.055 -0.346,0.032 -0.518,0.117 -0.174,0.172 -0.061,0.287 0.056,0.46 0.229,0.374 -0.29,0.691 -0.52,0.865 -0.345,0.318 -0.549,0.462 -0.201,0.835 0.259,0.259 0.088,0.461 -0.057,0.692 -0.376,0.345 -0.432,0.375 -0.403,0.632 0.027,0.288 0.027,0.378 -0.029,0.464 -2.334,-0.691 -4.671,-1.471 -7.001,-2.393 V 1.816 c 2.994,-1.152 5.96,-2.132 8.957,-2.939 4.584,-1.209 9.164,-1.988 13.776,-2.305 0.921,-0.057 1.816,-0.115 2.736,-0.144 0.836,-0.032 1.644,-0.032 2.48,-0.032 h 0.723 c 0.143,0.032 0.283,0.061 0.43,0.09 0.602,-0.09 0.114,0.432 0.372,0.606 0.028,0 0.086,0.027 0.146,0.027 0.257,0.058 0.227,0.029 0.345,-0.172 0.143,-0.261 0.259,-0.375 0.461,-0.519 h 0.259 c 1.354,0.058 2.682,0.144 4.006,0.287 7.088,0.665 14.177,2.365 21.149,5.101 v 40.282 c -6.972,2.738 -14.061,4.438 -21.149,5.1"
         style="fill:#ffffff;fill-opacity:1;fill-rule:nonzero;stroke:none"
         id="path4881" /></g><g
       id="g4883"
       transform="translate(292.2708,999.513)"><path
         d="m 0,0 v -1.87 h -4.162 v -2.484 h 3.807 v -1.854 h -3.807 v -3.951 H -6.611 V 0 Z"
         style="fill:#ffffff;fill-opacity:1;fill-rule:nonzero;stroke:none"
         id="path4885" /></g><g
       id="g4887"
       transform="translate(294.3821,999.513)"><path
         d="m 0,0 h 2.451 v -8.257 h 3.535 v -1.902 H 0 Z"
         style="fill:#ffffff;fill-opacity:1;fill-rule:nonzero;stroke:none"
         id="path4889" /></g><g
       id="g4891"
       transform="translate(305.3684,993.305)"><path
         d="M 0,0 H 2.325 L 1.937,1.224 C 1.81,1.622 1.676,2.047 1.541,2.498 1.407,2.951 1.293,3.365 1.193,3.74 H 1.162 C 1.054,3.365 0.931,2.956 0.793,2.516 0.652,2.074 0.518,1.646 0.39,1.224 Z M -0.096,6.208 H 2.518 L 6.178,-3.951 H 3.581 l -0.694,2.176 h -3.416 l -0.695,-2.176 h -2.563 z"
         style="fill:#ffffff;fill-opacity:1;fill-rule:nonzero;stroke:none"
         id="path4893" /></g><g
       id="g4895"
       transform="translate(317.678,991.0471)"><path
         d="M 0,0 C 0.483,0 0.894,0.043 1.227,0.128 1.56,0.215 1.839,0.33 2.064,0.467 L 2.549,-1.291 C 2.332,-1.418 1.983,-1.549 1.507,-1.678 1.028,-1.808 0.443,-1.871 -0.259,-1.871 c -0.794,0 -1.525,0.125 -2.192,0.373 -0.665,0.247 -1.237,0.598 -1.709,1.055 -0.474,0.458 -0.843,1.01 -1.105,1.662 -0.263,0.649 -0.395,1.377 -0.395,2.183 0,0.785 0.127,1.502 0.38,2.153 0.251,0.65 0.611,1.203 1.08,1.662 0.468,0.456 1.037,0.81 1.709,1.064 0.673,0.252 1.428,0.379 2.265,0.379 0.709,0 1.287,-0.068 1.733,-0.201 C 1.952,8.323 2.308,8.185 2.564,8.047 L 2.013,6.258 C 1.771,6.397 1.476,6.52 1.136,6.628 0.8,6.734 0.422,6.789 0.017,6.789 -0.412,6.789 -0.815,6.729 -1.192,6.604 -1.57,6.482 -1.897,6.285 -2.177,6.015 -2.457,5.746 -2.676,5.398 -2.839,4.975 -3,4.551 -3.079,4.031 -3.079,3.418 -3.079,2.85 -3.001,2.348 -2.846,1.921 -2.69,1.488 -2.473,1.132 -2.192,0.846 -1.913,0.564 -1.587,0.35 -1.217,0.209 -0.845,0.068 -0.443,0 0,0"
         style="fill:#ffffff;fill-opacity:1;fill-rule:nonzero;stroke:none"
         id="path4897" /></g><g
       id="g4899"
       transform="translate(325.8059,999.7073)"><path
         d="m 0,0 c 0.71,0 1.32,-0.073 1.838,-0.219 0.514,-0.142 0.963,-0.32 1.34,-0.524 L 2.629,-2.532 C 2.21,-2.318 1.787,-2.148 1.363,-2.024 0.937,-1.902 0.53,-1.84 0.144,-1.84 c -0.496,0 -0.87,-0.091 -1.126,-0.274 -0.259,-0.181 -0.389,-0.423 -0.389,-0.726 0,-0.344 0.124,-0.594 0.372,-0.748 0.245,-0.155 0.628,-0.322 1.143,-0.493 l 0.954,-0.306 c 0.376,-0.13 0.725,-0.289 1.048,-0.476 0.323,-0.19 0.599,-0.406 0.829,-0.653 0.229,-0.248 0.412,-0.527 0.539,-0.838 0.13,-0.312 0.196,-0.652 0.196,-1.016 0,-0.429 -0.081,-0.837 -0.243,-1.218 -0.161,-0.38 -0.404,-0.717 -0.735,-1.009 -0.326,-0.289 -0.74,-0.518 -1.243,-0.686 -0.497,-0.166 -1.086,-0.248 -1.762,-0.248 -0.636,0 -1.241,0.067 -1.815,0.202 -0.576,0.136 -1.106,0.325 -1.589,0.571 l 0.549,1.791 c 0.459,-0.226 0.913,-0.403 1.354,-0.531 0.442,-0.129 0.903,-0.195 1.387,-0.195 0.571,0 0.982,0.095 1.235,0.282 0.251,0.188 0.377,0.444 0.377,0.767 0,0.107 -0.021,0.214 -0.064,0.322 -0.044,0.107 -0.128,0.216 -0.249,0.322 -0.125,0.109 -0.296,0.212 -0.519,0.315 -0.219,0.104 -0.5,0.206 -0.846,0.315 l -0.788,0.273 c -0.378,0.14 -0.726,0.296 -1.049,0.47 -0.322,0.172 -0.6,0.375 -0.83,0.61 -0.232,0.237 -0.414,0.513 -0.541,0.824 -0.129,0.311 -0.193,0.681 -0.193,1.113 0,0.439 0.082,0.849 0.248,1.226 0.167,0.375 0.416,0.7 0.745,0.973 0.327,0.275 0.73,0.491 1.208,0.647 C -1.176,-0.08 -0.623,0 0,0"
         style="fill:#ffffff;fill-opacity:1;fill-rule:nonzero;stroke:none"
         id="path4901" /></g><g
       id="g4903"
       transform="translate(333.9661,994.4163)"><path
         d="m 0,0 c 0,-0.568 0.065,-1.068 0.201,-1.498 0.133,-0.431 0.32,-0.785 0.559,-1.065 0.231,-0.28 0.506,-0.491 0.813,-0.629 0.306,-0.139 0.635,-0.21 0.991,-0.21 0.343,0 0.667,0.071 0.976,0.21 0.307,0.138 0.57,0.349 0.797,0.629 0.227,0.28 0.404,0.634 0.533,1.065 C 5,-1.068 5.064,-0.568 5.064,0 5.064,0.593 4.997,1.104 4.861,1.541 4.728,1.977 4.543,2.334 4.306,2.612 4.068,2.893 3.797,3.104 3.49,3.24 3.183,3.383 2.853,3.451 2.498,3.451 2.156,3.451 1.83,3.379 1.524,3.234 1.219,3.088 0.951,2.871 0.725,2.582 0.5,2.291 0.321,1.93 0.193,1.502 0.062,1.07 0,0.57 0,0 M 2.564,5.291 C 3.292,5.291 3.973,5.169 4.596,4.93 5.22,4.685 5.757,4.341 6.208,3.887 6.662,3.438 7.013,2.883 7.264,2.227 7.517,1.57 7.643,0.828 7.643,0 7.643,-0.806 7.51,-1.531 7.248,-2.177 6.984,-2.82 6.625,-3.372 6.168,-3.83 5.711,-4.287 5.168,-4.637 4.539,-4.877 3.91,-5.119 3.228,-5.24 2.498,-5.24 c -0.73,0 -1.409,0.12 -2.031,0.355 -0.623,0.237 -1.16,0.578 -1.613,1.026 -0.451,0.443 -0.804,0.994 -1.055,1.642 -0.253,0.651 -0.379,1.39 -0.379,2.217 0,0.808 0.127,1.535 0.386,2.185 0.259,0.651 0.618,1.206 1.08,1.671 0.465,0.462 1.007,0.816 1.637,1.064 0.629,0.248 1.31,0.371 2.041,0.371"
         style="fill:#ffffff;fill-opacity:1;fill-rule:nonzero;stroke:none"
         id="path4905" /></g><g
       id="g4907"
       transform="translate(287.0178,980.1936)"
       style="stroke:#ffffff;stroke-width:0.69975;stroke-miterlimit:10;stroke-dasharray:none;stroke-opacity:1"><path
         d="M 0,0 H 2 L 1.562,1.182 C 1.48,1.388 1.396,1.619 1.306,1.879 1.22,2.14 1.126,2.424 1.026,2.734 H 1.011 C 0.963,2.583 0.916,2.438 0.871,2.305 0.823,2.17 0.778,2.042 0.733,1.918 0.689,1.795 0.647,1.674 0.602,1.555 0.56,1.436 0.508,1.311 0.456,1.182 Z M 0.739,3.436 H 1.325 L 3.462,-2.086 H 2.797 L 2.192,-0.51 h -2.366 l -0.604,-1.576 h -0.658 z"
         style="fill:#ffffff;fill-opacity:1;fill-rule:nonzero;stroke:#ffffff;stroke-width:0.69975;stroke-miterlimit:10;stroke-dasharray:none;stroke-opacity:1"
         id="path4909" /></g><g
       id="g4911"
       transform="translate(293.6272,980.8675)"
       style="stroke:#ffffff;stroke-width:0.69975;stroke-miterlimit:10;stroke-dasharray:none;stroke-opacity:1"><path
         d="M 0,0 H 0.842 C 1.034,0 1.214,0.022 1.38,0.063 1.544,0.109 1.691,0.178 1.814,0.271 1.935,0.364 2.033,0.484 2.102,0.627 2.173,0.771 2.208,0.941 2.208,1.141 2.208,1.525 2.098,1.807 1.879,1.984 1.66,2.162 1.338,2.254 0.911,2.254 H 0 Z m -0.585,2.762 h 1.699 c 0.284,0 0.538,-0.04 0.757,-0.118 C 2.09,2.564 2.271,2.454 2.42,2.313 2.565,2.173 2.676,2.007 2.75,1.81 2.829,1.613 2.866,1.4 2.866,1.165 2.866,0.955 2.834,0.766 2.767,0.592 2.705,0.42 2.618,0.269 2.513,0.142 2.402,0.012 2.277,-0.095 2.139,-0.185 1.999,-0.271 1.853,-0.342 1.699,-0.395 L 3.198,-2.76 H 2.48 L 1.114,-0.508 H 0 V -2.76 h -0.585 z"
         style="fill:#ffffff;fill-opacity:1;fill-rule:nonzero;stroke:#ffffff;stroke-width:0.69975;stroke-miterlimit:10;stroke-dasharray:none;stroke-opacity:1"
         id="path4913" /></g><g
       id="g4915"
       transform="translate(301.7942,983.637)"
       style="stroke:#ffffff;stroke-width:0.69975;stroke-miterlimit:10;stroke-dasharray:none;stroke-opacity:1"><path
         d="M 0,0 C 0.317,0 0.596,-0.023 0.843,-0.071 1.09,-0.116 1.32,-0.198 1.543,-0.315 L 1.384,-0.804 c -0.202,0.095 -0.411,0.167 -0.624,0.22 -0.214,0.051 -0.436,0.076 -0.662,0.076 -0.282,0 -0.548,-0.04 -0.801,-0.119 -0.255,-0.079 -0.481,-0.21 -0.671,-0.389 -0.195,-0.178 -0.351,-0.41 -0.466,-0.701 -0.117,-0.29 -0.177,-0.642 -0.177,-1.058 0,-0.356 0.051,-0.676 0.151,-0.957 0.1,-0.28 0.24,-0.516 0.425,-0.706 0.183,-0.191 0.402,-0.335 0.654,-0.435 0.25,-0.1 0.531,-0.148 0.84,-0.148 0.223,0 0.416,0.014 0.586,0.042 0.163,0.033 0.305,0.069 0.422,0.115 v 1.753 H -0.052 V -2.62 H 1.667 V -5.24 C 1.451,-5.328 1.216,-5.4 0.963,-5.455 0.704,-5.512 0.396,-5.539 0.027,-5.539 c -0.375,0 -0.724,0.06 -1.051,0.18 -0.328,0.12 -0.615,0.297 -0.858,0.531 -0.247,0.234 -0.443,0.521 -0.583,0.865 -0.143,0.343 -0.217,0.738 -0.217,1.188 0,0.451 0.069,0.851 0.202,1.199 0.134,0.349 0.323,0.639 0.561,0.87 0.24,0.231 0.522,0.406 0.852,0.526 C -0.742,-0.06 -0.386,0 0,0"
         style="fill:#ffffff;fill-opacity:1;fill-rule:nonzero;stroke:#ffffff;stroke-width:0.69975;stroke-miterlimit:10;stroke-dasharray:none;stroke-opacity:1"
         id="path4917" /></g><g
       id="g4919"
       transform="translate(306.4221,983.6292)"
       style="stroke:#ffffff;stroke-width:0.69975;stroke-miterlimit:10;stroke-dasharray:none;stroke-opacity:1"><path
         d="M 0,0 H 3.242 V -0.518 H 0.633 V -2.409 H 3.016 V -2.928 H 0.633 V -5.004 H 3.271 V -5.521 H 0 Z"
         style="fill:#ffffff;fill-opacity:1;fill-rule:nonzero;stroke:#ffffff;stroke-width:0.69975;stroke-miterlimit:10;stroke-dasharray:none;stroke-opacity:1"
         id="path4921" /></g><g
       id="g4923"
       transform="translate(312.5032,983.6292)"
       style="stroke:#ffffff;stroke-width:0.69975;stroke-miterlimit:10;stroke-dasharray:none;stroke-opacity:1"><path
         d="M 0,0 H 0.57 L 3.033,-3.566 C 3.145,-3.731 3.254,-3.895 3.362,-4.06 3.472,-4.223 3.576,-4.385 3.675,-4.551 H 3.69 C 3.68,-4.333 3.674,-4.119 3.668,-3.905 3.665,-3.691 3.665,-3.477 3.665,-3.263 V 0 h 0.614 v -5.521 h -0.57 l -2.41,3.461 c -0.123,0.175 -0.244,0.362 -0.365,0.565 -0.119,0.203 -0.235,0.401 -0.336,0.6 H 0.581 C 0.592,-1.157 0.6,-1.416 0.607,-1.67 0.611,-1.926 0.615,-2.184 0.615,-2.443 V -5.521 H 0 Z"
         style="fill:#ffffff;fill-opacity:1;fill-rule:nonzero;stroke:#ffffff;stroke-width:0.69975;stroke-miterlimit:10;stroke-dasharray:none;stroke-opacity:1"
         id="path4925" /></g><g
       id="g4927"
       transform="translate(323.5383,983.6292)"
       style="stroke:#ffffff;stroke-width:0.69975;stroke-miterlimit:10;stroke-dasharray:none;stroke-opacity:1"><path
         d="m 0,0 v -0.527 h -1.812 v -4.994 h -0.633 v 4.994 h -1.78 V 0 Z"
         style="fill:#ffffff;fill-opacity:1;fill-rule:nonzero;stroke:#ffffff;stroke-width:0.69975;stroke-miterlimit:10;stroke-dasharray:none;stroke-opacity:1"
         id="path4929" /></g><path
       d="m 326.701,978.108 h -0.63 v 5.521 h 0.63 z"
       style="fill:#ffffff;fill-opacity:1;fill-rule:nonzero;stroke:#ffffff;stroke-width:0.69975;stroke-miterlimit:10;stroke-dasharray:none;stroke-opacity:1"
       id="path4931" /><g
       id="g4933"
       transform="translate(329.8489,983.6292)"
       style="stroke:#ffffff;stroke-width:0.69975;stroke-miterlimit:10;stroke-dasharray:none;stroke-opacity:1"><path
         d="M 0,0 H 0.568 L 3.031,-3.566 C 3.143,-3.731 3.251,-3.895 3.36,-4.06 3.468,-4.223 3.573,-4.385 3.671,-4.551 h 0.015 c -0.008,0.218 -0.015,0.432 -0.02,0.646 0,0.214 -0.003,0.428 -0.003,0.642 V 0 H 4.276 V -5.521 H 3.705 L 1.296,-2.06 c -0.122,0.175 -0.244,0.362 -0.364,0.565 -0.122,0.203 -0.233,0.401 -0.336,0.6 H 0.578 C 0.589,-1.157 0.597,-1.416 0.604,-1.67 0.61,-1.926 0.612,-2.184 0.612,-2.443 V -5.521 H 0 Z"
         style="fill:#ffffff;fill-opacity:1;fill-rule:nonzero;stroke:#ffffff;stroke-width:0.69975;stroke-miterlimit:10;stroke-dasharray:none;stroke-opacity:1"
         id="path4935" /></g><g
       id="g4937"
       transform="translate(338.1126,980.1936)"
       style="stroke:#ffffff;stroke-width:0.69975;stroke-miterlimit:10;stroke-dasharray:none;stroke-opacity:1"><path
         d="M 0,0 H 1.998 L 1.559,1.182 C 1.479,1.388 1.394,1.619 1.305,1.879 1.217,2.14 1.125,2.424 1.024,2.734 H 1.006 C 0.961,2.583 0.914,2.438 0.866,2.305 0.821,2.17 0.773,2.042 0.732,1.918 0.687,1.795 0.645,1.674 0.6,1.555 0.554,1.436 0.509,1.311 0.456,1.182 Z M 0.736,3.436 H 1.322 L 3.461,-2.086 H 2.792 L 2.19,-0.51 H -0.174 L -0.78,-2.086 h -0.657 z"
         style="fill:#ffffff;fill-opacity:1;fill-rule:nonzero;stroke:#ffffff;stroke-width:0.69975;stroke-miterlimit:10;stroke-dasharray:none;stroke-opacity:1"
         id="path4939" /></g><text
       transform="matrix(1,0,0,-1,398.5391,1032.375)"
       style="font-variant:normal;font-weight:bold;font-stretch:condensed;font-size:10.6581px;font-family:'Roboto Condensed';-inkscape-font-specification:RobotoCondensed-Bold;writing-mode:lr-tb;fill:#ffffff;fill-opacity:1;fill-rule:nonzero;stroke:none"
       id="text4949"><tspan
         x="0 4.8920679 9.9120331 14.814759 20.058544 22.744385 26.016422 31.036386 36.322803"
         y="0"
         sodipodi:role="line"
         id="tspan4941">Facultad </tspan><tspan
         x="0 5.0999007 10.119866 13.391903 16.077744 21.321529 26.623934 31.643898 39.552208 44.652111 48.185268 50.871113 55.773838 60.793804 66.03759 71.057556 73.508919 78.795334"
         y="11.361535"
         sodipodi:role="line"
         id="tspan4943">Latinoamericana de</tspan><tspan
         x="0 6.0751171 8.7609587 13.860859 19.104645 24.00737 26.693211 31.713177 36.551952 39.003319 44.75869 50.066425 54.969151 57.654991 62.674957 65.360802 70.460701 75.299477"
         y="22.723068"
         sodipodi:role="line"
         id="tspan4945">Ciencias Sociales.</tspan><tspan
         x="0 5.755374 10.855275 16.141693 21.246922 23.698286 30.061171 33.496277 38.8573 43.957203 49.200989 52.473022 55.158863 60.402649 65.422615"
         y="34.084602"
         sodipodi:role="line"
         id="tspan4947">Sede Argentina.</tspan></text><g
       id="g4953"
       clip-path="url(#clipPath4957)"><g
         id="g4959"
         transform="translate(377.2668,1082.1584)"><path
           d="M 0,0 V -124.885"
           style="fill:none;stroke:#ffffff;stroke-width:1.013;stroke-linecap:butt;stroke-linejoin:miter;stroke-miterlimit:10;stroke-dasharray:none;stroke-opacity:1"
           id="path4961" /></g><g
         id="g4963"
         transform="translate(504.0608,1082.1584)"><path
           d="M 0,0 V -124.885"
           style="fill:none;stroke:#ffffff;stroke-width:1.013;stroke-linecap:butt;stroke-linejoin:miter;stroke-miterlimit:10;stroke-dasharray:none;stroke-opacity:1"
           id="path4965" /></g><g
         id="g4967"
         transform="translate(757.9104,1082.1584)"><path
           d="M 0,0 V -124.885"
           style="fill:none;stroke:#ffffff;stroke-width:1.013;stroke-linecap:butt;stroke-linejoin:miter;stroke-miterlimit:10;stroke-dasharray:none;stroke-opacity:1"
           id="path4969" /></g><g
         id="g4971"
         transform="translate(1049.9104,1082.1584)" /></g></g></svg>
