<?xml version="1.0" encoding="UTF-8" standalone="no"?>
<svg
   xmlns:dc="http://purl.org/dc/elements/1.1/"
   xmlns:cc="http://creativecommons.org/ns#"
   xmlns:rdf="http://www.w3.org/1999/02/22-rdf-syntax-ns#"
   xmlns:svg="http://www.w3.org/2000/svg"
   xmlns="http://www.w3.org/2000/svg"
   xmlns:sodipodi="http://sodipodi.sourceforge.net/DTD/sodipodi-0.dtd"
   xmlns:inkscape="http://www.inkscape.org/namespaces/inkscape"
   version="1.1"
   id="svg833"
   xml:space="preserve"
   width="600.26813"
   height="287.77283"
   viewBox="0 0 600.26812 287.77283"
   sodipodi:docname="FLACSO_sin_fondo_Virtual2.svg"
   inkscape:version="1.0.1 (c497b03c, 2020-09-10)"><metadata
     id="metadata839"><rdf:RDF><cc:Work
         rdf:about=""><dc:format>image/svg+xml</dc:format><dc:type
           rdf:resource="http://purl.org/dc/dcmitype/StillImage" /><dc:title></dc:title></cc:Work></rdf:RDF></metadata><defs
     id="defs837"><clipPath
       clipPathUnits="userSpaceOnUse"
       id="clipPath849"><path
         d="M 0,595.28 H 841.89 V 0 H 0 Z"
         id="path847" /></clipPath></defs><sodipodi:namedview
     pagecolor="#ffffff"
     bordercolor="#666666"
     borderopacity="1"
     objecttolerance="10"
     gridtolerance="10"
     guidetolerance="10"
     inkscape:pageopacity="0"
     inkscape:pageshadow="2"
     inkscape:window-width="1280"
     inkscape:window-height="755"
     id="namedview835"
     showgrid="false"
     fit-margin-top="0"
     fit-margin-left="0"
     fit-margin-right="0"
     fit-margin-bottom="0"
     inkscape:zoom="0.59508961"
     inkscape:cx="298.47547"
     inkscape:cy="138.06881"
     inkscape:window-x="0"
     inkscape:window-y="23"
     inkscape:window-maximized="1"
     inkscape:current-layer="g841" /><g
     id="g841"
     inkscape:groupmode="layer"
     inkscape:label="FLACSO_sin_fondo_Virtual"
     transform="matrix(1.3333333,0,0,-1.3333333,-262.78454,534.92215)"><rect
       style="fill:#ffffff;stroke-width:12"
       id="rect1153"
       width="225.10057"
       height="215.82961"
       x="422.18896"
       y="-401.19162"
       transform="scale(1,-1)"
       inkscape:export-filename="/Users/photozar/Desktop/virtual-blanco.png"
       inkscape:export-xdpi="42.700344"
       inkscape:export-ydpi="42.700344" /><rect
       style="fill:#ffffff;stroke-width:12"
       id="rect1151"
       width="225.10057"
       height="215.82961"
       x="197.08841"
       y="-401.19162"
       transform="scale(1,-1)"
       inkscape:export-filename="/Users/photozar/Desktop/virtual-blanco.png"
       inkscape:export-xdpi="42.700344"
       inkscape:export-ydpi="42.700344" /><g
       id="g843"
       inkscape:export-filename="/Users/photozar/Desktop/virtual-blanco.png"
       inkscape:export-xdpi="42.700344"
       inkscape:export-ydpi="42.700344"><g
         id="g845"
         clip-path="url(#clipPath849)"><g
           id="g851"
           transform="translate(322.9658,281.8203)"><path
             d="m 0,0 c -0.25,-0.495 -0.397,-0.345 -0.942,-0.245 h -0.151 c -0.301,-0.053 -0.301,-0.397 -0.799,-0.2 -0.297,0.248 -0.447,0.445 -0.347,0.695 0.097,0.248 0.147,0.351 0.347,0.301 0.298,-0.1 0.546,-0.053 0.799,0 0.151,0.05 0.301,0.1 0.395,0.15 C 0.151,0.949 0.201,0.451 0,0 m -45.3,68.636 c -0.151,-0.101 -0.251,-0.101 -0.304,-0.051 0,0 -0.05,0.051 -0.05,0.097 -0.095,0.499 -0.495,0.198 -0.401,0.599 0.103,0.347 0.306,0.448 0.451,0.347 0.153,-0.094 0.25,-0.244 0.347,-0.398 0.153,-0.244 0.254,-0.447 -0.043,-0.594 M -12.755,4.384 v 0.053 c 0.1,0.054 0.1,0.098 0.147,0.305 0,0.244 0.153,0.093 0.1,-0.104 -0.047,-0.298 -0.047,-0.895 -0.247,-0.949 -0.398,0 -0.251,0.054 -0.198,0.351 0,0.3 -0.053,0.25 0.198,0.344 m 4.735,58.768 c -0.1,0 -0.2,0.097 -0.2,0.197 0,0.15 0.1,0.251 0.2,0.251 0.147,0 0.197,-0.101 0.197,-0.251 0,-0.1 -0.05,-0.197 -0.197,-0.197 m -1.196,0.097 c -0.649,0 -0.752,0.1 -0.899,-0.201 -0.051,-0.097 -0.104,-0.197 -0.201,-0.344 -0.043,-0.15 -0.1,-0.103 -0.401,0 -0.444,0.1 -0.745,0.395 -0.745,0.595 -0.044,0.154 -0.044,0.247 -0.094,0.401 -0.705,1.49 -0.251,0.398 1.24,0.645 0.044,0.053 0.15,0.053 0.201,0.053 0.448,0.101 0.551,0.151 0.946,-0.3 0.1,-0.101 0.2,-0.201 0.35,-0.351 1.147,-0.398 -0.15,-0.746 -0.397,-0.498 m -3.045,-0.398 c -0.1,0 -0.294,0 -0.494,0.053 -0.251,0 -0.452,0.047 -0.452,0.195 0,0.4 0.104,0.2 0.401,0.2 h 0.051 c 0.2,0 0.2,0.05 0.3,-0.2 0.047,-0.098 0.144,-0.098 0.348,-0.098 0.247,-0.05 0.1,-0.197 -0.154,-0.15 m -2.089,1.698 c -0.447,-0.05 -0.497,0 -0.898,-0.05 -0.699,-0.101 -0.849,-0.054 -0.699,0.497 0.1,0.499 -0.892,0.248 -1.095,0.499 -0.051,0.053 -0.051,0.096 0,0.196 v 0.051 c -0.298,0.548 -0.104,0.351 -0.997,0.351 -0.2,0 -0.448,0.05 -0.598,0.244 -0.354,0.351 -0.551,0.551 -1.099,0.454 -0.495,-0.053 -0.896,0.846 -0.495,0.942 0.842,0.104 0.495,-0.294 1.24,-0.294 0.451,0 0.604,-0.103 0.952,-0.404 0.198,-0.147 0.401,-0.244 0.793,-0.244 0.1,0 0.153,0 0.204,-0.053 0.203,-0.05 0.4,-0.148 0.698,-0.298 0.15,-0.103 0.297,-0.2 0.397,-0.297 0.298,-0.301 0.548,-0.501 0.896,-0.552 0.551,-0.096 0.501,0 0.896,-0.347 0.401,-0.398 0.852,-0.601 -0.195,-0.695 m -7.08,2.64 c -0.151,-0.051 -0.248,-0.1 -0.348,-0.154 -0.1,-0.094 -0.15,-0.244 -0.351,-0.347 -0.448,-0.351 -0.642,0.153 -0.05,0.551 0.154,0.097 0.301,0.2 0.401,0.2 0.698,0.248 1.19,-0.15 0.348,-0.25 m 20.337,14.453 c -2.292,0.247 -4.588,0.398 -6.927,0.501 -0.705,0 -1.4,0.047 -2.095,0.047 h -2.64 c -1.447,0 -2.844,0 -4.287,-0.047 -1.595,-0.054 -3.142,-0.154 -4.736,-0.254 -7.977,-0.592 -15.9,-1.895 -23.826,-3.987 -0.245,-0.097 -0.545,-0.15 -0.846,-0.247 0.2,-0.351 0.498,-0.351 0.846,-0.498 0.053,-0.05 0.1,-0.05 0.153,-0.1 0.398,-0.201 0.548,-0.448 1.046,-0.548 0.645,-0.051 1.25,-0.154 1.842,0 1.246,0.301 1.296,0.45 2.245,-0.298 0.451,-0.351 0.501,-0.4 0.595,-0.952 0.103,-0.548 0.054,-0.745 0.504,-1.096 0.395,-0.348 0.746,-0.391 0.993,0.103 0.498,1.093 1.791,-0.297 1.791,-0.845 -0.046,-0.999 0.204,-0.401 0.505,-0.799 0.197,-0.15 0.147,-1.497 1.049,-1.797 0.344,-0.098 0.645,0 0.742,-0.445 0.05,-0.154 0,-0.351 -0.147,-0.548 -0.1,-0.298 -0.251,-0.602 -0.398,-0.846 -0.451,-1.052 -0.401,-1.951 0.097,-2.994 0.147,-0.25 0.301,-0.548 0.448,-0.848 0.398,-1.097 0.451,-1.294 1.197,-1.745 0.447,-0.247 0.948,-0.247 1.446,-0.3 0.398,0 0.448,-0.051 0.796,0.2 0.35,0.247 0.548,0.247 0.802,0.05 0.695,-0.445 0.541,-0.05 0.845,0.448 0.495,0.752 0.748,0.1 0.748,1.347 0,0.25 0.198,0.498 0.592,0.648 0.855,-0.05 0.952,0.398 1.798,0.301 0.351,-0.054 0.993,-0.054 0.695,-0.849 -0.491,-0.498 -0.545,-0.451 -0.595,-1.146 0,-0.599 -0.1,-0.799 -0.401,-1.194 -0.545,-0.598 -0.197,-0.401 -0.397,-1.049 -0.051,-0.3 -0.245,-0.448 -0.348,-0.748 -0.1,-0.351 0.103,-0.598 0.698,-0.498 0.398,0.1 0.746,0.1 1.096,0.05 0.448,0 0.799,-0.05 1.2,-0.05 0.595,0.05 1.196,0 1.591,-0.448 0.498,-0.551 0.404,-0.699 0.197,-1.698 -0.097,-0.25 0.104,-0.447 0.05,-0.745 -0.05,-0.448 -0.345,-0.946 -0.345,-1.296 0,-0.248 0.051,-0.498 0.098,-0.699 0.247,-0.344 0.404,-0.598 0.598,-0.795 0.254,-0.298 0.495,-0.551 0.949,-0.846 1.297,-0.802 1.44,0.047 2.487,0.248 0.554,0.047 0.948,0.047 1.3,-0.101 0.347,-0.147 0.647,-0.4 0.995,-0.751 0.354,-0.345 0.598,-0.495 0.799,0.203 0.047,0.298 0.197,0.548 0.401,0.595 0.347,0.054 0.197,0.101 0.347,0.451 0.047,0.051 0.047,0.101 0.101,0.151 v 0.05 0.097 c 0.147,0.698 0.942,1.099 1.644,1.149 h 0.147 c 0.401,0 0.946,0.295 1.146,0.598 0.251,0.298 1.103,0.843 0.651,-0.2 -0.15,-0.25 -0.247,-0.25 -0.203,-0.551 0,-0.097 0.053,-0.147 0.053,-0.245 0.15,-0.397 -0.15,-0.501 -0.25,-0.798 -0.047,-0.251 0.197,-0.2 0.294,-0.251 0.106,-0.097 0.106,-0.35 0.257,-0.498 0.244,-0.147 0.441,0.047 0.545,0.348 v 0.053 0.198 c -0.051,0.15 -0.104,0.297 -0.104,0.447 -0.053,0.301 -0.053,0.448 0.104,0.599 0.047,0.05 0.147,0.097 0.25,0.147 0.796,0.448 1.294,0.702 1.845,0.301 0.097,-0.048 0.147,-0.148 0.25,-0.198 0.645,-0.598 0.345,-0.651 1.244,-0.698 0.698,0 0.899,0.15 1.49,-0.197 0.405,-0.204 1.497,-0.549 1.801,0 0.298,0.598 1.143,0.598 1.343,0.097 0.198,-0.348 0.402,-0.398 0.746,-0.448 0.053,0 0.053,0 0.053,-0.05 0.345,-0.05 0.345,-0.05 0.598,-0.298 0.348,-0.401 -0.049,-0.301 0,-0.751 0.051,-0.348 0,-0.198 0.495,-0.198 0.846,0 1.898,-0.347 2.143,-1.247 0.153,-0.447 0.598,-0.196 0.948,-0.547 0.549,-0.599 0.298,-0.599 1.197,-0.748 0.2,-0.048 0.347,-0.048 0.551,0 0.745,0.203 1.046,0.203 1.44,-0.048 0.401,-0.25 0.498,-0.601 0.949,-0.501 0.749,0.15 0.899,-0.495 1.394,-0.896 0.601,-0.497 0.949,-0.448 0.949,-1.49 0,-0.702 0.053,-0.504 0.451,-1.002 0.545,-0.696 0.695,-0.799 -0.1,-1.545 -0.599,-0.497 -0.599,-0.848 0.397,-0.3 0.351,0.201 0.602,-0.097 1.197,-0.294 0.297,-0.254 0.297,-0.502 0.05,-0.752 -0.05,-0.795 -0.15,-0.695 0.498,-0.197 0.645,0.598 1.196,0.745 2.095,0.094 0.298,-0.245 0.595,-0.445 0.893,-0.692 0.798,-0.702 1.596,-1.05 2.693,-1.05 0.748,0 1.096,-0.297 1.744,-0.2 0.846,0.097 1.547,-0.298 2.049,-1.09 0.244,-0.354 0.591,-0.702 1.043,-0.905 0.995,-0.448 1.396,0.103 1.841,-1.143 0.802,-2.142 -0.796,-3.89 -2.193,-5.384 -0.547,-0.648 -0.397,-1.046 -0.745,-1.446 -0.501,-0.495 -1.346,-0.101 -1.196,-0.993 0.1,-0.354 -0.25,-0.601 -0.298,-0.999 0,-0.201 -0.05,-0.348 0,-0.498 0,-0.495 0.197,-0.946 -0.2,-1.297 -0.057,-0.448 -0.103,-0.896 -0.201,-1.343 -0.447,-0.949 -0.899,-1.594 -1.146,-2.146 -0.3,-0.347 -0.401,-0.497 -0.748,-0.748 C 17.2,23.826 17.5,23.325 17.2,22.981 c -0.107,-0.148 -0.254,-0.2 -0.454,-0.348 -0.692,-0.451 -0.645,-0.598 -1.541,-0.598 -1.697,0 -4.037,-1.099 -5.036,-2.643 C 9.771,18.793 9.771,18.443 9.718,17.895 9.624,17.099 9.273,17.247 8.873,16.749 8.127,15.903 8.177,14.904 7.328,15.251 7.081,15.305 7.031,15.058 6.68,14.657 6.43,14.406 6.186,14.205 6.082,13.761 6.035,13.41 5.982,13.31 5.534,12.915 5.237,12.614 4.983,12.364 4.685,12.06 4.141,10.864 3.194,11.017 2.045,11.165 1.748,11.218 1.294,11.469 0.949,11.563 0.201,11.863 0.301,11.365 0.846,11.067 1.049,10.967 1.1,10.917 1.149,10.817 1.244,10.269 0.702,10.219 1.397,9.671 1.547,9.273 1.397,8.925 1,8.524 0.498,7.779 -0.25,7.478 -1.093,7.428 c -0.448,-0.05 -0.949,0 -1.444,0 -1.002,0.05 -0.754,0.251 -0.848,-0.597 -0.05,-0.198 -0.103,-0.348 -0.301,-0.599 0,-0.795 -0.548,-0.946 -1.096,-0.749 -1.146,0.455 -0.698,0.498 -1.005,-0.247 -0.094,-0.25 -0.094,-0.401 -0.041,-0.548 0,-0.097 0.041,-0.398 0.147,-0.398 0.104,0 0.154,0 0.201,-0.053 0.397,0 0,0.254 0.548,0.298 0.2,0 0.2,0 0.15,-0.195 -0.103,-0.397 -0.15,-0.3 -0.551,-0.3 -0.395,0 -0.454,0.047 -0.454,-0.398 0,-0.498 -0.292,-0.398 -0.442,-0.799 -0.047,-0.15 -0.097,-0.3 -0.15,-0.501 C -6.526,1.895 -6.874,1.948 -7.325,1.895 -7.623,1.747 -7.873,1.597 -8.02,1.403 c -0.2,-0.304 -0.2,-0.648 0,-0.952 0.047,-0.05 0.147,-0.144 0.25,-0.201 0.098,-0.097 0.147,-0.25 0.298,-0.297 0.448,-0.098 0.448,0.15 0.448,-0.348 0,-0.548 -0.247,-0.498 -0.695,-0.798 -0.104,-0.1 -0.204,-0.147 -0.301,-0.198 -0.248,-0.15 -0.301,-0.2 -0.451,-0.598 -0.05,-0.35 -0.254,-0.604 -0.498,-0.695 -0.849,-0.304 -0.849,-0.451 -0.645,-1.253 0.144,-0.648 -0.104,-0.548 -0.501,-0.648 -0.157,-0.05 -0.348,-0.094 -0.545,-0.248 -0.2,-0.197 -0.354,-0.447 -0.451,-0.748 -0.445,-0.398 0.097,-0.047 -1.043,-0.301 -0.454,-0.097 -0.454,0.201 -0.454,0.702 -0.047,0.247 -0.1,0.347 -0.147,0.445 -0.051,0.056 -0.1,0.1 -0.1,0.203 -0.248,0.645 0.049,0.448 -0.552,0.946 -0.447,0.301 0.053,0.695 -0.147,0.993 -0.3,0.504 -0.2,0.254 -0.251,0.801 -0.049,0.151 -0.106,0.301 -0.147,0.499 -0.1,0.2 -0.1,0.4 0.198,0.547 0.4,0.198 0.347,0.104 0.501,0.501 0.3,1 0.15,0.298 -0.398,0.743 -0.154,0.103 -0.05,0.404 0.144,0.651 0.354,0.448 0.451,0.448 0.752,0.551 0.047,0 0.1,0 0.2,0.047 0.244,0.101 0.147,0.348 0.294,0.899 -0.05,0.598 0.204,0.946 0.401,1.344 0.198,0.3 0.198,0.648 0.053,0.943 -0.3,0.601 -0.948,0 -0.848,0.954 0.1,0.793 0.247,0.746 0.448,1.341 0.1,0.301 0.053,0.598 0,0.999 -0.248,1.046 -0.154,0.999 0.347,1.942 0.153,0.354 0.354,0.648 0.501,0.996 0.101,0.347 0.101,0.598 0.198,0.999 0.35,0.25 0.35,0.4 0.35,0.898 0,0.596 0.248,0.596 0.248,1.143 0,0.552 -0.097,0.404 -0.248,0.799 -0.049,0.201 0,0.398 0.051,0.548 0.247,0.595 0.488,0.401 0.297,1.147 -0.15,0.4 0.147,0.848 0.348,1.249 0.047,0.1 0.1,0.198 0.1,0.247 0.197,0.699 0.348,1.244 0.451,1.995 0.094,0.545 0.144,0.996 0.05,1.394 -0.05,0.348 -0.05,0.598 0,0.798 0.144,0.499 0.345,0.399 0.247,0.943 -0.049,0.351 -0.103,0.849 0,1.05 0.245,0.598 -0.049,1.346 -0.049,2.141 0.049,0.699 -0.248,0.999 -0.799,1.447 -0.104,0.047 -0.201,0.151 -0.348,0.251 -0.648,0.448 -1.296,1.046 -1.992,1.347 -0.1,0.046 -0.2,0.097 -0.3,0.097 -0.702,0.2 -0.799,-0.051 -1.497,0.795 -0.201,0.254 -0.398,0.501 -0.648,0.752 -0.248,0.444 0.294,0.498 -0.051,1.046 -0.15,0.197 -0.498,0.448 -0.598,0.645 -0.645,0.899 -1.093,1.845 -1.493,2.746 -0.646,1.341 -1.248,2.534 -2.296,3.386 -0.398,0.053 -0.545,0.247 -0.398,0.648 0,0.351 -0.147,0.598 -0.247,0.799 -0.401,0.745 0.695,1.093 1.196,1.296 0.351,0.245 0.351,0.545 0,0.796 -0.15,0.05 -0.298,0.097 -0.451,0.097 -0.745,0.253 -0.442,1.199 -0.1,1.644 0.3,0.304 0.454,0.702 0.551,1.099 0.097,0.649 0.15,0.699 0.548,0.849 0.645,0.15 0.551,0.197 0.748,0.795 0,0.549 0.051,0.501 0.449,0.652 0.049,0 0.1,0.047 0.149,0.047 1.097,0.996 0.946,1.494 0.846,2.84 0,0.699 -0.147,0.896 -0.498,1.548 -0.197,0.344 -0.397,0.397 -0.497,0.547 -0.051,0.05 -0.051,0.098 -0.051,0.198 -0.053,0.595 0.1,0.494 -0.347,1.096 -0.401,0.297 -0.902,0.25 -1.197,-0.248 -0.053,-0.1 -0.053,-0.3 -0.15,-0.4 -0.451,-0.298 -0.351,-0.051 -0.204,-0.796 0.054,-0.153 0.054,-0.247 -0.047,-0.297 -0.595,-0.401 -0.545,0.347 -0.795,0.447 -0.398,0.151 -0.251,-0.15 -0.755,0.348 -0.191,0.201 -0.291,0.201 -0.695,0.201 h -0.495 c -0.15,0.046 -0.247,0.143 -0.401,0.447 -0.244,0.298 0.05,0.548 -0.495,0.649 -0.097,0 -0.197,0 -0.297,0.047 -0.551,0.401 -0.107,0.401 -0.702,0.253 -0.294,-0.053 -0.598,0.198 -0.648,0.645 0.151,1.047 -0.047,0.899 -0.949,1.648 -0.348,0.347 -0.495,0.692 -0.645,1.043 -0.197,0.497 -0.398,0.247 -0.846,0.247 -0.3,-0.047 -0.952,0.1 -1.346,0.401 -0.799,0.551 -0.996,0.401 -1.544,0.501 -0.699,0.097 -1.197,0.895 -1.494,1.343 -0.404,0.599 -1.049,0.949 -1.797,0.799 -0.599,-0.15 -0.702,-0.701 -1.444,-0.598 -0.448,0.097 -0.749,0.598 -1.798,0.748 -0.795,0.148 -1.247,0.549 -1.895,0.846 -0.796,0.301 -0.842,0.846 -1.494,0.996 -1.444,0.351 -0.745,0.204 -1.393,0.896 -0.147,0.103 -0.301,0.2 -0.498,0.3 -0.401,0.251 -0.999,0.799 -0.599,1.246 0.398,0.499 0.445,0.849 0.298,1.25 -0.197,0.348 -0.197,0.645 -0.151,0.896 0.051,0.351 -0.594,0.946 -0.845,1.244 -0.394,0.547 -0.795,1.048 -1.143,1.6 -1.45,0.641 0.144,0.792 -0.601,1.537 -0.398,0 -0.498,0.204 -0.548,0.454 -0.147,0.595 0.05,0.595 -0.551,1.1 -0.145,0.094 -0.298,0.248 -0.398,0.592 -0.147,0.347 -0.248,0.698 -0.348,1.096 0,0.304 -0.053,0.551 -0.053,0.848 -0.047,0.799 0.103,0.702 -0.642,0.996 -0.2,0.05 -0.301,0.104 -0.448,0.104 -0.05,-0.054 -0.103,-0.054 -0.153,-0.054 -0.151,-0.097 -0.201,-0.344 -0.201,-0.601 0.05,-0.642 -0.053,-0.792 0.151,-1.243 0.153,-0.151 0.247,-0.448 0.35,-0.595 0.398,-0.501 0.448,-0.448 0.448,-1.049 0,-0.548 -0.05,-0.599 0.248,-1.096 0.801,-1.043 0.551,-1.197 0.801,-2.043 -0.053,-0.501 0,-0.745 -0.25,-0.801 -0.351,-0.094 -0.598,0.056 -0.896,0.203 -0.301,0.298 -0.104,0.498 0.097,0.796 0.398,0.648 -0.501,1.196 -0.899,1.497 -0.595,0.548 -0.949,0.798 -0.347,1.444 0.448,0.447 0.15,0.799 -0.097,1.196 -0.652,0.598 -0.749,0.648 -0.699,1.096 0.047,0.498 0.047,0.652 -0.05,0.801 -4.037,-1.195 -8.08,-2.545 -12.111,-4.139 V 3.144 c 5.181,-1.995 10.31,-3.692 15.497,-5.086 7.926,-2.092 15.849,-3.438 23.826,-3.986 1.594,-0.101 3.141,-0.198 4.736,-0.251 1.443,-0.054 2.84,-0.054 4.287,-0.054 h 1.249 c 0.248,0.054 0.492,0.107 0.746,0.157 1.042,-0.157 0.197,0.745 0.645,1.046 0.047,0 0.147,0.047 0.25,0.047 0.445,0.1 0.395,0.05 0.598,-0.297 0.245,-0.451 0.448,-0.648 0.796,-0.899 h 0.451 c 2.339,0.103 4.635,0.251 6.927,0.498 12.261,1.149 24.522,4.09 36.582,8.825 V 72.82 c -12.06,4.735 -24.321,7.676 -36.582,8.822"
             style="fill:#182e4c;fill-opacity:1;fill-rule:nonzero;stroke:none"
             id="path853" /></g><g
           id="g855"
           transform="translate(273.3027,257.0386)"><path
             d="m 0,0 v -3.235 h -7.2 v -4.297 h 6.583 v -3.207 H -7.2 v -6.833 h -4.238 V 0 Z"
             style="fill:#182e4c;fill-opacity:1;fill-rule:nonzero;stroke:none"
             id="path857" /></g><g
           id="g859"
           transform="translate(276.9541,257.0386)"><path
             d="m 0,0 h 4.241 v -14.281 h 6.116 v -3.291 H 0 Z"
             style="fill:#182e4c;fill-opacity:1;fill-rule:nonzero;stroke:none"
             id="path861" /></g><g
           id="g863"
           transform="translate(295.958,246.2998)"><path
             d="M 0,0 H 4.021 L 3.351,2.117 C 3.128,2.806 2.9,3.542 2.665,4.322 2.433,5.104 2.236,5.822 2.063,6.47 H 2.007 C 1.823,5.822 1.609,5.114 1.372,4.35 1.127,3.589 0.896,2.847 0.673,2.117 Z M -0.166,10.739 H 4.353 L 10.686,-6.833 H 6.194 l -1.199,3.764 h -5.913 l -1.199,-3.764 h -4.435 z"
             style="fill:#182e4c;fill-opacity:1;fill-rule:nonzero;stroke:none"
             id="path865" /></g><g
           id="g867"
           transform="translate(317.2505,242.3945)"><path
             d="M 0,0 C 0.836,0 1.544,0.075 2.12,0.222 2.697,0.373 3.179,0.57 3.567,0.808 l 0.84,-3.041 C 4.034,-2.452 3.433,-2.678 2.606,-2.903 1.779,-3.125 0.764,-3.235 -0.448,-3.235 c -1.374,0 -2.64,0.213 -3.792,0.642 -1.153,0.429 -2.139,1.036 -2.957,1.826 -0.817,0.792 -1.456,1.747 -1.91,2.874 -0.457,1.125 -0.683,2.384 -0.683,3.778 0,1.359 0.219,2.599 0.655,3.723 0.435,1.124 1.058,2.083 1.87,2.875 0.807,0.789 1.794,1.403 2.956,1.842 1.162,0.435 2.468,0.654 3.918,0.654 1.227,0 2.226,-0.116 2.997,-0.347 0.77,-0.236 1.384,-0.473 1.829,-0.715 L 3.482,10.823 c -0.422,0.241 -0.93,0.455 -1.518,0.642 -0.583,0.185 -1.234,0.279 -1.936,0.279 -0.742,0 -1.44,-0.106 -2.091,-0.323 C -2.718,11.212 -3.282,10.87 -3.768,10.403 -4.25,9.94 -4.628,9.339 -4.911,8.606 -5.189,7.874 -5.327,6.975 -5.327,5.913 c 0,-0.984 0.135,-1.851 0.404,-2.59 C -4.654,2.574 -4.278,1.958 -3.792,1.462 -3.31,0.974 -2.747,0.604 -2.104,0.363 -1.462,0.119 -0.767,0 0,0"
             style="fill:#182e4c;fill-opacity:1;fill-rule:nonzero;stroke:none"
             id="path869" /></g><g
           id="g871"
           transform="translate(331.3091,257.3735)"><path
             d="M 0,0 C 1.228,0 2.283,-0.125 3.179,-0.375 4.068,-0.626 4.845,-0.93 5.497,-1.284 l -0.95,-3.094 c -0.726,0.37 -1.456,0.664 -2.189,0.877 -0.736,0.213 -1.441,0.319 -2.108,0.319 -0.857,0 -1.505,-0.156 -1.95,-0.473 -0.448,-0.313 -0.671,-0.733 -0.671,-1.255 0,-0.595 0.213,-1.028 0.642,-1.294 0.426,-0.269 1.087,-0.557 1.979,-0.855 l 1.648,-0.529 c 0.651,-0.223 1.256,-0.498 1.813,-0.824 0.558,-0.325 1.037,-0.701 1.435,-1.128 0.397,-0.428 0.71,-0.911 0.93,-1.449 0.228,-0.539 0.341,-1.128 0.341,-1.757 0,-0.742 -0.141,-1.447 -0.42,-2.108 -0.278,-0.658 -0.701,-1.24 -1.271,-1.744 -0.564,-0.502 -1.281,-0.899 -2.148,-1.187 -0.862,-0.288 -1.88,-0.429 -3.051,-0.429 -1.099,0 -2.145,0.116 -3.141,0.347 -0.992,0.235 -1.91,0.564 -2.746,0.99 l 0.948,3.097 c 0.796,-0.391 1.582,-0.698 2.343,-0.917 0.764,-0.226 1.563,-0.338 2.399,-0.338 0.986,0 1.697,0.162 2.136,0.488 0.435,0.326 0.651,0.767 0.651,1.325 0,0.184 -0.034,0.372 -0.11,0.557 -0.074,0.188 -0.219,0.376 -0.431,0.558 -0.214,0.188 -0.511,0.366 -0.896,0.544 -0.379,0.179 -0.865,0.358 -1.463,0.546 l -1.365,0.473 c -0.652,0.241 -1.253,0.51 -1.813,0.811 -0.558,0.297 -1.038,0.648 -1.435,1.058 -0.401,0.407 -0.717,0.883 -0.937,1.422 -0.222,0.539 -0.334,1.181 -0.334,1.926 0,0.761 0.144,1.469 0.432,2.12 0.284,0.652 0.717,1.212 1.284,1.685 0.566,0.476 1.265,0.849 2.092,1.118 C -2.032,-0.138 -1.077,0 0,0"
             style="fill:#182e4c;fill-opacity:1;fill-rule:nonzero;stroke:none"
             id="path873" /></g><g
           id="g875"
           transform="translate(345.4238,248.2227)"><path
             d="m 0,0 c 0,-0.983 0.113,-1.848 0.348,-2.593 0.232,-0.742 0.554,-1.356 0.964,-1.842 0.404,-0.482 0.877,-0.848 1.41,-1.086 0.529,-0.241 1.099,-0.363 1.713,-0.363 0.595,0 1.155,0.122 1.688,0.363 0.529,0.238 0.986,0.604 1.381,1.086 0.392,0.486 0.698,1.1 0.921,1.842 C 8.647,-1.848 8.76,-0.983 8.76,0 8.76,1.024 8.644,1.91 8.409,2.665 8.177,3.42 7.857,4.037 7.447,4.52 7.037,5.004 6.567,5.368 6.038,5.606 5.506,5.85 4.936,5.969 4.322,5.969 3.73,5.969 3.167,5.844 2.637,5.593 2.107,5.343 1.644,4.967 1.256,4.466 0.865,3.962 0.558,3.339 0.335,2.596 0.11,1.851 0,0.987 0,0 m 4.435,9.151 c 1.262,0 2.436,-0.21 3.513,-0.627 1.081,-0.419 2.011,-1.017 2.791,-1.8 0.783,-0.78 1.39,-1.738 1.825,-2.872 0.439,-1.137 0.658,-2.417 0.658,-3.852 0,-1.394 -0.231,-2.649 -0.685,-3.764 C 12.083,-4.879 11.459,-5.832 10.67,-6.624 9.878,-7.416 8.941,-8.021 7.852,-8.437 6.765,-8.854 5.587,-9.063 4.322,-9.063 c -1.262,0 -2.436,0.207 -3.514,0.613 -1.078,0.408 -2.007,0.999 -2.79,1.773 -0.78,0.767 -1.391,1.719 -1.826,2.844 -0.438,1.124 -0.655,2.402 -0.655,3.833 0,1.397 0.22,2.656 0.668,3.78 0.447,1.124 1.07,2.086 1.869,2.887 0.801,0.802 1.741,1.413 2.831,1.842 1.09,0.429 2.264,0.642 3.53,0.642"
             style="fill:#182e4c;fill-opacity:1;fill-rule:nonzero;stroke:none"
             id="path877" /></g><g
           id="g879"
           transform="translate(264.2139,223.6191)"><path
             d="M 0,0 H 3.461 L 2.703,2.045 C 2.562,2.402 2.415,2.803 2.262,3.251 2.111,3.702 1.949,4.194 1.776,4.732 H 1.748 C 1.667,4.469 1.585,4.218 1.507,3.987 1.425,3.755 1.347,3.533 1.269,3.32 1.194,3.107 1.119,2.897 1.043,2.691 0.968,2.484 0.88,2.268 0.792,2.045 Z M 1.278,5.944 H 2.293 L 5.988,-3.607 H 4.839 L 3.793,-0.879 H -0.3 l -1.046,-2.728 h -1.137 z"
             style="fill:#182e4c;fill-opacity:1;fill-rule:nonzero;stroke:none"
             id="path881" /></g><g
           id="g883"
           transform="translate(275.6484,224.7876)"><path
             d="M 0,0 H 1.456 C 1.788,0 2.099,0.038 2.386,0.11 2.671,0.188 2.925,0.307 3.138,0.47 3.345,0.63 3.517,0.836 3.636,1.084 3.758,1.332 3.817,1.625 3.817,1.97 3.817,2.637 3.63,3.123 3.251,3.433 2.872,3.739 2.314,3.896 1.575,3.896 H 0 Z m -1.015,4.776 h 2.941 c 0.495,0 0.93,-0.069 1.309,-0.204 C 3.614,4.435 3.927,4.244 4.184,4 4.437,3.758 4.629,3.47 4.757,3.128 4.892,2.791 4.958,2.421 4.958,2.014 4.958,1.65 4.901,1.322 4.785,1.021 4.679,0.724 4.528,0.464 4.344,0.244 4.156,0.019 3.94,-0.166 3.698,-0.319 3.458,-0.47 3.204,-0.591 2.94,-0.683 L 5.531,-4.776 H 4.291 L 1.926,-0.88 H 0 v -3.896 h -1.015 z"
             style="fill:#182e4c;fill-opacity:1;fill-rule:nonzero;stroke:none"
             id="path885" /></g><g
           id="g887"
           transform="translate(289.7759,229.5762)"><path
             d="M 0,0 C 0.548,0 1.03,-0.041 1.456,-0.122 1.882,-0.201 2.283,-0.341 2.668,-0.545 L 2.393,-1.391 c -0.351,0.166 -0.711,0.292 -1.081,0.383 -0.37,0.087 -0.751,0.131 -1.146,0.131 -0.486,0 -0.946,-0.069 -1.384,-0.206 -0.442,-0.139 -0.83,-0.364 -1.159,-0.674 -0.338,-0.307 -0.608,-0.711 -0.805,-1.212 -0.203,-0.501 -0.307,-1.112 -0.307,-1.829 0,-0.617 0.088,-1.171 0.26,-1.657 0.172,-0.485 0.416,-0.892 0.736,-1.221 0.316,-0.329 0.695,-0.579 1.131,-0.752 0.432,-0.172 0.917,-0.257 1.453,-0.257 0.385,0 0.72,0.026 1.011,0.073 0.285,0.056 0.53,0.118 0.73,0.2 v 3.032 h -1.923 v 0.848 H 2.881 V -9.063 C 2.508,-9.217 2.102,-9.339 1.663,-9.436 1.218,-9.533 0.683,-9.58 0.047,-9.58 c -0.649,0 -1.253,0.103 -1.82,0.31 -0.567,0.209 -1.061,0.514 -1.484,0.921 -0.426,0.404 -0.764,0.902 -1.009,1.494 -0.247,0.595 -0.372,1.277 -0.372,2.057 0,0.78 0.116,1.472 0.347,2.073 0.232,0.605 0.558,1.106 0.971,1.503 0.417,0.402 0.902,0.705 1.472,0.912 C -1.284,-0.104 -0.667,0 0,0"
             style="fill:#182e4c;fill-opacity:1;fill-rule:nonzero;stroke:none"
             id="path889" /></g><g
           id="g891"
           transform="translate(297.7808,229.5635)"><path
             d="M 0,0 H 5.608 V -0.896 H 1.093 V -4.168 H 5.214 V -5.064 H 1.093 V -8.656 H 5.656 V -9.552 H 0 Z"
             style="fill:#182e4c;fill-opacity:1;fill-rule:nonzero;stroke:none"
             id="path893" /></g><g
           id="g895"
           transform="translate(308.2998,229.5635)"><path
             d="M 0,0 H 0.987 L 5.246,-6.169 C 5.437,-6.455 5.628,-6.736 5.813,-7.021 6.004,-7.303 6.183,-7.585 6.354,-7.87 H 6.383 C 6.364,-7.494 6.352,-7.125 6.345,-6.755 6.339,-6.386 6.339,-6.013 6.339,-5.643 V 0 H 7.401 V -9.552 H 6.414 L 2.246,-3.563 C 2.033,-3.26 1.823,-2.938 1.613,-2.587 1.41,-2.236 1.209,-1.892 1.034,-1.547 H 1.002 C 1.021,-2.001 1.037,-2.449 1.049,-2.89 1.056,-3.329 1.062,-3.777 1.062,-4.228 V -9.552 H 0 Z"
             style="fill:#182e4c;fill-opacity:1;fill-rule:nonzero;stroke:none"
             id="path897" /></g><g
           id="g899"
           transform="translate(327.3848,229.5635)"><path
             d="m 0,0 v -0.911 h -3.135 v -8.641 h -1.093 v 8.641 H -7.306 V 0 Z"
             style="fill:#182e4c;fill-opacity:1;fill-rule:nonzero;stroke:none"
             id="path901" /></g><path
           d="m 332.859,220.012 h -1.093 v 9.552 h 1.093 z"
           style="fill:#182e4c;fill-opacity:1;fill-rule:nonzero;stroke:none"
           id="path903" /><g
           id="g905"
           transform="translate(338.3022,229.5635)"><path
             d="m 0,0 h 0.983 l 4.26,-6.169 C 5.437,-6.455 5.625,-6.736 5.812,-7.021 5.997,-7.303 6.179,-7.585 6.348,-7.87 H 6.376 C 6.361,-7.494 6.348,-7.125 6.342,-6.755 6.339,-6.386 6.336,-6.013 6.336,-5.643 V 0 H 7.397 V -9.552 H 6.408 L 2.243,-3.563 C 2.029,-3.26 1.82,-2.938 1.613,-2.587 1.403,-2.236 1.212,-1.892 1.03,-1.547 H 0.999 C 1.018,-2.001 1.034,-2.449 1.046,-2.89 1.056,-3.329 1.059,-3.777 1.059,-4.228 V -9.552 H 0 Z"
             style="fill:#182e4c;fill-opacity:1;fill-rule:nonzero;stroke:none"
             id="path907" /></g><g
           id="g909"
           transform="translate(352.5957,223.6191)"><path
             d="M 0,0 H 3.458 L 2.696,2.045 C 2.559,2.402 2.411,2.803 2.258,3.251 2.108,3.702 1.945,4.194 1.772,4.732 H 1.741 C 1.663,4.469 1.582,4.218 1.5,3.987 1.422,3.755 1.341,3.533 1.269,3.32 1.19,3.107 1.115,2.897 1.036,2.691 0.958,2.484 0.88,2.268 0.789,2.045 Z M 1.275,5.944 H 2.29 L 5.988,-3.607 H 4.832 L 3.79,-0.879 H -0.301 L -1.35,-3.607 h -1.136 z"
             style="fill:#182e4c;fill-opacity:1;fill-rule:nonzero;stroke:none"
             id="path911" /></g><g
           id="g913"
           transform="translate(465.5166,337.9131)"><path
             d="M 0,0 H -4.472 V -5.844 H -6.135 V 7.389 h 6.89 V 5.953 H -4.472 V 1.427 H 0 Z"
             style="fill:#182e4c;fill-opacity:1;fill-rule:nonzero;stroke:none"
             id="path915" /></g><g
           id="g917"
           transform="translate(470.7061,333.3506)"><path
             d="M 0,0 C 0.224,0 0.437,0.033 0.636,0.1 0.836,0.166 1.018,0.253 1.182,0.359 1.345,0.465 1.489,0.586 1.613,0.723 1.737,0.859 1.836,1 1.908,1.145 V 3.49 H 1.063 C 0.676,3.49 0.325,3.447 0.014,3.363 -0.299,3.277 -0.565,3.154 -0.786,2.994 -1.008,2.834 -1.177,2.635 -1.295,2.399 -1.413,2.163 -1.473,1.893 -1.473,1.59 -1.473,1.293 -1.442,1.043 -1.382,0.84 -1.321,0.637 -1.23,0.474 -1.108,0.35 -0.987,0.226 -0.835,0.137 -0.649,0.082 -0.464,0.027 -0.247,0 0,0 M 2.145,-1.281 C 2.091,-1.16 2.046,-1.004 2.013,-0.813 1.979,-0.623 1.954,-0.422 1.936,-0.209 1.82,-0.379 1.688,-0.539 1.54,-0.691 1.392,-0.842 1.226,-0.977 1.041,-1.091 0.856,-1.206 0.657,-1.297 0.44,-1.363 c -0.214,-0.067 -0.443,-0.1 -0.685,-0.1 -0.431,0 -0.82,0.061 -1.168,0.182 -0.349,0.121 -0.647,0.302 -0.896,0.545 -0.247,0.242 -0.438,0.541 -0.572,0.894 -0.134,0.356 -0.2,0.769 -0.2,1.241 0,0.473 0.082,0.91 0.245,1.309 0.164,0.399 0.406,0.745 0.728,1.036 0.321,0.291 0.723,0.52 1.209,0.687 0.484,0.167 1.047,0.25 1.69,0.25 h 1.117 v 1.045 c 0,0.587 -0.13,1.005 -0.39,1.254 C 1.257,7.229 0.86,7.353 0.327,7.353 0.066,7.353 -0.165,7.312 -0.368,7.23 -0.571,7.148 -0.742,7.037 -0.882,6.898 -1.021,6.759 -1.127,6.597 -1.2,6.412 -1.272,6.227 -1.309,6.031 -1.309,5.826 h -1.608 c 0,0.351 0.078,0.701 0.232,1.049 0.155,0.349 0.375,0.66 0.663,0.937 0.288,0.275 0.637,0.499 1.049,0.667 C -0.56,8.648 -0.1,8.734 0.409,8.734 0.863,8.734 1.28,8.68 1.658,8.57 2.037,8.461 2.364,8.285 2.641,8.043 2.916,7.801 3.13,7.488 3.282,7.107 3.433,6.726 3.508,6.259 3.508,5.707 V 0.863 c 0,-0.164 0.007,-0.336 0.018,-0.517 0.012,-0.182 0.033,-0.362 0.06,-0.537 0.026,-0.176 0.06,-0.344 0.1,-0.504 0.039,-0.16 0.083,-0.308 0.131,-0.442 v -0.144 z"
             style="fill:#182e4c;fill-opacity:1;fill-rule:nonzero;stroke:none"
             id="path919" /></g><g
           id="g921"
           transform="translate(480.1221,333.2588)"><path
             d="M 0,0 C 0.236,0 0.46,0.037 0.673,0.109 0.885,0.183 1.072,0.296 1.236,0.451 1.399,0.605 1.531,0.802 1.631,1.041 1.732,1.281 1.79,1.57 1.809,1.909 H 3.326 C 3.309,1.418 3.207,0.972 3.021,0.568 2.837,0.166 2.595,-0.18 2.295,-0.467 1.995,-0.756 1.647,-0.979 1.254,-1.135 0.86,-1.293 0.442,-1.371 0,-1.371 c -0.637,0 -1.189,0.102 -1.659,0.309 -0.47,0.205 -0.859,0.501 -1.168,0.89 -0.309,0.388 -0.539,0.863 -0.691,1.427 -0.151,0.563 -0.227,1.202 -0.227,1.918 v 1.108 c 0,0.715 0.076,1.354 0.227,1.914 0.152,0.56 0.382,1.035 0.691,1.426 0.309,0.391 0.697,0.69 1.164,0.896 0.467,0.206 1.017,0.309 1.654,0.309 0.496,0 0.946,-0.08 1.35,-0.241 C 1.743,8.424 2.089,8.191 2.377,7.885 2.664,7.579 2.89,7.205 3.054,6.763 3.217,6.32 3.309,5.82 3.326,5.264 H 1.809 C 1.772,5.99 1.598,6.535 1.286,6.898 0.974,7.263 0.542,7.444 -0.009,7.444 -0.434,7.444 -0.782,7.369 -1.055,7.217 -1.327,7.065 -1.544,6.852 -1.704,6.576 -1.865,6.301 -1.976,5.969 -2.041,5.581 -2.104,5.193 -2.136,4.76 -2.136,4.281 V 3.173 c 0,-0.485 0.031,-0.923 0.091,-1.314 0.061,-0.39 0.171,-0.724 0.332,-1 0.16,-0.276 0.378,-0.488 0.654,-0.636 C -0.783,0.074 -0.431,0 0,0"
             style="fill:#182e4c;fill-opacity:1;fill-rule:nonzero;stroke:none"
             id="path923" /></g><g
           id="g925"
           transform="translate(490.3203,332.9326)"><path
             d="m 0,0 c -0.255,-0.334 -0.574,-0.592 -0.959,-0.773 -0.385,-0.182 -0.844,-0.272 -1.377,-0.272 -0.406,0 -0.775,0.067 -1.108,0.204 -0.334,0.136 -0.618,0.351 -0.855,0.646 -0.236,0.293 -0.42,0.672 -0.55,1.135 -0.13,0.464 -0.195,1.023 -0.195,1.677 v 6.354 h 1.6 V 2.6 c 0,-0.444 0.04,-0.809 0.122,-1.096 0.082,-0.288 0.187,-0.516 0.318,-0.682 0.13,-0.167 0.278,-0.281 0.445,-0.345 0.168,-0.064 0.332,-0.096 0.496,-0.096 0.533,0 0.96,0.119 1.281,0.355 0.321,0.237 0.567,0.554 0.737,0.953 V 8.971 H 1.563 V -0.863 H 0.036 Z"
             style="fill:#182e4c;fill-opacity:1;fill-rule:nonzero;stroke:none"
             id="path927" /></g><path
           d="m 496.036,332.069 h -1.608 v 13.96 h 1.608 z"
           style="fill:#182e4c;fill-opacity:1;fill-rule:nonzero;stroke:none"
           id="path929" /><g
           id="g931"
           transform="translate(500.6719,344.2842)"><path
             d="M 0,0 V -2.381 H 1.481 V -3.682 H 0 v -6.097 c 0,-0.255 0.023,-0.459 0.072,-0.614 0.049,-0.154 0.113,-0.275 0.192,-0.359 0.078,-0.085 0.169,-0.141 0.267,-0.168 0.102,-0.027 0.205,-0.041 0.314,-0.041 0.109,0 0.23,0.014 0.363,0.041 0.134,0.027 0.228,0.05 0.282,0.068 l -0.018,-1.363 c -0.109,-0.037 -0.253,-0.076 -0.431,-0.119 -0.18,-0.042 -0.408,-0.062 -0.687,-0.062 -0.26,0 -0.509,0.042 -0.746,0.13 -0.235,0.088 -0.442,0.235 -0.622,0.442 -0.178,0.205 -0.32,0.476 -0.426,0.812 -0.107,0.337 -0.16,0.75 -0.16,1.241 v 6.089 h -1.5 v 1.301 h 1.5 V 0 Z"
             style="fill:#182e4c;fill-opacity:1;fill-rule:nonzero;stroke:none"
             id="path933" /></g><g
           id="g935"
           transform="translate(506.9795,333.3506)"><path
             d="M 0,0 C 0.224,0 0.437,0.033 0.636,0.1 0.836,0.166 1.018,0.253 1.182,0.359 1.345,0.465 1.489,0.586 1.613,0.723 1.737,0.859 1.836,1 1.908,1.145 V 3.49 H 1.063 C 0.676,3.49 0.325,3.447 0.014,3.363 -0.299,3.277 -0.565,3.154 -0.786,2.994 -1.008,2.834 -1.177,2.635 -1.295,2.399 -1.413,2.163 -1.473,1.893 -1.473,1.59 -1.473,1.293 -1.442,1.043 -1.382,0.84 -1.321,0.637 -1.23,0.474 -1.108,0.35 -0.987,0.226 -0.835,0.137 -0.649,0.082 -0.465,0.027 -0.248,0 0,0 M 2.145,-1.281 C 2.091,-1.16 2.046,-1.004 2.013,-0.813 1.979,-0.623 1.954,-0.422 1.936,-0.209 1.821,-0.379 1.688,-0.539 1.54,-0.691 1.392,-0.842 1.226,-0.977 1.042,-1.091 0.855,-1.206 0.656,-1.297 0.44,-1.363 c -0.214,-0.067 -0.443,-0.1 -0.685,-0.1 -0.43,0 -0.82,0.061 -1.168,0.182 -0.349,0.121 -0.648,0.302 -0.896,0.545 -0.248,0.242 -0.439,0.541 -0.572,0.894 -0.134,0.356 -0.2,0.769 -0.2,1.241 0,0.473 0.082,0.91 0.245,1.309 0.164,0.399 0.407,0.745 0.728,1.036 0.321,0.291 0.723,0.52 1.209,0.687 0.484,0.167 1.047,0.25 1.691,0.25 h 1.116 v 1.045 c 0,0.587 -0.13,1.005 -0.39,1.254 C 1.257,7.229 0.86,7.353 0.327,7.353 0.066,7.353 -0.165,7.312 -0.368,7.23 -0.571,7.148 -0.741,7.037 -0.882,6.898 -1.021,6.759 -1.126,6.597 -1.2,6.412 -1.272,6.227 -1.309,6.031 -1.309,5.826 h -1.608 c 0,0.351 0.077,0.701 0.231,1.049 0.155,0.349 0.375,0.66 0.664,0.937 0.288,0.275 0.637,0.499 1.049,0.667 C -0.561,8.648 -0.1,8.734 0.409,8.734 0.863,8.734 1.28,8.68 1.658,8.57 2.037,8.461 2.364,8.285 2.641,8.043 2.917,7.801 3.13,7.488 3.281,7.107 3.433,6.726 3.509,6.259 3.509,5.707 V 0.863 c 0,-0.164 0.006,-0.336 0.017,-0.517 0.012,-0.182 0.033,-0.362 0.06,-0.537 0.026,-0.176 0.06,-0.344 0.1,-0.504 0.039,-0.16 0.083,-0.308 0.131,-0.442 v -0.144 z"
             style="fill:#182e4c;fill-opacity:1;fill-rule:nonzero;stroke:none"
             id="path937" /></g><g
           id="g939"
           transform="translate(514.25,336.5127)"><path
             d="m 0,0 c 0,-1.103 0.164,-1.912 0.492,-2.431 0.326,-0.518 0.86,-0.777 1.6,-0.777 0.447,0 0.813,0.112 1.098,0.337 0.286,0.224 0.515,0.515 0.691,0.872 V 2.963 C 3.699,3.309 3.465,3.592 3.177,3.813 2.889,4.034 2.53,4.145 2.1,4.145 1.354,4.145 0.818,3.881 0.492,3.354 0.164,2.827 0,2.016 0,0.918 Z m -1.608,0.918 c 0,0.807 0.079,1.503 0.236,2.091 0.157,0.588 0.38,1.071 0.668,1.45 0.288,0.378 0.635,0.658 1.042,0.84 0.404,0.181 0.853,0.273 1.344,0.273 0.491,0 0.917,-0.099 1.277,-0.296 C 3.319,5.08 3.627,4.797 3.881,4.427 v 5.09 H 5.49 V -4.443 H 4.018 L 3.936,-3.39 C 3.682,-3.789 3.369,-4.096 3,-4.308 2.63,-4.52 2.188,-4.625 1.673,-4.625 c -0.486,0 -0.929,0.095 -1.331,0.285 -0.404,0.192 -0.749,0.478 -1.037,0.86 -0.287,0.381 -0.512,0.861 -0.672,1.44 -0.161,0.579 -0.241,1.259 -0.241,2.04 z"
             style="fill:#182e4c;fill-opacity:1;fill-rule:nonzero;stroke:none"
             id="path941" /></g><g
           id="g943"
           transform="translate(461.0547,314.5479)"><path
             d="M 0,0 H 5.189 V -1.427 H -1.673 V 11.807 H 0 Z"
             style="fill:#182e4c;fill-opacity:1;fill-rule:nonzero;stroke:none"
             id="path945" /></g><g
           id="g947"
           transform="translate(470.916,314.4033)"><path
             d="m 0,0 c 0.224,0 0.437,0.033 0.636,0.1 0.2,0.066 0.382,0.152 0.546,0.258 0.163,0.107 0.307,0.228 0.431,0.364 0.124,0.136 0.223,0.277 0.295,0.423 V 3.489 H 1.063 C 0.676,3.489 0.326,3.447 0.014,3.362 -0.299,3.277 -0.565,3.154 -0.786,2.994 -1.008,2.834 -1.177,2.635 -1.295,2.398 -1.413,2.162 -1.473,1.893 -1.473,1.59 -1.473,1.293 -1.442,1.043 -1.382,0.84 -1.321,0.637 -1.23,0.473 -1.108,0.35 -0.986,0.225 -0.835,0.136 -0.649,0.081 -0.465,0.026 -0.248,0 0,0 M 2.145,-1.282 C 2.091,-1.161 2.047,-1.005 2.014,-0.814 1.98,-0.623 1.954,-0.422 1.936,-0.21 1.82,-0.379 1.688,-0.54 1.54,-0.691 1.392,-0.843 1.226,-0.977 1.041,-1.092 0.855,-1.207 0.656,-1.297 0.44,-1.364 c -0.214,-0.067 -0.443,-0.1 -0.685,-0.1 -0.431,0 -0.82,0.061 -1.168,0.182 -0.349,0.121 -0.648,0.303 -0.896,0.546 -0.248,0.242 -0.439,0.54 -0.572,0.894 -0.134,0.355 -0.2,0.768 -0.2,1.24 0,0.473 0.082,0.91 0.245,1.309 0.164,0.4 0.406,0.746 0.728,1.037 0.321,0.291 0.723,0.52 1.209,0.686 0.484,0.167 1.047,0.25 1.69,0.25 h 1.117 v 1.045 c 0,0.587 -0.13,1.005 -0.39,1.254 C 1.257,7.228 0.86,7.352 0.327,7.352 0.066,7.352 -0.165,7.311 -0.368,7.229 -0.571,7.147 -0.742,7.037 -0.882,6.897 -1.021,6.758 -1.127,6.596 -1.2,6.411 -1.272,6.227 -1.309,6.031 -1.309,5.825 h -1.608 c 0,0.351 0.077,0.701 0.231,1.05 0.155,0.348 0.375,0.66 0.664,0.936 0.288,0.275 0.637,0.499 1.049,0.668 C -0.561,8.648 -0.1,8.733 0.409,8.733 0.863,8.733 1.28,8.68 1.658,8.57 2.037,8.461 2.364,8.285 2.641,8.043 2.916,7.801 3.13,7.488 3.281,7.106 3.433,6.725 3.508,6.258 3.508,5.707 V 0.863 c 0,-0.164 0.007,-0.337 0.018,-0.518 0.012,-0.182 0.033,-0.361 0.06,-0.536 0.026,-0.176 0.06,-0.344 0.1,-0.504 0.039,-0.161 0.083,-0.309 0.131,-0.442 v -0.145 z"
             style="fill:#182e4c;fill-opacity:1;fill-rule:nonzero;stroke:none"
             id="path949" /></g><g
           id="g951"
           transform="translate(479.0234,325.3369)"><path
             d="m 0,0 v -2.382 h 1.481 v -1.3 H 0 V -9.78 c 0,-0.255 0.023,-0.459 0.072,-0.614 0.049,-0.154 0.114,-0.274 0.192,-0.358 0.078,-0.086 0.168,-0.142 0.267,-0.169 0.101,-0.026 0.205,-0.04 0.314,-0.04 0.11,0 0.23,0.014 0.363,0.04 0.134,0.027 0.228,0.05 0.282,0.068 l -0.018,-1.363 c -0.109,-0.036 -0.253,-0.075 -0.432,-0.118 -0.179,-0.043 -0.407,-0.063 -0.686,-0.063 -0.26,0 -0.509,0.043 -0.746,0.131 -0.235,0.088 -0.443,0.235 -0.622,0.441 -0.178,0.205 -0.321,0.477 -0.425,0.813 -0.108,0.336 -0.161,0.75 -0.161,1.241 v 6.089 h -1.5 v 1.3 h 1.5 V 0 Z"
             style="fill:#182e4c;fill-opacity:1;fill-rule:nonzero;stroke:none"
             id="path953" /></g><path
           d="m 484.148,313.121 h -1.608 v 9.834 h 1.608 z m -1.699,12.442 c 0,0.273 0.076,0.503 0.227,0.692 0.151,0.187 0.379,0.281 0.681,0.281 0.304,0 0.533,-0.096 0.687,-0.287 0.154,-0.189 0.231,-0.419 0.231,-0.686 0,-0.272 -0.075,-0.5 -0.226,-0.681 -0.152,-0.182 -0.382,-0.273 -0.692,-0.273 -0.302,0 -0.53,0.091 -0.681,0.273 -0.151,0.181 -0.227,0.409 -0.227,0.681"
           style="fill:#182e4c;fill-opacity:1;fill-rule:nonzero;stroke:none"
           id="path955" /><g
           id="g957"
           transform="translate(488.1934,322.9551)"><path
             d="m 0,0 0.045,-1.063 c 0.297,0.394 0.647,0.699 1.05,0.917 0.403,0.219 0.849,0.328 1.341,0.328 0.399,0 0.763,-0.066 1.09,-0.196 0.328,-0.13 0.606,-0.339 0.836,-0.627 C 4.593,-0.929 4.77,-1.298 4.895,-1.749 5.02,-2.201 5.08,-2.748 5.08,-3.39 v -6.444 h -1.6 v 6.462 c 0,0.769 -0.128,1.316 -0.385,1.641 -0.258,0.324 -0.645,0.486 -1.159,0.486 -0.4,0 -0.759,-0.133 -1.078,-0.401 C 0.54,-1.911 0.285,-2.261 0.091,-2.69 V -9.834 H -1.518 V 0 Z"
             style="fill:#182e4c;fill-opacity:1;fill-rule:nonzero;stroke:none"
             id="path959" /></g><g
           id="g961"
           transform="translate(496.9541,317.5654)"><path
             d="M 0,0 C 0,-0.545 0.057,-1.021 0.169,-1.427 0.28,-1.833 0.436,-2.171 0.632,-2.44 0.829,-2.71 1.061,-2.913 1.327,-3.049 1.594,-3.186 1.885,-3.254 2.2,-3.254 3.66,-3.254 4.391,-2.169 4.391,0 V 0.928 C 4.391,1.467 4.334,1.939 4.222,2.345 4.11,2.751 3.955,3.09 3.759,3.363 3.562,3.636 3.328,3.842 3.059,3.98 2.789,4.12 2.497,4.189 2.182,4.189 1.873,4.189 1.585,4.12 1.318,3.98 1.052,3.842 0.821,3.636 0.628,3.363 0.434,3.09 0.28,2.751 0.169,2.345 0.057,1.939 0,1.467 0,0.928 Z m -1.608,0.928 c 0,0.768 0.098,1.443 0.296,2.021 0.196,0.578 0.465,1.063 0.808,1.449 0.342,0.389 0.743,0.681 1.204,0.877 0.461,0.198 0.954,0.296 1.482,0.296 0.533,0 1.033,-0.098 1.5,-0.296 C 4.147,5.079 4.553,4.787 4.895,4.398 5.237,4.012 5.507,3.527 5.703,2.949 5.9,2.371 5.999,1.696 5.999,0.928 V 0 C 5.999,-0.764 5.9,-1.435 5.703,-2.014 5.507,-2.592 5.237,-3.075 4.895,-3.463 4.553,-3.851 4.15,-4.142 3.69,-4.336 3.229,-4.529 2.733,-4.626 2.2,-4.626 c -0.533,0 -1.032,0.097 -1.495,0.29 -0.464,0.194 -0.867,0.485 -1.209,0.873 -0.343,0.388 -0.612,0.871 -0.808,1.449 -0.198,0.579 -0.296,1.25 -0.296,2.014 z"
             style="fill:#182e4c;fill-opacity:1;fill-rule:nonzero;stroke:none"
             id="path963" /></g><g
           id="g965"
           transform="translate(507.9424,314.4033)"><path
             d="m 0,0 c 0.224,0 0.437,0.033 0.636,0.1 0.2,0.066 0.382,0.152 0.546,0.258 0.163,0.107 0.307,0.228 0.431,0.364 0.124,0.136 0.223,0.277 0.295,0.423 V 3.489 H 1.063 C 0.676,3.489 0.325,3.447 0.014,3.362 -0.299,3.277 -0.565,3.154 -0.786,2.994 -1.008,2.834 -1.177,2.635 -1.295,2.398 -1.413,2.162 -1.473,1.893 -1.473,1.59 -1.473,1.293 -1.442,1.043 -1.382,0.84 -1.321,0.637 -1.229,0.473 -1.108,0.35 -0.987,0.225 -0.835,0.136 -0.649,0.081 -0.464,0.026 -0.248,0 0,0 M 2.146,-1.282 C 2.091,-1.161 2.046,-1.005 2.013,-0.814 1.979,-0.623 1.954,-0.422 1.936,-0.21 1.82,-0.379 1.688,-0.54 1.54,-0.691 1.392,-0.843 1.226,-0.977 1.041,-1.092 0.855,-1.207 0.656,-1.297 0.44,-1.364 c -0.214,-0.067 -0.443,-0.1 -0.685,-0.1 -0.431,0 -0.82,0.061 -1.168,0.182 -0.349,0.121 -0.648,0.303 -0.896,0.546 -0.248,0.242 -0.439,0.54 -0.571,0.894 -0.135,0.355 -0.201,0.768 -0.201,1.24 0,0.473 0.082,0.91 0.245,1.309 0.165,0.4 0.406,0.746 0.728,1.037 0.321,0.291 0.723,0.52 1.209,0.686 0.484,0.167 1.047,0.25 1.69,0.25 h 1.117 v 1.045 c 0,0.587 -0.13,1.005 -0.39,1.254 C 1.257,7.228 0.86,7.352 0.327,7.352 0.066,7.352 -0.165,7.311 -0.368,7.229 -0.571,7.147 -0.742,7.037 -0.882,6.897 -1.021,6.758 -1.127,6.596 -1.2,6.411 -1.272,6.227 -1.309,6.031 -1.309,5.825 h -1.608 c 0,0.351 0.078,0.701 0.231,1.05 0.155,0.348 0.375,0.66 0.664,0.936 0.289,0.275 0.637,0.499 1.049,0.668 C -0.561,8.648 -0.1,8.733 0.409,8.733 0.863,8.733 1.28,8.68 1.658,8.57 2.037,8.461 2.364,8.285 2.642,8.043 2.916,7.801 3.13,7.488 3.281,7.106 3.433,6.725 3.508,6.258 3.508,5.707 V 0.863 c 0,-0.164 0.007,-0.337 0.018,-0.518 0.012,-0.182 0.033,-0.361 0.06,-0.536 0.026,-0.176 0.06,-0.344 0.1,-0.504 0.039,-0.161 0.083,-0.309 0.131,-0.442 v -0.145 z"
             style="fill:#182e4c;fill-opacity:1;fill-rule:nonzero;stroke:none"
             id="path967" /></g><g
           id="g969"
           transform="translate(515.459,322.9551)"><path
             d="m 0,0 0.037,-0.909 c 0.284,0.346 0.621,0.613 1.013,0.805 0.391,0.191 0.845,0.286 1.358,0.286 0.497,0 0.946,-0.113 1.35,-0.336 0.404,-0.225 0.721,-0.588 0.95,-1.091 0.278,0.43 0.632,0.775 1.059,1.036 0.426,0.261 0.934,0.391 1.522,0.391 0.442,0 0.836,-0.068 1.182,-0.204 0.345,-0.137 0.635,-0.35 0.872,-0.641 0.236,-0.291 0.417,-0.661 0.541,-1.109 0.124,-0.449 0.186,-0.982 0.186,-1.6 V -9.834 H 8.471 v 6.471 c 0,0.413 -0.04,0.755 -0.117,1.027 -0.081,0.273 -0.192,0.491 -0.338,0.654 -0.146,0.163 -0.321,0.278 -0.527,0.341 -0.206,0.065 -0.436,0.096 -0.691,0.096 -0.254,0 -0.482,-0.052 -0.682,-0.154 C 5.916,-1.503 5.745,-1.646 5.604,-1.827 5.461,-2.009 5.346,-2.221 5.258,-2.463 5.17,-2.706 5.113,-2.966 5.09,-3.245 V -3.29 -9.834 H 3.472 v 6.462 c 0,0.382 -0.038,0.707 -0.114,0.976 -0.075,0.27 -0.186,0.491 -0.332,0.661 C 2.881,-1.566 2.705,-1.442 2.5,-1.363 2.293,-1.284 2.063,-1.245 1.809,-1.245 1.36,-1.245 1,-1.356 0.727,-1.577 0.454,-1.798 0.242,-2.094 0.092,-2.463 V -9.834 H -1.509 V 0 Z"
             style="fill:#182e4c;fill-opacity:1;fill-rule:nonzero;stroke:none"
             id="path971" /></g><g
           id="g973"
           transform="translate(531.2832,321.7549)"><path
             d="M 0,0 C -0.279,0 -0.537,-0.042 -0.773,-0.127 -1.01,-0.212 -1.218,-0.361 -1.396,-0.576 -1.574,-0.792 -1.719,-1.081 -1.828,-1.445 -1.937,-1.809 -2.004,-2.266 -2.027,-2.816 H 1.844 V -2.6 C 1.826,-2.217 1.785,-1.867 1.722,-1.549 1.658,-1.23 1.559,-0.957 1.422,-0.727 1.285,-0.496 1.102,-0.318 0.872,-0.19 0.643,-0.062 0.351,0 0,0 m 0.181,-8.815 c -0.588,0 -1.118,0.087 -1.589,0.263 -0.474,0.175 -0.875,0.444 -1.206,0.804 -0.33,0.361 -0.583,0.816 -0.759,1.368 -0.176,0.552 -0.264,1.202 -0.264,1.954 v 1.11 c 0,0.865 0.104,1.597 0.31,2.194 0.206,0.597 0.477,1.081 0.813,1.454 0.336,0.373 0.723,0.641 1.159,0.805 C -0.919,1.301 -0.468,1.382 0,1.382 0.617,1.382 1.145,1.28 1.58,1.078 2.018,0.875 2.375,0.576 2.654,0.182 2.932,-0.212 3.135,-0.696 3.262,-1.271 3.39,-1.848 3.453,-2.512 3.453,-3.262 v -0.937 h -5.49 v -0.227 c 0,-1.054 0.199,-1.82 0.596,-2.299 0.396,-0.479 0.967,-0.718 1.712,-0.718 0.274,0 0.519,0.027 0.737,0.082 0.219,0.054 0.418,0.132 0.599,0.232 0.183,0.1 0.349,0.216 0.5,0.354 0.152,0.136 0.294,0.287 0.428,0.45 L 3.371,-7.344 C 3.238,-7.531 3.077,-7.713 2.89,-7.889 2.701,-8.064 2.478,-8.221 2.217,-8.356 1.956,-8.492 1.658,-8.604 1.321,-8.688 0.986,-8.773 0.604,-8.815 0.181,-8.815"
             style="fill:#182e4c;fill-opacity:1;fill-rule:nonzero;stroke:none"
             id="path975" /></g><g
           id="g977"
           transform="translate(540.7266,321.4463)"><path
             d="m 0,0 c -0.128,0.024 -0.246,0.041 -0.354,0.05 -0.11,0.009 -0.234,0.013 -0.373,0.013 -0.437,0 -0.795,-0.121 -1.078,-0.363 -0.281,-0.243 -0.498,-0.573 -0.649,-0.991 V -8.325 H -4.062 V 1.509 H -2.5 l 0.027,-1 c 0.201,0.364 0.451,0.651 0.75,0.864 0.301,0.211 0.66,0.317 1.077,0.317 0.048,0 0.105,-0.004 0.169,-0.013 0.063,-0.009 0.125,-0.02 0.186,-0.032 0.061,-0.012 0.116,-0.026 0.168,-0.041 0.052,-0.015 0.089,-0.029 0.113,-0.041 z"
             style="fill:#182e4c;fill-opacity:1;fill-rule:nonzero;stroke:none"
             id="path979" /></g><path
           d="m 544.062,313.121 h -1.609 v 9.834 h 1.609 z m -1.699,12.442 c 0,0.273 0.074,0.503 0.226,0.692 0.151,0.187 0.379,0.281 0.682,0.281 0.303,0 0.532,-0.096 0.686,-0.287 0.154,-0.189 0.231,-0.419 0.231,-0.686 0,-0.272 -0.075,-0.5 -0.225,-0.681 -0.152,-0.182 -0.383,-0.273 -0.692,-0.273 -0.303,0 -0.531,0.091 -0.682,0.273 -0.152,0.181 -0.226,0.409 -0.226,0.681"
           style="fill:#182e4c;fill-opacity:1;fill-rule:nonzero;stroke:none"
           id="path981" /><g
           id="g983"
           transform="translate(550.0059,314.3115)"><path
             d="M 0,0 C 0.236,0 0.461,0.037 0.674,0.109 0.885,0.182 1.072,0.295 1.236,0.45 1.399,0.604 1.531,0.801 1.631,1.041 1.732,1.28 1.79,1.569 1.809,1.908 H 3.326 C 3.309,1.418 3.207,0.971 3.021,0.568 2.837,0.165 2.595,-0.18 2.295,-0.468 1.995,-0.756 1.648,-0.979 1.254,-1.136 0.861,-1.293 0.442,-1.372 0,-1.372 c -0.637,0 -1.189,0.102 -1.659,0.31 -0.47,0.205 -0.859,0.501 -1.167,0.89 -0.309,0.387 -0.54,0.863 -0.692,1.426 -0.15,0.564 -0.227,1.203 -0.227,1.918 v 1.109 c 0,0.715 0.077,1.353 0.227,1.913 0.152,0.56 0.383,1.036 0.692,1.427 0.308,0.391 0.696,0.69 1.163,0.895 0.466,0.207 1.017,0.309 1.654,0.309 0.496,0 0.946,-0.08 1.35,-0.241 C 1.744,8.424 2.09,8.19 2.377,7.885 2.664,7.578 2.891,7.205 3.054,6.762 3.217,6.32 3.309,5.82 3.326,5.263 H 1.809 C 1.773,5.99 1.598,6.535 1.286,6.898 0.974,7.262 0.542,7.443 -0.009,7.443 -0.434,7.443 -0.782,7.368 -1.055,7.217 -1.326,7.064 -1.543,6.852 -1.704,6.576 -1.865,6.301 -1.977,5.969 -2.041,5.58 -2.104,5.193 -2.135,4.76 -2.135,4.281 V 3.172 c 0,-0.484 0.03,-0.922 0.09,-1.313 0.061,-0.391 0.171,-0.724 0.332,-1 0.16,-0.275 0.378,-0.488 0.654,-0.636 C -0.783,0.074 -0.431,0 0,0"
             style="fill:#182e4c;fill-opacity:1;fill-rule:nonzero;stroke:none"
             id="path985" /></g><g
           id="g987"
           transform="translate(558.1035,314.4033)"><path
             d="m 0,0 c 0.224,0 0.437,0.033 0.636,0.1 0.2,0.066 0.382,0.152 0.546,0.258 0.163,0.107 0.307,0.228 0.431,0.364 0.125,0.136 0.223,0.277 0.295,0.423 V 3.489 H 1.063 C 0.676,3.489 0.326,3.447 0.014,3.362 -0.299,3.277 -0.565,3.154 -0.786,2.994 -1.008,2.834 -1.177,2.635 -1.295,2.398 -1.413,2.162 -1.473,1.893 -1.473,1.59 -1.473,1.293 -1.442,1.043 -1.382,0.84 -1.32,0.637 -1.23,0.473 -1.107,0.35 -0.986,0.225 -0.834,0.136 -0.649,0.081 -0.465,0.026 -0.248,0 0,0 M 2.145,-1.282 C 2.091,-1.161 2.047,-1.005 2.014,-0.814 1.98,-0.623 1.955,-0.422 1.936,-0.21 1.82,-0.379 1.688,-0.54 1.541,-0.691 1.393,-0.843 1.226,-0.977 1.041,-1.092 0.855,-1.207 0.656,-1.297 0.44,-1.364 c -0.214,-0.067 -0.443,-0.1 -0.685,-0.1 -0.431,0 -0.82,0.061 -1.168,0.182 -0.349,0.121 -0.648,0.303 -0.896,0.546 -0.248,0.242 -0.439,0.54 -0.572,0.894 -0.134,0.355 -0.2,0.768 -0.2,1.24 0,0.473 0.082,0.91 0.245,1.309 0.164,0.4 0.406,0.746 0.729,1.037 0.32,0.291 0.722,0.52 1.208,0.686 0.484,0.167 1.047,0.25 1.69,0.25 h 1.117 v 1.045 c 0,0.587 -0.13,1.005 -0.39,1.254 C 1.257,7.228 0.86,7.352 0.327,7.352 0.066,7.352 -0.165,7.311 -0.368,7.229 -0.57,7.147 -0.742,7.037 -0.882,6.897 -1.021,6.758 -1.127,6.596 -1.199,6.411 -1.272,6.227 -1.309,6.031 -1.309,5.825 h -1.607 c 0,0.351 0.076,0.701 0.23,1.05 0.155,0.348 0.375,0.66 0.664,0.936 0.288,0.275 0.637,0.499 1.049,0.668 C -0.561,8.648 -0.1,8.733 0.409,8.733 0.863,8.733 1.28,8.68 1.658,8.57 2.037,8.461 2.364,8.285 2.641,8.043 2.916,7.801 3.13,7.488 3.281,7.106 3.433,6.725 3.508,6.258 3.508,5.707 V 0.863 c 0,-0.164 0.007,-0.337 0.018,-0.518 0.012,-0.182 0.033,-0.361 0.06,-0.536 0.027,-0.176 0.06,-0.344 0.1,-0.504 0.039,-0.161 0.083,-0.309 0.131,-0.442 v -0.145 z"
             style="fill:#182e4c;fill-opacity:1;fill-rule:nonzero;stroke:none"
             id="path989" /></g><g
           id="g991"
           transform="translate(565.6211,322.9551)"><path
             d="m 0,0 0.044,-1.063 c 0.298,0.394 0.647,0.699 1.05,0.917 0.403,0.219 0.849,0.328 1.341,0.328 0.399,0 0.763,-0.066 1.09,-0.196 0.328,-0.13 0.606,-0.339 0.836,-0.627 0.231,-0.288 0.408,-0.657 0.532,-1.108 0.125,-0.452 0.186,-0.999 0.186,-1.641 v -6.444 h -1.6 v 6.462 c 0,0.769 -0.128,1.316 -0.385,1.641 -0.258,0.324 -0.645,0.486 -1.159,0.486 -0.4,0 -0.759,-0.133 -1.078,-0.401 C 0.539,-1.911 0.283,-2.261 0.09,-2.69 V -9.834 H -1.518 V 0 Z"
             style="fill:#182e4c;fill-opacity:1;fill-rule:nonzero;stroke:none"
             id="path993" /></g><g
           id="g995"
           transform="translate(576.0264,314.4033)"><path
             d="m 0,0 c 0.224,0 0.437,0.033 0.636,0.1 0.201,0.066 0.382,0.152 0.547,0.258 0.162,0.107 0.306,0.228 0.43,0.364 0.124,0.136 0.224,0.277 0.295,0.423 V 3.489 H 1.063 C 0.676,3.489 0.325,3.447 0.014,3.362 -0.298,3.277 -0.565,3.154 -0.786,2.994 -1.007,2.834 -1.177,2.635 -1.295,2.398 -1.413,2.162 -1.472,1.893 -1.472,1.59 c 0,-0.297 0.03,-0.547 0.09,-0.75 C -1.321,0.637 -1.23,0.473 -1.108,0.35 -0.987,0.225 -0.835,0.136 -0.649,0.081 -0.464,0.026 -0.247,0 0,0 M 2.145,-1.282 C 2.091,-1.161 2.046,-1.005 2.013,-0.814 1.979,-0.623 1.954,-0.422 1.937,-0.21 1.82,-0.379 1.688,-0.54 1.54,-0.691 1.392,-0.843 1.226,-0.977 1.041,-1.092 0.855,-1.207 0.657,-1.297 0.44,-1.364 c -0.214,-0.067 -0.443,-0.1 -0.685,-0.1 -0.431,0 -0.82,0.061 -1.168,0.182 -0.349,0.121 -0.647,0.303 -0.896,0.546 -0.247,0.242 -0.438,0.54 -0.571,0.894 -0.135,0.355 -0.201,0.768 -0.201,1.24 0,0.473 0.082,0.91 0.245,1.309 0.164,0.4 0.406,0.746 0.728,1.037 0.321,0.291 0.723,0.52 1.209,0.686 0.484,0.167 1.048,0.25 1.69,0.25 h 1.117 v 1.045 c 0,0.587 -0.13,1.005 -0.39,1.254 C 1.257,7.228 0.86,7.352 0.327,7.352 0.066,7.352 -0.165,7.311 -0.368,7.229 -0.571,7.147 -0.742,7.037 -0.882,6.897 -1.021,6.758 -1.126,6.596 -1.2,6.411 -1.272,6.227 -1.309,6.031 -1.309,5.825 h -1.608 c 0,0.351 0.078,0.701 0.232,1.05 0.155,0.348 0.375,0.66 0.663,0.936 0.288,0.275 0.637,0.499 1.05,0.668 C -0.56,8.648 -0.1,8.733 0.409,8.733 0.863,8.733 1.28,8.68 1.658,8.57 2.037,8.461 2.364,8.285 2.641,8.043 2.916,7.801 3.13,7.488 3.282,7.106 3.433,6.725 3.508,6.258 3.508,5.707 V 0.863 c 0,-0.164 0.007,-0.337 0.018,-0.518 0.012,-0.182 0.033,-0.361 0.061,-0.536 0.025,-0.176 0.059,-0.344 0.1,-0.504 0.038,-0.161 0.082,-0.309 0.13,-0.442 v -0.145 z"
             style="fill:#182e4c;fill-opacity:1;fill-rule:nonzero;stroke:none"
             id="path997" /></g><g
           id="g999"
           transform="translate(587.5596,317.5654)"><path
             d="m 0,0 c 0,-1.104 0.164,-1.913 0.491,-2.432 0.327,-0.517 0.861,-0.777 1.6,-0.777 0.448,0 0.814,0.113 1.099,0.337 0.286,0.224 0.515,0.515 0.691,0.872 V 2.963 C 3.699,3.309 3.466,3.592 3.177,3.813 2.889,4.033 2.53,4.145 2.1,4.145 1.354,4.145 0.818,3.881 0.491,3.354 0.164,2.826 0,2.015 0,0.918 Z m -1.608,0.918 c 0,0.806 0.079,1.502 0.236,2.09 0.158,0.588 0.38,1.071 0.668,1.45 0.289,0.378 0.635,0.659 1.041,0.841 0.405,0.181 0.854,0.272 1.346,0.272 0.49,0 0.916,-0.098 1.277,-0.296 C 3.319,5.079 3.628,4.796 3.881,4.426 v 5.09 h 1.61 V -4.444 H 4.018 L 3.937,-3.391 C 3.683,-3.79 3.37,-4.096 3,-4.309 2.63,-4.52 2.188,-4.626 1.673,-4.626 c -0.486,0 -0.928,0.095 -1.332,0.286 -0.403,0.192 -0.748,0.477 -1.036,0.86 -0.287,0.38 -0.511,0.861 -0.672,1.439 -0.161,0.579 -0.241,1.26 -0.241,2.041 z"
             style="fill:#182e4c;fill-opacity:1;fill-rule:nonzero;stroke:none"
             id="path1001" /></g><g
           id="g1003"
           transform="translate(598.8564,321.7549)"><path
             d="M 0,0 C -0.278,0 -0.536,-0.042 -0.772,-0.127 -1.009,-0.212 -1.217,-0.361 -1.394,-0.576 -1.573,-0.792 -1.718,-1.081 -1.827,-1.445 -1.936,-1.809 -2.003,-2.266 -2.026,-2.816 H 1.845 V -2.6 C 1.827,-2.217 1.786,-1.867 1.723,-1.549 1.659,-1.23 1.559,-0.957 1.423,-0.727 1.286,-0.496 1.103,-0.318 0.873,-0.19 0.644,-0.062 0.353,0 0,0 m 0.182,-8.815 c -0.588,0 -1.118,0.087 -1.59,0.263 -0.473,0.175 -0.875,0.444 -1.205,0.804 -0.33,0.361 -0.583,0.816 -0.759,1.368 -0.176,0.552 -0.264,1.202 -0.264,1.954 v 1.11 c 0,0.865 0.104,1.597 0.31,2.194 0.206,0.597 0.476,1.081 0.813,1.454 0.336,0.373 0.723,0.641 1.159,0.805 C -0.918,1.301 -0.467,1.382 0,1.382 0.618,1.382 1.146,1.28 1.581,1.078 2.019,0.875 2.375,0.576 2.654,0.182 2.933,-0.212 3.136,-0.696 3.263,-1.271 3.391,-1.848 3.454,-2.512 3.454,-3.262 v -0.937 h -5.49 v -0.227 c 0,-1.054 0.199,-1.82 0.596,-2.299 0.396,-0.479 0.967,-0.718 1.712,-0.718 0.274,0 0.519,0.027 0.737,0.082 0.219,0.054 0.418,0.132 0.599,0.232 0.183,0.1 0.349,0.216 0.5,0.354 0.153,0.136 0.294,0.287 0.428,0.45 L 3.372,-7.344 C 3.239,-7.531 3.079,-7.713 2.891,-7.889 2.702,-8.064 2.479,-8.221 2.218,-8.356 1.957,-8.492 1.659,-8.604 1.323,-8.688 0.986,-8.773 0.606,-8.815 0.182,-8.815"
             style="fill:#182e4c;fill-opacity:1;fill-rule:nonzero;stroke:none"
             id="path1005" /></g><g
           id="g1007"
           transform="translate(467.6797,298.3721)"><path
             d="m 0,0 c -0.036,-0.686 -0.149,-1.297 -0.341,-1.836 -0.19,-0.539 -0.462,-0.998 -0.813,-1.377 -0.352,-0.379 -0.786,-0.668 -1.304,-0.868 -0.519,-0.2 -1.12,-0.3 -1.805,-0.3 -0.666,0 -1.265,0.131 -1.799,0.391 -0.533,0.261 -0.988,0.633 -1.363,1.118 -0.376,0.484 -0.665,1.069 -0.868,1.754 -0.203,0.684 -0.305,1.454 -0.305,2.308 v 2.445 c 0,0.848 0.102,1.617 0.305,2.304 0.203,0.688 0.497,1.274 0.882,1.758 0.385,0.486 0.855,0.86 1.413,1.123 0.558,0.264 1.187,0.396 1.891,0.396 0.641,0 1.21,-0.097 1.704,-0.291 C -1.91,8.73 -1.49,8.446 -1.145,8.07 -0.8,7.695 -0.529,7.231 -0.336,6.68 -0.143,6.129 -0.029,5.495 0,4.78 H -1.681 C -1.717,5.301 -1.787,5.75 -1.891,6.125 -1.992,6.501 -2.142,6.812 -2.336,7.057 -2.529,7.303 -2.771,7.484 -3.063,7.603 -3.354,7.72 -3.701,7.779 -4.107,7.779 -4.592,7.779 -5.011,7.682 -5.362,7.484 -5.714,7.287 -6.004,7.01 -6.234,6.652 -6.465,6.295 -6.636,5.861 -6.748,5.354 -6.86,4.844 -6.916,4.277 -6.916,3.653 V 1.19 c 0,-0.581 0.047,-1.124 0.141,-1.627 0.093,-0.502 0.246,-0.942 0.454,-1.317 0.209,-0.376 0.483,-0.672 0.823,-0.887 0.34,-0.214 0.751,-0.322 1.235,-0.322 0.455,0 0.838,0.056 1.151,0.168 0.311,0.111 0.566,0.287 0.762,0.527 0.198,0.238 0.348,0.545 0.451,0.918 0.103,0.373 0.175,0.823 0.218,1.35 z"
             style="fill:#182e4c;fill-opacity:1;fill-rule:nonzero;stroke:none"
             id="path1009" /></g><path
           d="m 471.442,294.173 h -1.608 v 9.834 h 1.608 z m -1.699,12.442 c 0,0.273 0.075,0.503 0.227,0.691 0.151,0.187 0.379,0.282 0.681,0.282 0.304,0 0.533,-0.096 0.687,-0.286 0.154,-0.192 0.231,-0.42 0.231,-0.687 0,-0.273 -0.075,-0.5 -0.226,-0.681 -0.152,-0.182 -0.382,-0.273 -0.692,-0.273 -0.302,0 -0.53,0.091 -0.681,0.273 -0.152,0.181 -0.227,0.408 -0.227,0.681"
           style="fill:#182e4c;fill-opacity:1;fill-rule:nonzero;stroke:none"
           id="path1011" /><g
           id="g1013"
           transform="translate(477.3047,302.8076)"><path
             d="m 0,0 c -0.278,0 -0.536,-0.043 -0.772,-0.128 -0.237,-0.085 -0.445,-0.235 -0.623,-0.45 -0.179,-0.215 -0.322,-0.504 -0.431,-0.867 -0.11,-0.364 -0.177,-0.822 -0.2,-1.373 H 1.846 V -2.6 c -0.019,0.381 -0.06,0.732 -0.123,1.049 -0.064,0.319 -0.164,0.593 -0.299,0.823 -0.138,0.23 -0.321,0.41 -0.551,0.537 C 0.643,-0.064 0.352,0 0,0 m 0.182,-8.816 c -0.588,0 -1.118,0.087 -1.59,0.263 -0.473,0.176 -0.875,0.444 -1.205,0.805 -0.33,0.359 -0.583,0.816 -0.759,1.367 -0.176,0.551 -0.264,1.203 -0.264,1.954 v 1.109 c 0,0.867 0.104,1.598 0.311,2.195 0.205,0.597 0.475,1.082 0.812,1.454 0.336,0.373 0.723,0.642 1.159,0.805 0.436,0.163 0.887,0.245 1.354,0.245 0.618,0 1.146,-0.102 1.581,-0.305 0.437,-0.203 0.794,-0.501 1.073,-0.894 0.28,-0.395 0.482,-0.879 0.609,-1.455 0.128,-0.576 0.191,-1.239 0.191,-1.991 v -0.935 h -5.49 v -0.228 c 0,-1.053 0.199,-1.821 0.596,-2.3 0.396,-0.478 0.967,-0.717 1.712,-0.717 0.274,0 0.519,0.027 0.737,0.082 0.219,0.054 0.418,0.132 0.599,0.231 0.183,0.1 0.349,0.219 0.5,0.355 0.152,0.136 0.294,0.286 0.428,0.45 L 3.372,-7.344 C 3.238,-7.532 3.078,-7.714 2.891,-7.89 2.702,-8.065 2.479,-8.221 2.218,-8.357 1.957,-8.494 1.659,-8.604 1.322,-8.689 0.986,-8.773 0.605,-8.816 0.182,-8.816"
             style="fill:#182e4c;fill-opacity:1;fill-rule:nonzero;stroke:none"
             id="path1015" /></g><g
           id="g1017"
           transform="translate(484.2031,304.0068)"><path
             d="m 0,0 0.045,-1.063 c 0.297,0.393 0.648,0.7 1.05,0.917 0.403,0.218 0.849,0.328 1.341,0.328 0.399,0 0.763,-0.065 1.09,-0.196 0.328,-0.131 0.606,-0.34 0.836,-0.627 C 4.593,-0.929 4.77,-1.299 4.894,-1.75 5.019,-2.201 5.08,-2.748 5.08,-3.391 v -6.443 h -1.6 v 6.462 c 0,0.769 -0.128,1.316 -0.385,1.641 -0.258,0.324 -0.645,0.486 -1.159,0.486 -0.4,0 -0.759,-0.134 -1.077,-0.4 C 0.54,-1.912 0.285,-2.26 0.091,-2.69 V -9.834 H -1.518 V 0 Z"
             style="fill:#182e4c;fill-opacity:1;fill-rule:nonzero;stroke:none"
             id="path1019" /></g><g
           id="g1021"
           transform="translate(495.1094,295.3633)"><path
             d="m 0,0 c 0.236,0 0.46,0.036 0.673,0.109 0.212,0.074 0.399,0.187 0.563,0.341 0.163,0.154 0.295,0.352 0.395,0.591 0.1,0.239 0.16,0.528 0.178,0.868 H 3.326 C 3.309,1.418 3.207,0.972 3.021,0.568 2.837,0.165 2.595,-0.181 2.295,-0.468 1.995,-0.756 1.647,-0.979 1.254,-1.136 0.86,-1.294 0.442,-1.372 0,-1.372 c -0.637,0 -1.189,0.103 -1.659,0.309 -0.47,0.206 -0.859,0.502 -1.168,0.89 -0.309,0.389 -0.539,0.863 -0.691,1.428 -0.151,0.562 -0.227,1.202 -0.227,1.918 V 4.28 c 0,0.715 0.076,1.354 0.227,1.914 0.152,0.561 0.382,1.036 0.691,1.427 0.309,0.391 0.697,0.689 1.164,0.896 0.466,0.205 1.017,0.308 1.654,0.308 0.496,0 0.946,-0.08 1.35,-0.24 C 1.744,8.424 2.089,8.19 2.377,7.885 2.664,7.579 2.89,7.204 3.054,6.763 3.217,6.319 3.309,5.819 3.326,5.263 H 1.809 C 1.772,5.989 1.598,6.535 1.287,6.898 0.975,7.263 0.542,7.444 -0.009,7.444 -0.434,7.444 -0.782,7.368 -1.055,7.217 -1.327,7.065 -1.544,6.852 -1.704,6.575 -1.865,6.3 -1.977,5.968 -2.041,5.581 -2.104,5.192 -2.136,4.76 -2.136,4.28 V 3.173 c 0,-0.485 0.031,-0.924 0.091,-1.315 0.061,-0.39 0.171,-0.723 0.332,-1 0.16,-0.275 0.379,-0.487 0.654,-0.635 C -0.783,0.074 -0.43,0 0,0"
             style="fill:#182e4c;fill-opacity:1;fill-rule:nonzero;stroke:none"
             id="path1023" /></g><path
           d="m 502.026,294.173 h -1.608 v 9.834 h 1.608 z m -1.699,12.442 c 0,0.273 0.075,0.503 0.228,0.691 0.15,0.187 0.378,0.282 0.68,0.282 0.304,0 0.533,-0.096 0.687,-0.286 0.154,-0.192 0.231,-0.42 0.231,-0.687 0,-0.273 -0.075,-0.5 -0.226,-0.681 -0.152,-0.182 -0.382,-0.273 -0.692,-0.273 -0.302,0 -0.53,0.091 -0.68,0.273 -0.153,0.181 -0.228,0.408 -0.228,0.681"
           style="fill:#182e4c;fill-opacity:1;fill-rule:nonzero;stroke:none"
           id="path1025" /><g
           id="g1027"
           transform="translate(507.4707,295.4541)"><path
             d="M 0,0 C 0.224,0 0.437,0.033 0.636,0.1 0.836,0.167 1.018,0.254 1.182,0.359 1.345,0.465 1.489,0.586 1.613,0.723 1.738,0.859 1.836,1 1.908,1.146 V 3.49 H 1.063 C 0.676,3.49 0.325,3.447 0.014,3.363 -0.299,3.278 -0.565,3.155 -0.786,2.995 -1.008,2.834 -1.177,2.636 -1.295,2.4 -1.413,2.164 -1.473,1.894 -1.473,1.591 c 0,-0.297 0.031,-0.547 0.091,-0.75 C -1.32,0.638 -1.23,0.475 -1.107,0.35 -0.987,0.227 -0.835,0.137 -0.649,0.082 -0.465,0.027 -0.248,0 0,0 M 2.145,-1.281 C 2.092,-1.16 2.046,-1.004 2.013,-0.812 1.979,-0.623 1.955,-0.421 1.936,-0.209 1.82,-0.379 1.688,-0.539 1.54,-0.69 1.393,-0.842 1.226,-0.976 1.041,-1.09 0.855,-1.205 0.656,-1.297 0.44,-1.363 c -0.214,-0.067 -0.443,-0.1 -0.685,-0.1 -0.431,0 -0.82,0.061 -1.168,0.182 -0.349,0.121 -0.648,0.302 -0.896,0.544 -0.248,0.243 -0.439,0.542 -0.572,0.896 -0.134,0.354 -0.2,0.769 -0.2,1.241 0,0.473 0.082,0.909 0.245,1.309 0.164,0.399 0.406,0.745 0.729,1.035 0.32,0.291 0.722,0.519 1.208,0.688 0.484,0.166 1.047,0.25 1.69,0.25 h 1.117 v 1.045 c 0,0.587 -0.13,1.005 -0.39,1.253 C 1.258,7.229 0.86,7.354 0.327,7.354 0.066,7.354 -0.165,7.312 -0.367,7.23 -0.57,7.148 -0.741,7.038 -0.882,6.898 -1.021,6.76 -1.127,6.598 -1.199,6.412 -1.272,6.228 -1.309,6.032 -1.309,5.826 h -1.607 c 0,0.352 0.076,0.701 0.23,1.05 0.155,0.349 0.375,0.66 0.664,0.936 0.288,0.276 0.637,0.499 1.049,0.668 C -0.561,8.649 -0.1,8.734 0.409,8.734 0.863,8.734 1.28,8.68 1.658,8.57 2.037,8.462 2.364,8.286 2.641,8.044 2.916,7.801 3.13,7.489 3.281,7.107 3.433,6.727 3.509,6.26 3.509,5.708 V 0.863 c 0,-0.163 0.006,-0.336 0.017,-0.517 0.012,-0.182 0.033,-0.362 0.06,-0.536 0.027,-0.176 0.06,-0.345 0.1,-0.505 0.039,-0.16 0.083,-0.307 0.131,-0.441 v -0.145 z"
             style="fill:#182e4c;fill-opacity:1;fill-rule:nonzero;stroke:none"
             id="path1029" /></g><g
           id="g1031"
           transform="translate(518.25,296.6904)"><path
             d="M 0,0 C 0,0.182 -0.033,0.347 -0.1,0.495 -0.166,0.644 -0.276,0.786 -0.428,0.922 -0.579,1.059 -0.774,1.193 -1.014,1.327 -1.253,1.46 -1.548,1.605 -1.899,1.764 -2.354,1.951 -2.762,2.136 -3.122,2.317 -3.482,2.5 -3.785,2.701 -4.031,2.922 -4.276,3.143 -4.464,3.397 -4.595,3.686 -4.725,3.973 -4.79,4.314 -4.79,4.708 c 0,0.388 0.074,0.751 0.224,1.091 0.147,0.339 0.358,0.635 0.63,0.886 0.274,0.251 0.6,0.45 0.982,0.595 0.382,0.146 0.808,0.218 1.281,0.218 0.497,0 0.943,-0.076 1.337,-0.227 C 0.059,7.119 0.391,6.908 0.663,6.639 0.936,6.369 1.146,6.053 1.29,5.689 1.436,5.326 1.509,4.936 1.509,4.518 h -1.6 c 0,0.199 -0.034,0.394 -0.104,0.586 -0.071,0.19 -0.173,0.361 -0.309,0.513 C -0.641,5.768 -0.806,5.89 -1,5.98 -1.194,6.071 -1.418,6.117 -1.673,6.117 -1.945,6.117 -2.177,6.078 -2.368,6.003 -2.559,5.928 -2.715,5.827 -2.836,5.703 -2.957,5.579 -3.046,5.436 -3.104,5.271 -3.161,5.107 -3.19,4.937 -3.19,4.763 -3.19,4.58 -3.164,4.425 -3.113,4.295 -3.062,4.164 -2.971,4.041 -2.845,3.926 -2.717,3.811 -2.544,3.695 -2.322,3.581 -2.102,3.466 -1.816,3.332 -1.473,3.182 -0.975,2.986 -0.535,2.791 -0.15,2.595 0.234,2.398 0.559,2.183 0.818,1.949 1.078,1.717 1.275,1.451 1.408,1.154 1.542,0.857 1.608,0.512 1.608,0.118 1.608,-0.312 1.531,-0.701 1.377,-1.05 1.223,-1.398 1.003,-1.695 0.718,-1.94 0.434,-2.186 0.092,-2.373 -0.31,-2.504 c -0.399,-0.131 -0.841,-0.195 -1.326,-0.195 -0.557,0 -1.052,0.086 -1.481,0.259 -0.431,0.172 -0.791,0.403 -1.082,0.69 -0.291,0.288 -0.511,0.619 -0.659,0.996 -0.149,0.375 -0.223,0.766 -0.223,1.172 h 1.618 c 0.012,-0.346 0.076,-0.631 0.192,-0.854 0.114,-0.224 0.259,-0.404 0.431,-0.537 0.172,-0.132 0.365,-0.225 0.576,-0.277 0.213,-0.051 0.422,-0.077 0.628,-0.077 0.533,0 0.939,0.12 1.218,0.359 C -0.14,-0.729 0,-0.406 0,0"
             style="fill:#182e4c;fill-opacity:1;fill-rule:nonzero;stroke:none"
             id="path1033" /></g><g
           id="g1035"
           transform="translate(532.2187,297.5176)"><path
             d="m 0,0 c 0,0.31 -0.034,0.581 -0.104,0.817 -0.07,0.237 -0.199,0.454 -0.386,0.651 -0.189,0.197 -0.443,0.382 -0.764,0.554 -0.32,0.172 -0.736,0.35 -1.244,0.532 -0.545,0.187 -1.04,0.401 -1.482,0.64 -0.443,0.241 -0.82,0.516 -1.132,0.827 -0.312,0.312 -0.552,0.668 -0.723,1.068 -0.169,0.4 -0.254,0.857 -0.254,1.373 0,0.516 0.089,0.992 0.268,1.432 0.178,0.439 0.433,0.82 0.763,1.144 0.331,0.324 0.731,0.578 1.201,0.76 0.468,0.181 0.992,0.272 1.568,0.272 0.642,0 1.209,-0.112 1.703,-0.337 C -0.092,9.51 0.323,9.213 0.659,8.843 0.995,8.474 1.248,8.046 1.418,7.562 1.588,7.077 1.673,6.577 1.673,6.062 H 0 C 0,6.432 -0.043,6.774 -0.131,7.089 -0.219,7.404 -0.357,7.677 -0.545,7.907 -0.732,8.138 -0.971,8.315 -1.259,8.443 -1.546,8.57 -1.891,8.634 -2.289,8.634 -2.66,8.634 -2.977,8.579 -3.244,8.471 -3.51,8.361 -3.73,8.212 -3.903,8.021 -4.076,7.829 -4.203,7.604 -4.285,7.344 -4.367,7.083 -4.406,6.798 -4.406,6.489 c 0,-0.557 0.198,-1.023 0.598,-1.4 0.4,-0.375 1.019,-0.711 1.854,-1.008 C -1.311,3.868 -0.76,3.634 -0.3,3.376 0.161,3.118 0.538,2.827 0.832,2.499 1.127,2.172 1.341,1.806 1.478,1.399 1.613,0.993 1.682,0.533 1.682,0.019 1.682,-0.521 1.591,-1.009 1.409,-1.445 1.228,-1.882 0.969,-2.254 0.632,-2.563 0.296,-2.872 -0.112,-3.11 -0.591,-3.276 c -0.477,-0.167 -1.017,-0.25 -1.617,-0.25 -0.521,0 -1.035,0.085 -1.54,0.254 -0.507,0.169 -0.958,0.422 -1.354,0.759 -0.398,0.336 -0.719,0.756 -0.964,1.258 -0.245,0.504 -0.369,1.085 -0.369,1.746 h 1.673 c 0,-0.455 0.067,-0.844 0.2,-1.168 0.133,-0.324 0.316,-0.593 0.549,-0.804 0.234,-0.213 0.505,-0.369 0.814,-0.469 0.309,-0.1 0.639,-0.15 0.991,-0.15 0.732,0 1.284,0.189 1.654,0.564 C -0.185,-1.161 0,-0.648 0,0"
             style="fill:#182e4c;fill-opacity:1;fill-rule:nonzero;stroke:none"
             id="path1037" /></g><g
           id="g1039"
           transform="translate(537.126,298.6172)"><path
             d="M 0,0 C 0,-0.546 0.058,-1.021 0.169,-1.427 0.28,-1.833 0.437,-2.171 0.632,-2.44 0.829,-2.71 1.062,-2.913 1.327,-3.05 1.595,-3.186 1.885,-3.254 2.2,-3.254 3.66,-3.254 4.391,-2.169 4.391,0 V 0.927 C 4.391,1.466 4.334,1.938 4.222,2.345 4.11,2.751 3.955,3.091 3.759,3.362 3.562,3.636 3.328,3.841 3.059,3.981 2.789,4.12 2.497,4.19 2.183,4.19 1.874,4.19 1.585,4.12 1.318,3.981 1.052,3.841 0.821,3.636 0.628,3.362 0.434,3.091 0.28,2.751 0.169,2.345 0.058,1.938 0,1.466 0,0.927 Z m -1.608,0.927 c 0,0.769 0.099,1.443 0.296,2.022 0.196,0.579 0.465,1.062 0.808,1.45 0.342,0.387 0.743,0.68 1.204,0.877 0.461,0.197 0.954,0.295 1.483,0.295 0.533,0 1.033,-0.098 1.5,-0.295 C 4.147,5.079 4.554,4.786 4.896,4.399 5.237,4.011 5.507,3.528 5.703,2.949 5.9,2.37 5.999,1.696 5.999,0.927 V 0 C 5.999,-0.763 5.9,-1.435 5.703,-2.013 5.507,-2.592 5.237,-3.075 4.896,-3.463 4.554,-3.851 4.15,-4.142 3.69,-4.335 3.229,-4.529 2.733,-4.626 2.2,-4.626 c -0.533,0 -1.032,0.097 -1.495,0.291 -0.464,0.193 -0.867,0.484 -1.209,0.872 -0.343,0.388 -0.612,0.871 -0.808,1.45 -0.197,0.578 -0.296,1.25 -0.296,2.013 z"
             style="fill:#182e4c;fill-opacity:1;fill-rule:nonzero;stroke:none"
             id="path1041" /></g><g
           id="g1043"
           transform="translate(548.6152,295.3633)"><path
             d="M 0,0 C 0.236,0 0.46,0.036 0.673,0.109 0.885,0.183 1.072,0.296 1.236,0.45 1.399,0.604 1.531,0.802 1.631,1.041 1.731,1.28 1.79,1.569 1.809,1.909 H 3.326 C 3.309,1.418 3.207,0.972 3.021,0.568 2.837,0.165 2.595,-0.181 2.295,-0.468 1.995,-0.756 1.647,-0.979 1.254,-1.136 0.86,-1.294 0.443,-1.372 0,-1.372 c -0.637,0 -1.189,0.103 -1.659,0.309 -0.47,0.206 -0.859,0.502 -1.168,0.89 -0.309,0.389 -0.538,0.863 -0.691,1.428 -0.151,0.562 -0.226,1.202 -0.226,1.918 V 4.28 c 0,0.715 0.075,1.354 0.226,1.914 0.153,0.561 0.382,1.036 0.691,1.427 0.309,0.391 0.697,0.689 1.164,0.896 0.466,0.205 1.018,0.308 1.654,0.308 0.497,0 0.946,-0.08 1.35,-0.24 C 1.743,8.424 2.089,8.19 2.377,7.885 2.664,7.579 2.89,7.204 3.054,6.763 3.217,6.319 3.309,5.819 3.326,5.263 H 1.809 C 1.772,5.989 1.598,6.535 1.286,6.898 0.974,7.263 0.543,7.444 -0.009,7.444 -0.434,7.444 -0.781,7.368 -1.055,7.217 -1.327,7.065 -1.544,6.852 -1.704,6.575 -1.865,6.3 -1.977,5.968 -2.041,5.581 -2.104,5.192 -2.136,4.76 -2.136,4.28 V 3.173 c 0,-0.485 0.031,-0.924 0.091,-1.315 0.061,-0.39 0.172,-0.723 0.332,-1 0.16,-0.275 0.378,-0.487 0.654,-0.635 C -0.783,0.074 -0.431,0 0,0"
             style="fill:#182e4c;fill-opacity:1;fill-rule:nonzero;stroke:none"
             id="path1045" /></g><path
           d="m 555.531,294.173 h -1.608 v 9.834 h 1.608 z m -1.699,12.442 c 0,0.273 0.076,0.503 0.227,0.691 0.151,0.187 0.378,0.282 0.681,0.282 0.304,0 0.532,-0.096 0.687,-0.286 0.154,-0.192 0.231,-0.42 0.231,-0.687 0,-0.273 -0.074,-0.5 -0.226,-0.681 -0.152,-0.182 -0.381,-0.273 -0.692,-0.273 -0.303,0 -0.53,0.091 -0.681,0.273 -0.151,0.181 -0.227,0.408 -0.227,0.681"
           style="fill:#182e4c;fill-opacity:1;fill-rule:nonzero;stroke:none"
           id="path1047" /><g
           id="g1049"
           transform="translate(560.9756,295.4541)"><path
             d="M 0,0 C 0.224,0 0.437,0.033 0.636,0.1 0.837,0.167 1.018,0.254 1.183,0.359 1.345,0.465 1.489,0.586 1.613,0.723 1.737,0.859 1.837,1 1.908,1.146 V 3.49 H 1.063 C 0.676,3.49 0.325,3.447 0.014,3.363 -0.299,3.278 -0.565,3.155 -0.786,2.995 -1.008,2.834 -1.177,2.636 -1.295,2.4 -1.413,2.164 -1.473,1.894 -1.473,1.591 c 0,-0.297 0.031,-0.547 0.091,-0.75 C -1.321,0.638 -1.229,0.475 -1.108,0.35 -0.987,0.227 -0.835,0.137 -0.649,0.082 -0.465,0.027 -0.247,0 0,0 M 2.146,-1.281 C 2.091,-1.16 2.046,-1.004 2.013,-0.812 1.979,-0.623 1.954,-0.421 1.936,-0.209 1.82,-0.379 1.688,-0.539 1.54,-0.69 1.392,-0.842 1.226,-0.976 1.041,-1.09 0.855,-1.205 0.656,-1.297 0.44,-1.363 c -0.214,-0.067 -0.443,-0.1 -0.685,-0.1 -0.43,0 -0.82,0.061 -1.168,0.182 -0.349,0.121 -0.648,0.302 -0.896,0.544 -0.248,0.243 -0.438,0.542 -0.571,0.896 -0.135,0.354 -0.201,0.769 -0.201,1.241 0,0.473 0.082,0.909 0.245,1.309 0.165,0.399 0.406,0.745 0.728,1.035 0.321,0.291 0.724,0.519 1.209,0.688 0.484,0.166 1.048,0.25 1.69,0.25 h 1.117 v 1.045 c 0,0.587 -0.13,1.005 -0.39,1.253 C 1.257,7.229 0.86,7.354 0.327,7.354 0.066,7.354 -0.165,7.312 -0.368,7.23 -0.571,7.148 -0.742,7.038 -0.882,6.898 -1.021,6.76 -1.127,6.598 -1.2,6.412 -1.272,6.228 -1.309,6.032 -1.309,5.826 h -1.608 c 0,0.352 0.077,0.701 0.231,1.05 0.155,0.349 0.375,0.66 0.664,0.936 0.289,0.276 0.638,0.499 1.049,0.668 C -0.561,8.649 -0.1,8.734 0.409,8.734 0.863,8.734 1.28,8.68 1.658,8.57 2.037,8.462 2.364,8.286 2.642,8.044 2.916,7.801 3.13,7.489 3.281,7.107 3.433,6.727 3.508,6.26 3.508,5.708 V 0.863 C 3.508,0.7 3.515,0.527 3.526,0.346 3.538,0.164 3.559,-0.016 3.587,-0.19 3.612,-0.366 3.646,-0.535 3.686,-0.695 3.725,-0.855 3.769,-1.002 3.817,-1.136 v -0.145 z"
             style="fill:#182e4c;fill-opacity:1;fill-rule:nonzero;stroke:none"
             id="path1051" /></g><path
           d="m 568.71,294.173 h -1.608 v 13.961 h 1.608 z"
           style="fill:#182e4c;fill-opacity:1;fill-rule:nonzero;stroke:none"
           id="path1053" /><g
           id="g1055"
           transform="translate(574.5723,302.8076)"><path
             d="m 0,0 c -0.278,0 -0.536,-0.043 -0.771,-0.128 -0.238,-0.085 -0.446,-0.235 -0.624,-0.45 -0.179,-0.215 -0.323,-0.504 -0.431,-0.867 -0.11,-0.364 -0.177,-0.822 -0.2,-1.373 H 1.845 V -2.6 c -0.017,0.381 -0.059,0.732 -0.122,1.049 -0.064,0.319 -0.164,0.593 -0.299,0.823 -0.138,0.23 -0.32,0.41 -0.551,0.537 C 0.643,-0.064 0.352,0 0,0 m 0.182,-8.816 c -0.588,0 -1.118,0.087 -1.59,0.263 -0.473,0.176 -0.875,0.444 -1.205,0.805 -0.33,0.359 -0.583,0.816 -0.759,1.367 -0.175,0.551 -0.263,1.203 -0.263,1.954 v 1.109 c 0,0.867 0.103,1.598 0.309,2.195 0.206,0.597 0.476,1.082 0.813,1.454 0.337,0.373 0.724,0.642 1.159,0.805 C -0.918,1.299 -0.467,1.381 0,1.381 0.618,1.381 1.146,1.279 1.582,1.076 2.018,0.873 2.375,0.575 2.654,0.182 2.933,-0.213 3.137,-0.697 3.263,-1.273 3.391,-1.849 3.454,-2.512 3.454,-3.264 v -0.935 h -5.49 v -0.228 c 0,-1.053 0.199,-1.821 0.596,-2.3 0.397,-0.478 0.967,-0.717 1.713,-0.717 0.273,0 0.518,0.027 0.736,0.082 0.22,0.054 0.419,0.132 0.599,0.231 0.183,0.1 0.349,0.219 0.5,0.355 0.152,0.136 0.294,0.286 0.428,0.45 L 3.372,-7.344 C 3.238,-7.532 3.078,-7.714 2.891,-7.89 2.703,-8.065 2.479,-8.221 2.218,-8.357 1.957,-8.494 1.659,-8.604 1.322,-8.689 0.986,-8.773 0.605,-8.816 0.182,-8.816"
             style="fill:#182e4c;fill-opacity:1;fill-rule:nonzero;stroke:none"
             id="path1057" /></g><g
           id="g1059"
           transform="translate(584.7334,296.6904)"><path
             d="m 0,0 c 0,0.182 -0.033,0.347 -0.1,0.495 -0.067,0.149 -0.176,0.291 -0.328,0.427 -0.151,0.137 -0.346,0.271 -0.585,0.405 -0.24,0.133 -0.535,0.278 -0.886,0.437 -0.455,0.187 -0.863,0.372 -1.223,0.553 -0.36,0.183 -0.663,0.384 -0.909,0.605 -0.245,0.221 -0.433,0.475 -0.564,0.764 -0.13,0.287 -0.195,0.628 -0.195,1.022 0,0.388 0.074,0.751 0.223,1.091 0.148,0.339 0.359,0.635 0.631,0.886 0.273,0.251 0.6,0.45 0.982,0.595 0.382,0.146 0.808,0.218 1.281,0.218 0.498,0 0.943,-0.076 1.337,-0.227 C 0.058,7.119 0.392,6.908 0.663,6.639 0.936,6.369 1.146,6.053 1.29,5.689 1.436,5.326 1.509,4.936 1.509,4.518 h -1.6 c 0,0.199 -0.035,0.394 -0.104,0.586 -0.071,0.19 -0.173,0.361 -0.31,0.513 C -0.641,5.768 -0.806,5.89 -1,5.98 -1.194,6.071 -1.418,6.117 -1.673,6.117 -1.945,6.117 -2.177,6.078 -2.368,6.003 -2.558,5.928 -2.714,5.827 -2.836,5.703 -2.957,5.579 -3.046,5.436 -3.104,5.271 -3.161,5.107 -3.19,4.937 -3.19,4.763 c 0,-0.183 0.026,-0.338 0.078,-0.468 0.05,-0.131 0.14,-0.254 0.267,-0.369 0.127,-0.115 0.301,-0.231 0.523,-0.345 0.22,-0.115 0.505,-0.249 0.849,-0.399 C -0.976,2.986 -0.535,2.791 -0.149,2.595 0.234,2.398 0.558,2.183 0.818,1.949 1.079,1.717 1.275,1.451 1.408,1.154 1.542,0.857 1.608,0.512 1.608,0.118 1.608,-0.312 1.531,-0.701 1.377,-1.05 1.223,-1.398 1.003,-1.695 0.718,-1.94 0.433,-2.186 0.091,-2.373 -0.31,-2.504 c -0.398,-0.131 -0.841,-0.195 -1.326,-0.195 -0.557,0 -1.052,0.086 -1.48,0.259 -0.432,0.172 -0.792,0.403 -1.083,0.69 -0.291,0.288 -0.511,0.619 -0.659,0.996 -0.149,0.375 -0.223,0.766 -0.223,1.172 h 1.619 c 0.012,-0.346 0.074,-0.631 0.19,-0.854 0.115,-0.224 0.259,-0.404 0.433,-0.537 0.171,-0.132 0.363,-0.225 0.576,-0.277 0.213,-0.051 0.421,-0.077 0.627,-0.077 0.533,0 0.939,0.12 1.218,0.359 C -0.14,-0.729 0,-0.406 0,0"
             style="fill:#182e4c;fill-opacity:1;fill-rule:nonzero;stroke:none"
             id="path1061" /></g><g
           id="g1063"
           transform="translate(588.541,295.0547)"><path
             d="m 0,0 c 0,0.29 0.087,0.532 0.26,0.728 0.172,0.193 0.431,0.29 0.776,0.29 0.346,0 0.608,-0.097 0.786,-0.29 C 2.001,0.532 2.091,0.29 2.091,0 2.091,-0.278 2.001,-0.513 1.822,-0.7 1.644,-0.888 1.382,-0.981 1.036,-0.981 0.691,-0.981 0.432,-0.888 0.26,-0.7 0.087,-0.513 0,-0.278 0,0"
             style="fill:#182e4c;fill-opacity:1;fill-rule:nonzero;stroke:none"
             id="path1065" /></g><g
           id="g1067"
           transform="translate(465.1621,278.5693)"><path
             d="m 0,0 c 0,0.31 -0.034,0.582 -0.104,0.818 -0.07,0.237 -0.199,0.453 -0.386,0.651 -0.189,0.196 -0.443,0.381 -0.764,0.553 -0.32,0.173 -0.736,0.351 -1.245,0.533 -0.545,0.187 -1.039,0.4 -1.481,0.64 -0.443,0.24 -0.819,0.515 -1.131,0.826 -0.313,0.313 -0.554,0.668 -0.724,1.069 -0.169,0.4 -0.254,0.857 -0.254,1.373 0,0.515 0.089,0.992 0.268,1.432 0.178,0.438 0.434,0.82 0.763,1.144 0.33,0.324 0.731,0.577 1.201,0.759 0.468,0.182 0.991,0.272 1.567,0.272 0.643,0 1.21,-0.111 1.704,-0.336 C -0.092,9.51 0.323,9.213 0.659,8.844 0.995,8.475 1.248,8.047 1.418,7.562 1.588,7.077 1.673,6.578 1.673,6.062 H 0 C 0,6.432 -0.044,6.774 -0.132,7.09 -0.22,7.404 -0.357,7.678 -0.545,7.908 -0.732,8.138 -0.971,8.316 -1.259,8.443 -1.545,8.57 -1.891,8.635 -2.29,8.635 -2.66,8.635 -2.978,8.58 -3.244,8.471 -3.511,8.361 -3.73,8.212 -3.903,8.021 -4.076,7.83 -4.203,7.604 -4.285,7.344 -4.367,7.084 -4.407,6.799 -4.407,6.49 c 0,-0.558 0.199,-1.024 0.599,-1.4 0.4,-0.375 1.018,-0.712 1.855,-1.009 C -1.312,3.869 -0.76,3.635 -0.299,3.377 0.161,3.119 0.538,2.827 0.832,2.5 1.126,2.172 1.341,1.807 1.478,1.4 1.613,0.994 1.682,0.533 1.682,0.019 1.682,-0.521 1.591,-1.008 1.409,-1.445 1.228,-1.881 0.968,-2.254 0.632,-2.563 0.297,-2.871 -0.111,-3.109 -0.591,-3.275 c -0.478,-0.168 -1.016,-0.25 -1.617,-0.25 -0.521,0 -1.035,0.084 -1.541,0.254 -0.506,0.169 -0.957,0.421 -1.354,0.758 -0.397,0.337 -0.718,0.756 -0.963,1.259 -0.246,0.503 -0.368,1.084 -0.368,1.745 h 1.672 c 0,-0.454 0.067,-0.844 0.2,-1.168 0.133,-0.324 0.316,-0.593 0.55,-0.803 0.233,-0.213 0.504,-0.37 0.813,-0.469 0.309,-0.1 0.64,-0.151 0.991,-0.151 0.733,0 1.284,0.189 1.654,0.565 C -0.184,-1.16 0,-0.648 0,0"
             style="fill:#182e4c;fill-opacity:1;fill-rule:nonzero;stroke:none"
             id="path1069" /></g><g
           id="g1071"
           transform="translate(472.1338,283.8594)"><path
             d="M 0,0 C -0.278,0 -0.536,-0.042 -0.772,-0.128 -1.009,-0.212 -1.217,-0.362 -1.395,-0.577 -1.574,-0.792 -1.718,-1.081 -1.827,-1.445 -1.936,-1.809 -2.003,-2.267 -2.026,-2.817 H 1.846 V -2.6 c -0.019,0.382 -0.06,0.732 -0.123,1.05 -0.064,0.319 -0.164,0.592 -0.3,0.822 -0.137,0.231 -0.32,0.41 -0.55,0.538 C 0.643,-0.063 0.352,0 0,0 m 0.182,-8.815 c -0.587,0 -1.118,0.087 -1.59,0.263 -0.473,0.175 -0.875,0.444 -1.204,0.804 -0.331,0.36 -0.584,0.816 -0.76,1.368 -0.176,0.551 -0.264,1.202 -0.264,1.953 v 1.11 c 0,0.866 0.104,1.597 0.31,2.195 0.206,0.596 0.476,1.081 0.813,1.453 0.336,0.373 0.723,0.642 1.159,0.805 C -0.918,1.3 -0.467,1.382 0,1.382 0.618,1.382 1.146,1.28 1.581,1.077 2.018,0.874 2.375,0.575 2.654,0.182 2.933,-0.212 3.136,-0.696 3.263,-1.272 3.392,-1.849 3.454,-2.512 3.454,-3.263 v -0.936 h -5.49 v -0.228 c 0,-1.053 0.199,-1.82 0.596,-2.299 0.396,-0.478 0.967,-0.718 1.712,-0.718 0.274,0 0.52,0.027 0.737,0.082 0.219,0.054 0.418,0.133 0.599,0.232 0.184,0.1 0.349,0.218 0.5,0.354 0.152,0.136 0.294,0.287 0.428,0.451 L 3.372,-7.344 C 3.238,-7.532 3.079,-7.714 2.892,-7.89 2.702,-8.065 2.479,-8.221 2.218,-8.356 1.957,-8.493 1.659,-8.604 1.322,-8.688 0.986,-8.773 0.605,-8.815 0.182,-8.815"
             style="fill:#182e4c;fill-opacity:1;fill-rule:nonzero;stroke:none"
             id="path1073" /></g><g
           id="g1075"
           transform="translate(478.7861,279.6689)"><path
             d="m 0,0 c 0,-1.103 0.164,-1.912 0.491,-2.431 0.327,-0.518 0.861,-0.777 1.6,-0.777 0.448,0 0.814,0.112 1.099,0.337 0.286,0.224 0.516,0.515 0.691,0.872 V 2.963 C 3.699,3.309 3.465,3.592 3.177,3.813 2.89,4.034 2.53,4.145 2.1,4.145 1.354,4.145 0.818,3.881 0.491,3.354 0.164,2.827 0,2.016 0,0.918 Z m -1.608,0.918 c 0,0.807 0.079,1.503 0.236,2.091 0.157,0.588 0.38,1.071 0.668,1.45 0.288,0.378 0.635,0.658 1.041,0.839 0.405,0.182 0.855,0.274 1.345,0.274 0.491,0 0.917,-0.099 1.277,-0.296 C 3.319,5.08 3.627,4.797 3.881,4.427 v 5.09 H 5.49 V -4.443 H 4.019 L 3.936,-3.39 C 3.682,-3.789 3.369,-4.096 3,-4.308 2.63,-4.52 2.188,-4.625 1.673,-4.625 c -0.486,0 -0.929,0.095 -1.332,0.285 -0.403,0.192 -0.748,0.478 -1.036,0.86 -0.286,0.381 -0.512,0.861 -0.672,1.44 -0.161,0.579 -0.241,1.259 -0.241,2.04 z"
             style="fill:#182e4c;fill-opacity:1;fill-rule:nonzero;stroke:none"
             id="path1077" /></g><g
           id="g1079"
           transform="translate(490.084,283.8594)"><path
             d="M 0,0 C -0.279,0 -0.537,-0.042 -0.773,-0.128 -1.01,-0.212 -1.217,-0.362 -1.396,-0.577 -1.575,-0.792 -1.719,-1.081 -1.828,-1.445 -1.937,-1.809 -2.004,-2.267 -2.027,-2.817 H 1.844 V -2.6 c -0.018,0.382 -0.059,0.732 -0.122,1.05 -0.064,0.319 -0.164,0.592 -0.3,0.822 -0.137,0.231 -0.32,0.41 -0.55,0.538 C 0.642,-0.063 0.351,0 0,0 m 0.181,-8.815 c -0.588,0 -1.118,0.087 -1.589,0.263 -0.474,0.175 -0.875,0.444 -1.206,0.804 -0.33,0.36 -0.583,0.816 -0.759,1.368 -0.176,0.551 -0.264,1.202 -0.264,1.953 v 1.11 c 0,0.866 0.104,1.597 0.31,2.195 0.206,0.596 0.476,1.081 0.813,1.453 0.336,0.373 0.723,0.642 1.16,0.805 C -0.919,1.3 -0.467,1.382 0,1.382 0.617,1.382 1.146,1.28 1.58,1.077 2.017,0.874 2.375,0.575 2.654,0.182 2.932,-0.212 3.135,-0.696 3.262,-1.272 3.39,-1.849 3.453,-2.512 3.453,-3.263 v -0.936 h -5.49 v -0.228 c 0,-1.053 0.199,-1.82 0.596,-2.299 0.396,-0.478 0.967,-0.718 1.712,-0.718 0.274,0 0.519,0.027 0.737,0.082 0.219,0.054 0.418,0.133 0.599,0.232 0.183,0.1 0.349,0.218 0.5,0.354 0.152,0.136 0.294,0.287 0.428,0.451 L 3.371,-7.344 C 3.237,-7.532 3.077,-7.714 2.89,-7.89 2.701,-8.065 2.479,-8.221 2.217,-8.356 1.956,-8.493 1.658,-8.604 1.321,-8.688 0.985,-8.773 0.604,-8.815 0.181,-8.815"
             style="fill:#182e4c;fill-opacity:1;fill-rule:nonzero;stroke:none"
             id="path1081" /></g><g
           id="g1083"
           transform="translate(502.0898,280.1143)"><path
             d="M 0,0 H 3.608 L 1.8,6.018 Z M 4.036,-1.436 H -0.436 L -1.463,-4.889 H -3.172 L 1.091,8.344 H 2.518 L 6.789,-4.889 H 5.081 Z"
             style="fill:#182e4c;fill-opacity:1;fill-rule:nonzero;stroke:none"
             id="path1085" /></g><g
           id="g1087"
           transform="translate(514.5146,283.5498)"><path
             d="m 0,0 c -0.128,0.025 -0.245,0.041 -0.354,0.051 -0.11,0.009 -0.234,0.013 -0.374,0.013 -0.436,0 -0.794,-0.121 -1.077,-0.363 -0.28,-0.243 -0.497,-0.573 -0.649,-0.991 V -8.324 H -4.062 V 1.51 H -2.5 l 0.027,-1 c 0.201,0.363 0.451,0.65 0.75,0.863 0.3,0.212 0.66,0.318 1.077,0.318 0.048,0 0.105,-0.004 0.168,-0.013 0.064,-0.011 0.126,-0.02 0.187,-0.032 0.061,-0.013 0.116,-0.027 0.168,-0.042 0.052,-0.014 0.089,-0.028 0.113,-0.04 z"
             style="fill:#182e4c;fill-opacity:1;fill-rule:nonzero;stroke:none"
             id="path1089" /></g><g
           id="g1091"
           transform="translate(517.2314,279.6689)"><path
             d="m 0,0 c 0,-1.103 0.163,-1.912 0.486,-2.431 0.325,-0.518 0.856,-0.777 1.595,-0.777 0.455,0 0.824,0.115 1.109,0.346 0.285,0.229 0.516,0.524 0.692,0.882 V 2.936 C 3.699,3.287 3.464,3.577 3.177,3.805 2.89,4.031 2.529,4.145 2.1,4.145 1.354,4.145 0.819,3.881 0.491,3.354 0.165,2.827 0,2.016 0,0.918 Z m -1.608,0.918 c 0,0.807 0.075,1.503 0.226,2.091 0.152,0.588 0.371,1.071 0.655,1.45 0.285,0.378 0.63,0.658 1.037,0.839 0.405,0.182 0.859,0.274 1.363,0.274 0.526,0 0.974,-0.109 1.346,-0.328 0.368,-0.218 0.68,-0.535 0.935,-0.953 l 0.081,1.1 H 5.489 V -4.525 C 5.489,-5.18 5.403,-5.745 5.231,-6.221 5.058,-6.696 4.813,-7.089 4.499,-7.397 4.184,-7.707 3.81,-7.937 3.377,-8.088 2.944,-8.24 2.466,-8.315 1.945,-8.315 c -0.188,0 -0.415,0.026 -0.68,0.077 -0.268,0.05 -0.542,0.129 -0.825,0.231 -0.281,0.104 -0.553,0.232 -0.817,0.387 -0.263,0.154 -0.486,0.337 -0.667,0.55 l 0.654,1.109 c 0.351,-0.346 0.721,-0.596 1.108,-0.75 0.388,-0.155 0.755,-0.232 1.099,-0.232 0.316,0 0.602,0.041 0.856,0.123 0.254,0.082 0.471,0.215 0.65,0.4 0.178,0.184 0.317,0.425 0.412,0.722 0.097,0.297 0.147,0.661 0.147,1.091 v 1.136 C 3.626,-3.848 3.319,-4.133 2.958,-4.33 2.598,-4.527 2.166,-4.625 1.663,-4.625 c -0.497,0 -0.946,0.095 -1.35,0.285 -0.403,0.192 -0.747,0.478 -1.031,0.86 -0.285,0.381 -0.505,0.861 -0.659,1.44 -0.154,0.579 -0.231,1.259 -0.231,2.04 z"
             style="fill:#182e4c;fill-opacity:1;fill-rule:nonzero;stroke:none"
             id="path1093" /></g><g
           id="g1095"
           transform="translate(528.4473,283.8594)"><path
             d="m 0,0 c -0.278,0 -0.536,-0.042 -0.771,-0.128 -0.238,-0.084 -0.446,-0.234 -0.624,-0.449 -0.179,-0.215 -0.323,-0.504 -0.431,-0.868 -0.11,-0.364 -0.177,-0.822 -0.2,-1.372 H 1.845 V -2.6 C 1.828,-2.218 1.786,-1.868 1.723,-1.55 1.659,-1.231 1.559,-0.958 1.424,-0.728 1.286,-0.497 1.104,-0.318 0.873,-0.19 0.643,-0.063 0.352,0 0,0 m 0.182,-8.815 c -0.588,0 -1.118,0.087 -1.59,0.263 -0.473,0.175 -0.875,0.444 -1.205,0.804 -0.33,0.36 -0.583,0.816 -0.759,1.368 -0.175,0.551 -0.263,1.202 -0.263,1.953 v 1.11 c 0,0.866 0.103,1.597 0.309,2.195 0.206,0.596 0.476,1.081 0.813,1.453 0.337,0.373 0.724,0.642 1.159,0.805 C -0.918,1.3 -0.467,1.382 0,1.382 0.618,1.382 1.146,1.28 1.582,1.077 2.018,0.874 2.375,0.575 2.654,0.182 2.933,-0.212 3.137,-0.696 3.263,-1.272 3.391,-1.849 3.454,-2.512 3.454,-3.263 v -0.936 h -5.49 v -0.228 c 0,-1.053 0.199,-1.82 0.596,-2.299 0.397,-0.478 0.967,-0.718 1.713,-0.718 0.273,0 0.518,0.027 0.736,0.082 0.22,0.054 0.419,0.133 0.599,0.232 0.183,0.1 0.349,0.218 0.5,0.354 0.152,0.136 0.294,0.287 0.428,0.451 L 3.372,-7.344 C 3.238,-7.532 3.078,-7.714 2.891,-7.89 2.703,-8.065 2.479,-8.221 2.218,-8.356 1.957,-8.493 1.659,-8.604 1.322,-8.688 0.986,-8.773 0.605,-8.815 0.182,-8.815"
             style="fill:#182e4c;fill-opacity:1;fill-rule:nonzero;stroke:none"
             id="path1097" /></g><g
           id="g1099"
           transform="translate(535.3457,285.0596)"><path
             d="m 0,0 0.045,-1.064 c 0.297,0.394 0.647,0.7 1.05,0.918 0.403,0.218 0.849,0.328 1.341,0.328 0.399,0 0.763,-0.066 1.09,-0.196 0.328,-0.131 0.607,-0.34 0.837,-0.627 C 4.593,-0.93 4.77,-1.299 4.894,-1.75 5.019,-2.201 5.08,-2.748 5.08,-3.391 v -6.443 h -1.6 v 6.461 c 0,0.769 -0.128,1.316 -0.385,1.641 -0.257,0.324 -0.645,0.486 -1.159,0.486 -0.4,0 -0.759,-0.133 -1.078,-0.4 C 0.54,-1.912 0.284,-2.261 0.092,-2.691 v -7.143 h -1.61 V 0 Z"
             style="fill:#182e4c;fill-opacity:1;fill-rule:nonzero;stroke:none"
             id="path1101" /></g><g
           id="g1103"
           transform="translate(544.9434,287.4404)"><path
             d="M 0,0 V -2.381 H 1.482 V -3.682 H 0 v -6.097 c 0,-0.255 0.023,-0.459 0.072,-0.614 0.049,-0.154 0.113,-0.275 0.192,-0.359 0.078,-0.085 0.168,-0.141 0.267,-0.168 0.101,-0.027 0.205,-0.041 0.314,-0.041 0.109,0 0.231,0.014 0.363,0.041 0.134,0.027 0.228,0.05 0.282,0.068 l -0.018,-1.363 c -0.109,-0.037 -0.253,-0.076 -0.432,-0.119 -0.179,-0.042 -0.407,-0.062 -0.686,-0.062 -0.26,0 -0.509,0.042 -0.746,0.13 -0.235,0.088 -0.443,0.235 -0.622,0.442 -0.178,0.205 -0.321,0.476 -0.426,0.812 -0.107,0.337 -0.16,0.75 -0.16,1.241 v 6.089 h -1.5 v 1.301 h 1.5 L -1.6,0 Z"
             style="fill:#182e4c;fill-opacity:1;fill-rule:nonzero;stroke:none"
             id="path1105" /></g><path
           d="m 550.068,275.226 h -1.608 v 9.834 h 1.608 z m -1.699,12.441 c 0,0.273 0.075,0.504 0.227,0.691 0.151,0.188 0.379,0.282 0.681,0.282 0.304,0 0.533,-0.096 0.687,-0.286 0.154,-0.191 0.231,-0.419 0.231,-0.687 0,-0.271 -0.074,-0.5 -0.226,-0.682 -0.152,-0.181 -0.381,-0.271 -0.692,-0.271 -0.302,0 -0.53,0.09 -0.681,0.271 -0.152,0.182 -0.227,0.411 -0.227,0.682"
           style="fill:#182e4c;fill-opacity:1;fill-rule:nonzero;stroke:none"
           id="path1107" /><g
           id="g1109"
           transform="translate(554.1133,285.0596)"><path
             d="m 0,0 0.045,-1.064 c 0.297,0.394 0.647,0.7 1.051,0.918 0.402,0.218 0.849,0.328 1.34,0.328 0.399,0 0.763,-0.066 1.09,-0.196 0.328,-0.131 0.607,-0.34 0.836,-0.627 C 4.593,-0.93 4.77,-1.299 4.894,-1.75 5.019,-2.201 5.08,-2.748 5.08,-3.391 v -6.443 h -1.6 v 6.461 c 0,0.769 -0.128,1.316 -0.384,1.641 -0.259,0.324 -0.646,0.486 -1.16,0.486 -0.399,0 -0.759,-0.133 -1.078,-0.4 C 0.541,-1.912 0.284,-2.261 0.091,-2.691 V -9.834 H -1.518 V 0 Z"
             style="fill:#182e4c;fill-opacity:1;fill-rule:nonzero;stroke:none"
             id="path1111" /></g><g
           id="g1113"
           transform="translate(564.5195,276.5068)"><path
             d="M 0,0 C 0.224,0 0.437,0.033 0.636,0.1 0.836,0.166 1.018,0.253 1.182,0.359 1.345,0.465 1.489,0.585 1.613,0.723 1.737,0.859 1.836,1 1.908,1.145 V 3.49 H 1.064 C 0.676,3.49 0.326,3.447 0.014,3.363 -0.299,3.277 -0.565,3.154 -0.786,2.994 -1.008,2.834 -1.177,2.635 -1.295,2.399 -1.413,2.163 -1.473,1.893 -1.473,1.59 -1.473,1.293 -1.442,1.043 -1.382,0.84 -1.321,0.637 -1.23,0.474 -1.108,0.35 -0.986,0.226 -0.835,0.137 -0.648,0.082 -0.465,0.027 -0.248,0 0,0 M 2.145,-1.281 C 2.091,-1.16 2.046,-1.004 2.014,-0.813 1.98,-0.623 1.954,-0.422 1.936,-0.209 1.82,-0.379 1.689,-0.54 1.54,-0.691 1.392,-0.842 1.227,-0.977 1.041,-1.091 0.855,-1.206 0.656,-1.297 0.44,-1.363 c -0.213,-0.067 -0.443,-0.1 -0.684,-0.1 -0.432,0 -0.821,0.061 -1.169,0.182 -0.349,0.121 -0.648,0.302 -0.896,0.545 -0.248,0.242 -0.439,0.541 -0.572,0.894 -0.134,0.356 -0.2,0.769 -0.2,1.241 0,0.473 0.083,0.91 0.245,1.309 0.164,0.399 0.406,0.745 0.728,1.036 0.321,0.291 0.723,0.52 1.21,0.687 0.483,0.167 1.046,0.25 1.689,0.25 h 1.117 v 1.045 c 0,0.587 -0.13,1.005 -0.39,1.254 C 1.257,7.229 0.86,7.353 0.327,7.353 0.066,7.353 -0.165,7.312 -0.368,7.23 -0.571,7.148 -0.742,7.037 -0.882,6.898 -1.021,6.759 -1.127,6.597 -1.2,6.412 -1.272,6.227 -1.309,6.031 -1.309,5.826 h -1.607 c 0,0.351 0.076,0.701 0.23,1.049 0.155,0.349 0.375,0.66 0.664,0.937 0.288,0.275 0.637,0.499 1.049,0.667 C -0.561,8.648 -0.1,8.734 0.41,8.734 0.863,8.734 1.281,8.68 1.658,8.57 2.037,8.46 2.364,8.285 2.641,8.043 2.916,7.801 3.131,7.488 3.281,7.107 3.433,6.726 3.508,6.259 3.508,5.707 V 0.863 c 0,-0.164 0.007,-0.336 0.018,-0.517 0.013,-0.182 0.033,-0.362 0.06,-0.537 0.026,-0.176 0.06,-0.344 0.1,-0.504 0.039,-0.16 0.083,-0.308 0.132,-0.442 v -0.144 z"
             style="fill:#182e4c;fill-opacity:1;fill-rule:nonzero;stroke:none"
             id="path1115" /></g><g
           id="g1117"
           transform="translate(570.627,276.1064)"><path
             d="m 0,0 c 0,0.291 0.087,0.533 0.259,0.728 0.173,0.194 0.432,0.29 0.777,0.29 0.346,0 0.609,-0.096 0.786,-0.29 C 2.001,0.533 2.091,0.291 2.091,0 c 0,-0.278 -0.09,-0.512 -0.269,-0.699 -0.177,-0.188 -0.44,-0.282 -0.786,-0.282 -0.345,0 -0.604,0.094 -0.777,0.282 C 0.087,-0.512 0,-0.278 0,0"
             style="fill:#182e4c;fill-opacity:1;fill-rule:nonzero;stroke:none"
             id="path1119" /></g><g
           id="g1121"
           transform="translate(463.3887,239.8584)"><path
             d="M 0,0 2.252,9.708 H 5.268 L 1.406,-3.678 H -1.407 L -5.24,9.708 h 2.998 z"
             style="fill:#182e4c;fill-opacity:1;fill-rule:nonzero;stroke:none"
             id="path1123" /></g><path
           d="m 472.518,236.181 h -2.611 v 9.947 h 2.611 z m -2.731,12.521 c 0,0.202 0.033,0.388 0.101,0.557 0.067,0.168 0.163,0.313 0.285,0.436 0.123,0.122 0.271,0.218 0.446,0.284 0.175,0.069 0.369,0.102 0.583,0.102 0.215,0 0.409,-0.033 0.584,-0.102 0.175,-0.066 0.323,-0.162 0.446,-0.284 0.122,-0.123 0.218,-0.268 0.286,-0.436 0.067,-0.169 0.1,-0.355 0.1,-0.557 0,-0.202 -0.033,-0.388 -0.1,-0.556 -0.068,-0.168 -0.164,-0.316 -0.286,-0.442 -0.123,-0.125 -0.271,-0.222 -0.446,-0.289 -0.175,-0.067 -0.369,-0.102 -0.584,-0.102 -0.214,0 -0.408,0.035 -0.583,0.102 -0.175,0.067 -0.323,0.164 -0.446,0.289 -0.122,0.126 -0.218,0.274 -0.285,0.442 -0.068,0.168 -0.101,0.354 -0.101,0.556"
           style="fill:#182e4c;fill-opacity:1;fill-rule:nonzero;stroke:none"
           id="path1125" /><g
           id="g1127"
           transform="translate(479.4404,243.6182)"><path
             d="m 0,0 c -0.116,0.012 -0.259,0.027 -0.428,0.046 -0.169,0.018 -0.314,0.028 -0.436,0.028 -0.374,0 -0.678,-0.08 -0.91,-0.24 -0.234,-0.158 -0.412,-0.392 -0.534,-0.698 V -7.437 H -4.919 V 2.51 h 2.455 L -2.39,1.434 c 0.196,0.398 0.436,0.709 0.721,0.929 0.285,0.221 0.611,0.33 0.98,0.33 0.116,0 0.243,-0.009 0.38,-0.031 0.14,-0.021 0.25,-0.051 0.336,-0.088 z"
             style="fill:#182e4c;fill-opacity:1;fill-rule:nonzero;stroke:none"
             id="path1129" /></g><g
           id="g1131"
           transform="translate(484.2578,248.5732)"><path
             d="M 0,0 V -2.445 H 1.333 V -4.403 H 0 V -9.34 c 0,-0.209 0.014,-0.381 0.041,-0.516 0.028,-0.134 0.074,-0.24 0.139,-0.316 0.063,-0.077 0.144,-0.129 0.243,-0.156 0.098,-0.028 0.218,-0.042 0.358,-0.042 0.129,0 0.247,0.007 0.355,0.018 0.106,0.012 0.194,0.028 0.261,0.046 l -0.018,-2.022 c -0.196,-0.074 -0.407,-0.133 -0.635,-0.18 -0.226,-0.045 -0.493,-0.068 -0.8,-0.068 -0.385,0 -0.735,0.053 -1.048,0.16 -0.312,0.107 -0.581,0.279 -0.804,0.516 -0.224,0.235 -0.395,0.541 -0.515,0.914 -0.119,0.374 -0.179,0.824 -0.179,1.351 v 5.232 h -1.149 v 1.958 h 1.149 V 0 Z"
             style="fill:#182e4c;fill-opacity:1;fill-rule:nonzero;stroke:none"
             id="path1133" /></g><g
           id="g1135"
           transform="translate(491.9062,237.0908)"><path
             d="m 0,0 c -0.258,-0.35 -0.565,-0.619 -0.924,-0.809 -0.358,-0.19 -0.773,-0.285 -1.246,-0.285 -0.417,0 -0.795,0.069 -1.135,0.207 -0.341,0.137 -0.633,0.356 -0.878,0.653 -0.245,0.296 -0.435,0.679 -0.57,1.148 -0.135,0.47 -0.202,1.031 -0.202,1.688 v 6.435 h 2.601 V 2.584 c 0,-0.547 0.089,-0.934 0.267,-1.164 0.178,-0.23 0.41,-0.344 0.698,-0.344 0.321,0 0.583,0.069 0.791,0.207 0.208,0.137 0.374,0.326 0.496,0.565 V 9.037 H 2.52 V -0.91 H 0.073 Z"
             style="fill:#182e4c;fill-opacity:1;fill-rule:nonzero;stroke:none"
             id="path1137" /></g><g
           id="g1139"
           transform="translate(499.4727,238.0381)"><path
             d="M 0,0 C 0.288,0 0.533,0.058 0.736,0.174 0.938,0.291 1.088,0.429 1.187,0.588 V 2.656 H 0.57 C 0.325,2.656 0.113,2.617 -0.064,2.537 -0.242,2.457 -0.391,2.348 -0.51,2.206 -0.63,2.064 -0.719,1.899 -0.776,1.709 -0.835,1.52 -0.864,1.317 -0.864,1.104 -0.864,0.741 -0.789,0.467 -0.639,0.28 -0.488,0.094 -0.275,0 0,0 m 1.536,-1.857 c -0.05,0.103 -0.091,0.222 -0.125,0.353 -0.033,0.133 -0.065,0.272 -0.096,0.419 -0.196,-0.27 -0.449,-0.497 -0.758,-0.681 -0.31,-0.183 -0.689,-0.275 -1.136,-0.275 -0.404,0 -0.783,0.07 -1.135,0.211 -0.352,0.141 -0.659,0.34 -0.92,0.598 -0.261,0.257 -0.466,0.568 -0.616,0.933 -0.149,0.364 -0.225,0.774 -0.225,1.227 0,0.503 0.081,0.958 0.245,1.365 0.162,0.408 0.408,0.754 0.734,1.039 0.328,0.285 0.739,0.504 1.232,0.658 0.493,0.153 1.075,0.229 1.743,0.229 H 1.187 V 5.02 c 0,0.447 -0.078,0.762 -0.23,0.947 C 0.803,6.15 0.579,6.242 0.285,6.242 -0.052,6.242 -0.299,6.143 -0.455,5.943 -0.611,5.744 -0.689,5.463 -0.689,5.102 h -2.602 c 0,0.435 0.084,0.844 0.253,1.228 0.17,0.383 0.412,0.718 0.73,1.006 0.32,0.288 0.703,0.517 1.15,0.685 0.447,0.168 0.953,0.252 1.517,0.252 0.496,0 0.953,-0.062 1.37,-0.187 C 2.146,7.959 2.507,7.764 2.813,7.497 3.12,7.23 3.359,6.891 3.53,6.477 3.703,6.062 3.788,5.564 3.788,4.982 V 0.57 c 0,-0.289 0.008,-0.545 0.024,-0.768 0.014,-0.224 0.038,-0.426 0.069,-0.607 0.029,-0.181 0.068,-0.343 0.114,-0.487 0.046,-0.144 0.1,-0.28 0.161,-0.409 v -0.156 z"
             style="fill:#182e4c;fill-opacity:1;fill-rule:nonzero;stroke:none"
             id="path1141" /></g><path
           d="m 507.876,236.181 h -2.611 v 14.121 h 2.611 z"
           style="fill:#182e4c;fill-opacity:1;fill-rule:nonzero;stroke:none"
           id="path1143" /><g
           id="g1145"
           transform="translate(510.1006,237.5049)"><path
             d="M 0,0 C 0,0.201 0.035,0.391 0.105,0.564 0.177,0.74 0.277,0.892 0.409,1.02 0.541,1.148 0.7,1.25 0.883,1.324 c 0.183,0.072 0.392,0.11 0.625,0.11 0.226,0 0.433,-0.038 0.621,-0.11 C 2.315,1.25 2.477,1.148 2.612,1.02 2.746,0.892 2.849,0.74 2.919,0.564 2.989,0.391 3.024,0.201 3.024,0 3.024,-0.203 2.989,-0.391 2.919,-0.566 2.849,-0.74 2.746,-0.891 2.612,-1.016 2.477,-1.143 2.315,-1.242 2.129,-1.314 1.941,-1.389 1.734,-1.426 1.508,-1.426 1.275,-1.426 1.066,-1.389 0.883,-1.314 0.7,-1.242 0.541,-1.143 0.409,-1.016 0.277,-0.891 0.177,-0.74 0.105,-0.566 0.035,-0.391 0,-0.203 0,0"
             style="fill:#182e4c;fill-opacity:1;fill-rule:nonzero;stroke:none"
             id="path1147" /></g><path
           d="m 421.693,185.362 h -2.504 v 215.033 h 2.504 z"
           style="fill:#182e4c;fill-opacity:1;fill-rule:nonzero;stroke:none"
           id="path1149" /></g></g></g></svg>
