<?xml version="1.0" encoding="UTF-8" standalone="no"?>
<!-- Created with Inkscape (http://www.inkscape.org/) -->

<svg
   width="501.89169mm"
   height="231.80946mm"
   viewBox="0 0 501.8917 231.80947"
   version="1.1"
   id="svg11194"
   inkscape:version="1.1.2 (b8e25be833, 2022-02-05)"
   sodipodi:docname="fondo-d-instruccional.svg"
   xmlns:inkscape="http://www.inkscape.org/namespaces/inkscape"
   xmlns:sodipodi="http://sodipodi.sourceforge.net/DTD/sodipodi-0.dtd"
   xmlns="http://www.w3.org/2000/svg"
   xmlns:svg="http://www.w3.org/2000/svg">
  <sodipodi:namedview
     id="namedview11196"
     pagecolor="#ffffff"
     bordercolor="#000000"
     borderopacity="1"
     inkscape:pageshadow="0"
     inkscape:pageopacity="0"
     inkscape:pagecheckerboard="0"
     inkscape:document-units="mm"
     showgrid="false"
     borderlayer="false"
     fit-margin-top="0"
     fit-margin-left="0"
     fit-margin-right="0"
     fit-margin-bottom="0"
     inkscape:zoom="0.64052329"
     inkscape:cx="1067.0962"
     inkscape:cy="595.60676"
     inkscape:window-width="1920"
     inkscape:window-height="1016"
     inkscape:window-x="-8"
     inkscape:window-y="-8"
     inkscape:window-maximized="1"
     inkscape:current-layer="layer1" />
  <defs
     id="defs11191">
    <clipPath
       clipPathUnits="userSpaceOnUse"
       id="clipPath382">
      <path
         d="M 988.776,243.904 H 1523.63 V -290.945 H 988.776 Z"
         id="path380" />
    </clipPath>
  </defs>
  <g
     inkscape:label="Capa 1"
     inkscape:groupmode="layer"
     id="layer1"
     transform="translate(139.7901,42.414991)">
    <path
       id="path12"
       style="fill:#dfecd7;fill-opacity:1;fill-rule:nonzero;stroke:none;stroke-width:0.351062"
       d="M 362.1016,-42.414991 V 189.39448 H 227.01699 l 3.67503,-3.63948 c -0.12868,-1.24174 -0.27717,-2.48163 -0.45565,-3.71812 l -7.42886,7.3576 h -12.20675 l 17.60213,-17.43442 c -0.28436,-1.09427 -0.58379,-2.18576 -0.90838,-3.27133 l -20.90463,20.70575 h -12.20675 l 29.92612,-29.64117 c -0.4053,-0.97619 -0.831,-1.94716 -1.27057,-2.91215 l -32.86493,32.55332 h -12.20828 l 40.94401,-40.55361 c -0.50873,-0.87768 -1.03074,-1.74907 -1.57044,-2.61382 l -43.58301,43.16743 h -12.20821 l 50.82485,-50.34097 c -0.60142,-0.78786 -1.21494,-1.56903 -1.84494,-2.34219 l -53.18936,52.68316 h -12.20675 l 59.66226,-59.09528 c -0.34495,-0.35255 -0.6873,-0.70664 -1.03901,-1.05533 -0.35162,-0.34835 -0.70979,-0.68653 -1.06569,-1.02859 l -61.76695,61.1792 h -12.20675 l 67.50073,-66.85956 c -0.78025,-0.624 -1.57015,-1.23145 -2.36597,-1.82715 l -69.34573,68.68671 h -12.20674 l 74.31219,-73.60415 c -0.87268,-0.53455 -1.75444,-1.0517 -2.64056,-1.55552 l -75.88102,75.15967 H 95.680135 l 80.011795,-79.25036 c -0.97424,-0.43569 -1.95328,-0.85725 -2.93887,-1.25867 L 91.470747,189.39448 H 79.263998 l 84.467562,-83.66462 c -1.09599,-0.32178 -2.19739,-0.61674 -3.30252,-0.89799 L 75.054552,189.39448 H 62.846281 L 150.25579,102.8177 c -1.2484,-0.17665 -2.50048,-0.32553 -3.75379,-0.45271 l -87.865108,87.02949 h -12.20827 l 88.340158,-87.49852 c -1.47098,0.0318 -2.93988,0.0978 -4.40836,0.19741 l -87.658848,86.82465 c -0.01149,0.15884 -0.01723,0.31759 -0.02872,0.47646 H -139.7901 Z M 116.07126,104.15355 c -1.90095,0.42277 -3.7901,0.90371 -5.66704,1.44421 l -64.164076,63.55406 c -0.545702,1.85876 -1.030712,3.7307 -1.457588,5.61355 z m -27.162401,10.6438 c -6.708172,3.92294 -13.032064,8.73821 -18.795463,14.44652 -5.763169,5.70865 -10.624303,11.97157 -14.584638,18.61589 z" />
    <g
       id="g378"
       transform="matrix(-0.12281071,0,0,-0.1216422,471.70189,129.61219)" />
    <g
       transform="matrix(-0.12281071,0,0,-0.1216422,296.82239,107.12917)"
       id="g386"
       style="opacity:0.5" />
    <g
       transform="matrix(-0.12281071,0,0,-0.1216422,308.0625,101.27825)"
       id="g390"
       style="opacity:0.5" />
    <g
       transform="matrix(-0.12281071,0,0,-0.1216422,300.16707,104.78065)"
       id="g394"
       style="opacity:0.5" />
    <g
       transform="matrix(-0.12281071,0,0,-0.1216422,303.89817,102.81488)"
       id="g398"
       style="opacity:0.5" />
    <g
       transform="matrix(-0.12281071,0,0,-0.1216422,312.75425,100.26404)"
       id="g402"
       style="opacity:0.5" />
    <g
       transform="matrix(-0.12281071,0,0,-0.1216422,294.1977,109.46493)"
       id="g406"
       style="opacity:0.5" />
    <g
       transform="matrix(-0.12281071,0,0,-0.1216422,318.14592,99.943122)"
       id="g410"
       style="opacity:0.5" />
    <g
       transform="matrix(-0.12281071,0,0,-0.1216422,349.47564,125.31334)"
       id="g414"
       style="opacity:0.5" />
    <g
       transform="matrix(-0.12281071,0,0,-0.1216422,284.74955,129.13929)"
       id="g418"
       style="opacity:0.5" />
    <g
       transform="matrix(-0.12281071,0,0,-0.1216422,334.11274,104.43525)"
       id="g422"
       style="opacity:0.5" />
    <g
       transform="matrix(-0.12281071,0,0,-0.1216422,288.92178,116.28773)"
       id="g426"
       style="opacity:0.5" />
    <g
       transform="matrix(-0.12281071,0,0,-0.1216422,291.1973,112.88022)"
       id="g430"
       style="opacity:0.5" />
    <g
       transform="matrix(-0.12281071,0,0,-0.1216422,285.61658,124.33669)"
       id="g434"
       style="opacity:0.5" />
  </g>
</svg>
