<?xml version="1.0" encoding="utf-8"?>
<!-- Generator: Adobe Illustrator 27.0.0, SVG Export Plug-In . SVG Version: 6.00 Build 0)  -->
<svg version="1.1" id="Capa_1" xmlns="http://www.w3.org/2000/svg" xmlns:xlink="http://www.w3.org/1999/xlink" x="0px" y="0px"
	 viewBox="0 0 68.2 42" style="enable-background:new 0 0 68.2 42;" xml:space="preserve">
<style type="text/css">
	.st0{fill:#4271B2;}
</style>
<g>
	<g>
		<path class="st0" d="M65.6,20.3C59.4,9.6,47.8,3,35.4,3s-24,6.6-30.1,17.2c-0.4,0.6-0.4,1.4,0,2C11.4,32.9,23,39.5,35.4,39.5
			s24-6.6,30.1-17.2C65.9,21.7,65.9,20.9,65.6,20.3L65.6,20.3z M9.4,21.3c3.7-5.8,9.2-10.1,15.5-12.4c-3.5,3-5.7,7.4-5.7,12.4
			s2.2,9.4,5.7,12.4C18.6,31.4,13.1,27.1,9.4,21.3L9.4,21.3z M35.4,33.5c-6.7,0-12.2-5.5-12.2-12.2S28.7,9.1,35.4,9.1
			s12.2,5.5,12.2,12.2S42.1,33.5,35.4,33.5z M45.9,33.6c3.5-3,5.7-7.4,5.7-12.4s-2.2-9.4-5.7-12.4c6.4,2.3,11.9,6.6,15.5,12.4
			C57.8,27.1,52.3,31.4,45.9,33.6z"/>
		<path class="st0" d="M37.4,15.2h-4.1v4.1h-4.1v4.1h4.1v4.1h4.1v-4.1h4.1v-4.1h-4.1V15.2z"/>
	</g>
</g>
</svg>
