<?xml version="1.0" encoding="utf-8"?>
<!-- Generator: Adobe Illustrator 27.0.0, SVG Export Plug-In . SVG Version: 6.00 Build 0)  -->
<svg version="1.1" id="Capa_1" xmlns="http://www.w3.org/2000/svg" xmlns:xlink="http://www.w3.org/1999/xlink" x="0px" y="0px"
	 viewBox="0 0 134.2 137" style="enable-background:new 0 0 134.2 137;" xml:space="preserve">
<style type="text/css">
	.st0{fill:#C6D4E8;}
	.st1{fill:#1B2F4D;}
	.st2{fill:#BB1732;}
</style>
<g>
	<path class="st0" d="M26.7,9.9c-1,0-2,0-3,0.2c-8.8,1.6-14.8,8.6-14.8,17.6c0,27.2,0,54.4,0,81.6c0,1.7,0.3,3.4,0.7,5.1
		c1.7,6.4,7.9,12.8,17.8,12.8c26.7-0.1,53.4,0,80.2,0c1.2,0,2.5,0,3.7-0.2c8.9-1.5,14.9-8.6,14.9-17.7c0-23,0-46,0-69v-7.5v-3.8
		c0-0.5,0-1,0-1.5c0-0.1,0-0.2,0-0.3c0-0.1,0-0.2,0-0.3c0-0.6-0.1-1.2-0.2-1.8c-1.4-8.4-8.6-14.9-17.4-15.1c-0.1,0-0.3,0-0.4,0H94.8
		v0C72.1,9.9,49.4,9.9,26.7,9.9z M24.4,39.2c0.3,0,0.5,0,0.8,0c3.9,0,7.7,0,11.6,0c0.4,0,0.8,0,1.3,0c0-0.5,0.1-0.9,0.1-1.2
		c0-4.2,0-8.4,0-12.6c0-1.5,0.7-2.4,1.9-2.4c1.2,0,1.9,0.9,1.9,2.4c0,4.2,0,8.3,0,12.5c0,0.4,0,0.8,0,1.4c0.5,0,0.9,0,1.3,0
		c4.2,0,8.4,0,12.6,0c1.5,0,2.4,0.8,2.3,2c0,1.2-0.9,1.9-2.4,1.9c-0.3,0-0.5,0-0.8,0c-3.9,0-7.8,0-11.7,0c-0.4,0-0.8,0-1.3,0
		c0,0.5,0,0.9,0,1.3c0,4.3,0,8.6,0,12.8c0,1.1-0.6,1.9-1.6,2.1c-1,0.1-1.7-0.3-2.1-1.2c-0.2-0.4-0.1-0.9-0.2-1.3c0-4.1,0-8.2,0-12.3
		c0-0.4,0-0.8,0-1.4c-0.5,0-0.9,0-1.3,0c-4.2,0-8.3,0-12.5,0c-1.5,0-2.4-0.7-2.4-1.9C21.9,40,22.8,39.2,24.4,39.2z M24.9,70.8
		c0.3,0,0.5,0.1,0.7,0.2c0.2-0.2,0.5-0.3,0.9-0.4c0.5-0.1,1-0.1,1.5-0.1c15.3,0,30.6,0,46,0c0.4,0,0.8,0,1.1,0c1.2,0.2,2,1,2,2.2
		c0,1.2-0.8,2.1-2,2.2c-0.4,0-0.8,0-1.1,0c-7.7,0-15.4,0-23,0s-15.4,0-23,0c-0.1,0-0.2,0-0.4,0c-0.4,1-1.5,1.7-2.7,1.7
		c-1.6,0-2.9-1.3-2.9-2.9C21.9,72,23.3,70.7,24.9,70.8z M88.6,88.6c6,0,12,0,18,0c1,0,1.9,0.4,2.2,1.4c0.2,0.7,0.1,1.7-0.3,2.2
		c-0.4,0.5-1.4,0.8-2.1,0.8c-3.4,0.1-6.9,0-10.3,0c-8.2,0-16.4,0-24.6,0c-0.4,0-0.9,0-1.3,0c-1.2-0.1-2-1-2-2.2
		c0-1.2,0.8-2.1,2.1-2.1c1.8-0.1,3.6,0,5.3,0C79.9,88.6,84.3,88.6,88.6,88.6z M60.1,90.9c0,1.4-0.9,2.2-2.7,2.2c-5,0-9.9,0-14.9,0
		c-4.8,0-9.7,0-14.5,0c-0.4,0-0.9,0-1.3,0c-1.1-0.2-1.9-1.1-1.9-2.2c0-1.1,0.8-2,1.9-2.2c0.3,0,0.5,0,0.8,0c10,0,19.9,0,29.9,0
		C59.1,88.7,60.1,89.5,60.1,90.9z M75.3,111.3c-0.3,0.1-0.7,0-1,0c-15.5,0-31,0-46.5,0c-0.3,0-0.7,0-1,0c-1.1-0.2-1.9-1.1-1.9-2.2
		c0-0.2,0.1-0.4,0.1-0.6c-0.1,0-0.1,0-0.2,0c-1.6-0.1-2.9-1.4-2.8-3c0-1.6,1.4-2.9,3-2.9c1.6,0,2.9,1.3,2.9,3c0,0.5-0.1,0.9-0.3,1.3
		c0.2,0,0.4,0,0.6,0c7.6,0,15.3,0,22.9,0c7.6,0,15.3,0,22.9,0c0.4,0,0.9,0,1.3,0c1.2,0.1,1.9,1,2,2.1
		C77.2,110.2,76.4,111.1,75.3,111.3z M106.2,111.4c-6.2,0-12.3,0-18.5,0c-1.9,0-3-1.6-2.3-3.1c0.5-1,1.3-1.3,2.4-1.3
		c3.1,0,6.2,0,9.3,0c3,0,6,0,9,0c1.8,0,2.8,0.8,2.8,2.2C109,110.5,107.9,111.4,106.2,111.4z M97,70.4c3.1,0,6.1,0,9.2,0
		c1.7,0,2.8,0.9,2.8,2.3c0,1.4-1.1,2.2-2.8,2.2c-6.1,0-12.1,0-18.2,0c-1.8,0-2.7-0.9-2.7-2.3c0-1.3,1-2.1,2.5-2.2
		C90.8,70.3,93.9,70.4,97,70.4z"/>
	<path class="st0" d="M24.9,76.6c1.2,0,2.2-0.7,2.7-1.7c-0.3,0-0.7,0-1-0.1c-1.1-0.3-1.7-1-1.7-2.1c0-0.8,0.3-1.3,0.8-1.7
		c-0.2-0.1-0.5-0.2-0.7-0.2c-1.7,0-3,1.3-3,2.9C21.9,75.3,23.2,76.6,24.9,76.6z"/>
	<path class="st0" d="M26.8,107c0.2,0,0.5,0,0.7,0c0.2-0.4,0.3-0.8,0.3-1.3c0-1.6-1.3-2.9-2.9-3c-1.6,0-2.9,1.3-3,2.9
		c-0.1,1.6,1.2,2.9,2.8,3c0.1,0,0.1,0,0.2,0C25.2,107.7,25.8,107.1,26.8,107z"/>
	<path class="st0" d="M125.8,25c-0.8-5.8-3.9-10.2-9.3-13.1c-2.6-1.4-5.4-2-8-2C117.2,10.1,124.5,16.6,125.8,25z"/>
	<path class="st0" d="M126.1,32.4c0-1.2,0-2.3,0-3.5v3.8C126.1,32.6,126.1,32.5,126.1,32.4z"/>
	<path class="st0" d="M126.1,27.2c0,0,0-0.1,0-0.1c0,0.1,0,0.2,0,0.3C126.1,27.4,126.1,27.3,126.1,27.2z"/>
	<path class="st1" d="M114.4,6.9c-1.2-0.3-2.4-0.6-3.7-0.9C81.9,6,53,6,24.1,6c-0.2,0.1-0.3,0.2-0.5,0.2C12.6,7.8,4.9,16.7,4.9,27.8
		c0,27.3,0,54.6,0,81.8c0,11.9,9.6,21.4,21.4,21.5c27.4,0,54.8,0,82.2,0c11.9,0,21.4-9.6,21.4-21.5c0-27.4,0-54.8,0-82.2
		C130,17.8,123.7,9.5,114.4,6.9z M127.5,114.6c0,7.7-6.3,14-14,14H22.8c-7.7,0-14-6.3-14-14V23.9c0-7.7,6.3-14,14-14h72H108h5.5
		c7.7,0,14,6.3,14,14V114.6z"/>
	<path class="st1" d="M113.5,9.9H108c0.1,0,0.3,0,0.4,0c2.6,0,5.4,0.5,8,2c5.4,2.9,8.5,7.3,9.3,13.1c0.1,0.6,0.2,1.2,0.2,1.8
		c0,0.1,0,0.2,0,0.3c0,0,0,0.1,0,0.1c0,0.1,0,0.1,0,0.2c0,0.2,0,0.3,0,0.5v1c0,1.2,0,2.3,0,3.5c0,0.1,0,0.2,0,0.3v7.5
		c0,23,0,46,0,69c0,9-6,16.1-14.9,17.7c-1.2,0.2-2.4,0.2-3.7,0.2c-26.7,0-53.4-0.1-80.2,0c-9.9,0-16.1-6.4-17.8-12.8
		c-0.4-1.6-0.7-3.4-0.7-5.1c0-27.2,0-54.4,0-81.6c0-9,6-16,14.8-17.6c1-0.2,2-0.2,3-0.2c22.7,0,45.4,0,68.2,0v0h-72
		c-7.7,0-14,6.3-14,14v90.7c0,7.7,6.3,14,14,14h90.7c7.7,0,14-6.3,14-14V23.9C127.5,16.1,121.2,9.9,113.5,9.9z"/>
	<path class="st1" d="M125.8,25c0.1,0.6,0.2,1.2,0.2,1.8C126,26.2,125.9,25.6,125.8,25z"/>
	<path class="st1" d="M126.1,27.9c0-0.2,0-0.3,0-0.5c0,0.5,0,1,0,1.5V27.9z"/>
	<path class="st2" d="M24.3,43.1c4.2,0,8.3,0,12.5,0c0.4,0,0.8,0,1.3,0c0,0.6,0,1,0,1.4c0,4.1,0,8.2,0,12.3c0,0.4,0,0.9,0.2,1.3
		c0.4,0.9,1.1,1.3,2.1,1.2c1-0.1,1.6-0.9,1.6-2.1c0-4.3,0-8.6,0-12.8c0-0.4,0-0.8,0-1.3c0.5,0,0.9,0,1.3,0c3.9,0,7.8,0,11.7,0
		c0.3,0,0.5,0,0.8,0c1.5,0,2.4-0.7,2.4-1.9c0-1.2-0.9-1.9-2.3-2c-4.2,0-8.4,0-12.6,0c-0.4,0-0.8,0-1.3,0c0-0.6,0-1,0-1.4
		c0-4.2,0-8.3,0-12.5c0-1.5-0.8-2.4-1.9-2.4c-1.2,0-1.9,0.9-1.9,2.4c0,4.2,0,8.4,0,12.6c0,0.4,0,0.8-0.1,1.2c-0.5,0-0.9,0-1.3,0
		c-3.9,0-7.7,0-11.6,0c-0.3,0-0.5,0-0.8,0c-1.5,0-2.5,0.8-2.4,2C22,42.4,22.9,43.1,24.3,43.1z"/>
	<path class="st1" d="M24.9,72.6c0,1.1,0.6,1.8,1.7,2.1c0.3,0.1,0.7,0.1,1,0.1c0.1-0.3,0.2-0.7,0.2-1.1c0-1.4-0.9-2.5-2.1-2.8
		C25.2,71.3,24.9,71.9,24.9,72.6z"/>
	<path class="st1" d="M27.8,73.7c0,0.4-0.1,0.8-0.2,1.1c0.1,0,0.2,0,0.4,0c7.7,0,15.4,0,23,0s15.4,0,23,0c0.4,0,0.8,0,1.1,0
		c1.2-0.2,2-1.1,2-2.2c0-1.2-0.8-2.1-2-2.2c-0.4,0-0.8,0-1.1,0c-15.3,0-30.6,0-46,0c-0.5,0-1,0-1.5,0.1c-0.3,0.1-0.6,0.2-0.9,0.4
		C26.9,71.3,27.8,72.3,27.8,73.7z"/>
	<path class="st1" d="M75.2,106.9c-0.4-0.1-0.8,0-1.3,0c-7.6,0-15.3,0-22.9,0c-7.6,0-15.3,0-22.9,0c-0.2,0-0.4,0-0.6,0
		c-0.5,0.9-1.4,1.6-2.5,1.6c-0.1,0.2-0.1,0.4-0.1,0.6c0,1.1,0.8,2,1.9,2.2c0.3,0.1,0.7,0,1,0c15.5,0,31,0,46.5,0c0.3,0,0.7,0,1,0
		c1.1-0.2,1.9-1.1,1.9-2.2C77.1,107.9,76.4,107.1,75.2,106.9z"/>
	<path class="st1" d="M27.5,106.9c-0.2,0-0.5,0-0.7,0c-0.9,0.1-1.6,0.7-1.8,1.6C26.1,108.5,27,107.9,27.5,106.9z"/>
	<path class="st1" d="M70.2,88.7c-1.2,0-2,1-2.1,2.1c0,1.2,0.8,2.1,2,2.2c0.4,0,0.8,0,1.3,0c8.2,0,16.4,0,24.6,0c3.4,0,6.9,0,10.3,0
		c0.7,0,1.7-0.3,2.1-0.8c0.4-0.5,0.5-1.5,0.3-2.2c-0.2-1-1.2-1.4-2.2-1.4c-6,0-12,0-18,0c-4.3,0-8.7,0-13,0
		C73.8,88.6,72,88.6,70.2,88.7z"/>
	<path class="st1" d="M27.5,88.6c-0.3,0-0.5,0-0.8,0c-1.1,0.2-1.9,1.1-1.9,2.2c0,1.1,0.7,2,1.9,2.2c0.4,0.1,0.8,0,1.3,0
		c4.8,0,9.7,0,14.5,0c5,0,9.9,0,14.9,0c1.7,0,2.7-0.8,2.7-2.2c0-1.4-0.9-2.2-2.6-2.2C47.5,88.6,37.5,88.6,27.5,88.6z"/>
	<path class="st1" d="M85.2,72.5c0,1.5,0.9,2.3,2.7,2.3c6.1,0,12.1,0,18.2,0c1.8,0,2.8-0.8,2.8-2.2c0-1.4-1-2.3-2.8-2.3
		c-3.1,0-6.1,0-9.2,0c-3.1,0-6.2,0-9.3,0C86.2,70.4,85.3,71.2,85.2,72.5z"/>
	<path class="st1" d="M106.1,106.9c-3,0-6,0-9,0c-3.1,0-6.2,0-9.3,0c-1.1,0-1.9,0.3-2.4,1.3c-0.7,1.6,0.4,3.1,2.3,3.1
		c6.2,0,12.3,0,18.5,0c1.7,0,2.8-0.9,2.8-2.3C109,107.7,108,106.9,106.1,106.9z"/>
</g>
</svg>
