<?xml version="1.0" encoding="utf-8"?>
<!-- Generator: Adobe Illustrator 27.0.0, SVG Export Plug-In . SVG Version: 6.00 Build 0)  -->
<svg version="1.1" id="Capa_1" xmlns="http://www.w3.org/2000/svg" xmlns:xlink="http://www.w3.org/1999/xlink" x="0px" y="0px"
	 viewBox="0 0 68.2 42" style="enable-background:new 0 0 68.2 42;" xml:space="preserve">
<style type="text/css">
	.st0{fill:#4271B2;}
</style>
<g>
	<path class="st0" d="M64.6,20.3C58.4,9.6,46.8,3,34.4,3s-24,6.6-30.1,17.2c-0.4,0.6-0.4,1.4,0,2C10.4,32.9,22,39.5,34.4,39.5
		s24-6.6,30.1-17.2C64.9,21.7,64.9,20.9,64.6,20.3L64.6,20.3z M8.4,21.3c3.7-5.8,9.2-10.1,15.5-12.4c-3.5,3-5.7,7.4-5.7,12.4
		s2.2,9.4,5.7,12.4C17.6,31.4,12.1,27.1,8.4,21.3L8.4,21.3z M34.4,33.5c-6.7,0-12.2-5.5-12.2-12.2S27.7,9.1,34.4,9.1
		s12.2,5.5,12.2,12.2S41.1,33.5,34.4,33.5z M44.9,33.6c3.5-3,5.7-7.4,5.7-12.4s-2.2-9.4-5.7-12.4c6.4,2.3,11.9,6.6,15.5,12.4
		C56.8,27.1,51.3,31.4,44.9,33.6z"/>
	<g>
		<polygon class="st0" points="39.7,19.3 36.4,19.3 32.4,19.3 30.5,19.3 28.3,19.3 28.3,23.3 31.6,23.3 32.4,23.3 36.4,23.3 
			37.8,23.3 40.5,23.3 40.5,19.3 		"/>
	</g>
</g>
</svg>
