<?xml version="1.0" encoding="utf-8"?>
<!-- Generator: Adobe Illustrator 26.5.0, SVG Export Plug-In . SVG Version: 6.00 Build 0)  -->
<svg version="1.1" id="Capa_2_00000070835081239985639590000008732872778250133389_"
	 xmlns="http://www.w3.org/2000/svg" xmlns:xlink="http://www.w3.org/1999/xlink" x="0px" y="0px" viewBox="0 0 401.8 210.6"
	 style="enable-background:new 0 0 401.8 210.6;" xml:space="preserve">
<style type="text/css">
	.st0{fill:#192E4D;}
	.st1{fill:#FFFFFF;}
	.st2{fill:#FFFFFF;stroke:#FFFFFF;stroke-width:2;}
</style>
<g>
	<g>
		<path class="st0" d="M128.7,105.2c0,0-29.9,12.8-64.8,12.8S0.3,105.2,0.3,105.2V13.1c0,0,29.3-12.6,63.7-12.6
			c37.3,0,64.8,12.6,64.8,12.6v92.1H128.7z"/>
		<path class="st1" d="M80.4,1c-3-0.3-6.1-0.5-9.2-0.7c-0.9,0-1.9-0.1-2.8-0.1h-3.5c-1.9,0-3.8,0-5.7,0.1c-2.1,0.1-4.2,0.2-6.3,0.3
			C42.3,1.5,31.8,3.2,21.2,6c-0.3,0.1-0.7,0.2-1.1,0.3c0.3,0.5,0.7,0.5,1.1,0.7c0.1,0.1,0.1,0.1,0.2,0.1c0.5,0.3,0.7,0.6,1.4,0.7
			c0.9,0.1,1.7,0.2,2.4,0c1.7-0.4,1.7-0.6,3,0.4c0.6,0.5,0.7,0.5,0.8,1.3c0.1,0.7,0.1,1,0.7,1.5c0.5,0.5,1,0.5,1.3-0.1
			c0.7-1.5,2.4,0.4,2.4,1.1c-0.1,1.3,0.3,0.5,0.7,1.1c0.3,0.2,0.2,2,1.4,2.4c0.5,0.1,0.9,0,1,0.6c0.1,0.2,0,0.5-0.2,0.7
			c-0.1,0.4-0.3,0.8-0.5,1.1c-0.6,1.4-0.5,2.6,0.1,4c0.2,0.3,0.4,0.7,0.6,1.1c0.5,1.5,0.6,1.7,1.6,2.3c0.6,0.3,1.3,0.3,1.9,0.4
			c0.5,0,0.6,0.1,1.1-0.3c0.5-0.3,0.7-0.3,1.1-0.1c0.9,0.6,0.7,0.1,1.1-0.6c0.7-1,1-0.1,1-1.8c0-0.3,0.3-0.7,0.8-0.9
			c1.1,0.1,1.3-0.5,2.4-0.4c0.5,0.1,1.3,0.1,0.9,1.1c-0.7,0.7-0.7,0.6-0.8,1.5c0,0.8-0.1,1.1-0.5,1.6c-0.7,0.8-0.3,0.5-0.5,1.4
			c-0.1,0.4-0.3,0.6-0.5,1c-0.1,0.5,0.1,0.8,0.9,0.7c0.5-0.1,1-0.1,1.5-0.1c0.6,0,1.1,0.1,1.6,0.1c0.8-0.1,1.6,0,2.1,0.6
			c0.7,0.7,0.5,0.9,0.3,2.3c-0.1,0.3,0.1,0.6,0.1,1c-0.1,0.6-0.5,1.3-0.5,1.7c0,0.3,0.1,0.7,0.1,0.9c0.3,0.5,0.5,0.8,0.8,1.1
			c0.3,0.4,0.7,0.7,1.3,1.1c1.7,1.1,1.9-0.1,3.3-0.3c0.7-0.1,1.3-0.1,1.7,0.1c0.5,0.2,0.9,0.5,1.3,1c0.5,0.5,0.8,0.7,1.1-0.3
			c0.1-0.4,0.3-0.7,0.5-0.8c0.5-0.1,0.3-0.1,0.5-0.6c0.1-0.1,0.1-0.1,0.1-0.2v-0.1v-0.1c0.2-0.9,1.3-1.5,2.2-1.5h0.2
			c0.5,0,1.3-0.4,1.5-0.8c0.3-0.4,1.5-1.1,0.9,0.3c-0.2,0.3-0.3,0.3-0.3,0.7c0,0.1,0.1,0.2,0.1,0.3c0.2,0.5-0.2,0.7-0.3,1.1
			c-0.1,0.3,0.3,0.3,0.4,0.3c0.1,0.1,0.1,0.5,0.3,0.7c0.3,0.2,0.6-0.1,0.7-0.5V37v-0.3c-0.1-0.2-0.1-0.4-0.1-0.6
			c-0.1-0.4-0.1-0.6,0.1-0.8c0.1-0.1,0.2-0.1,0.3-0.2c1.1-0.6,1.7-0.9,2.5-0.4c0.1,0.1,0.2,0.2,0.3,0.3c0.9,0.8,0.5,0.9,1.7,0.9
			c0.9,0,1.2-0.2,2,0.3c0.5,0.3,2,0.7,2.4,0c0.4-0.8,1.5-0.8,1.8-0.1c0.3,0.5,0.5,0.5,1,0.6c0.1,0,0.1,0,0.1,0.1
			c0.5,0.1,0.5,0.1,0.8,0.4c0.5,0.5-0.1,0.4,0,1c0.1,0.5,0,0.3,0.7,0.3c1.1,0,2.5,0.5,2.8,1.7c0.2,0.6,0.8,0.3,1.3,0.7
			c0.7,0.8,0.4,0.8,1.6,1c0.3,0.1,0.5,0.1,0.7,0c1-0.3,1.4-0.3,1.9,0.1c0.5,0.3,0.7,0.8,1.3,0.7c1-0.2,1.2,0.7,1.9,1.2
			c0.8,0.7,1.3,0.6,1.3,2c0,0.9,0.1,0.7,0.6,1.3c0.7,0.9,0.9,1.1-0.1,2.1c-0.8,0.7-0.8,1.1,0.5,0.4c0.5-0.3,0.8,0.1,1.6,0.4
			c0.4,0.3,0.4,0.7,0.1,1c-0.1,1.1-0.2,0.9,0.7,0.3c0.9-0.8,1.6-1,2.8-0.1c0.4,0.3,0.8,0.6,1.2,0.9c1.1,0.9,2.1,1.4,3.6,1.4
			c1,0,1.5,0.4,2.3,0.3c1.1-0.1,2.1,0.4,2.7,1.4c0.3,0.5,0.8,0.9,1.4,1.2c1.3,0.6,1.9-0.1,2.4,1.5c1.1,2.8-1.1,5.2-2.9,7.2
			c-0.7,0.9-0.5,1.4-1,1.9c-0.7,0.7-1.8,0.1-1.6,1.3c0.1,0.5-0.3,0.8-0.4,1.3c0,0.3-0.1,0.5,0,0.7c0,0.7,0.3,1.3-0.3,1.7
			c-0.1,0.6-0.1,1.2-0.3,1.8c-0.6,1.3-1.2,2.1-1.5,2.9c-0.4,0.5-0.5,0.7-1,1c-0.7,0.5-0.3,1.1-0.7,1.6c-0.1,0.2-0.3,0.3-0.6,0.5
			c-0.9,0.6-0.9,0.8-2,0.8c-2.3,0-5.4,1.5-6.7,3.5c-0.5,0.8-0.5,1.3-0.6,2c-0.1,1.1-0.6,0.9-1.1,1.5c-1,1.1-0.9,2.5-2.1,2
			c-0.3-0.1-0.4,0.3-0.9,0.8c-0.3,0.3-0.7,0.6-0.8,1.2c-0.1,0.5-0.1,0.6-0.7,1.1c-0.4,0.4-0.7,0.7-1.1,1.1c-0.7,1.6-2,1.4-3.5,1.2
			c-0.4-0.1-1-0.4-1.5-0.5c-1-0.4-0.9,0.3-0.1,0.7c0.3,0.1,0.3,0.2,0.4,0.3c0.1,0.7-0.6,0.8,0.3,1.5c0.2,0.5,0,1-0.5,1.5
			c-0.7,1-1.7,1.4-2.8,1.5c-0.6,0.1-1.3,0-1.9,0c-1.3-0.1-1-0.3-1.1,0.8c-0.1,0.3-0.1,0.5-0.4,0.8c0,1.1-0.7,1.3-1.5,1
			c-1.5-0.6-0.9-0.7-1.3,0.3c-0.1,0.3-0.1,0.5-0.1,0.7c0,0.1,0.1,0.5,0.2,0.5c0.1,0,0.2,0,0.3,0.1c0.5,0,0-0.3,0.7-0.4
			c0.3,0,0.3,0,0.2,0.3c-0.1,0.5-0.2,0.4-0.7,0.4c-0.5,0-0.6-0.1-0.6,0.5c0,0.7-0.4,0.5-0.6,1.1c-0.1,0.2-0.1,0.4-0.2,0.7
			c-0.2,0.6-0.7,0.5-1.3,0.6c-0.4,0.2-0.7,0.4-0.9,0.7c-0.3,0.4-0.3,0.9,0,1.3c0.1,0.1,0.2,0.2,0.3,0.3c0.1,0.1,0.2,0.3,0.4,0.4
			c0.6,0.1,0.6-0.2,0.6,0.5c0,0.7-0.3,0.7-0.9,1.1c-0.1,0.1-0.3,0.2-0.4,0.3c-0.3,0.2-0.4,0.3-0.6,0.8c-0.1,0.5-0.3,0.8-0.7,0.9
			c-1.1,0.4-1.1,0.6-0.9,1.7c0.2,0.9-0.1,0.7-0.7,0.9c-0.2,0.1-0.5,0.1-0.7,0.3c-0.3,0.3-0.5,0.6-0.6,1c-0.6,0.5,0.1,0.1-1.4,0.4
			c-0.6,0.1-0.6-0.3-0.6-0.9c-0.1-0.3-0.1-0.5-0.2-0.6c-0.1-0.1-0.1-0.1-0.1-0.3c-0.3-0.9,0.1-0.6-0.7-1.3c-0.6-0.4,0.1-0.9-0.2-1.3
			c-0.4-0.7-0.3-0.3-0.3-1.1c-0.1-0.2-0.1-0.4-0.2-0.7c-0.1-0.3-0.1-0.5,0.3-0.7c0.5-0.3,0.5-0.1,0.7-0.7c0.4-1.3,0.2-0.4-0.5-1
			c-0.2-0.1-0.1-0.5,0.2-0.9c0.5-0.6,0.6-0.6,1-0.7c0.1,0,0.1,0,0.3-0.1c0.3-0.1,0.2-0.5,0.4-1.2c-0.1-0.8,0.3-1.3,0.5-1.8
			c0.3-0.4,0.3-0.9,0.1-1.3c-0.4-0.8-1.3,0-1.1-1.3c0.1-1.1,0.3-1,0.6-1.8c0.1-0.4,0.1-0.8,0-1.3c-0.3-1.4-0.2-1.3,0.5-2.6
			c0.2-0.5,0.5-0.9,0.7-1.3c0.1-0.5,0.1-0.8,0.3-1.3c0.5-0.3,0.5-0.5,0.5-1.2c0-0.8,0.3-0.8,0.3-1.5c0-0.7-0.1-0.5-0.3-1.1
			c-0.1-0.3,0-0.5,0.1-0.7c0.3-0.8,0.6-0.5,0.4-1.5c-0.2-0.5,0.2-1.1,0.5-1.7c0.1-0.1,0.1-0.3,0.1-0.3c0.3-0.9,0.5-1.7,0.6-2.7
			c0.1-0.7,0.2-1.3,0.1-1.9c-0.1-0.5-0.1-0.8,0-1.1c0.2-0.7,0.5-0.5,0.3-1.3c-0.1-0.5-0.1-1.1,0-1.4c0.3-0.8-0.1-1.8-0.1-2.8
			c0.1-0.9-0.3-1.3-1.1-1.9c-0.1-0.1-0.3-0.2-0.5-0.3c-0.9-0.6-1.7-1.4-2.6-1.8c-0.1-0.1-0.3-0.1-0.4-0.1c-0.9-0.3-1.1,0.1-2-1.1
			c-0.3-0.3-0.5-0.7-0.9-1c-0.3-0.6,0.4-0.7-0.1-1.4c-0.2-0.3-0.7-0.6-0.8-0.9c-0.9-1.2-1.5-2.5-2-3.7c-0.9-1.8-1.7-3.4-3.1-4.5
			c-0.5-0.1-0.7-0.3-0.5-0.9c0-0.5-0.2-0.8-0.3-1.1c-0.5-1,0.9-1.5,1.6-1.7c0.5-0.3,0.5-0.7,0-1.1c-0.2-0.1-0.4-0.1-0.6-0.1
			c-1-0.3-0.6-1.6-0.1-2.2c0.4-0.4,0.6-0.9,0.7-1.5c0.1-0.9,0.2-0.9,0.7-1.1c0.9-0.2,0.7-0.3,1-1.1c0-0.7,0.1-0.7,0.6-0.9
			c0.1,0,0.1-0.1,0.2-0.1c1.5-1.3,1.3-2,1.1-3.8c0-0.9-0.2-1.2-0.7-2.1c-0.3-0.5-0.5-0.5-0.7-0.7c-0.1-0.1-0.1-0.1-0.1-0.3
			c-0.1-0.8,0.1-0.7-0.5-1.5c-0.5-0.4-1.2-0.3-1.6,0.3c-0.1,0.1-0.1,0.4-0.2,0.5c-0.6,0.4-0.5,0.1-0.3,1.1c0.1,0.2,0.1,0.3-0.1,0.4
			c-0.8,0.5-0.7-0.5-1.1-0.6c-0.5-0.2-0.3,0.2-1-0.5c-0.3-0.3-0.4-0.3-0.9-0.3h-0.7c-0.2-0.1-0.3-0.2-0.5-0.6
			c-0.3-0.4,0.1-0.7-0.7-0.9c-0.1,0-0.3,0-0.4-0.1c-0.7-0.5-0.1-0.5-0.9-0.3c-0.4,0.1-0.8-0.3-0.9-0.9c0.2-1.4-0.1-1.2-1.3-2.2
			c-0.5-0.5-0.7-0.9-0.9-1.4c-0.3-0.7-0.5-0.3-1.1-0.3c-0.4,0.1-1.3-0.1-1.8-0.5c-1.1-0.7-1.3-0.5-2.1-0.7c-0.9-0.1-1.6-1.2-2-1.8
			c-0.5-0.8-1.4-1.3-2.4-1.1c-0.8,0.2-0.9,0.9-1.9,0.8c-0.6-0.1-1-0.8-2.4-1c-1.1-0.2-1.7-0.7-2.5-1.1c-1.1-0.4-1.1-1.1-2-1.3
			c-1.9-0.5-1-0.3-1.9-1.2c-0.2-0.1-0.4-0.3-0.7-0.4c-0.5-0.3-1.3-1.1-0.8-1.7c0.5-0.7,0.6-1.1,0.4-1.7c-0.3-0.5-0.3-0.9-0.2-1.2
			c0.1-0.5-0.8-1.3-1.1-1.7c-0.5-0.7-1.1-1.4-1.5-2.1c-1.9-0.9,0.2-1.1-0.8-2c-0.5,0-0.7-0.3-0.7-0.6c-0.2-0.8,0.1-0.8-0.7-1.5
			c-0.2-0.1-0.4-0.3-0.5-0.8c-0.2-0.5-0.3-0.9-0.5-1.5c0-0.4-0.1-0.7-0.1-1.1c-0.1-1.1,0.1-0.9-0.9-1.3c-0.3-0.1-0.4-0.1-0.6-0.1
			c-0.1,0.1-0.1,0.1-0.2,0.1c-0.2,0.1-0.3,0.5-0.3,0.8c0.1,0.9-0.1,1.1,0.2,1.7c0.2,0.2,0.3,0.6,0.5,0.8c0.5,0.7,0.6,0.6,0.6,1.4
			c0,0.7-0.1,0.8,0.3,1.5c1.1,1.4,0.7,1.6,1.1,2.7c-0.1,0.7,0,1-0.3,1.1c-0.5,0.1-0.8-0.1-1.2-0.3c-0.4-0.4-0.1-0.7,0.1-1.1
			c0.5-0.9-0.7-1.6-1.2-2c-0.8-0.7-1.3-1.1-0.5-1.9c0.6-0.6,0.2-1.1-0.1-1.6c-0.9-0.8-1-0.9-0.9-1.5c0.1-0.7,0.1-0.9-0.1-1.1
			C11.4,8.9,6,10.7,0.6,12.8v92.6c6.9,2.7,13.7,4.9,20.6,6.8c10.5,2.8,21.1,4.6,31.7,5.3c2.1,0.1,4.2,0.3,6.3,0.3
			c1.9,0.1,3.8,0.1,5.7,0.1h1.7c0.3-0.1,0.7-0.1,1-0.2c1.4,0.2,0.3-1,0.9-1.4c0.1,0,0.2-0.1,0.3-0.1c0.6-0.1,0.5-0.1,0.8,0.4
			c0.3,0.6,0.6,0.9,1.1,1.2h0.6c3.1-0.1,6.2-0.3,9.2-0.7c16.3-1.5,32.6-5.4,48.6-11.7V12.8C113,6.5,96.7,2.6,80.4,1 M53.4,20.3
			c-0.2,0.1-0.3,0.1-0.5,0.2c-0.1,0.1-0.2,0.3-0.5,0.5c-0.6,0.5-0.9-0.2-0.1-0.7c0.2-0.1,0.4-0.3,0.5-0.3
			C53.8,19.6,54.5,20.1,53.4,20.3 M62.8,23.8c-0.6,0.1-0.7,0-1.2,0.1c-0.9,0.1-1.1,0.1-0.9-0.7c0.1-0.7-1.2-0.3-1.5-0.7
			c-0.1-0.1-0.1-0.1,0-0.3v-0.1c-0.4-0.7-0.1-0.5-1.3-0.5c-0.3,0-0.6-0.1-0.8-0.3c-0.5-0.5-0.7-0.7-1.5-0.6
			c-0.7,0.1-1.2-1.1-0.7-1.3c1.1-0.1,0.7,0.4,1.6,0.4c0.6,0,0.8,0.1,1.3,0.5c0.3,0.2,0.5,0.3,1.1,0.3c0.1,0,0.2,0,0.3,0.1
			c0.3,0.1,0.5,0.2,0.9,0.4c0.2,0.1,0.4,0.3,0.5,0.4c0.4,0.4,0.7,0.7,1.2,0.7c0.7,0.1,0.7,0,1.2,0.5C63.6,23.4,64.2,23.6,62.8,23.8
			 M65.6,26c-0.1,0-0.4,0-0.7-0.1c-0.3,0-0.6-0.1-0.6-0.3c0-0.5,0.1-0.3,0.5-0.3h0.1c0.3,0,0.3-0.1,0.4,0.3c0.1,0.1,0.2,0.1,0.5,0.1
			C66.1,25.9,65.9,26.1,65.6,26 M69.6,25.5c-0.9,0-1-0.1-1.2,0.3c-0.1,0.1-0.1,0.3-0.3,0.5c-0.1,0.2-0.1,0.1-0.5,0
			c-0.6-0.1-1-0.5-1-0.8c-0.1-0.2-0.1-0.3-0.1-0.5c-0.9-2-0.3-0.5,1.6-0.9c0.1-0.1,0.2-0.1,0.3-0.1c0.6-0.1,0.7-0.2,1.3,0.4
			c0.1,0.1,0.3,0.3,0.5,0.5C71.7,25.4,69.9,25.8,69.6,25.5 M71.2,25.6c-0.1,0-0.3-0.1-0.3-0.3c0-0.2,0.1-0.3,0.3-0.3
			c0.2,0,0.3,0.1,0.3,0.3C71.5,25.5,71.4,25.6,71.2,25.6 M64.9,103.8L64.9,103.8c0.1-0.1,0.1-0.2,0.2-0.5c0-0.3,0.2-0.1,0.1,0.1
			c-0.1,0.4-0.1,1.2-0.3,1.3c-0.5,0-0.3-0.1-0.3-0.5C64.6,103.8,64.6,103.9,64.9,103.8 M21.6,18.3c-0.2,0.1-0.3,0.1-0.4,0.1
			c0,0-0.1-0.1-0.1-0.1c-0.1-0.7-0.7-0.3-0.5-0.8c0.1-0.5,0.4-0.6,0.6-0.5c0.2,0.1,0.3,0.3,0.5,0.5C21.9,17.9,22,18.1,21.6,18.3
			 M81.9,109.6c-0.3,0.7-0.5,0.5-1.3,0.3h-0.2c-0.4,0.1-0.4,0.5-1.1,0.3c-0.4-0.3-0.6-0.6-0.5-0.9c0.1-0.3,0.2-0.5,0.5-0.4
			c0.4,0.1,0.7,0.1,1.1,0c0.2-0.1,0.4-0.1,0.5-0.2C82.1,108.3,82.1,109,81.9,109.6"/>
	</g>
	<g>
		<path class="st1" d="M175.1,97.1H163l-2.8,7.7h-3.9l11.2-29.2h3.4l11.2,29.2h-3.9L175.1,97.1z M164.1,93.9h9.9L169,80.3
			L164.1,93.9z"/>
		<path class="st1" d="M198.9,92.9H192v11.8h-3.9V75.5h9.7c3.3,0,5.7,0.8,7.6,2.3s2.6,3.6,2.6,6.6c0,1.8-0.5,3.4-1.5,4.8
			s-2.3,2.3-4.1,3l6.9,12.3v0.2h-4.1L198.9,92.9z M192.2,89.7h5.9c2,0,3.4-0.5,4.6-1.5c1.1-1,1.6-2.3,1.6-3.9c0-1.8-0.5-3.1-1.6-4.1
			c-1.1-1-2.6-1.5-4.6-1.5h-5.9V89.7z"/>
		<path class="st1" d="M237.5,100.8c-1,1.5-2.3,2.5-4.1,3.1c-1.8,0.7-3.8,1-6.2,1c-2.3,0-4.4-0.5-6.4-1.6c-1.8-1.1-3.3-2.6-4.3-4.8
			s-1.5-4.4-1.5-7.2v-2.5c0-4.4,1-7.9,3.1-10.2c2-2.5,4.9-3.6,8.7-3.6c3.1,0,5.4,0.8,7.4,2.3c1.8,1.5,3,3.8,3.4,6.6h-3.8
			c-0.7-3.9-3-5.7-6.9-5.7c-2.6,0-4.6,1-5.9,2.8c-1.3,1.8-2,4.4-2,7.9v2.5c0,3.3,0.8,5.9,2.3,7.9c1.5,2,3.4,3,6.1,3
			c1.5,0,2.6-0.2,3.8-0.5s2-0.8,2.6-1.6v-6.6h-6.7v-3.1h10.5v10.5H237.5z"/>
		<path class="st1" d="M263,91.1h-12.6v10.3h14.6v3.1h-18.6V75.5h18.4v3.1h-14.5V88H263L263,91.1L263,91.1z"/>
		<path class="st1" d="M294.7,104.8h-3.8l-14.8-22.5v22.5h-3.9V75.5h3.9l14.8,22.7V75.5h3.8V104.8z"/>
		<path class="st1" d="M323.6,78.7h-9.4v26.1h-3.8V78.7h-9.4v-3.1h22.5V78.7z"/>
		<path class="st1" d="M334.6,104.8h-3.8V75.5h3.8V104.8z"/>
		<path class="st1" d="M366.4,104.8h-3.9l-14.6-22.5v22.5h-3.9V75.5h3.9l14.8,22.7V75.5h3.8L366.4,104.8L366.4,104.8z"/>
		<path class="st1" d="M392.2,97.1h-12.2l-2.8,7.7h-3.9l11.2-29.2h3.4l11.2,29.2h-3.9L392.2,97.1z M381.2,93.9h9.9l-4.9-13.6
			L381.2,93.9z"/>
	</g>
	<g id="g304">
		<path id="path306" class="st1" d="M185.9,12.1v8h-18v10.8h16.5v8h-16.5v17h-10.6V12.1H185.9z"/>
	</g>
	<g id="g308">
		<path id="path310" class="st1" d="M195.1,12.1h10.6v35.7h15.2V56H195L195.1,12.1L195.1,12.1L195.1,12.1z"/>
	</g>
	<g id="g312">
		<path id="path314" class="st1" d="M242.5,38.9h10l-1.6-5.2c-0.6-1.8-1.1-3.6-1.8-5.6c-0.6-2-1-3.8-1.5-5.4h-0.2
			c-0.5,1.6-1,3.4-1.6,5.2c-0.6,2-1.1,3.8-1.8,5.6L242.5,38.9L242.5,38.9L242.5,38.9z M242.2,12.1h11.3l15.9,44H258l-2.9-9.5h-14.7
			l-2.9,9.5h-11.1L242.2,12.1L242.2,12.1z"/>
	</g>
	<g id="g316">
		<path id="path318" class="st1" d="M295.8,48.8c2.1,0,3.9-0.2,5.2-0.5c1.5-0.3,2.6-0.8,3.6-1.5l2.1,7.5c-1,0.5-2.5,1.2-4.6,1.6
			s-4.6,0.8-7.7,0.8c-3.4,0-6.5-0.5-9.5-1.6s-5.4-2.6-7.4-4.6s-3.6-4.4-4.8-7.2c-1.1-2.8-1.6-5.9-1.6-9.5s0.5-6.5,1.6-9.3
			s2.6-5.2,4.8-7.2c2-2,4.4-3.4,7.4-4.6s6.2-1.6,9.8-1.6c3.1,0,5.6,0.3,7.5,0.8c2,0.5,3.4,1.1,4.6,1.8l-2.3,7.7
			c-1-0.6-2.3-1.1-3.8-1.6s-3.1-0.6-4.9-0.6s-3.6,0.3-5.2,0.8s-3.1,1.3-4.2,2.6c-1.1,1.1-2.1,2.6-3,4.4c-0.6,1.8-1,4.1-1,6.7
			c0,2.5,0.3,4.6,1,6.5c0.6,1.8,1.6,3.4,2.8,4.6c1.1,1.2,2.6,2.1,4.2,2.8C292.1,48.4,293.9,48.6,295.8,48.8"/>
	</g>
	<g id="g320">
		<path id="path322" class="st1" d="M331,11.3c3.1,0,5.7,0.3,8,1c2.3,0.6,4.2,1.3,5.9,2.3l-2.3,7.7c-1.8-1-3.6-1.6-5.6-2.1
			c-1.8-0.5-3.6-0.8-5.2-0.8c-2.1,0-3.8,0.3-4.9,1.1s-1.6,1.8-1.6,3.1c0,1.5,0.5,2.6,1.6,3.3s2.8,1.5,4.9,2.1l4.1,1.3
			c1.6,0.5,3.1,1.3,4.6,2.1c1.3,0.8,2.6,1.8,3.6,2.8s1.8,2.3,2.3,3.6c0.6,1.3,0.8,2.8,0.8,4.4c0,1.8-0.3,3.6-1,5.2
			c-0.6,1.6-1.8,3.1-3.1,4.4c-1.5,1.3-3.3,2.3-5.4,3S332.9,57,330,57c-2.8,0-5.4-0.3-7.9-0.8s-4.8-1.5-6.9-2.5l2.3-7.7
			c2,1,3.9,1.8,5.9,2.3c2,0.7,3.9,0.8,6,0.8c2.5,0,4.2-0.3,5.4-1.2s1.6-2,1.6-3.3c0-0.5-0.2-1-0.3-1.5c-0.2-0.5-0.5-1-1.1-1.5
			c-0.5-0.5-1.3-1-2.3-1.3s-2.1-0.8-3.6-1.3l-3.4-1.2c-1.6-0.7-3.1-1.3-4.6-2c-1.5-0.8-2.6-1.6-3.6-2.6s-1.8-2.3-2.3-3.6
			c-0.6-1.3-0.8-3-0.8-4.8s0.3-3.6,1.1-5.2c0.6-1.6,1.8-3.1,3.3-4.2s3.1-2.1,5.2-2.8C325.9,11.5,328.4,11.1,331,11.3"/>
	</g>
	<g id="g324">
		<path id="path326" class="st1" d="M366.2,34.2c0,2.5,0.3,4.6,0.8,6.5c0.6,1.8,1.3,3.4,2.5,4.6c1,1.2,2.1,2.1,3.4,2.8
			s2.8,0.8,4.2,0.8s3-0.3,4.2-0.8c1.3-0.7,2.5-1.5,3.4-2.8s1.8-2.8,2.3-4.6c0.6-1.8,0.8-4.1,0.8-6.5s-0.3-4.8-0.8-6.7
			c-0.6-2-1.3-3.4-2.5-4.6c-1-1.1-2.1-2.1-3.4-2.8s-2.8-1-4.2-1s-3,0.3-4.2,1c-1.3,0.6-2.5,1.5-3.4,2.8s-1.8,2.8-2.3,4.8
			C366.5,29.5,366.2,31.6,366.2,34.2 M377.3,11.1c3.1,0,6,0.5,8.8,1.6c2.6,1,5.1,2.6,7,4.6s3.4,4.4,4.6,7.2s1.6,6,1.6,9.7
			s-0.6,6.7-1.8,9.5s-2.6,5.2-4.8,7.2c-2,2-4.2,3.4-7,4.6s-5.7,1.6-8.8,1.6s-6-0.5-8.8-1.5c-2.6-1-5.1-2.5-7-4.4s-3.4-4.2-4.6-7.2
			c-1.1-2.8-1.6-6-1.6-9.6s0.5-6.7,1.6-9.5s2.6-5.2,4.8-7.2s4.4-3.6,7-4.6C371.3,11.8,374.2,11.1,377.3,11.1"/>
	</g>
	<path id="path1328" class="st2" d="M1.1,146.8h400.7"/>
	<g>
		<path class="st1" d="M96.6,194.6l0.1,0.1c0,2.7-0.7,4.8-2.1,6.2s-3.3,2.1-5.8,2.1s-4.6-0.9-6.1-2.7s-2.3-4.4-2.3-7.8v-7.7
			c0-3.3,0.8-5.9,2.3-7.7s3.5-2.8,6.1-2.8s4.4,0.7,5.8,2.1c1.4,1.4,2.1,3.5,2.1,6.3l-0.1,0.1h-2.1c-0.1-2.2-0.6-3.8-1.5-4.9
			s-2.4-1.6-4.2-1.6s-3.4,0.7-4.5,2.2c-1.1,1.4-1.6,3.5-1.6,6.2v7.8c0,2.8,0.5,4.9,1.6,6.3s2.6,2.2,4.5,2.2s3.3-0.5,4.2-1.6
			c1-1,1.5-2.7,1.5-5L96.6,194.6L96.6,194.6z"/>
		<path class="st1" d="M113.9,202.7c-0.1-0.7-0.2-1.3-0.3-1.8c-0.1-0.5-0.1-0.9-0.1-1.4c-0.6,1-1.4,1.9-2.4,2.6s-2.1,1-3.3,1
			c-1.7,0-3-0.5-4-1.6s-1.4-2.5-1.4-4.3c0-1.9,0.7-3.5,2-4.6s3.2-1.7,5.5-1.7h3.6v-2.6c0-1.5-0.4-2.6-1.1-3.4s-1.8-1.2-3.1-1.2
			c-1.2,0-2.2,0.4-3.1,1.2s-1.2,1.8-1.2,2.9h-2.1v-0.1c-0.1-1.6,0.5-2.9,1.8-4.2s2.8-1.8,4.8-1.8s3.5,0.6,4.6,1.8s1.8,2.8,1.8,5
			v10.2c0,0.7,0,1.5,0.1,2.1c0.1,0.7,0.2,1.4,0.3,2L113.9,202.7L113.9,202.7z M108.1,201c1.3,0,2.4-0.4,3.4-1.1
			c1-0.7,1.7-1.7,2.1-2.8v-4.5h-3.7c-1.6,0-2.8,0.4-3.8,1.3s-1.4,2-1.4,3.3c0,1.1,0.3,2,0.9,2.7S107,201,108.1,201z"/>
		<path class="st1" d="M125.1,182l0.2,3.2c0.6-1.1,1.3-2,2.2-2.7c0.9-0.6,2-0.9,3.2-0.9s2.3,0.4,3.2,1.1c0.9,0.7,1.5,1.9,1.9,3.3
			c0.5-1.4,1.2-2.5,2.2-3.2s2.1-1.2,3.4-1.2c1.8,0,3.2,0.7,4.2,2.2s1.5,3.7,1.5,6.8v12.1h-2.3v-12.1c0-2.5-0.3-4.3-1-5.4
			s-1.7-1.6-2.9-1.6c-1.3,0-2.4,0.6-3.1,1.7s-1.2,2.6-1.4,4.3v13h-2.3v-12.1c0-2.5-0.4-4.3-1.1-5.3c-0.7-1.1-1.7-1.6-3-1.6
			s-2.2,0.4-2.9,1.1c-0.7,0.7-1.3,1.7-1.6,3v14.9H123V182H125.1L125.1,182z"/>
		<path class="st1" d="M168.1,194.1c0,2.7-0.6,4.9-1.8,6.5s-2.8,2.4-4.8,2.4c-1.2,0-2.2-0.2-3-0.7c-0.9-0.5-1.6-1.2-2.2-2.1v10.4
			H154V182h1.9l0.2,2.9c0.6-1,1.3-1.8,2.2-2.4c0.9-0.6,1.9-0.8,3.1-0.8c2.1,0,3.7,0.9,4.9,2.6c1.2,1.8,1.8,4.1,1.8,7.1L168.1,194.1
			L168.1,194.1z M165.8,191.3c0-2.3-0.4-4.1-1.2-5.5s-2.1-2.1-3.7-2.1c-1.1,0-2.1,0.3-2.8,1c-0.8,0.7-1.3,1.6-1.7,2.6v10.5
			c0.4,1.1,1,1.9,1.8,2.5s1.7,0.9,2.8,0.9c1.6,0,2.8-0.6,3.6-1.9c0.8-1.3,1.2-3,1.2-5.1L165.8,191.3L165.8,191.3z"/>
		<path class="st1" d="M185.7,199.5c-0.6,1.2-1.3,2.1-2.2,2.7c-0.9,0.6-2,0.9-3.2,0.9c-1.8,0-3.3-0.7-4.3-2.2s-1.5-3.8-1.5-6.9v-12
			h2.3v12c0,2.5,0.3,4.3,1,5.4s1.6,1.6,2.9,1.6c1.3,0,2.4-0.4,3.2-1.1c0.8-0.7,1.4-1.7,1.8-2.9v-15h2.3v20.7h-2.1L185.7,199.5
			L185.7,199.5z"/>
		<path class="st1" d="M205,197.8c0-0.9-0.3-1.8-0.9-2.4c-0.6-0.7-1.8-1.4-3.4-2.2c-2.1-0.9-3.6-1.8-4.6-2.6c-1-0.9-1.5-2.1-1.5-3.5
			s0.6-2.7,1.7-3.8c1.2-1.1,2.7-1.6,4.5-1.6c2,0,3.5,0.6,4.7,1.7s1.7,2.6,1.6,4.4v0.1H205c0-1.1-0.4-2.1-1.1-2.9
			c-0.7-0.8-1.7-1.2-3-1.2s-2.3,0.3-2.9,1s-1,1.4-1,2.3c0,0.9,0.3,1.7,0.8,2.2c0.5,0.6,1.7,1.2,3.4,2.1c2.1,0.8,3.6,1.7,4.6,2.7
			s1.5,2.2,1.5,3.7c0,1.6-0.6,3-1.8,4s-2.7,1.5-4.7,1.5c-2.1,0-3.8-0.6-5-1.8s-1.8-2.6-1.7-4.3v-0.1h2.1c0.1,1.5,0.6,2.6,1.4,3.2
			s1.9,1,3.1,1c1.3,0,2.3-0.3,3-1C204.7,199.5,205,198.7,205,197.8L205,197.8z"/>
		<path class="st1" d="M229,197.5l0.5,2h0.1l0.5-2l4.4-15.5h2.4l-6.4,20.7h-1.8l-6.5-20.7h2.4L229,197.5L229,197.5z"/>
		<path class="st1" d="M244.7,176.1h-2.3v-3.2h2.3V176.1z M244.7,202.7h-2.3V182h2.3V202.7z"/>
		<path class="st1" d="M260.1,184l-1.5-0.1c-1.1,0-2,0.4-2.7,1.1c-0.7,0.7-1.2,1.7-1.6,3v14.7H252V182h2l0.3,3.4
			c0.5-1.2,1.1-2.1,1.9-2.8c0.8-0.7,1.7-1,2.8-1c0.2,0,0.5,0,0.7,0.1c0.2,0,0.4,0.1,0.6,0.1L260.1,184L260.1,184z"/>
		<path class="st1" d="M269.6,176.7v5.3h3.6v1.9h-3.6v13.4c0,1.3,0.2,2.3,0.6,2.9s0.9,0.8,1.5,0.8c0.3,0,0.6,0,0.9-0.1
			s0.6-0.1,1-0.2l0.3,1.8c-0.3,0.1-0.7,0.3-1.2,0.4c-0.5,0.1-1,0.1-1.5,0.1c-1.2,0-2.2-0.5-2.9-1.4c-0.7-0.9-1-2.4-1-4.4v-13.4h-2.9
			V182h2.9v-5.3H269.6L269.6,176.7z"/>
		<path class="st1" d="M290.6,199.5c-0.5,1.2-1.3,2.1-2.2,2.7c-0.9,0.6-2,0.9-3.2,0.9c-1.8,0-3.3-0.7-4.3-2.2s-1.5-3.8-1.5-6.9v-12
			h2.3v12c0,2.5,0.3,4.3,1,5.4s1.6,1.6,2.9,1.6s2.4-0.4,3.2-1.1c0.8-0.7,1.4-1.7,1.8-2.9v-15h2.3v20.7h-2.1L290.6,199.5L290.6,199.5
			z"/>
		<path class="st1" d="M310.8,202.7c-0.1-0.7-0.2-1.3-0.3-1.8c-0.1-0.5-0.1-0.9-0.1-1.4c-0.6,1-1.4,1.9-2.4,2.6s-2.1,1-3.3,1
			c-1.7,0-3-0.5-4-1.6s-1.4-2.5-1.4-4.3c0-1.9,0.7-3.5,2-4.6s3.2-1.7,5.5-1.7h3.6v-2.6c0-1.5-0.4-2.6-1.1-3.4s-1.8-1.2-3.1-1.2
			c-1.2,0-2.2,0.4-3,1.2s-1.2,1.8-1.2,2.9h-2.1v-0.1c-0.1-1.6,0.5-2.9,1.8-4.2s2.8-1.8,4.8-1.8s3.5,0.6,4.6,1.8s1.8,2.8,1.8,5v10.2
			c0,0.7,0,1.5,0.1,2.1c0.1,0.7,0.2,1.4,0.3,2L310.8,202.7L310.8,202.7z M304.9,201c1.3,0,2.4-0.4,3.4-1.1c1-0.7,1.7-1.7,2.1-2.8
			v-4.5h-3.7c-1.6,0-2.8,0.4-3.8,1.3s-1.4,2-1.4,3.3c0,1.1,0.3,2,0.9,2.7S303.9,201,304.9,201z"/>
		<path class="st1" d="M322.5,202.7h-2.3v-29.9h2.3V202.7z"/>
	</g>
</g>
</svg>
