<?xml version="1.0" encoding="utf-8"?>
<!-- Generator: Adobe Illustrator 26.5.0, SVG Export Plug-In . SVG Version: 6.00 Build 0)  -->
<svg version="1.1" id="Capa_1" xmlns="http://www.w3.org/2000/svg" xmlns:xlink="http://www.w3.org/1999/xlink" x="0px" y="0px"
	 viewBox="0 0 488 73" style="enable-background:new 0 0 488 73;" xml:space="preserve">
<style type="text/css">
	.st0{fill:#192E4D;}
	.st1{fill:#FFFFFF;}
	.st2{fill:#FFFFFF;stroke:#FFFFFF;stroke-width:3;}
</style>
<g>
	<path class="st0" d="M78.9,64.9c0,0-18.1,7.7-39.5,7.7S0.3,64.9,0.3,64.9V8.3c0,0,17.9-7.7,38.9-7.7c22.8,0,39.6,7.7,39.6,7.7
		S78.9,64.9,78.9,64.9z"/>
	<path class="st1" d="M49.1,1.1c-1.9-0.2-3.7-0.3-5.6-0.4c-0.6,0-1.1,0-1.7,0h-2.1c-1.2,0-2.3,0-3.5,0c-1.3,0-2.6,0.1-3.9,0.2
		c-6.5,0.5-12.9,1.5-19.4,3.2c-0.2,0.1-0.4,0.1-0.7,0.2c0.2,0.3,0.4,0.3,0.7,0.4c0,0,0.1,0,0.1,0.1c0.3,0.2,0.4,0.4,0.8,0.4
		c0.5,0,1,0.1,1.5,0c1-0.2,1.1-0.4,1.8,0.2c0.4,0.3,0.4,0.3,0.5,0.8c0.1,0.4,0,0.6,0.4,0.9c0.3,0.3,0.6,0.3,0.8-0.1
		c0.4-0.9,1.5,0.2,1.5,0.7c0,0.8,0.2,0.3,0.4,0.6c0.2,0.1,0.1,1.2,0.9,1.5c0.3,0.1,0.5,0,0.6,0.4c0,0.1,0,0.3-0.1,0.4
		c-0.1,0.2-0.2,0.5-0.3,0.7c-0.4,0.9-0.3,1.6,0.1,2.4c0.1,0.2,0.2,0.4,0.4,0.7c0.3,0.9,0.4,1.1,1,1.4c0.4,0.2,0.8,0.2,1.2,0.2
		c0.3,0,0.4,0,0.6-0.2c0.3-0.2,0.4-0.2,0.6,0c0.6,0.4,0.4,0,0.7-0.4c0.4-0.6,0.6-0.1,0.6-1.1c0-0.2,0.2-0.4,0.5-0.5
		c0.7,0,0.8-0.3,1.5-0.2c0.3,0,0.8,0,0.6,0.7c-0.4,0.4-0.4,0.4-0.5,0.9c0,0.5-0.1,0.6-0.3,1c-0.4,0.5-0.2,0.3-0.3,0.9
		c0,0.2-0.2,0.4-0.3,0.6c-0.1,0.3,0.1,0.5,0.6,0.4c0.3-0.1,0.6-0.1,0.9,0c0.4,0,0.6,0,1,0c0.5,0,1,0,1.3,0.4
		c0.4,0.4,0.3,0.6,0.2,1.4c-0.1,0.2,0.1,0.4,0,0.6c0,0.4-0.3,0.8-0.3,1.1c0,0.2,0,0.4,0.1,0.6c0.2,0.3,0.3,0.5,0.5,0.6
		c0.2,0.2,0.4,0.4,0.8,0.7c1.1,0.6,1.2,0,2-0.2c0.5,0,0.8,0,1.1,0.1s0.5,0.3,0.8,0.6c0.3,0.3,0.5,0.4,0.6-0.2c0-0.2,0.2-0.4,0.3-0.5
		c0.3,0,0.2-0.1,0.3-0.4c0,0,0-0.1,0.1-0.1v-0.1c0.1-0.6,0.8-0.9,1.3-0.9h0.1c0.3,0,0.8-0.2,0.9-0.5c0.2-0.2,0.9-0.7,0.5,0.2
		c-0.1,0.2-0.2,0.2-0.2,0.4c0,0.1,0,0.1,0,0.2c0.1,0.3-0.1,0.4-0.2,0.6c0,0.2,0.2,0.2,0.2,0.2c0.1,0.1,0.1,0.3,0.2,0.4
		c0.2,0.1,0.4,0,0.4-0.3v-0.2c0-0.1-0.1-0.2-0.1-0.4c0-0.2,0-0.4,0.1-0.5c0,0,0.1-0.1,0.2-0.1c0.6-0.4,1.1-0.6,1.5-0.2
		c0.1,0,0.1,0.1,0.2,0.2c0.5,0.5,0.3,0.5,1,0.6c0.6,0,0.7-0.1,1.2,0.2c0.3,0.2,1.2,0.4,1.5,0c0.2-0.5,0.9-0.5,1.1-0.1
		c0.2,0.3,0.3,0.3,0.6,0.4c0,0,0,0,0,0c0.2,0,0.3,0.1,0.5,0.2c0.3,0.3,0,0.2,0,0.6c0,0.3,0,0.2,0.4,0.2c0.7,0,1.5,0.3,1.7,1
		c0.1,0.4,0.5,0.2,0.8,0.4c0.4,0.5,0.2,0.5,1,0.6c0.2,0,0.3,0,0.4,0c0.6-0.2,0.8-0.2,1.2,0c0.3,0.2,0.4,0.5,0.8,0.4
		c0.6-0.1,0.7,0.4,1.1,0.7c0.5,0.4,0.8,0.4,0.8,1.2c0,0.6,0,0.4,0.4,0.8c0.4,0.6,0.6,0.6-0.1,1.3c-0.5,0.4-0.5,0.7,0.3,0.2
		c0.3-0.2,0.5,0.1,1,0.2c0.2,0.2,0.2,0.4,0,0.6c0,0.6-0.1,0.6,0.4,0.2c0.5-0.5,1-0.6,1.7-0.1c0.2,0.2,0.5,0.4,0.7,0.6
		c0.6,0.6,1.3,0.9,2.2,0.9c0.6,0,0.9,0.2,1.4,0.2c0.7-0.1,1.3,0.2,1.7,0.9c0.2,0.3,0.5,0.6,0.8,0.7c0.8,0.4,1.1-0.1,1.5,0.9
		c0.6,1.7-0.6,3.2-1.8,4.4c-0.4,0.5-0.3,0.8-0.6,1.2c-0.4,0.4-1.1,0.1-1,0.8c0.1,0.3-0.2,0.5-0.2,0.8c0,0.2,0,0.3,0,0.4
		c0,0.4,0.2,0.8-0.2,1.1c0,0.4-0.1,0.7-0.2,1.1c-0.4,0.8-0.7,1.3-0.9,1.7c-0.2,0.3-0.3,0.4-0.6,0.6c-0.4,0.3-0.2,0.7-0.4,1
		c-0.1,0.1-0.2,0.2-0.4,0.3c-0.6,0.4-0.5,0.5-1.3,0.5c-1.4,0-3.3,0.9-4.1,2.1c-0.3,0.5-0.3,0.8-0.4,1.2c-0.1,0.6-0.4,0.5-0.7,0.9
		c-0.6,0.7-0.6,1.5-1.3,1.2c-0.2,0-0.2,0.2-0.5,0.5c-0.2,0.2-0.4,0.4-0.5,0.7c0,0.3-0.1,0.4-0.4,0.7c-0.2,0.2-0.4,0.4-0.7,0.7
		c-0.4,1-1.2,0.8-2.1,0.7c-0.2,0-0.6-0.2-0.9-0.3c-0.6-0.2-0.5,0.2-0.1,0.4c0.2,0.1,0.2,0.1,0.2,0.2c0.1,0.4-0.4,0.5,0.2,0.9
		c0.1,0.3,0,0.6-0.3,0.9c-0.4,0.6-1,0.8-1.7,0.9c-0.4,0-0.8,0-1.2,0c-0.8,0-0.6-0.2-0.7,0.5c0,0.2-0.1,0.3-0.2,0.5
		c0,0.6-0.4,0.8-0.9,0.6c-0.9-0.4-0.6-0.4-0.8,0.2c-0.1,0.2-0.1,0.3,0,0.4c0,0.1,0,0.3,0.1,0.3s0.1,0,0.2,0c0.3,0,0-0.2,0.4-0.2
		c0.1,0,0.1,0.1,0.1,0.2c-0.1,0.3-0.1,0.2-0.4,0.2c-0.3,0-0.4,0-0.4,0.3c0,0.4-0.2,0.3-0.4,0.6c0,0.1-0.1,0.2-0.1,0.4
		c-0.1,0.4-0.4,0.3-0.8,0.4c-0.2,0.1-0.4,0.2-0.6,0.4c-0.2,0.2-0.2,0.5,0,0.8c0,0,0.1,0.1,0.2,0.2c0.1,0.1,0.1,0.2,0.2,0.2
		c0.4,0.1,0.4-0.1,0.4,0.3c0,0.4-0.2,0.4-0.6,0.6c-0.1,0.1-0.2,0.1-0.2,0.2c-0.2,0.1-0.2,0.2-0.4,0.5c0,0.3-0.2,0.5-0.4,0.6
		c-0.7,0.2-0.7,0.4-0.5,1c0.1,0.5-0.1,0.4-0.4,0.5c-0.1,0-0.3,0.1-0.4,0.2c-0.2,0.2-0.3,0.4-0.4,0.6c-0.4,0.3,0.1,0-0.8,0.2
		c-0.4,0.1-0.4-0.2-0.4-0.6c0-0.2-0.1-0.3-0.1-0.4c0,0-0.1-0.1-0.1-0.2c-0.2-0.5,0-0.4-0.4-0.8c-0.4-0.2,0-0.6-0.1-0.8
		c-0.2-0.4-0.2-0.2-0.2-0.6c0-0.1-0.1-0.2-0.1-0.4c-0.1-0.2-0.1-0.3,0.2-0.4c0.3-0.2,0.3-0.1,0.4-0.4c0.2-0.8,0.1-0.2-0.3-0.6
		c-0.1-0.1,0-0.3,0.1-0.5c0.3-0.4,0.4-0.4,0.6-0.4c0,0,0.1,0,0.2,0c0.2-0.1,0.1-0.3,0.2-0.7c0-0.5,0.2-0.8,0.3-1.1
		c0.2-0.2,0.2-0.5,0-0.8c-0.2-0.5-0.8,0-0.7-0.8c0.1-0.6,0.2-0.6,0.4-1.1c0.1-0.2,0-0.5,0-0.8C39.9,60,40,60,40.4,59.2
		c0.1-0.3,0.3-0.5,0.4-0.8c0.1-0.3,0.1-0.5,0.2-0.8c0.3-0.2,0.3-0.3,0.3-0.7c0-0.5,0.2-0.5,0.2-0.9c0-0.4-0.1-0.3-0.2-0.6
		c0-0.2,0-0.3,0-0.4c0.2-0.5,0.4-0.3,0.2-0.9c-0.1-0.3,0.1-0.7,0.3-1c0-0.1,0.1-0.2,0.1-0.2c0.2-0.6,0.3-1,0.4-1.6
		c0.1-0.4,0.1-0.8,0-1.1c0-0.3,0-0.5,0-0.6c0.1-0.4,0.3-0.3,0.2-0.8c0-0.3-0.1-0.7,0-0.9c0.2-0.5,0-1.1,0-1.7c0-0.6-0.2-0.8-0.6-1.2
		c-0.1,0-0.2-0.1-0.3-0.2c-0.5-0.4-1.1-0.9-1.6-1.1c-0.1,0-0.2-0.1-0.2-0.1c-0.6-0.2-0.6,0-1.2-0.6c-0.2-0.2-0.3-0.4-0.5-0.6
		c-0.2-0.4,0.2-0.4,0-0.8c-0.1-0.2-0.4-0.4-0.5-0.5c-0.5-0.7-0.9-1.5-1.2-2.2c-0.5-1.1-1-2.1-1.9-2.8c-0.3,0-0.4-0.2-0.3-0.5
		c0-0.3-0.1-0.5-0.2-0.6c-0.3-0.6,0.6-0.9,1-1.1c0.3-0.2,0.3-0.4,0-0.6c-0.1,0-0.2-0.1-0.4-0.1c-0.6-0.2-0.4-1-0.1-1.3
		c0.2-0.2,0.4-0.6,0.4-0.9c0.1-0.5,0.1-0.6,0.4-0.7c0.5-0.1,0.4-0.2,0.6-0.6c0-0.4,0-0.4,0.4-0.5c0,0,0.1,0,0.1,0
		c0.9-0.8,0.8-1.2,0.7-2.3c0-0.6-0.1-0.7-0.4-1.3c-0.2-0.3-0.3-0.3-0.4-0.4c0,0,0-0.1,0-0.2c0-0.5,0.1-0.4-0.3-0.9
		c-0.3-0.2-0.7-0.2-1,0.2c0,0.1,0,0.2-0.1,0.3c-0.4,0.2-0.3,0-0.2,0.6c0,0.1,0,0.2,0,0.2c-0.5,0.3-0.4-0.3-0.6-0.4
		c-0.3-0.1-0.2,0.1-0.6-0.3c-0.2-0.2-0.2-0.2-0.6-0.2h-0.4c-0.1,0-0.2-0.1-0.3-0.4c-0.2-0.2,0-0.4-0.4-0.5c-0.1,0-0.2,0-0.2,0
		c-0.4-0.3-0.1-0.3-0.6-0.2c-0.2,0-0.5-0.2-0.5-0.5c0.1-0.8,0-0.7-0.8-1.3c-0.3-0.3-0.4-0.6-0.5-0.8c-0.2-0.4-0.3-0.2-0.7-0.2
		c-0.2,0-0.8-0.1-1.1-0.3c-0.6-0.4-0.8-0.3-1.3-0.4c-0.6-0.1-1-0.7-1.2-1.1c-0.3-0.5-0.9-0.8-1.5-0.6c-0.5,0.1-0.6,0.6-1.2,0.5
		c-0.4-0.1-0.6-0.5-1.5-0.6c-0.6-0.1-1-0.4-1.5-0.7c-0.6-0.2-0.7-0.7-1.2-0.8c-1.2-0.3-0.6-0.2-1.1-0.7c-0.1-0.1-0.2-0.2-0.4-0.2
		c-0.3-0.2-0.8-0.6-0.5-1c0.3-0.4,0.4-0.7,0.2-1c-0.2-0.3-0.2-0.5-0.1-0.7c0-0.3-0.5-0.8-0.7-1c-0.3-0.4-0.6-0.9-0.9-1.3
		c-1.2-0.5,0.1-0.6-0.5-1.3c-0.3,0-0.4-0.2-0.4-0.4c-0.1-0.5,0-0.5-0.4-0.9c-0.1-0.1-0.2-0.2-0.3-0.5c-0.1-0.3-0.2-0.6-0.3-0.9
		c0-0.2,0-0.4,0-0.7c0-0.6,0.1-0.6-0.5-0.8c-0.2,0-0.2-0.1-0.4-0.1c0,0-0.1,0-0.1,0c-0.1,0.1-0.2,0.3-0.2,0.5c0,0.5,0,0.6,0.1,1
		c0.1,0.1,0.2,0.4,0.3,0.5c0.3,0.4,0.4,0.4,0.4,0.9c0,0.4,0,0.5,0.2,0.9c0.6,0.8,0.4,1,0.6,1.7c0,0.4,0,0.6-0.2,0.6
		c-0.3,0.1-0.5,0-0.7-0.2c-0.2-0.2-0.1-0.4,0.1-0.6c0.3-0.5-0.4-1-0.7-1.2c-0.5-0.4-0.8-0.6-0.3-1.2c0.4-0.4,0.1-0.6-0.1-1
		c-0.5-0.5-0.6-0.5-0.6-0.9c0-0.4,0-0.5,0-0.6C6.9,5.9,3.6,7,0.3,8.3V65c4.2,1.6,8.4,3,12.6,4.1c6.5,1.7,12.9,2.8,19.4,3.2
		c1.3,0.1,2.6,0.2,3.9,0.2c1.2,0,2.3,0,3.5,0h1c0.2,0,0.4-0.1,0.6-0.1c0.8,0.1,0.2-0.6,0.5-0.8c0,0,0.1,0,0.2,0
		c0.4-0.1,0.3,0,0.5,0.2c0.2,0.4,0.4,0.5,0.6,0.7h0.4c1.9-0.1,3.8-0.2,5.6-0.4c10-0.9,20-3.3,29.8-7.2V8.3C69.1,4.4,59.1,2,49.1,1.1
		z M32.6,12.9c-0.1,0-0.2,0.1-0.3,0.1c-0.1,0.1-0.1,0.2-0.3,0.3c-0.4,0.3-0.5-0.1,0-0.4c0.1-0.1,0.2-0.2,0.3-0.2
		C32.9,12.5,33.3,12.8,32.6,12.9L32.6,12.9z M38.3,15c-0.4,0-0.4,0-0.7,0c-0.6,0.1-0.7,0-0.6-0.4c0.1-0.4-0.7-0.2-0.9-0.4
		c0,0,0-0.1,0-0.2v0c-0.2-0.4-0.1-0.3-0.8-0.3c-0.2,0-0.4,0-0.5-0.2c-0.3-0.3-0.4-0.4-0.9-0.4c-0.4,0-0.7-0.7-0.4-0.8
		c0.7-0.1,0.4,0.2,1,0.2c0.4,0,0.5,0.1,0.8,0.3c0.2,0.1,0.3,0.2,0.6,0.2c0.1,0,0.1,0,0.2,0c0.2,0,0.3,0.1,0.6,0.2
		c0.1,0.1,0.2,0.2,0.3,0.2c0.2,0.2,0.4,0.4,0.7,0.4c0.4,0.1,0.4,0,0.7,0.3C38.8,14.8,39.2,14.9,38.3,15z M40.1,16.4
		c-0.1,0-0.2,0-0.4,0c-0.2,0-0.4,0-0.4-0.2c0-0.3,0.1-0.2,0.3-0.2h0c0.2,0,0.2,0,0.2,0.2c0,0.1,0.1,0.1,0.3,0.1
		C40.4,16.3,40.3,16.4,40.1,16.4L40.1,16.4z M42.5,16.1c-0.5,0-0.6-0.1-0.7,0.2c0,0.1-0.1,0.2-0.2,0.3c0,0.1-0.1,0.1-0.3,0
		c-0.4-0.1-0.6-0.3-0.6-0.5c0-0.1,0-0.2-0.1-0.3c-0.6-1.2-0.2-0.3,1-0.5c0,0,0.1,0,0.2,0c0.4-0.1,0.4-0.1,0.8,0.2
		c0.1,0.1,0.2,0.2,0.3,0.3C43.8,16,42.7,16.3,42.5,16.1L42.5,16.1z M43.5,16.1c-0.1,0-0.2-0.1-0.2-0.2c0-0.1,0.1-0.2,0.2-0.2
		c0.1,0,0.2,0.1,0.2,0.2C43.7,16.1,43.6,16.1,43.5,16.1z M39.6,64L39.6,64c0.1-0.1,0.1-0.1,0.1-0.3c0-0.2,0.1-0.1,0.1,0.1
		c0,0.2,0,0.7-0.2,0.8c-0.3,0-0.2,0-0.2-0.3C39.5,64,39.4,64,39.6,64L39.6,64z M13.2,11.7c-0.1,0.1-0.2,0.1-0.2,0c0,0,0,0,0-0.1
		c-0.1-0.4-0.4-0.2-0.3-0.5c0.1-0.3,0.2-0.4,0.4-0.3c0.1,0.1,0.2,0.2,0.3,0.3C13.3,11.4,13.4,11.5,13.2,11.7L13.2,11.7z M50,67.5
		c-0.2,0.4-0.3,0.3-0.8,0.2h-0.1c-0.2,0-0.2,0.3-0.6,0.2c-0.2-0.2-0.4-0.4-0.3-0.6c0.1-0.2,0.1-0.3,0.3-0.2c0.2,0.1,0.4,0,0.6,0
		c0.1,0,0.2-0.1,0.3-0.1C50.1,66.7,50.2,67.1,50,67.5L50,67.5z"/>
</g>
<g>
	<path class="st0" d="M-59,64.6c0,0-18.3,7.8-39.6,7.8s-38.9-7.8-38.9-7.8V8.3c0,0,17.9-7.7,38.9-7.7C-75.8,0.6-59,8.3-59,8.3V64.6z
		"/>
	<path id="path2046_00000022519569897233347620000002195663189775579531_" class="st1" d="M-96.7,16.8c-0.3-0.1-0.8-1.4-0.8-1.6
		c0.2-0.7,2.1-1.5,2.4-1.4c0.6,0.2,1.7,0.5,1.9,0.7c0.7,0.2-0.1,1.5-0.7,2 M-106,12.6c-0.8-0.6-0.3-1.3,0-1.4
		c0.7-0.7,6.5,1.4,6.8,1.6c0.9,0.4,0.6,2.4-0.3,2.2 M-98.2,72.4c0.2,0,0.3,0,0.5,0c0,0-0.4-1.3-0.5-1.8c-1.9-7.7,3.8-16.8,2.8-24.8
		c-0.9-6.7-10.6-6.8-8.1-14.5c0.6-1.8,2.5-2.4,2.3-4c0-0.6-0.7-1.9-1.5-2c-1.9-0.2-4.6-0.2-5.2-2.9c-1-3.6-5.5-3.1-7.8-3.4
		c-3.3-0.4-5.2-2.5-6.2-4.6c-1-1.9-1.3-3.9-1.5-4.6c-0.6-1.9-1.5-3.2-2.3-4.9c-0.1-0.2-1.1-0.4-1.1,0c-0.1,1,1.4,3.6,2,5.3
		c0.3,0.8-0.4,1.5-1.2,0.1c-1.4-2.7-2.7-5.4-2.8-5.3c-0.1,0-0.2,0.1-0.4,0.1c-2.8,1.1-5.5,2-8.3,3.1v56.6c4.2,1.6,8.4,3,12.6,4.1
		c6.4,1.7,12.9,2.8,19.4,3.2c1.3,0.1,2.5,0.2,3.8,0.2C-100.5,72.4-99.4,72.4-98.2,72.4 M-88.7,1c-1.9-0.2-3.7-0.3-5.6-0.4
		c-0.6,0-1.1,0-1.7,0h-2.1c-1.2,0-2.3,0-3.5,0c-1.3,0-2.5,0.1-3.8,0.2c-6.5,0.5-12.9,1.5-19.3,3.3c-0.2,0.1,1.4,1.4,2.5,1.1
		c3.5-0.6,7.3,4.2,6.7,5.4c-1,2.9-0.2,4.5,1.1,5.2c1.5,0.9,3.5-0.5,3.8-1.4c0.3-0.9,3-1,2.5-0.1c-0.4,0.8-0.8,1.8-1.2,2.7
		c-0.2,0.5,0.6,1,1.1,1c0.9,0,1.9,0,2.3,0.4c0.7,1,0,2.1-0.1,3c0,1.2,2.5,1.9,3.4,1.7c0.5,0,0.8,0,1.1,0.1c0.2,0.1,0.4,0.3,0.6,0.4
		c0.5,0.3,1-0.3,1.2-0.5c0.7-0.9,2.3-1.7,2.8-2c0.3-0.2,0.9-0.7,0.5,0.2c-0.5,1.6,6.5,0.9,7.2,1c6.8,1,10.8,11.4,17.4,10.7
		c4.6,0.4,4.6,4.4,2.2,6.9c-2,2.3-2.1,5.5-3.3,7.7c-0.3,0.5-4.1,2.6-4.8,3c-4.7,3.1-6.2,7.9-9.1,9.7c-6.3,0-4.2,7.3-8.8,10.8
		c-0.3,0.2-1,1.2-0.9,1.2c13.1-0.2,27-3.5,37.7-7.6V8.2C-68.8,4.3-78.8,2-88.7,1"/>
</g>
<g>
	<g>
		<path class="st1" d="M107.5,60.8h-7.4l-1.7,4.7H96l6.8-17.8h2.1l6.8,17.8h-2.4L107.5,60.8z M100.8,58.9h6l-3-8.3L100.8,58.9z"/>
		<path class="st1" d="M122,58.3h-4.2v7.2h-2.4V47.7h5.9c2,0,3.5,0.5,4.6,1.4s1.6,2.2,1.6,4c0,1.1-0.3,2.1-0.9,2.9
			c-0.6,0.8-1.4,1.4-2.5,1.8l4.2,7.5v0.1h-2.5L122,58.3z M117.9,56.3h3.6c1.2,0,2.1-0.3,2.8-0.9c0.7-0.6,1-1.4,1-2.4
			c0-1.1-0.3-1.9-1-2.5s-1.6-0.9-2.8-0.9h-3.6V56.3z"/>
		<path class="st1" d="M145.5,63.1c-0.6,0.9-1.4,1.5-2.5,1.9s-2.3,0.6-3.8,0.6c-1.4,0-2.7-0.3-3.9-1c-1.1-0.7-2-1.6-2.6-2.9
			c-0.6-1.3-0.9-2.7-0.9-4.4v-1.5c0-2.7,0.6-4.8,1.9-6.2c1.2-1.5,3-2.2,5.3-2.2c1.9,0,3.3,0.5,4.5,1.4c1.1,0.9,1.8,2.3,2.1,4h-2.3
			c-0.4-2.4-1.8-3.5-4.2-3.5c-1.6,0-2.8,0.6-3.6,1.7c-0.8,1.1-1.2,2.7-1.2,4.8v1.5c0,2,0.5,3.6,1.4,4.8s2.1,1.8,3.7,1.8
			c0.9,0,1.6-0.1,2.3-0.3s1.2-0.5,1.6-1v-4h-4.1v-1.9h6.4L145.5,63.1L145.5,63.1z"/>
		<path class="st1" d="M161,57.2h-7.7v6.3h8.9v1.9h-11.3V47.7h11.2v1.9h-8.8v5.7h7.7L161,57.2L161,57.2z"/>
		<path class="st1" d="M180.3,65.5H178l-9-13.7v13.7h-2.4V47.7h2.4l9,13.8V47.7h2.3V65.5z"/>
		<path class="st1" d="M197.9,49.6h-5.7v15.9h-2.3V49.6h-5.7v-1.9h13.7V49.6z"/>
		<path class="st1" d="M204.6,65.5h-2.3V47.7h2.3V65.5z"/>
		<path class="st1" d="M224,65.5h-2.4l-8.9-13.7v13.7h-2.4V47.7h2.4l9,13.8V47.7h2.3L224,65.5L224,65.5z"/>
		<path class="st1" d="M239.7,60.8h-7.4l-1.7,4.7h-2.4l6.8-17.8h2.1l6.8,17.8h-2.4L239.7,60.8z M233,58.9h6l-3-8.3L233,58.9z"/>
	</g>
	<g id="g304_00000127027009054737067660000017413860593519232640_">
		<path id="path306_00000062873948312189018750000018395739653448029610_" class="st1" d="M113.8,8v4.9h-11v6.6h10.1v4.9h-10.1v10.4
			h-6.5V8H113.8L113.8,8z"/>
	</g>
	<g id="g308_00000112635022757178599610000014286437064103383686_">
		<path id="path310_00000165219726512727498310000008495919548111894147_" class="st1" d="M119.4,8h6.5v21.8h9.3v5h-15.8L119.4,8
			L119.4,8z"/>
	</g>
	<g id="g312_00000096044029127780446680000008032721005849284241_">
		<path id="path314_00000039123924876988153390000002950281312574787986_" class="st1" d="M148.4,24.4h6.1l-1-3.2
			c-0.4-1.1-0.7-2.2-1.1-3.4c-0.4-1.2-0.6-2.3-0.9-3.3h-0.1c-0.3,1-0.6,2.1-1,3.2c-0.4,1.2-0.7,2.3-1.1,3.4L148.4,24.4L148.4,24.4z
			 M148.2,8h6.9l9.7,26.9h-6.9l-1.8-5.8h-9l-1.8,5.8h-6.8L148.2,8z"/>
	</g>
	<g id="g316_00000165956625113808533000000012089896342369648053_">
		<path id="path318_00000154417051024795801300000005264509398985570728_" class="st1" d="M181,30.4c1.3,0,2.4-0.1,3.2-0.3
			c0.9-0.2,1.6-0.5,2.2-0.9l1.3,4.6c-0.6,0.3-1.5,0.7-2.8,1s-2.8,0.5-4.7,0.5c-2.1,0-4-0.3-5.8-1s-3.3-1.6-4.5-2.8s-2.2-2.7-2.9-4.4
			c-0.7-1.7-1-3.6-1-5.8s0.3-4,1-5.7s1.6-3.2,2.9-4.4c1.2-1.2,2.7-2.1,4.5-2.8s3.8-1,6-1c1.9,0,3.4,0.2,4.6,0.5
			c1.2,0.3,2.1,0.7,2.8,1.1l-1.4,4.7c-0.6-0.4-1.4-0.7-2.3-1c-0.9-0.3-1.9-0.4-3-0.4s-2.2,0.2-3.2,0.5s-1.9,0.8-2.6,1.6
			c-0.7,0.7-1.3,1.6-1.8,2.7c-0.4,1.1-0.6,2.5-0.6,4.1c0,1.5,0.2,2.8,0.6,4c0.4,1.1,1,2.1,1.7,2.8c0.7,0.7,1.6,1.3,2.6,1.7
			C178.7,30.2,179.8,30.3,181,30.4"/>
	</g>
	<g id="g320_00000133524639260362229740000017837188470935379876_">
		<path id="path322_00000000913386529954176260000007203315118808145579_" class="st1" d="M202.5,7.5c1.9,0,3.5,0.2,4.9,0.6
			c1.4,0.4,2.6,0.8,3.6,1.4l-1.4,4.7c-1.1-0.6-2.2-1-3.4-1.3c-1.1-0.3-2.2-0.5-3.2-0.5c-1.3,0-2.3,0.2-3,0.7s-1,1.1-1,1.9
			c0,0.9,0.3,1.6,1,2s1.7,0.9,3,1.3l2.5,0.8c1,0.3,1.9,0.8,2.8,1.3c0.8,0.5,1.6,1.1,2.2,1.7s1.1,1.4,1.4,2.2
			c0.4,0.8,0.5,1.7,0.5,2.7c0,1.1-0.2,2.2-0.6,3.2c-0.4,1-1.1,1.9-1.9,2.7c-0.9,0.8-2,1.4-3.3,1.8c-1.3,0.4-2.9,0.7-4.7,0.7
			c-1.7,0-3.3-0.2-4.8-0.5s-2.9-0.9-4.2-1.5l1.4-4.7c1.2,0.6,2.4,1.1,3.6,1.4c1.2,0.4,2.4,0.5,3.7,0.5c1.5,0,2.6-0.2,3.3-0.7
			s1-1.2,1-2c0-0.3-0.1-0.6-0.2-0.9c-0.1-0.3-0.3-0.6-0.7-0.9c-0.3-0.3-0.8-0.6-1.4-0.8s-1.3-0.5-2.2-0.8l-2.1-0.7
			c-1-0.4-1.9-0.8-2.8-1.2c-0.9-0.5-1.6-1-2.2-1.6c-0.6-0.6-1.1-1.4-1.4-2.2c-0.4-0.8-0.5-1.8-0.5-2.9s0.2-2.2,0.7-3.2
			c0.4-1,1.1-1.9,2-2.6s1.9-1.3,3.2-1.7C199.4,7.6,200.9,7.4,202.5,7.5"/>
	</g>
	<g id="g324_00000088825738277620581340000009567109525246456717_">
		<path id="path326_00000129191739943937237310000008310872138654609049_" class="st1" d="M224,21.5c0,1.5,0.2,2.8,0.5,4
			c0.4,1.1,0.8,2.1,1.5,2.8c0.6,0.7,1.3,1.3,2.1,1.7s1.7,0.5,2.6,0.5s1.8-0.2,2.6-0.5c0.8-0.4,1.5-0.9,2.1-1.7s1.1-1.7,1.4-2.8
			c0.4-1.1,0.5-2.5,0.5-4s-0.2-2.9-0.5-4.1c-0.4-1.2-0.8-2.1-1.5-2.8c-0.6-0.7-1.3-1.3-2.1-1.7s-1.7-0.6-2.6-0.6s-1.8,0.2-2.6,0.6
			c-0.8,0.4-1.5,0.9-2.1,1.7s-1.1,1.7-1.4,2.9C224.2,18.6,224,19.9,224,21.5 M230.8,7.4c1.9,0,3.7,0.3,5.4,1
			c1.6,0.6,3.1,1.6,4.3,2.8s2.1,2.7,2.8,4.4s1,3.7,1,5.9s-0.4,4.1-1.1,5.8c-0.7,1.7-1.6,3.2-2.9,4.4c-1.2,1.2-2.6,2.1-4.3,2.8
			s-3.5,1-5.4,1s-3.7-0.3-5.4-0.9c-1.6-0.6-3.1-1.5-4.3-2.7s-2.1-2.6-2.8-4.4c-0.7-1.7-1-3.7-1-5.9s0.3-4.1,1-5.8s1.6-3.2,2.9-4.4
			s2.7-2.2,4.3-2.8C227.1,7.8,228.9,7.4,230.8,7.4"/>
	</g>
</g>
<g id="g1326_00000121974562386082694600000012374694090585485472_">
	<path id="path1328_00000031188660644630575120000009238816519972412040_" class="st2" d="M267.3,8v56.5"/>
</g>
<g>
	<path class="st1" d="M307.8,40.4c-0.1,2.5-0.8,4.4-2.1,5.8c-1.3,1.3-3.1,2-5.4,2s-4.2-0.9-5.6-2.7s-2.1-4.2-2.1-7.3V34
		c0-3,0.7-5.5,2.1-7.2c1.4-1.8,3.4-2.6,5.8-2.6c2.3,0,4,0.7,5.2,2s1.9,3.3,2,5.8h-3c-0.1-1.9-0.5-3.3-1.2-4.1
		c-0.7-0.8-1.7-1.2-3.1-1.2c-1.6,0-2.8,0.6-3.7,1.9c-0.9,1.2-1.3,3.1-1.3,5.5v4.3c0,2.4,0.4,4.2,1.2,5.5s2,1.9,3.5,1.9
		s2.6-0.4,3.3-1.1s1.1-2.1,1.3-4.1L307.8,40.4L307.8,40.4z"/>
	<path class="st1" d="M320.4,47.8c-0.2-0.4-0.3-1-0.4-1.9c-1,1.5-2.3,2.2-3.9,2.2s-2.8-0.4-3.7-1.3c-0.9-0.9-1.3-2.1-1.3-3.7
		c0-1.8,0.6-3.2,1.8-4.2c1.2-1,2.8-1.6,4.9-1.6h2.1v-1.8c0-1-0.2-1.8-0.7-2.2s-1.2-0.7-2.1-0.7s-1.5,0.2-2.1,0.8
		c-0.5,0.5-0.8,1.2-0.8,1.9h-2.8c0-0.9,0.3-1.7,0.8-2.5s1.2-1.4,2.1-1.9s1.9-0.7,3-0.7c1.8,0,3.1,0.4,4.1,1.3s1.4,2.2,1.4,3.9v8.8
		c0,1.3,0.2,2.5,0.5,3.5v0.2L320.4,47.8L320.4,47.8z M316.6,45.6c0.7,0,1.4-0.2,2-0.6c0.6-0.4,1.1-0.9,1.4-1.4v-4.2h-1.6
		c-1.4,0-2.4,0.3-3.2,0.9c-0.8,0.6-1.2,1.4-1.2,2.5c0,1,0.2,1.7,0.6,2.1C314.9,45.3,315.6,45.6,316.6,45.6L316.6,45.6z"/>
	<path class="st1" d="M329.9,30.4L330,32c1.1-1.3,2.5-1.9,4.2-1.9c1.9,0,3.3,0.8,4.1,2.5c1.1-1.7,2.6-2.5,4.6-2.5c3.2,0,4.9,2,4.9,6
		v11.7H345V36.4c0-1.3-0.2-2.2-0.7-2.8s-1.2-0.9-2.3-0.9c-0.9,0-1.5,0.3-2.1,1c-0.5,0.7-0.8,1.5-0.9,2.5v11.7h-3V36.2
		c0-2.4-1-3.6-3-3.6c-1.4,0-2.5,0.7-3,2.2v13h-2.8V30.4H329.9L329.9,30.4z"/>
	<path class="st1" d="M364.5,40c0,2.8-0.5,4.8-1.5,6.2s-2.4,2-4.2,2c-1.8,0-3.1-0.7-4-2v8.3H352V30.4h2.6l0.1,1.9
		c1-1.5,2.3-2.2,4.1-2.2c1.9,0,3.3,0.7,4.3,2s1.4,3.3,1.5,6L364.5,40L364.5,40z M361.7,38.3c0-2-0.3-3.4-0.9-4.3s-1.6-1.4-2.9-1.4
		s-2.4,0.7-3.1,2v9.1c0.7,1.3,1.7,2,3.1,2c1.3,0,2.2-0.5,2.8-1.4s0.9-2.3,0.9-4.2L361.7,38.3L361.7,38.3z"/>
	<path class="st1" d="M377.1,46.3c-1,1.2-2.3,1.8-4.1,1.8c-1.6,0-2.8-0.5-3.6-1.6c-0.8-1.1-1.2-2.7-1.2-4.8V30.4h2.8v11.1
		c0,2.7,0.8,4.1,2.5,4.1s2.9-0.8,3.6-2.3V30.4h2.8v17.4h-2.7L377.1,46.3L377.1,46.3z"/>
	<path class="st1" d="M392.6,43.4c0-0.6-0.2-1.1-0.7-1.6c-0.5-0.4-1.4-1-2.7-1.5c-1.5-0.6-2.6-1.2-3.2-1.6s-1.1-1-1.4-1.5
		c-0.3-0.6-0.5-1.3-0.5-2c0-1.4,0.5-2.6,1.5-3.5c1-0.9,2.4-1.4,4-1.4c1.7,0,3.1,0.5,4.1,1.5c1,1,1.5,2.2,1.5,3.8h-2.8
		c0-0.8-0.3-1.5-0.8-2s-1.2-0.8-2-0.8s-1.5,0.2-2,0.7c-0.5,0.4-0.7,1-0.7,1.7c0,0.6,0.2,1,0.5,1.4c0.4,0.3,1.2,0.8,2.5,1.4
		c2.1,0.8,3.5,1.6,4.3,2.4c0.8,0.8,1.1,1.8,1.1,3c0,1.5-0.5,2.7-1.6,3.6c-1,0.9-2.4,1.4-4.2,1.4s-3.3-0.5-4.4-1.6
		c-1.1-1-1.7-2.4-1.7-4h2.9c0,1,0.3,1.7,0.9,2.3c0.6,0.5,1.3,0.8,2.4,0.8c1,0,1.7-0.2,2.1-0.6C392.3,44.7,392.6,44.1,392.6,43.4
		L392.6,43.4z"/>
	<path class="st1" d="M411.6,43.5l3.3-13.1h2.9l-5.2,17.4h-2.1l-5.2-17.4h2.9L411.6,43.5L411.6,43.5z"/>
	<path class="st1" d="M424.1,25.8c0,0.5-0.1,0.9-0.4,1.2s-0.7,0.5-1.2,0.5s-0.9-0.2-1.2-0.5s-0.4-0.7-0.4-1.2s0.1-0.9,0.4-1.2
		s0.7-0.5,1.2-0.5s0.9,0.2,1.2,0.5C423.9,24.9,424.1,25.3,424.1,25.8L424.1,25.8z M423.8,47.8H421V30.4h2.8V47.8z"/>
	<path class="st1" d="M435.5,33.1c-0.4-0.1-0.8-0.1-1.3-0.1c-1.5,0-2.5,0.8-3.1,2.4v12.5h-2.8V30.4h2.8v1.8c0.8-1.4,1.8-2.1,3.2-2.1
		c0.5,0,0.8,0.1,1.1,0.2L435.5,33.1L435.5,33.1z"/>
	<path class="st1" d="M442.9,26.2v4.2h2.6v2.3h-2.6v10.8c0,0.7,0.1,1.2,0.3,1.6c0.2,0.3,0.6,0.5,1.2,0.5c0.4,0,0.8-0.1,1.1-0.2v2.4
		c-0.6,0.2-1.3,0.3-2,0.3c-1.1,0-2-0.4-2.6-1.2S440,45,440,43.5V32.7h-2.6v-2.3h2.6v-4.2H442.9L442.9,26.2z"/>
	<path class="st1" d="M457.7,46.3c-1,1.2-2.3,1.8-4.1,1.8c-1.6,0-2.8-0.5-3.6-1.6c-0.8-1.1-1.2-2.7-1.2-4.8V30.4h2.8v11.1
		c0,2.7,0.8,4.1,2.5,4.1s2.9-0.8,3.6-2.3V30.4h2.8v17.4h-2.7L457.7,46.3L457.7,46.3z"/>
	<path class="st1" d="M473.7,47.8c-0.2-0.4-0.3-1-0.4-1.9c-1,1.5-2.3,2.2-3.9,2.2s-2.8-0.4-3.7-1.3c-0.9-0.9-1.3-2.1-1.3-3.7
		c0-1.8,0.6-3.2,1.8-4.2c1.2-1,2.8-1.6,4.9-1.6h2.1v-1.8c0-1-0.2-1.8-0.7-2.2s-1.2-0.7-2.1-0.7s-1.5,0.2-2.1,0.8
		c-0.5,0.5-0.8,1.2-0.8,1.9h-2.8c0-0.9,0.3-1.7,0.8-2.5s1.2-1.4,2.1-1.9s1.9-0.7,3-0.7c1.8,0,3.1,0.4,4.1,1.3s1.4,2.2,1.4,3.9v8.8
		c0,1.3,0.2,2.5,0.5,3.5v0.2L473.7,47.8L473.7,47.8z M469.9,45.6c0.7,0,1.4-0.2,2-0.6c0.6-0.4,1.1-0.9,1.4-1.4v-4.2h-1.6
		c-1.4,0-2.4,0.3-3.2,0.9c-0.8,0.6-1.2,1.4-1.2,2.5c0,1,0.2,1.7,0.6,2.1C468.3,45.3,469,45.6,469.9,45.6L469.9,45.6z"/>
	<path class="st1" d="M483.6,47.8h-2.8V23.1h2.8V47.8z"/>
</g>
</svg>
