<?xml version="1.0" encoding="UTF-8"?>
<svg id="Capa_2" data-name="Capa 2" xmlns="http://www.w3.org/2000/svg" viewBox="0 0 128.02 249.85">
  <defs>
    <style>
      .cls-1, .cls-2 {
        fill: #fff;
      }

      .cls-3 {
        fill: #192e4d;
      }

      .cls-2 {
        stroke: #fff;
        stroke-width: 2px;
      }
    </style>
  </defs>
  <g id="Capa_1-2" data-name="Capa 1">
    <g>
      <path class="cls-3" d="M127.13,103.99s-29.32,12.37-63.76,12.37S.18,103.99,.18,103.99V12.51S29.12,0,63.09,0c36.87,0,64.04,12.51,64.04,12.51V103.99Z"/>
      <g id="g1326">
        <path id="path1328" class="cls-2" d="M.27,210.96H127.52"/>
      </g>
      <path class="cls-1" d="M79.05,.87c-3.01-.33-6.03-.52-9.1-.66-.93,0-1.84-.06-2.75-.06h-3.47c-1.9,0-3.74,0-5.64,.06-2.09,.07-4.13,.2-6.22,.33-10.48,.78-20.9,2.49-31.32,5.24-.32,.13-.72,.2-1.11,.33,.26,.46,.65,.46,1.11,.65,.07,.07,.13,.07,.2,.13,.52,.26,.72,.59,1.37,.72,.85,.07,1.64,.2,2.42,0,1.64-.4,1.7-.59,2.95,.39,.59,.46,.66,.53,.78,1.25,.14,.72,.07,.98,.66,1.44,.52,.46,.98,.51,1.3-.14,.65-1.44,2.35,.39,2.35,1.11-.06,1.31,.27,.53,.66,1.05,.26,.2,.19,1.97,1.38,2.36,.45,.13,.85,0,.98,.58,.07,.2,0,.46-.19,.72-.13,.39-.33,.79-.52,1.11-.59,1.38-.53,2.56,.13,3.93,.19,.33,.4,.72,.59,1.12,.52,1.44,.59,1.7,1.57,2.29,.59,.33,1.25,.33,1.9,.39,.52,0,.59,.07,1.05-.26,.46-.33,.72-.33,1.05-.07,.91,.58,.71,.07,1.11-.59,.65-.99,.98-.13,.98-1.77,0-.33,.26-.65,.78-.85,1.12,.07,1.25-.52,2.36-.4,.46,.07,1.3,.07,.91,1.12-.65,.65-.72,.59-.78,1.51,0,.79-.13,1.05-.53,1.57-.72,.79-.26,.53-.52,1.38-.07,.4-.32,.59-.46,.98-.13,.46,.14,.79,.92,.65,.52-.13,.98-.13,1.44-.07,.59,0,1.05,.07,1.58,.07,.78-.07,1.57,0,2.09,.59,.65,.72,.53,.92,.26,2.23-.13,.33,.14,.59,.07,.98-.07,.59-.45,1.24-.45,1.7,0,.33,.07,.65,.13,.92,.33,.45,.53,.79,.79,1.05,.33,.39,.65,.72,1.25,1.11,1.7,1.05,1.89-.06,3.27-.33,.73-.06,1.25-.06,1.71,.13,.46,.19,.85,.53,1.31,.99,.46,.45,.79,.65,1.05-.27,.06-.39,.26-.72,.53-.78,.46-.07,.26-.13,.46-.59,.06-.07,.06-.13,.13-.2v-.19c.19-.92,1.24-1.44,2.16-1.51h.19c.53,0,1.24-.39,1.51-.79,.33-.39,1.45-1.11,.86,.26-.2,.33-.33,.33-.27,.72,0,.13,.07,.19,.07,.32,.2,.52-.2,.66-.33,1.05-.06,.33,.26,.26,.39,.33,.14,.13,.14,.46,.34,.65,.32,.19,.58-.06,.72-.46v-.33c-.07-.2-.14-.39-.14-.59-.07-.4-.07-.59,.14-.79,.06-.07,.19-.13,.33-.19,1.05-.59,1.7-.92,2.42-.4,.13,.06,.19,.19,.33,.26,.85,.79,.45,.86,1.63,.92,.92,0,1.18-.2,1.96,.26,.53,.27,1.97,.72,2.37,0,.39-.79,1.5-.79,1.77-.13,.26,.46,.53,.52,.98,.59q.07,0,.07,.07,.45,.07,.79,.39c.46,.53-.07,.4,0,.99,.07,.46,0,.26,.65,.26,1.11,0,2.49,.46,2.82,1.64,.2,.59,.79,.26,1.25,.72,.72,.79,.39,.79,1.57,.98,.26,.06,.46,.06,.72,0,.98-.27,1.37-.27,1.89,.06,.53,.33,.65,.79,1.25,.66,.98-.2,1.18,.65,1.83,1.18,.79,.65,1.25,.59,1.25,1.96,0,.92,.07,.66,.59,1.32,.72,.91,.91,1.05-.13,2.03-.79,.65-.79,1.12,.52,.39,.46-.26,.79,.13,1.57,.39,.39,.33,.39,.66,.07,.99-.07,1.05-.2,.91,.65,.26,.85-.79,1.57-.98,2.75-.12,.39,.32,.78,.58,1.17,.91,1.05,.92,2.1,1.38,3.54,1.38,.98,0,1.44,.39,2.29,.26,1.11-.13,2.03,.39,2.69,1.43,.32,.47,.78,.92,1.37,1.19,1.31,.59,1.84-.14,2.42,1.5,1.05,2.82-1.05,5.11-2.88,7.08-.72,.85-.52,1.37-.98,1.9-.66,.65-1.77,.13-1.57,1.3,.13,.47-.33,.79-.39,1.31,0,.26-.07,.46,0,.65,0,.65,.26,1.24-.26,1.7-.07,.59-.14,1.18-.26,1.77-.59,1.25-1.18,2.09-1.51,2.82-.4,.46-.53,.65-.98,.98-.65,.46-.26,1.12-.65,1.57-.14,.19-.33,.26-.6,.46-.91,.59-.85,.79-2.02,.79-2.23,0-5.31,1.44-6.62,3.47-.52,.79-.52,1.25-.59,1.97-.12,1.05-.58,.85-1.11,1.51-.98,1.11-.91,2.42-2.03,1.97-.33-.07-.39,.26-.85,.78-.33,.33-.65,.59-.79,1.18-.06,.46-.13,.59-.72,1.11-.39,.4-.72,.72-1.12,1.12-.72,1.57-1.96,1.37-3.47,1.18-.39-.07-.99-.4-1.44-.52-.98-.4-.85,.26-.14,.65,.27,.13,.33,.2,.4,.33,.12,.72-.59,.79,.33,1.51,.2,.52,0,.98-.52,1.51-.66,.98-1.64,1.37-2.75,1.44-.59,.07-1.25,0-1.9,0-1.32-.07-.99-.33-1.12,.79-.07,.26-.14,.46-.39,.79,0,1.05-.72,1.24-1.44,.98-1.51-.6-.92-.65-1.32,.33-.12,.33-.12,.53-.05,.72,0,.13,.05,.52,.19,.52s.2,0,.26,.07c.52,0,0-.33,.72-.39q.26,0,.2,.26c-.14,.52-.2,.4-.72,.4s-.6-.06-.6,.52c0,.65-.38,.52-.58,1.05-.06,.2-.13,.4-.2,.66-.19,.59-.65,.52-1.24,.59-.39,.19-.72,.39-.91,.65-.26,.4-.26,.85,0,1.25,.06,.07,.19,.19,.33,.26,.13,.13,.19,.33,.39,.39,.59,.13,.59-.2,.59,.46,0,.72-.33,.65-.91,1.05-.14,.13-.27,.19-.39,.26-.33,.2-.4,.26-.59,.79-.07,.46-.33,.79-.65,.91-1.12,.4-1.12,.59-.85,1.65,.19,.85-.14,.72-.66,.85-.21,.07-.46,.12-.72,.33-.26,.26-.47,.59-.59,.98-.58,.52,.13,.06-1.37,.39-.6,.13-.6-.26-.6-.92-.06-.33-.13-.46-.19-.58-.07-.07-.13-.13-.13-.27-.32-.85,.07-.59-.72-1.24-.59-.39,.07-.91-.19-1.3-.4-.66-.26-.33-.33-1.05-.07-.2-.14-.4-.19-.65-.13-.26-.13-.53,.26-.72,.53-.26,.46-.14,.66-.66,.4-1.31,.2-.39-.52-.98-.2-.14-.07-.53,.19-.86,.47-.59,.59-.59,.99-.72,.06,0,.13,0,.26-.06,.32-.13,.19-.46,.39-1.18-.07-.79,.27-1.24,.53-1.77,.26-.4,.26-.85,.07-1.24-.4-.79-1.25,0-1.12-1.26,.13-1.04,.32-.98,.59-1.76,.13-.39,.07-.79,0-1.31-.33-1.37-.2-1.31,.46-2.55,.2-.47,.47-.85,.66-1.31,.13-.46,.13-.79,.26-1.31,.46-.33,.46-.53,.46-1.18,0-.78,.32-.78,.32-1.5s-.13-.53-.32-1.05c-.07-.26,0-.52,.07-.72,.33-.78,.64-.53,.39-1.51-.2-.53,.19-1.12,.46-1.64,.06-.13,.13-.26,.13-.33,.26-.92,.46-1.63,.59-2.62,.12-.72,.19-1.31,.07-1.83-.07-.46-.07-.79,0-1.05,.19-.65,.45-.52,.33-1.24-.07-.46-.14-1.12,0-1.38,.32-.79-.07-1.77-.07-2.82,.07-.92-.33-1.31-1.05-1.9-.14-.06-.26-.2-.46-.33-.85-.59-1.7-1.38-2.62-1.77-.13-.06-.26-.13-.4-.13-.92-.26-1.05,.07-1.97-1.05-.26-.33-.52-.66-.85-.99-.33-.58,.39-.65-.07-1.37-.2-.26-.65-.59-.79-.85-.85-1.18-1.44-2.42-1.96-3.61-.85-1.76-1.64-3.33-3.02-4.45-.52-.07-.72-.33-.52-.85,0-.46-.19-.79-.33-1.05-.53-.98,.91-1.44,1.57-1.7,.46-.32,.46-.72,0-1.05-.2-.07-.39-.13-.59-.13-.98-.33-.58-1.58-.13-2.16,.4-.4,.6-.92,.72-1.44,.13-.85,.2-.92,.72-1.12,.85-.2,.72-.26,.98-1.05,0-.72,.07-.66,.59-.86,.07,0,.13-.06,.2-.06,1.44-1.31,1.24-1.96,1.11-3.73,0-.92-.19-1.18-.65-2.03-.26-.45-.52-.52-.65-.72-.07-.07-.07-.13-.07-.26-.07-.78,.13-.65-.46-1.44-.53-.39-1.19-.33-1.57,.33-.07,.13-.07,.4-.2,.53-.59,.39-.46,.07-.27,1.05,.07,.2,.07,.33-.06,.39-.78,.53-.72-.46-1.05-.59-.52-.2-.33,.2-.99-.46-.25-.26-.38-.26-.91-.26h-.65c-.2-.06-.33-.19-.53-.59-.32-.39,.07-.72-.65-.85-.13,0-.26,0-.39-.06-.72-.53-.14-.53-.92-.33-.39,.07-.79-.26-.85-.85,.2-1.37-.06-1.18-1.25-2.17-.46-.46-.65-.91-.85-1.37-.26-.65-.52-.33-1.11-.33-.4,.06-1.25-.13-1.77-.53-1.05-.72-1.31-.53-2.03-.66-.92-.13-1.57-1.18-1.96-1.77-.53-.79-1.38-1.25-2.36-1.05-.79,.2-.92,.92-1.9,.79-.59-.13-.98-.79-2.36-.98-1.05-.19-1.64-.72-2.49-1.11-1.05-.39-1.11-1.11-1.96-1.31-1.9-.46-.98-.27-1.83-1.18-.19-.14-.39-.26-.65-.4-.53-.33-1.31-1.05-.79-1.64,.52-.65,.58-1.12,.39-1.64-.26-.46-.26-.85-.2-1.18,.07-.46-.78-1.24-1.11-1.63-.52-.72-1.05-1.38-1.5-2.1-1.91-.84,.19-1.04-.79-2.02-.52,0-.65-.27-.72-.6-.19-.78,.07-.78-.72-1.44-.19-.12-.39-.33-.52-.78-.19-.46-.33-.92-.46-1.44,0-.4-.07-.72-.07-1.12-.06-1.05,.14-.92-.84-1.31-.26-.07-.4-.14-.59-.14-.07,.07-.14,.07-.2,.07-.2,.13-.26,.45-.26,.79,.07,.84-.07,1.04,.2,1.63,.2,.2,.33,.59,.46,.78,.52,.66,.59,.59,.59,1.38,0,.72-.07,.79,.33,1.44,1.05,1.37,.72,1.57,1.05,2.68-.07,.66,0,.98-.33,1.05-.46,.12-.79-.07-1.18-.27-.4-.39-.14-.65,.13-1.05,.52-.85-.66-1.57-1.18-1.97-.78-.72-1.25-1.05-.46-1.9,.59-.59,.2-1.05-.13-1.57-.86-.79-.98-.85-.92-1.44,.06-.65,.06-.86-.07-1.05C10.79,8.59,5.47,10.37,.18,12.46V104.04c6.81,2.62,13.55,4.85,20.37,6.68,10.42,2.75,20.83,4.52,31.32,5.24,2.1,.13,4.13,.26,6.22,.33,1.9,.07,3.73,.07,5.64,.07h1.64c.33-.07,.65-.14,.98-.21,1.37,.21,.26-.98,.85-1.37,.06,0,.19-.06,.33-.06,.58-.13,.52-.07,.79,.39,.32,.59,.59,.85,1.05,1.18h.59c3.07-.14,6.09-.33,9.1-.65,16.11-1.51,32.23-5.38,48.08-11.6V12.46C111.28,6.24,95.16,2.37,79.05,.87Zm-26.73,19c-.2,.07-.33,.13-.46,.2-.13,.12-.2,.32-.46,.46-.59,.46-.84-.2-.07-.72,.2-.13,.4-.26,.53-.26,.92-.33,1.56,.2,.46,.33Zm9.31,3.47c-.59,.07-.65,0-1.18,.07-.92,.13-1.12,.07-.92-.65,.13-.65-1.17-.33-1.44-.65-.07-.07-.07-.13,0-.26v-.07c-.39-.72-.14-.46-1.31-.46-.26,0-.59-.07-.79-.32-.47-.46-.72-.72-1.44-.6-.65,.07-1.18-1.11-.65-1.24,1.11-.14,.65,.39,1.63,.39,.59,0,.79,.14,1.25,.53,.26,.19,.53,.32,1.04,.32,.13,0,.2,0,.27,.07,.27,.07,.53,.19,.92,.39,.2,.14,.39,.26,.52,.39,.39,.4,.72,.66,1.18,.72,.72,.13,.66,0,1.18,.46,.53,.52,1.12,.79-.26,.91Zm2.75,2.23c-.13,0-.39,0-.65-.07-.33,0-.59-.06-.59-.26,0-.53,.14-.26,.53-.26h.07c.26,0,.26-.07,.4,.26,.06,.13,.19,.13,.46,.13,.32,.07,.13,.26-.2,.2Zm4-.52c-.85,0-.99-.13-1.18,.26-.07,.13-.14,.26-.26,.45-.06,.2-.13,.14-.53,0-.58-.13-.98-.52-.98-.78-.06-.2-.06-.33-.12-.53-.93-1.96-.33-.52,1.63-.85,.06-.07,.2-.07,.26-.07,.59-.13,.72-.2,1.24,.39,.13,.13,.26,.26,.46,.46,1.51,.52-.2,.98-.52,.65Zm1.57,.13c-.13,0-.26-.13-.26-.26,0-.2,.13-.33,.26-.33,.19,0,.26,.13,.26,.33,0,.13-.07,.26-.26,.26Zm-6.22,77.24v-.07c.13-.07,.13-.13,.19-.4,0-.32,.2-.12,.13,.14-.06,.39-.06,1.18-.33,1.25-.52,0-.33-.07-.26-.46,0-.4-.07-.33,.26-.45ZM20.94,17.96c-.2,.13-.33,.13-.4,.07,0,0-.07-.07-.07-.13-.12-.65-.65-.26-.53-.79,.14-.46,.4-.59,.59-.46,.2,.12,.33,.32,.46,.52,.2,.32,.33,.59-.06,.78Zm59.54,90.21c-.33,.65-.52,.45-1.24,.32h-.2c-.39,.07-.39,.52-1.05,.26-.39-.33-.59-.58-.46-.91,.13-.33,.19-.46,.46-.4,.39,.13,.72,.07,1.05,0,.2-.07,.4-.13,.52-.2,1.12-.33,1.18,.33,.92,.92Z"/>
      <g>
        <path class="cls-1" d="M15.21,140.74v4.25H5.75v5.65H14.4v4.22H5.75v8.98H.18v-23.1H15.21Z"/>
        <path class="cls-1" d="M20.01,140.74h5.57v18.77h8.04v4.33h-13.61v-23.1Z"/>
        <path class="cls-1" d="M44.77,140.74h5.94l8.32,23.1h-5.9l-1.58-4.95h-7.77l-1.58,4.95h-5.83l8.39-23.1Zm.22,14.11h5.29l-.88-2.78c-.29-.91-.59-1.87-.9-2.9-.3-1.03-.56-1.97-.79-2.82h-.07c-.24,.85-.52,1.78-.84,2.79-.32,1-.63,1.98-.92,2.93l-.89,2.78Z"/>
        <path class="cls-1" d="M72.97,159.99c1.1,0,2.03-.1,2.79-.29,.76-.2,1.39-.46,1.9-.77l1.1,4c-.49,.29-1.28,.58-2.37,.88-1.09,.29-2.42,.44-4.01,.44-1.81,0-3.47-.28-4.98-.84-1.51-.56-2.81-1.36-3.89-2.4-1.07-1.04-1.91-2.3-2.51-3.78-.6-1.48-.9-3.13-.9-4.96s.29-3.42,.86-4.89c.57-1.48,1.39-2.74,2.46-3.78,1.06-1.04,2.36-1.84,3.89-2.42,1.53-.57,3.24-.86,5.15-.86,1.61,0,2.93,.15,3.94,.46,1.01,.31,1.82,.62,2.4,.94l-1.25,4.07c-.56-.32-1.22-.6-2-.84-.77-.24-1.62-.37-2.54-.37-.98,0-1.89,.14-2.75,.42-.86,.28-1.6,.72-2.24,1.34-.63,.61-1.13,1.4-1.5,2.36-.37,.96-.55,2.14-.55,3.54,0,1.29,.18,2.43,.53,3.4,.35,.98,.85,1.79,1.49,2.44,.63,.64,1.37,1.13,2.22,1.44,.84,.32,1.76,.48,2.77,.48Z"/>
        <path class="cls-1" d="M91.45,140.3c1.61,0,3,.16,4.18,.49,1.17,.33,2.19,.73,3.05,1.19l-1.25,4.07c-.96-.49-1.91-.87-2.88-1.15-.97-.28-1.89-.42-2.77-.42-1.13,0-1.98,.21-2.56,.62-.59,.41-.88,.96-.88,1.65,0,.78,.28,1.35,.84,1.7,.56,.35,1.43,.73,2.6,1.12l2.17,.7c.86,.29,1.65,.65,2.38,1.08,.73,.43,1.36,.92,1.88,1.48,.52,.56,.93,1.2,1.22,1.91,.3,.71,.45,1.48,.45,2.31,0,.98-.19,1.9-.55,2.77-.37,.86-.92,1.63-1.67,2.29-.74,.66-1.68,1.18-2.82,1.56-1.13,.38-2.47,.56-4.01,.56-1.44,0-2.82-.15-4.13-.46-1.3-.31-2.51-.74-3.61-1.3l1.25-4.07c1.05,.51,2.08,.92,3.08,1.21,1,.3,2.05,.44,3.15,.44,1.3,0,2.23-.21,2.81-.64,.57-.43,.86-1.01,.86-1.74,0-.24-.05-.49-.14-.73-.1-.25-.29-.49-.57-.73-.28-.25-.67-.48-1.18-.72-.5-.23-1.14-.47-1.92-.72l-1.79-.62c-.86-.32-1.65-.67-2.38-1.07-.73-.39-1.36-.85-1.89-1.39-.53-.53-.94-1.16-1.23-1.87-.29-.71-.44-1.55-.44-2.53s.19-1.93,.57-2.79c.37-.86,.94-1.59,1.69-2.21,.74-.63,1.66-1.12,2.75-1.47,1.09-.35,2.34-.53,3.76-.53Z"/>
        <path class="cls-1" d="M115.83,140.3c1.66,0,3.2,.28,4.62,.82,1.42,.55,2.64,1.34,3.67,2.37,1.03,1.02,1.83,2.28,2.4,3.77,.58,1.49,.86,3.18,.86,5.06s-.3,3.48-.9,4.95c-.6,1.47-1.42,2.72-2.45,3.76-1.04,1.04-2.27,1.84-3.7,2.38-1.43,.55-2.98,.82-4.64,.82s-3.2-.27-4.62-.81c-1.42-.54-2.64-1.31-3.67-2.33-1.03-1.01-1.83-2.26-2.4-3.74-.58-1.48-.86-3.16-.86-5.04s.29-3.49,.88-4.97c.59-1.48,1.41-2.74,2.46-3.79,1.05-1.05,2.29-1.86,3.72-2.42,1.43-.56,2.98-.84,4.64-.84Zm-5.83,12.03c0,1.29,.15,2.43,.46,3.41,.3,.98,.73,1.78,1.27,2.42,.53,.63,1.15,1.12,1.85,1.43,.7,.32,1.44,.48,2.25,.48s1.52-.16,2.22-.48c.7-.31,1.3-.79,1.82-1.43,.51-.64,.92-1.44,1.21-2.42,.29-.98,.44-2.12,.44-3.41s-.15-2.51-.46-3.5c-.3-.99-.72-1.8-1.26-2.44-.54-.64-1.16-1.12-1.85-1.43-.7-.32-1.45-.48-2.26-.48s-1.52,.16-2.21,.49c-.7,.33-1.3,.82-1.82,1.48-.51,.66-.92,1.48-1.21,2.46-.3,.98-.44,2.12-.44,3.41Z"/>
      </g>
      <g>
        <path class="cls-1" d="M4.94,176.85h1.33l4.86,12.55h-1.51l-1.37-3.59H2.87l-1.37,3.59H0l4.94-12.55Zm-1.68,7.81H7.81l-1-2.69c-.19-.47-.38-1-.58-1.58-.2-.59-.41-1.24-.64-1.95h-.04c-.11,.35-.21,.68-.32,.98-.11,.3-.21,.6-.31,.88-.1,.28-.2,.56-.3,.83-.1,.27-.21,.56-.33,.85l-1.04,2.69Z"/>
        <path class="cls-1" d="M16.96,176.85h3.86c.65,0,1.22,.09,1.72,.27,.5,.18,.91,.43,1.25,.75,.33,.32,.58,.7,.75,1.14,.18,.44,.26,.93,.26,1.47,0,.48-.07,.91-.23,1.31-.14,.39-.34,.73-.58,1.02-.25,.3-.53,.54-.85,.74-.32,.2-.65,.36-1,.48l3.4,5.38h-1.63l-3.11-5.12h-2.53v5.12h-1.33v-12.55Zm1.33,6.28h1.91c.44,0,.84-.05,1.22-.14,.37-.1,.71-.26,.99-.47,.27-.21,.5-.48,.65-.81,.16-.33,.24-.71,.24-1.16,0-.88-.25-1.51-.74-1.92-.5-.4-1.23-.61-2.2-.61h-2.07v5.12Z"/>
        <path class="cls-1" d="M36.86,176.84c.72,0,1.35,.05,1.91,.16,.56,.1,1.09,.29,1.59,.56l-.36,1.11c-.46-.22-.93-.38-1.42-.5-.49-.12-.99-.17-1.51-.17-.64,0-1.24,.09-1.82,.27-.58,.18-1.09,.48-1.52,.88-.44,.4-.8,.93-1.06,1.59-.27,.66-.4,1.46-.4,2.4,0,.81,.12,1.54,.34,2.18,.23,.64,.55,1.17,.97,1.61,.42,.43,.91,.76,1.49,.99,.57,.23,1.21,.34,1.91,.34,.51,0,.95-.03,1.33-.09,.37-.07,.7-.16,.96-.26v-3.98h-2.53v-1.12h3.91v5.96c-.49,.2-1.02,.36-1.6,.49-.58,.13-1.29,.19-2.12,.19s-1.65-.14-2.39-.41c-.74-.28-1.4-.68-1.95-1.21-.56-.53-1-1.19-1.33-1.96-.33-.78-.49-1.68-.49-2.7s.15-1.93,.46-2.73c.3-.79,.73-1.45,1.28-1.98,.55-.53,1.19-.93,1.93-1.2,.74-.27,1.55-.41,2.43-.41Z"/>
        <path class="cls-1" d="M47.38,176.85h7.37v1.18h-5.94v4.3h5.42v1.18h-5.42v4.72h6v1.18h-7.43v-12.55Z"/>
        <path class="cls-1" d="M61.21,176.85h1.3l5.6,8.11c.25,.37,.5,.75,.74,1.12,.25,.37,.49,.74,.71,1.12h.04c-.02-.49-.04-.98-.05-1.47,0-.49,0-.98,0-1.46v-7.42h1.4v12.55h-1.3l-5.48-7.87c-.28-.4-.56-.82-.83-1.28-.27-.46-.53-.91-.76-1.37h-.04c.03,.6,.05,1.19,.06,1.77,0,.58,.02,1.16,.02,1.76v7h-1.4v-12.55Z"/>
        <path class="cls-1" d="M86.29,176.85v1.2h-4.12v11.36h-1.44v-11.36h-4.05v-1.2h9.6Z"/>
        <path class="cls-1" d="M93.49,176.85v12.55h-1.44v-12.55h1.44Z"/>
        <path class="cls-1" d="M100.64,176.85h1.29l5.6,8.11c.26,.37,.5,.75,.75,1.12,.24,.37,.48,.74,.7,1.12h.04c-.02-.49-.04-.98-.05-1.47,0-.49,0-.98,0-1.46v-7.42h1.4v12.55h-1.3l-5.47-7.87c-.28-.4-.56-.82-.83-1.28-.28-.46-.53-.91-.77-1.37h-.04c.02,.6,.05,1.19,.06,1.77,.01,.58,.02,1.16,.02,1.76v7h-1.39v-12.55Z"/>
        <path class="cls-1" d="M121.1,176.85h1.33l4.86,12.55h-1.52l-1.37-3.59h-5.38l-1.38,3.59h-1.49l4.94-12.55Zm-1.68,7.81h4.54l-1-2.69c-.18-.47-.37-1-.58-1.58-.2-.59-.41-1.24-.64-1.95h-.04c-.1,.35-.21,.68-.32,.98-.1,.3-.21,.6-.3,.88-.1,.28-.2,.56-.3,.83-.1,.27-.21,.56-.33,.85l-1.04,2.69Z"/>
      </g>
      <g>
        <path class="cls-1" d="M10.22,240.51l.03,.07c0,1.58-.43,2.81-1.26,3.67-.83,.87-2.01,1.3-3.54,1.3s-2.79-.52-3.72-1.57c-.93-1.05-1.39-2.5-1.39-4.38v-4.4c0-1.87,.46-3.34,1.38-4.39s2.14-1.58,3.67-1.58,2.75,.42,3.58,1.27,1.26,2.09,1.29,3.72l-.03,.07h-2.09c-.02-1.16-.25-2.02-.69-2.56s-1.12-.82-2.06-.82-1.61,.37-2.11,1.1-.75,1.78-.75,3.14v4.44c0,1.38,.26,2.44,.77,3.17s1.23,1.1,2.16,1.1,1.58-.27,2.01-.8c.42-.53,.64-1.39,.66-2.56h2.1Z"/>
        <path class="cls-1" d="M18.38,245.32c-.08-.27-.15-.53-.2-.79s-.08-.52-.1-.78c-.33,.53-.74,.96-1.23,1.3-.49,.33-1.04,.5-1.64,.5-.99,0-1.77-.31-2.34-.94s-.84-1.47-.84-2.52c0-1.12,.38-2.01,1.15-2.65,.77-.64,1.84-.96,3.23-.96h1.64v-1.2c0-.71-.16-1.27-.48-1.67s-.77-.6-1.36-.6c-.53,0-.96,.18-1.28,.54-.32,.36-.48,.81-.48,1.35h-2.1s-.03-.08-.03-.08c-.04-.91,.33-1.72,1.09-2.43s1.75-1.06,2.95-1.06,2.1,.34,2.83,1.03c.72,.69,1.08,1.67,1.08,2.93v5.47c0,.46,.03,.9,.08,1.32,.05,.42,.14,.84,.27,1.25h-2.23Zm-2.67-1.45c.52,0,.99-.15,1.41-.46s.74-.69,.93-1.15v-2.42h-1.68c-.67,0-1.2,.22-1.57,.65-.38,.43-.56,.96-.56,1.59,0,.53,.13,.96,.38,1.29,.25,.33,.62,.49,1.09,.49Z"/>
        <path class="cls-1" d="M24.79,233.54l.12,1.6c.32-.58,.73-1.03,1.22-1.34,.49-.32,1.07-.47,1.73-.47s1.2,.18,1.67,.54c.46,.36,.82,.91,1.06,1.64,.3-.68,.71-1.22,1.22-1.6,.51-.38,1.11-.58,1.81-.58,1,0,1.79,.41,2.37,1.24,.58,.82,.87,2.08,.87,3.76v7h-2.21v-7.01c0-1.2-.15-2.05-.45-2.54-.3-.49-.74-.73-1.32-.73-.5,0-.92,.19-1.26,.57-.34,.38-.58,.89-.74,1.52,0-.06,0,.04,.01,.28s.02,.42,.02,.53v7.38h-2.2v-7.01c0-1.17-.15-2-.46-2.51-.3-.5-.75-.76-1.33-.76-.46,0-.86,.13-1.19,.39-.33,.26-.58,.62-.76,1.07v8.82h-2.2v-11.78h2.01Z"/>
        <path class="cls-1" d="M48.09,240.41c0,1.55-.34,2.8-1.02,3.74-.68,.94-1.63,1.4-2.84,1.4-.57,0-1.08-.11-1.51-.34-.44-.22-.81-.55-1.12-.99v5.63h-2.21v-16.31h1.97l.14,1.35c.31-.5,.69-.89,1.14-1.16s.97-.41,1.57-.41c1.23,0,2.18,.52,2.86,1.55,.68,1.03,1.02,2.4,1.02,4.09v1.45Zm-2.21-1.45c0-1.15-.19-2.1-.57-2.83-.38-.73-.95-1.09-1.7-1.09-.47,0-.88,.13-1.21,.4s-.6,.63-.81,1.1v5.96c.2,.44,.46,.78,.79,1.02,.33,.24,.74,.35,1.23,.35,.76,0,1.33-.32,1.7-.95,.37-.63,.56-1.47,.56-2.51v-1.45Z"/>
        <path class="cls-1" d="M56.44,243.74c-.31,.58-.71,1.03-1.2,1.34-.49,.31-1.05,.47-1.68,.47-1.07,0-1.9-.41-2.49-1.23-.59-.82-.89-2.09-.89-3.82v-6.96h2.2v6.98c0,1.21,.14,2.06,.43,2.56,.29,.5,.72,.76,1.29,.76s1-.13,1.37-.38c.37-.25,.66-.62,.88-1.09v-8.83h2.21v11.78h-1.97l-.14-1.58Z"/>
        <path class="cls-1" d="M66.54,242.37c0-.46-.15-.84-.45-1.16-.3-.32-.87-.66-1.7-1.04-1.21-.47-2.11-.97-2.69-1.51-.58-.53-.88-1.23-.88-2.07,0-.91,.36-1.68,1.07-2.31,.71-.63,1.65-.95,2.82-.95s2.18,.34,2.9,1.03c.72,.69,1.06,1.54,1.03,2.56l-.02,.07h-2.12c0-.56-.16-1.04-.47-1.44-.32-.4-.75-.6-1.31-.6s-.98,.16-1.29,.47c-.31,.31-.46,.68-.46,1.1,0,.45,.13,.81,.4,1.07,.27,.26,.84,.6,1.72,1.02,1.23,.44,2.15,.95,2.75,1.51s.9,1.28,.9,2.16c0,.97-.37,1.76-1.11,2.37-.74,.61-1.71,.91-2.92,.91-1.3,0-2.32-.37-3.07-1.11-.75-.74-1.1-1.6-1.07-2.59l.02-.07h2.06c.03,.76,.24,1.31,.63,1.65,.39,.34,.88,.51,1.46,.51s1.02-.15,1.34-.44c.32-.29,.48-.67,.48-1.14Z"/>
        <path class="cls-1" d="M79.03,241.78l.18,.92h.07l.19-.92,2-8.24h2.28l-3.53,11.78h-1.95l-3.55-11.78h2.29l2.03,8.24Z"/>
        <path class="cls-1" d="M87.68,230.44h-2.21v-2.11h2.21v2.11Zm0,14.87h-2.21v-11.78h2.21v11.78Z"/>
        <path class="cls-1" d="M95.43,235.4l-1.03-.05c-.46,0-.84,.14-1.14,.41-.3,.28-.53,.66-.69,1.17v8.4h-2.21v-11.78h2.01l.16,1.77c.25-.62,.57-1.11,.97-1.46,.4-.35,.86-.53,1.38-.53,.14,0,.29,.01,.45,.04s.27,.06,.36,.09l-.26,1.95Z"/>
        <path class="cls-1" d="M100.42,230.61v2.93h1.84v1.58h-1.84v7.01c0,.61,.09,1.04,.27,1.3,.18,.26,.42,.39,.71,.39,.17,0,.33-.01,.48-.03,.15-.02,.33-.05,.53-.1l.23,1.52c-.25,.1-.52,.18-.83,.25s-.63,.09-.95,.09c-.83,0-1.48-.27-1.94-.82-.46-.55-.69-1.41-.69-2.6v-7.01h-1.54v-1.58h1.54v-2.93h2.2Z"/>
        <path class="cls-1" d="M110.65,243.74c-.31,.58-.71,1.03-1.2,1.34-.49,.31-1.05,.47-1.68,.47-1.07,0-1.9-.41-2.49-1.23-.59-.82-.89-2.09-.89-3.82v-6.96h2.2v6.98c0,1.21,.14,2.06,.43,2.56,.29,.5,.72,.76,1.29,.76s1-.13,1.37-.38c.37-.25,.66-.62,.88-1.09v-8.83h2.21v11.78h-1.97l-.14-1.58Z"/>
        <path class="cls-1" d="M121.27,245.32c-.08-.27-.15-.53-.2-.79s-.08-.52-.1-.78c-.33,.53-.74,.96-1.23,1.3-.49,.33-1.04,.5-1.64,.5-.99,0-1.77-.31-2.33-.94s-.84-1.47-.84-2.52c0-1.12,.38-2.01,1.15-2.65,.77-.64,1.84-.96,3.23-.96h1.64v-1.2c0-.71-.16-1.27-.48-1.67s-.77-.6-1.36-.6c-.53,0-.96,.18-1.28,.54-.32,.36-.48,.81-.48,1.35h-2.1s-.03-.08-.03-.08c-.04-.91,.33-1.72,1.09-2.43,.76-.71,1.75-1.06,2.95-1.06s2.1,.34,2.83,1.03c.72,.69,1.08,1.67,1.08,2.93v5.47c0,.46,.03,.9,.08,1.32,.05,.42,.14,.84,.27,1.25h-2.23Zm-2.67-1.45c.52,0,.99-.15,1.41-.46s.74-.69,.93-1.15v-2.42h-1.68c-.67,0-1.2,.22-1.57,.65-.37,.43-.56,.96-.56,1.59,0,.53,.13,.96,.38,1.29,.25,.33,.62,.49,1.09,.49Z"/>
        <path class="cls-1" d="M128.02,245.32h-2.21v-16.99h2.21v16.99Z"/>
      </g>
    </g>
  </g>
</svg>