<?xml version="1.0" encoding="utf-8"?>
<!-- Generator: Adobe Illustrator 26.5.0, SVG Export Plug-In . SVG Version: 6.00 Build 0)  -->
<svg version="1.1" id="Capa_1" xmlns="http://www.w3.org/2000/svg" xmlns:xlink="http://www.w3.org/1999/xlink" x="0px" y="0px"
	 viewBox="0 0 970 1102" style="enable-background:new 0 0 970 1102;" xml:space="preserve">
<style type="text/css">
	.st0{opacity:0.25;}
	.st1{fill:#FFFFFF;}
	.st2{fill:#43A02B;}
	.st3{fill:#F39B09;}
	.st4{fill:#239AD2;}
	.st5{fill:#A8211C;}
	.st6{fill:#653587;}
	.st7{fill:#E0740B;}
	.st8{fill:#8A933B;}
	.st9{fill:#004E80;}
	.st10{fill:#A2659F;}
	.st11{fill:#E6BC01;}
	.st12{fill:#E0007E;}
</style>
<g>
	<g class="st0">
		<path class="st1" d="M11.9,19.4c4.5,0,8.1-3.6,8.1-8.1s-3.6-8.1-8.1-8.1s-8.1,3.6-8.1,8.1C3.8,15.8,7.4,19.4,11.9,19.4"/>
		<path class="st1" d="M11.9,46.5c4.5,0,8.1-3.6,8.1-8.1s-3.6-8.1-8.1-8.1s-8.1,3.6-8.1,8.1C3.8,42.8,7.4,46.5,11.9,46.5"/>
		<path class="st1" d="M11.9,73.5c4.5,0,8.1-3.6,8.1-8.1s-3.6-8.1-8.1-8.1s-8.1,3.6-8.1,8.1C3.8,69.9,7.4,73.5,11.9,73.5"/>
		<path class="st1" d="M38.9,19.4c4.5,0,8.1-3.6,8.1-8.1s-3.6-8.1-8.1-8.1s-8.1,3.6-8.1,8.1C30.8,15.8,34.5,19.4,38.9,19.4"/>
		<path class="st1" d="M38.9,46.5c4.5,0,8.1-3.6,8.1-8.1s-3.6-8.1-8.1-8.1s-8.1,3.6-8.1,8.1C30.8,42.8,34.5,46.5,38.9,46.5"/>
		<path class="st1" d="M38.9,100.5c4.5,0,8.1-3.6,8.1-8.1s-3.6-8.1-8.1-8.1s-8.1,3.6-8.1,8.1C30.8,96.9,34.5,100.5,38.9,100.5"/>
		<path class="st1" d="M38.9,127.6c4.5,0,8.1-3.6,8.1-8.1s-3.6-8.1-8.1-8.1s-8.1,3.6-8.1,8.1C30.8,123.9,34.5,127.6,38.9,127.6"/>
		<path class="st1" d="M66,19.4c4.5,0,8.1-3.6,8.1-8.1S70.5,3.2,66,3.2s-8.1,3.6-8.1,8.1S61.5,19.4,66,19.4"/>
		<path class="st1" d="M66,46.5c4.5,0,8.1-3.6,8.1-8.1s-3.6-8.1-8.1-8.1s-8.1,3.6-8.1,8.1C57.9,42.8,61.5,46.5,66,46.5"/>
		<path class="st1" d="M66,73.5c4.5,0,8.1-3.6,8.1-8.1s-3.6-8.1-8.1-8.1s-8.1,3.6-8.1,8.1S61.5,73.5,66,73.5"/>
		<path class="st1" d="M93,19.4c4.5,0,8.1-3.6,8.1-8.1S97.5,3.2,93,3.2s-8.1,3.6-8.1,8.1S88.5,19.4,93,19.4"/>
		<path class="st1" d="M93,46.5c4.5,0,8.1-3.6,8.1-8.1s-3.6-8.1-8.1-8.1s-8.1,3.6-8.1,8.1S88.5,46.5,93,46.5"/>
		<path class="st1" d="M93,73.5c4.5,0,8.1-3.6,8.1-8.1s-3.6-8.1-8.1-8.1s-8.1,3.6-8.1,8.1S88.5,73.5,93,73.5"/>
		<path class="st1" d="M93,100.5c4.5,0,8.1-3.6,8.1-8.1s-3.6-8.1-8.1-8.1s-8.1,3.6-8.1,8.1S88.5,100.5,93,100.5"/>
		<path class="st1" d="M93,127.6c4.5,0,8.1-3.6,8.1-8.1s-3.6-8.1-8.1-8.1s-8.1,3.6-8.1,8.1S88.5,127.6,93,127.6"/>
		<path class="st1" d="M93,154.6c4.5,0,8.1-3.6,8.1-8.1s-3.6-8.1-8.1-8.1s-8.1,3.6-8.1,8.1S88.5,154.6,93,154.6"/>
		<path class="st1" d="M93,181.6c4.5,0,8.1-3.6,8.1-8.1s-3.6-8.1-8.1-8.1s-8.1,3.6-8.1,8.1S88.5,181.6,93,181.6"/>
		<path class="st1" d="M120.1,19.4c4.5,0,8.1-3.6,8.1-8.1s-3.6-8.1-8.1-8.1s-8.1,3.6-8.1,8.1S115.6,19.4,120.1,19.4"/>
		<path class="st1" d="M120.1,46.5c4.5,0,8.1-3.6,8.1-8.1s-3.6-8.1-8.1-8.1s-8.1,3.6-8.1,8.1S115.6,46.5,120.1,46.5"/>
		<path class="st1" d="M120.1,73.5c4.5,0,8.1-3.6,8.1-8.1s-3.6-8.1-8.1-8.1s-8.1,3.6-8.1,8.1S115.6,73.5,120.1,73.5"/>
		<path class="st1" d="M120.1,100.5c4.5,0,8.1-3.6,8.1-8.1s-3.6-8.1-8.1-8.1s-8.1,3.6-8.1,8.1S115.6,100.5,120.1,100.5"/>
		<path class="st1" d="M120.1,127.6c4.5,0,8.1-3.6,8.1-8.1s-3.6-8.1-8.1-8.1s-8.1,3.6-8.1,8.1S115.6,127.6,120.1,127.6"/>
		<path class="st1" d="M120.1,154.6c4.5,0,8.1-3.6,8.1-8.1s-3.6-8.1-8.1-8.1s-8.1,3.6-8.1,8.1S115.6,154.6,120.1,154.6"/>
		<path class="st1" d="M120.1,181.6c4.5,0,8.1-3.6,8.1-8.1s-3.6-8.1-8.1-8.1s-8.1,3.6-8.1,8.1S115.6,181.6,120.1,181.6"/>
		<path class="st1" d="M147.1,46.5c4.5,0,8.1-3.6,8.1-8.1s-3.6-8.1-8.1-8.1s-8.1,3.6-8.1,8.1S142.6,46.5,147.1,46.5"/>
		<path class="st1" d="M147.1,73.5c4.5,0,8.1-3.6,8.1-8.1s-3.6-8.1-8.1-8.1s-8.1,3.6-8.1,8.1S142.6,73.5,147.1,73.5"/>
		<path class="st1" d="M147.1,100.5c4.5,0,8.1-3.6,8.1-8.1s-3.6-8.1-8.1-8.1s-8.1,3.6-8.1,8.1S142.6,100.5,147.1,100.5"/>
		<path class="st1" d="M147.1,127.6c4.5,0,8.1-3.6,8.1-8.1s-3.6-8.1-8.1-8.1s-8.1,3.6-8.1,8.1S142.6,127.6,147.1,127.6"/>
		<path class="st1" d="M147.1,154.6c4.5,0,8.1-3.6,8.1-8.1s-3.6-8.1-8.1-8.1s-8.1,3.6-8.1,8.1S142.6,154.6,147.1,154.6"/>
		<path class="st1" d="M147.1,181.6c4.5,0,8.1-3.6,8.1-8.1s-3.6-8.1-8.1-8.1s-8.1,3.6-8.1,8.1S142.6,181.6,147.1,181.6"/>
		<path class="st1" d="M147.1,208.7c4.5,0,8.1-3.6,8.1-8.1s-3.6-8.1-8.1-8.1s-8.1,3.6-8.1,8.1C139,205,142.6,208.7,147.1,208.7"/>
		<path class="st1" d="M174.1,73.5c4.5,0,8.1-3.6,8.1-8.1s-3.6-8.1-8.1-8.1s-8.1,3.6-8.1,8.1S169.6,73.5,174.1,73.5"/>
		<path class="st1" d="M174.1,100.5c4.5,0,8.1-3.6,8.1-8.1s-3.6-8.1-8.1-8.1s-8.1,3.6-8.1,8.1S169.6,100.5,174.1,100.5"/>
		<path class="st1" d="M174.1,127.6c4.5,0,8.1-3.6,8.1-8.1s-3.6-8.1-8.1-8.1s-8.1,3.6-8.1,8.1S169.6,127.6,174.1,127.6"/>
		<path class="st1" d="M174.1,154.6c4.5,0,8.1-3.6,8.1-8.1s-3.6-8.1-8.1-8.1s-8.1,3.6-8.1,8.1S169.6,154.6,174.1,154.6"/>
		<path class="st1" d="M174.1,181.6c4.5,0,8.1-3.6,8.1-8.1s-3.6-8.1-8.1-8.1s-8.1,3.6-8.1,8.1S169.6,181.6,174.1,181.6"/>
		<path class="st1" d="M174.1,208.7c4.5,0,8.1-3.6,8.1-8.1s-3.6-8.1-8.1-8.1s-8.1,3.6-8.1,8.1C166,205,169.6,208.7,174.1,208.7"/>
		<path class="st1" d="M201.1,100.5c4.5,0,8.1-3.6,8.1-8.1s-3.6-8.1-8.1-8.1s-8.1,3.6-8.1,8.1S196.7,100.5,201.1,100.5"/>
		<path class="st1" d="M201.1,181.6c4.5,0,8.1-3.6,8.1-8.1s-3.6-8.1-8.1-8.1s-8.1,3.6-8.1,8.1S196.7,181.6,201.1,181.6"/>
		<path class="st1" d="M201.1,208.7c4.5,0,8.1-3.6,8.1-8.1s-3.6-8.1-8.1-8.1s-8.1,3.6-8.1,8.1C193,205,196.7,208.7,201.1,208.7"/>
		<path class="st1" d="M201.1,235.7c4.5,0,8.1-3.6,8.1-8.1s-3.6-8.1-8.1-8.1s-8.1,3.6-8.1,8.1S196.7,235.7,201.1,235.7"/>
		<path class="st1" d="M228.2,208.7c4.5,0,8.1-3.6,8.1-8.1s-3.6-8.1-8.1-8.1s-8.1,3.6-8.1,8.1C220.1,205,223.7,208.7,228.2,208.7"/>
		<path class="st1" d="M228.2,235.7c4.5,0,8.1-3.6,8.1-8.1s-3.6-8.1-8.1-8.1s-8.1,3.6-8.1,8.1S223.7,235.7,228.2,235.7"/>
		<path class="st1" d="M255.2,181.6c4.5,0,8.1-3.6,8.1-8.1s-3.6-8.1-8.1-8.1s-8.1,3.6-8.1,8.1C247.1,178,250.7,181.6,255.2,181.6"/>
		<path class="st1" d="M255.2,208.7c4.5,0,8.1-3.6,8.1-8.1s-3.6-8.1-8.1-8.1s-8.1,3.6-8.1,8.1C247.1,205,250.7,208.7,255.2,208.7"/>
		<path class="st1" d="M255.2,235.7c4.5,0,8.1-3.6,8.1-8.1s-3.6-8.1-8.1-8.1s-8.1,3.6-8.1,8.1C247.1,232.1,250.7,235.7,255.2,235.7"
			/>
		<path class="st1" d="M309.3,154.6c4.5,0,8.1-3.6,8.1-8.1s-3.6-8.1-8.1-8.1s-8.1,3.6-8.1,8.1C301.2,151,304.8,154.6,309.3,154.6"/>
		<path class="st1" d="M358,145.1c4.5,0,8.1-3.6,8.1-8.1s-3.6-8.1-8.1-8.1s-8.1,3.6-8.1,8.1S353.5,145.1,358,145.1"/>
		<path class="st1" d="M385.1,145.1c4.5,0,8.1-3.6,8.1-8.1s-3.6-8.1-8.1-8.1s-8.1,3.6-8.1,8.1S380.6,145.1,385.1,145.1"/>
		<path class="st1" d="M412.1,145.1c4.5,0,8.1-3.6,8.1-8.1s-3.6-8.1-8.1-8.1s-8.1,3.6-8.1,8.1S407.6,145.1,412.1,145.1"/>
		<path class="st1" d="M282.2,181.6c4.5,0,8.1-3.6,8.1-8.1s-3.6-8.1-8.1-8.1s-8.1,3.6-8.1,8.1S277.8,181.6,282.2,181.6"/>
		<path class="st1" d="M309.3,181.6c4.5,0,8.1-3.6,8.1-8.1s-3.6-8.1-8.1-8.1s-8.1,3.6-8.1,8.1C301.2,178,304.8,181.6,309.3,181.6"/>
		<path class="st1" d="M412.1,172.1c4.5,0,8.1-3.6,8.1-8.1s-3.6-8.1-8.1-8.1s-8.1,3.6-8.1,8.1S407.6,172.1,412.1,172.1"/>
		<path class="st1" d="M439.1,172.1c4.5,0,8.1-3.6,8.1-8.1s-3.6-8.1-8.1-8.1s-8.1,3.6-8.1,8.1S434.6,172.1,439.1,172.1"/>
		<path class="st1" d="M498.5,181.6c4.5,0,8.1-3.6,8.1-8.1s-3.6-8.1-8.1-8.1s-8.1,3.6-8.1,8.1S494,181.6,498.5,181.6"/>
		<path class="st1" d="M525.6,181.6c4.5,0,8.1-3.6,8.1-8.1s-3.6-8.1-8.1-8.1s-8.1,3.6-8.1,8.1S521.1,181.6,525.6,181.6"/>
		<path class="st1" d="M282.2,208.7c4.5,0,8.1-3.6,8.1-8.1s-3.6-8.1-8.1-8.1s-8.1,3.6-8.1,8.1C274.1,205,277.8,208.7,282.2,208.7"/>
		<path class="st1" d="M498.5,208.7c4.5,0,8.1-3.6,8.1-8.1s-3.6-8.1-8.1-8.1s-8.1,3.6-8.1,8.1C490.4,205,494,208.7,498.5,208.7"/>
		<path class="st1" d="M525.6,208.7c4.5,0,8.1-3.6,8.1-8.1s-3.6-8.1-8.1-8.1s-8.1,3.6-8.1,8.1C517.5,205,521.1,208.7,525.6,208.7"/>
		<path class="st1" d="M282.2,235.7c4.5,0,8.1-3.6,8.1-8.1s-3.6-8.1-8.1-8.1s-8.1,3.6-8.1,8.1S277.8,235.7,282.2,235.7"/>
		<path class="st1" d="M309.3,235.7c4.5,0,8.1-3.6,8.1-8.1s-3.6-8.1-8.1-8.1s-8.1,3.6-8.1,8.1C301.2,232.1,304.8,235.7,309.3,235.7"
			/>
		<path class="st1" d="M336.3,235.7c4.5,0,8.1-3.6,8.1-8.1s-3.6-8.1-8.1-8.1s-8.1,3.6-8.1,8.1C328.2,232.1,331.8,235.7,336.3,235.7"
			/>
		<path class="st1" d="M363.4,289.8c4.5,0,8.1-3.6,8.1-8.1s-3.6-8.1-8.1-8.1s-8.1,3.6-8.1,8.1S358.9,289.8,363.4,289.8"/>
		<path class="st1" d="M282.2,262.7c4.5,0,8.1-3.6,8.1-8.1s-3.6-8.1-8.1-8.1s-8.1,3.6-8.1,8.1S277.8,262.7,282.2,262.7"/>
		<path class="st1" d="M309.3,262.7c4.5,0,8.1-3.6,8.1-8.1s-3.6-8.1-8.1-8.1s-8.1,3.6-8.1,8.1C301.2,259.1,304.8,262.7,309.3,262.7"
			/>
		<path class="st1" d="M336.3,262.7c4.5,0,8.1-3.6,8.1-8.1s-3.6-8.1-8.1-8.1s-8.1,3.6-8.1,8.1C328.2,259.1,331.8,262.7,336.3,262.7"
			/>
		<path class="st1" d="M309.3,289.8c4.5,0,8.1-3.6,8.1-8.1s-3.6-8.1-8.1-8.1s-8.1,3.6-8.1,8.1S304.8,289.8,309.3,289.8"/>
		<path class="st1" d="M336.3,289.8c4.5,0,8.1-3.6,8.1-8.1s-3.6-8.1-8.1-8.1s-8.1,3.6-8.1,8.1S331.8,289.8,336.3,289.8"/>
		<path class="st1" d="M336.3,316.8c4.5,0,8.1-3.6,8.1-8.1s-3.6-8.1-8.1-8.1s-8.1,3.6-8.1,8.1C328.2,313.2,331.8,316.8,336.3,316.8"
			/>
		<path class="st1" d="M363.4,316.8c4.5,0,8.1-3.6,8.1-8.1s-3.6-8.1-8.1-8.1s-8.1,3.6-8.1,8.1S358.9,316.8,363.4,316.8"/>
		<path class="st1" d="M390.4,316.8c4.5,0,8.1-3.6,8.1-8.1s-3.6-8.1-8.1-8.1s-8.1,3.6-8.1,8.1C382.3,313.2,385.9,316.8,390.4,316.8"
			/>
		<path class="st1" d="M390.4,343.9c4.5,0,8.1-3.6,8.1-8.1s-3.6-8.1-8.1-8.1s-8.1,3.6-8.1,8.1C382.3,340.2,385.9,343.9,390.4,343.9"
			/>
		<path class="st1" d="M390.4,425c4.5,0,8.1-3.6,8.1-8.1s-3.6-8.1-8.1-8.1s-8.1,3.6-8.1,8.1C382.3,421.3,385.9,425,390.4,425"/>
		<path class="st1" d="M390.4,452c4.5,0,8.1-3.6,8.1-8.1s-3.6-8.1-8.1-8.1s-8.1,3.6-8.1,8.1S385.9,452,390.4,452"/>
		<path class="st1" d="M390.4,506c4.5,0,8.1-3.6,8.1-8.1s-3.6-8.1-8.1-8.1s-8.1,3.6-8.1,8.1S385.9,506,390.4,506"/>
		<path class="st1" d="M417.4,316.8c4.5,0,8.1-3.6,8.1-8.1s-3.6-8.1-8.1-8.1s-8.1,3.6-8.1,8.1C409.3,313.2,413,316.8,417.4,316.8"/>
		<path class="st1" d="M417.4,425c4.5,0,8.1-3.6,8.1-8.1s-3.6-8.1-8.1-8.1s-8.1,3.6-8.1,8.1C409.3,421.3,413,425,417.4,425"/>
		<path class="st1" d="M417.4,452c4.5,0,8.1-3.6,8.1-8.1s-3.6-8.1-8.1-8.1s-8.1,3.6-8.1,8.1S413,452,417.4,452"/>
		<path class="st1" d="M417.4,479c4.5,0,8.1-3.6,8.1-8.1s-3.6-8.1-8.1-8.1s-8.1,3.6-8.1,8.1S413,479,417.4,479"/>
		<path class="st1" d="M417.4,506c4.5,0,8.1-3.6,8.1-8.1s-3.6-8.1-8.1-8.1s-8.1,3.6-8.1,8.1S413,506,417.4,506"/>
		<path class="st1" d="M417.4,533.1c4.5,0,8.1-3.6,8.1-8.1s-3.6-8.1-8.1-8.1s-8.1,3.6-8.1,8.1S413,533.1,417.4,533.1"/>
		<path class="st1" d="M417.4,560.1c4.5,0,8.1-3.6,8.1-8.1s-3.6-8.1-8.1-8.1s-8.1,3.6-8.1,8.1S413,560.1,417.4,560.1"/>
		<path class="st1" d="M444.5,316.8c4.5,0,8.1-3.6,8.1-8.1s-3.6-8.1-8.1-8.1s-8.1,3.6-8.1,8.1S440,316.8,444.5,316.8"/>
		<path class="st1" d="M444.5,343.9c4.5,0,8.1-3.6,8.1-8.1s-3.6-8.1-8.1-8.1s-8.1,3.6-8.1,8.1S440,343.9,444.5,343.9"/>
		<path class="st1" d="M444.5,370.9c4.5,0,8.1-3.6,8.1-8.1s-3.6-8.1-8.1-8.1s-8.1,3.6-8.1,8.1S440,370.9,444.5,370.9"/>
		<path class="st1" d="M444.5,397.9c4.5,0,8.1-3.6,8.1-8.1s-3.6-8.1-8.1-8.1s-8.1,3.6-8.1,8.1S440,397.9,444.5,397.9"/>
		<path class="st1" d="M444.5,425c4.5,0,8.1-3.6,8.1-8.1s-3.6-8.1-8.1-8.1s-8.1,3.6-8.1,8.1S440,425,444.5,425"/>
		<path class="st1" d="M444.5,452c4.5,0,8.1-3.6,8.1-8.1s-3.6-8.1-8.1-8.1s-8.1,3.6-8.1,8.1S440,452,444.5,452"/>
		<path class="st1" d="M444.5,479c4.5,0,8.1-3.6,8.1-8.1s-3.6-8.1-8.1-8.1s-8.1,3.6-8.1,8.1S440,479,444.5,479"/>
		<path class="st1" d="M444.5,506c4.5,0,8.1-3.6,8.1-8.1s-3.6-8.1-8.1-8.1s-8.1,3.6-8.1,8.1S440,506,444.5,506"/>
		<path class="st1" d="M444.5,533.1c4.5,0,8.1-3.6,8.1-8.1s-3.6-8.1-8.1-8.1s-8.1,3.6-8.1,8.1S440,533.1,444.5,533.1"/>
		<path class="st1" d="M444.5,560.1c4.5,0,8.1-3.6,8.1-8.1s-3.6-8.1-8.1-8.1s-8.1,3.6-8.1,8.1S440,560.1,444.5,560.1"/>
		<path class="st1" d="M444.5,587.2c4.5,0,8.1-3.6,8.1-8.1s-3.6-8.1-8.1-8.1s-8.1,3.6-8.1,8.1C436.4,583.5,440,587.2,444.5,587.2"/>
		<path class="st1" d="M444.5,614.2c4.5,0,8.1-3.6,8.1-8.1s-3.6-8.1-8.1-8.1s-8.1,3.6-8.1,8.1S440,614.2,444.5,614.2"/>
		<path class="st1" d="M471.5,289.8c4.5,0,8.1-3.6,8.1-8.1s-3.6-8.1-8.1-8.1s-8.1,3.6-8.1,8.1S467,289.8,471.5,289.8"/>
		<path class="st1" d="M471.5,316.8c4.5,0,8.1-3.6,8.1-8.1s-3.6-8.1-8.1-8.1s-8.1,3.6-8.1,8.1S467,316.8,471.5,316.8"/>
		<path class="st1" d="M471.5,343.9c4.5,0,8.1-3.6,8.1-8.1s-3.6-8.1-8.1-8.1s-8.1,3.6-8.1,8.1S467,343.9,471.5,343.9"/>
		<path class="st1" d="M471.5,370.9c4.5,0,8.1-3.6,8.1-8.1s-3.6-8.1-8.1-8.1s-8.1,3.6-8.1,8.1S467,370.9,471.5,370.9"/>
		<path class="st1" d="M471.5,397.9c4.5,0,8.1-3.6,8.1-8.1s-3.6-8.1-8.1-8.1s-8.1,3.6-8.1,8.1S467,397.9,471.5,397.9"/>
		<path class="st1" d="M471.5,425c4.5,0,8.1-3.6,8.1-8.1s-3.6-8.1-8.1-8.1s-8.1,3.6-8.1,8.1S467,425,471.5,425"/>
		<path class="st1" d="M471.5,452c4.5,0,8.1-3.6,8.1-8.1s-3.6-8.1-8.1-8.1s-8.1,3.6-8.1,8.1S467,452,471.5,452"/>
		<path class="st1" d="M471.5,479c4.5,0,8.1-3.6,8.1-8.1s-3.6-8.1-8.1-8.1s-8.1,3.6-8.1,8.1S467,479,471.5,479"/>
		<path class="st1" d="M471.5,506c4.5,0,8.1-3.6,8.1-8.1s-3.6-8.1-8.1-8.1s-8.1,3.6-8.1,8.1S467,506,471.5,506"/>
		<path class="st1" d="M471.5,533.1c4.5,0,8.1-3.6,8.1-8.1s-3.6-8.1-8.1-8.1s-8.1,3.6-8.1,8.1S467,533.1,471.5,533.1"/>
		<path class="st1" d="M471.5,560.1c4.5,0,8.1-3.6,8.1-8.1s-3.6-8.1-8.1-8.1s-8.1,3.6-8.1,8.1S467,560.1,471.5,560.1"/>
		<path class="st1" d="M471.5,587.2c4.5,0,8.1-3.6,8.1-8.1s-3.6-8.1-8.1-8.1s-8.1,3.6-8.1,8.1C463.4,583.5,467,587.2,471.5,587.2"/>
		<path class="st1" d="M471.5,614.2c4.5,0,8.1-3.6,8.1-8.1s-3.6-8.1-8.1-8.1s-8.1,3.6-8.1,8.1S467,614.2,471.5,614.2"/>
		<path class="st1" d="M471.5,641.2c4.5,0,8.1-3.6,8.1-8.1s-3.6-8.1-8.1-8.1s-8.1,3.6-8.1,8.1C463.4,637.6,467,641.2,471.5,641.2"/>
		<path class="st1" d="M471.5,965.6c4.5,0,8.1-3.6,8.1-8.1s-3.6-8.1-8.1-8.1s-8.1,3.6-8.1,8.1S467,965.6,471.5,965.6"/>
		<path class="st1" d="M471.5,1019.7c4.5,0,8.1-3.6,8.1-8.1s-3.6-8.1-8.1-8.1s-8.1,3.6-8.1,8.1
			C463.4,1016.1,467,1019.7,471.5,1019.7"/>
		<path class="st1" d="M471.5,1046.7c4.5,0,8.1-3.6,8.1-8.1s-3.6-8.1-8.1-8.1s-8.1,3.6-8.1,8.1S467,1046.7,471.5,1046.7"/>
		<path class="st1" d="M498.5,289.8c4.5,0,8.1-3.6,8.1-8.1s-3.6-8.1-8.1-8.1s-8.1,3.6-8.1,8.1S494,289.8,498.5,289.8"/>
		<path class="st1" d="M498.5,316.8c4.5,0,8.1-3.6,8.1-8.1s-3.6-8.1-8.1-8.1s-8.1,3.6-8.1,8.1S494,316.8,498.5,316.8"/>
		<path class="st1" d="M498.5,343.9c4.5,0,8.1-3.6,8.1-8.1s-3.6-8.1-8.1-8.1s-8.1,3.6-8.1,8.1S494,343.9,498.5,343.9"/>
		<path class="st1" d="M498.5,370.9c4.5,0,8.1-3.6,8.1-8.1s-3.6-8.1-8.1-8.1s-8.1,3.6-8.1,8.1S494,370.9,498.5,370.9"/>
		<path class="st1" d="M498.5,397.9c4.5,0,8.1-3.6,8.1-8.1s-3.6-8.1-8.1-8.1s-8.1,3.6-8.1,8.1S494,397.9,498.5,397.9"/>
		<path class="st1" d="M498.5,425c4.5,0,8.1-3.6,8.1-8.1s-3.6-8.1-8.1-8.1s-8.1,3.6-8.1,8.1S494,425,498.5,425"/>
		<path class="st1" d="M498.5,452c4.5,0,8.1-3.6,8.1-8.1s-3.6-8.1-8.1-8.1s-8.1,3.6-8.1,8.1S494,452,498.5,452"/>
		<path class="st1" d="M498.5,479c4.5,0,8.1-3.6,8.1-8.1s-3.6-8.1-8.1-8.1s-8.1,3.6-8.1,8.1S494,479,498.5,479"/>
		<path class="st1" d="M498.5,506c4.5,0,8.1-3.6,8.1-8.1s-3.6-8.1-8.1-8.1s-8.1,3.6-8.1,8.1S494,506,498.5,506"/>
		<path class="st1" d="M498.5,533.1c4.5,0,8.1-3.6,8.1-8.1s-3.6-8.1-8.1-8.1s-8.1,3.6-8.1,8.1S494,533.1,498.5,533.1"/>
		<path class="st1" d="M498.5,560.1c4.5,0,8.1-3.6,8.1-8.1s-3.6-8.1-8.1-8.1s-8.1,3.6-8.1,8.1S494,560.1,498.5,560.1"/>
		<path class="st1" d="M498.5,587.2c4.5,0,8.1-3.6,8.1-8.1s-3.6-8.1-8.1-8.1s-8.1,3.6-8.1,8.1C490.4,583.5,494,587.2,498.5,587.2"/>
		<path class="st1" d="M498.5,614.2c4.5,0,8.1-3.6,8.1-8.1s-3.6-8.1-8.1-8.1s-8.1,3.6-8.1,8.1S494,614.2,498.5,614.2"/>
		<path class="st1" d="M498.5,641.2c4.5,0,8.1-3.6,8.1-8.1s-3.6-8.1-8.1-8.1s-8.1,3.6-8.1,8.1C490.4,637.6,494,641.2,498.5,641.2"/>
		<path class="st1" d="M498.5,884.5c4.5,0,8.1-3.6,8.1-8.1s-3.6-8.1-8.1-8.1s-8.1,3.6-8.1,8.1S494,884.5,498.5,884.5"/>
		<path class="st1" d="M498.5,911.6c4.5,0,8.1-3.6,8.1-8.1s-3.6-8.1-8.1-8.1s-8.1,3.6-8.1,8.1S494,911.6,498.5,911.6"/>
		<path class="st1" d="M498.5,938.6c4.5,0,8.1-3.6,8.1-8.1s-3.6-8.1-8.1-8.1s-8.1,3.6-8.1,8.1S494,938.6,498.5,938.6"/>
		<path class="st1" d="M498.5,965.6c4.5,0,8.1-3.6,8.1-8.1s-3.6-8.1-8.1-8.1s-8.1,3.6-8.1,8.1S494,965.6,498.5,965.6"/>
		<path class="st1" d="M498.5,992.7c4.5,0,8.1-3.6,8.1-8.1s-3.6-8.1-8.1-8.1s-8.1,3.6-8.1,8.1S494,992.7,498.5,992.7"/>
		<path class="st1" d="M498.5,1019.7c4.5,0,8.1-3.6,8.1-8.1s-3.6-8.1-8.1-8.1s-8.1,3.6-8.1,8.1
			C490.4,1016.1,494,1019.7,498.5,1019.7"/>
		<path class="st1" d="M498.5,1046.7c4.5,0,8.1-3.6,8.1-8.1s-3.6-8.1-8.1-8.1s-8.1,3.6-8.1,8.1S494,1046.7,498.5,1046.7"/>
		<path class="st1" d="M498.5,1073.8c4.5,0,8.1-3.6,8.1-8.1s-3.6-8.1-8.1-8.1s-8.1,3.6-8.1,8.1S494,1073.8,498.5,1073.8"/>
		<path class="st1" d="M498.5,1100.8c4.5,0,8.1-3.6,8.1-8.1s-3.6-8.1-8.1-8.1s-8.1,3.6-8.1,8.1S494,1100.8,498.5,1100.8"/>
		<path class="st1" d="M525.6,289.8c4.5,0,8.1-3.6,8.1-8.1s-3.6-8.1-8.1-8.1s-8.1,3.6-8.1,8.1S521.1,289.8,525.6,289.8"/>
		<path class="st1" d="M525.6,316.8c4.5,0,8.1-3.6,8.1-8.1s-3.6-8.1-8.1-8.1s-8.1,3.6-8.1,8.1S521.1,316.8,525.6,316.8"/>
		<path class="st1" d="M525.6,343.9c4.5,0,8.1-3.6,8.1-8.1s-3.6-8.1-8.1-8.1s-8.1,3.6-8.1,8.1S521.1,343.9,525.6,343.9"/>
		<path class="st1" d="M525.6,370.9c4.5,0,8.1-3.6,8.1-8.1s-3.6-8.1-8.1-8.1s-8.1,3.6-8.1,8.1S521.1,370.9,525.6,370.9"/>
		<path class="st1" d="M525.6,397.9c4.5,0,8.1-3.6,8.1-8.1s-3.6-8.1-8.1-8.1s-8.1,3.6-8.1,8.1S521.1,397.9,525.6,397.9"/>
		<path class="st1" d="M525.6,425c4.5,0,8.1-3.6,8.1-8.1s-3.6-8.1-8.1-8.1s-8.1,3.6-8.1,8.1S521.1,425,525.6,425"/>
		<path class="st1" d="M525.6,452c4.5,0,8.1-3.6,8.1-8.1s-3.6-8.1-8.1-8.1s-8.1,3.6-8.1,8.1S521.1,452,525.6,452"/>
		<path class="st1" d="M525.6,479c4.5,0,8.1-3.6,8.1-8.1s-3.6-8.1-8.1-8.1s-8.1,3.6-8.1,8.1S521.1,479,525.6,479"/>
		<path class="st1" d="M525.6,506c4.5,0,8.1-3.6,8.1-8.1s-3.6-8.1-8.1-8.1s-8.1,3.6-8.1,8.1S521.1,506,525.6,506"/>
		<path class="st1" d="M525.6,533.1c4.5,0,8.1-3.6,8.1-8.1s-3.6-8.1-8.1-8.1s-8.1,3.6-8.1,8.1S521.1,533.1,525.6,533.1"/>
		<path class="st1" d="M525.6,560.1c4.5,0,8.1-3.6,8.1-8.1s-3.6-8.1-8.1-8.1s-8.1,3.6-8.1,8.1S521.1,560.1,525.6,560.1"/>
		<path class="st1" d="M525.6,587.2c4.5,0,8.1-3.6,8.1-8.1s-3.6-8.1-8.1-8.1s-8.1,3.6-8.1,8.1C517.5,583.5,521.1,587.2,525.6,587.2"
			/>
		<path class="st1" d="M525.6,614.2c4.5,0,8.1-3.6,8.1-8.1s-3.6-8.1-8.1-8.1s-8.1,3.6-8.1,8.1S521.1,614.2,525.6,614.2"/>
		<path class="st1" d="M525.6,641.2c4.5,0,8.1-3.6,8.1-8.1s-3.6-8.1-8.1-8.1s-8.1,3.6-8.1,8.1C517.5,637.6,521.1,641.2,525.6,641.2"
			/>
		<path class="st1" d="M525.6,668.3c4.5,0,8.1-3.6,8.1-8.1s-3.6-8.1-8.1-8.1s-8.1,3.6-8.1,8.1S521.1,668.3,525.6,668.3"/>
		<path class="st1" d="M525.6,695.3c4.5,0,8.1-3.6,8.1-8.1s-3.6-8.1-8.1-8.1s-8.1,3.6-8.1,8.1S521.1,695.3,525.6,695.3"/>
		<path class="st1" d="M525.6,722.3c4.5,0,8.1-3.6,8.1-8.1s-3.6-8.1-8.1-8.1s-8.1,3.6-8.1,8.1S521.1,722.3,525.6,722.3"/>
		<path class="st1" d="M525.6,749.4c4.5,0,8.1-3.6,8.1-8.1s-3.6-8.1-8.1-8.1s-8.1,3.6-8.1,8.1S521.1,749.4,525.6,749.4"/>
		<path class="st1" d="M525.6,776.4c4.5,0,8.1-3.6,8.1-8.1s-3.6-8.1-8.1-8.1s-8.1,3.6-8.1,8.1S521.1,776.4,525.6,776.4"/>
		<path class="st1" d="M525.6,803.4c4.5,0,8.1-3.6,8.1-8.1s-3.6-8.1-8.1-8.1s-8.1,3.6-8.1,8.1S521.1,803.4,525.6,803.4"/>
		<path class="st1" d="M525.6,830.5c4.5,0,8.1-3.6,8.1-8.1s-3.6-8.1-8.1-8.1s-8.1,3.6-8.1,8.1S521.1,830.5,525.6,830.5"/>
		<path class="st1" d="M525.6,857.5c4.5,0,8.1-3.6,8.1-8.1s-3.6-8.1-8.1-8.1s-8.1,3.6-8.1,8.1S521.1,857.5,525.6,857.5"/>
		<path class="st1" d="M525.6,884.5c4.5,0,8.1-3.6,8.1-8.1s-3.6-8.1-8.1-8.1s-8.1,3.6-8.1,8.1S521.1,884.5,525.6,884.5"/>
		<path class="st1" d="M525.6,911.6c4.5,0,8.1-3.6,8.1-8.1s-3.6-8.1-8.1-8.1s-8.1,3.6-8.1,8.1S521.1,911.6,525.6,911.6"/>
		<path class="st1" d="M525.6,938.6c4.5,0,8.1-3.6,8.1-8.1s-3.6-8.1-8.1-8.1s-8.1,3.6-8.1,8.1S521.1,938.6,525.6,938.6"/>
		<path class="st1" d="M525.6,965.6c4.5,0,8.1-3.6,8.1-8.1s-3.6-8.1-8.1-8.1s-8.1,3.6-8.1,8.1S521.1,965.6,525.6,965.6"/>
		<path class="st1" d="M525.6,992.7c4.5,0,8.1-3.6,8.1-8.1s-3.6-8.1-8.1-8.1s-8.1,3.6-8.1,8.1S521.1,992.7,525.6,992.7"/>
		<path class="st1" d="M525.6,1019.7c4.5,0,8.1-3.6,8.1-8.1s-3.6-8.1-8.1-8.1s-8.1,3.6-8.1,8.1
			C517.5,1016.1,521.1,1019.7,525.6,1019.7"/>
		<path class="st1" d="M525.6,1046.7c4.5,0,8.1-3.6,8.1-8.1s-3.6-8.1-8.1-8.1s-8.1,3.6-8.1,8.1S521.1,1046.7,525.6,1046.7"/>
		<path class="st1" d="M525.6,1073.8c4.5,0,8.1-3.6,8.1-8.1s-3.6-8.1-8.1-8.1s-8.1,3.6-8.1,8.1S521.1,1073.8,525.6,1073.8"/>
		<path class="st1" d="M552.6,289.8c4.5,0,8.1-3.6,8.1-8.1s-3.6-8.1-8.1-8.1s-8.1,3.6-8.1,8.1S548.1,289.8,552.6,289.8"/>
		<path class="st1" d="M552.6,316.8c4.5,0,8.1-3.6,8.1-8.1s-3.6-8.1-8.1-8.1s-8.1,3.6-8.1,8.1S548.1,316.8,552.6,316.8"/>
		<path class="st1" d="M552.6,343.9c4.5,0,8.1-3.6,8.1-8.1s-3.6-8.1-8.1-8.1s-8.1,3.6-8.1,8.1S548.1,343.9,552.6,343.9"/>
		<path class="st1" d="M552.6,370.9c4.5,0,8.1-3.6,8.1-8.1s-3.6-8.1-8.1-8.1s-8.1,3.6-8.1,8.1S548.1,370.9,552.6,370.9"/>
		<path class="st1" d="M552.6,397.9c4.5,0,8.1-3.6,8.1-8.1s-3.6-8.1-8.1-8.1s-8.1,3.6-8.1,8.1S548.1,397.9,552.6,397.9"/>
		<path class="st1" d="M552.6,425c4.5,0,8.1-3.6,8.1-8.1s-3.6-8.1-8.1-8.1s-8.1,3.6-8.1,8.1S548.1,425,552.6,425"/>
		<path class="st1" d="M552.6,452c4.5,0,8.1-3.6,8.1-8.1s-3.6-8.1-8.1-8.1s-8.1,3.6-8.1,8.1S548.1,452,552.6,452"/>
		<path class="st1" d="M552.6,479c4.5,0,8.1-3.6,8.1-8.1s-3.6-8.1-8.1-8.1s-8.1,3.6-8.1,8.1S548.1,479,552.6,479"/>
		<path class="st1" d="M552.6,506c4.5,0,8.1-3.6,8.1-8.1s-3.6-8.1-8.1-8.1s-8.1,3.6-8.1,8.1S548.1,506,552.6,506"/>
		<path class="st1" d="M552.6,533.1c4.5,0,8.1-3.6,8.1-8.1s-3.6-8.1-8.1-8.1s-8.1,3.6-8.1,8.1S548.1,533.1,552.6,533.1"/>
		<path class="st1" d="M552.6,560.1c4.5,0,8.1-3.6,8.1-8.1s-3.6-8.1-8.1-8.1s-8.1,3.6-8.1,8.1S548.1,560.1,552.6,560.1"/>
		<path class="st1" d="M552.6,587.2c4.5,0,8.1-3.6,8.1-8.1s-3.6-8.1-8.1-8.1s-8.1,3.6-8.1,8.1C544.5,583.5,548.1,587.2,552.6,587.2"
			/>
		<path class="st1" d="M552.6,614.2c4.5,0,8.1-3.6,8.1-8.1s-3.6-8.1-8.1-8.1s-8.1,3.6-8.1,8.1S548.1,614.2,552.6,614.2"/>
		<path class="st1" d="M552.6,641.2c4.5,0,8.1-3.6,8.1-8.1s-3.6-8.1-8.1-8.1s-8.1,3.6-8.1,8.1C544.5,637.6,548.1,641.2,552.6,641.2"
			/>
		<path class="st1" d="M552.6,668.3c4.5,0,8.1-3.6,8.1-8.1s-3.6-8.1-8.1-8.1s-8.1,3.6-8.1,8.1S548.1,668.3,552.6,668.3"/>
		<path class="st1" d="M552.6,695.3c4.5,0,8.1-3.6,8.1-8.1s-3.6-8.1-8.1-8.1s-8.1,3.6-8.1,8.1S548.1,695.3,552.6,695.3"/>
		<path class="st1" d="M552.6,722.3c4.5,0,8.1-3.6,8.1-8.1s-3.6-8.1-8.1-8.1s-8.1,3.6-8.1,8.1S548.1,722.3,552.6,722.3"/>
		<path class="st1" d="M552.6,749.4c4.5,0,8.1-3.6,8.1-8.1s-3.6-8.1-8.1-8.1s-8.1,3.6-8.1,8.1S548.1,749.4,552.6,749.4"/>
		<path class="st1" d="M552.6,776.4c4.5,0,8.1-3.6,8.1-8.1s-3.6-8.1-8.1-8.1s-8.1,3.6-8.1,8.1S548.1,776.4,552.6,776.4"/>
		<path class="st1" d="M552.6,803.4c4.5,0,8.1-3.6,8.1-8.1s-3.6-8.1-8.1-8.1s-8.1,3.6-8.1,8.1S548.1,803.4,552.6,803.4"/>
		<path class="st1" d="M552.6,830.5c4.5,0,8.1-3.6,8.1-8.1s-3.6-8.1-8.1-8.1s-8.1,3.6-8.1,8.1S548.1,830.5,552.6,830.5"/>
		<path class="st1" d="M552.6,857.5c4.5,0,8.1-3.6,8.1-8.1s-3.6-8.1-8.1-8.1s-8.1,3.6-8.1,8.1S548.1,857.5,552.6,857.5"/>
		<path class="st1" d="M552.6,884.5c4.5,0,8.1-3.6,8.1-8.1s-3.6-8.1-8.1-8.1s-8.1,3.6-8.1,8.1S548.1,884.5,552.6,884.5"/>
		<path class="st1" d="M552.6,911.6c4.5,0,8.1-3.6,8.1-8.1s-3.6-8.1-8.1-8.1s-8.1,3.6-8.1,8.1S548.1,911.6,552.6,911.6"/>
		<path class="st1" d="M552.6,938.6c4.5,0,8.1-3.6,8.1-8.1s-3.6-8.1-8.1-8.1s-8.1,3.6-8.1,8.1S548.1,938.6,552.6,938.6"/>
		<path class="st1" d="M552.6,965.6c4.5,0,8.1-3.6,8.1-8.1s-3.6-8.1-8.1-8.1s-8.1,3.6-8.1,8.1S548.1,965.6,552.6,965.6"/>
		<path class="st1" d="M552.6,992.7c4.5,0,8.1-3.6,8.1-8.1s-3.6-8.1-8.1-8.1s-8.1,3.6-8.1,8.1S548.1,992.7,552.6,992.7"/>
		<path class="st1" d="M552.6,1019.7c4.5,0,8.1-3.6,8.1-8.1s-3.6-8.1-8.1-8.1s-8.1,3.6-8.1,8.1
			C544.5,1016.1,548.1,1019.7,552.6,1019.7"/>
		<path class="st1" d="M579.6,316.8c4.5,0,8.1-3.6,8.1-8.1s-3.6-8.1-8.1-8.1s-8.1,3.6-8.1,8.1S575.2,316.8,579.6,316.8"/>
		<path class="st1" d="M579.6,343.9c4.5,0,8.1-3.6,8.1-8.1s-3.6-8.1-8.1-8.1s-8.1,3.6-8.1,8.1S575.2,343.9,579.6,343.9"/>
		<path class="st1" d="M579.6,370.9c4.5,0,8.1-3.6,8.1-8.1s-3.6-8.1-8.1-8.1s-8.1,3.6-8.1,8.1S575.2,370.9,579.6,370.9"/>
		<path class="st1" d="M579.6,397.9c4.5,0,8.1-3.6,8.1-8.1s-3.6-8.1-8.1-8.1s-8.1,3.6-8.1,8.1S575.2,397.9,579.6,397.9"/>
		<path class="st1" d="M579.6,425c4.5,0,8.1-3.6,8.1-8.1s-3.6-8.1-8.1-8.1s-8.1,3.6-8.1,8.1S575.2,425,579.6,425"/>
		<path class="st1" d="M579.6,452c4.5,0,8.1-3.6,8.1-8.1s-3.6-8.1-8.1-8.1s-8.1,3.6-8.1,8.1S575.2,452,579.6,452"/>
		<path class="st1" d="M579.6,479c4.5,0,8.1-3.6,8.1-8.1s-3.6-8.1-8.1-8.1s-8.1,3.6-8.1,8.1S575.2,479,579.6,479"/>
		<path class="st1" d="M579.6,506c4.5,0,8.1-3.6,8.1-8.1s-3.6-8.1-8.1-8.1s-8.1,3.6-8.1,8.1S575.2,506,579.6,506"/>
		<path class="st1" d="M579.6,533.1c4.5,0,8.1-3.6,8.1-8.1s-3.6-8.1-8.1-8.1s-8.1,3.6-8.1,8.1S575.2,533.1,579.6,533.1"/>
		<path class="st1" d="M579.6,560.1c4.5,0,8.1-3.6,8.1-8.1s-3.6-8.1-8.1-8.1s-8.1,3.6-8.1,8.1S575.2,560.1,579.6,560.1"/>
		<path class="st1" d="M579.6,587.2c4.5,0,8.1-3.6,8.1-8.1s-3.6-8.1-8.1-8.1s-8.1,3.6-8.1,8.1C571.5,583.5,575.2,587.2,579.6,587.2"
			/>
		<path class="st1" d="M579.6,614.2c4.5,0,8.1-3.6,8.1-8.1s-3.6-8.1-8.1-8.1s-8.1,3.6-8.1,8.1S575.2,614.2,579.6,614.2"/>
		<path class="st1" d="M579.6,641.2c4.5,0,8.1-3.6,8.1-8.1s-3.6-8.1-8.1-8.1s-8.1,3.6-8.1,8.1C571.5,637.6,575.2,641.2,579.6,641.2"
			/>
		<path class="st1" d="M579.6,668.3c4.5,0,8.1-3.6,8.1-8.1s-3.6-8.1-8.1-8.1s-8.1,3.6-8.1,8.1S575.2,668.3,579.6,668.3"/>
		<path class="st1" d="M579.6,695.3c4.5,0,8.1-3.6,8.1-8.1s-3.6-8.1-8.1-8.1s-8.1,3.6-8.1,8.1S575.2,695.3,579.6,695.3"/>
		<path class="st1" d="M579.6,722.3c4.5,0,8.1-3.6,8.1-8.1s-3.6-8.1-8.1-8.1s-8.1,3.6-8.1,8.1S575.2,722.3,579.6,722.3"/>
		<path class="st1" d="M579.6,749.4c4.5,0,8.1-3.6,8.1-8.1s-3.6-8.1-8.1-8.1s-8.1,3.6-8.1,8.1S575.2,749.4,579.6,749.4"/>
		<path class="st1" d="M579.6,776.4c4.5,0,8.1-3.6,8.1-8.1s-3.6-8.1-8.1-8.1s-8.1,3.6-8.1,8.1S575.2,776.4,579.6,776.4"/>
		<path class="st1" d="M579.6,803.4c4.5,0,8.1-3.6,8.1-8.1s-3.6-8.1-8.1-8.1s-8.1,3.6-8.1,8.1S575.2,803.4,579.6,803.4"/>
		<path class="st1" d="M579.6,830.5c4.5,0,8.1-3.6,8.1-8.1s-3.6-8.1-8.1-8.1s-8.1,3.6-8.1,8.1S575.2,830.5,579.6,830.5"/>
		<path class="st1" d="M579.6,857.5c4.5,0,8.1-3.6,8.1-8.1s-3.6-8.1-8.1-8.1s-8.1,3.6-8.1,8.1S575.2,857.5,579.6,857.5"/>
		<path class="st1" d="M579.6,884.5c4.5,0,8.1-3.6,8.1-8.1s-3.6-8.1-8.1-8.1s-8.1,3.6-8.1,8.1S575.2,884.5,579.6,884.5"/>
		<path class="st1" d="M579.6,911.6c4.5,0,8.1-3.6,8.1-8.1s-3.6-8.1-8.1-8.1s-8.1,3.6-8.1,8.1S575.2,911.6,579.6,911.6"/>
		<path class="st1" d="M579.6,938.6c4.5,0,8.1-3.6,8.1-8.1s-3.6-8.1-8.1-8.1s-8.1,3.6-8.1,8.1S575.2,938.6,579.6,938.6"/>
		<path class="st1" d="M579.6,965.6c4.5,0,8.1-3.6,8.1-8.1s-3.6-8.1-8.1-8.1s-8.1,3.6-8.1,8.1S575.2,965.6,579.6,965.6"/>
		<path class="st1" d="M606.7,316.8c4.5,0,8.1-3.6,8.1-8.1s-3.6-8.1-8.1-8.1s-8.1,3.6-8.1,8.1S602.2,316.8,606.7,316.8"/>
		<path class="st1" d="M606.7,343.9c4.5,0,8.1-3.6,8.1-8.1s-3.6-8.1-8.1-8.1s-8.1,3.6-8.1,8.1S602.2,343.9,606.7,343.9"/>
		<path class="st1" d="M606.7,370.9c4.5,0,8.1-3.6,8.1-8.1s-3.6-8.1-8.1-8.1s-8.1,3.6-8.1,8.1S602.2,370.9,606.7,370.9"/>
		<path class="st1" d="M606.7,397.9c4.5,0,8.1-3.6,8.1-8.1s-3.6-8.1-8.1-8.1s-8.1,3.6-8.1,8.1S602.2,397.9,606.7,397.9"/>
		<path class="st1" d="M606.7,425c4.5,0,8.1-3.6,8.1-8.1s-3.6-8.1-8.1-8.1s-8.1,3.6-8.1,8.1S602.2,425,606.7,425"/>
		<path class="st1" d="M606.7,452c4.5,0,8.1-3.6,8.1-8.1s-3.6-8.1-8.1-8.1s-8.1,3.6-8.1,8.1S602.2,452,606.7,452"/>
		<path class="st1" d="M606.7,479c4.5,0,8.1-3.6,8.1-8.1s-3.6-8.1-8.1-8.1s-8.1,3.6-8.1,8.1C598.6,475.4,602.2,479,606.7,479"/>
		<path class="st1" d="M606.7,506c4.5,0,8.1-3.6,8.1-8.1s-3.6-8.1-8.1-8.1s-8.1,3.6-8.1,8.1C598.6,502.4,602.2,506,606.7,506"/>
		<path class="st1" d="M606.7,533.1c4.5,0,8.1-3.6,8.1-8.1s-3.6-8.1-8.1-8.1s-8.1,3.6-8.1,8.1S602.2,533.1,606.7,533.1"/>
		<path class="st1" d="M606.7,560.1c4.5,0,8.1-3.6,8.1-8.1s-3.6-8.1-8.1-8.1s-8.1,3.6-8.1,8.1S602.2,560.1,606.7,560.1"/>
		<path class="st1" d="M606.7,587.2c4.5,0,8.1-3.6,8.1-8.1s-3.6-8.1-8.1-8.1s-8.1,3.6-8.1,8.1C598.6,583.5,602.2,587.2,606.7,587.2"
			/>
		<path class="st1" d="M606.7,614.2c4.5,0,8.1-3.6,8.1-8.1s-3.6-8.1-8.1-8.1s-8.1,3.6-8.1,8.1S602.2,614.2,606.7,614.2"/>
		<path class="st1" d="M606.7,641.2c4.5,0,8.1-3.6,8.1-8.1s-3.6-8.1-8.1-8.1s-8.1,3.6-8.1,8.1C598.6,637.6,602.2,641.2,606.7,641.2"
			/>
		<path class="st1" d="M606.7,668.3c4.5,0,8.1-3.6,8.1-8.1s-3.6-8.1-8.1-8.1s-8.1,3.6-8.1,8.1S602.2,668.3,606.7,668.3"/>
		<path class="st1" d="M606.7,695.3c4.5,0,8.1-3.6,8.1-8.1s-3.6-8.1-8.1-8.1s-8.1,3.6-8.1,8.1S602.2,695.3,606.7,695.3"/>
		<path class="st1" d="M606.7,722.3c4.5,0,8.1-3.6,8.1-8.1s-3.6-8.1-8.1-8.1s-8.1,3.6-8.1,8.1S602.2,722.3,606.7,722.3"/>
		<path class="st1" d="M606.7,749.4c4.5,0,8.1-3.6,8.1-8.1s-3.6-8.1-8.1-8.1s-8.1,3.6-8.1,8.1S602.2,749.4,606.7,749.4"/>
		<path class="st1" d="M606.7,776.4c4.5,0,8.1-3.6,8.1-8.1s-3.6-8.1-8.1-8.1s-8.1,3.6-8.1,8.1S602.2,776.4,606.7,776.4"/>
		<path class="st1" d="M606.7,803.4c4.5,0,8.1-3.6,8.1-8.1s-3.6-8.1-8.1-8.1s-8.1,3.6-8.1,8.1S602.2,803.4,606.7,803.4"/>
		<path class="st1" d="M606.7,830.5c4.5,0,8.1-3.6,8.1-8.1s-3.6-8.1-8.1-8.1s-8.1,3.6-8.1,8.1S602.2,830.5,606.7,830.5"/>
		<path class="st1" d="M606.7,857.5c4.5,0,8.1-3.6,8.1-8.1s-3.6-8.1-8.1-8.1s-8.1,3.6-8.1,8.1S602.2,857.5,606.7,857.5"/>
		<path class="st1" d="M606.7,884.5c4.5,0,8.1-3.6,8.1-8.1s-3.6-8.1-8.1-8.1s-8.1,3.6-8.1,8.1C598.6,880.9,602.2,884.5,606.7,884.5"
			/>
		<path class="st1" d="M606.7,911.6c4.5,0,8.1-3.6,8.1-8.1s-3.6-8.1-8.1-8.1s-8.1,3.6-8.1,8.1S602.2,911.6,606.7,911.6"/>
		<path class="st1" d="M606.7,938.6c4.5,0,8.1-3.6,8.1-8.1s-3.6-8.1-8.1-8.1s-8.1,3.6-8.1,8.1S602.2,938.6,606.7,938.6"/>
		<path class="st1" d="M606.7,1062.6c4.5,0,8.1-3.6,8.1-8.1s-3.6-8.1-8.1-8.1s-8.1,3.6-8.1,8.1S602.2,1062.6,606.7,1062.6"/>
		<path class="st1" d="M633.7,316.8c4.5,0,8.1-3.6,8.1-8.1s-3.6-8.1-8.1-8.1s-8.1,3.6-8.1,8.1S629.2,316.8,633.7,316.8"/>
		<path class="st1" d="M633.7,343.9c4.5,0,8.1-3.6,8.1-8.1s-3.6-8.1-8.1-8.1s-8.1,3.6-8.1,8.1S629.2,343.9,633.7,343.9"/>
		<path class="st1" d="M633.7,370.9c4.5,0,8.1-3.6,8.1-8.1s-3.6-8.1-8.1-8.1s-8.1,3.6-8.1,8.1S629.2,370.9,633.7,370.9"/>
		<path class="st1" d="M633.7,397.9c4.5,0,8.1-3.6,8.1-8.1s-3.6-8.1-8.1-8.1s-8.1,3.6-8.1,8.1S629.2,397.9,633.7,397.9"/>
		<path class="st1" d="M633.7,425c4.5,0,8.1-3.6,8.1-8.1s-3.6-8.1-8.1-8.1s-8.1,3.6-8.1,8.1S629.2,425,633.7,425"/>
		<path class="st1" d="M633.7,452c4.5,0,8.1-3.6,8.1-8.1s-3.6-8.1-8.1-8.1s-8.1,3.6-8.1,8.1S629.2,452,633.7,452"/>
		<path class="st1" d="M633.7,479c4.5,0,8.1-3.6,8.1-8.1s-3.6-8.1-8.1-8.1s-8.1,3.6-8.1,8.1C625.6,475.4,629.2,479,633.7,479"/>
		<path class="st1" d="M633.7,506c4.5,0,8.1-3.6,8.1-8.1s-3.6-8.1-8.1-8.1s-8.1,3.6-8.1,8.1C625.6,502.4,629.2,506,633.7,506"/>
		<path class="st1" d="M633.7,533.1c4.5,0,8.1-3.6,8.1-8.1s-3.6-8.1-8.1-8.1s-8.1,3.6-8.1,8.1S629.2,533.1,633.7,533.1"/>
		<path class="st1" d="M633.7,560.1c4.5,0,8.1-3.6,8.1-8.1s-3.6-8.1-8.1-8.1s-8.1,3.6-8.1,8.1S629.2,560.1,633.7,560.1"/>
		<path class="st1" d="M633.7,587.2c4.5,0,8.1-3.6,8.1-8.1s-3.6-8.1-8.1-8.1s-8.1,3.6-8.1,8.1C625.6,583.5,629.2,587.2,633.7,587.2"
			/>
		<path class="st1" d="M633.7,614.2c4.5,0,8.1-3.6,8.1-8.1s-3.6-8.1-8.1-8.1s-8.1,3.6-8.1,8.1S629.2,614.2,633.7,614.2"/>
		<path class="st1" d="M633.7,641.2c4.5,0,8.1-3.6,8.1-8.1s-3.6-8.1-8.1-8.1s-8.1,3.6-8.1,8.1C625.6,637.6,629.2,641.2,633.7,641.2"
			/>
		<path class="st1" d="M633.7,668.3c4.5,0,8.1-3.6,8.1-8.1s-3.6-8.1-8.1-8.1s-8.1,3.6-8.1,8.1S629.2,668.3,633.7,668.3"/>
		<path class="st1" d="M633.7,695.3c4.5,0,8.1-3.6,8.1-8.1s-3.6-8.1-8.1-8.1s-8.1,3.6-8.1,8.1S629.2,695.3,633.7,695.3"/>
		<path class="st1" d="M633.7,722.3c4.5,0,8.1-3.6,8.1-8.1s-3.6-8.1-8.1-8.1s-8.1,3.6-8.1,8.1S629.2,722.3,633.7,722.3"/>
		<path class="st1" d="M633.7,749.4c4.5,0,8.1-3.6,8.1-8.1s-3.6-8.1-8.1-8.1s-8.1,3.6-8.1,8.1S629.2,749.4,633.7,749.4"/>
		<path class="st1" d="M633.7,776.4c4.5,0,8.1-3.6,8.1-8.1s-3.6-8.1-8.1-8.1s-8.1,3.6-8.1,8.1S629.2,776.4,633.7,776.4"/>
		<path class="st1" d="M633.7,803.4c4.5,0,8.1-3.6,8.1-8.1s-3.6-8.1-8.1-8.1s-8.1,3.6-8.1,8.1S629.2,803.4,633.7,803.4"/>
		<path class="st1" d="M633.7,830.5c4.5,0,8.1-3.6,8.1-8.1s-3.6-8.1-8.1-8.1s-8.1,3.6-8.1,8.1S629.2,830.5,633.7,830.5"/>
		<path class="st1" d="M633.7,857.5c4.5,0,8.1-3.6,8.1-8.1s-3.6-8.1-8.1-8.1s-8.1,3.6-8.1,8.1S629.2,857.5,633.7,857.5"/>
		<path class="st1" d="M633.7,884.5c4.5,0,8.1-3.6,8.1-8.1s-3.6-8.1-8.1-8.1s-8.1,3.6-8.1,8.1C625.6,880.9,629.2,884.5,633.7,884.5"
			/>
		<path class="st1" d="M633.7,911.6c4.5,0,8.1-3.6,8.1-8.1s-3.6-8.1-8.1-8.1s-8.1,3.6-8.1,8.1S629.2,911.6,633.7,911.6"/>
		<path class="st1" d="M633.7,938.6c4.5,0,8.1-3.6,8.1-8.1s-3.6-8.1-8.1-8.1s-8.1,3.6-8.1,8.1S629.2,938.6,633.7,938.6"/>
		<path class="st1" d="M633.7,1062.6c4.5,0,8.1-3.6,8.1-8.1s-3.6-8.1-8.1-8.1s-8.1,3.6-8.1,8.1S629.2,1062.6,633.7,1062.6"/>
		<path class="st1" d="M660.7,343.9c4.5,0,8.1-3.6,8.1-8.1s-3.6-8.1-8.1-8.1s-8.1,3.6-8.1,8.1S656.2,343.9,660.7,343.9"/>
		<path class="st1" d="M660.7,370.9c4.5,0,8.1-3.6,8.1-8.1s-3.6-8.1-8.1-8.1s-8.1,3.6-8.1,8.1S656.2,370.9,660.7,370.9"/>
		<path class="st1" d="M660.7,397.9c4.5,0,8.1-3.6,8.1-8.1s-3.6-8.1-8.1-8.1s-8.1,3.6-8.1,8.1S656.2,397.9,660.7,397.9"/>
		<path class="st1" d="M660.7,425c4.5,0,8.1-3.6,8.1-8.1s-3.6-8.1-8.1-8.1s-8.1,3.6-8.1,8.1S656.2,425,660.7,425"/>
		<path class="st1" d="M660.7,452c4.5,0,8.1-3.6,8.1-8.1s-3.6-8.1-8.1-8.1s-8.1,3.6-8.1,8.1S656.2,452,660.7,452"/>
		<path class="st1" d="M660.7,479c4.5,0,8.1-3.6,8.1-8.1s-3.6-8.1-8.1-8.1s-8.1,3.6-8.1,8.1C652.6,475.4,656.2,479,660.7,479"/>
		<path class="st1" d="M660.7,506c4.5,0,8.1-3.6,8.1-8.1s-3.6-8.1-8.1-8.1s-8.1,3.6-8.1,8.1C652.6,502.4,656.2,506,660.7,506"/>
		<path class="st1" d="M660.7,533.1c4.5,0,8.1-3.6,8.1-8.1s-3.6-8.1-8.1-8.1s-8.1,3.6-8.1,8.1S656.2,533.1,660.7,533.1"/>
		<path class="st1" d="M660.7,560.1c4.5,0,8.1-3.6,8.1-8.1s-3.6-8.1-8.1-8.1s-8.1,3.6-8.1,8.1S656.2,560.1,660.7,560.1"/>
		<path class="st1" d="M660.7,587.2c4.5,0,8.1-3.6,8.1-8.1s-3.6-8.1-8.1-8.1s-8.1,3.6-8.1,8.1C652.6,583.5,656.2,587.2,660.7,587.2"
			/>
		<path class="st1" d="M660.7,614.2c4.5,0,8.1-3.6,8.1-8.1s-3.6-8.1-8.1-8.1s-8.1,3.6-8.1,8.1S656.2,614.2,660.7,614.2"/>
		<path class="st1" d="M660.7,641.2c4.5,0,8.1-3.6,8.1-8.1s-3.6-8.1-8.1-8.1s-8.1,3.6-8.1,8.1C652.6,637.6,656.2,641.2,660.7,641.2"
			/>
		<path class="st1" d="M660.7,668.3c4.5,0,8.1-3.6,8.1-8.1s-3.6-8.1-8.1-8.1s-8.1,3.6-8.1,8.1S656.2,668.3,660.7,668.3"/>
		<path class="st1" d="M660.7,695.3c4.5,0,8.1-3.6,8.1-8.1s-3.6-8.1-8.1-8.1s-8.1,3.6-8.1,8.1S656.2,695.3,660.7,695.3"/>
		<path class="st1" d="M660.7,722.3c4.5,0,8.1-3.6,8.1-8.1s-3.6-8.1-8.1-8.1s-8.1,3.6-8.1,8.1S656.2,722.3,660.7,722.3"/>
		<path class="st1" d="M660.7,749.4c4.5,0,8.1-3.6,8.1-8.1s-3.6-8.1-8.1-8.1s-8.1,3.6-8.1,8.1S656.2,749.4,660.7,749.4"/>
		<path class="st1" d="M660.7,776.4c4.5,0,8.1-3.6,8.1-8.1s-3.6-8.1-8.1-8.1s-8.1,3.6-8.1,8.1S656.2,776.4,660.7,776.4"/>
		<path class="st1" d="M660.7,803.4c4.5,0,8.1-3.6,8.1-8.1s-3.6-8.1-8.1-8.1s-8.1,3.6-8.1,8.1S656.2,803.4,660.7,803.4"/>
		<path class="st1" d="M660.7,830.5c4.5,0,8.1-3.6,8.1-8.1s-3.6-8.1-8.1-8.1s-8.1,3.6-8.1,8.1S656.2,830.5,660.7,830.5"/>
		<path class="st1" d="M660.7,857.5c4.5,0,8.1-3.6,8.1-8.1s-3.6-8.1-8.1-8.1s-8.1,3.6-8.1,8.1S656.2,857.5,660.7,857.5"/>
		<path class="st1" d="M660.7,884.5c4.5,0,8.1-3.6,8.1-8.1s-3.6-8.1-8.1-8.1s-8.1,3.6-8.1,8.1C652.6,880.9,656.2,884.5,660.7,884.5"
			/>
		<path class="st1" d="M660.7,911.6c4.5,0,8.1-3.6,8.1-8.1s-3.6-8.1-8.1-8.1s-8.1,3.6-8.1,8.1S656.2,911.6,660.7,911.6"/>
		<path class="st1" d="M687.8,343.9c4.5,0,8.1-3.6,8.1-8.1s-3.6-8.1-8.1-8.1s-8.1,3.6-8.1,8.1C679.7,340.2,683.3,343.9,687.8,343.9"
			/>
		<path class="st1" d="M687.8,370.9c4.5,0,8.1-3.6,8.1-8.1s-3.6-8.1-8.1-8.1s-8.1,3.6-8.1,8.1C679.7,367.2,683.3,370.9,687.8,370.9"
			/>
		<path class="st1" d="M687.8,397.9c4.5,0,8.1-3.6,8.1-8.1s-3.6-8.1-8.1-8.1s-8.1,3.6-8.1,8.1S683.3,397.9,687.8,397.9"/>
		<path class="st1" d="M687.8,425c4.5,0,8.1-3.6,8.1-8.1s-3.6-8.1-8.1-8.1s-8.1,3.6-8.1,8.1C679.7,421.3,683.3,425,687.8,425"/>
		<path class="st1" d="M687.8,452c4.5,0,8.1-3.6,8.1-8.1s-3.6-8.1-8.1-8.1s-8.1,3.6-8.1,8.1S683.3,452,687.8,452"/>
		<path class="st1" d="M687.8,479c4.5,0,8.1-3.6,8.1-8.1s-3.6-8.1-8.1-8.1s-8.1,3.6-8.1,8.1S683.3,479,687.8,479"/>
		<path class="st1" d="M687.8,506c4.5,0,8.1-3.6,8.1-8.1s-3.6-8.1-8.1-8.1s-8.1,3.6-8.1,8.1S683.3,506,687.8,506"/>
		<path class="st1" d="M687.8,533.1c4.5,0,8.1-3.6,8.1-8.1s-3.6-8.1-8.1-8.1s-8.1,3.6-8.1,8.1S683.3,533.1,687.8,533.1"/>
		<path class="st1" d="M687.8,560.1c4.5,0,8.1-3.6,8.1-8.1s-3.6-8.1-8.1-8.1s-8.1,3.6-8.1,8.1S683.3,560.1,687.8,560.1"/>
		<path class="st1" d="M687.8,587.2c4.5,0,8.1-3.6,8.1-8.1s-3.6-8.1-8.1-8.1s-8.1,3.6-8.1,8.1C679.7,583.5,683.3,587.2,687.8,587.2"
			/>
		<path class="st1" d="M687.8,614.2c4.5,0,8.1-3.6,8.1-8.1s-3.6-8.1-8.1-8.1s-8.1,3.6-8.1,8.1C679.7,610.6,683.3,614.2,687.8,614.2"
			/>
		<path class="st1" d="M687.8,641.2c4.5,0,8.1-3.6,8.1-8.1s-3.6-8.1-8.1-8.1s-8.1,3.6-8.1,8.1C679.7,637.6,683.3,641.2,687.8,641.2"
			/>
		<path class="st1" d="M687.8,668.3c4.5,0,8.1-3.6,8.1-8.1s-3.6-8.1-8.1-8.1s-8.1,3.6-8.1,8.1C679.7,664.6,683.3,668.3,687.8,668.3"
			/>
		<path class="st1" d="M687.8,695.3c4.5,0,8.1-3.6,8.1-8.1s-3.6-8.1-8.1-8.1s-8.1,3.6-8.1,8.1S683.3,695.3,687.8,695.3"/>
		<path class="st1" d="M687.8,722.3c4.5,0,8.1-3.6,8.1-8.1s-3.6-8.1-8.1-8.1s-8.1,3.6-8.1,8.1S683.3,722.3,687.8,722.3"/>
		<path class="st1" d="M687.8,749.4c4.5,0,8.1-3.6,8.1-8.1s-3.6-8.1-8.1-8.1s-8.1,3.6-8.1,8.1C679.7,745.7,683.3,749.4,687.8,749.4"
			/>
		<path class="st1" d="M687.8,776.4c4.5,0,8.1-3.6,8.1-8.1s-3.6-8.1-8.1-8.1s-8.1,3.6-8.1,8.1C679.7,772.8,683.3,776.4,687.8,776.4"
			/>
		<path class="st1" d="M687.8,803.4c4.5,0,8.1-3.6,8.1-8.1s-3.6-8.1-8.1-8.1s-8.1,3.6-8.1,8.1C679.7,799.8,683.3,803.4,687.8,803.4"
			/>
		<path class="st1" d="M687.8,830.5c4.5,0,8.1-3.6,8.1-8.1s-3.6-8.1-8.1-8.1s-8.1,3.6-8.1,8.1C679.7,826.8,683.3,830.5,687.8,830.5"
			/>
		<path class="st1" d="M687.8,857.5c4.5,0,8.1-3.6,8.1-8.1s-3.6-8.1-8.1-8.1s-8.1,3.6-8.1,8.1S683.3,857.5,687.8,857.5"/>
		<path class="st1" d="M687.8,884.5c4.5,0,8.1-3.6,8.1-8.1s-3.6-8.1-8.1-8.1s-8.1,3.6-8.1,8.1S683.3,884.5,687.8,884.5"/>
		<path class="st1" d="M714.8,370.9c4.5,0,8.1-3.6,8.1-8.1s-3.6-8.1-8.1-8.1s-8.1,3.6-8.1,8.1S710.3,370.9,714.8,370.9"/>
		<path class="st1" d="M714.8,397.9c4.5,0,8.1-3.6,8.1-8.1s-3.6-8.1-8.1-8.1s-8.1,3.6-8.1,8.1S710.3,397.9,714.8,397.9"/>
		<path class="st1" d="M714.8,425c4.5,0,8.1-3.6,8.1-8.1s-3.6-8.1-8.1-8.1s-8.1,3.6-8.1,8.1S710.3,425,714.8,425"/>
		<path class="st1" d="M714.8,452c4.5,0,8.1-3.6,8.1-8.1s-3.6-8.1-8.1-8.1s-8.1,3.6-8.1,8.1S710.3,452,714.8,452"/>
		<path class="st1" d="M714.8,479c4.5,0,8.1-3.6,8.1-8.1s-3.6-8.1-8.1-8.1s-8.1,3.6-8.1,8.1S710.3,479,714.8,479"/>
		<path class="st1" d="M714.8,506c4.5,0,8.1-3.6,8.1-8.1s-3.6-8.1-8.1-8.1s-8.1,3.6-8.1,8.1S710.3,506,714.8,506"/>
		<path class="st1" d="M714.8,533.1c4.5,0,8.1-3.6,8.1-8.1s-3.6-8.1-8.1-8.1s-8.1,3.6-8.1,8.1S710.3,533.1,714.8,533.1"/>
		<path class="st1" d="M714.8,560.1c4.5,0,8.1-3.6,8.1-8.1s-3.6-8.1-8.1-8.1s-8.1,3.6-8.1,8.1S710.3,560.1,714.8,560.1"/>
		<path class="st1" d="M714.8,587.2c4.5,0,8.1-3.6,8.1-8.1s-3.6-8.1-8.1-8.1s-8.1,3.6-8.1,8.1C706.7,583.5,710.3,587.2,714.8,587.2"
			/>
		<path class="st1" d="M714.8,614.2c4.5,0,8.1-3.6,8.1-8.1s-3.6-8.1-8.1-8.1s-8.1,3.6-8.1,8.1S710.3,614.2,714.8,614.2"/>
		<path class="st1" d="M714.8,641.2c4.5,0,8.1-3.6,8.1-8.1s-3.6-8.1-8.1-8.1s-8.1,3.6-8.1,8.1C706.7,637.6,710.3,641.2,714.8,641.2"
			/>
		<path class="st1" d="M714.8,668.3c4.5,0,8.1-3.6,8.1-8.1s-3.6-8.1-8.1-8.1s-8.1,3.6-8.1,8.1S710.3,668.3,714.8,668.3"/>
		<path class="st1" d="M714.8,695.3c4.5,0,8.1-3.6,8.1-8.1s-3.6-8.1-8.1-8.1s-8.1,3.6-8.1,8.1S710.3,695.3,714.8,695.3"/>
		<path class="st1" d="M714.8,722.3c4.5,0,8.1-3.6,8.1-8.1s-3.6-8.1-8.1-8.1s-8.1,3.6-8.1,8.1S710.3,722.3,714.8,722.3"/>
		<path class="st1" d="M714.8,749.4c4.5,0,8.1-3.6,8.1-8.1s-3.6-8.1-8.1-8.1s-8.1,3.6-8.1,8.1S710.3,749.4,714.8,749.4"/>
		<path class="st1" d="M714.8,776.4c4.5,0,8.1-3.6,8.1-8.1s-3.6-8.1-8.1-8.1s-8.1,3.6-8.1,8.1S710.3,776.4,714.8,776.4"/>
		<path class="st1" d="M714.8,803.4c4.5,0,8.1-3.6,8.1-8.1s-3.6-8.1-8.1-8.1s-8.1,3.6-8.1,8.1S710.3,803.4,714.8,803.4"/>
		<path class="st1" d="M714.8,830.5c4.5,0,8.1-3.6,8.1-8.1s-3.6-8.1-8.1-8.1s-8.1,3.6-8.1,8.1S710.3,830.5,714.8,830.5"/>
		<path class="st1" d="M714.8,857.5c4.5,0,8.1-3.6,8.1-8.1s-3.6-8.1-8.1-8.1s-8.1,3.6-8.1,8.1S710.3,857.5,714.8,857.5"/>
		<path class="st1" d="M741.8,370.9c4.5,0,8.1-3.6,8.1-8.1s-3.6-8.1-8.1-8.1s-8.1,3.6-8.1,8.1C733.7,367.2,737.4,370.9,741.8,370.9"
			/>
		<path class="st1" d="M741.8,397.9c4.5,0,8.1-3.6,8.1-8.1s-3.6-8.1-8.1-8.1s-8.1,3.6-8.1,8.1S737.4,397.9,741.8,397.9"/>
		<path class="st1" d="M741.8,425c4.5,0,8.1-3.6,8.1-8.1s-3.6-8.1-8.1-8.1s-8.1,3.6-8.1,8.1C733.7,421.3,737.4,425,741.8,425"/>
		<path class="st1" d="M741.8,452c4.5,0,8.1-3.6,8.1-8.1s-3.6-8.1-8.1-8.1s-8.1,3.6-8.1,8.1S737.4,452,741.8,452"/>
		<path class="st1" d="M741.8,479c4.5,0,8.1-3.6,8.1-8.1s-3.6-8.1-8.1-8.1s-8.1,3.6-8.1,8.1S737.4,479,741.8,479"/>
		<path class="st1" d="M741.8,506c4.5,0,8.1-3.6,8.1-8.1s-3.6-8.1-8.1-8.1s-8.1,3.6-8.1,8.1S737.4,506,741.8,506"/>
		<path class="st1" d="M741.8,533.1c4.5,0,8.1-3.6,8.1-8.1s-3.6-8.1-8.1-8.1s-8.1,3.6-8.1,8.1S737.4,533.1,741.8,533.1"/>
		<path class="st1" d="M741.8,560.1c4.5,0,8.1-3.6,8.1-8.1s-3.6-8.1-8.1-8.1s-8.1,3.6-8.1,8.1S737.4,560.1,741.8,560.1"/>
		<path class="st1" d="M741.8,587.2c4.5,0,8.1-3.6,8.1-8.1s-3.6-8.1-8.1-8.1s-8.1,3.6-8.1,8.1C733.7,583.5,737.4,587.2,741.8,587.2"
			/>
		<path class="st1" d="M741.8,614.2c4.5,0,8.1-3.6,8.1-8.1s-3.6-8.1-8.1-8.1s-8.1,3.6-8.1,8.1C733.7,610.6,737.4,614.2,741.8,614.2"
			/>
		<path class="st1" d="M741.8,641.2c4.5,0,8.1-3.6,8.1-8.1s-3.6-8.1-8.1-8.1s-8.1,3.6-8.1,8.1C733.7,637.6,737.4,641.2,741.8,641.2"
			/>
		<path class="st1" d="M741.8,668.3c4.5,0,8.1-3.6,8.1-8.1s-3.6-8.1-8.1-8.1s-8.1,3.6-8.1,8.1C733.7,664.6,737.4,668.3,741.8,668.3"
			/>
		<path class="st1" d="M741.8,695.3c4.5,0,8.1-3.6,8.1-8.1s-3.6-8.1-8.1-8.1s-8.1,3.6-8.1,8.1S737.4,695.3,741.8,695.3"/>
		<path class="st1" d="M741.8,722.3c4.5,0,8.1-3.6,8.1-8.1s-3.6-8.1-8.1-8.1s-8.1,3.6-8.1,8.1S737.4,722.3,741.8,722.3"/>
		<path class="st1" d="M741.8,749.4c4.5,0,8.1-3.6,8.1-8.1s-3.6-8.1-8.1-8.1s-8.1,3.6-8.1,8.1C733.7,745.7,737.4,749.4,741.8,749.4"
			/>
		<path class="st1" d="M741.8,776.4c4.5,0,8.1-3.6,8.1-8.1s-3.6-8.1-8.1-8.1s-8.1,3.6-8.1,8.1C733.7,772.8,737.4,776.4,741.8,776.4"
			/>
		<path class="st1" d="M741.8,803.4c4.5,0,8.1-3.6,8.1-8.1s-3.6-8.1-8.1-8.1s-8.1,3.6-8.1,8.1C733.7,799.8,737.4,803.4,741.8,803.4"
			/>
		<path class="st1" d="M741.8,830.5c4.5,0,8.1-3.6,8.1-8.1s-3.6-8.1-8.1-8.1s-8.1,3.6-8.1,8.1C733.7,826.8,737.4,830.5,741.8,830.5"
			/>
		<path class="st1" d="M768.9,397.9c4.5,0,8.1-3.6,8.1-8.1s-3.6-8.1-8.1-8.1s-8.1,3.6-8.1,8.1S764.4,397.9,768.9,397.9"/>
		<path class="st1" d="M768.9,425c4.5,0,8.1-3.6,8.1-8.1s-3.6-8.1-8.1-8.1s-8.1,3.6-8.1,8.1S764.4,425,768.9,425"/>
		<path class="st1" d="M768.9,452c4.5,0,8.1-3.6,8.1-8.1s-3.6-8.1-8.1-8.1s-8.1,3.6-8.1,8.1S764.4,452,768.9,452"/>
		<path class="st1" d="M768.9,479c4.5,0,8.1-3.6,8.1-8.1s-3.6-8.1-8.1-8.1s-8.1,3.6-8.1,8.1C760.8,475.4,764.4,479,768.9,479"/>
		<path class="st1" d="M768.9,506c4.5,0,8.1-3.6,8.1-8.1s-3.6-8.1-8.1-8.1s-8.1,3.6-8.1,8.1C760.8,502.4,764.4,506,768.9,506"/>
		<path class="st1" d="M768.9,533.1c4.5,0,8.1-3.6,8.1-8.1s-3.6-8.1-8.1-8.1s-8.1,3.6-8.1,8.1S764.4,533.1,768.9,533.1"/>
		<path class="st1" d="M768.9,560.1c4.5,0,8.1-3.6,8.1-8.1s-3.6-8.1-8.1-8.1s-8.1,3.6-8.1,8.1S764.4,560.1,768.9,560.1"/>
		<path class="st1" d="M768.9,587.2c4.5,0,8.1-3.6,8.1-8.1s-3.6-8.1-8.1-8.1s-8.1,3.6-8.1,8.1C760.8,583.5,764.4,587.2,768.9,587.2"
			/>
		<path class="st1" d="M768.9,614.2c4.5,0,8.1-3.6,8.1-8.1s-3.6-8.1-8.1-8.1s-8.1,3.6-8.1,8.1S764.4,614.2,768.9,614.2"/>
		<path class="st1" d="M768.9,641.2c4.5,0,8.1-3.6,8.1-8.1s-3.6-8.1-8.1-8.1s-8.1,3.6-8.1,8.1C760.8,637.6,764.4,641.2,768.9,641.2"
			/>
		<path class="st1" d="M768.9,668.3c4.5,0,8.1-3.6,8.1-8.1s-3.6-8.1-8.1-8.1s-8.1,3.6-8.1,8.1S764.4,668.3,768.9,668.3"/>
		<path class="st1" d="M768.9,695.3c4.5,0,8.1-3.6,8.1-8.1s-3.6-8.1-8.1-8.1s-8.1,3.6-8.1,8.1S764.4,695.3,768.9,695.3"/>
		<path class="st1" d="M768.9,722.3c4.5,0,8.1-3.6,8.1-8.1s-3.6-8.1-8.1-8.1s-8.1,3.6-8.1,8.1S764.4,722.3,768.9,722.3"/>
		<path class="st1" d="M768.9,749.4c4.5,0,8.1-3.6,8.1-8.1s-3.6-8.1-8.1-8.1s-8.1,3.6-8.1,8.1S764.4,749.4,768.9,749.4"/>
		<path class="st1" d="M768.9,776.4c4.5,0,8.1-3.6,8.1-8.1s-3.6-8.1-8.1-8.1s-8.1,3.6-8.1,8.1S764.4,776.4,768.9,776.4"/>
		<path class="st1" d="M768.9,803.4c4.5,0,8.1-3.6,8.1-8.1s-3.6-8.1-8.1-8.1s-8.1,3.6-8.1,8.1S764.4,803.4,768.9,803.4"/>
		<path class="st1" d="M795.9,452c4.5,0,8.1-3.6,8.1-8.1s-3.6-8.1-8.1-8.1s-8.1,3.6-8.1,8.1S791.4,452,795.9,452"/>
		<path class="st1" d="M795.9,479c4.5,0,8.1-3.6,8.1-8.1s-3.6-8.1-8.1-8.1s-8.1,3.6-8.1,8.1C787.8,475.4,791.4,479,795.9,479"/>
		<path class="st1" d="M795.9,506c4.5,0,8.1-3.6,8.1-8.1s-3.6-8.1-8.1-8.1s-8.1,3.6-8.1,8.1C787.8,502.4,791.4,506,795.9,506"/>
		<path class="st1" d="M795.9,533.1c4.5,0,8.1-3.6,8.1-8.1s-3.6-8.1-8.1-8.1s-8.1,3.6-8.1,8.1S791.4,533.1,795.9,533.1"/>
		<path class="st1" d="M795.9,560.1c4.5,0,8.1-3.6,8.1-8.1s-3.6-8.1-8.1-8.1s-8.1,3.6-8.1,8.1S791.4,560.1,795.9,560.1"/>
		<path class="st1" d="M795.9,587.2c4.5,0,8.1-3.6,8.1-8.1s-3.6-8.1-8.1-8.1s-8.1,3.6-8.1,8.1C787.8,583.5,791.4,587.2,795.9,587.2"
			/>
		<path class="st1" d="M795.9,614.2c4.5,0,8.1-3.6,8.1-8.1s-3.6-8.1-8.1-8.1s-8.1,3.6-8.1,8.1S791.4,614.2,795.9,614.2"/>
		<path class="st1" d="M795.9,641.2c4.5,0,8.1-3.6,8.1-8.1s-3.6-8.1-8.1-8.1s-8.1,3.6-8.1,8.1C787.8,637.6,791.4,641.2,795.9,641.2"
			/>
		<path class="st1" d="M795.9,668.3c4.5,0,8.1-3.6,8.1-8.1s-3.6-8.1-8.1-8.1s-8.1,3.6-8.1,8.1S791.4,668.3,795.9,668.3"/>
		<path class="st1" d="M795.9,695.3c4.5,0,8.1-3.6,8.1-8.1s-3.6-8.1-8.1-8.1s-8.1,3.6-8.1,8.1S791.4,695.3,795.9,695.3"/>
		<path class="st1" d="M795.9,722.3c4.5,0,8.1-3.6,8.1-8.1s-3.6-8.1-8.1-8.1s-8.1,3.6-8.1,8.1S791.4,722.3,795.9,722.3"/>
		<path class="st1" d="M795.9,749.4c4.5,0,8.1-3.6,8.1-8.1s-3.6-8.1-8.1-8.1s-8.1,3.6-8.1,8.1S791.4,749.4,795.9,749.4"/>
		<path class="st1" d="M822.9,452c4.5,0,8.1-3.6,8.1-8.1s-3.6-8.1-8.1-8.1s-8.1,3.6-8.1,8.1S818.5,452,822.9,452"/>
		<path class="st1" d="M822.9,479c4.5,0,8.1-3.6,8.1-8.1s-3.6-8.1-8.1-8.1s-8.1,3.6-8.1,8.1C814.8,475.4,818.5,479,822.9,479"/>
		<path class="st1" d="M822.9,506c4.5,0,8.1-3.6,8.1-8.1s-3.6-8.1-8.1-8.1s-8.1,3.6-8.1,8.1C814.8,502.4,818.5,506,822.9,506"/>
		<path class="st1" d="M822.9,533.1c4.5,0,8.1-3.6,8.1-8.1s-3.6-8.1-8.1-8.1s-8.1,3.6-8.1,8.1S818.5,533.1,822.9,533.1"/>
		<path class="st1" d="M822.9,560.1c4.5,0,8.1-3.6,8.1-8.1s-3.6-8.1-8.1-8.1s-8.1,3.6-8.1,8.1S818.5,560.1,822.9,560.1"/>
		<path class="st1" d="M822.9,587.2c4.5,0,8.1-3.6,8.1-8.1s-3.6-8.1-8.1-8.1s-8.1,3.6-8.1,8.1C814.8,583.5,818.5,587.2,822.9,587.2"
			/>
		<path class="st1" d="M822.9,614.2c4.5,0,8.1-3.6,8.1-8.1s-3.6-8.1-8.1-8.1s-8.1,3.6-8.1,8.1S818.5,614.2,822.9,614.2"/>
		<path class="st1" d="M822.9,641.2c4.5,0,8.1-3.6,8.1-8.1s-3.6-8.1-8.1-8.1s-8.1,3.6-8.1,8.1C814.8,637.6,818.5,641.2,822.9,641.2"
			/>
		<path class="st1" d="M822.9,668.3c4.5,0,8.1-3.6,8.1-8.1s-3.6-8.1-8.1-8.1s-8.1,3.6-8.1,8.1S818.5,668.3,822.9,668.3"/>
		<path class="st1" d="M822.9,695.3c4.5,0,8.1-3.6,8.1-8.1s-3.6-8.1-8.1-8.1s-8.1,3.6-8.1,8.1S818.5,695.3,822.9,695.3"/>
		<path class="st1" d="M822.9,722.3c4.5,0,8.1-3.6,8.1-8.1s-3.6-8.1-8.1-8.1s-8.1,3.6-8.1,8.1S818.5,722.3,822.9,722.3"/>
		<path class="st1" d="M822.9,749.4c4.5,0,8.1-3.6,8.1-8.1s-3.6-8.1-8.1-8.1s-8.1,3.6-8.1,8.1S818.5,749.4,822.9,749.4"/>
		<path class="st1" d="M850,479c4.5,0,8.1-3.6,8.1-8.1s-3.6-8.1-8.1-8.1s-8.1,3.6-8.1,8.1S845.5,479,850,479"/>
		<path class="st1" d="M850,506c4.5,0,8.1-3.6,8.1-8.1s-3.6-8.1-8.1-8.1s-8.1,3.6-8.1,8.1S845.5,506,850,506"/>
		<path class="st1" d="M850,533.1c4.5,0,8.1-3.6,8.1-8.1s-3.6-8.1-8.1-8.1s-8.1,3.6-8.1,8.1S845.5,533.1,850,533.1"/>
		<path class="st1" d="M850,560.1c4.5,0,8.1-3.6,8.1-8.1s-3.6-8.1-8.1-8.1s-8.1,3.6-8.1,8.1S845.5,560.1,850,560.1"/>
		<path class="st1" d="M850,587.2c4.5,0,8.1-3.6,8.1-8.1s-3.6-8.1-8.1-8.1s-8.1,3.6-8.1,8.1C841.9,583.5,845.5,587.2,850,587.2"/>
		<path class="st1" d="M850,614.2c4.5,0,8.1-3.6,8.1-8.1s-3.6-8.1-8.1-8.1s-8.1,3.6-8.1,8.1S845.5,614.2,850,614.2"/>
		<path class="st1" d="M850,641.2c4.5,0,8.1-3.6,8.1-8.1s-3.6-8.1-8.1-8.1s-8.1,3.6-8.1,8.1C841.9,637.6,845.5,641.2,850,641.2"/>
		<path class="st1" d="M850,668.3c4.5,0,8.1-3.6,8.1-8.1s-3.6-8.1-8.1-8.1s-8.1,3.6-8.1,8.1S845.5,668.3,850,668.3"/>
		<path class="st1" d="M850,695.3c4.5,0,8.1-3.6,8.1-8.1s-3.6-8.1-8.1-8.1s-8.1,3.6-8.1,8.1S845.5,695.3,850,695.3"/>
		<path class="st1" d="M850,722.3c4.5,0,8.1-3.6,8.1-8.1s-3.6-8.1-8.1-8.1s-8.1,3.6-8.1,8.1S845.5,722.3,850,722.3"/>
		<path class="st1" d="M877,479c4.5,0,8.1-3.6,8.1-8.1s-3.6-8.1-8.1-8.1s-8.1,3.6-8.1,8.1S872.5,479,877,479"/>
		<path class="st1" d="M877,506c4.5,0,8.1-3.6,8.1-8.1s-3.6-8.1-8.1-8.1s-8.1,3.6-8.1,8.1S872.5,506,877,506"/>
		<path class="st1" d="M877,533.1c4.5,0,8.1-3.6,8.1-8.1s-3.6-8.1-8.1-8.1s-8.1,3.6-8.1,8.1S872.5,533.1,877,533.1"/>
		<path class="st1" d="M877,560.1c4.5,0,8.1-3.6,8.1-8.1s-3.6-8.1-8.1-8.1s-8.1,3.6-8.1,8.1S872.5,560.1,877,560.1"/>
		<path class="st1" d="M877,587.2c4.5,0,8.1-3.6,8.1-8.1s-3.6-8.1-8.1-8.1s-8.1,3.6-8.1,8.1C868.9,583.5,872.5,587.2,877,587.2"/>
		<path class="st1" d="M877,614.2c4.5,0,8.1-3.6,8.1-8.1s-3.6-8.1-8.1-8.1s-8.1,3.6-8.1,8.1S872.5,614.2,877,614.2"/>
		<path class="st1" d="M877,641.2c4.5,0,8.1-3.6,8.1-8.1s-3.6-8.1-8.1-8.1s-8.1,3.6-8.1,8.1C868.9,637.6,872.5,641.2,877,641.2"/>
		<path class="st1" d="M877,668.3c4.5,0,8.1-3.6,8.1-8.1s-3.6-8.1-8.1-8.1s-8.1,3.6-8.1,8.1S872.5,668.3,877,668.3"/>
		<path class="st1" d="M877,695.3c4.5,0,8.1-3.6,8.1-8.1s-3.6-8.1-8.1-8.1s-8.1,3.6-8.1,8.1S872.5,695.3,877,695.3"/>
		<path class="st1" d="M877,722.3c4.5,0,8.1-3.6,8.1-8.1s-3.6-8.1-8.1-8.1s-8.1,3.6-8.1,8.1S872.5,722.3,877,722.3"/>
		<path class="st1" d="M904,479c4.5,0,8.1-3.6,8.1-8.1s-3.6-8.1-8.1-8.1s-8.1,3.6-8.1,8.1S899.6,479,904,479"/>
		<path class="st1" d="M904,506c4.5,0,8.1-3.6,8.1-8.1s-3.6-8.1-8.1-8.1s-8.1,3.6-8.1,8.1S899.6,506,904,506"/>
		<path class="st1" d="M904,533.1c4.5,0,8.1-3.6,8.1-8.1s-3.6-8.1-8.1-8.1s-8.1,3.6-8.1,8.1S899.6,533.1,904,533.1"/>
		<path class="st1" d="M904,560.1c4.5,0,8.1-3.6,8.1-8.1s-3.6-8.1-8.1-8.1s-8.1,3.6-8.1,8.1S899.6,560.1,904,560.1"/>
		<path class="st1" d="M904,587.2c4.5,0,8.1-3.6,8.1-8.1s-3.6-8.1-8.1-8.1s-8.1,3.6-8.1,8.1C895.9,583.5,899.6,587.2,904,587.2"/>
		<path class="st1" d="M904,614.2c4.5,0,8.1-3.6,8.1-8.1s-3.6-8.1-8.1-8.1s-8.1,3.6-8.1,8.1S899.6,614.2,904,614.2"/>
		<path class="st1" d="M904,641.2c4.5,0,8.1-3.6,8.1-8.1s-3.6-8.1-8.1-8.1s-8.1,3.6-8.1,8.1C895.9,637.6,899.6,641.2,904,641.2"/>
		<path class="st1" d="M904,668.3c4.5,0,8.1-3.6,8.1-8.1s-3.6-8.1-8.1-8.1s-8.1,3.6-8.1,8.1S899.6,668.3,904,668.3"/>
		<path class="st1" d="M931.1,506c4.5,0,8.1-3.6,8.1-8.1s-3.6-8.1-8.1-8.1s-8.1,3.6-8.1,8.1S926.6,506,931.1,506"/>
		<path class="st1" d="M931.1,533.1c4.5,0,8.1-3.6,8.1-8.1s-3.6-8.1-8.1-8.1s-8.1,3.6-8.1,8.1S926.6,533.1,931.1,533.1"/>
		<path class="st1" d="M931.1,560.1c4.5,0,8.1-3.6,8.1-8.1s-3.6-8.1-8.1-8.1s-8.1,3.6-8.1,8.1S926.6,560.1,931.1,560.1"/>
		<path class="st1" d="M931.1,587.2c4.5,0,8.1-3.6,8.1-8.1s-3.6-8.1-8.1-8.1s-8.1,3.6-8.1,8.1C923,583.5,926.6,587.2,931.1,587.2"/>
		<path class="st1" d="M958.1,506c4.5,0,8.1-3.6,8.1-8.1s-3.6-8.1-8.1-8.1s-8.1,3.6-8.1,8.1S953.6,506,958.1,506"/>
		<path class="st1" d="M958.1,533.1c4.5,0,8.1-3.6,8.1-8.1s-3.6-8.1-8.1-8.1s-8.1,3.6-8.1,8.1S953.6,533.1,958.1,533.1"/>
		<path class="st1" d="M958.1,560.1c4.5,0,8.1-3.6,8.1-8.1s-3.6-8.1-8.1-8.1s-8.1,3.6-8.1,8.1S953.6,560.1,958.1,560.1"/>
		<path class="st1" d="M662,284.7c4.5,0,8.1-3.6,8.1-8.1s-3.6-8.1-8.1-8.1s-8.1,3.6-8.1,8.1S657.5,284.7,662,284.7"/>
		<path class="st1" d="M464.9,172.1c4.5,0,8.1-3.6,8.1-8.1s-3.6-8.1-8.1-8.1s-8.1,3.6-8.1,8.1S460.5,172.1,464.9,172.1"/>
		<path class="st1" d="M471.5,1073.8c4.5,0,8.1-3.6,8.1-8.1s-3.6-8.1-8.1-8.1s-8.1,3.6-8.1,8.1
			C463.4,1070.1,467,1073.8,471.5,1073.8"/>
		<path class="st1" d="M363.4,235.7c4.5,0,8.1-3.6,8.1-8.1s-3.6-8.1-8.1-8.1s-8.1,3.6-8.1,8.1S358.9,235.7,363.4,235.7"/>
	</g>
	<g>
		<path class="st2" d="M120.1,127.6c4.5,0,8.1-3.6,8.1-8.1s-3.6-8.1-8.1-8.1s-8.1,3.6-8.1,8.1S115.6,127.6,120.1,127.6"/>
		<path class="st3" d="M201.1,235.7c4.5,0,8.1-3.6,8.1-8.1s-3.6-8.1-8.1-8.1s-8.1,3.6-8.1,8.1S196.7,235.7,201.1,235.7"/>
		<path class="st4" d="M412.1,145.1c4.5,0,8.1-3.6,8.1-8.1s-3.6-8.1-8.1-8.1s-8.1,3.6-8.1,8.1S407.6,145.1,412.1,145.1"/>
		<path class="st5" d="M525.6,208.7c4.5,0,8.1-3.6,8.1-8.1s-3.6-8.1-8.1-8.1s-8.1,3.6-8.1,8.1C517.5,205,521.1,208.7,525.6,208.7"/>
		<path class="st6" d="M282.2,262.7c4.5,0,8.1-3.6,8.1-8.1s-3.6-8.1-8.1-8.1s-8.1,3.6-8.1,8.1S277.8,262.7,282.2,262.7"/>
		<path class="st7" d="M498.5,911.6c4.5,0,8.1-3.6,8.1-8.1s-3.6-8.1-8.1-8.1s-8.1,3.6-8.1,8.1S494,911.6,498.5,911.6"/>
		<path class="st8" d="M660.7,749.4c4.5,0,8.1-3.6,8.1-8.1s-3.6-8.1-8.1-8.1s-8.1,3.6-8.1,8.1S656.2,749.4,660.7,749.4"/>
		<path class="st9" d="M660.7,911.6c4.5,0,8.1-3.6,8.1-8.1s-3.6-8.1-8.1-8.1s-8.1,3.6-8.1,8.1S656.2,911.6,660.7,911.6"/>
		<path class="st10" d="M714.8,857.5c4.5,0,8.1-3.6,8.1-8.1s-3.6-8.1-8.1-8.1s-8.1,3.6-8.1,8.1S710.3,857.5,714.8,857.5"/>
		<path class="st11" d="M822.9,641.2c4.5,0,8.1-3.6,8.1-8.1s-3.6-8.1-8.1-8.1s-8.1,3.6-8.1,8.1C814.8,637.6,818.5,641.2,822.9,641.2
			"/>
		<path class="st12" d="M363.4,235.7c4.5,0,8.1-3.6,8.1-8.1s-3.6-8.1-8.1-8.1s-8.1,3.6-8.1,8.1S358.9,235.7,363.4,235.7"/>
	</g>
</g>
</svg>
