<?xml version="1.0" encoding="UTF-8"?>
<svg id="Capa_1" data-name="Capa 1" xmlns="http://www.w3.org/2000/svg" viewBox="0 0 962.42 1097.59">
  <defs>
    <style>
      .cls-1 {
        fill: #004e80;
      }

      .cls-2 {
        fill: #f39b09;
      }

      .cls-3 {
        fill: #e6bc01;
      }

      .cls-4 {
        fill: #a2659f;
      }

      .cls-5 {
        fill: #8a933b;
      }

      .cls-6 {
        fill: #a8211c;
      }

      .cls-7 {
        fill: #c6d4e8;
      }

      .cls-8 {
        fill: #e0740b;
      }

      .cls-9 {
        fill: #e0007e;
      }

      .cls-10 {
        fill: #239ad2;
      }

      .cls-11 {
        fill: #43a02b;
      }

      .cls-12 {
        fill: #653587;
      }

      .cls-13 {
        opacity: .5;
      }
    </style>
  </defs>
  <g class="cls-13">
    <path class="cls-7" d="M8.11,16.22c4.48,0,8.11-3.63,8.11-8.11S12.59,0,8.11,0,0,3.63,0,8.11c0,4.48,3.63,8.11,8.11,8.11"/>
    <path class="cls-7" d="M8.11,43.25c4.48,0,8.11-3.63,8.11-8.11s-3.63-8.11-8.11-8.11S0,30.66,0,35.14c0,4.48,3.63,8.11,8.11,8.11"/>
    <path class="cls-7" d="M8.11,70.28c4.48,0,8.11-3.63,8.11-8.11s-3.63-8.11-8.11-8.11S0,57.69,0,62.17c0,4.48,3.63,8.11,8.11,8.11"/>
    <path class="cls-7" d="M35.14,16.22c4.48,0,8.11-3.63,8.11-8.11S39.62,0,35.14,0s-8.11,3.63-8.11,8.11c0,4.48,3.63,8.11,8.11,8.11"/>
    <path class="cls-7" d="M35.14,43.25c4.48,0,8.11-3.63,8.11-8.11s-3.63-8.11-8.11-8.11-8.11,3.63-8.11,8.11c0,4.48,3.63,8.11,8.11,8.11"/>
    <path class="cls-7" d="M35.14,97.32c4.48,0,8.11-3.63,8.11-8.11s-3.63-8.11-8.11-8.11-8.11,3.63-8.11,8.11c0,4.48,3.63,8.11,8.11,8.11"/>
    <path class="cls-7" d="M35.14,124.35c4.48,0,8.11-3.63,8.11-8.11s-3.63-8.11-8.11-8.11-8.11,3.63-8.11,8.11c0,4.48,3.63,8.11,8.11,8.11"/>
    <path class="cls-7" d="M62.18,16.22c4.48,0,8.11-3.63,8.11-8.11S66.66,0,62.18,0s-8.11,3.63-8.11,8.11c0,4.48,3.63,8.11,8.11,8.11"/>
    <path class="cls-7" d="M62.18,43.25c4.48,0,8.11-3.63,8.11-8.11s-3.63-8.11-8.11-8.11-8.11,3.63-8.11,8.11c0,4.48,3.63,8.11,8.11,8.11"/>
    <path class="cls-7" d="M62.18,70.28c4.48,0,8.11-3.63,8.11-8.11s-3.63-8.11-8.11-8.11-8.11,3.63-8.11,8.11c0,4.48,3.63,8.11,8.11,8.11"/>
    <path class="cls-7" d="M89.21,16.22c4.48,0,8.11-3.63,8.11-8.11S93.69,0,89.21,0s-8.11,3.63-8.11,8.11,3.63,8.11,8.11,8.11"/>
    <path class="cls-7" d="M89.21,43.25c4.48,0,8.11-3.63,8.11-8.11s-3.63-8.11-8.11-8.11-8.11,3.63-8.11,8.11,3.63,8.11,8.11,8.11"/>
    <path class="cls-7" d="M89.21,70.28c4.48,0,8.11-3.63,8.11-8.11s-3.63-8.11-8.11-8.11-8.11,3.63-8.11,8.11,3.63,8.11,8.11,8.11"/>
    <path class="cls-7" d="M89.21,97.32c4.48,0,8.11-3.63,8.11-8.11s-3.63-8.11-8.11-8.11-8.11,3.63-8.11,8.11,3.63,8.11,8.11,8.11"/>
    <path class="cls-7" d="M89.21,124.35c4.48,0,8.11-3.63,8.11-8.11s-3.63-8.11-8.11-8.11-8.11,3.63-8.11,8.11,3.63,8.11,8.11,8.11"/>
    <path class="cls-7" d="M89.21,151.39c4.48,0,8.11-3.63,8.11-8.11s-3.63-8.11-8.11-8.11-8.11,3.63-8.11,8.11,3.63,8.11,8.11,8.11"/>
    <path class="cls-7" d="M89.21,178.42c4.48,0,8.11-3.63,8.11-8.11s-3.63-8.11-8.11-8.11-8.11,3.63-8.11,8.11,3.63,8.11,8.11,8.11"/>
    <path class="cls-7" d="M116.25,16.22c4.48,0,8.11-3.63,8.11-8.11S120.73,0,116.25,0s-8.11,3.63-8.11,8.11,3.63,8.11,8.11,8.11"/>
    <path class="cls-7" d="M116.25,43.25c4.48,0,8.11-3.63,8.11-8.11s-3.63-8.11-8.11-8.11-8.11,3.63-8.11,8.11,3.63,8.11,8.11,8.11"/>
    <path class="cls-7" d="M116.25,70.28c4.48,0,8.11-3.63,8.11-8.11s-3.63-8.11-8.11-8.11-8.11,3.63-8.11,8.11,3.63,8.11,8.11,8.11"/>
    <path class="cls-7" d="M116.25,97.32c4.48,0,8.11-3.63,8.11-8.11s-3.63-8.11-8.11-8.11-8.11,3.63-8.11,8.11,3.63,8.11,8.11,8.11"/>
    <path class="cls-7" d="M116.25,124.35c4.48,0,8.11-3.63,8.11-8.11s-3.63-8.11-8.11-8.11-8.11,3.63-8.11,8.11,3.63,8.11,8.11,8.11"/>
    <path class="cls-7" d="M116.25,151.39c4.48,0,8.11-3.63,8.11-8.11s-3.63-8.11-8.11-8.11-8.11,3.63-8.11,8.11,3.63,8.11,8.11,8.11"/>
    <path class="cls-7" d="M116.25,178.42c4.48,0,8.11-3.63,8.11-8.11s-3.63-8.11-8.11-8.11-8.11,3.63-8.11,8.11,3.63,8.11,8.11,8.11"/>
    <path class="cls-7" d="M143.28,43.25c4.48,0,8.11-3.63,8.11-8.11s-3.63-8.11-8.11-8.11-8.11,3.63-8.11,8.11,3.63,8.11,8.11,8.11"/>
    <path class="cls-7" d="M143.28,70.28c4.48,0,8.11-3.63,8.11-8.11s-3.63-8.11-8.11-8.11-8.11,3.63-8.11,8.11,3.63,8.11,8.11,8.11"/>
    <path class="cls-7" d="M143.28,97.32c4.48,0,8.11-3.63,8.11-8.11s-3.63-8.11-8.11-8.11-8.11,3.63-8.11,8.11,3.63,8.11,8.11,8.11"/>
    <path class="cls-7" d="M143.28,124.35c4.48,0,8.11-3.63,8.11-8.11s-3.63-8.11-8.11-8.11-8.11,3.63-8.11,8.11,3.63,8.11,8.11,8.11"/>
    <path class="cls-7" d="M143.28,151.39c4.48,0,8.11-3.63,8.11-8.11s-3.63-8.11-8.11-8.11-8.11,3.63-8.11,8.11,3.63,8.11,8.11,8.11"/>
    <path class="cls-7" d="M143.28,178.42c4.48,0,8.11-3.63,8.11-8.11s-3.63-8.11-8.11-8.11-8.11,3.63-8.11,8.11,3.63,8.11,8.11,8.11"/>
    <path class="cls-7" d="M143.28,205.46c4.48,0,8.11-3.63,8.11-8.11s-3.63-8.11-8.11-8.11-8.11,3.63-8.11,8.11,3.63,8.11,8.11,8.11"/>
    <path class="cls-7" d="M170.32,70.28c4.48,0,8.11-3.63,8.11-8.11s-3.63-8.11-8.11-8.11-8.11,3.63-8.11,8.11,3.63,8.11,8.11,8.11"/>
    <path class="cls-7" d="M170.32,97.32c4.48,0,8.11-3.63,8.11-8.11s-3.63-8.11-8.11-8.11-8.11,3.63-8.11,8.11,3.63,8.11,8.11,8.11"/>
    <path class="cls-7" d="M170.32,124.35c4.48,0,8.11-3.63,8.11-8.11s-3.63-8.11-8.11-8.11-8.11,3.63-8.11,8.11,3.63,8.11,8.11,8.11"/>
    <path class="cls-7" d="M170.32,151.39c4.48,0,8.11-3.63,8.11-8.11s-3.63-8.11-8.11-8.11-8.11,3.63-8.11,8.11,3.63,8.11,8.11,8.11"/>
    <path class="cls-7" d="M170.32,178.42c4.48,0,8.11-3.63,8.11-8.11s-3.63-8.11-8.11-8.11-8.11,3.63-8.11,8.11,3.63,8.11,8.11,8.11"/>
    <path class="cls-7" d="M170.32,205.46c4.48,0,8.11-3.63,8.11-8.11s-3.63-8.11-8.11-8.11-8.11,3.63-8.11,8.11,3.63,8.11,8.11,8.11"/>
    <path class="cls-7" d="M197.35,97.32c4.48,0,8.11-3.63,8.11-8.11s-3.63-8.11-8.11-8.11-8.11,3.63-8.11,8.11,3.63,8.11,8.11,8.11"/>
    <path class="cls-7" d="M197.35,178.42c4.48,0,8.11-3.63,8.11-8.11s-3.63-8.11-8.11-8.11-8.11,3.63-8.11,8.11,3.63,8.11,8.11,8.11"/>
    <path class="cls-7" d="M197.35,205.46c4.48,0,8.11-3.63,8.11-8.11s-3.63-8.11-8.11-8.11-8.11,3.63-8.11,8.11,3.63,8.11,8.11,8.11"/>
    <path class="cls-7" d="M197.35,232.49c4.48,0,8.11-3.63,8.11-8.11s-3.63-8.11-8.11-8.11-8.11,3.63-8.11,8.11,3.63,8.11,8.11,8.11"/>
    <path class="cls-7" d="M224.39,205.46c4.48,0,8.11-3.63,8.11-8.11s-3.63-8.11-8.11-8.11-8.11,3.63-8.11,8.11,3.63,8.11,8.11,8.11"/>
    <path class="cls-7" d="M224.39,232.49c4.48,0,8.11-3.63,8.11-8.11s-3.63-8.11-8.11-8.11-8.11,3.63-8.11,8.11,3.63,8.11,8.11,8.11"/>
    <path class="cls-7" d="M251.42,178.42c4.48,0,8.11-3.63,8.11-8.11s-3.63-8.11-8.11-8.11-8.11,3.63-8.11,8.11c0,4.48,3.63,8.11,8.11,8.11"/>
    <path class="cls-7" d="M251.42,205.46c4.48,0,8.11-3.63,8.11-8.11s-3.63-8.11-8.11-8.11-8.11,3.63-8.11,8.11c0,4.47,3.63,8.11,8.11,8.11"/>
    <path class="cls-7" d="M251.42,232.49c4.48,0,8.11-3.63,8.11-8.11s-3.63-8.11-8.11-8.11-8.11,3.63-8.11,8.11c0,4.48,3.63,8.11,8.11,8.11"/>
    <path class="cls-7" d="M305.49,151.39c4.48,0,8.11-3.63,8.11-8.11s-3.63-8.11-8.11-8.11-8.11,3.63-8.11,8.11c0,4.48,3.63,8.11,8.11,8.11"/>
    <path class="cls-7" d="M354.23,141.89c4.48,0,8.11-3.63,8.11-8.11s-3.63-8.11-8.11-8.11-8.11,3.63-8.11,8.11,3.63,8.11,8.11,8.11"/>
    <path class="cls-7" d="M381.26,141.89c4.48,0,8.11-3.63,8.11-8.11s-3.63-8.11-8.11-8.11-8.11,3.63-8.11,8.11,3.63,8.11,8.11,8.11"/>
    <path class="cls-7" d="M408.29,141.89c4.48,0,8.11-3.63,8.11-8.11s-3.63-8.11-8.11-8.11-8.11,3.63-8.11,8.11,3.63,8.11,8.11,8.11"/>
    <path class="cls-7" d="M278.45,178.42c4.48,0,8.11-3.63,8.11-8.11s-3.63-8.11-8.11-8.11-8.11,3.63-8.11,8.11,3.63,8.11,8.11,8.11"/>
    <path class="cls-7" d="M305.49,178.42c4.48,0,8.11-3.63,8.11-8.11s-3.63-8.11-8.11-8.11-8.11,3.63-8.11,8.11c0,4.48,3.63,8.11,8.11,8.11"/>
    <path class="cls-7" d="M408.29,168.92c4.48,0,8.11-3.63,8.11-8.11s-3.63-8.11-8.11-8.11-8.11,3.63-8.11,8.11,3.63,8.11,8.11,8.11"/>
    <path class="cls-7" d="M435.33,168.92c4.48,0,8.11-3.63,8.11-8.11s-3.63-8.11-8.11-8.11-8.11,3.63-8.11,8.11c0,4.48,3.63,8.11,8.11,8.11"/>
    <path class="cls-7" d="M494.73,178.42c4.48,0,8.11-3.63,8.11-8.11s-3.63-8.11-8.11-8.11-8.11,3.63-8.11,8.11,3.63,8.11,8.11,8.11"/>
    <path class="cls-7" d="M521.76,178.42c4.48,0,8.11-3.63,8.11-8.11s-3.63-8.11-8.11-8.11-8.11,3.63-8.11,8.11,3.63,8.11,8.11,8.11"/>
    <path class="cls-7" d="M278.45,205.46c4.48,0,8.11-3.63,8.11-8.11s-3.63-8.11-8.11-8.11-8.11,3.63-8.11,8.11,3.63,8.11,8.11,8.11"/>
    <path class="cls-7" d="M494.73,205.46c4.48,0,8.11-3.63,8.11-8.11s-3.63-8.11-8.11-8.11-8.11,3.63-8.11,8.11,3.63,8.11,8.11,8.11"/>
    <path class="cls-7" d="M521.76,205.46c4.48,0,8.11-3.63,8.11-8.11s-3.63-8.11-8.11-8.11-8.11,3.63-8.11,8.11,3.63,8.11,8.11,8.11"/>
    <path class="cls-7" d="M278.45,232.49c4.48,0,8.11-3.63,8.11-8.11s-3.63-8.11-8.11-8.11-8.11,3.63-8.11,8.11,3.63,8.11,8.11,8.11"/>
    <path class="cls-7" d="M305.49,232.49c4.48,0,8.11-3.63,8.11-8.11s-3.63-8.11-8.11-8.11-8.11,3.63-8.11,8.11c0,4.48,3.63,8.11,8.11,8.11"/>
    <path class="cls-7" d="M332.52,232.49c4.48,0,8.11-3.63,8.11-8.11s-3.63-8.11-8.11-8.11-8.11,3.63-8.11,8.11c0,4.48,3.63,8.11,8.11,8.11"/>
    <path class="cls-7" d="M359.56,286.56c4.48,0,8.11-3.63,8.11-8.11s-3.63-8.11-8.11-8.11-8.11,3.63-8.11,8.11,3.63,8.11,8.11,8.11"/>
    <path class="cls-7" d="M278.45,259.52c4.48,0,8.11-3.63,8.11-8.11s-3.63-8.11-8.11-8.11-8.11,3.63-8.11,8.11,3.63,8.11,8.11,8.11"/>
    <path class="cls-7" d="M305.49,259.52c4.48,0,8.11-3.63,8.11-8.11s-3.63-8.11-8.11-8.11-8.11,3.63-8.11,8.11c0,4.48,3.63,8.11,8.11,8.11"/>
    <path class="cls-7" d="M332.52,259.52c4.48,0,8.11-3.63,8.11-8.11s-3.63-8.11-8.11-8.11-8.11,3.63-8.11,8.11c0,4.48,3.63,8.11,8.11,8.11"/>
    <path class="cls-7" d="M305.49,286.56c4.48,0,8.11-3.63,8.11-8.11s-3.63-8.11-8.11-8.11-8.11,3.63-8.11,8.11,3.63,8.11,8.11,8.11"/>
    <path class="cls-7" d="M332.52,286.56c4.48,0,8.11-3.63,8.11-8.11s-3.63-8.11-8.11-8.11-8.11,3.63-8.11,8.11,3.63,8.11,8.11,8.11"/>
    <path class="cls-7" d="M332.52,313.59c4.48,0,8.11-3.63,8.11-8.11s-3.63-8.11-8.11-8.11-8.11,3.63-8.11,8.11c0,4.48,3.63,8.11,8.11,8.11"/>
    <path class="cls-7" d="M359.56,313.59c4.48,0,8.11-3.63,8.11-8.11s-3.63-8.11-8.11-8.11-8.11,3.63-8.11,8.11,3.63,8.11,8.11,8.11"/>
    <path class="cls-7" d="M386.59,313.59c4.48,0,8.11-3.63,8.11-8.11s-3.63-8.11-8.11-8.11-8.11,3.63-8.11,8.11c0,4.48,3.63,8.11,8.11,8.11"/>
    <path class="cls-7" d="M386.59,340.63c4.48,0,8.11-3.63,8.11-8.11s-3.63-8.11-8.11-8.11-8.11,3.63-8.11,8.11c0,4.48,3.63,8.11,8.11,8.11"/>
    <path class="cls-7" d="M386.59,421.73c4.48,0,8.11-3.63,8.11-8.11s-3.63-8.11-8.11-8.11-8.11,3.63-8.11,8.11c0,4.48,3.63,8.11,8.11,8.11"/>
    <path class="cls-7" d="M386.59,448.76c4.48,0,8.11-3.63,8.11-8.11s-3.63-8.11-8.11-8.11-8.11,3.63-8.11,8.11c0,4.48,3.63,8.11,8.11,8.11"/>
    <path class="cls-7" d="M386.59,502.83c4.48,0,8.11-3.63,8.11-8.11s-3.63-8.11-8.11-8.11-8.11,3.63-8.11,8.11c0,4.48,3.63,8.11,8.11,8.11"/>
    <path class="cls-7" d="M413.63,313.59c4.48,0,8.11-3.63,8.11-8.11s-3.63-8.11-8.11-8.11-8.11,3.63-8.11,8.11c-.01,4.48,3.63,8.11,8.11,8.11"/>
    <path class="cls-7" d="M413.63,421.73c4.48,0,8.11-3.63,8.11-8.11s-3.63-8.11-8.11-8.11-8.11,3.63-8.11,8.11c-.01,4.48,3.63,8.11,8.11,8.11"/>
    <path class="cls-7" d="M413.63,448.76c4.48,0,8.11-3.63,8.11-8.11s-3.63-8.11-8.11-8.11-8.11,3.63-8.11,8.11c-.01,4.48,3.63,8.11,8.11,8.11"/>
    <path class="cls-7" d="M413.63,475.8c4.48,0,8.11-3.63,8.11-8.11s-3.63-8.11-8.11-8.11-8.11,3.63-8.11,8.11c-.01,4.48,3.63,8.11,8.11,8.11"/>
    <path class="cls-7" d="M413.63,502.83c4.48,0,8.11-3.63,8.11-8.11s-3.63-8.11-8.11-8.11-8.11,3.63-8.11,8.11c-.01,4.48,3.63,8.11,8.11,8.11"/>
    <path class="cls-7" d="M413.63,529.87c4.48,0,8.11-3.63,8.11-8.11s-3.63-8.11-8.11-8.11-8.11,3.63-8.11,8.11c-.01,4.48,3.63,8.11,8.11,8.11"/>
    <path class="cls-7" d="M413.63,556.9c4.48,0,8.11-3.63,8.11-8.11s-3.63-8.11-8.11-8.11-8.11,3.63-8.11,8.11c-.01,4.48,3.63,8.11,8.11,8.11"/>
    <path class="cls-7" d="M440.66,313.59c4.48,0,8.11-3.63,8.11-8.11s-3.63-8.11-8.11-8.11-8.11,3.63-8.11,8.11,3.63,8.11,8.11,8.11"/>
    <path class="cls-7" d="M440.66,340.63c4.48,0,8.11-3.63,8.11-8.11s-3.63-8.11-8.11-8.11-8.11,3.63-8.11,8.11,3.63,8.11,8.11,8.11"/>
    <path class="cls-7" d="M440.66,367.66c4.48,0,8.11-3.63,8.11-8.11s-3.63-8.11-8.11-8.11-8.11,3.63-8.11,8.11,3.63,8.11,8.11,8.11"/>
    <path class="cls-7" d="M440.66,394.7c4.48,0,8.11-3.63,8.11-8.11s-3.63-8.11-8.11-8.11-8.11,3.63-8.11,8.11,3.63,8.11,8.11,8.11"/>
    <path class="cls-7" d="M440.66,421.73c4.48,0,8.11-3.63,8.11-8.11s-3.63-8.11-8.11-8.11-8.11,3.63-8.11,8.11,3.63,8.11,8.11,8.11"/>
    <path class="cls-7" d="M440.66,448.76c4.48,0,8.11-3.63,8.11-8.11s-3.63-8.11-8.11-8.11-8.11,3.63-8.11,8.11,3.63,8.11,8.11,8.11"/>
    <path class="cls-7" d="M440.66,475.8c4.48,0,8.11-3.63,8.11-8.11s-3.63-8.11-8.11-8.11-8.11,3.63-8.11,8.11,3.63,8.11,8.11,8.11"/>
    <path class="cls-7" d="M440.66,502.83c4.48,0,8.11-3.63,8.11-8.11s-3.63-8.11-8.11-8.11-8.11,3.63-8.11,8.11,3.63,8.11,8.11,8.11"/>
    <path class="cls-7" d="M440.66,529.87c4.48,0,8.11-3.63,8.11-8.11s-3.63-8.11-8.11-8.11-8.11,3.63-8.11,8.11,3.63,8.11,8.11,8.11"/>
    <path class="cls-7" d="M440.66,556.9c4.48,0,8.11-3.63,8.11-8.11s-3.63-8.11-8.11-8.11-8.11,3.63-8.11,8.11,3.63,8.11,8.11,8.11"/>
    <path class="cls-7" d="M440.66,583.94c4.48,0,8.11-3.63,8.11-8.11s-3.63-8.11-8.11-8.11-8.11,3.63-8.11,8.11,3.63,8.11,8.11,8.11"/>
    <path class="cls-7" d="M440.66,610.97c4.48,0,8.11-3.63,8.11-8.11s-3.63-8.11-8.11-8.11-8.11,3.63-8.11,8.11,3.63,8.11,8.11,8.11"/>
    <path class="cls-7" d="M467.69,286.56c4.48,0,8.11-3.63,8.11-8.11s-3.63-8.11-8.11-8.11-8.11,3.63-8.11,8.11,3.63,8.11,8.11,8.11"/>
    <path class="cls-7" d="M467.69,313.59c4.48,0,8.11-3.63,8.11-8.11s-3.63-8.11-8.11-8.11-8.11,3.63-8.11,8.11,3.63,8.11,8.11,8.11"/>
    <path class="cls-7" d="M467.69,340.63c4.48,0,8.11-3.63,8.11-8.11s-3.63-8.11-8.11-8.11-8.11,3.63-8.11,8.11,3.63,8.11,8.11,8.11"/>
    <path class="cls-7" d="M467.69,367.66c4.48,0,8.11-3.63,8.11-8.11s-3.63-8.11-8.11-8.11-8.11,3.63-8.11,8.11,3.63,8.11,8.11,8.11"/>
    <path class="cls-7" d="M467.69,394.7c4.48,0,8.11-3.63,8.11-8.11s-3.63-8.11-8.11-8.11-8.11,3.63-8.11,8.11,3.63,8.11,8.11,8.11"/>
    <path class="cls-7" d="M467.69,421.73c4.48,0,8.11-3.63,8.11-8.11s-3.63-8.11-8.11-8.11-8.11,3.63-8.11,8.11,3.63,8.11,8.11,8.11"/>
    <path class="cls-7" d="M467.69,448.76c4.48,0,8.11-3.63,8.11-8.11s-3.63-8.11-8.11-8.11-8.11,3.63-8.11,8.11,3.63,8.11,8.11,8.11"/>
    <path class="cls-7" d="M467.69,475.8c4.48,0,8.11-3.63,8.11-8.11s-3.63-8.11-8.11-8.11-8.11,3.63-8.11,8.11,3.63,8.11,8.11,8.11"/>
    <path class="cls-7" d="M467.69,502.83c4.48,0,8.11-3.63,8.11-8.11s-3.63-8.11-8.11-8.11-8.11,3.63-8.11,8.11,3.63,8.11,8.11,8.11"/>
    <path class="cls-7" d="M467.69,529.87c4.48,0,8.11-3.63,8.11-8.11s-3.63-8.11-8.11-8.11-8.11,3.63-8.11,8.11,3.63,8.11,8.11,8.11"/>
    <path class="cls-7" d="M467.69,556.9c4.48,0,8.11-3.63,8.11-8.11s-3.63-8.11-8.11-8.11-8.11,3.63-8.11,8.11,3.63,8.11,8.11,8.11"/>
    <path class="cls-7" d="M467.69,583.94c4.48,0,8.11-3.63,8.11-8.11s-3.63-8.11-8.11-8.11-8.11,3.63-8.11,8.11,3.63,8.11,8.11,8.11"/>
    <path class="cls-7" d="M467.69,610.97c4.48,0,8.11-3.63,8.11-8.11s-3.63-8.11-8.11-8.11-8.11,3.63-8.11,8.11,3.63,8.11,8.11,8.11"/>
    <path class="cls-7" d="M467.69,638c4.48,0,8.11-3.63,8.11-8.11s-3.63-8.11-8.11-8.11-8.11,3.63-8.11,8.11,3.63,8.11,8.11,8.11"/>
    <path class="cls-7" d="M467.69,962.42c4.48,0,8.11-3.63,8.11-8.11s-3.63-8.11-8.11-8.11-8.11,3.63-8.11,8.11,3.63,8.11,8.11,8.11"/>
    <path class="cls-7" d="M467.69,1016.48c4.48,0,8.11-3.63,8.11-8.11s-3.63-8.11-8.11-8.11-8.11,3.63-8.11,8.11,3.63,8.11,8.11,8.11"/>
    <path class="cls-7" d="M467.69,1043.52c4.48,0,8.11-3.63,8.11-8.11s-3.63-8.11-8.11-8.11-8.11,3.63-8.11,8.11,3.63,8.11,8.11,8.11"/>
    <path class="cls-7" d="M494.73,286.56c4.48,0,8.11-3.63,8.11-8.11s-3.63-8.11-8.11-8.11-8.11,3.63-8.11,8.11,3.63,8.11,8.11,8.11"/>
    <path class="cls-7" d="M494.73,313.59c4.48,0,8.11-3.63,8.11-8.11s-3.63-8.11-8.11-8.11-8.11,3.63-8.11,8.11,3.63,8.11,8.11,8.11"/>
    <path class="cls-7" d="M494.73,340.63c4.48,0,8.11-3.63,8.11-8.11s-3.63-8.11-8.11-8.11-8.11,3.63-8.11,8.11,3.63,8.11,8.11,8.11"/>
    <path class="cls-7" d="M494.73,367.66c4.48,0,8.11-3.63,8.11-8.11s-3.63-8.11-8.11-8.11-8.11,3.63-8.11,8.11,3.63,8.11,8.11,8.11"/>
    <path class="cls-7" d="M494.73,394.7c4.48,0,8.11-3.63,8.11-8.11s-3.63-8.11-8.11-8.11-8.11,3.63-8.11,8.11,3.63,8.11,8.11,8.11"/>
    <path class="cls-7" d="M494.73,421.73c4.48,0,8.11-3.63,8.11-8.11s-3.63-8.11-8.11-8.11-8.11,3.63-8.11,8.11,3.63,8.11,8.11,8.11"/>
    <path class="cls-7" d="M494.73,448.76c4.48,0,8.11-3.63,8.11-8.11s-3.63-8.11-8.11-8.11-8.11,3.63-8.11,8.11,3.63,8.11,8.11,8.11"/>
    <path class="cls-7" d="M494.73,475.8c4.48,0,8.11-3.63,8.11-8.11s-3.63-8.11-8.11-8.11-8.11,3.63-8.11,8.11,3.63,8.11,8.11,8.11"/>
    <path class="cls-7" d="M494.73,502.83c4.48,0,8.11-3.63,8.11-8.11s-3.63-8.11-8.11-8.11-8.11,3.63-8.11,8.11,3.63,8.11,8.11,8.11"/>
    <path class="cls-7" d="M494.73,529.87c4.48,0,8.11-3.63,8.11-8.11s-3.63-8.11-8.11-8.11-8.11,3.63-8.11,8.11,3.63,8.11,8.11,8.11"/>
    <path class="cls-7" d="M494.73,556.9c4.48,0,8.11-3.63,8.11-8.11s-3.63-8.11-8.11-8.11-8.11,3.63-8.11,8.11,3.63,8.11,8.11,8.11"/>
    <path class="cls-7" d="M494.73,583.94c4.48,0,8.11-3.63,8.11-8.11s-3.63-8.11-8.11-8.11-8.11,3.63-8.11,8.11,3.63,8.11,8.11,8.11"/>
    <path class="cls-7" d="M494.73,610.97c4.48,0,8.11-3.63,8.11-8.11s-3.63-8.11-8.11-8.11-8.11,3.63-8.11,8.11,3.63,8.11,8.11,8.11"/>
    <path class="cls-7" d="M494.73,638c4.48,0,8.11-3.63,8.11-8.11s-3.63-8.11-8.11-8.11-8.11,3.63-8.11,8.11,3.63,8.11,8.11,8.11"/>
    <path class="cls-7" d="M494.73,881.31c4.48,0,8.11-3.63,8.11-8.11s-3.63-8.11-8.11-8.11-8.11,3.63-8.11,8.11,3.63,8.11,8.11,8.11"/>
    <path class="cls-7" d="M494.73,908.35c4.48,0,8.11-3.63,8.11-8.11s-3.63-8.11-8.11-8.11-8.11,3.63-8.11,8.11,3.63,8.11,8.11,8.11"/>
    <path class="cls-7" d="M494.73,935.38c4.48,0,8.11-3.63,8.11-8.11s-3.63-8.11-8.11-8.11-8.11,3.63-8.11,8.11,3.63,8.11,8.11,8.11"/>
    <path class="cls-7" d="M494.73,962.42c4.48,0,8.11-3.63,8.11-8.11s-3.63-8.11-8.11-8.11-8.11,3.63-8.11,8.11,3.63,8.11,8.11,8.11"/>
    <path class="cls-7" d="M494.73,989.45c4.48,0,8.11-3.63,8.11-8.11s-3.63-8.11-8.11-8.11-8.11,3.63-8.11,8.11,3.63,8.11,8.11,8.11"/>
    <path class="cls-7" d="M494.73,1016.48c4.48,0,8.11-3.63,8.11-8.11s-3.63-8.11-8.11-8.11-8.11,3.63-8.11,8.11,3.63,8.11,8.11,8.11"/>
    <path class="cls-7" d="M494.73,1043.52c4.48,0,8.11-3.63,8.11-8.11s-3.63-8.11-8.11-8.11-8.11,3.63-8.11,8.11,3.63,8.11,8.11,8.11"/>
    <path class="cls-7" d="M494.73,1070.56c4.48,0,8.11-3.63,8.11-8.11s-3.63-8.11-8.11-8.11-8.11,3.63-8.11,8.11,3.63,8.11,8.11,8.11"/>
    <path class="cls-7" d="M494.73,1097.59c4.48,0,8.11-3.63,8.11-8.11s-3.63-8.11-8.11-8.11-8.11,3.63-8.11,8.11,3.63,8.11,8.11,8.11"/>
    <path class="cls-7" d="M521.76,286.56c4.48,0,8.11-3.63,8.11-8.11s-3.63-8.11-8.11-8.11-8.11,3.63-8.11,8.11,3.63,8.11,8.11,8.11"/>
    <path class="cls-7" d="M521.76,313.59c4.48,0,8.11-3.63,8.11-8.11s-3.63-8.11-8.11-8.11-8.11,3.63-8.11,8.11,3.63,8.11,8.11,8.11"/>
    <path class="cls-7" d="M521.76,340.63c4.48,0,8.11-3.63,8.11-8.11s-3.63-8.11-8.11-8.11-8.11,3.63-8.11,8.11,3.63,8.11,8.11,8.11"/>
    <path class="cls-7" d="M521.76,367.66c4.48,0,8.11-3.63,8.11-8.11s-3.63-8.11-8.11-8.11-8.11,3.63-8.11,8.11,3.63,8.11,8.11,8.11"/>
    <path class="cls-7" d="M521.76,394.7c4.48,0,8.11-3.63,8.11-8.11s-3.63-8.11-8.11-8.11-8.11,3.63-8.11,8.11,3.63,8.11,8.11,8.11"/>
    <path class="cls-7" d="M521.76,421.73c4.48,0,8.11-3.63,8.11-8.11s-3.63-8.11-8.11-8.11-8.11,3.63-8.11,8.11,3.63,8.11,8.11,8.11"/>
    <path class="cls-7" d="M521.76,448.76c4.48,0,8.11-3.63,8.11-8.11s-3.63-8.11-8.11-8.11-8.11,3.63-8.11,8.11,3.63,8.11,8.11,8.11"/>
    <path class="cls-7" d="M521.76,475.8c4.48,0,8.11-3.63,8.11-8.11s-3.63-8.11-8.11-8.11-8.11,3.63-8.11,8.11,3.63,8.11,8.11,8.11"/>
    <path class="cls-7" d="M521.76,502.83c4.48,0,8.11-3.63,8.11-8.11s-3.63-8.11-8.11-8.11-8.11,3.63-8.11,8.11,3.63,8.11,8.11,8.11"/>
    <path class="cls-7" d="M521.76,529.87c4.48,0,8.11-3.63,8.11-8.11s-3.63-8.11-8.11-8.11-8.11,3.63-8.11,8.11,3.63,8.11,8.11,8.11"/>
    <path class="cls-7" d="M521.76,556.9c4.48,0,8.11-3.63,8.11-8.11s-3.63-8.11-8.11-8.11-8.11,3.63-8.11,8.11,3.63,8.11,8.11,8.11"/>
    <path class="cls-7" d="M521.76,583.94c4.48,0,8.11-3.63,8.11-8.11s-3.63-8.11-8.11-8.11-8.11,3.63-8.11,8.11,3.63,8.11,8.11,8.11"/>
    <path class="cls-7" d="M521.76,610.97c4.48,0,8.11-3.63,8.11-8.11s-3.63-8.11-8.11-8.11-8.11,3.63-8.11,8.11,3.63,8.11,8.11,8.11"/>
    <path class="cls-7" d="M521.76,638c4.48,0,8.11-3.63,8.11-8.11s-3.63-8.11-8.11-8.11-8.11,3.63-8.11,8.11,3.63,8.11,8.11,8.11"/>
    <path class="cls-7" d="M521.76,665.04c4.48,0,8.11-3.63,8.11-8.11s-3.63-8.11-8.11-8.11-8.11,3.63-8.11,8.11,3.63,8.11,8.11,8.11"/>
    <path class="cls-7" d="M521.76,692.07c4.48,0,8.11-3.63,8.11-8.11s-3.63-8.11-8.11-8.11-8.11,3.63-8.11,8.11,3.63,8.11,8.11,8.11"/>
    <path class="cls-7" d="M521.76,719.11c4.48,0,8.11-3.63,8.11-8.11s-3.63-8.11-8.11-8.11-8.11,3.63-8.11,8.11,3.63,8.11,8.11,8.11"/>
    <path class="cls-7" d="M521.76,746.14c4.48,0,8.11-3.63,8.11-8.11s-3.63-8.11-8.11-8.11-8.11,3.63-8.11,8.11,3.63,8.11,8.11,8.11"/>
    <path class="cls-7" d="M521.76,773.18c4.48,0,8.11-3.63,8.11-8.11s-3.63-8.11-8.11-8.11-8.11,3.63-8.11,8.11,3.63,8.11,8.11,8.11"/>
    <path class="cls-7" d="M521.76,800.21c4.48,0,8.11-3.63,8.11-8.11s-3.63-8.11-8.11-8.11-8.11,3.63-8.11,8.11,3.63,8.11,8.11,8.11"/>
    <path class="cls-7" d="M521.76,827.24c4.48,0,8.11-3.63,8.11-8.11s-3.63-8.11-8.11-8.11-8.11,3.63-8.11,8.11,3.63,8.11,8.11,8.11"/>
    <path class="cls-7" d="M521.76,854.28c4.48,0,8.11-3.63,8.11-8.11s-3.63-8.11-8.11-8.11-8.11,3.63-8.11,8.11,3.63,8.11,8.11,8.11"/>
    <path class="cls-7" d="M521.76,881.31c4.48,0,8.11-3.63,8.11-8.11s-3.63-8.11-8.11-8.11-8.11,3.63-8.11,8.11,3.63,8.11,8.11,8.11"/>
    <path class="cls-7" d="M521.76,908.35c4.48,0,8.11-3.63,8.11-8.11s-3.63-8.11-8.11-8.11-8.11,3.63-8.11,8.11,3.63,8.11,8.11,8.11"/>
    <path class="cls-7" d="M521.76,935.38c4.48,0,8.11-3.63,8.11-8.11s-3.63-8.11-8.11-8.11-8.11,3.63-8.11,8.11,3.63,8.11,8.11,8.11"/>
    <path class="cls-7" d="M521.76,962.42c4.48,0,8.11-3.63,8.11-8.11s-3.63-8.11-8.11-8.11-8.11,3.63-8.11,8.11,3.63,8.11,8.11,8.11"/>
    <path class="cls-7" d="M521.76,989.45c4.48,0,8.11-3.63,8.11-8.11s-3.63-8.11-8.11-8.11-8.11,3.63-8.11,8.11,3.63,8.11,8.11,8.11"/>
    <path class="cls-7" d="M521.76,1016.48c4.48,0,8.11-3.63,8.11-8.11s-3.63-8.11-8.11-8.11-8.11,3.63-8.11,8.11,3.63,8.11,8.11,8.11"/>
    <path class="cls-7" d="M521.76,1043.52c4.48,0,8.11-3.63,8.11-8.11s-3.63-8.11-8.11-8.11-8.11,3.63-8.11,8.11,3.63,8.11,8.11,8.11"/>
    <path class="cls-7" d="M521.76,1070.56c4.48,0,8.11-3.63,8.11-8.11s-3.63-8.11-8.11-8.11-8.11,3.63-8.11,8.11,3.63,8.11,8.11,8.11"/>
    <path class="cls-7" d="M548.8,286.56c4.48,0,8.11-3.63,8.11-8.11s-3.63-8.11-8.11-8.11-8.11,3.63-8.11,8.11,3.63,8.11,8.11,8.11"/>
    <path class="cls-7" d="M548.8,313.59c4.48,0,8.11-3.63,8.11-8.11s-3.63-8.11-8.11-8.11-8.11,3.63-8.11,8.11,3.63,8.11,8.11,8.11"/>
    <path class="cls-7" d="M548.8,340.63c4.48,0,8.11-3.63,8.11-8.11s-3.63-8.11-8.11-8.11-8.11,3.63-8.11,8.11,3.63,8.11,8.11,8.11"/>
    <path class="cls-7" d="M548.8,367.66c4.48,0,8.11-3.63,8.11-8.11s-3.63-8.11-8.11-8.11-8.11,3.63-8.11,8.11,3.63,8.11,8.11,8.11"/>
    <path class="cls-7" d="M548.8,394.7c4.48,0,8.11-3.63,8.11-8.11s-3.63-8.11-8.11-8.11-8.11,3.63-8.11,8.11,3.63,8.11,8.11,8.11"/>
    <path class="cls-7" d="M548.8,421.73c4.48,0,8.11-3.63,8.11-8.11s-3.63-8.11-8.11-8.11-8.11,3.63-8.11,8.11,3.63,8.11,8.11,8.11"/>
    <path class="cls-7" d="M548.8,448.76c4.48,0,8.11-3.63,8.11-8.11s-3.63-8.11-8.11-8.11-8.11,3.63-8.11,8.11,3.63,8.11,8.11,8.11"/>
    <path class="cls-7" d="M548.8,475.8c4.48,0,8.11-3.63,8.11-8.11s-3.63-8.11-8.11-8.11-8.11,3.63-8.11,8.11,3.63,8.11,8.11,8.11"/>
    <path class="cls-7" d="M548.8,502.83c4.48,0,8.11-3.63,8.11-8.11s-3.63-8.11-8.11-8.11-8.11,3.63-8.11,8.11,3.63,8.11,8.11,8.11"/>
    <path class="cls-7" d="M548.8,529.87c4.48,0,8.11-3.63,8.11-8.11s-3.63-8.11-8.11-8.11-8.11,3.63-8.11,8.11,3.63,8.11,8.11,8.11"/>
    <path class="cls-7" d="M548.8,556.9c4.48,0,8.11-3.63,8.11-8.11s-3.63-8.11-8.11-8.11-8.11,3.63-8.11,8.11,3.63,8.11,8.11,8.11"/>
    <path class="cls-7" d="M548.8,583.94c4.48,0,8.11-3.63,8.11-8.11s-3.63-8.11-8.11-8.11-8.11,3.63-8.11,8.11,3.63,8.11,8.11,8.11"/>
    <path class="cls-7" d="M548.8,610.97c4.48,0,8.11-3.63,8.11-8.11s-3.63-8.11-8.11-8.11-8.11,3.63-8.11,8.11,3.63,8.11,8.11,8.11"/>
    <path class="cls-7" d="M548.8,638c4.48,0,8.11-3.63,8.11-8.11s-3.63-8.11-8.11-8.11-8.11,3.63-8.11,8.11,3.63,8.11,8.11,8.11"/>
    <path class="cls-7" d="M548.8,665.04c4.48,0,8.11-3.63,8.11-8.11s-3.63-8.11-8.11-8.11-8.11,3.63-8.11,8.11,3.63,8.11,8.11,8.11"/>
    <path class="cls-7" d="M548.8,692.07c4.48,0,8.11-3.63,8.11-8.11s-3.63-8.11-8.11-8.11-8.11,3.63-8.11,8.11,3.63,8.11,8.11,8.11"/>
    <path class="cls-7" d="M548.8,719.11c4.48,0,8.11-3.63,8.11-8.11s-3.63-8.11-8.11-8.11-8.11,3.63-8.11,8.11,3.63,8.11,8.11,8.11"/>
    <path class="cls-7" d="M548.8,746.14c4.48,0,8.11-3.63,8.11-8.11s-3.63-8.11-8.11-8.11-8.11,3.63-8.11,8.11,3.63,8.11,8.11,8.11"/>
    <path class="cls-7" d="M548.8,773.18c4.48,0,8.11-3.63,8.11-8.11s-3.63-8.11-8.11-8.11-8.11,3.63-8.11,8.11,3.63,8.11,8.11,8.11"/>
    <path class="cls-7" d="M548.8,800.21c4.48,0,8.11-3.63,8.11-8.11s-3.63-8.11-8.11-8.11-8.11,3.63-8.11,8.11,3.63,8.11,8.11,8.11"/>
    <path class="cls-7" d="M548.8,827.24c4.48,0,8.11-3.63,8.11-8.11s-3.63-8.11-8.11-8.11-8.11,3.63-8.11,8.11,3.63,8.11,8.11,8.11"/>
    <path class="cls-7" d="M548.8,854.28c4.48,0,8.11-3.63,8.11-8.11s-3.63-8.11-8.11-8.11-8.11,3.63-8.11,8.11,3.63,8.11,8.11,8.11"/>
    <path class="cls-7" d="M548.8,881.31c4.48,0,8.11-3.63,8.11-8.11s-3.63-8.11-8.11-8.11-8.11,3.63-8.11,8.11,3.63,8.11,8.11,8.11"/>
    <path class="cls-7" d="M548.8,908.35c4.48,0,8.11-3.63,8.11-8.11s-3.63-8.11-8.11-8.11-8.11,3.63-8.11,8.11,3.63,8.11,8.11,8.11"/>
    <path class="cls-7" d="M548.8,935.38c4.48,0,8.11-3.63,8.11-8.11s-3.63-8.11-8.11-8.11-8.11,3.63-8.11,8.11,3.63,8.11,8.11,8.11"/>
    <path class="cls-7" d="M548.8,962.42c4.48,0,8.11-3.63,8.11-8.11s-3.63-8.11-8.11-8.11-8.11,3.63-8.11,8.11,3.63,8.11,8.11,8.11"/>
    <path class="cls-7" d="M548.8,989.45c4.48,0,8.11-3.63,8.11-8.11s-3.63-8.11-8.11-8.11-8.11,3.63-8.11,8.11,3.63,8.11,8.11,8.11"/>
    <path class="cls-7" d="M548.8,1016.48c4.48,0,8.11-3.63,8.11-8.11s-3.63-8.11-8.11-8.11-8.11,3.63-8.11,8.11,3.63,8.11,8.11,8.11"/>
    <path class="cls-7" d="M575.83,313.59c4.48,0,8.11-3.63,8.11-8.11s-3.63-8.11-8.11-8.11-8.11,3.63-8.11,8.11,3.63,8.11,8.11,8.11"/>
    <path class="cls-7" d="M575.83,340.63c4.48,0,8.11-3.63,8.11-8.11s-3.63-8.11-8.11-8.11-8.11,3.63-8.11,8.11,3.63,8.11,8.11,8.11"/>
    <path class="cls-7" d="M575.83,367.66c4.48,0,8.11-3.63,8.11-8.11s-3.63-8.11-8.11-8.11-8.11,3.63-8.11,8.11,3.63,8.11,8.11,8.11"/>
    <path class="cls-7" d="M575.83,394.7c4.48,0,8.11-3.63,8.11-8.11s-3.63-8.11-8.11-8.11-8.11,3.63-8.11,8.11,3.63,8.11,8.11,8.11"/>
    <path class="cls-7" d="M575.83,421.73c4.48,0,8.11-3.63,8.11-8.11s-3.63-8.11-8.11-8.11-8.11,3.63-8.11,8.11,3.63,8.11,8.11,8.11"/>
    <path class="cls-7" d="M575.83,448.76c4.48,0,8.11-3.63,8.11-8.11s-3.63-8.11-8.11-8.11-8.11,3.63-8.11,8.11,3.63,8.11,8.11,8.11"/>
    <path class="cls-7" d="M575.83,475.8c4.48,0,8.11-3.63,8.11-8.11s-3.63-8.11-8.11-8.11-8.11,3.63-8.11,8.11,3.63,8.11,8.11,8.11"/>
    <path class="cls-7" d="M575.83,502.83c4.48,0,8.11-3.63,8.11-8.11s-3.63-8.11-8.11-8.11-8.11,3.63-8.11,8.11,3.63,8.11,8.11,8.11"/>
    <path class="cls-7" d="M575.83,529.87c4.48,0,8.11-3.63,8.11-8.11s-3.63-8.11-8.11-8.11-8.11,3.63-8.11,8.11,3.63,8.11,8.11,8.11"/>
    <path class="cls-7" d="M575.83,556.9c4.48,0,8.11-3.63,8.11-8.11s-3.63-8.11-8.11-8.11-8.11,3.63-8.11,8.11,3.63,8.11,8.11,8.11"/>
    <path class="cls-7" d="M575.83,583.94c4.48,0,8.11-3.63,8.11-8.11s-3.63-8.11-8.11-8.11-8.11,3.63-8.11,8.11,3.63,8.11,8.11,8.11"/>
    <path class="cls-7" d="M575.83,610.97c4.48,0,8.11-3.63,8.11-8.11s-3.63-8.11-8.11-8.11-8.11,3.63-8.11,8.11,3.63,8.11,8.11,8.11"/>
    <path class="cls-7" d="M575.83,638c4.48,0,8.11-3.63,8.11-8.11s-3.63-8.11-8.11-8.11-8.11,3.63-8.11,8.11,3.63,8.11,8.11,8.11"/>
    <path class="cls-7" d="M575.83,665.04c4.48,0,8.11-3.63,8.11-8.11s-3.63-8.11-8.11-8.11-8.11,3.63-8.11,8.11,3.63,8.11,8.11,8.11"/>
    <path class="cls-7" d="M575.83,692.07c4.48,0,8.11-3.63,8.11-8.11s-3.63-8.11-8.11-8.11-8.11,3.63-8.11,8.11,3.63,8.11,8.11,8.11"/>
    <path class="cls-7" d="M575.83,719.11c4.48,0,8.11-3.63,8.11-8.11s-3.63-8.11-8.11-8.11-8.11,3.63-8.11,8.11,3.63,8.11,8.11,8.11"/>
    <path class="cls-7" d="M575.83,746.14c4.48,0,8.11-3.63,8.11-8.11s-3.63-8.11-8.11-8.11-8.11,3.63-8.11,8.11,3.63,8.11,8.11,8.11"/>
    <path class="cls-7" d="M575.83,773.18c4.48,0,8.11-3.63,8.11-8.11s-3.63-8.11-8.11-8.11-8.11,3.63-8.11,8.11,3.63,8.11,8.11,8.11"/>
    <path class="cls-7" d="M575.83,800.21c4.48,0,8.11-3.63,8.11-8.11s-3.63-8.11-8.11-8.11-8.11,3.63-8.11,8.11,3.63,8.11,8.11,8.11"/>
    <path class="cls-7" d="M575.83,827.24c4.48,0,8.11-3.63,8.11-8.11s-3.63-8.11-8.11-8.11-8.11,3.63-8.11,8.11,3.63,8.11,8.11,8.11"/>
    <path class="cls-7" d="M575.83,854.28c4.48,0,8.11-3.63,8.11-8.11s-3.63-8.11-8.11-8.11-8.11,3.63-8.11,8.11,3.63,8.11,8.11,8.11"/>
    <path class="cls-7" d="M575.83,881.31c4.48,0,8.11-3.63,8.11-8.11s-3.63-8.11-8.11-8.11-8.11,3.63-8.11,8.11,3.63,8.11,8.11,8.11"/>
    <path class="cls-7" d="M575.83,908.35c4.48,0,8.11-3.63,8.11-8.11s-3.63-8.11-8.11-8.11-8.11,3.63-8.11,8.11,3.63,8.11,8.11,8.11"/>
    <path class="cls-7" d="M575.83,935.38c4.48,0,8.11-3.63,8.11-8.11s-3.63-8.11-8.11-8.11-8.11,3.63-8.11,8.11,3.63,8.11,8.11,8.11"/>
    <path class="cls-7" d="M575.83,962.42c4.48,0,8.11-3.63,8.11-8.11s-3.63-8.11-8.11-8.11-8.11,3.63-8.11,8.11,3.63,8.11,8.11,8.11"/>
    <path class="cls-7" d="M602.87,313.59c4.48,0,8.11-3.63,8.11-8.11s-3.63-8.11-8.11-8.11-8.11,3.63-8.11,8.11,3.63,8.11,8.11,8.11"/>
    <path class="cls-7" d="M602.87,340.63c4.48,0,8.11-3.63,8.11-8.11s-3.63-8.11-8.11-8.11-8.11,3.63-8.11,8.11,3.63,8.11,8.11,8.11"/>
    <path class="cls-7" d="M602.87,367.66c4.48,0,8.11-3.63,8.11-8.11s-3.63-8.11-8.11-8.11-8.11,3.63-8.11,8.11,3.63,8.11,8.11,8.11"/>
    <path class="cls-7" d="M602.87,394.7c4.48,0,8.11-3.63,8.11-8.11s-3.63-8.11-8.11-8.11-8.11,3.63-8.11,8.11,3.63,8.11,8.11,8.11"/>
    <path class="cls-7" d="M602.87,421.73c4.48,0,8.11-3.63,8.11-8.11s-3.63-8.11-8.11-8.11-8.11,3.63-8.11,8.11,3.63,8.11,8.11,8.11"/>
    <path class="cls-7" d="M602.87,448.76c4.48,0,8.11-3.63,8.11-8.11s-3.63-8.11-8.11-8.11-8.11,3.63-8.11,8.11,3.63,8.11,8.11,8.11"/>
    <path class="cls-7" d="M602.87,475.8c4.48,0,8.11-3.63,8.11-8.11s-3.63-8.11-8.11-8.11-8.11,3.63-8.11,8.11,3.63,8.11,8.11,8.11"/>
    <path class="cls-7" d="M602.87,502.83c4.48,0,8.11-3.63,8.11-8.11s-3.63-8.11-8.11-8.11-8.11,3.63-8.11,8.11,3.63,8.11,8.11,8.11"/>
    <path class="cls-7" d="M602.87,529.87c4.48,0,8.11-3.63,8.11-8.11s-3.63-8.11-8.11-8.11-8.11,3.63-8.11,8.11,3.63,8.11,8.11,8.11"/>
    <path class="cls-7" d="M602.87,556.9c4.48,0,8.11-3.63,8.11-8.11s-3.63-8.11-8.11-8.11-8.11,3.63-8.11,8.11,3.63,8.11,8.11,8.11"/>
    <path class="cls-7" d="M602.87,583.94c4.48,0,8.11-3.63,8.11-8.11s-3.63-8.11-8.11-8.11-8.11,3.63-8.11,8.11,3.63,8.11,8.11,8.11"/>
    <path class="cls-7" d="M602.87,610.97c4.48,0,8.11-3.63,8.11-8.11s-3.63-8.11-8.11-8.11-8.11,3.63-8.11,8.11,3.63,8.11,8.11,8.11"/>
    <path class="cls-7" d="M602.87,638c4.48,0,8.11-3.63,8.11-8.11s-3.63-8.11-8.11-8.11-8.11,3.63-8.11,8.11,3.63,8.11,8.11,8.11"/>
    <path class="cls-7" d="M602.87,665.04c4.48,0,8.11-3.63,8.11-8.11s-3.63-8.11-8.11-8.11-8.11,3.63-8.11,8.11,3.63,8.11,8.11,8.11"/>
    <path class="cls-7" d="M602.87,692.07c4.48,0,8.11-3.63,8.11-8.11s-3.63-8.11-8.11-8.11-8.11,3.63-8.11,8.11,3.63,8.11,8.11,8.11"/>
    <path class="cls-7" d="M602.87,719.11c4.48,0,8.11-3.63,8.11-8.11s-3.63-8.11-8.11-8.11-8.11,3.63-8.11,8.11,3.63,8.11,8.11,8.11"/>
    <path class="cls-7" d="M602.87,746.14c4.48,0,8.11-3.63,8.11-8.11s-3.63-8.11-8.11-8.11-8.11,3.63-8.11,8.11,3.63,8.11,8.11,8.11"/>
    <path class="cls-7" d="M602.87,773.18c4.48,0,8.11-3.63,8.11-8.11s-3.63-8.11-8.11-8.11-8.11,3.63-8.11,8.11,3.63,8.11,8.11,8.11"/>
    <path class="cls-7" d="M602.87,800.21c4.48,0,8.11-3.63,8.11-8.11s-3.63-8.11-8.11-8.11-8.11,3.63-8.11,8.11,3.63,8.11,8.11,8.11"/>
    <path class="cls-7" d="M602.87,827.24c4.48,0,8.11-3.63,8.11-8.11s-3.63-8.11-8.11-8.11-8.11,3.63-8.11,8.11,3.63,8.11,8.11,8.11"/>
    <path class="cls-7" d="M602.87,854.28c4.48,0,8.11-3.63,8.11-8.11s-3.63-8.11-8.11-8.11-8.11,3.63-8.11,8.11,3.63,8.11,8.11,8.11"/>
    <path class="cls-7" d="M602.87,881.31c4.48,0,8.11-3.63,8.11-8.11s-3.63-8.11-8.11-8.11-8.11,3.63-8.11,8.11,3.63,8.11,8.11,8.11"/>
    <path class="cls-7" d="M602.87,908.35c4.48,0,8.11-3.63,8.11-8.11s-3.63-8.11-8.11-8.11-8.11,3.63-8.11,8.11,3.63,8.11,8.11,8.11"/>
    <path class="cls-7" d="M602.87,935.38c4.48,0,8.11-3.63,8.11-8.11s-3.63-8.11-8.11-8.11-8.11,3.63-8.11,8.11,3.63,8.11,8.11,8.11"/>
    <path class="cls-7" d="M602.87,1059.35c4.48,0,8.11-3.63,8.11-8.11s-3.63-8.11-8.11-8.11-8.11,3.63-8.11,8.11,3.63,8.11,8.11,8.11"/>
    <path class="cls-7" d="M629.9,313.59c4.48,0,8.11-3.63,8.11-8.11s-3.63-8.11-8.11-8.11-8.11,3.63-8.11,8.11,3.63,8.11,8.11,8.11"/>
    <path class="cls-7" d="M629.9,340.63c4.48,0,8.11-3.63,8.11-8.11s-3.63-8.11-8.11-8.11-8.11,3.63-8.11,8.11,3.63,8.11,8.11,8.11"/>
    <path class="cls-7" d="M629.9,367.66c4.48,0,8.11-3.63,8.11-8.11s-3.63-8.11-8.11-8.11-8.11,3.63-8.11,8.11,3.63,8.11,8.11,8.11"/>
    <path class="cls-7" d="M629.9,394.7c4.48,0,8.11-3.63,8.11-8.11s-3.63-8.11-8.11-8.11-8.11,3.63-8.11,8.11,3.63,8.11,8.11,8.11"/>
    <path class="cls-7" d="M629.9,421.73c4.48,0,8.11-3.63,8.11-8.11s-3.63-8.11-8.11-8.11-8.11,3.63-8.11,8.11,3.63,8.11,8.11,8.11"/>
    <path class="cls-7" d="M629.9,448.76c4.48,0,8.11-3.63,8.11-8.11s-3.63-8.11-8.11-8.11-8.11,3.63-8.11,8.11,3.63,8.11,8.11,8.11"/>
    <path class="cls-7" d="M629.9,475.8c4.48,0,8.11-3.63,8.11-8.11s-3.63-8.11-8.11-8.11-8.11,3.63-8.11,8.11,3.63,8.11,8.11,8.11"/>
    <path class="cls-7" d="M629.9,502.83c4.48,0,8.11-3.63,8.11-8.11s-3.63-8.11-8.11-8.11-8.11,3.63-8.11,8.11,3.63,8.11,8.11,8.11"/>
    <path class="cls-7" d="M629.9,529.87c4.48,0,8.11-3.63,8.11-8.11s-3.63-8.11-8.11-8.11-8.11,3.63-8.11,8.11,3.63,8.11,8.11,8.11"/>
    <path class="cls-7" d="M629.9,556.9c4.48,0,8.11-3.63,8.11-8.11s-3.63-8.11-8.11-8.11-8.11,3.63-8.11,8.11,3.63,8.11,8.11,8.11"/>
    <path class="cls-7" d="M629.9,583.94c4.48,0,8.11-3.63,8.11-8.11s-3.63-8.11-8.11-8.11-8.11,3.63-8.11,8.11,3.63,8.11,8.11,8.11"/>
    <path class="cls-7" d="M629.9,610.97c4.48,0,8.11-3.63,8.11-8.11s-3.63-8.11-8.11-8.11-8.11,3.63-8.11,8.11,3.63,8.11,8.11,8.11"/>
    <path class="cls-7" d="M629.9,638c4.48,0,8.11-3.63,8.11-8.11s-3.63-8.11-8.11-8.11-8.11,3.63-8.11,8.11,3.63,8.11,8.11,8.11"/>
    <path class="cls-7" d="M629.9,665.04c4.48,0,8.11-3.63,8.11-8.11s-3.63-8.11-8.11-8.11-8.11,3.63-8.11,8.11,3.63,8.11,8.11,8.11"/>
    <path class="cls-7" d="M629.9,692.07c4.48,0,8.11-3.63,8.11-8.11s-3.63-8.11-8.11-8.11-8.11,3.63-8.11,8.11,3.63,8.11,8.11,8.11"/>
    <path class="cls-7" d="M629.9,719.11c4.48,0,8.11-3.63,8.11-8.11s-3.63-8.11-8.11-8.11-8.11,3.63-8.11,8.11,3.63,8.11,8.11,8.11"/>
    <path class="cls-7" d="M629.9,746.14c4.48,0,8.11-3.63,8.11-8.11s-3.63-8.11-8.11-8.11-8.11,3.63-8.11,8.11,3.63,8.11,8.11,8.11"/>
    <path class="cls-7" d="M629.9,773.18c4.48,0,8.11-3.63,8.11-8.11s-3.63-8.11-8.11-8.11-8.11,3.63-8.11,8.11,3.63,8.11,8.11,8.11"/>
    <path class="cls-7" d="M629.9,800.21c4.48,0,8.11-3.63,8.11-8.11s-3.63-8.11-8.11-8.11-8.11,3.63-8.11,8.11,3.63,8.11,8.11,8.11"/>
    <path class="cls-7" d="M629.9,827.24c4.48,0,8.11-3.63,8.11-8.11s-3.63-8.11-8.11-8.11-8.11,3.63-8.11,8.11,3.63,8.11,8.11,8.11"/>
    <path class="cls-7" d="M629.9,854.28c4.48,0,8.11-3.63,8.11-8.11s-3.63-8.11-8.11-8.11-8.11,3.63-8.11,8.11,3.63,8.11,8.11,8.11"/>
    <path class="cls-7" d="M629.9,881.31c4.48,0,8.11-3.63,8.11-8.11s-3.63-8.11-8.11-8.11-8.11,3.63-8.11,8.11,3.63,8.11,8.11,8.11"/>
    <path class="cls-7" d="M629.9,908.35c4.48,0,8.11-3.63,8.11-8.11s-3.63-8.11-8.11-8.11-8.11,3.63-8.11,8.11,3.63,8.11,8.11,8.11"/>
    <path class="cls-7" d="M629.9,935.38c4.48,0,8.11-3.63,8.11-8.11s-3.63-8.11-8.11-8.11-8.11,3.63-8.11,8.11,3.63,8.11,8.11,8.11"/>
    <path class="cls-7" d="M629.9,1059.35c4.48,0,8.11-3.63,8.11-8.11s-3.63-8.11-8.11-8.11-8.11,3.63-8.11,8.11,3.63,8.11,8.11,8.11"/>
    <path class="cls-7" d="M656.93,340.63c4.48,0,8.11-3.63,8.11-8.11s-3.63-8.11-8.11-8.11-8.11,3.63-8.11,8.11,3.63,8.11,8.11,8.11"/>
    <path class="cls-7" d="M656.93,367.66c4.48,0,8.11-3.63,8.11-8.11s-3.63-8.11-8.11-8.11-8.11,3.63-8.11,8.11,3.63,8.11,8.11,8.11"/>
    <path class="cls-7" d="M656.93,394.7c4.48,0,8.11-3.63,8.11-8.11s-3.63-8.11-8.11-8.11-8.11,3.63-8.11,8.11,3.63,8.11,8.11,8.11"/>
    <path class="cls-7" d="M656.93,421.73c4.48,0,8.11-3.63,8.11-8.11s-3.63-8.11-8.11-8.11-8.11,3.63-8.11,8.11,3.63,8.11,8.11,8.11"/>
    <path class="cls-7" d="M656.93,448.76c4.48,0,8.11-3.63,8.11-8.11s-3.63-8.11-8.11-8.11-8.11,3.63-8.11,8.11,3.63,8.11,8.11,8.11"/>
    <path class="cls-7" d="M656.93,475.8c4.48,0,8.11-3.63,8.11-8.11s-3.63-8.11-8.11-8.11-8.11,3.63-8.11,8.11,3.63,8.11,8.11,8.11"/>
    <path class="cls-7" d="M656.93,502.83c4.48,0,8.11-3.63,8.11-8.11s-3.63-8.11-8.11-8.11-8.11,3.63-8.11,8.11,3.63,8.11,8.11,8.11"/>
    <path class="cls-7" d="M656.93,529.87c4.48,0,8.11-3.63,8.11-8.11s-3.63-8.11-8.11-8.11-8.11,3.63-8.11,8.11,3.63,8.11,8.11,8.11"/>
    <path class="cls-7" d="M656.93,556.9c4.48,0,8.11-3.63,8.11-8.11s-3.63-8.11-8.11-8.11-8.11,3.63-8.11,8.11,3.63,8.11,8.11,8.11"/>
    <path class="cls-7" d="M656.93,583.94c4.48,0,8.11-3.63,8.11-8.11s-3.63-8.11-8.11-8.11-8.11,3.63-8.11,8.11,3.63,8.11,8.11,8.11"/>
    <path class="cls-7" d="M656.93,610.97c4.48,0,8.11-3.63,8.11-8.11s-3.63-8.11-8.11-8.11-8.11,3.63-8.11,8.11,3.63,8.11,8.11,8.11"/>
    <path class="cls-7" d="M656.93,638c4.48,0,8.11-3.63,8.11-8.11s-3.63-8.11-8.11-8.11-8.11,3.63-8.11,8.11,3.63,8.11,8.11,8.11"/>
    <path class="cls-7" d="M656.93,665.04c4.48,0,8.11-3.63,8.11-8.11s-3.63-8.11-8.11-8.11-8.11,3.63-8.11,8.11,3.63,8.11,8.11,8.11"/>
    <path class="cls-7" d="M656.93,692.07c4.48,0,8.11-3.63,8.11-8.11s-3.63-8.11-8.11-8.11-8.11,3.63-8.11,8.11,3.63,8.11,8.11,8.11"/>
    <path class="cls-7" d="M656.93,719.11c4.48,0,8.11-3.63,8.11-8.11s-3.63-8.11-8.11-8.11-8.11,3.63-8.11,8.11,3.63,8.11,8.11,8.11"/>
    <path class="cls-7" d="M656.93,746.14c4.48,0,8.11-3.63,8.11-8.11s-3.63-8.11-8.11-8.11-8.11,3.63-8.11,8.11,3.63,8.11,8.11,8.11"/>
    <path class="cls-7" d="M656.93,773.18c4.48,0,8.11-3.63,8.11-8.11s-3.63-8.11-8.11-8.11-8.11,3.63-8.11,8.11,3.63,8.11,8.11,8.11"/>
    <path class="cls-7" d="M656.93,800.21c4.48,0,8.11-3.63,8.11-8.11s-3.63-8.11-8.11-8.11-8.11,3.63-8.11,8.11,3.63,8.11,8.11,8.11"/>
    <path class="cls-7" d="M656.93,827.24c4.48,0,8.11-3.63,8.11-8.11s-3.63-8.11-8.11-8.11-8.11,3.63-8.11,8.11,3.63,8.11,8.11,8.11"/>
    <path class="cls-7" d="M656.93,854.28c4.48,0,8.11-3.63,8.11-8.11s-3.63-8.11-8.11-8.11-8.11,3.63-8.11,8.11,3.63,8.11,8.11,8.11"/>
    <path class="cls-7" d="M656.93,881.31c4.48,0,8.11-3.63,8.11-8.11s-3.63-8.11-8.11-8.11-8.11,3.63-8.11,8.11,3.63,8.11,8.11,8.11"/>
    <path class="cls-7" d="M656.93,908.35c4.48,0,8.11-3.63,8.11-8.11s-3.63-8.11-8.11-8.11-8.11,3.63-8.11,8.11,3.63,8.11,8.11,8.11"/>
    <path class="cls-7" d="M683.97,340.63c4.48,0,8.11-3.63,8.11-8.11s-3.63-8.11-8.11-8.11-8.11,3.63-8.11,8.11c0,4.48,3.63,8.11,8.11,8.11"/>
    <path class="cls-7" d="M683.97,367.66c4.48,0,8.11-3.63,8.11-8.11s-3.63-8.11-8.11-8.11-8.11,3.63-8.11,8.11c0,4.48,3.63,8.11,8.11,8.11"/>
    <path class="cls-7" d="M683.97,394.7c4.48,0,8.11-3.63,8.11-8.11s-3.63-8.11-8.11-8.11-8.11,3.63-8.11,8.11c0,4.48,3.63,8.11,8.11,8.11"/>
    <path class="cls-7" d="M683.97,421.73c4.48,0,8.11-3.63,8.11-8.11s-3.63-8.11-8.11-8.11-8.11,3.63-8.11,8.11c0,4.48,3.63,8.11,8.11,8.11"/>
    <path class="cls-7" d="M683.97,448.76c4.48,0,8.11-3.63,8.11-8.11s-3.63-8.11-8.11-8.11-8.11,3.63-8.11,8.11c0,4.48,3.63,8.11,8.11,8.11"/>
    <path class="cls-7" d="M683.97,475.8c4.48,0,8.11-3.63,8.11-8.11s-3.63-8.11-8.11-8.11-8.11,3.63-8.11,8.11c0,4.48,3.63,8.11,8.11,8.11"/>
    <path class="cls-7" d="M683.97,502.83c4.48,0,8.11-3.63,8.11-8.11s-3.63-8.11-8.11-8.11-8.11,3.63-8.11,8.11c0,4.48,3.63,8.11,8.11,8.11"/>
    <path class="cls-7" d="M683.97,529.87c4.48,0,8.11-3.63,8.11-8.11s-3.63-8.11-8.11-8.11-8.11,3.63-8.11,8.11c0,4.48,3.63,8.11,8.11,8.11"/>
    <path class="cls-7" d="M683.97,556.9c4.48,0,8.11-3.63,8.11-8.11s-3.63-8.11-8.11-8.11-8.11,3.63-8.11,8.11c0,4.48,3.63,8.11,8.11,8.11"/>
    <path class="cls-7" d="M683.97,583.94c4.48,0,8.11-3.63,8.11-8.11s-3.63-8.11-8.11-8.11-8.11,3.63-8.11,8.11c0,4.48,3.63,8.11,8.11,8.11"/>
    <path class="cls-7" d="M683.97,610.97c4.48,0,8.11-3.63,8.11-8.11s-3.63-8.11-8.11-8.11-8.11,3.63-8.11,8.11c0,4.48,3.63,8.11,8.11,8.11"/>
    <path class="cls-7" d="M683.97,638c4.48,0,8.11-3.63,8.11-8.11s-3.63-8.11-8.11-8.11-8.11,3.63-8.11,8.11c0,4.48,3.63,8.11,8.11,8.11"/>
    <path class="cls-7" d="M683.97,665.04c4.48,0,8.11-3.63,8.11-8.11s-3.63-8.11-8.11-8.11-8.11,3.63-8.11,8.11c0,4.48,3.63,8.11,8.11,8.11"/>
    <path class="cls-7" d="M683.97,692.07c4.48,0,8.11-3.63,8.11-8.11s-3.63-8.11-8.11-8.11-8.11,3.63-8.11,8.11c0,4.48,3.63,8.11,8.11,8.11"/>
    <path class="cls-7" d="M683.97,719.11c4.48,0,8.11-3.63,8.11-8.11s-3.63-8.11-8.11-8.11-8.11,3.63-8.11,8.11c0,4.48,3.63,8.11,8.11,8.11"/>
    <path class="cls-7" d="M683.97,746.14c4.48,0,8.11-3.63,8.11-8.11s-3.63-8.11-8.11-8.11-8.11,3.63-8.11,8.11c0,4.48,3.63,8.11,8.11,8.11"/>
    <path class="cls-7" d="M683.97,773.18c4.48,0,8.11-3.63,8.11-8.11s-3.63-8.11-8.11-8.11-8.11,3.63-8.11,8.11c0,4.48,3.63,8.11,8.11,8.11"/>
    <path class="cls-7" d="M683.97,800.21c4.48,0,8.11-3.63,8.11-8.11s-3.63-8.11-8.11-8.11-8.11,3.63-8.11,8.11c0,4.48,3.63,8.11,8.11,8.11"/>
    <path class="cls-7" d="M683.97,827.24c4.48,0,8.11-3.63,8.11-8.11s-3.63-8.11-8.11-8.11-8.11,3.63-8.11,8.11c0,4.48,3.63,8.11,8.11,8.11"/>
    <path class="cls-7" d="M683.97,854.28c4.48,0,8.11-3.63,8.11-8.11s-3.63-8.11-8.11-8.11-8.11,3.63-8.11,8.11c0,4.48,3.63,8.11,8.11,8.11"/>
    <path class="cls-7" d="M683.97,881.31c4.48,0,8.11-3.63,8.11-8.11s-3.63-8.11-8.11-8.11-8.11,3.63-8.11,8.11c0,4.49,3.63,8.11,8.11,8.11"/>
    <path class="cls-7" d="M711,367.66c4.48,0,8.11-3.63,8.11-8.11s-3.63-8.11-8.11-8.11-8.11,3.63-8.11,8.11,3.63,8.11,8.11,8.11"/>
    <path class="cls-7" d="M711,394.7c4.48,0,8.11-3.63,8.11-8.11s-3.63-8.11-8.11-8.11-8.11,3.63-8.11,8.11,3.63,8.11,8.11,8.11"/>
    <path class="cls-7" d="M711,421.73c4.48,0,8.11-3.63,8.11-8.11s-3.63-8.11-8.11-8.11-8.11,3.63-8.11,8.11,3.63,8.11,8.11,8.11"/>
    <path class="cls-7" d="M711,448.76c4.48,0,8.11-3.63,8.11-8.11s-3.63-8.11-8.11-8.11-8.11,3.63-8.11,8.11,3.63,8.11,8.11,8.11"/>
    <path class="cls-7" d="M711,475.8c4.48,0,8.11-3.63,8.11-8.11s-3.63-8.11-8.11-8.11-8.11,3.63-8.11,8.11,3.63,8.11,8.11,8.11"/>
    <path class="cls-7" d="M711,502.83c4.48,0,8.11-3.63,8.11-8.11s-3.63-8.11-8.11-8.11-8.11,3.63-8.11,8.11,3.63,8.11,8.11,8.11"/>
    <path class="cls-7" d="M711,529.87c4.48,0,8.11-3.63,8.11-8.11s-3.63-8.11-8.11-8.11-8.11,3.63-8.11,8.11,3.63,8.11,8.11,8.11"/>
    <path class="cls-7" d="M711,556.9c4.48,0,8.11-3.63,8.11-8.11s-3.63-8.11-8.11-8.11-8.11,3.63-8.11,8.11,3.63,8.11,8.11,8.11"/>
    <path class="cls-7" d="M711,583.94c4.48,0,8.11-3.63,8.11-8.11s-3.63-8.11-8.11-8.11-8.11,3.63-8.11,8.11,3.63,8.11,8.11,8.11"/>
    <path class="cls-7" d="M711,610.97c4.48,0,8.11-3.63,8.11-8.11s-3.63-8.11-8.11-8.11-8.11,3.63-8.11,8.11,3.63,8.11,8.11,8.11"/>
    <path class="cls-7" d="M711,638c4.48,0,8.11-3.63,8.11-8.11s-3.63-8.11-8.11-8.11-8.11,3.63-8.11,8.11,3.63,8.11,8.11,8.11"/>
    <path class="cls-7" d="M711,665.04c4.48,0,8.11-3.63,8.11-8.11s-3.63-8.11-8.11-8.11-8.11,3.63-8.11,8.11,3.63,8.11,8.11,8.11"/>
    <path class="cls-7" d="M711,692.07c4.48,0,8.11-3.63,8.11-8.11s-3.63-8.11-8.11-8.11-8.11,3.63-8.11,8.11,3.63,8.11,8.11,8.11"/>
    <path class="cls-7" d="M711,719.11c4.48,0,8.11-3.63,8.11-8.11s-3.63-8.11-8.11-8.11-8.11,3.63-8.11,8.11,3.63,8.11,8.11,8.11"/>
    <path class="cls-7" d="M711,746.14c4.48,0,8.11-3.63,8.11-8.11s-3.63-8.11-8.11-8.11-8.11,3.63-8.11,8.11,3.63,8.11,8.11,8.11"/>
    <path class="cls-7" d="M711,773.18c4.48,0,8.11-3.63,8.11-8.11s-3.63-8.11-8.11-8.11-8.11,3.63-8.11,8.11,3.63,8.11,8.11,8.11"/>
    <path class="cls-7" d="M711,800.21c4.48,0,8.11-3.63,8.11-8.11s-3.63-8.11-8.11-8.11-8.11,3.63-8.11,8.11,3.63,8.11,8.11,8.11"/>
    <path class="cls-7" d="M711,827.24c4.48,0,8.11-3.63,8.11-8.11s-3.63-8.11-8.11-8.11-8.11,3.63-8.11,8.11,3.63,8.11,8.11,8.11"/>
    <path class="cls-7" d="M711,854.28c4.48,0,8.11-3.63,8.11-8.11s-3.63-8.11-8.11-8.11-8.11,3.63-8.11,8.11,3.63,8.11,8.11,8.11"/>
    <path class="cls-7" d="M738.04,367.66c4.48,0,8.11-3.63,8.11-8.11s-3.63-8.11-8.11-8.11-8.11,3.63-8.11,8.11c0,4.48,3.63,8.11,8.11,8.11"/>
    <path class="cls-7" d="M738.04,394.7c4.48,0,8.11-3.63,8.11-8.11s-3.63-8.11-8.11-8.11-8.11,3.63-8.11,8.11c0,4.48,3.63,8.11,8.11,8.11"/>
    <path class="cls-7" d="M738.04,421.73c4.48,0,8.11-3.63,8.11-8.11s-3.63-8.11-8.11-8.11-8.11,3.63-8.11,8.11c0,4.48,3.63,8.11,8.11,8.11"/>
    <path class="cls-7" d="M738.04,448.76c4.48,0,8.11-3.63,8.11-8.11s-3.63-8.11-8.11-8.11-8.11,3.63-8.11,8.11c0,4.48,3.63,8.11,8.11,8.11"/>
    <path class="cls-7" d="M738.04,475.8c4.48,0,8.11-3.63,8.11-8.11s-3.63-8.11-8.11-8.11-8.11,3.63-8.11,8.11c0,4.48,3.63,8.11,8.11,8.11"/>
    <path class="cls-7" d="M738.04,502.83c4.48,0,8.11-3.63,8.11-8.11s-3.63-8.11-8.11-8.11-8.11,3.63-8.11,8.11c0,4.48,3.63,8.11,8.11,8.11"/>
    <path class="cls-7" d="M738.04,529.87c4.48,0,8.11-3.63,8.11-8.11s-3.63-8.11-8.11-8.11-8.11,3.63-8.11,8.11c0,4.48,3.63,8.11,8.11,8.11"/>
    <path class="cls-7" d="M738.04,556.9c4.48,0,8.11-3.63,8.11-8.11s-3.63-8.11-8.11-8.11-8.11,3.63-8.11,8.11c0,4.48,3.63,8.11,8.11,8.11"/>
    <path class="cls-7" d="M738.04,583.94c4.48,0,8.11-3.63,8.11-8.11s-3.63-8.11-8.11-8.11-8.11,3.63-8.11,8.11c0,4.48,3.63,8.11,8.11,8.11"/>
    <path class="cls-7" d="M738.04,610.97c4.48,0,8.11-3.63,8.11-8.11s-3.63-8.11-8.11-8.11-8.11,3.63-8.11,8.11c0,4.48,3.63,8.11,8.11,8.11"/>
    <path class="cls-7" d="M738.04,638c4.48,0,8.11-3.63,8.11-8.11s-3.63-8.11-8.11-8.11-8.11,3.63-8.11,8.11c0,4.48,3.63,8.11,8.11,8.11"/>
    <path class="cls-7" d="M738.04,665.04c4.48,0,8.11-3.63,8.11-8.11s-3.63-8.11-8.11-8.11-8.11,3.63-8.11,8.11c0,4.48,3.63,8.11,8.11,8.11"/>
    <path class="cls-7" d="M738.04,692.07c4.48,0,8.11-3.63,8.11-8.11s-3.63-8.11-8.11-8.11-8.11,3.63-8.11,8.11c0,4.48,3.63,8.11,8.11,8.11"/>
    <path class="cls-7" d="M738.04,719.11c4.48,0,8.11-3.63,8.11-8.11s-3.63-8.11-8.11-8.11-8.11,3.63-8.11,8.11c0,4.48,3.63,8.11,8.11,8.11"/>
    <path class="cls-7" d="M738.04,746.14c4.48,0,8.11-3.63,8.11-8.11s-3.63-8.11-8.11-8.11-8.11,3.63-8.11,8.11c0,4.48,3.63,8.11,8.11,8.11"/>
    <path class="cls-7" d="M738.04,773.18c4.48,0,8.11-3.63,8.11-8.11s-3.63-8.11-8.11-8.11-8.11,3.63-8.11,8.11c0,4.48,3.63,8.11,8.11,8.11"/>
    <path class="cls-7" d="M738.04,800.21c4.48,0,8.11-3.63,8.11-8.11s-3.63-8.11-8.11-8.11-8.11,3.63-8.11,8.11c0,4.48,3.63,8.11,8.11,8.11"/>
    <path class="cls-7" d="M738.04,827.24c4.48,0,8.11-3.63,8.11-8.11s-3.63-8.11-8.11-8.11-8.11,3.63-8.11,8.11c0,4.48,3.63,8.11,8.11,8.11"/>
    <path class="cls-7" d="M765.07,394.7c4.48,0,8.11-3.63,8.11-8.11s-3.63-8.11-8.11-8.11-8.11,3.63-8.11,8.11,3.63,8.11,8.11,8.11"/>
    <path class="cls-7" d="M765.07,421.73c4.48,0,8.11-3.63,8.11-8.11s-3.63-8.11-8.11-8.11-8.11,3.63-8.11,8.11,3.63,8.11,8.11,8.11"/>
    <path class="cls-7" d="M765.07,448.76c4.48,0,8.11-3.63,8.11-8.11s-3.63-8.11-8.11-8.11-8.11,3.63-8.11,8.11,3.63,8.11,8.11,8.11"/>
    <path class="cls-7" d="M765.07,475.8c4.48,0,8.11-3.63,8.11-8.11s-3.63-8.11-8.11-8.11-8.11,3.63-8.11,8.11,3.63,8.11,8.11,8.11"/>
    <path class="cls-7" d="M765.07,502.83c4.48,0,8.11-3.63,8.11-8.11s-3.63-8.11-8.11-8.11-8.11,3.63-8.11,8.11,3.63,8.11,8.11,8.11"/>
    <path class="cls-7" d="M765.07,529.87c4.48,0,8.11-3.63,8.11-8.11s-3.63-8.11-8.11-8.11-8.11,3.63-8.11,8.11,3.63,8.11,8.11,8.11"/>
    <path class="cls-7" d="M765.07,556.9c4.48,0,8.11-3.63,8.11-8.11s-3.63-8.11-8.11-8.11-8.11,3.63-8.11,8.11,3.63,8.11,8.11,8.11"/>
    <path class="cls-7" d="M765.07,583.94c4.48,0,8.11-3.63,8.11-8.11s-3.63-8.11-8.11-8.11-8.11,3.63-8.11,8.11,3.63,8.11,8.11,8.11"/>
    <path class="cls-7" d="M765.07,610.97c4.48,0,8.11-3.63,8.11-8.11s-3.63-8.11-8.11-8.11-8.11,3.63-8.11,8.11,3.63,8.11,8.11,8.11"/>
    <path class="cls-7" d="M765.07,638c4.48,0,8.11-3.63,8.11-8.11s-3.63-8.11-8.11-8.11-8.11,3.63-8.11,8.11,3.63,8.11,8.11,8.11"/>
    <path class="cls-7" d="M765.07,665.04c4.48,0,8.11-3.63,8.11-8.11s-3.63-8.11-8.11-8.11-8.11,3.63-8.11,8.11,3.63,8.11,8.11,8.11"/>
    <path class="cls-7" d="M765.07,692.07c4.48,0,8.11-3.63,8.11-8.11s-3.63-8.11-8.11-8.11-8.11,3.63-8.11,8.11,3.63,8.11,8.11,8.11"/>
    <path class="cls-7" d="M765.07,719.11c4.48,0,8.11-3.63,8.11-8.11s-3.63-8.11-8.11-8.11-8.11,3.63-8.11,8.11,3.63,8.11,8.11,8.11"/>
    <path class="cls-7" d="M765.07,746.14c4.48,0,8.11-3.63,8.11-8.11s-3.63-8.11-8.11-8.11-8.11,3.63-8.11,8.11,3.63,8.11,8.11,8.11"/>
    <path class="cls-7" d="M765.07,773.18c4.48,0,8.11-3.63,8.11-8.11s-3.63-8.11-8.11-8.11-8.11,3.63-8.11,8.11,3.63,8.11,8.11,8.11"/>
    <path class="cls-7" d="M765.07,800.21c4.48,0,8.11-3.63,8.11-8.11s-3.63-8.11-8.11-8.11-8.11,3.63-8.11,8.11,3.63,8.11,8.11,8.11"/>
    <path class="cls-7" d="M792.11,448.76c4.48,0,8.11-3.63,8.11-8.11s-3.63-8.11-8.11-8.11-8.11,3.63-8.11,8.11,3.63,8.11,8.11,8.11"/>
    <path class="cls-7" d="M792.11,475.8c4.48,0,8.11-3.63,8.11-8.11s-3.63-8.11-8.11-8.11-8.11,3.63-8.11,8.11,3.63,8.11,8.11,8.11"/>
    <path class="cls-7" d="M792.11,502.83c4.48,0,8.11-3.63,8.11-8.11s-3.63-8.11-8.11-8.11-8.11,3.63-8.11,8.11,3.63,8.11,8.11,8.11"/>
    <path class="cls-7" d="M792.11,529.87c4.48,0,8.11-3.63,8.11-8.11s-3.63-8.11-8.11-8.11-8.11,3.63-8.11,8.11,3.63,8.11,8.11,8.11"/>
    <path class="cls-7" d="M792.11,556.9c4.48,0,8.11-3.63,8.11-8.11s-3.63-8.11-8.11-8.11-8.11,3.63-8.11,8.11,3.63,8.11,8.11,8.11"/>
    <path class="cls-7" d="M792.11,583.94c4.48,0,8.11-3.63,8.11-8.11s-3.63-8.11-8.11-8.11-8.11,3.63-8.11,8.11,3.63,8.11,8.11,8.11"/>
    <path class="cls-7" d="M792.11,610.97c4.48,0,8.11-3.63,8.11-8.11s-3.63-8.11-8.11-8.11-8.11,3.63-8.11,8.11,3.63,8.11,8.11,8.11"/>
    <path class="cls-7" d="M792.11,638c4.48,0,8.11-3.63,8.11-8.11s-3.63-8.11-8.11-8.11-8.11,3.63-8.11,8.11,3.63,8.11,8.11,8.11"/>
    <path class="cls-7" d="M792.11,665.04c4.48,0,8.11-3.63,8.11-8.11s-3.63-8.11-8.11-8.11-8.11,3.63-8.11,8.11,3.63,8.11,8.11,8.11"/>
    <path class="cls-7" d="M792.11,692.07c4.48,0,8.11-3.63,8.11-8.11s-3.63-8.11-8.11-8.11-8.11,3.63-8.11,8.11,3.63,8.11,8.11,8.11"/>
    <path class="cls-7" d="M792.11,719.11c4.48,0,8.11-3.63,8.11-8.11s-3.63-8.11-8.11-8.11-8.11,3.63-8.11,8.11,3.63,8.11,8.11,8.11"/>
    <path class="cls-7" d="M792.11,746.14c4.48,0,8.11-3.63,8.11-8.11s-3.63-8.11-8.11-8.11-8.11,3.63-8.11,8.11,3.63,8.11,8.11,8.11"/>
    <path class="cls-7" d="M819.14,448.76c4.48,0,8.11-3.63,8.11-8.11s-3.63-8.11-8.11-8.11-8.11,3.63-8.11,8.11,3.63,8.11,8.11,8.11"/>
    <path class="cls-7" d="M819.14,475.8c4.48,0,8.11-3.63,8.11-8.11s-3.63-8.11-8.11-8.11-8.11,3.63-8.11,8.11,3.63,8.11,8.11,8.11"/>
    <path class="cls-7" d="M819.14,502.83c4.48,0,8.11-3.63,8.11-8.11s-3.63-8.11-8.11-8.11-8.11,3.63-8.11,8.11,3.63,8.11,8.11,8.11"/>
    <path class="cls-7" d="M819.14,529.87c4.48,0,8.11-3.63,8.11-8.11s-3.63-8.11-8.11-8.11-8.11,3.63-8.11,8.11,3.63,8.11,8.11,8.11"/>
    <path class="cls-7" d="M819.14,556.9c4.48,0,8.11-3.63,8.11-8.11s-3.63-8.11-8.11-8.11-8.11,3.63-8.11,8.11,3.63,8.11,8.11,8.11"/>
    <path class="cls-7" d="M819.14,583.94c4.48,0,8.11-3.63,8.11-8.11s-3.63-8.11-8.11-8.11-8.11,3.63-8.11,8.11,3.63,8.11,8.11,8.11"/>
    <path class="cls-7" d="M819.14,610.97c4.48,0,8.11-3.63,8.11-8.11s-3.63-8.11-8.11-8.11-8.11,3.63-8.11,8.11,3.63,8.11,8.11,8.11"/>
    <path class="cls-7" d="M819.14,638c4.48,0,8.11-3.63,8.11-8.11s-3.63-8.11-8.11-8.11-8.11,3.63-8.11,8.11,3.63,8.11,8.11,8.11"/>
    <path class="cls-7" d="M819.14,665.04c4.48,0,8.11-3.63,8.11-8.11s-3.63-8.11-8.11-8.11-8.11,3.63-8.11,8.11,3.63,8.11,8.11,8.11"/>
    <path class="cls-7" d="M819.14,692.07c4.48,0,8.11-3.63,8.11-8.11s-3.63-8.11-8.11-8.11-8.11,3.63-8.11,8.11,3.63,8.11,8.11,8.11"/>
    <path class="cls-7" d="M819.14,719.11c4.48,0,8.11-3.63,8.11-8.11s-3.63-8.11-8.11-8.11-8.11,3.63-8.11,8.11,3.63,8.11,8.11,8.11"/>
    <path class="cls-7" d="M819.14,746.14c4.48,0,8.11-3.63,8.11-8.11s-3.63-8.11-8.11-8.11-8.11,3.63-8.11,8.11,3.63,8.11,8.11,8.11"/>
    <path class="cls-7" d="M846.17,475.8c4.48,0,8.11-3.63,8.11-8.11s-3.63-8.11-8.11-8.11-8.11,3.63-8.11,8.11,3.63,8.11,8.11,8.11"/>
    <path class="cls-7" d="M846.17,502.83c4.48,0,8.11-3.63,8.11-8.11s-3.63-8.11-8.11-8.11-8.11,3.63-8.11,8.11,3.63,8.11,8.11,8.11"/>
    <path class="cls-7" d="M846.17,529.87c4.48,0,8.11-3.63,8.11-8.11s-3.63-8.11-8.11-8.11-8.11,3.63-8.11,8.11,3.63,8.11,8.11,8.11"/>
    <path class="cls-7" d="M846.17,556.9c4.48,0,8.11-3.63,8.11-8.11s-3.63-8.11-8.11-8.11-8.11,3.63-8.11,8.11,3.63,8.11,8.11,8.11"/>
    <path class="cls-7" d="M846.17,583.94c4.48,0,8.11-3.63,8.11-8.11s-3.63-8.11-8.11-8.11-8.11,3.63-8.11,8.11,3.63,8.11,8.11,8.11"/>
    <path class="cls-7" d="M846.17,610.97c4.48,0,8.11-3.63,8.11-8.11s-3.63-8.11-8.11-8.11-8.11,3.63-8.11,8.11,3.63,8.11,8.11,8.11"/>
    <path class="cls-7" d="M846.17,638c4.48,0,8.11-3.63,8.11-8.11s-3.63-8.11-8.11-8.11-8.11,3.63-8.11,8.11,3.63,8.11,8.11,8.11"/>
    <path class="cls-7" d="M846.17,665.04c4.48,0,8.11-3.63,8.11-8.11s-3.63-8.11-8.11-8.11-8.11,3.63-8.11,8.11,3.63,8.11,8.11,8.11"/>
    <path class="cls-7" d="M846.17,692.07c4.48,0,8.11-3.63,8.11-8.11s-3.63-8.11-8.11-8.11-8.11,3.63-8.11,8.11,3.63,8.11,8.11,8.11"/>
    <path class="cls-7" d="M846.17,719.11c4.48,0,8.11-3.63,8.11-8.11s-3.63-8.11-8.11-8.11-8.11,3.63-8.11,8.11,3.63,8.11,8.11,8.11"/>
    <path class="cls-7" d="M873.21,475.8c4.48,0,8.11-3.63,8.11-8.11s-3.63-8.11-8.11-8.11-8.11,3.63-8.11,8.11,3.63,8.11,8.11,8.11"/>
    <path class="cls-7" d="M873.21,502.83c4.48,0,8.11-3.63,8.11-8.11s-3.63-8.11-8.11-8.11-8.11,3.63-8.11,8.11,3.63,8.11,8.11,8.11"/>
    <path class="cls-7" d="M873.21,529.87c4.48,0,8.11-3.63,8.11-8.11s-3.63-8.11-8.11-8.11-8.11,3.63-8.11,8.11,3.63,8.11,8.11,8.11"/>
    <path class="cls-7" d="M873.21,556.9c4.48,0,8.11-3.63,8.11-8.11s-3.63-8.11-8.11-8.11-8.11,3.63-8.11,8.11,3.63,8.11,8.11,8.11"/>
    <path class="cls-7" d="M873.21,583.94c4.48,0,8.11-3.63,8.11-8.11s-3.63-8.11-8.11-8.11-8.11,3.63-8.11,8.11,3.63,8.11,8.11,8.11"/>
    <path class="cls-7" d="M873.21,610.97c4.48,0,8.11-3.63,8.11-8.11s-3.63-8.11-8.11-8.11-8.11,3.63-8.11,8.11,3.63,8.11,8.11,8.11"/>
    <path class="cls-7" d="M873.21,638c4.48,0,8.11-3.63,8.11-8.11s-3.63-8.11-8.11-8.11-8.11,3.63-8.11,8.11,3.63,8.11,8.11,8.11"/>
    <path class="cls-7" d="M873.21,665.04c4.48,0,8.11-3.63,8.11-8.11s-3.63-8.11-8.11-8.11-8.11,3.63-8.11,8.11,3.63,8.11,8.11,8.11"/>
    <path class="cls-7" d="M873.21,692.07c4.48,0,8.11-3.63,8.11-8.11s-3.63-8.11-8.11-8.11-8.11,3.63-8.11,8.11,3.63,8.11,8.11,8.11"/>
    <path class="cls-7" d="M873.21,719.11c4.48,0,8.11-3.63,8.11-8.11s-3.63-8.11-8.11-8.11-8.11,3.63-8.11,8.11,3.63,8.11,8.11,8.11"/>
    <path class="cls-7" d="M900.24,475.8c4.48,0,8.11-3.63,8.11-8.11s-3.63-8.11-8.11-8.11-8.11,3.63-8.11,8.11,3.63,8.11,8.11,8.11"/>
    <path class="cls-7" d="M900.24,502.83c4.48,0,8.11-3.63,8.11-8.11s-3.63-8.11-8.11-8.11-8.11,3.63-8.11,8.11,3.63,8.11,8.11,8.11"/>
    <path class="cls-7" d="M900.24,529.87c4.48,0,8.11-3.63,8.11-8.11s-3.63-8.11-8.11-8.11-8.11,3.63-8.11,8.11,3.63,8.11,8.11,8.11"/>
    <path class="cls-7" d="M900.24,556.9c4.48,0,8.11-3.63,8.11-8.11s-3.63-8.11-8.11-8.11-8.11,3.63-8.11,8.11,3.63,8.11,8.11,8.11"/>
    <path class="cls-7" d="M900.24,583.94c4.48,0,8.11-3.63,8.11-8.11s-3.63-8.11-8.11-8.11-8.11,3.63-8.11,8.11,3.63,8.11,8.11,8.11"/>
    <path class="cls-7" d="M900.24,610.97c4.48,0,8.11-3.63,8.11-8.11s-3.63-8.11-8.11-8.11-8.11,3.63-8.11,8.11,3.63,8.11,8.11,8.11"/>
    <path class="cls-7" d="M900.24,638c4.48,0,8.11-3.63,8.11-8.11s-3.63-8.11-8.11-8.11-8.11,3.63-8.11,8.11,3.63,8.11,8.11,8.11"/>
    <path class="cls-7" d="M900.24,665.04c4.48,0,8.11-3.63,8.11-8.11s-3.63-8.11-8.11-8.11-8.11,3.63-8.11,8.11,3.63,8.11,8.11,8.11"/>
    <path class="cls-7" d="M927.28,502.83c4.48,0,8.11-3.63,8.11-8.11s-3.63-8.11-8.11-8.11-8.11,3.63-8.11,8.11c0,4.48,3.63,8.11,8.11,8.11"/>
    <path class="cls-7" d="M927.28,529.87c4.48,0,8.11-3.63,8.11-8.11s-3.63-8.11-8.11-8.11-8.11,3.63-8.11,8.11c0,4.48,3.63,8.11,8.11,8.11"/>
    <path class="cls-7" d="M927.28,556.9c4.48,0,8.11-3.63,8.11-8.11s-3.63-8.11-8.11-8.11-8.11,3.63-8.11,8.11c0,4.48,3.63,8.11,8.11,8.11"/>
    <path class="cls-7" d="M927.28,583.94c4.48,0,8.11-3.63,8.11-8.11s-3.63-8.11-8.11-8.11-8.11,3.63-8.11,8.11c0,4.48,3.63,8.11,8.11,8.11"/>
    <path class="cls-7" d="M954.31,502.83c4.48,0,8.11-3.63,8.11-8.11s-3.63-8.11-8.11-8.11-8.11,3.63-8.11,8.11,3.63,8.11,8.11,8.11"/>
    <path class="cls-7" d="M954.31,529.87c4.48,0,8.11-3.63,8.11-8.11s-3.63-8.11-8.11-8.11-8.11,3.63-8.11,8.11,3.63,8.11,8.11,8.11"/>
    <path class="cls-7" d="M954.31,556.9c4.48,0,8.11-3.63,8.11-8.11s-3.63-8.11-8.11-8.11-8.11,3.63-8.11,8.11,3.63,8.11,8.11,8.11"/>
    <path class="cls-7" d="M658.2,281.45c4.48,0,8.11-3.63,8.11-8.11s-3.63-8.11-8.11-8.11-8.11,3.63-8.11,8.11,3.63,8.11,8.11,8.11"/>
    <path class="cls-7" d="M461.14,168.92c4.48,0,8.11-3.63,8.11-8.11s-3.63-8.11-8.11-8.11-8.11,3.63-8.11,8.11c0,4.48,3.63,8.11,8.11,8.11"/>
    <path class="cls-7" d="M467.69,1070.56c4.48,0,8.11-3.63,8.11-8.11s-3.63-8.11-8.11-8.11-8.11,3.63-8.11,8.11,3.63,8.11,8.11,8.11"/>
    <path class="cls-7" d="M359.56,232.49c4.48,0,8.11-3.63,8.11-8.11s-3.63-8.11-8.11-8.11-8.11,3.63-8.11,8.11,3.63,8.11,8.11,8.11"/>
  </g>
  <g>
    <path class="cls-11" d="M116.25,124.35c4.48,0,8.11-3.63,8.11-8.11s-3.63-8.11-8.11-8.11-8.11,3.63-8.11,8.11,3.63,8.11,8.11,8.11"/>
    <path class="cls-2" d="M197.35,232.49c4.48,0,8.11-3.63,8.11-8.11s-3.63-8.11-8.11-8.11-8.11,3.63-8.11,8.11,3.63,8.11,8.11,8.11"/>
    <path class="cls-10" d="M408.29,141.89c4.48,0,8.11-3.63,8.11-8.11s-3.63-8.11-8.11-8.11-8.11,3.63-8.11,8.11,3.63,8.11,8.11,8.11"/>
    <path class="cls-6" d="M521.76,205.46c4.48,0,8.11-3.63,8.11-8.11s-3.63-8.11-8.11-8.11-8.11,3.63-8.11,8.11,3.63,8.11,8.11,8.11"/>
    <path class="cls-12" d="M278.45,259.52c4.48,0,8.11-3.63,8.11-8.11s-3.63-8.11-8.11-8.11-8.11,3.63-8.11,8.11,3.63,8.11,8.11,8.11"/>
    <path class="cls-8" d="M494.73,908.35c4.48,0,8.11-3.63,8.11-8.11s-3.63-8.11-8.11-8.11-8.11,3.63-8.11,8.11,3.63,8.11,8.11,8.11"/>
    <path class="cls-5" d="M656.93,746.14c4.48,0,8.11-3.63,8.11-8.11s-3.63-8.11-8.11-8.11-8.11,3.63-8.11,8.11,3.63,8.11,8.11,8.11"/>
    <path class="cls-1" d="M656.93,908.35c4.48,0,8.11-3.63,8.11-8.11s-3.63-8.11-8.11-8.11-8.11,3.63-8.11,8.11,3.63,8.11,8.11,8.11"/>
    <path class="cls-4" d="M711,854.28c4.48,0,8.11-3.63,8.11-8.11s-3.63-8.11-8.11-8.11-8.11,3.63-8.11,8.11,3.63,8.11,8.11,8.11"/>
    <path class="cls-3" d="M819.14,638c4.48,0,8.11-3.63,8.11-8.11s-3.63-8.11-8.11-8.11-8.11,3.63-8.11,8.11,3.63,8.11,8.11,8.11"/>
    <path class="cls-9" d="M359.56,232.49c4.48,0,8.11-3.63,8.11-8.11s-3.63-8.11-8.11-8.11-8.11,3.63-8.11,8.11,3.63,8.11,8.11,8.11"/>
  </g>
</svg>