<?xml version="1.0" encoding="UTF-8"?>
<svg id="Capa_2" data-name="Capa 2" xmlns="http://www.w3.org/2000/svg" viewBox="0 0 189 167.74">
  <defs>
    <style>
      .cls-1 {
        fill: none;
        stroke: #000;
        stroke-linecap: round;
        stroke-linejoin: round;
        stroke-width: 6.59px;
      }

      .cls-2 {
        fill: #fce344;
      }
    </style>
  </defs>
  <g id="Capa_1-2" data-name="Capa 1">
    <g>
      <path class="cls-2" d="M173.67,167.74H15.33c-11.78,0-19.15-12.75-13.26-22.96l36.85-63.83L81.25,7.65c5.89-10.2,20.62-10.2,26.51,0l44.24,76.63,34.93,60.51c5.89,10.2-1.47,22.96-13.25,22.96Z"/>
      <path d="M181.05,148.18L101.88,11.05c-2.22-3.84-5.9-4.26-7.38-4.26s-5.16,.42-7.38,4.26L7.95,148.18c-2.22,3.84-.74,7.24,0,8.52,.74,1.28,2.94,4.26,7.38,4.26H173.67c4.44,0,6.64-2.98,7.38-4.26,.74-1.28,2.22-4.67,0-8.52Zm-3.43,6.54c-.6,1.04-1.77,2.28-3.95,2.28H15.33c-2.18,0-3.35-1.24-3.95-2.28-.6-1.04-1.09-2.67,0-4.56L90.55,13.03c1.09-1.88,2.75-2.28,3.95-2.28s2.86,.4,3.95,2.28l79.17,137.13c1.09,1.88,.6,3.52,0,4.56Z"/>
    </g>
    <g>
      <line class="cls-1" x1="119.65" y1="107.84" x2="80.13" y2="107.84"/>
      <line class="cls-1" x1="119.65" y1="88.08" x2="80.13" y2="88.08"/>
      <line class="cls-1" x1="119.65" y1="127.6" x2="80.13" y2="127.6"/>
      <line class="cls-1" x1="66.93" y1="88.08" x2="66.96" y2="88.08"/>
      <line class="cls-1" x1="66.93" y1="107.84" x2="66.96" y2="107.84"/>
      <line class="cls-1" x1="66.93" y1="127.6" x2="66.96" y2="127.6"/>
    </g>
  </g>
</svg>