<?xml version="1.0" encoding="UTF-8" standalone="no"?>
<!-- Created with Inkscape (http://www.inkscape.org/) -->

<svg
   width="124.39674mm"
   height="36.277973mm"
   viewBox="0 0 124.39674 36.277973"
   version="1.1"
   id="svg11736"
   inkscape:version="1.1.2 (b8e25be833, 2022-02-05)"
   sodipodi:docname="trama-azuloscuro.svg"
   xmlns:inkscape="http://www.inkscape.org/namespaces/inkscape"
   xmlns:sodipodi="http://sodipodi.sourceforge.net/DTD/sodipodi-0.dtd"
   xmlns="http://www.w3.org/2000/svg"
   xmlns:svg="http://www.w3.org/2000/svg">
  <sodipodi:namedview
     id="namedview11738"
     pagecolor="#505050"
     bordercolor="#eeeeee"
     borderopacity="1"
     inkscape:pageshadow="0"
     inkscape:pageopacity="0"
     inkscape:pagecheckerboard="0"
     inkscape:document-units="mm"
     showgrid="false"
     fit-margin-top="0"
     fit-margin-left="0"
     fit-margin-right="0"
     fit-margin-bottom="0"
     inkscape:zoom="2.0899939"
     inkscape:cx="238.27821"
     inkscape:cy="73.44519"
     inkscape:window-width="1920"
     inkscape:window-height="1016"
     inkscape:window-x="-8"
     inkscape:window-y="-8"
     inkscape:window-maximized="1"
     inkscape:current-layer="layer1" />
  <defs
     id="defs11733" />
  <g
     inkscape:label="Capa 1"
     inkscape:groupmode="layer"
     id="layer1"
     transform="translate(-8.3700567,-126.10647)">
    <rect
       style="fill:#ffffff;fill-opacity:1;stroke-width:0.241469"
       id="rect13087"
       width="124.41043"
       height="36.265961"
       x="8.3490734"
       y="126.11823" />
    <path
       d="M 8.3700567,133.86222 18.39459,144.24553 8.3700567,154.62848 v 2.77248 L 21.071115,144.24553 8.3700567,131.09009 Z"
       style="fill:#152f4e;fill-opacity:1;fill-rule:nonzero;stroke:none;stroke-width:0.352778;opacity:0.80970874"
       id="path210" />
    <path
       d="M 19.605535,126.10665 H 16.92901 L 34.441604,144.24542 16.92901,162.3842 h 2.676525 l 17.512594,-18.13878 z"
       style="fill:#152f4e;fill-opacity:1;fill-rule:nonzero;stroke:none;stroke-width:0.352778;opacity:0.80970874"
       id="path214" />
    <path
       d="M 11.582063,126.10665 H 8.9055381 L 26.418132,144.24542 8.9055381,162.3842 h 2.6765249 l 17.512594,-18.13878 z"
       style="fill:#152f4e;fill-opacity:1;fill-rule:nonzero;stroke:none;stroke-width:0.352778;opacity:0.80970874"
       id="path218" />
    <path
       d="m 8.3700567,142.1725 2.0013083,2.07292 -2.0013083,2.07292 v 2.77213 l 4.6778333,-4.84505 -4.6778333,-4.84505 z"
       style="fill:#152f4e;fill-opacity:1;fill-rule:nonzero;stroke:none;stroke-width:0.352778;opacity:0.80970874"
       id="path230" />
    <path
       d="m 35.652372,126.10665 h -2.676525 l 17.512594,18.13877 -17.512594,18.13878 h 2.676525 l 17.512594,-18.13878 z"
       style="fill:#152f4e;fill-opacity:1;fill-rule:nonzero;stroke:none;stroke-width:0.352778;opacity:0.80970874"
       id="path246" />
    <path
       d="m 27.629112,126.10665 h -2.676525 l 17.512594,18.13877 -17.512594,18.13878 h 2.676525 l 17.512594,-18.13878 z"
       style="fill:#152f4e;fill-opacity:1;fill-rule:nonzero;stroke:none;stroke-width:0.352778;opacity:0.80970874"
       id="path250" />
    <path
       d="M 51.699175,126.10665 H 49.02265 L 66.535244,144.24542 49.02265,162.3842 h 2.676525 l 17.512594,-18.13878 z"
       style="fill:#152f4e;fill-opacity:1;fill-rule:nonzero;stroke:none;stroke-width:0.352778;opacity:0.80970874"
       id="path254" />
    <path
       d="M 43.67595,126.10665 H 40.999425 L 58.512019,144.24542 40.999425,162.3842 H 43.67595 L 61.188544,144.24542 Z"
       style="fill:#152f4e;fill-opacity:1;fill-rule:nonzero;stroke:none;stroke-width:0.352778;opacity:0.80970874"
       id="path258" />
    <path
       d="m 76.045462,126.10655 h -2.676525 l 17.512594,18.13877 -17.512594,18.13878 h 2.676525 l 17.512594,-18.13878 z"
       style="fill:#152f4e;fill-opacity:1;fill-rule:nonzero;stroke:none;stroke-width:0.352778;opacity:0.80970874"
       id="path266" />
    <path
       d="m 68.022026,126.10655 h -2.676525 l 17.512594,18.13877 -17.512594,18.13878 h 2.676525 L 85.53462,144.24532 Z"
       style="fill:#152f4e;fill-opacity:1;fill-rule:nonzero;stroke:none;stroke-width:0.352778;opacity:0.80970874"
       id="path270" />
    <path
       d="m 132.7668,126.68369 -0.55739,-0.57714 h -2.67617 l 3.23356,3.34927 z"
       style="fill:#152f4e;fill-opacity:1;fill-rule:nonzero;stroke:none;stroke-width:0.352778;opacity:0.80970874"
       id="path274" />
    <path
       d="m 132.7668,134.99401 -8.58061,-8.88753 h -2.67653 l 11.25714,11.65966 z"
       style="fill:#152f4e;fill-opacity:1;fill-rule:nonzero;stroke:none;stroke-width:0.352778;opacity:0.80970874"
       id="path278" />
    <path
       d="m 132.7668,143.30439 -16.60419,-17.19792 h -2.67617 l 17.51224,18.13878 -17.5126,18.13913 h 2.67653 l 16.60419,-17.19792 z"
       style="fill:#152f4e;fill-opacity:1;fill-rule:nonzero;stroke:none;stroke-width:0.352778;opacity:0.80970874"
       id="path286" />
    <path
       d="m 132.7668,150.72461 -11.25714,11.65966 h 2.67653 l 8.58061,-8.88753 z"
       style="fill:#152f4e;fill-opacity:1;fill-rule:nonzero;stroke:none;stroke-width:0.352778;opacity:0.80970874"
       id="path290" />
    <path
       d="m 132.7668,159.03482 -3.23391,3.34927 h 2.67652 l 0.55739,-0.57714 z"
       style="fill:#152f4e;fill-opacity:1;fill-rule:nonzero;stroke:none;stroke-width:0.352778;opacity:0.80970874"
       id="path294" />
    <path
       d="M 92.0923,126.10655 H 89.415775 L 106.92837,144.24532 89.415775,162.3841 H 92.0923 l 17.51259,-18.13878 z"
       style="fill:#152f4e;fill-opacity:1;fill-rule:nonzero;stroke:none;stroke-width:0.352778;opacity:0.80970874"
       id="path298" />
    <path
       d="M 84.069075,126.10655 H 81.39255 L 98.905144,144.24532 81.39255,162.3841 h 2.676525 l 17.512595,-18.13878 z"
       style="fill:#152f4e;fill-opacity:1;fill-rule:nonzero;stroke:none;stroke-width:0.352778;opacity:0.80970874"
       id="path302" />
    <path
       d="m 108.1391,126.10655 h -2.67652 l 17.51259,18.13877 -17.51259,18.13878 h 2.67652 l 17.51259,-18.13878 z"
       style="fill:#152f4e;fill-opacity:1;fill-rule:nonzero;stroke:none;stroke-width:0.352778;opacity:0.80970874"
       id="path306" />
    <path
       d="m 100.11591,126.10655 h -2.676525 l 17.512595,18.13877 -17.512595,18.13878 h 2.676525 l 17.51259,-18.13878 z"
       style="fill:#152f4e;fill-opacity:1;fill-rule:nonzero;stroke:none;stroke-width:0.352778;opacity:0.80970874"
       id="path310" />
    <path
       d="M 59.841315,126.10655 H 57.16479 L 74.677384,144.24532 57.16479,162.3841 h 2.676525 l 17.512594,-18.13878 z"
       style="fill:#152f4e;fill-opacity:1;fill-rule:nonzero;stroke:none;stroke-width:0.352778;opacity:0.80970874"
       id="path12999" />
  </g>
</svg>
