<?xml version="1.0" encoding="utf-8"?>
<!-- Generator: Adobe Illustrator 25.4.1, SVG Export Plug-In . SVG Version: 6.00 Build 0)  -->
<!DOCTYPE svg PUBLIC "-//W3C//DTD SVG 1.1//EN" "http://www.w3.org/Graphics/SVG/1.1/DTD/svg11.dtd" [
	<!ENTITY ns_extend "http://ns.adobe.com/Extensibility/1.0/">
	<!ENTITY ns_ai "http://ns.adobe.com/AdobeIllustrator/10.0/">
	<!ENTITY ns_graphs "http://ns.adobe.com/Graphs/1.0/">
	<!ENTITY ns_vars "http://ns.adobe.com/Variables/1.0/">
	<!ENTITY ns_imrep "http://ns.adobe.com/ImageReplacement/1.0/">
	<!ENTITY ns_sfw "http://ns.adobe.com/SaveForWeb/1.0/">
	<!ENTITY ns_custom "http://ns.adobe.com/GenericCustomNamespace/1.0/">
	<!ENTITY ns_adobe_xpath "http://ns.adobe.com/XPath/1.0/">
]>
<svg version="1.1" id="Capa_1" xmlns:x="&ns_extend;" xmlns:i="&ns_ai;" xmlns:graph="&ns_graphs;"
	 xmlns="http://www.w3.org/2000/svg" xmlns:xlink="http://www.w3.org/1999/xlink" x="0px" y="0px" viewBox="0 0 391.1 128.7"
	 style="enable-background:new 0 0 391.1 128.7;" xml:space="preserve">
<style type="text/css">
	.st0{fill:#142F4E;}
	.st1{fill:#FFFFFF;}
	.st2{fill:#CA522A;}
	.st3{fill:#9B1F1E;}
</style>
<metadata>
	<sfw  xmlns="&ns_sfw;">
		<slices></slices>
		<sliceSourceBounds  bottomLeftOrigin="true" height="128.7" width="391.1" x="764.5" y="-604.8"></sliceSourceBounds>
	</sfw>
</metadata>
<g>
	<g>
		<g>
			<rect class="st0" width="128.7" height="128.7"/>
			<g>
				<path class="st1" d="M71.3,21.8c-1.4-0.1-2.7-0.2-4.1-0.3c-0.4,0-0.8,0-1.2,0h-1.6c-0.9,0-1.7,0-2.6,0c-1,0-1.9,0.1-2.8,0.2
					c-4.8,0.4-9.5,1.1-14.2,2.4c-0.1,0.1-0.3,0.1-0.5,0.1c0.1,0.2,0.3,0.2,0.5,0.3c0,0,0.1,0,0.1,0.1c0.2,0.1,0.3,0.3,0.6,0.3
					c0.4,0,0.7,0.1,1.1,0c0.7-0.2,0.8-0.3,1.3,0.2c0.3,0.2,0.3,0.2,0.4,0.6c0.1,0.3,0,0.4,0.3,0.7c0.2,0.2,0.4,0.2,0.6-0.1
					c0.3-0.6,1.1,0.2,1.1,0.5c0,0.6,0.1,0.2,0.3,0.5c0.1,0.1,0.1,0.9,0.6,1.1c0.2,0.1,0.4,0,0.4,0.3c0,0.1,0,0.2-0.1,0.3
					c-0.1,0.2-0.2,0.4-0.2,0.5c-0.3,0.6-0.2,1.2,0.1,1.8c0.1,0.1,0.2,0.3,0.3,0.5c0.2,0.7,0.3,0.8,0.7,1c0.3,0.1,0.6,0.1,0.9,0.2
					c0.2,0,0.3,0,0.5-0.1c0.2-0.1,0.3-0.1,0.5,0c0.4,0.3,0.3,0,0.5-0.3c0.3-0.4,0.4-0.1,0.4-0.8c0-0.1,0.1-0.3,0.4-0.4
					c0.5,0,0.6-0.2,1.1-0.2c0.2,0,0.6,0,0.4,0.5c-0.3,0.3-0.3,0.3-0.4,0.7c0,0.4-0.1,0.5-0.2,0.7c-0.3,0.4-0.1,0.2-0.2,0.6
					c0,0.2-0.1,0.3-0.2,0.4c-0.1,0.2,0.1,0.4,0.4,0.3c0.2-0.1,0.4-0.1,0.7,0c0.3,0,0.5,0,0.7,0c0.4,0,0.7,0,0.9,0.3
					c0.3,0.3,0.2,0.4,0.1,1c-0.1,0.1,0.1,0.3,0,0.4c0,0.3-0.2,0.6-0.2,0.8c0,0.1,0,0.3,0.1,0.4c0.1,0.2,0.2,0.4,0.4,0.5
					c0.2,0.2,0.3,0.3,0.6,0.5c0.8,0.5,0.9,0,1.5-0.1c0.3,0,0.6,0,0.8,0.1c0.2,0.1,0.4,0.2,0.6,0.4c0.2,0.2,0.4,0.3,0.5-0.1
					c0-0.2,0.1-0.3,0.2-0.4c0.2,0,0.1-0.1,0.2-0.3c0,0,0-0.1,0.1-0.1v0v-0.1c0.1-0.4,0.6-0.7,1-0.7h0.1c0.2,0,0.6-0.2,0.7-0.4
					c0.1-0.2,0.7-0.5,0.4,0.1c-0.1,0.2-0.1,0.2-0.1,0.3c0,0.1,0,0.1,0,0.1c0.1,0.2-0.1,0.3-0.1,0.5c0,0.1,0.1,0.1,0.2,0.1
					c0.1,0.1,0.1,0.2,0.2,0.3c0.1,0.1,0.3,0,0.3-0.2v0v-0.1c0-0.1-0.1-0.2-0.1-0.3c0-0.2,0-0.3,0.1-0.4c0,0,0.1-0.1,0.1-0.1
					c0.5-0.3,0.8-0.4,1.1-0.2c0.1,0,0.1,0.1,0.1,0.1c0.4,0.4,0.2,0.4,0.7,0.4c0.4,0,0.5-0.1,0.9,0.1c0.2,0.1,0.9,0.3,1.1,0
					c0.2-0.4,0.7-0.4,0.8-0.1c0.1,0.2,0.2,0.2,0.4,0.3c0,0,0,0,0,0c0.2,0,0.2,0,0.4,0.2c0.2,0.2,0,0.2,0,0.4c0,0.2,0,0.1,0.3,0.1
					c0.5,0,1.1,0.2,1.3,0.7c0.1,0.3,0.4,0.1,0.6,0.3c0.3,0.4,0.2,0.4,0.7,0.4c0.1,0,0.2,0,0.3,0c0.4-0.1,0.6-0.1,0.9,0
					c0.2,0.2,0.3,0.4,0.6,0.3c0.4-0.1,0.5,0.3,0.8,0.5c0.4,0.3,0.6,0.3,0.6,0.9c0,0.4,0,0.3,0.3,0.6c0.3,0.4,0.4,0.5-0.1,0.9
					c-0.4,0.3-0.4,0.5,0.2,0.2c0.2-0.1,0.4,0.1,0.7,0.2c0.2,0.2,0.2,0.3,0,0.4c0,0.5-0.1,0.4,0.3,0.1c0.4-0.4,0.7-0.4,1.2-0.1
					c0.2,0.1,0.4,0.3,0.5,0.4c0.5,0.4,1,0.6,1.6,0.6c0.4,0,0.7,0.2,1,0.1c0.5-0.1,0.9,0.2,1.2,0.6c0.1,0.2,0.4,0.4,0.6,0.5
					c0.6,0.3,0.8-0.1,1.1,0.7c0.5,1.3-0.5,2.3-1.3,3.2c-0.3,0.4-0.2,0.6-0.4,0.9c-0.3,0.3-0.8,0.1-0.7,0.6c0.1,0.2-0.1,0.4-0.2,0.6
					c0,0.1,0,0.2,0,0.3c0,0.3,0.1,0.6-0.1,0.8c0,0.3-0.1,0.5-0.1,0.8c-0.3,0.6-0.5,0.9-0.7,1.3c-0.2,0.2-0.2,0.3-0.4,0.4
					c-0.3,0.2-0.1,0.5-0.3,0.7c-0.1,0.1-0.2,0.1-0.3,0.2c-0.4,0.3-0.4,0.4-0.9,0.4c-1,0-2.4,0.7-3,1.6c-0.2,0.4-0.2,0.6-0.3,0.9
					c-0.1,0.5-0.3,0.4-0.5,0.7c-0.4,0.5-0.4,1.1-0.9,0.9c-0.2,0-0.2,0.1-0.4,0.4c-0.2,0.1-0.3,0.3-0.4,0.5c0,0.2-0.1,0.3-0.3,0.5
					c-0.2,0.2-0.3,0.3-0.5,0.5c-0.3,0.7-0.9,0.6-1.6,0.5c-0.2,0-0.4-0.2-0.7-0.2c-0.4-0.2-0.4,0.1-0.1,0.3c0.1,0.1,0.2,0.1,0.2,0.1
					c0.1,0.3-0.3,0.4,0.1,0.7c0.1,0.2,0,0.4-0.2,0.7c-0.3,0.4-0.7,0.6-1.2,0.7c-0.3,0-0.6,0-0.9,0c-0.6,0-0.4-0.1-0.5,0.4
					c0,0.1-0.1,0.2-0.2,0.4c0,0.5-0.3,0.6-0.7,0.4c-0.7-0.3-0.4-0.3-0.6,0.1c-0.1,0.2-0.1,0.2,0,0.3c0,0.1,0,0.2,0.1,0.2
					c0.1,0,0.1,0,0.1,0c0.2,0,0-0.2,0.3-0.2c0.1,0,0.1,0,0.1,0.1C69.1,68.1,69,68,68.8,68c-0.2,0-0.3,0-0.3,0.2
					c0,0.3-0.2,0.2-0.3,0.5c0,0.1-0.1,0.2-0.1,0.3c-0.1,0.3-0.3,0.2-0.6,0.3c-0.2,0.1-0.3,0.2-0.4,0.3c-0.1,0.2-0.1,0.4,0,0.6
					c0,0,0.1,0.1,0.1,0.1c0.1,0.1,0.1,0.2,0.2,0.2c0.3,0.1,0.3-0.1,0.3,0.2c0,0.3-0.1,0.3-0.4,0.5c-0.1,0.1-0.1,0.1-0.2,0.1
					c-0.1,0.1-0.2,0.1-0.3,0.4c0,0.2-0.1,0.4-0.3,0.4c-0.5,0.2-0.5,0.3-0.4,0.7c0.1,0.4-0.1,0.3-0.3,0.4c-0.1,0-0.2,0.1-0.3,0.1
					c-0.1,0.1-0.2,0.3-0.3,0.4c-0.3,0.2,0.1,0-0.6,0.2c-0.3,0.1-0.3-0.1-0.3-0.4c0-0.1-0.1-0.2-0.1-0.3c0,0-0.1-0.1-0.1-0.1
					c-0.1-0.4,0-0.3-0.3-0.6c-0.3-0.2,0-0.4-0.1-0.6c-0.2-0.3-0.1-0.2-0.2-0.5c0-0.1-0.1-0.2-0.1-0.3c-0.1-0.1-0.1-0.2,0.1-0.3
					c0.2-0.1,0.2-0.1,0.3-0.3c0.2-0.6,0.1-0.2-0.2-0.4c-0.1-0.1,0-0.2,0.1-0.4c0.2-0.3,0.3-0.3,0.4-0.3c0,0,0.1,0,0.1,0
					c0.1-0.1,0.1-0.2,0.2-0.5c0-0.4,0.1-0.6,0.2-0.8c0.1-0.2,0.1-0.4,0-0.6c-0.2-0.4-0.6,0-0.5-0.6c0.1-0.5,0.1-0.4,0.3-0.8
					c0.1-0.2,0-0.4,0-0.6c-0.1-0.6-0.1-0.6,0.2-1.2c0.1-0.2,0.2-0.4,0.3-0.6c0.1-0.2,0.1-0.4,0.1-0.6c0.2-0.1,0.2-0.2,0.2-0.5
					c0-0.4,0.1-0.4,0.1-0.7c0-0.3-0.1-0.2-0.1-0.5c0-0.1,0-0.2,0-0.3c0.1-0.4,0.3-0.2,0.2-0.7c-0.1-0.2,0.1-0.5,0.2-0.7
					c0-0.1,0.1-0.1,0.1-0.1c0.1-0.4,0.2-0.7,0.3-1.2c0.1-0.3,0.1-0.6,0-0.8c0-0.2,0-0.4,0-0.5c0.1-0.3,0.2-0.2,0.1-0.6
					c0-0.2-0.1-0.5,0-0.6c0.1-0.4,0-0.8,0-1.3c0-0.4-0.1-0.6-0.5-0.9c-0.1,0-0.1-0.1-0.2-0.2c-0.4-0.3-0.8-0.6-1.2-0.8
					c-0.1,0-0.1-0.1-0.2-0.1c-0.4-0.1-0.5,0-0.9-0.5c-0.1-0.2-0.2-0.3-0.4-0.4c-0.1-0.3,0.2-0.3,0-0.6c-0.1-0.1-0.3-0.3-0.4-0.4
					c-0.4-0.5-0.7-1.1-0.9-1.6c-0.4-0.8-0.7-1.5-1.4-2c-0.2,0-0.3-0.1-0.2-0.4c0-0.2-0.1-0.4-0.1-0.5c-0.2-0.4,0.4-0.6,0.7-0.8
					c0.2-0.1,0.2-0.3,0-0.5c-0.1,0-0.2-0.1-0.3-0.1c-0.4-0.2-0.3-0.7-0.1-1c0.2-0.2,0.3-0.4,0.3-0.7c0.1-0.4,0.1-0.4,0.3-0.5
					c0.4-0.1,0.3-0.1,0.4-0.5c0-0.3,0-0.3,0.3-0.4c0,0,0.1,0,0.1,0c0.7-0.6,0.6-0.9,0.5-1.7c0-0.4-0.1-0.5-0.3-0.9
					c-0.1-0.2-0.2-0.2-0.3-0.3c0,0,0-0.1,0-0.1c0-0.4,0.1-0.3-0.2-0.7c-0.2-0.2-0.5-0.2-0.7,0.1c0,0.1,0,0.2-0.1,0.2
					c-0.3,0.2-0.2,0-0.1,0.5c0,0.1,0,0.1,0,0.2c-0.4,0.2-0.3-0.2-0.5-0.3c-0.2-0.1-0.2,0.1-0.5-0.2c-0.1-0.1-0.2-0.1-0.4-0.1H59
					c-0.1,0-0.1-0.1-0.2-0.3c-0.1-0.2,0-0.3-0.3-0.4c-0.1,0-0.1,0-0.2,0c-0.3-0.2-0.1-0.2-0.4-0.1c-0.2,0-0.4-0.1-0.4-0.4
					c0.1-0.6,0-0.5-0.6-1c-0.2-0.2-0.3-0.4-0.4-0.6c-0.1-0.3-0.2-0.2-0.5-0.2c-0.2,0-0.6-0.1-0.8-0.2c-0.5-0.3-0.6-0.2-0.9-0.3
					c-0.4-0.1-0.7-0.5-0.9-0.8c-0.2-0.4-0.6-0.6-1.1-0.5c-0.4,0.1-0.4,0.4-0.9,0.4c-0.3-0.1-0.4-0.4-1.1-0.4
					c-0.5-0.1-0.7-0.3-1.1-0.5c-0.5-0.2-0.5-0.5-0.9-0.6c-0.9-0.2-0.4-0.1-0.8-0.5c-0.1-0.1-0.2-0.1-0.3-0.2
					c-0.2-0.2-0.6-0.5-0.4-0.7c0.2-0.3,0.3-0.5,0.2-0.7C47,30.3,47,30.1,47,30c0-0.2-0.4-0.6-0.5-0.7c-0.2-0.3-0.5-0.6-0.7-1
					c-0.9-0.4,0.1-0.5-0.4-0.9c-0.2,0-0.3-0.1-0.3-0.3c-0.1-0.4,0-0.4-0.3-0.7c-0.1-0.1-0.2-0.1-0.2-0.4c-0.1-0.2-0.2-0.4-0.2-0.7
					c0-0.2,0-0.3,0-0.5c0-0.5,0.1-0.4-0.4-0.6c-0.1,0-0.2-0.1-0.3-0.1c0,0-0.1,0-0.1,0c-0.1,0.1-0.1,0.2-0.1,0.4
					c0,0.4,0,0.5,0.1,0.7c0.1,0.1,0.1,0.3,0.2,0.4C44,26.1,44,26,44,26.4c0,0.3,0,0.4,0.1,0.7c0.5,0.6,0.3,0.7,0.5,1.2
					c0,0.3,0,0.4-0.1,0.5c-0.2,0.1-0.4,0-0.5-0.1c-0.2-0.2-0.1-0.3,0.1-0.5c0.2-0.4-0.3-0.7-0.5-0.9c-0.4-0.3-0.6-0.5-0.2-0.9
					c0.3-0.3,0.1-0.5-0.1-0.7c-0.4-0.4-0.4-0.4-0.4-0.7c0-0.3,0-0.4,0-0.5c-2.4,0.7-4.8,1.5-7.2,2.5v41.5c3.1,1.2,6.1,2.2,9.2,3
					c4.7,1.2,9.4,2,14.2,2.4c0.9,0.1,1.9,0.1,2.8,0.2c0.9,0,1.7,0,2.6,0h0.7c0.1,0,0.3-0.1,0.4-0.1c0.6,0.1,0.1-0.4,0.4-0.6
					c0,0,0.1,0,0.1,0c0.3-0.1,0.2,0,0.4,0.2c0.1,0.3,0.3,0.4,0.5,0.5h0.3c1.4-0.1,2.8-0.2,4.1-0.3c7.3-0.7,14.6-2.4,21.8-5.3V27
					C85.9,24.2,78.6,22.5,71.3,21.8 M59.2,30.4c-0.1,0-0.1,0.1-0.2,0.1c-0.1,0.1-0.1,0.1-0.2,0.2c-0.3,0.2-0.4-0.1,0-0.3
					c0.1-0.1,0.2-0.1,0.2-0.1C59.4,30.1,59.7,30.3,59.2,30.4 M63.4,32c-0.3,0-0.3,0-0.5,0c-0.4,0.1-0.5,0-0.4-0.3
					c0.1-0.3-0.5-0.1-0.6-0.3c0,0,0-0.1,0-0.1v0c-0.2-0.3-0.1-0.2-0.6-0.2c-0.1,0-0.3,0-0.4-0.1c-0.2-0.2-0.3-0.3-0.7-0.3
					c-0.3,0-0.5-0.5-0.3-0.6c0.5-0.1,0.3,0.2,0.7,0.2c0.3,0,0.4,0.1,0.6,0.2c0.1,0.1,0.2,0.1,0.5,0.1c0.1,0,0.1,0,0.1,0
					c0.1,0,0.2,0.1,0.4,0.2c0.1,0.1,0.2,0.1,0.2,0.2c0.2,0.2,0.3,0.3,0.5,0.3c0.3,0.1,0.3,0,0.5,0.2C63.8,31.8,64.1,31.9,63.4,32
					 M64.7,33c-0.1,0-0.2,0-0.3,0c-0.2,0-0.3,0-0.3-0.1c0-0.2,0.1-0.1,0.2-0.1h0c0.1,0,0.1,0,0.2,0.1C64.6,32.9,64.6,32.9,64.7,33
					C64.9,32.9,64.8,33,64.7,33 M66.5,32.7c-0.4,0-0.5-0.1-0.5,0.1c0,0.1-0.1,0.1-0.1,0.2c0,0.1-0.1,0.1-0.2,0
					c-0.3-0.1-0.4-0.2-0.4-0.4c0-0.1,0-0.1-0.1-0.2c-0.4-0.9-0.2-0.2,0.7-0.4c0,0,0.1,0,0.1,0c0.3-0.1,0.3-0.1,0.6,0.2
					c0.1,0.1,0.1,0.1,0.2,0.2C67.4,32.7,66.6,32.9,66.5,32.7 M67.2,32.8c-0.1,0-0.1-0.1-0.1-0.1c0-0.1,0.1-0.1,0.1-0.1
					c0.1,0,0.1,0.1,0.1,0.1C67.3,32.7,67.3,32.8,67.2,32.8 M64.4,67.8L64.4,67.8c0.1-0.1,0.1-0.1,0.1-0.2c0-0.1,0.1-0.1,0.1,0.1
					c0,0.2,0,0.5-0.1,0.6c-0.2,0-0.2,0-0.1-0.2C64.3,67.8,64.2,67.9,64.4,67.8 M45,29.5c-0.1,0.1-0.2,0.1-0.2,0c0,0,0,0,0-0.1
					c-0.1-0.3-0.3-0.1-0.2-0.4c0.1-0.2,0.2-0.3,0.3-0.2c0.1,0.1,0.1,0.1,0.2,0.2C45.1,29.3,45.2,29.4,45,29.5 M72,70.4
					c-0.2,0.3-0.2,0.2-0.6,0.1h-0.1c-0.2,0-0.2,0.2-0.5,0.1c-0.2-0.1-0.3-0.3-0.2-0.4c0.1-0.1,0.1-0.2,0.2-0.2c0.2,0.1,0.3,0,0.5,0
					c0.1,0,0.2-0.1,0.2-0.1C72.1,69.9,72.1,70.2,72,70.4"/>
				<polygon class="st1" points="42.4,85.2 42.4,87.1 38.1,87.1 38.1,89.7 42,89.7 42,91.6 38.1,91.6 38.1,95.7 35.6,95.7 
					35.6,85.2 				"/>
				<polygon class="st1" points="44.6,85.2 47.1,85.2 47.1,93.7 50.7,93.7 50.7,95.7 44.6,95.7 				"/>
				<path class="st1" d="M55.8,85.2h2.7l3.8,10.5h-2.7l-0.7-2.2h-3.5l-0.7,2.2H52L55.8,85.2z M55.9,91.6h2.4l-0.4-1.3
					c-0.1-0.4-0.3-0.8-0.4-1.3c-0.1-0.5-0.3-0.9-0.4-1.3h0c-0.1,0.4-0.2,0.8-0.4,1.3c-0.1,0.5-0.3,0.9-0.4,1.3L55.9,91.6z"/>
				<path class="st1" d="M68.6,93.9c0.5,0,0.9,0,1.3-0.1c0.3-0.1,0.6-0.2,0.9-0.3l0.5,1.8c-0.2,0.1-0.6,0.3-1.1,0.4
					c-0.5,0.1-1.1,0.2-1.8,0.2c-0.8,0-1.6-0.1-2.3-0.4c-0.7-0.3-1.3-0.6-1.8-1.1c-0.5-0.5-0.9-1-1.1-1.7c-0.3-0.7-0.4-1.4-0.4-2.3
					c0-0.8,0.1-1.6,0.4-2.2c0.3-0.7,0.6-1.2,1.1-1.7c0.5-0.5,1.1-0.8,1.8-1.1c0.7-0.3,1.5-0.4,2.3-0.4c0.7,0,1.3,0.1,1.8,0.2
					c0.5,0.1,0.8,0.3,1.1,0.4l-0.6,1.8c-0.3-0.1-0.6-0.3-0.9-0.4c-0.3-0.1-0.7-0.2-1.2-0.2c-0.4,0-0.9,0.1-1.2,0.2
					c-0.4,0.1-0.7,0.3-1,0.6c-0.3,0.3-0.5,0.6-0.7,1.1c-0.2,0.4-0.2,1-0.2,1.6c0,0.6,0.1,1.1,0.2,1.5c0.2,0.4,0.4,0.8,0.7,1.1
					c0.3,0.3,0.6,0.5,1,0.7C67.7,93.8,68.1,93.9,68.6,93.9"/>
				<path class="st1" d="M77,85c0.7,0,1.4,0.1,1.9,0.2c0.5,0.1,1,0.3,1.4,0.5l-0.6,1.8c-0.4-0.2-0.9-0.4-1.3-0.5
					c-0.4-0.1-0.9-0.2-1.3-0.2c-0.5,0-0.9,0.1-1.2,0.3c-0.3,0.2-0.4,0.4-0.4,0.8c0,0.4,0.1,0.6,0.4,0.8c0.3,0.2,0.6,0.3,1.2,0.5
					l1,0.3c0.4,0.1,0.7,0.3,1.1,0.5c0.3,0.2,0.6,0.4,0.9,0.7c0.2,0.3,0.4,0.5,0.6,0.9c0.1,0.3,0.2,0.7,0.2,1c0,0.4-0.1,0.9-0.2,1.3
					c-0.2,0.4-0.4,0.7-0.8,1c-0.3,0.3-0.8,0.5-1.3,0.7c-0.5,0.2-1.1,0.3-1.8,0.3c-0.7,0-1.3-0.1-1.9-0.2c-0.6-0.1-1.1-0.3-1.6-0.6
					l0.6-1.8c0.5,0.2,0.9,0.4,1.4,0.5c0.5,0.1,0.9,0.2,1.4,0.2c0.6,0,1-0.1,1.3-0.3c0.3-0.2,0.4-0.5,0.4-0.8c0-0.1,0-0.2-0.1-0.3
					c0-0.1-0.1-0.2-0.3-0.3c-0.1-0.1-0.3-0.2-0.5-0.3c-0.2-0.1-0.5-0.2-0.9-0.3l-0.8-0.3c-0.4-0.1-0.7-0.3-1.1-0.5
					c-0.3-0.2-0.6-0.4-0.9-0.6c-0.2-0.2-0.4-0.5-0.6-0.8C73,89,73,88.6,73,88.2c0-0.5,0.1-0.9,0.3-1.3c0.2-0.4,0.4-0.7,0.8-1
					c0.3-0.3,0.8-0.5,1.2-0.7C75.7,85.1,76.3,85,77,85"/>
				<path class="st1" d="M88,85c0.8,0,1.5,0.1,2.1,0.4c0.6,0.3,1.2,0.6,1.7,1.1c0.5,0.5,0.8,1,1.1,1.7c0.3,0.7,0.4,1.4,0.4,2.3
					c0,0.8-0.1,1.6-0.4,2.2c-0.3,0.7-0.6,1.2-1.1,1.7c-0.5,0.5-1,0.8-1.7,1.1c-0.7,0.2-1.3,0.4-2.1,0.4c-0.8,0-1.5-0.1-2.1-0.4
					c-0.6-0.2-1.2-0.6-1.7-1.1c-0.5-0.5-0.8-1-1.1-1.7c-0.3-0.7-0.4-1.4-0.4-2.3c0-0.8,0.1-1.6,0.4-2.3c0.3-0.7,0.6-1.2,1.1-1.7
					c0.5-0.5,1-0.8,1.7-1.1C86.6,85.1,87.3,85,88,85 M85.4,90.4c0,0.6,0.1,1.1,0.2,1.5c0.1,0.4,0.3,0.8,0.6,1.1
					c0.2,0.3,0.5,0.5,0.8,0.6c0.3,0.1,0.7,0.2,1,0.2c0.4,0,0.7-0.1,1-0.2c0.3-0.1,0.6-0.4,0.8-0.6c0.2-0.3,0.4-0.7,0.5-1.1
					c0.1-0.4,0.2-1,0.2-1.5c0-0.6-0.1-1.1-0.2-1.6c-0.1-0.5-0.3-0.8-0.6-1.1c-0.2-0.3-0.5-0.5-0.8-0.6c-0.3-0.1-0.7-0.2-1-0.2
					c-0.4,0-0.7,0.1-1,0.2c-0.3,0.2-0.6,0.4-0.8,0.7c-0.2,0.3-0.4,0.7-0.5,1.1C85.4,89.3,85.4,89.9,85.4,90.4"/>
				<path class="st1" d="M37.7,101.6h0.6l2.2,5.7h-0.7l-0.6-1.6h-2.4l-0.6,1.6h-0.7L37.7,101.6z M37,105.1H39l-0.4-1.2
					c-0.1-0.2-0.2-0.5-0.3-0.7c-0.1-0.3-0.2-0.6-0.3-0.9h0c0,0.2-0.1,0.3-0.1,0.4c-0.1,0.1-0.1,0.3-0.1,0.4c0,0.1-0.1,0.3-0.1,0.4
					c0,0.1-0.1,0.2-0.2,0.4L37,105.1z"/>
				<path class="st1" d="M43.2,101.6h1.8c0.3,0,0.6,0,0.8,0.1c0.2,0.1,0.4,0.2,0.6,0.3c0.2,0.1,0.3,0.3,0.3,0.5
					c0.1,0.2,0.1,0.4,0.1,0.7c0,0.2,0,0.4-0.1,0.6c-0.1,0.2-0.2,0.3-0.3,0.5c-0.1,0.1-0.2,0.2-0.4,0.3c-0.1,0.1-0.3,0.2-0.5,0.2
					l1.5,2.4h-0.7l-1.4-2.3h-1.1v2.3h-0.6V101.6z M43.8,104.4h0.9c0.2,0,0.4,0,0.6-0.1c0.2,0,0.3-0.1,0.4-0.2
					c0.1-0.1,0.2-0.2,0.3-0.4c0.1-0.1,0.1-0.3,0.1-0.5c0-0.4-0.1-0.7-0.3-0.9c-0.2-0.2-0.6-0.3-1-0.3h-0.9V104.4z"/>
				<path class="st1" d="M52.2,101.6c0.3,0,0.6,0,0.9,0.1c0.3,0,0.5,0.1,0.7,0.3l-0.2,0.5c-0.2-0.1-0.4-0.2-0.6-0.2
					c-0.2-0.1-0.4-0.1-0.7-0.1c-0.3,0-0.6,0-0.8,0.1c-0.3,0.1-0.5,0.2-0.7,0.4c-0.2,0.2-0.4,0.4-0.5,0.7c-0.1,0.3-0.2,0.7-0.2,1.1
					c0,0.4,0.1,0.7,0.2,1c0.1,0.3,0.2,0.5,0.4,0.7c0.2,0.2,0.4,0.3,0.7,0.5c0.3,0.1,0.6,0.2,0.9,0.2c0.2,0,0.4,0,0.6,0
					c0.2,0,0.3-0.1,0.4-0.1v-1.8h-1.1v-0.5h1.8v2.7c-0.2,0.1-0.5,0.2-0.7,0.2c-0.3,0.1-0.6,0.1-1,0.1c-0.4,0-0.7-0.1-1.1-0.2
					c-0.3-0.1-0.6-0.3-0.9-0.5c-0.3-0.2-0.5-0.5-0.6-0.9c-0.1-0.4-0.2-0.8-0.2-1.2c0-0.5,0.1-0.9,0.2-1.2c0.1-0.4,0.3-0.7,0.6-0.9
					c0.2-0.2,0.5-0.4,0.9-0.5C51.4,101.6,51.8,101.6,52.2,101.6"/>
				<polygon class="st1" points="57,101.6 60.3,101.6 60.3,102.1 57.6,102.1 57.6,104 60.1,104 60.1,104.6 57.6,104.6 57.6,106.7 
					60.3,106.7 60.3,107.3 57,107.3 				"/>
				<path class="st1" d="M63.2,101.6h0.6l2.5,3.7c0.1,0.2,0.2,0.3,0.3,0.5c0.1,0.2,0.2,0.3,0.3,0.5h0c0-0.2,0-0.4,0-0.7
					c0-0.2,0-0.4,0-0.7v-3.4h0.6v5.7h-0.6l-2.5-3.6c-0.1-0.2-0.3-0.4-0.4-0.6c-0.1-0.2-0.2-0.4-0.3-0.6h0c0,0.3,0,0.5,0,0.8
					c0,0.3,0,0.5,0,0.8v3.2h-0.6V101.6z"/>
				<polygon class="st1" points="74.6,101.6 74.6,102.1 72.7,102.1 72.7,107.3 72.1,107.3 72.1,102.1 70.3,102.1 70.3,101.6 				"/>
				<rect x="77.2" y="101.6" class="st1" width="0.7" height="5.7"/>
				<path class="st1" d="M81.1,101.6h0.6l2.5,3.7c0.1,0.2,0.2,0.3,0.3,0.5c0.1,0.2,0.2,0.3,0.3,0.5h0c0-0.2,0-0.4,0-0.7
					c0-0.2,0-0.4,0-0.7v-3.4h0.6v5.7h-0.6l-2.5-3.6c-0.1-0.2-0.3-0.4-0.4-0.6c-0.1-0.2-0.2-0.4-0.3-0.6h0c0,0.3,0,0.5,0,0.8
					c0,0.3,0,0.5,0,0.8v3.2h-0.6V101.6z"/>
				<path class="st1" d="M90.4,101.6H91l2.2,5.7h-0.7l-0.6-1.6h-2.4l-0.6,1.6h-0.7L90.4,101.6z M89.6,105.1h2.1l-0.5-1.2
					c-0.1-0.2-0.2-0.5-0.3-0.7c-0.1-0.3-0.2-0.6-0.3-0.9h0c0,0.2-0.1,0.3-0.1,0.4c0,0.1-0.1,0.3-0.1,0.4c0,0.1-0.1,0.3-0.1,0.4
					c0,0.1-0.1,0.2-0.1,0.4L89.6,105.1z"/>
			</g>
		</g>
	</g>
	<g>
		<g>
			<rect x="262.4" class="st2" width="128.7" height="128.7"/>
			<g>
				<path class="st1" d="M283.1,30.4h-2.7v3.5h-1V26h4.1v0.8h-3.1v2.7h2.7V30.4z"/>
				<path class="st1" d="M287.4,33.8c-0.1-0.1-0.1-0.3-0.1-0.6c-0.3,0.5-0.8,0.7-1.3,0.7c-0.5,0-0.9-0.1-1.2-0.4s-0.4-0.7-0.4-1.3
					c0-0.6,0.2-1.1,0.6-1.4c0.4-0.4,1-0.5,1.7-0.5h0.7v-0.6c0-0.4-0.1-0.6-0.2-0.7c-0.2-0.1-0.4-0.2-0.7-0.2c-0.3,0-0.5,0.1-0.7,0.3
					c-0.2,0.2-0.3,0.4-0.3,0.7h-1c0-0.3,0.1-0.6,0.3-0.9c0.2-0.3,0.4-0.5,0.7-0.6c0.3-0.2,0.6-0.2,1-0.2c0.6,0,1.1,0.1,1.4,0.4
					c0.3,0.3,0.5,0.7,0.5,1.3v3c0,0.5,0.1,0.8,0.2,1.2v0.1H287.4z M286.2,33.1c0.2,0,0.5-0.1,0.7-0.2c0.2-0.1,0.4-0.3,0.5-0.5V31
					h-0.5c-0.5,0-0.8,0.1-1.1,0.3c-0.3,0.2-0.4,0.5-0.4,0.8c0,0.3,0.1,0.6,0.2,0.7C285.6,33,285.8,33.1,286.2,33.1z"/>
				<path class="st1" d="M291.8,33.1c0.3,0,0.6-0.1,0.8-0.3c0.2-0.2,0.3-0.5,0.3-0.8h0.9c0,0.6-0.2,1-0.6,1.4
					c-0.4,0.4-0.8,0.6-1.4,0.6c-0.7,0-1.3-0.2-1.7-0.7c-0.4-0.5-0.6-1.1-0.6-2v-0.6c0-0.9,0.2-1.6,0.6-2c0.4-0.5,0.9-0.7,1.7-0.7
					c0.6,0,1.1,0.2,1.4,0.6c0.4,0.4,0.5,0.9,0.6,1.6h-0.9c0-0.4-0.1-0.8-0.3-1c-0.2-0.2-0.4-0.3-0.8-0.3c-0.4,0-0.7,0.1-0.9,0.4
					c-0.2,0.3-0.3,0.7-0.3,1.4v0.7c0,0.7,0.1,1.2,0.3,1.5S291.3,33.1,291.8,33.1z"/>
				<path class="st1" d="M297.9,33.3c-0.3,0.4-0.8,0.6-1.4,0.6c-0.5,0-0.9-0.2-1.2-0.5c-0.3-0.4-0.4-0.9-0.4-1.6V28h1v3.7
					c0,0.9,0.3,1.4,0.8,1.4c0.6,0,1-0.3,1.2-0.8V28h1v5.9h-0.9L297.9,33.3z"/>
				<path class="st1" d="M301.3,33.8h-1v-8.3h1V33.8z"/>
				<path class="st1" d="M304,26.6V28h0.9v0.8H304v3.6c0,0.2,0,0.4,0.1,0.5c0.1,0.1,0.2,0.2,0.4,0.2c0.1,0,0.3,0,0.4-0.1l0,0.8
					c-0.2,0.1-0.4,0.1-0.7,0.1c-0.4,0-0.7-0.1-0.9-0.4c-0.2-0.3-0.3-0.7-0.3-1.1v-3.6h-0.9V28h0.9v-1.4H304z"/>
				<path class="st1" d="M309.1,33.8c-0.1-0.1-0.1-0.3-0.1-0.6c-0.3,0.5-0.8,0.7-1.3,0.7c-0.5,0-0.9-0.1-1.2-0.4s-0.4-0.7-0.4-1.3
					c0-0.6,0.2-1.1,0.6-1.4c0.4-0.4,1-0.5,1.7-0.5h0.7v-0.6c0-0.4-0.1-0.6-0.2-0.7c-0.2-0.1-0.4-0.2-0.7-0.2c-0.3,0-0.5,0.1-0.7,0.3
					c-0.2,0.2-0.3,0.4-0.3,0.7h-1c0-0.3,0.1-0.6,0.3-0.9c0.2-0.3,0.4-0.5,0.7-0.6c0.3-0.2,0.6-0.2,1-0.2c0.6,0,1.1,0.1,1.4,0.4
					c0.3,0.3,0.5,0.7,0.5,1.3v3c0,0.5,0.1,0.8,0.2,1.2v0.1H309.1z M307.8,33.1c0.2,0,0.5-0.1,0.7-0.2c0.2-0.1,0.4-0.3,0.5-0.5V31
					h-0.5c-0.5,0-0.8,0.1-1.1,0.3c-0.3,0.2-0.4,0.5-0.4,0.8c0,0.3,0.1,0.6,0.2,0.7C307.2,33,307.5,33.1,307.8,33.1z"/>
				<path class="st1" d="M311.1,30.7c0-0.9,0.2-1.6,0.5-2.1c0.3-0.5,0.8-0.7,1.5-0.7c0.6,0,1,0.2,1.3,0.7v-3h1v8.3h-0.9l0-0.6
					c-0.3,0.5-0.8,0.7-1.3,0.7c-0.6,0-1.1-0.2-1.4-0.7c-0.3-0.5-0.5-1.1-0.5-2V30.7z M312.1,31.2c0,0.7,0.1,1.1,0.3,1.4
					c0.2,0.3,0.5,0.5,1,0.5c0.5,0,0.8-0.2,1.1-0.7v-3c-0.2-0.5-0.6-0.7-1.1-0.7c-0.4,0-0.8,0.2-1,0.5c-0.2,0.3-0.3,0.8-0.3,1.4V31.2
					z"/>
			</g>
			<g>
				<path class="st1" d="M280.4,44.3h3.1v0.9h-4.1v-7.9h1V44.3z"/>
				<path class="st1" d="M287.6,45.1c-0.1-0.1-0.1-0.3-0.1-0.6c-0.3,0.5-0.8,0.7-1.3,0.7c-0.5,0-0.9-0.1-1.2-0.4s-0.4-0.7-0.4-1.3
					c0-0.6,0.2-1.1,0.6-1.4c0.4-0.4,1-0.5,1.7-0.5h0.7V41c0-0.4-0.1-0.6-0.2-0.7c-0.2-0.1-0.4-0.2-0.7-0.2c-0.3,0-0.5,0.1-0.7,0.3
					c-0.2,0.2-0.3,0.4-0.3,0.7h-1c0-0.3,0.1-0.6,0.3-0.9c0.2-0.3,0.4-0.5,0.7-0.6c0.3-0.2,0.6-0.2,1-0.2c0.6,0,1.1,0.1,1.4,0.4
					c0.3,0.3,0.5,0.7,0.5,1.3v3c0,0.5,0.1,0.8,0.2,1.2v0.1H287.6z M286.3,44.4c0.2,0,0.5-0.1,0.7-0.2c0.2-0.1,0.4-0.3,0.5-0.5v-1.4
					h-0.5c-0.5,0-0.8,0.1-1.1,0.3c-0.3,0.2-0.4,0.5-0.4,0.8c0,0.3,0.1,0.6,0.2,0.7C285.7,44.3,286,44.4,286.3,44.4z"/>
				<path class="st1" d="M291.1,37.9v1.4h0.9v0.8h-0.9v3.6c0,0.2,0,0.4,0.1,0.5c0.1,0.1,0.2,0.2,0.4,0.2c0.1,0,0.3,0,0.4-0.1l0,0.8
					c-0.2,0.1-0.4,0.1-0.7,0.1c-0.4,0-0.7-0.1-0.9-0.4c-0.2-0.3-0.3-0.7-0.3-1.1v-3.6h-0.9v-0.8h0.9v-1.4H291.1z"/>
				<path class="st1" d="M294.2,37.7c0,0.2,0,0.3-0.1,0.4s-0.2,0.2-0.4,0.2c-0.2,0-0.3-0.1-0.4-0.2c-0.1-0.1-0.1-0.2-0.1-0.4
					c0-0.2,0-0.3,0.1-0.4c0.1-0.1,0.2-0.2,0.4-0.2c0.2,0,0.3,0.1,0.4,0.2C294.2,37.4,294.2,37.6,294.2,37.7z M294.2,45.1h-1v-5.9h1
					V45.1z"/>
				<path class="st1" d="M296.6,39.3l0,0.6c0.4-0.5,0.8-0.7,1.4-0.7c1,0,1.6,0.7,1.6,2.1v3.9h-1v-3.8c0-0.5-0.1-0.8-0.2-1
					S298,40,297.7,40c-0.2,0-0.5,0.1-0.6,0.2c-0.2,0.2-0.3,0.4-0.5,0.6v4.3h-1v-5.9H296.6z"/>
				<path class="st1" d="M300.8,41.9c0-0.9,0.2-1.5,0.6-2c0.4-0.5,1-0.7,1.6-0.7s1.2,0.2,1.6,0.7c0.4,0.5,0.6,1.1,0.6,2v0.6
					c0,0.8-0.2,1.5-0.6,2c-0.4,0.5-1,0.7-1.6,0.7c-0.7,0-1.2-0.2-1.6-0.7c-0.4-0.5-0.6-1.1-0.6-1.9V41.9z M301.8,42.5
					c0,0.6,0.1,1.1,0.4,1.4s0.6,0.5,1,0.5c0.8,0,1.3-0.6,1.3-1.8v-0.7c0-0.6-0.1-1.1-0.4-1.4c-0.2-0.3-0.6-0.5-1-0.5
					c-0.4,0-0.7,0.2-0.9,0.5c-0.2,0.3-0.4,0.8-0.4,1.4V42.5z"/>
				<path class="st1" d="M309.6,45.1c-0.1-0.1-0.1-0.3-0.1-0.6c-0.3,0.5-0.8,0.7-1.3,0.7c-0.5,0-0.9-0.1-1.2-0.4s-0.4-0.7-0.4-1.3
					c0-0.6,0.2-1.1,0.6-1.4c0.4-0.4,1-0.5,1.7-0.5h0.7V41c0-0.4-0.1-0.6-0.2-0.7c-0.2-0.1-0.4-0.2-0.7-0.2c-0.3,0-0.5,0.1-0.7,0.3
					c-0.2,0.2-0.3,0.4-0.3,0.7h-1c0-0.3,0.1-0.6,0.3-0.9c0.2-0.3,0.4-0.5,0.7-0.6c0.3-0.2,0.6-0.2,1-0.2c0.6,0,1.1,0.1,1.4,0.4
					c0.3,0.3,0.5,0.7,0.5,1.3v3c0,0.5,0.1,0.8,0.2,1.2v0.1H309.6z M308.3,44.4c0.2,0,0.5-0.1,0.7-0.2c0.2-0.1,0.4-0.3,0.5-0.5v-1.4
					h-0.5c-0.5,0-0.8,0.1-1.1,0.3c-0.3,0.2-0.4,0.5-0.4,0.8c0,0.3,0.1,0.6,0.2,0.7C307.8,44.3,308,44.4,308.3,44.4z"/>
				<path class="st1" d="M312.8,39.3l0,0.5c0.4-0.4,0.8-0.6,1.4-0.6c0.7,0,1.1,0.3,1.4,0.8c0.4-0.6,0.9-0.8,1.5-0.8
					c1.1,0,1.6,0.7,1.7,2v3.9h-1v-3.9c0-0.4-0.1-0.7-0.2-1s-0.4-0.3-0.8-0.3c-0.3,0-0.5,0.1-0.7,0.3c-0.2,0.2-0.3,0.5-0.3,0.9v3.9
					h-1v-3.9c0-0.8-0.3-1.2-1-1.2c-0.5,0-0.8,0.2-1,0.7v4.4h-1v-5.9H312.8z"/>
				<path class="st1" d="M322.4,45.2c-0.7,0-1.3-0.2-1.7-0.7c-0.4-0.4-0.6-1.1-0.6-1.9V42c0-0.9,0.2-1.6,0.6-2.1s0.9-0.7,1.6-0.7
					c0.7,0,1.2,0.2,1.5,0.7c0.3,0.4,0.5,1.1,0.5,2v0.6H321v0.1c0,0.6,0.1,1.1,0.4,1.4s0.6,0.4,1,0.4c0.3,0,0.5-0.1,0.7-0.2
					c0.2-0.1,0.4-0.3,0.6-0.5l0.5,0.6C323.8,45,323.2,45.2,322.4,45.2z M322.2,40c-0.4,0-0.7,0.1-0.9,0.4s-0.3,0.7-0.3,1.3h2.3v-0.1
					c0-0.6-0.1-1-0.3-1.2C322.9,40.1,322.6,40,322.2,40z"/>
				<path class="st1" d="M327.9,40.2c-0.1,0-0.3,0-0.4,0c-0.5,0-0.8,0.3-1,0.8v4.2h-1v-5.9h0.9l0,0.6c0.3-0.5,0.6-0.7,1.1-0.7
					c0.2,0,0.3,0,0.4,0.1L327.9,40.2z"/>
				<path class="st1" d="M329.9,37.7c0,0.2,0,0.3-0.1,0.4s-0.2,0.2-0.4,0.2c-0.2,0-0.3-0.1-0.4-0.2c-0.1-0.1-0.1-0.2-0.1-0.4
					c0-0.2,0-0.3,0.1-0.4c0.1-0.1,0.2-0.2,0.4-0.2c0.2,0,0.3,0.1,0.4,0.2C329.9,37.4,329.9,37.6,329.9,37.7z M329.9,45.1h-1v-5.9h1
					V45.1z"/>
				<path class="st1" d="M333.4,44.4c0.3,0,0.6-0.1,0.8-0.3c0.2-0.2,0.3-0.5,0.3-0.8h0.9c0,0.6-0.2,1-0.6,1.4
					c-0.4,0.4-0.8,0.6-1.4,0.6c-0.7,0-1.3-0.2-1.7-0.7c-0.4-0.5-0.6-1.1-0.6-2v-0.6c0-0.9,0.2-1.6,0.6-2c0.4-0.5,0.9-0.7,1.7-0.7
					c0.6,0,1.1,0.2,1.4,0.6c0.4,0.4,0.5,0.9,0.6,1.6h-0.9c0-0.4-0.1-0.8-0.3-1c-0.2-0.2-0.4-0.3-0.8-0.3c-0.4,0-0.7,0.1-0.9,0.4
					c-0.2,0.3-0.3,0.7-0.3,1.4v0.7c0,0.7,0.1,1.2,0.3,1.5S333,44.4,333.4,44.4z"/>
				<path class="st1" d="M339.5,45.1c-0.1-0.1-0.1-0.3-0.1-0.6c-0.3,0.5-0.8,0.7-1.3,0.7c-0.5,0-0.9-0.1-1.2-0.4s-0.4-0.7-0.4-1.3
					c0-0.6,0.2-1.1,0.6-1.4c0.4-0.4,1-0.5,1.7-0.5h0.7V41c0-0.4-0.1-0.6-0.2-0.7c-0.2-0.1-0.4-0.2-0.7-0.2c-0.3,0-0.5,0.1-0.7,0.3
					c-0.2,0.2-0.3,0.4-0.3,0.7h-1c0-0.3,0.1-0.6,0.3-0.9c0.2-0.3,0.4-0.5,0.7-0.6c0.3-0.2,0.6-0.2,1-0.2c0.6,0,1.1,0.1,1.4,0.4
					c0.3,0.3,0.5,0.7,0.5,1.3v3c0,0.5,0.1,0.8,0.2,1.2v0.1H339.5z M338.2,44.4c0.2,0,0.5-0.1,0.7-0.2c0.2-0.1,0.4-0.3,0.5-0.5v-1.4
					h-0.5c-0.5,0-0.8,0.1-1.1,0.3c-0.3,0.2-0.4,0.5-0.4,0.8c0,0.3,0.1,0.6,0.2,0.7C337.7,44.3,337.9,44.4,338.2,44.4z"/>
				<path class="st1" d="M342.7,39.3l0,0.6c0.4-0.5,0.8-0.7,1.4-0.7c1,0,1.6,0.7,1.6,2.1v3.9h-1v-3.8c0-0.5-0.1-0.8-0.2-1
					s-0.4-0.3-0.7-0.3c-0.2,0-0.5,0.1-0.6,0.2c-0.2,0.2-0.3,0.4-0.5,0.6v4.3h-1v-5.9H342.7z"/>
				<path class="st1" d="M350.2,45.1c-0.1-0.1-0.1-0.3-0.1-0.6c-0.3,0.5-0.8,0.7-1.3,0.7c-0.5,0-0.9-0.1-1.2-0.4s-0.4-0.7-0.4-1.3
					c0-0.6,0.2-1.1,0.6-1.4c0.4-0.4,1-0.5,1.7-0.5h0.7V41c0-0.4-0.1-0.6-0.2-0.7c-0.2-0.1-0.4-0.2-0.7-0.2c-0.3,0-0.5,0.1-0.7,0.3
					c-0.2,0.2-0.3,0.4-0.3,0.7h-1c0-0.3,0.1-0.6,0.3-0.9c0.2-0.3,0.4-0.5,0.7-0.6c0.3-0.2,0.6-0.2,1-0.2c0.6,0,1.1,0.1,1.4,0.4
					c0.3,0.3,0.5,0.7,0.5,1.3v3c0,0.5,0.1,0.8,0.2,1.2v0.1H350.2z M348.9,44.4c0.2,0,0.5-0.1,0.7-0.2c0.2-0.1,0.4-0.3,0.5-0.5v-1.4
					h-0.5c-0.5,0-0.8,0.1-1.1,0.3c-0.3,0.2-0.4,0.5-0.4,0.8c0,0.3,0.1,0.6,0.2,0.7C348.4,44.3,348.6,44.4,348.9,44.4z"/>
				<path class="st1" d="M354.8,41.9c0-0.9,0.2-1.6,0.5-2.1c0.3-0.5,0.8-0.7,1.5-0.7c0.6,0,1,0.2,1.3,0.7v-3h1v8.3h-0.9l0-0.6
					c-0.3,0.5-0.8,0.7-1.3,0.7c-0.6,0-1.1-0.2-1.4-0.7c-0.3-0.5-0.5-1.1-0.5-2V41.9z M355.8,42.5c0,0.7,0.1,1.1,0.3,1.4
					c0.2,0.3,0.5,0.5,1,0.5c0.5,0,0.8-0.2,1.1-0.7v-3c-0.2-0.5-0.6-0.7-1.1-0.7c-0.4,0-0.8,0.2-1,0.5c-0.2,0.3-0.3,0.8-0.3,1.4V42.5
					z"/>
				<path class="st1" d="M362.6,45.2c-0.7,0-1.3-0.2-1.7-0.7c-0.4-0.4-0.6-1.1-0.6-1.9V42c0-0.9,0.2-1.6,0.6-2.1s0.9-0.7,1.6-0.7
					c0.7,0,1.2,0.2,1.5,0.7c0.3,0.4,0.5,1.1,0.5,2v0.6h-3.3v0.1c0,0.6,0.1,1.1,0.4,1.4s0.6,0.4,1,0.4c0.3,0,0.5-0.1,0.7-0.2
					c0.2-0.1,0.4-0.3,0.6-0.5l0.5,0.6C364.1,45,363.5,45.2,362.6,45.2z M362.5,40c-0.4,0-0.7,0.1-0.9,0.4s-0.3,0.7-0.3,1.3h2.3v-0.1
					c0-0.6-0.1-1-0.3-1.2C363.1,40.1,362.9,40,362.5,40z"/>
			</g>
			<g>
				<path class="st1" d="M284.4,53.9c0,0.8-0.3,1.5-0.7,1.9c-0.4,0.4-1,0.7-1.8,0.7c-0.8,0-1.4-0.3-1.9-0.9
					c-0.5-0.6-0.7-1.4-0.7-2.4v-1.4c0-1,0.2-1.8,0.7-2.4s1.1-0.9,2-0.9c0.8,0,1.4,0.2,1.8,0.7c0.4,0.5,0.6,1.1,0.7,2h-1
					c0-0.6-0.2-1.1-0.4-1.4s-0.6-0.4-1-0.4c-0.5,0-1,0.2-1.2,0.6c-0.3,0.4-0.4,1-0.4,1.8v1.4c0,0.8,0.1,1.4,0.4,1.8
					c0.3,0.4,0.7,0.6,1.2,0.6c0.5,0,0.9-0.1,1.1-0.4c0.2-0.3,0.4-0.7,0.4-1.4H284.4z"/>
				<path class="st1" d="M286.7,49c0,0.2,0,0.3-0.1,0.4s-0.2,0.2-0.4,0.2c-0.2,0-0.3-0.1-0.4-0.2c-0.1-0.1-0.1-0.2-0.1-0.4
					c0-0.2,0-0.3,0.1-0.4c0.1-0.1,0.2-0.2,0.4-0.2c0.2,0,0.3,0.1,0.4,0.2C286.6,48.7,286.7,48.9,286.7,49z M286.6,56.4h-1v-5.9h1
					V56.4z"/>
				<path class="st1" d="M290.2,56.5c-0.7,0-1.3-0.2-1.7-0.7c-0.4-0.4-0.6-1.1-0.6-1.9v-0.7c0-0.9,0.2-1.6,0.6-2.1s0.9-0.7,1.6-0.7
					c0.7,0,1.2,0.2,1.5,0.7c0.3,0.4,0.5,1.1,0.5,2v0.6h-3.3v0.1c0,0.6,0.1,1.1,0.4,1.4s0.6,0.4,1,0.4c0.3,0,0.5-0.1,0.7-0.2
					c0.2-0.1,0.4-0.3,0.6-0.5l0.5,0.6C291.7,56.2,291.1,56.5,290.2,56.5z M290.1,51.3c-0.4,0-0.7,0.1-0.9,0.4s-0.3,0.7-0.3,1.3h2.3
					v-0.1c0-0.6-0.1-1-0.3-1.2C290.7,51.4,290.4,51.3,290.1,51.3z"/>
				<path class="st1" d="M294.2,50.6l0,0.6c0.4-0.5,0.8-0.7,1.4-0.7c1,0,1.6,0.7,1.6,2.1v3.9h-1v-3.8c0-0.5-0.1-0.8-0.2-1
					s-0.4-0.3-0.7-0.3c-0.2,0-0.5,0.1-0.6,0.2c-0.2,0.2-0.3,0.4-0.5,0.6v4.3h-1v-5.9H294.2z"/>
				<path class="st1" d="M300.7,55.7c0.3,0,0.6-0.1,0.8-0.3c0.2-0.2,0.3-0.5,0.3-0.8h0.9c0,0.6-0.2,1-0.6,1.4
					c-0.4,0.4-0.8,0.6-1.4,0.6c-0.7,0-1.3-0.2-1.7-0.7c-0.4-0.5-0.6-1.1-0.6-2v-0.6c0-0.9,0.2-1.6,0.6-2c0.4-0.5,0.9-0.7,1.7-0.7
					c0.6,0,1.1,0.2,1.4,0.6c0.4,0.4,0.5,0.9,0.6,1.6h-0.9c0-0.4-0.1-0.8-0.3-1c-0.2-0.2-0.4-0.3-0.8-0.3c-0.4,0-0.7,0.1-0.9,0.4
					c-0.2,0.3-0.3,0.7-0.3,1.4v0.7c0,0.7,0.1,1.2,0.3,1.5S300.3,55.7,300.7,55.7z"/>
				<path class="st1" d="M304.9,49c0,0.2,0,0.3-0.1,0.4s-0.2,0.2-0.4,0.2c-0.2,0-0.3-0.1-0.4-0.2c-0.1-0.1-0.1-0.2-0.1-0.4
					c0-0.2,0-0.3,0.1-0.4c0.1-0.1,0.2-0.2,0.4-0.2c0.2,0,0.3,0.1,0.4,0.2C304.8,48.7,304.9,48.9,304.9,49z M304.8,56.4h-1v-5.9h1
					V56.4z"/>
				<path class="st1" d="M309.3,56.4c-0.1-0.1-0.1-0.3-0.1-0.6c-0.3,0.5-0.8,0.7-1.3,0.7c-0.5,0-0.9-0.1-1.2-0.4s-0.4-0.7-0.4-1.3
					c0-0.6,0.2-1.1,0.6-1.4c0.4-0.4,1-0.5,1.7-0.5h0.7v-0.6c0-0.4-0.1-0.6-0.2-0.7c-0.2-0.1-0.4-0.2-0.7-0.2c-0.3,0-0.5,0.1-0.7,0.3
					c-0.2,0.2-0.3,0.4-0.3,0.7h-1c0-0.3,0.1-0.6,0.3-0.9c0.2-0.3,0.4-0.5,0.7-0.6c0.3-0.2,0.6-0.2,1-0.2c0.6,0,1.1,0.1,1.4,0.4
					c0.3,0.3,0.5,0.7,0.5,1.3v3c0,0.5,0.1,0.8,0.2,1.2v0.1H309.3z M308.1,55.7c0.2,0,0.5-0.1,0.7-0.2c0.2-0.1,0.4-0.3,0.5-0.5v-1.4
					h-0.5c-0.5,0-0.8,0.1-1.1,0.3c-0.3,0.2-0.4,0.5-0.4,0.8c0,0.3,0.1,0.6,0.2,0.7C307.5,55.6,307.7,55.7,308.1,55.7z"/>
				<path class="st1" d="M314.5,54.9c0-0.2-0.1-0.4-0.2-0.5c-0.2-0.1-0.5-0.3-0.9-0.5c-0.5-0.2-0.9-0.4-1.1-0.5
					c-0.2-0.2-0.4-0.3-0.5-0.5s-0.2-0.4-0.2-0.7c0-0.5,0.2-0.9,0.5-1.2c0.3-0.3,0.8-0.5,1.3-0.5c0.6,0,1,0.2,1.4,0.5
					c0.3,0.3,0.5,0.8,0.5,1.3h-1c0-0.3-0.1-0.5-0.3-0.7s-0.4-0.3-0.7-0.3c-0.3,0-0.5,0.1-0.7,0.2c-0.2,0.1-0.2,0.3-0.2,0.6
					c0,0.2,0.1,0.4,0.2,0.5c0.1,0.1,0.4,0.3,0.8,0.5c0.7,0.3,1.2,0.6,1.5,0.8c0.3,0.3,0.4,0.6,0.4,1c0,0.5-0.2,0.9-0.5,1.2
					s-0.8,0.5-1.4,0.5c-0.6,0-1.1-0.2-1.5-0.5c-0.4-0.3-0.6-0.8-0.6-1.3h1c0,0.3,0.1,0.6,0.3,0.8c0.2,0.2,0.5,0.3,0.8,0.3
					c0.3,0,0.6-0.1,0.7-0.2S314.5,55.2,314.5,54.9z"/>
				<path class="st1" d="M322.8,54.4c0-0.4-0.1-0.7-0.3-0.9c-0.2-0.2-0.6-0.4-1.2-0.6s-1-0.4-1.3-0.6c-0.3-0.2-0.5-0.5-0.7-0.7
					c-0.1-0.3-0.2-0.6-0.2-1c0-0.6,0.2-1.1,0.6-1.5s1-0.6,1.6-0.6c0.5,0,0.9,0.1,1.2,0.3c0.4,0.2,0.6,0.5,0.8,0.9
					c0.2,0.4,0.3,0.8,0.3,1.2h-1c0-0.5-0.1-0.9-0.4-1.1c-0.2-0.3-0.6-0.4-1-0.4c-0.4,0-0.7,0.1-0.9,0.3c-0.2,0.2-0.3,0.5-0.3,0.9
					c0,0.3,0.1,0.6,0.4,0.8c0.2,0.2,0.6,0.4,1.1,0.6c0.8,0.3,1.3,0.6,1.7,0.9c0.3,0.4,0.5,0.9,0.5,1.5c0,0.6-0.2,1.2-0.6,1.5
					c-0.4,0.4-1,0.6-1.7,0.6c-0.5,0-0.9-0.1-1.3-0.3c-0.4-0.2-0.7-0.5-0.9-0.8c-0.2-0.4-0.3-0.8-0.3-1.2h1c0,0.5,0.1,0.9,0.4,1.1
					c0.3,0.3,0.6,0.4,1.1,0.4c0.4,0,0.8-0.1,1-0.3C322.7,55.1,322.8,54.8,322.8,54.4z"/>
				<path class="st1" d="M324.8,53.2c0-0.9,0.2-1.5,0.6-2c0.4-0.5,1-0.7,1.6-0.7s1.2,0.2,1.6,0.7c0.4,0.5,0.6,1.1,0.6,2v0.6
					c0,0.8-0.2,1.5-0.6,2c-0.4,0.5-1,0.7-1.6,0.7c-0.7,0-1.2-0.2-1.6-0.7c-0.4-0.5-0.6-1.1-0.6-1.9V53.2z M325.7,53.8
					c0,0.6,0.1,1.1,0.4,1.4s0.6,0.5,1,0.5c0.8,0,1.3-0.6,1.3-1.8v-0.7c0-0.6-0.1-1.1-0.4-1.4c-0.2-0.3-0.6-0.5-1-0.5
					c-0.4,0-0.7,0.2-0.9,0.5c-0.2,0.3-0.4,0.8-0.4,1.4V53.8z"/>
				<path class="st1" d="M332.6,55.7c0.3,0,0.6-0.1,0.8-0.3c0.2-0.2,0.3-0.5,0.3-0.8h0.9c0,0.6-0.2,1-0.6,1.4
					c-0.4,0.4-0.8,0.6-1.4,0.6c-0.7,0-1.3-0.2-1.7-0.7c-0.4-0.5-0.6-1.1-0.6-2v-0.6c0-0.9,0.2-1.6,0.6-2c0.4-0.5,0.9-0.7,1.7-0.7
					c0.6,0,1.1,0.2,1.4,0.6c0.4,0.4,0.5,0.9,0.6,1.6h-0.9c0-0.4-0.1-0.8-0.3-1c-0.2-0.2-0.4-0.3-0.8-0.3c-0.4,0-0.7,0.1-0.9,0.4
					c-0.2,0.3-0.3,0.7-0.3,1.4v0.7c0,0.7,0.1,1.2,0.3,1.5S332.1,55.7,332.6,55.7z"/>
				<path class="st1" d="M336.8,49c0,0.2,0,0.3-0.1,0.4s-0.2,0.2-0.4,0.2c-0.2,0-0.3-0.1-0.4-0.2c-0.1-0.1-0.1-0.2-0.1-0.4
					c0-0.2,0-0.3,0.1-0.4c0.1-0.1,0.2-0.2,0.4-0.2c0.2,0,0.3,0.1,0.4,0.2C336.7,48.7,336.8,48.9,336.8,49z M336.7,56.4h-1v-5.9h1
					V56.4z"/>
				<path class="st1" d="M341.2,56.4c-0.1-0.1-0.1-0.3-0.1-0.6c-0.3,0.5-0.8,0.7-1.3,0.7c-0.5,0-0.9-0.1-1.2-0.4s-0.4-0.7-0.4-1.3
					c0-0.6,0.2-1.1,0.6-1.4c0.4-0.4,1-0.5,1.7-0.5h0.7v-0.6c0-0.4-0.1-0.6-0.2-0.7c-0.2-0.1-0.4-0.2-0.7-0.2c-0.3,0-0.5,0.1-0.7,0.3
					c-0.2,0.2-0.3,0.4-0.3,0.7h-1c0-0.3,0.1-0.6,0.3-0.9c0.2-0.3,0.4-0.5,0.7-0.6c0.3-0.2,0.6-0.2,1-0.2c0.6,0,1.1,0.1,1.4,0.4
					c0.3,0.3,0.5,0.7,0.5,1.3v3c0,0.5,0.1,0.8,0.2,1.2v0.1H341.2z M339.9,55.7c0.2,0,0.5-0.1,0.7-0.2c0.2-0.1,0.4-0.3,0.5-0.5v-1.4
					h-0.5c-0.5,0-0.8,0.1-1.1,0.3c-0.3,0.2-0.4,0.5-0.4,0.8c0,0.3,0.1,0.6,0.2,0.7C339.4,55.6,339.6,55.7,339.9,55.7z"/>
				<path class="st1" d="M344.5,56.4h-1v-8.3h1V56.4z"/>
				<path class="st1" d="M348.1,56.5c-0.7,0-1.3-0.2-1.7-0.7c-0.4-0.4-0.6-1.1-0.6-1.9v-0.7c0-0.9,0.2-1.6,0.6-2.1s0.9-0.7,1.6-0.7
					c0.7,0,1.2,0.2,1.5,0.7c0.3,0.4,0.5,1.1,0.5,2v0.6h-3.3v0.1c0,0.6,0.1,1.1,0.4,1.4s0.6,0.4,1,0.4c0.3,0,0.5-0.1,0.7-0.2
					c0.2-0.1,0.4-0.3,0.6-0.5l0.5,0.6C349.6,56.2,349,56.5,348.1,56.5z M348,51.3c-0.4,0-0.7,0.1-0.9,0.4s-0.3,0.7-0.3,1.3h2.3v-0.1
					c0-0.6-0.1-1-0.3-1.2C348.7,51.4,348.4,51.3,348,51.3z"/>
				<path class="st1" d="M354.1,54.9c0-0.2-0.1-0.4-0.2-0.5c-0.2-0.1-0.5-0.3-0.9-0.5c-0.5-0.2-0.9-0.4-1.1-0.5
					c-0.2-0.2-0.4-0.3-0.5-0.5s-0.2-0.4-0.2-0.7c0-0.5,0.2-0.9,0.5-1.2c0.3-0.3,0.8-0.5,1.3-0.5c0.6,0,1,0.2,1.4,0.5
					c0.3,0.3,0.5,0.8,0.5,1.3h-1c0-0.3-0.1-0.5-0.3-0.7s-0.4-0.3-0.7-0.3c-0.3,0-0.5,0.1-0.7,0.2c-0.2,0.1-0.2,0.3-0.2,0.6
					c0,0.2,0.1,0.4,0.2,0.5c0.1,0.1,0.4,0.3,0.8,0.5c0.7,0.3,1.2,0.6,1.5,0.8c0.3,0.3,0.4,0.6,0.4,1c0,0.5-0.2,0.9-0.5,1.2
					s-0.8,0.5-1.4,0.5c-0.6,0-1.1-0.2-1.5-0.5c-0.4-0.3-0.6-0.8-0.6-1.3h1c0,0.3,0.1,0.6,0.3,0.8c0.2,0.2,0.5,0.3,0.8,0.3
					c0.3,0,0.6-0.1,0.7-0.2S354.1,55.2,354.1,54.9z"/>
				<path class="st1" d="M356.4,55.9c0-0.2,0.1-0.3,0.2-0.4c0.1-0.1,0.3-0.2,0.5-0.2c0.2,0,0.4,0.1,0.5,0.2c0.1,0.1,0.2,0.3,0.2,0.4
					c0,0.2-0.1,0.3-0.2,0.4c-0.1,0.1-0.3,0.2-0.5,0.2c-0.2,0-0.4-0.1-0.5-0.2C356.4,56.2,356.4,56.1,356.4,55.9z"/>
			</g>
			<g>
				<path class="st1" d="M282.9,65.7c0-0.4-0.1-0.7-0.3-0.9c-0.2-0.2-0.6-0.4-1.2-0.6s-1-0.4-1.3-0.6c-0.3-0.2-0.5-0.5-0.7-0.7
					c-0.1-0.3-0.2-0.6-0.2-1c0-0.6,0.2-1.1,0.6-1.5s1-0.6,1.6-0.6c0.5,0,0.9,0.1,1.2,0.3c0.4,0.2,0.6,0.5,0.8,0.9
					c0.2,0.4,0.3,0.8,0.3,1.2h-1c0-0.5-0.1-0.9-0.4-1.1c-0.2-0.3-0.6-0.4-1-0.4c-0.4,0-0.7,0.1-0.9,0.3c-0.2,0.2-0.3,0.5-0.3,0.9
					c0,0.3,0.1,0.6,0.4,0.8c0.2,0.2,0.6,0.4,1.1,0.6c0.8,0.3,1.3,0.6,1.7,0.9c0.3,0.4,0.5,0.9,0.5,1.5c0,0.6-0.2,1.2-0.6,1.5
					c-0.4,0.4-1,0.6-1.7,0.6c-0.5,0-0.9-0.1-1.3-0.3c-0.4-0.2-0.7-0.5-0.9-0.8c-0.2-0.4-0.3-0.8-0.3-1.2h1c0,0.5,0.1,0.9,0.4,1.1
					c0.3,0.3,0.6,0.4,1.1,0.4c0.4,0,0.8-0.1,1-0.3C282.7,66.4,282.9,66.1,282.9,65.7z"/>
				<path class="st1" d="M287.1,67.8c-0.7,0-1.3-0.2-1.7-0.7c-0.4-0.4-0.6-1.1-0.6-1.9v-0.7c0-0.9,0.2-1.6,0.6-2.1s0.9-0.7,1.6-0.7
					c0.7,0,1.2,0.2,1.5,0.7c0.3,0.4,0.5,1.1,0.5,2v0.6h-3.3v0.1c0,0.6,0.1,1.1,0.4,1.4s0.6,0.4,1,0.4c0.3,0,0.5-0.1,0.7-0.2
					c0.2-0.1,0.4-0.3,0.6-0.5l0.5,0.6C288.6,67.5,288,67.8,287.1,67.8z M287,62.6c-0.4,0-0.7,0.1-0.9,0.4s-0.3,0.7-0.3,1.3h2.3v-0.1
					c0-0.6-0.1-1-0.3-1.2C287.6,62.7,287.4,62.6,287,62.6z"/>
				<path class="st1" d="M290,64.5c0-0.9,0.2-1.6,0.5-2.1c0.3-0.5,0.8-0.7,1.5-0.7c0.6,0,1,0.2,1.3,0.7v-3h1v8.3h-0.9l0-0.6
					c-0.3,0.5-0.8,0.7-1.3,0.7c-0.6,0-1.1-0.2-1.4-0.7c-0.3-0.5-0.5-1.1-0.5-2V64.5z M291,65.1c0,0.7,0.1,1.1,0.3,1.4
					c0.2,0.3,0.5,0.5,1,0.5c0.5,0,0.8-0.2,1.1-0.7v-3c-0.2-0.5-0.6-0.7-1.1-0.7c-0.4,0-0.8,0.2-1,0.5c-0.2,0.3-0.3,0.8-0.3,1.4V65.1
					z"/>
				<path class="st1" d="M297.8,67.8c-0.7,0-1.3-0.2-1.7-0.7c-0.4-0.4-0.6-1.1-0.6-1.9v-0.7c0-0.9,0.2-1.6,0.6-2.1s0.9-0.7,1.6-0.7
					c0.7,0,1.2,0.2,1.5,0.7c0.3,0.4,0.5,1.1,0.5,2v0.6h-3.3v0.1c0,0.6,0.1,1.1,0.4,1.4s0.6,0.4,1,0.4c0.3,0,0.5-0.1,0.7-0.2
					c0.2-0.1,0.4-0.3,0.6-0.5l0.5,0.6C299.3,67.5,298.7,67.8,297.8,67.8z M297.7,62.6c-0.4,0-0.7,0.1-0.9,0.4s-0.3,0.7-0.3,1.3h2.3
					v-0.1c0-0.6-0.1-1-0.3-1.2C298.3,62.7,298.1,62.6,297.7,62.6z"/>
				<path class="st1" d="M307.3,65.7h-2.7l-0.6,2.1h-1l2.5-7.9h0.8l2.5,7.9h-1L307.3,65.7z M304.9,64.8h2.1l-1.1-3.6L304.9,64.8z"/>
				<path class="st1" d="M312.3,62.8c-0.1,0-0.3,0-0.4,0c-0.5,0-0.8,0.3-1,0.8v4.2h-1v-5.9h0.9l0,0.6c0.3-0.5,0.6-0.7,1.1-0.7
					c0.2,0,0.3,0,0.4,0.1L312.3,62.8z"/>
				<path class="st1" d="M312.9,64.5c0-0.9,0.2-1.6,0.5-2.1c0.3-0.5,0.8-0.7,1.5-0.7c0.6,0,1,0.3,1.4,0.8l0-0.7h0.9v5.9
					c0,0.7-0.2,1.3-0.6,1.7S315.7,70,315,70c-0.3,0-0.6-0.1-1-0.2c-0.4-0.1-0.6-0.3-0.8-0.5l0.4-0.7c0.4,0.4,0.8,0.6,1.3,0.6
					c0.8,0,1.2-0.4,1.2-1.3v-0.8c-0.3,0.5-0.8,0.7-1.3,0.7c-0.6,0-1.1-0.2-1.4-0.7c-0.3-0.5-0.5-1.1-0.5-2V64.5z M313.9,65.1
					c0,0.7,0.1,1.1,0.3,1.4s0.5,0.5,1,0.5c0.5,0,0.8-0.2,1.1-0.7v-2.9c-0.2-0.5-0.6-0.7-1.1-0.7c-0.4,0-0.8,0.2-1,0.5
					c-0.2,0.3-0.3,0.8-0.3,1.4V65.1z"/>
				<path class="st1" d="M320.7,67.8c-0.7,0-1.3-0.2-1.7-0.7c-0.4-0.4-0.6-1.1-0.6-1.9v-0.7c0-0.9,0.2-1.6,0.6-2.1s0.9-0.7,1.6-0.7
					c0.7,0,1.2,0.2,1.5,0.7c0.3,0.4,0.5,1.1,0.5,2v0.6h-3.3v0.1c0,0.6,0.1,1.1,0.4,1.4s0.6,0.4,1,0.4c0.3,0,0.5-0.1,0.7-0.2
					c0.2-0.1,0.4-0.3,0.6-0.5l0.5,0.6C322.2,67.5,321.5,67.8,320.7,67.8z M320.6,62.6c-0.4,0-0.7,0.1-0.9,0.4s-0.3,0.7-0.3,1.3h2.3
					v-0.1c0-0.6-0.1-1-0.3-1.2C321.2,62.7,320.9,62.6,320.6,62.6z"/>
				<path class="st1" d="M324.7,61.9l0,0.6c0.4-0.5,0.8-0.7,1.4-0.7c1,0,1.6,0.7,1.6,2.1v3.9h-1v-3.8c0-0.5-0.1-0.8-0.2-1
					s-0.4-0.3-0.7-0.3c-0.2,0-0.5,0.1-0.6,0.2c-0.2,0.2-0.3,0.4-0.5,0.6v4.3h-1v-5.9H324.7z"/>
				<path class="st1" d="M330.4,60.4v1.4h0.9v0.8h-0.9v3.6c0,0.2,0,0.4,0.1,0.5c0.1,0.1,0.2,0.2,0.4,0.2c0.1,0,0.3,0,0.4-0.1l0,0.8
					c-0.2,0.1-0.4,0.1-0.7,0.1c-0.4,0-0.7-0.1-0.9-0.4c-0.2-0.3-0.3-0.7-0.3-1.1v-3.6h-0.9v-0.8h0.9v-1.4H330.4z"/>
				<path class="st1" d="M333.5,60.3c0,0.2,0,0.3-0.1,0.4s-0.2,0.2-0.4,0.2c-0.2,0-0.3-0.1-0.4-0.2c-0.1-0.1-0.1-0.2-0.1-0.4
					c0-0.2,0-0.3,0.1-0.4c0.1-0.1,0.2-0.2,0.4-0.2c0.2,0,0.3,0.1,0.4,0.2C333.5,60,333.5,60.1,333.5,60.3z M333.4,67.7h-1v-5.9h1
					V67.7z"/>
				<path class="st1" d="M335.9,61.9l0,0.6c0.4-0.5,0.8-0.7,1.4-0.7c1,0,1.6,0.7,1.6,2.1v3.9h-1v-3.8c0-0.5-0.1-0.8-0.2-1
					s-0.4-0.3-0.7-0.3c-0.2,0-0.5,0.1-0.6,0.2c-0.2,0.2-0.3,0.4-0.5,0.6v4.3h-1v-5.9H335.9z"/>
				<path class="st1" d="M343.3,67.7c-0.1-0.1-0.1-0.3-0.1-0.6c-0.3,0.5-0.8,0.7-1.3,0.7c-0.5,0-0.9-0.1-1.2-0.4s-0.4-0.7-0.4-1.3
					c0-0.6,0.2-1.1,0.6-1.4c0.4-0.4,1-0.5,1.7-0.5h0.7v-0.6c0-0.4-0.1-0.6-0.2-0.7c-0.2-0.1-0.4-0.2-0.7-0.2c-0.3,0-0.5,0.1-0.7,0.3
					c-0.2,0.2-0.3,0.4-0.3,0.7h-1c0-0.3,0.1-0.6,0.3-0.9c0.2-0.3,0.4-0.5,0.7-0.6c0.3-0.2,0.6-0.2,1-0.2c0.6,0,1.1,0.1,1.4,0.4
					c0.3,0.3,0.5,0.7,0.5,1.3v3c0,0.5,0.1,0.8,0.2,1.2v0.1H343.3z M342.1,67c0.2,0,0.5-0.1,0.7-0.2c0.2-0.1,0.4-0.3,0.5-0.5v-1.4
					h-0.5c-0.5,0-0.8,0.1-1.1,0.3c-0.3,0.2-0.4,0.5-0.4,0.8c0,0.3,0.1,0.6,0.2,0.7C341.5,66.9,341.7,67,342.1,67z"/>
				<path class="st1" d="M345.7,67.2c0-0.2,0.1-0.3,0.2-0.4c0.1-0.1,0.3-0.2,0.5-0.2c0.2,0,0.4,0.1,0.5,0.2c0.1,0.1,0.2,0.3,0.2,0.4
					c0,0.2-0.1,0.3-0.2,0.4c-0.1,0.1-0.3,0.2-0.5,0.2c-0.2,0-0.4-0.1-0.5-0.2C345.7,67.5,345.7,67.4,345.7,67.2z"/>
			</g>
			<g>
				<path class="st1" d="M280.8,88.2V91h-1.6v-8h2.7c0.8,0,1.4,0.2,1.9,0.7c0.5,0.5,0.7,1.1,0.7,1.9s-0.2,1.4-0.7,1.9
					s-1.1,0.7-1.9,0.7H280.8z M280.8,86.8h1.1c0.3,0,0.5-0.1,0.7-0.3c0.2-0.2,0.3-0.5,0.3-0.9c0-0.4-0.1-0.7-0.3-1
					c-0.2-0.2-0.4-0.4-0.7-0.4h-1.1V86.8z"/>
				<path class="st1" d="M288.4,86.5l-0.5,0c-0.4,0-0.7,0.2-0.9,0.6V91h-1.6V85h1.5l0,0.6c0.2-0.5,0.6-0.8,1-0.8
					c0.2,0,0.3,0,0.4,0.1L288.4,86.5z"/>
				<path class="st1" d="M289,87.8c0-0.9,0.2-1.6,0.6-2.1c0.4-0.5,1-0.8,1.8-0.8c0.8,0,1.3,0.3,1.8,0.8c0.4,0.5,0.6,1.2,0.6,2.1v0.4
					c0,0.9-0.2,1.6-0.6,2.1c-0.4,0.5-1,0.8-1.8,0.8c-0.8,0-1.4-0.3-1.8-0.8c-0.4-0.5-0.6-1.2-0.6-2.1V87.8z M290.6,88.2
					c0,1.1,0.3,1.6,0.8,1.6c0.5,0,0.8-0.4,0.8-1.3l0-0.7c0-0.5-0.1-0.9-0.2-1.2c-0.1-0.3-0.4-0.4-0.6-0.4c-0.3,0-0.5,0.1-0.6,0.4
					c-0.1,0.3-0.2,0.7-0.2,1.2V88.2z"/>
				<path class="st1" d="M294.6,87.8c0-1,0.2-1.7,0.5-2.2s0.8-0.7,1.5-0.7c0.5,0,1,0.2,1.2,0.6l0.1-0.5h1.4V91
					c0,0.8-0.2,1.3-0.6,1.7c-0.4,0.4-1,0.6-1.8,0.6c-0.3,0-0.7-0.1-1-0.2c-0.4-0.1-0.6-0.3-0.8-0.5l0.5-1.1c0.1,0.2,0.3,0.3,0.6,0.4
					c0.2,0.1,0.5,0.1,0.7,0.1c0.3,0,0.6-0.1,0.7-0.2c0.2-0.2,0.2-0.4,0.2-0.8v-0.5c-0.3,0.4-0.7,0.6-1.2,0.6c-0.6,0-1.1-0.2-1.5-0.7
					c-0.3-0.5-0.5-1.2-0.5-2.1V87.8z M296.2,88.2c0,0.5,0.1,0.9,0.2,1.2s0.4,0.4,0.7,0.4c0.3,0,0.6-0.1,0.7-0.3v-2.8
					c-0.2-0.3-0.4-0.4-0.7-0.4c-0.3,0-0.5,0.1-0.7,0.4c-0.1,0.3-0.2,0.7-0.2,1.2V88.2z"/>
				<path class="st1" d="M303.4,86.5l-0.5,0c-0.4,0-0.7,0.2-0.9,0.6V91h-1.6V85h1.5l0,0.6c0.2-0.5,0.6-0.8,1-0.8
					c0.2,0,0.3,0,0.4,0.1L303.4,86.5z"/>
				<path class="st1" d="M307,91c0-0.1-0.1-0.2-0.1-0.5c-0.3,0.4-0.7,0.6-1.1,0.6c-0.5,0-0.9-0.2-1.2-0.5c-0.3-0.3-0.5-0.8-0.5-1.3
					c0-0.6,0.2-1.1,0.6-1.4c0.4-0.3,1-0.5,1.7-0.5h0.5v-0.5c0-0.3,0-0.5-0.1-0.6c-0.1-0.1-0.2-0.2-0.4-0.2c-0.4,0-0.6,0.2-0.6,0.7
					h-1.5c0-0.5,0.2-1,0.6-1.4s0.9-0.5,1.6-0.5c0.6,0,1.2,0.2,1.5,0.5c0.4,0.3,0.5,0.8,0.5,1.4v2.8c0,0.5,0.1,0.9,0.2,1.2V91H307z
					 M306.1,89.9c0.2,0,0.3,0,0.4-0.1c0.1-0.1,0.2-0.2,0.3-0.2v-1.2h-0.4c-0.3,0-0.5,0.1-0.6,0.3c-0.2,0.2-0.2,0.4-0.2,0.7
					C305.6,89.7,305.7,89.9,306.1,89.9z"/>
				<path class="st1" d="M310.9,85l0,0.5c0.3-0.4,0.8-0.7,1.4-0.7c0.6,0,1,0.3,1.3,0.8c0.3-0.5,0.8-0.8,1.5-0.8c1,0,1.6,0.7,1.6,2.2
					V91h-1.5v-3.8c0-0.3,0-0.6-0.1-0.7c-0.1-0.1-0.3-0.2-0.5-0.2c-0.3,0-0.5,0.2-0.6,0.5l0,0.2v4h-1.5v-3.8c0-0.3,0-0.6-0.1-0.7
					c-0.1-0.2-0.3-0.2-0.5-0.2c-0.3,0-0.5,0.1-0.6,0.4V91h-1.6V85H310.9z"/>
				<path class="st1" d="M320.6,91c0-0.1-0.1-0.2-0.1-0.5c-0.3,0.4-0.7,0.6-1.1,0.6c-0.5,0-0.9-0.2-1.2-0.5
					c-0.3-0.3-0.5-0.8-0.5-1.3c0-0.6,0.2-1.1,0.6-1.4c0.4-0.3,1-0.5,1.7-0.5h0.5v-0.5c0-0.3,0-0.5-0.1-0.6c-0.1-0.1-0.2-0.2-0.4-0.2
					c-0.4,0-0.6,0.2-0.6,0.7h-1.5c0-0.5,0.2-1,0.6-1.4s0.9-0.5,1.6-0.5c0.6,0,1.2,0.2,1.5,0.5c0.4,0.3,0.5,0.8,0.5,1.4v2.8
					c0,0.5,0.1,0.9,0.2,1.2V91H320.6z M319.7,89.9c0.2,0,0.3,0,0.4-0.1c0.1-0.1,0.2-0.2,0.3-0.2v-1.2H320c-0.3,0-0.5,0.1-0.6,0.3
					c-0.2,0.2-0.2,0.4-0.2,0.7C319.2,89.7,319.3,89.9,319.7,89.9z"/>
				<path class="st1" d="M283.3,101h-2.5v2.1h3v1.3h-4.6v-8h4.6v1.3h-3v1.9h2.5V101z"/>
				<path class="st1" d="M284.4,101.3c0-1,0.2-1.7,0.5-2.2c0.3-0.5,0.8-0.7,1.4-0.7c0.5,0,0.8,0.2,1.1,0.6v-3h1.6v8.4h-1.4l-0.1-0.6
					c-0.3,0.5-0.7,0.7-1.2,0.7c-0.6,0-1.1-0.2-1.4-0.7c-0.3-0.5-0.5-1.2-0.5-2.1V101.3z M286,101.7c0,0.6,0.1,1,0.2,1.2
					c0.1,0.2,0.3,0.3,0.6,0.3c0.3,0,0.5-0.1,0.7-0.4v-2.7c-0.2-0.3-0.4-0.4-0.7-0.4c-0.3,0-0.5,0.1-0.6,0.3
					c-0.1,0.2-0.2,0.6-0.2,1.2V101.7z"/>
				<path class="st1" d="M293.1,103.9c-0.3,0.4-0.8,0.7-1.3,0.7c-0.5,0-1-0.2-1.2-0.6c-0.3-0.4-0.4-0.9-0.4-1.6v-3.8h1.6v3.9
					c0,0.6,0.2,0.9,0.6,0.9c0.4,0,0.6-0.2,0.8-0.5v-4.3h1.6v5.9h-1.5L293.1,103.9z"/>
				<path class="st1" d="M297.9,103.3c0.4,0,0.7-0.3,0.7-0.9h1.5c0,0.6-0.2,1.2-0.6,1.6c-0.4,0.4-0.9,0.6-1.5,0.6
					c-0.8,0-1.3-0.2-1.7-0.7s-0.6-1.2-0.6-2.1v-0.5c0-0.9,0.2-1.6,0.6-2.1c0.4-0.5,1-0.7,1.8-0.7c0.7,0,1.2,0.2,1.5,0.6
					s0.6,1,0.6,1.7h-1.5c0-0.3-0.1-0.6-0.2-0.8c-0.1-0.2-0.3-0.3-0.5-0.3c-0.3,0-0.5,0.1-0.6,0.3c-0.1,0.2-0.2,0.6-0.2,1.1v0.6
					c0,0.5,0,0.8,0.1,1c0,0.2,0.1,0.3,0.2,0.4C297.5,103.2,297.7,103.3,297.9,103.3z"/>
				<path class="st1" d="M303.7,104.4c0-0.1-0.1-0.2-0.1-0.5c-0.3,0.4-0.7,0.6-1.1,0.6c-0.5,0-0.9-0.2-1.2-0.5
					c-0.3-0.3-0.5-0.8-0.5-1.3c0-0.6,0.2-1.1,0.6-1.4c0.4-0.3,1-0.5,1.7-0.5h0.5v-0.5c0-0.3,0-0.5-0.1-0.6c-0.1-0.1-0.2-0.2-0.4-0.2
					c-0.4,0-0.6,0.2-0.6,0.7h-1.5c0-0.5,0.2-1,0.6-1.4s0.9-0.5,1.6-0.5c0.6,0,1.2,0.2,1.5,0.5c0.4,0.3,0.5,0.8,0.5,1.4v2.8
					c0,0.5,0.1,0.9,0.2,1.2v0.1H303.7z M302.8,103.3c0.2,0,0.3,0,0.4-0.1c0.1-0.1,0.2-0.2,0.3-0.2v-1.2h-0.4c-0.3,0-0.5,0.1-0.6,0.3
					c-0.2,0.2-0.2,0.4-0.2,0.7C302.3,103.1,302.4,103.3,302.8,103.3z"/>
				<path class="st1" d="M308.3,103.3c0.4,0,0.7-0.3,0.7-0.9h1.5c0,0.6-0.2,1.2-0.6,1.6c-0.4,0.4-0.9,0.6-1.5,0.6
					c-0.8,0-1.3-0.2-1.7-0.7s-0.6-1.2-0.6-2.1v-0.5c0-0.9,0.2-1.6,0.6-2.1c0.4-0.5,1-0.7,1.8-0.7c0.7,0,1.2,0.2,1.5,0.6
					s0.6,1,0.6,1.7H309c0-0.3-0.1-0.6-0.2-0.8c-0.1-0.2-0.3-0.3-0.5-0.3c-0.3,0-0.5,0.1-0.6,0.3c-0.1,0.2-0.2,0.6-0.2,1.1v0.6
					c0,0.5,0,0.8,0.1,1c0,0.2,0.1,0.3,0.2,0.4C307.9,103.2,308.1,103.3,308.3,103.3z"/>
				<path class="st1" d="M311.3,97c0-0.2,0.1-0.4,0.2-0.6s0.4-0.2,0.6-0.2c0.3,0,0.5,0.1,0.6,0.2s0.2,0.4,0.2,0.6
					c0,0.2-0.1,0.4-0.2,0.6c-0.2,0.2-0.4,0.2-0.6,0.2c-0.3,0-0.5-0.1-0.6-0.2C311.4,97.4,311.3,97.2,311.3,97z M312.9,104.4h-1.6
					v-5.9h1.6V104.4z"/>
				<path class="st1" d="M314,101.3c0-0.9,0.2-1.6,0.6-2.1c0.4-0.5,1-0.8,1.8-0.8c0.8,0,1.3,0.3,1.8,0.8c0.4,0.5,0.6,1.2,0.6,2.1
					v0.4c0,0.9-0.2,1.6-0.6,2.1c-0.4,0.5-1,0.8-1.8,0.8c-0.8,0-1.4-0.3-1.8-0.8c-0.4-0.5-0.6-1.2-0.6-2.1V101.3z M315.5,101.7
					c0,1.1,0.3,1.6,0.8,1.6c0.5,0,0.8-0.4,0.8-1.3l0-0.7c0-0.5-0.1-0.9-0.2-1.2c-0.1-0.3-0.4-0.4-0.6-0.4c-0.3,0-0.5,0.1-0.6,0.4
					c-0.1,0.3-0.2,0.7-0.2,1.2V101.7z M316.7,96h1.7l-1.5,1.7h-1.3L316.7,96z"/>
				<path class="st1" d="M321.1,98.5l0,0.6c0.4-0.5,0.8-0.7,1.4-0.7c1,0,1.5,0.7,1.6,2.1v3.9h-1.6v-3.8c0-0.3-0.1-0.6-0.2-0.7
					c-0.1-0.2-0.3-0.2-0.5-0.2c-0.3,0-0.5,0.1-0.7,0.4v4.3h-1.6v-5.9H321.1z"/>
				<path class="st1" d="M330.6,104.4c0-0.1-0.1-0.2-0.1-0.5c-0.3,0.4-0.7,0.6-1.1,0.6c-0.5,0-0.9-0.2-1.2-0.5
					c-0.3-0.3-0.5-0.8-0.5-1.3c0-0.6,0.2-1.1,0.6-1.4c0.4-0.3,1-0.5,1.7-0.5h0.5v-0.5c0-0.3,0-0.5-0.1-0.6c-0.1-0.1-0.2-0.2-0.4-0.2
					c-0.4,0-0.6,0.2-0.6,0.7h-1.5c0-0.5,0.2-1,0.6-1.4s0.9-0.5,1.6-0.5c0.6,0,1.2,0.2,1.5,0.5c0.4,0.3,0.5,0.8,0.5,1.4v2.8
					c0,0.5,0.1,0.9,0.2,1.2v0.1H330.6z M329.7,103.3c0.2,0,0.3,0,0.4-0.1c0.1-0.1,0.2-0.2,0.3-0.2v-1.2h-0.4c-0.3,0-0.5,0.1-0.6,0.3
					c-0.2,0.2-0.2,0.4-0.2,0.7C329.2,103.1,329.4,103.3,329.7,103.3z"/>
				<path class="st1" d="M335.8,104.4v-8h2.1c0.9,0,1.7,0.3,2.2,0.9c0.6,0.6,0.8,1.4,0.8,2.4v1.3c0,1-0.3,1.9-0.8,2.5
					c-0.6,0.6-1.3,0.9-2.3,0.9H335.8z M337.4,97.8v5.3h0.5c0.5,0,0.9-0.1,1.1-0.4c0.2-0.3,0.3-0.8,0.3-1.5v-1.4
					c0-0.7-0.1-1.3-0.3-1.6c-0.2-0.3-0.6-0.4-1.1-0.5H337.4z"/>
				<path class="st1" d="M342,97c0-0.2,0.1-0.4,0.2-0.6s0.4-0.2,0.6-0.2c0.3,0,0.5,0.1,0.6,0.2s0.2,0.4,0.2,0.6
					c0,0.2-0.1,0.4-0.2,0.6c-0.2,0.2-0.4,0.2-0.6,0.2c-0.3,0-0.5-0.1-0.6-0.2C342.1,97.4,342,97.2,342,97z M343.7,104.4h-1.6v-5.9
					h1.6V104.4z"/>
				<path class="st1" d="M347.5,102.8c0-0.1-0.1-0.3-0.2-0.4c-0.1-0.1-0.4-0.3-0.8-0.5c-0.6-0.3-1.1-0.5-1.3-0.8s-0.4-0.6-0.4-1
					c0-0.5,0.2-0.9,0.6-1.3c0.4-0.3,0.9-0.5,1.5-0.5c0.7,0,1.2,0.2,1.6,0.5s0.6,0.8,0.6,1.4h-1.5c0-0.5-0.2-0.7-0.6-0.7
					c-0.2,0-0.3,0.1-0.4,0.2c-0.1,0.1-0.2,0.2-0.2,0.4c0,0.1,0.1,0.2,0.2,0.3c0.1,0.1,0.4,0.2,0.8,0.4c0.6,0.2,1.1,0.5,1.3,0.8
					c0.3,0.3,0.4,0.7,0.4,1.1c0,0.5-0.2,1-0.6,1.3c-0.4,0.3-0.9,0.5-1.6,0.5c-0.4,0-0.8-0.1-1.2-0.3c-0.3-0.2-0.6-0.4-0.8-0.7
					c-0.2-0.3-0.3-0.6-0.3-1h1.5c0,0.3,0.1,0.5,0.2,0.6c0.1,0.1,0.3,0.2,0.6,0.2C347.3,103.4,347.5,103.2,347.5,102.8z"/>
				<path class="st1" d="M351.7,97.1v1.5h0.8v1.2h-0.8v2.9c0,0.2,0,0.4,0.1,0.5c0.1,0.1,0.2,0.1,0.4,0.1c0.1,0,0.3,0,0.4,0l0,1.2
					c-0.3,0.1-0.5,0.1-0.9,0.1c-1,0-1.5-0.6-1.5-1.7v-3.2h-0.7v-1.2h0.7v-1.5H351.7z"/>
				<path class="st1" d="M356.2,104.4c0-0.1-0.1-0.2-0.1-0.5c-0.3,0.4-0.7,0.6-1.1,0.6c-0.5,0-0.9-0.2-1.2-0.5
					c-0.3-0.3-0.5-0.8-0.5-1.3c0-0.6,0.2-1.1,0.6-1.4c0.4-0.3,1-0.5,1.7-0.5h0.5v-0.5c0-0.3,0-0.5-0.1-0.6c-0.1-0.1-0.2-0.2-0.4-0.2
					c-0.4,0-0.6,0.2-0.6,0.7h-1.5c0-0.5,0.2-1,0.6-1.4s0.9-0.5,1.6-0.5c0.6,0,1.2,0.2,1.5,0.5c0.4,0.3,0.5,0.8,0.5,1.4v2.8
					c0,0.5,0.1,0.9,0.2,1.2v0.1H356.2z M355.3,103.3c0.2,0,0.3,0,0.4-0.1c0.1-0.1,0.2-0.2,0.3-0.2v-1.2h-0.4c-0.3,0-0.5,0.1-0.6,0.3
					c-0.2,0.2-0.2,0.4-0.2,0.7C354.8,103.1,354.9,103.3,355.3,103.3z"/>
				<path class="st1" d="M360.1,98.5l0,0.6c0.4-0.5,0.8-0.7,1.4-0.7c1,0,1.5,0.7,1.6,2.1v3.9h-1.6v-3.8c0-0.3-0.1-0.6-0.2-0.7
					c-0.1-0.2-0.3-0.2-0.5-0.2c-0.3,0-0.5,0.1-0.7,0.4v4.3h-1.6v-5.9H360.1z"/>
				<path class="st1" d="M366.3,103.3c0.4,0,0.7-0.3,0.7-0.9h1.5c0,0.6-0.2,1.2-0.6,1.6c-0.4,0.4-0.9,0.6-1.5,0.6
					c-0.8,0-1.3-0.2-1.7-0.7s-0.6-1.2-0.6-2.1v-0.5c0-0.9,0.2-1.6,0.6-2.1c0.4-0.5,1-0.7,1.8-0.7c0.7,0,1.2,0.2,1.5,0.6
					s0.6,1,0.6,1.7H367c0-0.3-0.1-0.6-0.2-0.8c-0.1-0.2-0.3-0.3-0.5-0.3c-0.3,0-0.5,0.1-0.6,0.3c-0.1,0.2-0.2,0.6-0.2,1.1v0.6
					c0,0.5,0,0.8,0.1,1c0,0.2,0.1,0.3,0.2,0.4C366,103.2,366.1,103.3,366.3,103.3z"/>
				<path class="st1" d="M369.4,97c0-0.2,0.1-0.4,0.2-0.6s0.4-0.2,0.6-0.2c0.3,0,0.5,0.1,0.6,0.2s0.2,0.4,0.2,0.6
					c0,0.2-0.1,0.4-0.2,0.6c-0.2,0.2-0.4,0.2-0.6,0.2c-0.3,0-0.5-0.1-0.6-0.2C369.4,97.4,369.4,97.2,369.4,97z M371,104.4h-1.6v-5.9
					h1.6V104.4z"/>
				<path class="st1" d="M375,104.4c0-0.1-0.1-0.2-0.1-0.5c-0.3,0.4-0.7,0.6-1.1,0.6c-0.5,0-0.9-0.2-1.2-0.5
					c-0.3-0.3-0.5-0.8-0.5-1.3c0-0.6,0.2-1.1,0.6-1.4c0.4-0.3,1-0.5,1.7-0.5h0.5v-0.5c0-0.3,0-0.5-0.1-0.6c-0.1-0.1-0.2-0.2-0.4-0.2
					c-0.4,0-0.6,0.2-0.6,0.7h-1.5c0-0.5,0.2-1,0.6-1.4s0.9-0.5,1.6-0.5c0.6,0,1.2,0.2,1.5,0.5c0.4,0.3,0.5,0.8,0.5,1.4v2.8
					c0,0.5,0.1,0.9,0.2,1.2v0.1H375z M374.1,103.3c0.2,0,0.3,0,0.4-0.1c0.1-0.1,0.2-0.2,0.3-0.2v-1.2h-0.4c-0.3,0-0.5,0.1-0.6,0.3
					c-0.2,0.2-0.2,0.4-0.2,0.7C373.6,103.1,373.7,103.3,374.1,103.3z"/>
				<path class="st1" d="M377.6,103.6c0-0.2,0.1-0.5,0.2-0.6c0.2-0.2,0.4-0.2,0.6-0.2c0.3,0,0.5,0.1,0.6,0.2
					c0.2,0.2,0.3,0.4,0.3,0.6c0,0.3-0.1,0.5-0.3,0.6c-0.2,0.2-0.4,0.2-0.6,0.2c-0.3,0-0.5-0.1-0.6-0.2
					C377.7,104.1,377.6,103.9,377.6,103.6z"/>
			</g>
		</g>
	</g>
	<g>
		<rect x="131.5" class="st3" width="128.2" height="128.2"/>
		<g>
			<path class="st1" d="M157.5,27.7h-2.7v3.5h-1v-7.9h4.1v0.9h-3.1v2.7h2.7V27.7z"/>
			<path class="st1" d="M162,31.2c-0.1-0.1-0.1-0.3-0.1-0.6c-0.3,0.5-0.8,0.8-1.3,0.8c-0.5,0-1-0.2-1.3-0.5
				c-0.3-0.3-0.4-0.7-0.4-1.3c0-0.6,0.2-1.1,0.6-1.4s1-0.5,1.7-0.5h0.7V27c0-0.4-0.1-0.6-0.2-0.8s-0.4-0.2-0.7-0.2
				c-0.3,0-0.5,0.1-0.7,0.3c-0.2,0.2-0.3,0.4-0.3,0.7h-1c0-0.3,0.1-0.6,0.3-0.9c0.2-0.3,0.4-0.5,0.7-0.6s0.6-0.2,1-0.2
				c0.6,0,1.1,0.2,1.4,0.5s0.5,0.7,0.5,1.3v3c0,0.5,0.1,0.8,0.2,1.2v0.1H162z M160.7,30.4c0.2,0,0.5-0.1,0.7-0.2
				c0.2-0.1,0.4-0.3,0.5-0.5v-1.4h-0.5c-0.5,0-0.8,0.1-1.1,0.3s-0.4,0.5-0.4,0.8c0,0.3,0.1,0.6,0.2,0.7
				C160.1,30.4,160.4,30.4,160.7,30.4z"/>
			<path class="st1" d="M166.3,30.5c0.3,0,0.6-0.1,0.8-0.3c0.2-0.2,0.3-0.5,0.3-0.8h0.9c0,0.6-0.2,1-0.6,1.4
				c-0.4,0.4-0.8,0.6-1.4,0.6c-0.7,0-1.3-0.2-1.7-0.7c-0.4-0.5-0.6-1.1-0.6-2.1v-0.6c0-0.9,0.2-1.6,0.6-2c0.4-0.5,0.9-0.7,1.7-0.7
				c0.6,0,1.1,0.2,1.4,0.6s0.5,0.9,0.6,1.6h-0.9c0-0.4-0.1-0.8-0.3-1c-0.2-0.2-0.4-0.3-0.8-0.3c-0.4,0-0.7,0.1-1,0.4
				s-0.3,0.7-0.3,1.4v0.8c0,0.7,0.1,1.2,0.3,1.5C165.6,30.4,165.9,30.5,166.3,30.5z"/>
			<path class="st1" d="M172.5,30.7c-0.3,0.4-0.8,0.6-1.4,0.6c-0.5,0-0.9-0.2-1.2-0.6s-0.4-0.9-0.4-1.6v-3.8h1v3.8
				c0,0.9,0.3,1.4,0.8,1.4c0.6,0,1-0.3,1.2-0.8v-4.4h1v5.9h-0.9L172.5,30.7z"/>
			<path class="st1" d="M175.9,31.2h-1v-8.4h1V31.2z"/>
			<path class="st1" d="M178.7,23.9v1.4h0.9v0.8h-0.9v3.7c0,0.2,0,0.4,0.1,0.5s0.2,0.2,0.4,0.2c0.1,0,0.3,0,0.4-0.1l0,0.8
				c-0.2,0.1-0.4,0.1-0.7,0.1c-0.4,0-0.7-0.1-0.9-0.4s-0.3-0.7-0.3-1.2v-3.7h-0.9v-0.8h0.9v-1.4H178.7z"/>
			<path class="st1" d="M183.7,31.2c-0.1-0.1-0.1-0.3-0.1-0.6c-0.3,0.5-0.8,0.8-1.3,0.8c-0.5,0-1-0.2-1.3-0.5
				c-0.3-0.3-0.4-0.7-0.4-1.3c0-0.6,0.2-1.1,0.6-1.4s1-0.5,1.7-0.5h0.7V27c0-0.4-0.1-0.6-0.2-0.8S183,26,182.6,26
				c-0.3,0-0.5,0.1-0.7,0.3c-0.2,0.2-0.3,0.4-0.3,0.7h-1c0-0.3,0.1-0.6,0.3-0.9c0.2-0.3,0.4-0.5,0.7-0.6s0.6-0.2,1-0.2
				c0.6,0,1.1,0.2,1.4,0.5s0.5,0.7,0.5,1.3v3c0,0.5,0.1,0.8,0.2,1.2v0.1H183.7z M182.4,30.4c0.2,0,0.5-0.1,0.7-0.2
				c0.2-0.1,0.4-0.3,0.5-0.5v-1.4H183c-0.5,0-0.8,0.1-1.1,0.3s-0.4,0.5-0.4,0.8c0,0.3,0.1,0.6,0.2,0.7
				C181.9,30.4,182.1,30.4,182.4,30.4z"/>
			<path class="st1" d="M185.8,28c0-0.9,0.2-1.6,0.5-2.1s0.8-0.7,1.5-0.7c0.6,0,1,0.2,1.3,0.7v-3.1h1v8.4h-0.9l0-0.6
				c-0.3,0.5-0.8,0.7-1.4,0.7c-0.6,0-1.1-0.2-1.4-0.7c-0.3-0.5-0.5-1.1-0.5-2V28z M186.8,28.5c0,0.7,0.1,1.1,0.3,1.5s0.5,0.5,1,0.5
				c0.5,0,0.8-0.2,1.1-0.7v-3c-0.2-0.5-0.6-0.7-1.1-0.7c-0.4,0-0.8,0.2-1,0.5s-0.3,0.8-0.3,1.4V28.5z"/>
		</g>
		<g>
			<path class="st1" d="M154.9,43.7h3.1v0.9h-4.1v-7.9h1V43.7z"/>
			<path class="st1" d="M162.1,44.6c-0.1-0.1-0.1-0.3-0.1-0.6c-0.3,0.5-0.8,0.8-1.3,0.8c-0.5,0-1-0.2-1.3-0.5
				c-0.3-0.3-0.4-0.7-0.4-1.3c0-0.6,0.2-1.1,0.6-1.4s1-0.5,1.7-0.5h0.7v-0.6c0-0.4-0.1-0.6-0.2-0.8s-0.4-0.2-0.7-0.2
				c-0.3,0-0.5,0.1-0.7,0.3c-0.2,0.2-0.3,0.4-0.3,0.7h-1c0-0.3,0.1-0.6,0.3-0.9c0.2-0.3,0.4-0.5,0.7-0.6s0.6-0.2,1-0.2
				c0.6,0,1.1,0.2,1.4,0.5s0.5,0.7,0.5,1.3v3c0,0.5,0.1,0.8,0.2,1.2v0.1H162.1z M160.8,43.8c0.2,0,0.5-0.1,0.7-0.2
				c0.2-0.1,0.4-0.3,0.5-0.5v-1.4h-0.5c-0.5,0-0.8,0.1-1.1,0.3s-0.4,0.5-0.4,0.8c0,0.3,0.1,0.6,0.2,0.7
				C160.2,43.7,160.5,43.8,160.8,43.8z"/>
			<path class="st1" d="M165.7,37.2v1.4h0.9v0.8h-0.9v3.7c0,0.2,0,0.4,0.1,0.5s0.2,0.2,0.4,0.2c0.1,0,0.3,0,0.4-0.1l0,0.8
				c-0.2,0.1-0.4,0.1-0.7,0.1c-0.4,0-0.7-0.1-0.9-0.4s-0.3-0.7-0.3-1.2v-3.7h-0.9v-0.8h0.9v-1.4H165.7z"/>
			<path class="st1" d="M168.8,37.1c0,0.2,0,0.3-0.1,0.4c-0.1,0.1-0.2,0.2-0.4,0.2c-0.2,0-0.3-0.1-0.4-0.2s-0.1-0.2-0.1-0.4
				s0-0.3,0.1-0.4c0.1-0.1,0.2-0.2,0.4-0.2s0.3,0.1,0.4,0.2C168.8,36.8,168.8,36.9,168.8,37.1z M168.7,44.6h-1v-5.9h1V44.6z"/>
			<path class="st1" d="M171.2,38.7l0,0.6c0.4-0.5,0.9-0.7,1.4-0.7c1,0,1.6,0.7,1.6,2.1v3.9h-1v-3.9c0-0.5-0.1-0.8-0.2-1
				c-0.2-0.2-0.4-0.3-0.7-0.3c-0.2,0-0.5,0.1-0.6,0.2c-0.2,0.2-0.3,0.4-0.5,0.6v4.3h-1v-5.9H171.2z"/>
			<path class="st1" d="M175.5,41.3c0-0.9,0.2-1.5,0.6-2s1-0.8,1.7-0.8s1.2,0.2,1.6,0.7s0.6,1.2,0.6,2v0.6c0,0.9-0.2,1.5-0.6,2
				c-0.4,0.5-1,0.7-1.7,0.7c-0.7,0-1.2-0.2-1.6-0.7c-0.4-0.5-0.6-1.1-0.6-2V41.3z M176.4,41.9c0,0.6,0.1,1.1,0.4,1.4s0.6,0.5,1,0.5
				c0.9,0,1.3-0.6,1.3-1.8v-0.7c0-0.6-0.1-1.1-0.4-1.4s-0.6-0.5-1-0.5c-0.4,0-0.7,0.2-1,0.5s-0.4,0.8-0.4,1.4V41.9z"/>
			<path class="st1" d="M184.3,44.6c-0.1-0.1-0.1-0.3-0.1-0.6c-0.3,0.5-0.8,0.8-1.3,0.8c-0.5,0-1-0.2-1.3-0.5
				c-0.3-0.3-0.4-0.7-0.4-1.3c0-0.6,0.2-1.1,0.6-1.4s1-0.5,1.7-0.5h0.7v-0.6c0-0.4-0.1-0.6-0.2-0.8s-0.4-0.2-0.7-0.2
				c-0.3,0-0.5,0.1-0.7,0.3c-0.2,0.2-0.3,0.4-0.3,0.7h-1c0-0.3,0.1-0.6,0.3-0.9c0.2-0.3,0.4-0.5,0.7-0.6s0.6-0.2,1-0.2
				c0.6,0,1.1,0.2,1.4,0.5s0.5,0.7,0.5,1.3v3c0,0.5,0.1,0.8,0.2,1.2v0.1H184.3z M183,43.8c0.2,0,0.5-0.1,0.7-0.2
				c0.2-0.1,0.4-0.3,0.5-0.5v-1.4h-0.5c-0.5,0-0.8,0.1-1.1,0.3s-0.4,0.5-0.4,0.8c0,0.3,0.1,0.6,0.2,0.7
				C182.5,43.7,182.7,43.8,183,43.8z"/>
			<path class="st1" d="M187.5,38.7l0,0.5c0.4-0.4,0.8-0.7,1.4-0.7c0.7,0,1.1,0.3,1.4,0.9c0.4-0.6,0.9-0.9,1.5-0.9
				c1.1,0,1.6,0.7,1.7,2v4h-1v-3.9c0-0.4-0.1-0.7-0.2-1c-0.2-0.2-0.4-0.3-0.8-0.3c-0.3,0-0.5,0.1-0.7,0.3c-0.2,0.2-0.3,0.5-0.3,0.9
				v4h-1v-3.9c0-0.8-0.3-1.2-1-1.2c-0.5,0-0.8,0.2-1,0.7v4.4h-1v-5.9H187.5z"/>
			<path class="st1" d="M197.1,44.7c-0.7,0-1.3-0.2-1.7-0.7c-0.4-0.4-0.6-1.1-0.6-1.9v-0.7c0-0.9,0.2-1.6,0.6-2.1s0.9-0.8,1.6-0.8
				c0.7,0,1.2,0.2,1.5,0.7c0.3,0.4,0.5,1.1,0.5,2.1v0.6h-3.3V42c0,0.6,0.1,1.1,0.4,1.4s0.6,0.4,1,0.4c0.3,0,0.5-0.1,0.7-0.2
				c0.2-0.1,0.4-0.3,0.6-0.5l0.5,0.6C198.6,44.4,198,44.7,197.1,44.7z M197,39.4c-0.4,0-0.7,0.1-0.9,0.4c-0.2,0.3-0.3,0.7-0.3,1.3
				h2.3v-0.1c0-0.6-0.1-1-0.3-1.2C197.6,39.5,197.4,39.4,197,39.4z"/>
			<path class="st1" d="M202.7,39.6c-0.1,0-0.3,0-0.4,0c-0.5,0-0.8,0.3-1,0.8v4.2h-1v-5.9h0.9l0,0.6c0.3-0.5,0.6-0.7,1.1-0.7
				c0.2,0,0.3,0,0.4,0.1L202.7,39.6z"/>
			<path class="st1" d="M204.8,37.1c0,0.2,0,0.3-0.1,0.4c-0.1,0.1-0.2,0.2-0.4,0.2c-0.2,0-0.3-0.1-0.4-0.2s-0.1-0.2-0.1-0.4
				s0-0.3,0.1-0.4c0.1-0.1,0.2-0.2,0.4-0.2s0.3,0.1,0.4,0.2C204.7,36.8,204.8,36.9,204.8,37.1z M204.7,44.6h-1v-5.9h1V44.6z"/>
			<path class="st1" d="M208.3,43.9c0.3,0,0.6-0.1,0.8-0.3c0.2-0.2,0.3-0.5,0.3-0.8h0.9c0,0.6-0.2,1-0.6,1.4
				c-0.4,0.4-0.8,0.6-1.4,0.6c-0.7,0-1.3-0.2-1.7-0.7c-0.4-0.5-0.6-1.1-0.6-2.1v-0.6c0-0.9,0.2-1.6,0.6-2c0.4-0.5,0.9-0.7,1.7-0.7
				c0.6,0,1.1,0.2,1.4,0.6s0.5,0.9,0.6,1.6h-0.9c0-0.4-0.1-0.8-0.3-1c-0.2-0.2-0.4-0.3-0.8-0.3c-0.4,0-0.7,0.1-1,0.4
				s-0.3,0.7-0.3,1.4V42c0,0.7,0.1,1.2,0.3,1.5C207.5,43.7,207.8,43.9,208.3,43.9z"/>
			<path class="st1" d="M214.4,44.6c-0.1-0.1-0.1-0.3-0.1-0.6c-0.3,0.5-0.8,0.8-1.3,0.8c-0.5,0-1-0.2-1.3-0.5
				c-0.3-0.3-0.4-0.7-0.4-1.3c0-0.6,0.2-1.1,0.6-1.4s1-0.5,1.7-0.5h0.7v-0.6c0-0.4-0.1-0.6-0.2-0.8s-0.4-0.2-0.7-0.2
				c-0.3,0-0.5,0.1-0.7,0.3c-0.2,0.2-0.3,0.4-0.3,0.7h-1c0-0.3,0.1-0.6,0.3-0.9c0.2-0.3,0.4-0.5,0.7-0.6s0.6-0.2,1-0.2
				c0.6,0,1.1,0.2,1.4,0.5s0.5,0.7,0.5,1.3v3c0,0.5,0.1,0.8,0.2,1.2v0.1H214.4z M213.1,43.8c0.2,0,0.5-0.1,0.7-0.2
				c0.2-0.1,0.4-0.3,0.5-0.5v-1.4h-0.5c-0.5,0-0.8,0.1-1.1,0.3s-0.4,0.5-0.4,0.8c0,0.3,0.1,0.6,0.2,0.7
				C212.6,43.7,212.8,43.8,213.1,43.8z"/>
			<path class="st1" d="M217.6,38.7l0,0.6c0.4-0.5,0.9-0.7,1.4-0.7c1,0,1.6,0.7,1.6,2.1v3.9h-1v-3.9c0-0.5-0.1-0.8-0.2-1
				c-0.2-0.2-0.4-0.3-0.7-0.3c-0.2,0-0.5,0.1-0.6,0.2c-0.2,0.2-0.3,0.4-0.5,0.6v4.3h-1v-5.9H217.6z"/>
			<path class="st1" d="M225.2,44.6c-0.1-0.1-0.1-0.3-0.1-0.6c-0.3,0.5-0.8,0.8-1.3,0.8c-0.5,0-1-0.2-1.3-0.5
				c-0.3-0.3-0.4-0.7-0.4-1.3c0-0.6,0.2-1.1,0.6-1.4s1-0.5,1.7-0.5h0.7v-0.6c0-0.4-0.1-0.6-0.2-0.8s-0.4-0.2-0.7-0.2
				c-0.3,0-0.5,0.1-0.7,0.3c-0.2,0.2-0.3,0.4-0.3,0.7h-1c0-0.3,0.1-0.6,0.3-0.9c0.2-0.3,0.4-0.5,0.7-0.6s0.6-0.2,1-0.2
				c0.6,0,1.1,0.2,1.4,0.5s0.5,0.7,0.5,1.3v3c0,0.5,0.1,0.8,0.2,1.2v0.1H225.2z M223.9,43.8c0.2,0,0.5-0.1,0.7-0.2
				c0.2-0.1,0.4-0.3,0.5-0.5v-1.4h-0.5c-0.5,0-0.8,0.1-1.1,0.3s-0.4,0.5-0.4,0.8c0,0.3,0.1,0.6,0.2,0.7
				C223.3,43.7,223.5,43.8,223.9,43.8z"/>
			<path class="st1" d="M229.8,41.4c0-0.9,0.2-1.6,0.5-2.1s0.8-0.7,1.5-0.7c0.6,0,1,0.2,1.3,0.7v-3.1h1v8.4h-0.9l0-0.6
				c-0.3,0.5-0.8,0.7-1.4,0.7c-0.6,0-1.1-0.2-1.4-0.7c-0.3-0.5-0.5-1.1-0.5-2V41.4z M230.8,41.9c0,0.7,0.1,1.1,0.3,1.5
				s0.5,0.5,1,0.5c0.5,0,0.8-0.2,1.1-0.7v-3c-0.2-0.5-0.6-0.7-1.1-0.7c-0.4,0-0.8,0.2-1,0.5s-0.3,0.8-0.3,1.4V41.9z"/>
			<path class="st1" d="M237.7,44.7c-0.7,0-1.3-0.2-1.7-0.7c-0.4-0.4-0.6-1.1-0.6-1.9v-0.7c0-0.9,0.2-1.6,0.6-2.1s0.9-0.8,1.6-0.8
				c0.7,0,1.2,0.2,1.5,0.7c0.3,0.4,0.5,1.1,0.5,2.1v0.6h-3.3V42c0,0.6,0.1,1.1,0.4,1.4s0.6,0.4,1,0.4c0.3,0,0.5-0.1,0.7-0.2
				c0.2-0.1,0.4-0.3,0.6-0.5l0.5,0.6C239.2,44.4,238.5,44.7,237.7,44.7z M237.6,39.4c-0.4,0-0.7,0.1-0.9,0.4
				c-0.2,0.3-0.3,0.7-0.3,1.3h2.3v-0.1c0-0.6-0.1-1-0.3-1.2C238.2,39.5,237.9,39.4,237.6,39.4z"/>
		</g>
		<g>
			<path class="st1" d="M158.8,55.4c0,0.9-0.3,1.5-0.7,2c-0.4,0.5-1,0.7-1.8,0.7c-0.8,0-1.4-0.3-1.9-0.9s-0.7-1.4-0.7-2.5v-1.4
				c0-1,0.2-1.8,0.7-2.4c0.5-0.6,1.1-0.9,2-0.9c0.8,0,1.4,0.2,1.8,0.7s0.6,1.1,0.7,2h-1c0-0.6-0.2-1.1-0.4-1.4s-0.6-0.4-1-0.4
				c-0.5,0-1,0.2-1.2,0.6c-0.3,0.4-0.4,1-0.4,1.9v1.5c0,0.8,0.1,1.4,0.4,1.8c0.3,0.4,0.7,0.6,1.2,0.6c0.5,0,0.9-0.1,1.1-0.4
				c0.2-0.3,0.4-0.7,0.4-1.4H158.8z"/>
			<path class="st1" d="M161.2,50.5c0,0.2,0,0.3-0.1,0.4c-0.1,0.1-0.2,0.2-0.4,0.2c-0.2,0-0.3-0.1-0.4-0.2s-0.1-0.2-0.1-0.4
				s0-0.3,0.1-0.4c0.1-0.1,0.2-0.2,0.4-0.2s0.3,0.1,0.4,0.2C161.1,50.2,161.2,50.3,161.2,50.5z M161.1,57.9h-1V52h1V57.9z"/>
			<path class="st1" d="M164.7,58c-0.7,0-1.3-0.2-1.7-0.7c-0.4-0.4-0.6-1.1-0.6-1.9v-0.7c0-0.9,0.2-1.6,0.6-2.1s0.9-0.8,1.6-0.8
				c0.7,0,1.2,0.2,1.5,0.7c0.3,0.4,0.5,1.1,0.5,2.1v0.6h-3.3v0.1c0,0.6,0.1,1.1,0.4,1.4s0.6,0.4,1,0.4c0.3,0,0.5-0.1,0.7-0.2
				c0.2-0.1,0.4-0.3,0.6-0.5l0.5,0.6C166.2,57.7,165.6,58,164.7,58z M164.6,52.7c-0.4,0-0.7,0.1-0.9,0.4c-0.2,0.3-0.3,0.7-0.3,1.3
				h2.3v-0.1c0-0.6-0.1-1-0.3-1.2C165.3,52.9,165,52.7,164.6,52.7z"/>
			<path class="st1" d="M168.8,52l0,0.6c0.4-0.5,0.9-0.7,1.4-0.7c1,0,1.6,0.7,1.6,2.1v3.9h-1v-3.9c0-0.5-0.1-0.8-0.2-1
				c-0.2-0.2-0.4-0.3-0.7-0.3c-0.2,0-0.5,0.1-0.6,0.2c-0.2,0.2-0.3,0.4-0.5,0.6v4.3h-1V52H168.8z"/>
			<path class="st1" d="M175.3,57.2c0.3,0,0.6-0.1,0.8-0.3c0.2-0.2,0.3-0.5,0.3-0.8h0.9c0,0.6-0.2,1-0.6,1.4
				c-0.4,0.4-0.8,0.6-1.4,0.6c-0.7,0-1.3-0.2-1.7-0.7c-0.4-0.5-0.6-1.1-0.6-2.1v-0.6c0-0.9,0.2-1.6,0.6-2c0.4-0.5,0.9-0.7,1.7-0.7
				c0.6,0,1.1,0.2,1.4,0.6s0.5,0.9,0.6,1.6h-0.9c0-0.4-0.1-0.8-0.3-1c-0.2-0.2-0.4-0.3-0.8-0.3c-0.4,0-0.7,0.1-1,0.4
				s-0.3,0.7-0.3,1.4v0.8c0,0.7,0.1,1.2,0.3,1.5C174.5,57.1,174.9,57.2,175.3,57.2z"/>
			<path class="st1" d="M179.5,50.5c0,0.2,0,0.3-0.1,0.4c-0.1,0.1-0.2,0.2-0.4,0.2c-0.2,0-0.3-0.1-0.4-0.2s-0.1-0.2-0.1-0.4
				s0-0.3,0.1-0.4c0.1-0.1,0.2-0.2,0.4-0.2s0.3,0.1,0.4,0.2C179.5,50.2,179.5,50.3,179.5,50.5z M179.5,57.9h-1V52h1V57.9z"/>
			<path class="st1" d="M184,57.9c-0.1-0.1-0.1-0.3-0.1-0.6c-0.3,0.5-0.8,0.8-1.3,0.8c-0.5,0-1-0.2-1.3-0.5
				c-0.3-0.3-0.4-0.7-0.4-1.3c0-0.6,0.2-1.1,0.6-1.4s1-0.5,1.7-0.5h0.7v-0.6c0-0.4-0.1-0.6-0.2-0.8s-0.4-0.2-0.7-0.2
				c-0.3,0-0.5,0.1-0.7,0.3c-0.2,0.2-0.3,0.4-0.3,0.7h-1c0-0.3,0.1-0.6,0.3-0.9c0.2-0.3,0.4-0.5,0.7-0.6s0.6-0.2,1-0.2
				c0.6,0,1.1,0.2,1.4,0.5s0.5,0.7,0.5,1.3v3c0,0.5,0.1,0.8,0.2,1.2v0.1H184z M182.7,57.2c0.2,0,0.5-0.1,0.7-0.2
				c0.2-0.1,0.4-0.3,0.5-0.5v-1.4h-0.5c-0.5,0-0.8,0.1-1.1,0.3s-0.4,0.5-0.4,0.8c0,0.3,0.1,0.6,0.2,0.7
				C182.2,57.1,182.4,57.2,182.7,57.2z"/>
			<path class="st1" d="M189.2,56.4c0-0.2-0.1-0.4-0.2-0.5c-0.2-0.1-0.5-0.3-0.9-0.5c-0.5-0.2-0.9-0.4-1.1-0.6
				c-0.2-0.2-0.4-0.3-0.5-0.5s-0.2-0.4-0.2-0.7c0-0.5,0.2-0.9,0.5-1.2c0.4-0.3,0.8-0.5,1.3-0.5c0.6,0,1,0.2,1.4,0.5s0.5,0.8,0.5,1.3
				h-1c0-0.3-0.1-0.5-0.3-0.7c-0.2-0.2-0.4-0.3-0.7-0.3c-0.3,0-0.5,0.1-0.7,0.2c-0.2,0.1-0.2,0.3-0.2,0.6c0,0.2,0.1,0.4,0.2,0.5
				c0.1,0.1,0.4,0.3,0.9,0.5c0.7,0.3,1.2,0.6,1.5,0.8c0.3,0.3,0.4,0.6,0.4,1c0,0.5-0.2,0.9-0.5,1.2s-0.8,0.5-1.4,0.5
				c-0.6,0-1.1-0.2-1.5-0.5s-0.6-0.8-0.6-1.3h1c0,0.3,0.1,0.6,0.3,0.8c0.2,0.2,0.5,0.3,0.8,0.3c0.3,0,0.6-0.1,0.7-0.2
				S189.2,56.7,189.2,56.4z"/>
			<path class="st1" d="M197.6,55.9c0-0.4-0.1-0.7-0.3-0.9c-0.2-0.2-0.6-0.4-1.2-0.6c-0.6-0.2-1-0.4-1.3-0.6
				c-0.3-0.2-0.5-0.5-0.7-0.8s-0.2-0.6-0.2-1c0-0.6,0.2-1.1,0.6-1.6s1-0.6,1.7-0.6c0.5,0,0.9,0.1,1.2,0.3c0.4,0.2,0.6,0.5,0.8,0.9
				c0.2,0.4,0.3,0.8,0.3,1.2h-1c0-0.5-0.1-0.9-0.4-1.1c-0.2-0.3-0.6-0.4-1-0.4c-0.4,0-0.7,0.1-0.9,0.3s-0.3,0.5-0.3,1
				c0,0.3,0.1,0.6,0.4,0.8c0.2,0.2,0.6,0.4,1.1,0.6c0.8,0.3,1.3,0.6,1.7,1c0.3,0.4,0.5,0.9,0.5,1.5c0,0.6-0.2,1.2-0.6,1.5
				c-0.4,0.4-1,0.6-1.7,0.6c-0.5,0-0.9-0.1-1.3-0.3c-0.4-0.2-0.7-0.5-0.9-0.9c-0.2-0.4-0.3-0.8-0.3-1.3h1c0,0.5,0.1,0.9,0.4,1.1
				s0.6,0.4,1.1,0.4c0.4,0,0.8-0.1,1-0.3C197.5,56.6,197.6,56.3,197.6,55.9z"/>
			<path class="st1" d="M199.6,54.7c0-0.9,0.2-1.5,0.6-2s1-0.8,1.7-0.8s1.2,0.2,1.6,0.7s0.6,1.2,0.6,2v0.6c0,0.9-0.2,1.5-0.6,2
				c-0.4,0.5-1,0.7-1.7,0.7c-0.7,0-1.2-0.2-1.6-0.7c-0.4-0.5-0.6-1.1-0.6-2V54.7z M200.5,55.3c0,0.6,0.1,1.1,0.4,1.4s0.6,0.5,1,0.5
				c0.9,0,1.3-0.6,1.3-1.8v-0.7c0-0.6-0.1-1.1-0.4-1.4s-0.6-0.5-1-0.5c-0.4,0-0.7,0.2-1,0.5s-0.4,0.8-0.4,1.4V55.3z"/>
			<path class="st1" d="M207.4,57.2c0.3,0,0.6-0.1,0.8-0.3c0.2-0.2,0.3-0.5,0.3-0.8h0.9c0,0.6-0.2,1-0.6,1.4
				c-0.4,0.4-0.8,0.6-1.4,0.6c-0.7,0-1.3-0.2-1.7-0.7c-0.4-0.5-0.6-1.1-0.6-2.1v-0.6c0-0.9,0.2-1.6,0.6-2c0.4-0.5,0.9-0.7,1.7-0.7
				c0.6,0,1.1,0.2,1.4,0.6s0.5,0.9,0.6,1.6h-0.9c0-0.4-0.1-0.8-0.3-1c-0.2-0.2-0.4-0.3-0.8-0.3c-0.4,0-0.7,0.1-1,0.4
				s-0.3,0.7-0.3,1.4v0.8c0,0.7,0.1,1.2,0.3,1.5C206.6,57.1,207,57.2,207.4,57.2z"/>
			<path class="st1" d="M211.6,50.5c0,0.2,0,0.3-0.1,0.4c-0.1,0.1-0.2,0.2-0.4,0.2c-0.2,0-0.3-0.1-0.4-0.2s-0.1-0.2-0.1-0.4
				s0-0.3,0.1-0.4c0.1-0.1,0.2-0.2,0.4-0.2s0.3,0.1,0.4,0.2C211.6,50.2,211.6,50.3,211.6,50.5z M211.6,57.9h-1V52h1V57.9z"/>
			<path class="st1" d="M216.1,57.9c-0.1-0.1-0.1-0.3-0.1-0.6c-0.3,0.5-0.8,0.8-1.3,0.8c-0.5,0-1-0.2-1.3-0.5
				c-0.3-0.3-0.4-0.7-0.4-1.3c0-0.6,0.2-1.1,0.6-1.4s1-0.5,1.7-0.5h0.7v-0.6c0-0.4-0.1-0.6-0.2-0.8s-0.4-0.2-0.7-0.2
				c-0.3,0-0.5,0.1-0.7,0.3c-0.2,0.2-0.3,0.4-0.3,0.7h-1c0-0.3,0.1-0.6,0.3-0.9c0.2-0.3,0.4-0.5,0.7-0.6s0.6-0.2,1-0.2
				c0.6,0,1.1,0.2,1.4,0.5s0.5,0.7,0.5,1.3v3c0,0.5,0.1,0.8,0.2,1.2v0.1H216.1z M214.8,57.2c0.2,0,0.5-0.1,0.7-0.2
				c0.2-0.1,0.4-0.3,0.5-0.5v-1.4h-0.5c-0.5,0-0.8,0.1-1.1,0.3s-0.4,0.5-0.4,0.8c0,0.3,0.1,0.6,0.2,0.7
				C214.3,57.1,214.5,57.2,214.8,57.2z"/>
			<path class="st1" d="M219.5,57.9h-1v-8.4h1V57.9z"/>
			<path class="st1" d="M223.1,58c-0.7,0-1.3-0.2-1.7-0.7c-0.4-0.4-0.6-1.1-0.6-1.9v-0.7c0-0.9,0.2-1.6,0.6-2.1s0.9-0.8,1.6-0.8
				c0.7,0,1.2,0.2,1.5,0.7c0.3,0.4,0.5,1.1,0.5,2.1v0.6h-3.3v0.1c0,0.6,0.1,1.1,0.4,1.4s0.6,0.4,1,0.4c0.3,0,0.5-0.1,0.7-0.2
				c0.2-0.1,0.4-0.3,0.6-0.5l0.5,0.6C224.6,57.7,224,58,223.1,58z M223,52.7c-0.4,0-0.7,0.1-0.9,0.4c-0.2,0.3-0.3,0.7-0.3,1.3h2.3
				v-0.1c0-0.6-0.1-1-0.3-1.2C223.6,52.9,223.4,52.7,223,52.7z"/>
			<path class="st1" d="M229.1,56.4c0-0.2-0.1-0.4-0.2-0.5c-0.2-0.1-0.5-0.3-0.9-0.5c-0.5-0.2-0.9-0.4-1.1-0.6
				c-0.2-0.2-0.4-0.3-0.5-0.5s-0.2-0.4-0.2-0.7c0-0.5,0.2-0.9,0.5-1.2c0.4-0.3,0.8-0.5,1.3-0.5c0.6,0,1,0.2,1.4,0.5s0.5,0.8,0.5,1.3
				h-1c0-0.3-0.1-0.5-0.3-0.7c-0.2-0.2-0.4-0.3-0.7-0.3c-0.3,0-0.5,0.1-0.7,0.2c-0.2,0.1-0.2,0.3-0.2,0.6c0,0.2,0.1,0.4,0.2,0.5
				c0.1,0.1,0.4,0.3,0.9,0.5c0.7,0.3,1.2,0.6,1.5,0.8c0.3,0.3,0.4,0.6,0.4,1c0,0.5-0.2,0.9-0.5,1.2s-0.8,0.5-1.4,0.5
				c-0.6,0-1.1-0.2-1.5-0.5s-0.6-0.8-0.6-1.3h1c0,0.3,0.1,0.6,0.3,0.8c0.2,0.2,0.5,0.3,0.8,0.3c0.3,0,0.6-0.1,0.7-0.2
				S229.1,56.7,229.1,56.4z"/>
			<path class="st1" d="M231.4,57.4c0-0.2,0.1-0.3,0.2-0.4c0.1-0.1,0.3-0.2,0.5-0.2s0.4,0.1,0.5,0.2c0.1,0.1,0.2,0.3,0.2,0.4
				c0,0.2-0.1,0.3-0.2,0.4c-0.1,0.1-0.3,0.2-0.5,0.2s-0.4-0.1-0.5-0.2C231.4,57.7,231.4,57.6,231.4,57.4z"/>
		</g>
		<g>
			<path class="st1" d="M157.3,69.3c0-0.4-0.1-0.7-0.3-0.9c-0.2-0.2-0.6-0.4-1.2-0.6c-0.6-0.2-1-0.4-1.3-0.6
				c-0.3-0.2-0.5-0.5-0.7-0.8s-0.2-0.6-0.2-1c0-0.6,0.2-1.1,0.6-1.6s1-0.6,1.7-0.6c0.5,0,0.9,0.1,1.2,0.3c0.4,0.2,0.6,0.5,0.8,0.9
				c0.2,0.4,0.3,0.8,0.3,1.2h-1c0-0.5-0.1-0.9-0.4-1.1c-0.2-0.3-0.6-0.4-1-0.4c-0.4,0-0.7,0.1-0.9,0.3s-0.3,0.5-0.3,1
				c0,0.3,0.1,0.6,0.4,0.8c0.2,0.2,0.6,0.4,1.1,0.6c0.8,0.3,1.3,0.6,1.7,1c0.3,0.4,0.5,0.9,0.5,1.5c0,0.6-0.2,1.2-0.6,1.5
				c-0.4,0.4-1,0.6-1.7,0.6c-0.5,0-0.9-0.1-1.3-0.3c-0.4-0.2-0.7-0.5-0.9-0.9c-0.2-0.4-0.3-0.8-0.3-1.3h1c0,0.5,0.1,0.9,0.4,1.1
				s0.6,0.4,1.1,0.4c0.4,0,0.8-0.1,1-0.3C157.2,70,157.3,69.7,157.3,69.3z"/>
			<path class="st1" d="M161.6,71.4c-0.7,0-1.3-0.2-1.7-0.7c-0.4-0.4-0.6-1.1-0.6-1.9v-0.7c0-0.9,0.2-1.6,0.6-2.1s0.9-0.8,1.6-0.8
				c0.7,0,1.2,0.2,1.5,0.7c0.3,0.4,0.5,1.1,0.5,2.1v0.6h-3.3v0.1c0,0.6,0.1,1.1,0.4,1.4s0.6,0.4,1,0.4c0.3,0,0.5-0.1,0.7-0.2
				c0.2-0.1,0.4-0.3,0.6-0.5l0.5,0.6C163.1,71.1,162.5,71.4,161.6,71.4z M161.5,66.1c-0.4,0-0.7,0.1-0.9,0.4
				c-0.2,0.3-0.3,0.7-0.3,1.3h2.3v-0.1c0-0.6-0.1-1-0.3-1.2C162.1,66.2,161.9,66.1,161.5,66.1z"/>
			<path class="st1" d="M164.5,68.1c0-0.9,0.2-1.6,0.5-2.1s0.8-0.7,1.5-0.7c0.6,0,1,0.2,1.3,0.7v-3.1h1v8.4h-0.9l0-0.6
				c-0.3,0.5-0.8,0.7-1.4,0.7c-0.6,0-1.1-0.2-1.4-0.7c-0.3-0.5-0.5-1.1-0.5-2V68.1z M165.5,68.6c0,0.7,0.1,1.1,0.3,1.5
				s0.5,0.5,1,0.5c0.5,0,0.8-0.2,1.1-0.7v-3c-0.2-0.5-0.6-0.7-1.1-0.7c-0.4,0-0.8,0.2-1,0.5s-0.3,0.8-0.3,1.4V68.6z"/>
			<path class="st1" d="M172.4,71.4c-0.7,0-1.3-0.2-1.7-0.7c-0.4-0.4-0.6-1.1-0.6-1.9v-0.7c0-0.9,0.2-1.6,0.6-2.1s0.9-0.8,1.6-0.8
				c0.7,0,1.2,0.2,1.5,0.7c0.3,0.4,0.5,1.1,0.5,2.1v0.6h-3.3v0.1c0,0.6,0.1,1.1,0.4,1.4s0.6,0.4,1,0.4c0.3,0,0.5-0.1,0.7-0.2
				c0.2-0.1,0.4-0.3,0.6-0.5l0.5,0.6C173.9,71.1,173.3,71.4,172.4,71.4z M172.3,66.1c-0.4,0-0.7,0.1-0.9,0.4
				c-0.2,0.3-0.3,0.7-0.3,1.3h2.3v-0.1c0-0.6-0.1-1-0.3-1.2C172.9,66.2,172.7,66.1,172.3,66.1z"/>
			<path class="st1" d="M181.9,69.2h-2.7l-0.6,2.1h-1l2.6-7.9h0.9l2.6,7.9h-1L181.9,69.2z M179.5,68.4h2.2l-1.1-3.6L179.5,68.4z"/>
			<path class="st1" d="M187,66.3c-0.1,0-0.3,0-0.4,0c-0.5,0-0.8,0.3-1,0.8v4.2h-1v-5.9h0.9l0,0.6c0.3-0.5,0.6-0.7,1.1-0.7
				c0.2,0,0.3,0,0.4,0.1L187,66.3z"/>
			<path class="st1" d="M187.6,68.1c0-0.9,0.2-1.6,0.5-2.1c0.3-0.5,0.8-0.7,1.5-0.7c0.6,0,1.1,0.3,1.4,0.8l0-0.7h0.9v6
				c0,0.7-0.2,1.3-0.6,1.7c-0.4,0.4-0.9,0.6-1.6,0.6c-0.3,0-0.6-0.1-1-0.2c-0.4-0.1-0.6-0.3-0.8-0.5l0.4-0.7
				c0.4,0.4,0.8,0.6,1.3,0.6c0.8,0,1.2-0.4,1.2-1.3v-0.8c-0.3,0.5-0.8,0.7-1.3,0.7c-0.6,0-1.1-0.2-1.4-0.7s-0.5-1.1-0.5-2V68.1z
				 M188.6,68.6c0,0.7,0.1,1.1,0.3,1.5s0.5,0.5,1,0.5c0.5,0,0.8-0.2,1.1-0.7v-2.9c-0.3-0.5-0.6-0.7-1.1-0.7c-0.4,0-0.8,0.2-1,0.5
				c-0.2,0.3-0.3,0.8-0.3,1.4V68.6z"/>
			<path class="st1" d="M195.4,71.4c-0.7,0-1.3-0.2-1.7-0.7c-0.4-0.4-0.6-1.1-0.6-1.9v-0.7c0-0.9,0.2-1.6,0.6-2.1s0.9-0.8,1.6-0.8
				c0.7,0,1.2,0.2,1.5,0.7c0.3,0.4,0.5,1.1,0.5,2.1v0.6h-3.3v0.1c0,0.6,0.1,1.1,0.4,1.4s0.6,0.4,1,0.4c0.3,0,0.5-0.1,0.7-0.2
				c0.2-0.1,0.4-0.3,0.6-0.5l0.5,0.6C196.9,71.1,196.3,71.4,195.4,71.4z M195.3,66.1c-0.4,0-0.7,0.1-0.9,0.4
				c-0.2,0.3-0.3,0.7-0.3,1.3h2.3v-0.1c0-0.6-0.1-1-0.3-1.2C196,66.2,195.7,66.1,195.3,66.1z"/>
			<path class="st1" d="M199.5,65.4l0,0.6c0.4-0.5,0.9-0.7,1.4-0.7c1,0,1.6,0.7,1.6,2.1v3.9h-1v-3.9c0-0.5-0.1-0.8-0.2-1
				c-0.2-0.2-0.4-0.3-0.7-0.3c-0.2,0-0.5,0.1-0.6,0.2c-0.2,0.2-0.3,0.4-0.5,0.6v4.3h-1v-5.9H199.5z"/>
			<path class="st1" d="M205.2,64v1.4h0.9v0.8h-0.9v3.7c0,0.2,0,0.4,0.1,0.5s0.2,0.2,0.4,0.2c0.1,0,0.3,0,0.4-0.1l0,0.8
				c-0.2,0.1-0.4,0.1-0.7,0.1c-0.4,0-0.7-0.1-0.9-0.4s-0.3-0.7-0.3-1.2v-3.7h-0.9v-0.8h0.9V64H205.2z"/>
			<path class="st1" d="M208.4,63.8c0,0.2,0,0.3-0.1,0.4c-0.1,0.1-0.2,0.2-0.4,0.2c-0.2,0-0.3-0.1-0.4-0.2s-0.1-0.2-0.1-0.4
				s0-0.3,0.1-0.4c0.1-0.1,0.2-0.2,0.4-0.2s0.3,0.1,0.4,0.2C208.3,63.5,208.4,63.7,208.4,63.8z M208.3,71.3h-1v-5.9h1V71.3z"/>
			<path class="st1" d="M210.7,65.4l0,0.6c0.4-0.5,0.9-0.7,1.4-0.7c1,0,1.6,0.7,1.6,2.1v3.9h-1v-3.9c0-0.5-0.1-0.8-0.2-1
				c-0.2-0.2-0.4-0.3-0.7-0.3c-0.2,0-0.5,0.1-0.6,0.2c-0.2,0.2-0.3,0.4-0.5,0.6v4.3h-1v-5.9H210.7z"/>
			<path class="st1" d="M218.3,71.3c-0.1-0.1-0.1-0.3-0.1-0.6c-0.3,0.5-0.8,0.8-1.3,0.8c-0.5,0-1-0.2-1.3-0.5
				c-0.3-0.3-0.4-0.7-0.4-1.3c0-0.6,0.2-1.1,0.6-1.4s1-0.5,1.7-0.5h0.7v-0.6c0-0.4-0.1-0.6-0.2-0.8s-0.4-0.2-0.7-0.2
				c-0.3,0-0.5,0.1-0.7,0.3c-0.2,0.2-0.3,0.4-0.3,0.7h-1c0-0.3,0.1-0.6,0.3-0.9c0.2-0.3,0.4-0.5,0.7-0.6s0.6-0.2,1-0.2
				c0.6,0,1.1,0.2,1.4,0.5s0.5,0.7,0.5,1.3v3c0,0.5,0.1,0.8,0.2,1.2v0.1H218.3z M217,70.5c0.2,0,0.5-0.1,0.7-0.2
				c0.2-0.1,0.4-0.3,0.5-0.5v-1.4h-0.5c-0.5,0-0.8,0.1-1.1,0.3s-0.4,0.5-0.4,0.8c0,0.3,0.1,0.6,0.2,0.7
				C216.4,70.4,216.7,70.5,217,70.5z"/>
			<path class="st1" d="M220.6,70.8c0-0.2,0.1-0.3,0.2-0.4c0.1-0.1,0.3-0.2,0.5-0.2s0.4,0.1,0.5,0.2c0.1,0.1,0.2,0.3,0.2,0.4
				c0,0.2-0.1,0.3-0.2,0.4c-0.1,0.1-0.3,0.2-0.5,0.2s-0.4-0.1-0.5-0.2C220.7,71.1,220.6,70.9,220.6,70.8z"/>
		</g>
		<g>
			<path class="st1" d="M157.4,93.5h-2.2l-0.4,1.6h-1.7l2.5-7.9h1.5l2.5,7.9h-1.7L157.4,93.5z M156.7,85.1h1.7l-1.5,1.7h-1.3
				L156.7,85.1z M155.6,92.2h1.5l-0.7-2.8L155.6,92.2z"/>
			<path class="st1" d="M163.2,90.7l-0.5,0c-0.4,0-0.7,0.2-0.9,0.6v3.9h-1.5v-5.9h1.5l0,0.6c0.2-0.5,0.6-0.7,1-0.7
				c0.2,0,0.3,0,0.4,0.1L163.2,90.7z"/>
			<path class="st1" d="M166.2,95.2c-0.8,0-1.4-0.2-1.9-0.7s-0.7-1.1-0.7-2V92c0-0.9,0.2-1.6,0.6-2.2c0.4-0.5,1-0.8,1.8-0.8
				c0.7,0,1.3,0.2,1.7,0.7c0.4,0.5,0.6,1.2,0.6,2.1v0.8h-3.1c0,0.4,0.1,0.8,0.3,1c0.2,0.2,0.4,0.3,0.8,0.3c0.5,0,0.9-0.2,1.3-0.5
				l0.6,0.9c-0.2,0.3-0.5,0.5-0.8,0.6C167.1,95.2,166.7,95.2,166.2,95.2z M165.3,91.6h1.5v-0.1c0-0.4-0.1-0.6-0.2-0.8
				c-0.1-0.2-0.3-0.3-0.6-0.3c-0.3,0-0.5,0.1-0.6,0.3C165.4,90.9,165.3,91.2,165.3,91.6z"/>
			<path class="st1" d="M172,95.1c0-0.1-0.1-0.2-0.1-0.5c-0.3,0.4-0.7,0.6-1.1,0.6c-0.5,0-0.9-0.2-1.2-0.5S169,94,169,93.5
				c0-0.6,0.2-1.1,0.6-1.4s1-0.5,1.7-0.5h0.5v-0.5c0-0.3,0-0.5-0.1-0.6s-0.2-0.2-0.4-0.2c-0.4,0-0.6,0.2-0.6,0.7h-1.5
				c0-0.5,0.2-1,0.6-1.3s0.9-0.5,1.6-0.5c0.6,0,1.1,0.2,1.5,0.5c0.4,0.3,0.5,0.8,0.5,1.4v2.8c0,0.5,0.1,0.9,0.2,1.2v0.1H172z
				 M171.1,94c0.2,0,0.3,0,0.4-0.1c0.1-0.1,0.2-0.2,0.3-0.2v-1.2h-0.4c-0.3,0-0.5,0.1-0.6,0.3c-0.2,0.2-0.2,0.4-0.2,0.7
				C170.6,93.8,170.8,94,171.1,94z"/>
			<path class="st1" d="M182.5,92.5c0,0.9-0.3,1.6-0.8,2.1c-0.5,0.5-1.1,0.7-2,0.7c-0.9,0-1.6-0.3-2.1-0.9s-0.7-1.4-0.7-2.5v-1.3
				c0-1.1,0.2-1.9,0.7-2.5c0.5-0.6,1.2-0.9,2.1-0.9c0.9,0,1.5,0.2,2,0.7c0.4,0.5,0.7,1.2,0.8,2.1h-1.6c0-0.6-0.1-0.9-0.3-1.2
				s-0.4-0.3-0.9-0.3c-0.4,0-0.7,0.2-0.9,0.5c-0.2,0.3-0.3,0.8-0.3,1.5v1.5c0,0.8,0.1,1.3,0.3,1.6c0.2,0.3,0.5,0.4,0.9,0.4
				c0.4,0,0.7-0.1,0.9-0.3c0.2-0.2,0.3-0.6,0.3-1.1H182.5z"/>
			<path class="st1" d="M183.2,92c0-0.9,0.2-1.6,0.6-2.1s1-0.8,1.8-0.8c0.8,0,1.3,0.3,1.8,0.8s0.6,1.2,0.6,2.1v0.4
				c0,0.9-0.2,1.6-0.6,2.1c-0.4,0.5-1,0.8-1.8,0.8c-0.8,0-1.3-0.3-1.8-0.8c-0.4-0.5-0.6-1.2-0.6-2.1V92z M184.8,92.4
				c0,1.1,0.3,1.6,0.8,1.6c0.5,0,0.8-0.4,0.8-1.3l0-0.6c0-0.5-0.1-0.9-0.2-1.2c-0.1-0.3-0.4-0.4-0.6-0.4c-0.3,0-0.5,0.1-0.6,0.4
				c-0.1,0.3-0.2,0.7-0.2,1.2V92.4z"/>
			<path class="st1" d="M190.4,89.2l0,0.5c0.3-0.4,0.8-0.7,1.4-0.7c0.6,0,1,0.3,1.2,0.8c0.3-0.5,0.8-0.8,1.4-0.8
				c1,0,1.6,0.7,1.6,2.1v3.9h-1.5v-3.8c0-0.3,0-0.6-0.1-0.7s-0.3-0.2-0.5-0.2c-0.3,0-0.5,0.2-0.6,0.5l0,0.2v4h-1.5v-3.8
				c0-0.3,0-0.6-0.1-0.7c-0.1-0.2-0.3-0.2-0.5-0.2c-0.3,0-0.5,0.1-0.6,0.4v4.3H189v-5.9H190.4z"/>
			<path class="st1" d="M200.2,94.6c-0.3,0.4-0.8,0.6-1.3,0.6c-0.5,0-1-0.2-1.2-0.6c-0.3-0.4-0.4-0.9-0.4-1.6v-3.8h1.5v3.9
				c0,0.6,0.2,0.9,0.6,0.9c0.4,0,0.6-0.2,0.8-0.5v-4.3h1.6v5.9h-1.5L200.2,94.6z"/>
			<path class="st1" d="M204.2,89.2l0,0.6c0.3-0.5,0.8-0.7,1.4-0.7c1,0,1.5,0.7,1.6,2.1v3.9h-1.5v-3.8c0-0.3,0-0.6-0.1-0.7
				c-0.1-0.2-0.3-0.2-0.5-0.2c-0.3,0-0.5,0.1-0.7,0.4v4.3h-1.5v-5.9H204.2z"/>
			<path class="st1" d="M208.2,87.7c0-0.2,0.1-0.4,0.2-0.6c0.2-0.2,0.4-0.2,0.6-0.2c0.3,0,0.5,0.1,0.6,0.2c0.2,0.2,0.2,0.3,0.2,0.6
				c0,0.2-0.1,0.4-0.2,0.6c-0.2,0.2-0.4,0.2-0.6,0.2c-0.3,0-0.5-0.1-0.6-0.2C208.3,88.1,208.2,87.9,208.2,87.7z M209.9,95.1h-1.5
				v-5.9h1.5V95.1z"/>
			<path class="st1" d="M213.2,94c0.4,0,0.7-0.3,0.7-0.9h1.5c0,0.6-0.2,1.2-0.6,1.6s-0.9,0.6-1.5,0.6c-0.8,0-1.3-0.2-1.7-0.7
				c-0.4-0.5-0.6-1.2-0.6-2.1V92c0-0.9,0.2-1.6,0.6-2.1s1-0.7,1.7-0.7c0.7,0,1.2,0.2,1.5,0.6c0.4,0.4,0.6,1,0.6,1.7h-1.5
				c0-0.3-0.1-0.6-0.2-0.8c-0.1-0.2-0.3-0.3-0.5-0.3c-0.3,0-0.5,0.1-0.6,0.3c-0.1,0.2-0.2,0.6-0.2,1.1v0.6c0,0.5,0,0.8,0.1,1
				c0,0.2,0.1,0.3,0.2,0.4C212.8,93.9,213,94,213.2,94z"/>
			<path class="st1" d="M219,95.1c0-0.1-0.1-0.2-0.1-0.5c-0.3,0.4-0.7,0.6-1.1,0.6c-0.5,0-0.9-0.2-1.2-0.5S216,94,216,93.5
				c0-0.6,0.2-1.1,0.6-1.4s1-0.5,1.7-0.5h0.5v-0.5c0-0.3,0-0.5-0.1-0.6s-0.2-0.2-0.4-0.2c-0.4,0-0.6,0.2-0.6,0.7h-1.5
				c0-0.5,0.2-1,0.6-1.3s0.9-0.5,1.6-0.5c0.6,0,1.1,0.2,1.5,0.5c0.4,0.3,0.5,0.8,0.5,1.4v2.8c0,0.5,0.1,0.9,0.2,1.2v0.1H219z
				 M218.1,94c0.2,0,0.3,0,0.4-0.1c0.1-0.1,0.2-0.2,0.3-0.2v-1.2h-0.4c-0.3,0-0.5,0.1-0.6,0.3c-0.2,0.2-0.2,0.4-0.2,0.7
				C217.6,93.8,217.7,94,218.1,94z"/>
			<path class="st1" d="M223.6,94c0.4,0,0.7-0.3,0.7-0.9h1.5c0,0.6-0.2,1.2-0.6,1.6s-0.9,0.6-1.5,0.6c-0.8,0-1.3-0.2-1.7-0.7
				c-0.4-0.5-0.6-1.2-0.6-2.1V92c0-0.9,0.2-1.6,0.6-2.1s1-0.7,1.7-0.7c0.7,0,1.2,0.2,1.5,0.6c0.4,0.4,0.6,1,0.6,1.7h-1.5
				c0-0.3-0.1-0.6-0.2-0.8c-0.1-0.2-0.3-0.3-0.5-0.3c-0.3,0-0.5,0.1-0.6,0.3c-0.1,0.2-0.2,0.6-0.2,1.1v0.6c0,0.5,0,0.8,0.1,1
				c0,0.2,0.1,0.3,0.2,0.4C223.2,93.9,223.4,94,223.6,94z"/>
			<path class="st1" d="M226.6,87.7c0-0.2,0.1-0.4,0.2-0.6c0.2-0.2,0.4-0.2,0.6-0.2c0.3,0,0.5,0.1,0.6,0.2c0.2,0.2,0.2,0.3,0.2,0.6
				c0,0.2-0.1,0.4-0.2,0.6c-0.2,0.2-0.4,0.2-0.6,0.2c-0.3,0-0.5-0.1-0.6-0.2C226.7,88.1,226.6,87.9,226.6,87.7z M228.2,95.1h-1.5
				v-5.9h1.5V95.1z"/>
			<path class="st1" d="M229.2,92c0-0.9,0.2-1.6,0.6-2.1s1-0.8,1.8-0.8c0.8,0,1.3,0.3,1.8,0.8s0.6,1.2,0.6,2.1v0.4
				c0,0.9-0.2,1.6-0.6,2.1c-0.4,0.5-1,0.8-1.8,0.8c-0.8,0-1.3-0.3-1.8-0.8c-0.4-0.5-0.6-1.2-0.6-2.1V92z M230.8,92.4
				c0,1.1,0.3,1.6,0.8,1.6c0.5,0,0.8-0.4,0.8-1.3l0-0.6c0-0.5-0.1-0.9-0.2-1.2c-0.1-0.3-0.4-0.4-0.6-0.4c-0.3,0-0.5,0.1-0.6,0.4
				c-0.1,0.3-0.2,0.7-0.2,1.2V92.4z M231.9,86.8h1.7l-1.5,1.7h-1.3L231.9,86.8z"/>
			<path class="st1" d="M236.4,89.2l0,0.6c0.3-0.5,0.8-0.7,1.4-0.7c1,0,1.5,0.7,1.6,2.1v3.9h-1.5v-3.8c0-0.3,0-0.6-0.1-0.7
				c-0.1-0.2-0.3-0.2-0.5-0.2c-0.3,0-0.5,0.1-0.7,0.4v4.3h-1.5v-5.9H236.4z"/>
		</g>
		<g>
			<path class="st1" d="M155.5,104.5l0.8-3.3h1.6l-1.9,6.8c-0.3,1-0.8,1.5-1.6,1.5c-0.2,0-0.4,0-0.6-0.1v-1.2l0.2,0
				c0.2,0,0.4,0,0.5-0.1s0.2-0.3,0.3-0.5l0.1-0.4l-1.7-6h1.7L155.5,104.5z"/>
			<path class="st1" d="M166.6,104.4c0,0.9-0.3,1.6-0.8,2.1c-0.5,0.5-1.1,0.7-2,0.7c-0.9,0-1.6-0.3-2.1-0.9s-0.7-1.4-0.7-2.5v-1.3
				c0-1.1,0.2-1.9,0.7-2.5c0.5-0.6,1.2-0.9,2.1-0.9c0.9,0,1.5,0.2,2,0.7c0.4,0.5,0.7,1.2,0.8,2.1H165c0-0.6-0.1-0.9-0.3-1.2
				s-0.4-0.3-0.9-0.3c-0.4,0-0.7,0.2-0.9,0.5c-0.2,0.3-0.3,0.8-0.3,1.5v1.5c0,0.8,0.1,1.3,0.3,1.6c0.2,0.3,0.5,0.4,0.9,0.4
				c0.4,0,0.7-0.1,0.9-0.3c0.2-0.2,0.3-0.6,0.3-1.1H166.6z"/>
			<path class="st1" d="M170.4,106.5c-0.3,0.4-0.8,0.6-1.3,0.6c-0.5,0-1-0.2-1.2-0.6c-0.3-0.4-0.4-0.9-0.4-1.6v-3.8h1.5v3.9
				c0,0.6,0.2,0.9,0.6,0.9c0.4,0,0.6-0.2,0.8-0.5v-4.3h1.6v5.9h-1.5L170.4,106.5z"/>
			<path class="st1" d="M174.6,107.1h-1.5v-8.4h1.5V107.1z"/>
			<path class="st1" d="M177.6,99.7v1.5h0.8v1.2h-0.8v2.9c0,0.2,0,0.4,0.1,0.5c0.1,0.1,0.2,0.1,0.4,0.1c0.1,0,0.3,0,0.4,0l0,1.2
				c-0.3,0.1-0.5,0.1-0.9,0.1c-1,0-1.5-0.6-1.5-1.7v-3.1h-0.7v-1.2h0.7v-1.5H177.6z"/>
			<path class="st1" d="M182.1,106.5c-0.3,0.4-0.8,0.6-1.3,0.6c-0.5,0-1-0.2-1.2-0.6c-0.3-0.4-0.4-0.9-0.4-1.6v-3.8h1.5v3.9
				c0,0.6,0.2,0.9,0.6,0.9c0.4,0,0.6-0.2,0.8-0.5v-4.3h1.6v5.9h-1.5L182.1,106.5z"/>
			<path class="st1" d="M187.7,102.6l-0.5,0c-0.4,0-0.7,0.2-0.9,0.6v3.9h-1.5v-5.9h1.5l0,0.6c0.2-0.5,0.6-0.7,1-0.7
				c0.2,0,0.3,0,0.4,0.1L187.7,102.6z"/>
			<path class="st1" d="M191.1,107.1c0-0.1-0.1-0.2-0.1-0.5c-0.3,0.4-0.7,0.6-1.1,0.6c-0.5,0-0.9-0.2-1.2-0.5s-0.5-0.8-0.5-1.3
				c0-0.6,0.2-1.1,0.6-1.4s1-0.5,1.7-0.5h0.5V103c0-0.3,0-0.5-0.1-0.6s-0.2-0.2-0.4-0.2c-0.4,0-0.6,0.2-0.6,0.7h-1.5
				c0-0.5,0.2-1,0.6-1.3s0.9-0.5,1.6-0.5c0.6,0,1.1,0.2,1.5,0.5c0.4,0.3,0.5,0.8,0.5,1.4v2.8c0,0.5,0.1,0.9,0.2,1.2v0.1H191.1z
				 M190.2,106c0.2,0,0.3,0,0.4-0.1c0.1-0.1,0.2-0.2,0.3-0.2v-1.2h-0.4c-0.3,0-0.5,0.1-0.6,0.3c-0.2,0.2-0.2,0.4-0.2,0.7
				C189.7,105.7,189.9,106,190.2,106z"/>
			<path class="st1" d="M193.7,106.3c0-0.2,0.1-0.5,0.2-0.6c0.2-0.2,0.4-0.2,0.6-0.2c0.3,0,0.5,0.1,0.6,0.2s0.3,0.4,0.3,0.6
				c0,0.3-0.1,0.5-0.3,0.6s-0.4,0.2-0.6,0.2c-0.3,0-0.5-0.1-0.6-0.2C193.8,106.7,193.7,106.5,193.7,106.3z"/>
		</g>
	</g>
</g>
</svg>
