<?xml version="1.0" encoding="utf-8"?>
<!-- Generator: Adobe Illustrator 26.3.1, SVG Export Plug-In . SVG Version: 6.00 Build 0)  -->
<!DOCTYPE svg PUBLIC "-//W3C//DTD SVG 1.1//EN" "http://www.w3.org/Graphics/SVG/1.1/DTD/svg11.dtd" [
	<!ENTITY ns_extend "http://ns.adobe.com/Extensibility/1.0/">
	<!ENTITY ns_ai "http://ns.adobe.com/AdobeIllustrator/10.0/">
	<!ENTITY ns_graphs "http://ns.adobe.com/Graphs/1.0/">
	<!ENTITY ns_vars "http://ns.adobe.com/Variables/1.0/">
	<!ENTITY ns_imrep "http://ns.adobe.com/ImageReplacement/1.0/">
	<!ENTITY ns_sfw "http://ns.adobe.com/SaveForWeb/1.0/">
	<!ENTITY ns_custom "http://ns.adobe.com/GenericCustomNamespace/1.0/">
	<!ENTITY ns_adobe_xpath "http://ns.adobe.com/XPath/1.0/">
]>
<svg version="1.1" id="Capa_1" xmlns:x="&ns_extend;" xmlns:i="&ns_ai;" xmlns:graph="&ns_graphs;"
	 xmlns="http://www.w3.org/2000/svg" xmlns:xlink="http://www.w3.org/1999/xlink" x="0px" y="0px" viewBox="0 0 2229.5 294.5"
	 style="enable-background:new 0 0 2229.5 294.5;" xml:space="preserve">
<style type="text/css">
	.st0{fill:#4FA39D;}
	.st1{opacity:0.5;}
	.st2{fill:none;stroke:#D8DFF0;stroke-width:17.1462;stroke-miterlimit:10;}
	.st3{fill:none;stroke:#3A8DDE;stroke-width:17.1462;stroke-miterlimit:10;}
	.st4{fill:none;stroke:#D7282F;stroke-width:17.1462;stroke-miterlimit:10;}
	.st5{fill:none;stroke:#FFB71B;stroke-width:17.1462;stroke-miterlimit:10;}
	.st6{fill:none;stroke:#FF6633;stroke-width:17.1462;stroke-miterlimit:10;}
	.st7{fill:none;stroke:#FFFFFF;stroke-width:17.1462;stroke-miterlimit:10;}
	.st8{fill:none;stroke:#0033A1;stroke-width:17;stroke-miterlimit:10;}
	.st9{fill:#FFB71B;}
	.st10{fill:#FF6633;}
	.st11{fill:#0033A1;}
	.st12{fill:#D7282F;}
	.st13{fill:#3A8DDE;}
	.st14{fill:#FFFFFF;}
</style>
<metadata>
	<sfw  xmlns="&ns_sfw;">
		<slices></slices>
		<sliceSourceBounds  bottomLeftOrigin="true" height="294.5" width="2229.5" x="-117.1" y="-687.7"></sliceSourceBounds>
	</sfw>
</metadata>
<g>
	<rect x="0" class="st0" width="2229.5" height="294.5"/>
	<g>
		<g class="st1">
			<path class="st2" d="M277.2,53.4l-0.5,98.9c-0.1,14,11.3,25.4,25.3,25.4h29.6"/>
		</g>
		<g class="st1">
			<path class="st2" d="M0,72.3h100.6c14,0,25.4,11.4,25.4,25.4V130"/>
		</g>
		<g class="st1">
			<path class="st2" d="M90.4,203.9h208.2c14,0,25.4-11.4,25.4-25.4V87.9"/>
		</g>
		<g class="st1">
			<path class="st2" d="M98.2,248.1h124.4c14,0,33.9-7.6,44.3-17l29.8-26.7"/>
		</g>
		<g class="st1">
			<path class="st2" d="M0,170.1h138c14,0,25.4-11.4,25.4-25.4V58.4"/>
		</g>
		<g class="st1">
			<path class="st2" d="M184.3,143.1v-41.4c0-14,11.4-25.4,25.4-25.4h83.7"/>
		</g>
		<g class="st1">
			<path class="st2" d="M214.3,110.9H107.1c-14,0-25.4,11.4-25.4,25.4l0,84.4c0,14-11.4,25.4-25.4,25.4H0"/>
		</g>
		<g class="st1">
			<path class="st2" d="M56.7,83.8v30.3c0,14-11.4,25.4-25.4,25.4l-31.2,0"/>
		</g>
		<g class="st1">
			<path class="st2" d="M173.7,178.1h46.9c14,0,25.4-11.4,25.4-25.4V56.3"/>
		</g>
		<line class="st3" x1="0" y1="224.2" x2="105.8" y2="224.2"/>
		<g>
			<line class="st4" x1="271.4" y1="102.7" x2="271.4" y2="54.5"/>
		</g>
		<g>
			<path class="st5" d="M107.1,58.8H274c14,0,25.4,11.4,25.4,25.4v81.2c0,14,9.4,25.4,20.9,25.4s20.9,0,20.9,0"/>
		</g>
		<g>
			<path class="st6" d="M0,85h129.8c14,0,25.4,11.4,25.4,25.4v40.5"/>
		</g>
		<g>
			<path class="st7" d="M110.1,216.6h199.3c14,0,25.4-11.4,25.4-25.4v-27.2"/>
		</g>
		<g>
			<path class="st3" d="M100.6,240.1h79.9c14,0,33.9-7.6,44.3-17l29.8-26.7"/>
		</g>
		<g>
			<path class="st8" d="M0,182.8h159c14,0,25.4-11.4,25.4-25.4V58.4"/>
		</g>
		<g>
			<path class="st8" d="M209.7,155.8v-41.4c0-14,11.4-25.4,25.4-25.4l83.7,0"/>
		</g>
		<g>
			<path class="st5" d="M227,124.9h-95.8c-14,0-25.4,11.4-25.4,25.4v95.8c0,14-11.4,25.4-25.4,25.4H0"/>
		</g>
		<g>
			<path class="st4" d="M90.5,155.2H246c14,0,25.4-11.4,25.4-25.4V69"/>
		</g>
		<line class="st8" x1="184.4" y1="95.2" x2="184.4" y2="141.2"/>
		<line class="st8" x1="209.7" y1="144.9" x2="209.7" y2="208.1"/>
		<path class="st9" d="M124.5,67.2c-3.3,0-8.9,0.9-10.6,1.1c-1.6,0.2-7.1,2-9.5,2.4c-2.4,0.4-13-0.2-13.7-0.3
			c-0.7-0.2-1.8-0.4-2-1.7c-0.2-1.3,0.9-2.1,0.9-2.6c0-0.5-2.4,0-2.6-2.7c-0.2-2.6,1.9-2.8,1.9-3.1c0-0.4-3-0.7-2.9-3.7
			c0-2.7,2.3-3.8,2.3-3.8S72.3,53.2,70.1,53c-2.2-0.2-4.3-0.8-4.5-3.1c-0.2-1.7,1.1-2.8,4-3c2.9-0.2,15.8-0.7,16.4-0.7
			c0.6,0,4-0.2,4-0.2c-1.3-0.6-3-2.8-3-4.6c0-2.9,1.7-2.9,2.7-2.6c1,0.2,3.3,2.9,5.2,3.8c1.9,0.9,6.4,2.3,7.8,2.3
			c1.4,0,4.3,0.7,5.7,1.7c1.5,1.1,3.4,2.6,4.4,3.2c1.1,0.6,11.8,0.5,11.8,0.5V67.2z"/>
		<path class="st10" d="M147.2,141.2c0.2,0.8-0.9,6.8-2.4,8.8c-1.5,2-6.3,5.4-8,7.6c-1.8,2.3-5,7.9-7.3,10.1
			c-2.3,2.2-5.5,3.4-5.7,4.4c-0.2,1,2.3,4.1,6.3,2.7c4-1.4,6-4.9,6.8-6.1c0.8-1.1,2.8-2.3,3.3-1.5c0.5,0.7,2.3,6.2,2.3,7.8
			c0,1.6-1.4,8.8-1.8,11.2c-0.3,2.5-1.5,8.3-2,10c-0.4,1.6-0.1,3.2,1.8,3.6c1.9,0.4,2.8-2.4,3.2-3.6c0.4-1.2,3.8-13.6,4.1-14.3
			c0.3-0.7,0.8-1.5,1.2-1.3c0.4,0.2,0.6,1.8,0.6,2.5c0,0.7,0.6,14,1,16.3c0.4,2.3,1.1,4.5,3.2,4.4c2.1-0.1,1.8-3.4,1.6-5.1
			c-0.1-1.8-0.3-17.9-0.3-17.9h0.8c0,0,1.9,11.5,2.2,13.1c0.3,1.5,0.5,3.4,0.7,4.8c0.2,1.4,0.2,3,2.4,2.7c2.2-0.3,2.2-2.7,2.1-4.1
			c-0.1-1.4-1.3-15.9-1.3-17.1c0-1.2-0.4-3.1,0.1-3.2c0.5-0.1,1.9,2,2.5,3.1c0.6,1.1,3.8,8,4.8,10c1,2,1.6,2.7,3.1,2.4
			c1.4-0.3,1.3-2.7,1-4c-0.3-1.3-6.5-15.8-6.6-17.1c-0.1-1.3-0.7-8.9-1.3-11.9c-0.6-3.1-2.5-6.7-2.2-8.2c0.3-1.5,0.2-4.6,0.2-4.6
			L147.2,141.2z"/>
		<path class="st11" d="M202.8,53c-1.9,0.7-2.8,3.2-3.7,6c-0.7,2.3-1.9,3.7-3.3,3.5c-1.1-0.2-2.4-1.6-2.7-4.1l-0.3-19.5
			c0-1.4-0.8-2.6-2.1-2.6c-1.3,0-2.1,1.2-2.1,2.6l-0.2,17.9l0,0.4c0,0.4-0.4,0.7-0.8,0.7c-0.5,0-0.9-0.3-0.9-0.8l-0.3-24.8
			c0-1.4-0.8-2.6-2.1-2.6c-1.3,0-2.1,1.2-2.1,2.6L182,57.6c0,0.4-0.4,0.8-0.9,0.8c-0.1,0-0.1,0-0.2,0c0,0,0,0-0.1,0c0,0-0.1,0-0.1,0
			c0,0-0.1,0-0.1,0c0,0,0,0-0.1,0c0,0-0.1,0-0.1-0.1c0,0,0,0,0,0c0,0-0.1-0.1-0.1-0.1c0,0,0,0,0,0c-0.1-0.1-0.2-0.3-0.2-0.5v-0.5
			L180,36c0-1.4-0.8-2.6-2.1-2.6c-1.3,0-2.1,1.2-2.1,2.6l-0.3,21.8c0,0.1,0,0.2,0,0.2c0,0,0,0,0,0c0,0,0,0.1-0.1,0.1c0,0,0,0,0,0
			c0,0,0,0.1-0.1,0.1c0,0,0,0,0,0c0,0-0.1,0.1-0.1,0.1c0,0,0,0,0,0c0,0-0.1,0-0.1,0.1c0,0,0,0-0.1,0c0,0,0,0-0.1,0c0,0-0.1,0-0.1,0
			c0,0,0,0-0.1,0c-0.1,0-0.1,0-0.2,0c-0.1,0-0.1,0-0.2,0c0,0,0,0-0.1,0c0,0-0.1,0-0.1,0c0,0-0.1,0-0.1,0c0,0,0,0,0,0
			c0,0-0.1-0.1-0.1-0.1c0,0,0,0,0,0c-0.2-0.1-0.3-0.3-0.3-0.5v0c0,0,0,0,0,0l-0.3-13.6c0-1.4-0.4-2.6-1.8-2.6c-0.7,0-1.2,0.4-1.4,1
			c0,0.1-0.1,0.1-0.1,0.2c-0.1,0.4-0.1,0.9-0.1,1.4l0,2.9c-0.2,6.2-0.6,18.7-0.5,21.1c0.1,6.8,3.3,9.1,4.7,10
			c1.4,0.9,1.5,4.4,1.5,4.4v6.6h17c0,0-0.1-3.6,0-5.1c0.3-5.6,3.7-4.7,7.7-10.9c1-1.5,1.4-6.3,2.1-9.1c1.8-7.2,3-9.4,3-10.4
			C205.7,52.8,204.2,52.5,202.8,53z"/>
		<path class="st12" d="M64.3,136.8c0.7,1.9,3.2,2.8,6,3.7c2.3,0.7,3.7,1.9,3.5,3.3c-0.2,1.1-1.6,2.4-4.1,2.7l-19.5,0.3
			c-1.4,0-2.6,0.8-2.6,2.1c0,1.3,1.2,2.1,2.6,2.1l17.9,0.2l0.4,0c0.4,0,0.7,0.4,0.7,0.8c0,0.5-0.3,0.9-0.8,0.9l-24.8,0.3
			c-1.4,0-2.6,0.8-2.6,2.1c0,1.3,1.2,2.1,2.6,2.1l25.3,0.3c0.4,0,0.8,0.4,0.8,0.9c0,0.1,0,0.1,0,0.2c0,0,0,0,0,0.1c0,0,0,0.1,0,0.1
			c0,0,0,0.1,0,0.1c0,0,0,0,0,0.1c0,0,0,0.1-0.1,0.1c0,0,0,0,0,0c0,0-0.1,0.1-0.1,0.1c0,0,0,0,0,0c-0.1,0.1-0.3,0.2-0.5,0.2h-0.5
			l-21.1,0.3c-1.4,0-2.6,0.8-2.6,2.1s1.2,2.1,2.6,2.1l21.8,0.3c0.1,0,0.2,0,0.2,0c0,0,0,0,0,0c0,0,0.1,0,0.1,0.1c0,0,0,0,0,0
			c0,0,0.1,0,0.1,0.1c0,0,0,0,0,0c0,0,0.1,0.1,0.1,0.1c0,0,0,0,0,0c0,0,0,0.1,0.1,0.1c0,0,0,0,0,0.1c0,0,0,0,0,0.1c0,0,0,0.1,0,0.1
			c0,0,0,0,0,0.1c0,0.1,0,0.1,0,0.2c0,0.1,0,0.1,0,0.2c0,0,0,0,0,0.1c0,0,0,0.1,0,0.1c0,0,0,0.1,0,0.1c0,0,0,0,0,0
			c0,0-0.1,0.1-0.1,0.1c0,0,0,0,0,0c-0.1,0.2-0.3,0.3-0.5,0.3l0,0c0,0,0,0,0,0L55.5,166c-1.4,0-2.6,0.4-2.6,1.8c0,0.7,0.4,1.2,1,1.4
			c0.1,0,0.1,0.1,0.2,0.1c0.4,0.1,0.9,0.1,1.4,0.1l2.9,0c6.2,0.2,18.7,0.6,21.1,0.5c6.8-0.1,9.1-3.3,10-4.7c0.9-1.4,4.4-1.5,4.4-1.5
			h6.6v-17c0,0-3.6,0.1-5.1,0c-5.6-0.3-4.7-3.7-10.9-7.7c-1.5-1-6.3-1.4-9.1-2.1c-7.2-1.8-9.4-3-10.4-3
			C64.1,133.8,63.8,135.4,64.3,136.8z"/>
		<path class="st11" d="M342.6,70.6c-0.7,1.9-3.2,2.8-6,3.7c-2.3,0.7-3.7,1.9-3.5,3.3c0.2,1.1,1.6,2.4,4.1,2.7l19.5,0.3
			c1.4,0,2.6,0.8,2.6,2.1c0,1.3-1.2,2.1-2.6,2.1L338.8,85l-0.4,0c-0.4,0-0.7,0.4-0.7,0.8c0,0.5,0.3,0.9,0.8,0.9l24.8,0.3
			c1.4,0,2.6,0.8,2.6,2.1s-1.2,2.1-2.6,2.1l-25.3,0.3c-0.4,0-0.8,0.4-0.8,0.9c0,0.1,0,0.1,0,0.2c0,0,0,0,0,0.1c0,0,0,0.1,0,0.1
			c0,0,0,0.1,0,0.1c0,0,0,0,0,0.1c0,0,0,0.1,0.1,0.1c0,0,0,0,0,0c0,0,0.1,0.1,0.1,0.1c0,0,0,0,0,0c0.1,0.1,0.3,0.2,0.5,0.2h0.5
			l21.1,0.3c1.4,0,2.6,0.8,2.6,2.1c0,1.3-1.2,2.1-2.6,2.1l-21.8,0.3c-0.1,0-0.2,0-0.2,0c0,0,0,0,0,0c0,0-0.1,0-0.1,0.1c0,0,0,0,0,0
			c0,0-0.1,0-0.1,0.1c0,0,0,0,0,0c0,0-0.1,0.1-0.1,0.1c0,0,0,0,0,0c0,0,0,0.1-0.1,0.1c0,0,0,0,0,0.1c0,0,0,0,0,0.1c0,0,0,0.1,0,0.1
			c0,0,0,0,0,0.1c0,0.1,0,0.1,0,0.2c0,0.1,0,0.1,0,0.2c0,0,0,0,0,0.1c0,0,0,0.1,0,0.1c0,0,0,0.1,0,0.1c0,0,0,0,0,0
			c0,0,0.1,0.1,0.1,0.1c0,0,0,0,0,0c0.1,0.2,0.3,0.3,0.5,0.3h0c0,0,0,0,0,0l13.6,0.3c1.4,0,2.6,0.4,2.6,1.8c0,0.7-0.4,1.2-1,1.4
			c-0.1,0-0.1,0.1-0.2,0.1c-0.4,0.1-0.9,0.1-1.4,0.1l-2.9,0c-6.2,0.2-18.7,0.6-21.1,0.5c-6.8-0.1-9.1-3.3-10-4.7
			c-0.9-1.4-4.4-1.5-4.4-1.5h-6.6v-17c0,0,3.6,0.1,5.1,0c5.6-0.3,4.7-3.7,10.9-7.7c1.5-1,6.3-1.4,9.1-2.1c7.2-1.8,9.4-3,10.4-3
			C342.8,67.7,343.1,69.3,342.6,70.6z"/>
		<path class="st13" d="M256.9,166.8c0.9,1.8-0.2,4.2-1.6,6.9c-1.1,2.1-1.3,4-0.1,4.8c0.9,0.6,2.9,0.6,4.8-1l14-13.6
			c1-1,2.4-1.3,3.3-0.4c0.9,0.9,0.6,2.3-0.4,3.3l-12.5,12.8l-0.3,0.3c-0.3,0.3-0.2,0.8,0.1,1.1c0.3,0.3,0.8,0.4,1.1,0.1l17.7-17.3
			c1-1,2.4-1.3,3.3-0.4c0.9,0.9,0.6,2.3-0.4,3.3l-17.7,18.1c-0.3,0.3-0.3,0.8,0.1,1.1c0,0,0.1,0.1,0.1,0.1c0,0,0,0,0.1,0
			c0,0,0.1,0,0.1,0c0,0,0.1,0,0.1,0c0,0,0,0,0.1,0c0,0,0.1,0,0.1,0c0,0,0,0,0,0c0,0,0.1,0,0.1,0c0,0,0,0,0,0c0.2,0,0.3-0.1,0.4-0.2
			l0.4-0.4l15.2-14.7c1-1,2.4-1.3,3.3-0.4c0.9,0.9,0.6,2.3-0.4,3.3l-15.2,15.6c-0.1,0.1-0.1,0.1-0.1,0.2c0,0,0,0,0,0
			c0,0,0,0.1,0,0.1c0,0,0,0,0,0c0,0,0,0.1,0,0.1c0,0,0,0,0,0c0,0,0,0.1,0,0.1c0,0,0,0,0,0c0,0,0,0.1,0,0.1c0,0,0,0,0,0.1
			c0,0,0,0.1,0,0.1c0,0,0,0.1,0,0.1c0,0,0,0,0,0.1c0,0,0.1,0.1,0.1,0.1c0,0,0.1,0.1,0.1,0.1c0,0,0,0,0.1,0c0,0,0,0,0.1,0
			c0,0,0.1,0,0.1,0c0,0,0,0,0,0c0,0,0.1,0,0.1,0c0,0,0,0,0,0c0.2,0,0.4,0,0.6-0.2h0c0,0,0,0,0,0l9.8-9.4c1-1,2.1-1.5,3.1-0.6
			c0.5,0.5,0.6,1.1,0.3,1.7c0,0.1-0.1,0.1-0.1,0.2c-0.2,0.4-0.5,0.7-0.9,1.1l-2,2.1c-4.2,4.5-12.8,13.7-14.5,15.3
			c-4.9,4.7-8.8,4.1-10.4,3.7c-1.6-0.4-4.2,2.1-4.2,2.1l-4.7,4.7l-12.1-12.1c0,0,2.6-2.5,3.6-3.6c3.7-4.2,0.7-5.9,2.3-13.2
			c0.4-1.8,3.5-5.5,5-8c3.8-6.3,4.5-8.8,5.2-9.5C255,164.6,256.3,165.6,256.9,166.8z"/>
		<path class="st14" d="M316.4,140.1c1.9,0.7,2.8,3.2,3.7,6c0.7,2.3,1.9,3.7,3.3,3.5c1.1-0.2,2.4-1.6,2.7-4.1l0.3-19.5
			c0-1.4,0.8-2.6,2.1-2.6s2.1,1.2,2.1,2.6l0.2,17.9l0,0.4c0,0.4,0.4,0.7,0.8,0.7c0.5,0,0.9-0.3,0.9-0.8l0.3-24.8
			c0-1.4,0.8-2.6,2.1-2.6c1.3,0,2.1,1.2,2.1,2.6l0.3,25.3c0,0.4,0.4,0.8,0.9,0.8c0.1,0,0.1,0,0.2,0c0,0,0,0,0.1,0c0,0,0.1,0,0.1,0
			c0,0,0.1,0,0.1,0c0,0,0,0,0.1,0c0,0,0.1,0,0.1-0.1c0,0,0,0,0,0c0,0,0.1-0.1,0.1-0.1c0,0,0,0,0,0c0.1-0.1,0.2-0.3,0.2-0.5v-0.5
			l0.3-21.1c0-1.4,0.8-2.6,2.1-2.6c1.3,0,2.1,1.2,2.1,2.6l0.3,21.8c0,0.1,0,0.2,0,0.2c0,0,0,0,0,0c0,0,0,0.1,0.1,0.1c0,0,0,0,0,0
			c0,0,0,0.1,0.1,0.1c0,0,0,0,0,0c0,0,0.1,0.1,0.1,0.1c0,0,0,0,0,0c0,0,0.1,0,0.1,0.1c0,0,0,0,0.1,0c0,0,0,0,0.1,0c0,0,0.1,0,0.1,0
			c0,0,0,0,0.1,0c0.1,0,0.1,0,0.2,0c0.1,0,0.1,0,0.2,0c0,0,0,0,0.1,0c0,0,0.1,0,0.1,0c0,0,0.1,0,0.1,0c0,0,0,0,0,0
			c0,0,0.1-0.1,0.1-0.1c0,0,0,0,0,0c0.2-0.1,0.3-0.3,0.3-0.5l0,0c0,0,0,0,0,0l0.3-13.6c0-1.4,0.4-2.6,1.8-2.6c0.7,0,1.2,0.4,1.4,1
			c0,0.1,0.1,0.1,0.1,0.2c0.1,0.4,0.1,0.9,0.1,1.4l0,2.9c0.2,6.2,0.6,18.7,0.5,21.1c-0.1,6.8-3.3,9.1-4.7,10
			c-1.4,0.9-1.5,4.4-1.5,4.4v6.6h-17c0,0,0.1-3.6,0-5.1c-0.3-5.6-3.7-4.7-7.7-10.9c-1-1.5-1.4-6.3-2.1-9.1c-1.8-7.2-3-9.4-3-10.4
			C313.5,139.9,315.1,139.7,316.4,140.1z"/>
		<path class="st9" d="M238.3,106.4c-0.7,1.9-3.2,2.8-6,3.7c-2.3,0.7-3.7,1.9-3.5,3.3c0.2,1.1,1.6,2.4,4.1,2.7l19.5,0.3
			c1.4,0,2.6,0.8,2.6,2.1c0,1.3-1.2,2.1-2.6,2.1l-17.9,0.2l-0.4,0c-0.4,0-0.7,0.4-0.7,0.8c0,0.5,0.3,0.9,0.8,0.9l24.8,0.3
			c1.4,0,2.6,0.8,2.6,2.1c0,1.3-1.2,2.1-2.6,2.1l-25.3,0.3c-0.4,0-0.8,0.4-0.8,0.9c0,0.1,0,0.1,0,0.2c0,0,0,0,0,0.1c0,0,0,0.1,0,0.1
			c0,0,0,0.1,0,0.1c0,0,0,0,0,0.1c0,0,0,0.1,0.1,0.1c0,0,0,0,0,0c0,0,0.1,0.1,0.1,0.1c0,0,0,0,0,0c0.1,0.1,0.3,0.2,0.5,0.2h0.5
			l21.1,0.3c1.4,0,2.6,0.8,2.6,2.1c0,1.3-1.2,2.1-2.6,2.1l-21.8,0.3c-0.1,0-0.2,0-0.2,0c0,0,0,0,0,0c0,0-0.1,0-0.1,0.1c0,0,0,0,0,0
			c0,0-0.1,0-0.1,0.1c0,0,0,0,0,0c0,0-0.1,0.1-0.1,0.1c0,0,0,0,0,0c0,0,0,0.1-0.1,0.1c0,0,0,0,0,0.1c0,0,0,0,0,0.1c0,0,0,0.1,0,0.1
			c0,0,0,0,0,0.1c0,0.1,0,0.1,0,0.2c0,0.1,0,0.1,0,0.2c0,0,0,0,0,0.1c0,0,0,0.1,0,0.1c0,0,0,0.1,0,0.1c0,0,0,0,0,0
			c0,0,0.1,0.1,0.1,0.1c0,0,0,0,0,0c0.1,0.2,0.3,0.3,0.5,0.3h0c0,0,0,0,0,0l13.6,0.3c1.4,0,2.6,0.4,2.6,1.8c0,0.7-0.4,1.2-1,1.4
			c-0.1,0-0.1,0.1-0.2,0.1c-0.4,0.1-0.9,0.1-1.4,0.1l-2.9,0c-6.2,0.2-18.7,0.6-21.1,0.5c-6.8-0.1-9.1-3.3-10-4.7
			c-0.9-1.4-4.4-1.5-4.4-1.5h-6.6v-17c0,0,3.6,0.1,5.1,0c5.6-0.3,4.7-3.7,10.9-7.7c1.5-1,6.3-1.4,9.1-2.1c7.2-1.8,9.4-3,10.4-3
			C238.5,103.5,238.7,105.1,238.3,106.4z"/>
		<path class="st14" d="M52.8,99.6c-0.7,1.9-3.2,2.8-6,3.7c-2.3,0.7-3.7,1.9-3.5,3.3c0.2,1.1,1.6,2.4,4.1,2.7l19.5,0.3
			c1.4,0,2.6,0.8,2.6,2.1c0,1.3-1.2,2.1-2.6,2.1L49,114l-0.4,0c-0.4,0-0.7,0.4-0.7,0.8c0,0.5,0.3,0.9,0.8,0.9l24.8,0.3
			c1.4,0,2.6,0.8,2.6,2.1c0,1.3-1.2,2.1-2.6,2.1l-25.3,0.3c-0.4,0-0.8,0.4-0.8,0.9c0,0.1,0,0.1,0,0.2c0,0,0,0,0,0.1c0,0,0,0.1,0,0.1
			c0,0,0,0.1,0,0.1c0,0,0,0,0,0.1c0,0,0,0.1,0.1,0.1c0,0,0,0,0,0c0,0,0.1,0.1,0.1,0.1c0,0,0,0,0,0c0.1,0.1,0.3,0.2,0.5,0.2h0.5
			l21.1,0.3c1.4,0,2.6,0.8,2.6,2.1c0,1.3-1.2,2.1-2.6,2.1L48,126.9c-0.1,0-0.2,0-0.2,0c0,0,0,0,0,0c0,0-0.1,0-0.1,0.1c0,0,0,0,0,0
			c0,0-0.1,0-0.1,0.1c0,0,0,0,0,0c0,0-0.1,0.1-0.1,0.1c0,0,0,0,0,0c0,0,0,0.1-0.1,0.1c0,0,0,0,0,0.1c0,0,0,0,0,0.1c0,0,0,0.1,0,0.1
			c0,0,0,0,0,0.1c0,0.1,0,0.1,0,0.2c0,0.1,0,0.1,0,0.2c0,0,0,0,0,0.1c0,0,0,0.1,0,0.1c0,0,0,0.1,0,0.1c0,0,0,0,0,0
			c0,0,0.1,0.1,0.1,0.1c0,0,0,0,0,0c0.1,0.2,0.3,0.3,0.5,0.3h0c0,0,0,0,0,0l13.6,0.3c1.4,0,2.6,0.4,2.6,1.8c0,0.7-0.4,1.2-1,1.4
			c-0.1,0-0.1,0.1-0.2,0.1c-0.4,0.1-0.9,0.1-1.4,0.1l-2.9,0c-6.2,0.2-18.7,0.6-21.1,0.5c-6.8-0.1-9.1-3.3-10-4.7
			c-0.9-1.4-4.4-1.5-4.4-1.5H0v-17c0,0,20.2,0.1,21.7,0c5.6-0.3,4.7-3.7,10.9-7.7c1.5-1,6.3-1.4,9.1-2.1c7.2-1.8,9.4-3,10.4-3
			C53,96.7,53.3,98.3,52.8,99.6z"/>
	</g>
</g>
</svg>
