<?xml version="1.0" encoding="utf-8"?>
<!-- Generator: Adobe Illustrator 26.3.1, SVG Export Plug-In . SVG Version: 6.00 Build 0)  -->
<!DOCTYPE svg PUBLIC "-//W3C//DTD SVG 1.1//EN" "http://www.w3.org/Graphics/SVG/1.1/DTD/svg11.dtd" [
	<!ENTITY ns_extend "http://ns.adobe.com/Extensibility/1.0/">
	<!ENTITY ns_ai "http://ns.adobe.com/AdobeIllustrator/10.0/">
	<!ENTITY ns_graphs "http://ns.adobe.com/Graphs/1.0/">
	<!ENTITY ns_vars "http://ns.adobe.com/Variables/1.0/">
	<!ENTITY ns_imrep "http://ns.adobe.com/ImageReplacement/1.0/">
	<!ENTITY ns_sfw "http://ns.adobe.com/SaveForWeb/1.0/">
	<!ENTITY ns_custom "http://ns.adobe.com/GenericCustomNamespace/1.0/">
	<!ENTITY ns_adobe_xpath "http://ns.adobe.com/XPath/1.0/">
]>
<svg version="1.1" id="Capa_1" xmlns:x="&ns_extend;" xmlns:i="&ns_ai;" xmlns:graph="&ns_graphs;"
	 xmlns="http://www.w3.org/2000/svg" xmlns:xlink="http://www.w3.org/1999/xlink" x="0px" y="0px" viewBox="0 0 1407 144.8"
	 style="enable-background:new 0 0 1407 144.8;" xml:space="preserve">
<style type="text/css">
	.st0{fill:#0033A0;}
	.st1{fill:#DA522A;}
	.st2{fill:#FFFFFF;}
	.st3{font-family:'RobotoCondensed-Regular';}
	.st4{font-size:10.9497px;}
	.st5{font-family:'RobotoCondensed-Bold';}
	.st6{font-size:11.076px;}
	.st7{fill:#142F4E;}
	.st8{font-size:11.0758px;}
	.st9{fill:#395C7E;}
	.st10{fill:#005693;}
	.st11{fill:#FFD600;}
</style>
<metadata>
	<sfw  xmlns="&ns_sfw;">
		<slices></slices>
		<sliceSourceBounds  bottomLeftOrigin="true" height="144.8" width="1407" x="51" y="-591.8"></sliceSourceBounds>
	</sfw>
</metadata>
<g>
	<g>
		<g>
			<path class="st0" d="M123.2,44.8c0-12.3,8.3-28.1,29-28.1c19.2,0,28.5,15.5,28.5,27.7c0,6.4-2.7,14.4-7.4,19.5
				c-5.1,5.5-13.6,8.8-21.5,8.8C136.4,72.6,123.2,61.6,123.2,44.8L123.2,44.8z M191.5,44.5c0-19.8-15.3-37.8-39.8-37.8
				c-25.2,0-39.5,18.5-39.5,38.1c0,20.6,15.8,37.7,39,37.7C175.3,82.5,191.5,65.7,191.5,44.5L191.5,44.5z"/>
			<polygon class="st0" points="214.5,7.7 203.9,7.7 203.9,81.5 214.5,81.5 214.5,7.7 			"/>
			<polygon class="st0" points="268,52.6 290.8,24 290.8,81.5 301.4,81.5 301.4,7.7 291.5,7.7 267.1,38 242.5,7.7 232.5,7.7 
				232.5,81.5 243.2,81.5 243.2,24 266.1,52.6 268,52.6 			"/>
			<path class="st0" d="M20.5,114.2c-1.7,1.8-4.5,2.9-7.2,2.9c-5.1,0-9.5-3.7-9.5-9.3c0-4.1,2.8-9.4,9.7-9.4c6.4,0,9.5,5.1,9.5,9.3
				C23,109.8,22,112.6,20.5,114.2L20.5,114.2z M13.3,95.2c-8.5,0-13.2,6.2-13.2,12.7c0,6.8,5.3,12.5,13,12.5c8,0,13.5-5.5,13.5-12.6
				C26.6,101.2,21.5,95.2,13.3,95.2L13.3,95.2z"/>
			<polygon class="st0" points="50.8,114.6 34.2,95.5 31.3,95.5 31.3,120.1 34.6,120.1 34.6,101.2 51.1,120.1 54.1,120.1 54.1,95.5 
				50.8,95.5 50.8,114.6 			"/>
			<path class="st0" d="M78.1,109.4c0,2.4-0.2,3.7-0.7,4.6c-0.7,1.2-2.4,3.2-6.4,3.2c-2.8,0-4.5-0.9-5.5-2c-1.2-1.3-1.6-2.6-1.6-5.8
				V95.5h-3.5v13.9c0,1.7,0,4.5,1.4,6.7c2,3.1,5.8,4.3,9.3,4.3c2.8,0,5.5-0.7,7.8-2.6c2.8-2.5,2.8-6,2.8-8.3V95.5h-3.5V109.4
				L78.1,109.4z"/>
			<polygon class="st0" points="109.5,105.6 101.3,95.5 98,95.5 98,120.1 101.5,120.1 101.5,100.9 109.2,110.5 109.8,110.5 
				117.4,100.9 117.4,120.1 120.9,120.1 120.9,95.5 117.7,95.5 109.5,105.6 			"/>
			<polygon class="st0" points="128,120.1 131.5,120.1 131.5,95.5 128,95.5 128,120.1 			"/>
			<path class="st0" d="M150.5,111.1h4.7v5.1c-2.3,0.8-3.5,1.1-5.3,1.1c-6,0-9.9-4.1-9.9-9.5c0-5.8,4.7-9.5,9.5-9.5
				c1.4,0,4.7,0.3,8.7,2.6v-3.6c-2.6-1.1-5.2-2.1-8.7-2.1c-8.5,0-13.3,6.4-13.3,12.8c0,5.6,3.9,12.4,13.5,12.4c4.1,0,7.2-1.1,9.1-2
				V108h-8.3V111.1"/>
			<path class="st0" d="M173.7,105.9c-1,0.4-2.9,0.4-3.4,0.4h-1.4v-7.8h1.1c2.1,0,3.2,0.1,4.2,0.6c1.1,0.5,1.9,1.8,1.9,3.2
				C176.1,103.7,175.3,105.2,173.7,105.9L173.7,105.9z M175.5,108.4c2.7-1.1,4.1-3.2,4.1-6.1c0-2.5-1.2-4.9-3.9-6
				c-1.6-0.7-3.1-0.8-4.3-0.8h-6.2v24.6h3.5v-10.8h0.9c1.7,0,2.8,0,5.3,3.1c0.8,1,4.3,6.4,5.1,7.6h4.2c-1.7-2.4-2.3-3.2-3.4-4.9
				C179.1,112.1,177.7,109.9,175.5,108.4L175.5,108.4z"/>
			<path class="st0" d="M193.4,109.6l3.7-8.9l4,8.9H193.4z M195.9,95.4l-10.6,24.8h3.6l3.1-7.3h10.4l3.3,7.3h3.6l-11-24.8H195.9"/>
			<path class="st0" d="M214.5,107.9c0-4.9,3.8-9.3,9.7-9.3c3,0,6,0.9,8.5,2.4v-3.8c-1.6-0.7-4.8-2-8.6-2c-7.8,0-13.3,5.9-13.3,12.6
				c0,5.7,4.1,12.6,13.3,12.6c3.1,0,6.1-0.6,8.9-2.2v-3.9c-2.6,1.7-5.6,2.8-8.7,2.8C217.7,117.2,214.5,112.4,214.5,107.9"/>
			<polygon class="st0" points="239.1,120.1 242.6,120.1 242.6,95.5 239.1,95.5 239.1,120.1 			"/>
			<path class="st0" d="M268.5,114.2c-1.7,1.8-4.5,2.9-7.2,2.9c-5.2,0-9.6-3.7-9.6-9.3c0-4.1,2.8-9.4,9.7-9.4c6.4,0,9.5,5.1,9.5,9.3
				C270.9,109.8,270.1,112.6,268.5,114.2L268.5,114.2z M261.3,95.2c-8.4,0-13.2,6.2-13.2,12.7c0,6.8,5.3,12.5,13,12.5
				c8,0,13.5-5.5,13.5-12.6C274.5,101.2,269.5,95.2,261.3,95.2"/>
			<polygon class="st0" points="258.7,93.8 260.6,93.8 266.5,88.4 261.3,88.4 258.7,93.8 			"/>
			<polygon class="st0" points="298.1,95.5 298.1,114.6 281.4,95.5 278.6,95.5 278.6,120.1 281.9,120.1 281.9,101.2 298.3,120.1 
				301.4,120.1 301.4,95.5 298.1,95.5 			"/>
			<path class="st0" d="M38.7,37.6c0.9,0,1.5-0.7,1.5-1.5c0-0.8-0.6-1.5-1.5-1.5c-0.8,0-1.5,0.7-1.5,1.5
				C37.2,36.9,37.9,37.6,38.7,37.6L38.7,37.6z"/>
			<path class="st0" d="M55.9,38.7c-0.1-0.3-0.3-0.4-0.6-0.4h-0.1h-1h-0.7h-0.9h-0.7h-1.1l0,0c-0.3,0-0.5,0.1-0.6,0.4l-2.8,6.8h-2.8
				l-2.9-6.8c-0.1-0.3-0.3-0.4-0.6-0.4h-2.3h-2.3c-0.3,0-0.5,0.1-0.6,0.4l-3,7.1c-0.1,0.3-0.1,0.7,0.2,0.9c0.1,0.1,0.2,0.1,0.3,0.1
				c0.3,0,0.5-0.1,0.6-0.4l2.7-6.3l0.1,6.2L35.8,54c-0.1,0.3,0.1,0.6,0.4,0.7c0.1,0.1,0.1,0.1,0.2,0.1c0.3,0,0.6-0.3,0.7-0.5
				l0.9-7.4h1.3l0.9,7.4c0.1,0.3,0.3,0.5,0.7,0.5c0.1,0,0.1,0,0.2-0.1c0.3-0.1,0.5-0.4,0.4-0.7l-1-7.8l0.2-6.2l2.7,6.3l0,0
				c0,0.1,0,0.1,0,0.1h0.1v0.1c0.1,0,0.1,0,0.1,0c0,0.1,0,0.1,0.1,0.1l0,0c0.1,0.1,0.1,0.1,0.1,0.1l0,0c0,0.1,0.1,0.1,0.1,0.1H44H44
				l0,0h0.5l-0.8,4.4c-0.1,0.3,0,0.6,0.2,0.9c0.1,0.1,0.3,0.3,0.5,0.3v1.8c0,0.3,0.2,0.5,0.5,0.5c0.3,0,0.5-0.3,0.5-0.5v-1.8l0,0
				c0,0,0,0,0.1,0h0.3h0.3l0,0c0,0,0,0,0.1,0l0,0v1.8c0,0.3,0.2,0.5,0.5,0.5c0.3,0,0.5-0.3,0.5-0.5v-1.8c0.1-0.1,0.3-0.2,0.5-0.3
				c0.2-0.3,0.3-0.6,0.2-0.9l-0.9-4.4h0.5l0,0c0.1,0,0.1,0,0.1,0l0,0c0.1,0,0.1,0,0.1-0.1c0.1,0,0.1,0,0.1,0s0.1,0,0.1-0.1h0.1
				c0,0,0,0,0.1-0.1l0,0l0.1-0.1l0,0c0-0.1,0.1-0.1,0.1-0.1l0,0l2.8-6.5l0.5,2.6c0.1,0.4,0.1,0.9-0.1,1.4l-2.5,10.9h3.5h0.9h3.4
				l-2.5-11c-0.1-0.4-0.1-0.9-0.1-1.3l0.6-2.7l2.1,5.3c0.1,0.3,0.3,0.4,0.6,0.4c0.1,0,0.2,0,0.3-0.1c0.3-0.1,0.5-0.5,0.3-0.8
				L55.9,38.7"/>
			<path class="st0" d="M53,37.6c0.8,0,1.5-0.7,1.5-1.5c0-0.8-0.7-1.5-1.5-1.5s-1.5,0.7-1.5,1.5C51.5,36.9,52.2,37.6,53,37.6
				L53,37.6z"/>
			<path class="st0" d="M45.9,45.1c0.6,0,1.1-0.5,1.1-1.2c0-0.6-0.5-1.1-1.1-1.1c-0.6,0-1.2,0.5-1.2,1.1
				C44.8,44.6,45.3,45.1,45.9,45.1L45.9,45.1z"/>
			<path class="st0" d="M82.9,57.2h-6.7c1.8-3.2,2.8-7,2.8-10.8c0-0.2,0-0.7,0-1h6.9C85.5,49.6,84.5,53.6,82.9,57.2L82.9,57.2z
				 M70.3,71.8c-1.4-1.4-3-2.6-4.8-3.7c3.5-1.9,6.8-4.9,9.3-8.7h7C79,64.5,75,68.8,70.3,71.8L70.3,71.8z M55.1,76.4v-9.2
				c5.2,0.2,9.9,2.3,13.5,5.6C64.5,74.9,59.9,76.2,55.1,76.4L55.1,76.4z M72.3,59.5c-2.5,3.3-5.7,6-9.3,7.5c-2.4-1-5.1-1.6-8-1.8
				v-5.7H72.3z M34.3,57.2c-2-3.2-3.1-6.9-3.1-10.8v-0.1l0,0l0.1-2.3H14.1c0-0.3,0-0.7,0-1c0-3.9,1.1-7.6,3-10.8h39.6
				c1.9,3.2,3.1,6.9,3.1,10.8c0,0.1,0,0.1,0,0.1h-0.1v2.3h17c0,0.3,0.1,0.7,0.1,1c0,3.9-1.2,7.5-3.1,10.8H34.3z M52.8,65.2
				C50,65.3,47.5,66,45.1,67c-3.5-1.6-6.8-4.2-9.3-7.5h17V65.2z M52.8,76.4c-4.7-0.3-9.1-1.6-13-3.7c3.4-3.2,7.9-5.2,13-5.5V76.4z
				 M26.8,59.5h6.6c2.4,3.7,5.7,6.8,9.3,8.7c-1.7,1-3.3,2.2-4.7,3.5C33.3,68.7,29.5,64.5,26.8,59.5L26.8,59.5z M22.8,46.3h6.4v0.1
				c0,3.8,1.1,7.5,2.8,10.8h-6.4C24.1,53.8,23.1,50.1,22.8,46.3L22.8,46.3z M5.2,44c0.3-4.2,1.4-8.2,3-11.8h6.7
				c-1.7,3.2-2.8,7-2.8,10.8c0,0.2,0,0.7,0,1H5.2z M20.8,17.6c1.4,1.4,3,2.6,4.8,3.7c-3.6,1.9-6.9,4.9-9.3,8.7h-7
				C12.1,24.8,16,20.6,20.8,17.6L20.8,17.6z M36,24.2v5.7H18.7c2.5-3.3,5.8-6,9.3-7.5C30.5,23.4,33.2,24,36,24.2L36,24.2z M36,13
				v9.2c-5.3-0.2-10-2.3-13.5-5.6C26.6,14.4,31.2,13.1,36,13L36,13z M38.3,24.2c2.7-0.2,5.3-0.8,7.6-1.8c3.5,1.6,6.8,4.2,9.3,7.5
				H38.3V24.2z M38.3,13c4.7,0.3,9.1,1.6,12.9,3.7c-3.4,3.1-7.9,5.2-12.9,5.5V13z M64.3,29.9h-6.5c-2.5-3.7-5.8-6.8-9.3-8.7
				c1.7-1,3.2-2.2,4.7-3.5C57.7,20.7,61.6,24.9,64.3,29.9L64.3,29.9z M68.3,43.1h-6.4V43c0-3.8-1-7.5-2.8-10.8h6.3
				C67,35.6,67.9,39.2,68.3,43.1L68.3,43.1z M69.1,7.9c2.1,1.8,4.9,5.1,4.9,5.1C81.6,21.4,86,32.7,86,42.8c0,0.1-0.1,0.3-0.1,0.3
				H73.5C71.6,23.4,55.9,7.9,36.8,7.9C16.5,7.9,0,25.3,0,46.9c0,11.7,5.3,24.8,14.1,34.6h7.8c-2-1.9-4.9-5.1-4.9-5.1
				C9.5,68,5.1,56.7,5.1,46.6c0-0.1,0-0.3,0-0.3h12.4C19.5,66,35.2,81.5,54.2,81.5C74.6,81.5,91,64.1,91,42.4
				C91,30.7,85.7,17.6,77,7.9H69.1"/>
		</g>
		<g>
			<g>
				<rect x="674.8" class="st1" width="127.1" height="127.1"/>
				<text transform="matrix(1 0 0 1 690.7368 33.4187)"><tspan x="0" y="0" class="st2 st3 st4">F</tspan><tspan x="5.1" y="0" class="st2 st3 st4">acultad </tspan></text>
				<text transform="matrix(1 0 0 1 690.7368 44.5661)" class="st2 st3 st4">Latinoamericana de</text>
				<text transform="matrix(1 0 0 1 690.7368 55.7107)" class="st2 st3 st4">Ciencias Sociales.</text>
				<text transform="matrix(1 0 0 1 690.7368 66.8581)"><tspan x="0" y="0" class="st2 st3 st4">Sede A</tspan><tspan x="30.2" y="0" class="st2 st3 st4">r</tspan><tspan x="33.4" y="0" class="st2 st3 st4">gentina.</tspan></text>
				<text transform="matrix(1 0 0 1 690.7368 89.8239)"><tspan x="0" y="0" class="st2 st5 st6">Programa</tspan><tspan x="0" y="13.3" class="st2 st5 st6">Educación a Distancia.</tspan></text>
			</g>
			<g>
				<rect x="414.9" class="st7" width="127.1" height="127.1"/>
				<g>
					<path class="st2" d="M485.3,21.5c-1.4-0.1-2.7-0.2-4.1-0.3c-0.4,0-0.8,0-1.2,0h-1.6c-0.9,0-1.7,0-2.5,0c-0.9,0-1.8,0.1-2.8,0.1
						c-4.7,0.3-9.4,1.1-14,2.3c-0.1,0.1-0.3,0.1-0.5,0.1c0.1,0.2,0.3,0.2,0.5,0.3c0,0,0.1,0,0.1,0.1c0.2,0.1,0.3,0.3,0.6,0.3
						c0.4,0,0.7,0.1,1.1,0c0.7-0.2,0.8-0.3,1.3,0.2c0.3,0.2,0.3,0.2,0.3,0.6c0.1,0.3,0,0.4,0.3,0.6c0.2,0.2,0.4,0.2,0.6-0.1
						c0.3-0.6,1.1,0.2,1.1,0.5c0,0.6,0.1,0.2,0.3,0.5c0.1,0.1,0.1,0.9,0.6,1.1c0.2,0.1,0.4,0,0.4,0.3c0,0.1,0,0.2-0.1,0.3
						c-0.1,0.2-0.1,0.4-0.2,0.5c-0.3,0.6-0.2,1.2,0.1,1.8c0.1,0.1,0.2,0.3,0.3,0.5c0.2,0.6,0.3,0.8,0.7,1c0.3,0.1,0.6,0.1,0.9,0.2
						c0.2,0,0.3,0,0.5-0.1c0.2-0.1,0.3-0.1,0.5,0c0.4,0.3,0.3,0,0.5-0.3c0.3-0.4,0.4-0.1,0.4-0.8c0-0.1,0.1-0.3,0.3-0.4
						c0.5,0,0.6-0.2,1.1-0.2c0.2,0,0.6,0,0.4,0.5c-0.3,0.3-0.3,0.3-0.4,0.7c0,0.4-0.1,0.5-0.2,0.7c-0.3,0.4-0.1,0.2-0.2,0.6
						c0,0.2-0.1,0.3-0.2,0.4c-0.1,0.2,0.1,0.3,0.4,0.3c0.2-0.1,0.4-0.1,0.6,0c0.3,0,0.5,0,0.7,0c0.4,0,0.7,0,0.9,0.3
						c0.3,0.3,0.2,0.4,0.1,1c-0.1,0.1,0.1,0.3,0,0.4c0,0.3-0.2,0.6-0.2,0.8c0,0.1,0,0.3,0.1,0.4c0.1,0.2,0.2,0.3,0.4,0.5
						c0.1,0.2,0.3,0.3,0.6,0.5c0.8,0.5,0.8,0,1.5-0.1c0.3,0,0.6,0,0.8,0.1c0.2,0.1,0.4,0.2,0.6,0.4c0.2,0.2,0.4,0.3,0.5-0.1
						c0-0.2,0.1-0.3,0.2-0.3c0.2,0,0.1-0.1,0.2-0.3c0,0,0-0.1,0.1-0.1v0v-0.1c0.1-0.4,0.6-0.6,1-0.7h0.1c0.2,0,0.6-0.2,0.7-0.4
						c0.1-0.2,0.6-0.5,0.4,0.1c-0.1,0.1-0.1,0.1-0.1,0.3c0,0.1,0,0.1,0,0.1c0.1,0.2-0.1,0.3-0.1,0.5c0,0.1,0.1,0.1,0.2,0.1
						c0.1,0.1,0.1,0.2,0.2,0.3c0.1,0.1,0.3,0,0.3-0.2v0v-0.1c0-0.1-0.1-0.2-0.1-0.3c0-0.2,0-0.3,0.1-0.4c0,0,0.1-0.1,0.1-0.1
						c0.5-0.3,0.8-0.4,1.1-0.2c0.1,0,0.1,0.1,0.1,0.1c0.4,0.4,0.2,0.4,0.7,0.4c0.4,0,0.5-0.1,0.9,0.1c0.2,0.1,0.9,0.3,1.1,0
						c0.2-0.4,0.7-0.4,0.8-0.1c0.1,0.2,0.2,0.2,0.4,0.3c0,0,0,0,0,0c0.2,0,0.2,0,0.4,0.2c0.2,0.2,0,0.2,0,0.4c0,0.2,0,0.1,0.3,0.1
						c0.5,0,1.1,0.2,1.3,0.7c0.1,0.3,0.4,0.1,0.6,0.3c0.3,0.4,0.2,0.4,0.7,0.4c0.1,0,0.2,0,0.3,0c0.4-0.1,0.6-0.1,0.8,0
						c0.2,0.1,0.3,0.4,0.6,0.3c0.4-0.1,0.5,0.3,0.8,0.5c0.4,0.3,0.6,0.3,0.6,0.9c0,0.4,0,0.3,0.3,0.6c0.3,0.4,0.4,0.5-0.1,0.9
						c-0.4,0.3-0.4,0.5,0.2,0.2c0.2-0.1,0.4,0.1,0.7,0.2c0.2,0.2,0.2,0.3,0,0.4c0,0.5-0.1,0.4,0.3,0.1c0.4-0.4,0.7-0.4,1.2-0.1
						c0.2,0.1,0.3,0.3,0.5,0.4c0.5,0.4,0.9,0.6,1.6,0.6c0.4,0,0.6,0.2,1,0.1c0.5-0.1,0.9,0.2,1.2,0.6c0.1,0.2,0.4,0.4,0.6,0.5
						c0.6,0.3,0.8-0.1,1.1,0.7c0.5,1.3-0.5,2.3-1.3,3.2c-0.3,0.4-0.2,0.6-0.4,0.9c-0.3,0.3-0.8,0.1-0.7,0.6c0.1,0.2-0.1,0.4-0.2,0.6
						c0,0.1,0,0.2,0,0.3c0,0.3,0.1,0.6-0.1,0.8c0,0.3-0.1,0.5-0.1,0.8c-0.3,0.6-0.5,0.9-0.7,1.3c-0.2,0.2-0.2,0.3-0.4,0.4
						c-0.3,0.2-0.1,0.5-0.3,0.7c-0.1,0.1-0.1,0.1-0.3,0.2c-0.4,0.3-0.4,0.3-0.9,0.3c-1,0-2.4,0.6-3,1.6c-0.2,0.4-0.2,0.6-0.3,0.9
						c-0.1,0.5-0.3,0.4-0.5,0.7c-0.4,0.5-0.4,1.1-0.9,0.9c-0.1,0-0.2,0.1-0.4,0.4c-0.1,0.1-0.3,0.3-0.4,0.5c0,0.2-0.1,0.3-0.3,0.5
						c-0.2,0.2-0.3,0.3-0.5,0.5c-0.3,0.7-0.9,0.6-1.6,0.5c-0.2,0-0.4-0.2-0.6-0.2c-0.4-0.2-0.4,0.1-0.1,0.3c0.1,0.1,0.1,0.1,0.2,0.1
						c0.1,0.3-0.3,0.4,0.1,0.7c0.1,0.2,0,0.4-0.2,0.7c-0.3,0.4-0.7,0.6-1.2,0.6c-0.3,0-0.6,0-0.9,0c-0.6,0-0.4-0.1-0.5,0.4
						c0,0.1-0.1,0.2-0.2,0.3c0,0.5-0.3,0.6-0.6,0.4c-0.7-0.3-0.4-0.3-0.6,0.1c-0.1,0.1-0.1,0.2,0,0.3c0,0.1,0,0.2,0.1,0.2
						c0.1,0,0.1,0,0.1,0c0.2,0,0-0.1,0.3-0.2c0.1,0,0.1,0,0.1,0.1c-0.1,0.2-0.1,0.2-0.3,0.2c-0.2,0-0.3,0-0.3,0.2
						c0,0.3-0.2,0.2-0.3,0.5c0,0.1-0.1,0.2-0.1,0.3c-0.1,0.3-0.3,0.2-0.6,0.3c-0.2,0.1-0.3,0.2-0.4,0.3c-0.1,0.2-0.1,0.4,0,0.6
						c0,0,0.1,0.1,0.1,0.1c0.1,0.1,0.1,0.1,0.2,0.2c0.3,0.1,0.3-0.1,0.3,0.2c0,0.3-0.1,0.3-0.4,0.5c-0.1,0.1-0.1,0.1-0.2,0.1
						c-0.1,0.1-0.2,0.1-0.3,0.4c0,0.2-0.1,0.4-0.3,0.4c-0.5,0.2-0.5,0.3-0.4,0.7c0.1,0.4-0.1,0.3-0.3,0.4c-0.1,0-0.2,0.1-0.3,0.1
						c-0.1,0.1-0.2,0.3-0.3,0.4c-0.3,0.2,0.1,0-0.6,0.2c-0.3,0.1-0.3-0.1-0.3-0.4c0-0.1-0.1-0.2-0.1-0.3c0,0-0.1-0.1-0.1-0.1
						c-0.1-0.4,0-0.3-0.3-0.6c-0.3-0.2,0-0.4-0.1-0.6c-0.2-0.3-0.1-0.1-0.1-0.5c0-0.1-0.1-0.2-0.1-0.3c-0.1-0.1-0.1-0.2,0.1-0.3
						c0.2-0.1,0.2-0.1,0.3-0.3c0.2-0.6,0.1-0.2-0.2-0.4c-0.1-0.1,0-0.2,0.1-0.4c0.2-0.3,0.3-0.3,0.4-0.3c0,0,0.1,0,0.1,0
						c0.1-0.1,0.1-0.2,0.2-0.5c0-0.4,0.1-0.6,0.2-0.8c0.1-0.2,0.1-0.4,0-0.6c-0.2-0.4-0.6,0-0.5-0.6c0.1-0.5,0.1-0.4,0.3-0.8
						c0.1-0.2,0-0.4,0-0.6c-0.1-0.6-0.1-0.6,0.2-1.1c0.1-0.2,0.2-0.4,0.3-0.6c0.1-0.2,0.1-0.4,0.1-0.6c0.2-0.1,0.2-0.2,0.2-0.5
						c0-0.3,0.1-0.3,0.1-0.7c0-0.3-0.1-0.2-0.1-0.5c0-0.1,0-0.2,0-0.3c0.1-0.3,0.3-0.2,0.2-0.7c-0.1-0.2,0.1-0.5,0.2-0.7
						c0-0.1,0.1-0.1,0.1-0.1c0.1-0.4,0.2-0.7,0.3-1.2c0.1-0.3,0.1-0.6,0-0.8c0-0.2,0-0.4,0-0.5c0.1-0.3,0.2-0.2,0.1-0.6
						c0-0.2-0.1-0.5,0-0.6c0.1-0.4,0-0.8,0-1.3c0-0.4-0.1-0.6-0.5-0.9c-0.1,0-0.1-0.1-0.2-0.1c-0.4-0.3-0.8-0.6-1.2-0.8
						c-0.1,0-0.1-0.1-0.2-0.1c-0.4-0.1-0.5,0-0.9-0.5c-0.1-0.2-0.2-0.3-0.4-0.4c-0.1-0.3,0.2-0.3,0-0.6c-0.1-0.1-0.3-0.3-0.4-0.4
						c-0.4-0.5-0.6-1.1-0.9-1.6c-0.4-0.8-0.7-1.5-1.4-2c-0.2,0-0.3-0.1-0.2-0.4c0-0.2-0.1-0.4-0.1-0.5c-0.2-0.4,0.4-0.6,0.7-0.8
						c0.2-0.1,0.2-0.3,0-0.5c-0.1,0-0.2-0.1-0.3-0.1c-0.4-0.1-0.3-0.7-0.1-1c0.2-0.2,0.3-0.4,0.3-0.6c0.1-0.4,0.1-0.4,0.3-0.5
						c0.4-0.1,0.3-0.1,0.4-0.5c0-0.3,0-0.3,0.3-0.4c0,0,0.1,0,0.1,0c0.6-0.6,0.6-0.9,0.5-1.7c0-0.4-0.1-0.5-0.3-0.9
						c-0.1-0.2-0.2-0.2-0.3-0.3c0,0,0-0.1,0-0.1c0-0.3,0.1-0.3-0.2-0.6c-0.2-0.2-0.5-0.1-0.7,0.1c0,0.1,0,0.2-0.1,0.2
						c-0.3,0.2-0.2,0-0.1,0.5c0,0.1,0,0.1,0,0.2c-0.4,0.2-0.3-0.2-0.5-0.3c-0.2-0.1-0.1,0.1-0.4-0.2c-0.1-0.1-0.2-0.1-0.4-0.1h-0.3
						c-0.1,0-0.1-0.1-0.2-0.3c-0.1-0.2,0-0.3-0.3-0.4c-0.1,0-0.1,0-0.2,0c-0.3-0.2-0.1-0.2-0.4-0.1c-0.2,0-0.4-0.1-0.4-0.4
						c0.1-0.6,0-0.5-0.6-1c-0.2-0.2-0.3-0.4-0.4-0.6c-0.1-0.3-0.2-0.1-0.5-0.1c-0.2,0-0.6-0.1-0.8-0.2c-0.5-0.3-0.6-0.2-0.9-0.3
						c-0.4-0.1-0.7-0.5-0.9-0.8c-0.2-0.4-0.6-0.6-1.1-0.5c-0.4,0.1-0.4,0.4-0.8,0.4c-0.3-0.1-0.4-0.4-1.1-0.4
						c-0.5-0.1-0.7-0.3-1.1-0.5c-0.5-0.2-0.5-0.5-0.9-0.6c-0.8-0.2-0.4-0.1-0.8-0.5c-0.1-0.1-0.2-0.1-0.3-0.2
						c-0.2-0.1-0.6-0.5-0.4-0.7c0.2-0.3,0.3-0.5,0.2-0.7c-0.1-0.2-0.1-0.4-0.1-0.5c0-0.2-0.4-0.6-0.5-0.7c-0.2-0.3-0.5-0.6-0.7-0.9
						c-0.9-0.4,0.1-0.5-0.4-0.9c-0.2,0-0.3-0.1-0.3-0.3c-0.1-0.3,0-0.3-0.3-0.6c-0.1-0.1-0.2-0.1-0.2-0.3c-0.1-0.2-0.1-0.4-0.2-0.6
						c0-0.2,0-0.3,0-0.5c0-0.5,0.1-0.4-0.4-0.6c-0.1,0-0.2-0.1-0.3-0.1c0,0-0.1,0-0.1,0c-0.1,0.1-0.1,0.2-0.1,0.4
						c0,0.4,0,0.5,0.1,0.7c0.1,0.1,0.1,0.3,0.2,0.3c0.2,0.3,0.3,0.3,0.3,0.6c0,0.3,0,0.4,0.1,0.6c0.5,0.6,0.3,0.7,0.5,1.2
						c0,0.3,0,0.4-0.1,0.5c-0.2,0.1-0.4,0-0.5-0.1c-0.2-0.2-0.1-0.3,0.1-0.5c0.2-0.4-0.3-0.7-0.5-0.9c-0.4-0.3-0.6-0.5-0.2-0.8
						c0.3-0.3,0.1-0.5-0.1-0.7c-0.4-0.4-0.4-0.4-0.4-0.6c0-0.3,0-0.4,0-0.5c-2.4,0.7-4.8,1.5-7.1,2.4v41c3,1.2,6.1,2.2,9.1,3
						c4.7,1.2,9.3,2,14,2.3c0.9,0.1,1.8,0.1,2.8,0.1c0.9,0,1.7,0,2.5,0h0.7c0.1,0,0.3-0.1,0.4-0.1c0.6,0.1,0.1-0.4,0.4-0.6
						c0,0,0.1,0,0.1,0c0.3-0.1,0.2,0,0.4,0.2c0.1,0.3,0.3,0.4,0.5,0.5h0.3c1.4-0.1,2.7-0.1,4.1-0.3c7.2-0.7,14.4-2.4,21.5-5.2v-41
						C499.7,23.9,492.5,22.2,485.3,21.5 M473.3,30c-0.1,0-0.1,0.1-0.2,0.1c-0.1,0.1-0.1,0.1-0.2,0.2c-0.3,0.2-0.4-0.1,0-0.3
						c0.1-0.1,0.2-0.1,0.2-0.1C473.5,29.7,473.8,29.9,473.3,30 M477.5,31.6c-0.3,0-0.3,0-0.5,0c-0.4,0.1-0.5,0-0.4-0.3
						c0.1-0.3-0.5-0.1-0.6-0.3c0,0,0-0.1,0-0.1v0c-0.2-0.3-0.1-0.2-0.6-0.2c-0.1,0-0.3,0-0.4-0.1c-0.2-0.2-0.3-0.3-0.6-0.3
						c-0.3,0-0.5-0.5-0.3-0.6c0.5-0.1,0.3,0.2,0.7,0.2c0.3,0,0.4,0.1,0.6,0.2c0.1,0.1,0.2,0.1,0.5,0.1c0.1,0,0.1,0,0.1,0
						c0.1,0,0.2,0.1,0.4,0.2c0.1,0.1,0.2,0.1,0.2,0.2c0.2,0.2,0.3,0.3,0.5,0.3c0.3,0.1,0.3,0,0.5,0.2
						C477.9,31.4,478.1,31.5,477.5,31.6 M478.7,32.6c-0.1,0-0.2,0-0.3,0c-0.1,0-0.3,0-0.3-0.1c0-0.2,0.1-0.1,0.2-0.1h0
						c0.1,0,0.1,0,0.2,0.1C478.6,32.5,478.7,32.5,478.7,32.6C479,32.5,478.9,32.6,478.7,32.6 M480.5,32.3c-0.4,0-0.4-0.1-0.5,0.1
						c0,0.1-0.1,0.1-0.1,0.2c0,0.1-0.1,0.1-0.2,0c-0.3-0.1-0.4-0.2-0.4-0.3c0-0.1,0-0.1-0.1-0.2c-0.4-0.9-0.1-0.2,0.7-0.4
						c0,0,0.1,0,0.1,0c0.3-0.1,0.3-0.1,0.6,0.2c0.1,0.1,0.1,0.1,0.2,0.2C481.4,32.3,480.7,32.5,480.5,32.3 M481.2,32.4
						c-0.1,0-0.1-0.1-0.1-0.1c0-0.1,0.1-0.1,0.1-0.1c0.1,0,0.1,0.1,0.1,0.1C481.3,32.3,481.3,32.4,481.2,32.4 M478.4,67L478.4,67
						c0.1-0.1,0.1-0.1,0.1-0.2c0-0.1,0.1-0.1,0.1,0.1c0,0.2,0,0.5-0.1,0.6c-0.2,0-0.1,0-0.1-0.2C478.3,67,478.3,67,478.4,67
						 M459.3,29.1c-0.1,0.1-0.1,0.1-0.2,0c0,0,0,0,0-0.1c-0.1-0.3-0.3-0.1-0.2-0.4c0.1-0.2,0.2-0.3,0.3-0.2c0.1,0.1,0.1,0.1,0.2,0.2
						C459.4,28.9,459.5,29.1,459.3,29.1 M485.9,69.5c-0.1,0.3-0.2,0.2-0.6,0.1h-0.1c-0.2,0-0.2,0.2-0.5,0.1
						c-0.2-0.1-0.3-0.3-0.2-0.4c0.1-0.1,0.1-0.2,0.2-0.2c0.2,0.1,0.3,0,0.5,0c0.1,0,0.2-0.1,0.2-0.1C486,69,486.1,69.3,485.9,69.5"
						/>
					<polygon class="st2" points="456.7,84.1 456.7,86 452.5,86 452.5,88.5 456.4,88.5 456.4,90.4 452.5,90.4 452.5,94.5 450,94.5 
						450,84.1 					"/>
					<polygon class="st2" points="458.9,84.1 461.4,84.1 461.4,92.5 465,92.5 465,94.5 458.9,94.5 					"/>
					<path class="st2" d="M470,84.1h2.7l3.7,10.3h-2.6l-0.7-2.2h-3.5l-0.7,2.2h-2.6L470,84.1z M470.1,90.4h2.4l-0.4-1.2
						c-0.1-0.4-0.3-0.8-0.4-1.3c-0.1-0.5-0.3-0.9-0.4-1.3h0c-0.1,0.4-0.2,0.8-0.4,1.2c-0.1,0.4-0.3,0.9-0.4,1.3L470.1,90.4z"/>
					<path class="st2" d="M482.6,92.7c0.5,0,0.9,0,1.2-0.1c0.3-0.1,0.6-0.2,0.9-0.3l0.5,1.8c-0.2,0.1-0.6,0.3-1.1,0.4
						c-0.5,0.1-1.1,0.2-1.8,0.2c-0.8,0-1.6-0.1-2.2-0.4c-0.7-0.3-1.3-0.6-1.7-1.1c-0.5-0.5-0.9-1-1.1-1.7c-0.3-0.7-0.4-1.4-0.4-2.2
						c0-0.8,0.1-1.5,0.4-2.2c0.3-0.7,0.6-1.2,1.1-1.7c0.5-0.5,1.1-0.8,1.7-1.1c0.7-0.3,1.5-0.4,2.3-0.4c0.7,0,1.3,0.1,1.8,0.2
						c0.5,0.1,0.8,0.3,1.1,0.4l-0.6,1.8c-0.2-0.1-0.5-0.3-0.9-0.4c-0.3-0.1-0.7-0.2-1.1-0.2c-0.4,0-0.8,0.1-1.2,0.2
						c-0.4,0.1-0.7,0.3-1,0.6c-0.3,0.3-0.5,0.6-0.7,1.1c-0.2,0.4-0.2,1-0.2,1.6c0,0.6,0.1,1.1,0.2,1.5c0.2,0.4,0.4,0.8,0.7,1.1
						c0.3,0.3,0.6,0.5,1,0.6C481.7,92.7,482.1,92.7,482.6,92.7"/>
					<path class="st2" d="M490.9,83.9c0.7,0,1.3,0.1,1.9,0.2c0.5,0.1,1,0.3,1.4,0.5l-0.6,1.8c-0.4-0.2-0.9-0.4-1.3-0.5
						c-0.4-0.1-0.8-0.2-1.2-0.2c-0.5,0-0.9,0.1-1.1,0.3c-0.3,0.2-0.4,0.4-0.4,0.7c0,0.3,0.1,0.6,0.4,0.8c0.3,0.2,0.6,0.3,1.2,0.5
						l1,0.3c0.4,0.1,0.7,0.3,1.1,0.5c0.3,0.2,0.6,0.4,0.8,0.7c0.2,0.3,0.4,0.5,0.5,0.9c0.1,0.3,0.2,0.7,0.2,1c0,0.4-0.1,0.9-0.2,1.2
						c-0.2,0.4-0.4,0.7-0.7,1c-0.3,0.3-0.8,0.5-1.3,0.7c-0.5,0.2-1.1,0.3-1.8,0.3c-0.6,0-1.3-0.1-1.8-0.2c-0.6-0.1-1.1-0.3-1.6-0.6
						l0.6-1.8c0.5,0.2,0.9,0.4,1.4,0.5c0.5,0.1,0.9,0.2,1.4,0.2c0.6,0,1-0.1,1.3-0.3c0.3-0.2,0.4-0.5,0.4-0.8c0-0.1,0-0.2-0.1-0.3
						c0-0.1-0.1-0.2-0.3-0.3c-0.1-0.1-0.3-0.2-0.5-0.3c-0.2-0.1-0.5-0.2-0.9-0.3l-0.8-0.3c-0.4-0.1-0.7-0.3-1.1-0.5
						c-0.3-0.2-0.6-0.4-0.8-0.6c-0.2-0.2-0.4-0.5-0.5-0.8c-0.1-0.3-0.2-0.7-0.2-1.1c0-0.5,0.1-0.9,0.3-1.3c0.2-0.4,0.4-0.7,0.8-1
						c0.3-0.3,0.7-0.5,1.2-0.7C489.7,84,490.2,83.9,490.9,83.9"/>
					<path class="st2" d="M501.8,83.9c0.7,0,1.4,0.1,2.1,0.4c0.6,0.2,1.2,0.6,1.6,1.1c0.5,0.5,0.8,1,1.1,1.7
						c0.3,0.7,0.4,1.4,0.4,2.3c0,0.8-0.1,1.6-0.4,2.2c-0.3,0.7-0.6,1.2-1.1,1.7c-0.5,0.5-1,0.8-1.7,1.1c-0.6,0.2-1.3,0.4-2.1,0.4
						c-0.7,0-1.4-0.1-2.1-0.4c-0.6-0.2-1.2-0.6-1.6-1c-0.5-0.5-0.8-1-1.1-1.7c-0.3-0.7-0.4-1.4-0.4-2.3c0-0.8,0.1-1.6,0.4-2.2
						c0.3-0.7,0.6-1.2,1.1-1.7c0.5-0.5,1-0.8,1.7-1.1C500.3,84,501,83.9,501.8,83.9 M499.2,89.3c0,0.6,0.1,1.1,0.2,1.5
						c0.1,0.4,0.3,0.8,0.6,1.1c0.2,0.3,0.5,0.5,0.8,0.6c0.3,0.1,0.6,0.2,1,0.2c0.4,0,0.7-0.1,1-0.2c0.3-0.1,0.6-0.4,0.8-0.6
						c0.2-0.3,0.4-0.6,0.5-1.1c0.1-0.4,0.2-0.9,0.2-1.5c0-0.6-0.1-1.1-0.2-1.6c-0.1-0.4-0.3-0.8-0.6-1.1c-0.2-0.3-0.5-0.5-0.8-0.6
						c-0.3-0.1-0.6-0.2-1-0.2c-0.3,0-0.7,0.1-1,0.2c-0.3,0.1-0.6,0.4-0.8,0.7c-0.2,0.3-0.4,0.7-0.5,1.1
						C499.2,88.2,499.2,88.7,499.2,89.3"/>
					<path class="st2" d="M452.1,100.3h0.6l2.2,5.6h-0.7l-0.6-1.6h-2.4l-0.6,1.6h-0.7L452.1,100.3z M451.4,103.8h2l-0.4-1.2
						c-0.1-0.2-0.2-0.4-0.3-0.7c-0.1-0.3-0.2-0.6-0.3-0.9h0c0,0.2-0.1,0.3-0.1,0.4c0,0.1-0.1,0.3-0.1,0.4c0,0.1-0.1,0.2-0.1,0.4
						c0,0.1-0.1,0.2-0.1,0.4L451.4,103.8z"/>
					<path class="st2" d="M457.5,100.3h1.7c0.3,0,0.5,0,0.8,0.1c0.2,0.1,0.4,0.2,0.6,0.3c0.1,0.1,0.3,0.3,0.3,0.5
						c0.1,0.2,0.1,0.4,0.1,0.7c0,0.2,0,0.4-0.1,0.6c-0.1,0.2-0.2,0.3-0.3,0.5c-0.1,0.1-0.2,0.2-0.4,0.3c-0.1,0.1-0.3,0.2-0.4,0.2
						l1.5,2.4h-0.7l-1.4-2.3h-1.1v2.3h-0.6V100.3z M458.1,103.1h0.9c0.2,0,0.4,0,0.5-0.1c0.2,0,0.3-0.1,0.4-0.2
						c0.1-0.1,0.2-0.2,0.3-0.4c0.1-0.1,0.1-0.3,0.1-0.5c0-0.4-0.1-0.7-0.3-0.9c-0.2-0.2-0.6-0.3-1-0.3h-0.9V103.1z"/>
					<path class="st2" d="M466.4,100.3c0.3,0,0.6,0,0.9,0.1c0.3,0,0.5,0.1,0.7,0.2l-0.2,0.5c-0.2-0.1-0.4-0.2-0.6-0.2
						c-0.2,0-0.4-0.1-0.7-0.1c-0.3,0-0.6,0-0.8,0.1c-0.3,0.1-0.5,0.2-0.7,0.4c-0.2,0.2-0.4,0.4-0.5,0.7c-0.1,0.3-0.2,0.7-0.2,1.1
						c0,0.4,0.1,0.7,0.2,1c0.1,0.3,0.2,0.5,0.4,0.7c0.2,0.2,0.4,0.3,0.7,0.4c0.3,0.1,0.5,0.2,0.9,0.2c0.2,0,0.4,0,0.6,0
						c0.2,0,0.3-0.1,0.4-0.1v-1.8h-1.1v-0.5h1.7v2.7c-0.2,0.1-0.5,0.2-0.7,0.2c-0.3,0.1-0.6,0.1-0.9,0.1c-0.4,0-0.7-0.1-1.1-0.2
						c-0.3-0.1-0.6-0.3-0.9-0.5c-0.3-0.2-0.5-0.5-0.6-0.9c-0.1-0.4-0.2-0.8-0.2-1.2c0-0.5,0.1-0.9,0.2-1.2c0.1-0.4,0.3-0.7,0.6-0.9
						c0.2-0.2,0.5-0.4,0.9-0.5C465.7,100.3,466,100.3,466.4,100.3"/>
					<polygon class="st2" points="471.1,100.3 474.4,100.3 474.4,100.8 471.8,100.8 471.8,102.7 474.2,102.7 474.2,103.3 
						471.8,103.3 471.8,105.4 474.5,105.4 474.5,105.9 471.1,105.9 					"/>
					<path class="st2" d="M477.3,100.3h0.6l2.5,3.6c0.1,0.2,0.2,0.3,0.3,0.5c0.1,0.2,0.2,0.3,0.3,0.5h0c0-0.2,0-0.4,0-0.7
						c0-0.2,0-0.4,0-0.7v-3.3h0.6v5.6h-0.6l-2.5-3.5c-0.1-0.2-0.2-0.4-0.4-0.6c-0.1-0.2-0.2-0.4-0.3-0.6h0c0,0.3,0,0.5,0,0.8
						c0,0.3,0,0.5,0,0.8v3.1h-0.6V100.3z"/>
					<polygon class="st2" points="488.5,100.3 488.5,100.8 486.7,100.8 486.7,105.9 486.1,105.9 486.1,100.8 484.2,100.8 
						484.2,100.3 					"/>
					<rect x="491.1" y="100.3" class="st2" width="0.6" height="5.6"/>
					<path class="st2" d="M495,100.3h0.6l2.5,3.6c0.1,0.2,0.2,0.3,0.3,0.5c0.1,0.2,0.2,0.3,0.3,0.5h0c0-0.2,0-0.4,0-0.7
						c0-0.2,0-0.4,0-0.7v-3.3h0.6v5.6h-0.6l-2.5-3.5c-0.1-0.2-0.2-0.4-0.4-0.6c-0.1-0.2-0.2-0.4-0.3-0.6h0c0,0.3,0,0.5,0,0.8
						c0,0.3,0,0.5,0,0.8v3.1H495V100.3z"/>
					<path class="st2" d="M504.1,100.3h0.6l2.2,5.6h-0.7l-0.6-1.6h-2.4l-0.6,1.6h-0.7L504.1,100.3z M503.4,103.8h2l-0.4-1.2
						c-0.1-0.2-0.2-0.4-0.3-0.7c-0.1-0.3-0.2-0.6-0.3-0.9h0c0,0.2-0.1,0.3-0.1,0.4c0,0.1-0.1,0.3-0.1,0.4c0,0.1-0.1,0.2-0.1,0.4
						c0,0.1-0.1,0.2-0.1,0.4L503.4,103.8z"/>
				</g>
			</g>
			<g>
				<text transform="matrix(1 0 0 1 581.77 40.3279)"><tspan x="0" y="0" class="st2 st3 st8">F</tspan><tspan x="5.2" y="0" class="st2 st3 st8">acultad </tspan></text>
				<text transform="matrix(1 0 0 1 581.77 53.5739)" class="st2 st3 st8">Latinoamericana de</text>
				<text transform="matrix(1 0 0 1 581.77 66.82)" class="st2 st3 st8">Ciencias Sociales.</text>
				<text transform="matrix(1 0 0 1 581.77 80.0661)"><tspan x="0" y="0" class="st2 st3 st8">Sede A</tspan><tspan x="30.5" y="0" class="st2 st3 st8">r</tspan><tspan x="33.8" y="0" class="st2 st3 st8">gentina.</tspan></text>
				<text transform="matrix(1 0 0 1 581.77 99.7717)"><tspan x="0" y="0" class="st2 st5 st8">Á</tspan><tspan x="6.6" y="0" class="st2 st5 st8">r</tspan><tspan x="10.2" y="0" class="st2 st5 st8">ea Géne</tspan><tspan x="45.8" y="0" class="st2 st5 st8">r</tspan><tspan x="49.3" y="0" class="st2 st5 st8">o,</tspan></text>
				<text transform="matrix(1 0 0 1 581.7861 111.5901)" class="st2 st5 st8">Sociedad y</text>
				<text transform="matrix(1 0 0 1 581.7861 123.4104)"><tspan x="0" y="0" class="st2 st5 st8">P</tspan><tspan x="6.2" y="0" class="st2 st5 st8">olíticas.</tspan></text>
				<rect x="544.8" class="st9" width="127.1" height="127.1"/>
				<text transform="matrix(1 0 0 1 565.204 35.2136)"><tspan x="0" y="0" class="st2 st3 st8">F</tspan><tspan x="5.2" y="0" class="st2 st3 st8">acultad </tspan></text>
				<text transform="matrix(1 0 0 1 565.204 46.488)" class="st2 st3 st8">Latinoamericana de</text>
				<text transform="matrix(1 0 0 1 565.204 57.7654)" class="st2 st3 st8">Ciencias Sociales.</text>
				<text transform="matrix(1 0 0 1 565.204 69.0446)"><tspan x="0" y="0" class="st2 st3 st8">Sede A</tspan><tspan x="30.5" y="0" class="st2 st3 st8">r</tspan><tspan x="33.8" y="0" class="st2 st3 st8">gentina.</tspan></text>
				<text transform="matrix(1 0 0 1 565.204 88.7458)"><tspan x="0" y="0" class="st2 st5 st8">Á</tspan><tspan x="6.6" y="0" class="st2 st5 st8">r</tspan><tspan x="10.2" y="0" class="st2 st5 st8">ea Estado y</tspan></text>
				<text transform="matrix(1 0 0 1 565.204 100.5627)"><tspan x="0" y="0" class="st2 st5 st8">P</tspan><tspan x="6.2" y="0" class="st2 st5 st8">olíticas Públicas.</tspan></text>
			</g>
		</g>
	</g>
	<g>
		<g>
			<path class="st10" d="M1149.8,20.2c-4.1-1.6-7.2-4.1-7.2-9.3c0-6.8,5.3-10.8,11.8-10.8c6.7,0,11.2,4.3,11.3,11.3l-5.2,1.2
				c-0.5-4.8-2.8-7-6.2-7c-3,0-5.8,1.6-5.8,4.8s2.9,4.4,5.2,5.3l5.4,2.1c4.7,1.9,8,4.4,8,9.8c0,7-5.5,10.9-12.5,10.9
				c-7.5,0-13-4.6-13-12.2l5.2-1.1c0.6,4.9,3,7.8,7.7,7.8c3.2,0,6.6-1.4,6.6-5.1c0-3.5-2.9-4.5-6.1-5.7L1149.8,20.2z"/>
			<path class="st10" d="M1186.2,38.2l-0.1-2c-2.1,1.3-4.3,2.3-6.5,2.3c-4.5,0-9.6-2.9-9.6-11.2v-16h5.6v15.6c0,5.3,2.6,6.4,4.6,6.4
				c2.3,0,5-1.3,5.7-5.6V11.3h5.6v26.9H1186.2z"/>
			<path class="st10" d="M1200.5,26.6c0.6,5.6,3.7,6.6,6.2,6.6c2.5,0,4.7-1.1,6.3-3.3l4.9,1.3c-1.4,4.5-5.6,7.4-11,7.4
				c-6.2,0-12.2-3.7-12.2-13.7c0-10.2,6.1-13.9,12-13.9c5.9,0,12,3.7,12,13.8v1.8H1200.5z M1212.7,22c-0.8-4.8-3.6-5.8-5.8-5.8
				c-2.6,0-5.3,1.4-6.3,5.8H1212.7z"/>
			<path class="st10" d="M1243.2,31.1c-1.3,4.7-4.9,7.4-10,7.4c-6.1,0-12-3.7-12-13.8c0-10.1,6-13.8,12.1-13.8c4.9,0,8.7,2.4,10,7.2
				c-1.8,0.4-3.2,0.9-4.9,1.3c-1.3-2.1-3.1-3.2-5.4-3.2c-2.7,0-6.2,1.5-6.2,8.5c0,7,3.4,8.4,6.1,8.4c2.3,0,4.1-1.1,5.4-3.3
				L1243.2,31.1z"/>
			<path class="st10" d="M1245.2,38.2V33h5.4V16.4h-5.4v-5.2h10.9V33h5.4v5.2H1245.2z M1253.3,7.9c-2.1,0-3.7-1.7-3.7-3.7
				c0-2,1.6-3.7,3.7-3.7c2.1,0,3.8,1.7,3.8,3.7C1257.1,6.2,1255.4,7.9,1253.3,7.9z"/>
			<path class="st10" d="M1279.5,38.2l-0.1-2c-2.2,1.5-4.5,2.3-7,2.3c-5.1,0-9.3-2.5-9.3-8c0-5.3,3.9-8,9.6-8.4l6.5-0.4v-0.8
				c0-3.1-1.7-4.7-4.8-4.7c-2.2,0-4.1,0.8-5.5,2.4l-4.6-1.3c1.2-3.8,5.3-6.4,10.4-6.4c6.3,0,10.1,4.1,10.1,9.5v17.8H1279.5z
				 M1279.2,26.3l-6.4,0.4c-2.8,0.2-4,1.4-4,3.6c0,1.4,0.5,2.9,4.1,2.9c2,0,4.2-0.4,6.3-2.6V26.3z"/>
		</g>
		<g>
			<path class="st10" d="M1153.6,97.1c-6.7-2.7-11.8-6.7-11.8-15.2c0-11.1,8.6-17.7,19.4-17.7c10.9,0,18.2,6.9,18.4,18.4l-8.5,2
				c-0.9-7.9-4.5-11.5-10.1-11.5c-4.9,0-9.5,2.7-9.5,7.9c0,5.2,4.7,7.1,8.4,8.6l8.8,3.5c7.7,3,13,7.2,13,16.1
				c0,11.5-9,17.9-20.4,17.9c-12.2,0-21.2-7.5-21.3-20l8.5-1.7c1,8,5,12.8,12.6,12.8c5.3,0,10.8-2.3,10.8-8.3c0-5.6-4.8-7.3-9.9-9.3
				L1153.6,97.1z"/>
			<path class="st10" d="M1232.6,107.5c1,9.1,6.1,10.9,10.2,10.9c4.1,0,7.7-1.7,10.2-5.5l8,2.1c-2.3,7.4-9.1,12.1-18.1,12.1
				c-10.2,0-19.9-6-19.9-22.4c0-16.7,10-22.7,19.6-22.7c9.6,0,19.5,6,19.5,22.6v3H1232.6z M1252.5,100.1c-1.3-7.9-5.9-9.5-9.6-9.5
				c-4.2,0-8.7,2.3-10.2,9.5H1252.5z"/>
			<path class="st10" d="M1295.1,126.5v-8.4h8.9V90.9h-8.9v-8.4h17.9v35.6h8.9v8.4H1295.1z M1308.4,76.9c-3.4,0-6.1-2.9-6.1-6.4
				c0-3.7,2.7-6.5,6.1-6.5c3.5,0,6.3,2.9,6.3,6.5C1314.6,74,1311.9,76.9,1308.4,76.9z"/>
			<path class="st10" d="M1353,122.7c-4.1,3.6-7.5,4.3-10.7,4.3c-8.8,0-19-6-19-22.6c0-16.5,10.2-22.5,18.9-22.5
				c3.9,0,7.1,1.2,11,4.6l0.3-4.1h8.7v44c0,10.5-7.5,18.3-19.2,18.3c-9,0-15.7-4.5-17.9-12.1l8-2.1c2.5,3.7,6.2,5.5,10.2,5.5
				c6.2,0,9.6-3.8,9.6-9.6V122.7z M1353,101.5c-1.1-7.6-5.6-10.8-10.5-10.8c-4.3,0-9.8,2.4-9.8,13.9c0,11.4,5.5,13.8,10,13.8
				c4.2,0,9.2-2.1,10.3-9.1V101.5z"/>
			<path class="st10" d="M1377.4,107.5c1,9.1,6.1,10.9,10.2,10.9c4.1,0,7.7-1.7,10.2-5.5l8,2.1c-2.3,7.4-9.1,12.1-18.1,12.1
				c-10.2,0-19.9-6-19.9-22.4c0-16.7,10-22.7,19.6-22.7c9.6,0,19.5,6,19.5,22.6v3H1377.4z M1397.2,100.1c-1.3-7.9-5.9-9.5-9.5-9.5
				c-4.2,0-8.7,2.3-10.2,9.5H1397.2z"/>
			<path class="st10" d="M1291.3,82.6c-1.6-0.4-3.3-0.6-4.2-0.6c-3.5,0-7.2,2.3-10.5,5.5l-0.3-5h-8.6v44h9.2v-25.4
				c1.2-7,5.5-9.4,9.4-9.4c1.3,0,2.9,0.3,5.1,0.7V82.6z"/>
			<path class="st10" d="M1198.3,126.5l-15.6-44h9.5l10.6,31.4l10.6-31.4h9.5l-15.6,44H1198.3z"/>
		</g>
		<g>
			<polygon class="st11" points="1003.1,0.4 977.9,0.4 977.9,50.8 914.8,50.8 914.8,76 977.9,76 977.9,126.5 1003.1,126.5 
				1003.1,76 1116.6,76 1116.6,50.8 1003.1,50.8 			"/>
			<rect x="914.8" y="0.4" class="st10" width="63.1" height="50.5"/>
			<rect x="1003.1" y="0.4" class="st10" width="113.5" height="50.5"/>
			<rect x="914.8" y="76" class="st10" width="63.1" height="50.5"/>
			<rect x="1003.1" y="76" class="st10" width="113.5" height="50.5"/>
		</g>
	</g>
</g>
</svg>
