<?xml version="1.0" encoding="utf-8"?>
<!-- Generator: Adobe Illustrator 26.3.1, SVG Export Plug-In . SVG Version: 6.00 Build 0)  -->
<!DOCTYPE svg PUBLIC "-//W3C//DTD SVG 1.1//EN" "http://www.w3.org/Graphics/SVG/1.1/DTD/svg11.dtd" [
	<!ENTITY ns_extend "http://ns.adobe.com/Extensibility/1.0/">
	<!ENTITY ns_ai "http://ns.adobe.com/AdobeIllustrator/10.0/">
	<!ENTITY ns_graphs "http://ns.adobe.com/Graphs/1.0/">
	<!ENTITY ns_vars "http://ns.adobe.com/Variables/1.0/">
	<!ENTITY ns_imrep "http://ns.adobe.com/ImageReplacement/1.0/">
	<!ENTITY ns_sfw "http://ns.adobe.com/SaveForWeb/1.0/">
	<!ENTITY ns_custom "http://ns.adobe.com/GenericCustomNamespace/1.0/">
	<!ENTITY ns_adobe_xpath "http://ns.adobe.com/XPath/1.0/">
]>
<svg version="1.1" id="Capa_1" xmlns:x="&ns_extend;" xmlns:i="&ns_ai;" xmlns:graph="&ns_graphs;"
	 xmlns="http://www.w3.org/2000/svg" xmlns:xlink="http://www.w3.org/1999/xlink" x="0px" y="0px" viewBox="0 0 1877.8 193.3"
	 style="enable-background:new 0 0 1877.8 193.3;" xml:space="preserve">
<style type="text/css">
	.st0{fill:#0033A0;}
	.st1{fill:#DA522A;}
	.st2{fill:#FFFFFF;}
	.st3{font-family:'RobotoCondensed-Regular';}
	.st4{font-size:14.6138px;}
	.st5{font-family:'RobotoCondensed-Bold';}
	.st6{font-size:14.7824px;}
	.st7{fill:#142F4E;}
	.st8{font-size:14.7822px;}
	.st9{fill:#395C7E;}
	.st10{fill:#005693;}
	.st11{fill:#FFD600;}
</style>
<metadata>
	<sfw  xmlns="&ns_sfw;">
		<slices></slices>
		<sliceSourceBounds  bottomLeftOrigin="true" height="193.3" width="1877.8" x="51" y="-591.8"></sliceSourceBounds>
	</sfw>
</metadata>
<g>
	<g>
		<g>
			<path class="st0" d="M164.4,59.8c0-16.4,11.1-37.5,38.7-37.5c25.6,0,38.1,20.7,38.1,37c0,8.5-3.6,19.2-9.8,26
				c-6.8,7.4-18.1,11.7-28.7,11.7C182,97,164.4,82.2,164.4,59.8L164.4,59.8z M255.6,59.4c0-26.4-20.4-50.5-53.2-50.5
				c-33.7,0-52.7,24.7-52.7,50.8c0,27.4,21.1,50.3,52,50.3C234,110,255.6,87.7,255.6,59.4L255.6,59.4z"/>
			<polygon class="st0" points="286.2,10.3 272.1,10.3 272.1,108.8 286.2,108.8 286.2,10.3 			"/>
			<polygon class="st0" points="357.7,70.2 388.1,32.1 388.1,108.8 402.2,108.8 402.2,10.3 389.1,10.3 356.5,50.7 323.7,10.3 
				310.3,10.3 310.3,108.8 324.5,108.8 324.5,32.1 355.1,70.2 357.7,70.2 			"/>
			<path class="st0" d="M27.4,152.5c-2.3,2.4-6,3.9-9.6,3.9c-6.9,0-12.7-5-12.7-12.4c0-5.5,3.7-12.5,12.9-12.5
				c8.6,0,12.7,6.9,12.7,12.4C30.7,146.6,29.4,150.2,27.4,152.5L27.4,152.5z M17.8,127c-11.3,0-17.6,8.2-17.6,17
				c0,9.1,7,16.7,17.3,16.7c10.7,0,18-7.4,18-16.9C35.5,135.1,28.7,127,17.8,127L17.8,127z"/>
			<polygon class="st0" points="67.8,152.9 45.6,127.5 41.8,127.5 41.8,160.3 46.2,160.3 46.2,135.1 68.2,160.3 72.2,160.3 
				72.2,127.5 67.8,127.5 67.8,152.9 			"/>
			<path class="st0" d="M104.2,146.1c0,3.2-0.3,5-0.9,6.1c-0.9,1.6-3.2,4.3-8.5,4.3c-3.8,0-6-1.3-7.4-2.7c-1.6-1.7-2.1-3.4-2.1-7.8
				v-18.6h-4.7v18.6c0,2.3,0,6,1.8,8.9c2.6,4.2,7.8,5.7,12.4,5.7c3.8,0,7.4-0.9,10.4-3.5c3.7-3.3,3.7-7.9,3.7-11.1v-18.6h-4.7V146.1
				L104.2,146.1z"/>
			<polygon class="st0" points="146.1,140.9 135.2,127.5 130.8,127.5 130.8,160.3 135.5,160.3 135.5,134.7 145.7,147.4 146.6,147.4 
				156.7,134.7 156.7,160.3 161.4,160.3 161.4,127.5 157.1,127.5 146.1,140.9 			"/>
			<polygon class="st0" points="170.8,160.3 175.5,160.3 175.5,127.5 170.8,127.5 170.8,160.3 			"/>
			<path class="st0" d="M200.8,148.3h6.3v6.8c-3.1,1.1-4.7,1.4-7.1,1.4c-7.9,0-13.2-5.4-13.2-12.6c0-7.8,6.2-12.7,12.7-12.7
				c1.8,0,6.2,0.4,11.6,3.4v-4.8c-3.5-1.5-7-2.8-11.6-2.8c-11.3,0-17.8,8.5-17.8,17.1c0,7.5,5.2,16.5,18,16.5
				c5.5,0,9.6-1.5,12.1-2.7v-13.8h-11.1V148.3"/>
			<path class="st0" d="M231.8,141.3c-1.4,0.5-3.9,0.5-4.6,0.5h-1.8v-10.4h1.4c2.8,0,4.3,0.2,5.6,0.8c1.5,0.7,2.5,2.4,2.5,4.3
				C235,138.4,234,140.5,231.8,141.3L231.8,141.3z M234.2,144.7c3.6-1.4,5.5-4.3,5.5-8.1c0-3.3-1.6-6.6-5.1-8
				c-2.1-1-4.2-1.1-5.7-1.1h-8.2v32.9h4.7V146h1.3c2.3,0,3.8,0,7,4.2c1.1,1.4,5.7,8.6,6.8,10.2h5.6c-2.3-3.3-3.1-4.3-4.5-6.6
				C239,149.7,237.2,146.7,234.2,144.7L234.2,144.7z"/>
			<path class="st0" d="M258.2,146.3l4.9-11.8l5.3,11.8H258.2z M261.5,127.3l-14.1,33h4.8l4.2-9.7h13.9l4.4,9.7h4.8l-14.6-33H261.5"
				/>
			<path class="st0" d="M286.2,144c0-6.6,5.1-12.5,13-12.5c4.1,0,7.9,1.3,11.4,3.2v-5.1c-2.1-0.9-6.4-2.7-11.5-2.7
				c-10.4,0-17.8,7.9-17.8,16.9c0,7.7,5.5,16.8,17.7,16.8c4.2,0,8.1-0.8,11.9-2.9v-5.1c-3.4,2.3-7.5,3.7-11.6,3.7
				C290.6,156.4,286.2,150,286.2,144"/>
			<polygon class="st0" points="319.1,160.3 323.8,160.3 323.8,127.5 319.1,127.5 319.1,160.3 			"/>
			<path class="st0" d="M358.4,152.5c-2.3,2.4-6,3.9-9.6,3.9c-7,0-12.8-5-12.8-12.4c0-5.5,3.7-12.5,12.9-12.5
				c8.6,0,12.7,6.9,12.7,12.4C361.6,146.6,360.4,150.2,358.4,152.5L358.4,152.5z M348.7,127c-11.2,0-17.6,8.2-17.6,17
				c0,9.1,7,16.7,17.3,16.7c10.7,0,18-7.4,18-16.9C366.4,135.1,359.6,127,348.7,127"/>
			<polygon class="st0" points="345.3,125.2 347.8,125.2 355.7,118 348.8,118 345.3,125.2 			"/>
			<polygon class="st0" points="397.8,127.5 397.8,152.9 375.6,127.5 371.8,127.5 371.8,160.3 376.2,160.3 376.2,135.1 398.2,160.3 
				402.2,160.3 402.2,127.5 397.8,127.5 			"/>
			<path class="st0" d="M51.6,50.2c1.2,0,2-0.9,2-2c0-1.1-0.8-2-2-2c-1.1,0-2,0.9-2,2C49.6,49.3,50.6,50.2,51.6,50.2L51.6,50.2z"/>
			<path class="st0" d="M74.7,51.6c-0.2-0.4-0.5-0.5-0.8-0.5h-0.1h-1.4h-1h-1.2h-1h-1.4l0,0c-0.4,0-0.6,0.2-0.8,0.5l-3.8,9h-3.8
				l-3.9-9c-0.1-0.4-0.5-0.5-0.8-0.5h-3.1h-3.1c-0.4,0-0.6,0.2-0.8,0.5l-4,9.5c-0.2,0.5-0.1,0.9,0.3,1.2c0.2,0.1,0.3,0.1,0.5,0.1
				c0.4,0,0.6-0.2,0.8-0.5l3.6-8.4l0.2,8.2L47.8,72c-0.1,0.4,0.2,0.8,0.5,0.9c0.1,0.1,0.2,0.1,0.3,0.1c0.5,0,0.8-0.4,0.9-0.7
				l1.3-9.9h1.7l1.3,9.9c0.1,0.4,0.5,0.7,0.9,0.7c0.1,0,0.2,0,0.3-0.1c0.4-0.1,0.6-0.5,0.5-0.9l-1.4-10.4l0.3-8.2l3.6,8.4l0,0
				c0,0.1,0,0.1,0,0.2h0.1v0.1c0.1,0,0.1,0,0.1,0c0,0.1,0,0.1,0.1,0.1l0,0c0.1,0.1,0.1,0.1,0.2,0.1l0,0c0,0.1,0.1,0.1,0.1,0.1h0.1
				h0.1l0,0h0.7l-1.1,5.9c-0.1,0.4,0,0.8,0.3,1.2c0.2,0.2,0.4,0.4,0.6,0.5v2.4c0,0.4,0.3,0.7,0.7,0.7c0.4,0,0.7-0.4,0.7-0.7V70l0,0
				c0,0,0,0,0.1,0h0.5h0.5l0,0c0,0,0,0,0.1,0l0,0v2.3c0,0.4,0.3,0.7,0.7,0.7c0.4,0,0.7-0.4,0.7-0.7v-2.4c0.2-0.1,0.4-0.3,0.6-0.5
				c0.3-0.4,0.4-0.8,0.3-1.2L63,62.4h0.7l0,0c0.1,0,0.1,0,0.2,0l0,0c0.1,0,0.1,0,0.1-0.1c0.1,0,0.1,0,0.1,0s0.1,0,0.1-0.1h0.1
				c0,0,0,0,0.1-0.1l0,0l0.1-0.1l0,0c0-0.1,0.1-0.1,0.1-0.2l0,0l3.7-8.7l0.7,3.5c0.1,0.5,0.1,1.2-0.1,1.8L65.5,73h4.7h1.2H76
				l-3.3-14.6c-0.2-0.5-0.2-1.2-0.1-1.7l0.8-3.6l2.8,7c0.2,0.4,0.5,0.5,0.8,0.5c0.1,0,0.3,0,0.4-0.1c0.5-0.2,0.6-0.6,0.5-1.1
				L74.7,51.6"/>
			<path class="st0" d="M70.8,50.2c1.1,0,2-0.9,2-2c0-1.1-0.9-2-2-2s-2,0.9-2,2C68.8,49.3,69.7,50.2,70.8,50.2L70.8,50.2z"/>
			<path class="st0" d="M61.3,60.2c0.8,0,1.4-0.6,1.4-1.5c0-0.8-0.6-1.4-1.4-1.4c-0.8,0-1.5,0.6-1.5,1.4
				C59.8,59.6,60.5,60.2,61.3,60.2L61.3,60.2z"/>
			<path class="st0" d="M110.6,76.3h-8.9c2.3-4.3,3.7-9.3,3.7-14.4c0-0.3,0-0.9,0-1.4h9.2C114.1,66.2,112.7,71.5,110.6,76.3
				L110.6,76.3z M93.8,95.8c-1.9-1.9-4.1-3.5-6.4-4.9c4.7-2.5,9.1-6.6,12.5-11.6h9.3C105.4,86.1,100.1,91.8,93.8,95.8L93.8,95.8z
				 M73.5,101.9V89.6c7,0.3,13.3,3.1,18,7.5C86,100,79.9,101.7,73.5,101.9L73.5,101.9z M96.5,79.4c-3.3,4.4-7.7,7.9-12.4,10
				c-3.2-1.4-6.9-2.2-10.7-2.3v-7.7H96.5z M45.8,76.3c-2.6-4.3-4.2-9.2-4.2-14.4v-0.2l0,0l0.1-3.1H18.9c0-0.5,0-1,0-1.4
				c0-5.1,1.5-10.1,4.1-14.4h52.9c2.5,4.2,4.2,9.2,4.2,14.4c0,0.1,0,0.2,0,0.2h-0.1v3.1h22.7c0,0.5,0.1,1,0.1,1.4
				c0,5.1-1.6,10-4.2,14.4H45.8z M70.4,87c-3.6,0.2-7,1-10.2,2.3c-4.7-2.1-9.1-5.6-12.5-10h22.7V87z M70.4,101.9
				c-6.2-0.4-12.1-2.1-17.3-5c4.5-4.2,10.6-7,17.3-7.3V101.9z M35.7,79.4h8.8c3.2,5,7.7,9,12.5,11.6c-2.3,1.4-4.4,2.9-6.2,4.7
				C44.5,91.6,39.4,86,35.7,79.4L35.7,79.4z M30.4,61.8h8.5v0.2c0,5.1,1.4,10,3.8,14.4h-8.5C32.2,71.8,30.9,66.9,30.4,61.8
				L30.4,61.8z M7,58.7c0.5-5.6,1.8-10.9,4-15.7h8.9c-2.3,4.3-3.7,9.3-3.7,14.4c0,0.3,0,0.9,0,1.4H7z M27.8,23.5
				c1.9,1.9,4,3.5,6.4,4.9c-4.8,2.5-9.2,6.6-12.5,11.6h-9.3C16.2,33.1,21.4,27.5,27.8,23.5L27.8,23.5z M48.1,32.2v7.7H25
				c3.3-4.4,7.8-7.9,12.4-10C40.7,31.2,44.3,32.1,48.1,32.2L48.1,32.2z M48.1,17.3v12.3c-7-0.3-13.4-3.1-18-7.5
				C35.6,19.2,41.6,17.5,48.1,17.3L48.1,17.3z M51.2,32.2c3.6-0.3,7-1.1,10.2-2.3c4.7,2.1,9,5.6,12.4,10H51.2V32.2z M51.2,17.3
				c6.2,0.4,12.1,2.1,17.2,5c-4.5,4.2-10.6,7-17.2,7.3V17.3z M85.8,39.9h-8.7c-3.3-5-7.8-9-12.5-11.6c2.3-1.4,4.3-2.9,6.2-4.7
				C77,27.6,82.2,33.2,85.8,39.9L85.8,39.9z M91.2,57.5h-8.6v-0.2c0-5.1-1.4-10-3.7-14.4h8.4C89.4,47.5,90.6,52.4,91.2,57.5
				L91.2,57.5z M92.3,10.5c2.8,2.4,6.6,6.9,6.6,6.9c10,11.2,15.9,26.3,15.9,39.7c0,0.2-0.1,0.4-0.1,0.4H98
				c-2.5-26.3-23.5-47-48.9-47C22,10.5,0,33.8,0,62.7c0,15.6,7.1,33.1,18.9,46.1h10.4c-2.7-2.5-6.5-6.9-6.5-6.9
				C12.7,90.7,6.9,75.7,6.9,62.2c0-0.2,0-0.4,0-0.5h16.6c2.5,26.3,23.5,47,48.9,47c27.2,0,49.1-23.3,49.1-52.2
				c0-15.6-7.1-33.1-18.8-46.1H92.3"/>
		</g>
		<g>
			<g>
				<rect x="900.6" class="st1" width="169.6" height="169.6"/>
				<text transform="matrix(1 0 0 1 921.8832 44.6024)"><tspan x="0" y="0" class="st2 st3 st4">F</tspan><tspan x="6.8" y="0" class="st2 st3 st4">acultad </tspan></text>
				<text transform="matrix(1 0 0 1 921.8832 59.4803)" class="st2 st3 st4">Latinoamericana de</text>
				<text transform="matrix(1 0 0 1 921.8832 74.3534)" class="st2 st3 st4">Ciencias Sociales.</text>
				<text transform="matrix(1 0 0 1 921.8832 89.2313)"><tspan x="0" y="0" class="st2 st3 st4">Sede A</tspan><tspan x="40.3" y="0" class="st2 st3 st4">r</tspan><tspan x="44.6" y="0" class="st2 st3 st4">gentina.</tspan></text>
				<text transform="matrix(1 0 0 1 921.8832 119.8827)"><tspan x="0" y="0" class="st2 st5 st6">Programa</tspan><tspan x="0" y="17.7" class="st2 st5 st6">Educación a Distancia.</tspan></text>
			</g>
			<g>
				<rect x="553.7" class="st7" width="169.7" height="169.6"/>
				<g>
					<path class="st2" d="M647.7,28.7c-1.8-0.2-3.6-0.3-5.4-0.4c-0.6,0-1.1,0-1.6,0h-2.1c-1.1,0-2.2,0-3.4,0c-1.3,0-2.5,0.1-3.7,0.2
						c-6.3,0.5-12.5,1.5-18.7,3.1c-0.2,0.1-0.4,0.1-0.7,0.2c0.2,0.3,0.4,0.3,0.7,0.4c0,0,0.1,0,0.1,0.1c0.3,0.2,0.4,0.3,0.8,0.4
						c0.5,0,1,0.1,1.4,0c1-0.2,1-0.4,1.8,0.2c0.4,0.3,0.4,0.3,0.5,0.7c0.1,0.4,0,0.6,0.4,0.9c0.3,0.3,0.6,0.3,0.8-0.1
						c0.4-0.9,1.4,0.2,1.4,0.7c0,0.8,0.2,0.3,0.4,0.6c0.2,0.1,0.1,1.2,0.8,1.4c0.3,0.1,0.5,0,0.6,0.3c0,0.1,0,0.3-0.1,0.4
						c-0.1,0.2-0.2,0.5-0.3,0.7c-0.4,0.8-0.3,1.5,0.1,2.4c0.1,0.2,0.2,0.4,0.4,0.7c0.3,0.9,0.4,1,0.9,1.4c0.4,0.2,0.7,0.2,1.1,0.2
						c0.3,0,0.4,0,0.6-0.2c0.3-0.2,0.4-0.2,0.6,0c0.5,0.3,0.4,0,0.7-0.4c0.4-0.6,0.6-0.1,0.6-1.1c0-0.2,0.2-0.4,0.5-0.5
						c0.7,0,0.7-0.3,1.4-0.2c0.3,0,0.8,0,0.5,0.7c-0.4,0.4-0.4,0.4-0.5,0.9c0,0.5-0.1,0.6-0.3,0.9c-0.4,0.5-0.2,0.3-0.3,0.8
						c0,0.2-0.2,0.4-0.3,0.6c-0.1,0.3,0.1,0.5,0.5,0.4c0.3-0.1,0.6-0.1,0.9,0c0.3,0,0.6,0,0.9,0c0.5,0,0.9,0,1.3,0.4
						c0.4,0.4,0.3,0.5,0.2,1.3c-0.1,0.2,0.1,0.4,0,0.6c0,0.3-0.3,0.7-0.3,1c0,0.2,0,0.4,0.1,0.6c0.2,0.3,0.3,0.5,0.5,0.6
						c0.2,0.2,0.4,0.4,0.7,0.7c1,0.6,1.1,0,2-0.2c0.4,0,0.7,0,1,0.1c0.3,0.1,0.5,0.3,0.8,0.6c0.3,0.3,0.5,0.4,0.6-0.2
						c0-0.2,0.2-0.4,0.3-0.5c0.3,0,0.2-0.1,0.3-0.4c0,0,0-0.1,0.1-0.1v0v-0.1c0.1-0.5,0.7-0.9,1.3-0.9h0.1c0.3,0,0.7-0.2,0.9-0.5
						c0.2-0.2,0.9-0.7,0.5,0.2c-0.1,0.2-0.2,0.2-0.2,0.4c0,0.1,0,0.1,0,0.2c0.1,0.3-0.1,0.4-0.2,0.6c0,0.2,0.2,0.2,0.2,0.2
						c0.1,0.1,0.1,0.3,0.2,0.4c0.2,0.1,0.3,0,0.4-0.3v0v-0.2c0-0.1-0.1-0.2-0.1-0.4c0-0.2,0-0.4,0.1-0.5c0,0,0.1-0.1,0.2-0.1
						c0.6-0.4,1-0.6,1.4-0.2c0.1,0,0.1,0.1,0.2,0.2c0.5,0.5,0.3,0.5,1,0.5c0.6,0,0.7-0.1,1.2,0.2c0.3,0.2,1.2,0.4,1.4,0
						c0.2-0.5,0.9-0.5,1.1-0.1c0.2,0.3,0.3,0.3,0.6,0.3c0,0,0,0,0,0c0.3,0,0.3,0,0.5,0.2c0.3,0.3,0,0.2,0,0.6c0,0.3,0,0.2,0.4,0.2
						c0.7,0,1.5,0.3,1.7,1c0.1,0.4,0.5,0.2,0.7,0.4c0.4,0.5,0.2,0.5,0.9,0.6c0.2,0,0.3,0,0.4,0c0.6-0.2,0.8-0.2,1.1,0
						c0.3,0.2,0.4,0.5,0.7,0.4c0.6-0.1,0.7,0.4,1.1,0.7c0.5,0.4,0.7,0.4,0.7,1.2c0,0.6,0,0.4,0.4,0.8c0.4,0.5,0.5,0.6-0.1,1.2
						c-0.5,0.4-0.5,0.7,0.3,0.2c0.3-0.2,0.5,0.1,0.9,0.2c0.2,0.2,0.2,0.4,0,0.6c0,0.6-0.1,0.5,0.4,0.2c0.5-0.5,0.9-0.6,1.6-0.1
						c0.2,0.2,0.5,0.3,0.7,0.5c0.6,0.5,1.3,0.8,2.1,0.8c0.6,0,0.9,0.2,1.4,0.2c0.7-0.1,1.2,0.2,1.6,0.9c0.2,0.3,0.5,0.6,0.8,0.7
						c0.8,0.4,1.1-0.1,1.4,0.9c0.6,1.7-0.6,3.1-1.7,4.2c-0.4,0.5-0.3,0.8-0.6,1.1c-0.4,0.4-1.1,0.1-0.9,0.8c0.1,0.3-0.2,0.5-0.2,0.8
						c0,0.2,0,0.3,0,0.4c0,0.4,0.2,0.7-0.2,1c0,0.4-0.1,0.7-0.2,1.1c-0.4,0.7-0.7,1.3-0.9,1.7c-0.2,0.3-0.3,0.4-0.6,0.6
						c-0.4,0.3-0.2,0.7-0.4,0.9c-0.1,0.1-0.2,0.2-0.4,0.3c-0.5,0.4-0.5,0.5-1.2,0.5c-1.3,0-3.2,0.9-4,2.1c-0.3,0.5-0.3,0.7-0.4,1.2
						c-0.1,0.6-0.3,0.5-0.7,0.9c-0.6,0.7-0.5,1.4-1.2,1.2c-0.2,0-0.2,0.2-0.5,0.5c-0.2,0.2-0.4,0.4-0.5,0.7c0,0.3-0.1,0.4-0.4,0.7
						c-0.2,0.2-0.4,0.4-0.7,0.7c-0.4,0.9-1.2,0.8-2.1,0.7c-0.2,0-0.6-0.2-0.9-0.3c-0.6-0.2-0.5,0.2-0.1,0.4c0.2,0.1,0.2,0.1,0.2,0.2
						c0.1,0.4-0.4,0.5,0.2,0.9c0.1,0.3,0,0.6-0.3,0.9c-0.4,0.6-1,0.8-1.6,0.9c-0.4,0-0.7,0-1.1,0c-0.8,0-0.6-0.2-0.7,0.5
						c0,0.2-0.1,0.3-0.2,0.5c0,0.6-0.4,0.7-0.9,0.6c-0.9-0.4-0.5-0.4-0.8,0.2c-0.1,0.2-0.1,0.3,0,0.4c0,0.1,0,0.3,0.1,0.3
						c0.1,0,0.1,0,0.2,0c0.3,0,0-0.2,0.4-0.2c0.2,0,0.2,0,0.1,0.2c-0.1,0.3-0.1,0.2-0.4,0.2c-0.3,0-0.4,0-0.4,0.3
						c0,0.4-0.2,0.3-0.3,0.6c0,0.1-0.1,0.2-0.1,0.4c-0.1,0.4-0.4,0.3-0.7,0.4c-0.2,0.1-0.4,0.2-0.5,0.4c-0.2,0.2-0.2,0.5,0,0.8
						c0,0,0.1,0.1,0.2,0.2c0.1,0.1,0.1,0.2,0.2,0.2c0.4,0.1,0.4-0.1,0.4,0.3c0,0.4-0.2,0.4-0.5,0.6c-0.1,0.1-0.2,0.1-0.2,0.2
						c-0.2,0.1-0.2,0.2-0.4,0.5c0,0.3-0.2,0.5-0.4,0.5c-0.7,0.2-0.7,0.4-0.5,1c0.1,0.5-0.1,0.4-0.4,0.5c-0.1,0-0.3,0.1-0.4,0.2
						c-0.2,0.2-0.3,0.4-0.4,0.6c-0.3,0.3,0.1,0-0.8,0.2c-0.4,0.1-0.4-0.2-0.4-0.6c0-0.2-0.1-0.3-0.1-0.3c0,0-0.1-0.1-0.1-0.2
						c-0.2-0.5,0-0.4-0.4-0.7c-0.4-0.2,0-0.5-0.1-0.8c-0.2-0.4-0.2-0.2-0.2-0.6c0-0.1-0.1-0.2-0.1-0.4c-0.1-0.2-0.1-0.3,0.2-0.4
						c0.3-0.2,0.3-0.1,0.4-0.4c0.2-0.8,0.1-0.2-0.3-0.6c-0.1-0.1,0-0.3,0.1-0.5c0.3-0.4,0.4-0.4,0.6-0.4c0,0,0.1,0,0.2,0
						c0.2-0.1,0.1-0.3,0.2-0.7c0-0.5,0.2-0.7,0.3-1.1c0.2-0.2,0.2-0.5,0-0.7c-0.2-0.5-0.7,0-0.7-0.8c0.1-0.6,0.2-0.6,0.4-1.1
						c0.1-0.2,0-0.5,0-0.8c-0.2-0.8-0.1-0.8,0.3-1.5c0.1-0.3,0.3-0.5,0.4-0.8c0.1-0.3,0.1-0.5,0.2-0.8c0.3-0.2,0.3-0.3,0.3-0.7
						c0-0.5,0.2-0.5,0.2-0.9s-0.1-0.3-0.2-0.6c0-0.2,0-0.3,0-0.4c0.2-0.5,0.4-0.3,0.2-0.9c-0.1-0.3,0.1-0.7,0.3-1
						c0-0.1,0.1-0.2,0.1-0.2c0.2-0.5,0.3-1,0.4-1.6c0.1-0.4,0.1-0.8,0-1.1c0-0.3,0-0.5,0-0.6c0.1-0.4,0.3-0.3,0.2-0.7
						c0-0.3-0.1-0.7,0-0.8c0.2-0.5,0-1.1,0-1.7c0-0.5-0.2-0.8-0.6-1.1c-0.1,0-0.2-0.1-0.3-0.2c-0.5-0.4-1-0.8-1.6-1.1
						c-0.1,0-0.2-0.1-0.2-0.1c-0.6-0.2-0.6,0-1.2-0.6c-0.2-0.2-0.3-0.4-0.5-0.6c-0.2-0.4,0.2-0.4,0-0.8c-0.1-0.2-0.4-0.3-0.5-0.5
						c-0.5-0.7-0.9-1.4-1.2-2.2c-0.5-1-1-2-1.8-2.7c-0.3,0-0.4-0.2-0.3-0.5c0-0.3-0.1-0.5-0.2-0.6c-0.3-0.6,0.5-0.9,0.9-1
						c0.3-0.2,0.3-0.4,0-0.6c-0.1,0-0.2-0.1-0.4-0.1c-0.6-0.2-0.3-0.9-0.1-1.3c0.2-0.2,0.4-0.6,0.4-0.9c0.1-0.5,0.1-0.5,0.4-0.7
						c0.5-0.1,0.4-0.2,0.6-0.6c0-0.4,0-0.4,0.4-0.5c0,0,0.1,0,0.1,0c0.9-0.8,0.7-1.2,0.7-2.2c0-0.5-0.1-0.7-0.4-1.2
						c-0.2-0.3-0.3-0.3-0.4-0.4c0,0,0-0.1,0-0.2c0-0.5,0.1-0.4-0.3-0.9c-0.3-0.2-0.7-0.2-0.9,0.2c0,0.1,0,0.2-0.1,0.3
						c-0.4,0.2-0.3,0-0.2,0.6c0,0.1,0,0.2,0,0.2c-0.5,0.3-0.4-0.3-0.6-0.3c-0.3-0.1-0.2,0.1-0.6-0.3c-0.1-0.2-0.2-0.2-0.5-0.2h-0.4
						c-0.1,0-0.2-0.1-0.3-0.4c-0.2-0.2,0-0.4-0.4-0.5c-0.1,0-0.2,0-0.2,0c-0.4-0.3-0.1-0.3-0.6-0.2c-0.2,0-0.5-0.2-0.5-0.5
						c0.1-0.8,0-0.7-0.7-1.3c-0.3-0.3-0.4-0.5-0.5-0.8c-0.2-0.4-0.3-0.2-0.7-0.2c-0.2,0-0.7-0.1-1.1-0.3c-0.6-0.4-0.8-0.3-1.2-0.4
						c-0.5-0.1-0.9-0.7-1.2-1.1c-0.3-0.5-0.8-0.7-1.4-0.6c-0.5,0.1-0.5,0.6-1.1,0.5c-0.4-0.1-0.6-0.5-1.4-0.6
						c-0.6-0.1-1-0.4-1.5-0.7c-0.6-0.2-0.7-0.7-1.2-0.8c-1.1-0.3-0.6-0.2-1.1-0.7c-0.1-0.1-0.2-0.2-0.4-0.2c-0.3-0.2-0.8-0.6-0.5-1
						c0.3-0.4,0.4-0.7,0.2-1c-0.2-0.3-0.2-0.5-0.1-0.7c0-0.3-0.5-0.7-0.7-1c-0.3-0.4-0.6-0.8-0.9-1.3c-1.1-0.5,0.1-0.6-0.5-1.2
						c-0.3,0-0.4-0.2-0.4-0.4c-0.1-0.5,0-0.5-0.4-0.9c-0.1-0.1-0.2-0.2-0.3-0.5c-0.1-0.3-0.2-0.5-0.3-0.9c0-0.2,0-0.4,0-0.7
						c0-0.6,0.1-0.5-0.5-0.8c-0.2,0-0.2-0.1-0.4-0.1c0,0-0.1,0-0.1,0c-0.1,0.1-0.2,0.3-0.2,0.5c0,0.5,0,0.6,0.1,1
						c0.1,0.1,0.2,0.4,0.3,0.5c0.3,0.4,0.4,0.4,0.4,0.8c0,0.4,0,0.5,0.2,0.9c0.6,0.8,0.4,0.9,0.6,1.6c0,0.4,0,0.6-0.2,0.6
						c-0.3,0.1-0.5,0-0.7-0.2c-0.2-0.2-0.1-0.4,0.1-0.6c0.3-0.5-0.4-0.9-0.7-1.2c-0.5-0.4-0.7-0.6-0.3-1.1c0.4-0.4,0.1-0.6-0.1-0.9
						c-0.5-0.5-0.6-0.5-0.5-0.9c0-0.4,0-0.5,0-0.6c-3.2,0.9-6.3,2-9.5,3.3v54.7c4.1,1.6,8.1,2.9,12.2,4c6.2,1.6,12.4,2.7,18.7,3.1
						c1.3,0.1,2.5,0.2,3.7,0.2c1.1,0,2.2,0,3.4,0h1c0.2,0,0.4-0.1,0.6-0.1c0.8,0.1,0.2-0.6,0.5-0.8c0,0,0.1,0,0.2,0
						c0.4-0.1,0.3,0,0.5,0.2c0.2,0.4,0.3,0.5,0.6,0.7h0.4c1.8-0.1,3.6-0.2,5.4-0.4c9.6-0.9,19.3-3.2,28.7-6.9V35.6
						C667,31.9,657.3,29.6,647.7,28.7 M631.7,40c-0.1,0-0.2,0.1-0.3,0.1c-0.1,0.1-0.1,0.2-0.3,0.3c-0.4,0.3-0.5-0.1,0-0.4
						c0.1-0.1,0.2-0.2,0.3-0.2C632,39.6,632.4,40,631.7,40 M637.3,42.1c-0.3,0-0.4,0-0.7,0c-0.5,0.1-0.7,0-0.5-0.4
						c0.1-0.4-0.7-0.2-0.9-0.4c0,0,0-0.1,0-0.2v0c-0.2-0.4-0.1-0.3-0.8-0.3c-0.2,0-0.4,0-0.5-0.2c-0.3-0.3-0.4-0.4-0.9-0.4
						c-0.4,0-0.7-0.7-0.4-0.7c0.7-0.1,0.4,0.2,1,0.2c0.4,0,0.5,0.1,0.7,0.3c0.2,0.1,0.3,0.2,0.6,0.2c0.1,0,0.1,0,0.2,0
						c0.2,0,0.3,0.1,0.5,0.2c0.1,0.1,0.2,0.2,0.3,0.2c0.2,0.2,0.4,0.4,0.7,0.4c0.4,0.1,0.4,0,0.7,0.3
						C637.8,41.9,638.1,42,637.3,42.1 M638.9,43.4c-0.1,0-0.2,0-0.4,0c-0.2,0-0.4,0-0.4-0.2c0-0.3,0.1-0.2,0.3-0.2h0
						c0.2,0,0.2,0,0.2,0.2c0,0.1,0.1,0.1,0.3,0.1C639.2,43.4,639.1,43.5,638.9,43.4 M641.3,43.1c-0.5,0-0.6-0.1-0.7,0.2
						c0,0.1-0.1,0.2-0.2,0.3c0,0.1-0.1,0.1-0.3,0c-0.3-0.1-0.6-0.3-0.6-0.5c0-0.1,0-0.2-0.1-0.3c-0.6-1.2-0.2-0.3,1-0.5
						c0,0,0.1,0,0.2,0c0.3-0.1,0.4-0.1,0.7,0.2c0.1,0.1,0.2,0.2,0.3,0.3C642.5,43.1,641.5,43.3,641.3,43.1 M642.3,43.2
						c-0.1,0-0.2-0.1-0.2-0.2c0-0.1,0.1-0.2,0.2-0.2c0.1,0,0.2,0.1,0.2,0.2C642.4,43.1,642.4,43.2,642.3,43.2 M638.5,89.4
						L638.5,89.4c0.1-0.1,0.1-0.1,0.1-0.3c0-0.2,0.1-0.1,0.1,0.1c0,0.2,0,0.7-0.2,0.7c-0.3,0-0.2,0-0.2-0.3
						C638.4,89.4,638.3,89.4,638.5,89.4 M613,38.9c-0.1,0.1-0.2,0.1-0.2,0c0,0,0,0,0-0.1c-0.1-0.4-0.4-0.2-0.3-0.5
						c0.1-0.3,0.2-0.4,0.4-0.3c0.1,0.1,0.2,0.2,0.3,0.3C613.1,38.6,613.2,38.8,613,38.9 M648.6,92.8c-0.2,0.4-0.3,0.3-0.7,0.2h-0.1
						c-0.2,0-0.2,0.3-0.6,0.2c-0.2-0.2-0.4-0.4-0.3-0.5c0.1-0.2,0.1-0.3,0.3-0.2c0.2,0.1,0.4,0,0.6,0c0.1,0,0.2-0.1,0.3-0.1
						C648.7,92.1,648.7,92.4,648.6,92.8"/>
					<polygon class="st2" points="609.6,112.3 609.6,114.8 603.9,114.8 603.9,118.2 609.1,118.2 609.1,120.7 603.9,120.7 
						603.9,126.1 600.6,126.1 600.6,112.3 					"/>
					<polygon class="st2" points="612.4,112.3 615.8,112.3 615.8,123.5 620.6,123.5 620.6,126.1 612.4,126.1 					"/>
					<path class="st2" d="M627.2,112.3h3.5l5,13.8h-3.5l-0.9-3h-4.6l-0.9,3h-3.5L627.2,112.3z M627.3,120.7h3.2L630,119
						c-0.2-0.5-0.4-1.1-0.5-1.7c-0.2-0.6-0.3-1.2-0.5-1.7h0c-0.1,0.5-0.3,1.1-0.5,1.7c-0.2,0.6-0.4,1.2-0.5,1.8L627.3,120.7z"/>
					<path class="st2" d="M644.1,123.8c0.7,0,1.2-0.1,1.7-0.2c0.5-0.1,0.8-0.3,1.1-0.5l0.7,2.4c-0.3,0.2-0.8,0.4-1.4,0.5
						c-0.7,0.2-1.4,0.3-2.4,0.3c-1.1,0-2.1-0.2-3-0.5c-0.9-0.3-1.7-0.8-2.3-1.4c-0.6-0.6-1.1-1.4-1.5-2.3c-0.4-0.9-0.5-1.9-0.5-3
						c0-1.1,0.2-2,0.5-2.9c0.3-0.9,0.8-1.6,1.5-2.3c0.6-0.6,1.4-1.1,2.3-1.4c0.9-0.3,1.9-0.5,3.1-0.5c1,0,1.7,0.1,2.4,0.3
						c0.6,0.2,1.1,0.4,1.4,0.6l-0.7,2.4c-0.3-0.2-0.7-0.4-1.2-0.5c-0.5-0.1-1-0.2-1.5-0.2c-0.6,0-1.1,0.1-1.6,0.3
						c-0.5,0.2-1,0.4-1.3,0.8c-0.4,0.4-0.7,0.8-0.9,1.4c-0.2,0.6-0.3,1.3-0.3,2.1c0,0.8,0.1,1.5,0.3,2c0.2,0.6,0.5,1.1,0.9,1.5
						c0.4,0.4,0.8,0.7,1.3,0.9C642.9,123.7,643.5,123.8,644.1,123.8"/>
					<path class="st2" d="M655.1,112c1,0,1.8,0.1,2.5,0.3c0.7,0.2,1.3,0.4,1.8,0.7l-0.7,2.4c-0.6-0.3-1.1-0.5-1.7-0.7
						c-0.6-0.2-1.1-0.3-1.7-0.3c-0.7,0-1.2,0.1-1.5,0.4c-0.4,0.2-0.5,0.6-0.5,1c0,0.5,0.2,0.8,0.5,1c0.3,0.2,0.9,0.4,1.6,0.7
						l1.3,0.4c0.5,0.2,1,0.4,1.4,0.6c0.4,0.3,0.8,0.5,1.1,0.9c0.3,0.3,0.6,0.7,0.7,1.1c0.2,0.4,0.3,0.9,0.3,1.4
						c0,0.6-0.1,1.1-0.3,1.7c-0.2,0.5-0.6,1-1,1.4c-0.4,0.4-1,0.7-1.7,0.9c-0.7,0.2-1.5,0.3-2.4,0.3c-0.9,0-1.7-0.1-2.5-0.3
						c-0.8-0.2-1.5-0.4-2.2-0.8l0.7-2.4c0.6,0.3,1.2,0.5,1.8,0.7c0.6,0.2,1.2,0.3,1.9,0.3c0.8,0,1.3-0.1,1.7-0.4
						c0.3-0.3,0.5-0.6,0.5-1c0-0.1,0-0.3-0.1-0.4c-0.1-0.2-0.2-0.3-0.3-0.4c-0.2-0.1-0.4-0.3-0.7-0.4c-0.3-0.1-0.7-0.3-1.2-0.4
						l-1.1-0.4c-0.5-0.2-1-0.4-1.4-0.6c-0.4-0.2-0.8-0.5-1.1-0.8c-0.3-0.3-0.6-0.7-0.7-1.1c-0.2-0.4-0.3-0.9-0.3-1.5
						c0-0.6,0.1-1.2,0.3-1.7c0.2-0.5,0.6-0.9,1-1.3c0.4-0.4,1-0.7,1.6-0.9C653.5,112.1,654.3,112,655.1,112"/>
					<path class="st2" d="M669.7,112c1,0,1.9,0.2,2.8,0.5c0.8,0.3,1.6,0.8,2.2,1.4c0.6,0.6,1.1,1.4,1.4,2.3c0.3,0.9,0.5,1.9,0.5,3
						c0,1.1-0.2,2.1-0.5,3c-0.4,0.9-0.8,1.6-1.5,2.2c-0.6,0.6-1.4,1.1-2.2,1.4c-0.9,0.3-1.8,0.5-2.8,0.5c-1,0-1.9-0.2-2.8-0.5
						c-0.8-0.3-1.6-0.8-2.2-1.4c-0.6-0.6-1.1-1.4-1.4-2.2c-0.3-0.9-0.5-1.9-0.5-3c0-1.1,0.2-2.1,0.5-3c0.4-0.9,0.8-1.6,1.5-2.3
						c0.6-0.6,1.4-1.1,2.2-1.4C667.8,112.2,668.7,112,669.7,112 M666.2,119.2c0,0.8,0.1,1.4,0.3,2c0.2,0.6,0.4,1.1,0.8,1.4
						c0.3,0.4,0.7,0.7,1.1,0.9c0.4,0.2,0.9,0.3,1.3,0.3c0.5,0,0.9-0.1,1.3-0.3c0.4-0.2,0.8-0.5,1.1-0.9c0.3-0.4,0.5-0.9,0.7-1.4
						c0.2-0.6,0.3-1.3,0.3-2c0-0.8-0.1-1.5-0.3-2.1c-0.2-0.6-0.4-1.1-0.8-1.5c-0.3-0.4-0.7-0.7-1.1-0.9c-0.4-0.2-0.9-0.3-1.3-0.3
						c-0.5,0-0.9,0.1-1.3,0.3c-0.4,0.2-0.8,0.5-1.1,0.9c-0.3,0.4-0.5,0.9-0.7,1.5C666.3,117.7,666.2,118.4,666.2,119.2"/>
					<path class="st2" d="M603.4,133.8h0.8l2.9,7.5h-0.9l-0.8-2.1h-3.2l-0.8,2.1h-0.9L603.4,133.8z M602.4,138.5h2.7l-0.6-1.6
						c-0.1-0.3-0.2-0.6-0.3-0.9c-0.1-0.4-0.2-0.7-0.4-1.2h0c-0.1,0.2-0.1,0.4-0.2,0.6c-0.1,0.2-0.1,0.4-0.2,0.5
						c-0.1,0.2-0.1,0.3-0.2,0.5c-0.1,0.2-0.1,0.3-0.2,0.5L602.4,138.5z"/>
					<path class="st2" d="M610.6,133.8h2.3c0.4,0,0.7,0.1,1,0.2c0.3,0.1,0.5,0.3,0.7,0.4c0.2,0.2,0.4,0.4,0.5,0.7
						c0.1,0.3,0.2,0.6,0.2,0.9c0,0.3,0,0.5-0.1,0.8c-0.1,0.2-0.2,0.4-0.3,0.6c-0.1,0.2-0.3,0.3-0.5,0.4c-0.2,0.1-0.4,0.2-0.6,0.3
						l2,3.2h-1l-1.9-3.1h-1.5v3.1h-0.8V133.8z M611.4,137.6h1.1c0.3,0,0.5,0,0.7-0.1c0.2-0.1,0.4-0.2,0.6-0.3
						c0.2-0.1,0.3-0.3,0.4-0.5c0.1-0.2,0.1-0.4,0.1-0.7c0-0.5-0.1-0.9-0.4-1.1c-0.3-0.2-0.7-0.4-1.3-0.4h-1.2V137.6z"/>
					<path class="st2" d="M622.5,133.8c0.4,0,0.8,0,1.1,0.1c0.3,0.1,0.7,0.2,1,0.3l-0.2,0.7c-0.3-0.1-0.6-0.2-0.9-0.3
						c-0.3-0.1-0.6-0.1-0.9-0.1c-0.4,0-0.7,0.1-1.1,0.2c-0.4,0.1-0.7,0.3-0.9,0.5c-0.3,0.2-0.5,0.6-0.6,1c-0.2,0.4-0.2,0.9-0.2,1.4
						c0,0.5,0.1,0.9,0.2,1.3c0.1,0.4,0.3,0.7,0.6,1c0.3,0.3,0.5,0.5,0.9,0.6c0.3,0.1,0.7,0.2,1.1,0.2c0.3,0,0.6,0,0.8-0.1
						c0.2,0,0.4-0.1,0.6-0.2v-2.4h-1.5v-0.7h2.3v3.6c-0.3,0.1-0.6,0.2-1,0.3c-0.3,0.1-0.8,0.1-1.3,0.1c-0.5,0-1-0.1-1.4-0.2
						c-0.4-0.2-0.8-0.4-1.2-0.7c-0.3-0.3-0.6-0.7-0.8-1.2c-0.2-0.5-0.3-1-0.3-1.6c0-0.6,0.1-1.2,0.3-1.6c0.2-0.5,0.4-0.9,0.8-1.2
						c0.3-0.3,0.7-0.6,1.2-0.7C621.5,133.9,622,133.8,622.5,133.8"/>
					<polygon class="st2" points="628.8,133.8 633.2,133.8 633.2,134.5 629.6,134.5 629.6,137.1 632.9,137.1 632.9,137.8 
						629.6,137.8 629.6,140.6 633.2,140.6 633.2,141.3 628.8,141.3 					"/>
					<path class="st2" d="M637,133.8h0.8l3.3,4.8c0.1,0.2,0.3,0.4,0.4,0.7c0.2,0.2,0.3,0.4,0.4,0.7h0c0-0.3,0-0.6,0-0.9
						c0-0.3,0-0.6,0-0.9v-4.4h0.8v7.5h-0.8l-3.3-4.7c-0.2-0.2-0.3-0.5-0.5-0.8c-0.2-0.3-0.3-0.5-0.5-0.8h0c0,0.4,0,0.7,0,1.1
						c0,0.3,0,0.7,0,1.1v4.2H637V133.8z"/>
					<polygon class="st2" points="652,133.8 652,134.6 649.6,134.6 649.6,141.3 648.7,141.3 648.7,134.6 646.3,134.6 646.3,133.8 
											"/>
					<rect x="655.5" y="133.8" class="st2" width="0.9" height="7.5"/>
					<path class="st2" d="M660.6,133.8h0.8l3.3,4.8c0.2,0.2,0.3,0.4,0.4,0.7c0.1,0.2,0.3,0.4,0.4,0.7h0c0-0.3,0-0.6,0-0.9
						c0-0.3,0-0.6,0-0.9v-4.4h0.8v7.5h-0.8l-3.3-4.7c-0.2-0.2-0.3-0.5-0.5-0.8c-0.2-0.3-0.3-0.5-0.5-0.8h0c0,0.4,0,0.7,0,1.1
						c0,0.3,0,0.7,0,1.1v4.2h-0.8V133.8z"/>
					<path class="st2" d="M672.8,133.8h0.8l2.9,7.5h-0.9l-0.8-2.1h-3.2l-0.8,2.1h-0.9L672.8,133.8z M671.8,138.5h2.7l-0.6-1.6
						c-0.1-0.3-0.2-0.6-0.3-0.9c-0.1-0.4-0.2-0.7-0.4-1.2h0c-0.1,0.2-0.1,0.4-0.2,0.6c-0.1,0.2-0.1,0.4-0.2,0.5
						c-0.1,0.2-0.1,0.3-0.2,0.5c-0.1,0.2-0.1,0.3-0.2,0.5L671.8,138.5z"/>
				</g>
			</g>
			<g>
				<text transform="matrix(1 0 0 1 776.4526 53.8231)"><tspan x="0" y="0" class="st2 st3 st8">F</tspan><tspan x="6.9" y="0" class="st2 st3 st8">acultad </tspan></text>
				<text transform="matrix(1 0 0 1 776.4526 71.5018)" class="st2 st3 st8">Latinoamericana de</text>
				<text transform="matrix(1 0 0 1 776.4526 89.1805)" class="st2 st3 st8">Ciencias Sociales.</text>
				<text transform="matrix(1 0 0 1 776.4526 106.8592)"><tspan x="0" y="0" class="st2 st3 st8">Sede A</tspan><tspan x="40.7" y="0" class="st2 st3 st8">r</tspan><tspan x="45.1" y="0" class="st2 st3 st8">gentina.</tspan></text>
				<text transform="matrix(1 0 0 1 776.4526 133.159)"><tspan x="0" y="0" class="st2 st5 st8">Á</tspan><tspan x="8.8" y="0" class="st2 st5 st8">r</tspan><tspan x="13.6" y="0" class="st2 st5 st8">ea Géne</tspan><tspan x="61.1" y="0" class="st2 st5 st8">r</tspan><tspan x="65.8" y="0" class="st2 st5 st8">o,</tspan></text>
				<text transform="matrix(1 0 0 1 776.4741 148.933)" class="st2 st5 st8">Sociedad y</text>
				<text transform="matrix(1 0 0 1 776.4741 164.7083)"><tspan x="0" y="0" class="st2 st5 st8">P</tspan><tspan x="8.3" y="0" class="st2 st5 st8">olíticas.</tspan></text>
				<rect x="727.2" class="st9" width="169.6" height="169.6"/>
				<text transform="matrix(1 0 0 1 754.3432 46.9979)"><tspan x="0" y="0" class="st2 st3 st8">F</tspan><tspan x="6.9" y="0" class="st2 st3 st8">acultad </tspan></text>
				<text transform="matrix(1 0 0 1 754.3432 62.0448)" class="st2 st3 st8">Latinoamericana de</text>
				<text transform="matrix(1 0 0 1 754.3432 77.0965)" class="st2 st3 st8">Ciencias Sociales.</text>
				<text transform="matrix(1 0 0 1 754.3432 92.1502)"><tspan x="0" y="0" class="st2 st3 st8">Sede A</tspan><tspan x="40.7" y="0" class="st2 st3 st8">r</tspan><tspan x="45.1" y="0" class="st2 st3 st8">gentina.</tspan></text>
				<text transform="matrix(1 0 0 1 754.3432 118.4442)"><tspan x="0" y="0" class="st2 st5 st8">Á</tspan><tspan x="8.8" y="0" class="st2 st5 st8">r</tspan><tspan x="13.6" y="0" class="st2 st5 st8">ea Estado y</tspan></text>
				<text transform="matrix(1 0 0 1 754.3432 134.2147)"><tspan x="0" y="0" class="st2 st5 st8">P</tspan><tspan x="8.3" y="0" class="st2 st5 st8">olíticas Públicas.</tspan></text>
			</g>
		</g>
	</g>
	<g>
		<g>
			<path class="st10" d="M1534.5,26.9c-5.5-2.2-9.6-5.5-9.6-12.4c0-9.1,7-14.5,15.8-14.5c8.9,0,14.9,5.7,15,15l-6.9,1.6
				c-0.7-6.5-3.7-9.4-8.2-9.4c-4,0-7.8,2.2-7.8,6.5s3.8,5.8,6.9,7l7.2,2.8c6.3,2.5,10.6,5.9,10.6,13.1c0,9.4-7.4,14.6-16.7,14.6
				c-10,0-17.3-6.1-17.4-16.3l6.9-1.4c0.9,6.5,4,10.4,10.3,10.4c4.3,0,8.9-1.8,8.9-6.8c0-4.6-3.9-6-8.1-7.6L1534.5,26.9z"/>
			<path class="st10" d="M1583.1,51l-0.1-2.6c-2.8,1.8-5.7,3-8.7,3c-6,0-12.8-3.9-12.8-15V15h7.5v20.8c0,7.1,3.5,8.5,6.2,8.5
				c3,0,6.7-1.8,7.7-7.5V15h7.4V51H1583.1z"/>
			<path class="st10" d="M1602.2,35.4c0.8,7.4,5,8.9,8.3,8.9c3.3,0,6.3-1.4,8.4-4.5l6.5,1.7c-1.9,6-7.4,9.9-14.7,9.9
				c-8.3,0-16.2-4.9-16.2-18.3c0-13.6,8.2-18.5,16-18.5c7.9,0,16,4.9,16,18.4v2.4H1602.2z M1618.5,29.4c-1.1-6.5-4.8-7.7-7.8-7.7
				c-3.5,0-7.1,1.8-8.4,7.7H1618.5z"/>
			<path class="st10" d="M1659.2,41.5c-1.8,6.2-6.5,9.9-13.4,9.9c-8.1,0-16-4.9-16-18.4c0-13.5,8-18.4,16.1-18.4
				c6.5,0,11.6,3.2,13.4,9.6c-2.3,0.6-4.3,1.2-6.5,1.8c-1.8-2.8-4.1-4.3-7.2-4.3c-3.6,0-8.2,2-8.2,11.3c0,9.3,4.5,11.3,8.2,11.3
				c3.1,0,5.5-1.5,7.2-4.5L1659.2,41.5z"/>
			<path class="st10" d="M1661.9,51v-6.9h7.2V21.9h-7.2V15h14.6v29.1h7.2V51H1661.9z M1672.7,10.5c-2.8,0-5-2.3-5-5c0-2.6,2.1-5,5-5
				c2.8,0,5,2.3,5,5C1677.7,8.3,1675.5,10.5,1672.7,10.5z"/>
			<path class="st10" d="M1707.7,51l-0.1-2.6c-2.9,2.1-6,3-9.3,3c-6.8,0-12.5-3.3-12.5-10.6c0-7,5.2-10.7,12.8-11.2l8.7-0.6v-1.1
				c0-4.1-2.3-6.2-6.4-6.2c-2.9,0-5.5,1.1-7.4,3.3l-6.1-1.8c1.6-5,7.1-8.6,13.8-8.6c8.4,0,13.5,5.5,13.5,12.6V51H1707.7z
				 M1707.3,35.1l-8.5,0.6c-3.8,0.3-5.4,1.9-5.4,4.8c0,1.8,0.7,3.8,5.5,3.8c2.6,0,5.7-0.6,8.4-3.5V35.1z"/>
		</g>
		<g>
			<path class="st10" d="M1539.7,129.6c-8.9-3.6-15.8-8.9-15.8-20.3c0-14.8,11.5-23.6,25.8-23.6c14.6,0,24.3,9.3,24.6,24.6
				l-11.4,2.7c-1.2-10.5-6-15.3-13.4-15.3c-6.5,0-12.7,3.6-12.7,10.5c0,7,6.3,9.5,11.2,11.5l11.7,4.6c10.3,4.1,17.4,9.6,17.4,21.4
				c0,15.3-12.1,23.9-27.2,23.9c-16.3,0-28.3-10-28.4-26.6l11.4-2.3c1.4,10.7,6.6,17,16.8,17c7.1,0,14.5-3,14.5-11.1
				c0-7.5-6.4-9.7-13.2-12.4L1539.7,129.6z"/>
			<path class="st10" d="M1645,143.5c1.4,12.2,8.1,14.5,13.6,14.5c5.4,0,10.3-2.3,13.7-7.3l10.7,2.8c-3.1,9.9-12.2,16.1-24.1,16.1
				c-13.6,0-26.5-8-26.5-29.9c0-22.2,13.3-30.2,26.2-30.2c12.9,0,26.1,8,26.1,30.1v3.9H1645z M1671.6,133.6
				c-1.7-10.5-7.9-12.6-12.7-12.6c-5.7,0-11.6,3-13.7,12.6H1671.6z"/>
			<path class="st10" d="M1728.5,168.8v-11.2h11.8v-36.3h-11.8v-11.2h23.9v47.5h11.8v11.2H1728.5z M1746.2,102.6
				c-4.5,0-8.1-3.8-8.1-8.6c0-4.9,3.6-8.7,8.1-8.7c4.6,0,8.3,3.8,8.3,8.7C1754.6,98.7,1750.9,102.6,1746.2,102.6z"/>
			<path class="st10" d="M1805.7,163.8c-5.4,4.7-10,5.8-14.3,5.8c-11.7,0-25.4-8-25.4-30.1c0-22,13.7-30,25.3-30
				c5.2,0,9.5,1.6,14.7,6.1l0.3-5.4h11.6v58.7c0,14-10,24.4-25.6,24.4c-12,0-21-6-23.9-16.1l10.7-2.8c3.4,5,8.2,7.3,13.7,7.3
				c8.2,0,12.9-5.1,12.9-12.9V163.8z M1805.7,135.5c-1.5-10.2-7.4-14.5-14-14.5c-5.7,0-13.1,3.2-13.1,18.5
				c0,15.2,7.3,18.4,13.3,18.4c5.6,0,12.3-2.8,13.8-12.2V135.5z"/>
			<path class="st10" d="M1838.3,143.5c1.4,12.2,8.1,14.5,13.6,14.5c5.5,0,10.3-2.3,13.7-7.3l10.7,2.8c-3.1,9.9-12.2,16.1-24.1,16.1
				c-13.6,0-26.5-8-26.5-29.9c0-22.2,13.3-30.2,26.2-30.2c12.9,0,26.1,8,26.1,30.1v3.9H1838.3z M1864.8,133.6
				c-1.7-10.5-7.9-12.6-12.7-12.6c-5.7,0-11.6,3-13.7,12.6H1864.8z"/>
			<path class="st10" d="M1723.4,110.2c-2.2-0.6-4.4-0.8-5.7-0.8c-4.6,0-9.6,3-14,7.4l-0.5-6.7h-11.5v58.7h12.3v-33.9
				c1.6-9.4,7.3-12.5,12.5-12.5c1.7,0,3.8,0.3,6.8,0.9V110.2z"/>
			<path class="st10" d="M1599.3,168.8l-20.9-58.7h12.7l14.1,41.9l14.2-41.9h12.7l-20.9,58.7H1599.3z"/>
		</g>
		<g>
			<polygon class="st11" points="1338.8,0.5 1305.1,0.5 1305.1,67.8 1220.9,67.8 1220.9,101.5 1305.1,101.5 1305.1,168.8 
				1338.8,168.8 1338.8,101.5 1490.3,101.5 1490.3,67.8 1338.8,67.8 			"/>
			<rect x="1220.9" y="0.5" class="st10" width="84.2" height="67.3"/>
			<rect x="1338.8" y="0.5" class="st10" width="151.5" height="67.3"/>
			<rect x="1220.9" y="101.5" class="st10" width="84.2" height="67.3"/>
			<rect x="1338.8" y="101.5" class="st10" width="151.5" height="67.3"/>
		</g>
	</g>
</g>
</svg>
