<?xml version="1.0" encoding="utf-8"?>
<!-- Generator: Adobe Illustrator 26.3.1, SVG Export Plug-In . SVG Version: 6.00 Build 0)  -->
<!DOCTYPE svg PUBLIC "-//W3C//DTD SVG 1.1//EN" "http://www.w3.org/Graphics/SVG/1.1/DTD/svg11.dtd" [
	<!ENTITY ns_extend "http://ns.adobe.com/Extensibility/1.0/">
	<!ENTITY ns_ai "http://ns.adobe.com/AdobeIllustrator/10.0/">
	<!ENTITY ns_graphs "http://ns.adobe.com/Graphs/1.0/">
	<!ENTITY ns_vars "http://ns.adobe.com/Variables/1.0/">
	<!ENTITY ns_imrep "http://ns.adobe.com/ImageReplacement/1.0/">
	<!ENTITY ns_sfw "http://ns.adobe.com/SaveForWeb/1.0/">
	<!ENTITY ns_custom "http://ns.adobe.com/GenericCustomNamespace/1.0/">
	<!ENTITY ns_adobe_xpath "http://ns.adobe.com/XPath/1.0/">
]>
<svg version="1.1" id="Capa_1" xmlns:x="&ns_extend;" xmlns:i="&ns_ai;" xmlns:graph="&ns_graphs;"
	 xmlns="http://www.w3.org/2000/svg" xmlns:xlink="http://www.w3.org/1999/xlink" x="0px" y="0px" viewBox="0 0 348.6 102.6"
	 style="enable-background:new 0 0 348.6 102.6;" xml:space="preserve">
<style type="text/css">
	.st0{fill:#005693;}
	.st1{fill:#FFD600;}
</style>
<metadata>
	<sfw  xmlns="&ns_sfw;">
		<slices></slices>
		<sliceSourceBounds  bottomLeftOrigin="true" height="102.6" width="348.6" x="785.4" y="-591.7"></sliceSourceBounds>
	</sfw>
</metadata>
<g>
	<g>
		<path class="st0" d="M166.4,14.3c-2.9-1.2-5.1-2.9-5.1-6.6c0-4.8,3.7-7.7,8.4-7.7c4.7,0,7.9,3,8,8L174,8.8c-0.4-3.4-2-5-4.4-5
			c-2.1,0-4.1,1.2-4.1,3.4s2,3.1,3.7,3.7l3.8,1.5c3.3,1.3,5.6,3.1,5.6,7c0,5-3.9,7.8-8.8,7.8c-5.3,0-9.2-3.2-9.2-8.7l3.7-0.8
			c0.5,3.5,2.1,5.5,5.5,5.5c2.3,0,4.7-1,4.7-3.6c0-2.4-2.1-3.2-4.3-4L166.4,14.3z"/>
		<path class="st0" d="M192.2,27l-0.1-1.4c-1.5,0.9-3,1.6-4.6,1.6c-3.2,0-6.8-2.1-6.8-7.9V7.9h4v11c0,3.8,1.8,4.5,3.3,4.5
			c1.6,0,3.5-0.9,4.1-4V7.9h4V27H192.2z"/>
		<path class="st0" d="M202.4,18.8c0.5,4,2.6,4.7,4.4,4.7c1.8,0,3.3-0.8,4.4-2.4l3.5,0.9c-1,3.2-4,5.2-7.8,5.2
			c-4.4,0-8.6-2.6-8.6-9.7c0-7.2,4.3-9.8,8.5-9.8c4.2,0,8.5,2.6,8.5,9.8v1.3H202.4z M211,15.6c-0.6-3.4-2.6-4.1-4.1-4.1
			c-1.8,0-3.8,1-4.4,4.1H211z"/>
		<path class="st0" d="M232.6,22c-0.9,3.3-3.5,5.2-7.1,5.2c-4.3,0-8.5-2.6-8.5-9.7c0-7.2,4.3-9.8,8.5-9.8c3.5,0,6.2,1.7,7.1,5.1
			c-1.2,0.3-2.3,0.6-3.5,0.9c-0.9-1.5-2.2-2.3-3.8-2.3c-1.9,0-4.4,1.1-4.4,6c0,4.9,2.4,6,4.3,6c1.7,0,2.9-0.8,3.8-2.4L232.6,22z"/>
		<path class="st0" d="M234,27v-3.7h3.8V11.6H234V7.9h7.8v15.4h3.8V27H234z M239.8,5.5c-1.5,0-2.6-1.2-2.6-2.6
			c0-1.4,1.1-2.6,2.6-2.6c1.5,0,2.7,1.2,2.7,2.6C242.5,4.4,241.3,5.5,239.8,5.5z"/>
		<path class="st0" d="M258.4,27l-0.1-1.4c-1.5,1.1-3.2,1.6-4.9,1.6c-3.6,0-6.6-1.8-6.6-5.6c0-3.7,2.7-5.7,6.8-5.9l4.6-0.3v-0.6
			c0-2.2-1.2-3.3-3.4-3.3c-1.5,0-2.9,0.6-3.9,1.7l-3.2-0.9c0.9-2.7,3.8-4.6,7.3-4.6c4.4,0,7.2,2.9,7.2,6.7V27H258.4z M258.1,18.6
			l-4.5,0.3c-2,0.2-2.9,1-2.9,2.6c0,1,0.4,2,2.9,2c1.4,0,3-0.3,4.4-1.8V18.6z"/>
	</g>
	<g>
		<path class="st0" d="M169.2,68.7c-4.7-1.9-8.4-4.7-8.4-10.8c0-7.9,6.1-12.5,13.7-12.5c7.7,0,12.9,4.9,13,13l-6,1.4
			c-0.6-5.6-3.2-8.1-7.1-8.1c-3.4,0-6.8,1.9-6.8,5.6c0,3.7,3.3,5,6,6.1l6.2,2.5c5.5,2.2,9.2,5.1,9.2,11.4c0,8.1-6.4,12.7-14.5,12.7
			c-8.7,0-15-5.3-15.1-14.1l6-1.2c0.7,5.7,3.5,9,8.9,9c3.7,0,7.7-1.6,7.7-5.9c0-4-3.4-5.2-7-6.6L169.2,68.7z"/>
		<path class="st0" d="M225.1,76.1c0.7,6.5,4.3,7.7,7.2,7.7c2.9,0,5.5-1.2,7.3-3.9l5.7,1.5c-1.7,5.2-6.5,8.5-12.8,8.5
			c-7.2,0-14.1-4.2-14.1-15.9c0-11.8,7.1-16.1,13.9-16.1c6.8,0,13.8,4.2,13.8,16v2.1H225.1z M239.2,70.9c-0.9-5.6-4.2-6.7-6.8-6.7
			c-3,0-6.1,1.6-7.3,6.7H239.2z"/>
		<path class="st0" d="M269.4,89.6v-6h6.3V64.4h-6.3v-6h12.7v25.2h6.3v6H269.4z M278.8,54.4c-2.4,0-4.3-2-4.3-4.6
			c0-2.6,1.9-4.6,4.3-4.6c2.5,0,4.4,2,4.4,4.6C283.2,52.4,281.3,54.4,278.8,54.4z"/>
		<path class="st0" d="M310.4,86.9c-2.9,2.5-5.3,3.1-7.6,3.1c-6.2,0-13.5-4.2-13.5-16c0-11.7,7.3-15.9,13.4-15.9
			c2.8,0,5,0.9,7.8,3.3l0.2-2.9h6.1v31.2c0,7.4-5.3,13-13.6,13c-6.4,0-11.1-3.2-12.7-8.5l5.7-1.5c1.8,2.6,4.4,3.9,7.3,3.9
			c4.4,0,6.8-2.7,6.8-6.8V86.9z M310.4,71.9c-0.8-5.4-3.9-7.7-7.4-7.7c-3,0-7,1.7-7,9.8c0,8.1,3.9,9.8,7.1,9.8
			c2.9,0,6.5-1.5,7.3-6.5V71.9z"/>
		<path class="st0" d="M327.7,76.1c0.7,6.5,4.3,7.7,7.2,7.7c2.9,0,5.5-1.2,7.3-3.9l5.7,1.5c-1.7,5.2-6.5,8.5-12.8,8.5
			c-7.2,0-14.1-4.2-14.1-15.9c0-11.8,7.1-16.1,13.9-16.1c6.8,0,13.8,4.2,13.8,16v2.1H327.7z M341.7,70.9c-0.9-5.6-4.2-6.7-6.8-6.7
			c-3,0-6.2,1.6-7.3,6.7H341.7z"/>
		<path class="st0" d="M266.7,58.5c-1.2-0.3-2.3-0.4-3-0.4c-2.5,0-5.1,1.6-7.4,3.9l-0.2-3.6h-6.1v31.2h6.5v-18
			c0.9-5,3.9-6.6,6.6-6.6c0.9,0,2,0.2,3.6,0.5V58.5z"/>
		<path class="st0" d="M200.8,89.6l-11.1-31.2h6.8l7.5,22.2l7.5-22.2h6.7l-11.1,31.2H200.8z"/>
	</g>
	<g>
		<polygon class="st1" points="62.5,0.2 44.7,0.2 44.7,36 0,36 0,53.8 44.7,53.8 44.7,89.6 62.5,89.6 62.5,53.8 143,53.8 143,36 
			62.5,36 		"/>
		<rect y="0.2" class="st0" width="44.7" height="35.7"/>
		<rect x="62.5" y="0.2" class="st0" width="80.4" height="35.7"/>
		<rect y="53.8" class="st0" width="44.7" height="35.7"/>
		<rect x="62.5" y="53.8" class="st0" width="80.4" height="35.7"/>
	</g>
</g>
</svg>
