<?xml version="1.0" encoding="utf-8"?>
<!-- Generator: Adobe Illustrator 26.3.1, SVG Export Plug-In . SVG Version: 6.00 Build 0)  -->
<!DOCTYPE svg PUBLIC "-//W3C//DTD SVG 1.1//EN" "http://www.w3.org/Graphics/SVG/1.1/DTD/svg11.dtd" [
	<!ENTITY ns_extend "http://ns.adobe.com/Extensibility/1.0/">
	<!ENTITY ns_ai "http://ns.adobe.com/AdobeIllustrator/10.0/">
	<!ENTITY ns_graphs "http://ns.adobe.com/Graphs/1.0/">
	<!ENTITY ns_vars "http://ns.adobe.com/Variables/1.0/">
	<!ENTITY ns_imrep "http://ns.adobe.com/ImageReplacement/1.0/">
	<!ENTITY ns_sfw "http://ns.adobe.com/SaveForWeb/1.0/">
	<!ENTITY ns_custom "http://ns.adobe.com/GenericCustomNamespace/1.0/">
	<!ENTITY ns_adobe_xpath "http://ns.adobe.com/XPath/1.0/">
]>
<svg version="1.1" id="Capa_1" xmlns:x="&ns_extend;" xmlns:i="&ns_ai;" xmlns:graph="&ns_graphs;"
	 xmlns="http://www.w3.org/2000/svg" xmlns:xlink="http://www.w3.org/1999/xlink" x="0px" y="0px" viewBox="0 0 633.1 313.4"
	 style="enable-background:new 0 0 633.1 313.4;" xml:space="preserve">
<style type="text/css">
	.st0{fill:#24334E;}
	.st1{fill:#FFFFFF;}
</style>
<metadata>
	<sfw  xmlns="&ns_sfw;">
		<slices></slices>
		<sliceSourceBounds  bottomLeftOrigin="true" height="313.4" width="633.1" x="416.9" y="-585"></sliceSourceBounds>
	</sfw>
</metadata>
<g>
	<rect class="st0" width="313.5" height="313.4"/>
	<rect x="319.6" class="st0" width="313.5" height="313.4"/>
	<g>
		<path class="st1" d="M173.7,53c-3.3-0.4-6.7-0.6-10.1-0.7c-1,0-2-0.1-3-0.1h-3.8c-2.1,0-4.1,0-6.2,0.1c-2.3,0.1-4.6,0.2-6.9,0.4
			c-11.6,0.9-23.1,2.7-34.6,5.8c-0.4,0.1-0.8,0.2-1.2,0.4c0.3,0.5,0.7,0.5,1.2,0.7c0.1,0.1,0.1,0.1,0.2,0.1c0.6,0.3,0.8,0.6,1.5,0.8
			c0.9,0.1,1.8,0.2,2.7,0c1.8-0.4,1.9-0.7,3.3,0.4c0.7,0.5,0.7,0.6,0.9,1.4c0.2,0.8,0.1,1.1,0.7,1.6c0.6,0.5,1.1,0.6,1.4-0.1
			c0.7-1.6,2.6,0.4,2.6,1.2c-0.1,1.5,0.3,0.6,0.7,1.2c0.3,0.2,0.2,2.2,1.5,2.6c0.5,0.1,0.9,0,1.1,0.6c0.1,0.2,0,0.5-0.2,0.8
			c-0.1,0.4-0.4,0.9-0.6,1.2c-0.7,1.5-0.6,2.8,0.1,4.3c0.2,0.4,0.4,0.8,0.7,1.2c0.6,1.6,0.7,1.9,1.7,2.5c0.6,0.4,1.4,0.4,2.1,0.4
			c0.6,0,0.7,0.1,1.2-0.3c0.5-0.4,0.8-0.4,1.2-0.1c1,0.6,0.8,0.1,1.2-0.6c0.7-1.1,1.1-0.1,1.1-2c0-0.4,0.3-0.7,0.9-0.9
			c1.2,0.1,1.4-0.6,2.6-0.4c0.5,0.1,1.4,0.1,1,1.2c-0.7,0.7-0.8,0.7-0.9,1.7c0,0.9-0.1,1.2-0.6,1.7c-0.8,0.9-0.3,0.6-0.6,1.5
			c-0.1,0.4-0.4,0.6-0.5,1.1c-0.1,0.5,0.2,0.9,1,0.7c0.6-0.1,1.1-0.1,1.6-0.1c0.6,0,1.2,0.1,1.7,0.1c0.9-0.1,1.7,0,2.3,0.7
			c0.7,0.8,0.6,1,0.3,2.5c-0.1,0.4,0.2,0.7,0.1,1.1c-0.1,0.6-0.5,1.4-0.5,1.9c0,0.4,0.1,0.7,0.1,1c0.4,0.5,0.6,0.9,0.9,1.2
			c0.4,0.4,0.7,0.8,1.4,1.2c1.9,1.2,2.1-0.1,3.6-0.4c0.8-0.1,1.4-0.1,1.9,0.1c0.5,0.2,0.9,0.6,1.4,1.1c0.5,0.5,0.9,0.7,1.2-0.3
			c0.1-0.4,0.3-0.8,0.6-0.9c0.5-0.1,0.3-0.1,0.5-0.7c0.1-0.1,0.1-0.1,0.1-0.2v-0.1v-0.1c0.2-1,1.4-1.6,2.4-1.7h0.2
			c0.6,0,1.4-0.4,1.7-0.9c0.4-0.4,1.6-1.2,0.9,0.3c-0.2,0.4-0.4,0.4-0.3,0.8c0,0.1,0.1,0.2,0.1,0.4c0.2,0.6-0.2,0.7-0.4,1.2
			c-0.1,0.4,0.3,0.3,0.4,0.4c0.2,0.1,0.2,0.5,0.4,0.7c0.4,0.2,0.6-0.1,0.8-0.5v-0.1v-0.3c-0.1-0.2-0.2-0.4-0.2-0.6
			c-0.1-0.4-0.1-0.6,0.2-0.9c0.1-0.1,0.2-0.1,0.4-0.2c1.2-0.7,1.9-1,2.7-0.4c0.1,0.1,0.2,0.2,0.4,0.3c0.9,0.9,0.5,0.9,1.8,1
			c1,0,1.3-0.2,2.2,0.3c0.6,0.3,2.2,0.8,2.6,0c0.4-0.9,1.7-0.9,2-0.1c0.3,0.5,0.6,0.6,1.1,0.7c0.1,0,0.1,0,0.1,0.1
			c0.5,0.1,0.5,0.1,0.9,0.4c0.5,0.6-0.1,0.4,0,1.1c0.1,0.5,0,0.3,0.7,0.3c1.2,0,2.8,0.5,3.1,1.8c0.2,0.7,0.9,0.3,1.4,0.8
			c0.8,0.9,0.4,0.9,1.7,1.1c0.3,0.1,0.5,0.1,0.8,0c1.1-0.3,1.5-0.3,2.1,0.1c0.6,0.4,0.7,0.9,1.4,0.7c1.1-0.2,1.3,0.7,2,1.3
			c0.9,0.7,1.4,0.7,1.4,2.2c0,1,0.1,0.7,0.7,1.5c0.8,1,1,1.2-0.1,2.2c-0.9,0.7-0.9,1.2,0.6,0.4c0.5-0.3,0.9,0.1,1.7,0.4
			c0.4,0.4,0.4,0.7,0.1,1.1c-0.1,1.2-0.2,1,0.7,0.3c0.9-0.9,1.7-1.1,3-0.1c0.4,0.4,0.9,0.6,1.3,1c1.2,1,2.3,1.5,3.9,1.5
			c1.1,0,1.6,0.4,2.5,0.3c1.2-0.1,2.2,0.4,3,1.6c0.4,0.5,0.9,1,1.5,1.3c1.4,0.7,2-0.1,2.7,1.7c1.2,3.1-1.2,5.6-3.2,7.8
			c-0.8,0.9-0.6,1.5-1.1,2.1c-0.7,0.7-2,0.1-1.7,1.4c0.1,0.5-0.4,0.9-0.4,1.4c0,0.3-0.1,0.5,0,0.7c0,0.7,0.3,1.4-0.3,1.9
			c-0.1,0.6-0.2,1.3-0.3,2c-0.7,1.4-1.3,2.3-1.7,3.1c-0.4,0.5-0.6,0.7-1.1,1.1c-0.7,0.5-0.3,1.2-0.7,1.7c-0.2,0.2-0.4,0.3-0.7,0.5
			c-1,0.7-0.9,0.9-2.2,0.9c-2.5,0-5.9,1.6-7.3,3.8c-0.6,0.9-0.6,1.4-0.7,2.2c-0.1,1.2-0.6,0.9-1.2,1.7c-1.1,1.2-1,2.7-2.2,2.2
			c-0.4-0.1-0.4,0.3-0.9,0.9c-0.4,0.4-0.7,0.7-0.9,1.3c-0.1,0.5-0.1,0.7-0.8,1.2c-0.4,0.4-0.8,0.8-1.2,1.2c-0.8,1.7-2.2,1.5-3.8,1.3
			c-0.4-0.1-1.1-0.4-1.6-0.6c-1.1-0.4-0.9,0.3-0.2,0.7c0.3,0.1,0.4,0.2,0.4,0.4c0.1,0.8-0.6,0.9,0.4,1.7c0.2,0.6,0,1.1-0.6,1.7
			c-0.7,1.1-1.8,1.5-3,1.6c-0.6,0.1-1.4,0-2.1,0c-1.5-0.1-1.1-0.4-1.2,0.9c-0.1,0.3-0.1,0.5-0.4,0.9c0,1.2-0.8,1.4-1.6,1.1
			c-1.7-0.7-1-0.7-1.5,0.4c-0.1,0.4-0.1,0.6-0.1,0.8c0,0.1,0.1,0.6,0.2,0.6c0.1,0,0.2,0,0.3,0.1c0.6,0,0-0.4,0.8-0.4
			c0.3,0,0.3,0,0.2,0.3c-0.2,0.6-0.2,0.4-0.8,0.4c-0.6,0-0.7-0.1-0.7,0.6c0,0.7-0.4,0.6-0.6,1.2c-0.1,0.2-0.1,0.4-0.2,0.7
			c-0.2,0.7-0.7,0.6-1.4,0.7c-0.4,0.2-0.8,0.4-1,0.7c-0.3,0.4-0.3,0.9,0,1.4c0.1,0.1,0.2,0.2,0.4,0.3c0.1,0.1,0.2,0.4,0.4,0.4
			c0.7,0.1,0.7-0.2,0.7,0.5c0,0.8-0.4,0.7-1,1.2c-0.1,0.1-0.3,0.2-0.4,0.3c-0.4,0.2-0.4,0.3-0.7,0.9c-0.1,0.5-0.4,0.9-0.7,1
			c-1.2,0.4-1.2,0.7-0.9,1.8c0.2,0.9-0.1,0.8-0.7,0.9c-0.2,0.1-0.5,0.1-0.8,0.4c-0.3,0.3-0.5,0.7-0.7,1.1c-0.6,0.6,0.1,0.1-1.5,0.4
			c-0.7,0.1-0.7-0.3-0.7-1c-0.1-0.4-0.1-0.5-0.2-0.6c-0.1-0.1-0.1-0.1-0.1-0.3c-0.4-0.9,0.1-0.6-0.8-1.4c-0.6-0.4,0.1-1-0.2-1.4
			c-0.4-0.7-0.3-0.4-0.4-1.2c-0.1-0.2-0.2-0.4-0.2-0.7c-0.1-0.3-0.1-0.6,0.3-0.8c0.6-0.3,0.5-0.2,0.7-0.7c0.4-1.5,0.2-0.4-0.6-1.1
			c-0.2-0.2-0.1-0.6,0.2-0.9c0.5-0.6,0.7-0.6,1.1-0.8c0.1,0,0.1,0,0.3-0.1c0.4-0.1,0.2-0.5,0.4-1.3c-0.1-0.9,0.3-1.4,0.6-2
			c0.3-0.4,0.3-0.9,0.1-1.4c-0.4-0.9-1.4,0-1.2-1.4c0.1-1.2,0.4-1.1,0.7-1.9c0.1-0.4,0.1-0.9,0-1.4c-0.4-1.5-0.2-1.5,0.5-2.8
			c0.2-0.5,0.5-0.9,0.7-1.4c0.1-0.5,0.1-0.9,0.3-1.4c0.5-0.4,0.5-0.6,0.5-1.3c0-0.9,0.4-0.9,0.4-1.7c0-0.8-0.1-0.6-0.4-1.2
			c-0.1-0.3,0-0.6,0.1-0.8c0.4-0.9,0.7-0.6,0.4-1.7c-0.2-0.6,0.2-1.2,0.5-1.8c0.1-0.1,0.1-0.3,0.1-0.4c0.3-1,0.5-1.8,0.7-2.9
			c0.1-0.8,0.2-1.5,0.1-2c-0.1-0.5-0.1-0.9,0-1.2c0.2-0.7,0.5-0.6,0.4-1.4c-0.1-0.5-0.2-1.2,0-1.5c0.4-0.9-0.1-2-0.1-3.1
			c0.1-1-0.4-1.4-1.2-2.1c-0.2-0.1-0.3-0.2-0.5-0.4c-0.9-0.7-1.9-1.5-2.9-2c-0.1-0.1-0.3-0.1-0.4-0.1c-1-0.3-1.2,0.1-2.2-1.2
			c-0.3-0.4-0.6-0.7-0.9-1.1c-0.4-0.6,0.4-0.7-0.1-1.5c-0.2-0.3-0.7-0.7-0.9-0.9c-0.9-1.3-1.6-2.7-2.2-4c-0.9-1.9-1.8-3.7-3.3-4.9
			c-0.6-0.1-0.8-0.4-0.6-0.9c0-0.5-0.2-0.9-0.4-1.2c-0.6-1.1,1-1.6,1.7-1.9c0.5-0.4,0.5-0.8,0-1.2c-0.2-0.1-0.4-0.1-0.7-0.1
			c-1.1-0.4-0.6-1.7-0.1-2.4c0.4-0.4,0.7-1,0.8-1.6c0.1-0.9,0.2-1,0.8-1.2c0.9-0.2,0.8-0.3,1.1-1.2c0-0.8,0.1-0.7,0.7-0.9
			c0.1,0,0.1-0.1,0.2-0.1c1.6-1.4,1.4-2.2,1.2-4.1c0-1-0.2-1.3-0.7-2.2c-0.3-0.5-0.6-0.6-0.7-0.8c-0.1-0.1-0.1-0.1-0.1-0.3
			c-0.1-0.9,0.1-0.7-0.5-1.6c-0.6-0.4-1.3-0.4-1.7,0.4c-0.1,0.1-0.1,0.4-0.2,0.6c-0.7,0.4-0.5,0.1-0.3,1.2c0.1,0.2,0.1,0.4-0.1,0.4
			c-0.9,0.6-0.8-0.5-1.2-0.7c-0.6-0.2-0.4,0.2-1.1-0.5c-0.3-0.3-0.4-0.3-1-0.3h-0.7c-0.2-0.1-0.4-0.2-0.6-0.6
			c-0.4-0.4,0.1-0.8-0.7-0.9c-0.1,0-0.3,0-0.4-0.1c-0.8-0.6-0.2-0.6-1-0.4c-0.4,0.1-0.9-0.3-0.9-0.9c0.2-1.5-0.1-1.3-1.4-2.4
			c-0.5-0.5-0.7-1-0.9-1.5c-0.3-0.7-0.6-0.4-1.2-0.4c-0.4,0.1-1.4-0.1-2-0.6c-1.2-0.8-1.4-0.6-2.2-0.7c-1-0.1-1.7-1.3-2.2-2
			c-0.6-0.9-1.5-1.4-2.6-1.2c-0.9,0.2-1,1-2.1,0.9c-0.7-0.1-1.1-0.9-2.6-1.1c-1.2-0.2-1.8-0.8-2.7-1.2c-1.2-0.4-1.2-1.2-2.2-1.4
			c-2.1-0.5-1.1-0.3-2-1.3c-0.2-0.2-0.4-0.3-0.7-0.4c-0.6-0.4-1.5-1.2-0.9-1.8c0.6-0.7,0.6-1.2,0.4-1.8c-0.3-0.5-0.3-0.9-0.2-1.3
			c0.1-0.5-0.9-1.4-1.2-1.8c-0.6-0.8-1.2-1.5-1.7-2.3c-2.1-0.9,0.2-1.1-0.9-2.2c-0.6,0-0.7-0.3-0.8-0.7c-0.2-0.9,0.1-0.9-0.8-1.6
			c-0.2-0.1-0.4-0.4-0.6-0.9c-0.2-0.5-0.4-1-0.5-1.6c0-0.4-0.1-0.8-0.1-1.2c-0.1-1.2,0.2-1-0.9-1.4c-0.3-0.1-0.4-0.2-0.7-0.2
			c-0.1,0.1-0.1,0.1-0.2,0.1c-0.2,0.1-0.3,0.5-0.3,0.9c0.1,0.9-0.1,1.2,0.2,1.8c0.2,0.2,0.4,0.6,0.5,0.9c0.6,0.7,0.6,0.6,0.6,1.5
			c0,0.8-0.1,0.9,0.4,1.6c1.2,1.5,0.8,1.7,1.2,3c-0.1,0.7,0,1.1-0.4,1.2c-0.5,0.1-0.9-0.1-1.3-0.3c-0.4-0.4-0.1-0.7,0.1-1.2
			c0.6-0.9-0.7-1.7-1.3-2.2c-0.9-0.8-1.4-1.2-0.5-2.1c0.6-0.6,0.2-1.2-0.1-1.7c-0.9-0.9-1.1-0.9-1-1.6c0.1-0.7,0.1-0.9-0.1-1.2
			c-5.9,1.7-11.7,3.7-17.6,6v101.1c7.5,2.9,15,5.4,22.5,7.4c11.5,3,23,5,34.6,5.8c2.3,0.1,4.6,0.3,6.9,0.4c2.1,0.1,4.1,0.1,6.2,0.1
			h1.8c0.4-0.1,0.7-0.2,1.1-0.2c1.5,0.2,0.3-1.1,0.9-1.5c0.1,0,0.2-0.1,0.4-0.1c0.6-0.1,0.6-0.1,0.9,0.4c0.4,0.7,0.7,0.9,1.2,1.3
			h0.7c3.4-0.1,6.7-0.4,10.1-0.7c17.8-1.7,35.6-5.9,53.1-12.8V65.8C209.2,58.9,191.5,54.7,173.7,53 M144.2,74
			c-0.2,0.1-0.4,0.1-0.5,0.2c-0.1,0.1-0.2,0.4-0.5,0.5c-0.7,0.5-0.9-0.2-0.1-0.8c0.2-0.1,0.4-0.3,0.6-0.3
			C144.7,73.3,145.4,73.8,144.2,74 M154.4,77.8c-0.7,0.1-0.7,0-1.3,0.1c-1,0.1-1.2,0.1-1-0.7c0.1-0.7-1.3-0.4-1.6-0.7
			c-0.1-0.1-0.1-0.1,0-0.3v-0.1c-0.4-0.8-0.2-0.5-1.4-0.5c-0.3,0-0.7-0.1-0.9-0.4c-0.5-0.5-0.8-0.8-1.6-0.7
			c-0.7,0.1-1.3-1.2-0.7-1.4c1.2-0.2,0.7,0.4,1.8,0.4c0.7,0,0.9,0.1,1.4,0.6c0.3,0.2,0.6,0.4,1.2,0.4c0.1,0,0.2,0,0.3,0.1
			c0.3,0.1,0.6,0.2,1,0.4c0.2,0.2,0.4,0.3,0.6,0.4c0.4,0.4,0.8,0.7,1.3,0.8c0.8,0.1,0.7,0,1.3,0.5C155.3,77.4,156,77.7,154.4,77.8
			 M157.5,80.3c-0.1,0-0.4,0-0.7-0.1c-0.4,0-0.7-0.1-0.7-0.3c0-0.6,0.2-0.3,0.6-0.3h0.1c0.3,0,0.3-0.1,0.4,0.3
			c0.1,0.1,0.2,0.1,0.5,0.1C158.1,80.1,157.8,80.3,157.5,80.3 M161.9,79.7c-0.9,0-1.1-0.1-1.3,0.3c-0.1,0.1-0.2,0.3-0.3,0.5
			c-0.1,0.2-0.1,0.1-0.6,0c-0.6-0.1-1.1-0.6-1.1-0.9c-0.1-0.2-0.1-0.4-0.1-0.6c-1-2.2-0.4-0.6,1.8-0.9c0.1-0.1,0.2-0.1,0.3-0.1
			c0.6-0.1,0.8-0.2,1.4,0.4c0.1,0.1,0.3,0.3,0.5,0.5C164.1,79.5,162.2,80.1,161.9,79.7 M163.6,79.8c-0.1,0-0.3-0.1-0.3-0.3
			c0-0.2,0.1-0.4,0.3-0.4c0.2,0,0.3,0.1,0.3,0.4C163.9,79.7,163.8,79.8,163.6,79.8 M156.8,165.1L156.8,165.1
			c0.1-0.2,0.1-0.2,0.2-0.5c0-0.4,0.2-0.1,0.1,0.2c-0.1,0.4-0.1,1.3-0.4,1.4c-0.6,0-0.4-0.1-0.3-0.5
			C156.5,165.2,156.4,165.2,156.8,165.1 M109.5,71.9c-0.2,0.1-0.4,0.1-0.4,0.1c0,0-0.1-0.1-0.1-0.1c-0.1-0.7-0.7-0.3-0.6-0.9
			c0.2-0.5,0.4-0.7,0.7-0.5c0.2,0.1,0.4,0.4,0.5,0.6C109.8,71.4,110,71.7,109.5,71.9 M175.3,171.5c-0.4,0.7-0.6,0.5-1.4,0.4h-0.2
			c-0.4,0.1-0.4,0.6-1.2,0.3c-0.4-0.4-0.7-0.6-0.5-1c0.1-0.4,0.2-0.5,0.5-0.4c0.4,0.1,0.8,0.1,1.2,0c0.2-0.1,0.4-0.1,0.6-0.2
			C175.5,170.1,175.5,170.8,175.3,171.5"/>
		<polygon class="st1" points="103.2,207.4 103.2,212.1 92.8,212.1 92.8,218.3 102.3,218.3 102.3,223 92.8,223 92.8,232.9 
			86.6,232.9 86.6,207.4 		"/>
		<polygon class="st1" points="108.5,207.4 114.7,207.4 114.7,228.1 123.5,228.1 123.5,232.9 108.5,232.9 		"/>
		<path class="st1" d="M135.8,207.4h6.6l9.2,25.5h-6.5l-1.7-5.5h-8.6l-1.7,5.5h-6.4L135.8,207.4z M136.1,223h5.8l-1-3.1
			c-0.3-1-0.7-2.1-1-3.2c-0.3-1.1-0.6-2.2-0.9-3.1H139c-0.3,0.9-0.6,2-0.9,3.1c-0.4,1.1-0.7,2.2-1,3.2L136.1,223z"/>
		<path class="st1" d="M167,228.7c1.2,0,2.2-0.1,3.1-0.3c0.8-0.2,1.5-0.5,2.1-0.8l1.2,4.4c-0.5,0.3-1.4,0.6-2.6,1
			c-1.2,0.3-2.7,0.5-4.4,0.5c-2,0-3.8-0.3-5.5-0.9c-1.7-0.6-3.1-1.5-4.3-2.7c-1.2-1.1-2.1-2.5-2.8-4.2c-0.7-1.6-1-3.5-1-5.5
			c0-2,0.3-3.8,1-5.4c0.6-1.6,1.5-3,2.7-4.2c1.2-1.1,2.6-2,4.3-2.7c1.7-0.6,3.6-1,5.7-1c1.8,0,3.2,0.2,4.3,0.5c1.1,0.3,2,0.7,2.7,1
			L172,213c-0.6-0.4-1.3-0.7-2.2-0.9c-0.8-0.3-1.8-0.4-2.8-0.4c-1.1,0-2.1,0.2-3,0.5c-1,0.3-1.8,0.8-2.5,1.5
			c-0.7,0.7-1.3,1.5-1.7,2.6c-0.4,1.1-0.6,2.4-0.6,3.9c0,1.4,0.2,2.7,0.6,3.8c0.4,1.1,0.9,2,1.6,2.7c0.7,0.7,1.5,1.2,2.4,1.6
			C164.8,228.5,165.9,228.7,167,228.7"/>
		<path class="st1" d="M187.4,206.9c1.8,0,3.3,0.2,4.6,0.5c1.3,0.4,2.4,0.8,3.4,1.3l-1.4,4.5c-1.1-0.5-2.1-1-3.2-1.3
			c-1.1-0.3-2.1-0.5-3.1-0.5c-1.2,0-2.2,0.2-2.8,0.7c-0.6,0.5-1,1.1-1,1.8c0,0.9,0.3,1.5,0.9,1.9c0.6,0.4,1.6,0.8,2.9,1.2l2.4,0.8
			c0.9,0.3,1.8,0.7,2.6,1.2c0.8,0.5,1.5,1,2.1,1.6c0.6,0.6,1,1.3,1.3,2.1c0.3,0.8,0.5,1.6,0.5,2.6c0,1.1-0.2,2.1-0.6,3.1
			c-0.4,1-1,1.8-1.8,2.5c-0.8,0.7-1.9,1.3-3.1,1.7c-1.3,0.4-2.7,0.6-4.4,0.6c-1.6,0-3.1-0.2-4.6-0.5c-1.4-0.3-2.8-0.8-4-1.4l1.4-4.5
			c1.2,0.6,2.3,1,3.4,1.3c1.1,0.3,2.3,0.5,3.5,0.5c1.4,0,2.5-0.2,3.1-0.7c0.6-0.5,0.9-1.1,0.9-1.9c0-0.3-0.1-0.5-0.2-0.8
			c-0.1-0.3-0.3-0.5-0.6-0.8c-0.3-0.3-0.7-0.5-1.3-0.8c-0.5-0.3-1.3-0.5-2.1-0.8l-2-0.7c-0.9-0.4-1.8-0.7-2.6-1.2
			c-0.8-0.4-1.5-0.9-2.1-1.5c-0.6-0.6-1-1.3-1.4-2.1c-0.3-0.8-0.5-1.7-0.5-2.8c0-1.1,0.2-2.1,0.6-3.1c0.4-0.9,1-1.8,1.9-2.4
			c0.8-0.7,1.8-1.2,3-1.6C184.4,207.1,185.8,206.9,187.4,206.9"/>
		<path class="st1" d="M214.3,206.9c1.8,0,3.5,0.3,5.1,0.9c1.6,0.6,2.9,1.5,4,2.6c1.1,1.1,2,2.5,2.6,4.2c0.6,1.7,1,3.5,1,5.6
			c0,2-0.3,3.8-1,5.5c-0.7,1.6-1.6,3-2.7,4.1c-1.2,1.1-2.5,2-4.1,2.6c-1.6,0.6-3.3,0.9-5.1,0.9c-1.8,0-3.5-0.3-5.1-0.9
			c-1.6-0.6-2.9-1.4-4-2.6c-1.1-1.1-2-2.5-2.7-4.1c-0.6-1.6-0.9-3.5-0.9-5.6c0-2,0.3-3.9,1-5.5c0.7-1.6,1.6-3,2.7-4.2
			c1.2-1.2,2.5-2,4.1-2.7C210.7,207.2,212.4,206.9,214.3,206.9 M207.8,220.2c0,1.4,0.2,2.7,0.5,3.8c0.3,1.1,0.8,2,1.4,2.7
			c0.6,0.7,1.3,1.2,2,1.6c0.8,0.4,1.6,0.5,2.5,0.5c0.9,0,1.7-0.2,2.4-0.5c0.8-0.3,1.4-0.9,2-1.6c0.6-0.7,1-1.6,1.3-2.7
			c0.3-1.1,0.5-2.3,0.5-3.8c0-1.5-0.2-2.8-0.5-3.9c-0.3-1.1-0.8-2-1.4-2.7c-0.6-0.7-1.3-1.2-2-1.6c-0.8-0.4-1.6-0.5-2.5-0.5
			c-0.9,0-1.7,0.2-2.4,0.5c-0.8,0.4-1.4,0.9-2,1.6c-0.6,0.7-1,1.6-1.3,2.7C208,217.5,207.8,218.8,207.8,220.2"/>
		<path class="st1" d="M91.9,247.3h1.5l5.4,13.9H97l-1.5-4h-5.9l-1.5,4h-1.6L91.9,247.3z M90,255.9h5l-1.1-3
			c-0.2-0.5-0.4-1.1-0.6-1.8c-0.2-0.7-0.5-1.4-0.7-2.1h0c-0.1,0.4-0.2,0.7-0.3,1.1c-0.1,0.3-0.2,0.7-0.3,1c-0.1,0.3-0.2,0.6-0.3,0.9
			c-0.1,0.3-0.2,0.6-0.4,0.9L90,255.9z"/>
		<path class="st1" d="M105.1,247.3h4.3c0.7,0,1.4,0.1,1.9,0.3c0.5,0.2,1,0.5,1.4,0.8c0.4,0.3,0.6,0.8,0.8,1.3
			c0.2,0.5,0.3,1,0.3,1.6c0,0.5-0.1,1-0.3,1.4c-0.2,0.4-0.4,0.8-0.6,1.1c-0.3,0.3-0.6,0.6-0.9,0.8c-0.4,0.2-0.7,0.4-1.1,0.5l3.8,5.9
			h-1.8l-3.4-5.7h-2.8v5.7h-1.5V247.3z M106.6,254.2h2.1c0.5,0,0.9-0.1,1.3-0.2c0.4-0.1,0.8-0.3,1.1-0.5c0.3-0.2,0.6-0.5,0.7-0.9
			c0.2-0.4,0.3-0.8,0.3-1.3c0-1-0.3-1.7-0.8-2.1c-0.5-0.4-1.4-0.7-2.4-0.7h-2.3V254.2z"/>
		<path class="st1" d="M127.1,247.3c0.8,0,1.5,0.1,2.1,0.2c0.6,0.1,1.2,0.3,1.8,0.6l-0.4,1.2c-0.5-0.2-1-0.4-1.6-0.6
			c-0.5-0.1-1.1-0.2-1.7-0.2c-0.7,0-1.4,0.1-2,0.3c-0.6,0.2-1.2,0.5-1.7,1c-0.5,0.4-0.9,1-1.2,1.8c-0.3,0.7-0.4,1.6-0.4,2.7
			c0,0.9,0.1,1.7,0.4,2.4c0.3,0.7,0.6,1.3,1.1,1.8c0.5,0.5,1,0.8,1.6,1.1c0.6,0.2,1.3,0.4,2.1,0.4c0.6,0,1,0,1.5-0.1
			c0.4-0.1,0.8-0.2,1.1-0.3v-4.4H127v-1.2h4.3v6.6c-0.5,0.2-1.1,0.4-1.8,0.5c-0.6,0.1-1.4,0.2-2.3,0.2c-0.9,0-1.8-0.1-2.6-0.5
			c-0.8-0.3-1.5-0.7-2.2-1.3c-0.6-0.6-1.1-1.3-1.5-2.2c-0.4-0.9-0.5-1.8-0.5-3c0-1.1,0.2-2.1,0.5-3c0.3-0.9,0.8-1.6,1.4-2.2
			c0.6-0.6,1.3-1,2.1-1.3C125.2,247.4,126.1,247.3,127.1,247.3"/>
		<polygon class="st1" points="138.7,247.3 146.9,247.3 146.9,248.6 140.3,248.6 140.3,253.3 146.3,253.3 146.3,254.6 140.3,254.6 
			140.3,259.8 146.9,259.8 146.9,261.1 138.7,261.1 		"/>
		<path class="st1" d="M154,247.3h1.4l6.2,8.9c0.3,0.4,0.6,0.8,0.8,1.2c0.3,0.4,0.5,0.8,0.8,1.2h0c0-0.5,0-1.1-0.1-1.6
			c0-0.5,0-1.1,0-1.6v-8.2h1.5v13.9h-1.4l-6-8.7c-0.3-0.4-0.6-0.9-0.9-1.4c-0.3-0.5-0.6-1-0.8-1.5h0c0,0.7,0,1.3,0.1,1.9
			c0,0.6,0,1.3,0,1.9v7.7H154V247.3z"/>
		<polygon class="st1" points="181.7,247.3 181.7,248.6 177.1,248.6 177.1,261.1 175.5,261.1 175.5,248.6 171.1,248.6 171.1,247.3 
					"/>
		<rect x="188" y="247.3" class="st1" width="1.6" height="13.9"/>
		<path class="st1" d="M197.5,247.3h1.4l6.2,8.9c0.3,0.4,0.6,0.8,0.8,1.2c0.3,0.4,0.5,0.8,0.8,1.2h0c0-0.5,0-1.1,0-1.6
			c0-0.5,0-1.1,0-1.6v-8.2h1.5v13.9h-1.4l-6-8.7c-0.3-0.4-0.6-0.9-0.9-1.4c-0.3-0.5-0.6-1-0.8-1.5h0c0,0.7,0,1.3,0.1,1.9
			c0,0.6,0,1.3,0,1.9v7.7h-1.5V247.3z"/>
		<path class="st1" d="M220.1,247.3h1.5l5.4,13.9h-1.7l-1.5-4h-5.9l-1.5,4h-1.6L220.1,247.3z M218.2,255.9h5l-1.1-3
			c-0.2-0.5-0.4-1.1-0.6-1.8c-0.2-0.7-0.5-1.4-0.7-2.1h0c-0.1,0.4-0.2,0.7-0.4,1.1c-0.1,0.3-0.2,0.7-0.3,1c-0.1,0.3-0.2,0.6-0.3,0.9
			c-0.1,0.3-0.2,0.6-0.4,0.9L218.2,255.9z"/>
	</g>
	<g>
		<path class="st1" d="M380.8,115.1h-6.4v8.4h-2.4v-19h9.9v2.1h-7.5v6.5h6.4V115.1z"/>
		<path class="st1" d="M391.3,123.5c-0.1-0.3-0.2-0.8-0.3-1.5c-0.8,1.2-1.9,1.8-3.1,1.8c-1.3,0-2.3-0.4-3-1.1s-1.1-1.7-1.1-3
			c0-1.4,0.5-2.6,1.5-3.4c1-0.8,2.3-1.3,4-1.3h1.7v-1.5c0-0.8-0.2-1.4-0.6-1.8c-0.4-0.4-0.9-0.5-1.7-0.5c-0.7,0-1.3,0.2-1.7,0.6
			c-0.4,0.4-0.7,0.9-0.7,1.6H384c0-0.7,0.2-1.4,0.6-2.1s1-1.2,1.7-1.5c0.7-0.4,1.5-0.6,2.4-0.6c1.4,0,2.5,0.4,3.3,1.1
			s1.1,1.8,1.2,3.1v7.1c0,1.1,0.2,2,0.4,2.8v0.2H391.3z M388.2,121.6c0.6,0,1.1-0.2,1.6-0.5s0.9-0.7,1.1-1.2v-3.4h-1.3
			c-1.1,0-2,0.3-2.6,0.7s-1,1.1-1,2c0,0.8,0.2,1.4,0.5,1.7S387.5,121.6,388.2,121.6z"/>
		<path class="st1" d="M401.8,121.8c0.8,0,1.4-0.2,1.8-0.7c0.5-0.5,0.7-1.2,0.8-2h2.2c-0.1,1.4-0.5,2.5-1.4,3.4
			c-0.9,0.9-2,1.3-3.3,1.3c-1.8,0-3.1-0.6-4-1.7c-0.9-1.1-1.4-2.7-1.4-4.9v-1.6c0-2.1,0.5-3.8,1.4-4.9c0.9-1.1,2.2-1.7,4-1.7
			c1.4,0,2.6,0.5,3.4,1.4c0.8,0.9,1.3,2.2,1.4,3.7h-2.2c-0.1-1-0.3-1.8-0.8-2.4c-0.4-0.5-1.1-0.8-1.9-0.8c-1,0-1.8,0.3-2.3,1
			c-0.5,0.7-0.8,1.8-0.8,3.3v1.8c0,1.7,0.2,2.8,0.7,3.5C399.9,121.4,400.7,121.8,401.8,121.8z"/>
		<path class="st1" d="M416.4,122.2c-0.8,1-1.9,1.5-3.4,1.5c-1.3,0-2.2-0.4-2.9-1.3c-0.7-0.9-1-2.2-1-3.9v-9.2h2.3v9
			c0,2.2,0.7,3.3,2,3.3c1.4,0,2.4-0.6,2.9-1.9v-10.5h2.3v14.1h-2.2L416.4,122.2z"/>
		<path class="st1" d="M424.6,123.5h-2.3v-20.1h2.3V123.5z"/>
		<path class="st1" d="M431.3,105.9v3.4h2.1v1.9h-2.1v8.8c0,0.6,0.1,1,0.3,1.3c0.2,0.3,0.5,0.4,0.9,0.4c0.3,0,0.6-0.1,0.9-0.2l0,1.9
			c-0.5,0.2-1.1,0.3-1.6,0.3c-0.9,0-1.6-0.3-2.1-1c-0.5-0.7-0.7-1.6-0.7-2.8v-8.8h-2.2v-1.9h2.2v-3.4H431.3z"/>
		<path class="st1" d="M443.4,123.5c-0.1-0.3-0.2-0.8-0.3-1.5c-0.8,1.2-1.9,1.8-3.1,1.8c-1.3,0-2.3-0.4-3-1.1s-1.1-1.7-1.1-3
			c0-1.4,0.5-2.6,1.5-3.4c1-0.8,2.3-1.3,4-1.3h1.7v-1.5c0-0.8-0.2-1.4-0.6-1.8c-0.4-0.4-0.9-0.5-1.7-0.5c-0.7,0-1.3,0.2-1.7,0.6
			c-0.4,0.4-0.7,0.9-0.7,1.6h-2.3c0-0.7,0.2-1.4,0.6-2.1s1-1.2,1.7-1.5c0.7-0.4,1.5-0.6,2.4-0.6c1.4,0,2.5,0.4,3.3,1.1
			s1.1,1.8,1.2,3.1v7.1c0,1.1,0.2,2,0.4,2.8v0.2H443.4z M440.4,121.6c0.6,0,1.1-0.2,1.6-0.5s0.9-0.7,1.1-1.2v-3.4h-1.3
			c-1.1,0-2,0.3-2.6,0.7s-1,1.1-1,2c0,0.8,0.2,1.4,0.5,1.7S439.6,121.6,440.4,121.6z"/>
		<path class="st1" d="M448.5,115.8c0-2.2,0.4-3.8,1.2-5c0.8-1.1,2-1.7,3.5-1.7c1.3,0,2.4,0.5,3.2,1.6v-7.3h2.3v20.1h-2.1l-0.1-1.5
			c-0.8,1.2-1.8,1.8-3.3,1.8c-1.5,0-2.6-0.6-3.4-1.7s-1.3-2.7-1.3-4.8V115.8z M450.8,117.1c0,1.6,0.2,2.7,0.7,3.5s1.2,1.1,2.3,1.1
			c1.1,0,2-0.6,2.6-1.7v-7.1c-0.6-1.1-1.4-1.7-2.6-1.7c-1.1,0-1.8,0.4-2.3,1.1c-0.5,0.7-0.7,1.9-0.7,3.4V117.1z"/>
	</g>
	<g>
		<path class="st1" d="M374.3,149.9h7.5v2.1h-9.9v-19h2.4V149.9z"/>
		<path class="st1" d="M391.6,152c-0.1-0.3-0.2-0.8-0.3-1.5c-0.8,1.2-1.9,1.8-3.1,1.8c-1.3,0-2.3-0.4-3-1.1s-1.1-1.7-1.1-3
			c0-1.4,0.5-2.6,1.5-3.4c1-0.8,2.3-1.3,4-1.3h1.7v-1.5c0-0.8-0.2-1.4-0.6-1.8c-0.4-0.4-0.9-0.5-1.7-0.5c-0.7,0-1.3,0.2-1.7,0.6
			c-0.4,0.4-0.7,0.9-0.7,1.6h-2.3c0-0.7,0.2-1.4,0.6-2.1s1-1.2,1.7-1.5c0.7-0.4,1.5-0.6,2.4-0.6c1.4,0,2.5,0.4,3.3,1.1
			s1.1,1.8,1.2,3.1v7.1c0,1.1,0.2,2,0.4,2.8v0.2H391.6z M388.5,150.2c0.6,0,1.1-0.2,1.6-0.5s0.9-0.7,1.1-1.2v-3.4h-1.3
			c-1.1,0-2,0.3-2.6,0.7s-1,1.1-1,2c0,0.8,0.2,1.4,0.5,1.7S387.7,150.2,388.5,150.2z"/>
		<path class="st1" d="M400.2,134.4v3.4h2.1v1.9h-2.1v8.8c0,0.6,0.1,1,0.3,1.3c0.2,0.3,0.5,0.4,0.9,0.4c0.3,0,0.6-0.1,0.9-0.2l0,1.9
			c-0.5,0.2-1.1,0.3-1.6,0.3c-0.9,0-1.6-0.3-2.1-1c-0.5-0.7-0.7-1.6-0.7-2.8v-8.8h-2.2v-1.9h2.2v-3.4H400.2z"/>
		<path class="st1" d="M407.7,134.1c0,0.4-0.1,0.7-0.3,1s-0.5,0.4-1,0.4c-0.4,0-0.8-0.1-1-0.4s-0.3-0.6-0.3-1c0-0.4,0.1-0.7,0.3-1
			c0.2-0.3,0.5-0.4,1-0.4c0.4,0,0.8,0.1,1,0.4S407.7,133.7,407.7,134.1z M407.5,152h-2.3v-14.1h2.3V152z"/>
		<path class="st1" d="M413.3,137.9l0.1,1.5c0.9-1.2,2-1.8,3.4-1.8c2.5,0,3.8,1.7,3.8,5v9.4h-2.3v-9.3c0-1.1-0.2-1.9-0.6-2.4
			c-0.4-0.5-0.9-0.7-1.7-0.7c-0.6,0-1.1,0.2-1.5,0.6c-0.5,0.4-0.8,0.9-1.1,1.5V152h-2.3v-14.1H413.3z"/>
		<path class="st1" d="M423.6,144.3c0-2.1,0.5-3.7,1.5-4.9c1-1.2,2.3-1.8,4-1.8c1.6,0,3,0.6,4,1.8c1,1.2,1.5,2.8,1.5,4.8v1.5
			c0,2-0.5,3.7-1.5,4.9c-1,1.2-2.3,1.8-4,1.8c-1.6,0-2.9-0.6-3.9-1.7c-1-1.2-1.5-2.7-1.5-4.7V144.3z M425.9,145.6
			c0,1.5,0.3,2.6,0.9,3.4s1.3,1.2,2.3,1.2c2,0,3.1-1.5,3.1-4.4v-1.6c0-1.4-0.3-2.6-0.9-3.4s-1.3-1.3-2.3-1.3c-0.9,0-1.7,0.4-2.3,1.3
			s-0.9,2-0.9,3.4V145.6z"/>
		<path class="st1" d="M444.8,152c-0.1-0.3-0.2-0.8-0.3-1.5c-0.8,1.2-1.9,1.8-3.1,1.8c-1.3,0-2.3-0.4-3-1.1s-1.1-1.7-1.1-3
			c0-1.4,0.5-2.6,1.5-3.4c1-0.8,2.3-1.3,4-1.3h1.7v-1.5c0-0.8-0.2-1.4-0.6-1.8c-0.4-0.4-0.9-0.5-1.7-0.5c-0.7,0-1.3,0.2-1.7,0.6
			c-0.4,0.4-0.7,0.9-0.7,1.6h-2.3c0-0.7,0.2-1.4,0.6-2.1s1-1.2,1.7-1.5c0.7-0.4,1.5-0.6,2.4-0.6c1.4,0,2.5,0.4,3.3,1.1
			s1.1,1.8,1.2,3.1v7.1c0,1.1,0.2,2,0.4,2.8v0.2H444.8z M441.7,150.2c0.6,0,1.1-0.2,1.6-0.5s0.9-0.7,1.1-1.2v-3.4h-1.3
			c-1.1,0-2,0.3-2.6,0.7s-1,1.1-1,2c0,0.8,0.2,1.4,0.5,1.7S441,150.2,441.7,150.2z"/>
		<path class="st1" d="M452.5,137.9l0.1,1.3c0.9-1,2-1.6,3.4-1.6c1.6,0,2.7,0.7,3.3,2.1c0.9-1.4,2.1-2.1,3.7-2.1
			c2.6,0,3.9,1.6,4,4.9v9.5h-2.3v-9.3c0-1-0.2-1.8-0.5-2.3c-0.4-0.5-1-0.8-1.9-0.8c-0.7,0-1.3,0.3-1.7,0.8c-0.4,0.5-0.7,1.2-0.8,2.1
			v9.5h-2.3v-9.4c0-2-0.8-2.9-2.4-2.9c-1.2,0-2,0.6-2.5,1.8V152h-2.3v-14.1H452.5z"/>
		<path class="st1" d="M475.5,152.3c-1.8,0-3.1-0.5-4-1.6s-1.4-2.6-1.4-4.6v-1.7c0-2.1,0.5-3.8,1.4-5c0.9-1.2,2.2-1.8,3.8-1.8
			c1.7,0,2.9,0.5,3.7,1.6c0.8,1.1,1.2,2.7,1.3,4.9v1.5h-7.9v0.3c0,1.5,0.3,2.6,0.9,3.3c0.6,0.7,1.4,1,2.5,1c0.7,0,1.3-0.1,1.8-0.4
			s1-0.7,1.5-1.2l1.2,1.5C479.1,151.6,477.6,152.3,475.5,152.3z M475.3,139.6c-1,0-1.7,0.3-2.1,1c-0.5,0.7-0.7,1.7-0.8,3.1h5.6v-0.3
			c-0.1-1.3-0.3-2.3-0.7-2.9S476.1,139.6,475.3,139.6z"/>
		<path class="st1" d="M488.8,140c-0.3-0.1-0.7-0.1-1-0.1c-1.2,0-2,0.6-2.5,1.9V152H483v-14.1h2.2l0,1.4c0.6-1.1,1.5-1.7,2.6-1.7
			c0.4,0,0.7,0.1,0.9,0.2L488.8,140z"/>
		<path class="st1" d="M493.8,134.1c0,0.4-0.1,0.7-0.3,1s-0.5,0.4-1,0.4c-0.4,0-0.8-0.1-1-0.4s-0.3-0.6-0.3-1c0-0.4,0.1-0.7,0.3-1
			c0.2-0.3,0.5-0.4,1-0.4c0.4,0,0.8,0.1,1,0.4S493.8,133.7,493.8,134.1z M493.6,152h-2.3v-14.1h2.3V152z"/>
		<path class="st1" d="M502.2,150.3c0.8,0,1.4-0.2,1.8-0.7c0.5-0.5,0.7-1.2,0.8-2h2.2c-0.1,1.4-0.5,2.5-1.4,3.4
			c-0.9,0.9-2,1.3-3.3,1.3c-1.8,0-3.1-0.6-4-1.7c-0.9-1.1-1.4-2.7-1.4-4.9v-1.6c0-2.1,0.5-3.8,1.4-4.9c0.9-1.1,2.2-1.7,4-1.7
			c1.4,0,2.6,0.5,3.4,1.4c0.8,0.9,1.3,2.2,1.4,3.7h-2.2c-0.1-1-0.3-1.8-0.8-2.4c-0.4-0.5-1.1-0.8-1.9-0.8c-1,0-1.8,0.3-2.3,1
			c-0.5,0.7-0.8,1.8-0.8,3.3v1.8c0,1.7,0.2,2.8,0.7,3.5C500.3,149.9,501.1,150.3,502.2,150.3z"/>
		<path class="st1" d="M516.9,152c-0.1-0.3-0.2-0.8-0.3-1.5c-0.8,1.2-1.9,1.8-3.1,1.8c-1.3,0-2.3-0.4-3-1.1s-1.1-1.7-1.1-3
			c0-1.4,0.5-2.6,1.5-3.4c1-0.8,2.3-1.3,4-1.3h1.7v-1.5c0-0.8-0.2-1.4-0.6-1.8c-0.4-0.4-0.9-0.5-1.7-0.5c-0.7,0-1.3,0.2-1.7,0.6
			c-0.4,0.4-0.7,0.9-0.7,1.6h-2.3c0-0.7,0.2-1.4,0.6-2.1s1-1.2,1.7-1.5c0.7-0.4,1.5-0.6,2.4-0.6c1.4,0,2.5,0.4,3.3,1.1
			s1.1,1.8,1.2,3.1v7.1c0,1.1,0.2,2,0.4,2.8v0.2H516.9z M513.8,150.2c0.6,0,1.1-0.2,1.6-0.5s0.9-0.7,1.1-1.2v-3.4h-1.3
			c-1.1,0-2,0.3-2.6,0.7s-1,1.1-1,2c0,0.8,0.2,1.4,0.5,1.7S513,150.2,513.8,150.2z"/>
		<path class="st1" d="M524.6,137.9l0.1,1.5c0.9-1.2,2-1.8,3.4-1.8c2.5,0,3.8,1.7,3.8,5v9.4h-2.3v-9.3c0-1.1-0.2-1.9-0.6-2.4
			c-0.4-0.5-0.9-0.7-1.7-0.7c-0.6,0-1.1,0.2-1.5,0.6c-0.5,0.4-0.8,0.9-1.1,1.5V152h-2.3v-14.1H524.6z"/>
		<path class="st1" d="M542.6,152c-0.1-0.3-0.2-0.8-0.3-1.5c-0.8,1.2-1.9,1.8-3.1,1.8c-1.3,0-2.3-0.4-3-1.1s-1.1-1.7-1.1-3
			c0-1.4,0.5-2.6,1.5-3.4c1-0.8,2.3-1.3,4-1.3h1.7v-1.5c0-0.8-0.2-1.4-0.6-1.8c-0.4-0.4-0.9-0.5-1.7-0.5c-0.7,0-1.3,0.2-1.7,0.6
			c-0.4,0.4-0.7,0.9-0.7,1.6h-2.3c0-0.7,0.2-1.4,0.6-2.1s1-1.2,1.7-1.5c0.7-0.4,1.5-0.6,2.4-0.6c1.4,0,2.5,0.4,3.3,1.1
			c0.8,0.7,1.1,1.8,1.2,3.1v7.1c0,1.1,0.2,2,0.4,2.8v0.2H542.6z M539.6,150.2c0.6,0,1.1-0.2,1.6-0.5s0.9-0.7,1.1-1.2v-3.4H541
			c-1.1,0-2,0.3-2.6,0.7s-1,1.1-1,2c0,0.8,0.2,1.4,0.5,1.7S538.8,150.2,539.6,150.2z"/>
		<path class="st1" d="M553.8,144.3c0-2.2,0.4-3.8,1.2-5s2-1.7,3.5-1.7c1.3,0,2.4,0.5,3.2,1.6v-7.3h2.3V152h-2.1l-0.1-1.5
			c-0.8,1.2-1.8,1.8-3.3,1.8c-1.5,0-2.6-0.6-3.4-1.7c-0.8-1.1-1.3-2.7-1.3-4.8V144.3z M556.1,145.6c0,1.6,0.2,2.7,0.7,3.5
			c0.5,0.7,1.2,1.1,2.3,1.1c1.1,0,2-0.6,2.6-1.7v-7.1c-0.6-1.1-1.4-1.7-2.6-1.7c-1.1,0-1.8,0.4-2.3,1.1c-0.5,0.7-0.7,1.9-0.7,3.4
			V145.6z"/>
		<path class="st1" d="M572.6,152.3c-1.8,0-3.1-0.5-4-1.6s-1.4-2.6-1.4-4.6v-1.7c0-2.1,0.5-3.8,1.4-5s2.2-1.8,3.8-1.8
			c1.7,0,2.9,0.5,3.7,1.6c0.8,1.1,1.2,2.7,1.3,4.9v1.5h-7.9v0.3c0,1.5,0.3,2.6,0.9,3.3c0.6,0.7,1.4,1,2.5,1c0.7,0,1.3-0.1,1.8-0.4
			c0.5-0.3,1-0.7,1.5-1.2l1.2,1.5C576.2,151.6,574.7,152.3,572.6,152.3z M572.4,139.6c-1,0-1.7,0.3-2.1,1c-0.5,0.7-0.7,1.7-0.8,3.1
			h5.6v-0.3c-0.1-1.3-0.3-2.3-0.7-2.9C573.9,139.9,573.2,139.6,572.4,139.6z"/>
	</g>
	<g>
		<path class="st1" d="M383.9,174.5c-0.1,2-0.7,3.6-1.7,4.7c-1,1.1-2.5,1.6-4.4,1.6c-1.9,0-3.4-0.7-4.5-2.2s-1.7-3.4-1.7-5.9v-3.4
			c0-2.5,0.6-4.4,1.7-5.9c1.2-1.4,2.7-2.2,4.7-2.2c1.8,0,3.3,0.5,4.3,1.6c1,1.1,1.6,2.7,1.6,4.7h-2.4c-0.1-1.5-0.4-2.7-1-3.3
			c-0.5-0.7-1.4-1-2.5-1c-1.3,0-2.3,0.5-3,1.5c-0.7,1-1,2.5-1,4.5v3.5c0,1.9,0.3,3.4,1,4.4c0.6,1,1.6,1.5,2.8,1.5s2.1-0.3,2.7-0.9
			c0.5-0.6,0.9-1.7,1-3.3H383.9z"/>
		<path class="st1" d="M389.5,162.6c0,0.4-0.1,0.7-0.3,1s-0.5,0.4-1,0.4c-0.4,0-0.8-0.1-1-0.4s-0.3-0.6-0.3-1c0-0.4,0.1-0.7,0.3-1
			c0.2-0.3,0.5-0.4,1-0.4c0.4,0,0.8,0.1,1,0.4S389.5,162.2,389.5,162.6z M389.3,180.5H387v-14.1h2.3V180.5z"/>
		<path class="st1" d="M398,180.8c-1.8,0-3.1-0.5-4-1.6s-1.4-2.6-1.4-4.6v-1.7c0-2.1,0.5-3.8,1.4-5c0.9-1.2,2.2-1.8,3.8-1.8
			c1.7,0,2.9,0.5,3.7,1.6c0.8,1.1,1.2,2.7,1.3,4.9v1.5h-7.9v0.3c0,1.5,0.3,2.6,0.9,3.3c0.6,0.7,1.4,1,2.5,1c0.7,0,1.3-0.1,1.8-0.4
			s1-0.7,1.5-1.2l1.2,1.5C401.5,180.1,400,180.8,398,180.8z M397.7,168.1c-1,0-1.7,0.3-2.1,1c-0.5,0.7-0.7,1.7-0.8,3.1h5.6v-0.3
			c-0.1-1.3-0.3-2.3-0.7-2.9S398.6,168.1,397.7,168.1z"/>
		<path class="st1" d="M407.6,166.4l0.1,1.5c0.9-1.2,2-1.8,3.4-1.8c2.5,0,3.8,1.7,3.8,5v9.4h-2.3v-9.3c0-1.1-0.2-1.9-0.6-2.4
			c-0.4-0.5-0.9-0.7-1.7-0.7c-0.6,0-1.1,0.2-1.5,0.6c-0.5,0.4-0.8,0.9-1.1,1.5v10.3h-2.3v-14.1H407.6z"/>
		<path class="st1" d="M423.3,178.8c0.8,0,1.4-0.2,1.8-0.7c0.5-0.5,0.7-1.2,0.8-2h2.2c-0.1,1.4-0.5,2.5-1.4,3.4
			c-0.9,0.9-2,1.3-3.3,1.3c-1.8,0-3.1-0.6-4-1.7c-0.9-1.1-1.4-2.7-1.4-4.9v-1.6c0-2.1,0.5-3.8,1.4-4.9c0.9-1.1,2.2-1.7,4-1.7
			c1.4,0,2.6,0.5,3.4,1.4c0.8,0.9,1.3,2.2,1.4,3.7h-2.2c-0.1-1-0.3-1.8-0.8-2.4c-0.4-0.5-1.1-0.8-1.9-0.8c-1,0-1.8,0.3-2.3,1
			c-0.5,0.7-0.8,1.8-0.8,3.3v1.8c0,1.7,0.2,2.8,0.7,3.5C421.4,178.5,422.2,178.8,423.3,178.8z"/>
		<path class="st1" d="M433.4,162.6c0,0.4-0.1,0.7-0.3,1s-0.5,0.4-1,0.4c-0.4,0-0.8-0.1-1-0.4s-0.3-0.6-0.3-1c0-0.4,0.1-0.7,0.3-1
			c0.2-0.3,0.5-0.4,1-0.4c0.4,0,0.8,0.1,1,0.4S433.4,162.2,433.4,162.6z M433.2,180.5h-2.3v-14.1h2.3V180.5z"/>
		<path class="st1" d="M444.1,180.5c-0.1-0.3-0.2-0.8-0.3-1.5c-0.8,1.2-1.9,1.8-3.1,1.8c-1.3,0-2.3-0.4-3-1.1s-1.1-1.7-1.1-3
			c0-1.4,0.5-2.6,1.5-3.4c1-0.8,2.3-1.3,4-1.3h1.7v-1.5c0-0.8-0.2-1.4-0.6-1.8c-0.4-0.4-0.9-0.5-1.7-0.5c-0.7,0-1.3,0.2-1.7,0.6
			c-0.4,0.4-0.7,0.9-0.7,1.6h-2.3c0-0.7,0.2-1.4,0.6-2.1s1-1.2,1.7-1.5c0.7-0.4,1.5-0.6,2.4-0.6c1.4,0,2.5,0.4,3.3,1.1
			s1.1,1.8,1.2,3.1v7.1c0,1.1,0.2,2,0.4,2.8v0.2H444.1z M441,178.7c0.6,0,1.1-0.2,1.6-0.5s0.9-0.7,1.1-1.2v-3.4h-1.3
			c-1.1,0-2,0.3-2.6,0.7s-1,1.1-1,2c0,0.8,0.2,1.4,0.5,1.7S440.3,178.7,441,178.7z"/>
		<path class="st1" d="M456.5,176.9c0-0.5-0.2-0.9-0.6-1.3c-0.4-0.4-1.1-0.8-2.2-1.3c-1.2-0.5-2.1-1-2.6-1.3s-0.9-0.8-1.1-1.2
			c-0.3-0.5-0.4-1-0.4-1.7c0-1.1,0.4-2.1,1.3-2.9c0.8-0.8,1.9-1.1,3.2-1.1c1.4,0,2.5,0.4,3.3,1.2c0.8,0.8,1.3,1.8,1.3,3.1h-2.3
			c0-0.6-0.2-1.2-0.6-1.6c-0.4-0.4-1-0.7-1.6-0.7c-0.7,0-1.2,0.2-1.6,0.5c-0.4,0.4-0.6,0.8-0.6,1.4c0,0.5,0.1,0.8,0.4,1.1
			c0.3,0.3,1,0.7,2,1.1c1.7,0.7,2.9,1.3,3.5,2c0.6,0.6,0.9,1.5,0.9,2.4c0,1.2-0.4,2.2-1.3,2.9c-0.8,0.7-2,1.1-3.4,1.1
			c-1.5,0-2.7-0.4-3.6-1.3c-0.9-0.8-1.4-1.9-1.4-3.2h2.3c0,0.8,0.3,1.4,0.7,1.8c0.5,0.4,1.1,0.7,1.9,0.7c0.8,0,1.3-0.2,1.8-0.5
			C456.3,177.9,456.5,177.5,456.5,176.9z"/>
		<path class="st1" d="M476.6,175.7c0-0.9-0.3-1.7-0.8-2.2c-0.5-0.5-1.4-1-2.8-1.5c-1.3-0.5-2.4-1-3.1-1.5c-0.7-0.5-1.2-1.1-1.6-1.8
			s-0.5-1.4-0.5-2.3c0-1.5,0.5-2.7,1.5-3.7c1-1,2.3-1.5,4-1.5c1.1,0,2.1,0.2,3,0.7s1.5,1.2,2,2.1c0.5,0.9,0.7,1.9,0.7,2.9h-2.4
			c0-1.2-0.3-2.1-0.8-2.7c-0.6-0.6-1.4-1-2.4-1c-1,0-1.7,0.3-2.2,0.8c-0.5,0.5-0.8,1.3-0.8,2.3c0,0.8,0.3,1.5,0.9,2
			c0.6,0.5,1.5,1,2.7,1.5c1.9,0.6,3.2,1.4,4,2.3c0.8,0.9,1.2,2.1,1.2,3.6c0,1.5-0.5,2.8-1.5,3.7c-1,0.9-2.4,1.4-4.1,1.4
			c-1.1,0-2.1-0.2-3.1-0.7c-0.9-0.5-1.7-1.2-2.2-2c-0.5-0.9-0.8-1.9-0.8-3h2.4c0,1.2,0.3,2.1,1,2.7c0.7,0.7,1.6,1,2.7,1
			c1.1,0,1.8-0.3,2.4-0.8C476.3,177.4,476.6,176.6,476.6,175.7z"/>
		<path class="st1" d="M481.3,172.8c0-2.1,0.5-3.7,1.5-4.9c1-1.2,2.3-1.8,4-1.8c1.6,0,3,0.6,4,1.8c1,1.2,1.5,2.8,1.5,4.8v1.5
			c0,2-0.5,3.7-1.5,4.9c-1,1.2-2.3,1.8-4,1.8c-1.6,0-2.9-0.6-3.9-1.7c-1-1.2-1.5-2.7-1.5-4.7V172.8z M483.7,174.1
			c0,1.5,0.3,2.6,0.9,3.4s1.3,1.2,2.3,1.2c2,0,3.1-1.5,3.1-4.4v-1.6c0-1.4-0.3-2.6-0.9-3.4s-1.3-1.3-2.3-1.3c-0.9,0-1.7,0.4-2.3,1.3
			s-0.9,2-0.9,3.4V174.1z"/>
		<path class="st1" d="M500.2,178.8c0.8,0,1.4-0.2,1.8-0.7c0.5-0.5,0.7-1.2,0.8-2h2.2c-0.1,1.4-0.5,2.5-1.4,3.4
			c-0.9,0.9-2,1.3-3.3,1.3c-1.8,0-3.1-0.6-4-1.7c-0.9-1.1-1.4-2.7-1.4-4.9v-1.6c0-2.1,0.5-3.8,1.4-4.9c0.9-1.1,2.2-1.7,4-1.7
			c1.4,0,2.6,0.5,3.4,1.4c0.8,0.9,1.3,2.2,1.4,3.7h-2.2c-0.1-1-0.3-1.8-0.8-2.4c-0.4-0.5-1.1-0.8-1.9-0.8c-1,0-1.8,0.3-2.3,1
			c-0.5,0.7-0.8,1.8-0.8,3.3v1.8c0,1.7,0.2,2.8,0.7,3.5C498.3,178.5,499.1,178.8,500.2,178.8z"/>
		<path class="st1" d="M510.3,162.6c0,0.4-0.1,0.7-0.3,1s-0.5,0.4-1,0.4c-0.4,0-0.8-0.1-1-0.4s-0.3-0.6-0.3-1c0-0.4,0.1-0.7,0.3-1
			c0.2-0.3,0.5-0.4,1-0.4c0.4,0,0.8,0.1,1,0.4S510.3,162.2,510.3,162.6z M510.1,180.5h-2.3v-14.1h2.3V180.5z"/>
		<path class="st1" d="M521,180.5c-0.1-0.3-0.2-0.8-0.3-1.5c-0.8,1.2-1.9,1.8-3.1,1.8c-1.3,0-2.3-0.4-3-1.1s-1.1-1.7-1.1-3
			c0-1.4,0.5-2.6,1.5-3.4c1-0.8,2.3-1.3,4-1.3h1.7v-1.5c0-0.8-0.2-1.4-0.6-1.8c-0.4-0.4-0.9-0.5-1.7-0.5c-0.7,0-1.3,0.2-1.7,0.6
			c-0.4,0.4-0.7,0.9-0.7,1.6h-2.3c0-0.7,0.2-1.4,0.6-2.1s1-1.2,1.7-1.5c0.7-0.4,1.5-0.6,2.4-0.6c1.4,0,2.5,0.4,3.3,1.1
			s1.1,1.8,1.2,3.1v7.1c0,1.1,0.2,2,0.4,2.8v0.2H521z M517.9,178.7c0.6,0,1.1-0.2,1.6-0.5s0.9-0.7,1.1-1.2v-3.4h-1.3
			c-1.1,0-2,0.3-2.6,0.7s-1,1.1-1,2c0,0.8,0.2,1.4,0.5,1.7S517.2,178.7,517.9,178.7z"/>
		<path class="st1" d="M529,180.5h-2.3v-20.1h2.3V180.5z"/>
		<path class="st1" d="M537.7,180.8c-1.8,0-3.1-0.5-4-1.6s-1.4-2.6-1.4-4.6v-1.7c0-2.1,0.5-3.8,1.4-5c0.9-1.2,2.2-1.8,3.8-1.8
			c1.7,0,2.9,0.5,3.7,1.6c0.8,1.1,1.2,2.7,1.3,4.9v1.5h-7.9v0.3c0,1.5,0.3,2.6,0.9,3.3c0.6,0.7,1.4,1,2.5,1c0.7,0,1.3-0.1,1.8-0.4
			s1-0.7,1.5-1.2l1.2,1.5C541.3,180.1,539.8,180.8,537.7,180.8z M537.5,168.1c-1,0-1.7,0.3-2.1,1c-0.5,0.7-0.7,1.7-0.8,3.1h5.6v-0.3
			c-0.1-1.3-0.3-2.3-0.7-2.9S538.3,168.1,537.5,168.1z"/>
		<path class="st1" d="M552.1,176.9c0-0.5-0.2-0.9-0.6-1.3c-0.4-0.4-1.1-0.8-2.2-1.3c-1.2-0.5-2.1-1-2.6-1.3s-0.9-0.8-1.1-1.2
			c-0.3-0.5-0.4-1-0.4-1.7c0-1.1,0.4-2.1,1.3-2.9c0.8-0.8,1.9-1.1,3.2-1.1c1.4,0,2.5,0.4,3.3,1.2s1.3,1.8,1.3,3.1h-2.3
			c0-0.6-0.2-1.2-0.6-1.6c-0.4-0.4-1-0.7-1.6-0.7c-0.7,0-1.2,0.2-1.6,0.5s-0.6,0.8-0.6,1.4c0,0.5,0.1,0.8,0.4,1.1
			c0.3,0.3,1,0.7,2,1.1c1.7,0.7,2.9,1.3,3.5,2c0.6,0.6,0.9,1.5,0.9,2.4c0,1.2-0.4,2.2-1.3,2.9c-0.8,0.7-2,1.1-3.4,1.1
			c-1.5,0-2.7-0.4-3.6-1.3c-0.9-0.8-1.4-1.9-1.4-3.2h2.3c0,0.8,0.3,1.4,0.7,1.8c0.5,0.4,1.1,0.7,1.9,0.7c0.8,0,1.3-0.2,1.8-0.5
			C551.9,177.9,552.1,177.5,552.1,176.9z"/>
		<path class="st1" d="M557.5,179.2c0-0.4,0.1-0.8,0.4-1s0.6-0.4,1.1-0.4c0.5,0,0.9,0.1,1.1,0.4s0.4,0.6,0.4,1c0,0.4-0.1,0.7-0.4,1
			c-0.3,0.3-0.6,0.4-1.1,0.4c-0.5,0-0.9-0.1-1.1-0.4C557.7,180,557.5,179.6,557.5,179.2z"/>
	</g>
	<g>
		<path class="st1" d="M380.2,204.2c0-0.9-0.3-1.7-0.8-2.2c-0.5-0.5-1.4-1-2.8-1.5c-1.3-0.5-2.4-1-3.1-1.5c-0.7-0.5-1.2-1.1-1.6-1.8
			s-0.5-1.4-0.5-2.3c0-1.5,0.5-2.7,1.5-3.7c1-1,2.3-1.5,4-1.5c1.1,0,2.1,0.2,3,0.7s1.5,1.2,2,2.1c0.5,0.9,0.7,1.9,0.7,2.9h-2.4
			c0-1.2-0.3-2.1-0.8-2.7c-0.6-0.6-1.4-1-2.4-1c-1,0-1.7,0.3-2.2,0.8c-0.5,0.5-0.8,1.3-0.8,2.3c0,0.8,0.3,1.5,0.9,2
			c0.6,0.5,1.5,1,2.7,1.5c1.9,0.6,3.2,1.4,4,2.3c0.8,0.9,1.2,2.1,1.2,3.6c0,1.5-0.5,2.8-1.5,3.7c-1,0.9-2.4,1.4-4.1,1.4
			c-1.1,0-2.1-0.2-3.1-0.7c-0.9-0.5-1.7-1.2-2.2-2c-0.5-0.9-0.8-1.9-0.8-3h2.4c0,1.2,0.3,2.1,1,2.7c0.7,0.7,1.6,1,2.7,1
			c1.1,0,1.8-0.3,2.4-0.8C380,205.9,380.2,205.2,380.2,204.2z"/>
		<path class="st1" d="M390.5,209.3c-1.8,0-3.1-0.5-4-1.6s-1.4-2.6-1.4-4.6v-1.7c0-2.1,0.5-3.8,1.4-5c0.9-1.2,2.2-1.8,3.8-1.8
			c1.7,0,2.9,0.5,3.7,1.6c0.8,1.1,1.2,2.7,1.3,4.9v1.5h-7.9v0.3c0,1.5,0.3,2.6,0.9,3.3c0.6,0.7,1.4,1,2.5,1c0.7,0,1.3-0.1,1.8-0.4
			s1-0.7,1.5-1.2l1.2,1.5C394.1,208.6,392.6,209.3,390.5,209.3z M390.3,196.6c-1,0-1.7,0.3-2.1,1c-0.5,0.7-0.7,1.7-0.8,3.1h5.6v-0.3
			c-0.1-1.3-0.3-2.3-0.7-2.9S391.1,196.6,390.3,196.6z"/>
		<path class="st1" d="M397.5,201.3c0-2.2,0.4-3.8,1.2-5c0.8-1.1,2-1.7,3.5-1.7c1.3,0,2.4,0.5,3.2,1.6V189h2.3V209h-2.1l-0.1-1.5
			c-0.8,1.2-1.8,1.8-3.3,1.8c-1.5,0-2.6-0.6-3.4-1.7s-1.3-2.7-1.3-4.8V201.3z M399.8,202.6c0,1.6,0.2,2.7,0.7,3.5s1.2,1.1,2.3,1.1
			c1.1,0,2-0.6,2.6-1.7v-7.1c-0.6-1.1-1.4-1.7-2.6-1.7c-1.1,0-1.8,0.4-2.3,1.1c-0.5,0.7-0.7,1.9-0.7,3.4V202.6z"/>
		<path class="st1" d="M416.3,209.3c-1.8,0-3.1-0.5-4-1.6s-1.4-2.6-1.4-4.6v-1.7c0-2.1,0.5-3.8,1.4-5c0.9-1.2,2.2-1.8,3.8-1.8
			c1.7,0,2.9,0.5,3.7,1.6c0.8,1.1,1.2,2.7,1.3,4.9v1.5h-7.9v0.3c0,1.5,0.3,2.6,0.9,3.3c0.6,0.7,1.4,1,2.5,1c0.7,0,1.3-0.1,1.8-0.4
			s1-0.7,1.5-1.2l1.2,1.5C419.9,208.6,418.4,209.3,416.3,209.3z M416.1,196.6c-1,0-1.7,0.3-2.1,1c-0.5,0.7-0.7,1.7-0.8,3.1h5.6v-0.3
			c-0.1-1.3-0.3-2.3-0.7-2.9S416.9,196.6,416.1,196.6z"/>
		<path class="st1" d="M439.1,204h-6.4l-1.5,5h-2.5l6.1-19h2.1l6.1,19h-2.5L439.1,204z M433.3,202h5.2l-2.6-8.6L433.3,202z"/>
		<path class="st1" d="M451.2,197.1c-0.3-0.1-0.7-0.1-1-0.1c-1.2,0-2,0.6-2.5,1.9V209h-2.3v-14.1h2.2l0,1.4c0.6-1.1,1.5-1.7,2.6-1.7
			c0.4,0,0.7,0.1,0.9,0.2L451.2,197.1z"/>
		<path class="st1" d="M452.8,201.3c0-2.2,0.4-3.9,1.2-5c0.8-1.1,2-1.7,3.5-1.7c1.4,0,2.5,0.6,3.3,1.8l0.1-1.6h2.1v14.3
			c0,1.8-0.4,3.1-1.3,4c-0.9,0.9-2.1,1.4-3.7,1.4c-0.7,0-1.5-0.2-2.3-0.5c-0.9-0.3-1.5-0.8-2-1.3l0.9-1.6c1,0.9,2,1.4,3.2,1.4
			c1.9,0,2.9-1,3-3.1v-1.8c-0.7,1.1-1.8,1.7-3.2,1.7c-1.5,0-2.6-0.6-3.4-1.7c-0.8-1.1-1.2-2.7-1.3-4.7V201.3z M455.1,202.6
			c0,1.6,0.2,2.7,0.7,3.5s1.2,1.1,2.3,1.1c1.1,0,2-0.6,2.6-1.8v-7.1c-0.6-1.2-1.5-1.7-2.6-1.7c-1.1,0-1.8,0.4-2.3,1.1
			c-0.5,0.7-0.7,1.9-0.7,3.4V202.6z"/>
		<path class="st1" d="M471.5,209.3c-1.8,0-3.1-0.5-4-1.6s-1.4-2.6-1.4-4.6v-1.7c0-2.1,0.5-3.8,1.4-5c0.9-1.2,2.2-1.8,3.8-1.8
			c1.7,0,2.9,0.5,3.7,1.6c0.8,1.1,1.2,2.7,1.3,4.9v1.5h-7.9v0.3c0,1.5,0.3,2.6,0.9,3.3c0.6,0.7,1.4,1,2.5,1c0.7,0,1.3-0.1,1.8-0.4
			s1-0.7,1.5-1.2l1.2,1.5C475.1,208.6,473.5,209.3,471.5,209.3z M471.2,196.6c-1,0-1.7,0.3-2.1,1c-0.5,0.7-0.7,1.7-0.8,3.1h5.6v-0.3
			c-0.1-1.3-0.3-2.3-0.7-2.9S472.1,196.6,471.2,196.6z"/>
		<path class="st1" d="M481.1,194.9l0.1,1.5c0.9-1.2,2-1.8,3.4-1.8c2.5,0,3.8,1.7,3.8,5v9.4h-2.3v-9.3c0-1.1-0.2-1.9-0.6-2.4
			c-0.4-0.5-0.9-0.7-1.7-0.7c-0.6,0-1.1,0.2-1.5,0.6c-0.5,0.4-0.8,0.9-1.1,1.5V209H479v-14.1H481.1z"/>
		<path class="st1" d="M494.9,191.5v3.4h2.1v1.9h-2.1v8.8c0,0.6,0.1,1,0.3,1.3c0.2,0.3,0.5,0.4,0.9,0.4c0.3,0,0.6-0.1,0.9-0.2l0,1.9
			c-0.5,0.2-1.1,0.3-1.6,0.3c-0.9,0-1.6-0.3-2.1-1c-0.5-0.7-0.7-1.6-0.7-2.8v-8.8h-2.2v-1.9h2.2v-3.4H494.9z"/>
		<path class="st1" d="M502.5,191.1c0,0.4-0.1,0.7-0.3,1s-0.5,0.4-1,0.4c-0.4,0-0.8-0.1-1-0.4s-0.3-0.6-0.3-1c0-0.4,0.1-0.7,0.3-1
			c0.2-0.3,0.5-0.4,1-0.4c0.4,0,0.8,0.1,1,0.4S502.5,190.8,502.5,191.1z M502.3,209H500v-14.1h2.3V209z"/>
		<path class="st1" d="M508.1,194.9l0.1,1.5c0.9-1.2,2-1.8,3.4-1.8c2.5,0,3.8,1.7,3.8,5v9.4h-2.3v-9.3c0-1.1-0.2-1.9-0.6-2.4
			c-0.4-0.5-0.9-0.7-1.7-0.7c-0.6,0-1.1,0.2-1.5,0.6c-0.5,0.4-0.8,0.9-1.1,1.5V209h-2.3v-14.1H508.1z"/>
		<path class="st1" d="M526.1,209c-0.1-0.3-0.2-0.8-0.3-1.5c-0.8,1.2-1.9,1.8-3.1,1.8c-1.3,0-2.3-0.4-3-1.1s-1.1-1.7-1.1-3
			c0-1.4,0.5-2.6,1.5-3.4c1-0.8,2.3-1.3,4-1.3h1.7V199c0-0.8-0.2-1.4-0.6-1.8c-0.4-0.4-0.9-0.5-1.7-0.5c-0.7,0-1.3,0.2-1.7,0.6
			c-0.4,0.4-0.7,0.9-0.7,1.6h-2.3c0-0.7,0.2-1.4,0.6-2.1s1-1.2,1.7-1.5c0.7-0.4,1.5-0.6,2.4-0.6c1.4,0,2.5,0.4,3.3,1.1
			s1.1,1.8,1.2,3.1v7.1c0,1.1,0.2,2,0.4,2.8v0.2H526.1z M523.1,207.2c0.6,0,1.1-0.2,1.6-0.5s0.9-0.7,1.1-1.2v-3.4h-1.3
			c-1.1,0-2,0.3-2.6,0.7s-1,1.1-1,2c0,0.8,0.2,1.4,0.5,1.7S522.3,207.2,523.1,207.2z"/>
		<path class="st1" d="M531.8,207.8c0-0.4,0.1-0.8,0.4-1s0.6-0.4,1.1-0.4s0.9,0.1,1.1,0.4c0.3,0.3,0.4,0.6,0.4,1
			c0,0.4-0.1,0.7-0.4,1c-0.3,0.3-0.6,0.4-1.1,0.4s-0.9-0.1-1.1-0.4C532,208.5,531.8,208.2,531.8,207.8z"/>
	</g>
</g>
</svg>
