<?xml version="1.0" encoding="utf-8"?>
<!-- Generator: Adobe Illustrator 26.3.1, SVG Export Plug-In . SVG Version: 6.00 Build 0)  -->
<!DOCTYPE svg PUBLIC "-//W3C//DTD SVG 1.1//EN" "http://www.w3.org/Graphics/SVG/1.1/DTD/svg11.dtd" [
	<!ENTITY ns_extend "http://ns.adobe.com/Extensibility/1.0/">
	<!ENTITY ns_ai "http://ns.adobe.com/AdobeIllustrator/10.0/">
	<!ENTITY ns_graphs "http://ns.adobe.com/Graphs/1.0/">
	<!ENTITY ns_vars "http://ns.adobe.com/Variables/1.0/">
	<!ENTITY ns_imrep "http://ns.adobe.com/ImageReplacement/1.0/">
	<!ENTITY ns_sfw "http://ns.adobe.com/SaveForWeb/1.0/">
	<!ENTITY ns_custom "http://ns.adobe.com/GenericCustomNamespace/1.0/">
	<!ENTITY ns_adobe_xpath "http://ns.adobe.com/XPath/1.0/">
]>
<svg version="1.1" id="Layer_1" xmlns:x="&ns_extend;" xmlns:i="&ns_ai;" xmlns:graph="&ns_graphs;"
	 xmlns="http://www.w3.org/2000/svg" xmlns:xlink="http://www.w3.org/1999/xlink" x="0px" y="0px" viewBox="0 0 360 216"
	 style="enable-background:new 0 0 360 216;" xml:space="preserve">
<style type="text/css">
	.st0{fill:#F49800;}
	.st1{fill:#1691C9;}
	.st2{fill:#FFFFFF;}
</style>
<metadata>
	<sfw  xmlns="&ns_sfw;">
		<slices></slices>
		<sliceSourceBounds  bottomLeftOrigin="true" height="144" width="308" x="152" y="323.7"></sliceSourceBounds>
	</sfw>
</metadata>
<g>
	<path class="st0" d="M113.1,108.4c0,8.6-6.9,15.5-15.5,15.5c-8.6,0-15.5-6.9-15.5-15.5c0-8.6,7-15.5,15.5-15.5
		C106.1,92.8,113.1,99.8,113.1,108.4z"/>
	<path class="st0" d="M113.1,163.7c0,8.6-6.9,15.5-15.5,15.5c-8.6,0-15.5-6.9-15.5-15.5c0-8.6,7-15.5,15.5-15.5
		C106.1,148.1,113.1,155.1,113.1,163.7z"/>
	<path class="st0" d="M113.1,53.1c0,8.6-6.9,15.5-15.5,15.5C89,68.6,82,61.7,82,53.1c0-8.6,7-15.5,15.5-15.5
		C106.1,37.5,113.1,44.5,113.1,53.1z"/>
	<path class="st0" d="M57.1,108.4c0,8.6-7,15.5-15.5,15.5c-8.6,0-15.5-6.9-15.5-15.5c0-8.6,7-15.5,15.5-15.5
		C50.1,92.8,57.1,99.8,57.1,108.4z"/>
	<path class="st0" d="M57.1,163.7c0,8.6-6.9,15.5-15.5,15.5c-8.6,0-15.5-6.9-15.5-15.5c0-8.6,7-15.5,15.5-15.5
		C50.2,148.1,57.1,155.1,57.1,163.7z"/>
	<path class="st0" d="M57.1,53.1c0,8.6-6.9,15.5-15.5,15.5C33,68.6,26,61.7,26,53.1c0-8.6,7-15.5,15.5-15.5
		C50.2,37.5,57.1,44.5,57.1,53.1z"/>
	<path class="st0" d="M193.1,127.3C193.1,127.3,193.2,127.3,193.1,127.3"/>
	<path class="st0" d="M170.9,163.7c0,8.6-7,15.5-15.5,15.5c-8.6,0-15.5-6.9-15.5-15.5c0-8.6,7-15.5,15.5-15.5
		C164,148.1,170.9,155.1,170.9,163.7z"/>
	<path class="st0" d="M170.9,53.1c0,8.6-7,15.5-15.5,15.5c-8.6,0-15.5-6.9-15.5-15.5c0-8.6,7-15.5,15.5-15.5
		C164,37.5,170.9,44.5,170.9,53.1z"/>
	<g>
		<path class="st1" d="M159.2,109.3c-0.2-0.1-0.4,0.1-0.4,0.1l-0.3,0.3c0,0-0.1,0.1,0,0.2c0.1,0.1,0.3-0.1,0.3-0.1l0.3-0.2l0.2-0.1
			C159.2,109.5,159.4,109.4,159.2,109.3z M168,104.9c0,0.6-0.1,1.2-0.2,1.7c0.1,0.2,0.4,0.4,0.5,0.6c0,0.2-0.3,0.5-0.5,0.3
			c-0.1-0.1-0.1-0.1-0.2-0.2c-0.5,2.1-1.6,3.9-3,5.4l1,1c0-0.1,0-0.2,0-0.3c-0.1-0.4,0.1-0.5,0.1-0.5c0.1,0,0.5,0,0.7,0.4
			c0,0.2,0.1,0,0.2,0.3c0,0.1,0.1,0.5,0.1,0.5s0.1,0.1,0.1,0.3c0,0.1,0,0.2,0,0.3c2.5-2.6,4-6.1,4.2-9.9H168z M164.2,117
			c0.6-0.4,1.2-0.8,1.7-1.3l-0.1-0.1c-0.1,0-0.2,0-0.3-0.1c-0.1-0.1-0.1-0.2-0.1-0.4l-1.5-1.5c-0.1,0.2-0.3,0.3-0.3,0.3l0,0.4
			c1,0.5,1.2,0.9,1.2,1.1c0,0.2-0.7,0.8-0.7,1c0,0.2,0.3,0.3,0.2,0.5C164.3,117,164.2,117,164.2,117z M155.9,117.1v2.7
			c0.8,0,1.6-0.1,2.3-0.3c-0.4-0.4-0.6-0.4-0.7-0.4c-0.2-0.1-0.3-0.4-0.5-0.8c-0.2-0.4,0.3-0.5,0.2-0.8c-0.1-0.3-1.1-0.2-1.1-0.2
			S156.3,117.5,155.9,117.1z M154.8,116.9c-3-0.1-5.7-1.2-7.8-3c0.1,0.1,0.2,0.2,0.4,0.3c0.6,0.5,0.7,0.8,0.6,1.1
			c0,0.3-1.3,0.2-1.3,0.2l0,0c-0.4,0.2-1.1,0.4-1.4,0.3c-0.2,0-0.2-0.1-0.3-0.2l-0.1,0.1c2.6,2.4,6.1,3.9,10,4V116.9z M142.8,106
			c0-0.4-0.1-0.7-0.1-1.1h-2.9c0.1,1.4,0.3,2.8,0.7,4.1c0,0,0,0,0,0c0.1-0.1,0-0.1,0.1-0.3c0.1-0.1,0.2,0,0.2-0.1
			c0-0.1-0.1-0.2-0.1-0.3c0-0.1,0.2-0.1,0.2-0.2c0-0.1-0.1,0.1-0.1-0.2c0-0.2,0.1-0.5,0.1-0.6c0,0,0.1-0.2,0.2-0.5
			c0.1-0.3,0.6-0.4,0.8-0.6c0,0,0.1-0.4,0.4-0.4C142.5,105.9,142.6,106,142.8,106z M142.6,103.8c0.1-3.1,1.4-5.9,3.4-8l-2.1-2.1
			c-2.5,2.6-4.1,6.2-4.3,10H142.6z M146.8,95.1c2.1-1.9,4.9-3.1,8-3.2V89c-3.9,0.1-7.4,1.6-10,4L146.8,95.1z M155.9,91.9
			c2.4,0.1,4.6,0.9,6.4,2.1c-0.1-0.2-0.2-0.3-0.2-0.4c-0.1-0.1,0.2-0.2,0.2-0.2c-0.3-0.5-0.4-0.7-0.3-0.8c0.1-0.1,0.5,0.2,0.6,0.5
			c0.2,0.3,0.4,0.6,0.6,0.6c0.1,0,0.5,0,0.5,0.3c0.1,0.3,0.2,0.3,0.3,0.7c0,0.1,0,0.1,0.1,0.2l0.9-0.9c-0.1-0.2-0.2-0.4-0.5-0.5
			l-0.6,0.2c0,0-0.2,0.1-0.3,0c-0.1-0.1-0.1-0.4-0.1-0.4s-0.2-0.2-0.2-0.3c0-0.1,0.1-0.5,0-0.7c-0.1-0.1-0.3-0.3-0.3-0.3
			s-0.1-0.5-0.2-0.7c-0.1-0.2-0.6-0.6-0.6-0.6s0,0,0-0.1c-1.9-0.9-4-1.5-6.2-1.5V91.9z M164.7,95.9c0.1,0.1,0.2,0.2,0.2,0.3
			c0.2,0.3,0.4,0.5,0.6,0.8c0.1,0.1,0.2,0.3,0.3,0.4c0.1,0,0.2-0.1,0.3-0.2c0.2-0.1,0.3,0,0.4,0.2c0.1,0.2-0.4,0.2-0.2,0.5
			c0.1,0.1,0.4,0,0.4,0c0,0,0.1,0.2,0,0.3c-0.1,0.1-0.2,0.1-0.2,0.2c0,0.1,0.1,0.1,0.1,0.2c0.2,0.1,0.4-0.1,0.4,0.2
			c0,0.3,0.2,0.5,0.3,0.8c0,0.2,0,0.3-0.1,0.4c0.1,0.3,0.2,0.6,0.3,1c0.1-0.1,0.2-0.1,0.3-0.1c0,0,0,0.1,0,0.1s0,0.3,0,0.4
			c0,0.1,0,0.3-0.1,0.5c0,0.2,0.1,0.3,0.1,0.5c0.1,0.2,0.1,0.4,0.1,0.6h0c0,0.2,0,0.5,0,0.7h3c-0.1-2-0.5-3.8-1.2-5.5
			c-0.1,0-0.1,0-0.2,0c0,0-0.2,0.2-0.4,0.2c-0.2,0-0.3-0.2-0.3-0.2s-0.8-1.1-0.9-1.2c0,0-0.1-0.1-0.5-0.2c-0.3,0-0.3-0.2-0.3-0.2
			s-0.4-0.2-0.7-0.3l-0.2-0.5c0,0,0-0.2,0-0.2c0-0.1-0.6-0.1-0.6-0.1s-0.3-0.1-0.4-0.3l-0.5,0.5C164.7,95.9,164.7,95.9,164.7,95.9z
			 M176.2,104.4c0,11.4-9.4,20.6-20.9,20.6c-11.6,0-20.9-9.2-20.9-20.6c0-11.4,9.4-20.6,20.9-20.6C166.9,83.7,176.2,93,176.2,104.4z
			 M155.4,100.9L155.4,100.9c-0.3,0-0.6,0-0.8,0.1c0.1,0,0.1,0.1,0.1,0.2c-0.1,0.2,0.1,0.6,0.1,0.6c-0.3,0.5-1.3,0.7-1.3,0.7
			c-0.2,0.1-0.1,0.3-0.3,0.5c-0.2,0.1-0.3,0.2-0.4,0.4c-0.1,0.2-0.1,0.3-0.1,0.5c-0.1,0.2,0.1,0.3,0,0.4c-0.1,0.1-0.1,0.5-0.2,0.7
			c-0.1,0.1-0.3,0-0.4-0.1c-0.1,0-0.2-0.6-0.2-0.7c0,0,0,0,0,0c0,0.1,0,0.2,0,0.2c0,0.2,0,0.5,0.1,0.7c0.1-0.1,0.1-0.1,0.2-0.1
			c0.4,0,0.1,0.2,0.3,0.2c0.2,0,0.3-0.1,0.3-0.4c0-0.3,0.3-0.3,0.4-0.3c0.1,0,0,0.2,0,0.3c0,0.1,0.2,0,0.2,0.2
			c0,0.2-0.4,0.4-0.4,0.7c-0.1,0.3-0.1,0.4-0.3,0.4c-0.2,0-0.1-0.3-0.3-0.2c-0.1,0.1,0.2,0.5,0.2,0.5c0.2-0.2,0.3-0.3,0.3-0.5
			c0.1-0.1,0.2-0.1,0.4-0.2c0.2-0.1,0.2-0.6,0.2-0.7c0-0.1,0.2-0.1,1-0.1c0.8,0,0.7,0.2,0.7,0.4c0,0.2,0.1,0,0.1,0.2
			c0,0.2-0.3,0.5-0.4,0.7c-0.1,0.2,0.1,0.2,0,0.3c-0.1,0.1-0.1,0.2-0.1,0.2c-0.4,0.5-0.4,0.2-0.7,0.3c-0.3,0.1-0.6,0.1-0.6,0.1
			c-0.1,0-0.1,0-0.2,0.1c0.6,0.4,1.3,0.7,2.1,0.7c0.2,0,0.3,0,0.5,0c0.1-0.4,0.2-1.1,0.5-1.2c0.3-0.2,0.7,0.1,0.9,0
			c0.2-0.1,0.2-0.2,0.3-0.4c0-0.1,0.2-0.4,0.1-0.7c-0.1-0.2-0.2-0.1-0.3-0.3c-0.1-0.2,0.3-0.2,0.1-0.4c-0.3-0.3-0.2-0.6-0.3-0.7
			c-0.1-0.1-0.2,0-0.3-0.1c-0.1-0.1,0-0.3,0.1-0.4c0-0.2,0.3-0.2,0.2-0.3c0-0.1-0.2,0-0.2-0.2c0-0.2,0.1-0.4,0.1-0.4s-0.4,0-0.5-0.1
			c0-0.2-0.3-0.5-0.6-0.7c-0.3-0.1-0.8,0-0.8,0c-0.1-0.2-0.4-0.5-0.4-0.5c-0.3-0.4-0.1-0.3,0-0.5C155.1,100.8,155.3,101,155.4,100.9
			C155.4,100.9,155.4,100.9,155.4,100.9z M167.5,93c0.7,0.7,1.3,1.4,1.8,2.2c0.2,0.1,0.4,0.4,0.5,0.6c0,0.1,0,0.1,0,0.2
			c0,0.1,0.1,0.2,0.1,0.2c0,0,0,0,0.1,0.1c0.2,0.2,0.3,0.4,0.4,0.7c0.1,0.1,0.1,0.3,0.1,0.4c0.9,2,1.5,4.1,1.5,6.4h3
			c-0.1-5-2.2-9.5-5.5-12.9L167.5,93z M156.4,87.9c2.5,0.2,4.8,0.8,6.8,1.9l0.6-0.2c0,0-0.2,0,0.1,0c0.3,0.1,0.2,0,0.5,0.1
			c0.3,0.1,0.4,0,0.5,0.1c0.1,0.1,0.2,0.3,0.3,0.4c0.2,0.1,0.1,0,0.4,0.1c0.2,0.1,0.5,0.4,0.6,0.6c0.1,0.1,0.2-0.1,0.3,0.7
			c0,0,0.3,0.3,0.4,0.5l1.9-1.9c-3.4-3.1-7.9-5.1-12.9-5.2v2.4c0,0,0.1,0,0.1,0c0.2,0.1,0.3,0.1,0.3,0.3
			C156.4,87.7,156.4,87.8,156.4,87.9z M144,92.2c2.9-2.6,6.6-4.2,10.8-4.4v-2.9c-5,0.1-9.5,2.1-12.9,5.2L144,92.2z M138.6,103.8
			c0.1-4.2,1.9-8,4.6-10.8l-2.1-2.1c-3.3,3.4-5.4,7.9-5.5,12.9H138.6z M143.2,115.8c-0.4-0.4-0.7-0.8-1-1.2
			c-0.3-0.1-0.3-0.2-0.6-0.4c-0.3-0.3-0.1-0.5-0.3-0.6c-0.1,0-0.1,0.1-0.1,0.2c0,0.1-0.2,0.1-0.4,0c-0.2-0.1-0.4-0.3-0.4-0.3
			c-0.3-0.2-0.3-0.6-0.3-0.7c-0.1-0.1-0.3,0-0.4,0c-0.1,0-0.1-0.2-0.2-0.3c-0.1-0.1-0.3,0-0.3,0c-0.1-0.1-0.4-0.6-0.4-0.6
			c0,0,0,0.3-0.2,0.3c-0.3,0-0.6-0.6-0.7-0.6c-0.1-0.1-0.2,0.1-0.3,0c-0.2-0.1-0.3-0.7-0.3-0.8c0-0.1-0.1-0.2-0.2-0.4
			c-0.1-0.2,0-1,0.1-1.1c0.1-0.2,0.2,0,0.2-0.3c0.1-0.3,0.2-0.3,0.4-0.3c0.1,0,0.2,0,0.3,0.1c0.1,0.1,0.3,0,0.4,0c0.1,0,0-0.2,0-0.3
			c0-0.1,0.2,0,0.4-0.1c0.1-0.1,0.4-0.1,0.4,0l0,0c-0.3-1.1-0.5-2.3-0.5-3.5h-3c0.1,5,2.2,9.6,5.5,12.9L143.2,115.8z M154.8,120.9
			c-4.2-0.1-7.9-1.8-10.8-4.4l-2.1,2.1c3.4,3.1,7.9,5.1,12.9,5.2V120.9z M166.7,116.5c-0.9,0.8-1.9,1.6-3,2.2c0,0,0,0.1,0,0.1
			c-0.2,0.6-0.7,1.1-0.8,1.3c-0.1,0.2-0.2,0.1-0.4,0.3c-0.2,0.2-0.1,0.3-0.4,0.5c-0.3,0.1-0.5,0.2-0.5,0.2s-0.8,0.9-1.6-0.1
			c-0.1-0.1-0.4-0.2-0.6-0.3l-0.1-0.1c-1.1,0.2-2.2,0.4-3.3,0.4v3c5-0.2,9.5-2.1,12.9-5.2L166.7,116.5z M172.1,104.9
			c-0.1,4.2-1.9,8-4.6,10.8l2.1,2.1c3.3-3.4,5.3-7.9,5.5-12.9H172.1z M165.2,103.8h1.7c0-0.5-0.1-0.9-0.2-1.4
			c-0.1,0.1-0.1,0.2-0.3,0.4c-0.2,0.2-0.4,0.1-0.6,0.2c-0.2,0.1-0.1,0.3-0.1,0.4c0,0.1,0.2,0.1,0.1,0.3c-0.1,0.2-0.3,0.1-0.4,0.1
			C165.4,103.7,165.3,103.6,165.2,103.8z M161.8,98.8c0.2,0.2,0.3,0.3,0.4,0.5c0,0,0.1-0.1,0.3,0c0.3,0.1,0.9,0.2,1.1,0.2
			c0.3,0,0.4,0.7,0.6,0.7c0.2,0.1,0.1,0.1,0.2,0.3c0,0.2-0.1,0.1-0.1,0.2c0,0.1,0.1,0.3,0.3,0.1c0.1-0.1,0.4-0.3,0.7-0.3
			c0.6,0.1,0.4,0.4,0.6,0.5c0.2,0.1,0.1,0.1,0.2,0.2c0.1,0.1,0,0.2-0.2,0.3c-0.1,0-0.1,0.1-0.1,0.2c0,0.1-0.1,0.2-0.1,0.3
			c0,0.1-0.1,0.4,0,0.4c0.1,0,0.2,0.1,0.3,0c0.1-0.1,0.5-0.6,0.5-0.8v-0.1c-0.1-0.5-0.3-0.9-0.4-1.4c-0.1-0.1-0.1-0.2-0.2-0.2
			c-0.2-0.2-0.9-0.5-1.1-0.7c-0.1-0.2,0-0.2,0.2-0.4c0.1-0.1,0.2-0.3,0.2-0.5c-0.1-0.1-0.1-0.2-0.2-0.3c-0.1-0.2-0.4-0.5-0.7-0.9
			c-0.1-0.2-0.3-0.3-0.4-0.5L161.8,98.8z M155.9,95.9c1.9,0.1,3.7,0.9,5,2.1l2.1-2.1c-1.9-1.7-4.4-2.8-7.1-2.9V95.9z M149.7,97.9
			c1.4-1.2,3.1-1.9,5.1-2V93c-2.7,0.1-5.2,1.2-7.2,2.9L149.7,97.9z M148.3,99.5c0.2-0.3,0.4-0.5,0.6-0.7l-2.1-2.1
			c-1.8,1.9-2.9,4.4-3,7.2h1.3c-0.1-0.1-0.2-0.2-0.1-0.4c0-0.1-0.1-0.7,0-0.7c0-0.1,0.2-0.2,0.2-0.3c0.1-0.1,0-0.3,0-0.3
			c0-0.1,0.2-0.2,0.3-0.3c0.1-0.1,0.1-0.4,0.3-0.5c0.3-0.1,0.3,0,0.5,0c0.2,0,0.2-0.3,0.2-0.3s-0.1-0.1,0.1-0.3
			c0.1-0.2,0.8-0.4,0.8-0.4s0-0.2,0.4-0.5C148,99.6,148.2,99.5,148.3,99.5z M146.8,103.8c0-0.1,0-0.2,0-0.4c-0.1,0-0.2-0.1-0.3-0.1
			c-0.3,0-0.6,0.2-0.6,0.5H146.8z M144.7,104.9h-1c0,0.7,0.1,1.4,0.3,2.1c0.2-0.1,0.1-0.2,0.2-0.3c0-0.1,0.2-0.1,0.2-0.2
			c0-0.1,0-0.1,0-0.2c0-0.1-0.2-0.2-0.2-0.3c0-0.2,0.1-0.3,0.2-0.5c0.1-0.2,0-0.3,0.1-0.4C144.5,105,144.5,105.2,144.7,104.9z
			 M148.9,110c-1-1.1-1.7-2.4-2-3.9c0,0,0,0-0.1-0.1c-0.1-0.2-0.3-0.1-0.3-0.1s-0.1,0.6-0.1,0.7c0,0-0.1,0.4-0.2,0.3
			c-0.1,0-0.2-0.2-0.2-0.2s-0.2,0-0.3-0.1c0-0.1-0.2-0.3,0-0.5c0.2-0.2,0.2,0.2,0.3,0c0.1-0.2-0.2-1,0.1-1c0.2,0,0.4,0.4,0.5,0.4
			c0,0,0.1,0,0.2-0.1c0-0.2,0-0.4-0.1-0.6h-1.3c-0.1,0.1,0,0.6-0.1,0.7c-0.1,0.1-0.6-0.1-0.6,0.2c-0.1,0.4,0.2,0.2,0.2,0.5
			s-0.1,0.1-0.1,0.4c0.1,0.3,0.6,0.4,0.6,0.7c0.1,0.3,0.2,0.5,0.3,0.6c0,0.1-0.2,0.3,0,0.5c0.1,0.2,0.3,0.6,0.2,0.8
			c0,0.1,0,0.5,0.1,1.1c0.1,0.6,0.2,0.2,0.4,0.6c0.1,0.2,0.1,0.4,0.1,0.6c0.1,0.1,0.2,0.3,0.3,0.4L148.9,110z M153.4,112.6
			c-1.4-0.3-2.6-0.9-3.6-1.8l-2.1,2.1c1.6,1.4,3.6,2.4,5.8,2.7c-0.3-0.2-0.6-0.3-0.6-0.3c0-0.1-0.1-0.3-0.5-0.7
			c-0.3-0.4-0.3-0.7-0.3-0.7c0.2-0.1,0.3-0.2,0.3-0.2s0.1-0.6,0.4-0.8C153,112.8,153.2,112.7,153.4,112.6z M160.1,111.4
			c-0.1,0.1-0.2,0.2-0.4,0.2c0,0,0,0,0,0c0.2,0.1,1.1,0.2,1.4,0.4c0.2,0.2,0.7,0.3,0.7,0.3c0.3,0,0.6,0,0.7-0.1l-0.4-0.4
			c-0.2-0.1-0.5-0.2-0.5-0.2c-0.4-0.2-0.3,0.1-0.6-0.1C160.8,111.5,160.3,111.5,160.1,111.4z M166.6,107c0.2-0.6,0.3-1.3,0.3-2h-1.7
			c0.1,0.1,0.3,0.2,0.3,0.3c0.2,0.2,0.1,0.4,0.1,0.6c0,0.2,0.2,0.2,0.5,0.4c0.3,0.3,0.2,0.5,0.4,0.7
			C166.5,106.9,166.5,107,166.6,107z M162.1,109.5c-0.1,0.1-0.1,0.2-0.2,0.2c0,0,0,0,0,0c0.2-0.1,0.3,0.1,0.4-0.1
			c0.1-0.2,0.1-0.3,0.2-0.5c0.1-0.2,0.4-0.2,0.6-0.2c0.2,0,0.2-0.1,0.3,0.3c0.1,0.3,0.1,0.6,0.1,0.6c0.1,0.1-0.2,0.3-0.2,0.9
			c0,0.3-0.2,0.1-0.1,0.5l0,0.1l0.2,0.2c0,0,0-0.1,0.1-0.1c0.1-0.3,0.3-0.4,0.4-0.3c0.1,0.1,0.1,0.4,0.2,0.7
			c1.1-1.2,1.9-2.6,2.3-4.1l-0.1,0c-0.1,0-0.5,0.1-0.9,0.2c-0.4,0-0.7,0-0.7,0s-0.2-0.2-0.3-0.1c-0.1,0.1-0.2,0.5-0.5,0.4
			c-0.3-0.1-0.1-0.4-0.2-0.4c-0.1,0,0,0.1-0.1,0.3c-0.1,0.2-0.4,0.6-0.5,0.7c0,0.1-0.6,0.1-0.7,0.3
			C162.4,109.2,162.3,109.4,162.1,109.5z M159.6,107.9l0.8,0.8c0-0.2-0.1-0.5-0.1-0.5L160,108l-0.1-0.1l0.1-0.2l-0.1,0L159.6,107.9z
			 M159.1,110.7c0.1-0.1,0.2-0.1,0.4-0.2C159.4,110.4,159.2,110.5,159.1,110.7C159.2,110.6,159.2,110.7,159.1,110.7z M150.5,110
			c1,0.9,2.3,1.4,3.7,1.6c0,0,0,0.1,0,0.1c0,0,0.1,0.1,0.2,0.1c0.2,0,0.4,0,0.6-0.2c0.2-0.2,0.2-0.1,0.3-0.1c0,0,0.1-0.2,0.3-0.4
			c0.1-0.1,0.2-0.3,0.3-0.3l0,0.8c1-0.1,1.9-0.3,2.8-0.8c-0.2,0-0.4-0.3-0.4-0.3c-0.1,0,0.1,0.3,0.1,0.4c0,0.1-0.4,0.2-0.5,0.2
			c-0.1-0.2-0.4-0.3-0.4-0.2c0,0.4-0.2,0.3-0.2,0.3c-0.4-0.6-0.5-0.2-0.7-0.4c-0.2-0.2-0.3-0.1-0.3-0.1c-0.1,0-0.3,0.1-0.4,0.2
			c-0.1,0-0.1,0.2-0.3,0.3c-0.1,0.2-0.3,0.4-0.3,0.4c-0.1,0-0.1-0.1-0.3,0.1c-0.2,0.2-0.4,0.2-0.6,0.2c-0.1,0-0.2-0.1-0.2-0.1
			c0-0.1,0-0.1,0-0.2c0-0.1,0-0.2,0-0.3c0-0.5,0.1-0.7,0.1-0.7c0.1-0.1,0.3-0.1,0.4,0v-0.7l0-0.1c0-0.1,0-0.1,0-0.1V109
			c-0.9-0.1-1.7-0.4-2.3-0.9L150.5,110z M150.7,105.3c0-0.1,0-0.1,0-0.2c-0.1,0.1-0.4,0.1-0.3,0.2
			C150.4,105.3,150.5,105.3,150.7,105.3z M148.1,106.2c0.3,1.1,0.9,2.1,1.6,3l2-2c-0.1-0.1-0.2-0.2-0.2-0.3c0,0,0,0,0,0
			c-0.2,0.1,0,0.3-0.2,0.4c-0.1,0.1-0.2,0.2-0.2,0.3c0,0.1-0.4,0.4-0.5,0.3c-0.1-0.2,0-0.9-0.3-0.9c-0.1,0-0.1,0.1,0,0.3
			c0.1,0.3-0.2,0.2-0.2,0.1c-0.1-0.1-0.2-0.1-0.4-0.3c-0.2-0.2-0.1-0.4-0.1-0.4s-0.2-0.2-0.3-0.1c-0.1,0,0,0.1-0.2,0.1
			c-0.2-0.1-0.2-0.4-0.2-0.4s-0.2,0-0.6-0.1C148.3,106.3,148.2,106.2,148.1,106.2z M154.8,97c-1.6,0.1-3.1,0.7-4.3,1.7l1.1,1.1
			c0.2,0,0.2,0.2,0.4,0.2c0.2,0.1,0.2,0,0.4-0.1c0.2,0,0.1,0.1,0.1,0.2c0.1,0.1,0.2-0.1,0.2-0.1c0.2-0.1,0.1,0.1,0.4,0
			c0.2-0.1,0.1-0.2,0.2-0.4c0.1-0.1,0.1-0.2,0.1-0.4c0-0.2,0.2-0.3,0.3-0.4c0.1-0.1,0.2-0.1,0.3,0c0.1,0.1-0.1,0.2-0.1,0.3
			c0,0.1,0.4,0,0.9-0.1V97z M160,98.6c-1.1-0.9-2.5-1.5-4-1.6v2.2c0.4,0.1,0.8,0.2,0.8,0.2s0.1,0,0.1,0c0.2-0.5,0.6-0.4,0.7-0.5
			c0.1-0.1,0.1-0.2,0.2-0.3c0.1-0.1,0.3,0,0.4,0.1c0,0.1,0.1,0.6-0.2,1c-0.1,0.2-0.4,0.3-0.6,0.4c0.3,0.2,0.7,0.4,1,0.6l0.2-0.2
			c0-0.1,0-0.1,0-0.1s0.1,0,0.2-0.1l0.9-0.9c0,0,0,0-0.1,0c-0.1-0.1-0.4-0.1,0.2-0.5C159.8,98.7,159.9,98.7,160,98.6z M161.2,99.8
			c-0.1-0.1-0.1-0.1-0.2-0.2l-0.2,0.2c0.1,0.1,0.3,0.3,0.3,0.2C161,99.9,161.1,100,161.2,99.8z M164.7,88.9c0.1-0.1,0.2,0,0.3,0.1
			c0.1,0,0.1-0.1,0.4,0c0.2,0.1,0.3,0.3,0.3,0.4c0,0.2,0.1,0.3,0.2,0.4c0,0.1-0.2,0.3-0.4,0.2c-0.2-0.1-0.4-0.4-0.4-0.4l-0.4-0.3
			C164.6,89.3,164.6,89,164.7,88.9z M156.2,87.1c0,0,0.1-0.2,0.2-0.1c0.1,0,0.4,0,0.4,0l0.7-0.2l0.5-0.2l0.2-0.1
			c0,0,0.8-0.1,1.5,0.4c0.1,0.1,0.2,0.1,0.2,0.2l-0.2-0.2c0,0,0.6,0.5,0.2,0.2l-0.1,0.2c0,0-0.5,0.3-0.6,0.3c-0.2,0-0.5,0-0.5,0
			l-0.4-0.1l-0.8,0.2c0,0-0.5,0.1-0.8-0.2c-0.3-0.2-0.4-0.3-0.4-0.3L156.2,87.1z M165,96.2c0.1,0.1,0.4,0.6,0.6,0.7c0,0,0,0.1,0,0.1
			C165.4,96.7,165.2,96.5,165,96.2z"/>
		<path class="st1" d="M166.1,126.2c0.1,0,1.6-0.3,4-0.5c2.4-0.3,3.3-0.1,5-0.6c1.9-0.5,2.8-1.5,3.3-2c0,0,0.1-0.1,0.1,0.1
			c0,0.1-1.2,2.3-3.9,3.7c-2.7,1.4-5.6,1-6.3,0.9c-0.7-0.1-1.7-0.5-2.8-0.8c-1.1-0.3-2.4-0.6-3.1-0.5c0,0-0.1-0.1,0.1-0.2
			c0.3-0.1,1.7-0.3,2.5-0.7c1.5-0.7,2.7-2.1,3.7-3.1c1-0.9,2.6-2.6,3.6-3c0,0,0.1,0,0,0.1c-0.1,0.1-0.8,1.1-1.2,2
			c-0.4,0.9-0.8,1.9-1.5,2.7C168.9,125,168,125.7,166.1,126.2C166.1,126.1,166,126.2,166.1,126.2z M182.9,115.8c0,0-0.3,2.8-3,5.2
			c-2,1.8-3.7,2.5-4.7,2.8c-0.9,0.2-2,0.3-2.9,0.5c-0.9,0.2-2.2,0.5-2.4,0.6c0,0-0.1,0,0,0c0.1-0.1,0.4-0.2,1.4-1.5
			c0.9-1.3,1.8-4.2,1.8-4.2s0.5-1.5,1-2.5c0.5-1,2.1-3.2,2.4-3.5c0,0,0.2-0.1,0.1,0c0,0.1-0.4,0.7-0.6,1.7c-0.4,1.6-0.4,3.3-0.6,3.9
			c-0.2,0.7-0.6,1.8-1.3,2.8c-0.9,1.1-0.9,1-1.6,1.6c-0.1,0.1,0,0.1,0,0.1s0.7-0.4,1.3-0.8c0.5-0.4,1.1-0.9,2.1-1.5
			c1-0.6,2.1-0.9,4-2c2-1.1,2.7-2.4,3.1-3.3C182.8,115.8,182.9,115.7,182.9,115.8z M178.3,107.5c0,0-0.1,0.9,0,1.5
			c0.1,0.6,0.8,3.3,0.8,4.7c0,1.4-0.4,2.7-1.3,3.9l0.1,0c0,0,1.5-2.1,2.2-3c0.7-0.9,2.2-2.3,3-3.1c0.7-0.8,1.4-2,1.6-3.6h0.1
			c0,0,0.4,2.4-0.6,4.7c-1,2.3-2,3.1-2.8,3.8c-0.7,0.7-2.8,2.1-3.9,2.7c-1,0.6-1.8,1.3-1.8,1.3s-0.1,0-0.1-0.1c0,0,0.8-1.6,1-2.5
			c0.2-0.9,0.4-2.5,0.5-3.6C177.1,113,177.4,108.8,178.3,107.5L178.3,107.5z M177.9,100.9c0-0.1-0.1-0.2-0.2,0c0,0.2,0,2.1,0.5,4.4
			c0.4,1.5,1.4,4.8,1.5,5.2c0.2,0.8,0.2,2.5,0,3.1c0,0,0,0.2,0.1,0.1c0.1-0.1,1-1.7,1.6-2.3c0.5-0.6,1.8-2.2,2.2-3
			c0.3-0.8,1.2-2.6,1-5.2c-0.1-2.4-0.8-3.8-0.8-3.8s-0.1-0.1-0.1,0c0,0.1,0.2,1.1,0,2.1c-0.1,1-0.4,1.6-0.9,2.8
			c-0.5,1.2-1.1,2.5-1.2,3c-0.1,0.5-0.3,1.5-0.4,2.3c-0.1,0.8-0.4,1.3-0.4,1.3l-0.1-0.1c0,0,0.3-0.6,0.4-2c0.1-1.4-0.5-2.8-0.9-3.5
			C179.6,104.3,178,102,177.9,100.9z M180.7,91.9C180.6,91.8,180.7,92,180.7,91.9c-0.1,0.1,0.7,1.2,0.7,3.2c0,2-0.3,2.1-0.4,3.8
			c0,1.7,0.2,3.9,0.2,3.9h-0.1c0,0,0-1.1-0.6-2.4c-0.7-1.5-3.4-3.7-3.4-3.7s-0.9-0.9-1-1.4c-0.1-0.1-0.1,0-0.1,0s0.2,1.4,1,3.2
			c0.8,1.8,2.6,3.5,3.1,4.5c0.5,1,0.8,1.1,1.2,3.1l0.1,0c0,0,0-0.9,0.6-2.7c0.6-1.8,0.8-1.6,1.1-3.3c0.3-1.7,0.1-3.4,0-3.7
			C183,96.1,182.4,93.7,180.7,91.9z M180.3,99c0,0-0.3-0.7-1-1.5c-0.3-0.4-0.9-1-1.6-1.6c-0.7-0.6-1.6-1.1-2.1-1.6
			c-1.1-1-2.2-2.8-2.2-4.4c0,0,0.5,1,1.2,1.7c0.7,0.7,2.4,1.6,3.1,2.3c0.7,0.6,1.5,1.5,1.8,2.5h0.1c0,0-0.8-2-0.9-2.7
			c-0.2-0.7-0.4-2-0.8-3.2c-0.4-1.2-1-1.7-1.7-2.2c0,0,0.1-0.1,0.1-0.1s3,0.4,4.1,4.3c0.3,1.1,0,3.7,0,4.8c0.1,1,0.1,1.7,0.1,1.7
			H180.3z M170.4,85.5c0,0,0.9,0.3,1.9,0.7c1,0.4,2.2,0.9,3,1.9c1.4,1.5,1.7,2.9,2.1,4c0.1,0.4,0.4,1,0.4,1c0.1,0,0,0.1,0,0.1
			s-2.6-2.1-3.3-2.9c-0.8-0.9-1.7-2.4-2.4-3.1C171.4,86.5,170.4,85.5,170.4,85.5z M137.2,128.1c0,0,2.5,2.9,6.3,2.9
			c3,0,5.1-1.6,5.1-1.6s2.2-1.6,3.3-2.1c0.9-0.5,2.3-0.1,2.3-0.1s-1.6,0.6-3.1,1.7c-1.5,1.1-2.1,1.5-3.6,3l1.3,1.1
			c0,0,0.9-1.3,2.7-2.8c1.8-1.5,2.8-2.1,3.9-2.5c0,0,3.6,1.6,6.5,5.4l1.3-1.1c0,0-3-3-6.6-4.6c0,0,0.3-0.2,1.9-0.1
			c0.7,0.1,1.3,0.6,2.1,1.1c0.8,0.5,2.2,1.5,3.2,1.9c1,0.4,2.3,0.7,3.4,0.7c1.1,0,4.2-0.4,6.4-3c0,0,0-0.1-0.1,0
			c-1.4,0.7-2.1,1.2-4.4,1.2c-1.2,0-2.7-0.4-4.7-1.3c-2-0.9-3.3-1.5-5.5-1.5c-2.3,0-3.4,0.4-3.6,0.5c0,0-1-0.5-3.1-0.5
			c-2.1,0-3.9,0.6-5.1,1.2c-1.2,0.6-3.4,1.8-5.9,1.8C138.9,129.2,137.4,128.1,137.2,128.1C137.3,128,137.2,128.1,137.2,128.1z
			 M144.9,126.3c-0.1,0-1.7-0.3-4-0.6c-2.4-0.3-3.4-0.1-5.1-0.5c-1.9-0.5-2.8-1.4-3.3-2c0,0-0.1-0.1-0.1,0.1c0,0.1,1.2,2.3,3.9,3.7
			c2.7,1.4,5.8,0.9,6.5,0.8c0.7-0.1,1.7-0.5,2.8-0.7c1-0.3,2.4-0.6,3.1-0.5c0,0,0.1-0.1-0.1-0.2c-0.3-0.1-1.3-0.1-2.5-0.7
			c-2.1-1.1-2.8-2.1-3.8-3c-1-0.9-2.7-2.5-3.6-3c0,0-0.1,0,0,0.1c0.1,0.1,0.8,1,1.2,2c0.4,0.9,0.8,1.9,1.6,2.6
			C142,125.1,143,125.8,144.9,126.3C144.9,126.2,145,126.2,144.9,126.3z M127.9,116c0,0,0.4,2.8,3.1,5.3c2,1.8,3.9,2.5,4.9,2.8
			c0.9,0.2,2,0.3,2.8,0.5c0.9,0.2,2.1,0.5,2.4,0.6c0,0,0.1,0,0-0.1c-0.1-0.1-0.4-0.2-1.3-1.5c-1-1.3-1.8-4.1-1.8-4.1
			s-0.4-1.2-0.9-2.2c-0.5-1-2.2-3.5-2.5-3.7c0,0-0.1-0.1-0.1,0c0,0.1,0.4,0.7,0.6,1.6c0.2,1,0.5,3.3,0.7,3.9
			c0.2,0.6,0.6,1.9,1.3,2.9c0.9,1.1,0.9,1,1.6,1.6c0.2,0.1,0,0.1,0,0.1s-0.8-0.4-1.3-0.8c-0.5-0.4-0.7-0.7-1.7-1.3
			c-1-0.6-2.4-1.1-4.3-2.2c-2-1.2-2.8-2.4-3.2-3.3C128,116,127.9,115.9,127.9,116z M132.4,107.7c0,0,0.2,0.9,0.1,1.5
			c-0.1,0.6-0.7,3.2-0.7,4.7c0,1.4,0.4,2.7,1.3,3.9l-0.1,0c0,0-1.5-2.1-2.2-3c-0.7-0.9-2.3-2.3-3-3.1c-0.7-0.9-1.5-1.9-1.7-3.5h-0.1
			c0,0-0.3,2.4,0.7,4.6c1,2.3,2.1,3.1,2.8,3.8c0.7,0.7,2.9,2.1,3.9,2.7c1.1,0.6,1.9,1.3,1.9,1.3s0.1,0,0.1-0.1c0,0-0.8-1.6-1-2.5
			c-0.2-0.9-0.4-2.5-0.5-3.6c-0.1-1.2-0.5-5.4-1.3-6.7L132.4,107.7z M132.8,101c0-0.1,0.1-0.2,0.2,0c0,0.2-0.1,2.9-0.5,4.4
			c-0.3,1.5-1.4,4.7-1.5,5.2c-0.1,0.5-0.2,2.5,0,3.1c0,0,0,0.2-0.1,0.1c-0.1-0.1-1.1-1.6-1.6-2.2c-0.5-0.6-1.9-2.2-2.2-3
			c-0.4-0.8-1.2-3.1-1.1-5.7c0.2-2.6,0.8-3.2,0.8-3.2s0.1-0.1,0.1,0c0,0.1-0.2,1.1,0,2.1c0.1,0.9,0.4,1.9,1.1,3
			c0.6,1.1,1,2.3,1.1,2.8c0.2,0.4,0.4,1.4,0.5,2.2c0.1,0.8,0.4,1.3,0.4,1.3l0.1,0c0,0-0.3-0.6-0.4-2c0-1.4,0.3-2.4,0.9-3.5
			C131.1,104.4,132.7,102,132.8,101z M129.8,92.1c0.1-0.1,0.2,0,0.2,0s-0.8,1-0.8,3c0,2,0.4,2.3,0.4,4.1c0,1.7-0.2,3.8-0.2,3.8h0.1
			c0,0,0-1.1,0.7-2.6c0.7-1.4,3.4-3.7,3.4-3.7s0.8-0.9,0.9-1.3c0.1-0.1,0.1,0,0.1,0s-0.1,1.3-0.9,3c-0.8,1.8-2.4,3.5-3,4.5
			c-0.5,1-1,1.4-1.4,3.4l-0.1,0c0,0-0.1-0.9-0.7-2.7c-0.6-1.8-0.8-1.5-1.1-3.2c-0.3-1.7-0.1-3.6,0-3.9
			C127.7,96.1,128.2,93.9,129.8,92.1z M130.3,99.2c0,0,0.3-0.7,1-1.5c0.3-0.4,0.9-1,1.6-1.6c0.7-0.6,1.6-1.2,2.1-1.7
			c1.1-1,2.1-2.8,2-4.4c0,0-0.4,1-1.1,1.7c-0.7,0.7-2.4,1.7-3.1,2.3c-0.7,0.7-1.5,1.5-1.8,2.6l-0.1,0c0,0,0.7-2,0.9-2.8
			c0.2-0.7,0.4-2,0.8-3.2c0.4-1.1,0.9-1.7,1.7-2.2c0,0,0-0.1,0-0.1s-3,0.4-4.1,4.3c-0.3,1.1,0.1,3.8,0,4.8
			C130.2,98.6,130.2,99.2,130.3,99.2L130.3,99.2z M140,85.7c0,0-0.7,0.2-1.7,0.6c-1,0.4-2.2,1-3.1,1.9c-1.4,1.5-1.7,2.9-2.1,4
			c-0.2,0.6-0.3,1.1-0.3,1.1s2.6-2.1,3.4-2.9c0.7-0.9,1.6-2.5,2.3-3.1C139.1,86.6,140,85.7,140,85.7z"/>
	</g>
	<g>
		<path class="st2" d="M334,108.4c0,39.7-32.2,72-72,72c-39.8,0-72-32.2-72-72c0-39.7,32.2-72,72-72C301.8,36.3,334,68.6,334,108.4z
			"/>
		<g>
			<path class="st0" d="M327.9,119.7h-11l-2.6,11h-9l12.2-45.7H328l6,22.8c-0.2-39.5-32.4-71.6-72-71.6c-31.7,0-58.6,20.5-68.2,48.9
				h5.2v31.7c0,4.7,2,7.1,5.6,7.1c3.6,0,5.6-2.5,5.6-7.1V85.2h9.1v31.6c0,10.1-6.2,14.7-14.7,14.7c-5.5,0-10-1.9-12.5-5.9
				c7.8,31.4,36.1,54.6,69.9,54.6c32,0,59.1-20.9,68.5-49.7L327.9,119.7z M252.7,130.8h-7.4L231.8,103v27.7h-8.3V85.2h8.7l12.2,26.5
				V85.2h8.3V130.8z M278.6,93.1h-12.7v11l9.9,0v8.1h-9.9v18.5h-9V85.2h21.7V93.1z M291.6,114.5v16.3h-9V85.2h10.8
				c9.6,0,15.9,4.9,15.9,14.4c0,9.7-6.3,14.7-16.4,14.8H291.6z"/>
			<path class="st0" d="M293.1,107.2h-1.6V92.5h1.7c4.9,0,7.4,2.5,7.4,7.3C300.7,104.9,298.1,107.2,293.1,107.2z"/>
			<path class="st0" d="M318.5,112.4l4-16.7l3.9,16.7H318.5z"/>
		</g>
	</g>
</g>
</svg>
