<?xml version="1.0" encoding="utf-8"?>
<!-- Generator: Adobe Illustrator 26.0.1, SVG Export Plug-In . SVG Version: 6.00 Build 0)  -->
<!DOCTYPE svg PUBLIC "-//W3C//DTD SVG 1.1//EN" "http://www.w3.org/Graphics/SVG/1.1/DTD/svg11.dtd" [
	<!ENTITY ns_extend "http://ns.adobe.com/Extensibility/1.0/">
	<!ENTITY ns_ai "http://ns.adobe.com/AdobeIllustrator/10.0/">
	<!ENTITY ns_graphs "http://ns.adobe.com/Graphs/1.0/">
	<!ENTITY ns_vars "http://ns.adobe.com/Variables/1.0/">
	<!ENTITY ns_imrep "http://ns.adobe.com/ImageReplacement/1.0/">
	<!ENTITY ns_sfw "http://ns.adobe.com/SaveForWeb/1.0/">
	<!ENTITY ns_custom "http://ns.adobe.com/GenericCustomNamespace/1.0/">
	<!ENTITY ns_adobe_xpath "http://ns.adobe.com/XPath/1.0/">
]>
<svg version="1.1" id="Capa_1" xmlns:x="&ns_extend;" xmlns:i="&ns_ai;" xmlns:graph="&ns_graphs;"
	 xmlns="http://www.w3.org/2000/svg" xmlns:xlink="http://www.w3.org/1999/xlink" x="0px" y="0px" viewBox="0 0 896.4 294"
	 style="enable-background:new 0 0 896.4 294;" xml:space="preserve">
<style type="text/css">
	.st0{fill:#654F83;}
	.st1{fill:#FFFFFF;}
	.st2{fill:#142F4E;}
	.st3{fill:#C7522A;}
</style>
<metadata>
	<sfw  xmlns="&ns_sfw;">
		<slices></slices>
		<sliceSourceBounds  bottomLeftOrigin="true" height="294" width="896.4" x="511.8" y="-687"></sliceSourceBounds>
	</sfw>
</metadata>
<g>
	<g>
		<rect x="603" class="st0" width="293.3" height="293.3"/>
		<g>
			<path class="st1" d="M661.5,65.4h-6.1v8h-2.3V55.3h9.5v2h-7.2v6.2h6.1V65.4z"/>
			<path class="st1" d="M671.7,73.5c-0.1-0.3-0.2-0.8-0.3-1.5c-0.8,1.1-1.8,1.7-3,1.7c-1.2,0-2.2-0.3-2.9-1c-0.7-0.7-1-1.7-1-2.9
				c0-1.4,0.5-2.5,1.4-3.3c0.9-0.8,2.2-1.2,3.8-1.2h1.6v-1.4c0-0.8-0.2-1.4-0.5-1.7c-0.4-0.3-0.9-0.5-1.6-0.5
				c-0.7,0-1.2,0.2-1.6,0.6c-0.4,0.4-0.6,0.9-0.6,1.5h-2.2c0-0.7,0.2-1.4,0.6-2c0.4-0.6,1-1.1,1.6-1.5c0.7-0.4,1.5-0.5,2.3-0.5
				c1.4,0,2.4,0.3,3.2,1s1.1,1.7,1.1,3v6.8c0,1,0.2,1.9,0.4,2.7v0.2H671.7z M668.7,71.7c0.5,0,1.1-0.1,1.5-0.4s0.8-0.7,1.1-1.1v-3.2
				h-1.2c-1,0-1.9,0.3-2.5,0.7c-0.6,0.5-0.9,1.1-0.9,1.9c0,0.8,0.2,1.3,0.5,1.7C667.5,71.5,668,71.7,668.7,71.7z"/>
			<path class="st1" d="M681.6,71.8c0.7,0,1.3-0.2,1.8-0.7c0.4-0.5,0.7-1.1,0.7-1.9h2.1c-0.1,1.3-0.5,2.4-1.4,3.2
				c-0.9,0.9-1.9,1.3-3.2,1.3c-1.7,0-2.9-0.5-3.8-1.6c-0.9-1.1-1.3-2.6-1.3-4.7V66c0-2,0.4-3.6,1.3-4.6s2.1-1.6,3.8-1.6
				c1.4,0,2.5,0.4,3.3,1.3c0.8,0.9,1.2,2.1,1.3,3.6h-2.1c0-1-0.3-1.7-0.7-2.2c-0.4-0.5-1-0.7-1.8-0.7c-1,0-1.7,0.3-2.2,1
				c-0.5,0.6-0.7,1.7-0.7,3.2v1.7c0,1.6,0.2,2.7,0.7,3.4C679.9,71.5,680.6,71.8,681.6,71.8z"/>
			<path class="st1" d="M695.7,72.3c-0.7,1-1.8,1.4-3.2,1.4c-1.2,0-2.1-0.4-2.8-1.3c-0.6-0.8-0.9-2.1-0.9-3.7V60h2.2v8.6
				c0,2.1,0.6,3.2,1.9,3.2c1.3,0,2.3-0.6,2.8-1.8V60h2.2v13.5h-2.1L695.7,72.3z"/>
			<path class="st1" d="M703.5,73.5h-2.2V54.3h2.2V73.5z"/>
			<path class="st1" d="M709.9,56.7V60h2v1.8h-2v8.4c0,0.5,0.1,0.9,0.3,1.2c0.2,0.3,0.5,0.4,0.9,0.4c0.3,0,0.6-0.1,0.9-0.1l0,1.9
				c-0.5,0.2-1,0.2-1.5,0.2c-0.9,0-1.5-0.3-2-0.9c-0.5-0.6-0.7-1.5-0.7-2.6v-8.4h-2.1V60h2.1v-3.3H709.9z"/>
			<path class="st1" d="M721.5,73.5c-0.1-0.3-0.2-0.8-0.3-1.5c-0.8,1.1-1.8,1.7-3,1.7c-1.2,0-2.2-0.3-2.9-1c-0.7-0.7-1-1.7-1-2.9
				c0-1.4,0.5-2.5,1.4-3.3c0.9-0.8,2.2-1.2,3.8-1.2h1.6v-1.4c0-0.8-0.2-1.4-0.5-1.7c-0.4-0.3-0.9-0.5-1.6-0.5
				c-0.7,0-1.2,0.2-1.6,0.6c-0.4,0.4-0.6,0.9-0.6,1.5h-2.2c0-0.7,0.2-1.4,0.6-2c0.4-0.6,1-1.1,1.6-1.5c0.7-0.4,1.5-0.5,2.3-0.5
				c1.4,0,2.4,0.3,3.2,1s1.1,1.7,1.1,3v6.8c0,1,0.2,1.9,0.4,2.7v0.2H721.5z M718.5,71.7c0.5,0,1.1-0.1,1.5-0.4s0.8-0.7,1.1-1.1v-3.2
				h-1.2c-1,0-1.9,0.3-2.5,0.7c-0.6,0.5-0.9,1.1-0.9,1.9c0,0.8,0.2,1.3,0.5,1.7C717.3,71.5,717.8,71.7,718.5,71.7z"/>
			<path class="st1" d="M726.3,66.1c0-2.1,0.4-3.7,1.2-4.8c0.8-1.1,1.9-1.6,3.4-1.6c1.3,0,2.3,0.5,3,1.6v-7h2.2v19.2h-2l-0.1-1.4
				c-0.7,1.1-1.8,1.7-3.1,1.7c-1.4,0-2.5-0.5-3.3-1.6s-1.2-2.6-1.2-4.6V66.1z M728.5,67.4c0,1.5,0.2,2.6,0.7,3.3
				c0.4,0.7,1.2,1.1,2.2,1.1c1.1,0,1.9-0.6,2.5-1.7v-6.8c-0.6-1.1-1.4-1.6-2.4-1.6c-1,0-1.7,0.4-2.2,1.1c-0.4,0.7-0.7,1.8-0.7,3.3
				V67.4z"/>
		</g>
		<g>
			<path class="st1" d="M655.4,102.1h7.1v2h-9.4V85.9h2.3V102.1z"/>
			<path class="st1" d="M671.9,104c-0.1-0.3-0.2-0.8-0.3-1.5c-0.8,1.1-1.8,1.7-3,1.7c-1.2,0-2.2-0.3-2.9-1s-1-1.7-1-2.9
				c0-1.4,0.5-2.5,1.4-3.3c0.9-0.8,2.2-1.2,3.8-1.2h1.6v-1.4c0-0.8-0.2-1.4-0.5-1.7c-0.4-0.3-0.9-0.5-1.6-0.5
				c-0.7,0-1.2,0.2-1.6,0.6c-0.4,0.4-0.6,0.9-0.6,1.5H665c0-0.7,0.2-1.4,0.6-2c0.4-0.6,1-1.1,1.6-1.5s1.5-0.5,2.3-0.5
				c1.4,0,2.4,0.3,3.2,1s1.1,1.7,1.1,3v6.8c0,1,0.1,1.9,0.4,2.7v0.2H671.9z M669,102.3c0.5,0,1.1-0.1,1.5-0.4
				c0.5-0.3,0.8-0.7,1.1-1.1v-3.2h-1.2c-1,0-1.9,0.3-2.5,0.7s-0.9,1.1-0.9,1.9c0,0.8,0.2,1.3,0.5,1.7
				C667.7,102.1,668.2,102.3,669,102.3z"/>
			<path class="st1" d="M680.1,87.3v3.3h2v1.8h-2v8.4c0,0.5,0.1,0.9,0.3,1.2s0.5,0.4,0.9,0.4c0.3,0,0.6-0.1,0.9-0.1l0,1.9
				c-0.5,0.2-1,0.2-1.5,0.2c-0.9,0-1.5-0.3-2-0.9c-0.5-0.6-0.7-1.5-0.7-2.6v-8.4h-2.1v-1.8h2.1v-3.3H680.1z"/>
			<path class="st1" d="M687.3,87c0,0.4-0.1,0.7-0.3,0.9s-0.5,0.4-0.9,0.4c-0.4,0-0.7-0.1-0.9-0.4s-0.3-0.6-0.3-0.9s0.1-0.7,0.3-0.9
				s0.5-0.4,0.9-0.4s0.7,0.1,0.9,0.4C687.2,86.3,687.3,86.6,687.3,87z M687.1,104h-2.2V90.5h2.2V104z"/>
			<path class="st1" d="M692.7,90.5l0.1,1.5c0.9-1.1,2-1.7,3.3-1.7c2.4,0,3.6,1.6,3.6,4.8v9h-2.2v-8.9c0-1.1-0.2-1.8-0.5-2.3
				s-0.9-0.7-1.6-0.7c-0.5,0-1,0.2-1.5,0.5c-0.4,0.4-0.8,0.8-1.1,1.4v9.8h-2.2V90.5H692.7z"/>
			<path class="st1" d="M702.5,96.7c0-2,0.5-3.5,1.4-4.7s2.2-1.7,3.8-1.7s2.8,0.6,3.8,1.7c1,1.1,1.4,2.6,1.5,4.6v1.4
				c0,2-0.5,3.5-1.4,4.6c-0.9,1.1-2.2,1.7-3.8,1.7c-1.6,0-2.8-0.6-3.8-1.7c-0.9-1.1-1.4-2.6-1.5-4.5V96.7z M704.7,97.9
				c0,1.4,0.3,2.5,0.8,3.3c0.5,0.8,1.3,1.2,2.2,1.2c1.9,0,3-1.4,3-4.2v-1.5c0-1.4-0.3-2.5-0.8-3.3c-0.5-0.8-1.3-1.2-2.2-1.2
				c-0.9,0-1.6,0.4-2.2,1.2c-0.5,0.8-0.8,1.9-0.8,3.3V97.9z"/>
			<path class="st1" d="M722.8,104c-0.1-0.3-0.2-0.8-0.3-1.5c-0.8,1.1-1.8,1.7-3,1.7c-1.2,0-2.2-0.3-2.9-1c-0.7-0.7-1-1.7-1-2.9
				c0-1.4,0.5-2.5,1.4-3.3c0.9-0.8,2.2-1.2,3.8-1.2h1.6v-1.4c0-0.8-0.2-1.4-0.5-1.7c-0.4-0.3-0.9-0.5-1.6-0.5
				c-0.7,0-1.2,0.2-1.6,0.6c-0.4,0.4-0.6,0.9-0.6,1.5h-2.2c0-0.7,0.2-1.4,0.6-2c0.4-0.6,1-1.1,1.6-1.5c0.7-0.4,1.5-0.5,2.3-0.5
				c1.4,0,2.4,0.3,3.2,1s1.1,1.7,1.1,3v6.8c0,1,0.2,1.9,0.4,2.7v0.2H722.8z M719.8,102.3c0.5,0,1.1-0.1,1.5-0.4s0.8-0.7,1.1-1.1
				v-3.2h-1.2c-1,0-1.9,0.3-2.5,0.7c-0.6,0.5-0.9,1.1-0.9,1.9c0,0.8,0.2,1.3,0.5,1.7C718.6,102.1,719.1,102.3,719.8,102.3z"/>
			<path class="st1" d="M730.1,90.5l0,1.2c0.8-1,1.9-1.5,3.3-1.5c1.5,0,2.6,0.7,3.2,2c0.8-1.3,2-2,3.5-2c2.5,0,3.8,1.6,3.8,4.7v9.1
				h-2.2v-8.9c0-1-0.2-1.7-0.5-2.2c-0.3-0.5-0.9-0.7-1.8-0.7c-0.7,0-1.2,0.3-1.6,0.8c-0.4,0.5-0.7,1.2-0.7,2v9.1h-2.2v-9
				c0-1.9-0.8-2.8-2.3-2.8c-1.1,0-1.9,0.6-2.4,1.7V104h-2.2V90.5H730.1z"/>
			<path class="st1" d="M752.1,104.3c-1.7,0-3-0.5-3.9-1.5c-0.9-1-1.4-2.5-1.4-4.4v-1.6c0-2,0.4-3.6,1.3-4.7s2.1-1.7,3.7-1.7
				c1.6,0,2.8,0.5,3.5,1.5s1.2,2.6,1.2,4.7V98h-7.5v0.3c0,1.4,0.3,2.5,0.8,3.2c0.5,0.7,1.3,1,2.4,1c0.6,0,1.2-0.1,1.7-0.4
				s1-0.6,1.4-1.2l1.1,1.4C755.5,103.6,754.1,104.3,752.1,104.3z M751.9,92.2c-0.9,0-1.6,0.3-2,0.9c-0.4,0.6-0.7,1.6-0.7,2.9h5.3
				v-0.3c-0.1-1.3-0.3-2.2-0.7-2.7C753.3,92.5,752.7,92.2,751.9,92.2z"/>
			<path class="st1" d="M764.8,92.6c-0.3-0.1-0.6-0.1-1-0.1c-1.1,0-1.9,0.6-2.4,1.9v9.7h-2.2V90.5h2.1l0,1.4
				c0.6-1.1,1.4-1.6,2.5-1.6c0.3,0,0.6,0.1,0.9,0.2L764.8,92.6z"/>
			<path class="st1" d="M769.6,87c0,0.4-0.1,0.7-0.3,0.9s-0.5,0.4-0.9,0.4c-0.4,0-0.7-0.1-0.9-0.4s-0.3-0.6-0.3-0.9s0.1-0.7,0.3-0.9
				s0.5-0.4,0.9-0.4s0.7,0.1,0.9,0.4C769.5,86.3,769.6,86.6,769.6,87z M769.4,104h-2.2V90.5h2.2V104z"/>
			<path class="st1" d="M777.6,102.4c0.7,0,1.3-0.2,1.8-0.7c0.4-0.5,0.7-1.1,0.7-1.9h2.1c-0.1,1.3-0.5,2.4-1.4,3.2
				c-0.9,0.9-1.9,1.3-3.2,1.3c-1.7,0-2.9-0.5-3.8-1.6c-0.9-1.1-1.3-2.6-1.3-4.7v-1.5c0-2,0.4-3.6,1.3-4.6s2.1-1.6,3.8-1.6
				c1.4,0,2.5,0.4,3.3,1.3c0.8,0.9,1.2,2.1,1.3,3.6h-2.1c0-1-0.3-1.7-0.7-2.2c-0.4-0.5-1-0.7-1.8-0.7c-1,0-1.7,0.3-2.2,1
				c-0.5,0.6-0.7,1.7-0.7,3.2v1.7c0,1.6,0.2,2.7,0.7,3.4C775.8,102.1,776.6,102.4,777.6,102.4z"/>
			<path class="st1" d="M791.7,104c-0.1-0.3-0.2-0.8-0.3-1.5c-0.8,1.1-1.8,1.7-3,1.7c-1.2,0-2.2-0.3-2.9-1c-0.7-0.7-1-1.7-1-2.9
				c0-1.4,0.5-2.5,1.4-3.3c0.9-0.8,2.2-1.2,3.8-1.2h1.6v-1.4c0-0.8-0.2-1.4-0.5-1.7c-0.4-0.3-0.9-0.5-1.6-0.5
				c-0.7,0-1.2,0.2-1.6,0.6c-0.4,0.4-0.6,0.9-0.6,1.5h-2.2c0-0.7,0.2-1.4,0.6-2c0.4-0.6,1-1.1,1.6-1.5c0.7-0.4,1.5-0.5,2.3-0.5
				c1.4,0,2.4,0.3,3.2,1s1.1,1.7,1.1,3v6.8c0,1,0.2,1.9,0.4,2.7v0.2H791.7z M788.7,102.3c0.5,0,1.1-0.1,1.5-0.4s0.8-0.7,1.1-1.1
				v-3.2h-1.2c-1,0-1.9,0.3-2.5,0.7c-0.6,0.5-0.9,1.1-0.9,1.9c0,0.8,0.2,1.3,0.5,1.7C787.5,102.1,788,102.3,788.7,102.3z"/>
			<path class="st1" d="M799,90.5l0.1,1.5c0.9-1.1,2-1.7,3.3-1.7c2.4,0,3.6,1.6,3.6,4.8v9h-2.2v-8.9c0-1.1-0.2-1.8-0.5-2.3
				s-0.9-0.7-1.6-0.7c-0.6,0-1,0.2-1.5,0.5c-0.4,0.4-0.8,0.8-1.1,1.4v9.8h-2.2V90.5H799z"/>
			<path class="st1" d="M816.3,104c-0.1-0.3-0.2-0.8-0.3-1.5c-0.8,1.1-1.8,1.7-3,1.7c-1.2,0-2.2-0.3-2.9-1s-1-1.7-1-2.9
				c0-1.4,0.5-2.5,1.4-3.3c0.9-0.8,2.2-1.2,3.8-1.2h1.6v-1.4c0-0.8-0.2-1.4-0.5-1.7s-0.9-0.5-1.6-0.5c-0.7,0-1.2,0.2-1.6,0.6
				c-0.4,0.4-0.6,0.9-0.6,1.5h-2.2c0-0.7,0.2-1.4,0.6-2c0.4-0.6,1-1.1,1.6-1.5c0.7-0.4,1.5-0.5,2.3-0.5c1.4,0,2.4,0.3,3.2,1
				s1.1,1.7,1.1,3v6.8c0,1,0.2,1.9,0.4,2.7v0.2H816.3z M813.3,102.3c0.5,0,1.1-0.1,1.5-0.4c0.5-0.3,0.8-0.7,1.1-1.1v-3.2h-1.2
				c-1,0-1.9,0.3-2.5,0.7s-0.9,1.1-0.9,1.9c0,0.8,0.2,1.3,0.5,1.7C812.1,102.1,812.6,102.3,813.3,102.3z"/>
			<path class="st1" d="M827,96.7c0-2.1,0.4-3.7,1.2-4.8c0.8-1.1,1.9-1.6,3.4-1.6c1.3,0,2.3,0.5,3,1.6v-7h2.2V104h-2l-0.1-1.4
				c-0.7,1.1-1.8,1.7-3.1,1.7c-1.4,0-2.5-0.5-3.3-1.6c-0.8-1.1-1.2-2.6-1.2-4.6V96.7z M829.2,97.9c0,1.5,0.2,2.6,0.7,3.3
				c0.4,0.7,1.2,1.1,2.2,1.1c1.1,0,1.9-0.6,2.5-1.7v-6.8c-0.6-1.1-1.4-1.6-2.4-1.6c-1,0-1.7,0.4-2.2,1.1c-0.4,0.7-0.7,1.8-0.7,3.3
				V97.9z"/>
			<path class="st1" d="M844.9,104.3c-1.7,0-3-0.5-3.9-1.5c-0.9-1-1.4-2.5-1.4-4.4v-1.6c0-2,0.4-3.6,1.3-4.7s2.1-1.7,3.7-1.7
				c1.6,0,2.8,0.5,3.5,1.5s1.2,2.6,1.2,4.7V98h-7.5v0.3c0,1.4,0.3,2.5,0.8,3.2c0.5,0.7,1.3,1,2.4,1c0.6,0,1.2-0.1,1.7-0.4
				s1-0.6,1.4-1.2l1.1,1.4C848.4,103.6,846.9,104.3,844.9,104.3z M844.7,92.2c-0.9,0-1.6,0.3-2,0.9c-0.4,0.6-0.7,1.6-0.7,2.9h5.3
				v-0.3c-0.1-1.3-0.3-2.2-0.7-2.7C846.1,92.5,845.5,92.2,844.7,92.2z"/>
		</g>
		<g>
			<path class="st1" d="M664.5,128.8c-0.1,1.9-0.6,3.4-1.6,4.5c-1,1-2.4,1.6-4.2,1.6c-1.8,0-3.3-0.7-4.3-2.1
				c-1.1-1.4-1.6-3.3-1.6-5.6v-3.3c0-2.4,0.6-4.2,1.7-5.6c1.1-1.4,2.6-2.1,4.5-2.1c1.8,0,3.1,0.5,4.1,1.6c1,1,1.5,2.6,1.6,4.5h-2.3
				c-0.1-1.5-0.4-2.5-0.9-3.2c-0.5-0.6-1.3-0.9-2.4-0.9c-1.2,0-2.2,0.5-2.9,1.5c-0.7,1-1,2.4-1,4.3v3.3c0,1.8,0.3,3.2,0.9,4.2
				s1.5,1.5,2.7,1.5s2-0.3,2.6-0.9s0.8-1.7,1-3.2H664.5z"/>
			<path class="st1" d="M669.9,117.5c0,0.4-0.1,0.7-0.3,0.9s-0.5,0.4-0.9,0.4c-0.4,0-0.7-0.1-0.9-0.4s-0.3-0.6-0.3-0.9
				s0.1-0.7,0.3-0.9s0.5-0.4,0.9-0.4s0.7,0.1,0.9,0.4C669.8,116.9,669.9,117.2,669.9,117.5z M669.7,134.6h-2.2v-13.5h2.2V134.6z"/>
			<path class="st1" d="M678,134.9c-1.7,0-3-0.5-3.9-1.5c-0.9-1-1.4-2.5-1.4-4.4v-1.6c0-2,0.4-3.6,1.3-4.7s2.1-1.7,3.7-1.7
				c1.6,0,2.8,0.5,3.5,1.5s1.2,2.6,1.2,4.7v1.4h-7.5v0.3c0,1.4,0.3,2.5,0.8,3.2c0.5,0.7,1.3,1,2.4,1c0.6,0,1.2-0.1,1.7-0.4
				s1-0.6,1.4-1.2l1.1,1.4C681.4,134.2,679.9,134.9,678,134.9z M677.7,122.8c-0.9,0-1.6,0.3-2,0.9s-0.7,1.6-0.7,2.9h5.3v-0.3
				c-0.1-1.3-0.3-2.2-0.7-2.7S678.6,122.8,677.7,122.8z"/>
			<path class="st1" d="M687.2,121.1l0.1,1.5c0.9-1.1,2-1.7,3.3-1.7c2.4,0,3.6,1.6,3.6,4.8v9H692v-8.9c0-1.1-0.2-1.8-0.5-2.3
				c-0.4-0.4-0.9-0.7-1.6-0.7c-0.5,0-1,0.2-1.5,0.5c-0.4,0.4-0.8,0.8-1.1,1.4v9.8h-2.2v-13.5H687.2z"/>
			<path class="st1" d="M702.2,133c0.7,0,1.3-0.2,1.8-0.7c0.4-0.5,0.7-1.1,0.7-1.9h2.1c-0.1,1.3-0.5,2.4-1.4,3.2
				c-0.9,0.9-1.9,1.3-3.2,1.3c-1.7,0-2.9-0.5-3.8-1.6c-0.9-1.1-1.3-2.6-1.3-4.7v-1.5c0-2,0.4-3.6,1.3-4.6s2.1-1.6,3.8-1.6
				c1.4,0,2.5,0.4,3.3,1.3c0.8,0.9,1.2,2.1,1.3,3.6h-2.1c0-1-0.3-1.7-0.7-2.2c-0.4-0.5-1-0.7-1.8-0.7c-1,0-1.7,0.3-2.2,1
				c-0.5,0.6-0.7,1.7-0.7,3.2v1.7c0,1.6,0.2,2.7,0.7,3.4C700.4,132.7,701.2,133,702.2,133z"/>
			<path class="st1" d="M711.9,117.5c0,0.4-0.1,0.7-0.3,0.9s-0.5,0.4-0.9,0.4c-0.4,0-0.7-0.1-0.9-0.4s-0.3-0.6-0.3-0.9
				s0.1-0.7,0.3-0.9s0.5-0.4,0.9-0.4s0.7,0.1,0.9,0.4C711.8,116.9,711.9,117.2,711.9,117.5z M711.7,134.6h-2.2v-13.5h2.2V134.6z"/>
			<path class="st1" d="M722.1,134.6c-0.1-0.3-0.2-0.8-0.3-1.5c-0.8,1.1-1.8,1.7-3,1.7c-1.2,0-2.2-0.3-2.9-1c-0.7-0.7-1-1.7-1-2.9
				c0-1.4,0.5-2.5,1.4-3.3c0.9-0.8,2.2-1.2,3.8-1.2h1.6V125c0-0.8-0.2-1.4-0.5-1.7c-0.4-0.3-0.9-0.5-1.6-0.5c-0.7,0-1.2,0.2-1.6,0.6
				c-0.4,0.4-0.6,0.9-0.6,1.5h-2.2c0-0.7,0.2-1.4,0.6-2c0.4-0.6,1-1.1,1.6-1.5c0.7-0.4,1.5-0.5,2.3-0.5c1.4,0,2.4,0.3,3.2,1
				s1.1,1.7,1.1,3v6.8c0,1,0.2,1.9,0.4,2.7v0.2H722.1z M719.2,132.9c0.5,0,1.1-0.1,1.5-0.4s0.8-0.7,1.1-1.1v-3.2h-1.2
				c-1,0-1.9,0.3-2.5,0.7c-0.6,0.5-0.9,1.1-0.9,1.9c0,0.8,0.2,1.3,0.5,1.7C717.9,132.7,718.4,132.9,719.2,132.9z"/>
			<path class="st1" d="M734,131.2c0-0.5-0.2-0.9-0.5-1.2c-0.4-0.3-1-0.7-2.1-1.2c-1.2-0.5-2-0.9-2.5-1.3c-0.5-0.3-0.9-0.7-1.1-1.2
				c-0.2-0.4-0.4-1-0.4-1.6c0-1.1,0.4-2,1.2-2.7c0.8-0.7,1.8-1.1,3.1-1.1c1.3,0,2.4,0.4,3.2,1.1s1.2,1.7,1.2,2.9h-2.2
				c0-0.6-0.2-1.1-0.6-1.6c-0.4-0.4-0.9-0.6-1.6-0.6c-0.6,0-1.2,0.2-1.5,0.5s-0.6,0.8-0.6,1.4c0,0.4,0.1,0.8,0.4,1.1
				c0.3,0.3,0.9,0.6,2,1.1c1.6,0.6,2.8,1.3,3.3,1.9s0.9,1.4,0.9,2.3c0,1.2-0.4,2.1-1.2,2.8c-0.8,0.7-1.9,1.1-3.2,1.1
				c-1.4,0-2.5-0.4-3.4-1.2s-1.3-1.8-1.3-3.1h2.2c0,0.7,0.3,1.3,0.7,1.8s1,0.6,1.8,0.6c0.7,0,1.3-0.2,1.7-0.5
				C733.8,132.2,734,131.7,734,131.2z"/>
			<path class="st1" d="M753.2,130c0-0.9-0.2-1.6-0.7-2.1c-0.5-0.5-1.4-1-2.7-1.4c-1.3-0.5-2.3-0.9-2.9-1.4
				c-0.7-0.5-1.2-1.1-1.5-1.7c-0.3-0.6-0.5-1.4-0.5-2.2c0-1.4,0.5-2.6,1.4-3.6s2.2-1.4,3.8-1.4c1.1,0,2,0.2,2.8,0.7s1.5,1.1,1.9,2
				c0.5,0.8,0.7,1.8,0.7,2.8h-2.3c0-1.1-0.3-2-0.8-2.6s-1.3-0.9-2.3-0.9c-0.9,0-1.6,0.3-2.1,0.8c-0.5,0.5-0.8,1.2-0.8,2.2
				c0,0.8,0.3,1.4,0.8,1.9c0.5,0.5,1.4,1,2.5,1.4c1.8,0.6,3.1,1.3,3.8,2.2c0.8,0.9,1.2,2,1.2,3.4c0,1.5-0.5,2.7-1.4,3.5
				s-2.3,1.3-3.9,1.3c-1.1,0-2-0.2-2.9-0.7c-0.9-0.5-1.6-1.1-2.1-1.9s-0.8-1.8-0.8-2.9h2.3c0,1.1,0.3,2,0.9,2.6
				c0.6,0.6,1.5,0.9,2.6,0.9c1,0,1.8-0.3,2.3-0.8S753.2,130.9,753.2,130z"/>
			<path class="st1" d="M757.7,127.2c0-2,0.5-3.5,1.4-4.7c1-1.1,2.2-1.7,3.8-1.7s2.8,0.6,3.8,1.7c1,1.1,1.4,2.6,1.5,4.6v1.4
				c0,2-0.5,3.5-1.4,4.6c-0.9,1.1-2.2,1.7-3.8,1.7c-1.6,0-2.8-0.6-3.8-1.7c-0.9-1.1-1.4-2.6-1.5-4.5V127.2z M759.9,128.5
				c0,1.4,0.3,2.5,0.8,3.3c0.5,0.8,1.3,1.2,2.2,1.2c1.9,0,3-1.4,3-4.2v-1.5c0-1.4-0.3-2.5-0.8-3.3c-0.5-0.8-1.3-1.2-2.2-1.2
				c-0.9,0-1.6,0.4-2.2,1.2c-0.5,0.8-0.8,1.9-0.8,3.3V128.5z"/>
			<path class="st1" d="M775.7,133c0.7,0,1.3-0.2,1.8-0.7c0.4-0.5,0.7-1.1,0.7-1.9h2.1c-0.1,1.3-0.5,2.4-1.4,3.2
				c-0.9,0.9-1.9,1.3-3.2,1.3c-1.7,0-2.9-0.5-3.8-1.6c-0.9-1.1-1.3-2.6-1.3-4.7v-1.5c0-2,0.4-3.6,1.3-4.6s2.1-1.6,3.8-1.6
				c1.4,0,2.5,0.4,3.3,1.3c0.8,0.9,1.2,2.1,1.3,3.6h-2.1c0-1-0.3-1.7-0.7-2.2c-0.4-0.5-1-0.7-1.8-0.7c-1,0-1.7,0.3-2.2,1
				c-0.5,0.6-0.7,1.7-0.7,3.2v1.7c0,1.6,0.2,2.7,0.7,3.4C773.9,132.7,774.7,133,775.7,133z"/>
			<path class="st1" d="M785.3,117.5c0,0.4-0.1,0.7-0.3,0.9s-0.5,0.4-0.9,0.4c-0.4,0-0.7-0.1-0.9-0.4s-0.3-0.6-0.3-0.9
				s0.1-0.7,0.3-0.9s0.5-0.4,0.9-0.4s0.7,0.1,0.9,0.4C785.2,116.9,785.3,117.2,785.3,117.5z M785.2,134.6H783v-13.5h2.2V134.6z"/>
			<path class="st1" d="M795.6,134.6c-0.1-0.3-0.2-0.8-0.3-1.5c-0.8,1.1-1.8,1.7-3,1.7c-1.2,0-2.2-0.3-2.9-1c-0.7-0.7-1-1.7-1-2.9
				c0-1.4,0.5-2.5,1.4-3.3c0.9-0.8,2.2-1.2,3.8-1.2h1.6V125c0-0.8-0.2-1.4-0.5-1.7c-0.4-0.3-0.9-0.5-1.6-0.5c-0.7,0-1.2,0.2-1.6,0.6
				c-0.4,0.4-0.6,0.9-0.6,1.5h-2.2c0-0.7,0.2-1.4,0.6-2c0.4-0.6,1-1.1,1.6-1.5c0.7-0.4,1.5-0.5,2.3-0.5c1.4,0,2.4,0.3,3.2,1
				s1.1,1.7,1.1,3v6.8c0,1,0.2,1.9,0.4,2.7v0.2H795.6z M792.7,132.9c0.5,0,1.1-0.1,1.5-0.4s0.8-0.7,1.1-1.1v-3.2H794
				c-1,0-1.9,0.3-2.5,0.7c-0.6,0.5-0.9,1.1-0.9,1.9c0,0.8,0.2,1.3,0.5,1.7C791.4,132.7,791.9,132.9,792.7,132.9z"/>
			<path class="st1" d="M803.3,134.6h-2.2v-19.2h2.2V134.6z"/>
			<path class="st1" d="M811.6,134.9c-1.7,0-3-0.5-3.9-1.5c-0.9-1-1.4-2.5-1.4-4.4v-1.6c0-2,0.4-3.6,1.3-4.7s2.1-1.7,3.7-1.7
				c1.6,0,2.8,0.5,3.5,1.5s1.2,2.6,1.2,4.7v1.4h-7.5v0.3c0,1.4,0.3,2.5,0.8,3.2c0.5,0.7,1.3,1,2.4,1c0.6,0,1.2-0.1,1.7-0.4
				s1-0.6,1.4-1.2l1.1,1.4C815,134.2,813.5,134.9,811.6,134.9z M811.3,122.8c-0.9,0-1.6,0.3-2,0.9c-0.4,0.6-0.7,1.6-0.7,2.9h5.3
				v-0.3c-0.1-1.3-0.3-2.2-0.7-2.7C812.8,123,812.2,122.8,811.3,122.8z"/>
			<path class="st1" d="M825.3,131.2c0-0.5-0.2-0.9-0.5-1.2c-0.4-0.3-1-0.7-2.1-1.2c-1.2-0.5-2-0.9-2.5-1.3
				c-0.5-0.3-0.9-0.7-1.1-1.2c-0.2-0.4-0.4-1-0.4-1.6c0-1.1,0.4-2,1.2-2.7c0.8-0.7,1.8-1.1,3.1-1.1c1.3,0,2.4,0.4,3.2,1.1
				s1.2,1.7,1.2,2.9h-2.2c0-0.6-0.2-1.1-0.6-1.6c-0.4-0.4-0.9-0.6-1.6-0.6c-0.6,0-1.2,0.2-1.5,0.5s-0.6,0.8-0.6,1.4
				c0,0.4,0.1,0.8,0.4,1.1c0.3,0.3,0.9,0.6,2,1.1c1.6,0.6,2.8,1.3,3.3,1.9s0.9,1.4,0.9,2.3c0,1.2-0.4,2.1-1.2,2.8
				c-0.8,0.7-1.9,1.1-3.2,1.1c-1.4,0-2.5-0.4-3.4-1.2c-0.9-0.8-1.3-1.8-1.3-3.1h2.2c0,0.7,0.3,1.3,0.7,1.8s1,0.6,1.8,0.6
				c0.7,0,1.3-0.2,1.7-0.5C825.1,132.2,825.3,131.7,825.3,131.2z"/>
			<path class="st1" d="M830.5,133.4c0-0.4,0.1-0.7,0.4-1c0.2-0.3,0.6-0.4,1.1-0.4s0.8,0.1,1.1,0.4c0.2,0.3,0.4,0.6,0.4,1
				c0,0.4-0.1,0.7-0.4,1c-0.2,0.3-0.6,0.4-1.1,0.4s-0.8-0.1-1.1-0.4S830.5,133.8,830.5,133.4z"/>
		</g>
		<g>
			<path class="st1" d="M661.1,160.6c0-0.9-0.2-1.6-0.7-2.1s-1.4-1-2.7-1.4c-1.3-0.5-2.3-0.9-2.9-1.4c-0.7-0.5-1.2-1.1-1.5-1.7
				c-0.3-0.6-0.5-1.4-0.5-2.2c0-1.4,0.5-2.6,1.4-3.6c1-0.9,2.2-1.4,3.8-1.4c1.1,0,2,0.2,2.8,0.7s1.5,1.1,1.9,2s0.7,1.8,0.7,2.8h-2.3
				c0-1.1-0.3-2-0.8-2.6c-0.5-0.6-1.3-0.9-2.3-0.9c-0.9,0-1.6,0.3-2.1,0.8c-0.5,0.5-0.8,1.2-0.8,2.2c0,0.8,0.3,1.4,0.8,1.9
				c0.5,0.5,1.4,1,2.5,1.4c1.8,0.6,3.1,1.3,3.8,2.2c0.8,0.9,1.2,2,1.2,3.4c0,1.5-0.5,2.7-1.4,3.5c-1,0.9-2.3,1.3-3.9,1.3
				c-1.1,0-2-0.2-2.9-0.7c-0.9-0.5-1.6-1.1-2.1-1.9c-0.5-0.8-0.8-1.8-0.8-2.9h2.3c0,1.1,0.3,2,0.9,2.6c0.6,0.6,1.5,0.9,2.6,0.9
				c1,0,1.8-0.3,2.3-0.8C660.8,162.2,661.1,161.5,661.1,160.6z"/>
			<path class="st1" d="M670.9,165.4c-1.7,0-3-0.5-3.9-1.5c-0.9-1-1.4-2.5-1.4-4.4v-1.6c0-2,0.4-3.6,1.3-4.7
				c0.9-1.1,2.1-1.7,3.7-1.7c1.6,0,2.8,0.5,3.5,1.5s1.2,2.6,1.2,4.7v1.4h-7.5v0.3c0,1.4,0.3,2.5,0.8,3.2c0.5,0.7,1.3,1,2.4,1
				c0.6,0,1.2-0.1,1.7-0.4c0.5-0.2,1-0.6,1.4-1.2l1.1,1.4C674.3,164.8,672.8,165.4,670.9,165.4z M670.6,153.3c-0.9,0-1.6,0.3-2,0.9
				c-0.4,0.6-0.7,1.6-0.7,2.9h5.3v-0.3c-0.1-1.3-0.3-2.2-0.7-2.7C672.1,153.6,671.5,153.3,670.6,153.3z"/>
			<path class="st1" d="M677.6,157.8c0-2.1,0.4-3.7,1.2-4.8c0.8-1.1,1.9-1.6,3.4-1.6c1.3,0,2.3,0.5,3,1.6v-7h2.2v19.2h-2l-0.1-1.4
				c-0.7,1.1-1.8,1.7-3.1,1.7c-1.4,0-2.5-0.5-3.3-1.6s-1.2-2.6-1.2-4.6V157.8z M679.8,159.1c0,1.5,0.2,2.6,0.7,3.3s1.2,1.1,2.2,1.1
				c1.1,0,1.9-0.6,2.5-1.7V155c-0.6-1.1-1.4-1.6-2.4-1.6c-1,0-1.7,0.4-2.2,1.1s-0.7,1.8-0.7,3.3V159.1z"/>
			<path class="st1" d="M695.5,165.4c-1.7,0-3-0.5-3.9-1.5c-0.9-1-1.4-2.5-1.4-4.4v-1.6c0-2,0.4-3.6,1.3-4.7
				c0.9-1.1,2.1-1.7,3.7-1.7c1.6,0,2.8,0.5,3.5,1.5s1.2,2.6,1.2,4.7v1.4h-7.5v0.3c0,1.4,0.3,2.5,0.8,3.2c0.5,0.7,1.3,1,2.4,1
				c0.6,0,1.2-0.1,1.7-0.4c0.5-0.2,1-0.6,1.4-1.2l1.1,1.4C699,164.8,697.5,165.4,695.5,165.4z M695.3,153.3c-0.9,0-1.6,0.3-2,0.9
				c-0.4,0.6-0.7,1.6-0.7,2.9h5.3v-0.3c-0.1-1.3-0.3-2.2-0.7-2.7C696.7,153.6,696.1,153.3,695.3,153.3z"/>
			<path class="st1" d="M717.3,160.4h-6.1l-1.4,4.8h-2.3l5.9-18.2h2l5.9,18.2h-2.3L717.3,160.4z M711.8,158.5h5l-2.5-8.3
				L711.8,158.5z"/>
			<path class="st1" d="M728.8,153.8c-0.3-0.1-0.6-0.1-1-0.1c-1.1,0-1.9,0.6-2.4,1.9v9.7h-2.2v-13.5h2.1l0,1.4
				c0.6-1.1,1.4-1.6,2.5-1.6c0.3,0,0.6,0.1,0.9,0.2L728.8,153.8z"/>
			<path class="st1" d="M730.4,157.8c0-2.1,0.4-3.7,1.1-4.8s1.9-1.6,3.4-1.6c1.4,0,2.4,0.6,3.1,1.8l0.1-1.5h2v13.6
				c0,1.7-0.4,3-1.3,3.9s-2.1,1.3-3.6,1.3c-0.7,0-1.4-0.2-2.2-0.5s-1.5-0.7-1.9-1.2l0.9-1.5c0.9,0.9,1.9,1.3,3,1.3
				c1.8,0,2.8-1,2.8-3v-1.8c-0.7,1.1-1.7,1.6-3,1.6c-1.4,0-2.5-0.5-3.3-1.6c-0.8-1.1-1.2-2.6-1.2-4.5V157.8z M732.6,159.1
				c0,1.5,0.2,2.6,0.7,3.3s1.2,1.1,2.2,1.1c1.1,0,1.9-0.6,2.5-1.7v-6.7c-0.6-1.1-1.4-1.7-2.4-1.7c-1,0-1.7,0.4-2.2,1.1
				s-0.7,1.8-0.7,3.3V159.1z"/>
			<path class="st1" d="M748.3,165.4c-1.7,0-3-0.5-3.9-1.5c-0.9-1-1.4-2.5-1.4-4.4v-1.6c0-2,0.4-3.6,1.3-4.7
				c0.9-1.1,2.1-1.7,3.7-1.7c1.6,0,2.8,0.5,3.5,1.5s1.2,2.6,1.2,4.7v1.4h-7.5v0.3c0,1.4,0.3,2.5,0.8,3.2c0.5,0.7,1.3,1,2.4,1
				c0.6,0,1.2-0.1,1.7-0.4c0.5-0.2,1-0.6,1.4-1.2l1.1,1.4C751.7,164.8,750.2,165.4,748.3,165.4z M748,153.3c-0.9,0-1.6,0.3-2,0.9
				c-0.4,0.6-0.7,1.6-0.7,2.9h5.3v-0.3c-0.1-1.3-0.3-2.2-0.7-2.7C749.4,153.6,748.8,153.3,748,153.3z"/>
			<path class="st1" d="M757.5,151.7l0.1,1.5c0.9-1.1,2-1.7,3.3-1.7c2.4,0,3.6,1.6,3.6,4.8v9h-2.2v-8.9c0-1.1-0.2-1.8-0.5-2.3
				c-0.4-0.4-0.9-0.7-1.6-0.7c-0.5,0-1,0.2-1.5,0.5c-0.4,0.4-0.8,0.8-1.1,1.4v9.8h-2.2v-13.5H757.5z"/>
			<path class="st1" d="M770.7,148.4v3.3h2v1.8h-2v8.4c0,0.5,0.1,0.9,0.3,1.2c0.2,0.3,0.5,0.4,0.9,0.4c0.3,0,0.6-0.1,0.9-0.2l0,1.9
				c-0.5,0.2-1,0.2-1.5,0.2c-0.9,0-1.5-0.3-2-0.9c-0.5-0.6-0.7-1.5-0.7-2.6v-8.4h-2.1v-1.8h2.1v-3.3H770.7z"/>
			<path class="st1" d="M777.9,148.1c0,0.4-0.1,0.7-0.3,0.9c-0.2,0.2-0.5,0.4-0.9,0.4c-0.4,0-0.7-0.1-0.9-0.4
				c-0.2-0.2-0.3-0.6-0.3-0.9c0-0.4,0.1-0.7,0.3-0.9s0.5-0.4,0.9-0.4s0.7,0.1,0.9,0.4C777.8,147.4,777.9,147.7,777.9,148.1z
				 M777.7,165.2h-2.2v-13.5h2.2V165.2z"/>
			<path class="st1" d="M783.3,151.7l0.1,1.5c0.9-1.1,2-1.7,3.3-1.7c2.4,0,3.6,1.6,3.6,4.8v9H788v-8.9c0-1.1-0.2-1.8-0.5-2.3
				c-0.4-0.4-0.9-0.7-1.6-0.7c-0.5,0-1,0.2-1.5,0.5c-0.4,0.4-0.8,0.8-1.1,1.4v9.8h-2.2v-13.5H783.3z"/>
			<path class="st1" d="M800.5,165.2c-0.1-0.3-0.2-0.8-0.3-1.5c-0.8,1.1-1.8,1.7-3,1.7c-1.2,0-2.2-0.3-2.9-1c-0.7-0.7-1-1.7-1-2.9
				c0-1.4,0.5-2.5,1.4-3.3c0.9-0.8,2.2-1.2,3.8-1.2h1.6v-1.4c0-0.8-0.2-1.4-0.5-1.7c-0.4-0.3-0.9-0.5-1.6-0.5
				c-0.7,0-1.2,0.2-1.6,0.6c-0.4,0.4-0.6,0.9-0.6,1.5h-2.2c0-0.7,0.2-1.4,0.6-2c0.4-0.6,1-1.1,1.6-1.5c0.7-0.4,1.5-0.5,2.3-0.5
				c1.4,0,2.4,0.3,3.2,1s1.1,1.7,1.1,3v6.8c0,1,0.2,1.9,0.4,2.7v0.2H800.5z M797.6,163.4c0.5,0,1.1-0.1,1.5-0.4s0.8-0.7,1.1-1.1
				v-3.2h-1.2c-1,0-1.9,0.3-2.5,0.7c-0.6,0.5-0.9,1.1-0.9,1.9c0,0.8,0.2,1.3,0.5,1.7C796.3,163.3,796.8,163.4,797.6,163.4z"/>
			<path class="st1" d="M805.9,164c0-0.4,0.1-0.7,0.4-1c0.2-0.3,0.6-0.4,1.1-0.4s0.8,0.1,1.1,0.4c0.2,0.3,0.4,0.6,0.4,1
				c0,0.4-0.1,0.7-0.4,1c-0.2,0.3-0.6,0.4-1.1,0.4s-0.8-0.1-1.1-0.4S805.9,164.4,805.9,164z"/>
		</g>
		<g>
			<path class="st1" d="M661.3,207h-5l-1,3.7h-3.9l5.7-18.2h3.4l5.7,18.2h-3.9L661.3,207z M659.5,187.6h4l-3.5,3.9h-2.9L659.5,187.6
				z M657.1,203.9h3.4l-1.7-6.5L657.1,203.9z"/>
			<path class="st1" d="M674.4,200.6l-1.2-0.1c-1,0-1.6,0.4-2,1.3v8.9h-3.5v-13.5h3.3l0.1,1.5c0.6-1.1,1.3-1.7,2.3-1.7
				c0.4,0,0.7,0.1,1,0.2L674.4,200.6z"/>
			<path class="st1" d="M681.4,210.9c-1.8,0-3.2-0.5-4.2-1.6c-1-1.1-1.5-2.6-1.5-4.6v-1.1c0-2.1,0.5-3.8,1.4-4.9
				c0.9-1.2,2.3-1.7,4-1.7c1.7,0,3,0.5,3.8,1.6c0.9,1.1,1.3,2.7,1.3,4.8v1.7h-7c0,1,0.3,1.7,0.7,2.2c0.4,0.5,1,0.7,1.8,0.7
				c1.2,0,2.2-0.4,3-1.2l1.4,2.1c-0.4,0.6-1.1,1.1-1.9,1.5S682.4,210.9,681.4,210.9z M679.2,202.6h3.5v-0.3c0-0.8-0.1-1.4-0.4-1.8
				s-0.7-0.6-1.3-0.6c-0.6,0-1.1,0.2-1.3,0.7C679.4,201,679.3,201.7,679.2,202.6z"/>
			<path class="st1" d="M694.6,210.7c-0.1-0.2-0.2-0.6-0.3-1c-0.6,0.9-1.5,1.3-2.6,1.3c-1.1,0-2.1-0.4-2.8-1.1
				c-0.7-0.7-1.1-1.7-1.1-2.9c0-1.4,0.5-2.5,1.4-3.3c0.9-0.8,2.2-1.2,3.9-1.2h1.1v-1.1c0-0.6-0.1-1-0.3-1.3s-0.5-0.4-0.9-0.4
				c-0.9,0-1.3,0.5-1.3,1.5h-3.5c0-1.2,0.5-2.3,1.4-3.1c0.9-0.8,2.1-1.2,3.6-1.2c1.5,0,2.6,0.4,3.4,1.2c0.8,0.8,1.2,1.9,1.2,3.3v6.4
				c0,1.2,0.2,2.1,0.5,2.7v0.2H694.6z M692.5,208.2c0.4,0,0.7-0.1,1-0.2s0.5-0.3,0.6-0.6v-2.8h-0.8c-0.6,0-1.1,0.2-1.4,0.6
				c-0.3,0.4-0.5,0.9-0.5,1.5C691.4,207.7,691.8,208.2,692.5,208.2z"/>
			<path class="st1" d="M711.8,204H710v6.6h-3.7v-18.2h5.9c1.8,0,3.3,0.5,4.3,1.4s1.5,2.3,1.5,4.1c0,2.4-0.9,4.1-2.6,5.1l3.2,7.4
				v0.2h-3.9L711.8,204z M710,201h2.1c0.7,0,1.3-0.2,1.6-0.7c0.4-0.5,0.5-1.1,0.5-2c0-1.8-0.7-2.7-2.1-2.7H710V201z"/>
			<path class="st1" d="M725.8,210.9c-1.8,0-3.2-0.5-4.2-1.6c-1-1.1-1.5-2.6-1.5-4.6v-1.1c0-2.1,0.5-3.8,1.4-4.9
				c0.9-1.2,2.3-1.7,4-1.7c1.7,0,3,0.5,3.8,1.6c0.9,1.1,1.3,2.7,1.3,4.8v1.7h-7c0,1,0.3,1.7,0.7,2.2c0.4,0.5,1,0.7,1.8,0.7
				c1.2,0,2.2-0.4,3-1.2l1.4,2.1c-0.4,0.6-1.1,1.1-1.9,1.5S726.7,210.9,725.8,210.9z M723.5,202.6h3.5v-0.3c0-0.8-0.1-1.4-0.4-1.8
				s-0.7-0.6-1.3-0.6c-0.6,0-1.1,0.2-1.3,0.7C723.7,201,723.6,201.7,723.5,202.6z"/>
			<path class="st1" d="M736.2,210.7h-3.5v-19.2h3.5V210.7z"/>
			<path class="st1" d="M745.4,210.7c-0.1-0.2-0.2-0.6-0.3-1c-0.6,0.9-1.5,1.3-2.6,1.3c-1.1,0-2.1-0.4-2.8-1.1s-1.1-1.7-1.1-2.9
				c0-1.4,0.5-2.5,1.4-3.3c0.9-0.8,2.2-1.2,3.9-1.2h1.1v-1.1c0-0.6-0.1-1-0.3-1.3s-0.5-0.4-0.9-0.4c-0.9,0-1.3,0.5-1.3,1.5h-3.5
				c0-1.2,0.5-2.3,1.4-3.1c0.9-0.8,2.1-1.2,3.6-1.2c1.5,0,2.6,0.4,3.4,1.2s1.2,1.9,1.2,3.3v6.4c0,1.2,0.2,2.1,0.5,2.7v0.2H745.4z
				 M743.3,208.2c0.4,0,0.7-0.1,1-0.2c0.3-0.2,0.5-0.3,0.6-0.6v-2.8h-0.8c-0.6,0-1.1,0.2-1.4,0.6c-0.3,0.4-0.5,0.9-0.5,1.5
				C742.1,207.7,742.5,208.2,743.3,208.2z"/>
			<path class="st1" d="M755.9,208c1,0,1.5-0.7,1.6-2h3.3c0,1.5-0.5,2.7-1.4,3.6s-2,1.4-3.4,1.4c-1.7,0-3.1-0.5-4-1.6
				c-0.9-1.1-1.4-2.7-1.4-4.8v-1.1c0-2.1,0.5-3.7,1.4-4.9c0.9-1.1,2.2-1.7,4-1.7c1.5,0,2.7,0.5,3.5,1.4s1.3,2.2,1.3,3.9h-3.3
				c0-0.8-0.1-1.3-0.4-1.7c-0.2-0.4-0.6-0.6-1.2-0.6c-0.6,0-1.1,0.2-1.3,0.7c-0.3,0.4-0.4,1.3-0.4,2.5v1.4c0,1.1,0.1,1.9,0.2,2.3
				s0.3,0.8,0.5,1C755.1,207.9,755.4,208,755.9,208z"/>
			<path class="st1" d="M762.8,193.7c0-0.5,0.2-1,0.5-1.3s0.8-0.5,1.4-0.5c0.6,0,1,0.2,1.4,0.5c0.3,0.3,0.5,0.8,0.5,1.3
				c0,0.5-0.2,1-0.5,1.3c-0.3,0.4-0.8,0.5-1.4,0.5s-1.1-0.2-1.4-0.5C762.9,194.7,762.8,194.2,762.8,193.7z M766.5,210.7h-3.5v-13.5
				h3.5V210.7z"/>
			<path class="st1" d="M768.8,203.5c0-2,0.5-3.7,1.4-4.8c1-1.2,2.3-1.7,4-1.7c1.7,0,3.1,0.6,4,1.7c1,1.2,1.4,2.8,1.4,4.8v0.9
				c0,2.1-0.5,3.7-1.4,4.8c-1,1.2-2.3,1.7-4,1.7c-1.7,0-3.1-0.6-4-1.7s-1.4-2.8-1.4-4.8V203.5z M772.3,204.4c0,2.4,0.6,3.6,1.9,3.6
				c1.2,0,1.8-1,1.9-3l0-1.5c0-1.2-0.2-2.1-0.5-2.7c-0.3-0.6-0.8-0.9-1.4-0.9c-0.6,0-1.1,0.3-1.4,0.9c-0.3,0.6-0.5,1.5-0.5,2.7
				V204.4z"/>
			<path class="st1" d="M785.2,197.2l0.1,1.3c0.8-1.1,1.8-1.6,3.1-1.6c2.3,0,3.5,1.6,3.6,4.9v8.9h-3.5v-8.6c0-0.8-0.1-1.3-0.3-1.7
				c-0.2-0.3-0.6-0.5-1.2-0.5c-0.6,0-1.1,0.3-1.5,1v9.8h-3.5v-13.5H785.2z"/>
			<path class="st1" d="M800,210.9c-1.8,0-3.2-0.5-4.2-1.6c-1-1.1-1.5-2.6-1.5-4.6v-1.1c0-2.1,0.5-3.8,1.4-4.9
				c0.9-1.2,2.3-1.7,4-1.7c1.7,0,3,0.5,3.8,1.6c0.9,1.1,1.3,2.7,1.3,4.8v1.7h-7c0,1,0.3,1.7,0.7,2.2c0.4,0.5,1,0.7,1.8,0.7
				c1.2,0,2.2-0.4,3-1.2l1.4,2.1c-0.4,0.6-1.1,1.1-1.9,1.5S800.9,210.9,800,210.9z M797.7,202.6h3.5v-0.3c0-0.8-0.2-1.4-0.4-1.8
				c-0.2-0.4-0.7-0.6-1.3-0.6c-0.6,0-1.1,0.2-1.3,0.7C798,201,797.8,201.7,797.7,202.6z"/>
			<path class="st1" d="M812.7,207.1c0-0.3-0.1-0.6-0.4-0.8s-0.9-0.6-1.9-1c-1.5-0.6-2.5-1.2-3-1.8c-0.5-0.6-0.8-1.4-0.8-2.4
				c0-1.2,0.4-2.2,1.3-2.9c0.9-0.8,2-1.2,3.4-1.2c1.5,0,2.7,0.4,3.6,1.1c0.9,0.8,1.3,1.8,1.3,3.1h-3.5c0-1.1-0.5-1.6-1.4-1.6
				c-0.4,0-0.7,0.1-0.9,0.3c-0.2,0.2-0.4,0.6-0.4,1c0,0.3,0.1,0.6,0.4,0.8c0.3,0.2,0.9,0.6,1.9,1c1.4,0.5,2.5,1.1,3.1,1.8
				c0.6,0.7,0.9,1.5,0.9,2.5c0,1.2-0.5,2.2-1.4,2.9s-2.1,1.1-3.6,1.1c-1,0-1.9-0.2-2.6-0.6c-0.8-0.4-1.4-0.9-1.8-1.6
				c-0.4-0.7-0.6-1.4-0.6-2.2h3.4c0,0.6,0.2,1.1,0.4,1.4c0.3,0.3,0.7,0.5,1.3,0.5C812.2,208.3,812.7,207.9,812.7,207.1z"/>
		</g>
		<g>
			<path class="st1" d="M656.5,238h-3.7v-18.2h3.7V238z"/>
			<path class="st1" d="M662.6,224.5l0.1,1.3c0.8-1.1,1.8-1.6,3.1-1.6c2.3,0,3.5,1.6,3.6,4.9v8.9h-3.5v-8.6c0-0.8-0.1-1.3-0.3-1.7
				c-0.2-0.3-0.6-0.5-1.2-0.5c-0.6,0-1.1,0.3-1.5,1v9.8h-3.5v-13.5H662.6z"/>
			<path class="st1" d="M676.1,221.1v3.3h1.8v2.6h-1.8v6.7c0,0.5,0.1,0.9,0.2,1.1c0.1,0.2,0.4,0.3,0.8,0.3c0.3,0,0.6,0,0.8-0.1
				l0,2.7c-0.6,0.2-1.2,0.3-1.9,0.3c-2.3,0-3.4-1.3-3.5-3.9v-7.2H671v-2.6h1.6v-3.3H676.1z"/>
			<path class="st1" d="M685.3,238.2c-1.8,0-3.2-0.5-4.2-1.6c-1-1.1-1.5-2.6-1.5-4.6v-1.1c0-2.1,0.5-3.8,1.4-4.9
				c0.9-1.2,2.3-1.7,4-1.7c1.7,0,3,0.5,3.8,1.6c0.9,1.1,1.3,2.7,1.3,4.8v1.7h-7c0,1,0.3,1.7,0.7,2.2c0.4,0.5,1,0.7,1.8,0.7
				c1.2,0,2.2-0.4,3-1.2l1.4,2.1c-0.4,0.6-1.1,1.1-1.9,1.5S686.2,238.2,685.3,238.2z M683,229.9h3.5v-0.3c0-0.8-0.1-1.4-0.4-1.8
				s-0.7-0.6-1.3-0.6c-0.6,0-1.1,0.2-1.3,0.7C683.2,228.2,683.1,228.9,683,229.9z"/>
			<path class="st1" d="M698.7,227.9l-1.2-0.1c-1,0-1.6,0.4-2,1.3v8.9H692v-13.5h3.3l0.1,1.5c0.6-1.1,1.3-1.7,2.3-1.7
				c0.4,0,0.7,0.1,1,0.2L698.7,227.9z"/>
			<path class="st1" d="M703.7,224.5l0.1,1.3c0.8-1.1,1.8-1.6,3.1-1.6c2.3,0,3.5,1.6,3.6,4.9v8.9H707v-8.6c0-0.8-0.1-1.3-0.3-1.7
				c-0.2-0.3-0.6-0.5-1.2-0.5c-0.6,0-1.1,0.3-1.5,1v9.8h-3.5v-13.5H703.7z"/>
			<path class="st1" d="M719.5,238c-0.1-0.2-0.2-0.6-0.3-1c-0.6,0.9-1.5,1.3-2.6,1.3c-1.1,0-2.1-0.4-2.8-1.1s-1.1-1.7-1.1-2.9
				c0-1.4,0.5-2.5,1.4-3.3c0.9-0.8,2.2-1.2,3.9-1.2h1.1v-1.1c0-0.6-0.1-1-0.3-1.3s-0.5-0.4-0.9-0.4c-0.9,0-1.3,0.5-1.3,1.5h-3.5
				c0-1.2,0.5-2.3,1.4-3.1c0.9-0.8,2.1-1.2,3.6-1.2c1.5,0,2.6,0.4,3.4,1.2s1.2,1.9,1.2,3.3v6.4c0,1.2,0.2,2.1,0.5,2.7v0.2H719.5z
				 M717.4,235.4c0.4,0,0.7-0.1,1-0.2c0.3-0.2,0.5-0.3,0.6-0.6v-2.8h-0.8c-0.6,0-1.1,0.2-1.4,0.6c-0.3,0.4-0.5,0.9-0.5,1.5
				C716.2,234.9,716.6,235.4,717.4,235.4z"/>
			<path class="st1" d="M730,235.3c1,0,1.5-0.7,1.6-2h3.3c0,1.5-0.5,2.7-1.4,3.6s-2,1.4-3.4,1.4c-1.7,0-3.1-0.5-4-1.6
				c-0.9-1.1-1.4-2.7-1.4-4.8v-1.1c0-2.1,0.5-3.7,1.4-4.9c0.9-1.1,2.2-1.7,4-1.7c1.5,0,2.7,0.5,3.5,1.4s1.3,2.2,1.3,3.9h-3.3
				c0-0.8-0.1-1.3-0.4-1.7c-0.2-0.4-0.6-0.6-1.2-0.6c-0.6,0-1.1,0.2-1.3,0.7c-0.3,0.4-0.4,1.3-0.4,2.5v1.4c0,1.1,0.1,1.9,0.2,2.3
				s0.3,0.8,0.5,1C729.2,235.2,729.5,235.3,730,235.3z"/>
			<path class="st1" d="M736.9,221c0-0.5,0.2-1,0.5-1.3s0.8-0.5,1.4-0.5c0.6,0,1,0.2,1.4,0.5c0.3,0.3,0.5,0.8,0.5,1.3
				c0,0.5-0.2,1-0.5,1.3c-0.3,0.4-0.8,0.5-1.4,0.5s-1.1-0.2-1.4-0.5C737.1,221.9,736.9,221.5,736.9,221z M740.6,238H737v-13.5h3.5
				V238z"/>
			<path class="st1" d="M742.9,230.8c0-2,0.5-3.7,1.4-4.8c1-1.2,2.3-1.7,4-1.7c1.7,0,3.1,0.6,4,1.7c1,1.2,1.4,2.8,1.4,4.8v0.9
				c0,2.1-0.5,3.7-1.4,4.8c-1,1.2-2.3,1.7-4,1.7c-1.7,0-3.1-0.6-4-1.7s-1.4-2.8-1.4-4.8V230.8z M746.5,231.7c0,2.4,0.6,3.6,1.9,3.6
				c1.2,0,1.8-1,1.9-3l0-1.5c0-1.2-0.2-2.1-0.5-2.7c-0.3-0.6-0.8-0.9-1.4-0.9c-0.6,0-1.1,0.3-1.4,0.9c-0.3,0.6-0.5,1.5-0.5,2.7
				V231.7z"/>
			<path class="st1" d="M759.3,224.5l0.1,1.3c0.8-1.1,1.8-1.6,3.1-1.6c2.3,0,3.5,1.6,3.6,4.9v8.9h-3.5v-8.6c0-0.8-0.1-1.3-0.3-1.7
				c-0.2-0.3-0.6-0.5-1.2-0.5c-0.6,0-1.1,0.3-1.5,1v9.8H756v-13.5H759.3z"/>
			<path class="st1" d="M775,238c-0.1-0.2-0.2-0.6-0.3-1c-0.6,0.9-1.5,1.3-2.6,1.3c-1.1,0-2.1-0.4-2.8-1.1s-1.1-1.7-1.1-2.9
				c0-1.4,0.5-2.5,1.4-3.3c0.9-0.8,2.2-1.2,3.9-1.2h1.1v-1.1c0-0.6-0.1-1-0.3-1.3s-0.5-0.4-0.9-0.4c-0.9,0-1.3,0.5-1.3,1.5h-3.5
				c0-1.2,0.5-2.3,1.4-3.1c0.9-0.8,2.1-1.2,3.6-1.2c1.5,0,2.6,0.4,3.4,1.2s1.2,1.9,1.2,3.3v6.4c0,1.2,0.2,2.1,0.5,2.7v0.2H775z
				 M773,235.4c0.4,0,0.7-0.1,1-0.2c0.3-0.2,0.5-0.3,0.6-0.6v-2.8h-0.8c-0.6,0-1.1,0.2-1.4,0.6c-0.3,0.4-0.5,0.9-0.5,1.5
				C771.8,234.9,772.2,235.4,773,235.4z"/>
			<path class="st1" d="M784.4,238h-3.5v-19.2h3.5V238z"/>
			<path class="st1" d="M792.6,238.2c-1.8,0-3.2-0.5-4.2-1.6s-1.5-2.6-1.5-4.6v-1.1c0-2.1,0.5-3.8,1.4-4.9c0.9-1.2,2.3-1.7,4-1.7
				c1.7,0,3,0.5,3.8,1.6c0.9,1.1,1.3,2.7,1.3,4.8v1.7h-7c0.1,1,0.3,1.7,0.7,2.2c0.4,0.5,1,0.7,1.8,0.7c1.2,0,2.2-0.4,3-1.2l1.4,2.1
				c-0.4,0.6-1.1,1.1-1.9,1.5C794.4,238,793.5,238.2,792.6,238.2z M790.3,229.9h3.5v-0.3c0-0.8-0.1-1.4-0.4-1.8
				c-0.2-0.4-0.7-0.6-1.3-0.6s-1.1,0.2-1.3,0.7C790.5,228.2,790.4,228.9,790.3,229.9z"/>
			<path class="st1" d="M805.3,234.3c0-0.3-0.1-0.6-0.4-0.8s-0.9-0.6-1.9-1c-1.5-0.6-2.5-1.2-3-1.8c-0.5-0.6-0.8-1.4-0.8-2.4
				c0-1.2,0.4-2.2,1.3-2.9c0.9-0.8,2-1.2,3.4-1.2c1.5,0,2.7,0.4,3.6,1.1c0.9,0.8,1.3,1.8,1.3,3.1h-3.5c0-1.1-0.5-1.6-1.4-1.6
				c-0.4,0-0.7,0.1-0.9,0.3c-0.2,0.2-0.4,0.6-0.4,1c0,0.3,0.1,0.6,0.4,0.8c0.3,0.2,0.9,0.6,1.9,1c1.4,0.5,2.5,1.1,3.1,1.8
				c0.6,0.7,0.9,1.5,0.9,2.5c0,1.2-0.5,2.2-1.4,2.9c-0.9,0.7-2.1,1.1-3.6,1.1c-1,0-1.9-0.2-2.6-0.6s-1.4-0.9-1.8-1.6
				c-0.4-0.7-0.6-1.4-0.6-2.2h3.4c0,0.6,0.2,1.1,0.4,1.4c0.3,0.3,0.7,0.5,1.3,0.5C804.8,235.6,805.3,235.2,805.3,234.3z"/>
			<path class="st1" d="M811.2,236.2c0-0.6,0.2-1,0.6-1.4c0.4-0.4,0.9-0.5,1.5-0.5c0.6,0,1.1,0.2,1.5,0.5c0.4,0.4,0.6,0.8,0.6,1.4
				c0,0.6-0.2,1.1-0.6,1.4c-0.4,0.4-0.9,0.5-1.5,0.5c-0.6,0-1.1-0.2-1.5-0.5C811.4,237.2,811.2,236.7,811.2,236.2z"/>
		</g>
	</g>
	<g>
		<g>
			<rect y="0.7" class="st2" width="293.3" height="293.3"/>
			<g>
				<path class="st1" d="M162.5,50.3c-3.1-0.3-6.2-0.5-9.4-0.7c-1,0-1.9-0.1-2.8-0.1h-3.6c-2,0-3.9,0-5.8,0.1
					c-2.2,0.1-4.3,0.2-6.4,0.3c-10.8,0.8-21.6,2.6-32.4,5.4c-0.3,0.1-0.7,0.2-1.1,0.3c0.3,0.5,0.7,0.5,1.1,0.7
					c0.1,0.1,0.1,0.1,0.2,0.1c0.5,0.3,0.7,0.6,1.4,0.8c0.9,0.1,1.7,0.2,2.5,0c1.7-0.4,1.8-0.6,3,0.4c0.6,0.5,0.7,0.5,0.8,1.3
					c0.1,0.7,0.1,1,0.7,1.5c0.5,0.5,1,0.5,1.3-0.1c0.7-1.5,2.4,0.4,2.4,1.2c-0.1,1.4,0.3,0.5,0.7,1.1c0.3,0.2,0.2,2,1.4,2.4
					c0.5,0.1,0.9,0,1,0.6c0.1,0.2,0,0.5-0.2,0.7c-0.1,0.4-0.3,0.8-0.5,1.2c-0.6,1.4-0.5,2.7,0.1,4.1c0.2,0.3,0.4,0.7,0.6,1.2
					c0.5,1.5,0.6,1.8,1.6,2.4c0.6,0.3,1.3,0.3,2,0.4c0.5,0,0.6,0.1,1.1-0.3c0.5-0.3,0.7-0.3,1.1-0.1c0.9,0.6,0.7,0.1,1.1-0.6
					c0.7-1,1-0.1,1-1.8c0-0.3,0.3-0.7,0.8-0.9c1.2,0.1,1.3-0.5,2.4-0.4c0.5,0.1,1.3,0.1,0.9,1.2c-0.7,0.7-0.7,0.6-0.8,1.6
					c0,0.8-0.1,1.1-0.5,1.6c-0.7,0.8-0.3,0.5-0.5,1.4c-0.1,0.4-0.3,0.6-0.5,1c-0.1,0.5,0.1,0.8,0.9,0.7c0.5-0.1,1-0.1,1.5-0.1
					c0.6,0,1.1,0.1,1.6,0.1c0.8-0.1,1.6,0,2.2,0.6c0.7,0.8,0.5,1,0.3,2.3c-0.1,0.3,0.1,0.6,0.1,1c-0.1,0.6-0.5,1.3-0.5,1.8
					c0,0.3,0.1,0.7,0.1,0.9c0.3,0.5,0.5,0.8,0.8,1.1c0.3,0.4,0.7,0.7,1.3,1.1c1.8,1.1,2-0.1,3.4-0.3c0.8-0.1,1.3-0.1,1.8,0.1
					c0.5,0.2,0.9,0.5,1.4,1c0.5,0.5,0.8,0.7,1.1-0.3c0.1-0.4,0.3-0.7,0.5-0.8c0.5-0.1,0.3-0.1,0.5-0.6c0.1-0.1,0.1-0.1,0.1-0.2v-0.1
					v-0.1c0.2-0.9,1.3-1.5,2.2-1.6h0.2c0.5,0,1.3-0.4,1.6-0.8c0.3-0.4,1.5-1.1,0.9,0.3c-0.2,0.3-0.3,0.3-0.3,0.8
					c0,0.1,0.1,0.2,0.1,0.3c0.2,0.5-0.2,0.7-0.3,1.1c-0.1,0.3,0.3,0.3,0.4,0.3c0.1,0.1,0.1,0.5,0.4,0.7c0.3,0.2,0.6-0.1,0.7-0.5
					v-0.1v-0.3c-0.1-0.2-0.1-0.4-0.1-0.6c-0.1-0.4-0.1-0.6,0.1-0.8c0.1-0.1,0.2-0.1,0.3-0.2c1.1-0.6,1.8-1,2.5-0.4
					c0.1,0.1,0.2,0.2,0.3,0.3c0.9,0.8,0.5,0.9,1.7,0.9c1,0,1.2-0.2,2,0.3c0.5,0.3,2,0.7,2.4,0c0.4-0.8,1.5-0.8,1.8-0.1
					c0.3,0.5,0.5,0.5,1,0.6c0.1,0,0.1,0,0.1,0.1c0.5,0.1,0.5,0.1,0.8,0.4c0.5,0.5-0.1,0.4,0,1c0.1,0.5,0,0.3,0.7,0.3
					c1.1,0,2.6,0.5,2.9,1.7c0.2,0.6,0.8,0.3,1.3,0.7c0.7,0.8,0.4,0.8,1.6,1c0.3,0.1,0.5,0.1,0.7,0c1-0.3,1.4-0.3,2,0.1
					c0.5,0.3,0.7,0.8,1.3,0.7c1-0.2,1.2,0.7,1.9,1.2c0.8,0.7,1.3,0.6,1.3,2c0,1,0.1,0.7,0.6,1.4c0.7,0.9,0.9,1.1-0.1,2.1
					c-0.8,0.7-0.8,1.2,0.5,0.4c0.5-0.3,0.8,0.1,1.6,0.4c0.4,0.3,0.4,0.7,0.1,1c-0.1,1.1-0.2,0.9,0.7,0.3c0.9-0.8,1.6-1,2.8-0.1
					c0.4,0.3,0.8,0.6,1.2,0.9c1.1,0.9,2.2,1.4,3.7,1.4c1,0,1.5,0.4,2.4,0.3c1.1-0.1,2.1,0.4,2.8,1.5c0.3,0.5,0.8,1,1.4,1.2
					c1.4,0.6,1.9-0.1,2.5,1.6c1.1,2.9-1.1,5.3-3,7.3c-0.7,0.9-0.5,1.4-1,2c-0.7,0.7-1.8,0.1-1.6,1.3c0.1,0.5-0.3,0.8-0.4,1.4
					c0,0.3-0.1,0.5,0,0.7c0,0.7,0.3,1.3-0.3,1.8c-0.1,0.6-0.1,1.2-0.3,1.8c-0.6,1.3-1.2,2.2-1.6,2.9c-0.4,0.5-0.5,0.7-1,1
					c-0.7,0.5-0.3,1.2-0.7,1.6c-0.2,0.2-0.3,0.3-0.6,0.5c-0.9,0.6-0.9,0.8-2.1,0.8c-2.3,0-5.5,1.5-6.8,3.6c-0.5,0.8-0.5,1.3-0.6,2
					c-0.1,1.1-0.6,0.9-1.1,1.6c-1,1.1-0.9,2.5-2.1,2c-0.3-0.1-0.4,0.3-0.9,0.8c-0.3,0.3-0.7,0.6-0.8,1.2c-0.1,0.5-0.1,0.6-0.7,1.2
					c-0.4,0.4-0.8,0.8-1.2,1.2c-0.7,1.6-2,1.4-3.6,1.2c-0.4-0.1-1-0.4-1.5-0.5c-1-0.4-0.9,0.3-0.1,0.7c0.3,0.1,0.3,0.2,0.4,0.3
					c0.1,0.7-0.6,0.8,0.3,1.6c0.2,0.5,0,1-0.5,1.6c-0.7,1-1.7,1.4-2.8,1.5c-0.6,0.1-1.3,0-2,0c-1.4-0.1-1-0.3-1.2,0.8
					c-0.1,0.3-0.1,0.5-0.4,0.8c0,1.1-0.7,1.3-1.5,1c-1.6-0.6-0.9-0.7-1.4,0.3c-0.1,0.3-0.1,0.5-0.1,0.7c0,0.1,0.1,0.5,0.2,0.5
					c0.1,0,0.2,0,0.3,0.1c0.5,0,0-0.3,0.7-0.4c0.3,0,0.3,0,0.2,0.3c-0.1,0.5-0.2,0.4-0.7,0.4c-0.5,0-0.6-0.1-0.6,0.5
					c0,0.7-0.4,0.5-0.6,1.1c-0.1,0.2-0.1,0.4-0.2,0.7c-0.2,0.6-0.7,0.5-1.3,0.6c-0.4,0.2-0.7,0.4-0.9,0.7c-0.3,0.4-0.3,0.9,0,1.3
					c0.1,0.1,0.2,0.2,0.3,0.3c0.1,0.1,0.2,0.3,0.4,0.4c0.6,0.1,0.6-0.2,0.6,0.5c0,0.7-0.3,0.7-0.9,1.1c-0.1,0.1-0.3,0.2-0.4,0.3
					c-0.3,0.2-0.4,0.3-0.6,0.8c-0.1,0.5-0.3,0.8-0.7,0.9c-1.2,0.4-1.2,0.6-0.9,1.7c0.2,0.9-0.1,0.7-0.7,0.9
					c-0.2,0.1-0.5,0.1-0.7,0.3c-0.3,0.3-0.5,0.6-0.6,1c-0.6,0.5,0.1,0.1-1.4,0.4c-0.6,0.1-0.6-0.3-0.6-1c-0.1-0.3-0.1-0.5-0.2-0.6
					c-0.1-0.1-0.1-0.1-0.1-0.3c-0.3-0.9,0.1-0.6-0.7-1.3c-0.6-0.4,0.1-0.9-0.2-1.3c-0.4-0.7-0.3-0.3-0.3-1.1
					c-0.1-0.2-0.1-0.4-0.2-0.7c-0.1-0.3-0.1-0.5,0.3-0.7c0.5-0.3,0.5-0.1,0.7-0.7c0.4-1.4,0.2-0.4-0.5-1c-0.2-0.1-0.1-0.5,0.2-0.9
					c0.5-0.6,0.6-0.6,1-0.8c0.1,0,0.1,0,0.3-0.1c0.3-0.1,0.2-0.5,0.4-1.2c-0.1-0.8,0.3-1.3,0.5-1.8c0.3-0.4,0.3-0.9,0.1-1.3
					c-0.4-0.8-1.3,0-1.2-1.3c0.1-1.1,0.3-1,0.6-1.8c0.1-0.4,0.1-0.8,0-1.4c-0.3-1.4-0.2-1.4,0.5-2.6c0.2-0.5,0.5-0.9,0.7-1.4
					c0.1-0.5,0.1-0.8,0.3-1.4c0.5-0.3,0.5-0.5,0.5-1.2c0-0.8,0.3-0.8,0.3-1.6c0-0.7-0.1-0.5-0.3-1.1c-0.1-0.3,0-0.5,0.1-0.7
					c0.3-0.8,0.7-0.5,0.4-1.6c-0.2-0.5,0.2-1.2,0.5-1.7c0.1-0.1,0.1-0.3,0.1-0.3c0.3-0.9,0.5-1.7,0.6-2.7c0.1-0.7,0.2-1.4,0.1-1.9
					c-0.1-0.5-0.1-0.8,0-1.1c0.2-0.7,0.5-0.5,0.3-1.3c-0.1-0.5-0.1-1.2,0-1.4c0.3-0.8-0.1-1.8-0.1-2.9c0.1-1-0.3-1.4-1.1-2
					c-0.1-0.1-0.3-0.2-0.5-0.3c-0.9-0.6-1.8-1.4-2.7-1.8c-0.1-0.1-0.3-0.1-0.4-0.1c-1-0.3-1.1,0.1-2-1.1c-0.3-0.4-0.5-0.7-0.9-1
					c-0.3-0.6,0.4-0.7-0.1-1.4c-0.2-0.3-0.7-0.6-0.8-0.9c-0.9-1.2-1.5-2.5-2-3.7c-0.9-1.8-1.7-3.4-3.1-4.6c-0.5-0.1-0.7-0.3-0.5-0.9
					c0-0.5-0.2-0.8-0.3-1.1c-0.5-1,0.9-1.5,1.6-1.8c0.5-0.3,0.5-0.7,0-1.1c-0.2-0.1-0.4-0.1-0.6-0.1c-1-0.3-0.6-1.6-0.1-2.2
					c0.4-0.4,0.6-1,0.8-1.5c0.1-0.9,0.2-1,0.7-1.2c0.9-0.2,0.8-0.3,1-1.1c0-0.7,0.1-0.7,0.6-0.9c0.1,0,0.1-0.1,0.2-0.1
					c1.5-1.4,1.3-2,1.2-3.9c0-0.9-0.2-1.2-0.7-2.1c-0.3-0.5-0.5-0.5-0.7-0.7c-0.1-0.1-0.1-0.1-0.1-0.3c-0.1-0.8,0.1-0.7-0.5-1.5
					c-0.5-0.4-1.2-0.3-1.6,0.3c-0.1,0.1-0.1,0.4-0.2,0.5c-0.6,0.4-0.5,0.1-0.3,1.1c0.1,0.2,0.1,0.3-0.1,0.4
					c-0.8,0.5-0.7-0.5-1.1-0.6c-0.5-0.2-0.3,0.2-1-0.5c-0.3-0.3-0.4-0.3-0.9-0.3h-0.7c-0.2-0.1-0.3-0.2-0.5-0.6
					c-0.3-0.4,0.1-0.7-0.7-0.9c-0.1,0-0.3,0-0.4-0.1c-0.8-0.5-0.1-0.5-1-0.3c-0.4,0.1-0.8-0.3-0.9-0.9c0.2-1.4-0.1-1.2-1.3-2.2
					c-0.5-0.5-0.7-0.9-0.9-1.4c-0.3-0.7-0.5-0.3-1.1-0.3c-0.4,0.1-1.3-0.1-1.8-0.5c-1.1-0.7-1.3-0.5-2.1-0.7c-0.9-0.1-1.6-1.2-2-1.8
					c-0.5-0.8-1.4-1.3-2.4-1.1c-0.8,0.2-0.9,1-2,0.8c-0.6-0.1-1-0.8-2.4-1c-1.1-0.2-1.7-0.7-2.6-1.1c-1.1-0.4-1.1-1.2-2-1.4
					c-2-0.5-1-0.3-1.9-1.2c-0.2-0.1-0.4-0.3-0.7-0.4c-0.5-0.3-1.4-1.1-0.8-1.7c0.5-0.7,0.6-1.2,0.4-1.7c-0.3-0.5-0.3-0.9-0.2-1.2
					c0.1-0.5-0.8-1.3-1.1-1.7c-0.5-0.7-1.1-1.4-1.6-2.2c-2-0.9,0.2-1.1-0.8-2.1c-0.5,0-0.7-0.3-0.7-0.6c-0.2-0.8,0.1-0.8-0.7-1.5
					c-0.2-0.1-0.4-0.3-0.5-0.8c-0.2-0.5-0.3-0.9-0.5-1.5c0-0.4-0.1-0.7-0.1-1.2c-0.1-1.1,0.1-1-0.9-1.4c-0.3-0.1-0.4-0.1-0.6-0.1
					c-0.1,0.1-0.1,0.1-0.2,0.1c-0.2,0.1-0.3,0.5-0.3,0.8c0.1,0.9-0.1,1.1,0.2,1.7c0.2,0.2,0.3,0.6,0.5,0.8c0.5,0.7,0.6,0.6,0.6,1.4
					c0,0.7-0.1,0.8,0.3,1.5c1.1,1.4,0.8,1.6,1.1,2.8c-0.1,0.7,0,1-0.3,1.1c-0.5,0.1-0.8-0.1-1.2-0.3c-0.4-0.4-0.1-0.7,0.1-1.1
					c0.5-0.9-0.7-1.6-1.2-2c-0.8-0.7-1.3-1.1-0.5-2c0.6-0.6,0.2-1.1-0.1-1.6c-0.9-0.8-1-0.9-1-1.5c0.1-0.7,0.1-0.9-0.1-1.1
					c-5.5,1.6-11,3.5-16.4,5.6v94.6c7,2.7,14,5,21,6.9c10.8,2.8,21.5,4.7,32.4,5.4c2.2,0.1,4.3,0.3,6.4,0.3c2,0.1,3.9,0.1,5.8,0.1
					h1.7c0.3-0.1,0.7-0.1,1-0.2c1.4,0.2,0.3-1,0.9-1.4c0.1,0,0.2-0.1,0.3-0.1c0.6-0.1,0.5-0.1,0.8,0.4c0.3,0.6,0.6,0.9,1.1,1.2h0.6
					c3.2-0.1,6.3-0.3,9.4-0.7c16.6-1.6,33.3-5.5,49.7-12V62.2C195.8,55.8,179.2,51.8,162.5,50.3 M134.9,69.9
					c-0.2,0.1-0.3,0.1-0.5,0.2c-0.1,0.1-0.2,0.3-0.5,0.5c-0.6,0.5-0.9-0.2-0.1-0.7c0.2-0.1,0.4-0.3,0.5-0.3
					C135.4,69.2,136.1,69.8,134.9,69.9 M144.5,73.5c-0.6,0.1-0.7,0-1.2,0.1c-1,0.1-1.2,0.1-1-0.7c0.1-0.7-1.2-0.3-1.5-0.7
					c-0.1-0.1-0.1-0.1,0-0.3v-0.1c-0.4-0.7-0.1-0.5-1.3-0.5c-0.3,0-0.6-0.1-0.8-0.3c-0.5-0.5-0.8-0.7-1.5-0.6
					c-0.7,0.1-1.2-1.2-0.7-1.3c1.1-0.1,0.7,0.4,1.7,0.4c0.6,0,0.8,0.1,1.3,0.5c0.3,0.2,0.5,0.3,1.1,0.3c0.1,0,0.2,0,0.3,0.1
					c0.3,0.1,0.5,0.2,1,0.4c0.2,0.1,0.4,0.3,0.5,0.4c0.4,0.4,0.7,0.7,1.2,0.7c0.7,0.1,0.7,0,1.2,0.5
					C145.3,73.1,145.9,73.3,144.5,73.5 M147.4,75.8c-0.1,0-0.4,0-0.7-0.1c-0.3,0-0.6-0.1-0.6-0.3c0-0.5,0.1-0.3,0.5-0.3h0.1
					c0.3,0,0.3-0.1,0.4,0.3c0.1,0.1,0.2,0.1,0.5,0.1C147.9,75.6,147.7,75.8,147.4,75.8 M151.5,75.2c-0.9,0-1-0.1-1.2,0.3
					c-0.1,0.1-0.1,0.3-0.3,0.5c-0.1,0.2-0.1,0.1-0.5,0c-0.6-0.1-1-0.5-1-0.8c-0.1-0.2-0.1-0.3-0.1-0.5c-1-2-0.3-0.5,1.7-0.9
					c0.1-0.1,0.2-0.1,0.3-0.1c0.6-0.1,0.7-0.2,1.3,0.4c0.1,0.1,0.3,0.3,0.5,0.5C153.6,75.1,151.8,75.6,151.5,75.2 M153.1,75.4
					c-0.1,0-0.3-0.1-0.3-0.3c0-0.2,0.1-0.3,0.3-0.3c0.2,0,0.3,0.1,0.3,0.3C153.4,75.2,153.3,75.4,153.1,75.4 M146.7,155.2
					L146.7,155.2c0.1-0.1,0.1-0.2,0.2-0.5c0-0.3,0.2-0.1,0.1,0.1c-0.1,0.4-0.1,1.2-0.3,1.3c-0.5,0-0.3-0.1-0.3-0.5
					C146.4,155.2,146.3,155.3,146.7,155.2 M102.5,67.9c-0.2,0.1-0.3,0.1-0.4,0.1c0,0-0.1-0.1-0.1-0.1c-0.1-0.7-0.7-0.3-0.5-0.8
					c0.1-0.5,0.4-0.6,0.6-0.5c0.2,0.1,0.3,0.3,0.5,0.5C102.8,67.4,102.9,67.7,102.5,67.9 M164,161.1c-0.3,0.7-0.5,0.5-1.3,0.3h-0.2
					c-0.4,0.1-0.4,0.5-1.1,0.3c-0.4-0.3-0.6-0.6-0.5-0.9c0.1-0.3,0.2-0.5,0.5-0.4c0.4,0.1,0.7,0.1,1.1,0c0.2-0.1,0.4-0.1,0.5-0.2
					C164.2,159.8,164.3,160.5,164,161.1"/>
				<polygon class="st1" points="96.6,194.8 96.6,199.2 86.8,199.2 86.8,205 95.7,205 95.7,209.3 86.8,209.3 86.8,218.6 81.1,218.6 
					81.1,194.8 				"/>
				<polygon class="st1" points="101.5,194.8 107.3,194.8 107.3,214.2 115.6,214.2 115.6,218.6 101.5,218.6 				"/>
				<path class="st1" d="M127.1,194.8h6.1l8.6,23.9h-6.1l-1.6-5.1h-8l-1.6,5.1h-6L127.1,194.8z M127.3,209.3h5.5l-0.9-2.9
					c-0.3-0.9-0.6-1.9-0.9-3c-0.3-1.1-0.6-2-0.8-2.9h-0.1c-0.2,0.9-0.5,1.8-0.9,2.9c-0.3,1-0.6,2-0.9,3L127.3,209.3z"/>
				<path class="st1" d="M156.3,214.6c1.1,0,2.1-0.1,2.9-0.3c0.8-0.2,1.4-0.5,2-0.8l1.1,4.1c-0.5,0.3-1.3,0.6-2.4,0.9
					c-1.1,0.3-2.5,0.5-4.1,0.5c-1.9,0-3.6-0.3-5.2-0.9c-1.6-0.6-2.9-1.4-4-2.5c-1.1-1.1-2-2.4-2.6-3.9c-0.6-1.5-0.9-3.2-0.9-5.1
					c0-1.8,0.3-3.5,0.9-5.1c0.6-1.5,1.4-2.8,2.5-3.9c1.1-1.1,2.4-1.9,4-2.5c1.6-0.6,3.3-0.9,5.3-0.9c1.7,0,3,0.2,4.1,0.5
					c1,0.3,1.9,0.6,2.5,1L161,200c-0.6-0.3-1.3-0.6-2.1-0.9c-0.8-0.3-1.7-0.4-2.6-0.4c-1,0-2,0.1-2.8,0.4c-0.9,0.3-1.7,0.7-2.3,1.4
					c-0.7,0.6-1.2,1.4-1.6,2.4c-0.4,1-0.6,2.2-0.6,3.7c0,1.3,0.2,2.5,0.5,3.5c0.4,1,0.9,1.9,1.5,2.5c0.7,0.7,1.4,1.2,2.3,1.5
					C154.3,214.5,155.2,214.6,156.3,214.6"/>
				<path class="st1" d="M175.3,194.3c1.7,0,3.1,0.2,4.3,0.5c1.2,0.3,2.3,0.8,3.1,1.2l-1.3,4.2c-1-0.5-2-0.9-3-1.2
					c-1-0.3-2-0.4-2.9-0.4c-1.2,0-2,0.2-2.6,0.6c-0.6,0.4-0.9,1-0.9,1.7c0,0.8,0.3,1.4,0.9,1.8c0.6,0.4,1.5,0.8,2.7,1.2l2.2,0.7
					c0.9,0.3,1.7,0.7,2.5,1.1c0.8,0.4,1.4,1,1.9,1.5c0.5,0.6,1,1.2,1.3,2c0.3,0.7,0.5,1.5,0.5,2.4c0,1-0.2,2-0.6,2.9
					c-0.4,0.9-1,1.7-1.7,2.4c-0.8,0.7-1.7,1.2-2.9,1.6c-1.2,0.4-2.6,0.6-4.1,0.6c-1.5,0-2.9-0.2-4.3-0.5c-1.3-0.3-2.6-0.8-3.7-1.3
					l1.3-4.2c1.1,0.5,2.2,0.9,3.2,1.3c1,0.3,2.1,0.5,3.3,0.5c1.3,0,2.3-0.2,2.9-0.7c0.6-0.4,0.9-1,0.9-1.8c0-0.3-0.1-0.5-0.1-0.8
					c-0.1-0.3-0.3-0.5-0.6-0.8c-0.3-0.3-0.7-0.5-1.2-0.7c-0.5-0.2-1.2-0.5-2-0.7l-1.8-0.6c-0.9-0.3-1.7-0.7-2.5-1.1
					c-0.8-0.4-1.4-0.9-1.9-1.4c-0.5-0.5-1-1.2-1.3-1.9c-0.3-0.7-0.5-1.6-0.5-2.6c0-1,0.2-2,0.6-2.9c0.4-0.9,1-1.6,1.7-2.3
					c0.8-0.6,1.7-1.2,2.8-1.5C172.6,194.5,173.9,194.3,175.3,194.3"/>
				<path class="st1" d="M200.5,194.3c1.7,0,3.3,0.3,4.8,0.9c1.5,0.6,2.7,1.4,3.8,2.4c1.1,1.1,1.9,2.4,2.5,3.9
					c0.6,1.5,0.9,3.3,0.9,5.2c0,1.9-0.3,3.6-0.9,5.1c-0.6,1.5-1.5,2.8-2.5,3.9c-1.1,1.1-2.3,1.9-3.8,2.5c-1.5,0.6-3.1,0.9-4.8,0.9
					c-1.7,0-3.3-0.3-4.8-0.8c-1.5-0.6-2.7-1.4-3.8-2.4c-1.1-1-1.9-2.3-2.5-3.9c-0.6-1.5-0.9-3.3-0.9-5.2c0-1.9,0.3-3.6,0.9-5.1
					c0.6-1.5,1.5-2.8,2.5-3.9c1.1-1.1,2.4-1.9,3.8-2.5C197.2,194.6,198.8,194.3,200.5,194.3 M194.5,206.7c0,1.3,0.1,2.5,0.5,3.5
					c0.3,1,0.8,1.8,1.3,2.5c0.5,0.7,1.2,1.2,1.9,1.5c0.7,0.3,1.5,0.5,2.3,0.5c0.8,0,1.6-0.2,2.3-0.5c0.7-0.3,1.3-0.8,1.9-1.5
					c0.5-0.7,0.9-1.5,1.3-2.5c0.3-1,0.5-2.2,0.5-3.5c0-1.4-0.2-2.6-0.5-3.6c-0.3-1-0.7-1.9-1.3-2.5c-0.6-0.7-1.2-1.2-1.9-1.5
					c-0.7-0.3-1.5-0.5-2.3-0.5c-0.8,0-1.6,0.2-2.3,0.5c-0.7,0.3-1.3,0.9-1.9,1.5c-0.5,0.7-0.9,1.5-1.3,2.5
					C194.6,204.2,194.5,205.4,194.5,206.7"/>
				<path class="st1" d="M86,232.1h1.4l5,13h-1.6l-1.4-3.7h-5.6l-1.4,3.7h-1.5L86,232.1z M84.2,240.1h4.7l-1-2.8
					c-0.2-0.5-0.4-1-0.6-1.6c-0.2-0.6-0.4-1.3-0.7-2h0c-0.1,0.4-0.2,0.7-0.3,1c-0.1,0.3-0.2,0.6-0.3,0.9c-0.1,0.3-0.2,0.6-0.3,0.9
					c-0.1,0.3-0.2,0.6-0.3,0.9L84.2,240.1z"/>
				<path class="st1" d="M98.4,232.1h4c0.7,0,1.3,0.1,1.8,0.3c0.5,0.2,0.9,0.4,1.3,0.8c0.3,0.3,0.6,0.7,0.8,1.2
					c0.2,0.5,0.3,1,0.3,1.5c0,0.5-0.1,0.9-0.2,1.4c-0.1,0.4-0.4,0.8-0.6,1.1c-0.3,0.3-0.5,0.6-0.9,0.8c-0.3,0.2-0.7,0.4-1,0.5
					l3.5,5.6h-1.7l-3.2-5.3h-2.6v5.3h-1.4V232.1z M99.8,238.5h2c0.5,0,0.9,0,1.3-0.1c0.4-0.1,0.7-0.3,1-0.5c0.3-0.2,0.5-0.5,0.7-0.8
					c0.2-0.3,0.2-0.7,0.2-1.2c0-0.9-0.3-1.6-0.8-2c-0.5-0.4-1.3-0.6-2.3-0.6h-2.1V238.5z"/>
				<path class="st1" d="M118.9,232c0.8,0,1.4,0.1,2,0.2c0.6,0.1,1.1,0.3,1.6,0.6l-0.4,1.1c-0.5-0.2-1-0.4-1.5-0.5
					c-0.5-0.1-1-0.2-1.6-0.2c-0.7,0-1.3,0.1-1.9,0.3c-0.6,0.2-1.1,0.5-1.6,0.9c-0.5,0.4-0.8,1-1.1,1.6c-0.3,0.7-0.4,1.5-0.4,2.5
					c0,0.8,0.1,1.6,0.4,2.3c0.2,0.7,0.6,1.2,1,1.7c0.4,0.4,0.9,0.8,1.5,1c0.6,0.2,1.2,0.3,2,0.3c0.5,0,1,0,1.4-0.1
					c0.4-0.1,0.7-0.2,1-0.3v-4.1h-2.6v-1.2h4v6.2c-0.5,0.2-1.1,0.4-1.7,0.5c-0.6,0.1-1.3,0.2-2.2,0.2c-0.9,0-1.7-0.1-2.5-0.4
					c-0.8-0.3-1.4-0.7-2-1.3c-0.6-0.5-1-1.2-1.4-2c-0.3-0.8-0.5-1.7-0.5-2.8c0-1.1,0.2-2,0.5-2.8c0.3-0.8,0.8-1.5,1.3-2
					c0.6-0.5,1.2-1,2-1.2C117.2,232.2,118,232,118.9,232"/>
				<polygon class="st1" points="129.8,232.1 137.4,232.1 137.4,233.3 131.3,233.3 131.3,237.7 136.9,237.7 136.9,238.9 
					131.3,238.9 131.3,243.8 137.5,243.8 137.5,245 129.8,245 				"/>
				<path class="st1" d="M144.1,232.1h1.3l5.8,8.4c0.3,0.4,0.5,0.8,0.8,1.2c0.3,0.4,0.5,0.8,0.7,1.2h0c0-0.5,0-1,0-1.5
					c0-0.5,0-1,0-1.5v-7.7h1.4v13h-1.3l-5.7-8.1c-0.3-0.4-0.6-0.9-0.9-1.3c-0.3-0.5-0.5-0.9-0.8-1.4h0c0,0.6,0,1.2,0.1,1.8
					c0,0.6,0,1.2,0,1.8v7.2h-1.4V232.1z"/>
				<polygon class="st1" points="170,232.1 170,233.3 165.8,233.3 165.8,245 164.3,245 164.3,233.3 160.1,233.3 160.1,232.1 				"/>
				<rect x="176" y="232.1" class="st1" width="1.5" height="13"/>
				<path class="st1" d="M184.8,232.1h1.3l5.8,8.4c0.3,0.4,0.5,0.8,0.8,1.2c0.3,0.4,0.5,0.8,0.7,1.2h0c0-0.5,0-1,0-1.5
					c0-0.5,0-1,0-1.5v-7.7h1.4v13h-1.3l-5.7-8.1c-0.3-0.4-0.6-0.9-0.9-1.3c-0.3-0.5-0.5-0.9-0.8-1.4h0c0,0.6,0,1.2,0.1,1.8
					c0,0.6,0,1.2,0,1.8v7.2h-1.4V232.1z"/>
				<path class="st1" d="M206,232.1h1.4l5,13h-1.6l-1.4-3.7h-5.5l-1.4,3.7h-1.5L206,232.1z M204.2,240.1h4.7l-1-2.8
					c-0.2-0.5-0.4-1-0.6-1.6c-0.2-0.6-0.4-1.3-0.7-2h0c-0.1,0.4-0.2,0.7-0.3,1c-0.1,0.3-0.2,0.6-0.3,0.9c-0.1,0.3-0.2,0.6-0.3,0.9
					c-0.1,0.3-0.2,0.6-0.3,0.9L204.2,240.1z"/>
			</g>
		</g>
	</g>
	<g>
		<g>
			<g>
				<rect x="301.4" y="0.7" class="st3" width="293.3" height="293.2"/>
				<g>
					<path class="st1" d="M348.5,69.9h-6.1v7.9h-2.3v-18h9.4v1.9h-7.1v6.2h6.1V69.9z"/>
					<path class="st1" d="M358.5,77.8c-0.1-0.3-0.2-0.8-0.3-1.5c-0.8,1.1-1.8,1.7-3,1.7c-1.2,0-2.2-0.3-2.8-1c-0.7-0.7-1-1.6-1-2.9
						c0-1.4,0.5-2.4,1.4-3.2c0.9-0.8,2.2-1.2,3.8-1.2h1.6v-1.4c0-0.8-0.2-1.4-0.5-1.7c-0.4-0.3-0.9-0.5-1.6-0.5
						c-0.7,0-1.2,0.2-1.6,0.6c-0.4,0.4-0.6,0.9-0.6,1.5h-2.2c0-0.7,0.2-1.3,0.6-2c0.4-0.6,0.9-1.1,1.6-1.5c0.7-0.4,1.4-0.5,2.3-0.5
						c1.4,0,2.4,0.3,3.1,1s1.1,1.7,1.1,3v6.7c0,1,0.1,1.9,0.4,2.7v0.2H358.5z M355.6,76c0.5,0,1-0.1,1.5-0.4
						c0.5-0.3,0.8-0.7,1.1-1.1v-3.2H357c-1,0-1.9,0.2-2.5,0.7c-0.6,0.4-0.9,1.1-0.9,1.9c0,0.8,0.2,1.3,0.5,1.6
						C354.4,75.9,354.9,76,355.6,76z"/>
					<path class="st1" d="M368.4,76.2c0.7,0,1.3-0.2,1.7-0.7s0.7-1.1,0.7-1.9h2.1c0,1.3-0.5,2.3-1.4,3.2c-0.9,0.8-1.9,1.3-3.2,1.3
						c-1.7,0-2.9-0.5-3.8-1.6s-1.3-2.6-1.3-4.6v-1.5c0-2,0.4-3.5,1.3-4.6c0.9-1,2.1-1.6,3.8-1.6c1.4,0,2.4,0.4,3.3,1.3
						c0.8,0.9,1.2,2,1.3,3.5h-2.1c0-1-0.3-1.7-0.7-2.2c-0.4-0.5-1-0.7-1.8-0.7c-1,0-1.7,0.3-2.2,1c-0.5,0.6-0.7,1.7-0.7,3.1v1.7
						c0,1.6,0.2,2.7,0.7,3.3C366.6,75.8,367.4,76.2,368.4,76.2z"/>
					<path class="st1" d="M382.2,76.6c-0.7,0.9-1.8,1.4-3.2,1.4c-1.2,0-2.1-0.4-2.7-1.3c-0.6-0.8-0.9-2.1-0.9-3.6v-8.7h2.2V73
						c0,2.1,0.6,3.1,1.9,3.1c1.3,0,2.2-0.6,2.7-1.8v-9.9h2.2v13.3h-2.1L382.2,76.6z"/>
					<path class="st1" d="M390,77.8h-2.2v-19h2.2V77.8z"/>
					<path class="st1" d="M396.3,61.2v3.2h2v1.8h-2v8.3c0,0.5,0.1,0.9,0.3,1.2c0.2,0.3,0.5,0.4,0.9,0.4c0.3,0,0.6,0,0.9-0.1l0,1.8
						c-0.5,0.2-1,0.2-1.5,0.2c-0.9,0-1.5-0.3-2-0.9c-0.5-0.6-0.7-1.5-0.7-2.6v-8.3h-2v-1.8h2v-3.2H396.3z"/>
					<path class="st1" d="M407.8,77.8c-0.1-0.3-0.2-0.8-0.3-1.5c-0.8,1.1-1.8,1.7-3,1.7c-1.2,0-2.2-0.3-2.8-1c-0.7-0.7-1-1.6-1-2.9
						c0-1.4,0.5-2.4,1.4-3.2c0.9-0.8,2.2-1.2,3.8-1.2h1.6v-1.4c0-0.8-0.2-1.4-0.5-1.7c-0.4-0.3-0.9-0.5-1.6-0.5
						c-0.7,0-1.2,0.2-1.6,0.6c-0.4,0.4-0.6,0.9-0.6,1.5h-2.2c0-0.7,0.2-1.3,0.6-2c0.4-0.6,0.9-1.1,1.6-1.5c0.7-0.4,1.4-0.5,2.3-0.5
						c1.4,0,2.4,0.3,3.1,1s1.1,1.7,1.1,3v6.7c0,1,0.1,1.9,0.4,2.7v0.2H407.8z M404.8,76c0.5,0,1-0.1,1.5-0.4
						c0.5-0.3,0.8-0.7,1.1-1.1v-3.2h-1.2c-1,0-1.9,0.2-2.5,0.7c-0.6,0.4-0.9,1.1-0.9,1.9c0,0.8,0.2,1.3,0.5,1.6
						C403.6,75.9,404.1,76,404.8,76z"/>
					<path class="st1" d="M412.5,70.5c0-2.1,0.4-3.6,1.2-4.7c0.8-1.1,1.9-1.6,3.3-1.6c1.3,0,2.3,0.5,3,1.6v-6.9h2.2v19h-2l-0.1-1.4
						c-0.7,1.1-1.7,1.7-3.1,1.7c-1.4,0-2.5-0.5-3.3-1.6c-0.8-1.1-1.2-2.6-1.2-4.5V70.5z M414.7,71.7c0,1.5,0.2,2.6,0.7,3.3
						c0.4,0.7,1.2,1.1,2.2,1.1c1.1,0,1.9-0.5,2.4-1.6v-6.7c-0.6-1.1-1.4-1.6-2.4-1.6c-1,0-1.7,0.4-2.2,1.1c-0.4,0.7-0.7,1.8-0.7,3.2
						V71.7z"/>
				</g>
				<g>
					<path class="st1" d="M342.5,101.6h7v1.9h-9.3v-18h2.3V101.6z"/>
					<path class="st1" d="M358.8,103.5c-0.1-0.3-0.2-0.8-0.3-1.5c-0.8,1.1-1.8,1.7-3,1.7c-1.2,0-2.2-0.3-2.8-1c-0.7-0.7-1-1.6-1-2.9
						c0-1.4,0.5-2.4,1.4-3.2c0.9-0.8,2.2-1.2,3.8-1.2h1.6V94c0-0.8-0.2-1.4-0.5-1.7c-0.4-0.3-0.9-0.5-1.6-0.5
						c-0.7,0-1.2,0.2-1.6,0.6c-0.4,0.4-0.6,0.9-0.6,1.5h-2.2c0-0.7,0.2-1.3,0.6-2c0.4-0.6,0.9-1.1,1.6-1.5c0.7-0.4,1.4-0.5,2.3-0.5
						c1.4,0,2.4,0.3,3.1,1s1.1,1.7,1.1,3v6.7c0,1,0.1,1.9,0.4,2.7v0.2H358.8z M355.9,101.8c0.5,0,1-0.1,1.5-0.4
						c0.5-0.3,0.8-0.7,1.1-1.1V97h-1.2c-1,0-1.9,0.2-2.5,0.7c-0.6,0.4-0.9,1.1-0.9,1.9c0,0.8,0.2,1.3,0.5,1.6
						C354.6,101.6,355.1,101.8,355.9,101.8z"/>
					<path class="st1" d="M366.9,86.9v3.2h2v1.8h-2v8.3c0,0.5,0.1,0.9,0.3,1.2c0.2,0.3,0.5,0.4,0.9,0.4c0.3,0,0.6,0,0.9-0.1l0,1.8
						c-0.5,0.2-1,0.2-1.5,0.2c-0.9,0-1.5-0.3-2-0.9c-0.5-0.6-0.7-1.5-0.7-2.6v-8.3h-2v-1.8h2v-3.2H366.9z"/>
					<path class="st1" d="M374,86.6c0,0.4-0.1,0.7-0.3,0.9s-0.5,0.4-0.9,0.4c-0.4,0-0.7-0.1-0.9-0.4s-0.3-0.6-0.3-0.9
						s0.1-0.7,0.3-0.9s0.5-0.4,0.9-0.4s0.7,0.1,0.9,0.4C373.9,85.9,374,86.3,374,86.6z M373.8,103.5h-2.2V90.2h2.2V103.5z"/>
					<path class="st1" d="M379.3,90.2l0.1,1.4c0.8-1.1,1.9-1.7,3.2-1.7c2.4,0,3.6,1.6,3.6,4.7v8.9H384v-8.8c0-1-0.2-1.8-0.5-2.2
						c-0.3-0.4-0.9-0.7-1.6-0.7c-0.5,0-1,0.2-1.5,0.5c-0.4,0.4-0.8,0.8-1,1.4v9.7h-2.2V90.2H379.3z"/>
					<path class="st1" d="M389,96.2c0-1.9,0.5-3.5,1.4-4.6s2.2-1.7,3.7-1.7s2.8,0.6,3.7,1.7c0.9,1.1,1.4,2.6,1.4,4.5v1.4
						c0,1.9-0.5,3.5-1.4,4.6c-0.9,1.1-2.2,1.7-3.8,1.7c-1.5,0-2.8-0.5-3.7-1.6s-1.4-2.6-1.4-4.4V96.2z M391.2,97.5
						c0,1.4,0.3,2.5,0.8,3.2c0.5,0.8,1.3,1.2,2.2,1.2c1.9,0,2.9-1.4,3-4.2v-1.5c0-1.4-0.3-2.4-0.8-3.2c-0.5-0.8-1.3-1.2-2.2-1.2
						c-0.9,0-1.6,0.4-2.2,1.2c-0.5,0.8-0.8,1.9-0.8,3.2V97.5z"/>
					<path class="st1" d="M409,103.5c-0.1-0.3-0.2-0.8-0.3-1.5c-0.8,1.1-1.8,1.7-3,1.7c-1.2,0-2.2-0.3-2.8-1c-0.7-0.7-1-1.6-1-2.9
						c0-1.4,0.5-2.4,1.4-3.2c0.9-0.8,2.2-1.2,3.8-1.2h1.6V94c0-0.8-0.2-1.4-0.5-1.7c-0.4-0.3-0.9-0.5-1.6-0.5
						c-0.7,0-1.2,0.2-1.6,0.6c-0.4,0.4-0.6,0.9-0.6,1.5h-2.2c0-0.7,0.2-1.3,0.6-2c0.4-0.6,0.9-1.1,1.6-1.5c0.7-0.4,1.4-0.5,2.3-0.5
						c1.4,0,2.4,0.3,3.1,1s1.1,1.7,1.1,3v6.7c0,1,0.1,1.9,0.4,2.7v0.2H409z M406.1,101.8c0.5,0,1-0.1,1.5-0.4
						c0.5-0.3,0.8-0.7,1.1-1.1V97h-1.2c-1,0-1.9,0.2-2.5,0.7c-0.6,0.4-0.9,1.1-0.9,1.9c0,0.8,0.2,1.3,0.5,1.6
						C404.9,101.6,405.4,101.8,406.1,101.8z"/>
					<path class="st1" d="M416.3,90.2l0,1.2c0.8-1,1.9-1.5,3.2-1.5c1.5,0,2.5,0.6,3.1,1.9c0.8-1.3,2-1.9,3.5-1.9
						c2.5,0,3.7,1.5,3.8,4.6v9h-2.2v-8.8c0-1-0.2-1.7-0.5-2.2c-0.3-0.5-0.9-0.7-1.8-0.7c-0.7,0-1.2,0.3-1.6,0.8
						c-0.4,0.5-0.6,1.2-0.7,1.9v8.9H421v-8.9c0-1.9-0.8-2.8-2.3-2.8c-1.1,0-1.9,0.6-2.3,1.7v10h-2.2V90.2H416.3z"/>
					<path class="st1" d="M438.1,103.8c-1.7,0-2.9-0.5-3.8-1.5s-1.3-2.4-1.4-4.4v-1.6c0-2,0.4-3.6,1.3-4.7s2.1-1.7,3.6-1.7
						c1.6,0,2.7,0.5,3.5,1.5s1.2,2.5,1.2,4.7v1.4h-7.5v0.3c0,1.4,0.3,2.5,0.8,3.1c0.5,0.6,1.3,1,2.3,1c0.6,0,1.2-0.1,1.7-0.4
						c0.5-0.2,0.9-0.6,1.4-1.2l1.1,1.4C441.4,103.1,440,103.8,438.1,103.8z M437.8,91.8c-0.9,0-1.6,0.3-2,0.9
						c-0.4,0.6-0.7,1.6-0.7,2.9h5.3v-0.3c-0.1-1.3-0.3-2.2-0.7-2.7C439.2,92.1,438.6,91.8,437.8,91.8z"/>
					<path class="st1" d="M450.6,92.2c-0.3-0.1-0.6-0.1-1-0.1c-1.1,0-1.9,0.6-2.3,1.8v9.5h-2.2V90.2h2.1l0,1.4
						c0.6-1.1,1.4-1.6,2.5-1.6c0.3,0,0.6,0.1,0.9,0.2L450.6,92.2z"/>
					<path class="st1" d="M455.3,86.6c0,0.4-0.1,0.7-0.3,0.9c-0.2,0.2-0.5,0.4-0.9,0.4c-0.4,0-0.7-0.1-0.9-0.4
						c-0.2-0.2-0.3-0.6-0.3-0.9s0.1-0.7,0.3-0.9c0.2-0.3,0.5-0.4,0.9-0.4s0.7,0.1,0.9,0.4C455.2,85.9,455.3,86.3,455.3,86.6z
						 M455.2,103.5H453V90.2h2.2V103.5z"/>
					<path class="st1" d="M463.2,101.9c0.7,0,1.3-0.2,1.7-0.7c0.4-0.4,0.7-1.1,0.7-1.9h2.1c0,1.3-0.5,2.3-1.4,3.2
						c-0.9,0.8-1.9,1.3-3.2,1.3c-1.7,0-2.9-0.5-3.8-1.6c-0.9-1-1.3-2.6-1.3-4.6v-1.5c0-2,0.4-3.5,1.3-4.6c0.9-1,2.1-1.6,3.8-1.6
						c1.4,0,2.4,0.4,3.2,1.3c0.8,0.9,1.2,2,1.3,3.5h-2.1c0-1-0.3-1.7-0.7-2.2c-0.4-0.5-1-0.7-1.8-0.7c-1,0-1.7,0.3-2.2,1
						c-0.5,0.6-0.7,1.7-0.7,3.1v1.7c0,1.6,0.2,2.7,0.7,3.3S462.2,101.9,463.2,101.9z"/>
					<path class="st1" d="M477.1,103.5c-0.1-0.3-0.2-0.8-0.3-1.5c-0.8,1.1-1.8,1.7-3,1.7c-1.2,0-2.2-0.3-2.8-1c-0.7-0.7-1-1.6-1-2.9
						c0-1.4,0.5-2.4,1.4-3.2s2.2-1.2,3.8-1.2h1.6V94c0-0.8-0.2-1.4-0.5-1.7c-0.4-0.3-0.9-0.5-1.6-0.5c-0.7,0-1.2,0.2-1.6,0.6
						c-0.4,0.4-0.6,0.9-0.6,1.5h-2.2c0-0.7,0.2-1.3,0.6-2c0.4-0.6,0.9-1.1,1.6-1.5s1.4-0.5,2.3-0.5c1.4,0,2.4,0.3,3.1,1
						c0.7,0.7,1.1,1.7,1.1,3v6.7c0,1,0.1,1.9,0.4,2.7v0.2H477.1z M474.2,101.8c0.5,0,1-0.1,1.5-0.4c0.5-0.3,0.8-0.7,1.1-1.1V97h-1.2
						c-1,0-1.9,0.2-2.5,0.7c-0.6,0.4-0.9,1.1-0.9,1.9c0,0.8,0.2,1.3,0.5,1.6C473,101.6,473.5,101.8,474.2,101.8z"/>
					<path class="st1" d="M484.4,90.2l0.1,1.4c0.8-1.1,1.9-1.7,3.2-1.7c2.4,0,3.6,1.6,3.6,4.7v8.9h-2.2v-8.8c0-1-0.2-1.8-0.5-2.2
						c-0.3-0.4-0.9-0.7-1.6-0.7c-0.5,0-1,0.2-1.5,0.5c-0.4,0.4-0.8,0.8-1,1.4v9.7h-2.2V90.2H484.4z"/>
					<path class="st1" d="M501.5,103.5c-0.1-0.3-0.2-0.8-0.3-1.5c-0.8,1.1-1.8,1.7-3,1.7c-1.2,0-2.2-0.3-2.8-1c-0.7-0.7-1-1.6-1-2.9
						c0-1.4,0.5-2.4,1.4-3.2c0.9-0.8,2.2-1.2,3.8-1.2h1.6V94c0-0.8-0.2-1.4-0.5-1.7c-0.4-0.3-0.9-0.5-1.6-0.5
						c-0.7,0-1.2,0.2-1.6,0.6c-0.4,0.4-0.6,0.9-0.6,1.5h-2.2c0-0.7,0.2-1.3,0.6-2s0.9-1.1,1.6-1.5c0.7-0.4,1.4-0.5,2.3-0.5
						c1.4,0,2.4,0.3,3.1,1c0.7,0.7,1.1,1.7,1.1,3v6.7c0,1,0.1,1.9,0.4,2.7v0.2H501.5z M498.6,101.8c0.5,0,1-0.1,1.5-0.4
						c0.5-0.3,0.8-0.7,1.1-1.1V97h-1.2c-1,0-1.9,0.2-2.5,0.7c-0.6,0.4-0.9,1.1-0.9,1.9c0,0.8,0.2,1.3,0.5,1.6
						S497.8,101.8,498.6,101.8z"/>
					<path class="st1" d="M512,96.2c0-2.1,0.4-3.6,1.2-4.7c0.8-1.1,1.9-1.6,3.3-1.6c1.3,0,2.3,0.5,3,1.6v-6.9h2.2v19h-2l-0.1-1.4
						c-0.7,1.1-1.7,1.7-3.1,1.7c-1.4,0-2.5-0.5-3.3-1.6s-1.2-2.6-1.2-4.5V96.2z M514.2,97.5c0,1.5,0.2,2.6,0.7,3.3s1.2,1.1,2.2,1.1
						c1.1,0,1.9-0.5,2.4-1.6v-6.7c-0.6-1.1-1.4-1.6-2.4-1.6c-1,0-1.7,0.4-2.2,1.1c-0.4,0.7-0.7,1.8-0.7,3.2V97.5z"/>
					<path class="st1" d="M529.8,103.8c-1.7,0-2.9-0.5-3.8-1.5c-0.9-1-1.3-2.4-1.4-4.4v-1.6c0-2,0.4-3.6,1.3-4.7
						c0.9-1.1,2.1-1.7,3.6-1.7c1.6,0,2.7,0.5,3.5,1.5c0.8,1,1.2,2.5,1.2,4.7v1.4h-7.5v0.3c0,1.4,0.3,2.5,0.8,3.1
						c0.5,0.6,1.3,1,2.3,1c0.6,0,1.2-0.1,1.7-0.4s0.9-0.6,1.4-1.2l1.1,1.4C533.2,103.1,531.7,103.8,529.8,103.8z M529.5,91.8
						c-0.9,0-1.6,0.3-2,0.9c-0.4,0.6-0.7,1.6-0.7,2.9h5.3v-0.3c-0.1-1.3-0.3-2.2-0.7-2.7C531,92.1,530.4,91.8,529.5,91.8z"/>
				</g>
				<g>
					<path class="st1" d="M351.5,123.5c-0.1,1.9-0.6,3.4-1.6,4.4c-1,1-2.4,1.5-4.2,1.5c-1.8,0-3.2-0.7-4.3-2.1
						c-1.1-1.4-1.6-3.2-1.6-5.6v-3.3c0-2.3,0.5-4.2,1.6-5.5c1.1-1.4,2.6-2,4.5-2c1.7,0,3.1,0.5,4,1.6c1,1,1.5,2.5,1.5,4.5h-2.3
						c-0.1-1.5-0.4-2.5-0.9-3.1c-0.5-0.6-1.3-0.9-2.4-0.9c-1.2,0-2.2,0.5-2.8,1.4c-0.7,1-1,2.4-1,4.2v3.3c0,1.8,0.3,3.2,0.9,4.2
						s1.5,1.5,2.7,1.5c1.2,0,2-0.3,2.5-0.9c0.5-0.6,0.8-1.6,1-3.1H351.5z"/>
					<path class="st1" d="M356.8,112.3c0,0.4-0.1,0.7-0.3,0.9s-0.5,0.4-0.9,0.4c-0.4,0-0.7-0.1-0.9-0.4s-0.3-0.6-0.3-0.9
						s0.1-0.7,0.3-0.9s0.5-0.4,0.9-0.4s0.7,0.1,0.9,0.4C356.7,111.7,356.8,112,356.8,112.3z M356.6,129.2h-2.2v-13.3h2.2V129.2z"/>
					<path class="st1" d="M364.8,129.5c-1.7,0-2.9-0.5-3.8-1.5c-0.9-1-1.3-2.4-1.4-4.4V122c0-2,0.4-3.6,1.3-4.7s2.1-1.7,3.6-1.7
						c1.6,0,2.7,0.5,3.5,1.5s1.2,2.5,1.2,4.7v1.4h-7.5v0.3c0,1.4,0.3,2.5,0.8,3.1c0.5,0.6,1.3,1,2.3,1c0.6,0,1.2-0.1,1.7-0.4
						c0.5-0.2,0.9-0.6,1.4-1.2l1.1,1.4C368.2,128.8,366.7,129.5,364.8,129.5z M364.5,117.5c-0.9,0-1.6,0.3-2,0.9
						c-0.4,0.6-0.7,1.6-0.7,2.9h5.3V121c-0.1-1.3-0.3-2.2-0.7-2.7C366,117.8,365.4,117.5,364.5,117.5z"/>
					<path class="st1" d="M373.9,115.9l0.1,1.4c0.8-1.1,1.9-1.7,3.2-1.7c2.4,0,3.6,1.6,3.6,4.7v8.9h-2.2v-8.8c0-1-0.2-1.8-0.5-2.2
						c-0.3-0.4-0.9-0.7-1.6-0.7c-0.5,0-1,0.2-1.5,0.5c-0.4,0.4-0.8,0.8-1,1.4v9.7h-2.2v-13.3H373.9z"/>
					<path class="st1" d="M388.7,127.6c0.7,0,1.3-0.2,1.7-0.7s0.7-1.1,0.7-1.9h2.1c0,1.3-0.5,2.3-1.4,3.2c-0.9,0.8-1.9,1.3-3.2,1.3
						c-1.7,0-2.9-0.5-3.8-1.6c-0.9-1-1.3-2.6-1.3-4.6v-1.5c0-2,0.4-3.5,1.3-4.6c0.9-1,2.1-1.6,3.8-1.6c1.4,0,2.4,0.4,3.3,1.3
						c0.8,0.9,1.2,2,1.3,3.5h-2.1c0-1-0.3-1.7-0.7-2.2c-0.4-0.5-1-0.7-1.8-0.7c-1,0-1.7,0.3-2.2,1c-0.5,0.6-0.7,1.7-0.7,3.1v1.7
						c0,1.6,0.2,2.7,0.7,3.3C387,127.3,387.7,127.6,388.7,127.6z"/>
					<path class="st1" d="M398.3,112.3c0,0.4-0.1,0.7-0.3,0.9s-0.5,0.4-0.9,0.4c-0.4,0-0.7-0.1-0.9-0.4s-0.3-0.6-0.3-0.9
						s0.1-0.7,0.3-0.9s0.5-0.4,0.9-0.4s0.7,0.1,0.9,0.4C398.2,111.7,398.3,112,398.3,112.3z M398.1,129.2h-2.2v-13.3h2.2V129.2z"/>
					<path class="st1" d="M408.4,129.2c-0.1-0.3-0.2-0.8-0.3-1.5c-0.8,1.1-1.8,1.7-3,1.7c-1.2,0-2.2-0.3-2.8-1c-0.7-0.7-1-1.6-1-2.9
						c0-1.4,0.5-2.4,1.4-3.2c0.9-0.8,2.2-1.2,3.8-1.2h1.6v-1.4c0-0.8-0.2-1.4-0.5-1.7c-0.4-0.3-0.9-0.5-1.6-0.5
						c-0.7,0-1.2,0.2-1.6,0.6c-0.4,0.4-0.6,0.9-0.6,1.5h-2.2c0-0.7,0.2-1.3,0.6-2c0.4-0.6,0.9-1.1,1.6-1.5c0.7-0.4,1.4-0.5,2.3-0.5
						c1.4,0,2.4,0.3,3.1,1s1.1,1.7,1.1,3v6.7c0,1,0.1,1.9,0.4,2.7v0.2H408.4z M405.5,127.5c0.5,0,1-0.1,1.5-0.4
						c0.5-0.3,0.8-0.7,1.1-1.1v-3.2h-1.2c-1,0-1.9,0.2-2.5,0.7c-0.6,0.4-0.9,1.1-0.9,1.9c0,0.8,0.2,1.3,0.5,1.6
						C404.3,127.3,404.8,127.5,405.5,127.5z"/>
					<path class="st1" d="M420.1,125.8c0-0.5-0.2-0.9-0.5-1.2s-1-0.7-2-1.2c-1.2-0.5-2-0.9-2.5-1.2c-0.5-0.3-0.8-0.7-1.1-1.2
						c-0.2-0.4-0.4-1-0.4-1.6c0-1.1,0.4-2,1.2-2.7c0.8-0.7,1.8-1.1,3-1.1c1.3,0,2.3,0.4,3.1,1.1c0.8,0.8,1.2,1.7,1.2,2.9H420
						c0-0.6-0.2-1.1-0.6-1.5c-0.4-0.4-0.9-0.6-1.5-0.6c-0.6,0-1.1,0.2-1.5,0.5c-0.4,0.3-0.5,0.8-0.5,1.3c0,0.4,0.1,0.8,0.4,1.1
						s0.9,0.6,1.9,1.1c1.6,0.6,2.7,1.3,3.3,1.9s0.9,1.4,0.9,2.3c0,1.2-0.4,2.1-1.2,2.8c-0.8,0.7-1.9,1-3.2,1c-1.4,0-2.5-0.4-3.4-1.2
						c-0.9-0.8-1.3-1.8-1.3-3h2.2c0,0.7,0.3,1.3,0.7,1.7c0.4,0.4,1,0.6,1.8,0.6c0.7,0,1.3-0.2,1.7-0.5
						C419.9,126.8,420.1,126.4,420.1,125.8z"/>
					<path class="st1" d="M439.1,124.7c0-0.9-0.2-1.6-0.7-2.1s-1.4-0.9-2.6-1.4s-2.2-0.9-2.9-1.4c-0.7-0.5-1.2-1.1-1.5-1.7
						c-0.3-0.6-0.5-1.4-0.5-2.2c0-1.4,0.5-2.6,1.4-3.5c1-0.9,2.2-1.4,3.7-1.4c1.1,0,2,0.2,2.8,0.7c0.8,0.5,1.5,1.1,1.9,2
						c0.4,0.8,0.7,1.8,0.7,2.8h-2.3c0-1.1-0.3-2-0.8-2.6c-0.5-0.6-1.3-0.9-2.3-0.9c-0.9,0-1.6,0.3-2.1,0.8c-0.5,0.5-0.8,1.2-0.8,2.2
						c0,0.8,0.3,1.4,0.8,1.9s1.4,1,2.5,1.4c1.8,0.6,3,1.3,3.8,2.2c0.8,0.9,1.1,2,1.1,3.4c0,1.5-0.5,2.6-1.4,3.5
						c-0.9,0.9-2.2,1.3-3.9,1.3c-1,0-2-0.2-2.9-0.7c-0.9-0.5-1.6-1.1-2.1-1.9s-0.8-1.8-0.8-2.8h2.3c0,1.1,0.3,2,0.9,2.6
						c0.6,0.6,1.5,0.9,2.5,0.9c1,0,1.7-0.3,2.2-0.8C438.8,126.3,439.1,125.6,439.1,124.7z"/>
					<path class="st1" d="M443.6,121.9c0-1.9,0.5-3.5,1.4-4.6s2.2-1.7,3.7-1.7s2.8,0.6,3.7,1.7c0.9,1.1,1.4,2.6,1.5,4.5v1.4
						c0,1.9-0.5,3.5-1.4,4.6c-0.9,1.1-2.2,1.7-3.8,1.7c-1.5,0-2.8-0.5-3.7-1.6c-0.9-1.1-1.4-2.6-1.4-4.4V121.9z M445.7,123.2
						c0,1.4,0.3,2.5,0.8,3.2c0.5,0.8,1.3,1.2,2.2,1.2c1.9,0,2.9-1.4,3-4.2v-1.5c0-1.4-0.3-2.4-0.8-3.2c-0.5-0.8-1.3-1.2-2.2-1.2
						c-0.9,0-1.6,0.4-2.2,1.2c-0.5,0.8-0.8,1.9-0.8,3.2V123.2z"/>
					<path class="st1" d="M461.3,127.6c0.7,0,1.3-0.2,1.7-0.7c0.4-0.4,0.7-1.1,0.7-1.9h2.1c0,1.3-0.5,2.3-1.4,3.2
						c-0.9,0.8-1.9,1.3-3.2,1.3c-1.7,0-2.9-0.5-3.8-1.6c-0.9-1-1.3-2.6-1.3-4.6v-1.5c0-2,0.4-3.5,1.3-4.6c0.9-1,2.1-1.6,3.8-1.6
						c1.4,0,2.4,0.4,3.2,1.3c0.8,0.9,1.2,2,1.3,3.5h-2.1c0-1-0.3-1.7-0.7-2.2c-0.4-0.5-1-0.7-1.8-0.7c-1,0-1.7,0.3-2.2,1
						c-0.5,0.6-0.7,1.7-0.7,3.1v1.7c0,1.6,0.2,2.7,0.7,3.3S460.3,127.6,461.3,127.6z"/>
					<path class="st1" d="M470.9,112.3c0,0.4-0.1,0.7-0.3,0.9c-0.2,0.2-0.5,0.4-0.9,0.4c-0.4,0-0.7-0.1-0.9-0.4
						c-0.2-0.2-0.3-0.6-0.3-0.9s0.1-0.7,0.3-0.9c0.2-0.3,0.5-0.4,0.9-0.4s0.7,0.1,0.9,0.4C470.8,111.7,470.9,112,470.9,112.3z
						 M470.7,129.2h-2.2v-13.3h2.2V129.2z"/>
					<path class="st1" d="M481,129.2c-0.1-0.3-0.2-0.8-0.3-1.5c-0.8,1.1-1.8,1.7-3,1.7c-1.2,0-2.2-0.3-2.8-1c-0.7-0.7-1-1.6-1-2.9
						c0-1.4,0.5-2.4,1.4-3.2s2.2-1.2,3.8-1.2h1.6v-1.4c0-0.8-0.2-1.4-0.5-1.7c-0.4-0.3-0.9-0.5-1.6-0.5c-0.7,0-1.2,0.2-1.6,0.6
						c-0.4,0.4-0.6,0.9-0.6,1.5h-2.2c0-0.7,0.2-1.3,0.6-2c0.4-0.6,0.9-1.1,1.6-1.5s1.4-0.5,2.3-0.5c1.4,0,2.4,0.3,3.1,1
						c0.7,0.7,1.1,1.7,1.1,3v6.7c0,1,0.1,1.9,0.4,2.7v0.2H481z M478.1,127.5c0.5,0,1-0.1,1.5-0.4c0.5-0.3,0.8-0.7,1.1-1.1v-3.2h-1.2
						c-1,0-1.9,0.2-2.5,0.7c-0.6,0.4-0.9,1.1-0.9,1.9c0,0.8,0.2,1.3,0.5,1.6C476.9,127.3,477.4,127.5,478.1,127.5z"/>
					<path class="st1" d="M488.6,129.2h-2.2v-19h2.2V129.2z"/>
					<path class="st1" d="M496.8,129.5c-1.7,0-2.9-0.5-3.8-1.5c-0.9-1-1.3-2.4-1.4-4.4V122c0-2,0.4-3.6,1.3-4.7
						c0.9-1.1,2.1-1.7,3.6-1.7c1.6,0,2.7,0.5,3.5,1.5c0.8,1,1.2,2.5,1.2,4.7v1.4h-7.5v0.3c0,1.4,0.3,2.5,0.8,3.1
						c0.5,0.6,1.3,1,2.3,1c0.6,0,1.2-0.1,1.7-0.4s0.9-0.6,1.4-1.2l1.1,1.4C500.2,128.8,498.8,129.5,496.8,129.5z M496.6,117.5
						c-0.9,0-1.6,0.3-2,0.9c-0.4,0.6-0.7,1.6-0.7,2.9h5.3V121c-0.1-1.3-0.3-2.2-0.7-2.7C498,117.8,497.4,117.5,496.6,117.5z"/>
					<path class="st1" d="M510.4,125.8c0-0.5-0.2-0.9-0.5-1.2s-1-0.7-2-1.2c-1.2-0.5-2-0.9-2.5-1.2c-0.5-0.3-0.8-0.7-1.1-1.2
						c-0.2-0.4-0.4-1-0.4-1.6c0-1.1,0.4-2,1.2-2.7c0.8-0.7,1.8-1.1,3-1.1c1.3,0,2.3,0.4,3.1,1.1c0.8,0.8,1.2,1.7,1.2,2.9h-2.2
						c0-0.6-0.2-1.1-0.6-1.5c-0.4-0.4-0.9-0.6-1.5-0.6c-0.6,0-1.1,0.2-1.5,0.5s-0.5,0.8-0.5,1.3c0,0.4,0.1,0.8,0.4,1.1
						c0.3,0.3,0.9,0.6,1.9,1.1c1.6,0.6,2.7,1.3,3.3,1.9c0.6,0.6,0.9,1.4,0.9,2.3c0,1.2-0.4,2.1-1.2,2.8c-0.8,0.7-1.9,1-3.2,1
						c-1.4,0-2.5-0.4-3.4-1.2c-0.9-0.8-1.3-1.8-1.3-3h2.2c0,0.7,0.3,1.3,0.7,1.7c0.4,0.4,1,0.6,1.8,0.6c0.7,0,1.3-0.2,1.7-0.5
						C510.2,126.8,510.4,126.4,510.4,125.8z"/>
					<path class="st1" d="M515.5,128c0-0.4,0.1-0.7,0.4-1s0.6-0.4,1.1-0.4s0.8,0.1,1.1,0.4s0.4,0.6,0.4,1c0,0.4-0.1,0.7-0.4,1
						s-0.6,0.4-1.1,0.4s-0.8-0.1-1.1-0.4S515.5,128.4,515.5,128z"/>
				</g>
				<g>
					<path class="st1" d="M348.1,150.4c0-0.9-0.2-1.6-0.7-2.1c-0.5-0.5-1.4-0.9-2.6-1.4s-2.2-0.9-2.9-1.4c-0.7-0.5-1.2-1.1-1.5-1.7
						c-0.3-0.6-0.5-1.4-0.5-2.2c0-1.4,0.5-2.6,1.4-3.5c1-0.9,2.2-1.4,3.7-1.4c1.1,0,2,0.2,2.8,0.7c0.8,0.5,1.5,1.1,1.9,2
						c0.4,0.8,0.7,1.8,0.7,2.8h-2.3c0-1.1-0.3-2-0.8-2.6c-0.5-0.6-1.3-0.9-2.3-0.9c-0.9,0-1.6,0.3-2.1,0.8c-0.5,0.5-0.8,1.2-0.8,2.2
						c0,0.8,0.3,1.4,0.8,1.9s1.4,1,2.5,1.4c1.8,0.6,3,1.3,3.8,2.2c0.8,0.9,1.1,2,1.1,3.4c0,1.5-0.5,2.6-1.4,3.5
						c-0.9,0.9-2.2,1.3-3.9,1.3c-1,0-2-0.2-2.9-0.7c-0.9-0.5-1.6-1.1-2.1-1.9c-0.5-0.8-0.8-1.8-0.8-2.8h2.3c0,1.1,0.3,2,0.9,2.6
						c0.6,0.6,1.5,0.9,2.5,0.9c1,0,1.7-0.3,2.2-0.8C347.8,152,348.1,151.3,348.1,150.4z"/>
					<path class="st1" d="M357.8,155.2c-1.7,0-2.9-0.5-3.8-1.5s-1.3-2.4-1.4-4.4v-1.6c0-2,0.4-3.6,1.3-4.7s2.1-1.7,3.6-1.7
						c1.6,0,2.7,0.5,3.5,1.5s1.2,2.5,1.2,4.7v1.4h-7.5v0.3c0,1.4,0.3,2.5,0.8,3.1c0.5,0.6,1.3,1,2.3,1c0.6,0,1.2-0.1,1.7-0.4
						c0.5-0.2,0.9-0.6,1.4-1.2l1.1,1.4C361.2,154.5,359.7,155.2,357.8,155.2z M357.5,143.2c-0.9,0-1.6,0.3-2,0.9
						c-0.4,0.6-0.7,1.6-0.7,2.9h5.3v-0.3c-0.1-1.3-0.3-2.2-0.7-2.7C358.9,143.5,358.3,143.2,357.5,143.2z"/>
					<path class="st1" d="M364.4,147.7c0-2.1,0.4-3.6,1.2-4.7c0.8-1.1,1.9-1.6,3.3-1.6c1.3,0,2.3,0.5,3,1.6V136h2.2v19h-2l-0.1-1.4
						c-0.7,1.1-1.7,1.7-3.1,1.7c-1.4,0-2.5-0.5-3.3-1.6c-0.8-1.1-1.2-2.6-1.2-4.5V147.7z M366.6,148.9c0,1.5,0.2,2.6,0.7,3.3
						c0.4,0.7,1.2,1.1,2.2,1.1c1.1,0,1.9-0.5,2.4-1.6v-6.7c-0.6-1.1-1.4-1.6-2.4-1.6c-1,0-1.7,0.4-2.2,1.1c-0.4,0.7-0.7,1.8-0.7,3.2
						V148.9z"/>
					<path class="st1" d="M382.1,155.2c-1.7,0-2.9-0.5-3.8-1.5s-1.3-2.4-1.4-4.4v-1.6c0-2,0.4-3.6,1.3-4.7s2.1-1.7,3.6-1.7
						c1.6,0,2.7,0.5,3.5,1.5s1.2,2.5,1.2,4.7v1.4h-7.5v0.3c0,1.4,0.3,2.5,0.8,3.1c0.5,0.6,1.3,1,2.3,1c0.6,0,1.2-0.1,1.7-0.4
						c0.5-0.2,0.9-0.6,1.4-1.2l1.1,1.4C385.5,154.5,384.1,155.2,382.1,155.2z M381.9,143.2c-0.9,0-1.6,0.3-2,0.9
						c-0.4,0.6-0.7,1.6-0.7,2.9h5.3v-0.3c-0.1-1.3-0.3-2.2-0.7-2.7C383.3,143.5,382.7,143.2,381.9,143.2z"/>
					<path class="st1" d="M403.7,150.2h-6.1l-1.4,4.7h-2.3l5.8-18h1.9l5.8,18h-2.3L403.7,150.2z M398.2,148.3h4.9l-2.5-8.2
						L398.2,148.3z"/>
					<path class="st1" d="M415.1,143.6c-0.3-0.1-0.6-0.1-1-0.1c-1.1,0-1.9,0.6-2.3,1.8v9.5h-2.2v-13.3h2.1l0,1.4
						c0.6-1.1,1.4-1.6,2.5-1.6c0.3,0,0.6,0.1,0.9,0.2L415.1,143.6z"/>
					<path class="st1" d="M416.6,147.7c0-2.1,0.4-3.7,1.1-4.7c0.8-1.1,1.9-1.6,3.3-1.6c1.4,0,2.4,0.6,3.1,1.7l0.1-1.5h2v13.5
						c0,1.7-0.4,2.9-1.3,3.8c-0.8,0.9-2,1.3-3.5,1.3c-0.7,0-1.4-0.2-2.2-0.5c-0.8-0.3-1.4-0.7-1.8-1.2l0.9-1.5
						c0.9,0.9,1.9,1.3,3,1.3c1.8,0,2.8-1,2.8-3v-1.7c-0.7,1-1.7,1.6-3,1.6c-1.4,0-2.5-0.5-3.2-1.6c-0.8-1-1.2-2.5-1.2-4.5V147.7z
						 M418.7,148.9c0,1.5,0.2,2.6,0.7,3.3s1.2,1.1,2.2,1.1c1.1,0,1.9-0.6,2.4-1.7v-6.7c-0.6-1.1-1.4-1.6-2.4-1.6
						c-1,0-1.7,0.4-2.2,1.1c-0.4,0.7-0.7,1.8-0.7,3.2V148.9z"/>
					<path class="st1" d="M434.2,155.2c-1.7,0-2.9-0.5-3.8-1.5s-1.3-2.4-1.4-4.4v-1.6c0-2,0.4-3.6,1.3-4.7s2.1-1.7,3.6-1.7
						c1.6,0,2.7,0.5,3.5,1.5s1.2,2.5,1.2,4.7v1.4h-7.5v0.3c0,1.4,0.3,2.5,0.8,3.1c0.5,0.6,1.3,1,2.3,1c0.6,0,1.2-0.1,1.7-0.4
						c0.5-0.2,0.9-0.6,1.4-1.2l1.1,1.4C437.6,154.5,436.2,155.2,434.2,155.2z M434,143.2c-0.9,0-1.6,0.3-2,0.9
						c-0.4,0.6-0.7,1.6-0.7,2.9h5.3v-0.3c-0.1-1.3-0.3-2.2-0.7-2.7C435.4,143.5,434.8,143.2,434,143.2z"/>
					<path class="st1" d="M443.3,141.6l0.1,1.4c0.8-1.1,1.9-1.7,3.2-1.7c2.4,0,3.6,1.6,3.6,4.7v8.9h-2.2v-8.8c0-1-0.2-1.8-0.5-2.2
						c-0.3-0.4-0.9-0.7-1.6-0.7c-0.5,0-1,0.2-1.5,0.5c-0.4,0.4-0.8,0.8-1,1.4v9.7h-2.2v-13.3H443.3z"/>
					<path class="st1" d="M456.4,138.4v3.2h2v1.8h-2v8.3c0,0.5,0.1,0.9,0.3,1.2c0.2,0.3,0.5,0.4,0.9,0.4c0.3,0,0.6,0,0.9-0.1l0,1.8
						c-0.5,0.2-1,0.2-1.5,0.2c-0.9,0-1.5-0.3-2-0.9c-0.5-0.6-0.7-1.5-0.7-2.6v-8.3h-2v-1.8h2v-3.2H456.4z"/>
					<path class="st1" d="M463.5,138.1c0,0.4-0.1,0.7-0.3,0.9c-0.2,0.2-0.5,0.4-0.9,0.4c-0.4,0-0.7-0.1-0.9-0.4
						c-0.2-0.2-0.3-0.6-0.3-0.9s0.1-0.7,0.3-0.9c0.2-0.3,0.5-0.4,0.9-0.4s0.7,0.1,0.9,0.4C463.4,137.4,463.5,137.7,463.5,138.1z
						 M463.3,154.9h-2.2v-13.3h2.2V154.9z"/>
					<path class="st1" d="M468.8,141.6l0.1,1.4c0.8-1.1,1.9-1.7,3.2-1.7c2.4,0,3.6,1.6,3.6,4.7v8.9h-2.2v-8.8c0-1-0.2-1.8-0.5-2.2
						c-0.3-0.4-0.9-0.7-1.6-0.7c-0.5,0-1,0.2-1.5,0.5c-0.4,0.4-0.8,0.8-1,1.4v9.7h-2.2v-13.3H468.8z"/>
					<path class="st1" d="M485.9,154.9c-0.1-0.3-0.2-0.8-0.3-1.5c-0.8,1.1-1.8,1.7-3,1.7c-1.2,0-2.2-0.3-2.8-1s-1-1.6-1-2.9
						c0-1.4,0.5-2.4,1.4-3.2c0.9-0.8,2.2-1.2,3.8-1.2h1.6v-1.4c0-0.8-0.2-1.4-0.5-1.7c-0.4-0.3-0.9-0.5-1.6-0.5
						c-0.7,0-1.2,0.2-1.6,0.6c-0.4,0.4-0.6,0.9-0.6,1.5H479c0-0.7,0.2-1.3,0.6-2s0.9-1.1,1.6-1.5c0.7-0.4,1.4-0.5,2.3-0.5
						c1.4,0,2.4,0.3,3.1,1c0.7,0.7,1.1,1.7,1.1,3v6.7c0,1,0.1,1.9,0.4,2.7v0.2H485.9z M482.9,153.2c0.5,0,1-0.1,1.5-0.4
						c0.5-0.3,0.8-0.7,1.1-1.1v-3.2h-1.2c-1,0-1.9,0.2-2.5,0.7s-0.9,1.1-0.9,1.9c0,0.8,0.2,1.3,0.5,1.6
						C481.7,153,482.2,153.2,482.9,153.2z"/>
					<path class="st1" d="M491.2,153.8c0-0.4,0.1-0.7,0.4-1c0.2-0.3,0.6-0.4,1.1-0.4s0.8,0.1,1.1,0.4c0.2,0.3,0.4,0.6,0.4,1
						c0,0.4-0.1,0.7-0.4,1s-0.6,0.4-1.1,0.4s-0.8-0.1-1.1-0.4S491.2,154.1,491.2,153.8z"/>
				</g>
				<g>
					<path class="st1" d="M343.4,201.6v6.4h-3.7v-18.2h6.2c1.8,0,3.2,0.6,4.3,1.7c1.1,1.1,1.6,2.6,1.6,4.3s-0.5,3.2-1.6,4.2
						c-1.1,1-2.5,1.5-4.4,1.5H343.4z M343.4,198.5h2.5c0.7,0,1.2-0.2,1.6-0.7s0.6-1.1,0.6-2c0-0.9-0.2-1.6-0.6-2.2
						c-0.4-0.5-0.9-0.8-1.6-0.8h-2.6V198.5z"/>
					<path class="st1" d="M360.8,197.8l-1.2-0.1c-1,0-1.6,0.4-2,1.3v8.9h-3.5v-13.5h3.3l0.1,1.5c0.6-1.1,1.3-1.7,2.3-1.7
						c0.4,0,0.7,0.1,1,0.2L360.8,197.8z"/>
					<path class="st1" d="M362.2,200.8c0-2,0.5-3.7,1.4-4.8c1-1.2,2.3-1.7,4-1.7c1.7,0,3.1,0.6,4,1.7c1,1.2,1.4,2.8,1.4,4.8v0.9
						c0,2.1-0.5,3.7-1.4,4.8c-1,1.2-2.3,1.7-4,1.7c-1.7,0-3.1-0.6-4-1.7c-1-1.2-1.4-2.8-1.4-4.8V200.8z M365.7,201.6
						c0,2.4,0.6,3.6,1.9,3.6c1.2,0,1.8-1,1.9-3l0-1.5c0-1.2-0.2-2.1-0.5-2.7s-0.8-0.9-1.4-0.9c-0.6,0-1.1,0.3-1.4,0.9
						s-0.5,1.5-0.5,2.7V201.6z"/>
					<path class="st1" d="M374.9,200.8c0-2.2,0.4-3.9,1.2-5s1.9-1.6,3.4-1.6c1.2,0,2.2,0.5,2.8,1.4l0.1-1.2h3.2v13.5
						c0,1.7-0.5,3-1.4,3.9c-1,0.9-2.4,1.4-4.2,1.4c-0.7,0-1.5-0.1-2.3-0.4c-0.8-0.3-1.4-0.7-1.8-1.1l1.2-2.4
						c0.3,0.3,0.8,0.6,1.3,0.9s1,0.3,1.5,0.3c0.8,0,1.4-0.2,1.7-0.6c0.3-0.4,0.5-1,0.5-1.8v-1.2c-0.7,0.9-1.6,1.3-2.6,1.3
						c-1.4,0-2.6-0.6-3.3-1.7c-0.8-1.1-1.2-2.7-1.2-4.7V200.8z M378.4,201.7c0,1.2,0.2,2.2,0.5,2.7c0.3,0.6,0.8,0.9,1.5,0.9
						c0.7,0,1.3-0.3,1.6-0.8V198c-0.4-0.6-0.9-0.9-1.6-0.9c-0.7,0-1.2,0.3-1.6,0.9c-0.3,0.6-0.5,1.5-0.5,2.8V201.7z"/>
					<path class="st1" d="M394.8,197.8l-1.2-0.1c-1,0-1.6,0.4-2,1.3v8.9h-3.5v-13.5h3.3l0.1,1.5c0.6-1.1,1.3-1.7,2.3-1.7
						c0.4,0,0.7,0.1,1,0.2L394.8,197.8z"/>
					<path class="st1" d="M403,207.9c-0.1-0.2-0.2-0.6-0.3-1c-0.6,0.9-1.5,1.3-2.6,1.3c-1.1,0-2.1-0.4-2.8-1.1
						c-0.7-0.7-1.1-1.7-1.1-2.9c0-1.4,0.5-2.5,1.4-3.3c0.9-0.8,2.2-1.2,3.9-1.2h1.1v-1.1c0-0.6-0.1-1-0.3-1.3
						c-0.2-0.2-0.5-0.4-0.9-0.4c-0.9,0-1.3,0.5-1.3,1.5h-3.5c0-1.2,0.5-2.3,1.4-3.1s2.1-1.2,3.6-1.2c1.5,0,2.6,0.4,3.4,1.2
						c0.8,0.8,1.2,1.9,1.2,3.3v6.4c0,1.2,0.2,2.1,0.5,2.7v0.2H403z M400.9,205.4c0.4,0,0.7-0.1,1-0.2c0.3-0.2,0.5-0.3,0.6-0.6v-2.8
						h-0.8c-0.6,0-1.1,0.2-1.4,0.6c-0.3,0.4-0.5,0.9-0.5,1.5C399.8,204.9,400.2,205.4,400.9,205.4z"/>
					<path class="st1" d="M412,194.4l0.1,1.2c0.8-1,1.8-1.5,3.1-1.5c1.3,0,2.3,0.6,2.9,1.8c0.8-1.2,1.9-1.8,3.3-1.8
						c2.4,0,3.6,1.6,3.6,4.9v8.8h-3.5v-8.6c0-0.8-0.1-1.3-0.3-1.7s-0.6-0.5-1.1-0.5c-0.7,0-1.1,0.4-1.5,1.2l0,0.4v9.2h-3.5v-8.6
						c0-0.8-0.1-1.3-0.3-1.7c-0.2-0.3-0.6-0.5-1.1-0.5c-0.6,0-1.1,0.3-1.4,1v9.8h-3.5v-13.5H412z"/>
					<path class="st1" d="M434,207.9c-0.1-0.2-0.2-0.6-0.3-1c-0.6,0.9-1.5,1.3-2.6,1.3c-1.1,0-2.1-0.4-2.8-1.1
						c-0.7-0.7-1.1-1.7-1.1-2.9c0-1.4,0.5-2.5,1.4-3.3c0.9-0.8,2.2-1.2,3.9-1.2h1.1v-1.1c0-0.6-0.1-1-0.3-1.3
						c-0.2-0.2-0.5-0.4-0.9-0.4c-0.9,0-1.3,0.5-1.3,1.5h-3.5c0-1.2,0.5-2.3,1.4-3.1s2.1-1.2,3.6-1.2c1.5,0,2.6,0.4,3.4,1.2
						c0.8,0.8,1.2,1.9,1.2,3.3v6.4c0,1.2,0.2,2.1,0.5,2.7v0.2H434z M431.9,205.4c0.4,0,0.7-0.1,1-0.2c0.3-0.2,0.5-0.3,0.6-0.6v-2.8
						h-0.8c-0.6,0-1.1,0.2-1.4,0.6c-0.3,0.4-0.5,0.9-0.5,1.5C430.8,204.9,431.2,205.4,431.9,205.4z"/>
					<path class="st1" d="M349.1,230.8h-5.7v4.8h6.8v3h-10.4v-18.2h10.4v3.1h-6.7v4.3h5.7V230.8z"/>
					<path class="st1" d="M351.6,231.5c0-2.2,0.4-3.9,1.1-5c0.7-1.1,1.8-1.6,3.3-1.6c1,0,1.9,0.4,2.6,1.3v-6.8h3.6v19.2H359
						l-0.2-1.4c-0.7,1.1-1.7,1.6-2.8,1.6c-1.4,0-2.5-0.5-3.2-1.6c-0.7-1.1-1.1-2.7-1.1-4.8V231.5z M355.2,232.3
						c0,1.3,0.1,2.3,0.4,2.8c0.3,0.5,0.8,0.8,1.4,0.8c0.7,0,1.2-0.3,1.6-0.9v-6.2c-0.3-0.7-0.9-1-1.6-1c-0.6,0-1.1,0.3-1.4,0.8
						c-0.3,0.5-0.4,1.5-0.4,2.8V232.3z"/>
					<path class="st1" d="M371.4,237.4c-0.7,1-1.7,1.5-2.9,1.5c-1.2,0-2.2-0.4-2.8-1.3c-0.6-0.9-1-2.1-1-3.7v-8.7h3.5v8.8
						c0,1.3,0.5,2,1.3,2c0.8,0,1.4-0.3,1.7-1v-9.8h3.6v13.5h-3.3L371.4,237.4z"/>
					<path class="st1" d="M382.2,235.9c1,0,1.5-0.7,1.6-2h3.3c0,1.5-0.5,2.7-1.4,3.6c-0.9,0.9-2,1.4-3.4,1.4c-1.7,0-3.1-0.5-4-1.6
						c-0.9-1.1-1.4-2.7-1.4-4.8v-1.1c0-2.1,0.5-3.7,1.4-4.9c0.9-1.1,2.2-1.7,4-1.7c1.5,0,2.7,0.5,3.5,1.4c0.9,0.9,1.3,2.2,1.3,3.9
						h-3.3c0-0.8-0.1-1.3-0.4-1.7c-0.2-0.4-0.6-0.6-1.2-0.6c-0.6,0-1.1,0.2-1.3,0.7c-0.3,0.4-0.4,1.3-0.4,2.5v1.4
						c0,1.1,0.1,1.9,0.2,2.3c0.1,0.4,0.3,0.8,0.5,1C381.4,235.8,381.8,235.9,382.2,235.9z"/>
					<path class="st1" d="M395.5,238.6c-0.1-0.2-0.2-0.6-0.3-1c-0.6,0.9-1.5,1.3-2.6,1.3c-1.1,0-2.1-0.4-2.8-1.1
						c-0.7-0.7-1.1-1.7-1.1-2.9c0-1.4,0.5-2.5,1.4-3.3s2.2-1.2,3.9-1.2h1.1v-1.1c0-0.6-0.1-1-0.3-1.3c-0.2-0.2-0.5-0.4-0.9-0.4
						c-0.9,0-1.3,0.5-1.3,1.5H389c0-1.2,0.5-2.3,1.4-3.1c0.9-0.8,2.1-1.2,3.6-1.2c1.5,0,2.6,0.4,3.4,1.2c0.8,0.8,1.2,1.9,1.2,3.3
						v6.4c0,1.2,0.2,2.1,0.5,2.7v0.2H395.5z M393.4,236.1c0.4,0,0.7-0.1,1-0.2s0.5-0.3,0.6-0.6v-2.8h-0.8c-0.6,0-1.1,0.2-1.4,0.6
						c-0.3,0.4-0.5,0.9-0.5,1.5C392.3,235.6,392.7,236.1,393.4,236.1z"/>
					<path class="st1" d="M406,235.9c1,0,1.5-0.7,1.6-2h3.3c0,1.5-0.5,2.7-1.4,3.6c-0.9,0.9-2,1.4-3.4,1.4c-1.7,0-3.1-0.5-4-1.6
						c-0.9-1.1-1.4-2.7-1.4-4.8v-1.1c0-2.1,0.5-3.7,1.4-4.9c0.9-1.1,2.2-1.7,4-1.7c1.5,0,2.7,0.5,3.5,1.4c0.9,0.9,1.3,2.2,1.3,3.9
						h-3.3c0-0.8-0.1-1.3-0.4-1.7c-0.2-0.4-0.6-0.6-1.2-0.6c-0.6,0-1.1,0.2-1.3,0.7c-0.3,0.4-0.4,1.3-0.4,2.5v1.4
						c0,1.1,0.1,1.9,0.2,2.3c0.1,0.4,0.3,0.8,0.5,1C405.2,235.8,405.6,235.9,406,235.9z"/>
					<path class="st1" d="M412.9,221.6c0-0.5,0.2-1,0.5-1.3c0.3-0.3,0.8-0.5,1.4-0.5c0.6,0,1,0.2,1.4,0.5c0.3,0.3,0.5,0.8,0.5,1.3
						c0,0.5-0.2,1-0.5,1.3s-0.8,0.5-1.4,0.5c-0.6,0-1.1-0.2-1.4-0.5S412.9,222.2,412.9,221.6z M416.6,238.6h-3.5v-13.5h3.5V238.6z"
						/>
					<path class="st1" d="M418.9,231.4c0-2,0.5-3.7,1.4-4.8c1-1.2,2.3-1.7,4-1.7c1.7,0,3.1,0.6,4,1.7c1,1.2,1.4,2.8,1.4,4.8v0.9
						c0,2.1-0.5,3.7-1.4,4.8c-1,1.2-2.3,1.7-4,1.7c-1.7,0-3.1-0.6-4-1.7c-1-1.2-1.4-2.8-1.4-4.8V231.4z M422.5,232.3
						c0,2.4,0.6,3.6,1.9,3.6c1.2,0,1.8-1,1.9-3l0-1.5c0-1.2-0.2-2.1-0.5-2.7s-0.8-0.9-1.4-0.9c-0.6,0-1.1,0.3-1.4,0.9
						s-0.5,1.5-0.5,2.7V232.3z M425.1,219.4h4l-3.5,3.9h-2.9L425.1,219.4z"/>
					<path class="st1" d="M435.3,225.1l0.1,1.3c0.8-1.1,1.8-1.6,3.1-1.6c2.3,0,3.5,1.6,3.6,4.9v8.9h-3.5V230c0-0.8-0.1-1.3-0.3-1.7
						c-0.2-0.3-0.6-0.5-1.2-0.5c-0.6,0-1.1,0.3-1.5,1v9.8H432v-13.5H435.3z"/>
					<path class="st1" d="M456.9,238.6c-0.1-0.2-0.2-0.6-0.3-1c-0.6,0.9-1.5,1.3-2.6,1.3c-1.1,0-2.1-0.4-2.8-1.1
						c-0.7-0.7-1.1-1.7-1.1-2.9c0-1.4,0.5-2.5,1.4-3.3c0.9-0.8,2.2-1.2,3.9-1.2h1.1v-1.1c0-0.6-0.1-1-0.3-1.3
						c-0.2-0.2-0.5-0.4-0.9-0.4c-0.9,0-1.3,0.5-1.3,1.5h-3.5c0-1.2,0.5-2.3,1.4-3.1c0.9-0.8,2.1-1.2,3.6-1.2c1.5,0,2.6,0.4,3.4,1.2
						c0.8,0.8,1.2,1.9,1.2,3.3v6.4c0,1.2,0.2,2.1,0.5,2.7v0.2H456.9z M454.8,236.1c0.4,0,0.7-0.1,1-0.2s0.5-0.3,0.6-0.6v-2.8h-0.8
						c-0.6,0-1.1,0.2-1.4,0.6c-0.3,0.4-0.5,0.9-0.5,1.5C453.7,235.6,454.1,236.1,454.8,236.1z"/>
					<path class="st1" d="M468.6,238.6v-18.2h4.8c2.1,0,3.8,0.7,5.1,2s1.9,3.2,1.9,5.5v2.9c0,2.4-0.6,4.3-1.9,5.6s-3,2-5.2,2H468.6z
						 M472.3,223.5v12.1h1.1c1.2,0,2.1-0.3,2.6-1s0.8-1.8,0.8-3.3v-3.2c0-1.7-0.2-2.9-0.7-3.6c-0.5-0.7-1.3-1-2.4-1.1H472.3z"/>
					<path class="st1" d="M482.9,221.6c0-0.5,0.2-1,0.5-1.3c0.3-0.3,0.8-0.5,1.4-0.5s1,0.2,1.4,0.5c0.3,0.3,0.5,0.8,0.5,1.3
						c0,0.5-0.2,1-0.5,1.3c-0.3,0.4-0.8,0.5-1.4,0.5s-1.1-0.2-1.4-0.5C483.1,222.6,482.9,222.2,482.9,221.6z M486.6,238.6H483v-13.5
						h3.5V238.6z"/>
					<path class="st1" d="M495.3,235c0-0.3-0.1-0.6-0.4-0.8c-0.3-0.3-0.9-0.6-1.9-1c-1.5-0.6-2.5-1.2-3-1.8
						c-0.5-0.6-0.8-1.4-0.8-2.4c0-1.2,0.4-2.2,1.3-2.9c0.9-0.8,2-1.2,3.4-1.2c1.5,0,2.7,0.4,3.6,1.1c0.9,0.8,1.3,1.8,1.3,3.1h-3.5
						c0-1.1-0.5-1.6-1.4-1.6c-0.4,0-0.7,0.1-0.9,0.3c-0.2,0.2-0.4,0.6-0.4,1c0,0.3,0.1,0.6,0.4,0.8c0.3,0.2,0.9,0.6,1.9,1
						c1.4,0.5,2.5,1.1,3.1,1.8s0.9,1.5,0.9,2.5c0,1.2-0.5,2.2-1.4,2.9c-0.9,0.7-2.1,1.1-3.6,1.1c-1,0-1.9-0.2-2.6-0.6
						c-0.8-0.4-1.3-0.9-1.8-1.6s-0.6-1.4-0.6-2.2h3.4c0,0.6,0.2,1.1,0.4,1.4c0.3,0.3,0.7,0.5,1.3,0.5
						C494.8,236.3,495.3,235.9,495.3,235z"/>
					<path class="st1" d="M505,221.8v3.3h1.8v2.6H505v6.7c0,0.5,0.1,0.9,0.2,1.1s0.4,0.3,0.8,0.3c0.3,0,0.6,0,0.8-0.1l0,2.7
						c-0.6,0.2-1.2,0.3-1.9,0.3c-2.3,0-3.4-1.3-3.5-3.9v-7.2h-1.6v-2.6h1.6v-3.3H505z"/>
					<path class="st1" d="M515.2,238.6c-0.1-0.2-0.2-0.6-0.3-1c-0.6,0.9-1.5,1.3-2.6,1.3c-1.1,0-2.1-0.4-2.8-1.1
						c-0.7-0.7-1.1-1.7-1.1-2.9c0-1.4,0.5-2.5,1.4-3.3c0.9-0.8,2.2-1.2,3.9-1.2h1.1v-1.1c0-0.6-0.1-1-0.3-1.3
						c-0.2-0.2-0.5-0.4-0.9-0.4c-0.9,0-1.3,0.5-1.3,1.5h-3.5c0-1.2,0.5-2.3,1.4-3.1c0.9-0.8,2.1-1.2,3.6-1.2c1.5,0,2.6,0.4,3.4,1.2
						c0.8,0.8,1.2,1.9,1.2,3.3v6.4c0,1.2,0.2,2.1,0.5,2.7v0.2H515.2z M513.1,236.1c0.4,0,0.7-0.1,1-0.2s0.5-0.3,0.6-0.6v-2.8h-0.8
						c-0.6,0-1.1,0.2-1.4,0.6c-0.3,0.4-0.5,0.9-0.5,1.5C511.9,235.6,512.3,236.1,513.1,236.1z"/>
					<path class="st1" d="M524,225.1l0.1,1.3c0.8-1.1,1.8-1.6,3.1-1.6c2.3,0,3.5,1.6,3.6,4.9v8.9h-3.5V230c0-0.8-0.1-1.3-0.3-1.7
						c-0.2-0.3-0.6-0.5-1.2-0.5c-0.6,0-1.1,0.3-1.5,1v9.8h-3.5v-13.5H524z"/>
					<path class="st1" d="M538.3,235.9c1,0,1.5-0.7,1.6-2h3.3c0,1.5-0.5,2.7-1.4,3.6c-0.9,0.9-2,1.4-3.4,1.4c-1.7,0-3.1-0.5-4-1.6
						c-0.9-1.1-1.4-2.7-1.4-4.8v-1.1c0-2.1,0.5-3.7,1.4-4.9s2.2-1.7,4-1.7c1.5,0,2.7,0.5,3.5,1.4c0.9,0.9,1.3,2.2,1.3,3.9h-3.3
						c0-0.8-0.1-1.3-0.4-1.7c-0.2-0.4-0.6-0.6-1.2-0.6c-0.6,0-1.1,0.2-1.3,0.7c-0.3,0.4-0.4,1.3-0.4,2.5v1.4c0,1.1,0.1,1.9,0.2,2.3
						c0.1,0.4,0.3,0.8,0.5,1C537.5,235.8,537.8,235.9,538.3,235.9z"/>
					<path class="st1" d="M545.1,221.6c0-0.5,0.2-1,0.5-1.3c0.3-0.3,0.8-0.5,1.4-0.5s1,0.2,1.4,0.5c0.3,0.3,0.5,0.8,0.5,1.3
						c0,0.5-0.2,1-0.5,1.3c-0.3,0.4-0.8,0.5-1.4,0.5s-1.1-0.2-1.4-0.5C545.3,222.6,545.1,222.2,545.1,221.6z M548.8,238.6h-3.5
						v-13.5h3.5V238.6z"/>
					<path class="st1" d="M558,238.6c-0.1-0.2-0.2-0.6-0.3-1c-0.6,0.9-1.5,1.3-2.6,1.3c-1.1,0-2.1-0.4-2.8-1.1
						c-0.7-0.7-1.1-1.7-1.1-2.9c0-1.4,0.5-2.5,1.4-3.3c0.9-0.8,2.2-1.2,3.9-1.2h1.1v-1.1c0-0.6-0.1-1-0.3-1.3
						c-0.2-0.2-0.5-0.4-0.9-0.4c-0.9,0-1.3,0.5-1.3,1.5h-3.5c0-1.2,0.5-2.3,1.4-3.1c0.9-0.8,2.1-1.2,3.6-1.2c1.5,0,2.6,0.4,3.4,1.2
						c0.8,0.8,1.2,1.9,1.2,3.3v6.4c0,1.2,0.2,2.1,0.5,2.7v0.2H558z M555.9,236.1c0.4,0,0.7-0.1,1-0.2s0.5-0.3,0.6-0.6v-2.8h-0.8
						c-0.6,0-1.1,0.2-1.4,0.6c-0.3,0.4-0.5,0.9-0.5,1.5C554.7,235.6,555.1,236.1,555.9,236.1z"/>
					<path class="st1" d="M563.9,236.8c0-0.6,0.2-1,0.6-1.4c0.4-0.4,0.9-0.5,1.5-0.5c0.6,0,1.1,0.2,1.5,0.5c0.4,0.4,0.6,0.8,0.6,1.4
						c0,0.6-0.2,1.1-0.6,1.4c-0.4,0.4-0.9,0.5-1.5,0.5c-0.6,0-1.1-0.2-1.5-0.5C564.1,237.9,563.9,237.4,563.9,236.8z"/>
				</g>
			</g>
		</g>
	</g>
</g>
</svg>
