<?xml version="1.0" encoding="utf-8"?>
<!-- Generator: Adobe Illustrator 26.0.1, SVG Export Plug-In . SVG Version: 6.00 Build 0)  -->
<!DOCTYPE svg PUBLIC "-//W3C//DTD SVG 1.1//EN" "http://www.w3.org/Graphics/SVG/1.1/DTD/svg11.dtd" [
	<!ENTITY ns_extend "http://ns.adobe.com/Extensibility/1.0/">
	<!ENTITY ns_ai "http://ns.adobe.com/AdobeIllustrator/10.0/">
	<!ENTITY ns_graphs "http://ns.adobe.com/Graphs/1.0/">
	<!ENTITY ns_vars "http://ns.adobe.com/Variables/1.0/">
	<!ENTITY ns_imrep "http://ns.adobe.com/ImageReplacement/1.0/">
	<!ENTITY ns_sfw "http://ns.adobe.com/SaveForWeb/1.0/">
	<!ENTITY ns_custom "http://ns.adobe.com/GenericCustomNamespace/1.0/">
	<!ENTITY ns_adobe_xpath "http://ns.adobe.com/XPath/1.0/">
]>
<svg version="1.1" id="Capa_1" xmlns:x="&ns_extend;" xmlns:i="&ns_ai;" xmlns:graph="&ns_graphs;"
	 xmlns="http://www.w3.org/2000/svg" xmlns:xlink="http://www.w3.org/1999/xlink" x="0px" y="0px" viewBox="0 0 1140.7 294.5"
	 style="enable-background:new 0 0 1140.7 294.5;" xml:space="preserve">
<style type="text/css">
	.st0{fill:#0088C7;}
	.st1{fill:#66A2D1;}
</style>
<metadata>
	<sfw  xmlns="&ns_sfw;">
		<slices></slices>
		<sliceSourceBounds  bottomLeftOrigin="true" height="294.5" width="1140.7" x="389.6" y="-687.3"></sliceSourceBounds>
	</sfw>
</metadata>
<g>
	<g>
		<path class="st0" d="M511.1,137.3c-41,0-70.3-30.5-70.3-68.2v-0.4c0-37.7,29.8-68.6,70.7-68.6c41,0,70.3,30.5,70.3,68.3v0.4
			C581.8,106.4,552.1,137.3,511.1,137.3 M551.3,68.6c0-22.8-16.7-41.7-40.2-41.7c-23.5,0-39.8,18.6-39.8,41.3v0.4
			c0,22.7,16.7,41.7,40.2,41.7c23.5,0,39.8-18.6,39.8-41.3V68.6z"/>
		<polygon class="st0" points="687.6,135 623.3,50.6 623.3,135 594.5,135 594.5,2.3 621.4,2.3 683.6,84 683.6,2.3 712.4,2.3 
			712.4,135 		"/>
		<path class="st0" d="M788.3,137.1c-35.6,0-57.4-19.9-57.4-59V2.3H760v75.1c0,21.6,10.8,32.8,28.6,32.8c17.8,0,28.6-10.8,28.6-31.8
			v-76h29.2v74.9C846.5,117.4,823.9,137.1,788.3,137.1"/>
		<polygon class="st0" points="103.7,292.4 103.7,205.8 66.4,262.5 65.6,262.5 28.6,206.4 28.6,292.4 0,292.4 0,159.7 31.5,159.7 
			66.4,215.8 101.2,159.7 132.7,159.7 132.7,292.4 		"/>
		<path class="st0" d="M210.6,294.5c-35.6,0-57.4-19.9-57.4-59v-75.8h29.2v75.1c0,21.6,10.8,32.8,28.6,32.8
			c17.8,0,28.6-10.8,28.6-31.8v-76h29.2v74.9C268.8,274.8,246.3,294.5,210.6,294.5"/>
		<path class="st0" d="M311.9,294.3c-20.7,0-34.3-9.1-43.4-19.9l18.4-20.5c7.6,8.3,15,13.3,24.3,13.3c11,0,17.8-6.6,17.8-22v-85.5
			h30v86.8C358.9,278.8,339.9,294.3,311.9,294.3"/>
		<polygon class="st0" points="381.2,292.4 381.2,159.7 481.4,159.7 481.4,185.7 410.3,185.7 410.3,212.6 472.8,212.6 472.8,238.6 
			410.3,238.6 410.3,266.5 482.3,266.5 482.3,292.4 		"/>
		<path class="st0" d="M583.3,292.4L554.9,250H532v42.5h-29.2V159.7h60.7c31.3,0,50.1,16.5,50.1,43.8v0.4
			c0,21.4-11.6,34.9-28.4,41.1l32.4,47.4H583.3z M583.9,205c0-12.5-8.7-19-22.9-19h-29v38.1h29.6c14.2,0,22.4-7.6,22.4-18.8V205z"/>
		<polygon class="st0" points="632.4,292.4 632.4,159.7 732.6,159.7 732.6,185.7 661.5,185.7 661.5,212.6 724,212.6 724,238.6 
			661.5,238.6 661.5,266.5 733.5,266.5 733.5,292.4 		"/>
		<path class="st0" d="M803.1,294.3c-20.1,0-40.4-7-56.3-21.2l17.2-20.7c11.9,9.9,24.5,16.1,39.6,16.1c11.9,0,19.2-4.7,19.2-12.5
			v-0.4c0-7.4-4.6-11.2-26.7-16.9c-26.7-6.8-44-14.2-44-40.6v-0.4c0-24.1,19.3-40,46.5-40c19.3,0,35.8,6.1,49.3,16.9l-15.2,22
			c-11.8-8.1-23.3-13.1-34.5-13.1c-11.2,0-17.1,5.1-17.1,11.6v0.4c0,8.7,5.7,11.6,28.6,17.4c26.9,7,42.1,16.7,42.1,39.8v0.4
			C851.8,279.6,831.7,294.3,803.1,294.3"/>
		<path class="st0" d="M392.6,30.7c10.8,17.9,8.6,45-4.5,61.1c-14.4,19.1-38.3,27.3-61.8,20.8c-21.4-5.6-38.8-26-40.8-48.1
			c-2.7-23.4,8.2-44.7,28-56.4c15.3-9.4,38.7-10.4,54.6-1.5C377.9,11.4,387.6,21,392.6,30.7 M343.7,3.2c0.2,2.1,0.2,5.1,0,7.6
			c0-0.4,0.4-0.4,0.6-0.5c0.8,0.3,0.8,1.2,0.5,1.8h-0.2c3.8-0.3,7.5,0.7,11,1.8c3.7,0.5,6.9,4.9,10.5,2.6c1,1.1,2.8,0,3.3,1.8
			c1.4,0.3,2.1,1.7,3.1,2.6c-0.1,1.3,1.1,1.9,1.5,2.8v-0.2c1.2-2.2,3.1-4.1,5.3-5.2c-7.6-7.3-16.9-11.9-27.1-13.8
			C349.5,3.8,346.4,4,343.7,3.2 M305,18.3l6.3,6c7.9-7.7,18-12.1,29.1-12.4c-0.4-2.7-0.3-5.7-0.1-8.4C326.8,4.3,315,9.4,305,18.3
			 M383.7,5.3l4.1,4.1c4.2,6.4,10,12.7,15.7,16.8c-1.2-2.6-1.5-5.5-2.8-8.1C398.2,10.9,390.2,7.4,383.7,5.3 M300.2,6.1
			c-5.1,2-10.5,3.7-14.3,8.4c-2.9,3.8-3.8,8.4-5.3,12.8l4.5-3.8C291.8,18.7,293.6,11,300.2,6.1 M350.2,7.8l-3.8,1.7
			c-0.4,0.2-1.8-0.5-1.5,0.6c0.7,0.5,1.5,1,2.4,1.1c2.4-1.1,5.3,0.7,7.3-1.5C354,8.1,351.8,8.1,350.2,7.8 M399.2,12.7
			c5.7,3.7,5.3,10.6,7.3,16.2c0.5,2.4,2,4.5,2.1,6.8c-3-8.8-13.3-9.8-17-18.1l1.2,4.8c2.9,9.4,14.1,11.7,18.4,20.3
			c-1.3-6.2,1-12.6-0.9-18.7C408.8,18.9,404.5,14.3,399.2,12.7 M275.5,21.2c-4.3,6.3-0.8,15.1-2,22.7c1.6-3.1,4.5-6,7.2-8.2
			c6-3.9,11.4-10.1,11.6-17c-3.2,8.2-13.8,9.3-16.4,18h-0.3c3.9-7.3,1.7-17.5,9.1-22.9C280.8,14.9,277.5,17.7,275.5,21.2
			 M343.6,14.9c0.4,2.7,0.3,5.9,0.1,8.5c6.8,0.1,13.2,2.2,18.4,6.1c-0.5-0.3-1.1-1.3-1-2h0.2c0.1-0.9-1.3-1.4-0.8-2.3
			c1.3,0.1,2.2,1.9,2.9,2.8c3.7-0.1,1.6,4.3,4.3,5.6c0.6,0.3-0.2,1.7,0.8,1.5c0.9,0.7,1.9,1.4,1.8,2.6c0.3,1.9,1.9-0.6,2.7,0.6
			c0.8,0.6-0.5,0.9-0.4,1.6c0.5,0.2,0.9-0.5,1.3,0.1c0.2,0.6-0.3,0.9-0.6,1.3c-0.3,1.1,1,0.5,1.4,1c0.6,1.3,1.1,3.2,0.1,4.6
			c1.3,1.4-0.2,2.9-0.5,4.3c-1,0.9-1.1,3-2.9,2.6c-0.4,0.7,0.3,1.6-0.2,2.2l3.2,0.2c-1.8-2.6,0.5-5,1.3-7.3c0.4-0.2,0.8-1,1.2-0.2
			c-0.2,1.1-0.3,2.2-0.4,3.1c0.8,1.2,0.5,2.9,0.8,4.4l8.2-0.2c-0.6-5.4-1.7-10.7-4-15.4c-0.6,0.2-1.3,0.6-1.9,0.3
			c-0.9-1.2-1.7-2.7-2.9-3.7c-1.1,0-1.8-0.9-2.7-1.4c-1.9,0.1-1.2-2.7-3-2.3c-1-0.5-1.6-1-1.9-2.1c-0.1-1.3-0.2-2.9-1.4-3.8
			c-0.7-0.4-1.3,0.1-1.8,0.5c-1,0.6-1.4-0.5-1.4-1.3c-1.1-0.8,0.1-1.8-0.5-2.8c-1.6-1.3-0.9-3.7-3-4.7c-3.5-1.7-7.2-2.8-11.1-3.6
			C347.7,15.4,345.5,15.4,343.6,14.9 M368,14.9c-0.4,0.1-0.3,0.8-0.1,1.1c1.4,0.1,1.4,2.4,3,1.5l-0.4-1.6
			C370.1,14.7,368.7,15.2,368,14.9 M313.1,26.5c2.1,1.5,4.2,3.8,6,5.7c5.6-5.5,13.2-8.8,21.4-8.9c-0.2-2.7-0.2-5.6,0-8.2
			C330.1,15.9,320.9,19.7,313.1,26.5 M381.4,20.1l-5.6,6l-0.9,0.1c0.8,0,0.5,0.8,1,1.2c2.4,1.7,3.4,4,5.4,5.8c0.8,1.8,2.7,3,2.7,5.2
			c2.8,5.4,4,11.7,4.4,17.9c2.8-0.3,5.9-0.4,8.6-0.4l-0.3-0.3C396.1,41.8,390.5,30,381.4,20.1 M303.4,21.1l-0.3-0.8
			c-9.1,9.9-14.2,22.4-14.9,36.1l8.7,0.1c-0.3-2.8,0.4-5.5,0.7-8.2c1.9-8.1,5.3-15.7,11.5-21.6L303.4,21.1z M411.5,23.1
			c3.9,5.8,1.7,13.9,1.4,20.6c0.2,3.2,0.7,6.5,0.5,9.7c-0.5-1.3-0.6-2.7-0.9-4c-1.6-7.3-10.2-10.9-13.6-17c0.5,2.1,0.9,4.2,1.7,6.1
			c3,8.6,11.9,14.5,13.2,23.8c0.8-9,7.1-16.1,4.8-25.8C417.2,31.6,415.1,26.8,411.5,23.1 M272.4,24.2c-3.1,3.7-5.2,8.1-6.2,12.8
			c-2.1,9.8,3.8,17.4,5.1,26.3c1.7-11.2,13.5-18.3,14.2-30.1c-3.5,6.3-11.9,10-13.4,17.5c0,1.2-0.4,2.4-0.6,3.6l-0.3-0.3l0.4-4.9
			C273,40.6,267.9,31.6,272.4,24.2 M340.6,26.2l-0.3,0.2c-7.4,0.4-13.5,3.7-19.2,8.1c2.2,1.4,3.9,3.7,6,5.6
			c3.6-3.4,8.3-5.5,13.3-5.6C340.3,32,340.2,28.8,340.6,26.2 M343.7,26.3c0.4,2.5,0.3,5.4,0.2,8c5,0.4,10.2,2.4,13.8,5.6
			c1.9-1.9,3.9-4.5,6-5.6C357.8,29.7,351.2,26.8,343.7,26.3 M310.9,28.3v0.5c-6.8,7.7-10.6,17-11.3,27.5c2.8,0.1,5.8-0.1,8.4,0.1
			l-0.3-0.4c0.5-8.3,3.5-15.8,9.1-21.8C314.7,32.5,312.7,30.4,310.9,28.3 M365.4,36.2c-2.5,2.9-5.7,5.9-8.1,8.7
			c0.2,0.4,0.6,0.8,0.7,0.6c0.6-0.8,0.2-2.8,1.9-2.4c1.8,0.6,3.3,0.4,5.2,0.6c1.1,0.6,1.2,1.9,2.2,2.4c0.4,0.5-0.2,0.9-0.4,1.3
			c0.2,0.2,0.4,0.4,0.5,0.6c0.5-0.5,1.3-1.1,2.3-0.9c1,0.1,1.3,1.5,2.2,1.7c0.4,0.5-0.3,1.1-0.6,1.3c0.2,1-1,1.3-0.5,2.3
			c0.5,0.1,1.1-0.2,1.3-0.5c2-1.5,0.4-3.4,0.1-5.2c-0.8-1.7-2.5-2-3.8-3.2c0.1-0.5,0.4-1.1,0.8-1.4
			C369.1,39.8,366.7,38.2,365.4,36.2 M319.1,36.5c-1.8,2.2-3.6,4.7-4.8,7.3c-2.1,3.8-2.7,8.3-3.5,12.6l3.5-0.1
			c-0.6-0.7-0.5-1.7-0.5-2.6c0.8-1.7,1.1-4.7,3.7-4.6c1.2-0.3-0.1-1.2,0.9-1.7c1.8-0.3,2.3-2,3.8-2.8c1.4-0.2,1.8-2.2,3.2-2.4
			C322.9,40.7,321.3,38.5,319.1,36.5 M343.8,37.5l0.2,5.8l2.2,0.8c0.6-1.1,1.8-1.4,2.6-2.3c0.7-0.3,0.7,0.5,1,0.8
			c0.4,2.6-2.4,3.8-4,4.8h0.6c1.6-1.7,2.6,2.1,4.3,0.4c0.3-2.2,3.4-1.9,4.1-4.1c-0.5,0.5-0.8-0.1-1.3-0.2c0.2-0.7,1.1-1.2,1.6-1.7
			C351.7,39.6,347.9,38.2,343.8,37.5 M340.4,37.7c-4.5,0.6-8.7,2.3-11.9,5.8c1.1,0.2,2.1,0.6,2.9,1.4c0.3,0.5-0.5,0.6-0.5,0.9
			c0.7,1,0.8-0.2,1.4-0.4c0.6,0.6,1.2,1.1,2.1,0.6c0.5,0.8,1.2,0,1.8,0.1c0.2-0.7,1.1-1.2,0.8-1.9c0.3-0.6,0.5-1.5,1.3-1.5
			c-0.5,2.5,1.9,0,2.5,1.2C340.2,42,340.7,39.5,340.4,37.7 M420.4,43.8c1.5,8.6-3.7,15.1-5.9,22.7c-1.2,2.9-0.7,6.6-2.5,9.1
			c-0.1-1.4,0.7-2.8,0.8-4.4c1.4-9.6-7-15.4-8.9-23.5c-0.1,2.2,0.1,4.3,0.4,6.2c0.5,10.2,7.1,18.4,5.2,29c1.9-2.5,3.3-5.1,5.6-7.5
			C422.9,67.4,424.9,54,420.4,43.8 M264.2,44.9c-2.8,6.4-2.6,14.9-0.5,21.5c1.8,6.9,8.4,11.7,11.8,17.6c-0.6-2.5-0.5-5.6-0.1-8.2
			c2.2-8.9,5.8-17.5,5.2-27.3c-1.3,7.1-7.7,12.1-8.4,19.4c-0.5,3,0.3,5.9,0.6,8.6c-0.7-1.3-1.3-2.9-1.4-4.6
			C270.3,62.3,262.6,55.3,264.2,44.9 M340.2,48.3l0.2,0.1c0.2,0.8,0.7,2,0,2.5c-1,1.3-3.3,1-3.6,2.7c-2.5,0.8-1.5,3.8-2.3,5.8
			c-1.6,0.4-1-1.6-1.8-2.2l-0.4,0.5c-2.5-1.9-2,2.1-3.4,2.5c1.7,0.4,3.1-0.6,4.8-0.6c0.1,0.2,0.5,0.3,0.4,0.6h0.3
			c0.4-0.4,0.4-0.9,0.4-1.4c0.2-0.5,0.8-0.9,1.3-0.5c-0.2,0.5,0.2,1,0.6,1.2l-0.9,1.3c-0.5,0.5,0.1,2-1.1,1.9
			c-0.3,0.1-0.5-0.2-0.4-0.4H334l0.6,1.2c0.8-0.1,0.6-1.4,1.5-1.5c0.9-0.2,1-1.2,0.9-2c1.1-1,2.5-0.4,3.7-0.5c0.3,0.3,1.1,0.4,0.9,1
			c0.5,1-0.3,2-0.9,2.8c0.3,0.5-0.4,1-0.4,1.5c-1,1.1-2.1,0.6-3.5,0.9c1.7,1.2,3.5,1.9,5.8,1.8c2.1,0.2,1.1-2.6,2.7-3.4
			c0.9-0.1,1.7,0.1,2.7-0.2c0.5-0.8,0.5-1.8,0.7-2.7c-0.9-0.4-0.6-1.4-0.7-2.1c-0.5-0.6-0.5-1.8-1.5-1.9c-0.2-0.6,0.4-0.9,0.4-1.4
			c1.6-0.6-0.8-1.6,0.2-2.5c-1.8-0.3-2.2-3.2-4.5-2.3c-0.5-0.7-1.9-1.1-1.9-2.2c0.1-0.8,2-0.5,1.7-0.4c-0.1-0.2-0.3-0.3-0.3-0.5
			C341.4,47.8,340.6,47.9,340.2,48.3 M317.4,55.2c-2,0.6,0,2.5-0.1,3.7c-0.2,1-1.2,0.2-1.8,0.6c0.3,1.7-1.1,2-2.3,2.3
			c-0.4,1.1,0.9,1.7,0.3,2.7c1.4,1.4,2.6,3.2,2.3,5.2c1,1.4,0.8,3.6,1,5.5c0.8,0.8,1.3,2.1,1.3,3.5c0,0.7-0.7,0.9-1.1,1.2
			c-0.5,0.6,0.4,0.3,0.4,0.8l7.1-7.4c-2.5-2.9-4.5-6.7-5.2-10.7l-0.9-0.5c-0.2,1-0.1,2.5-1,2.8c-0.5-0.4-1.4-0.6-1.4-1.5
			c0.3-0.6,0.7-0.2,1.2-0.3c-0.1-0.5,0-1,0.1-1.4c0.2-0.6-0.8-1-0.1-1.5c0.6-0.1,0.9,0.7,1.4,1l1.3-0.7c-0.4-1.2,0.3-3.1-0.1-4.5
			C319.5,55,318.3,55.2,317.4,55.2 M369.9,56.2h0.6H369.9z M369,58.9l1.4,1.7c0,1.9,2.5,2.5,2.7,4.4c0.5-1.8,0.5-3.7,1-5.5
			C372.5,59.3,370.4,59.8,369,58.9 M388.1,59l0.3,0.5c-0.5,11.3-5.1,21.5-12.3,29.2c2,1.8,4.3,4.2,6.2,6.1
			c7.1-8.1,11.9-17.3,13.6-27.7c0.6-2.7,0.4-5.5,1.2-8.1c-2.6,0.7-5.7,0.3-8.6,0.4L388.1,59z M377.1,59.1c0.3,1.1-0.3,2.1-0.3,3.2
			c-1.1,1.9,1.4,2.3,0.7,4.1c-0.5,0.4-1,0.3-1.5,0.1c-1.3,5.2-3.9,10-7.7,14.2H368c1,0.6,1.7,1.9,2.7,2.2v-0.7
			c0.2-0.2,0.3-0.5,0.6-0.4c2.1,0.6,2.2,3.5,2.4,4.9c5.4-5.7,8.8-12.5,10.5-19.8c0.6-2.5,0.3-5.4,1.3-7.6
			C382.7,59.4,379.7,59.6,377.1,59.1 M310.7,59.3c0.6,1.9,1.2,4,0.7,6.1c0-1,2.1-1.9,0.4-2.8c0.6-1,0.2-3,1.4-3.1
			C312.3,59.7,311.5,59.7,310.7,59.3 M288.3,59.5c0.6,13.6,5.6,25.5,14.5,35.6c2-2.1,4.2-4.4,6.3-6.1c-1.1-0.7-1.7-1.9-2.8-2.8
			c-1.3-0.3-2.2-1.6-2.6-2.7c0.1,0.2-0.1,0.3-0.3,0.4c-1.2,0.6-1.6-0.9-2.4-1.4c-0.7-0.4-0.2-2.1-1.4-1.4c-0.8-1.2-2.1-1.1-2.7-2.5
			l-0.5,0.9c-1,0-1.6-1.2-2.2-1.8c-2,0.6-1.2-2.1-2.3-3c-0.4-1.7,0.1-3.3,1-4.6c0.6-0.5,1.7-0.1,1.9,0.3c1,0.4,0.4-0.8,0.9-1
			c1.4-1.2,2.1,0.5,2.9,1.4c-1.2-3.4-1.9-7.4-1.7-11.1C294.2,59.8,291.1,59.7,288.3,59.5 M299.5,59.4l0.3,0.4
			c0.3,3.8,1.3,7.6,1.6,11.2c0.5-0.3,0.2-1.2,0.8-1.2c0.2-1.8,0.5-3.9,1.7-5.5c1.7-0.1,1.8-2.3,3.6-2.2c0.4,0.3,1,0.7,1.2,1.3
			c-0.9-1.1-0.9-2.8-0.5-4.1C305.5,59.8,302.2,59.8,299.5,59.4 M322.7,62.8l0.5,0.8c0.6,2.7,2.2,4.9,3.6,7.3l2.5-2.6
			c-0.1-0.3,0.1-0.7-0.1-0.9c-0.5-0.6-0.2-1.8-0.8-2.2c-0.2,0.6,0.5,0.9,0.2,1.4c-0.8-0.3-1.7-0.7-2.1-1.6c0.2-1.2-0.7-0.3-1.4-0.9
			C325,62.8,323.3,63.6,322.7,62.8 M331.7,65c-0.2,0.7-0.7,1.3-1.2,1.9c0.8-0.3,1.2-1.4,2-1.4L331.7,65z M405.2,66
			c-5.1,10.9-1.4,25.4-7.6,35.8l1-0.9c12-6.6,26.4-17.6,24-33.7c-0.2,2.2-0.9,4.2-1.9,6c-4.7,7.3-12.7,13.3-16.6,20.8
			c-0.1,0.3-0.5,0.4-0.6,0.2l0.8-1C410,85.2,404.9,75.1,405.2,66 M354.4,66.9c-1.2,1.6,1.1,1.5,1.3,2.9c0.3,0,0.6,0.1,0.7-0.1
			c-0.2-0.6-0.1-1.2-0.6-1.7C354.9,68.1,354.9,66.9,354.4,66.9 M279.7,67.1c0.6,3.5-0.5,6.6-1,9.8c-1.8,6.1-0.9,13.3,2.7,18.3
			c-1.2-0.6-1.9-2-2.7-3.2c-4.4-8.5-15.6-13.3-16.5-23.4c0,3.7,0,7.6,1.1,10.9c3.1,11.4,15.7,17.3,24.1,23
			C281.4,92.1,284.6,78,279.7,67.1 M368.6,67.6c-1.6-1.2-1.2,1.1-2.6,0.9c-0.5-0.1-0.6-0.7-0.6-1.2c-0.1,1.2-1.1,2.1-1.8,3.1
			c-2.5-0.7-1.8,2.8-4.3,2c0.3,1,1.4-0.1,1.9,0.2c0.4-0.2,0.3-0.6,0.5-0.9c0.3-1,1.5-1.4,2.4-1c0.5,0.9,0.7,1.9,0.6,2.9
			c-0.6,0.4-0.6,1.1-0.5,1.8c-0.7,1.2-0.4,3.8-2.7,3.6c-2.3-0.9-4.9-1.5-7.5-1.6V78c1.7,0.6,3.6,0.6,5,1.9c1.5-0.2,3.4,0.2,4.5-0.6
			c0.2-1.1,0.6-2,1.3-2.8c0.9,0.1,0.7,1.4,1.2,2c2.8-3.6,5.3-7,6.2-11.4C371.1,67,370.1,67.8,368.6,67.6 M334.3,67.5l-5.1,5.8
			c2.9,2.2,6.3,4,10.1,4.6c-0.1-1-0.1-2,0.5-2.8c0.5-0.3,1.3,0.2,1.8-0.4c-0.1-0.5-0.4-0.5-0.6-0.9c-0.3-0.7,0-1.4,0.1-1.9
			c0.2-0.4-0.4-1.2,0.3-1.5c-1.7,0.8-3.1-0.3-4.6-0.8C336,68.9,334.6,68.7,334.3,67.5 M350.9,73.2c0.6-0.9,2-0.7,2.3-1.7
			C352,71.4,350.7,72.2,350.9,73.2 M353.9,74.5c-0.6,0.3-1.1,0.3-1.4,1c-0.7,0.9-1.6-0.1-2.2-0.4c0.2,0.3,0.7,0.9,0.1,1.3
			c-0.7,0.7-1.3-0.3-2-0.5c-0.4,2.3-1.2-0.6-2.4-0.1c-0.5-1.3-1.4,0.3-2.3,0.1c-0.6,0.5-0.7,2.1-1.9,1.9c-0.3,0.7-1.3,0.5-1.4,1
			c0.6,0.7,1.4,0.4,2,0.3c1-0.9,2.3-0.3,3.5-0.5c-0.1,1.9,2.1,0.5,2.8,1.7c0.8,0,0.8-0.9,1.1-1.4c1.7-0.3,3.4-1.3,4.3-2.6
			C354.3,75.8,354.6,74.8,353.9,74.5 M326.7,75.4c-1.7,2.1-3.7,4.1-5.8,5.8h0.4c4.7,4,10.6,6.9,16.2,7.8c-2-0.3-2.8-2.2-3.7-3.7
			c-0.5-1.2,1.3-1.5,1-2.8c0.7-1.1,1.8-1.8,3.1-1.9c-0.6,0.1-1.3,0.2-1.9,0.4C332.5,79.8,329.1,78.3,326.7,75.4 M400.1,82.2
			l-4.5,5.9c-6,8.3-5.3,19.7-13.7,26.8c4.3-1.4,9.1-2,13.5-2.9c10.1-2.6,20.7-12.5,22.1-22.8c-1.8,4.3-5.6,7.5-9.4,10
			c-6.6,3.1-13.3,6.6-18.9,11.5h-0.6l0.4-0.5C398.6,103.7,396,91.3,400.1,82.2 M365.9,82.8v0.1c-4,2.8,1.9,2.9,2,5.4
			c-0.6,1.2-2.7,2.4-1.4,3.7c0.4,0.5-0.2,0.9-0.4,1.3l5.5-4.6c-0.7,0.5-1.6,0.2-1.9-0.5C369.8,85.8,367,84.7,365.9,82.8 M284.8,83.1
			l1.5,4c1.5,8.8,2.2,18.6,10.2,24.2l-0.1,0.1c-2.6-1.1-4.6-3.3-6.9-4.8c-7.6-4.9-18-7.1-22.3-16.5c1.2,6.9,5.9,13,11.5,17.3
			c6.8,6,16.2,5.5,24.5,7.9c-3-2.4-4.8-5-6.1-8.3C294.1,98.6,291.4,89.9,284.8,83.1 M320.6,84.9l0.6,0.8L320.6,84.9z M321.5,85.9
			c0,0.9,1.2,1,0.8,2.1c-1.8,1.1-4,0.3-5.8,1.7c-1.6,0.9-2.9-1-3.9-0.9c7.8,6.7,16.9,11.2,27.4,11.7l0.7,0.4
			c-0.4-2.6-0.3-5.5-0.1-8.2C333.5,93,327,90,321.5,85.9 M373.9,90.6c-1.2,1.6-2.8,3.1-4.5,4.1c-5.5,1.9-6.1,8.1-11.5,10.1
			c-2.1,0.9-3.4-1.9-5.3-2.4c-2.9,0.5-5.9,1.3-8.8,0.8v9l0.4-0.3c13.7-0.6,26.2-6,35.8-15.1C377.8,94.8,375.5,92.7,373.9,90.6
			 M310.9,91.1l-5.9,6.1c10.1,9.1,22.2,14,35.8,14.8l-0.4-0.6c0.1-2.7-0.2-5.5,0.3-8.1l-0.1,0.2C329.3,103.2,318.9,99,310.9,91.1
			 M343.4,93l0.5,0.9l-0.1,6.8c2-0.7,4.7-0.7,6.5-1c-1.1-1.1-2.7-1-3.1-2.5c-0.7-1.1,0.3-2.2,0.3-3.1
			C346.2,93.5,344.3,94.2,343.4,93 M388.7,99.4c-6.1,4-11.4,10.8-17,15.2c-3.1,2.3-6.8,3-10.4,4.1c8,0.6,14.7,4.4,23,3.8
			c8.9-0.4,17.2-5.6,21.4-13.5c-6.2,7.4-16.1,6.9-25.2,7.8c-3,0.4-6,1.3-9.1,1.3c0.1-0.1,0.2-0.3,0.4-0.3
			C381.8,117,384.6,106.2,388.7,99.4 M296.2,100.1c4.1,4.8,4.3,11.1,10,15.1c2.2,1.9,5.1,2.3,7.6,3.3c-2.7,0.3-5.2-0.8-8-1
			c-9.2-1.1-19.7,0-26.4-7.4c3,5.3,8.4,10,14.1,11.8c10.7,4.1,20.3-1.9,30.5-2.8C312.2,118.5,305.8,105.6,296.2,100.1 M373,125
			c-9.1-4.2-19.7-8.8-30.3-4.8c-5.4-1.8-12.4-1.8-17.8,0c-9.4,4.3-22.2,10.7-32.1,3.6c1.9,2.2,3.9,3.3,6,4.9
			c6.4,4.2,15.6,3.7,22.2,0.4c6.1-2.6,10.7-10.2,18.5-7.8c-6.6,3.3-12.6,7.2-18,12.9l3.3,2.8c4.8-6.3,11.3-11.6,18.2-14.7
			c6.7,3.3,12.8,8.9,17.9,14.5l3.3-2.8c-5.3-5.2-11.5-9.3-17.9-12.6c1.7-0.4,3.7-0.3,5.4-0.2c6.9,3,12.3,9.1,20.1,10
			c8.3,1.3,15.7-2,20.8-8.1l-3.9,2.1C384,127.1,377.7,126.6,373,125"/>
		<path class="st0" d="M1030.2,42.2c17.6-0.8,34.3-3.2,49.4-6.8V0.9h-49.4V42.2z"/>
		<path class="st0" d="M1129.7,40c-8.7,4.4-18.4,8.2-28.7,11.5v38.2c16.3-12,29.9-27.4,39.8-45.1V33.7
			C1137.2,35.9,1133.6,38,1129.7,40"/>
		<path class="st0" d="M1079.7,102.6c0,0,0-0.1,0-0.1V57.3c-15.4,3.4-32,5.5-49.4,6.2v53.1C1047.8,114.9,1064.5,110.1,1079.7,102.6"
			/>
		<path class="st0" d="M1101,0.9V29c16.4-5.9,30-13.3,39.8-21.4V0.9H1101z"/>
		<path class="st1" d="M1004.5,0.9h-51.6v34c15.7,3.9,33.2,6.5,51.6,7.3V0.9z"/>
		<path class="st1" d="M931.5,28.3V0.9h-37.5v6.7c5.6,4.8,12.6,9.3,20.6,13.4C919.9,23.6,925.5,26.1,931.5,28.3"/>
		<path class="st1" d="M1004.5,63.4c-18.2-0.8-35.5-3-51.6-6.7v44.8c15.7,8.1,33.2,13.3,51.6,14.9V63.4z"/>
		<path class="st1" d="M931.5,88.1V50.9c-14-4.6-26.6-10.4-37.5-17.2v11.1C903.5,61.6,916.3,76.4,931.5,88.1"/>
		<path class="st1" d="M952.7,250.9v-24.1h51.8v-5.2v-18.9h-51.8v-24.1h51.8V138c-44.1-3.4-83.2-24.5-110.4-56.1v210.8h110.4v-41.8
			H952.7z"/>
		<path class="st0" d="M1030.2,138v40.8h49.7v24.1h-49.7v18.9v5.2h49.7v24.1h-49.7v41.8h110.5V81.8
			C1113.5,113.4,1074.4,134.5,1030.2,138"/>
	</g>
</g>
</svg>
